<svg width="150" height="150" viewBox="0 0 150 150" fill="none" xmlns="http://www.w3.org/2000/svg">
<g clip-path="url(#clip0_2109_186323)">
<path d="M37.3871 104.569L22.9727 142.167V59.9219H37.3871V104.569Z" fill="#663333" stroke="black" stroke-width="0.484997"/>
<path d="M141.141 81.8551L118.168 142.168L121.171 66.9726L126.877 59.923L144.294 14.4922L141.141 81.8551Z" fill="#663333" stroke="black" stroke-width="0.484997"/>
<path d="M121.171 66.9715L118.168 142.167L115.465 150H40.3904L37.3874 142.167L34.6847 74.8044L31.6817 66.9715L28.6787 74.8044L22.973 142.167L19.97 150H11.5616L8.70871 142.167L5.55556 66.9715L0 59.9219H126.877L121.171 66.9715Z" fill="#7F4C4C" stroke="black" stroke-width="0.484997"/>
<path d="M22.973 0H150L126.877 59.9217H0L22.973 0Z" fill="#B27F7F" stroke="black" stroke-width="0.484997"/>
<path d="M57.5077 6.65625V57.5701H46.6969L40.3906 52.0871L57.5077 6.65625Z" fill="#663333"/>
<path d="M57.5078 6.65881V57.5726H68.3186V1.17578L57.5078 6.65881Z" fill="#7F4C4C"/>
<path d="M137.538 1.17578V23.8912L126.877 52.0896L116.066 57.5726H68.3184V1.17578H137.538Z" fill="#996666"/>
<path d="M137.537 1.17578V23.8912L144.294 6.65881L137.537 1.17578Z" fill="#B27F7F"/>
<path d="M25.0752 6.65625V56.0035L20.871 57.5701H12.3124L5.55566 52.0871L25.0752 6.65625Z" fill="#663333"/>
<path d="M25.0752 6.65881V56.0061L31.6818 52.0896L35.886 42.6901V1.17578L25.0752 6.65881Z" fill="#7F4C4C"/>
<path d="M44.5945 1.17578V21.5413L35.8857 42.6901V1.17578H44.5945Z" fill="#996666"/>
<path d="M44.5947 1.17578V21.5413L51.2013 6.65881L44.5947 1.17578Z" fill="#B27F7F"/>
<path d="M5.55566 52.0896L25.0752 6.65881L35.886 1.17578H44.5947L51.2013 6.65881L44.5947 21.5413L35.886 42.6901L31.6818 52.0896L20.871 57.5726H12.3124L5.55566 52.0896Z" stroke="black" stroke-width="0.484997"/>
<path d="M40.3906 52.0896L57.5077 6.65881L68.3186 1.17578H137.538L144.295 6.65881L126.877 52.0896L116.066 57.5726H46.6969L40.3906 52.0896Z" stroke="black" stroke-width="0.484997"/>
</g>
<defs>
<clipPath id="clip0_2109_186323">
<rect width="150" height="150" fill="white"/>
</clipPath>
</defs>
</svg>
