<svg width="150" height="150" viewBox="0 0 150 150" fill="none" xmlns="http://www.w3.org/2000/svg">
<g clip-path="url(#clip0_2109_185335)">
<path d="M68.6611 12.4609H78.5404V20.569H68.6611V12.4609Z" fill="#B7B7C4" stroke="black" stroke-width="0.31447"/>
<path d="M71.625 0H75.5767V12.4625H71.625V0Z" fill="#B7B7C4" stroke="black" stroke-width="0.31447"/>
<path d="M39.3525 141.591L50.2197 132.582H112.459L124.314 141.591H39.3525Z" fill="#CCCCCC" stroke="black" stroke-width="0.31447"/>
<path d="M39.3525 141.59H124.314V149.998H105.214V147.596H58.4524V149.998H39.3525V141.59Z" fill="#999999" stroke="black" stroke-width="0.31447"/>
<path d="M114.435 84.8359H148.024L148.683 85.4365L149.012 86.0371L149.671 87.2383L150 88.7398V90.2413V92.0431V93.5446L149.671 95.0461L149.012 96.2473L148.683 97.1482L148.024 97.4486H114.435V84.8359Z" fill="#7F7F7F"/>
<path d="M114.435 85.7344H148.024L148.353 86.335L149.012 86.9356L149.341 87.8365L149.671 89.0377L150 90.5392V92.0407L149.671 93.2419L149.341 94.4431L149.012 95.344L148.353 96.2449L148.024 96.5452H114.435V85.7344Z" fill="#8C8C8C"/>
<path d="M114.435 86.9375H148.024L148.353 87.2378L149.012 87.8384L149.341 88.439L149.671 89.6402L150 90.5411V91.7423L149.671 92.9435L149.341 93.8444L149.012 94.7453L148.353 95.3459L148.024 95.6462H114.435V86.9375Z" fill="#999999"/>
<path d="M114.435 87.8359H148.024L148.353 88.1362L149.012 88.4365L149.341 89.0371L149.671 89.938L150 90.8389V91.7398L149.671 92.6407L149.341 93.2413L149.012 93.8419L148.353 94.4425L148.024 94.7428H114.435V87.8359Z" fill="#A6A6A6"/>
<path d="M114.435 88.7383H148.024L148.353 89.0386L149.012 89.3389L149.341 89.6392L149.671 90.2398L150 90.8404V91.441L149.671 92.0416L149.341 92.6422L149.012 93.2428L148.353 93.5431L148.024 93.8434H114.435V88.7383Z" fill="#B2B2B2"/>
<path d="M114.435 89.6406H148.024H148.353L149.012 89.9409L149.341 90.2412L149.671 90.5415L150 91.1421V91.4424L149.671 91.7427L149.341 92.043L149.012 92.3433L148.353 92.6436H148.024H114.435V89.6406Z" fill="#BFBFBF"/>
<path d="M132.217 91.7403C142.038 91.7403 150 91.4714 150 91.1397C150 90.808 142.038 90.5391 132.217 90.5391C122.396 90.5391 114.435 90.808 114.435 91.1397C114.435 91.4714 122.396 91.7403 132.217 91.7403Z" fill="#CCCCCC"/>
<path d="M114.435 84.8359H148.024L148.683 85.4365L149.012 86.0371L149.671 87.2383L150 88.7398V90.2413V92.0431V93.5446L149.671 95.0461L149.012 96.2473L148.683 97.1482L148.024 97.4486H114.435V84.8359Z" stroke="black" stroke-width="0.31447"/>
<path d="M111.8 106.758H145.06L145.719 107.358L146.377 108.259L146.707 109.761L147.036 111.863L147.365 113.965V116.067L147.036 118.169L146.707 119.971L146.377 121.773L145.719 122.674L145.06 123.274H111.8V106.758Z" fill="#7F7F7F"/>
<path d="M111.8 107.957H145.06L145.719 108.558L146.377 109.459L146.707 110.66L147.036 112.161V114.263V116.065V117.867L146.707 119.368L146.377 120.57L145.719 121.771L145.06 122.071H111.8V107.957Z" fill="#8C8C8C"/>
<path d="M111.8 109.16H145.06L145.719 109.761L146.377 110.361L146.707 111.563L147.036 112.764V114.265V115.767V117.268L146.707 118.469L146.377 119.671L145.719 120.572L145.06 120.872H111.8V109.16Z" fill="#999999"/>
<path d="M111.8 110.359H145.06L145.719 110.66L146.377 111.26L146.707 112.161L147.036 113.362V114.564V115.464V116.666L146.707 117.867L146.377 118.768L145.719 119.368L145.06 119.669H111.8V110.359Z" fill="#A6A6A6"/>
<path d="M111.8 111.863H145.06H145.719L146.377 112.464L146.707 113.064L147.036 113.665V114.566V115.467V116.368L146.707 116.968L146.377 117.569L145.719 118.17L145.06 118.47H111.8V111.863Z" fill="#B2B2B2"/>
<path d="M111.8 113.062H145.06H145.719L146.377 113.363L146.707 113.663L147.036 114.264V114.864V115.165V115.765L146.707 116.366L146.377 116.666L145.719 116.966H145.06H111.8V113.062Z" fill="#BFBFBF"/>
<path d="M129.582 115.767C139.404 115.767 147.365 115.431 147.365 115.016C147.365 114.602 139.404 114.266 129.582 114.266C119.761 114.266 111.8 114.602 111.8 115.016C111.8 115.431 119.761 115.767 129.582 115.767Z" fill="#CCCCCC"/>
<path d="M111.8 106.758H145.06L145.719 107.358L146.377 108.259L146.707 109.761L147.036 111.863L147.365 113.965V116.067L147.036 118.169L146.707 119.971L146.377 121.773L145.719 122.674L145.06 123.274H111.8V106.758Z" stroke="black" stroke-width="0.31447"/>
<path d="M133.535 24.776H129.912V8.10938H133.535V24.776Z" fill="#4C4C4C" stroke="black" stroke-width="0.31447"/>
<path d="M116.081 17.2656V19.0674H52.1953V17.2656H116.081Z" fill="#4C4C4C" stroke="black" stroke-width="0.31447"/>
<path d="M23.875 52.4023V62.3123L25.6862 65.015" stroke="black" stroke-width="0.31447"/>
<path d="M43.9629 56.6077L44.6215 50.6017L50.2198 45.7969" stroke="black" stroke-width="0.31447"/>
<path d="M52.8544 123.274H19.2649L18.6063 122.674L18.277 121.473L17.9477 119.971L17.6184 118.169L17.2891 116.067V113.965L17.6184 111.863L17.9477 109.761L18.277 108.259L18.6063 107.058L19.2649 106.758H52.8544V123.274Z" fill="#7F7F7F"/>
<path d="M52.8544 122.071H19.2649L18.9356 121.471L18.277 120.57L17.9477 119.368L17.6184 117.567L17.2891 115.765V113.963L17.6184 112.161L17.9477 110.66L18.277 109.158L18.9356 108.257L19.2649 107.957H52.8544V122.071Z" fill="#8C8C8C"/>
<path d="M52.8544 120.872H19.2649L18.9356 120.271L18.277 119.671L17.9477 118.469L17.6184 117.268L17.2891 115.767V114.265L17.6184 112.764L17.9477 111.262L18.277 110.361L18.9356 109.46L19.2649 109.16H52.8544V120.872Z" fill="#999999"/>
<path d="M52.8544 119.368H19.2649L18.9356 119.068L18.277 118.467L17.9477 117.567L17.6184 116.666L17.2891 115.464V114.263L17.6184 113.062L17.9477 112.161L18.277 111.26L18.9356 110.66L19.2649 110.359H52.8544V119.368Z" fill="#A6A6A6"/>
<path d="M52.8544 118.169H19.2649L18.9356 117.869L18.277 117.569L17.9477 116.968L17.6184 116.067L17.2891 115.466V114.566L17.6184 113.665L17.9477 112.764L18.277 112.163L18.9356 111.863L19.2649 111.562H52.8544V118.169Z" fill="#B2B2B2"/>
<path d="M52.8544 116.966H19.2649H18.9356L18.277 116.666L17.9477 116.065L17.6184 115.765L17.2891 115.164V114.564L17.6184 114.263L17.9477 113.663L18.277 113.362L18.9356 113.062L19.2649 112.762H52.8544V116.966Z" fill="#BFBFBF"/>
<path d="M35.0717 115.767C44.8928 115.767 52.8544 115.431 52.8544 115.016C52.8544 114.602 44.8928 114.266 35.0717 114.266C25.2506 114.266 17.2891 114.602 17.2891 115.016C17.2891 115.431 25.2506 115.767 35.0717 115.767Z" fill="#CCCCCC"/>
<path d="M52.8544 123.274H19.2649L18.6063 122.674L18.277 121.473L17.9477 119.971L17.6184 118.169L17.2891 116.067V113.965L17.6184 111.863L17.9477 109.761L18.277 108.259L18.6063 107.058L19.2649 106.758H52.8544V123.274Z" stroke="black" stroke-width="0.31447"/>
<path d="M54.83 99.8485H21.2405L20.9112 99.2479L20.2526 98.347L19.9233 96.5452L19.594 94.7434L19.2646 92.6413V90.5392L19.594 88.4371L19.9233 86.335L20.2526 84.8335L20.9112 83.9326L21.2405 83.332H54.83V99.8485Z" fill="#7F7F7F"/>
<path d="M54.83 98.6493H21.5698L20.9112 98.0487L20.2526 97.1478L19.9233 95.9466L19.594 94.1448L19.2646 92.343V90.5412L19.594 88.7394L19.9233 87.2379L20.2526 85.7364L20.9112 84.8355L21.5698 84.5352H54.83V98.6493Z" fill="#8C8C8C"/>
<path d="M54.83 97.4461H21.5698L20.9112 96.8455L20.2526 96.2449L19.9233 95.0437L19.594 93.8425L19.2646 92.341V90.8395L19.594 89.338L19.9233 87.8365L20.2526 86.9356L20.9112 86.0347L21.5698 85.7344H54.83V97.4461Z" fill="#999999"/>
<path d="M54.83 96.2468H21.5698L20.9112 95.9465L20.2526 95.0456L19.9233 94.445L19.594 93.2438L19.2646 92.0426V90.8414L19.594 89.6402L19.9233 88.7393L20.2526 87.8384L20.9112 87.2378L21.5698 86.9375H54.83V96.2468Z" fill="#A6A6A6"/>
<path d="M54.83 94.7433H21.5698H20.9112L20.2526 94.1427L19.9233 93.5421L19.594 92.9415L19.2646 92.0406V91.1397L19.594 90.2388L19.9233 89.6382L20.2526 88.7373L20.9112 88.437L21.5698 88.1367H54.83V94.7433Z" fill="#B2B2B2"/>
<path d="M54.83 93.5445H21.5698H20.9112L20.2526 93.2442L19.9233 92.6436L19.594 92.3433L19.2646 91.7427V91.1421L19.594 90.8418L19.9233 90.2412L20.2526 89.9409L20.9112 89.6406H21.5698H54.83V93.5445Z" fill="#BFBFBF"/>
<path d="M37.0473 92.3413C46.8684 92.3413 54.83 92.0052 54.83 91.5906C54.83 91.176 46.8684 90.8398 37.0473 90.8398C27.2262 90.8398 19.2646 91.176 19.2646 91.5906C19.2646 92.0052 27.2262 92.3413 37.0473 92.3413Z" fill="#CCCCCC"/>
<path d="M54.83 99.8485H21.2405L20.9112 99.2479L20.2526 98.347L19.9233 96.5452L19.594 94.7434L19.2646 92.6413V90.5392L19.594 88.4371L19.9233 86.335L20.2526 84.8335L20.9112 83.9326L21.2405 83.332H54.83V99.8485Z" stroke="black" stroke-width="0.31447"/>
<path d="M29.1436 52.4023H37.3763V53.9038H29.1436V52.4023Z" fill="#FFCCAB" stroke="black" stroke-width="0.31447"/>
<path d="M12.1846 51.5H20.9112V53.3018H12.1846V51.5Z" fill="#FFCCAB" stroke="black" stroke-width="0.31447"/>
<path d="M19.2646 45.7969H25.6862V54.8059H19.2646V45.7969Z" fill="#4C4C4C" stroke="black" stroke-width="0.31447"/>
<path d="M53.8418 34.0859H130.9V123.275H113.447V139.191H53.8418V34.0859Z" fill="#191919"/>
<path d="M101.592 18.168H130.9V48.198H101.592V18.168Z" fill="#CCCCCC"/>
<path d="M101.592 39.4876L130.9 26.875V48.1963H101.592V39.4876Z" fill="#C7C7C7"/>
<path d="M101.592 40.6907L130.9 28.0781V48.1982H101.592V40.6907Z" fill="#C2C2C2"/>
<path d="M101.592 42.492L130.9 30.1797V48.1977H101.592V42.492Z" fill="#BDBDBD"/>
<path d="M101.592 18.168H130.9V48.198H101.592V18.168Z" stroke="black" stroke-width="0.31447"/>
<path d="M110.812 22.3711H119.045V28.0768H110.812V22.3711Z" fill="#333333"/>
<path d="M96.9814 67.418H137.157V111.562H96.9814V67.418Z" fill="#CCCCCC"/>
<path d="M96.9814 98.6503L137.157 80.332V111.563H96.9814V98.6503Z" fill="#C7C7C7"/>
<path d="M96.9814 100.751L137.157 82.1328V111.562H96.9814V100.751Z" fill="#C2C2C2"/>
<path d="M96.9814 103.455L137.157 84.8359V111.563H96.9814V103.455Z" fill="#BDBDBD"/>
<path d="M96.9814 67.418H137.157V111.562H96.9814V67.418Z" stroke="black" stroke-width="0.31447"/>
<path d="M103.238 74.9258H118.057V87.5384H103.238V74.9258Z" fill="black"/>
<path d="M107.849 92.043H113.447V96.5475H107.849V92.043Z" fill="black"/>
<path d="M78.869 123.572L75.2466 123.873H71.9535L68.6604 123.572L65.3674 122.671L63.0622 121.47L61.4157 119.969L60.4277 118.167V25.3742L61.4157 23.8727L63.0622 22.3712L65.3674 21.17L68.6604 20.2691L71.9535 19.9688H75.2466L78.869 20.2691L81.8328 21.17L84.1379 22.3712L86.1138 23.8727L86.7724 25.3742V118.167L86.1138 119.969L84.1379 121.47L81.8328 122.671L78.869 123.572Z" fill="#8C8C99"/>
<path d="M77.8818 123.572L75.2473 123.873H72.2836L69.3198 123.572L66.6853 122.671L64.7095 121.47L63.0629 119.969L62.4043 118.167V25.3742L63.0629 23.8727L64.7095 22.3712L66.6853 21.17L69.3198 20.2691L72.2836 19.9688H75.2473L77.8818 20.2691L80.5163 21.17L82.8214 22.3712L84.1387 23.8727L84.7973 25.3742V118.167L84.1387 119.969L82.8214 121.47L80.5163 122.671L77.8818 123.572Z" fill="#9494A1"/>
<path d="M77.2229 123.572L74.9178 123.873H72.6126L69.9781 123.572L68.0023 122.671L66.3557 121.47L65.0385 119.969L64.3799 118.167V25.3742L65.0385 23.8727L66.3557 22.3712L68.0023 21.17L69.9781 20.2691L72.6126 19.9688H74.9178L77.2229 20.2691L79.5281 21.17L81.1746 22.3712L82.1625 23.8727L83.1505 25.3742V118.167L82.1625 119.969L81.1746 121.47L79.5281 122.671L77.2229 123.572Z" fill="#9E9EAB"/>
<path d="M76.564 123.572L74.5882 123.873H72.6123L70.9658 123.572L69.3192 122.671L68.002 121.47L67.0141 119.969L66.3555 118.167V25.3742L67.0141 23.8727L68.002 22.3712L69.3192 21.17L70.9658 20.2691L72.6123 19.9688H74.5882L76.564 20.2691L78.2106 21.17L79.5278 22.3712L80.5157 23.8727L81.1743 25.3742V118.167L80.5157 119.969L79.5278 121.47L78.2106 122.671L76.564 123.572Z" fill="#A5A5B2"/>
<path d="M75.9051 123.572L74.2586 123.873H72.9414L71.6241 123.572L70.3069 122.671L69.319 121.47L68.6604 119.969L68.3311 118.167V25.3742L68.6604 23.8727L69.319 22.3712L70.3069 21.17L71.6241 20.2691L72.9414 19.9688H74.2586L75.9051 20.2691L76.8931 21.17L77.881 22.3712L78.5396 23.8727L78.8689 25.3742V118.167L78.5396 119.969L77.881 121.47L76.8931 122.671L75.9051 123.572Z" fill="#ADADBA"/>
<path d="M74.9179 123.572L74.2593 123.873H73.2714L72.2835 123.572L71.6249 122.671L70.9662 121.47L70.6369 119.969L70.3076 118.167V25.3742L70.6369 23.8727L70.9662 22.3712L71.6249 21.17L72.2835 20.2691L73.2714 19.9688H74.2593L74.9179 20.2691L75.9059 21.17L76.2352 22.3712L76.8938 23.8727L77.2231 25.3742V118.167L76.8938 119.969L76.2352 121.47L75.9059 122.671L74.9179 123.572Z" fill="#B7B7C4"/>
<path d="M73.6004 123.873C74.3279 123.873 74.9177 100.613 74.9177 71.9207C74.9177 43.2284 74.3279 19.9688 73.6004 19.9688C72.8729 19.9688 72.2832 43.2284 72.2832 71.9207C72.2832 100.613 72.8729 123.873 73.6004 123.873Z" fill="#BFBFCC"/>
<path d="M78.869 123.572L75.2466 123.873H71.9535L68.6604 123.572L65.3674 122.671L63.0622 121.47L61.4157 119.969L60.4277 118.167V25.3742L61.4157 23.8727L63.0622 22.3712L65.3674 21.17L68.6604 20.2691L71.9535 19.9688H75.2466L78.869 20.2691L81.8328 21.17L84.1379 22.3712L86.1138 23.8727L86.7724 25.3742V118.167L86.1138 119.969L84.1379 121.47L81.8328 122.671L78.869 123.572Z" stroke="black" stroke-width="0.31447"/>
<path d="M49.5605 7.50781H53.1829V137.388H49.5605V7.50781Z" fill="#A5A5B2"/>
<path d="M50.2197 7.50781H52.1956V137.388H50.2197V7.50781Z" fill="#F2F2FF"/>
<path d="M49.5605 7.50781H53.1829V137.388H49.5605V7.50781Z" stroke="black" stroke-width="0.31447"/>
<path d="M91.3828 7.50781H95.0052V137.388H91.3828V7.50781Z" fill="#A5A5B2"/>
<path d="M92.3711 7.50781H94.3469V137.388H92.3711V7.50781Z" fill="#F2F2FF"/>
<path d="M91.3828 7.50781H95.0052V137.388H91.3828V7.50781Z" stroke="black" stroke-width="0.31447"/>
<path d="M21.5694 38.8905L19.9229 39.1908H18.2764L16.6298 38.8905L15.3126 38.5902L13.9954 38.2899L13.3367 37.6893L12.8428 37.0887V4.50616L13.3367 3.90556L13.9954 3.30496L15.3126 2.85451L16.6298 2.70436L18.2764 2.25391H19.9229L21.5694 2.70436L23.216 2.85451L24.2039 3.30496L25.1918 3.90556L25.6858 4.50616V37.0887L25.1918 37.6893L24.2039 38.2899L23.216 38.5902L21.5694 38.8905Z" fill="#7F99CC"/>
<path d="M21.2401 38.8905L19.9229 39.1908H18.6056L16.9591 38.8905L15.9712 38.5902L14.6539 38.2899L13.9953 37.6893L13.666 37.0887V4.50616L13.9953 3.90556L14.6539 3.30496L15.9712 2.85451L16.9591 2.70436L18.6056 2.25391H19.9229L21.2401 2.70436L22.5573 2.85451L23.5453 3.30496L24.2039 3.90556L25.0272 4.50616V37.0887L24.2039 37.6893L23.5453 38.2899L22.5573 38.5902L21.2401 38.8905Z" fill="#8CA6D9"/>
<path d="M20.5822 38.8905L19.5943 39.1908H18.6064L17.6184 38.8905L16.9598 38.5902L16.3012 38.2899L15.6426 37.6893V37.0887V4.50616V3.90556L16.3012 3.30496L16.9598 2.85451L17.6184 2.70436L18.6064 2.25391H19.5943L20.5822 2.70436L21.5701 2.85451L22.2287 3.30496L22.5581 3.90556L22.8874 4.50616V37.0887L22.5581 37.6893L22.2287 38.2899L21.5701 38.5902L20.5822 38.8905Z" fill="#A5BFF2"/>
<path d="M21.5694 38.8905L19.9229 39.1908H18.2764L16.6298 38.8905L15.3126 38.5902L13.9954 38.2899L13.3367 37.6893L12.8428 37.0887V4.50616L13.3367 3.90556L13.9954 3.30496L15.3126 2.85451L16.6298 2.70436L18.2764 2.25391H19.9229L21.5694 2.70436L23.216 2.85451L24.2039 3.30496L25.1918 3.90556L25.6858 4.50616V37.0887L25.1918 37.6893L24.2039 38.2899L23.216 38.5902L21.5694 38.8905Z" stroke="black" stroke-width="0.31447"/>
<path d="M38.0347 38.8905L36.7174 39.1908H34.7416L33.095 38.8905L31.7778 38.5902L30.4606 38.2899L29.802 37.6893L29.4727 37.0887V4.50616L29.802 3.90556L30.4606 3.30496L31.7778 2.85451L33.095 2.70436L34.7416 2.25391H36.7174L38.0347 2.70436L39.6812 2.85451L40.6691 3.30496L41.6571 3.90556L41.9864 4.50616V37.0887L41.6571 37.6893L40.6691 38.2899L39.6812 38.5902L38.0347 38.8905Z" fill="#7F99CC"/>
<path d="M37.7059 38.8905L36.3887 39.1908H35.0715L33.7542 38.8905L32.437 38.5902L31.4491 38.2899L30.4611 37.6893L30.1318 37.0887V4.50616L30.4611 3.90556L31.4491 3.30496L32.437 2.85451L33.7542 2.70436L35.0715 2.25391H36.3887L37.7059 2.70436L39.0232 2.85451L40.0111 3.30496L40.999 3.90556L41.3283 4.50616V37.0887L40.999 37.6893L40.0111 38.2899L39.0232 38.5902L37.7059 38.8905Z" fill="#8CA6D9"/>
<path d="M37.047 38.8905L36.0591 39.1908H35.0712L34.4126 38.8905L33.4247 38.5902L32.766 38.2899L32.1074 37.6893V37.0887V4.50616V3.90556L32.766 3.30496L33.4247 2.85451L34.4126 2.70436L35.0712 2.25391H36.0591L37.047 2.70436L38.035 2.85451L38.6936 3.30496L39.0229 3.90556L39.3522 4.50616V37.0887L39.0229 37.6893L38.6936 38.2899L38.035 38.5902L37.047 38.8905Z" fill="#A5BFF2"/>
<path d="M38.0347 38.8905L36.7174 39.1908H34.7416L33.095 38.8905L31.7778 38.5902L30.4606 38.2899L29.802 37.6893L29.4727 37.0887V4.50616L29.802 3.90556L30.4606 3.30496L31.7778 2.85451L33.095 2.70436L34.7416 2.25391H36.7174L38.0347 2.70436L39.6812 2.85451L40.6691 3.30496L41.6571 3.90556L41.9864 4.50616V37.0887L41.6571 37.6893L40.6691 38.2899L39.6812 38.5902L38.0347 38.8905Z" stroke="black" stroke-width="0.31447"/>
<path d="M127.278 4.05469V7.50814H0V4.05469H127.278Z" fill="#A5A5B2"/>
<path d="M127.278 5.10547V6.45682H0V5.10547H127.278Z" fill="#F2F2FF"/>
<path d="M127.278 4.05469V7.50814H0V4.05469H127.278Z" stroke="black" stroke-width="0.31447"/>
<path d="M17.2891 52.4007V39.1875H20.9115V52.4007H17.2891Z" fill="#7F7F7F"/>
<path d="M17.9473 52.4007V39.1875H20.2524V52.4007H17.9473Z" fill="#CCCCCC"/>
<path d="M33.7539 110.659V39.1875H37.3763V110.659H33.7539Z" fill="#7F7F7F"/>
<path d="M34.4131 110.659V39.1875H36.7182V110.659H34.4131Z" fill="#CCCCCC"/>
<path d="M42.4806 64.113C44.754 64.113 46.597 62.4324 46.597 60.3592C46.597 58.2861 44.754 56.6055 42.4806 56.6055C40.2072 56.6055 38.3643 58.2861 38.3643 60.3592C38.3643 62.4324 40.2072 64.113 42.4806 64.113Z" fill="#999999" stroke="black" stroke-width="0.31447"/>
<path d="M17.2891 52.4007V39.1875H20.9115V52.4007H17.2891Z" stroke="black" stroke-width="0.31447"/>
<path d="M33.7539 110.659V39.1875H37.3763V110.659H33.7539Z" stroke="black" stroke-width="0.31447"/>
<path d="M39.3524 81.5307L41.9868 77.3265V64.1133H42.9748V77.3265L45.6092 81.5307H49.5609V84.2334H46.5972L44.6213 87.5367H40.3403L38.3644 84.2334H16.3008V81.5307H24.5335V74.9241H25.6861V81.5307H39.3524Z" fill="#F2E5CC" stroke="black" stroke-width="0.31447"/>
<path d="M25.6855 65.0156L29.1433 66.5171H33.7536" stroke="black" stroke-width="0.31447"/>
<path d="M25.1919 74.9269C26.465 74.9269 27.497 73.9857 27.497 72.8248C27.497 71.6638 26.465 70.7227 25.1919 70.7227C23.9188 70.7227 22.8867 71.6638 22.8867 72.8248C22.8867 73.9857 23.9188 74.9269 25.1919 74.9269Z" fill="#999999" stroke="black" stroke-width="0.31447"/>
<path d="M69.6484 108.258H77.8811V140.69H69.6484V108.258Z" fill="#B7B7C4"/>
<path d="M40.999 143.395H56.8058V148.199H40.999V143.395Z" fill="#333333"/>
<path d="M106.86 143.395H122.667V148.199H106.86V143.395Z" fill="#333333"/>
<path d="M58.4521 142.492H105.214V146.696H58.4521V142.492Z" fill="#333333"/>
<path d="M69.6484 108.258V140.69H77.8811V108.258" stroke="black" stroke-width="0.31447"/>
<path d="M114.435 67.4184H118.057V48.1992H114.435V67.4184Z" fill="#7F7F7F" stroke="black" stroke-width="0.31447"/>
<path d="M114.435 137.388H118.057V111.562H114.435V137.388Z" fill="#7F7F7F" stroke="black" stroke-width="0.31447"/>
<path d="M67.6729 48.1992H79.528V59.01H67.6729V48.1992Z" fill="#E5E5E5"/>
<path d="M67.6729 59.01V48.1992H79.528" stroke="white" stroke-width="0.31447"/>
<path d="M67.6729 59.01H79.528V48.1992" stroke="#999999" stroke-width="0.31447"/>
</g>
<defs>
<clipPath id="clip0_2109_185335">
<rect width="150" height="150" fill="white"/>
</clipPath>
</defs>
</svg>
