<svg width="150" height="150" viewBox="0 0 150 150" fill="none" xmlns="http://www.w3.org/2000/svg">
<g clip-path="url(#clip0_2109_184268)">
<path d="M134.384 131.43H48.7988V123.59H134.384V131.43Z" fill="#4C4C4C" stroke="black" stroke-width="0.352023"/>
<path d="M37.6875 66.6445H145.495V95.1177H37.6875V66.6445Z" fill="#4C4C4C" stroke="black" stroke-width="0.352023"/>
<path d="M48.7985 93.4648V146.285H40.6904V93.4648H48.7985Z" fill="#4C4C4C" stroke="black" stroke-width="0.352023"/>
<path d="M142.793 93.4648V146.285H134.385V93.4648H142.793Z" fill="#4C4C4C" stroke="black" stroke-width="0.352023"/>
<path d="M5.10547 64.582H33.1835V92.2299H5.10547V64.582Z" fill="black"/>
<path d="M33.1836 63.3438H150V94.2929H33.1836V63.3438Z" fill="#4C4C4C"/>
<path d="M33.1836 64.582H150V92.2299H33.1836V64.582Z" fill="#595959"/>
<path d="M33.1836 66.2305H150V90.1644H33.1836V66.2305Z" fill="#666666"/>
<path d="M33.1836 67.4688H150V88.1015H33.1836V67.4688Z" fill="#737373"/>
<path d="M33.1836 68.707H150V83.9753H33.1836V68.707Z" fill="#7F7F7F"/>
<path d="M33.1836 63.3438H150V79.8499H33.1836V63.3438Z" fill="#8C8C8C"/>
<path d="M33.1836 63.3438H150V94.2929H33.1836V63.3438Z" stroke="black" stroke-width="0.352023"/>
<path d="M34.6846 77.7852H46.6966V92.2281H34.6846V77.7852Z" fill="#7F7F7F"/>
<path d="M34.6846 77.7851H46.6966V67.4688H34.6846V77.7851Z" fill="#999999"/>
<path d="M34.6846 67.4688H46.6966V92.228H34.6846V67.4688Z" stroke="black" stroke-width="0.352023"/>
<path d="M136.486 77.7852H148.348V92.2281H136.486V77.7852Z" fill="#7F7F7F"/>
<path d="M136.486 77.7851H148.348V67.4688H136.486V77.7851Z" fill="#999999"/>
<path d="M136.486 67.4688H148.348V92.228H136.486V67.4688Z" stroke="black" stroke-width="0.352023"/>
<path d="M45.1955 92.2266V149.998H36.1865V92.2266H45.1955Z" fill="#7F7F7F"/>
<path d="M44.5949 92.2266V149.998H36.7871V92.2266H44.5949Z" fill="#999999"/>
<path d="M43.6935 92.2266V149.998H37.6875V92.2266H43.6935Z" fill="#B2B2B2"/>
<path d="M42.7931 92.2266V149.998H38.5889V92.2266H42.7931Z" fill="#CCCCCC"/>
<path d="M42.192 92.2266V149.998H39.4893V92.2266H42.192Z" fill="#E5E5E5"/>
<path d="M41.291 92.2266V149.998H40.0898V92.2266H41.291Z" fill="white"/>
<path d="M45.1955 92.2266V149.998H36.1865V92.2266H45.1955Z" stroke="black" stroke-width="0.352023"/>
<path d="M146.997 92.2266V149.998H137.988V92.2266H146.997Z" fill="#7F7F7F"/>
<path d="M146.396 92.2266V149.998H138.438V92.2266H146.396Z" fill="#999999"/>
<path d="M145.496 92.2266V149.998H139.34V92.2266H145.496Z" fill="#B2B2B2"/>
<path d="M144.595 92.2266V149.998H140.24V92.2266H144.595Z" fill="#CCCCCC"/>
<path d="M143.693 92.2266V149.998H141.141V92.2266H143.693Z" fill="#E5E5E5"/>
<path d="M142.943 92.2266V149.998H141.892V92.2266H142.943Z" fill="white"/>
<path d="M146.997 92.2266V149.998H137.988V92.2266H146.997Z" stroke="black" stroke-width="0.352023"/>
<path d="M137.988 133.495H45.1953V125.242H137.988V133.495Z" fill="#7F7F7F"/>
<path d="M137.988 132.667H45.1953V125.652H137.988V132.667Z" fill="#999999"/>
<path d="M137.988 131.845H45.1953V126.48H137.988V131.845Z" fill="#B2B2B2"/>
<path d="M137.988 131.019H45.1953V127.305H137.988V131.019Z" fill="#CCCCCC"/>
<path d="M137.988 130.605H45.1953V128.129H137.988V130.605Z" fill="#E5E5E5"/>
<path d="M137.988 129.778H45.1953V128.953H137.988V129.778Z" fill="white"/>
<path d="M137.988 133.495H45.1953V125.242H137.988V133.495Z" stroke="black" stroke-width="0.352023"/>
<path d="M69.2188 94.2929V63.3438" stroke="#B2B2B2" stroke-width="0.352023"/>
<path d="M70.7207 94.2929V63.3438" stroke="black" stroke-width="0.352023"/>
<path d="M115.466 94.2929V63.3438" stroke="#B2B2B2" stroke-width="0.352023"/>
<path d="M116.967 94.2929V63.3438" stroke="black" stroke-width="0.352023"/>
<path d="M33.1836 20.4258H150V63.3419H33.1836V20.4258Z" fill="#A6A6A6"/>
<path d="M33.1836 50.9615L150 32.8047V63.3411H33.1836V50.9615Z" fill="#A1A1A1"/>
<path d="M33.1836 52.6152L150 34.8711V63.3443H33.1836V52.6152Z" fill="#9C9C9C"/>
<path d="M33.1836 55.5006L150 37.3438V63.341H33.1836V55.5006Z" fill="#969696"/>
<path d="M3.45312 65.4062H31.6814V98.4186H3.45312V65.4062Z" fill="#666666" stroke="black" stroke-width="0.352023"/>
<path d="M6.45605 94.2905H8.70831L24.1738 72.8325V69.5312H22.0717L6.45605 90.9893V94.2905Z" fill="black"/>
<path d="M6.45605 86.0374H8.70831L18.4681 72.8325V69.5312H16.0657L6.45605 83.1489V86.0374Z" fill="black"/>
<path d="M12.3125 94.2913H14.5648L24.1744 81.0864V77.7852H22.0723L12.3125 90.9901V94.2913Z" fill="black"/>
<path d="M6.45605 77.7843H8.70831L12.3119 72.8325V69.5312H10.0597L6.45605 74.8958V77.7843Z" fill="black"/>
<path d="M18.4688 94.2922H20.5709L24.1745 89.3403V86.0391H22.0724L18.4688 90.9909V94.2922Z" fill="black"/>
<path d="M7.35736 55.0876L0 16.298L8.70871 13.2031L16.0661 51.7863L7.35736 55.0876Z" fill="#7F7F7F"/>
<path d="M7.80805 54.6756L0.150391 16.2987L8.2585 13.4102L15.766 51.787L7.80805 54.6756Z" fill="#8C8C8C"/>
<path d="M8.25848 54.6756L0.750977 15.8861L7.80803 13.4102L15.1654 52.1997L8.25848 54.6756Z" fill="#999999"/>
<path d="M8.70844 54.6756L1.05078 15.8861L7.35709 13.4102L14.8646 52.1997L8.70844 54.6756Z" fill="#A6A6A6"/>
<path d="M8.85931 54.2644L1.50195 15.8875L7.05751 13.8242L14.565 52.2011L8.85931 54.2644Z" fill="#B2B2B2"/>
<path d="M9.60932 54.2644L1.65137 15.6812L6.45617 13.8242L14.264 52.6138L9.60932 54.2644Z" fill="#BFBFBF"/>
<path d="M9.7597 54.2644L2.40234 15.6812L6.1561 13.8242L13.6636 52.6138L9.7597 54.2644Z" fill="#CCCCCC"/>
<path d="M10.0602 53.8499L2.55273 15.6794L6.00619 14.4414L13.3635 52.612L10.0602 53.8499Z" fill="#D9D9D9"/>
<path d="M10.5102 53.8499L2.85254 15.0604L5.55524 14.4414L13.0627 53.0246L10.5102 53.8499Z" fill="#E5E5E5"/>
<path d="M10.9606 53.8499L3.45312 15.0604L5.10478 14.4414L12.4621 53.0246L10.9606 53.8499Z" fill="#F2F2F2"/>
<path d="M11.4116 53.438L3.75391 15.0611L4.65481 14.6484L12.3125 53.0253L11.4116 53.438Z" fill="white"/>
<path d="M7.35736 55.0876L0 16.298L8.70871 13.2031L16.0661 51.7863L7.35736 55.0876Z" stroke="black" stroke-width="0.352023"/>
<path d="M9.60938 54.2639L11.5613 64.1676L15.7655 62.517L13.9637 52.6133L9.60938 54.2639Z" fill="#7F7F7F"/>
<path d="M9.75977 54.2639L11.5616 64.1676L15.7658 62.517L13.6637 52.6133L9.75977 54.2639Z" fill="#8C8C8C"/>
<path d="M10.0605 54.2639L11.8623 64.1676L15.466 62.517L13.6642 52.6133L10.0605 54.2639Z" fill="#999999"/>
<path d="M10.0605 53.8512L12.3128 63.755L15.1657 62.9296L13.3639 52.6133L10.0605 53.8512Z" fill="#A6A6A6"/>
<path d="M10.5107 53.8527L12.3125 63.7564L15.1654 62.9311L13.0633 53.0273L10.5107 53.8527Z" fill="#B2B2B2"/>
<path d="M10.6602 53.8527L12.462 63.7564L14.8644 62.9311L13.0626 53.0273L10.6602 53.8527Z" fill="#BFBFBF"/>
<path d="M10.6602 53.8527L12.7623 63.7564L14.8644 62.9311L12.7623 53.0273L10.6602 53.8527Z" fill="#CCCCCC"/>
<path d="M10.9609 53.8527L12.7627 63.7564L14.5645 62.9311L12.4624 53.0273L10.9609 53.8527Z" fill="#D9D9D9"/>
<path d="M10.9609 53.44L13.063 63.7564L14.2642 62.9311L12.4624 53.0273L10.9609 53.44Z" fill="#E5E5E5"/>
<path d="M11.4111 53.4375L13.3631 63.3412H14.264L12.312 53.4375H11.4111Z" fill="#F2F2F2"/>
<path d="M11.5615 53.4375L13.3633 63.3412H13.9639L11.8618 53.4375H11.5615Z" fill="white"/>
<path d="M9.60938 54.2639L11.5613 64.1676L15.7655 62.517L13.9637 52.6133L9.60938 54.2639Z" stroke="black" stroke-width="0.352023"/>
<path d="M22.6729 41.0586H33.1834V59.2154H22.6729V41.0586Z" fill="#666666" stroke="black" stroke-width="0.352023"/>
<path d="M7.95801 64.5794H33.1832V59.2148H7.95801V64.5794Z" fill="#666666" stroke="black" stroke-width="0.352023"/>
<path d="M19.6699 54.266V48.9015L29.5798 30.332V54.266H19.6699Z" fill="#7F7F7F" stroke="black" stroke-width="0.352023"/>
<path d="M27.1768 22.4883H33.1828V50.1361H27.1768V22.4883Z" fill="#333333" stroke="#7F7F7F" stroke-width="0.352023"/>
<path d="M37.0869 24.5547H44.5944V31.5698H37.0869V24.5547Z" fill="#CCCCCC"/>
<path d="M37.0869 24.5547H44.5944V26.618H37.0869V24.5547Z" fill="#BF723F"/>
<path d="M70.7207 24.5547H78.2282V31.5698H70.7207V24.5547Z" fill="#CCCCCC"/>
<path d="M70.7207 24.5547H78.2282V26.618H70.7207V24.5547Z" fill="#BF723F"/>
<path d="M33.1836 20.4258H150V63.3419H33.1836V20.4258Z" stroke="black" stroke-width="0.352023"/>
<path d="M14.5645 56.3254L19.6696 50.9609" stroke="black" stroke-width="0.352023"/>
<path d="M15.165 48.8987L25.0749 39.8203" stroke="black" stroke-width="0.352023"/>
<path d="M84.835 34.8711H102.853V55.0912H84.835V34.8711Z" fill="#4C4C4C"/>
<path d="M86.3359 41.8828H101.351V48.0726H86.3359V41.8828Z" fill="#7F0000"/>
<path d="M146.997 16.3015H36.1865V3.92188H146.997V16.3015Z" fill="#7F7F7F"/>
<path d="M146.997 16.2979H36.1865V5.15625H146.997V16.2979Z" fill="#999999"/>
<path d="M146.997 16.3007H36.1865V8.25391H146.997V16.3007Z" fill="#B2B2B2"/>
<path d="M146.997 16.2984H36.1865V12.1719H146.997V16.2984Z" fill="#CCCCCC"/>
<path d="M146.997 16.3015H36.1865V3.92188H146.997V16.3015Z" stroke="black" stroke-width="0.352023"/>
<path d="M33.1836 20.4264V0H36.1866V16.2999H70.7211V0H73.7241V16.2999H109.46V0H112.463V16.2999H146.997V0H150V20.4264H33.1836Z" fill="#7F7F7F" stroke="black" stroke-width="0.352023"/>
<path d="M33.1836 63.3438H150V94.2929H33.1836V63.3438Z" stroke="black" stroke-width="0.352023"/>
<path d="M45.1955 92.2266V149.998H36.1865V92.2266H45.1955Z" stroke="black" stroke-width="0.352023"/>
<path d="M146.997 92.2266V149.998H137.988V92.2266H146.997Z" stroke="black" stroke-width="0.352023"/>
</g>
<defs>
<clipPath id="clip0_2109_184268">
<rect width="150" height="150" fill="white"/>
</clipPath>
</defs>
</svg>
