<svg width="150" height="150" viewBox="0 0 150 150" fill="none" xmlns="http://www.w3.org/2000/svg">
<g clip-path="url(#clip0_2109_184803)">
<path d="M3.44141 71.6216V4.5045L8.60393 3.3033L17.7818 2.1021L30.6881 1.2012L47.3229 0.3003L65.6785 0H84.0341L102.39 0.3003L119.025 1.2012L132.218 2.1021L141.396 3.3033L146.558 4.5045V71.6216H3.44141Z" fill="#CC6633" stroke="black" stroke-width="0.415038"/>
<path d="M94.9335 149.25L81.7404 150.001H67.9737L54.7806 149.25L42.7347 148.049L42.1611 141.442L32.9833 139.791L26.0999 137.989L22.6582 135.887V116.367H127.056V135.887L123.614 137.989L116.731 139.791L107.553 141.442L106.979 148.049L94.9335 149.25Z" fill="#CC6633" stroke="black" stroke-width="0.415038"/>
<path d="M9.75098 71.3213V4.5045L14.3399 3.3033L22.6573 2.1021L34.7032 0.900901L49.6171 0.3003L66.2519 0H83.4603L100.095 0.3003L115.009 0.900901L127.055 2.1021L136.233 3.3033L140.248 4.5045V71.3213H9.75098Z" fill="#CC6B33"/>
<path d="M93.2127 149.25L81.1668 150.001H68.5473L56.5014 149.25L45.6027 148.049L45.0291 141.142L36.9985 139.791L30.6888 137.989L27.2471 135.586V116.367H122.467V135.586L119.599 137.989L113.289 139.791L104.685 141.142L104.111 148.049L93.2127 149.25Z" fill="#CC6B33"/>
<path d="M16.0615 71.3213V4.5045L19.79 3.3033L27.8206 2.1021L38.7193 0.900901L51.9124 0.3003L67.4 0H82.8875L97.8015 0.3003L111.568 0.900901L122.467 2.1021L129.924 3.3033L133.939 4.5045V71.3213H16.0615Z" fill="#CC7033"/>
<path d="M91.4918 149.25L80.5931 150.001H69.1208L58.2222 149.25L48.4707 148.049L47.8971 141.142L40.4401 139.791L34.704 137.989L31.8359 135.586V116.367H117.878V135.586L115.01 137.989L109.274 139.791L101.817 141.142L101.243 148.049L91.4918 149.25Z" fill="#CC7033"/>
<path d="M22.084 71.3213V4.5045L25.5257 3.3033L32.409 2.1021L42.7341 0.900901L54.2064 0.3003L67.9731 0H81.7398L95.5065 0.3003L107.552 0.900901L117.304 2.1021L124.187 3.3033L128.203 4.5045V71.3213H22.084Z" fill="#CC7333"/>
<path d="M89.7709 149.25L80.0195 150.001H69.6944L59.943 149.25L51.3388 148.049L50.7651 141.142L43.8818 139.791L38.7193 137.989L36.4248 135.586V116.367H113.863V135.586L110.995 137.989L105.832 139.791L98.9487 141.142V148.049L89.7709 149.25Z" fill="#CC7333"/>
<path d="M28.3936 71.3213V4.5045L31.2616 3.3033L37.5714 2.1021L46.1756 0.900901L57.0742 0.3003L69.1201 0H81.166L93.2119 0.3003L103.537 0.900901L112.715 2.1021L118.451 3.3033L121.893 4.5045V71.3213H28.3936Z" fill="#CC7833"/>
<path d="M88.05 149.25L79.4458 150.001H70.268L61.6638 149.25L54.2068 148.049L53.6332 141.142L47.897 139.791L43.3081 137.989L41.0137 135.586V116.367H109.274V135.586L106.979 137.989L102.39 139.791L96.0806 141.142V148.049L88.05 149.25Z" fill="#CC7833"/>
<path d="M34.7041 71.3213V4.5045L36.9986 3.3033L42.7347 2.1021L50.1917 0.900901L59.3695 0.3003L69.6945 0H80.5932L90.9183 0.3003L100.096 0.900901L107.553 2.1021L112.716 3.3033L115.584 4.5045V71.3213H34.7041Z" fill="#CC7D33"/>
<path d="M86.3291 149.25L78.8721 150.001H71.4152L63.3846 149.25L57.0748 148.049L56.5012 141.142L51.3387 139.791L47.3234 137.989L45.6025 135.586V116.367H104.685V135.586L102.39 137.989L98.9486 139.791L93.2125 141.142V148.049L86.3291 149.25Z" fill="#CC7D33"/>
<path d="M40.4395 71.3213V4.5045L42.7339 3.3033L47.3228 2.1021L53.6326 0.900901L61.6632 0.3003L70.2674 0H79.4452L88.0494 0.3003L96.08 0.900901L102.39 2.1021L106.979 3.3033L109.273 4.5045V71.3213H40.4395Z" fill="#CC8233"/>
<path d="M84.6082 149.25L78.2985 150.001H71.4151L65.1054 149.25L59.9428 148.049L59.3692 141.142L54.7803 139.791L51.9122 137.989L50.1914 135.586V116.367H100.096V135.586L98.375 137.989L94.9333 139.791L90.3444 141.142V148.049L84.6082 149.25Z" fill="#CC8233"/>
<path d="M46.75 71.3213V4.5045L48.4708 3.3033L52.4861 2.1021L57.6487 0.900901L63.9584 0.3003L71.4154 0H78.8724L85.7557 0.3003L92.0655 0.900901L97.8016 2.1021L101.243 3.3033L102.964 4.5045V71.3213H46.75Z" fill="#CC8733"/>
<path d="M82.8877 149.25L77.7252 150.001H72.5627L66.8265 149.25L62.2376 148.049V141.142L58.7959 139.791L55.9279 137.989L54.207 135.586V116.367H95.5072V135.586L94.36 137.989L91.4919 139.791L87.4766 141.142V148.049L82.8877 149.25Z" fill="#CC8733"/>
<path d="M53.0596 71.3213V4.5045L54.2068 3.3033L57.6485 2.1021L61.6638 0.900901L66.8263 0.3003L71.9888 0H77.725L83.4611 0.3003L88.6236 0.900901L92.6389 2.1021L95.507 3.3033L96.6542 4.5045V71.3213H53.0596Z" fill="#CC8C33"/>
<path d="M81.1659 149.25L77.1506 150.001H73.1353L69.12 149.25L65.1047 148.049V141.142L62.2366 139.791L59.9421 137.989L58.7949 135.586V116.367H90.9173V135.586L89.7701 137.989L88.0492 139.791L85.1812 141.142L84.6075 148.049L81.1659 149.25Z" fill="#CC8C33"/>
<path d="M59.3691 71.3213V4.5045L60.5164 3.3033L62.2372 2.1021L65.1053 0.900901L69.1206 0.3003L73.1359 0H77.1512L81.1665 0.3003L84.6081 0.900901L87.4762 2.1021L89.7707 3.3033L90.9179 4.5045V71.3213H59.3691Z" fill="#CC8F33"/>
<path d="M79.446 149.25L76.5779 150.001H73.7098L70.8417 149.25L67.9737 148.049V141.142L65.6792 139.791L64.532 137.989L63.3848 135.586V116.367H86.3293V135.586L85.7557 137.989L84.0349 139.791L82.314 141.142L81.7404 148.049L79.446 149.25Z" fill="#CC8F33"/>
<path d="M65.6787 71.3213V4.5045L66.2523 3.3033L67.3996 2.1021L69.1204 0.900901L71.4148 0.3003L73.7093 0H76.0038L78.8718 0.3003L81.1663 0.900901L82.8871 2.1021L84.0344 3.3033L84.608 4.5045V71.3213H65.6787Z" fill="#CC9433"/>
<path d="M77.7251 149.25L76.0042 150.001H74.2834L72.5625 149.25L70.8417 148.049V141.142L69.1209 139.791L68.5472 137.989L67.9736 135.586V116.367H81.7404V135.586V137.989L80.5931 139.791L79.4459 141.142V148.049L77.7251 149.25Z" fill="#CC9433"/>
<path d="M71.415 71.6216V4.5045L71.9887 3.3033V2.1021L72.5623 1.2012L73.7095 0.3003L74.2831 0H75.4303L76.0039 0.3003L77.1512 1.2012L77.7248 2.1021L78.2984 3.3033V4.5045V71.6216H71.415Z" fill="#CC9933"/>
<path d="M76.0042 149.25L75.4306 150.001H74.857L73.7097 149.25V148.049L73.1361 141.442V139.791L72.5625 137.989V135.887V116.367H77.1514V135.887V137.989V139.791L76.5778 141.442V148.049L76.0042 149.25Z" fill="#CC9933"/>
<path d="M127.056 107.059L123.614 107.659L116.731 108.26L106.979 108.56L94.9335 109.161H81.7404H67.9737H54.7806L42.7347 108.56L32.9833 108.26L26.0999 107.659L22.6582 107.059V116.368L26.0999 117.869L32.9833 119.071L42.7347 119.972L54.7806 120.572L67.9737 120.872H81.7404L94.9335 120.572L106.979 119.972L116.731 119.071L123.614 117.869L127.056 116.368V107.059Z" fill="#333333"/>
<path d="M42.7339 108.558L32.9824 108.258V119.069L42.7339 119.97V108.558Z" fill="#D9CCB3"/>
<path d="M81.7404 109.16H67.9736V120.872H81.7404V109.16Z" fill="#D9CCB3"/>
<path d="M101.243 108.859L88.623 109.16V120.871L101.243 120.271V108.859Z" fill="#D9CCB3"/>
<path d="M127.056 107.059L123.614 107.659L116.731 108.26L106.979 108.56L94.9335 109.161H81.7404H67.9737H54.7806L42.7347 108.56L32.9833 108.26L26.0999 107.659L22.6582 107.059V116.368L26.0999 117.869L32.9833 119.071L42.7347 119.972L54.7806 120.572L67.9737 120.872H81.7404L94.9335 120.572L106.979 119.972L116.731 119.071L123.614 117.869L127.056 116.368V107.059Z" stroke="black" stroke-width="0.415038"/>
<path d="M106.979 141.441L94.9332 142.342L81.7401 142.943H67.9734L54.7803 142.342L42.7344 141.441" stroke="black" stroke-width="0.415038"/>
<path d="M3.44141 71.6211L6.88309 73.1226V78.2277H143.116V73.1226L146.558 71.6211H3.44141Z" fill="#4C4C4C" stroke="black" stroke-width="0.415038"/>
<path d="M74.8571 110.061C103.686 110.061 127.056 108.716 127.056 107.058C127.056 105.399 103.686 104.055 74.8571 104.055C46.0284 104.055 22.6582 105.399 22.6582 107.058C22.6582 108.716 46.0284 110.061 74.8571 110.061Z" fill="#666666" stroke="black" stroke-width="0.415038"/>
<path d="M39.293 78.2266H110.995V105.554H39.293V78.2266Z" fill="#333333"/>
<path d="M51.9121 78.2266H97.8012V105.554H51.9121V78.2266Z" fill="#191919"/>
<path d="M84.6083 78.2266V106.455H65.1055V78.2266H84.6083Z" fill="#7F7F7F"/>
<path d="M83.4604 78.2266V106.455H66.252V78.2266H83.4604Z" fill="#999999"/>
<path d="M81.1664 78.2266V106.455H68.5469V78.2266H81.1664Z" fill="#B2B2B2"/>
<path d="M79.4454 78.2266V106.455H70.2676V78.2266H79.4454Z" fill="#CCCCCC"/>
<path d="M77.7244 78.2266V106.455H71.9883V78.2266H77.7244Z" fill="#E5E5E5"/>
<path d="M76.0034 78.2266V106.455H73.709V78.2266H76.0034Z" fill="white"/>
<path d="M84.6083 78.2266V106.455H65.1055V78.2266H84.6083Z" stroke="black" stroke-width="0.415038"/>
<path d="M9.75195 71.6211H16.0617V80.0295H9.75195V71.6211Z" fill="#191919"/>
<path d="M22.084 71.6211H28.3937V80.0295H22.084V71.6211Z" fill="#191919"/>
<path d="M34.7031 71.6211H41.0129V80.0295H34.7031V71.6211Z" fill="#191919"/>
<path d="M46.75 71.6211H53.0598V80.0295H46.75V71.6211Z" fill="#191919"/>
<path d="M59.3691 71.6211H65.6789V80.0295H59.3691V71.6211Z" fill="#191919"/>
<path d="M71.9883 71.6211H77.7244V80.0295H71.9883V71.6211Z" fill="#191919"/>
<path d="M84.0342 71.6211H90.3439V80.0295H84.0342V71.6211Z" fill="#191919"/>
<path d="M96.6543 71.6211H102.964V80.0295H96.6543V71.6211Z" fill="#191919"/>
<path d="M109.273 71.6211H115.01V80.0295H109.273V71.6211Z" fill="#191919"/>
<path d="M121.319 71.6211H127.629V80.0295H121.319V71.6211Z" fill="#191919"/>
<path d="M133.938 71.6211H140.248V80.0295H133.938V71.6211Z" fill="#191919"/>
<path d="M0 52.7041V16.3678L5.16252 14.8663L15.4876 13.9654L28.9675 12.7642L46.1759 12.1636L65.1052 11.8633H84.608L103.537 12.1636L120.746 12.7642L135.086 13.9654L144.837 14.8663L150 16.3678V52.7041H0Z" fill="#CC7F33"/>
<path d="M6.30957 52.7041V16.3678L10.8985 14.8663L19.7895 13.6651L32.9826 12.7642L48.4702 12.1636L65.6786 11.8633H84.0342L101.243 12.1636L117.304 12.7642L129.923 13.6651L139.101 14.8663L143.69 16.3678V52.7041H6.30957Z" fill="#CF8536"/>
<path d="M12.6191 52.7041V16.3678L16.6344 14.8663L24.9518 13.6651L36.4241 12.7642L50.7645 12.1636L66.8256 11.8633H82.8868L98.948 12.1636L113.288 12.7642L125.334 13.6651L133.365 14.8663L137.38 16.3678V52.7041H12.6191Z" fill="#D18A38"/>
<path d="M18.6426 52.7041V16.3678L22.6579 14.8663L30.1149 13.6651L40.4399 12.7642L53.0594 12.1636L67.3997 11.8633H82.3137L96.6541 12.1636L109.847 12.7642L120.172 13.6651L127.629 14.8663L131.071 16.3678V52.7041H18.6426Z" fill="#D48F3B"/>
<path d="M24.9521 52.7041V16.3678L28.3938 14.8663L34.7036 13.6651L44.455 12.7642L55.3537 12.1636L68.5468 11.8633H81.7399L94.3594 12.1636L105.832 12.7642L115.01 13.6651L121.893 14.8663L125.335 16.3678V52.7041H24.9521Z" fill="#D6943D"/>
<path d="M31.2617 52.7041V16.3678L34.1298 14.8663L39.8659 13.6651L47.8965 12.7642L58.2216 12.1636L69.1202 11.8633H80.5925L92.0648 12.1636L101.816 12.7642L109.847 13.6651L116.157 14.8663L119.025 16.3678V52.7041H31.2617Z" fill="#D99940"/>
<path d="M37.5713 52.7041V16.3678L39.8657 14.8663L45.0283 13.6651L51.9116 12.7642L60.5158 12.1636L70.2673 11.8633H80.0187L89.7701 12.1636L98.3743 12.7642L105.258 13.6651L110.42 14.8663L112.715 16.3678V52.7041H37.5713Z" fill="#D99940"/>
<path d="M43.3076 52.7041V16.3678L45.6021 14.8663L49.6174 13.6651L55.3535 12.7642L62.8105 12.1636L70.8411 11.8633H78.8717L86.9023 12.1636L94.3592 12.7642L100.095 13.6651L104.111 14.8663L106.405 16.3678V52.7041H43.3076Z" fill="#DB9E42"/>
<path d="M49.6172 52.7041V16.3678L51.338 14.8663L54.7797 13.6651L59.3686 12.7642L65.1048 12.1636L71.4145 11.8633H78.2979L84.6076 12.1636L90.3438 12.7642L94.9327 13.6651L98.3744 14.8663L100.095 16.3678V52.7041H49.6172Z" fill="#DEA345"/>
<path d="M55.9277 52.7041V16.3678L57.075 14.8663L59.943 13.6651L63.3847 12.7642L67.9736 12.1636L72.5625 11.8633H77.7251L82.314 12.1636L86.9029 12.7642L90.3446 13.6651L92.639 14.8663L93.7862 16.3678V52.7041H55.9277Z" fill="#E0A847"/>
<path d="M62.2373 52.7041V16.3678L62.8109 14.8663L64.5318 13.6651L66.8262 12.7642L70.2679 12.1636L73.136 11.8633H76.5776L80.0193 12.1636L82.8874 12.7642L85.1819 13.6651L86.9027 14.8663L88.0499 16.3678V52.7041H62.2373Z" fill="#E3AD4A"/>
<path d="M68.5469 52.7041V16.3678V14.8663L69.6941 13.9654L70.8413 12.7642L72.5622 12.1636L74.283 11.8633H76.0039L77.1511 12.1636L78.8719 12.7642L80.0191 13.9654L81.1664 14.8663L81.74 16.3678V52.7041H68.5469Z" fill="#E5B24C"/>
<path d="M0 52.7041V16.3678L5.16252 14.8663L15.4876 13.9654L28.9675 12.7642L46.1759 12.1636L65.1052 11.8633H84.608L103.537 12.1636L120.746 12.7642L135.086 13.9654L144.837 14.8663L150 16.3678V52.7041H0Z" stroke="black" stroke-width="0.415038"/>
<path d="M3.44141 9.46127L8.60393 8.71052L17.7818 7.50931L30.6881 6.90871L47.3229 6.30811L65.6785 6.00781H84.0341L102.39 6.30811L119.025 6.90871L132.218 7.50931L141.396 8.71052L146.558 9.46127" stroke="black" stroke-width="0.415038"/>
<path d="M22.6582 133.785L26.0999 135.887L32.9833 137.989L42.7347 139.491L54.7806 140.542L67.9737 141.143H81.7404L94.9335 140.542L106.979 139.491L116.731 137.989L123.614 135.887L127.056 133.785" stroke="black" stroke-width="0.415038"/>
</g>
<defs>
<clipPath id="clip0_2109_184803">
<rect width="150" height="150" fill="white"/>
</clipPath>
</defs>
</svg>
