<svg width="150" height="150" viewBox="0 0 150 150" fill="none" xmlns="http://www.w3.org/2000/svg">
<g clip-path="url(#clip0_2109_184370)">
<path d="M10.6611 137.824H102.553V136.133H10.6611V137.824Z" fill="#666666"/>
<path d="M10.6602 43.1211H102.552V136.131H10.6602V43.1211Z" fill="#CCCCCC"/>
<path d="M10.6602 109.075L102.552 70.1797V136.132H10.6602V109.075Z" fill="#C7C7C7"/>
<path d="M10.6602 113.133L102.552 74.2383V136.132H10.6602V113.133Z" fill="#C2C2C2"/>
<path d="M10.6602 118.883L102.552 79.9883V136.133H10.6602V118.883Z" fill="#BDBDBD"/>
<path d="M10.6602 43.1211H102.552V136.131H10.6602V43.1211Z" stroke="black" stroke-width="0.318696"/>
<path d="M13.8135 53.2695H99.5492V70.5187H13.8135V53.2695Z" fill="#D9D9D9"/>
<path d="M13.8135 132.751H99.5492V53.2695" stroke="#666666" stroke-width="0.318696"/>
<path d="M13.8135 52.5928H99.5492V51.5781H13.8135V52.5928Z" fill="#333333"/>
<path d="M13.8135 44.8125H99.5492" stroke="#666666" stroke-width="0.318696"/>
<path d="M10.6602 131.061L0.900391 118.886V57.668H10.6602V131.061Z" fill="#7F7F7F" stroke="black" stroke-width="0.318696"/>
<path d="M10.6602 46.5039H0.900391V50.9007H10.6602V46.5039Z" fill="#7F7F7F" stroke="black" stroke-width="0.318696"/>
<path d="M51.2012 53.2695H62.012V63.0779H51.2012V53.2695Z" fill="#F2F2F2"/>
<path d="M51.2012 53.2695H62.012V55.9753H51.2012V53.2695Z" fill="#BF723F"/>
<path d="M78.8291 55.9766H92.6429V67.1378H78.8291V55.9766Z" fill="#333333"/>
<path d="M86.3359 61.0469H90.8404V65.4437H86.3359V61.0469Z" fill="#B2B2B2"/>
<path d="M10.6602 43.1244L16.6662 39.7422H96.2457L102.552 43.1244H10.6602Z" fill="#333333" stroke="black" stroke-width="0.318696"/>
<path d="M16.6662 39.741L10.6602 1.69141H102.552L96.2457 39.741H16.6662Z" fill="#7F7F7F" stroke="black" stroke-width="0.318696"/>
<path d="M23.8741 36.0189L19.0693 5.41016H53.6039V36.0189H23.8741Z" fill="#666666"/>
<path d="M88.4382 36.0189L93.243 5.41016H59.6094V36.0189H88.4382Z" fill="#666666"/>
<path d="M10.6611 0V1.69109H102.553V0H10.6611Z" fill="#CCCCCC" stroke="black" stroke-width="0.318696"/>
<path d="M10.6607 136.132H0L10.6607 132.75V136.132Z" fill="#666666" stroke="black" stroke-width="0.318696"/>
<path d="M6.75721 149.83C9.65961 149.83 12.0125 147.18 12.0125 143.911C12.0125 140.642 9.65961 137.992 6.75721 137.992C3.85481 137.992 1.50195 140.642 1.50195 143.911C1.50195 147.18 3.85481 149.83 6.75721 149.83Z" fill="#333333" stroke="black" stroke-width="0.318696"/>
<path d="M4.35449 136.133V144.926L6.75689 146.618L9.30945 144.926V136.133H4.35449Z" fill="#CCCCCC" stroke="black" stroke-width="0.318696"/>
<path d="M102.553 136.132H113.063L102.553 132.75V136.132Z" fill="#666666" stroke="black" stroke-width="0.318696"/>
<path d="M106.306 149.83C109.208 149.83 111.561 147.18 111.561 143.911C111.561 140.642 109.208 137.992 106.306 137.992C103.404 137.992 101.051 140.642 101.051 143.911C101.051 147.18 103.404 149.83 106.306 149.83Z" fill="#333333" stroke="black" stroke-width="0.318696"/>
<path d="M108.558 136.133V144.926L106.456 146.618L104.054 144.926V136.133H108.558Z" fill="#CCCCCC" stroke="black" stroke-width="0.318696"/>
<path d="M102.553 48.1953H116.367V98.2517H102.553V48.1953Z" fill="#E5E5E5"/>
<path d="M102.553 68.1498L116.367 58.6797V79.311H102.553V68.1498Z" fill="#E0E0E0"/>
<path d="M102.553 71.8708L116.367 62.0625V79.3117H102.553V71.8708Z" fill="#DBDBDB"/>
<path d="M102.553 74.9154L116.367 65.4453V98.2525H102.553V74.9154Z" fill="#D6D6D6"/>
<path d="M102.553 48.1953H116.367V98.2517H102.553V48.1953Z" stroke="black" stroke-width="0.318696"/>
<path d="M13.8135 41.4324V32.6387L15.1648 22.4922H16.6663L15.1648 32.6387V41.4324H13.8135Z" fill="black"/>
<path d="M99.5494 41.4324V32.6387L98.0479 22.4922H96.2461L98.0479 32.6387V41.4324H99.5494Z" fill="black"/>
<path d="M105.556 58.6797H113.063V61.0472H105.556V58.6797Z" fill="#333333"/>
<path d="M102.553 117.194L106.156 122.267H109.46L112.162 118.885L113.063 98.2539H109.46L108.559 115.503H107.358L102.553 108.739V117.194Z" fill="#333333" stroke="black" stroke-width="0.318696"/>
<path d="M102.553 99.9453H149.85V118.886H102.553V99.9453Z" fill="#7F7F7F"/>
<path d="M102.553 100.957H149.85V118.206H102.553V100.957Z" fill="#8C8C8C"/>
<path d="M102.553 101.633H149.85V117.191H102.553V101.633Z" fill="#999999"/>
<path d="M102.553 102.648H149.85V116.515H102.553V102.648Z" fill="#A6A6A6"/>
<path d="M102.553 103.324H149.85V115.5H102.553V103.324Z" fill="#B2B2B2"/>
<path d="M102.553 104.34H149.85V114.825H102.553V104.34Z" fill="#BFBFBF"/>
<path d="M102.553 105.016H149.85V113.809H102.553V105.016Z" fill="#CCCCCC"/>
<path d="M102.553 106.031H149.85V113.134H102.553V106.031Z" fill="#D9D9D9"/>
<path d="M102.553 106.707H149.85V112.119H102.553V106.707Z" fill="#E5E5E5"/>
<path d="M102.553 107.723H149.85V111.443H102.553V107.723Z" fill="#F2F2F2"/>
<path d="M102.553 108.398H149.85V110.428H102.553V108.398Z" fill="white"/>
<path d="M137.688 103.324H149.85V107.045H137.688V103.324Z" fill="#7F7F7F"/>
<path d="M137.688 112.121H149.85V115.503H137.688V112.121Z" fill="#7F7F7F"/>
<path d="M102.553 99.9453H149.85V118.886H102.553V99.9453Z" stroke="black" stroke-width="0.318696"/>
<path d="M132.883 96.5625H137.688V122.267H132.883V96.5625Z" fill="#7F7F7F"/>
<path d="M132.883 97.5742H137.688V121.25H132.883V97.5742Z" fill="#8C8C8C"/>
<path d="M132.883 98.9297H137.688V120.237H132.883V98.9297Z" fill="#999999"/>
<path d="M132.883 99.9453H137.688V118.886H132.883V99.9453Z" fill="#A6A6A6"/>
<path d="M132.883 101.297H137.688V117.87H132.883V101.297Z" fill="#B2B2B2"/>
<path d="M132.883 102.312H137.688V116.518H132.883V102.312Z" fill="#BFBFBF"/>
<path d="M132.883 103.324H137.688V115.5H132.883V103.324Z" fill="#CCCCCC"/>
<path d="M132.883 104.68H137.688V114.488H132.883V104.68Z" fill="#D9D9D9"/>
<path d="M132.883 105.691H137.688V113.132H132.883V105.691Z" fill="#E5E5E5"/>
<path d="M132.883 106.707H137.688V112.119H132.883V106.707Z" fill="#F2F2F2"/>
<path d="M132.883 108.062H137.688V110.768H132.883V108.062Z" fill="white"/>
<path d="M132.883 96.5625H137.688V122.267H132.883V96.5625Z" stroke="black" stroke-width="0.318696"/>
</g>
<defs>
<clipPath id="clip0_2109_184370">
<rect width="150" height="150" fill="white"/>
</clipPath>
</defs>
</svg>
