<svg width="150" height="150" viewBox="0 0 150 150" fill="none" xmlns="http://www.w3.org/2000/svg">
<g clip-path="url(#clip0_2109_185712)">
<path d="M44.4251 145.195V132.583L32.9268 113.363H0V108.559H22.4739V33.4835H0V28.6787H39.1986V8.10811H32.9268V1.35135H39.1986V0H99.8258V1.35135H105.052V8.10811H99.8258V28.6787H138.502V33.4835H116.551V108.559H138.502V113.363H105.052L94.5993 132.583V145.195H111.324V149.85H27.7003V145.195H44.4251Z" fill="#7F7F7F"/>
<path d="M47.5611 145.195V132.132L37.1081 113.363H7.83984V108.559H27.7005V33.4835H7.83984V28.6787H42.3346V8.10811H37.1081V1.35135H42.3346V0H96.69V1.35135H101.917V8.10811H96.69V28.6787H131.185V33.4835H111.324V108.559H131.185V113.363H101.917L91.4635 132.132V145.195H106.098V149.85H32.927V145.195H47.5611Z" fill="#8F8F8F"/>
<path d="M50.6969 145.195V132.132L41.2893 113.363H16.2021V108.559H32.9269V33.4835H16.2021V28.6787H45.4704V8.10811H41.2893V1.35135H45.4704V0H93.5541V1.35135H97.7353V8.10811H93.5541V28.6787H122.822V33.4835H106.098V108.559H122.822V113.363H97.7353L88.3276 132.132V145.195H101.916V149.85H37.1081V145.195H50.6969Z" fill="#9E9E9E"/>
<path d="M52.7875 145.195V132.132L45.4704 113.363H24.5645V108.559H38.1533V33.4835H24.5645V28.6787H49.6516V8.10811H45.4704V1.35135H49.6516V0H89.3728V1.35135H93.554V8.10811H89.3728V28.6787H115.505V33.4835H100.871V108.559H115.505V113.363H93.554L86.2369 132.132V145.195H96.6899V149.85H42.3345V145.195H52.7875Z" fill="#B0B0B0"/>
<path d="M55.9236 145.195V132.132L49.6519 113.363H31.8818V108.559H44.4254V33.4835H31.8818V28.6787H52.7878V8.10811H49.6519V1.35135H52.7878V0H86.2372V1.35135H89.3731V8.10811H86.2372V28.6787H107.143V33.4835H94.5996V108.559H107.143V113.363H89.3731L83.1013 132.132V145.195H92.509V149.85H46.516V145.195H55.9236Z" fill="#BFBFBF"/>
<path d="M59.0595 145.195V132.132L53.833 113.363H40.2441V108.559H49.6518V33.4835H40.2441V28.6787H56.9689V8.10811H53.833V1.35135H56.9689V0H83.1013V1.35135H85.1919V8.10811H83.1013V28.6787H98.7807V33.4835H89.3731V108.559H98.7807V113.363H85.1919L79.9654 132.132V145.195H87.2825V149.85H51.7424V145.195H59.0595Z" fill="#CFCFCF"/>
<path d="M62.1947 145.195V132.132L58.0135 113.363H47.5605V108.559H54.8776V33.4835H47.5605V28.6787H60.1041V8.10811H58.0135V1.35135H60.1041V0H78.9194V1.35135H81.01V8.10811H78.9194V28.6787H91.463V33.4835H84.1459V108.559H91.463V113.363H81.01L77.8741 132.132V145.195H83.1006V149.85H55.9229V145.195H62.1947Z" fill="#DEDEDE"/>
<path d="M64.2862 145.195V132.132L62.1956 113.363H55.9238V108.559H60.105V33.4835H55.9238V28.6787H63.2409V8.10811H62.1956V1.35135H63.2409V0H75.7845V1.35135H76.8298V8.10811H75.7845V28.6787H83.1015V33.4835H78.9203V108.559H83.1015V113.363H76.8298L74.7392 132.132V145.195H77.875V149.85H61.1503V145.195H64.2862Z" fill="#F0F0F0"/>
<path d="M67.4214 145.195V132.583L66.3761 113.363H63.2402V108.559H65.3308V33.4835H63.2402V28.6787H67.4214V8.10811H66.3761V1.35135H67.4214V0H71.6026V1.35135H72.6479V8.10811H71.6026V28.6787H74.7385V33.4835H73.6932V108.559H74.7385V113.363H72.6479L71.6026 132.583V145.195H72.6479V149.85H66.3761V145.195H67.4214Z" fill="white"/>
<path d="M44.4251 145.195V132.583L32.9268 113.363H0V108.559H22.4739V33.4835H0V28.6787H39.1986V8.10811H32.9268V1.35135H39.1986V0H99.8258V1.35135H105.052V8.10811H99.8258V28.6787H138.502V33.4835H116.551V108.559H138.502V113.363H105.052L94.5993 132.583V145.195H111.324V149.85H27.7003V145.195H44.4251Z" stroke="black" stroke-width="0.56027"/>
<path d="M138.502 52.7035H105.053V38.2891H138.502V52.7035Z" fill="#7F7F7F"/>
<path d="M138.502 51.8001H102.962V39.1875H138.502V51.8001Z" fill="#999999"/>
<path d="M138.502 50.301H100.871V40.6914H138.502V50.301Z" fill="#B2B2B2"/>
<path d="M138.502 48.798H98.7803V42.1914H138.502V48.798Z" fill="#CCCCCC"/>
<path d="M138.502 47.5987H95.6445V43.3945H138.502V47.5987Z" fill="#E5E5E5"/>
<path d="M138.502 46.3956H91.4639V44.5938H138.502V46.3956Z" fill="white"/>
<path d="M105.053 38.2891H138.502" stroke="black" stroke-width="0.56027"/>
<path d="M138.502 52.7031H105.053" stroke="black" stroke-width="0.56027"/>
<path d="M150 54.2026H138.502V36.7852H150V54.2026Z" fill="#7F7F7F"/>
<path d="M150 53.0028H138.502V37.6875H150V53.0028Z" fill="#999999"/>
<path d="M150 51.2H138.502V39.4883H150V51.2Z" fill="#B2B2B2"/>
<path d="M150 49.4011H138.502V41.293H150V49.4011Z" fill="#CCCCCC"/>
<path d="M150 47.8981H138.502V42.793H150V47.8981Z" fill="#E5E5E5"/>
<path d="M150 46.3951H138.502V44.293H150V46.3951Z" fill="white"/>
<path d="M150 54.2026H138.502V36.7852H150V54.2026Z" stroke="black" stroke-width="0.56027"/>
<path d="M39.1982 1.35156H99.8254" stroke="black" stroke-width="0.56027"/>
<path d="M39.1982 8.10938H99.8254" stroke="black" stroke-width="0.56027"/>
<path d="M39.1982 28.6797H99.8254" stroke="black" stroke-width="0.56027"/>
<path d="M22.4736 33.4844H116.55" stroke="black" stroke-width="0.56027"/>
<path d="M22.4736 108.559H116.55" stroke="black" stroke-width="0.56027"/>
<path d="M32.9268 113.363H105.052" stroke="black" stroke-width="0.56027"/>
<path d="M44.4248 145.195H94.599" stroke="black" stroke-width="0.56027"/>
</g>
<defs>
<clipPath id="clip0_2109_185712">
<rect width="150" height="150" fill="white"/>
</clipPath>
</defs>
</svg>
