<svg width="150" height="150" viewBox="0 0 150 150" fill="none" xmlns="http://www.w3.org/2000/svg">
<g clip-path="url(#clip0_2109_186276)">
<path d="M142.551 143.241V144.292L137.81 145.794L129.007 147.295L116.14 148.647L100.564 149.397L83.6343 149.998H66.0271L48.4199 149.397L33.5214 148.647L20.6546 147.295L11.851 145.794L7.11061 144.292V80.0281L0 76.7248V73.1212L7.11061 69.8179V63.2113L0 59.908V56.6047L29.4582 46.6947V39.7878L14.5598 36.4845V26.5746L44.3567 16.6647V13.2113L36.9075 9.75781H112.077L105.305 13.2113V16.6647L135.102 26.5746V36.4845L120.203 39.7878V46.6947L150 56.6047V59.908L142.551 63.2113V69.8179L150 73.1212V76.7248L142.551 80.0281V143.241Z" fill="#B2B2B2"/>
<path d="M36.9072 9.75976L44.3564 0H104.627L112.077 9.75976H36.9072Z" fill="#CCCCCC"/>
<path d="M135.779 140.09V140.84L131.715 142.792L123.589 144.294L112.076 145.195L97.8553 145.945L82.9569 146.696H66.704L51.1284 145.945L37.5844 145.195L26.072 144.294L17.9456 142.792L13.8824 140.84V78.528L7.11035 75.525V72.2217L13.8824 68.9184V62.6121L7.11035 59.3088V56.0055L34.1984 46.3959V39.7893L20.6544 36.486V26.8764L47.7424 17.2668V13.9635L40.9704 10.6602H108.69L101.918 13.9635V17.2668L129.007 26.8764V36.486L115.462 39.7893V46.3959L142.551 56.0055V59.3088L135.779 62.6121V68.9184L142.551 72.2217V75.525L135.779 78.528V140.09Z" fill="#CCCCCC"/>
<path d="M142.551 143.241V144.292L137.81 145.794L129.007 147.295L116.14 148.647L100.564 149.397L83.6343 149.998H66.0271L48.4199 149.397L33.5214 148.647L20.6546 147.295L11.851 145.794L7.11061 144.292V80.0281L0 76.7248V73.1212L7.11061 69.8179V63.2113L0 59.908V56.6047L29.4582 46.6947V39.7878L14.5598 36.4845V26.5746L44.3567 16.6647V13.2113L36.9074 9.75781H112.077L105.305 13.2113V16.6647L135.102 26.5746V36.4845L120.203 39.7878V46.6947L150 56.6047V59.908L142.551 63.2113V69.8179L150 73.1212V76.7248L142.551 80.0281V143.241Z" stroke="black" stroke-width="0.450959"/>
<path d="M43.002 9.75976L49.0968 0H100.564L106.659 9.75976H43.002Z" fill="#E5E5E5"/>
<path d="M53.8379 9.75976L57.9011 0H91.0839L95.1471 9.75976H53.8379Z" fill="white"/>
<path d="M36.9072 9.75976L44.3564 0H104.627L112.077 9.75976H36.9072Z" stroke="black" stroke-width="0.450959"/>
<path d="M95.1465 80.6289H112.077V141.59H95.1465V80.6289Z" fill="white"/>
<path d="M95.1465 63.2148H112.077V70.7224H95.1465V63.2148Z" fill="white"/>
<path d="M85.666 41.5898H103.273V46.6949H85.666V41.5898Z" fill="white"/>
<path d="M84.3115 13.2148H95.1467V17.2689H84.3115V13.2148Z" fill="white"/>
<path d="M95.1471 80.6289H89.7295V141.59H95.1471V80.6289Z" fill="#E5E5E5"/>
<path d="M95.1471 63.2148H89.7295V70.7224H95.1471V63.2148Z" fill="#E5E5E5"/>
<path d="M85.6657 41.5898H80.248V46.6949H85.6657V41.5898Z" fill="#E5E5E5"/>
<path d="M84.3115 13.2148H76.8623V17.2689H84.3115V13.2148Z" fill="#E5E5E5"/>
<path d="M129.007 71.6226V70.1211L137.81 71.022L142.551 72.2232V73.4244L137.81 74.6256L129.007 75.8268L116.817 76.4274L101.919 77.028L85.6659 77.3283H68.0587L51.8059 77.028L36.9075 76.4274L24.7178 75.8268L15.9142 74.6256L11.1738 73.4244V72.2232L14.5598 71.6226L23.3634 73.1241L38.2619 74.3253L68.0587 74.9259H85.6659L101.919 74.3253L116.817 73.1241L129.007 71.6226Z" fill="white"/>
<path d="M120.203 52.7012V51.5L127.653 52.1006L131.039 53.3018V54.2027L127.653 55.1036L120.203 56.0045L110.045 56.6051L97.8558 57.2057L84.3118 57.506H70.0906L55.8694 57.2057L43.6798 56.6051L33.5217 56.0045L26.7497 55.1036L22.6865 54.2027V53.3018L25.3953 52.7012L32.1673 53.9024L45.0342 54.8033L70.0906 55.4039H84.3118L97.8558 54.8033L110.045 53.9024L120.203 52.7012Z" fill="white"/>
<path d="M111.399 22.0728V21.1719L116.817 21.7725L120.203 22.3731L119.526 23.274L116.817 24.1749L111.399 24.7755L103.273 25.3761L93.7919 25.6764L82.2795 25.9767H71.4443L60.6091 25.6764L50.4511 25.3761L42.3247 24.7755L36.907 24.1749L34.1982 23.274V22.3731L36.2298 22.0728L41.6475 22.9737L51.1283 23.8746L71.4443 24.1749H82.2795L93.7919 23.8746L103.273 22.9737L111.399 22.0728Z" fill="white"/>
</g>
<defs>
<clipPath id="clip0_2109_186276">
<rect width="150" height="150" fill="white"/>
</clipPath>
</defs>
</svg>
