<svg width="150" height="150" viewBox="0 0 150 150" fill="none" xmlns="http://www.w3.org/2000/svg">
<g clip-path="url(#clip0_2109_186340)">
<path d="M9.76628 137.989L0 131.983V41.8927L9.76628 35.8867H139.983L150 41.8927V131.983L139.983 137.989H9.76628Z" fill="#CCFFFF" stroke="black" stroke-width="0.387815"/>
<path d="M0 131.981H150V125.975H0V119.969H150V113.963H0V107.957H150V101.951H0V95.9447H150V89.9387H0V83.9327H150V77.9267H0V71.9207H150V65.9146H0V59.9086H150V53.9026H0V47.8966H150V41.8906H0" stroke="black" stroke-width="0.387815"/>
<path d="M19.7833 149.999L9.7666 143.993V23.8732L19.7833 17.8672H129.967L139.984 23.8732V143.993L129.967 149.999H19.7833Z" fill="#CCFFFF" stroke="black" stroke-width="0.387815"/>
<path d="M59.8496 125.977H89.8997" stroke="black" stroke-width="0.387815"/>
<path d="M59.8496 95.9453H89.8997" stroke="black" stroke-width="0.387815"/>
<path d="M59.8496 65.9141H89.8997" stroke="black" stroke-width="0.387815"/>
<path d="M74.875 11.8633V125.977" stroke="black" stroke-width="0.387815"/>
<path d="M59.8496 0H89.8997V11.8619H59.8496V0Z" fill="#CCFFFF" stroke="black" stroke-width="0.387815"/>
<path d="M89.8994 59.9102H109.933V71.9222H89.8994V59.9102Z" stroke="black" stroke-width="0.387815"/>
<path d="M40.0664 59.9102H59.8494V71.9222H40.0664V59.9102Z" stroke="black" stroke-width="0.387815"/>
<path d="M89.8994 89.9414H109.933V101.953H89.8994V89.9414Z" stroke="black" stroke-width="0.387815"/>
<path d="M40.0664 89.9414H59.8494V101.953H40.0664V89.9414Z" stroke="black" stroke-width="0.387815"/>
<path d="M89.8994 119.969H109.933V131.981H89.8994V119.969Z" stroke="black" stroke-width="0.387815"/>
<path d="M40.0664 119.969H59.8494V131.981H40.0664V119.969Z" stroke="black" stroke-width="0.387815"/>
</g>
<defs>
<clipPath id="clip0_2109_186340">
<rect width="150" height="150" fill="white"/>
</clipPath>
</defs>
</svg>
