<svg width="150" height="150" viewBox="0 0 150 150" fill="none" xmlns="http://www.w3.org/2000/svg">
<g clip-path="url(#clip0_2109_182981)">
<path d="M0 98.2773H21.4715V116.631H0V98.2773Z" fill="#665940" stroke="black" stroke-width="0.316562"/>
<path d="M0 98.2757H21.4715V96.2734H3.45345L0 98.2757Z" fill="#998C73" stroke="black" stroke-width="0.316562"/>
<path d="M38.2883 135.316H126.577L141.592 147.997H29.8799L38.2883 135.316Z" fill="#4C3F26" stroke="black" stroke-width="0.316562"/>
<path d="M51.8018 125.641H61.4114V136.987H51.8018V125.641Z" fill="#33260D" stroke="black" stroke-width="0.316562"/>
<path d="M108.559 125.641H118.469V136.987H108.559V125.641Z" fill="#33260D" stroke="black" stroke-width="0.316562"/>
<path d="M29.8799 112.957H143.393V129.642H29.8799V112.957Z" fill="#33260D"/>
<path d="M33.1836 99.9453H80.0304V123.972H33.1836V99.9453Z" fill="#8C7F66"/>
<path d="M36.1865 99.9453H77.3277V123.972H36.1865V99.9453Z" fill="#91846B"/>
<path d="M38.5889 99.9453H74.6249V123.972H38.5889V99.9453Z" fill="#998C73"/>
<path d="M41.291 99.9453H72.2219V123.972H41.291V99.9453Z" fill="#9E9178"/>
<path d="M43.9941 99.9453H69.5197V123.972H43.9941V99.9453Z" fill="#A69980"/>
<path d="M46.6963 99.9453H66.8164V123.972H46.6963V99.9453Z" fill="#AB9E85"/>
<path d="M49.3994 99.9453H64.1141V123.972H49.3994V99.9453Z" fill="#B2A58C"/>
<path d="M52.1025 99.9453H61.4118V123.972H52.1025V99.9453Z" fill="#B8AB92"/>
<path d="M54.8047 99.9453H58.7086V123.972H54.8047V99.9453Z" fill="#BFB299"/>
<path d="M33.1836 99.9453H80.0304V123.972H33.1836V99.9453Z" stroke="black" stroke-width="0.316562"/>
<path d="M101.952 99.9442H137.988V96.2734H101.952V99.9442Z" fill="#665940"/>
<path d="M100.15 7.17578H140.09V96.2748H100.15V7.17578Z" fill="#BFB299"/>
<path d="M41.5918 18.5195H59.9101V25.861H41.5918V18.5195Z" fill="#BFB299"/>
<path d="M93.243 66.5752L68.3181 27.5318H63.213V25.8633H49.9998V27.5318H44.8947L19.9697 66.5752V99.6119L23.5733 101.28L30.4802 102.282L39.7895 103.283L50.9007 103.616H62.3121L73.4232 103.283L83.0328 102.282L89.6394 101.28L93.243 99.6119V66.5752Z" fill="#BFB299"/>
<path d="M89.339 66.5752L67.1168 27.5318H62.6123V25.8633H50.9006V27.5318H46.0958L24.1738 66.5752V99.6119L27.4771 100.947L33.1828 102.282L41.5912 102.949L51.5012 103.616H62.0117L71.9216 102.949L79.7294 102.282L86.0357 100.947L89.339 99.6119V66.5752Z" fill="#C4B79E"/>
<path d="M85.1347 66.5752L65.9155 27.5318H62.0116V25.8633H51.5011V27.5318H47.5971L28.3779 66.5752V99.6119L31.0806 100.947L36.1857 102.282L43.6932 102.949L52.1017 103.616H61.411L69.8194 102.949L76.7263 102.282L82.432 100.947L85.1347 99.6119V66.5752Z" fill="#CCBFA6"/>
<path d="M80.9314 66.5752L64.4148 27.5318H61.1115V25.8633H52.4028V27.5318H48.7992L32.583 66.5752V99.6119L34.9854 100.947L39.4899 102.282L45.4959 102.949L52.7031 103.616H60.5109L68.0184 102.949L74.0244 102.282L78.529 100.947L80.9314 99.6119V66.5752Z" fill="#D1C4AB"/>
<path d="M76.7271 66.5752L63.2135 27.5318H60.5108V25.8633H53.0033V27.5318H50.3006L36.7871 66.5752V99.6119L38.5889 100.947L42.1925 102.282L47.5979 102.949L53.6039 103.616H59.9102L65.9162 102.949L71.0213 102.282L74.9252 100.947L76.7271 99.6119V66.5752Z" fill="#D9CCB3"/>
<path d="M72.5227 66.5752L62.0122 27.5318H59.6098V25.8633H53.9041V27.5318H51.5017L40.9912 66.5752V99.6119L42.4927 100.947L45.1954 102.282L49.3996 102.949L54.2044 103.616H59.3095L64.1143 102.949L68.0182 102.282L71.0212 100.947L72.5227 99.6119V66.5752Z" fill="#DED1B8"/>
<path d="M68.3184 66.5752L60.5106 27.5318H59.0091V25.8633H54.5046V27.5318H53.0031L45.1953 66.5752V99.6119L46.0962 100.947L48.1983 102.282L51.2013 102.949L54.8049 103.616H58.7088L62.0121 102.949L65.0151 102.282L67.4175 100.947L68.3184 99.6119V66.5752Z" fill="#E5D8BF"/>
<path d="M64.4149 66.5752L59.0095 27.5318H58.1086V25.8633H55.4059V27.5318H54.2047L49.0996 66.5752V99.6119L50.0005 100.947L51.2017 102.282L53.3038 102.949L55.4059 103.616H58.1086L60.2107 102.949L62.0125 102.282L63.514 100.947L64.4149 99.6119V66.5752Z" fill="#EBDEC5"/>
<path d="M59.9103 66.5752L57.8082 27.5318H57.2076V25.8633H56.0064V27.5318H55.7061L53.3037 66.5752V99.6119L53.604 101.28L54.2046 102.282L55.1055 103.283L56.0064 103.616H57.2076L58.1085 103.283L59.0094 102.282L59.61 101.28L59.9103 99.6119V66.5752Z" fill="#F2E5CC"/>
<path d="M19.9697 66.5742H93.243" stroke="#F2E5CC" stroke-width="0.316562"/>
<path d="M19.9697 77.5859H93.243" stroke="#F2E5CC" stroke-width="0.316562"/>
<path d="M19.9697 79.5898H93.243" stroke="#998C73" stroke-width="0.316562"/>
<path d="M50 27.5312H63.2132" stroke="#998C73" stroke-width="0.316562"/>
<path d="M93.243 66.5752L68.3181 27.5318H63.213V25.8633H49.9998V27.5318H44.8947L19.9697 66.5752V99.6119L23.5733 101.28L30.4802 102.282L39.7895 103.283L50.9007 103.616H62.3121L73.4232 103.283L83.0328 102.282L89.6394 101.28L93.243 99.6119V66.5752Z" stroke="black" stroke-width="0.316562"/>
<path d="M102.252 7.17578H137.687V96.2748H102.252V7.17578Z" fill="#C4B79E"/>
<path d="M104.654 7.17578H135.585V96.2748H104.654V7.17578Z" fill="#CCBFA6"/>
<path d="M107.057 7.17578H133.183V96.2748H107.057V7.17578Z" fill="#D1C4AB"/>
<path d="M109.159 7.17578H131.081V96.2748H109.159V7.17578Z" fill="#D9CCB3"/>
<path d="M111.562 7.17578H128.679V96.2748H111.562V7.17578Z" fill="#DED1B8"/>
<path d="M113.964 7.17578H126.276V96.2748H113.964V7.17578Z" fill="#E5D8BF"/>
<path d="M116.066 7.17578H124.175V96.2748H116.066V7.17578Z" fill="#EBDEC5"/>
<path d="M118.469 7.17578H121.772V96.2748H118.469V7.17578Z" fill="#F2E5CC"/>
<path d="M100.15 18.5195H140.09" stroke="#F2E5CC" stroke-width="0.316562"/>
<path d="M100.15 20.5234H140.09" stroke="#998C73" stroke-width="0.316562"/>
<path d="M100.15 7.17578H140.09V96.2748H100.15V7.17578Z" stroke="black" stroke-width="0.316562"/>
<path d="M140.09 92.6025H150V55.5614L140.09 51.8906V92.6025Z" fill="#BFB299" stroke="black" stroke-width="0.316562"/>
<path d="M96.5469 99.9453H143.394V123.972H96.5469V99.9453Z" fill="#BFB299"/>
<path d="M99.5498 99.9453H140.691V123.972H99.5498V99.9453Z" fill="#C4B79E"/>
<path d="M101.952 99.9453H137.988V123.972H101.952V99.9453Z" fill="#CCBFA6"/>
<path d="M104.654 99.9453H135.585V123.972H104.654V99.9453Z" fill="#D1C4AB"/>
<path d="M107.357 99.9453H132.883V123.972H107.357V99.9453Z" fill="#D9CCB3"/>
<path d="M110.061 99.9453H130.181V123.972H110.061V99.9453Z" fill="#DED1B8"/>
<path d="M112.763 99.9453H127.477V123.972H112.763V99.9453Z" fill="#E5D8BF"/>
<path d="M115.466 99.9453H124.775V123.972H115.466V99.9453Z" fill="#EBDEC5"/>
<path d="M118.168 99.9453H122.072V123.972H118.168V99.9453Z" fill="#F2E5CC"/>
<path d="M96.5469 99.9453H143.394V123.972H96.5469V99.9453Z" stroke="black" stroke-width="0.316562"/>
<path d="M70.1201 103.613H96.8468L101.652 107.284L108.258 110.955L118.468 112.957H70.1201V103.613Z" fill="#F2E5CC"/>
<path d="M70.1201 112.957H118.468V123.969H70.1201V112.957Z" fill="#D9CCB3"/>
<path d="M70.1201 103.613H96.8468L101.652 107.284L108.258 110.955L118.468 112.957V123.969H70.1201V103.613Z" stroke="black" stroke-width="0.316562"/>
<path d="M48.1982 107.285H71.6217V122.302H48.1982V107.285Z" fill="#D9CCB3" stroke="black" stroke-width="0.316562"/>
<path d="M51.8018 109.289H68.3183V120.301H51.8018V109.289Z" fill="#BFB299"/>
<path d="M63.3636 88.933C65.2709 88.933 66.8171 87.2149 66.8171 85.0954C66.8171 82.976 65.2709 81.2578 63.3636 81.2578C61.4563 81.2578 59.9102 82.976 59.9102 85.0954C59.9102 87.2149 61.4563 88.933 63.3636 88.933Z" stroke="#665940" stroke-width="0.316562"/>
<path d="M44.8945 123.973H56.6062V144.329H44.8945V123.973Z" fill="#665940" stroke="black" stroke-width="0.316562"/>
<path d="M48.1982 123.973H53.3033V146.331H48.1982V123.973Z" fill="#D9CCB3" stroke="black" stroke-width="0.316562"/>
<path d="M113.363 123.973H125.075V144.329H113.363V123.973Z" fill="#665940" stroke="black" stroke-width="0.316562"/>
<path d="M116.667 123.973H121.772V146.331H116.667V123.973Z" fill="#D9CCB3" stroke="black" stroke-width="0.316562"/>
<path d="M143.393 103.613H96.8467" stroke="#F2E5CC" stroke-width="0.316562"/>
<path d="M143.393 101.613H96.8467" stroke="#998C73" stroke-width="0.316562"/>
<path d="M21.4717 109.289H33.1834V112.96H21.4717V109.289Z" fill="#33260D"/>
<path d="M21.4717 103.613L26.5768 105.616L29.8801 109.286" stroke="black" stroke-width="0.316562"/>
<path d="M41.5918 20.1875H59.9101V23.8582H41.5918V20.1875Z" fill="#F2E5CC"/>
<path d="M41.5918 18.5195H59.9101V25.861H41.5918V18.5195Z" stroke="black" stroke-width="0.316562"/>
<path d="M59.9103 0V18.1869H53.3037V0H59.9103Z" fill="#BFB299"/>
<path d="M58.4088 0V18.1869H55.1055V0H58.4088Z" fill="#F2E5CC"/>
<path d="M59.9103 0V18.1869H53.3037V0H59.9103Z" stroke="black" stroke-width="0.316562"/>
<path d="M41.5913 25.8633L19.9697 66.5752" stroke="black" stroke-width="0.316562"/>
<path d="M58.2581 36.8739C59.1703 36.8739 59.9097 36.0521 59.9097 35.0385C59.9097 34.0248 59.1703 33.2031 58.2581 33.2031C57.3459 33.2031 56.6064 34.0248 56.6064 35.0385C56.6064 36.0521 57.3459 36.8739 58.2581 36.8739Z" stroke="#665940" stroke-width="0.316562"/>
<path d="M29.88 129.644L25.0752 110.957" stroke="black" stroke-width="0.316562"/>
<path d="M29.8799 149.998H141.592V147.996H29.8799V149.998Z" fill="#33260D" stroke="black" stroke-width="0.316562"/>
</g>
<defs>
<clipPath id="clip0_2109_182981">
<rect width="150" height="150" fill="white"/>
</clipPath>
</defs>
</svg>
