<svg width="150" height="150" viewBox="0 0 150 150" fill="none" xmlns="http://www.w3.org/2000/svg">
<g clip-path="url(#clip0_2109_186058)">
<path d="M2.83984 69.5195H6.92268V74.9249H2.83984V69.5195Z" fill="#FF0000" stroke="black" stroke-width="0.32652"/>
<path d="M0 63.5138H145.74L150 59.9102V62.6129L145.74 66.2165H0V63.5138Z" fill="#143366"/>
<path d="M0 144.445H150V148.199H0V144.445Z" fill="#CCCCCC" stroke="black" stroke-width="0.32652"/>
<path d="M123.018 144.443V63.5117H133.668V144.443H123.018Z" fill="#7F7F7F"/>
<path d="M123.373 144.443V63.5117H132.959V144.443H123.373Z" fill="#8C8C8C"/>
<path d="M123.728 144.443V63.5117H132.603V144.443H123.728Z" fill="#999999"/>
<path d="M124.438 144.443V63.5117H132.248V144.443H124.438Z" fill="#A6A6A6"/>
<path d="M124.793 144.443V63.5117H131.539V144.443H124.793Z" fill="#B2B2B2"/>
<path d="M125.148 144.443V63.5117H131.184V144.443H125.148Z" fill="#BFBFBF"/>
<path d="M125.858 144.443V63.5117H130.474V144.443H125.858Z" fill="#CCCCCC"/>
<path d="M126.213 144.443V63.5117H130.118V144.443H126.213Z" fill="#D9D9D9"/>
<path d="M126.568 144.443V63.5117H129.764V144.443H126.568Z" fill="#E5E5E5"/>
<path d="M127.278 144.443V63.5117H129.053V144.443H127.278Z" fill="#F2F2F2"/>
<path d="M123.018 144.443V63.5117H133.668V144.443H123.018Z" stroke="black" stroke-width="0.32652"/>
<path d="M0 56.3063L16.5089 0H145.74L150 3.45345V59.9099L145.74 63.5135H0V56.3063Z" fill="#657FB2"/>
<path d="M6.92285 63.5117H44.556V88.1363H6.92285V63.5117Z" fill="#2D4C7F"/>
<path d="M9.94043 63.5117H41.7156V88.1363H9.94043V63.5117Z" fill="#3A598C"/>
<path d="M12.6035 63.5117H39.2307V88.1363H12.6035V63.5117Z" fill="#476699"/>
<path d="M15.4434 63.5117H36.3901V88.1363H15.4434V63.5117Z" fill="#5473A6"/>
<path d="M18.4619 63.5117H33.5507V88.1363H18.4619V63.5117Z" fill="#607FB2"/>
<path d="M20.7695 63.5117H30.7104V88.1363H20.7695V63.5117Z" fill="#6D8CBF"/>
<path d="M23.6094 63.5117H28.0472V88.1363H23.6094V63.5117Z" fill="#7A99CC"/>
<path d="M6.92285 63.5117H44.556V88.1363H6.92285V63.5117Z" stroke="black" stroke-width="0.32652"/>
<path d="M0.887695 150.001H148.935V148.199H0.887695V150.001Z" fill="#333333"/>
<path d="M112.367 2.55078H145.74V5.40363H112.367V2.55078Z" fill="#F2F2F2"/>
<path d="M0 56.3082L5.50296 36.4884L150 12.1641V59.9118L145.74 63.5154H0V56.3082Z" fill="#5E78AB"/>
<path d="M0 56.3063L16.5089 0H145.74L150 3.45345V59.9099L145.74 63.5135H0V56.3063Z" stroke="black" stroke-width="0.32652"/>
<path d="M6.92285 54.5039H28.9347V59.9093H6.92285V54.5039Z" fill="#F2F2F2"/>
</g>
<defs>
<clipPath id="clip0_2109_186058">
<rect width="150" height="150" fill="white"/>
</clipPath>
</defs>
</svg>
