<svg width="150" height="150" viewBox="0 0 150 150" fill="none" xmlns="http://www.w3.org/2000/svg">
<g clip-path="url(#clip0_2109_185245)">
<path d="M4.73684 150V10.0601V3.15315H0V0H150V3.15315H145.038V10.0601L29.5489 143.393V150H4.73684Z" fill="#7F7F7F"/>
<path d="M5.86426 150V23.2733L10.8267 4.05405L6.08982 3.15315L5.86426 0.3003L140.977 0L143.684 2.85285L139.173 3.15315L138.721 9.30931L86.8417 69.8198L29.0973 143.393V150H5.86426Z" fill="#8A8A8A"/>
<path d="M6.54102 150V36.4865L16.917 4.8048L12.8568 3.15315L12.1801 0.45045L131.955 0L136.917 2.7027L132.857 3.15315L131.955 8.55856L85.9395 63.2132L27.744 143.393V150H6.54102Z" fill="#949494"/>
<path d="M7.89453 150V50L22.7817 5.25526L19.3983 3.15315L17.8193 0.750751L122.932 0L130.601 2.4024L126.992 3.15315L125.639 8.10811L85.0374 56.6066L26.8419 143.393V150H7.89453Z" fill="#9E9E9E"/>
<path d="M9.02246 150V63.2132L28.6465 6.00601L25.9398 3.15315L23.6841 1.2012L113.91 0L123.834 1.95195L121.128 3.15315L118.872 7.35736L84.5864 49.6997L25.9398 143.393V150H9.02246Z" fill="#A8A8A8"/>
<path d="M9.69922 150V76.7267L34.9624 6.45646L32.2556 3.15315L30 1.65165L104.887 0L117.519 1.65165L114.812 3.15315L112.556 6.45646L83.6842 43.0931L25.0376 143.393V150H9.69922Z" fill="#B2B2B2"/>
<path d="M10.8271 150V89.9399L40.8271 7.35736L39.0226 3.15315L35.8647 1.95195L95.8647 0L110.752 1.2012L108.947 3.15315L105.79 6.00601L82.782 36.4865L24.361 143.393V150H10.8271Z" fill="#BDBDBD"/>
<path d="M11.5039 150V103.153L46.6919 8.10811L45.3385 3.15315L41.7295 2.4024L86.8422 0L104.436 0.750751L103.083 3.15315L99.4738 5.25526L82.331 29.8799L23.2332 143.393V150H11.5039Z" fill="#C7C7C7"/>
<path d="M12.8574 150V116.667L53.0078 8.55856L52.1055 3.15315L48.0454 2.7027L77.8198 0L98.1206 0.45045L96.7672 3.15315L92.707 4.8048L81.4288 23.2733L21.88 143.393V150H12.8574Z" fill="#D1D1D1"/>
<path d="M13.9854 150V129.88L58.8726 9.30931L58.4214 3.15315L53.9102 2.85285L68.7974 0L91.3538 0.3003L90.9026 3.15315L86.3914 4.05405L80.5267 16.6667L20.9778 143.393V150H13.9854Z" fill="#DBDBDB"/>
<path d="M14.6621 150V143.393L64.7373 10.0601V3.15315H59.7749V0H85.038V3.15315H79.6245V10.0601L20.0756 143.393V150H14.6621Z" fill="#E5E5E5"/>
<path d="M4.7373 3.15234H145.038" stroke="black" stroke-width="0.368068"/>
<path d="M145.038 10.0586H4.7373" stroke="#7F7F7F" stroke-width="0.368068"/>
<path d="M4.73684 150V3.15315H0V0H150V3.15315H145.038V10.0601L29.5489 143.393V150H4.73684Z" stroke="black" stroke-width="0.368068"/>
<path d="M29.5493 143.395H4.7373" stroke="#7F7F7F" stroke-width="0.368068"/>
</g>
<defs>
<clipPath id="clip0_2109_185245">
<rect width="150" height="150" fill="white"/>
</clipPath>
</defs>
</svg>
