<svg width="150" height="150" viewBox="0 0 150 150" fill="none" xmlns="http://www.w3.org/2000/svg">
<g clip-path="url(#clip0_2109_183599)">
<path d="M119.369 61.7383H134.384V104.931H119.369V61.7383Z" fill="#F2E5CC" stroke="#998C73" stroke-width="0.375481"/>
<path d="M121.771 61.7383V80.0481" stroke="#D9CCB3" stroke-width="0.375481"/>
<path d="M126.576 61.7383V80.0481" stroke="#D9CCB3" stroke-width="0.375481"/>
<path d="M131.081 61.7383V80.0481" stroke="#D9CCB3" stroke-width="0.375481"/>
<path d="M6.90723 142.49H16.3667V141.551H6.90723V142.49Z" fill="black"/>
<path d="M16.3662 144.837H141.291V143.898H16.3662V144.837Z" fill="black"/>
<path d="M136.787 141.551H138.289V150.001H136.787V141.551Z" fill="#999999" stroke="black" stroke-width="0.375481"/>
<path d="M111.262 141.551H112.763V150.001H111.262V141.551Z" fill="#999999" stroke="black" stroke-width="0.375481"/>
<path d="M85.7354 141.551H87.2369V150.001H85.7354V141.551Z" fill="#999999" stroke="black" stroke-width="0.375481"/>
<path d="M60.21 141.551H61.7115V150.001H60.21V141.551Z" fill="#999999" stroke="black" stroke-width="0.375481"/>
<path d="M34.6846 141.551H36.1861V150.001H34.6846V141.551Z" fill="#999999" stroke="black" stroke-width="0.375481"/>
<path d="M9.15918 141.551H10.6607V150.001H9.15918V141.551Z" fill="#999999" stroke="black" stroke-width="0.375481"/>
<path d="M16.3662 104.93H141.291V143.897H16.3662V104.93Z" fill="#CCCCCC"/>
<path d="M16.3662 132.627L44.2941 116.195V143.895H16.3662V132.627Z" fill="#C7C7C7"/>
<path d="M16.3662 134.037L44.2941 117.605V143.897H16.3662V134.037Z" fill="#C2C2C2"/>
<path d="M16.3662 136.384L44.2941 120.422V143.896H16.3662V136.384Z" fill="#BDBDBD"/>
<path d="M44.2939 132.627L81.8315 116.195V143.895H44.2939V132.627Z" fill="#C7C7C7"/>
<path d="M44.2939 134.037L81.8315 117.605V143.897H44.2939V134.037Z" fill="#C2C2C2"/>
<path d="M44.2939 136.384L81.8315 120.422V143.896H44.2939V136.384Z" fill="#BDBDBD"/>
<path d="M81.832 132.627L119.37 116.195V143.895H81.832V132.627Z" fill="#C7C7C7"/>
<path d="M81.832 134.037L119.37 117.605V143.897H81.832V134.037Z" fill="#C2C2C2"/>
<path d="M81.832 136.384L119.37 120.422V143.896H81.832V136.384Z" fill="#BDBDBD"/>
<path d="M119.369 132.627L141.291 116.195V143.895H119.369V132.627Z" fill="#C7C7C7"/>
<path d="M119.369 134.037L141.291 117.605V143.897H119.369V134.037Z" fill="#C2C2C2"/>
<path d="M119.369 136.384L141.291 120.422V143.896H119.369V136.384Z" fill="#BDBDBD"/>
<path d="M44.2939 143.897V104.93" stroke="#7F7F7F" stroke-width="0.375481"/>
<path d="M45.1953 143.897V104.93" stroke="#E5E5E5" stroke-width="0.375481"/>
<path d="M82.1318 143.897V104.93" stroke="#7F7F7F" stroke-width="0.375481"/>
<path d="M82.7324 143.897V104.93" stroke="#E5E5E5" stroke-width="0.375481"/>
<path d="M119.67 143.897V104.93" stroke="#7F7F7F" stroke-width="0.375481"/>
<path d="M120.271 143.897V104.93" stroke="#E5E5E5" stroke-width="0.375481"/>
<path d="M19.3691 120.422H20.27V125.586H19.3691V120.422Z" fill="#999999"/>
<path d="M40.3906 120.422H41.2915V125.586H40.3906V120.422Z" fill="#999999"/>
<path d="M47.5977 120.422H48.1983V125.586H47.5977V120.422Z" fill="#999999"/>
<path d="M77.9277 120.422H78.8286V125.586H77.9277V120.422Z" fill="#999999"/>
<path d="M85.1348 120.422H85.7354V125.586H85.1348V120.422Z" fill="#999999"/>
<path d="M115.466 120.422H116.367V125.586H115.466V120.422Z" fill="#999999"/>
<path d="M122.673 120.422H123.273V125.586H122.673V120.422Z" fill="#999999"/>
<path d="M137.237 120.422H138.288V125.586H137.237V120.422Z" fill="#999999"/>
<path d="M6.90723 104.93H16.3667V141.549H6.90723V104.93Z" fill="#B2B2B2" stroke="black" stroke-width="0.375481"/>
<path d="M44.2939 32.6289H119.669V104.929H44.2939V32.6289Z" fill="#CCCCCC" stroke="black" stroke-width="0.375481"/>
<path d="M46.0957 34.9766H81.2308V102.113H46.0957V34.9766Z" fill="#B2B2B2"/>
<path d="M82.7324 77.6992H117.868V102.112H82.7324V77.6992Z" fill="#B2B2B2"/>
<path d="M82.7324 34.9766H117.868V58.4507H82.7324V34.9766Z" fill="#B2B2B2"/>
<path d="M82.7324 60.7969H117.868V75.3509H82.7324V60.7969Z" fill="#B2B2B2"/>
<path d="M44.2939 25.1172H27.1768V104.929H44.2939V25.1172Z" fill="#CCCCCC" stroke="black" stroke-width="0.375481"/>
<path d="M28.6787 27.4648H42.7928V102.113H28.6787V27.4648Z" fill="#B2B2B2"/>
<path d="M0 75.3516H27.1772V104.929H0V75.3516Z" fill="#CCCCCC" stroke="black" stroke-width="0.375481"/>
<path d="M1.50195 77.6992H25.6761V102.112H1.50195V77.6992Z" fill="#B2B2B2"/>
<path d="M119.369 80.0469H141.291V104.93H119.369V80.0469Z" fill="#CCCCCC" stroke="black" stroke-width="0.375481"/>
<path d="M121.171 82.8633H139.79V102.112H121.171V82.8633Z" fill="#B2B2B2"/>
<path d="M46.0957 96.0078H81.2308V102.111H46.0957V96.0078Z" fill="#7F7F7F"/>
<path d="M82.7324 96.0078H117.868V102.111H82.7324V96.0078Z" fill="#7F7F7F"/>
<path d="M62.3125 47.1836H81.2314V97.4183H62.3125V47.1836Z" fill="#999999"/>
<path d="M82.7324 77.6992H101.351V97.4175H82.7324V77.6992Z" fill="#999999"/>
<path d="M82.7324 60.7969H93.5432L93.8435 66.9002H101.351V75.3509H82.7324V60.7969Z" fill="#999999"/>
<path d="M82.7324 47.1836H93.5432V58.4512H82.7324V47.1836Z" fill="#999999"/>
<path d="M46.0957 34.9766H60.8104V85.2113H46.0957V34.9766Z" fill="#CCCCCC"/>
<path d="M46.0957 70.6562H62.3119V73.9426H46.0957V70.6562Z" fill="#B2B2B2"/>
<path d="M46.0957 76.7617H62.3119V80.0481H46.0957V76.7617Z" fill="#B2B2B2"/>
<path d="M81.2308 34.9766V102.113H46.0957" stroke="white" stroke-width="0.375481"/>
<path d="M81.2308 34.9766H46.0957V102.113" stroke="#999999" stroke-width="0.375481"/>
<path d="M55.4053 82.8633H76.4263V98.8257H55.4053V82.8633Z" fill="#8C8C8C"/>
<path d="M89.0391 92.7227H115.465V98.8259H89.0391V92.7227Z" fill="#8C8C8C"/>
<path d="M103.153 77.6992H117.868V85.211H103.153V77.6992Z" fill="#CCCCCC"/>
<path d="M103.153 60.7969H117.868V75.3509H103.153V60.7969Z" fill="#CCCCCC"/>
<path d="M103.153 34.9766H117.868V58.4507H103.153V34.9766Z" fill="#CCCCCC"/>
<path d="M117.868 34.9766V58.4507H82.7324" stroke="white" stroke-width="0.375481"/>
<path d="M117.868 34.9766H82.7324V58.4507" stroke="#999999" stroke-width="0.375481"/>
<path d="M117.868 60.7969V75.3509H82.7324" stroke="white" stroke-width="0.375481"/>
<path d="M117.868 60.7969H82.7324V75.3509" stroke="#999999" stroke-width="0.375481"/>
<path d="M117.868 77.6992V102.112H82.7324" stroke="white" stroke-width="0.375481"/>
<path d="M117.868 77.6992H82.7324V102.112" stroke="#999999" stroke-width="0.375481"/>
<path d="M104.654 63.1445H113.964V75.3511H104.654V63.1445Z" fill="#999999"/>
<path d="M104.654 77.6992H113.964V92.7227H104.654V77.6992Z" fill="#999999"/>
<path d="M106.156 81.457H115.466V92.2552H106.156V81.457Z" fill="#8C8C8C"/>
<path d="M56.9072 79.1087L70.4207 49.5312" stroke="white" stroke-width="0.375481"/>
<path d="M63.8135 72.534L69.5192 60.7969" stroke="white" stroke-width="0.375481"/>
<path d="M56.9072 71.5967L64.715 54.6953" stroke="white" stroke-width="0.375481"/>
<path d="M95.3457 99.7649L105.256 77.6992" stroke="white" stroke-width="0.375481"/>
<path d="M100.45 95.0686L104.654 86.1484" stroke="white" stroke-width="0.375481"/>
<path d="M95.3457 94.6026L101.051 81.457" stroke="white" stroke-width="0.375481"/>
<path d="M102.553 75.3533L108.559 61.7383" stroke="white" stroke-width="0.375481"/>
<path d="M105.556 72.5361L108.258 66.9023" stroke="white" stroke-width="0.375481"/>
<path d="M102.553 72.0672L105.856 64.0859" stroke="white" stroke-width="0.375481"/>
<path d="M98.9492 57.0425L107.658 37.3242" stroke="white" stroke-width="0.375481"/>
<path d="M103.453 52.8172L107.057 44.8359" stroke="white" stroke-width="0.375481"/>
<path d="M98.9492 52.3465L104.054 40.6094" stroke="white" stroke-width="0.375481"/>
<path d="M121.171 96.0078H139.79V102.111H121.171V96.0078Z" fill="#7F7F7F"/>
<path d="M125.676 92.7227H139.79V98.8259H125.676V92.7227Z" fill="#8C8C8C"/>
<path d="M139.79 82.8633V102.112H121.171" stroke="white" stroke-width="0.375481"/>
<path d="M139.79 82.8633H121.171V102.112" stroke="#999999" stroke-width="0.375481"/>
<path d="M126.576 101.176L134.384 83.8047" stroke="white" stroke-width="0.375481"/>
<path d="M130.48 97.4173L133.784 90.375" stroke="white" stroke-width="0.375481"/>
<path d="M126.576 96.9497L131.081 86.6211" stroke="white" stroke-width="0.375481"/>
<path d="M34.9854 27.4648H42.7932V96.0094H34.9854V27.4648Z" fill="#CCCCCC"/>
<path d="M28.6787 66.9023H38.2883V82.8648H28.6787V66.9023Z" fill="#999999"/>
<path d="M36.4863 101.173H38.2881V82.8633H36.4863V101.173Z" fill="#999999"/>
<path d="M29.5791 79.1082L41.8914 52.3477" stroke="white" stroke-width="0.375481"/>
<path d="M35.8857 73.4746L40.9908 62.207" stroke="white" stroke-width="0.375481"/>
<path d="M29.5801 72.5367L36.7873 56.5742" stroke="white" stroke-width="0.375481"/>
<path d="M42.7928 27.9336V102.112H28.6787" stroke="white" stroke-width="0.375481"/>
<path d="M42.7928 27.9336H28.6787V102.112" stroke="#999999" stroke-width="0.375481"/>
<path d="M6.15625 96.0078H25.6758V102.111H6.15625V96.0078Z" fill="#7F7F7F"/>
<path d="M8.55859 77.6992H25.6757V95.0701H8.55859V77.6992Z" fill="#8C8C8C"/>
<path d="M25.6761 77.6992V102.112H1.50195" stroke="white" stroke-width="0.375481"/>
<path d="M25.6761 77.6992H1.50195V102.112" stroke="#999999" stroke-width="0.375481"/>
<path d="M8.85938 101.175L18.7693 79.1094" stroke="white" stroke-width="0.375481"/>
<path d="M13.9639 96.4788L18.1681 87.5586" stroke="white" stroke-width="0.375481"/>
<path d="M8.85938 95.5393L14.5651 82.8633" stroke="white" stroke-width="0.375481"/>
<path d="M142.643 75.3516H144.595V130.281H142.643V75.3516Z" fill="#CCCCCC"/>
<path d="M136.787 54.6953H148.349V75.3526H136.787V54.6953Z" fill="#CCCCCC"/>
<path d="M148.349 54.6953H150V75.3526H148.349V54.6953Z" fill="#B2B2B2"/>
<path d="M137.237 55.6328H147.448V64.553H137.237V55.6328Z" fill="#D9D9D9"/>
<path d="M138.288 57.043H143.693V60.7988H138.288V57.043Z" fill="#BFCBE5"/>
<path d="M136.787 54.6953H150V75.3526H136.787V54.6953Z" stroke="black" stroke-width="0.375481"/>
<path d="M55.4053 0H72.5224V32.6291H55.4053V0Z" fill="#CCCCCC"/>
<path d="M55.4053 23.2408L72.5224 9.15625V32.6304H55.4053V23.2408Z" fill="#C7C7C7"/>
<path d="M55.4053 24.6466L72.5224 10.7969V32.6279H55.4053V24.6466Z" fill="#C2C2C2"/>
<path d="M55.4053 26.5252L72.5224 12.9102V32.6285H55.4053V26.5252Z" fill="#BDBDBD"/>
<path d="M55.4053 0H72.5224V32.6291H55.4053V0Z" stroke="black" stroke-width="0.375481"/>
<path d="M25.6758 20.4219H31.0812V25.1167H25.6758V20.4219Z" fill="#CCCCCC" stroke="black" stroke-width="0.375481"/>
<path d="M33.4834 20.4219H38.8888V25.1167H33.4834V20.4219Z" fill="#CCCCCC" stroke="black" stroke-width="0.375481"/>
<path d="M10.6602 46.2422H12.6121V75.3502H10.6602V46.2422Z" fill="black"/>
<path d="M27.1776 46.2422V48.5896H1.50195V46.2422H27.1776Z" fill="black"/>
<path d="M9.15918 46.2422H10.6607V75.3502H9.15918V46.2422Z" fill="#CCCCCC" stroke="black" stroke-width="0.375481"/>
<path d="M27.1774 43.4258V46.2427H0.750977V43.4258H27.1774Z" fill="#CCCCCC" stroke="black" stroke-width="0.375481"/>
<path d="M85.7354 83.8047H89.0387V91.3164H85.7354V83.8047Z" fill="#98B2E5"/>
<path d="M73.4238 59.3887L75.5259 55.6328L78.8292 61.2666L76.7271 64.553L73.4238 59.3887Z" fill="#98B2E5"/>
<path d="M73.4238 65.4941L75.5259 61.7383L78.8292 66.9026L76.7271 70.6585L73.4238 65.4941Z" fill="#98B2E5"/>
<path d="M89.6396 21.3633H92.0421V32.6309H89.6396V21.3633Z" fill="#7F99CC" stroke="black" stroke-width="0.375481"/>
<path d="M90.541 21.831H91.4419V0H90.541V21.831Z" fill="#E5E5E5" stroke="black" stroke-width="0.375481"/>
<path d="M16.3662 104.93H141.291V143.897H16.3662V104.93Z" stroke="black" stroke-width="0.375481"/>
</g>
<defs>
<clipPath id="clip0_2109_183599">
<rect width="150" height="150" fill="white"/>
</clipPath>
</defs>
</svg>
