<svg width="150" height="150" viewBox="0 0 150 150" fill="none" xmlns="http://www.w3.org/2000/svg">
<g clip-path="url(#clip0_2109_184647)">
<path d="M11.8623 133.508H150V139.216H11.8623V133.508Z" fill="#333333"/>
<path d="M11.4111 82.1367H38.8886V129.705H11.4111V82.1367Z" fill="#666666"/>
<path d="M38.8887 3.48828H136.186V66.9132H150V135.412H38.8887V3.48828Z" fill="#CCCCCC"/>
<path d="M38.8887 117.017L66.8166 90.3789V135.411H38.8887V117.017Z" fill="#C7C7C7"/>
<path d="M38.8887 119.556L66.8166 92.918V135.413H38.8887V119.556Z" fill="#C2C2C2"/>
<path d="M38.8887 123.36L66.8166 97.3555V135.41H38.8887V123.36Z" fill="#BDBDBD"/>
<path d="M66.8164 117.017L94.444 90.3789V135.411H66.8164V117.017Z" fill="#C7C7C7"/>
<path d="M66.8164 119.556L94.444 92.918V135.413H66.8164V119.556Z" fill="#C2C2C2"/>
<path d="M66.8164 123.36L94.444 97.3555V135.41H66.8164V123.36Z" fill="#BDBDBD"/>
<path d="M94.4443 117.017L122.372 90.3789V135.411H94.4443V117.017Z" fill="#C7C7C7"/>
<path d="M94.4443 119.556L122.372 92.918V135.413H94.4443V119.556Z" fill="#C2C2C2"/>
<path d="M94.4443 123.36L122.372 97.3555V135.41H94.4443V123.36Z" fill="#BDBDBD"/>
<path d="M122.372 117.017L150 90.3789V135.411H122.372V117.017Z" fill="#C7C7C7"/>
<path d="M122.372 119.556L150 92.918V135.413H122.372V119.556Z" fill="#C2C2C2"/>
<path d="M122.372 123.36L150 97.3555V135.41H122.372V123.36Z" fill="#BDBDBD"/>
<path d="M38.8887 48.5206L87.5373 22.1992V66.9138H38.8887V48.5206Z" fill="#C7C7C7"/>
<path d="M38.8887 51.0564L87.5373 24.418V66.9127H38.8887V51.0564Z" fill="#C2C2C2"/>
<path d="M38.8887 54.8611L87.5373 28.2227V66.9119H38.8887V54.8611Z" fill="#BDBDBD"/>
<path d="M87.5371 48.5206L136.186 22.1992V66.9138H87.5371V48.5206Z" fill="#C7C7C7"/>
<path d="M87.5371 51.0564L136.186 24.418V66.9127H87.5371V51.0564Z" fill="#C2C2C2"/>
<path d="M87.5371 54.8611L136.186 28.2227V66.9119H87.5371V54.8611Z" fill="#BDBDBD"/>
<path d="M38.8887 66.9141H150V71.9881H38.8887V66.9141Z" fill="#7F7F7F"/>
<path d="M38.8887 3.48828H136.186V66.9132H150V135.412H38.8887V3.48828Z" stroke="black" stroke-width="0.436423"/>
<path d="M48.498 33.9336H127.477" stroke="#7F7F7F" stroke-width="0.436423"/>
<path d="M48.498 35.8359H127.477" stroke="#E5E5E5" stroke-width="0.436423"/>
<path d="M66.8164 135.413V71.9883" stroke="#7F7F7F" stroke-width="0.436423"/>
<path d="M67.7178 135.413V71.9883" stroke="#E5E5E5" stroke-width="0.436423"/>
<path d="M122.372 135.413V71.9883" stroke="#7F7F7F" stroke-width="0.436423"/>
<path d="M123.273 135.413V71.9883" stroke="#E5E5E5" stroke-width="0.436423"/>
<path d="M61.4111 8.87891H65.0147V69.4497H61.4111V8.87891Z" fill="#B2B2B2" stroke="#7F7F7F" stroke-width="0.436423"/>
<path d="M109.159 8.87891H112.763V69.4497H109.159V8.87891Z" fill="#B2B2B2" stroke="#7F7F7F" stroke-width="0.436423"/>
<path d="M127.478 26.957H144.745V43.4475H127.478V26.957Z" fill="#CCCCCC"/>
<path d="M127.478 43.4475V26.957H144.745" stroke="white" stroke-width="0.436423"/>
<path d="M127.478 43.4475H144.745V26.957" stroke="#999999" stroke-width="0.436423"/>
<path d="M33.7836 14.5859H38.8887V67.5458H6.00586V54.8608H33.7836V14.5859Z" fill="#CCCCCC" stroke="black" stroke-width="0.436423"/>
<path d="M10.5107 82.1346H37.0873V133.509H38.8891V67.5469H10.5107V82.1346Z" fill="#B2B2B2" stroke="black" stroke-width="0.436423"/>
<path d="M10.5107 148.099H12.3125V82.1367H10.5107V148.099Z" fill="#B2B2B2" stroke="black" stroke-width="0.436423"/>
<path d="M12.3125 129.703V133.509H37.0873V129.703H12.3125Z" fill="#B2B2B2" stroke="black" stroke-width="0.436423"/>
<path d="M32.8828 148.099H34.6846V82.1367H32.8828V148.099Z" fill="#B2B2B2" stroke="black" stroke-width="0.436423"/>
<path d="M10.5105 67.5469H0V73.2551L5.1051 78.3291L10.5105 109.407V67.5469Z" fill="#999999" stroke="black" stroke-width="0.436423"/>
<path d="M91.1406 85.9414H98.0475V91.6497H91.1406V85.9414Z" fill="#E5E5E5"/>
<path d="M45.7959 135.414H54.5046V146.196H45.7959V135.414Z" fill="#333333"/>
<path d="M48.498 135.414H51.8014V150.002H48.498V135.414Z" fill="#B2B2B2" stroke="black" stroke-width="0.436423"/>
<path d="M105.855 135.414H114.264V146.196H105.855V135.414Z" fill="#333333"/>
<path d="M108.258 135.414H111.861V150.002H108.258V135.414Z" fill="#B2B2B2" stroke="black" stroke-width="0.436423"/>
<path d="M141.141 135.414H149.999V146.196H141.141V135.414Z" fill="#333333"/>
<path d="M143.844 135.414H147.297V150.002H143.844V135.414Z" fill="#B2B2B2" stroke="black" stroke-width="0.436423"/>
<path d="M91.7422 87.8438H97.1476" stroke="#FF0000" stroke-width="0.436423"/>
<path d="M36.1865 14.5877V0H54.5048V3.48837" stroke="black" stroke-width="0.436423"/>
</g>
<defs>
<clipPath id="clip0_2109_184647">
<rect width="150" height="150" fill="white"/>
</clipPath>
</defs>
</svg>
