<svg width="150" height="150" viewBox="0 0 150 150" fill="none" xmlns="http://www.w3.org/2000/svg">
<g clip-path="url(#clip0_2109_183951)">
<path d="M12.6298 110.059H1.90311L0 131.68H4.15225L12.6298 115.464V110.059Z" fill="#7F7F7F" stroke="black" stroke-width="0.322351"/>
<path d="M5.36328 125.377L12.6297 111.863" stroke="#CCCCCC" stroke-width="0.322351"/>
<path d="M120.588 132.734V137.539H21.1074V132.734H120.588Z" fill="#665940" stroke="black" stroke-width="0.322351"/>
<path d="M120.588 96.5469H125.778V145.196H120.588V96.5469Z" fill="#665940" stroke="black" stroke-width="0.322351"/>
<path d="M69.7236 96.5469H75.26V145.196H69.7236V96.5469Z" fill="#665940" stroke="black" stroke-width="0.322351"/>
<path d="M12.6299 95.3438H46.1939V131.68H12.6299V95.3438Z" fill="#333333"/>
<path d="M27.1631 95.3438H31.3153V128.076H27.1631V95.3438Z" fill="#B2B2B2" stroke="black" stroke-width="0.322351"/>
<path d="M21.1074 95.3438H25.0867V128.076H21.1074V95.3438Z" fill="#999999" stroke="black" stroke-width="0.322351"/>
<path d="M33.3906 95.3438H37.7159V128.076H33.3906V95.3438Z" fill="#999999" stroke="black" stroke-width="0.322351"/>
<path d="M14.7061 95.3438H19.0313V128.076H14.7061V95.3438Z" fill="#7F7F7F" stroke="black" stroke-width="0.322351"/>
<path d="M39.9658 95.3438H44.1181V128.076H39.9658V95.3438Z" fill="#7F7F7F" stroke="black" stroke-width="0.322351"/>
<path d="M64.879 142.795V131.684H6.22852V142.795H64.879Z" fill="#666666" stroke="black" stroke-width="0.322351"/>
<path d="M115.397 142.791V124.473H119.55V142.791H115.397Z" fill="#333333"/>
<path d="M56.5742 91.7426V42.7937L60.7265 39.4904L68.3389 36.4874L79.0656 34.6856L91.8683 33.4844H105.017L117.82 34.6856L128.547 36.4874L136.159 39.4904L140.311 42.7937V91.7426H56.5742Z" fill="#BFB299"/>
<path d="M60.7266 91.7426V42.7937L64.5328 39.1901L71.4532 36.4874L81.1418 34.3853L92.5605 33.4844H104.671L116.09 34.3853L125.778 36.4874L132.699 39.1901L136.505 42.7937V91.7426H60.7266Z" fill="#C4B79E"/>
<path d="M64.8789 91.7426V42.7937L67.9931 39.1901L74.2215 36.4874L83.218 34.3853L93.2526 33.4844H103.979L114.014 34.3853L122.664 36.4874L128.893 39.1901L132.353 42.7937V91.7426H64.8789Z" fill="#CCBFA6"/>
<path d="M69.0312 91.7426V42.7937L71.7994 39.1901L77.3357 36.4874L84.9482 34.3853L93.9447 33.4844H103.287L112.284 34.3853L119.896 36.4874L125.433 39.1901L128.201 42.7937V91.7426H69.0312Z" fill="#D1C4AB"/>
<path d="M72.8369 91.7426V42.7937L75.2591 39.1901L80.1034 36.4874L86.6777 34.3853L94.6362 33.4844H102.595L110.207 34.3853L116.782 36.4874L121.626 39.1901L124.048 42.7937V91.7426H72.8369Z" fill="#D9CCB3"/>
<path d="M76.9893 91.7426V42.7937L79.0654 39.1901L83.2176 36.4874L88.754 34.3853L95.3284 33.4844H101.903L108.477 34.3853L114.013 36.4874L117.82 39.1901L119.896 42.7937V91.7426H76.9893Z" fill="#DED1B8"/>
<path d="M81.1416 91.7426V42.7937L82.8717 39.1901L85.9859 36.4874L90.4842 34.3853L95.6745 33.4844H101.211L106.401 34.3853L110.899 36.4874L114.36 39.1901L116.09 42.7937V91.7426H81.1416Z" fill="#E5D8BF"/>
<path d="M85.2939 91.7426V42.7937L86.332 39.1901L89.1002 36.4874L92.5604 34.3853L96.3666 33.4844H100.519L104.671 34.3853L108.131 36.4874L110.553 39.1901L111.938 42.7937V91.7426H85.2939Z" fill="#EBDEC5"/>
<path d="M89.4463 91.7426V42.7937L90.1383 39.1901L91.8684 36.4874L94.2906 34.3853L97.0587 33.4844H99.8269L102.941 34.3853L105.017 36.4874L106.747 39.1901L107.785 42.7937V91.7426H89.4463Z" fill="#F2E5CC"/>
<path d="M94.291 91.7426V42.7937L94.637 39.1901L95.3291 36.4874L96.7132 34.3853L97.7512 33.4844H99.1353L100.519 34.3853L101.557 36.4874L102.249 39.1901L102.942 42.7937V91.7426H94.291Z" fill="#F7EAD1"/>
<path d="M56.5742 91.7422L81.8337 110.061V146.397H115.398V110.061L140.311 91.7422H56.5742Z" fill="#8C7F66"/>
<path d="M60.7266 91.7422L83.2179 110.061V146.397H113.668V110.061L136.505 91.7422H60.7266Z" fill="#94876E"/>
<path d="M64.5332 91.7422L84.9484 110.061V146.397H111.938V110.061L132.353 91.7422H64.5332Z" fill="#9C8F76"/>
<path d="M68.6855 91.7422L86.6786 110.061V146.397H110.554V110.061L128.547 91.7422H68.6855Z" fill="#A3967D"/>
<path d="M72.4912 91.7422L88.0621 110.061V146.397H108.823V110.061L124.394 91.7422H72.4912Z" fill="#AB9E85"/>
<path d="M76.6436 91.7422L89.7923 110.061V146.397H107.439V110.061L120.588 91.7422H76.6436Z" fill="#B2A58C"/>
<path d="M80.4502 91.7422L91.5229 110.061V146.397H105.71V110.061L116.436 91.7422H80.4502Z" fill="#BAAD94"/>
<path d="M84.6025 91.7422L92.907 110.061V146.397H103.98V110.061L112.63 91.7422H84.6025Z" fill="#C2B59C"/>
<path d="M88.4082 91.7422L94.6366 110.061V146.397H102.595V110.061L108.477 91.7422H88.4082Z" fill="#C9BCA3"/>
<path d="M92.5605 91.7422L96.0208 110.061V146.397H100.865V110.061L104.671 91.7422H92.5605Z" fill="#D1C4AB"/>
<path d="M96.3672 91.7422L97.7513 110.061V146.397H99.4814V110.061L100.519 91.7422H96.3672Z" fill="#D9CCB3"/>
<path d="M56.5742 42.793H140.311" stroke="#FFF2D9" stroke-width="0.322351"/>
<path d="M115.398 135.587V131.684H81.834V135.587H115.398Z" fill="#333333"/>
<path d="M81.834 142.793H115.398" stroke="black" stroke-width="0.322351"/>
<path d="M56.5742 84.5352H140.311" stroke="#FFF2D9" stroke-width="0.322351"/>
<path d="M140.311 91.7426V42.7937L136.159 39.4904L128.547 36.4874L117.82 34.6856L105.017 33.4844H91.8683L79.0656 34.6856L68.3389 36.4874L60.7265 39.4904L56.5742 42.7937V91.7426L81.8337 110.061V146.397H115.398V110.061L140.311 91.7426Z" stroke="black" stroke-width="0.322351"/>
<path d="M6.22837 133.482L7.43945 131.68L10.3806 129.878L66.955 115.464H121.626V110.059H66.955L11.2457 123.872L5.70934 125.975L1.90311 128.677L0 131.981V149.999H6.22837V133.482Z" fill="#D9CCB3" stroke="black" stroke-width="0.322351"/>
<path d="M125.779 135.586V140.841H6.22852V135.586H125.779Z" fill="#D9CCB3" stroke="black" stroke-width="0.322351"/>
<path d="M125.778 91.7422H132.007V150H125.778V91.7422Z" fill="#D9CCB3" stroke="black" stroke-width="0.322351"/>
<path d="M64.8789 91.7422H71.1073V150H64.8789V91.7422Z" fill="#D9CCB3" stroke="black" stroke-width="0.322351"/>
<path d="M12.6299 95.3472V80.9327L21.1074 79.1309V75.5273H37.7164V79.1309L46.1939 80.9327V95.3472H12.6299Z" fill="#7F7F7F"/>
<path d="M15.0518 95.3467V80.9323L22.3182 79.1305V75.2266H36.505V79.1305L43.7715 80.9323V95.3467H15.0518Z" fill="#8C8C8C"/>
<path d="M17.6475 95.3467V80.9323L23.3568 79.1305V75.2266H35.1215V79.1305L41.3499 80.9323V95.3467H17.6475Z" fill="#999999"/>
<path d="M19.8965 95.3467V80.9323L24.9138 79.1305V75.2266H34.0833V79.1305L38.9276 80.9323V95.3467H19.8965Z" fill="#A6A6A6"/>
<path d="M22.3184 95.3467V80.9323L25.7786 79.1305V75.2266H32.699V79.1305L36.5052 80.9323V95.3467H22.3184Z" fill="#B2B2B2"/>
<path d="M24.9131 95.3467V80.9323L27.1622 79.1305V75.2266H31.6605V79.1305L33.9096 80.9323V95.3467H24.9131Z" fill="#BFBFBF"/>
<path d="M27.1631 95.3472V80.9327L28.3742 79.1309V75.5273H30.4503V79.1309L31.3153 80.9327V95.3472H27.1631Z" fill="#CCCCCC"/>
<path d="M12.6299 95.3472V80.9327L21.1074 79.1309V75.5273H37.7164V79.1309L46.1939 80.9327V95.3472H12.6299Z" stroke="black" stroke-width="0.322351"/>
<path d="M104.326 37.0885L101.904 35.8873L100.52 34.9864L100.866 34.3858L102.596 33.7852L105.364 34.0855L109.516 34.3858L114.014 34.9864L118.859 36.1876L123.357 37.3888L126.817 38.59L129.585 39.7912L130.623 40.6921V41.2927L128.893 41.8933L125.779 41.593L121.973 41.2927L117.129 40.6921L112.63 39.4909L108.132 38.2897L104.326 37.0885Z" fill="#BFB299" stroke="black" stroke-width="0.322351"/>
<path d="M105.017 35.8868L102.249 34.9859L100.865 34.085L101.211 33.7847L102.595 33.4844L105.71 33.7847L109.516 34.3853L114.014 34.9859L118.858 36.1871L123.357 37.088L126.817 38.2892L129.585 39.1901L130.969 40.091L130.623 40.3913L129.239 40.6916L126.125 40.3913L122.319 39.7907L117.82 39.1901L112.976 37.9889L108.478 37.088L105.017 35.8868Z" fill="#333333" stroke="black" stroke-width="0.322351"/>
<path d="M126.816 37.988V33.4835L142.387 0H144.809L130.969 37.988H126.816Z" fill="#D9CCB3" stroke="black" stroke-width="0.322351"/>
<path d="M122.664 28.6791L121.626 24.1746V18.7692L123.356 13.8142L126.124 9.30973L129.93 5.70613L134.083 3.15358L138.581 2.70312L142.733 3.45388L146.193 6.15658L148.616 9.76018L150 14.565L149.654 19.9704L147.924 25.0755L145.155 29.58L141.695 33.1836L137.197 35.2857L132.699 36.1866L128.546 34.9854L125.086 32.583L122.664 28.6791Z" fill="#F2E5CC" stroke="black" stroke-width="0.322351"/>
<path d="M124.74 27.4761L123.702 23.4221V19.0677L125.086 14.5632L127.508 10.8095L130.623 7.80646L134.429 6.00466L138.235 5.25391L141.695 6.00466L144.809 8.25691L146.886 11.2599L147.578 15.6143V19.6683L146.193 24.1728L143.771 28.0767L140.657 31.0797L136.851 32.8815L133.391 33.4821L129.585 32.5812L126.816 30.4791L124.74 27.4761Z" fill="#D9CCB3"/>
<path d="M126.125 27.1778L125.087 23.5741L125.433 19.3699L126.471 15.6162L128.893 11.8624L131.661 9.00958L135.122 7.05763L138.582 6.45703L141.696 7.50808L144.464 9.46003L146.54 12.463L147.578 16.0666L147.232 19.9705L145.848 24.1747L143.772 27.7784L141.004 30.4811L137.544 32.2829L134.083 32.8835L130.623 31.9826L127.855 30.1808L126.125 27.1778Z" fill="#CFC2A9"/>
<path d="M127.509 27.1767L126.471 23.5731L126.817 19.9695L127.855 16.0656L129.931 12.7623L132.699 10.5101L135.813 8.55811L138.927 8.25781L142.042 9.00856L144.464 10.8104L146.194 13.3629L147.232 16.6662L146.886 20.5701L145.848 24.1737L143.772 27.7773L141.004 30.1797L137.889 31.6812L134.775 32.2818L131.661 31.6812L129.239 29.5791L127.509 27.1767Z" fill="#C4B79E"/>
<path d="M128.893 26.8749L128.201 23.8719V20.2683L129.239 17.1152L130.969 13.962L133.391 11.5596L136.506 10.0581L139.274 9.75781L142.042 10.5086L144.464 11.8599L145.848 14.5626L146.886 17.5656L146.54 20.8689L145.502 24.4725L143.772 27.4755L141.35 29.8779L138.582 31.0791L135.468 31.6797L132.699 31.0791L130.623 29.2773L128.893 26.8749Z" fill="#B8AB92"/>
<path d="M130.277 26.8773L129.585 23.8743V20.8713L130.623 17.8683L132.353 15.1656L134.429 13.0635L136.851 11.562L139.62 11.2617L142.042 11.8623L144.118 13.3638L145.848 15.6161L146.54 18.6191L146.194 21.4719L145.156 24.4749L143.772 27.1776L141.35 29.2797L138.928 30.4809L136.159 31.0815L133.737 30.4809L131.661 28.9794L130.277 26.8773Z" fill="#ADA087"/>
<path d="M131.661 26.5755L130.969 23.8728V21.4704L132.007 18.7677L133.391 16.065L135.467 14.2632L137.543 13.062L139.965 12.7617L142.387 13.3623L144.118 14.5635L145.502 16.6656L146.194 19.068L145.848 21.7707L145.156 24.4734L143.772 27.1761L141.695 28.9779L139.273 30.1791L136.851 30.4794L134.775 29.8788L133.045 28.6776L131.661 26.5755Z" fill="#A3967D"/>
<path d="M133.045 26.5779L132.353 24.1755V21.7731L133.391 19.3707L134.429 17.2686L136.159 15.7671L138.235 14.5659L140.311 14.2656L142.387 14.8662L143.771 16.0674L145.155 17.8692L145.501 19.9713V22.3737L144.809 24.7761L143.425 26.8782L141.695 28.68L139.619 29.5809L137.543 29.8812L135.813 29.5809L134.083 28.3797L133.045 26.5779Z" fill="#998C73"/>
</g>
<defs>
<clipPath id="clip0_2109_183951">
<rect width="150" height="150" fill="white"/>
</clipPath>
</defs>
</svg>
