<svg width="150" height="150" viewBox="0 0 150 150" fill="none" xmlns="http://www.w3.org/2000/svg">
<g clip-path="url(#clip0_2109_184137)">
<path d="M94.3375 34.6861V31.3828H59.6387V34.6861H94.3375Z" fill="#33260D" stroke="black" stroke-width="0.465923"/>
<path d="M94.3372 22.6719V31.3806H54.5781V22.6719H94.3372Z" fill="#665940" stroke="black" stroke-width="0.465923"/>
<path d="M94.3372 10.9609V19.6696H54.5781V10.9609H94.3372Z" fill="#665940" stroke="black" stroke-width="0.465923"/>
<path d="M87.1088 22.671V19.668H56.0244V22.671H87.1088Z" fill="#33260D" stroke="black" stroke-width="0.465923"/>
<path d="M87.1081 10.9593L79.1563 8.70703H67.59L61.084 10.9593H87.1081Z" fill="#BFB299" stroke="black" stroke-width="0.465923"/>
<path d="M33.6148 25.9759L19.8799 22.6726L22.0486 13.3633H45.1811L33.6148 25.9759Z" fill="#665940" stroke="black" stroke-width="0.465923"/>
<path d="M48.0719 13.3648L40.1201 11.8633H28.5539L22.0479 13.3648H48.0719Z" fill="#BFB299" stroke="black" stroke-width="0.465923"/>
<path d="M54.5781 10.9609L35.7829 13.9639L33.6143 28.3784L54.5781 31.3814L60.3612 21.1711L54.5781 10.9609Z" fill="#8C7F66" stroke="black" stroke-width="0.465923"/>
<path d="M126.867 31.3828V36.1876H96.5059V31.3828H126.867Z" fill="#7F7F7F"/>
<path d="M124.699 31.3828V36.1876H97.9521V31.3828H124.699Z" fill="#999999"/>
<path d="M121.807 31.3828V36.1876H101.566V31.3828H121.807Z" fill="#B2B2B2"/>
<path d="M118.193 31.3828V36.1876H104.458V31.3828H118.193Z" fill="#CCCCCC"/>
<path d="M116.024 31.3828V36.1876H107.35V31.3828H116.024Z" fill="#E5E5E5"/>
<path d="M113.132 31.3828V36.1876H109.518V31.3828H113.132Z" fill="white"/>
<path d="M126.867 31.3828V36.1876H96.5059V31.3828H126.867Z" stroke="black" stroke-width="0.465923"/>
<path d="M132.65 31.3804V29.8789H90.7227V31.3804H132.65Z" fill="#7F7F7F"/>
<path d="M129.759 31.3804V29.8789H92.8916V31.3804H129.759Z" fill="#999999"/>
<path d="M125.422 31.3804V29.8789H97.9521V31.3804H125.422Z" fill="#B2B2B2"/>
<path d="M121.084 31.3804V29.8789H102.289V31.3804H121.084Z" fill="#CCCCCC"/>
<path d="M117.47 31.3804V29.8789H105.181V31.3804H117.47Z" fill="#E5E5E5"/>
<path d="M113.855 31.3804V29.8789H108.795V31.3804H113.855Z" fill="white"/>
<path d="M132.65 31.3804V29.8789H90.7227V31.3804H132.65Z" stroke="black" stroke-width="0.465923"/>
<path d="M35.7831 31.3828V36.1876H24.2168V31.3828H35.7831Z" fill="#7F7F7F"/>
<path d="M35.0599 31.3828V36.1876H24.9395V31.3828H35.0599Z" fill="#999999"/>
<path d="M33.6149 31.3828V36.1876H25.6631V31.3828H33.6149Z" fill="#B2B2B2"/>
<path d="M32.1686 31.3828V36.1876H27.1084V31.3828H32.1686Z" fill="#CCCCCC"/>
<path d="M31.4455 31.3828V36.1876H27.8311V31.3828H31.4455Z" fill="#E5E5E5"/>
<path d="M30.7231 31.3828V36.1876H29.2773V31.3828H30.7231Z" fill="white"/>
<path d="M35.7831 31.3828V36.1876H24.2168V31.3828H35.7831Z" stroke="black" stroke-width="0.465923"/>
<path d="M40.8432 31.3804V29.8789H18.4336V31.3804H40.8432Z" fill="#7F7F7F"/>
<path d="M39.398 31.3804V29.8789H19.8799V31.3804H39.398Z" fill="#999999"/>
<path d="M37.2286 31.3804V29.8789H22.0479V31.3804H37.2286Z" fill="#B2B2B2"/>
<path d="M35.0602 31.3804V29.8789H24.2168V31.3804H35.0602Z" fill="#CCCCCC"/>
<path d="M32.8918 31.3804V29.8789H26.3857V31.3804H32.8918Z" fill="#E5E5E5"/>
<path d="M31.4463 31.3804V29.8789H28.5547V31.3804H31.4463Z" fill="white"/>
<path d="M40.8432 31.3804V29.8789H18.4336V31.3804H40.8432Z" stroke="black" stroke-width="0.465923"/>
<path d="M115.302 86.6367L144.217 93.5436L147.109 95.0451L149.277 96.8469L150 98.6487L148.555 100.451L146.386 102.252L143.494 103.454L139.157 104.054L134.82 104.354L130.482 104.054L100.844 96.8469L115.302 86.6367Z" fill="#7F7F7F"/>
<path d="M113.855 87.8359L142.771 94.7428L146.385 95.944L148.554 97.4455L149.277 99.2473L148.554 100.749L147.108 101.95L144.217 102.851L140.602 103.452H136.265L131.928 102.851L102.289 95.944L113.855 87.8359Z" fill="#919191"/>
<path d="M112.41 88.7383L141.326 95.6452L144.94 96.8464L147.109 98.3479L148.555 99.5491V100.75L147.109 101.951L144.94 102.552H141.326H136.988L133.374 101.951L103.735 94.7443L112.41 88.7383Z" fill="#A6A6A6"/>
<path d="M110.964 89.6406L139.879 96.8478L143.494 97.7487L146.385 98.9499L147.831 100.151L148.554 101.052L147.108 101.653L145.663 101.953H142.048L138.434 101.653L134.819 100.752L105.181 93.8448L110.964 89.6406Z" fill="#B8B8B8"/>
<path d="M109.519 90.8398L138.434 97.7468L142.049 98.948L144.94 99.8489L147.109 100.449L147.832 101.05L147.109 101.35H145.663L143.494 101.05L139.88 100.75L135.543 99.8489L106.627 92.9419L109.519 90.8398Z" fill="#CCCCCC"/>
<path d="M115.302 86.6367L144.217 93.5436L147.109 95.0451L149.277 96.8469L150 98.6487L148.555 100.451L146.386 102.252L143.494 103.454L139.157 104.054L134.82 104.354L130.482 104.054L100.844 96.8469L115.302 86.6367Z" stroke="black" stroke-width="0.465923"/>
<path d="M123.253 90.2422L147.831 96.2482" stroke="black" stroke-width="0.465923"/>
<path d="M123.253 92.043L149.277 98.3493" stroke="black" stroke-width="0.465923"/>
<path d="M121.084 93.543L147.108 99.8493" stroke="black" stroke-width="0.465923"/>
<path d="M145.663 101.353L118.916 94.7461" stroke="black" stroke-width="0.465923"/>
<path d="M143.494 102.552L117.47 96.2461" stroke="black" stroke-width="0.465923"/>
<path d="M139.88 103.455L113.855 97.1484" stroke="black" stroke-width="0.465923"/>
<path d="M134.819 104.052L108.795 97.7461" stroke="black" stroke-width="0.465923"/>
<path d="M108.795 98.0472C116.78 98.0472 123.253 95.3582 123.253 92.0412C123.253 88.7241 116.78 86.0352 108.795 86.0352C100.81 86.0352 94.3369 88.7241 94.3369 92.0412C94.3369 95.3582 100.81 98.0472 108.795 98.0472Z" fill="#7F7F7F" stroke="black" stroke-width="0.465923"/>
<path d="M9.75868 149.851C14.5496 149.851 18.4334 149.178 18.4334 148.349C18.4334 147.52 14.5496 146.848 9.75868 146.848C4.96778 146.848 1.08398 147.52 1.08398 148.349C1.08398 149.178 4.96778 149.851 9.75868 149.851Z" fill="#333333" stroke="black" stroke-width="0.465923"/>
<path d="M52.4094 108.859L6.86719 47.2977V40.9914L13.3732 38.2887L26.3853 35.586L43.7347 34.0845L64.6985 33.1836H86.3853L106.626 34.0845L124.699 35.586L136.988 38.2887L144.217 40.9914V47.2977L97.9515 108.859H52.4094Z" fill="#7F7F7F"/>
<path d="M54.5781 108.859L12.6504 47.2972V40.9909L18.4335 37.9879L30.7227 35.5855L46.6263 33.7837L65.4215 32.8828H85.6624L104.458 33.7837L120.361 35.5855L132.65 37.9879L138.434 40.9909V47.2972L96.5058 108.859H54.5781Z" fill="#878787"/>
<path d="M56.7471 108.859L17.7109 47.2972V40.9909L23.4941 37.9879L34.3374 35.5855L48.7953 33.7837L66.1447 32.8828H84.9398L102.289 33.7837L116.747 35.5855L127.59 37.9879L133.374 40.9909V47.2972L95.0603 108.859H56.7471Z" fill="#919191"/>
<path d="M58.1929 108.859L23.4941 47.2972V40.9909L28.5544 37.9879L37.952 35.5855L51.6869 33.7837L66.8676 32.8828H83.4941L99.3978 33.7837L113.133 35.5855L122.53 37.9879L127.591 40.9909V47.2972L92.8917 108.859H58.1929Z" fill="#999999"/>
<path d="M59.639 108.859L28.5547 47.2972V40.9909L32.892 37.9879L42.2896 35.5855L53.8559 33.7837L68.3137 32.8828H82.7716L97.2294 33.7837L108.796 35.5855L118.193 37.9879L122.531 40.9909V47.2972L91.4463 108.859H59.639Z" fill="#A1A1A1"/>
<path d="M61.8068 108.859L34.3369 47.2972V40.9909L37.9514 37.9879L45.9032 35.5855L56.7466 33.7837L69.0357 32.8828H82.0478L94.3369 33.7837L105.18 35.5855L113.132 37.9879L117.469 40.9909V47.2972L89.2767 108.859H61.8068Z" fill="#ABABAB"/>
<path d="M63.2529 108.859L39.3975 47.2972V40.9909L43.0119 37.9879L49.5179 35.5855L58.9155 33.7837L69.7589 32.8828H81.3252L92.1685 33.7837L101.566 35.5855L108.072 37.9879L111.687 40.9909V47.2972L87.8312 108.859H63.2529Z" fill="#B2B2B2"/>
<path d="M65.4219 108.859L44.458 47.2972V40.9909L48.0725 37.9879L53.8556 35.5855L61.8074 33.7837L70.4821 32.8828H80.6026L90.0002 33.7837L97.2291 35.5855L103.735 37.9879L106.627 40.9909V47.2972L85.6628 108.859H65.4219Z" fill="#BABABA"/>
<path d="M66.8677 108.859L50.2412 47.2972V40.9909L52.4099 37.9879L57.4701 35.5855L63.9762 33.7837L71.928 32.8828H79.8798L87.1087 33.7837L93.6147 35.5855L98.6749 37.9879L100.844 40.9909V47.2972L84.2171 108.859H66.8677Z" fill="#C4C4C4"/>
<path d="M69.0357 108.859L55.3008 47.2972V40.9909L57.4695 37.9879L61.0839 35.5855L66.1442 33.7837L72.6502 32.8828H79.1562L84.9393 33.7837L89.9996 35.5855L93.614 37.9879L95.7827 40.9909V47.2972L82.0478 108.859H69.0357Z" fill="#CCCCCC"/>
<path d="M70.4816 108.859L61.084 47.2972V40.9909L62.5298 37.9879L65.4213 35.5855L69.0358 33.7837L73.3731 32.8828H77.7105L82.0478 33.7837L85.6623 35.5855L88.5539 37.9879L89.9996 40.9909V47.2972L80.6021 108.859H70.4816Z" fill="#D4D4D4"/>
<path d="M72.6506 108.859L66.1445 47.2972V40.9909L67.5903 37.9879L69.0361 35.5855L71.2048 33.7837L74.0963 32.8828H76.9879L79.8795 33.7837L82.0481 35.5855L84.2168 37.9879L84.9397 40.9909V47.2972L78.4337 108.859H72.6506Z" fill="#DEDEDE"/>
<path d="M75.5422 108.859C77.5384 108.859 79.1567 91.9187 79.1567 71.0214C79.1567 50.1242 77.5384 33.1836 75.5422 33.1836C73.546 33.1836 71.9277 50.1242 71.9277 71.0214C71.9277 91.9187 73.546 108.859 75.5422 108.859Z" fill="#E5E5E5"/>
<path d="M52.4094 108.859L6.86719 47.2977V40.9914L13.3732 38.2887L26.3853 35.586L43.7347 34.0845L64.6985 33.1836H86.3853L106.626 34.0845L124.699 35.586L136.988 38.2887L144.217 40.9914V47.2977L97.9515 108.859H52.4094Z" stroke="black" stroke-width="0.465923"/>
<path d="M6.86719 43.9922H144.217V47.2955H6.86719V43.9922Z" fill="#333333"/>
<path d="M75.5419 85.2854C81.9297 85.2854 87.1081 83.1342 87.1081 80.4806C87.1081 77.827 81.9297 75.6758 75.5419 75.6758C69.154 75.6758 63.9756 77.827 63.9756 80.4806C63.9756 83.1342 69.154 85.2854 75.5419 85.2854Z" fill="black"/>
<path d="M75.1802 83.6344C79.3722 83.6344 82.7706 82.2227 82.7706 80.4813C82.7706 78.7398 79.3722 77.3281 75.1802 77.3281C70.9882 77.3281 67.5898 78.7398 67.5898 80.4813C67.5898 82.2227 70.9882 83.6344 75.1802 83.6344Z" fill="#E5E5E5"/>
<path d="M67.5898 82.1314L75.5417 80.6299L79.1561 78.8281" stroke="black" stroke-width="0.465923"/>
<path d="M22.0482 55.1062V45.7969H14.8193L9.03613 48.7999V55.1062H22.0482Z" fill="#7F7F7F" stroke="black" stroke-width="0.465923"/>
<path d="M9.03614 45.7969H14.8193L9.03614 48.7999H0L9.03614 45.7969Z" fill="#B2B2B2" stroke="black" stroke-width="0.465923"/>
<path d="M0 55.1032V48.7969H9.03614V55.1032H0Z" fill="#999999" stroke="black" stroke-width="0.465923"/>
<path d="M14.8197 55.1055V148.349H4.69922V55.1055H14.8197Z" fill="#7F7F7F"/>
<path d="M14.0966 55.1055V148.349H5.42188V55.1055H14.0966Z" fill="#999999"/>
<path d="M13.3732 55.1055V148.349H6.86719V55.1055H13.3732Z" fill="#B2B2B2"/>
<path d="M11.9272 55.1055V148.349H7.58984V55.1055H11.9272Z" fill="#CCCCCC"/>
<path d="M11.205 55.1055V148.349H8.31348V55.1055H11.205Z" fill="#E5E5E5"/>
<path d="M10.4819 55.1055V148.349H9.03613V55.1055H10.4819Z" fill="white"/>
<path d="M14.8197 55.1055V148.349H4.69922V55.1055H14.8197Z" stroke="black" stroke-width="0.465923"/>
<path d="M139.157 149.851C143.948 149.851 147.832 149.178 147.832 148.349C147.832 147.52 143.948 146.848 139.157 146.848C134.366 146.848 130.482 147.52 130.482 148.349C130.482 149.178 134.366 149.851 139.157 149.851Z" fill="#333333" stroke="black" stroke-width="0.465923"/>
<path d="M126.867 55.1062V45.7969H134.096L139.879 48.7999V55.1062H126.867Z" fill="#B2B2B2" stroke="black" stroke-width="0.465923"/>
<path d="M139.88 45.7969H134.097L139.88 48.7999H149.277L139.88 45.7969Z" fill="#999999" stroke="black" stroke-width="0.465923"/>
<path d="M149.277 55.1032V48.7969H139.88V55.1032H149.277Z" fill="#7F7F7F" stroke="black" stroke-width="0.465923"/>
<path d="M134.097 55.1055V148.349H143.494V55.1055H134.097Z" fill="#7F7F7F"/>
<path d="M134.819 55.1055V148.349H143.494V55.1055H134.819Z" fill="#999999"/>
<path d="M135.542 55.1055V148.349H142.048V55.1055H135.542Z" fill="#B2B2B2"/>
<path d="M136.988 55.1055V148.349H141.326V55.1055H136.988Z" fill="#CCCCCC"/>
<path d="M137.711 55.1055V148.349H140.603V55.1055H137.711Z" fill="#E5E5E5"/>
<path d="M138.434 55.1055V148.349H139.879V55.1055H138.434Z" fill="white"/>
<path d="M134.097 55.1055V148.349H143.494V55.1055H134.097Z" stroke="black" stroke-width="0.465923"/>
<path d="M74.4578 143.394C79.0491 143.394 82.771 142.721 82.771 141.892C82.771 141.063 79.0491 140.391 74.4578 140.391C69.8665 140.391 66.1445 141.063 66.1445 141.892C66.1445 142.721 69.8665 143.394 74.4578 143.394Z" fill="#333333" stroke="black" stroke-width="0.465923"/>
<path d="M79.1564 108.859V142.193H69.7588V108.859H79.1564Z" fill="#666666"/>
<path d="M77.7111 108.859V142.193H71.2051V108.859H77.7111Z" fill="#7F7F7F"/>
<path d="M75.5417 108.859V142.193H73.373V108.859H75.5417Z" fill="#B2B2B2"/>
<path d="M79.1564 108.859V142.193H69.7588V108.859H79.1564Z" stroke="black" stroke-width="0.465923"/>
<path d="M41.5664 19.668H66.8676L69.7592 19.9683L72.6507 20.8692L74.0965 22.0704L75.5423 23.2716V24.7731L74.0965 25.9743L72.6507 27.1755L69.7592 28.0764L66.8676 28.3767H41.5664V19.668Z" fill="#7F7F7F"/>
<path d="M41.5664 20.5703H66.8676L69.7592 20.8706L72.6507 21.4712L74.8194 22.3721L75.5423 23.273V24.4742L74.8194 25.6754L72.6507 26.5763L69.7592 27.1769L66.8676 27.4772H41.5664V20.5703Z" fill="#919191"/>
<path d="M41.5664 21.4727H66.8676H69.7592L72.6507 22.0733L74.8194 22.6739L75.5423 23.5748V24.4757L74.8194 25.3766L72.6507 25.9772L69.7592 26.2775L66.8676 26.5778H41.5664V21.4727Z" fill="#A6A6A6"/>
<path d="M41.5664 22.3711H66.8676H69.7592L72.6507 22.6714L74.8194 23.272L75.5423 23.5723V24.1729L74.8194 24.7735L72.6507 25.3741L69.7592 25.6744H66.8676H41.5664V22.3711Z" fill="#B8B8B8"/>
<path d="M58.5544 24.7749C67.9365 24.7749 75.5423 24.4388 75.5423 24.0242C75.5423 23.6096 67.9365 23.2734 58.5544 23.2734C49.1722 23.2734 41.5664 23.6096 41.5664 24.0242C41.5664 24.4388 49.1722 24.7749 58.5544 24.7749Z" fill="#CCCCCC"/>
<path d="M41.5664 19.668H66.8676L69.7592 19.9683L72.6507 20.8692L74.0965 22.0704L75.5423 23.2716V24.7731L74.0965 25.9743L72.6507 27.1755L69.7592 28.0764L66.8676 28.3767H41.5664V19.668Z" stroke="black" stroke-width="0.465923"/>
<path d="M50.2412 20.8711H71.2051" stroke="black" stroke-width="0.465923"/>
<path d="M51.6865 22.0703H74.0962" stroke="black" stroke-width="0.465923"/>
<path d="M51.6865 22.9727H74.0962" stroke="black" stroke-width="0.465923"/>
<path d="M74.0962 24.1758H51.6865" stroke="black" stroke-width="0.465923"/>
<path d="M74.0962 25.375H51.6865" stroke="black" stroke-width="0.465923"/>
<path d="M72.6508 26.5781H50.2412" stroke="black" stroke-width="0.465923"/>
<path d="M69.7592 27.7773H47.3496" stroke="black" stroke-width="0.465923"/>
<path d="M42.2887 28.5285C48.2773 28.5285 53.1321 26.5118 53.1321 24.024C53.1321 21.5363 48.2773 19.5195 42.2887 19.5195C36.3001 19.5195 31.4453 21.5363 31.4453 24.024C31.4453 26.5118 36.3001 28.5285 42.2887 28.5285Z" fill="#7F7F7F" stroke="black" stroke-width="0.465923"/>
<path d="M54.5781 108.859H84.9396V113.664H54.5781V108.859Z" fill="#333333" stroke="black" stroke-width="0.465923"/>
<path d="M96.5057 108.859H84.9395V112.163H96.5057V108.859Z" fill="black"/>
<path d="M67.5898 109.758H92.891V115.163H67.5898V109.758Z" fill="#7F7F7F" stroke="black" stroke-width="0.465923"/>
<path d="M95.7835 115.767L85.6631 118.77L83.4944 116.968L82.7715 115.167L95.7835 114.866L85.6631 111.563L88.5546 110.362L92.892 109.461L97.2293 114.266L101.567 109.461L105.904 110.362L108.796 111.563L98.6751 114.866L111.687 115.167L110.964 116.968L108.796 118.77L97.9522 115.767L101.567 120.872L97.2293 121.173L92.892 120.872L95.7835 115.767Z" fill="#4C4C4C"/>
<path d="M97.2288 108.258V109.159L101.566 109.459L105.904 110.36L108.795 111.561L110.964 113.363L111.687 115.165L110.964 116.967L108.795 118.768L105.904 119.97L101.566 120.87L97.2288 121.171L92.8915 120.87L88.5541 119.97L85.6625 118.768L83.4939 116.967L82.771 115.165L83.4939 113.363L85.6625 111.561L88.5541 110.36L92.8915 109.459L97.2288 109.159V108.258L92.1686 108.858L87.8312 109.759L84.2168 111.261L82.0481 113.063L81.3252 115.165L82.0481 117.267L84.2168 119.069L87.8312 120.57L92.1686 121.471L97.2288 121.771L102.289 121.471L106.626 120.57L110.241 119.069L112.41 117.267L113.855 115.165L112.41 113.063L110.241 111.261L106.626 109.759L102.289 108.858L97.2288 108.258Z" fill="black"/>
<path d="M77.7106 0V8.70871H69.7588V0H77.7106Z" fill="#7F7F7F"/>
<path d="M76.9875 0V8.70871H70.4814V0H76.9875Z" fill="#999999"/>
<path d="M76.2653 0V8.70871H71.2051V0H76.2653Z" fill="#B2B2B2"/>
<path d="M75.5422 0V8.70871H71.9277V0H75.5422Z" fill="#CCCCCC"/>
<path d="M74.8191 0V8.70871H72.6504V0H74.8191Z" fill="#E5E5E5"/>
<path d="M74.0959 0V8.70871H73.373V0H74.0959Z" fill="white"/>
<path d="M77.7106 0V8.70871H69.7588V0H77.7106Z" stroke="black" stroke-width="0.465923"/>
<path d="M60.3613 4.80469V10.9608H54.5781V4.80469H60.3613Z" fill="#7F7F7F"/>
<path d="M59.6384 4.80469V10.9608H54.5781V4.80469H59.6384Z" fill="#999999"/>
<path d="M59.6381 4.80469V10.9608H55.3008V4.80469H59.6381Z" fill="#B2B2B2"/>
<path d="M58.916 4.80469V10.9608H56.0244V4.80469H58.916Z" fill="#CCCCCC"/>
<path d="M58.1929 4.80469V10.9608H56.7471V4.80469H58.1929Z" fill="#E5E5E5"/>
<path d="M57.47 4.80469V10.9608H56.7471V4.80469H57.47Z" fill="white"/>
<path d="M60.3613 4.80469V10.9608H54.5781V4.80469H60.3613Z" stroke="black" stroke-width="0.465923"/>
</g>
<defs>
<clipPath id="clip0_2109_184137">
<rect width="150" height="150" fill="white"/>
</clipPath>
</defs>
</svg>
