<svg width="150" height="150" viewBox="0 0 150 150" fill="none" xmlns="http://www.w3.org/2000/svg">
<g clip-path="url(#clip0_2109_184763)">
<path d="M0 34.3633H146.997V150.001H137.387V98.5608H9.15916V150.001H0V34.3633Z" fill="#CCCCCC"/>
<path d="M0 80.0394L146.997 52.8789V98.5579H0V80.0394Z" fill="#C7C7C7"/>
<path d="M0 82.5107L146.997 55.7617V98.5601H0V82.5107Z" fill="#C2C2C2"/>
<path d="M0 86.624L146.997 59.875V149.998H137.387V98.5581H9.15916V149.998H0V86.624Z" fill="#BDBDBD"/>
<path d="M0 34.3633H146.997V150.001H137.387V98.5608H9.15916V150.001H0V34.3633Z" stroke="black" stroke-width="0.35154"/>
<path d="M59.3096 0H106.156V34.3621H59.3096V0Z" fill="#CCCCCC"/>
<path d="M59.3096 24.0751L106.156 10.2891V34.3631H59.3096V24.0751Z" fill="#C7C7C7"/>
<path d="M59.3096 25.7197L106.156 11.3164V34.3617H59.3096V25.7197Z" fill="#C2C2C2"/>
<path d="M59.3096 27.7796L106.156 13.582V34.3639H59.3096V27.7796Z" fill="#BDBDBD"/>
<path d="M59.3096 0H106.156V34.3621H59.3096V0Z" stroke="black" stroke-width="0.35154"/>
<path d="M9.15918 34.364L18.7688 21.1953H59.3093V34.364H9.15918Z" fill="#B2B2B2" stroke="black" stroke-width="0.35154"/>
<path d="M138.289 43.8281V89.9187H10.0605" stroke="white" stroke-width="0.35154"/>
<path d="M138.289 43.8281H10.0605V89.9187" stroke="#999999" stroke-width="0.35154"/>
<path d="M9.15918 88.6843V42.5938H137.387" stroke="white" stroke-width="0.35154"/>
<path d="M9.15918 88.6843H137.387V42.5938" stroke="#999999" stroke-width="0.35154"/>
<path d="M98.3486 4.52734H104.655V7.81952H98.3486V4.52734Z" fill="#333333"/>
<path d="M145.195 10.4922H146.997V34.3605H145.195V10.4922Z" fill="#CCCCCC" stroke="black" stroke-width="0.35154"/>
<path d="M146.547 19.1367H148.499V81.2766H146.547V19.1367Z" fill="#CCCCCC" stroke="black" stroke-width="0.35154"/>
<path d="M150 36.418H148.498V64.4015H150V36.418Z" fill="#F2E5CC" stroke="black" stroke-width="0.35154"/>
<path d="M106.156 31.8945H145.195V34.3637H106.156V31.8945Z" fill="#666666" stroke="black" stroke-width="0.35154"/>
<path d="M121.171 12.9648H145.195V30.043H121.171V12.9648Z" fill="#7F7F7F"/>
<path d="M121.171 13.582H145.195V29.0141H121.171V13.582Z" fill="#8C8C8C"/>
<path d="M121.171 14.1992H145.195V28.6025H121.171V14.1992Z" fill="#999999"/>
<path d="M121.171 15.0195H145.195V27.7767H121.171V15.0195Z" fill="#A6A6A6"/>
<path d="M121.171 15.8438H145.195V26.9549H121.171V15.8438Z" fill="#B2B2B2"/>
<path d="M121.171 16.8711H145.195V26.1304H121.171V16.8711Z" fill="#BFBFBF"/>
<path d="M121.171 17.4883H145.195V25.3072H121.171V17.4883Z" fill="#CCCCCC"/>
<path d="M121.171 18.3125H145.195V24.4853H121.171V18.3125Z" fill="#D9D9D9"/>
<path d="M121.171 18.9297H145.195V23.6622H121.171V18.9297Z" fill="#E5E5E5"/>
<path d="M121.171 19.5469H145.195V23.4563H121.171V19.5469Z" fill="#F2F2F2"/>
<path d="M121.171 20.3711H145.195V22.4287H121.171V20.3711Z" fill="white"/>
<path d="M121.171 12.9648H145.195V30.043H121.171V12.9648Z" stroke="black" stroke-width="0.35154"/>
<path d="M125.676 12.9648V30.043" stroke="black" stroke-width="0.35154"/>
<path d="M127.177 27.7797V21.1953H131.982" stroke="#E5E5E5" stroke-width="0.35154"/>
<path d="M127.177 27.7797H131.982V21.1953" stroke="#333333" stroke-width="0.35154"/>
<path d="M122.673 31.8948H145.195V30.043H122.673V31.8948Z" fill="black"/>
<path d="M9.15918 100.617H137.387V105.144H9.15918V100.617Z" fill="#7F7F7F" stroke="black" stroke-width="0.35154"/>
</g>
<defs>
<clipPath id="clip0_2109_184763">
<rect width="150" height="150" fill="white"/>
</clipPath>
</defs>
</svg>
