<svg width="150" height="150" viewBox="0 0 150 150" fill="none" xmlns="http://www.w3.org/2000/svg">
<g clip-path="url(#clip0_2109_182820)">
<path d="M39.49 108.91H36.1867V96.9805H31.0816L29.5801 99.1896V113.77L31.0816 116.421H39.49V108.91Z" fill="#72727F" stroke="black" stroke-width="0.364253"/>
<path d="M89.3397 148.673L79.4298 149.999H68.9193L58.7091 148.673L49.7001 146.022L42.4929 141.604L37.0875 136.744L34.3848 131.442V125.698L37.6881 121.28L37.9884 77.5391H110.361V120.838L113.664 125.698V131.442L110.961 136.744L105.856 141.604L98.3487 146.022L89.3397 148.673Z" fill="#72727F"/>
<path d="M87.8376 148.673L78.8286 149.999H69.5193L60.21 148.673L52.1019 146.022L45.4953 142.488L40.6905 138.069L38.2881 132.767V127.465L41.2911 123.047V77.5391H107.057V123.047L110.06 127.465V132.767L107.657 138.069L102.853 142.488L96.246 146.022L87.8376 148.673Z" fill="#7A7A87"/>
<path d="M86.6363 148.673L78.2279 149.999H69.8195L61.7114 148.673L54.5042 146.464L48.4982 143.371L44.294 139.395L41.8916 134.535V129.233L44.5943 124.814V77.5391H103.453V124.814L106.156 129.233V134.535L104.054 139.395L99.8496 143.371L93.8436 146.464L86.6363 148.673Z" fill="#82828F"/>
<path d="M85.1352 149.115L77.928 149.999H70.4205L63.2133 149.115L56.6067 146.906L51.5016 144.255L47.5977 140.278L45.7959 136.302V131L48.1983 126.582V77.5391H100.15V126.582L102.553 131V136.302L100.451 140.278L96.847 144.255L91.4415 146.906L85.1352 149.115Z" fill="#898996"/>
<path d="M83.6336 149.115L77.3273 149.999H71.021L64.7147 149.115L59.009 147.348L54.5045 144.697L51.2012 141.604L49.3994 138.069V133.209L51.5015 128.791V77.5391H96.8469V128.791L98.6487 133.209V138.069L97.1472 141.604L93.8439 144.697L89.3394 147.348L83.6336 149.115Z" fill="#91919E"/>
<path d="M82.1325 149.557L77.0274 149.999H71.3217L65.9163 149.557L61.4118 147.789L57.2076 145.58L54.5049 142.929L53.3037 139.395V134.976L54.8052 130.558L55.1055 77.5391H93.2437V130.558L95.0455 134.976V139.395L93.544 142.929L90.8412 145.58L86.9373 147.789L82.1325 149.557Z" fill="#9999A6"/>
<path d="M80.9313 149.557L76.4267 149.999H71.9222L67.4177 149.557L63.5138 148.231L60.2105 146.464L58.1084 144.255L56.9072 141.162V136.744L58.4087 132.326V77.5391H89.9403V132.326L91.4418 136.744V141.162L90.2406 144.255L87.8382 146.464L84.8352 148.231L80.9313 149.557Z" fill="#A0A0AD"/>
<path d="M79.4292 149.557L75.8256 149.999H72.222L68.9187 149.557L65.9157 148.673L63.2129 147.348L61.7114 145.58L60.8105 142.929V138.511L61.7114 134.535V77.5391H86.6364V134.093L87.5373 138.511V142.929L86.6364 145.58L84.8346 147.348L82.4322 148.673L79.4292 149.557Z" fill="#A8A8B5"/>
<path d="M77.9276 149.557L75.5252 149.999H72.8225L70.4201 149.557L68.0177 149.115L66.2159 148.231L65.0147 146.464L64.4141 144.697V140.72L65.315 136.302V77.5391H83.0327V136.302L83.9336 140.72V144.697L83.333 146.464L81.8315 148.231L80.0297 149.115L77.9276 149.557Z" fill="#B0B0BD"/>
<path d="M76.426 149.999H74.9245H73.423H71.9215L70.42 149.557L69.2188 148.673L68.6182 147.789L68.0176 146.464V142.488L68.6182 138.069V77.5391H79.7293V138.069L80.0296 142.488V146.464L79.7293 147.789L78.8284 148.673L77.6272 149.557L76.426 149.999Z" fill="#B7B7C4"/>
<path d="M74.9249 149.999H74.3243H73.7237H73.1231H72.8228L72.2222 149.557L71.9219 149.115V148.231V144.697V140.278V77.5391H76.1261V139.837L76.4264 144.697V148.231L76.1261 149.115L75.8258 149.557L75.5255 149.999H74.9249Z" fill="#BFBFCC"/>
<path d="M89.3397 148.673L79.4298 149.999H68.9193L58.7091 148.673L49.7001 146.022L42.4929 141.604L37.0875 136.744L34.3848 131.442V125.698L37.6881 121.28L37.9884 77.5391H110.361V120.838L113.664 125.698V131.442L110.961 136.744L105.856 141.604L98.3487 146.022L89.3397 148.673Z" stroke="black" stroke-width="0.364253"/>
<path d="M126.877 14.3594V63.8439L123.273 70.9131L116.366 76.6569L106.456 81.9588L94.4442 85.4934L80.9307 87.2607H67.1168L53.6033 85.4934L41.5913 81.9588L31.9817 76.6569L24.7745 70.9131L21.1709 63.8439L21.4712 14.3594H126.877Z" fill="#72727F"/>
<path d="M122.372 14.3594V66.053L119.069 72.2386L112.762 77.5405L103.753 82.4006L92.6423 85.4934L80.3299 87.2607H67.7173L55.7053 85.4934L44.5942 82.4006L35.5852 77.5405L29.2789 72.2386L25.9756 66.053V14.3594H122.372Z" fill="#7A7A87"/>
<path d="M117.568 14.3594V68.704L114.865 74.0059L108.859 78.866L100.751 82.8424L90.8408 85.4934L80.03 87.2607H68.3183L57.2072 85.4934L47.2973 82.8424L39.1892 78.866L33.4835 74.0059L30.4805 68.704V14.3594H117.568Z" fill="#82828F"/>
<path d="M113.063 14.3594V70.9131L110.36 75.7732L105.255 79.7497L98.0479 83.2843L89.0389 85.9352L79.129 87.2607H68.9188L59.0089 85.9352L50.3002 83.2843L43.093 79.7497L37.6876 75.7732L35.2852 70.9131V14.3594H113.063Z" fill="#898996"/>
<path d="M108.259 14.3594V73.1223L106.156 77.0987L101.652 80.6333L95.3456 83.7261L87.2375 85.9352L78.5288 87.2607H69.5198L60.8111 85.9352L53.0033 83.7261L46.6969 80.6333L42.1924 77.0987L39.79 73.1223V14.3594H108.259Z" fill="#91919E"/>
<path d="M103.754 14.3594V75.3314L101.652 78.866L97.7479 81.9588L92.3425 84.6097L85.4356 85.9352L77.9281 87.2607H70.1203L62.6127 85.9352L56.0061 84.6097L50.3004 81.9588L46.3965 78.866L44.5947 75.3314V14.3594H103.754Z" fill="#9999A6"/>
<path d="M99.2488 14.3594V77.5405L97.447 80.6333L94.1437 82.8424L89.6392 85.0516L83.9335 86.3771L77.3269 87.2607H70.7203L64.4139 86.3771L58.7082 85.0516L54.2037 82.8424L50.6001 80.6333L49.0986 77.5405V14.3594H99.2488Z" fill="#A0A0AD"/>
<path d="M94.4444 14.3594V80.1915L93.2432 81.9588L90.5405 84.1679L86.6365 85.4934L82.132 86.3771L76.7266 87.2607H71.3212L66.2161 86.3771L61.7116 85.4934L57.8077 84.1679L55.105 81.9588L53.6035 80.1915V14.3594H94.4444Z" fill="#A8A8B5"/>
<path d="M89.9397 14.3594V82.4006L89.0388 83.7261L86.9367 85.0516L83.9337 85.9352L80.3301 86.8189L76.1259 87.2607H72.222L68.0178 86.8189L64.4142 85.9352L61.4112 85.0516L59.3091 83.7261L58.4082 82.4006V14.3594H89.9397Z" fill="#B0B0BD"/>
<path d="M85.4356 14.3594V84.6097L84.5347 85.4934L83.0332 85.9352L80.9311 86.3771L78.5287 86.8189L75.5257 87.2607H72.5227L69.82 86.8189L67.1173 86.3771L65.0152 85.9352L63.5137 85.4934L62.9131 84.6097V14.3594H85.4356Z" fill="#B7B7C4"/>
<path d="M80.6302 14.3594V87.2607H80.3299H79.429H78.2278H76.7263H74.9245H73.1227H71.6212H70.1197H68.9185H68.0176H67.417V14.3594H80.6302Z" fill="#BFBFCC"/>
<path d="M126.877 14.3594V63.8439L123.273 70.9131L116.366 76.6569L106.456 81.9588L94.4442 85.4934L80.9307 87.2607H67.1168L53.6033 85.4934L41.5913 81.9588L31.9817 76.6569L24.7745 70.9131L21.1709 63.8439L21.4712 14.3594H126.877Z" stroke="black" stroke-width="0.364253"/>
<path d="M74.0238 28.7187C103.214 28.7187 126.877 22.2898 126.877 14.3594C126.877 6.4289 103.214 0 74.0238 0C44.8339 0 21.1709 6.4289 21.1709 14.3594C21.1709 22.2898 44.8339 28.7187 74.0238 28.7187Z" fill="#BFBFCC"/>
<path d="M94.4445 28.0563L80.931 28.94H67.1172L53.6037 28.0563L47.5977 26.7308L53.6037 24.9635L67.1172 24.3008H80.931L94.4445 24.9635L100.451 26.7308L94.4445 28.0563Z" fill="#A5A5B2"/>
<path d="M74.0238 28.7187C103.214 28.7187 126.877 22.2898 126.877 14.3594C126.877 6.4289 103.214 0 74.0238 0C44.8339 0 21.1709 6.4289 21.1709 14.3594C21.1709 22.2898 44.8339 28.7187 74.0238 28.7187Z" stroke="black" stroke-width="0.364253"/>
<path d="M126.877 38.6602L123.273 41.7529L116.366 45.2875L106.456 47.9385L94.4442 49.7058L80.9307 50.5895H67.1168L53.9036 49.7058L41.5913 47.9385L31.9817 45.2875L24.7745 41.7529L21.1709 38.6602L21.4712 43.0784L24.7745 46.613L31.9817 50.1476L41.5913 52.7986L53.9036 54.5659L67.1168 55.4496H80.9307L94.4442 54.5659L106.456 52.7986L116.366 50.1476L123.273 46.613L126.877 43.0784V38.6602Z" fill="#72727F"/>
<path d="M17.8683 40.8672V50.5874H1.50195V40.8672H17.8683Z" fill="#72727F"/>
<path d="M17.267 40.8672V50.5874H2.25195V40.8672H17.267Z" fill="#7F7F8C"/>
<path d="M16.6666 40.8672V50.5874H3.00293V40.8672H16.6666Z" fill="#8C8C99"/>
<path d="M15.7659 40.8672V50.5874H3.75391V40.8672H15.7659Z" fill="#9999A6"/>
<path d="M15.1653 40.8672V50.5874H4.35449V40.8672H15.1653Z" fill="#A5A5B2"/>
<path d="M14.2639 40.8672V50.5874H5.25488V40.8672H14.2639Z" fill="#B2B2BF"/>
<path d="M13.8134 40.8672V50.5874H5.85547V40.8672H13.8134Z" fill="#BFBFCC"/>
<path d="M12.7631 40.8672V50.5874H6.90723V40.8672H12.7631Z" fill="#CCCCD9"/>
<path d="M12.1622 40.8672V50.5874H7.35742V40.8672H12.1622Z" fill="#D8D8E5"/>
<path d="M11.7115 40.8672V50.5874H8.4082V40.8672H11.7115Z" fill="#E5E5F2"/>
<path d="M10.6604 40.8672V50.5874H9.00879V40.8672H10.6604Z" fill="#F2F2FF"/>
<path d="M17.8683 40.8672V50.5874H1.50195V40.8672H17.8683Z" stroke="black" stroke-width="0.364253"/>
<path d="M47.5976 45.7287L3.15315 43.5196L0 40.8686V31.1484L47.5976 36.0085V45.7287Z" fill="#A5A5B2" stroke="black" stroke-width="0.364253"/>
<path d="M47.5976 36.0092L3.15315 33.8001L0 31.1492L1.5015 28.94L24.4745 26.2891L32.8829 31.1492L47.5976 36.0092Z" fill="#BFBFCC" stroke="black" stroke-width="0.364253"/>
<path d="M148.198 58.1016V67.8217H131.682V58.1016H148.198Z" fill="#72727F"/>
<path d="M147.598 58.1016V67.8217H132.583V58.1016H147.598Z" fill="#7F7F8C"/>
<path d="M146.847 58.1016V67.8217H133.184V58.1016H146.847Z" fill="#8C8C99"/>
<path d="M146.096 58.1016V67.8217H134.084V58.1016H146.096Z" fill="#9999A6"/>
<path d="M145.495 58.1016V67.8217H134.685V58.1016H145.495Z" fill="#A5A5B2"/>
<path d="M144.595 58.1016V67.8217H135.586V58.1016H144.595Z" fill="#B2B2BF"/>
<path d="M143.994 58.1016V67.8217H136.036V58.1016H143.994Z" fill="#BFBFCC"/>
<path d="M142.943 58.1016V67.8217H137.087V58.1016H142.943Z" fill="#CCCCD9"/>
<path d="M142.492 58.1016V67.8217H137.688V58.1016H142.492Z" fill="#D8D8E5"/>
<path d="M141.441 58.1016V67.8217H138.138V58.1016H141.441Z" fill="#E5E5F2"/>
<path d="M140.841 58.1016V67.8217H139.189V58.1016H140.841Z" fill="#F2F2FF"/>
<path d="M148.198 58.1016V67.8217H131.682V58.1016H148.198Z" stroke="black" stroke-width="0.364253"/>
<path d="M123.573 58.0991H148.198L149.85 55.4481V48.3789L123.573 50.588V58.0991Z" fill="#A5A5B2" stroke="black" stroke-width="0.364253"/>
<path d="M123.573 50.5895H148.348L149.85 48.3803L146.696 45.7294L126.877 38.6602V43.5202L123.573 50.5895Z" fill="#BFBFCC" stroke="black" stroke-width="0.364253"/>
<path d="M57.5078 38.6602H62.6129V45.7294H57.5078V38.6602Z" fill="#D8D8E5"/>
<path d="M46.0957 65.168H50.9005V72.679H46.0957V65.168Z" fill="#D8D8E5"/>
<path d="M50.9014 108.91L60.8113 111.561H70.7212V133.211H60.8113L50.9014 131.001V108.91Z" fill="#D8D8E5"/>
<path d="M69.2196 131.002V123.491H62.613V118.631L59.3097 116.422L56.0064 118.631V123.491L52.7031 121.282V128.351L60.8112 131.002H69.2196Z" fill="#B2B2BF"/>
</g>
<defs>
<clipPath id="clip0_2109_182820">
<rect width="150" height="150" fill="white"/>
</clipPath>
</defs>
</svg>
