<svg width="150" height="150" viewBox="0 0 150 150" fill="none" xmlns="http://www.w3.org/2000/svg">
<g clip-path="url(#clip0_2109_183548)">
<path d="M138.438 73.5925H150V68.582H138.438V73.5925Z" fill="#333333"/>
<path d="M0 79.2279H40.3904V74.8438H0V79.2279Z" fill="#333333"/>
<path d="M43.0928 74.8425H135.585V71.7109H43.0928V74.8425Z" fill="#4C4C4C"/>
<path d="M43.0928 27.8698L51.2009 22.8594V145.615H43.0928V27.8698Z" fill="#4C4C4C"/>
<path d="M127.478 22.8594L135.586 27.8698V145.615H127.478V22.8594Z" fill="#4C4C4C"/>
<path d="M17.2676 23.8008H19.9703V53.5503H17.2676V23.8008Z" fill="#7F7F7F"/>
<path d="M17.2676 25.3672H19.9703V52.2983H17.2676V25.3672Z" fill="#999999"/>
<path d="M17.2676 28.4961H19.9703V48.5378H17.2676V28.4961Z" fill="#B2B2B2"/>
<path d="M17.2676 31.9414H19.9703V45.407H17.2676V31.9414Z" fill="#CCCCCC"/>
<path d="M17.2676 34.1328H19.9703V42.9011H17.2676V34.1328Z" fill="#E5E5E5"/>
<path d="M17.2676 36.6406H19.9703V40.3985H17.2676V36.6406Z" fill="white"/>
<path d="M17.2676 23.8008H19.9703V53.5503H17.2676V23.8008Z" stroke="black" stroke-width="0.433681"/>
<path d="M27.1769 32.8828H19.9697V44.7826H27.1769V32.8828Z" fill="#7F7F7F"/>
<path d="M27.1769 33.5078H19.9697V44.155H27.1769V33.5078Z" fill="#999999"/>
<path d="M27.1769 34.7617H19.9697V42.9037H27.1769V34.7617Z" fill="#B2B2B2"/>
<path d="M27.1769 36.0117H19.9697V41.6485H27.1769V36.0117Z" fill="#CCCCCC"/>
<path d="M27.1769 37.2656H19.9697V40.3971H27.1769V37.2656Z" fill="#E5E5E5"/>
<path d="M27.1769 37.8906H19.9697V39.7695H27.1769V37.8906Z" fill="white"/>
<path d="M27.1769 32.8828H19.9697V44.7826H27.1769V32.8828Z" stroke="black" stroke-width="0.433681"/>
<path d="M43.0928 0H135.585V71.7119H43.0928V0Z" fill="#CCCCCC"/>
<path d="M43.0928 51.0424L135.585 21.293V71.7105H43.0928V51.0424Z" fill="#C7C7C7"/>
<path d="M43.0928 54.1766L135.585 23.8008V71.7131H43.0928V54.1766Z" fill="#C2C2C2"/>
<path d="M43.0928 58.5587L135.585 28.4961V71.7111H43.0928V58.5587Z" fill="#BDBDBD"/>
<path d="M9.15918 66.0769H16.3664V53.5508H9.15918V66.0769Z" fill="#333333"/>
<path d="M53.3037 5.94922H62.0124V14.7175H53.3037V5.94922Z" fill="#E5E5E5"/>
<path d="M135.586 71.7112H150V47.9116L135.586 11.5859V71.7112Z" fill="#999999" stroke="black" stroke-width="0.433681"/>
<path d="M14.2644 59.8125L5.55566 66.0755V77.9753H43.0932V59.8125H14.2644Z" fill="#B2B2B2" stroke="black" stroke-width="0.433681"/>
<path d="M8.70898 23.8008H17.2675V53.5503H8.70898V23.8008Z" fill="#B2B2B2" stroke="black" stroke-width="0.433681"/>
<path d="M0 11.5859H5.55556V77.9742H0V11.5859Z" fill="#7F7F7F"/>
<path d="M43.0935 5.94922L14.2646 53.5484V59.8114H43.0935V5.94922Z" fill="#999999" stroke="black" stroke-width="0.433681"/>
<path d="M49.0996 29.75H129.88" stroke="#999999" stroke-width="0.433681"/>
<path d="M49.0996 28.4961H129.88" stroke="#E5E5E5" stroke-width="0.433681"/>
<path d="M34.3848 29.75H37.3878V36.013H34.3848V29.75Z" fill="#E5E5E5" stroke="black" stroke-width="0.433681"/>
<path d="M22.9727 47.9141H31.6814V53.5508H22.9727V47.9141Z" fill="#CCCCCC"/>
<path d="M43.0928 0H135.585V4.38413H43.0928V0Z" fill="#B2B2B2"/>
<path d="M43.0928 0H135.585V71.7119H43.0928V0Z" stroke="black" stroke-width="0.433681"/>
<path d="M40.3906 23.8008L48.799 18.1641V150.001H40.3906V23.8008Z" fill="#B2B2B2"/>
<path d="M40.3906 126.199H49.0993V138.099H40.3906V126.199Z" fill="#A6A6A6"/>
<path d="M40.3906 23.8008L48.799 18.1641V150.001H40.3906V23.8008Z" stroke="black" stroke-width="0.433681"/>
<path d="M138.438 59.8125H147.748L138.438 64.1966V59.8125Z" fill="#7F7F7F"/>
<path d="M129.88 18.1641L138.438 23.8008V150.001H129.88V18.1641Z" fill="#B2B2B2"/>
<path d="M129.88 126.199H138.438V138.099H129.88V126.199Z" fill="#A6A6A6"/>
<path d="M129.88 18.1641L138.438 23.8008V150.001H129.88V18.1641Z" stroke="black" stroke-width="0.433681"/>
<path d="M80.0303 59.8125H89.9402V68.5808H80.0303V59.8125Z" fill="#B2B2B2"/>
<path d="M89.9395 59.8125H98.9485V68.5808H89.9395V59.8125Z" fill="#999999"/>
<path d="M0 14.7188H5.55556V74.844H0V14.7188Z" fill="#999999"/>
<path d="M0 19.1016H5.55556V70.4586H0V19.1016Z" fill="#B2B2B2"/>
<path d="M0 11.5859H5.55556V77.9742H0V11.5859Z" stroke="black" stroke-width="0.433681"/>
</g>
<defs>
<clipPath id="clip0_2109_183548">
<rect width="150" height="150" fill="white"/>
</clipPath>
</defs>
</svg>
