<svg width="150" height="150" viewBox="0 0 150 150" fill="none" xmlns="http://www.w3.org/2000/svg">
<g clip-path="url(#clip0_2109_185216)">
<path d="M0 100.177V37.1719H5.25526V49.0348H144.595V37.1719H150V100.177H144.595V88.0506H5.25526V100.177H0Z" fill="#7F7F7F"/>
<path d="M0 95.429V41.9141H5.25526V51.668H144.595V41.9141H150V95.429H144.595V85.4114H5.25526V95.429H0Z" fill="#949494"/>
<path d="M0 90.6848V46.6602H5.25526V54.8324H144.595V46.6602H150V90.6848H144.595V82.2489H5.25526V90.6848H0Z" fill="#ABABAB"/>
<path d="M0 86.4657V50.6133H5.25526V57.731H144.595V50.6133H150V86.4657H144.595V79.6115H5.25526V86.4657H0Z" fill="#BFBFBF"/>
<path d="M0 81.7214V55.3594H5.25526V60.1045H144.595V55.3594H150V81.7214H144.595V76.449H5.25526V81.7214H0Z" fill="#D4D4D4"/>
<path d="M0 76.9772V60.1055H5.25526V63.2689H144.595V60.1055H150V76.9772H144.595V73.8137H5.25526V76.9772H0Z" fill="#EBEBEB"/>
<path d="M0 72.2329V64.8516H5.25526V65.906H144.595V64.8516H150V72.2329H144.595V71.1785H5.25526V72.2329H0Z" fill="white"/>
<path d="M0 100.177V37.1719H5.25526V49.0348H144.595V37.1719H150V100.177H144.595V88.0506H5.25526V100.177H0Z" stroke="black" stroke-width="0.397908"/>
<path d="M93.9941 149.473L81.5317 150H68.3184L55.5557 149.473L44.1443 147.891L34.835 145.255L28.2283 142.619L25.0752 139.455V10.2812H124.775V139.455L121.622 142.619L115.015 145.255L105.406 147.891L93.9941 149.473Z" fill="#7F7F7F"/>
<path d="M92.4923 148.946L80.9307 150H68.9187L57.3571 148.946L46.8466 147.364L38.4382 145.255L32.5824 142.091L29.1289 138.928V10.2812H120.72V138.928L117.267 142.091L111.411 145.255L103.003 147.364L92.4923 148.946Z" fill="#8C8C8C"/>
<path d="M90.6904 148.946L80.33 150H69.5192L59.1588 148.946L49.5492 147.364L41.7414 145.255L36.336 142.091L33.333 138.928L33.6333 10.2812H116.216V138.928L113.513 142.091L108.108 145.255L100.3 147.364L90.6904 148.946Z" fill="#969696"/>
<path d="M89.1892 148.946L79.7298 150H70.1202L60.6607 148.946L52.2523 147.364L45.3454 145.255L40.2403 142.091L37.8379 138.928V10.2812H112.012V138.928L109.61 142.091L104.505 145.255L97.5976 147.364L89.1892 148.946Z" fill="#A3A3A3"/>
<path d="M87.5375 148.946L79.1291 150H70.7207L62.3123 148.946L54.9549 147.364L48.6486 145.255L44.4444 142.091L42.042 138.928V10.2812H107.808V138.928L105.405 142.091L101.201 145.255L94.8948 147.364L87.5375 148.946Z" fill="#ADADAD"/>
<path d="M86.0364 148.946L78.5289 150H71.3216L63.8141 148.946L57.658 147.364L52.2526 145.255L48.3487 142.091L46.5469 138.928V10.2812H103.304V138.928L101.502 142.091L97.5979 145.255L92.1925 147.364L86.0364 148.946Z" fill="#BABABA"/>
<path d="M84.2345 148.946L78.2285 150H71.6218L65.6158 148.946L60.0603 147.364L55.5558 145.255L52.2525 142.091L50.751 138.928V10.2812H99.0993V138.928L97.2975 142.091L94.2945 145.255L89.79 147.364L84.2345 148.946Z" fill="#C4C4C4"/>
<path d="M82.7329 148.946L77.6278 150H72.2223L67.1172 148.946L62.6127 147.364L59.1593 145.255L56.4566 142.091L54.9551 138.928V10.2812H94.895V138.928L93.3935 142.091L90.6908 145.255L87.2374 147.364L82.7329 148.946Z" fill="#D1D1D1"/>
<path d="M80.9305 148.946L77.0266 150H72.8223L68.9184 148.946L65.3148 147.364L62.3118 145.255L60.3599 142.091L59.459 138.928V10.2812H90.3899V138.928L89.489 142.091L87.5371 145.255L84.5341 147.364L80.9305 148.946Z" fill="#DBDBDB"/>
<path d="M79.4296 148.946L76.4266 150H73.4236L70.4206 148.946L68.0182 147.364L65.9161 145.255L64.4146 142.091L63.5137 138.928V10.2812H86.3365V138.928L85.4356 142.091L83.9341 145.255L81.832 147.364L79.4296 148.946Z" fill="#E8E8E8"/>
<path d="M77.6272 148.946L75.8254 150H74.0236L72.2218 148.946L70.7203 147.364L69.2188 145.255L68.3179 142.091L68.0176 138.928V10.2812H81.8314V138.928L81.5311 142.091L80.6302 145.255L79.1287 147.364L77.6272 148.946Z" fill="#F2F2F2"/>
<path d="M75.8263 149.473L75.2257 150H74.6251L73.7242 149.473L73.1236 147.891L72.8233 145.255L72.2227 142.619V139.455V10.2812H77.6281V139.455L77.3278 142.619L77.0275 145.255L76.4269 147.891L75.8263 149.473Z" fill="white"/>
<path d="M93.9941 149.473L81.5317 150H68.3184L55.5557 149.473L44.1443 147.891L34.835 145.255L28.2283 142.619L25.0752 139.455V10.2812H124.775V139.455L121.622 142.619L115.015 145.255L105.406 147.891L93.9941 149.473Z" stroke="black" stroke-width="0.397908"/>
<path d="M74.925 24.2531C102.456 24.2531 124.775 18.8238 124.775 12.1265C124.775 5.42924 102.456 0 74.925 0C47.3937 0 25.0752 5.42924 25.0752 12.1265C25.0752 18.8238 47.3937 24.2531 74.925 24.2531Z" fill="#CCCCCC"/>
<path d="M74.925 24.5153C102.456 24.5153 124.775 19.6762 124.775 13.7069C124.775 7.73754 102.456 2.89844 74.925 2.89844C47.3937 2.89844 25.0752 7.73754 25.0752 13.7069C25.0752 19.6762 47.3937 24.5153 74.925 24.5153Z" fill="#999999"/>
<path d="M74.925 24.2531C102.456 24.2531 124.775 18.8238 124.775 12.1265C124.775 5.42924 102.456 0 74.925 0C47.3937 0 25.0752 5.42924 25.0752 12.1265C25.0752 18.8238 47.3937 24.2531 74.925 24.2531Z" stroke="black" stroke-width="0.397908"/>
<path d="M5.25488 88.051V49.0352" stroke="black" stroke-width="0.397908"/>
<path d="M144.595 88.051V49.0352" stroke="black" stroke-width="0.397908"/>
</g>
<defs>
<clipPath id="clip0_2109_185216">
<rect width="150" height="150" fill="white"/>
</clipPath>
</defs>
</svg>
