<svg width="150" height="150" viewBox="0 0 150 150" fill="none" xmlns="http://www.w3.org/2000/svg">
<g clip-path="url(#clip0_2109_184435)">
<path d="M0 7.80769H93.8V4.80469H7.2L0 7.80769Z" fill="#99CCCC" stroke="black" stroke-width="0.346584"/>
<path d="M0 7.80859H83.4V146.848H0V7.80859Z" fill="#99CCCC"/>
<path d="M0 93.5451L83.4 37.5391V132.434H0V93.5451Z" fill="#94C7C7"/>
<path d="M0 107.356L83.4 51.5V146.845H0V107.356Z" fill="#8ABDBD"/>
<path d="M150 146.848V7.80859H83.4004V146.848L83.6004 147.298L89.0004 148.649L95.4004 149.25L103.6 149.701L110 149.851L113.2 150.001H120L126.6 149.851L132.6 149.55L140.2 149.1L146 148.349L149.8 147.298L150 146.848Z" fill="#669999"/>
<path d="M146 146.848V7.80859H87V146.848V147.148L93.8 148.8L100 149.4L107.8 149.851L113.6 150.001H119.8L128.2 149.701L135.4 149.1L141 148.499L145.8 147.148L146 146.848Z" fill="#6B9E9E"/>
<path d="M142.4 146.848V7.80859H91V146.848V147.148L96.8 148.8L104.2 149.55L111.4 149.851L114 150.001L121.8 149.851L128.8 149.55L134.8 148.95L140.4 148.049L142.2 147.148L142.4 146.848Z" fill="#73A6A6"/>
<path d="M138.6 146.848V7.80859H94.5996V146.848L94.7996 147.148L99.7996 148.8L106.2 149.55L112.2 149.851L114.4 150.001L121 149.851L127.2 149.55L133.6 148.8L138.6 147.148V146.848Z" fill="#78ABAB"/>
<path d="M134.8 146.848V7.80859H98.2002V146.848L103.6 148.95L109.6 149.701L114.8 150.001L122 149.851L128.2 149.1L133.4 148.049L134.6 147.148L134.8 146.848Z" fill="#7FB2B2"/>
<path d="M131 146.848V7.80859H102.2V146.848V147.148L107.4 149.1L113.8 149.851L115.2 150.001L122.2 149.701L127.8 148.8L131 147.148V146.848Z" fill="#85B8B8"/>
<path d="M127 146.848V7.80859H105.8V146.848L106 147.448L111.4 149.55L115.6 150.001L121.8 149.55L126.6 147.749L127 146.848Z" fill="#8CBFBF"/>
<path d="M123.4 146.848V7.80859H109.8V146.848L110 147.448L110.4 148.049L111 148.499L111.8 148.95L112.8 149.4L114 149.701L115.2 149.851L116.6 150.001L118 149.851L119.2 149.701L120.4 149.4L121.4 148.95L122.2 148.499L123 148.049L123.4 147.448V146.848Z" fill="#91C4C4"/>
<path d="M119.8 146.848V7.80859H113.4V146.848V147.598L113.6 148.199L114 148.649L114.2 149.1L114.8 149.4L115.4 149.701L116 149.851L116.6 150.001L117.2 149.851L117.8 149.701L118.4 149.4L118.8 149.1L119.2 148.649L119.6 148.199L119.8 147.598V146.848Z" fill="#99CCCC"/>
<path d="M0 7.80859H150V12.6134H0V7.80859Z" stroke="#336666" stroke-width="0.346584"/>
<path d="M0 123.422H150" stroke="#99CCCC" stroke-width="0.346584"/>
<path d="M0 125.824H150" stroke="#669999" stroke-width="0.346584"/>
<path d="M0 98.3477H150" stroke="#99CCCC" stroke-width="0.346584"/>
<path d="M0 100.75H150" stroke="#669999" stroke-width="0.346584"/>
<path d="M0 71.6211H150" stroke="#99CCCC" stroke-width="0.346584"/>
<path d="M0 74.0234H150" stroke="#669999" stroke-width="0.346584"/>
<path d="M0 46.8477H150" stroke="#99CCCC" stroke-width="0.346584"/>
<path d="M0 49.25H150" stroke="#669999" stroke-width="0.346584"/>
<path d="M0 7.80859H83.4V146.848H0V7.80859Z" stroke="black" stroke-width="0.346584"/>
<path d="M7.2002 50.75H76.2002V60.2095H7.2002V50.75Z" fill="#E5F2F2"/>
<path d="M25.3996 31.2312C29.7074 31.2312 33.1996 28.6095 33.1996 25.3754C33.1996 22.1413 29.7074 19.5195 25.3996 19.5195C21.0918 19.5195 17.5996 22.1413 17.5996 25.3754C17.5996 28.6095 21.0918 31.2312 25.3996 31.2312Z" fill="#336666"/>
<path d="M25.3998 28.8288C27.9403 28.8288 29.9998 27.2826 29.9998 25.3753C29.9998 23.468 27.9403 21.9219 25.3998 21.9219C22.8593 21.9219 20.7998 23.468 20.7998 25.3753C20.7998 27.2826 22.8593 28.8288 25.3998 28.8288Z" fill="#E5E5E5"/>
<path d="M45.5996 28.8273V23.4219H58.3996" stroke="white" stroke-width="0.346584"/>
<path d="M45.5996 28.8273H58.3996V23.4219" stroke="#669999" stroke-width="0.346584"/>
<path d="M125.8 28.8281H150V33.6329H125.8V28.8281Z" fill="#E5F2F2"/>
<path d="M125.8 36.6382H150V35.1367H125.8V36.6382Z" fill="#E5F2F2"/>
<path d="M125.8 27.3257H150V25.8242H125.8V27.3257Z" fill="#E5F2F2"/>
<path d="M150 146.848V7.80859H83.4004V146.848L83.6004 147.298L89.0004 148.649L95.4004 149.25L103.6 149.7L110 149.851L113.2 150.001H120L126.6 149.851L132.6 149.55L140.2 149.1L146 148.349L149.8 147.298L150 146.848Z" stroke="black" stroke-width="0.346584"/>
<path d="M83.4004 7.80781V6.30631L86.6004 3.9039L92.6004 2.1021L101.4 0.750751L111.4 0H121.8L132 0.750751L140.4 2.1021L146.8 3.9039L150 6.30631V7.80781H83.4004Z" fill="#669999"/>
<path d="M87 7.80781V6.30631L90.2 3.9039L95.4 2.1021L103 0.600601L111.8 0H121.4L130.2 0.600601L138 2.1021L143.2 3.9039L146 6.30631V7.80781H87Z" fill="#6B9E9E"/>
<path d="M91 7.80781V6.30631L93.4 3.9039L98.2 2.1021L104.6 0.600601L112.6 0H120.6L128.4 0.600601L135.2 2.1021L140 3.9039L142.4 6.30631V7.80781H91Z" fill="#73A6A6"/>
<path d="M94.5996 7.80781V6.30631L96.5996 3.9039L101 2.1021L106.6 0.600601L113 0H120.2L126.6 0.600601L132.2 2.1021L136.4 3.9039L138.6 6.30631V7.80781H94.5996Z" fill="#78ABAB"/>
<path d="M98.2002 7.80781V6.30631L100.2 3.9039L103.4 2.1021L108.2 0.600601L113.8 0H119.4L125 0.600601L129.6 2.1021L133.2 3.9039L134.8 6.30631V7.80781H98.2002Z" fill="#7FB2B2"/>
<path d="M102.2 7.80781V6.30631L103.8 3.9039L106.2 2.1021L109.8 0.600601L114.2 0H119L123.4 0.600601L127 2.1021L129.6 3.9039L131 6.30631V7.80781H102.2Z" fill="#85B8B8"/>
<path d="M105.8 7.80781V6.30631L107 3.9039L109 2.1021L111.8 0.600601L115 0H118.2L121.4 0.600601L124.2 2.1021L126.4 3.9039L127 6.30631V7.80781H105.8Z" fill="#8CBFBF"/>
<path d="M109.8 7.80781V6.30631L110.2 3.9039L111.4 2.1021L113.4 0.600601L115.4 0H117.8L119.8 0.600601L121.4 2.1021L122.6 3.9039L123.4 6.30631V7.80781H109.8Z" fill="#91C4C4"/>
<path d="M113.4 7.80781V6.30631L113.8 3.9039L114.2 2.1021L115 0.750751L116.2 0H117L117.8 0.750751L118.6 2.1021L119.4 3.9039L119.8 6.30631V7.80781H113.4Z" fill="#99CCCC"/>
<path d="M83.4004 7.80781V6.30631L86.6004 3.9039L92.6004 2.1021L101.4 0.750751L111.4 0H121.8L132 0.750751L140.4 2.1021L146.8 3.9039L150 6.30631V7.80781H83.4004Z" stroke="black" stroke-width="0.346584"/>
<path d="M112.2 4.80469H116.6V18.6185H112.2V4.80469Z" fill="#336666" stroke="black" stroke-width="0.346584"/>
</g>
<defs>
<clipPath id="clip0_2109_184435">
<rect width="150" height="150" fill="white"/>
</clipPath>
</defs>
</svg>
