<svg width="150" height="150" viewBox="0 0 150 150" fill="none" xmlns="http://www.w3.org/2000/svg">
<g clip-path="url(#clip0_2109_167851)">
<path d="M124.925 25.1497L150 0V124.551L124.925 150V25.1497Z" fill="#919999" stroke="black" stroke-width="0.424053"/>
<path d="M144.295 24.252L140.541 28.1442V84.1322L144.295 80.5394V24.252Z" fill="#4C4C4C"/>
<path d="M139.34 29.3418L135.586 33.234V89.222L139.34 85.3298V29.3418Z" fill="#4C4C4C"/>
<path d="M134.385 34.4316L130.631 38.3239V94.3119L134.385 90.4197V34.4316Z" fill="#4C4C4C"/>
<path d="M140.541 28.1436L144.145 24.5508V77.5448L140.541 81.1376V28.1436Z" fill="#98B2B2"/>
<path d="M135.586 33.2334L139.039 29.6406V82.6346L135.586 86.2275V33.2334Z" fill="#98B2B2"/>
<path d="M130.631 38.3233L134.084 34.7305V87.7245L130.631 91.3173V38.3233Z" fill="#98B2B2"/>
<path d="M140.541 27.8442V38.922L144.145 25.7484V24.5508L140.541 27.8442Z" fill="#80A6A6"/>
<path d="M135.586 32.934V44.0119L139.039 30.8382V29.6406L135.586 32.934Z" fill="#80A6A6"/>
<path d="M130.631 38.0239V49.1017L134.084 35.9281V34.7305L130.631 38.0239Z" fill="#80A6A6"/>
<path d="M0 25.4492H125.075V150H0V25.4492Z" fill="#C4CCCC" stroke="black" stroke-width="0.424053"/>
<path d="M0 25.4485L24.7748 0.298828H150L125.075 25.4485H0Z" fill="#EAF2F2" stroke="black" stroke-width="0.424053"/>
<path d="M96.8469 44.0117H78.0781V99.9997H96.8469V44.0117Z" fill="#7F7F7F"/>
<path d="M71.7717 44.0117H53.0029V99.9997H71.7717V44.0117Z" fill="#7F7F7F"/>
<path d="M46.8469 44.0117H28.0781V99.9997H46.8469V44.0117Z" fill="#7F7F7F"/>
<path d="M79.2793 44.0117H96.8469V97.0057H79.2793V44.0117Z" fill="#CBE5E5"/>
<path d="M54.2041 44.0117H71.7717V97.0057H54.2041V44.0117Z" fill="#CBE5E5"/>
<path d="M29.2793 44.0117H46.8469V97.0057H29.2793V44.0117Z" fill="#CBE5E5"/>
<path d="M79.2793 44.0117V54.7902L96.8469 45.2093V44.0117H79.2793Z" fill="#B3D9D9"/>
<path d="M54.2041 44.0117V54.7902L71.7717 45.2093V44.0117H54.2041Z" fill="#B3D9D9"/>
<path d="M29.2793 44.0117V54.7902L46.8469 45.2093V44.0117H29.2793Z" fill="#B3D9D9"/>
<path d="M134.985 14.9707L139.94 9.88086V134.731L134.985 139.821V14.9707Z" stroke="black" stroke-width="0.424053"/>
<path d="M50 25.4492H74.9249V150H50V25.4492Z" stroke="black" stroke-width="0.424053"/>
<path d="M0 28.4434H125.075" stroke="black" stroke-width="0.424053"/>
<path d="M125.075 28.4427L150 3.29297" stroke="black" stroke-width="0.424053"/>
<path d="M96.8469 44.0117H78.0781V99.9997H96.8469V44.0117Z" stroke="black" stroke-width="0.424053"/>
<path d="M71.7717 44.0117H53.0029V99.9997H71.7717V44.0117Z" stroke="black" stroke-width="0.424053"/>
<path d="M46.8469 44.0117H28.0781V99.9997H46.8469V44.0117Z" stroke="black" stroke-width="0.424053"/>
<path d="M144.295 24.252L140.541 28.1442V84.1322L144.295 80.5394V24.252Z" stroke="black" stroke-width="0.424053"/>
<path d="M139.34 29.3418L135.586 33.234V89.222L139.34 85.3298V29.3418Z" stroke="black" stroke-width="0.424053"/>
<path d="M134.385 34.4316L130.631 38.3239V94.3119L134.385 90.4197V34.4316Z" stroke="black" stroke-width="0.424053"/>
</g>
<defs>
<clipPath id="clip0_2109_167851">
<rect width="150" height="150" fill="white"/>
</clipPath>
</defs>
</svg>
