<svg width="150" height="150" viewBox="0 0 150 150" fill="none" xmlns="http://www.w3.org/2000/svg">
<g clip-path="url(#clip0_2109_167072)">
<path d="M0.600586 149.128V77.1836H124.474V149.128H0.600586Z" fill="#CCB299" stroke="black" stroke-width="0.323849"/>
<path d="M149.249 134.807V62.8633L124.475 77.1823V149.126L149.249 134.807Z" fill="#997F66" stroke="black" stroke-width="0.323849"/>
<path d="M0.600586 77.1823L16.2162 68.2766H84.2342L93.5435 62.8633H149.249L124.474 77.1823H0.600586Z" fill="#FFE5CC" stroke="black" stroke-width="0.323849"/>
<path d="M0.600586 133.062V118.568H124.474V133.062H0.600586Z" fill="#B89E85" stroke="black" stroke-width="0.323849"/>
<path d="M0.600586 104.249V89.7559H124.474V104.249H0.600586Z" fill="#B89E85" stroke="black" stroke-width="0.323849"/>
<path d="M93.5439 104.249V89.7559H115.166V104.249H93.5439Z" fill="#997F66" stroke="black" stroke-width="0.323849"/>
<path d="M65.6152 104.249V89.7559H87.387V104.249H65.6152Z" fill="#997F66" stroke="black" stroke-width="0.323849"/>
<path d="M37.8379 104.249V89.7559H59.4595V104.249H37.8379Z" fill="#997F66" stroke="black" stroke-width="0.323849"/>
<path d="M9.91016 104.249V89.7559H31.6819V104.249H9.91016Z" fill="#997F66" stroke="black" stroke-width="0.323849"/>
<path d="M9.91016 133.062V118.568H31.6819V133.062H9.91016Z" fill="#997F66" stroke="black" stroke-width="0.323849"/>
<path d="M37.8379 133.062V118.568H59.4595V133.062H37.8379Z" fill="#997F66" stroke="black" stroke-width="0.323849"/>
<path d="M65.6152 133.062V118.568H87.387V133.062H65.6152Z" fill="#997F66" stroke="black" stroke-width="0.323849"/>
<path d="M93.5439 133.062V118.568H115.166V133.062H93.5439Z" fill="#997F66" stroke="black" stroke-width="0.323849"/>
<path d="M149.249 89.0561V74.5625L124.475 89.7546V104.248L149.249 89.0561Z" fill="#856B52" stroke="black" stroke-width="0.323849"/>
<path d="M149.249 117.696V103.377L124.475 118.569V133.063L149.249 117.696Z" fill="#856B52" stroke="black" stroke-width="0.323849"/>
<path d="M130.631 129.219V114.9L126.276 117.52V131.839L130.631 129.219Z" fill="#664C33" stroke="black" stroke-width="0.323849"/>
<path d="M136.186 125.727V111.408L131.832 114.028V128.521L136.186 125.727Z" fill="#664C33" stroke="black" stroke-width="0.323849"/>
<path d="M141.742 122.41V107.916L137.388 110.71V125.029L141.742 122.41Z" fill="#664C33" stroke="black" stroke-width="0.323849"/>
<path d="M147.298 118.917V104.598L142.943 107.217V121.536L147.298 118.917Z" fill="#664C33" stroke="black" stroke-width="0.323849"/>
<path d="M147.298 90.1041V75.7852L142.943 78.4045V92.8981L147.298 90.1041Z" fill="#664C33" stroke="black" stroke-width="0.323849"/>
<path d="M141.742 93.5963V79.2773L137.388 81.8967V96.2156L141.742 93.5963Z" fill="#664C33" stroke="black" stroke-width="0.323849"/>
<path d="M136.186 96.9147V82.5957L131.832 85.215V99.7086L136.186 96.9147Z" fill="#664C33" stroke="black" stroke-width="0.323849"/>
<path d="M130.631 100.407V86.0879L126.276 88.7072V103.026L130.631 100.407Z" fill="#664C33" stroke="black" stroke-width="0.323849"/>
<path d="M34.6845 1.57233L36.3361 0.699219H30.0298L28.5283 1.57233H34.6845Z" fill="#664C33" stroke="black" stroke-width="0.323849"/>
<path d="M63.3632 1.57233L64.8647 0.699219H58.7085L57.207 1.57233H63.3632Z" fill="#664C33" stroke="black" stroke-width="0.323849"/>
<path d="M56.3066 73.691L57.2075 1.57227H63.3637L64.1144 73.691H56.3066Z" fill="#CCB299" stroke="black" stroke-width="0.323849"/>
<path d="M27.7773 73.691L28.5281 1.57227H34.6843L35.435 73.691H27.7773Z" fill="#CCB299" stroke="black" stroke-width="0.323849"/>
<path d="M64.114 73.6911L63.3633 1.57233L64.8648 0.699219L66.3663 71.7702L64.114 73.6911Z" fill="#997F66" stroke="black" stroke-width="0.323849"/>
<path d="M35.4353 73.6911L34.6846 1.57233L36.3362 0.699219L37.8377 71.7702L35.4353 73.6911Z" fill="#997F66" stroke="black" stroke-width="0.323849"/>
<path d="M63.3632 12.3986V9.7793H57.207V12.3986H63.3632Z" fill="#7F4C4C"/>
<path d="M63.5133 18.6838V16.0645H57.207V18.6838H63.5133Z" fill="#7F4C4C"/>
<path d="M34.8346 12.3986V9.7793H28.5283V12.3986H34.8346Z" fill="#7F4C4C"/>
<path d="M34.8346 18.6838V16.0645H28.5283V18.6838H34.8346Z" fill="#7F4C4C"/>
<path d="M65.0149 11.6994V9.08008L63.3633 9.77856V12.3979L65.0149 11.6994Z" fill="#4C1919"/>
<path d="M65.1653 17.9865V15.3672L63.5137 16.0657V18.685L65.1653 17.9865Z" fill="#4C1919"/>
<path d="M36.4864 11.6994V9.08008L34.6846 9.77856V12.3979L36.4864 11.6994Z" fill="#4C1919"/>
<path d="M36.4866 17.9865V15.3672L34.835 16.0657V18.685L36.4866 17.9865Z" fill="#4C1919"/>
</g>
<defs>
<clipPath id="clip0_2109_167072">
<rect width="150" height="150" fill="white"/>
</clipPath>
</defs>
</svg>
