<svg width="150" height="150" viewBox="0 0 150 150" fill="none" xmlns="http://www.w3.org/2000/svg">
<g clip-path="url(#clip0_2109_168097)">
<path d="M0.750977 149.099V30.4801L60.0603 15.6152L119.37 30.4801V149.099H0.750977Z" fill="#CCCCCC" stroke="black" stroke-width="0.3003"/>
<path d="M119.369 30.4801L149.099 15.6152V134.234L119.369 149.099V30.4801Z" fill="#999999" stroke="black" stroke-width="0.3003"/>
<path d="M0.750977 30.4797L30.4807 15.6149L89.79 0.75L60.0603 15.6149L0.750977 30.4797Z" fill="#E5E5E5" stroke="black" stroke-width="0.3003"/>
<path d="M60.0605 15.6149L119.37 30.4797L149.1 15.6149L89.7903 0.75L60.0605 15.6149Z" fill="#B2B2B2" stroke="black" stroke-width="0.3003"/>
<path d="M149.099 126.877L119.37 141.592H0.750977" stroke="#7F7F7F" stroke-width="0.3003"/>
<path d="M0.750977 30.4805H119.37" stroke="#B2B2B2" stroke-width="0.3003"/>
<path d="M112.012 141.592V30.4805" stroke="#B2B2B2" stroke-width="0.3003"/>
<path d="M97.1475 30.4805V141.592" stroke="#B2B2B2" stroke-width="0.3003"/>
<path d="M82.2822 141.592V30.4805" stroke="#B2B2B2" stroke-width="0.3003"/>
<path d="M67.5674 30.4805V141.592" stroke="#B2B2B2" stroke-width="0.3003"/>
<path d="M52.7031 141.592V30.4805" stroke="#B2B2B2" stroke-width="0.3003"/>
<path d="M37.8379 30.4805V141.592" stroke="#B2B2B2" stroke-width="0.3003"/>
<path d="M22.9727 141.592V30.4805" stroke="#B2B2B2" stroke-width="0.3003"/>
<path d="M8.25781 30.4805V141.592" stroke="#B2B2B2" stroke-width="0.3003"/>
<path d="M41.5918 52.7031H78.6789V137.838H41.5918V52.7031Z" fill="#BFBFBF" stroke="black" stroke-width="0.3003"/>
<path d="M145.346 126.876V19.2188" stroke="#7F7F7F" stroke-width="0.3003"/>
<path d="M142.192 20.8711V128.379" stroke="#7F7F7F" stroke-width="0.3003"/>
<path d="M139.039 130.031V22.5234" stroke="#7F7F7F" stroke-width="0.3003"/>
<path d="M135.886 24.0234V131.531" stroke="#7F7F7F" stroke-width="0.3003"/>
<path d="M132.732 133.183V25.6758" stroke="#7F7F7F" stroke-width="0.3003"/>
<path d="M129.43 27.3281V134.836" stroke="#7F7F7F" stroke-width="0.3003"/>
<path d="M126.276 136.336V28.8281" stroke="#7F7F7F" stroke-width="0.3003"/>
<path d="M123.123 30.4805V137.988" stroke="#7F7F7F" stroke-width="0.3003"/>
<path d="M77.7773 63.8145H80.48V71.1718H77.7773V63.8145Z" fill="#666666"/>
<path d="M77.7773 93.3926H80.48V100.9H77.7773V93.3926Z" fill="#666666"/>
<path d="M77.7773 126.877H80.48V119.369H77.7773V126.877Z" fill="#666666"/>
<path d="M43.3936 89.7891H46.2464V97.1464H43.3936V89.7891Z" fill="#999999"/>
<path d="M48.9492 60.0605H71.3216V130.481H48.9492V60.0605Z" stroke="#7F7F7F" stroke-width="0.3003"/>
</g>
<defs>
<clipPath id="clip0_2109_168097">
<rect width="150" height="150" fill="white"/>
</clipPath>
</defs>
</svg>
