<svg width="150" height="150" viewBox="0 0 150 150" fill="none" xmlns="http://www.w3.org/2000/svg">
<g clip-path="url(#clip0_2109_168419)">
<path d="M0 12.6133V150.001H120.048V12.6133H0Z" fill="#CCCCCC" stroke="black" stroke-width="0.37936"/>
<path d="M80.0322 18.6191H109.984V31.2318H80.0322V18.6191Z" fill="#A6BAD9"/>
<path d="M45.0479 18.6191H74.9999V31.2318H45.0479V18.6191Z" fill="#A6BAD9"/>
<path d="M10.0635 18.6191H40.2552V31.2318H10.0635V18.6191Z" fill="#A6BAD9"/>
<path d="M80.0322 34.2344H109.984V46.9971H80.0322V34.2344Z" fill="#A6BAD9"/>
<path d="M45.0479 34.2344H74.9999V46.9971H45.0479V34.2344Z" fill="#A6BAD9"/>
<path d="M10.0635 34.2344H40.2552V46.9971H10.0635V34.2344Z" fill="#A6BAD9"/>
<path d="M80.0322 50H109.984V62.6126H80.0322V50Z" fill="#A6BAD9"/>
<path d="M45.0479 50H74.9999V62.6126H45.0479V50Z" fill="#A6BAD9"/>
<path d="M10.0635 50H40.2552V62.6126H10.0635V50Z" fill="#A6BAD9"/>
<path d="M80.0322 65.6152H109.984V78.2278H80.0322V65.6152Z" fill="#A6BAD9"/>
<path d="M45.0479 65.6152H74.9999V78.2278H45.0479V65.6152Z" fill="#A6BAD9"/>
<path d="M10.0635 65.6152H40.2552V78.2278H10.0635V65.6152Z" fill="#A6BAD9"/>
<path d="M80.0322 81.2305H109.984V93.5428H80.0322V81.2305Z" fill="#A6BAD9"/>
<path d="M45.0479 81.2305H74.9999V93.5428H45.0479V81.2305Z" fill="#A6BAD9"/>
<path d="M10.0635 81.2305H40.2552V93.5428H10.0635V81.2305Z" fill="#A6BAD9"/>
<path d="M80.0322 96.9961H109.984V109.308H80.0322V96.9961Z" fill="#A6BAD9"/>
<path d="M45.0479 96.9961H74.9999V109.308H45.0479V96.9961Z" fill="#A6BAD9"/>
<path d="M10.0635 96.9961H40.2552V109.308H10.0635V96.9961Z" fill="#A6BAD9"/>
<path d="M80.0322 112.613H109.984V124.926H80.0322V112.613Z" fill="#A6BAD9"/>
<path d="M45.0479 112.613H74.9999V124.926H45.0479V112.613Z" fill="#A6BAD9"/>
<path d="M10.0635 112.613H40.2552V124.926H10.0635V112.613Z" fill="#A6BAD9"/>
<path d="M80.0322 128.229H109.984V140.541H80.0322V128.229Z" fill="#A6BAD9"/>
<path d="M45.0479 128.229H74.9999V140.541H45.0479V128.229Z" fill="#A6BAD9"/>
<path d="M10.0635 128.229H40.2552V140.541H10.0635V128.229Z" fill="#A6BAD9"/>
<path d="M80.0322 128.229V132.733L109.984 129.73V128.229H80.0322Z" fill="#7387A6"/>
<path d="M45.0479 128.229V132.733L74.9999 129.73V128.229H45.0479Z" fill="#7387A6"/>
<path d="M10.0635 128.229V132.733L40.2552 129.73V128.229H10.0635Z" fill="#7387A6"/>
<path d="M80.0322 112.613V117.118L109.984 114.115V112.613H80.0322Z" fill="#7387A6"/>
<path d="M45.0479 112.613V117.118L74.9999 114.115V112.613H45.0479Z" fill="#7387A6"/>
<path d="M10.0635 112.613V117.118L40.2552 114.115V112.613H10.0635Z" fill="#7387A6"/>
<path d="M80.0322 96.9961V101.35L109.984 98.4976V96.9961H80.0322Z" fill="#7387A6"/>
<path d="M45.0479 96.9961V101.35L74.9999 98.4976V96.9961H45.0479Z" fill="#7387A6"/>
<path d="M10.0635 96.9961V101.35L40.2552 98.4976V96.9961H10.0635Z" fill="#7387A6"/>
<path d="M80.0322 81.2305V85.735L109.984 82.732V81.2305H80.0322Z" fill="#7387A6"/>
<path d="M45.0479 81.2305V85.735L74.9999 82.732V81.2305H45.0479Z" fill="#7387A6"/>
<path d="M10.0635 81.2305V85.735L40.2552 82.732V81.2305H10.0635Z" fill="#7387A6"/>
<path d="M80.0322 65.6152V70.42L109.984 67.1167V65.6152H80.0322Z" fill="#7387A6"/>
<path d="M45.0479 65.6152V70.42L74.9999 67.1167V65.6152H45.0479Z" fill="#7387A6"/>
<path d="M10.0635 65.6152V70.42L40.2552 67.1167V65.6152H10.0635Z" fill="#7387A6"/>
<path d="M80.0322 50V54.6547L109.984 51.3514V50H80.0322Z" fill="#7387A6"/>
<path d="M45.0479 50V54.6547L74.9999 51.3514V50H45.0479Z" fill="#7387A6"/>
<path d="M10.0635 50V54.6547L40.2552 51.3514V50H10.0635Z" fill="#7387A6"/>
<path d="M80.0322 18.6191V23.4239L109.984 20.1206V18.6191H80.0322Z" fill="#7387A6"/>
<path d="M45.0479 18.6191V23.4239L74.9999 20.1206V18.6191H45.0479Z" fill="#7387A6"/>
<path d="M10.0635 18.6191V23.4239L40.2552 20.1206V18.6191H10.0635Z" fill="#7387A6"/>
<path d="M80.0322 34.2344V39.0392L109.984 35.7359V34.2344H80.0322Z" fill="#7387A6"/>
<path d="M45.0479 34.2344V39.0392L74.9999 35.7359V34.2344H45.0479Z" fill="#7387A6"/>
<path d="M10.0635 34.2344V39.0392L40.2552 35.7359V34.2344H10.0635Z" fill="#7387A6"/>
<path d="M80.0322 31.2318V18.6191H109.984" stroke="black" stroke-width="0.37936"/>
<path d="M45.0479 31.2318V18.6191H74.9999" stroke="black" stroke-width="0.37936"/>
<path d="M10.0635 31.2318V18.6191H40.2552" stroke="black" stroke-width="0.37936"/>
<path d="M80.0322 46.9971V34.2344H109.984" stroke="black" stroke-width="0.37936"/>
<path d="M45.0479 46.9971V34.2344H74.9999" stroke="black" stroke-width="0.37936"/>
<path d="M10.0635 46.9971V34.2344H40.2552" stroke="black" stroke-width="0.37936"/>
<path d="M80.0322 62.6126V50H109.984" stroke="black" stroke-width="0.37936"/>
<path d="M45.0479 62.6126V50H74.9999" stroke="black" stroke-width="0.37936"/>
<path d="M10.0635 62.6126V50H40.2552" stroke="black" stroke-width="0.37936"/>
<path d="M80.0322 78.2278V65.6152H109.984" stroke="black" stroke-width="0.37936"/>
<path d="M45.0479 78.2278V65.6152H74.9999" stroke="black" stroke-width="0.37936"/>
<path d="M10.0635 78.2278V65.6152H40.2552" stroke="black" stroke-width="0.37936"/>
<path d="M80.0322 93.5428V81.2305H109.984" stroke="black" stroke-width="0.37936"/>
<path d="M45.0479 93.5428V81.2305H74.9999" stroke="black" stroke-width="0.37936"/>
<path d="M10.0635 93.5428V81.2305H40.2552" stroke="black" stroke-width="0.37936"/>
<path d="M80.0322 109.308V96.9961H109.984" stroke="black" stroke-width="0.37936"/>
<path d="M45.0479 109.308V96.9961H74.9999" stroke="black" stroke-width="0.37936"/>
<path d="M10.0635 109.308V96.9961H40.2552" stroke="black" stroke-width="0.37936"/>
<path d="M80.0322 124.926V112.613H109.984" stroke="black" stroke-width="0.37936"/>
<path d="M45.0479 124.926V112.613H74.9999" stroke="black" stroke-width="0.37936"/>
<path d="M10.0635 124.926V112.613H40.2552" stroke="black" stroke-width="0.37936"/>
<path d="M80.0322 140.541V128.229H109.984" stroke="black" stroke-width="0.37936"/>
<path d="M45.0479 140.541V128.229H74.9999" stroke="black" stroke-width="0.37936"/>
<path d="M10.0635 140.541V128.229H40.2552" stroke="black" stroke-width="0.37936"/>
<path d="M80.0322 140.541H109.984V128.229" stroke="white" stroke-width="0.37936"/>
<path d="M45.0479 140.541H74.9999V128.229" stroke="white" stroke-width="0.37936"/>
<path d="M10.0635 140.541H40.2552V128.229" stroke="white" stroke-width="0.37936"/>
<path d="M80.0322 124.926H109.984V112.613" stroke="white" stroke-width="0.37936"/>
<path d="M45.0479 124.926H74.9999V112.613" stroke="white" stroke-width="0.37936"/>
<path d="M10.0635 124.926H40.2552V112.613" stroke="white" stroke-width="0.37936"/>
<path d="M80.0322 109.308H109.984V96.9961" stroke="white" stroke-width="0.37936"/>
<path d="M45.0479 109.308H74.9999V96.9961" stroke="white" stroke-width="0.37936"/>
<path d="M10.0635 109.308H40.2552V96.9961" stroke="white" stroke-width="0.37936"/>
<path d="M80.0322 93.5428H109.984V81.2305" stroke="white" stroke-width="0.37936"/>
<path d="M45.0479 93.5428H74.9999V81.2305" stroke="white" stroke-width="0.37936"/>
<path d="M10.0635 93.5428H40.2552V81.2305" stroke="white" stroke-width="0.37936"/>
<path d="M80.0322 78.2278H109.984V65.6152" stroke="white" stroke-width="0.37936"/>
<path d="M45.0479 78.2278H74.9999V65.6152" stroke="white" stroke-width="0.37936"/>
<path d="M10.0635 78.2278H40.2552V65.6152" stroke="white" stroke-width="0.37936"/>
<path d="M80.0322 62.6126H109.984V50" stroke="white" stroke-width="0.37936"/>
<path d="M45.0479 62.6126H74.9999V50" stroke="white" stroke-width="0.37936"/>
<path d="M10.0635 62.6126H40.2552V50" stroke="white" stroke-width="0.37936"/>
<path d="M80.0322 31.2318H109.984V18.6191" stroke="white" stroke-width="0.37936"/>
<path d="M45.0479 31.2318H74.9999V18.6191" stroke="white" stroke-width="0.37936"/>
<path d="M10.0635 31.2318H40.2552V18.6191" stroke="white" stroke-width="0.37936"/>
<path d="M80.0322 46.9971H109.984V34.2344" stroke="white" stroke-width="0.37936"/>
<path d="M45.0479 46.9971H74.9999V34.2344" stroke="white" stroke-width="0.37936"/>
<path d="M10.0635 46.9971H40.2552V34.2344" stroke="white" stroke-width="0.37936"/>
<path d="M0 12.6126L40.2556 0H150L120.048 12.6126H0Z" fill="#E5E5E5" stroke="black" stroke-width="0.37936"/>
<path d="M120.048 12.6126V150L150 137.538V0L120.048 12.6126Z" fill="#999999" stroke="black" stroke-width="0.37936"/>
<path d="M139.696 10.5103L147.364 7.20703V19.8196L139.696 22.8226V10.5103Z" fill="#7387A6"/>
<path d="M131.07 14.1139L138.738 10.8105V23.4232L131.07 26.4262V14.1139Z" fill="#7387A6"/>
<path d="M122.444 17.7178L129.633 14.7148V27.0272L122.444 30.0302V17.7178Z" fill="#7387A6"/>
<path d="M139.696 26.1256L147.364 22.8223V35.4349L139.696 38.4379V26.1256Z" fill="#7387A6"/>
<path d="M131.07 29.7291L138.738 26.4258V39.0384L131.07 42.0414V29.7291Z" fill="#7387A6"/>
<path d="M122.444 33.3326L129.633 30.0293V42.6419L122.444 45.7951V33.3326Z" fill="#7387A6"/>
<path d="M139.696 41.7408L147.364 38.4375V51.0501L139.696 54.0531V41.7408Z" fill="#7387A6"/>
<path d="M131.07 45.4964L138.738 42.043V54.6556L131.07 57.8087V45.4964Z" fill="#7387A6"/>
<path d="M122.444 49.0982L129.633 45.7949V58.4075L122.444 61.4105V49.0982Z" fill="#7387A6"/>
<path d="M139.696 57.2078L147.364 54.0547V66.8175L139.696 69.8205V57.2078Z" fill="#7387A6"/>
<path d="M131.07 60.8116L138.738 57.8086V70.4212L131.07 73.4242V60.8116Z" fill="#7387A6"/>
<path d="M122.444 64.7154L129.633 61.4121V74.0247L122.444 77.0277V64.7154Z" fill="#7387A6"/>
<path d="M139.696 72.8233L147.364 69.8203V82.1326L139.696 85.4359V72.8233Z" fill="#7387A6"/>
<path d="M131.07 76.4268L138.738 73.4238V85.7361L131.07 89.0394V76.4268Z" fill="#7387A6"/>
<path d="M122.444 80.0303L129.633 77.0273V89.64L122.444 92.643V80.0303Z" fill="#7387A6"/>
<path d="M139.696 88.4385L147.364 85.4355V97.898L139.696 101.051V88.4385Z" fill="#7387A6"/>
<path d="M131.07 92.0421L138.738 89.0391V101.351L131.07 104.655V92.0421Z" fill="#7387A6"/>
<path d="M122.444 95.7957L129.633 92.6426V105.255L122.444 108.408V95.7957Z" fill="#7387A6"/>
<path d="M139.696 104.054L147.364 101.051V113.513L139.696 116.817V104.054Z" fill="#7387A6"/>
<path d="M131.07 107.807L138.738 104.654V117.117L131.07 120.42V107.807Z" fill="#7387A6"/>
<path d="M122.444 111.411L129.633 108.408V121.021L122.444 124.024V111.411Z" fill="#7387A6"/>
<path d="M139.696 119.819L147.364 116.816V129.129L139.696 132.432V119.819Z" fill="#7387A6"/>
<path d="M131.07 123.423L138.738 120.42V132.732L131.07 136.036V123.423Z" fill="#7387A6"/>
<path d="M122.444 127.026L129.633 124.023V136.336L122.444 139.639V127.026Z" fill="#7387A6"/>
<path d="M139.696 119.819V124.624L147.364 118.318V116.816L139.696 119.819Z" fill="#596D8C"/>
<path d="M131.07 123.423V128.228L138.738 121.921V120.42L131.07 123.423Z" fill="#596D8C"/>
<path d="M122.444 127.026V131.831L129.633 125.525V124.023L122.444 127.026Z" fill="#596D8C"/>
<path d="M139.696 104.054V109.009L147.364 102.552V101.051L139.696 104.054Z" fill="#596D8C"/>
<path d="M131.07 107.807V112.612L138.738 106.306V104.654L131.07 107.807Z" fill="#596D8C"/>
<path d="M122.444 111.411V116.216L129.633 109.91V108.408L122.444 111.411Z" fill="#596D8C"/>
<path d="M139.696 88.4385V93.2434L147.364 86.937V85.4355L139.696 88.4385Z" fill="#596D8C"/>
<path d="M131.07 92.0421V96.997L138.738 90.5406V89.0391L131.07 92.0421Z" fill="#596D8C"/>
<path d="M122.444 95.7957V100.45L129.633 94.2942V92.6426L122.444 95.7957Z" fill="#596D8C"/>
<path d="M139.696 72.8233V77.6281L147.364 71.3218V69.8203L139.696 72.8233Z" fill="#596D8C"/>
<path d="M131.07 76.4268V81.2316L138.738 74.9253V73.4238L131.07 76.4268Z" fill="#596D8C"/>
<path d="M122.444 80.0303V84.8352L129.633 78.5288V77.0273L122.444 80.0303Z" fill="#596D8C"/>
<path d="M139.696 57.2078V62.0126L147.364 55.5562V54.0547L139.696 57.2078Z" fill="#596D8C"/>
<path d="M131.07 60.8116V65.6164L138.738 59.3101V57.8086L131.07 60.8116Z" fill="#596D8C"/>
<path d="M122.444 64.7154V69.2199L129.633 62.9136V61.4121L122.444 64.7154Z" fill="#596D8C"/>
<path d="M139.696 41.7408V46.3955L147.364 39.939V38.4375L139.696 41.7408Z" fill="#596D8C"/>
<path d="M131.07 45.4964V50.0009L138.738 43.5445V42.043L131.07 45.4964Z" fill="#596D8C"/>
<path d="M122.444 49.0982V53.4526L129.633 47.2964V45.7949L122.444 49.0982Z" fill="#596D8C"/>
<path d="M139.696 10.5103V15.0148L147.364 9.00883V7.20703L139.696 10.5103Z" fill="#596D8C"/>
<path d="M131.07 14.1139V18.6184L138.738 12.6123V10.8105L131.07 14.1139Z" fill="#596D8C"/>
<path d="M122.444 17.7178V22.2224L129.633 16.2163V14.7148L122.444 17.7178Z" fill="#596D8C"/>
<path d="M139.696 26.1256V30.6301L147.364 24.3238V22.8223L139.696 26.1256Z" fill="#596D8C"/>
<path d="M131.07 29.7291V34.2336L138.738 27.9273V26.4258L131.07 29.7291Z" fill="#596D8C"/>
<path d="M122.444 33.3326V37.8371L129.633 31.5308V30.0293L122.444 33.3326Z" fill="#596D8C"/>
<path d="M139.696 22.8226V10.5103L147.364 7.20703" stroke="black" stroke-width="0.37936"/>
<path d="M131.07 26.4262V14.1139L138.738 10.8105" stroke="black" stroke-width="0.37936"/>
<path d="M122.444 30.0302V17.7178L129.633 14.7148" stroke="black" stroke-width="0.37936"/>
<path d="M139.696 38.4379V26.1256L147.364 22.8223" stroke="black" stroke-width="0.37936"/>
<path d="M131.07 42.0414V29.7291L138.738 26.4258" stroke="black" stroke-width="0.37936"/>
<path d="M122.444 45.7951V33.3326L129.633 30.0293" stroke="black" stroke-width="0.37936"/>
<path d="M139.696 54.0531V41.7408L147.364 38.4375" stroke="black" stroke-width="0.37936"/>
<path d="M131.07 57.8087V45.4964L138.738 42.043" stroke="black" stroke-width="0.37936"/>
<path d="M122.444 61.4105V49.0982L129.633 45.7949" stroke="black" stroke-width="0.37936"/>
<path d="M139.696 69.8205V57.2078L147.364 54.0547" stroke="black" stroke-width="0.37936"/>
<path d="M131.07 73.4242V60.8116L138.738 57.8086" stroke="black" stroke-width="0.37936"/>
<path d="M122.444 77.0277V64.7154L129.633 61.4121" stroke="black" stroke-width="0.37936"/>
<path d="M139.696 85.4359V72.8233L147.364 69.8203" stroke="black" stroke-width="0.37936"/>
<path d="M131.07 89.0394V76.4268L138.738 73.4238" stroke="black" stroke-width="0.37936"/>
<path d="M122.444 92.643V80.0303L129.633 77.0273" stroke="black" stroke-width="0.37936"/>
<path d="M139.696 101.051V88.4385L147.364 85.4355" stroke="black" stroke-width="0.37936"/>
<path d="M131.07 104.655V92.0421L138.738 89.0391" stroke="black" stroke-width="0.37936"/>
<path d="M122.444 108.408V95.7957L129.633 92.6426" stroke="black" stroke-width="0.37936"/>
<path d="M139.696 116.817V104.054L147.364 101.051" stroke="black" stroke-width="0.37936"/>
<path d="M131.07 120.42V107.807L138.738 104.654" stroke="black" stroke-width="0.37936"/>
<path d="M122.444 124.024V111.411L129.633 108.408" stroke="black" stroke-width="0.37936"/>
<path d="M139.696 132.432V119.819L147.364 116.816" stroke="black" stroke-width="0.37936"/>
<path d="M131.07 136.036V123.423L138.738 120.42" stroke="black" stroke-width="0.37936"/>
<path d="M122.444 139.639V127.026L129.633 124.023" stroke="black" stroke-width="0.37936"/>
</g>
<defs>
<clipPath id="clip0_2109_168419">
<rect width="150" height="150" fill="white"/>
</clipPath>
</defs>
</svg>
