<svg width="150" height="150" viewBox="0 0 150 150" fill="none" xmlns="http://www.w3.org/2000/svg">
<g clip-path="url(#clip0_2109_167439)">
<path d="M0 50H124.9V150H0V50Z" fill="#0000FF" stroke="black" stroke-width="0.300451"/>
<path d="M124.899 150L150 137.387V37.5371L124.899 49.9996V150Z" fill="#000099" stroke="black" stroke-width="0.300451"/>
<path d="M0 49.9996L24.9499 37.5371H150L124.9 49.9996H0Z" fill="#7F7FFF" stroke="black" stroke-width="0.300451"/>
<path d="M56.2129 124.926H68.6878V150.001H56.2129V124.926Z" fill="black" stroke="black" stroke-width="0.300451"/>
<path d="M9.31836 65.6152H28.5568V87.5372H9.31836V65.6152Z" fill="#7F7F7F"/>
<path d="M9.31836 87.5372H28.5568V65.6152" stroke="white" stroke-width="0.300451"/>
<path d="M9.31836 87.5372V65.6152H28.7071V66.366H10.2202V87.5372H9.31836Z" fill="black" stroke="black" stroke-width="0.300451"/>
<path d="M38.3262 65.6152H57.5646V87.5372H38.3262V65.6152Z" fill="#7F7F7F"/>
<path d="M38.3262 87.5372H57.5646V65.6152" stroke="white" stroke-width="0.300451"/>
<path d="M38.3262 87.5372V65.6152H57.7149V66.366H39.228V87.5372H38.3262Z" fill="black" stroke="black" stroke-width="0.300451"/>
<path d="M67.335 65.6152H86.5734V87.5372H67.335V65.6152Z" fill="#7F7F7F"/>
<path d="M67.335 87.5372H86.4231V65.6152" stroke="white" stroke-width="0.300451"/>
<path d="M67.335 87.5372V65.6152H86.5734V66.366H68.0865V87.5372H67.335Z" fill="black" stroke="black" stroke-width="0.300451"/>
<path d="M96.3428 65.6152H115.581V87.5372H96.3428V65.6152Z" fill="#7F7F7F"/>
<path d="M96.3428 87.5372H115.431V65.6152" stroke="white" stroke-width="0.300451"/>
<path d="M96.3428 87.5372V65.6152H115.581V66.366H97.0943V87.5372H96.3428Z" fill="black" stroke="black" stroke-width="0.300451"/>
<path d="M40.5811 43.6937V9.30931H37.4248V0H56.2124V9.30931H53.0561V43.6937H40.5811Z" fill="#666666"/>
<path d="M41.934 43.6937V37.2372V35.1351V16.8168V14.7147V9.30931H40.431H39.8298H39.3789V8.70871L39.5292 6.90691V2.25225L39.3789 0.45045V0H42.2346H43.1364H44.0382H50.6515H52.4551H54.2587V1.65165L54.409 2.25225V2.85285V6.90691L54.2587 8.70871V9.30931H52.7557H51.8539V15.7658V17.8679V36.1862V38.2883V42.6426V43.6937H51.2527H49.2987H44.3388H42.5352H41.934Z" fill="#858585"/>
<path d="M43.1366 43.6937V37.2372L43.2869 35.1351V16.8168L43.1366 14.7147V9.30931H41.6336H41.333V8.70871L41.4833 6.90691V2.25225L41.333 0.45045V0H43.4372H44.1887H44.7899H49.5995H51.7037H52.305V1.65165L52.4553 2.25225V2.85285V6.90691L52.305 8.70871V9.30931H50.5013V15.7658V17.8679V36.1862V38.2883V42.6426V43.6937H49.5995H47.7959H45.0905H43.1366Z" fill="#A6A6A6"/>
<path d="M44.4886 43.6937V37.2372L44.6389 35.1351V16.8168L44.4886 14.7147V9.30931H43.7371H43.4365V8.70871V6.90691V2.25225V0.45045V0H44.3383H45.2401H45.9916H48.697H50.3504V1.65165L50.5007 2.25225V2.85285V6.90691L50.3504 8.70871V9.30931H49.1479V15.7658L49.2982 17.8679V36.1862L49.1479 38.2883V42.6426V43.6937H48.697H46.8934H45.0898H44.4886Z" fill="#C4C4C4"/>
<path d="M45.8414 43.6937V9.30931H45.2402V0H48.3965V9.30931H47.7953V43.6937H45.8414Z" fill="#E5E5E5"/>
<path d="M40.5811 43.6937V9.30931H37.4248V0H56.2124V9.30931H53.0561V43.6937H40.5811Z" stroke="black" stroke-width="0.300451"/>
<path d="M40.5811 9.30859H53.056" stroke="black" stroke-width="0.300451"/>
<path d="M96.7939 24.9258H109.419" stroke="black" stroke-width="0.300451"/>
<path d="M96.794 43.6933V24.9245H93.6377V15.6152H112.425V24.9245H109.269V43.6933H96.794Z" fill="#666666"/>
<path d="M98.146 43.6931V40.0895V37.8372V29.579V27.3267V24.9243H96.643H96.0418H95.7412V24.3237V22.5219V17.8672V16.0654V15.615H98.4466L99.4987 15.4648H100.401H106.863L108.667 15.615H110.621V17.2666V17.8672V18.4678V22.5219V24.3237V24.9243H109.118H108.066V28.3778V30.7802V39.0384V41.2907V42.4919V43.6931H107.465H105.661H100.701H98.7472H98.146Z" fill="#858585"/>
<path d="M99.4989 43.6931V40.0895V37.8372V29.579V27.3267V24.9243H97.8456H97.6953V24.3237V22.5219V17.8672V16.0654V15.615H99.7995L100.401 15.4648H101.152H105.962L107.916 15.615H108.667V17.2666V17.8672V18.4678V22.5219V24.3237V24.9243H106.713V28.3778L106.864 30.7802V39.0384L106.713 41.2907V42.4919V43.6931H105.812H104.008H101.303H99.4989Z" fill="#A6A6A6"/>
<path d="M100.852 43.6931V40.0895V37.8372V29.579V27.3267V24.9243H99.95H99.6494V24.3237V22.5219V17.8672V16.0654V15.615H100.551L101.453 15.4648H102.355H104.91L106.714 15.615V17.2666V17.8672V18.4678V22.5219V24.3237V24.9243H105.511V28.3778V30.7802V39.0384V41.2907V42.4919V43.6931H104.91H103.106H101.453H100.852Z" fill="#C4C4C4"/>
<path d="M102.054 43.6933V24.9245H101.604V15.6152H104.61V24.9245H104.159V43.6933H102.054Z" fill="#E5E5E5"/>
<path d="M96.794 43.6933V24.9245H93.6377V15.6152H112.425V24.9245H109.269V43.6933H96.794Z" stroke="black" stroke-width="0.300451"/>
<path d="M96.7939 24.9258H109.419" stroke="black" stroke-width="0.300451"/>
</g>
<defs>
<clipPath id="clip0_2109_167439">
<rect width="150" height="150" fill="white"/>
</clipPath>
</defs>
</svg>
