<svg width="150" height="150" viewBox="0 0 150 150" fill="none" xmlns="http://www.w3.org/2000/svg">
<g clip-path="url(#clip0_2109_167918)">
<path d="M17.4238 16.5156H116.104V141.14H17.4238V16.5156Z" fill="#E5E5E5" stroke="black" stroke-width="0.308435"/>
<path d="M25.6602 141.14L91.3941 78.8281H116.104V141.14H25.6602Z" fill="#999999" stroke="black" stroke-width="0.308435"/>
<path d="M116.104 16.516L148.891 0.900391V125.675L116.104 141.141V16.516Z" fill="#B2B2B2" stroke="black" stroke-width="0.308435"/>
<path d="M116.104 16.516L148.892 0.900391H50.2116L17.4238 16.516H116.104Z" fill="#CCCCCC" stroke="black" stroke-width="0.308435"/>
<path d="M85.8496 26.877H113.252V78.8289H85.8496V26.877Z" fill="#D9D9D9" stroke="black" stroke-width="0.308435"/>
<path d="M138.912 16.0653L148.099 11.7109V37.6869L138.912 41.8911V16.0653Z" fill="#CBE5E5"/>
<path d="M127.983 21.3209L137.012 16.8164V42.7924L127.983 47.1467V21.3209Z" fill="#CBE5E5"/>
<path d="M116.896 26.4266L126.082 22.0723V48.0482L116.896 52.4026V26.4266Z" fill="#CBE5E5"/>
<path d="M88.543 29.4297H110.56V50.3006H88.543V29.4297Z" fill="#CBE5E5"/>
<path d="M53.0625 26.877H80.4648V52.8529H53.0625V26.877Z" fill="#CBE5E5"/>
<path d="M20.1162 26.877H47.5185V52.8529H20.1162V26.877Z" fill="#CBE5E5"/>
<path d="M101.214 42.3429L96.1455 47.5982L102.64 42.4931L107.075 36.9375L101.214 42.3429Z" fill="#B3D9D9"/>
<path d="M88.8594 29.5801V36.0365L110.401 30.3308V29.5801H88.8594Z" fill="#B3D9D9"/>
<path d="M68.743 42.9423L62.4072 49.5489L70.4854 43.0925L76.0292 36.1855L68.743 42.9423Z" fill="#B3D9D9"/>
<path d="M53.2207 27.1777V35.1357L80.1478 27.9285V27.1777H53.2207Z" fill="#B3D9D9"/>
<path d="M35.7977 42.9423L29.4619 49.5489L37.6985 43.0925L43.0839 36.1855L35.7977 42.9423Z" fill="#B3D9D9"/>
<path d="M20.4326 27.1777V35.1357L47.2014 27.9285V27.1777H20.4326Z" fill="#B3D9D9"/>
<path d="M144.139 29.5793L142.08 37.0868L144.773 29.5793L146.515 21.7715L144.139 29.5793Z" fill="#B3D9D9"/>
<path d="M139.07 16.2159V24.1739L147.94 12.7625V12.0117L139.07 16.2159Z" fill="#B3D9D9"/>
<path d="M133.21 34.8349L130.992 42.3424L133.685 34.6848L135.586 26.877L133.21 34.8349Z" fill="#B3D9D9"/>
<path d="M127.983 21.4718V29.4297L137.012 18.0183V17.2676L127.983 21.4718Z" fill="#B3D9D9"/>
<path d="M122.281 39.9406L120.063 47.5983L122.756 39.9406L124.657 32.1328L122.281 39.9406Z" fill="#B3D9D9"/>
<path d="M117.054 26.5773V34.5352L125.924 23.2739V22.373L117.054 26.5773Z" fill="#B3D9D9"/>
<path d="M104.065 30.9316L98.2046 35.4361L94.5615 40.9917L100.105 35.1358L104.065 30.9316Z" fill="white"/>
<path d="M92.3447 48.0482L100.264 41.892L105.492 34.2344L97.7302 42.3425L92.3447 48.0482Z" fill="white"/>
<path d="M103.749 48.0487L106.6 45.7965L108.501 43.0938L105.65 45.9466L103.749 48.0487Z" fill="white"/>
<path d="M72.2283 28.6777L65.1005 34.3834L60.3486 41.1402L67.318 34.0831L72.2283 28.6777Z" fill="white"/>
<path d="M57.6553 49.9999L67.6342 42.3423L73.97 32.8828L64.3079 42.9429L57.6553 49.9999Z" fill="white"/>
<path d="M71.9111 50.0001L75.5542 47.2974L77.7717 43.9941L74.4455 47.4476L71.9111 50.0001Z" fill="white"/>
<path d="M39.2818 28.6777L32.154 34.3834L27.5605 41.1402L34.5299 34.0831L39.2818 28.6777Z" fill="white"/>
<path d="M24.71 49.9999L34.6888 42.3423L41.183 32.8828L31.3625 42.9429L24.71 49.9999Z" fill="white"/>
<path d="M39.124 50.0001L42.6087 47.2974L44.9846 43.9941L41.4999 47.4476L39.124 50.0001Z" fill="white"/>
<path d="M145.406 14.8652L142.872 21.622L141.446 29.1295L143.664 20.8712L145.406 14.8652Z" fill="white"/>
<path d="M140.496 38.4392L143.822 29.1299L145.882 18.7695L142.714 30.1809L140.496 38.4392Z" fill="white"/>
<path d="M145.248 36.1862L146.357 32.8829L147.149 29.2793L146.04 33.3334L145.248 36.1862Z" fill="white"/>
<path d="M134.319 20.1211L131.943 26.8779L130.359 34.3854L132.735 26.1271L134.319 20.1211Z" fill="white"/>
<path d="M129.408 43.6929L132.893 34.3836L134.952 23.873L131.784 35.4346L129.408 43.6929Z" fill="white"/>
<path d="M134.319 41.4421L135.428 38.1388L136.22 34.5352L135.111 38.4391L134.319 41.4421Z" fill="white"/>
<path d="M123.39 25.2246L121.014 31.9814L119.43 39.639L121.806 31.3808L123.39 25.2246Z" fill="white"/>
<path d="M118.479 48.9487L121.806 39.6394L124.023 29.1289L120.697 40.6905L118.479 48.9487Z" fill="white"/>
<path d="M123.231 46.6957L124.499 43.3924L125.291 39.6387L124.023 43.6927L123.231 46.6957Z" fill="white"/>
<path d="M92.9775 35.4359L97.571 31.9824" stroke="white" stroke-width="0.308435"/>
<path d="M90.9189 38.4385L94.8788 35.4355" stroke="white" stroke-width="0.308435"/>
<path d="M58.6064 34.3839L64.1503 30.1797" stroke="white" stroke-width="0.308435"/>
<path d="M55.9131 38.1385L60.9817 34.3848" stroke="white" stroke-width="0.308435"/>
<path d="M25.6602 34.3839L31.204 30.1797" stroke="white" stroke-width="0.308435"/>
<path d="M22.9668 38.1385L28.0354 34.3848" stroke="white" stroke-width="0.308435"/>
<path d="M118.796 33.0328L120.697 27.9277" stroke="white" stroke-width="0.308435"/>
<path d="M118.004 37.2369L119.588 32.7324" stroke="white" stroke-width="0.308435"/>
<path d="M129.726 27.9271L131.626 22.6719" stroke="white" stroke-width="0.308435"/>
<path d="M128.934 31.9811L130.518 27.4766" stroke="white" stroke-width="0.308435"/>
<path d="M140.654 22.6735L142.555 17.5684" stroke="white" stroke-width="0.308435"/>
<path d="M139.862 26.8773L141.446 22.2227" stroke="white" stroke-width="0.308435"/>
<path d="M85.8496 89.1895H113.252V141.141H85.8496V89.1895Z" fill="#7F7F7F" stroke="black" stroke-width="0.308435"/>
<path d="M138.912 78.3778L148.099 74.0234V99.9994L138.912 104.354V78.3778Z" fill="#CBE5E5"/>
<path d="M127.983 83.6337L137.012 79.2793V105.255L127.983 109.61V83.6337Z" fill="#CBE5E5"/>
<path d="M116.896 88.7394L126.082 84.5352V110.511L116.896 114.715V88.7394Z" fill="#CBE5E5"/>
<path d="M88.543 91.7422H110.56V112.613H88.543V91.7422Z" fill="#CBE5E5"/>
<path d="M53.0625 89.1895H80.4648V115.165H53.0625V89.1895Z" fill="#CBE5E5"/>
<path d="M20.1162 89.1895H47.5185V115.165H20.1162V89.1895Z" fill="#CBE5E5"/>
<path d="M101.214 104.654L96.1455 109.909L102.64 104.804L107.075 99.3984L101.214 104.654Z" fill="#B3D9D9"/>
<path d="M88.8594 92.043V98.3493L110.401 92.6436V92.043H88.8594Z" fill="#B3D9D9"/>
<path d="M68.743 105.255L62.4072 111.862L70.4854 105.555L76.0292 98.6484L68.743 105.255Z" fill="#B3D9D9"/>
<path d="M53.2207 89.4902V97.4482L80.1478 90.3911V89.4902H53.2207Z" fill="#B3D9D9"/>
<path d="M35.7977 105.255L29.4619 111.862L37.6985 105.555L43.0839 98.6484L35.7977 105.255Z" fill="#B3D9D9"/>
<path d="M20.4326 89.4902V97.4482L47.2014 90.3911V89.4902H20.4326Z" fill="#B3D9D9"/>
<path d="M144.139 91.8918L142.08 99.5494L144.773 91.8918L146.515 84.084L144.139 91.8918Z" fill="#B3D9D9"/>
<path d="M139.07 78.5284V86.4864L147.94 75.2251V74.3242L139.07 78.5284Z" fill="#B3D9D9"/>
<path d="M133.21 97.1477L130.992 104.805L133.685 97.1477L135.586 89.3398L133.21 97.1477Z" fill="#B3D9D9"/>
<path d="M127.983 83.7843V91.7422L137.012 80.481V79.5801L127.983 83.7843Z" fill="#B3D9D9"/>
<path d="M122.281 102.402L120.063 109.909L122.756 102.402L124.657 94.5938L122.281 102.402Z" fill="#B3D9D9"/>
<path d="M117.054 89.0399V96.9979L125.924 85.5864V84.6855L117.054 89.0399Z" fill="#B3D9D9"/>
<path d="M104.065 93.3926L98.2046 97.8971L94.5615 103.302L100.105 97.5968L104.065 93.3926Z" fill="white"/>
<path d="M92.3438 110.361L100.263 104.205L105.491 96.6973L97.7292 104.655L92.3438 110.361Z" fill="white"/>
<path d="M103.749 110.359L106.6 108.257L108.501 105.555L105.65 108.257L103.749 110.359Z" fill="white"/>
<path d="M72.2283 91.1406L65.1005 96.8463L60.3486 103.603L67.318 96.3959L72.2283 91.1406Z" fill="white"/>
<path d="M57.6562 112.463L67.6351 104.655L73.9709 95.3457L64.3088 105.256L57.6562 112.463Z" fill="white"/>
<path d="M71.9111 112.463L75.5542 109.76L77.7717 106.457L74.4455 109.91L71.9111 112.463Z" fill="white"/>
<path d="M39.2818 91.1406L32.154 96.8463L27.5605 103.603L34.5299 96.3959L39.2818 91.1406Z" fill="white"/>
<path d="M24.71 112.463L34.6888 104.655L41.183 95.3457L31.3625 105.256L24.71 112.463Z" fill="white"/>
<path d="M39.123 112.463L42.6077 109.76L44.9837 106.457L41.499 109.91L39.123 112.463Z" fill="white"/>
<path d="M145.406 77.1777L142.872 84.0846L141.446 91.5921L143.664 83.3339L145.406 77.1777Z" fill="white"/>
<path d="M140.496 100.902L143.822 91.5925L145.882 81.082L142.714 92.6436L140.496 100.902Z" fill="white"/>
<path d="M145.248 98.6489L146.357 95.3456L147.149 91.5918L146.04 95.6459L145.248 98.6489Z" fill="white"/>
<path d="M134.319 82.4316L131.943 89.1884L130.359 96.8461L132.735 88.4376L134.319 82.4316Z" fill="white"/>
<path d="M129.408 106.006L132.893 96.6963L134.952 86.3359L131.784 97.8975L129.408 106.006Z" fill="white"/>
<path d="M134.319 103.755L135.428 100.451L136.22 96.8477L135.111 100.902L134.319 103.755Z" fill="white"/>
<path d="M123.39 87.6875L121.014 94.4443L119.43 101.952L121.806 93.6935L123.39 87.6875Z" fill="white"/>
<path d="M118.479 111.261L121.806 101.952L124.023 91.5918L120.697 103.003L118.479 111.261Z" fill="white"/>
<path d="M123.231 109.008L124.499 105.705L125.291 101.951L124.023 106.005L123.231 109.008Z" fill="white"/>
<path d="M92.9775 97.7486L97.571 94.4453" stroke="white" stroke-width="0.308435"/>
<path d="M90.9189 100.901L94.8788 97.748" stroke="white" stroke-width="0.308435"/>
<path d="M58.6064 96.6964L64.1503 92.4922" stroke="white" stroke-width="0.308435"/>
<path d="M55.9131 100.601L60.9817 96.6973" stroke="white" stroke-width="0.308435"/>
<path d="M25.6602 96.6964L31.204 92.4922" stroke="white" stroke-width="0.308435"/>
<path d="M22.9668 100.601L28.0354 96.6973" stroke="white" stroke-width="0.308435"/>
<path d="M118.796 95.3453L120.697 90.2402" stroke="white" stroke-width="0.308435"/>
<path d="M118.004 99.6996L119.588 95.0449" stroke="white" stroke-width="0.308435"/>
<path d="M129.726 90.2399L131.626 85.1348" stroke="white" stroke-width="0.308435"/>
<path d="M128.934 94.4437L130.518 89.7891" stroke="white" stroke-width="0.308435"/>
<path d="M140.654 84.984L142.555 79.8789" stroke="white" stroke-width="0.308435"/>
<path d="M139.862 89.1901L141.446 84.6855" stroke="white" stroke-width="0.308435"/>
<path d="M88.5426 117.717C89.2424 117.717 89.8097 117.179 89.8097 116.516C89.8097 115.852 89.2424 115.314 88.5426 115.314C87.8427 115.314 87.2754 115.852 87.2754 116.516C87.2754 117.179 87.8427 117.717 88.5426 117.717Z" fill="#333333"/>
<path d="M88.5426 55.2559C89.2424 55.2559 89.8097 54.7181 89.8097 54.0547C89.8097 53.3913 89.2424 52.8535 88.5426 52.8535C87.8427 52.8535 87.2754 53.3913 87.2754 54.0547C87.2754 54.7181 87.8427 55.2559 88.5426 55.2559Z" fill="#333333"/>
<path d="M137.962 6.00586V130.781" stroke="black" stroke-width="0.308435"/>
<path d="M127.033 11.2617V136.036" stroke="black" stroke-width="0.308435"/>
<path d="M17.4238 78.8285H116.104L148.892 63.2129" stroke="black" stroke-width="0.308435"/>
<path d="M83.1572 16.5156V141.14" stroke="black" stroke-width="0.308435"/>
<path d="M50.2109 16.5156V141.14" stroke="black" stroke-width="0.308435"/>
<path d="M88.543 112.463V91.7422H110.56" stroke="black" stroke-width="0.308435"/>
<path d="M53.0625 115.015V89.1895H80.4648" stroke="black" stroke-width="0.308435"/>
<path d="M20.1162 115.015V89.1895H47.5185" stroke="black" stroke-width="0.308435"/>
<path d="M116.896 114.565V88.7391L126.082 84.3848" stroke="black" stroke-width="0.308435"/>
<path d="M127.983 109.459V83.4833L137.012 79.1289" stroke="black" stroke-width="0.308435"/>
<path d="M138.912 104.204V78.2276L148.099 74.0234" stroke="black" stroke-width="0.308435"/>
<path d="M88.543 50.3006V29.4297H110.56" stroke="black" stroke-width="0.308435"/>
<path d="M53.0625 52.8529V26.877H80.4648" stroke="black" stroke-width="0.308435"/>
<path d="M20.1162 52.8529V26.877H47.5185" stroke="black" stroke-width="0.308435"/>
<path d="M116.896 52.4026V26.4266L126.082 22.0723" stroke="black" stroke-width="0.308435"/>
<path d="M127.983 47.1467V21.3209L137.012 16.8164" stroke="black" stroke-width="0.308435"/>
<path d="M138.912 41.8911V16.0653L148.099 11.7109" stroke="black" stroke-width="0.308435"/>
<path d="M88.068 54.0532C88.3304 54.0532 88.5431 53.8516 88.5431 53.6028C88.5431 53.354 88.3304 53.1523 88.068 53.1523C87.8055 53.1523 87.5928 53.354 87.5928 53.6028C87.5928 53.8516 87.8055 54.0532 88.068 54.0532Z" fill="white"/>
<path d="M88.068 116.516C88.3304 116.516 88.5431 116.314 88.5431 116.066C88.5431 115.817 88.3304 115.615 88.068 115.615C87.8055 115.615 87.5928 115.817 87.5928 116.066C87.5928 116.314 87.8055 116.516 88.068 116.516Z" fill="white"/>
<path d="M148.099 11.7109V37.6869L138.912 41.8911" stroke="white" stroke-width="0.308435"/>
<path d="M137.012 16.8164V42.7924L127.983 47.1467" stroke="white" stroke-width="0.308435"/>
<path d="M126.082 22.0723V48.0482L116.896 52.4026" stroke="white" stroke-width="0.308435"/>
<path d="M110.56 29.4297V50.3006H88.543" stroke="white" stroke-width="0.308435"/>
<path d="M80.4648 26.877V52.8529H53.0625" stroke="white" stroke-width="0.308435"/>
<path d="M47.5185 26.877V52.8529H20.1162" stroke="white" stroke-width="0.308435"/>
<path d="M148.099 74.0234V99.9994L138.912 104.354" stroke="white" stroke-width="0.308435"/>
<path d="M137.012 79.2793V105.255L127.983 109.61" stroke="white" stroke-width="0.308435"/>
<path d="M126.082 84.5352V110.511L116.896 114.715" stroke="white" stroke-width="0.308435"/>
<path d="M110.56 91.7422V112.613H88.543" stroke="white" stroke-width="0.308435"/>
<path d="M80.4648 89.1895V115.165H53.0625" stroke="white" stroke-width="0.308435"/>
<path d="M47.5185 89.1895V115.165H20.1162" stroke="white" stroke-width="0.308435"/>
<path d="M83.1577 78.8281L17.4238 141.14H25.6604L91.3943 78.8281H83.1577Z" fill="#4C4C4C" stroke="black" stroke-width="0.308435"/>
<path d="M17.4238 141.142V137.238L83.1577 74.9258V78.8297L17.4238 141.142Z" fill="#CCCCCC" stroke="black" stroke-width="0.308435"/>
<path d="M116.104 78.8281L99.6307 86.6359H66.6846L83.1576 78.8281H116.104Z" fill="#CCCCCC" stroke="black" stroke-width="0.308435"/>
<path d="M66.6841 86.6359L0.950195 148.948H9.18673L69.852 90.5398H99.6302L116.103 82.732V78.8281L99.6302 86.6359H66.6841Z" fill="#7F7F7F" stroke="black" stroke-width="0.308435"/>
<path d="M0.950195 148.949V145.045L66.6841 82.7324V86.6363L0.950195 148.949Z" fill="#CCCCCC" stroke="black" stroke-width="0.308435"/>
<path d="M66.6845 71.0203V69.0684L3.00977 129.579V131.531L66.6845 71.0203Z" fill="#FFCC00" stroke="black" stroke-width="0.308435"/>
<path d="M66.6845 57.3582V55.4062L3.00977 115.917V117.869L66.6845 57.3582Z" fill="#FFCC00" stroke="black" stroke-width="0.308435"/>
<path d="M45.1426 107.056L47.2017 105.105V74.0234L45.1426 75.8252V107.056Z" fill="#FFCC00" stroke="black" stroke-width="0.308435"/>
<path d="M22.4922 128.529L24.5513 126.577V95.3457L22.4922 97.2977V128.529Z" fill="#FFCC00" stroke="black" stroke-width="0.308435"/>
<path d="M0.950195 148.949L3.00933 146.997V115.916L0.950195 117.868V148.949Z" fill="#FFCC00" stroke="black" stroke-width="0.308435"/>
<path d="M99.6309 86.6365V55.4052L116.104 47.4473V78.6785L114.995 79.1289V49.9998L100.581 56.9067V68.6184L114.995 61.7115V63.6635L100.581 70.5704V86.186L99.6309 86.6365Z" fill="#FFCC00" stroke="black" stroke-width="0.308435"/>
<path d="M66.6846 86.6375V55.4062H99.6307V86.6375H97.5716V57.3582H68.7437V69.0699H97.5716V71.0219H68.7437V86.6375H66.6846Z" fill="#FFCC00" stroke="black" stroke-width="0.308435"/>
<path d="M95.9873 90.541H99.6304V148.949H95.9873V90.541Z" fill="#666666"/>
<path d="M96.9375 90.541H98.6798V148.949H96.9375V90.541Z" fill="#E5E5E5"/>
<path d="M95.9873 90.541H99.6304V148.949H95.9873V90.541Z" stroke="black" stroke-width="0.308435"/>
</g>
<defs>
<clipPath id="clip0_2109_167918">
<rect width="150" height="150" fill="white"/>
</clipPath>
</defs>
</svg>
