<svg width="150" height="150" viewBox="0 0 150 150" fill="none" xmlns="http://www.w3.org/2000/svg">
<path d="M134.985 19.0312L149.099 60.0997H28.9793L14.8652 19.0312H134.985Z" fill="#4C4C4C" stroke="black" stroke-width="0.387815"/>
<path d="M7.80762 66.1094V148.497H120.871V66.1094H7.80762Z" fill="#F2EFE5" stroke="black" stroke-width="0.387815"/>
<path d="M120.871 148.497L142.042 130.968V48.3301L131.382 19.0312L120.871 66.1097V148.497Z" fill="#B2A598" stroke="black" stroke-width="0.387815"/>
<path d="M120.871 66.1093L142.042 48.5801" stroke="black" stroke-width="0.387815"/>
<path d="M0.750977 83.6389L14.8651 19.0312H134.985L120.871 83.6389H0.750977Z" fill="#CCB299" stroke="black" stroke-width="0.387815"/>
<path d="M0.750977 83.6387H120.871V86.6437H0.750977V83.6387Z" fill="white" stroke="black" stroke-width="0.387815"/>
<path d="M7.80762 77.8789H32.5824" stroke="black" stroke-width="0.387815"/>
<path d="M14.8652 71.8691H43.0935" stroke="black" stroke-width="0.387815"/>
<path d="M76.7266 69.1152H92.6425" stroke="black" stroke-width="0.387815"/>
<path d="M89.0391 71.8691H103.153" stroke="black" stroke-width="0.387815"/>
<path d="M99.6992 36.5605H117.267" stroke="black" stroke-width="0.387815"/>
<path d="M103.153 33.8066H89.0391" stroke="black" stroke-width="0.387815"/>
<path d="M97.8984 27.7969H110.211" stroke="black" stroke-width="0.387815"/>
<path d="M71.3213 30.8008H39.6396" stroke="black" stroke-width="0.387815"/>
<path d="M41.4413 36.5605H25.5254" stroke="black" stroke-width="0.387815"/>
<path d="M53.7539 39.5664H66.0662" stroke="black" stroke-width="0.387815"/>
<path d="M64.2646 42.5703H73.1235" stroke="black" stroke-width="0.387815"/>
<path d="M51.9521 63.1055H60.811" stroke="black" stroke-width="0.387815"/>
<path d="M110.21 63.1055H117.267" stroke="black" stroke-width="0.387815"/>
<path d="M74.9253 77.8789H66.0664" stroke="black" stroke-width="0.387815"/>
<path d="M16.6664 45.5762H11.4111" stroke="black" stroke-width="0.387815"/>
<path d="M18.4688 24.791H28.9793" stroke="black" stroke-width="0.387815"/>
<path d="M28.5283 58.3468L30.6304 48.3301H36.0358V50.083L33.9337 60.0997H28.5283V58.3468Z" fill="#7F7F7F"/>
<path d="M56.7568 58.3468L58.8589 48.3301H64.2643V50.083L62.1622 60.0997H56.7568V58.3468Z" fill="#7F7F7F"/>
<path d="M84.9854 58.3468L87.0875 48.3301H92.643V50.083L90.3908 60.0997H84.9854V58.3468Z" fill="#7F7F7F"/>
<path d="M28.5283 58.3468H33.9337L36.0358 48.3301" stroke="black" stroke-width="0.387815"/>
<path d="M56.7568 58.3468H62.1622L64.2643 48.3301" stroke="black" stroke-width="0.387815"/>
<path d="M84.9854 58.3468H90.3908L92.643 48.3301" stroke="black" stroke-width="0.387815"/>
<path d="M43.2432 1.25195H46.6966V57.3454H43.2432V1.25195Z" fill="#7F7F7F" stroke="black" stroke-width="0.387815"/>
<path d="M44.4443 1.25195H45.4954V57.3454H44.4443V1.25195Z" fill="#E5E5E5"/>
<path d="M22.3721 92.6543H38.8886V147.496H22.3721V92.6543Z" fill="#D9D9D9" stroke="#7F7F7F" stroke-width="0.387815"/>
<path d="M90.3906 92.6543H106.757V119.95H90.3906V92.6543Z" fill="#CBE5E5"/>
<path d="M70.5703 92.6543H86.9367V119.95H70.5703V92.6543Z" fill="#CBE5E5"/>
<path d="M50.751 92.6543H67.1173V119.95H50.751V92.6543Z" fill="#CBE5E5"/>
<path d="M24.0244 95.1582H37.2376V117.195H24.0244V95.1582Z" fill="#CBE5E5"/>
<path d="M125.525 85.6427L130.931 80.8848V108.431L125.525 112.938V85.6427Z" fill="#CBE5E5"/>
<path d="M132.132 80.1345L137.537 75.627V102.922L132.132 107.43V80.1345Z" fill="#CBE5E5"/>
<path d="M135.285 94.4083L133.934 102.422L135.735 94.4083L136.786 86.1445L135.285 94.4083Z" fill="#B3D9D9"/>
<path d="M132.282 80.3845V88.6482L137.537 76.6282V75.877L132.282 80.3845Z" fill="#B3D9D9"/>
<path d="M125.676 85.8923V94.1561L130.931 82.136V81.3848L125.676 85.8923Z" fill="#B3D9D9"/>
<path d="M128.679 99.9161L127.478 107.929L129.129 99.6657L130.18 91.6523L128.679 99.9161Z" fill="#B3D9D9"/>
<path d="M90.3906 92.9043V101.168L106.607 93.6555V92.9043H90.3906Z" fill="#B3D9D9"/>
<path d="M70.7207 92.9043V101.168L86.7868 93.6555V92.9043H70.7207Z" fill="#B3D9D9"/>
<path d="M50.9004 92.9043V101.168L67.1166 93.6555V92.9043H50.9004Z" fill="#B3D9D9"/>
<path d="M24.1738 95.4082V102.169L37.0867 96.1595V95.4082H24.1738Z" fill="#B3D9D9"/>
<path d="M99.7 109.432L95.9463 116.443L100.751 109.682L104.054 102.42L99.7 109.432Z" fill="#B3D9D9"/>
<path d="M80.0299 109.432L76.126 116.443L81.0809 109.682L84.3842 102.42L80.0299 109.432Z" fill="#B3D9D9"/>
<path d="M60.2098 109.432L56.4561 116.443L61.2609 109.682L64.5642 102.42L60.2098 109.432Z" fill="#B3D9D9"/>
<path d="M31.6815 108.931L28.5283 114.441L32.4322 109.182L35.1349 103.172L31.6815 108.931Z" fill="#B3D9D9"/>
<path d="M101.651 117.194L103.753 114.189L105.105 110.684L103.153 114.44L101.651 117.194Z" fill="white"/>
<path d="M93.0928 117.195L99.0988 108.931L102.853 98.9141L97.1468 109.432L93.0928 117.195Z" fill="white"/>
<path d="M101.802 94.6582L97.4478 100.418L94.7451 107.68L98.9493 100.167L101.802 94.6582Z" fill="white"/>
<path d="M82.132 94.6582L77.7777 100.418L74.9248 107.68L79.129 100.167L82.132 94.6582Z" fill="white"/>
<path d="M73.2734 117.195L79.2794 108.931L83.1833 98.9141L77.3275 109.432L73.2734 117.195Z" fill="white"/>
<path d="M81.832 117.194L84.0843 114.189L85.4356 110.684L83.3335 114.44L81.832 117.194Z" fill="white"/>
<path d="M62.1621 117.194L64.2642 114.189L65.6156 110.684L63.6636 114.44L62.1621 117.194Z" fill="white"/>
<path d="M53.4531 117.195L59.4591 108.931L63.363 98.9141L57.6573 109.432L53.4531 117.195Z" fill="white"/>
<path d="M62.3127 94.6582L57.9583 100.418L55.1055 107.68L59.3097 100.167L62.3127 94.6582Z" fill="white"/>
<path d="M33.1836 114.942L34.8352 112.689L36.0364 109.684L34.3848 112.939L33.1836 114.942Z" fill="white"/>
<path d="M26.2764 114.942L31.0812 108.431L34.2343 100.418L29.4295 108.932L26.2764 114.942Z" fill="white"/>
<path d="M33.3336 96.9121L29.8802 101.67L27.6279 107.43L30.9312 101.42L33.3336 96.9121Z" fill="white"/>
<path d="M136.036 78.6309L134.535 85.893L133.784 93.9063L134.985 85.3921L136.036 78.6309Z" fill="white"/>
<path d="M133.033 103.924L135.135 93.907L136.337 82.8887L134.385 95.1591L133.033 103.924Z" fill="white"/>
<path d="M135.886 101.418L136.636 97.9125L137.087 94.1562L136.486 98.1629L135.886 101.418Z" fill="white"/>
<path d="M129.43 106.929L130.03 103.423L130.481 99.416L129.88 103.924L129.43 106.929Z" fill="white"/>
<path d="M126.427 109.181L128.529 99.4148L129.73 88.3965L127.778 100.667L126.427 109.181Z" fill="white"/>
<path d="M129.43 84.3906L128.078 91.6527L127.027 99.4157L128.379 90.6511L129.43 84.3906Z" fill="white"/>
<path d="M133.333 87.1459L134.384 81.6367" stroke="white" stroke-width="0.387815"/>
<path d="M132.732 91.6529L133.783 86.6445" stroke="white" stroke-width="0.387815"/>
<path d="M126.126 96.9122L127.177 92.1543" stroke="white" stroke-width="0.387815"/>
<path d="M126.576 92.6537L127.777 87.1445" stroke="white" stroke-width="0.387815"/>
<path d="M25.5254 104.925L27.9278 101.67" stroke="white" stroke-width="0.387815"/>
<path d="M26.7266 101.67L29.4293 98.1641" stroke="white" stroke-width="0.387815"/>
<path d="M52.4023 104.425L55.5555 100.418" stroke="white" stroke-width="0.387815"/>
<path d="M54.0537 100.418L57.5072 95.9102" stroke="white" stroke-width="0.387815"/>
<path d="M72.3721 104.425L75.2249 100.418" stroke="white" stroke-width="0.387815"/>
<path d="M73.874 100.418L77.0272 95.9102" stroke="white" stroke-width="0.387815"/>
<path d="M91.8916 104.425L95.0448 100.418" stroke="white" stroke-width="0.387815"/>
<path d="M93.5439 100.418L96.9974 95.9102" stroke="white" stroke-width="0.387815"/>
<path d="M24.0242 122.453C24.4388 122.453 24.7749 121.893 24.7749 121.201C24.7749 120.51 24.4388 119.949 24.0242 119.949C23.6096 119.949 23.2734 120.51 23.2734 121.201C23.2734 121.893 23.6096 122.453 24.0242 122.453Z" fill="#333333"/>
<path d="M23.4238 120.952L23.8743 120.201L24.0244 120.952V121.203H23.8743H23.4238V120.952Z" fill="white"/>
<path d="M130.931 80.8848V108.431L125.525 112.938" stroke="white" stroke-width="0.387815"/>
<path d="M137.537 75.627V102.922L132.132 107.43" stroke="white" stroke-width="0.387815"/>
<path d="M106.757 92.6543V119.95H90.3906" stroke="white" stroke-width="0.387815"/>
<path d="M86.9367 92.6543V119.95H70.5703" stroke="white" stroke-width="0.387815"/>
<path d="M67.1173 92.6543V119.95H50.751" stroke="white" stroke-width="0.387815"/>
<path d="M37.2376 95.1582V117.195H24.0244" stroke="white" stroke-width="0.387815"/>
<path d="M132.282 107.68V80.1345L137.688 75.627" stroke="black" stroke-width="0.387815"/>
<path d="M125.676 112.938V85.6423L131.081 81.1348" stroke="black" stroke-width="0.387815"/>
<path d="M90.3906 119.95V92.4043H106.757" stroke="black" stroke-width="0.387815"/>
<path d="M70.4199 119.95V92.4043H86.9364" stroke="black" stroke-width="0.387815"/>
<path d="M50.751 119.95V92.4043H67.1173" stroke="black" stroke-width="0.387815"/>
<path d="M24.0244 117.195V95.1582H37.2376" stroke="black" stroke-width="0.387815"/>
</svg>
