<svg width="150" height="150" viewBox="0 0 150 150" fill="none" xmlns="http://www.w3.org/2000/svg">
<path d="M1.83887 148.047V93.2423H88.7132L89.0197 68.918H138.509V148.047H1.83887Z" fill="#E5E5E5" stroke="black" stroke-width="0.303352"/>
<path d="M138.509 68.7697L148.008 62.7637V141.893L138.509 148.049V68.7697Z" fill="#B2B2B2" stroke="black" stroke-width="0.303352"/>
<path d="M88.8664 93.244V87.0879H14.4027L1.83887 93.244H88.8664Z" fill="#F7F7F7" stroke="black" stroke-width="0.303352"/>
<path d="M1.83887 108.408V96.2461H138.509V108.408H1.83887Z" fill="#BFD3F2" stroke="black" stroke-width="0.303352"/>
<path d="M148.008 102.252V90.2402L138.509 96.2462V108.408L148.008 102.252Z" fill="#8CA0BF" stroke="black" stroke-width="0.303352"/>
<path d="M2.14551 108.559H138.356" stroke="white" stroke-width="0.303352"/>
<path d="M138.815 108.258L147.702 102.553" stroke="#E5E5E5" stroke-width="0.303352"/>
<path d="M138.509 68.7697L148.008 62.7637H101.277L88.8662 68.7697H138.509Z" fill="#F7F7F7" stroke="black" stroke-width="0.303352"/>
<path d="M88.8662 93.244H138.509L148.008 87.0879" stroke="black" stroke-width="0.303352"/>
<path d="M136.976 64.4153L135.291 1.80273H129.315L127.63 64.4153H136.976Z" fill="#323219" stroke="black" stroke-width="0.303352"/>
<path d="M70.1734 90.2401V84.084H60.8271V90.2401H70.1734Z" fill="#323219" stroke="black" stroke-width="0.303352"/>
<path d="M135.444 64.4153L134.372 1.80273H130.388L129.315 64.4153H135.444Z" fill="#65654C"/>
<path d="M68.6414 90.2401V84.084H62.5127V90.2401H68.6414Z" fill="#65654C"/>
<path d="M133.912 64.4153L133.299 1.80273H131.461L130.848 64.4153H133.912Z" fill="#98987F"/>
<path d="M67.1093 90.2401V84.084H64.0449V90.2401H67.1093Z" fill="#98987F"/>
</svg>
