<svg width="150" height="150" viewBox="0 0 150 150" fill="none" xmlns="http://www.w3.org/2000/svg">
<path d="M0.600586 147.917V27.5H65.6156V62.0833H130.631V147.917H0.600586Z" fill="#CCCCCC" stroke="black" stroke-width="0.50025"/>
<path d="M65.6152 62.0833L84.2339 36.25H149.249L130.63 62.0833H65.6152Z" fill="#E5E5E5" stroke="black" stroke-width="0.50025"/>
<path d="M0.600586 27.4993L19.2192 1.66602H84.2342L65.6156 27.4993H0.600586Z" fill="#E5E5E5" stroke="black" stroke-width="0.50025"/>
<path d="M87.2373 147.917V105H105.856V147.917H87.2373Z" fill="#999999" stroke="black" stroke-width="0.50025"/>
<path d="M3.75391 62.0833V36.25H16.2164V62.0833H3.75391Z" fill="#999999" stroke="black" stroke-width="0.50025"/>
<path d="M19.2188 62.0833V36.25H31.6812V62.0833H19.2188Z" fill="#999999" stroke="black" stroke-width="0.50025"/>
<path d="M34.6846 62.0833V36.25H47.147V62.0833H34.6846Z" fill="#999999" stroke="black" stroke-width="0.50025"/>
<path d="M50.1504 62.0833V36.25H62.6129V62.0833H50.1504Z" fill="#999999" stroke="black" stroke-width="0.50025"/>
<path d="M130.631 147.917L149.249 122.083V36.25L130.631 62.0833V147.917Z" fill="#999999" stroke="black" stroke-width="0.50025"/>
<path d="M65.6152 62.0827L84.2339 36.2494V1.66602L65.6152 27.4993V62.0827Z" fill="#999999" stroke="black" stroke-width="0.50025"/>
</svg>
