<svg width="150" height="150" viewBox="0 0 150 150" fill="none" xmlns="http://www.w3.org/2000/svg">
<g clip-path="url(#clip0_2109_168336)">
<path d="M0 7.42773H135.135V149.999H0V7.42773Z" fill="#006633" stroke="black" stroke-width="0.414247"/>
<path d="M0 7.42773H135.135V149.999H0V7.42773Z" stroke="black" stroke-width="0.414247"/>
<path d="M128.528 7.42773H133.784V149.999H128.528V7.42773Z" fill="#669966" stroke="black" stroke-width="0.414247"/>
<path d="M120.721 7.42773H126.426V149.999H120.721V7.42773Z" fill="#669966" stroke="black" stroke-width="0.414247"/>
<path d="M113.363 7.42773H118.919V149.999H113.363V7.42773Z" fill="#669966" stroke="black" stroke-width="0.414247"/>
<path d="M105.855 7.42773H111.561V149.999H105.855V7.42773Z" fill="#669966" stroke="black" stroke-width="0.414247"/>
<path d="M98.498 7.42773H104.204V149.999H98.498V7.42773Z" fill="#669966" stroke="black" stroke-width="0.414247"/>
<path d="M90.9912 7.42773H96.2465V149.999H90.9912V7.42773Z" fill="#669966" stroke="black" stroke-width="0.414247"/>
<path d="M83.1836 7.42773H88.8893V149.999H83.1836V7.42773Z" fill="#669966" stroke="black" stroke-width="0.414247"/>
<path d="M75.8262 7.42773H81.5319V149.999H75.8262V7.42773Z" fill="#669966" stroke="black" stroke-width="0.414247"/>
<path d="M68.3184 7.42773H74.0241V149.999H68.3184V7.42773Z" fill="#669966" stroke="black" stroke-width="0.414247"/>
<path d="M60.9609 7.42773H66.6666V149.999H60.9609V7.42773Z" fill="#669966" stroke="black" stroke-width="0.414247"/>
<path d="M53.6035 7.42773H58.8588V149.999H53.6035V7.42773Z" fill="#669966" stroke="black" stroke-width="0.414247"/>
<path d="M45.6455 7.42773H51.3512V149.999H45.6455V7.42773Z" fill="#669966" stroke="black" stroke-width="0.414247"/>
<path d="M38.2881 7.42773H43.9938V149.999H38.2881V7.42773Z" fill="#669966" stroke="black" stroke-width="0.414247"/>
<path d="M30.9307 7.42773H36.4862V149.999H30.9307V7.42773Z" fill="#669966" stroke="black" stroke-width="0.414247"/>
<path d="M23.4238 7.42773H29.1295V149.999H23.4238V7.42773Z" fill="#669966" stroke="black" stroke-width="0.414247"/>
<path d="M16.0664 7.42773H21.3217V149.999H16.0664V7.42773Z" fill="#669966" stroke="black" stroke-width="0.414247"/>
<path d="M8.25781 7.42773H13.8134V149.999H8.25781V7.42773Z" fill="#669966" stroke="black" stroke-width="0.414247"/>
<path d="M0.750977 7.42773H6.45668V149.999H0.750977V7.42773Z" fill="#669966" stroke="black" stroke-width="0.414247"/>
<path d="M135.135 149.999L150 129.999V1.42773L135.135 7.42773V149.999Z" fill="#006633" stroke="black" stroke-width="0.414247"/>
<path d="M0 4L14.7147 0H150L135.135 4H0Z" fill="#333333" stroke="black" stroke-width="0.414247"/>
<path d="M43.9941 7.42773H45.6458V149.999H43.9941V7.42773Z" fill="#333333" stroke="black" stroke-width="0.414247"/>
<path d="M88.8887 7.42773H90.9908V149.999H88.8887V7.42773Z" fill="#333333" stroke="black" stroke-width="0.414247"/>
<path d="M48.7988 71.1426H63.6637V150H48.7988V71.1426Z" fill="#333333" stroke="black" stroke-width="0.414247"/>
<path d="M135.135 7.42857L150 1.42857V0L135.135 4V7.42857Z" fill="#339966" stroke="black" stroke-width="0.414247"/>
<path d="M0 7.42857H135.135V4H0V7.42857Z" fill="#99CC99" stroke="black" stroke-width="0.414247"/>
<path d="M50 72.8574H63.2132V149.143H50V72.8574Z" fill="#009933" stroke="black" stroke-width="0.414247"/>
<path d="M147.297 3.99972V133.428L149.549 130V3.14258L147.297 3.99972Z" fill="#009933" stroke="black" stroke-width="0.414247"/>
<path d="M144.294 4.85714V136L146.846 134.286V4L144.294 4.85714Z" fill="#009933" stroke="black" stroke-width="0.414247"/>
<path d="M141.592 5.71456V140L143.844 137.715V4.85742L141.592 5.71456Z" fill="#009933" stroke="black" stroke-width="0.414247"/>
<path d="M138.589 6.57199V144.286L141.141 140.858V5.71484L138.589 6.57199Z" fill="#009933" stroke="black" stroke-width="0.414247"/>
<path d="M136.036 7.42941V146.858L138.138 145.144V6.57227L136.036 7.42941Z" fill="#009933" stroke="black" stroke-width="0.414247"/>
<path d="M61.4116 110.285L62.3125 111.999L61.4116 113.428L60.5107 111.999L61.4116 110.285Z" fill="#333333" stroke="black" stroke-width="0.414247"/>
</g>
<defs>
<clipPath id="clip0_2109_168336">
<rect width="150" height="150" fill="white"/>
</clipPath>
</defs>
</svg>
