<svg width="150" height="150" viewBox="0 0 150 150" fill="none" xmlns="http://www.w3.org/2000/svg">
<g clip-path="url(#clip0_2109_167655)">
<path d="M43.9941 148.513L68.7689 124.108V1.19141L43.9941 25.8938V148.513Z" fill="#999999" stroke="black" stroke-width="0.422789"/>
<path d="M87.2373 148.512H130.631V75H87.2373V148.512Z" fill="#CCCCCC" stroke="black" stroke-width="0.422789"/>
<path d="M56.3066 136.31H87.2376V87.2031H56.3066V136.31Z" fill="#CCCCCC" stroke="black" stroke-width="0.422789"/>
<path d="M0.600586 148.512H43.994V25.8926H0.600586V148.512Z" fill="#CCCCCC" stroke="black" stroke-width="0.422789"/>
<path d="M130.631 148.511L149.249 130.059V56.5469L130.631 74.9993V148.511Z" fill="#999999" stroke="black" stroke-width="0.422789"/>
<path d="M0.600586 25.8938L25.3754 1.19141H68.7688L43.994 25.8938H0.600586Z" fill="#E5E5E5" stroke="black" stroke-width="0.422789"/>
<path d="M56.3066 87.2024L68.7691 75H87.2376V87.2024H56.3066Z" fill="#E5E5E5" stroke="black" stroke-width="0.422789"/>
<path d="M87.2373 74.9993L105.856 56.5469H149.249L130.631 74.9993H87.2373Z" fill="#E5E5E5" stroke="black" stroke-width="0.422789"/>
<path d="M90.3906 142.261V130.654H98.1984V142.261H90.3906Z" fill="#999999" stroke="black" stroke-width="0.422789"/>
<path d="M100.15 142.261V130.654H107.958V142.261H100.15Z" fill="#999999" stroke="black" stroke-width="0.422789"/>
<path d="M109.91 142.261V130.654H117.718V142.261H109.91Z" fill="#999999" stroke="black" stroke-width="0.422789"/>
<path d="M119.67 142.261V130.654H127.478V142.261H119.67Z" fill="#999999" stroke="black" stroke-width="0.422789"/>
<path d="M90.3906 98.8103V87.2031H98.1984V98.8103H90.3906Z" fill="#999999" stroke="black" stroke-width="0.422789"/>
<path d="M100.15 98.8103V87.2031H107.958V98.8103H100.15Z" fill="#999999" stroke="black" stroke-width="0.422789"/>
<path d="M109.91 98.8103V87.2031H117.718V98.8103H109.91Z" fill="#999999" stroke="black" stroke-width="0.422789"/>
<path d="M119.67 98.8103V87.2031H127.478V98.8103H119.67Z" fill="#999999" stroke="black" stroke-width="0.422789"/>
<path d="M69.9697 136.31V117.857H81.0808V136.31H69.9697Z" fill="#999999" stroke="black" stroke-width="0.422789"/>
<path d="M3.75391 50.2981V38.0957H40.841V50.2981H3.75391Z" fill="#999999" stroke="black" stroke-width="0.422789"/>
<path d="M3.75391 74.9993V62.7969H40.841V74.9993H3.75391Z" fill="#999999" stroke="black" stroke-width="0.422789"/>
<path d="M133.784 142.262V130.655L136.337 127.977V139.584L133.784 142.262Z" fill="#666666" stroke="black" stroke-width="0.422789"/>
<path d="M136.937 138.989V127.382L139.639 124.703V136.31L136.937 138.989Z" fill="#666666" stroke="black" stroke-width="0.422789"/>
<path d="M140.24 135.713V124.106L142.793 121.428V133.035L140.24 135.713Z" fill="#666666" stroke="black" stroke-width="0.422789"/>
<path d="M143.544 132.44V120.833L146.096 118.154V129.761L143.544 132.44Z" fill="#666666" stroke="black" stroke-width="0.422789"/>
<path d="M133.784 98.8092V87.202L136.337 84.5234V96.1306L133.784 98.8092Z" fill="#666666" stroke="black" stroke-width="0.422789"/>
<path d="M136.937 95.5357V83.9286L139.639 81.25V92.8571L136.937 95.5357Z" fill="#666666" stroke="black" stroke-width="0.422789"/>
<path d="M140.24 92.2623V80.6551L142.793 77.9766V89.5837L140.24 92.2623Z" fill="#666666" stroke="black" stroke-width="0.422789"/>
<path d="M143.544 88.9888V77.3817L146.096 74.7031V86.3103L143.544 88.9888Z" fill="#666666" stroke="black" stroke-width="0.422789"/>
<path d="M47.1475 50.2971V38.0947L65.6159 20.5352V32.7375L47.1475 50.2971Z" fill="#666666" stroke="black" stroke-width="0.422789"/>
<path d="M47.1475 75.0009V62.7985L65.6159 44.9414V57.1438L47.1475 75.0009Z" fill="#666666" stroke="black" stroke-width="0.422789"/>
<path d="M75.5254 117.857V136.31" stroke="black" stroke-width="0.422789"/>
</g>
<defs>
<clipPath id="clip0_2109_167655">
<rect width="150" height="150" fill="white"/>
</clipPath>
</defs>
</svg>
