<svg width="150" height="150" viewBox="0 0 150 150" fill="none" xmlns="http://www.w3.org/2000/svg">
<g clip-path="url(#clip0_2109_167206)">
<path d="M124.775 85.209H0V150H124.775V85.209Z" fill="#E5E5E5" stroke="black" stroke-width="0.485631"/>
<path d="M150 68.7168H24.7748L0 85.2089H124.775L150 68.7168Z" fill="#999999" stroke="black" stroke-width="0.485631"/>
<path d="M113.964 134.293H104.354V109.555H113.964V134.293Z" fill="#7F7F7F" stroke="black" stroke-width="0.485631"/>
<path d="M98.3479 134.293H88.7383V109.555H98.3479V134.293Z" fill="#7F7F7F" stroke="black" stroke-width="0.485631"/>
<path d="M82.5827 134.293H73.2734V109.555H82.5827V134.293Z" fill="#7F7F7F" stroke="black" stroke-width="0.485631"/>
<path d="M66.9675 134.293H57.6582V109.555H66.9675V134.293Z" fill="#7F7F7F" stroke="black" stroke-width="0.485631"/>
<path d="M51.3513 150H42.042V109.555H51.3513V150Z" fill="#7F7F7F" stroke="black" stroke-width="0.485631"/>
<path d="M35.7353 134.293H26.5762V109.555H35.7353V134.293Z" fill="#7F7F7F" stroke="black" stroke-width="0.485631"/>
<path d="M20.1199 134.293H10.8105V109.555H20.1199V134.293Z" fill="#7F7F7F" stroke="black" stroke-width="0.485631"/>
<path d="M35.7355 133.509H27.9277V113.482H35.7355V133.509Z" fill="white" stroke="black" stroke-width="0.485631"/>
<path d="M20.1203 133.509H12.3125V113.482H20.1203V133.509Z" fill="white" stroke="black" stroke-width="0.485631"/>
<path d="M98.3488 133.509H90.541V113.482H98.3488V133.509Z" fill="white" stroke="black" stroke-width="0.485631"/>
<path d="M113.964 133.509H106.156V113.482H113.964V133.509Z" fill="white" stroke="black" stroke-width="0.485631"/>
<path d="M66.967 133.509H59.1592V113.482H66.967V133.509Z" fill="white" stroke="black" stroke-width="0.485631"/>
<path d="M82.5822 133.509H74.7744V113.482H82.5822V133.509Z" fill="white" stroke="black" stroke-width="0.485631"/>
<path d="M51.3518 150.001H43.5439V114.268H51.3518V150.001Z" fill="#CCCCCC" stroke="black" stroke-width="0.485631"/>
<path d="M124.774 85.2089L150 68.7168V133.507L124.774 150V85.2089Z" fill="#CCCCCC" stroke="black" stroke-width="0.485631"/>
<path d="M112.162 75L113.363 1.96335L113.513 1.17801L113.964 0.39267L115.015 0H116.667L116.967 0.39267L117.417 1.17801L117.568 1.96335L118.468 75L117.267 76.9633L115.465 77.356L113.664 76.9633L112.312 75.3927L112.162 75Z" fill="#7F7F7F" stroke="black" stroke-width="0.485631"/>
<path d="M93.6934 75L94.5943 1.96335L94.7444 1.17801L95.1949 0.39267L96.2459 0H97.8976L98.1979 0.39267L98.6483 1.17801L98.7985 1.96335L99.9997 75L99.8495 75.3927L98.4982 76.9633L96.6964 77.356L94.8946 76.9633L93.6934 75.3927V75Z" fill="#7F7F7F" stroke="black" stroke-width="0.485631"/>
<path d="M74.7744 75L75.9756 1.96335L76.1258 1.17801L76.5762 0.39267L77.6273 0H78.9786L79.2789 0.39267L79.7294 1.17801L79.8795 1.96335L81.0807 75V75.3927L79.7294 76.9633L78.0777 77.356L76.2759 76.9633L74.7744 75.3927V75Z" fill="#7F7F7F" stroke="black" stroke-width="0.485631"/>
<path d="M55.8555 75L57.0567 1.96335L57.2068 1.17801L57.6573 0.39267L58.7083 0H60.36L60.6603 0.39267L61.1107 1.17801L61.2609 1.96335L62.1618 75L60.9606 76.9633L59.1588 77.356L57.357 76.9633L56.0056 75.3927L55.8555 75Z" fill="#7F7F7F" stroke="black" stroke-width="0.485631"/>
<path d="M37.3877 75L38.2886 1.96335L38.4387 1.17801L38.8892 0.39267L39.9402 0H41.5919L41.8922 0.39267L42.3427 1.17801L42.4928 1.96335L43.694 75L43.5439 75.3927L42.1925 76.9633L40.3907 77.356L38.739 76.9633L37.3877 75.3927V75Z" fill="#7F7F7F" stroke="black" stroke-width="0.485631"/>
<path d="M113.363 75L113.964 1.96335L114.114 1.17801L114.414 0.39267L115.165 0L116.366 0.39267L116.516 1.17801L116.667 1.96335L117.567 75L116.366 76.9633L115.465 77.356L113.964 76.5707L113.363 75Z" fill="#B2B2B2"/>
<path d="M94.5947 75L95.1953 1.96335L96.3965 0L97.7479 0.39267L98.0482 1.17801L98.1983 1.96335L98.7989 75L97.4476 76.9633L96.6968 77.356L95.1953 76.5707L94.5947 75Z" fill="#B2B2B2"/>
<path d="M75.9756 75L76.5762 1.96335L76.7263 1.17801L77.0266 0.39267L77.7774 0L78.9786 0.39267L79.1287 1.17801L79.2789 1.96335L79.8795 75L78.6783 76.9633L78.0777 77.356L76.5762 76.5707L75.9756 75Z" fill="#B2B2B2"/>
<path d="M57.0566 75L57.6572 1.96335L57.8074 1.17801L58.1077 0.39267L58.8584 0L60.2098 0.39267L60.6602 1.96335L61.2608 75L60.0596 76.9633L59.1587 77.356L57.6572 76.5707L57.0566 75Z" fill="#B2B2B2"/>
<path d="M38.2881 75L39.189 1.96335V1.17801L39.4893 0.39267L40.3902 0L41.4412 0.39267L41.7415 1.17801L41.8917 1.96335L42.4923 75L41.1409 76.9633L40.3902 77.356L38.8887 76.5707L38.2881 75Z" fill="#B2B2B2"/>
<path d="M115.316 76.9633C115.564 76.9633 115.766 59.7345 115.766 38.4817C115.766 17.2288 115.564 0 115.316 0C115.067 0 114.865 17.2288 114.865 38.4817C114.865 59.7345 115.067 76.9633 115.316 76.9633Z" fill="#E5E5E5"/>
<path d="M96.6963 76.9633C97.028 76.9633 97.2969 59.7345 97.2969 38.4817C97.2969 17.2288 97.028 0 96.6963 0C96.3646 0 96.0957 17.2288 96.0957 38.4817C96.0957 59.7345 96.3646 76.9633 96.6963 76.9633Z" fill="#E5E5E5"/>
<path d="M77.928 76.9633C78.1768 76.9633 78.3784 59.7345 78.3784 38.4817C78.3784 17.2288 78.1768 0 77.928 0C77.6792 0 77.4775 17.2288 77.4775 38.4817C77.4775 59.7345 77.6792 76.9633 77.928 76.9633Z" fill="#E5E5E5"/>
<path d="M59.1592 76.9633C59.4909 76.9633 59.7598 59.7345 59.7598 38.4817C59.7598 17.2288 59.4909 0 59.1592 0C58.8275 0 58.5586 17.2288 58.5586 38.4817C58.5586 59.7345 58.8275 76.9633 59.1592 76.9633Z" fill="#E5E5E5"/>
<path d="M40.5403 76.9633C40.7891 76.9633 40.9907 59.7345 40.9907 38.4817C40.9907 17.2288 40.7891 0 40.5403 0C40.2915 0 40.0898 17.2288 40.0898 38.4817C40.0898 59.7345 40.2915 76.9633 40.5403 76.9633Z" fill="#E5E5E5"/>
</g>
<defs>
<clipPath id="clip0_2109_167206">
<rect width="150" height="150" fill="white"/>
</clipPath>
</defs>
</svg>
