<svg width="150" height="150" viewBox="0 0 150 150" fill="none" xmlns="http://www.w3.org/2000/svg">
<g clip-path="url(#clip0_2109_168683)">
<path d="M125.075 21.3551L150 0V128.388L125.075 150V21.3551Z" fill="#996633" stroke="black" stroke-width="0.393101"/>
<path d="M140.691 79.502L134.385 85.4196L134.234 127.872L140.541 121.955L140.691 79.502Z" fill="#4C4C4C"/>
<path d="M140.691 26.5L134.385 32.4177L134.234 74.8705L140.541 68.9528L140.691 26.5Z" fill="#4C4C4C"/>
<path d="M0 21.3555H125.075V150H0V21.3555Z" fill="#CC9966" stroke="black" stroke-width="0.393101"/>
<path d="M125.075 21.3551L150 0H24.7748L0 21.3551H125.075Z" fill="#FFCC99" stroke="black" stroke-width="0.393101"/>
<path d="M112.463 37.3066H100.15V79.5022H112.463V37.3066Z" fill="#7F7F7F"/>
<path d="M90.5408 37.3066H78.2285V79.5022H90.5408V37.3066Z" fill="#7F7F7F"/>
<path d="M68.619 37.3066H56.3066V79.5022H68.619V37.3066Z" fill="#7F7F7F"/>
<path d="M46.6971 37.3066H34.3848V79.5022H46.6971V37.3066Z" fill="#7F7F7F"/>
<path d="M24.7752 37.3066H12.4629V79.5022H24.7752V37.3066Z" fill="#7F7F7F"/>
<path d="M112.463 90.8242H100.15V133.02H112.463V90.8242Z" fill="#7F7F7F"/>
<path d="M90.5408 90.8242H78.2285V133.02H90.5408V90.8242Z" fill="#7F7F7F"/>
<path d="M68.619 90.8242H56.3066V133.02H68.619V90.8242Z" fill="#7F7F7F"/>
<path d="M46.6971 90.8242H34.3848V133.02H46.6971V90.8242Z" fill="#7F7F7F"/>
<path d="M24.7752 90.8242H12.4629V133.02H24.7752V90.8242Z" fill="#7F7F7F"/>
<path d="M13.9639 90.8242H24.7747V130.447H13.9639V90.8242Z" fill="#CBE5E5"/>
<path d="M35.8857 90.8242H46.6966V130.447H35.8857V90.8242Z" fill="#CBE5E5"/>
<path d="M57.8076 90.8242H68.6184V130.447H57.8076V90.8242Z" fill="#CBE5E5"/>
<path d="M79.7295 90.8242H90.5403V130.447H79.7295V90.8242Z" fill="#CBE5E5"/>
<path d="M101.651 90.8242H112.462V130.447H101.651V90.8242Z" fill="#CBE5E5"/>
<path d="M101.651 37.3066H112.462V76.9293H101.651V37.3066Z" fill="#CBE5E5"/>
<path d="M79.7295 37.3066H90.5403V76.9293H79.7295V37.3066Z" fill="#CBE5E5"/>
<path d="M57.8076 37.3066H68.6184V76.9293H57.8076V37.3066Z" fill="#CBE5E5"/>
<path d="M35.8857 37.3066H46.6966V76.9293H35.8857V37.3066Z" fill="#CBE5E5"/>
<path d="M13.9639 37.3066H24.7747V76.9293H13.9639V37.3066Z" fill="#CBE5E5"/>
<path d="M13.9639 90.8242V96.9992L24.7747 91.5961V90.8242H13.9639Z" fill="#B3D9D9"/>
<path d="M35.8857 90.8242V96.9992L46.6966 91.5961V90.8242H35.8857Z" fill="#B3D9D9"/>
<path d="M57.8076 90.8242V96.9992L68.6184 91.5961V90.8242H57.8076Z" fill="#B3D9D9"/>
<path d="M79.7295 90.8242V96.9992L90.5403 91.5961V90.8242H79.7295Z" fill="#B3D9D9"/>
<path d="M101.651 90.8242V96.9992L112.462 91.5961V90.8242H101.651Z" fill="#B3D9D9"/>
<path d="M101.651 37.3066V43.4816L112.462 38.0785V37.3066H101.651Z" fill="#B3D9D9"/>
<path d="M79.7295 37.3066V43.4816L90.5403 38.0785V37.3066H79.7295Z" fill="#B3D9D9"/>
<path d="M57.8076 37.3066V43.4816L68.6184 38.0785V37.3066H57.8076Z" fill="#B3D9D9"/>
<path d="M35.8857 37.3066V43.4816L46.6966 38.0785V37.3066H35.8857Z" fill="#B3D9D9"/>
<path d="M13.9639 37.3066V43.4816L24.7747 38.0785V37.3066H13.9639Z" fill="#B3D9D9"/>
<path d="M135.135 84.6478L140.69 79.502L140.54 119.125L135.135 124.27V84.6478Z" fill="#98B2B2"/>
<path d="M135.135 31.6458L140.69 26.5L140.54 66.1226L135.135 71.5257V31.6458Z" fill="#98B2B2"/>
<path d="M135.135 31.6458V37.8208L140.69 27.2719V26.5L135.135 31.6458Z" fill="#80A6A6"/>
<path d="M135.135 84.6478V90.8227L140.69 80.2738V79.502L135.135 84.6478Z" fill="#80A6A6"/>
</g>
<defs>
<clipPath id="clip0_2109_168683">
<rect width="150" height="150" fill="white"/>
</clipPath>
</defs>
</svg>
