<svg width="150" height="150" viewBox="0 0 150 150" fill="none" xmlns="http://www.w3.org/2000/svg">
<path d="M0.600586 30.6621H128.078V147.927H0.600586V30.6621Z" fill="#E5E5E5" stroke="black" stroke-width="0.498866"/>
<path d="M128.078 30.6637L149.249 1.6582V118.923L128.078 147.929V30.6637Z" fill="#B2B2B2" stroke="black" stroke-width="0.498866"/>
<path d="M128.078 30.6637L149.249 1.6582H21.7718L0.600586 30.6637H128.078Z" fill="#CCCCCC" stroke="black" stroke-width="0.498866"/>
<path d="M108.559 50.5527H126.276V147.928H108.559V50.5527Z" fill="#D9D9D9" stroke="black" stroke-width="0.498866"/>
<path d="M142.793 30.2482L148.649 21.9609V70.856L142.793 78.7289V30.2482Z" fill="#CBE5E5"/>
<path d="M135.735 39.7795L141.591 31.4922V80.3872L135.735 88.6745V39.7795Z" fill="#CBE5E5"/>
<path d="M128.679 49.7228L134.535 41.4355V90.3306L128.679 98.6179V49.7228Z" fill="#CBE5E5"/>
<path d="M110.36 55.1113H124.474V94.476H110.36V55.1113Z" fill="#CBE5E5"/>
<path d="M87.3877 50.5527H104.955V99.0334H87.3877V50.5527Z" fill="#CBE5E5"/>
<path d="M66.0664 50.5527H83.7841V99.0334H66.0664V50.5527Z" fill="#CBE5E5"/>
<path d="M44.8945 50.5527H62.4621V99.0334H44.8945V50.5527Z" fill="#CBE5E5"/>
<path d="M23.5732 50.5527H41.291V99.0334H23.5732V50.5527Z" fill="#CBE5E5"/>
<path d="M2.40234 50.5527H19.9699V99.0334H2.40234V50.5527Z" fill="#CBE5E5"/>
<path d="M118.468 79.558L115.165 89.5028L119.369 79.9724L122.222 69.6133L118.468 79.558Z" fill="#B3D9D9"/>
<path d="M110.511 55.5254V67.542L124.325 56.7685V55.5254H110.511Z" fill="#B3D9D9"/>
<path d="M97.4476 80.386L93.3936 92.817L98.6488 81.2147L102.252 67.9551L97.4476 80.386Z" fill="#B3D9D9"/>
<path d="M87.5371 50.9668V65.8839L104.804 52.6243V50.9668H87.5371Z" fill="#B3D9D9"/>
<path d="M76.2765 80.386L72.0723 92.817L77.3275 81.2147L80.9311 67.9551L76.2765 80.386Z" fill="#B3D9D9"/>
<path d="M66.2158 50.9668V65.8839L83.6332 52.6243V50.9668H66.2158Z" fill="#B3D9D9"/>
<path d="M54.9544 80.386L50.9004 92.817L56.1556 81.2147L59.7592 67.9551L54.9544 80.386Z" fill="#B3D9D9"/>
<path d="M45.0449 50.9668V65.8839L62.3122 52.6243V50.9668H45.0449Z" fill="#B3D9D9"/>
<path d="M33.7843 80.386L29.5801 92.817L34.8353 81.2147L38.4389 67.9551L33.7843 80.386Z" fill="#B3D9D9"/>
<path d="M23.7236 50.9668V65.8839L41.1411 52.6243V50.9668H23.7236Z" fill="#B3D9D9"/>
<path d="M12.4623 80.386L8.4082 92.817L13.6635 81.2147L17.2671 67.9551L12.4623 80.386Z" fill="#B3D9D9"/>
<path d="M2.55273 50.9668V65.8839L19.82 52.6243V50.9668H2.55273Z" fill="#B3D9D9"/>
<path d="M146.246 55.5242L144.895 69.6126L146.546 55.5242L147.747 41.0215L146.246 55.5242Z" fill="#B3D9D9"/>
<path d="M142.943 30.2479V45.5794L148.649 24.0325V22.375L142.943 30.2479Z" fill="#B3D9D9"/>
<path d="M139.039 65.4699L137.688 79.5583L139.489 65.0555L140.691 50.5527L139.039 65.4699Z" fill="#B3D9D9"/>
<path d="M135.735 40.1932V55.1104L141.591 33.9778V32.3203L135.735 40.1932Z" fill="#B3D9D9"/>
<path d="M131.982 75.0008L130.631 89.5036L132.433 75.0008L133.634 60.498L131.982 75.0008Z" fill="#B3D9D9"/>
<path d="M128.679 50.1389V65.056L134.384 43.509V41.8516L128.679 50.1389Z" fill="#B3D9D9"/>
<path d="M120.27 58.0117L116.517 66.7134L114.114 77.0725L117.718 65.8846L120.27 58.0117Z" fill="white"/>
<path d="M112.763 90.3315L117.868 78.7293L121.171 64.2266L116.216 79.5581L112.763 90.3315Z" fill="white"/>
<path d="M120.12 90.3309L121.922 86.1872L123.123 81.2148L121.321 86.1872L120.12 90.3309Z" fill="white"/>
<path d="M99.6996 53.8672L95.045 64.6407L92.042 77.486L96.5465 63.8119L99.6996 53.8672Z" fill="white"/>
<path d="M90.2402 94.0607L96.6967 79.5579L100.901 61.7402L94.5946 80.3866L90.2402 94.0607Z" fill="white"/>
<path d="M99.5498 94.0609L101.802 89.0885L103.304 82.873L101.201 89.0885L99.5498 94.0609Z" fill="white"/>
<path d="M78.5288 53.8672L73.8741 64.6407L70.8711 77.486L75.3756 63.8119L78.5288 53.8672Z" fill="white"/>
<path d="M69.0693 94.0607L75.5258 79.5579L79.5798 61.7402L73.4237 80.3866L69.0693 94.0607Z" fill="white"/>
<path d="M78.3779 94.0609L80.6302 89.0885L82.1317 82.873L79.8794 89.0885L78.3779 94.0609Z" fill="white"/>
<path d="M57.2075 53.8672L52.5528 64.6407L49.5498 77.486L54.0543 63.8119L57.2075 53.8672Z" fill="white"/>
<path d="M47.748 94.0607L54.2045 79.5579L58.4087 61.7402L52.1024 80.3866L47.748 94.0607Z" fill="white"/>
<path d="M57.0566 94.0609L59.3089 89.0885L60.8104 82.873L58.7083 89.0885L57.0566 94.0609Z" fill="white"/>
<path d="M36.0356 53.8672L31.3809 64.6407L28.3779 77.486L32.8824 63.8119L36.0356 53.8672Z" fill="white"/>
<path d="M26.5762 94.0607L33.0326 79.5579L37.0867 61.7402L30.9305 80.3866L26.5762 94.0607Z" fill="white"/>
<path d="M35.8857 94.0609L38.138 89.0885L39.6395 82.873L37.3872 89.0885L35.8857 94.0609Z" fill="white"/>
<path d="M14.7143 53.8672L10.0596 64.6407L7.05664 77.486L11.5611 63.8119L14.7143 53.8672Z" fill="white"/>
<path d="M5.25488 94.0607L11.7113 79.5579L15.9155 61.7402L9.60924 80.3866L5.25488 94.0607Z" fill="white"/>
<path d="M14.5645 94.0609L16.8167 89.0885L18.3182 82.873L16.2161 89.0885L14.5645 94.0609Z" fill="white"/>
<path d="M146.997 27.7617L145.345 40.607L144.444 54.6954L145.946 39.3639L146.997 27.7617Z" fill="white"/>
<path d="M143.844 72.0992L145.946 54.6958L147.297 35.2207L145.195 56.7677L143.844 72.0992Z" fill="white"/>
<path d="M146.847 67.9566L147.597 61.7412L148.198 55.1113L147.447 62.5699L146.847 67.9566Z" fill="white"/>
<path d="M139.79 37.707L138.288 50.5523L137.237 64.6407L138.739 48.8949L139.79 37.707Z" fill="white"/>
<path d="M136.637 82.0448L138.889 64.6415L140.24 44.752L138.138 66.7133L136.637 82.0448Z" fill="white"/>
<path d="M139.79 77.9003L140.541 71.6848L140.991 64.6406L140.391 72.0992L139.79 77.9003Z" fill="white"/>
<path d="M132.732 47.2383L131.231 60.0836L130.18 74.172L131.681 58.8405L132.732 47.2383Z" fill="white"/>
<path d="M129.58 91.9881L131.832 74.1705L133.184 54.6953L131.082 76.2423L129.58 91.9881Z" fill="white"/>
<path d="M132.732 87.4312L133.483 81.2158L133.934 74.5859L133.183 82.0445L132.732 87.4312Z" fill="white"/>
<path d="M113.213 66.7119L116.066 60.082" stroke="white" stroke-width="0.498866"/>
<path d="M111.862 72.0996L114.415 66.7129" stroke="white" stroke-width="0.498866"/>
<path d="M90.8408 64.6408L94.4444 56.3535" stroke="white" stroke-width="0.498866"/>
<path d="M89.1895 71.6848L92.4928 64.6406" stroke="white" stroke-width="0.498866"/>
<path d="M69.6699 64.6408L73.2735 56.3535" stroke="white" stroke-width="0.498866"/>
<path d="M68.0176 71.6848L71.1707 64.6406" stroke="white" stroke-width="0.498866"/>
<path d="M48.3486 64.6408L51.9522 56.3535" stroke="white" stroke-width="0.498866"/>
<path d="M46.6963 71.6848L49.9996 64.6406" stroke="white" stroke-width="0.498866"/>
<path d="M27.1768 64.6408L30.7804 56.3535" stroke="white" stroke-width="0.498866"/>
<path d="M25.5254 71.6848L28.6785 64.6406" stroke="white" stroke-width="0.498866"/>
<path d="M5.85547 64.6408L9.45907 56.3535" stroke="white" stroke-width="0.498866"/>
<path d="M4.2041 71.6848L7.5074 64.6406" stroke="white" stroke-width="0.498866"/>
<path d="M129.88 62.1554L131.081 52.625" stroke="white" stroke-width="0.498866"/>
<path d="M129.279 70.0278L130.33 61.3262" stroke="white" stroke-width="0.498866"/>
<path d="M136.937 52.2101L138.138 42.6797" stroke="white" stroke-width="0.498866"/>
<path d="M136.336 60.0825L137.387 51.3809" stroke="white" stroke-width="0.498866"/>
<path d="M143.994 42.6791L145.195 32.7344" stroke="white" stroke-width="0.498866"/>
<path d="M143.394 50.5532L144.445 41.8516" stroke="white" stroke-width="0.498866"/>
<path d="M110.36 104.006C110.857 104.006 111.261 102.892 111.261 101.519C111.261 100.146 110.857 99.0332 110.36 99.0332C109.862 99.0332 109.459 100.146 109.459 101.519C109.459 102.892 109.862 104.006 110.36 104.006Z" fill="#333333"/>
<path d="M109.91 101.519C110.076 101.519 110.21 101.148 110.21 100.69C110.21 100.232 110.076 99.8613 109.91 99.8613C109.744 99.8613 109.609 100.232 109.609 100.69C109.609 101.148 109.744 101.519 109.91 101.519Z" fill="white"/>
<path d="M142.793 78.7289V30.2482L148.649 21.9609" stroke="black" stroke-width="0.498866"/>
<path d="M135.735 88.6745V39.7795L141.591 31.4922" stroke="black" stroke-width="0.498866"/>
<path d="M128.679 98.6179V49.7228L134.535 41.4355" stroke="black" stroke-width="0.498866"/>
<path d="M110.36 94.476V55.1113H124.474" stroke="black" stroke-width="0.498866"/>
<path d="M87.3877 99.0334V50.5527H104.955" stroke="black" stroke-width="0.498866"/>
<path d="M66.0664 99.0334V50.5527H83.7841" stroke="black" stroke-width="0.498866"/>
<path d="M44.8945 99.0334V50.5527H62.4621" stroke="black" stroke-width="0.498866"/>
<path d="M23.5732 99.0334V50.5527H41.291" stroke="black" stroke-width="0.498866"/>
<path d="M2.40234 99.0334V50.5527H19.9699" stroke="black" stroke-width="0.498866"/>
<path d="M135.135 21.1328V138.398" stroke="black" stroke-width="0.498866"/>
<path d="M142.192 11.1875V128.453" stroke="black" stroke-width="0.498866"/>
<path d="M21.7715 30.6621V147.927" stroke="black" stroke-width="0.498866"/>
<path d="M43.0928 30.6621V147.927" stroke="black" stroke-width="0.498866"/>
<path d="M64.2646 30.6621V147.927" stroke="black" stroke-width="0.498866"/>
<path d="M85.5859 30.6621V147.927" stroke="black" stroke-width="0.498866"/>
<path d="M106.757 30.6621V147.927" stroke="black" stroke-width="0.498866"/>
<path d="M148.649 21.9609V70.856L142.793 78.7289" stroke="white" stroke-width="0.498866"/>
<path d="M141.591 31.4922V80.3872L135.735 88.6745" stroke="white" stroke-width="0.498866"/>
<path d="M134.535 41.4355V90.3306L128.679 98.6179" stroke="white" stroke-width="0.498866"/>
<path d="M124.474 55.1113V94.476H110.36" stroke="white" stroke-width="0.498866"/>
<path d="M104.955 50.5527V99.0334H87.3877" stroke="white" stroke-width="0.498866"/>
<path d="M83.7841 50.5527V99.0334H66.0664" stroke="white" stroke-width="0.498866"/>
<path d="M62.4621 50.5527V99.0334H44.8945" stroke="white" stroke-width="0.498866"/>
<path d="M41.291 50.5527V99.0334H23.5732" stroke="white" stroke-width="0.498866"/>
<path d="M19.9699 50.5527V99.0334H2.40234" stroke="white" stroke-width="0.498866"/>
</svg>
