<svg width="150" height="150" viewBox="0 0 150 150" fill="none" xmlns="http://www.w3.org/2000/svg">
<g clip-path="url(#clip0_2109_167241)">
<path d="M119.648 52.4024L116.789 0H109.751L107.111 52.4024H119.648Z" fill="#B2B2B2"/>
<path d="M117.889 52.4024L115.909 0H110.851L108.871 52.4024H117.889Z" fill="#CCCCCC"/>
<path d="M115.03 52.4024L114.37 0H112.391L111.511 52.4024H115.03Z" fill="white"/>
<path d="M119.648 52.4024L116.789 0H109.751L107.111 52.4024H119.648Z" stroke="black" stroke-width="0.363451"/>
<path d="M142.742 120.721L150 118.168H142.742V120.721Z" fill="#E5B27F" stroke="black" stroke-width="0.363451"/>
<path d="M28.3721 106.006H128.445L142.742 103.604H56.9644L28.3721 106.006Z" fill="#E5B27F" stroke="black" stroke-width="0.363451"/>
<path d="M0 120.721H114.15L128.446 116.967H28.3724L0 120.721Z" fill="#E5B27F" stroke="black" stroke-width="0.363451"/>
<path d="M114.15 120.721V150H0V120.721H114.15Z" fill="#CC9966" stroke="black" stroke-width="0.363451"/>
<path d="M128.445 106.006V116.967H28.3721V106.006H128.445Z" fill="#CC9966" stroke="black" stroke-width="0.363451"/>
<path d="M32.9912 66.9669V63.3633H105.352V66.9669H32.9912Z" fill="#4C4C4C"/>
<path d="M0 137.688V132.883H114.15V137.688H0Z" fill="#4C4C4C"/>
<path d="M114.149 150L150 137.688V118.168L142.742 120.57V103.604L128.446 106.006V116.967L114.149 120.721V150Z" fill="#996633" stroke="black" stroke-width="0.363451"/>
<path d="M107.111 49.8496V63.3631L128.446 64.5643V53.6034L107.111 49.8496Z" fill="#996633" stroke="black" stroke-width="0.363451"/>
<path d="M107.111 66.9668V118.168L114.149 116.967V106.006L128.666 103.603L128.446 67.5674L107.111 66.9668Z" fill="#996633" stroke="black" stroke-width="0.363451"/>
<path d="M150 124.926V121.322L114.149 132.884V137.689L150 124.926Z" fill="black"/>
<path d="M127.566 67.5675V64.5645L105.352 63.3633V66.9669L127.566 67.5675Z" fill="black"/>
<path d="M107.111 49.8496V63.3631H32.1113V49.8496H107.111Z" fill="#CC9966" stroke="black" stroke-width="0.363451"/>
<path d="M107.111 66.9668V118.168H32.1113V66.9668H107.111Z" fill="#CC9966" stroke="black" stroke-width="0.363451"/>
</g>
<defs>
<clipPath id="clip0_2109_167241">
<rect width="150" height="150" fill="white"/>
</clipPath>
</defs>
</svg>
