<svg width="150" height="150" viewBox="0 0 150 150" fill="none" xmlns="http://www.w3.org/2000/svg">
<g clip-path="url(#clip0_2109_159521)">
<path d="M140.083 149.333H0L0.619835 138L1.23967 126.667L3.09917 115.333L5.57851 104.667L8.67769 94L12.3967 83.3333L16.7355 73.3333L21.6942 63.3333L27.2727 54L33.4711 44.6667L40.2893 36L47.1074 28L54.5455 20L62.6033 12.6667L71.281 6L79.9587 0L150 130L145.661 134L142.562 138.667L140.702 144L140.083 149.333Z" fill="#00FFFF" stroke="black" stroke-width="1.28565"/>
<path d="M79.959 150V147.333L80.5788 144.667V141.333L81.1987 138.667L81.8185 136V133.333L82.4383 130.667L83.0582 128" stroke="black" stroke-width="1.28565"/>
<path d="M103.513 89.333L107.232 85.333L111.571 81.9997L115.909 78.6663L120.248 75.333" stroke="black" stroke-width="1.28565"/>
<path d="M86.1572 116.666L88.0167 112L90.4961 106.666L93.5952 102L96.6944 97.333" stroke="black" stroke-width="1.28565"/>
</g>
<defs>
<clipPath id="clip0_2109_159521">
<rect width="150" height="150" fill="white"/>
</clipPath>
</defs>
</svg>
