<svg width="150" height="150" viewBox="0 0 150 150" fill="none" xmlns="http://www.w3.org/2000/svg">
<g clip-path="url(#clip0_2109_160093)">
<path fill-rule="evenodd" clip-rule="evenodd" d="M150 0L99.8392 150H150V0ZM99.8392 150L150 0H99.8392V150ZM49.6785 113.592H99.8392V150H49.6785V113.592ZM49.6785 0H99.8392V113.592H49.6785V0ZM0 0H49.6785V150H0V0Z" fill="#00FFFF"/>
<path d="M150 0L99.8389 150H150V0Z" stroke="black" stroke-width="1.67619"/>
<path d="M99.8389 150L150 0H99.8389V150Z" stroke="black" stroke-width="1.67619"/>
<path d="M49.6787 113.592H99.8395V150H49.6787V113.592Z" stroke="black" stroke-width="1.67619"/>
<path d="M49.6787 0H99.8395V113.592H49.6787V0Z" stroke="black" stroke-width="1.67619"/>
<path d="M0 0H49.6785V150H0V0Z" stroke="black" stroke-width="1.67619"/>
<path d="M74.7593 90.2911C80.8859 90.2911 85.8525 75.2948 85.8525 56.7959C85.8525 38.2971 80.8859 23.3008 74.7593 23.3008C68.6326 23.3008 63.666 38.2971 63.666 56.7959C63.666 75.2948 68.6326 90.2911 74.7593 90.2911Z" fill="#00FFFF" stroke="black" stroke-width="1.67619"/>
<path d="M24.5981 150L9.16406 75.7282H40.5145L24.5981 0" stroke="black" stroke-width="1.67619"/>
<path d="M66.5596 78.6405L69.4535 29.126" stroke="black" stroke-width="1.67619"/>
<path d="M80.0645 29.126L82.9583 78.6405" stroke="black" stroke-width="1.67619"/>
<path d="M104.18 85.9219H113.826" stroke="black" stroke-width="1.67619"/>
<path d="M104.18 65.5342H113.826" stroke="black" stroke-width="1.67619"/>
<path d="M104.18 75.7285H113.826" stroke="black" stroke-width="1.67619"/>
</g>
<defs>
<clipPath id="clip0_2109_160093">
<rect width="150" height="150" fill="white"/>
</clipPath>
</defs>
</svg>
