<svg width="150" height="150" viewBox="0 0 150 150" fill="none" xmlns="http://www.w3.org/2000/svg">
<g clip-path="url(#clip0_2109_160348)">
<path d="M75 150C116.421 150 150 116.421 150 75C150 33.5786 116.421 0 75 0C33.5786 0 0 33.5786 0 75C0 116.421 33.5786 150 75 150Z" fill="#00FFFF" stroke="black" stroke-width="1.2"/>
<path d="M94.2004 3L75.0004 21.6L55.8004 3L46.2004 6L37.8004 10.2L29.4004 16.2L22.2004 22.2L15.6004 30L10.2004 37.8L5.40039 46.8L2.40039 56.4L21.0004 75L2.40039 94.2L5.40039 103.8L10.2004 112.2L15.6004 120.6L22.2004 127.8L29.4004 134.4L37.8004 139.8L46.2004 144.6L55.8004 147.6L75.0004 129L94.2004 147.6L103.8 144.6L112.2 139.8L120.6 134.4L127.8 127.8L134.4 120.6L139.8 112.2L144 103.8L147.6 94.2L129 75L147.6 56.4L144 46.8L139.8 37.8L134.4 30L127.8 22.2L120.6 16.2L112.2 10.2L103.8 6L94.2004 3Z" fill="#00FFFF" stroke="black" stroke-width="1.2"/>
</g>
<defs>
<clipPath id="clip0_2109_160348">
<rect width="150" height="150" fill="white"/>
</clipPath>
</defs>
</svg>
