<svg width="150" height="150" viewBox="0 0 150 150" fill="none" xmlns="http://www.w3.org/2000/svg">
<g clip-path="url(#clip0_2109_159185)">
<path d="M0 47.291H150V150H0V47.291Z" fill="#00FFFF" stroke="black" stroke-width="1.78594"/>
<path d="M10.791 0V19.2118L12.9493 20.6897V45.8128H39.9277V20.6897L44.2443 19.2118V0H10.791Z" fill="#00FFFF" stroke="black" stroke-width="1.78594"/>
<path d="M0 47.291H26.9784V48.7688H3.23741V65.025H0V47.291Z" fill="black" stroke="black" stroke-width="1.78594"/>
<path d="M150 150H121.942V147.783H146.763V130.788H150V150Z" fill="black" stroke="black" stroke-width="1.78594"/>
<path d="M0 150V130.788H3.23741V147.783H26.9784V150H0Z" fill="black" stroke="black" stroke-width="1.78594"/>
<path d="M150 45.8125V65.0243H146.763V48.7682H124.101L121.942 45.8125H150Z" fill="black" stroke="black" stroke-width="1.78594"/>
<path d="M39.9277 47.291H67.9853V48.7688H39.9277V47.291Z" fill="black" stroke="black" stroke-width="1.78594"/>
<path d="M82.0146 47.291H110.072V48.7688H82.0146V47.291Z" fill="black" stroke="black" stroke-width="1.78594"/>
<path d="M39.9277 147.783H67.9853V150H39.9277V147.783Z" fill="black" stroke="black" stroke-width="1.78594"/>
<path d="M82.0146 147.783H110.072V150H82.0146V147.783Z" fill="black" stroke="black" stroke-width="1.78594"/>
<path d="M0 121.182V102.709H3.23741V121.182H0Z" fill="black" stroke="black" stroke-width="1.78594"/>
<path d="M0 93.8427V74.6309H3.23741V93.8427H0Z" fill="black" stroke="black" stroke-width="1.78594"/>
<path d="M146.763 121.182V102.709H150V121.182H146.763Z" fill="black" stroke="black" stroke-width="1.78594"/>
<path d="M146.763 93.8427V74.6309H150V93.8427H146.763Z" fill="black" stroke="black" stroke-width="1.78594"/>
<path d="M19.4248 116.01H35.6119V121.182H19.4248V116.01Z" stroke="black" stroke-width="1.78594"/>
<path d="M19.4248 121.183H35.6119V127.094H19.4248V121.183Z" stroke="black" stroke-width="1.78594"/>
<path d="M19.4248 127.094H35.6119V132.266H19.4248V127.094Z" stroke="black" stroke-width="1.78594"/>
<path d="M19.4248 132.266H35.6119V138.177H19.4248V132.266Z" stroke="black" stroke-width="1.78594"/>
<path d="M19.4248 138.178H35.6119V142.611H19.4248V138.178Z" stroke="black" stroke-width="1.78594"/>
<path d="M35.6113 116.01H50.7192V121.182H35.6113V116.01Z" stroke="black" stroke-width="1.78594"/>
<path d="M35.6113 121.183H50.7192V127.094H35.6113V121.183Z" stroke="black" stroke-width="1.78594"/>
<path d="M35.6113 127.094H50.7192V132.266H35.6113V127.094Z" stroke="black" stroke-width="1.78594"/>
<path d="M35.6113 132.266H50.7192V138.177H35.6113V132.266Z" stroke="black" stroke-width="1.78594"/>
<path d="M35.6113 138.178H50.7192V142.611H35.6113V138.178Z" stroke="black" stroke-width="1.78594"/>
<path d="M50.7197 116.01H67.9859V121.182H50.7197V116.01Z" stroke="black" stroke-width="1.78594"/>
<path d="M50.7197 121.183H67.9859V127.094H50.7197V121.183Z" stroke="black" stroke-width="1.78594"/>
<path d="M50.7197 127.094H67.9859V132.266H50.7197V127.094Z" stroke="black" stroke-width="1.78594"/>
<path d="M50.7197 132.266H67.9859V138.177H50.7197V132.266Z" stroke="black" stroke-width="1.78594"/>
<path d="M50.7197 138.178H67.9859V142.611H50.7197V138.178Z" stroke="black" stroke-width="1.78594"/>
<path d="M67.9854 116.01H82.0141V121.182H67.9854V116.01Z" stroke="black" stroke-width="1.78594"/>
<path d="M67.9854 121.183H82.0141V127.094H67.9854V121.183Z" stroke="black" stroke-width="1.78594"/>
<path d="M67.9854 127.094H82.0141V132.266H67.9854V127.094Z" stroke="black" stroke-width="1.78594"/>
<path d="M67.9854 132.266H82.0141V138.177H67.9854V132.266Z" stroke="black" stroke-width="1.78594"/>
<path d="M67.9854 138.178H82.0141V142.611H67.9854V138.178Z" stroke="black" stroke-width="1.78594"/>
<path d="M82.0146 116.01H99.2808V121.182H82.0146V116.01Z" stroke="black" stroke-width="1.78594"/>
<path d="M82.0146 121.183H99.2808V127.094H82.0146V121.183Z" stroke="black" stroke-width="1.78594"/>
<path d="M82.0146 127.094H99.2808V132.266H82.0146V127.094Z" stroke="black" stroke-width="1.78594"/>
<path d="M82.0146 132.266H99.2808V138.177H82.0146V132.266Z" stroke="black" stroke-width="1.78594"/>
<path d="M82.0146 138.178H99.2808V142.611H82.0146V138.178Z" stroke="black" stroke-width="1.78594"/>
<path d="M99.2803 116.01H113.309V121.182H99.2803V116.01Z" stroke="black" stroke-width="1.78594"/>
<path d="M99.2803 121.183H113.309V127.094H99.2803V121.183Z" stroke="black" stroke-width="1.78594"/>
<path d="M99.2803 127.094H113.309V132.266H99.2803V127.094Z" stroke="black" stroke-width="1.78594"/>
<path d="M99.2803 132.266H113.309V138.177H99.2803V132.266Z" stroke="black" stroke-width="1.78594"/>
<path d="M99.2803 138.178H113.309V142.611H99.2803V138.178Z" stroke="black" stroke-width="1.78594"/>
<path d="M113.31 116.01H129.497V121.182H113.31V116.01Z" stroke="black" stroke-width="1.78594"/>
<path d="M113.31 121.183H129.497V127.094H113.31V121.183Z" stroke="black" stroke-width="1.78594"/>
<path d="M113.31 127.094H129.497V132.266H113.31V127.094Z" stroke="black" stroke-width="1.78594"/>
<path d="M113.31 132.266H129.497V138.177H113.31V132.266Z" stroke="black" stroke-width="1.78594"/>
<path d="M113.31 138.178H129.497V142.611H113.31V138.178Z" stroke="black" stroke-width="1.78594"/>
</g>
<defs>
<clipPath id="clip0_2109_159185">
<rect width="150" height="150" fill="white"/>
</clipPath>
</defs>
</svg>
