<svg width="150" height="150" viewBox="0 0 150 150" fill="none" xmlns="http://www.w3.org/2000/svg">
<g clip-path="url(#clip0_2109_159635)">
<path d="M75.0002 97.0239C109.44 97.0239 137.36 77.3032 137.36 52.9763C137.36 28.6495 109.44 8.92871 75.0002 8.92871C40.5599 8.92871 12.6406 28.6495 12.6406 52.9763C12.6406 77.3032 40.5599 97.0239 75.0002 97.0239Z" stroke="black" stroke-width="1.41648"/>
<path d="M75 97.0234V114.881" stroke="black" stroke-width="1.41648"/>
<path d="M75 132.143V150" stroke="black" stroke-width="1.41648"/>
<path d="M75 61.9043V79.1662" stroke="black" stroke-width="1.41648"/>
<path d="M75 44.048V26.7861" stroke="black" stroke-width="1.41648"/>
<path d="M87.6406 52.9766H112.079" stroke="black" stroke-width="1.41648"/>
<path d="M62.3591 52.9766H37.9209" stroke="black" stroke-width="1.41648"/>
<path d="M124.719 52.9766H150" stroke="black" stroke-width="1.41648"/>
<path d="M25.2809 52.9766H0" stroke="black" stroke-width="1.41648"/>
<path d="M75 17.8571V0" stroke="black" stroke-width="1.41648"/>
<path d="M137.359 52.9766V75.0004" stroke="black" stroke-width="1.41648"/>
<path d="M137.359 150V127.977" stroke="black" stroke-width="1.41648"/>
<path d="M137.359 112.5V90.4766" stroke="black" stroke-width="1.41648"/>
<path d="M12.6406 52.9766V75.0004" stroke="black" stroke-width="1.41648"/>
<path d="M12.6406 150V127.977" stroke="black" stroke-width="1.41648"/>
<path d="M12.6406 112.5V90.4766" stroke="black" stroke-width="1.41648"/>
<path d="M115.45 20.2382L111.236 18.4525L107.023 17.262L101.966 16.0716L93.5395 14.2859L85.1125 13.6906H80.8991L68.2586 14.2859L57.3035 17.262L46.3485 21.4287L37.9215 26.1906L30.3373 32.7382L24.4384 40.4763L20.2249 48.2144L19.3822 57.143L20.2249 63.0954V66.0716L21.9103 69.0478L22.753 72.6192L24.4384 75.5954L26.9665 78.5716L29.4946 82.143L26.1238 79.762L22.753 76.7859L19.3822 73.2144L17.6968 69.643L15.1687 66.0716L13.4833 61.9049L12.6406 57.143V52.9763L13.4833 44.0478L17.6968 36.3097L23.5957 28.5716L31.18 22.0239L40.4496 16.6668L50.562 12.5001L62.3597 10.1192L75.0002 8.92871H80.8991L86.7979 9.52395L92.6968 10.7144L98.5957 11.9049L103.652 13.6906L107.865 15.4763L112.079 17.8573L115.45 20.2382Z" fill="#00FFFF" stroke="black" stroke-width="1.41648"/>
</g>
<defs>
<clipPath id="clip0_2109_159635">
<rect width="150" height="150" fill="white"/>
</clipPath>
</defs>
</svg>
