<svg width="150" height="150" viewBox="0 0 150 150" fill="none" xmlns="http://www.w3.org/2000/svg">
<g clip-path="url(#clip0_2109_160072)">
<path fill-rule="evenodd" clip-rule="evenodd" d="M150 0L99.8392 150H150V0ZM99.8392 150L150 0H99.8392V150ZM50.1608 112.5H99.8392V150H50.1608V112.5ZM50.1608 0H99.8392V112.5H50.1608V0ZM25.0804 75L50.1608 150V0L25.0804 75ZM0 0L25.0804 75L50.1608 0H0ZM0 150L25.0804 75L0 0V150ZM50.1608 150L25.0804 75L0 150H50.1608Z" fill="#00FFFF"/>
<path d="M150 0L99.8389 150H150V0Z" stroke="black" stroke-width="1.66811"/>
<path d="M99.8389 150L150 0H99.8389V150Z" stroke="black" stroke-width="1.66811"/>
<path d="M50.1611 112.5H99.8396V150H50.1611V112.5Z" stroke="black" stroke-width="1.66811"/>
<path d="M50.1611 0H99.8396V112.5H50.1611V0Z" stroke="black" stroke-width="1.66811"/>
<path d="M50.1605 0L25.0801 75L50.1605 150V0Z" stroke="black" stroke-width="1.66811"/>
<path d="M0 0L25.0804 75L50.1608 0H0Z" stroke="black" stroke-width="1.66811"/>
<path d="M0 150L25.0804 75L0 0V150Z" stroke="black" stroke-width="1.66811"/>
<path d="M50.1608 150L25.0804 75L0 150H50.1608Z" stroke="black" stroke-width="1.66811"/>
<path d="M74.7584 87.9811C80.6186 87.9811 85.3693 73.7747 85.3693 56.2503C85.3693 38.7259 80.6186 24.5195 74.7584 24.5195C68.8981 24.5195 64.1475 38.7259 64.1475 56.2503C64.1475 73.7747 68.8981 87.9811 74.7584 87.9811Z" fill="#00FFFF" stroke="black" stroke-width="1.66811"/>
<path d="M80.5469 27.4043L83.4408 76.4428" stroke="black" stroke-width="1.66811"/>
<path d="M67.042 76.4428L69.4536 27.4043" stroke="black" stroke-width="1.66811"/>
<path d="M35.6914 82.2119H45.3377" stroke="black" stroke-width="1.66811"/>
<path d="M104.662 82.2119H114.308" stroke="black" stroke-width="1.66811"/>
<path d="M35.6914 63.4619H45.3377" stroke="black" stroke-width="1.66811"/>
<path d="M104.662 63.4619H114.308" stroke="black" stroke-width="1.66811"/>
<path d="M35.6914 73.5576H45.3377" stroke="black" stroke-width="1.66811"/>
<path d="M104.662 73.5576H114.308" stroke="black" stroke-width="1.66811"/>
</g>
<defs>
<clipPath id="clip0_2109_160072">
<rect width="150" height="150" fill="white"/>
</clipPath>
</defs>
</svg>
