<svg width="150" height="150" viewBox="0 0 150 150" fill="none" xmlns="http://www.w3.org/2000/svg">
<g clip-path="url(#clip0_2109_160215)">
<path d="M13.6367 0H150V93.6H13.6367V0Z" fill="#00FFFF" stroke="black" stroke-width="1.31244"/>
<path d="M13.6367 93.5996H150V113.4H13.6367V93.5996Z" fill="#00FFFF" stroke="black" stroke-width="1.31244"/>
<path d="M54.5459 36H83.254" stroke="black" stroke-width="1.31244"/>
<path d="M54.5459 28.2002H83.254" stroke="black" stroke-width="1.31244"/>
<path d="M54.5459 21H83.254" stroke="black" stroke-width="1.31244"/>
<path d="M38.756 21V135.6H20.0957" stroke="black" stroke-width="1.31244"/>
<path d="M45.9332 150H32.2969L38.7562 135.6L45.9332 150Z" fill="#00FFFF" stroke="black" stroke-width="1.31244"/>
<path d="M45.9332 121.2H32.2969L38.7562 135.6L45.9332 121.2Z" fill="#00FFFF" stroke="black" stroke-width="1.31244"/>
<path d="M10.0478 144C15.5971 144 20.0957 140.239 20.0957 135.6C20.0957 130.961 15.5971 127.2 10.0478 127.2C4.49857 127.2 0 130.961 0 135.6C0 140.239 4.49857 144 10.0478 144Z" fill="#00FFFF" stroke="black" stroke-width="1.31244"/>
</g>
<defs>
<clipPath id="clip0_2109_160215">
<rect width="150" height="150" fill="white"/>
</clipPath>
</defs>
</svg>
