<svg width="150" height="150" viewBox="0 0 150 150" fill="none" xmlns="http://www.w3.org/2000/svg">
<g clip-path="url(#clip0_2109_160109)">
<path fill-rule="evenodd" clip-rule="evenodd" d="M150 52.5547L95.5102 150H150V52.5547ZM95.5102 150L150 52.5547H95.5102V150ZM40.4082 124.818H95.5102V150H40.4082V124.818ZM40.4082 52.5547H95.5102V124.818H40.4082V52.5547ZM13.4694 49.2701L0 97.4453H26.9388L13.4694 49.2701ZM0 97.4453L13.4694 49.2701L0 0V97.4453ZM26.9388 0H0L13.4694 49.2701L26.9388 0ZM26.9388 97.4453V0L13.4694 49.2701L26.9388 97.4453Z" fill="#00FFFF"/>
<path d="M150 52.5547L95.5098 150H150V52.5547Z" stroke="black" stroke-width="1.63749"/>
<path d="M95.5098 150L150 52.5547H95.5098V150Z" stroke="black" stroke-width="1.63749"/>
<path d="M40.4082 124.817H95.5102V150H40.4082V124.817Z" stroke="black" stroke-width="1.63749"/>
<path d="M40.4082 52.5547H95.5102V124.817H40.4082V52.5547Z" stroke="black" stroke-width="1.63749"/>
<path d="M13.4694 49.2705L0 97.4457H26.9388L13.4694 49.2705Z" stroke="black" stroke-width="1.63749"/>
<path d="M0 97.4453L13.4694 49.2701L0 0V97.4453Z" stroke="black" stroke-width="1.63749"/>
<path d="M13.4694 49.2701L26.9388 0H0L13.4694 49.2701Z" stroke="black" stroke-width="1.63749"/>
<path d="M26.9391 0L13.4697 49.2701L26.9391 97.4453V0Z" stroke="black" stroke-width="1.63749"/>
<path d="M67.9588 109.489C74.3834 109.489 79.5915 100.175 79.5915 88.6857C79.5915 77.1966 74.3834 67.8828 67.9588 67.8828C61.5343 67.8828 56.3262 77.1966 56.3262 88.6857C56.3262 100.175 61.5343 109.489 67.9588 109.489Z" fill="#00FFFF" stroke="black" stroke-width="1.63749"/>
<path d="M100.408 95.2559H110.816" stroke="black" stroke-width="1.63749"/>
<path d="M74.082 71.168L77.1433 102.92" stroke="black" stroke-width="1.63749"/>
<path d="M59.3877 102.92L62.4489 71.168" stroke="black" stroke-width="1.63749"/>
<path d="M13.4697 98.54V137.956H23.8779" stroke="black" stroke-width="1.63749"/>
<path d="M40.4082 137.956H30.6123" stroke="black" stroke-width="1.63749"/>
<path d="M100.408 100.729H110.816" stroke="black" stroke-width="1.63749"/>
<path d="M100.408 107.299H110.816" stroke="black" stroke-width="1.63749"/>
</g>
<defs>
<clipPath id="clip0_2109_160109">
<rect width="150" height="150" fill="white"/>
</clipPath>
</defs>
</svg>
