<svg width="150" height="150" viewBox="0 0 150 150" fill="none" xmlns="http://www.w3.org/2000/svg">
<g clip-path="url(#clip0_2109_159509)">
<path fill-rule="evenodd" clip-rule="evenodd" d="M5.94714 0L4.62555 18.1818L3.96476 36.3636L2.64317 54.5455L1.98238 72.7273L1.32159 90.9091L0.660793 111.364L0 129.545V150H149.339V145.455L150 140.909V136.364V131.818L5.94714 0ZM85.2423 150V140.909V131.818L85.9031 120.455V111.364L86.5639 102.273L87.2247 93.1818L87.8855 84.0909L88.5463 75L85.2423 150Z" fill="#00FFFF"/>
<path d="M5.94714 0L4.62555 18.1818L3.96476 36.3636L2.64317 54.5455L1.98238 72.7273L1.32159 90.9091L0.660793 111.364L0 129.545V150H149.339V145.455L150 140.909V136.364V131.818L5.94714 0Z" stroke="black" stroke-width="2.45096"/>
<path d="M85.2422 150V140.909V131.818L85.903 120.455V111.364L86.5638 102.273L87.2246 93.1818L87.8854 84.0909L88.5462 75" stroke="black" stroke-width="2.45096"/>
</g>
<defs>
<clipPath id="clip0_2109_159509">
<rect width="150" height="150" fill="white"/>
</clipPath>
</defs>
</svg>
