<svg width="150" height="150" viewBox="0 0 150 150" fill="none" xmlns="http://www.w3.org/2000/svg">
<g clip-path="url(#clip0_2109_159770)">
<path d="M17.3996 99L16.1996 96L15.5996 93.6L14.3996 90.6L13.7996 87.6L13.1996 84.6V81L12.5996 78V75" stroke="black" stroke-width="1.2"/>
<path d="M17.4004 51.0002L18.6004 48.6002L19.8004 45.6002L21.6004 43.2002L23.4004 40.8002L25.2004 37.8002L27.0004 35.4002L28.8004 33.6002L31.2004 31.2002" stroke="black" stroke-width="1.2"/>
<path d="M51.5996 17.3996L54.5996 16.1996L56.9996 15.5996L60.5996 14.3996L63.5996 13.7996L66.5996 13.1996H69.5996L72.5996 12.5996H75.5996" stroke="black" stroke-width="1.2"/>
<path d="M100.2 17.4004L102.6 18.6004L105.6 19.8004L108 21.6004L110.4 22.8004L113.4 24.6004L115.8 26.4004L117.6 28.8004L120 30.6004" stroke="black" stroke-width="1.2"/>
<path d="M75 137.4V150" stroke="black" stroke-width="1.2"/>
<path d="M75 87.5996V112.8" stroke="black" stroke-width="1.2"/>
<path d="M75 62.3998V37.7998" stroke="black" stroke-width="1.2"/>
<path d="M87.5996 75H112.8" stroke="black" stroke-width="1.2"/>
<path d="M62.3998 75H37.7998" stroke="black" stroke-width="1.2"/>
<path d="M137.4 75H150" stroke="black" stroke-width="1.2"/>
<path d="M12.6 75.5996H0" stroke="black" stroke-width="1.2"/>
<path d="M75 12.6V0" stroke="black" stroke-width="1.2"/>
<path d="M23.4002 105L22.8002 102L21.6002 99.6L21.0002 96.6L20.4002 93.6L19.8002 90.6V87L19.2002 84V81" stroke="black" stroke-width="1.2"/>
<path d="M23.4004 57.0002L24.6004 54.6002L25.8004 51.6002L27.6004 49.2002L29.4004 46.8002L30.6004 43.8002L32.4004 41.4002L34.8004 39.6002L36.6004 37.2002" stroke="black" stroke-width="1.2"/>
<path d="M57 23.3996L59.4 22.1996L62.4 21.5996L65.4 20.3996L68.4 19.7996L71.4 19.1996H74.4L77.4 18.5996H80.4" stroke="black" stroke-width="1.2"/>
<path d="M103.8 23.4004L106.2 24.6004L109.2 25.8004L111.6 27.6004L114.6 28.8004L117 30.6004L119.4 32.4004L121.2 34.8004L123.6 36.6004" stroke="black" stroke-width="1.2"/>
</g>
<defs>
<clipPath id="clip0_2109_159770">
<rect width="150" height="150" fill="white"/>
</clipPath>
</defs>
</svg>
