<svg width="150" height="150" viewBox="0 0 150 150" fill="none" xmlns="http://www.w3.org/2000/svg">
<g clip-path="url(#clip0_2109_160360)">
<path d="M0 150V94.1494" stroke="black" stroke-width="1.12987"/>
<path d="M0 56.6489V0" stroke="black" stroke-width="1.12987"/>
<path d="M150 150V94.1494" stroke="black" stroke-width="1.12987"/>
<path d="M150 56.6489V0" stroke="black" stroke-width="1.12987"/>
<path d="M0 112.5H31.6" stroke="black" stroke-width="1.12987"/>
<path d="M39.5996 112.5H71.1996" stroke="black" stroke-width="1.12987"/>
<path d="M78.7998 112.5H110.4" stroke="black" stroke-width="1.12987"/>
<path d="M118.4 112.5H150" stroke="black" stroke-width="1.12987"/>
<path d="M0 150H31.6" stroke="black" stroke-width="1.12987"/>
<path d="M39.5996 150H71.1996" stroke="black" stroke-width="1.12987"/>
<path d="M78.7998 150H110.4" stroke="black" stroke-width="1.12987"/>
<path d="M118.4 150H150" stroke="black" stroke-width="1.12987"/>
<path d="M0 75H31.6" stroke="black" stroke-width="1.12987"/>
<path d="M39.5996 75H71.1996" stroke="black" stroke-width="1.12987"/>
<path d="M79.2002 75H110.4" stroke="black" stroke-width="1.12987"/>
<path d="M118.4 75H150" stroke="black" stroke-width="1.12987"/>
<path d="M0 37.5H31.6" stroke="black" stroke-width="1.12987"/>
<path d="M39.5996 37.5H71.1996" stroke="black" stroke-width="1.12987"/>
<path d="M79.2002 37.5H110.4" stroke="black" stroke-width="1.12987"/>
<path d="M118.4 37.5H150" stroke="black" stroke-width="1.12987"/>
<path d="M0 0H31.6" stroke="black" stroke-width="1.12987"/>
<path d="M39.5996 0H71.1996" stroke="black" stroke-width="1.12987"/>
<path d="M78.7998 0H110.4" stroke="black" stroke-width="1.12987"/>
<path d="M118.4 0H150" stroke="black" stroke-width="1.12987"/>
</g>
<defs>
<clipPath id="clip0_2109_160360">
<rect width="150" height="150" fill="white"/>
</clipPath>
</defs>
</svg>
