<svg width="150" height="150" viewBox="0 0 150 150" fill="none" xmlns="http://www.w3.org/2000/svg">
<g clip-path="url(#clip0_2109_159747)">
<path d="M75 12.6V0" stroke="black" stroke-width="1.2"/>
<path d="M12.6 75.5996H0" stroke="black" stroke-width="1.2"/>
<path d="M137.4 75H150" stroke="black" stroke-width="1.2"/>
<path d="M62.3998 75H37.7998" stroke="black" stroke-width="1.2"/>
<path d="M87.5996 75H112.2" stroke="black" stroke-width="1.2"/>
<path d="M75 62.3998V37.7998" stroke="black" stroke-width="1.2"/>
<path d="M75 87.5996V112.8" stroke="black" stroke-width="1.2"/>
<path d="M75 137.4V150" stroke="black" stroke-width="1.2"/>
<path d="M100.2 17.4004L102.6 18.6004L105.6 19.8004L108 21.6004L110.4 22.8004L113.4 24.6004L115.8 26.4004L117.6 28.8004L120 30.6004" stroke="black" stroke-width="1.2"/>
<path d="M51.5996 17.3996L54.5996 16.1996L56.9996 15.5996L59.9996 14.9996L62.9996 13.7996H65.9996L69.5996 13.1996L72.5996 12.5996H75.5996" stroke="black" stroke-width="1.2"/>
<path d="M17.4004 50.9996L18.6004 48.5996L19.8004 46.1996L21.6004 43.1996L23.4004 40.7996L24.6004 38.3996L26.4004 35.3996L28.8004 32.9996L30.6004 30.5996" stroke="black" stroke-width="1.2"/>
<path d="M17.3996 99L16.1996 96L15.5996 93.6L14.3996 90.6L13.7996 87.6L13.1996 84.6V81L12.5996 78V75" stroke="black" stroke-width="1.2"/>
<path d="M51.6002 133.2L49.2002 132L46.2002 130.2L43.8002 129L40.8002 127.2L38.4002 125.4L36.0002 123.6L33.6002 121.8L31.2002 120" stroke="black" stroke-width="1.2"/>
<path d="M100.2 133.2L97.2002 134.4L94.8002 135L91.2002 135.6L88.2002 136.2L85.2002 136.8L82.2002 137.4H79.2002H76.2002" stroke="black" stroke-width="1.2"/>
<path d="M134.4 99L133.2 101.4L132 104.4L130.2 106.8L128.4 109.8L126.6 112.2L124.8 114.6L123 117L120.6 119.4" stroke="black" stroke-width="1.2"/>
<path d="M132.6 51L133.8 54L134.4 57L135.6 60L136.2 63L136.8 66V69L137.4 72V75" stroke="black" stroke-width="1.2"/>
<path d="M22.7996 105.6L22.1996 102.6L20.9996 100.2L20.3996 96.5996L19.7996 93.5996L19.1996 90.5996V87.5996L18.5996 84.5996V81.5996" stroke="black" stroke-width="1.2"/>
<path d="M22.7998 57.0002L23.9998 54.6002L25.7998 51.6002L27.5998 49.2002L28.7998 46.2002L30.5998 43.8002L32.3998 41.4002L34.7998 39.6002L36.5998 37.2002" stroke="black" stroke-width="1.2"/>
<path d="M57 23.3996L59.4 22.7996L62.4 21.5996L64.8 20.9996L67.8 19.7996L70.8 19.1996H73.8L76.8 18.5996H79.8" stroke="black" stroke-width="1.2"/>
<path d="M103.8 23.4004L106.2 24.6004L108.6 25.8004L111.6 27.6004L114 29.4004L116.4 31.2004L118.8 33.0004L121.2 34.8004L123.6 37.2004" stroke="black" stroke-width="1.2"/>
</g>
<defs>
<clipPath id="clip0_2109_159747">
<rect width="150" height="150" fill="white"/>
</clipPath>
</defs>
</svg>
