<svg width="150" height="150" viewBox="0 0 150 150" fill="none" xmlns="http://www.w3.org/2000/svg">
<g clip-path="url(#clip0_2109_160164)">
<path d="M18.6 150H0V131.4L65.4 66L84 84.6L18.6 150Z" fill="#00FFFF" stroke="black" stroke-width="1.2"/>
<path d="M131.4 0H150V19.2L84.0004 84.6L65.4004 66L131.4 0Z" fill="#00FFFF" stroke="black" stroke-width="1.2"/>
<path d="M0 131.4V0L65.4 66L0 131.4Z" fill="#00FFFF" stroke="black" stroke-width="1.2"/>
<path d="M150 19.2002V150L84 84.6002L150 19.2002Z" fill="#00FFFF" stroke="black" stroke-width="1.2"/>
<path d="M0 0H131.4L65.4 66L0 0Z" fill="#00FFFF" stroke="black" stroke-width="1.2"/>
<path d="M150 150H18.5996L83.9996 84.5996L150 150Z" fill="#00FFFF" stroke="black" stroke-width="1.2"/>
<path d="M42 75.5996L75 42.5996L107.4 75.5996L75 108.6L42 75.5996Z" stroke="black" stroke-width="1.2"/>
</g>
<defs>
<clipPath id="clip0_2109_160164">
<rect width="150" height="150" fill="white"/>
</clipPath>
</defs>
</svg>
