<svg width="150" height="150" viewBox="0 0 150 150" fill="none" xmlns="http://www.w3.org/2000/svg">
<g clip-path="url(#clip0_2109_159551)">
<path d="M6.99121 98.6302L7.6268 95.8905L8.89799 92.4658L10.1692 89.0411L11.4404 86.3014L12.7116 82.8768L13.9827 79.4521L14.6183 76.7124L15.8895 73.9727" stroke="black" stroke-width="1.3196"/>
<path d="M0 150V146.576V143.151L0.635593 139.726V136.302L1.27119 132.877V129.452L1.90678 126.028V123.288" stroke="black" stroke-width="1.3196"/>
<path d="M80.085 150V145.205L80.7206 140.411L81.3561 136.301L81.9917 131.507" stroke="black" stroke-width="1.3196"/>
<path d="M87.0762 114.384L88.983 110.274L90.8897 106.85L93.4321 102.74L95.3389 99.3154" stroke="black" stroke-width="1.3196"/>
<path d="M106.779 85.6167L109.957 82.877L113.135 80.1373L116.949 77.3976L120.127 75.3428" stroke="black" stroke-width="1.3196"/>
<path d="M140.466 150L141.101 144.521L143.008 139.041L146.186 134.247L150 130.822" stroke="black" stroke-width="1.3196"/>
<path d="M27.9658 52.0548L29.237 49.3151L31.1438 46.5753L33.0506 43.8356L35.5929 41.0959L37.4997 38.3562L39.4065 36.3014L41.3133 33.5616L43.2201 31.5068" stroke="black" stroke-width="1.3196"/>
<path d="M60.3818 14.3836L62.9242 12.3288L65.4666 10.274L68.009 8.21918L70.5513 6.16438L73.0937 4.79452L75.6361 2.73973L78.1784 1.36986L80.7208 0" stroke="black" stroke-width="1.3196"/>
</g>
<defs>
<clipPath id="clip0_2109_159551">
<rect width="150" height="150" fill="white"/>
</clipPath>
</defs>
</svg>
