<svg width="150" height="150" viewBox="0 0 150 150" fill="none" xmlns="http://www.w3.org/2000/svg">
<g clip-path="url(#clip0_2109_159542)">
<path d="M0 150V146.511V142.151V137.791L0.487013 133.43V129.07V125.581V122.093V118.604" stroke="black" stroke-width="1.30341"/>
<path d="M3.89648 87.2098L4.3835 83.7214L4.87051 80.233L5.35752 75.8726L5.84454 71.5121L6.33155 67.1516L7.30558 63.6633L7.79259 60.1749L8.2796 56.6865" stroke="black" stroke-width="1.30341"/>
<path d="M14.6104 27.907L15.5844 24.4186L16.5584 20.9302L17.5324 17.4419L18.5065 13.0814L19.4805 9.59302L20.4545 6.10465L21.4285 2.61628L22.4026 0" stroke="black" stroke-width="1.30341"/>
<path d="M73.5391 150V146.511V143.023V139.535L74.0261 135.174V131.686L74.5131 128.197V124.709L75.0001 121.221" stroke="black" stroke-width="1.30341"/>
<path d="M79.3828 92.4421L80.3568 88.9537L80.8439 85.4654L81.8179 81.977L82.7919 78.4886L83.2789 75.0002L84.2529 71.5119L85.227 68.8956L86.201 65.4072" stroke="black" stroke-width="1.30341"/>
<path d="M147.078 150V145.639L148.052 140.406L148.539 135.174L150 130.813" stroke="black" stroke-width="1.30341"/>
</g>
<defs>
<clipPath id="clip0_2109_159542">
<rect width="150" height="150" fill="white"/>
</clipPath>
</defs>
</svg>
