<svg width="150" height="150" viewBox="0 0 150 150" fill="none" xmlns="http://www.w3.org/2000/svg">
<g clip-path="url(#clip0_2109_159589)">
<path d="M138.136 52.8V150H12.7119V52.8L14.4068 43.8L17.7967 35.4L23.7289 28.2L31.356 21.6L40.678 16.2L51.695 12.6L62.7119 9.6L75.4238 9L88.1356 9.6L99.1526 12.6L110.17 16.2L119.492 21.6L127.119 28.2L133.051 35.4L136.441 43.8L138.136 52.8Z" fill="#00FFFF" stroke="black" stroke-width="1.42615"/>
<path d="M75.4238 97.2002V114.6" stroke="black" stroke-width="1.42615"/>
<path d="M75.4238 132.6V150" stroke="black" stroke-width="1.42615"/>
<path d="M75.4238 61.2002V79.2002" stroke="black" stroke-width="1.42615"/>
<path d="M75.4238 43.7998V25.7998" stroke="black" stroke-width="1.42615"/>
<path d="M88.1357 52.7998H113.559" stroke="black" stroke-width="1.42615"/>
<path d="M62.7122 52.7998H38.9834" stroke="black" stroke-width="1.42615"/>
<path d="M125.424 52.7998H150" stroke="black" stroke-width="1.42615"/>
<path d="M24.5763 52.7998H0" stroke="black" stroke-width="1.42615"/>
<path d="M75.4238 17.4V0" stroke="black" stroke-width="1.42615"/>
<path d="M100.848 14.4004L106.78 15.6004L111.865 17.4004L116.102 20.4004L120.339 22.8004" stroke="black" stroke-width="1.42615"/>
<path d="M55.085 14.3998L61.0172 13.1998L66.9494 11.9998L72.8816 11.3998L77.9663 10.7998" stroke="black" stroke-width="1.42615"/>
<path d="M22.8818 36.6L26.2717 33L29.6615 29.4L33.0513 26.4L36.4412 24" stroke="black" stroke-width="1.42615"/>
<path d="M22.881 69.5998L22.0336 65.3998L20.3387 61.1998L19.4912 56.9998V52.7998" stroke="black" stroke-width="1.42615"/>
<path d="M55.932 91.7998L50.8472 89.9998L45.7625 87.5998L40.6777 85.1998L36.4404 82.7998" stroke="black" stroke-width="1.42615"/>
<path d="M101.695 91.7998L96.6101 92.9998L90.6779 93.5998L83.8982 94.1998L78.8135 94.7998" stroke="black" stroke-width="1.42615"/>
<path d="M133.898 68.4004L130.509 72.6004L127.966 76.2004L124.576 79.2004L121.187 82.2004" stroke="black" stroke-width="1.42615"/>
</g>
<defs>
<clipPath id="clip0_2109_159589">
<rect width="150" height="150" fill="white"/>
</clipPath>
</defs>
</svg>
