<svg width="150" height="150" viewBox="0 0 150 150" fill="none" xmlns="http://www.w3.org/2000/svg">
<g clip-path="url(#clip0_2109_159562)">
<path d="M75 9.58904L78.8136 6.84931L83.2627 4.79452L88.3475 2.05479L92.7966 0" stroke="black" stroke-width="1.3196"/>
<path d="M5.08496 108.219L5.72055 106.164L6.35615 103.424L6.99174 100.685L7.62733 97.9449L8.26293 95.8901L9.53411 93.1504L10.1697 90.4106L10.8053 87.6709" stroke="black" stroke-width="1.3196"/>
<path d="M0 150V147.26V144.521V141.781L0.635593 139.726V136.986V134.247L1.27119 131.507V129.452" stroke="black" stroke-width="1.3196"/>
<path d="M19.7031 69.1783L22.2455 65.0687L25.4235 60.2742L27.9658 55.4797L31.1438 51.3701" stroke="black" stroke-width="1.3196"/>
<path d="M43.8555 35.6166L47.0334 32.1919L50.847 28.0824L54.6606 24.6577L58.4741 21.918" stroke="black" stroke-width="1.3196"/>
<path d="M77.542 150V147.261V144.521L78.1776 141.781L78.8132 139.042V136.302L79.4488 133.562L80.0844 131.507V128.768" stroke="black" stroke-width="1.3196"/>
<path d="M88.3477 108.219L90.89 103.424L93.4324 99.3149L97.246 95.2053L100.424 91.0957" stroke="black" stroke-width="1.3196"/>
<path d="M116.313 77.3969L118.22 76.027L120.763 75.3421L123.305 73.9723L125.847 73.2873L127.754 71.9175L130.297 71.2325L132.839 69.8627L135.381 69.1777" stroke="black" stroke-width="1.3196"/>
<path d="M131.567 150L132.203 145.891L132.839 142.466L134.745 138.356L137.288 135.617L139.83 132.877L143.008 130.822L146.186 130.137L150 129.452" stroke="black" stroke-width="1.3196"/>
</g>
<defs>
<clipPath id="clip0_2109_159562">
<rect width="150" height="150" fill="white"/>
</clipPath>
</defs>
</svg>
