<svg width="150" height="150" viewBox="0 0 150 150" fill="none" xmlns="http://www.w3.org/2000/svg">
<g clip-path="url(#clip0_2552_160805)">
<path d="M82.8697 39.8984V119.698H66.666V39.8984H82.8697Z" fill="#F0643E"/>
<path d="M81.4805 39.8984V119.698H68.5176V39.8984H81.4805Z" fill="#F79174"/>
<path d="M79.1674 39.8984V119.698H70.3711V39.8984H79.1674Z" fill="#FEE0D6"/>
<path d="M76.3892 39.8984V119.698H73.1484V39.8984H76.3892Z" fill="white"/>
<path d="M66.666 39.8984V119.698" stroke="#F0643E" stroke-width="0.745356"/>
<path d="M82.8711 119.698V39.8984" stroke="#F0643E" stroke-width="0.745356"/>
<path d="M10.6484 149.998V87.8984L137.5 149.998V87.8984L10.6484 149.998Z" fill="#F0643E"/>
<path d="M10.6484 147.003V91.2031L137.5 147.003V91.2031L10.6484 147.003Z" fill="#F37755"/>
<path d="M10.6484 140.4V97.5L137.5 140.4V97.5L10.6484 140.4Z" fill="#F79174"/>
<path d="M10.6484 134.097V103.797L137.5 134.097V103.797L10.6484 134.097Z" fill="#FBB29B"/>
<path d="M10.6484 129.302V108.602L137.5 129.302V108.602L10.6484 129.302Z" fill="#FEE0D6"/>
<path d="M10.6484 122.998V114.898L137.5 122.998V114.898L10.6484 122.998Z" fill="white"/>
<path d="M10.6484 149.998V87.8984L137.5 149.998V87.8984L10.6484 149.998Z" stroke="#F0643E" stroke-width="0.745356"/>
<path d="M75.0003 42C110.541 42 139.352 32.598 139.352 21C139.352 9.40202 110.541 0 75.0003 0C39.4597 0 10.6484 9.40202 10.6484 21C10.6484 32.598 39.4597 42 75.0003 42Z" fill="#F0643E"/>
<path d="M74.9993 42C107.216 42 133.333 32.598 133.333 21C133.333 9.40202 107.216 0 74.9993 0C42.7827 0 16.666 9.40202 16.666 21C16.666 32.598 42.7827 42 74.9993 42Z" fill="#F37755"/>
<path d="M74.9994 42C100.568 42 121.296 32.598 121.296 21C121.296 9.40202 100.568 0 74.9994 0C49.4307 0 28.7031 9.40202 28.7031 21C28.7031 32.598 49.4307 42 74.9994 42Z" fill="#F79174"/>
<path d="M74.9995 42C93.9204 42 109.259 32.598 109.259 21C109.259 9.40202 93.9204 0 74.9995 0C56.0786 0 40.7402 9.40202 40.7402 21C40.7402 32.598 56.0786 42 74.9995 42Z" fill="#FBB29B"/>
<path d="M74.9996 42C87.2726 42 97.2218 32.598 97.2218 21C97.2218 9.40202 87.2726 0 74.9996 0C62.7266 0 52.7773 9.40202 52.7773 21C52.7773 32.598 62.7266 42 74.9996 42Z" fill="#FEE0D6"/>
<path d="M75.0003 42C110.541 42 139.352 32.598 139.352 21C139.352 9.40202 110.541 0 75.0003 0C39.4597 0 10.6484 9.40202 10.6484 21C10.6484 32.598 39.4597 42 75.0003 42Z" stroke="#F0643E" stroke-width="0.745356"/>
<path d="M75.0009 42C78.3249 42 81.0195 32.598 81.0195 21C81.0195 9.40202 78.3249 0 75.0009 0C71.677 0 68.9824 9.40202 68.9824 21C68.9824 32.598 71.677 42 75.0009 42Z" fill="#FFFFFE"/>
<path d="M14.8145 15.2969H135.648V25.4969H14.8145V15.2969Z" fill="#F0643E"/>
<path d="M14.8145 16.2031H135.648V24.6031H14.8145V16.2031Z" fill="#F79174"/>
<path d="M14.8145 17.3984H135.648V23.3984H14.8145V17.3984Z" fill="#FEE0D6"/>
<path d="M14.8145 19.5H135.648V21.3H14.8145V19.5Z" fill="white"/>
<path d="M14.8145 25.5H135.648" stroke="#F0643E" stroke-width="0.745356"/>
<path d="M135.648 15.2969H14.8145" stroke="#F0643E" stroke-width="0.745356"/>
<path d="M142.13 15.2969H133.797V25.7969H142.13L144.908 25.4969L147.686 24.2969L149.538 22.4969L150.001 20.3969L149.538 18.2969L147.686 16.7969L144.908 15.5969L142.13 15.2969Z" fill="#F0643E"/>
<path d="M142.13 16.2031H133.797V24.6031H142.13L144.908 24.3031L147.686 23.4031L149.538 22.2031L150.001 20.4031L149.538 18.6031L147.686 17.4031L144.908 16.5031L142.13 16.2031Z" fill="#F79174"/>
<path d="M142.13 17.3984H133.797V23.3984H142.13L144.908 23.0984L147.686 22.4984L149.538 21.5984L150.001 20.3984L149.538 19.1984L147.686 18.2984L144.908 17.6984L142.13 17.3984Z" fill="#FEE0D6"/>
<path d="M142.13 19.5H133.797V21.3H142.13H144.908L147.686 21L149.538 20.7L150.001 20.4L149.538 20.1L147.686 19.8L144.908 19.5H142.13Z" fill="white"/>
<path d="M133.797 25.7969H142.13L144.908 25.4969L147.686 24.2969L149.538 22.4969L150.001 20.3969L149.538 18.2969L147.686 16.7969L144.908 15.5969L142.13 15.2969H133.797" stroke="#F0643E" stroke-width="0.745356"/>
<path d="M7.87037 25.8H16.2037V15H7.87037L5.09259 15.3L2.31481 16.5L0.462963 18.3L0 20.4L0.462963 22.5L2.31481 24.3L5.09259 25.5L7.87037 25.8Z" fill="#F0643E"/>
<path d="M7.87037 24.6031H16.2037V16.2031H7.87037L5.09259 16.5031L2.31481 17.4031L0.462963 18.6031L0 20.4031L0.462963 22.2031L2.31481 23.4031L5.09259 24.3031L7.87037 24.6031Z" fill="#F79174"/>
<path d="M7.87037 23.3984H16.2037V17.3984H7.87037L5.09259 17.6984L2.31481 18.2984L0.462963 19.1984L0 20.3984L0.462963 21.5984L2.31481 22.4984L5.09259 23.0984L7.87037 23.3984Z" fill="#FEE0D6"/>
<path d="M7.87037 21.3H16.2037V19.5H7.87037H5.09259L2.31481 19.8L0.462963 20.1L0 20.4L0.462963 20.7L2.31481 21L5.09259 21.3H7.87037Z" fill="white"/>
<path d="M16.2037 15H7.87037L5.09259 15.3L2.31481 16.5L0.462963 18.3L0 20.4L0.462963 22.5L2.31481 24.3L5.09259 25.5L7.87037 25.8H16.2037" stroke="#F0643E" stroke-width="0.745356"/>
</g>
<defs>
<clipPath id="clip0_2552_160805">
<rect width="150" height="150" fill="white"/>
</clipPath>
</defs>
</svg>
