<svg width="150" height="150" viewBox="0 0 150 150" fill="none" xmlns="http://www.w3.org/2000/svg">
<g clip-path="url(#clip0_2109_186650)">
<path d="M102.217 15.7258L106.451 16.9355L110.08 18.1452L113.709 19.9597L117.338 22.379L125.806 9.67742L130.04 13.3065L134.274 16.9355L137.903 21.1694L140.927 25.4032L128.83 33.2661L130.645 36.8952L132.459 40.5242L133.669 44.1532L134.274 48.3871L149.395 45.9677L150 48.9919V51.4113V62.2984L148.79 67.7419L134.274 64.7177L133.064 68.3468L131.854 71.9758L130.04 75.6048L127.621 79.2339L140.322 88.3065L136.693 92.5403L133.064 96.1694L128.83 99.7984L124.596 103.427L116.734 90.7258L113.104 92.5403L109.475 94.3548L105.846 95.5645L101.613 96.7742L104.032 111.29L101.008 111.895H98.5884H84.6771L82.2577 111.29L85.2819 96.7742L81.6529 95.5645L78.0238 94.3548L74.3948 92.5403L70.7658 90.121L61.6932 102.218L57.4593 99.1936L53.8303 94.9597L50.2013 90.7258L46.5722 86.4919L59.2738 78.629L57.4593 75L55.6448 71.371L54.4351 67.7419L53.2255 63.5081L38.7093 65.9274L38.1045 63.5081V60.4839V47.1774L38.7093 44.1532L53.2255 47.7823L54.4351 43.5484L55.6448 39.9194L57.4593 36.2903L59.8787 32.6613L47.7819 24.1936L50.8061 19.9597L55.04 15.7258L59.2738 12.0968L63.5077 9.07258L71.3706 21.1694L74.9997 19.3548L78.6287 17.5403L82.2577 16.3306L86.4916 15.7258L84.0722 0.604839L86.4916 0H89.5158H100.403L105.846 1.20968L102.217 15.7258Z" fill="white" stroke="black" stroke-width="1.20968"/>
<path d="M97.9834 19.9608L101.612 21.1705L105.241 22.3802L108.87 24.1947L112.499 26.614L120.967 14.5173L125.201 18.1463L129.435 21.7753L133.064 26.0092L136.693 30.2431L123.991 38.106L125.806 41.735L127.62 45.364L128.83 48.9931L130.04 53.2269L144.556 50.8076L145.161 53.2269V56.2511V67.1382L143.951 72.5818L130.04 69.5576L128.83 73.1866L127.62 76.8157L125.806 80.4447L123.387 84.0737L135.483 92.5415L131.854 96.7753L128.225 101.009L123.991 104.638L119.758 108.267L111.895 95.5657L108.266 97.3802L104.637 99.1947L101.008 100.404L96.7737 101.614L99.193 116.13L96.7737 116.735H93.7495H82.8624L77.4189 115.525L80.443 101.614L76.814 100.404L73.185 99.1947L69.556 97.3802L65.9269 94.9608L57.4592 107.058L53.2253 103.429L48.9914 99.7995L45.3624 95.5657L41.7334 91.3318L54.435 83.4689L52.6205 79.8398L50.8059 76.2108L49.5963 72.5818L48.3866 68.3479L33.8705 70.7673L33.2656 68.3479V65.3237V54.4366L34.4753 48.9931L48.3866 52.0173L49.5963 48.3882L50.8059 44.7592L52.6205 41.1302L55.0398 37.5011L42.943 29.0334L46.5721 24.7995L50.2011 20.5657L54.435 16.9366L58.6689 13.3076L66.5318 26.0092L70.1608 24.1947L73.7898 22.3802L77.4189 21.1705L81.6527 19.9608L79.2334 5.44468L81.6527 4.83984H84.6769H95.564L101.008 6.04952L97.9834 19.9608Z" fill="white" stroke="black" stroke-width="1.20968"/>
<path d="M93.1455 24.8L96.7745 26.0097L100.404 27.2194L104.033 29.0339L107.662 31.4533L116.734 19.3565L120.968 22.3807L124.597 26.0097L128.226 30.8484L131.855 35.0823L119.154 42.9452L120.968 46.5742L122.783 50.2033L123.992 53.8323L125.202 58.0662L139.718 55.6468L140.323 61.0904V63.5097L140.928 66.5339L140.323 68.9533V74.3968L139.718 77.421L125.202 74.3968L123.992 78.0258L122.783 81.6549L120.968 85.2839L118.549 88.9129L130.645 97.3807L127.621 101.615L123.992 105.848L119.154 109.477L114.92 113.106L107.057 100.405L103.428 102.219L99.7987 104.034L96.1697 105.244L91.9358 105.848L94.3552 120.969L91.9358 121.574H88.9116H78.0245L72.581 120.365L75.6052 106.453L71.9761 105.244L68.3471 104.034L64.7181 102.219L61.089 99.8L52.6213 111.897L48.3874 108.268L44.1535 104.639L40.5245 100.405L36.8955 96.171L49.5971 88.3081L47.7826 84.6791L45.9681 81.05L44.7584 77.421L44.1535 73.1871L29.0326 75.6065L28.4277 72.5823V70.1629V59.2758L29.6374 53.8323L44.1535 56.8565L44.7584 53.2274L46.5729 49.5984L47.7826 45.9694L50.2019 42.3403L38.1052 33.2678L41.7342 29.0339L45.3632 25.4049L49.5971 21.7758L53.831 18.1468L61.6939 30.8484L65.3229 29.0339L68.9519 27.2194L72.581 26.0097L76.8148 24.8L74.3955 10.2839L79.839 9.67906H82.8632L85.2826 9.07422L88.3068 9.67906H93.7503L96.1697 10.2839L93.1455 24.8Z" fill="white" stroke="black" stroke-width="1.20968"/>
<path d="M88.3066 29.636L91.9356 30.8456L95.5647 32.0553L99.1937 33.8698L102.823 36.2892L111.895 24.1924L116.129 27.2166L120.363 30.8456L123.992 35.6844L127.016 39.9182L114.315 47.7811L116.734 51.4102L118.549 55.0392L119.758 58.6682L120.363 62.9021L134.879 59.8779L135.484 62.9021L136.089 65.3214V68.3456V73.7892L135.484 79.2327L134.879 82.2569L120.363 78.6279L119.153 82.8618L117.944 86.4908L116.129 90.1198L113.71 93.144L125.807 102.217L122.782 106.45L119.153 110.684L114.315 114.313L110.081 117.338L102.218 105.241L98.5889 107.055L94.9598 108.87L91.3308 110.08L87.0969 110.684L90.1211 125.805L87.0969 126.41H84.6776H73.1856L67.7421 125.2L71.3711 110.684L67.1373 109.475L63.5082 108.265L59.8792 106.45L56.855 104.031L47.7824 116.733L43.5485 113.104L39.3147 109.475L35.6856 105.241L32.6614 100.402L44.7582 93.144L42.9437 89.515L41.1292 85.886L39.9195 82.2569L39.3147 78.0231L24.1937 80.4424L23.5889 77.4182V74.9989V63.5069L24.7985 58.0634L39.3147 61.6924L40.5244 58.0634L41.734 54.4344L43.5485 50.8053L45.9679 47.1763L33.2663 38.1037L36.8953 33.8698L40.5244 29.636L44.7582 26.0069L49.5969 22.9827L56.855 35.6844L60.484 33.265L64.1131 31.4505L67.7421 30.2408L71.976 29.636L69.5566 15.1198L72.5808 14.515L75.0002 13.9102H78.0244H83.4679L88.9115 14.515L91.9356 15.1198L88.3066 29.636Z" fill="white" stroke="black" stroke-width="1.20968"/>
<path d="M83.4677 34.4758L87.7016 35.6855L91.3307 36.8952L94.9597 38.7097L97.9839 41.129L107.056 28.4274L111.29 32.0565L115.524 35.6855L119.153 39.9194L122.177 44.7581L110.081 52.0161L111.895 55.6452L113.71 59.2742L114.919 62.9032L115.524 67.1371L130.645 64.7177L131.25 67.7419V70.1613V81.6532L130.04 87.0968L115.524 83.4677L114.315 87.0968L113.105 90.7258L111.29 94.3548L108.871 97.9839L121.573 107.056L117.944 111.29L114.315 115.524L110.081 119.153L105.242 122.177L97.9839 109.476L94.3548 111.895L90.7258 113.105L87.0968 114.919L82.8629 115.524L85.2823 130.04L82.2581 130.645L79.8387 131.25H76.8145H71.371L65.9274 130.645L62.9032 130.04L66.5323 115.524L62.9032 114.315L59.2742 113.105L55.6452 111.29L52.0161 108.871L42.9436 120.968L38.7097 117.944L34.4758 113.71L30.8468 109.476L27.8226 105.242L40.5242 97.379L38.1048 93.75L36.8952 90.121L35.0806 86.4919L34.4758 82.2581L19.9597 85.2823L19.3548 82.2581L18.75 79.8387V76.8145V71.371L19.3548 65.9274L19.9597 62.9032L34.4758 66.5323L35.6855 62.2984L36.8952 58.6694L38.7097 55.0403L41.129 52.0161L29.0323 42.9436L32.0565 38.7097L36.2903 34.4758L40.5242 30.8468L44.7581 27.8226L52.621 39.9194L56.25 38.1048L59.879 36.2903L63.5081 35.0806L67.7419 34.4758L64.7177 19.3548L67.7419 18.75H70.1613H81.6532L87.0968 19.9597L83.4677 34.4758Z" fill="white" stroke="black" stroke-width="1.20968"/>
<path d="M78.6285 39.3157L82.8624 40.5253L86.4914 41.735L90.1205 43.5495L93.7495 45.9689L102.217 33.2673L106.451 36.8963L110.685 40.5253L114.314 44.7592L117.338 48.9931L105.241 56.856L107.056 60.485L108.87 64.114L110.08 67.7431L110.685 71.9769L125.806 69.5576L126.411 72.5818V75.0011V85.8882L125.201 91.3318L110.685 88.3076L109.475 91.9366L108.266 95.5657L106.451 99.1947L104.032 102.824L116.733 111.896L113.104 116.13L109.475 119.759L105.241 123.388L101.008 127.017L93.1447 114.316L89.5156 116.13L85.8866 117.945L82.2576 119.154L78.0237 120.364L80.443 134.88L77.4189 135.485H74.9995H61.0882L58.6689 134.88L61.693 120.364L58.064 119.154L54.435 117.945L50.806 116.13L47.1769 113.711L38.1043 125.808L33.8705 122.783L30.2414 118.55L26.6124 114.316L22.9834 110.082L35.685 102.219L33.8705 98.5898L32.0559 94.9608L30.8463 91.3318L29.6366 87.0979L15.1205 89.5173L14.5156 87.0979V84.0737V70.7673L15.1205 67.7431L29.6366 71.3721L30.8463 67.1382L32.0559 63.5092L33.8705 59.8802L36.2898 56.2511L24.193 47.7834L27.2172 43.5495L31.4511 39.3157L35.685 35.6866L39.9189 32.6624L47.7818 44.7592L51.4108 42.9447L55.0398 41.1302L58.6689 39.9205L62.9027 39.3157L60.4834 24.1947L62.9027 23.5898H65.9269H76.814L82.2576 24.7995L78.6285 39.3157Z" fill="#00FFFF" stroke="black" stroke-width="1.20968"/>
<path d="M78.6285 39.3157L82.8624 40.5253L86.4914 41.735L90.1205 43.5495L93.7495 45.9689L102.217 33.2673L106.451 36.8963L110.685 40.5253L114.314 44.7592L117.338 48.9931L105.241 56.856L107.056 60.485L108.87 64.114L110.08 67.7431L110.685 71.9769L125.806 69.5576L126.411 72.5818V75.0011V85.8882L125.201 91.3318L110.685 88.3076L109.475 91.9366L108.266 95.5657L106.451 99.1947L104.032 102.824L116.733 111.896L113.104 116.13L109.475 119.759L105.241 123.388L101.008 127.017L93.1447 114.316L89.5156 116.13L85.8866 117.945L82.2576 119.154L78.0237 120.364L80.443 134.88L77.4189 135.485H74.9995H61.0882L58.6689 134.88L61.693 120.364L58.064 119.154L54.435 117.945L50.806 116.13L47.1769 113.711L38.1043 125.808L33.8705 122.783L30.2414 118.55L26.6124 114.316L22.9834 110.082L35.685 102.219L33.8705 98.5898L32.0559 94.9608L30.8463 91.3318L29.6366 87.0979L15.1205 89.5173L14.5156 87.0979V84.0737V70.7673L15.1205 67.7431L29.6366 71.3721L30.8463 67.1382L32.0559 63.5092L33.8705 59.8802L36.2898 56.2511L24.193 47.7834L27.2172 43.5495L31.4511 39.3157L35.685 35.6866L39.9189 32.6624L47.7818 44.7592L51.4108 42.9447L55.0398 41.1302L58.6689 39.9205L62.9027 39.3157L60.4834 24.1947L62.9027 23.5898H65.9269H76.814L82.2576 24.7995L78.6285 39.3157Z" fill="white" stroke="black" stroke-width="1.20968"/>
<path d="M74.3955 43.5467L78.0245 44.7564L81.6535 45.9661L85.2826 47.7806L88.9116 50.2L97.3793 38.1032L101.613 41.7322L105.847 45.3613L109.476 49.5951L113.105 53.829L100.404 61.6919L102.218 65.3209L104.033 68.95L105.242 72.579L106.452 76.8129L120.968 74.3935L121.573 76.8129V79.8371V90.7242L120.363 96.1677L106.452 93.1435L105.242 96.7726L104.033 100.402L102.218 104.031L99.7987 107.66L111.895 116.127L108.266 120.361L104.637 124.595L100.404 128.224L96.1697 131.853L88.3068 119.152L84.6777 120.966L81.0487 122.781L77.4197 123.99L73.1858 125.2L75.6052 139.716L73.1858 140.321H70.1616H59.2745L53.831 139.111L56.8552 125.2L53.2261 123.99L49.5971 122.781L45.9681 120.966L42.339 118.547L33.8713 130.644L29.6374 127.014L25.4035 123.385L21.7745 119.152L18.1455 114.918L30.8471 107.055L29.0326 103.426L27.2181 99.7968L26.0084 96.1677L24.7987 91.9338L10.2826 94.3532L9.67773 91.9338V88.9097V78.0226L10.8874 72.579L24.7987 75.6032L26.0084 71.9742L27.2181 68.3451L29.0326 64.7161L31.4519 61.0871L19.3552 52.6193L22.9842 48.3855L26.6132 44.1516L30.8471 40.5226L35.081 36.8935L42.9439 49.5951L46.5729 47.7806L50.2019 45.9661L53.831 44.7564L58.0648 43.5467L55.6455 29.0306L58.0648 28.4258H61.089H71.9761L77.4197 29.6355L74.3955 43.5467Z" fill="white" stroke="black" stroke-width="1.20968"/>
<path d="M69.5566 48.386L73.1856 49.5956L76.8147 50.8053L80.4437 52.6198L84.0727 55.0392L93.1453 42.9424L97.3792 45.9666L101.008 49.5956L104.637 54.4344L108.266 58.6682L95.5647 66.5311L97.3792 70.1602L99.1937 73.7892L100.403 77.4182L101.613 81.6521L116.129 79.2327L116.734 84.6763V87.0956L117.339 90.1198L116.734 92.5392V97.9827L116.129 101.007L101.613 97.9827L100.403 101.612L99.1937 105.241L97.3792 108.87L94.9598 112.499L107.057 120.967L104.032 125.2L100.403 129.434L95.5647 133.063L91.3308 136.692L83.4679 123.991L79.8389 125.805L76.2098 127.62L72.5808 128.83L68.3469 129.434L70.7663 144.555L68.3469 145.16H65.3227H54.4356L48.9921 143.95L52.0163 130.039L48.3873 128.83L44.7582 127.62L41.1292 125.805L37.5002 123.386L29.0324 135.483L24.7985 131.854L20.5647 128.225L16.9356 123.991L13.3066 119.757L26.0082 111.894L24.1937 108.265L22.3792 104.636L21.1695 101.007L20.5647 96.7731L5.44371 99.1924L4.83887 96.1682V93.7489V82.8618L6.04854 77.4182L20.5647 80.4424L21.1695 76.8134L22.984 73.1844L24.1937 69.5553L26.6131 65.9263L14.5163 56.8537L18.1453 52.6198L21.7744 48.9908L26.0082 45.3618L30.2421 41.7327L38.105 54.4344L41.734 52.6198L45.3631 50.8053L48.9921 49.5956L53.226 48.386L50.8066 33.8698L56.2502 33.265H59.2744L61.6937 32.6602L64.7179 33.265H70.1615L72.5808 33.8698L69.5566 48.386Z" fill="white" stroke="black" stroke-width="1.20968"/>
<path d="M64.7177 53.2258L68.3468 54.4355L71.9758 55.6452L75.6048 57.4597L79.2339 59.879L88.3065 47.7823L92.5403 50.8065L96.1694 54.4355L99.7984 59.2742L103.427 63.5081L90.7258 71.371L92.5403 75L94.3548 78.629L95.5645 82.2581L96.7742 86.4919L111.29 84.0726L111.895 89.5161V91.9355L112.5 94.9597L111.895 97.379V102.823L111.29 105.847L96.7742 102.218L95.5645 106.452L94.3548 110.081L92.5403 113.71L90.121 117.339L102.218 125.806L99.1936 130.04L95.5645 134.274L90.7258 137.903L86.4919 140.927L78.629 128.831L75 130.645L71.371 132.46L67.7419 133.669L63.5081 134.274L65.9274 149.395L63.5081 150H60.4839H49.5968L44.1532 148.79L47.7823 134.274L43.5484 133.065L39.9194 131.855L36.2903 130.04L32.6613 127.621L24.1936 140.323L19.9597 136.694L15.7258 133.065L12.0968 128.831L9.07258 124.597L21.1694 116.734L19.3548 113.105L17.5403 109.476L16.3306 105.847L15.7258 101.613L0.604839 104.032L0 101.008V98.5887V87.7016L1.20968 82.2581L15.7258 85.2823L16.9355 81.6532L18.1452 78.0242L19.9597 74.3952L22.379 70.7661L9.67742 61.6936L13.3065 57.4597L16.9355 53.8306L21.1694 50.2016L25.4032 46.5726L33.2661 59.2742L36.8952 57.4597L40.5242 55.6452L44.1532 54.4355L48.3871 53.2258L45.9677 38.7097L51.4113 38.1048H54.4355L56.8548 37.5L59.879 38.1048H65.3226L67.7419 38.7097L64.7177 53.2258Z" fill="#00FFFF" stroke="black" stroke-width="1.20968"/>
<path d="M55.6448 102.821C60.6555 102.821 64.7174 98.759 64.7174 93.7484C64.7174 88.7377 60.6555 84.6758 55.6448 84.6758C50.6342 84.6758 46.5723 88.7377 46.5723 93.7484C46.5723 98.759 50.6342 102.821 55.6448 102.821Z" fill="#00FFFF" stroke="black" stroke-width="1.20968"/>
</g>
<defs>
<clipPath id="clip0_2109_186650">
<rect width="150" height="150" fill="white"/>
</clipPath>
</defs>
</svg>
