<svg width="150" height="150" viewBox="0 0 150 150" fill="none" xmlns="http://www.w3.org/2000/svg">
<g clip-path="url(#clip0_2109_186855)">
<path d="M75.0004 37.2C85.2729 37.2 93.6004 28.8725 93.6004 18.6C93.6004 8.3275 85.2729 0 75.0004 0C64.7279 0 56.4004 8.3275 56.4004 18.6C56.4004 28.8725 64.7279 37.2 75.0004 37.2Z" fill="#00FFFF" stroke="black" stroke-width="1.2"/>
<path d="M75.0004 150.001C85.2729 150.001 93.6004 141.673 93.6004 131.401C93.6004 121.128 85.2729 112.801 75.0004 112.801C64.7279 112.801 56.4004 121.128 56.4004 131.401C56.4004 141.673 64.7279 150.001 75.0004 150.001Z" fill="#00FFFF" stroke="black" stroke-width="1.2"/>
<path d="M18.6 93.5984C28.8725 93.5984 37.2 85.2709 37.2 74.9984C37.2 64.7259 28.8725 56.3984 18.6 56.3984C8.3275 56.3984 0 64.7259 0 74.9984C0 85.2709 8.3275 93.5984 18.6 93.5984Z" fill="#00FFFF" stroke="black" stroke-width="1.2"/>
<path d="M131.4 93.5984C141.672 93.5984 150 85.2709 150 74.9984C150 64.7259 141.672 56.3984 131.4 56.3984C121.127 56.3984 112.8 64.7259 112.8 74.9984C112.8 85.2709 121.127 93.5984 131.4 93.5984Z" fill="#00FFFF" stroke="black" stroke-width="1.2"/>
<path d="M114.6 53.3992C124.872 53.3992 133.2 45.0717 133.2 34.7992C133.2 24.5267 124.872 16.1992 114.6 16.1992C104.328 16.1992 96 24.5267 96 34.7992C96 45.0717 104.328 53.3992 114.6 53.3992Z" fill="#00FFFF" stroke="black" stroke-width="1.2"/>
<path d="M34.8002 133.2C45.0727 133.2 53.4002 124.872 53.4002 114.6C53.4002 104.328 45.0727 96 34.8002 96C24.5277 96 16.2002 104.328 16.2002 114.6C16.2002 124.872 24.5277 133.2 34.8002 133.2Z" fill="#00FFFF" stroke="black" stroke-width="1.2"/>
<path d="M34.8002 53.3992C45.0727 53.3992 53.4002 45.0717 53.4002 34.7992C53.4002 24.5267 45.0727 16.1992 34.8002 16.1992C24.5277 16.1992 16.2002 24.5267 16.2002 34.7992C16.2002 45.0717 24.5277 53.3992 34.8002 53.3992Z" fill="#00FFFF" stroke="black" stroke-width="1.2"/>
<path d="M114.6 133.2C124.872 133.2 133.2 124.872 133.2 114.6C133.2 104.328 124.872 96 114.6 96C104.328 96 96 104.328 96 114.6C96 124.872 104.328 133.2 114.6 133.2Z" fill="#00FFFF" stroke="black" stroke-width="1.2"/>
<path d="M75.0004 93.5984C85.2729 93.5984 93.6004 85.2709 93.6004 74.9984C93.6004 64.7259 85.2729 56.3984 75.0004 56.3984C64.7279 56.3984 56.4004 64.7259 56.4004 74.9984C56.4004 85.2709 64.7279 93.5984 75.0004 93.5984Z" fill="#00FFFF" stroke="black" stroke-width="1.2"/>
</g>
<defs>
<clipPath id="clip0_2109_186855">
<rect width="150" height="150" fill="white"/>
</clipPath>
</defs>
</svg>
