<svg width="150" height="150" viewBox="0 0 150 150" fill="none" xmlns="http://www.w3.org/2000/svg">
<g clip-path="url(#clip0_2109_186796)">
<path d="M16.4 48.6301L6 37.6712L27.6 28.0822L22 10.274L43.6 20.5479V0L59.2 28.0822L65.6 10.274L71.2 47.2603L81.6 37.6712L75.6 74.6575L87.6 75.3425L71.2 102.055L81.6 112.329L60 121.918L65.6 139.726L44 129.452L43.6 150L28 122.603L22 139.726L16.4 102.74L6 112.329L12 75.3425H0L16.4 48.6301Z" fill="#00FFFF" stroke="black" stroke-width="1.04685"/>
<path d="M128 123.286H43.5996L47.9996 122.602L52.3996 120.547L55.9996 117.122L59.1996 112.328L61.9996 106.848L63.9996 99.9988L65.1996 93.1495L65.5996 85.6152L65.1996 78.081L63.9996 71.2316L61.9996 65.0673L59.1996 59.5878L55.9996 54.7933L52.3996 51.3686L47.9996 49.3138L43.5996 48.6289H128L132.4 49.3138L136.8 51.3686L140.4 54.7933L143.6 59.5878L146.4 65.0673L148.4 71.2316L149.6 78.081L150 85.6152L149.6 93.1495L148.4 99.9988L146.4 106.848L143.6 112.328L140.4 117.122L136.8 120.547L132.4 122.602L128 123.286Z" fill="#00FFFF" stroke="black" stroke-width="1.04685"/>
<path d="M44 58.9023L47.2 59.5873L50 60.9571L52.4 63.6969L54.8 67.1215L56.8 70.5462L58 75.3407L58.8 80.1352L59.2 85.6147L58.8 91.0941L58 95.8886L56.8 100.683L54.8 104.793L52.4 107.532L50 110.272L47.2 111.642L44 112.327" stroke="black" stroke-width="1.04685"/>
<path d="M44 69.8633L47.6 71.2331L50.4 74.6578L52.4 79.4523L53.2 85.6167L52.4 91.7811L50.4 97.2605L47.6 100.685L44 102.055" stroke="black" stroke-width="1.04685"/>
<path d="M44 85.6162V80.1367L45.2 80.8217L46 81.5066L46.4 83.5614L46.8 85.6162L46.4 87.671L46 89.7258L45.2 90.4107L44 91.0956V85.6162Z" fill="#00FFFF" stroke="black" stroke-width="1.04685"/>
</g>
<defs>
<clipPath id="clip0_2109_186796">
<rect width="150" height="150" fill="white"/>
</clipPath>
</defs>
</svg>
