<svg width="150" height="150" viewBox="0 0 150 150" fill="none" xmlns="http://www.w3.org/2000/svg">
<g clip-path="url(#clip0_2109_186932)">
<path d="M78.0269 46.0144L73.991 47.8072L69.9552 49.6001L65.2466 51.3929L61.2108 53.7833L59.1928 50.7953L63.9013 48.4049L69.2825 46.0144L73.991 43.624L78.6996 41.8311L90.8072 37.6479L102.242 34.0622L113.004 31.6718L123.094 30.4766L131.839 31.0742L139.238 31.6718L144.619 34.0622L147.982 37.6479L150 43.0264L148.655 50.1977L144.619 57.369L137.892 65.7355L129.148 74.1021L117.713 83.0662L104.933 91.4327L90.8072 99.2017L76.009 106.373L61.2108 111.751L47.0852 115.935L34.3049 118.923L23.5426 119.52L14.1256 118.923L6.72646 116.532L2.01794 112.349L0 106.971L1.34529 99.7993L5.38117 92.628L12.1076 84.2614L20.852 75.8949L32.287 66.9307L45.0673 58.5642L59.1928 50.7953L61.2108 53.7833L48.4305 60.9547L37.6682 68.126L28.2511 75.8949L20.1794 83.0662L14.1256 90.2375L10.7623 96.8112L10.0897 102.787L11.435 107.568L15.4709 111.154L21.5247 113.544L30.2691 114.142L39.6861 112.947L51.1211 110.556L63.2287 106.971L76.009 102.19L88.7892 96.2136L101.57 89.0423L113.004 81.871L122.422 74.1021L130.493 66.9307L135.874 59.7594L139.238 53.1857L140.583 47.2096L139.238 42.4288L135.874 39.4407L131.166 37.0503L124.439 36.4527L117.04 35.855L108.296 37.0503L98.8789 38.8431L88.7892 41.8311L78.0269 46.0144Z" fill="#00FFFF"/>
<path d="M61.2108 53.7833L65.2466 51.3929L69.9552 49.6001L73.991 47.8072L78.0269 46.0144L88.7892 41.8311L98.8789 38.8431L108.296 37.0503L117.04 35.855L124.439 36.4527L131.166 37.0503L135.874 39.4407L139.238 42.4288L140.583 47.2096L139.238 53.1857L135.874 59.7594L130.493 66.9307L122.422 74.1021L113.004 81.871L101.57 89.0423L88.7892 96.2136L76.009 102.19L63.2287 106.971L51.1211 110.556L39.6861 112.947L30.2691 114.142L21.5247 113.544L15.4709 111.154L11.435 107.568L10.0897 102.787L10.7623 96.8112L14.1256 90.2375L20.1794 83.0662L28.2511 75.8949L37.6682 68.126L48.4305 60.9547L61.2108 53.7833ZM61.2108 53.7833L59.1928 50.7953M59.1928 50.7953L63.9013 48.4048L69.2825 46.0144L73.991 43.624L78.6996 41.8311L90.8072 37.6479L102.242 34.0622L113.004 31.6718L123.094 30.4766L131.839 31.0742L139.238 31.6718L144.619 34.0622L147.982 37.6479L150 43.0264L148.655 50.1977L144.619 57.369L137.892 65.7355L129.148 74.1021L117.713 83.0662L104.933 91.4327L90.8072 99.2017L76.009 106.373L61.2108 111.751L47.0852 115.935L34.3049 118.923L23.5426 119.52L14.1256 118.923L6.72646 116.532L2.01794 112.349L0 106.971L1.34529 99.7993L5.38117 92.628L12.1076 84.2614L20.852 75.8949L32.287 66.9307L45.0673 58.5642L59.1928 50.7953Z" stroke="black" stroke-width="1.26804"/>
<path d="M48.4302 57.9681L47.7576 62.1514V66.3347L47.0849 71.1155V75.2988H43.7217V72.9084V60.3586L44.3943 55.5777L46.4123 43.6255L49.1028 33.4661L52.4661 23.9044L55.8293 15.5378L60.5378 8.96414L65.2463 4.18327L69.9549 1.19522L75.336 0L81.3898 1.79283L87.4437 5.9761L92.8248 12.5498L97.5333 22.1116L101.569 32.8685L104.26 46.0159L106.278 59.761L106.95 75.2988L106.278 90.239L104.26 104.582L101.569 117.131L97.5333 127.888L92.8248 137.45L87.4437 144.024L81.3898 148.207L75.336 150L69.2822 148.207L63.2284 144.024L57.8472 137.45L53.1387 127.888L49.1028 117.131L46.4123 104.582L44.3943 90.239L43.7217 75.2988H47.0849L47.7576 88.4462L49.1028 100.398L51.7934 111.753L55.1567 121.315L59.8652 129.084L64.5737 135.06L69.9549 139.243L75.336 140.438L80.7172 139.243L86.0984 135.06L90.8069 129.084L94.8428 121.315L98.206 111.753L100.897 100.398L102.242 88.4462L102.915 75.2988L102.242 62.1514L100.897 49.6016L98.206 38.247L94.8428 28.6853L90.8069 20.9163L86.0984 14.9402L80.7172 10.757L75.336 9.56175L70.6275 10.757L65.919 13.1474L61.8831 17.3307L58.5199 23.3068L55.1567 30.4781L52.4661 38.8446L49.7755 47.8088L48.4302 57.9681Z" fill="#00FFFF"/>
<path d="M47.0849 75.2988V71.1155L47.7576 66.3347V62.1514L48.4302 57.9681L49.7755 47.8088L52.4661 38.8446L55.1567 30.4781L58.5199 23.3068L61.8831 17.3307L65.919 13.1474L70.6275 10.757L75.336 9.56175L80.7172 10.757L86.0984 14.9402L90.8069 20.9163L94.8428 28.6853L98.206 38.247L100.897 49.6016L102.242 62.1514L102.915 75.2988L102.242 88.4462L100.897 100.398L98.206 111.753L94.8428 121.315L90.8069 129.084L86.0984 135.06L80.7172 139.243L75.336 140.438L69.9549 139.243L64.5737 135.06L59.8652 129.084L55.1567 121.315L51.7934 111.753L49.1028 100.398L47.7576 88.4462L47.0849 75.2988ZM47.0849 75.2988H43.7217M43.7217 75.2988V72.9084V60.3586L44.3943 55.5777L46.4123 43.6255L49.1028 33.4661L52.4661 23.9044L55.8293 15.5378L60.5378 8.96414L65.2463 4.18327L69.9549 1.19522L75.336 0L81.3898 1.79283L87.4437 5.9761L92.8248 12.5498L97.5333 22.1116L101.569 32.8685L104.26 46.0159L106.278 59.761L106.95 75.2988L106.278 90.239L104.26 104.582L101.569 117.131L97.5333 127.888L92.8248 137.45L87.4437 144.024L81.3898 148.207L75.336 150L69.2822 148.207L63.2284 144.024L57.8472 137.45L53.1387 127.888L49.1028 117.131L46.4123 104.582L44.3943 90.239L43.7217 75.2988Z" stroke="black" stroke-width="1.26804"/>
<path d="M104.933 62.7475L100.897 60.357L96.861 57.9666L92.8251 56.1738L88.7892 53.7833L90.8072 50.7953L95.5157 53.1857L100.224 55.5762L104.933 58.5642L108.969 60.9547L119.731 68.126L128.475 75.2973L136.547 83.0662L142.601 89.6399L146.637 96.2136L149.327 102.19V107.568L147.982 112.349L143.274 116.532L135.874 118.923L126.457 119.52L115.695 118.923L102.915 115.935L88.7892 111.751L73.991 106.373L59.1928 99.2017L45.0673 91.4327L32.287 83.0662L20.852 74.1021L12.1076 65.7355L5.38117 57.369L1.34529 50.1977L0 43.0264L2.01794 37.6479L6.72646 33.4646L14.1256 31.0742L23.5426 30.4766L34.3049 31.0742L47.0852 34.0622L61.2108 38.2455L76.009 43.624L90.8072 50.7953L88.7892 53.7833L76.009 47.8072L63.2287 43.0264L51.1211 39.4407L39.6861 37.0503L30.2691 35.855L21.5247 36.4527L15.4709 38.8431L11.435 42.4288L10.0897 47.2096L10.7623 53.1857L14.1256 59.7594L20.1794 66.9307L28.2511 74.1021L37.6682 81.871L48.4305 89.0423L61.2108 96.2136L73.991 102.19L86.7713 106.971L98.8789 110.556L110.314 112.947L120.404 114.142L128.475 113.544L135.202 111.154L139.238 107.568L140.583 103.385L139.91 98.6041L137.892 93.8232L133.856 87.8471L128.475 81.871L121.749 75.2973L113.677 69.3212L104.933 62.7475Z" fill="#00FFFF"/>
<path d="M88.7892 53.7833L92.8251 56.1738L96.861 57.9666L100.897 60.357L104.933 62.7475L113.677 69.3212L121.749 75.2973L128.475 81.871L133.856 87.8471L137.892 93.8232L139.91 98.6041L140.583 103.385L139.238 107.568L135.202 111.154L128.475 113.544L120.404 114.142L110.314 112.947L98.8789 110.556L86.7713 106.971L73.991 102.19L61.2108 96.2136L48.4305 89.0423L37.6682 81.871L28.2511 74.1021L20.1794 66.9307L14.1256 59.7594L10.7623 53.1857L10.0897 47.2096L11.435 42.4288L15.4709 38.8431L21.5247 36.4527L30.2691 35.855L39.6861 37.0503L51.1211 39.4407L63.2287 43.0264L76.009 47.8072L88.7892 53.7833ZM88.7892 53.7833L90.8072 50.7953M90.8072 50.7953L95.5157 53.1857L100.224 55.5762L104.933 58.5642L108.969 60.9547L119.731 68.126L128.475 75.2973L136.547 83.0662L142.601 89.6399L146.637 96.2136L149.327 102.19V107.568L147.982 112.349L143.274 116.532L135.874 118.923L126.457 119.52L115.695 118.923L102.915 115.935L88.7892 111.751L73.991 106.373L59.1928 99.2017L45.0673 91.4327L32.287 83.0662L20.852 74.1021L12.1076 65.7355L5.38117 57.369L1.34529 50.1977L0 43.0264L2.01794 37.6479L6.72646 33.4646L14.1256 31.0742L23.5426 30.4766L34.3049 31.0742L47.0852 34.0622L61.2108 38.2455L76.009 43.624L90.8072 50.7953Z" stroke="black" stroke-width="1.26804"/>
<path d="M74.6641 86.0568C81.7224 86.0568 87.4443 80.9732 87.4443 74.7022C87.4443 68.4313 81.7224 63.3477 74.6641 63.3477C67.6057 63.3477 61.8838 68.4313 61.8838 74.7022C61.8838 80.9732 67.6057 86.0568 74.6641 86.0568Z" fill="#00FFFF" stroke="black" stroke-width="1.26804"/>
</g>
<defs>
<clipPath id="clip0_2109_186932">
<rect width="150" height="150" fill="white"/>
</clipPath>
</defs>
</svg>
