<svg width="150" height="150" viewBox="0 0 150 150" fill="none" xmlns="http://www.w3.org/2000/svg">
<g clip-path="url(#clip0_2109_186531)">
<path d="M0 0H150V150H0V0Z" fill="#00FFFF" stroke="black" stroke-width="1.06651"/>
<path d="M117.2 17.0625H123.6V36.2568H117.2V17.0625Z" fill="#00FFFF" stroke="black" stroke-width="1.06651"/>
<path d="M117.2 116.586H123.6V136.491H117.2V116.586Z" fill="#00FFFF" stroke="black" stroke-width="1.06651"/>
<path d="M117.2 91.707H123.6V110.901H117.2V91.707Z" fill="#00FFFF" stroke="black" stroke-width="1.06651"/>
<path d="M117.2 66.8242H123.6V86.0185H117.2V66.8242Z" fill="#00FFFF" stroke="black" stroke-width="1.06651"/>
<path d="M117.2 41.9414H123.6V61.1357H117.2V41.9414Z" fill="#00FFFF" stroke="black" stroke-width="1.06651"/>
<path d="M26.4004 17.0625H32.8004V36.2568H26.4004V17.0625Z" fill="#00FFFF" stroke="black" stroke-width="1.06651"/>
<path d="M26.4004 116.586H32.8004V136.491H26.4004V116.586Z" fill="#00FFFF" stroke="black" stroke-width="1.06651"/>
<path d="M26.4004 91.707H32.8004V110.901H26.4004V91.707Z" fill="#00FFFF" stroke="black" stroke-width="1.06651"/>
<path d="M26.4004 66.8242H32.8004V86.0185H26.4004V66.8242Z" fill="#00FFFF" stroke="black" stroke-width="1.06651"/>
<path d="M26.4004 41.9414H32.8004V61.1357H26.4004V41.9414Z" fill="#00FFFF" stroke="black" stroke-width="1.06651"/>
<path d="M18.7998 127.963V124.408V113.745L27.5998 109.48L34.7998 98.8161L40.3998 83.8871L45.5998 66.1146L50.7998 48.3421L55.9998 33.4132L62.3998 22.0388L70.3998 17.0625H79.5998L86.7998 22.0388L92.7998 33.4132L97.5998 48.3421L102.4 66.1146L107.6 83.8871L113.6 98.8161L121.2 109.48L131.2 113.745V127.963L119.6 123.698L110.4 113.034L103.2 97.3943L97.1998 78.9108L92.3998 61.1383L87.9998 45.4985L83.9998 34.835L79.5998 30.5696H70.3998L64.7998 35.5459L59.9998 46.9203L55.1998 62.5601L49.9998 80.3326L43.9998 98.1052L37.1998 113.034L28.7998 123.698L18.7998 127.963Z" fill="#00FFFF" stroke="black" stroke-width="1.06651"/>
</g>
<defs>
<clipPath id="clip0_2109_186531">
<rect width="150" height="150" fill="white"/>
</clipPath>
</defs>
</svg>
