<svg width="150" height="150" viewBox="0 0 150 150" fill="none" xmlns="http://www.w3.org/2000/svg">
<g clip-path="url(#clip0_2109_186939)">
<path d="M7.31707 23.4L8.23171 18L10.5183 13.8L13.7195 10.8L17.8354 9.6L21.9512 10.8L25.6098 13.8L27.8963 18L28.811 23.4V126.6L29.2683 131.4L30.1829 135.6L32.0122 139.8L33.8415 143.4L36.5854 145.8L39.7866 148.2L42.9878 149.4L46.6463 150L50.3049 149.4L53.5061 148.2L56.7073 145.8L58.9939 143.4L61.2805 139.8L63.1098 135.6L64.0244 131.4L64.4817 126.6V23.4L65.3963 18L67.6829 13.8L70.8841 10.8L75 9.6L79.1159 10.8L82.7744 13.8L85.061 18L85.9756 23.4V126.6L86.4329 131.4L87.3476 135.6L89.1768 139.8L91.0061 143.4L93.75 145.8L96.9512 148.2L100.152 149.4L103.811 150L107.47 149.4L110.671 148.2L113.872 145.8L116.159 143.4L118.445 139.8L120.274 135.6L121.189 131.4L121.646 126.6V23.4L122.561 18L124.848 13.8L128.049 10.8L132.165 9.6L136.28 10.8L139.939 13.8L142.226 18L143.14 23.4H150L149.543 18.6L148.628 14.4L146.799 10.2L144.97 7.2L142.226 4.2L139.024 1.8L135.823 0.6L132.165 0L128.506 0.6L125.305 1.8L122.104 4.2L117.53 10.2L115.701 14.4L114.787 18.6L114.329 23.4V126.6L113.415 132L111.128 136.2L107.927 139.2L103.811 140.4L99.6951 139.2L96.0366 136.2L93.75 132L92.8354 126.6V23.4L92.3781 18.6L91.4634 14.4L89.6341 10.2L87.8049 7.2L85.061 4.2L81.8598 1.8L78.6585 0.6L75 0L71.3415 0.6L68.1402 1.8L64.939 4.2L60.3659 10.2L58.5366 14.4L57.622 18.6L57.1646 23.4V126.6L56.25 132L53.9634 136.2L50.7622 139.2L46.6463 140.4L42.5305 139.2L38.872 136.2L36.5854 132L35.6707 126.6V23.4L35.2134 18.6L34.2988 14.4L32.4695 10.2L30.6402 7.2L27.8963 4.2L24.6951 1.8L21.4939 0.6L17.8354 0L14.1768 0.6L10.9756 1.8L7.77439 4.2L3.20122 10.2L1.37195 14.4L0.457317 18.6L0 23.4H7.31707Z" fill="#00FFFF" stroke="black" stroke-width="1.04765"/>
</g>
<defs>
<clipPath id="clip0_2109_186939">
<rect width="150" height="150" fill="white"/>
</clipPath>
</defs>
</svg>
