<svg width="150" height="150" viewBox="0 0 150 150" fill="none" xmlns="http://www.w3.org/2000/svg">
<g clip-path="url(#clip0_2109_186505)">
<path d="M0 0H51.9048V150H0V0Z" fill="#00FFFF" stroke="#161717" stroke-width="1.06904"/>
<path d="M104.285 112.801L51.9043 75.0008L104.285 37.8008V56.4008L78.0948 75.0008L104.285 93.6008V112.801Z" fill="#00FFFF" stroke="#161717" stroke-width="1.06904"/>
<path d="M115.714 46.1984L148.095 35.3984L150 44.3984L117.619 55.1984L115.714 46.1984Z" fill="#00FFFF" stroke="#161717" stroke-width="1.06904"/>
<path d="M115.714 103.801L148.095 114.601L150 105.601L117.619 94.8008L115.714 103.801Z" fill="#00FFFF" stroke="#161717" stroke-width="1.06904"/>
<path d="M108.096 30.6016L137.143 9.60156L140.477 17.4016L111.429 38.4016L108.096 30.6016Z" fill="#00FFFF" stroke="#161717" stroke-width="1.06904"/>
<path d="M108.096 119.402L137.143 140.402L140.477 132.602L111.429 111.602L108.096 119.402Z" fill="#00FFFF" stroke="#161717" stroke-width="1.06904"/>
</g>
<defs>
<clipPath id="clip0_2109_186505">
<rect width="150" height="150" fill="white"/>
</clipPath>
</defs>
</svg>
