<svg width="150" height="150" viewBox="0 0 150 150" fill="none" xmlns="http://www.w3.org/2000/svg">
<g clip-path="url(#clip0_2109_186514)">
<path d="M56.4004 112.801H93.6004V150.001H56.4004V112.801Z" stroke="black" stroke-width="0.979796"/>
<path d="M56.4004 75H93.6004V112.8H56.4004V75Z" stroke="black" stroke-width="0.979796"/>
<path d="M56.4004 37.8008H93.6004V75.0008H56.4004V37.8008Z" stroke="black" stroke-width="0.979796"/>
<path d="M62.4004 131.398H87.6004" stroke="black" stroke-width="0.979796"/>
<path d="M62.4004 93.6016H87.6004" stroke="black" stroke-width="0.979796"/>
<path d="M62.4004 56.3984H87.6004" stroke="black" stroke-width="0.979796"/>
<path d="M79.9996 0L79.5996 18.6H70.3996L69.9996 0L63.1996 1.8L57.1996 4.8L51.5996 8.4L46.7996 13.2L42.7996 18.6L39.9996 24.6L38.3996 31.2L37.5996 37.8H112.4L111.6 31.2L110 24.6L107.2 18.6L103.2 13.2L98.3996 8.4L92.7996 4.8L86.7996 1.8L79.9996 0Z" fill="#00FFFF" stroke="black" stroke-width="0.979796"/>
<path d="M93.5996 37.8008V150.001H150L148.4 140.401L150 131.401L148.4 121.801L150 112.801L148.4 103.201L150 93.6008L148.4 84.6008L150 75.0008H124.8V37.8008H93.5996Z" fill="#00FFFF" stroke="black" stroke-width="0.979796"/>
<path d="M56.4 150.001V37.8008H0L1.6 42.0008L0 46.8008L1.6 51.6008L0 56.4008L1.6 61.2008L0 65.4008L1.6 70.2008L0 75.0008H24.8V150.001H56.4Z" fill="#00FFFF" stroke="black" stroke-width="0.979796"/>
</g>
<defs>
<clipPath id="clip0_2109_186514">
<rect width="150" height="150" fill="white"/>
</clipPath>
</defs>
</svg>
