<svg width="150" height="150" viewBox="0 0 150 150" fill="none" xmlns="http://www.w3.org/2000/svg">
<g clip-path="url(#clip0_2109_186626)">
<path d="M77.3252 75V150H79.6508H81.9764H86.0461V142.2L86.6275 141L87.7903 140.4H131.976L134.883 139.8L137.79 137.4L140.116 135L140.697 131.4V86.4L141.279 85.2L142.441 84.6H148.255H150V82.2V75H138.372L136.046 75.6L133.721 77.4L131.976 82.2V126.6L130.814 129.6L127.325 131.4H86.0461V18.6H127.325L130.814 19.8L131.976 23.4V67.8L133.721 72.6L136.046 74.4L141.279 75H150V65.4H142.441L140.697 64.2V18.6L140.116 15L137.79 12L134.883 10.2L131.976 9.6H87.7903L86.6275 9L86.0461 7.8V1.8V0H83.7205H79.6508H77.3252V75Z" fill="#00FFFF"/>
<path d="M150 75V82.2V84.6H148.255H142.441L141.279 85.2L140.697 86.4V131.4L140.116 135L137.79 137.4L134.883 139.8L131.976 140.4H87.7903L86.6275 141L86.0461 142.2V150H81.9764H79.6508H77.3252V75V0H79.6508H83.7205H86.0461V1.8V7.8L86.6275 9L87.7903 9.6H131.976L134.883 10.2L137.79 12L140.116 15L140.697 18.6V64.2L142.441 65.4H150V75ZM150 75H138.372L136.046 75.6L133.721 77.4L131.976 82.2V126.6L130.814 129.6L127.325 131.4H86.0461V18.6H127.325L130.814 19.8L131.976 23.4V67.8L133.721 72.6L136.046 74.4L141.279 75H150Z" stroke="black" stroke-width="1.18125"/>
<path d="M72.6744 75V150H70.3488H68.0233H63.3721V142.2L62.7907 141L61.6279 140.4H18.0233L14.5349 139.8L9.88372 135L9.30233 131.4V86.4L8.72093 85.2L7.55814 84.6H1.74419H0V82.2V75H11.0465L13.3721 75.6L17.4419 79.8L18.0233 82.2V126.6L18.6047 128.4L20.9302 130.8L22.6744 131.4H63.3721V18.6H22.6744L19.7674 19.8L18.0233 23.4V67.8L17.4419 70.2L13.3721 74.4L8.13953 75H0V65.4H7.55814L9.30233 64.2V18.6L9.88372 15L12.2093 12L14.5349 10.2L18.0233 9.6H61.6279L62.7907 9L63.3721 7.8V1.8V0H65.6977H70.3488H72.6744V75Z" fill="#00FFFF"/>
<path d="M0 75V82.2V84.6H1.74419H7.55814L8.72093 85.2L9.30233 86.4V131.4L9.88372 135L14.5349 139.8L18.0233 140.4H61.6279L62.7907 141L63.3721 142.2V150H68.0233H70.3488H72.6744V75V0H70.3488H65.6977H63.3721V1.8V7.8L62.7907 9L61.6279 9.6H18.0233L14.5349 10.2L12.2093 12L9.88372 15L9.30233 18.6V64.2L7.55814 65.4H0V75ZM0 75H11.0465L13.3721 75.6L17.4419 79.8L18.0233 82.2V126.6L18.6047 128.4L20.9302 130.8L22.6744 131.4H63.3721V18.6H22.6744L19.7674 19.8L18.0233 23.4V67.8L17.4419 70.2L13.3721 74.4L8.13953 75H0Z" stroke="black" stroke-width="1.18125"/>
</g>
<defs>
<clipPath id="clip0_2109_186626">
<rect width="150" height="150" fill="white"/>
</clipPath>
</defs>
</svg>
