<svg width="150" height="150" viewBox="0 0 150 150" fill="none" xmlns="http://www.w3.org/2000/svg">
<g clip-path="url(#clip0_2109_186636)">
<path d="M114.4 98.3208H92L103.2 66.1779L115.6 66.8082L118.8 61.1359L122.4 57.3544L126.8 54.8334L128.8 54.2031L134.8 54.8334L138.4 56.7241L144.4 63.0267L148.4 72.4804L149.6 78.1527L150 83.825L149.2 90.7577L148.8 93.2788L136.4 73.7409L125.2 87.6065L135.2 111.556L132.4 113.447L126.4 112.186L122 109.035L118 104.623L114.4 98.3208Z" fill="#00FFFF" stroke="black" stroke-width="1.00419"/>
<path d="M83.1996 102.731L89.1996 99.5798L90.3996 98.3193L98.3996 73.7395L99.1996 68.0672L99.9996 61.7647L101.2 54.8319L102.4 47.8992L103.2 40.9664L104.4 34.6639L105.6 27.7311L106.8 17.0168L106.4 13.2353L104.8 10.084L100.8 8.19328L98.7996 9.45378L95.1996 17.0168L85.9996 59.2437L82.7996 56.7227L83.1996 46.0084V40.3361L83.5996 34.0336L83.9996 22.6891L84.3996 11.9748L83.5996 3.15126L81.9996 1.2605L80.3996 0L77.9996 0.630252L75.9996 2.52101L74.3996 6.30252L73.5996 11.9748L70.3996 54.2017H65.5996L65.1996 46.0084L64.7996 36.5546L64.3996 27.7311L63.9996 19.5378L62.3996 13.2353L58.3996 6.30252H55.9996L53.9996 7.56303L52.3996 10.7143L51.5996 22.0588L53.1996 56.7227H49.9996L48.3996 50.4202L46.7996 42.8571L45.1996 35.9244L43.5996 29.6218L41.9996 25.2101L37.9996 21.4286L35.9996 22.0588L33.9996 27.7311L33.5996 32.1429L34.3996 37.1849L36.3996 46.6387L38.3996 56.7227L39.9996 66.1765L41.9996 76.2605L42.3996 82.563L41.5996 92.6471L40.3996 103.992L40.7996 113.445L45.5996 121.008L48.3996 125.42L46.7996 147.479L82.7996 150L83.5996 144.958L84.7996 134.874L88.7996 131.723L93.1996 129.832L97.1996 128.571L99.1996 127.311L99.9996 125.42L101.6 118.487L103.2 111.555L104.8 105.252L106.4 98.3193L107.6 91.3866L109.2 85.084L110.8 78.1513L112.4 71.2185L113.2 65.5462L112.8 61.1345L110 56.7227H108L103.6 61.7647L100.4 69.958L97.5996 78.1513L94.7996 86.3445L91.9996 94.5378L90.3996 98.3193L86.3996 100.84L83.1996 102.731Z" fill="#00FFFF"/>
<path d="M81.1996 105.882L83.1996 102.731M83.1996 102.731L89.1996 99.5798L90.3996 98.3193M83.1996 102.731L86.3996 100.84L90.3996 98.3193M90.3996 98.3193L98.3996 73.7395L99.1996 68.0672L99.9996 61.7647L101.2 54.8319L102.4 47.8992L103.2 40.9664L104.4 34.6639L105.6 27.7311L106.8 17.0168L106.4 13.2353L104.8 10.084L100.8 8.19328L98.7996 9.45378L95.1996 17.0168L85.9996 59.2437L82.7996 56.7227L83.1996 46.0084V40.3361L83.5996 34.0336L83.9996 22.6891L84.3996 11.9748L83.5996 3.15126L81.9996 1.2605L80.3996 0L77.9996 0.630252L75.9996 2.52101L74.3996 6.30252L73.5996 11.9748L70.3996 54.2017H65.5996L65.1996 46.0084L64.7996 36.5546L64.3996 27.7311L63.9996 19.5378L62.3996 13.2353L58.3996 6.30252H55.9996L53.9996 7.56303L52.3996 10.7143L51.5996 22.0588L53.1996 56.7227H49.9996L48.3996 50.4202L46.7996 42.8571L45.1996 35.9244L43.5996 29.6218L41.9996 25.2101L37.9996 21.4286L35.9996 22.0588L33.9996 27.7311L33.5996 32.1429L34.3996 37.1849L36.3996 46.6387L38.3996 56.7227L39.9996 66.1765L41.9996 76.2605L42.3996 82.563L41.5996 92.6471L40.3996 103.992L40.7996 113.445L45.5996 121.008L48.3996 125.42L46.7996 147.479L82.7996 150L83.5996 144.958L84.7996 134.874L88.7996 131.723L93.1996 129.832L97.1996 128.571L99.1996 127.311L99.9996 125.42L101.6 118.487L103.2 111.555L104.8 105.252L106.4 98.3193L107.6 91.3866L109.2 85.084L110.8 78.1513L112.4 71.2185L113.2 65.5462L112.8 61.1345L110 56.7227H108L103.6 61.7647L100.4 69.958L97.5996 78.1513L94.7996 86.3445L91.9996 94.5378L90.3996 98.3193Z" stroke="black" stroke-width="1.00419"/>
<path d="M34.4 98.3183L31.2 103.36L29.6 105.881L25.6 109.033L21.2 110.923L15.2 110.293L11.6 108.402L5.6 102.1L1.6 92.6461L0.4 86.9738L0 81.3015L0.8 73.7385L1.2 71.2175L13.6 90.7553L24.8 76.8898L14.8 53.5704L16.4 51.6797H21.2L26 54.2007L30 57.9822L32 59.873L34.8 66.1755H101.6L90.8 98.3183H34.4Z" fill="#00FFFF" stroke="black" stroke-width="1.00419"/>
</g>
<defs>
<clipPath id="clip0_2109_186636">
<rect width="150" height="150" fill="white"/>
</clipPath>
</defs>
</svg>
