<svg width="150" height="150" viewBox="0 0 150 150" fill="none" xmlns="http://www.w3.org/2000/svg">
<g clip-path="url(#clip0_2109_186904)">
<path fill-rule="evenodd" clip-rule="evenodd" d="M75 18.6H78.6L82.2 19.2L85.8 20.4L89.4 21L98.4 24L106.2 28.2L113.4 34.2L119.4 40.8L124.8 48.6L128.4 57L130.8 65.4L131.4 75L130.2 86.4L127.2 97.2L121.8 106.8L115.2 114.6L106.8 121.8L97.2 127.2L86.4 130.2L75 131.4L63.6 130.2L52.8 127.2L43.2 121.8L35.4 114.6L28.2 106.8L22.8 97.2L19.8 86.4L18.6 75L19.8 63.6L22.8 52.8L28.2 43.2L35.4 34.8L43.2 28.2L52.8 22.8L63.6 19.8L75 18.6V0L60 1.8L45.6 6L33 12.6L22.2 22.2L12.6 33L6 45.6L1.8 60L0 75L1.8 90L6 104.4L12.6 117L22.2 127.8L33 137.4L45.6 144L60 148.2L75 150L90 148.2L104.4 144L117 137.4L127.8 127.8L137.4 117L144 104.4L148.2 90L150 75L148.8 62.4L145.8 51L141 39.6L134.4 29.4L126 20.4L116.4 12.6L106.2 6.6L94.2 2.4L91.8 1.8H89.4L87 1.2L84.6 0.6H82.2L79.8 0H77.4H75V18.6ZM75 54L79.2 54.6L82.8 55.8L86.4 57.6L90 60L92.4 63.6L94.2 67.2L95.4 70.8L96 75L95.4 79.2L94.2 82.8L92.4 86.4L90 90L86.4 92.4L82.8 94.2L79.2 95.4L75 96L70.8 95.4L67.2 94.2L63.6 92.4L60 90L57.6 86.4L55.8 82.8L54.6 79.2L54 75L54.6 70.8L55.8 67.2L57.6 63.6L60 60L63.6 57.6L67.2 55.8L70.8 54.6L75 54Z" fill="#00FFFF"/>
<path d="M75 18.6H78.6L82.2 19.2L85.8 20.4L89.4 21L98.4 24L106.2 28.2L113.4 34.2L119.4 40.8L124.8 48.6L128.4 57L130.8 65.4L131.4 75L130.2 86.4L127.2 97.2L121.8 106.8L115.2 114.6L106.8 121.8L97.2 127.2L86.4 130.2L75 131.4L63.6 130.2L52.8 127.2L43.2 121.8L35.4 114.6L28.2 106.8L22.8 97.2L19.8 86.4L18.6 75L19.8 63.6L22.8 52.8L28.2 43.2L35.4 34.8L43.2 28.2L52.8 22.8L63.6 19.8L75 18.6ZM75 18.6V0M75 0L60 1.8L45.6 6L33 12.6L22.2 22.2L12.6 33L6 45.6L1.8 60L0 75L1.8 90L6 104.4L12.6 117L22.2 127.8L33 137.4L45.6 144L60 148.2L75 150L90 148.2L104.4 144L117 137.4L127.8 127.8L137.4 117L144 104.4L148.2 90L150 75L148.8 62.4L145.8 51L141 39.6L134.4 29.4L126 20.4L116.4 12.6L106.2 6.6L94.2 2.4L89.4 1.8L84.6 0.6L79.8 0H75Z" stroke="black" stroke-width="1.2"/>
<path d="M75 96C86.598 96 96 86.598 96 75C96 63.402 86.598 54 75 54C63.402 54 54 63.402 54 75C54 86.598 63.402 96 75 96Z" stroke="black" stroke-width="1.2"/>
</g>
<defs>
<clipPath id="clip0_2109_186904">
<rect width="150" height="150" fill="white"/>
</clipPath>
</defs>
</svg>
