<svg width="150" height="150" viewBox="0 0 150 150" fill="none" xmlns="http://www.w3.org/2000/svg">
<g clip-path="url(#clip0_2109_186546)">
<path d="M131.2 150C141.583 150 150 135.041 150 116.588C150 98.135 141.583 83.1758 131.2 83.1758C120.817 83.1758 112.4 98.135 112.4 116.588C112.4 135.041 120.817 150 131.2 150Z" stroke="black" stroke-width="1.06651"/>
<path d="M93.5998 150C103.983 150 112.4 135.041 112.4 116.588C112.4 98.135 103.983 83.1758 93.5998 83.1758C83.2169 83.1758 74.7998 98.135 74.7998 116.588C74.7998 135.041 83.2169 150 93.5998 150Z" stroke="black" stroke-width="1.06651"/>
<path d="M18.8 150C29.183 150 37.6 135.041 37.6 116.588C37.6 98.135 29.183 83.1758 18.8 83.1758C8.41705 83.1758 0 98.135 0 116.588C0 135.041 8.41705 150 18.8 150Z" stroke="black" stroke-width="1.06651"/>
<path d="M46.3996 31.9905H31.5996L55.5996 74.6445L79.5996 31.9905H64.7996V0H46.3996V31.9905Z" fill="#00FFFF" stroke="black" stroke-width="1.06651"/>
<path d="M55.9996 149.29C66.1616 149.29 74.3996 134.649 74.3996 116.588C74.3996 98.5276 66.1616 83.8867 55.9996 83.8867C45.8376 83.8867 37.5996 98.5276 37.5996 116.588C37.5996 134.649 45.8376 149.29 55.9996 149.29Z" fill="#00FFFF" stroke="black" stroke-width="1.06651"/>
</g>
<defs>
<clipPath id="clip0_2109_186546">
<rect width="150" height="150" fill="white"/>
</clipPath>
</defs>
</svg>
