<svg width="150" height="150" viewBox="0 0 150 150" fill="none" xmlns="http://www.w3.org/2000/svg">
<g clip-path="url(#clip0_2109_186811)">
<path d="M26.9084 105.599C41.7695 105.599 53.8168 92.9737 53.8168 77.3992C53.8168 61.8248 41.7695 49.1992 26.9084 49.1992C12.0473 49.1992 0 61.8248 0 77.3992C0 92.9737 12.0473 105.599 26.9084 105.599Z" fill="#00FFFF" stroke="black" stroke-width="1.1722"/>
<path d="M89.3128 105.599H26.9082L32.0609 104.999L37.2135 103.199L41.7937 100.799L45.8013 97.1992L49.2364 92.9992L51.5265 88.1992L53.2441 82.7992L53.8166 77.3992L53.2441 71.9992L51.5265 66.5992L49.2364 61.7992L45.8013 57.5992L41.7937 53.9992L37.2135 51.5992L32.0609 49.7992L26.9082 49.1992H89.3128L94.4655 49.7992L99.6181 51.5992L104.198 53.9992L108.206 57.5992L111.641 61.7992L113.931 66.5992L115.649 71.9992L116.221 77.3992L115.649 82.7992L113.931 88.1992L111.641 92.9992L108.206 97.1992L104.198 100.799L99.6181 103.199L94.4655 104.999L89.3128 105.599Z" fill="#00FFFF" stroke="black" stroke-width="1.1722"/>
<path d="M60.1142 149.399C74.6591 149.399 86.4501 137.042 86.4501 121.799C86.4501 106.556 74.6591 94.1992 60.1142 94.1992C45.5693 94.1992 33.7783 106.556 33.7783 121.799C33.7783 137.042 45.5693 149.399 60.1142 149.399Z" fill="#00FFFF" stroke="black" stroke-width="1.1722"/>
<path d="M123.092 150.002H60.6875L65.8402 149.402L70.9928 147.602L75.573 145.202L79.0081 141.602L82.4432 137.402L84.7333 132.602L86.4509 127.202L87.0234 121.802L86.4509 116.402L84.7333 111.002L82.4432 106.202L79.0081 102.002L75.573 98.4016L70.9928 96.0016L65.8402 94.2016L60.6875 93.6016H123.092L128.245 94.2016L133.397 96.0016L137.978 98.4016L141.985 102.002L145.42 106.202L147.71 111.002L149.428 116.402L150 121.802L149.428 127.202L147.71 132.602L145.42 137.402L141.985 141.602L137.978 145.202L133.397 147.602L128.245 149.402L123.092 150.002Z" fill="#00FFFF" stroke="black" stroke-width="1.1722"/>
<path d="M123.092 150L128.244 149.4L133.397 147.6L137.977 145.2L141.985 141.6L145.42 137.4L147.71 132.6L149.427 127.2L150 121.8L149.427 117L148.282 111.6L145.992 107.4L143.13 103.2L62.4046 0H0L80.1527 103.2L83.0153 107.4L85.3053 111.6L86.4504 117L87.0229 121.8L86.4504 127.2L84.7328 132.6L82.4427 137.4L79.0076 141.6L75.5725 145.2L70.9924 147.6L65.8397 149.4L60.687 150H123.092Z" fill="#00FFFF" stroke="black" stroke-width="1.1722"/>
<path d="M60.1142 60.5984C74.6591 60.5984 86.4501 48.2415 86.4501 32.9984C86.4501 17.7554 74.6591 5.39844 60.1142 5.39844C45.5693 5.39844 33.7783 17.7554 33.7783 32.9984C33.7783 48.2415 45.5693 60.5984 60.1142 60.5984Z" fill="#00FFFF" stroke="black" stroke-width="1.1722"/>
<path d="M123.092 61.2008H60.6875L65.8402 60.6008L70.9928 58.8008L75.573 56.4008L79.0081 52.8008L82.4432 48.6008L84.7333 43.8008L86.4509 38.4008L87.0234 33.0008L86.4509 27.6008L84.7333 22.2008L82.4432 17.4008L79.0081 13.2008L75.573 9.60078L70.9928 7.20078L65.8402 5.40078L60.6875 4.80078H123.092L128.245 5.40078L133.397 7.20078L137.978 9.60078L141.985 13.2008L145.42 17.4008L147.71 22.2008L149.428 27.6008L150 33.0008L149.428 38.4008L147.71 43.8008L145.42 48.6008L141.985 52.8008L137.978 56.4008L133.397 58.8008L128.245 60.6008L123.092 61.2008Z" fill="#00FFFF" stroke="black" stroke-width="1.1722"/>
</g>
<defs>
<clipPath id="clip0_2109_186811">
<rect width="150" height="150" fill="white"/>
</clipPath>
</defs>
</svg>
