<svg width="150" height="150" viewBox="0 0 150 150" fill="none" xmlns="http://www.w3.org/2000/svg">
<g clip-path="url(#clip0_2109_186763)">
<path d="M4.51172 25.8008L75.0004 44.4008L145.489 25.8008H132.519L75.0004 39.6008L17.4816 25.8008H4.51172Z" fill="#00FFFF" stroke="black" stroke-width="1.16335"/>
<path d="M140.978 25.8008V29.4008H134.211V31.8008H140.978V34.2008H134.211V36.6008H140.978V39.0008H134.211V40.8008H140.978V43.2008H134.211V45.6008H140.978V48.0008H143.233V45.6008H150V43.2008H143.233V40.8008H150V39.0008H143.233V36.6008H150V34.2008H143.233V31.8008H150V29.4008H143.233V25.8008H140.978Z" fill="#00FFFF" stroke="black" stroke-width="1.16335"/>
<path d="M6.76692 25.8008V29.4008H0V31.8008H6.76692V34.2008H0V36.6008H6.76692V39.0008H0V40.8008H6.76692V43.2008H0V45.6008H6.76692V48.0008H9.02256V45.6008H15.2256V43.2008H9.02256V40.8008H15.2256V39.0008H9.02256V36.6008H15.2256V34.2008H9.02256V31.8008H15.2256V29.4008H9.02256V25.8008H6.76692Z" fill="#00FFFF" stroke="black" stroke-width="1.16335"/>
<path d="M21.9929 150L65.9779 25.8H4.51172V18.6H68.2335L75.0004 0L81.7674 18.6H145.489V25.8H84.023L101.504 75L128.008 150H118.985L108.271 117H75.0004V112.2H106.015L96.9929 87L75.0004 112.2V108L94.7373 84.6H75.0004V79.8H94.7373L85.7147 54L75.0004 79.8V72.6L84.023 49.2H75.0004V44.4H81.7674L75.0004 23.4L68.2335 44.4H75.0004V49.2H65.9779L75.0004 72.6V79.8L63.7222 54L55.2636 79.8H75.0004V84.6H55.2636L75.0004 108V112.8L53.008 87L43.9854 112.8H75.0004V117H41.7298L31.0155 150H21.9929Z" fill="#00FFFF"/>
<path d="M75.0004 117H108.271L118.985 150H128.008L101.504 75L84.023 25.8H145.489V18.6H81.7674L75.0004 0L68.2335 18.6H4.51172V25.8H65.9779L21.9929 150H31.0155L41.7298 117H75.0004ZM75.0004 117V112.2M75.0004 117V112.8M75.0004 112.2H106.015L96.9929 87L75.0004 112.2ZM75.0004 112.2V108M75.0004 108L94.7373 84.6H75.0004M75.0004 108L55.2636 84.6H75.0004M75.0004 108V112.8M75.0004 84.6V79.8M75.0004 79.8H94.7373L85.7147 54L75.0004 79.8ZM75.0004 79.8V72.6M75.0004 79.8L63.7222 54L55.2636 79.8H75.0004ZM75.0004 72.6L84.023 49.2H75.0004M75.0004 72.6L65.9779 49.2H75.0004M75.0004 49.2V44.4M75.0004 44.4H81.7674L75.0004 23.4L68.2335 44.4H75.0004ZM75.0004 112.8L53.008 87L43.9854 112.8H75.0004Z" stroke="black" stroke-width="1.16335"/>
</g>
<defs>
<clipPath id="clip0_2109_186763">
<rect width="150" height="150" fill="white"/>
</clipPath>
</defs>
</svg>
