<svg width="150" height="150" viewBox="0 0 150 150" fill="none" xmlns="http://www.w3.org/2000/svg">
<g clip-path="url(#clip0_2109_186631)">
<path d="M134.4 10.5727L136.8 11.8943L137.6 15.859V62.1145H12.4V15.859L13.6 11.8943L15.6 10.5727H75.2V0H12.4L10.4 0.660793L6.8 6.60793L6.4 16.5198V60.1322L6 61.4537L5.2 62.1145H1.2H0V64.7577V70.0441V72.6872H150V70.0441V67.4009V64.7577V62.1145H144.8L144 61.4537L143.6 60.1322V10.5727L143.2 6.60793L142 3.30396L140 0.660793L137.6 0H75.2V10.5727H134.4Z" fill="#00FFFF"/>
<path d="M75.2 10.5727H15.6L13.6 11.8943L12.4 15.859V62.1145H137.6V15.859L136.8 11.8943L134.4 10.5727H75.2ZM75.2 10.5727V0M75.2 0H12.4L10.4 0.660793L6.8 6.60793L6.4 16.5198V60.1322L6 61.4537L5.2 62.1145H1.2H0V64.7577V70.0441V72.6872H150V70.0441V67.4009V64.7577V62.1145H144.8L144 61.4537L143.6 60.1322V10.5727L143.2 6.60793L142 3.30396L140 0.660793L137.6 0H75.2Z" stroke="black" stroke-width="1.02824"/>
<path d="M134.4 139.427L136.8 137.445L137.6 134.141V87.8852H12.4V134.141L12.8 136.123L14.4 138.766L15.6 139.427H75.2V150H12.4L10.4 149.339L6.8 143.392L6.4 133.48V89.8676L6 88.546L5.2 87.8852H1.2H0V85.242V77.9733L150 77.3125V79.9557V87.8852H144.8L144 88.546L143.6 89.8676V139.427L143.2 143.392L142 146.696L140 149.339L137.6 150H75.2V139.427H134.4Z" fill="#00FFFF"/>
<path d="M75.2 139.427H15.6L14.4 138.766L12.8 136.123L12.4 134.141V87.8852H137.6V134.141L136.8 137.445L134.4 139.427H75.2ZM75.2 139.427V150M75.2 150H12.4L10.4 149.339L6.8 143.392L6.4 133.48V89.8676L6 88.546L5.2 87.8852H1.2H0V85.242V77.9733L150 77.3125V79.9557V87.8852H144.8L144 88.546L143.6 89.8676V139.427L143.2 143.392L142 146.696L140 149.339L137.6 150H75.2Z" stroke="black" stroke-width="1.02824"/>
</g>
<defs>
<clipPath id="clip0_2109_186631">
<rect width="150" height="150" fill="white"/>
</clipPath>
</defs>
</svg>
