<svg width="150" height="150" viewBox="0 0 150 150" fill="none" xmlns="http://www.w3.org/2000/svg">
<g clip-path="url(#clip0_2109_186754)">
<path d="M87.1791 51.0016H74.9997V48.6016H78.2048H85.2561L88.4612 49.2016L96.7945 50.4016L104.487 51.6016L110.897 53.4016L116.666 55.8016L121.153 58.2016L125 61.2016L126.923 64.2016L127.564 67.2016L126.282 70.8016L123.718 74.4016L118.589 77.4016L112.179 79.8016L104.487 82.2016L95.5125 84.0016L85.2561 84.6016L74.9997 85.2016L64.7432 84.6016L54.4868 84.0016L45.5125 82.2016L37.8202 79.8016L31.4099 77.4016L26.2817 74.4016L23.7176 70.8016L22.4355 67.2016L23.7176 63.6016L26.2817 60.0016L31.4099 57.0016L37.8202 54.0016L45.5125 51.6016L54.4868 49.8016L64.7432 49.2016L74.9997 48.6016V51.0016L65.3843 51.6016L57.0509 52.2016L49.3586 54.0016L42.3073 55.8016L36.5381 58.2016L32.692 60.6016L29.4868 64.2016L28.8458 67.2016L29.4868 70.2016L32.692 73.2016L36.5381 76.2016L42.3073 78.6016L49.3586 80.4016L57.0509 82.2016L65.3843 82.8016L74.9997 83.4016L84.615 82.8016L92.9484 82.2016L100.641 80.4016L107.692 78.6016L113.461 76.2016L117.307 73.2016L120.512 70.2016L121.153 67.2016L120.512 64.2016L118.589 61.8016L115.384 59.4016L111.538 57.0016L106.41 55.2016L100.641 53.4016L94.2304 52.2016L87.1791 51.0016Z" fill="#00FFFF"/>
<path d="M74.9997 51.0016H87.1791L94.2304 52.2016L100.641 53.4016L106.41 55.2016L111.538 57.0016L115.384 59.4016L118.589 61.8016L120.512 64.2016L121.153 67.2016L120.512 70.2016L117.307 73.2016L113.461 76.2016L107.692 78.6016L100.641 80.4016L92.9484 82.2016L84.615 82.8016L74.9997 83.4016L65.3843 82.8016L57.0509 82.2016L49.3586 80.4016L42.3073 78.6016L36.5381 76.2016L32.692 73.2016L29.4868 70.2016L28.8458 67.2016L29.4868 64.2016L32.692 60.6016L36.5381 58.2016L42.3073 55.8016L49.3586 54.0016L57.0509 52.2016L65.3843 51.6016L74.9997 51.0016ZM74.9997 51.0016V48.6016M74.9997 48.6016H78.2048H85.2561L88.4612 49.2016L96.7945 50.4016L104.487 51.6016L110.897 53.4016L116.666 55.8016L121.153 58.2016L125 61.2016L126.923 64.2016L127.564 67.2016L126.282 70.8016L123.718 74.4016L118.589 77.4016L112.179 79.8016L104.487 82.2016L95.5125 84.0016L85.2561 84.6016L74.9997 85.2016L64.7432 84.6016L54.4868 84.0016L45.5125 82.2016L37.8202 79.8016L31.4099 77.4016L26.2817 74.4016L23.7176 70.8016L22.4355 67.2016L23.7176 63.6016L26.2817 60.0016L31.4099 57.0016L37.8202 54.0016L45.5125 51.6016L54.4868 49.8016L64.7432 49.2016L74.9997 48.6016Z" stroke="black" stroke-width="1.24035"/>
<path d="M66.6668 49.2008L63.4616 54.0008L60.2565 58.8008L57.6924 57.6008L59.6155 54.6008L61.5386 52.2008L63.4616 49.2008L65.3847 46.8008L70.5129 40.8008L75.6411 35.4008L80.7693 30.6008L85.2565 27.0008L90.3847 24.6008L94.2309 23.4008L98.077 22.8008L101.282 24.0008L104.487 27.0008L105.769 31.2008L106.41 36.6008L105.769 43.2008L103.846 51.0008L101.282 58.8008L97.436 67.2008L92.3078 76.2008L86.5386 84.6008L80.7693 91.8008L74.3591 98.4008L68.5898 103.801L62.8206 107.401L57.6924 109.801L52.5642 110.401L48.718 109.801L45.5129 106.801L44.2309 102.601L43.5898 97.2008L44.2309 90.6008L46.1539 82.8008L48.718 75.0008L52.5642 66.6008L57.6924 57.6008L60.2565 58.8008L55.7693 66.6008L52.5642 73.8008L50.0001 81.0008L48.077 87.6008L47.436 93.6008L48.077 98.4008L49.3591 102.001L51.9232 104.401L55.1283 105.001L59.6155 104.401L64.1027 102.601L69.2309 99.0008L74.3591 94.2008L80.1283 88.8008L85.2565 82.2008L89.7437 75.0008L94.2309 67.2008L97.436 60.0008L100 52.8008L101.923 46.2008L102.564 40.8008L101.923 35.4008L100.641 31.8008L98.077 29.4008L92.3078 28.8008L88.4616 30.0008L84.6155 32.4008L80.1283 35.4008L75.6411 39.0008L71.1539 43.8008L66.6668 49.2008Z" fill="#00FFFF"/>
<path d="M60.2565 58.8008L63.4616 54.0008L66.6668 49.2008L71.1539 43.8008L75.6411 39.0008L80.1283 35.4008L84.6155 32.4008L88.4616 30.0008L92.3078 28.8008L98.077 29.4008L100.641 31.8008L101.923 35.4008L102.564 40.8008L101.923 46.2008L100 52.8008L97.436 60.0008L94.2309 67.2008L89.7437 75.0008L85.2565 82.2008L80.1283 88.8008L74.3591 94.2008L69.2309 99.0008L64.1027 102.601L59.6155 104.401L55.1283 105.001L51.9232 104.401L49.3591 102.001L48.077 98.4008L47.436 93.6008L48.077 87.6008L50.0001 81.0008L52.5642 73.8008L55.7693 66.6008L60.2565 58.8008ZM60.2565 58.8008L57.6924 57.6008M57.6924 57.6008L59.6155 54.6008L61.5386 52.2008L63.4616 49.2008L65.3847 46.8008L70.5129 40.8008L75.6411 35.4008L80.7693 30.6008L85.2565 27.0008L90.3847 24.6008L94.2309 23.4008L98.077 22.8008L101.282 24.0008L104.487 27.0008L105.769 31.2008L106.41 36.6008L105.769 43.2008L103.846 51.0008L101.282 58.8008L97.436 67.2008L92.3078 76.2008L86.5386 84.6008L80.7693 91.8008L74.3591 98.4008L68.5898 103.801L62.8206 107.401L57.6924 109.801L52.5642 110.401L48.718 109.801L45.5129 106.801L44.2309 102.601L43.5898 97.2008L44.2309 90.6008L46.1539 82.8008L48.718 75.0008L52.5642 66.6008L57.6924 57.6008Z" stroke="black" stroke-width="1.24035"/>
<path d="M95.5129 68.9984L92.9488 63.5984L89.7437 58.7984L92.3078 57.5984L95.5129 62.9984L98.077 68.9984L101.282 76.1984L103.846 83.3984L105.128 89.3984L106.41 95.3984V100.198L105.128 104.398L103.846 107.398L101.282 109.798L97.436 110.398L92.3078 109.798L87.1796 107.398L81.4104 103.798L75.6411 98.3984L69.2309 91.7984L63.4616 84.5984L57.6924 76.1984L52.5642 67.1984L48.718 58.7984L46.1539 50.9984L44.2309 43.1984L43.5898 36.5984L44.2309 31.1984L45.5129 26.9984L48.718 23.9984L52.5642 23.3984L57.6924 23.9984L62.8206 26.3984L68.5898 29.9984L74.3591 35.3984L80.7693 41.9984L86.5386 49.1984L92.3078 57.5984L89.7437 58.7984L85.2565 51.5984L80.1283 44.9984L74.3591 39.5984L69.2309 34.7984L64.1027 31.1984L59.6155 29.3984L55.1283 28.7984L51.9232 29.3984L49.3591 31.7984L48.077 35.3984L47.436 40.7984L48.077 46.1984L50.0001 52.7984L52.5642 59.9984L55.7693 67.1984L60.2565 74.9984L64.7437 82.1984L69.8719 88.7984L75.6411 94.1984L80.7693 98.9984L85.8975 102.598L90.3847 104.398L94.8719 104.998L98.077 104.398L100.641 102.598L101.923 99.5984L102.564 95.9984V91.7984L101.923 86.3984L100.641 80.9984L98.077 74.9984L95.5129 68.9984Z" fill="#00FFFF"/>
<path d="M89.7437 58.7984L92.9488 63.5984L95.5129 68.9984L98.077 74.9984L100.641 80.9984L101.923 86.3984L102.564 91.7984V95.9984L101.923 99.5984L100.641 102.598L98.077 104.398L94.8719 104.998L90.3847 104.398L85.8975 102.598L80.7693 98.9984L75.6411 94.1984L69.8719 88.7984L64.7437 82.1984L60.2565 74.9984L55.7693 67.1984L52.5642 59.9984L50.0001 52.7984L48.077 46.1984L47.436 40.7984L48.077 35.3984L49.3591 31.7984L51.9232 29.3984L55.1283 28.7984L59.6155 29.3984L64.1027 31.1984L69.2309 34.7984L74.3591 39.5984L80.1283 44.9984L85.2565 51.5984L89.7437 58.7984ZM89.7437 58.7984L92.3078 57.5984M92.3078 57.5984L95.5129 62.9984L98.077 68.9984L101.282 76.1984L103.846 83.3984L105.128 89.3984L106.41 95.3984V100.198L105.128 104.398L103.846 107.398L101.282 109.798L97.436 110.398L92.3078 109.798L87.1796 107.398L81.4104 103.798L75.6411 98.3984L69.2309 91.7984L63.4616 84.5984L57.6924 76.1984L52.5642 67.1984L48.718 58.7984L46.1539 50.9984L44.2309 43.1984L43.5898 36.5984L44.2309 31.1984L45.5129 26.9984L48.718 23.9984L52.5642 23.3984L57.6924 23.9984L62.8206 26.3984L68.5898 29.9984L74.3591 35.3984L80.7693 41.9984L86.5386 49.1984L92.3078 57.5984Z" stroke="black" stroke-width="1.24035"/>
<path d="M75.0003 74.4008C79.6027 74.4008 83.3337 70.9086 83.3337 66.6008C83.3337 62.293 79.6027 58.8008 75.0003 58.8008C70.398 58.8008 66.667 62.293 66.667 66.6008C66.667 70.9086 70.398 74.4008 75.0003 74.4008Z" fill="#00FFFF" stroke="black" stroke-width="1.24035"/>
<path d="M0 61.2L35.8974 0H114.103L150 61.2L144.231 72.6L107.051 9.6H42.9487L5.76923 72.6L0 61.2Z" fill="#00FFFF" stroke="black" stroke-width="1.24035"/>
<path d="M0 61.1992L35.8974 121.799H114.103L150 61.1992V91.7992L114.103 149.999H35.8974L0 91.7992V61.1992Z" fill="#00FFFF" stroke="black" stroke-width="1.24035"/>
</g>
<defs>
<clipPath id="clip0_2109_186754">
<rect width="150" height="150" fill="white"/>
</clipPath>
</defs>
</svg>
