<svg width="150" height="150" viewBox="0 0 150 150" fill="none" xmlns="http://www.w3.org/2000/svg">
<g clip-path="url(#clip0_2109_186791)">
<path d="M15.4341 133.2L12.5402 129L10.6109 125.4L9.6463 121.2L8.68167 117L7.71704 121.2L6.75241 125.4L4.82315 129L1.92926 133.2L0.96463 134.4L0.482315 136.2L0 138V139.2L0.482315 143.4L2.41158 147L5.30547 149.4L8.68167 150L11.5756 149.4L14.4695 147L16.3987 143.4L16.881 139.2V138L16.3987 136.2L15.9164 135L15.4341 133.2Z" fill="#00FFFF" stroke="black" stroke-width="1.0759"/>
<path d="M139.389 75L140.836 70.2L141.801 65.4L142.283 58.8V56.4L141.319 46.8L139.389 38.4L136.013 30L131.19 22.8L125.884 17.4L119.132 12.6L112.38 10.2L104.663 9L96.9456 10.2L90.1931 12.6L83.4407 17.4L78.1353 22.8L73.3121 30L69.9359 38.4L68.0066 46.8L67.042 56.4L67.5243 61.8L68.0066 67.8L2.8941 89.4L0.964844 80.4L59.325 60.6V56.4L60.2896 45L62.7012 34.2L67.042 24.6L72.8298 16.2L79.0999 9.6L86.8169 4.2L95.4986 1.2L104.663 0L113.827 1.2L122.508 4.2L130.225 9.6L136.978 16.2L142.283 24.6L146.624 34.2L149.036 45L150 56.4L149.036 67.8L146.624 78L142.283 87.6L136.978 96L130.225 102.6L122.508 108L113.827 111L104.663 112.2L99.8394 111.6L95.4986 111L90.6755 109.8L86.3346 107.4L81.9938 105L78.1353 102L74.2767 98.4L70.9005 94.2L8.68189 116.4L6.75263 107.4L69.9359 75H139.389Z" fill="#00FFFF" stroke="black" stroke-width="1.0759"/>
</g>
<defs>
<clipPath id="clip0_2109_186791">
<rect width="150" height="150" fill="white"/>
</clipPath>
</defs>
</svg>
