<svg width="150" height="150" viewBox="0 0 150 150" fill="none" xmlns="http://www.w3.org/2000/svg">
<g clip-path="url(#clip0_2109_186570)">
<path d="M74.735 79.1992H9.54064L5.83039 80.3992L1.06007 85.7992L0 89.9992V95.9992V139.199L1.06007 143.399L5.83039 148.799L9.54064 149.999H17.4912H140.459L144.17 148.799L148.94 143.399L150 139.199V133.199V89.9992L149.47 86.3992L147.88 83.3992L145.23 80.9992L142.049 79.1992L131.449 74.3992L120.848 69.5992L110.247 64.7992L100.177 59.9992L89.576 55.1992L78.9753 49.7992L68.3746 44.9992L57.7738 40.1992L56.7138 42.5992L54.0636 47.9992L53.0035 50.9992L63.6042 55.7992L74.2049 60.5992L84.8056 65.3992L95.4064 70.1992L105.477 75.5992L116.078 80.3992L126.678 85.1992L137.279 89.9992L139.399 91.1992L140.459 93.5992V135.599L139.399 137.999L137.279 139.199H12.7208L10.6007 137.999L9.54064 135.599V93.5992L10.6007 91.1992L12.7208 89.9992H74.735V79.1992Z" fill="#00FFFF" stroke="black" stroke-width="1.12787"/>
<path d="M68.3746 15.6H56.7139L75.2651 36.6L93.8163 15.6H82.1556V0H68.3746V15.6Z" fill="#00FFFF" stroke="black" stroke-width="1.12787"/>
</g>
<defs>
<clipPath id="clip0_2109_186570">
<rect width="150" height="150" fill="white"/>
</clipPath>
</defs>
</svg>
