<svg width="150" height="150" viewBox="0 0 150 150" fill="none" xmlns="http://www.w3.org/2000/svg">
<g clip-path="url(#clip0_2109_186664)">
<path d="M86.4919 21.1694L91.3307 22.379L96.7742 24.1936L101.613 26.6129L105.847 29.6371L117.944 13.3065L120.968 15.7258L123.992 17.5403L126.411 19.9597L128.831 22.9839L131.25 25.4032L133.669 28.4274L136.089 31.4516L137.903 34.4758L121.573 44.7581L123.992 49.5968L126.411 54.4355L128.226 59.2742L128.831 64.7177L148.79 61.6936L149.395 65.3226L150 68.9516V72.5807V79.8387L149.395 83.4677L148.79 87.0968L148.185 90.7258L128.831 86.4919L127.621 91.3307L125.806 96.7742L123.387 101.613L120.363 105.847L136.694 117.944L134.274 120.968L132.46 123.992L130.04 126.411L127.016 128.831L124.597 131.25L121.573 133.669L118.548 136.089L115.524 137.903L105.242 121.573L100.403 123.992L95.5645 126.411L90.7258 128.226L85.2823 128.831L88.3065 148.79L84.6774 149.395L81.0484 150H77.4194H70.1613L66.5323 149.395L62.9032 148.79L59.2742 148.185L63.5081 129.435L58.6694 127.621L53.2258 125.806L48.3871 123.387L44.1532 120.363L32.0565 136.694L29.0323 134.274L26.0081 132.46L23.5887 130.04L21.1694 127.016L18.75 124.597L16.3306 121.573L13.9113 118.548L12.0968 115.524L28.4274 105.242L26.0081 100.403L23.5887 95.5645L21.7742 90.7258L21.1694 85.2823L1.20968 88.3065L0.604839 84.6774L0 81.0484V77.4194V70.1613L0.604839 66.5323L1.20968 62.9032L1.81452 59.2742L21.1694 63.5081L22.379 58.6694L24.1936 53.2258L26.6129 48.3871L29.6371 44.1532L13.3065 32.0565L15.7258 29.0323L17.5403 26.0081L19.9597 23.5887L22.9839 21.1694L25.4032 18.75L28.4274 16.3306L31.4516 13.9113L34.4758 12.0968L44.7581 28.4274L49.5968 26.0081L54.4355 23.5887L59.2742 21.7742L64.7177 21.1694L61.6936 1.20968L65.3226 0.604839L68.9516 0H72.5807H79.8387L83.4677 0.604839L87.0968 1.20968L90.7258 1.81452L86.4919 21.1694Z" fill="#00FFFF" stroke="black" stroke-width="1.20968"/>
<path d="M74.395 88.3056C81.4099 88.3056 87.0966 82.6189 87.0966 75.604C87.0966 68.589 81.4099 62.9023 74.395 62.9023C67.3801 62.9023 61.6934 68.589 61.6934 75.604C61.6934 82.6189 67.3801 88.3056 74.395 88.3056Z" fill="#00FFFF" stroke="black" stroke-width="1.20968"/>
</g>
<defs>
<clipPath id="clip0_2109_186664">
<rect width="150" height="150" fill="white"/>
</clipPath>
</defs>
</svg>
