<svg width="150" height="150" viewBox="0 0 150 150" fill="none" xmlns="http://www.w3.org/2000/svg">
<g clip-path="url(#clip0_2109_186433)">
<path d="M116.26 150V146.767V144.181V140.948V138.362L119.918 130.603L123.577 122.845L126.422 115.086L128.455 107.328L130.487 99.569L131.707 91.1638L132.52 83.4052L132.926 75L132.52 66.5948L131.707 58.8362L130.487 50.431L128.455 42.6724L126.422 34.9138L123.577 27.1552L119.918 19.3966L116.26 11.6379V2.58621V0H118.699H141.87L143.902 9.69828L145.528 19.3966L146.748 28.4483L147.967 38.1466L148.78 47.1983L149.187 56.25L149.593 65.9483L150 75L149.593 84.0517L149.187 93.75L148.78 102.802L147.967 111.853L146.748 121.552L145.528 130.603L143.902 140.302L141.87 150H139.43H116.26Z" fill="#00FFFF" stroke="#161717" stroke-width="1.02533"/>
<path d="M39.8374 126.724L37.8049 120.905L36.9919 115.733L36.5854 109.267H1.62602H0V106.034V40.0862H36.5854L36.9919 33.6207L39.0244 25.2155L39.8374 23.2759L42.6829 21.3362L47.9675 20.0431L55.2846 19.3966L63.4146 18.75L72.7642 19.3966L81.7073 20.0431L90.6504 21.3362L97.9675 23.2759L103.252 27.8017L107.724 32.9741L111.382 39.4397L114.634 45.9052L116.667 53.0172L118.699 60.1293L119.512 67.2414L119.919 75L119.512 82.7586L118.699 89.8707L116.667 96.9828L114.634 104.095L111.382 110.56L107.724 117.026L103.252 122.198L97.9675 126.724L90.6504 128.664L81.7073 129.957L72.7642 130.603L63.4146 131.25L55.2846 130.603L47.9675 129.957L42.6829 128.664L39.8374 126.724Z" fill="#00FFFF" stroke="#161717" stroke-width="1.02533"/>
</g>
<defs>
<clipPath id="clip0_2109_186433">
<rect width="150" height="150" fill="white"/>
</clipPath>
</defs>
</svg>
