<svg width="150" height="150" viewBox="0 0 150 150" fill="none" xmlns="http://www.w3.org/2000/svg">
<g clip-path="url(#clip0_2109_186421)">
<path fill-rule="evenodd" clip-rule="evenodd" d="M15.6 128.67H0V150H150V128.67H59.2L74.8 64.6789L59.2 0H15.6L0 64.6789L15.6 128.67ZM112.4 0L120 1.37615L127.2 4.81651L133.6 11.0092L139.2 18.578L143.6 28.211L147.2 39.2202L149.2 51.6055L150 64.6789L149.2 77.7523L147.2 89.4495L143.6 100.459L139.2 110.092L133.6 117.661L127.2 123.853L120 127.294L112.4 128.67L104.8 127.294L97.6 123.853L91.2 117.661L86 110.092L81.2 100.459L77.6 89.4495L75.6 77.7523L74.8 64.6789L75.6 51.6055L77.6 39.2202L81.2 28.211L86 18.578L91.2 11.0092L97.6 4.81651L104.8 1.37615L112.4 0Z" fill="#00FFFF"/>
<path d="M15.6 128.67H0V150H150V128.67H59.2L74.8 64.6789L59.2 0H15.6L0 64.6789L15.6 128.67Z" stroke="#161717" stroke-width="1.04925"/>
<path d="M112.4 128.67C133.166 128.67 150 99.7126 150 63.9914C150 28.2702 133.166 -0.6875 112.4 -0.6875C91.6339 -0.6875 74.7998 28.2702 74.7998 63.9914C74.7998 99.7126 91.6339 128.67 112.4 128.67Z" stroke="#161717" stroke-width="1.04925"/>
<path d="M112 106.653C125.697 106.653 136.8 87.5534 136.8 63.9926C136.8 40.4318 125.697 21.332 112 21.332C98.3035 21.332 87.2002 40.4318 87.2002 63.9926C87.2002 87.5534 98.3035 106.653 112 106.653Z" fill="#00FFFF" stroke="#161717" stroke-width="1.04925"/>
</g>
<defs>
<clipPath id="clip0_2109_186421">
<rect width="150" height="150" fill="white"/>
</clipPath>
</defs>
</svg>
