<svg width="150" height="150" viewBox="0 0 150 150" fill="none" xmlns="http://www.w3.org/2000/svg">
<g clip-path="url(#clip0_2109_186454)">
<path d="M74.9997 129.999C109.371 129.999 137.234 105.055 137.234 74.2846C137.234 43.5145 109.371 18.5703 74.9997 18.5703C40.6288 18.5703 12.7656 43.5145 12.7656 74.2846C12.7656 105.055 40.6288 129.999 74.9997 129.999Z" fill="#00FFFF" stroke="#161717" stroke-width="1.50985"/>
<path d="M14.3617 105.002L11.1702 101.43L8.7766 98.5731L5.58511 95.0017L2.39362 92.1445L1.59574 96.4302V100.002L0.797872 104.287L0 108.573L3.19149 105.002L3.98936 104.287L4.78723 107.145L7.97872 113.573L13.5638 122.145L22.3404 132.145L34.3085 140.716L50.266 147.145L71.0106 150.002L96.5426 146.43L94.9468 142.145V141.43L71.8085 145.002L51.8617 142.859L36.7021 137.145L25.5319 128.573L16.7553 120.002L11.1702 112.145L8.7766 105.716L7.97872 103.573L9.57447 104.287H11.1702L12.766 105.002H14.3617Z" fill="#00FFFF" stroke="#161717" stroke-width="1.50985"/>
<path d="M135.638 44.2857L138.829 47.1429L142.021 50.7143L144.414 53.5714L147.606 57.1429L148.404 52.8571L149.202 48.5714V45L150 40.7143L148.404 42.8571L146.808 43.5714L146.01 45L145.212 42.1429L142.021 35.7143L136.436 27.1429L127.659 17.1429L115.691 8.57143L98.9358 2.14286L78.9889 0L53.457 2.85714V4.28571L55.0528 7.14286V7.85714L78.1911 5L98.1379 7.14286L113.297 12.8571L125.266 20.7143L133.244 29.2857L138.829 37.1429L141.223 43.5714L142.021 45.7143L140.425 45H138.829L137.234 44.2857H135.638Z" fill="#00FFFF" stroke="#161717" stroke-width="1.50985"/>
</g>
<defs>
<clipPath id="clip0_2109_186454">
<rect width="150" height="150" fill="white"/>
</clipPath>
</defs>
</svg>
