<svg width="150" height="150" viewBox="0 0 150 150" fill="none" xmlns="http://www.w3.org/2000/svg">
<g clip-path="url(#clip0_2109_186920)">
<path d="M138 69.6L133 73.2L127 76.8L121 79.8L116 82.8L110 86.4L106 90.6L102 94.8L100 100.2L83 145.2L81 148.2L78 149.4L75 150L72 149.4L69 148.2L67 145.2L65 139.8L63 133.8L61 128.4L59 122.4L56 117L54 111.6L52 105.6L50 100.2L45 94.8L40 90.6L36 86.4L31 83.4L27 79.8L22 76.8L18 73.8L13 70.2L10 67.2L8 64.2L5 61.2L2 55.2L1 51.6L0 48.6V45L2 36L6 27.6L13 19.8L22 13.2L33 7.8L46 3.6L60 1.2L75 0L90 1.2L104 3.6L117 7.8L128 13.2L137 19.8L144 27.6L148 36L150 45V48L149 51.6L147 57.6L143 63.6L141 66.6L138 69.6Z" fill="#00FFFF" stroke="black" stroke-width="1.54919"/>
</g>
<defs>
<clipPath id="clip0_2109_186920">
<rect width="150" height="150" fill="white"/>
</clipPath>
</defs>
</svg>
