<svg width="150" height="150" viewBox="0 0 150 150" fill="none" xmlns="http://www.w3.org/2000/svg">
<g clip-path="url(#clip0_2109_192423)">
<path d="M0 18.5185L8.7 0H150V132.099L141.3 150L0 18.5185Z" fill="#7F7F7F" stroke="black" stroke-width="0.860663"/>
<path d="M0 18.5156H141.3V149.997H0V18.5156Z" fill="#B2B2B2" stroke="black" stroke-width="0.860663"/>
<path d="M141.3 18.5185L150 0" stroke="black" stroke-width="0.860663"/>
<path d="M21 85.8079L23.4 81.4869L26.1 77.1659L29.1 74.0795L32.1 70.9931L35.4 68.5239L38.7 66.6721L42 66.0548L45.6 65.4375L49.2 66.0548L52.8 66.6721L56.1 68.5239L59.4 70.9931L62.4 74.0795L65.4 77.1659L68.1 81.4869L70.5 85.8079" stroke="black" stroke-width="0.860663"/>
<path d="M120.6 85.7969L117.9 90.7351L115.2 95.0561L112.2 98.7598L109.2 101.846L105.9 104.315L102.6 106.167L99 106.785L95.7 107.402L92.1 106.785L88.8 106.167L85.5 104.315L82.2 101.846L78.9 98.7598L75.9 95.0561L73.2 90.7351L70.5 85.7969" stroke="black" stroke-width="0.860663"/>
</g>
<defs>
<clipPath id="clip0_2109_192423">
<rect width="150" height="150" fill="white"/>
</clipPath>
</defs>
</svg>
