<svg width="150" height="150" viewBox="0 0 150 150" fill="none" xmlns="http://www.w3.org/2000/svg">
<g clip-path="url(#clip0_2109_192953)">
<path d="M0 11.8421L8.77016 0H150V138.553L141.23 150L0 11.8421Z" fill="#7F7F7F" stroke="black" stroke-width="0.691017"/>
<path d="M0 11.4531H141.23V149.611H0V11.4531Z" fill="#B2B2B2" stroke="black" stroke-width="0.691017"/>
<path d="M141.229 11.8421L150 0" stroke="black" stroke-width="0.691017"/>
<path d="M141.229 66.713L150 55.2656" stroke="black" stroke-width="0.691017"/>
<path d="M22.9841 133.819C28.8298 133.819 33.5688 127.634 33.5688 120.003C33.5688 112.373 28.8298 106.188 22.9841 106.188C17.1383 106.188 12.3994 112.373 12.3994 120.003C12.3994 127.634 17.1383 133.819 22.9841 133.819Z" stroke="black" stroke-width="0.691017"/>
<path d="M118.246 133.819C124.092 133.819 128.83 127.634 128.83 120.003C128.83 112.373 124.092 106.188 118.246 106.188C112.4 106.188 107.661 112.373 107.661 120.003C107.661 127.634 112.4 133.819 118.246 133.819Z" stroke="black" stroke-width="0.691017"/>
<path d="M22.6816 106.188H118.246" stroke="black" stroke-width="0.691017"/>
<path d="M22.6816 133.812H118.246" stroke="black" stroke-width="0.691017"/>
<path d="M22.6816 48.5469H118.246" stroke="black" stroke-width="0.691017"/>
<path d="M0 30H118.246" stroke="black" stroke-width="0.691017"/>
<path d="M22.6816 67.1016H141.23" stroke="black" stroke-width="0.691017"/>
<path d="M22.6812 67.0995L19.9595 66.31L17.8425 63.9416L16.3304 61.1785L15.7256 57.6258L16.3304 54.0732L17.8425 51.31L19.9595 49.3363L22.6812 48.5469" stroke="black" stroke-width="0.691017"/>
<path d="M118.246 48.5526L120.968 47.7632L123.387 45.7895L124.899 43.0263L125.504 39.4737L124.899 35.9211L123.387 32.7632L120.968 30.7895L118.246 30" stroke="black" stroke-width="0.691017"/>
</g>
<defs>
<clipPath id="clip0_2109_192953">
<rect width="150" height="150" fill="white"/>
</clipPath>
</defs>
</svg>
