<svg width="150" height="150" viewBox="0 0 150 150" fill="none" xmlns="http://www.w3.org/2000/svg">
<g clip-path="url(#clip0_2109_192359)">
<path d="M107.1 73.4967L97.8002 83.853L43.2002 23.0512L52.8002 12.6949L55.8002 9.6882L58.8002 7.34967L62.1002 5.01114L69.0002 2.00445L76.2002 0.334076L80.1002 0L87.3002 1.00223L94.5002 3.34076L97.8002 5.01114L101.1 7.34967L104.1 9.6882L107.1 12.6949L109.8 16.0356L111.9 19.3764L114 23.0512L116.7 30.735L118.2 39.0869L118.5 43.0958L117.6 51.4477L115.5 59.1314L114 63.1403L111.9 66.8151L109.8 70.1559L107.1 73.4967Z" fill="#7F7F7F" stroke="black" stroke-width="0.633159"/>
<path d="M150 140.312V61.4705L117.9 40.7578L109.5 50.446L141 71.4928V150.001L150 140.312Z" fill="#7F7F7F" stroke="black" stroke-width="0.633159"/>
<path d="M141 149.999H0V71.491L8.7 61.4688V140.311H141V149.999Z" fill="#7F7F7F" stroke="black" stroke-width="0.633159"/>
<path d="M141 71.1569L150 61.4688" stroke="black" stroke-width="0.633159"/>
<path d="M0 150.001L8.7 140.312" stroke="black" stroke-width="0.633159"/>
<path d="M70.4996 95.5468C91.7073 95.5468 108.9 76.4018 108.9 52.7851C108.9 29.1685 91.7073 10.0234 70.4996 10.0234C49.2919 10.0234 32.0996 29.1685 32.0996 52.7851C32.0996 76.4018 49.2919 95.5468 70.4996 95.5468Z" fill="#B2B2B2" stroke="black" stroke-width="0.633159"/>
</g>
<defs>
<clipPath id="clip0_2109_192359">
<rect width="150" height="150" fill="white"/>
</clipPath>
</defs>
</svg>
