<svg width="150" height="150" viewBox="0 0 150 150" fill="none" xmlns="http://www.w3.org/2000/svg">
<g clip-path="url(#clip0_2109_191960)">
<path d="M150 126.3V14.7L143.609 11.4L136.09 8.7L128.196 6L119.549 3.9L114.662 3L110.15 2.4L105.263 1.5L95.8647 0.6L90.9775 0.3L85.7143 0H80.8271L70.6767 0.3L65.4136 0.6L55.6391 1.5L50.7519 2.4L41.7294 3.9L33.0827 6L24.8121 8.7L17.6692 11.4L11.2782 14.7L0.375977 24L1.5038 25.2L4.51131 28.8L9.02259 34.2L15.4136 41.4L22.9324 49.8L31.579 59.1L40.9775 69.3L51.5038 79.5L62.4061 90L74.0602 100.2L85.3384 109.5L96.9925 117.9L108.271 125.1L119.173 130.5L129.699 134.1L139.098 135.3L139.474 135L144.737 130.8L148.496 127.8L149.624 126.6L150 126.3Z" fill="#7F7F7F" stroke="black" stroke-width="0.67166"/>
<path d="M138.722 135V23.7L132.331 20.4L125.188 17.4L116.917 15L108.271 12.9L99.2482 11.1L89.4737 9.9L79.6993 9.3L74.4361 9H69.5489L59.3985 9.3L54.5113 9.6L49.2482 9.9L39.8497 11.1L34.9624 12L26.3158 13.8L18.0452 16.2L10.1504 18.9L3.3835 21.9L0.375977 23.7V135.3L6.76695 138.6L13.9098 141.3L21.8046 144L30.4512 146.1L39.8497 147.6L49.2482 149.1L54.5113 149.4L59.3985 149.7L64.2858 150H69.5489H74.4361L79.6993 149.7L89.4737 148.8L99.2482 147.6L108.271 145.8L116.917 143.7L125.188 141L132.331 138.3L135.714 136.8L138.722 135Z" fill="#B2B2B2" stroke="black" stroke-width="0.67166"/>
<path d="M138.722 23.7031L150 14.7031" stroke="black" stroke-width="0.67166"/>
<path d="M0 135H138.722" stroke="black" stroke-width="0.67166"/>
<path d="M0 23.7031H138.722" stroke="black" stroke-width="0.67166"/>
</g>
<defs>
<clipPath id="clip0_2109_191960">
<rect width="150" height="150" fill="white"/>
</clipPath>
</defs>
</svg>
