<svg width="150" height="150" viewBox="0 0 150 150" fill="none" xmlns="http://www.w3.org/2000/svg">
<g clip-path="url(#clip0_2109_191890)">
<path d="M27.0273 5.25H129.88V83.7888H27.0273V5.25Z" fill="black" stroke="black" stroke-width="0.370302"/>
<path d="M150 149.545H0V134.477H150V149.545Z" fill="#7F7F7F"/>
<path d="M150 148.173H0V135.844H150V148.173Z" fill="#B2B2B2"/>
<path d="M150 146.348H0V137.672H150V146.348Z" fill="#E5E5E5"/>
<path d="M150 143.603H0V140.406H150V143.603Z" fill="white"/>
<path d="M150 134.477H0" stroke="black" stroke-width="0.370302"/>
<path d="M0 149.547H150" stroke="black" stroke-width="0.370302"/>
<path d="M70.5702 119.18V134.476H65.6152V150.002H85.8855V134.476H80.7804V119.18H70.5702Z" fill="#7F7F7F"/>
<path d="M71.4711 119.18V135.846H65.6152V148.175H85.8855V135.846H79.5792V119.18H71.4711Z" fill="#B2B2B2"/>
<path d="M72.9726 119.18V138.129H65.6152V146.349H85.8855V138.129H78.378V119.18H72.9726Z" fill="#E5E5E5"/>
<path d="M74.4741 119.18V140.869H65.6152V143.609H85.8855V140.869H76.5762V119.18H74.4741Z" fill="white"/>
<path d="M70.5702 119.18V134.476H65.6152" stroke="black" stroke-width="0.370302"/>
<path d="M80.7812 119.18V134.476H85.8864" stroke="black" stroke-width="0.370302"/>
<path d="M85.8855 150H65.6152" stroke="black" stroke-width="0.370302"/>
<path d="M80.4802 76.4844V129.909H70.5703V76.4844H80.4802Z" fill="#7F7F7F"/>
<path d="M79.5798 76.4844V129.909H71.4717V76.4844H79.5798Z" fill="#B2B2B2"/>
<path d="M78.3786 76.4844V129.909H72.6729V76.4844H78.3786Z" fill="#E5E5E5"/>
<path d="M76.5762 76.4844V129.909H74.7744V76.4844H76.5762Z" fill="white"/>
<path d="M70.5703 76.4844V129.909" stroke="black" stroke-width="0.370302"/>
<path d="M80.4805 129.909V76.4844" stroke="black" stroke-width="0.370302"/>
<path d="M126.727 78.3105H23.7236V0H126.727V78.3105Z" fill="#7F7F7F" stroke="black" stroke-width="0.370302"/>
<path d="M74.4741 0.911494L24.1738 77.1672L25.2249 78.7654L75.5252 2.50967H74.4741L75.5252 0.911494L75.0747 0.226562L74.4741 0.911494Z" fill="black"/>
<path d="M125.826 77.8547L126.276 77.1698L75.5257 0.914062L74.4746 2.51224L125.225 78.7679L125.826 77.8547Z" fill="black"/>
</g>
<defs>
<clipPath id="clip0_2109_191890">
<rect width="150" height="150" fill="white"/>
</clipPath>
</defs>
</svg>
