<svg width="150" height="150" viewBox="0 0 150 150" fill="none" xmlns="http://www.w3.org/2000/svg">
<g clip-path="url(#clip0_2109_192285)">
<path d="M0 13.8889L8.7 0H150V136.574L141.3 150L0 13.8889Z" fill="#7F7F7F" stroke="black" stroke-width="0.745356"/>
<path d="M0 13.8906H141V150.002H0V13.8906Z" fill="#B2B2B2" stroke="black" stroke-width="0.745356"/>
<path d="M7.2002 24.0703H134.1V139.811H7.2002V24.0703Z" stroke="black" stroke-width="0.745356"/>
<path d="M21.5996 139.82V129.172" stroke="black" stroke-width="0.745356"/>
<path d="M21.5996 118.513V108.328" stroke="black" stroke-width="0.745356"/>
<path d="M21.5996 97.6794V87.0312" stroke="black" stroke-width="0.745356"/>
<path d="M21.5996 76.8513V66.2031" stroke="black" stroke-width="0.745356"/>
<path d="M21.5996 55.5544V44.9062" stroke="black" stroke-width="0.745356"/>
<path d="M21.5996 34.7185V24.0703" stroke="black" stroke-width="0.745356"/>
<path d="M38.0996 139.82V129.172" stroke="black" stroke-width="0.745356"/>
<path d="M38.0996 118.513V108.328" stroke="black" stroke-width="0.745356"/>
<path d="M38.0996 97.6794V87.0312" stroke="black" stroke-width="0.745356"/>
<path d="M38.0996 76.8513V66.2031" stroke="black" stroke-width="0.745356"/>
<path d="M38.0996 55.5544V44.9062" stroke="black" stroke-width="0.745356"/>
<path d="M38.0996 34.7185V24.0703" stroke="black" stroke-width="0.745356"/>
<path d="M54.2998 139.82V129.172" stroke="black" stroke-width="0.745356"/>
<path d="M54.2998 118.513V108.328" stroke="black" stroke-width="0.745356"/>
<path d="M54.2998 97.6794V87.0312" stroke="black" stroke-width="0.745356"/>
<path d="M54.2998 76.8513V66.2031" stroke="black" stroke-width="0.745356"/>
<path d="M54.2998 55.5544V44.9062" stroke="black" stroke-width="0.745356"/>
<path d="M54.2998 34.7185V24.0703" stroke="black" stroke-width="0.745356"/>
<path d="M70.5 139.82V129.172" stroke="black" stroke-width="0.745356"/>
<path d="M70.5 118.513V108.328" stroke="black" stroke-width="0.745356"/>
<path d="M70.5 97.6794V87.0312" stroke="black" stroke-width="0.745356"/>
<path d="M70.5 76.8513V66.2031" stroke="black" stroke-width="0.745356"/>
<path d="M70.5 55.5544V44.9062" stroke="black" stroke-width="0.745356"/>
<path d="M70.5 34.7185V24.0703" stroke="black" stroke-width="0.745356"/>
<path d="M86.7002 139.82V129.172" stroke="black" stroke-width="0.745356"/>
<path d="M86.7002 118.513V108.328" stroke="black" stroke-width="0.745356"/>
<path d="M86.7002 97.6794V87.0312" stroke="black" stroke-width="0.745356"/>
<path d="M86.7002 76.8513V66.2031" stroke="black" stroke-width="0.745356"/>
<path d="M86.7002 55.5544V44.9062" stroke="black" stroke-width="0.745356"/>
<path d="M86.7002 34.7185V24.0703" stroke="black" stroke-width="0.745356"/>
<path d="M102.9 139.82V129.172" stroke="black" stroke-width="0.745356"/>
<path d="M102.9 118.513V108.328" stroke="black" stroke-width="0.745356"/>
<path d="M102.9 97.6794V87.0312" stroke="black" stroke-width="0.745356"/>
<path d="M102.9 76.8513V66.2031" stroke="black" stroke-width="0.745356"/>
<path d="M102.9 55.5544V44.9062" stroke="black" stroke-width="0.745356"/>
<path d="M102.9 34.7185V24.0703" stroke="black" stroke-width="0.745356"/>
<path d="M119.1 139.82V129.172" stroke="black" stroke-width="0.745356"/>
<path d="M119.1 118.513V108.328" stroke="black" stroke-width="0.745356"/>
<path d="M119.1 97.6794V87.0312" stroke="black" stroke-width="0.745356"/>
<path d="M119.1 76.8513V66.2031" stroke="black" stroke-width="0.745356"/>
<path d="M119.1 55.5544V44.9062" stroke="black" stroke-width="0.745356"/>
<path d="M119.1 34.7185V24.0703" stroke="black" stroke-width="0.745356"/>
<path d="M141.3 13.8889L150 0" stroke="black" stroke-width="0.745356"/>
</g>
<defs>
<clipPath id="clip0_2109_192285">
<rect width="150" height="150" fill="white"/>
</clipPath>
</defs>
</svg>
