<svg width="150" height="150" viewBox="0 0 150 150" fill="none" xmlns="http://www.w3.org/2000/svg">
<g clip-path="url(#clip0_2109_192616)">
<path d="M18.3594 124.948C28.499 124.948 36.7188 118.597 36.7188 110.763C36.7188 102.929 28.499 96.5781 18.3594 96.5781C8.21977 96.5781 0 102.929 0 110.763C0 118.597 8.21977 124.948 18.3594 124.948Z" fill="#7F7F7F"/>
<path d="M18.3594 123.737C27.636 123.737 35.1562 117.927 35.1562 110.759C35.1562 103.592 27.636 97.7812 18.3594 97.7812C9.08272 97.7812 1.5625 103.592 1.5625 110.759C1.5625 117.927 9.08272 123.737 18.3594 123.737Z" fill="#999999"/>
<path d="M18.3594 121.629C26.1259 121.629 32.4219 116.764 32.4219 110.764C32.4219 104.763 26.1259 99.8984 18.3594 99.8984C10.5929 99.8984 4.29688 104.763 4.29688 110.764C4.29688 116.764 10.5929 121.629 18.3594 121.629Z" fill="#B2B2B2"/>
<path d="M18.3594 118.915C24.1843 118.915 28.9062 115.267 28.9062 110.766C28.9062 106.266 24.1843 102.617 18.3594 102.617C12.5345 102.617 7.8125 106.266 7.8125 110.766C7.8125 115.267 12.5345 118.915 18.3594 118.915Z" fill="#CCCCCC"/>
<path d="M18.3594 116.5C22.4584 116.5 25.7812 113.933 25.7812 110.766C25.7812 107.599 22.4584 105.031 18.3594 105.031C14.2604 105.031 10.9375 107.599 10.9375 110.766C10.9375 113.933 14.2604 116.5 18.3594 116.5Z" fill="#E5E5E5"/>
<path d="M18.3594 124.948C28.499 124.948 36.7188 118.597 36.7188 110.763C36.7188 102.929 28.499 96.5781 18.3594 96.5781C8.21977 96.5781 0 102.929 0 110.763C0 118.597 8.21977 124.948 18.3594 124.948Z" stroke="black" stroke-width="0.686716"/>
<path d="M18.3594 114.085C20.7325 114.085 22.6562 112.599 22.6562 110.765C22.6562 108.932 20.7325 107.445 18.3594 107.445C15.9863 107.445 14.0625 108.932 14.0625 110.765C14.0625 112.599 15.9863 114.085 18.3594 114.085Z" fill="white"/>
<path d="M120.312 41.3481L125.391 41.0463L136.328 31.992V6.33803L131.25 3.62173L124.609 1.81087L117.188 0.301811L112.891 0H104.688L99.6094 0.603622L94.5312 1.50905L89.4531 2.7163L83.9844 4.82897L79.2969 7.24346L75 10.8652L71.0938 15.0905L81.6406 31.992L97.6562 44.0644V55.2314L91.0156 56.1368L84.7656 57.9477L78.5156 59.7585L73.0469 62.4748L67.5781 65.1911L63.2812 68.8129L59.7656 72.7364L57.4219 76.9618L58.9844 76.0563L62.8906 73.9437L67.9688 70.9256L68.3594 121.63L97.6562 141.247L139.062 130.684L150 121.63V70.9256L149.609 68.2093L145.312 63.3803L141.797 61.2676L137.5 59.1549L132.031 57.6459L126.562 56.1368L119.922 55.2314L120.312 41.3481Z" fill="#7F7F7F" stroke="black" stroke-width="0.686716"/>
<path d="M18.3594 116.494L29.6875 107.742L38.6719 104.422V105.629H57.8125V118.305H29.6875L27.7344 120.116L18.3594 116.494Z" fill="#7F7F7F" stroke="black" stroke-width="0.686716"/>
<path d="M18.3594 116.497L27.3438 120.118V118.308H57.4219V114.686H27.3438V112.875L18.3594 116.497Z" fill="#B2B2B2" stroke="black" stroke-width="0.686716"/>
<path d="M27.3438 114.385L38.6719 105.633" stroke="black" stroke-width="0.686716"/>
<path d="M27.3438 113.174L38.6719 104.422" stroke="black" stroke-width="0.686716"/>
<path d="M109.375 53.1162L125.391 40.742L125 15.088L119.922 12.3717L113.672 10.5609L106.25 9.05181L101.953 8.75H94.1406L86.3281 9.65543L78.9062 11.4663L73.0469 13.579L70.7031 15.088V40.742L86.3281 52.8144V63.9814L80.0781 65.1886L74.6094 66.3959L69.5312 68.2067L65.2344 70.0176L58.9844 74.5448L56.6406 79.6756L57.0312 130.38L86.7188 149.997H109.375L138.672 130.38V79.6756L138.281 76.9593L133.984 72.4321L130.469 70.0176L126.172 68.2067L121.094 66.3959L115.234 65.1886L108.984 63.9814L109.375 53.1162Z" fill="#B2B2B2" stroke="black" stroke-width="0.686716"/>
<path d="M125 15.3981L135.938 6.34375" stroke="black" stroke-width="0.686716"/>
<path d="M108.984 63.9869L119.922 55.2344" stroke="black" stroke-width="0.686716"/>
<path d="M86.7188 63.9844V130.685" stroke="black" stroke-width="0.686716"/>
<path d="M108.984 63.9844V130.685" stroke="black" stroke-width="0.686716"/>
</g>
<defs>
<clipPath id="clip0_2109_192616">
<rect width="150" height="150" fill="white"/>
</clipPath>
</defs>
</svg>
