<svg width="150" height="150" viewBox="0 0 150 150" fill="none" xmlns="http://www.w3.org/2000/svg">
<g clip-path="url(#clip0_2109_192574)">
<path d="M150 119.231V0H9.03572L0.300781 10.4895V12.9371L0.903191 18.1818L1.5056 25.1748L2.40921 33.9161L3.31283 43.7063L4.51765 54.8951L5.72247 66.4336L6.92729 78.3217L8.43331 90.2098L9.63813 101.748L11.1442 112.238L12.6502 121.329L13.855 129.371L15.0598 135.315L15.9634 138.811L16.867 139.86L21.0839 134.615L24.9996 128.322L28.614 122.028L30.1201 119.231L121.988 128.671L123.795 132.867L128.012 136.014L132.831 138.462L136.747 139.51L140.963 134.965L144.879 129.021L146.988 125.524L150 119.231Z" fill="#7F7F7F" stroke="black" stroke-width="0.64905"/>
<path d="M141.265 129.715V10.4844H0V129.715L0.903615 134.261L3.01205 138.107L6.62651 140.904L10.5422 141.953L14.759 140.904L18.3735 138.107L20.4819 134.261L21.3855 129.715H42.4699L70.4819 149.995L98.7952 129.715H120.181L121.084 134.261L123.193 138.107L126.807 140.904L130.723 141.953L134.94 140.904L138.253 138.107L140.361 134.261L141.265 129.715Z" fill="#B2B2B2" stroke="black" stroke-width="0.64905"/>
<path fill-rule="evenodd" clip-rule="evenodd" d="M40.6628 63.986L47.8918 65.7343V63.986V63.6364V63.2867V61.5385L40.6628 63.986ZM28.3135 34.965H21.3857V100.699H49.3978L28.3135 34.965ZM112.952 34.965H120.181V100.699H91.8677L112.952 34.965ZM100.603 63.986L93.6749 61.5385V65.7343L100.603 63.986Z" fill="#B2B2B2"/>
<path d="M40.6631 63.9866L47.892 65.7349V63.9866V63.637V63.2873V61.5391L40.6631 63.9866Z" stroke="black" stroke-width="0.64905"/>
<path d="M28.3135 34.9688H21.3857V100.703H49.3978" stroke="black" stroke-width="0.64905"/>
<path d="M112.952 34.9688H120.18V100.703H91.8672" stroke="black" stroke-width="0.64905"/>
<path d="M100.603 63.9866L93.6748 61.5391V65.7349L100.603 63.9866Z" stroke="black" stroke-width="0.64905"/>
<path d="M47.8916 63.9844H93.6747" stroke="black" stroke-width="0.64905"/>
<path d="M70.7832 63.9809V10.4844" stroke="black" stroke-width="0.64905"/>
<path d="M141.265 10.4895L150 0" stroke="black" stroke-width="0.64905"/>
<path d="M70.7832 10.4895L79.8193 0" stroke="black" stroke-width="0.64905"/>
<path d="M21.3857 129.372V123.078" stroke="black" stroke-width="0.64905"/>
<path d="M120.181 129.372V123.078" stroke="black" stroke-width="0.64905"/>
</g>
<defs>
<clipPath id="clip0_2109_192574">
<rect width="150" height="150" fill="white"/>
</clipPath>
</defs>
</svg>
