<svg width="150" height="150" viewBox="0 0 150 150" fill="none" xmlns="http://www.w3.org/2000/svg">
<g clip-path="url(#clip0_2109_193040)">
<path d="M150 132.892V8.55397L140.731 4.88798L126.405 2.44399L107.865 0.610998L97.753 0.305499L86.798 0L75.8429 0.305499L55.6182 1.222L38.7643 3.36049L26.9665 6.41548L22.753 8.24847L2.52832 15.8859L22.753 132.892L32.8654 137.169L39.607 139.919L48.8766 142.363L58.1463 144.807L68.2587 146.64L79.2137 147.862L90.1688 148.473L100.281 147.862L110.393 146.64L119.663 144.807L128.09 142.363L141.573 137.169L150 132.892Z" fill="#7F7F7F" stroke="black" stroke-width="1.01478"/>
<path d="M126.404 141.751V17.4125L123.034 15.5795L111.236 12.5246L94.382 10.3861L74.1573 9.46956L63.2022 9.16406L52.2472 9.46956L32.8652 10.3861L16.0112 12.5246L3.37079 15.5795L0 17.4125V141.751L3.37079 143.584L16.0112 146.639L32.8652 148.777L52.2472 149.694L63.2022 149.999L74.1573 149.694L94.382 148.777L111.236 146.639L123.034 143.584L126.404 141.751Z" fill="#B2B2B2" stroke="black" stroke-width="1.01478"/>
<path d="M126.404 141.75L150 132.891" stroke="black" stroke-width="1.01478"/>
<path d="M126.404 17.4142L150 8.55469" stroke="black" stroke-width="1.01478"/>
</g>
<defs>
<clipPath id="clip0_2109_193040">
<rect width="150" height="150" fill="white"/>
</clipPath>
</defs>
</svg>
