<svg width="150" height="150" viewBox="0 0 150 150" fill="none" xmlns="http://www.w3.org/2000/svg">
<g clip-path="url(#clip0_2109_192161)">
<path d="M17.7002 81.9416H35.4002V68.5156H26.4002H25.2002L24.3002 69.4416L23.1002 70.3675L22.2002 71.7564L13.2002 85.6453L14.1002 84.2564L15.3002 82.8675L16.5002 82.4045L17.7002 81.9416Z" fill="#7F7F7F" stroke="black" stroke-width="0.745356"/>
<path d="M26.4002 122.686L24.6002 122.223L23.1002 120.371L21.6002 118.056L20.4002 114.816L19.2002 110.649L18.3002 106.019L18.0002 100.927L17.7002 95.3712V91.6675L18.0002 88.4268V84.7231L18.3002 81.9453L16.2002 82.4083L14.4002 84.2601L12.9002 86.5749L11.4002 89.8157L10.2002 93.9824L9.3002 98.612L9.0002 103.705L8.7002 109.26L9.0002 114.816L9.3002 119.908L10.2002 124.538L11.4002 128.242L12.6002 131.945L14.4002 134.26L15.9002 136.112L17.7002 136.575H35.4002V122.686H26.4002Z" fill="#7F7F7F" stroke="black" stroke-width="0.745356"/>
<path d="M35.4 27.3166H0L8.7 13.8906H35.4V27.3166Z" fill="#7F7F7F" stroke="black" stroke-width="0.745356"/>
<path d="M105.9 150V13.8889L114.6 0V136.574L105.9 150Z" fill="#7F7F7F" stroke="black" stroke-width="0.745356"/>
<path d="M88.2002 150V13.8889L97.2002 0V136.574L88.2002 150Z" fill="#7F7F7F" stroke="black" stroke-width="0.745356"/>
<path d="M70.5 150V13.8889L79.5 0V136.574L70.5 150Z" fill="#7F7F7F" stroke="black" stroke-width="0.745356"/>
<path d="M52.7998 150V13.8889L61.7998 0V136.574L52.7998 150Z" fill="#7F7F7F" stroke="black" stroke-width="0.745356"/>
<path d="M35.4004 150V13.8889L44.1004 0V136.574L35.4004 150Z" fill="#7F7F7F" stroke="black" stroke-width="0.745356"/>
<path d="M52.8004 136.576V122.688H44.1004L35.4004 136.576H52.8004Z" fill="#7F7F7F" stroke="black" stroke-width="0.745356"/>
<path d="M70.4998 136.576V122.688H61.7998L52.7998 136.576H70.4998Z" fill="#7F7F7F" stroke="black" stroke-width="0.745356"/>
<path d="M88.2 136.576V122.688H79.5L70.5 136.576H88.2Z" fill="#7F7F7F" stroke="black" stroke-width="0.745356"/>
<path d="M105.9 136.576V122.688H97.2002L88.2002 136.576H105.9Z" fill="#7F7F7F" stroke="black" stroke-width="0.745356"/>
<path d="M105.9 81.9416V68.5156H97.2002L88.2002 81.9416H105.9Z" fill="#7F7F7F" stroke="black" stroke-width="0.745356"/>
<path d="M88.2 81.9416V68.5156H79.5L70.5 81.9416H88.2Z" fill="#7F7F7F" stroke="black" stroke-width="0.745356"/>
<path d="M70.4998 81.9416V68.5156H61.7998L52.7998 81.9416H70.4998Z" fill="#7F7F7F" stroke="black" stroke-width="0.745356"/>
<path d="M52.8004 81.9416V68.5156H44.1004L35.4004 81.9416H52.8004Z" fill="#7F7F7F" stroke="black" stroke-width="0.745356"/>
<path d="M52.8004 27.3166V13.8906H44.1004L35.4004 27.3166H52.8004Z" fill="#7F7F7F" stroke="black" stroke-width="0.745356"/>
<path d="M70.4998 27.3166V13.8906H61.7998L52.7998 27.3166H70.4998Z" fill="#7F7F7F" stroke="black" stroke-width="0.745356"/>
<path d="M88.2 27.3166V13.8906H79.5L70.5 27.3166H88.2Z" fill="#7F7F7F" stroke="black" stroke-width="0.745356"/>
<path d="M105.9 27.3166V13.8906H97.2002L88.2002 27.3166H105.9Z" fill="#7F7F7F" stroke="black" stroke-width="0.745356"/>
<path d="M131.1 68.5156H114.6L105.9 81.9416H123.6L125.7 81.0156L127.8 78.2378L129.6 74.0712L131.1 68.5156Z" fill="#7F7F7F" stroke="black" stroke-width="0.745356"/>
<path d="M141.3 136.576L150 122.688H114.6L105.9 136.576H141.3Z" fill="#7F7F7F"/>
<path d="M128.1 78.2425L136.8 64.8166L137.7 62.9647L138.6 60.1869L139.5 57.8721L140.1 54.6314L140.7 51.3906L141 48.1499L141.3 44.9091V41.2054L141 35.6499L140.7 30.5573L139.8 25.9277L138.6 21.761L137.4 18.5203L135.6 16.2054L134.1 14.3536L132.3 13.8906H114.6L105.9 27.3166H123.6L125.4 27.7795L126.9 29.6314L128.4 31.9462L129.9 35.1869L130.8 39.3536L131.7 43.9832L132 49.0758L132.3 54.6314V58.3351L132 61.5758L131.7 65.2795L131.1 68.5203L130.5 71.298L129.9 74.0758L129 76.3906L128.1 78.2425Z" fill="#7F7F7F"/>
<path d="M105.9 136.576H141.3L150 122.688H114.6L105.9 136.576Z" stroke="black" stroke-width="0.745356"/>
<path d="M128.1 78.2425L136.8 64.8166L137.7 62.9647L138.6 60.1869L139.5 57.8721L140.1 54.6314L140.7 51.3906L141 48.1499L141.3 44.9091V41.2054L141 35.6499L140.7 30.5573L139.8 25.9277L138.6 21.761L137.4 18.5203L135.6 16.2054L134.1 14.3536L132.3 13.8906H114.6L105.9 27.3166H123.6L125.4 27.7795L126.9 29.6314L128.4 31.9462L129.9 35.1869L130.8 39.3536L131.7 43.9832L132 49.0758L132.3 54.6314V58.3351L132 61.5758L131.7 65.2795L131.1 68.5203L130.5 71.298L129.9 74.0758L129 76.3906L128.1 78.2425Z" stroke="black" stroke-width="0.745356"/>
</g>
<defs>
<clipPath id="clip0_2109_192161">
<rect width="150" height="150" fill="white"/>
</clipPath>
</defs>
</svg>
