<svg width="150" height="150" viewBox="0 0 150 150" fill="none" xmlns="http://www.w3.org/2000/svg">
<g clip-path="url(#clip0_2109_193073)">
<path d="M129.3 120.3L120.6 129.3L20.7002 29.4L29.4002 20.7L34.5002 16.2L40.2002 12L46.2002 8.4L52.5002 5.4L59.1002 3L65.7002 1.5L72.6002 0.3L75.9002 0H79.5002L86.7002 0.3L93.6002 1.5L100.5 3.3L106.8 5.7L113.1 8.7L118.8 12L124.2 16.2L129.3 20.7L133.8 25.8L138 31.2L141.3 36.9L144.3 43.2L146.7 49.5L148.5 56.4L149.7 63.3L150 70.5L149.7 77.4L148.5 84.3L147 90.9L144.6 97.5L141.6 103.8L138 109.8L133.8 115.2L129.3 120.3Z" fill="#7F7F7F" stroke="black" stroke-width="0.6"/>
<path d="M70.5 150C109.436 150 141 118.436 141 79.5C141 40.5639 109.436 9 70.5 9C31.5639 9 0 40.5639 0 79.5C0 118.436 31.5639 150 70.5 150Z" fill="#B2B2B2" stroke="black" stroke-width="0.6"/>
</g>
<defs>
<clipPath id="clip0_2109_193073">
<rect width="150" height="150" fill="white"/>
</clipPath>
</defs>
</svg>
