<svg width="150" height="150" viewBox="0 0 150 150" fill="none" xmlns="http://www.w3.org/2000/svg">
<g clip-path="url(#clip0_2109_192789)">
<path d="M137.57 111L2.07227 30.9L3.31536 27L5.38718 23.7L8.28773 20.4L15.3319 14.7L19.8899 12L24.448 9.6L29.8347 7.8L35.2214 6L41.0225 4.2L47.238 3L53.8678 1.8L60.4977 1.2L67.1275 0.6L74.1717 0H88.2601L95.3043 0.6L101.52 1.2L108.15 1.8L113.951 3L119.752 4.2L125.139 5.7L130.111 7.2L138.398 11.1L144.614 15.3L148.757 19.8L150 24.9V103.2L137.57 111Z" fill="#7F7F7F" stroke="black" stroke-width="0.705151"/>
<path d="M68.7845 149.997L0 110.997V32.9969L1.24309 27.8969L5.38674 23.0969L11.6022 18.8969L20.3039 14.9969L24.8619 13.4969L30.2486 11.9969L36.0497 10.7969L41.8508 9.89687L48.4807 8.99687L54.6961 8.39687L61.7403 7.79688H75.8287L82.8729 8.39687L89.0884 8.99687L95.7182 9.89687L101.519 10.7969L107.32 11.9969L112.707 13.4969L117.68 14.9969L125.967 18.8969L132.182 23.0969L136.326 27.8969L137.569 32.9969V110.997L68.7845 149.997Z" fill="#B2B2B2" stroke="black" stroke-width="0.705151"/>
<path d="M0 50.3984H68.7845" stroke="black" stroke-width="0.705151"/>
<path d="M58.8398 57.5984L68.7846 50.3984L78.7293 57.5984" stroke="black" stroke-width="0.705151"/>
</g>
<defs>
<clipPath id="clip0_2109_192789">
<rect width="150" height="150" fill="white"/>
</clipPath>
</defs>
</svg>
