<svg width="150" height="150" viewBox="0 0 150 150" fill="none" xmlns="http://www.w3.org/2000/svg">
<g clip-path="url(#clip0_2109_192017)">
<path d="M140.7 102.5L130.5 146.25L129.3 150L127.8 148.75L126.9 143.75L126.6 140V136.25L127.2 133.75L137.4 90L137.7 88.75H138L138.6 87.5L139.8 88.75L140.7 90L141.3 96.25V97.5L141 100V101.25L140.7 102.5Z" fill="#7F7F7F" stroke="black" stroke-width="1.22474"/>
<path d="M23.1002 102.5L12.6002 146.25L11.4002 150L10.2002 148.75L9.0002 143.75L8.7002 140V138.75L9.6002 133.75L19.8002 90L20.1002 88.75H20.4002L21.0002 87.5L22.2002 88.75L23.1002 90L23.7002 96.25V97.5L23.4002 100V101.25L23.1002 102.5Z" fill="#7F7F7F" stroke="black" stroke-width="1.22474"/>
<path d="M150 70L139.8 113.75L133.5 98.75L129.9 91.25L126.3 83.75L122.4 78.75L118.2 72.5L114 67.5L109.5 62.5L105 57.5L100.2 53.75L95.4 51.25L90.3 48.75L85.5 46.25L80.4 45L75 43.75H64.8L59.4 45L54.3 46.25L49.5 48.75L44.4 51.25L39.6 53.75L34.8 57.5L30.3 62.5L25.8 67.5L21.6 72.5L17.4 78.75L13.5 83.75L9.9 91.25L6.3 98.75L3 106.25L0 113.75L10.2 70L16.5 55L20.1 47.5L23.7 41.25L27.9 35L31.8 28.75L36.3 23.75L40.8 18.75L45.3 15L50.1 11.25L54.9 7.5L59.7 5L64.8 2.5L69.9 1.25L75 0H80.1H85.2L90.6 1.25L95.7 2.5L100.5 5L105.6 7.5L110.4 11.25L115.2 15L119.7 18.75L124.2 23.75L128.4 28.75L132.6 35L136.5 41.25L140.1 47.5L143.7 55L147 62.5L150 70Z" fill="#7F7F7F" stroke="black" stroke-width="1.22474"/>
<path d="M128.7 148.75C129.859 148.75 130.8 144.832 130.8 140C130.8 135.168 129.859 131.25 128.7 131.25C127.54 131.25 126.6 135.168 126.6 140C126.6 144.832 127.54 148.75 128.7 148.75Z" fill="#B2B2B2" stroke="black" stroke-width="1.22474"/>
<path d="M11.1002 150C12.4257 150 13.5002 145.523 13.5002 140C13.5002 134.477 12.4257 130 11.1002 130C9.77471 130 8.7002 134.477 8.7002 140C8.7002 145.523 9.77471 150 11.1002 150Z" fill="#B2B2B2" stroke="black" stroke-width="1.22474"/>
</g>
<defs>
<clipPath id="clip0_2109_192017">
<rect width="150" height="150" fill="white"/>
</clipPath>
</defs>
</svg>
