<svg width="150" height="150" viewBox="0 0 150 150" fill="none" xmlns="http://www.w3.org/2000/svg">
<g clip-path="url(#clip0_2109_192636)">
<path d="M92.8203 140.098V114.598L90.4704 113.998L87.7289 113.698L86.1623 113.398H77.9378L74.8046 113.698L72.0631 113.998L69.7133 114.598L57.5723 123.598L64.2302 124.498L68.93 127.498L72.4548 131.398L75.1963 135.898L76.7629 140.398L77.9378 144.598L79.1127 147.298L80.6793 148.498L81.071 148.198L82.6375 147.298L84.5958 145.798L86.9456 144.298L88.9039 142.798L90.8621 141.298L92.4287 140.398L92.8203 140.098Z" fill="#7F7F7F" stroke="black" stroke-width="0.685546"/>
<path d="M68.9297 122.098L80.679 113.398H68.9297V122.098Z" fill="#7F7F7F" stroke="black" stroke-width="0.685546"/>
<path d="M108.486 6L117.885 55.2H150V92.1L137.859 100.8L0 63.9L12.141 55.2H44.2559L41.1227 14.7L44.6475 10.5L49.3473 7.2L54.4386 4.8L59.9217 2.7L65.7963 1.5L71.2794 0.6L76.3708 0H81.0705H85.3786L89.295 0.3L93.2115 0.9L96.7363 1.5L100.261 2.4L103.394 3.6L106.136 4.8L108.486 6Z" fill="#7F7F7F" stroke="black" stroke-width="0.685546"/>
<path d="M96.3447 15.0031L105.744 63.9031H137.859V100.803L80.2872 114.903H57.5718L0 100.803V63.9031H32.1149L41.5144 15.0031L46.6057 12.3031L53.2637 10.5031L60.705 9.00312L65.0131 8.70312H73.2376L81.0705 9.60312L88.1201 11.4031L93.9948 13.5031L96.3447 15.0031Z" fill="#B2B2B2" stroke="black" stroke-width="0.685546"/>
<path d="M80.6793 148.798V123.598L78.3294 122.998L75.5879 122.698L74.0214 122.398H65.7968L62.6636 122.698L59.9221 122.998L57.5723 123.598V148.798L59.9221 149.398L62.6636 149.698L65.7968 149.998H74.0214L75.5879 149.698L78.3294 149.398L80.6793 148.798Z" fill="#B2B2B2" stroke="black" stroke-width="0.685546"/>
<path d="M80.6787 123.598L92.8197 114.898" stroke="black" stroke-width="0.685546"/>
<path d="M68.9297 114.903V71.7031" stroke="black" stroke-width="0.685546"/>
<path d="M96.3447 15L108.486 6" stroke="black" stroke-width="0.685546"/>
<path d="M68.9294 74.6969C77.1488 74.6969 83.8119 73.488 83.8119 71.9969C83.8119 70.5057 77.1488 69.2969 68.9294 69.2969C60.71 69.2969 54.0469 70.5057 54.0469 71.9969C54.0469 73.488 60.71 74.6969 68.9294 74.6969Z" stroke="black" stroke-width="0.685546"/>
<path d="M39.1641 58.5L57.1797 86.7" stroke="black" stroke-width="0.685546"/>
<path d="M99.086 58.5L80.6787 86.7" stroke="black" stroke-width="0.685546"/>
<path d="M32.1145 63.8984L30.1562 76.1984" stroke="black" stroke-width="0.685546"/>
<path d="M106.136 63.8984L108.094 76.1984" stroke="black" stroke-width="0.685546"/>
<path d="M106.136 63.8984L117.885 54.8984" stroke="black" stroke-width="0.685546"/>
<path d="M138.251 63.8984L150 54.8984" stroke="black" stroke-width="0.685546"/>
</g>
<defs>
<clipPath id="clip0_2109_192636">
<rect width="150" height="150" fill="white"/>
</clipPath>
</defs>
</svg>
