<svg width="150" height="150" viewBox="0 0 150 150" fill="none" xmlns="http://www.w3.org/2000/svg">
<g clip-path="url(#clip0_2109_192539)">
<path d="M149.185 132.9V8.4L145.924 6.6L133.696 3.6L117.392 1.5L97.8265 0.3L87.2287 0L75.8156 0.3L63.5874 0.9L51.3591 2.1L39.9461 3.9L28.533 6L17.9352 9L8.96782 12.3L1.63086 16.5L24.4569 132.9L33.4243 137.4L47.283 142.5L56.2504 144.9L66.033 146.7L86.4135 148.5L97.0113 147.9L107.609 146.7L117.392 144.9L126.359 142.5L140.218 137.4L149.185 132.9Z" fill="#7F7F7F" stroke="black" stroke-width="0.989071"/>
<path d="M125.543 141.603V17.4031L116.576 13.8031L101.902 11.1031L83.1522 9.30313L62.7717 8.70312L41.5761 9.30313L22.8261 11.1031L8.96739 13.8031L3.26087 15.3031L0 17.1031V141.603L8.96739 145.203L22.8261 147.603L41.5761 149.403L62.7717 150.003L83.1522 149.403L101.902 147.603L116.576 145.203L125.543 141.603Z" fill="#B2B2B2" stroke="black" stroke-width="0.989071"/>
<path d="M125.543 17.4031L149.999 8.70312" stroke="black" stroke-width="0.989071"/>
<path d="M125.543 141.598L149.999 132.898" stroke="black" stroke-width="0.989071"/>
<path d="M0 28.7969H61.9565" stroke="black" stroke-width="0.989071"/>
<path d="M52.1738 32.6969L61.9564 28.7969L71.739 32.6969" stroke="black" stroke-width="0.989071"/>
</g>
<defs>
<clipPath id="clip0_2109_192539">
<rect width="150" height="150" fill="white"/>
</clipPath>
</defs>
</svg>
