<svg width="150" height="150" viewBox="0 0 150 150" fill="none" xmlns="http://www.w3.org/2000/svg">
<g clip-path="url(#clip0_2109_192442)">
<path d="M0 18.5185L8.7 0H150V132.099L141.3 150L0 18.5185Z" fill="#7F7F7F" stroke="black" stroke-width="0.860663"/>
<path d="M0 18.5156H141V149.997H0V18.5156Z" fill="#B2B2B2" stroke="black" stroke-width="0.860663"/>
<path d="M141.3 18.5185L150 0" stroke="black" stroke-width="0.860663"/>
<path d="M81.0002 83.9522L67.2002 40.125" stroke="black" stroke-width="0.860663"/>
<path d="M70.5004 83.9531L56.4004 127.78" stroke="black" stroke-width="0.860663"/>
<path d="M56.3998 83.9522L42.2998 40.125" stroke="black" stroke-width="0.860663"/>
<path d="M45.8998 83.9531L31.7998 127.78" stroke="black" stroke-width="0.860663"/>
<path d="M31.8002 83.9522L17.7002 40.125" stroke="black" stroke-width="0.860663"/>
<path d="M21.3002 83.9531L7.2002 127.78" stroke="black" stroke-width="0.860663"/>
<path d="M130.5 83.9522L116.4 40.125" stroke="black" stroke-width="0.860663"/>
<path d="M120 83.9531L105.9 127.78" stroke="black" stroke-width="0.860663"/>
<path d="M105.9 83.9522L91.7998 40.125" stroke="black" stroke-width="0.860663"/>
<path d="M95.1 83.9531L81 127.78" stroke="black" stroke-width="0.860663"/>
</g>
<defs>
<clipPath id="clip0_2109_192442">
<rect width="150" height="150" fill="white"/>
</clipPath>
</defs>
</svg>
