<svg width="150" height="150" viewBox="0 0 150 150" fill="none" xmlns="http://www.w3.org/2000/svg">
<g clip-path="url(#clip0_2109_192109)">
<path d="M0 17.6471L8.98204 0H150V34.7059L141.317 52.3529L0 17.6471Z" fill="#7F7F7F" stroke="black" stroke-width="0.839329"/>
<path d="M70.6589 119.413L9.88047 141.177L4.79065 135.883L2.39544 127.648L1.19784 117.06L0.898438 111.177L2.69484 98.2362L4.79065 91.1774L7.48526 85.295L12.8745 75.8833L17.3655 71.7656L79.0422 101.766L141.018 71.7656L142.815 72.3539L147.306 80.5892L149.102 90.0009L149.701 101.766L148.204 115.883L146.407 123.53L144.312 130.589L141.916 137.06L137.126 145.883L135.03 147.06L70.6589 119.413Z" fill="#7F7F7F" stroke="black" stroke-width="0.839329"/>
<path d="M141.317 18.2353L150 0" stroke="black" stroke-width="0.839329"/>
<path d="M70.6582 119.413L79.0414 101.766" stroke="black" stroke-width="0.839329"/>
<path d="M132.335 89.4127L141.018 71.7656" stroke="black" stroke-width="0.839329"/>
<path d="M8.68262 89.4127L17.6647 71.7656" stroke="black" stroke-width="0.839329"/>
<path d="M132.335 149.994L70.6582 119.406L132.335 89.4062L134.131 89.9945L135.628 91.7592L137.125 94.7004L138.622 98.2298L139.52 102.936L140.419 107.642L140.718 113.524L141.017 119.406L140.718 125.877L140.419 131.171L139.52 136.465L138.622 141.171L137.125 144.7L135.628 147.642L134.131 149.406L132.335 149.994Z" fill="#B2B2B2" stroke="black" stroke-width="0.839329"/>
<path d="M8.98204 149.994L70.6587 119.406L8.68263 89.4062L6.88623 89.9945L5.38922 91.7592L3.89222 94.7004L2.69461 98.2298L1.49701 102.936L0.598802 107.642L0.299401 113.524L0 119.406L0.299401 125.877L0.598802 131.171L1.49701 136.465L2.69461 141.171L3.89222 144.7L5.38922 147.642L7.18563 149.406L8.98204 149.994Z" fill="#B2B2B2" stroke="black" stroke-width="0.839329"/>
<path d="M0.299805 52.9403H141.318V18.2344H0.299805V52.9403Z" fill="#B2B2B2" stroke="black" stroke-width="0.839329"/>
</g>
<defs>
<clipPath id="clip0_2109_192109">
<rect width="150" height="150" fill="white"/>
</clipPath>
</defs>
</svg>
