<svg width="150" height="150" viewBox="0 0 150 150" fill="none" xmlns="http://www.w3.org/2000/svg">
<g clip-path="url(#clip0_2109_193078)">
<path d="M129.341 120.359L120.359 129.341L20.6582 29.6407L29.6402 20.6587L34.7301 16.1677L40.1193 11.976L46.1073 8.38323L52.3947 5.38922L58.9816 2.99401L65.5684 1.49701L72.4546 0.299401L75.748 0H79.3408L86.5265 0.299401L93.4127 1.49701L100.299 3.29341L106.886 5.68862L112.874 8.68264L118.862 11.976L124.251 16.1677L129.341 20.6587L133.832 25.7485L138.023 31.1377L141.317 37.1258L144.311 43.1138L146.706 49.7006L148.503 56.5868L149.7 63.4731L150 70.6587L149.7 77.5449L148.503 84.4311L147.006 91.018L144.61 97.6048L141.616 103.892L138.023 109.88L133.832 115.269L129.341 120.359Z" fill="#7F7F7F" stroke="black" stroke-width="0.598802"/>
<path d="M70.6587 150.005C109.682 150.005 141.317 118.37 141.317 79.3462C141.317 40.3225 109.682 8.6875 70.6587 8.6875C31.635 8.6875 0 40.3225 0 79.3462C0 118.37 31.635 150.005 70.6587 150.005Z" fill="#B2B2B2" stroke="black" stroke-width="0.598802"/>
<path d="M0.898438 70.6562H140.419" stroke="black" stroke-width="0.598802"/>
<path d="M0.898438 88.3281H140.419" stroke="black" stroke-width="0.598802"/>
<path d="M140.12 88.3283L149.402 79.0469" stroke="black" stroke-width="0.598802"/>
<path d="M140.12 70.6564L149.402 61.375" stroke="black" stroke-width="0.598802"/>
</g>
<defs>
<clipPath id="clip0_2109_193078">
<rect width="150" height="150" fill="white"/>
</clipPath>
</defs>
</svg>
