<svg width="150" height="150" viewBox="0 0 150 150" fill="none" xmlns="http://www.w3.org/2000/svg">
<g clip-path="url(#clip0_2109_191951)">
<path d="M150 127.59V13.1474L141 7.76892L128 3.58566L110 0.896414L90 0L79 0.59761L66 2.09163L52 4.18327L39 7.17132L27 10.1594L16 13.745L8 17.0319L3 20.0199L4 23.6056V29.5817L5 37.0518L6 46.0159L8 56.1753L10 67.2311L12 78.5857L15 90.239L19 101.594L23 112.351L28 122.51L35 131.474L42 139.243L50 144.92L59 148.805L70 150L81 149.402L93 147.61L106 144.92L118 141.932L129 138.347L138 134.462L145 130.876L150 127.59Z" fill="#7F7F7F" stroke="black" stroke-width="1.09326"/>
<path d="M121 136.558V22.1162L112 16.7377L98 12.5544L80 9.86516L60 8.96875L40 9.86516L23 12.5544L9 16.7377L0 22.1162V136.558L9 141.937L23 146.12L40 149.108L60 150.005L80 149.108L98 146.12L112 141.937L121 136.558Z" fill="#B2B2B2" stroke="black" stroke-width="1.09326"/>
<path d="M121 136.555H0" stroke="black" stroke-width="1.09326"/>
<path d="M0 22.1094H121" stroke="black" stroke-width="1.09326"/>
<path d="M121 22.1126L150 13.1484" stroke="black" stroke-width="1.09326"/>
<path d="M121 136.55L150 127.586" stroke="black" stroke-width="1.09326"/>
</g>
<defs>
<clipPath id="clip0_2109_191951">
<rect width="150" height="150" fill="white"/>
</clipPath>
</defs>
</svg>
