<svg width="150" height="150" viewBox="0 0 150 150" fill="none" xmlns="http://www.w3.org/2000/svg">
<g clip-path="url(#clip0_2109_192211)">
<path d="M130.156 60.4294L117.899 66.8712L22.7627 16.5644L34.4358 10.1227L44.9417 5.82822L56.6148 2.45399L69.4553 0.613497L82.2958 0L95.1362 0.613497L107.977 2.45399L119.65 5.82822L130.156 10.1227L138.911 15.6442L144.747 22.0859L148.833 28.5276L150 35.2761L148.833 42.0245L144.747 48.773L138.911 54.908L130.156 60.4294Z" fill="#7F7F7F" stroke="black" stroke-width="0.846253"/>
<path d="M130.156 131.596L117.899 137.731L22.7627 87.7305L34.4358 81.2888L44.9417 76.6876L56.6148 73.6201L69.4553 71.4729L82.2958 70.8594L95.1362 71.4729L107.977 73.6201L119.65 76.6876L130.156 81.2888L138.911 86.8103L144.747 92.9453L148.833 99.6937L150 106.442L148.833 113.191L144.747 119.939L138.911 126.074L130.156 131.596Z" fill="#7F7F7F" stroke="black" stroke-width="0.846253"/>
<path d="M67.7043 79.1422C105.096 79.1422 135.409 63.2112 135.409 43.5594C135.409 23.9075 105.096 7.97656 67.7043 7.97656C30.3122 7.97656 0 23.9075 0 43.5594C0 63.2112 30.3122 79.1422 67.7043 79.1422Z" fill="#B2B2B2" stroke="black" stroke-width="0.846253"/>
<path d="M67.7043 150.002C105.096 150.002 135.409 134.071 135.409 114.419C135.409 94.7669 105.096 78.8359 67.7043 78.8359C30.3122 78.8359 0 94.7669 0 114.419C0 134.071 30.3122 150.002 67.7043 150.002Z" fill="#B2B2B2" stroke="black" stroke-width="0.846253"/>
<path d="M67.7044 115.95C69.3161 115.95 70.6227 115.264 70.6227 114.417C70.6227 113.569 69.3161 112.883 67.7044 112.883C66.0927 112.883 64.7861 113.569 64.7861 114.417C64.7861 115.264 66.0927 115.95 67.7044 115.95Z" fill="#7F7F7F" stroke="black" stroke-width="0.846253"/>
<path d="M67.7044 44.7862C69.3161 44.7862 70.6227 44.0996 70.6227 43.2525C70.6227 42.4054 69.3161 41.7188 67.7044 41.7188C66.0927 41.7188 64.7861 42.4054 64.7861 43.2525C64.7861 44.0996 66.0927 44.7862 67.7044 44.7862Z" fill="#7F7F7F" stroke="black" stroke-width="0.846253"/>
</g>
<defs>
<clipPath id="clip0_2109_192211">
<rect width="150" height="150" fill="white"/>
</clipPath>
</defs>
</svg>
