<svg width="150" height="150" viewBox="0 0 150 150" fill="none" xmlns="http://www.w3.org/2000/svg">
<g clip-path="url(#clip0_2109_191916)">
<path d="M26.877 5.69531H130.03V84.1148H26.877V5.69531Z" fill="black" stroke="black" stroke-width="0.37002"/>
<path d="M150 149.999H0V134.953H150V149.999Z" fill="#7F7F7F"/>
<path d="M150 148.63H0V136.32H150V148.63Z" fill="#B2B2B2"/>
<path d="M150 146.803H0V138.141H150V146.803Z" fill="#E5E5E5"/>
<path d="M150 144.074H0V140.883H150V144.074Z" fill="white"/>
<path d="M150 134.953H0" stroke="black" stroke-width="0.37002"/>
<path d="M0 150H150" stroke="black" stroke-width="0.37002"/>
<path d="M70.5709 119.453V134.955H65.4658V150H85.5859V134.955H80.7811V119.453H70.5709Z" fill="#7F7F7F"/>
<path d="M71.4718 119.453V136.322H65.4658V148.632H85.5859V136.322H79.5799V119.453H71.4718Z" fill="#B2B2B2"/>
<path d="M72.9733 119.453V138.602H65.4658V146.809H85.5859V138.602H78.3787V119.453H72.9733Z" fill="#E5E5E5"/>
<path d="M74.7751 119.453V141.338H65.4658V144.073H85.5859V141.338H76.5769V119.453H74.7751Z" fill="white"/>
<path d="M70.5709 119.453V134.955H65.4658" stroke="black" stroke-width="0.37002"/>
<path d="M80.7812 119.453V134.955H85.5861" stroke="black" stroke-width="0.37002"/>
<path d="M85.5859 150H65.4658" stroke="black" stroke-width="0.37002"/>
<path d="M80.4802 77.2812V130.397H70.5703V77.2812H80.4802Z" fill="#7F7F7F"/>
<path d="M79.5798 77.2812V130.397H71.4717V77.2812H79.5798Z" fill="#B2B2B2"/>
<path d="M78.3781 77.2812V130.397H72.9727V77.2812H78.3781Z" fill="#E5E5E5"/>
<path d="M76.5762 77.2812V130.397H74.7744V77.2812H76.5762Z" fill="white"/>
<path d="M70.5703 77.2812V130.397" stroke="black" stroke-width="0.37002"/>
<path d="M80.4805 130.397V77.2812" stroke="black" stroke-width="0.37002"/>
<path d="M23.4238 0.226562H126.727V79.1019H23.4238V0.226562Z" fill="#7F7F7F" stroke="black" stroke-width="0.37002"/>
<path d="M75.5257 77.9635L125.976 1.59574L124.925 0L74.4746 76.3678H75.5257L74.4746 77.9635L75.0752 78.8754L75.5257 77.9635Z" fill="black"/>
<path d="M24.3245 0.683891L23.874 1.59574L74.4746 77.9635L75.5257 76.3678L24.9251 0L24.3245 0.683891Z" fill="black"/>
</g>
<defs>
<clipPath id="clip0_2109_191916">
<rect width="150" height="150" fill="white"/>
</clipPath>
</defs>
</svg>
