<svg width="150" height="150" viewBox="0 0 150 150" fill="none" xmlns="http://www.w3.org/2000/svg">
<g clip-path="url(#clip0_2109_192334)">
<path d="M95.5517 141.298L80.0713 149.998V137.398L95.5517 128.398V141.298Z" fill="#7F7F7F" stroke="black" stroke-width="0.800356"/>
<path d="M95.5517 12.6L80.0713 21.3V8.7L95.5517 0V12.6Z" fill="#7F7F7F" stroke="black" stroke-width="0.800356"/>
<path d="M72.0641 27.9031L87.5445 19.2031H16.0142L0 27.9031H72.0641Z" fill="#7F7F7F" stroke="black" stroke-width="0.800356"/>
<path d="M25.089 119.403L40.5694 110.703H15.4804L0 119.403H25.089Z" fill="#7F7F7F" stroke="black" stroke-width="0.800356"/>
<path d="M150 115.502V25.8016L144.662 22.8016L138.79 20.1016L132.384 18.0016L125.445 15.9016L118.505 14.7016L111.032 13.5016L103.559 12.9016L95.5515 12.6016L88.0782 12.9016L80.6049 13.5016L73.1316 14.4016L66.1921 15.9016L59.2526 18.0016L52.8469 20.1016L46.975 22.5016L41.6369 25.5016L25.0889 34.5016L29.3593 38.1016L34.6974 42.3016L41.1031 47.7016L48.5764 54.0016L57.6511 61.2016L66.7259 69.0016L76.8682 77.1016L86.4768 85.2016L96.0853 93.0016L105.16 100.502L113.701 107.402L121.174 113.402L127.58 118.502L131.85 122.102L134.519 124.202L136.655 122.702L141.993 119.702L147.331 117.002L150 115.502Z" fill="#7F7F7F" stroke="black" stroke-width="0.800356"/>
<path d="M133.986 124.202V34.5016L128.648 31.5016L122.776 29.1016L116.37 27.0016L109.431 24.9016L102.491 23.4016L95.0181 22.5016L87.5448 21.9016L79.5376 21.6016L72.0643 21.9016L64.591 22.5016L57.6515 23.4016L50.712 24.9016L43.7725 26.7016L37.3668 28.8016L31.4949 31.5016L25.623 34.2016V124.202L30.9611 127.202L36.833 129.602L43.2387 131.702L50.1782 133.802L57.1177 135.302L64.591 136.202L72.0643 136.802L79.5376 137.102L87.5448 136.802L95.0181 136.202L102.491 135.302L109.431 133.802L116.37 131.702L122.776 129.602L128.648 127.202L133.986 124.202Z" fill="#B2B2B2" stroke="black" stroke-width="0.800356"/>
<path d="M75.8007 33.2984L72.064 27.8984L67.2598 33.2984H75.8007Z" stroke="black" stroke-width="0.800356"/>
<path d="M72.0641 27.8984H0" stroke="black" stroke-width="0.800356"/>
<path d="M134.52 34.5L150 25.5" stroke="black" stroke-width="0.800356"/>
<path d="M133.986 124.203H25.623" stroke="black" stroke-width="0.800356"/>
<path d="M25.623 34.5H133.986" stroke="black" stroke-width="0.800356"/>
</g>
<defs>
<clipPath id="clip0_2109_192334">
<rect width="150" height="150" fill="white"/>
</clipPath>
</defs>
</svg>
