<svg width="150" height="150" viewBox="0 0 150 150" fill="none" xmlns="http://www.w3.org/2000/svg">
<g clip-path="url(#clip0_2109_191942)">
<path d="M138.778 140.1L149.626 130.2L150 17.4H136.534V6.6L131.297 5.1L125.312 3.9L118.579 2.7L111.471 1.8L103.99 0.9L96.5087 0.3L88.6534 0H72.1945L64.3391 0.3L56.4838 0.9L49.0025 1.8L41.8953 2.7L35.5362 3.9L29.1771 5.1L23.9401 6.6L13.0923 15L12.7182 17.1L11.2219 17.4L0 26.4L1.49626 27.6L5.23691 31.5L11.596 37.2L19.8254 44.7L29.1771 53.7L39.6509 63.6L51.2469 74.1L62.8429 84.9L74.4389 96L86.0349 106.5L96.5087 116.4L106.234 125.4L114.09 132.9L120.449 138.6L124.19 142.5L125.686 143.7L128.304 140.7L130.175 139.8L137.282 140.1H138.778Z" fill="#7F7F7F" stroke="black" stroke-width="0.669983"/>
<path d="M0 26.7031H138.778V140.103H0V26.7031Z" fill="#B2B2B2" stroke="black" stroke-width="0.669983"/>
<path d="M125.685 143.7V15.3L120.448 13.8L114.463 12.6L107.73 11.7L100.623 10.8L93.1417 9.9L85.6604 9.3L77.805 9H61.3462L53.4908 9.3L45.6354 9.9L38.1541 10.8L31.0469 11.7L24.6878 12.6L18.3287 13.8L13.0918 15.3V143.7L18.3287 145.2L24.6878 146.4L31.0469 147.3L38.1541 148.2L45.6354 149.1L53.4908 149.7L61.3462 150H77.805L85.6604 149.7L93.1417 149.1L100.623 148.2L107.73 147.3L114.463 146.4L120.448 145.2L125.685 143.7Z" fill="#B2B2B2" stroke="black" stroke-width="0.669983"/>
<path d="M125.686 15.0016L136.533 6.60156" stroke="black" stroke-width="0.669983"/>
<path d="M125.686 26.4031L136.533 17.7031" stroke="black" stroke-width="0.669983"/>
<path d="M138.778 26.4031L150 17.7031" stroke="black" stroke-width="0.669983"/>
</g>
<defs>
<clipPath id="clip0_2109_191942">
<rect width="150" height="150" fill="white"/>
</clipPath>
</defs>
</svg>
