<svg width="150" height="150" viewBox="0 0 150 150" fill="none" xmlns="http://www.w3.org/2000/svg">
<g clip-path="url(#clip0_2109_192254)">
<path d="M0 31.9853L8.7 0H150V118.015L141.3 150L0 31.9853Z" fill="#7F7F7F" stroke="black" stroke-width="1.15045"/>
<path d="M0 34.1875H141.3V148.893H0V34.1875Z" fill="#B2B2B2" stroke="black" stroke-width="1.15045"/>
<path d="M0 33.0938L15.6 150.006L31.5 34.1967L47.1 148.903L62.7 34.1967L78.3 148.903L93.9 34.1967L110.1 148.903L125.7 34.1967L141.3 150.006" stroke="black" stroke-width="1.15045"/>
<path d="M141.3 31.9853L150 0" stroke="black" stroke-width="1.15045"/>
<path d="M125.7 31.9853L134.4 0" stroke="black" stroke-width="1.15045"/>
<path d="M93.5996 31.9853L102.6 0" stroke="black" stroke-width="1.15045"/>
<path d="M63 31.9853L71.7 0" stroke="black" stroke-width="1.15045"/>
<path d="M32.0996 31.9853L40.7996 0" stroke="black" stroke-width="1.15045"/>
</g>
<defs>
<clipPath id="clip0_2109_192254">
<rect width="150" height="150" fill="white"/>
</clipPath>
</defs>
</svg>
