<svg width="150" height="150" viewBox="0 0 150 150" fill="none" xmlns="http://www.w3.org/2000/svg">
<g clip-path="url(#clip0_2109_192410)">
<path d="M0 29.5918L8.7 0H150V120.408L141.3 150L0 29.5918Z" fill="#7F7F7F" stroke="black" stroke-width="1.10657"/>
<path d="M141.3 30.6094H134.4H128.1H121.8H115.8H109.5H103.2H96.6H89.4H81.6H73.2H63.9H53.7H42.3H29.7H15.6H0V149.997H141.3V30.6094Z" fill="#B2B2B2" stroke="black" stroke-width="1.10657"/>
<path d="M141.3 89.795L150 60.2031" stroke="black" stroke-width="1.10657"/>
<path d="M141.3 29.5918L150 0" stroke="black" stroke-width="1.10657"/>
<path d="M114.6 29.5918L123.6 0" stroke="black" stroke-width="1.10657"/>
<path d="M79.5 29.5918L88.2 0" stroke="black" stroke-width="1.10657"/>
<path d="M45.2998 29.5918L53.9998 0" stroke="black" stroke-width="1.10657"/>
<path d="M9.90039 29.5918L18.9004 0" stroke="black" stroke-width="1.10657"/>
<path d="M141.3 90.8125H0" stroke="black" stroke-width="1.10657"/>
<path d="M141.3 89.793L131.7 149.997L114.3 30.6094L96.9 149.997L79.2 30.6094L62.1 149.997L44.7 30.6094L27.3 149.997L9.9 30.6094L0 89.793" stroke="black" stroke-width="1.10657"/>
</g>
<defs>
<clipPath id="clip0_2109_192410">
<rect width="150" height="150" fill="white"/>
</clipPath>
</defs>
</svg>
