<svg width="150" height="150" viewBox="0 0 150 150" fill="none" xmlns="http://www.w3.org/2000/svg">
<g clip-path="url(#clip0_2109_193034)">
<path d="M83.5226 141.265L16.4772 106.024L2.84082 21.3855L10.2272 16.8675L18.7499 12.6506L27.2726 9.03615L36.9317 5.72289L47.159 3.31325L57.9545 1.50602L70.4545 0.301205L83.5226 0L96.5908 0.301205L109.091 1.50602L120.454 3.01205L130.682 5.12048L138.636 7.83133L144.886 10.5422L148.864 13.8554L150 17.4699V106.024L83.5226 141.265Z" fill="#7F7F7F" stroke="black" stroke-width="0.827379"/>
<path d="M67.0455 149.999L0 114.758V26.2043L1.13636 22.5898L5.11364 19.2765L11.3636 16.5657L19.8864 13.8549L29.5455 11.7464L40.9091 10.2404L53.4091 9.03558L67.0455 8.73438L80.1136 9.03558L92.6136 10.2404L103.977 11.7464L114.205 13.8549L122.159 16.5657L128.409 19.2765L132.386 22.5898L133.523 26.2043V114.758L67.0455 149.999Z" fill="#B2B2B2" stroke="black" stroke-width="0.827379"/>
<path d="M0 58.1328H123.295L26.7045 72.2894L123.295 86.4461H0" stroke="black" stroke-width="0.827379"/>
</g>
<defs>
<clipPath id="clip0_2109_193034">
<rect width="150" height="150" fill="white"/>
</clipPath>
</defs>
</svg>
