<svg width="150" height="150" viewBox="0 0 150 150" fill="none" xmlns="http://www.w3.org/2000/svg">
<g clip-path="url(#clip0_2109_192782)">
<path d="M150 105.9L140.209 105.3L130.809 103.8L121.802 101.1L113.185 97.5L104.961 93L97.1279 87.9L89.6867 81.6L83.0287 75L76.7624 67.5L71.671 59.1L66.5796 50.4L62.6632 41.1L59.53 31.5L57.1802 21.3L55.6136 10.8L55.2219 0H11.3577L0 8.4L31.7232 99L138.251 149.7L150 141.3V105.9Z" fill="#7F7F7F" stroke="black" stroke-width="0.685546"/>
<path d="M138.642 114.603L128.851 114.003L119.452 112.503L110.444 109.803L101.828 106.203L93.6031 101.703L85.7702 96.3031L78.7206 90.3031L72.0626 83.4031L65.7963 75.9031L60.3133 67.8031L55.6135 59.1031L51.6971 49.8031L48.5639 40.2031L46.2141 30.0031L44.6475 19.5031L44.2558 8.70312H0.391602L0.783246 150.003H138.642V114.603Z" fill="#B2B2B2" stroke="black" stroke-width="0.685546"/>
<path d="M44.2559 8.7L55.2219 0" stroke="black" stroke-width="0.685546"/>
<path d="M138.643 114.598L149.609 105.898" stroke="black" stroke-width="0.685546"/>
</g>
<defs>
<clipPath id="clip0_2109_192782">
<rect width="150" height="150" fill="white"/>
</clipPath>
</defs>
</svg>
