<svg width="150" height="150" viewBox="0 0 150 150" fill="none" xmlns="http://www.w3.org/2000/svg">
<g clip-path="url(#clip0_2109_192750)">
<path d="M137.4 63.3438L137.1 69.9083L136.2 76.1446L134.7 82.3809L132.9 87.9608L130.5 93.5407L127.5 98.7923L124.2 103.716L120.3 108.311L116.4 112.25L111.9 115.86L107.1 119.142L102 121.768L96.5998 123.738L91.1998 125.379L85.4998 126.363L79.4998 126.692L73.4998 126.363L67.7998 125.379L62.0998 123.738L56.9998 121.768L51.8998 119.142L47.0998 115.86L42.5998 112.25L38.3998 108.311L34.4998 103.716L31.1998 98.7923L28.1998 93.5407L25.7998 87.9608L23.9998 82.3809L22.4998 76.1446L21.5998 69.9083L21.2998 63.3438H9.2998L9.5998 71.2212L10.7998 78.7704L12.2998 85.9915L14.6998 93.2125L17.6998 99.777L21.2998 106.342L25.1998 112.25L29.6998 117.501L34.7998 122.425L40.1998 127.02L45.8998 130.959L52.1998 134.241L58.4998 136.538L65.3998 138.508L72.2998 139.821L79.4998 140.149L86.6998 139.821L93.5998 138.508L100.2 136.538L106.8 134.241L112.8 130.959L118.8 127.02L124.2 122.425L129 117.501L133.5 112.25L137.7 106.342L141.3 99.777L144.3 93.2125L146.4 85.9915L148.2 78.7704L149.4 71.2212L149.7 63.3438H137.4Z" fill="#7F7F7F" stroke="black" stroke-width="0.627593"/>
<path d="M79.1998 126.696C111.177 126.696 137.1 98.334 137.1 63.3479C137.1 28.3618 111.177 0 79.1998 0C47.2225 0 21.2998 28.3618 21.2998 63.3479C21.2998 98.334 47.2225 126.696 79.1998 126.696Z" fill="#7F7F7F" stroke="black" stroke-width="0.627593"/>
<path d="M128.4 73.1906L137.4 63.3438H150L140.7 73.1906H128.4Z" fill="#7F7F7F" stroke="black" stroke-width="0.627593"/>
<path d="M0.299805 73.1906L9.2998 63.3438H21.5998L12.2998 73.1906H0.299805Z" fill="#7F7F7F" stroke="black" stroke-width="0.627593"/>
<path d="M128.4 73.1953L128.1 79.7599L127.2 85.9962L125.7 92.2325L123.6 97.8124L121.2 103.392L118.2 108.644L114.9 113.567L111.3 118.162L107.1 122.101L102.6 125.712L98.1 128.994L93 131.62L87.6 133.589L82.2 135.23L76.5 136.215L70.5 136.543L64.5 136.215L58.8 135.23L53.1 133.589L48 131.62L42.9 128.994L38.1 125.712L33.6 122.101L29.4 118.162L25.5 113.567L22.2 108.644L19.2 103.392L16.8 97.8124L15 92.2325L13.5 85.9962L12.6 79.7599L12.3 73.1953H12H0L0.3 81.0728L1.5 88.622L3.3 95.843L5.4 103.064L8.4 109.629L12 116.193L16.2 122.101L20.7 127.353L25.5 132.276L31.2 136.871L36.9 140.81L42.9 144.092L49.5 146.39L56.4 148.359L63.3 149.672L70.5 150.001L77.7 149.672L84.6 148.359L91.2 146.39L97.8 144.092L103.8 140.81L109.5 136.871L114.9 132.276L120 127.353L124.5 122.101L128.7 116.193L132.3 109.629L135 103.064L137.4 95.843L139.2 88.622L140.4 81.0728L140.7 73.1953H128.4Z" fill="#B2B2B2" stroke="black" stroke-width="0.627593"/>
<path d="M70.1998 136.54C102.177 136.54 128.1 108.178 128.1 73.1917C128.1 38.2056 102.177 9.84375 70.1998 9.84375C38.2225 9.84375 12.2998 38.2056 12.2998 73.1917C12.2998 108.178 38.2225 136.54 70.1998 136.54Z" fill="#B2B2B2" stroke="black" stroke-width="0.627593"/>
</g>
<defs>
<clipPath id="clip0_2109_192750">
<rect width="150" height="150" fill="white"/>
</clipPath>
</defs>
</svg>
