<svg width="150" height="150" viewBox="0 0 150 150" fill="none" xmlns="http://www.w3.org/2000/svg">
<g clip-path="url(#clip0_2109_192969)">
<path d="M134.4 150.004L138.9 147.033L144 139.608L148.2 131.192L150 124.756L147.9 116.34L142.8 112.875H15.6L13.8 113.37L9 118.321L3.9 125.746L0.6 134.162L0 138.618L0.3 141.588L0.9 142.083L4.5 140.103L5.7 141.093L6.6 150.004H134.4Z" fill="#7F7F7F" stroke="black" stroke-width="0.770752"/>
<path d="M18.5996 40.099L44.0996 0H114.6L130.2 25.7426L121.2 38.1188L105.9 12.8713H36.2996L18.5996 40.099Z" fill="#7F7F7F" stroke="black" stroke-width="0.770752"/>
<path d="M74.0996 75.2471L64.4996 90.5937L39.5996 49.0095L49.1996 34.158L50.3996 32.1778L51.8996 30.6927L53.3996 29.2075L54.8996 27.7224L56.6996 26.7323L58.1996 26.2372L59.9996 25.7422H61.7996L65.3996 26.2372L68.6996 28.2174L71.3996 30.6927L74.0996 34.158L76.1996 38.6135L77.6996 43.0689L78.8996 48.5145L79.1996 54.4551V57.4254L78.8996 60.3957L78.5996 62.8709L77.9996 65.8412L77.0996 68.3164L76.1996 70.7917L75.2996 73.2669L74.0996 75.2471Z" fill="#7F7F7F" stroke="black" stroke-width="0.770752"/>
<path d="M35.0996 109.407V98.5155L44.0996 83.6641V94.5552H114.6L105.9 109.407H35.0996Z" fill="#7F7F7F" stroke="black" stroke-width="0.770752"/>
<path d="M105.9 109.407V98.5155L114.6 83.6641V94.5552L105.9 109.407Z" fill="#7F7F7F" stroke="black" stroke-width="0.770752"/>
<path d="M109.5 75.2471L99.9 90.5937L75 49.0095L84.6 34.158L85.8 32.1778L87.3 30.6927L88.5 29.2075L90.3 27.7224L91.8 26.7323L93.6 26.2372L95.1 25.7422H96.9L100.5 26.2372L103.8 28.2174L106.8 30.6927L109.5 34.158L111.6 38.6135L113.1 43.0689L114.3 48.5145L114.6 54.4551V57.4254L114.3 60.3957L114 62.8709L113.4 65.8412L112.5 68.3164L111.6 70.7917L110.7 73.2669L109.5 75.2471Z" fill="#7F7F7F" stroke="black" stroke-width="0.770752"/>
<path d="M134.1 149.997C138.077 149.997 141.3 144.677 141.3 138.116C141.3 131.554 138.077 126.234 134.1 126.234C130.124 126.234 126.9 131.554 126.9 138.116C126.9 144.677 130.124 149.997 134.1 149.997Z" fill="#B2B2B2" stroke="black" stroke-width="0.770752"/>
<path d="M6.9 149.507C10.7108 149.507 13.8 144.409 13.8 138.121C13.8 131.832 10.7108 126.734 6.9 126.734C3.08924 126.734 0 131.832 0 138.121C0 144.409 3.08924 149.507 6.9 149.507Z" fill="#B2B2B2" stroke="black" stroke-width="0.770752"/>
<path d="M52.7996 98.0252C62.5751 98.0252 70.4996 84.9484 70.4996 68.8173C70.4996 52.6862 62.5751 39.6094 52.7996 39.6094C43.0242 39.6094 35.0996 52.6862 35.0996 68.8173C35.0996 84.9484 43.0242 98.0252 52.7996 98.0252Z" fill="#B2B2B2" stroke="black" stroke-width="0.770752"/>
<path d="M88.2 98.0252C97.9754 98.0252 105.9 84.9484 105.9 68.8173C105.9 52.6862 97.9754 39.6094 88.2 39.6094C78.4246 39.6094 70.5 52.6862 70.5 68.8173C70.5 84.9484 78.4246 98.0252 88.2 98.0252Z" fill="#B2B2B2" stroke="black" stroke-width="0.770752"/>
<path d="M105.9 12.8713L114.6 0" stroke="black" stroke-width="0.770752"/>
<path d="M35.0996 109.406L44.0996 94.5547" stroke="black" stroke-width="0.770752"/>
<path d="M6.90039 126.734H134.1" stroke="black" stroke-width="0.770752"/>
</g>
<defs>
<clipPath id="clip0_2109_192969">
<rect width="150" height="150" fill="white"/>
</clipPath>
</defs>
</svg>
