<svg width="150" height="150" viewBox="0 0 150 150" fill="none" xmlns="http://www.w3.org/2000/svg">
<g clip-path="url(#clip0_2109_192860)">
<path d="M150 112.8V0H11.7493L0 8.7L11.7493 112.8L14.4909 116.1L18.0157 119.1L21.1488 122.1L25.0653 124.8L32.8982 129.6L37.2063 131.7L41.5144 133.8L46.2141 135.3L50.9138 136.8L55.6136 138.3L60.3133 139.2L65.4047 140.1L75.5875 141.3H85.7702L95.953 140.1L101.044 139.2L106.136 138.3L110.836 136.8L115.535 135.3L120.235 133.8L124.543 131.7L128.851 129.6L136.684 124.8L140.209 122.1L143.734 119.1L146.867 116.1L150 112.8Z" fill="#7F7F7F" stroke="black" stroke-width="0.685546"/>
<path d="M138.251 121.803V8.70312H0V121.803L2.74151 125.103L6.26632 128.103L9.39948 130.803L13.3159 133.503L17.2324 136.203L21.1488 138.303L25.4569 140.403L29.765 142.503L34.4648 144.303L39.1645 145.803L48.564 147.903L53.6554 148.803L63.8381 150.003H74.0209L84.2037 148.803L89.295 147.903L94.3864 147.003L99.0862 145.803L103.786 144.303L108.486 142.503L112.794 140.403L117.102 138.303L121.018 136.203L124.935 133.503L131.984 128.103L135.117 125.103L138.251 121.803Z" fill="#B2B2B2" stroke="black" stroke-width="0.685546"/>
<path d="M138.251 8.7L150 0" stroke="black" stroke-width="0.685546"/>
<path d="M138.251 121.5L150 112.5" stroke="black" stroke-width="0.685546"/>
</g>
<defs>
<clipPath id="clip0_2109_192860">
<rect width="150" height="150" fill="white"/>
</clipPath>
</defs>
</svg>
