<svg width="150" height="150" viewBox="0 0 150 150" fill="none" xmlns="http://www.w3.org/2000/svg">
<path d="M147.674 110.374L108.894 127.921V145.752H11.9445L2.32715 127.921V21.7894L11.9445 4.24219H108.894V21.7894L147.674 39.6195V110.374Z" fill="#7F7F7F"/>
<path d="M147.674 101.606L108.894 114.625V127.927H11.9445L2.32715 114.625V35.097L11.9445 22.0781H108.894V35.097L147.674 48.3989V101.606Z" fill="#B2B2B2"/>
<path d="M147.674 83.7739L108.894 88.3022V92.5475H11.9445L2.32715 88.3022V61.6984L11.9445 57.4531H108.894V61.6984L147.674 66.2267V83.7739Z" fill="#E5E5E5"/>
<path d="M147.674 110.374L108.894 127.921V145.752H11.9445L2.32715 127.921V21.7894L11.9445 4.24219H108.894V21.7894L147.674 39.6195V110.374Z" stroke="black" stroke-width="0.419054"/>
<path d="M108.894 127.921V21.7891" stroke="black" stroke-width="0.419054"/>
<path d="M11.9443 145.752V4.24219" stroke="black" stroke-width="0.419054"/>
<path d="M99.2764 145.752V4.24219" stroke="black" stroke-width="0.419054"/>
<path d="M60.4965 145.757V57.1719H21.7168V145.757H60.4965Z" fill="#7F7F7F" stroke="black" stroke-width="0.419054"/>
<path d="M21.7168 145.757V57.1719H60.4965" stroke="white" stroke-width="0.419054"/>
</svg>
