<svg width="150" height="150" viewBox="0 0 150 150" fill="none" xmlns="http://www.w3.org/2000/svg">
<g clip-path="url(#clip0_2109_211448)">
<path d="M116.666 9.83251L117.567 15.4505L117.868 29.2145L118.168 50.5629L118.468 75.5629L118.168 101.125L117.868 122.473L117.567 136.237L116.666 141.293H92.7925V142.417H104.054V149.158H79.4291V142.417H80.9306V141.293H60.0597V142.417H61.5612V149.158H37.0868V142.417H48.1979V141.293H34.3841L34.0838 149.158H2.85254L3.15284 131.743L3.75344 106.181V43.8213L3.15284 18.8213L2.85254 1.40555V0.84375H34.0838L35.5853 37.6415L35.8856 75.0011L35.5853 97.7539H115.465L115.165 75.5629L115.465 50.5629L115.765 29.2145L116.066 15.4505L116.666 9.83251Z" fill="#7F7F7F"/>
<path d="M2.10185 147.476C3.01403 147.476 3.7535 115.155 3.7535 75.2848C3.7535 35.4148 3.01403 3.09375 2.10185 3.09375C1.18966 3.09375 0.450195 35.4148 0.450195 75.2848C0.450195 115.155 1.18966 147.476 2.10185 147.476Z" fill="#7F7F7F"/>
<path d="M149.4 64.3281H122.223V86.2382H149.4V64.3281Z" fill="#7F7F7F"/>
<path d="M117.567 97.7552H34.084V8.14844H102.853H116.667L117.267 41.5754L117.567 97.7552Z" fill="#B2B2B2"/>
<path d="M34.084 15.4518H116.667V8.14844H102.853H34.084V15.4518Z" fill="#7F7F7F"/>
<path fill-rule="evenodd" clip-rule="evenodd" d="M104.054 74.9975H34.6844V81.739H104.054V74.9975ZM73.1228 24.4357V18.2559H104.054V11.5143H34.6844V18.2559H60.36V24.4357H34.6844V30.8963H104.054V24.4357H73.1228ZM64.8646 18.8177H68.9186L69.8195 20.5031V24.4357H63.6633V20.5031L64.8646 18.8177ZM105.555 74.9975H115.465V81.739H105.555V74.9975ZM104.054 62.0761H34.6844V68.8177H104.054V62.0761ZM105.555 62.0761H115.465V68.8177H105.555V62.0761ZM104.054 49.4357H34.6844V56.739H104.054V49.4357ZM105.555 49.4357H115.465V56.739H105.555V49.4357ZM104.054 36.5143H34.6844V43.2559H104.054V36.5143ZM105.555 36.5143H115.465V43.2559H105.555V36.5143ZM105.555 11.5143H115.465V18.2559H105.555V11.5143ZM105.555 24.4357H115.465V30.8963H105.555V24.4357ZM2.85254 4.21094L3.45314 18.8177V30.8963H34.6844L33.7835 4.21094H2.85254ZM149.099 65.4469H122.222V69.9413H149.099V65.4469Z" fill="#E0E0E0"/>
<path d="M104.054 87.3594H34.6846V93.82H104.054V87.3594Z" fill="#CCCCCC"/>
<path d="M105.556 87.3594H115.466V93.82H105.556V87.3594Z" fill="#CCCCCC"/>
<path d="M104.054 100H34.6846V106.742H104.054V100Z" fill="#CCCCCC"/>
<path d="M105.556 100H115.466V106.742H105.556V100Z" fill="#CCCCCC"/>
<path d="M119.82 52.8125H118.168V97.7563H119.82V52.8125Z" fill="#333333"/>
<path d="M119.82 59.8281V90.1652H121.322L121.922 88.4798L122.223 86.2326V64.3225L121.922 60.9517L121.322 59.8281H119.82Z" fill="#333333"/>
<path d="M149.1 81.7431H122.223V69.9453H149.1V81.7431Z" fill="#B2B2B2"/>
<path d="M104.054 125.562H34.6846V132.304H104.054V125.562Z" fill="#B2B2B2"/>
<path d="M105.556 125.562H115.466V132.304H105.556V125.562Z" fill="#B2B2B2"/>
<path d="M3.45312 30.8984L3.75343 43.8198V75.5614V106.179L3.45312 128.37H34.3841L35.285 77.2467L34.3841 30.8984H3.45312Z" fill="#B2B2B2"/>
<path d="M105.556 112.359H115.466V119.101H105.556V112.359Z" fill="#CCCCCC"/>
<path d="M104.054 112.359H34.6846V119.101H104.054V112.359Z" fill="#CCCCCC"/>
<path d="M86.7868 35.3906H47.5977V103.368H86.7868V35.3906Z" fill="black" stroke="black" stroke-width="0.410741"/>
<path d="M87.6872 37.0781H48.498V104.494H87.6872V37.0781Z" fill="#CCCCCC" stroke="black" stroke-width="0.410741"/>
<path d="M84.9851 49.4375H53.7539L54.6548 96.6285H83.3335L84.9851 49.4375Z" fill="#CCCCCC" stroke="black" stroke-width="0.410741"/>
<path d="M52.252 46.6328L53.7535 49.4418L54.6544 96.6328H54.0538L52.252 46.6328Z" fill="#7F7F7F"/>
<path d="M84.9847 49.4411H53.7535L52.252 46.0703H83.6333L84.9847 49.4411Z" fill="#E5E5E5" stroke="black" stroke-width="0.410741"/>
<path d="M85.5853 102.807H84.0838L83.333 100.56L84.0838 98.3125H85.5853L86.4862 100.56L85.5853 102.807Z" fill="#E5E5E5" stroke="black" stroke-width="0.410741"/>
<path d="M85.5853 43.8225H84.0838L83.333 41.5753L84.0838 39.3281H85.5853L86.4862 41.5753L85.5853 43.8225Z" fill="#E5E5E5" stroke="black" stroke-width="0.410741"/>
<path d="M52.252 43.8225H50.4502L49.8496 41.5753L50.4502 39.3281H52.252L53.1529 41.5753L52.252 43.8225Z" fill="#E5E5E5" stroke="black" stroke-width="0.410741"/>
<path d="M52.252 102.807H50.4502L49.8496 100.56L50.4502 98.3125H52.252L53.1529 100.56L52.252 102.807Z" fill="#E5E5E5" stroke="black" stroke-width="0.410741"/>
</g>
<defs>
<clipPath id="clip0_2109_211448">
<rect width="150" height="150" fill="white"/>
</clipPath>
</defs>
</svg>
