<svg width="150" height="150" viewBox="0 0 150 150" fill="none" xmlns="http://www.w3.org/2000/svg">
<path d="M138.968 35.4766H147.331V98.8212H138.968V35.4766Z" fill="black"/>
<path d="M36.2988 146.202V130.492H113.879V146.202H36.2988Z" fill="black"/>
<path d="M125.089 130.486H24.9109L2.66895 122.631V11.6516L24.9109 3.79688H125.089V15.7057L138.968 27.6144V106.668L125.089 118.577V130.486Z" fill="#7F7F7F"/>
<path d="M125.267 117.313H25.0887L2.84668 111.232V22.8032L25.0887 16.4688H125.267V25.8438L139.146 35.4721V98.31L125.267 107.938V117.313Z" fill="#999999"/>
<path d="M125.267 104.644H25.0887L2.84668 99.8298V33.9514L25.0887 29.3906H125.267V36.4852L139.146 43.5798V90.4548L125.267 97.5494V104.644Z" fill="#B2B2B2"/>
<path d="M125.267 91.7247H25.0887L2.84668 88.6841V45.3564L25.0887 42.0625H125.267V46.8767L139.146 51.4375V82.3497L125.267 86.9105V91.7247Z" fill="#CCCCCC"/>
<path d="M125.089 79.0519H24.9109L2.66895 77.5317V56.7546L24.9109 55.2344H125.089V57.5148L138.968 59.7952V74.4911L125.089 76.7715V79.0519Z" fill="#E5E5E5"/>
<path d="M125.089 130.486H24.9109L2.66895 122.631V11.6516L24.9109 3.79688H125.089V15.7057L138.968 27.6144V106.668L125.089 118.577V130.486Z" stroke="black" stroke-width="0.424665"/>
<path d="M41.6367 146.196V82.8516H80.6047V146.196H41.6367Z" fill="#B2B2B2" stroke="black" stroke-width="0.424665"/>
<path d="M47.1533 138.343V90.9609H74.9113" stroke="white" stroke-width="0.424665"/>
<path d="M44.3057 138.344H47.1526V142.398H44.3057V138.344Z" fill="black"/>
<path d="M74.9111 138.344H77.7581V142.398H74.9111V138.344Z" fill="black"/>
<path d="M74.9111 86.9062H77.7581V90.9603H74.9111V86.9062Z" fill="black"/>
<path d="M44.3057 86.9062H47.1526V90.9603H44.3057V86.9062Z" fill="black"/>
<path d="M125.089 118.583V15.7109" stroke="black" stroke-width="0.424665"/>
<path d="M36.1211 3.79688H119.395V71.1955H36.1211V3.79688Z" fill="#4C4C4C"/>
<path d="M36.1211 51.1797H122.242V55.2337H36.1211V51.1797Z" fill="#CCCCCC"/>
<path d="M36.1211 63.0938H122.242V67.1478H36.1211V63.0938Z" fill="#CCCCCC"/>
<path d="M36.1211 27.6172H122.242V31.6712H36.1211V27.6172Z" fill="#B2B2B2"/>
<path d="M36.1211 39.5234H122.242V43.5775H36.1211V39.5234Z" fill="#B2B2B2"/>
<path d="M36.1211 19.5078H122.242V23.5619H36.1211V19.5078Z" fill="#999999"/>
<path d="M36.1211 11.6562H122.242V15.7103H36.1211V11.6562Z" fill="#999999"/>
<path d="M36.1211 3.79688H122.242V7.85093H36.1211V3.79688Z" fill="#999999"/>
</svg>
