<svg width="150" height="150" viewBox="0 0 150 150" fill="none" xmlns="http://www.w3.org/2000/svg">
<g clip-path="url(#clip0_2109_211735)">
<path d="M120.42 84.3281H150V95.4305H120.42V84.3281Z" fill="#999999"/>
<path d="M120.57 87.3984H149.85V92.3591H120.57V87.3984Z" fill="#CCCCCC"/>
<path d="M149.699 83.8594H120.42V95.4342H149.699H149.849V95.198V94.4893V93.7806L150 93.072V92.1271V90.946V89.7649V88.5838V87.4027V86.4578L149.849 85.7491V84.8043V84.3318V83.8594H149.699Z" stroke="black" stroke-width="0.376662"/>
<path d="M120.571 43.4609L120.721 43.6972L121.172 51.4924L121.322 58.8153V65.9019L121.472 73.9334V78.1853V80.3113V82.6735V98.9728V107.949L121.322 115.744V122.595L121.021 130.626L120.721 136.059V136.296H120.571H120.421H14.8652V43.4609H120.421H120.571Z" fill="#7F7F7F"/>
<path d="M120.571 53.3828L120.721 53.619L121.172 61.6505L121.322 69.4458L121.472 78.8946V82.4379V85.9812V97.0836V107.005L121.322 115.509L121.021 123.304L120.721 126.139H120.571H120.421H100.601H94.1445H37.9884H31.3818H18.1685H14.8652V124.013V112.674L15.0154 103.462V69.4458L14.8652 60.2332V53.3828H34.6851H37.9884H41.2917H97.4478H103.904H120.571Z" fill="#999999"/>
<path d="M120.571 63.5409H120.721L121.322 71.1L121.472 79.6039V81.9661L121.622 84.5645V87.163V94.9582L121.472 102.281L121.172 110.076L120.721 115.982L120.571 116.218H120.421H100.601H94.1445H37.9884H31.3818H18.1685H14.8652V114.565V106.297L15.0154 98.0291V75.1157L14.8652 66.848V63.5409H34.6851L37.9884 63.3047H41.2917H97.4478L103.904 63.5409H120.571Z" fill="#B2B2B2"/>
<path d="M120.57 73.4609L120.72 73.6972L121.471 80.7838V86.4531L121.621 88.1066V89.7602L121.471 97.5554L121.021 104.878L120.72 106.059H120.57H120.42H100.75H94.1438H37.9876H31.5312H18.318H15.0146V103.933V95.9019V81.4924V73.4609H34.8345H37.9876H41.2909H97.4471H104.054H120.57Z" fill="#CCCCCC"/>
<path d="M120.57 83.625H120.72L120.871 84.0974L121.171 84.5699L121.321 85.5148V86.4596L121.471 87.4045V88.5856L121.621 89.7667L121.471 91.1841V92.3652L121.321 93.31V94.2549L121.171 94.9636L120.871 95.6722L120.72 95.9085L120.57 96.1447H120.42H15.0146V83.625H120.42H120.57Z" fill="#E5E5E5"/>
<path d="M120.57 43.2266V43.4628L121.171 51.2581L121.321 58.5809L121.471 65.6675V73.9352V80.5494L121.621 82.6754V85.0376V96.8486L121.471 105.825V113.856L121.321 121.179L121.171 128.502L120.72 135.353L120.57 136.061V136.297H120.42V136.534H15.0146V43.2266H120.42H120.57Z" stroke="black" stroke-width="0.376662"/>
<path d="M15.3153 40.3906L15.4654 40.6268L16.066 47.7135L16.2162 55.0363L16.3663 62.3591L16.5165 70.6268V79.8394L16.6666 82.2016V84.8001V97.3198L16.5165 104.406V113.147L16.3663 120.942L16.066 129.21L15.7657 136.769L15.4654 138.658L15.3153 138.895V139.367H4.50448L1.20117 134.643V133.461V46.2961L3.90387 40.6268L4.50448 40.3906H15.3153Z" fill="#7F7F7F" stroke="black" stroke-width="0.376662"/>
<path d="M83.784 72.7578H84.3846H84.9852H85.5858H103.304L104.805 73.2303L106.156 74.4114L106.907 76.3011L107.358 78.4271V81.7342V85.0413L107.508 88.3484V91.6555V92.6003L107.658 93.7814V94.9625V98.2696L107.508 101.34V104.648L107.358 107.955V111.262L107.207 114.805L106.607 116.931L105.556 118.348L104.054 119.293H103.304H102.703H83.784L82.2825 118.821L81.0813 117.64L80.3306 115.986L80.1804 114.805L80.0303 113.624L80.1804 112.443V109.136L80.3306 105.829V102.522V89.5295V86.2224L80.1804 82.9153V79.6082L80.3306 76.3011L81.0813 74.4114L82.2825 73.2303L83.784 72.7578Z" fill="#E5E5E5" stroke="black" stroke-width="0.376662"/>
<path d="M15.4654 50.7891L16.066 57.4032L16.3663 64.9623L16.5165 72.9938L16.6666 80.0804V81.9702V83.8599V85.7497V95.671L16.5165 102.994L16.3663 111.498L16.2162 118.348L15.9159 125.435L15.4654 128.506V128.742V128.978H14.7147L10.06 128.742L5.25523 128.978L1.35132 125.907L1.20117 125.199V124.254V122.128V111.262V102.758V70.3954V61.8914V54.5686L4.65463 50.7891H6.60658H7.35733H7.95793H12.7627H15.4654Z" fill="#999999"/>
<path d="M15.315 61.1815L15.9156 63.3075L16.0658 66.1422L16.2159 69.6855L16.3661 73.9374L16.5162 76.2996V78.6618V81.2603V84.0949L16.6664 86.9296V89.7642V92.5989L16.5162 95.4335V98.2681V100.867V103.465L16.3661 105.827L16.2159 110.079L16.0658 113.386L15.9156 116.221L15.4652 118.111L15.315 118.347H15.4652L15.315 118.583H14.7144H12.7625H7.35709H5.25499L3.30303 118.347L1.65138 116.93L1.20093 115.748L1.05078 115.276V113.622V105.591L1.20093 102.52V75.591L1.05078 72.2839V64.4886L2.10183 62.1264L3.90363 61.1815H6.00574H6.60634L7.35709 60.9453H8.10784H12.7625L14.7144 61.1815H15.315Z" fill="#B2B2B2"/>
<path d="M15.315 71.3359L15.6153 71.8084L16.0658 74.643L16.2159 76.769L16.3661 79.6037L16.5162 82.6745V85.9816L16.6664 87.8714V89.7611L16.5162 93.5407V96.8477L16.3661 99.9186L16.2159 102.753L16.0658 104.879L15.7655 107.241L15.6153 107.714L15.315 108.186H14.7144H12.7625H7.35709H5.40514L3.30303 107.95L1.65138 107.241L1.20093 106.533L1.05078 106.06V103.934V99.9186V95.9029V81.7296V77.7139V73.6981L1.20093 73.2257L2.70243 71.8084L4.65438 71.3359H6.75649H7.35709H8.10784H12.7625H14.7144H15.315Z" fill="#CCCCCC"/>
<path d="M15.315 81.7344L15.6153 81.9706L16.2159 84.0966L16.5162 86.695V89.7659V93.073L16.2159 95.6714L15.6153 97.7974L15.315 98.0336H3.90363L2.10183 97.5611L1.05078 97.0887V82.6793V82.443L2.55228 81.9706L3.90363 81.7344H15.315Z" fill="#E5E5E5"/>
<path d="M1.05105 133.702C1.63153 133.702 2.1021 114.031 2.1021 89.7651C2.1021 65.4994 1.63153 45.8281 1.05105 45.8281C0.470572 45.8281 0 65.4994 0 89.7651C0 114.031 0.470572 133.702 1.05105 133.702Z" fill="#B2B2B2" stroke="black" stroke-width="0.376662"/>
<path d="M51.0508 136.539H97.1469V147.169H51.0508V136.539Z" fill="#7F7F7F" stroke="black" stroke-width="0.376662"/>
<path d="M51.6514 149.999H97.4472L97.1469 147.164H51.0508L51.6514 149.999Z" fill="#7F7F7F" stroke="black" stroke-width="0.376662"/>
<path d="M20.1201 0H92.3423V55.9843H20.1201V0Z" fill="#CCCCCC" stroke="black" stroke-width="0.376662"/>
<path d="M23.5732 48.1897V5.90625H89.0387" stroke="white" stroke-width="0.376662"/>
<path d="M117.718 42.9922L117.868 43.2284L118.318 49.8426L118.619 56.9292L118.769 64.0158L118.919 72.0473V80.7875V83.1497V85.5119V97.5591V106.535L118.769 114.803L118.619 121.89L118.469 129.449L118.018 136.535L117.868 137.48H117.718" stroke="black" stroke-width="0.376662"/>
</g>
<defs>
<clipPath id="clip0_2109_211735">
<rect width="150" height="150" fill="white"/>
</clipPath>
</defs>
</svg>
