<svg width="150" height="150" viewBox="0 0 150 150" fill="none" xmlns="http://www.w3.org/2000/svg">
<g clip-path="url(#clip0_2109_210984)">
<path d="M150 68.1094H118.769V83.8574H150V68.1094Z" fill="#7F7F7F"/>
<path d="M150 68.8984H118.769V83.0717H150V68.8984Z" fill="#B2B2B2"/>
<path d="M150 72.0469H118.769V79.9209H150V72.0469Z" fill="#CCCCCC"/>
<path d="M150 75.1953H118.769V76.7701H150V75.1953Z" fill="white"/>
<path d="M150 68.1094H118.769V83.8574H150V68.1094Z" stroke="black" stroke-width="0.486268"/>
<path d="M101.502 144.484C114.687 144.484 125.376 113.814 125.376 75.9805C125.376 38.1468 114.687 7.47656 101.502 7.47656C88.3166 7.47656 77.6279 38.1468 77.6279 75.9805C77.6279 113.814 88.3166 144.484 101.502 144.484Z" fill="#7F7F7F" stroke="black" stroke-width="0.486268"/>
<path d="M101.502 131.103C114.687 131.103 125.376 106.426 125.376 75.9853C125.376 45.5444 114.687 20.8672 101.502 20.8672C88.3166 20.8672 77.6279 45.5444 77.6279 75.9853C77.6279 106.426 88.3166 131.103 101.502 131.103Z" fill="#999999"/>
<path d="M101.502 108.264C114.687 108.264 125.376 93.9864 125.376 76.3741C125.376 58.7619 114.687 44.4844 101.502 44.4844C88.3166 44.4844 77.6279 58.7619 77.6279 76.3741C77.6279 93.9864 88.3166 108.264 101.502 108.264Z" fill="#B2B2B2"/>
<path d="M101.502 85.4305C114.687 85.4305 125.376 81.3764 125.376 76.3754C125.376 71.3744 114.687 67.3203 101.502 67.3203C88.3166 67.3203 77.6279 71.3744 77.6279 76.3754C77.6279 81.3764 88.3166 85.4305 101.502 85.4305Z" fill="#CCCCCC"/>
<path d="M31.6816 5.90625H101.652V133.465H31.6816V5.90625Z" fill="#4C4C4C" stroke="black" stroke-width="0.486268"/>
<path d="M6.45605 0H31.6813V149.213H6.45605V0Z" fill="#999999" stroke="black" stroke-width="0.486268"/>
<path d="M6.45646 149.213L0 132.677V15.3543L6.45646 0V149.213Z" fill="#B2B2B2" stroke="black" stroke-width="0.486268"/>
<path d="M31.6816 131.102H101.652V149.999H31.6816V131.102Z" fill="#7F7F7F" stroke="black" stroke-width="0.486268"/>
<path d="M31.6816 115.352H104.655V120.076H31.6816V115.352Z" fill="#B2B2B2" stroke="black" stroke-width="0.486268"/>
<path d="M31.6816 102.758H104.655V107.482H31.6816V102.758Z" fill="#B2B2B2" stroke="black" stroke-width="0.486268"/>
<path d="M31.6816 90.1562H104.655V94.8807H31.6816V90.1562Z" fill="#B2B2B2" stroke="black" stroke-width="0.486268"/>
<path d="M31.6816 78.3438H104.655V82.2808H31.6816V78.3438Z" fill="#B2B2B2" stroke="black" stroke-width="0.486268"/>
<path d="M31.6816 65.75H104.655V69.687H31.6816V65.75Z" fill="#B2B2B2" stroke="black" stroke-width="0.486268"/>
<path d="M31.6816 53.1484H104.655V57.8728H31.6816V53.1484Z" fill="#B2B2B2" stroke="black" stroke-width="0.486268"/>
<path d="M31.6816 40.5547H104.655V45.2791H31.6816V40.5547Z" fill="#B2B2B2" stroke="black" stroke-width="0.486268"/>
<path d="M31.6816 27.9531H104.655V32.6775H31.6816V27.9531Z" fill="#B2B2B2" stroke="black" stroke-width="0.486268"/>
<path d="M31.6816 15.3516H104.655V20.076H31.6816V15.3516Z" fill="#B2B2B2" stroke="black" stroke-width="0.486268"/>
<path d="M31.6816 3.54688H104.655V7.48388H31.6816V3.54688Z" fill="#B2B2B2" stroke="black" stroke-width="0.486268"/>
<path d="M31.6816 127.953H104.655V132.678H31.6816V127.953Z" fill="#B2B2B2" stroke="black" stroke-width="0.486268"/>
</g>
<defs>
<clipPath id="clip0_2109_210984">
<rect width="150" height="150" fill="white"/>
</clipPath>
</defs>
</svg>
