<svg width="150" height="150" viewBox="0 0 150 150" fill="none" xmlns="http://www.w3.org/2000/svg">
<g clip-path="url(#clip0_2109_211661)">
<path d="M133.483 69.0547H150V80.5636H133.483V69.0547Z" fill="#999999" stroke="black" stroke-width="0.48001"/>
<path d="M133.634 71.7422H150V77.8803H133.634V71.7422Z" fill="#CCCCCC"/>
<path d="M134.384 63.6828V85.5499L128.078 101.662H121.771V47.5703H128.078L134.384 63.6828Z" fill="#7F7F7F"/>
<path d="M134.384 66.7503V68.6685V70.5866V72.5048V78.2593V82.4792L132.883 85.1646L131.231 87.8501L129.73 90.5355L128.979 92.07L128.078 93.6045H127.327H125.826H123.423H122.673H121.922V91.3027V86.3155V81.712V65.2158V60.2286V55.625H122.673H123.423H124.324H126.577H128.078L129.73 58.3104L131.231 60.9958L132.883 64.0649L134.384 66.7503Z" fill="#A6A6A6"/>
<path d="M134.384 70.2014V79.025L128.078 85.5467H121.771V63.6797H128.078L134.384 70.2014Z" fill="#CCCCCC"/>
<path d="M134.384 63.6828V85.5499L128.078 101.662H121.771V47.5703H128.078L134.384 63.6828Z" stroke="black" stroke-width="0.48001"/>
<path d="M6.15625 9.59375H24.925V139.645H6.15625V9.59375Z" fill="#7F7F7F"/>
<path d="M6.15625 23.3984H9.75985H10.9611H12.1623H20.2704H22.6728H24.925V42.58L25.0752 45.6491V49.1018V103.194L24.925 109.716V122.375V125.444H23.874H21.4716H19.0692H10.9611H8.55865H7.35745H6.15625V122.375V106.263L6.3064 100.125V45.6491L6.15625 39.511V23.3984Z" fill="#999999"/>
<path d="M6.15625 37.5938H9.75985H10.9611H12.1623H20.2704H22.6728H24.925V51.4045L25.0752 56.0081V60.6117V92.8367L24.925 97.4403V107.031V111.635H23.874H21.4716L19.0692 111.251H10.9611L8.55865 111.635H7.35745H6.15625V107.031V97.4403L6.3064 92.8367V56.0081L6.15625 51.4045V37.5938Z" fill="#B2B2B2"/>
<path d="M6.15625 51.7891H24.925V97.8249H6.15625V51.7891Z" fill="#CCCCCC"/>
<path d="M6.15625 9.59375H24.925V139.645H6.15625V9.59375Z" stroke="black" stroke-width="0.48001"/>
<path d="M25.2254 3.07031H123.424L124.024 3.45394L125.225 9.59205V139.26L124.024 145.398L123.424 145.781H25.2254L24.4746 145.398L23.2734 139.26V9.59205L24.4746 3.45394L25.2254 3.07031Z" fill="#7F7F7F"/>
<path d="M25.2254 19.1805H43.6939L46.6969 18.7969H49.85H101.952L108.108 19.1805H123.424L125.376 30.3058V42.9657V46.0347V49.1038V102.812V115.472L125.225 126.981L123.724 129.283L123.424 129.666H120.421H104.955L98.9491 129.283H46.6969L40.5407 129.666H25.2254L23.4236 125.83L23.2734 124.679V121.61V105.881L23.4236 93.2214V46.0347L23.2734 33.3749L23.4236 22.2496L25.2254 19.1805Z" fill="#999999"/>
<path d="M25.2254 35.2969H43.6939H46.847H49.85H101.952H108.108H123.424L124.775 36.4478L125.225 37.5987L125.376 52.1767V56.3966V61.0002V92.0744V105.501L125.225 111.64L123.874 113.558H123.424H120.421H105.105H98.9491H46.847H40.6909H25.2254L24.1743 113.174L23.4236 111.64V110.872L23.2734 110.105V105.501L23.4236 92.0744V56.3966L23.2734 43.3531L23.4236 37.5987L25.2254 35.2969Z" fill="#B2B2B2"/>
<path d="M25.2254 51.7891H123.424L125.376 53.7072V95.5231L123.874 97.8249H24.7749L23.2734 95.5231V53.7072L25.2254 51.7891Z" fill="#CCCCCC"/>
<path d="M25.2254 3.07031H123.424L124.024 3.45394L125.225 9.59205V139.26L124.024 145.398L123.424 145.781H25.2254L24.4746 145.398L23.2734 139.26V9.59205L24.4746 3.45394L25.2254 3.07031Z" stroke="black" stroke-width="0.48001"/>
<path d="M69.6699 150H118.619V142.711H69.6699V150Z" fill="black" stroke="black" stroke-width="0.48001"/>
<path d="M14.4141 23.7891H129.429V28.7763H14.4141V23.7891Z" fill="#B2B2B2" stroke="black" stroke-width="0.48001"/>
<path d="M14.4141 133.5H129.429V138.487H14.4141V133.5Z" fill="#B2B2B2" stroke="black" stroke-width="0.48001"/>
<path d="M120.871 19.9453H127.177V32.9888H120.871V19.9453Z" fill="#F0F0F0" stroke="black" stroke-width="0.48001"/>
<path d="M120.871 129.664H127.177V142.708H120.871V129.664Z" fill="#B2B2B2" stroke="black" stroke-width="0.48001"/>
<path d="M16.9668 19.9453H23.2731V32.9888H16.9668V19.9453Z" fill="#F0F0F0" stroke="black" stroke-width="0.48001"/>
<path d="M16.9668 129.664H23.2731V142.708H16.9668V129.664Z" fill="#B2B2B2" stroke="black" stroke-width="0.48001"/>
<path d="M2.25225 0H7.05706V13.4271V28.7724V40.665V88.6189L6.90691 102.43V149.616H2.25225L0 143.862V5.75448L2.25225 0Z" fill="#7F7F7F"/>
<path d="M9.00933 50.6406H60.5108L62.7631 56.3951V120.078L60.5108 125.832H9.00933L6.90723 120.078V56.3951L9.00933 50.6406Z" fill="#E0E0E0" stroke="black" stroke-width="0.48001"/>
<path d="M10.6609 53.7109L12.0123 55.2455L12.6129 58.6981L12.4627 60.2327L11.4117 62.5345L10.6609 62.9181L9.30958 61.7672L8.85913 60.2327L8.70898 58.6981L9.30958 55.2455L10.6609 53.7109Z" fill="#F0F0F0" stroke="black" stroke-width="0.48001"/>
<path d="M9.00879 55.625L12.1619 60.9958" stroke="black" stroke-width="0.48001"/>
<path d="M10.6609 112.789L12.0123 113.94L12.4627 115.091L12.6129 117.009L12.0123 120.462L10.6609 121.613L9.30958 120.462L8.70898 117.009L8.85913 115.091L9.91019 113.173L10.6609 112.789Z" fill="#F0F0F0" stroke="black" stroke-width="0.48001"/>
<path d="M9.00879 114.32L12.1619 120.075" stroke="black" stroke-width="0.48001"/>
<path d="M59.3099 62.5336C60.222 62.5336 60.9615 60.6443 60.9615 58.3137C60.9615 55.9831 60.222 54.0938 59.3099 54.0938C58.3977 54.0938 57.6582 55.9831 57.6582 58.3137C57.6582 60.6443 58.3977 62.5336 59.3099 62.5336Z" fill="#F0F0F0" stroke="black" stroke-width="0.48001"/>
<path d="M57.958 55.625L60.8109 60.9958" stroke="black" stroke-width="0.48001"/>
<path d="M59.3099 121.229C60.222 121.229 60.9615 119.34 60.9615 117.009C60.9615 114.678 60.222 112.789 59.3099 112.789C58.3977 112.789 57.6582 114.678 57.6582 117.009C57.6582 119.34 58.3977 121.229 59.3099 121.229Z" fill="#F0F0F0" stroke="black" stroke-width="0.48001"/>
<path d="M57.958 114.32L60.8109 120.075" stroke="black" stroke-width="0.48001"/>
<path d="M2.25225 16.8828H2.85285H3.45345H4.2042H6.60661H7.20721V17.2664L7.05706 31.0772V43.737V85.1693V100.898V131.589V131.972H6.45646H1.8018L0 128.52V127.752V124.3V107.804V94.3764V44.5043V31.4608L0.15015 19.5682L0.600601 18.0337L2.25225 16.8828Z" fill="#999999"/>
<path d="M2.25225 34.1406H2.85285H3.45345H4.2042H6.00601H6.60661H7.20721V35.2915L7.05706 37.5933V52.9386V59.8439V102.427V107.414V113.936V115.087H6.45646L4.65465 114.703L2.85285 115.087L1.35135 114.703L0.15015 113.169L0 112.401V111.634V107.031V97.8235V93.2199V56.0076V51.4041V37.2097L0.900901 34.9079L2.25225 34.1406Z" fill="#B2B2B2"/>
<path d="M2.25225 51.7891H7.05706V56.009V62.1471V66.3671V90.5359L6.90691 95.9067V97.8249H1.8018L0.3003 97.0576L0 96.2903V95.9067V53.3236V52.94L1.35135 51.7891H2.25225Z" fill="#CCCCCC"/>
<path d="M2.25225 0H6.90691V149.616H2.25225L0 143.862V5.75448L2.25225 0Z" stroke="black" stroke-width="0.48001"/>
</g>
<defs>
<clipPath id="clip0_2109_211661">
<rect width="150" height="150" fill="white"/>
</clipPath>
</defs>
</svg>
