<svg width="150" height="150" viewBox="0 0 150 150" fill="none" xmlns="http://www.w3.org/2000/svg">
<g clip-path="url(#clip0_2109_211419)">
<path d="M149.399 58.625H114.414V77.8911H149.399V58.625Z" fill="#7F7F7F"/>
<path d="M149.099 60.2734H114.414V74.3101H149.099V60.2734Z" fill="#B2B2B2"/>
<path d="M149.099 62.2031H114.414V69.6343H149.099V62.2031Z" fill="#E0E0E0"/>
<path d="M149.099 62.75H114.414V64.9518H149.099V62.75Z" fill="#F0F0F0"/>
<path d="M109.61 131.559L113.063 129.632L114.114 124.403V11.8339L113.063 6.6045L109.61 4.95312H18.9192L16.667 67.9806L19.2195 131.559H109.61Z" fill="#7F7F7F" stroke="black" stroke-width="0.406575"/>
<path d="M19.2192 0.828125L18.9189 12.3878H109.61L111.562 10.1859L108.108 2.4795L105.856 0.828125H19.2192Z" fill="#E5E5E5" stroke="black" stroke-width="0.406575"/>
<path d="M18.919 13.7578L18.3184 24.767H111.261L111.562 21.7395L109.61 15.9596L105.405 13.7578H18.919Z" fill="#E5E5E5" stroke="black" stroke-width="0.406575"/>
<path d="M18.3179 26.9688L18.0176 35.2256H111.261L111.561 34.1247L105.855 26.9688H18.3179Z" fill="#D1D1D1" stroke="black" stroke-width="0.406575"/>
<path d="M17.5679 39.9062L17.2676 48.1631H111.262L111.562 46.2365L105.406 39.9062H17.5679Z" fill="#D1D1D1" stroke="black" stroke-width="0.406575"/>
<path d="M17.2671 52.8438L16.9668 59.174H110.51L111.561 57.5226L105.405 52.8438H17.2671Z" fill="#D1D1D1" stroke="black" stroke-width="0.406575"/>
<path d="M16.9673 70.1867L16.667 67.9849L16.9673 65.5078H105.856L112.162 70.1867H110.511H16.9673Z" fill="#B2B2B2" stroke="black" stroke-width="0.406575"/>
<path d="M17.2676 77.3359V84.2167H111.262L111.562 83.1158L105.406 77.3359H17.2676Z" fill="#B2B2B2" stroke="black" stroke-width="0.406575"/>
<path d="M17.5674 88.3516L18.0178 97.1589H110.51L111.261 95.7828L105.405 88.3516H17.5674Z" fill="#B2B2B2" stroke="black" stroke-width="0.406575"/>
<path d="M18.0176 101.281L18.3179 110.364H110.51L111.561 108.712L105.405 101.281H18.0176Z" fill="#B2B2B2" stroke="black" stroke-width="0.406575"/>
<path d="M18.6182 112.297L18.9185 123.306H110.51L111.561 120.279L105.405 112.297H18.6182Z" fill="#B2B2B2" stroke="black" stroke-width="0.406575"/>
<path d="M19.5199 1.92969H13.2136L8.7091 4.40675L4.65505 10.737L3.9043 12.3884H19.2196L19.5199 1.92969Z" fill="#7F7F7F"/>
<path d="M2.10254 115.047L4.95539 123.854L8.70915 130.46L13.2136 132.662H19.52L18.9194 115.047H2.10254Z" fill="#7F7F7F"/>
<path d="M3.90411 12.3828L1.65186 20.0892L1.35156 23.6672H18.9191L19.2194 12.3828H3.90411Z" fill="#B2B2B2"/>
<path d="M0.750977 94.125V102.932L1.65188 114.492L2.10233 115.042H18.9191L18.6188 94.125H0.750977Z" fill="#B2B2B2"/>
<path d="M1.35158 23.6719L0.750977 31.6535V36.3324H18.6188L18.9191 23.6719H1.35158Z" fill="#E5E5E5"/>
<path d="M0.750977 66.0583V52.2969H18.3185L18.0182 66.0583H0.750977Z" fill="#E5E5E5"/>
<path d="M0.750977 52.2914V36.3281H18.6188L18.3185 52.2914H0.750977Z" fill="#F0F0F0"/>
<path d="M0.750977 66.0547V67.9813V80.6418H18.3185L18.0182 67.9813V66.0547H0.750977Z" fill="#E0E0E0"/>
<path d="M0.750977 94.1269V80.6406H18.3185L18.6188 94.1269H0.750977Z" fill="#CCCCCC"/>
<path d="M19.5193 1.92969H13.213L8.70845 4.40675L4.6544 10.737L1.6514 20.6453L0.450195 32.2049V67.4343L0.750496 102.939L2.10185 114.498L4.9547 124.407L8.70845 131.012L13.213 133.214H19.5193L18.0178 67.4343L19.5193 1.92969Z" stroke="black" stroke-width="0.406575"/>
<path d="M36.3367 140.366V111.742H40.8412V140.366H80.9313V111.742H85.4358V140.366H105.856V148.898H16.0664V140.366H36.3367Z" fill="#7F7F7F" stroke="black" stroke-width="0.406575"/>
</g>
<defs>
<clipPath id="clip0_2109_211419">
<rect width="150" height="150" fill="white"/>
</clipPath>
</defs>
</svg>
