<svg width="150" height="150" viewBox="0 0 150 150" fill="none" xmlns="http://www.w3.org/2000/svg">
<g clip-path="url(#clip0_2109_211080)">
<path d="M126.576 2.64844H128.078V143.513H126.576V2.64844Z" fill="#666666" stroke="black" stroke-width="0.420707"/>
<path d="M18.7688 2.64844H18.3183H17.7177H16.967L11.8619 3.23783L7.20721 4.41661L3.15315 6.77417L0.15015 12.9628L0 14.1416V15.3203V18.8567V137.619L1.95195 144.692L6.30631 148.228L10.8108 149.407L15.4655 149.996H16.2162H16.967H112.462V143.513H117.117L121.922 142.334L124.925 138.798L125.075 137.619V133.788V15.3203L121.021 9.42643L115.916 8.83704H112.462V2.64844H18.7688Z" fill="#666666"/>
<path d="M18.7688 12.0859H18.3183H17.7177H16.967L11.8619 12.3806L7.20721 13.5594L3.15315 15.6223L0 21.8109V22.695V26.2313V129.964L2.55255 136.742L7.05706 139.394L11.7117 140.278L15.4655 140.573H16.2162H16.967H112.462V135.269H117.117L121.922 134.385L124.925 130.848L125.075 129.964V126.722V22.695L121.021 18.2745L115.916 17.6852H112.462V12.0859H18.7688Z" fill="#7F7F7F"/>
<path d="M18.7688 38.0156H18.3183H17.7177H16.967L11.8619 38.3103L7.20721 38.8997L2.55255 40.3732L0 43.9095V44.4989V46.5618V108.153L3.6036 112.868L8.55856 114.047L13.2132 114.636H14.7147H15.4655H16.2162H112.462V111.689H117.117L121.922 111.1L124.925 108.743L125.075 108.153V106.09V44.4989L124.925 43.9095L121.021 41.552L115.916 40.9626H112.462V38.0156H18.7688Z" fill="#999999"/>
<path d="M18.7688 62.1797H18.3183H17.7177H16.967L11.8619 62.4744H7.20721L2.55255 63.0638L0 64.5373V66.0107V88.1129V88.4076L4.2042 89.5864L9.30931 89.8811H13.2132H13.964H14.7147H112.462V89.2917H117.117L121.922 88.997L124.925 88.4076L125.075 88.1129V86.6394V64.5373H124.925L120.12 63.6532L114.715 63.3585H112.462V62.1797H18.7688Z" fill="#B2B2B2"/>
<path d="M18.7688 2.64844H18.3183H17.7177H16.967L11.8619 3.23783L7.20721 4.41661L3.15315 6.77417L0.15015 12.9628L0 14.1416V15.3203V18.8567V137.619L1.95195 144.692L6.30631 148.228L10.8108 149.407L15.4655 149.996H16.2162H16.967H112.462V143.513H117.117L121.922 142.334L124.925 138.798L125.075 137.619V133.788V15.3203L121.021 9.42643L115.916 8.83704H112.462V2.64844H18.7688Z" stroke="black" stroke-width="0.420707"/>
<path d="M18.7686 149.996V2.64844" stroke="black" stroke-width="0.420707"/>
<path d="M112.463 8.84375V143.52" stroke="black" stroke-width="0.420707"/>
<path d="M125.075 69.8438H150V82.221H125.075V69.8438Z" fill="#7F7F7F"/>
<path d="M125.075 72.2031H150V80.4546H125.075V72.2031Z" fill="#B2B2B2"/>
<path d="M125.075 74.5547H150V78.091H125.075V74.5547Z" fill="white"/>
<path d="M125.075 69.8438H150V82.221H125.075V69.8438Z" stroke="black" stroke-width="0.420707"/>
<path d="M18.7686 20.9219H112.462V26.8158H18.7686V20.9219Z" fill="#4C4C4C" stroke="black" stroke-width="0.420707"/>
<path d="M18.7686 33.2969H112.462V39.1908H18.7686V33.2969Z" fill="#4C4C4C" stroke="black" stroke-width="0.420707"/>
<path d="M18.7686 45.6797H112.462V51.5736H18.7686V45.6797Z" fill="#4C4C4C" stroke="black" stroke-width="0.420707"/>
<path d="M18.7686 58.0547H112.462V63.9486H18.7686V58.0547Z" fill="#4C4C4C" stroke="black" stroke-width="0.420707"/>
<path d="M18.7686 69.8438H112.462V76.3271H18.7686V69.8438Z" fill="#4C4C4C" stroke="black" stroke-width="0.420707"/>
<path d="M18.7686 82.2188H112.462V88.7021H18.7686V82.2188Z" fill="#4C4C4C" stroke="black" stroke-width="0.420707"/>
<path d="M18.7686 94.5938H112.462V100.488H18.7686V94.5938Z" fill="#4C4C4C" stroke="black" stroke-width="0.420707"/>
<path d="M18.7686 106.977H112.462V112.87H18.7686V106.977Z" fill="#4C4C4C" stroke="black" stroke-width="0.420707"/>
<path d="M18.7686 119.352H112.462V125.245H18.7686V119.352Z" fill="#4C4C4C" stroke="black" stroke-width="0.420707"/>
<path d="M62.3125 63.9453H109.46V149.996H62.3125V63.9453Z" fill="#999999" stroke="black" stroke-width="0.420707"/>
<path d="M67.1172 73.3828H104.655V140.573H67.1172V73.3828Z" fill="#B2B2B2" stroke="black" stroke-width="0.420707"/>
<path d="M67.1172 140.573V73.3828H104.655" stroke="white" stroke-width="0.420707"/>
<path d="M24.7744 20.9196H34.384V2.64844H24.7744V20.9196Z" fill="#B2B2B2" stroke="black" stroke-width="0.420707"/>
<path d="M29.5792 17.6784C31.2377 17.6784 32.5822 15.0397 32.5822 11.7845C32.5822 8.52942 31.2377 5.89062 29.5792 5.89062C27.9207 5.89062 26.5762 8.52942 26.5762 11.7845C26.5762 15.0397 27.9207 17.6784 29.5792 17.6784Z" fill="#333333" stroke="black" stroke-width="0.420707"/>
<path d="M37.3877 0H109.46V15.3242H37.3877V0Z" fill="#999999" stroke="black" stroke-width="0.420707"/>
<path d="M18.7687 116.401L13.9639 112.865V101.077L18.7687 94.5938V116.401Z" fill="#4C4C4C" stroke="black" stroke-width="0.420707"/>
</g>
<defs>
<clipPath id="clip0_2109_211080">
<rect width="150" height="150" fill="white"/>
</clipPath>
</defs>
</svg>
