<svg width="150" height="150" viewBox="0 0 150 150" fill="none" xmlns="http://www.w3.org/2000/svg">
<g clip-path="url(#clip0_2109_211797)">
<path d="M87.6881 3.11719V112.002L21.6221 112.569V3.11719H87.6881Z" fill="#217F21" stroke="black" stroke-width="0.412677"/>
<path d="M74.0244 141.492H126.877V149.432H74.0244V141.492Z" fill="#43A143" stroke="black" stroke-width="0.412677"/>
<path d="M100.751 0.570312H105.556V141.497H100.751V0.570312Z" fill="#43A143" stroke="black" stroke-width="0.412677"/>
<path d="M125.676 10.7734H105.556V141.492H125.676V10.7734Z" fill="#43A143" stroke="black" stroke-width="0.412677"/>
<path d="M125.226 14.4609H128.229V98.1093H125.226V14.4609Z" fill="#43A143" stroke="black" stroke-width="0.412677"/>
<path d="M131.382 26.3714L128.229 22.9688V90.171L131.382 86.2013V26.3714Z" fill="#43A143" stroke="black" stroke-width="0.412677"/>
<path d="M1.95243 3.6875H21.3218V100.663H1.05153L0.601082 90.1714L0.300781 79.3964V68.0542V58.4134V43.385L0.601082 27.7896L1.35183 13.3283L1.95243 3.6875Z" fill="#43A143" stroke="black" stroke-width="0.412677"/>
<path d="M87.6881 30.6219V3.11719H21.6221V30.6219H87.6881Z" fill="#43A143" stroke="black" stroke-width="0.412677"/>
<path d="M87.6875 0.570312V112.007H100.751V0.570312H87.6875Z" fill="#43A143"/>
<path d="M100.751 0.570312H87.6875V112.007H100.751V0.570312Z" stroke="black" stroke-width="0.412677"/>
<path d="M87.6881 10.7734H21.6221" stroke="black" stroke-width="0.412677"/>
<path d="M87.6881 12.7578H21.6221" stroke="black" stroke-width="0.412677"/>
<path d="M87.6881 24.1016H21.6221" stroke="black" stroke-width="0.412677"/>
<path d="M87.6881 25.2344H21.6221" stroke="black" stroke-width="0.412677"/>
<path d="M87.6881 37.4297H21.6221" stroke="black" stroke-width="0.412677"/>
<path d="M87.6881 38H21.6221" stroke="black" stroke-width="0.412677"/>
<path d="M87.6881 89.0391H21.6221" stroke="black" stroke-width="0.412677"/>
<path d="M87.6881 90.1719H21.6221" stroke="black" stroke-width="0.412677"/>
<path d="M87.6881 101.797H21.6221" stroke="black" stroke-width="0.412677"/>
<path d="M87.6881 103.5H21.6221" stroke="black" stroke-width="0.412677"/>
<path d="M87.6881 77.125H21.6221" stroke="black" stroke-width="0.412677"/>
<path d="M87.6881 76.5625H21.6221" stroke="black" stroke-width="0.412677"/>
<path d="M87.6881 63.7969H21.6221" stroke="black" stroke-width="0.412677"/>
<path d="M87.6881 63.7969H21.6221" stroke="black" stroke-width="0.412677"/>
<path d="M87.6881 51.3203H21.6221" stroke="black" stroke-width="0.412677"/>
<path d="M87.6881 50.4688H21.6221" stroke="black" stroke-width="0.412677"/>
<path d="M87.6881 27.2188H21.6221" stroke="white" stroke-width="0.412677"/>
<path d="M87.6881 39.1328H21.6221" stroke="white" stroke-width="0.412677"/>
<path d="M87.6881 51.3203H21.6221" stroke="white" stroke-width="0.412677"/>
<path d="M87.6881 15.0312H21.6221" stroke="white" stroke-width="0.412677"/>
<path d="M87.6881 63.2344H21.6221" stroke="white" stroke-width="0.412677"/>
<path d="M87.6881 75.1406H21.6221" stroke="white" stroke-width="0.412677"/>
<path d="M87.6881 87.3359H21.6221" stroke="white" stroke-width="0.412677"/>
<path d="M87.6881 99.2422H21.6221" stroke="white" stroke-width="0.412677"/>
<path d="M32.5823 56.7109H51.3511L53.3031 58.4123L54.204 62.6656V108.885L53.3031 113.138L51.3511 114.839H32.5823L30.3301 113.138L29.7295 108.885V62.6656L30.3301 58.4123L32.5823 56.7109Z" fill="#43A143" stroke="black" stroke-width="0.412677"/>
<path d="M1.95168 5.39062H21.3211V16.7328H1.05078L1.35108 10.211L1.95168 5.39062Z" fill="#82E082"/>
<path d="M125.676 15.5938H128.228V21.5484H125.676V15.5938Z" fill="#82E082"/>
<path d="M124.925 13.8906H105.556V22.9643H124.925V13.8906Z" fill="#82E082"/>
<path d="M100.15 2.55469H88.2881V15.0311H100.15V2.55469Z" fill="#82E082"/>
<path d="M101.051 3.6875H105.255V13.8954H101.051V3.6875Z" fill="#82E082"/>
<path d="M99.8501 99.2422H87.9883V112.002H99.8501V99.2422Z" fill="#005E00" stroke="black" stroke-width="0.412677"/>
<path d="M21.321 3.6848H2.25195V1.13281H21.321V3.6848Z" fill="#005E00" stroke="black" stroke-width="0.412677"/>
<path d="M1.05078 100.664H21.3211V114.842H2.25198L1.35108 106.619L1.05078 100.664Z" fill="#005E00" stroke="black" stroke-width="0.412677"/>
<path d="M125.676 89.0391H128.228V98.1128H125.676V89.0391Z" fill="#005E00" stroke="black" stroke-width="0.412677"/>
<path d="M105.556 8.50781H108.108V10.7762H105.556V8.50781Z" fill="#7F7F7F" stroke="black" stroke-width="0.412677"/>
<path d="M128.528 19.8516H129.73V20.9858H128.528V19.8516Z" fill="#7F7F7F" stroke="black" stroke-width="0.412677"/>
<path d="M128.528 83.0781H129.73V84.2123H128.528V83.0781Z" fill="#7F7F7F" stroke="black" stroke-width="0.412677"/>
<path d="M105.556 99.2422H108.108V101.794H105.556V99.2422Z" fill="#7F7F7F" stroke="black" stroke-width="0.412677"/>
<path d="M128.528 50.4688H129.73V52.4536H128.528V50.4688Z" fill="#7F7F7F" stroke="black" stroke-width="0.412677"/>
<path d="M105.556 54.7266H108.108V57.2785H105.556V54.7266Z" fill="#7F7F7F" stroke="black" stroke-width="0.412677"/>
<path d="M131.682 43.3828H149.55V66.9178H131.682V43.3828Z" fill="#B2B2B2" stroke="black" stroke-width="0.412677"/>
<path d="M105.556 8.50331H108.108V4.25H105.556V8.50331Z" fill="#B2B2B2" stroke="black" stroke-width="0.412677"/>
<path d="M128.528 19.8466H129.73V17.5781H128.528V19.8466Z" fill="#B2B2B2" stroke="black" stroke-width="0.412677"/>
<path d="M128.528 83.0809H129.73V80.8125H128.528V83.0809Z" fill="#B2B2B2" stroke="black" stroke-width="0.412677"/>
<path d="M105.556 99.2455H108.108V94.9922H105.556V99.2455Z" fill="#B2B2B2" stroke="black" stroke-width="0.412677"/>
<path d="M128.528 50.4716H129.73V48.2031H128.528V50.4716Z" fill="#B2B2B2" stroke="black" stroke-width="0.412677"/>
<path d="M105.556 54.7221H108.108V50.4688H105.556V54.7221Z" fill="#B2B2B2" stroke="black" stroke-width="0.412677"/>
<path d="M131.381 44.5156H149.249V62.6631H131.381V44.5156Z" fill="#F0F0F0"/>
<path d="M128.528 16.1641H129.73V17.5818H128.528V16.1641Z" fill="#F0F0F0"/>
<path d="M128.528 47.0703H129.73V48.2045H128.528V47.0703Z" fill="#F0F0F0"/>
<path d="M105.556 48.2031H108.108V50.4716H105.556V48.2031Z" fill="#F0F0F0"/>
<path d="M128.528 79.3984H129.73V80.8162H128.528V79.3984Z" fill="#F0F0F0"/>
<path d="M105.556 93.2891H108.108V94.9904H105.556V93.2891Z" fill="#F0F0F0"/>
<path d="M105.556 2.55469H108.108V4.25601H105.556V2.55469Z" fill="#F0F0F0"/>
<path d="M131.381 45.6484H149.249V49.3346H131.381V45.6484Z" fill="white"/>
</g>
<defs>
<clipPath id="clip0_2109_211797">
<rect width="150" height="150" fill="white"/>
</clipPath>
</defs>
</svg>
