<svg width="150" height="150" viewBox="0 0 150 150" fill="none" xmlns="http://www.w3.org/2000/svg">
<g clip-path="url(#clip0_2109_210947)">
<path d="M150 65.2891H110.661V81.8496H150V65.2891Z" fill="#4C7F7F"/>
<path d="M150 66.5625H110.661V80.5752H150V66.5625Z" fill="#669999"/>
<path d="M150 69.7422H110.661V77.3855H150V69.7422Z" fill="#7FB2B2"/>
<path d="M150 72.2969H110.661V74.2077H150V72.2969Z" fill="#99CCCC"/>
<path d="M150 65.2891H110.661V81.8496H150V65.2891Z" stroke="black" stroke-width="0.437349"/>
<path d="M120.871 57.0078H115.766V89.4919H120.871V57.0078Z" fill="#4C7F7F"/>
<path d="M120.871 60.1875H115.766V86.9391H120.871V60.1875Z" fill="#669999"/>
<path d="M120.871 65.9219H115.766V81.2085H120.871V65.9219Z" fill="#7FB2B2"/>
<path d="M120.871 71.0156H115.766V75.4742H120.871V71.0156Z" fill="#99CCCC"/>
<path d="M120.871 57.0078H115.766V89.4919H120.871V57.0078Z" stroke="black" stroke-width="0.437349"/>
<path d="M7.35736 146.819H82.7327L88.1381 136.628V11.4687L82.7327 0.640625H81.6817H80.3303H7.35736L3.6036 4.78075L1.05105 12.1056L0 19.7489V21.6597V25.4814V125.8L0.900901 135.354L3.45345 142.997L6.75676 146.819H7.35736Z" fill="#4C7F7F"/>
<path d="M7.35736 133.442L82.7327 134.079L88.1381 123.251V21.6589L82.7327 14.0156H81.6817H80.3303H7.35736L3.6036 17.2003L0.750751 24.8437L0 29.6207V30.8946V34.0793V116.245L1.35135 125.799L4.8048 132.168L7.35736 133.442Z" fill="#669999"/>
<path d="M7.35736 115.605H82.7327L88.1381 107.962V37.5799L82.7327 32.4844H81.6817H80.3303H7.35736L3.003 35.0321L0 42.6755V43.6309V45.8602V103.503L1.8018 111.147L5.40541 114.968L6.75676 115.605H7.35736Z" fill="#7FB2B2"/>
<path d="M7.35736 94.5851H82.7327L88.1381 89.4896V57.6424L82.7327 52.5469H81.6817H80.3303H7.35736L3.003 54.1392L0 58.2794V58.9163V61.1456V88.8526V89.4896L3.45345 93.6297L6.75676 94.5851H7.35736Z" fill="#99CCCC"/>
<path d="M7.35736 146.819H82.7327L88.1381 136.628V11.4687L82.7327 0.640625H81.6817H80.3303H7.35736L3.6036 4.78075L1.05105 12.1056L0 19.7489V21.6597V25.4814V125.8L0.900901 135.354L3.45345 142.997L6.75676 146.819H7.35736Z" stroke="black" stroke-width="0.437349"/>
<path d="M89.0388 143.314C105.624 143.314 119.069 112.231 119.069 73.8877C119.069 35.5444 105.624 4.46094 89.0388 4.46094C72.4537 4.46094 59.0088 35.5444 59.0088 73.8877C59.0088 112.231 72.4537 143.314 89.0388 143.314Z" fill="#4C7F7F" stroke="black" stroke-width="0.437349"/>
<path d="M89.0388 129.618C105.624 129.618 119.069 104.523 119.069 73.5666C119.069 42.6105 105.624 17.5156 89.0388 17.5156C72.4537 17.5156 59.0088 42.6105 59.0088 73.5666C59.0088 104.523 72.4537 129.618 89.0388 129.618Z" fill="#669999"/>
<path d="M89.0388 106.054C105.624 106.054 119.069 91.5105 119.069 73.57C119.069 55.6296 105.624 41.0859 89.0388 41.0859C72.4537 41.0859 59.0088 55.6296 59.0088 73.57C59.0088 91.5105 72.4537 106.054 89.0388 106.054Z" fill="#7FB2B2"/>
<path d="M89.0388 83.1198C105.624 83.1198 119.069 78.9848 119.069 73.8841C119.069 68.7834 105.624 64.6484 89.0388 64.6484C72.4537 64.6484 59.0088 68.7834 59.0088 73.8841C59.0088 78.9848 72.4537 83.1198 89.0388 83.1198Z" fill="#99CCCC"/>
<path d="M21.4717 2.22656H89.0392V132.163H21.4717V2.22656Z" fill="#194C4C" stroke="black" stroke-width="0.437349"/>
<path d="M21.4717 129.617H89.0392V148.089H21.4717V129.617Z" fill="#336666" stroke="black" stroke-width="0.437349"/>
<path d="M21.4717 113.695H92.9432V118.154H21.4717V113.695Z" fill="#7FB2B2" stroke="black" stroke-width="0.437349"/>
<path d="M21.4717 100.953H92.9432V105.412H21.4717V100.953Z" fill="#7FB2B2" stroke="black" stroke-width="0.437349"/>
<path d="M21.4717 88.2188H92.9432V92.6773H21.4717V88.2188Z" fill="#7FB2B2" stroke="black" stroke-width="0.437349"/>
<path d="M21.4717 75.4766H92.9432V79.9352H21.4717V75.4766Z" fill="#99CCCC" stroke="black" stroke-width="0.437349"/>
<path d="M21.4717 62.7422H92.9432V67.2008H21.4717V62.7422Z" fill="#99CCCC" stroke="black" stroke-width="0.437349"/>
<path d="M21.4717 50H92.9432V54.4586H21.4717V50Z" fill="#99CCCC" stroke="black" stroke-width="0.437349"/>
<path d="M21.4717 37.5781H92.9432V41.7183H21.4717V37.5781Z" fill="#99CCCC" stroke="black" stroke-width="0.437349"/>
<path d="M21.4717 24.8438H92.9432V28.9839H21.4717V24.8438Z" fill="#99CCCC" stroke="black" stroke-width="0.437349"/>
<path d="M21.4717 12.1016H92.9432V16.5602H21.4717V12.1016Z" fill="#99CCCC" stroke="black" stroke-width="0.437349"/>
<path d="M21.4717 0H92.9432V4.4586H21.4717V0Z" fill="#99CCCC" stroke="black" stroke-width="0.437349"/>
<path d="M21.4717 126.43H92.9432V130.888H21.4717V126.43Z" fill="#7FB2B2" stroke="black" stroke-width="0.437349"/>
<path d="M31.3818 149.998H66.8173V45.5391H31.3818V149.998Z" fill="#669999" stroke="black" stroke-width="0.437349"/>
<path d="M35.2852 143.629V53.8203H62.9128" stroke="white" stroke-width="0.437349"/>
</g>
<defs>
<clipPath id="clip0_2109_210947">
<rect width="150" height="150" fill="white"/>
</clipPath>
</defs>
</svg>
