<svg width="150" height="150" viewBox="0 0 150 150" fill="none" xmlns="http://www.w3.org/2000/svg">
<g clip-path="url(#clip0_2109_211038)">
<path d="M0 133.239V23.1697L4.65465 19.8594H14.4144L16.8168 23.1697V133.239L12.012 136.549H4.65465L0 133.239Z" fill="#7F7F7F" stroke="black" stroke-width="0.352508"/>
<path d="M0 133.239V109.859H16.8168V133.239L12.012 136.549H4.65465L0 133.239Z" fill="black" stroke="black" stroke-width="0.352508"/>
<path d="M0 53.1697V23.1697L4.65465 19.8594H14.4144L16.8168 23.1697V53.1697H0Z" fill="white" stroke="black" stroke-width="0.352508"/>
<path d="M8.40841 69.7228C13.0522 69.7228 16.8168 63.0534 16.8168 54.8262C16.8168 46.5991 13.0522 39.9297 8.40841 39.9297C3.76457 39.9297 0 46.5991 0 54.8262C0 63.0534 3.76457 69.7228 8.40841 69.7228Z" fill="white" stroke="black" stroke-width="0.352508"/>
<path d="M8.25796 66.4146C11.575 66.4146 14.264 61.2273 14.264 54.8284C14.264 48.4295 11.575 43.2422 8.25796 43.2422C4.94093 43.2422 2.25195 48.4295 2.25195 54.8284C2.25195 61.2273 4.94093 66.4146 8.25796 66.4146Z" fill="#FF0000" stroke="white" stroke-width="0.352508"/>
<path d="M7.20703 43.2422H9.60943V66.6215H7.20703V43.2422Z" fill="white" stroke="white" stroke-width="0.352508"/>
<path d="M11.8623 49.6562H15.7662V59.7942H11.8623V49.6562Z" fill="#FF0000" stroke="#FF0000" stroke-width="0.352508"/>
<path d="M16.8164 29.7969H128.228V129.935H16.8164V29.7969Z" fill="#7F7F7F" stroke="black" stroke-width="0.352508"/>
<path d="M28.9785 36.4133H99.0986L89.489 23.1719H38.5881L28.9785 36.4133Z" fill="#7F7F7F" stroke="black" stroke-width="0.352508"/>
<path d="M28.9785 46.3429H99.0986L89.489 33.1016H38.5881L28.9785 46.3429Z" fill="#7F7F7F" stroke="black" stroke-width="0.352508"/>
<path d="M28.9785 56.4836H99.0986L89.489 43.2422H38.5881L28.9785 56.4836Z" fill="#7F7F7F" stroke="black" stroke-width="0.352508"/>
<path d="M28.9785 63.1029H99.0986L89.489 53.1719H38.5881L28.9785 63.1029Z" fill="#7F7F7F" stroke="black" stroke-width="0.352508"/>
<path d="M111.261 79.6546C115.241 79.6546 118.468 73.7263 118.468 66.4133C118.468 59.1002 115.241 53.1719 111.261 53.1719C107.28 53.1719 104.054 59.1002 104.054 66.4133C104.054 73.7263 107.28 79.6546 111.261 79.6546Z" fill="white" stroke="black" stroke-width="0.352508"/>
<path d="M104.955 63.1016H117.267V69.9291H104.955V63.1016Z" fill="black" stroke="black" stroke-width="0.352508"/>
<path d="M106.456 66.6172H111.261" stroke="white" stroke-width="0.352508"/>
<path d="M108.859 59.7969H113.664" stroke="black" stroke-width="0.352508"/>
<path d="M62.7628 19.8621C65.4164 19.8621 67.5676 15.4158 67.5676 9.93103C67.5676 4.44628 65.4164 0 62.7628 0C60.1092 0 57.958 4.44628 57.958 9.93103C57.958 15.4158 60.1092 19.8621 62.7628 19.8621Z" fill="black" stroke="#7F7F7F" stroke-width="0.352508"/>
<path d="M62.9131 16.3429C64.24 16.3429 65.3155 13.3788 65.3155 9.72225C65.3155 6.06575 64.24 3.10156 62.9131 3.10156C61.5863 3.10156 60.5107 6.06575 60.5107 9.72225C60.5107 13.3788 61.5863 16.3429 62.9131 16.3429Z" fill="white" stroke="#7F7F7F" stroke-width="0.352508"/>
<path d="M60.3604 19.8594H65.3153V23.1697H60.3604V19.8594Z" fill="black" stroke="black" stroke-width="0.352508"/>
<path d="M16.8164 129.93H118.468V99.9297H16.8164V129.93Z" fill="black" stroke="black" stroke-width="0.352508"/>
<path d="M120.871 86.4844H125.826V129.933H120.871V86.4844Z" fill="black" stroke="black" stroke-width="0.352508"/>
<path d="M128.229 73.2422H150V83.1732H128.229V73.2422Z" fill="white" stroke="black" stroke-width="0.352508"/>
<path d="M128.229 83.1719H150V93.3098H128.229V83.1719Z" fill="#7F7F7F" stroke="black" stroke-width="0.352508"/>
<path d="M28.9785 149.997L31.3809 139.859H103.903L106.456 149.997H28.9785Z" fill="#7F7F7F" stroke="black" stroke-width="0.352508"/>
<path d="M38.5889 129.93H96.697V139.861H38.5889V129.93Z" fill="#7F7F7F" stroke="black" stroke-width="0.352508"/>
<path d="M55.5557 126.617H77.3274V139.859H55.5557V126.617Z" fill="#7F7F7F" stroke="black" stroke-width="0.352508"/>
<path d="M77.3276 126.617L78.3786 123.928L79.4297 120.824L80.1804 117.721L80.4807 116.066L80.9312 114.411L81.2315 112.755L81.5318 110.893L81.6819 109.031L81.8321 107.169L82.1324 103.652V101.79V99.9278V96.4106L81.8321 93.1002L81.5318 89.583L80.9312 86.2726L80.3306 83.1692L79.5798 80.0657L78.6789 76.9623L77.6279 74.0657L55.7059 73.0312L55.1053 74.2726L54.2044 76.9623L53.1534 80.0657L52.8531 81.7209L52.4026 83.3761L52.1023 85.0312L51.802 86.8933L51.5017 88.7554L51.2014 90.4106L51.0513 92.2726L50.9011 94.1347L50.751 95.9968V97.8588V99.9278V103.445L51.0513 107.169L51.2014 109.031L51.5017 110.686L51.802 112.548L52.4026 115.859L52.7029 117.514L53.4537 120.824L54.5047 123.721L54.9552 125.169L55.5558 126.617H77.3276Z" fill="#7F7F7F" stroke="black" stroke-width="0.352508"/>
<path d="M55.5557 126.621V73.2422" stroke="black" stroke-width="0.352508"/>
<path d="M77.3271 126.621V73.2422" stroke="black" stroke-width="0.352508"/>
<path d="M77.3271 101.383H84.6845" stroke="black" stroke-width="0.352508"/>
<path d="M84.6846 94.9688V108.21" stroke="black" stroke-width="0.352508"/>
<path d="M55.5551 101.383H48.498" stroke="black" stroke-width="0.352508"/>
<path d="M48.498 94.9688V108.21" stroke="black" stroke-width="0.352508"/>
<path d="M53.1533 94.9688V108.21" stroke="black" stroke-width="0.352508"/>
<path d="M79.7295 94.9688V108.21" stroke="black" stroke-width="0.352508"/>
<path d="M48.3486 99.9297V108.206" stroke="#7F7F7F" stroke-width="0.352508"/>
<path d="M48.3486 101.586H50.751" stroke="#7F7F7F" stroke-width="0.352508"/>
<path d="M84.6846 99.9297V108.206" stroke="#7F7F7F" stroke-width="0.352508"/>
<path d="M82.2822 101.586H84.6846" stroke="#7F7F7F" stroke-width="0.352508"/>
</g>
<defs>
<clipPath id="clip0_2109_211038">
<rect width="150" height="150" fill="white"/>
</clipPath>
</defs>
</svg>
