<svg width="150" height="150" viewBox="0 0 150 150" fill="none" xmlns="http://www.w3.org/2000/svg">
<g clip-path="url(#clip0_2109_211917)">
<path d="M145.5 41.0859H150V71.284H145.5V41.0859Z" fill="#7F7F7F" stroke="black" stroke-width="0.770752"/>
<path d="M0 48.5156H145.5V63.8622H0V48.5156Z" fill="#7F7F7F" stroke="black" stroke-width="0.770752"/>
<path d="M145.5 43.0703H150V69.3079H145.5V43.0703Z" fill="#999999"/>
<path d="M0 49.5078H145.5V62.8741H0V49.5078Z" fill="#999999"/>
<path d="M145.5 46.0391H150V66.3361H145.5V46.0391Z" fill="#B2B2B2"/>
<path d="M0 50.9922H145.5V61.3882H0V50.9922Z" fill="#B2B2B2"/>
<path d="M145.5 49.5078H150V62.8741H145.5V49.5078Z" fill="#CCCCCC"/>
<path d="M0 52.9688H145.5V59.4044H0V52.9688Z" fill="#CCCCCC"/>
<path d="M145.5 52.9688H150V59.4044H145.5V52.9688Z" fill="#E5E5E5"/>
<path d="M0 54.4531H145.5V57.9185H0V54.4531Z" fill="#E5E5E5"/>
<path d="M145.5 55.9375H150V56.9276H145.5V55.9375Z" fill="white"/>
<path d="M0 55.9375H145.5V56.4325H0V55.9375Z" fill="white"/>
<path d="M122.7 56.4356V112.376L126.3 111.386L129.6 107.921L132.9 102.97L135.6 96.0396L137.7 87.6238L139.5 78.2178L140.7 67.8218L141 56.4356L140.7 45.0495L139.5 34.6535L137.7 24.7525L135.6 16.3366L132.9 9.40594L129.6 4.45545L126.3 0.990099L122.7 0V56.4356Z" fill="#7F7F7F" stroke="black" stroke-width="0.770752"/>
<path d="M118.2 149.999H27.2998L44.3998 112.375H101.1L118.2 149.999Z" fill="#7F7F7F"/>
<path d="M22.7998 0.492188H122.7V112.373H22.7998V0.492188Z" fill="#7F7F7F"/>
<path d="M22.8 56.4356V112.376L19.2 111.386L15.6 107.921L12.6 102.97L9.9 96.0396L7.5 87.6238L6 78.2178L4.8 67.8218L4.5 56.4356L4.8 45.0495L6 34.6535L7.5 24.7525L9.9 16.3366L12.6 9.40594L15.6 4.45545L19.2 0.990099L22.8 0V56.4356Z" fill="#7F7F7F" stroke="black" stroke-width="0.770752"/>
<path d="M111 149.999H34.5L48.9 112.375H96.6L111 149.999Z" fill="#999999"/>
<path d="M122.7 56.4346V105.445L126.3 104.454L129.6 101.484L132.9 97.0287L135.6 91.0881L137.7 83.6624L139.5 75.2465L140.7 66.3356L141 56.4346L140.7 46.5336L139.5 37.1277L137.7 28.7119L135.6 21.2861L132.9 15.3455L129.6 10.8901L126.3 7.91979L122.7 6.92969V56.4346Z" fill="#999999"/>
<path d="M22.7998 7.42188H122.7V105.442H22.7998V7.42188Z" fill="#999999"/>
<path d="M22.8 56.4346V105.445L19.2 104.454L15.6 101.484L12.6 97.0287L9.9 91.0881L7.5 83.6624L6 75.2465L4.8 66.3356L4.5 56.4346L4.8 46.5336L6 37.1277L7.5 28.7119L9.9 21.2861L12.6 15.3455L15.6 10.8901L19.2 7.91979L22.8 6.92969V56.4346Z" fill="#999999"/>
<path d="M102.6 149.999H42.9004L54.0004 112.375H91.2004L102.6 149.999Z" fill="#B2B2B2"/>
<path d="M22.7998 17.8203H122.7V95.048H22.7998V17.8203Z" fill="#B2B2B2"/>
<path d="M122.7 56.437V95.0509L126.3 94.0608L129.6 92.0806L132.9 88.6153L135.6 83.6648L137.7 78.2192L139.5 71.2885L140.7 64.3578L141 56.437L140.7 48.5162L139.5 41.5856L137.7 34.6549L135.6 28.7143L132.9 24.2588L129.6 20.2984L126.3 18.3182L122.7 17.3281V56.437Z" fill="#B2B2B2"/>
<path d="M22.8 56.437V95.0509L19.2 94.0608L15.6 92.0806L12.6 88.6153L9.9 83.6648L7.5 78.2192L6 71.2885L4.8 64.3578L4.5 56.437L4.8 48.5162L6 41.5856L7.5 34.6549L9.9 28.7143L12.6 24.2588L15.6 20.2984L19.2 18.3182L22.8 17.3281V56.437Z" fill="#B2B2B2"/>
<path d="M91.1998 149.999H54.2998L61.1998 112.375H84.2998L91.1998 149.999Z" fill="#CCCCCC"/>
<path d="M122.7 56.4322V80.6896L126.3 80.1945L129.6 78.7094L132.9 76.7292L135.6 73.7589L137.7 69.7985L139.5 65.8381L140.7 61.3827L141 56.4322L140.7 51.4817L139.5 46.5312L137.7 42.5708L135.6 38.6104L132.9 35.6401L129.6 33.6599L126.3 32.1747L122.7 31.6797V56.4322Z" fill="#CCCCCC"/>
<path d="M22.7998 32.1797H122.7V80.6945H22.7998V32.1797Z" fill="#CCCCCC"/>
<path d="M22.8 56.4322V80.6896L19.2 80.1945L15.6 78.7094L12.6 76.7292L9.9 73.7589L7.5 69.7985L6 65.8381L4.8 61.3827L4.5 56.4322L4.8 51.4817L6 46.5312L7.5 42.5708L9.9 38.6104L12.6 35.6401L15.6 33.6599L19.2 32.1747L22.8 31.6797V56.4322Z" fill="#CCCCCC"/>
<path d="M81.3002 149.999H64.2002L67.5002 112.375H78.0002L81.3002 149.999Z" fill="#E5E5E5"/>
<path d="M122.7 56.4387V68.815L126.3 68.3199L129.6 67.8249L132.9 66.8348L135.6 64.8546L137.7 63.3694L139.5 60.8942L140.7 58.914L141 56.4387L140.7 53.9635L139.5 51.4882L137.7 49.508L135.6 47.5278L132.9 46.0427L129.6 45.0526L126.3 44.0625H122.7V56.4387Z" fill="#E5E5E5"/>
<path d="M22.7998 44.0625H122.7V68.815H22.7998V44.0625Z" fill="#E5E5E5"/>
<path d="M22.8 56.4387V68.815L19.2 68.3199L15.6 67.8249L12.6 66.8348L9.9 64.8546L7.5 63.3694L6 60.8942L4.8 58.914L4.5 56.4387L4.8 53.9635L6 51.4882L7.5 49.508L9.9 47.5278L12.6 46.0427L15.6 45.0526L19.2 44.0625H22.8V56.4387Z" fill="#E5E5E5"/>
<path d="M74.1004 149.999H71.4004L72.0004 112.375H73.5004L74.1004 149.999Z" fill="white"/>
<path d="M131.7 57.4234C136.671 57.4234 140.7 56.7585 140.7 55.9383C140.7 55.118 136.671 54.4531 131.7 54.4531C126.73 54.4531 122.7 55.118 122.7 55.9383C122.7 56.7585 126.73 57.4234 131.7 57.4234Z" fill="white"/>
<path d="M22.7998 54.4531H122.7V57.9185H22.7998V54.4531Z" fill="white"/>
<path d="M13.5 57.4234C18.4706 57.4234 22.5 56.7585 22.5 55.9383C22.5 55.118 18.4706 54.4531 13.5 54.4531C8.52944 54.4531 4.5 55.118 4.5 55.9383C4.5 56.7585 8.52944 57.4234 13.5 57.4234Z" fill="white"/>
<path d="M22.7998 0H122.7V112.376H22.7998V0Z" stroke="black" stroke-width="0.770752"/>
<path d="M118.2 149.999H27.2998L44.3998 112.375H101.1L118.2 149.999Z" stroke="black" stroke-width="0.770752"/>
</g>
<defs>
<clipPath id="clip0_2109_211917">
<rect width="150" height="150" fill="white"/>
</clipPath>
</defs>
</svg>
