<svg width="150" height="150" viewBox="0 0 150 150" fill="none" xmlns="http://www.w3.org/2000/svg">
<path d="M95.3451 141.192L90.0898 143.753L84.6844 145.674L79.1289 147.275L73.273 148.396L69.5192 148.716L67.5673 148.876H65.6153L59.1589 148.396L52.7024 147.435L46.5463 145.674L40.5403 143.433L34.8346 140.391L29.5793 137.03L24.6244 133.028L19.9697 128.545L15.7655 123.743L12.1619 118.46L8.85859 112.697L6.15589 106.613L3.90363 100.37L2.40213 93.8066L1.35108 86.923L1.05078 83.4011V79.8792V77.3178L1.35108 72.5153L2.10183 67.5526L3.00273 62.9101L4.35408 58.1076L5.85559 53.6252L7.80754 49.3029L9.90964 44.9806L12.4622 40.8184L15.0147 36.9763L18.0177 33.2943L21.1709 29.9326L24.6244 26.5708L28.228 23.6892L32.1319 20.9678L36.1859 18.5665L38.1379 17.4459L51.8015 10.2421L55.5553 8.16094L59.4592 6.23992L63.3631 4.79915L67.4171 3.51847L71.6214 2.39787L75.8256 1.75753L79.8796 1.27727L82.1319 1.11719H84.234L90.6904 1.43736L97.1469 2.55796L103.303 4.15881L109.309 6.56009L115.015 9.44163L120.27 12.9635L125.225 16.8056L129.88 21.2879L134.084 26.2506L137.687 31.5334L140.991 37.1364L143.693 43.2196L145.946 49.6231L147.447 56.1866L148.498 63.0702L148.799 66.432V69.9539V72.3552L148.498 76.8376L147.898 81.32L146.997 85.8024L145.946 90.1247L144.594 94.447L142.943 98.6092L140.991 102.611L139.039 106.453L136.636 110.135L134.084 113.817L131.381 117.179L128.378 120.381L125.225 123.262L121.922 125.984L118.468 128.545L116.666 129.826L95.3451 141.192Z" fill="#00FFFF" stroke="black" stroke-width="0.310076"/>
<path d="M91.291 126.788L82.1318 109.819L86.0357 106.937L89.4892 103.415L92.4922 99.5731L94.8946 95.0907L96.6964 90.4482L97.8976 85.4855L98.3481 80.3628L98.0478 75.2401L96.9967 70.2774L95.345 65.635L93.8435 62.5933L109.91 52.8281L111.111 55.0693L113.063 59.8719L114.714 64.8345L115.765 70.1173L116.516 75.4002L116.666 78.1216V80.683V83.4044L116.066 88.6872L115.015 93.81L113.513 98.9327L111.411 103.735L109.009 108.378L106.156 112.86L103.003 116.862L99.249 120.544L95.4952 123.906L93.3931 125.347L91.291 126.788Z" fill="black"/>
<path d="M91.2912 32.9773L81.9819 49.9463L77.7777 47.7051L73.2732 46.2644L68.6186 45.4639H63.8138L59.1591 46.1043L54.5045 47.545L50.1501 49.7862L46.2462 52.5077L42.6426 55.8695L39.4894 59.7115L38.5885 61.1523L37.8378 62.5931L21.9219 52.8279L24.6246 48.3455L27.7777 44.3433L31.2312 40.3412L34.9849 36.9794L39.039 33.9378L43.3933 31.3764L48.048 29.2953L52.7027 27.5344L57.6576 26.4138L62.6126 25.7734H65.1651H67.5675L72.5225 26.2537L77.4774 27.2142L82.2822 28.655L86.9369 30.576L89.1891 31.6966L91.2912 32.9773Z" fill="black"/>
<path d="M15.165 79.8828H33.4834L33.9338 84.8455L34.9849 89.8081L36.6365 94.6107L39.0389 98.933L42.0419 102.935L45.4954 106.457L49.3993 109.499L53.6035 111.74L58.108 113.341L62.7626 114.141L64.4143 114.301H65.9158V133.992L60.9608 133.832L56.156 132.871L51.2011 131.59L46.5464 129.829L42.0419 127.588L37.6876 124.867L33.6335 121.665L30.0299 118.143L26.7266 114.141L23.7236 109.819L21.171 105.336L19.0689 100.534L17.4173 95.4111L16.2161 90.2884L15.3152 85.1656L15.165 82.4442V79.8828Z" fill="black"/>
<path d="M65.6159 99.5763C75.8158 99.5763 84.0844 90.7606 84.0844 79.8858C84.0844 69.0111 75.8158 60.1953 65.6159 60.1953C55.4161 60.1953 47.1475 69.0111 47.1475 79.8858C47.1475 90.7606 55.4161 99.5763 65.6159 99.5763Z" stroke="black" stroke-width="0.310076"/>
<path d="M63.6636 98.2899L62.0119 99.0904L60.5104 99.5706L58.7086 99.8908H57.8077H57.057H55.5555L54.2041 99.7307L52.7026 99.2505L51.5014 98.7702L50.1501 98.1299L48.9489 97.3294L47.8978 96.529L46.8468 95.4084L45.9459 94.4479L45.045 93.1672L44.2942 91.8865L43.6936 90.6058L43.2432 89.1651L42.9429 87.7243L42.6426 86.1235V84.6827V83.5621L42.9429 81.3209L43.5435 79.2398L44.4444 77.3188L45.4954 75.5578L46.8468 73.957L48.3483 72.5162L49.9999 71.2355L50.9008 70.7553L58.108 67.0733L59.7597 66.2729L61.4113 65.6325L63.3633 65.1523L64.2642 64.9922H65.1651L66.6666 65.1523L68.018 65.3124L69.5195 65.7926L70.7207 66.2729L72.072 66.9132L73.2732 67.7136L74.3243 68.6742L75.3753 69.6347L76.2762 70.5952L77.1771 71.8759L77.9279 73.1565L78.5285 74.4372L78.9789 75.7179L79.2792 77.3188L79.5795 78.7595V80.2003V81.3209L79.2792 83.402L78.8288 85.323L78.078 87.084L77.1771 88.8449L75.9759 90.4458L74.6246 91.8865L73.2732 93.1672L72.3723 93.6475L63.6636 98.2899Z" fill="#00FFFF" stroke="black" stroke-width="0.310076"/>
<path d="M112.312 127.746L130.331 118.141" stroke="black" stroke-width="0.310076"/>
<path d="M63.9639 10.8864L81.9819 1.28125" stroke="black" stroke-width="0.310076"/>
<path d="M85.4355 14.2496L103.754 4.48438" stroke="black" stroke-width="0.310076"/>
<path d="M99.6992 21.2886L118.018 11.5234" stroke="black" stroke-width="0.310076"/>
<path d="M110.511 30.4136L128.679 20.6484" stroke="black" stroke-width="0.310076"/>
<path d="M118.769 40.6598L136.937 31.0547" stroke="black" stroke-width="0.310076"/>
<path d="M124.925 52.1871L143.243 42.4219" stroke="black" stroke-width="0.310076"/>
<path d="M128.829 64.8355L147.147 55.0703" stroke="black" stroke-width="0.310076"/>
<path d="M130.33 78.7652L148.799 69" stroke="black" stroke-width="0.310076"/>
<path d="M129.129 94.1286L147.147 84.5234" stroke="black" stroke-width="0.310076"/>
<path d="M122.823 112.218L140.691 102.773" stroke="black" stroke-width="0.310076"/>
<path d="M36.6367 18.2467L41.7418 15.8455L46.9971 13.9244L52.5526 12.4837L58.2583 11.3631L62.0121 11.0429L63.8139 10.8828H65.6157L72.2223 11.3631L78.6788 12.3236L84.8349 14.0845L90.8409 16.3257L96.5466 19.3673L101.802 22.7291L106.757 26.7313L111.411 31.2137L115.616 36.0162L119.219 41.299L122.523 47.0621L125.225 53.1453L127.478 59.3887L128.979 65.9522L130.03 72.8358L130.33 76.3577V79.8796V82.1208L130.03 86.7633L129.43 91.2457L128.529 95.7281L127.478 100.21L126.126 104.533L124.475 108.695L122.523 112.697L120.421 116.539L118.018 120.221L115.466 123.903L112.613 127.265L109.61 130.467L106.457 133.508L103.003 136.23L99.3995 138.791L97.5977 139.912" stroke="black" stroke-width="0.310076"/>
<path d="M56.9068 99.8928C64.7848 99.8928 71.1711 93.0839 71.1711 84.6847C71.1711 76.2855 64.7848 69.4766 56.9068 69.4766C49.0289 69.4766 42.6426 76.2855 42.6426 84.6847C42.6426 93.0839 49.0289 99.8928 56.9068 99.8928Z" stroke="black" stroke-width="0.310076"/>
</svg>
