<svg width="150" height="150" viewBox="0 0 150 150" fill="none" xmlns="http://www.w3.org/2000/svg">
<g clip-path="url(#clip0_2109_211644)">
<path d="M21.7715 10.7891H126.426V139.214H21.7715V10.7891Z" fill="#CCCCCC" stroke="black" stroke-width="0.555453"/>
<path d="M126.427 0H131.232V150H126.427V0Z" fill="#E5E5E5" stroke="black" stroke-width="0.555453"/>
<path d="M21.7718 133.559L0 128.422V21.0589L21.7718 15.9219V133.559Z" fill="#999999" stroke="black" stroke-width="0.555453"/>
<path d="M21.7717 122.773L13.9639 117.636V90.9241L21.7717 85.2734V122.773Z" fill="black" stroke="black" stroke-width="0.555453"/>
<path d="M21.7717 64.2109L13.9639 59.074V31.8479L21.7717 26.7109V64.2109Z" fill="black" stroke="black" stroke-width="0.555453"/>
<path d="M126.426 149.485H21.7715V139.211H126.426V149.485Z" fill="black" stroke="black" stroke-width="0.555453"/>
<path d="M131.231 69.3516H150V80.1392H131.231V69.3516Z" fill="#E5E5E5" stroke="black" stroke-width="0.555453"/>
<path d="M24.9248 21.0625H123.423V31.8502H24.9248V21.0625Z" fill="white"/>
<path d="M127.327 10.7891H130.33V21.063H127.327V10.7891Z" fill="white"/>
<path d="M24.9248 109.414H123.423V130.989H24.9248V109.414Z" fill="#7F7F7F"/>
<path d="M127.327 120.203H130.33V141.778H127.327V120.203Z" fill="#7F7F7F"/>
<path d="M131.982 77.5703H149.1V80.1388H131.982V77.5703Z" fill="#7F7F7F"/>
<path d="M131.982 72.4338H149.1V69.3516H131.982V72.4338Z" fill="white"/>
<path d="M131.231 69.3516H150" stroke="black" stroke-width="0.555453"/>
</g>
<defs>
<clipPath id="clip0_2109_211644">
<rect width="150" height="150" fill="white"/>
</clipPath>
</defs>
</svg>
