<svg width="150" height="150" viewBox="0 0 150 150" fill="none" xmlns="http://www.w3.org/2000/svg">
<g clip-path="url(#clip0_2109_211240)">
<path d="M6.00586 146.617H43.5434V150.001H6.00586V146.617Z" fill="black" stroke="black" stroke-width="0.411512"/>
<path d="M129.43 146.62H124.625V29.8906H129.43V146.62Z" fill="#E5E5E5" stroke="black" stroke-width="0.411512"/>
<path d="M0 29.3203H124.625V146.614H0V29.3203Z" stroke="black" stroke-width="0.411512"/>
<path d="M129.43 133.649H124.625V42.8594H129.43V133.649Z" fill="#CCCCCC" stroke="black" stroke-width="0.411512"/>
<path d="M129.43 123.497H124.625V53.0078H129.43V123.497Z" fill="#E5E5E5" stroke="black" stroke-width="0.411512"/>
<path d="M131.832 132.518H129.43V43.9844H131.832V132.518Z" fill="#999999" stroke="black" stroke-width="0.411512"/>
<path d="M150 92.4821H131.832V84.0234H150V92.4821Z" fill="#CCCCCC"/>
<path d="M150 92.4836H131.832V89.6641H150V92.4836Z" fill="#999999"/>
<path d="M150 86.8402H131.832V85.1484H150V86.8402Z" fill="white"/>
<path d="M150 92.4821H131.832V84.0234H150V92.4821Z" stroke="black" stroke-width="0.411512"/>
<path d="M0.600586 145.491H124.024V136.469H0.600586V145.491Z" fill="#D9D9D9"/>
<path d="M0.600586 120.68H124.024V136.469H0.600586V120.68Z" fill="#E5E5E5"/>
<path d="M0.600586 120.676H124.024V87.9688H0.600586V120.676Z" fill="#F2F2F2"/>
<path d="M0.600586 41.166H124.024V31.0156H0.600586V41.166Z" fill="#F2F2F2"/>
<path d="M77.1768 28.1953H106.006V62.0299H77.1768V28.1953Z" fill="white" stroke="black" stroke-width="0.411512"/>
<path d="M77.1768 63.1591H106.006V62.0312H77.1768V63.1591Z" fill="black" stroke="black" stroke-width="0.411512"/>
<path d="M94.2939 28.1953H103.003V60.3382H94.2939V28.1953Z" fill="#FF6600" stroke="black" stroke-width="0.411512"/>
<path d="M78.6787 28.1953H87.3874V57.5186H78.6787V28.1953Z" fill="#FF6600" stroke="black" stroke-width="0.411512"/>
<path d="M87.9883 28.1953H93.3937V54.6991H87.9883V28.1953Z" fill="#E5E5E5" stroke="black" stroke-width="0.411512"/>
<path d="M22.5225 53.0076H62.1621V6.20312H22.5225V53.0076Z" fill="#F2F2F2" stroke="black" stroke-width="0.411512"/>
<path d="M13.2129 29.3203H20.1198V146.614H13.2129V29.3203Z" fill="#CCCCCC" stroke="black" stroke-width="0.411512"/>
<path d="M13.8135 29.3203H16.2159V62.0271H13.8135V29.3203Z" fill="#4C4C4C" stroke="black" stroke-width="0.411512"/>
<path d="M17.1172 29.3203H19.5196V62.0271H17.1172V29.3203Z" fill="#4C4C4C" stroke="black" stroke-width="0.411512"/>
<path d="M13.8135 65.9766H16.2159V111.653H13.8135V65.9766Z" fill="#333333" stroke="black" stroke-width="0.411512"/>
<path d="M17.1172 65.9766H19.5196V111.653H17.1172V65.9766Z" fill="#333333" stroke="black" stroke-width="0.411512"/>
<path d="M13.8135 116.164H16.2159V146.615H13.8135V116.164Z" fill="#191919" stroke="black" stroke-width="0.411512"/>
<path d="M17.1172 116.164H19.5196V146.615H17.1172V116.164Z" fill="#191919" stroke="black" stroke-width="0.411512"/>
<path d="M82.5826 146.619L82.8829 142.954L83.033 139.289L83.1832 135.905L83.3333 132.24L83.4835 128.574L83.6336 124.909L83.9339 120.962L84.0841 117.296L84.5345 114.759L85.1351 114.477H85.4354H85.5856H115.766L116.817 116.45L116.967 119.27L117.267 122.935L117.417 126.601L117.718 130.266L117.868 133.931L118.018 137.597L118.318 141.262L118.619 144.928V146.619L120.12 150.003H81.0811L81.982 147.747L82.5826 146.619Z" fill="#F2F2F2" stroke="black" stroke-width="0.411512"/>
<path d="M84.9854 123.495V126.596V129.416L85.1355 134.491L85.2857 138.438L85.586 141.54L86.0364 144.642L87.0875 146.615H87.3878H88.1385H113.814H114.114L115.316 143.796L115.766 140.13L116.066 136.465L116.217 132.235V129.416V126.596V123.495V116.164H84.9854V117.01V123.495Z" fill="#D9D9D9"/>
<path d="M22.5225 96.989H31.8318V79.5078H22.5225V96.989Z" fill="white" stroke="black" stroke-width="0.411512"/>
<path d="M27.3272 80.6406L28.5284 82.0504L28.8287 84.0241L28.0779 86.2797L27.3272 86.8436L26.126 85.7158L25.5254 84.0241L26.126 81.7684L27.3272 80.6406Z" fill="#B2B2B2" stroke="black" stroke-width="0.411512"/>
<path d="M21.6221 3.38281H63.0635V6.20236H21.6221V3.38281Z" fill="white" stroke="black" stroke-width="0.411512"/>
<path d="M24.9248 0H60.0599V3.38346H24.9248V0Z" fill="white" stroke="black" stroke-width="0.411512"/>
<path d="M37.6878 35.2434C39.5951 35.2434 41.1413 32.3399 41.1413 28.7584C41.1413 25.1769 39.5951 22.2734 37.6878 22.2734C35.7805 22.2734 34.2344 25.1769 34.2344 28.7584C34.2344 32.3399 35.7805 35.2434 37.6878 35.2434Z" fill="#CCCCCC" stroke="black" stroke-width="0.411512"/>
<path d="M35.1348 23.6875H40.5402V33.8379H35.1348V23.6875Z" fill="#7F7F7F" stroke="black" stroke-width="0.411512"/>
</g>
<defs>
<clipPath id="clip0_2109_211240">
<rect width="150" height="150" fill="white"/>
</clipPath>
</defs>
</svg>
