<svg width="150" height="150" viewBox="0 0 150 150" fill="none" xmlns="http://www.w3.org/2000/svg">
<g clip-path="url(#clip0_2109_211537)">
<path d="M56.3066 141.539H131.382V149.999H56.3066V141.539Z" fill="#333333" stroke="black" stroke-width="0.442067"/>
<path d="M56.3066 3.57812H131.382V141.539H56.3066V3.57812Z" fill="#EB5200" stroke="black" stroke-width="0.442067"/>
<path d="M74.9248 19.8516H127.477V150.003H74.9248V19.8516Z" fill="#FF6600" stroke="black" stroke-width="0.442067"/>
<path d="M74.9248 0H127.477V3.57918H74.9248V0Z" fill="#CCCCCC" stroke="black" stroke-width="0.442067"/>
<path d="M1.8018 19.8516H56.3063V150.003H1.8018V125.275L0 121.37V97.2919L1.8018 92.7366V76.4676L0 72.5631V48.485L1.8018 43.9297V19.8516Z" fill="#FF6600" stroke="black" stroke-width="0.442067"/>
<path d="M23.8735 127.877L24.1738 144.146H4.6543V97.2914L9.1588 96.6406L9.60925 99.569L10.0597 102.172L10.6603 104.775L11.2609 107.378L12.0117 109.656L12.7624 112.259L13.6633 114.211L14.5642 116.489L15.4651 118.441L16.5162 120.393L17.7174 122.02L18.7684 123.322L20.1198 124.949L21.321 125.925L22.5222 127.226L23.8735 127.877Z" fill="#E04700"/>
<path d="M23.8735 43.9252L24.1738 27.6562H4.6543V74.5109L9.1588 75.1617L9.60925 72.5586L10.0597 69.6302L10.6603 67.0272L11.2609 64.7495L12.0117 62.1465L12.7624 59.8688L13.6633 57.5912L14.5642 55.3135L15.4651 53.3612L16.5162 51.7343L17.7174 50.1074L18.7684 48.4805L20.1198 47.179L21.321 45.8775L22.5222 44.9014L23.8735 43.9252Z" fill="#E04700"/>
<path d="M34.0845 127.877L33.7842 144.146H53.3037V97.2914L48.7992 96.6406L48.4989 99.569L47.8983 102.172L47.4478 104.775L46.8472 107.378L46.0965 109.656L45.3457 112.259L44.4448 114.211L43.5439 116.489L42.4929 118.441L41.4418 120.393L40.3908 122.02L39.1896 123.322L37.9884 124.949L36.7872 125.925L35.4358 127.226L34.0845 127.877Z" fill="#E04700"/>
<path d="M34.0845 43.9252L33.7842 27.6562H53.3037V74.5109L48.7992 75.1617L48.4989 72.5586L47.8983 69.6302L47.4478 67.0272L46.8472 64.7495L46.0965 62.1465L45.3457 59.8688L44.4448 57.5912L43.5439 55.3135L42.4929 53.3612L41.4418 51.7343L40.3908 50.1074L39.1896 48.4805L37.9884 47.179L36.7872 45.8775L35.4358 44.9014L34.0845 43.9252Z" fill="#E04700"/>
<path d="M28.9789 117.459C37.2714 117.459 43.9939 102.891 43.9939 84.9208C43.9939 66.9506 37.2714 52.3828 28.9789 52.3828C20.6863 52.3828 13.9639 66.9506 13.9639 84.9208C13.9639 102.891 20.6863 117.459 28.9789 117.459Z" fill="#4C4C4C" stroke="black" stroke-width="0.442067"/>
<path d="M28.9792 101.194C33.1255 101.194 36.4867 93.9103 36.4867 84.9252C36.4867 75.9401 33.1255 68.6562 28.9792 68.6562C24.8329 68.6562 21.4717 75.9401 21.4717 84.9252C21.4717 93.9103 24.8329 101.194 28.9792 101.194Z" fill="#B2B2B2" stroke="black" stroke-width="0.442067"/>
<path d="M28.9786 95.0118C31.6323 95.0118 33.7834 90.3501 33.7834 84.5996C33.7834 78.8492 31.6323 74.1875 28.9786 74.1875C26.325 74.1875 24.1738 78.8492 24.1738 84.5996C24.1738 90.3501 26.325 95.0118 28.9786 95.0118Z" fill="#CCCCCC" stroke="black" stroke-width="0.442067"/>
<path d="M28.9786 91.1089C30.6371 91.1089 31.9816 88.1954 31.9816 84.6013C31.9816 81.0073 30.6371 78.0938 28.9786 78.0938C27.3201 78.0938 25.9756 81.0073 25.9756 84.6013C25.9756 88.1954 27.3201 91.1089 28.9786 91.1089Z" fill="#333333" stroke="black" stroke-width="0.442067"/>
<path d="M4.6543 97.2891V144.144H24.1738" stroke="black" stroke-width="0.442067"/>
<path d="M33.7842 144.144H53.3037V97.2891" stroke="black" stroke-width="0.442067"/>
<path d="M4.6543 74.5109V27.6562H24.1738" stroke="black" stroke-width="0.442067"/>
<path d="M33.7842 27.6562H53.3037V74.5109" stroke="black" stroke-width="0.442067"/>
<path d="M28.979 40.0234L29.8799 41.9757L29.2793 44.5788H28.979L28.0781 41.9757L28.979 40.0234Z" fill="black" stroke="black" stroke-width="0.442067"/>
<path d="M28.979 129.828L29.7298 130.154L29.8799 131.78V132.757L29.7298 133.407L28.979 133.733L28.3784 133.407L28.2283 132.757L28.0781 131.78L28.3784 130.154L28.979 129.828Z" fill="black" stroke="black" stroke-width="0.442067"/>
<path d="M7.35742 86.8742L8.25832 84.9219L9.45952 86.5488V86.8742L8.25832 88.8264L7.35742 86.8742Z" fill="black" stroke="black" stroke-width="0.442067"/>
<path d="M48.7988 86.8742L49.0991 85.5726L49.6997 84.9219L50.1502 85.2473L50.4505 85.5726L50.6006 86.8742L50.4505 88.5011L50.1502 88.8264H49.6997L49.0991 88.5011L48.7988 86.8742Z" fill="black" stroke="black" stroke-width="0.442067"/>
<path d="M79.4297 139.585V30.2578H122.673" stroke="white" stroke-width="0.442067"/>
<path d="M131.382 5.53125H150V139.588H131.382V5.53125Z" fill="#E04700"/>
<path d="M131.382 20.5H150V125.272H131.382V20.5Z" fill="#EB5200"/>
<path d="M131.382 39.3672H150V106.395H131.382V39.3672Z" fill="#F55C00"/>
<path d="M131.382 60.1953H150V85.5749H131.382V60.1953Z" fill="#FF6600"/>
<path d="M131.382 5.53125H150V139.588H131.382V5.53125Z" stroke="black" stroke-width="0.442067"/>
<path d="M74.9248 13.9922H127.477V17.8967H74.9248V13.9922Z" fill="#FF6600" stroke="black" stroke-width="0.442067"/>
<path d="M74.9248 7.48438H127.477V11.3889H74.9248V7.48438Z" fill="#FF6600" stroke="black" stroke-width="0.442067"/>
<path d="M4.6543 17.8984H7.357V19.8507H4.6543V17.8984Z" fill="#EB5200" stroke="black" stroke-width="0.442067"/>
<path d="M50.6006 17.8984H53.3033V19.8507H50.6006V17.8984Z" fill="#EB5200" stroke="black" stroke-width="0.442067"/>
<path d="M125.075 21.7969L126.276 23.4238L126.577 25.0507L125.676 27.6537H125.075L123.874 26.0268V25.0507L124.324 22.4476L125.075 21.7969Z" fill="#EB5200" stroke="black" stroke-width="0.442067"/>
<path d="M77.3277 21.7969L78.3787 23.7492L78.5289 25.0507L77.628 27.6537H77.3277L76.1265 26.6776L75.8262 25.0507L76.4268 22.4476L77.3277 21.7969Z" fill="#EB5200" stroke="black" stroke-width="0.442067"/>
<path d="M77.3277 142.188L78.5289 144.14V144.791L77.9283 147.394L77.3277 148.044L76.1265 146.743L75.8262 144.791L76.7271 142.513L77.3277 142.188Z" fill="#EB5200" stroke="black" stroke-width="0.442067"/>
<path d="M125.075 142.188L126.276 143.489L126.577 144.791L125.976 147.394L125.075 148.044L123.874 146.092V144.791L124.625 142.513L125.075 142.188Z" fill="#EB5200" stroke="black" stroke-width="0.442067"/>
</g>
<defs>
<clipPath id="clip0_2109_211537">
<rect width="150" height="150" fill="white"/>
</clipPath>
</defs>
</svg>
