<svg width="150" height="150" viewBox="0 0 150 150" fill="none" xmlns="http://www.w3.org/2000/svg">
<g clip-path="url(#clip0_2109_211575)">
<path d="M0 68.1797H150V81.5588H0V68.1797Z" fill="#999999"/>
<path d="M0 69.2109H150V80.5317H0V69.2109Z" fill="#B2B2B2"/>
<path d="M0 70.7578H150V78.9911H0V70.7578Z" fill="#CCCCCC"/>
<path d="M0 72.8125H150V77.4437H0V72.8125Z" fill="#E5E5E5"/>
<path d="M0 74.3594H150V75.3885H0V74.3594Z" fill="white"/>
<path d="M0 68.1797H150V81.5588H0V68.1797Z" stroke="black" stroke-width="0.393101"/>
<path d="M24.7744 0H125.075V150H24.7744V0Z" fill="#999999"/>
<path d="M24.7744 10.8047H125.075V139.192H24.7744V10.8047Z" fill="#B2B2B2"/>
<path d="M24.7744 28.0469H125.075V121.7H24.7744V28.0469Z" fill="#CCCCCC"/>
<path d="M24.7744 49.6562H125.075V100.6H24.7744V49.6562Z" fill="#E5E5E5"/>
<path d="M24.7744 70.7578H125.075V78.9911H24.7744V70.7578Z" fill="white"/>
<path d="M24.7744 0H125.075V150H24.7744V0Z" stroke="black" stroke-width="0.393101"/>
<path d="M116.366 0H125.075V150H116.366V0Z" stroke="black" stroke-width="0.393101"/>
<path d="M121.171 21.6094H125.075V37.3041H121.171V21.6094Z" fill="#999999" stroke="black" stroke-width="0.393101"/>
<path d="M121.171 74.875H125.075V90.827H121.171V74.875Z" fill="#999999" stroke="black" stroke-width="0.393101"/>
<path d="M121.171 128.391H125.075V144.343H121.171V128.391Z" fill="#7F7F7F" stroke="black" stroke-width="0.393101"/>
<path d="M33.4831 150H24.7744V0H33.4831V150Z" stroke="black" stroke-width="0.393101"/>
<path d="M28.6783 128.389H24.7744V112.438H28.6783V128.389Z" fill="#999999" stroke="black" stroke-width="0.393101"/>
<path d="M28.6783 74.8738H24.7744V58.9219H28.6783V74.8738Z" fill="#B2B2B2" stroke="black" stroke-width="0.393101"/>
<path d="M28.6783 21.616H24.7744V5.66406H28.6783V21.616Z" fill="#B2B2B2" stroke="black" stroke-width="0.393101"/>
<path d="M125.075 61.4922H128.078V88.2503H125.075V61.4922Z" fill="#FFCC00"/>
<path d="M125.075 83.1016H128.078V88.2474H125.075V83.1016Z" fill="#D9A600"/>
<path d="M125.075 61.4922H128.078V69.7255H125.075V61.4922Z" fill="#FFE500"/>
<path d="M125.075 61.4922H128.078V88.2503H125.075V61.4922Z" stroke="black" stroke-width="0.393101"/>
</g>
<defs>
<clipPath id="clip0_2109_211575">
<rect width="150" height="150" fill="white"/>
</clipPath>
</defs>
</svg>
