<svg width="150" height="150" viewBox="0 0 150 150" fill="none" xmlns="http://www.w3.org/2000/svg">
<g clip-path="url(#clip0_2109_164372)">
<path d="M118.421 74.9258H26.6221V150.001H118.421V74.9258Z" fill="#CCCCCC" stroke="black" stroke-width="0.332068"/>
<path d="M114.749 77.9277H30.6611V143.693H114.749V77.9277Z" fill="#B2B2B2" stroke="black" stroke-width="0.332068"/>
<path d="M125.031 61.4119H143.758V10.0605H100.061H62.6071L56.3647 10.3608L50.1224 11.1116L44.0636 12.4629L38.3721 14.1146L32.8641 16.3669L27.7234 18.9194L22.7662 21.9224L18.3599 25.2257L14.3207 28.8293L10.6487 32.8834L7.52754 37.0876L4.77356 41.5921L2.75398 46.2467L1.10159 51.0515L0.183599 56.1566L0 58.7092V61.4119V63.9645L0.550796 69.0696L1.83599 74.0245L3.67197 78.8293L6.05875 83.484L8.99633 87.8383L12.4847 91.8924L16.1567 95.6461L20.563 99.0996L25.153 102.253L30.1102 104.955L35.4345 107.358L41.1261 109.31L47.0012 110.811L53.06 111.862L59.4859 112.313L62.6071 112.463H64.2595L70.5018 112.012L76.7442 111.112L82.6193 109.76L88.3109 107.958L93.6352 105.706L98.5924 103.003L103.366 100L107.772 96.547L111.628 92.7933L115.116 88.7392L118.237 84.535L120.624 80.0305L122.644 75.2257L123.929 70.2708L124.847 65.3158L125.031 61.4119Z" fill="#D9D9D9" stroke="black" stroke-width="0.332068"/>
<path d="M125.031 61.411H143.758V30.4801L106.671 25.375L108.874 27.1768L110.894 28.9786L112.73 30.9306L114.566 32.8825L116.218 34.9846L117.687 37.2369L118.972 39.4891L120.257 41.7414L121.359 44.1438L122.277 46.5462L123.011 48.9486L123.746 51.351L124.296 53.9035L124.664 56.3059L124.847 58.8585L125.031 61.411Z" fill="#B2B2B2"/>
<path d="M150 71.6216V0H143.758V71.6216H150Z" fill="#CCCCCC"/>
<path d="M150 71.6212V48.498H143.758V71.6212H150Z" fill="#B2B2B2"/>
<path d="M150 15.1652V0H143.758V15.1652H150Z" fill="#E5E5E5"/>
<path d="M150 71.6216V0H143.758V71.6216H150Z" stroke="black" stroke-width="0.332068"/>
<path d="M122.461 143.693H22.9502V150H122.461V143.693Z" fill="#999999" stroke="black" stroke-width="0.332068"/>
<path d="M62.4232 102.252C90.105 102.252 112.546 83.8992 112.546 61.2605C112.546 38.6218 90.105 20.2695 62.4232 20.2695C34.7413 20.2695 12.3008 38.6218 12.3008 61.2605C12.3008 83.8992 34.7413 102.252 62.4232 102.252Z" fill="#7F7F7F" stroke="black" stroke-width="0.332068"/>
<path d="M62.4238 91.2905C82.7035 91.2905 99.1435 77.8456 99.1435 61.2605C99.1435 44.6754 82.7035 31.2305 62.4238 31.2305C42.1441 31.2305 25.7041 44.6754 25.7041 61.2605C25.7041 77.8456 42.1441 91.2905 62.4238 91.2905Z" fill="#B2B2B2"/>
<path d="M62.2401 88.1385C80.3905 88.1385 95.1042 76.1053 95.1042 61.2616C95.1042 46.418 80.3905 34.3848 62.2401 34.3848C44.0898 34.3848 29.376 46.418 29.376 61.2616C29.376 76.1053 44.0898 88.1385 62.2401 88.1385Z" fill="#A6A6A6"/>
<path d="M61.8728 84.8342C77.8938 84.8342 90.8814 74.2127 90.8814 61.1104C90.8814 48.0082 77.8938 37.3867 61.8728 37.3867C45.8518 37.3867 32.8643 48.0082 32.8643 61.1104C32.8643 74.2127 45.8518 84.8342 61.8728 84.8342Z" fill="#999999"/>
<path d="M61.6891 81.8325C75.5807 81.8325 86.8421 72.6228 86.8421 61.262C86.8421 49.9012 75.5807 40.6914 61.6891 40.6914C47.7975 40.6914 36.5361 49.9012 36.5361 61.262C36.5361 72.6228 47.7975 81.8325 61.6891 81.8325Z" fill="#8C8C8C"/>
<path d="M61.5054 78.8285C73.3691 78.8285 82.9865 70.9632 82.9865 61.2609C82.9865 51.5586 73.3691 43.6934 61.5054 43.6934C49.6418 43.6934 40.0244 51.5586 40.0244 61.2609C40.0244 70.9632 49.6418 78.8285 61.5054 78.8285Z" fill="#7F7F7F"/>
<path d="M62.6069 76.5759C72.9496 76.5759 81.334 69.719 81.334 61.2606C81.334 52.8022 72.9496 45.9453 62.6069 45.9453C52.2643 45.9453 43.8799 52.8022 43.8799 61.2606C43.8799 69.719 52.2643 76.5759 62.6069 76.5759Z" fill="#666666" stroke="black" stroke-width="0.332068"/>
<path d="M57.8333 59.0095L48.2861 54.8053L49.5713 53.3038L51.0401 51.9525L52.6925 50.7513L54.3449 49.8504L56.3645 49.0996L58.3841 48.499L60.4036 48.0486L62.6068 47.8984V56.9074L60.5872 57.2077L58.9348 58.1086L57.8333 59.0095Z" fill="#404040"/>
<path d="M65.1777 57.2067L70.6857 49.6992L72.3381 50.7503L73.9905 51.8013L75.2757 53.1527L76.5608 54.6542L77.4788 56.1557L78.2132 57.9575L78.5804 59.6091L78.764 61.4109H68.1153L67.7481 59.459L66.4629 57.9575L65.1777 57.2067Z" fill="#404040"/>
<path d="M67.381 63.5137L76.5609 67.7179L75.2757 69.2194L73.9905 70.5707L72.3381 71.7719L70.5022 72.6728L68.6662 73.5737L66.6466 74.1743L64.627 74.4746L62.6074 74.6248V65.9161L64.627 65.3155L66.463 64.4146L67.381 63.5137Z" fill="#404040"/>
<path d="M59.6693 65.3155L54.5285 72.823L52.6925 71.772L51.0402 70.7209L49.755 69.3696L48.4698 67.8681L47.5518 66.3666L46.8174 64.5648L46.6338 62.9131L46.4502 62.0122V61.1113H57.0989L57.6497 63.0633L58.7513 64.5648L59.6693 65.3155Z" fill="#404040"/>
<path d="M64.0763 98.3477V95.9453H60.7715V98.3477H64.0763Z" fill="#4C4C4C"/>
<path d="M21.8477 61.4121H18.543V63.8145H21.8477V61.4121Z" fill="#4C4C4C"/>
<path d="M64.0763 29.2789V26.5762H60.7715V29.2789H64.0763Z" fill="#4C4C4C"/>
<path d="M106.671 61.4121H103.366V63.8145H106.671V61.4121Z" fill="#4C4C4C"/>
<path d="M44.9815 125.075L46.4503 124.474L46.8175 123.273L46.4503 122.372L44.9815 121.771L43.5127 122.372L43.1455 123.273L43.5127 124.474L44.9815 125.075Z" fill="#4C4C4C"/>
<path d="M44.9815 137.388L46.4503 137.087L46.8175 135.886L46.4503 134.685L44.9815 134.385L43.5127 134.685L43.1455 135.886L43.5127 137.087L44.9815 137.388Z" fill="#4C4C4C"/>
</g>
<defs>
<clipPath id="clip0_2109_164372">
<rect width="150" height="150" fill="white"/>
</clipPath>
</defs>
</svg>
