<svg width="150" height="150" viewBox="0 0 150 150" fill="none" xmlns="http://www.w3.org/2000/svg">
<g clip-path="url(#clip0_2109_165277)">
<path d="M104.415 125.374L93.9427 126.576H55.7497L45.2774 125.374L36.0371 122.672L28.0289 119.068L22.4848 114.263L20.0207 109.158V73.1222L6.77637 66.5156H143.224L129.672 73.1222V109.158L126.592 114.263L121.047 119.068L113.655 122.672L104.415 125.374Z" fill="#CCCCCC"/>
<path d="M85.9342 149.399L81.6221 150H67.4537L63.7576 149.399L60.0615 148.348L56.9814 146.997L55.1334 145.195L53.9014 142.943V126.576H95.1745V142.943L93.9424 145.195L92.0944 146.997L89.0143 148.348L85.9342 149.399Z" fill="black" stroke="black" stroke-width="0.430105"/>
<path d="M6.77637 43.0938H143.224V66.5172H6.77637V43.0938Z" fill="#666666"/>
<path d="M6.77637 66.5172L143.224 63.2139V59.9106L6.77637 63.2139V59.9106L143.224 56.6073V53.304L6.77637 56.6073V53.304L143.224 50.0007V46.6974L6.77637 50.0007V46.6974L143.224 43.0938" stroke="#999999" stroke-width="0.430105"/>
<path d="M6.77637 43.0938H143.224V66.5172H6.77637V43.0938Z" stroke="black" stroke-width="0.430105"/>
<path d="M104.415 125.374L93.9427 126.576H55.7497L45.2774 125.374L36.0371 122.672L28.0289 119.068L22.4848 114.263L20.0207 109.158V73.1222L6.77637 66.5156H143.224L129.672 73.1222V109.158L126.592 114.263L121.047 119.068L113.655 122.672L104.415 125.374Z" stroke="black" stroke-width="0.430105"/>
<path d="M98.2546 122.073L90.2464 123.274H59.4456L50.8213 122.073L43.4291 119.67L37.269 116.367L33.2649 112.463L30.8008 107.958V75.8263L20.0205 69.8203H129.671L118.583 75.8263V107.958L116.119 112.463L111.807 116.367L105.647 119.67L98.2546 122.073Z" fill="#E5E5E5"/>
<path d="M53.901 121.772V113.364H40.3486V110.061H108.726V113.364H95.1741V121.772H53.901Z" fill="#999999"/>
<path d="M40.3486 110.061L47.1248 106.757V76.7272L50.8209 69.8203H98.8702L101.95 76.7272V106.757L108.726 110.061H40.3486Z" fill="#B2B232"/>
<path d="M50.8213 110.06L55.7494 106.756V77.9274L58.2135 71.6211H91.4784L93.9424 77.9274V106.756L98.8706 110.06H50.8213Z" fill="#CCCC4C"/>
<path d="M0 43.0931H150V6.45646L146.304 3.3033L136.448 0H13.2444L3.08008 3.3033L0 6.45646V43.0931Z" fill="black"/>
<path d="M9.54785 43.0931H139.527V6.45646L137.063 3.3033L127.823 0H21.2522L12.9359 3.3033L9.54785 6.45646V43.0931Z" fill="#191919"/>
<path d="M26.7969 43.0931H122.895V6.45646L120.431 3.3033L113.655 0H35.7291L28.6449 3.3033L26.7969 6.45646V43.0931Z" fill="#333333"/>
<path d="M0 43.0931H53.9014L60.6776 6.45646L57.5975 3.3033L47.1253 0H13.2444L3.08008 3.3033L0 6.45646V43.0931Z" fill="#191919"/>
<path d="M0 43.0931H33.5729V6.45646L30.8008 3.3033L21.8686 0H10.7803L2.15606 3.3033L0 6.45646V43.0931Z" fill="black"/>
<path d="M0 43.0931H150V6.45646L146.304 3.3033L136.448 0H13.2444L3.08008 3.3033L0 6.45646V43.0931Z" stroke="black" stroke-width="0.430105"/>
<path d="M14.7846 31.5319C19.2074 31.5319 22.7928 25.6161 22.7928 18.3187C22.7928 11.0212 19.2074 5.10547 14.7846 5.10547C10.3618 5.10547 6.77637 11.0212 6.77637 18.3187C6.77637 25.6161 10.3618 31.5319 14.7846 31.5319Z" fill="#CC9933"/>
<path d="M33.5725 43.0931V6.45646L30.8004 3.3033L21.8682 0" stroke="#999999" stroke-width="0.430105"/>
<path d="M18.1723 26.2768C20.894 26.2768 23.1004 22.6466 23.1004 18.1687C23.1004 13.6907 20.894 10.0605 18.1723 10.0605C15.4505 10.0605 13.2441 13.6907 13.2441 18.1687C13.2441 22.6466 15.4505 26.2768 18.1723 26.2768Z" fill="#B27F19"/>
<path d="M71.1498 125.074L57.5975 116.666L53.9014 99.8489V88.4375L57.5975 103.453L61.2936 116.666L71.1498 125.074Z" fill="white"/>
</g>
<defs>
<clipPath id="clip0_2109_165277">
<rect width="150" height="150" fill="white"/>
</clipPath>
</defs>
</svg>
