<svg width="150" height="150" viewBox="0 0 150 150" fill="none" xmlns="http://www.w3.org/2000/svg">
<g clip-path="url(#clip0_2109_164236)">
<path d="M0 10.7969V16.7769H28.5285V10.7969H0Z" fill="#666666"/>
<path d="M0 137.209V143.189H28.5285V137.209H0Z" fill="#666666"/>
<path d="M13.3633 114.451V149.999H124.775V114.451H13.3633Z" fill="#333333"/>
<path d="M0 11.7949V142.027H28.5285V11.7949H0Z" fill="#7F7F7F"/>
<path d="M28.5283 39.3695H121.321V35.3828H149.85V118.439H121.321V114.453H28.5283V39.3695Z" fill="#7F7F7F"/>
<path d="M0 17.7734V136.046H28.5285V17.7734H0Z" fill="#8A8A8A"/>
<path d="M28.5283 42.8575H121.321V39.3691H150V114.452H121.321V110.798H28.5283V42.8575Z" fill="#8A8A8A"/>
<path d="M0 29.9004V123.92H28.5285V29.9004H0Z" fill="#A1A1A1"/>
<path d="M28.5283 49.9997H121.321V47.1758H150V106.478H121.321V103.654H28.5283V49.9997Z" fill="#A1A1A1"/>
<path d="M0 41.8613V111.961H28.5285V41.8613H0Z" fill="#B8B8B8"/>
<path d="M28.5283 57.1437H121.321V55.1504H150V98.5059H121.321V96.5125H28.5283V57.1437Z" fill="#B8B8B8"/>
<path d="M0 53.9863V99.8335H28.5285V53.9863H0Z" fill="#CFCFCF"/>
<path d="M28.5283 64.2859H121.321V62.957H150V90.6979H121.321V89.369H28.5283V64.2859Z" fill="#CFCFCF"/>
<path d="M0 66.1133V87.8741H28.5285V66.1133H0Z" fill="#E5E5E5"/>
<path d="M28.5283 71.5941H121.321V70.9297H149.85V82.8898H121.321V82.2254H28.5283V71.5941Z" fill="#E5E5E5"/>
<path d="M35.5859 122.26V150.001H124.775V122.26H35.5859Z" fill="#7F7F7F"/>
<path d="M35.5859 123.588V148.671H124.925V123.588H35.5859Z" fill="#8A8A8A"/>
<path d="M35.5859 126.246V146.18H124.925V126.246H35.5859Z" fill="#A1A1A1"/>
<path d="M35.5859 128.738V143.688H124.925V128.738H35.5859Z" fill="#B8B8B8"/>
<path d="M35.5859 131.229V141.029H124.925V131.229H35.5859Z" fill="#CFCFCF"/>
<path d="M124.925 126.246V146.014H131.982V126.246H124.925Z" fill="#666666"/>
<path d="M124.925 129.236V143.19H131.982V129.236H124.925Z" fill="#999999"/>
<path d="M124.925 132.891V139.369H131.982V132.891H124.925Z" fill="#CCCCCC"/>
<path d="M124.925 135.383V137.044H131.982V135.383H124.925Z" fill="white"/>
<path d="M124.925 126.246V146.014H131.982V126.246H124.925Z" stroke="black" stroke-width="0.31586"/>
<path d="M35.5859 138.039V149.999H82.1325V138.039H35.5859Z" fill="#CFCFCF"/>
<path d="M35.5859 133.887V138.538H124.775V133.887H35.5859Z" fill="#E5E5E5"/>
<path d="M35.5859 122.26V150.001H124.775V122.26H35.5859Z" stroke="black" stroke-width="0.31586"/>
<path d="M33.7842 146.014V150H83.7842V146.014H33.7842Z" fill="#B2B2B2" stroke="black" stroke-width="0.31586"/>
<path d="M42.793 90.6977V53.3223" stroke="#666666" stroke-width="0.31586"/>
<path d="M0 73.9199V79.9H28.5285V73.9199H0Z" fill="#B2B2B2"/>
<path d="M0 58.1387V64.1187H28.5285V58.1387H0Z" fill="#B2B2B2"/>
<path d="M0 89.7012V95.6812H28.5285V89.7012H0Z" fill="#B2B2B2"/>
<path d="M0 26.5781V32.5582H28.5285V26.5781H0Z" fill="#7F7F7F"/>
<path d="M0 121.428V127.242H28.5285V121.428H0Z" fill="#7F7F7F"/>
<path d="M0 42.3594V48.3394H28.5285V42.3594H0Z" fill="#7F7F7F"/>
<path d="M0 105.648V111.462H28.5285V105.648H0Z" fill="#7F7F7F"/>
<path d="M28.5283 20.598H31.231V0H28.5283V20.598Z" fill="#7F7F7F" stroke="black" stroke-width="0.31586"/>
<path d="M31.2314 19.6011H33.784V13.7871H31.2314V19.6011Z" fill="#7F7F7F" stroke="black" stroke-width="0.31586"/>
<path d="M42.793 114.451V90.6973" stroke="black" stroke-width="0.31586"/>
<path d="M121.321 114.452V39.3691" stroke="black" stroke-width="0.31586"/>
<path d="M28.5283 39.3695H121.321V35.3828H149.85V118.439H121.321V114.453H28.5283V39.3695Z" stroke="black" stroke-width="0.31586"/>
<path d="M0 11.7949V142.027H28.5285V11.7949H0Z" stroke="black" stroke-width="0.31586"/>
<path d="M11.5615 7.80664V146.013H16.8168V7.80664H11.5615Z" fill="#7F7F7F"/>
<path d="M11.5615 16.1133V137.708H16.9669V16.1133H11.5615Z" fill="#8F8F8F"/>
<path d="M11.5615 24.418V129.401H16.9669V24.418H11.5615Z" fill="#9C9C9C"/>
<path d="M11.5615 32.7246V121.097H16.9669V32.7246H11.5615Z" fill="#ABABAB"/>
<path d="M11.5615 41.0293V112.79H16.9669V41.0293H11.5615Z" fill="#BABABA"/>
<path d="M11.5615 49.3359V104.485H16.9669V49.3359H11.5615Z" fill="#C9C9C9"/>
<path d="M11.5615 57.6406V96.1788H16.9669V57.6406H11.5615Z" fill="#D6D6D6"/>
<path d="M11.5615 66.1133V87.8741H16.8168V66.1133H11.5615Z" fill="#E5E5E5"/>
<path d="M11.5615 7.80664V146.013H16.8168V7.80664H11.5615Z" stroke="black" stroke-width="0.31586"/>
</g>
<defs>
<clipPath id="clip0_2109_164236">
<rect width="150" height="150" fill="white"/>
</clipPath>
</defs>
</svg>
