<svg width="150" height="150" viewBox="0 0 150 150" fill="none" xmlns="http://www.w3.org/2000/svg">
<g clip-path="url(#clip0_2109_164305)">
<path d="M9.15918 68.6191H137.387V137.388H9.15918V68.6191Z" fill="#999999" stroke="black" stroke-width="0.3003"/>
<path d="M37.6876 9.1582L81.2312 34.0831L56.3062 77.6267L12.7627 52.7017L37.6876 9.1582Z" fill="#BFBFBF" stroke="black" stroke-width="0.3003"/>
<path d="M74.9254 12.4625V0H137.388V37.3874V74.9249L137.088 81.3814L136.036 87.5375L134.535 93.5435L132.433 99.2493L129.88 104.655L126.727 109.76L123.124 114.565L119.069 119.069L114.565 123.123L109.76 126.727L104.655 129.88L99.2497 132.432L93.544 134.535L87.538 136.036L81.3818 137.087L78.0785 137.237L74.9254 137.387L71.7722 137.237L65.4659 136.637L59.3097 135.435L53.4539 133.483L47.8983 131.231L42.6431 128.228L37.538 124.925L33.0335 121.171L28.6791 116.817L24.9254 112.312L21.622 107.207L18.619 101.952L16.3668 96.3964L14.4148 90.5405L13.2136 84.3844L12.613 78.0781L12.4629 74.9249V73.2733L12.7632 68.6186L13.5139 63.964L14.4148 59.3093L15.7662 54.955L17.4178 50.6006L19.3698 46.5465L21.4719 42.4925L24.0245 38.7387L26.7272 35.2853L29.7302 31.8318L33.0335 28.6787L36.4869 25.8258L40.0905 23.1231L43.9944 20.7207L48.0485 18.6186L52.1025 16.8168L56.4569 15.3153L60.9614 14.1141L65.4659 13.2132L70.1205 12.7628L74.9254 12.4625Z" fill="#D9D9D9" stroke="black" stroke-width="0.3003"/>
<path d="M2.85254 140.691H146.997V146.998H2.85254V140.691Z" fill="#999999" stroke="black" stroke-width="0.3003"/>
<path d="M28.0781 106.156H121.772V109.46H28.0781V106.156Z" fill="#CCCCCC" stroke="black" stroke-width="0.3003"/>
<path d="M18.4688 131.381H131.382V137.387H18.4688V131.381Z" fill="#BFBFBF" stroke="black" stroke-width="0.3003"/>
<path d="M75.3756 106.155C99.7557 106.155 119.52 86.3915 119.52 62.0113C119.52 37.6312 99.7557 17.8672 75.3756 17.8672C50.9955 17.8672 31.2314 37.6312 31.2314 62.0113C31.2314 86.3915 50.9955 106.155 75.3756 106.155Z" fill="#B2B2B2" stroke="#7F7F7F" stroke-width="0.3003"/>
<path d="M75.2251 101.202C96.9516 101.202 114.564 83.5893 114.564 61.8628C114.564 40.1363 96.9516 22.5234 75.2251 22.5234C53.4986 22.5234 35.8857 40.1363 35.8857 61.8628C35.8857 83.5893 53.4986 101.202 75.2251 101.202Z" fill="#A6A6A6"/>
<path d="M75.2257 96.6975C94.3815 96.6975 109.91 81.1686 109.91 62.0128C109.91 42.857 94.3815 27.3281 75.2257 27.3281C56.0699 27.3281 40.541 42.857 40.541 62.0128C40.541 81.1686 56.0699 96.6975 75.2257 96.6975Z" fill="#999999"/>
<path d="M75.3757 91.8921C91.9609 91.8921 105.406 78.4472 105.406 61.8621C105.406 45.2769 91.9609 31.832 75.3757 31.832C58.7906 31.832 45.3457 45.2769 45.3457 61.8621C45.3457 78.4472 58.7906 91.8921 75.3757 91.8921Z" fill="#8C8C8C"/>
<path d="M75.3754 87.3875C89.3898 87.3875 100.751 76.0265 100.751 62.0121C100.751 47.9977 89.3898 36.6367 75.3754 36.6367C61.3609 36.6367 50 47.9977 50 62.0121C50 76.0265 61.3609 87.3875 75.3754 87.3875Z" fill="#7F7F7F"/>
<path d="M74.9249 84.2345C87.032 84.2345 96.8468 74.4197 96.8468 62.3125C96.8468 50.2054 87.032 40.3906 74.9249 40.3906C62.8177 40.3906 53.0029 50.2054 53.0029 62.3125C53.0029 74.4197 62.8177 84.2345 74.9249 84.2345Z" fill="#BFBFBF" stroke="black" stroke-width="0.3003"/>
<path d="M60.21 77.9277H89.9397" stroke="black" stroke-width="0.3003"/>
<path d="M53.9043 57.207H95.9463" stroke="black" stroke-width="0.3003"/>
<path d="M53.9043 67.7168H95.9463" stroke="black" stroke-width="0.3003"/>
<path d="M60.21 46.9961H89.9397" stroke="black" stroke-width="0.3003"/>
<path d="M27.7773 109.158H122.072V112.462H27.7773V109.158Z" fill="#999999"/>
<path d="M75.2256 15.4648H118.769V18.7681H75.2256V15.4648Z" fill="#999999"/>
<path d="M75.2256 12.1621H118.769V15.4654H75.2256V12.1621Z" fill="#CCCCCC" stroke="black" stroke-width="0.3003"/>
<path d="M71.9219 0H140.691V3.15315H71.9219V0Z" fill="#CCCCCC" stroke="black" stroke-width="0.3003"/>
<path d="M0 146.697H150V150.001H0V146.697Z" fill="#CCCCCC" stroke="black" stroke-width="0.3003"/>
<path d="M0 137.688H150V140.39H0V137.688Z" fill="#CCCCCC" stroke="black" stroke-width="0.3003"/>
<path d="M12.1621 137.689L31.081 31.082H37.3873L21.7717 137.689H12.1621Z" fill="#CCCCCC" stroke="black" stroke-width="0.3003"/>
<path d="M137.688 137.687L118.769 15.4648H112.463L128.079 137.687H137.688Z" fill="#CCCCCC" stroke="black" stroke-width="0.3003"/>
<path d="M32.5826 40.3897L31.6817 40.0894L31.0811 38.8882L31.6817 37.687L32.5826 37.3867L33.7838 37.687L34.3844 38.8882L33.7838 40.0894L32.5826 40.3897Z" fill="#4C4C4C"/>
<path d="M31.0806 50.6007L29.8794 50.3004L29.5791 49.0992L29.8794 47.898L31.0806 47.5977L32.2818 47.898L32.5821 49.0992L32.2818 50.3004L31.0806 50.6007Z" fill="#4C4C4C"/>
<path d="M28.6783 63.2139L27.7774 62.6133L27.1768 61.7124L27.7774 60.5112L28.6783 60.2109L29.8795 60.5112L30.1798 61.7124L29.8795 62.6133L28.6783 63.2139Z" fill="#4C4C4C"/>
<path d="M27.1773 75.8267L25.9761 75.2261L25.6758 74.0249L25.9761 73.124L27.1773 72.5234L28.3785 73.124L28.6788 74.0249L28.3785 75.2261L27.1773 75.8267Z" fill="#4C4C4C"/>
<path d="M24.7749 87.5377L23.874 86.9371L23.2734 86.0362L23.874 84.835L24.7749 84.2344L25.9761 84.835L26.2764 86.0362L25.9761 86.9371L24.7749 87.5377Z" fill="#4C4C4C"/>
<path d="M22.3726 99.8507L21.4717 99.5504L20.8711 98.3492L21.4717 97.4483L22.3726 96.8477L23.5738 97.4483L24.1744 98.3492L23.5738 99.5504L22.3726 99.8507Z" fill="#4C4C4C"/>
<path d="M20.2706 112.462L19.0694 112.162L18.4688 110.96L19.0694 109.759L20.2706 109.459L21.1715 109.759L21.7721 110.96L21.1715 112.162L20.2706 112.462Z" fill="#4C4C4C"/>
<path d="M37.3872 112.462L36.186 111.861L35.8857 110.96L36.186 109.759L37.3872 109.459L38.5884 109.759L38.8887 110.96L38.5884 111.861L37.3872 112.462Z" fill="#4C4C4C"/>
<path d="M50 112.462L48.7988 112.162L48.1982 110.96L48.7988 109.759L50 109.459L50.9009 109.759L51.5015 110.96L50.9009 112.162L50 112.462Z" fill="#4C4C4C"/>
<path d="M62.312 112.462L61.4111 111.861L60.8105 110.96L61.4111 109.759L62.312 109.459L63.5132 109.759L63.8135 110.96L63.5132 111.861L62.312 112.462Z" fill="#4C4C4C"/>
<path d="M74.9253 112.462L73.7241 111.861L73.4238 110.96L73.7241 109.759L74.9253 109.459L76.1265 109.759L76.4268 110.96L76.1265 111.861L74.9253 112.462Z" fill="#4C4C4C"/>
<path d="M87.5376 112.462L86.3364 111.861L86.0361 110.96L86.3364 109.759L87.5376 109.459L88.4385 109.759L89.0391 110.96L88.4385 111.861L87.5376 112.462Z" fill="#4C4C4C"/>
<path d="M112.462 112.462L111.261 111.861L110.961 110.96L111.261 109.759L112.462 109.459L113.664 109.759L113.964 110.96L113.664 111.861L112.462 112.462Z" fill="#4C4C4C"/>
<path d="M99.8501 112.462L98.9492 111.861L98.3486 110.96L98.9492 109.759L99.8501 109.459L101.051 109.759L101.652 110.96L101.051 111.861L99.8501 112.462Z" fill="#4C4C4C"/>
<path d="M37.3872 136.788L36.186 136.187L35.8857 135.286L36.186 134.085L37.3872 133.484L38.5884 134.085L38.8887 135.286L38.5884 136.187L37.3872 136.788Z" fill="#4C4C4C"/>
<path d="M74.9253 136.788L73.7241 136.187L73.4238 135.286L73.7241 134.085L74.9253 133.484L76.1265 134.085L76.4268 135.286L76.1265 136.187L74.9253 136.788Z" fill="#4C4C4C"/>
<path d="M112.462 136.788L111.261 136.187L110.961 135.286L111.261 134.085L112.462 133.484L113.664 134.085L113.964 135.286L113.664 136.187L112.462 136.788Z" fill="#4C4C4C"/>
</g>
<defs>
<clipPath id="clip0_2109_164305">
<rect width="150" height="150" fill="white"/>
</clipPath>
</defs>
</svg>
