<svg width="150" height="150" viewBox="0 0 150 150" fill="none" xmlns="http://www.w3.org/2000/svg">
<g clip-path="url(#clip0_2109_164487)">
<path d="M0 13.6074H124.925V150.001H0V13.6074Z" fill="#A6A6A6" stroke="black" stroke-width="0.313782"/>
<path d="M6.15625 143.279V20.3281H118.619" stroke="black" stroke-width="0.313782"/>
<path d="M118.619 20.3281V143.279H6.15625" stroke="white" stroke-width="0.313782"/>
<path d="M115.466 23.7695V139.835H9.30957" stroke="black" stroke-width="0.313782"/>
<path d="M9.30957 139.835V23.7695H115.466" stroke="white" stroke-width="0.313782"/>
<path d="M124.925 13.6066L150 0V136.393L124.925 150V13.6066Z" fill="#7F7F7F" stroke="black" stroke-width="0.313782"/>
<path d="M124.925 13.6066L150 0H24.9249L0 13.6066H124.925Z" fill="#CCCCCC" stroke="black" stroke-width="0.313782"/>
<path d="M62.4623 122.788C83.1938 122.788 99.9999 104.439 99.9999 81.8039C99.9999 59.1693 83.1938 40.8203 62.4623 40.8203C41.7309 40.8203 24.9248 59.1693 24.9248 81.8039C24.9248 104.439 41.7309 122.788 62.4623 122.788Z" fill="#8C8C8C" stroke="black" stroke-width="0.313782"/>
<path d="M62.3128 105.574C74.337 105.574 84.0846 94.9318 84.0846 81.8037C84.0846 68.6756 74.337 58.0332 62.3128 58.0332C50.2886 58.0332 40.541 68.6756 40.541 81.8037C40.541 94.9318 50.2886 105.574 62.3128 105.574Z" fill="#4C4C4C"/>
<path d="M55.8558 89.0156L53.0029 81.8025L55.8558 74.4254L62.6125 71.4746L69.069 74.4254L71.9218 81.8025L69.069 89.0156L62.6125 91.9664L55.8558 89.0156Z" fill="#B2B2B2" stroke="black" stroke-width="0.313782"/>
<path d="M57.9581 86.7212L56.1562 81.8032L57.9581 76.8852L62.4626 74.918L66.9671 76.8852L68.7689 81.8032L66.9671 86.7212L62.4626 88.6885L57.9581 86.7212Z" fill="#7F7F7F"/>
<path d="M30.4806 116.721L27.4775 113.115L24.7748 109.18L22.5226 105.082L20.5706 100.82L19.0691 96.2293L18.0181 91.4752L17.4175 86.7212L17.1172 84.2621V81.8031V79.1802L17.5676 74.2621L18.6187 69.508L19.8199 64.7539L21.6217 60.3277L23.7238 56.2293L26.1262 52.2949L28.979 48.5244L31.9821 45.2457L35.4355 42.131L39.0391 39.508L42.7929 37.213L46.8469 35.4097L51.0511 33.9343L55.5556 32.9507L60.0601 32.4589L62.4625 32.2949L64.5646 32.4589L69.0691 32.9507L73.4235 33.9343L77.6277 35.2457L81.8319 37.213L85.7358 39.508L89.4896 42.131L92.7929 45.2457L94.4445 46.8851" stroke="white" stroke-width="0.313782"/>
<path d="M94.4444 46.8848L97.4474 50.4913L100 54.4257L102.252 58.5241L104.204 62.7864L105.706 67.3766L106.757 72.1307L107.507 76.8848L107.658 79.3438V81.8028V84.4257L107.207 89.3438L106.306 94.0979L104.955 98.852L103.153 103.278L101.201 107.377L98.7988 111.311L95.9459 115.081L92.9429 118.36L89.4895 121.475L85.8859 124.098L81.982 126.393L77.9279 128.196L73.7237 129.672L69.3694 130.655L64.7147 131.147L62.4625 131.311L60.2102 131.147L55.7057 130.655L51.3513 129.672L47.1471 128.36L43.0931 126.393L39.1892 124.098L35.4354 121.475L31.982 118.36L30.4805 116.721" stroke="#7F7F7F" stroke-width="0.313782"/>
<path d="M0 150.001L6.15616 143.279" stroke="black" stroke-width="0.313782"/>
<path d="M118.619 143.279L124.925 150.001" stroke="black" stroke-width="0.313782"/>
<path d="M118.619 20.3287L124.925 13.6074" stroke="black" stroke-width="0.313782"/>
<path d="M6.15616 20.3287L0 13.6074" stroke="black" stroke-width="0.313782"/>
<path d="M22.6727 83.9338L20.8709 84.7535L19.0691 83.9338L18.3184 81.9666L19.0691 79.9994L20.8709 79.1797L22.6727 79.9994L23.4235 81.9666L22.6727 83.9338Z" fill="#E5E5E5"/>
<path d="M32.8826 52.6226L31.0808 51.8029L30.3301 49.8357L31.0808 47.8685L32.8826 47.0488L34.6844 47.8685L35.4352 49.8357L34.6844 51.8029L32.8826 52.6226Z" fill="#E5E5E5"/>
<path d="M60.3601 38.3615L59.6094 36.3943L60.3601 34.4271L62.3121 33.6074L64.1139 34.4271L64.7145 36.3943L64.1139 38.3615L62.3121 39.1812L60.3601 38.3615Z" fill="#E5E5E5"/>
<path d="M89.1895 49.5076L89.9402 47.5404L91.742 46.7207L93.5438 47.5404L94.2946 49.5076L93.5438 51.4748L91.742 52.2945L89.9402 51.4748L89.1895 49.5076Z" fill="#E5E5E5"/>
<path d="M102.103 79.6712L104.055 78.8516L105.856 79.6712L106.607 81.6384L105.856 83.6057L104.055 84.4253L102.103 83.6057L101.502 81.6384L102.103 79.6712Z" fill="#E5E5E5"/>
<path d="M92.0418 110.984L93.8436 111.804L94.5944 113.771L93.8436 115.738L92.0418 116.558L90.24 115.738L89.4893 113.771L90.24 111.804L92.0418 110.984Z" fill="#E5E5E5"/>
<path d="M64.4149 125.245L65.1657 127.213L64.4149 129.18L62.6131 130L60.8113 129.18L60.0605 127.213L60.8113 125.245L62.6131 124.426L64.4149 125.245Z" fill="#E5E5E5"/>
<path d="M35.736 114.097L34.9852 116.065L33.1834 116.884L31.3816 116.065L30.6309 114.097L31.3816 112.13L33.1834 111.311L34.9852 112.13L35.736 114.097Z" fill="#E5E5E5"/>
</g>
<defs>
<clipPath id="clip0_2109_164487">
<rect width="150" height="150" fill="white"/>
</clipPath>
</defs>
</svg>
