<svg width="150" height="150" viewBox="0 0 150 150" fill="none" xmlns="http://www.w3.org/2000/svg">
<path d="M141.892 97.2374H143.393V32.3203H141.892V97.2374Z" fill="#666666"/>
<path d="M18.3184 90.3322L19.0691 86.4648H43.994L44.7448 90.3322H18.3184Z" fill="#B2B2B2" stroke="black" stroke-width="0.407323"/>
<path d="M47.7477 86.4634L59.4594 82.0435V30.9386L47.7477 26.7949H6.45644L0.600586 30.9386V84.2535L6.45644 86.4634H47.7477Z" fill="#999999"/>
<path d="M47.7477 80.1109L59.4594 76.7959V36.4645L47.7477 33.4258H6.45644L0.600586 36.4645V78.4534L6.45644 80.1109H47.7477Z" fill="#BFBFBF"/>
<path d="M47.7477 71.5471L59.4594 69.3372V43.9228L47.7477 41.7129H6.45644L0.600586 43.9228V70.4422L6.45644 71.5471H47.7477Z" fill="#E5E5E5"/>
<path d="M47.7477 59.668L59.4594 59.3918V53.8669L47.7477 53.3145H6.45644L0.600586 53.8669V59.668H6.45644H47.7477Z" fill="#F2F2F2"/>
<path d="M47.7477 86.4634L59.4594 82.0435V30.9386L47.7477 26.7949H6.45644L0.600586 30.9386V84.2535L6.45644 86.4634H47.7477Z" stroke="black" stroke-width="0.407323"/>
<path d="M16.8164 39.502H46.2458V86.4633H16.8164V39.502Z" fill="#333333" stroke="black" stroke-width="0.407323"/>
<path d="M16.0664 60.7734H46.9973V62.9834H16.0664V60.7734Z" fill="#E5E5E5"/>
<path d="M16.0664 67.127H46.9973V69.3369H16.0664V67.127Z" fill="#E5E5E5"/>
<path d="M16.0664 41.7129H46.9973V43.9228H16.0664V41.7129Z" fill="#E5E5E5"/>
<path d="M16.0664 48.0664H46.9973V50.2764H16.0664V48.0664Z" fill="#E5E5E5"/>
<path d="M16.0664 72.6523H46.9973V74.586H16.0664V72.6523Z" fill="#BFBFBF"/>
<path d="M16.0664 76.7949H46.9973V79.0049H16.0664V76.7949Z" fill="#BFBFBF"/>
<path d="M16.0664 81.2148H46.9973V83.1485H16.0664V81.2148Z" fill="#999999"/>
<path d="M16.0664 54.4199H46.9973V56.6299H16.0664V54.4199Z" fill="#F2F2F2"/>
<path d="M6.45605 86.4634V26.7949" stroke="black" stroke-width="0.407323"/>
<path d="M15.3154 26.7949V86.4634" stroke="black" stroke-width="0.407323"/>
<path d="M47.748 26.7949V86.4634" stroke="black" stroke-width="0.407323"/>
<path d="M15.3154 94.4754V90.3317H24.1743V80.9395H38.889V90.3317H47.7479V94.4754H15.3154Z" fill="#D9D9D9" stroke="black" stroke-width="0.407323"/>
<path d="M2.10254 129.834H134.535V145.856H2.10254V129.834Z" fill="#B2B2B2" stroke="black" stroke-width="0.407323"/>
<path d="M3.60352 127.073L6.45637 95.8573H56.6065V86.465H91.8918V78.1777H124.174V127.073H3.60352Z" fill="#E5E5E5" stroke="black" stroke-width="0.407323"/>
<path d="M124.174 18.7852H141.892V121.548H124.174V18.7852Z" fill="#999999" stroke="black" stroke-width="0.407323"/>
<path d="M127.177 3.86719H138.888V108.011H127.177V3.86719Z" fill="#A6A6A6"/>
<path d="M22.6727 119.889C25.0776 119.889 27.0271 116.303 27.0271 111.878C27.0271 107.454 25.0776 103.867 22.6727 103.867C20.2679 103.867 18.3184 107.454 18.3184 111.878C18.3184 116.303 20.2679 119.889 22.6727 119.889Z" fill="#333333"/>
<path d="M59.459 67.4024H62.462V45.8555H59.459V67.4024Z" fill="#B2B2B2" stroke="black" stroke-width="0.407323"/>
<path d="M63.8133 109.116C66.2182 109.116 68.1677 105.529 68.1677 101.105C68.1677 96.6804 66.2182 93.0938 63.8133 93.0938C61.4085 93.0938 59.459 96.6804 59.459 101.105C59.459 105.529 61.4085 109.116 63.8133 109.116Z" fill="#333333"/>
<path d="M109.46 101.104C111.865 101.104 113.814 97.5175 113.814 93.0931C113.814 88.6687 111.865 85.082 109.46 85.082C107.055 85.082 105.105 88.6687 105.105 93.0931C105.105 97.5175 107.055 101.104 109.46 101.104Z" fill="#333333"/>
<path d="M94.7451 97.2383H102.102V102.763H94.7451V97.2383Z" fill="white"/>
<path d="M94.7451 83.7012H102.102V94.4747H94.7451V83.7012Z" fill="white"/>
<path d="M96.2461 98.6191H100.751V101.382H96.2461V98.6191Z" fill="#990000"/>
<path d="M62.4629 83.7021V37.8457H77.1776V47.238H86.0365V40.3319H124.175V59.3927L119.82 75.691H91.8923V83.7021H62.4629Z" fill="#CCCCCC" stroke="black" stroke-width="0.407323"/>
<path d="M127.177 3.86719H138.888V95.8561H127.177V3.86719Z" fill="#BFBFBF"/>
<path d="M127.177 3.86719H138.888V77.0716H127.177V3.86719Z" fill="#D9D9D9"/>
<path d="M127.177 3.86719H138.888V51.1048H127.177V3.86719Z" fill="#F2F2F2"/>
<path d="M127.177 116.298V3.86719H138.888V116.298" stroke="black" stroke-width="0.407323"/>
<path d="M35.1348 29.5581L34.5342 24.0332H53.6032L52.8525 29.5581H35.1348Z" fill="#B2B2B2" stroke="black" stroke-width="0.407323"/>
<path d="M34.5342 22.9279L35.8855 14.6406H52.1017L53.6032 22.9279H34.5342Z" fill="#E5E5E5" stroke="black" stroke-width="0.407323"/>
<path d="M33.0332 22.9277H55.1053V24.0327H33.0332V22.9277Z" fill="#F2F2F2" stroke="black" stroke-width="0.407323"/>
<path d="M65.3154 78.1758V67.4023H72.6728" stroke="white" stroke-width="0.407323"/>
<path d="M72.673 67.4023V78.1758H65.4658" stroke="black" stroke-width="0.407323"/>
<path d="M113.964 70.1655V64.6406H119.82" stroke="white" stroke-width="0.407323"/>
<path d="M119.82 64.6406V70.1655H113.964" stroke="black" stroke-width="0.407323"/>
<path d="M94.7451 94.4747V83.7012H102.102" stroke="#999999" stroke-width="0.407323"/>
<path d="M94.7451 102.763V97.2383H102.102" stroke="#999999" stroke-width="0.407323"/>
<path d="M91.1416 78.4538V75.6914H124.175V78.4538H91.1416Z" fill="#F2F2F2" stroke="black" stroke-width="0.407323"/>
<path d="M55.8555 86.4636V83.7012H91.8915V86.4636H55.8555Z" fill="#F2F2F2" stroke="black" stroke-width="0.407323"/>
<path d="M5.70605 95.8562V93.0938H56.607V95.8562H5.70605Z" fill="#F2F2F2" stroke="black" stroke-width="0.407323"/>
<path d="M0.600586 145.855H136.036V148.618H0.600586V145.855Z" fill="#F2F2F2" stroke="black" stroke-width="0.407323"/>
<path d="M0.600586 127.072H136.036V129.835H0.600586V127.072Z" fill="#F2F2F2" stroke="black" stroke-width="0.407323"/>
<path d="M125.676 1.10547H140.39V3.8679H125.676V1.10547Z" fill="#D9D9D9" stroke="black" stroke-width="0.407323"/>
<path d="M125.676 34.8066H140.39V37.5691H125.676V34.8066Z" fill="#D9D9D9" stroke="black" stroke-width="0.407323"/>
<path d="M125.676 67.4023H140.39V70.1648H125.676V67.4023Z" fill="#D9D9D9" stroke="black" stroke-width="0.407323"/>
<path d="M125.676 98.6191H140.39V101.382H125.676V98.6191Z" fill="#D9D9D9" stroke="black" stroke-width="0.407323"/>
<path d="M143.394 127.072H147.598V2.48633H143.394V127.072Z" fill="#7F7F7F"/>
<path d="M143.394 114.641H147.748V14.6406H143.394V114.641Z" fill="#969696"/>
<path d="M143.394 102.486H147.748V26.7949H143.394V102.486Z" fill="#ABABAB"/>
<path d="M143.394 90.3324H147.748V38.9512H143.394V90.3324Z" fill="#C2C2C2"/>
<path d="M143.394 78.1773H147.748V51.1055H143.394V78.1773Z" fill="#D9D9D9"/>
<path d="M143.394 127.072H147.748V2.48633H143.394V127.072Z" stroke="black" stroke-width="0.407323"/>
<path d="M147.748 8.01172H149.25V16.0228H147.748V8.01172Z" fill="#CCCCCC" stroke="black" stroke-width="0.407323"/>
<path d="M147.748 29.0059H149.25V37.0169H147.748V29.0059Z" fill="#CCCCCC" stroke="black" stroke-width="0.407323"/>
<path d="M147.748 50.2754H149.25V58.2864H147.748V50.2754Z" fill="#CCCCCC" stroke="black" stroke-width="0.407323"/>
<path d="M147.748 71.2715H149.25V79.2825H147.748V71.2715Z" fill="#CCCCCC" stroke="black" stroke-width="0.407323"/>
<path d="M147.748 92.541H149.25V100.552H147.748V92.541Z" fill="#CCCCCC" stroke="black" stroke-width="0.407323"/>
<path d="M147.748 113.535H149.25V121.546H147.748V113.535Z" fill="#CCCCCC" stroke="black" stroke-width="0.407323"/>
</svg>
