<svg width="150" height="150" viewBox="0 0 150 150" fill="none" xmlns="http://www.w3.org/2000/svg">
<g clip-path="url(#clip0_2109_164515)">
<path d="M0 0H150V150H0V0Z" fill="#CCCCCC"/>
<path d="M0 106.456L150 43.6934V150H0V106.456Z" fill="#C7C7C7"/>
<path d="M0 112.763L150 50V150H0V112.763Z" fill="#C2C2C2"/>
<path d="M0 122.071L150 59.3086V149.999H0V122.071Z" fill="#BDBDBD"/>
<path d="M0 0H150V150H0V0Z" stroke="black" stroke-width="0.3003"/>
<path d="M101.351 138.889L83.934 143.694H65.916L48.4986 138.889L32.883 129.88L19.9701 117.267L10.8109 101.351L6.15625 83.934V65.916L10.9611 48.1983L19.9701 32.5827L32.5827 19.9701L48.4986 10.8109L65.916 6.15625H83.934L101.652 10.8109L117.267 19.9701L129.88 32.5827L139.039 48.1983L143.694 65.916V83.934L139.039 101.351L129.88 117.267L117.267 129.88L101.351 138.889Z" fill="#7F7F7F" stroke="black" stroke-width="0.3003"/>
<path d="M100.15 136.185L83.6339 140.54H66.2165L49.7 136.185L34.6849 127.477L22.3726 115.164L13.6639 100.149L9.30957 83.6329L9.45972 66.2155L13.6639 49.3987L22.3726 34.684L34.6849 22.3717L49.7 13.6629L66.2165 9.30859H83.6339L100.15 13.6629L115.165 22.3717L127.478 34.684L136.186 49.699L140.541 66.2155V83.6329L136.186 100.149L127.478 115.164L115.165 127.477L100.15 136.185Z" fill="#191919"/>
<path d="M85.4351 137.387V85.4355H64.4141V137.387H85.4351Z" fill="#B2B2B2"/>
<path d="M85.4355 137.387L82.7328 132.733L80.6307 128.078L78.9791 123.123L78.0782 118.168L77.6277 113.063V107.958L78.2283 102.853L79.4295 97.898L81.2313 93.0932L83.6337 88.4385L84.5346 86.937L85.4355 85.4355H84.0842H64.4145L61.7118 89.9401L59.7598 94.7449L58.2583 99.5497L57.2073 104.655L56.907 107.958L56.7568 109.61V111.412L57.0571 116.517L57.8079 121.472L59.1592 126.427L61.1112 131.231L63.5136 135.886L64.4145 137.387H65.7658H85.4355Z" fill="#CCCCCC"/>
<path d="M85.4355 137.387V85.4355H64.4145L61.7118 89.9401L59.7598 94.7449L58.2583 99.5497L57.2073 104.655L56.7568 109.61L56.907 114.715L57.5076 119.82L58.7088 124.775L60.3604 129.73L62.6127 134.384L64.4145 137.387H85.4355Z" stroke="black" stroke-width="0.3003"/>
<path d="M134.385 97.1476L89.0393 71.0215L78.8291 89.0395L123.874 115.166L134.385 97.1476Z" fill="#B2B2B2"/>
<path d="M134.385 97.1476H128.979L123.874 96.547L118.769 95.496L113.964 93.8443L109.31 91.5921L104.805 89.0395L100.751 85.8863L96.9973 82.4329L93.694 78.3788L90.691 74.1746L89.7901 72.523L89.0393 71.0215L88.4387 72.0725L85.8862 76.7272L83.3336 81.0815L80.7811 85.586L79.4297 87.8383L78.8291 89.0395L79.5799 90.541L82.2826 95.0455L85.5859 99.0996L89.0393 102.853L93.0934 106.157L97.4477 108.859L101.952 111.262L106.757 113.064L111.712 114.265L116.817 115.015L118.619 115.166H120.271H122.072H123.874L126.427 110.661L129.129 106.157L131.682 101.652L133.634 98.1987L134.385 97.1476Z" fill="#CCCCCC"/>
<path d="M134.385 97.1476L89.0393 71.0215L78.8291 89.0395L81.3817 93.6942L84.3847 97.8984L87.8381 101.652L91.742 105.106L95.9462 108.109L100.451 110.511L105.105 112.463L110.06 113.964L115.165 114.865L120.271 115.166H123.874L134.385 97.1476Z" stroke="black" stroke-width="0.3003"/>
<path d="M123.874 34.6855L78.8291 60.8117L89.0393 78.8297L134.385 52.7036L123.874 34.6855Z" fill="#B2B2B2"/>
<path d="M123.874 34.6855L121.171 39.3402L118.168 43.5444L114.565 47.2982L110.811 50.7516L106.607 53.6045L102.102 56.157L97.4477 58.109L92.4928 59.6105L87.5378 60.6615L82.2826 60.9618H80.6309L78.8291 60.8117L79.4297 62.0129L81.9823 66.3672L84.5348 71.0219L87.0874 75.3762L89.0393 78.8297H90.691H92.4928L97.748 78.5294L102.853 77.6285L107.808 76.127L112.613 74.175L117.117 71.6225L121.322 68.6195L125.075 65.3162L128.679 61.4123L131.682 57.2081L133.484 54.3552L134.385 52.7036L133.634 51.6525L131.081 47.148L128.379 42.6435L125.826 38.139L124.475 35.8867L123.874 34.6855Z" fill="#CCCCCC"/>
<path d="M123.874 34.6855L78.8291 60.8117L89.0393 78.8297H90.691H95.9462L101.201 77.9288L106.307 76.7276L110.961 74.7756L115.616 72.5234L119.82 69.6705L123.874 66.3672L127.478 62.7636L130.781 58.7096L133.484 54.3552L134.385 52.7036L123.874 34.6855Z" stroke="black" stroke-width="0.3003"/>
<path d="M64.4141 12.4629V64.4148H85.4351V12.4629H64.4141Z" fill="#B2B2B2"/>
<path d="M64.4141 12.4629L67.1168 17.1175L69.2189 21.7722L70.7204 26.7272L71.7714 31.6821L72.2219 36.7872L72.0717 41.8923L71.4711 46.9974L70.2699 51.9524L68.4681 56.7572L66.2159 61.4118L65.315 62.9133L64.4141 64.4148H65.7654H85.4351L88.1378 59.9103L90.0897 55.1055L91.5912 50.3007L92.6423 45.1956L92.9426 41.8923L93.0927 40.2407V38.4389L92.7924 33.3338L92.0417 28.3788L90.6903 23.4239L88.7384 18.619L86.336 13.9644L85.4351 12.4629H84.0837H64.4141Z" fill="#CCCCCC"/>
<path d="M64.4141 12.4629V64.4148H85.4351L88.1378 59.9103L90.0897 55.1055L91.5912 50.3007L92.6423 45.1956L93.0927 40.2407L92.9426 35.1356L92.342 30.0305L91.1408 25.0755L89.4891 20.1205L87.2369 15.4659L85.4351 12.4629H64.4141Z" stroke="black" stroke-width="0.3003"/>
<path d="M15.4658 52.7036L60.8112 78.8297L71.0214 60.8117L25.9763 34.6855L15.4658 52.7036Z" fill="#B2B2B2"/>
<path d="M15.4658 52.7036H20.8712L25.9763 53.3042L31.0814 54.3552L35.8862 56.0069L40.5409 58.2591L45.0454 60.8117L49.0995 63.9648L52.8532 67.4183L56.1565 71.4723L59.1595 75.6765L60.0604 77.3282L60.8112 78.8297L61.4118 77.7786L63.9643 73.124L66.5169 68.7696L69.0694 64.2651L70.4208 62.0129L71.0214 60.8117L70.2706 59.3102L67.5679 54.8057L64.2646 50.7516L60.8112 46.9979L56.7571 43.6946L52.4028 40.9919L47.8983 38.5895L43.0934 36.7876L38.1385 35.5864L33.0334 34.8357L31.2316 34.6855H29.5799H27.7781H25.9763L23.4238 39.1901L20.7211 43.6946L18.1685 48.1991L16.2166 51.6525L15.4658 52.7036Z" fill="#CCCCCC"/>
<path d="M15.4658 52.7036L60.8112 78.8297L71.0214 60.8117L68.4688 56.157L65.4658 51.9528L62.0124 48.1991L58.1085 44.7456L53.9043 41.7426L49.3998 39.3402L44.7451 37.3882L39.7901 35.8867L34.685 34.9858L29.5799 34.6855H25.9763L15.4658 52.7036Z" stroke="black" stroke-width="0.3003"/>
<path d="M25.9763 115.166L71.0214 89.0395L60.8112 71.0215L15.4658 97.1476L25.9763 115.166Z" fill="#B2B2B2"/>
<path d="M25.9763 115.166L28.679 110.511L31.682 106.307L35.2856 102.553L39.0394 99.0996L43.2436 96.2467L47.7481 93.6942L52.4028 91.7422L57.3577 90.2407L62.3127 89.1897L67.5679 88.8894H69.2196L71.0214 89.0395L70.4208 87.8383L67.8682 83.4839L65.3157 78.8293L62.7631 74.4749L60.8112 71.0215H59.1595H57.3577L52.1025 71.3218L46.9974 72.2227L42.0424 73.7242L37.2376 75.6761L32.7331 78.2287L28.5289 81.2317L24.7751 84.535L21.1715 88.4389L18.1685 92.6431L16.3667 95.496L15.4658 97.1476L16.2166 98.1987L18.7691 102.703L21.4718 107.208L24.0244 111.712L25.3757 113.964L25.9763 115.166Z" fill="#CCCCCC"/>
<path d="M25.9763 115.166L71.0214 89.0395L60.8112 71.0215H59.1595H53.9043L48.649 71.9224L43.5439 73.1236L38.8892 75.0755L34.2346 77.3278L30.0304 80.1806L25.9763 83.4839L22.3727 87.0876L19.0694 91.1416L16.3667 95.496L15.4658 97.1476L25.9763 115.166Z" stroke="black" stroke-width="0.3003"/>
<path d="M74.9248 93.2441C85.0417 93.2441 93.2431 85.0427 93.2431 74.9257C93.2431 64.8088 85.0417 56.6074 74.9248 56.6074C64.8078 56.6074 56.6064 64.8088 56.6064 74.9257C56.6064 85.0427 64.8078 93.2441 74.9248 93.2441Z" fill="#666666" stroke="black" stroke-width="0.3003"/>
<path d="M74.9252 90.5398C83.5495 90.5398 90.5408 83.5485 90.5408 74.9242C90.5408 66.2999 83.5495 59.3086 74.9252 59.3086C66.3009 59.3086 59.3096 66.2999 59.3096 74.9242C59.3096 83.5485 66.3009 90.5398 74.9252 90.5398Z" fill="#E5E5E5"/>
<path d="M74.9254 80.0305C77.7449 80.0305 80.0305 77.7449 80.0305 74.9254C80.0305 72.1059 77.7449 69.8203 74.9254 69.8203C72.1059 69.8203 69.8203 72.1059 69.8203 74.9254C69.8203 77.7449 72.1059 80.0305 74.9254 80.0305Z" fill="#7F7F7F"/>
<path d="M9.30957 146.096H18.6189V148.949H9.30957V146.096Z" fill="black"/>
<path d="M21.7715 146.096H31.0808V148.949H21.7715V146.096Z" fill="black"/>
<path d="M43.6934 146.096H53.0027V148.949H43.6934V146.096Z" fill="black"/>
<path d="M140.541 148.949H131.231V146.096H140.541V148.949Z" fill="black"/>
<path d="M128.078 148.949H118.769V146.096H128.078V148.949Z" fill="black"/>
<path d="M106.156 148.949H96.8467V146.096H106.156V148.949Z" fill="black"/>
</g>
<defs>
<clipPath id="clip0_2109_164515">
<rect width="150" height="150" fill="white"/>
</clipPath>
</defs>
</svg>
