<svg width="150" height="150" viewBox="0 0 150 150" fill="none" xmlns="http://www.w3.org/2000/svg">
<g clip-path="url(#clip0_2109_164733)">
<path d="M110.961 9.1582H124.775V46.6957H110.961V9.1582Z" fill="#CCCCCC"/>
<path d="M110.961 25.6749L124.775 22.6719V46.6959H110.961V25.6749Z" fill="#C7C7C7"/>
<path d="M110.961 27.7779L124.775 24.4746V46.6968H110.961V27.7779Z" fill="#C2C2C2"/>
<path d="M110.961 29.5792L124.775 26.5762V46.6963H110.961V29.5792Z" fill="#BDBDBD"/>
<path d="M110.961 9.1582H124.775V46.6957H110.961V9.1582Z" stroke="black" stroke-width="0.3003"/>
<path d="M0 46.6969H3.003V40.3906H6.15616V46.6969H143.694V40.3906H146.547V46.6969H149.85V143.694H146.547V149.85H143.694V143.694H6.15616V149.85H3.003V143.694H0V46.6969Z" fill="#B2B2B2"/>
<path d="M0 49.6994H3.003V43.6934H6.15616V49.6994H143.694V43.6934H146.847V49.6994H149.85V140.69H146.847V146.546H143.694V140.69H6.15616V146.546H3.003V140.69H0V49.6994Z" fill="#B8B8B8"/>
<path d="M0 52.4015H3.003V46.9961H6.15616V52.4015H143.694V46.9961H146.847V52.4015H149.85V137.537H146.847V143.242H143.694V137.537H6.15616V143.242H3.003V137.537H0V52.4015Z" fill="#BDBDBD"/>
<path d="M0 55.4059H3.003V50.3008H6.15616V55.4059H143.694V50.3008H146.847V55.4059H149.85V134.985H146.847V140.091H143.694V134.985H6.15616V140.091H3.003V134.985H0V55.4059Z" fill="#C2C2C2"/>
<path d="M0 58.4083H3.003V53.6035H6.15616V58.4083H143.694V53.6035H146.847V58.4083H149.85V131.832H146.847V136.787H143.694V131.832H6.15616V136.787H3.003V131.832H0V58.4083Z" fill="#C4C4C4"/>
<path d="M0 61.1105H3.003V56.9062H6.15616V61.1105H143.694V56.9062H146.847V61.1105H149.85V129.279H146.847V133.483H143.694V129.279H6.15616V133.483H3.003V129.279H0V61.1105Z" fill="#C9C9C9"/>
<path d="M0 64.1148H3.003V60.2109H6.15616V64.1148H143.694V60.2109H146.847V64.1148H149.85V126.277H146.847V130.031H143.694V126.277H6.15616V130.031H3.003V126.277H0V64.1148Z" fill="#CFCFCF"/>
<path d="M0 67.1168H3.003V63.2129H6.15616V67.1168H143.694V63.2129H146.847V67.1168H149.85V123.273H146.847V126.877H143.694V123.273H6.15616V126.877H3.003V123.273H0V67.1168Z" fill="#D4D4D4"/>
<path d="M0 69.8189H3.003V66.5156H6.15616V69.8189H143.694V66.5156H146.847V69.8189H149.85V120.57H146.847V123.873H143.694V120.57H6.15616V123.873H3.003V120.57H0V69.8189Z" fill="#D9D9D9"/>
<path d="M0 72.8233H3.003V69.8203H6.15616V72.8233H143.694V69.8203H146.847V72.8233H149.85V117.568H146.847V120.571H143.694V117.568H6.15616V120.571H3.003V117.568H0V72.8233Z" fill="#DEDEDE"/>
<path d="M0 75.8257H3.003V73.123H6.15616V75.8257H143.694V73.123H146.847V75.8257H149.85V114.564H146.847V117.267H143.694V114.564H6.15616V117.267H3.003V114.564H0V75.8257Z" fill="#E3E3E3"/>
<path d="M0 78.5279H3.003V76.4258H6.15616V78.5279H143.694V76.4258H146.847V78.5279H149.85V111.861H146.847V113.963H143.694V111.861H6.15616V113.963H3.003V111.861H0V78.5279Z" fill="#E8E8E8"/>
<path d="M0 81.5323H3.003V79.7305H6.15616V81.5323H143.694V79.7305H146.847V81.5323H149.85V108.86H146.847V110.661H143.694V108.86H6.15616V110.661H3.003V108.86H0V81.5323Z" fill="#EBEBEB"/>
<path d="M0 84.5347H3.003V83.0332H6.15616V84.5347H143.694V83.0332H146.847V84.5347H149.85V105.856H146.847V107.358H143.694V105.856H6.15616V107.358H3.003V105.856H0V84.5347Z" fill="#F0F0F0"/>
<path d="M0 87.2368H3.003V86.3359H6.15616V87.2368H143.694V86.3359H146.847V87.2368H149.85V103.153H146.847V104.054H143.694V103.153H6.15616V104.054H3.003V103.153H0V87.2368Z" fill="#F5F5F5"/>
<path d="M0 90.2393H3.003V89.6387H6.15616V90.2393H143.694V89.6387H146.847V90.2393H149.85V100.149H146.847V100.75H143.694V100.149H6.15616V100.75H3.003V100.149H0V90.2393Z" fill="#FAFAFA"/>
<path d="M0 93.2437H3.003V92.9434H6.15616V93.2437H143.694V92.9434H146.547V93.2437H149.85V97.4479H146.547H143.694H6.15616H3.003H0V93.2437Z" fill="white"/>
<path d="M0 46.6969H3.003V40.3906H6.15616V46.6969H143.694V40.3906H146.547V46.6969H149.85V143.694H146.547V149.85H143.694V143.694H6.15616V149.85H3.003V143.694H0V46.6969Z" stroke="black" stroke-width="0.3003"/>
<path d="M3.00293 143.694V46.6973" stroke="#7F7F7F" stroke-width="0.3003"/>
<path d="M6.15625 143.694V46.6973" stroke="#7F7F7F" stroke-width="0.3003"/>
<path d="M143.693 143.694V46.6973" stroke="#7F7F7F" stroke-width="0.3003"/>
<path d="M146.547 143.694V46.6973" stroke="#7F7F7F" stroke-width="0.3003"/>
<path d="M12.3125 127.178H18.0182V121.172H12.3125V127.178Z" fill="#CCCCCC" stroke="black" stroke-width="0.3003"/>
<path d="M137.237 127.178H131.832V121.172H137.237V127.178Z" fill="#CCCCCC" stroke="black" stroke-width="0.3003"/>
<path d="M137.237 60.8105H131.832V67.1169H137.237V60.8105Z" fill="#CCCCCC" stroke="black" stroke-width="0.3003"/>
<path d="M12.3125 60.8105H18.0182V67.1169H12.3125V60.8105Z" fill="#CCCCCC" stroke="black" stroke-width="0.3003"/>
<path d="M12.3125 127.178H16.2164V131.832H13.0633L12.3125 127.178Z" fill="#B2B2B2" stroke="black" stroke-width="0.3003"/>
<path d="M137.237 127.178H133.483V131.832H136.486L137.237 127.178Z" fill="#B2B2B2" stroke="black" stroke-width="0.3003"/>
<path d="M137.237 60.8107H133.483V56.0059H136.486L137.237 60.8107Z" fill="#B2B2B2" stroke="black" stroke-width="0.3003"/>
<path d="M12.3125 60.8107H16.2164V56.0059H13.0633L12.3125 60.8107Z" fill="#B2B2B2" stroke="black" stroke-width="0.3003"/>
<path d="M62.3125 42.1914H112.463V53.9031H62.3125V42.1914Z" fill="#CCCCCC"/>
<path d="M62.3125 48.4982L112.463 43.6934V53.9036H62.3125V48.4982Z" fill="#C7C7C7"/>
<path d="M62.3125 50.9005L112.463 46.0957V53.9035H62.3125V50.9005Z" fill="#C2C2C2"/>
<path d="M62.3125 52.4025L112.463 47.5977V53.904H62.3125V52.4025Z" fill="#BDBDBD"/>
<path d="M62.3125 42.1914H112.463V53.9031H62.3125V42.1914Z" stroke="black" stroke-width="0.3003"/>
<path d="M63.8135 30.1797H67.1168V42.1917H63.8135V30.1797Z" fill="#CCCCCC" stroke="black" stroke-width="0.3003"/>
<path d="M107.657 30.1797H110.961V42.1917H107.657V30.1797Z" fill="#CCCCCC" stroke="black" stroke-width="0.3003"/>
<path d="M67.1172 35.8867H107.658V37.3882H67.1172V35.8867Z" fill="#CCCCCC" stroke="black" stroke-width="0.3003"/>
<path d="M67.1172 31.9824H107.658V32.583H67.1172V31.9824Z" fill="#CCCCCC" stroke="black" stroke-width="0.3003"/>
<path d="M67.1172 29.5801H107.658V31.9825H67.1172V29.5801Z" fill="#6699FF" stroke="black" stroke-width="0.3003"/>
<path d="M67.1172 27.1777H107.658V29.5801H67.1172V27.1777Z" fill="#00197F"/>
<path d="M66.2158 3.75391H108.558V27.1773H66.2158V3.75391Z" fill="#194CB2"/>
<path d="M94.1446 3.75375L92.9434 2.55255V1.2012L94.1446 0H95.6461L96.8473 1.2012V2.55255L95.6461 3.75375H94.1446Z" stroke="black" stroke-width="0.3003"/>
<path d="M66.2158 5.40625H108.558V25.3762H66.2158V5.40625Z" fill="#2659BF"/>
<path d="M66.2158 7.20703H108.558V23.8737H66.2158V7.20703Z" fill="#3366CC"/>
<path d="M66.2158 9.00977H108.558V22.0728H66.2158V9.00977Z" fill="#4073D9"/>
<path d="M66.2158 10.5098H108.558V20.2695H66.2158V10.5098Z" fill="#4C7FE5"/>
<path d="M66.2158 12.3125H108.558V18.769H66.2158V12.3125Z" fill="#598CF2"/>
<path d="M66.2158 14.1133H108.558V16.9661H66.2158V14.1133Z" fill="#6699FF"/>
<path d="M81.2314 3.75391H106.156V20.2704H81.2314V3.75391Z" fill="#194CB2" stroke="black" stroke-width="0.3003"/>
<path d="M66.2158 3.75391H108.558V27.1773H66.2158V3.75391Z" stroke="black" stroke-width="0.3003"/>
<path d="M81.2314 5.40625H106.156" stroke="black" stroke-width="0.3003"/>
<path d="M106.156 7.95703H81.2314" stroke="black" stroke-width="0.3003"/>
<path d="M81.2314 10.5098H106.156" stroke="black" stroke-width="0.3003"/>
<path d="M106.156 12.7637H81.2314" stroke="black" stroke-width="0.3003"/>
<path d="M81.2314 15.166H106.156" stroke="black" stroke-width="0.3003"/>
<path d="M106.156 18.0176H81.2314" stroke="black" stroke-width="0.3003"/>
<path d="M87.2373 12.6133H99.8499V24.7754H87.2373V12.6133Z" fill="#6699FF"/>
<path d="M87.2373 24.7754V12.6133H99.8499" stroke="#B2CCFF" stroke-width="0.3003"/>
<path d="M87.2373 24.7754H99.8499V12.6133" stroke="#003399" stroke-width="0.3003"/>
</g>
<defs>
<clipPath id="clip0_2109_164733">
<rect width="150" height="150" fill="white"/>
</clipPath>
</defs>
</svg>
