<svg width="150" height="150" viewBox="0 0 150 150" fill="none" xmlns="http://www.w3.org/2000/svg">
<g clip-path="url(#clip0_2109_164818)">
<path d="M109.135 50L110.577 56.0897L111.538 62.1795L112.26 68.5897L112.5 74.6795L112.26 82.3718L111.298 89.7436L109.856 97.1154L107.933 103.846L105.769 110.577L102.885 116.667L99.5192 122.436L95.9135 127.885L91.8269 132.692L87.5 137.179L82.9327 140.705L78.125 143.91L72.8365 146.474L67.5481 148.397L62.0192 149.679L56.25 150L50.4808 149.679L44.9519 148.397L39.6635 146.474L34.375 143.91L29.5673 140.705L24.7596 137.179L20.4327 132.692L16.5865 127.885L12.9808 122.436L9.61538 116.667L6.73077 110.577L4.32692 103.846L2.64423 97.1154L1.20192 89.7436L0.240385 82.3718L0 74.6795L0.240385 66.9872L1.20192 59.6154L2.64423 52.5641L4.32692 45.8333L6.73077 39.1026L9.61538 33.0128L12.9808 27.2436L16.5865 21.7949L20.4327 16.9872L24.7596 12.8205L29.5673 8.97436L34.375 5.76923L39.6635 3.52564L44.9519 1.60256L50.4808 0.320513L56.25 0H150V50H109.135Z" fill="#808080" stroke="black" stroke-width="0.555144"/>
</g>
<defs>
<clipPath id="clip0_2109_164818">
<rect width="150" height="150" fill="white"/>
</clipPath>
</defs>
</svg>
