<svg width="150" height="150" viewBox="0 0 150 150" fill="none" xmlns="http://www.w3.org/2000/svg">
<g clip-path="url(#clip0_2109_164291)">
<path d="M139.097 68.6191L142.614 143.694H14.5957V93.5441L139.097 68.6191Z" fill="#CCCCCC"/>
<path d="M126.436 68.6191L129.25 143.694H27.96V93.6942L126.436 68.6191Z" fill="#C4C4C4"/>
<path d="M113.775 68.6191L115.885 143.694H41.501V93.6942L113.775 68.6191Z" fill="#BABABA"/>
<path d="M101.114 68.6191L102.521 143.694H54.6895V93.5441L101.114 68.6191Z" fill="#B2B2B2"/>
<path d="M139.097 68.6191L142.614 143.694H14.5957V93.5441L139.097 68.6191Z" stroke="black" stroke-width="0.324986"/>
<path d="M44.1384 18.1683L49.4139 16.3665L54.8653 14.865L60.3166 13.6638L65.768 12.913L71.2193 12.4626L76.319 12.6127L83.0013 13.2133L89.5077 14.2644L95.6625 15.916L101.641 18.0181L107.269 20.7208L112.544 23.7238L117.468 27.1773L121.864 30.931L125.909 35.1352L129.426 39.6397L132.591 44.2944L135.053 49.3995L136.987 54.6547L138.218 60.0602L138.922 65.7659L139.097 68.6187L138.922 71.4716L138.218 77.1773L136.987 82.5827L135.053 87.9881L132.591 92.943L129.426 97.7478L125.909 102.252L121.864 106.457L117.468 110.21L112.544 113.664L107.269 116.817L101.641 119.369L95.6625 121.622L89.5077 123.273L83.0013 124.324L76.319 124.925L72.9778 125.075L69.6367 124.925L62.9544 124.324L56.6238 123.273L50.469 121.622L44.4901 119.369L39.0388 116.817L33.7633 113.664L28.8395 110.21L24.4433 106.457L20.3987 102.252L16.8817 97.7478L13.7164 92.943L11.2545 87.9881L9.32016 82.5827L8.08921 77.1773L7.38581 71.4716L7.20996 68.6187V6.15625H43.7867L44.1384 18.1683Z" fill="#CCCCCC" stroke="black" stroke-width="0.324986"/>
<path d="M73.1534 111.412C100.832 111.412 123.271 92.2528 123.271 68.619C123.271 44.9852 100.832 25.8262 73.1534 25.8262C45.4744 25.8262 23.0361 44.9852 23.0361 68.619C23.0361 92.2528 45.4744 111.412 73.1534 111.412Z" fill="#D4D4D4"/>
<path d="M73.3297 104.054C96.2498 104.054 114.83 88.1895 114.83 68.619C114.83 49.0486 96.2498 33.1836 73.3297 33.1836C50.4095 33.1836 31.8291 49.0486 31.8291 68.619C31.8291 88.1895 50.4095 104.054 73.3297 104.054Z" fill="#DEDEDE"/>
<path d="M73.1535 96.6972C91.3148 96.6972 106.037 84.1262 106.037 68.6191C106.037 53.112 91.3148 40.541 73.1535 40.541C54.9922 40.541 40.2695 53.112 40.2695 68.6191C40.2695 84.1262 54.9922 96.6972 73.1535 96.6972Z" fill="#E5E5E5"/>
<path d="M7.20985 6.15616L0 0H51.1723L43.7866 6.15616H7.20985Z" fill="#F2F2F2" stroke="black" stroke-width="0.324986"/>
<path d="M142.614 143.693L150 150H7.20996L14.5957 143.693H142.614Z" fill="#F2F2F2" stroke="black" stroke-width="0.324986"/>
</g>
<defs>
<clipPath id="clip0_2109_164291">
<rect width="150" height="150" fill="white"/>
</clipPath>
</defs>
</svg>
