<svg width="150" height="150" viewBox="0 0 150 150" fill="none" xmlns="http://www.w3.org/2000/svg">
<g clip-path="url(#clip0_2109_164401)">
<path d="M20.6279 77.9277H112.35V146.997H20.6279V77.9277Z" fill="#B2B2B2" stroke="black" stroke-width="0.346815"/>
<path d="M112.35 74.9258H114.352V150.001H112.35V74.9258Z" fill="#CCCCCC" stroke="black" stroke-width="0.346815"/>
<path d="M18.625 74.9258H20.6277V150.001H18.625V74.9258Z" fill="#CCCCCC" stroke="black" stroke-width="0.346815"/>
<path d="M64.2861 112.764V137.388H71.4957V112.764H64.2861Z" fill="#CCCCCC" stroke="black" stroke-width="0.346815"/>
<path d="M67.8905 20.2704L65.4873 4.95508H140.387L136.382 20.2704V71.6217L135.981 76.877L134.98 81.9821L133.378 86.7869L130.975 91.4416L128.171 95.9461L124.566 100.15L120.761 104.054L116.355 107.658L111.348 110.961L106.142 113.964L100.534 116.517L94.526 118.619L88.1175 120.27L81.7089 121.622L74.8999 122.372L71.4953 122.523L67.8905 122.673L64.486 122.523L57.6769 122.072L51.0681 121.021L44.6595 119.52L38.6515 117.568L32.8438 115.165L27.4366 112.463L22.2296 109.309L17.6235 105.856L13.4179 102.102L9.81308 98.0482L6.60881 93.844L4.00534 89.1893L2.00267 84.3845L0.600801 79.4296L0 74.3244V71.6217V70.2704L0.400534 65.1653L1.60214 60.0602L3.40454 55.1052L5.80774 50.4506L8.81175 46.0962L12.4166 41.892L16.6222 37.9881L21.028 34.5347L26.0347 31.3815L31.4419 28.5287L37.2497 25.9761L43.2577 24.0241L49.466 22.3725L56.0748 21.1713L62.8838 20.4205L67.8905 20.2704Z" fill="#CCCCCC" stroke="black" stroke-width="0.346815"/>
<path d="M150 4.95496H54.2725V0H150V4.95496Z" fill="#B2B2B2"/>
<path d="M12.2168 146.996H120.762V149.999H12.2168V146.996Z" fill="#999999" stroke="black" stroke-width="0.346815"/>
<path d="M137.984 4.95496H66.6885V0H137.984V4.95496Z" fill="#CCCCCC"/>
<path d="M125.167 4.95496H79.1055V0H125.167V4.95496Z" fill="#E5E5E5"/>
<path d="M108.344 4.95496H95.9277V0H108.344V4.95496Z" fill="white"/>
<path d="M150 4.95495H54.2725V0H150V4.95495Z" stroke="black" stroke-width="0.346815"/>
<path d="M126.769 71.6212L127.169 7.05664H79.105V28.0777L73.097 27.6272H64.8861L59.0783 28.0777L53.4709 28.9786L47.8634 30.1798L42.6564 31.8314L37.6498 33.9335L33.0436 36.3359L28.838 39.0386L24.8327 42.0416L21.2279 45.3449L18.0236 48.7984L15.2199 52.5521L13.0169 56.456L11.4148 60.6602L10.2132 64.8644L9.61238 69.369L9.41211 71.6212L9.61238 73.8735L10.2132 78.378L11.4148 82.5822L13.0169 86.7864L15.2199 90.6903L18.0236 94.444L21.2279 97.8975L24.8327 101.051L28.838 104.054L33.0436 106.756L37.6498 109.159L42.6564 111.111L47.8634 112.762L53.4709 114.114L59.0783 114.864L64.8861 115.315L67.8901 115.465L70.8941 115.315L76.9021 114.864L82.5096 114.114L88.1171 112.762L93.324 111.111L98.3307 109.159L103.137 106.756L107.543 104.054L113.351 99.5491L116.755 96.2458L119.559 92.6422L122.162 88.7383L124.165 84.6843L125.567 80.4801L126.368 76.1257L126.769 71.6212Z" fill="#E5E5E5"/>
<path d="M109.546 40.3906L113.351 43.6939L116.756 47.1474L119.76 50.751L122.163 54.6549L124.166 58.7089L125.568 62.9131L126.569 67.2675L126.769 69.3696V71.6219V73.8741L126.168 78.3786L124.967 82.5828L123.164 86.787L120.962 90.6909L118.158 94.4447L114.954 97.8981L111.349 101.051L105.341 105.406L100.735 107.958L95.9281 110.21L90.7212 112.012L85.314 113.514L79.7065 114.565L73.8988 115.165L70.8948 115.316L67.8908 115.466L65.087 115.316L59.4795 114.865L53.8721 114.114L48.2646 112.763L43.0576 111.111L38.051 109.159L33.2446 106.907L28.8387 104.204L26.6357 102.853" stroke="#7F7F7F" stroke-width="0.346815"/>
<path d="M64.2861 112.762V30.1797H71.4957V112.762H64.2861Z" fill="#CCCCCC" stroke="black" stroke-width="0.346815"/>
<path d="M12.6172 68.6191H122.764V74.3248H12.6172V68.6191Z" fill="#CCCCCC" stroke="black" stroke-width="0.346815"/>
<path d="M68.0909 102.253C90.7648 102.253 109.146 88.4719 109.146 71.4722C109.146 54.4724 90.7648 40.6914 68.0909 40.6914C45.417 40.6914 27.0361 54.4724 27.0361 71.4722C27.0361 88.4719 45.417 102.253 68.0909 102.253Z" fill="#A6A6A6" stroke="black" stroke-width="0.346815"/>
<path d="M68.0904 91.1421C82.5796 91.1421 94.3254 82.3357 94.3254 71.4724C94.3254 60.6091 82.5796 51.8027 68.0904 51.8027C53.6013 51.8027 41.8555 60.6091 41.8555 71.4724C41.8555 82.3357 53.6013 91.1421 68.0904 91.1421Z" fill="#666666" stroke="black" stroke-width="0.346815"/>
<path d="M60.6807 88.7391L73.0972 53.9043L76.702 54.8052L64.2855 89.64L60.6807 88.7391Z" fill="#999999"/>
<path d="M52.6698 58.1074L86.7152 83.6329L84.312 85.4347L50.2666 59.9092L52.6698 58.1074Z" fill="#999999"/>
<path d="M44.6592 75.2253L91.5217 65.916L92.3227 68.6187L45.8608 77.928L44.6592 75.2253Z" fill="#999999"/>
<path d="M68.0911 76.1257C71.5198 76.1257 74.2994 74.0418 74.2994 71.4711C74.2994 68.9004 71.5198 66.8164 68.0911 66.8164C64.6624 66.8164 61.8828 68.9004 61.8828 71.4711C61.8828 74.0418 64.6624 76.1257 68.0911 76.1257Z" fill="#666666" stroke="black" stroke-width="0.346815"/>
<path d="M12.6169 46.3965L15.8212 47.898L13.8185 50.3004L10.6143 48.7989L12.6169 46.3965Z" stroke="#7F7F7F" stroke-width="0.346815"/>
<path d="M36.6486 29.2793L38.6513 31.6817L35.447 33.1832L33.4443 30.4805L36.6486 29.2793Z" stroke="#7F7F7F" stroke-width="0.346815"/>
<path d="M69.0921 23.2734V26.2764H65.4873V23.2734H69.0921Z" stroke="#7F7F7F" stroke-width="0.346815"/>
<path d="M69.8936 10.9615V7.6582H73.8989V10.9615H69.8936Z" stroke="#7F7F7F" stroke-width="0.346815"/>
<path d="M33.8447 113.063L35.8474 110.66L39.0517 112.162L37.049 114.564L33.8447 113.063Z" stroke="#7F7F7F" stroke-width="0.346815"/>
<path d="M10.6143 95.0445L14.2191 93.543L15.8212 95.9454L12.6169 97.4469L10.6143 95.0445Z" stroke="#7F7F7F" stroke-width="0.346815"/>
<path d="M3.00391 70.4199H6.60871V73.4229H3.00391V70.4199Z" stroke="#7F7F7F" stroke-width="0.346815"/>
<path d="M65.8877 120.271V117.568H69.4925V120.271H65.8877Z" stroke="#7F7F7F" stroke-width="0.346815"/>
<path d="M98.3307 114.264L96.7285 111.861L99.9328 110.66L101.535 113.063L98.3307 114.264Z" stroke="#7F7F7F" stroke-width="0.346815"/>
<path d="M122.764 97.148L119.56 95.6465L121.162 93.2441L124.767 94.7456L122.764 97.148Z" stroke="#7F7F7F" stroke-width="0.346815"/>
<path d="M132.376 73.1241H128.371V70.1211H132.376V73.1241Z" stroke="#7F7F7F" stroke-width="0.346815"/>
<path d="M131.175 7.6582H135.18V10.6612H131.175V7.6582Z" stroke="#7F7F7F" stroke-width="0.346815"/>
<path d="M129.172 26.5762H133.177V29.5792H129.172V26.5762Z" stroke="#7F7F7F" stroke-width="0.346815"/>
<path d="M129.172 46.6973H133.177V50.0006H129.172V46.6973Z" stroke="#7F7F7F" stroke-width="0.346815"/>
<path d="M26.6351 102.552L22.83 99.3985L19.4255 95.945L16.4215 92.1913L14.0183 88.2874L12.0156 84.2333L10.6137 80.1793L9.81264 75.8249L9.61238 73.7228L9.41211 71.6207L9.61238 69.3685L10.2132 64.8639L11.4148 60.6597L13.0169 56.4555L15.2199 52.5516L18.0236 48.7979L21.2279 45.3444L24.8327 42.0411L28.838 39.0381L33.0436 36.3354L37.6498 33.933L42.6564 31.8309L47.8634 30.1793L53.4709 28.9781L59.0783 28.0772L64.8861 27.6267L67.8901 27.4766L70.8941 27.6267L76.7018 28.0772L82.3093 28.8279L87.9168 30.1793L93.1237 31.8309L98.3307 33.7829L102.937 36.1853L107.543 38.888L109.546 40.3895" stroke="white" stroke-width="0.346815"/>
<path d="M97.9305 124.925L96.3283 124.474L95.7275 123.423L96.3283 122.222L97.9305 121.771L99.3323 122.222L99.9331 123.423L99.3323 124.474L97.9305 124.925Z" fill="#4C4C4C"/>
<path d="M97.9304 137.388L96.5285 136.937L95.9277 135.886L96.5285 134.835L97.9304 134.385L99.3323 134.835L99.9331 135.886L99.3323 136.937L97.9304 137.388Z" fill="#4C4C4C"/>
</g>
<defs>
<clipPath id="clip0_2109_164401">
<rect width="150" height="150" fill="white"/>
</clipPath>
</defs>
</svg>
