<svg width="150" height="150" viewBox="0 0 150 150" fill="none" xmlns="http://www.w3.org/2000/svg">
<g clip-path="url(#clip0_2109_164806)">
<path d="M100 112.462L104.204 109.009L108.108 105.105L111.562 101.051L114.715 96.6967L117.417 92.042L119.82 87.0871L121.772 82.1321L123.273 76.8769L124.324 71.4715L124.775 66.0661L124.925 62.4625H150V0H62.4625L56.006 0.15015L49.8498 1.2012L43.8438 2.7027L38.1381 4.8048L32.7327 7.50751L27.4775 10.6607L22.6727 14.2643L18.3183 18.3183L14.2643 22.6727L10.6607 27.4775L7.50751 32.7327L4.8048 38.1381L2.7027 43.8438L1.2012 49.8498L0.15015 56.006L0 59.1592V62.4625V64.2643L0.3003 69.6697L1.2012 75.0751L2.55255 80.3303L4.35435 85.5856L6.60661 90.5405L9.30931 95.1952L12.3123 99.6997L15.6156 103.904L19.5195 107.808L23.5736 111.411L25.0751 112.462L6.15616 150H118.619L100 112.462Z" fill="#00FFFF" stroke="black" stroke-width="0.3003"/>
<path d="M100 112.463L95.9461 115.316L91.5917 117.868L86.9371 119.97L82.2824 121.772L77.3274 123.124L72.5226 124.175L67.4175 124.775L64.865 124.925H63.6638H62.4626L57.3575 124.775L52.4025 124.024L47.5977 122.973L42.7929 121.622L38.1383 119.82L33.6338 117.718L29.2794 115.166L26.1262 113.214L25.0752 112.463" stroke="black" stroke-width="0.3003"/>
<path d="M62.4627 93.6929C79.7112 93.6929 93.6939 79.7102 93.6939 62.4617C93.6939 45.2132 79.7112 31.2305 62.4627 31.2305C45.2141 31.2305 31.2314 45.2132 31.2314 62.4617C31.2314 79.7102 45.2141 93.6929 62.4627 93.6929Z" fill="#00FFFF" stroke="black" stroke-width="0.3003"/>
</g>
<defs>
<clipPath id="clip0_2109_164806">
<rect width="150" height="150" fill="white"/>
</clipPath>
</defs>
</svg>
