<svg width="150" height="150" viewBox="0 0 150 150" fill="none" xmlns="http://www.w3.org/2000/svg">
<g clip-path="url(#clip0_2109_164457)">
<path d="M36.9369 144.737L51.952 150H67.8679L83.1832 144.737L96.6967 134.962L107.808 121.053L115.916 103.759L119.82 84.9624V66.5414H150V0H51.952L36.6366 4.88722L23.1231 14.8496L11.8619 28.9474L4.2042 45.8647L0 65.0376V84.9624L3.9039 103.759L11.8619 121.053L23.1231 134.962L36.9369 144.737Z" fill="#00CCCC" stroke="black" stroke-width="0.335998"/>
<path d="M37.9884 140.977L52.553 145.864H67.2677L81.6821 140.977L94.595 131.578L105.106 118.42L112.613 102.255L116.517 84.21V65.413L112.613 47.3678L105.106 31.5784L94.595 18.4205L81.6821 8.83401L67.2677 4.13477H52.553L37.9884 8.83401L25.2256 18.4205L14.7151 31.5784L7.05746 47.5558L3.30371 65.413V84.21L7.05746 102.255L14.7151 118.42L25.2256 131.578L37.9884 140.977Z" fill="#00E5E5"/>
<path d="M88.5888 121.804L97.2975 110.902L103.304 97.3681L106.607 82.7064V67.2929L103.304 52.0673L97.2975 39.0974L88.5888 28.1952L78.0783 20.6764L66.0663 16.541H53.754L42.0423 20.1124L31.2314 28.1952L88.5888 121.804Z" fill="#009999"/>
<path d="M42.0417 129.323L53.7534 133.458H66.0657L77.7775 129.323L88.5883 121.804L31.2309 28.1953L22.5222 39.0976L16.5162 52.0675L13.2129 67.2931V82.7066L16.5162 97.3682L22.5222 110.902L31.2309 121.804L42.0417 129.323Z" fill="#7FFFFF"/>
<path d="M59.91 129.322C83.8755 129.322 103.303 105.001 103.303 74.9991C103.303 44.9972 83.8755 20.6758 59.91 20.6758C35.9445 20.6758 16.5166 44.9972 16.5166 74.9991C16.5166 105.001 35.9445 129.322 59.91 129.322Z" fill="#B2B2B2"/>
<path d="M45.3451 118.797L54.9547 122.181H64.8646L74.4742 118.797L82.8826 112.782L90.0898 104.136L95.1949 93.2333L97.5973 81.2032V68.7972L95.1949 56.3912L90.0898 45.8649L83.1829 36.8423L74.4742 30.8273L64.8646 27.2559H54.9547L45.3451 30.8273L36.6363 36.8423L29.7294 45.8649L24.6243 56.3912L21.7715 68.7972V81.2032L24.6243 93.2333L29.7294 104.136L36.6363 112.782L45.3451 118.797Z" fill="#A1A1A1"/>
<path d="M47.4478 112.405L55.5559 115.413H64.2646L72.3727 112.405L79.5799 107.142L85.5859 99.6235L89.7901 90.225L92.1925 80.0747V69.5483L89.7901 59.398L85.5859 49.8115L79.5799 42.4807L72.3727 37.2175L64.2646 34.5859H55.5559L47.4478 37.2175L39.7901 42.4807L34.2345 49.8115L29.73 59.398L27.6279 69.5483V80.0747L29.73 90.225L33.9342 99.6235L39.7901 107.142L47.4478 112.405Z" fill="#919191"/>
<path d="M59.9096 108.082C74.5874 108.082 86.4862 93.1866 86.4862 74.8117C86.4862 56.4368 74.5874 41.541 59.9096 41.541C45.2317 41.541 33.333 56.4368 33.333 74.8117C33.333 93.1866 45.2317 108.082 59.9096 108.082Z" fill="#7F7F7F"/>
<path d="M59.9095 101.316C71.602 101.316 81.0806 89.45 81.0806 74.8124C81.0806 60.1747 71.602 48.3086 59.9095 48.3086C48.2169 48.3086 38.7383 60.1747 38.7383 74.8124C38.7383 89.45 48.2169 101.316 59.9095 101.316Z" fill="#6E6E6E"/>
<path d="M59.9098 94.173C68.4511 94.173 75.3753 85.5048 75.3753 74.8121C75.3753 64.1193 68.4511 55.4512 59.9098 55.4512C51.3685 55.4512 44.4443 64.1193 44.4443 74.8121C44.4443 85.5048 51.3685 94.173 59.9098 94.173Z" fill="#5E5E5E"/>
<path d="M59.9097 87.5942C65.4657 87.5942 69.9697 81.9557 69.9697 75.0002C69.9697 68.0448 65.4657 62.4062 59.9097 62.4062C54.3537 62.4062 49.8496 68.0448 49.8496 75.0002C49.8496 81.9557 54.3537 87.5942 59.9097 87.5942Z" fill="#4C4C4C"/>
<path d="M59.91 129.322C83.8755 129.322 103.303 105.001 103.303 74.9991C103.303 44.9972 83.8755 20.6758 59.91 20.6758C35.9445 20.6758 16.5166 44.9972 16.5166 74.9991C16.5166 105.001 35.9445 129.322 59.91 129.322Z" stroke="black" stroke-width="0.335998"/>
<path d="M61.2609 78.9465L63.363 76.6908V72.9314L61.2609 70.6758H58.5582L56.4561 72.9314V76.6908L58.5582 78.9465H61.2609Z" fill="#CCCCCC"/>
<path d="M63.3634 76.6908V72.9314L61.2613 70.6758H58.5586" stroke="white" stroke-width="0.335998"/>
</g>
<defs>
<clipPath id="clip0_2109_164457">
<rect width="150" height="150" fill="white"/>
</clipPath>
</defs>
</svg>
