<svg width="150" height="150" viewBox="0 0 150 150" fill="none" xmlns="http://www.w3.org/2000/svg">
<path d="M34.3846 122.676H14.2645V97.344H0.750977V33.3022H14.2645V7.68555H34.3846V33.3022H115.466V7.68555H135.586V33.3022H149.099V97.344H135.586V122.676H115.466V97.344H34.3846V122.676Z" fill="#727F7F"/>
<path d="M34.5348 112.999H14.2645V91.9363H0.750977V38.4259H14.2645V17.3633H34.5348V38.4259H115.466V17.3633H135.586V38.4259H149.099V91.9363H135.586V112.999H115.466V91.9363H34.5348V112.999Z" fill="#879494"/>
<path d="M34.5348 103.606H14.2645V86.5282H0.750977V43.8337H14.2645V26.7559H34.5348V43.8337H115.466V26.7559H135.586V43.8337H149.099V86.5282H135.586V103.606H115.466V86.5282H34.5348V103.606Z" fill="#9EA8A8"/>
<path d="M34.5348 93.9288H14.2645V81.1205H0.750977V49.2419H14.2645V36.4336H34.5348V49.2419H115.466V36.4336H135.586V49.2419H149.099V81.1205H135.586V93.9288H115.466V81.1205H34.5348V93.9288Z" fill="#B3BDBD"/>
<path d="M34.5348 84.2498H14.2645V75.7109H0.750977V54.6483H14.2645V46.1094H34.5348V54.6483H115.466V46.1094H135.586V54.6483H149.099V75.7109H135.586V84.2498H115.466V75.7109H34.5348V84.2498Z" fill="#C9D1D1"/>
<path d="M34.3846 74.8573H14.2645V70.5879H0.750977V59.7719H14.2645V55.7871H34.3846V59.7719H115.466V55.7871H135.586V59.7719H149.099V70.5879H135.586V74.8573H115.466V70.5879H34.3846V74.8573Z" fill="#DDE5E5"/>
<path d="M34.3846 122.676H14.2645V97.344H0.750977V33.3022H14.2645V7.68555H34.3846V33.3022H115.466V7.68555H135.586V33.3022H149.099V97.344H135.586V122.676H115.466V97.344H34.3846V122.676Z" stroke="black" stroke-width="0.41346"/>
<path d="M14.2646 97.3425V33.3008" stroke="black" stroke-width="0.41346"/>
<path d="M135.586 97.3425V33.3008" stroke="black" stroke-width="0.41346"/>
<path d="M34.3848 20.4941H115.466V110.153H34.3848V20.4941Z" fill="#7A9999" stroke="black" stroke-width="0.41346"/>
<path d="M34.3848 26.7559H115.466V103.606H34.3848V26.7559Z" fill="#BDCCCC" stroke="black" stroke-width="0.41346"/>
<path d="M41.1406 110.152L54.6541 129.223H95.1947L108.708 110.152H41.1406Z" fill="#003333"/>
<path d="M108.708 20.494L95.1947 1.42383H54.6541L41.1406 20.494H108.708Z" fill="#9BB2B2" stroke="black" stroke-width="0.41346"/>
<path d="M51.3516 20.4939L58.1083 7.68555H91.742" stroke="white" stroke-width="0.41346"/>
<path d="M91.7422 148.293V142.031H95.1956V110.152H101.952V142.031H105.256V148.293H91.7422Z" fill="#597F7F" stroke="black" stroke-width="0.41346"/>
<path d="M44.5947 148.293V142.031H47.898V110.152H54.6548V142.031H58.1082V148.293H44.5947Z" fill="#597F7F" stroke="black" stroke-width="0.41346"/>
<path d="M34.3848 26.7559H115.466V33.3023H34.3848V26.7559Z" fill="#597F7F"/>
<path d="M41.1406 26.7559H47.8974V103.606H41.1406V26.7559Z" fill="#324C4C"/>
<path d="M51.3516 26.7559H58.1083V103.606H51.3516V26.7559Z" fill="#324C4C"/>
<path d="M61.4111 26.7559H68.1679V103.606H61.4111V26.7559Z" fill="#324C4C"/>
<path d="M71.6211 26.7559H78.3779V103.606H71.6211V26.7559Z" fill="#324C4C"/>
<path d="M81.6816 26.7559H88.4384V103.606H81.6816V26.7559Z" fill="#324C4C"/>
<path d="M91.7422 26.7559H98.4989V103.606H91.7422V26.7559Z" fill="#324C4C"/>
<path d="M101.952 26.7559H108.709V103.606H101.952V26.7559Z" fill="#324C4C"/>
</svg>
