<svg width="150" height="150" viewBox="0 0 150 150" fill="none" xmlns="http://www.w3.org/2000/svg">
<g clip-path="url(#clip0_2109_164854)">
<path d="M0 17.6094H124.925V150H0V17.6094Z" fill="#669966" stroke="black" stroke-width="0.356968"/>
<path d="M0 17.6096L24.9249 0H150L124.925 17.6096H0Z" fill="#B2CCB2" stroke="black" stroke-width="0.356968"/>
<path d="M124.925 150L150 132.39V0L124.925 17.6096V150Z" fill="#3F7F3F" stroke="black" stroke-width="0.356968"/>
<path d="M12.4629 141.09H112.463" stroke="black" stroke-width="0.356968"/>
<path d="M12.4629 145.545H112.463" stroke="black" stroke-width="0.356968"/>
<path d="M12.4629 136.633H112.463" stroke="black" stroke-width="0.356968"/>
<path d="M12.4629 127.936H112.463" stroke="black" stroke-width="0.356968"/>
<path d="M12.4629 132.391H112.463" stroke="black" stroke-width="0.356968"/>
<path d="M12.4629 123.48H112.463" stroke="black" stroke-width="0.356968"/>
<path d="M12.4629 119.023H112.463" stroke="black" stroke-width="0.356968"/>
<path d="M12.4629 110.113H112.463" stroke="black" stroke-width="0.356968"/>
<path d="M12.4629 114.568H112.463" stroke="black" stroke-width="0.356968"/>
<path d="M12.4629 105.869H112.463" stroke="black" stroke-width="0.356968"/>
<path d="M12.4629 101.203H112.463" stroke="black" stroke-width="0.356968"/>
<path d="M12.4629 92.5039H112.463" stroke="black" stroke-width="0.356968"/>
<path d="M12.4629 96.959H112.463" stroke="black" stroke-width="0.356968"/>
<path d="M12.4629 88.2598H112.463" stroke="black" stroke-width="0.356968"/>
<path d="M12.4629 83.5918H112.463" stroke="black" stroke-width="0.356968"/>
<path d="M12.4629 74.8945H112.463" stroke="black" stroke-width="0.356968"/>
<path d="M12.4629 79.3496H112.463" stroke="black" stroke-width="0.356968"/>
<path d="M12.4629 70.6504H112.463" stroke="black" stroke-width="0.356968"/>
<path d="M12.4629 65.9824H112.463" stroke="black" stroke-width="0.356968"/>
<path d="M12.4629 57.2852H112.463" stroke="black" stroke-width="0.356968"/>
<path d="M12.4629 61.7402H112.463" stroke="black" stroke-width="0.356968"/>
<path d="M12.4629 52.8281H112.463" stroke="black" stroke-width="0.356968"/>
<path d="M12.4629 48.373H112.463" stroke="black" stroke-width="0.356968"/>
<path d="M12.4629 39.4629H112.463" stroke="black" stroke-width="0.356968"/>
<path d="M12.4629 43.918H112.463" stroke="black" stroke-width="0.356968"/>
<path d="M12.4629 35.2188H112.463" stroke="black" stroke-width="0.356968"/>
<path d="M146.847 127.936L128.078 141.09" stroke="black" stroke-width="0.356968"/>
<path d="M146.847 132.391L128.078 145.545" stroke="black" stroke-width="0.356968"/>
<path d="M146.847 123.268L128.078 136.634" stroke="black" stroke-width="0.356968"/>
<path d="M146.847 114.568L128.078 127.935" stroke="black" stroke-width="0.356968"/>
<path d="M146.847 119.023L128.078 132.39" stroke="black" stroke-width="0.356968"/>
<path d="M146.847 110.326L128.078 123.48" stroke="black" stroke-width="0.356968"/>
<path d="M146.847 105.658L128.078 119.025" stroke="black" stroke-width="0.356968"/>
<path d="M146.847 96.959L128.078 110.113" stroke="black" stroke-width="0.356968"/>
<path d="M146.847 101.414L128.078 114.568" stroke="black" stroke-width="0.356968"/>
<path d="M146.847 92.5039L128.078 105.87" stroke="black" stroke-width="0.356968"/>
<path d="M146.847 88.0488L128.078 101.203" stroke="black" stroke-width="0.356968"/>
<path d="M146.847 79.1367L128.078 92.5031" stroke="black" stroke-width="0.356968"/>
<path d="M146.847 83.5918L128.078 96.9581" stroke="black" stroke-width="0.356968"/>
<path d="M146.847 74.8945L128.078 88.2609" stroke="black" stroke-width="0.356968"/>
<path d="M146.847 70.4375L128.078 83.5917" stroke="black" stroke-width="0.356968"/>
<path d="M146.847 61.5273L128.078 74.8937" stroke="black" stroke-width="0.356968"/>
<path d="M146.847 65.9824L128.078 79.3488" stroke="black" stroke-width="0.356968"/>
<path d="M146.847 57.2852L128.078 70.6515" stroke="black" stroke-width="0.356968"/>
<path d="M146.847 52.6172L128.078 65.9835" stroke="black" stroke-width="0.356968"/>
<path d="M146.847 43.918L128.078 57.2843" stroke="black" stroke-width="0.356968"/>
<path d="M146.847 48.373L128.078 61.7394" stroke="black" stroke-width="0.356968"/>
<path d="M146.847 39.6738L128.078 52.828" stroke="black" stroke-width="0.356968"/>
<path d="M146.847 35.0078L128.078 48.3741" stroke="black" stroke-width="0.356968"/>
<path d="M146.847 26.3086L128.078 39.4628" stroke="black" stroke-width="0.356968"/>
<path d="M146.847 30.7637L128.078 43.9178" stroke="black" stroke-width="0.356968"/>
<path d="M146.847 21.8535L128.078 35.2199" stroke="black" stroke-width="0.356968"/>
<path d="M84.835 26.3086H93.6938V145.545H84.835V26.3086Z" fill="#669966"/>
<path d="M31.2314 26.3086H40.0903V145.545H31.2314V26.3086Z" fill="#669966"/>
<path d="M57.958 26.3086H66.8169V145.545H57.958V26.3086Z" fill="#669966"/>
<path d="M141.892 17.6101L143.693 16.125V135.361L141.892 136.846V17.6101Z" fill="#3F7F3F"/>
<path d="M131.231 26.3074L133.033 24.8223V144.058L131.231 145.544V26.3074Z" fill="#3F7F3F"/>
<path d="M136.486 22.0652L138.288 20.5801V139.816L136.486 141.301V22.0652Z" fill="#3F7F3F"/>
<path d="M48.6489 11.882L37.9883 8.69959L48.6489 5.51713L75.5258 4.24414L101.652 5.51713L112.463 8.69959L101.652 11.882L75.5258 13.155L48.6489 11.882Z" fill="#669966" stroke="black" stroke-width="0.356968"/>
</g>
<defs>
<clipPath id="clip0_2109_164854">
<rect width="150" height="150" fill="white"/>
</clipPath>
</defs>
</svg>
