<svg width="150" height="150" viewBox="0 0 150 150" fill="none" xmlns="http://www.w3.org/2000/svg">
<g clip-path="url(#clip0_2109_242211)">
<path d="M0 74.0984V68.3984H150V74.0984H0Z" fill="#0000FF"/>
<path d="M0 66.5984V60.8984H150V66.5984H0Z" fill="#0000FF"/>
<path d="M0 58.8016V53.1016H150V58.8016H0Z" fill="#0000FF"/>
<path d="M0 51.3016V45.6016H150V51.3016H0Z" fill="#0000FF"/>
<path d="M0 43.8016V38.1016H150V43.8016H0Z" fill="#0000FF"/>
<path d="M0 35.9969V30.2969H150V35.9969H0Z" fill="#0000FF"/>
<path d="M0 28.4969V22.7969H150V28.4969H0Z" fill="#0000FF"/>
<path d="M0 20.9969V15.2969H150V20.9969H0Z" fill="#0000FF"/>
<path d="M0 13.2V7.5H150V13.2H0Z" fill="#0000FF"/>
<path d="M0 5.7V0H150V5.7H0Z" fill="#0000FF"/>
<path d="M0 74.0984H150V68.3984" stroke="white" stroke-width="1.87867"/>
<path d="M0 66.5984H150V60.8984" stroke="white" stroke-width="1.87867"/>
<path d="M0 58.8016H150V53.1016" stroke="white" stroke-width="1.87867"/>
<path d="M0 51.3016H150V45.6016" stroke="white" stroke-width="1.87867"/>
<path d="M0 43.8016H150V38.1016" stroke="white" stroke-width="1.87867"/>
<path d="M0 35.9969H150V30.2969" stroke="white" stroke-width="1.87867"/>
<path d="M0 28.4969H150V22.7969" stroke="white" stroke-width="1.87867"/>
<path d="M0 20.9969H150V15.2969" stroke="white" stroke-width="1.87867"/>
<path d="M0 13.2H150V7.5" stroke="white" stroke-width="1.87867"/>
<path d="M0 5.7H150V0" stroke="white" stroke-width="1.87867"/>
<path d="M0 74.0984V68.3984H150" stroke="black" stroke-width="1.87867"/>
<path d="M0 66.5984V60.8984H150" stroke="black" stroke-width="1.87867"/>
<path d="M0 58.8016V53.1016H150" stroke="black" stroke-width="1.87867"/>
<path d="M0 51.3016V45.6016H150" stroke="black" stroke-width="1.87867"/>
<path d="M0 43.8016V38.1016H150" stroke="black" stroke-width="1.87867"/>
<path d="M0 35.9969V30.2969H150" stroke="black" stroke-width="1.87867"/>
<path d="M0 28.4969V22.7969H150" stroke="black" stroke-width="1.87867"/>
<path d="M0 20.9969V15.2969H150" stroke="black" stroke-width="1.87867"/>
<path d="M0 13.2V7.5H150" stroke="black" stroke-width="1.87867"/>
<path d="M0 5.7V0H150" stroke="black" stroke-width="1.87867"/>
<path d="M0 149.997V144.297H150V149.997H0Z" fill="#0000FF"/>
<path d="M0 142.497V136.797H150V142.497H0Z" fill="#0000FF"/>
<path d="M0 134.7V129H150V134.7H0Z" fill="#0000FF"/>
<path d="M0 127.2V121.5H150V127.2H0Z" fill="#0000FF"/>
<path d="M0 119.7V114H150V119.7H0Z" fill="#0000FF"/>
<path d="M0 111.903V106.203H150V111.903H0Z" fill="#0000FF"/>
<path d="M0 104.403V98.7031H150V104.403H0Z" fill="#0000FF"/>
<path d="M0 96.9031V91.2031H150V96.9031H0Z" fill="#0000FF"/>
<path d="M0 89.0984V83.3984H150V89.0984H0Z" fill="#0000FF"/>
<path d="M0 81.5984V75.8984H150V81.5984H0Z" fill="#0000FF"/>
<path d="M0 149.997H150V144.297" stroke="white" stroke-width="1.87867"/>
<path d="M0 142.497H150V136.797" stroke="white" stroke-width="1.87867"/>
<path d="M0 134.7H150V129" stroke="white" stroke-width="1.87867"/>
<path d="M0 127.2H150V121.5" stroke="white" stroke-width="1.87867"/>
<path d="M0 119.7H150V114" stroke="white" stroke-width="1.87867"/>
<path d="M0 111.903H150V106.203" stroke="white" stroke-width="1.87867"/>
<path d="M0 104.403H150V98.7031" stroke="white" stroke-width="1.87867"/>
<path d="M0 96.9031H150V91.2031" stroke="white" stroke-width="1.87867"/>
<path d="M0 89.0984H150V83.3984" stroke="white" stroke-width="1.87867"/>
<path d="M0 81.5984H150V75.8984" stroke="white" stroke-width="1.87867"/>
<path d="M0 149.997V144.297H150" stroke="black" stroke-width="1.87867"/>
<path d="M0 142.497V136.797H150" stroke="black" stroke-width="1.87867"/>
<path d="M0 134.7V129H150" stroke="black" stroke-width="1.87867"/>
<path d="M0 127.2V121.5H150" stroke="black" stroke-width="1.87867"/>
<path d="M0 119.7V114H150" stroke="black" stroke-width="1.87867"/>
<path d="M0 111.903V106.203H150" stroke="black" stroke-width="1.87867"/>
<path d="M0 104.403V98.7031H150" stroke="black" stroke-width="1.87867"/>
<path d="M0 96.9031V91.2031H150" stroke="black" stroke-width="1.87867"/>
<path d="M0 89.0984V83.3984H150" stroke="black" stroke-width="1.87867"/>
<path d="M0 81.5984V75.8984H150" stroke="black" stroke-width="1.87867"/>
</g>
<defs>
<clipPath id="clip0_2109_242211">
<rect width="150" height="150" fill="white"/>
</clipPath>
</defs>
</svg>
