<svg width="150" height="150" viewBox="0 0 150 150" fill="none" xmlns="http://www.w3.org/2000/svg">
<g clip-path="url(#clip0_2109_242178)">
<path d="M0 149.997V138.297H150V149.997H0Z" fill="#0000FF"/>
<path d="M0 134.7V123H150V134.7H0Z" fill="#0000FF"/>
<path d="M0 119.103V107.703H150V119.103H0Z" fill="#0000FF"/>
<path d="M0 103.798V92.3984H150V103.798H0Z" fill="#0000FF"/>
<path d="M0 88.4969V76.7969H150V88.4969H0Z" fill="#0000FF"/>
<path d="M0 73.2V61.5H150V73.2H0Z" fill="#0000FF"/>
<path d="M0 57.6031V46.2031H150V57.6031H0Z" fill="#0000FF"/>
<path d="M0 42.2984V30.8984H150V42.2984H0Z" fill="#0000FF"/>
<path d="M0 26.9969V15.2969H150V26.9969H0Z" fill="#0000FF"/>
<path d="M0 11.7V0H150V11.7H0Z" fill="#0000FF"/>
<path d="M0 149.997H150V138.297" stroke="white" stroke-width="1.32196"/>
<path d="M0 134.7H150V123" stroke="white" stroke-width="1.32196"/>
<path d="M0 119.103H150V107.703" stroke="white" stroke-width="1.32196"/>
<path d="M0 103.798H150V92.3984" stroke="white" stroke-width="1.32196"/>
<path d="M0 88.4969H150V76.7969" stroke="white" stroke-width="1.32196"/>
<path d="M0 73.2H150V61.5" stroke="white" stroke-width="1.32196"/>
<path d="M0 57.6031H150V46.2031" stroke="white" stroke-width="1.32196"/>
<path d="M0 42.2984H150V30.8984" stroke="white" stroke-width="1.32196"/>
<path d="M0 26.9969H150V15.2969" stroke="white" stroke-width="1.32196"/>
<path d="M0 11.7H150V0" stroke="white" stroke-width="1.32196"/>
<path d="M0 149.997V138.297H150" stroke="black" stroke-width="1.32196"/>
<path d="M0 134.7V123H150" stroke="black" stroke-width="1.32196"/>
<path d="M0 119.103V107.703H150" stroke="black" stroke-width="1.32196"/>
<path d="M0 103.798V92.3984H150" stroke="black" stroke-width="1.32196"/>
<path d="M0 88.4969V76.7969H150" stroke="black" stroke-width="1.32196"/>
<path d="M0 73.2V61.5H150" stroke="black" stroke-width="1.32196"/>
<path d="M0 57.6031V46.2031H150" stroke="black" stroke-width="1.32196"/>
<path d="M0 42.2984V30.8984H150" stroke="black" stroke-width="1.32196"/>
<path d="M0 26.9969V15.2969H150" stroke="black" stroke-width="1.32196"/>
<path d="M0 11.7V0H150" stroke="black" stroke-width="1.32196"/>
</g>
<defs>
<clipPath id="clip0_2109_242178">
<rect width="150" height="150" fill="white"/>
</clipPath>
</defs>
</svg>
