<svg width="150" height="150" viewBox="0 0 150 150" fill="none" xmlns="http://www.w3.org/2000/svg">
<g clip-path="url(#clip0_2109_241824)">
<path d="M150 150V0H25.2L22.8 0.3L17.6 3.3L13.2 9L11.2 12.9L9.2 17.1L7.2 21.9L5.6 27.3L4.4 33L3.2 39.3L2 45.9L1.2 52.8L0.4 60L0 67.2V82.8L0.4 90L1.2 97.2L2 104.1L3.2 110.7L4.4 117L5.6 122.7L7.2 128.1L9.2 132.9L11.2 137.1L13.2 141L17.6 146.7L22.8 149.7L25.2 150H150Z" fill="#0000FF"/>
<path d="M150 0H25.2L22.8 0.3L17.6 3.3L13.2 9L11.2 12.9L9.2 17.1L7.2 21.9L5.6 27.3L4.4 33L3.2 39.3L2 45.9L1.2 52.8L0.4 60L0 67.2V82.8L0.4 90L1.2 97.2L2 104.1L3.2 110.7L4.4 117L5.6 122.7L7.2 128.1L9.2 132.9L11.2 137.1L13.2 141L17.6 146.7L22.8 149.7L25.2 150" stroke="black" stroke-width="0.69282"/>
<path d="M25.2002 150H150V0" stroke="white" stroke-width="0.69282"/>
</g>
<defs>
<clipPath id="clip0_2109_241824">
<rect width="150" height="150" fill="white"/>
</clipPath>
</defs>
</svg>
