<svg width="150" height="150" viewBox="0 0 150 150" fill="none" xmlns="http://www.w3.org/2000/svg">
<g clip-path="url(#clip0_2109_241830)">
<path d="M0 150V0H125.2L127.6 0.3L132.4 3.3L136.8 9L139.2 12.9L140.8 17.1L142.8 21.9L144.4 27.3L145.6 33L146.8 39.3L148 45.9L148.8 52.8L149.6 60L150 67.2V82.8L149.6 90L148.8 97.2L148 104.1L146.8 110.7L145.6 117L144.4 122.7L142.8 128.1L140.8 132.9L139.2 137.1L136.8 141L132.4 146.7L127.6 149.7L125.2 150H0Z" fill="#0000FF"/>
<path d="M0 150V0H125.2" stroke="black" stroke-width="0.69282"/>
<path d="M125.2 0L127.6 0.3L132.4 3.3L136.8 9L139.2 12.9L140.8 17.1L142.8 21.9L144.4 27.3L145.6 33L146.8 39.3L148 45.9L148.8 52.8L149.6 60L150 67.2V82.8L149.6 90L148.8 97.2L148 104.1L146.8 110.7L145.6 117L144.4 122.7L142.8 128.1L140.8 132.9L139.2 137.1L136.8 141L132.4 146.7L127.6 149.7L125.2 150H0" stroke="white" stroke-width="0.69282"/>
</g>
<defs>
<clipPath id="clip0_2109_241830">
<rect width="150" height="150" fill="white"/>
</clipPath>
</defs>
</svg>
