<svg width="150" height="150" viewBox="0 0 150 150" fill="none" xmlns="http://www.w3.org/2000/svg">
<g clip-path="url(#clip0_2109_241784)">
<path d="M0 6.90691L1.8 2.7027L10.8 0H14.1H17.7H135.9L144.3 0.900901L149.7 5.25526V6.90691V11.2613V142.943L147.9 147.147L139.2 149.85L135.9 150H132H14.1L5.4 148.949L0 144.595V142.943V138.589V6.90691Z" fill="#0000FF"/>
<path d="M0 142.943V138.589V134.384V130.18V6.90691L1.8 2.7027L10.8 0H14.1H17.7H135.9L144.3 0.900901L149.7 5.25526V6.90691" stroke="black" stroke-width="0.424476"/>
<path d="M0 142.942L1.8 147.146L10.8 149.849L14.1 149.999H17.7H135.9L144.3 148.948L149.7 144.594V138.588V36.636L150 32.4318V28.2276V11.2606V6.90625" stroke="white" stroke-width="0.424476"/>
</g>
<defs>
<clipPath id="clip0_2109_241784">
<rect width="150" height="150" fill="white"/>
</clipPath>
</defs>
</svg>
