<svg width="150" height="150" viewBox="0 0 150 150" fill="none" xmlns="http://www.w3.org/2000/svg">
<g clip-path="url(#clip0_2109_241959)">
<path d="M0 149.698H16.7247L0 140.398V149.698Z" fill="#0000FF"/>
<path d="M0 119.102V138.002L16.7247 128.402L0 119.102Z" fill="#0000FF"/>
<path d="M0 97.7969V116.697L16.7247 107.097L0 97.7969Z" fill="#0000FF"/>
<path d="M0 76.2031V95.1031L16.7247 85.8031L0 76.2031Z" fill="#0000FF"/>
<path d="M0 54.8984V73.7984L16.7247 64.1984L0 54.8984Z" fill="#0000FF"/>
<path d="M0 33.2969V52.4969L16.7247 42.8969L0 33.2969Z" fill="#0000FF"/>
<path d="M0 12V30.9L16.7247 21.6L0 12Z" fill="#0000FF"/>
<path d="M0 0V9.6L16.7247 0H0Z" fill="#0000FF"/>
<path d="M2.09082 10.8031L18.8156 1.20312L35.5403 10.8031L18.8156 20.4031L2.09082 10.8031Z" fill="#0000FF"/>
<path d="M2.09082 32.1L18.8156 22.5L35.5403 32.1L18.8156 41.7L2.09082 32.1Z" fill="#0000FF"/>
<path d="M2.09082 53.7016L18.8156 44.1016L35.5403 53.7016L18.8156 63.0016L2.09082 53.7016Z" fill="#0000FF"/>
<path d="M2.09082 74.9984L18.8156 65.3984L35.5403 74.9984L18.8156 84.5984L2.09082 74.9984Z" fill="#0000FF"/>
<path d="M2.09082 96.3L18.8156 87L35.5403 96.3L18.8156 105.9L2.09082 96.3Z" fill="#0000FF"/>
<path d="M2.09082 117.897L18.8156 108.297L35.5403 117.897L18.8156 127.497L2.09082 117.897Z" fill="#0000FF"/>
<path d="M2.09082 139.202L18.8156 129.602L35.5403 139.202L18.8156 148.802L2.09082 139.202Z" fill="#0000FF"/>
<path d="M20.9062 149.698H53.8331L37.631 140.398L20.9062 149.698Z" fill="#0000FF"/>
<path d="M20.9062 128.702L37.631 119.102L53.8331 128.702L37.631 138.002L20.9062 128.702Z" fill="#0000FF"/>
<path d="M20.9062 107.097L37.631 97.7969L53.8331 107.097L37.631 116.697L20.9062 107.097Z" fill="#0000FF"/>
<path d="M20.9062 64.1984L37.631 54.8984L53.8331 64.1984L37.631 73.7984L20.9062 64.1984Z" fill="#0000FF"/>
<path d="M20.9062 42.8969L37.631 33.2969L53.8331 42.8969L37.631 52.4969L20.9062 42.8969Z" fill="#0000FF"/>
<path d="M20.9062 21.6L37.631 12L53.8331 21.6L37.631 30.9L20.9062 21.6Z" fill="#0000FF"/>
<path d="M20.9062 0H53.8331L37.1083 9.6L20.9062 0Z" fill="#0000FF"/>
<path d="M39.1982 10.8031L55.923 1.20312L72.6477 10.8031L55.923 20.4031L39.1982 10.8031Z" fill="#0000FF"/>
<path d="M39.1982 32.1L55.923 22.5L72.6477 32.1L55.923 41.7L39.1982 32.1Z" fill="#0000FF"/>
<path d="M39.1982 53.7016L55.923 44.1016L72.6477 53.7016L55.923 63.0016L39.1982 53.7016Z" fill="#0000FF"/>
<path d="M39.1982 74.9984L55.923 65.3984L72.6477 74.9984L55.923 84.5984L39.1982 74.9984Z" fill="#0000FF"/>
<path d="M39.1982 96.3L55.923 87L72.6477 96.3L55.923 105.9L39.1982 96.3Z" fill="#0000FF"/>
<path d="M39.1982 117.897L55.923 108.297L72.6477 117.897L55.923 127.497L39.1982 117.897Z" fill="#0000FF"/>
<path d="M39.1982 139.202L55.923 129.602L72.6477 139.202L55.923 148.802L39.1982 139.202Z" fill="#0000FF"/>
<path d="M58.0137 149.698H91.4632L74.7384 140.398L58.0137 149.698Z" fill="#0000FF"/>
<path d="M58.0137 128.702L74.7384 119.102L91.4632 128.702L74.7384 138.002L58.0137 128.702Z" fill="#0000FF"/>
<path d="M58.0137 107.097L74.7384 97.7969L91.4632 107.097L74.7384 116.697L58.0137 107.097Z" fill="#0000FF"/>
<path d="M58.0137 85.8031L74.7384 76.2031L91.4632 85.8031L74.7384 95.4031L58.0137 85.8031Z" fill="#0000FF"/>
<path d="M58.0137 64.1984L74.7384 54.8984L91.4632 64.1984L74.7384 73.7984L58.0137 64.1984Z" fill="#0000FF"/>
<path d="M58.0137 42.8969L74.7384 33.2969L91.4632 42.8969L74.7384 52.4969L58.0137 42.8969Z" fill="#0000FF"/>
<path d="M58.0137 21.6L74.7384 12L91.4632 21.6L74.7384 30.9L58.0137 21.6Z" fill="#0000FF"/>
<path d="M58.0137 0H90.9405L74.7384 9.6L58.0137 0Z" fill="#0000FF"/>
<path d="M76.8291 10.8031L93.5538 1.20312L110.279 10.8031L93.5538 20.4031L76.8291 10.8031Z" fill="#0000FF"/>
<path d="M76.8291 32.1L93.5538 22.5L110.279 32.1L93.5538 41.7L76.8291 32.1Z" fill="#0000FF"/>
<path d="M76.8291 53.7016L93.5538 44.1016L110.279 53.7016L93.5538 63.0016L76.8291 53.7016Z" fill="#0000FF"/>
<path d="M76.8291 74.9984L93.5538 65.3984L110.279 74.9984L93.5538 84.5984L76.8291 74.9984Z" fill="#0000FF"/>
<path d="M76.8291 96.3L93.5538 87L110.279 96.3L93.5538 105.9L76.8291 96.3Z" fill="#0000FF"/>
<path d="M76.8291 117.897L93.5538 108.297L110.279 117.897L93.5538 127.497L76.8291 117.897Z" fill="#0000FF"/>
<path d="M76.8291 139.202L93.5538 129.602L110.279 139.202L93.5538 148.802L76.8291 139.202Z" fill="#0000FF"/>
<path d="M95.6445 149.698H128.571L111.847 140.398L95.6445 149.698Z" fill="#0000FF"/>
<path d="M95.6445 128.702L111.847 119.102L128.571 128.702L111.847 138.002L95.6445 128.702Z" fill="#0000FF"/>
<path d="M95.6445 107.097L111.847 97.7969L128.571 107.097L111.847 116.697L95.6445 107.097Z" fill="#0000FF"/>
<path d="M95.6445 85.8031L111.847 76.2031L128.571 85.8031L111.847 95.4031L95.6445 85.8031Z" fill="#0000FF"/>
<path d="M95.6445 64.1984L111.847 54.8984L128.571 64.1984L111.847 73.7984L95.6445 64.1984Z" fill="#0000FF"/>
<path d="M95.6445 42.8969L111.847 33.2969L128.571 42.8969L111.847 52.4969L95.6445 42.8969Z" fill="#0000FF"/>
<path d="M95.6445 21.6L111.847 12L128.571 21.6L111.847 30.9L95.6445 21.6Z" fill="#0000FF"/>
<path d="M95.1221 0H128.572L111.847 9.6L95.1221 0Z" fill="#0000FF"/>
<path d="M113.938 10.8031L130.662 1.20312L147.387 10.8031L130.662 20.4031L113.938 10.8031Z" fill="#0000FF"/>
<path d="M113.938 32.1L130.662 22.5L147.387 32.1L130.662 41.7L113.938 32.1Z" fill="#0000FF"/>
<path d="M113.938 53.7016L130.662 44.1016L147.387 53.7016L130.662 63.0016L113.938 53.7016Z" fill="#0000FF"/>
<path d="M113.938 74.9984L130.662 65.3984L147.387 74.9984L130.662 84.5984L113.938 74.9984Z" fill="#0000FF"/>
<path d="M113.938 96.3L130.662 87L147.387 96.3L130.662 105.9L113.938 96.3Z" fill="#0000FF"/>
<path d="M113.938 117.897L130.662 108.297L147.387 117.897L130.662 127.497L113.938 117.897Z" fill="#0000FF"/>
<path d="M113.938 139.202L130.662 129.602L147.387 139.202L130.662 148.802L113.938 139.202Z" fill="#0000FF"/>
<path d="M150 149.998V140.398L133.275 149.998H150Z" fill="#0000FF"/>
<path d="M150 138.002V119.102L133.275 128.702L150 138.002Z" fill="#0000FF"/>
<path d="M150 116.697V97.7969L133.275 107.097L150 116.697Z" fill="#0000FF"/>
<path d="M150 95.1031V76.2031L133.275 85.8031L150 95.1031Z" fill="#0000FF"/>
<path d="M150 73.7984V54.8984L133.275 64.1984L150 73.7984Z" fill="#0000FF"/>
<path d="M149.478 52.4969V33.2969L132.753 42.8969L149.478 52.4969Z" fill="#0000FF"/>
<path d="M150 30.9V12L133.798 21.6L150 30.9Z" fill="#0000FF"/>
<path d="M132.753 0H149.478L148.955 9.6L132.753 0Z" fill="#0000FF"/>
<path d="M20.9062 85.8031L37.631 76.2031L53.8331 85.8031L37.631 95.4031L20.9062 85.8031Z" fill="#0000FF"/>
<path d="M0 140.398V149.698" stroke="black" stroke-width="0.791946"/>
<path d="M20.9062 149.698L37.631 140.398" stroke="black" stroke-width="0.791946"/>
<path d="M58.0137 149.698L74.7384 140.398" stroke="black" stroke-width="0.791946"/>
<path d="M95.6445 149.698L111.847 140.398" stroke="black" stroke-width="0.791946"/>
<path d="M133.275 149.998L150 140.398" stroke="black" stroke-width="0.791946"/>
<path d="M150 138.002L133.275 128.702L150 119.102" stroke="black" stroke-width="0.791946"/>
<path d="M130.662 148.802L113.938 139.202L130.662 129.602" stroke="black" stroke-width="0.791946"/>
<path d="M111.847 138.002L95.6445 128.702L111.847 119.102" stroke="black" stroke-width="0.791946"/>
<path d="M93.5538 148.802L76.8291 139.202L93.5538 129.602" stroke="black" stroke-width="0.791946"/>
<path d="M74.7384 138.002L58.0137 128.702L74.7384 119.102" stroke="black" stroke-width="0.791946"/>
<path d="M55.923 148.802L39.1982 139.202L55.923 129.602" stroke="black" stroke-width="0.791946"/>
<path d="M37.631 138.002L20.9062 128.702L37.631 119.102" stroke="black" stroke-width="0.791946"/>
<path d="M18.8156 148.802L2.09082 139.202L18.8156 129.602" stroke="black" stroke-width="0.791946"/>
<path d="M0 119.102V138.002" stroke="black" stroke-width="0.791946"/>
<path d="M150 116.697L133.275 107.097L150 97.7969" stroke="black" stroke-width="0.791946"/>
<path d="M130.662 127.497L113.938 117.897L130.662 108.297" stroke="black" stroke-width="0.791946"/>
<path d="M111.847 116.697L95.6445 107.097L111.847 97.7969" stroke="black" stroke-width="0.791946"/>
<path d="M93.5538 127.497L76.8291 117.897L93.5538 108.297" stroke="black" stroke-width="0.791946"/>
<path d="M74.7384 116.697L58.0137 107.097L74.7384 97.7969" stroke="black" stroke-width="0.791946"/>
<path d="M55.923 127.497L39.1982 117.897L55.923 108.297" stroke="black" stroke-width="0.791946"/>
<path d="M37.631 116.697L20.9062 107.097L37.631 97.7969" stroke="black" stroke-width="0.791946"/>
<path d="M18.8156 127.497L2.09082 117.897L18.8156 108.297" stroke="black" stroke-width="0.791946"/>
<path d="M0 97.7969V116.697" stroke="black" stroke-width="0.791946"/>
<path d="M0 76.2031V95.4031" stroke="black" stroke-width="0.791946"/>
<path d="M18.8156 105.9L2.09082 96.3L18.8156 87" stroke="black" stroke-width="0.791946"/>
<path d="M37.631 95.1031L20.9062 85.8031L37.631 76.2031" stroke="black" stroke-width="0.791946"/>
<path d="M55.923 105.9L39.1982 96.3L55.923 87" stroke="black" stroke-width="0.791946"/>
<path d="M74.7384 95.4031L58.0137 85.8031L74.7384 76.2031" stroke="black" stroke-width="0.791946"/>
<path d="M93.5538 105.9L76.8291 96.3L93.5538 87" stroke="black" stroke-width="0.791946"/>
<path d="M111.847 95.4031L95.6445 85.8031L111.847 76.2031" stroke="black" stroke-width="0.791946"/>
<path d="M130.662 105.9L113.938 96.3L130.662 87" stroke="black" stroke-width="0.791946"/>
<path d="M150 95.1031L133.275 85.8031L150 76.2031" stroke="black" stroke-width="0.791946"/>
<path d="M150 73.7984L133.275 64.1984L150 54.8984" stroke="black" stroke-width="0.791946"/>
<path d="M130.662 84.5984L113.938 74.9984L130.662 65.3984" stroke="black" stroke-width="0.791946"/>
<path d="M111.847 73.7984L95.6445 64.1984L111.847 54.8984" stroke="black" stroke-width="0.791946"/>
<path d="M93.5538 84.5984L76.8291 74.9984L93.5538 65.3984" stroke="black" stroke-width="0.791946"/>
<path d="M74.7384 73.7984L58.0137 64.1984L74.7384 54.8984" stroke="black" stroke-width="0.791946"/>
<path d="M55.923 84.5984L39.1982 74.9984L55.923 65.3984" stroke="black" stroke-width="0.791946"/>
<path d="M37.631 73.7984L20.9062 64.1984L37.631 54.8984" stroke="black" stroke-width="0.791946"/>
<path d="M18.8156 84.5984L2.09082 74.9984L18.8156 65.3984" stroke="black" stroke-width="0.791946"/>
<path d="M0 54.8984V73.7984" stroke="black" stroke-width="0.791946"/>
<path d="M18.8156 63.0016L2.09082 53.7016L18.8156 44.1016" stroke="black" stroke-width="0.791946"/>
<path d="M37.631 52.4969L20.9062 42.8969L37.631 33.2969" stroke="black" stroke-width="0.791946"/>
<path d="M55.923 63.0016L39.1982 53.7016L55.923 44.1016" stroke="black" stroke-width="0.791946"/>
<path d="M74.7384 52.4969L58.0137 42.8969L74.7384 33.2969" stroke="black" stroke-width="0.791946"/>
<path d="M93.5538 63.0016L76.8291 53.7016L93.5538 44.1016" stroke="black" stroke-width="0.791946"/>
<path d="M111.847 52.4969L95.6445 42.8969L111.847 33.2969" stroke="black" stroke-width="0.791946"/>
<path d="M130.662 63.0016L113.938 53.7016L130.662 44.1016" stroke="black" stroke-width="0.791946"/>
<path d="M149.478 52.4969L132.753 42.8969L149.478 33.2969" stroke="black" stroke-width="0.791946"/>
<path d="M150 30.9L133.798 21.6L150 12" stroke="black" stroke-width="0.791946"/>
<path d="M130.662 41.7L113.938 32.1L130.662 22.5" stroke="black" stroke-width="0.791946"/>
<path d="M111.847 30.9L95.6445 21.6L111.847 12" stroke="black" stroke-width="0.791946"/>
<path d="M93.5538 41.7L76.8291 32.1L93.5538 22.5" stroke="black" stroke-width="0.791946"/>
<path d="M74.7384 30.9L58.0137 21.6L74.7384 12" stroke="black" stroke-width="0.791946"/>
<path d="M55.923 41.7L39.1982 32.1L55.923 22.5" stroke="black" stroke-width="0.791946"/>
<path d="M37.631 30.9L20.9062 21.6L37.631 12" stroke="black" stroke-width="0.791946"/>
<path d="M18.8156 41.7L2.09082 32.1L18.8156 22.5" stroke="black" stroke-width="0.791946"/>
<path d="M0 12V31.2" stroke="black" stroke-width="0.791946"/>
<path d="M18.8156 20.4031L2.09082 10.8031L18.8156 1.20312" stroke="black" stroke-width="0.791946"/>
<path d="M55.923 20.4031L39.1982 10.8031L55.923 1.20312" stroke="black" stroke-width="0.791946"/>
<path d="M93.5538 20.4031L76.8291 10.8031L93.5538 1.20312" stroke="black" stroke-width="0.791946"/>
<path d="M130.662 20.4031L113.938 10.8031L130.662 1.20312" stroke="black" stroke-width="0.791946"/>
<path d="M148.955 9.6L132.753 0H149.478" stroke="black" stroke-width="0.791946"/>
<path d="M111.847 9.6L95.1221 0H128.572" stroke="black" stroke-width="0.791946"/>
<path d="M74.7384 9.6L58.0137 0H91.4632" stroke="black" stroke-width="0.791946"/>
<path d="M37.1083 9.6L20.9062 0H53.8331" stroke="black" stroke-width="0.791946"/>
<path d="M0 9.6V0H16.7247" stroke="black" stroke-width="0.791946"/>
<path d="M0 33.2969V52.4969" stroke="black" stroke-width="0.791946"/>
<path d="M18.8154 20.4031L35.5402 10.8031L18.8154 1.20312" stroke="white" stroke-width="0.791946"/>
<path d="M18.8154 41.7L35.5402 32.1L18.8154 22.5" stroke="white" stroke-width="0.791946"/>
<path d="M18.8154 63.0016L35.5402 53.7016L18.8154 44.1016" stroke="white" stroke-width="0.791946"/>
<path d="M18.8154 84.5984L35.5402 74.9984L18.8154 65.3984" stroke="white" stroke-width="0.791946"/>
<path d="M18.8154 105.9L35.5402 96.3L18.8154 87" stroke="white" stroke-width="0.791946"/>
<path d="M18.8154 127.497L35.5402 117.897L18.8154 108.297" stroke="white" stroke-width="0.791946"/>
<path d="M18.8154 148.802L35.5402 139.202L18.8154 129.602" stroke="white" stroke-width="0.791946"/>
<path d="M55.9238 20.4031L72.6486 10.8031L55.9238 1.20312" stroke="white" stroke-width="0.791946"/>
<path d="M55.9238 41.7L72.6486 32.1L55.9238 22.5" stroke="white" stroke-width="0.791946"/>
<path d="M55.9238 63.0016L72.6486 53.7016L55.9238 44.1016" stroke="white" stroke-width="0.791946"/>
<path d="M55.9238 84.5984L72.6486 74.9984L55.9238 65.3984" stroke="white" stroke-width="0.791946"/>
<path d="M55.9238 105.9L72.6486 96.3L55.9238 87" stroke="white" stroke-width="0.791946"/>
<path d="M55.9238 127.497L72.6486 117.897L55.9238 108.297" stroke="white" stroke-width="0.791946"/>
<path d="M55.9238 148.802L72.6486 139.202L55.9238 129.602" stroke="white" stroke-width="0.791946"/>
<path d="M93.5537 20.4031L110.278 10.8031L93.5537 1.20312" stroke="white" stroke-width="0.791946"/>
<path d="M93.5537 41.7L110.278 32.1L93.5537 22.5" stroke="white" stroke-width="0.791946"/>
<path d="M93.5537 63.0016L110.278 53.7016L93.5537 44.1016" stroke="white" stroke-width="0.791946"/>
<path d="M93.5537 84.5984L110.278 74.9984L93.5537 65.3984" stroke="white" stroke-width="0.791946"/>
<path d="M93.5537 105.9L110.278 96.3L93.5537 87" stroke="white" stroke-width="0.791946"/>
<path d="M93.5537 127.497L110.278 117.897L93.5537 108.297" stroke="white" stroke-width="0.791946"/>
<path d="M93.5537 148.802L110.278 139.202L93.5537 129.602" stroke="white" stroke-width="0.791946"/>
<path d="M130.662 20.4031L147.387 10.8031L130.662 1.20312" stroke="white" stroke-width="0.791946"/>
<path d="M130.662 41.7L147.387 32.1L130.662 22.5" stroke="white" stroke-width="0.791946"/>
<path d="M130.662 63.0016L147.387 53.7016L130.662 44.1016" stroke="white" stroke-width="0.791946"/>
<path d="M130.662 84.5984L147.387 74.9984L130.662 65.3984" stroke="white" stroke-width="0.791946"/>
<path d="M130.662 105.9L147.387 96.3L130.662 87" stroke="white" stroke-width="0.791946"/>
<path d="M130.662 127.497L147.387 117.897L130.662 108.297" stroke="white" stroke-width="0.791946"/>
<path d="M130.662 148.802L147.387 139.202L130.662 129.602" stroke="white" stroke-width="0.791946"/>
<path d="M37.6309 30.9L53.833 21.6L37.6309 12" stroke="white" stroke-width="0.791946"/>
<path d="M37.6309 52.4969L53.833 42.8969L37.6309 33.2969" stroke="white" stroke-width="0.791946"/>
<path d="M37.6309 73.7984L53.833 64.1984L37.6309 54.8984" stroke="white" stroke-width="0.791946"/>
<path d="M37.6309 95.4031L53.833 85.8031L37.6309 76.2031" stroke="white" stroke-width="0.791946"/>
<path d="M37.6309 116.697L53.833 107.097L37.6309 97.7969" stroke="white" stroke-width="0.791946"/>
<path d="M37.6309 138.002L53.833 128.702L37.6309 119.102" stroke="white" stroke-width="0.791946"/>
<path d="M74.7383 30.9L91.463 21.6L74.7383 12" stroke="white" stroke-width="0.791946"/>
<path d="M74.7383 52.4969L91.463 42.8969L74.7383 33.2969" stroke="white" stroke-width="0.791946"/>
<path d="M74.7383 73.7984L91.463 64.1984L74.7383 54.8984" stroke="white" stroke-width="0.791946"/>
<path d="M74.7383 95.4031L91.463 85.8031L74.7383 76.2031" stroke="white" stroke-width="0.791946"/>
<path d="M74.7383 116.697L91.463 107.097L74.7383 97.7969" stroke="white" stroke-width="0.791946"/>
<path d="M74.7383 138.002L91.463 128.702L74.7383 119.102" stroke="white" stroke-width="0.791946"/>
<path d="M111.847 30.9L128.571 21.6L111.847 12" stroke="white" stroke-width="0.791946"/>
<path d="M111.847 52.4969L128.571 42.8969L111.847 33.2969" stroke="white" stroke-width="0.791946"/>
<path d="M111.847 73.7984L128.571 64.1984L111.847 54.8984" stroke="white" stroke-width="0.791946"/>
<path d="M111.847 95.4031L128.571 85.8031L111.847 76.2031" stroke="white" stroke-width="0.791946"/>
<path d="M111.847 116.697L128.571 107.097L111.847 97.7969" stroke="white" stroke-width="0.791946"/>
<path d="M111.847 138.002L128.571 128.702L111.847 119.102" stroke="white" stroke-width="0.791946"/>
<path d="M150 30.9V12" stroke="white" stroke-width="0.791946"/>
<path d="M149.478 52.4969V33.2969" stroke="white" stroke-width="0.791946"/>
<path d="M150 73.7984V54.8984" stroke="white" stroke-width="0.791946"/>
<path d="M150 95.1031V76.2031" stroke="white" stroke-width="0.791946"/>
<path d="M150 116.697V97.7969" stroke="white" stroke-width="0.791946"/>
<path d="M150 138.002V119.102" stroke="white" stroke-width="0.791946"/>
<path d="M150 140.398V149.998H132.753" stroke="white" stroke-width="0.791946"/>
<path d="M95.6445 149.698H128.571L111.847 140.398" stroke="white" stroke-width="0.791946"/>
<path d="M58.0137 149.698H91.4632L74.7384 140.398" stroke="white" stroke-width="0.791946"/>
<path d="M20.9062 149.698H53.8331L37.631 140.398" stroke="white" stroke-width="0.791946"/>
<path d="M0 140.398L16.7247 149.698L0 149.998" stroke="white" stroke-width="0.791946"/>
<path d="M0 138.002L16.2021 128.402L0 119.102" stroke="white" stroke-width="0.791946"/>
<path d="M0 9.6L16.2021 0" stroke="white" stroke-width="0.791946"/>
<path d="M53.8331 0L37.1084 9.3" stroke="white" stroke-width="0.791946"/>
<path d="M90.9404 0L74.7383 9.3" stroke="white" stroke-width="0.791946"/>
<path d="M128.571 0L111.847 9.3" stroke="white" stroke-width="0.791946"/>
<path d="M150 0V9.6" stroke="white" stroke-width="0.791946"/>
<path d="M0 116.697L16.2021 107.097L0 97.7969" stroke="white" stroke-width="0.791946"/>
<path d="M0 95.1031L16.2021 85.8031L0 76.2031" stroke="white" stroke-width="0.791946"/>
<path d="M0 73.7984L16.2021 64.1984L0 54.8984" stroke="white" stroke-width="0.791946"/>
<path d="M0 52.4969L16.2021 42.8969L0 33.2969" stroke="white" stroke-width="0.791946"/>
<path d="M0 30.9L16.2021 21.6L0 12" stroke="white" stroke-width="0.791946"/>
</g>
<defs>
<clipPath id="clip0_2109_241959">
<rect width="150" height="150" fill="white"/>
</clipPath>
</defs>
</svg>
