<svg width="150" height="150" viewBox="0 0 150 150" fill="none" xmlns="http://www.w3.org/2000/svg">
<g clip-path="url(#clip0_2109_241869)">
<path d="M134.675 128.098C142.882 128.098 149.536 123.8 149.536 118.498C149.536 113.197 142.882 108.898 134.675 108.898C126.468 108.898 119.814 113.197 119.814 118.498C119.814 123.8 126.468 128.098 134.675 128.098Z" fill="#0000FF"/>
<path d="M134.675 106.2C142.882 106.2 149.536 101.902 149.536 96.6C149.536 91.2981 142.882 87 134.675 87C126.468 87 119.814 91.2981 119.814 96.6C119.814 101.902 126.468 106.2 134.675 106.2Z" fill="#0000FF"/>
<path d="M134.675 84.5984C142.882 84.5984 149.536 80.3004 149.536 74.9984C149.536 69.6965 142.882 65.3984 134.675 65.3984C126.468 65.3984 119.814 69.6965 119.814 74.9984C119.814 80.3004 126.468 84.5984 134.675 84.5984Z" fill="#0000FF"/>
<path d="M134.675 62.7C142.882 62.7 149.536 58.4019 149.536 53.1C149.536 47.7981 142.882 43.5 134.675 43.5C126.468 43.5 119.814 47.7981 119.814 53.1C119.814 58.4019 126.468 62.7 134.675 62.7Z" fill="#0000FF"/>
<path d="M134.675 41.0984C142.882 41.0984 149.536 36.8004 149.536 31.4984C149.536 26.1965 142.882 21.8984 134.675 21.8984C126.468 21.8984 119.814 26.1965 119.814 31.4984C119.814 36.8004 126.468 41.0984 134.675 41.0984Z" fill="#0000FF"/>
<path d="M104.953 29.9969C113.161 29.9969 119.814 25.6988 119.814 20.3969C119.814 15.0949 113.161 10.7969 104.953 10.7969C96.7461 10.7969 90.0928 15.0949 90.0928 20.3969C90.0928 25.6988 96.7461 29.9969 104.953 29.9969Z" fill="#0000FF"/>
<path d="M104.953 51.9031C113.161 51.9031 119.814 47.6051 119.814 42.3031C119.814 37.0012 113.161 32.7031 104.953 32.7031C96.7461 32.7031 90.0928 37.0012 90.0928 42.3031C90.0928 47.6051 96.7461 51.9031 104.953 51.9031Z" fill="#0000FF"/>
<path d="M104.953 73.8016C113.161 73.8016 119.814 69.5035 119.814 64.2016C119.814 58.8996 113.161 54.6016 104.953 54.6016C96.7461 54.6016 90.0928 58.8996 90.0928 64.2016C90.0928 69.5035 96.7461 73.8016 104.953 73.8016Z" fill="#0000FF"/>
<path d="M104.953 95.4031C113.161 95.4031 119.814 91.1051 119.814 85.8031C119.814 80.5012 113.161 76.2031 104.953 76.2031C96.7461 76.2031 90.0928 80.5012 90.0928 85.8031C90.0928 91.1051 96.7461 95.4031 104.953 95.4031Z" fill="#0000FF"/>
<path d="M104.953 117.302C113.161 117.302 119.814 113.003 119.814 107.702C119.814 102.4 113.161 98.1016 104.953 98.1016C96.7461 98.1016 90.0928 102.4 90.0928 107.702C90.0928 113.003 96.7461 117.302 104.953 117.302Z" fill="#0000FF"/>
<path d="M104.953 138.903C113.161 138.903 119.814 134.605 119.814 129.303C119.814 124.001 113.161 119.703 104.953 119.703C96.7461 119.703 90.0928 124.001 90.0928 129.303C90.0928 134.605 96.7461 138.903 104.953 138.903Z" fill="#0000FF"/>
<path d="M74.7679 149.7C82.9752 149.7 89.6286 145.402 89.6286 140.1C89.6286 134.798 82.9752 130.5 74.7679 130.5C66.5606 130.5 59.9072 134.798 59.9072 140.1C59.9072 145.402 66.5606 149.7 74.7679 149.7Z" fill="#0000FF"/>
<path d="M74.7679 128.098C82.9752 128.098 89.6286 123.8 89.6286 118.498C89.6286 113.197 82.9752 108.898 74.7679 108.898C66.5606 108.898 59.9072 113.197 59.9072 118.498C59.9072 123.8 66.5606 128.098 74.7679 128.098Z" fill="#0000FF"/>
<path d="M74.7679 106.2C82.9752 106.2 89.6286 101.902 89.6286 96.6C89.6286 91.2981 82.9752 87 74.7679 87C66.5606 87 59.9072 91.2981 59.9072 96.6C59.9072 101.902 66.5606 106.2 74.7679 106.2Z" fill="#0000FF"/>
<path d="M74.7679 84.5984C82.9752 84.5984 89.6286 80.3004 89.6286 74.9984C89.6286 69.6965 82.9752 65.3984 74.7679 65.3984C66.5606 65.3984 59.9072 69.6965 59.9072 74.9984C59.9072 80.3004 66.5606 84.5984 74.7679 84.5984Z" fill="#0000FF"/>
<path d="M74.7679 62.7C82.9752 62.7 89.6286 58.4019 89.6286 53.1C89.6286 47.7981 82.9752 43.5 74.7679 43.5C66.5606 43.5 59.9072 47.7981 59.9072 53.1C59.9072 58.4019 66.5606 62.7 74.7679 62.7Z" fill="#0000FF"/>
<path d="M74.7679 41.0984C82.9752 41.0984 89.6286 36.8004 89.6286 31.4984C89.6286 26.1965 82.9752 21.8984 74.7679 21.8984C66.5606 21.8984 59.9072 26.1965 59.9072 31.4984C59.9072 36.8004 66.5606 41.0984 74.7679 41.0984Z" fill="#0000FF"/>
<path d="M74.7679 19.2C82.9752 19.2 89.6286 14.9019 89.6286 9.6C89.6286 4.29807 82.9752 0 74.7679 0C66.5606 0 59.9072 4.29807 59.9072 9.6C59.9072 14.9019 66.5606 19.2 74.7679 19.2Z" fill="#0000FF"/>
<path d="M45.0462 29.9969C53.2536 29.9969 59.9069 25.6988 59.9069 20.3969C59.9069 15.0949 53.2536 10.7969 45.0462 10.7969C36.8389 10.7969 30.1855 15.0949 30.1855 20.3969C30.1855 25.6988 36.8389 29.9969 45.0462 29.9969Z" fill="#0000FF"/>
<path d="M45.0462 51.9031C53.2536 51.9031 59.9069 47.6051 59.9069 42.3031C59.9069 37.0012 53.2536 32.7031 45.0462 32.7031C36.8389 32.7031 30.1855 37.0012 30.1855 42.3031C30.1855 47.6051 36.8389 51.9031 45.0462 51.9031Z" fill="#0000FF"/>
<path d="M45.0462 73.8016C53.2536 73.8016 59.9069 69.5035 59.9069 64.2016C59.9069 58.8996 53.2536 54.6016 45.0462 54.6016C36.8389 54.6016 30.1855 58.8996 30.1855 64.2016C30.1855 69.5035 36.8389 73.8016 45.0462 73.8016Z" fill="#0000FF"/>
<path d="M45.0462 95.4031C53.2536 95.4031 59.9069 91.1051 59.9069 85.8031C59.9069 80.5012 53.2536 76.2031 45.0462 76.2031C36.8389 76.2031 30.1855 80.5012 30.1855 85.8031C30.1855 91.1051 36.8389 95.4031 45.0462 95.4031Z" fill="#0000FF"/>
<path d="M45.0462 117.302C53.2536 117.302 59.9069 113.003 59.9069 107.702C59.9069 102.4 53.2536 98.1016 45.0462 98.1016C36.8389 98.1016 30.1855 102.4 30.1855 107.702C30.1855 113.003 36.8389 117.302 45.0462 117.302Z" fill="#0000FF"/>
<path d="M45.0462 138.903C53.2536 138.903 59.9069 134.605 59.9069 129.303C59.9069 124.001 53.2536 119.703 45.0462 119.703C36.8389 119.703 30.1855 124.001 30.1855 129.303C30.1855 134.605 36.8389 138.903 45.0462 138.903Z" fill="#0000FF"/>
<path d="M14.8607 128.098C23.068 128.098 29.7214 123.8 29.7214 118.498C29.7214 113.197 23.068 108.898 14.8607 108.898C6.65335 108.898 0 113.197 0 118.498C0 123.8 6.65335 128.098 14.8607 128.098Z" fill="#0000FF"/>
<path d="M14.8607 106.2C23.068 106.2 29.7214 101.902 29.7214 96.6C29.7214 91.2981 23.068 87 14.8607 87C6.65335 87 0 91.2981 0 96.6C0 101.902 6.65335 106.2 14.8607 106.2Z" fill="#0000FF"/>
<path d="M14.8607 84.5984C23.068 84.5984 29.7214 80.3004 29.7214 74.9984C29.7214 69.6965 23.068 65.3984 14.8607 65.3984C6.65335 65.3984 0 69.6965 0 74.9984C0 80.3004 6.65335 84.5984 14.8607 84.5984Z" fill="#0000FF"/>
<path d="M14.8607 62.7C23.068 62.7 29.7214 58.4019 29.7214 53.1C29.7214 47.7981 23.068 43.5 14.8607 43.5C6.65335 43.5 0 47.7981 0 53.1C0 58.4019 6.65335 62.7 14.8607 62.7Z" fill="#0000FF"/>
<path d="M14.8607 41.0984C23.068 41.0984 29.7214 36.8004 29.7214 31.4984C29.7214 26.1965 23.068 21.8984 14.8607 21.8984C6.65335 21.8984 0 26.1965 0 31.4984C0 36.8004 6.65335 41.0984 14.8607 41.0984Z" fill="#0000FF"/>
<path d="M85.4491 3L87.3067 4.2L88.6999 6L89.6287 7.8L90.0931 9.6L89.6287 11.7L88.6999 13.5L87.3067 15L85.4491 16.5L83.1272 17.7L80.8052 18.6L78.0188 19.2L74.768 19.5L71.9817 19.2L69.1953 18.6L66.4089 17.7L64.0869 16.5" stroke="white" stroke-width="0.746509"/>
<path d="M115.635 13.7969L117.492 15.2969L118.885 16.7969L119.35 18.5969L119.814 20.3969L119.35 22.4969L118.885 24.2969L117.492 25.7969L115.635 27.2969L113.313 28.4969L110.991 29.3969L108.204 29.9969L104.954 30.2969L101.703 29.9969L98.9164 29.3969L96.5944 28.4969L94.2725 27.2969" stroke="white" stroke-width="0.746509"/>
<path d="M55.7275 13.7969L57.585 15.2969L58.5138 16.7969L59.4426 18.5969L59.907 20.3969L59.4426 22.4969L58.9782 24.2969L57.585 25.7969L55.7275 27.2969L53.4055 28.4969L51.0835 29.3969L48.2971 29.9969L45.0463 30.2969L41.7956 29.9969L39.0092 29.3969L36.6872 28.4969L34.3652 27.2969" stroke="white" stroke-width="0.746509"/>
<path d="M25.5419 24.6016L27.3995 26.1016L28.7927 27.6016L29.7215 29.4016L30.1859 31.5016L29.7215 33.6016L28.7927 35.4016L27.3995 36.9016L25.5419 38.4016L23.2199 39.6016L20.898 40.5016L18.1116 40.8016L14.8608 41.1016L12.0744 40.8016L9.28805 40.2016L6.50167 39.6016L4.17969 38.4016" stroke="white" stroke-width="0.746509"/>
<path d="M85.4491 24.6016L87.3067 26.1016L88.6999 27.6016L89.6287 29.4016L90.0931 31.5016L89.6287 33.6016L88.6999 35.4016L87.3067 36.9016L85.4491 38.4016L83.1272 39.6016L80.8052 40.5016L78.0188 40.8016L74.768 41.1016L71.9817 40.8016L69.1953 40.2016L66.4089 39.6016L64.0869 38.4016" stroke="white" stroke-width="0.746509"/>
<path d="M145.356 24.6016L147.214 26.1016L148.607 27.6016L149.536 29.4016L150 31.5016L149.536 33.6016L148.607 35.4016L147.214 36.9016L145.356 38.4016L143.034 39.6016L140.712 40.5016L137.926 40.8016L134.675 41.1016L131.889 40.8016L129.102 40.2016L126.316 39.6016L123.994 38.4016" stroke="white" stroke-width="0.746509"/>
<path d="M115.635 35.3984L117.492 36.8984L118.885 38.3984L119.35 40.1984L119.814 42.2984L119.35 44.3984L118.885 46.1984L117.492 47.6984L115.635 49.1984L113.313 50.3984L110.991 51.2984L108.204 51.5984L104.954 51.8984L101.703 51.5984L98.9164 51.2984L96.5944 50.3984L94.2725 49.1984" stroke="white" stroke-width="0.746509"/>
<path d="M55.7275 35.3984L57.585 36.8984L58.5138 38.3984L59.4426 40.1984L59.907 42.2984L59.4426 44.3984L58.9782 46.1984L57.585 47.6984L55.7275 49.1984L53.4055 50.3984L51.0835 51.2984L48.2971 51.5984L45.0463 51.8984L41.7956 51.5984L39.0092 51.2984L36.6872 50.3984L34.3652 49.1984" stroke="white" stroke-width="0.746509"/>
<path d="M25.5419 46.5L27.3995 48L28.7927 49.5L29.7215 51.3L30.1859 53.1L29.7215 55.2L28.7927 57L27.3995 58.5L25.5419 60L23.2199 61.2L20.898 62.1L18.1116 62.7L14.8608 63L12.0744 62.7L9.28805 62.1L6.50167 61.2L4.17969 60" stroke="white" stroke-width="0.746509"/>
<path d="M55.7275 57.2969L57.585 58.7969L58.5138 60.2969L59.4426 62.0969L59.907 63.8969L59.4426 65.9969L58.9782 67.7969L57.585 69.2969L55.7275 70.7969L53.4055 71.9969L51.0835 72.8969L48.2971 73.4969L45.0463 73.7969L41.7956 73.4969L39.0092 72.8969L36.6872 71.9969L34.3652 70.7969" stroke="white" stroke-width="0.746509"/>
<path d="M85.4491 46.5L87.3067 48L88.6999 49.5L89.6287 51.3L90.0931 53.1L89.6287 55.2L88.6999 57L87.3067 58.5L85.4491 60L83.1272 61.2L80.8052 62.1L78.0188 62.7L74.768 63L71.9817 62.7L69.1953 62.1L66.4089 61.2L64.0869 60" stroke="white" stroke-width="0.746509"/>
<path d="M115.635 57.2969L117.492 58.7969L118.885 60.2969L119.35 62.0969L119.814 63.8969L119.35 65.9969L118.885 67.7969L117.492 69.2969L115.635 70.7969L113.313 71.9969L110.991 72.8969L108.204 73.4969L104.954 73.7969L101.703 73.4969L98.9164 72.8969L96.5944 71.9969L94.2725 70.7969" stroke="white" stroke-width="0.746509"/>
<path d="M145.356 46.5L147.214 48L148.607 49.5L149.536 51.3L150 53.1L149.536 55.2L148.607 57L147.214 58.5L145.356 60L143.034 61.2L140.712 62.1L137.926 62.7L134.675 63L131.889 62.7L129.102 62.1L126.316 61.2L123.994 60" stroke="white" stroke-width="0.746509"/>
<path d="M145.356 68.1016L147.214 69.6016L148.607 71.1016L149.536 72.9016L150 75.0016L149.536 77.1016L148.607 78.9016L147.214 80.4016L145.356 81.9016L143.034 83.1016L140.712 84.0016L137.926 84.3016L134.675 84.6016L131.889 84.3016L129.102 84.0016L126.316 83.1016L123.994 81.9016" stroke="white" stroke-width="0.746509"/>
<path d="M85.4491 68.1016L87.3067 69.6016L88.6999 71.1016L89.6287 72.9016L90.0931 75.0016L89.6287 77.1016L88.6999 78.9016L87.3067 80.4016L85.4491 81.9016L83.1272 83.1016L80.8052 84.0016L78.0188 84.3016L74.768 84.6016L71.9817 84.3016L69.1953 84.0016L66.4089 83.1016L64.0869 81.9016" stroke="white" stroke-width="0.746509"/>
<path d="M25.5419 68.1016L27.3995 69.6016L28.7927 71.1016L29.7215 72.9016L30.1859 75.0016L29.7215 77.1016L28.7927 78.9016L27.3995 80.4016L25.5419 81.9016L23.2199 83.1016L20.898 84.0016L18.1116 84.3016L14.8608 84.6016L12.0744 84.3016L9.28805 84.0016L6.50167 83.1016L4.17969 81.9016" stroke="white" stroke-width="0.746509"/>
<path d="M145.356 90L147.214 91.5L148.607 93L149.536 94.8L150 96.9L149.536 98.7L148.607 100.5L147.214 102.3L145.356 103.5L143.034 104.7L140.712 105.6L137.926 106.2L134.675 106.5L131.889 106.2L129.102 105.6L126.316 104.7L123.994 103.5" stroke="white" stroke-width="0.746509"/>
<path d="M115.635 78.8984L117.492 80.3984L118.885 81.8984L119.35 83.6984L119.814 85.7984L119.35 87.8984L118.885 89.6984L117.492 91.1984L115.635 92.6984L113.313 93.8984L110.991 94.7984L108.204 95.0984L104.954 95.3984L101.703 95.0984L98.9164 94.7984L96.5944 93.8984L94.2725 92.6984" stroke="white" stroke-width="0.746509"/>
<path d="M85.4491 90L87.3067 91.5L88.6999 93L89.6287 94.8L90.0931 96.9L89.6287 98.7L88.6999 100.5L87.3067 102.3L85.4491 103.5L83.1272 104.7L80.8052 105.6L78.0188 106.2L74.768 106.5L71.9817 106.2L69.1953 105.6L66.4089 104.7L64.0869 103.5" stroke="white" stroke-width="0.746509"/>
<path d="M55.7275 78.8984L57.585 80.3984L58.5138 81.8984L59.4426 83.6984L59.907 85.7984L59.4426 87.8984L58.9782 89.6984L57.585 91.1984L55.7275 92.6984L53.4055 93.8984L51.0835 94.7984L48.2971 95.0984L45.0463 95.3984L41.7956 95.0984L39.0092 94.7984L36.6872 93.8984L34.3652 92.6984" stroke="white" stroke-width="0.746509"/>
<path d="M25.5419 90L27.3995 91.5L28.7927 93L29.7215 94.8L30.1859 96.9L29.7215 98.7L28.7927 100.5L27.3995 102.3L25.5419 103.5L23.2199 104.7L20.898 105.6L18.1116 106.2L14.8608 106.5L12.0744 106.2L9.28805 105.6L6.50167 104.7L4.17969 103.5" stroke="white" stroke-width="0.746509"/>
<path d="M25.5419 111.602L27.3995 113.102L28.7927 114.902L29.7215 116.702L30.1859 118.502L29.7215 120.602L28.7927 122.402L27.3995 123.902L25.5419 125.402L23.2199 126.602L20.898 127.502L18.1116 127.802L14.8608 128.102L12.0744 127.802L9.28805 127.502L6.50167 126.602L4.17969 125.402" stroke="white" stroke-width="0.746509"/>
<path d="M55.7275 100.797L57.585 102.297L58.5138 103.797L59.4426 105.597L59.907 107.697L59.4426 109.797L58.9782 111.597L57.585 113.097L55.7275 114.597L53.4055 115.797L51.0835 116.697L48.2971 116.997L45.0463 117.297L41.7956 116.997L39.0092 116.397L36.6872 115.797L34.3652 114.597" stroke="white" stroke-width="0.746509"/>
<path d="M85.4491 111.602L87.3067 113.102L88.6999 114.902L89.6287 116.702L90.0931 118.502L89.6287 120.602L88.6999 122.402L87.3067 123.902L85.4491 125.402L83.1272 126.602L80.8052 127.502L78.0188 127.802L74.768 128.102L71.9817 127.802L69.1953 127.502L66.4089 126.602L64.0869 125.402" stroke="white" stroke-width="0.746509"/>
<path d="M115.635 100.797L117.492 102.297L118.885 103.797L119.35 105.597L119.814 107.697L119.35 109.797L118.885 111.597L117.492 113.097L115.635 114.597L113.313 115.797L110.991 116.697L108.204 116.997L104.954 117.297L101.703 116.997L98.9164 116.397L96.5944 115.797L94.2725 114.597" stroke="white" stroke-width="0.746509"/>
<path d="M145.356 111.602L147.214 113.102L148.607 114.902L149.536 116.702L150 118.502L149.536 120.602L148.607 122.402L147.214 123.902L145.356 125.402L143.034 126.602L140.712 127.502L137.926 127.802L134.675 128.102L131.889 127.802L129.102 127.502L126.316 126.602L123.994 125.402" stroke="white" stroke-width="0.746509"/>
<path d="M115.635 122.703L117.492 124.203L118.885 125.703L119.35 127.503L119.814 129.303L119.35 131.403L118.885 133.203L117.492 134.703L115.635 136.203L113.313 137.403L110.991 138.303L108.204 138.903L104.954 139.203L101.703 138.903L98.9164 138.303L96.5944 137.403L94.2725 136.203" stroke="white" stroke-width="0.746509"/>
<path d="M55.7275 122.703L57.585 124.203L58.5138 125.703L59.4426 127.503L59.907 129.303L59.4426 131.403L58.9782 133.203L57.585 134.703L55.7275 136.203L53.4055 137.403L51.0835 138.303L48.2971 138.903L45.0463 139.203L41.7956 138.903L39.0092 138.303L36.6872 137.403L34.3652 136.203" stroke="white" stroke-width="0.746509"/>
<path d="M85.4491 133.5L87.3067 135L88.6999 136.5L89.6287 138.3L90.0931 140.4L89.6287 142.5L88.6999 144.3L87.3067 145.8L85.4491 147.3L83.1272 148.5L80.8052 149.4L78.0188 149.7L74.768 150L71.9817 149.7L69.1953 149.1L66.4089 148.2L64.0869 147" stroke="white" stroke-width="0.746509"/>
<path d="M64.5512 147L62.6936 145.8L61.3004 144L60.3716 142.2L59.9072 140.4L60.3716 138.3L61.3004 136.5L62.6936 135L64.5512 133.5L66.4088 132.3L69.1952 131.4L71.9815 130.8L74.7679 130.5L78.0187 130.8L80.8051 131.4L83.127 132.3L85.449 133.5" stroke="black" stroke-width="0.746509"/>
<path d="M34.3651 136.203L32.5075 134.703L31.1143 133.203L30.6499 131.403L30.1855 129.603L30.6499 127.503L31.1143 125.703L32.5075 124.203L34.3651 122.703L36.6871 121.503L39.0091 120.603L41.7955 120.003L45.0462 119.703L47.8326 120.003L50.619 120.603L53.4054 121.503L55.7273 122.703" stroke="black" stroke-width="0.746509"/>
<path d="M94.2723 136.203L92.4148 134.703L91.0216 133.203L90.5572 131.403L90.0928 129.603L90.5572 127.503L91.0216 125.703L92.4148 124.203L94.2723 122.703L96.5943 121.503L98.9163 120.603L101.703 120.003L104.953 119.703L107.74 120.003L110.526 120.603L113.313 121.503L115.635 122.703" stroke="black" stroke-width="0.746509"/>
<path d="M124.458 125.398L122.601 123.898L121.208 122.398L120.279 120.598L119.814 118.498L120.279 116.398L121.208 114.598L122.601 113.098L124.458 111.598L126.316 110.398L129.102 109.498L131.889 109.198L134.675 108.898L137.926 109.198L140.712 109.798L143.034 110.398L145.356 111.598" stroke="black" stroke-width="0.746509"/>
<path d="M64.5512 125.398L62.6936 123.898L61.3004 122.398L60.3716 120.598L59.9072 118.498L60.3716 116.398L61.3004 114.598L62.6936 113.098L64.5512 111.598L66.4088 110.398L69.1952 109.498L71.9815 109.198L74.7679 108.898L78.0187 109.198L80.8051 109.798L83.127 110.398L85.449 111.598" stroke="black" stroke-width="0.746509"/>
<path d="M4.64396 125.398L2.78638 123.898L1.39319 122.398L0.464396 120.598L0 118.498L0.464396 116.398L0.928793 114.598L2.32198 113.098L4.17957 111.598L6.50155 110.398L8.82353 109.498L11.6099 109.198L14.8607 108.898L18.1115 109.198L20.8978 109.798L23.2198 110.398L25.5418 111.598" stroke="black" stroke-width="0.746509"/>
<path d="M34.3651 114.602L32.5075 113.102L31.1143 111.602L30.6499 109.802L30.1855 107.702L30.6499 105.602L31.1143 103.802L32.5075 102.302L34.3651 100.802L36.6871 99.6016L39.0091 98.7016L41.7955 98.4016L45.0462 98.1016L47.8326 98.4016L50.619 98.7016L53.4054 99.6016L55.7273 100.802" stroke="black" stroke-width="0.746509"/>
<path d="M94.2723 114.602L92.4148 113.102L91.0216 111.602L90.5572 109.802L90.0928 107.702L90.5572 105.602L91.0216 103.802L92.4148 102.302L94.2723 100.802L96.5943 99.6016L98.9163 98.7016L101.703 98.4016L104.953 98.1016L107.74 98.4016L110.526 98.7016L113.313 99.6016L115.635 100.802" stroke="black" stroke-width="0.746509"/>
<path d="M124.458 103.5L122.601 102L121.208 100.5L120.279 98.7L119.814 96.9L120.279 94.8L121.208 93L122.601 91.5L124.458 90L126.316 88.8L129.102 87.9L131.889 87.3L134.675 87L137.926 87.3L140.712 87.9L143.034 88.8L145.356 90" stroke="black" stroke-width="0.746509"/>
<path d="M94.2723 92.7031L92.4148 91.2031L91.0216 89.7031L90.5572 87.9031L90.0928 86.1031L90.5572 84.0031L91.0216 82.2031L92.4148 80.7031L94.2723 79.2031L96.5943 78.0031L98.9163 77.1031L101.703 76.5031L104.953 76.2031L107.74 76.5031L110.526 77.1031L113.313 78.0031L115.635 79.2031" stroke="black" stroke-width="0.746509"/>
<path d="M64.5512 103.5L62.6936 102L61.3004 100.5L60.3716 98.7L59.9072 96.9L60.3716 94.8L61.3004 93L62.6936 91.5L64.5512 90L66.4088 88.8L69.1952 87.9L71.9815 87.3L74.7679 87L78.0187 87.3L80.8051 87.9L83.127 88.8L85.449 90" stroke="black" stroke-width="0.746509"/>
<path d="M34.3651 92.7031L32.5075 91.2031L31.1143 89.7031L30.6499 87.9031L30.1855 86.1031L30.6499 84.0031L31.1143 82.2031L32.5075 80.7031L34.3651 79.2031L36.6871 78.0031L39.0091 77.1031L41.7955 76.5031L45.0462 76.2031L47.8326 76.5031L50.619 77.1031L53.4054 78.0031L55.7273 79.2031" stroke="black" stroke-width="0.746509"/>
<path d="M4.64396 103.5L2.78638 102L1.39319 100.5L0.464396 98.7L0 96.9L0.464396 94.8L0.928793 93L2.32198 91.5L4.17957 90L6.50155 88.8L8.82353 87.9L11.6099 87.3L14.8607 87L18.1115 87.3L20.8978 87.9L23.2198 88.8L25.5418 90" stroke="black" stroke-width="0.746509"/>
<path d="M4.64396 81.8984L2.78638 80.3984L1.39319 78.8984L0.464396 77.0984L0 74.9984L0.464396 72.8984L0.928793 71.0984L2.32198 69.5984L4.17957 68.0984L6.50155 66.8984L8.82353 65.9984L11.6099 65.6984L14.8607 65.3984L18.1115 65.6984L20.8978 65.9984L23.2198 66.8984L25.5418 68.0984" stroke="black" stroke-width="0.746509"/>
<path d="M64.5512 81.8984L62.6936 80.3984L61.3004 78.8984L60.3716 77.0984L59.9072 74.9984L60.3716 72.8984L61.3004 71.0984L62.6936 69.5984L64.5512 68.0984L66.4088 66.8984L69.1952 65.9984L71.9815 65.6984L74.7679 65.3984L78.0187 65.6984L80.8051 65.9984L83.127 66.8984L85.449 68.0984" stroke="black" stroke-width="0.746509"/>
<path d="M124.458 81.8984L122.601 80.3984L121.208 78.8984L120.279 77.0984L119.814 74.9984L120.279 72.8984L121.208 71.0984L122.601 69.5984L124.458 68.0984L126.316 66.8984L129.102 65.9984L131.889 65.6984L134.675 65.3984L137.926 65.6984L140.712 65.9984L143.034 66.8984L145.356 68.0984" stroke="black" stroke-width="0.746509"/>
<path d="M4.64396 60L2.78638 58.5L1.39319 57L0.464396 55.2L0 53.1L0.464396 51.3L0.928793 49.5L2.32198 47.7L4.17957 46.5L6.50155 45.3L8.82353 44.4L11.6099 43.8L14.8607 43.5L18.1115 43.8L20.8978 44.4L23.2198 45.3L25.5418 46.5" stroke="black" stroke-width="0.746509"/>
<path d="M34.3651 71.1016L32.5075 69.6016L31.1143 68.1016L30.6499 66.3016L30.1855 64.2016L30.6499 62.1016L31.1143 60.3016L32.5075 58.8016L34.3651 57.3016L36.6871 56.1016L39.0091 55.2016L41.7955 54.9016L45.0462 54.6016L47.8326 54.9016L50.619 55.2016L53.4054 56.1016L55.7273 57.3016" stroke="black" stroke-width="0.746509"/>
<path d="M64.5512 60L62.6936 58.5L61.3004 57L60.3716 55.2L59.9072 53.1L60.3716 51.3L61.3004 49.5L62.6936 47.7L64.5512 46.5L66.4088 45.3L69.1952 44.4L71.9815 43.8L74.7679 43.5L78.0187 43.8L80.8051 44.4L83.127 45.3L85.449 46.5" stroke="black" stroke-width="0.746509"/>
<path d="M94.2723 71.1016L92.4148 69.6016L91.0216 68.1016L90.5572 66.3016L90.0928 64.2016L90.5572 62.1016L91.0216 60.3016L92.4148 58.8016L94.2723 57.3016L96.5943 56.1016L98.9163 55.2016L101.703 54.9016L104.953 54.6016L107.74 54.9016L110.526 55.2016L113.313 56.1016L115.635 57.3016" stroke="black" stroke-width="0.746509"/>
<path d="M124.458 60L122.601 58.5L121.208 57L120.279 55.2L119.814 53.1L120.279 51.3L121.208 49.5L122.601 47.7L124.458 46.5L126.316 45.3L129.102 44.4L131.889 43.8L134.675 43.5L137.926 43.8L140.712 44.4L143.034 45.3L145.356 46.5" stroke="black" stroke-width="0.746509"/>
<path d="M124.458 38.3984L122.601 36.8984L121.208 35.0984L120.279 33.2984L119.814 31.4984L120.279 29.3984L121.208 27.5984L122.601 26.0984L124.458 24.5984L126.316 23.3984L129.102 22.4984L131.889 22.1984L134.675 21.8984L137.926 22.1984L140.712 22.4984L143.034 23.3984L145.356 24.5984" stroke="black" stroke-width="0.746509"/>
<path d="M94.2723 49.2031L92.4148 47.7031L91.0216 46.2031L90.5572 44.4031L90.0928 42.3031L90.5572 40.2031L91.0216 38.4031L92.4148 36.9031L94.2723 35.4031L96.5943 34.2031L98.9163 33.3031L101.703 33.0031L104.953 32.7031L107.74 33.0031L110.526 33.6031L113.313 34.2031L115.635 35.4031" stroke="black" stroke-width="0.746509"/>
<path d="M64.5512 38.3984L62.6936 36.8984L61.3004 35.0984L60.3716 33.2984L59.9072 31.4984L60.3716 29.3984L61.3004 27.5984L62.6936 26.0984L64.5512 24.5984L66.4088 23.3984L69.1952 22.4984L71.9815 22.1984L74.7679 21.8984L78.0187 22.1984L80.8051 22.4984L83.127 23.3984L85.449 24.5984" stroke="black" stroke-width="0.746509"/>
<path d="M34.3651 49.2031L32.5075 47.7031L31.1143 46.2031L30.6499 44.4031L30.1855 42.3031L30.6499 40.2031L31.1143 38.4031L32.5075 36.9031L34.3651 35.4031L36.6871 34.2031L39.0091 33.3031L41.7955 33.0031L45.0462 32.7031L47.8326 33.0031L50.619 33.6031L53.4054 34.2031L55.7273 35.4031" stroke="black" stroke-width="0.746509"/>
<path d="M4.64396 38.3984L2.78638 36.8984L1.39319 35.0984L0.464396 33.2984L0 31.4984L0.464396 29.3984L0.928793 27.5984L2.32198 26.0984L4.17957 24.5984L6.50155 23.3984L8.82353 22.4984L11.6099 22.1984L14.8607 21.8984L18.1115 22.1984L20.8978 22.4984L23.2198 23.3984L25.5418 24.5984" stroke="black" stroke-width="0.746509"/>
<path d="M34.3651 27.2969L32.5075 25.7969L31.1143 24.2969L30.6499 22.4969L30.1855 20.6969L30.6499 18.5969L31.1143 16.7969L32.5075 15.2969L34.3651 13.7969L36.6871 12.5969L39.0091 11.6969L41.7955 11.0969L45.0462 10.7969L47.8326 11.0969L50.619 11.6969L53.4054 12.5969L55.7273 13.7969" stroke="black" stroke-width="0.746509"/>
<path d="M94.2723 27.2969L92.4148 25.7969L91.0216 24.2969L90.5572 22.4969L90.0928 20.6969L90.5572 18.5969L91.0216 16.7969L92.4148 15.2969L94.2723 13.7969L96.5943 12.5969L98.9163 11.6969L101.703 11.0969L104.953 10.7969L107.74 11.0969L110.526 11.6969L113.313 12.5969L115.635 13.7969" stroke="black" stroke-width="0.746509"/>
<path d="M64.5512 16.5L62.6936 15L61.3004 13.5L60.3716 11.7L59.9072 9.6L60.3716 7.5L61.3004 5.7L62.6936 4.2L64.5512 2.7L66.4088 1.5L69.1952 0.6L71.9815 0.3L74.7679 0L78.0187 0.3L80.8051 0.9L83.127 1.8L85.449 3" stroke="black" stroke-width="0.746509"/>
</g>
<defs>
<clipPath id="clip0_2109_241869">
<rect width="150" height="150" fill="white"/>
</clipPath>
</defs>
</svg>
