<svg width="150" height="150" viewBox="0 0 150 150" fill="none" xmlns="http://www.w3.org/2000/svg">
<g clip-path="url(#clip0_2109_241818)">
<path d="M75 150H18.9L17.1 149.7L13.2 146.7L9.9 141L8.4 137.1L6.9 132.9L5.4 128.1L4.2 122.7L3.3 117L2.4 110.7L1.5 104.1L0.9 97.2L0.3 90L0 82.8V75V67.2L0.3 60L0.9 52.8L1.5 45.9L2.4 39.3L3.3 33L4.2 27.3L5.4 21.9L6.9 17.1L8.4 12.9L9.9 9L13.2 3.3L17.1 0.3L18.9 0H75H131.4L133.2 0.3L136.8 3.3L140.1 9L141.9 12.9L143.1 17.1L144.6 21.9L145.8 27.3L146.7 33L147.6 39.3L148.5 45.9L149.1 52.8L149.7 60L150 67.2V75V82.8L149.7 90L149.1 97.2L148.5 104.1L147.6 110.7L146.7 117L145.8 122.7L144.6 128.1L143.1 132.9L141.9 137.1L140.1 141L136.8 146.7L133.2 149.7L131.4 150H75Z" fill="#0000FF"/>
<path d="M18.9 150L17.1 149.7L13.2 146.7L9.9 141L8.4 137.1L6.9 132.9L5.4 128.1L4.2 122.7L3.3 117L2.4 110.7L1.5 104.1L0.9 97.2L0.3 90L0 82.8V67.2L0.3 60L0.9 52.8L1.5 45.9L2.4 39.3L3.3 33L4.2 27.3L5.4 21.9L6.9 17.1L8.4 12.9L9.9 9L13.2 3.3L17.1 0.3L18.9 0H131.4" stroke="black" stroke-width="0.6"/>
<path d="M21 150H131.4L133.2 149.7L136.8 146.7L140.1 141L141.9 137.1L143.1 132.9L144.6 128.1L145.8 122.7L146.7 117L147.6 110.7L148.5 104.1L149.1 97.2L149.7 90L150 82.8V67.2L149.7 60L149.1 52.8L148.5 45.9L147.6 39.3L146.7 33L145.8 27.3L144.6 21.9L143.1 17.1L141.9 12.9L140.1 9L136.8 3.3L133.2 0.3L131.4 0" stroke="white" stroke-width="0.6"/>
</g>
<defs>
<clipPath id="clip0_2109_241818">
<rect width="150" height="150" fill="white"/>
</clipPath>
</defs>
</svg>
