<svg width="150" height="150" viewBox="0 0 150 150" fill="none" xmlns="http://www.w3.org/2000/svg">
<g clip-path="url(#clip0_2109_242172)">
<path d="M84.5339 150L95.9746 149.698L106.144 149.095L115.042 147.887L122.034 146.076L128.39 142.455L132.203 138.833L137.288 134.306L141.102 129.779L144.915 125.553L147.458 121.932L149.364 117.706L150 114.99V111.67L149.364 107.445V102.918L148.729 98.0885L148.093 92.6559L147.458 87.5251L146.822 82.0926L146.186 76.9618L145.551 72.1328V67.6056L144.915 63.6821L145.551 58.2495L146.822 53.4205L147.458 48.5915L148.093 43.4608L148.729 38.0282L149.364 32.5956V26.5594L148.729 20.5231L148.093 14.1851L148.729 13.2797L141.102 8.4507L130.932 5.13078L118.856 3.01811L104.873 2.11268L90.8898 0.905433L83.2627 0.301811L76.2712 0H68.6441L55.9322 0.905433L45.1271 1.81087L34.322 3.31992L23.517 5.4326L16.5254 7.24346L10.8051 9.95976L5.72034 14.4869L1.27119 20.5231L0 24.1449L0.635593 26.8612L3.17797 31.6901L5.08475 36.5191L5.72034 43.4608L5.08475 47.9879L5.72034 53.7223V59.4567L6.35593 65.1911L6.99153 70.9256V76.66L7.62712 82.0926V87.827L8.26271 93.5614L8.8983 98.994L8.26271 105.332L7.62712 112.575L6.99153 119.517L6.35593 126.157V131.59L6.99153 135.513L10.1695 138.833L12.7119 142.757L17.161 146.076L19.7034 147.586L29.2373 148.793L43.2203 149.095L57.2034 149.396L70.5508 149.698L77.5424 150H84.5339Z" fill="#0000FF"/>
<path d="M29.2373 148.79L43.2204 149.092L57.2034 149.394L70.5509 149.696L77.5424 149.998H84.5339L95.9746 149.696L106.144 149.092L115.042 147.885L122.034 146.074L128.39 142.452L132.203 138.831L137.288 134.303L141.102 129.776L144.915 125.551L147.458 121.929L149.364 117.704L150 114.987V111.668L149.364 107.442V102.915L148.729 98.086L148.093 92.6535L147.458 87.5227L146.822 82.0901L146.186 76.9593L145.551 72.1303V67.6031L144.915 63.6796L145.551 58.247L146.822 53.418L147.458 48.5891L148.093 43.4583L148.729 38.0257L149.364 32.5931V26.5569L148.729 20.5207L148.093 14.1826L148.729 13.2772L141.102 8.44822L130.932 5.1283L125.212 3.92106L118.856 3.01562" stroke="white" stroke-width="0.875966"/>
<path d="M118.856 3.01811L104.873 2.11268L90.8898 0.905433L83.2627 0.301811L76.2712 0H68.6441L55.9322 0.905433L45.1271 1.81087L34.322 3.31992L23.5169 5.4326L16.5254 7.24346L10.8051 9.95976L5.72034 14.4869L1.27119 20.5231L0 24.1449L0.635593 26.8612L3.17797 31.6901L5.08475 36.5191L5.72034 43.4608L5.08475 47.9879L5.72034 53.7223V59.4567L6.35593 65.1911L6.99153 70.9256V76.66L7.62712 82.0926V87.827L8.26271 93.5614L8.89831 98.994L8.26271 105.332L7.62712 112.575L6.99153 119.517L6.35593 126.157V131.59L6.99153 135.513L10.1695 138.833L12.7119 142.757L17.161 146.076L19.7034 147.586L24.1525 148.491L29.2373 148.793" stroke="black" stroke-width="0.875966"/>
</g>
<defs>
<clipPath id="clip0_2109_242172">
<rect width="150" height="150" fill="white"/>
</clipPath>
</defs>
</svg>
