<svg width="150" height="150" viewBox="0 0 150 150" fill="none" xmlns="http://www.w3.org/2000/svg">
<g clip-path="url(#clip0_2109_241812)">
<path d="M146.1 37.1134L84 143.814L79.8 148.454L76.2 150L71.4 148.969L66.9 145.361L66 143.814L3.9 37.1134L1.5 31.4433L0 23.1959L0.9 12.8866L3.6 6.18557L7.8 1.54639L12.6 0H137.4L142.2 1.54639L146.4 6.18557L149.1 12.8866L150 21.134L149.1 29.3814L147 35.567L146.1 37.1134Z" fill="#0000FF"/>
<path d="M137.4 0L142.2 1.54639L146.4 6.18557L149.1 12.8866L150 21.134L149.1 29.3814L147 35.567L146.1 37.1134L84 143.814L79.8 148.454L76.2 150L71.4 148.969L66.9 145.361L66 143.814" stroke="white" stroke-width="0.786484"/>
<path d="M66 143.814L3.9 37.1134L3 35.567L2.4 33.5052L1.5 31.4433L1.2 29.3814L0.6 27.3196L0.3 25.2577L0 23.1959V21.134L0.3 17.0103L0.9 12.8866L2.1 9.27835L3.6 6.18557L5.7 3.60825L7.8 1.54639L10.2 0.515464L12.6 0H137.4" stroke="black" stroke-width="0.786484"/>
</g>
<defs>
<clipPath id="clip0_2109_241812">
<rect width="150" height="150" fill="white"/>
</clipPath>
</defs>
</svg>
