<svg width="150" height="150" viewBox="0 0 150 150" fill="none" xmlns="http://www.w3.org/2000/svg">
<g clip-path="url(#clip0_2109_241715)">
<path d="M70.9779 150L17.0347 123.6L16.5615 110.4L33.123 100.2L8.51735 84.3L28.8644 71.1L45.8991 68.4L17.0347 47.4L0 42.3L8.51735 31.5L41.1672 24L45.8991 10.2L74.7634 0L87.0662 10.2L111.672 18.6L99.8423 31.5L124.921 42L116.404 57.9L132.965 65.7L149.527 73.5V84.3L145.268 87H128.707L99.3691 105.3L116.404 129L87.0662 139.5L70.9779 150Z" fill="#0000FF" stroke="black" stroke-width="0.753541"/>
<path d="M70.5047 150L17.0347 123.6L16.5615 110.4L33.123 100.2L8.51735 84.3L28.8644 71.1L45.8991 68.4L16.5615 47.4L0 42.3L8.51735 31.5L41.1672 23.7L45.8991 10.5L74.7634 0" stroke="black" stroke-width="0.753541"/>
<path d="M70.9775 150L87.0659 139.5L116.403 129L99.3687 105.3L128.233 86.7H145.268L149.053 84L150 73.5L116.403 57.9L124.921 42L99.8419 31.5L111.672 18.6L86.5927 10.2L74.763 0" stroke="white" stroke-width="0.753541"/>
</g>
<defs>
<clipPath id="clip0_2109_241715">
<rect width="150" height="150" fill="white"/>
</clipPath>
</defs>
</svg>
