<svg width="150" height="150" viewBox="0 0 150 150" fill="none" xmlns="http://www.w3.org/2000/svg">
<g clip-path="url(#clip0_2109_173500)">
<path d="M9.30957 149.999L25.6759 135.885H124.174L128.829 131.23L150 140.54L140.541 149.999H9.30957Z" fill="#ADAD84"/>
<path d="M9.30931 149.999L25.6757 135.885L21.021 131.231V11.5608L0 9.30859V140.54L9.30931 149.999Z" fill="#D7D7C2"/>
<path d="M140.541 0L124.174 6.90691H25.6757L21.021 11.5616L0 9.30931L9.30931 0H140.541Z" fill="#EBEBE1"/>
<path d="M140.54 0L124.174 6.90691L128.828 11.5616V131.231L150 140.541V9.30931L140.54 0Z" fill="#D7D7C2"/>
<path d="M0 9.30931L9.30931 0H140.541L150 9.30931V140.541L140.541 150H9.30931L0 140.541V9.30931Z" stroke="black" stroke-width="0.3003"/>
<path d="M21.0215 11.5609L25.6761 6.90625H124.175L128.829 11.5609V131.08L124.175 135.885H25.6761L21.0215 131.08V11.5609Z" fill="#EBEBE1" stroke="#ADAD84" stroke-width="0.3003"/>
<path d="M79.5797 100.75L103.003 65.6149L121.772 9.30859L126.427 13.9632V128.828L121.772 133.483H28.0782L23.2734 128.828L79.5797 100.75Z" fill="#E1E1D1"/>
<path d="M46.8473 18.6179L37.3878 28.0774L28.0785 60.8101L23.4238 56.1554V13.9632L28.0785 9.30859H70.2707L74.9253 13.9632L46.8473 18.6179Z" fill="#E1E1D1"/>
<path d="M21.0215 131.08V11.5609L25.6761 6.90625H124.175" stroke="white" stroke-width="0.3003"/>
<path d="M28.9785 96.0943V52.5508H58.2578V57.6559H34.6842V71.3195H54.504V76.1244H34.6842V96.0943H28.9785Z" fill="#666666"/>
<path d="M84.3842 96.0943H78.6785V62.6108L77.6274 63.5117L76.1259 64.4126L74.7746 65.3135L73.2731 66.3646L71.7716 67.2655L70.5704 68.0162L69.219 68.6168L68.168 68.767V63.812L70.1199 62.761L72.222 61.5598L74.174 60.2084L75.6755 58.8571L77.0268 57.3556L78.3782 55.7039L79.5794 54.0523L80.6304 52.5508H84.3842V96.0943Z" fill="#666666"/>
<path d="M114.264 96.0943H108.558V62.6108L107.507 63.5117L106.006 64.4126L104.504 65.3135L103.003 66.3646L101.651 67.2655L100.3 68.0162L99.0989 68.6168L98.0479 68.767V63.812L99.9998 62.761L101.952 61.5598L103.904 60.2084L105.555 58.8571L106.907 57.3556L108.258 55.7039L109.459 54.0523L110.51 52.5508H114.264V96.0943Z" fill="#666666"/>
</g>
<defs>
<clipPath id="clip0_2109_173500">
<rect width="150" height="150" fill="white"/>
</clipPath>
</defs>
</svg>
