<svg width="150" height="150" viewBox="0 0 150 150" fill="none" xmlns="http://www.w3.org/2000/svg">
<g clip-path="url(#clip0_2109_174012)">
<path d="M9.15918 150.001L25.6757 135.887H124.174L128.979 131.383L150 140.692L140.691 150.001H9.15918Z" fill="#ADAD84"/>
<path d="M9.15916 149.997L25.6757 135.883L20.8709 131.378V11.5587L0 9.15625V140.688L9.15916 149.997Z" fill="#D7D7C2"/>
<path d="M140.691 0L124.174 7.05706H25.6757L20.8709 11.5616L0 9.15916L9.15916 0H140.691Z" fill="#EBEBE1"/>
<path d="M140.69 0L124.174 7.05706L128.979 11.5616V131.381L150 140.691V9.15916L140.69 0Z" fill="#D7D7C2"/>
<path d="M0 9.15916L9.15916 0H140.691L150 9.15916V140.691L140.691 150H9.15916L0 140.691V9.15916Z" stroke="black" stroke-width="0.3003"/>
<path d="M20.8711 11.5626L25.6759 6.75781H124.174L128.979 11.5626V131.082L124.174 135.887H25.6759L20.8711 131.082V11.5626Z" fill="#EBEBE1" stroke="#ADAD84" stroke-width="0.3003"/>
<path d="M79.7299 100.748L103.153 65.6127L121.772 9.15625L126.577 13.9611V128.976L121.772 133.481H28.0782L23.2734 128.976L79.7299 100.748Z" fill="#E1E1D1"/>
<path d="M46.6969 18.7659L37.3876 28.0752L28.0782 60.8079L23.2734 56.3034V13.9611L28.0782 9.15625H70.1203L74.9251 13.9611L46.6969 18.7659Z" fill="#E1E1D1"/>
<path d="M20.8711 131.082V11.5626L25.6759 6.75781H124.174" stroke="white" stroke-width="0.3003"/>
<path d="M82.282 64.7137H87.8376L87.9877 66.2152L88.5883 67.7167L89.0388 68.4675L90.6904 69.0681L92.1919 69.5185L93.8436 69.6687H95.4952L97.1469 69.5185L98.4982 69.0681L100.3 68.4675L101.501 67.2663L102.552 65.7648L102.853 64.1131L103.003 62.4615L103.303 60.6597V59.008V58.5576L101.952 59.7588L100.3 60.8098L98.6484 61.5606L96.9967 62.011L95.1949 62.3113L93.243 62.1612L91.8916 61.8609L90.5403 61.5606L89.3391 60.96L88.1379 60.3594L86.6364 59.1582L85.285 57.957L84.3841 56.6056L83.7835 55.4044L83.0328 53.9029L82.5823 52.5516L82.1319 51.0501L81.8316 49.5486L81.6814 48.0471L81.5312 47.2963V46.6957L81.6814 45.1942L81.8316 43.6927L82.1319 42.1912L82.4322 40.5396L82.7325 39.0381L83.3331 37.6867L84.0838 36.3354L84.9847 34.984L85.8856 33.7828L86.9367 32.5816L88.288 31.6807L89.6394 31.0801L90.8406 30.4795L92.1919 30.1792L93.0928 30.0291L93.5433 29.8789H93.9937L96.0958 30.0291L97.8976 30.6297L99.6994 31.3804L101.351 32.4315L102.853 33.7828L103.303 34.2333V30.4795H109.009V57.957V59.7588L108.859 61.4104L108.708 62.9119L108.558 64.2633L108.258 66.2152L107.958 67.5666L107.207 69.0681L106.156 70.4194L104.805 71.6206L103.453 72.5215L101.802 73.1222L100.3 73.7228L98.6484 74.1732L97.1469 74.4735L95.6454 74.6236H95.0448H94.5943L92.6424 74.4735L91.291 74.3233L89.3391 73.8729L87.5373 73.2723L86.1859 72.6717L84.8346 71.9209L83.7835 70.8699L83.0328 69.5185L82.5823 67.8669L82.282 66.0651V64.1131V64.7137Z" fill="#666666"/>
<path d="M87.2373 46.0972V48.1993L87.3875 50.1513L87.8379 51.9531L88.2884 53.3044L89.0391 54.8059L90.2403 55.7068L91.5917 56.4576L93.2433 57.0582L93.8439 57.2083H94.5947H95.0451L96.5466 57.0582L97.898 56.6077L99.0992 56.0071L100.3 55.2564L101.351 54.2053L101.952 52.854L102.553 51.3525L103.003 49.5507L103.303 47.4486V46.6978V46.0972V44.2954L102.853 42.6437L102.402 40.9921L101.802 39.4906L101.051 38.2894L100 36.938L98.6487 35.887L97.2974 35.2864L96.0962 34.9861H95.6457L95.0451 34.8359H94.5947L93.2433 35.1362L92.0421 35.5867L90.8409 36.4876L89.6397 37.3885L89.0391 38.4395L88.2884 39.941L87.8379 41.5927L87.3875 43.3945L87.2373 44.7458V45.3464V46.0972Z" fill="#EBEBE1"/>
<path d="M47.4473 62.3109V18.6172H63.0629H63.5133L64.8647 18.7673L66.3662 18.9175L67.7175 19.0676L69.219 19.3679L71.171 19.5181L72.5223 19.9685L73.7235 20.5691L75.225 21.7703L76.1259 22.8214L77.0268 24.0226L77.6274 25.0736L78.6785 26.7253L79.2791 28.0766L79.5794 29.5781L79.7295 30.3289V31.0796V31.8304L79.5794 33.7824L78.9788 35.5842L78.3782 37.386L77.3271 38.8875L76.1259 40.389L75.0749 41.2899L73.8737 42.0406L72.5223 42.7914L71.0208 43.2418L69.3692 43.6923L67.5674 43.9926L65.6154 44.1427H63.6635H53.0028V62.3109H47.4473Z" fill="#666666"/>
<path d="M53.0029 39.192H63.6636H65.6155L67.4173 38.8917L69.069 38.5914L70.4203 38.141L71.7717 37.3902L72.5224 36.3392L73.4233 34.9878L74.024 33.4863L74.1741 31.6845L74.024 29.7326L73.4233 27.7806L72.5224 26.2791L71.0209 25.0779L69.6696 24.3272L68.1681 24.177L66.066 23.8767L64.4143 23.7266H63.6636H53.0029V39.192Z" fill="#EBEBE1"/>
<path d="M84.9854 130.932V86.7881H90.6911V91.7431L91.592 90.2416L92.3427 89.1905L93.6941 87.9893L94.8953 87.2386L96.3968 86.638L97.8983 86.3377L98.649 86.1875H99.0995H99.3998L101.202 86.3377L102.553 86.4878L103.904 86.9383L105.105 87.3887L106.607 88.2896L107.508 89.1905L108.559 90.2416L109.46 91.4428L110.06 92.7941L110.511 94.1455L111.262 95.647L111.712 97.2986L112.163 98.9503L112.313 100.602L112.463 101.803V102.404V102.854L112.313 104.356L112.163 105.857L111.862 107.509L111.412 109.01L110.811 110.512L110.06 111.863L109.16 113.365L108.259 114.566L107.358 115.767L106.307 116.668L105.105 117.419L103.754 118.019L102.403 118.62L101.051 118.92L99.5499 119.07H97.4478L96.0965 118.77L94.2947 118.019L92.7932 117.269L91.592 116.067L90.6911 114.716V130.332L84.9854 130.932Z" fill="#666666"/>
<path d="M90.6904 102.852V104.954L90.8406 106.906L91.291 108.708L91.7415 110.21L92.4922 111.561L93.6934 112.462L95.0448 113.363L96.6964 113.963L97.297 114.114H98.0478H98.4982L99.9997 113.963L101.351 113.513L102.552 112.912L103.904 112.011L104.805 110.81L105.405 109.459L106.006 107.957L106.456 106.156L106.756 104.354V103.603V102.852V100.9L106.306 99.0986L105.856 97.2968L105.255 95.7953L104.504 94.5941L103.153 92.9424L101.802 92.0415L100.3 91.2908L99.5493 91.1406H98.7985H98.4982L96.8466 91.4409L95.3451 92.1917L93.9937 93.2427L92.9427 94.5941L92.1919 95.7953L91.5913 97.2968L91.1409 99.0986L90.8406 100.9L90.6904 101.501V102.252V102.852Z" fill="#E1E1D1"/>
<path d="M72.6728 74.9258H78.2284V100.451V101.202L78.0782 103.304L77.9281 105.256L77.6278 107.208L77.3275 108.86L77.0272 110.361L76.2764 111.713L75.3755 113.064L74.3245 114.415L73.1233 115.466L71.9221 116.367L70.4206 117.118L68.6188 117.719L67.2674 118.169L65.9161 118.469L64.4146 118.77L62.9131 118.92L62.3125 119.07H61.5617H60.811H58.7089L56.6068 118.92L54.805 118.619L53.0031 118.019L51.3515 117.418L50.0001 116.668L48.7989 115.917L47.7479 114.866L46.847 113.815L46.2464 112.463L45.6458 111.112L45.0452 109.46L44.5947 107.358L44.4446 106.007L44.1443 104.505V102.854L43.9941 102.103V101.202V100.451V74.9258H49.6998V99.8507V101.803L49.85 103.755L50.0001 105.256L50.1503 107.058L50.3004 107.959L50.901 109.31L51.9521 110.511L53.0031 111.562L54.2044 112.313L55.856 112.914L57.5077 113.214L59.3095 113.364L60.9611 113.514L62.6128 113.364L64.1143 113.214L65.4656 112.914L67.1173 112.313L68.6188 111.713L69.82 110.662L70.7209 109.16L71.3215 107.959L71.7719 106.607L72.2224 105.106L72.5227 103.454V101.653L72.6728 99.8507V74.9258Z" fill="#666666"/>
</g>
<defs>
<clipPath id="clip0_2109_174012">
<rect width="150" height="150" fill="white"/>
</clipPath>
</defs>
</svg>
