<svg width="150" height="150" viewBox="0 0 150 150" fill="none" xmlns="http://www.w3.org/2000/svg">
<g clip-path="url(#clip0_2109_173367)">
<path d="M9.30957 149.999L25.6759 135.885H124.174L128.829 131.23L150 140.54L140.541 149.999H9.30957Z" fill="#ADAD84"/>
<path d="M9.30931 149.999L25.6757 135.885L21.021 131.231V11.5608L0 9.30859V140.54L9.30931 149.999Z" fill="#D7D7C2"/>
<path d="M140.541 0L124.174 6.90691H25.6757L21.021 11.5616L0 9.30931L9.30931 0H140.541Z" fill="#EBEBE1"/>
<path d="M140.54 0L124.174 6.90691L128.828 11.5616V131.231L150 140.541V9.30931L140.54 0Z" fill="#D7D7C2"/>
<path d="M0 9.30931L9.30931 0H140.541L150 9.30931V140.541L140.541 150H9.30931L0 140.541V9.30931Z" stroke="black" stroke-width="0.3003"/>
<path d="M21.0215 11.5609L25.6761 6.90625H124.175L128.829 11.5609V131.08L124.175 135.885H25.6761L21.0215 131.08V11.5609Z" fill="#EBEBE1" stroke="#ADAD84" stroke-width="0.3003"/>
<path d="M79.5797 100.75L103.003 65.6149L121.772 9.30859L126.427 13.9632V128.828L121.772 133.483H28.0782L23.2734 128.828L79.5797 100.75Z" fill="#E1E1D1"/>
<path d="M46.8473 18.6179L37.3878 28.0774L28.0785 60.8101L23.4238 56.1554V13.9632L28.0785 9.30859H70.2707L74.9253 13.9632L46.8473 18.6179Z" fill="#E1E1D1"/>
<path d="M21.0215 131.08V11.5609L25.6761 6.90625H124.175" stroke="white" stroke-width="0.3003"/>
<path d="M43.9941 96.0943V52.5508H73.2734V57.6559H49.5497V71.3195H69.5197V76.1244H49.5497V96.0943H43.9941Z" fill="#666666"/>
<path d="M106.757 90.5388V96.0943H78.0781V95.6439V92.3406L78.6787 90.8391L79.4295 89.3376L80.3304 87.8361L81.2313 86.785L82.4325 85.2835L84.2343 83.4817L85.2853 82.731L86.3364 81.8301L87.5376 80.779L88.7388 79.8781L90.2403 78.5268L91.8919 77.1754L93.2433 75.9742L94.5946 74.9232L95.6457 73.8721L96.6967 72.9712L98.0481 71.3195L98.949 69.818L99.6997 68.1664L100.3 66.5147L100.45 65.0132L100.3 63.6619L99.6997 62.3105L98.949 61.1093L98.0481 60.0583L96.8469 59.1574L95.4955 58.4066L93.8439 57.806L92.4925 57.6559L90.6907 57.806L89.1892 58.1063L87.8379 58.7069L86.7868 59.4577L85.8859 60.6589L85.1352 62.1604L84.5346 63.812L84.3844 65.6138L78.6787 65.0132L78.979 62.3105L79.7298 60.0583L80.7808 57.9562L82.4325 56.3045L83.4835 55.4036L84.5346 54.6529L85.7358 54.0523L86.937 53.6018L88.2883 53.1514L89.6397 52.8511L90.991 52.7009L92.4925 52.5508L93.8439 52.7009L95.1952 52.8511L96.5466 53.1514L97.8979 53.6018L99.0991 54.0523L100.3 54.6529L101.351 55.4036L103.303 57.3556L104.655 59.3075L105.556 61.5598L106.006 63.9622L106.156 65.6138L105.706 67.5658L105.255 68.9171L104.655 70.5688L103.904 71.77L103.153 73.2715L102.252 74.4727L101.201 75.6739L99.6997 77.4757L98.6487 78.3766L97.5976 79.4277L96.3964 80.4787L95.0451 81.3796L93.6937 82.4307L92.4925 83.3316L91.4415 84.2325L89.6397 85.8841L88.2883 87.2355L87.2373 88.2865L86.1862 89.1874L85.1352 90.2385L84.985 90.5388H106.757Z" fill="#666666"/>
</g>
<defs>
<clipPath id="clip0_2109_173367">
<rect width="150" height="150" fill="white"/>
</clipPath>
</defs>
</svg>
