<svg width="150" height="150" viewBox="0 0 150 150" fill="none" xmlns="http://www.w3.org/2000/svg">
<g clip-path="url(#clip0_2109_173984)">
<path d="M9.15918 150.001L25.6757 135.887H124.174L128.979 131.383L150 140.692L140.691 150.001H9.15918Z" fill="#ADAD84"/>
<path d="M9.15916 149.997L25.6757 135.883L20.8709 131.378V11.5587L0 9.15625V140.688L9.15916 149.997Z" fill="#D7D7C2"/>
<path d="M140.691 0L124.174 7.05706H25.6757L20.8709 11.5616L0 9.15916L9.15916 0H140.691Z" fill="#EBEBE1"/>
<path d="M140.69 0L124.174 7.05706L128.979 11.5616V131.381L150 140.691V9.15916L140.69 0Z" fill="#D7D7C2"/>
<path d="M0 9.15916L9.15916 0H140.691L150 9.15916V140.691L140.691 150H9.15916L0 140.691V9.15916Z" stroke="black" stroke-width="0.3003"/>
<path d="M20.8711 11.5626L25.6759 6.75781H124.174L128.979 11.5626V131.082L124.174 135.887H25.6759L20.8711 131.082V11.5626Z" fill="#EBEBE1" stroke="#ADAD84" stroke-width="0.3003"/>
<path d="M79.7299 100.748L103.153 65.6127L121.772 9.15625L126.577 13.9611V128.976L121.772 133.481H28.0782L23.2734 128.976L79.7299 100.748Z" fill="#E1E1D1"/>
<path d="M46.6969 18.7659L37.3876 28.0752L28.0782 60.8079L23.2734 56.3034V13.9611L28.0782 9.15625H70.1203L74.9251 13.9611L46.6969 18.7659Z" fill="#E1E1D1"/>
<path d="M53.4534 92.1915L62.3123 91.1404L63.3633 95.6449L65.9159 98.9482L69.6696 101.2L73.8738 101.951L78.3783 101.2L80.03 101.05L83.9339 98.3476L85.8858 94.4437L87.6876 90.3897L88.7387 85.735L89.6396 81.3807L89.9399 77.0263V76.4257L86.4864 79.729L83.033 82.2816L79.4294 84.0834L74.9249 85.1344L69.8198 84.9843L65.015 83.7831L60.6606 81.3807L56.9068 77.7771L54.6546 74.1734L53.3032 70.1194L52.5525 65.765L52.4023 64.5638V63.5128V62.3116L53.0029 57.3566L54.3543 53.0023L56.3062 49.0984L59.1591 45.9452L62.6126 43.3927L66.5165 41.2906L70.8708 40.0894L73.1231 39.7891H74.1741H74.9249L79.7297 40.8401L83.7837 42.3416L87.6876 44.1434L90.9909 46.696L93.6936 49.9993L95.7957 53.6029L97.4474 58.4077L98.1981 63.3626L98.7987 68.9182V70.4197V71.9212V73.4227L98.6486 79.2786L98.048 84.8341L97.1471 89.9392L95.7957 94.1434L94.1441 97.747L91.5915 101.951L88.4384 105.104L84.6846 107.056L80.4804 108.708L75.8258 109.759L74.024 109.909H73.1231H72.072L66.9669 109.158L62.6126 107.807L58.7087 105.405L56.1561 101.801L54.2041 97.4467L53.4534 93.2425V92.1915Z" fill="#666666"/>
<path d="M89.9397 62.6149L89.7895 61.1134L89.6394 59.6119L89.1889 58.2605L88.7385 56.759L88.1379 55.5578L87.0868 53.9062L86.0358 52.705L85.1349 51.6539L84.0838 50.6029L82.7325 49.8521L81.231 49.1014L79.7295 48.5008L78.2279 48.0503L76.7264 47.75H75.8255H75.2249H74.4742L72.9727 47.9002L71.4712 48.2005L70.1198 48.6509L68.7685 49.2515L67.5673 49.8521L66.0658 50.9032L64.8646 52.2545L64.1138 53.4557L63.5132 54.9572L62.9126 56.4587L62.312 57.9602L61.8616 59.6119L61.5613 61.2635L61.4111 62.765V63.5158V64.2665V65.768L61.5613 67.1194L61.8616 68.6209L62.4622 70.4227L63.2129 72.0743L64.264 73.4257L65.6153 74.4767L66.8165 75.2275L68.1679 75.8281L69.6694 76.4287L71.321 76.8791L72.8225 77.1794L74.324 77.3296H75.2249H75.8255L77.327 77.1794L78.8286 77.0293L80.1799 76.729L81.3811 76.4287L83.1829 75.6779L84.5343 74.777L86.0358 73.4257L87.0868 72.3746L87.8376 71.0233L88.5883 69.6719L89.1889 68.1704L89.6394 66.6689L89.7895 65.0173L89.9397 64.2665V63.5158V62.6149Z" fill="#EBEBE1"/>
<path d="M20.8711 131.082V11.5626L25.6759 6.75781H124.174" stroke="white" stroke-width="0.3003"/>
</g>
<defs>
<clipPath id="clip0_2109_173984">
<rect width="150" height="150" fill="white"/>
</clipPath>
</defs>
</svg>
