<svg width="150" height="150" viewBox="0 0 150 150" fill="none" xmlns="http://www.w3.org/2000/svg">
<g clip-path="url(#clip0_2109_173638)">
<path d="M9.30957 149.999L25.6759 135.885H124.174L128.829 131.23L150 140.54L140.541 149.999H9.30957Z" fill="#ADAD84"/>
<path d="M9.30931 149.999L25.6757 135.885L21.021 131.231V11.5608L0 9.30859V140.54L9.30931 149.999Z" fill="#D7D7C2"/>
<path d="M140.541 0L124.174 6.90691H25.6757L21.021 11.5616L0 9.30931L9.30931 0H140.541Z" fill="#EBEBE1"/>
<path d="M140.54 0L124.174 6.90691L128.828 11.5616V131.231L150 140.541V9.30931L140.54 0Z" fill="#D7D7C2"/>
<path d="M0 9.30931L9.30931 0H140.541L150 9.30931V140.541L140.541 150H9.30931L0 140.541V9.30931Z" stroke="black" stroke-width="0.3003"/>
<path d="M21.0215 11.5609L25.6761 6.90625H124.175L128.829 11.5609V131.08L124.175 135.885H25.6761L21.0215 131.08V11.5609Z" fill="#EBEBE1" stroke="#ADAD84" stroke-width="0.3003"/>
<path d="M79.5797 100.75L103.003 65.6149L121.772 9.30859L126.427 13.9632V128.828L121.772 133.483H28.0782L23.2734 128.828L79.5797 100.75Z" fill="#E1E1D1"/>
<path d="M46.8473 18.6179L37.3878 28.0774L28.0785 60.8101L23.4238 56.1554V13.9632L28.0785 9.30859H70.2707L74.9253 13.9632L46.8473 18.6179Z" fill="#E1E1D1"/>
<path d="M21.0215 131.08V11.5609L25.6761 6.90625H124.175" stroke="white" stroke-width="0.3003"/>
<path d="M71.1709 108.858V39.7891H80.0298V108.858H71.1709Z" fill="#666666"/>
</g>
<defs>
<clipPath id="clip0_2109_173638">
<rect width="150" height="150" fill="white"/>
</clipPath>
</defs>
</svg>
