<svg width="150" height="150" viewBox="0 0 150 150" fill="none" xmlns="http://www.w3.org/2000/svg">
<g clip-path="url(#clip0_2109_173902)">
<path d="M9.30957 149.999L25.6759 135.885H124.174L128.829 131.23L150 140.54L140.541 149.999H9.30957Z" fill="#ADAD84"/>
<path d="M9.30931 149.999L25.6757 135.885L21.021 131.231V11.5608L0 9.30859V140.54L9.30931 149.999Z" fill="#D7D7C2"/>
<path d="M140.541 0L124.174 6.90691H25.6757L21.021 11.5616L0 9.30931L9.30931 0H140.541Z" fill="#EBEBE1"/>
<path d="M140.54 0L124.174 6.90691L128.828 11.5616V131.231L150 140.541V9.30931L140.54 0Z" fill="#D7D7C2"/>
<path d="M0 9.30931L9.30931 0H140.541L150 9.30931V140.541L140.541 150H9.30931L0 140.541V9.30931Z" stroke="black" stroke-width="0.3003"/>
<path d="M21.0215 11.5609L25.6761 6.90625H124.175L128.829 11.5609V131.08L124.175 135.885H25.6761L21.0215 131.08V11.5609Z" fill="#EBEBE1" stroke="#ADAD84" stroke-width="0.3003"/>
<path d="M79.5797 100.75L103.003 65.6149L121.772 9.30859L126.427 13.9632V128.828L121.772 133.483H28.0782L23.2734 128.828L79.5797 100.75Z" fill="#E1E1D1"/>
<path d="M46.8473 18.6179L37.3878 28.0774L28.0785 60.8101L23.4238 56.1554V13.9632L28.0785 9.30859H70.2707L74.9253 13.9632L46.8473 18.6179Z" fill="#E1E1D1"/>
<path d="M21.0215 131.08V11.5609L25.6761 6.90625H124.175" stroke="white" stroke-width="0.3003"/>
<path d="M52.4023 90.0894L61.4114 89.1885L62.1621 93.5428L63.8138 97.1464L67.1171 100.3L72.2222 101.801L78.078 101.651L81.9819 100.149L86.036 97.2966L88.5885 93.9933L89.9399 89.1885L88.7387 83.9332L86.036 80.3296L81.2312 77.4767L76.5765 76.4257L71.7717 76.2756H69.2192L70.2702 68.4677L72.2222 69.5188L76.8768 68.768L81.081 66.5158L84.6846 62.9122L86.036 58.5578L85.2852 54.3536L83.033 50.75L78.9789 48.4978L74.1741 47.747L69.8198 48.4978L66.2162 50.75L63.5135 54.3536L62.3123 58.5578L53.4534 57.6569L54.2041 53.0023L56.1561 48.7981L58.8588 45.3446L62.4624 42.7921L66.9669 40.8401L72.072 39.9392L73.1231 39.7891H74.1741L78.3783 40.2395L83.1831 41.4407L87.2372 44.2936L91.1411 47.8972L93.6936 52.4017L94.7447 56.756L94.2942 61.8611L92.042 66.3656L88.2882 69.6689L84.9849 71.4707L89.3393 73.2725L93.093 75.6749L96.2462 79.8792L98.048 84.3837L98.7987 87.687V89.1885V90.2395L98.048 94.4437L96.3963 98.1975L93.9939 101.651L90.2402 105.405L86.3363 107.657L81.6816 109.158L76.7267 109.909H75.3753H74.1741L69.9699 109.609L65.1651 108.258L60.8108 106.005L57.2071 102.702L54.9549 99.2485L53.3032 95.3446L52.5525 92.3416L52.4023 91.2906V90.0894Z" fill="#666666"/>
</g>
<defs>
<clipPath id="clip0_2109_173902">
<rect width="150" height="150" fill="white"/>
</clipPath>
</defs>
</svg>
