<svg width="150" height="150" viewBox="0 0 150 150" fill="none" xmlns="http://www.w3.org/2000/svg">
<g clip-path="url(#clip0_2109_173559)">
<path d="M9.30957 149.999L25.6759 135.885H124.174L128.829 131.23L150 140.54L140.541 149.999H9.30957Z" fill="#ADAD84"/>
<path d="M9.30931 149.999L25.6757 135.885L21.021 131.231V11.5608L0 9.30859V140.54L9.30931 149.999Z" fill="#D7D7C2"/>
<path d="M140.541 0L124.174 6.90691H25.6757L21.021 11.5616L0 9.30931L9.30931 0H140.541Z" fill="#EBEBE1"/>
<path d="M140.54 0L124.174 6.90691L128.828 11.5616V131.231L150 140.541V9.30931L140.54 0Z" fill="#D7D7C2"/>
<path d="M0 9.30931L9.30931 0H140.541L150 9.30931V140.541L140.541 150H9.30931L0 140.541V9.30931Z" stroke="black" stroke-width="0.3003"/>
<path d="M21.0215 11.5609L25.6761 6.90625H124.175L128.829 11.5609V131.08L124.175 135.885H25.6761L21.0215 131.08V11.5609Z" fill="#EBEBE1" stroke="#ADAD84" stroke-width="0.3003"/>
<path d="M79.5797 100.75L103.003 65.6149L121.772 9.30859L126.427 13.9632V128.828L121.772 133.483H28.0782L23.2734 128.828L79.5797 100.75Z" fill="#E1E1D1"/>
<path d="M46.8473 18.6179L37.3878 28.0774L28.0785 60.8101L23.4238 56.1554V13.9632L28.0785 9.30859H70.2707L74.9253 13.9632L46.8473 18.6179Z" fill="#E1E1D1"/>
<path d="M21.0215 131.08V11.5609L25.6761 6.90625H124.175" stroke="white" stroke-width="0.3003"/>
<path d="M96.8465 84.236L105.705 87.239L104.354 91.4432L102.702 95.1969L100.15 99.4011L97.2969 102.704L93.8435 105.407L89.4891 107.659L84.6843 109.161L79.5792 109.912H78.378H77.0266L72.0717 109.611L67.1167 108.71L62.7624 107.359L58.5582 105.407L55.1047 101.954L52.402 98.6504L50.2999 95.0468L48.7984 90.8426L47.2969 86.1879L46.2459 81.3831L45.6453 76.5783L45.4951 75.5273V74.4762L45.7954 69.221L46.6963 64.266L48.0477 59.7615L49.5492 55.7074L51.5011 51.9537L54.2038 48.6504L57.2068 45.7975L61.2609 43.245L65.1648 41.293L69.369 39.9417L73.8735 39.0408L74.9245 38.8906H75.9756H77.0266L81.6813 39.1909L86.1858 40.242L90.39 41.7435L93.8435 43.8456L96.8465 47.1489L99.5492 50.9026L101.952 55.1068L103.753 59.6113L94.8945 61.5633L92.342 56.4582L89.6393 52.5543L85.4351 49.251L80.7804 47.4492L76.1257 46.6984L71.6212 47.299L67.417 48.6504L63.363 50.7525L60.0597 53.6053L57.5071 57.6594L56.0056 62.1639L55.2549 66.5183L54.5041 71.1729L54.354 75.5273L54.8044 80.6324L55.5552 85.1369L57.2068 90.6924L60.0597 94.8966L63.2128 98.1999L67.2669 100.302L71.7714 101.653L76.1257 101.954L80.6303 101.503L84.8345 100.152L88.8885 98.0498L92.342 95.3471L94.8945 91.293L96.396 87.3891L96.8465 84.236Z" fill="#666666"/>
</g>
<defs>
<clipPath id="clip0_2109_173559">
<rect width="150" height="150" fill="white"/>
</clipPath>
</defs>
</svg>
