<svg width="150" height="150" viewBox="0 0 150 150" fill="none" xmlns="http://www.w3.org/2000/svg">
<g clip-path="url(#clip0_2109_173424)">
<path d="M9.15918 150.001L25.6757 135.887H124.174L128.979 131.383L150 140.692L140.691 150.001H9.15918Z" fill="#ADAD84"/>
<path d="M9.15916 149.997L25.6757 135.883L20.8709 131.378V11.5587L0 9.15625V140.688L9.15916 149.997Z" fill="#D7D7C2"/>
<path d="M140.691 0L124.174 7.05706H25.6757L20.8709 11.5616L0 9.15916L9.15916 0H140.691Z" fill="#EBEBE1"/>
<path d="M140.69 0L124.174 7.05706L128.979 11.5616V131.381L150 140.691V9.15916L140.69 0Z" fill="#D7D7C2"/>
<path d="M0 9.15916L9.15916 0H140.691L150 9.15916V140.691L140.691 150H9.15916L0 140.691V9.15916Z" stroke="black" stroke-width="0.3003"/>
<path d="M20.8711 11.5626L25.6759 6.75781H124.174L128.979 11.5626V131.082L124.174 135.887H25.6759L20.8711 131.082V11.5626Z" fill="#EBEBE1" stroke="#ADAD84" stroke-width="0.3003"/>
<path d="M79.7299 100.748L103.153 65.6127L121.772 9.15625L126.577 13.9611V128.976L121.772 133.481H28.0782L23.2734 128.976L79.7299 100.748Z" fill="#E1E1D1"/>
<path d="M46.6969 18.7659L37.3876 28.0752L28.0782 60.8079L23.2734 56.3034V13.9611L28.0782 9.15625H70.1203L74.9251 13.9611L46.6969 18.7659Z" fill="#E1E1D1"/>
<path d="M20.8711 131.082V11.5626L25.6759 6.75781H124.174" stroke="white" stroke-width="0.3003"/>
<path d="M107.358 63.8142L101.652 64.4148L101.051 63.0635L100.451 61.7121L99.5498 60.3608L98.1985 59.1596L96.9973 58.2587L95.4958 57.8082L93.8441 57.5079L91.8922 57.8082L90.5408 58.2587L89.1895 59.1596L87.688 60.5109L86.6369 61.7121L85.5859 63.0635L84.8351 64.4148L84.5348 66.2166L84.3847 67.8683L84.0844 69.8202V71.3217L83.9342 72.8232V74.3247L84.8351 72.9734L85.8862 71.7722L87.0874 70.7211L88.4387 69.8202L89.4898 69.2196L91.1414 68.4689L92.6429 68.1686L94.1444 68.0184L96.2465 68.1686L98.1985 68.619L100 69.3698L101.051 69.9704L102.253 70.7211L103.754 71.9223L105.105 73.4238L105.706 74.625L106.457 75.9764L107.057 77.4779L107.358 78.8293L107.658 80.3308L107.808 81.6821L107.958 82.4329V82.8833L107.658 84.6851L107.508 86.0365L107.057 87.538L106.607 88.8893L105.706 90.8413L104.505 92.3428L103.153 93.544L101.802 94.4449L100.601 95.0455L99.2495 95.6461L97.8982 96.2467L96.5468 96.547L94.745 96.8473H94.2946H93.8441L92.1925 96.6971L90.5408 96.3968L88.8892 96.0965L87.3877 95.4959L85.8862 94.7452L84.685 93.9944L83.4838 93.2437L81.9823 91.7422L81.0814 90.3908L80.4808 88.7392L79.73 86.9374L79.1294 84.8353L78.679 82.583L78.3787 80.1806L78.2285 77.4779V76.1265V74.625V73.1235L78.3787 71.7722L78.5288 70.2707L78.9793 67.568L79.4297 65.1656L80.0303 62.9133L80.7811 60.8112L81.5318 59.0094L82.4327 57.5079L83.4838 56.4569L84.685 55.556L85.8862 54.6551L87.3877 54.0545L89.0393 53.4539L90.691 53.0034L92.3426 52.8533L93.2435 52.7031H94.1444H94.745L96.5468 53.0034L98.1985 53.3037L99.8501 53.9043L101.201 54.8052L102.553 55.7061L103.754 56.9073L104.955 58.1085L105.856 59.7602L106.607 61.4118L107.207 63.2136L107.358 63.8142Z" fill="#666666"/>
<path d="M43.9941 96.2467V52.7031H73.1233V57.5079H49.3995V71.3217H69.5197V76.1265H49.3995V96.2467H43.9941Z" fill="#666666"/>
<path d="M83.9336 81.8337L84.0837 83.3352L84.2339 84.8367L84.5342 86.1881L85.1348 87.8397L85.8855 88.8908L87.2369 90.2421L88.5882 90.6926L90.3901 91.2932L91.7414 91.5935L92.4922 91.7436H93.2429H93.6934L95.4952 91.4433L96.6964 90.9929L98.1979 90.2421L99.2489 89.3412L100.45 88.14L101.351 86.7887L101.952 85.2872L102.402 83.9358V83.3352L102.552 82.8848V82.4343L102.402 81.083L101.952 79.5815L101.351 78.2301L100.75 76.8788L99.8495 75.5274L98.6483 74.6265L97.4471 74.0259L96.0958 73.5755L94.5943 73.2752L94.1438 73.125H93.6934H93.2429L91.7414 73.2752L90.0897 73.5755L88.7384 74.0259L87.5372 74.6265L86.336 75.5274L85.2849 76.8788L84.6843 78.2301L84.2339 79.5815L84.0837 81.083L83.9336 81.5334V81.9839V82.4343V81.8337Z" fill="#EBEBE1"/>
</g>
<defs>
<clipPath id="clip0_2109_173424">
<rect width="150" height="150" fill="white"/>
</clipPath>
</defs>
</svg>
