<svg width="150" height="150" viewBox="0 0 150 150" fill="none" xmlns="http://www.w3.org/2000/svg">
<g clip-path="url(#clip0_2109_173530)">
<path d="M9.15918 150.001L25.6757 135.887H124.174L128.979 131.383L150 140.692L140.691 150.001H9.15918Z" fill="#ADAD84"/>
<path d="M9.15916 149.997L25.6757 135.883L20.8709 131.378V11.5587L0 9.15625V140.688L9.15916 149.997Z" fill="#D7D7C2"/>
<path d="M140.691 0L124.174 7.05706H25.6757L20.8709 11.5616L0 9.15916L9.15916 0H140.691Z" fill="#EBEBE1"/>
<path d="M140.69 0L124.174 7.05706L128.979 11.5616V131.381L150 140.691V9.15916L140.69 0Z" fill="#D7D7C2"/>
<path d="M0 9.15916L9.15916 0H140.691L150 9.15916V140.691L140.691 150H9.15916L0 140.691V9.15916Z" stroke="black" stroke-width="0.3003"/>
<path d="M20.8711 11.5626L25.6759 6.75781H124.174L128.979 11.5626V131.082L124.174 135.887H25.6759L20.8711 131.082V11.5626Z" fill="#EBEBE1" stroke="#ADAD84" stroke-width="0.3003"/>
<path d="M79.7299 100.748L103.153 65.6127L121.772 9.15625L126.577 13.9611V128.976L121.772 133.481H28.0782L23.2734 128.976L79.7299 100.748Z" fill="#E1E1D1"/>
<path d="M46.6969 18.7659L37.3876 28.0752L28.0782 60.8079L23.2734 56.3034V13.9611L28.0782 9.15625H70.1203L74.9251 13.9611L46.6969 18.7659Z" fill="#E1E1D1"/>
<path d="M20.8711 131.082V11.5626L25.6759 6.75781H124.174" stroke="white" stroke-width="0.3003"/>
<path d="M41.5918 108.858L71.1714 39.7891H78.9792L107.658 108.858H98.799L89.9401 87.2365H60.3606L52.4026 108.858H41.5918Z" fill="#666666"/>
<path d="M63.3633 79.2815H86.9369L80.0299 61.5638L79.2792 59.4617L78.6786 57.3596L77.9278 55.4077L77.1771 53.6059L76.5765 51.8041L75.9759 50.3026L75.5254 48.9512L75.075 47.75L74.7747 49.2515L74.1741 50.9032L73.5735 52.4047L72.9729 54.2065L72.3723 55.8581L71.6215 57.3596L70.8708 59.0113L70.12 60.5128L63.3633 79.2815Z" fill="#EBEBE1"/>
</g>
<defs>
<clipPath id="clip0_2109_173530">
<rect width="150" height="150" fill="white"/>
</clipPath>
</defs>
</svg>
