<svg width="150" height="150" viewBox="0 0 150 150" fill="none" xmlns="http://www.w3.org/2000/svg">
<g clip-path="url(#clip0_2109_173395)">
<path d="M9.30957 150.001L25.6759 135.737H124.174L128.979 131.383L150 140.542L140.541 150.001H9.30957Z" fill="#ADAD84"/>
<path d="M9.30931 149.999L25.6757 135.735L20.8709 131.381V11.711L0 9.30859V140.54L9.30931 149.999Z" fill="#D7D7C2"/>
<path d="M140.541 0L124.174 7.05706H25.6757L20.8709 11.7117L0 9.30931L9.30931 0H140.541Z" fill="#EBEBE1"/>
<path d="M140.54 0L124.174 7.05706L128.979 11.7117V131.381L150 140.541V9.30931L140.54 0Z" fill="#D7D7C2"/>
<path d="M0 9.30931L9.30931 0H140.541L150 9.30931V140.541L140.541 150H9.30931L0 140.541V9.30931Z" stroke="black" stroke-width="0.3003"/>
<path d="M20.8711 11.7111L25.6759 6.90625H124.174L128.979 11.7111V131.08L124.174 135.735H25.6759L20.8711 131.08V11.7111Z" fill="#EBEBE1" stroke="#ADAD84" stroke-width="0.3003"/>
<path d="M79.7299 100.75L103.153 65.6149L121.772 9.30859L126.577 14.1134V128.978L121.772 133.483H28.0782L23.2734 128.978L79.7299 100.75Z" fill="#E1E1D1"/>
<path d="M46.6969 18.7681L37.3876 28.0774L28.0782 60.8101L23.2734 56.3056V14.1134L28.0782 9.30859H70.1203L74.9251 14.1134L46.6969 18.7681Z" fill="#E1E1D1"/>
<path d="M20.8711 131.08V11.7111L25.6759 6.90625H124.174" stroke="white" stroke-width="0.3003"/>
<path d="M96.8469 96.0975V85.587H76.877V80.0314L98.0481 53.3047H102.402V80.0314H107.958V85.587H102.402V96.0975H96.8469Z" fill="#666666"/>
<path d="M43.9941 96.0943V52.5508H73.1233V57.6559H49.5497V71.3195H69.5197V76.1244H49.5497V96.0943H43.9941Z" fill="#666666"/>
<path d="M96.8472 80.0287V63.8125L83.7842 80.0287H96.8472Z" fill="#EBEBE1"/>
</g>
<defs>
<clipPath id="clip0_2109_173395">
<rect width="150" height="150" fill="white"/>
</clipPath>
</defs>
</svg>
