<svg width="150" height="150" viewBox="0 0 150 150" fill="none" xmlns="http://www.w3.org/2000/svg">
<g clip-path="url(#clip0_2109_173772)">
<path d="M9.30957 149.999L25.6759 135.885H124.174L128.829 131.23L150 140.54L140.541 149.999H9.30957Z" fill="#ADAD84"/>
<path d="M9.30931 149.999L25.6757 135.885L21.021 131.231V11.5608L0 9.30859V140.54L9.30931 149.999Z" fill="#D7D7C2"/>
<path d="M140.541 0L124.174 6.90691H25.6757L21.021 11.5616L0 9.30931L9.30931 0H140.541Z" fill="#EBEBE1"/>
<path d="M140.54 0L124.174 6.90691L128.828 11.5616V131.231L150 140.541V9.30931L140.54 0Z" fill="#D7D7C2"/>
<path d="M0 9.30931L9.30931 0H140.541L150 9.30931V140.541L140.541 150H9.30931L0 140.541V9.30931Z" stroke="black" stroke-width="0.3003"/>
<path d="M21.0215 11.5609L25.6761 6.90625H124.175L128.829 11.5609V131.08L124.175 135.885H25.6761L21.0215 131.08V11.5609Z" fill="#EBEBE1" stroke="#ADAD84" stroke-width="0.3003"/>
<path d="M79.5797 100.75L103.003 65.6149L121.772 9.30859L126.427 13.9632V128.828L121.772 133.483H28.0782L23.2734 128.828L79.5797 100.75Z" fill="#E1E1D1"/>
<path d="M46.8473 18.6179L37.3878 28.0774L28.0785 60.8101L23.4238 56.1554V13.9632L28.0785 9.30859H70.2707L74.9253 13.9632L46.8473 18.6179Z" fill="#E1E1D1"/>
<path d="M21.0215 131.08V11.5609L25.6761 6.90625H124.175" stroke="white" stroke-width="0.3003"/>
<path d="M48.498 85.1369H57.3569L57.9575 90.3921L59.3089 94.1459L62.7623 97.4492L66.2158 100.002L71.3209 101.353L75.5251 101.954L80.6302 101.653L85.1347 101.053H86.0356L90.0896 98.1999L92.6422 94.5963L93.8434 90.0918L92.6422 86.1879L89.3389 82.4342L85.1347 81.233L80.0296 79.7315L74.1737 78.23L69.8194 76.8786L65.7653 75.5273L61.8614 74.1759L58.1077 71.9237L54.5041 69.0708L52.402 64.5663L51.501 59.7615L51.8014 54.2059L53.0026 49.5513L56.1557 45.4972L59.6092 42.9447L63.8134 41.1429L67.8674 39.7915L72.0716 39.0408L73.7233 38.8906H74.474H75.0746L79.8794 39.1909L83.9335 40.242L87.9875 41.7435L92.0416 44.296L95.1947 47.1489L98.3479 51.2029L99.9995 55.257L100.75 59.6113H91.8914L90.8404 55.5573L87.6872 51.5032L83.6332 48.6504L78.8284 47.1489L73.423 46.8486L68.6182 47.4492L64.2638 49.7014L61.5611 53.6053L60.3599 57.6594L61.2608 61.7134L64.414 65.0168L68.3179 66.6684L72.5221 67.8696L77.3269 68.9207L82.1317 70.272L86.3359 71.6234L90.5401 73.275L94.8944 75.227L98.9485 78.5303L101.651 83.0348L102.552 87.239L102.702 88.5903V90.0918V91.293L101.651 96.3981L99.8494 100.002L96.8464 103.305L92.7923 105.858L88.438 107.659L84.3839 109.011L80.1797 109.761L78.5281 109.912H77.7773H77.0266L71.9215 109.611L67.1167 109.011L63.0626 108.11L59.459 106.308L55.405 103.005L52.402 99.1008L50.6001 95.0468L49.2488 90.6924L48.498 87.0888V86.0378V85.1369Z" fill="#666666"/>
</g>
<defs>
<clipPath id="clip0_2109_173772">
<rect width="150" height="150" fill="white"/>
</clipPath>
</defs>
</svg>
