<svg width="150" height="150" viewBox="0 0 150 150" fill="none" xmlns="http://www.w3.org/2000/svg">
<g clip-path="url(#clip0_2109_173544)">
<path d="M9.15918 150.001L25.6757 135.887H124.174L128.979 131.383L150 140.692L140.691 150.001H9.15918Z" fill="#ADAD84"/>
<path d="M9.15916 149.997L25.6757 135.883L20.8709 131.378V11.5587L0 9.15625V140.688L9.15916 149.997Z" fill="#D7D7C2"/>
<path d="M140.691 0L124.174 7.05706H25.6757L20.8709 11.5616L0 9.15916L9.15916 0H140.691Z" fill="#EBEBE1"/>
<path d="M140.69 0L124.174 7.05706L128.979 11.5616V131.381L150 140.691V9.15916L140.69 0Z" fill="#D7D7C2"/>
<path d="M0 9.15916L9.15916 0H140.691L150 9.15916V140.691L140.691 150H9.15916L0 140.691V9.15916Z" stroke="black" stroke-width="0.3003"/>
<path d="M20.8711 11.5626L25.6759 6.75781H124.174L128.979 11.5626V131.082L124.174 135.887H25.6759L20.8711 131.082V11.5626Z" fill="#EBEBE1" stroke="#ADAD84" stroke-width="0.3003"/>
<path d="M79.7299 100.748L103.153 65.6127L121.772 9.15625L126.577 13.9611V128.976L121.772 133.481H28.0782L23.2734 128.976L79.7299 100.748Z" fill="#E1E1D1"/>
<path d="M46.6969 18.7659L37.3876 28.0752L28.0782 60.8079L23.2734 56.3034V13.9611L28.0782 9.15625H70.1203L74.9251 13.9611L46.6969 18.7659Z" fill="#E1E1D1"/>
<path d="M20.8711 131.082V11.5626L25.6759 6.75781H124.174" stroke="white" stroke-width="0.3003"/>
<path d="M51.502 108.858V39.7891H77.1776H77.9284L82.583 40.2395L87.0875 41.2906L91.1416 43.3927L94.2947 46.2455L97.1476 49.2485L98.9494 53.0023L99.8503 57.5068L99.3999 62.0113L98.0485 66.0653L94.7452 69.3686L90.9914 71.9212L89.9404 72.3716L93.9944 74.1734L97.598 77.1764L100.301 80.7801L102.103 84.8341L102.703 88.4377V89.1885V89.7891L102.103 93.9933L100.751 98.0473L98.1987 101.801L95.1956 104.804L91.4419 106.906L87.3878 107.957L82.8833 108.408L78.529 108.858H77.9284H77.1776H51.502Z" fill="#666666"/>
<path d="M60.3604 101.052H77.1772H77.4775H77.9279H83.033L84.5345 100.902L85.8859 100.451L87.5375 100.151L87.988 100.001L89.4895 99.0999L90.6907 98.0488L91.5916 96.9978L92.1922 95.6464L92.6426 94.4452L93.0931 93.0939L93.5435 91.7425L93.8438 90.3912V89.9407V89.4903V89.19L93.6937 87.6885L93.2432 86.187L92.6426 84.6855L91.8919 83.184L90.8408 82.1329L89.6396 81.232L88.5886 80.3311L87.0871 79.5804L86.036 79.2801L84.6847 78.8296L83.033 78.229L81.2312 77.7786L79.7297 77.6284L78.3784 77.4783L77.6276 77.3281H76.8769H76.1261H60.3604V101.052Z" fill="#EBEBE1"/>
<path d="M60.3604 69.3716H75.0751H75.8258H76.5766H83.033L84.6847 69.0713L85.8859 68.4707L87.2372 67.5698L88.1381 66.6689L88.8889 65.4677L89.6396 63.9662L90.2402 62.6149L90.6907 61.1134L90.8408 60.3626V59.9122V59.6119L90.6907 57.9602L90.2402 56.1584L89.6396 54.6569L88.5886 52.8551L87.5375 51.5038L86.1862 50.4527L84.6847 49.8521L83.1832 49.4017L81.6817 48.8011L79.7297 48.3506L78.2282 48.0503L76.5766 47.9002L74.9249 47.75H74.024H73.1231H60.3604V69.3716Z" fill="#EBEBE1"/>
</g>
<defs>
<clipPath id="clip0_2109_173544">
<rect width="150" height="150" fill="white"/>
</clipPath>
</defs>
</svg>
