<svg width="150" height="150" viewBox="0 0 150 150" fill="none" xmlns="http://www.w3.org/2000/svg">
<g clip-path="url(#clip0_2109_173453)">
<path d="M9.15918 149.999L25.6757 135.885H124.174L128.979 131.23L150 140.69L140.691 149.999H9.15918Z" fill="#ADAD84"/>
<path d="M9.15916 149.997L25.6757 135.883L20.8709 131.228V11.5587L0 9.15625V140.688L9.15916 149.997Z" fill="#D7D7C2"/>
<path d="M140.691 0L124.174 7.05706H25.6757L20.8709 11.5616L0 9.15916L9.15916 0H140.691Z" fill="#EBEBE1"/>
<path d="M140.69 0L124.174 7.05706L128.979 11.5616V131.231L150 140.691V9.15916L140.69 0Z" fill="#D7D7C2"/>
<path d="M0 9.15916L9.15916 0H140.691L150 9.15916V140.691L140.691 150H9.15916L0 140.691V9.15916Z" stroke="black" stroke-width="0.3003"/>
<path d="M20.8711 11.5626L25.6759 6.75781H124.174L128.979 11.5626V131.082L124.174 135.887H25.6759L20.8711 131.082V11.5626Z" fill="#EBEBE1" stroke="#ADAD84" stroke-width="0.3003"/>
<path d="M79.7299 100.748L103.153 65.6127L121.772 9.15625L126.577 13.9611V128.976L121.772 133.481H28.0782L23.2734 128.976L79.7299 100.748Z" fill="#E1E1D1"/>
<path d="M46.6969 18.7659L37.3876 28.0752L28.0782 60.8079L23.2734 56.3034V13.9611L28.0782 9.15625H70.1203L74.9251 13.9611L46.6969 18.7659Z" fill="#E1E1D1"/>
<path d="M20.8711 131.082V11.5626L25.6759 6.75781H124.174" stroke="white" stroke-width="0.3003"/>
<path d="M86.937 72.5208L85.1352 71.9202L83.6337 71.1694L82.5826 70.2685L81.3814 68.9171L80.7808 67.5658L80.3304 66.0643L80.0301 64.5628V62.9111L80.3304 61.2595L80.931 59.758L81.5316 58.4066L82.4325 57.0553L83.6337 55.8541L85.1352 54.6529L86.7868 53.752L88.5886 53.1514L90.3904 52.7009H91.1412L91.7418 52.5508H92.4925L94.5946 52.7009L95.946 52.8511L97.2973 53.1514L98.4985 53.6018L99.6997 54.2024L100.901 54.803L102.402 55.7039L103.604 57.2054L104.655 58.7069L105.405 60.2084L105.856 61.8601L106.156 63.3616L106.006 65.1634L105.706 66.5147L105.105 67.7159L104.204 68.767L103.153 69.818L101.952 70.8691L100.751 71.77L99.2493 72.5208L101.051 73.2715L102.553 74.1724L103.754 75.5238L104.805 76.8751L105.856 78.3766L106.456 79.5778L106.907 80.9292L107.207 82.2805L107.357 82.731V83.1814V83.6319L107.207 85.734L106.907 87.5358L106.156 89.3376L105.255 90.9892L104.204 92.4907L102.703 93.8421L101.502 94.5928L100.15 95.1934L98.7988 95.794L97.4475 96.2445L95.946 96.5448L94.4445 96.6949H93.6937H93.0931H91.4415L89.94 96.5448L88.4385 96.2445L87.0871 95.794L85.7358 95.1934L84.5346 94.5928L83.4835 93.8421L82.4325 92.9412L81.2313 91.4397L80.1802 89.9382L79.4295 88.1364L78.979 86.3346L78.8289 84.9832L78.6787 84.3826V83.6319L78.8289 82.2805L78.979 80.779L79.4295 79.4277L79.8799 78.0763L80.6307 76.8751L81.6817 75.5238L83.0331 74.1724L84.5346 73.2715L86.1862 72.5208H86.937Z" fill="#666666"/>
<path d="M43.9941 96.0943V52.5508H73.2734V57.6559H49.5497V71.3195H69.5197V76.1244H49.5497V96.0943H43.9941Z" fill="#666666"/>
<path d="M84.3848 83.0339L84.5349 84.6855L84.8352 86.3372L84.9854 87.8387L86.0364 89.4903L87.6881 90.3912L89.1896 90.9918L90.5409 91.2921L91.8923 91.7426H92.4929H93.0935H93.5439H94.8953L96.6971 91.2921L98.1986 90.6915L99.2496 89.9408L100.151 88.7396L101.051 87.2381L101.352 86.0369L101.802 84.6855V84.0849V83.6345L101.652 82.2831L101.352 80.9318L100.751 79.7306L100 78.2291L98.9493 77.178L97.598 76.2771L96.3968 75.8267L94.8953 75.2261L93.3938 75.0759L92.9433 74.9258H92.4929L90.6911 75.2261L89.1896 75.8267L87.8382 76.5774L86.9373 77.4783L85.8863 78.5294L85.1355 80.0309L84.6851 81.3822L84.3848 82.7336V83.184V83.6345V83.0339Z" fill="#EBEBE1"/>
<path d="M92.9433 69.9686C97.0067 69.9686 100.301 67.2124 100.301 63.8124C100.301 60.4125 97.0067 57.6562 92.9433 57.6562C88.8799 57.6562 85.5859 60.4125 85.5859 63.8124C85.5859 67.2124 88.8799 69.9686 92.9433 69.9686Z" fill="#EBEBE1"/>
</g>
<defs>
<clipPath id="clip0_2109_173453">
<rect width="150" height="150" fill="white"/>
</clipPath>
</defs>
</svg>
