<svg width="150" height="150" viewBox="0 0 150 150" fill="none" xmlns="http://www.w3.org/2000/svg">
<g clip-path="url(#clip0_2109_174097)">
<path d="M9.30957 149.999L25.6759 135.885H124.174L128.829 131.23L150 140.54L140.541 149.999H9.30957Z" fill="#ADAD84"/>
<path d="M9.30931 149.999L25.6757 135.885L21.021 131.231V11.5608L0 9.30859V140.54L9.30931 149.999Z" fill="#D7D7C2"/>
<path d="M140.541 0L124.174 6.90691H25.6757L21.021 11.5616L0 9.30931L9.30931 0H140.541Z" fill="#EBEBE1"/>
<path d="M140.54 0L124.174 6.90691L128.828 11.5616V131.231L150 140.541V9.30931L140.54 0Z" fill="#D7D7C2"/>
<path d="M0 9.30931L9.30931 0H140.541L150 9.30931V140.541L140.541 150H9.30931L0 140.541V9.30931Z" stroke="black" stroke-width="0.3003"/>
<path d="M21.0215 11.5609L25.6761 6.90625H124.175L128.829 11.5609V131.08L124.175 135.885H25.6761L21.0215 131.08V11.5609Z" fill="#EBEBE1" stroke="#ADAD84" stroke-width="0.3003"/>
<path d="M79.5797 100.75L103.003 65.6149L121.772 9.30859L126.427 13.9632V128.828L121.772 133.483H28.0782L23.2734 128.828L79.5797 100.75Z" fill="#E1E1D1"/>
<path d="M46.8473 18.6179L37.3878 28.0774L28.0785 60.8101L23.4238 56.1554V13.9632L28.0785 9.30859H70.2707L74.9253 13.9632L46.8473 18.6179Z" fill="#E1E1D1"/>
<path d="M21.0215 131.08V11.5609L25.6761 6.90625H124.175" stroke="white" stroke-width="0.3003"/>
<path d="M32.1318 96.0943V52.5508H37.6874V70.719H60.8105V52.5508H66.3661V96.0943H60.8105V75.5238H37.6874V96.0943H32.1318Z" fill="#666666"/>
<path d="M75.0752 96.0948V64.4131H80.6308V69.3681L81.5317 67.8666L82.2824 66.8155L83.7839 65.6143L84.835 64.8636L86.3365 64.263L87.838 63.9627L88.5887 63.8125H89.3395L90.9911 63.9627L92.6428 64.263L93.844 64.5633L94.895 65.0137L95.9461 66.0648L96.9971 67.266L97.7479 68.6173L98.0482 69.9687L98.9491 68.6173L100.15 67.5663L101.201 66.5152L102.553 65.6143L103.904 64.8636L105.255 64.263L106.607 63.9627L107.958 63.8125L109.91 64.1128L111.862 64.5633L113.514 65.4642L114.865 66.3651L116.066 68.0167L117.117 69.9687L117.718 72.3711L117.868 73.7224V74.9236V96.0948H112.312V76.1248L112.162 74.9236L111.862 73.272L111.562 71.6203L110.661 70.4191L109.61 69.8185L108.108 69.0678L106.757 68.7675L104.955 69.0678L103.454 69.5182L102.252 70.4191L101.201 71.32L100.3 72.5212L99.6998 74.1729L99.3995 76.1248L99.2494 78.0768V96.0948H93.6938V75.2239L93.3935 73.7224L93.0932 72.3711L92.4926 70.7194L91.4416 69.8185L89.6398 69.0678L88.1383 68.7675L86.4866 69.0678L84.6848 69.5182L83.3335 70.269L81.9821 71.6203L81.2314 73.272L81.0812 74.9236L80.9311 76.275L80.6308 78.0768V79.8786V96.0948H75.0752Z" fill="#666666"/>
</g>
<defs>
<clipPath id="clip0_2109_174097">
<rect width="150" height="150" fill="white"/>
</clipPath>
</defs>
</svg>
