<svg width="150" height="150" viewBox="0 0 150 150" fill="none" xmlns="http://www.w3.org/2000/svg">
<g clip-path="url(#clip0_2109_173929)">
<path d="M9.30957 149.999L25.6759 135.885H124.174L128.829 131.23L150 140.54L140.541 149.999H9.30957Z" fill="#ADAD84"/>
<path d="M9.30931 149.999L25.6757 135.885L21.021 131.231V11.5608L0 9.30859V140.54L9.30931 149.999Z" fill="#D7D7C2"/>
<path d="M140.541 0L124.174 6.90691H25.6757L21.021 11.5616L0 9.30931L9.30931 0H140.541Z" fill="#EBEBE1"/>
<path d="M140.54 0L124.174 6.90691L128.828 11.5616V131.231L150 140.541V9.30931L140.54 0Z" fill="#D7D7C2"/>
<path d="M0 9.30931L9.30931 0H140.541L150 9.30931V140.541L140.541 150H9.30931L0 140.541V9.30931Z" stroke="black" stroke-width="0.3003"/>
<path d="M21.0215 11.5609L25.6761 6.90625H124.175L128.829 11.5609V131.08L124.175 135.885H25.6761L21.0215 131.08V11.5609Z" fill="#EBEBE1" stroke="#ADAD84" stroke-width="0.3003"/>
<path d="M79.5797 100.75L103.003 65.6149L121.772 9.30859L126.427 13.9632V128.828L121.772 133.483H28.0782L23.2734 128.828L79.5797 100.75Z" fill="#E1E1D1"/>
<path d="M46.8473 18.6179L37.3878 28.0774L28.0785 60.8101L23.4238 56.1554V13.9632L28.0785 9.30859H70.2707L74.9253 13.9632L46.8473 18.6179Z" fill="#E1E1D1"/>
<path d="M21.0215 131.08V11.5609L25.6761 6.90625H124.175" stroke="white" stroke-width="0.3003"/>
<path d="M52.4023 90.093L61.4114 89.1921L62.1621 93.5465L63.8138 97.1501L67.1171 100.303L71.7717 101.805L77.1771 101.655L81.6816 100.153L86.036 97.1501L88.5885 93.2462L89.7897 87.9909L89.6396 83.1861L88.1381 78.5314L85.1351 74.6275L81.081 72.6756L75.9759 71.4744L71.6216 71.7747L67.2672 73.4263L63.3633 75.8287L62.3123 77.3302L53.4534 76.2792L60.3603 40.8438H94.8948V49.7026H67.2672L63.3633 68.4714L67.4174 66.069L72.072 64.2672L76.2762 63.5164L81.3813 63.9669L85.2852 65.0179L89.6396 67.4203L92.6426 70.2732L95.1951 74.0269L97.2972 78.2311L98.4984 82.8858L98.6486 83.9368L98.7987 85.138V86.1891L98.4984 90.6936L97.2972 94.8978L95.4954 98.6516L92.9429 101.955L89.3393 105.258L84.9849 107.811L81.2312 109.162L77.027 109.763L75.6756 109.913H74.1741L69.9699 109.613L65.1651 108.261L60.8108 106.009L57.2071 103.006L54.9549 99.5525L53.3032 95.6486L52.5525 92.3453L52.4023 91.2942V90.093Z" fill="#666666"/>
</g>
<defs>
<clipPath id="clip0_2109_173929">
<rect width="150" height="150" fill="white"/>
</clipPath>
</defs>
</svg>
