<svg width="150" height="150" viewBox="0 0 150 150" fill="none" xmlns="http://www.w3.org/2000/svg">
<g clip-path="url(#clip0_2109_173469)">
<path d="M9.15918 149.999L25.6757 135.885H124.174L128.829 131.23L150 140.69L140.691 149.999H9.15918Z" fill="#ADAD84"/>
<path d="M9.15916 149.997L25.6757 135.883L21.021 131.228V11.5587L0 9.15625V140.688L9.15916 149.997Z" fill="#D7D7C2"/>
<path d="M140.691 0L124.174 7.05706H25.6757L21.021 11.5616L0 9.15916L9.15916 0H140.691Z" fill="#EBEBE1"/>
<path d="M140.69 0L124.174 7.05706L128.828 11.5616V131.231L150 140.691V9.15916L140.69 0Z" fill="#D7D7C2"/>
<path d="M0 9.15916L9.15916 0H140.691L150 9.15916V140.691L140.691 150H9.15916L0 140.691V9.15916Z" stroke="black" stroke-width="0.3003"/>
<path d="M21.0215 11.5626L25.6761 6.75781H124.175L128.829 11.5626V131.082L124.175 135.887H25.6761L21.0215 131.082V11.5626Z" fill="#EBEBE1" stroke="#ADAD84" stroke-width="0.3003"/>
<path d="M79.7299 100.748L103.153 65.6127L121.772 9.15625L126.577 13.9611V128.826L121.772 133.481H28.0782L23.2734 128.826L79.7299 100.748Z" fill="#E1E1D1"/>
<path d="M46.6969 18.7659L37.3876 28.0752L28.0782 60.8079L23.2734 56.3034V13.9611L28.0782 9.15625H70.1203L74.9251 13.9611L46.6969 18.7659Z" fill="#E1E1D1"/>
<path d="M21.0215 131.082V11.5626L25.6761 6.75781H124.175" stroke="white" stroke-width="0.3003"/>
<path d="M79.4297 85.5838L84.9853 84.8331L85.1354 86.6349L85.736 88.1364L86.4868 89.1874L87.9883 90.3886L89.0393 90.9892L90.8411 91.5898L92.3426 91.74L93.9943 91.4397L95.6459 91.1394H96.0964L97.748 90.2385L98.9492 88.8871L99.5498 87.5358L100.15 86.3346L100.751 85.1334L101.051 83.782L101.352 82.2805L101.802 80.779L102.102 79.1274L102.403 77.6259V75.9742V75.5238L101.352 76.5748L100.301 77.776L99.0994 78.6769L97.748 79.5778L96.0964 80.3286L94.4447 80.779L92.9432 81.2295H91.1414L89.1895 80.9292L87.2375 80.4787L85.5859 79.728L83.9342 78.6769L82.5829 77.4757L81.2315 75.9742L80.4808 74.773L79.8802 73.5718L79.4297 72.3706L79.1294 71.0192L78.8291 69.6679V68.9171V68.1664V67.5658V65.9141L78.9793 64.4126L79.2796 62.9111L79.73 61.5598L80.1805 60.2084L80.9312 59.0072L81.682 57.9562L82.5829 56.9051L84.0844 55.5538L85.1354 54.803L86.3366 54.0523L87.688 53.4517L89.0393 53.0012L90.3907 52.7009L91.742 52.5508H92.4928H92.9432L94.4447 52.8511L95.9462 53.1514L97.4477 53.752L99.0994 54.3526L100.451 55.1033L101.802 55.8541L103.003 56.9051L104.054 58.1063L105.105 59.4577L105.856 60.809L106.607 62.3105L106.907 63.6619L107.207 65.0132L107.508 66.6649L107.658 68.3165L107.808 69.9682L107.958 71.9202V72.8211V73.722V75.5238L107.808 77.4757L107.658 79.2775L107.508 80.9292L107.207 82.5808L106.907 84.0823L106.607 85.5838L106.156 86.785L105.406 88.5868L104.355 90.2385L103.454 91.74L102.253 92.9412L100.901 93.9922L99.5498 94.743L98.0483 95.3436L96.3967 95.9442L94.745 96.3946L92.9432 96.6949H92.3426H91.742L89.7901 96.5448L87.9883 96.2445L86.1865 95.794L84.685 95.1934L83.4838 94.4427L82.4327 93.5418L81.3817 92.1904L80.6309 90.5388L79.8802 88.8871L79.5799 86.9352L79.4297 85.5838Z" fill="#666666"/>
<path d="M102.403 66.9656L102.102 65.0136L101.802 63.8124L101.202 62.6112L100.451 61.2599L99.3998 60.0587L98.1986 59.1578L96.9974 58.407L95.4959 57.9566L93.9944 57.6562H93.5439H93.0935L91.2917 57.8064L89.9403 58.2569L88.7391 58.7073L87.3878 59.6082L86.3367 60.8094L85.7361 62.1608L85.1355 63.5121L84.6851 65.0136L84.3848 66.5151V66.9656V67.5662L84.5349 69.368L84.8352 71.0196L85.4358 72.5211L86.1866 73.7223L87.5379 74.6232L88.7391 75.2238L90.0905 75.8244L91.592 76.1247H92.0424L92.643 76.2749H93.0935L94.8953 76.1247L96.6971 75.6743L98.1986 75.0737L99.2496 74.3229L100.601 73.1217L101.352 71.9205L101.952 70.419L102.253 68.9175V68.4671L102.403 68.0166V67.5662V66.9656Z" fill="#EBEBE1"/>
<path d="M43.9941 96.0943V52.5508H73.1233V57.6559H49.5497V71.1694H69.5197V76.2745H49.5497V96.0943H43.9941Z" fill="#666666"/>
</g>
<defs>
<clipPath id="clip0_2109_173469">
<rect width="150" height="150" fill="white"/>
</clipPath>
</defs>
</svg>
