<svg width="150" height="150" viewBox="0 0 150 150" fill="none" xmlns="http://www.w3.org/2000/svg">
<g clip-path="url(#clip0_2109_173381)">
<path d="M9.30957 149.999L25.6759 135.885H124.174L128.829 131.23L150 140.54L140.541 149.999H9.30957Z" fill="#ADAD84"/>
<path d="M9.30931 149.999L25.6757 135.885L21.021 131.231V11.5608L0 9.30859V140.54L9.30931 149.999Z" fill="#D7D7C2"/>
<path d="M140.541 0L124.174 6.90691H25.6757L21.021 11.5616L0 9.30931L9.30931 0H140.541Z" fill="#EBEBE1"/>
<path d="M140.54 0L124.174 6.90691L128.828 11.5616V131.231L150 140.541V9.30931L140.54 0Z" fill="#D7D7C2"/>
<path d="M0 9.30931L9.30931 0H140.541L150 9.30931V140.541L140.541 150H9.30931L0 140.541V9.30931Z" stroke="black" stroke-width="0.3003"/>
<path d="M21.0215 11.5609L25.6761 6.90625H124.175L128.829 11.5609V131.08L124.175 135.885H25.6761L21.0215 131.08V11.5609Z" fill="#EBEBE1" stroke="#ADAD84" stroke-width="0.3003"/>
<path d="M79.5797 100.75L103.003 65.6149L121.772 9.30859L126.427 13.9632V128.828L121.772 133.483H28.0782L23.2734 128.828L79.5797 100.75Z" fill="#E1E1D1"/>
<path d="M46.8473 18.6179L37.3878 28.0774L28.0785 60.8101L23.4238 56.1554V13.9632L28.0785 9.30859H70.2707L74.9253 13.9632L46.8473 18.6179Z" fill="#E1E1D1"/>
<path d="M21.0215 131.08V11.5609L25.6761 6.90625H124.175" stroke="white" stroke-width="0.3003"/>
<path d="M43.9941 96.0943V52.5508H73.2734V57.6559H49.5497V71.3195H69.5197V76.1244H49.5497V96.0943H43.9941Z" fill="#666666"/>
<path d="M78.6787 84.2325L84.3844 83.6319L84.5346 85.4337L85.1352 87.2355L85.8859 88.737L86.7868 89.9382L87.988 90.6889L89.4895 91.2895L91.2913 91.5898L93.0931 91.74L94.8949 91.5898L96.6967 90.9892L98.1982 90.0883L99.2493 89.1874L100.601 88.1364L101.502 86.6349L102.102 85.1334L102.402 83.6319L102.102 81.9802L101.652 80.3286L100.751 79.1274L99.8499 78.0763L98.6487 77.1754L96.997 76.2745L95.0451 75.8241L93.0931 75.5238H89.3394L89.94 70.719L91.1412 71.3195L92.6427 71.1694L94.2943 70.8691L95.6457 70.2685L96.8469 69.3676L98.0481 68.3165L99.0991 67.1153L99.6997 65.9141L99.8499 64.4126L99.6997 63.0613L99.0991 61.1093L98.4985 59.9081L96.8469 58.7069L95.4955 58.1063L93.8439 57.806L92.4925 57.6559L90.991 57.806L89.0391 58.4066L87.988 59.0072L86.4865 60.5087L85.7358 61.7099L85.1352 63.0613L84.985 64.4126L79.4295 63.812L79.7298 61.5598L80.4805 59.3075L81.6817 57.3556L83.0331 55.7039L84.985 54.5027L87.2373 53.4517L89.7898 52.8511L91.1412 52.7009L92.4925 52.5508H93.3934L95.1952 52.8511L96.8469 53.1514L98.0481 53.6018L99.2493 54.3526L100.751 55.4036L101.952 56.6048L103.153 57.6559L104.054 59.0072L104.805 60.5087L105.255 62.0102L105.556 63.3616L105.405 65.1634L105.105 66.5147L104.505 68.3165L104.204 68.767L103.153 69.818L101.952 70.8691L100.601 71.9202L99.2493 72.5208L101.201 73.2715L102.853 74.1724L104.354 75.2235L105.556 76.1244L106.456 77.776L107.207 79.728L107.808 81.6799L107.958 82.731V83.6319V84.9832L107.658 86.3346L107.207 87.5358L106.757 88.737L106.156 89.9382L105.405 90.9892L103.604 92.9412L102.703 93.8421L101.502 94.5928L100.15 95.1934L98.7988 95.794L97.2973 96.2445L95.6457 96.5448L94.1442 96.6949H92.4925H91.1412L88.4385 96.2445L86.1862 95.3436L84.0841 94.2925L82.1322 92.6409L81.3814 91.5898L80.6307 90.5388L79.4295 88.2865L78.979 86.9352L78.8289 85.5838L78.6787 84.2325Z" fill="#666666"/>
</g>
<defs>
<clipPath id="clip0_2109_173381">
<rect width="150" height="150" fill="white"/>
</clipPath>
</defs>
</svg>
