<svg width="150" height="150" viewBox="0 0 150 150" fill="none" xmlns="http://www.w3.org/2000/svg">
<g clip-path="url(#clip0_2109_173572)">
<path d="M9.15918 150.001L25.6757 135.887H124.174L128.979 131.383L150 140.692L140.691 150.001H9.15918Z" fill="#ADAD84"/>
<path d="M9.15916 149.997L25.6757 135.883L20.8709 131.378V11.5587L0 9.15625V140.688L9.15916 149.997Z" fill="#D7D7C2"/>
<path d="M140.691 0L124.174 7.05706H25.6757L20.8709 11.5616L0 9.15916L9.15916 0H140.691Z" fill="#EBEBE1"/>
<path d="M140.69 0L124.174 7.05706L128.979 11.5616V131.381L150 140.691V9.15916L140.69 0Z" fill="#D7D7C2"/>
<path d="M0 9.15916L9.15916 0H140.691L150 9.15916V140.691L140.691 150H9.15916L0 140.691V9.15916Z" stroke="black" stroke-width="0.3003"/>
<path d="M20.8711 11.5609L25.6759 6.90625H124.174L128.979 11.5609V131.08L124.174 135.885H25.6759L20.8711 131.08V11.5609Z" fill="#EBEBE1" stroke="#ADAD84" stroke-width="0.3003"/>
<path d="M79.7299 100.748L103.153 65.6127L121.772 9.15625L126.577 13.9611V128.976L121.772 133.481H28.0782L23.2734 128.976L79.7299 100.748Z" fill="#E1E1D1"/>
<path d="M46.6969 18.7659L37.3876 28.0752L28.0782 60.8079L23.2734 56.3034V13.9611L28.0782 9.15625H70.1203L74.9251 13.9611L46.6969 18.7659Z" fill="#E1E1D1"/>
<path d="M20.8711 131.08V11.5609L25.6759 6.90625H124.174" stroke="white" stroke-width="0.3003"/>
<path d="M48.498 108.858V39.7891H72.2218H73.1227L77.6272 40.0894L81.9815 40.69L86.1857 41.5909L90.3899 43.8431L93.8434 46.696L97.2968 49.3987L100.15 53.0023L102.402 56.9062L104.054 61.4107L104.955 65.6149L105.555 69.9692L105.705 72.2215V73.2725V74.3236L105.555 78.9783L104.804 83.3326L103.903 87.3867L102.552 91.8912L100.6 95.6449L97.7473 99.2485L94.7443 102.552L91.1407 105.405L86.9365 107.357L82.2818 107.957L77.477 108.558L74.6242 108.858H73.8734H73.1227H48.498Z" fill="#666666"/>
<path d="M57.3574 101.053H72.2223H72.973H73.7238L78.3784 100.603L82.5826 100.002L86.7869 98.6509L90.0902 95.798L92.6427 92.3446L94.7448 88.741L95.7959 84.2365L96.5466 79.8821L96.8469 76.2785V75.3776V74.3266L96.5466 69.3716L95.6457 64.8671L94.2944 60.9632L92.4926 56.9092L89.94 53.6059L86.3364 50.753L82.5826 49.1014L78.3784 48.2005L74.0241 47.75H73.1232H72.2223H57.3574V101.053Z" fill="#EBEBE1"/>
</g>
<defs>
<clipPath id="clip0_2109_173572">
<rect width="150" height="150" fill="white"/>
</clipPath>
</defs>
</svg>
