<svg width="150" height="150" viewBox="0 0 150 150" fill="none" xmlns="http://www.w3.org/2000/svg">
<g clip-path="url(#clip0_2109_174127)">
<path d="M4.6543 150.001L12.7624 136.173H137.087L139.489 131.363L150 140.381L145.195 150.001H4.6543Z" fill="#ADAD84"/>
<path d="M4.65465 150.002L12.7628 136.174L10.3604 131.364V11.7251L0 9.32031V140.382L4.65465 150.002Z" fill="#D7D7C2"/>
<path d="M145.195 0L137.087 6.91383H12.7628L10.3604 11.7234L0 9.31864L4.65465 0H145.195Z" fill="#EBEBE1"/>
<path d="M145.195 0L137.087 6.91383L139.489 11.7234V131.363L150 140.381V9.31864L145.195 0Z" fill="#D7D7C2"/>
<path d="M0 9.31864L4.65465 0H145.195L150 9.31864V140.381L145.195 150H4.65465L0 140.381V9.31864Z" stroke="black" stroke-width="0.424901"/>
<path d="M10.3604 11.4231L12.7628 6.91406H137.087L139.489 11.4231V131.363L137.087 136.173H12.7628L10.3604 131.363V11.4231Z" fill="#EBEBE1" stroke="#ADAD84" stroke-width="0.424901"/>
<path d="M23.2732 18.3383L18.7687 27.9576L13.9639 61.0237L11.5615 56.2141V14.1299L13.9639 9.32031H110.06L112.462 14.1299L23.2732 18.3383Z" fill="#E1E1D1"/>
<path d="M10.3604 131.363V11.4231L12.7628 6.91406H137.087" stroke="white" stroke-width="0.424901"/>
<path d="M114.865 100.703L126.577 65.2321L135.886 9.32031L138.288 13.5287V128.96L135.886 133.769H13.9639L11.5615 128.96L114.865 100.703Z" fill="#E1E1D1"/>
<path d="M92.0424 91.6804L92.3427 96.7907H92.1926H91.8923H90.2406L88.7391 96.1895L87.3878 95.2877L86.9373 92.2816L86.7872 88.6744V87.472V69.436H84.9854V64.3257H86.7872V56.8107L89.64 53.8047V64.3257H92.0424V69.436H89.64V90.478L89.9403 91.0792L91.2917 91.6804H92.0424Z" fill="#666666"/>
<path d="M79.5801 96.1926V52.6055H82.4329V96.1926H79.5801Z" fill="#666666"/>
<path d="M56.6064 96.1926L65.9158 52.6055H68.4683L77.4773 96.1926H74.6245L71.9218 82.365H62.6125L60.0599 96.1926H56.6064Z" fill="#666666"/>
<path d="M63.5137 77.5545H70.871L68.7689 66.4323L68.3185 63.7269L67.7179 60.7209L67.2674 58.0154V57.7148L66.6668 60.4203L66.2164 63.1257L65.6158 65.5305L63.5137 77.5545Z" fill="#E1E1D1"/>
</g>
<defs>
<clipPath id="clip0_2109_174127">
<rect width="150" height="150" fill="white"/>
</clipPath>
</defs>
</svg>
