<svg width="150" height="150" viewBox="0 0 150 150" fill="none" xmlns="http://www.w3.org/2000/svg">
<g clip-path="url(#clip0_2109_173410)">
<path d="M9.30957 149.999L25.6759 135.885H124.174L128.829 131.23L150 140.54L140.541 149.999H9.30957Z" fill="#ADAD84"/>
<path d="M9.30931 149.999L25.6757 135.885L21.021 131.231V11.5608L0 9.30859V140.54L9.30931 149.999Z" fill="#D7D7C2"/>
<path d="M140.541 0L124.174 6.90691H25.6757L21.021 11.5616L0 9.30931L9.30931 0H140.541Z" fill="#EBEBE1"/>
<path d="M140.54 0L124.174 6.90691L128.828 11.5616V131.231L150 140.541V9.30931L140.54 0Z" fill="#D7D7C2"/>
<path d="M0 9.30931L9.30931 0H140.541L150 9.30931V140.541L140.541 150H9.30931L0 140.541V9.30931Z" stroke="black" stroke-width="0.3003"/>
<path d="M21.0215 11.5609L25.6761 6.90625H124.175L128.829 11.5609V131.08L124.175 135.885H25.6761L21.0215 131.08V11.5609Z" fill="#EBEBE1" stroke="#ADAD84" stroke-width="0.3003"/>
<path d="M79.5797 100.75L103.003 65.6149L121.772 9.30859L126.427 13.9632V128.828L121.772 133.483H28.0782L23.2734 128.828L79.5797 100.75Z" fill="#E1E1D1"/>
<path d="M46.8473 18.6179L37.3878 28.0774L28.0785 60.8101L23.4238 56.1554V13.9632L28.0785 9.30859H70.2707L74.9253 13.9632L46.8473 18.6179Z" fill="#E1E1D1"/>
<path d="M21.0215 131.08V11.5609L25.6761 6.90625H124.175" stroke="white" stroke-width="0.3003"/>
<path d="M43.9941 96.0943V52.5508H73.2734V57.6559H49.5497V71.3195H69.5197V76.1244H49.5497V96.0943H43.9941Z" fill="#666666"/>
<path d="M78.6787 84.2356L84.3844 83.635L84.5346 85.4368L85.1352 87.2386L85.8859 88.7401L86.7868 89.9413L87.988 90.6921L89.4895 91.2927L90.991 91.593L92.4925 91.7431L94.4445 91.593L96.3964 90.9924L98.0481 90.0915L99.2493 89.1906L100.601 87.9894L101.502 86.1876L102.102 84.0855L102.402 81.8332L102.102 79.8813L101.652 77.9293L100.751 76.1275L99.8499 74.9263L98.6487 74.1756L96.8469 73.2747L94.7448 72.8242L92.4925 72.5239L90.8409 72.8242L89.0391 73.2747L87.5376 74.0254L86.0361 74.9263L84.985 75.9774V76.1275L79.4295 75.5269L83.7838 53.3047H105.556V58.8602H88.1382L85.5856 70.7221L87.6877 69.3708L89.94 68.4699L92.1922 67.7191L94.2943 67.569L96.997 67.7191L99.3994 68.4699L101.652 69.6711L103.604 71.3227L104.505 72.2236L105.405 73.4248L106.156 74.7762L106.757 75.9774L107.207 77.4789L107.658 78.9804L107.958 80.3317V81.8332V83.1846L107.808 84.5359L107.508 85.8873L107.057 87.2386L106.456 88.4398L105.856 89.641L105.105 90.8422L104.204 91.7431L103.153 92.9443L102.102 93.8452L100.751 94.7461L99.2493 95.3467L97.7478 95.9473L96.0961 96.3978L94.2943 96.6981H92.4925H91.1412L88.4385 96.2476L86.1862 95.3467L84.0841 94.2957L82.1322 92.7942L81.3814 91.8933L80.6307 90.8422L80.0301 89.641L79.4295 88.4398L78.979 87.0885L78.8289 85.7371L78.6787 84.2356Z" fill="#666666"/>
</g>
<defs>
<clipPath id="clip0_2109_173410">
<rect width="150" height="150" fill="white"/>
</clipPath>
</defs>
</svg>
