<svg width="150" height="150" viewBox="0 0 150 150" fill="none" xmlns="http://www.w3.org/2000/svg">
<g clip-path="url(#clip0_2914_169640)">
<mask id="mask0_2914_169640" style="mask-type:luminance" maskUnits="userSpaceOnUse" x="0" y="0" width="150" height="150">
<path d="M150 0H0V150H150V0Z" fill="white"/>
</mask>
<g mask="url(#mask0_2914_169640)">
<path d="M68.6191 12.3359H81.2318V55.365H68.6191V12.3359Z" fill="#F2E756"/>
<path d="M71.0215 12.3359H78.8293V55.365H71.0215V12.3359Z" fill="#FDFCE2"/>
<path d="M74.0234 12.3359H75.8252V55.365H74.0234V12.3359Z" fill="#FDFCE2"/>
<path d="M68.6191 12.3359H81.2318V55.365H68.6191V12.3359Z" stroke="#F0E210" stroke-width="0.300601"/>
<path d="M26.877 83.5H122.673V133.6H26.877V83.5Z" fill="#D3C300"/>
<path d="M27.0273 90.7188H122.823V126.075H27.0273V90.7188Z" fill="#DBC900"/>
<path d="M27.0273 98.0938H122.823V118.706H27.0273V98.0938Z" fill="#E0CF00"/>
<path d="M26.877 105.312H122.673V111.481H26.877V105.312Z" fill="#EEDB00"/>
<path d="M26.877 133.602H122.673" stroke="#F0E210" stroke-width="0.300601"/>
<path d="M122.673 83.5H26.877" stroke="#F0E210" stroke-width="0.300601"/>
<path d="M145.947 66.3516H122.373V150.003H145.947V66.3516Z" fill="#D3C300"/>
<path d="M145.946 66.3516H134.234V150.003H145.946V66.3516Z" stroke="#F0E210" stroke-width="0.300601"/>
<path d="M50.75 78.9844V84.2502L50.9002 85.7547L51.2005 87.1087L51.9512 88.3124L52.8521 89.516L53.9032 90.7196L55.2545 91.6223L56.756 92.525L58.4077 93.4277L60.2095 94.18L62.1614 94.7818L64.1134 95.2331L66.3656 95.6845L68.4677 95.9854L70.72 96.2863L73.1224 96.4367H75.3746H77.6269L80.0293 96.2863L82.2815 95.9854L84.3836 95.6845L86.6359 95.2331L88.5878 94.7818L90.5398 94.18L92.3416 93.4277L93.9932 92.525L95.4947 91.6223L96.8461 90.7196L97.8971 89.516L98.798 88.3124L99.5488 87.1087L99.8491 85.7547L99.9992 84.2502V78.9844H50.75Z" fill="#C4B400"/>
<path d="M57.207 78.9844V84.0997V85.6042L57.5073 86.9583L58.1079 88.3124L58.7085 89.516L59.6094 90.5691L60.5103 91.6223L61.7115 92.525L62.9127 93.2773L64.2641 94.0295L65.6154 94.6313L67.1169 95.0827L68.7686 95.534L70.4202 95.8349L72.0719 96.1358L73.7235 96.2863H75.5253H77.177L78.9788 96.1358L80.6305 95.8349L82.2821 95.534L83.7836 95.0827L85.2851 94.6313L86.7866 94.0295L88.138 93.2773L89.3392 92.525L90.3902 91.6223L91.4413 90.5691L92.3422 89.516L92.9428 88.3124L93.3932 86.9583L93.6935 85.6042L93.8437 84.0997V78.9844H57.207Z" fill="#C6B700"/>
<path d="M63.5137 78.9844V84.0997L63.814 86.9583L64.5647 89.516L65.7659 91.6223L67.2674 93.2773L69.0692 94.6313L71.1713 95.534L73.2734 96.1358L75.5257 96.2863L77.7779 96.1358L79.88 95.534L81.9821 94.6313L83.7839 93.2773L85.2854 91.6223L86.4866 89.516L87.2374 86.9583L87.5377 84.0997V78.9844H63.5137Z" fill="#C9B900"/>
<path d="M69.8203 78.9844V84.2502L69.9705 87.1087L70.2708 89.516L70.8714 91.6223L71.472 93.4277L72.3729 94.7818L73.2738 95.6845L74.3248 96.2863L75.3759 96.4367L76.4269 96.2863L77.478 95.6845L78.3789 94.7818L79.2798 93.4277L79.8804 91.6223L80.481 89.516L80.7813 87.1087L80.9314 84.2502V78.9844H69.8203Z" fill="#D3C300"/>
<path d="M50.75 78.9844V84.2502L50.9002 85.7547L51.2005 87.1087L51.9512 88.3124L52.8521 89.516L53.9032 90.7196L55.2545 91.6223L56.756 92.525L58.4077 93.4277L60.2095 94.18L62.1614 94.7818L64.1134 95.2331L66.3656 95.6845L68.4677 95.9854L70.72 96.2863L73.1224 96.4367H75.3746H77.6269L80.0293 96.2863L82.2815 95.9854L84.3836 95.6845L86.6359 95.2331L88.5878 94.7818L90.5398 94.18L92.3416 93.4277L93.9932 92.525L95.4947 91.6223L96.8461 90.7196L97.8971 89.516L98.798 88.3124L99.5488 87.1087L99.8491 85.7547L99.9992 84.2502V78.9844H50.75Z" stroke="#F0E210" stroke-width="0.300601"/>
<path d="M33.4844 55.3672V78.9881H116.968V55.3672H33.4844Z" fill="#D3C300"/>
<path d="M45.7949 55.3672V78.8376H104.654V55.3672H45.7949Z" fill="#DBC900"/>
<path d="M57.957 55.3672V78.8376H92.4916V55.3672H57.957Z" fill="#E0CF00"/>
<path d="M70.1211 55.3672V78.9881H80.3313V55.3672H70.1211Z" fill="#EEDB00"/>
<path d="M33.4844 55.3672V67.2528H116.968V55.3672H33.4844Z" stroke="#F0E210" stroke-width="0.300601"/>
<path d="M33.4844 67.25V78.9852H116.968V67.25H33.4844Z" stroke="#F0E210" stroke-width="0.300601"/>
<path d="M14.7148 0H135.135V12.337H14.7148V0Z" fill="#F0E210"/>
<path d="M14.7148 2.25781H135.135V10.2317H14.7148V2.25781Z" fill="#F2E756"/>
<path d="M14.7148 5.11719H135.135V7.52441H14.7148V5.11719Z" fill="#F5EE8C"/>
<path d="M31.9824 0H117.868V12.337H31.9824V0Z" fill="#F0E210"/>
<path d="M31.9824 2.25781H117.868V10.2317H31.9824V2.25781Z" fill="#F9F6BF"/>
<path d="M31.9824 5.11719H117.868V7.52441H31.9824V5.11719Z" fill="#FDFCE2"/>
<path d="M54.6543 0H95.1948V12.337H54.6543V0Z" fill="#F5EE8C"/>
<path d="M54.6543 2.25781H95.1948V10.2317H54.6543V2.25781Z" fill="#F5EE8C"/>
<path d="M54.6543 5.11719H95.1948V7.52441H54.6543V5.11719Z" fill="white"/>
<path d="M14.7148 0H135.135V12.337H14.7148V0Z" stroke="#F0E210" stroke-width="0.300601"/>
<path d="M56.1562 55.3665V18.6562H93.6939V55.3665H88.2884V24.2229H61.5617V55.3665H56.1562Z" fill="#D3C300" stroke="#F0E210" stroke-width="0.300601"/>
<path d="M27.1776 66.3516H3.9043V150.003H27.1776V66.3516Z" fill="#D3C300"/>
<path d="M145.945 133L149.999 134.505V144.735L145.945 146.24V133Z" fill="#D3C300"/>
<path d="M122.373 133L118.77 134.505V144.735L122.373 146.24V133Z" fill="#D3C300"/>
<path d="M122.373 101.703L118.77 103.208V113.589L122.373 115.093V101.703Z" fill="#D3C300" stroke="#F0E210" stroke-width="0.300601"/>
<path d="M145.945 101.703L149.999 103.208V113.589L145.945 115.093V101.703Z" fill="#D3C300"/>
<path d="M145.945 70.2578L149.999 72.0632V81.993L145.945 83.4975V70.2578Z" fill="#D3C300"/>
<path d="M122.373 70.2578L118.77 72.0632V81.993L122.373 83.4975V70.2578Z" fill="#D3C300" stroke="#F0E210" stroke-width="0.300601"/>
<path d="M146.096 134.805L150 136.008V143.23L146.096 144.283V134.805Z" fill="#D7C600"/>
<path d="M122.523 134.805L118.619 136.008V143.23L122.523 144.283V134.805Z" fill="#D7C600"/>
<path d="M122.523 103.508L118.619 104.561V111.783L122.523 112.986V103.508Z" fill="#D7C600"/>
<path d="M146.096 103.508L150 104.561V111.783L146.096 112.986V103.508Z" fill="#D7C600"/>
<path d="M146.096 72.2188L150 73.4223V80.4935L146.096 81.6971V72.2188Z" fill="#D7C600"/>
<path d="M122.523 72.2188L118.619 73.4223V80.4935L122.523 81.6971V72.2188Z" fill="#D7C600"/>
<path d="M145.945 74.1719L149.999 74.7737V78.9863L145.945 79.5881V74.1719Z" fill="#EEDB00"/>
<path d="M122.373 74.1719L118.77 74.7737V78.9863L122.373 79.5881V74.1719Z" fill="#EEDB00"/>
<path d="M122.373 105.617L118.77 106.219V110.582L122.373 111.184V105.617Z" fill="#EEDB00"/>
<path d="M145.945 105.617L149.999 106.219V110.582L145.945 111.184V105.617Z" fill="#EEDB00"/>
<path d="M145.945 136.914L149.999 137.516V141.729L145.945 142.33V136.914Z" fill="#EEDB00"/>
<path d="M122.373 136.914L118.77 137.516V141.729L122.373 142.33V136.914Z" fill="#EEDB00"/>
<path d="M146.097 78.6875H122.523V137.815H146.097V78.6875Z" fill="#DBC900"/>
<path d="M146.097 91.0234H122.523V125.627H146.097V91.0234Z" fill="#E0CF00"/>
<path d="M145.947 103.211H122.373V113.592H145.947V103.211Z" fill="#EEDB00"/>
<path d="M122.373 133L118.77 134.505V144.735L122.373 146.24V133Z" stroke="#F0E210" stroke-width="0.300601"/>
<path d="M145.945 101.703L149.999 103.208V113.589L145.945 115.093V101.703Z" stroke="#F0E210" stroke-width="0.300601"/>
<path d="M145.945 70.2578L149.999 72.0632V81.993L145.945 83.4975V70.2578Z" stroke="#F0E210" stroke-width="0.300601"/>
<path d="M145.945 133L149.999 134.505V144.735L145.945 146.24V133Z" stroke="#F0E210" stroke-width="0.300601"/>
<path d="M134.235 66.3516H122.373V150.003H134.235V66.3516Z" stroke="#F0E210" stroke-width="0.300601"/>
<path d="M27.4766 133L31.3805 134.505V144.735L27.4766 146.24V133Z" fill="#D3C300"/>
<path d="M3.9039 133L0 134.505V144.735L3.9039 146.24V133Z" fill="#D3C300" stroke="#F0E210" stroke-width="0.300601"/>
<path d="M3.9039 101.703L0 103.208V113.589L3.9039 115.093V101.703Z" fill="#D3C300"/>
<path d="M27.4766 101.703L31.3805 103.208V113.589L27.4766 115.093V101.703Z" fill="#D3C300" stroke="#F0E210" stroke-width="0.300601"/>
<path d="M27.4766 70.2578L31.3805 72.0632V81.993L27.4766 83.4975V70.2578Z" fill="#D3C300"/>
<path d="M3.9039 70.2578L0 72.0632V81.993L3.9039 83.4975V70.2578Z" fill="#D3C300"/>
<path d="M27.4766 134.805L31.3805 136.008V143.23L27.4766 144.283V134.805Z" fill="#D7C600"/>
<path d="M3.9039 134.805L0 136.008V143.23L3.9039 144.283V134.805Z" fill="#D7C600"/>
<path d="M3.9039 103.508L3.3033 103.658L2.85285 103.809L2.4024 103.959L1.8018 104.11L1.35135 104.26L0.900901 104.411L0.3003 104.561L0 104.711V105.614V106.366V107.269V108.172V109.075V109.977V110.88V111.783L0.3003 111.933H0.900901L1.35135 112.234L1.8018 112.384L2.4024 112.535L2.85285 112.685L3.3033 112.836L3.9039 112.986V112.384V111.632V111.03V110.429V109.827V109.375V108.774V108.172V107.57V106.968V106.366V105.765V105.313V104.711V104.11V103.508Z" fill="#D7C600"/>
<path d="M27.4766 103.508L31.3805 104.561V111.783L27.4766 112.986V103.508Z" fill="#D7C600"/>
<path d="M27.4766 72.2188L31.3805 73.4223V80.4935L27.4766 81.6971V72.2188Z" fill="#D7C600"/>
<path d="M3.9039 72.3672L3.3033 72.5176H2.85285L2.4024 72.6681L1.8018 72.8185L1.35135 72.969H0.900901L0.3003 73.1194L0 73.2699V74.1726V75.0753V75.978V76.8807V77.7834V78.6861V79.5889V80.4916L0.3003 80.642L0.900901 80.7925L1.35135 80.9429L1.8018 81.0934L2.4024 81.2438L2.85285 81.3943L3.3033 81.5447L3.9039 81.6952V81.0934V80.4916V79.8898V79.2879V78.6861V78.0843V77.4825V76.8807V76.4294V75.8276V75.2258V74.624V74.0222V73.5708V72.969V72.3672Z" fill="#D7C600"/>
<path d="M27.4766 136.914L31.3805 137.516V141.729L27.4766 142.33V136.914Z" fill="#EEDB00"/>
<path d="M3.9039 136.914L0 137.516V141.729L3.9039 142.33V136.914Z" fill="#EEDB00"/>
<path d="M3.9039 105.617L0 106.219V110.582L3.9039 111.184V105.617Z" fill="#EEDB00"/>
<path d="M27.4766 105.617L31.3805 106.219V110.582L27.4766 111.184V105.617Z" fill="#EEDB00"/>
<path d="M27.4766 74.1719L31.3805 74.7737V78.9863L27.4766 79.5881V74.1719Z" fill="#EEDB00"/>
<path d="M3.9039 74.1719L0 74.7737V78.9863L3.9039 79.5881V74.1719Z" fill="#EEDB00"/>
<path d="M27.3277 78.6875H3.9043V137.815H27.3277V78.6875Z" fill="#DBC900"/>
<path d="M27.3277 91.0234H3.9043V125.627H27.3277V91.0234Z" fill="#E0CF00"/>
<path d="M27.4779 103.211H3.9043V113.592H27.4779V103.211Z" fill="#EEDB00"/>
<path d="M27.4766 133L31.3805 134.505V144.735L27.4766 146.24V133Z" stroke="#F0E210" stroke-width="0.300601"/>
<path d="M3.9039 101.703L0 103.208V113.589L3.9039 115.093V101.703Z" stroke="#F0E210" stroke-width="0.300601"/>
<path d="M27.4766 70.2578L31.3805 72.0632V81.993L27.4766 83.4975V70.2578Z" stroke="#F0E210" stroke-width="0.300601"/>
<path d="M3.9039 70.2578L0 72.0632V81.993L3.9039 83.4975V70.2578Z" stroke="#F0E210" stroke-width="0.300601"/>
<path d="M27.1768 66.3516H15.6152V150.003H27.1768V66.3516Z" stroke="#F0E210" stroke-width="0.300601"/>
<path d="M15.616 66.3516H3.9043V150.003H15.616V66.3516Z" stroke="#F0E210" stroke-width="0.300601"/>
</g>
</g>
<defs>
<clipPath id="clip0_2914_169640">
<rect width="150" height="150" fill="white"/>
</clipPath>
</defs>
</svg>
