<svg width="150" height="150" viewBox="0 0 150 150" fill="none" xmlns="http://www.w3.org/2000/svg">
<g clip-path="url(#clip0_2475_159793)">
<path d="M60.3125 123.297L132.767 67.7969L142.166 74.9969L69.712 130.497L60.3125 123.297Z" fill="#7F7F7F"/>
<path d="M61.0957 123.898L133.55 68.3984L141.383 74.3984L68.9286 129.898L61.0957 123.898Z" fill="#B2B2B2"/>
<path d="M62.2715 124.797L134.726 69.2969L140.209 73.4969L67.7545 128.997L62.2715 124.797Z" fill="#E5E5E5"/>
<path d="M64.2305 126.297L136.685 70.7969L138.251 71.9969L65.797 127.497L64.2305 126.297Z" fill="white"/>
<path d="M69.7129 130.5L142.167 75" stroke="black" stroke-width="0.685546"/>
<path d="M132.767 67.7969L60.3125 123.297" stroke="black" stroke-width="0.685546"/>
<path d="M53.6562 127.8V19.5H67.3638V127.8H53.6562Z" fill="#7F7F7F"/>
<path d="M55.2227 127.8V19.5H66.1887V127.8H55.2227Z" fill="#B2B2B2"/>
<path d="M56.7891 127.8V19.5H64.2303V127.8H56.7891Z" fill="#E5E5E5"/>
<path d="M59.1387 127.8V19.5H61.8802V127.8H59.1387Z" fill="white"/>
<path d="M67.3633 127.8V19.5" stroke="black" stroke-width="0.685546"/>
<path d="M53.6562 19.5V127.8" stroke="black" stroke-width="0.685546"/>
<path d="M80.6797 10.5V0H53.6562L67.3638 10.5H80.6797Z" fill="#7F7F7F"/>
<path d="M66.9722 21H53.6562V0L66.9722 10.5V21Z" fill="#7F7F7F"/>
<path d="M54.8301 20.9984H65.7961V9.59844L54.8301 0.898438V20.9984Z" fill="#B2B2B2"/>
<path d="M80.6786 0.898438V9.59844H66.1878L54.8301 0.898438H80.6786Z" fill="#B2B2B2"/>
<path d="M56.7891 20.9984H64.2303V8.09844L56.7891 2.39844V20.9984Z" fill="#E5E5E5"/>
<path d="M80.6794 2.39844V8.09844H64.2303L56.7891 2.39844H80.6794Z" fill="#E5E5E5"/>
<path d="M80.6791 4.5V6.3H61.8802L59.1387 4.5H80.6791Z" fill="white"/>
<path d="M59.1387 21.0031H61.4885V6.30312L59.1387 4.20312V21.0031Z" fill="white"/>
<path d="M53.6562 21V0" stroke="black" stroke-width="0.685546"/>
<path d="M66.9707 10.5V21" stroke="black" stroke-width="0.685546"/>
<path d="M80.6797 0H53.6562" stroke="black" stroke-width="0.685546"/>
<path d="M67.3633 10.5H80.6792" stroke="black" stroke-width="0.685546"/>
<path d="M136.293 21H149.609V0L136.293 10.5V21Z" fill="#7F7F7F"/>
<path d="M122.584 10.5V0H149.999L136.292 10.5H122.584Z" fill="#7F7F7F"/>
<path d="M122.584 0.898438V9.59844H137.466L148.433 0.898438H122.584Z" fill="#B2B2B2"/>
<path d="M148.433 21.0031H137.467V9.60312L148.433 1.20312V21.0031Z" fill="#B2B2B2"/>
<path d="M122.584 2.39844V8.09844H139.425L146.866 2.39844H122.584Z" fill="#E5E5E5"/>
<path d="M146.475 20.9984H139.426V8.09844L146.475 2.39844V20.9984Z" fill="#E5E5E5"/>
<path d="M144.125 21H141.775V6.3L144.125 4.5V21Z" fill="white"/>
<path d="M122.584 4.20312V6.30312H141.775L144.124 4.20312H122.584Z" fill="white"/>
<path d="M122.584 0H149.999" stroke="black" stroke-width="0.685546"/>
<path d="M136.292 10.5H122.584" stroke="black" stroke-width="0.685546"/>
<path d="M150 21V0" stroke="black" stroke-width="0.685546"/>
<path d="M136.293 10.5V21" stroke="black" stroke-width="0.685546"/>
<path d="M136.293 64.7969L145.692 71.9969L147.651 70.4969L148.826 68.6969L149.609 66.8969L150.001 64.7969H136.293Z" fill="#7F7F7F"/>
<path d="M136.293 64.7969L144.909 71.3969L146.476 69.8969L147.651 68.3969L148.042 66.5969L148.434 64.7969H136.293Z" fill="#B2B2B2"/>
<path d="M136.293 64.7969L143.734 70.4969L144.909 69.2969L146.084 67.7969L146.476 66.2969L146.867 64.7969H136.293Z" fill="#E5E5E5"/>
<path d="M136.293 64.7969L141.776 68.9969L142.951 68.0969L143.734 67.1969L144.126 65.9969V64.7969H136.293Z" fill="white"/>
<path d="M136.293 64.7969L140.209 67.7969L140.601 67.1969L141.384 66.2969L141.776 65.6969V64.7969H136.293Z" fill="#E5E5E5"/>
<path d="M136.293 64.7969L138.251 66.2969L138.643 65.9969L139.034 65.6969L139.426 65.0969V64.7969H136.293Z" fill="#B2B2B2"/>
<path d="M136.293 64.7969L137.076 65.3969H137.468V65.0969V64.7969H136.293Z" fill="#7F7F7F" stroke="#7F7F7F" stroke-width="0.685546"/>
<path d="M145.691 71.9969L147.65 70.4969L148.825 68.6969L149.608 66.8969L150 64.7969" stroke="black" stroke-width="0.685546"/>
<path d="M136.293 59.3984V64.7984H150.001V59.3984H136.293Z" fill="#7F7F7F"/>
<path d="M137.467 59.3984V64.7984H148.824V59.3984H137.467Z" fill="#B2B2B2"/>
<path d="M139.426 59.3984V64.7984H146.867V59.3984H139.426Z" fill="#E5E5E5"/>
<path d="M141.775 59.3984V64.7984H144.125V59.3984H141.775Z" fill="white"/>
<path d="M150 59.3984V64.7984" stroke="black" stroke-width="0.685546"/>
<path d="M136.293 64.7984V59.3984" stroke="black" stroke-width="0.685546"/>
<path d="M136.292 64.7969L131.592 68.3969L140.991 75.8969L145.691 71.9969L136.292 64.7969Z" fill="#7F7F7F"/>
<path d="M137.075 65.3984L132.375 68.9984L140.208 75.2984L144.908 71.3984L137.075 65.3984Z" fill="#B2B2B2"/>
<path d="M138.251 66.6016L133.551 70.2016L139.034 74.1016L143.734 70.5016L138.251 66.6016Z" fill="#E5E5E5"/>
<path d="M140.21 67.7969L135.51 71.3969L137.076 72.8969L141.776 69.2969L140.21 67.7969Z" fill="white"/>
<path d="M145.692 72L140.992 75.9" stroke="black" stroke-width="0.685546"/>
<path d="M131.592 68.3969L136.292 64.7969" stroke="black" stroke-width="0.685546"/>
<path d="M136.293 60.9V21H150.001V60.9H136.293Z" fill="#7F7F7F"/>
<path d="M137.467 60.9V21H148.433V60.9H137.467Z" fill="#B2B2B2"/>
<path d="M139.426 60.9V21H146.867V60.9H139.426Z" fill="#E5E5E5"/>
<path d="M141.775 60.9V21H144.125V60.9H141.775Z" fill="white"/>
<path d="M150 60.9V21" stroke="black" stroke-width="0.685546"/>
<path d="M136.293 21V60.9" stroke="black" stroke-width="0.685546"/>
<path d="M123.76 10.5H79.5039V0H123.76V10.5Z" fill="#7F7F7F"/>
<path d="M123.76 9.29844H79.5039V0.898438H123.76V9.29844Z" fill="#B2B2B2"/>
<path d="M123.76 8.09844H79.5039V2.39844H123.76V8.09844Z" fill="#E5E5E5"/>
<path d="M123.76 6.30312H79.5039V4.20312H123.76V6.30312Z" fill="white"/>
<path d="M123.76 0H79.5039" stroke="black" stroke-width="0.685546"/>
<path d="M79.5039 10.5H123.76" stroke="black" stroke-width="0.685546"/>
<path d="M61.0962 51.6016H12.1406L13.3156 44.1016L16.0571 36.9016L20.3652 30.6016L26.6315 25.2016L33.6811 20.4016L41.9056 17.1016L51.3051 15.0016L61.0962 14.1016L70.8874 15.0016L80.2868 17.1016L88.5114 20.4016L95.561 25.2016L101.827 30.6016L106.135 36.9016L108.877 44.1016L110.052 51.6016H61.0962Z" fill="#7F7F7F"/>
<path d="M61.0957 51.6016H16.8398L17.6231 44.1016L20.3646 36.9016L24.2811 30.6016L29.7641 25.2016L36.4221 20.4016L43.8633 17.1016L52.0879 15.0016L61.0957 14.1016L70.1035 15.0016L78.3281 17.1016L85.7693 20.4016L92.4273 25.2016L97.9103 30.6016L101.827 36.9016L104.568 44.1016L105.352 51.6016H61.0957Z" fill="#999999"/>
<path d="M61.0957 51.6016H25.8477L26.6309 44.1016L28.5892 36.9016L32.114 30.6016L36.4221 25.2016L41.5135 20.4016L47.3881 17.1016L54.0461 15.0016L61.0957 14.1016L68.1453 15.0016L74.8033 17.1016L80.6779 20.4016L86.161 25.2016L90.4691 30.6016L93.6022 36.9016L95.5605 44.1016L96.3437 51.6016H61.0957Z" fill="#B2B2B2"/>
<path d="M61.0966 51.6016H35.248L35.6397 44.1016L37.2063 36.9016L39.5561 30.6016L43.0809 25.2016L46.6057 20.4016L51.3055 17.1016L56.0052 15.0016L61.0966 14.1016L66.5796 15.0016L71.2794 17.1016L75.5875 20.4016L79.5039 25.2016L83.0287 30.6016L85.3786 36.9016L86.9452 44.1016L87.3368 51.6016H61.0966Z" fill="#CCCCCC"/>
<path d="M61.0966 51.6016H44.2559L44.6475 44.1016L45.4308 36.9016L47.389 30.6016L49.3472 25.2016L51.6971 20.4016L54.8303 17.1016L57.9634 15.0016L61.0966 14.1016L64.6214 15.0016L67.7546 17.1016L70.4961 20.4016L73.2376 25.2016L75.1958 30.6016L76.7624 36.9016L77.5457 44.1016L77.9373 51.6016H61.0966Z" fill="#E5E5E5"/>
<path d="M61.0962 51.6016H12.1406L13.3156 44.1016L16.0571 36.9016L20.3652 30.6016L26.6315 25.2016L33.6811 20.4016L41.9056 17.1016L51.3051 15.0016L61.0962 14.1016L70.8874 15.0016L80.2868 17.1016L88.5114 20.4016L95.561 25.2016L101.827 30.6016L106.135 36.9016L108.877 44.1016L110.052 51.6016H61.0962Z" stroke="black" stroke-width="0.685546"/>
<path d="M61.0962 51.6016H56.3965V44.1016L56.7881 36.9016L57.1798 30.6016L57.9631 25.2016L58.7464 20.4016L59.5296 17.1016L60.3129 15.0016L61.0962 14.1016L62.2712 15.0016L63.0544 17.1016L63.8377 20.4016L64.621 25.2016L65.0127 30.6016L65.4043 36.9016L65.796 44.1016V51.6016H61.0962Z" fill="white"/>
<path d="M0 149.998V104.398L120.627 149.998V104.398L0 149.998Z" fill="#7F7F7F"/>
<path d="M0 147.6V106.5L120.627 147.6V106.5L0 147.6Z" fill="#999999"/>
<path d="M0 142.797V111.297L120.627 142.797V111.297L0 142.797Z" fill="#B2B2B2"/>
<path d="M0 138.302V116.102L120.627 138.302V116.102L0 138.302Z" fill="#CCCCCC"/>
<path d="M0 134.698V119.398L120.627 134.698V119.398L0 134.698Z" fill="#E5E5E5"/>
<path d="M0 129.903V124.203L120.627 129.903V124.203L0 129.903Z" fill="white"/>
<path d="M0 149.998V104.398L120.627 149.998V104.398L0 149.998Z" stroke="black" stroke-width="0.685546"/>
</g>
<defs>
<clipPath id="clip0_2475_159793">
<rect width="150" height="150" fill="white"/>
</clipPath>
</defs>
</svg>
