<svg width="150" height="150" viewBox="0 0 150 150" fill="none" xmlns="http://www.w3.org/2000/svg">
<g clip-path="url(#clip0_2109_186997)">
<path d="M75.0001 98.3984C112.173 98.3984 142.308 79.5944 142.308 56.3984C142.308 33.2025 112.173 14.3984 75.0001 14.3984C37.8271 14.3984 7.69238 33.2025 7.69238 56.3984C7.69238 79.5944 37.8271 98.3984 75.0001 98.3984Z" fill="#00FFFF"/>
<path d="M75 14.4V0" stroke="black" stroke-width="1.51911"/>
<path d="M75.0001 98.3984C112.173 98.3984 142.308 79.5944 142.308 56.3984C142.308 33.2025 112.173 14.3984 75.0001 14.3984C37.8271 14.3984 7.69238 33.2025 7.69238 56.3984C7.69238 79.5944 37.8271 98.3984 75.0001 98.3984Z" stroke="black" stroke-width="1.51911"/>
<path d="M0 56.3984H150V149.998H0V56.3984Z" fill="#00FFFF" stroke="black" stroke-width="1.51911"/>
</g>
<defs>
<clipPath id="clip0_2109_186997">
<rect width="150" height="150" fill="white"/>
</clipPath>
</defs>
</svg>
