<svg width="150" height="150" viewBox="0 0 150 150" fill="none" xmlns="http://www.w3.org/2000/svg">
<g clip-path="url(#clip0_2109_187161)">
<path d="M98.5463 86.4016C107.698 86.4016 115.116 81.2976 115.116 75.0016C115.116 68.7055 107.698 63.6016 98.5463 63.6016C89.3951 63.6016 81.9766 68.7055 81.9766 75.0016C81.9766 81.2976 89.3951 86.4016 98.5463 86.4016Z" fill="#00FFFF" stroke="black" stroke-width="1.44673"/>
<path d="M132.558 86.4016C141.709 86.4016 149.128 81.2976 149.128 75.0016C149.128 68.7055 141.709 63.6016 132.558 63.6016C123.407 63.6016 115.988 68.7055 115.988 75.0016C115.988 81.2976 123.407 86.4016 132.558 86.4016Z" fill="#00FFFF"/>
<path d="M81.9763 75H54.0693" stroke="black" stroke-width="1.44673"/>
<path d="M132.558 86.4016C141.709 86.4016 149.128 81.2976 149.128 75.0016C149.128 68.7055 141.709 63.6016 132.558 63.6016C123.407 63.6016 115.988 68.7055 115.988 75.0016C115.988 81.2976 123.407 86.4016 132.558 86.4016Z" stroke="black" stroke-width="1.44673"/>
<path d="M0 150L54.0698 75L109.012 150H0Z" fill="#00FFFF" stroke="black" stroke-width="1.44673"/>
<path d="M0 0L54.0698 75L109.012 0H0Z" fill="#00FFFF" stroke="black" stroke-width="1.44673"/>
</g>
<defs>
<clipPath id="clip0_2109_187161">
<rect width="150" height="150" fill="white"/>
</clipPath>
</defs>
</svg>
