<svg width="150" height="150" viewBox="0 0 150 150" fill="none" xmlns="http://www.w3.org/2000/svg">
<g clip-path="url(#clip0_2109_187035)">
<path d="M74.658 112.8C110.216 112.8 139.042 87.5489 139.042 56.4C139.042 25.2511 110.216 0 74.658 0C39.0999 0 10.2744 25.2511 10.2744 56.4C10.2744 87.5489 39.0999 112.8 74.658 112.8Z" fill="#00FFFF"/>
<path d="M74.6572 112.801V150.001" stroke="black" stroke-width="1.28212"/>
<path d="M74.658 112.8C110.216 112.8 139.042 87.5489 139.042 56.4C139.042 25.2511 110.216 0 74.658 0C39.0999 0 10.2744 25.2511 10.2744 56.4C10.2744 87.5489 39.0999 112.8 74.658 112.8Z" stroke="black" stroke-width="1.28212"/>
<path d="M74.6575 61.2016C115.89 61.2016 149.315 59.0525 149.315 56.4016C149.315 53.7506 115.89 51.6016 74.6575 51.6016C33.4253 51.6016 0 53.7506 0 56.4016C0 59.0525 33.4253 61.2016 74.6575 61.2016Z" fill="#00FFFF" stroke="black" stroke-width="1.28212"/>
</g>
<defs>
<clipPath id="clip0_2109_187035">
<rect width="150" height="150" fill="white"/>
</clipPath>
</defs>
</svg>
