<svg width="150" height="150" viewBox="0 0 150 150" fill="none" xmlns="http://www.w3.org/2000/svg">
<g clip-path="url(#clip0_2109_187339)">
<path d="M59.6152 75H134.615V94.2" stroke="black" stroke-width="1.51911"/>
<path d="M0 150L59.6154 75L120.192 150H0Z" fill="#00FFFF" stroke="black" stroke-width="1.51911"/>
<path d="M0 0L59.6154 75L120.192 0H0Z" fill="#00FFFF" stroke="black" stroke-width="1.51911"/>
<path d="M59.6155 79.2008C63.3328 79.2008 66.3463 77.3204 66.3463 75.0008C66.3463 72.6812 63.3328 70.8008 59.6155 70.8008C55.8982 70.8008 52.8848 72.6812 52.8848 75.0008C52.8848 77.3204 55.8982 79.2008 59.6155 79.2008Z" fill="black" stroke="black" stroke-width="1.51911"/>
<path d="M134.615 112.199C142.581 112.199 149.039 108.17 149.039 103.199C149.039 98.2287 142.581 94.1992 134.615 94.1992C126.65 94.1992 120.192 98.2287 120.192 103.199C120.192 108.17 126.65 112.199 134.615 112.199Z" fill="black" stroke="black" stroke-width="1.51911"/>
</g>
<defs>
<clipPath id="clip0_2109_187339">
<rect width="150" height="150" fill="white"/>
</clipPath>
</defs>
</svg>
