<svg width="150" height="150" viewBox="0 0 150 150" fill="none" xmlns="http://www.w3.org/2000/svg">
<g clip-path="url(#clip0_2109_187069)">
<path d="M75 150C116.421 150 150 116.421 150 75C150 33.5786 116.421 0 75 0C33.5786 0 0 33.5786 0 75C0 116.421 33.5786 150 75 150Z" fill="#00FFFF" stroke="black" stroke-width="1.2"/>
<path d="M74.9996 75L21.5996 22.2L26.9996 17.4L32.9996 13.2L39.5996 9L46.1996 6L52.7996 3.6L59.9996 1.8L67.7996 0.6L74.9996 0L89.9996 1.8L104.4 6L117 13.2L127.8 22.2L137.4 33.6L144 46.2L148.2 60L150 75L149.4 82.2L148.2 90L146.4 97.2L144 103.8L141 110.4L136.8 117L132.6 123L127.8 128.4L74.9996 75Z" fill="black" stroke="black" stroke-width="1.2"/>
</g>
<defs>
<clipPath id="clip0_2109_187069">
<rect width="150" height="150" fill="white"/>
</clipPath>
</defs>
</svg>
