<svg width="150" height="150" viewBox="0 0 150 150" fill="none" xmlns="http://www.w3.org/2000/svg">
<g clip-path="url(#clip0_2109_187259)">
<path d="M133.005 88.7992C142.391 88.7992 150 82.6207 150 74.9992C150 67.3777 142.391 61.1992 133.005 61.1992C123.619 61.1992 116.01 67.3777 116.01 74.9992C116.01 82.6207 123.619 88.7992 133.005 88.7992Z" fill="#00FFFF" stroke="black" stroke-width="1.33169"/>
<path d="M45.8125 0L92.3642 75L138.177 0H45.8125Z" fill="#00FFFF" stroke="black" stroke-width="1.33169"/>
<path d="M45.8125 150L92.3642 75L138.177 150H45.8125Z" fill="#00FFFF" stroke="black" stroke-width="1.33169"/>
<path d="M0 37.8008L92.3645 75.0008L0 112.801V37.8008Z" fill="#00FFFF" stroke="black" stroke-width="1.33169"/>
<path d="M92.3643 75H116.01" stroke="black" stroke-width="1.33169"/>
<path d="M121.183 82.2L124.138 66L133.005 82.2L141.872 66L144.828 82.2" stroke="black" stroke-width="1.33169"/>
</g>
<defs>
<clipPath id="clip0_2109_187259">
<rect width="150" height="150" fill="white"/>
</clipPath>
</defs>
</svg>
