<svg width="150" height="150" viewBox="0 0 150 150" fill="none" xmlns="http://www.w3.org/2000/svg">
<g clip-path="url(#clip0_2109_161873)">
<path d="M0 0H150V150H0V0Z" fill="#00FFFF" stroke="black" stroke-width="0.3003"/>
<path d="M74.9248 137.388V12.4629" stroke="black" stroke-width="0.3003"/>
<path d="M9.91016 37.3878L13.8141 33.3338L18.4687 29.4299L21.9222 27.0275L25.3756 24.9254L29.2795 22.8233L33.1834 20.8713L37.3876 19.2196L41.742 17.7181L46.0963 16.3668L50.6008 15.1656L55.4057 14.1145L60.2105 13.3638L65.0153 12.9133L69.9702 12.4629H72.3726H74.9252H77.4777L82.4327 12.613L87.2375 13.0635L92.0423 13.8142L96.8471 14.565L101.502 15.7662L106.006 16.9674L110.361 18.4689L114.565 19.9704L118.619 21.7722L122.523 23.8743L126.277 25.9764L129.73 28.2287L134.535 31.9824L138.739 36.0365L139.94 37.3878" stroke="black" stroke-width="0.3003"/>
</g>
<defs>
<clipPath id="clip0_2109_161873">
<rect width="150" height="150" fill="white"/>
</clipPath>
</defs>
</svg>
