<svg width="150" height="150" viewBox="0 0 150 150" fill="none" xmlns="http://www.w3.org/2000/svg">
<g clip-path="url(#clip0_2109_161769)">
<path d="M0 0H150V150H0V0Z" fill="#00FFFF" stroke="black" stroke-width="0.3003"/>
<path d="M93.6934 116.215L94.7444 110.51L97.8976 105.404L103.003 93.6927L108.708 78.6777L114.414 93.6927L119.519 105.404L122.672 110.51L123.723 116.215L122.672 121.771L119.519 126.876L114.414 130.029L108.708 131.08L103.003 130.029L97.8976 126.876L94.7444 121.771L93.6934 116.215Z" stroke="black" stroke-width="0.3003"/>
<path d="M48.6484 116.215L49.8496 110.51L53.0028 105.404L58.1079 93.6927L63.6635 78.6777L69.3692 93.6927L74.4743 105.404L77.6274 110.51L78.6785 116.215L77.6274 121.771L74.4743 126.876L69.3692 130.029L63.6635 131.08L58.1079 130.029L53.0028 126.876L49.8496 121.771L48.6484 116.215Z" stroke="black" stroke-width="0.3003"/>
<path d="M71.1709 56.1547L72.2219 50.449L75.5253 45.3439L80.6304 33.6322L86.1859 18.6172L91.8916 33.6322L96.9967 45.3439L100.15 50.449L101.201 56.1547L100.15 61.7103L96.9967 66.8154L91.8916 70.1187L86.1859 71.1697L80.6304 70.1187L75.5253 66.8154L72.2219 61.7103L71.1709 56.1547Z" stroke="black" stroke-width="0.3003"/>
<path d="M26.2764 56.1547L27.3274 50.449L30.4806 45.3439L35.5857 33.6322L41.1412 18.6172L46.8469 33.6322L51.952 45.3439L55.1052 50.449L56.1562 56.1547L55.1052 61.7103L51.952 66.8154L46.8469 70.1187L41.1412 71.1697L35.5857 70.1187L30.4806 66.8154L27.3274 61.7103L26.2764 56.1547Z" stroke="black" stroke-width="0.3003"/>
</g>
<defs>
<clipPath id="clip0_2109_161769">
<rect width="150" height="150" fill="white"/>
</clipPath>
</defs>
</svg>
