<svg width="150" height="150" viewBox="0 0 150 150" fill="none" xmlns="http://www.w3.org/2000/svg">
<g clip-path="url(#clip0_2109_161787)">
<path d="M0 0H150V150H0V0Z" fill="#00FFFF" stroke="black" stroke-width="0.3003"/>
<path d="M26.2764 56.1547L27.3274 50.449L30.4806 45.4941L35.5857 33.6322L41.2914 18.6172L46.8469 33.6322L51.952 45.4941L55.1052 50.449L56.1562 56.1547L55.1052 61.8604L51.952 66.9655L46.8469 69.9685L41.2914 71.1697L35.5857 69.9685L30.4806 66.9655L27.3274 61.8604L26.2764 56.1547Z" stroke="black" stroke-width="0.3003"/>
<path d="M48.7988 116.065L49.8499 110.51L52.8529 105.404L57.958 93.6927L63.6637 78.6777L69.3694 93.6927L74.4745 105.404L77.6277 110.51L78.6787 116.065L77.6277 121.771L74.4745 126.876L69.3694 130.029L63.6637 131.08L57.958 130.029L52.8529 126.876L49.8499 121.771L48.7988 116.065Z" stroke="black" stroke-width="0.3003"/>
<path d="M120.27 143.694C128.894 143.694 135.886 136.703 135.886 128.079C135.886 119.454 128.894 112.463 120.27 112.463C111.646 112.463 104.654 119.454 104.654 128.079C104.654 136.703 111.646 143.694 120.27 143.694Z" stroke="black" stroke-width="0.3003"/>
<path d="M119.97 112.461V7.65625" stroke="black" stroke-width="0.3003"/>
</g>
<defs>
<clipPath id="clip0_2109_161787">
<rect width="150" height="150" fill="white"/>
</clipPath>
</defs>
</svg>
