<svg width="150" height="150" viewBox="0 0 150 150" fill="none" xmlns="http://www.w3.org/2000/svg">
<g clip-path="url(#clip0_2109_162269)">
<path d="M131.231 47.7049L132.733 52.459L134.234 57.541L135.736 62.9508L136.787 68.1967L137.387 73.2787V78.8525L136.637 86.3934L135.285 93.7705L133.183 100.82L130.631 107.541L127.477 113.77L123.724 119.836L119.52 125.41L114.865 130.492L109.76 135.082L104.204 139.18L98.4985 142.623L92.3423 145.41L85.8859 147.705L79.1291 149.18L72.2222 150H68.6186H65.1652L58.2583 149.18L51.5015 147.705L45.045 145.41L38.8889 142.623L33.033 139.18L27.6276 135.082L22.5225 130.492L17.8679 125.41L13.6637 119.836L9.90991 113.77L6.75676 107.541L4.05405 100.82L2.1021 93.7705L0.750751 86.3934L0 78.8525V74.918V71.1475L0.750751 63.6066L2.1021 56.2295L4.05405 49.1803L6.75676 42.459L9.90991 36.0656L13.6637 30.1639L17.8679 24.5902L22.5225 19.5082L27.6276 14.918L33.033 10.8197L38.8889 7.37705L45.045 4.42623L51.5015 2.29508L58.2583 0.819672L65.1652 0H68.6186H150V47.7049H131.231Z" fill="#00FFFF" stroke="black" stroke-width="0.313782"/>
</g>
<defs>
<clipPath id="clip0_2109_162269">
<rect width="150" height="150" fill="white"/>
</clipPath>
</defs>
</svg>
