<svg width="150" height="150" viewBox="0 0 150 150" fill="none" xmlns="http://www.w3.org/2000/svg">
<g clip-path="url(#clip0_2109_162097)">
<path d="M0 0H150V150H0V0Z" fill="#00FFFF" stroke="black" stroke-width="0.3003"/>
<path d="M24.9248 74.9258H124.925" stroke="black" stroke-width="0.3003"/>
<path d="M74.9245 62.4622C78.4073 62.4622 81.2308 59.6388 81.2308 56.1559C81.2308 52.673 78.4073 49.8496 74.9245 49.8496C71.4416 49.8496 68.6182 52.673 68.6182 56.1559C68.6182 59.6388 71.4416 62.4622 74.9245 62.4622Z" stroke="black" stroke-width="0.3003"/>
<path d="M74.9254 99.9993C78.4083 99.9993 81.2318 97.1759 81.2318 93.693C81.2318 90.2101 78.4083 87.3867 74.9254 87.3867C71.4426 87.3867 68.6191 90.2101 68.6191 93.693C68.6191 97.1759 71.4426 99.9993 74.9254 99.9993Z" stroke="black" stroke-width="0.3003"/>
</g>
<defs>
<clipPath id="clip0_2109_162097">
<rect width="150" height="150" fill="white"/>
</clipPath>
</defs>
</svg>
