<svg width="150" height="150" viewBox="0 0 150 150" fill="none" xmlns="http://www.w3.org/2000/svg">
<g clip-path="url(#clip0_2109_161708)">
<path d="M128.689 74.9242L119.181 61.7109L128.689 63.5127L138.033 61.7109L128.689 74.9242Z" fill="#00FFFF" stroke="black" stroke-width="0.313782"/>
<path d="M20.3281 0H102.131V74.9249H20.3281V0Z" fill="#00FFFF" stroke="black" stroke-width="0.313782"/>
<path d="M128.688 63.5136V6.15625" stroke="black" stroke-width="0.313782"/>
<path d="M109.017 74.9258H150" stroke="black" stroke-width="0.313782"/>
<path d="M0 18.6187V6.15625" stroke="black" stroke-width="0.313782"/>
<path d="M0 12.4629H17.0492" stroke="black" stroke-width="0.313782"/>
<path d="M61.1475 137.387L63.7704 137.987L66.0655 139.189L67.377 141.291L68.0327 143.693L67.377 146.095L66.0655 148.198L63.7704 149.399L61.1475 149.999" stroke="black" stroke-width="0.313782"/>
<path d="M61.1471 112.462L58.5241 111.862L56.2291 110.66L54.9176 108.558L54.4258 106.156L54.9176 103.754L56.2291 101.651L58.5241 100.45L61.1471 99.8496" stroke="black" stroke-width="0.313782"/>
<path d="M61.1475 112.463L63.7704 112.763L66.0655 114.265L67.377 116.367L68.0327 118.769L67.377 121.172L66.0655 123.274L63.7704 124.475L61.1475 125.076" stroke="black" stroke-width="0.313782"/>
<path d="M61.1475 87.5371L63.7704 87.8374L66.0655 89.3389L67.377 91.441L68.0327 93.5431L67.377 95.9455L66.0655 98.0476L63.7704 99.5491L61.1475 99.8494" stroke="black" stroke-width="0.313782"/>
<path d="M61.1471 137.387L58.5241 137.086L56.2291 135.585L54.9176 133.483L54.4258 131.08L54.9176 128.978L56.2291 126.876L58.5241 125.375L61.1471 125.074" stroke="black" stroke-width="0.313782"/>
<path d="M61.148 70.871C65.5844 70.871 69.1808 67.577 69.1808 63.5136C69.1808 59.4503 65.5844 56.1562 61.148 56.1562C56.7116 56.1562 53.1152 59.4503 53.1152 63.5136C53.1152 67.577 56.7116 70.871 61.148 70.871Z" stroke="black" stroke-width="0.313782"/>
<path d="M61.1475 56.0062V3.75391" stroke="black" stroke-width="0.313782"/>
<path d="M61.1471 87.5384L58.5241 86.9378L56.2291 85.7366L54.9176 83.6345L54.4258 81.2321L54.9176 78.8297L56.2291 76.7276L58.5241 75.2261L61.1471 74.9258" stroke="black" stroke-width="0.313782"/>
</g>
<defs>
<clipPath id="clip0_2109_161708">
<rect width="150" height="150" fill="white"/>
</clipPath>
</defs>
</svg>
