<svg width="150" height="150" viewBox="0 0 150 150" fill="none" xmlns="http://www.w3.org/2000/svg">
<g clip-path="url(#clip0_2109_161752)">
<path d="M143.693 0L146.096 0.400534L148.198 2.20294L149.549 5.00668L150 8.21095L149.549 11.4152L148.198 14.219L146.096 16.0214L143.693 16.6222H99.9997L97.5973 16.0214L95.4952 14.219L94.1438 11.4152L93.6934 8.21095L94.1438 5.00668L95.4952 2.20294L97.5973 0.400534L99.9997 0H143.693Z" fill="#00FFFF" stroke="black" stroke-width="0.346815"/>
<path d="M0 49.8672H74.9249V150.001H0V49.8672Z" fill="#00FFFF" stroke="black" stroke-width="0.346815"/>
<path d="M37.3877 49.8665L37.5378 24.8331L38.4387 18.6248L40.9913 13.0173L45.3457 9.41254L50.0003 8.21094H93.694" stroke="black" stroke-width="0.346815"/>
<path d="M37.3877 124.967V54.873" stroke="black" stroke-width="0.346815"/>
<path d="M37.3874 144.792C41.5337 144.792 44.8949 140.309 44.8949 134.779C44.8949 129.249 41.5337 124.766 37.3874 124.766C33.2411 124.766 29.8799 129.249 29.8799 134.779C29.8799 140.309 33.2411 144.792 37.3874 144.792Z" stroke="black" stroke-width="0.346815"/>
</g>
<defs>
<clipPath id="clip0_2109_161752">
<rect width="150" height="150" fill="white"/>
</clipPath>
</defs>
</svg>
