<svg width="150" height="150" viewBox="0 0 150 150" fill="none" xmlns="http://www.w3.org/2000/svg">
<g clip-path="url(#clip0_2109_161777)">
<path d="M0 0H150V87.6877H0V0Z" fill="#00FFFF" stroke="black" stroke-width="0.392764"/>
<path d="M112.243 87.6875V150" stroke="black" stroke-width="0.392764"/>
<path d="M37.7568 87.6875V150" stroke="black" stroke-width="0.392764"/>
<path d="M93.75 68.0174L95.0342 64.7141L98.1164 61.7111L103.253 54.8042L108.904 45.9453L114.555 54.8042L119.435 61.7111L122.774 64.7141L123.801 68.0174L122.774 71.3207L119.435 74.3237L114.555 76.1255L108.904 76.7261L103.253 76.1255L98.1164 74.3237L95.0342 71.3207L93.75 68.0174Z" stroke="black" stroke-width="0.392764"/>
<path d="M48.8018 68.0174L49.8292 64.7141L52.9113 61.7111L58.0483 54.8042L63.699 45.9453L69.3497 54.8042L74.4867 61.7111L77.5689 64.7141L78.8531 68.0174L77.5689 71.3207L74.4867 74.3237L69.3497 76.1255L63.699 76.7261L58.0483 76.1255L52.9113 74.3237L49.8292 71.3207L48.8018 68.0174Z" stroke="black" stroke-width="0.392764"/>
<path d="M71.4043 32.8826L72.4317 29.5793L75.5139 26.5763L80.6509 19.6694L86.3016 10.8105L91.9522 19.6694L97.0892 26.5763L100.171 29.5793L101.199 32.8826L100.171 36.1859L97.0892 39.1889L91.9522 40.9907L86.3016 41.5913L80.6509 40.9907L75.5139 39.1889L72.4317 36.1859L71.4043 32.8826Z" stroke="black" stroke-width="0.392764"/>
<path d="M26.1982 32.8826L27.2256 29.5793L30.3078 26.5763L35.4448 19.6694L41.3524 10.8105L46.7462 19.6694L51.8832 26.5763L55.2222 29.5793L56.2496 32.8826L55.2222 36.1859L51.8832 39.1889L46.7462 40.9907L41.3524 41.5913L35.4448 40.9907L30.3078 39.1889L27.2256 36.1859L26.1982 32.8826Z" stroke="black" stroke-width="0.392764"/>
</g>
<defs>
<clipPath id="clip0_2109_161777">
<rect width="150" height="150" fill="white"/>
</clipPath>
</defs>
</svg>
