<svg width="150" height="150" viewBox="0 0 150 150" fill="none" xmlns="http://www.w3.org/2000/svg">
<g clip-path="url(#clip0_2109_162076)">
<path d="M16.667 150L22.8231 149.797L28.8292 149.595L34.8352 149.189L40.5409 148.581L46.2466 147.77L51.8021 146.757L57.2075 145.743L62.4628 144.527L67.5679 143.108L72.5228 141.486L77.4778 139.865L82.2826 138.041L86.7871 136.014L91.2916 133.986L95.646 131.757L100 129.324L104.054 126.689L107.958 124.054L111.862 121.419L115.616 118.378L119.069 115.338L122.523 112.297L125.826 109.054L132.132 102.162L137.838 94.8649L143.093 87.1622L147.748 79.0541L150 75L147.748 70.7432L143.093 62.6351L137.838 54.9324L132.132 47.6351L125.826 40.7432L122.523 37.5L119.069 34.4595L115.616 31.4189L111.862 28.3784L107.958 25.7432L104.054 23.1081L100 20.473L95.646 18.0405L91.2916 15.8108L86.7871 13.7838L82.2826 11.7568L77.4778 9.93243L72.5228 8.31081L67.5679 6.68919L62.4628 5.27027L57.2075 4.05405L51.8021 3.04054L46.2466 2.02703L40.5409 1.21622L34.8352 0.608108L28.8292 0.202703L22.8231 0H16.667L19.67 4.25676L22.5228 8.51351L25.0754 12.973L27.4778 17.4324L29.7301 21.8919L33.634 31.2162L36.7871 40.7432L39.1895 50.473L40.691 60.2027L41.4418 69.9324V79.8649L40.691 89.5946L39.1895 99.3243L36.7871 109.054L33.634 118.581L29.7301 127.905L27.4778 132.365L25.0754 136.824L22.5228 141.284L19.67 145.541L16.667 150Z" fill="#00FFFF" stroke="black" stroke-width="0.348917"/>
<path d="M0 150L3.003 145.541L5.85586 141.284L8.40841 136.824L10.8108 132.365L13.0631 127.905L16.967 118.581L20.1201 109.054L22.5225 99.3243L24.024 89.5946L24.7748 79.8649L24.9249 75L24.4745 65.0676L23.2733 55.3378L21.3213 45.6081L18.6186 36.0811L15.1652 26.5541L13.0631 21.8919L10.8108 17.4324L8.40841 12.973L5.85586 8.51351L3.003 4.25676L0 0" stroke="black" stroke-width="0.348917"/>
</g>
<defs>
<clipPath id="clip0_2109_162076">
<rect width="150" height="150" fill="white"/>
</clipPath>
</defs>
</svg>
