<svg width="150" height="150" viewBox="0 0 150 150" fill="none" xmlns="http://www.w3.org/2000/svg">
<g clip-path="url(#clip0_2109_163854)">
<path d="M86.715 134.058L140.58 78.2609L142.754 75.3623L144.444 71.9807L146.135 68.599L147.585 64.9758L148.551 61.3527L149.275 57.4879L149.758 53.8647L150 50L149.758 44.9275L149.034 39.8551L147.826 35.2657L146.135 30.6763L143.961 26.087L141.546 21.9807L138.647 18.1159L135.266 14.7343L131.884 11.3527L128.019 8.45411L123.913 6.03865L119.324 3.86473L114.734 2.17391L110.145 0.966184L105.072 0.241546L100 0L96.1353 0.241546L92.5121 0.483092L88.6473 1.20773L85.2657 2.17391L81.6425 3.62319L78.2609 5.07246L74.8792 7.00483L71.7391 8.9372L16.1836 63.285L12.5604 66.9082L9.42029 71.0145L6.52174 75.3623L4.34783 79.9517L2.41546 84.7826L1.20773 89.8551L0.241546 94.9275L0 100L0.241546 105.072L0.966184 110.145L2.17391 114.734L3.86473 119.324L6.03865 123.913L8.45411 128.019L11.3527 131.884L14.7343 135.266L18.1159 138.647L21.9807 141.546L26.087 143.961L30.6763 146.135L35.2657 147.826L39.8551 149.034L44.9275 149.758L50 150L55.0725 149.758L60.1449 149.034L65.2174 147.585L70.0483 145.894L74.6377 143.478L78.9855 140.821L83.0918 137.681L86.715 134.058Z" fill="#00FFFF" stroke="black" stroke-width="0.483092"/>
<path d="M16.1836 62.8019L19.8068 59.9034L23.6715 57.4879L27.5363 55.314L31.8841 53.3816L36.2319 51.9324L40.8213 50.9662L45.1691 50.2415L49.7585 50L54.8309 50.2415L59.9034 50.9662L64.7343 52.1739L69.3237 53.8647L73.6715 56.0386L77.7778 58.4541L81.6425 61.3527L85.2657 64.7343L88.6474 68.1159L91.5459 71.9807L93.9614 76.087L96.1353 80.6763L97.8261 85.2657L99.0338 89.8551L99.7585 94.9275L100 100L99.7585 104.589L99.0338 109.179L98.0676 113.768L96.3768 118.116L94.4445 122.222L92.2705 126.328L89.6135 130.193L86.715 133.816" stroke="black" stroke-width="0.483092"/>
</g>
<defs>
<clipPath id="clip0_2109_163854">
<rect width="150" height="150" fill="white"/>
</clipPath>
</defs>
</svg>
