<svg width="150" height="150" viewBox="0 0 150 150" fill="none" xmlns="http://www.w3.org/2000/svg">
<g clip-path="url(#clip0_2109_163680)">
<path d="M25 150H125L130.333 148L135.667 142L140.333 133L144.333 121L147.333 107L149.333 91L150 75L149.333 58L147.333 42L144.333 28L140.333 16L135.667 7L130.333 2L125 0H25L19.3333 2L14 7L9.33333 16L5.33333 28L2.33333 42L0.666667 58L0 75L0.666667 91L2.33333 107L5.33333 121L9.33333 133L14 142L19.3333 148L25 150Z" fill="#00FFFF" stroke="black" stroke-width="1.1547"/>
</g>
<defs>
<clipPath id="clip0_2109_163680">
<rect width="150" height="150" fill="white"/>
</clipPath>
</defs>
</svg>
