<svg width="150" height="150" viewBox="0 0 150 150" fill="none" xmlns="http://www.w3.org/2000/svg">
<g clip-path="url(#clip0_2109_163431)">
<path d="M148.048 146.239L145.946 142.177L143.694 137.663L141.291 132.849L138.739 127.733L136.036 122.166L133.333 116.6L130.33 110.732L127.327 104.714L124.324 98.5456L121.171 92.3771L118.018 86.0582L114.865 79.7392L111.712 73.4203L108.408 67.1013L105.405 60.9328L102.402 54.7643L99.3994 48.8967L96.5465 43.0291L93.6937 37.4624L91.1411 32.1966L88.5886 27.2317L86.1862 22.4173L84.0841 18.0542L81.982 14.1424L78.6787 7.52257L76.2763 2.70812L75.0751 0.300903L74.9249 0L74.7748 0.300903L72.3724 4.81444L69.5195 10.5316L67.8679 14.1424L65.7658 18.0542L63.6637 22.4173L61.2613 27.2317L58.7087 32.1966L56.1562 37.4624L53.3033 43.0291L50.4505 48.8967L47.4474 54.7643L44.4444 60.7823L41.2913 67.1013L38.1381 73.2698L34.985 79.7392L31.8318 86.0582L28.6787 92.3771L25.5255 98.5456L22.5225 104.714L19.5195 110.732L16.5165 116.6L13.6637 122.166L10.961 127.583L8.40841 132.849L6.00601 137.663L3.9039 142.177L1.8018 146.239L0 150L4.65465 146.69L9.30931 143.531L13.964 140.672L18.6186 137.813L23.2733 135.406L27.9279 133.149L32.5826 131.043L37.3874 129.238L42.042 127.583L46.6967 126.229L51.5015 124.875L56.1562 123.972L60.8108 123.22L65.4655 122.768L70.2703 122.317H74.9249H79.5796L84.3844 122.768L89.039 123.22L93.6937 123.972L98.3484 124.875L103.153 126.229L107.808 127.583L112.462 129.238L117.267 131.043L121.922 133.149L126.577 135.406L131.231 137.813L135.886 140.672L140.541 143.531L145.195 146.69L149.85 150L148.048 146.239Z" fill="#00FFFF" stroke="black" stroke-width="0.300601"/>
</g>
<defs>
<clipPath id="clip0_2109_163431">
<rect width="150" height="150" fill="white"/>
</clipPath>
</defs>
</svg>
