<svg width="150" height="150" viewBox="0 0 150 150" fill="none" xmlns="http://www.w3.org/2000/svg">
<g clip-path="url(#clip0_2109_163535)">
<path d="M55.7057 14.7267V4.25101L57.8078 0.759109L59.7598 0H60.3604H60.961H89.9399L93.3934 1.51822L94.4444 4.40283V14.7267H139.339L143.994 15.7895L147.297 18.8259L148.949 22.7733L149.7 27.6316L149.85 31.1235L150 32.4899V33.7045L149.85 38.7146L149.55 43.4211L149.249 48.2794L148.499 52.9858L147.297 57.6923L145.646 62.7024L143.694 67.8644L141.291 73.1781L138.438 78.4919L136.486 81.9838L134.535 85.6275L132.432 89.1194L130.18 92.6113L127.928 96.1032L125.526 99.5951L122.973 103.087L120.571 106.427L118.018 109.767L115.465 113.107L111.712 117.814L107.808 122.52L103.904 126.923L100 131.174L96.3964 135.121L92.7928 138.765L89.4895 142.105L86.3363 145.142L82.8829 147.723L78.979 149.393L76.2763 149.848L74.7748 150H74.3243L69.97 148.634L66.3664 146.812L63.0631 144.231L58.4084 139.98L55.2553 136.943L51.952 133.451L48.4985 129.656L44.8949 125.709L41.2913 121.306L37.3874 116.751L33.6336 111.893L30.03 107.034L26.4264 102.176L23.1231 97.166L19.8198 92.0041L16.6667 86.8421L13.8138 81.6802L10.961 76.3664L8.40841 71.2045L6.15616 66.1943L4.2042 61.336L2.7027 56.4777L1.5015 51.9231L0.600601 47.6721L0 43.4211V41.2955V39.3219V37.9555V33.0972L0.45045 27.7834L1.2012 23.0769L2.7027 18.6741L6.00601 15.6377L10.3604 14.7267H55.7057Z" fill="#00FFFF" stroke="black" stroke-width="0.301967"/>
</g>
<defs>
<clipPath id="clip0_2109_163535">
<rect width="150" height="150" fill="white"/>
</clipPath>
</defs>
</svg>
