<svg width="150" height="150" viewBox="0 0 150 150" fill="none" xmlns="http://www.w3.org/2000/svg">
<g clip-path="url(#clip0_2109_163505)">
<path d="M0 24.8534L4.65465 24.4135L9.00901 22.434L12.4625 17.8152L14.1141 11.6569L14.8649 4.83871V1.53959V0H134.985L135.135 7.69795L136.036 14.0762L138.138 19.3548L142.192 23.3138L146.997 24.6334L148.949 24.8534H149.85V124.927L145.195 125.367L140.841 127.346L137.387 131.965L135.736 138.123L134.985 144.941V148.24V150H14.8649L14.7147 142.082L13.8138 135.924L11.7117 130.425L7.65766 126.466L2.85285 125.147L0.900901 124.927H0V24.8534Z" fill="#00FFFF" stroke="black" stroke-width="0.363451"/>
</g>
<defs>
<clipPath id="clip0_2109_163505">
<rect width="150" height="150" fill="white"/>
</clipPath>
</defs>
</svg>
