<svg width="150" height="150" viewBox="0 0 150 150" fill="none" xmlns="http://www.w3.org/2000/svg">
<g clip-path="url(#clip0_2109_163513)">
<path d="M0.600601 145.381L1.8018 135.924L2.85285 126.466L3.75375 117.229L4.5045 107.771L4.95496 98.3138L5.40541 89.0762L5.55556 79.6188V70.1613L5.40541 60.9238L4.95496 51.4663L4.5045 42.0088L3.75375 32.7713L2.85285 23.3138L1.8018 13.8563L0.600601 4.61877L0 0L4.2042 1.09971L8.55856 1.97947L12.9129 3.07918L17.4174 3.95894L22.0721 4.83871L26.5766 5.49853L31.2312 6.3783L36.036 6.81818L40.8408 7.47801L45.6456 7.91789L50.4505 8.35777L55.2553 8.79765L60.2102 9.0176H65.015L69.97 9.23754H74.9249H79.8799L84.8348 9.0176H89.6396L94.5946 8.79765L99.3994 8.35777L104.204 7.91789L109.009 7.47801L113.814 6.81818L118.619 6.3783L123.273 5.49853L127.778 4.83871L132.432 3.95894L136.937 3.07918L141.291 1.97947L145.646 1.09971L149.85 0L149.249 3.95894L148.048 12.5367L146.997 21.1144L146.096 30.132L145.345 39.3695L144.895 48.607L144.444 58.0645L144.294 67.7419V77.4194L144.444 87.0968L144.895 96.9941L145.345 106.672L146.096 116.349L146.997 126.026L148.048 135.704L149.249 145.381L149.85 150L145.646 148.9L141.291 147.801L136.937 146.701L132.432 145.821L127.778 144.941L123.273 144.282L118.619 143.622L113.814 142.962L109.009 142.302L104.204 141.862L99.3994 141.422L94.5946 141.202L89.6396 140.982L84.8348 140.762L79.8799 140.543H74.9249H69.97L65.015 140.762L60.2102 140.982L55.2553 141.202L50.4505 141.422L45.6456 141.862L40.8408 142.302L36.036 142.962L31.2312 143.622L26.5766 144.282L22.0721 144.941L17.4174 145.821L12.9129 146.701L8.55856 147.801L4.2042 148.9L0 150L0.600601 145.381Z" fill="#00FFFF" stroke="black" stroke-width="0.363451"/>
</g>
<defs>
<clipPath id="clip0_2109_163513">
<rect width="150" height="150" fill="white"/>
</clipPath>
</defs>
</svg>
