<svg width="150" height="150" viewBox="0 0 150 150" fill="none" xmlns="http://www.w3.org/2000/svg">
<g clip-path="url(#clip0_2109_163839)">
<path d="M150 134.352V15.2676L146.547 20.0386L142.492 22.1378L137.087 24.237L132.733 25.3821L127.928 26.5271L122.523 27.4813L116.817 28.4355L110.661 29.1989L104.054 29.7714L97.1471 30.3439L89.9399 30.7256L82.5826 31.1073H74.9249H67.2673L59.7598 30.7256L52.7027 30.3439L45.7958 29.7714L39.1892 29.1989L33.033 28.4355L27.3273 27.4813L21.9219 26.5271L17.1171 25.3821L12.7628 24.237L7.35736 22.1378L3.3033 20.0386L0 16.0309V15.2676V134.733L3.3033 139.313L7.35736 141.413L12.7628 143.321L17.1171 144.466L21.9219 145.611L27.3273 146.565L33.033 147.329L39.1892 148.092L45.7958 148.855L52.7027 149.428L59.7598 149.81L67.2673 150H71.021H74.9249H78.8288L86.3363 149.81L93.6937 149.619L100.601 149.046L107.357 148.474L113.814 147.71L119.67 146.947L125.225 145.993L130.33 144.848L134.985 143.703L139.039 142.558L143.994 140.458L148.348 137.405L149.85 135.115L150 134.352Z" fill="#00FFFF" stroke="black" stroke-width="0.338553"/>
<path d="M74.9249 30.916C116.305 30.916 149.85 23.9952 149.85 15.458C149.85 6.92079 116.305 0 74.9249 0C33.545 0 0 6.92079 0 15.458C0 23.9952 33.545 30.916 74.9249 30.916Z" fill="#00FFFF" stroke="black" stroke-width="0.338553"/>
</g>
<defs>
<clipPath id="clip0_2109_163839">
<rect width="150" height="150" fill="white"/>
</clipPath>
</defs>
</svg>
