<svg width="150" height="150" viewBox="0 0 150 150" fill="none" xmlns="http://www.w3.org/2000/svg">
<g clip-path="url(#clip0_2109_163830)">
<path d="M150 136.034L74.8603 0L0 136.034L0.27933 137.43L3.35196 140.223L9.21788 142.737L12.8492 143.855L17.3184 144.972L22.067 145.81L27.3743 146.927L33.2402 147.765L39.3855 148.324L45.8101 148.883L52.7933 149.441L59.7765 149.721L67.3184 150H82.4022L89.9441 149.721L97.2067 149.441L103.911 148.883L110.615 148.324L116.76 147.765L122.626 146.927L127.933 145.81L132.682 144.972L137.151 143.855L144.134 141.62L148.603 138.827L149.721 137.43L150 136.034Z" fill="#00FFFF" stroke="black" stroke-width="0.558659"/>
</g>
<defs>
<clipPath id="clip0_2109_163830">
<rect width="150" height="150" fill="white"/>
</clipPath>
</defs>
</svg>
