<svg width="150" height="150" viewBox="0 0 150 150" fill="none" xmlns="http://www.w3.org/2000/svg">
<g clip-path="url(#clip0_2109_163464)">
<path d="M23.2733 0H126.577H128.078H129.58L134.835 0.456389L139.189 1.36917L143.694 3.0426L147.748 6.84584L149.55 11.1055L149.85 12.931L150 14.7566V15.213L149.7 17.9513L136.336 128.854L135.285 134.178L133.934 138.59L131.982 142.241L129.129 145.74L125.375 148.022L120.871 149.544L117.568 149.848L116.366 150H115.165H33.4835L28.979 149.544L24.3243 148.022L20.5706 145.74L17.5676 142.241L15.7658 138.59L14.4144 134.026L13.5135 128.854L0.15015 17.9513L0 16.5821V16.1258V15.6694L0.3003 11.1055L2.1021 6.84584L5.55556 3.49899L9.60961 1.67343L13.964 0.608519L18.9189 0.15213L23.2733 0Z" fill="#00FFFF" stroke="black" stroke-width="0.302273"/>
</g>
<defs>
<clipPath id="clip0_2109_163464">
<rect width="150" height="150" fill="white"/>
</clipPath>
</defs>
</svg>
