<svg width="150" height="150" viewBox="0 0 150 150" fill="none" xmlns="http://www.w3.org/2000/svg">
<g clip-path="url(#clip0_2109_240684)">
<path d="M95.9463 11.0625H101.952V129.647H95.9463V11.0625Z" fill="#999999" stroke="black" stroke-width="0.515512"/>
<path d="M95.9463 22.5625H101.952V117.253H95.9463V22.5625Z" fill="#B2B2B2"/>
<path d="M95.9463 34.9531H101.952V104.865H95.9463V34.9531Z" fill="#CCCCCC"/>
<path d="M95.9463 47.3438H101.952V92.4765H95.9463V47.3438Z" fill="#E5E5E5"/>
<path d="M95.9463 59.7344H101.952V80.9733H95.9463V59.7344Z" fill="white"/>
<path d="M95.9456 0H5.85547V150H95.9456V0Z" fill="#F2F2F2" stroke="black" stroke-width="0.515512"/>
<path d="M113.964 8.40625H150V132.3H113.964V8.40625Z" fill="#4C4C4C"/>
<path d="M113.964 20.7969H150V119.027H113.964V20.7969Z" fill="#666666"/>
<path d="M113.964 34.0703H150V106.637H113.964V34.0703Z" fill="#7F7F7F"/>
<path d="M113.964 46.4609H150V93.3636H113.964V46.4609Z" fill="#999999"/>
<path d="M113.964 59.7344H150V80.9733H113.964V59.7344Z" fill="#B2B2B2"/>
<path d="M113.964 8.40625H150V132.3H113.964V8.40625Z" stroke="black" stroke-width="0.515512"/>
<path d="M101.952 6.64062H113.964V134.074H101.952V6.64062Z" fill="#333333"/>
<path d="M127.478 6.64062H139.49V134.074H127.478V6.64062Z" fill="#333333" stroke="black" stroke-width="0.515512"/>
<path d="M101.952 19.0234H113.964V120.793H101.952V19.0234Z" fill="#4C4C4C"/>
<path d="M127.478 19.0234H139.49V120.793H127.478V19.0234Z" fill="#4C4C4C"/>
<path d="M101.952 32.3047H113.964V108.411H101.952V32.3047Z" fill="#666666"/>
<path d="M127.478 32.3047H139.49V108.411H127.478V32.3047Z" fill="#666666"/>
<path d="M101.952 45.5781H113.964V95.1356H101.952V45.5781Z" fill="#7F7F7F"/>
<path d="M127.478 45.5781H139.49V95.1356H127.478V45.5781Z" fill="#7F7F7F"/>
<path d="M101.952 58.8516H113.964V81.8604H101.952V58.8516Z" fill="#999999"/>
<path d="M127.478 58.8516H139.49V81.8604H127.478V58.8516Z" fill="#999999"/>
<path d="M101.952 6.64062H113.964V134.074H101.952V6.64062Z" stroke="black" stroke-width="0.515512"/>
<path d="M95.9456 0H83.9336V141.15H95.9456V0Z" stroke="black" stroke-width="0.515512"/>
<path d="M80.9305 132.305H8.8584V150.004H80.9305V132.305Z" fill="#E5E5E5" stroke="black" stroke-width="0.515512"/>
<path d="M5.85586 8.40625H0V43.8045H5.85586V8.40625Z" fill="#7F7F7F"/>
<path d="M5.85586 12.8281H0V39.3768H5.85586V12.8281Z" fill="#999999"/>
<path d="M5.85586 17.2578H0V34.9569H5.85586V17.2578Z" fill="#B2B2B2"/>
<path d="M5.85586 21.6797H0V30.5292H5.85586V21.6797Z" fill="#CCCCCC"/>
<path d="M5.85586 8.40625H0V43.8045H5.85586V8.40625Z" stroke="black" stroke-width="0.515512"/>
<path d="M80.3301 94.25H61.4111V108.409H80.3301V94.25Z" fill="#CCCCFF" stroke="black" stroke-width="0.515512"/>
</g>
<defs>
<clipPath id="clip0_2109_240684">
<rect width="150" height="150" fill="white"/>
</clipPath>
</defs>
</svg>
