<svg width="150" height="150" viewBox="0 0 150 150" fill="none" xmlns="http://www.w3.org/2000/svg">
<g clip-path="url(#clip0_2109_239644)">
<path d="M0 77.1797H150V150.003H0V77.1797Z" fill="#7F7F7F" stroke="black" stroke-width="0.642851"/>
<path d="M0 25.6719H150V77.1734H0V25.6719Z" fill="#E5E5E5" stroke="black" stroke-width="0.642851"/>
<path d="M0 98.3516H150V103.006H0V98.3516Z" fill="#E5E5E5" stroke="black" stroke-width="0.642851"/>
<path d="M0 25.6757V18.6186L21.3303 16.3664L15.8257 15.1652V0H134.174V15.1652L128.67 16.3664L150 18.6186V25.6757H0Z" fill="black" stroke="black" stroke-width="0.642851"/>
<path d="M0 67.8672H150V69.0684H0V67.8672Z" fill="black" stroke="black" stroke-width="0.642851"/>
<path d="M0 63.2109H150V65.6133H0V63.2109Z" fill="black" stroke="black" stroke-width="0.642851"/>
<path d="M15.8262 13.9649L134.175 11.5625" stroke="#7F7F7F" stroke-width="0.642851"/>
<path d="M15.8262 11.5648L134.175 9.3125" stroke="#7F7F7F" stroke-width="0.642851"/>
<path d="M15.8262 9.30865L134.175 6.90625" stroke="#7F7F7F" stroke-width="0.642851"/>
<path d="M15.8262 6.91021L134.175 4.50781" stroke="#7F7F7F" stroke-width="0.642851"/>
<path d="M15.8262 4.50225L134.175 2.25" stroke="#7F7F7F" stroke-width="0.642851"/>
<path d="M10.3213 63.2094V25.6719" stroke="black" stroke-width="0.642851"/>
<path d="M26.1465 63.2094V25.6719" stroke="black" stroke-width="0.642851"/>
<path d="M41.9727 63.2094V25.6719" stroke="black" stroke-width="0.642851"/>
<path d="M57.7979 63.2094V25.6719" stroke="black" stroke-width="0.642851"/>
<path d="M74.3115 63.2094V25.6719" stroke="black" stroke-width="0.642851"/>
<path d="M90.1377 63.2094V25.6719" stroke="black" stroke-width="0.642851"/>
<path d="M106.651 63.2094V25.6719" stroke="black" stroke-width="0.642851"/>
<path d="M122.477 63.2094V25.6719" stroke="black" stroke-width="0.642851"/>
<path d="M138.303 63.2094V25.6719" stroke="black" stroke-width="0.642851"/>
<path d="M74.3121 135.732C109.653 135.732 138.303 131.026 138.303 125.221C138.303 119.417 109.653 114.711 74.3121 114.711C38.971 114.711 10.3213 119.417 10.3213 125.221C10.3213 131.026 38.971 135.732 74.3121 135.732Z" fill="white" stroke="black" stroke-width="0.642851"/>
<path d="M128.67 16.3672H21.3301" stroke="black" stroke-width="0.642851"/>
<path d="M0 18.6172H150" stroke="black" stroke-width="0.642851"/>
</g>
<defs>
<clipPath id="clip0_2109_239644">
<rect width="150" height="150" fill="white"/>
</clipPath>
</defs>
</svg>
