<svg width="150" height="150" viewBox="0 0 150 150" fill="none" xmlns="http://www.w3.org/2000/svg">
<g clip-path="url(#clip0_2109_240545)">
<path d="M0 8.25826V141.592H12.7059V150H19.4118V141.592H123.882V150H130.235V141.592H143.294V63.8138H150V60.961H143.294V8.25826H38.8235V0H12.7059V8.25826H0Z" fill="#00FFFF" stroke="black" stroke-width="0.460409"/>
<path d="M0 133.18H143.294" stroke="black" stroke-width="0.460409"/>
<path d="M0 94.2969H143.294" stroke="black" stroke-width="0.460409"/>
<path d="M0 60.9609H143.294" stroke="black" stroke-width="0.460409"/>
<path d="M143.294 58.2578H0" stroke="black" stroke-width="0.460409"/>
<path d="M0 33.1797H143.294" stroke="black" stroke-width="0.460409"/>
<path d="M6.35254 10.9609H32.4702V16.5165H6.35254V10.9609Z" stroke="black" stroke-width="0.460409"/>
<path d="M51.8828 19.3672H84.7063V27.6254H51.8828V19.3672Z" stroke="black" stroke-width="0.460409"/>
<path d="M6.35254 97.1484H97.7643V116.518H6.35254V97.1484Z" stroke="black" stroke-width="0.460409"/>
<path d="M6.35254 119.367H71.6467V130.478H6.35254V119.367Z" stroke="black" stroke-width="0.460409"/>
<path d="M12.7061 8.25781H38.8237" stroke="black" stroke-width="0.460409"/>
</g>
<defs>
<clipPath id="clip0_2109_240545">
<rect width="150" height="150" fill="white"/>
</clipPath>
</defs>
</svg>
