<svg width="150" height="150" viewBox="0 0 150 150" fill="none" xmlns="http://www.w3.org/2000/svg">
<g clip-path="url(#clip0_2109_239200)">
<path d="M54.3428 75.6719H91.8428V83.78H54.3428V75.6719Z" fill="#E5E5E5" stroke="black" stroke-width="0.436885"/>
<path d="M91.8432 79.2812H75V82.8849H91.8432V79.2812Z" fill="white" stroke="black" stroke-width="0.436885"/>
<path d="M57.8392 83.7812L42.585 141.889H109.004L88.6655 83.7812H57.8392Z" fill="#CCCCCC" stroke="black" stroke-width="0.436885"/>
<path d="M23.5166 141.891H126.165V145.044H23.5166V141.891Z" fill="#7F7F7F" stroke="black" stroke-width="0.436885"/>
<path d="M0 145.047H150V150.002H0V145.047Z" fill="black" stroke="black" stroke-width="0.436885"/>
<path d="M30.5088 139.492H37.1825V141.895H30.5088V139.492Z" fill="#7F7F7F" stroke="black" stroke-width="0.436885"/>
<path d="M50.8477 139.492H57.8392V141.895H50.8477V139.492Z" fill="#7F7F7F" stroke="black" stroke-width="0.436885"/>
<path d="M71.5039 139.492H78.1776V141.895H71.5039V139.492Z" fill="#7F7F7F" stroke="black" stroke-width="0.436885"/>
<path d="M91.8428 139.492H98.8343V141.895H91.8428V139.492Z" fill="#7F7F7F" stroke="black" stroke-width="0.436885"/>
<path d="M112.5 139.492H119.174V141.895H112.5V139.492Z" fill="#7F7F7F" stroke="black" stroke-width="0.436885"/>
<path d="M57.8389 75.6719H61.3346V82.8791H57.8389V75.6719Z" fill="#7F7F7F"/>
<path d="M62.9238 75.6719H64.5128V82.8791H62.9238V75.6719Z" fill="white"/>
<path d="M54.3428 78.0781H91.8428" stroke="black" stroke-width="0.436885"/>
<path d="M21.9277 28.8281H127.754V43.3927H21.9277V28.8281Z" fill="#CCCCCC" stroke="black" stroke-width="0.436885"/>
<path d="M21.9277 24.9219H127.754V26.4234H21.9277V24.9219Z" fill="black" stroke="black" stroke-width="0.436885"/>
<path d="M23.835 26.4297H126.165V75.8291H23.835V26.4297Z" fill="#CCCCCC" stroke="black" stroke-width="0.436885"/>
<path d="M78.1779 4.8048V4.65465V5.40541L76.2711 6.15616H73.7287L71.8219 5.40541L71.5041 4.65465V4.8048V0H64.8304V8.70871H20.3389V24.7748H129.661V8.70871H85.1694V0H78.1779V4.8048Z" fill="#7F7F7F" stroke="black" stroke-width="0.436885"/>
<path fill-rule="evenodd" clip-rule="evenodd" d="M75 35.2828L76.2712 35.4329L77.5424 35.5831L78.8135 35.8834L79.7669 36.3338L80.7203 36.7843L81.3559 37.3849L81.6737 37.9855V38.5861V39.1867L81.3559 39.7873L80.7203 40.3879L79.7669 40.8383L78.8135 41.2888L77.5424 41.5891L76.2712 41.7392H75H73.7288L72.1398 41.5891L71.1864 41.2888L70.233 40.8383L69.2796 40.3879L68.6441 39.7873L68.3263 39.1867L68.0085 38.5861L68.3263 37.9855L68.6441 37.3849L69.2796 36.7843L70.233 36.3338L71.1864 35.8834L72.1398 35.5831L73.7288 35.4329L75 35.2828ZM75 34.532L76.589 34.6822L78.1779 34.8323L79.7669 35.2828L81.0381 35.7332L81.9915 36.3338L82.9449 37.0846L83.2627 37.8353L83.5805 38.5861L83.2627 39.487L82.9449 40.0876L81.9915 40.8383L81.0381 41.4389L79.7669 41.8894L78.1779 42.3398L76.589 42.49L75 42.6401L73.0932 42.49L71.5042 42.3398L70.233 41.8894L68.9618 41.4389L67.6907 40.8383L67.0551 40.0876L66.7373 39.487L66.4195 38.5861L66.7373 37.8353L67.0551 37.0846L67.6907 36.3338L68.9618 35.7332L70.233 35.2828L71.5042 34.8323L73.0932 34.6822L75 34.532ZM75 33.7812H76.9068L78.8135 34.0816L80.7203 34.532L82.3093 35.1326L83.5805 35.8834L84.5339 36.6341L84.8517 37.6852L85.1695 38.5861L84.8517 39.6371L84.5339 40.538L83.5805 41.2888L82.3093 42.0395L80.7203 42.6401L78.8135 43.0906L76.9068 43.3909H75H72.7754L70.8686 43.0906L69.2796 42.6401L67.6907 42.0395L66.4195 41.2888L65.4661 40.538L64.8305 39.6371L64.5127 38.5861L64.8305 37.6852L65.4661 36.6341L66.4195 35.8834L67.6907 35.1326L69.2796 34.532L70.8686 34.0816L72.7754 33.7812H75Z" fill="black"/>
<path d="M74.6825 41.5954C78.3683 41.5954 81.3562 40.1837 81.3562 38.4422C81.3562 36.7008 78.3683 35.2891 74.6825 35.2891C70.9967 35.2891 68.0088 36.7008 68.0088 38.4422C68.0088 40.1837 70.9967 41.5954 74.6825 41.5954Z" stroke="black" stroke-width="0.436885"/>
<path d="M75.0004 42.6394C79.7393 42.6394 83.5809 40.8243 83.5809 38.5853C83.5809 36.3463 79.7393 34.5312 75.0004 34.5312C70.2615 34.5312 66.4199 36.3463 66.4199 38.5853C66.4199 40.8243 70.2615 42.6394 75.0004 42.6394Z" stroke="black" stroke-width="0.436885"/>
<path d="M74.6822 43.3909C80.2986 43.3909 84.8517 41.2397 84.8517 38.5861C84.8517 35.9324 80.2986 33.7812 74.6822 33.7812C69.0657 33.7812 64.5127 35.9324 64.5127 38.5861C64.5127 41.2397 69.0657 43.3909 74.6822 43.3909Z" stroke="black" stroke-width="0.436885"/>
<path d="M27.0127 27.3281H40.6779V74.7756H27.0127V27.3281Z" fill="#B2B2B2"/>
<path d="M47.6699 139.492L61.3352 85.4375H66.4199L59.4284 139.492H47.6699Z" fill="#B2B2B2"/>
<path d="M45.7627 27.3281H49.2585V74.9257H45.7627V27.3281Z" fill="white"/>
<path d="M102.33 43.3906H115.995V70.8681H102.33V43.3906Z" fill="#B2B2B2"/>
<path d="M30.5088 44.2969H119.174V70.1227H30.5088V44.2969Z" fill="#CCCCCC" stroke="black" stroke-width="0.436885"/>
<path d="M34.004 46.5484C34.8816 46.5484 35.593 46.2123 35.593 45.7976C35.593 45.383 34.8816 45.0469 34.004 45.0469C33.1265 45.0469 32.415 45.383 32.415 45.7976C32.415 46.2123 33.1265 46.5484 34.004 46.5484Z" stroke="black" stroke-width="0.436885"/>
<path d="M32.0977 45.9453H35.5934" stroke="black" stroke-width="0.436885"/>
<path d="M34.004 69.2203C34.8816 69.2203 35.593 68.8841 35.593 68.4695C35.593 68.0549 34.8816 67.7188 34.004 67.7188C33.1265 67.7188 32.415 68.0549 32.415 68.4695C32.415 68.8841 33.1265 69.2203 34.004 69.2203Z" stroke="black" stroke-width="0.436885"/>
<path d="M32.0977 68.4688H35.5934" stroke="black" stroke-width="0.436885"/>
<path d="M115.996 46.5484C116.874 46.5484 117.585 46.2123 117.585 45.7976C117.585 45.383 116.874 45.0469 115.996 45.0469C115.119 45.0469 114.407 45.383 114.407 45.7976C114.407 46.2123 115.119 46.5484 115.996 46.5484Z" stroke="black" stroke-width="0.436885"/>
<path d="M114.089 45.9453H117.585" stroke="black" stroke-width="0.436885"/>
<path d="M115.996 69.2203C116.874 69.2203 117.585 68.8841 117.585 68.4695C117.585 68.0549 116.874 67.7188 115.996 67.7188C115.119 67.7188 114.407 68.0549 114.407 68.4695C114.407 68.8841 115.119 69.2203 115.996 69.2203Z" stroke="black" stroke-width="0.436885"/>
<path d="M114.089 68.4688H117.585" stroke="black" stroke-width="0.436885"/>
<path d="M44.1738 45.0469H47.6696V69.221H44.1738V45.0469Z" fill="white"/>
</g>
<defs>
<clipPath id="clip0_2109_239200">
<rect width="150" height="150" fill="white"/>
</clipPath>
</defs>
</svg>
