<svg width="150" height="150" viewBox="0 0 150 150" fill="none" xmlns="http://www.w3.org/2000/svg">
<g clip-path="url(#clip0_2109_240109)">
<path d="M37.3496 0H112.651V112.462H37.3496V0Z" fill="#7F7F7F" stroke="black" stroke-width="0.601504"/>
<path d="M0 30.3281H150V37.3852H0V30.3281Z" fill="#7F7F7F" stroke="black" stroke-width="0.601504"/>
<path d="M0 11.5625H150V18.6196H0V11.5625Z" fill="#7F7F7F" stroke="black" stroke-width="0.601504"/>
<path d="M27.7109 11.5625H121.687V18.6196H27.7109V11.5625Z" fill="white" stroke="black" stroke-width="0.601504"/>
<path d="M27.7109 30.3281H121.687V37.3852H27.7109V30.3281Z" fill="white" stroke="black" stroke-width="0.601504"/>
<path d="M37.3496 79.5781H112.651V91.2898H37.3496V79.5781Z" stroke="black" stroke-width="0.601504"/>
<path d="M37.3496 81.9844H112.651V88.8913H37.3496V81.9844Z" stroke="black" stroke-width="0.601504"/>
<path d="M37.3496 84.2344H112.651V86.6368H37.3496V84.2344Z" stroke="black" stroke-width="0.601504"/>
<path d="M37.3496 93.6953H112.651V110.062H37.3496V93.6953Z" fill="#00FF00" stroke="black" stroke-width="0.601504"/>
<path d="M46.3857 105.406H103.012" stroke="white" stroke-width="0.601504"/>
<path d="M46.3857 103H103.012" stroke="white" stroke-width="0.601504"/>
<path d="M65.6631 112.461H84.3378V149.998H65.6631V112.461Z" fill="#7F7F7F" stroke="black" stroke-width="0.601504"/>
<path d="M93.9761 149.998L56.0243 145.194L93.9761 140.539L46.3858 135.884L103.012 131.23L46.3858 126.425L103.012 121.77L37.3496 117.116L112.651 112.461" stroke="black" stroke-width="0.601504"/>
</g>
<defs>
<clipPath id="clip0_2109_240109">
<rect width="150" height="150" fill="white"/>
</clipPath>
</defs>
</svg>
