<svg width="150" height="150" viewBox="0 0 150 150" fill="none" xmlns="http://www.w3.org/2000/svg">
<g clip-path="url(#clip0_2109_239709)">
<path d="M75.0002 51.6C112.497 51.6 142.895 40.0489 142.895 25.8C142.895 11.5511 112.497 0 75.0002 0C37.503 0 7.10547 11.5511 7.10547 25.8C7.10547 40.0489 37.503 51.6 75.0002 51.6Z" fill="#FFCC00" stroke="black" stroke-width="0.973329"/>
<path d="M7.10547 15.6016H142.895V150.002H7.10547V15.6016Z" fill="#333333" stroke="black" stroke-width="0.973329"/>
<path d="M98.6846 18H123.158V147.6H98.6846V18Z" fill="#666666"/>
<path d="M0 141.002H150V137.102H0V141.002Z" fill="black" stroke="black" stroke-width="0.973329"/>
<path d="M0 126.002H150V122.102H0V126.002Z" fill="black" stroke="black" stroke-width="0.973329"/>
<path d="M0 111.298H150V107.398H0V111.298Z" fill="black" stroke="black" stroke-width="0.973329"/>
<path d="M0 96.2984H150V92.3984H0V96.2984Z" fill="black" stroke="black" stroke-width="0.973329"/>
<path d="M0 81.2984H150V77.3984H0V81.2984Z" fill="black" stroke="black" stroke-width="0.973329"/>
<path d="M0 66.6031H150V62.7031H0V66.6031Z" fill="black" stroke="black" stroke-width="0.973329"/>
<path d="M0 51.6031H150V47.7031H0V51.6031Z" fill="black" stroke="black" stroke-width="0.973329"/>
<path d="M0 36.6031H150V32.7031H0V36.6031Z" fill="black" stroke="black" stroke-width="0.973329"/>
<path d="M0 133.197H150V129.297H0V133.197Z" fill="black" stroke="black" stroke-width="0.973329"/>
<path d="M0 118.197H150V114.297H0V118.197Z" fill="black" stroke="black" stroke-width="0.973329"/>
<path d="M0 103.502H150V99.6016H0V103.502Z" fill="black" stroke="black" stroke-width="0.973329"/>
<path d="M0 88.5016H150V84.6016H0V88.5016Z" fill="black" stroke="black" stroke-width="0.973329"/>
<path d="M0 73.5016H150V69.6016H0V73.5016Z" fill="black" stroke="black" stroke-width="0.973329"/>
<path d="M0 58.7984H150V54.8984H0V58.7984Z" fill="black" stroke="black" stroke-width="0.973329"/>
<path d="M0 43.7984H150V39.8984H0V43.7984Z" fill="black" stroke="black" stroke-width="0.973329"/>
<path d="M0 28.7984H150V24.8984H0V28.7984Z" fill="black" stroke="black" stroke-width="0.973329"/>
<path d="M19.7363 137.102H37.8942V141.002H19.7363V137.102Z" fill="#666666" stroke="black" stroke-width="0.973329"/>
<path d="M19.7363 122.102H37.8942V126.002H19.7363V122.102Z" fill="#666666" stroke="black" stroke-width="0.973329"/>
<path d="M19.7363 107.398H37.8942V110.998H19.7363V107.398Z" fill="#666666" stroke="black" stroke-width="0.973329"/>
<path d="M19.7363 92.3984H37.8942V96.2984H19.7363V92.3984Z" fill="#666666" stroke="black" stroke-width="0.973329"/>
<path d="M19.7363 77.3984H37.8942V81.2984H19.7363V77.3984Z" fill="#666666" stroke="black" stroke-width="0.973329"/>
<path d="M19.7363 62.7031H37.8942V66.3031H19.7363V62.7031Z" fill="#666666" stroke="black" stroke-width="0.973329"/>
<path d="M19.7363 47.7031H37.8942V51.6031H19.7363V47.7031Z" fill="#666666" stroke="black" stroke-width="0.973329"/>
<path d="M19.7363 32.7031H37.8942V36.6031H19.7363V32.7031Z" fill="#666666" stroke="black" stroke-width="0.973329"/>
<path d="M19.7363 129.297H37.8942V133.197H19.7363V129.297Z" fill="#666666" stroke="black" stroke-width="0.973329"/>
<path d="M19.7363 114.297H37.8942V118.197H19.7363V114.297Z" fill="#666666" stroke="black" stroke-width="0.973329"/>
<path d="M19.7363 99.6016H37.8942V103.202H19.7363V99.6016Z" fill="#666666" stroke="black" stroke-width="0.973329"/>
<path d="M19.7363 84.6016H37.8942V88.5016H19.7363V84.6016Z" fill="#666666" stroke="black" stroke-width="0.973329"/>
<path d="M19.7363 69.6016H37.8942V73.5016H19.7363V69.6016Z" fill="#666666" stroke="black" stroke-width="0.973329"/>
<path d="M19.7363 54.8984H37.8942V58.4984H19.7363V54.8984Z" fill="#666666" stroke="black" stroke-width="0.973329"/>
<path d="M19.7363 39.8984H37.8942V43.7984H19.7363V39.8984Z" fill="#666666" stroke="black" stroke-width="0.973329"/>
<path d="M19.7363 24.8984H37.8942V28.7984H19.7363V24.8984Z" fill="#666666" stroke="black" stroke-width="0.973329"/>
<path d="M112.895 137.102H136.579V141.002H112.895V137.102Z" fill="#B2B2B2" stroke="black" stroke-width="0.973329"/>
<path d="M112.895 122.102H136.579V126.002H112.895V122.102Z" fill="#B2B2B2" stroke="black" stroke-width="0.973329"/>
<path d="M112.895 107.398H136.579V110.998H112.895V107.398Z" fill="#B2B2B2" stroke="black" stroke-width="0.973329"/>
<path d="M112.895 92.3984H136.579V96.2984H112.895V92.3984Z" fill="#B2B2B2" stroke="black" stroke-width="0.973329"/>
<path d="M112.895 77.3984H136.579V81.2984H112.895V77.3984Z" fill="#B2B2B2" stroke="black" stroke-width="0.973329"/>
<path d="M112.895 62.7031H136.579V66.3031H112.895V62.7031Z" fill="#B2B2B2" stroke="black" stroke-width="0.973329"/>
<path d="M112.895 47.7031H136.579V51.6031H112.895V47.7031Z" fill="#B2B2B2" stroke="black" stroke-width="0.973329"/>
<path d="M112.895 32.7031H136.579V36.6031H112.895V32.7031Z" fill="#B2B2B2" stroke="black" stroke-width="0.973329"/>
<path d="M112.895 129.297H136.579V133.197H112.895V129.297Z" fill="#B2B2B2" stroke="black" stroke-width="0.973329"/>
<path d="M112.895 114.297H136.579V118.197H112.895V114.297Z" fill="#B2B2B2" stroke="black" stroke-width="0.973329"/>
<path d="M112.895 99.6016H136.579V103.202H112.895V99.6016Z" fill="#B2B2B2" stroke="black" stroke-width="0.973329"/>
<path d="M112.895 84.6016H136.579V88.5016H112.895V84.6016Z" fill="#B2B2B2" stroke="black" stroke-width="0.973329"/>
<path d="M112.895 69.6016H136.579V73.5016H112.895V69.6016Z" fill="#B2B2B2" stroke="black" stroke-width="0.973329"/>
<path d="M112.895 54.8984H136.579V58.4984H112.895V54.8984Z" fill="#B2B2B2" stroke="black" stroke-width="0.973329"/>
<path d="M112.895 39.8984H136.579V43.7984H112.895V39.8984Z" fill="#B2B2B2" stroke="black" stroke-width="0.973329"/>
<path d="M112.895 24.8984H136.579V28.7984H112.895V24.8984Z" fill="#B2B2B2" stroke="black" stroke-width="0.973329"/>
<path d="M17.3682 12.8984H133.421V14.0984H17.3682V12.8984Z" fill="black" stroke="black" stroke-width="0.973329"/>
</g>
<defs>
<clipPath id="clip0_2109_239709">
<rect width="150" height="150" fill="white"/>
</clipPath>
</defs>
</svg>
