<svg width="150" height="150" viewBox="0 0 150 150" fill="none" xmlns="http://www.w3.org/2000/svg">
<g clip-path="url(#clip0_2109_239570)">
<path d="M0 145.197V103.305H150V145.197H0Z" fill="#4C7FE5" stroke="black" stroke-width="0.3003"/>
<path d="M1.20117 141.589V127.625H148.649V141.589H1.20117Z" fill="#2659BF"/>
<path d="M46.5469 9.45946V0H102.853V9.45946H46.5469Z" fill="#4C7FE5" stroke="black" stroke-width="0.3003"/>
<path d="M74.9249 149.85C116.305 149.85 149.85 116.305 149.85 74.9249C149.85 33.545 116.305 0 74.9249 0C33.545 0 0 33.545 0 74.9249C0 116.305 33.545 149.85 74.9249 149.85Z" fill="#4C7FE5" stroke="black" stroke-width="0.3003"/>
<path d="M74.9246 145.197C113.734 145.197 145.195 113.736 145.195 74.9265C145.195 36.1173 113.734 4.65625 74.9246 4.65625C36.1154 4.65625 4.6543 36.1173 4.6543 74.9265C4.6543 113.736 36.1154 145.197 74.9246 145.197Z" fill="#6699FF"/>
<path d="M100.6 145.496L96.0959 146.997L91.2911 148.048L86.4863 149.099L81.5313 149.7L78.228 149.85L76.5764 150H74.9247L69.9697 149.7L65.0148 149.249L60.0598 148.499L55.255 147.297L50.7505 146.096L49.249 145.496L55.7055 128.078L60.21 129.279L65.0148 130.33L69.9697 130.931L74.9247 131.081L79.8797 130.931L84.8346 130.33L89.6394 129.279L93.0929 128.378L94.1439 128.078L100.6 145.496Z" fill="#8CB2FF" stroke="black" stroke-width="0.3003"/>
<path d="M123.273 132.429L126.727 129.126L130.03 125.672L133.334 121.768L136.337 117.865L139.039 113.811L141.442 109.606L143.694 105.102L145.496 100.297L146.997 95.6424L148.349 90.9877L148.649 89.4862L149.099 87.9847L130.331 84.5312L129.279 89.1859L127.778 93.9907L125.976 98.6454L123.724 102.85L121.021 107.054L118.018 111.108L114.715 114.862L112.012 117.264L111.111 118.015L123.273 132.429Z" fill="#8CB2FF" stroke="black" stroke-width="0.3003"/>
<path d="M123.273 17.4141L126.727 20.7174L130.03 24.4711L133.334 28.375L136.337 32.2789L139.039 36.4831L141.442 40.5372L143.694 44.8915L145.496 49.5462L146.997 54.351L148.349 59.1558L148.649 60.6573L149.099 62.309L130.331 65.312L129.279 60.6573L127.778 56.0027L125.976 51.348L123.724 46.9936L121.021 42.7894L118.018 38.8855L114.715 35.1318L112.012 32.5792L111.111 31.8285L123.273 17.4141Z" fill="#8CB2FF" stroke="black" stroke-width="0.3003"/>
<path d="M100.6 4.35435L96.0959 2.85285L91.2911 1.8018L86.4863 0.750751L81.5313 0.15015L78.228 0H76.5764H74.9247L69.9697 0.15015L65.0148 0.600601L60.0598 1.35135L55.255 2.55255L50.7505 3.75375L49.249 4.35435L55.7055 22.2222L60.21 20.7207L65.0148 19.6697L69.9697 18.9189L74.9247 18.6186L79.8797 18.9189L84.8346 19.6697L89.6394 20.7207L93.0929 21.7718L94.1439 22.2222L100.6 4.35435Z" fill="#8CB2FF" stroke="black" stroke-width="0.3003"/>
<path d="M26.5768 17.4141L22.9732 20.7174L19.3696 24.4711L16.0663 28.375L13.0633 32.2789L10.3606 36.4831L7.95818 40.5372L5.85608 44.8915L4.05428 49.5462L2.55278 54.351L1.35158 59.1558L1.05128 60.6573L0.750977 62.309L19.0693 65.312L20.2705 60.6573L21.772 56.0027L23.7239 51.348L26.1264 46.9936L28.6789 42.7894L31.5318 38.8855L34.8351 35.1318L37.3876 32.5792L38.2885 31.8285L26.5768 17.4141Z" fill="#8CB2FF" stroke="black" stroke-width="0.3003"/>
<path d="M26.5768 132.429L22.9732 129.126L19.3696 125.672L16.0663 121.768L13.0633 117.865L10.3606 113.811L7.95818 109.606L5.85608 105.102L4.05428 100.297L2.55278 95.6424L1.35158 90.9877L1.05128 89.4862L0.750977 87.9847L19.0693 84.5312L20.2705 89.1859L21.772 93.9907L23.7239 98.6454L26.1264 102.85L28.6789 107.054L31.5318 111.108L34.8351 114.862L37.3876 117.264L38.2885 118.015L26.5768 132.429Z" fill="#8CB2FF" stroke="black" stroke-width="0.3003"/>
<path d="M32.5828 125.525L31.6819 124.624L30.6309 123.573L29.73 122.672L28.6789 121.621L27.6279 120.57L26.727 119.519L25.6759 118.318L24.775 117.267L23.8741 116.066L22.9732 114.864L22.0723 113.663L21.1714 112.462L20.4207 111.261L19.6699 110.06L18.9192 108.858L18.1684 107.657L17.5678 106.306L16.8171 105.105L16.2165 103.904L15.4657 102.552L14.8651 101.201L14.2645 99.8495L13.8141 98.4981L13.3636 97.1467L12.763 95.7954L12.3126 94.2939L11.8621 92.9425L11.4117 91.5912L10.9612 90.2398L10.6609 88.8885L10.3606 87.5371L9.91016 86.3359" stroke="#7F7F7F" stroke-width="0.3003"/>
<path d="M97.5973 136.789L93.5432 137.99L89.339 139.041L84.9847 139.792L80.6303 140.393L76.276 140.693L70.7204 140.543L66.2159 140.092L62.0117 139.342L57.6574 138.291L53.6033 137.24L52.252 136.789" stroke="#7F7F7F" stroke-width="0.3003"/>
<path d="M139.94 86.3359L139.49 87.5371L139.19 88.8885L138.889 90.2398L138.439 91.5912L137.988 92.9425L137.538 94.2939L137.087 95.7954L136.637 97.1467L136.036 98.4981L135.586 99.8495L134.985 101.201L134.385 102.552L133.634 103.904L133.033 105.105L132.283 106.306L131.682 107.657L130.931 108.858L130.18 110.06L129.43 111.261L128.679 112.462L127.778 113.663L126.877 114.864L125.976 116.066L125.075 117.267L124.174 118.318L123.123 119.519L122.223 120.57L121.171 121.621L120.12 122.672L119.22 123.573L118.168 124.624L117.268 125.525" stroke="#7F7F7F" stroke-width="0.3003"/>
<path d="M117.268 24.3281L118.168 25.229L119.22 26.2801L120.12 27.181L121.171 28.232L122.223 29.2831L123.123 30.3341L124.174 31.5353L125.075 32.5864L125.976 33.7876L126.877 34.9888L127.778 36.19L128.679 37.3912L129.43 38.5924L130.18 39.7936L130.931 40.9948L131.682 42.196L132.283 43.5473L133.033 44.7485L133.634 45.9497L134.385 47.3011L134.985 48.6524L135.586 50.0038L136.036 51.3552L136.637 52.7065L137.087 54.0579L137.538 55.5594L137.988 56.9107L138.439 58.2621L138.889 59.6134L139.19 60.9648L139.49 62.3161L139.94 63.5173" stroke="#7F7F7F" stroke-width="0.3003"/>
<path d="M52.252 13.0645L56.306 11.8633L60.5102 10.9624L64.8646 10.2117L69.2189 9.76124L73.5733 9.46094L79.1288 9.61109L83.6333 10.0615L87.8375 10.6621L92.1919 11.563L96.2459 12.6141L97.5973 13.0645" stroke="#7F7F7F" stroke-width="0.3003"/>
<path d="M9.91016 63.5173L10.3606 62.3161L10.6609 60.9648L10.9612 59.6134L11.4117 58.2621L11.8621 56.9107L12.3126 55.5594L12.763 54.0579L13.3636 52.7065L13.8141 51.3552L14.2645 50.0038L14.8651 48.6524L15.4657 47.3011L16.2165 45.9497L16.8171 44.7485L17.5678 43.5473L18.1684 42.196L18.9192 40.9948L19.6699 39.7936L20.4207 38.5924L21.1714 37.3912L22.0723 36.19L22.9732 34.9888L23.8741 33.7876L24.775 32.5864L25.6759 31.5353L26.727 30.3341L27.6279 29.2831L28.6789 28.232L29.73 27.181L30.6309 26.2801L31.6819 25.229L32.5828 24.3281" stroke="#7F7F7F" stroke-width="0.3003"/>
</g>
<defs>
<clipPath id="clip0_2109_239570">
<rect width="150" height="150" fill="white"/>
</clipPath>
</defs>
</svg>
