<svg width="150" height="150" viewBox="0 0 150 150" fill="none" xmlns="http://www.w3.org/2000/svg">
<g clip-path="url(#clip0_2109_239590)">
<path d="M0 131.078H150V149.997H0V131.078Z" fill="#4C7F7F" stroke="black" stroke-width="0.424901"/>
<path d="M0 18.4688H150V131.081H0V18.4688Z" fill="#E5E5E5" stroke="black" stroke-width="0.424901"/>
<path d="M0 0H150V18.4685H0V0Z" fill="#F2F2F2" stroke="black" stroke-width="0.424901"/>
<path d="M0 0.75H48.3968V18.4677H0V0.75Z" fill="#7FB2B2" stroke="black" stroke-width="0.424901"/>
<path d="M100.101 131.078H150V149.096H100.101V131.078Z" fill="#7FB2B2" stroke="black" stroke-width="0.424901"/>
<path d="M0 131.078H49.5992V149.096H0V131.078Z" fill="#7FB2B2" stroke="black" stroke-width="0.424901"/>
<path d="M4.50879 2.85156H10.5208V16.3651H4.50879V2.85156Z" fill="#999999"/>
<path d="M15.3311 2.85156H21.3431V16.0648H15.3311V2.85156Z" fill="#999999"/>
<path d="M26.1523 2.85156H32.7656V16.0648H26.1523V2.85156Z" fill="#999999"/>
<path d="M37.5752 2.85156H43.5872V16.0648H37.5752V2.85156Z" fill="#999999"/>
<path d="M48.3965 16.9688H150V18.4703H48.3965V16.9688Z" fill="#99CCCC" stroke="black" stroke-width="0.424901"/>
<path d="M30.9619 81.2283L43.5872 74.922V37.3844H106.112L118.737 31.0781H30.9619V81.2283Z" fill="#7F7F7F"/>
<path d="M118.737 31.0781L106.112 37.3844V74.922H43.5872L30.9619 81.2283H118.737V31.0781Z" fill="white"/>
<path d="M30.9619 31.0781H118.737V81.2283H30.9619V31.0781Z" stroke="black" stroke-width="0.424901"/>
<path d="M43.5869 37.3906H106.112V74.9282H43.5869V37.3906Z" fill="#BFBFBF" stroke="black" stroke-width="0.424901"/>
<path d="M24.9501 98.3516H18.3369L21.9441 107.06L24.9501 98.3516Z" fill="black"/>
<path d="M18.3369 95.3415H24.9501L21.9441 86.6328L18.3369 95.3415Z" fill="black"/>
<path d="M21.3429 34.0811L19.5393 33.7808L18.3369 32.5796L19.5393 31.6787L21.3429 31.0781L23.7477 31.6787L24.9501 32.5796L23.7477 33.7808L21.3429 34.0811Z" fill="#4C4C4C"/>
<path d="M21.3429 43.6939L19.5393 43.0933L18.3369 42.1924L19.5393 40.9912L21.3429 40.3906L23.7477 40.9912L24.9501 42.1924L23.7477 43.0933L21.3429 43.6939Z" fill="#4C4C4C"/>
<path d="M128.357 34.0811L125.952 33.7808L125.351 32.5796L125.952 31.6787L128.357 31.0781L130.16 31.6787L131.363 32.5796L130.16 33.7808L128.357 34.0811Z" fill="#4C4C4C"/>
<path d="M128.357 43.6939L125.952 43.0933L125.351 42.1924L125.952 40.9912L128.357 40.3906L130.16 40.9912L131.363 42.1924L130.16 43.0933L128.357 43.6939Z" fill="#4C4C4C"/>
<path d="M37.5751 106.158L32.7655 105.257L30.9619 103.155L32.7655 100.752L37.5751 99.8516L41.7836 100.752L43.5872 103.155L41.7836 105.257L37.5751 106.158Z" fill="#4C4C4C"/>
<path d="M36.9739 93.8454L32.7655 92.9445L30.9619 90.5421L32.7655 88.44L36.9739 87.5391L41.7836 88.44L43.5872 90.5421L41.7836 92.9445L36.9739 93.8454Z" fill="#4C4C4C"/>
<path d="M81.4628 93.8454L76.6532 92.9445L74.8496 90.5421L76.6532 88.44L81.4628 87.5391L85.6713 88.44L87.4749 90.5421L85.6713 92.9445L81.4628 93.8454Z" fill="#4C4C4C"/>
<path d="M81.4628 106.158L76.6532 105.257L74.8496 103.155L76.6532 100.752L81.4628 99.8516L85.6713 100.752L87.4749 103.155L85.6713 105.257L81.4628 106.158Z" fill="#4C4C4C"/>
<path d="M37.5752 143.094L33.968 142.193L32.7656 140.691L33.968 138.89L37.5752 138.289L40.5813 138.89L41.7837 140.691L40.5813 142.193L37.5752 143.094Z" fill="#E5E5E5" stroke="black" stroke-width="0.424901"/>
<path d="M24.9502 143.094L21.343 142.193L20.1406 140.691L21.343 138.89L24.9502 138.289L27.9563 138.89L29.1587 140.691L27.9563 142.193L24.9502 143.094Z" fill="#E5E5E5" stroke="black" stroke-width="0.424901"/>
<path d="M12.3243 143.094L8.71705 142.193L7.51465 140.691L8.71705 138.89L12.3243 138.289L15.3303 138.89L17.1339 140.691L15.3303 142.193L12.3243 143.094Z" fill="#E5E5E5" stroke="black" stroke-width="0.424901"/>
<path d="M137.374 143.094L134.368 142.193L133.166 140.691L134.368 138.89L137.374 138.289L140.982 138.89L142.184 140.691L140.982 142.193L137.374 143.094Z" fill="#E5E5E5" stroke="black" stroke-width="0.424901"/>
<path d="M125.351 143.094L121.743 142.193L120.541 140.691L121.743 138.89L125.351 138.289L128.357 138.89L129.559 140.691L128.357 142.193L125.351 143.094Z" fill="#E5E5E5" stroke="black" stroke-width="0.424901"/>
<path d="M112.726 143.094L109.118 142.193L107.916 140.691L109.118 138.89L112.726 138.289L115.732 138.89L116.934 140.691L115.732 142.193L112.726 143.094Z" fill="#E5E5E5" stroke="black" stroke-width="0.424901"/>
</g>
<defs>
<clipPath id="clip0_2109_239590">
<rect width="150" height="150" fill="white"/>
</clipPath>
</defs>
</svg>
