<svg width="150" height="150" viewBox="0 0 150 150" fill="none" xmlns="http://www.w3.org/2000/svg">
<g clip-path="url(#clip0_2109_240813)">
<path d="M7.35742 23.4609H150V126.542H7.35742V23.4609Z" fill="black" stroke="black" stroke-width="0.377256"/>
<path d="M7.35742 9.24219H150V23.2232H7.35742V9.24219Z" fill="#CCCCCC" stroke="black" stroke-width="0.377256"/>
<path d="M7.35742 126.539H150V140.52H7.35742V126.539Z" fill="#CCCCCC" stroke="black" stroke-width="0.377256"/>
<path d="M19.2188 0H137.988V9.24171H19.2188V0Z" fill="#CCCCCC" stroke="black" stroke-width="0.377256"/>
<path d="M19.2188 140.523H137.988V150.002H19.2188V140.523Z" fill="#CCCCCC" stroke="black" stroke-width="0.377256"/>
<path d="M8.1084 10.4297H25.2255V22.278H8.1084V10.4297Z" fill="#7F7F7F"/>
<path d="M19.9697 1.1875H37.0868V8.05954H19.9697V1.1875Z" fill="#7F7F7F"/>
<path d="M8.1084 127.484H25.2255V139.333H8.1084V127.484Z" fill="#7F7F7F"/>
<path d="M19.9697 141.703H37.0868V148.812H19.9697V141.703Z" fill="#7F7F7F"/>
<path d="M129.129 139.333H112.012V127.484H129.129V139.333Z" fill="#7F7F7F"/>
<path d="M122.522 148.812H105.405V141.703H122.522V148.812Z" fill="#7F7F7F"/>
<path d="M129.129 22.278H112.012V10.4297H129.129V22.278Z" fill="#7F7F7F"/>
<path d="M122.522 8.05954H105.405V1.1875H122.522V8.05954Z" fill="#7F7F7F"/>
<path d="M116.517 139.333H99.3994V127.484H116.517V139.333Z" fill="white"/>
<path d="M109.76 148.812H92.6426V141.703H109.76V148.812Z" fill="white"/>
<path d="M116.517 22.278H99.3994V10.4297H116.517V22.278Z" fill="white"/>
<path d="M109.76 8.05954H92.6426V1.1875H109.76V8.05954Z" fill="white"/>
<path d="M96.3965 65.3992V30.3281H143.994V64.2144L96.3965 65.3992Z" fill="white"/>
<path d="M98.6484 46.6797H142.492V61.8456L98.6484 63.0304V46.6797Z" stroke="black" stroke-width="0.377256"/>
<path d="M98.6484 54.9766H142.492" stroke="black" stroke-width="0.377256"/>
<path d="M121.021 62.0825V46.6797" stroke="black" stroke-width="0.377256"/>
<path d="M78.5287 55.9209C81.7628 55.9209 84.3846 51.7833 84.3846 46.6792C84.3846 41.5752 81.7628 37.4375 78.5287 37.4375C75.2946 37.4375 72.6729 41.5752 72.6729 46.6792C72.6729 51.7833 75.2946 55.9209 78.5287 55.9209Z" fill="#7F7F7F"/>
<path d="M78.5286 51.1844C80.1042 51.1844 81.3815 49.1686 81.3815 46.6821C81.3815 44.1955 80.1042 42.1797 78.5286 42.1797C76.953 42.1797 75.6758 44.1955 75.6758 46.6821C75.6758 49.1686 76.953 51.1844 78.5286 51.1844Z" fill="#191919"/>
<path d="M82.2823 46.9164L82.1322 45.7315L81.982 44.5467L81.6817 43.5988L81.2313 42.8879L80.6307 42.177L80.0301 41.4661L79.2793 41.2292L78.6787 40.9922V43.1249H79.1292L79.4295 43.3619L79.8799 43.8358L80.1802 44.3097L80.4805 44.7837L80.7808 45.4946L80.931 46.2055V46.9164H82.2823Z" fill="black"/>
<path d="M78.6787 52.6091L79.2793 52.3721L80.0301 52.1351L80.6307 51.6612L81.2313 50.9503L81.6817 50.0024L81.982 49.0546L82.1322 47.8697L82.2823 46.9219H80.931V47.6328L80.7808 48.1067L80.4805 48.8176L80.1802 49.2915L79.8799 49.7655L79.4295 50.2394L79.1292 50.4764H78.6787V52.6091Z" fill="black"/>
<path d="M75.0752 46.9219V47.8697L75.3755 49.0546L75.6758 50.0024L76.1262 50.9503L76.5767 51.6612L77.1773 52.1351L77.928 52.3721L78.6788 52.6091V50.4764H78.2283L77.7779 50.2394L77.3274 49.7655L77.0271 49.2915L76.7268 48.8176L76.5767 48.1067L76.4265 47.6328L76.2764 46.9219H75.0752Z" fill="black"/>
<path d="M78.6788 40.9922L77.928 41.2292L77.1773 41.4661L76.5767 42.177L76.1262 42.8879L75.6758 43.5988L75.3755 44.5467L75.0752 45.7315V46.9164H76.2764L76.4265 46.2055L76.5767 45.4946L76.7268 44.7837L77.0271 44.3097L77.3274 43.8358L77.7779 43.3619L78.2283 43.1249H78.6788V40.9922Z" fill="black"/>
<path d="M11.7118 98.1027C14.1166 98.1027 16.0661 91.8432 16.0661 84.1217C16.0661 76.4002 14.1166 70.1406 11.7118 70.1406C9.30693 70.1406 7.35742 76.4002 7.35742 84.1217C7.35742 91.8432 9.30693 98.1027 11.7118 98.1027Z" fill="#E5E5E5" stroke="black" stroke-width="0.377256"/>
<path d="M11.7117 93.6032H2.85285L1.2012 92.1814L0.45045 89.5748L0 86.2572V84.3615L0.15015 80.57L0.750751 77.7264L1.8018 75.5937L2.85285 74.8828H11.7117L13.3634 76.5416L14.2643 78.9112L14.7147 82.4658V84.3615L14.5646 87.916L13.964 90.7596L12.9129 92.8923L11.7117 93.6032Z" fill="#E5E5E5" stroke="black" stroke-width="0.377256"/>
<path d="M2.85254 74.8828L3.45314 75.1198L4.05374 75.5937L4.50419 76.5416L4.95464 77.7264L5.40509 79.1482L5.55524 80.57L5.85554 82.4658V84.3615V86.2572L5.55524 87.916L5.40509 89.3378L4.95464 90.7596L4.50419 91.9444L4.05374 92.8923L3.45314 93.3662L2.85254 93.6032" stroke="black" stroke-width="0.377256"/>
<path d="M2.85308 90.9941C4.01404 90.9941 4.95518 87.9174 4.95518 84.122C4.95518 80.3267 4.01404 77.25 2.85308 77.25C1.69212 77.25 0.750977 80.3267 0.750977 84.122C0.750977 87.9174 1.69212 90.9941 2.85308 90.9941Z" fill="black" stroke="black" stroke-width="0.377256"/>
<path d="M10.3605 93.6039H4.35449H4.65479L5.10524 93.367L5.40554 92.893L5.70584 92.4191L6.00614 91.7082L6.30644 90.9973L6.45659 90.0494L6.60674 89.1016H12.6128L12.4626 90.0494L12.1623 90.9973L12.0121 91.7082L11.7118 92.4191L11.4115 92.893L10.9611 93.367L10.6608 93.6039H10.3605Z" fill="#7F7F7F"/>
<path d="M10.3605 74.8828H4.35449H4.65479L5.10524 75.1198L5.40554 75.5937L5.70584 76.0676L6.00614 76.7785L6.30644 77.4894L6.45659 78.4373L6.60674 79.6221H12.6128L12.4626 78.6743L12.1623 77.7264L12.0121 76.7785L11.7118 76.0676L11.4115 75.5937L10.9611 75.1198L10.6608 74.8828H10.3605Z" fill="#7F7F7F"/>
</g>
<defs>
<clipPath id="clip0_2109_240813">
<rect width="150" height="150" fill="white"/>
</clipPath>
</defs>
</svg>
