<svg width="150" height="150" viewBox="0 0 150 150" fill="none" xmlns="http://www.w3.org/2000/svg">
<g clip-path="url(#clip0_2109_240034)">
<path d="M79.3418 149.998L83.5334 146.694V128.076H87.7251V28.9766H61.9766V128.076H66.1682V146.694L70.3598 149.998H79.3418Z" fill="#7F7F7F"/>
<path d="M78.1434 149.998L81.1374 146.694V127.775H84.7302V28.9766H64.9697V127.775H67.9637V146.694L71.5566 149.998H78.1434Z" fill="#999999"/>
<path d="M76.9459 149.998L79.3411 146.694V127.775H81.7363V28.9766H67.9639V127.775H70.3591V146.694L72.7543 149.998H76.9459Z" fill="#B2B2B2"/>
<path d="M76.3474 149.998L77.545 146.694V127.775H79.3414V28.9766H70.3594V127.775H72.1558V146.694L73.3534 149.998H76.3474Z" fill="#CCCCCC"/>
<path d="M75.1499 149.998L75.7487 146.694V128.076H76.3475V28.9766H73.3535V128.076H73.9523V146.694L74.5511 149.998H75.1499Z" fill="#E5E5E5"/>
<path d="M79.3418 149.998L83.5334 146.694V128.076H87.7251V28.9766H61.9766V128.076H66.1682V146.694L70.3598 149.998H79.3418Z" stroke="black" stroke-width="0.424053"/>
<path d="M68.5625 128.078H81.1374" stroke="#7F7F7F" stroke-width="0.424053"/>
<path d="M68.5625 146.695H81.1374" stroke="#7F7F7F" stroke-width="0.424053"/>
<path d="M103.892 103.457L84.7305 105.86H64.9701L45.8084 103.457L29.3413 98.3522L14.9701 91.4453L5.08982 82.7366L0 73.127V63.2171L5.08982 53.6075L14.9701 45.1991L29.3413 37.9919L45.8084 33.1871L64.9701 30.4844H84.7305L103.892 33.1871L121.257 37.9919L135.03 45.1991L145.21 53.6075L150 63.2171V73.127L145.21 82.7366L135.03 91.4453L121.257 98.3522L103.892 103.457Z" fill="#4C4C4C" stroke="black" stroke-width="0.424053"/>
<path d="M59.5811 28.0781L60.7787 14.1141L62.5751 13.2132L63.7727 0.900901L65.5691 0H84.132L85.9284 0.900901L87.7248 13.2132L88.9224 14.1141L90.7188 28.0781L88.9224 28.979H60.7787L59.5811 28.0781Z" fill="#666666"/>
<path d="M62.5752 27.4775L63.7728 13.6637L64.9704 12.7628L66.168 0.45045L67.3656 0H82.3357L83.5333 0.45045L84.7309 12.7628L86.5273 13.6637L87.7249 27.4775L86.5273 28.0781H63.7728L62.5752 27.4775Z" fill="#7F7F7F"/>
<path d="M59.5811 28.0781L60.7787 14.1141L62.5751 13.2132L63.7727 0.900901L65.5691 0H84.132L85.9284 0.900901L87.7248 13.2132L88.9224 14.1141L90.7188 28.0781L88.9224 28.979H60.7787L59.5811 28.0781Z" stroke="black" stroke-width="0.424053"/>
<path d="M74.8505 27.9279C75.6773 27.9279 76.3475 21.676 76.3475 13.964C76.3475 6.25188 75.6773 0 74.8505 0C74.0237 0 73.3535 6.25188 73.3535 13.964C73.3535 21.676 74.0237 27.9279 74.8505 27.9279Z" fill="#999999"/>
<path d="M123.054 82.4314H27.2452L23.6524 80.3293L21.2572 76.125L20.0596 71.0199V65.3142L21.2572 60.2091L23.6524 56.3052L26.6464 54.2031H123.054L126.048 56.3052L128.443 60.2091L129.64 65.3142V71.0199L128.443 76.125L126.048 80.3293L123.054 82.4314Z" fill="#333333"/>
<path d="M118.862 80.0284H30.838L28.4428 78.2266L26.347 74.9233L25.1494 70.7191V65.9143L26.347 61.7101L28.4428 58.1065L30.838 56.3047H118.862L121.856 58.1065L123.652 61.4098L124.85 65.9143V70.7191L123.652 74.9233L121.856 78.2266L118.862 80.0284Z" fill="#CCCCCC"/>
<path d="M30.8379 43.9922H42.5145V47.8961H30.8379V43.9922Z" fill="#9999CC" stroke="black" stroke-width="0.424053"/>
<path d="M59.5811 43.9922H70.3595V47.8961H59.5811V43.9922Z" fill="#9999CC" stroke="black" stroke-width="0.424053"/>
<path d="M98.5033 98.05L93.7129 95.9479V92.6446L98.5033 90.2422H105.09L109.282 92.6446V95.9479L105.09 98.05H98.5033Z" fill="#9999CC" stroke="black" stroke-width="0.424053"/>
<path d="M45.5088 98.05L40.4189 95.9479V92.6446L45.5088 90.2422H51.7962L55.9878 92.6446V95.9479L51.7962 98.05H45.5088Z" fill="#333333" stroke="black" stroke-width="0.424053"/>
<path d="M95.2096 50.9032C102.981 50.9032 109.281 47.7436 109.281 43.8461C109.281 39.9486 102.981 36.7891 95.2096 36.7891C87.4379 36.7891 81.1377 39.9486 81.1377 43.8461C81.1377 47.7436 87.4379 50.9032 95.2096 50.9032Z" fill="#666666" stroke="black" stroke-width="0.424053"/>
<path d="M84.1318 43.0938H106.288V44.5953H84.1318V43.0938Z" fill="#4C4C4C"/>
</g>
<defs>
<clipPath id="clip0_2109_240034">
<rect width="150" height="150" fill="white"/>
</clipPath>
</defs>
</svg>
