<svg width="150" height="150" viewBox="0 0 150 150" fill="none" xmlns="http://www.w3.org/2000/svg">
<g clip-path="url(#clip0_2109_240434)">
<path d="M7.49023 21.4688H142.308V136.334H7.49023V21.4688Z" fill="#006633" stroke="black" stroke-width="0.348682"/>
<path d="M38.057 21.4748H7.49023V4.50781H38.057V21.4748Z" fill="#7F7F7F" stroke="black" stroke-width="0.348682"/>
<path d="M9.10938 3.30469H36.6397V4.50589H9.10938V3.30469Z" fill="#7F7F7F" stroke="black" stroke-width="0.348682"/>
<path d="M10.5264 3.3033H35.0203V0H10.5264V3.3033Z" fill="#7F7F7F" stroke="black" stroke-width="0.348682"/>
<path d="M38.0567 136.336V145.345H7.69231V139.639L0 137.387V136.336H38.0567Z" fill="#7F7F7F" stroke="black" stroke-width="0.348682"/>
<path d="M10.5264 5.55469V132.882" stroke="black" stroke-width="0.348682"/>
<path d="M13.5625 5.55469V132.882" stroke="black" stroke-width="0.348682"/>
<path d="M34.8174 5.55469V132.882" stroke="black" stroke-width="0.348682"/>
<path d="M37.8542 134.087H39.2712V23.7266H36.6396V134.087H37.8542Z" fill="black"/>
<path d="M111.741 21.4748H142.308V4.50781H111.741V21.4748Z" fill="#7F7F7F" stroke="black" stroke-width="0.348682"/>
<path d="M140.891 3.30469H113.36V4.50589H140.891V3.30469Z" fill="#7F7F7F" stroke="black" stroke-width="0.348682"/>
<path d="M139.271 3.3033H114.777V0H139.271V3.3033Z" fill="#7F7F7F" stroke="black" stroke-width="0.348682"/>
<path d="M111.741 136.336V145.345H142.308V139.639L150 137.387V136.336H111.741Z" fill="#7F7F7F" stroke="black" stroke-width="0.348682"/>
<path d="M139.271 5.55469V132.882" stroke="black" stroke-width="0.348682"/>
<path d="M136.234 5.55469V132.882" stroke="black" stroke-width="0.348682"/>
<path d="M114.979 5.55469V132.882" stroke="black" stroke-width="0.348682"/>
<path d="M111.943 134.087H113.36V23.7266H110.526V134.087H111.943Z" fill="black"/>
<path d="M38.0566 136.336H111.741V145.345H38.0566V136.336Z" fill="#7F7F7F" stroke="black" stroke-width="0.348682"/>
<path d="M38.0566 4.50814L42.7125 1.05469H107.085L111.741 4.50814V21.4751H38.0566V4.50814Z" fill="#7F7F7F" stroke="black" stroke-width="0.348682"/>
<path d="M41.0928 21.4748H73.279V4.50781H41.0928V21.4748Z" stroke="black" stroke-width="0.348682"/>
<path d="M76.5186 21.4748H108.705V4.50781H76.5186V21.4748Z" stroke="black" stroke-width="0.348682"/>
<path d="M44.332 21.4688H59.7166V137.535H44.332V21.4688Z" fill="#FFFF00" stroke="black" stroke-width="0.348682"/>
<path d="M55.0608 38.5899C55.9552 38.5899 56.6803 38.0521 56.6803 37.3887C56.6803 36.7253 55.9552 36.1875 55.0608 36.1875C54.1665 36.1875 53.4414 36.7253 53.4414 37.3887C53.4414 38.0521 54.1665 38.5899 55.0608 38.5899Z" fill="black" stroke="black" stroke-width="0.348682"/>
<path d="M55.0608 65.7696C55.9552 65.7696 56.6803 65.2318 56.6803 64.5684C56.6803 63.905 55.9552 63.3672 55.0608 63.3672C54.1665 63.3672 53.4414 63.905 53.4414 64.5684C53.4414 65.2318 54.1665 65.7696 55.0608 65.7696Z" fill="black" stroke="black" stroke-width="0.348682"/>
<path d="M55.0608 93.0899C55.9552 93.0899 56.6803 92.5521 56.6803 91.8887C56.6803 91.2253 55.9552 90.6875 55.0608 90.6875C54.1665 90.6875 53.4414 91.2253 53.4414 91.8887C53.4414 92.5521 54.1665 93.0899 55.0608 93.0899Z" fill="black" stroke="black" stroke-width="0.348682"/>
<path d="M55.0608 120.418C55.9552 120.418 56.6803 119.88 56.6803 119.217C56.6803 118.553 55.9552 118.016 55.0608 118.016C54.1665 118.016 53.4414 118.553 53.4414 119.217C53.4414 119.88 54.1665 120.418 55.0608 120.418Z" fill="black" stroke="black" stroke-width="0.348682"/>
<path d="M68.8262 21.4688H107.085V137.535H68.8262V21.4688Z" fill="black" stroke="black" stroke-width="0.348682"/>
<path d="M64.1699 21.4688V135.132" stroke="black" stroke-width="0.348682"/>
<path d="M97.7729 134.082V115.914H74.8984V129.428L82.5907 134.082H97.7729Z" fill="white" stroke="black" stroke-width="0.348682"/>
<path d="M77.9355 118.172H94.7372V123.878H77.9355V118.172Z" fill="black" stroke="black" stroke-width="0.348682"/>
<path d="M97.7729 106.754V88.5859H74.8984V102.25L82.5907 106.754H97.7729Z" fill="#FF0000" stroke="black" stroke-width="0.348682"/>
<path d="M77.9355 90.8438H94.7372V96.5495H77.9355V90.8438Z" fill="black" stroke="black" stroke-width="0.348682"/>
<path d="M97.7729 79.5761V61.2578H74.8984V74.9215L82.5907 79.5761H97.7729Z" fill="#E5E5E5" stroke="black" stroke-width="0.348682"/>
<path d="M77.9355 63.5156H94.7372V69.2213H77.9355V63.5156Z" fill="black" stroke="black" stroke-width="0.348682"/>
<path d="M97.7729 52.2541V34.0859H74.8984V47.5995L82.5907 52.2541H97.7729Z" fill="#FFFF00" stroke="black" stroke-width="0.348682"/>
<path d="M77.9355 36.3359H94.7372V42.0416H77.9355V36.3359Z" fill="black" stroke="black" stroke-width="0.348682"/>
<path d="M73.2793 23.7266H102.429V28.3812H73.2793V23.7266Z" fill="#006633"/>
<path d="M82.5908 145.344H113.36V148.797H82.5908V145.344Z" fill="black" stroke="black" stroke-width="0.348682"/>
<path d="M93.3203 145.344H102.43V149.998H93.3203V145.344Z" fill="#FFFF00" stroke="black" stroke-width="0.348682"/>
<path d="M44.332 145.344H77.9353V146.545H44.332V145.344Z" fill="black" stroke="black" stroke-width="0.348682"/>
</g>
<defs>
<clipPath id="clip0_2109_240434">
<rect width="150" height="150" fill="white"/>
</clipPath>
</defs>
</svg>
