<svg width="150" height="150" viewBox="0 0 150 150" fill="none" xmlns="http://www.w3.org/2000/svg">
<g clip-path="url(#clip0_2109_240559)">
<path d="M0 0H148.348V150H0V0Z" fill="#7F7F7F" stroke="black" stroke-width="0.301967"/>
<path d="M12.3125 43.7266H136.036V137.552H12.3125V43.7266Z" fill="white" stroke="black" stroke-width="0.301967"/>
<path d="M150 56.1719H139.039V88.9654H150V56.1719Z" fill="#6699FF" stroke="#0000FF" stroke-width="0.301967"/>
<path d="M13.0635 46H135.286V49.1883H13.0635V46Z" fill="#99FFFF" stroke="white" stroke-width="0.301967"/>
<path d="M13.0635 43.7266H135.286V46.0039H13.0635V43.7266Z" fill="#00FFFF" stroke="#00FFFF" stroke-width="0.301967"/>
<path d="M92.6428 138.31L55.5557 112.5L92.6428 87.4494L55.5557 62.3988L91.892 37.5" stroke="#FF0000" stroke-width="0.301967"/>
<path d="M12.3125 12.4531H136.036V43.7284H12.3125V12.4531Z" fill="#333333" stroke="black" stroke-width="0.301967"/>
<path d="M115.165 125.708L86.3362 111.285L84.6846 109.463V105.819L86.4864 103.998L115.165 89.4226L116.967 87.7526V83.957L115.165 82.287L86.4864 67.7121L84.6846 65.8902V62.2465L86.4864 60.4246L115.165 46.0015L116.967 44.1797" stroke="#0000FF" stroke-width="0.301967"/>
<path d="M12.3125 125.711H136.036V137.553H12.3125V125.711Z" fill="#E5E5E5" stroke="black" stroke-width="0.301967"/>
<path d="M21.6214 127.375L22.8226 127.982L23.1229 128.893L22.3721 130.26L21.6214 130.411L20.27 129.804L19.9697 128.893L20.7205 127.679L21.6214 127.375Z" fill="#0000FF" stroke="black" stroke-width="0.301967"/>
<path d="M21.6214 130.414L22.8226 131.173L23.1229 132.084L22.3721 133.299L21.6214 133.602L20.27 132.843L19.9697 132.084L20.7205 130.718L21.6214 130.414Z" fill="#FF0000" stroke="black" stroke-width="0.301967"/>
<path d="M21.6214 133.602L22.8226 134.209L23.1229 135.12L22.3721 136.334L21.6214 136.638L20.27 136.031L19.9697 135.12L20.7205 133.905L21.6214 133.602Z" fill="#00FF00" stroke="black" stroke-width="0.301967"/>
<path d="M20.8711 124.949V112.499H46.2465L45.4957 88.2078H21.6218V63.309L46.2465 64.0681V45.2422" stroke="#00FF00" stroke-width="0.301967"/>
<path d="M123.573 21.8594H129.88V34.3088H123.573V21.8594Z" stroke="#00FFFF" stroke-width="0.301967"/>
</g>
<defs>
<clipPath id="clip0_2109_240559">
<rect width="150" height="150" fill="white"/>
</clipPath>
</defs>
</svg>
