<svg width="150" height="150" viewBox="0 0 150 150" fill="none" xmlns="http://www.w3.org/2000/svg">
<g clip-path="url(#clip0_2109_240497)">
<path d="M69.4492 1.64844H101.811V45.9427H69.4492V1.64844Z" fill="#7F7F7F" stroke="black" stroke-width="0.376662"/>
<path d="M85.5117 42.4893C115.126 42.4893 139.134 33.3467 139.134 22.0689C139.134 10.791 115.126 1.64844 85.5117 1.64844C55.8971 1.64844 31.8896 10.791 31.8896 22.0689C31.8896 33.3467 55.8971 42.4893 85.5117 42.4893Z" fill="#E5E5E5" stroke="black" stroke-width="0.376662"/>
<path d="M134.174 13.5103L128.268 9.75655L120.473 6.60339L114.567 4.80159L107.953 3.45024L100.866 2.39919L93.3074 1.79859L85.5121 1.64844L77.9531 1.79859L70.394 2.54934L63.3074 3.45024L56.6932 4.95174L50.5515 6.60339L42.7562 9.75655L37.0869 13.5103H134.174Z" fill="#B2B2B2" stroke="black" stroke-width="0.376662"/>
<path d="M83.1494 6.75676H88.3463V0H83.1494V6.75676Z" fill="#7F7F7F" stroke="black" stroke-width="0.376662"/>
<path d="M133.937 13.5164V12.7656H37.5586V14.2671H133.937V13.5164Z" fill="black"/>
<path d="M98.9766 37.238C110.718 37.238 120.236 31.1878 120.236 23.7245C120.236 16.2611 110.718 10.2109 98.9766 10.2109C87.2352 10.2109 77.7168 16.2611 77.7168 23.7245C77.7168 31.1878 87.2352 37.238 98.9766 37.238Z" fill="#7F7F7F" stroke="black" stroke-width="0.376662"/>
<path d="M85.9846 13.0625L116.221 32.2817L112.441 34.6841L82.2051 15.4649L85.9846 13.0625Z" fill="#4C4C4C" stroke="black" stroke-width="0.376662"/>
<path d="M98.9763 32.2812C106.413 32.2812 112.441 28.4494 112.441 23.7226C112.441 18.9959 106.413 15.1641 98.9763 15.1641C91.54 15.1641 85.5117 18.9959 85.5117 23.7226C85.5117 28.4494 91.54 32.2812 98.9763 32.2812Z" fill="#999999" stroke="black" stroke-width="0.376662"/>
<path d="M89.0547 19.0703H109.133V28.5298H89.0547V19.0703Z" fill="#E5E5E5" stroke="black" stroke-width="0.376662"/>
<path d="M91.1807 22.0703H107.244V25.5238H91.1807V22.0703Z" fill="#00CCFF" stroke="black" stroke-width="0.376662"/>
<path d="M40.1572 13.5156H58.8186L56.6927 15.1673L55.0391 17.1192L53.858 19.0712L53.6218 21.3234V23.2754L53.858 25.2273L54.8029 27.0291L55.984 28.6808L57.4013 29.7318L58.8186 30.6327H40.1572V13.5156Z" fill="#E5E5E5" stroke="black" stroke-width="0.376662"/>
<path d="M40.1572 30.6285L16.0627 35.7336L8.03125 35.5834V8.40625H16.0627L40.1572 13.5114V30.6285Z" fill="#E5E5E5" stroke="black" stroke-width="0.376662"/>
<path d="M8.0315 35.7336L0 34.0819V10.2081L8.0315 8.40625V35.7336Z" fill="#B2B2B2" stroke="black" stroke-width="0.376662"/>
<path d="M0 10.9609H2.59843V12.7627H0V10.9609Z" fill="#666666" stroke="black" stroke-width="0.376662"/>
<path d="M0 14.4141H2.59843V16.0657H0V14.4141Z" fill="#666666" stroke="black" stroke-width="0.376662"/>
<path d="M0 17.8672H2.59843V19.5188H0V17.8672Z" fill="#666666" stroke="black" stroke-width="0.376662"/>
<path d="M0 21.3203H2.59843V22.972H0V21.3203Z" fill="#666666" stroke="black" stroke-width="0.376662"/>
<path d="M0 24.625H2.59843V26.4268H0V24.625Z" fill="#666666" stroke="black" stroke-width="0.376662"/>
<path d="M0 28.0781H2.59843V29.7298H0V28.0781Z" fill="#666666" stroke="black" stroke-width="0.376662"/>
<path d="M0 31.3828H2.59843V33.1846H0V31.3828Z" fill="#666666" stroke="black" stroke-width="0.376662"/>
<path d="M50.7871 56.3047H120.472V109.007H50.7871V56.3047Z" fill="#7F7F7F" stroke="black" stroke-width="0.376662"/>
<path d="M66.6143 56.7561V54.5039H68.0316L69.4489 45.9453H101.575L102.992 54.5039H104.41V56.7561H66.6143Z" fill="#7F7F7F" stroke="black" stroke-width="0.376662"/>
<path d="M37.5586 56.1562H42.7554V109.009H37.5586V56.1562Z" fill="#7F7F7F" stroke="black" stroke-width="0.376662"/>
<path d="M10.6299 56.1562V67.5677H37.559V56.1562H10.6299Z" fill="#7F7F7F"/>
<path d="M37.559 56.1562H10.6299V67.5677H37.559V56.1562Z" stroke="black" stroke-width="0.376662"/>
<path d="M13.2285 56.1573V34.0852L21.26 23.875H26.6931L34.7246 34.0852V56.1573H13.2285Z" fill="#E5E5E5" stroke="black" stroke-width="0.376662"/>
<path d="M66.8506 148.197L69.6852 144.744V109.008H101.811V144.744L104.41 148.197H66.8506Z" fill="#E5E5E5" stroke="black" stroke-width="0.376662"/>
<path d="M8.03125 148.195H150V149.847H8.03125V148.195Z" fill="#B2B2B2" stroke="black" stroke-width="0.376662"/>
<path d="M75.3542 45.9453V54.5039H68.2676L69.4487 45.9453H75.3542Z" fill="#4C4C4C" stroke="black" stroke-width="0.376662"/>
<path d="M79.8428 45.9453H91.4176V54.5039H79.8428V45.9453Z" fill="#4C4C4C" stroke="black" stroke-width="0.376662"/>
<path d="M95.9053 45.9453V54.5039H103.228L101.575 45.9453H95.9053Z" fill="#4C4C4C" stroke="black" stroke-width="0.376662"/>
<path d="M97.5588 88.1386H73.4643L72.047 86.487L71.1021 84.6852L70.3934 82.8834L70.1572 80.9314L70.3934 78.6792L71.3383 76.5771L72.7557 74.6251L74.6454 72.9735L77.0076 71.6221L79.606 70.7212L82.4407 69.9705L85.5116 69.8203L88.5824 69.9705L91.4171 70.7212L94.2517 71.6221L96.6139 72.9735L98.5037 74.6251L99.921 76.5771L100.63 78.6792L101.102 80.9314L100.866 82.8834L100.157 84.6852L98.9761 86.487L97.5588 88.1386Z" fill="black" stroke="black" stroke-width="0.376662"/>
<path d="M87.8743 94.297C89.9616 94.297 91.6538 93.2214 91.6538 91.8946C91.6538 90.5678 89.9616 89.4922 87.8743 89.4922C85.7869 89.4922 84.0947 90.5678 84.0947 91.8946C84.0947 93.2214 85.7869 94.297 87.8743 94.297Z" stroke="#333333" stroke-width="0.376662"/>
<path d="M87.8742 92.9459C88.7875 92.9459 89.5278 92.4753 89.5278 91.8948C89.5278 91.3143 88.7875 90.8438 87.8742 90.8438C86.961 90.8438 86.2207 91.3143 86.2207 91.8948C86.2207 92.4753 86.961 92.9459 87.8742 92.9459Z" stroke="#333333" stroke-width="0.376662"/>
<path d="M76.7719 95.3444C79.7725 95.3444 82.205 93.7982 82.205 91.891C82.205 89.9837 79.7725 88.4375 76.7719 88.4375C73.7713 88.4375 71.3389 89.9837 71.3389 91.891C71.3389 93.7982 73.7713 95.3444 76.7719 95.3444Z" stroke="#333333" stroke-width="0.376662"/>
<path d="M89.0555 91.1406L89.2917 91.2908L89.5279 91.5911V91.7412V92.0415V92.492L89.0555 92.7923L88.583 93.0926L87.6381 93.2427L87.4019 93.0926H87.1657L86.6933 92.9424L86.457 92.7923" stroke="#B2B2B2" stroke-width="0.376662"/>
<path d="M85.0396 93.6947L84.8034 93.5445L84.5672 93.2442L84.3309 93.0941V92.9439L84.0947 92.6436V92.4935V92.1932V92.043V91.4424L84.3309 91.1421L84.5672 90.6917L85.0396 90.2412L85.7483 90.0911L86.2207 89.7908L86.9294 89.6406H87.638H88.1105H88.5829L88.8191 89.7908H89.2916L89.5278 89.9409L89.764 90.0911L90.0002 90.2412L90.2365 90.3914" stroke="#B2B2B2" stroke-width="0.376662"/>
<path d="M72.7561 94.4435L72.2836 94.2934L72.0474 93.9931L71.8112 93.6928L71.575 93.3925L71.3388 93.0922V92.6417L71.1025 92.3414V92.0411L71.3388 91.2904L71.575 90.6898L72.0474 90.0892L72.7561 89.4886L73.701 89.0381L74.6458 88.7378L75.5907 88.5877L76.7718 88.4375H77.2443L77.7167 88.5877L78.4254 88.7378H78.8978L79.3703 88.888L79.8427 89.0381L80.3151 89.3384L80.5514 89.4886" stroke="#B2B2B2" stroke-width="0.376662"/>
<path d="M48.1895 59.6094H50.7879V69.8196H48.1895V59.6094Z" fill="black" stroke="black" stroke-width="0.376662"/>
<path d="M10.6299 35.7344H13.2283V44.2929H10.6299V35.7344Z" fill="black" stroke="black" stroke-width="0.376662"/>
<path d="M111.26 103H119.291V108.255H111.26V103Z" fill="#666666"/>
<path d="M42.7559 103.906H50.7874V109.011H42.7559V103.906Z" fill="#666666"/>
<path d="M52.2051 103H60.2366V108.255H52.2051V103Z" fill="#666666"/>
<path d="M52.2051 57.0547H60.2366V62.1598H52.2051V57.0547Z" fill="#666666"/>
<path d="M111.26 57.0547H119.291V62.1598H111.26V57.0547Z" fill="#666666"/>
</g>
<defs>
<clipPath id="clip0_2109_240497">
<rect width="150" height="150" fill="white"/>
</clipPath>
</defs>
</svg>
