<svg width="150" height="150" viewBox="0 0 150 150" fill="none" xmlns="http://www.w3.org/2000/svg">
<g clip-path="url(#clip0_2109_239878)">
<path d="M13.0187 0L8.4904 11.7117L8.77342 18.6186L4.24512 23.2733V77.1772H6.50927V100.45L8.77342 102.853H141.226L143.207 100.45V77.1772H145.472V23.2733L141.226 18.6186V11.5616L132.17 0H13.0187Z" fill="#99FFFF" stroke="black" stroke-width="0.412288"/>
<path d="M30.5664 121.773H119.151V150.002H30.5664V121.773Z" fill="#E5E5E5" stroke="black" stroke-width="0.412288"/>
<path d="M30.8487 121.769L13.0186 103H136.698L119.151 121.769H30.8487Z" fill="#E5E5E5" stroke="black" stroke-width="0.412288"/>
<path d="M12.7363 11.5625H136.699" stroke="#7F7F7F" stroke-width="0.412288"/>
<path d="M13.0186 18.6172H136.698" stroke="#7F7F7F" stroke-width="0.412288"/>
<path d="M11.0381 22.2188H138.963" stroke="#7F7F7F" stroke-width="0.412288"/>
<path d="M19.8115 25.8281V51.5038L24.0568 53.7561H37.3587L41.887 51.5038V25.8281H19.8115Z" fill="#00FFFF"/>
<path d="M24.0568 53.75L19.8115 51.3476V25.6719H41.887" stroke="#7F7F7F" stroke-width="0.412288"/>
<path d="M108.113 25.8281V51.5038L112.359 53.7561H125.66L130.189 51.5038V25.8281H108.113Z" fill="#00FFFF"/>
<path d="M112.359 53.75L108.113 51.3476V25.6719H130.189" stroke="#7F7F7F" stroke-width="0.412288"/>
<path d="M63.9619 25.8281V51.5038L68.4902 53.7561H81.7921L86.0374 51.5038V25.8281H63.9619Z" fill="#00FFFF"/>
<path d="M68.4902 53.75L63.9619 51.3476L64.2449 25.6719H86.0374" stroke="#7F7F7F" stroke-width="0.412288"/>
<path d="M48.3965 143.992H101.321V149.848H48.3965V143.992Z" fill="white" stroke="black" stroke-width="0.412288"/>
<path d="M37.3584 100.603V79.4319L41.8867 77.1797H55.1886L59.4339 79.5821V100.603H37.3584Z" fill="#00FFFF"/>
<path d="M125.66 100.603V79.4319L130.188 77.1797H143.49L143.207 100.603H125.66Z" fill="#00FFFF"/>
<path d="M81.793 100.603V79.4319L86.0383 77.1797H99.3401L103.585 79.5821V100.603H81.793Z" fill="#00FFFF"/>
<path d="M6.50958 100.603L6.22656 77.3298L10.7549 77.1797L15.2832 79.5821V100.603H6.50958Z" fill="#00FFFF"/>
<path d="M37.3584 100.603V79.5821L41.8867 77.1797H54.9056L59.4339 79.5821" stroke="#7F7F7F" stroke-width="0.412288"/>
<path d="M81.5098 100.603V79.5821L86.0381 77.1797H99.0569L103.585 79.5821" stroke="#7F7F7F" stroke-width="0.412288"/>
<path d="M125.66 100.603V79.5821L130.188 77.1797H143.207" stroke="#7F7F7F" stroke-width="0.412288"/>
<path d="M6.50977 77.1797H10.755" stroke="#7F7F7F" stroke-width="0.412288"/>
<path d="M6.50977 100.603V77.1797" stroke="black" stroke-width="0.412288"/>
<path d="M150 56.1543H83.7736L81.7924 54.9531H68.4906L66.2264 56.1543H0V74.7729H150V56.1543Z" fill="#99FFFF" stroke="#7F7F7F" stroke-width="0.412288"/>
<path d="M24.057 69.9699C28.7462 69.9699 32.5475 67.9532 32.5475 65.4654C32.5475 62.9777 28.7462 60.9609 24.057 60.9609C19.3678 60.9609 15.5664 62.9777 15.5664 65.4654C15.5664 67.9532 19.3678 69.9699 24.057 69.9699Z" fill="#E5E5E5" stroke="black" stroke-width="0.412288"/>
<path d="M125.66 69.9699C130.35 69.9699 134.151 67.9532 134.151 65.4654C134.151 62.9777 130.35 60.9609 125.66 60.9609C120.971 60.9609 117.17 62.9777 117.17 65.4654C117.17 67.9532 120.971 69.9699 125.66 69.9699Z" fill="#E5E5E5" stroke="black" stroke-width="0.412288"/>
<path d="M74.9997 73.571C78.5947 73.571 81.5091 72.0248 81.5091 70.1175C81.5091 68.2102 78.5947 66.6641 74.9997 66.6641C71.4046 66.6641 68.4902 68.2102 68.4902 70.1175C68.4902 72.0248 71.4046 73.571 74.9997 73.571Z" fill="#FFFF00" stroke="black" stroke-width="0.412288"/>
<path d="M125.661 68.9225C129.256 68.9225 132.17 67.3764 132.17 65.4691C132.17 63.5618 129.256 62.0156 125.661 62.0156C122.066 62.0156 119.151 63.5618 119.151 65.4691C119.151 67.3764 122.066 68.9225 125.661 68.9225Z" fill="black" stroke="black" stroke-width="0.412288"/>
<path d="M24.0563 68.9225C27.6514 68.9225 30.5657 67.3764 30.5657 65.4691C30.5657 63.5618 27.6514 62.0156 24.0563 62.0156C20.4612 62.0156 17.5469 63.5618 17.5469 65.4691C17.5469 67.3764 20.4612 68.9225 24.0563 68.9225Z" fill="black" stroke="black" stroke-width="0.412288"/>
<path d="M75.0003 65.3137C79.6895 65.3137 83.4909 63.297 83.4909 60.8092C83.4909 58.3214 79.6895 56.3047 75.0003 56.3047C70.3111 56.3047 66.5098 58.3214 66.5098 60.8092C66.5098 63.297 70.3111 65.3137 75.0003 65.3137Z" fill="#B2B2B2" stroke="black" stroke-width="0.412288"/>
<path d="M72.7358 72.5236L70.4717 70.1212L72.7358 67.7188H77.2641L79.5283 70.1212L77.2641 72.5236H72.7358Z" fill="black" stroke="black" stroke-width="0.412288"/>
<path d="M4.24512 74.9219H145.472V77.1741H4.24512V74.9219Z" fill="#00FFFF"/>
<path d="M0 74.9219H150" stroke="black" stroke-width="0.412288"/>
<path d="M15.2832 105.258H134.434" stroke="black" stroke-width="0.412288"/>
</g>
<defs>
<clipPath id="clip0_2109_239878">
<rect width="150" height="150" fill="white"/>
</clipPath>
</defs>
</svg>
