<svg width="150" height="150" viewBox="0 0 150 150" fill="none" xmlns="http://www.w3.org/2000/svg">
<g clip-path="url(#clip0_2109_240576)">
<path d="M0 0H150V150H0V0Z" fill="black" stroke="black" stroke-width="0.329061"/>
<path d="M0 0H150L148.197 1.5015L1.80288 148.348L0 150V0Z" fill="#E5E5E5" stroke="black" stroke-width="0.329061"/>
<path d="M1.80273 1.5H148.197V148.347H1.80273V1.5Z" fill="#7F7F7F" stroke="black" stroke-width="0.329061"/>
<path d="M18.75 1.5H73.0168V87.3859H18.75V1.5Z" fill="black" stroke="black" stroke-width="0.329061"/>
<path d="M74.8195 135.736C106.881 135.736 132.872 114.089 132.872 87.3874C132.872 60.6854 106.881 39.0391 74.8195 39.0391C42.7578 39.0391 16.7666 60.6854 16.7666 87.3874C16.7666 114.089 42.7578 135.736 74.8195 135.736Z" fill="white" stroke="black" stroke-width="0.329061"/>
<path d="M75 91.2922C77.5888 91.2922 79.6875 89.5443 79.6875 87.3883C79.6875 85.2322 77.5888 83.4844 75 83.4844C72.4112 83.4844 70.3125 85.2322 70.3125 87.3883C70.3125 89.5443 72.4112 91.2922 75 91.2922Z" fill="black" stroke="black" stroke-width="0.329061"/>
<path d="M21.4541 15.6172H52.4637V24.9265H21.4541V15.6172Z" stroke="#7F7F7F" stroke-width="0.329061"/>
<path d="M46.875 17.8672H49.5793V23.4227H46.875V17.8672Z" stroke="#00FFFF" stroke-width="0.329061"/>
<path d="M131.611 51.3537C134.399 51.3537 136.659 49.4714 136.659 47.1495C136.659 44.8276 134.399 42.9453 131.611 42.9453C128.823 42.9453 126.562 44.8276 126.562 47.1495C126.562 49.4714 128.823 51.3537 131.611 51.3537Z" fill="black" stroke="black" stroke-width="0.329061"/>
<path d="M101.142 84.2359H103.125V45.1968L99.3389 43.6953L101.142 84.2359Z" fill="black" stroke="black" stroke-width="0.329061"/>
<path d="M75.0001 99.8468C83.2644 99.8468 89.964 94.2672 89.964 87.3843C89.964 80.5015 83.2644 74.9219 75.0001 74.9219C66.7357 74.9219 60.0361 80.5015 60.0361 87.3843C60.0361 94.2672 66.7357 99.8468 75.0001 99.8468Z" stroke="#CCCCCC" stroke-width="0.329061"/>
<path d="M92.8486 87.8407V88.5914L102.224 85.4383L102.043 84.6875L92.6683 87.8407L91.4062 88.2911L92.6683 88.5914L92.8486 87.8407Z" fill="#FF0000"/>
<path d="M112.5 91.7398L92.8483 87.8359L92.668 88.5867L112.319 92.4906V91.7398L112.5 92.4906L114.303 92.0401L112.5 91.7398Z" fill="#FF0000"/>
<path d="M96.6343 94.8953V95.4959L112.5 92.4929L112.319 91.7422L96.454 94.8953L95.0117 95.1956L96.454 95.4959L96.6343 94.8953Z" fill="#FF0000"/>
<path d="M112.68 98.8023L96.6344 94.8984L96.4541 95.499L112.319 99.5531L112.5 98.8023V99.5531L114.483 99.2528L112.68 98.8023Z" fill="#FF0000"/>
<path d="M98.7983 100.599L98.4377 101.049L112.5 99.5476V98.7969L98.4377 100.298H98.0771V100.599H98.7983Z" fill="#FF0000"/>
<path d="M98.7979 107.659V100.602H98.0768L97.8965 107.659L98.6176 107.508L98.0768 107.959L98.7979 108.56V107.659Z" fill="#FF0000"/>
<path d="M87.6202 99.1023L86.899 99.4026L98.0769 107.961L98.6178 107.511L87.4399 98.9522L86.7188 98.3516V99.1023H87.6202Z" fill="#FF0000"/>
<path d="M89.4231 117.12L87.6202 99.1016H86.7188L88.7019 117.12L89.4231 116.969L88.7019 117.27L89.6034 118.771L89.4231 117.12Z" fill="#FF0000"/>
<path d="M77.3438 97.5979L76.4424 97.7481L88.702 117.268L89.4232 116.967L77.1635 97.4478L76.6227 96.5469L76.4424 97.5979H77.3438Z" fill="#FF0000"/>
<path d="M71.5747 132.729L77.3439 97.5938H76.4425L70.8535 132.729L71.2141 135.281L71.5747 132.729Z" fill="#FF0000"/>
<path d="M67.7885 107.206L67.0674 107.055L70.8534 132.731H71.5746L67.7885 106.905V106.305L67.2477 106.605L67.7885 107.206Z" fill="#FF0000"/>
<path d="M54.6279 115.769L67.7889 107.21L67.248 106.609L54.087 115.318L54.8081 115.769L53.9067 115.468L53.1855 116.669L54.6279 115.769Z" fill="#FF0000"/>
<path d="M64.7236 97.9009L64.1827 97.4505L53.9062 115.468L54.8077 115.769L65.0841 97.7508L65.4447 97L64.5433 97.3003L64.7236 97.9009Z" fill="#FF0000"/>
<path d="M48.8583 102.552L64.7237 97.8975L64.5434 97.2969L48.4977 101.952L49.0386 102.402L48.3175 101.952L47.416 103.003L48.8583 102.552Z" fill="#FF0000"/>
<path d="M55.3486 96.3931L54.9881 95.7925L48.3174 101.949L49.0385 102.399L55.7092 96.2429L56.2501 95.4922L55.1683 95.6423L55.3486 96.3931Z" fill="#FF0000"/>
<path d="M33.7136 98.6514L55.3483 96.3992L55.168 95.6484L33.5334 98.0508L31.7305 98.9517L33.7136 98.6514Z" fill="#FF0000"/>
<path d="M50.4803 90.8428V90.2422L33.5332 98.05L33.8938 98.6506L50.8409 90.8428L51.7423 90.3923L50.6606 90.2422L50.4803 90.8428Z" fill="#FF0000"/>
<path d="M40.2044 88.5867L50.4808 90.8389L50.6611 90.2383L40.3847 87.8359V88.5867L40.0241 87.8359L38.9424 88.2864L40.2044 88.5867Z" fill="#FF0000"/>
<path d="M49.3994 85.2881L49.5797 84.6875L40.0244 87.8407L40.385 88.5914L49.76 85.4383L50.4811 85.138L49.9403 84.8377L49.3994 85.2881Z" fill="#FF0000"/>
<path d="M40.9259 78.2273L49.3994 85.2844L49.9403 84.8339L41.4667 77.7769L41.1061 78.3775L41.2864 77.6267L40.0244 77.4766L40.9259 78.2273Z" fill="#FF0000"/>
<path d="M56.7906 80.628L57.1511 80.0274L41.2858 77.625L41.1055 78.3758L57.1511 80.7782L58.0526 80.9283L57.5117 80.1776L56.7906 80.628Z" fill="#FF0000"/>
<path d="M51.202 73.5711L56.7909 80.6281L57.5121 80.1777L51.9232 73.1206L51.3823 73.7212L51.7429 72.9705L50.6611 72.8203L51.202 73.5711Z" fill="#FF0000"/>
<path d="M61.478 75.8294L62.0189 75.379L51.7424 72.9766L51.3818 73.7273L61.6583 75.9796L62.3794 76.1297L62.1991 75.5291L61.478 75.8294Z" fill="#FF0000"/>
<path d="M59.1346 67.1189L58.5938 67.2691L61.4784 75.8276L62.1995 75.5273L59.4952 66.9688L59.1346 67.1189Z" fill="#FF0000"/>
<path d="M75.0002 112.311C91.5289 112.311 104.928 101.152 104.928 87.3859C104.928 73.6202 91.5289 62.4609 75.0002 62.4609C58.4714 62.4609 45.0723 73.6202 45.0723 87.3859C45.0723 101.152 58.4714 112.311 75.0002 112.311Z" stroke="#CCCCCC" stroke-width="0.329061"/>
<path d="M74.9999 124.927C99.8925 124.927 120.072 108.121 120.072 87.3891C120.072 66.6577 99.8925 49.8516 74.9999 49.8516C50.1072 49.8516 29.9277 66.6577 29.9277 87.3891C29.9277 108.121 50.1072 124.927 74.9999 124.927Z" stroke="#CCCCCC" stroke-width="0.329061"/>
</g>
<defs>
<clipPath id="clip0_2109_240576">
<rect width="150" height="150" fill="white"/>
</clipPath>
</defs>
</svg>
