<svg width="150" height="150" viewBox="0 0 150 150" fill="none" xmlns="http://www.w3.org/2000/svg">
<g clip-path="url(#clip0_2109_240644)">
<path d="M135.586 14.2656H150V52.306H135.586V14.2656Z" fill="#B2B2B2" stroke="black" stroke-width="0.509535"/>
<path d="M41.5918 0H52.1023V150H41.5918V0Z" fill="#B2B2B2" stroke="black" stroke-width="0.509535"/>
<path d="M52.1025 7.35156H135.586V130.983H52.1025V7.35156Z" fill="#191919" stroke="black" stroke-width="0.509535"/>
<path d="M18.168 5.61719H28.6785V143.946H18.168V5.61719Z" fill="#191919" stroke="black" stroke-width="0.509535"/>
<path d="M4.95496 150L0 135.303V14.2651L4.95496 0V150Z" fill="#191919" stroke="black" stroke-width="0.509535"/>
<path d="M72.8232 130.977H114.865V149.997H72.8232V130.977Z" fill="black" stroke="black" stroke-width="0.509535"/>
<path d="M62.0117 14.2656H125.675V112.825H62.0117V14.2656Z" fill="#191919" stroke="#7F7F7F" stroke-width="0.509535"/>
<path d="M70.2703 104.611C71.6801 104.611 72.8229 101.321 72.8229 97.2628C72.8229 93.2042 71.6801 89.9141 70.2703 89.9141C68.8606 89.9141 67.7178 93.2042 67.7178 97.2628C67.7178 101.321 68.8606 104.611 70.2703 104.611Z" fill="#333333" stroke="black" stroke-width="0.509535"/>
<path d="M117.418 104.611C118.828 104.611 119.97 101.321 119.97 97.2628C119.97 93.2042 118.828 89.9141 117.418 89.9141C116.008 89.9141 114.865 93.2042 114.865 97.2628C114.865 101.321 116.008 104.611 117.418 104.611Z" fill="#333333" stroke="black" stroke-width="0.509535"/>
<path d="M28.6787 0H41.5916V150H28.6787V0Z" fill="#666666" stroke="black" stroke-width="0.509535"/>
<path d="M4.95508 0H18.1683V150H4.95508V0Z" fill="#666666" stroke="black" stroke-width="0.509535"/>
<path d="M31.0811 138.758H38.8889V146.539H31.0811V138.758Z" fill="#191919" stroke="black" stroke-width="0.509535"/>
<path d="M31.0811 124.062H38.8889V130.979H31.0811V124.062Z" fill="#191919" stroke="black" stroke-width="0.509535"/>
<path d="M31.0811 108.5H38.8889V116.281H31.0811V108.5Z" fill="#191919" stroke="black" stroke-width="0.509535"/>
<path d="M7.65723 138.758H15.465V146.539H7.65723V138.758Z" fill="#191919" stroke="black" stroke-width="0.509535"/>
<path d="M7.65723 124.062H15.465V130.979H7.65723V124.062Z" fill="#191919" stroke="black" stroke-width="0.509535"/>
<path d="M7.65723 108.5H15.465V116.281H7.65723V108.5Z" fill="#191919" stroke="black" stroke-width="0.509535"/>
<path d="M7.65723 3.02344H15.465V10.8044H7.65723V3.02344Z" fill="#4C4C4C" stroke="black" stroke-width="0.509535"/>
<path d="M7.65723 18.5859H15.465V26.3669H7.65723V18.5859Z" fill="#4C4C4C" stroke="black" stroke-width="0.509535"/>
<path d="M31.0811 3.02344H38.8889V10.8044H31.0811V3.02344Z" fill="#4C4C4C" stroke="black" stroke-width="0.509535"/>
<path d="M31.0811 18.5859H38.8889V26.3669H31.0811V18.5859Z" fill="#4C4C4C" stroke="black" stroke-width="0.509535"/>
<path d="M7.65723 33.2891H15.465V41.07H7.65723V33.2891Z" fill="#333333" stroke="black" stroke-width="0.509535"/>
<path d="M7.65723 48.8438H15.465V55.7602H7.65723V48.8438Z" fill="#333333" stroke="black" stroke-width="0.509535"/>
<path d="M7.65723 63.5469H15.465V71.3279H7.65723V63.5469Z" fill="#333333" stroke="black" stroke-width="0.509535"/>
<path d="M7.65723 78.2422H15.465V86.0232H7.65723V78.2422Z" fill="#333333" stroke="black" stroke-width="0.509535"/>
<path d="M7.65723 93.8047H15.465V101.586H7.65723V93.8047Z" fill="#333333" stroke="black" stroke-width="0.509535"/>
<path d="M31.0811 33.2891H38.8889V41.07H31.0811V33.2891Z" fill="#333333" stroke="black" stroke-width="0.509535"/>
<path d="M31.0811 48.8438H38.8889V55.7602H31.0811V48.8438Z" fill="#333333" stroke="black" stroke-width="0.509535"/>
<path d="M31.0811 63.5469H38.8889V71.3279H31.0811V63.5469Z" fill="#333333" stroke="black" stroke-width="0.509535"/>
<path d="M31.0811 78.2422H38.8889V86.0232H31.0811V78.2422Z" fill="#333333" stroke="black" stroke-width="0.509535"/>
<path d="M31.0811 93.8047H38.8889V101.586H31.0811V93.8047Z" fill="#333333" stroke="black" stroke-width="0.509535"/>
<path d="M136.787 37.6094H148.799V51.4422H136.787V37.6094Z" fill="#999999"/>
<path d="M42.793 111.961H50.9011V146.543H42.793V111.961Z" fill="#999999"/>
<path d="M136.787 18.5859H148.799V22.0442H136.787V18.5859Z" fill="#E5E5E5"/>
<path d="M42.793 10.8047H50.9011V26.3666H42.793V10.8047Z" fill="#E5E5E5"/>
<path d="M19.3691 105.047H27.1769V138.764H19.3691V105.047Z" fill="#333333"/>
<path d="M19.3691 14.2656H27.1769V29.8276H19.3691V14.2656Z" fill="#B2B2B2"/>
</g>
<defs>
<clipPath id="clip0_2109_240644">
<rect width="150" height="150" fill="white"/>
</clipPath>
</defs>
</svg>
