<svg width="150" height="150" viewBox="0 0 150 150" fill="none" xmlns="http://www.w3.org/2000/svg">
<g clip-path="url(#clip0_2109_240328)">
<path d="M0 4.5045L5.73366 0H132.614L138.348 4.65465L138.533 28.0781L150 27.9279V42.042L138.533 42.1922V53.7538H150V67.8679H138.533V81.982L150 81.8318V95.9459H138.533V107.808L150 107.658V121.772L138.533 121.922L138.348 145.195L132.614 150L5.73366 149.85L0 145.195V4.5045Z" fill="#E5E5E5" stroke="black" stroke-width="0.333294"/>
<path d="M2.77441 6.90465L8.50808 2.25H129.84L135.573 6.90465V142.941L129.84 147.595H8.50808L2.77441 142.941V6.90465Z" fill="#E5E5E5"/>
<path d="M7.58327 1.50343L1.84961 6.15808L3.69918 7.65958L9.43284 3.00493L8.50806 3.30523V1.20312H7.95319L7.58327 1.50343Z" fill="black"/>
<path d="M129.839 1.20312H8.50781V3.30523H129.839L128.915 3.00493L130.764 1.50343L130.394 1.20312H129.839Z" fill="black"/>
<path d="M136.498 6.15465L130.765 1.5L128.915 3.0015L134.649 7.65616L134.279 6.90541H136.868V6.45496L136.498 6.15465Z" fill="black"/>
<path d="M136.868 142.942V6.90625H134.278V142.942L134.648 142.192L136.498 143.693L136.868 143.393V142.942Z" fill="black"/>
<path d="M130.765 148.351L136.498 143.697L134.649 142.195L128.915 146.85L129.84 146.55V148.652H130.395L130.765 148.351Z" fill="black"/>
<path d="M8.50779 148.649H129.839V146.547H8.50779L9.43258 146.847L7.58301 148.349L7.95292 148.649H8.50779Z" fill="black"/>
<path d="M1.84941 143.697L7.58307 148.351L9.43264 146.85L3.69897 142.195L4.06889 142.946H1.47949V143.397L1.84941 143.697Z" fill="black"/>
<path d="M1.47949 6.907V142.943H4.06889V6.907L3.69897 7.65775L1.84941 6.15625L1.47949 6.45655V6.907Z" fill="black"/>
<path d="M141.307 76.125H150V80.7797H141.307V76.125Z" fill="#7F7F7F" stroke="black" stroke-width="0.333294"/>
<path d="M144.267 80.7812H147.226V81.9825H144.267V80.7812Z" fill="#7F7F7F" stroke="black" stroke-width="0.333294"/>
<path d="M141.307 101.805H150V106.459H141.307V101.805Z" fill="#7F7F7F" stroke="black" stroke-width="0.333294"/>
<path d="M144.267 106.453H147.226V107.654H144.267V106.453Z" fill="#7F7F7F" stroke="black" stroke-width="0.333294"/>
<path d="M150 101.801H141.307V97.2969H150V101.801Z" fill="#7F7F7F" stroke="black" stroke-width="0.333294"/>
<path d="M147.041 97.295H144.267V96.0938H147.041V97.295Z" fill="#7F7F7F" stroke="black" stroke-width="0.333294"/>
<path d="M150 73.725H141.307V69.0703H150V73.725Z" fill="#7F7F7F" stroke="black" stroke-width="0.333294"/>
<path d="M147.041 69.0684H144.267V67.8672H147.041V69.0684Z" fill="#7F7F7F" stroke="black" stroke-width="0.333294"/>
<path d="M141.307 48.0469H150V52.7015H141.307V48.0469Z" fill="#7F7F7F" stroke="black" stroke-width="0.333294"/>
<path d="M144.267 52.7031H147.226V53.9043H144.267V52.7031Z" fill="#7F7F7F" stroke="black" stroke-width="0.333294"/>
<path d="M150 47.8968H141.307V43.2422H150V47.8968Z" fill="#7F7F7F" stroke="black" stroke-width="0.333294"/>
<path d="M147.041 43.2403H144.267V42.0391H147.041V43.2403Z" fill="#7F7F7F" stroke="black" stroke-width="0.333294"/>
<path d="M141.307 22.2188H150V26.8734H141.307V22.2188Z" fill="#7F7F7F" stroke="black" stroke-width="0.333294"/>
<path d="M144.267 26.875H147.226V28.0762H144.267V26.875Z" fill="#7F7F7F" stroke="black" stroke-width="0.333294"/>
<path d="M150 127.631H141.307V122.977H150V127.631Z" fill="#7F7F7F" stroke="black" stroke-width="0.333294"/>
<path d="M147.041 122.975H144.267V121.773H147.041V122.975Z" fill="#7F7F7F" stroke="black" stroke-width="0.333294"/>
<path d="M34.5869 23.2734H103.761V110.06H34.5869V23.2734Z" fill="black"/>
<path d="M43.2803 103.005H95.0682V60.8125H43.2803V103.005Z" fill="black" stroke="white" stroke-width="0.333294"/>
<path d="M46.0547 77.1797H60.4813V86.6391H46.0547V77.1797Z" fill="#7F7F7F"/>
<path d="M77.8672 77.1797H92.2938V86.6391H77.8672V77.1797Z" fill="#7F7F7F"/>
<path d="M62.1455 77.1797H76.3872V86.6391H62.1455V77.1797Z" fill="#7F7F7F"/>
<path d="M57.8916 65.6172H80.8263V74.9265H57.8916V65.6172Z" fill="#E5E5E5"/>
<path d="M57.8916 88.8906H80.8263V98.3501H57.8916V88.8906Z" fill="#7F7F7F"/>
<path d="M54.7471 105.406H83.6003V107.659H54.7471V105.406Z" fill="white"/>
<path d="M28.8529 11.5626C30.4872 11.5626 31.8122 10.487 31.8122 9.16021C31.8122 7.8334 30.4872 6.75781 28.8529 6.75781C27.2185 6.75781 25.8936 7.8334 25.8936 9.16021C25.8936 10.487 27.2185 11.5626 28.8529 11.5626Z" fill="#7F7F7F" stroke="black" stroke-width="0.333294"/>
<path d="M28.8535 11.5609V6.90625" stroke="black" stroke-width="0.333294"/>
<path d="M109.494 11.4108C111.026 11.4108 112.268 10.4024 112.268 9.1585C112.268 7.91462 111.026 6.90625 109.494 6.90625C107.962 6.90625 106.72 7.91462 106.72 9.1585C106.72 10.4024 107.962 11.4108 109.494 11.4108Z" fill="#7F7F7F" stroke="black" stroke-width="0.333294"/>
<path d="M108.2 11.265L110.975 7.21094" stroke="black" stroke-width="0.333294"/>
<path d="M28.6679 142.489C30.2001 142.489 31.4423 141.481 31.4423 140.237C31.4423 138.993 30.2001 137.984 28.6679 137.984C27.1357 137.984 25.8936 138.993 25.8936 140.237C25.8936 141.481 27.1357 142.489 28.6679 142.489Z" fill="#7F7F7F" stroke="black" stroke-width="0.333294"/>
<path d="M31.6272 140.242H25.8936" stroke="black" stroke-width="0.333294"/>
<path d="M109.494 142.489C111.026 142.489 112.268 141.481 112.268 140.237C112.268 138.993 111.026 137.984 109.494 137.984C107.962 137.984 106.72 138.993 106.72 140.237C106.72 141.481 107.962 142.489 109.494 142.489Z" fill="#7F7F7F" stroke="black" stroke-width="0.333294"/>
<path d="M112.084 141.441L107.09 139.039" stroke="black" stroke-width="0.333294"/>
</g>
<defs>
<clipPath id="clip0_2109_240328">
<rect width="150" height="150" fill="white"/>
</clipPath>
</defs>
</svg>
