<svg width="150" height="150" viewBox="0 0 150 150" fill="none" xmlns="http://www.w3.org/2000/svg">
<g clip-path="url(#clip0_2109_239172)">
<path d="M0 9.3125V46.85L7.21154 59.3125L26.3221 74.9281H123.678L142.788 59.3125L150 46.85V9.3125H0Z" fill="#7F7F7F" stroke="black" stroke-width="0.465363"/>
<path d="M74.639 37.2358C86.9857 37.2358 96.9947 33.0679 96.9947 27.9265C96.9947 22.7851 86.9857 18.6172 74.639 18.6172C62.2922 18.6172 52.2832 22.7851 52.2832 27.9265C52.2832 33.0679 62.2922 37.2358 74.639 37.2358Z" fill="#666666" stroke="black" stroke-width="0.465363"/>
<path d="M0 3H150V9.30631H0V3Z" fill="#7F7F7F" stroke="black" stroke-width="0.465363"/>
<path d="M44.7119 0H104.928V3.003H44.7119V0Z" fill="#7F7F7F" stroke="black" stroke-width="0.465363"/>
<path d="M74.9995 28.0766L58.0524 34.383L55.5284 32.8815L53.7255 31.38L52.6438 29.7283L52.2832 28.0766L53.0044 26.1247L54.0861 24.473L56.2495 22.8214L59.1342 21.47L62.3794 20.2688L65.9851 19.3679L70.312 18.9175L74.9995 18.6172L80.0476 18.9175L85.0957 19.6682L89.4226 20.8694L93.0284 22.3709L74.9995 28.0766Z" fill="#999999"/>
<path d="M74.6398 32.5827C80.8132 32.5827 85.8177 30.4988 85.8177 27.9281C85.8177 25.3574 80.8132 23.2734 74.6398 23.2734C68.4664 23.2734 63.4619 25.3574 63.4619 27.9281C63.4619 30.4988 68.4664 32.5827 74.6398 32.5827Z" fill="black" stroke="black" stroke-width="0.465363"/>
<path d="M11.1777 57.8047H25.9614" stroke="black" stroke-width="0.465363"/>
<path d="M41.1055 57.8047H67.4276" stroke="black" stroke-width="0.465363"/>
<path d="M82.5723 57.8047H108.534" stroke="black" stroke-width="0.465363"/>
<path d="M123.678 57.8047H138.822" stroke="black" stroke-width="0.465363"/>
<path d="M48.6777 74.9219H101.322V90.5375H48.6777V74.9219Z" fill="#7F7F7F" stroke="black" stroke-width="0.465363"/>
<path d="M59.8555 90.5391H89.7834V132.731H59.8555V90.5391Z" fill="#4C4C4C" stroke="black" stroke-width="0.465363"/>
<path d="M48.6777 98.3516H101.322V113.967H48.6777V98.3516Z" fill="#7F7F7F" stroke="black" stroke-width="0.465363"/>
<path d="M56.25 117.117H93.75V128.078H56.25V117.117Z" fill="#7F7F7F" stroke="black" stroke-width="0.465363"/>
<path d="M44.7119 132.734V140.542L48.6783 150.002H97.3561L104.928 140.542V132.734H44.7119Z" fill="#7F7F7F" stroke="black" stroke-width="0.465363"/>
<path d="M48.6777 140.539H101.322" stroke="black" stroke-width="0.465363"/>
<path d="M75 140.542V132.734" stroke="black" stroke-width="0.465363"/>
<path d="M75 128.078V117.117" stroke="black" stroke-width="0.465363"/>
<path d="M75 113.967V98.3516" stroke="black" stroke-width="0.465363"/>
<path d="M37.5004 74.9249L25.9619 50H33.534L41.1061 74.9249H37.5004Z" fill="#666666"/>
<path d="M37.5004 74.9249L25.9619 50H33.534" stroke="black" stroke-width="0.465363"/>
<path d="M71.0332 74.9249V50H78.6053V74.9249H71.0332Z" fill="#666666"/>
<path d="M70.6729 74.9249V50H78.245" stroke="black" stroke-width="0.465363"/>
<path d="M108.533 74.9249L116.105 50H123.677L112.5 74.9249H108.533Z" fill="#666666"/>
<path d="M108.533 74.9249L116.105 50H123.677" stroke="black" stroke-width="0.465363"/>
</g>
<defs>
<clipPath id="clip0_2109_239172">
<rect width="150" height="150" fill="white"/>
</clipPath>
</defs>
</svg>
