<svg width="150" height="150" viewBox="0 0 150 150" fill="none" xmlns="http://www.w3.org/2000/svg">
<g clip-path="url(#clip0_2109_239357)">
<path d="M61.875 78.4546H70.3125V41.7812H61.875V78.4546Z" fill="#7F7F7F" stroke="black" stroke-width="1.06172"/>
<path d="M44.0625 21.6406L46.875 42.0815H85.3125L88.125 21.6406H44.0625Z" fill="#999999" stroke="black" stroke-width="1.06172"/>
<path d="M45.9375 29.7575L87.1875 29.1562" stroke="black" stroke-width="1.06172"/>
<path d="M45.9375 30.3631L87.1875 30.0625" stroke="black" stroke-width="1.06172"/>
<path d="M45.9375 31.2615L87.1875 30.9609" stroke="black" stroke-width="1.06172"/>
<path d="M45.9375 32.1678L87.1875 31.8672" stroke="black" stroke-width="1.06172"/>
<path d="M45.9375 33.0662L87.1875 32.7656" stroke="black" stroke-width="1.06172"/>
<path d="M45.9375 33.9647L87.1875 33.6641" stroke="black" stroke-width="1.06172"/>
<path d="M45.9375 34.8709L87.1875 34.5703" stroke="black" stroke-width="1.06172"/>
<path d="M45.9375 35.7694L87.1875 35.4688" stroke="black" stroke-width="1.06172"/>
<path d="M45.9375 36.6756L87.1875 36.375" stroke="black" stroke-width="1.06172"/>
<path d="M45.9375 37.5778L87.1875 36.9766" stroke="black" stroke-width="1.06172"/>
<path d="M45.9375 38.4762L87.1875 37.875" stroke="black" stroke-width="1.06172"/>
<path d="M45.9375 39.3825L87.1875 38.7812" stroke="black" stroke-width="1.06172"/>
<path d="M45.9375 40.2809L87.1875 39.6797" stroke="black" stroke-width="1.06172"/>
<path d="M45.9375 41.1793L87.1875 40.5781" stroke="black" stroke-width="1.06172"/>
<path d="M45.9375 42.0856L87.1875 41.4844" stroke="black" stroke-width="1.06172"/>
<path d="M82.5 23.4446H93.75V22.2422H82.5V23.4446Z" fill="#B2B2B2" stroke="black" stroke-width="1.06172"/>
<path d="M97.5 23.1436H108.75V21.6406H97.5V23.1436Z" fill="#B2B2B2" stroke="black" stroke-width="1.06172"/>
<path d="M11.25 0.601202V3.30661V21.6433L15.9375 21.9439L28.125 22.2445H104.062L116.25 21.9439L120.938 21.6433V0.601202L116.25 0.300601L104.062 0H28.125L15.9375 0.300601L11.25 0.601202Z" fill="#7F7F7F" stroke="black" stroke-width="1.06172"/>
<path d="M11.25 1.49964V3.90445V21.0387L15.9375 21.3393H116.25L120.938 21.0387V1.49964L116.25 1.19904L104.062 0.898438H28.125L15.9375 1.19904L11.25 1.49964Z" fill="#B2B2B2" stroke="black" stroke-width="1.06172"/>
<path d="M19.6875 1.5H22.5V21.3397H19.6875V1.5Z" fill="#E5E5E5"/>
<path d="M25.3125 1.5H33.75V21.3397H25.3125V1.5Z" fill="#E5E5E5"/>
<path d="M90.9375 1.5H105.938V21.3397H90.9375V1.5Z" fill="#E5E5E5"/>
<path d="M13.125 13.8281H116.25V15.0305H13.125V13.8281Z" fill="#999999"/>
<path d="M0 8.41406H132.188V13.8249H0V8.41406Z" fill="#E5E5E5" stroke="black" stroke-width="1.06172"/>
<path d="M0 10.8203H132.188V11.4215H0V10.8203Z" fill="black" stroke="black" stroke-width="1.06172"/>
<path d="M118.125 8.41334H129.375V7.21094H118.125V8.41334Z" fill="#CCCCCC" stroke="black" stroke-width="1.06172"/>
<path d="M59.0625 8.41334H70.3125V7.21094H59.0625V8.41334Z" fill="#CCCCCC" stroke="black" stroke-width="1.06172"/>
<path d="M81.5625 8.41334H92.8125V7.21094H81.5625V8.41334Z" fill="#CCCCCC" stroke="black" stroke-width="1.06172"/>
<path d="M37.5 8.41334H48.75V7.21094H37.5V8.41334Z" fill="#CCCCCC" stroke="black" stroke-width="1.06172"/>
<path d="M115.312 13.8281V15.6317V17.1347V18.9383V20.742L117.188 21.3432L121.875 21.6438H127.5H132.188V19.5395V17.7359V15.9323V13.8281H128.438H123.75H120H115.312Z" fill="#CCCCCC" stroke="black" stroke-width="1.06172"/>
<path d="M75.9375 45.3888L76.875 55.9099H55.3125L57.1875 45.3888L58.125 44.1864L60 43.2846L62.8125 42.6834L66.5625 42.3828L70.3125 42.6834L73.125 43.2846L75 44.1864L75.9375 45.3888Z" fill="#B2B2B2" stroke="black" stroke-width="1.06172"/>
<path d="M60.9375 76.6521L58.125 75.4496V64.3274L60.9375 63.125H72.1875L75 64.3274V75.4496L72.1875 76.6521H60.9375Z" fill="#B2B2B2" stroke="black" stroke-width="1.06172"/>
<path d="M60.9375 77.8594L61.875 82.3684L62.8125 87.178L63.75 91.9876L65.625 96.4966L67.5 101.306L70.3125 106.116L74.0625 110.625L77.8125 115.134L82.5 119.944L89.0625 124.453L95.625 128.962L103.125 133.17L112.5 137.679L122.812 141.887L134.062 146.096L147.188 150.004L150 143.992V137.078L148.125 131.968L147.188 131.066L136.875 128.36L124.688 124.753L112.5 119.944L101.25 113.932L95.625 110.324L90.9375 106.717L86.25 102.509L81.5625 98.3003L77.8125 93.7912L75 88.681L73.125 83.5708L72.1875 77.8594H60.9375Z" fill="#B2B2B2" stroke="black" stroke-width="1.06172"/>
<path d="M67.5 43.2891V55.3131H72.1875L69.375 43.2891H67.5Z" fill="#E5E5E5"/>
<path d="M67.5 64.0312H70.3125V75.7547H67.5V64.0312Z" fill="#E5E5E5"/>
<path d="M63.75 63.1276L70.3125 61.0234" stroke="black" stroke-width="1.06172"/>
<path d="M61.875 62.221L70.3125 59.5156" stroke="black" stroke-width="1.06172"/>
<path d="M61.875 61.0257L70.3125 58.3203" stroke="black" stroke-width="1.06172"/>
<path d="M61.875 58.3189L69.375 55.9141" stroke="black" stroke-width="1.06172"/>
<path d="M61.875 59.5179L70.3125 56.8125" stroke="black" stroke-width="1.06172"/>
</g>
<defs>
<clipPath id="clip0_2109_239357">
<rect width="150" height="150" fill="white"/>
</clipPath>
</defs>
</svg>
