<svg width="150" height="150" viewBox="0 0 150 150" fill="none" xmlns="http://www.w3.org/2000/svg">
<g clip-path="url(#clip0_2109_240849)">
<path d="M0.972656 12.1641H149.028V149.251H0.972656V12.1641Z" fill="#D9D9D9" stroke="black" stroke-width="0.382117"/>
<path d="M10.2109 17.8672H139.79V115.014H10.2109V17.8672Z" fill="white" stroke="#999999" stroke-width="0.382117"/>
<path d="M74.8786 74.9261L94.5707 62.9141L96.5156 64.1153L97.9743 65.4666L99.4329 66.818L100.648 68.4696L101.378 69.9711L102.107 71.6228L102.593 73.2744L102.836 74.1753V74.9261L102.593 76.7279L102.107 78.3795L101.378 80.0312L100.648 81.6828L99.4329 83.1843L97.9743 84.5357L96.2725 85.887L94.5707 87.0882L92.6258 88.1393L90.4378 89.1903L88.2498 90.0912L85.8187 90.842L83.1444 91.2924L80.7133 91.7429L77.796 92.0432H74.8786H72.2044L69.5302 91.7429L66.8559 91.2924L64.4248 90.842L61.9937 90.0912L59.5626 89.1903L57.3746 88.2894L55.4297 87.0882L74.8786 74.9261Z" fill="#CCCCCC"/>
<path d="M115.478 88.7372L114.505 89.9384L102.35 85.584L103.565 84.3828L115.478 88.7372Z" fill="black"/>
<path d="M121.312 74.3281V75.6795H107.455V74.3281H121.312Z" fill="black"/>
<path d="M114.505 60.0625L115.721 61.2637L103.565 65.6181L102.593 64.4169L114.505 60.0625Z" fill="black"/>
<path d="M97.2446 50L99.1895 50.6006L92.1392 57.958L90.1943 57.3574L97.2446 50Z" fill="black"/>
<path d="M73.9062 46.3984H76.0943V54.957H73.9062V46.3984Z" fill="black"/>
<path d="M51.0537 50.6023L52.7555 49.8516L59.8057 57.3591L57.8608 57.9597L51.0537 50.6023Z" fill="black"/>
<path d="M34.5215 61.2637L35.4939 60.0625L47.6495 64.2667L46.434 65.4679L34.5215 61.2637Z" fill="black"/>
<path d="M28.6875 75.6734V74.1719H42.5449V75.6734H28.6875Z" fill="black"/>
<path d="M35.4939 89.7882L34.2783 88.587L46.4339 84.3828L47.4064 85.584L35.4939 89.7882Z" fill="black"/>
<path d="M106.24 80.1797L115.235 81.6812" stroke="black" stroke-width="0.382117"/>
<path d="M106.24 69.8218L115.235 68.3203" stroke="black" stroke-width="0.382117"/>
<path d="M97.9736 60.8119L104.538 56.7578" stroke="black" stroke-width="0.382117"/>
<path d="M83.3877 55.704L85.8188 50.1484" stroke="black" stroke-width="0.382117"/>
<path d="M66.6128 55.704L64.1816 50.1484" stroke="black" stroke-width="0.382117"/>
<path d="M52.026 60.8119L45.7051 56.7578" stroke="black" stroke-width="0.382117"/>
<path d="M43.7598 69.8218L34.7646 68.3203" stroke="black" stroke-width="0.382117"/>
<path d="M43.7598 80.1797L34.7646 81.531" stroke="black" stroke-width="0.382117"/>
<path d="M104.781 82.7344L109.157 83.6353" stroke="#7F7F7F" stroke-width="0.382117"/>
<path d="M106.969 77.625L111.588 77.9253" stroke="#7F7F7F" stroke-width="0.382117"/>
<path d="M106.969 72.5225L111.588 71.9219" stroke="#7F7F7F" stroke-width="0.382117"/>
<path d="M104.781 67.42L109.157 66.2188" stroke="#7F7F7F" stroke-width="0.382117"/>
<path d="M100.648 62.9129L104.295 60.9609" stroke="#7F7F7F" stroke-width="0.382117"/>
<path d="M94.5703 59.1602L97.4877 56.7578" stroke="#7F7F7F" stroke-width="0.382117"/>
<path d="M87.5205 56.609L89.2223 53.9062" stroke="#7F7F7F" stroke-width="0.382117"/>
<path d="M79.2549 55.253L79.7411 52.25" stroke="#7F7F7F" stroke-width="0.382117"/>
<path d="M70.7459 55.253L70.0166 52.25" stroke="#7F7F7F" stroke-width="0.382117"/>
<path d="M62.7232 56.609L60.7783 53.9062" stroke="#7F7F7F" stroke-width="0.382117"/>
<path d="M55.4291 59.1602L52.5117 56.7578" stroke="#7F7F7F" stroke-width="0.382117"/>
<path d="M49.3518 62.7627L45.7051 60.9609" stroke="#7F7F7F" stroke-width="0.382117"/>
<path d="M45.2188 67.2698L40.8428 66.2188" stroke="#7F7F7F" stroke-width="0.382117"/>
<path d="M43.0312 72.3723L38.1689 71.9219" stroke="#7F7F7F" stroke-width="0.382117"/>
<path d="M43.0312 77.625L38.1689 77.9253" stroke="#7F7F7F" stroke-width="0.382117"/>
<path d="M44.9757 82.5859L40.8428 83.637" stroke="#7F7F7F" stroke-width="0.382117"/>
<path d="M74.8788 74.9218L55.4299 87.084L53.485 85.8828L52.0263 84.5314L50.5676 83.0299L49.3521 81.5284L48.3796 79.8768L47.6503 78.3753L47.4072 76.7236L47.1641 75.8227V74.9218L47.4072 73.2702L47.8934 71.4684L48.3796 69.9668L49.3521 68.3152L50.5676 66.8137L52.0263 65.3122L53.485 64.111L55.4299 62.9098L57.3748 61.7086L59.5628 60.8077L61.7508 59.9068L64.1819 59.156L66.8561 58.5554L69.2872 58.2551L72.2046 57.9548L74.8788 57.8047L77.7962 57.9548L80.4704 58.105L83.1446 58.5554L85.5757 59.156L88.0069 59.9068L90.438 60.8077L92.626 61.7086L94.5709 62.9098L74.8788 74.9218Z" fill="#D9D9D9"/>
<path d="M74.8784 87.6896C86.2911 87.6896 95.5429 81.9755 95.5429 74.9268C95.5429 67.8781 86.2911 62.1641 74.8784 62.1641C63.4657 62.1641 54.2139 67.8781 54.2139 74.9268C54.2139 81.9755 63.4657 87.6896 74.8784 87.6896Z" fill="#E5E5E5" stroke="#7F7F7F" stroke-width="0.382117"/>
<path d="M74.8788 92.0389C90.1852 92.0389 102.594 84.3753 102.594 74.9218C102.594 65.4683 90.1852 57.8047 74.8788 57.8047C59.5724 57.8047 47.1641 65.4683 47.1641 74.9218C47.1641 84.3753 59.5724 92.0389 74.8788 92.0389Z" stroke="black" stroke-width="0.382117"/>
<path d="M37.9258 100.602H56.4023V106.307H37.9258V100.602Z" fill="#336666" stroke="black" stroke-width="0.382117"/>
<path d="M92.3828 100.602H112.075V106.307H92.3828V100.602Z" fill="#660000" stroke="black" stroke-width="0.382117"/>
<path d="M74.8789 126.427L139.79 115.016V149.25H74.8789V126.427Z" fill="#BFBFBF"/>
<path d="M10.2109 115.016L74.8787 126.427L139.79 115.016H10.2109Z" fill="#E5E5E5" stroke="#B2B2B2" stroke-width="0.382117"/>
<path d="M65.6406 0.75H84.3602V6.45571H65.6406V0.75Z" fill="#7F7F7F"/>
<path d="M56.4023 6.45312H93.5985V12.1588H56.4023V6.45312Z" fill="#7F7F7F" stroke="black" stroke-width="0.382117"/>
<path d="M69.2871 0.75H80.7134V6.45571H69.2871V0.75Z" fill="#BFBFBF"/>
<path d="M63.4521 6.45312H86.5478V12.1588H63.4521V6.45312Z" fill="#BFBFBF"/>
<path d="M73.1768 0.75H76.5803V6.45571H73.1768V0.75Z" fill="#E5E5E5"/>
<path d="M71.4746 6.45312H78.5249V12.1588H71.4746V6.45312Z" fill="#E5E5E5"/>
<path d="M65.6406 0.75H84.3602V6.45571H65.6406V0.75Z" stroke="black" stroke-width="0.382117"/>
<path d="M74.1495 77.7805L76.0944 75.228L42.5449 67.5703L74.1495 77.7805Z" fill="#FF0000"/>
</g>
<defs>
<clipPath id="clip0_2109_240849">
<rect width="150" height="150" fill="white"/>
</clipPath>
</defs>
</svg>
