<svg width="150" height="150" viewBox="0 0 150 150" fill="none" xmlns="http://www.w3.org/2000/svg">
<g clip-path="url(#clip0_2109_233237)">
<path d="M41.2939 150H134.578V128.078H41.2939V150Z" fill="#999999"/>
<path d="M54.4775 150H121.144V128.078H54.4775V150Z" fill="#B2B2B2"/>
<path d="M71.1445 150H104.478V128.078H71.1445V150Z" fill="#CCCCCC"/>
<path d="M41.2939 150H134.578V128.078H41.2939V150Z" stroke="black" stroke-width="0.386527"/>
<path d="M46.5176 34.2344H129.353V109.309H46.5176V34.2344Z" fill="#F2FFFF" stroke="black" stroke-width="0.386527"/>
<path d="M51.4922 34.2344H124.129V109.309H51.4922V34.2344Z" fill="#99A6A6"/>
<path d="M61.9404 34.2344H113.682V109.309H61.9404V34.2344Z" fill="#B2BFBF"/>
<path d="M74.876 34.2344H100.747V109.309H74.876V34.2344Z" fill="#CCD9D9"/>
<path d="M51.4922 34.2344H124.129V109.309H51.4922V34.2344Z" stroke="black" stroke-width="0.386527"/>
<path d="M41.2939 34.2344H46.5178V109.309H41.2939V34.2344Z" fill="#7F7F7F" stroke="black" stroke-width="0.386527"/>
<path d="M129.354 34.2344H134.577V109.309H129.354V34.2344Z" fill="#7F7F7F" stroke="black" stroke-width="0.386527"/>
<path d="M85.3232 34.2344H90.2984V109.309H85.3232V34.2344Z" fill="#7F7F7F" stroke="black" stroke-width="0.386527"/>
<path d="M41.2939 34.2312H134.578V24.9219H41.2939V34.2312Z" fill="#BFBFBF"/>
<path d="M54.4775 34.2312H121.144V24.9219H54.4775V34.2312Z" fill="#D9D9D9"/>
<path d="M71.1445 34.2312H104.478V24.9219H71.1445V34.2312Z" fill="#F2F2F2"/>
<path d="M41.2939 34.2312H134.578V24.9219H41.2939V34.2312Z" stroke="black" stroke-width="0.386527"/>
<path d="M46.5176 24.9281H129.353V9.3125H46.5176V24.9281Z" fill="#BFBFBF"/>
<path d="M58.209 24.9281H117.413V9.3125H58.209V24.9281Z" fill="#D9D9D9"/>
<path d="M73.1348 24.9281H102.737V9.3125H73.1348V24.9281Z" fill="#F2F2F2"/>
<path d="M46.5176 24.9281H129.353V9.3125H46.5176V24.9281Z" stroke="black" stroke-width="0.386527"/>
<path d="M41.2939 118.622H134.578V109.312H41.2939V118.622Z" fill="#BFBFBF"/>
<path d="M54.4775 118.622H121.144V109.312H54.4775V118.622Z" fill="#D9D9D9"/>
<path d="M71.1445 118.622H104.478V109.312H71.1445V118.622Z" fill="#F2F2F2"/>
<path d="M41.2939 118.622H134.578V109.312H41.2939V118.622Z" stroke="black" stroke-width="0.386527"/>
<path d="M36.0693 109.312H51.741V118.622H36.0693V109.312Z" fill="#7F7F7F" stroke="black" stroke-width="0.386527"/>
<path d="M77.6123 109.312H98.2591V118.622H77.6123V109.312Z" fill="#A6A6A6" stroke="black" stroke-width="0.386527"/>
<path d="M124.129 109.312H139.552V118.622H124.129V109.312Z" fill="#7F7F7F" stroke="black" stroke-width="0.386527"/>
<path d="M0 128.077H150V118.617H0V128.077Z" fill="#BFBFBF"/>
<path d="M43.5322 128.077H132.089V118.617H43.5322V128.077Z" fill="#D9D9D9"/>
<path d="M65.6719 128.077H109.95V118.617H65.6719V128.077Z" fill="#F2F2F2"/>
<path d="M0 128.077H150V118.617H0V128.077Z" stroke="black" stroke-width="0.386527"/>
<path d="M0 118.616H30.8458V103H0V118.616Z" fill="#4C4C4C"/>
<path d="M4.22852 118.616H26.6166V103H4.22852V118.616Z" fill="#666666"/>
<path d="M8.70605 118.616H22.1389V103H8.70605V118.616Z" fill="#7F7F7F"/>
<path d="M0 118.616H30.8458V103H0V118.616Z" stroke="black" stroke-width="0.386527"/>
<path d="M82.5869 9.30931H93.0347V0H82.5869V9.30931Z" fill="#D9D9D9" stroke="black" stroke-width="0.386527"/>
<path d="M108.458 9.3094H118.906V6.15625H108.458V9.3094Z" fill="#A6A6A6" stroke="black" stroke-width="0.386527"/>
<path d="M111.194 6.15616L110.946 5.70571L111.443 5.25526L113.931 4.2042L116.916 3.3033L119.155 2.55255L119.403 2.25225L119.155 1.95195L115.672 1.8018L112.189 1.95195L107.463 2.1021L100.995 2.55255L93.0352 3.003V0.750751L99.7516 0.3003L105.473 0H110.199H114.428H117.662L120.398 0.15015L123.632 0.750751L124.378 1.2012L124.627 1.8018L123.383 3.003L120.647 4.5045L118.657 5.25526L116.418 6.15616H111.194Z" fill="#4C4C4C" stroke="black" stroke-width="0.386527"/>
<path d="M46.5176 142.945H67.1643V146.849H46.5176V142.945Z" fill="#333333" stroke="black" stroke-width="0.386527"/>
<path d="M77.6123 142.945H98.2591V146.849H77.6123V142.945Z" fill="#333333" stroke="black" stroke-width="0.386527"/>
<path d="M108.458 142.945H129.354V146.849H108.458V142.945Z" fill="#333333" stroke="black" stroke-width="0.386527"/>
<path d="M46.5176 131.234H67.1643V135.138H46.5176V131.234Z" fill="#333333" stroke="black" stroke-width="0.386527"/>
<path d="M77.6123 131.234H98.2591V135.138H77.6123V131.234Z" fill="#333333" stroke="black" stroke-width="0.386527"/>
<path d="M108.458 131.234H129.354V135.138H108.458V131.234Z" fill="#333333" stroke="black" stroke-width="0.386527"/>
<path d="M61.9404 137.086H82.836V140.99H61.9404V137.086Z" fill="#333333" stroke="black" stroke-width="0.386527"/>
<path d="M93.0352 137.086H113.682V140.99H93.0352V137.086Z" fill="#333333" stroke="black" stroke-width="0.386527"/>
<path d="M124.129 137.086H129.353V140.99H124.129V137.086Z" fill="#333333" stroke="black" stroke-width="0.386527"/>
<path d="M46.5176 137.086H51.4927V140.99H46.5176V137.086Z" fill="#333333" stroke="black" stroke-width="0.386527"/>
</g>
<defs>
<clipPath id="clip0_2109_233237">
<rect width="150" height="150" fill="white"/>
</clipPath>
</defs>
</svg>
