<svg width="150" height="150" viewBox="0 0 150 150" fill="none" xmlns="http://www.w3.org/2000/svg">
<g clip-path="url(#clip0_2109_231239)">
<path d="M30.4805 39.8901H19.97V36.641H15.7658V34.8359H9.15916V42.7782H0V52.5255H9.15916V60.4677H15.7658V59.0237H19.97V55.7746H30.4805V39.8901Z" fill="#E5E5E5"/>
<path d="M30.4805 41.3367H19.6697V38.8096H15.7658V37.7266H9.15916V43.8637H0V51.445H9.15916V57.5822H15.7658V56.4991H19.6697V53.9721H30.4805V41.3367Z" fill="#EBEBEB"/>
<path d="M30.4805 43.1443H19.6697V41.3392H15.7658V40.6172H9.15916V44.9493H0V50.3645H9.15916V55.0576H15.7658V53.9746H19.6697V52.1695H30.4805V43.1443Z" fill="#F2F2F2"/>
<path d="M30.4805 44.9457H19.6697V43.8626H15.7658V43.1406H9.15916V46.0287H0V49.2778H9.15916V52.1659H15.7658V51.4439H19.6697V50.3608H30.4805V44.9457Z" fill="#F7F7F7"/>
<path d="M30.4805 46.7533H19.97V46.3923H15.7658V46.0312H9.15916V47.1143H0V48.1973H9.15916V49.2803H15.7658H19.97V48.9193H30.4805V46.7533Z" fill="white"/>
<path d="M30.4805 39.8901H19.97V36.641H15.7658V34.8359H9.15916V42.7782H0V52.5255H9.15916V60.4677H15.7658V59.0237H19.97V55.7746H30.4805V39.8901Z" stroke="#7F7F7F" stroke-width="0.329259"/>
<path d="M19.9697 55.7751V39.8906" stroke="#7F7F7F" stroke-width="0.329259"/>
<path d="M15.7656 36.6406V59.0233" stroke="#7F7F7F" stroke-width="0.329259"/>
<path d="M9.15918 52.5285V42.7812" stroke="#7F7F7F" stroke-width="0.329259"/>
<path d="M11.8623 60.4677V34.8359" stroke="#7F7F7F" stroke-width="0.329259"/>
<path d="M43.6933 36.6426V23.6462H46.396V18.9531H47.5972V11.1913H40.9906V0H33.1828V11.1913H26.5762V18.9531H27.7774V23.6462H30.4801V36.6426H43.6933Z" fill="#E5E5E5"/>
<path d="M42.1922 36.6426V23.6462H44.2943V18.9531H45.4955V11.1913H40.0901V0H34.0841V11.1913H28.6787V18.9531H29.8799V23.6462H31.982V36.6426H42.1922Z" fill="#EBEBEB"/>
<path d="M40.6907 36.6426V23.6462H42.1922V18.9531H43.0931V11.1913H39.4895V0H34.985V11.1913H31.0811V18.9531H31.982V23.6462H33.4835V36.6426H40.6907Z" fill="#F2F2F2"/>
<path d="M39.4894 36.6426V23.6462H40.3903V18.9531H40.6906V11.1913H38.5885V0H35.5855V11.1913H33.4834V18.9531H33.7837V23.6462H34.9849V36.6426H39.4894Z" fill="#F7F7F7"/>
<path d="M37.9878 36.6426V23.6462H38.2881V18.9531V11.1913H37.6875V0H36.4863V11.1913H35.8857V18.9531V23.6462H36.186V36.6426H37.9878Z" fill="white"/>
<path d="M43.6933 36.6426V23.6462H46.396V18.9531H47.5972V11.1913H40.9906V0H33.1828V11.1913H26.5762V18.9531H27.7774V23.6462H30.4801V36.6426H43.6933Z" stroke="#7F7F7F" stroke-width="0.329259"/>
<path d="M30.4805 23.6484H43.6937" stroke="#7F7F7F" stroke-width="0.329259"/>
<path d="M46.396 18.9531H27.7773" stroke="#7F7F7F" stroke-width="0.329259"/>
<path d="M33.1836 11.1875H40.9914" stroke="#7F7F7F" stroke-width="0.329259"/>
<path d="M26.5762 14.2578H47.5972" stroke="#7F7F7F" stroke-width="0.329259"/>
<path d="M27.7773 0H33.1827V7.76173H27.7773V0Z" fill="#7F7F7F"/>
<path d="M27.7773 0.359375H33.1827V7.39909H27.7773V0.359375Z" fill="#999999"/>
<path d="M27.7773 1.44531H33.1827V6.67997H27.7773V1.44531Z" fill="#B2B2B2"/>
<path d="M27.7773 2.16406H33.1827V5.59367H27.7773V2.16406Z" fill="#CCCCCC"/>
<path d="M27.7773 2.89062H33.1827V4.87618H27.7773V2.89062Z" fill="#E5E5E5"/>
<path d="M27.7773 3.60938H33.1827V4.15089H27.7773V3.60938Z" fill="white"/>
<path d="M27.7773 0H33.1827V7.76173H27.7773V0Z" stroke="black" stroke-width="0.329259"/>
<path d="M46.3965 38.0859H148.649V149.999H46.3965V38.0859Z" fill="black" stroke="black" stroke-width="0.329259"/>
<path d="M54.2041 34.8359H150V146.749H54.2041V34.8359Z" fill="#E5E5E5"/>
<path d="M38.2879 59.0233V138.446L38.8885 140.973L40.0897 143.139L41.5912 144.944L43.393 146.027L45.1948 146.749H53.0026V36.6406H26.5762V49.276V51.4421L26.8765 53.6081L27.7774 55.4132L29.2789 57.2182L31.0807 58.3013L32.8825 59.0233H38.2879Z" fill="#E5E5E5"/>
<path d="M26.5762 36.6406H53.0026V41.3338H26.5762V36.6406Z" fill="#E5E5E5"/>
<path d="M26.5762 36.6406H53.0026V41.3338H26.5762V36.6406Z" fill="#D9D9D9"/>
<path d="M26.5762 36.6406H53.0026V39.8897H26.5762V36.6406Z" fill="#CCCCCC"/>
<path d="M26.5762 36.6406H53.0026V39.1677H26.5762V36.6406Z" fill="#BFBFBF"/>
<path d="M26.5762 36.6406H53.0026V38.4457H26.5762V36.6406Z" fill="#B2B2B2"/>
<path d="M26.5762 36.6406H53.0026V37.7237H26.5762V36.6406Z" fill="#A6A6A6"/>
<path d="M26.5762 36.6406H53.0026V37.0016H26.5762V36.6406Z" fill="#999999"/>
<path d="M54.2041 34.8359H149.549V41.3341H54.2041V34.8359Z" fill="#E5E5E5"/>
<path d="M54.5049 34.8359H150V41.3341H54.5049V34.8359Z" fill="#D9D9D9"/>
<path d="M54.5049 34.8359H150V39.5291H54.5049V34.8359Z" fill="#CCCCCC"/>
<path d="M54.5049 34.8359H150V38.446H54.5049V34.8359Z" fill="#BFBFBF"/>
<path d="M54.5049 34.8359H150V37.724H54.5049V34.8359Z" fill="#B2B2B2"/>
<path d="M54.5049 34.8359H150V36.641H54.5049V34.8359Z" fill="#A6A6A6"/>
<path d="M54.2041 34.8359H149.549V35.558H54.2041V34.8359Z" fill="#999999"/>
<path d="M38.2879 59.0233V138.446L38.8885 140.973L40.0897 143.139L41.5912 144.944L43.393 146.027L45.1948 146.749H53.0026V36.6406H26.5762V49.276V51.4421L26.8765 53.6081L27.7774 55.4132L29.2789 57.2182L31.0807 58.3013L32.8825 59.0233H38.2879Z" stroke="black" stroke-width="0.329259"/>
<path d="M38.2881 59.0246H39.7896L50.3001 44.5841L53.0028 38.0859" stroke="black" stroke-width="0.329259"/>
<path d="M45.6455 114.804C50.3722 114.804 54.204 110.198 54.204 104.515C54.204 98.833 50.3722 94.2266 45.6455 94.2266C40.9187 94.2266 37.0869 98.833 37.0869 104.515C37.0869 110.198 40.9187 114.804 45.6455 114.804Z" fill="#B2B2B2" stroke="black" stroke-width="0.329259"/>
<path d="M45.6454 113.174C49.7088 113.174 53.0028 109.214 53.0028 104.329C53.0028 99.4443 49.7088 95.4844 45.6454 95.4844C41.5821 95.4844 38.2881 99.4443 38.2881 104.329C38.2881 109.214 41.5821 113.174 45.6454 113.174Z" fill="#CCCCCC"/>
<path d="M54.2041 121.119L111.561 95.4877L150 63.7188V146.751H54.2041V121.119Z" fill="#E0E0E0"/>
<path d="M54.2041 34.8359H150V146.749H54.2041V34.8359Z" stroke="black" stroke-width="0.329259"/>
<path d="M49.0986 49.2812H50.2998V76.3571H49.0986V49.2812Z" fill="#333333"/>
<path d="M43.6934 86.1016H47.5973V90.7947H43.6934V86.1016Z" fill="#333333"/>
<path d="M59.3091 142.059L58.4082 139.893L59.3091 137.727H61.4112L62.3121 139.893L61.4112 142.059H59.3091Z" fill="#B2B2B2"/>
<path d="M143.093 142.059L141.892 139.893L143.093 137.727H144.895L146.096 139.893L144.895 142.059H143.093Z" fill="#B2B2B2"/>
<path d="M40.9912 41.3359H43.6939V44.585H40.9912V41.3359Z" fill="#333333"/>
</g>
<defs>
<clipPath id="clip0_2109_231239">
<rect width="150" height="150" fill="white"/>
</clipPath>
</defs>
</svg>
