<svg width="150" height="150" viewBox="0 0 150 150" fill="none" xmlns="http://www.w3.org/2000/svg">
<g clip-path="url(#clip0_2109_231173)">
<path d="M4.35449 28.7578H76.7269V143.802H4.35449V28.7578Z" fill="#7F7F7F" stroke="black" stroke-width="0.515512"/>
<path d="M4.35449 127.875H76.7269V143.804H4.35449V127.875Z" fill="#7F7F7F"/>
<path d="M4.35449 130.531H6.75689H9.00915H11.2614H74.4746H76.7269V131.416V143.363V143.806H74.4746H6.75689H4.35449L4.50464 143.363L4.35449 130.531Z" fill="#5E5E5E"/>
<path d="M4.35449 134.07H6.75689H9.00915H11.2614H74.4746H76.7269V135.398V142.92V143.805H74.4746H6.75689H4.35449L4.50464 142.92L4.35449 134.07Z" fill="#404040"/>
<path d="M4.35449 136.727H6.75689H9.00915H11.2614H74.4746H76.7269V137.612V142.921V143.806H74.4746H6.75689H4.35449L4.50464 142.921L4.35449 136.727Z" fill="#1F1F1F"/>
<path d="M4.35449 139.383H76.7269V143.808H4.35449V139.383Z" fill="black"/>
<path d="M4.35449 31.4141H76.7269V74.7769H4.35449V31.4141Z" fill="#7F7F7F"/>
<path d="M4.35449 37.1719H6.75689H9.00915H11.2614H74.4746H76.7269V39.3843V68.5878V70.3577H74.4746H6.75689H4.35449L4.50464 68.5878L4.65479 54.871L4.50464 41.5967L4.35449 37.1719Z" fill="#8C8C8C"/>
<path d="M4.35449 42.0391H6.75689H9.00915H11.2614H74.4746H76.7269V43.809V65.4904V66.8178H74.4746H6.75689H4.35449L4.50464 65.4904L4.65479 51.7736L4.35449 42.0391Z" fill="#999999"/>
<path d="M4.35449 48.6719H6.75689H9.00915H11.2614H74.4746H76.7269V49.5568V61.9462V62.3887H74.4746H6.75689H4.35449L4.50464 61.9462L4.35449 48.6719Z" fill="#A6A6A6"/>
<path d="M4.35449 53.5391H76.7269V58.8488H4.35449V53.5391Z" fill="#B2B2B2"/>
<path d="M149.099 74.7812H76.7266V98.6751H149.099V74.7812Z" fill="#7F7F7F" stroke="black" stroke-width="0.515512"/>
<path d="M85.1349 66.8125H81.5312V105.751H85.1349V66.8125Z" fill="#7F7F7F" stroke="black" stroke-width="0.515512"/>
<path d="M85.1349 66.8125H81.5312V105.751H85.1349V66.8125Z" fill="#7F7F7F" stroke="black" stroke-width="0.515512"/>
<path d="M85.1349 68.5859H84.8346H84.6844H84.3841H81.6814H81.5312V70.7983V97.7895V99.5594H81.6814H84.8346H85.1349V97.7895V68.5859Z" fill="#999999"/>
<path d="M85.1349 70.3516H84.8346H84.6844H84.3841H81.6814H81.5312V72.1215V91.148V92.4755H81.6814H84.8346H85.1349V91.148V70.3516Z" fill="#B2B2B2"/>
<path d="M85.1349 72.125H84.8346H84.6844H84.3841H81.6814H81.5312V73.01V84.5144V85.3993H81.6814H84.8346H85.1349V84.5144V72.125Z" fill="#CCCCCC"/>
<path d="M85.1349 73.8906H81.5312V78.3154H85.1349V73.8906Z" fill="#E5E5E5"/>
<path d="M109.159 66.8125H99.5498V105.751H109.159V66.8125Z" fill="#7F7F7F" stroke="black" stroke-width="0.515512"/>
<path d="M85.1348 47.3488H99.5492L101.051 42.0391H86.6363L85.1348 47.3488Z" fill="#CCCCCC" stroke="black" stroke-width="0.515512"/>
<path d="M79.129 38.4922H76.7266V134.952H79.129V38.4922Z" fill="#7F7F7F" stroke="black" stroke-width="0.515512"/>
<path d="M2.25195 38.4922H4.35406V134.952H2.25195V38.4922Z" fill="#7F7F7F" stroke="black" stroke-width="0.515512"/>
<path d="M2.25195 45.1328H4.35406V50.885H2.25195V45.1328Z" fill="#B2B2B2"/>
<path d="M79.1289 59.7344H81.5313V113.717H79.1289V59.7344Z" fill="#7F7F7F" stroke="black" stroke-width="0.515512"/>
<path d="M2.25225 59.7344H0V113.717H2.25225V59.7344Z" fill="#7F7F7F" stroke="black" stroke-width="0.515512"/>
<path d="M2.25225 62.3906H0V66.8154H2.25225V62.3906Z" fill="#B2B2B2"/>
<path d="M20.5703 139.382C20.902 139.382 21.1709 127.892 21.1709 113.718C21.1709 99.5447 20.902 88.0547 20.5703 88.0547C20.2386 88.0547 19.9697 99.5447 19.9697 113.718C19.9697 127.892 20.2386 139.382 20.5703 139.382Z" fill="black"/>
<path d="M19.6692 83.625H10.0596H9.75931H9.45901L8.85841 84.51L8.25781 86.2799L8.55811 85.3949H8.85841H9.15871H18.7683L19.6692 83.625Z" fill="#CCCCCC"/>
<path d="M9.15922 140.266H18.7688L20.2703 138.496L20.5706 135.841V89.8232L19.8199 86.2834L18.7688 85.3984H9.15922L7.80787 87.6108L7.35742 89.8232V135.841L8.25832 139.823L9.15922 140.266Z" fill="#7F7F7F" stroke="black" stroke-width="0.515512"/>
<path d="M109.159 66.8125H99.5498V105.751H109.159V66.8125Z" fill="#7F7F7F" stroke="black" stroke-width="0.515512"/>
<path d="M109.159 68.5859H108.559H107.808H107.207H100.15H99.5498V70.7983V97.7895V99.5594H100.15H108.559H109.159V97.7895V68.5859Z" fill="#999999"/>
<path d="M109.159 71.2422H108.559H107.808H107.207H100.15H99.5498V72.5696V91.1537V92.4811H100.15H108.559H109.159V91.1537V71.2422Z" fill="#B2B2B2"/>
<path d="M109.159 73.0078H108.559H107.808H107.207H100.15H99.5498V73.8928V85.8397V86.2821H100.15H108.559H109.159V85.8397V73.0078Z" fill="#CCCCCC"/>
<path d="M109.159 74.7812H99.5498V79.206H109.159V74.7812Z" fill="#E5E5E5"/>
<path d="M133.183 74.7812H109.459V98.6751H133.183V74.7812Z" fill="#7F7F7F" stroke="black" stroke-width="0.515512"/>
<path d="M133.183 76.5469H132.432H131.681H130.93H110.21H109.459V77.8743V94.246V95.1309H110.21H132.432H133.183V94.246V76.5469Z" fill="#999999"/>
<path d="M133.183 78.3203H132.432H131.681H130.93H110.21H109.459V79.2053V90.7097V91.5946H110.21H132.432H133.183V90.7097V78.3203Z" fill="#B2B2B2"/>
<path d="M133.183 80.0859H132.432H131.681H130.93H110.21H109.459V81.4134V87.1656V88.0505H110.21H132.432H133.183V87.1656V80.0859Z" fill="#CCCCCC"/>
<path d="M133.183 81.8594H109.459V84.5142H133.183V81.8594Z" fill="#E5E5E5"/>
<path d="M39.189 144.688H70.1199L68.6184 148.227H37.6875L39.189 144.688Z" fill="black" stroke="black" stroke-width="0.515512"/>
<path d="M39.189 146.461H70.1199L68.6184 150.001H37.6875L39.189 146.461Z" fill="black" stroke="black" stroke-width="0.515512"/>
<path d="M8.25783 31.4159H43.9936V0H8.25783V0.442478L8.10768 1.76991L7.95753 3.09735V5.30973L7.80738 7.52212V9.73451L7.65723 11.9469V14.6018V17.2566V19.9115V22.5664L7.80738 24.7788V26.9911L7.95753 28.7611L8.10768 30.531L8.25783 31.4159Z" fill="#7F7F7F" stroke="black" stroke-width="0.515512"/>
<path d="M7.95801 28.7624H43.994V2.65625H7.95801V28.7624Z" fill="#7F7F7F"/>
<path d="M7.6582 27.4307H8.8594H10.0606H11.2618H42.9435H43.9945V26.1033V5.74931V4.42188H42.9435H8.8594H7.6582V5.74931V27.4307Z" fill="#919191"/>
<path d="M7.6582 24.339H8.8594H10.0606H11.2618H42.9435H43.9945V23.4541V6.63993V5.3125H42.9435H8.8594H7.6582V6.63993V24.339Z" fill="#A1A1A1"/>
<path d="M7.6582 23.0123H8.8594H10.0606H11.2618H42.9435H43.9945V21.6849V7.96806V6.64062H42.9435H8.8594H7.6582V7.96806V23.0123Z" fill="#B2B2B2"/>
<path d="M7.6582 20.3503H8.8594H10.0606H11.2618H42.9435H43.9945V19.4654V8.40342V7.96094H42.9435H8.8594H7.6582V8.40342V20.3503Z" fill="#C4C4C4"/>
<path d="M7.6582 19.471H8.8594H10.0606H11.1117H42.9435H43.9945V18.5861V9.29404V8.85156H42.9435H8.8594H7.6582V9.29404V19.471Z" fill="#D4D4D4"/>
<path d="M7.35742 17.2593H43.9941V10.1797H7.35742V17.2593Z" fill="#E5E5E5"/>
<path d="M100.301 78.3222C100.715 78.3222 101.051 70.2 101.051 60.1807C101.051 50.1613 100.715 42.0391 100.301 42.0391C99.8859 42.0391 99.5498 50.1613 99.5498 60.1807C99.5498 70.2 99.8859 78.3222 100.301 78.3222Z" fill="#7F7F7F" stroke="black" stroke-width="0.515512"/>
<path d="M85.1348 47.3438H99.5492V105.751H85.1348V47.3438Z" fill="#B2B2B2" stroke="black" stroke-width="0.515512"/>
<path d="M92.6422 46.4617C94.7983 46.4617 96.5461 45.6693 96.5461 44.6918C96.5461 43.7143 94.7983 42.9219 92.6422 42.9219C90.4861 42.9219 88.7383 43.7143 88.7383 44.6918C88.7383 45.6693 90.4861 46.4617 92.6422 46.4617Z" fill="black" stroke="black" stroke-width="0.515512"/>
<path d="M19.6695 86.2799C20.167 86.2799 20.5704 85.6856 20.5704 84.9524C20.5704 84.2193 20.167 83.625 19.6695 83.625C19.1719 83.625 18.7686 84.2193 18.7686 84.9524C18.7686 85.6856 19.1719 86.2799 19.6695 86.2799Z" fill="#B2B2B2"/>
<path d="M20.5703 89.8254C20.902 89.8254 21.1709 88.6367 21.1709 87.1705C21.1709 85.7042 20.902 84.5156 20.5703 84.5156C20.2386 84.5156 19.9697 85.7042 19.9697 87.1705C19.9697 88.6367 20.2386 89.8254 20.5703 89.8254Z" fill="#7F7F7F"/>
<path d="M44.2947 30.9735C44.7093 30.9735 45.0454 24.0398 45.0454 15.4867C45.0454 6.93364 44.7093 0 44.2947 0C43.8801 0 43.5439 6.93364 43.5439 15.4867C43.5439 24.0398 43.8801 30.9735 44.2947 30.9735Z" fill="#7F7F7F" stroke="black" stroke-width="0.515512"/>
<path d="M149.1 68.5859H133.184V103.984H149.1V68.5859Z" fill="#7F7F7F" stroke="black" stroke-width="0.515512"/>
<path d="M149.099 66.8125H133.183L133.033 69.4674L132.883 72.1222L132.733 74.3346L132.583 76.9895V79.2019L132.433 81.8567V84.5116V86.724V89.3789V91.5913L132.583 94.2461V96.4585L132.733 98.6709L132.883 101.326L133.033 103.538L133.183 105.751H149.099V66.8125Z" fill="#7F7F7F" stroke="black" stroke-width="0.515512"/>
<path d="M149.099 69.4688H148.498H148.048H147.597H133.183L132.883 75.6634L132.732 81.4157V83.628V85.398V91.1502L132.883 96.9024L133.033 98.6723L133.183 100.442H133.633H148.498H149.099V98.6723V69.4688Z" fill="#999999"/>
<path d="M149.099 73.0078H148.498H148.048H147.597H133.183L132.883 78.3175L132.732 79.645V80.9724V82.2998L132.883 87.6096L133.033 92.9193L133.183 94.2467H133.633H148.498H149.099V92.9193V73.0078Z" fill="#B2B2B2"/>
<path d="M149.099 75.6641H148.498H148.048H147.598H133.183L132.883 80.0888V80.5313V81.4163L133.033 86.2835V87.611L133.183 88.0534H133.634H148.498H149.099V87.611V75.6641Z" fill="#CCCCCC"/>
<path d="M149.1 78.3203H133.184V82.7451H149.1V78.3203Z" fill="#E5E5E5"/>
<path d="M149.55 105.751C149.799 105.751 150.001 97.034 150.001 86.2815C150.001 75.5291 149.799 66.8125 149.55 66.8125C149.301 66.8125 149.1 75.5291 149.1 86.2815C149.1 97.034 149.301 105.751 149.55 105.751Z" fill="#7F7F7F" stroke="black" stroke-width="0.515512"/>
<path d="M8.25856 31.4159H43.9943V0H8.25856V0.442478L8.10841 1.76991L7.95826 3.09735L7.80811 5.30973V7.52212L7.65796 9.73451V11.9469L7.50781 14.6018V17.2566V19.9115V22.5664L7.65796 24.7788V26.9912L7.80811 28.7611L8.10841 30.531L8.25856 31.4159Z" stroke="black" stroke-width="0.515512"/>
</g>
<defs>
<clipPath id="clip0_2109_231173">
<rect width="150" height="150" fill="white"/>
</clipPath>
</defs>
</svg>
