<svg width="150" height="150" viewBox="0 0 150 150" fill="none" xmlns="http://www.w3.org/2000/svg">
<g clip-path="url(#clip0_2109_231663)">
<path d="M41.2386 60.8108L38.0664 59.9099L34.441 59.009L31.2688 58.1081L27.6434 57.2072L24.0181 56.3063L20.3927 55.5556L16.7673 54.6547L13.1419 53.9039L9.96973 52.2523V51.6517L10.8761 50.4505L11.7824 50.1502L13.1419 50H43.9576L41.2386 60.8108Z" fill="#CCCCCC" stroke="black" stroke-width="0.521704"/>
<path d="M108.308 60.8108L111.933 59.9099L115.105 59.009L118.731 58.1081L122.356 57.2072L125.528 56.3063L129.154 55.5556L132.779 54.6547L136.405 53.9039L139.577 52.2523L140.03 51.6517L139.124 50.4505L138.217 50.1502L136.405 50H105.589L108.308 60.8108Z" fill="#CCCCCC" stroke="black" stroke-width="0.521704"/>
<path d="M36.707 50L8.61035 146.997H36.707L51.2085 50H36.707Z" fill="#999999" stroke="black" stroke-width="0.521704"/>
<path d="M112.839 50L140.936 146.997H112.839L98.3379 50H112.839Z" fill="#999999" stroke="black" stroke-width="0.521704"/>
<path d="M39.4256 50L13.1416 146.997H32.1748L48.489 50H39.4256Z" fill="#B2B2B2"/>
<path d="M110.121 50L136.405 146.997H117.372L101.058 50H110.121Z" fill="#B2B2B2"/>
<path d="M41.2388 50L17.6738 146.997H27.6436L46.6768 50H41.2388Z" fill="#CCCCCC"/>
<path d="M108.308 50L131.873 146.997H121.903L102.87 50H108.308Z" fill="#CCCCCC"/>
<path d="M27.6436 4.35435V50H121.903V49.3994V4.35435L115.559 0.750751L111.027 0H108.308H103.323H41.2387L30.3626 2.1021L28.0967 3.6036L27.6436 4.35435Z" fill="#7F7F7F"/>
<path d="M36.7071 4.35435L35.8008 50H113.746V49.3994V4.35435L107.855 0.750751L104.23 0H101.964H98.3385H47.5833L37.1603 2.85285L36.7071 4.35435Z" fill="#999999"/>
<path d="M47.583 4.35435V50H101.964V49.3994V4.35435L96.5256 0.3003L95.1661 0H93.8066H91.0875H55.7401H54.3806L48.0362 3.6036L47.583 4.35435Z" fill="#B2B2B2"/>
<path d="M61.1787 4.35435V50H88.369V49.3994V4.35435L86.1032 0.3003L85.65 0H84.7437H82.0246H64.8041H64.3509L61.6319 3.6036L61.1787 4.35435Z" fill="#CCCCCC"/>
<path d="M27.6436 4.35435V50H121.903V49.3994V4.35435L115.559 0.750751L111.027 0H108.308H103.323H41.2387L30.3626 2.1021L28.0967 3.6036L27.6436 4.35435Z" stroke="black" stroke-width="0.521704"/>
<path d="M27.6436 45.7969H121.903" stroke="black" stroke-width="0.521704"/>
<path d="M27.6436 8.85938H121.903" stroke="black" stroke-width="0.521704"/>
<path d="M0 147H150V150.003H0V147Z" fill="#7F7F7F"/>
<path d="M13.1416 147H136.404V150.003H13.1416V147Z" fill="#999999"/>
<path d="M36.707 147H112.84V150.003H36.707V147Z" fill="#B2B2B2"/>
<path d="M55.7402 147H93.8067V150.003H55.7402V147Z" fill="#CCCCCC"/>
<path d="M0 147H150V150.003H0V147Z" stroke="black" stroke-width="0.521704"/>
<path d="M67.5225 50H82.024V146.997H67.5225V50Z" fill="#7F7F7F"/>
<path d="M69.335 50H80.2111V146.997H69.335V50Z" fill="#999999"/>
<path d="M71.1484 50H78.3992V146.997H71.1484V50Z" fill="#B2B2B2"/>
<path d="M72.9609 50H76.5863V146.997H72.9609V50Z" fill="#CCCCCC"/>
<path d="M67.5225 50H82.024V146.997H67.5225V50Z" stroke="black" stroke-width="0.521704"/>
<path d="M51.208 132.883H98.3379V139.79H51.208V132.883Z" fill="#7F7F7F"/>
<path d="M55.7402 132.883H93.8067V139.79H55.7402V132.883Z" fill="#999999"/>
<path d="M62.9912 132.883H86.5562V139.79H62.9912V132.883Z" fill="#B2B2B2"/>
<path d="M68.4287 132.883H81.1175V139.79H68.4287V132.883Z" fill="#CCCCCC"/>
<path d="M51.208 132.883H98.3379V139.79H51.208V132.883Z" stroke="black" stroke-width="0.521704"/>
<path d="M51.208 76.4297H98.3379V83.6369H51.208V76.4297Z" fill="#7F7F7F"/>
<path d="M55.7402 76.4297H93.8067V83.6369H55.7402V76.4297Z" fill="#999999"/>
<path d="M62.9912 76.4297H86.5562V83.6369H62.9912V76.4297Z" fill="#B2B2B2"/>
<path d="M68.4287 76.4297H81.1175V83.6369H68.4287V76.4297Z" fill="#CCCCCC"/>
<path d="M51.208 76.4297H98.3379V83.6369H51.208V76.4297Z" stroke="black" stroke-width="0.521704"/>
<path d="M51.208 59.3125H98.3379V66.2194H51.208V59.3125Z" fill="#7F7F7F"/>
<path d="M55.7402 59.3125H93.8067V66.2194H55.7402V59.3125Z" fill="#999999"/>
<path d="M62.9912 59.3125H86.5562V66.2194H62.9912V59.3125Z" fill="#B2B2B2"/>
<path d="M68.4287 59.3125H81.1175V66.2194H68.4287V59.3125Z" fill="#CCCCCC"/>
<path d="M51.208 59.3125H98.3379V66.2194H51.208V59.3125Z" stroke="black" stroke-width="0.521704"/>
<path d="M58.459 67.1172H91.0874V75.8259H58.459V67.1172Z" fill="#7F7F7F"/>
<path d="M61.1787 67.1172H88.369V75.8259H61.1787V67.1172Z" fill="#999999"/>
<path d="M66.6162 67.1172H82.9304V75.8259H66.6162V67.1172Z" fill="#B2B2B2"/>
<path d="M70.2412 67.1172H79.3047V75.8259H70.2412V67.1172Z" fill="#CCCCCC"/>
<path d="M58.459 67.1172H91.0874V75.8259H58.459V67.1172Z" stroke="black" stroke-width="0.521704"/>
<path d="M0 12.4609H27.6435V24.7732H0V12.4609Z" fill="#999999" stroke="black" stroke-width="0.521704"/>
<path d="M1.35938 24.1736V13.0625H24.9243" stroke="white" stroke-width="0.521704"/>
</g>
<defs>
<clipPath id="clip0_2109_231663">
<rect width="150" height="150" fill="white"/>
</clipPath>
</defs>
</svg>
