<svg width="150" height="150" viewBox="0 0 150 150" fill="none" xmlns="http://www.w3.org/2000/svg">
<path d="M136.646 118.922H148.448V149.252H136.646V118.922Z" fill="#217F21"/>
<path d="M113.043 142.041V126.125H136.645V142.041H113.043Z" fill="#217F21"/>
<path d="M12.1115 123.422H109.316L113.043 125.524V142.341L109.316 144.593H12.1115L8.07422 142.341V125.524L12.1115 123.422Z" fill="#217F21"/>
<path d="M101.863 72.6719H77.0186V112.612H101.863V72.6719Z" fill="#217F21"/>
<path d="M1.24219 68.1686V63.6641H122.981V68.1686H1.24219Z" fill="#217F21"/>
<path d="M1.24219 72.6764H122.981V68.1719H1.24219V72.6764Z" fill="#217F21"/>
<path d="M101.863 63.6642H77.0186V19.8203L101.863 20.7212V63.6642Z" fill="#217F21"/>
<path d="M78.8822 19.823L68.9443 19.5227V9.3125L78.8822 9.6128V19.823Z" fill="#217F21"/>
<path d="M67.0811 9.31027H73.9134V0.901863L67.0811 0.601562V9.31027Z" fill="#217F21"/>
<path d="M101.863 123.42H22.9815V115.612H22.3604V112.609H101.863V115.612V123.42Z" fill="#217F21"/>
<path d="M50.3105 9.31123H50.9317V1.20312H50.3105V9.31123Z" fill="#43A143" stroke="black" stroke-width="0.431882"/>
<path d="M45.9629 19.8196H44.7207V9.60938H45.9629V19.8196Z" fill="#43A143" stroke="black" stroke-width="0.431882"/>
<path d="M22.9815 63.667H20.4971V21.625H22.9815V63.667Z" fill="#43A143" stroke="black" stroke-width="0.431882"/>
<path d="M73.913 9.31027H62.7329H50.9316V0.901863L62.7329 0.601562L73.913 0.901863V9.31027Z" fill="#43A143" stroke="black" stroke-width="0.431882"/>
<path d="M45.9629 19.823L62.112 19.5227L78.8821 19.823V9.3125H62.7331H45.9629V19.823Z" fill="#43A143" stroke="black" stroke-width="0.431882"/>
<path d="M101.863 63.6598H22.9814V20.1162L62.1119 19.5156L101.863 20.1162V63.6598Z" fill="#43A143" stroke="black" stroke-width="0.431882"/>
<path d="M5.58984 67.8648V63.9609H90.0619V67.8648H5.58984Z" fill="#43A143" stroke="black" stroke-width="0.431882"/>
<path d="M5.58984 68.4688V72.3727H90.0619V68.4688H5.58984Z" fill="#43A143" stroke="black" stroke-width="0.431882"/>
<path d="M101.863 72.6719H22.9814V112.612H101.863V72.6719Z" fill="#43A143" stroke="black" stroke-width="0.431882"/>
<path d="M113.044 137.387V126.727H136.646V137.387H113.044Z" fill="#43A143" stroke="black" stroke-width="0.431882"/>
<path d="M137.889 120.117H147.827V141.138H137.889V120.117Z" fill="#43A143" stroke="black" stroke-width="0.431882"/>
<path d="M22.981 72.6719H10.248L20.4965 112.612H22.981V72.6719Z" fill="#217F21" stroke="black" stroke-width="0.431882"/>
<path d="M63.9747 72.6719H60.8691V112.612H63.9747V72.6719Z" fill="#005E00" stroke="black" stroke-width="0.431882"/>
<path d="M113.043 72.6719H101.863V112.612H104.969L113.043 72.6719Z" fill="#005E00" stroke="black" stroke-width="0.431882"/>
<path d="M63.9747 63.667H60.8691V21.625H63.9747V63.667Z" fill="#005E00" stroke="black" stroke-width="0.431882"/>
<path d="M104.969 63.667H101.863V21.625H104.969V63.667Z" fill="#005E00" stroke="black" stroke-width="0.431882"/>
<path d="M80.7452 19.8196H79.5029V9.60938H80.7452V19.8196Z" fill="#005E00" stroke="black" stroke-width="0.431882"/>
<path d="M62.1113 19.5193H62.7324V9.60938H62.1113V19.5193Z" fill="#005E00" stroke="black" stroke-width="0.431882"/>
<path d="M62.7324 9.31123H62.1113V1.20312H62.7324V9.31123Z" fill="#005E00" stroke="black" stroke-width="0.431882"/>
<path d="M73.9131 9.31123H75.1553V1.20312H73.9131V9.31123Z" fill="#005E00" stroke="black" stroke-width="0.431882"/>
<path d="M17.3917 123.727H91.9259L96.8949 125.829V142.045L91.9259 144.297H17.3917L13.665 142.045V125.829L17.3917 123.727Z" fill="#43A143"/>
<path d="M137.889 121.023H147.827V122.825H137.889V121.023Z" fill="#82E082"/>
<path d="M113.043 128.229V127.328H136.645V128.229H113.043Z" fill="#82E082"/>
<path d="M21.1183 123.727H24.5345L22.3605 125.829V142.045L24.5345 144.297H21.1183L17.3916 142.045V125.829L21.1183 123.727Z" fill="#82E082"/>
<path d="M36.6458 72.6719H28.5713V112.612H36.6458V72.6719Z" fill="#82E082"/>
<path d="M9.31641 68.4688V72.3727H17.3909V68.4688H9.31641Z" fill="#82E082"/>
<path d="M9.31641 67.8648V63.9609H17.3909V67.8648H9.31641Z" fill="#82E082"/>
<path d="M36.6458 63.6642H28.5713V20.4209L36.6458 19.8203V63.6642Z" fill="#82E082"/>
<path d="M51.5529 19.5227L48.4473 19.823V9.3125H51.5529V19.5227Z" fill="#82E082"/>
<path d="M52.7949 9.31027H54.6583V0.601562L52.7949 0.901863V9.31027Z" fill="#82E082"/>
<path d="M25.1553 112.914V115.617H80.1242V112.914H25.1553Z" fill="#217F21"/>
<path d="M97.5158 117.119V118.32H94.4102V117.119H92.5469V115.617H99.3792V117.119H97.5158Z" fill="black"/>
<path d="M78.882 117.119V118.32H75.7764V117.119H73.9131V115.617H80.7454V117.119H78.882Z" fill="black"/>
<path d="M63.3537 117.119V118.32H60.2481V117.119H58.3848V115.617H65.2171V117.119H63.3537Z" fill="black"/>
<path d="M46.5842 117.119V118.32H43.4786V117.119H41.6152V115.617H48.4475V117.119H46.5842Z" fill="black"/>
<path d="M29.8137 117.119V118.32H26.7081V117.119H25.1553V115.617H31.677V117.119H29.8137Z" fill="black"/>
<path d="M38.5091 75.0743V76.5758H33.5401V75.0743H31.0557V72.6719H40.9936V75.0743H38.5091Z" fill="#7F7F7F"/>
<path d="M63.9749 75.0743V76.5758H59.006V75.0743H56.5215V72.6719H66.4594V75.0743H63.9749Z" fill="#7F7F7F"/>
<path d="M87.5774 75.0743V76.5758H82.6085V75.0743H80.124V72.6719H90.0619V75.0743H87.5774Z" fill="#7F7F7F"/>
<path d="M116.77 75.0743V76.5758H111.18V75.0743H108.695V72.6719H119.254V75.0743H116.77Z" fill="#7F7F7F"/>
<path d="M116.77 61.2593V59.7578H111.18V61.2593H108.695V63.6617H119.254V61.2593H116.77Z" fill="#7F7F7F"/>
<path d="M87.5774 61.2593V59.7578H82.6085V61.2593H80.124V63.6617H90.0619V61.2593H87.5774Z" fill="#7F7F7F"/>
<path d="M63.9749 61.2593V59.7578H59.006V61.2593H56.5215V63.6617H66.4594V61.2593H63.9749Z" fill="#7F7F7F"/>
<path d="M38.5091 61.2593V59.7578H33.5401V61.2593H31.0557V63.6617H40.9936V61.2593H38.5091Z" fill="#7F7F7F"/>
<path d="M13.0433 61.2593V59.7578H7.45322V61.2593H4.96875V63.6617H14.9066V61.2593H13.0433Z" fill="#7F7F7F"/>
<path d="M13.0433 75.0743V76.5758H7.45322V75.0743H4.96875V72.6719H14.9066V75.0743H13.0433Z" fill="#7F7F7F"/>
<path d="M7.45312 74.7784H12.7326V72.9766H7.45312V74.7784Z" fill="#F0F0F0"/>
<path d="M33.54 74.7784H38.509V72.9766H33.54V74.7784Z" fill="#F0F0F0"/>
<path d="M59.0059 74.7784H63.9748V72.9766H59.0059V74.7784Z" fill="#F0F0F0"/>
<path d="M82.6084 74.7784H87.5773V72.9766H82.6084V74.7784Z" fill="#F0F0F0"/>
<path d="M111.18 74.7784H116.149V72.9766H111.18V74.7784Z" fill="#F0F0F0"/>
<path d="M111.18 61.5625H116.149V63.3643H111.18V61.5625Z" fill="#F0F0F0"/>
<path d="M82.6084 61.5625H87.5773V63.3643H82.6084V61.5625Z" fill="#F0F0F0"/>
<path d="M59.0059 61.5625H63.9748V63.3643H59.0059V61.5625Z" fill="#F0F0F0"/>
<path d="M33.54 61.5625H38.509V63.3643H33.54V61.5625Z" fill="#F0F0F0"/>
<path d="M7.45312 61.5625H12.7326V63.3643H7.45312V61.5625Z" fill="#F0F0F0"/>
<path d="M26.708 117.115H29.8136V115.914H26.708V117.115Z" fill="#F0F0F0"/>
<path d="M94.4102 117.115H97.5157V115.914H94.4102V117.115Z" fill="#F0F0F0"/>
<path d="M60.248 117.115H63.3536V115.914H60.248V117.115Z" fill="#F0F0F0"/>
<path d="M43.4785 117.115H46.5841V115.914H43.4785V117.115Z" fill="#F0F0F0"/>
<path d="M75.7764 117.115H78.882V115.914H75.7764V117.115Z" fill="#F0F0F0"/>
</svg>
