<svg width="150" height="150" viewBox="0 0 150 150" fill="none" xmlns="http://www.w3.org/2000/svg">
<g clip-path="url(#clip0_2109_233731)">
<path d="M18.7688 106.156L0 150H125.075L106.156 106.156H18.7688Z" fill="#B2B2B2" stroke="black" stroke-width="0.3003"/>
<path d="M18.7689 106.156L17.1173 110.06L15.1653 114.715L13.3635 118.919L11.7119 122.823L10.0602 126.727L8.40856 130.631L6.45661 134.985L4.35451 139.94L3.75391 141.291L7.35751 139.79L14.4146 137.087L21.6218 134.835L28.829 132.883L36.1863 131.381L43.6938 130.33L51.2014 129.58L58.7089 129.129H66.2164L73.7239 129.58L81.2314 130.33L88.7389 131.381L96.0962 132.883L103.303 134.835L110.511 137.087L117.568 139.79L121.171 141.291L120.571 139.94L118.919 136.186L116.967 131.682L115.315 127.628L113.664 123.724L112.012 119.82L110.21 115.766L108.258 111.261L106.757 107.508L106.156 106.156H103.303H18.7689Z" fill="#7F7F7F"/>
<path d="M62.3123 0H150V50H123.574L124.324 54.5045L124.925 59.1592V65.4655L124.324 71.7718L122.973 77.9279L121.171 83.7838L118.769 89.4895L115.916 94.7447L112.462 99.8499L108.709 104.354L104.354 108.709L99.8499 112.462L94.7447 115.916L89.4895 118.769L83.7838 121.171L77.9279 122.973L71.7718 124.324L65.4655 124.925L62.3123 125.075L59.1592 124.925L52.8529 124.324L46.8468 122.973L40.991 121.171L35.4354 118.769L30.03 115.916L25.0751 112.462L20.4204 108.709L16.2162 104.354L12.3123 99.8499L9.00901 94.7447L6.15616 89.4895L3.75375 83.7838L1.95195 77.9279L0.600601 71.7718L0 65.4655V62.3123V59.1592L0.600601 52.8529L1.95195 46.8468L3.75375 40.991L6.15616 35.4354L9.00901 30.03L12.3123 25.0751L16.2162 20.4204L20.4204 16.2162L25.0751 12.3123L30.03 9.00901L35.4354 6.15616L40.991 3.75375L46.8468 1.95195L52.8529 0.600601L59.1592 0H62.3123Z" fill="#B2B2B2" stroke="black" stroke-width="0.3003"/>
<path d="M13.9644 75.524L20.2707 74.0225L19.5199 69.6681L18.9193 65.1636V60.0585L19.3698 55.7042L20.1205 51.3498L21.4719 47.2958L23.1236 43.3919L25.0755 39.6381L27.4779 36.1847L30.1806 33.0315L33.0335 30.0285L36.3368 27.3258L39.7902 24.9234L43.544 22.8213L47.4479 21.1696L51.5019 19.9684L55.7061 19.0675L60.0605 18.6171H64.565L68.7692 19.2177L72.8232 20.1186L73.4239 20.2687L75.2257 13.9624L74.4749 13.8123L69.8202 13.0615L64.8653 12.6111H63.9644L63.2136 12.4609H62.3127L57.2076 12.7612L52.2527 13.512L47.598 14.7132L43.0935 16.515L38.7392 18.6171L34.535 21.0195L30.7812 24.0225L27.1776 27.1757L24.0245 30.7793L21.0214 34.533L18.619 38.7372L16.5169 43.0916L14.7151 47.5961L13.5139 52.2507L12.7632 57.2057L12.613 59.7582L12.4629 62.3108V63.2117L12.7632 68.1666L13.5139 73.1216L13.8142 74.7733L13.9644 75.524Z" fill="#E5E5E5"/>
<path d="M106.757 17.8674H150V8.55811L93.8438 8.25781L94.7447 8.85841L95.4954 9.30886L96.3963 9.90946L97.2972 10.5101L98.048 11.1107L98.9489 11.7113L99.8498 12.3119L100.601 12.9125L101.351 13.5131L102.252 14.1137L103.003 14.7143L103.754 15.465L104.504 16.0656L105.255 16.6662L106.006 17.2668L106.757 17.8674Z" fill="#E5E5E5"/>
<path d="M123.574 49.997H150V31.0781H116.667L117.268 32.2793L117.868 33.3304L118.469 34.3814L118.919 35.5826L119.52 36.7838L119.97 37.985L120.571 39.1862L121.021 40.3874L121.472 41.5886L121.772 42.7898L122.223 43.991L122.523 45.1922L122.823 46.3934L123.123 47.5946L123.274 48.7958L123.574 49.997Z" fill="#7F7F7F"/>
<path d="M110.96 49.3984L104.654 50.8999L105.405 55.2543L106.006 59.6086V64.5636L105.555 69.0681L104.804 73.2723L103.453 77.4765L101.801 81.3804L99.8494 85.1342L97.447 88.5876L94.7443 91.8909L90.2398 96.2453L86.9365 98.6477L83.3329 100.9L79.4289 102.702L75.3749 104.203L71.1707 105.254L66.8163 105.855L62.3118 106.155L57.507 105.855L53.3028 105.104L51.2007 104.654L49.6992 110.66L50.45 110.81L55.1046 111.711L59.9094 112.311H60.6602L61.5611 112.462H62.3118L67.4169 112.161L72.3719 111.41L77.1767 110.209L81.8314 108.407L86.1857 106.305L90.3899 103.903L94.1437 100.9L97.7473 97.7468L100.9 94.1432L103.903 90.3894L106.306 86.1852L108.408 81.8309L110.21 77.1762L111.411 72.3714L112.162 67.4165L112.312 64.8639L112.462 62.3114V61.5606L112.012 56.6056L111.261 51.8008L110.96 50.1492V49.3984Z" fill="#7F7F7F"/>
</g>
<defs>
<clipPath id="clip0_2109_233731">
<rect width="150" height="150" fill="white"/>
</clipPath>
</defs>
</svg>
