<svg width="150" height="150" viewBox="0 0 150 150" fill="none" xmlns="http://www.w3.org/2000/svg">
<g clip-path="url(#clip0_2109_229778)">
<path d="M122.072 52.6258L118.469 8.23438H136.787L133.183 52.6258H122.072Z" fill="#4C4C4C" stroke="black" stroke-width="0.463694"/>
<path d="M0 109.906L0.600601 120.288L2.4024 129.596L5.25526 137.114L8.85886 142.484L13.0631 144.99H14.5646H88.7387L103.453 136.398V47.6153L88.7387 39.0234H14.5646L10.2102 40.8134L6.45646 45.1094L3.3033 51.9113L1.05105 60.8611L0 71.243V74.823V109.906Z" fill="#7F7F7F"/>
<path d="M0 107.044L1.05105 118.858L4.2042 127.808L8.85886 134.252L13.0631 136.4H14.5646H88.7387L103.453 129.24V55.4931L88.7387 47.6172H14.5646L10.2102 49.0492L6.45646 52.9871L2.4024 61.221L0.15015 71.9609L0 77.6888V107.044Z" fill="#999999"/>
<path d="M0 101.315L2.4024 110.981L6.45646 115.993L11.7117 118.499H13.0631H88.7387L103.453 114.203V69.8116L88.7387 65.5156H14.5646L10.2102 66.5896L5.25526 69.8116L1.65165 74.8235L0 83.4154V101.315Z" fill="#B2B2B2"/>
<path d="M0 95.5859L0.15015 96.6599L4.2042 99.5238L8.85886 100.956L13.0631 101.314H88.7387L103.453 99.8818V84.846L88.7387 83.4141H13.0631L7.65766 84.1301L3.3033 85.92L0.15015 88.068L0 89.142V95.5859Z" fill="#CCCCCC"/>
<path d="M14.5645 39.0234V145.706" stroke="black" stroke-width="0.463694"/>
<path d="M88.7383 39.0234V145.706" stroke="black" stroke-width="0.463694"/>
<path d="M29.5801 39.0234H85.1356V127.806H29.5801V39.0234Z" fill="#4C4C4C" stroke="black" stroke-width="0.463694"/>
<path d="M22.0723 97.0156H86.6368V105.608H22.0723V97.0156Z" fill="#B2B2B2" stroke="black" stroke-width="0.463694"/>
<path d="M22.0723 114.203H86.6368V123.511H22.0723V114.203Z" fill="#B2B2B2" stroke="black" stroke-width="0.463694"/>
<path d="M22.0723 61.2188H86.6368V70.5266H22.0723V61.2188Z" fill="#CCCCCC" stroke="black" stroke-width="0.463694"/>
<path d="M22.0723 79.1172H86.6368V87.7091H22.0723V79.1172Z" fill="#CCCCCC" stroke="black" stroke-width="0.463694"/>
<path d="M22.0723 43.3203H86.6368V52.6282H22.0723V43.3203Z" fill="#E5E5E5" stroke="black" stroke-width="0.463694"/>
<path d="M22.0723 34.7266H86.6368V39.0225H22.0723V34.7266Z" fill="#E5E5E5" stroke="black" stroke-width="0.463694"/>
<path d="M25.6758 83.4141H55.4055V150.001H25.6758V83.4141Z" fill="#666666" stroke="black" stroke-width="0.463694"/>
<path d="M29.5801 141.406V92.7188H50.0005" stroke="white" stroke-width="0.463694"/>
<path d="M14.5645 145.703H88.7386V149.999H14.5645V145.703Z" fill="black" stroke="black" stroke-width="0.463694"/>
<path d="M103.453 52.625H114.564V132.1H103.453V52.625Z" fill="#333333" stroke="black" stroke-width="0.463694"/>
<path d="M55.4053 83.4141H57.2071V145.705H55.4053V83.4141Z" fill="#4C4C4C" stroke="black" stroke-width="0.463694"/>
<path d="M114.564 86.2734H103.453V98.4453H114.564V86.2734Z" fill="#B2B2B2"/>
<path d="M114.564 111.336H103.453V123.508H114.564V111.336Z" fill="#7F7F7F"/>
<path d="M114.564 61.2188H103.453V73.3906H114.564V61.2188Z" fill="#CCCCCC"/>
<path d="M0 109.906L0.600601 120.288L2.4024 129.596L5.25526 137.114L8.85886 142.484L13.0631 144.99H14.5646H88.7387L103.453 136.398V47.6153L88.7387 39.0234H14.5646L10.2102 40.8134L6.45646 45.1094L3.3033 51.9113L1.05105 60.8611L0 71.243V74.823V109.906Z" stroke="black" stroke-width="0.463694"/>
<path d="M114.564 39.0234H118.468V145.706H114.564V39.0234Z" fill="#7F7F7F"/>
<path d="M133.184 52.625L140.691 61.2169H144.295V123.508H140.691L133.184 132.1V52.625Z" fill="#7F7F7F"/>
<path d="M144.294 43.3203H148.198V141.411H144.294V43.3203Z" fill="#BFBFBF"/>
<path d="M133.184 59.0703L140.691 66.2302H144.295V117.782H140.691L133.184 125.657V59.0703Z" fill="#999999"/>
<path d="M133.184 72.6719L140.691 76.9678H144.295V107.755H140.691L133.184 112.051V72.6719Z" fill="#B2B2B2"/>
<path d="M133.184 85.5625L140.691 86.9945H144.295V97.0183H140.691L133.184 99.1663V85.5625Z" fill="#CCCCCC"/>
<path d="M133.184 52.625L140.691 61.2169H144.295V123.508H140.691L133.184 132.1V52.625Z" stroke="black" stroke-width="0.463694"/>
<path d="M140.69 123.51V61.2188" stroke="black" stroke-width="0.463694"/>
<path d="M144.294 56.9219H148.198V127.805H144.294V56.9219Z" fill="#D9D9D9"/>
<path d="M144.294 69.8125H148.198V114.204H144.294V69.8125Z" fill="#F2F2F2"/>
<path d="M144.294 83.4141H148.198V101.314H144.294V83.4141Z" fill="white"/>
<path d="M144.294 43.3203H148.198V141.411H144.294V43.3203Z" stroke="black" stroke-width="0.463694"/>
<path d="M114.564 48.3281H118.468V137.111H114.564V48.3281Z" fill="#999999"/>
<path d="M114.564 65.5156H118.468V119.215H114.564V65.5156Z" fill="#B2B2B2"/>
<path d="M114.564 83.4141H118.468V101.314H114.564V83.4141Z" fill="#CCCCCC"/>
<path d="M114.564 39.0234H118.468V145.706H114.564V39.0234Z" stroke="black" stroke-width="0.463694"/>
<path d="M105.255 8.23389V0H150V8.23389H105.255Z" fill="#7F7F7F"/>
<path d="M108.858 8.23389V0H146.096V8.23389H108.858Z" fill="#999999"/>
<path d="M116.366 8.23389V0H138.889V8.23389H116.366Z" fill="#B2B2B2"/>
<path d="M123.874 8.23389V0H131.382V8.23389H123.874Z" fill="#CCCCCC"/>
<path d="M105.255 8.23389V0H150V8.23389H105.255Z" stroke="black" stroke-width="0.463694"/>
<path d="M122.072 43.3203H133.183V150.003H122.072V43.3203Z" fill="#7F7F7F"/>
<path d="M122.072 52.625H133.183V141.408H122.072V52.625Z" fill="#999999"/>
<path d="M122.072 70.5234H133.183V123.507H122.072V70.5234Z" fill="#B2B2B2"/>
<path d="M122.072 87.7109H133.183V105.611H122.072V87.7109Z" fill="#CCCCCC"/>
<path d="M122.072 43.3203H133.183V150.003H122.072V43.3203Z" stroke="black" stroke-width="0.463694"/>
<path d="M118.469 52.625H122.072V132.1H118.469V52.625Z" fill="#4C4C4C"/>
<path d="M118.469 59.0703H122.072V125.657H118.469V59.0703Z" fill="#666666"/>
<path d="M118.469 71.9609H122.072V112.056H118.469V71.9609Z" fill="#7F7F7F"/>
<path d="M118.469 85.5625H122.072V99.1663H118.469V85.5625Z" fill="#999999"/>
<path d="M118.469 52.625H122.072V132.1H118.469V52.625Z" stroke="black" stroke-width="0.463694"/>
<path d="M42.3427 127.804C45.4109 127.804 47.8982 121.874 47.8982 114.558C47.8982 107.243 45.4109 101.312 42.3427 101.312C39.2744 101.312 36.7871 107.243 36.7871 114.558C36.7871 121.874 39.2744 127.804 42.3427 127.804Z" fill="#4C7F7F" stroke="black" stroke-width="0.463694"/>
</g>
<defs>
<clipPath id="clip0_2109_229778">
<rect width="150" height="150" fill="white"/>
</clipPath>
</defs>
</svg>
