<svg width="150" height="150" viewBox="0 0 150 150" fill="none" xmlns="http://www.w3.org/2000/svg">
<g clip-path="url(#clip0_2109_231540)">
<path d="M16.7783 10.0601V9.60961V9.30931V8.70871V3.45345L21.2858 0.15015L22.2875 0H22.7883H26.5446H135.977L141.737 2.55255L141.987 3.15315V3.45345V10.0601H16.7783Z" fill="#99CCCC"/>
<path d="M10.7676 20.2677L16.7776 16.6641H141.986L147.996 20.2677H10.7676Z" fill="#99CCCC"/>
<path d="M10.7676 136.189H147.996V20.2734H10.7676V136.189Z" fill="#99CCCC"/>
<path d="M25.793 10.0601V9.60961V9.30931V8.70871V3.45345L29.7996 0H30.3005H30.8013H34.3072H118.948L124.708 2.55255L124.958 3.15315V3.45345V10.0601H25.793Z" fill="#00FFFF"/>
<path d="M19.7832 20.2677L25.7932 16.6641H124.958L130.969 20.2677H19.7832Z" fill="#00FFFF"/>
<path d="M19.7832 136.189H130.969V20.2734H19.7832V136.189Z" fill="#00FFFF"/>
<path d="M36.8115 10.0601V9.60961V9.30931V8.70871V3.45345L37.5628 1.95195L39.3157 0.750751L41.319 0.15015L42.3207 0H42.8215H46.3274H95.91L98.6646 0.45045L100.418 1.35135L101.67 2.55255L101.92 3.15315V3.45345V10.0601H36.8115Z" fill="#99FFFF"/>
<path d="M30.8018 20.2677L36.8118 16.6641H101.92L107.93 20.2677H30.8018Z" fill="#99FFFF"/>
<path d="M30.8018 136.189H107.93V20.2734H30.8018V136.189Z" fill="#99FFFF"/>
<path d="M147.996 136.188L141.986 139.791H16.7776L10.7676 136.188H147.996Z" fill="#669999" stroke="black" stroke-width="0.387815"/>
<path d="M130.968 16.6691H27.7959L33.5555 14.7172L31.5522 10.8133L28.5472 10.2127L27.7959 10.0625H130.968L125.208 12.4649L127.712 16.3688L130.217 16.6691H130.968Z" fill="#669999" stroke="black" stroke-width="0.387815"/>
<path d="M124.959 149.999H33.8067L26.0438 148.648L19.7833 145.345L17.0287 140.69L16.7783 139.789H141.987L139.733 144.444L134.224 148.197L126.712 149.849L124.959 149.999Z" fill="#336666" stroke="black" stroke-width="0.387815"/>
<path d="M25.793 22.0703H30.8013V32.2805H25.793V22.0703Z" fill="#336666" stroke="black" stroke-width="0.387815"/>
<path d="M104.925 22.0703H113.94V32.2805H104.925V22.0703Z" fill="#336666" stroke="black" stroke-width="0.387815"/>
<path d="M16.7783 10.0601V9.60961V9.30931V8.70871V3.45345L21.2858 0.15015L22.2875 0H22.7883H26.5446H135.977L141.737 2.55255L141.987 3.15315V3.45345V10.0601H16.7783Z" stroke="black" stroke-width="0.387815"/>
<path d="M130.968 16.6691H27.7959L33.5555 14.7172L31.5522 10.8133L28.5472 10.2127L27.7959 10.0625H130.968L125.208 12.4649L127.712 16.3688L130.217 16.6691H130.968Z" stroke="black" stroke-width="0.387815"/>
<path d="M10.7676 20.2677L16.7776 16.6641H141.986L147.996 20.2677H10.7676Z" stroke="black" stroke-width="0.387815"/>
<path d="M10.7676 136.189H147.996V20.2734H10.7676V136.189Z" stroke="black" stroke-width="0.387815"/>
<path d="M10.7679 32.8792H0V20.8672H10.7679V32.8792Z" stroke="black" stroke-width="0.387815"/>
<path d="M33.8059 13.6661L30.0497 10.3628L28.5472 10.2127L27.7959 10.0625H130.968L125.208 12.4649L124.958 13.3658V13.6661H124.707H33.8059Z" fill="#336666"/>
<path d="M7.7627 34.0859H150V35.8877H7.7627V34.0859Z" fill="#669999"/>
<path d="M16.7783 34.0859H132.972V35.8877H16.7783V34.0859Z" fill="#99CCCC"/>
<path d="M27.7959 34.0859H110.934V35.8877H27.7959V34.0859Z" fill="#00FFFF"/>
<path d="M7.7627 34.0859H150V35.8877H7.7627V34.0859Z" stroke="black" stroke-width="0.387815"/>
<path d="M16.7783 125.979H39.8167V88.7422H16.7783V125.979Z" fill="#00FFFF" stroke="black" stroke-width="0.387815"/>
<path d="M10.7679 32.8792H0V20.8672H10.7679V32.8792Z" fill="#99CCCC" stroke="black" stroke-width="0.387815"/>
<path d="M16.778 125.978V88.7404H39.8164H38.3139L35.5593 88.5902H32.5543L30.0501 88.2899L27.2955 88.1398L24.7913 87.8395L22.5376 87.389L20.2838 87.0887L17.5292 86.4881L15.025 85.7374L13.2721 84.9866L11.5192 83.7854L11.0184 83.0347L10.7679 82.7344H0V119.972L0.751252 121.773L2.00334 122.975L3.75626 123.876L6.26043 124.626L9.01502 125.227L12.02 125.677L15.2755 125.978H16.778Z" fill="#99CCCC" stroke="black" stroke-width="0.387815"/>
<path d="M0 32.8792V20.8672H10.7679V22.0684H0.751252V32.8792H0Z" fill="#00FFFF"/>
<path d="M0 82.7344V83.335L0.250417 83.7854L0.751252 84.386L1.25209 84.9866L2.00334 85.4371L2.75459 85.8875L3.75626 86.4881L5.00835 86.7884L6.26043 87.2389L7.51252 87.6893L9.01503 87.9896L10.5175 88.2899L12.02 88.4401L13.5225 88.5902L15.2755 88.7404H16.778" stroke="black" stroke-width="0.387815"/>
</g>
<defs>
<clipPath id="clip0_2109_231540">
<rect width="150" height="150" fill="white"/>
</clipPath>
</defs>
</svg>
