<svg width="150" height="150" viewBox="0 0 150 150" fill="none" xmlns="http://www.w3.org/2000/svg">
<g clip-path="url(#clip0_2109_233030)">
<path d="M67.3752 150L37.4307 145.796H7.48614L0 133.784V101.351H7.48614V52.7027H0V28.3784H37.4307V32.2823H59.6118V0H89.5564V32.2823H135.028L149.445 44.5946V52.7027H142.237V101.351L149.445 101.051L150 135.886L142.237 143.994L131.146 150H67.3752Z" fill="#666633"/>
<path d="M150 44.5936H24.3994L37.4308 32.2812H135.028L150 44.5936Z" fill="#7F7F4C"/>
<path d="M2.21777 80.0312H10.813V94.1454H2.21777V80.0312Z" fill="#333300"/>
<path d="M2.21777 80.0305H10.813V69.8203H2.21777V80.0305Z" fill="#666633"/>
<path d="M2.21777 69.8203H10.813V94.1446H2.21777V69.8203Z" stroke="black" stroke-width="0.408075"/>
<path d="M7.48633 52.7031H142.237V101.352H7.48633V52.7031Z" fill="#4C4C19"/>
<path d="M7.48633 101.352V52.7031H44.6397V101.352H7.48633Z" fill="#333300" stroke="black" stroke-width="0.408075"/>
<path d="M45.749 101.352H141.682V143.994L131.146 150H67.3756L45.749 146.997V101.352Z" fill="#6E6E3B"/>
<path d="M54.0664 101.352H132.809V149.099L131.146 150H67.3751L54.0664 147.898V101.352Z" fill="#787845"/>
<path d="M62.9395 101.352H124.492V150H67.3757L62.9395 149.099V101.352Z" fill="#7F7F4C"/>
<path d="M71.2568 101.352H116.174V150H71.2568V101.352Z" fill="#878754"/>
<path d="M79.5752 101.352H107.856V150H79.5752V101.352Z" fill="#91915E"/>
<path d="M87.8926 101.352H98.9832V150H87.8926V101.352Z" fill="#999966"/>
<path d="M37.4307 145.796V137.688H48.5212V146.997L37.4307 145.796Z" fill="#333300" stroke="black" stroke-width="0.408075"/>
<path d="M57.9482 149.099V137.688H69.0388V150L57.9482 149.099Z" fill="#333300" stroke="black" stroke-width="0.408075"/>
<path d="M78.4658 150V137.688H89.5564V150H78.4658Z" fill="#333300" stroke="black" stroke-width="0.408075"/>
<path d="M98.9834 150V137.688H110.074V150H98.9834Z" fill="#333300" stroke="black" stroke-width="0.408075"/>
<path d="M119.501 150V137.688H131.146V150H119.501Z" fill="#333300" stroke="black" stroke-width="0.408075"/>
<path d="M14.6953 145.796V137.688H26.3404V145.796H14.6953Z" fill="#333300" stroke="black" stroke-width="0.408075"/>
<path d="M45.749 52.7031H67.3756V101.352H45.749V52.7031Z" fill="#6E6E3B"/>
<path d="M47.9668 52.7031H65.1572V101.352H47.9668V52.7031Z" fill="#787845"/>
<path d="M49.6299 52.7031H63.4931V101.352H49.6299V52.7031Z" fill="#7F7F4C"/>
<path d="M51.2939 52.7031H61.83V101.352H51.2939V52.7031Z" fill="#878754"/>
<path d="M53.5117 52.7031H59.6115V101.352H53.5117V52.7031Z" fill="#91915E"/>
<path d="M55.1758 52.7031H57.9484V101.352H55.1758V52.7031Z" fill="#999966"/>
<path d="M67.3752 150L37.4307 145.796H7.48614L0 133.784V101.351H7.48614V52.7027H0V28.3784H37.4307V32.2823H59.6118V0H89.5564V32.2823H135.028L149.445 44.5946V52.7027H142.237V101.351L149.445 101.051L150 135.886L142.237 143.994L131.146 150H67.3752Z" stroke="black" stroke-width="0.408075"/>
<path d="M150 50.6016H0V52.7037H150V50.6016Z" stroke="black" stroke-width="0.408075"/>
<path d="M7.48633 63.8125H142.237" stroke="#666633" stroke-width="0.408075"/>
<path d="M7.48633 65.9141H142.237" stroke="#333300" stroke-width="0.408075"/>
<path d="M7.48633 76.7266H142.237" stroke="#666633" stroke-width="0.408075"/>
<path d="M7.48633 78.8281H142.237" stroke="#333300" stroke-width="0.408075"/>
<path d="M7.48633 89.0391H142.237" stroke="#666633" stroke-width="0.408075"/>
<path d="M7.48633 91.1406H142.237" stroke="#333300" stroke-width="0.408075"/>
<path d="M7.48633 101.055H142.237" stroke="#666633" stroke-width="0.408075"/>
<path d="M0 103.156H150" stroke="#333300" stroke-width="0.408075"/>
<path d="M0 133.781H9.14972L10.8133 135.883H147.782L140.018 142.79L131.146 146.994" stroke="black" stroke-width="0.408075"/>
<path d="M91.7744 150V103.453" stroke="black" stroke-width="0.408075"/>
<path d="M97.3193 103.453V150" stroke="black" stroke-width="0.408075"/>
<path d="M37.4308 32.2812L24.3994 44.5936H33.5491L42.9761 32.2812H37.4308Z" fill="#999966" stroke="black" stroke-width="0.408075"/>
<path d="M128.928 32.2812L140.573 44.5936H150L135.028 32.2812H128.928Z" fill="#999966" stroke="black" stroke-width="0.408075"/>
<path d="M113.956 32.2812L121.165 44.5936H130.592L119.501 32.2812H113.956Z" fill="#999966" stroke="black" stroke-width="0.408075"/>
<path d="M98.4287 32.2812L101.756 44.5936H111.183L104.529 32.2812H98.4287Z" fill="#999966" stroke="black" stroke-width="0.408075"/>
<path d="M83.4567 32.2812L82.3477 44.5936H91.7746L89.002 32.2812H83.4567Z" fill="#999966" stroke="black" stroke-width="0.408075"/>
<path d="M67.9302 32.2812L62.9395 44.5936H72.3664L73.4755 32.2812H67.9302Z" fill="#999966" stroke="black" stroke-width="0.408075"/>
<path d="M52.9573 32.2812L43.5303 44.5936H52.9573L58.5025 32.2812H52.9573Z" fill="#999966" stroke="black" stroke-width="0.408075"/>
<path d="M59.6123 0H72.921V54.5045H59.6123V0Z" fill="#999966" stroke="black" stroke-width="0.408075"/>
<path d="M76.8018 0H89.5559V54.5045H76.8018V0Z" fill="#999966" stroke="black" stroke-width="0.408075"/>
</g>
<defs>
<clipPath id="clip0_2109_233030">
<rect width="150" height="150" fill="white"/>
</clipPath>
</defs>
</svg>
