<svg width="150" height="150" viewBox="0 0 150 150" fill="none" xmlns="http://www.w3.org/2000/svg">
<g clip-path="url(#clip0_2109_234396)">
<path d="M99.8499 112.462L104.054 108.859L108.108 105.105L111.562 100.901L114.715 96.5465L117.568 91.8919L119.97 87.0871L121.772 81.982L123.273 76.7267L124.324 71.3213L124.925 65.9159L125.075 62.3123H150V0H62.3123L56.006 0.3003L49.8498 1.2012L43.8438 2.7027L38.1381 4.8048L32.7327 7.50751L27.6276 10.6607L22.6727 14.2643L18.3183 18.3183L14.2643 22.6727L10.6607 27.6276L7.50751 32.7327L4.8048 38.1381L2.7027 43.8438L1.2012 49.8498L0.3003 56.006L0 59.1592V62.3123V64.1141L0.3003 69.6697L1.2012 75.0751L2.55255 80.3303L4.35435 85.4354L6.60661 90.3904L9.30931 95.1952L12.3123 99.6997L15.7658 103.904L19.5195 107.808L23.7237 111.261L25.0751 112.462L6.15616 150H118.769L99.8499 112.462Z" fill="#00FFFF" stroke="black" stroke-width="0.3003"/>
<path d="M100.15 112.461L95.9461 115.314L91.5917 117.866L86.9371 119.968L82.2824 121.77L77.3274 123.122L72.3725 124.173L67.4175 124.773L64.865 124.923L63.5136 125.074H62.3124L57.2073 124.773L52.2524 124.173L47.4476 123.122L42.7929 121.62L38.1383 119.818L33.6338 117.716L29.2794 115.164L26.1262 113.062L25.0752 112.461" stroke="black" stroke-width="0.3003"/>
</g>
<defs>
<clipPath id="clip0_2109_234396">
<rect width="150" height="150" fill="white"/>
</clipPath>
</defs>
</svg>
