<svg width="150" height="150" viewBox="0 0 150 150" fill="none" xmlns="http://www.w3.org/2000/svg">
<path d="M142.796 14.2656H148.456V122.224H142.796V14.2656Z" fill="#666666"/>
<path d="M1.28613 14.2656H6.94651V122.224H1.28613V14.2656Z" fill="#666666"/>
<path d="M144.339 122.221L142.796 127.477L139.965 131.381L135.849 134.984L130.446 138.288L124.014 141.14L116.295 143.693L107.804 145.795L98.7991 147.447L88.7648 148.648L78.4732 149.098H74.8711H71.5264L60.9775 148.648L51.2005 147.447L41.938 145.795L33.4475 143.693L25.9861 141.14L19.2965 138.288L13.8934 134.984L9.77679 131.381L6.94661 127.477L5.66016 123.573V122.221V10.8101L11.3205 4.20345L22.8986 0.75H126.844L138.422 4.20345L144.339 10.8101V122.221Z" fill="#7F7F7F"/>
<path d="M133.79 122.071L132.504 127.477L129.159 132.582L123.756 137.086L116.552 141.14L107.804 144.444L97.7699 146.996L86.9637 148.498L75.1284 149.098L63.293 148.498L52.2296 146.996L42.1953 144.444L33.4474 141.14L26.2433 137.086L20.8402 132.582L17.4954 127.477L16.209 122.071V10.8101L21.0975 4.0533L31.1318 0.75H119.125L128.902 4.0533L133.79 10.8101V122.071Z" fill="#949494"/>
<path d="M123.242 122.071L122.212 127.477L119.382 132.582L115.008 137.086L109.091 141.14L101.886 144.444L93.6532 146.996L84.648 148.498L75.1283 149.098L65.3513 148.498L56.3461 146.996L48.1129 144.444L40.9088 141.14L34.9911 137.086L30.6172 132.582L27.787 127.477L26.7578 122.071V10.8101L30.8745 4.0533L38.8504 0.75H111.149L119.125 4.0533L123.242 10.8101V122.071Z" fill="#ABABAB"/>
<path d="M112.435 122.071L111.921 127.477L109.605 132.582L106.26 137.086L101.629 141.14L95.9687 144.444L89.5365 146.996L82.5897 148.498L75.1283 149.098L67.4096 148.498L60.4627 146.996L54.0305 144.444L48.3701 141.14L43.7389 137.086L40.3941 132.582L38.0785 127.477L37.3066 122.071V10.8101L40.6514 4.0533L46.8264 0.75H103.173L109.605 4.0533L112.435 10.8101V122.071Z" fill="#BFBFBF"/>
<path d="M101.887 122.071L101.372 127.477L99.8285 132.582L97.2556 137.086L94.1682 141.14L90.0515 144.444L83.1047 147.747L75.1287 149.098L66.8954 147.747L59.9486 144.444L56.0893 141.14L52.7445 137.086L50.1716 132.582L48.6279 127.477L48.1133 122.071V10.8101L50.1716 4.0533L54.8028 0.75H95.1973L99.8285 4.0533L101.887 10.8101V122.071Z" fill="#D4D4D4"/>
<path d="M91.3379 122.071L91.0806 127.477L90.0515 132.582L88.5077 137.086L86.4494 141.14L82.8474 145.795L76.6724 148.948L75.1287 149.098L68.6964 146.996L64.5798 142.792L61.235 137.086L59.9486 132.582L58.9194 127.477L58.6621 122.071V10.8101L59.9486 4.0533L62.7787 0.75H87.2213L90.0515 4.0533L91.3379 10.8101V122.071Z" fill="#EBEBEB"/>
<path d="M80.789 122.221V124.924L80.5317 130.179L80.0171 134.984L79.5025 139.339L78.2161 144.444L76.1578 148.648L74.8713 149.098L73.8422 148.648L71.7838 144.444L70.4974 139.339L69.7255 134.984L69.4682 130.179L69.2109 124.924V10.8101L69.4682 4.20345L70.4974 0.75H79.2452L80.2744 4.20345L80.789 10.8101V122.221Z" fill="white"/>
<path d="M144.339 122.221L142.796 127.477L139.965 131.381L135.849 134.984L130.446 138.288L124.014 141.14L116.295 143.693L107.804 145.795L98.7991 147.447L88.7648 148.648L78.4732 149.098H74.8711H71.5264L60.9775 148.648L51.2005 147.447L41.938 145.795L33.4475 143.693L25.9861 141.14L19.2965 138.288L13.8934 134.984L9.77679 131.381L6.94661 127.477L5.66016 123.573V122.221V10.8101L11.3205 4.20345L22.8986 0.75H126.844L138.422 4.20345L144.339 10.8101V122.221Z" stroke="black" stroke-width="0.393101"/>
<path d="M77.959 14.2656H83.6194V122.224H77.959V14.2656Z" fill="#999999" stroke="black" stroke-width="0.393101"/>
<path d="M66.3809 14.2656H72.0412V122.224H66.3809V14.2656Z" fill="#999999" stroke="black" stroke-width="0.393101"/>
<path d="M100.857 14.2656H106.775V122.224H100.857V14.2656Z" fill="#7F7F7F" stroke="black" stroke-width="0.393101"/>
<path d="M89.5371 14.2656H95.1975V122.224H89.5371V14.2656Z" fill="#7F7F7F" stroke="black" stroke-width="0.393101"/>
<path d="M43.2246 14.2656H48.885V122.224H43.2246V14.2656Z" fill="#7F7F7F" stroke="black" stroke-width="0.393101"/>
<path d="M54.8027 14.2656H60.4631V122.224H54.8027V14.2656Z" fill="#7F7F7F" stroke="black" stroke-width="0.393101"/>
<path d="M131.218 14.2656H136.878V122.224H131.218V14.2656Z" fill="#666666" stroke="black" stroke-width="0.393101"/>
<path d="M122.728 14.2656H128.388V122.224H122.728V14.2656Z" fill="#666666" stroke="black" stroke-width="0.393101"/>
<path d="M112.436 14.2656H118.353V122.224H112.436V14.2656Z" fill="#666666" stroke="black" stroke-width="0.393101"/>
<path d="M12.8643 14.2656H18.5246V122.224H12.8643V14.2656Z" fill="#666666" stroke="black" stroke-width="0.393101"/>
<path d="M21.6123 14.2656H27.2727V122.224H21.6123V14.2656Z" fill="#666666" stroke="black" stroke-width="0.393101"/>
<path d="M31.6465 14.2656H37.3069V122.224H31.6465V14.2656Z" fill="#666666" stroke="black" stroke-width="0.393101"/>
<path d="M138.422 14.2656H144.34V122.224H138.422V14.2656Z" fill="#4C4C4C" stroke="black" stroke-width="0.393101"/>
<path d="M5.66016 14.2656H11.3205V122.224H5.66016V14.2656Z" fill="#4C4C4C" stroke="black" stroke-width="0.393101"/>
</svg>
