<svg width="150" height="150" viewBox="0 0 150 150" fill="none" xmlns="http://www.w3.org/2000/svg">
<g clip-path="url(#clip0_2109_230263)">
<path d="M98.3483 99.8828H93.8438V146.565H98.3483V99.8828Z" fill="#BFBFBF" stroke="black" stroke-width="0.454044"/>
<path d="M142.192 7.21094H126.576V10.6434H142.192V7.21094Z" fill="#4C4C4C"/>
<path d="M143.694 139.016V10.6406H125.076V42.9061H112.463V49.7711H90.541V99.8855H112.463V106.75H125.076V139.016H143.694Z" fill="#BFBFBF"/>
<path d="M143.694 130.089V19.5625H125.076V47.0225H112.463V53.2009H90.541V96.4504H112.463V102.629H125.076V130.089H143.694Z" fill="#CCCCCC"/>
<path d="M143.694 121.17V28.4922H125.076V51.8331H112.463V56.6386H90.541V93.0231H112.463V97.8286H125.076V121.17H143.694Z" fill="#D9D9D9"/>
<path d="M143.694 116.364V33.9844H125.076V54.5793H112.463V58.6983H90.541V90.9638H112.463V95.7693H125.076V116.364H143.694Z" fill="#E5E5E5"/>
<path d="M143.694 92.3318V57.3203H125.076V66.2448H112.463V67.6178H90.541V82.0343H112.463V84.0938H125.076V92.3318H143.694Z" fill="#F2F2F2"/>
<path d="M53.9035 106.75H4.6543V114.301H53.9035V106.75Z" fill="black"/>
<path d="M56.306 42.9062H2.85254V106.751H56.306V42.9062Z" fill="#666666" stroke="black" stroke-width="0.454044"/>
<path d="M55.4056 55.2656H3.75391V62.1306H55.4056V55.2656Z" fill="#999999"/>
<path d="M55.4056 87.5312H3.75391V105.38H55.4056V87.5312Z" fill="#4C4C4C"/>
<path d="M90.5409 60.7578H56.3066V85.4718H90.5409V60.7578Z" fill="#FFCC00"/>
<path d="M150 0H118.769V7.20824H150V0Z" fill="#A6A6A6"/>
<path d="M15.4656 110.867H6.15625V117.732H15.4656V110.867Z" fill="#A6A6A6"/>
<path d="M56.3059 110.867H46.6963V117.732H56.3059V110.867Z" fill="#A6A6A6"/>
<path d="M59.3093 117.734H0V150H59.3093V117.734Z" fill="#BFBFBF" stroke="black" stroke-width="0.454044"/>
<path d="M46.6971 42.9062H15.4658V106.751H46.6971V42.9062Z" fill="#333333"/>
<path d="M46.6971 78.6016H15.4658V85.4666H46.6971V78.6016Z" fill="#CCCCCC"/>
<path d="M46.6971 64.1875H15.4658V71.0525H46.6971V64.1875Z" fill="#CCCCCC"/>
<path d="M46.6971 90.9609H15.4658V97.8259H46.6971V90.9609Z" fill="#B2B2B2"/>
<path d="M46.6971 51.8281H15.4658V58.6931H46.6971V51.8281Z" fill="#B2B2B2"/>
<path d="M46.6971 103.32H15.4658V110.872H46.6971V103.32Z" fill="#999999"/>
<path d="M46.6971 39.4766H15.4658V46.3416H46.6971V39.4766Z" fill="#999999"/>
<path d="M52.4026 147.94L0.750977 133.523V147.94H52.4026Z" fill="#A6A6A6"/>
<path d="M56.9072 77.9141H89.9403V84.7791H56.9072V77.9141Z" fill="#D9A600"/>
<path d="M56.9072 65.5625H89.9403V68.3085H56.9072V65.5625Z" fill="#FFEB99"/>
<path d="M90.5409 85.4688H56.3066V88.9012H90.5409V85.4688Z" fill="#BF8C00"/>
<path d="M90.5409 60.7578H56.3066V88.9043H90.5409V60.7578Z" stroke="black" stroke-width="0.454044"/>
<path d="M78.8284 66.25H68.0176V79.98H78.8284V66.25Z" fill="#4C4C4C"/>
<path d="M78.8284 69.6797H68.0176" stroke="#FFCC00" stroke-width="0.454044"/>
<path d="M78.8284 73.1094H68.0176" stroke="#FFCC00" stroke-width="0.454044"/>
<path d="M78.8284 76.5469H68.0176" stroke="#FFCC00" stroke-width="0.454044"/>
<path d="M76.4268 79.98V66.25" stroke="#FFCC00" stroke-width="0.454044"/>
<path d="M73.123 79.98V66.25" stroke="#FFCC00" stroke-width="0.454044"/>
<path d="M70.1201 79.98V66.25" stroke="#FFCC00" stroke-width="0.454044"/>
<path d="M125.075 106.751V42.9062" stroke="black" stroke-width="0.454044"/>
<path d="M112.463 99.8879V49.7734" stroke="black" stroke-width="0.454044"/>
<path d="M109.459 62.125H92.042V96.4499H109.459V62.125Z" fill="#CCCCCC" stroke="black" stroke-width="0.454044"/>
<path d="M109.459 96.4499V62.125H92.042" stroke="white" stroke-width="0.454044"/>
<path d="M59.3093 150V117.734H0" stroke="white" stroke-width="0.454044"/>
<path d="M125.075 93.0173L118.769 88.8983V62.1248L125.075 56.6328V93.0173Z" fill="#4C4C4C" stroke="black" stroke-width="0.454044"/>
<path d="M125.075 53.2031V57.3221L118.769 62.1276V58.6951L125.075 53.2031Z" fill="#999999" stroke="black" stroke-width="0.454044"/>
<path d="M125.075 92.3309V96.4499L118.769 93.0174V88.8984L125.075 92.3309Z" fill="#999999" stroke="black" stroke-width="0.454044"/>
<path d="M145.195 0H123.573V7.20824H145.195V0Z" fill="#BFBFBF"/>
<path d="M138.288 0H130.48V7.20824H138.288V0Z" fill="#D9D9D9"/>
<path d="M150 0H118.769V7.20824H150V0Z" stroke="black" stroke-width="0.454044"/>
<path d="M143.694 139.016V10.6406H125.076V42.9061H112.463V49.7711H90.541V99.8855H112.463V106.75H125.076V139.016H143.694Z" stroke="black" stroke-width="0.454044"/>
<path d="M143.694 142.449V128.719L134.385 142.449L125.075 128.719V142.449H143.694Z" fill="#B2B2B2" stroke="black" stroke-width="0.454044"/>
<path d="M143.694 142.445H125.075V149.997H143.694V142.445Z" fill="#D9D9D9" stroke="black" stroke-width="0.454044"/>
<path d="M136.787 114.305H131.982V142.451H136.787V114.305Z" fill="#D9D9D9" stroke="black" stroke-width="0.454044"/>
<path d="M99.8503 99.8828V149.997H92.9434V146.565L98.3488 144.505V99.8828H99.8503Z" fill="#D9D9D9" stroke="black" stroke-width="0.454044"/>
</g>
<defs>
<clipPath id="clip0_2109_230263">
<rect width="150" height="150" fill="white"/>
</clipPath>
</defs>
</svg>
