<svg width="150" height="150" viewBox="0 0 150 150" fill="none" xmlns="http://www.w3.org/2000/svg">
<g clip-path="url(#clip0_2109_233759)">
<path d="M123.874 60.0713L124.024 65.467L124.324 71.2224V78.5965L123.724 86.1504L122.523 93.3447L120.721 100.359L118.318 107.014L115.315 113.309L112.162 119.244L108.258 124.819L104.204 129.676L99.5495 134.352L94.5946 138.129L89.3393 141.726L83.7838 144.604L77.9279 146.762L71.9219 148.201L65.6156 148.92L62.6126 149.1L59.4594 148.92L53.1531 148.201L47.1471 146.762L41.2913 144.604L35.7357 141.726L30.6306 138.129L25.6757 134.352L21.021 129.676L16.8168 124.819L13.063 119.244L9.75974 113.309L6.75674 107.014L4.50449 100.359L2.70269 93.3447L1.35134 86.1504L0.750736 78.5965L0.600586 74.9993L0.750736 71.2224L1.35134 63.6684L2.70269 56.4741L4.50449 49.4598L6.75674 42.8051L9.75974 36.69L13.063 30.7547L16.8168 25.1792L21.021 20.1432L25.6757 15.6468L30.6306 11.69L35.7357 8.09285L41.2913 5.39501L47.1471 3.23674L53.1531 1.61803L59.4594 0.898606L62.6126 0.71875H149.249V60.0713H123.874Z" fill="#FFCC00" stroke="black" stroke-width="0.328667"/>
<path d="M62.6123 144.247C94.6216 144.247 120.57 113.165 120.57 74.8229C120.57 36.4808 94.6216 5.39844 62.6123 5.39844C30.603 5.39844 4.6543 36.4808 4.6543 74.8229C4.6543 113.165 30.603 144.247 62.6123 144.247Z" fill="#FFD633"/>
<path d="M62.6126 139.567C92.4659 139.567 116.667 110.578 116.667 74.8185C116.667 39.0591 92.4659 10.0703 62.6126 10.0703C32.7594 10.0703 8.55859 39.0591 8.55859 74.8185C8.55859 110.578 32.7594 139.567 62.6126 139.567Z" fill="#FFE066"/>
<path d="M62.613 134.894C90.3102 134.894 112.763 107.999 112.763 74.8219C112.763 41.6451 90.3102 14.75 62.613 14.75C34.9159 14.75 12.4629 41.6451 12.4629 74.8219C12.4629 107.999 34.9159 134.894 62.613 134.894Z" fill="#FFEB99"/>
<path d="M62.6122 130.573C88.2362 130.573 109.009 105.691 109.009 74.9974C109.009 44.3039 88.2362 19.4219 62.6122 19.4219C36.9882 19.4219 16.2158 44.3039 16.2158 74.9974C16.2158 105.691 36.9882 130.573 62.6122 130.573Z" fill="#FFF5CC"/>
<path d="M62.6131 123.92C85.2518 123.92 103.604 101.937 103.604 74.8195C103.604 47.7019 85.2518 25.7188 62.6131 25.7188C39.9744 25.7188 21.6221 47.7019 21.6221 74.8195C21.6221 101.937 39.9744 123.92 62.6131 123.92Z" fill="#FFEB99"/>
<path d="M62.6125 119.247C83.0951 119.247 99.6996 99.3579 99.6996 74.8229C99.6996 50.2879 83.0951 30.3984 62.6125 30.3984C42.1298 30.3984 25.5254 50.2879 25.5254 74.8229C25.5254 99.3579 42.1298 119.247 62.6125 119.247Z" fill="#FFE066"/>
<path d="M62.6129 114.567C80.9394 114.567 95.7961 96.7708 95.7961 74.8185C95.7961 52.8662 80.9394 35.0703 62.6129 35.0703C44.2863 35.0703 29.4297 52.8662 29.4297 74.8185C29.4297 96.7708 44.2863 114.567 62.6129 114.567Z" fill="#FFD633"/>
<path d="M62.4621 108.994C78.218 108.994 90.9907 93.6941 90.9907 74.8211C90.9907 55.9481 78.218 40.6484 62.4621 40.6484C46.7063 40.6484 33.9336 55.9481 33.9336 74.8211C33.9336 93.6941 46.7063 108.994 62.4621 108.994Z" fill="#FFCC00" stroke="#E5B200" stroke-width="0.328667"/>
<path d="M62.6123 75.001V40.6484" stroke="#E5B200" stroke-width="0.328667"/>
<path d="M62.6123 74.6406L87.3871 91.727" stroke="#E5B200" stroke-width="0.328667"/>
<path d="M62.7631 74.8203L37.9883 92.0865" stroke="#E5B200" stroke-width="0.328667"/>
</g>
<defs>
<clipPath id="clip0_2109_233759">
<rect width="150" height="150" fill="white"/>
</clipPath>
</defs>
</svg>
