<svg width="150" height="150" viewBox="0 0 150 150" fill="none" xmlns="http://www.w3.org/2000/svg">
<g clip-path="url(#clip0_2109_234193)">
<path fill-rule="evenodd" clip-rule="evenodd" d="M74.9249 116.63L119.97 53.8932V37.208H127.477V33.2036L131.381 28.8654V24.861H105.255V28.8654H93.8438V24.861H56.3063V28.8654H44.8949V24.861H18.7688V28.8654L22.3724 33.2036V37.208H29.8799V53.8932L74.9249 116.63ZM74.9249 133.315H29.8799V141.657L33.7838 150H0L3.75375 141.657V133.315H0V116.63H7.50751V108.287L18.7688 91.6018L14.8649 87.2636V83.2592L18.7688 78.921V70.5784L11.4114 62.2358V53.8932H0V37.208H7.50751V33.2036L11.4114 28.8654V20.5228L14.8649 16.5184H44.8949V12.3471H56.3063V16.5184H67.4174V0H82.4324V16.5184H93.8438V12.3471H104.955V16.5184H134.985L138.438 20.5228V28.8654L142.492 33.2036V37.208H150V53.8932H138.438V62.2358L131.081 70.5784V78.921L134.985 83.2592V87.2636L131.081 91.6018L142.492 108.287V116.63H150V133.315H146.096V141.657L150 150H116.066L119.97 141.657V133.315H74.9249Z" fill="#F5F5F5"/>
<path d="M18.7686 70.5781H29.8797V78.9207H18.7686V70.5781Z" fill="#E5E5E5"/>
<path d="M119.97 70.5781H131.381V78.9207H119.97V70.5781Z" fill="#E5E5E5"/>
<path d="M3.75391 133.312H29.88V141.655H3.75391V133.312Z" fill="#E5E5E5"/>
<path d="M119.97 133.312H146.396V141.655H119.97V133.312Z" fill="#E5E5E5"/>
<path d="M76.7266 0H82.4323V16.5184H76.7266V0Z" fill="#E5E5E5"/>
<path d="M67.417 0H73.1227V16.5184H67.417V0Z" fill="#E5E5E5"/>
<path d="M43.0928 12.3438H44.8946V28.8621H43.0928V12.3438Z" fill="#333333" stroke="black" stroke-width="0.316562"/>
<path d="M56.3066 12.3438H58.1084V28.8621H56.3066V12.3438Z" fill="#333333" stroke="black" stroke-width="0.316562"/>
<path d="M91.7422 12.3438H93.8443V28.8621H91.7422V12.3438Z" fill="#333333" stroke="black" stroke-width="0.316562"/>
<path d="M104.955 12.3438H106.757V28.8621H104.955V12.3438Z" fill="#333333" stroke="black" stroke-width="0.316562"/>
<path d="M18.7686 24.8616V22.8594H131.381V24.8616H104.955V28.866H93.8436V24.8616H56.3061V28.866H44.8947V24.8616H18.7686Z" fill="#DBDBDB"/>
<path d="M29.8796 116.627H119.97L123.573 91.5992L119.97 87.261V62.2332L127.477 53.8906H22.3721L29.8796 62.2332V87.261L26.276 91.5992L29.8796 116.627Z" fill="#CCCCCC"/>
<path d="M74.9247 116.628L119.97 53.8916V37.2064H127.477V33.202L131.381 28.8638V24.8594H105.255V28.8638H93.8436V24.8594H56.3061V28.8638H44.8947V24.8594H18.7686V28.8638L22.3722 33.202V37.2064H29.8797V53.8916L74.9247 116.628Z" stroke="black" stroke-width="0.316562"/>
<path d="M74.9249 133.315H29.8799V141.657L33.7838 150H0L3.75375 141.657V133.315H0V116.63H7.50751V108.287L18.7688 91.6018L14.8649 87.2636V83.2592L18.7688 78.921V70.5784L11.4114 62.2358V53.8932H0V37.208H7.50751V33.2036L11.4114 28.8654V20.5228L14.8649 16.5184H44.8949V12.3471H56.3063V16.5184H67.4174V0H82.4324V16.5184H93.8438V12.3471H104.955V16.5184H134.985L138.438 20.5228V28.8654L142.492 33.2036V37.208H150V53.8932H138.438V62.2358L131.081 70.5784V78.921L134.985 83.2592V87.2636L131.081 91.6018L142.492 108.287V116.63H150V133.315H146.096V141.657L150 150H116.066L119.97 141.657V133.315H74.9249Z" stroke="black" stroke-width="0.316562"/>
<path d="M29.8799 45.5469H44.8949V87.2599H29.8799V45.5469Z" fill="#CCCCCC"/>
<path d="M29.8799 75.2511L44.8949 57.8984V87.2644H29.8799V75.2511Z" fill="#C7C7C7"/>
<path d="M29.8799 76.9151L44.8949 59.5625V87.2599H29.8799V76.9151Z" fill="#C2C2C2"/>
<path d="M29.8799 79.587L44.8949 62.2344V87.2622H29.8799V79.587Z" fill="#BDBDBD"/>
<path d="M29.8799 45.5469H44.8949V87.2599H29.8799V45.5469Z" stroke="black" stroke-width="0.316562"/>
<path d="M104.955 45.5469H119.97V87.2599H104.955V45.5469Z" fill="#CCCCCC"/>
<path d="M104.955 75.2511L119.97 57.8984V87.2644H104.955V75.2511Z" fill="#C7C7C7"/>
<path d="M104.955 76.9151L119.97 59.5625V87.2599H104.955V76.9151Z" fill="#C2C2C2"/>
<path d="M104.955 79.587L119.97 62.2344V87.2622H104.955V79.587Z" fill="#BDBDBD"/>
<path d="M104.955 45.5469H119.97V87.2599H104.955V45.5469Z" stroke="black" stroke-width="0.316562"/>
<path d="M142.492 112.289H150V116.627H142.492V112.289Z" fill="#333333" stroke="black" stroke-width="0.316562"/>
<path d="M142.492 33.2031H150V37.5413H142.492V33.2031Z" fill="#333333" stroke="black" stroke-width="0.316562"/>
<path d="M119.97 112.289H127.477V116.627H119.97V112.289Z" fill="#333333" stroke="black" stroke-width="0.316562"/>
<path d="M119.97 33.2031H127.477V37.5413H119.97V33.2031Z" fill="#333333" stroke="black" stroke-width="0.316562"/>
<path d="M0 112.289H7.50751V116.627H0V112.289Z" fill="#333333" stroke="black" stroke-width="0.316562"/>
<path d="M0 33.2031H7.50751V37.5413H0V33.2031Z" fill="#333333" stroke="black" stroke-width="0.316562"/>
<path d="M22.3721 112.289H29.8796V116.627H22.3721V112.289Z" fill="#333333" stroke="black" stroke-width="0.316562"/>
<path d="M22.3721 33.2031H29.8796V37.5413H22.3721V33.2031Z" fill="#333333" stroke="black" stroke-width="0.316562"/>
<path d="M29.8799 116.633H119.97V133.318H29.8799V116.633Z" fill="#E5E5E5"/>
<path d="M82.4321 128.979H67.4171V116.631L44.8945 103.951V49.8906H104.955V103.951L82.4321 116.631V128.979Z" fill="#191919" stroke="black" stroke-width="0.316562"/>
<path d="M67.417 58.2344H82.432V83.2622H67.417V58.2344Z" fill="#4C4C4C"/>
<path d="M68.9189 58.2344H81.2313V83.2622H68.9189V58.2344Z" fill="#595959"/>
<path d="M70.4199 58.2344H79.7292V83.2622H70.4199V58.2344Z" fill="#666666"/>
<path d="M71.6221 58.2344H78.2287V83.2622H71.6221V58.2344Z" fill="#737373"/>
<path d="M73.123 58.2344H76.7267V83.2622H73.123V58.2344Z" fill="#7F7F7F"/>
<path d="M74.9248 122.801C86.3686 122.801 95.6455 112.492 95.6455 99.7756C95.6455 87.0589 86.3686 76.75 74.9248 76.75C63.4811 76.75 54.2041 87.0589 54.2041 99.7756C54.2041 112.492 63.4811 122.801 74.9248 122.801Z" fill="#333333" stroke="black" stroke-width="0.316562"/>
<path d="M74.9245 108.287C79.0708 108.287 82.432 104.552 82.432 99.9442C82.432 95.3367 79.0708 91.6016 74.9245 91.6016C70.7782 91.6016 67.417 95.3367 67.417 99.9442C67.417 104.552 70.7782 108.287 74.9245 108.287Z" fill="#7F7F7F" stroke="black" stroke-width="0.316562"/>
<path d="M75.075 103.952C77.1482 103.952 78.8288 102.084 78.8288 99.7807C78.8288 97.4769 77.1482 95.6094 75.075 95.6094C73.0019 95.6094 71.3213 97.4769 71.3213 99.7807C71.3213 102.084 73.0019 103.952 75.075 103.952Z" fill="black"/>
<path d="M61.712 111.287L59.9102 107.616L61.712 103.945H65.6159L67.4177 107.616L65.6159 111.287H61.712Z" fill="#B2B2B2" stroke="black" stroke-width="0.316562"/>
<path d="M85.1354 114.296L81.8321 116.632L78.8291 114.296V110.291L81.8321 108.289L85.1354 110.291V114.296Z" fill="#B2B2B2" stroke="black" stroke-width="0.316562"/>
<path d="M64.7148 85.26L68.0181 83.2578L71.3215 85.26V89.5982L68.0181 91.6004L64.7148 89.5982V85.26Z" fill="#B2B2B2" stroke="black" stroke-width="0.316562"/>
<path d="M88.1383 88.6016L89.9401 92.2723L88.1383 95.6093H84.2344L82.4326 92.2723L84.2344 88.6016H88.1383Z" fill="#B2B2B2" stroke="black" stroke-width="0.316562"/>
</g>
<defs>
<clipPath id="clip0_2109_234193">
<rect width="150" height="150" fill="white"/>
</clipPath>
</defs>
</svg>
