<svg width="150" height="150" viewBox="0 0 150 150" fill="none" xmlns="http://www.w3.org/2000/svg">
<g clip-path="url(#clip0_2109_232736)">
<path d="M32.4873 138.586L36.5715 149.997H43.2546L48.4527 139.036L32.4873 138.586Z" fill="#00007F" stroke="black" stroke-width="0.333913"/>
<path d="M127.723 138.586L131.992 149.997H138.49L143.688 139.036L127.723 138.586Z" fill="#00007F" stroke="black" stroke-width="0.333913"/>
<path d="M81.8691 138.586L85.0251 146.994H89.8518L93.7503 139.036L81.8691 138.586Z" fill="#00007F" stroke="black" stroke-width="0.333913"/>
<path fill-rule="evenodd" clip-rule="evenodd" d="M91.8932 1.8018L96.163 3.45345L98.2051 7.05706L96.163 10.5105L91.8932 12.1622L87.4378 10.5105L85.3957 7.05706L87.4378 3.45345L91.8932 1.8018ZM91.8932 0L97.8338 2.25225L100.618 7.05706L98.5764 11.5616L93.0071 14.1141V20.1201H90.2224V14.1141L85.0244 11.5616L83.168 7.05706L85.3957 2.25225L91.8932 0Z" fill="#0000BF"/>
<path d="M91.894 1.80469L96.1638 3.45634L98.2059 7.05994L96.1638 10.5134L91.894 12.165L87.4386 10.5134L85.3965 7.05994L87.4386 3.45634L91.894 1.80469Z" stroke="black" stroke-width="0.333913"/>
<path d="M91.8932 0L97.8338 2.25225L100.618 7.05706L98.5764 11.5616L93.0071 14.1141V20.1201H90.2224V14.1141L85.0244 11.5616L83.168 7.05706L85.3957 2.25225L91.8932 0Z" stroke="black" stroke-width="0.333913"/>
<path d="M59.5917 14.1172H69.9877H80.755L83.1684 14.7178L84.2823 16.6697V21.1742H56.0645V16.6697L57.1783 14.7178L59.5917 14.1172Z" fill="#00007F" stroke="black" stroke-width="0.333913"/>
<path d="M145.916 99.3984H33.7875L29.332 103.903V136.035L33.7875 140.54H145.916L150 136.035V103.903L145.916 99.3984Z" fill="#0000AD"/>
<path d="M29.3316 113.961V135.432H9.46777V113.961H29.3316Z" fill="#0000AD"/>
<path d="M9.46782 145.493H0V103.602H9.46782V145.493Z" fill="#0000AD"/>
<path d="M8.72486 143.843H0.742188V115.164H8.72486V143.843Z" fill="#0000BF"/>
<path d="M29.3316 119.672V134.537H9.46777V119.672H29.3316Z" fill="#0000BF"/>
<path d="M139.976 100H42.1416L36.5723 104.204V135.736L42.1416 139.94H139.976L144.06 135.736V104.204L139.976 100Z" fill="#0000BF"/>
<path d="M129.58 90.6875H45.6687L48.4533 91.5884L34.9014 98.3452L35.2727 99.3962H145.174L145.545 98.3452L127.352 91.5884L129.58 90.6875Z" fill="#0000BF" stroke="black" stroke-width="0.333913"/>
<path d="M46.0393 100H50.1235L47.3388 104.204V135.736L50.1235 139.94H46.0393L41.7695 135.736V104.204L46.0393 100Z" fill="#7F7FFF"/>
<path d="M29.3316 132.586V133.787H9.46777V132.586H29.3316Z" fill="#7F7FFF"/>
<path d="M8.72486 142.49H0.742188V139.938H8.72486V142.49Z" fill="#7F7FFF"/>
<path d="M68.3167 95.7969H64.0469V98.7999H68.3167V95.7969Z" fill="#F0F0F0" stroke="black" stroke-width="0.333913"/>
<path d="M114.542 95.7969H110.087V98.7999H114.542V95.7969Z" fill="#F0F0F0" stroke="black" stroke-width="0.333913"/>
<path d="M90.594 95.7969H86.3242V98.7999H90.594V95.7969Z" fill="#F0F0F0" stroke="black" stroke-width="0.333913"/>
<path d="M41.2132 95.7969H36.9434V98.7999H41.2132V95.7969Z" fill="#F0F0F0" stroke="black" stroke-width="0.333913"/>
<path d="M145.916 99.3984H33.7875L29.332 103.903V136.035L33.7875 140.54H145.916L150 136.035V103.903L145.916 99.3984Z" stroke="black" stroke-width="0.333913"/>
<path d="M29.3316 113.961V135.432H9.46777V113.961H29.3316Z" stroke="black" stroke-width="0.333913"/>
<path d="M9.46782 145.493H0V103.602H9.46782V145.493Z" stroke="black" stroke-width="0.333913"/>
<path d="M138.862 95.7969H134.406V98.7999H138.862V95.7969Z" fill="#F0F0F0" stroke="black" stroke-width="0.333913"/>
<path d="M55.6931 20.8692L50.8664 39.1875L47.3391 57.2056L45.6684 75.2236L44.9258 93.5419H129.951L129.208 75.2236L127.723 57.2056L124.196 39.1875L119.369 20.8692L103.032 18.3167L87.4382 17.2656L71.6585 18.3167L55.6931 20.8692Z" fill="#0000AD"/>
<path d="M57.1782 20.5689L52.9084 38.8872L49.1955 56.9053L47.7103 75.2236L46.9678 93.5419H119.369L118.441 74.9233L116.955 56.3047L114.542 37.5359L111.015 19.2176L97.4628 18.0164L84.2821 17.2656L70.7302 18.3167L57.1782 20.5689Z" fill="#0000BF"/>
<path d="M58.4781 20.1206L54.0226 38.5891L50.8667 56.9074L48.8246 75.2257L48.082 93.544H51.238L52.1662 74.9254L53.6513 56.6071L56.8073 38.2888L60.5202 19.8203L58.4781 20.1206Z" fill="#7F7FFF"/>
<path d="M55.6931 20.8692L50.8664 39.1875L47.3391 57.2056L45.6684 75.2236L44.9258 93.5419H129.951L129.208 75.2236L127.723 57.2056L124.196 39.1875L119.369 20.8692L103.032 18.3167L87.4382 17.2656L71.6585 18.3167L55.6931 20.8692Z" stroke="black" stroke-width="0.333913"/>
</g>
<defs>
<clipPath id="clip0_2109_232736">
<rect width="150" height="150" fill="white"/>
</clipPath>
</defs>
</svg>
