<svg width="150" height="150" viewBox="0 0 150 150" fill="none" xmlns="http://www.w3.org/2000/svg">
<g clip-path="url(#clip0_2109_232528)">
<path d="M11.3632 64.5636H7.4376V62.1612L4.95827 60.3594H3.30537L1.23926 62.1612V74.1732L3.30537 75.6747H4.95827L7.4376 74.1732V71.6206H11.3632V74.1732L13.4293 75.6747H15.0822L17.7682 74.1732V71.6206H21.074V74.1732L23.1401 75.6747H24.793L27.4789 74.1732V71.6206H44.8343V64.5636H27.4789V62.1612L24.793 60.3594H23.1401L21.074 62.1612V64.5636H17.7682V62.1612L15.0822 60.3594H13.4293L11.3632 62.1612V64.5636Z" fill="black" stroke="black" stroke-width="0.352266"/>
<path d="M102.892 61.2578H46.9004V65.7623H102.892V61.2578Z" fill="#F0F0F0" stroke="black" stroke-width="0.352266"/>
<path d="M102.892 64.2656H46.9004V65.4668H102.892V64.2656Z" fill="#B2B2B2"/>
<path d="M68.5954 54.8069H71.9012V52.5547H73.9673V72.9751H71.9012V70.7229H68.5954V72.9751H66.5293V52.5547H68.5954V54.8069Z" fill="#F0F0F0" stroke="black" stroke-width="0.352266"/>
<path d="M69.0078 57.5078H71.0739V84.3847H69.0078V57.5078Z" fill="#CCCCCC" stroke="black" stroke-width="0.352266"/>
<path d="M111.364 57.2109H100V76.8806H111.364V57.2109Z" fill="#0000AD"/>
<path d="M54.1322 57.2109H42.7686V76.8806H54.1322V57.2109Z" fill="#0000AD"/>
<path d="M111.364 71.9219H100V76.8768H111.364V71.9219Z" fill="#00007F"/>
<path d="M54.1322 71.9219H42.7686V76.8768H54.1322V71.9219Z" fill="#00007F"/>
<path d="M111.364 57.8047H100V59.3062H111.364V57.8047Z" fill="#0000E0"/>
<path d="M54.1322 57.8047H42.7686V59.3062H54.1322V57.8047Z" fill="#0000E0"/>
<path d="M111.364 57.2109H100V76.8806H111.364V57.2109Z" stroke="black" stroke-width="0.352266"/>
<path d="M54.1322 57.2109H42.7686V76.8806H54.1322V57.2109Z" stroke="black" stroke-width="0.352266"/>
<path d="M141.529 76.5781V87.0886H129.132V76.5781H141.529Z" fill="#0000BF"/>
<path d="M141.529 76.5781V87.0886H129.132V76.5781H141.529Z" fill="#0000BF"/>
<path d="M141.115 76.5781V87.0886H139.256V76.5781H141.115Z" fill="#0000AD"/>
<path d="M141.529 76.5781V87.0886H129.132V76.5781H141.529Z" stroke="black" stroke-width="0.352266"/>
<path d="M138.017 99.098V93.2422H132.231V99.098H138.017Z" fill="#0000BF" stroke="black" stroke-width="0.352266"/>
<path d="M132.851 99.098V93.2422H132.231V99.098H132.851Z" fill="#0000AD"/>
<path d="M138.843 98.1953V114.862H131.198V98.1953H138.843Z" fill="#0000BF" stroke="black" stroke-width="0.352266"/>
<path d="M132.438 98.1953V114.862H131.198V98.1953H132.438Z" fill="#0000AD"/>
<path d="M141.942 100.602V112.313H128.719V100.602H141.942Z" fill="#0000BF" stroke="black" stroke-width="0.352266"/>
<path d="M141.943 100.602V112.313H139.67V100.602H141.943Z" fill="#0000AD"/>
<path d="M131.818 100.602V112.313H128.719V100.602H131.818Z" fill="#0000AD"/>
<path d="M141.942 100.602V112.313H128.719V100.602H141.942Z" stroke="black" stroke-width="0.352266"/>
<path d="M135.33 119.666C136.357 119.666 137.19 116.103 137.19 111.708C137.19 107.313 136.357 103.75 135.33 103.75C134.303 103.75 133.471 107.313 133.471 111.708C133.471 116.103 134.303 119.666 135.33 119.666Z" fill="#F0F0F0" stroke="black" stroke-width="0.352266"/>
<path d="M137.19 107.961V118.171H133.471V107.961H137.19Z" fill="#FF0000" stroke="black" stroke-width="0.352266"/>
<path d="M136.777 105.557L136.364 105.857L135.538 106.158L134.711 105.857L134.298 105.557L134.711 104.957L135.538 104.656L136.364 104.957L136.777 105.557Z" fill="#7F7F7F" stroke="black" stroke-width="0.352266"/>
<path d="M115.083 95.0473H145.662V86.7891H115.083V95.0473Z" fill="#0000BF"/>
<path d="M115.083 94.7481H145.662V93.5469H115.083V94.7481Z" fill="#0000AD"/>
<path d="M15.4961 76.875H114.67V97.896H15.4961V76.875Z" fill="#0000AD" stroke="black" stroke-width="0.352266"/>
<path d="M6.19824 96.5469H120.661V100.301L120.248 107.208L119.421 113.214L116.529 119.069L112.19 124.024L105.785 128.379L96.9007 131.532L85.1239 133.634L70.2478 134.235H6.19824V96.5469Z" fill="#0000AD"/>
<path d="M6.19824 96.5469H10.5371V134.235H6.19824V96.5469Z" fill="#00007F"/>
<path d="M30.3721 96.5469H34.7109V134.235H30.3721V96.5469Z" fill="#0000BF"/>
<path d="M64.6699 96.5469H69.0088V134.235H64.6699V96.5469Z" fill="#0000BF"/>
<path d="M38.8432 96.5469H34.7109V134.235H38.8432V96.5469Z" fill="#00007F"/>
<path d="M73.3467 96.5469H69.0078V134.235H73.3467V96.5469Z" fill="#00007F"/>
<path d="M118.182 116.066V96.5469H113.843V122.223L116.529 119.069L118.182 116.066Z" fill="#00007F"/>
<path d="M6.19824 96.5469H120.661V100.301L120.248 107.208L119.421 113.214L116.529 119.069L112.19 124.024L105.785 128.379L96.9007 131.532L85.1239 133.634L70.2478 134.235H6.19824V96.5469Z" stroke="black" stroke-width="0.352266"/>
<path d="M115.083 95.0473H145.662V86.7891H115.083V95.0473Z" stroke="black" stroke-width="0.352266"/>
<path d="M150 97.3001H145.248V84.6875H150V97.3001Z" fill="#0000BF"/>
<path d="M150 97.2991H145.248V95.0469H150V97.2991Z" fill="#0000AD"/>
<path d="M150 97.3001H145.248V84.6875H150V97.3001Z" stroke="black" stroke-width="0.352266"/>
<path d="M2.89258 136.938H91.5289L89.6694 138.889L86.7769 140.091L83.0579 141.292L77.8926 142.493L72.3141 143.094L65.9091 143.995L59.2975 144.445L52.4794 145.046L45.2479 145.346H38.0165L24.1736 145.646H11.7769H2.89258V136.938Z" fill="#0000AD" stroke="black" stroke-width="0.352266"/>
<path d="M56.6113 133.938H60.5369V138.592H56.6113V133.938Z" fill="#7F7F7F" stroke="black" stroke-width="0.352266"/>
<path d="M75.4131 94.4453H80.785V99.1H75.4131V94.4453Z" fill="#7F7F7F" stroke="black" stroke-width="0.352266"/>
<path d="M96.0742 94.4453H101.653V99.1H96.0742V94.4453Z" fill="#7F7F7F" stroke="black" stroke-width="0.352266"/>
<path d="M114.67 94.4453H120.248V99.1H114.67V94.4453Z" fill="#7F7F7F" stroke="black" stroke-width="0.352266"/>
<path d="M110.95 117.266H116.529V121.92H110.95V117.266Z" fill="#7F7F7F" stroke="black" stroke-width="0.352266"/>
<path d="M93.1816 117.266H98.3469V121.92H93.1816V117.266Z" fill="#7F7F7F" stroke="black" stroke-width="0.352266"/>
<path d="M72.7275 117.266H78.3061V121.92H72.7275V117.266Z" fill="#7F7F7F" stroke="black" stroke-width="0.352266"/>
<path d="M50.8262 117.266H56.1981V121.92H50.8262V117.266Z" fill="#7F7F7F" stroke="black" stroke-width="0.352266"/>
<path d="M29.5459 117.266H34.7112V121.92H29.5459V117.266Z" fill="#7F7F7F" stroke="black" stroke-width="0.352266"/>
<path d="M7.4375 117.266H12.6028V121.92H7.4375V117.266Z" fill="#7F7F7F" stroke="black" stroke-width="0.352266"/>
<path d="M40.4961 133.938H44.4217V138.592H40.4961V133.938Z" fill="#7F7F7F" stroke="black" stroke-width="0.352266"/>
<path d="M24.5869 133.938H28.3059V138.592H24.5869V133.938Z" fill="#7F7F7F" stroke="black" stroke-width="0.352266"/>
<path d="M8.05762 133.938H12.1898V138.592H8.05762V133.938Z" fill="#7F7F7F" stroke="black" stroke-width="0.352266"/>
<path d="M71.4873 133.938H75.8261V138.592H71.4873V133.938Z" fill="#7F7F7F" stroke="black" stroke-width="0.352266"/>
<path d="M85.124 133.938H88.843V138.592H85.124V133.938Z" fill="#7F7F7F" stroke="black" stroke-width="0.352266"/>
<path d="M5.78516 135.734H91.529V137.236H5.78516V135.734Z" fill="#0000E0" stroke="black" stroke-width="0.352266"/>
<path d="M5.78516 136.034H91.529V133.031H5.78516V136.034Z" fill="#0000E0" stroke="black" stroke-width="0.352266"/>
<path d="M69.4219 96.545H123.967V95.3438H69.4219V96.545Z" fill="#0000E0" stroke="black" stroke-width="0.352266"/>
<path d="M69.4219 96.25H123.967V97.9017H69.4219V96.25Z" fill="#0000E0" stroke="black" stroke-width="0.352266"/>
<path d="M4.13184 119.373H119.421V118.172H4.13184V119.373Z" fill="#0000E0" stroke="black" stroke-width="0.352266"/>
<path d="M4.13184 119.07H119.421V120.722H4.13184V119.07Z" fill="#0000E0" stroke="black" stroke-width="0.352266"/>
<path d="M0 134.234H2.89256V147.748H0V134.234Z" fill="#0000BF"/>
<path d="M0 135.438H2.89256V136.338H0V135.438Z" fill="#4040FF"/>
<path d="M0 146.25H2.89256V147.752H0V146.25Z" fill="#0000AD"/>
<path d="M0 134.234H2.89256V147.748H0V134.234Z" stroke="black" stroke-width="0.352266"/>
<path d="M53.7188 137.984H88.0163V149.996H53.7188V137.984Z" fill="#F0F0F0" stroke="black" stroke-width="0.352266"/>
<path d="M53.7188 137.985H88.0163L90.0824 137.234H56.1981L53.7188 137.985Z" fill="#F0F0F0" stroke="black" stroke-width="0.352266"/>
<path d="M90.0827 137.985L88.0166 138.586V137.985L90.0827 137.234V137.985Z" fill="#F0F0F0" stroke="black" stroke-width="0.352266"/>
<path d="M88.4298 137.984H88.0166V149.996L88.4298 149.696V137.984Z" fill="#F0F0F0" stroke="black" stroke-width="0.352266"/>
<path d="M123.141 1.5H146.488V75.3739H123.141V1.5Z" fill="#0000BF"/>
<path d="M123.141 1.5H146.488V75.3739H123.141V1.5Z" fill="#8484A3" stroke="black" stroke-width="0.352266"/>
<path d="M123.554 1.5H144.835V75.3739H123.554V1.5Z" fill="#8F8FAB"/>
<path d="M123.554 1.5H142.769V75.3739H123.554V1.5Z" fill="#9494B0"/>
<path d="M123.554 1.5H141.116V75.3739H123.554V1.5Z" fill="#9E9EB8"/>
<path d="M123.967 1.5H138.843V75.3739H123.967V1.5Z" fill="#A5A5BF"/>
<path d="M123.967 1.5H137.19V75.3739H123.967V1.5Z" fill="#B0B0C7"/>
<path d="M123.967 1.5H135.124V75.3739H123.967V1.5Z" fill="#B5B5CC"/>
<path d="M124.587 1.5H133.471V75.3739H124.587V1.5Z" fill="#C0C0D4"/>
<path d="M124.587 1.5H131.818V75.3739H124.587V1.5Z" fill="#C7C7DB"/>
<path d="M124.587 1.5H129.546V75.3739H124.587V1.5Z" fill="#D1D1E3"/>
<path d="M124.587 1.5H127.893V75.3739H124.587V1.5Z" fill="#D6D6E8"/>
<path d="M125 1.5H125.826V75.0736H125V1.5Z" fill="#E1E1F0"/>
<path d="M134.917 2.1021C141.422 2.1021 146.694 1.63153 146.694 1.05105C146.694 0.470572 141.422 0 134.917 0C128.413 0 123.141 0.470572 123.141 1.05105C123.141 1.63153 128.413 2.1021 134.917 2.1021Z" fill="#8484A3" stroke="black" stroke-width="0.352266"/>
<path d="M134.917 76.8755C141.422 76.8755 146.694 76.405 146.694 75.8245C146.694 75.244 141.422 74.7734 134.917 74.7734C128.413 74.7734 123.141 75.244 123.141 75.8245C123.141 76.405 128.413 76.8755 134.917 76.8755Z" fill="#8484A3" stroke="black" stroke-width="0.352266"/>
<path d="M128.719 0.448738L132.851 0.148438L129.132 0.899188L127.066 1.49979L124.587 1.19949L126.653 0.899188L128.719 0.448738Z" fill="#F0F0F0"/>
<path d="M141.529 76.2759L137.19 76.5762L141.116 75.9756L143.182 75.375L145.662 75.6753L143.595 75.9756L141.529 76.2759Z" fill="#7F7F7F"/>
</g>
<defs>
<clipPath id="clip0_2109_232528">
<rect width="150" height="150" fill="white"/>
</clipPath>
</defs>
</svg>
