<svg width="150" height="150" viewBox="0 0 150 150" fill="none" xmlns="http://www.w3.org/2000/svg">
<g clip-path="url(#clip0_2109_234253)">
<path d="M4.05371 8.02344H52.2519V139.186H4.05371V8.02344Z" fill="#3F1F00"/>
<path d="M4.05371 8.02344H52.2519V139.186H4.05371V8.02344Z" fill="#AA7F54"/>
<path d="M5.40527 8.02344H45.6455V139.186H5.40527V8.02344Z" fill="#B08961"/>
<path d="M6.45605 8.02344H39.1888V139.186H6.45605V8.02344Z" fill="#B89471"/>
<path d="M7.20703 8.02344H32.8827V139.186H7.20703V8.02344Z" fill="#BF9F7F"/>
<path d="M8.55859 8.02344H26.4265V139.186H8.55859V8.02344Z" fill="#C6A98C"/>
<path d="M9.60938 8.02344H19.8196V139.186H9.60938V8.02344Z" fill="#CDB49B"/>
<path d="M10.3604 8.02344H13.3634V139.186H10.3604V8.02344Z" fill="#D4BEA9"/>
<path d="M4.05371 8.02344H52.2519V139.186H4.05371V8.02344Z" stroke="black" stroke-width="0.32366"/>
<path d="M132.582 54.5938H140.69V147.036H132.582V54.5938Z" fill="#191919" stroke="black" stroke-width="0.32366"/>
<path d="M132.582 54.5938H140.69V147.036H132.582V54.5938Z" fill="#7F7F7F" stroke="black" stroke-width="0.32366"/>
<path d="M132.582 54.5914L140.99 54.0681L143.843 47.7891H136.186L132.582 54.5914Z" fill="#191919" stroke="black" stroke-width="0.32366"/>
<path d="M143.844 47.7891L140.991 54.0681V146.684L143.844 139.533V47.7891Z" fill="#E0E0E0" stroke="black" stroke-width="0.32366"/>
<path d="M103.604 56.6873V48.6641H118.318L118.919 49.7106V55.9896L118.318 56.6873H103.604Z" fill="#217F21"/>
<path d="M104.204 29.6484H107.958V44.474H104.204V29.6484Z" fill="#217F21"/>
<path d="M119.82 27.7364V25.9922H100.601V27.7364H119.82Z" fill="#217F21"/>
<path d="M119.82 29.653H100.601V27.7344H119.82V29.653Z" fill="#217F21"/>
<path d="M104.204 25.9891H107.958V9.59375L104.204 9.94259V25.9891Z" fill="#217F21"/>
<path d="M107.658 9.5923H109.31V5.40625H107.658V9.5923Z" fill="#217F21"/>
<path d="M109.61 5.4077H108.709V2.09375H109.61V5.4077Z" fill="#217F21"/>
<path d="M104.204 48.6626H116.667V45.5231V44.4766H104.204V45.5231V48.6626Z" fill="#217F21"/>
<path d="M112.763 9.5923H113.213V5.40625H112.763V9.5923Z" fill="#43A143" stroke="black" stroke-width="0.32366"/>
<path d="M116.667 25.9867H116.967V10.2891H116.667V25.9867Z" fill="#43A143" stroke="black" stroke-width="0.32366"/>
<path d="M108.709 5.4077H110.21H112.162V2.09375H110.21H108.709V5.4077Z" fill="#43A143" stroke="black" stroke-width="0.32366"/>
<path d="M112.763 9.5923L110.211 9.24346L107.658 9.5923V5.40625H110.211H112.763V9.5923Z" fill="#43A143" stroke="black" stroke-width="0.32366"/>
<path d="M104.204 25.9864H116.667V9.59102L110.21 9.24219L104.204 9.59102V25.9864Z" fill="#43A143" stroke="black" stroke-width="0.32366"/>
<path d="M119.219 27.7313V26.3359H106.156V27.7313H119.219Z" fill="#43A143" stroke="black" stroke-width="0.32366"/>
<path d="M119.219 29.3041H106.156V27.7344H119.219V29.3041Z" fill="#43A143"/>
<path d="M104.204 29.6484H116.667V44.474H104.204V29.6484Z" fill="#43A143"/>
<path d="M119.219 27.7344V29.3041H106.156V27.7344H119.219Z" stroke="black" stroke-width="0.32366"/>
<path d="M104.204 29.6484H116.667V44.474H104.204V29.6484Z" stroke="black" stroke-width="0.32366"/>
<path d="M116.667 29.6484H118.619L116.967 44.474H116.667V29.6484Z" fill="#217F21" stroke="black" stroke-width="0.32366"/>
<path d="M110.21 29.6484H110.66V44.474H110.21V29.6484Z" fill="#005E00" stroke="black" stroke-width="0.32366"/>
<path d="M102.252 29.6484H104.204V44.474H103.603L102.252 29.6484Z" fill="#005E00" stroke="black" stroke-width="0.32366"/>
<path d="M110.21 25.9867H110.66V10.2891H110.21V25.9867Z" fill="#005E00" stroke="black" stroke-width="0.32366"/>
<path d="M103.604 25.9867H104.204V10.2891H103.604V25.9867Z" fill="#005E00" stroke="black" stroke-width="0.32366"/>
<path d="M107.357 9.5923H107.658V5.40625H107.357V9.5923Z" fill="#005E00" stroke="black" stroke-width="0.32366"/>
<path d="M110.66 9.24346H110.21V5.40625H110.66V9.24346Z" fill="#005E00" stroke="black" stroke-width="0.32366"/>
<path d="M117.567 48.6641H105.856L104.805 49.7106V55.6408L105.856 56.6873H117.567L117.868 55.6408V49.7106L117.567 48.6641Z" fill="#43A143"/>
<path d="M116.967 48.6641H116.366L116.667 49.7106V55.6408L116.366 56.6873H116.967L117.267 55.6408V49.7106L116.967 48.6641Z" fill="#82E082"/>
<path d="M114.414 29.6484H115.765V44.474H114.414V29.6484Z" fill="#82E082"/>
<path d="M118.618 27.7344V29.3041H117.567V27.7344H118.618Z" fill="#82E082"/>
<path d="M118.618 26.3359H117.567V27.7313H118.618V26.3359Z" fill="#82E082"/>
<path d="M114.414 25.9891H115.765V9.59375H114.414V25.9891Z" fill="#82E082"/>
<path d="M112.162 9.5923H112.462V5.40625H112.162V9.5923Z" fill="#82E082"/>
<path d="M111.862 5.4077H111.562V2.09375H111.862V5.4077Z" fill="#82E082"/>
<path d="M116.367 44.8281V45.5258H107.658V44.8281H116.367Z" fill="#217F21"/>
<path d="M114.415 0H120.571L121.472 1.04651V8.02326L120.571 9.24419H114.415L113.514 8.02326V1.04651L114.415 0Z" fill="#E5E5E5" stroke="black" stroke-width="0.32366"/>
<path d="M114.114 0.351562H120.12L121.171 1.39807V8.37482L120.12 9.59575H114.114L113.213 8.37482V1.39807L114.114 0.351562Z" fill="#E5E5E5" stroke="black" stroke-width="0.32366"/>
<path d="M121.922 55.99C122.336 55.99 122.672 44.5108 122.672 30.3505C122.672 16.1901 122.336 4.71094 121.922 4.71094C121.507 4.71094 121.171 16.1901 121.171 30.3505C121.171 44.5108 121.507 55.99 121.922 55.99Z" fill="black"/>
<path d="M50.7505 20.7578H97.7475V75.6997L96.246 77.2694L49.249 22.502L50.7505 20.7578Z" fill="#CCCCCC" stroke="black" stroke-width="0.32366"/>
<path d="M48.7988 22.5H96.2463V77.2674H48.7988V22.5Z" fill="#E0E0E0" stroke="black" stroke-width="0.32366"/>
<path d="M52.1016 25.9922H75.6751V53.3759H52.1016V25.9922Z" fill="white" stroke="black" stroke-width="0.32366"/>
<path d="M92.6423 25.9922H82.7324V35.2364H92.6423V25.9922Z" fill="black"/>
<path d="M53.9043 28.6016H55.2556V29.9969H53.9043V28.6016Z" fill="black"/>
<path d="M53.9043 35.9297H55.2556V37.8483H53.9043V35.9297Z" fill="black"/>
<path d="M53.9043 43.7812H55.2556V45.1766H53.9043V43.7812Z" fill="black"/>
<path d="M57.5078 28.6016H59.1595V29.9969H57.5078V28.6016Z" fill="black"/>
<path d="M57.5078 35.9297H59.1595V37.8483H57.5078V35.9297Z" fill="black"/>
<path d="M57.5078 43.7812H59.1595V45.1766H57.5078V43.7812Z" fill="black"/>
<path d="M60.9609 28.6016H62.6126V29.9969H60.9609V28.6016Z" fill="black"/>
<path d="M60.9609 35.9297H62.6126V37.8483H60.9609V35.9297Z" fill="black"/>
<path d="M60.9609 43.7812H62.6126V45.1766H60.9609V43.7812Z" fill="black"/>
<path d="M64.5645 28.6016H66.066V29.9969H64.5645V28.6016Z" fill="black"/>
<path d="M64.5645 35.9297H66.066V37.8483H64.5645V35.9297Z" fill="black"/>
<path d="M64.5645 43.7812H66.066V45.1766H64.5645V43.7812Z" fill="black"/>
<path d="M68.0176 28.6016H69.6692V29.9969H68.0176V28.6016Z" fill="black"/>
<path d="M68.0176 35.9297H69.6692V37.8483H68.0176V35.9297Z" fill="black"/>
<path d="M68.0176 43.7812H69.6692V45.1766H68.0176V43.7812Z" fill="black"/>
<path d="M71.6211 28.6016H73.1226V29.9969H71.6211V28.6016Z" fill="black"/>
<path d="M71.6211 35.9297H73.1226V37.8483H71.6211V35.9297Z" fill="black"/>
<path d="M71.6211 43.7812H73.1226V45.1766H71.6211V43.7812Z" fill="black"/>
<path d="M50.4502 77.6172H53.303V140.059H50.4502V77.6172Z" fill="#E0E0E0" stroke="black" stroke-width="0.32366"/>
<path d="M92.042 77.2656H94.8948V140.754H92.042V77.2656Z" fill="#E0E0E0" stroke="black" stroke-width="0.32366"/>
<path d="M58.1084 77.6172V118.78L58.4087 123.664L59.4597 128.024L60.661 132.21H101.952" stroke="black" stroke-width="0.32366"/>
<path d="M58.4082 77.6172V118.082L58.7085 122.966L59.7596 127.326L60.9608 131.513H101.952" stroke="black" stroke-width="0.32366"/>
<path d="M59.1592 77.6172V117.733L59.4595 122.094L60.0601 126.629L61.2613 130.64H101.952" stroke="black" stroke-width="0.32366"/>
<path d="M59.459 77.6172V116.861L59.7593 121.745L60.3599 126.28L61.2608 129.943H101.951" stroke="black" stroke-width="0.32366"/>
<path d="M59.7598 77.6172V116.513L60.0601 121.047L60.6607 125.408L61.7117 129.594H101.952" stroke="black" stroke-width="0.32366"/>
<path d="M60.3604 77.6172V115.815V120.699L60.961 124.71L62.012 128.896H101.952" stroke="black" stroke-width="0.32366"/>
<path d="M60.6602 77.6172V115.466L60.9605 120.001L61.2608 124.013L62.3118 128.024H101.951" stroke="black" stroke-width="0.32366"/>
<path d="M60.9609 77.6172V115.117L61.2612 119.478L61.7117 123.315L62.6126 127.326H101.952" stroke="black" stroke-width="0.32366"/>
<path d="M61.7119 77.6172V114.42V118.78L62.0122 122.966L62.9131 126.629H101.952" stroke="black" stroke-width="0.32366"/>
<path d="M62.0117 77.6172V113.896V118.082L62.312 122.094L62.9126 125.931H101.952" stroke="black" stroke-width="0.32366"/>
<path d="M62.3125 77.6172V113.199L62.6128 117.733L62.9131 121.396L63.2134 125.059H101.952" stroke="black" stroke-width="0.32366"/>
<path d="M62.6123 77.6172V112.85L62.9126 116.861L63.2129 121.047L63.5132 124.361H101.952" stroke="black" stroke-width="0.32366"/>
<path d="M63.2129 77.6172V112.501V116.513L63.5132 120.35L63.9636 124.013H101.952" stroke="black" stroke-width="0.32366"/>
<path d="M63.5137 77.6172V111.803V115.815L63.9641 119.478L64.2644 123.315H101.952" stroke="black" stroke-width="0.32366"/>
<path d="M122.372 140.409H101.051V57.2109H122.372V140.409Z" fill="#CDB49B" stroke="black" stroke-width="0.32366"/>
<path d="M122.372 140.407L124.024 136.221V53.0234L122.372 57.2095V140.407Z" fill="#B89471" stroke="black" stroke-width="0.32366"/>
<path d="M124.024 53.0234H102.853L101.051 57.2095H122.372L124.024 53.0234Z" fill="#B89471" stroke="black" stroke-width="0.32366"/>
<path d="M105.105 69.0703H118.919" stroke="black" stroke-width="0.32366"/>
<path d="M105.105 72.0312H118.919" stroke="black" stroke-width="0.32366"/>
<path d="M105.105 75.3516H118.919" stroke="black" stroke-width="0.32366"/>
<path d="M105.105 78.6641H118.919" stroke="black" stroke-width="0.32366"/>
<path d="M105.105 81.625H118.919" stroke="black" stroke-width="0.32366"/>
<path d="M105.105 84.9453H118.919" stroke="black" stroke-width="0.32366"/>
<path d="M105.105 88.2578H118.919" stroke="black" stroke-width="0.32366"/>
<path d="M105.105 91.2188H118.919" stroke="black" stroke-width="0.32366"/>
<path d="M105.105 94.7109H118.919" stroke="black" stroke-width="0.32366"/>
<path d="M105.105 98.0234H118.919" stroke="black" stroke-width="0.32366"/>
<path d="M105.105 100.992H118.919" stroke="black" stroke-width="0.32366"/>
<path d="M105.105 104.305H118.919" stroke="black" stroke-width="0.32366"/>
<path d="M105.105 107.266H118.919" stroke="black" stroke-width="0.32366"/>
<path d="M105.105 110.578H118.919" stroke="black" stroke-width="0.32366"/>
<path d="M105.105 113.898H118.919" stroke="black" stroke-width="0.32366"/>
<path d="M105.105 116.859H118.919" stroke="black" stroke-width="0.32366"/>
<path d="M105.105 120.352H118.919" stroke="black" stroke-width="0.32366"/>
<path d="M105.105 123.664H118.919" stroke="black" stroke-width="0.32366"/>
<path d="M105.105 126.625H118.919" stroke="black" stroke-width="0.32366"/>
<path d="M0 139.188L1.2012 140.757H148.649L149.85 139.188H0Z" fill="#AA7F54" stroke="black" stroke-width="0.32366"/>
<path d="M1.20117 140.758L7.95793 148.607H141.892L148.649 140.758H1.20117Z" fill="#C6A98C"/>
<path d="M1.20117 140.758L2.85282 142.502H146.997L148.649 140.758H1.20117Z" fill="#AA7F54"/>
<path d="M7.95801 148.602L9.15921 149.997H140.691L141.892 148.602H7.95801Z" fill="#AA7F54" stroke="black" stroke-width="0.32366"/>
<path d="M1.20117 140.758L7.95793 148.607H141.892L148.649 140.758H1.20117Z" stroke="black" stroke-width="0.32366"/>
<path d="M37.0867 119.131L35.7354 118.433L35.1348 116.514V113.2L36.336 112.852L37.387 113.2V115.119L37.9876 115.817L38.5882 116.166H101.051V119.131H37.0867Z" fill="#F0F0F0" stroke="black" stroke-width="0.32366"/>
<path d="M37.3878 21.4522L37.0875 19.5336L35.4359 18.8359H32.2827L31.9824 20.4057L32.2827 21.8011H33.7842L34.8353 22.1499L35.1356 23.022V112.848H37.3878V21.4522Z" fill="#F0F0F0" stroke="black" stroke-width="0.32366"/>
</g>
<defs>
<clipPath id="clip0_2109_234253">
<rect width="150" height="150" fill="white"/>
</clipPath>
</defs>
</svg>
