<svg width="150" height="150" viewBox="0 0 150 150" fill="none" xmlns="http://www.w3.org/2000/svg">
<path fill-rule="evenodd" clip-rule="evenodd" d="M23.5735 47.2746H21.3213V109.13H23.5735V47.2746ZM141.441 54.1229V96.7591H132.583V54.1229H141.441ZM97.8979 46.3909V107.363L80.4804 100.515V55.0065L97.8979 46.3909ZM141.441 29.8224H149.249V120.839H141.441V29.8224ZM101.201 24.5205V132.989L100.3 133.431L97.8979 129.012V117.967L75.6756 109.13H23.5735V47.2746H68.6186L97.8979 32.6943V28.497L100.3 24.0787L101.201 24.5205ZM115.015 28.497V128.129H127.628H128.528L129.429 127.908L130.33 127.687L131.081 127.245L131.682 126.582L132.132 126.141L132.432 125.478L132.583 124.815V32.2525L132.432 31.5897L132.132 30.927L131.682 30.2643L131.081 29.6015L130.33 29.1597L129.429 28.7179L128.528 28.497H127.628H115.015ZM101.201 18.7768H108.108V137.849H101.201V18.7768ZM115.015 18.7768H108.108V137.849H115.015V18.7768ZM113.063 18.7768H115.015V22.0905V37.5544V28.497H127.628H128.078H128.528L128.979 28.7179H129.58L129.88 28.9388L130.33 29.1597L130.781 29.6015L131.231 29.8224V8.61477H113.063V18.7768ZM102.853 8.61477V0.882812H141.441V8.61477H102.853Z" fill="#FFFF00"/>
<path d="M23.5735 47.2734H21.3213V109.129H23.5735V47.2734Z" stroke="black" stroke-width="0.364253"/>
<path d="M141.442 54.125V96.7612H132.583V54.125H141.442Z" stroke="black" stroke-width="0.364253"/>
<path d="M97.8979 46.3906V107.363L80.4805 100.514V55.0062L97.8979 46.3906Z" stroke="black" stroke-width="0.364253"/>
<path d="M141.441 29.8203H149.249V120.837H141.441V29.8203Z" stroke="black" stroke-width="0.364253"/>
<path d="M101.201 24.52V132.988L100.3 133.43L97.8976 129.012V117.966L75.6753 109.13H23.5732V47.274H68.6183L97.8976 32.6937V28.4964L100.3 24.0781L101.201 24.52Z" stroke="black" stroke-width="0.364253"/>
<path d="M115.015 28.5V128.132H127.627H128.528L129.429 127.911L130.33 127.69L131.081 127.248L131.681 126.585L132.132 126.144L132.432 125.481L132.582 124.818V32.2555L132.432 31.5928L132.132 30.93L131.681 30.2673L131.081 29.6046L130.33 29.1627L129.429 28.7209L128.528 28.5H127.627H115.015Z" stroke="black" stroke-width="0.364253"/>
<path d="M101.201 18.7812H108.108V137.853H101.201V18.7812Z" stroke="black" stroke-width="0.364253"/>
<path d="M115.015 18.7812H108.108V137.853H115.015V18.7812Z" stroke="black" stroke-width="0.364253"/>
<path d="M113.063 18.7792H115.015V22.0929V37.5568V28.4994H127.628H128.078H128.529L128.979 28.7203H129.58L129.88 28.9412L130.331 29.1621L130.781 29.6039L131.232 29.8248V8.61719H113.063V18.7792Z" stroke="black" stroke-width="0.364253"/>
<path d="M102.853 8.61477V0.882812H141.441V8.61477H102.853Z" stroke="black" stroke-width="0.364253"/>
<path d="M111.411 137.85H115.015V128.129H127.627H127.928H128.378H128.678H128.979H129.279L129.579 127.908H129.88L130.18 127.688L132.582 146.023H111.411V137.85Z" fill="#7F7F00" stroke="black" stroke-width="0.364253"/>
<path d="M46.9969 109.133H55.2552V146.025H34.084L46.9969 109.133Z" fill="#7F7F00" stroke="black" stroke-width="0.364253"/>
<path d="M21.3211 103.391H19.9697V107.367H21.3211V103.391Z" fill="#7F7F7F"/>
<path d="M18.9189 63.1797H21.3213V93.6657H18.9189V63.1797Z" fill="#7F7F7F"/>
<path d="M21.3211 49.7031H19.9697V53.6796H21.3211V49.7031Z" fill="#7F7F7F"/>
<path d="M51.652 47.7168H46.5469V45.2868H45.9463V41.5312H51.9523V45.2868H51.652V47.7168Z" fill="#7F7F7F"/>
<path d="M47.5977 45.2868V41.5312H50.6007V45.2868H47.5977Z" fill="#B2B2B2" stroke="black" stroke-width="0.364253"/>
<path d="M80.4805 73.5625H97.8979V83.7245H80.4805V73.5625Z" fill="#B2B2B2" stroke="black" stroke-width="0.364253"/>
<path d="M18.9189 73.5625H0.600586V83.7245H18.9189V73.5625Z" fill="#B2B2B2" stroke="black" stroke-width="0.364253"/>
<path d="M138.138 8.17295V0.882812H141.441V8.17295H138.138Z" fill="#BFBF00"/>
<path d="M128.229 28.4994H128.679H129.129L129.58 28.7203H130.03L130.331 28.9412L130.631 29.1621L130.931 29.6039L131.232 29.8248V8.61719H128.229V28.4994Z" fill="#BFBF00"/>
<path d="M141.442 89.4688V96.7589H132.583V89.4688H141.442Z" fill="#BFBF00"/>
<path d="M141.441 113.109H149.249V120.841H141.441V113.109Z" fill="#BFBF00"/>
<path d="M115.015 115.095V123.268H127.627L129.129 123.047L130.63 122.385L131.831 121.501L132.282 121.059L132.582 120.397V114.211L131.081 114.653L129.429 114.874L127.627 115.095H115.015Z" fill="#BFBF00"/>
<path d="M115.015 123.711H108.559V132.989H115.015V123.711Z" fill="#BFBF00"/>
<path d="M101.651 129.016H108.108V137.852H101.651V129.016Z" fill="#BFBF00"/>
<path d="M101.201 118.853V131.003H98.1979V117.969L75.6753 109.132H24.1738V97.2031H54.2039L56.1558 100.959L60.5102 102.947L64.7144 101.4L67.4171 97.2031H80.4801V100.517L101.201 108.691V118.853Z" fill="#BFBF00"/>
<path d="M53.1534 143.153H31.832V148.897H60.5107V143.153H57.2074V109.133H53.1534V143.153Z" fill="#BFBF00"/>
<path d="M113.363 137.852H109.159V143.153H106.156V148.897H134.535V143.153H113.363V137.852Z" fill="#BFBF00"/>
<path d="M68.6183 47.2734H23.5732V48.378H68.6183V47.2734Z" fill="#BFBF00"/>
<path d="M23.5735 104.492H21.3213V109.131H23.5735V104.492Z" fill="#BFBF00"/>
<path d="M98.949 21.6484H101.201V29.8222H98.949V28.4967H98.1982V23.6367H98.949V21.6484Z" fill="black"/>
<path d="M98.949 49.7031H101.201V57.4351H98.949V56.1096H98.1982V51.2495H98.949V49.7031Z" fill="black"/>
<path d="M98.949 95.2109H101.201V103.385H98.949V102.059H98.1982V97.1992H98.949V95.2109Z" fill="black"/>
<path d="M98.949 125.258H101.201V133.432H98.949V131.443H98.1982V126.583H98.949V125.258Z" fill="black"/>
<path d="M18.9184 73.7812H0.900391V81.7341H18.9184V73.7812Z" fill="#F0F0F0"/>
<path d="M45.9464 91.8987H43.6941L42.3428 89.0268L43.6941 85.4922H45.9464L47.2977 89.0268L45.9464 91.8987Z" fill="#F0F0F0"/>
<path d="M80.4805 73.7812H97.8979V81.7341H80.4805V73.7812Z" fill="#F0F0F0"/>
<path d="M98.9492 130.998H100.901V127.242H98.9492V130.998Z" fill="#F0F0F0"/>
<path d="M98.9492 100.954H100.901V97.6406H98.9492V100.954Z" fill="#F0F0F0"/>
<path d="M98.9492 55.4508H100.901V51.6953H98.9492V55.4508Z" fill="#F0F0F0"/>
<path d="M98.9492 27.3961H100.901V23.6406H98.9492V27.3961Z" fill="#F0F0F0"/>
<path d="M51.9519 45.2868V41.5312H50.6006V45.2868H51.9519Z" fill="#F0F0F0"/>
<path d="M78.5289 70.0273H24.625V68.0391H78.5289V70.0273Z" fill="#FFFF7F"/>
<path d="M99.9997 33.7969V36.2269L73.2729 49.7026H73.5732L68.6183 52.5745H68.318H24.1738V49.7026H68.6183L99.9997 33.7969Z" fill="#FFFF7F"/>
<path d="M141.742 31.8125H149.25V36.6726H141.742V31.8125Z" fill="#FFFF7F"/>
<path d="M140.991 55.4453V59.8636H133.184V55.4453H140.991Z" fill="#FFFF7F"/>
<path d="M115.016 21.6484H108.859V29.3804H115.016V21.6484Z" fill="#FFFF7F"/>
<path d="M102.853 21.6484H107.807V29.3804H102.853V21.6484Z" fill="#FFFF7F"/>
<path d="M115.465 18.3365V17.6738V9.5H113.813V18.3365H115.465Z" fill="#FFFF7F"/>
<path d="M103.604 8.61826V1.32812H105.555V8.61826H103.604Z" fill="#FFFF7F"/>
<path d="M23.5735 48.3828H21.3213V50.1501H23.5735V48.3828Z" fill="#FFFF7F"/>
</svg>
