<svg width="150" height="150" viewBox="0 0 150 150" fill="none" xmlns="http://www.w3.org/2000/svg">
<g clip-path="url(#clip0_2109_230963)">
<path d="M51.8022 149.999V112.008H14.2646V149.999H22.9734L27.1776 118.558H38.8893L43.0935 149.999H51.8022Z" fill="#7F7F7F" stroke="black" stroke-width="0.627221"/>
<path d="M118.168 49.7812H144.294V100.218H118.168V49.7812Z" fill="#8C8C8C"/>
<path d="M118.168 51.75H144.294V96.2915H118.168V51.75Z" fill="#999999"/>
<path d="M118.168 56.9844H144.294V92.3556H118.168V56.9844Z" fill="#B2B2B2"/>
<path d="M118.168 63.5391H144.294V85.8098H118.168V63.5391Z" fill="#CCCCCC"/>
<path d="M118.168 70.7422H144.294V79.2575H118.168V70.7422Z" fill="#D9D9D9"/>
<path d="M118.168 49.7812H144.294V100.218H118.168V49.7812Z" stroke="black" stroke-width="0.627221"/>
<path d="M135.586 105.461H126.877V150.002H135.586V105.461Z" fill="#7F7F7F"/>
<path d="M135.586 42.5781H126.877V112.01H135.586V42.5781Z" fill="#8C8C8C"/>
<path d="M135.586 46.5078H126.877V101.53H135.586V46.5078Z" fill="#999999"/>
<path d="M135.586 53.0547H126.877V96.2861H135.586V53.0547Z" fill="#B2B2B2"/>
<path d="M135.586 61.5703H126.877V88.4262H135.586V61.5703Z" fill="#CCCCCC"/>
<path d="M135.586 68.7734H126.877V81.2189H135.586V68.7734Z" fill="#D9D9D9"/>
<path d="M135.586 42.5781H126.877V150.002H135.586V42.5781Z" stroke="black" stroke-width="0.627221"/>
<path d="M150 24.8906H144.294V125.109H150V24.8906Z" fill="#8C8C8C"/>
<path d="M150 30.7891H144.294V118.562H150V30.7891Z" fill="#999999"/>
<path d="M150 40.6094H144.294V109.387H150V40.6094Z" fill="#B2B2B2"/>
<path d="M150 53.0547H144.294V96.2861H150V53.0547Z" fill="#CCCCCC"/>
<path d="M150 65.5H144.294V84.4956H150V65.5Z" fill="#D9D9D9"/>
<path d="M150 24.8906H144.294V125.109H150V24.8906Z" stroke="black" stroke-width="0.627221"/>
<path d="M118.169 24.8906H112.463V125.109H118.169V24.8906Z" fill="#8C8C8C"/>
<path d="M118.169 30.7891H112.463V118.562H118.169V30.7891Z" fill="#999999"/>
<path d="M118.169 40.6094H112.463V109.387H118.169V40.6094Z" fill="#B2B2B2"/>
<path d="M118.169 53.0547H112.463V96.2861H118.169V53.0547Z" fill="#CCCCCC"/>
<path d="M118.169 65.5H112.463V84.4956H118.169V65.5Z" fill="#D9D9D9"/>
<path d="M118.169 24.8906H112.463V125.109H118.169V24.8906Z" stroke="black" stroke-width="0.627221"/>
<path d="M136.186 140.828H126.276V149.998H136.186V140.828Z" fill="#666666" stroke="black" stroke-width="0.627221"/>
<path d="M80.6309 112.006L57.5078 100.216V49.7789L80.6309 36.0234H112.463V112.006H80.6309Z" fill="#8C8C8C"/>
<path d="M80.6309 106.768L57.5078 96.2875V51.746L80.6309 41.2656H112.463V106.768H80.6309Z" fill="#999999"/>
<path d="M80.6309 100.222L57.5078 91.0518V56.9906L80.6309 47.8203H112.463V100.222H80.6309Z" fill="#B2B2B2"/>
<path d="M80.6309 91.048L57.5078 85.8078V63.537L80.6309 58.2969H112.463V91.048H80.6309Z" fill="#CCCCCC"/>
<path d="M80.6309 81.2242L57.5078 79.2591V70.7439L80.6309 67.4688H112.463V81.2242H80.6309Z" fill="#D9D9D9"/>
<path d="M80.6309 112.006L57.5078 100.216V49.7789L80.6309 36.0234H112.463V112.006H80.6309Z" stroke="black" stroke-width="0.627221"/>
<path d="M57.5074 24.8906H54.8047V125.109H57.5074V24.8906Z" fill="#999999" stroke="black" stroke-width="0.627221"/>
<path d="M79.1294 65.5L77.6279 67.4651L77.0273 74.0153L77.6279 81.2205L79.1294 83.1856L80.3306 81.8755L81.3817 75.9803L81.5318 74.0153L80.7811 67.4651L79.5799 65.5H79.1294Z" fill="#E5E5E5" stroke="#7F7F7F" stroke-width="0.627221"/>
<path d="M110.961 42.5781H95.0449V105.46H110.961V42.5781Z" fill="#999999" stroke="black" stroke-width="0.627221"/>
<path d="M110.961 105.46V42.5781H95.0449" stroke="white" stroke-width="0.627221"/>
<path d="M108.858 55.6777C109.19 55.6777 109.459 54.5046 109.459 53.0576C109.459 51.6106 109.19 50.4375 108.858 50.4375C108.527 50.4375 108.258 51.6106 108.258 53.0576C108.258 54.5046 108.527 55.6777 108.858 55.6777Z" fill="#B2B2B2" stroke="black" stroke-width="0.627221"/>
<path d="M97.2976 56.3315C97.7123 56.3315 98.0484 54.8652 98.0484 53.0564C98.0484 51.2476 97.7123 49.7812 97.2976 49.7812C96.883 49.7812 96.5469 51.2476 96.5469 53.0564C96.5469 54.8652 96.883 56.3315 97.2976 56.3315Z" fill="#B2B2B2" stroke="black" stroke-width="0.627221"/>
<path d="M103.003 56.3315C103.417 56.3315 103.753 54.8652 103.753 53.0564C103.753 51.2476 103.417 49.7812 103.003 49.7812C102.588 49.7812 102.252 51.2476 102.252 53.0564C102.252 54.8652 102.588 56.3315 103.003 56.3315Z" fill="#B2B2B2" stroke="black" stroke-width="0.627221"/>
<path d="M108.858 99.5605C109.19 99.5605 109.459 98.3874 109.459 96.9404C109.459 95.4934 109.19 94.3203 108.858 94.3203C108.527 94.3203 108.258 95.4934 108.258 96.9404C108.258 98.3874 108.527 99.5605 108.858 99.5605Z" fill="#B2B2B2" stroke="black" stroke-width="0.627221"/>
<path d="M97.2976 100.222C97.7123 100.222 98.0484 98.7558 98.0484 96.947C98.0484 95.1382 97.7123 93.6719 97.2976 93.6719C96.883 93.6719 96.5469 95.1382 96.5469 96.947C96.5469 98.7558 96.883 100.222 97.2976 100.222Z" fill="#B2B2B2" stroke="black" stroke-width="0.627221"/>
<path d="M103.003 100.222C103.417 100.222 103.753 98.7558 103.753 96.947C103.753 95.1382 103.417 93.6719 103.003 93.6719C102.588 93.6719 102.252 95.1382 102.252 96.947C102.252 98.7558 102.588 100.222 103.003 100.222Z" fill="#B2B2B2" stroke="black" stroke-width="0.627221"/>
<path d="M71.9219 42.5751L72.5225 48.4703L74.024 52.4004L75.6756 54.3655L77.6276 55.6755L78.3783 56.3305H79.8798L81.3813 55.6755L83.1831 54.3655L84.6846 51.7454L86.036 47.1602L86.3363 42.5751V11.7891H71.9219V42.5751Z" fill="#7F7F7F" stroke="black" stroke-width="0.627221"/>
<path d="M73.4238 42.5751L73.8743 48.4703L75.0755 52.4004L76.4268 54.3655L77.9283 55.6755L78.5289 56.3305L80.3307 55.6755L81.9824 54.3655L83.3337 52.4004L84.6851 48.4703L85.1355 42.5751V11.7891H73.4238V42.5751Z" fill="#999999"/>
<path d="M75.5254 42.5751L75.6755 45.8502L75.8257 48.4703L76.126 50.4354L76.5764 52.4004L77.177 54.3655L77.7776 55.0205L78.3782 55.6755L79.129 56.3305L79.8797 55.6755L80.6305 55.0205L81.2311 54.3655L81.6815 52.4004L82.132 50.4354L82.4323 48.4703L82.5824 45.8502L82.7326 42.5751V11.7891H75.5254V42.5751Z" fill="#B2B2B2"/>
<path d="M79.2791 56.3305C79.6937 56.3305 80.0298 46.3596 80.0298 34.0598C80.0298 21.76 79.6937 11.7891 79.2791 11.7891C78.8644 11.7891 78.5283 21.76 78.5283 34.0598C78.5283 46.3596 78.8644 56.3305 79.2791 56.3305Z" fill="#BFBFBF"/>
<path d="M95.0452 11.7904V0H63.5137V11.7904H95.0452Z" fill="#8C8C8C"/>
<path d="M93.2434 11.7904V0H65.3154V11.7904H93.2434Z" fill="#999999"/>
<path d="M90.2403 11.7904V0H68.3184V11.7904H90.2403Z" fill="#B2B2B2"/>
<path d="M86.0365 11.7904V0H72.2227V11.7904H86.0365Z" fill="#CCCCCC"/>
<path d="M82.132 11.7904V0H76.126V11.7904H82.132Z" fill="#D9D9D9"/>
<path d="M95.0452 11.7904V0H63.5137V11.7904H95.0452Z" stroke="black" stroke-width="0.627221"/>
<path d="M51.8015 125.109H50.3V143.45H43.0928V150H51.8015V125.109Z" fill="#A6A6A6" stroke="black" stroke-width="0.627221"/>
<path d="M11.2613 65.5H0V83.1856H11.2613V65.5Z" fill="#7F7F7F"/>
<path d="M11.2613 67.4688H0V81.2242H11.2613V67.4688Z" fill="#B2B2B2"/>
<path d="M11.2613 72.7109H0V75.986H11.2613V72.7109Z" fill="#F2F2F2"/>
<path d="M11.2613 65.5H0V83.1856H11.2613V65.5Z" stroke="black" stroke-width="0.627221"/>
<path d="M11.5615 112.006H34.3843V36.0234H11.5615V112.006Z" fill="#8C8C8C"/>
<path d="M11.5615 108.078H34.3843V41.2656H11.5615V108.078Z" fill="#999999"/>
<path d="M11.5615 100.222H34.3843V47.8203H11.5615V100.222Z" fill="#B2B2B2"/>
<path d="M11.5615 91.048H34.3843V58.2969H11.5615V91.048Z" fill="#CCCCCC"/>
<path d="M11.5615 81.8792H34.3843V67.4688H11.5615V81.8792Z" fill="#D9D9D9"/>
<path d="M11.5615 112.006H34.3843V36.0234H11.5615V112.006Z" stroke="black" stroke-width="0.627221"/>
<path d="M14.2646 81.2266H15.7661V143.454H22.9734V150.004H14.2646V81.2266Z" fill="#A6A6A6" stroke="black" stroke-width="0.627221"/>
<path d="M54.8052 24.8906H34.3848V125.109H54.8052V24.8906Z" fill="#B2B2B2" stroke="black" stroke-width="0.627221"/>
<path d="M51.2015 42.5781H37.9883V105.46H51.2015V42.5781Z" fill="#CCCCCC" stroke="black" stroke-width="0.627221"/>
<path d="M41.5919 65.5H37.9883V83.1856H41.5919V65.5Z" fill="#7F7F7F"/>
<path d="M41.5919 67.4688H37.9883V81.2242H41.5919V67.4688Z" fill="#B2B2B2"/>
<path d="M41.5919 72.7109H37.9883V75.986H41.5919V72.7109Z" fill="#F2F2F2"/>
<path d="M41.5919 65.5H37.9883V83.1856H41.5919V65.5Z" stroke="black" stroke-width="0.627221"/>
<path d="M51.2013 49.7812H44.5947V100.218H51.2013V49.7812Z" fill="#4C4C4C" stroke="black" stroke-width="0.627221"/>
<path d="M44.5948 58.2969H41.5918V89.7379H44.5948V58.2969Z" fill="#666666" stroke="black" stroke-width="0.627221"/>
<path d="M146.396 24.8906V125.109" stroke="black" stroke-width="0.627221"/>
<path d="M116.066 24.8906V125.109" stroke="black" stroke-width="0.627221"/>
</g>
<defs>
<clipPath id="clip0_2109_230963">
<rect width="150" height="150" fill="white"/>
</clipPath>
</defs>
</svg>
