<svg width="150" height="150" viewBox="0 0 150 150" fill="none" xmlns="http://www.w3.org/2000/svg">
<g clip-path="url(#clip0_2109_233971)">
<path d="M80.4 102.093H139.5V53.7344H80.4L77.1 54.1821L74.1 55.5254L71.4 57.7642L69.3 60.8986L67.2 64.4806L65.7 68.5105L64.8 72.9881L64.5 77.9135L64.8 82.8389L65.7 87.3165L67.2 91.3463L69.3 94.9284L71.4 98.0627L74.1 100.302L77.1 101.645L80.4 102.093Z" fill="#7F7F7F"/>
<path d="M72.6 98.9567L70.8 97.1657L69.3 94.9269L67.8 92.6881L66.6 90.0015L65.7 87.3149L65.1 84.1806L64.5 81.0463V77.912V74.7776L65.1 71.6433L65.7 68.509L66.6 65.8224L67.8 63.1358L69.3 60.4493L70.8 58.6582L72.6 56.8672H139.5V98.9567H72.6Z" fill="#999999"/>
<path d="M68.4 94.0279L67.5 92.2368L66.6 90.4458L66 88.6547L65.4 86.4159L65.1 84.1771L64.8 82.3861L64.5 80.1473V77.9085V75.6697L64.8 73.4309L65.1 71.6398L65.4 69.401L66 67.1622L66.6 65.3712L67.5 63.5801L68.4 61.7891H139.5V94.0279H68.4Z" fill="#B2B2B2"/>
<path d="M66.3 88.659L65.4 85.9725L65.1 83.2859L64.5 80.5993V77.9128V75.2262L65.1 72.0919L65.4 69.4053L66.3 66.7188H139.5V89.1068L66.3 88.659Z" fill="#CCCCCC"/>
<path d="M65.1 85.0754L64.8 83.2844L64.5 81.4934V79.7023V77.9113V75.6725L64.8 73.8814V71.6426L65.1 69.8516H139.5V85.0754H65.1Z" fill="#E5E5E5"/>
<path d="M64.5 81.0421V80.1466V79.251V78.8033V77.9078V77.0122V76.1167V75.669V74.7734H139.5V81.0421H64.5Z" fill="white"/>
<path d="M139.5 53.7344H80.4L77.1 54.1821L74.1 55.5254L71.4 57.7642L69.3 60.8986L67.2 64.4806L65.7 68.5105L64.8 72.9881L64.5 77.9135L64.8 82.8389L65.7 87.3165L67.2 91.3463L69.3 94.9284L71.4 98.0627L74.1 100.302L77.1 101.645L80.4 102.093H139.5" stroke="black" stroke-width="0.733017"/>
<path d="M150 47.9141H139.5V107.914H150V47.9141Z" fill="#7F7F7F"/>
<path d="M150 51.4922H139.5V104.328H150V51.4922Z" fill="#999999"/>
<path d="M150 58.2109H139.5V98.0617H150V58.2109Z" fill="#B2B2B2"/>
<path d="M150 64.0312H139.5V91.7924H150V64.0312Z" fill="#CCCCCC"/>
<path d="M150 68.9531H139.5V86.8636H150V68.9531Z" fill="#E5E5E5"/>
<path d="M150 74.3281H139.5V81.4923H150V74.3281Z" fill="white"/>
<path d="M150 47.9141H139.5V107.914H150V47.9141Z" stroke="black" stroke-width="0.733017"/>
<path d="M34.8 53.7308H0V5.82031H80.4L85.2 6.26807L90 7.1636L94.8 8.95464L99.3 11.6412L103.5 14.3278L107.4 17.9099L111 22.3875L114.6 26.8651L117.6 31.7905L120.6 37.6114L123 43.4323L124.8 49.7009L126.6 56.4173L127.8 63.1337L128.4 70.2979L128.7 77.4621L128.4 84.6263L127.8 92.2382L126.6 98.9546L124.8 105.671L123 111.94L120.6 117.761L117.6 123.582L114.6 128.507L111 133.432L107.4 137.462L103.5 141.044L99.3 144.179L94.8 146.865L90 148.656L85.2 149.552L80.4 149.999L75.6 149.552L70.8 148.656L66 146.865L61.8 144.179L57.6 141.044L53.4 137.462L49.8 133.432L46.5 128.507L43.2 123.582L40.5 117.761L38.1 111.94L36 105.671L34.2 98.9546L33 92.2382L32.4 84.6263L32.1 77.4621L32.7 68.5069L33.6 59.5517L34.8 53.7308Z" fill="#7F7F7F" stroke="black" stroke-width="0.733017"/>
<path d="M80.4 9.85156H0V49.7023H80.4V9.85156Z" fill="#999999"/>
<path d="M80.4 14.7734H0V45.2212H80.4V14.7734Z" fill="#B2B2B2"/>
<path d="M80.4 19.7031H0V40.3001H80.4V19.7031Z" fill="#CCCCCC"/>
<path d="M80.4 23.2812H0V36.7141H80.4V23.2812Z" fill="#E5E5E5"/>
<path d="M80.4 27.3125H0V32.6856H80.4V27.3125Z" fill="white"/>
<path d="M80.3998 145.971C105.584 145.971 126 115.5 126 77.9113C126 40.3229 105.584 9.85156 80.3998 9.85156C55.2156 9.85156 34.7998 40.3229 34.7998 77.9113C34.7998 115.5 55.2156 145.971 80.3998 145.971Z" fill="#B2B2B2"/>
<path d="M10.8 0H0V60H10.8V0Z" fill="#7F7F7F"/>
<path d="M10.8 3.58594H0V56.4218H10.8V3.58594Z" fill="#999999"/>
<path d="M10.8 9.85156H0V50.1501H10.8V9.85156Z" fill="#B2B2B2"/>
<path d="M10.8 16.1172H0V43.8784H10.8V16.1172Z" fill="#CCCCCC"/>
<path d="M10.8 21.0469H0V38.5096H10.8V21.0469Z" fill="#E5E5E5"/>
<path d="M10.8 26.4141H0V33.5782H10.8V26.4141Z" fill="white"/>
<path d="M10.8 0H0V60H10.8V0Z" stroke="black" stroke-width="0.733017"/>
</g>
<defs>
<clipPath id="clip0_2109_233971">
<rect width="150" height="150" fill="white"/>
</clipPath>
</defs>
</svg>
