<svg width="150" height="150" viewBox="0 0 150 150" fill="none" xmlns="http://www.w3.org/2000/svg">
<g clip-path="url(#clip0_2109_231572)">
<path d="M22 87.5346V31.0781H146.8V87.5346H22Z" fill="black" stroke="black" stroke-width="0.490143"/>
<path d="M17.2002 18.4668L22.0002 17.2656H146.8L150 18.4668H17.2002Z" fill="#99CCCC" stroke="black" stroke-width="0.490143"/>
<path d="M22 5.85745L34.8 4.65625H134L146.8 5.85745H22Z" fill="#336666" stroke="black" stroke-width="0.490143"/>
<path d="M22 4.65465L34.8 0H134L146.8 4.65465H22Z" fill="#99CCCC" stroke="black" stroke-width="0.490143"/>
<path d="M22 17.2708V5.85938H146.8V17.2708H22Z" fill="#669999" stroke="black" stroke-width="0.490143"/>
<path d="M17.2002 18.4688H150V31.0814H17.2002V18.4688Z" fill="#669999" stroke="black" stroke-width="0.490143"/>
<path d="M114.8 79.7277H118V31.6797H114.8V79.7277Z" fill="#669999" stroke="black" stroke-width="0.490143"/>
<path d="M65.2002 79.7277H70.0002V31.6797H65.2002V79.7277Z" fill="#669999" stroke="black" stroke-width="0.490143"/>
<path d="M25.2002 79.7277H30.0002V31.6797H25.2002V79.7277Z" fill="#669999" stroke="black" stroke-width="0.490143"/>
<path d="M119.6 31.0782H103.6L102 29.7269L102.8 28.3755L105.2 27.1743L108.4 26.4236L111.6 26.2734L116 26.7239L118.8 27.6248L121.2 28.826V29.2764L120 30.6278L119.6 31.0782Z" fill="#99CCCC"/>
<path d="M26.7998 31.0782H18.7998V29.2764L19.5998 27.9251L21.5998 26.5737L23.5998 26.2734L26.7998 27.3245L28.3998 28.826V29.2764L27.1998 30.6278L26.7998 31.0782Z" fill="#99CCCC"/>
<path d="M118 31.0802H105.2L103.6 30.0291L104.8 28.3775L108.4 27.6267L111.6 27.4766L116 28.0772L118 29.2784V29.879V31.0802Z" fill="#336666"/>
<path d="M26.7998 31.0802H20.3998L18.7998 29.879L19.5998 28.3775L22.7998 27.4766H23.5998H24.3998L26.7998 28.8279V29.879V31.0802Z" fill="#336666"/>
<path d="M17.2002 79.7277H22.0002V31.6797H17.2002V79.7277Z" fill="#003333" stroke="black" stroke-width="0.490143"/>
<path d="M33.2002 79.7277H38.0002V31.6797H33.2002V79.7277Z" fill="#003333" stroke="black" stroke-width="0.490143"/>
<path d="M41.2002 79.7277H46.0002V31.6797H41.2002V79.7277Z" fill="#003333" stroke="black" stroke-width="0.490143"/>
<path d="M49.2002 79.7277H54.0002V31.6797H49.2002V79.7277Z" fill="#003333" stroke="black" stroke-width="0.490143"/>
<path d="M57.2002 79.7277H62.0002V31.6797H57.2002V79.7277Z" fill="#003333" stroke="black" stroke-width="0.490143"/>
<path d="M73.2002 79.7277H78.0002V31.6797H73.2002V79.7277Z" fill="#003333" stroke="black" stroke-width="0.490143"/>
<path d="M81.2002 79.7277H86.0002V31.6797H81.2002V79.7277Z" fill="#003333" stroke="black" stroke-width="0.490143"/>
<path d="M90.7998 79.7277H93.9998V31.6797H90.7998V79.7277Z" fill="#003333" stroke="black" stroke-width="0.490143"/>
<path d="M98.7998 79.7277H102V31.6797H98.7998V79.7277Z" fill="#003333" stroke="black" stroke-width="0.490143"/>
<path d="M106.8 79.7277H110V31.6797H106.8V79.7277Z" fill="#003333" stroke="black" stroke-width="0.490143"/>
<path d="M122.8 79.7277H126V31.6797H122.8V79.7277Z" fill="#003333" stroke="black" stroke-width="0.490143"/>
<path d="M130.8 79.7277H134V31.6797H130.8V79.7277Z" fill="#003333" stroke="black" stroke-width="0.490143"/>
<path d="M138.8 79.7277H142V31.6797H138.8V79.7277Z" fill="#003333" stroke="black" stroke-width="0.490143"/>
<path d="M146.8 79.7277H150V31.6797H146.8V79.7277Z" fill="#003333" stroke="black" stroke-width="0.490143"/>
<path d="M114.8 30.4805H106.8L107.6 28.8289L110.4 28.0781H111.6L114.8 29.1292V29.8799V30.4805Z" fill="#003333" stroke="black" stroke-width="0.490143"/>
<path d="M25.2004 30.4805H20.4004L21.2004 28.8289L23.6004 28.0781L25.2004 29.5796V29.8799V30.4805Z" fill="#003333" stroke="black" stroke-width="0.490143"/>
<path d="M150 79.7277V31.6797" stroke="#336666" stroke-width="0.490143"/>
<path d="M34.8002 70.7243L17.2002 70.1237V45.499L34.8002 44.8984V70.7243Z" fill="#669999" stroke="black" stroke-width="0.490143"/>
<path d="M34.7998 70.7243H36.3998V44.8984H34.7998V70.7243Z" fill="#336666" stroke="black" stroke-width="0.490143"/>
<path d="M25.2 67.1156L1.2 66.515L0 65.3138L1.2 51.5H28.4L23.6 65.9144L25.2 67.1156Z" fill="#669999" stroke="black" stroke-width="0.490143"/>
<path d="M28.4002 51.4981L44.4002 50.2969H15.6002L1.2002 51.4981H28.4002Z" fill="#99CCCC" stroke="black" stroke-width="0.490143"/>
<path d="M1.2 66.5131L0 65.3119L23.6 65.9125L28.4 51.4981L44.4 50.2969V51.4981L42.8 52.0987V65.9125V66.5131L25.2 67.1137L1.2 66.5131Z" fill="#336666" stroke="black" stroke-width="0.490143"/>
<path d="M25.2 66.5141L1.2 65.9135L0 65.3129L23.6 65.9135L42.8 50.8984H44.4L25.2 66.5141Z" fill="#003333"/>
<path d="M114.8 35.2891H119.6V74.9287H114.8V35.2891Z" fill="#99CCCC" stroke="black" stroke-width="0.490143"/>
<path d="M113.2 43.6953H121.2V64.7163H113.2V43.6953Z" fill="#B2B2B2" stroke="black" stroke-width="0.490143"/>
<path d="M113.2 44.2969H121.2V52.1047H113.2V44.2969Z" fill="#990000" stroke="black" stroke-width="0.490143"/>
<path d="M18.7998 90.5391H148.4V114.563H18.7998V90.5391Z" fill="#B2B2B2" stroke="black" stroke-width="0.490143"/>
<path d="M17.2002 87.5391H150V90.5421H17.2002V87.5391Z" fill="#B2B2B2" stroke="black" stroke-width="0.490143"/>
<path d="M17.2002 114.562H150V118.166H17.2002V114.562Z" fill="#B2B2B2" stroke="black" stroke-width="0.490143"/>
<path d="M18.7998 118.172H148.4V147.001H18.7998V118.172Z" fill="#B2B2B2" stroke="black" stroke-width="0.490143"/>
<path d="M17.2002 147H150V150.003H17.2002V147Z" fill="#B2B2B2" stroke="black" stroke-width="0.490143"/>
<path d="M46 145.193L38 142.19V122.37L46 119.367H121.2L129.2 122.37V142.19L121.2 145.193H46Z" fill="#336666" stroke="black" stroke-width="0.490143"/>
<path d="M46 113.365L38 110.362V95.3468L46 92.3438H121.2L129.2 95.3468V110.362L121.2 113.365H46Z" fill="#336666" stroke="black" stroke-width="0.490143"/>
<path d="M50.7998 111.565L42.7998 108.562V97.1505L50.7998 93.5469H118L126 97.1505V108.562L118 111.565H50.7998Z" fill="#99CCCC"/>
<path d="M50.7998 143.995L42.7998 140.391V124.175L50.7998 121.172H118L126 124.175V140.391L118 143.995H50.7998Z" fill="#99CCCC"/>
<path d="M52.4004 110.958L44.4004 107.955V97.7452L52.4004 94.7422H114.8L124.4 97.7452V107.955L114.8 110.958H52.4004Z" fill="#669999"/>
<path d="M52.4004 142.794L44.4004 139.791V124.776L52.4004 121.773H114.8L124.4 124.776V139.791L114.8 142.794H52.4004Z" fill="#669999"/>
</g>
<defs>
<clipPath id="clip0_2109_231572">
<rect width="150" height="150" fill="white"/>
</clipPath>
</defs>
</svg>
