<svg width="150" height="150" viewBox="0 0 150 150" fill="none" xmlns="http://www.w3.org/2000/svg">
<g clip-path="url(#clip0_2109_232376)">
<path d="M57.9046 150V143.694H43.5664V112.462H57.9046V87.3874H49.0811V81.982H57.9046V79.5796H49.0811V60.9609H112.5V79.5796H103.677V81.982H112.5V87.3874H103.677V112.462H118.015V143.694H103.677V150H57.9046Z" fill="#4C4C4C"/>
<path d="M65.0739 150V143.694H55.1475V112.462H65.0739V87.3874H59.0078V81.982H65.0739V79.5796H59.0078V60.9609H102.574V79.5796H96.5078V81.982H102.574V87.3874H96.5078V112.462H106.434V143.694H96.5078V150H65.0739Z" fill="#7F7F7F"/>
<path d="M75.551 150V143.694H72.2422V112.462H75.551V87.3874H73.8966V81.982H75.551V79.5796H73.8966V60.9609H88.2348V79.5796H86.029V81.982H88.2348V87.3874H86.029V112.462H89.3378V143.694H86.029V150H75.551Z" fill="#B2B2B2"/>
<path d="M57.9046 150V143.694H43.5664V112.462H57.9046V87.3874H49.0811V81.982H57.9046V79.5796H49.0811V60.9609H112.5V79.5796H103.677V81.982H112.5V87.3874H103.677V112.462H118.015V143.694H103.677V150H57.9046Z" stroke="#191919" stroke-width="0.575512"/>
<path d="M57.9043 79.7266H103.125" stroke="black" stroke-width="0.575512"/>
<path d="M57.9043 82.1328H103.125" stroke="black" stroke-width="0.575512"/>
<path d="M57.9043 87.5391H103.125" stroke="black" stroke-width="0.575512"/>
<path d="M57.9043 112.461H103.125" stroke="black" stroke-width="0.575512"/>
<path d="M57.9043 143.695H103.125" stroke="black" stroke-width="0.575512"/>
<path d="M149.449 55.1017V57.5041L146.692 59.0056L141.177 59.7563L133.456 60.5071L129.045 60.9575L123.53 61.2578L118.567 61.5581L112.5 61.7083L106.434 62.0086L99.8166 62.1587H93.1989L86.0298 62.3089H78.8607H71.6916L65.0739 62.1587H58.4563L51.8386 62.0086L45.7725 61.7083L39.7063 61.5581L34.1916 61.2578L29.2283 60.9575L20.4048 60.2068L13.7872 59.456L9.92687 58.5551L8.82393 57.9545L8.27246 57.5041V55.1017L8.82393 54.6512L13.7872 53.2999L20.4048 52.5491L29.2283 51.7984L34.1916 51.4981L39.7063 51.1978L45.7725 50.8975L51.8386 50.7473L58.4563 50.5972L65.0739 50.447L71.6916 50.2969H78.8607H86.0298L93.1989 50.447L99.8166 50.5972L106.434 50.7473L112.5 50.8975L118.567 51.1978L123.53 51.4981L129.045 51.7984L137.317 52.5491L143.934 53.2999L148.346 54.2008L149.449 54.6512V55.1017Z" fill="#404040" stroke="black" stroke-width="0.575512"/>
<path d="M78.8607 59.9065C117.846 59.9065 149.449 57.7553 149.449 55.1017C149.449 52.4481 117.846 50.2969 78.8607 50.2969C39.8759 50.2969 8.27246 52.4481 8.27246 55.1017C8.27246 57.7553 39.8759 59.9065 78.8607 59.9065Z" fill="#7F7F7F" stroke="black" stroke-width="0.575512"/>
<path d="M8.27246 4.8048L16.5445 0.750751L22.6107 0H25.9195H32.5372H132.353L146.692 2.1021L149.449 3.9039L150 4.8048V14.4144H145.589V52.8529L137.317 56.7568L131.25 57.5075L127.942 57.6577H121.324H30.3313L15.993 55.4054L12.6842 52.8529V14.4144H8.27246V4.8048Z" fill="#999999"/>
<path d="M20.9561 4.65465L27.5737 0.750751L32.5369 0H35.2943H40.809H122.978L136.765 3.003L137.316 3.75375L137.868 4.65465V14.4144H134.008V52.8529L127.39 56.7568L122.427 57.5075L119.669 57.6577H114.155H39.1546L25.9193 54.5045L24.2649 52.8529V14.4144H20.9561V4.65465Z" fill="#B0B0B0"/>
<path d="M32.5371 4.65465L38.0518 0.750751L42.4636 0H44.6695H49.0812H114.155L124.633 3.003L125.184 3.75375L125.736 4.65465V14.4144H122.978V52.8529L117.464 56.7568L113.603 57.5075L111.397 57.6577H106.986H47.4268L36.9489 54.5045L35.8459 52.8529V14.4144H32.5371V4.65465Z" fill="#C4C4C4"/>
<path d="M45.2207 4.65465L50.1839 0.3003L51.8384 0H53.4928H56.8016H104.78H106.434L113.603 3.75375V4.65465V14.4144H111.397V52.8529L105.882 57.2072L104.228 57.5075L102.574 57.6577H99.8163H55.6986L54.0442 57.5075L47.4266 53.7538V52.8529V14.4144H45.2207V4.65465Z" fill="#DBDBDB"/>
<path d="M56.8018 4.8048L60.6621 0.3003L61.2135 0H62.3165H64.5223H95.9562H97.0591L100.919 3.9039L101.471 4.8048V14.4144H99.8165V52.8529L96.5076 57.2072L95.4047 57.5075L94.3018 57.6577H92.6473H63.9709L62.8679 57.5075L58.4562 52.8529V14.4144H56.8018V4.8048Z" fill="#F2F2F2"/>
<path d="M12.6836 14.2656H145.037" stroke="black" stroke-width="0.575512"/>
<path d="M8.27246 4.8048L16.5445 0.750751L22.6107 0H25.9195H32.5372H132.353L146.692 2.1021L149.449 3.9039L150 4.8048V14.4144H145.589V52.8529L137.317 56.7568L131.25 57.5075L127.942 57.6577H121.324H30.3313L15.993 55.4054L12.6842 52.8529V14.4144H8.27246V4.8048Z" stroke="black" stroke-width="0.575512"/>
<path d="M122.977 38.2916H109.742V15.4688H122.977V38.2916Z" fill="#7F7F7F" stroke="black" stroke-width="0.575512"/>
<path d="M47.9778 31.0844H25.9189V15.4688H47.9778V31.0844Z" fill="#7F7F7F" stroke="black" stroke-width="0.575512"/>
<path d="M122.978 38.2916L149.448 35.8892V15.4688H122.978V38.2916Z" fill="#999999" stroke="black" stroke-width="0.575512"/>
<path d="M25.9191 31.0844L0 29.8832V15.4688H25.9191V31.0844Z" fill="#999999" stroke="black" stroke-width="0.575512"/>
<path d="M61.2129 5.85938H96.507V11.8654H61.2129V5.85938Z" fill="#4C4C4C"/>
<path d="M65.625 7.05469H92.0956V8.25589H65.625V7.05469Z" fill="#E5E5E5"/>
<path d="M70.0371 9.46094H87.6842V10.6621H70.0371V9.46094Z" fill="#D9D9D9"/>
<path d="M57.9041 74.9235L53.4923 74.0226L51.8379 71.7703L53.4923 69.5181L57.9041 68.6172L61.7644 69.5181L63.4188 71.7703L61.7644 74.0226L57.9041 74.9235Z" fill="black"/>
</g>
<defs>
<clipPath id="clip0_2109_232376">
<rect width="150" height="150" fill="white"/>
</clipPath>
</defs>
</svg>
