<svg width="150" height="150" viewBox="0 0 150 150" fill="none" xmlns="http://www.w3.org/2000/svg">
<path d="M144.079 53.7705V96.2233L143.684 101.318L142.5 106.129L140.921 110.94L138.552 115.469L135.789 119.997L132.237 123.959L128.289 127.638L123.947 131.318L118.816 134.431L113.684 137.261L108.158 139.808L101.842 141.789L95.5262 143.487L88.8156 144.62L82.1051 145.469L74.9998 145.752L67.8946 145.469L61.1841 144.62L54.4735 143.487L48.1577 141.789L41.842 139.808L36.3156 137.261L31.1841 134.431L26.0525 131.318L21.7104 127.638L17.763 123.959L14.2104 119.997L11.4472 115.469L9.07879 110.94L7.49985 106.129L6.31564 101.318L5.9209 96.2233V53.7705L6.31564 48.6761L7.49985 43.8648L9.07879 39.0535L11.4472 34.5252L14.2104 29.9969L17.763 26.0346L21.7104 22.3554L26.0525 18.6761L31.1841 15.5629L36.3156 12.7328L41.842 10.1856L48.1577 8.20445L54.4735 6.50634L61.1841 5.37426L67.8946 4.52521L74.9998 4.24219L82.1051 4.52521L88.8156 5.37426L95.5262 6.50634L101.842 8.20445L108.158 10.1856L113.684 12.7328L118.816 15.5629L123.947 18.6761L128.289 22.3554L132.237 26.0346L135.789 29.9969L138.552 34.5252L140.921 39.0535L142.5 43.8648L143.684 48.6761L144.079 53.7705Z" fill="#666666" stroke="black" stroke-width="0.668485"/>
<path d="M144.079 53.7705H124.342L123.158 46.695L120.395 39.9026L116.052 33.9592L109.737 28.8648L102.631 24.3365L94.342 21.2233L84.8683 19.2422L74.9998 18.3931L65.1314 19.2422L55.6577 21.2233L47.3683 24.3365L40.263 28.8648L33.9472 33.9592L29.6051 39.9026L26.842 46.695L25.6577 53.7705H5.9209L6.31564 48.6761L7.49985 43.8648L9.07879 39.0535L11.4472 34.5252L14.2104 29.9969L17.763 26.0346L21.7104 22.3554L26.0525 18.6761L31.1841 15.5629L36.3156 12.7328L41.842 10.1856L48.1577 8.20445L54.4735 6.50634L61.1841 5.37426L67.8946 4.52521L74.9998 4.24219L82.1051 4.52521L88.8156 5.37426L95.5262 6.50634L101.842 8.20445L108.158 10.1856L113.684 12.7328L118.816 15.5629L123.947 18.6761L128.289 22.3554L132.237 26.0346L135.789 29.9969L138.552 34.5252L140.921 39.0535L142.5 43.8648L143.684 48.6761L144.079 53.7705Z" fill="#B2B2B2" stroke="black" stroke-width="0.668485"/>
<path d="M5.9209 96.2266H25.6577L26.842 103.302L29.6051 110.094L33.9472 116.038L40.263 121.132L47.3683 125.661L55.6577 128.774L65.1314 130.755L74.9998 131.604L84.8683 130.755L94.342 128.774L102.631 125.661L109.737 121.132L116.052 116.038L120.395 110.094L123.158 103.302L124.342 96.2266H144.079L143.684 101.321L142.5 106.132L140.921 110.944L138.552 115.472L135.789 120L132.237 123.962L128.289 127.642L123.947 131.321L118.816 134.434L113.684 137.264L108.158 139.811L101.842 141.793L95.5262 143.491L88.8156 144.623L82.1051 145.472L74.9998 145.755L67.8946 145.472L61.1841 144.623L54.4735 143.491L48.1577 141.793L41.842 139.811L36.3156 137.264L31.1841 134.434L26.0525 131.321L21.7104 127.642L17.763 123.962L14.2104 120L11.4472 115.472L9.07879 110.944L7.49985 106.132L6.31564 101.321L5.9209 96.2266Z" fill="#B2B2B2" stroke="black" stroke-width="0.668485"/>
<path d="M78.5526 112.077L80.9211 103.304L82.8947 101.039L85.2632 99.9073H86.0526L98.2895 97.9262L103.026 96.5111L107.763 93.9639L112.105 89.1526L113.289 86.3224L113.684 83.4922L113.289 80.662L110.526 75.0016L104.605 70.7563L96.7105 68.7752L92.7632 68.4922L88.8158 68.7752L81.3158 70.7563L76.1842 74.4356L73.4211 77.8318L72.6316 79.5299L69.8684 88.3035V88.8695L68.2895 90.5677L65.1316 91.9828L52.8947 93.6809L48.1579 95.096L43.8158 97.6431L39.0789 102.737L37.8947 105.285L37.5 108.115L37.8947 110.945L41.0526 116.322L46.9737 120.568L54.4737 122.832L58.4211 123.115L62.3684 122.832L69.8684 120.568L75 117.171L77.7632 113.775L78.5526 112.077Z" fill="#E5E5E5" stroke="black" stroke-width="0.668485"/>
<path d="M78.1579 69.6265L80.5263 61.1359L82.1053 58.8718L85.2632 57.7397L97.1053 56.0416L102.237 54.3435L106.579 52.0793L110.921 46.985L112.105 44.4378L112.5 41.6076L112.105 38.7774L109.342 33.4001L103.421 29.1548L95.9211 27.1736L91.9737 26.8906L88.0263 27.1736L80.5263 29.1548L75.7895 32.551L73.0263 35.9472L71.8421 37.9284L69.4737 46.1359L66.3158 49.2491L64.3421 49.8152L52.5 51.5133L47.7632 53.2114L43.4211 55.4755L39.0789 60.2869L37.8947 63.117L37.5 65.9472L37.8947 68.7774L40.6579 74.1548L46.5789 78.4001L54.0789 80.3812L58.0263 80.6642L61.9737 80.3812L69.4737 78.4001L74.2105 75.0038L76.9737 71.6076L78.1579 69.6265Z" fill="#E5E5E5" stroke="black" stroke-width="0.668485"/>
<path d="M74.9996 58.5836C78.7057 58.5836 81.7101 56.4295 81.7101 53.7723C81.7101 51.115 78.7057 48.9609 74.9996 48.9609C71.2935 48.9609 68.2891 51.115 68.2891 53.7723C68.2891 56.4295 71.2935 58.5836 74.9996 58.5836Z" fill="black"/>
<path d="M75.3951 100.474C79.1012 100.474 82.1056 98.3201 82.1056 95.6629C82.1056 93.0057 79.1012 90.8516 75.3951 90.8516C71.689 90.8516 68.6846 93.0057 68.6846 95.6629C68.6846 98.3201 71.689 100.474 75.3951 100.474Z" fill="black"/>
</svg>
