<svg width="150" height="150" viewBox="0 0 150 150" fill="none" xmlns="http://www.w3.org/2000/svg">
<g clip-path="url(#clip0_2109_229565)">
<path d="M33.3672 113.367H137.641V145.8H33.3672V113.367Z" fill="#666666"/>
<path d="M33.3672 136.49L137.641 122.977V145.799H33.3672V136.49Z" fill="#616161"/>
<path d="M33.3672 137.986L137.641 124.172V145.793H33.3672V137.986Z" fill="#5C5C5C"/>
<path d="M33.3672 139.637L137.641 126.273V145.793H33.3672V139.637Z" fill="#575757"/>
<path d="M33.3672 113.367H137.641V145.8H33.3672V113.367Z" stroke="black" stroke-width="0.304599"/>
<path d="M8.1875 20.4219H33.3677V150.001H8.1875V20.4219Z" fill="#4C4C4C"/>
<path d="M8.1875 25.6719H33.3677V144.14H8.1875V25.6719Z" fill="#545454"/>
<path d="M8.1875 31.3828H33.3677V138.59H8.1875V31.3828Z" fill="#5C5C5C"/>
<path d="M8.1875 37.0859H33.3677V132.882H8.1875V37.0859Z" fill="#636363"/>
<path d="M8.1875 42.7891H33.3677V127.173H8.1875V42.7891Z" fill="#6B6B6B"/>
<path d="M8.1875 48.5H33.3677V121.473H8.1875V48.5Z" fill="#737373"/>
<path d="M8.1875 54.2031H33.3677V115.765H8.1875V54.2031Z" fill="#7A7A7A"/>
<path d="M8.1875 59.9062H33.3677V110.056H8.1875V59.9062Z" fill="#828282"/>
<path d="M8.1875 65.6172H33.3677V104.356H8.1875V65.6172Z" fill="#8A8A8A"/>
<path d="M8.1875 71.3203H33.3677V98.9479H8.1875V71.3203Z" fill="#919191"/>
<path d="M8.1875 80.9297H33.3677V89.0378H8.1875V80.9297Z" fill="#999999"/>
<path d="M8.1875 20.4219H33.3677V150.001H8.1875V20.4219Z" stroke="black" stroke-width="0.304599"/>
<path d="M33.3672 93.2422H116.632V113.362H33.3672V93.2422Z" fill="#333333" stroke="black" stroke-width="0.304599"/>
<path d="M33.3672 105.257H70.5968V20.4219H33.3672V105.257Z" fill="black" stroke="black" stroke-width="0.304599"/>
<path d="M33.3672 145.797H145.983V150.001H33.3672V145.797Z" fill="#7F7F7F" stroke="black" stroke-width="0.304599"/>
<path d="M0 105.258H41.5551V121.474H0V105.258Z" fill="#7F7F7F" stroke="black" stroke-width="0.304599"/>
<path d="M58.2393 101.351L66.5812 93.2424H145.984V52.7019H66.5812L58.2393 44.5938V101.351Z" fill="#4C4C4C"/>
<path d="M58.2393 97.1486L66.5812 90.2417H145.984V55.4069H66.5812L58.2393 48.5V97.1486Z" fill="#595959"/>
<path d="M58.2393 93.2437L66.5812 87.2377H145.984V58.4088H66.5812L58.2393 52.7031V93.2437Z" fill="#666666"/>
<path d="M58.2393 89.0418L66.5812 84.5373H145.984V61.1139H66.5812L58.2393 56.6094V89.0418Z" fill="#737373"/>
<path d="M58.2393 85.1324L66.5812 81.5288H145.984V64.1114H66.5812L58.2393 60.5078V85.1324Z" fill="#7F7F7F"/>
<path d="M58.2393 80.9272L66.5812 78.5248H145.984V67.1133H66.5812L58.2393 64.7109V80.9272Z" fill="#8C8C8C"/>
<path d="M58.2393 77.03L66.5812 75.8288H145.984V69.8228H66.5812L58.2393 68.9219V77.03Z" fill="#999999"/>
<path d="M58.2393 101.351L66.5812 93.2424H145.984V52.7019H66.5812L58.2393 44.5938V101.351Z" stroke="black" stroke-width="0.304599"/>
<path d="M141.658 48.5H145.984V52.7042H141.658V48.5Z" fill="#666666" stroke="black" stroke-width="0.304599"/>
<path d="M137.642 36.4844H150V48.4964H137.642V36.4844Z" fill="#7F7F7F" stroke="black" stroke-width="0.304599"/>
<path d="M137.642 77.0234H145.984V97.1436H137.642V77.0234Z" fill="#B2B2B2" stroke="black" stroke-width="0.304599"/>
<path d="M40.3196 56.3063L33.8314 32.8829L33.5225 16.0661L69.6708 6.75676L128.373 0L137.024 31.0811L40.3196 56.3063Z" fill="#B2B2B2" stroke="black" stroke-width="0.304599"/>
<path d="M33.8311 32.8815L130.535 7.65625L137.024 31.0797L40.3192 56.3049L33.8311 32.8815Z" fill="#333333"/>
<path d="M36.9209 44.5907L133.625 19.5156L134.861 23.2694L38.1567 48.4946L36.9209 44.5907Z" fill="#CCCCCC"/>
<path d="M27.0341 128.53L22.8631 129.431H18.5377L14.0578 128.53L10.5048 126.578L7.26068 123.575L5.25244 119.671L4.0166 115.467V111.263L5.25244 107.359L7.26068 103.455L10.5048 100.452L14.0578 98.3496L18.5377 97.1484H22.8631L27.0341 98.3496L30.7416 100.452L34.2947 103.455L35.9939 107.359L37.2298 111.263V115.467L36.3029 119.671L34.2947 123.575L30.7416 126.578L27.0341 128.53Z" fill="#333333" stroke="black" stroke-width="0.304599"/>
<path d="M20.7004 125.676C27.611 125.676 33.2132 120.231 33.2132 113.514C33.2132 106.797 27.611 101.352 20.7004 101.352C13.7897 101.352 8.1875 106.797 8.1875 113.514C8.1875 120.231 13.7897 125.676 20.7004 125.676Z" fill="#666666"/>
<path d="M33.3672 145.797H145.983" stroke="#CCCCCC" stroke-width="0.304599"/>
</g>
<defs>
<clipPath id="clip0_2109_229565">
<rect width="150" height="150" fill="white"/>
</clipPath>
</defs>
</svg>
