<svg width="150" height="150" viewBox="0 0 150 150" fill="none" xmlns="http://www.w3.org/2000/svg">
<g clip-path="url(#clip0_2109_233816)">
<path d="M115.2 54.1761H150V6.26562H69.5998L64.7998 6.71339L59.9998 7.60891L55.1998 9.39995L50.9998 12.0865L46.7998 14.7731L42.5998 18.3552L38.9998 22.8328L35.6998 27.3104L32.3998 32.2358L29.6998 38.0567L27.2998 43.8776L25.1998 50.1462L23.3998 56.8626L22.1998 63.5791L21.5998 70.7432L21.2998 77.9074L21.5998 85.0716L22.1998 92.2358L23.3998 99.3999L25.1998 106.116L27.2998 112.385L29.6998 118.206L32.3998 123.579L35.6998 128.952L38.9998 133.43L42.5998 137.907L46.7998 141.49L50.9998 144.176L55.1998 146.863L59.9998 148.654L64.7998 149.549L69.5998 149.997L74.3998 149.549L79.1998 148.654L83.9998 146.863L88.1998 144.176L92.3998 141.49L96.5998 137.907L100.2 133.43L103.8 128.952L106.8 123.579L109.5 118.206L111.9 112.385L114 106.116L115.8 99.3999L117 92.2358L117.6 85.0716L117.9 77.9074L117.6 68.9522L116.7 62.6835L115.8 56.8626L115.2 54.1761Z" fill="#7F7F7F" stroke="black" stroke-width="0.733017"/>
<path d="M69.5996 10.2969H150V50.1476H69.5996V10.2969Z" fill="#999999"/>
<path d="M69.5996 15.2266H150V45.2266H69.5996V15.2266Z" fill="#B2B2B2"/>
<path d="M69.5996 19.7031H150V40.7479H69.5996V19.7031Z" fill="#CCCCCC"/>
<path d="M69.5996 23.2812H150V36.7141H69.5996V23.2812Z" fill="#E5E5E5"/>
<path d="M69.5996 27.3125H150V33.1334H69.5996V27.3125Z" fill="white"/>
<path d="M69.6 145.971C94.7842 145.971 115.2 115.5 115.2 77.9113C115.2 40.3229 94.7842 9.85156 69.6 9.85156C44.4158 9.85156 24 40.3229 24 77.9113C24 115.5 44.4158 145.971 69.6 145.971Z" fill="#B2B2B2"/>
<path d="M69.5998 102.09H10.7998V54.1797H69.5998L72.8998 54.6274L75.8998 55.9707L78.5998 58.2095L80.9998 61.3439L83.0998 64.926L84.5998 68.9558L85.4998 73.4334L85.7998 78.3588L85.4998 83.2842L84.5998 87.7618L83.0998 91.7916L80.9998 94.926L78.5998 98.0603L75.8998 100.299L72.8998 101.642L69.5998 102.09Z" fill="#7F7F7F"/>
<path d="M77.3998 98.9543L79.1998 97.1632L80.9998 95.3722L82.1998 92.6856L83.3998 90.4468L84.5998 87.7603L85.1998 84.6259L85.4998 81.4916L85.7998 78.3573L85.4998 75.2229L85.1998 71.6409L84.5998 68.9543L83.3998 65.82L82.1998 63.5812L80.9998 60.8946L79.1998 59.1035L77.3998 57.3125H10.7998V98.9543H77.3998Z" fill="#999999"/>
<path d="M81.5998 94.0332L82.4998 92.2422L83.3998 90.8989L83.9998 88.6601L84.5998 86.8691L85.1998 84.6302L85.4998 82.8392L85.7998 80.6004V78.3616V76.1228L85.4998 73.884L85.1998 72.0929L84.5998 69.8541L83.9998 67.6153L83.3998 65.8243L82.4998 64.0332L81.5998 62.2422H10.7998V94.0332H81.5998Z" fill="#B2B2B2"/>
<path d="M83.9998 89.1044L84.8998 86.4178L85.4998 83.7312L85.7998 81.0447V78.3581V75.2238L85.4998 72.5372L84.8998 69.8506L83.9998 67.1641H10.7998V89.1044H83.9998Z" fill="#CCCCCC"/>
<path d="M84.8998 85.073L85.1998 83.2819L85.4998 81.4909L85.7998 80.1476V78.3566V76.1178L85.4998 74.3267L85.1998 72.0879L84.8998 70.2969H10.7998V85.073H84.8998Z" fill="#E5E5E5"/>
<path d="M85.4998 81.0475L85.7998 80.1519V79.7042V78.8087V78.3609V77.4654V76.5698V76.1221L85.4998 75.2266H10.7998V81.0475H85.4998Z" fill="white"/>
<path d="M10.7998 54.1797H69.5998L72.8998 54.6274L75.8998 55.9707L78.5998 58.2095L80.9998 61.3439L83.0998 64.926L84.5998 68.9558L85.4998 73.4334L85.7998 78.3588L85.4998 83.2842L84.5998 87.7618L83.0998 91.7916L80.9998 94.926L78.5998 98.0603L75.8998 100.299L72.8998 101.642L69.5998 102.09H10.7998" stroke="black" stroke-width="0.733017"/>
<path d="M139.2 0H150V60H139.2V0Z" fill="#7F7F7F"/>
<path d="M139.2 4.03125H150V56.4193H139.2V4.03125Z" fill="#999999"/>
<path d="M139.2 10.2969H150V50.1476H139.2V10.2969Z" fill="#B2B2B2"/>
<path d="M139.2 16.5703H150V43.8837H139.2V16.5703Z" fill="#CCCCCC"/>
<path d="M139.2 21.4922H150V38.9549H139.2V21.4922Z" fill="#E5E5E5"/>
<path d="M139.2 26.4141H150V34.026H139.2V26.4141Z" fill="white"/>
<path d="M139.2 0H150V60H139.2V0Z" stroke="black" stroke-width="0.733017"/>
<path d="M0 48.3594H10.8V108.359H0V48.3594Z" fill="#7F7F7F"/>
<path d="M0 51.9375H10.8V104.326H0V51.9375Z" fill="#999999"/>
<path d="M0 58.2109H10.8V98.0617H0V58.2109Z" fill="#B2B2B2"/>
<path d="M0 64.4766H10.8V91.79H0V64.4766Z" fill="#CCCCCC"/>
<path d="M0 69.4062H10.8V86.8689H0V69.4062Z" fill="#E5E5E5"/>
<path d="M0 74.3281H10.8V81.9401H0V74.3281Z" fill="white"/>
<path d="M0 48.3594H10.8V108.359H0V48.3594Z" stroke="black" stroke-width="0.733017"/>
</g>
<defs>
<clipPath id="clip0_2109_233816">
<rect width="150" height="150" fill="white"/>
</clipPath>
</defs>
</svg>
