<svg width="150" height="150" viewBox="0 0 150 150" fill="none" xmlns="http://www.w3.org/2000/svg">
<g clip-path="url(#clip0_2109_229991)">
<path d="M121.772 0V33.1602H106.757V0H121.772Z" fill="black"/>
<path d="M120.87 0V33.1602H107.657V0H120.87Z" fill="#191919"/>
<path d="M119.369 0V33.1602H109.159V0H119.369Z" fill="#333333"/>
<path d="M117.568 0V33.1602H110.661V0H117.568Z" fill="#4C4C4C"/>
<path d="M116.367 0V33.1602H111.862V0H116.367Z" fill="#666666"/>
<path d="M115.165 0V33.1602H113.363V0H115.165Z" fill="#7F7F7F"/>
<path d="M121.772 0V33.1602H106.757V0H121.772Z" stroke="black" stroke-width="0.365602"/>
<path d="M104.955 16.6875L108.559 22.0287V33.1563H127.478L131.081 50.0703H150V66.5391H131.081L127.478 83.2305H108.559V94.3581L104.955 99.6994V16.6875Z" fill="black"/>
<path d="M104.955 22.0312L108.559 26.9274V36.7197H127.478L131.382 50.963H150V64.7612H131.382L127.478 79.2271H108.559V88.5743L104.955 93.4704V22.0312Z" fill="#141414"/>
<path d="M104.955 27.8203L108.559 31.8262V39.8381H127.478L131.382 51.8559H150V63.4286H131.382L127.478 75.0013H108.559V83.2357L104.955 86.7966V27.8203Z" fill="#2B2B2B"/>
<path d="M104.955 33.1641L108.559 36.2798V42.9563H127.478L131.382 52.3035H150V61.6507H131.382L127.478 70.7753H108.559V77.4519L104.955 80.7902V33.1641Z" fill="#404040"/>
<path d="M104.955 38.9453L108.559 41.1708V46.5121H127.478L131.382 53.1886H150V59.8652H131.382L127.478 66.9869H108.559V71.6604L104.955 74.1085V38.9453Z" fill="#545454"/>
<path d="M104.955 44.2891L108.559 46.0695V49.6303H127.478L131.382 54.0813H150V58.0873H131.382L127.478 62.5383H108.559V66.0992L104.955 67.8796V44.2891Z" fill="#6B6B6B"/>
<path d="M104.955 50.0703L108.559 50.5154V52.7409H127.478L131.081 54.9665H150V56.3018H131.081L127.478 58.0822H108.559V60.3077L104.955 61.1979V50.0703Z" fill="#7F7F7F"/>
<path d="M104.955 16.6875L108.559 22.0287V33.1563H127.478L131.081 50.0703H150V66.5391H131.081L127.478 83.2305H108.559V94.3581L104.955 99.6994V16.6875Z" stroke="black" stroke-width="0.365602"/>
<path d="M0 16.6875H104.955V149.996H0V16.6875Z" fill="#CCCCCC"/>
<path d="M0 20.25H104.955V76.5556H0V20.25Z" fill="#D4D4D4"/>
<path d="M0 23.8125H104.955V70.1033H0V23.8125Z" fill="#DEDEDE"/>
<path d="M0 27.375H104.955V63.8735H0V27.375Z" fill="#E5E5E5"/>
<path d="M0 31.3828H104.955V57.1988H0V31.3828Z" fill="#EDEDED"/>
<path d="M0 34.9375H104.955V50.5161H0V34.9375Z" fill="#F7F7F7"/>
<path d="M0 38.5H104.955V44.2864H0V38.5Z" fill="white"/>
<path d="M15.7661 143.771L14.8652 141.101L15.7661 138.875H17.8682L18.7691 141.101L17.8682 143.771H15.7661Z" fill="#7F7F7F"/>
<path d="M87.0874 143.771L86.1865 141.101L87.0874 138.875H88.8892L89.7901 141.101L88.8892 143.771H87.0874Z" fill="#7F7F7F"/>
<path d="M73.874 16.6875H92.7929V50.0703H73.874V16.6875Z" fill="#99CCCC" stroke="#CCCCCC" stroke-width="0.365602"/>
<path d="M75.6758 16.6875H90.9911V50.0703H75.6758V16.6875Z" fill="white"/>
<path d="M94.5947 16.6875H102.102V31.821H94.5947V16.6875Z" fill="white" stroke="#CCCCCC" stroke-width="0.365602"/>
<path d="M0 16.6875H104.955V149.996H0V16.6875Z" stroke="black" stroke-width="0.365602"/>
</g>
<defs>
<clipPath id="clip0_2109_229991">
<rect width="150" height="150" fill="white"/>
</clipPath>
</defs>
</svg>
