<svg width="150" height="150" viewBox="0 0 150 150" fill="none" xmlns="http://www.w3.org/2000/svg">
<path d="M38.5889 43.0625H40.8411V72.9895H38.5889V43.0625Z" fill="black"/>
<path d="M10.0605 95.6174V87.9531H31.532V95.6174H10.0605Z" fill="black"/>
<path d="M71.7715 90.1449V48.5391H74.9246V90.1449H71.7715Z" fill="black"/>
<path d="M0.600586 125.547H149.099V148.175H0.600586V125.547Z" fill="#CCCCCC" stroke="black" stroke-width="0.468185"/>
<path d="M74.9248 43.0651H95.0449L96.5464 33.576H102.703L104.354 43.0651H102.703L101.952 35.4008H97.2972L96.5464 43.0651H105.856V28.1016H136.787V61.6782H144.444V35.4008H149.099V103.284H144.444V76.6417H136.787V110.583H105.856V95.6198H74.9248V43.0651Z" fill="#7F7F7F"/>
<path d="M74.9248 47.8094H105.856V35.7656H136.787V63.1379H144.594V41.97H149.249V96.3496H144.594V75.1817H136.787V102.554H105.856V90.5102H74.9248V47.8094Z" fill="#999999"/>
<path d="M74.9248 52.921H105.856V43.7969H136.787V64.5998H144.594V48.1764H149.249V90.1472H144.594V73.7239H136.787V94.5268H127.477V125.549H115.165V94.5268H105.856V85.4027H74.9248V52.921Z" fill="#B2B2B2"/>
<path d="M74.9248 58.0325H105.856V51.8281H136.787V66.0617H144.594V54.7478H149.249V83.58H144.594V72.2661H136.787V86.4997H105.856V80.2953H101.201V105.113H103.453V112.412H77.1771V105.113H79.5795V80.2953H74.9248V58.0325Z" fill="#CCCCCC"/>
<path d="M74.9248 63.1362H105.856V59.8516H136.787V67.5158H144.444V61.3114H149.099V77.0048H144.444V70.8005H136.787V78.8297H105.856V75.18H74.9248V63.1362Z" fill="#E5E5E5"/>
<path d="M74.9248 43.0651H95.0449L96.5464 33.576H102.703L104.354 43.0651H105.856V28.1016H136.787V61.6782H144.444V35.4008H149.099V103.284H144.444V76.6417H136.787V110.583H127.477V125.547H115.165V110.583H105.856V95.6198H101.201V105.109H103.453V112.408H77.1771V105.109H79.5795V95.6198H74.9248V43.0651Z" stroke="black" stroke-width="0.468185"/>
<path d="M84.2344 125.547V105.109H87.2374V125.547H84.2344Z" fill="#E5E5E5" stroke="black" stroke-width="0.468185"/>
<path d="M79.5801 106.938H81.0816V110.587H79.5801V106.938Z" fill="black"/>
<path d="M99.6992 106.938H101.201V110.587H99.6992V106.938Z" fill="black"/>
<path d="M89.6396 106.938H91.1411V110.587H89.6396V106.938Z" fill="black"/>
<path d="M84.9854 106.938H86.4869V110.587H84.9854V106.938Z" fill="#999999"/>
<path d="M96.5469 43.0627L97.2976 35.3984H101.952L102.703 43.0627H96.5469Z" stroke="black" stroke-width="0.468185"/>
<path d="M139.94 1.46094V9.12517H130.18V28.1033H124.774V9.12517H115.015V1.46094H139.94Z" fill="#7F7F7F"/>
<path d="M137.537 1.46094V9.12517H129.73V28.1033H125.375V9.12517H117.567V1.46094H137.537Z" fill="#999999"/>
<path d="M135.135 1.46094V9.12517H129.279V28.1033H125.826V9.12517H119.97V1.46094H135.135Z" fill="#B2B2B2"/>
<path d="M132.732 1.46094V9.12517H128.678V28.1033H126.426V9.12517H122.372V1.46094H132.732Z" fill="#CCCCCC"/>
<path d="M130.18 1.46094V9.12517H128.078V28.1033H126.877V9.12517H124.774V1.46094H130.18Z" fill="#E5E5E5"/>
<path d="M139.94 1.46094V9.12517H130.18V28.1033H124.774V9.12517H115.015V1.46094H139.94Z" stroke="black" stroke-width="0.468185"/>
<path d="M105.855 95.6172V43.0625" stroke="black" stroke-width="0.468185"/>
<path d="M136.787 76.6432V61.6797" stroke="black" stroke-width="0.468185"/>
<path d="M144.444 76.6432V61.6797" stroke="black" stroke-width="0.468185"/>
<path d="M124.774 9.125H130.18" stroke="black" stroke-width="0.468185"/>
<path d="M84.2344 121.898H87.2374" stroke="black" stroke-width="0.468185"/>
<path d="M115.165 121.898H127.477" stroke="black" stroke-width="0.468185"/>
<path d="M121.321 50.3619V35.3984H132.132V50.3619H121.321Z" fill="#B2B2B2" stroke="black" stroke-width="0.468185"/>
<path d="M107.357 63.8675V48.5391H110.511V63.8675H107.357Z" fill="#B2B2B2" stroke="black" stroke-width="0.468185"/>
<path d="M112.012 110.583V80.6562" stroke="#666666" stroke-width="0.468185"/>
<path d="M112.012 58.0286V28.1016" stroke="#666666" stroke-width="0.468185"/>
<path d="M119.82 118.25H122.823V121.9H119.82V118.25Z" fill="#7F7F7F"/>
<path d="M40.8408 125.544V35.3984H71.7718V125.544H40.8408Z" fill="#B2B2B2"/>
<path d="M40.8408 82.4787V35.3984H71.7718V82.4787H40.8408Z" fill="#BFBFBF"/>
<path d="M40.8408 59.851V35.3984H71.7718V59.851H40.8408Z" fill="#CCCCCC"/>
<path d="M40.8408 48.5415V41.2422H71.7718V48.5415H40.8408Z" fill="#E5E5E5"/>
<path d="M40.8408 125.544V35.3984H71.7718V125.544H40.8408Z" stroke="black" stroke-width="0.468185"/>
<path d="M34.6847 87.9556H6.90689L0.600586 84.3059V31.7512L6.90689 28.1016H34.6847V33.576L38.5886 39.4154V76.6417L34.6847 82.4811V87.9556Z" fill="#7F7F7F"/>
<path d="M34.8351 81.7555H6.90713L0.750977 78.8358V36.865L6.90713 33.9453H34.8351V38.3249L38.5888 43.0694V72.9964L34.8351 77.376V81.7555Z" fill="#999999"/>
<path d="M34.8351 75.9149H6.90713L0.750977 73.7251V42.3382L6.90713 40.1484H34.8351V43.4331L38.5888 46.7178V68.9806L34.8351 72.6302V75.9149Z" fill="#B2B2B2"/>
<path d="M34.8351 69.707H6.90713L0.750977 68.2471V47.8092L6.90713 45.9844H34.8351V48.5391L38.5888 50.7289V65.3274L34.8351 67.5172V69.707Z" fill="#CCCCCC"/>
<path d="M34.6847 63.8686H6.90689L0.600586 63.1386V53.2846L6.90689 52.5547H34.6847V53.2846L38.5886 54.3795V61.6788L34.6847 62.7737V63.8686Z" fill="#E5E5E5"/>
<path d="M34.6847 87.9556H6.90689L0.600586 84.3059V31.7512L6.90689 28.1016H34.6847V33.576L38.5886 39.4154V76.6417L34.6847 82.4811V87.9556Z" stroke="black" stroke-width="0.468185"/>
<path d="M9.91016 125.544V95.6172H31.5318V125.544H9.91016Z" fill="#B2B2B2" stroke="black" stroke-width="0.468185"/>
<path d="M11.5615 95.6201V65.3281H22.3723V95.6201H11.5615Z" fill="#B2B2B2" stroke="black" stroke-width="0.468185"/>
<path d="M13.0635 91.9715V69.3438H20.7211" stroke="white" stroke-width="0.468185"/>
<path d="M12.3125 91.9688H13.0633V93.7936H12.3125V91.9688Z" fill="black"/>
<path d="M20.7207 91.9688H21.6216V93.7936H20.7207V91.9688Z" fill="black"/>
<path d="M20.7207 67.5156H21.6216V69.3404H20.7207V67.5156Z" fill="black"/>
<path d="M12.3125 67.5156H13.0633V69.3404H12.3125V67.5156Z" fill="black"/>
<path d="M34.6846 82.4832V33.5781" stroke="black" stroke-width="0.468185"/>
<path d="M9.91016 28.1016H33.1834V59.8534H9.91016V28.1016Z" fill="#4C4C4C"/>
<path d="M9.91016 50.3672H33.9342V52.557H9.91016V50.3672Z" fill="#CCCCCC"/>
<path d="M9.91016 56.2031H33.9342V58.0279H9.91016V56.2031Z" fill="#CCCCCC"/>
<path d="M9.91016 39.4141H33.9342V41.2389H9.91016V39.4141Z" fill="#B2B2B2"/>
<path d="M9.91016 44.8906H33.9342V46.7154H9.91016V44.8906Z" fill="#B2B2B2"/>
<path d="M9.91016 35.3984H33.9342V37.2233H9.91016V35.3984Z" fill="#999999"/>
<path d="M9.91016 31.75H33.9342V33.5748H9.91016V31.75Z" fill="#999999"/>
<path d="M9.91016 28.1016H33.9342V29.9264H9.91016V28.1016Z" fill="#999999"/>
</svg>
