<svg width="150" height="150" viewBox="0 0 150 150" fill="none" xmlns="http://www.w3.org/2000/svg">
<g clip-path="url(#clip0_2109_234002)">
<path d="M0 4.46094H150V23.2403H0V4.46094Z" fill="#CCCCCC" stroke="black" stroke-width="0.375481"/>
<path d="M0 117.133H150V135.912H0V117.133Z" fill="#F2F2F2" stroke="black" stroke-width="0.375481"/>
<path d="M0 93.6641H150V107.749H0V93.6641Z" fill="#A6A6A6" stroke="black" stroke-width="0.375481"/>
<path d="M0 32.6328H150V46.7173H0V32.6328Z" fill="#A6A6A6" stroke="black" stroke-width="0.375481"/>
<path d="M3.00293 27.9375H146.847V112.445H3.00293V27.9375Z" fill="#D9D9D9"/>
<path d="M3.00293 32.6328H146.847V107.75H3.00293V32.6328Z" fill="#F2F2F2"/>
<path d="M3.00293 46.7109H146.847V93.6593H3.00293V46.7109Z" fill="white"/>
<path d="M3.00293 27.9375H146.847V112.445H3.00293V27.9375Z" stroke="black" stroke-width="0.375481"/>
<path d="M3.00293 27.9343H146.847V0H3.00293V27.9343Z" fill="#D9D9D9"/>
<path d="M3.00293 26.5267H146.847V4.46094H3.00293V26.5267Z" fill="#F2F2F2"/>
<path d="M3.00293 21.8328H146.847V13.8516H3.00293V21.8328Z" fill="white"/>
<path d="M3.00293 27.9343H146.847V0H3.00293V27.9343Z" stroke="black" stroke-width="0.375481"/>
<path d="M3.00293 140.607H146.847V112.438H3.00293V140.607Z" fill="#D9D9D9"/>
<path d="M3.00293 135.917H146.847V114.086H3.00293V135.917Z" fill="#F2F2F2"/>
<path d="M3.00293 126.528H146.847V118.547H3.00293V126.528Z" fill="white"/>
<path d="M3.00293 140.607H146.847V112.438H3.00293V140.607Z" stroke="black" stroke-width="0.375481"/>
<path d="M119.97 27.9375H30.0303V112.445H119.97V27.9375Z" fill="#737373"/>
<path d="M119.97 32.6328H30.0303V107.75H119.97V32.6328Z" fill="#8C8C8C"/>
<path d="M119.97 46.7109H30.0303V93.6593H119.97V46.7109Z" fill="#999999"/>
<path d="M119.97 27.9375H30.0303V112.445H119.97V27.9375Z" stroke="black" stroke-width="0.375481"/>
<path d="M119.97 27.9343H30.0303V0H119.97V27.9343Z" fill="#737373"/>
<path d="M119.97 26.5267H30.0303V4.46094H119.97V26.5267Z" fill="#8C8C8C"/>
<path d="M119.97 21.8328H30.0303V13.8516H119.97V21.8328Z" fill="#999999"/>
<path d="M119.97 27.9343H30.0303V0H119.97V27.9343Z" stroke="black" stroke-width="0.375481"/>
<path d="M119.97 140.607H30.0303V112.438H119.97V140.607Z" fill="#737373"/>
<path d="M119.97 135.917H30.0303V114.086H119.97V135.917Z" fill="#8C8C8C"/>
<path d="M119.97 126.528H30.0303V118.547H119.97V126.528Z" fill="#999999"/>
<path d="M119.97 140.607H30.0303V112.438H119.97V140.607Z" stroke="black" stroke-width="0.375481"/>
<path d="M74.9254 107.75C88.1935 107.75 98.9494 90.9346 98.9494 70.1915C98.9494 49.4484 88.1935 32.6328 74.9254 32.6328C61.6573 32.6328 50.9014 49.4484 50.9014 70.1915C50.9014 90.9346 61.6573 107.75 74.9254 107.75Z" fill="#4C4C4C" stroke="black" stroke-width="0.375481"/>
<path d="M95.6461 88.9649L97.4479 82.3922L98.499 75.1152L98.6491 72.533L98.7993 71.3593V70.1856L98.1987 62.6739L96.8473 55.6316L95.9464 52.3452L95.6461 51.4062H54.0545L52.2527 57.979L51.2017 65.256L51.0515 67.6034L50.9014 69.0119V70.1856L51.3518 77.4626L52.7032 84.5048L54.0545 88.9649H95.6461Z" fill="#666666" stroke="black" stroke-width="0.375481"/>
<path d="M91.8919 43.6641L93.3934 46.2462L94.8949 49.2979L96.0961 52.5843L96.997 55.8706L97.8979 59.3918L98.4985 62.9129L98.7988 66.434L98.949 70.1899L98.7988 73.9458L98.4985 77.7016L97.7478 81.2227L96.997 84.7439L95.946 88.0303L94.7448 91.0819L93.3934 94.1335L91.8919 96.7157L90.2403 99.0631L88.2883 101.176L86.3364 103.054L84.2343 104.697L81.982 105.871L79.7298 107.044L77.3274 107.514L74.925 107.749L72.5226 107.514L70.2703 107.044L68.0181 106.105L65.7658 104.697L63.6637 103.288L61.5616 101.411L59.6097 99.0631L57.958 96.7157" stroke="white" stroke-width="0.375481"/>
<path d="M74.925 79.5762C78.242 79.5762 80.931 75.3723 80.931 70.1865C80.931 65.0008 78.242 60.7969 74.925 60.7969C71.6079 60.7969 68.9189 65.0008 68.9189 70.1865C68.9189 75.3723 71.6079 79.5762 74.925 79.5762Z" fill="#CCCCCC" stroke="black" stroke-width="0.375481"/>
<path d="M74.9251 76.2932C77.1641 76.2932 78.9792 73.4556 78.9792 69.9552C78.9792 66.4548 77.1641 63.6172 74.9251 63.6172C72.6862 63.6172 70.8711 66.4548 70.8711 69.9552C70.8711 73.4556 72.6862 76.2932 74.9251 76.2932Z" fill="black" stroke="black" stroke-width="0.375481"/>
<path d="M3.00293 145.305H30.03V150H3.00293V145.305Z" fill="#F2F2F2" stroke="black" stroke-width="0.375481"/>
<path d="M12.0117 140.609H30.0297V145.304H12.0117V140.609Z" fill="#7F7F7F" stroke="black" stroke-width="0.375481"/>
<path d="M119.82 145.305H146.847V150H119.82V145.305Z" fill="#F2F2F2" stroke="black" stroke-width="0.375481"/>
<path d="M119.97 140.609H137.988V145.304H119.97V140.609Z" fill="#7F7F7F" stroke="black" stroke-width="0.375481"/>
</g>
<defs>
<clipPath id="clip0_2109_234002">
<rect width="150" height="150" fill="white"/>
</clipPath>
</defs>
</svg>
