<svg width="150" height="150" viewBox="0 0 150 150" fill="none" xmlns="http://www.w3.org/2000/svg">
<g clip-path="url(#clip0_2109_233549)">
<path d="M7.73833 97.8989L3.12802 72.9739L1.48147 46.998L0.658203 19.9709V0.601562H50.7131V42.9439L56.1467 38.4394L66.5199 33.4844L77.7164 30.4814L89.5715 29.2802L101.591 30.4814L112.788 33.4844L122.667 38.4394L131.394 45.1962L138.803 53.004L144.237 62.4634L147.859 72.6736L149.176 83.6346L147.859 94.5956L144.237 104.656L138.803 113.815L131.394 121.623L122.667 128.379L112.788 133.334L101.591 136.788L90.0654 139.34L75.5759 139.04L61.9096 137.088L43.633 131.082L27.9908 122.824L17.2883 111.112L7.73833 97.8989Z" fill="#43A143" stroke="black" stroke-width="0.31447"/>
<path d="M147.859 74.9219L110.647 134.081L112.788 133.33L122.667 128.375L131.394 121.619L138.803 113.811L144.237 104.652L147.859 94.5915L149.177 83.6306L147.859 74.9219Z" fill="#217F21"/>
<path d="M89.5716 34.9844L100.274 36.0354L110.318 38.7381L119.374 43.2426L127.277 49.2486L133.37 56.4558L138.474 64.7141L141.602 73.7231L142.426 83.633L141.602 93.3928L138.474 102.402L133.37 110.66L127.277 117.867L119.374 123.573L110.318 128.077L100.274 131.08L89.5716 131.831L78.8691 131.08L68.9898 128.077L59.9338 123.573L52.0304 117.867L45.2796 110.66L40.5046 102.402L37.5409 93.3928L36.2236 83.633L37.5409 73.7231L40.5046 64.7141L45.2796 56.4558L52.0304 49.2486L59.9338 43.2426L68.9898 38.7381L78.8691 36.0354L89.5716 34.9844Z" stroke="black" stroke-width="0.31447"/>
<path d="M118.551 87.6872L134.687 78.9785L139.956 69.2188L141.603 73.7233L142.426 83.6332L141.603 93.3929L138.474 102.402L133.37 110.36L127.278 117.867L119.045 123.573L110.319 128.078L100.275 131.081L89.5721 131.831L78.8696 131.081L68.9904 128.078L65.6973 126.576L111.471 106.156L118.551 87.6872Z" fill="#217F21"/>
<path d="M89.5723 48.1953L97.4757 48.9461L104.391 50.7479L111.142 54.2013L116.905 58.4055L121.351 63.6608L125.138 69.6668L127.607 76.4235L128.431 83.6307L127.607 90.6878L125.138 97.1443L121.351 103.15L116.905 108.556L111.142 112.61L104.391 116.063L97.4757 118.315L89.5723 119.066L81.6689 118.315L74.2594 116.063L67.6733 112.61L61.9104 108.556L57.3 103.15L53.6776 97.1443L51.5371 90.6878L50.7139 83.6307L51.5371 76.4235L53.6776 69.6668L57.3 63.6608L61.9104 58.4055L67.6733 54.2013L74.2594 50.7479L81.6689 48.9461L89.5723 48.1953Z" stroke="black" stroke-width="0.31447"/>
<path d="M89.572 108.105C104.395 108.105 116.411 97.1476 116.411 83.6307C116.411 70.1138 104.395 59.1562 89.572 59.1562C74.7495 59.1562 62.7334 70.1138 62.7334 83.6307C62.7334 97.1476 74.7495 108.105 89.572 108.105Z" fill="#F0F0F0"/>
<path d="M41.3281 63.2142L45.2798 56.4574L52.0306 49.2502L59.9341 43.2442L68.99 38.7397L75.5762 36.9379L82.6563 29.7307L77.7167 30.4814L66.5202 33.4844L56.147 38.4394L50.7134 42.9439V0.601562H41.3281V63.2142Z" fill="#217F21" stroke="black" stroke-width="0.31447"/>
<path d="M103.732 84.6875H116.081V122.075H105.708L89.2427 117.57L73.1066 122.075H62.7334V84.6875H75.0825V91.144L82.1626 97.6004H96.1582L103.732 91.144V84.6875Z" fill="#217F21" stroke="black" stroke-width="0.31447"/>
<path d="M55.6533 122.07H121.021V146.545H55.6533V122.07Z" fill="#217F21" stroke="black" stroke-width="0.31447"/>
<path d="M89.4073 105.402C102.775 105.402 113.611 95.52 113.611 83.3299C113.611 71.1398 102.775 61.2578 89.4073 61.2578C76.0397 61.2578 65.2031 71.1398 65.2031 83.3299C65.2031 95.52 76.0397 105.402 89.4073 105.402Z" fill="#217F21"/>
<path d="M89.5716 95.9484C97.1193 95.9484 103.238 90.3687 103.238 83.4859C103.238 76.6031 97.1193 71.0234 89.5716 71.0234C82.0239 71.0234 75.9053 76.6031 75.9053 83.4859C75.9053 90.3687 82.0239 95.9484 89.5716 95.9484Z" fill="#82E082" stroke="black" stroke-width="0.31447"/>
<path d="M89.5714 74.9219L92.8645 75.6726L96.1576 77.6246L97.8041 80.1771L98.6274 83.6306L97.8041 86.6336L96.1576 89.6366L92.8645 91.1381L89.5714 91.8888L85.949 91.1381L82.9853 89.6366L80.8448 86.6336L80.0215 83.6306L80.8448 80.1771L82.9853 77.6246L85.949 75.6726L89.5714 74.9219Z" fill="#B2B2B2" stroke="black" stroke-width="0.31447"/>
<path d="M89.5717 77.1797L92.0415 77.6301L94.5114 78.9815L95.8286 80.9334L96.1579 83.6361L95.8286 85.8884L94.5114 88.1406L92.0415 89.1917L89.5717 89.6421L86.608 89.1917L84.6321 88.1406L82.9856 85.8884L82.6562 83.6361L82.9856 80.9334L84.6321 78.9815L86.608 77.6301L89.5717 77.1797Z" fill="#E5E5E5" stroke="black" stroke-width="0.31447"/>
<path d="M147.86 90.3895L147.366 92.3414L127.607 90.3895L128.101 88.4375L147.86 90.3895Z" fill="#43A143"/>
<path d="M134.193 118.321L133.04 119.823L117.728 107.66L119.045 106.609L134.193 118.321Z" fill="#43A143"/>
<path d="M97.4757 48.9453L98.6283 49.2456L96.1584 59.9063L95.0059 59.4558L97.4757 48.9453Z" fill="#82E082"/>
<path d="M75.5762 50.4505L76.7288 50L80.5158 60.2102L79.1986 60.6607L75.5762 50.4505Z" fill="#82E082"/>
<path d="M58.6172 62.4617L59.4405 61.7109L68.4964 68.1674L67.6732 68.9181L58.6172 62.4617Z" fill="#82E082"/>
<path d="M51.207 80.9339V79.8828L62.7328 80.9339V82.1351L51.207 80.9339Z" fill="#82E082"/>
<path d="M55.6535 100.153L55.3242 99.1019L62.7337 95.6484V96.8496L55.6535 100.153Z" fill="#82E082"/>
<path d="M125.631 95.6436L125.137 96.8448L115.587 93.8418L116.41 92.6406L125.631 95.6436Z" fill="#82E082"/>
<path d="M127.278 76.125L127.607 77.1761L116.081 79.4283V78.3773L127.278 76.125Z" fill="#82E082"/>
<path d="M116.904 58.4062L117.728 59.4573L109.001 66.9648L108.178 65.9138L116.904 58.4062Z" fill="#82E082"/>
<path d="M142.426 60.9609L143.414 62.4624L125.631 69.9699L124.808 68.4684L142.426 60.9609Z" fill="#82E082"/>
<path d="M120.691 38.4375L122.173 39.1883L111.471 54.2033L109.824 53.4525L120.691 38.4375Z" fill="#82E082"/>
<path d="M88.4189 30.0312H90.3948V49.2505H88.4189V30.0312Z" fill="#82E082"/>
<path d="M56.9707 39.1883L58.6172 38.4375L69.8137 54.2033L67.6732 55.2543L56.9707 39.1883Z" fill="#82E082"/>
<path d="M40.834 64.7159L41.6573 62.9141L54.5003 68.1693L53.677 69.9711L40.834 64.7159Z" fill="#82E082"/>
<path d="M37.0469 91.4439V89.6421L51.2071 88.1406V89.9424L37.0469 91.4439Z" fill="#82E082"/>
<path d="M50.3846 116.066L49.0674 114.565L59.4406 106.156L61.0871 107.357L50.3846 116.066Z" fill="#82E082"/>
<path d="M3.62207 1.05469H25.1918L25.5211 69.6733L25.8504 92.346L30.9547 105.409L35.8943 116.07L42.4805 124.328L30.9547 121.325L19.7582 109.313L11.0315 96.4L5.76258 62.9165L3.62207 1.05469Z" fill="#82E082"/>
<path d="M46.2678 111.114L45.2798 110.364L44.4566 109.312L29.6377 120.874L31.2842 122.376L46.2678 111.114Z" fill="#82E082" stroke="black" stroke-width="0.31447"/>
<path d="M38.3648 96.3984L39.1881 98.3504L18.4416 108.11L17.2891 106.158L38.3648 96.3984Z" fill="#82E082" stroke="black" stroke-width="0.31447"/>
<path d="M37.0469 77.625L36.7175 79.8773L10.2082 85.4328L9.87891 83.631L37.0469 77.625Z" fill="#82E082" stroke="black" stroke-width="0.31447"/>
<path d="M43.3037 60.2109L42.1511 62.4632L6.0918 65.1659V62.9136L43.3037 60.2109Z" fill="#82E082" stroke="black" stroke-width="0.31447"/>
<path d="M6.58594 47.7464L44.4564 46.6953V48.9476L6.58594 49.9986V47.7464Z" fill="#82E082" stroke="black" stroke-width="0.31447"/>
<path d="M6.58594 33.0312H44.4564V35.2835H6.58594V33.0312Z" fill="#82E082" stroke="black" stroke-width="0.31447"/>
<path d="M6.58594 16.0625H44.4564V18.3148H6.58594V16.0625Z" fill="#82E082" stroke="black" stroke-width="0.31447"/>
<path d="M6.58594 2.10156H44.4564V4.50396H6.58594V2.10156Z" fill="#82E082" stroke="black" stroke-width="0.31447"/>
<path d="M139.133 107.659H141.274L142.097 106.158L141.274 104.656H139.133L138.475 106.158L139.133 107.659Z" fill="#7F7F7F" stroke="black" stroke-width="0.31447"/>
<path d="M122.174 125.828H123.82L125.138 124.627L123.82 123.125H122.174L121.351 124.627L122.174 125.828Z" fill="#7F7F7F" stroke="black" stroke-width="0.31447"/>
<path d="M47.9141 149.25H70.1424V146.547H47.9141V149.25Z" fill="black"/>
<path d="M106.531 149.25H129.254V146.547H106.531V149.25Z" fill="black"/>
<path d="M74.2592 125.078H102.415L114.764 134.387L102.415 143.547H74.2592L61.9102 134.387L74.2592 125.078Z" fill="black"/>
<path d="M122.997 125.377C123.452 125.377 123.82 125.04 123.82 124.626C123.82 124.211 123.452 123.875 122.997 123.875C122.542 123.875 122.174 124.211 122.174 124.626C122.174 125.04 122.542 125.377 122.997 125.377Z" fill="black"/>
<path d="M140.45 105.406L140.78 105.857L141.273 106.157L140.78 106.607L140.45 106.908H139.956L139.627 106.607V106.157V105.857L139.956 105.406H140.45Z" fill="black"/>
<path d="M85.9492 78.9766H86.2785V79.427L85.9492 78.9766Z" fill="black"/>
<path d="M83.8086 81.6797H84.3026V82.1301L83.8086 81.6797Z" fill="black"/>
<path d="M85.9492 87.6909V87.3906H86.2785V87.6909H85.9492Z" fill="black"/>
<path d="M89.2422 88.888V88.4375H89.5715V88.888H89.2422Z" fill="black"/>
<path d="M92.8654 87.6909H92.5361V87.3906H92.8654V87.6909Z" fill="black"/>
<path d="M95.0057 85.1328V85.4331H94.5117V85.1328H95.0057Z" fill="black"/>
<path d="M95.0057 81.6797V82.1301H94.5117V81.6797H95.0057Z" fill="black"/>
<path d="M92.8654 78.9766V79.427H92.5361V78.9766H92.8654Z" fill="black"/>
<path d="M82.6562 74.9219H82.9856V75.3723H83.4795L82.9856 75.6726H82.6562V75.3723V74.9219Z" fill="black"/>
<path d="M78.375 80.1831L78.869 79.8828V80.6336H78.375V80.1831Z" fill="black"/>
<path d="M78.375 86.638L79.1983 86.1875V86.638L78.869 86.9383L78.375 86.638Z" fill="black"/>
<path d="M82.6562 91.8958V91.4453H82.9856V91.8958H82.6562Z" fill="black"/>
<path d="M89.243 72.9766H89.5723V73.427L89.243 73.7273V73.427H88.749L89.243 72.9766Z" fill="black"/>
<path d="M89.243 94.1414L88.749 93.3906H89.243H89.5723L89.243 94.1414Z" fill="black"/>
<path d="M96.1582 91.8958L95.8289 92.3462L95.335 91.8958V91.4453H95.8289H96.1582V91.8958Z" fill="black"/>
<path d="M100.274 86.6328V86.9331H99.9451H99.4512V86.6328H100.274Z" fill="black"/>
<path d="M100.274 80.1797V80.6301L99.9451 80.9304L99.4512 80.6301L99.9451 80.1797H100.274Z" fill="black"/>
<path d="M96.1584 74.9219V75.3723H96.6524L96.1584 75.6726H95.8291V75.3723L96.1584 74.9219Z" fill="black"/>
<path d="M103.238 82.8828V83.6336L102.909 84.6846H118.057V82.8828H103.238Z" fill="#005E00" stroke="black" stroke-width="0.31447"/>
<path d="M75.9056 84.6846V83.6336V82.8828H60.5928V84.6846H75.9056Z" fill="#005E00" stroke="black" stroke-width="0.31447"/>
<path d="M64.3799 84.6875H65.6971V86.189H64.3799V84.6875Z" fill="#7F7F7F"/>
<path d="M62.7334 84.6875H63.5567V86.189H62.7334V84.6875Z" fill="#7F7F7F"/>
<path d="M62.7334 81.3828H63.5567V82.8843H62.7334V81.3828Z" fill="#7F7F7F"/>
<path d="M64.3799 81.3828H65.6971V82.8843H64.3799V81.3828Z" fill="#7F7F7F"/>
<path d="M114.764 81.3828H115.587V82.8843H114.764V81.3828Z" fill="#7F7F7F"/>
<path d="M112.788 81.3828H113.941V82.8843H112.788V81.3828Z" fill="#7F7F7F"/>
<path d="M112.788 84.6875H113.941V86.189H112.788V84.6875Z" fill="#7F7F7F"/>
<path d="M114.764 84.6875H115.587V86.189H114.764V84.6875Z" fill="#7F7F7F"/>
<path d="M121.021 78.6768H122.173L122.997 77.9261L122.173 76.875H121.021L120.691 77.9261L121.021 78.6768Z" fill="#F0F0F0" stroke="black" stroke-width="0.31447"/>
<path d="M47.42 4.80427H49.0665L50.3837 3.75321L49.0665 2.10156H47.42L46.5967 3.75321L47.42 4.80427Z" fill="#F0F0F0" stroke="black" stroke-width="0.31447"/>
<path d="M47.42 24.0213H49.5605L50.3837 22.9703L49.5605 21.4688H47.42L46.5967 22.9703L47.42 24.0213Z" fill="#F0F0F0" stroke="black" stroke-width="0.31447"/>
<path d="M47.9141 48.1949H49.8899L50.7132 46.9937L49.8899 45.4922H47.9141L47.0908 46.9937L47.9141 48.1949Z" fill="#F0F0F0" stroke="black" stroke-width="0.31447"/>
<path d="M62.7332 66.6629H64.0505L64.8737 65.9121L64.0505 64.7109H62.7332L62.2393 65.9121L62.7332 66.6629Z" fill="#F0F0F0" stroke="black" stroke-width="0.31447"/>
<path d="M96.1582 55.7081H97.4755L97.8048 54.657L97.4755 53.9062H96.1582L95.335 54.657L96.1582 55.7081Z" fill="#F0F0F0" stroke="black" stroke-width="0.31447"/>
<path d="M72.6123 35.734H74.7528L75.5761 34.2325L74.7528 33.0312H72.6123L71.7891 34.2325L72.6123 35.734Z" fill="#F0F0F0" stroke="black" stroke-width="0.31447"/>
<path d="M104.885 35.734H106.531L107.355 34.5328L106.531 33.0312H104.885L104.062 34.5328L104.885 35.734Z" fill="#F0F0F0" stroke="black" stroke-width="0.31447"/>
<path d="M130.57 50.753H132.546L133.369 49.2515L132.546 47.75H130.57L129.747 49.2515L130.57 50.753Z" fill="#F0F0F0" stroke="black" stroke-width="0.31447"/>
<path d="M144.237 75.6749H145.884L146.707 74.1734L145.884 72.6719H144.237L143.414 74.1734L144.237 75.6749Z" fill="#F0F0F0" stroke="black" stroke-width="0.31447"/>
<path d="M44.1272 130.778H45.7737L46.597 129.127L45.7737 127.625H44.1272L42.9746 129.127L44.1272 130.778Z" fill="#F0F0F0" stroke="black" stroke-width="0.31447"/>
<path d="M22.7225 116.816H24.369L25.1923 115.314L24.369 113.812H22.7225L21.4053 115.314L22.7225 116.816Z" fill="#F0F0F0" stroke="black" stroke-width="0.31447"/>
<path d="M9.05552 98.648H10.7021L11.5253 97.1465L10.7021 95.9453H9.05552L7.73828 97.1465L9.05552 98.648Z" fill="#F0F0F0" stroke="black" stroke-width="0.31447"/>
<path d="M3.62192 61.4093H5.26846L6.09173 59.9078L5.26846 58.4062H3.62192L2.30469 59.9078L3.62192 61.4093Z" fill="#F0F0F0" stroke="black" stroke-width="0.31447"/>
<path d="M2.30472 35.2869H4.11591L5.26849 34.2359L4.11591 32.7344H2.30472L1.48145 34.2359L2.30472 35.2869Z" fill="#F0F0F0" stroke="black" stroke-width="0.31447"/>
<path d="M2.30492 4.80427H4.11612L4.93939 3.75321L4.11612 2.10156H2.30492L1.15234 3.75321L2.30492 4.80427Z" fill="#F0F0F0" stroke="black" stroke-width="0.31447"/>
<path d="M114.764 81.3828H113.94V82.8843H114.764V81.3828Z" fill="#F0F0F0" stroke="black" stroke-width="0.31447"/>
<path d="M114.764 84.6875H113.94V86.189H114.764V84.6875Z" fill="#F0F0F0" stroke="black" stroke-width="0.31447"/>
<path d="M64.3799 81.3828H63.5566V82.8843H64.3799V81.3828Z" fill="#F0F0F0" stroke="black" stroke-width="0.31447"/>
<path d="M64.3799 84.6875H63.5566V86.189H64.3799V84.6875Z" fill="#F0F0F0" stroke="black" stroke-width="0.31447"/>
<path d="M121.844 77.1797L122.173 77.6301V77.9304V78.3809H121.844H121.35L121.021 77.9304V77.6301H121.35V77.1797H121.844Z" fill="#7F7F7F"/>
<path d="M48.2442 4.35306C48.6988 4.35306 49.0674 4.01694 49.0674 3.60231C49.0674 3.18769 48.6988 2.85156 48.2442 2.85156C47.7895 2.85156 47.4209 3.18769 47.4209 3.60231C47.4209 4.01694 47.7895 4.35306 48.2442 4.35306Z" fill="#7F7F7F"/>
<path d="M48.7373 23.1197C49.192 23.1197 49.5606 22.918 49.5606 22.6692C49.5606 22.4204 49.192 22.2188 48.7373 22.2188C48.2827 22.2188 47.9141 22.4204 47.9141 22.6692C47.9141 22.918 48.2827 23.1197 48.7373 23.1197Z" fill="#7F7F7F"/>
<path d="M48.7373 47.5953C49.192 47.5953 49.5606 47.2591 49.5606 46.8445C49.5606 46.4299 49.192 46.0938 48.7373 46.0938C48.2827 46.0938 47.9141 46.4299 47.9141 46.8445C47.9141 47.2591 48.2827 47.5953 48.7373 47.5953Z" fill="#7F7F7F"/>
<path d="M73.4356 34.9859C73.8903 34.9859 74.2588 34.6498 74.2588 34.2351C74.2588 33.8205 73.8903 33.4844 73.4356 33.4844C72.9809 33.4844 72.6123 33.8205 72.6123 34.2351C72.6123 34.6498 72.9809 34.9859 73.4356 34.9859Z" fill="#7F7F7F"/>
<path d="M105.708 33.7812H106.202L106.531 34.2317V34.532L106.202 34.9825L105.708 35.2828L105.214 34.9825L104.885 34.532V34.2317L105.214 33.7812H105.708Z" fill="#7F7F7F"/>
<path d="M131.724 48.5L132.218 48.9505V49.2508V49.7012L131.724 50.0015H131.394L130.9 49.7012V49.2508V48.9505L131.394 48.5H131.724Z" fill="#7F7F7F"/>
<path d="M145.061 74.9234C145.515 74.9234 145.884 74.5873 145.884 74.1726C145.884 73.758 145.515 73.4219 145.061 73.4219C144.606 73.4219 144.237 73.758 144.237 74.1726C144.237 74.5873 144.606 74.9234 145.061 74.9234Z" fill="#7F7F7F"/>
<path d="M44.9502 129.877C45.4049 129.877 45.7735 129.54 45.7735 129.126C45.7735 128.711 45.4049 128.375 44.9502 128.375C44.4955 128.375 44.127 128.711 44.127 129.126C44.127 129.54 44.4955 129.877 44.9502 129.877Z" fill="#7F7F7F"/>
<path d="M23.5459 114.562L23.8752 114.863L24.3692 115.313L23.8752 115.614L23.5459 116.064H23.052L22.7227 115.614V115.313V114.863L23.052 114.562H23.5459Z" fill="#7F7F7F"/>
<path d="M9.87894 97.8999C10.3336 97.8999 10.7022 97.5638 10.7022 97.1492C10.7022 96.7346 10.3336 96.3984 9.87894 96.3984C9.42426 96.3984 9.05566 96.7346 9.05566 97.1492C9.05566 97.5638 9.42426 97.8999 9.87894 97.8999Z" fill="#7F7F7F"/>
<path d="M4.44534 60.6578C4.90002 60.6578 5.26861 60.3216 5.26861 59.907C5.26861 59.4924 4.90002 59.1562 4.44534 59.1562C3.99066 59.1562 3.62207 59.4924 3.62207 59.907C3.62207 60.3216 3.99066 60.6578 4.44534 60.6578Z" fill="#7F7F7F"/>
<path d="M3.12796 34.3853C3.58264 34.3853 3.95123 34.1836 3.95123 33.9348C3.95123 33.686 3.58264 33.4844 3.12796 33.4844C2.67328 33.4844 2.30469 33.686 2.30469 33.9348C2.30469 34.1836 2.67328 34.3853 3.12796 34.3853Z" fill="#7F7F7F"/>
<path d="M3.12796 4.35306C3.58264 4.35306 3.95123 4.01694 3.95123 3.60231C3.95123 3.18769 3.58264 2.85156 3.12796 2.85156C2.67328 2.85156 2.30469 3.18769 2.30469 3.60231C2.30469 4.01694 2.67328 4.35306 3.12796 4.35306Z" fill="#7F7F7F"/>
<path d="M63.5567 65.1641L64.0506 65.4644V65.9148V66.2151H63.5567H63.0627L62.7334 65.9148V65.4644H63.0627V65.1641H63.5567Z" fill="#7F7F7F"/>
<path d="M96.6522 54.2031H96.9815L97.4754 54.6536V54.9539H96.9815V55.2542H96.6522L96.1582 54.9539V54.6536V54.2031H96.6522Z" fill="#7F7F7F"/>
</g>
<defs>
<clipPath id="clip0_2109_233549">
<rect width="150" height="150" fill="white"/>
</clipPath>
</defs>
</svg>
