<svg width="150" height="150" viewBox="0 0 150 150" fill="none" xmlns="http://www.w3.org/2000/svg">
<path d="M16.5166 103.273V110.26H26.1262V124.452H21.3214V128.819H69.0692V124.452H64.2644V110.26H88.5887V128.819H119.67L123.724 123.142V106.112L16.5166 103.273Z" fill="#333333"/>
<path d="M127.478 59.3906H148.949V65.0675H127.478V59.3906Z" fill="#4C4C4C"/>
<path d="M127.478 96.2891H148.949V101.748H127.478V96.2891Z" fill="#4C4C4C"/>
<path d="M127.478 87.7734H148.949V93.4503H127.478V87.7734Z" fill="#7F7F7F"/>
<path d="M127.478 67.9062H148.949V73.3648H127.478V67.9062Z" fill="#7F7F7F"/>
<path d="M127.478 77.7266H148.949V83.4034H127.478V77.7266Z" fill="#B2B2B2"/>
<path d="M127.478 97.6016H148.949V100.44H127.478V97.6016Z" fill="#B2B2B2"/>
<path d="M127.478 60.6953H148.949V63.7521H127.478V60.6953Z" fill="#B2B2B2"/>
<path d="M127.478 89.0859H148.949V92.1427H127.478V89.0859Z" fill="#E5E5E5"/>
<path d="M127.478 69.2109H148.949V72.0494H127.478V69.2109Z" fill="#E5E5E5"/>
<path d="M127.478 79.2578H148.949V82.0962H127.478V79.2578Z" fill="white"/>
<path d="M84.6846 131.66V29.4766H88.5885V35.3718H119.82L123.724 40.8303V57.8608H127.628V103.276H123.724V120.306L119.82 125.983H88.5885V131.66H84.6846Z" fill="#999999" stroke="black" stroke-width="0.362126"/>
<path d="M96.3961 35.3736V6.98936H92.4922V1.3125H115.916V6.98936H112.012V35.3736H96.3961Z" fill="#999999"/>
<path d="M84.6846 122.491V38.4297H88.7386V43.2332H119.82L123.724 47.8183V61.7921H127.628V99.1284H123.724V113.102L119.82 117.906H88.7386V122.491H84.6846Z" fill="#ADADAD"/>
<path d="M97.7476 35.3736V6.98936H94.4443V1.3125H113.814V6.98936H110.51V35.3736H97.7476Z" fill="#ADADAD"/>
<path d="M84.6846 113.322V47.6016H88.7386V51.3134H119.82L123.724 54.8068V65.7238H127.628V95.1998H123.724V106.117L119.82 109.829H88.7386V113.322H84.6846Z" fill="#C2C2C2"/>
<path d="M99.0994 35.3736V6.98936H96.5469V1.3125H111.712V6.98936H109.159V35.3736H99.0994Z" fill="#C2C2C2"/>
<path d="M84.6846 104.363V56.5469H88.7386V59.3853H119.82L123.724 62.0054V69.8657H127.628V91.0447H123.724V99.1233L119.82 101.743H88.7386V104.363H84.6846Z" fill="#D6D6D6"/>
<path d="M100.6 35.3736V6.98936H98.6484V1.3125H109.609V6.98936H107.808V35.3736H100.6Z" fill="#D6D6D6"/>
<path d="M84.6846 95.1947V65.7188H88.7386V67.2471H119.82L123.724 68.9939V73.7974H127.628V87.1161H123.724V91.9196L119.82 93.6663H88.7386V95.1947H84.6846Z" fill="#EBEBEB"/>
<path d="M101.802 35.3736V6.98936H100.751V1.3125H107.508V6.98936H106.457V35.3736H101.802Z" fill="#EBEBEB"/>
<path d="M103.303 35.3736V6.98936H102.853V1.3125H105.405V6.98936H104.955V35.3736H103.303Z" fill="white"/>
<path d="M84.6846 86.2443V74.8906H88.5885V75.5456H119.82L123.724 75.9823V77.9474H127.628V82.9692H123.724V84.9343L119.82 85.5893H88.5885V86.2443H84.6846Z" fill="white"/>
<path d="M88.5889 125.986V35.375" stroke="black" stroke-width="0.362126"/>
<path d="M123.724 103.274V57.8594" stroke="black" stroke-width="0.362126"/>
<path d="M127.628 57.8594V103.274" stroke="black" stroke-width="0.362126"/>
<path d="M96.3961 35.3736V6.98936H92.4922V1.3125H115.916V6.98936H112.012V35.3736H96.3961Z" stroke="black" stroke-width="0.362126"/>
<path d="M96.3965 6.98438H112.012" stroke="black" stroke-width="0.362126"/>
<path d="M72.9727 46.5078H76.8766V114.63H72.9727V46.5078Z" fill="#4C4C4C" stroke="black" stroke-width="0.362126"/>
<path d="M77.0273 46.5078H84.685V114.63H77.0273V46.5078Z" fill="#999999" stroke="black" stroke-width="0.362126"/>
<path d="M73.2734 94.3203H76.7269V114.189H73.2734V94.3203Z" fill="#191919"/>
<path d="M77.3271 94.3203H84.3842V114.189H77.3271V94.3203Z" fill="#666666"/>
<path d="M73.2734 52.3984H76.7269V61.5687H73.2734V52.3984Z" fill="#7F7F7F"/>
<path d="M77.3271 52.3984H84.3842V61.5687H77.3271V52.3984Z" fill="#CCCCCC"/>
<path d="M16.5166 51.0901H53.4535L56.3064 40.8281H67.4175L70.1202 51.0901H67.4175L65.916 42.7932H57.5076L56.3064 51.0901H72.9731V107.64H16.5166V51.0901Z" fill="#7F7F7F"/>
<path d="M16.5166 56.3281H72.9731V102.18H16.5166V56.3281Z" fill="#999999"/>
<path d="M16.5166 61.7891H72.9731V96.5052H16.5166V61.7891Z" fill="#B2B2B2"/>
<path d="M16.5166 67.25H72.9731V91.0491H64.5647V117.905H68.7689V125.984H21.3214V117.905H25.6758V91.0491H16.5166V67.25Z" fill="#CCCCCC"/>
<path d="M16.5166 72.7109H72.9731V85.593H16.5166V72.7109Z" fill="#E5E5E5"/>
<path d="M16.5166 51.0901H53.4535L56.3064 40.8281H67.4175L70.1202 51.0901H72.9731V107.64H64.5646V117.902H68.7689V125.981H21.3214V117.902H25.6758V107.64H16.5166V51.0901Z" stroke="black" stroke-width="0.362126"/>
<path d="M56.3066 51.0934L57.3577 42.5781H65.9163L67.5679 51.0934H56.3066Z" stroke="black" stroke-width="0.362126"/>
<path d="M0.900391 74.8925H13.513L16.516 50.875V107.644L13.513 83.4077H0.900391V74.8925Z" fill="#999999"/>
<path d="M0.900391 76.4162H13.513L16.516 60.9141V97.5953L13.513 81.8748H0.900391V76.4162Z" fill="#CCCCCC"/>
<path d="M0.901367 77.9474H13.514L16.517 70.7422V87.7728L13.514 80.3492H0.901367V77.9474Z" fill="white"/>
<path d="M0.900391 74.8925H13.513L16.516 50.875V107.644L13.513 83.4078H0.900391V74.8925Z" stroke="black" stroke-width="0.362126"/>
<path d="M100.301 108.953H110.061V148.691H100.301V108.953Z" fill="#E5E5E5" stroke="black" stroke-width="0.362126"/>
<path d="M34.084 108.953H43.8437V148.691H34.084V108.953Z" fill="#E5E5E5" stroke="black" stroke-width="0.362126"/>
<path d="M34.084 145.633H43.8437" stroke="black" stroke-width="0.362126"/>
<path d="M100.301 145.633H110.061" stroke="black" stroke-width="0.362126"/>
<path d="M36.9365 113.32H40.8404V123.146H36.9365V113.32Z" fill="#999999"/>
<path d="M36.0361 113.104H41.892V97.6016L40.8409 94.7632L38.889 93.4531L36.937 94.7632L36.0361 97.6016V113.104Z" fill="#E5E5E5" stroke="black" stroke-width="0.362126"/>
<path d="M37.9883 103.273H39.7901V96.7229L39.4898 95.4128L38.8892 94.7578L38.2886 95.4128L37.9883 96.7229V103.273Z" fill="white"/>
</svg>
