<svg width="150" height="150" viewBox="0 0 150 150" fill="none" xmlns="http://www.w3.org/2000/svg">
<path d="M104.204 148.61V33.4609H107.658V39.8736H135.285L138.739 46.2862V65.5241H142.192V52.6989H149.099V129.372H142.192V116.546H138.739V135.784L135.285 142.197H107.658V148.61H104.204Z" fill="#999999"/>
<path d="M114.565 39.8665V8.08208H111.111V1.39062H131.832V8.08208H128.228V39.8665H114.565Z" fill="#999999"/>
<path d="M104.204 138.288V43.4922H107.658V48.7896H135.285L138.739 54.087V69.7004H142.192V59.3844H149.099V122.396H142.192V111.801H138.739V127.693L135.285 132.99H107.658V138.288H104.204Z" fill="#ADADAD"/>
<path d="M115.766 39.8665V7.80326H112.913V1.39062H129.88V7.80326H127.027V39.8665H115.766Z" fill="#ADADAD"/>
<path d="M104.204 127.976V53.8125H107.658V57.7158H135.285L138.739 61.898V74.4445H142.192V66.0802H149.099V115.708H142.192V107.344H138.739V119.612L135.285 123.794H107.658V127.976H104.204Z" fill="#C2C2C2"/>
<path d="M116.967 39.8665V7.80326H114.715V1.39062H128.078V7.80326H125.826V39.8665H116.967Z" fill="#C2C2C2"/>
<path d="M104.204 117.654V63.8438H107.658V66.9107H135.285L138.739 69.9776V78.8995H142.192V72.7657H149.099V108.732H142.192V102.877H138.739V111.799L135.285 114.866H107.658V117.654H104.204Z" fill="#D6D6D6"/>
<path d="M118.168 39.8665V7.80326H116.517V1.39062H126.276V7.80326H124.625V39.8665H118.168Z" fill="#D6D6D6"/>
<path d="M104.204 107.621V74.1641H107.658V75.8369H135.285L138.739 77.7886V83.3648H142.192V79.7403H149.099V102.045H142.192V98.4206H138.739V103.718L135.285 105.67H107.658V107.621H104.204Z" fill="#EBEBEB"/>
<path d="M119.369 39.8665V7.80326H118.318V1.39062H124.475V7.80326H123.423V39.8665H119.369Z" fill="#EBEBEB"/>
<path d="M120.571 39.8665V8.08208H120.271V1.39062H122.523V8.08208H122.222V39.8665H120.571Z" fill="white"/>
<path d="M104.204 97.3018V84.4766H107.658V85.313H135.285L138.739 85.8706V88.1011H142.192V86.707H149.099V95.3502H142.192V93.6773H138.739V95.9078L135.285 96.7442H107.658V97.3018H104.204Z" fill="white"/>
<path d="M7.65723 122.953H76.5761V139.124H7.65723V122.953Z" fill="#4C4C4C"/>
<path d="M28.3779 127.977H71.471V131.043H28.3779V127.977Z" fill="#4C4C4C"/>
<path d="M31.8314 148.605L27.477 138.847L26.5761 129.367H23.2728L22.3719 138.847L18.0176 148.605H31.8314Z" fill="#333333" stroke="black" stroke-width="0.409211"/>
<path d="M72.3724 148.605L68.0181 138.847L67.1172 129.367H63.6637L62.7628 138.847L58.5586 148.605H72.3724Z" fill="#333333" stroke="black" stroke-width="0.409211"/>
<path d="M28.3786 135.779L0.750977 129.367V52.6939L28.3786 46.2812V52.6939H69.6699L83.4837 58.8277V52.6939H86.9372V78.3444H104.204V103.716H86.9372V129.367H83.4837V122.954L69.6699 129.367H28.3786V135.779Z" fill="#7F7F7F"/>
<path d="M28.3786 126.026L0.750977 121.286V60.7842L28.3786 55.7656V60.7842H69.82L83.6339 65.8028V60.7842H87.0873V80.8586H104.204V100.933H87.0873V121.286H83.6339V115.989L69.82 121.286H28.3786V126.026Z" fill="#999999"/>
<path d="M28.3786 116.543L0.750977 112.919V68.8667L28.3786 65.2422V68.8667H69.82L83.6339 72.4913V68.8667H87.0873V83.6437H104.204V98.1418H87.0873V112.919H83.6339V109.294L69.82 112.919H28.3786V116.543Z" fill="#B2B2B2"/>
<path d="M28.3786 106.782L0.750977 104.551V77.228L28.3786 74.7188V77.228H69.82L83.6339 79.4585V77.228H87.0873V86.4288H104.204V95.3507H87.0873V104.551H83.6339V102.321L69.82 104.551H28.3786V106.782Z" fill="#CCCCCC"/>
<path d="M28.3786 97.3018L0.750977 96.4654V85.313L28.3786 84.4766V85.313H69.6699L83.4837 86.4282V85.313H86.9372V89.2163H104.204V92.8409H86.9372V96.4654H83.4837V95.629L69.6699 96.4654H28.3786V97.3018Z" fill="#E5E5E5"/>
<path d="M28.3786 135.779L0.750977 129.367V52.6939L28.3786 46.2812V52.6939H69.6699L83.4837 58.8277V52.6939H86.9372V78.3444H104.204V103.716H86.9372V129.367H83.4837V122.954L69.6699 129.367H28.3786V135.779Z" stroke="black" stroke-width="0.409211"/>
<path d="M28.3779 52.6953H69.6692V90.8923H28.3779V52.6953Z" fill="#4C4C4C"/>
<path d="M28.3779 81.4141H71.471V84.481H28.3779V81.4141Z" fill="#E5E5E5"/>
<path d="M28.3779 73.3281H71.471V76.6739H28.3779V73.3281Z" fill="#CCCCCC"/>
<path d="M28.3779 67.1953H71.471V70.2622H28.3779V67.1953Z" fill="#B2B2B2"/>
<path d="M28.3779 60.5H71.471V63.8457H28.3779V60.5Z" fill="#B2B2B2"/>
<path d="M28.3779 54.3672H71.471V57.4341H28.3779V54.3672Z" fill="#999999"/>
<path d="M28.3779 49.3516H71.471V52.6973H28.3779V49.3516Z" fill="#999999"/>
<path d="M30.0303 129.368H67.1174V105.391H30.0303V129.368Z" fill="#4C4C4C" stroke="black" stroke-width="0.409211"/>
<path d="M28.3779 121.562H71.471V124.629H28.3779V121.562Z" fill="#666666"/>
<path d="M28.3779 126.305H71.471V129.372H28.3779V126.305Z" fill="#666666"/>
<path d="M37.8379 111.805H59.3094V142.195H37.8379V111.805Z" fill="#B2B2B2" stroke="black" stroke-width="0.409211"/>
<path d="M37.8379 111.802L39.4895 107.062H58.5586L59.4595 111.802H37.8379Z" fill="#CCCCCC" stroke="black" stroke-width="0.409211"/>
<path d="M28.3779 129.368V52.6953" stroke="black" stroke-width="0.409211"/>
<path d="M83.4834 122.955V58.8281" stroke="black" stroke-width="0.409211"/>
<path d="M86.9365 103.715V78.3438" stroke="black" stroke-width="0.409211"/>
<path d="M95.6457 89.5006L90.991 87.8277L89.6396 84.7608L90.991 81.4151L95.6457 79.7422L100.15 81.4151L101.652 84.7608L100.15 87.8277L95.6457 89.5006Z" fill="#333333"/>
<path d="M95.6457 102.323L100.15 100.65L101.652 97.5835L100.15 94.5166L95.6457 92.8438L90.991 94.5166L89.6396 97.5835L90.991 100.65L95.6457 102.323Z" fill="#333333"/>
<path d="M95.6459 92.5625L100.15 94.2354L100.901 95.9082L100.15 97.5811L95.6459 99.254L90.9912 97.5811L90.3906 95.9082L90.9912 94.2354L95.6459 92.5625Z" fill="#E5E5E5" stroke="black" stroke-width="0.409211"/>
<path d="M95.6456 83.0859L90.991 84.7588L90.2402 86.1529L90.991 87.8257L95.6456 89.4986L100.15 87.8257L100.901 86.1529L100.15 84.7588L95.6456 83.0859Z" fill="#E5E5E5" stroke="black" stroke-width="0.409211"/>
<path d="M104.204 148.61V33.4609H107.658V39.8736H135.285L138.739 46.2862V65.5241H142.192V52.6989H149.099V129.372H142.192V116.546H138.739V135.784L135.285 142.197H107.658V148.61H104.204Z" stroke="black" stroke-width="0.409211"/>
<path d="M107.657 142.191V39.8672" stroke="black" stroke-width="0.409211"/>
<path d="M138.738 116.546V65.5234" stroke="black" stroke-width="0.409211"/>
<path d="M142.192 65.5234V116.546" stroke="black" stroke-width="0.409211"/>
<path d="M114.565 39.8665V8.08207H111.111V1.39062H131.832V8.08207H128.228V39.8665H114.565Z" stroke="black" stroke-width="0.409211"/>
<path d="M114.564 8.08594H128.228" stroke="black" stroke-width="0.409211"/>
</svg>
