<svg width="150" height="150" viewBox="0 0 150 150" fill="none" xmlns="http://www.w3.org/2000/svg">
<path d="M109.678 19.9688H118.952V36.4853H109.678V19.9688Z" fill="#4C4C4C" stroke="black" stroke-width="0.492115"/>
<path d="M63.71 117.715V107.805H84.6777V114.862H91.9358V121.919H75.0003L63.71 117.715Z" fill="#7F7F7F"/>
<path d="M100 124.171H91.9355V112.609H100V124.171Z" fill="#7F7F7F"/>
<path d="M65.3223 117.266V107.656H82.661V115.014L83.8707 115.614H91.9352V121.47H75.8061L65.3223 117.266Z" fill="#999999"/>
<path d="M100 123.124H91.9355V113.664H100V123.124Z" fill="#999999"/>
<path d="M67.7422 117.116V107.656H80.6454V115.314L82.2583 116.365H91.9357V120.719H77.0164L67.7422 117.116Z" fill="#B2B2B2"/>
<path d="M100 121.924H91.9355V114.867H100V121.924Z" fill="#B2B2B2"/>
<path d="M69.7578 116.815V107.656H78.6288V115.614L81.4514 116.966H91.9352V119.818H77.8223L69.7578 116.815Z" fill="#CCCCCC"/>
<path d="M100 121.021H91.9355V115.766H100V121.021Z" fill="#CCCCCC"/>
<path d="M71.7744 116.513V107.805H76.6131V115.763L80.6454 117.715H91.9357V119.216H78.6293L71.7744 116.513Z" fill="#E5E5E5"/>
<path d="M100 119.822H91.9355V116.969H100V119.822Z" fill="#E5E5E5"/>
<path d="M3.22559 92.0391H11.6933V93.991H40.7256V101.799H11.6933V103.901H3.22559V92.0391Z" fill="#7F7F7F"/>
<path d="M3.22559 93.0938H11.6933V94.7454H41.532V101.052H11.6933V102.703H3.22559V93.0938Z" fill="#999999"/>
<path d="M3.22559 94.1406H11.6933V95.492H41.532V100.447H11.6933V101.648H3.22559V94.1406Z" fill="#B2B2B2"/>
<path d="M3.22559 95.3438H11.6933V96.0945H41.532V99.3978H11.6933V100.599H3.22559V95.3438Z" fill="#CCCCCC"/>
<path d="M3.22559 96.3984H11.6933V97.1492H40.7256V98.8008H11.6933V99.4014H3.22559V96.3984Z" fill="#E5E5E5"/>
<path d="M3.22559 92.0391H11.6933V93.991H40.7256V101.799H11.6933V103.901H3.22559V92.0391Z" stroke="black" stroke-width="0.492115"/>
<path d="M41.9352 107.656L7.25781 147.896H142.338L107.661 107.656H96.3707L128.629 147.146H22.5804L53.2256 107.656H41.9352Z" fill="#333333"/>
<path d="M55.6455 84.6875H94.3552V89.7926H55.6455V84.6875Z" fill="#4C4C4C"/>
<path d="M52.0156 50.7498H97.9834V49.3984H52.0156V50.7498Z" fill="#999999" stroke="black" stroke-width="0.492115"/>
<path d="M55.6455 50.75H94.3552V84.6839H55.6455V50.75Z" fill="#999999" stroke="black" stroke-width="0.492115"/>
<path d="M52.0158 49.4004L43.9513 47.2983V43.8448L40.3223 40.8418V17.8688L43.9513 15.016V2.10306L47.5803 0.601562H102.016L105.645 2.10306V15.016L109.274 17.8688V40.8418L105.645 43.8448V47.2983L97.9836 49.4004H52.0158Z" fill="#7F7F7F"/>
<path d="M40.3223 40.8402V17.8672H109.274V40.8402H40.3223Z" fill="#666666"/>
<path d="M91.9354 15.0156L95.5644 17.8685V40.8415L91.9354 43.5442V48.6493H91.1289V43.5442L94.7579 40.8415V17.8685L91.1289 15.0156H91.9354Z" fill="#CCCCCC"/>
<path d="M87.4997 15.0156L89.9191 17.8685V40.8415L87.4997 43.5442V48.6493H86.29V43.5442L88.7094 40.8415V17.8685L86.29 15.0156H87.4997Z" fill="#CCCCCC"/>
<path d="M82.2576 15.0156L83.8705 17.8685V40.8415L82.2576 43.5442V48.6493H81.4512V43.5442L83.8705 40.8415V17.8685L81.4512 15.0156H82.2576Z" fill="#CCCCCC"/>
<path d="M62.9036 15.0156L60.0811 17.8685V40.8415L62.9036 43.5442V48.6493H63.7101V43.5442L61.2907 40.8415V17.8685L63.7101 15.0156H62.9036Z" fill="#CCCCCC"/>
<path d="M57.6613 15.0156L54.0322 17.8685V40.8415L57.6613 43.5442V48.6493H59.2742V43.5442L55.6451 40.8415V17.8685L59.2742 15.0156H57.6613Z" fill="#CCCCCC"/>
<path d="M77.4189 15.0156L77.8222 17.8685V40.8415L77.4189 43.5442V48.6493" stroke="white" stroke-width="0.492115"/>
<path d="M72.581 15.0156L72.1777 17.8685V40.8415L72.581 43.5442V48.6493" stroke="white" stroke-width="0.492115"/>
<path d="M67.7418 15.0156L66.1289 17.8685V40.8415L67.7418 43.5442V48.6493H68.145V43.5442L66.5321 40.8415V17.8685L68.145 15.0156H67.7418Z" fill="white" stroke="white" stroke-width="0.492115"/>
<path d="M102.016 15.0156L107.661 17.8685V40.8415L102.016 43.8445V48.7994H100V43.8445L105.645 40.8415V17.8685L100 15.0156H102.016Z" fill="#B2B2B2"/>
<path d="M97.1774 15.0156L102.016 17.8685V40.8415L97.1774 43.5442V48.6493H95.5645V43.5442L100.403 40.8415V17.8685L95.5645 15.0156H97.1774Z" fill="#B2B2B2"/>
<path d="M47.5807 15.0156L41.9355 17.8685V40.8415L47.5807 43.8445V48.7994H49.5968V43.8445L43.9517 40.8415V17.8685L49.5968 15.0156H47.5807Z" fill="#B2B2B2"/>
<path d="M52.8231 15.0156L47.9844 17.8685V40.8415L52.8231 43.5442V48.6493H54.436V43.5442L49.5973 40.8415V17.8685L54.436 15.0156H52.8231Z" fill="#B2B2B2"/>
<path d="M50.8066 15.016V1.95291L54.0324 0.601562H96.3712L98.7905 1.95291V15.016H50.8066Z" fill="#919191"/>
<path d="M57.6611 15.016V1.95291L59.6773 0.601562H89.9192L91.9353 1.95291V15.016H57.6611Z" fill="#A6A6A6"/>
<path d="M64.5156 15.016V1.95291L66.1285 0.601562H84.2737L85.8866 1.95291V15.016H64.5156Z" fill="#B8B8B8"/>
<path d="M70.9678 15.016V2.10306L71.7742 0.601562H77.8226L78.6291 2.10306V15.016H70.9678Z" fill="#CCCCCC"/>
<path d="M52.0158 49.4004L43.9513 47.2983V43.8448L40.3223 40.8418V17.8688L43.9513 15.016V2.10306L47.5803 0.601562H102.016L105.645 2.10306V15.016L109.274 17.8688V40.8418L105.645 43.8448V47.2983L97.9836 49.4004H52.0158Z" stroke="black" stroke-width="0.492115"/>
<path d="M70.9679 84.6815V65.162H63.3066V59.6064H70.9679V57.3541H66.9357V55.252H70.9679V51.6484H78.6292V55.252H82.6615V57.3541H78.6292V59.6064H86.2905V65.162H78.6292V84.6815H70.9679Z" fill="#7F7F7F"/>
<path d="M57.6611 65.9141H91.9353V66.5147H57.6611V65.9141Z" fill="#B2B2B2"/>
<path d="M57.6611 67.2656H91.9353V68.1665H57.6611V67.2656Z" fill="#B2B2B2"/>
<path d="M57.6611 83.3359H91.9353V83.9365H57.6611V83.3359Z" fill="#B2B2B2"/>
<path d="M57.6611 51.6484H91.9353V52.3992H57.6611V51.6484Z" fill="#B2B2B2"/>
<path d="M63.3066 65.9198V52.4062H64.9195V65.9198H63.3066Z" fill="#B2B2B2"/>
<path d="M88.3066 65.9198V52.4062H90.3228V65.9198H88.3066Z" fill="#B2B2B2"/>
<path d="M82.6611 83.337V68.1719H84.274V83.337H82.6611Z" fill="#B2B2B2"/>
<path d="M57.6611 68.1719H59.274V83.337H57.6611V68.1719Z" fill="#B2B2B2"/>
<path d="M88.3066 84.6875H94.355V89.7926H88.3066V84.6875Z" fill="#7F7F7F" stroke="black" stroke-width="0.492115"/>
<path d="M79.0322 84.6875H84.2742V89.7926H79.0322V84.6875Z" fill="#7F7F7F" stroke="black" stroke-width="0.492115"/>
<path d="M65.3223 84.6875H70.9674V89.7926H65.3223V84.6875Z" fill="#7F7F7F" stroke="black" stroke-width="0.492115"/>
<path d="M55.6455 84.6875H61.2907V89.7926H55.6455V84.6875Z" fill="#7F7F7F" stroke="black" stroke-width="0.492115"/>
<path d="M36.29 106.306V103.303H40.3223V92.6419H36.29V89.7891H113.306V92.6419H109.274V103.303H113.306V106.306H36.29Z" fill="#7F7F7F"/>
<path d="M43.1455 106.005V103.303H45.9681V92.6419H43.1455V89.7891H106.855V92.6419H103.629V103.303H106.855V106.005H43.1455Z" fill="#949494"/>
<path d="M49.1934 106.005V103.303H52.4192V92.6419H49.1934V89.7891H100.403V92.6419H97.9837V103.303H100.403V106.005H49.1934Z" fill="#A8A8A8"/>
<path d="M56.0488 106.005V103.303H58.065V92.6419H56.0488V89.7891H93.5488V92.6419H91.9359V103.303H93.5488V106.005H56.0488Z" fill="#BDBDBD"/>
<path d="M62.9033 106.005V103.303H63.7098V92.6419H62.9033V89.7891H87.5001V92.6419H85.8872V103.303H87.5001V106.005H62.9033Z" fill="#D1D1D1"/>
<path d="M68.9512 106.306V103.303H69.7576V92.6419H68.9512V89.7891H80.6447V92.6419H79.8383V103.303H80.6447V106.306H68.9512Z" fill="#E5E5E5"/>
<path d="M36.29 106.306V103.303H40.3223V92.6419H36.29V89.7891H113.306V92.6419H109.274V103.303H113.306V106.306H36.29Z" stroke="black" stroke-width="0.492115"/>
<path d="M36.29 106.305H113.306V107.656H36.29V106.305Z" fill="#7F7F7F" stroke="black" stroke-width="0.492115"/>
<path d="M36.2907 107.656L1.61328 149.248H147.984L113.307 107.656H102.017L134.275 148.497H16.9359L47.581 107.656H36.2907Z" fill="#7F7F7F" stroke="black" stroke-width="0.492115"/>
<path d="M40.3223 92.6406H109.274" stroke="black" stroke-width="0.492115"/>
<path d="M109.274 103.305H40.3223" stroke="black" stroke-width="0.492115"/>
<path d="M11.6934 101.798V94.1406" stroke="black" stroke-width="0.492115"/>
<path d="M100 124.171H91.9355V112.609H100V124.171Z" stroke="black" stroke-width="0.492115"/>
<path d="M63.71 117.715V107.805H84.6777V114.862H91.9358V121.919H75.0003L63.71 117.715Z" stroke="black" stroke-width="0.492115"/>
<path d="M109.678 27.9297H118.952V28.6804H109.678V27.9297Z" fill="#CCCCCC"/>
<path d="M118.951 19.9688H120.967V36.4853H118.951V19.9688Z" fill="#CCCCCC"/>
<path d="M30.2422 25.0781H47.9841V34.3874H30.2422V25.0781Z" fill="#4C4C4C" stroke="black" stroke-width="0.492115"/>
</svg>
