<svg width="150" height="150" viewBox="0 0 150 150" fill="none" xmlns="http://www.w3.org/2000/svg">
<g clip-path="url(#clip0_2109_230240)">
<path d="M103.153 23.4922H131.081V74.0946H103.153V23.4922Z" fill="#CCCCCC" stroke="black" stroke-width="0.601504"/>
<path d="M84.2344 36.75H103.153V62.0512H84.2344V36.75Z" fill="#CCCCCC" stroke="black" stroke-width="0.601504"/>
<path d="M0 124.695H150V149.997H0V124.695Z" fill="#CCCCCC" stroke="black" stroke-width="0.601504"/>
<path d="M118.769 124.7V99.3984H125.075V124.7H118.769Z" fill="#CCCCCC" stroke="black" stroke-width="0.601504"/>
<path d="M68.6191 124.7V99.3984H74.9254V124.7H68.6191Z" fill="#CCCCCC" stroke="black" stroke-width="0.601504"/>
<path d="M12.4629 124.7V99.3984H18.4689V124.7H12.4629Z" fill="#CCCCCC" stroke="black" stroke-width="0.601504"/>
<path d="M81.2312 99.3976H6.15616L2.55255 90.9639L0.600601 72.8916L0 54.2169V48.7952V43.9759L0.600601 25.3012L2.55255 7.83133L5.55556 0H6.15616H81.2312L84.6847 7.83133L86.7868 25.3012L87.5375 43.9759V48.7952V54.2169L86.7868 72.8916L85.1351 87.9518L81.8318 99.3976H81.2312Z" fill="#CCCCCC" stroke="black" stroke-width="0.601504"/>
<path d="M6.15625 99.3976V0" stroke="black" stroke-width="0.601504"/>
<path d="M81.2314 99.3976V0" stroke="black" stroke-width="0.601504"/>
<path d="M81.2313 11.4453H6.15625" stroke="black" stroke-width="0.601504"/>
<path d="M6.15625 24.6953H81.2313" stroke="black" stroke-width="0.601504"/>
<path d="M81.2313 36.75H6.15625" stroke="black" stroke-width="0.601504"/>
<path d="M6.15625 48.7969H81.2313" stroke="black" stroke-width="0.601504"/>
<path d="M81.2313 62.0469H6.15625" stroke="black" stroke-width="0.601504"/>
<path d="M6.15625 74.0938H81.2313" stroke="black" stroke-width="0.601504"/>
<path d="M81.2313 87.3516H6.15625" stroke="black" stroke-width="0.601504"/>
<path d="M118.769 0H125.075L126.727 1.20482L127.778 6.62651L128.078 11.4458V87.3494L127.628 94.5783L126.277 98.7952L125.075 99.3976H118.769L116.817 97.5904L115.616 92.7711L115.466 87.3494V11.4458L115.916 4.81928L117.418 0.60241L118.769 0Z" fill="#CCCCCC" stroke="black" stroke-width="0.601504"/>
<path d="M120.27 11.4453H123.573L124.474 13.2525L125.075 17.4694V80.12L124.474 85.5417L123.573 87.3489H120.27L119.669 86.7465L119.069 85.5417L118.769 80.12V17.4694V15.0598L119.069 13.2525L119.669 12.0477L120.27 11.4453Z" fill="#CCCCCC" stroke="black" stroke-width="0.601504"/>
<path d="M30.9307 17.4688H56.1559V68.0712H30.9307V17.4688Z" fill="#CCCCCC"/>
<path d="M34.2344 18.0703H53.0031V68.0703H34.2344V18.0703Z" fill="#CCCCCC" stroke="black" stroke-width="0.601504"/>
</g>
<defs>
<clipPath id="clip0_2109_230240">
<rect width="150" height="150" fill="white"/>
</clipPath>
</defs>
</svg>
