<svg width="150" height="150" viewBox="0 0 150 150" fill="none" xmlns="http://www.w3.org/2000/svg">
<g clip-path="url(#clip0_2109_231525)">
<path d="M82.2929 118.769L84.8139 125.075L103.902 120.571L120.828 112.462L134.874 100.751L144.418 86.6366L150 70.7207V54.2042L144.418 38.2883L134.874 23.8739L120.828 12.4625L103.902 4.2042L84.8139 0H65.006L45.9184 4.2042L28.9916 12.4625L14.946 23.8739L4.86194 38.2883L0 54.2042V70.7207L4.86194 86.6366L14.946 100.751L28.9916 112.462L45.9184 120.571L65.006 124.775L67.527 118.769L67.1669 112.462L51.6807 108.859L37.9952 102.252L26.8307 93.2432L18.9076 81.8318L14.946 68.9189V55.7057L18.9076 43.0931L26.8307 31.6817L74.7299 63.8138L37.9952 22.5225L51.6807 15.7658L66.8067 12.4625H82.6531L98.1393 15.7658L74.7299 63.8138L111.825 22.5225L122.989 31.6817L130.912 43.0931L134.874 55.7057V68.9189L130.912 81.5315L122.989 93.2432L111.825 102.553L98.1393 108.859L82.6531 112.462L82.2929 118.769Z" fill="#333333"/>
<path d="M74.7299 63.8138L26.8307 31.6817L18.9076 43.0931L14.946 55.7057V68.9189L18.9076 81.8318L26.8307 93.2432L37.9952 102.252L51.6807 108.859L67.1669 112.462L67.527 118.769L65.006 124.775L45.9184 120.571L28.9916 112.462L14.946 100.751L4.86194 86.6366L0 70.7207V54.2042L4.86194 38.2883L14.946 23.8739L28.9916 12.4625L45.9184 4.2042L65.006 0H84.8139L103.902 4.2042L120.828 12.4625L134.874 23.8739L144.418 38.2883L150 54.2042V70.7207L144.418 86.6366L134.874 100.751L120.828 112.462L103.902 120.571L84.8139 125.075L82.2929 118.769L82.6531 112.462L98.1393 108.859L111.825 102.553L122.989 93.2432L130.912 81.5315L134.874 68.9189V55.7057L130.912 43.0931L122.989 31.6817L111.825 22.5225L74.7299 63.8138ZM74.7299 63.8138L37.9952 22.5225L51.6807 15.7658L66.8067 12.4625H82.6531L98.1393 15.7658L74.7299 63.8138Z" stroke="black" stroke-width="0.328864"/>
<path d="M14.9463 81.5331L18.5477 70.422L25.3905 60.5121L35.1144 52.404L46.9991 46.6983L60.3244 43.6953H150V125.077H134.874V150.002H14.9463V81.5331Z" fill="#98B2E5" stroke="black" stroke-width="0.328864"/>
<path d="M150 112.464V118.771H62.485L52.7611 116.668L44.4778 112.464L37.2749 106.759L32.2329 99.5514L29.7119 91.4432V83.3351L32.2329 75.227L37.2749 68.3201L44.4778 62.3141L52.7611 58.1099L62.485 56.0078H150V62.3141H90.5763L97.419 68.3201L102.461 75.227L104.982 83.3351V91.4432L102.461 99.5514L97.419 106.458L90.2161 112.464H150Z" fill="#4C4C4C" stroke="black" stroke-width="0.328864"/>
<path d="M80.4926 113.664L150 113.964V117.268H69.3281L54.202 113.664L46.639 110.06L40.1564 104.655L35.8347 98.3487L33.6738 91.1414V83.6339L35.8347 76.4267L40.5166 70.1204L46.639 64.715L54.202 61.1114L69.3281 57.5078H150V60.8111L80.4926 61.1114L88.0556 64.715L94.5382 70.1204L98.8599 76.4267L101.021 83.6339V91.1414L98.8599 98.3487L94.5382 104.655L88.0556 110.06L80.4926 113.664Z" fill="#191919"/>
<path d="M65.7262 111.859H61.7646L57.803 111.258L54.2016 109.456L51.3204 107.054L49.1595 104.051L48.0791 100.748V97.4442L56.7226 70.7175L58.8834 67.7145L61.7646 65.3121L65.0059 63.5103L68.9675 62.6094H73.2892L77.2508 63.5103L80.8522 65.3121L83.7334 67.7145L85.5341 70.7175L86.6145 74.0208V77.3241L77.9711 104.051L76.1703 107.054L73.2892 109.456L69.6877 111.258L65.7262 111.859Z" fill="#E5E5E5" stroke="black" stroke-width="0.328864"/>
<path d="M70.7687 71.9201L69.3281 69.818L70.0484 67.1153L72.5694 65.9141L75.8107 66.5147L77.2513 68.9171L76.531 71.3195L73.6499 72.5207L70.7687 71.9201Z" fill="#7F7F7F"/>
<path d="M59.2441 108.256L57.4434 105.854L58.5238 103.451L61.0448 102.25L63.926 102.851L65.7267 105.253L64.6462 107.655L62.1252 108.857L59.2441 108.256Z" fill="#7F7F7F"/>
<path d="M65.0058 89.9401L63.2051 87.838L64.2855 85.4356L66.8065 84.2344L69.6877 84.835L71.4884 86.9371L70.408 89.3395L67.887 90.841L65.0058 89.9401Z" fill="#7F7F7F"/>
<path d="M134.874 125.075H50.6006L39.4361 121.772L30.0723 115.465L20.3484 104.655L14.9463 89.0391V150H134.874V125.075Z" fill="#7F99CC" stroke="black" stroke-width="0.328864"/>
<path d="M52.0412 123.27L50.6006 122.069V119.967L52.0412 118.766H54.5622L56.0027 119.967V122.069L54.5622 123.27H52.0412Z" fill="#333333"/>
<path d="M52.0412 56.0045L50.6006 54.8033V52.7012L52.0412 51.5H54.5622L56.0027 52.7012V54.8033L54.5622 56.0045H52.0412Z" fill="#333333"/>
<path d="M136.675 90.5392L134.874 89.338V87.2359L136.675 85.7344H138.836L140.636 87.2359V89.338L138.836 90.5392H136.675Z" fill="#333333"/>
</g>
<defs>
<clipPath id="clip0_2109_231525">
<rect width="150" height="150" fill="white"/>
</clipPath>
</defs>
</svg>
