<svg width="150" height="150" viewBox="0 0 150 150" fill="none" xmlns="http://www.w3.org/2000/svg">
<g clip-path="url(#clip0_2109_229606)">
<path d="M46.9971 54.6328H50.6007V109.931H46.9971V54.6328Z" fill="#336666" stroke="black" stroke-width="0.445953"/>
<path d="M2.55273 117.547H5.70589V133.772H2.55273V117.547Z" fill="#4C7F7F" stroke="black" stroke-width="0.445953"/>
<path d="M13.6641 117.547H16.6671V133.772H13.6641V117.547Z" fill="#4C7F7F" stroke="black" stroke-width="0.445953"/>
<path d="M39.79 117.547H42.9432V133.772H39.79V117.547Z" fill="#4C7F7F" stroke="black" stroke-width="0.445953"/>
<path d="M3.9039 118.872H44.5946L47.5976 113.905V49.9981L44.5946 45.0312H43.994H43.2432H3.9039L0.3003 51.3226L0 53.3094V55.2962V57.2829V108.607L1.8018 116.886L3.15315 118.872H3.9039Z" fill="#4C7F7F"/>
<path d="M3.9039 112.252H44.5946L47.5976 106.954V55.2986L44.5946 51.6562H43.994H43.2432H3.9039L0.3003 57.2854L0 58.941V60.5966V63.5768V103.312L2.55255 111.59L3.15315 112.252H3.9039Z" fill="#669999"/>
<path d="M3.9039 102.647H44.5946L47.5976 99.0043V63.5739L44.5946 60.5938H43.994H43.2432H3.9039L0.3003 64.5673L0 65.5606V66.554V68.5408V96.6865L3.15315 102.647H3.9039Z" fill="#7FB2B2"/>
<path d="M3.9039 92.3844H44.5946L47.5976 90.0665V73.8413L44.5946 71.5234H43.994H43.2432H3.9039L0 73.8413V74.5036V75.4969V89.4042V90.0665L3.15315 92.3844H3.9039Z" fill="#99CCCC"/>
<path d="M3.9039 118.872H44.5946L47.5976 113.905V49.9981L44.5946 45.0312H43.994H43.2432H3.9039L0.3003 51.3226L0 53.3094V55.2962V57.2829V108.607L1.8018 116.886L3.15315 118.872H3.9039Z" stroke="black" stroke-width="0.445953"/>
<path d="M10.3604 45.6953H43.2432V111.589H10.3604V45.6953Z" fill="#194C4C" stroke="black" stroke-width="0.445953"/>
<path d="M10.3604 109.938H43.2432V119.871H10.3604V109.938Z" fill="#336666" stroke="black" stroke-width="0.445953"/>
<path d="M10.3604 101.984H45.1952V103.971H10.3604V101.984Z" fill="#7FB2B2" stroke="black" stroke-width="0.445953"/>
<path d="M10.3604 95.3672H45.1952V97.3539H10.3604V95.3672Z" fill="#7FB2B2" stroke="black" stroke-width="0.445953"/>
<path d="M10.3604 89.4062H45.1952V91.7241H10.3604V89.4062Z" fill="#7FB2B2" stroke="black" stroke-width="0.445953"/>
<path d="M10.3604 82.7812H45.1952V84.768H10.3604V82.7812Z" fill="#99CCCC" stroke="black" stroke-width="0.445953"/>
<path d="M10.3604 76.8203H45.1952V79.1382H10.3604V76.8203Z" fill="#99CCCC" stroke="black" stroke-width="0.445953"/>
<path d="M10.3604 70.1953H45.1952V72.5132H10.3604V70.1953Z" fill="#99CCCC" stroke="black" stroke-width="0.445953"/>
<path d="M10.3604 63.5781H45.1952V65.5649H10.3604V63.5781Z" fill="#99CCCC" stroke="black" stroke-width="0.445953"/>
<path d="M10.3604 57.6172H45.1952V58.9417H10.3604V57.6172Z" fill="#99CCCC" stroke="black" stroke-width="0.445953"/>
<path d="M10.3604 50.9922H45.1952V52.9789H10.3604V50.9922Z" fill="#99CCCC" stroke="black" stroke-width="0.445953"/>
<path d="M10.3604 44.3672H45.1952V46.3539H10.3604V44.3672Z" fill="#99CCCC" stroke="black" stroke-width="0.445953"/>
<path d="M10.3604 108.609H45.1952V110.927H10.3604V108.609Z" fill="#7FB2B2" stroke="black" stroke-width="0.445953"/>
<path d="M15.0146 120.532H32.4321V67.8828H15.0146V120.532Z" fill="#669999" stroke="black" stroke-width="0.445953"/>
<path d="M17.1172 117.55V71.5234H30.4806" stroke="white" stroke-width="0.445953"/>
<path d="M0 133.773H143.243V149.999H0V133.773Z" fill="#99CCCC" stroke="black" stroke-width="0.445953"/>
<path d="M78.0781 42.7188H113.964V116.891H78.0781V42.7188Z" fill="#99CCCC" stroke="black" stroke-width="0.445953"/>
<path d="M51.3516 115.234H114.715V133.115H51.3516V115.234Z" fill="#336666" stroke="black" stroke-width="0.445953"/>
<path d="M79.1289 44.3672H113.363V64.2347H79.1289V44.3672Z" fill="#B2E5E5"/>
<path d="M113.964 58.9375H136.486V95.3613H113.964V58.9375Z" fill="#99CCCC" stroke="black" stroke-width="0.445953"/>
<path d="M113.964 95.3672H136.486V124.837H113.964V95.3672Z" fill="#669999" stroke="black" stroke-width="0.445953"/>
<path d="M113.964 22.8516H136.486V58.9443H113.964V22.8516Z" fill="#B2E5E5" stroke="black" stroke-width="0.445953"/>
<path d="M113.964 133.776H136.486V124.836H113.964V133.776Z" fill="#4C7F7F" stroke="black" stroke-width="0.445953"/>
<path d="M50 33.1094H78.0781V127.149H50V33.1094Z" fill="#99CCCC" stroke="black" stroke-width="0.445953"/>
<path d="M50.6006 34.7656H77.4775V57.6133H50.6006V34.7656Z" fill="#B2E5E5"/>
<path d="M76.7266 105.633H112.012V133.779H76.7266V105.633Z" fill="#7FB2B2" stroke="black" stroke-width="0.445953"/>
<path d="M78.0781 108.609H110.36V133.775H78.0781V108.609Z" fill="#4C7F7F" stroke="black" stroke-width="0.445953"/>
<path d="M113.964 0H136.486V6.62252H113.964V0Z" fill="#4C7F7F"/>
<path d="M116.066 0H134.535V6.62252H116.066V0Z" fill="#669999"/>
<path d="M119.069 0H131.532V6.62252H119.069V0Z" fill="#7FB2B2"/>
<path d="M122.072 0H128.529V6.62252H122.072V0Z" fill="#99CCCC"/>
<path d="M113.964 0H136.486V6.62252H113.964V0Z" stroke="black" stroke-width="0.445953"/>
<path d="M118.318 6.625H132.132V22.8502H118.318V6.625Z" fill="#4C7F7F"/>
<path d="M119.67 6.625H130.781V22.8502H119.67V6.625Z" fill="#669999"/>
<path d="M121.472 6.625H129.129V22.8502H121.472V6.625Z" fill="#7FB2B2"/>
<path d="M123.424 6.625H127.178V22.8502H123.424V6.625Z" fill="#99CCCC"/>
<path d="M118.318 6.625H132.132V22.8502H118.318V6.625Z" stroke="black" stroke-width="0.445953"/>
<path d="M143.243 45.0312V93.7067H136.486V45.0312H143.243Z" fill="#4C7F7F"/>
<path d="M143.243 49.3359V89.4022H136.486V49.3359H143.243Z" fill="#669999"/>
<path d="M143.243 55.2969V83.4426H136.486V55.2969H143.243Z" fill="#7FB2B2"/>
<path d="M143.243 62.5859V76.8243H136.486V62.5859H143.243Z" fill="#99CCCC"/>
<path d="M143.243 45.0312V93.7067H136.486V45.0312H143.243Z" stroke="black" stroke-width="0.445953"/>
<path d="M138.889 44.3672V93.7049" stroke="black" stroke-width="0.445953"/>
<path d="M143.243 54.6328V84.7653H147.598V54.6328H143.243Z" fill="#4C7F7F"/>
<path d="M143.243 56.625V82.1217H147.598V56.625H143.243Z" fill="#669999"/>
<path d="M143.243 61.2578V78.1452H147.598V61.2578H143.243Z" fill="#7FB2B2"/>
<path d="M143.243 64.8984V73.8388H147.598V64.8984H143.243Z" fill="#99CCCC"/>
<path d="M143.243 54.6328V84.7653H147.598V54.6328H143.243Z" stroke="black" stroke-width="0.445953"/>
<path d="M150 50V89.404H147.598V50H150Z" fill="#4C7F7F"/>
<path d="M150 53.9766V85.7646H147.598V53.9766H150Z" fill="#669999"/>
<path d="M150 58.2812V80.4667H147.598V58.2812H150Z" fill="#7FB2B2"/>
<path d="M150 64.2422V75.1693H147.598V64.2422H150Z" fill="#99CCCC"/>
<path d="M150 50V89.404H147.598V50H150Z" stroke="black" stroke-width="0.445953"/>
</g>
<defs>
<clipPath id="clip0_2109_229606">
<rect width="150" height="150" fill="white"/>
</clipPath>
</defs>
</svg>
