<svg width="150" height="150" viewBox="0 0 150 150" fill="none" xmlns="http://www.w3.org/2000/svg">
<g clip-path="url(#clip0_2109_234401)">
<path d="M28.6036 111.712L23.8739 108.258L19.3694 104.505L15.3153 100.3L11.7117 96.0961L8.55856 91.4414L5.85586 86.6366L3.6036 81.6817L1.8018 76.5766L0.675676 71.3213L0 65.9159V64.2643V62.4625L0.225225 56.006L1.35135 49.8498L3.15315 43.8438L5.85586 38.1381L9.00901 32.7327L12.6126 27.4775L17.1171 22.6727L21.8468 18.3183L27.2523 14.2643L32.8829 10.6607L39.1892 7.50751L45.7207 4.8048L52.7027 2.7027L59.9099 1.2012L67.3423 0.15015L71.1712 0H75H78.6036L86.2613 0.600601L93.4685 1.8018L100.676 3.75375L107.432 6.15616L113.739 9.00901L119.82 12.3123L125.225 16.2162L130.405 20.4204L134.91 25.0751L138.964 30.03L142.568 35.4354L145.27 40.991L147.523 46.8468L149.099 52.8529L149.775 59.1592L150 62.4625V64.2643L149.324 69.5195L148.423 74.7748L146.847 80.03L144.82 84.985L142.117 89.9399L138.964 94.5946L135.586 99.0991L131.532 103.153L127.252 107.057L122.523 110.661L120.946 111.712L150 150H0L28.6036 111.712Z" fill="#00FFFF" stroke="black" stroke-width="0.367791"/>
<path d="M120.946 111.711L115.766 114.714L110.585 117.266L104.955 119.519L99.099 121.471L93.2432 122.972L87.1621 124.023L77.9278 124.924H74.9999L65.5405 124.474L59.4594 123.573L53.3783 122.372L47.2972 120.57L41.6666 118.618L36.2612 116.065L31.081 113.212L28.6035 111.711" stroke="black" stroke-width="0.367791"/>
</g>
<defs>
<clipPath id="clip0_2109_234401">
<rect width="150" height="150" fill="white"/>
</clipPath>
</defs>
</svg>
