<svg width="150" height="150" viewBox="0 0 150 150" fill="none" xmlns="http://www.w3.org/2000/svg">
<g clip-path="url(#clip0_2109_230394)">
<path d="M137.388 42.8168H137.688V28.6484H137.388V42.8168Z" fill="#F0F0F0"/>
<path d="M117.267 125.358H106.156V124.742L75.5254 133.982V146.303H127.477L117.267 125.358Z" fill="#0000FF" stroke="black" stroke-width="0.430105"/>
<path d="M127.778 146.305H74.9248V150.001H127.778V146.305Z" fill="#0000FF" stroke="black" stroke-width="0.430105"/>
<path d="M104.054 29.875H106.156V114.269H104.054V29.875Z" fill="#0000FF" stroke="black" stroke-width="0.430105"/>
<path d="M127.478 42.1953H106.156V102.565H127.478V42.1953Z" fill="#0000FF" stroke="black" stroke-width="0.430105"/>
<path d="M127.478 34.8047H130.481V109.959H127.478V34.8047Z" fill="#0000FF" stroke="black" stroke-width="0.430105"/>
<path d="M127.177 101.953H106.156V124.746H127.177V101.953Z" fill="#0000CC" stroke="black" stroke-width="0.430105"/>
<path d="M79.4297 85.9317V58.2109H82.733V85.9317H79.4297Z" fill="#7F7F7F" stroke="black" stroke-width="0.430105"/>
<path d="M82.7324 37.2656H102.552V106.875H82.7324V37.2656Z" fill="#7F7F7F" stroke="black" stroke-width="0.430105"/>
<path d="M127.177 21.25H144.894V28.0262H127.177V21.25Z" fill="#7F7F7F" stroke="black" stroke-width="0.430105"/>
<path d="M133.784 42.8156H138.289V28.0312H133.784V42.8156Z" fill="#7F7F7F" stroke="black" stroke-width="0.430105"/>
<path d="M133.183 34.8047H130.48V109.959H133.183V34.8047Z" fill="#7F7F7F" stroke="black" stroke-width="0.430105"/>
<path d="M133.184 42.8125H139.19V101.95H133.184V42.8125Z" fill="#7F7F7F" stroke="black" stroke-width="0.430105"/>
<path d="M141.592 34.8047H139.189V109.959H141.592V34.8047Z" fill="#7F7F7F" stroke="black" stroke-width="0.430105"/>
<path d="M146.697 55.1328H141.592V89.6297H146.697V55.1328Z" fill="#7F7F7F" stroke="black" stroke-width="0.430105"/>
<path d="M146.696 46.5078H150V98.2532H146.696V46.5078Z" fill="#7F7F7F" stroke="black" stroke-width="0.430105"/>
<path d="M143.093 106.878H143.693V104.414H143.093V105.03H141.892V106.262H143.093V106.878Z" fill="#7F7F7F" stroke="black" stroke-width="0.430105"/>
<path d="M125.976 106.878H125.676V104.414H125.976V105.03H127.478V106.262H125.976V106.878Z" fill="#7F7F7F" stroke="black" stroke-width="0.430105"/>
<path d="M108.258 111.804H109.159V107.492H108.258V108.108H106.156V110.572H108.258V111.804Z" fill="#7F7F7F" stroke="black" stroke-width="0.430105"/>
<path d="M108.258 36.6492H109.159V32.9531H108.258V33.5691H106.156V36.0332H108.258V36.6492Z" fill="#7F7F7F" stroke="black" stroke-width="0.430105"/>
<path d="M125.976 40.9641H125.676V38.5H125.976V39.116H127.478V40.348H125.976V40.9641Z" fill="#7F7F7F" stroke="black" stroke-width="0.430105"/>
<path d="M143.093 40.9641H143.693V38.5H143.093V39.116H141.892V40.348H143.093V40.9641Z" fill="#7F7F7F" stroke="black" stroke-width="0.430105"/>
<path d="M76.4267 121.048L78.5288 119.2L79.4297 115.504V28.6457L78.5288 24.9496L76.4267 23.1016H21.1714L19.6699 71.7669L21.1714 121.048H76.4267Z" fill="#7F7F7F" stroke="black" stroke-width="0.430105"/>
<path d="M143.393 106.266H141.892V107.498H143.393V106.266Z" fill="#4C4C4C" stroke="black" stroke-width="0.430105"/>
<path d="M125.976 106.266H127.477V107.498H125.976V106.266Z" fill="#4C4C4C" stroke="black" stroke-width="0.430105"/>
<path d="M108.559 110.578H106.156V113.042H108.559V110.578Z" fill="#4C4C4C" stroke="black" stroke-width="0.430105"/>
<path d="M108.559 36.0391H106.156V38.5031H108.559V36.0391Z" fill="#4C4C4C" stroke="black" stroke-width="0.430105"/>
<path d="M125.976 40.3516H127.477V41.5836H125.976V40.3516Z" fill="#4C4C4C" stroke="black" stroke-width="0.430105"/>
<path d="M143.393 40.3516H141.892V41.5836H143.393V40.3516Z" fill="#4C4C4C" stroke="black" stroke-width="0.430105"/>
<path d="M133.184 103.797H139.19V105.029H133.184V103.797Z" fill="#7F7F7F" stroke="black" stroke-width="0.430105"/>
<path d="M133.184 39.1172H139.19V40.9652H133.184V39.1172Z" fill="#7F7F7F" stroke="black" stroke-width="0.430105"/>
<path d="M143.393 103.18H141.892V105.028H143.393V103.18Z" fill="#E5E5E5" stroke="black" stroke-width="0.430105"/>
<path d="M125.976 103.18H127.477V105.028H125.976V103.18Z" fill="#E5E5E5" stroke="black" stroke-width="0.430105"/>
<path d="M108.559 106.266H106.156V108.114H108.559V106.266Z" fill="#E5E5E5" stroke="black" stroke-width="0.430105"/>
<path d="M108.559 31.7266H106.156V33.5746H108.559V31.7266Z" fill="#E5E5E5" stroke="black" stroke-width="0.430105"/>
<path d="M125.976 37.2656H127.477V39.1137H125.976V37.2656Z" fill="#E5E5E5" stroke="black" stroke-width="0.430105"/>
<path d="M143.393 37.2656H141.892V39.1137H143.393V37.2656Z" fill="#E5E5E5" stroke="black" stroke-width="0.430105"/>
<path d="M104.054 29.875H102.553V114.269H104.054V29.875Z" fill="#E0E0E0"/>
<path d="M146.396 81.6207H141.892V58.8281H146.396V81.6207Z" fill="#E0E0E0"/>
<path d="M146.696 85.9356H149.699V52.0547H146.696V85.9356Z" fill="#E0E0E0"/>
<path d="M82.7324 47.7422H102.552V50.8223H82.7324V47.7422Z" fill="#F0F0F0"/>
<path d="M104.054 42.1953H106.156V52.0516H104.054V42.1953Z" fill="#F0F0F0"/>
<path d="M127.478 52.0547H106.156V56.3668H127.478V52.0547Z" fill="#F0F0F0"/>
<path d="M127.478 46.5078H130.481V48.3559H127.478V46.5078Z" fill="#F0F0F0"/>
<path d="M133.183 45.8906H130.48V50.8188H133.183V45.8906Z" fill="#F0F0F0"/>
<path d="M133.184 46.5078H139.19V48.3559H133.184V46.5078Z" fill="#F0F0F0"/>
<path d="M140.991 21.25H142.493V28.0262H140.991V21.25Z" fill="#F0F0F0"/>
<path d="M141.592 39.7344H139.189V42.8145H141.592V39.7344Z" fill="#F0F0F0"/>
<path d="M146.696 49.5859H149.699V52.05H146.696V49.5859Z" fill="#F0F0F0"/>
<path d="M146.396 56.9844H141.892V58.8324H146.396V56.9844Z" fill="#F0F0F0"/>
<path fill-rule="evenodd" clip-rule="evenodd" d="M45.7955 16.9405V28.0287H47.297V22.4846V16.9405L49.6994 13.8604L50.6003 8.31622L49.3991 2.15606L46.6964 0L43.6934 2.15606L42.4922 8.31622L43.3931 13.8604L45.7955 16.9405ZM46.6964 3.38809L44.8946 4.62012L43.6934 8.93224L44.8946 12.0123L46.6964 13.8604L48.4982 12.0123L49.0988 8.31622L48.4982 4.62012L46.6964 3.38809Z" fill="#B2B2B2"/>
<path d="M45.7955 16.9405V28.0287H47.297V22.4846V16.9405L49.6994 13.8604L50.6003 8.31622L49.3991 2.15606L46.6964 0L43.6934 2.15606L42.4922 8.31622L43.3931 13.8604L45.7955 16.9405Z" stroke="black" stroke-width="0.430105"/>
<path d="M46.6964 3.39062L44.8946 4.62266L43.6934 8.93477L44.8946 12.0149L46.6964 13.8629L48.4982 12.0149L49.0988 8.31876L48.4982 4.62266L46.6964 3.39062Z" stroke="black" stroke-width="0.430105"/>
<path d="M21.1714 20.0234L20.8711 29.2637H76.4267L77.6278 27.4156L75.5257 21.2555L74.3245 20.0234H21.1714Z" fill="#E5E5E5" stroke="black" stroke-width="0.430105"/>
<path d="M20.8706 29.875L20.5703 38.4992H77.3271L77.6274 36.6512L76.4262 31.723L74.0238 29.875H20.8706Z" fill="#E5E5E5" stroke="black" stroke-width="0.430105"/>
<path d="M20.5708 40.3516L20.2705 47.1277H77.3276L77.6279 45.2797L74.3246 40.3516H20.5708Z" fill="#D1D1D1" stroke="black" stroke-width="0.430105"/>
<path d="M20.27 50.2031L19.9697 56.9793H77.3271L77.6274 55.1313L74.0238 50.2031H20.27Z" fill="#D1D1D1" stroke="black" stroke-width="0.430105"/>
<path d="M19.9697 60.0625V64.9906H77.0268L77.6274 63.7586L74.0238 60.0625H19.9697Z" fill="#D1D1D1" stroke="black" stroke-width="0.430105"/>
<path d="M19.6699 73.6102V71.7621V69.9141H74.3246L77.9282 73.6102H77.0273H19.6699Z" fill="#B2B2B2" stroke="black" stroke-width="0.430105"/>
<path d="M19.9697 78.5391V84.0832H77.3271L77.6274 83.4672L74.0238 78.5391H19.9697Z" fill="#B2B2B2" stroke="black" stroke-width="0.430105"/>
<path d="M20.2705 87.1641V93.9402H77.0273L77.3276 93.3242L74.0243 87.1641H20.2705Z" fill="#B2B2B2" stroke="black" stroke-width="0.430105"/>
<path d="M20.5703 97.0234V104.416H77.0268L77.6274 103.184L74.0238 97.0234H20.5703Z" fill="#B2B2B2" stroke="black" stroke-width="0.430105"/>
<path d="M20.5703 105.648L20.8706 114.273H77.0268L77.6274 112.425L74.0238 105.648H20.5703Z" fill="#B2B2B2" stroke="black" stroke-width="0.430105"/>
<path d="M21.1713 17.5547H14.2644L9.15931 19.4027L4.35451 24.3309L3.75391 26.1789H20.871L21.1713 17.5547Z" fill="#7F7F7F"/>
<path d="M1.35156 110.578L4.65487 117.97L9.15937 123.514L14.2645 125.363H21.1714L20.8711 110.578H1.35156Z" fill="#7F7F7F"/>
<path d="M3.75398 26.1797L1.05128 32.3399L0.750977 35.4199H20.8711V26.1797H3.75398Z" fill="#B2B2B2"/>
<path d="M0 93.3281V100.72L1.05105 109.961L1.35135 110.577H20.8709L20.2703 93.3281H0Z" fill="#B2B2B2"/>
<path d="M0.750751 35.4219L0 42.1981V45.8942H20.5706L20.8709 35.4219H0.750751Z" fill="#E5E5E5"/>
<path d="M0 70.5324V58.8281H19.97L19.6697 70.5324H0Z" fill="#E5E5E5"/>
<path d="M0 58.827V45.8906H20.5706L19.97 58.827H0Z" fill="#F0F0F0"/>
<path d="M0 70.5312V71.7633V82.8516H19.97L19.6697 71.7633V70.5312H0Z" fill="#E0E0E0"/>
<path d="M0 93.3238V82.8516H19.97L20.2703 93.3238H0Z" fill="#CCCCCC"/>
<path d="M21.1712 17.5547H14.2643L9.15916 19.4027L4.65465 24.9469L1.35135 32.9551L0 42.1953V71.7641V100.717L1.35135 109.957L4.65465 117.965L9.15916 123.51L14.2643 125.358H21.1712L19.6697 71.7641L21.1712 17.5547Z" stroke="black" stroke-width="0.430105"/>
</g>
<defs>
<clipPath id="clip0_2109_230394">
<rect width="150" height="150" fill="white"/>
</clipPath>
</defs>
</svg>
