<svg width="150" height="150" viewBox="0 0 150 150" fill="none" xmlns="http://www.w3.org/2000/svg">
<g clip-path="url(#clip0_2109_231752)">
<path d="M34.1357 150.003L40.7003 115.469H109.3L115.864 150.003H34.1357Z" fill="#4C4C4C" stroke="black" stroke-width="0.443997"/>
<path d="M28.884 123.269L24.9453 122.819V119.966L28.884 119.516V123.269Z" fill="#7F7F7F"/>
<path d="M28.884 131.385L24.9453 130.934V128.232L28.884 127.781V131.385Z" fill="#7F7F7F"/>
<path d="M28.884 139.643L24.9453 139.192V136.49L28.884 136.039V139.643Z" fill="#7F7F7F"/>
<path d="M28.8838 118.617H40.7V140.539H28.8838V118.617Z" fill="#7F7F7F"/>
<path d="M28.8838 119.969H40.7V139.188H28.8838V119.969Z" fill="#999999"/>
<path d="M28.8838 122.375H40.7V136.94H28.8838V122.375Z" fill="#B2B2B2"/>
<path d="M28.8838 124.625H40.7V134.685H28.8838V124.625Z" fill="#CCCCCC"/>
<path d="M28.8838 126.43H40.7V132.736H28.8838V126.43Z" fill="#E5E5E5"/>
<path d="M28.8838 128.227H40.7V130.929H28.8838V128.227Z" fill="white"/>
<path d="M28.8838 118.617H40.7V140.539H28.8838V118.617Z" stroke="black" stroke-width="0.443997"/>
<path d="M28.884 122.519L24.9453 122.368V119.966L28.884 119.516V122.519Z" fill="#B2B2B2"/>
<path d="M28.884 130.784L24.9453 130.484V128.232L28.884 127.781V130.784Z" fill="#B2B2B2"/>
<path d="M28.884 139.042L24.9453 138.742V136.49L28.884 136.039V139.042Z" fill="#B2B2B2"/>
<path d="M24.9453 120.567V119.966L28.884 119.516V120.266L24.9453 120.567Z" fill="#E5E5E5"/>
<path d="M24.9453 128.682V128.232L28.884 127.781V128.532L24.9453 128.682Z" fill="#E5E5E5"/>
<path d="M24.9453 136.94V136.49L28.884 136.039V136.64L24.9453 136.94Z" fill="#E5E5E5"/>
<path d="M28.884 139.643L24.9453 139.192V136.49L28.884 136.039V139.643Z" stroke="black" stroke-width="0.443997"/>
<path d="M28.884 131.385L24.9453 130.934V128.232L28.884 127.781V131.385Z" stroke="black" stroke-width="0.443997"/>
<path d="M28.884 123.269L24.9453 122.669V119.966L28.884 119.516V123.269Z" stroke="black" stroke-width="0.443997"/>
<path d="M34.136 115.467L27.2433 106.158V50.0017L26.915 49.8516L122.757 50.0017V106.158L115.865 115.467H34.136Z" fill="#CCCCCC"/>
<path d="M39.7157 115.467L33.8076 106.158V50.0017V49.8516L115.865 50.0017V106.158L110.285 115.467H39.7157Z" fill="#D9D9D9"/>
<path d="M51.5316 115.467L47.5929 106.158V50.0017L47.2646 49.8516L102.407 50.0017V106.158L98.4682 115.467H51.5316Z" fill="#E5E5E5"/>
<path d="M68.928 115.467L67.9434 106.158V50.0017V49.8516L81.7289 50.0017V106.158L80.7442 115.467H68.928Z" fill="#F2F2F2"/>
<path d="M34.136 115.465L27.2433 106.156V50H26.915H122.757V106.156L115.865 115.465H34.136Z" stroke="black" stroke-width="0.443997"/>
<path d="M34.1357 15.4655V6.15616L47.5931 0H102.407L115.864 6.15616V15.4655H34.1357Z" fill="#D9D9D9"/>
<path d="M39.7158 15.4655V6.15616L51.532 0H98.4686L110.285 6.15616V15.4655H39.7158Z" fill="#E5E5E5"/>
<path d="M51.5312 15.4655V6.15616L59.4087 0H90.5903L98.4678 6.15616V15.4655H51.5312Z" fill="#F2F2F2"/>
<path d="M69.2559 15.4655V6.15616L71.2252 0H78.7745L80.7438 6.15616V15.4655H69.2559Z" fill="white"/>
<path d="M34.1357 15.4655V6.15616L47.5931 0H102.407L115.864 6.15616V15.4655H34.1357Z" stroke="black" stroke-width="0.443997"/>
<path d="M54.4854 98.3453H61.3781V74.9219H54.4854V98.3453Z" fill="#BFBFBF" stroke="black" stroke-width="0.443997"/>
<path d="M54.4853 74.9219H20.3496V96.8438L54.4853 98.3453V74.9219Z" fill="#F2F2F2" stroke="black" stroke-width="0.443997"/>
<path d="M40.7002 106.156H68.2713V112.463H40.7002V106.156Z" fill="#333333"/>
<path d="M109.3 106.156H81.7285V112.463H109.3V106.156Z" fill="#333333"/>
<path d="M27.2432 106.156H122.757" stroke="black" stroke-width="0.443997"/>
<path d="M68.2715 121.773H81.7288V146.849H68.2715V121.773Z" fill="black"/>
<path d="M30.5254 50H119.475V52.2523H30.5254V50Z" fill="#BFBFBF"/>
<path d="M20.3496 15.4688H129.649V50.0033H20.3496V15.4688Z" fill="#D9D9D9"/>
<path d="M28.2275 15.4688H121.772V50.0033H28.2275V15.4688Z" fill="#E5E5E5"/>
<path d="M43.6543 15.4688H106.346V50.0033H43.6543V15.4688Z" fill="#F2F2F2"/>
<path d="M67.2871 15.4688H82.7138V50.0033H67.2871V15.4688Z" fill="white"/>
<path d="M20.3496 15.4688H129.649V50.0033H20.3496V15.4688Z" stroke="black" stroke-width="0.443997"/>
<path d="M23.6328 42.9453H76.8057V48.3507H23.6328V42.9453Z" fill="#999999" stroke="black" stroke-width="0.443997"/>
<path d="M83.6982 42.1953H129.65V48.3515H83.6982V42.1953Z" fill="#999999" stroke="black" stroke-width="0.443997"/>
<path d="M20.3501 21.7734L6.56455 24.9266L0 31.2329H6.56455L20.3501 28.0797V21.7734Z" fill="#BFBFBF" stroke="black" stroke-width="0.443997"/>
<path d="M129.65 21.7734L143.108 24.9266L150 31.2329H143.108L129.65 28.0797V21.7734Z" fill="#BFBFBF" stroke="black" stroke-width="0.443997"/>
<path d="M61.3789 94.4453H122.757" stroke="black" stroke-width="0.443997"/>
<path d="M61.3789 92.4922H122.757" stroke="black" stroke-width="0.443997"/>
<path d="M122.757 90.5391H61.3789" stroke="black" stroke-width="0.443997"/>
<path d="M61.3789 88.5859H122.757" stroke="black" stroke-width="0.443997"/>
<path d="M61.3789 86.6328H122.757" stroke="black" stroke-width="0.443997"/>
<path d="M64.6607 13.0592C67.3798 13.0592 69.5841 12.0508 69.5841 10.8069C69.5841 9.56306 67.3798 8.55469 64.6607 8.55469C61.9416 8.55469 59.7373 9.56306 59.7373 10.8069C59.7373 12.0508 61.9416 13.0592 64.6607 13.0592Z" fill="#D9D9D9"/>
<path d="M25.2734 93.6945L47.5929 95.3461V77.3281" stroke="#7F7F7F" stroke-width="0.443997"/>
<path d="M30.5254 100H55.4707V103.003H30.5254V100Z" fill="#7F7F7F" stroke="black" stroke-width="0.443997"/>
<path d="M62.3633 100H87.3086V103.003H62.3633V100Z" fill="#7F7F7F" stroke="black" stroke-width="0.443997"/>
<path d="M94.5293 100H119.475V103.003H94.5293V100Z" fill="#7F7F7F" stroke="black" stroke-width="0.443997"/>
</g>
<defs>
<clipPath id="clip0_2109_231752">
<rect width="150" height="150" fill="white"/>
</clipPath>
</defs>
</svg>
