<svg width="150" height="150" viewBox="0 0 150 150" fill="none" xmlns="http://www.w3.org/2000/svg">
<g clip-path="url(#clip0_2109_233460)">
<path d="M75 149.846C116.421 149.846 150 120.2 150 83.6303C150 47.0601 116.421 17.4141 75 17.4141C33.5786 17.4141 0 47.0601 0 83.6303C0 120.2 33.5786 149.846 75 149.846Z" fill="#E5B200" stroke="black" stroke-width="0.319598"/>
<path d="M51.1904 25.2239L59.1836 13.8125L60.204 22.5212L51.1904 25.2239Z" fill="#D9A600" stroke="black" stroke-width="0.319598"/>
<path d="M74.9996 146.393C114.261 146.393 146.088 118.293 146.088 83.63C146.088 48.967 114.261 20.8672 74.9996 20.8672C35.7385 20.8672 3.91113 48.967 3.91113 83.63C3.91113 118.293 35.7385 146.393 74.9996 146.393Z" fill="#F2BF00"/>
<path d="M75.0002 128.98C103.366 128.98 126.361 108.678 126.361 83.6344C126.361 58.5909 103.366 38.2891 75.0002 38.2891C46.6346 38.2891 23.6396 58.5909 23.6396 83.6344C23.6396 108.678 46.6346 128.98 75.0002 128.98Z" fill="#E5B200"/>
<path d="M90.8162 17.2663V10.3594H59.1836V17.2663L59.8639 22.8218L61.9047 28.0771L65.306 32.8819L69.5577 37.0861L74.9999 40.6897L77.0407 41.7408L87.2448 43.2423L92.687 44.8939L97.9591 47.1462L102.891 49.999L107.313 53.1522L111.224 56.9059L114.626 60.96L117.517 65.3143L119.728 70.1191L121.258 75.0741L122.279 80.1792V85.7347L121.769 90.0891L120.918 94.1432L119.558 98.0471L117.687 101.801L115.476 105.254L112.925 108.708L108.503 113.212L103.231 117.266L99.4897 119.519L95.5782 121.47L91.1564 122.972L86.7346 124.173L82.1428 125.074L77.3809 125.525H74.9999V146.395H78.5713L85.7142 145.795L92.687 144.443L99.3196 142.642L105.782 140.239L111.905 137.386L117.517 133.933L122.789 130.179L127.551 125.825L131.973 121.17L135.714 116.215L139.116 110.81L141.837 105.254L143.877 99.3984L145.238 93.2423L146.088 86.936V83.6326V81.5305L145.408 75.3744L144.728 71.3203L143.537 67.2663L142.177 63.3624L140.476 59.6086L138.605 55.8549L136.394 52.1011L134.014 48.6477L131.292 45.3444L128.401 42.1912L123.469 37.8369L120.068 34.984L116.326 32.5816L112.415 30.1792L110.374 29.1281L96.7686 23.4224L92.3469 20.7197L90.8162 17.2663Z" fill="#FFCC00" stroke="black" stroke-width="0.319598"/>
<path d="M75.0003 115.013C94.6308 115.013 110.544 100.963 110.544 83.6314C110.544 66.2999 94.6308 52.25 75.0003 52.25C55.3697 52.25 39.4561 66.2999 39.4561 83.6314C39.4561 100.963 55.3697 115.013 75.0003 115.013Z" fill="#FFCC00" stroke="black" stroke-width="0.319598"/>
<path d="M47.2793 10.3604H102.721V0H47.2793V10.3604Z" fill="#FFCC00"/>
<path d="M54.4219 10.3604H95.9185V0H54.4219V10.3604Z" fill="#FFDE54"/>
<path d="M61.3945 10.3604H88.9456V0H61.3945V10.3604Z" fill="#FFEDAB"/>
<path d="M68.1973 10.3604H81.8027V0H68.1973V10.3604Z" fill="white"/>
<path d="M47.2793 10.3604H102.721V0H47.2793V10.3604Z" stroke="black" stroke-width="0.319598"/>
<path d="M75.0004 101.054C85.8958 101.054 94.7282 93.2555 94.7282 83.6362C94.7282 74.0168 85.8958 66.2188 75.0004 66.2188C64.1049 66.2188 55.2725 74.0168 55.2725 83.6362C55.2725 93.2555 64.1049 101.054 75.0004 101.054Z" fill="#4C4C4C"/>
<path d="M74.8304 93.9942C81.3113 93.9942 86.5651 89.3557 86.5651 83.6338C86.5651 77.9119 81.3113 73.2734 74.8304 73.2734C68.3495 73.2734 63.0957 77.9119 63.0957 83.6338C63.0957 89.3557 68.3495 93.9942 74.8304 93.9942Z" fill="black"/>
<path d="M76.0206 146.243L60.2043 142.939L47.2791 137.684L34.3539 128.225L23.6396 109.906L35.3743 119.516L47.2791 124.621L62.075 127.324L75.8505 125.822L76.0206 146.243Z" fill="#FFCC00"/>
<path d="M53.2313 102.853L52.2109 100.901L53.2313 98.7993L55.4422 97.8984L57.8232 98.7993L58.8436 100.901L57.8232 102.853L55.4422 103.754L53.2313 102.853Z" fill="#B27F00"/>
<path d="M53.2313 68.619L52.2109 66.5169L53.2313 64.4148L55.4422 63.6641L57.8232 64.4148L58.8436 66.5169L57.8232 68.619L55.4422 69.3698L53.2313 68.619Z" fill="#B27F00"/>
<path d="M92.0066 68.619L91.1562 66.5169L92.0066 64.4148L94.3875 63.6641L96.7685 64.4148L97.6188 66.5169L96.7685 68.619L94.3875 69.3698L92.0066 68.619Z" fill="#B27F00"/>
<path d="M92.0066 102.853L91.1562 100.901L92.0066 98.7993L94.3875 97.8984L96.7685 98.7993L97.6188 100.901L96.7685 102.853L94.3875 103.754L92.0066 102.853Z" fill="#B27F00"/>
<path d="M66.4969 136.485L63.2656 128.978L66.4969 121.62L75.0003 118.617L83.5037 121.62L86.9051 128.978L83.5037 136.485L75.0003 139.488L66.4969 136.485Z" fill="#D9A600"/>
<path d="M66.4969 132.133L63.2656 124.626L66.4969 117.269L75.0003 114.266L83.5037 117.269L86.9051 124.626L83.5037 132.133L75.0003 135.136L66.4969 132.133Z" fill="#FFCC00" stroke="black" stroke-width="0.319598"/>
<path d="M19.5576 150.003V139.492H63.095V143.847H86.9046V139.492H130.272V150.003H19.5576Z" fill="#FFCC00" stroke="black" stroke-width="0.319598"/>
<path d="M110.544 139.492H118.537V150.003H110.544V139.492Z" fill="#D9A600" stroke="black" stroke-width="0.319598"/>
<path d="M31.4629 139.492H39.4561V150.003H31.4629V139.492Z" fill="#D9A600" stroke="black" stroke-width="0.319598"/>
<path d="M63.0957 143.844H86.9052V150H63.0957V143.844Z" fill="#D9A600" stroke="black" stroke-width="0.319598"/>
</g>
<defs>
<clipPath id="clip0_2109_233460">
<rect width="150" height="150" fill="white"/>
</clipPath>
</defs>
</svg>
