<svg width="150" height="150" viewBox="0 0 150 150" fill="none" xmlns="http://www.w3.org/2000/svg">
<g clip-path="url(#clip0_2109_231834)">
<path fill-rule="evenodd" clip-rule="evenodd" d="M59.615 128.375H88.1406L88.7816 134.231L91.0252 139.786L95.8329 144.891L103.525 149.546H73.7175H45.8329L52.2432 144.591L57.0509 139.336L58.974 133.931L59.615 128.375ZM58.974 133.931L57.0509 139.336L52.2432 144.591L47.756 147.894L52.2432 122.519L52.8842 123.12L55.4483 124.771L60.5765 126.423L59.615 128.375L58.974 133.931ZM59.615 126.423H74.3586V128.375H59.615V126.423ZM74.3586 121.918H72.756V126.423H59.615L55.4483 124.771L52.8842 123.12L50.6406 121.168L49.9996 118.915H74.3586V121.918ZM46.474 118.915H101.923V117.264H46.474V118.915ZM46.474 109.456H101.923V116.964H46.474V109.456ZM72.756 97.8945H59.615L55.4483 96.5431L52.8842 94.5912L52.2432 93.9906V104.051L54.8073 102.099L59.615 100.147H72.756V100.447V97.8945ZM74.3586 93.2398H72.756V97.8945H59.615L55.4483 96.5431L52.8842 94.5912L50.6406 92.6392L49.9996 90.387H74.3586V93.2398ZM72.756 108.855H74.9996V107.955L76.2816 108.555L76.9227 109.456H47.115L48.7175 106.903L51.2816 104.351L54.8073 102.099L59.615 100.147H72.756V108.855ZM46.474 90.387H101.923V88.7353H46.474V90.387ZM46.474 81.2278H101.923V88.7353H46.474V81.2278ZM72.756 69.5161H59.615L55.4483 68.3149L52.8842 66.3629L52.2432 65.6122V75.3719L54.8073 73.7203L59.615 71.7683H72.756V72.0686V69.5161ZM74.3586 65.0116H72.756V69.5161H59.615L55.4483 68.3149L52.8842 66.3629L50.6406 64.411L49.9996 62.0086H74.3586V65.0116ZM72.756 80.6272H74.9996V79.5762L76.2816 80.3269L76.9227 81.2278H47.115L48.7175 78.6753L51.2816 75.9725L54.8073 73.7203L59.615 71.7683H72.756V80.6272ZM46.474 62.0086H101.923V60.5071H46.474V62.0086ZM46.474 59.1557H101.923V60.5071H46.474V59.1557ZM59.615 59.1557H88.1406V49.396H59.615V59.1557ZM20.8329 45.1918H126.923V48.0446H20.8329V45.1918ZM4.16627 24.0206V46.0927H0.640625V24.0206H4.16627ZM149.038 24.0206V46.0927H145.833V24.0206H149.038ZM113.141 29.2759V40.9876H145.833V29.2759H113.141ZM35.5765 40.9876V29.2759H4.16627V40.9876H35.5765ZM35.5765 6.60318V11.1077H27.8842L26.2816 10.3569V7.20378L27.8842 6.60318H35.5765ZM31.4099 7.50408L33.974 8.85543L31.4099 9.75633L28.5252 8.85543L31.4099 7.50408ZM113.141 11.1077V6.60318H120.833L122.115 7.20378V10.3569L120.833 11.1077H113.141ZM117.307 7.50408L114.423 8.85543L117.307 9.75633L120.192 8.85543L117.307 7.50408ZM113.141 45.1918H35.5765V1.64823H113.141V45.1918ZM27.8842 0.296875H120.192V1.64823H27.8842V0.296875ZM46.474 49.6963H101.923V48.0446H46.474V49.6963Z" fill="#0000FF"/>
<path d="M59.6151 128.375H88.1407L88.7817 134.231L91.0253 139.786L95.833 144.892L103.525 149.546H73.7176H45.833L52.2433 144.591L57.051 139.336L58.974 133.931L59.6151 128.375Z" stroke="black" stroke-width="0.438748"/>
<path d="M59.6158 128.379L58.9748 133.935L57.0517 139.34L52.244 144.596L47.7568 147.899L52.244 122.523L52.885 123.124L55.4491 124.776L60.5773 126.427L59.6158 128.379Z" stroke="black" stroke-width="0.438748"/>
<path d="M59.6152 126.43H74.3588V128.382H59.6152V126.43Z" stroke="black" stroke-width="0.438748"/>
<path d="M74.359 121.925H72.7564V126.429H59.6154L55.4487 124.778L52.8846 123.126L50.641 121.174L50 118.922H74.359V121.925Z" stroke="black" stroke-width="0.438748"/>
<path d="M46.4746 118.917H101.923V117.266H46.4746V118.917Z" stroke="black" stroke-width="0.438748"/>
<path d="M46.4746 109.461H101.923V116.968H46.4746V109.461Z" stroke="black" stroke-width="0.438748"/>
<path d="M72.756 97.8961H59.615L55.4483 96.5447L52.8842 94.5928L52.2432 93.9922V104.052L54.8073 102.1L59.615 100.148H72.756V100.449V97.8961Z" stroke="black" stroke-width="0.438748"/>
<path d="M74.359 93.2435H72.7564V97.8981H59.6154L55.4487 96.5468L52.8846 94.5948L50.641 92.6429L50 90.3906H74.359V93.2435Z" stroke="black" stroke-width="0.438748"/>
<path d="M72.7563 108.857H74.9998V107.956L76.2819 108.557L76.9229 109.458H47.1152L48.7178 106.905L51.2819 104.353L54.8075 102.1L59.6152 100.148H72.7563V108.857Z" stroke="black" stroke-width="0.438748"/>
<path d="M46.4746 90.3938H101.923V88.7422H46.4746V90.3938Z" stroke="black" stroke-width="0.438748"/>
<path d="M46.4746 81.2344H101.923V88.7419H46.4746V81.2344Z" stroke="black" stroke-width="0.438748"/>
<path d="M72.756 69.5211H59.615L55.4483 68.3199L52.8842 66.3679L52.2432 65.6172V75.3769L54.8073 73.7253L59.615 71.7733H72.756V72.0736V69.5211Z" stroke="black" stroke-width="0.438748"/>
<path d="M74.359 65.0186H72.7564V69.5231H59.6154L55.4487 68.3219L52.8846 66.37L50.641 64.418L50 62.0156H74.359V65.0186Z" stroke="black" stroke-width="0.438748"/>
<path d="M72.7563 80.6323H74.9998V79.5812L76.2819 80.332L76.9229 81.2329H47.1152L48.7178 78.6803L51.2819 75.9776L54.8075 73.7254L59.6152 71.7734H72.7563V80.6323Z" stroke="black" stroke-width="0.438748"/>
<path d="M46.4746 62.0093H101.923V60.5078H46.4746V62.0093Z" stroke="black" stroke-width="0.438748"/>
<path d="M46.4746 59.1562H101.923V60.5076H46.4746V59.1562Z" stroke="black" stroke-width="0.438748"/>
<path d="M59.6152 59.1582H88.1409V49.3984H59.6152V59.1582Z" stroke="black" stroke-width="0.438748"/>
<path d="M20.833 45.1953H126.923V48.0482H20.833V45.1953Z" stroke="black" stroke-width="0.438748"/>
<path d="M4.16627 24.0234V46.0955H0.640625V24.0234H4.16627Z" stroke="black" stroke-width="0.438748"/>
<path d="M149.038 24.0234V46.0955H145.833V24.0234H149.038Z" stroke="black" stroke-width="0.438748"/>
<path d="M113.141 29.2812V40.993H145.833V29.2812H113.141Z" stroke="black" stroke-width="0.438748"/>
<path d="M35.5772 40.993V29.2812H4.16699V40.993H35.5772Z" stroke="black" stroke-width="0.438748"/>
<path d="M35.5771 6.60938V11.1139H27.8848L26.2822 10.3631V7.20998L27.8848 6.60938H35.5771Z" stroke="black" stroke-width="0.438748"/>
<path d="M31.41 7.50781L33.9741 8.85916L31.41 9.76006L28.5254 8.85916L31.41 7.50781Z" stroke="black" stroke-width="0.438748"/>
<path d="M113.141 11.1139V6.60938H120.833L122.115 7.20998V10.3631L120.833 11.1139H113.141Z" stroke="black" stroke-width="0.438748"/>
<path d="M117.307 7.50781L114.423 8.85916L117.307 9.76006L120.192 8.85916L117.307 7.50781Z" stroke="black" stroke-width="0.438748"/>
<path d="M113.141 45.192H35.5771V1.64844H113.141V45.192Z" stroke="black" stroke-width="0.438748"/>
<path d="M27.8848 0.296875H120.192V1.64823H27.8848V0.296875Z" stroke="black" stroke-width="0.438748"/>
<path d="M46.4746 49.6985H101.923V48.0469H46.4746V49.6985Z" stroke="black" stroke-width="0.438748"/>
<path d="M33.333 0.296875H42.3074V1.34793H33.333V0.296875Z" fill="#7F7FFF"/>
<path d="M113.141 29.8828V31.2342H145.833V29.8828H113.141Z" fill="#7F7FFF"/>
<path d="M35.5772 31.2342V29.8828H4.16699V31.2342H35.5772Z" fill="#7F7FFF"/>
<path d="M40.3848 44.8917H47.1155V1.64844H40.3848V44.8917Z" fill="#7F7FFF"/>
<path d="M27.8848 45.1953H37.5002V47.7479H27.8848V45.1953Z" fill="#7F7FFF"/>
<path d="M49.3594 49.4009H54.8081V48.5H49.3594V49.4009Z" fill="#7F7FFF"/>
<path d="M60.5771 59.1582H62.5002V49.3984H60.5771V59.1582Z" fill="#7F7FFF"/>
<path d="M49.3594 59.1562H54.8081V60.5076H49.3594V59.1562Z" fill="#7F7FFF"/>
<path d="M47.1152 81.5312H54.1665V88.4382H47.1152V81.5312Z" fill="#7F7FFF"/>
<path d="M60.5771 71.7723H62.5002V69.8203H60.5771V71.7723Z" fill="#7F7FFF"/>
<path d="M61.2181 69.5231L58.3335 68.9225L56.0899 67.8715L54.8079 66.9706L53.5258 66.37L52.8848 65.3189L52.2438 64.418L51.2822 63.367V62.0156H55.4489V63.367V64.418L56.0899 65.3189L57.0515 65.9195L58.3335 66.9706L59.6156 67.8715L61.2181 68.9225L63.1412 69.5231H61.2181Z" fill="#7F7FFF"/>
<path d="M54.8081 81.2329H47.7568L48.7184 80.0317L49.3594 78.6803L50.6415 77.329L51.2825 76.4281L53.5261 75.0767L54.8081 74.1758L57.6927 73.1248L59.6158 71.7734L61.8594 72.0737L61.2184 73.1248L59.6158 74.4761L58.3338 75.377L57.0517 76.7284L56.0902 77.6293L55.4491 78.9806V80.332L54.8081 81.2329Z" fill="#7F7FFF"/>
<path d="M47.1152 109.906H54.1665V116.663H47.1152V109.906Z" fill="#7F7FFF"/>
<path d="M60.5771 100.147H62.5002V98.1953H60.5771V100.147Z" fill="#7F7FFF"/>
<path d="M61.2181 97.8981L58.3335 97.1474L56.0899 96.2465L54.8079 95.1954L53.5258 94.5948L52.8848 93.5438L52.2438 92.6429L51.2822 91.5918V90.3906H55.4489V91.5918V92.6429L56.0899 93.5438L57.0515 94.2945L58.3335 95.1954L59.6156 96.2465L61.2181 97.1474L63.1412 97.8981H61.2181Z" fill="#7F7FFF"/>
<path d="M54.8081 109.458H47.7568L48.7184 108.257L49.3594 106.905L50.6415 105.704L51.2825 104.653L53.5261 103.302L54.8081 102.401L57.6927 101.35L59.6158 100.148L61.8594 100.449L61.2184 101.35L59.6158 102.701L58.3338 103.602L57.0517 104.953L56.0902 106.004L55.4491 107.205V108.557L54.8081 109.458Z" fill="#7F7FFF"/>
<path d="M49.3594 118.621H54.8081V117.57H49.3594V118.621Z" fill="#7F7FFF"/>
<path d="M61.2181 126.129L58.3335 125.378L56.0899 124.477L54.8079 123.877L53.5258 122.826L52.8848 121.925L52.2438 120.874L51.2822 119.973V118.922H55.4489V119.973V120.874L56.0899 121.925L57.0515 122.826L58.3335 123.877L59.6156 124.477L61.2181 125.378L63.1412 126.129H61.2181Z" fill="#7F7FFF"/>
<path d="M61.2178 126.43H62.4998V128.081H61.2178V126.43Z" fill="#7F7FFF"/>
<path d="M46.4746 149.096L52.2438 144.892L57.0515 139.786L59.6156 134.231L60.5772 130.627V128.375H62.5002V131.979V138.735L61.2182 143.991L58.3336 147.895L56.09 149.096H46.4746Z" fill="#7F7FFF"/>
<path d="M49.3594 90.3904H54.8081V89.0391H49.3594V90.3904Z" fill="#7F7FFF"/>
<path d="M49.3594 62.0137H54.8081V60.8125H49.3594V62.0137Z" fill="#7F7FFF"/>
<path d="M148.398 25.375V27.6273H146.475V25.375H148.398Z" fill="#7F7FFF"/>
<path d="M4.16627 25.375V27.6273H0.640625V25.375H4.16627Z" fill="#7F7FFF"/>
<path d="M88.1414 126.43H74.3594V128.382H88.1414V126.43Z" fill="#0000BF"/>
<path d="M88.1406 128.376L88.7817 134.232L91.0252 139.787L95.8329 144.892L99.9996 147.145L95.8329 122.82V123.121L92.3073 124.772L88.1406 126.424V128.376Z" fill="#0000BF"/>
<path d="M74.3594 121.925H75.0004V126.429H88.1414L92.3081 124.778L95.8337 123.126L97.1158 121.174L97.7568 118.922H74.3594V121.925Z" fill="#0000BF"/>
<path d="M82.0518 118.917H101.924V117.266H82.0518V118.917Z" fill="#0000BF"/>
<path d="M76.9229 109.461H101.923V116.968H76.9229V109.461Z" fill="#0000BF"/>
<path d="M75 97.8961H88.141L92.3077 96.5447L95.8333 94.5928L96.4744 93.9922V104.052L92.9487 102.1L88.141 100.148H75V100.449V97.8961Z" fill="#0000BF"/>
<path d="M75 107.956L76.2821 108.557L76.9231 109.458H100.641L99.359 106.905L97.1154 104.353L92.9487 102.1L88.141 100.148H75V107.956Z" fill="#0000BF"/>
<path d="M74.3594 93.2435H75.0004V97.8981H88.1414L92.3081 96.5468L95.8337 94.5948L97.1158 92.6429L97.7568 90.3906H74.3594V93.2435Z" fill="#0000BF"/>
<path d="M82.0518 90.3904H101.924V89.0391H82.0518V90.3904Z" fill="#0000BF"/>
<path d="M76.9229 81.2344H101.923V88.7419H76.9229V81.2344Z" fill="#0000BF"/>
<path d="M75 69.5211H88.141L92.3077 68.3199L95.8333 66.3679L96.4744 65.6172V75.3769L92.9487 73.7253L88.141 71.7733H75V69.5211Z" fill="#0000BF"/>
<path d="M75 79.5812L76.2821 80.332L76.9231 81.2329H100.641L99.359 78.6803L97.1154 75.9776L92.9487 73.7254L88.141 71.7734H75V79.5812Z" fill="#0000BF"/>
<path d="M74.3594 65.0186H75.0004V69.5231H88.1414L92.3081 68.3219L95.8337 66.37L97.1158 64.418L97.7568 62.0156H74.3594V65.0186Z" fill="#0000BF"/>
<path d="M82.0518 62.0137H101.924V60.8125H82.0518V62.0137Z" fill="#0000BF"/>
<path d="M82.0518 59.1562H101.924V60.5076H82.0518V59.1562Z" fill="#0000BF"/>
<path d="M76.9229 59.1582H88.1408V49.3984H76.9229V59.1582Z" fill="#0000BF"/>
<path d="M82.0518 49.6985H101.924V48.0469H82.0518V49.6985Z" fill="#0000BF"/>
<path d="M4.16627 38.4375V46.0952H0.640625V38.4375H4.16627Z" fill="#0000BF"/>
<path d="M149.038 38.4375V46.0952H145.833V38.4375H149.038Z" fill="#0000BF"/>
<path d="M113.141 36.7891V40.9933H145.833V36.7891H113.141Z" fill="#0000BF"/>
<path d="M35.5772 40.9933V36.7891H4.16699V40.9933H35.5772Z" fill="#0000BF"/>
<path d="M113.141 45.192H84.6152V1.64844H113.141V45.192Z" fill="#0000BF"/>
<path d="M86.8594 0.296875H120.193V1.64823H86.8594V0.296875Z" fill="#0000BF"/>
<path d="M88.7822 45.1953H126.923V47.7479H88.7822V45.1953Z" fill="#0000BF"/>
<path d="M65.3848 10.8125H83.3336L88.1412 12.7645V28.6804L83.3336 30.6323H65.3848L60.5771 28.6804V12.7645L65.3848 10.8125Z" fill="black" stroke="black" stroke-width="0.438748"/>
<path d="M72.7568 148.195H75.0004V121.469H72.7568V148.195Z" fill="#0000AD"/>
<path d="M72.7568 108.858H75.0004V93.2422H72.7568V108.858Z" fill="#0000AD"/>
<path d="M72.7568 80.6312H75.0004V65.0156H72.7568V80.6312Z" fill="#0000AD"/>
<path d="M113.141 45.192H106.09V1.64844H113.141V45.192Z" fill="#0000AD"/>
<path d="M111.859 0.296875H120.193V1.64823H111.859V0.296875Z" fill="#0000AD"/>
<path d="M117.948 45.1953H126.923V48.0482H117.948V45.1953Z" fill="#0000AD"/>
<path d="M97.1152 118.917H101.923V117.266H97.1152V118.917Z" fill="#0000AD"/>
<path d="M97.1152 90.3938H101.923V88.7422H97.1152V90.3938Z" fill="#0000AD"/>
<path d="M97.1152 62.0093H101.923V60.5078H97.1152V62.0093Z" fill="#0000AD"/>
<path d="M97.1152 59.1562H101.923V60.5076H97.1152V59.1562Z" fill="#0000AD"/>
<path d="M97.1152 49.6985H101.923V48.0469H97.1152V49.6985Z" fill="#0000AD"/>
<path d="M4.16627 44.1406V46.0926H0.640625V44.1406H4.16627Z" fill="#0000AD"/>
<path d="M149.038 44.1406V46.0926H145.833V44.1406H149.038Z" fill="#0000AD"/>
<path d="M113.141 39.9375V40.9886H145.833V39.9375H113.141Z" fill="#0000AD"/>
<path d="M35.5772 40.9886V39.9375H4.16699V40.9886H35.5772Z" fill="#0000AD"/>
<path d="M96.4744 119.973H99.359H100V118.922H95.1924V119.973H96.4744Z" fill="#7F7F7F"/>
<path d="M84.6151 119.973H87.4997H88.1407V118.922H83.333V119.973H84.6151Z" fill="#7F7F7F"/>
<path d="M72.1156 119.973H75.0003H76.2823V118.922H71.4746V119.973H72.1156Z" fill="#7F7F7F"/>
<path d="M60.5768 119.973H63.1409H64.4229V118.922H59.6152V119.973H60.5768Z" fill="#7F7F7F"/>
<path d="M48.7178 119.973H51.2819H52.2434V118.922H47.1152V119.973H48.7178Z" fill="#7F7F7F"/>
<path d="M96.4744 91.2915V91.5918H99.359V91.2915H100V90.3906H95.1924V91.2915H96.4744Z" fill="#7F7F7F"/>
<path d="M84.6151 91.2915V91.5918H87.4997V91.2915H88.1407V90.3906H83.333V91.2915H84.6151Z" fill="#7F7F7F"/>
<path d="M72.1156 91.2915V91.5918H75.0003V91.2915H76.2823V90.3906H71.4746V91.2915H72.1156Z" fill="#7F7F7F"/>
<path d="M60.5768 91.2915V91.5918H63.1409V91.2915H64.4229V90.3906H59.6152V91.2915H60.5768Z" fill="#7F7F7F"/>
<path d="M48.7178 91.2915V91.5918H51.2819V91.2915H52.2434V90.3906H47.1152V91.2915H48.7178Z" fill="#7F7F7F"/>
<path d="M96.4744 63.0667V63.367H99.359V63.0667H100V62.0156H95.1924V63.0667H96.4744Z" fill="#7F7F7F"/>
<path d="M84.6151 63.0667V63.367H87.4997V63.0667H88.1407V62.0156H83.333V63.0667H84.6151Z" fill="#7F7F7F"/>
<path d="M72.1156 63.0667V63.367H75.0003V63.0667H76.2823V62.0156H71.4746V63.0667H72.1156Z" fill="#7F7F7F"/>
<path d="M60.5768 63.0667V63.367H63.1409V63.0667H64.4229V62.0156H59.6152V63.0667H60.5768Z" fill="#7F7F7F"/>
<path d="M48.7178 63.0667V63.367H51.2819V63.0667H52.2434V62.0156H47.1152V63.0667H48.7178Z" fill="#7F7F7F"/>
<path d="M96.4744 58.105V57.8047H99.359V58.105H100V59.156H95.1924V58.105H96.4744Z" fill="#7F7F7F"/>
<path d="M84.6151 58.105V57.8047H87.4997V58.105H88.1407V59.156H83.333V58.105H84.6151Z" fill="#7F7F7F"/>
<path d="M72.1156 58.105V57.8047H75.0003V58.105H76.2823V59.156H71.4746V58.105H72.1156Z" fill="#7F7F7F"/>
<path d="M60.5768 58.105V57.8047H63.1409V58.105H64.4229V59.156H59.6152V58.105H60.5768Z" fill="#7F7F7F"/>
<path d="M48.7178 58.105V57.8047H51.2819V58.105H52.2434V59.156H47.1152V58.105H48.7178Z" fill="#7F7F7F"/>
<path d="M96.4744 50.7542H99.359H100V49.7031H95.1924V50.7542H96.4744Z" fill="#7F7F7F"/>
<path d="M84.6151 50.7542H87.4997H88.1407V49.7031H83.333V50.7542H84.6151Z" fill="#7F7F7F"/>
<path d="M72.1156 50.7542H75.0003H76.2823V49.7031H71.4746V50.7542H72.1156Z" fill="#7F7F7F"/>
<path d="M60.5768 50.7542H63.1409H64.4229V49.7031H59.6152V50.7542H60.5768Z" fill="#7F7F7F"/>
<path d="M48.7178 50.7542H51.2819H52.2434V49.7031H47.1152V50.7542H48.7178Z" fill="#7F7F7F"/>
<path d="M98.7182 50.7542V49.7031H96.4746V50.7542H98.7182Z" fill="#B2B2B2"/>
<path d="M86.8588 50.7542V49.7031H84.6152V50.7542H86.8588Z" fill="#B2B2B2"/>
<path d="M74.9998 50.7542V49.7031H72.1152V50.7542H74.9998Z" fill="#B2B2B2"/>
<path d="M63.1413 50.7542V49.7031H60.5771V50.7542H63.1413Z" fill="#B2B2B2"/>
<path d="M50.6409 50.7542V49.7031H48.7178V50.7542H50.6409Z" fill="#B2B2B2"/>
<path d="M98.7182 58.1094V58.8601H96.4746V58.1094H98.7182Z" fill="#B2B2B2"/>
<path d="M86.8588 58.1094V58.8601H84.6152V58.1094H86.8588Z" fill="#B2B2B2"/>
<path d="M74.9998 58.1094V58.8601H72.1152V58.1094H74.9998Z" fill="#B2B2B2"/>
<path d="M63.1413 58.1094V58.8601H60.5771V58.1094H63.1413Z" fill="#B2B2B2"/>
<path d="M50.6409 58.1094V58.8601H48.7178V58.1094H50.6409Z" fill="#B2B2B2"/>
<path d="M98.7182 63.0615V62.4609H96.4746V63.0615H98.7182Z" fill="#B2B2B2"/>
<path d="M86.8588 63.0615V62.4609H84.6152V63.0615H86.8588Z" fill="#B2B2B2"/>
<path d="M74.9998 63.0615V62.4609H72.1152V63.0615H74.9998Z" fill="#B2B2B2"/>
<path d="M63.1413 63.0615V62.4609H60.5771V63.0615H63.1413Z" fill="#B2B2B2"/>
<path d="M50.6409 63.0615V62.4609H48.7178V63.0615H50.6409Z" fill="#B2B2B2"/>
<path d="M98.7182 91.2881V90.6875H96.4746V91.2881H98.7182Z" fill="#B2B2B2"/>
<path d="M86.8588 91.2881V90.6875H84.6152V91.2881H86.8588Z" fill="#B2B2B2"/>
<path d="M74.9998 91.2881V90.6875H72.1152V91.2881H74.9998Z" fill="#B2B2B2"/>
<path d="M63.1413 91.2881V90.6875H60.5771V91.2881H63.1413Z" fill="#B2B2B2"/>
<path d="M50.6409 91.2881V90.6875H48.7178V91.2881H50.6409Z" fill="#B2B2B2"/>
<path d="M98.7182 119.673V118.922H96.4746V119.673H98.7182Z" fill="#B2B2B2"/>
<path d="M86.8588 119.673V118.922H84.6152V119.673H86.8588Z" fill="#B2B2B2"/>
<path d="M74.9998 119.673V118.922H72.1152V119.673H74.9998Z" fill="#B2B2B2"/>
<path d="M63.1413 119.673V118.922H60.5771V119.673H63.1413Z" fill="#B2B2B2"/>
<path d="M50.6409 119.673V118.922H48.7178V119.673H50.6409Z" fill="#B2B2B2"/>
<path d="M47.7568 119.673V118.922H48.7184V119.673H47.7568Z" fill="white"/>
<path d="M59.6152 119.673V118.922H60.5768V119.673H59.6152Z" fill="white"/>
<path d="M71.4746 119.673V118.922H72.1156V119.673H71.4746Z" fill="white"/>
<path d="M83.333 119.673V118.922H84.6151V119.673H83.333Z" fill="white"/>
<path d="M95.833 119.673V118.922H96.474V119.673H95.833Z" fill="white"/>
<path d="M47.7568 91.2881V90.6875H48.7184V91.2881H47.7568Z" fill="white"/>
<path d="M59.6152 91.2881V90.6875H60.5768V91.2881H59.6152Z" fill="white"/>
<path d="M71.4746 91.2881V90.6875H72.1156V91.2881H71.4746Z" fill="white"/>
<path d="M83.333 91.2881V90.6875H84.6151V91.2881H83.333Z" fill="white"/>
<path d="M95.833 91.2881V90.6875H96.474V91.2881H95.833Z" fill="white"/>
<path d="M47.7568 63.0615V62.4609H48.7184V63.0615H47.7568Z" fill="white"/>
<path d="M59.6152 63.0615V62.4609H60.5768V63.0615H59.6152Z" fill="white"/>
<path d="M71.4746 63.0615V62.4609H72.1156V63.0615H71.4746Z" fill="white"/>
<path d="M83.333 63.0615V62.4609H84.6151V63.0615H83.333Z" fill="white"/>
<path d="M95.833 63.0615V62.4609H96.474V63.0615H95.833Z" fill="white"/>
<path d="M47.7568 58.1094V58.8601H48.7184V58.1094H47.7568Z" fill="white"/>
<path d="M59.6152 58.1094V58.8601H60.5768V58.1094H59.6152Z" fill="white"/>
<path d="M71.4746 58.1094V58.8601H72.1156V58.1094H71.4746Z" fill="white"/>
<path d="M83.333 58.1094V58.8601H84.6151V58.1094H83.333Z" fill="white"/>
<path d="M95.833 58.1094V58.8601H96.474V58.1094H95.833Z" fill="white"/>
<path d="M47.7568 50.7542V49.7031H48.7184V50.7542H47.7568Z" fill="white"/>
<path d="M59.6152 50.7542V49.7031H60.5768V50.7542H59.6152Z" fill="white"/>
<path d="M71.4746 50.7542V49.7031H72.1156V50.7542H71.4746Z" fill="white"/>
<path d="M83.333 50.7542V49.7031H84.6151V50.7542H83.333Z" fill="white"/>
<path d="M95.833 50.7542V49.7031H96.474V50.7542H95.833Z" fill="white"/>
<path d="M46.4746 109.461H101.923V116.968H46.4746V109.461Z" stroke="black" stroke-width="0.438748"/>
<path d="M46.4746 81.2344H101.923V88.7419H46.4746V81.2344Z" stroke="black" stroke-width="0.438748"/>
</g>
<defs>
<clipPath id="clip0_2109_231834">
<rect width="150" height="150" fill="white"/>
</clipPath>
</defs>
</svg>
