<svg width="150" height="150" viewBox="0 0 150 150" fill="none" xmlns="http://www.w3.org/2000/svg">
<g clip-path="url(#clip0_2109_231445)">
<path d="M138.438 63.6172V95.76H145.045V63.6172H138.438Z" fill="#0000FF" stroke="black" stroke-width="0.366146"/>
<path d="M149.4 105.135H144.745V54.2422H149.4V105.135Z" fill="#0000FF" stroke="black" stroke-width="0.366146"/>
<path d="M149.399 58.4833H145.045V54.2422H149.399V58.4833Z" fill="#7F7FFF"/>
<path d="M138.438 63.6172V66.2958H145.045V63.6172H138.438Z" fill="#7F7FFF"/>
<path d="M149.399 105.131H145.045V101.336H149.399V105.131Z" fill="#0000AD"/>
<path d="M138.438 93.5234V95.7556H145.045V93.5234H138.438Z" fill="#0000AD"/>
<path d="M149.399 105.135H145.045V54.2422H149.399V105.135Z" stroke="black" stroke-width="0.366146"/>
<path d="M138.438 63.6172V95.76H145.045V63.6172H138.438Z" stroke="black" stroke-width="0.366146"/>
<path d="M105.255 47.7656H114.564V112.944H105.255V47.7656Z" fill="#0000BF" stroke="black" stroke-width="0.366146"/>
<path d="M81.0816 120.984H84.2347V145.761H90.0906V149.333H19.8203V145.761H22.6732V120.984H25.8263V145.761H81.0816V120.984Z" fill="#0000AD" stroke="black" stroke-width="0.366146"/>
<path d="M87.9882 39.2824H90.5407L91.4417 40.6217L93.2435 80.3538L91.4417 119.416L90.5407 120.979H88.2885L86.3365 121.872H4.80502L1.35156 117.184V43.5234L4.80502 38.8359H86.3365L87.9882 39.2824Z" fill="#7F7FFF" stroke="black" stroke-width="0.366146"/>
<path d="M5.85605 125.22L1.95215 121.872V38.3895L5.85605 34.1484H19.2194L21.4717 79.4609L19.2194 125.22H5.85605Z" fill="#0000FF" stroke="black" stroke-width="0.366146"/>
<path d="M19.5195 38.8359L21.4715 79.4609L19.5195 121.872H89.7898L90.8409 120.979H93.5436L94.8949 119.416L96.997 79.9074L94.8949 40.6217L93.5436 39.2824H90.8409L89.7898 38.8359H19.5195Z" fill="#0000FF" stroke="black" stroke-width="0.366146"/>
<path d="M94.8945 120.086V119.416L96.9966 79.9074L94.8945 40.6217L96.0957 38.8359L100.45 41.0681L102.402 42.1842H104.955L105.555 43.5234L107.657 79.9074L105.555 116.291L104.955 117.184H102.702L100.45 118.077L96.0957 121.872L94.8945 120.086Z" fill="#0000FF" stroke="black" stroke-width="0.366146"/>
<path d="M19.8194 43.9766L19.2188 36.1641H85.7353H85.8854H86.1857L86.3359 36.3873L86.6362 36.6105L86.9365 36.8337L87.0866 37.0569L87.2368 37.2801L87.3869 37.5033V42.1908L87.2368 42.6373L87.0866 43.0837L86.9365 43.3069L86.6362 43.5301L86.3359 43.7533L86.1857 43.9766H85.8854H85.7353H19.8194Z" fill="#7F7FFF" stroke="black" stroke-width="0.366146"/>
<path d="M19.5195 116.292L19.8198 108.703H86.036L87.3874 110.712V114.953L86.036 116.292H19.5195Z" fill="#0000FF" stroke="black" stroke-width="0.366146"/>
<path d="M1.9517 38.3906L3.30305 79.4621L1.9517 121.873L0.450195 79.4621L1.9517 38.3906Z" fill="#0000BF" stroke="black" stroke-width="0.366146"/>
<path d="M87.6875 39.7344L89.7896 80.3594L87.6875 120.984" stroke="black" stroke-width="0.366146"/>
<path d="M90.0897 50H90.8405L91.1408 52.4554L90.8405 54.6875H84.5342V50H90.0897Z" fill="#7F7FFF" stroke="black" stroke-width="0.366146"/>
<path d="M20.1206 52.0112L19.8203 44.4219H87.6882L88.5891 46.4308V50.0022L87.6882 52.0112H20.1206Z" fill="#7F7FFF" stroke="black" stroke-width="0.366146"/>
<path d="M90.8405 103.57L91.1408 106.026L90.8405 108.258H84.5342V103.57H90.8405Z" fill="#7F7FFF" stroke="black" stroke-width="0.366146"/>
<path d="M20.5706 58.9319L20.1201 53.3516H88.2883L88.8889 54.2444V58.0391L88.2883 58.9319H20.5706Z" fill="#0000FF" stroke="black" stroke-width="0.366146"/>
<path d="M27.3271 67.8594H77.9277V97.1004H27.3271V67.8594Z" fill="#7F7F7F" stroke="black" stroke-width="0.366146"/>
<path d="M28.3779 68.75H78.8284V98.6607H28.3779V68.75Z" fill="#7F7FFF" stroke="black" stroke-width="0.366146"/>
<path d="M36.7871 73.8828H70.1204V93.5257H36.7871V73.8828Z" fill="#7F7F7F" stroke="black" stroke-width="0.366146"/>
<path d="M125.525 139.953H128.078V145.757H134.084V149.328H110.811V145.757H125.525V139.953Z" fill="#0000AD" stroke="black" stroke-width="0.366146"/>
<path d="M114.564 121.43H117.417V128.349H114.564V121.43Z" fill="#B2B2B2"/>
<path d="M142.192 0.671875V6.69866H111.562V0.671875H142.192Z" fill="#0000FF" stroke="black" stroke-width="0.366146"/>
<path d="M134.084 23.8828H119.67V6.69531H134.084V23.8828Z" fill="#0000FF" stroke="black" stroke-width="0.366146"/>
<path d="M122.222 23.8828H120.57V6.69531H122.222V23.8828Z" fill="#7F7FFF"/>
<path d="M134.084 23.8828H131.531V6.69531H134.084V23.8828Z" fill="#0000AD"/>
<path d="M113.964 0.671875V6.69866H111.562V0.671875H113.964Z" fill="#7F7FFF"/>
<path d="M142.192 0.671875V6.69866H140.09V0.671875H142.192Z" fill="#0000AD"/>
<path d="M142.192 0.671875V6.69866H111.562V0.671875H142.192Z" stroke="black" stroke-width="0.366146"/>
<path d="M114.564 31.9219H117.417V128.35H114.564V31.9219Z" fill="#0000FF" stroke="black" stroke-width="0.366146"/>
<path d="M135.886 50H138.438V110.714H135.886V50Z" fill="#E0E0E0" stroke="black" stroke-width="0.366146"/>
<path d="M135.886 106.023H138.438V110.711H135.886V106.023Z" fill="#B2B2B2"/>
<path d="M114.564 34.6016H117.417V40.6283H114.564V34.6016Z" fill="#7F7FFF"/>
<path d="M135.886 51.5625H138.438V55.1339H135.886V51.5625Z" fill="#F0F0F0"/>
<path d="M112.462 34.6016H114.564V41.0748H112.462V39.7355H112.012V35.7176H112.462V34.6016Z" fill="#CCCCCC" stroke="black" stroke-width="0.366146"/>
<path d="M112.462 118.523H114.564V125.22H112.462V123.657H112.012V120.086H112.462V118.523Z" fill="#CCCCCC" stroke="black" stroke-width="0.366146"/>
<path d="M112.462 90.1797H114.564V97.0993H112.462V95.76H112.012V91.519H112.462V90.1797Z" fill="#CCCCCC" stroke="black" stroke-width="0.366146"/>
<path d="M112.462 61.1641H114.564V67.8605H112.462V66.298H112.012V62.7266H112.462V61.1641Z" fill="#CCCCCC" stroke="black" stroke-width="0.366146"/>
<path d="M114.564 31.9219H117.417V128.35H114.564V31.9219Z" stroke="black" stroke-width="0.366146"/>
<path d="M135.886 50H138.438V110.714H135.886V50Z" stroke="black" stroke-width="0.366146"/>
<path d="M135.885 128.797V31.4754L135.285 25.8951L133.033 21.2076L130.33 18.7522L126.876 17.8594L123.423 18.7522L120.57 21.2076L118.318 25.8951L117.417 31.4754V128.797L118.318 135.047L120.57 139.065L123.423 141.967L126.876 142.859L130.33 141.967L133.033 139.065L135.285 135.047L135.885 128.797Z" fill="#0000FF" stroke="black" stroke-width="0.366146"/>
<path d="M119.67 23.4364L121.472 20.7578L120.871 27.231V132.588L119.97 134.374L118.619 132.588V27.231L119.67 23.4364Z" fill="#7F7FFF"/>
<path d="M6.15652 33.7031L5.10547 79.9085L6.15652 126.114" stroke="black" stroke-width="0.366146"/>
</g>
<defs>
<clipPath id="clip0_2109_231445">
<rect width="150" height="150" fill="white"/>
</clipPath>
</defs>
</svg>
