<svg width="150" height="150" viewBox="0 0 150 150" fill="none" xmlns="http://www.w3.org/2000/svg">
<g clip-path="url(#clip0_2109_233774)">
<path d="M123.273 52.3491L123.874 57.0513L124.324 61.9103V68.9636L123.724 74.4495L122.823 80.0921L121.321 85.4212L119.369 90.7504L117.117 95.7661L114.264 100.625L111.261 105.17L107.658 109.402L103.904 113.321L99.6997 116.769L111.862 149.214H13.2132L25.3754 116.769L21.1712 113.321L17.4174 109.402L13.9639 105.17L10.8108 100.625L8.10809 95.7661L5.70569 90.7504L3.90389 85.4212L2.40239 80.0921L1.35134 74.4495L0.900886 70.8444L0.600586 68.9636V67.0827V61.9103L1.35134 55.4839L2.55254 49.0576L4.35434 42.9448L6.75674 37.3021L9.6096 31.8162L13.063 26.6438L16.8168 21.9416L21.021 17.5529L25.5255 13.4777L30.4805 10.0294L35.8859 7.05133L41.2913 4.5435L47.1471 2.66262L53.1531 1.4087L56.3063 1.09522L59.4594 0.625H62.7627H149.249V52.3491H123.273Z" fill="#006600"/>
<path d="M121.922 47.6479L126.426 47.4911L131.982 47.3344H135.135H134.985H144.444H149.249V46.0805V6.58204V5.32812H85.7354L90.5402 7.67922L95.1948 10.5005L99.5492 13.6353L103.603 17.0836L107.357 20.8454L110.81 25.0773L113.813 29.4661L116.666 34.0115L118.919 39.0272L121.021 44.1996L121.471 45.9237L121.922 47.6479Z" fill="#008C00"/>
<path d="M120.421 42.6331H149.249V10.5015L95.1953 10.0312L97.2974 11.5986L99.3995 13.166L101.351 14.7334L103.303 16.6143L105.105 18.3385L107.057 20.3761L108.709 22.257L110.36 24.2946L111.862 26.4889L113.363 28.5265L114.865 30.8776L116.216 33.072L117.418 35.5798L118.469 37.7742L119.52 40.1253L120.421 42.6331Z" fill="#00B200"/>
<path d="M93.2428 33.3854L88.8884 37.7741L84.5341 34.0123L79.8794 30.8775L74.7743 28.5265L69.6692 27.1158L64.2638 26.4888L59.0085 26.6456L53.7533 27.586L48.498 29.3101L43.6932 31.818L39.0386 35.1095L34.9845 39.1848L31.5311 43.887L28.8284 48.9026L27.0266 54.2318L25.9755 59.7177L25.5251 65.2036L25.9755 70.8462L27.0266 76.3321L28.8284 81.5045L31.5311 86.5202L34.9845 91.0656L36.1857 92.4763L31.8314 97.3352L30.3299 95.6111L27.6272 92.0061L25.2248 88.4011L23.2728 84.4826L21.7713 80.4073L20.5701 76.0186L19.6692 71.7866L19.3689 67.3979L19.2188 65.3603L19.3689 63.166L20.1197 56.5829L21.1707 52.3509L22.5221 48.2757L24.1737 44.2004L26.426 40.4387L28.8284 36.8337L31.8314 33.3854L35.1347 30.0938L38.7383 27.586L42.3419 25.0782L46.2458 23.354L50.1497 21.9434L54.2037 20.8462L58.4079 20.0625H60.3599H62.6121L68.7683 20.5327L72.8224 21.3164L76.8764 22.5703L80.7803 24.1377L84.5341 26.3321L88.1377 28.8399L91.5911 31.6612L93.2428 33.3854Z" fill="#00B200"/>
<path d="M118.468 37.7737H149.249V15.2031H101.651L103.003 16.3003L104.204 17.5542L105.405 18.8081L106.606 20.0621L107.958 21.4727L109.009 22.7266L110.06 24.1373L111.261 25.548L112.462 27.1154L113.363 28.526L114.264 30.0934L115.165 31.6608L116.216 33.0715L116.967 34.6389L117.717 36.2063L118.468 37.7737Z" fill="#00D900"/>
<path d="M115.916 33.0719H149.249V20.0625H106.606L107.057 20.5327L107.808 21.1597L108.558 22.1001L109.159 22.7271L109.76 23.5108L110.36 24.2945L111.111 25.0782L111.862 26.0186L112.462 26.8023L112.913 27.586L113.513 28.5265L114.114 29.4669L114.564 30.4073L115.165 31.191L115.615 32.1315L115.916 33.0719Z" fill="#00FF00"/>
<path d="M123.273 52.3491L123.874 57.0513L124.324 61.9103V68.9636L123.724 74.4495L122.823 80.0921L121.321 85.4212L119.369 90.7504L117.117 95.7661L114.264 100.625L111.261 105.17L107.658 109.402L103.904 113.321L99.6997 116.769L111.862 149.214H13.2132L25.3754 116.769L21.1712 113.321L17.4174 109.402L13.9639 105.17L10.8108 100.625L8.10809 95.7661L5.70569 90.7504L3.90389 85.4212L2.40239 80.0921L1.35134 74.4495L0.900886 70.8444L0.600586 68.9636V67.0827V61.9103L1.35134 55.4839L2.55254 49.0576L4.35434 42.9448L6.75674 37.3021L9.60959 31.8162L13.063 26.6438L16.8168 21.9416L21.021 17.5529L25.5255 13.4777L30.4805 10.0294L35.8859 7.05133L41.2913 4.5435L47.1471 2.66262L53.1531 1.4087L56.3063 1.09522L59.4594 0.625H62.7627H149.249V52.3491H123.273Z" stroke="black" stroke-width="0.306819"/>
<path d="M31.832 97.3327L36.1864 92.4737L40.5407 96.3922L45.1954 99.527L50.1503 101.721L55.4056 103.132L60.811 103.916L66.0663 103.759L71.3215 102.819L76.4266 100.938L81.3816 98.4298L85.8861 95.1383L89.9401 91.0631L93.2434 86.5176L96.0963 81.5019L98.0482 76.3295L99.0993 70.8436L99.5498 65.201L99.0993 59.7151L98.0482 54.2292L96.0963 48.9001L93.2434 43.8844L89.9401 39.1822L88.5888 37.7715L93.2434 33.3828L94.7449 35.107L97.4476 38.5552L99.8501 42.317L101.802 46.2355L103.304 50.3107L104.505 54.5427L105.255 58.7747L105.556 63.1634L105.706 65.3577L105.556 67.3954L104.955 73.9784L103.904 78.2104L102.703 82.4424L100.901 86.3609L98.6488 90.1226L96.0963 93.8844L93.2434 97.3327L89.9401 100.311L86.3365 102.975L82.5828 105.326L78.829 107.207L74.775 108.461L70.7209 109.558L64.5648 110.185L62.4627 110.342L60.3606 110.185L54.2044 109.558L50.1503 108.461L46.0963 107.207L42.3425 105.326L38.7389 102.975L35.1353 100.311L33.4837 98.9001L31.832 97.3327Z" fill="#004000"/>
</g>
<defs>
<clipPath id="clip0_2109_233774">
<rect width="150" height="150" fill="white"/>
</clipPath>
</defs>
</svg>
