<svg width="150" height="150" viewBox="0 0 150 150" fill="none" xmlns="http://www.w3.org/2000/svg">
<g clip-path="url(#clip0_2109_179967)">
<path d="M74.9249 0L87.988 2.25225L100.901 4.5045L112.462 10.961L123.874 17.4174L132.432 27.4775L140.841 37.3874L145.345 49.6997L150 61.8619V87.988L145.345 100.15L140.841 112.462L132.432 122.372L123.874 132.432L112.462 138.889L100.901 145.345L87.988 147.598L74.9249 150L61.8619 147.598L48.9489 145.345L37.3874 138.889L25.976 132.432L17.4174 122.372L9.00901 112.462L4.5045 100.15L0 87.988V61.8619L4.5045 49.6997L9.00901 37.3874L17.4174 27.4775L25.976 17.4174L37.3874 10.961L48.9489 4.5045L61.8619 2.25225L74.9249 0Z" fill="#FF0000"/>
</g>
<defs>
<clipPath id="clip0_2109_179967">
<rect width="150" height="150" fill="white"/>
</clipPath>
</defs>
</svg>
