<svg width="150" height="150" viewBox="0 0 150 150" fill="none" xmlns="http://www.w3.org/2000/svg">
<g clip-path="url(#clip0_2109_212571)">
<path d="M149.85 93.2157L145.345 92.4016L140.39 90.7734L135.135 89.5522L129.429 89.1452L123.423 90.5699L117.117 94.844L113.664 98.1004L110.21 102.374L106.607 107.87L102.853 114.383L108.859 113.976L116.066 114.383L123.874 115.604L131.231 118.25L137.538 122.727L141.592 129.24L142.793 138.195L142.042 143.691L140.24 150L136.486 147.558L132.883 145.522L127.928 143.284L121.922 141.248L117.267 140.027L112.312 139.213L106.757 138.602L100.901 138.399L94.7447 138.806L88.1381 140.027L81.0811 141.655L73.8739 144.301L68.4685 141.452L62.9129 139.824L57.2072 139.417L51.5015 139.62L45.7958 140.231L40.0901 141.248L34.5345 142.266L29.2793 143.08L24.024 143.487L19.0691 143.08L15.9159 142.266L16.3664 134.735L19.5195 129.037L24.3243 124.355L30.1802 121.099L36.1862 118.86L41.2913 117.436L45.7958 116.418H46.0961L41.2913 112.347L37.0871 109.091L33.033 106.649L26.2763 103.596L20.5706 102.374L15.6156 102.782L11.2613 104.003L6.90691 105.224L2.25225 105.834H0L3.003 101.56L9.00901 95.0475L15.015 90.7734L20.7207 88.5346L26.5766 87.924L32.2823 88.7381L38.1381 90.7734L43.994 93.6228L46.997 95.251L44.5946 90.3663L42.042 86.0923L36.3363 79.7829L30.3303 75.5088L24.1742 73.0665L18.1682 72.0488L12.6126 71.4383L7.65766 70.8277L3.9039 69.81L9.90991 64.5183L15.6156 60.4478L20.8709 57.8019L25.6757 56.3772L30.1802 55.9701L36.1862 57.5984L41.5916 61.0583L46.2462 66.1465L49.0991 70.2171L51.6517 75.1018L54.0541 80.19L56.3063 85.4817L58.4084 91.1805L60.2102 96.8792L61.2613 99.7286L59.9099 93.4193L58.4084 87.3134L56.6066 81.0041L54.8048 74.6947L53.003 68.5889L51.2012 62.483L49.5495 56.3772L48.048 50.4749L46.6967 44.5726L45.7958 38.6703L44.8949 30.3256L45.1952 22.3881L46.5465 14.8575L49.3994 7.73406L52.8529 12.6187L55.7057 18.521L57.8078 25.441L59.6096 32.9715L60.6607 38.2632L61.8619 46.4043L62.9129 54.5455L63.8138 62.483L64.8649 70.2171L66.0661 77.137L67.5676 83.4464L68.9189 76.9335L69.8198 70.4206L70.4204 63.9077L70.7207 57.5984L70.8709 51.289V45.1832L70.7207 39.0773L70.4204 30.5292L70.2703 22.5916L70.5706 15.2646L71.3213 9.15875L72.8228 3.86703L74.4745 1.01764L75.3754 0L77.7778 2.44233L81.982 7.53053L84.8348 12.6187L86.6366 18.114L87.8378 26.0516L87.3874 34.3962L86.6366 40.095L85.4354 45.7938L84.2342 51.6961L82.8829 57.5984L81.6817 63.5007L80.6306 69.6065L80.03 75.9159L79.8799 82.0217L80.4805 88.3311L81.0811 91.5875L84.5345 84.464L87.6877 77.3406L90.3904 70.6242L92.9429 63.9077L95.4955 57.8019L97.7477 51.8996L99.8499 46.4043L101.952 41.3161L105.255 34.5997L108.709 29.308L112.312 25.441L116.517 22.9986L121.321 22.5916L123.123 22.7951L121.772 32.1574L119.82 39.6879L117.267 45.5902L114.264 51.289L111.111 57.3948L107.508 64.5183L105.706 68.7924L103.904 73.4735L101.952 79.1723L100.15 85.2782L106.006 81.2076L111.862 78.1547L118.919 75.7123L126.577 74.6947L134.084 75.7123L141.291 79.7829L144.444 83.2429L147.447 87.517L149.85 93.2157Z" fill="#008040" stroke="black" stroke-width="0.349627"/>
</g>
<defs>
<clipPath id="clip0_2109_212571">
<rect width="150" height="150" fill="white"/>
</clipPath>
</defs>
</svg>
