<svg width="150" height="150" viewBox="0 0 150 150" fill="none" xmlns="http://www.w3.org/2000/svg">
<g clip-path="url(#clip0_2109_212647)">
<path d="M145.195 98.675L149.249 97.1332L149.85 95.5913L150 94.49L149.85 93.6089L148.048 88.3226L146.546 86.1199L145.946 78.8512L142.642 74.6662L138.288 72.023L134.084 69.8204L129.88 71.5825L127.627 76.6486L126.726 79.7323L125.675 73.3446L123.123 67.3975L119.519 63.8732L116.816 62.9922H115.315L113.964 63.2125L109.009 66.2962L103.904 65.8556L100.45 69.8204L98.6483 76.208L96.9967 70.7014L93.0928 68.2785L89.0387 70.2609L84.6843 74.6662L81.381 71.142L76.7264 71.8028L74.1738 78.4107L73.4231 82.3754L68.9186 81.4944L68.1678 81.9349L67.8675 86.7807L64.5642 91.4063L63.9636 92.9481L63.8135 93.8292V94.7102L65.4651 99.9966V107.045L68.9186 111.23L73.7234 112.111L75.9756 111.45L76.4261 118.719L80.7804 121.582L85.4351 120.481L87.2369 126.869L91.8916 129.292L98.6483 128.19L102.252 134.358L106.456 138.983L109.309 140.525L110.66 140.745H112.162L116.967 138.102L120.57 134.138L123.573 130.173L127.627 132.816L132.883 133.036L136.786 130.173L139.189 124.226L142.943 121.582L142.492 114.975L140.09 111.45L143.844 113.653L147.747 113.433L148.048 105.723L145.195 98.675Z" fill="#999999"/>
<path d="M141.892 35.6828L145.946 34.141L146.397 32.5991L146.547 31.4978V30.3965L143.093 23.1278L142.493 15.6388L139.189 11.4537L134.985 9.03084L130.781 6.82819L126.427 8.59031L124.325 13.4361L123.424 16.7401L122.373 10.1322L119.82 4.40529L116.216 0.881057L113.514 0H112.012H110.511L105.556 3.30396L100.601 2.86344L97.1474 6.60793L95.3456 12.9956L93.5438 7.48899L89.79 5.06608L85.736 7.26872L81.2315 11.4537L77.9282 8.14978L73.4237 8.81057L70.8711 15.1982L70.1204 19.163L65.9161 18.2819L64.4146 20.0441L64.5648 23.7885L61.1113 28.4141L60.6609 29.9559L60.5107 30.837V31.4978L62.1624 37.0044V44.0529L65.4657 48.2379L70.4207 48.8987L72.6729 48.4581L73.1234 55.7269L77.4777 58.5903L82.1324 57.489L83.784 63.6564L88.5888 66.0793L95.3456 64.978L98.799 71.1454L103.003 75.9912L105.856 77.533L107.358 77.7533L108.859 77.533L113.664 74.8899L117.267 71.1454L120.271 66.9604L124.174 69.6035L129.58 69.8238L133.334 66.9604L135.886 61.2335L139.49 58.5903L139.039 51.9824L136.637 48.4581L140.391 50.6608L144.895 49.5595L144.745 42.7313L141.892 35.6828Z" fill="#999999"/>
<path d="M81.2312 107.933L85.2853 106.391L85.8859 104.629L86.036 103.748L85.8859 102.646L82.5826 95.3778L81.982 87.8888L78.6787 83.7037L74.4745 81.0606L70.2703 79.0782L65.9159 80.8403L63.6637 85.6861L62.9129 88.9901L61.8619 82.3822L59.1592 76.6553L55.7057 73.1311L52.8529 72.25H51.5015L50 72.4703L45.045 75.554L40.0901 75.1134L36.6366 79.0782L34.8348 85.4659L33.033 79.739L29.2793 77.3161L25.0751 79.5187L20.7207 83.7037L17.4174 80.3998L12.7628 81.0606L10.2102 87.4482L9.60961 91.6333L5.40541 90.5319L4.2042 91.1927L3.9039 96.0385L0.600601 100.664L0 103.087V103.748V104.629L1.5015 109.254V116.303L4.95496 120.488L9.75976 121.149L12.1622 120.708L12.6126 127.977L16.967 130.84L21.6216 129.739L23.2733 135.906L27.027 138.329L32.1321 137.889L34.8348 137.228L38.4384 143.395L42.4925 148.241L45.3453 149.783L46.8468 150.003H48.3483L53.1532 147.14L56.7568 143.395L59.6096 139.21L63.6637 141.854L69.0691 142.294L72.8228 139.21L75.3754 133.263L78.979 130.84L78.5285 124.232L76.1261 120.708L79.8799 122.911L83.033 123.131L84.2342 121.809V114.981L81.2312 107.933Z" fill="#999999"/>
<path d="M74.0241 62.1156L76.7268 60.3535V59.6927V59.0319L74.7749 54.6267L73.5737 48.8998L69.9701 46.2566L65.916 44.935L63.3635 49.7808L63.0632 50.8822L61.5617 44.4945L57.9581 41.1905L57.0572 40.9703L56.3064 40.75L55.4055 40.9703L52.4025 42.7324L48.0482 43.8337L46.3965 48.6795L43.5436 44.054L39.1893 46.4769L37.9881 47.7985L34.0842 45.3756L31.3815 52.424L28.8289 51.7632L28.3785 51.9835L28.0782 55.0672L25.6758 58.8117V59.2522V59.6927L26.5767 62.9967L27.6277 68.9438L32.883 69.6046L34.5346 75.5518L38.4385 75.1112L41.1412 80.1773L46.3965 79.5165L49.2494 84.3623L52.5527 87.0055L53.4536 87.2258L54.3545 87.0055L58.2584 84.3623L61.1112 80.8381L65.3154 82.8205L69.3695 80.1773L70.5707 77.3139L72.3725 71.8073L71.0211 69.6046L75.0752 71.1465L74.925 64.098L74.0241 62.1156Z" fill="#999999"/>
</g>
<defs>
<clipPath id="clip0_2109_212647">
<rect width="150" height="150" fill="white"/>
</clipPath>
</defs>
</svg>
