<svg width="150" height="150" viewBox="0 0 150 150" fill="none" xmlns="http://www.w3.org/2000/svg">
<g clip-path="url(#clip0_2109_212660)">
<path d="M74.9246 149.85C116.304 149.85 149.849 116.305 149.849 74.9249C149.849 33.545 116.304 0 74.9246 0C33.5449 0 0 33.545 0 74.9249C0 116.305 33.5449 149.85 74.9246 149.85Z" fill="#7F7F7F" stroke="black" stroke-width="0.300903"/>
<path d="M75.2263 148.5C115.69 148.5 148.493 115.694 148.493 75.2264C148.493 34.7587 115.69 1.95312 75.2263 1.95312C34.7624 1.95312 1.95996 34.7587 1.95996 75.2264C1.95996 115.694 34.7624 148.5 75.2263 148.5Z" fill="white" stroke="black" stroke-width="0.300903"/>
<path d="M50.3519 33.6307C55.3474 33.6307 59.3971 30.6056 59.3971 26.8739C59.3971 23.1423 55.3474 20.1172 50.3519 20.1172C45.3563 20.1172 41.3066 23.1423 41.3066 26.8739C41.3066 30.6056 45.3563 33.6307 50.3519 33.6307Z" fill="#E5E5E5" stroke="black" stroke-width="0.300903"/>
<path d="M49.146 34.8344C55.3072 34.8344 60.3018 31.3387 60.3018 27.0266C60.3018 22.7144 55.3072 19.2188 49.146 19.2188C42.9848 19.2188 37.9902 22.7144 37.9902 27.0266C37.9902 31.3387 42.9848 34.8344 49.146 34.8344Z" fill="#E5E5E5" stroke="black" stroke-width="0.300903"/>
<path d="M111.859 118.77C114.44 118.77 116.532 116.686 116.532 114.116C116.532 111.545 114.44 109.461 111.859 109.461C109.278 109.461 107.186 111.545 107.186 114.116C107.186 116.686 109.278 118.77 111.859 118.77Z" fill="#E5E5E5" stroke="black" stroke-width="0.300903"/>
<path d="M111.859 118.615C114.024 118.615 115.779 116.665 115.779 114.261C115.779 111.856 114.024 109.906 111.859 109.906C109.694 109.906 107.939 111.856 107.939 114.261C107.939 116.665 109.694 118.615 111.859 118.615Z" fill="#E5E5E5" stroke="black" stroke-width="0.300903"/>
<path d="M50.9549 73.2718C59.8636 73.2718 67.0855 65.9443 67.0855 56.9054C67.0855 47.8665 59.8636 40.5391 50.9549 40.5391C42.0462 40.5391 34.8242 47.8665 34.8242 56.9054C34.8242 65.9443 42.0462 73.2718 50.9549 73.2718Z" fill="#E5E5E5" stroke="black" stroke-width="0.300903"/>
<path d="M72.9646 115.014C81.8734 115.014 89.0953 109.367 89.0953 102.402C89.0953 95.4359 81.8734 89.7891 72.9646 89.7891C64.0559 89.7891 56.834 95.4359 56.834 102.402C56.834 109.367 64.0559 115.014 72.9646 115.014Z" fill="#E5E5E5" stroke="black" stroke-width="0.300903"/>
<path d="M98.1411 86.4882C102.054 86.4882 105.227 83.1942 105.227 79.1308C105.227 75.0674 102.054 71.7734 98.1411 71.7734C94.2279 71.7734 91.0557 75.0674 91.0557 79.1308C91.0557 83.1942 94.2279 86.4882 98.1411 86.4882Z" fill="#E5E5E5" stroke="black" stroke-width="0.300903"/>
<path d="M26.8345 97.449C29.4155 97.449 31.5079 95.2306 31.5079 92.494C31.5079 89.7575 29.4155 87.5391 26.8345 87.5391C24.2535 87.5391 22.1611 89.7575 22.1611 92.494C22.1611 95.2306 24.2535 97.449 26.8345 97.449Z" fill="#E5E5E5" stroke="black" stroke-width="0.300903"/>
<path d="M82.6134 136.485C85.1112 136.485 87.136 134.333 87.136 131.68C87.136 129.026 85.1112 126.875 82.6134 126.875C80.1157 126.875 78.0908 129.026 78.0908 131.68C78.0908 134.333 80.1157 136.485 82.6134 136.485Z" fill="#E5E5E5" stroke="black" stroke-width="0.300903"/>
<path d="M94.5227 17.7144L92.4121 17.4141L90.3016 17.5642L88.191 18.0147L86.382 18.9156L84.7237 19.8165L83.5177 21.1678L82.4624 22.5192L82.0101 24.1708L81.8594 25.8225L82.3116 27.6243L83.0654 29.2759L84.1207 30.6273L85.6282 31.9786L87.2865 33.1798L89.2463 34.0807L91.3569 34.6813L92.4121 34.8315H94.6734L96.784 34.5312L98.7438 33.9306L100.553 33.0297L102.06 31.9786L103.116 30.6273L104.02 29.1258L104.322 28.2249V26.4231L103.869 24.7714L102.965 23.1198L101.759 21.4681L100.402 20.1168L98.593 19.0657L96.6332 18.1648L94.5227 17.7144Z" fill="#E5E5E5" stroke="black" stroke-width="0.300903"/>
<path d="M118.191 58.8582C122.854 58.8582 126.633 55.9676 126.633 52.4018C126.633 48.836 122.854 45.9453 118.191 45.9453C113.529 45.9453 109.749 48.836 109.749 52.4018C109.749 55.9676 113.529 58.8582 118.191 58.8582Z" fill="#E5E5E5" stroke="black" stroke-width="0.300903"/>
<path d="M51.8596 72.0725C59.5194 72.0725 65.7289 65.2828 65.7289 56.9074C65.7289 48.5319 59.5194 41.7422 51.8596 41.7422C44.1998 41.7422 37.9902 48.5319 37.9902 56.9074C37.9902 65.2828 44.1998 72.0725 51.8596 72.0725Z" fill="#E5E5E5" stroke="black" stroke-width="0.300903"/>
<path d="M74.1709 113.811C81.9972 113.811 88.3417 108.634 88.3417 102.249C88.3417 95.8638 81.9972 90.6875 74.1709 90.6875C66.3445 90.6875 60 95.8638 60 102.249C60 108.634 66.3445 113.811 74.1709 113.811Z" fill="#E5E5E5" stroke="black" stroke-width="0.300903"/>
<path d="M98.593 85.8885C102.007 85.8885 104.774 82.8634 104.774 79.1318C104.774 75.4001 102.007 72.375 98.593 72.375C95.1794 72.375 92.4121 75.4001 92.4121 79.1318C92.4121 82.8634 95.1794 85.8885 98.593 85.8885Z" fill="#E5E5E5" stroke="black" stroke-width="0.300903"/>
<path d="M26.985 96.8493C29.1498 96.8493 30.9046 94.8998 30.9046 92.495C30.9046 90.0901 29.1498 88.1406 26.985 88.1406C24.8203 88.1406 23.0654 90.0901 23.0654 92.495C23.0654 94.8998 24.8203 96.8493 26.985 96.8493Z" fill="#E5E5E5" stroke="black" stroke-width="0.300903"/>
<path d="M82.7637 136.185C85.0117 136.185 86.8341 134.236 86.8341 131.831C86.8341 129.426 85.0117 127.477 82.7637 127.477C80.5157 127.477 78.6934 129.426 78.6934 131.831C78.6934 134.236 80.5157 136.185 82.7637 136.185Z" fill="#E5E5E5" stroke="black" stroke-width="0.300903"/>
<path d="M94.8244 18.6189L93.0153 18.4688H91.2063L89.548 18.9192L87.8897 19.5198L86.5329 20.4207L85.3269 21.6219L84.5731 22.9733L83.9701 24.4748L83.8193 26.1264L84.1208 27.6279L84.8746 29.2796L85.7791 30.4808L87.1359 31.682L88.6435 32.733L90.3017 33.4838L92.1108 34.0844L94.0706 34.2345L96.0304 34.0844L97.8394 33.7841L99.6485 33.1835L101.005 32.2826L102.211 31.0814L103.116 29.8802L103.719 28.2285V26.5769L103.267 25.0754L102.513 23.4237L101.458 22.0724L100.101 20.8712L98.5932 19.8201L96.7842 19.0694L94.8244 18.6189Z" fill="#E5E5E5" stroke="black" stroke-width="0.300903"/>
<path d="M118.794 58.5623C122.79 58.5623 126.03 55.8061 126.03 52.4062C126.03 49.0062 122.79 46.25 118.794 46.25C114.797 46.25 111.558 49.0062 111.558 52.4062C111.558 55.8061 114.797 58.5623 118.794 58.5623Z" fill="#E5E5E5" stroke="black" stroke-width="0.300903"/>
</g>
<defs>
<clipPath id="clip0_2109_212660">
<rect width="150" height="150" fill="white"/>
</clipPath>
</defs>
</svg>
