<svg width="150" height="150" viewBox="0 0 150 150" fill="none" xmlns="http://www.w3.org/2000/svg">
<path d="M63.0635 145.386L115.166 135.694L143.694 116.309L148.349 72.4633L134.085 43.3864L88.2887 9.23257L53.6041 18.9249L31.532 4.61719L4.50496 33.6941L1.50195 77.5403L20.4209 106.617L40.8413 101.54L58.2587 116.309L56.7572 130.617L63.0635 145.386Z" fill="white"/>
<path d="M63.0635 145.384L115.166 135.692L143.694 116.307L145.346 96.9225L131.082 101.538L102.553 111.23L72.523 72.4609L33.0335 87.2302H20.4209L1.50195 77.5379L20.4209 106.615L40.8413 101.538L58.2587 116.307L56.7572 130.615L63.0635 145.384Z" fill="#E5E5E5"/>
<path d="M63.0635 145.386L115.166 135.694L143.694 116.309L148.349 72.4633L134.085 43.3864L88.2887 9.23257L53.6041 18.9249L31.532 4.61719L4.50496 33.6941L1.50195 77.5403L20.4209 106.617L40.8413 101.54L58.2587 116.309L56.7572 130.617L63.0635 145.386Z" stroke="black" stroke-width="0.526498"/>
</svg>
