<svg width="150" height="150" viewBox="0 0 150 150" fill="none" xmlns="http://www.w3.org/2000/svg">
<g clip-path="url(#clip0_2109_212625)">
<path d="M0 41.1411L7.59952 43.5435L15.38 44.5946L23.1604 45.3453L31.1218 45.7958L38.7214 46.6967L45.959 48.4985L52.6538 51.6517L58.9867 56.6066L56.9964 51.2012L55.9107 46.5465L55.187 39.1892L56.2726 33.7838L58.8058 29.7297L62.0627 25.8258L65.3197 21.4715L68.2147 16.2162L70.0241 8.85886L71.6526 2.4024L72.3764 0.750751L73.1001 0H73.6429L75.6333 3.75375L76.8999 8.10811L78.3474 12.7628L80.1568 17.1171L85.766 22.8228L90.4705 27.9279L93.0036 32.4324L93.7274 38.2883L92.2799 43.994L91.1942 48.048L90.4705 52.4024V54.955L94.6321 52.8529L102.593 50.3003L109.831 49.2492L117.069 49.3994L124.125 50L131.182 50.4505H138.42L146.019 49.2492L150 48.048L146.381 52.5526L143.486 56.3063L139.144 62.6126L136.248 67.2673L133.715 71.021L129.916 74.3243L124.306 77.9279L120.507 80.03L115.44 82.2823L109.469 84.985L102.413 87.988L111.098 86.6366L118.154 87.0871L123.583 88.7387L128.106 91.4414L131.906 95.1952L135.525 99.3994L139.144 103.754L142.943 108.258L136.791 107.658L131.544 108.108L125.935 109.309L119.783 110.661L113.088 111.862L106.212 112.763H98.7937L93.7274 112.312L88.4801 111.261L83.0519 109.61L77.6236 107.057L72.0145 103.754L71.4717 110.811L70.7479 117.267L69.8432 122.973L68.5766 128.078L67.31 132.733L65.6815 136.637L61.8818 142.793L57.5392 146.847L52.4729 149.099L49.7587 149.7L46.8637 150L43.9686 149.7L40.8926 149.099L47.9493 148.348L53.5585 146.396L57.9011 142.793L61.339 137.688L63.6912 131.231L64.5959 127.477L65.3197 123.423L65.8625 118.919L66.4053 114.114L66.5863 108.859L66.9481 103.303L59.8914 107.808L52.6538 110.661L45.2352 112.162L37.6357 112.462L29.4934 112.162L20.8082 111.411L11.5802 110.511L6.51387 110.21L1.44753 109.91L6.51387 106.607L9.77081 102.703L11.9421 98.7988L14.4753 94.5946L17.9131 90.3904L23.1604 86.1862L26.7793 84.2342L31.3028 82.2823L36.731 80.3303L43.2449 78.5285L38.5404 77.1772L30.2171 74.4745L23.3414 71.3213L17.9131 67.7177L13.3896 63.5135L9.22799 58.4084L5.60917 52.4024L3.79976 48.9489L1.80941 45.1952L0 41.1411Z" fill="#804000" stroke="black" stroke-width="0.329656"/>
</g>
<defs>
<clipPath id="clip0_2109_212625">
<rect width="150" height="150" fill="white"/>
</clipPath>
</defs>
</svg>
