<svg width="150" height="150" viewBox="0 0 150 150" fill="none" xmlns="http://www.w3.org/2000/svg">
<g clip-path="url(#clip0_2109_212117)">
<path d="M68.018 17.2222L64.5646 13.7037L61.8619 9.62963L57.958 7.77778L53.1532 9.44444L48.6486 9.25926L44.2943 8.14815L40.2402 6.85185L34.985 6.2963L30.3303 7.22222L27.027 10.7407L24.4745 15.1852L21.7718 19.4444L17.2673 22.2222L15.6156 28.5185L16.5165 33.5185L19.5195 37.7778L20.8709 42.5926L16.967 45.7407L13.0631 49.4444L9.00901 52.963L8.10811 53.5185L6.60661 58.7037L4.95496 63.8889L3.45345 69.6296L2.1021 75.1852L0.45045 80.3704L0.15015 82.5926L0 84.6296V86.6667L1.05105 91.8519L3.3033 96.4815L6.00601 100.741L8.70871 105.37L9.60961 107.037L13.5135 109.444L17.5676 110.741L23.5736 111.481H28.5285L32.2823 112.222L32.5826 112.778V113.519L34.2342 118.333L36.3363 123.519L40.5405 128.333L43.8438 131.296L47.7477 135.926L51.3514 140.926L55.4054 144.444L60.2102 144.815L65.6156 145.185L70.7207 146.481L75.8258 147.778L80.7808 148.889L83.033 149.259L84.0841 149.444H84.985L89.1892 148.333L90.991 144.815L93.3934 139.259L95.6456 134.074L98.1982 129.074L101.952 125.556H102.853L107.057 126.667L111.712 129.074L116.066 132.222L120.12 134.259L124.625 133.519L129.279 130.37L133.634 129.074L138.138 127.407L141.892 124.815L144.294 120.185L145.045 114.444L146.396 109.074L148.048 103.704L149.249 98.5185L149.85 95V93.3333V91.4815L149.399 85.3704L149.249 78.5185L148.799 71.6667L146.697 66.6667L145.796 65.9259L140.991 65.3704L136.637 64.4444L131.682 62.963L127.778 60.1852L128.078 55L128.228 48.5185L128.829 42.963L129.279 36.6667V33.1481L130.48 27.4074L129.429 20.9259L126.577 15.9259L123.574 12.037L119.52 8.33333L114.865 4.81481L110.511 2.03704L106.306 0.37037L104.955 0.185185L103.604 0H102.402L99.8499 0.37037L96.2462 4.07407L91.5916 6.85185L86.1862 7.03704L81.6817 6.11111L78.5285 6.2963L75.6757 11.1111L73.1231 15.7407L70.2703 18.3333L68.018 17.2222Z" fill="white"/>
<path d="M84.5342 59.9986L84.3841 59.8134L81.9817 54.6282L79.8796 48.7023L78.0778 43.5171L76.1258 38.1467L74.324 32.7763L72.372 27.9615L70.2699 23.1467L68.4681 20.7393H68.0177L63.9636 19.2578L62.0117 14.8134L59.4591 10.1837L55.1048 9.81337L50.9006 11.48L46.2459 12.5911L41.291 12.406L36.0357 11.1097L32.7324 9.99855L31.0808 9.25781L32.7324 13.8874L35.1348 22.5911L36.1859 30.5541L35.8856 37.5911L34.8345 44.0726L32.7324 49.8134L30.1799 54.9986L27.0267 59.6282L23.5732 63.5171L19.8195 67.2208L16.366 70.1837L12.9126 72.7763L8.55823 75.9245L4.80448 79.0726L4.50418 79.8134L3.60328 83.5171L3.45312 86.2948V88.5171L5.55523 92.9615L9.75943 96.6652L12.0117 101.48L10.8105 107.036L11.1108 107.962L16.0657 109.073L21.7714 108.517L27.6273 107.962L31.8315 109.258L35.7354 112.776L39.1889 116.48L40.2399 121.11L42.6423 125.739L45.0447 130.184L48.6483 135.554L52.7024 139.999L56.7564 142.221L61.8615 143.147L66.6663 141.665L70.4201 139.073L74.6243 134.999L76.8765 132.406L80.1799 136.295L81.5312 142.036L82.8826 147.406L84.5342 149.813L84.9847 149.999L85.5853 149.813L89.339 145.554L92.4922 138.887L93.6934 135.739L96.6964 132.036L98.6483 127.221L100.901 122.962L101.952 122.591L106.606 124.073L111.261 126.85L116.066 129.813L120.27 131.665L123.573 131.295L127.177 128.702L130.931 126.665L134.985 123.887L138.438 120.739L140.841 114.999V114.443L136.186 111.665L131.231 109.999L125.826 107.962L120.871 105.554L117.267 102.221L116.216 96.48L119.219 90.5541L123.573 85.9245L126.576 83.3319L130.03 80.5541L134.234 77.5911L139.039 74.2578L144.594 70.9245L144.294 70.1837L140.69 68.1467L136.336 67.406L132.132 66.6652L126.877 65.7393L121.321 65.5541L116.216 65.3689L111.711 64.443L111.111 64.0726L110.81 63.5171V62.9615L111.261 62.2208L112.913 57.0356L115.315 52.5911L118.618 47.7763L121.922 42.9615L125.075 38.1467L127.627 33.7023L129.279 28.5171L128.678 22.5911L125.225 18.8874L121.171 16.1097L117.117 13.3319L112.012 13.7023L107.958 15.3689L103.753 17.5911L99.8495 19.9986L96.2459 22.2208L92.342 24.2578L91.8916 24.443L90.3901 30.1837L92.342 37.0356L94.7444 41.6652L97.297 45.9245L99.9997 50.9245L100.45 52.9615L96.2459 56.48L91.4411 59.2578L86.9366 60.5541L84.5342 59.9986Z" fill="#E5E5E5"/>
<path d="M80.3304 72.7749H79.8799L76.5766 77.0341L73.1232 82.4045L69.5196 87.9601L66.8169 91.849L65.3154 92.7749L65.0151 92.5897L64.4145 87.5897L64.7148 81.2934L65.1652 75.7378L65.6157 69.9971L66.0661 64.6267L66.3664 58.3304L65.916 53.5156H65.6157L65.0151 55.1823L62.913 60.3675L60.2103 65.3675L57.0571 69.8119L53.4535 73.5156L49.8499 76.4786L45.1953 79.0712H40.2403L36.937 75.1823L36.1862 72.4045L34.0841 76.6638L30.6307 80.923L28.0781 85.1823L27.4775 88.1453V89.8119V91.2934L30.3304 95.5527L32.7328 97.7749L32.1322 103.145L32.4325 103.886L32.8829 104.256L38.1382 104.442L43.2433 104.071L45.7959 104.997L50.0001 107.59L54.5046 109.256L57.0571 111.293V111.664L56.907 117.034L57.8079 122.775L59.4595 124.812L59.91 124.997L60.2103 124.812L60.5106 117.96L61.1112 112.405L63.0631 106.108L65.6157 102.219L67.4175 107.405L71.922 109.812L76.1262 108.145L80.3304 105.367L83.934 103.516L87.5376 106.664L88.1382 112.59L87.6877 118.701L87.3874 122.59L89.6397 117.775L90.8409 113.701L91.4415 113.516L95.4956 114.997L99.0992 117.405L100.15 117.59L103.604 115.367L108.408 114.256L113.363 112.405L116.667 108.701V108.145L112.613 106.108L108.108 104.442L103.754 102.405L100.601 98.7008L102.553 92.7749L107.357 87.9601L112.463 84.2564L115.616 82.2193L119.219 79.9971L118.919 79.4416L118.769 79.0712L114.565 77.9601L110.06 76.849L105.556 77.0341L101.351 79.2564L100.901 80.3675L101.051 80.7378L101.201 80.923L101.502 80.7378L102.703 73.886L104.655 67.7749L106.306 61.849L106.457 58.886L106.156 58.5156H105.856L101.952 62.2193L98.3484 67.2193L95.4956 71.1082L92.1923 75.923L89.4896 78.886L85.1352 77.0341L81.6817 74.2564L80.3304 72.7749Z" fill="#CCCCCC"/>
</g>
<defs>
<clipPath id="clip0_2109_212117">
<rect width="150" height="150" fill="white"/>
</clipPath>
</defs>
</svg>
