<svg width="150" height="150" viewBox="0 0 150 150" fill="none" xmlns="http://www.w3.org/2000/svg">
<g clip-path="url(#clip0_2109_212635)">
<path d="M7.54527 3.6036L14.7887 7.35736L21.4286 11.4114L27.4648 15.6156L33.1992 19.97L38.33 24.4745L43.159 29.1291L47.3843 33.9339L51.006 38.7387L54.326 43.8438L57.0423 48.7988L59.1549 54.0541L60.9658 59.1592L62.173 64.4144L63.0785 69.6697V74.9249V80.1802L62.173 85.4354L60.9658 90.6907L59.1549 95.9459L57.0423 101.051L54.326 106.156L51.006 111.111L47.3843 115.916L43.159 120.721L38.33 125.375L33.1992 129.88L27.4648 134.234L21.4286 138.438L14.7887 142.492L7.54527 146.246L0 150L7.54527 149.85L22.6358 149.099L37.4245 147.598L51.3078 145.345L64.8893 142.492L77.8672 139.039L89.6378 134.985L100.805 130.48L111.066 125.375L120.121 119.82L128.27 113.814L135.211 107.357L140.946 100.751L145.473 93.6937L148.491 86.3363L150 78.8288V74.9249V71.021L148.491 63.5135L145.473 56.1562L140.946 49.2492L135.211 42.4925L128.27 36.036L120.121 30.1802L111.066 24.4745L100.805 19.5195L89.6378 14.8649L77.8672 10.8108L64.8893 7.35736L51.3078 4.5045L37.4245 2.25225L22.6358 0.750751L7.54527 0H0L7.54527 3.6036Z" fill="#E1E1E1" stroke="black" stroke-width="0.425756"/>
</g>
<defs>
<clipPath id="clip0_2109_212635">
<rect width="150" height="150" fill="white"/>
</clipPath>
</defs>
</svg>
