<svg width="150" height="150" viewBox="0 0 150 150" fill="none" xmlns="http://www.w3.org/2000/svg">
<g clip-path="url(#clip0_2109_212558)">
<path fill-rule="evenodd" clip-rule="evenodd" d="M111.609 18.4685L109.989 20.4204L108.207 22.2222L106.425 24.024L104.644 25.8258L102.862 27.6276L101.08 29.2793L99.1361 31.0811L97.3542 32.7327L95.2484 34.3844L93.3045 35.8859L91.3607 37.5375L89.2549 38.8889L87.149 40.2402L85.0432 41.5916L82.7754 42.7928L80.3456 43.8438L80.0216 43.994H79.3736L78.7257 44.1441H78.4017H79.2117L80.1836 43.994L81.1555 43.5435L81.9654 43.2432L82.7754 42.9429L83.7473 42.3423L84.5572 42.042L85.3672 41.7417L87.149 40.8408L89.0929 40.0901L90.8747 39.039L92.6566 38.1381L94.4384 36.9369L96.2203 35.8859L98.0022 34.6847L99.622 33.4835L101.404 32.1321L103.024 30.7808L104.482 29.4294L105.94 28.0781L107.235 26.5766L108.531 25.0751L109.665 23.5736L110.637 21.9219L110.799 21.7718L110.961 21.4715L111.285 21.021L111.447 20.5706L111.609 20.1201V19.5195L111.771 19.0691L111.609 18.4685ZM34.5032 37.6877L35.9611 35.7357L37.419 33.9339L39.0389 31.982L40.8207 30.1802L42.6026 28.2282L44.5464 26.2763L46.4903 24.3243L48.5961 22.3724L50.7019 20.4204L52.9698 18.4685L55.3996 16.6667L57.6674 15.015L60.2592 13.2132L62.689 11.5616L65.2808 9.90991L67.8726 8.40841L70.6264 6.90691L73.2181 5.70571L75.9719 4.5045L78.7257 3.3033L81.4795 2.4024L84.3952 1.65165L87.149 0.900901L89.9028 0.45045L92.8186 0.15015L95.5723 0H98.4881L101.242 0.3003L104.158 0.600601L106.911 1.35135L109.665 2.1021L112.419 3.3033L113.067 7.05706L113.877 10.8108L114.363 14.4144L114.849 17.8679L115.335 21.3213L115.497 24.6246L115.821 27.7778L115.983 30.7808V33.9339V36.7868V39.6396L115.659 42.4925L115.497 45.1952L115.335 48.048L115.011 50.6006L114.687 53.3033L114.201 55.8559L113.877 58.5586L113.391 61.2613L112.905 63.8138L112.581 66.3664L112.095 69.0691L111.609 71.6216L111.123 74.3243L110.637 77.027L110.151 79.7297L109.665 82.5826L109.179 85.4354L108.693 88.2883L108.369 91.2913L108.045 94.4444L107.559 97.5976H109.503L111.123 97.8979L112.905 98.1982L114.849 98.7988L116.631 99.3994L118.413 100.15L120.194 100.901L121.976 101.802L123.758 102.853L125.54 103.754L127.322 104.655L128.942 105.706L130.562 106.607L132.181 107.508L133.801 108.258L135.259 109.009H134.287H132.991L131.695 108.859H130.238H128.618H126.998H125.378L123.758 109.009L122.138 109.159L120.68 109.459L119.384 110.06L118.089 110.661L117.117 111.411L116.307 112.312L115.983 113.514L115.659 115.015L118.251 115.766L120.842 116.817L123.434 117.868L125.864 119.069L128.294 120.27L130.562 121.622L132.829 122.973L135.097 124.474L137.203 125.976L139.309 127.477L141.253 128.979L143.197 130.631L144.978 132.132L146.76 133.784L148.38 135.285L150 136.787L148.056 136.486L145.95 136.036L143.682 135.435L141.415 134.835L139.147 134.084L136.717 133.333L134.287 132.583L131.695 131.682L129.266 130.781L126.998 130.03L124.568 128.979L122.138 128.078L120.032 127.177L117.927 126.426L115.983 125.676L114.039 124.925L111.285 124.024L108.207 123.423L104.968 122.823L101.728 122.372L98.1641 122.072L94.6004 121.922L90.8747 121.772L86.987 121.622H83.2613L79.5356 121.772H75.8099L72.0842 121.922H68.5205L65.1188 122.072H62.041H58.8013L55.0756 122.372L51.3499 122.973L47.6242 124.024L44.0605 125.375L40.4968 126.877L37.095 128.829L33.5313 130.781L30.2916 133.033L27.0518 135.285L23.9741 137.538L20.8963 139.79L18.1425 142.192L15.2268 144.294L12.635 146.396L10.0432 148.198L7.61339 150L7.4514 149.55L7.28942 149.099L7.12743 148.499L6.96544 147.748V146.847V145.946L7.12743 144.745L7.28942 143.544L7.77538 142.192L8.42333 140.691L9.07127 139.039L10.2052 137.237L11.5011 135.435L12.959 133.333L14.9028 131.081L17.0086 128.679H15.8747L15.0648 128.829L14.5788 128.979H14.0929L13.7689 129.129H13.1209L12.473 128.979L11.3391 128.679L12.311 127.027L13.2829 125.526L14.5788 124.174L16.0367 122.823L17.6566 121.471L19.2765 120.27L21.0583 119.069L22.8402 118.018L24.622 116.967L26.5659 115.916L28.3477 115.165L30.1296 114.264L31.7495 113.514L33.3693 112.913L34.8272 112.312L36.2851 111.862L33.5313 111.261L30.7775 110.811H28.3477L25.9179 110.961L23.4881 111.411L21.2203 112.012L19.1145 112.913L16.8467 113.814L14.7408 114.865L12.635 115.916L10.5292 117.117L8.42333 118.318L6.31749 119.52L4.21166 120.721L2.10583 121.772L0 122.823L2.26782 118.919L4.37365 115.616L6.47948 112.913L8.58531 110.661L10.5292 108.859L12.635 107.357L14.5788 106.156L16.5227 105.105L18.4665 104.204L20.4104 103.453L22.5162 102.553L24.622 101.502L26.7279 100.3L28.8337 98.949L31.2635 97.1471L33.5313 95.045L33.6933 92.3423L33.8553 89.7898L34.1793 87.5375L34.5032 85.1351L34.8272 82.8829L35.3132 80.6306L35.7991 78.5285L36.4471 76.4264L36.933 74.3243L37.581 72.2222L38.2289 70.1201L38.8769 68.018L39.5248 65.7658L40.0108 63.5135L40.4968 61.2613L40.9827 58.8589L41.1447 57.3574L40.9827 55.8559L40.8207 54.3544L40.3348 52.8529L39.6868 51.3514L39.2009 49.6997L38.3909 48.1982L37.581 46.6967L36.933 45.3453L36.1231 43.8438L35.6371 42.6426L35.1512 41.2913L34.6652 40.2402L34.3413 39.1892V38.2883L34.5032 37.6877ZM37.257 38.8889L38.3909 41.4414L39.8488 43.3934L41.6307 45.045L43.7365 46.3964L46.3283 47.1471L48.9201 47.5976L51.8359 47.7477L55.0756 47.5976L58.3153 46.997L61.7171 46.2462L65.4428 45.1952L69.0065 43.994L72.5702 42.3423L76.2959 40.6907L80.0216 38.8889L83.5853 36.9369L87.149 34.8348L90.5508 32.5826L93.7905 30.3303L96.7063 27.9279L99.622 25.5255L102.214 23.2733L104.482 20.8709L106.425 18.4685L108.045 16.2162L109.341 14.1141L110.151 12.012L110.475 10.0601L110.313 8.25826L109.827 6.60661L108.693 5.1051L106.911 3.9039L106.102 3.45345L105.292 3.003L103.996 2.85285L102.7 2.55255L101.08 2.4024L99.46 2.25225H97.6782L95.8963 2.4024L94.1145 2.55255L92.3326 2.7027L90.5508 2.85285L88.7689 3.003L87.311 3.15315L85.8531 3.45345L84.5572 3.75375L83.4233 3.9039L79.3736 5.1051L75.486 6.75676L71.5983 8.55856L67.7106 10.6607L63.8229 12.9129L60.0972 15.3153L56.6955 17.8679L53.2937 20.5706L50.216 23.2733L47.3002 25.8258L44.7084 28.3784L42.4406 30.9309L40.4968 33.1832L39.0389 35.2853L37.905 37.2372L37.257 38.8889ZM57.5054 21.7718L57.9914 21.4715L59.1253 20.5706L60.9071 19.5195L63.013 18.018L65.7667 16.5165L68.8445 14.7147L72.0842 12.9129L75.486 11.1111L79.0497 9.45946L82.7754 7.95796L86.5011 6.60661L90.0648 5.70571L93.6285 5.1051L96.8682 4.95496L99.946 5.40541L102.538 6.45646L103.996 7.35736L104.806 8.40841L105.454 9.75976V11.2613L104.968 12.7628L104.32 14.2643L103.348 15.9159L102.214 17.5676L100.756 19.2192L99.298 20.8709L97.6782 22.5225L95.8963 24.024L94.1145 25.5255L92.4946 26.8769L90.8747 28.0781L89.4168 29.1291L88.4449 29.7297L87.473 30.4805L86.3391 31.0811L85.2052 31.8318L83.9093 32.2823L82.9374 32.8829L81.8035 33.1832H80.9935L79.5356 34.2342L79.3736 34.3844L80.3456 33.7838L82.1274 32.7327L84.5572 30.9309L87.473 28.8288L90.7127 26.4264L93.9525 23.8739L97.0302 21.021L99.622 18.1682L101.89 15.4655L103.348 12.9129L103.672 10.6607L103.024 8.70871L100.918 7.20721L97.1922 6.45646H95.5723L93.3045 6.75676L90.3888 7.65766L86.6631 8.55856L82.7754 10.0601L78.5637 11.7117L74.0281 13.6637L69.4924 15.7658L65.1188 18.1682L60.9071 20.7207L57.0194 23.4234L53.4557 26.2763L50.54 29.2793L48.2721 32.2823L46.8143 35.4354L46.3283 38.4384L46.8143 39.3393L47.6242 39.7898L48.5961 40.2402H49.73H51.3499L52.9698 39.7898L54.7516 39.3393L56.6955 38.7387L58.8013 37.988L61.0691 37.0871L63.1749 36.036L65.6048 35.1351L67.8726 33.9339L70.3024 32.5826L72.5702 31.3814L74.838 30.03L77.1058 28.5285L79.2117 27.1772L81.3175 25.8258L83.0993 24.4745L85.0432 23.1231L86.5011 21.7718L87.959 20.5706L89.0929 19.3694L89.9028 18.3183L90.5508 17.2673L90.8747 16.5165L91.0367 15.7658L90.7127 15.1652L89.9028 14.7147L88.9309 14.5646H87.473H86.3391L84.7192 14.8649L82.7754 15.3153L80.5076 15.9159L78.0778 16.6667L75.486 17.5676L72.8942 18.7688L70.3024 19.8198L67.7106 21.3213L65.1188 22.6727L62.851 24.3243L60.9071 25.8258L59.1253 27.6276L57.9914 29.4294L57.0194 31.3814L56.8574 33.1832L57.9914 33.4835L59.4492 33.3333L61.0691 32.8829L62.689 32.1321L64.4708 31.3814L66.4147 30.3303L68.1965 29.1291L70.1404 27.9279L71.9222 26.5766L73.5421 25.3754L75 24.1742L76.2959 23.1231L77.4298 22.2222L78.4017 21.6216L78.8877 21.1712L79.0497 21.021H78.4017L77.1058 21.4715L75.324 22.0721L73.2181 22.973L71.1123 23.8739L69.0065 24.7748L67.2246 25.5255L65.9287 25.976L66.4147 25.6757L67.0626 25.2252L67.8726 24.6246L68.8445 24.1742L69.8164 23.5736L70.7883 22.973L71.9222 22.3724L73.0562 21.7718L74.1901 21.3213L75.324 20.8709L76.4579 20.4204L77.4298 20.1201L78.4017 19.8198H79.2117H80.0216L80.6695 20.1201L80.8315 20.7207L80.5076 21.6216L79.6976 22.6727L78.5637 23.7237L77.2678 24.9249L75.6479 26.1261L73.7041 27.3273L71.7603 28.6787L69.6544 29.8799L67.5486 30.9309L65.4428 31.982L63.3369 33.033L61.3931 33.7838L59.4492 34.3844L57.8294 34.6847L56.3715 34.8348L55.5616 33.9339L55.3996 32.7327L55.7235 31.2312L56.8574 29.4294L58.3153 27.6276L60.2592 25.6757L62.689 23.5736L65.2808 21.6216L68.1965 19.8198L71.4363 18.018L74.676 16.5165L78.0778 15.1652L81.4795 14.2643L84.8812 13.6637L88.1209 13.5135L91.1987 13.964L92.3326 15.1652L92.4946 16.6667L92.1706 18.1682L91.1987 19.8198L89.5788 21.4715L87.635 23.2733L85.3672 25.0751L82.7754 26.8769L80.0216 28.5285L77.2678 30.3303L74.514 31.8318L71.9222 33.3333L69.3305 34.6847L67.0626 35.7357L65.2808 36.6366L63.8229 37.2372L62.689 37.8378L61.2311 38.4384L59.9352 39.039L58.6393 39.4895L57.1814 39.7898L55.7235 40.2402L54.2657 40.5405L52.9698 40.8408L51.6739 40.991L50.378 41.2913H49.0821L48.1101 41.1411L46.9762 40.991L46.1663 40.6907L45.5184 40.3904L45.0324 39.7898L44.7084 38.8889L44.5464 37.8378V36.7868L44.8704 35.5856L45.3564 34.3844L46.0043 33.033L46.8143 31.8318L47.7862 30.4805L48.7581 29.2793L49.892 27.9279L51.0259 26.7267L52.3218 25.5255L53.6177 24.4745L54.9136 23.4234L56.2095 22.5225L57.5054 21.7718Z" fill="#400000"/>
<path d="M111.609 18.4688L109.989 20.4207L108.207 22.2225L106.425 24.0243L104.643 25.8261L102.861 27.6279L101.08 29.2796L99.1357 31.0814L97.3539 32.733L95.248 34.3847L93.3042 35.8862L91.3603 37.5378L89.2545 38.8892L87.1487 40.2405L85.0428 41.5919L82.775 42.7931L80.3452 43.8441L78.7253 44.1444H78.4014H79.2113L81.1551 43.5438L82.775 42.9432L84.5569 42.0423L85.3668 41.742L87.1487 40.8411L89.0925 40.0904L90.8744 39.0393L92.6562 38.1384L94.4381 36.9372L96.2199 35.8862L98.0018 34.685L99.6217 33.4838L101.404 32.1324L103.023 30.7811L104.481 29.4297L105.939 28.0784L107.235 26.5769L108.531 25.0754L109.665 23.5739L110.637 21.9222L111.447 20.5709L111.609 19.5198L111.771 19.0694L111.609 18.4688Z" stroke="black" stroke-width="0.311913"/>
<path d="M34.5032 37.6877L37.419 33.9339L40.8207 30.1802L44.5464 26.2763L48.5961 22.3724L52.9698 18.4685L57.6674 15.015L62.689 11.5616L67.8726 8.40841L73.2181 5.70571L78.7257 3.3033L84.3952 1.65165L89.9028 0.45045L92.8186 0.15015L95.5724 0H98.4881L104.158 0.600601L109.665 2.1021L112.419 3.3033L113.877 10.8108L114.849 17.8679L115.497 24.6246L115.983 30.7808V36.7868L115.659 42.4925L115.335 48.048L114.687 53.3033L113.877 58.5586L112.905 63.8138L112.095 69.0691L111.123 74.3243L110.151 79.7297L109.179 85.4354L108.369 91.2913L107.559 97.5976L112.905 98.1982L118.413 100.15L123.758 102.853L128.942 105.706L133.801 108.258L135.259 109.009L130.238 108.859H125.378L120.68 109.459L116.307 112.312L115.659 115.015L120.842 116.817L125.864 119.069L130.562 121.622L135.097 124.474L139.309 127.477L143.197 130.631L146.76 133.784L148.38 135.285L150 136.787L148.056 136.486L143.683 135.435L139.147 134.084L134.287 132.583L129.266 130.781L124.568 128.979L120.032 127.177L115.983 125.676L111.285 124.024L104.968 122.823L98.1641 122.072L90.8747 121.772L83.2613 121.622L75.8099 121.772L68.5205 121.922L62.041 122.072L55.0756 122.372L47.6242 124.024L40.4968 126.877L33.5313 130.781L27.0518 135.285L20.8963 139.79L15.2268 144.294L10.0432 148.198L7.61339 150L7.4514 149.55L7.12743 144.745L8.42333 140.691L11.5011 135.435L14.9028 131.081L17.0086 128.679L12.473 128.979L11.3391 128.679L14.5788 124.174L19.2765 120.27L24.622 116.967L30.1296 114.264L34.8272 112.312L36.2851 111.862L30.7775 110.811L25.9179 110.961L21.2203 112.012L16.8467 113.814L12.635 115.916L8.42333 118.318L4.21166 120.721L2.10583 121.772L0 122.823L2.26782 118.919L6.47948 112.913L10.5292 108.859L14.5788 106.156L18.4665 104.204L22.5162 102.553L26.7279 100.3L31.2635 97.1471L33.5313 95.045L33.8553 89.7898L34.5032 85.1351L35.3132 80.6306L36.4471 76.4264L37.581 72.2222L38.8769 68.018L40.0108 63.5135L40.9827 58.8589L40.8207 54.3544L39.2009 49.6997L36.933 45.3453L35.1512 41.2913L34.5032 37.6877Z" stroke="black" stroke-width="0.311913"/>
<path d="M37.2568 38.8866L39.8486 43.3911L43.7363 46.3941L48.9199 47.5953L51.8357 47.7455L55.0754 47.5953L61.7169 46.244L69.0063 43.9917L76.2957 40.6884L83.5851 36.9347L90.5506 32.5803L96.7061 27.9257L102.214 23.271L106.425 18.4662L109.341 14.1119L110.151 12.0098L110.475 10.0578L110.313 8.25601L106.911 3.90165L102.7 2.5503L101.08 2.40015L99.4599 2.25H97.678L92.3324 2.70045L87.3108 3.1509L79.3735 5.10285L75.4858 6.7545L71.5981 8.55631L67.7104 10.6584L63.8227 12.9107L60.097 15.3131L56.6953 17.8656L53.2936 20.5683L47.3 25.8236L42.4404 30.9287L39.0387 35.283L37.9048 37.235L37.2568 38.8866Z" stroke="black" stroke-width="0.311913"/>
<path d="M57.5058 21.7699L63.0134 18.0162L68.8449 14.7129L75.4864 11.1093L82.7758 7.95613L90.0652 5.70388L93.6289 5.10328L96.8687 4.95312L99.9464 5.40358L103.996 7.35553L104.806 8.40658L105.454 9.75793V11.2594L103.348 15.9141L100.756 19.2174L97.6786 22.5207L94.1149 25.5237L89.4173 29.1273L85.2056 31.83L80.994 33.1814L79.5361 34.2324L79.3741 34.3826L84.5577 30.9291L90.7132 26.4246L97.0307 21.0192L101.89 15.4636L103.672 10.6588L103.024 8.70688L100.918 7.20538L95.5728 6.45463L90.3892 7.65583L82.7758 10.0582L78.5642 11.7099L74.0285 13.6618L69.4929 15.7639L65.1192 18.1663L60.9076 20.7189L57.0199 23.4216L53.4562 26.2744L48.2726 32.2805L46.3287 38.4366L46.8147 39.3375L51.3503 40.2384L56.6959 38.7369L61.0696 37.0853L65.6052 35.1333L70.3028 32.5808L74.8385 30.0282L79.2121 27.1753L83.0998 24.4726L86.5015 21.7699L89.9032 18.3165L91.0372 15.7639L90.7132 15.1633L89.9032 14.7129L84.7197 14.863L80.508 15.9141L75.4864 17.5657L70.3028 19.818L65.1192 22.6708L60.9076 25.824L57.9918 29.4276L56.8579 33.1814L62.6894 32.1303L68.197 29.1273L71.9227 26.5747L76.2963 23.1213L79.0501 21.0192L73.2186 22.9711L69.0069 24.7729L65.9292 25.9741L69.8169 23.5717L74.1905 21.3195L78.4022 19.818L80.67 20.1183L80.832 20.7189L77.2683 24.9231L73.7045 27.3255L69.6549 29.878L65.4432 31.9802L61.3935 33.782L56.3719 34.833L55.562 33.9321L55.4 32.7309L58.3158 27.6258L62.6894 23.5717L68.197 19.818L74.6765 16.5147L81.4799 14.2624L88.1214 13.5117L91.1991 13.9621L92.3331 15.1633L92.495 16.6648L89.5793 21.4696L85.3676 25.0732L80.022 28.5267L74.5145 31.83L69.3309 34.6829L65.2812 36.6348L61.2315 38.4366L57.1819 39.788L52.9702 40.839L51.6743 40.9892L50.3784 41.2895H49.0825L45.5188 40.3886L45.0328 39.788L44.7089 38.8871L44.5469 37.836V36.785L46.8147 31.83L49.8924 27.9261L53.6181 24.4726L57.5058 21.7699Z" stroke="black" stroke-width="0.311913"/>
</g>
<defs>
<clipPath id="clip0_2109_212558">
<rect width="150" height="150" fill="white"/>
</clipPath>
</defs>
</svg>
