<svg width="150" height="150" viewBox="0 0 150 150" fill="none" xmlns="http://www.w3.org/2000/svg">
<g clip-path="url(#clip0_2109_212159)">
<path d="M68.018 17.5926L64.5646 13.8889L61.7117 10L57.8078 8.14815L53.003 9.62963L48.4985 9.44444L44.1441 8.33333L40.0901 7.03704L34.8348 6.48148L30.1802 7.40741L26.7267 10.7407L24.1742 15.3704L21.6216 19.6296L16.967 22.2222L15.4655 28.7037L16.3664 33.7037L19.3694 37.963L20.8709 42.7778L16.8168 46.1111L12.9129 49.6296L9.00901 53.1481L8.10811 53.7037L6.60661 58.8889L4.8048 64.0741L3.3033 69.8148L2.25225 75.3704L0.45045 80.5555L0.15015 82.7778L0 84.8148V86.8519L1.05105 92.037L3.15315 96.6667L5.85586 101.111L8.55856 105.556L9.45946 107.222L13.3634 109.63L17.4174 110.926L23.4234 111.481H29.5796L32.1321 112.222L32.4324 112.778L32.2823 113.519L34.0841 118.519L36.1862 123.704L40.3904 128.704L43.6937 131.667L47.7477 136.296L51.3514 141.296L55.2553 144.63L60.0601 145L65.6156 145.37L70.5706 146.481L75.8258 147.963L80.6306 149.074L83.033 149.444L84.0841 149.63H84.985L89.1892 148.519L91.5916 143.889L94.1441 137.963L96.3964 132.593L99.0991 128.148L102.853 125.741L107.057 126.852L111.712 129.444L116.066 132.407L119.97 134.63L124.474 133.704L127.778 130.926L132.132 129.63L136.637 128.333L140.691 126.111L143.694 122.222L144.895 116.481L145.946 110.926L147.447 105.741L148.949 100.37L149.85 95.1852V93.5185V91.6667L149.399 85.7407L149.249 78.7037L148.799 71.8519L146.847 67.037L145.946 66.2963L140.991 65.7407L136.637 64.8148L131.532 63.1481L127.628 60.3704L128.078 55.3704L128.228 48.8889L128.829 43.1481L129.279 36.8519V33.3333L130.48 27.5926L129.429 21.1111L126.727 15.9259L123.574 12.037L119.67 8.51852L115.015 4.81481L110.511 2.22222L106.306 0.555556L103.754 0H102.402H101.201L100 0.185185L96.3964 4.07407L91.5916 6.85185L86.036 7.22222L81.3814 6.2963L78.2282 6.48148L75.5255 11.1111L72.973 15.9259L69.5195 18.5185L68.018 17.5926Z" fill="#999999"/>
<path d="M84.6851 60.0032L81.9824 54.818L79.7301 48.8921L77.9283 43.5217L76.1265 38.1513L74.1746 32.781L72.3728 28.1513L70.2707 23.1513L68.4689 20.7439H68.0184L63.9644 19.4476L62.0124 15.0032L59.4599 10.1884L57.9584 9.818L57.2076 9.63281H56.607L52.4028 10.7439L48.3488 12.4106L43.3938 12.9661L38.7391 12.2254L34.3848 10.9291L31.0815 9.63281L32.7331 14.2624L35.1355 22.9661L36.1866 30.7439L35.8863 37.9661L34.8352 44.2624L32.7331 50.0032L30.1806 55.1884L27.0274 59.6328L23.574 63.7069L19.8202 67.2254L16.2166 70.3736L12.9133 72.9661L8.40882 76.1143L4.80521 79.2624L4.50491 79.818L3.60401 83.7069L3.30371 86.2995L3.45386 88.7069L5.55596 93.1513L9.76017 96.855L11.8623 101.485L10.6611 107.04L10.9614 108.151L16.0665 109.262L21.7722 108.707L27.4779 108.337L31.6821 109.448L35.7361 113.151L39.1896 116.67L40.0905 121.485L42.4929 125.929L44.8953 130.374L47.598 134.262L51.2016 138.707L55.556 142.04L60.3608 143.337L64.8653 142.596L70.4208 139.262L74.7752 135.188L77.0274 132.411L80.1806 136.299L81.5319 142.04L82.8833 147.596L84.5349 150.003H84.9854H85.4358L89.3397 145.559L92.4929 138.892L93.8443 135.929L96.6971 132.225L98.6491 127.411L100.901 123.151L101.352 122.781H101.952L106.457 124.262L111.112 127.04L115.916 130.003L120.271 131.855L125.075 130.188L129.58 127.596L133.634 125.003L137.388 121.855L140.541 116.67L140.841 115.188L140.691 114.448L136.036 111.855L131.081 110.003L125.826 108.151L120.871 105.744L117.268 102.411L116.217 96.6699L119.22 90.7439L123.574 86.1143L126.577 83.5217L130.03 80.7439L134.235 77.781L139.039 74.4476L144.595 71.1143L144.295 70.3736L140.691 68.1513L136.337 67.5958L131.382 66.6699L126.877 65.9291L121.322 65.7439L116.217 65.5587L111.712 64.6328L111.112 64.0773L110.811 63.7069V62.9661L111.112 62.2254L112.763 57.0402L115.316 52.5958L118.469 47.781L121.922 42.9661L125.075 38.1513L127.628 33.7069L129.28 28.5217L128.679 22.5958L125.075 18.8921L121.172 16.1143L117.118 13.3365L112.012 13.8921L107.958 15.5587L103.904 17.781L99.8503 20.1884L96.2467 22.4106L92.3428 24.4476L91.8923 24.6328L90.3908 30.3736L92.3428 37.2254L94.7452 41.855L97.1476 46.2995L100 51.2995L100.451 52.4106V53.3365L96.2467 56.6699L91.4418 59.4476L86.9373 60.9291L84.6851 60.0032Z" fill="#666666"/>
<path d="M80.1802 72.9624H79.7298L76.5766 77.4068L73.1232 82.7772L69.6697 88.1476L66.8169 92.2216L65.1652 93.1476L65.0151 92.9624L64.2643 87.7772L64.5646 81.4809L65.0151 75.9253L65.4655 70.1846L65.916 64.8142L66.3664 58.5179L65.7658 53.8883L65.6157 53.7031L65.0151 55.555L62.913 60.7402L60.2103 65.555L56.907 69.9994L53.4535 73.7031L49.8499 76.6661L45.1953 79.2587L40.0902 79.4439L36.7868 75.3698L36.1862 72.592L33.934 76.8513L30.4805 81.1105L28.0781 85.555L27.6277 88.3328L27.4775 89.9994V91.4809L30.1802 95.7402L32.8829 99.8142L32.1322 103.518L32.2823 104.073L32.8829 104.629H38.1382L43.0932 104.259L47.1472 106.296L50.901 108.148L55.1052 109.814L56.907 111.111L57.0571 111.481V111.851L56.907 117.407L57.8079 122.962L59.4595 124.999L59.91 125.185L60.2103 124.999L60.5106 118.333L61.1112 112.592L63.0631 106.481L65.6157 102.592L67.4175 107.777L71.7718 110.185L75.976 108.518L80.1802 105.74L83.934 103.703L87.5376 106.851L87.988 112.962L87.6877 119.074L87.2373 122.962L89.4896 118.703L90.8409 113.888L90.9911 113.703H91.4415L95.3454 115.37L98.949 117.592L102.703 115.925L107.207 114.629L112.162 113.148L115.916 110.555L116.667 108.703L116.517 108.333L112.463 106.111L108.108 104.629L103.754 102.592L100.601 98.7031L102.553 92.9624L107.357 88.1476L112.463 84.4439L115.616 82.2216L119.069 79.9994L118.919 79.6291L114.414 77.9624L110.06 77.0365L103.904 77.4068L100.901 80.555V80.9253L101.051 81.1105H101.351L102.553 74.0735L104.505 68.1476L106.156 62.0365L106.306 59.0735L106.156 58.7031H105.706L101.952 62.2216L98.3484 67.2216L95.4956 71.2957L92.1923 75.9253L88.5886 78.8883L84.3844 76.6661L81.0811 73.8883L80.1802 72.9624Z" fill="#4C4C4C"/>
</g>
<defs>
<clipPath id="clip0_2109_212159">
<rect width="150" height="150" fill="white"/>
</clipPath>
</defs>
</svg>
