<svg width="150" height="150" viewBox="0 0 150 150" fill="none" xmlns="http://www.w3.org/2000/svg">
<g clip-path="url(#clip0_2109_212447)">
<path d="M74.0741 149.848C114.984 149.848 148.148 147.159 148.148 143.842C148.148 140.525 114.984 137.836 74.0741 137.836C33.1641 137.836 0 140.525 0 143.842C0 147.159 33.1641 149.848 74.0741 149.848Z" fill="#B2B2B2" stroke="black" stroke-width="1.05462"/>
<path d="M74.0736 149.096C109.87 149.096 138.888 146.744 138.888 143.841C138.888 140.939 109.87 138.586 74.0736 138.586C38.2774 138.586 9.25879 140.939 9.25879 143.841C9.25879 146.744 38.2774 149.096 74.0736 149.096Z" fill="#D9D9D9"/>
<path d="M83.3335 145.794C105.834 145.794 124.074 144.315 124.074 142.491C124.074 140.666 105.834 139.188 83.3335 139.188C60.833 139.188 42.5928 140.666 42.5928 142.491C42.5928 144.315 60.833 145.794 83.3335 145.794Z" fill="#EDEDED"/>
<path d="M94.4449 143.541C106.718 143.541 116.667 142.734 116.667 141.739C116.667 140.744 106.718 139.938 94.4449 139.938C82.1719 139.938 72.2227 140.744 72.2227 141.739C72.2227 142.734 82.1719 143.541 94.4449 143.541Z" fill="white"/>
<path d="M74.0741 126.426C114.984 126.426 148.148 123.737 148.148 120.42C148.148 117.103 114.984 114.414 74.0741 114.414C33.1641 114.414 0 117.103 0 120.42C0 123.737 33.1641 126.426 74.0741 126.426Z" fill="#B2B2B2" stroke="black" stroke-width="1.05462"/>
<path d="M74.0736 125.675C109.87 125.675 138.888 123.322 138.888 120.419C138.888 117.517 109.87 115.164 74.0736 115.164C38.2774 115.164 9.25879 117.517 9.25879 120.419C9.25879 123.322 38.2774 125.675 74.0736 125.675Z" fill="#D9D9D9"/>
<path d="M83.3335 122.224C105.834 122.224 124.074 120.745 124.074 118.92C124.074 117.096 105.834 115.617 83.3335 115.617C60.833 115.617 42.5928 117.096 42.5928 118.92C42.5928 120.745 60.833 122.224 83.3335 122.224Z" fill="#EDEDED"/>
<path d="M94.4449 120.119C106.718 120.119 116.667 119.313 116.667 118.317C116.667 117.322 106.718 116.516 94.4449 116.516C82.1719 116.516 72.2227 117.322 72.2227 118.317C72.2227 119.313 82.1719 120.119 94.4449 120.119Z" fill="white"/>
<path d="M74.0741 96.9964C114.984 96.9964 148.148 94.3074 148.148 90.9904C148.148 87.6734 114.984 84.9844 74.0741 84.9844C33.1641 84.9844 0 87.6734 0 90.9904C0 94.3074 33.1641 96.9964 74.0741 96.9964Z" fill="#B2B2B2" stroke="black" stroke-width="1.05462"/>
<path d="M74.0736 96.3933C109.87 96.3933 138.888 94.0405 138.888 91.1381C138.888 88.2357 109.87 85.8828 74.0736 85.8828C38.2774 85.8828 9.25879 88.2357 9.25879 91.1381C9.25879 94.0405 38.2774 96.3933 74.0736 96.3933Z" fill="#D9D9D9"/>
<path d="M83.3335 93.2394C105.834 93.2394 124.074 91.7605 124.074 89.9361C124.074 88.1118 105.834 86.6328 83.3335 86.6328C60.833 86.6328 42.5928 88.1118 42.5928 89.9361C42.5928 91.7605 60.833 93.2394 83.3335 93.2394Z" fill="#EDEDED"/>
<path d="M94.4449 90.838C106.718 90.838 116.667 90.0313 116.667 89.0362C116.667 88.0411 106.718 87.2344 94.4449 87.2344C82.1719 87.2344 72.2227 88.0411 72.2227 89.0362C72.2227 90.0313 82.1719 90.838 94.4449 90.838Z" fill="white"/>
<path d="M74.0742 64.2674C111.916 64.2674 142.593 61.7801 142.593 58.7118C142.593 55.6436 111.916 53.1562 74.0742 53.1562C36.2324 53.1562 5.55566 55.6436 5.55566 58.7118C5.55566 61.7801 36.2324 64.2674 74.0742 64.2674Z" fill="#B2B2B2" stroke="black" stroke-width="1.05462"/>
<path d="M74.074 63.6599C107.825 63.6599 135.185 61.4415 135.185 58.705C135.185 55.9684 107.825 53.75 74.074 53.75C40.3233 53.75 12.9629 55.9684 12.9629 58.705C12.9629 61.4415 40.3233 63.6599 74.074 63.6599Z" fill="#D9D9D9"/>
<path d="M83.3329 60.5138C103.788 60.5138 120.37 59.1693 120.37 57.5108C120.37 55.8523 103.788 54.5078 83.3329 54.5078C62.8779 54.5078 46.2959 55.8523 46.2959 57.5108C46.2959 59.1693 62.8779 60.5138 83.3329 60.5138Z" fill="#EDEDED"/>
<path d="M92.593 58.5611C103.843 58.5611 112.963 57.8216 112.963 56.9095C112.963 55.9973 103.843 55.2578 92.593 55.2578C81.3428 55.2578 72.2227 55.9973 72.2227 56.9095C72.2227 57.8216 81.3428 58.5611 92.593 58.5611Z" fill="white"/>
<path d="M74.0738 36.0368C103.734 36.0368 127.778 34.0873 127.778 31.6825C127.778 29.2776 103.734 27.3281 74.0738 27.3281C44.4141 27.3281 20.3701 29.2776 20.3701 31.6825C20.3701 34.0873 44.4141 36.0368 74.0738 36.0368Z" fill="#B2B2B2" stroke="black" stroke-width="1.05462"/>
<path d="M72.2224 35.5891C98.8139 35.5891 120.371 33.8412 120.371 31.6852C120.371 29.5291 98.8139 27.7812 72.2224 27.7812C45.6309 27.7812 24.0742 29.5291 24.0742 31.6852C24.0742 33.8412 45.6309 35.5891 72.2224 35.5891Z" fill="#D9D9D9"/>
<path d="M81.4819 33.0358C96.8231 33.0358 109.26 32.0274 109.26 30.7835C109.26 29.5396 96.8231 28.5312 81.4819 28.5312C66.1406 28.5312 53.7041 29.5396 53.7041 30.7835C53.7041 32.0274 66.1406 33.0358 81.4819 33.0358Z" fill="#EDEDED"/>
<path d="M87.0375 31.379C95.2195 31.379 101.852 30.8412 101.852 30.1778C101.852 29.5144 95.2195 28.9766 87.0375 28.9766C78.8555 28.9766 72.2227 29.5144 72.2227 30.1778C72.2227 30.8412 78.8555 31.379 87.0375 31.379Z" fill="white"/>
<path d="M72.2219 6.30631C93.6996 6.30631 111.111 4.89459 111.111 3.15315C111.111 1.41171 93.6996 0 72.2219 0C50.7442 0 33.333 1.41171 33.333 3.15315C33.333 4.89459 50.7442 6.30631 72.2219 6.30631Z" fill="#B2B2B2" stroke="black" stroke-width="1.05462"/>
<path d="M74.0739 5.85414C93.5061 5.85414 109.259 4.57688 109.259 3.00129C109.259 1.4257 93.5061 0.148438 74.0739 0.148438C54.6416 0.148438 38.8887 1.4257 38.8887 3.00129C38.8887 4.57688 54.6416 5.85414 74.0739 5.85414Z" fill="#D9D9D9"/>
<path d="M79.6294 4.20517C91.9024 4.20517 101.852 3.39847 101.852 2.40336C101.852 1.40826 91.9024 0.601562 79.6294 0.601562C67.3565 0.601562 57.4072 1.40826 57.4072 2.40336C57.4072 3.39847 67.3565 4.20517 79.6294 4.20517Z" fill="#EDEDED"/>
<path d="M83.3338 2.85649C89.4703 2.85649 94.4449 2.45314 94.4449 1.95559C94.4449 1.45803 89.4703 1.05469 83.3338 1.05469C77.1973 1.05469 72.2227 1.45803 72.2227 1.95559C72.2227 2.45314 77.1973 2.85649 83.3338 2.85649Z" fill="white"/>
</g>
<defs>
<clipPath id="clip0_2109_212447">
<rect width="150" height="150" fill="white"/>
</clipPath>
</defs>
</svg>
