<svg width="150" height="150" viewBox="0 0 150 150" fill="none" xmlns="http://www.w3.org/2000/svg">
<g clip-path="url(#clip0_2109_212683)">
<path d="M150 0V150L146.997 140.993L143.393 131.64L139.339 121.94L134.985 112.587L130.781 103.58L126.727 95.2656L123.423 89.03L120.12 83.1409L119.069 82.7945L115.165 86.9515L110.961 92.4942L106.607 98.0369L102.853 102.887L98.1982 108.43L93.994 113.626L89.9399 118.129L86.1862 121.94L82.2823 125.751L78.2282 129.215L74.024 132.333L69.6697 135.104L65.4655 137.875L60.8108 139.607L56.3063 140.993H50.7508L46.2462 139.954L41.5916 137.529L36.9369 134.411L32.2823 130.6L27.4775 125.751L22.973 120.554L18.7688 115.358L14.8649 109.815L11.2613 104.273L6.90691 95.9584L3.6036 88.6836L0.45045 79.6767L0.15015 76.9053L0 74.8268V74.4804L0.15015 73.7875L2.4024 64.0878L5.40541 56.4665L9.45946 48.4988L12.6126 42.6097L16.2162 36.7206L19.97 31.1778L24.024 25.9815L28.2282 21.1316L32.5826 16.9746L36.9369 13.164L41.4414 10.3926L45.6456 8.31409L50.9009 7.62125L56.006 7.96767L60.2102 9.00693L64.7147 10.739L69.0691 13.5104L73.7237 16.2818L78.2282 19.746L82.5826 23.903L86.9369 28.06L91.1411 32.5635L94.8949 36.7206L98.4985 40.5312L102.402 45.3811L106.456 50.5774L110.06 55.0808L113.814 59.9307L117.568 64.4342L119.52 66.1663L122.823 60.97L128.228 50.9238L132.282 42.6097L136.036 34.642L139.64 27.0208L142.643 19.3995L146.697 9.35335L148.949 2.77136L150 0Z" fill="#FF8040" stroke="black" stroke-width="0.456136"/>
</g>
<defs>
<clipPath id="clip0_2109_212683">
<rect width="150" height="150" fill="white"/>
</clipPath>
</defs>
</svg>
