<svg width="150" height="150" viewBox="0 0 150 150" fill="none" xmlns="http://www.w3.org/2000/svg">
<g clip-path="url(#clip0_2109_212629)">
<path fill-rule="evenodd" clip-rule="evenodd" d="M120.13 96.6192L117.857 96.9751L116.234 98.0427L114.935 99.6441L113.961 101.423L112.987 103.559L112.338 105.516L111.039 107.473L109.74 108.897L108.117 110.142L106.169 111.21L104.545 112.1L102.922 112.811L101.623 113.701L100.649 114.769L100 116.014V117.438V119.751L100.649 121.886L101.623 123.843L102.922 125.623L104.87 126.868L107.468 127.936L110.714 128.292L114.61 128.114L118.506 127.046L121.753 125.267L124.351 122.954L126.623 120.285L128.247 117.26L129.221 114.235L129.87 111.032L130.195 108.007V106.05V104.093L129.545 102.313L128.896 100.534L127.597 98.9324L125.649 97.8648L123.052 96.9751L120.13 96.6192ZM27.5974 84.3416L31.1688 80.427L34.7403 76.6904L38.6364 72.9537L42.5325 69.0391L46.4286 65.3025L50.3247 61.3879L53.8961 57.4733L57.1429 53.5587L60.0649 49.6441L62.987 45.5516L64.9351 41.4591L66.5584 37.1886L67.5325 32.9181V28.6477L67.2078 24.1993L65.5844 19.573L63.3117 15.6584L60.7143 12.4555L57.7922 9.60854L55.1948 7.47331L52.9221 5.51601L51.9481 4.09253L52.2727 2.66904L54.5455 1.42349L61.3636 0L67.2078 0.711744L72.4026 3.02491L76.9481 6.58363L80.8442 10.6762L84.0909 14.9466L86.3636 18.8612L88.3117 21.8861L93.1818 28.4698L98.7013 35.0534L104.87 41.637L111.364 48.3986L117.857 55.1601L124.351 62.0996L130.519 68.8612L136.039 75.8007L141.234 82.7402L145.13 89.6797L148.377 96.6192L150 103.559V110.498L148.701 117.438L145.13 124.377L139.61 131.317L134.091 135.943L126.623 140.036L118.182 143.416L108.442 146.085L97.7273 148.043L86.3636 149.288L75 150L63.3117 149.822L51.9481 148.932L41.2338 147.153L30.8442 144.84L21.7532 141.459L13.961 137.367L7.46753 132.562L2.92208 126.69L0.324675 120.107L0 117.972L0.324675 116.014L0.649351 113.879L1.62338 111.744L2.92208 109.786L4.54545 107.651L6.16883 105.516L8.11688 103.203L10.3896 101.068L12.6623 98.9324L14.9351 96.6192L17.5325 94.3061L20.1299 91.8149L22.7273 89.3238L25 86.8327L27.5974 84.3416Z" fill="#80FFFF"/>
<path d="M120.13 96.6172L117.857 96.9731L116.234 98.0407L114.935 99.6421L113.961 101.421L112.987 103.557L112.338 105.514L111.039 107.471L109.74 108.895L108.117 110.14L106.169 111.208L104.545 112.098L101.623 113.699L100.649 114.767L100 116.012V119.749L100.649 121.884L101.623 123.841L102.922 125.621L104.87 126.866L107.468 127.934L110.714 128.29L114.61 128.112L118.506 127.044L121.753 125.265L124.351 122.952L126.623 120.283L128.247 117.258L129.221 114.233L129.87 111.03L130.195 108.005V104.09L129.545 102.311L128.896 100.532L127.597 98.9304L125.649 97.8627L123.052 96.9731L120.13 96.6172Z" stroke="black" stroke-width="0.480714"/>
<path d="M27.5974 84.3416L31.1688 80.427L34.7403 76.6904L38.6364 72.9537L42.5325 69.0391L46.4286 65.3025L50.3247 61.3879L53.8961 57.4733L57.1429 53.5587L60.0649 49.6441L62.987 45.5516L64.9351 41.4591L66.5584 37.1886L67.5325 32.9181V28.6477L67.2078 24.1993L65.5844 19.573L63.3117 15.6584L57.7922 9.60854L52.9221 5.51601L51.9481 4.09253L52.2727 2.66904L54.5455 1.42349L61.3636 0L67.2078 0.711744L72.4026 3.02491L76.9481 6.58363L80.8442 10.6762L84.0909 14.9466L86.3636 18.8612L88.3117 21.8861L93.1818 28.4698L98.7013 35.0534L104.87 41.637L111.364 48.3986L117.857 55.1601L124.351 62.0996L130.519 68.8612L136.039 75.8007L141.234 82.7402L145.13 89.6797L148.377 96.6192L150 103.559V110.498L148.701 117.438L145.13 124.377L139.61 131.317L134.091 135.943L126.623 140.036L118.182 143.416L108.442 146.085L97.7273 148.043L86.3636 149.288L75 150L63.3117 149.822L51.9481 148.932L41.2338 147.153L30.8442 144.84L21.7532 141.459L13.961 137.367L7.46753 132.562L2.92208 126.69L0.324675 120.107L0 117.972L0.324675 116.014L1.62338 111.744L4.54545 107.651L8.11688 103.203L12.6623 98.9324L17.5325 94.306L22.7273 89.3238L27.5974 84.3416Z" stroke="black" stroke-width="0.480714"/>
</g>
<defs>
<clipPath id="clip0_2109_212629">
<rect width="150" height="150" fill="white"/>
</clipPath>
</defs>
</svg>
