<svg width="150" height="150" viewBox="0 0 150 150" fill="none" xmlns="http://www.w3.org/2000/svg">
<g clip-path="url(#clip0_2109_212248)">
<path d="M47.3451 150L39.3805 149.312L30.531 146.904L25.6637 144.839L21.6814 142.087L17.2566 138.647L13.2743 134.174L10.177 130.046L6.19469 126.95L2.65487 122.133L1.32743 118.349L0 113.188L0.442478 109.404L1.32743 102.179L2.21239 94.9541L3.09735 87.7294L3.53982 84.289L8.84956 89.4495H12.3894L14.6018 86.0092L15.9292 79.8165L16.3717 72.2477L17.2566 64.6789L18.5841 57.4541L20.354 52.6376L23.4513 57.7982L27.4336 62.6147L30.531 69.1514L30.9735 73.2798L30.531 78.7844L31.4159 84.289L32.3009 89.7936L33.6283 95.6422L35.3982 99.0826L37.6106 102.867L38.4956 102.179L38.9381 97.7064L39.3805 91.8578L39.823 87.3853L44.2478 84.9771H46.4602L47.3451 81.5367L46.0177 77.0642L43.8053 70.5275L42.0354 64.6789L41.1504 60.8945L40.708 56.078V49.8853L41.5929 45.4128L42.4779 40.5963L42.9204 36.1239L43.8053 31.6514L46.4602 28.8991L49.5575 23.0505L52.6549 15.8257L55.7522 8.60092L58.4071 3.09633L61.0619 0L62.8319 1.03211L64.6018 7.56881L66.3717 13.0734L69.0266 16.8578L69.9115 19.6101L70.354 23.7385L69.469 29.2431L67.6991 36.8119L72.1239 41.6284L75.6637 45.4128L78.7611 50.2294L80.0885 53.3257L81.4159 57.7982V65.367L81.8584 69.4954L82.3009 73.6239L83.1858 77.7523L85.8407 84.289L88.0531 86.6973L94.2478 78.0963L97.7876 74.656L99.115 75.6881L99.5575 79.8165L98.6726 85.6651L98.2301 91.5138L97.7876 97.0183L98.2301 100.115L101.77 97.0183L107.08 93.578L110.177 88.4174L111.504 84.289V62.9587L115.929 69.8394L118.584 71.2156L119.912 68.4633L120.796 62.9587V43.0046L121.681 39.5642L124.336 44.0367L126.549 47.4771L130.973 52.2936L134.956 55.3899L138.938 57.7982L142.478 63.6468L146.46 68.4633L149.558 74.656L150 79.1284L149.115 84.289L145.133 89.4495L141.15 94.9541L137.611 100.803L134.071 106.307L131.858 111.124L130.531 114.908V117.317L132.301 118.349L144.69 113.876L149.115 113.188L148.23 115.596L143.363 120.413L136.283 126.261L128.761 132.454L122.124 137.959L118.584 142.087L115.929 145.528L112.832 147.592L105.752 148.968L98.6726 149.312H95.1327L91.5929 150H86.2832H47.3451Z" fill="#FF0000" stroke="black" stroke-width="0.78033"/>
<path d="M47.3454 147.249L40.2658 145.529L34.0711 145.873L26.9915 143.465L22.5667 140.024L16.8145 134.176L12.3897 129.703L9.29235 124.199L6.195 118.694L4.86757 115.942L3.09766 113.19L3.54013 106.997L4.42509 103.213L6.195 101.492L11.5047 100.804L12.3897 100.116L13.2746 97.3639L15.487 93.5795L16.8145 89.451L17.6994 84.9786L18.5844 80.1621L19.0269 75.6896L19.9118 71.2171L21.2393 66.7446L23.4516 62.9602L24.7791 68.8088L25.2215 74.6575L25.664 80.8501L26.9915 86.6988L28.3189 93.5795L29.6463 98.052L32.7437 102.524L36.2835 105.621L37.1685 108.029L38.0534 107.685L41.1508 103.901L43.8056 100.46L44.6906 100.116L43.8056 105.277L49.1154 103.901L53.9826 98.052L54.4251 93.9235V90.1391L53.9826 86.0107L54.4251 78.7859L53.0977 75.0015L51.3277 71.5611L49.5578 67.7767L46.903 60.896L46.4605 53.6712L47.7879 47.4786V43.0061L47.3454 38.5336V31.6529L52.2127 25.8043L56.195 19.6116L59.7348 13.763L61.9472 10.6666L64.6021 7.57031V11.0107L63.7171 17.8914L61.9472 24.0841L61.0623 30.6208V34.0611L65.487 39.5657L69.4693 44.3822L73.0092 49.5428L77.8764 55.0474V58.8318L78.3189 62.9602L79.2038 67.4327L79.6463 72.2492L80.0888 77.0657L80.9738 81.5382L81.4162 86.0107V89.451L84.9561 92.8914L89.8233 95.9877L94.6906 99.4281L98.2304 102.868L102.213 99.0841L106.637 95.9877L111.062 93.2355L115.045 89.451V68.4648L118.142 73.9694L120.354 75.3455L122.124 73.6254L123.009 69.841L123.452 64.6804L123.894 59.1758L124.337 54.0153L125.222 49.8868L129.204 53.6712L132.301 59.1758L135.399 64.6804L138.938 68.4648L140.708 73.2813L142.921 77.7538L144.691 81.5382L145.576 84.2905L143.363 88.4189L140.266 92.8914L137.168 97.0199L133.629 101.148L130.531 105.621L126.991 109.749L124.337 114.222L121.682 118.35L122.124 120.07H133.629L136.283 121.102L135.841 123.855L130.089 129.703L118.584 139.336L111.505 143.465L104.425 145.185L98.2304 146.217L94.6906 146.561L91.5932 147.249H86.2835H47.3454Z" fill="#FF6600"/>
<path d="M53.5396 145.18L46.9024 143.46L39.8228 143.116L36.283 142.771L33.6281 141.395L29.6458 135.547L26.106 131.762L21.6812 127.634L17.6989 123.161L15.929 120.409L14.6016 116.969L20.3538 115.249L26.5485 111.464L27.4334 106.648L25.6635 101.487L23.8936 98.3908L25.6635 97.3587L30.5308 102.175L32.7432 106.648L34.9555 110.776L37.6104 114.216L39.8228 115.593L41.5927 114.56L45.1325 119.377L48.6724 121.785V115.593L47.7874 111.464L52.6547 113.528L54.867 109.4L57.9644 104.927L59.2918 100.799L57.5219 95.6385V91.166L59.7343 87.7256V79.8128L57.5219 73.6201L56.1945 69.8357L53.5396 62.955L52.6547 57.7944L59.7343 68.4596L63.2741 72.244L64.6016 71.2119L63.7166 66.3954L61.5042 59.8587L59.7343 52.2899L58.8493 46.0972L59.7343 41.9688L60.6193 45.4091L61.9467 49.1935L64.6016 54.01L67.2564 58.4825L69.9113 63.299L72.1237 67.7715L73.8936 71.8999L76.106 77.7486V81.877L75.6635 86.0054L74.7785 90.4779L74.3361 97.3587L75.221 98.7348L77.8759 98.0467L78.3184 103.207L79.2033 108.712L80.0883 114.216L80.5308 119.377L84.0706 121.785L87.6104 122.129L93.8051 119.377L98.6724 115.593L100.442 114.56L101.77 114.905L106.194 110.432L109.292 107.336L112.389 104.239L113.717 102.863L114.159 98.3908V96.3265L113.717 95.6385L112.832 95.9825L115.929 92.1981L119.911 86.3495L121.239 86.0054L122.124 83.2532L122.566 79.1247L123.009 74.9963L123.451 70.5238V72.244L123.894 77.7486L128.318 80.1568L131.858 84.9733L132.301 87.7256L131.858 90.1339L131.416 95.2944L131.858 97.7027L129.646 100.799L127.433 104.239L124.336 107.336L121.239 110.776L118.141 114.216L115.044 117.313L112.832 120.753L110.619 123.849V125.57L112.389 126.258H121.239L123.009 126.946V128.322L117.256 132.45L112.832 136.923L106.637 142.083L102.212 144.148L96.9024 145.18H89.8228H53.5396Z" fill="#FFFF00"/>
<path d="M57.9648 144.841L53.54 144.153L50.4426 143.465L48.2303 142.777L46.4603 142.089L45.5754 141.057L45.1329 139.336L44.6904 137.616V134.864L46.0179 135.208L48.2303 136.24L51.3276 136.928L54.8674 137.616L58.4072 137.96L61.0621 137.616L62.3895 135.896V133.144L65.0444 131.424L65.9294 130.047L65.0444 128.327L63.2745 126.607L61.5046 124.887L59.2922 123.511L57.9648 122.135L57.5223 121.102L58.8497 120.07L62.832 121.102L66.3718 122.135L67.6993 121.102H68.1418L69.0267 122.823L70.3541 125.231L71.6816 127.983L72.5665 130.735L73.894 133.144L74.7789 134.864H75.2214L77.8763 132.112L80.0887 130.391L82.301 129.703L84.9559 129.359H87.1683L90.2656 129.703L93.8055 129.359L98.2303 129.015L97.7878 130.391L96.9028 132.112L96.4603 133.832L95.5754 135.896L95.1329 137.96L94.2479 140.024L93.8055 141.745L92.9205 142.777L91.5931 143.121L88.9382 143.465L85.8409 143.809H82.7435L79.6462 144.153L76.5488 144.497H73.894L72.5665 144.841H70.7966H57.9648Z" fill="white"/>
</g>
<defs>
<clipPath id="clip0_2109_212248">
<rect width="150" height="150" fill="white"/>
</clipPath>
</defs>
</svg>
