<svg width="150" height="150" viewBox="0 0 150 150" fill="none" xmlns="http://www.w3.org/2000/svg">
<g clip-path="url(#clip0_2109_212323)">
<path d="M83.8428 149.85L91.048 145.796L98.2533 140.691L104.148 135.736L106.769 130.781L110.044 125.375L113.319 121.321L119.214 116.066L125.109 111.562L132.314 106.306L142.14 100.15L149.345 94.2943L150 92.042V89.6396V87.0871L147.38 81.982L142.795 76.7267L136.9 71.3213L129.039 65.6156L120.524 59.7598L110.699 53.7538L100.218 47.5976L90.393 41.1411L79.9127 34.5345L70.0873 27.9279L61.5721 21.1712L53.0568 14.1141L47.1616 7.05706L44.5415 3.6036L41.9214 0L40.6114 2.55255L37.3362 7.65766L34.7162 12.7628L30.786 17.7177L27.5109 22.8228L24.2358 27.9279L20.3057 32.8829L17.0306 37.988L13.7555 43.0931L11.1354 48.048L7.86026 53.3033L5.24017 58.4084L3.27511 63.5135L1.96507 68.7688L0.655022 74.1742L0 76.7267V79.4294V82.1321L3.93013 89.7898L7.86026 96.6967L13.1004 102.703L17.6856 107.958L22.9258 112.613L28.1659 116.817L36.6812 122.222L45.1965 127.027L53.0568 131.532L62.2271 136.036L70.7424 140.691L78.6026 145.946L81.2227 147.898L83.8428 149.85Z" fill="#BF0000"/>
<path d="M84.4976 140.238L93.6679 134.532L98.9081 130.478L101.528 125.974L104.803 121.169L109.388 116.514L117.904 110.058L123.799 105.703L132.314 100.748L133.624 97.2949L134.279 95.4931L133.624 93.6913L130.349 87.9856L126.419 83.9315L121.179 79.8775L114.629 75.6733L108.078 71.1688L100.873 66.6642L93.0129 62.0096L85.1526 57.2048L77.9474 52.2498L71.3971 47.2949L64.8469 42.1898L59.6068 36.9345L55.0216 31.6793L53.0565 28.9766L52.4015 30.9285L49.1264 36.6342L45.1963 42.1898L41.2661 47.8955L37.336 53.451L34.0609 59.0066L30.1308 64.7123L26.8557 70.418L24.8906 76.2739L22.9255 81.9796L22.2705 86.0336V87.9856V90.0877L24.8906 95.6432L28.1657 100.748L31.4408 105.253L39.3011 112.61L47.1613 118.466L55.6766 123.271L64.1919 127.775L72.7072 132.13L80.5675 137.235L84.4976 140.238Z" fill="#FFCC00"/>
<path d="M79.9131 130.632L87.1184 125.827L91.0485 121.022L94.3236 116.067L100.219 112.013L108.079 106.458L109.389 104.356V102.253L106.114 97.5987L100.219 92.4936L91.7035 87.0882L82.5332 81.5327L73.3629 75.5267L66.1577 69.2204L62.8826 66.0672L60.9175 62.9141L59.6075 65.1663L56.9874 69.821L53.7123 74.3255L50.4372 78.9801L47.8171 83.4846L45.197 88.1393L43.2319 92.7939L42.5769 95.1963L41.9219 97.5987V100.001L45.852 106.608L49.7821 111.563L55.0223 115.617L62.2276 120.271L70.0878 124.325L77.9481 128.83L79.9131 130.632Z" fill="#FFFF00"/>
</g>
<defs>
<clipPath id="clip0_2109_212323">
<rect width="150" height="150" fill="white"/>
</clipPath>
</defs>
</svg>
