<svg width="150" height="150" viewBox="0 0 150 150" fill="none" xmlns="http://www.w3.org/2000/svg">
<g clip-path="url(#clip0_2109_212566)">
<path d="M135.586 129.408L135.285 122.746L133.934 116.891L133.033 115.68L131.832 115.276L131.381 108.412L130.03 103.163L126.577 97.5101L121.772 93.8762L116.216 91.4536L112.162 90.0404L110.06 89.4347L109.009 95.2894L107.958 101.75L106.757 109.017L105.556 116.689L104.354 124.361L103.003 132.234L101.652 139.906L100.15 147.174L94.4444 148.587L89.3393 149.596L84.3844 150H82.1321H79.8799L75.2252 149.798L70.7207 149.394L66.0661 148.587L60.961 147.577L60.0601 140.511L59.009 133.042L57.8078 125.572L56.4565 117.699L55.1051 110.027L53.9039 102.355L52.7027 95.0875L51.8018 87.8196L49.0991 93.0686L46.8468 97.5101L43.5435 104.98L41.2913 110.834L37.8378 116.689L32.2823 120.525L25.8258 122.746L21.6216 123.957L16.6667 125.168L17.1171 118.506L18.1682 111.44L19.0691 104.576L19.5195 98.1157L18.6186 97.9139L15.4655 99.7308L15.1652 99.5289L16.6667 94.0781L17.8679 88.2234L18.9189 81.965L20.1201 75.7066L21.6216 69.852L23.8739 64.4011L27.027 59.7577L31.2312 56.3257L35.1351 53.7012L39.1892 50.8748L43.0931 49.2598L43.8438 49.0579L38.1381 49.4616L32.8829 48.6541L28.2282 47.4428L23.1231 46.6353L20.1201 47.6447L22.3724 42.7995L22.5225 42.3957L17.2673 40.5787L13.0631 39.7712L8.70871 39.5693L4.2042 39.7712L1.35135 40.175L0 40.3769L0.750751 39.3674L3.6036 33.9166L6.30631 28.0619L9.30931 22.4092L12.1622 18.7752L17.5676 17.1602L23.1231 17.362L28.8288 18.7752L34.5345 20.7941L40.0901 22.4092L45.045 23.0148L49.3994 22.2073L53.003 18.7752L51.8018 13.5262L48.3483 9.48856L43.5435 7.06595L39.1892 4.03768L38.2883 3.02826L44.4444 3.8358L50.1502 4.23957L55.4054 5.04711L59.9099 6.25841L63.8138 8.47914L67.7177 14.7376L68.9189 21.3997L69.0691 25.4374L72.5225 29.677L74.9249 31.4939L76.7267 26.245L79.5796 20.996L84.5345 16.9583L88.4384 14.5357L92.3423 11.9112L95.045 7.26783L98.949 2.82638L103.453 0.403769L105.405 0L103.754 2.42261L100.901 7.06595L100.3 9.28668L102.402 14.9394V16.7564L98.1982 21.1978L95.1952 25.4374L94.2943 26.6487L100 25.4374L106.607 22.4092L113.814 18.9771L121.021 15.9489L127.628 14.5357L133.033 15.9489L136.637 21.3997L137.538 25.8412L137.988 31.6958L138.288 32.9071L138.889 33.5128L139.489 33.7147L142.192 29.4751L142.643 27.4563L143.393 27.86L146.246 33.5128L147.898 40.9825L149.099 48.856L149.85 55.3163L150 56.9314V58.1427L146.096 54.3069L141.742 51.0767L135.886 48.0485L131.081 45.8277L125.826 43.8089L120.571 42.3957L115.315 41.79L110.661 42.3957L106.757 44.6164L105.105 46.4334L109.309 50.6729L113.964 52.6918L118.919 53.4993L124.024 53.9031L128.979 54.9125L133.634 57.537L137.838 62.5841L141.441 71.2651L142.793 77.1198L143.844 80.3499L139.94 78.7349L135.886 76.716L132.432 77.3217L130.931 81.1575L133.784 85.8008L136.036 91.4536L137.688 97.9139L138.889 104.778L139.189 111.642L138.889 118.304L137.688 124.361L135.586 129.408Z" fill="#008040" stroke="black" stroke-width="0.348212"/>
<path d="M53.0029 87.0113L54.054 94.0772L55.4053 102.96L56.1561 108.209L57.057 113.66L57.9579 119.111L58.7086 124.562L60.3603 134.656L61.4113 142.328L61.8618 146.163L61.7116 146.365L66.6666 147.173L71.3212 147.98L75.8258 148.384L78.078 148.586H80.3303H82.5825L87.2372 148.384L91.8918 147.778L96.6966 146.769L99.2492 145.961L100.45 138.896L101.802 131.426L103.153 123.754L104.504 116.083L105.706 108.613L106.757 101.345L107.658 95.0866L107.958 92.0584L108.258 89.4339H105.706L101.351 89.0301L97.1471 81.9642L93.093 79.9453H92.3423H91.4414H90.6906L93.9939 86.0018L95.045 92.4621V99.1243L94.2942 105.988L93.6936 113.458V116.083L90.6906 104.171L86.036 105.585L85.4354 106.19L84.3843 100.739L81.3813 95.8942L76.8768 91.8565L71.7717 88.6263L66.2161 86.6075L60.9609 85.3962L56.3062 85.5981L54.5044 86.2037L53.0029 87.0113Z" fill="#008040" stroke="black" stroke-width="0.348212"/>
</g>
<defs>
<clipPath id="clip0_2109_212566">
<rect width="150" height="150" fill="white"/>
</clipPath>
</defs>
</svg>
