<svg width="150" height="150" viewBox="0 0 150 150" fill="none" xmlns="http://www.w3.org/2000/svg">
<path d="M40.9914 139.938L34.6851 125.977L6.15661 112.341L1.50195 81.4968L15.7662 30.5227L61.562 6.49675L96.2467 13.3149L118.319 3.25L145.346 54.224L148.349 85.0682L129.43 105.523L118.319 129.549L96.2467 139.938L63.0635 146.757L40.9914 139.938Z" fill="white"/>
<path d="M40.9914 139.935L34.6851 125.974L6.15653 112.338L4.50488 98.7014L29.8803 75.0001L51.9523 125.974L94.595 91.5585L108.859 61.0391L131.081 67.8572L148.349 85.065L129.43 105.52L118.319 129.546L94.7451 139.935L63.0634 146.753L40.9914 139.935Z" fill="#E5E5E5"/>
<path d="M40.9914 139.938L34.6851 125.977L6.15661 112.341L1.50195 81.4968L15.7662 30.5227L61.562 6.49675L96.2467 13.3149L118.319 3.25L145.346 54.224L148.349 85.0682L129.43 105.523L118.319 129.549L94.7452 139.938L63.0635 146.757L40.9914 139.938Z" stroke="black" stroke-width="0.441588"/>
</svg>
