<svg width="150" height="150" viewBox="0 0 150 150" fill="none" xmlns="http://www.w3.org/2000/svg">
<path d="M78.6175 1.5L120.579 31.6802L127.814 27.476L134.566 60.6592L145.177 57.6562L131.19 91.5901L145.177 89.1877L110.45 121.77L124.437 119.218L92.1223 147.446L74.7589 148.347L25.5628 120.719L43.4085 123.422L4.82324 81.53L18.8104 84.2327L4.82324 49.6982L14.9519 53.9024L28.939 23.1216L36.1737 28.0766L78.6175 1.5Z" fill="#FFFF00"/>
<path d="M120.579 31.6846L127.814 27.4804L134.566 60.6636L145.177 57.6606L131.19 91.5946L145.177 89.1921L110.45 121.775L124.437 119.222L92.1223 147.45L74.7589 148.351L25.5628 120.724L43.4085 123.426L4.82324 81.5345L18.8104 84.2372L4.82324 49.7027L14.9519 53.9069L28.939 23.1261L34.7268 26.8798L36.1737 28.081L47.267 24.4774L57.3956 21.4744L71.3827 19.072L75.7236 18.9219L90.193 20.4234L101.286 23.4264L113.826 28.3813L120.579 31.6846Z" fill="#FFCC00"/>
<path d="M134.566 60.6629L145.177 57.6599L131.19 91.5939L145.177 89.1915L110.45 121.774L124.437 119.221L92.1223 147.45L74.7589 148.351L25.5628 120.723L43.4085 123.426L4.82324 81.5338L18.8104 84.2365L4.82324 49.702L12.5403 53.0053L14.9519 53.9062L20.7396 50.0023L26.5274 46.3987L40.0322 40.9933L54.984 37.69L70.9004 36.7891L87.2991 38.2906L103.698 42.6449L111.415 46.0984L119.614 50.1524L127.331 55.1074L134.566 60.6629Z" fill="#FF9900"/>
<path d="M131.19 91.5885L145.177 89.1861L110.45 121.769L124.437 119.216L92.1223 147.444L74.7589 148.345L25.5628 120.718L43.4085 123.42L4.82324 81.5284L18.8104 84.2311L20.7396 78.9759L23.6335 74.4714L30.3859 67.2641L39.0676 62.3092L48.7139 59.3062L64.6303 57.8047L81.029 59.7566L92.1223 62.159L102.251 65.6125L111.897 69.3662L120.097 73.7206L126.849 78.075L131.672 82.129L134.566 87.6846L131.19 91.5885Z" fill="#FF6600"/>
<path d="M110.45 121.775L124.437 119.222L92.122 147.451L74.7586 148.352L25.5625 120.724L43.4082 123.427L37.6204 113.066L35.6911 104.508L37.6204 97.9011L42.4435 92.9462L49.1959 89.6429L57.8776 87.8411L67.5239 87.3906L78.1348 87.9912L88.2635 89.793L97.9098 92.4957L106.109 95.9492L113.344 100.304L117.202 105.108L118.649 110.364L116.238 116.069L110.45 121.775Z" fill="#FF3300"/>
<path d="M78.6175 1.5L120.579 31.6802L127.814 27.476L134.566 60.6592L145.177 57.6562L131.19 91.5901L145.177 89.1877L110.45 121.77L124.437 119.218L92.1223 147.446L74.7589 148.347L25.5628 120.719L43.4085 123.422L4.82324 81.53L18.8104 84.2327L4.82324 49.6982L14.9519 53.9024L28.939 23.1216L36.1737 28.0766L78.6175 1.5Z" stroke="black" stroke-width="0.538218"/>
</svg>
