<svg width="150" height="150" viewBox="0 0 150 150" fill="none" xmlns="http://www.w3.org/2000/svg">
<path d="M12.1322 74.7017L26.9431 46.9909L51.5229 27.7138L68.8549 9.03906L98.3192 18.6776L125.42 37.3523H137.71L147.636 56.027L142.594 84.3403L125.42 93.9788H100.84L81.1448 84.3403L58.9284 93.9788L68.8549 131.328L44.1175 140.967L17.0166 131.328L2.36328 103.015L12.1322 74.7017Z" fill="#996633"/>
<path d="M26.9431 56.027L39.233 37.3523L51.5229 27.7138L68.8548 9.03906L93.4347 18.6776L132.825 46.9909L137.71 37.3523L142.594 56.027L145.115 74.7017L135.189 56.027L118.015 65.6656L81.1448 46.9909L46.6385 65.6656L49.1595 84.3403L31.8275 103.015L26.9431 65.6656L17.0166 74.7017L26.9431 56.027Z" fill="#CCB299"/>
<path d="M100.683 65.6641L90.9143 74.7002L83.5088 84.3388L103.204 93.9773H127.784L100.683 65.6641Z" fill="#661900"/>
<path d="M46.6387 65.6641L49.1597 84.3388L68.8551 131.327L58.9286 93.9773L61.4496 74.7002L46.6387 65.6641Z" fill="#661900"/>
<path d="M14.6532 74.6953L2.36328 103.009L17.0166 131.322V93.9724L26.9431 84.3339L14.6532 74.6953Z" fill="#661900"/>
</svg>
