<svg width="150" height="150" viewBox="0 0 150 150" fill="none" xmlns="http://www.w3.org/2000/svg">
<g clip-path="url(#clip0_2109_212483)">
<path d="M40.0966 148.649L32.1256 149.55L24.6377 148.649L15.942 147.598L8.69565 145.345L6.03865 140.39L5.07246 134.835L1.93237 131.381L0 130.631L2.89855 130.48L9.17874 129.129L13.0435 125.526L11.3527 120.871L8.21256 117.117L4.34783 113.363L3.62319 111.411L4.10628 111.261L8.45411 111.562L11.8357 107.357L11.5942 102.703L10.628 98.1982L10.8696 95.045L11.5942 94.5946L12.5604 94.4444L15.4589 94.8949L21.7391 92.3423L25.6039 88.4384L26.57 83.9339L22.7053 80.1802L16.1836 78.5285L21.7391 75.2252L21.256 70.2703L18.3575 66.8168L18.599 66.3664L19.0821 66.0661L26.57 64.1141L27.2947 63.3634L27.5362 62.6126L23.1884 58.2583L17.8744 55.2553L16.1836 54.2042L16.4251 53.4535L21.7391 51.0511L28.5024 49.5495L33.8164 47.1471L32.3671 41.5916L32.1256 36.7868L33.3333 32.5826L36.2319 28.5285L36.9565 24.1742L34.7826 19.8198L33.8164 18.6186L36.715 14.4144L37.1981 9.60961L41.3043 6.30631L50 10.3604L57.0048 11.7117L58.2126 11.2613L59.1787 6.75676L58.9372 1.35135L59.6618 0.45045L60.3865 0L62.8019 0.600601L69.3237 3.3033L75.3623 6.15616L82.6087 8.70871L89.372 6.90691L93.2367 10.3604L97.1015 14.4144L102.174 18.3183L108.696 21.021L113.527 24.4745L116.908 28.6787L123.43 31.982L124.879 32.7327L125.604 33.6336L122.705 38.2883L119.565 41.8919L119.082 43.994L119.807 45.045L127.536 47.1471L132.609 50.4505L135.024 51.6517L135.507 52.1021V52.5526L130.193 55.5556L127.536 56.6066L130.918 61.1111L134.3 64.7147L134.783 67.8679L127.295 70.7207L121.739 73.2733L119.565 75.3754L119.807 75.8258L120.531 76.2763L128.744 76.4264L136.473 75.3754L132.609 80.03L129.469 83.7838L128.986 86.9369L129.71 87.6877L136.473 88.4384L144.444 87.6877L148.792 88.1381L149.758 89.039L150 90.0901L149.758 91.2913L146.377 96.0961L142.754 101.351L141.787 105.706L145.652 109.309L147.343 113.664L146.135 118.318L143.72 119.67H141.546L141.063 119.97L140.58 120.27L143.478 124.775L147.585 128.228H147.826L143.237 131.832L139.855 135.285L135.99 139.64L132.126 143.844L125.121 145.495L119.565 148.048L112.319 149.7L110.386 149.85L108.454 150L106.522 149.85L99.5169 148.949L92.2705 148.649L85.2657 149.399L76.087 148.649L68.8406 147.748L61.5942 146.997L59.4203 146.847L53.3816 148.499H46.1353L40.0966 148.649Z" fill="#006633" stroke="black" stroke-width="0.380884"/>
<path d="M58.9373 126.73V131.235L57.488 136.79L55.0726 141.145L49.7586 144.898L42.9953 146.85L39.1305 147.301H36.9566H34.7827L28.0194 146.55L20.7731 145.199L13.2851 143.247L7.97112 141.745L5.55566 140.844L8.45421 139.193L13.2851 136.19L17.633 132.136L19.8069 127.481L18.3576 122.976L14.976 118.922L14.2513 116.97L21.4977 114.868L15.459 113.367L14.976 113.067V112.766L20.5315 110.364L25.604 107.511L23.9132 102.406L18.3576 99.4029L15.7006 98.2017V98.0515L15.9421 97.9014L22.4639 99.8533L29.4687 101.955L35.9904 103.457L42.5122 104.208L50.0001 103.457L54.831 100.754L49.0339 98.2017L48.0677 93.9975L52.6571 90.6942L50.4832 86.9404L45.4107 83.487L39.8552 80.6341L32.1257 77.0305L37.6813 74.7783L44.4446 73.7272L51.6909 74.0275L57.9711 76.7302L61.1112 80.3338L62.3189 82.7362L63.2851 82.8864L69.0822 80.9344L73.9131 77.6311L78.5025 74.0275L83.575 70.7242L92.0291 68.472L99.2755 66.9705L100.725 66.8203H101.691L102.174 66.9705L102.657 67.2708V67.7212L98.7924 71.0245L93.4784 74.6281L88.4059 77.7813L86.232 80.0335L86.4735 80.484L86.7151 80.6341L90.5798 80.3338L91.546 84.538L91.3045 89.6431V94.4479L92.2706 96.3999H92.9953L98.0677 93.6972L102.899 90.544L107.971 87.9915H108.696L109.903 88.4419L110.628 89.1927L108.454 94.1476L104.831 98.6521L102.657 102.856L103.382 104.808L104.589 105.559L107.005 106.16L114.01 102.856L119.324 99.7032L125.121 96.2497L130.193 93.0966L135.266 90.0936L135.99 89.7933L133.092 94.2978L130.193 98.9524L128.261 103.007L128.019 107.811L131.16 111.565L137.198 113.367L141.546 113.667L142.512 114.268L142.995 115.019L143.237 115.769L142.995 116.52L140.097 120.274L136.232 123.877L134.783 126.73L128.744 129.433L122.705 127.931L116.425 124.628L110.87 121.025L105.556 118.172L104.831 118.022H104.589L104.106 118.322L105.797 124.028L108.213 128.532L112.56 132.136L112.319 137.991L109.179 142.196L104.831 145.349L100.725 146.85L94.9276 143.397L87.6813 139.793L81.8842 137.541L75.1209 136.19L68.3576 135.739L63.0436 132.136L59.9035 128.382L58.9373 126.73Z" fill="#004C19"/>
<path d="M64.493 60.214L63.2853 64.7185L63.0438 69.5233L59.9037 73.4272L52.4158 74.6284L44.6863 73.8777L38.4061 72.8266L30.4351 71.175L25.8457 69.9738L29.952 67.7215L34.5414 63.8176L35.9906 59.0128L32.8505 54.6585L31.8844 53.0068L32.1259 52.4062L37.1984 51.0549L33.5752 50.3041V50.0038L40.0969 48.3522L45.4109 45.6495L40.8215 41.7456L33.8167 39.0429L34.2998 38.8927L41.5462 40.3942L50.2418 42.6465L56.2805 44.2981L63.7684 45.9498L66.4254 46.2501L66.667 46.0999L59.9037 43.3972L55.0728 39.6435L56.522 34.6885L58.9375 30.3342L57.0051 25.8296L52.6573 22.5263L45.1694 18.6224L52.4158 17.8717L59.179 19.8236L63.7684 23.1269L66.667 28.0819L67.3916 28.2321L72.2225 24.178L75.3626 20.1239L78.0196 16.0699L80.4351 13.6675L80.9182 13.3672L83.0921 13.8176L84.5414 14.5684L85.0244 19.0729L82.3674 24.0278L82.1259 25.8296L82.609 26.4303L83.5752 26.7306L87.6814 26.2801L88.1645 31.2351L87.923 35.7396L88.8892 37.9918L94.9278 34.8387L100.242 31.9858H100.725L101.691 32.2861L101.933 32.8867L99.5172 37.3912L96.6186 41.7456L96.8602 44.148L97.5848 44.7486L99.2757 45.199L106.28 41.5954L112.319 37.8417L117.633 34.5384L120.532 33.187V33.3372L117.15 38.2921L114.976 42.6465L115.701 48.0519L121.256 50.3041L124.638 50.6044L125.604 51.5053V51.9558V52.5564L121.739 56.7606L120.049 61.2651L119.807 63.3672L119.324 63.5173L112.802 61.1149L107.73 58.1119L101.691 54.9588L99.2757 54.208L98.551 54.3582L98.3095 54.6585L99.2757 59.4633L100.242 61.2651L103.865 64.8687L102.657 69.223L98.7926 72.9768L95.894 74.4783L95.1694 74.6284L92.9955 73.2771L87.1984 70.7245L80.1935 69.8236L73.9133 71.9257L71.2563 72.6765L67.3916 68.0218L65.2177 62.6164L64.493 60.214Z" fill="#004C19"/>
<path d="M75.8452 127.478L76.8114 123.274L74.3959 119.37L66.908 118.019L58.4539 118.169L49.7582 118.019L42.2703 116.367L39.8549 115.016L38.8887 114.115L43.478 113.814L51.2075 112.313L57.0046 110.061L63.0433 105.706L66.6665 100.751L68.5988 95.9465L70.5312 92.0426L73.4297 87.9886L76.0867 84.0846L78.7437 80.0306L81.6423 76.1267L84.2993 72.2228L85.2655 67.8684L85.9901 63.6642L77.7776 62.463L71.7389 59.46L68.8404 55.406L66.6665 54.2048L71.7389 50.7513L71.4974 45.9465L69.8065 40.9916L69.3235 37.6883L69.565 36.9375L70.5312 37.388L75.8452 39.6402L82.1254 42.6432L86.9563 45.9465L88.6471 50.6012L90.3379 54.6552L92.5119 59.0096L94.2027 63.0636L94.4442 64.1147V65.1657L93.9611 66.5171L91.5457 70.5711L88.6471 74.475L85.7486 78.3789L83.0916 82.2828L80.9177 86.1867L85.2655 89.9405L86.2317 94.8955L85.7486 99.8504L85.507 104.956L86.9563 110.061L90.0964 113.965L91.0626 114.865L88.6471 118.619L86.2317 122.373L83.8162 126.127L81.4007 130.031L78.9853 133.934L78.0191 135.286V134.685L76.5698 130.331L75.8452 127.478Z" fill="#003300"/>
</g>
<defs>
<clipPath id="clip0_2109_212483">
<rect width="150" height="150" fill="white"/>
</clipPath>
</defs>
</svg>
