<svg width="150" height="150" viewBox="0 0 150 150" fill="none" xmlns="http://www.w3.org/2000/svg">
<g clip-path="url(#clip0_2109_212621)">
<path d="M73.8716 0L75.5266 6.07287L77.332 11.2348L79.2879 15.7895L81.2437 19.7368L83.8014 23.6842L87.7131 26.1134L88.7663 26.2652L92.9789 24.5951L96.1384 22.3178L99.4483 18.8259L101.254 16.7004L90.7222 59.5142L89.9699 64.2206L91.1735 68.6235L92.0762 69.0789L95.6871 67.4089L99.1474 64.0688L101.555 60.8806L103.962 57.2368L106.52 53.8968L109.829 49.6458L112.989 45.5466L115.246 42.3583L115.848 41.4474L116.299 46.4575L116.6 51.164L117.653 55.7186L119.007 56.7814L123.972 56.1741L128.185 54.9595L131.946 53.7449L136.459 52.3785L140.522 51.3158L141.274 51.164L138.867 56.9332L137.061 62.0951L135.858 66.3462L135.406 71.2045L136.911 74.8482L140.672 76.67L146.239 77.2773H148.044H150L148.044 78.9474L143.982 82.2875L139.92 85.3239L136.008 88.3603L132.096 91.2449L128.335 94.1296L124.875 96.4069L121.264 99.1397L117.503 101.872L113.892 104.909L111.484 108.704L111.033 112.955L112.387 117.662L113.139 120.091L108.024 119.787L103.811 118.877L99.4483 117.966L94.1825 116.599L89.8195 115.536L84.7041 114.474L80.341 114.17L79.5888 114.322L77.4824 117.814V118.877V150H71.4644V118.877L71.1635 116.751L69.9599 115.233L65.4463 114.018L60.1805 114.777L55.9679 115.688L50.8526 117.055L45.7372 118.421L41.675 119.332L37.7633 120.091H37.011L37.7633 115.992L38.0642 111.741L37.011 107.794L34.1525 104.302L29.6389 100.506L25.8776 97.4696L21.3641 93.9777L16.2487 90.1822L10.9829 85.7794L5.5667 81.0729L2.70812 78.6437L0 76.0628L0.601805 76.2146L5.5667 76.5182L10.3811 75.6073L13.2397 71.3563L12.9388 66.498L11.7352 61.9433L9.77934 56.1741L8.42528 52.834L6.92076 49.1903L10.9829 50.5567L14.5938 51.9231L18.9569 53.4413L23.9218 55.2632L27.9839 56.4777L30.993 55.5668L32.6479 51.3158L32.347 46.3057L31.8957 42.0547L31.7452 40.2328L34.9047 42.9656L37.1615 46.3057L39.5687 49.9494L41.9759 53.1377L44.5336 57.085L46.7904 60.2733L49.4985 63.6134L52.9589 67.2571L56.1184 69.2308L56.8706 68.9271L57.322 68.168L57.6229 63.0061L57.4724 58.1478L56.8706 53.4413L47.5426 16.7004L51.003 20.496L54.3129 23.2287L58.8265 25.6579L63.4905 24.8988L67.1013 20.9514L69.2076 15.7895L70.5617 11.3866L72.2166 6.07287L72.9689 3.18826L73.8716 0Z" fill="#008040" stroke="black" stroke-width="0.30227"/>
</g>
<defs>
<clipPath id="clip0_2109_212621">
<rect width="150" height="150" fill="white"/>
</clipPath>
</defs>
</svg>
