<svg width="150" height="150" viewBox="0 0 150 150" fill="none" xmlns="http://www.w3.org/2000/svg">
<g clip-path="url(#clip0_2109_212272)">
<path d="M93.994 150H94.8949H96.0961H97.4474H102.402L108.258 149.796H115.015L119.52 149.592L124.174 149.388L128.679 149.184L134.985 148.98L140.39 148.367L145.646 147.551L147.447 146.735L148.348 141.224L149.55 131.837L149.85 127.755L150 124.082L149.85 120.612L149.399 114.49L147.898 107.347L145.495 102.041L141.892 97.1429L138.138 93.2653L134.535 88.3673L133.483 82.8571L132.883 76.5306L131.982 70.4082L131.081 64.2857L130.18 58.1633L129.279 52.2449L128.378 46.1225L127.477 40L126.577 33.8776L126.276 32.2449L124.474 37.1429L122.823 42.8571L121.021 48.9796L119.369 54.6939L117.718 60L114.865 65.5102L112.913 66.7347L110.961 66.9388L107.207 62.449L104.204 55.102L102.402 49.1837L100.751 43.2653L99.0991 37.3469L97.5976 32.2449L96.8468 25.102L96.6967 17.9592L95.6456 11.0204L93.3934 4.89796L92.1922 2.65306L90.6907 0V3.67347L90.5405 10.8163L90.2402 16.9388L89.7898 24.898L89.1892 31.2245L87.988 37.3469L86.1862 42.6531L82.4324 39.7959L80.4805 33.4694L78.5285 27.7551L77.1772 25.7143H76.7267L75.2252 31.4286L74.1742 38.1633L73.1231 45.102L71.9219 51.4286L70.2703 57.3469L67.1171 61.2245L66.5165 60.8163L65.4655 54.6939L65.3153 46.9388V38.9796L64.5646 30.2041L63.0631 23.8776L59.7598 17.9592L56.1562 14.2857L53.003 10.2041L51.2012 3.26531L51.0511 0L46.997 5.30612L43.8438 10L41.4414 14.2857L39.1892 20L37.8378 25.5102L37.3874 31.2245L37.2372 37.551L37.3874 44.898L37.5375 51.2245L37.2372 59.5918L37.5375 66.9388L38.1381 72.8571L39.039 80.2041L39.3393 87.551L37.5375 92.0408L32.5826 92.6531L31.8318 92.0408L29.8799 85.7143L27.6276 77.551L24.1742 70.6122L21.7718 66.7347L18.6186 62.449L14.8649 58.1633L13.8138 67.9592L12.7628 76.5306L11.5616 84.2857L10.2102 91.2245L8.85886 97.551L7.50751 103.061L5.55556 110.612L3.75375 116.939L2.25225 122.653L0.900901 128.163L0 135.306V137.143V138.98L0.15015 142.857L3.6036 146.122L8.10811 147.959L13.5135 148.98L19.0691 149.184H24.6246L29.5796 148.98L34.5345 149.184L36.4865 150L41.1411 148.776L45.9459 147.959L50.7508 146.939L55.4054 146.122L60.2102 145.102L65.1652 144.898L70.5706 145.51L75.6757 146.122L80.4805 146.939L85.2853 147.959L90.0901 149.184L93.994 150Z" fill="#FF0000"/>
<path d="M94.2945 146.936L98.9491 146.732H103.754L108.859 146.324L114.264 145.916L119.37 145.304L124.174 144.487L128.979 143.467L133.033 141.426L137.688 140.202L142.643 138.977L146.997 136.732L149.249 131.834L149.4 130.202L149.249 128.161L147.598 120.814L145.045 114.487L141.141 106.732L138.739 102.242L136.036 97.5485L132.883 92.2423L129.129 86.5281L128.078 79.7934L127.177 73.0587L126.126 66.324L125.225 59.5893L124.174 53.0587L123.273 46.324L122.973 43.6709L120.571 50.4056L119.069 55.5077L117.418 60.6097L115.165 67.7526L112.763 72.4464L111.111 73.875H109.31L108.409 73.4668L105.105 67.9566L102.703 61.0179L101.201 55.7117L99.6999 50.6097L97.5978 43.6709L96.9972 36.9362L97.1473 30.8138L96.9972 22.8546L95.6458 16.9362L92.4927 10.4056V16.9362L92.1924 22.8546L91.4416 30.6097L90.3906 36.9362L89.1894 42.2423L87.2374 47.5485L84.5347 52.0383L82.5828 53.0587L82.1323 52.4464L80.1804 47.3444L78.5287 41.6301L76.5768 37.7526H76.2765L74.775 43.0587L73.4236 49.7934L71.9221 56.9362L69.9702 62.6505L67.8681 65.5077L66.9672 65.7117L66.0663 65.0995L63.6639 60.8138L62.6128 54.4872L63.0633 47.5485L62.4627 38.3648L61.1113 32.2423L59.3095 27.3444L56.0062 21.426L53.0032 15.9158L50.7509 9.58929L50.4506 6.93622L50.3005 3.875L49.0993 5.50765L45.6458 10.4056L43.0933 15.5077L41.1413 20.8138L39.79 26.1199L38.8891 33.4668L38.5888 40.6097L39.0392 47.7526L39.9401 54.6913L40.6909 63.6709V70.8138L41.1413 76.9362L42.0422 84.4873L42.6428 90.4056L41.5918 96.324L40.841 97.5485H35.4356L30.9311 93.4668L28.2284 89.1811L25.6759 84.0791L23.2735 78.3648L20.4206 72.8546L17.4176 67.7526L16.5167 74.4872L15.4657 79.9975L13.9642 86.324L12.6128 91.6301L11.1113 97.5485L10.0603 103.467L9.75996 110.406L10.0603 115.508L6.3065 120.406L3.9041 124.895L2.1023 130.61L1.95215 132.446V133.875L4.2044 139.385L7.65785 142.446L12.3125 144.691L17.7179 146.324L23.5738 147.14L27.6278 147.344H29.5798H31.6819L37.5377 146.936L43.0933 146.12L47.2975 145.304L51.5017 144.487L55.7059 143.671L59.9101 142.855L65.3155 143.059L69.6699 143.467L74.3245 144.079L78.829 144.691L83.3335 145.304L87.5377 145.916L92.4927 146.732L94.2945 146.936Z" fill="#CC3300"/>
<path d="M115.315 142.855L118.919 138.977L122.973 137.548L127.327 136.528L131.982 135.916L137.538 134.283L139.79 132.446L140.24 131.018V129.385L141.291 123.467L141.442 121.834V120.406L140.691 114.895L138.739 109.181L135.886 103.059L133.183 98.3648L129.88 93.0587L126.276 87.3444L122.222 80.8138L119.219 76.1199L115.315 79.3852L111.411 82.6505L107.658 85.5077L106.907 86.1199L104.955 81.0179L103.754 74.8954L102.553 69.1811L100.3 64.6913L97.5977 59.5893L94.4445 54.2832L91.7418 49.1811L90.6908 47.1403L88.5887 52.8546L87.5376 59.9974L86.3364 66.1199L84.3845 72.2423L83.3334 74.0791L82.2824 68.773L81.3815 61.2219L80.3304 53.4668L78.6788 47.3444L77.0271 45.0995L75.9761 44.6913L74.4746 51.0179L74.6247 58.5689L75.5256 64.6913L76.877 71.0179L78.3785 77.3444L79.7298 83.2628L80.7809 88.5689L81.3815 94.2832L79.7298 98.5689L74.6247 97.1403L72.5226 92.4464L72.0722 85.5077L72.6728 79.7934L73.5737 72.6505L74.1743 66.9362L74.0241 65.0995L73.2734 64.0791L69.0692 66.7321L64.865 67.9566L62.1623 61.8342L61.1112 56.1199L59.7598 50.4056L58.1082 43.875L56.6067 36.324L53.6037 32.0383L50.4505 27.5485L47.5977 23.875H47.4475L47.2974 26.7321L46.3965 33.875L45.1953 39.3852L43.5436 46.324L42.4926 52.6505L41.892 59.9974L42.7929 65.5077L44.4445 71.6301L45.946 78.773L46.5466 86.9362L46.0962 92.8546L45.6457 96.1199L41.892 99.5893L38.2884 102.446L34.9851 103.059L30.7809 98.5689L27.4776 94.2832L24.4746 89.9974L21.922 85.5077L19.9701 81.6301L19.2193 88.773L17.4175 95.9158L15.916 101.222L14.2644 106.732L12.4626 112.446L10.6608 117.957L9.15925 123.263L7.2073 130.202L6.3064 135.712L6.15625 136.936L6.3064 138.161L6.45655 138.977L6.907 139.385L12.1623 136.528L14.5647 142.446L19.5196 146.528L21.3214 146.732H23.2734L29.1292 145.304L34.3845 143.671L38.2884 144.487L43.3935 144.079L48.4986 143.671L53.4535 143.263L58.5586 142.651L63.6638 142.242H70.4205L74.7749 142.446L80.4806 143.059L85.5857 143.467L90.5406 144.079L95.7959 144.487L100.451 144.079L105.105 145.304L110.06 145.916L113.964 144.079L115.315 142.855Z" fill="#FF6600"/>
<path d="M112.011 137.548L115.615 133.67L121.321 132.445H131.831L136.186 131.425L137.087 130.609L137.687 129.384L136.336 128.16L133.633 123.67L134.384 117.752L135.585 112.037L134.234 106.119L131.081 99.7924L127.777 94.4863L123.273 88.3638L120.57 84.8945L117.417 81.0169L114.414 85.5067L111.111 89.9965L107.207 94.2822L103.603 98.5679L102.852 98.772L102.102 97.9557L101.351 96.1189L100.9 90.2006L100.3 83.2618L99.3989 76.323L98.1977 71.221L97.1466 69.1802L96.546 68.9761L95.7953 69.1802L93.543 74.2822L91.4409 79.7924H86.7863L85.2848 78.5679H84.534L84.0835 78.9761L83.3328 84.4863V91.0169L83.6331 98.1598L83.3328 105.507L79.2787 107.343L74.9244 107.956L74.1736 108.16L69.9694 104.282L67.2667 98.5679L68.4679 91.6291L69.8193 85.7108L70.8703 80.4047V76.7312L70.4199 76.323L69.9694 75.9149L69.0685 76.1189L64.7142 74.0781L60.9604 70.4047L58.1076 65.7108L57.3568 61.6291L55.555 56.323L54.0535 50.2006L51.8013 44.6904L51.3508 44.2822L50.7502 44.0781L49.9995 44.2822L49.8493 51.4251V57.9557L49.9995 65.0985V72.4455L50.1496 79.5883L49.9995 86.323L49.6992 92.2414L49.2487 96.1189L46.6962 101.629L44.2938 106.731L40.2397 107.752L35.1346 107.139L30.7802 106.119L26.576 104.894L22.522 102.037L21.3208 108.364L20.4199 114.282L20.1196 120.609L19.8193 121.629L16.0655 124.69L12.1616 128.16L11.8613 129.384V131.017L15.0145 137.139L19.0685 140.609L23.7232 141.017H29.7292L35.7352 140.813L40.3899 141.221L41.8914 142.037H46.9965L52.1016 141.833L57.2067 141.221L62.1616 140.813L67.2667 140.201L72.2217 139.588L77.3268 140.609L82.4319 142.037L87.8373 142.854L90.9905 143.262H92.3418H93.543L95.6451 142.445L95.7953 142.037L100.9 141.221L106.005 140.609L110.06 138.976L112.011 137.548Z" fill="#FFCC00"/>
<path d="M129.88 125.922L125.976 127.555L120.42 128.983L116.366 130.004L110.811 131.841L107.207 134.085L106.907 134.902L102.552 137.351L98.3481 137.963L93.5433 139.188L90.0898 140.208H89.1889H88.4382L83.9337 138.983L80.0298 137.147L75.3751 135.106L71.1709 134.29L65.7655 134.698L61.5613 135.31L56.4562 135.922L51.8016 136.126H46.6965L41.4412 135.922L36.1859 135.718L31.3811 135.106L27.0268 134.698L22.5223 133.881L20.4202 133.269L19.9697 133.065L22.0718 131.636L25.8256 127.555L27.0268 122.045L26.5763 115.718L27.6274 112.657L32.4322 114.085L36.9367 114.698L41.291 115.106L45.9457 115.514L50.3001 113.677L52.5523 108.371L53.1529 102.861L53.3031 96.3304L53.0028 89.1875L52.5523 82.0446L52.252 75.1059L52.1019 68.7793L52.8526 62.2487L53.7535 60.0038L54.3541 59.1875L55.255 60.412L57.9577 66.1263L59.9097 72.6569L61.261 79.5957L62.1619 86.5344L62.9127 92.861L63.8136 99.1875L66.0658 104.085L68.9187 108.575L71.9217 113.473L74.1739 115.514L78.6784 114.698L83.0328 112.657L87.0868 110.616L88.1379 104.29V97.5548L88.288 91.2283L89.0388 88.3712L89.4892 87.5548L90.24 87.3508L92.4922 88.5753L95.0448 94.4936L96.9967 99.5957L98.7986 104.698L100.901 109.8L101.351 110.616L106.156 108.371L110.36 104.902L114.264 100.82L117.717 97.3508L120.12 95.1059L118.468 104.085L118.919 110.82L120.72 115.514L124.925 120.208L128.829 122.861L130.33 124.29V125.106L129.88 125.922Z" fill="#FFFF00"/>
<path d="M61.7117 132.452L63.063 131.023L64.4144 130.207L66.5165 129.595L67.4174 129.391L68.1681 128.574L68.4684 127.146L68.6186 124.901H68.1681L66.8168 123.472L65.9159 121.84L65.015 119.595L64.2642 116.942L63.3633 113.676L62.9129 112.044L62.6126 110.411L62.1621 108.574L61.7117 106.738L61.4114 104.901L60.9609 103.064L60.6606 101.228L60.3603 99.3908L59.9099 97.554L59.6096 95.7173L59.1591 93.8806L58.8588 92.2479L58.5585 90.4112L57.8078 87.35L57.2072 84.4928L56.6066 82.0438L56.3063 81.0234L56.006 82.0438L55.8558 83.4724L55.7057 85.7173V88.3704L55.5555 91.2275V94.6969L55.4053 98.1663L55.2552 101.84L55.105 105.513L54.8047 108.983L54.6546 112.248L54.3543 115.309L54.054 117.962L53.6035 120.207L52.5525 122.452H50.9008L49.5495 122.248L47.7477 121.84L45.7957 121.636L43.6936 121.023L41.2912 120.411L38.7387 119.799L37.5375 119.391L37.6876 122.656L37.2372 125.105L36.3363 126.942L35.2852 128.37L34.084 129.595L32.7327 131.228L32.4324 131.84L32.2822 132.452L32.4324 133.064L34.6846 133.472H36.3363H38.1381H42.4924H44.7447L46.9969 133.268H49.3993L51.6516 133.064L53.9038 132.86L55.8558 132.656H57.8078L59.4594 132.452H61.7117Z" fill="#FFFF66"/>
<path d="M93.9936 137.548H93.5432H93.2429H92.7924H90.6903L89.1888 135.915L87.0867 134.691L85.7354 134.079L84.384 133.467L82.8825 132.854L81.5312 132.446L80.0297 131.63L78.8285 131.018L77.4771 130.405L75.5252 128.569L74.324 126.324L74.1738 124.895L76.7264 125.099L78.9786 124.895L81.0807 124.283L82.7324 123.262L84.2339 121.834L85.5852 120.405L86.6363 118.569L87.6873 116.528L88.5882 114.487L89.339 112.242L90.0897 109.997L90.8405 107.956L91.4411 105.915L92.1918 103.875L93.0927 102.038L93.9936 100.609L94.2939 101.222L94.7444 103.262L95.4951 106.324L95.7955 107.956L96.2459 109.793L96.6964 111.63L97.1468 113.467L97.7474 115.303L98.1979 116.936L98.7985 118.569L99.9997 121.222L101.351 123.058L103.303 122.854L105.105 122.446L107.207 121.834L109.459 121.018L111.862 119.793L112.913 119.181L114.114 118.569L115.315 117.752L116.366 116.936L117.417 116.12L117.267 117.956L116.816 119.589L116.216 121.222L115.315 122.65L114.414 124.283L113.213 125.711L112.012 126.936L110.66 128.16L109.459 129.181L108.108 130.405L106.907 131.222L104.955 133.058L103.453 134.487L103.153 134.895L101.501 135.507L99.8495 135.915L98.1979 136.324L96.396 136.732L94.5942 137.344L93.9936 137.548Z" fill="#FFFF66"/>
</g>
<defs>
<clipPath id="clip0_2109_212272">
<rect width="150" height="150" fill="white"/>
</clipPath>
</defs>
</svg>
