<svg width="150" height="150" viewBox="0 0 150 150" fill="none" xmlns="http://www.w3.org/2000/svg">
<g clip-path="url(#clip0_2109_212575)">
<path d="M0 54.5455L4.2042 51.1364L10.0601 49.7326L14.5646 49.9332L19.5195 50.7353L24.7748 52.139L30.4805 54.1444L36.036 56.7513L41.7417 59.5588L47.4474 62.5668L53.003 65.9759L58.1081 69.1845L63.0631 72.5936L67.4174 75.8021L71.3213 79.0107L74.9249 82.4198L77.9279 84.2246L78.3784 83.8235L75.5255 76.4037L72.8228 69.5856L70.2703 63.369L67.8679 57.5535L65.6156 52.139L63.3634 47.1257L61.2613 42.5134L57.2072 34.2914L53.6036 27.6738L50.3003 22.2594L47.2973 17.6471L43.0931 12.8342L39.3393 9.62567L34.8348 7.01872L30.4805 5.2139L27.3273 3.81016L32.2823 2.60695H36.9369L41.2913 3.40909L45.4955 5.2139L49.2492 7.82086L52.7027 11.0294L56.006 14.8396L59.1592 19.2513L62.012 24.2647L64.7147 29.4786L67.2673 34.893L69.5195 40.508L71.7718 46.3235L73.8739 51.9385L75.8258 57.5535L77.7778 62.9679L77.4775 55.7487L76.5766 48.5294L75.3754 41.3102L73.5736 34.0909L71.6216 27.2727L69.5195 20.8556L67.1171 14.639L64.7147 9.42513L68.7688 10.4278L72.3724 15.8422L74.9249 22.0588L76.5766 27.0722L78.0781 32.4866L79.4294 38.1016L80.7808 44.1176L81.8318 50.1337L83.033 56.1497L83.9339 62.1658L84.8348 67.5802L85.7357 75.2005L86.3363 79.4118L87.8378 72.3931L89.039 64.9733L90.2402 57.5535L90.991 49.9332L91.5916 42.3128L91.8919 34.6925L91.7417 27.0722L91.2913 19.4519L90.5405 12.0321L89.1892 4.6123L88.5886 2.40642L87.988 0L89.7898 0.601604L93.8438 5.81551L95.4955 11.631L96.5465 19.0508L96.8468 27.8743L96.5465 37.7005L96.0961 48.5294L95.6456 53.9439L95.1952 59.7594L97.2973 53.5428L99.8499 47.9278L102.703 42.7139L105.856 37.9011L109.159 33.6898L112.462 29.8797L116.066 26.4706L119.67 23.6631L123.273 21.2567L128.529 18.4492L133.634 16.8449L138.589 16.2433L143.994 17.0455L145.195 17.6471L140.09 21.2567L135.736 23.4626L130.48 26.6711L124.474 31.484L121.171 34.6925L117.718 38.7032L114.264 43.516L110.511 49.131L106.607 55.9492L102.553 63.7701L98.3484 72.7941L102.703 68.5829L107.508 64.5722L112.613 60.762L117.868 57.1524L123.123 54.3449L128.378 51.9385L133.634 50.5348L138.589 49.9332L143.243 50.5348L147.447 52.3396L148.649 53.1417L150 54.1444L148.949 54.3449L144.294 55.1471L140.09 56.1497L135.435 57.5535L130.18 59.3583L124.775 61.9652L120.871 64.1711L116.967 66.5775L113.063 69.385L109.009 72.7941L104.805 76.6043L100.901 81.016L96.8468 85.8289L94.8949 88.4358L99.0991 87.6337L105.255 86.631L110.811 86.0294H115.916L120.871 86.631L125.225 87.8342L129.58 89.8396L133.483 92.8476L137.387 96.4572L140.991 101.27L144.595 107.086L140.24 104.88L135.736 101.872L131.081 98.262L127.327 95.6551L123.123 93.8503L118.318 92.6471L112.763 92.4465L108.709 93.2487L104.054 94.6524L99.0991 96.8583L93.6937 99.8663L100.15 101.671L106.306 104.078L111.562 107.687L115.616 112.5L118.018 118.917L118.468 127.139L117.718 131.952L116.366 137.366L114.264 143.382L111.411 150L112.312 141.377L112.763 133.957L112.613 127.54L111.562 122.326L108.108 116.11L104.204 112.901L98.7988 110.695L95.4955 109.693L92.6426 115.107L92.3423 123.529L92.6426 129.746L92.9429 135.762L91.5916 142.981L90.5405 144.586L84.6847 145.789L79.8799 141.578L77.7778 136.564L76.4264 130.548L75.6757 124.131L75.3754 118.115L75.976 111.297L76.2763 109.693L76.7267 109.091L77.027 108.289L76.8769 107.487L76.5766 107.086L72.0721 106.885L67.8679 108.69L63.964 111.898L60.5105 116.11L57.2072 120.922L54.2042 125.735L51.3514 130.147L48.6486 133.757L46.997 125.134L48.1982 117.714L51.6517 111.297L56.6066 106.283L62.4625 102.473L68.4685 100.267L73.8739 99.2647L78.3784 100.267L78.0781 96.4572L77.9279 96.0562L72.3724 94.2513L67.7177 93.0481L63.0631 92.4465L58.5586 92.246L54.3544 92.6471L48.3483 93.6497L42.7928 95.4545L37.6877 97.6604L33.3333 100.468L29.4294 103.275L25.2252 107.086L22.973 109.693L22.3724 106.684L24.024 100.668L28.3784 95.0535L34.8348 90.2406L38.4384 88.0348L42.1922 86.2299L46.0961 84.6257L53.6036 82.6203L60.2102 81.8182L64.7147 82.6203L60.961 80.2139L57.2072 77.6069L50.4505 73.3957L44.1441 69.7861L38.5886 66.5775L33.6336 63.9706L28.979 61.7647L24.7748 59.9599L19.3694 57.9545L14.5646 56.5508L10.3604 55.7487L5.55556 55.1471L1.05105 54.746L0 54.5455Z" fill="#004020"/>
<path d="M111.411 150L114.264 143.382L116.366 137.366L117.718 131.952L118.468 127.139L118.018 118.917L115.616 112.5L111.562 107.687L106.306 104.078L100.15 101.671L93.6937 99.8663L99.0991 96.8583L104.054 94.6524L108.709 93.2487L112.763 92.4465L118.318 92.6471L123.123 93.8503L127.327 95.6551L131.081 98.262L135.736 101.872L140.24 104.88L144.595 107.086L140.991 101.27L137.387 96.4572L133.483 92.8476L129.58 89.8396L125.225 87.8342L120.871 86.631L115.916 86.0294H110.811L105.255 86.631L99.0991 87.6337L94.8949 88.4358L96.8468 85.8289L100.901 81.016L104.805 76.6043L109.009 72.7941L113.063 69.385L116.967 66.5775L120.871 64.1711L124.775 61.9652L130.18 59.3583L135.435 57.5535L140.09 56.1497L144.294 55.1471L148.949 54.3449L150 54.1444L148.649 53.1417L147.447 52.3396L143.243 50.5348L138.589 49.9332L133.634 50.5348L128.378 51.9385L123.123 54.3449L117.868 57.1524L112.613 60.762L107.508 64.5722L102.703 68.5829L98.3483 72.7941L102.553 63.7701L106.607 55.9492L110.511 49.131L114.264 43.516L117.718 38.7032L121.171 34.6925L124.474 31.484L130.48 26.6711L135.736 23.4626L140.09 21.2567L145.195 17.6471L143.994 17.0455L138.589 16.2433L133.634 16.8449L128.529 18.4492L123.273 21.2567L119.67 23.6631L116.066 26.4706L112.462 29.8797L109.159 33.6898L105.856 37.9011L102.703 42.7139L99.8498 47.9278L97.2973 53.5428L95.1952 59.7594L95.6456 53.9439L96.0961 48.5294L96.5465 37.7005L96.8468 27.8743L96.5465 19.0508L95.4955 11.631L93.8438 5.81551L89.7898 0.601604L87.988 0L88.5886 2.40642L89.1892 4.6123L90.5405 12.0321L91.2913 19.4519L91.7417 27.0722L91.8919 34.6925L91.5916 42.3128L90.991 49.9332L90.2402 57.5535L89.039 64.9733L87.8378 72.393L86.3363 79.4118L85.7357 75.2005L84.8348 67.5802L83.9339 62.1658L83.033 56.1497L81.8318 50.1337L80.7808 44.1176L79.4294 38.1016L78.0781 32.4866L76.5766 27.0722L74.9249 22.0588L72.3724 15.8422L68.7688 10.4278L64.7147 9.42513L67.1171 14.639L69.5195 20.8556L71.6216 27.2727L73.5736 34.0909L75.3754 41.3102L76.5766 48.5294L77.4775 55.7487L77.7778 62.9679L75.8258 57.5535L73.8739 51.9385L71.7718 46.3235L69.5195 40.508L67.2673 34.893L64.7147 29.4786L62.012 24.2647L59.1592 19.2513L56.006 14.8396L52.7027 11.0294L49.2492 7.82086L45.4955 5.2139L41.2913 3.40909L36.9369 2.60695H32.2823L27.3273 3.81016L30.4805 5.2139L34.8348 7.01872L39.3393 9.62567L43.0931 12.8342L47.2973 17.6471L50.3003 22.2594L53.6036 27.6738L57.2072 34.2914L61.2613 42.5134L63.3634 47.1257L65.6156 52.139L67.8679 57.5535L70.2703 63.369L72.8228 69.5856L75.5255 76.4037L78.3784 83.8235L77.9279 84.2246L74.9249 82.4198L71.3213 79.0107L67.4174 75.8021L63.0631 72.5936L58.1081 69.1845L53.003 65.9759L47.4474 62.5668L41.7417 59.5588L36.036 56.7513L30.4805 54.1444L24.7748 52.139L19.5195 50.7353L14.5646 49.9332L10.0601 49.7326L4.2042 51.1364L0 54.5455L1.05105 54.746L5.55556 55.1471L10.3604 55.7487L14.5646 56.5508L19.3694 57.9545L24.7748 59.9599L28.979 61.7647L33.6336 63.9706L38.5886 66.5775L44.1441 69.7861L50.4505 73.3957L57.2072 77.607L60.961 80.2139L64.7147 82.6203L60.2102 81.8182L53.6036 82.6203L46.0961 84.6257L42.1922 86.2299L38.4384 88.0348L34.8348 90.2406L28.3784 95.0535L24.024 100.668L22.3724 106.684L22.973 109.693L25.2252 107.086L29.4294 103.275L33.3333 100.468L37.6877 97.6604L42.7928 95.4545L48.3483 93.6497L54.3544 92.6471L58.5586 92.246L63.0631 92.4465L67.7177 93.0481L72.3724 94.2513L77.9279 96.0562L78.0781 96.4572L78.3784 100.267L73.8739 99.2647L68.4685 100.267L62.4625 102.473L56.6066 106.283L51.6517 111.297L48.1982 117.714L46.997 125.134L48.6486 133.757L51.3514 130.147L54.2042 125.735L57.2072 120.922L60.5105 116.11L63.964 111.898L67.8679 108.69L72.0721 106.885L76.5766 107.086L76.8769 107.487L77.027 108.289L76.7267 109.091L76.2763 109.693L75.976 111.297L75.3754 118.115L75.6757 124.131L76.4264 130.548L77.7778 136.564L79.8799 141.578L84.6847 145.789L90.5405 144.586L91.5916 142.981L92.9429 135.762L92.6426 129.746L92.3423 123.529L92.6426 115.107L95.4955 109.693L98.7988 110.695L104.204 112.901L108.108 116.11L111.562 122.326L112.613 127.54L112.763 133.957L112.312 141.377L111.411 150ZM111.411 150H111.111" stroke="black" stroke-width="0.347047"/>
</g>
<defs>
<clipPath id="clip0_2109_212575">
<rect width="150" height="150" fill="white"/>
</clipPath>
</defs>
</svg>
