<svg width="150" height="150" viewBox="0 0 150 150" fill="none" xmlns="http://www.w3.org/2000/svg">
<g clip-path="url(#clip0_2109_212490)">
<path d="M133.123 48.7988L133.754 49.6997L133.596 50.7508L130.126 54.5045L126.972 57.2072L125.394 58.2583L128.549 59.009L128.707 59.1592L125.868 62.6126L122.082 66.3664L123.659 68.6186L122.871 69.0691L118.612 69.97L117.035 70.2703L113.249 75.5255L117.666 75.2252L118.139 75.6757L117.823 77.4775L123.344 77.9279H129.653L134.227 77.7778L139.117 77.9279L143.533 79.2793V79.7297L142.114 80.9309L141.956 82.2823L143.06 82.8829L143.533 83.6336V84.2342L141.64 85.7357L140.694 88.2883L141.64 89.4895L141.798 90.5405L141.325 91.4414L137.224 92.7928H137.066L135.647 96.997L131.861 98.6487L127.603 98.3484L127.445 98.6487L128.233 99.6997V99.8499L127.918 100.15L123.186 100.3L118.927 99.2493L114.669 96.6967L111.514 94.4444L110.41 94.7447L106.625 92.042L103.628 89.9399L102.524 91.5916L102.05 91.2913L101.104 89.1892H100.631L100 89.6396L98.1073 93.6937L97.4763 98.6487L96.3722 99.3994L94.795 99.5496V101.051L93.8486 103.153L88.8013 104.204L86.9085 103.904L84.5426 108.408L83.123 109.309H82.6498L82.4921 110.511L79.1798 113.964L77.4448 114.715V115.315L74.2902 118.619L70.6625 120.571L68.2965 121.622L66.4038 124.925L65.6151 125.526H63.5647L62.4606 124.775L60.4101 128.529L56.3091 131.381L53.6278 131.081L50.6309 134.084L47.1609 136.486L44.795 136.637L44.4795 136.186L42.9022 138.438L38.8013 140.24L37.5394 140.39L36.9085 140.24L36.5931 139.94L36.9085 138.288L36.5931 138.138H35.9621L32.3344 140.39L30.4416 144.144L28.2334 145.946L26.9716 146.096L26.6562 145.495L28.0757 141.742L28.5489 140.24H27.1293L24.7634 143.393L21.4511 146.547L18.2965 149.099L17.3502 149.85L16.877 150L16.2461 149.85L15.7729 149.7L15.6151 149.249L18.7697 145.345L22.082 142.042L24.9211 138.288L25.2366 137.538L25.0789 137.087L24.7634 136.787L23.5016 136.937L20.8202 140.24L17.5079 143.243L13.5647 146.396L8.99054 149.249L6.62461 149.55L6.30915 149.399L6.15142 149.099L9.30599 146.547L13.0915 143.544L17.1924 140.39L20.9779 136.937L22.8707 135.285V134.384L22.2397 134.084L18.9274 136.336L15.6151 139.039L11.9874 141.441L7.72871 143.844L3.15457 145.646L0.946372 145.946L0.473186 145.796V145.195L4.73186 142.342L8.83281 140.24L13.4069 137.988L17.3502 135.135L20.347 131.982L21.1356 130.781L20.8202 130.18H19.8738L15.6151 133.784L12.1451 136.186L8.35962 138.438L4.25868 140.24L0.630915 140.541L0 140.24V139.94L0.473186 139.489L5.83596 137.087L9.62145 135.135L13.5647 132.883L17.5079 130.33L21.7666 127.327L23.817 124.775L19.5584 127.177L16.0883 129.58L13.0915 130.18V130.03L13.2492 129.73L16.7192 127.327L20.5047 124.925L23.9748 122.523L27.7603 119.52L31.388 117.267L34.858 115.165L38.6435 112.312L41.9558 108.108L45.4259 103.754L48.7382 100.601L52.6814 97.1471L56.4669 93.2432L60.0946 88.7387L63.2492 83.7838L64.9842 80.6306L64.6688 80.1802L60.4101 78.3784L56.4669 75.6757L52.2082 74.1742L47.6341 73.8739L43.0599 73.2733L42.7445 72.8228V72.6727L46.8454 70.7207L50.7886 69.3694L55.0473 68.3183L56.4669 68.018L60.5678 65.6156L64.8265 65.1652L69.7161 65.6156L74.4479 66.3664L76.0252 66.5165L80.4416 63.6637L83.7539 59.4595L86.1199 56.006L90.0631 51.8018L94.795 46.5465L98.4227 41.8919L101.104 37.6877L102.524 34.0841L105.047 29.1291L108.044 25.0751L111.356 21.021L114.984 17.2673L119.243 14.2643L119.716 13.5135H120.032L120.662 14.4144L118.297 18.3183L116.404 21.7718L117.035 21.6216L120.032 18.7688L123.028 14.4144L125.079 10.961L127.287 6.30631L128.707 2.1021L129.022 1.65165H129.495L129.968 1.95195L131.073 5.85586L129.18 9.45946L127.287 12.9129L124.448 16.8168L123.344 18.018V18.4685L123.502 18.6186L123.975 18.7688L124.606 18.6186L128.233 15.6156L130.915 12.3123L132.334 8.55856L133.912 4.95496L136.12 0.750751L136.909 0.15015L137.539 0L138.013 0.15015L138.486 3.3033L136.751 6.90691L134.7 10.2102L131.073 14.7147L129.022 16.6667V17.2673L129.338 17.5676H130.442L131.23 17.2673L134.543 13.8138L137.855 10.3604L140.694 6.75676L143.533 3.3033L144.637 1.5015L145.426 1.05105L145.899 1.65165L146.057 3.6036L143.691 7.50751L140.852 10.961L137.539 14.1141L133.754 16.967V17.4174L134.069 17.7177L138.486 15.9159L141.64 13.3634L144.953 10.0601L148.423 7.65766L149.054 7.50751L149.527 7.65766L150 8.10811L149.842 8.40841L146.845 12.012L143.375 15.3153L139.748 17.8679L139.117 18.4685V18.7688L139.59 18.9189L143.533 16.967L147.003 15.1652L148.265 15.6156L148.58 16.6667L148.423 17.5676L147.476 18.4685L143.375 20.7207L142.587 22.973L143.06 23.8739L147.161 25.0751L147.634 25.3754V26.1261L147.161 26.7267L144.322 27.3273L142.114 29.7297L144.479 30.03L145.11 30.4805L145.268 31.0811L141.64 34.8348L138.644 38.4384L139.117 38.5886L141.956 37.5375L142.114 37.6877L139.432 41.5916L136.12 44.4444L135.331 44.8949L135.962 45.1952L136.12 45.4955L133.123 48.7988Z" fill="#A5A5A5" stroke="black" stroke-width="0.307786"/>
</g>
<defs>
<clipPath id="clip0_2109_212490">
<rect width="150" height="150" fill="white"/>
</clipPath>
</defs>
</svg>
