<svg width="150" height="150" viewBox="0 0 150 150" fill="none" xmlns="http://www.w3.org/2000/svg">
<g clip-path="url(#clip0_2109_212516)">
<path fill-rule="evenodd" clip-rule="evenodd" d="M56.8156 7.80781L55.9777 7.65766L55.1397 7.50751H54.1341L53.2961 7.35736L52.4581 7.20721L51.7877 6.90691L51.2849 6.45646L51.1173 5.85586L52.2905 5.55556L53.6313 5.25526L54.9721 4.95496L56.648 4.65465L57.9888 4.2042L59.4972 3.75375L60.838 3.15315L62.0112 2.55255L63.1844 1.65165L64.3575 1.05105L65.6983 0.45045L67.2067 0.15015L68.7151 0H70.3911L72.067 0.15015L73.743 0.600601H74.7486L75.5866 0.45045H76.7598H77.7654L78.9386 0.3003H80.1117L81.1173 0.15015H82.2905H83.4637H84.6369H85.8101H86.8156L87.8212 0.3003L88.6592 0.45045L89.4972 0.600601L90.1676 0.900901L89.8324 1.65165L89.162 2.1021L88.4916 2.55255L87.6536 2.85285L86.9832 3.3033L86.3129 3.75375L85.8101 4.35435L85.6425 5.25526H86.648L87.8212 5.40541L88.9944 5.70571L90.3352 6.00601L91.3408 6.45646L92.3464 7.05706L92.8492 7.80781L93.1844 8.70871L94.3575 9.00901L95.5307 9.15916L96.8715 9.45946L98.2123 9.60961L99.5531 9.75976H101.061L102.57 9.90991H104.078H105.587H107.095H108.603H110.112H111.62H112.961H114.302H115.475L114.972 10.6607L114.134 11.2613L112.961 11.7117L111.62 12.1622L110.112 12.4625L108.603 12.7628H107.263L105.922 12.9129L105.754 13.0631L105.419 13.3634L105.251 13.5135L105.084 13.8138L104.916 14.1141L104.749 14.4144L104.581 14.7147V15.1652L105.251 15.015H105.754L106.425 14.8649L106.927 14.7147H107.598H108.101L108.771 14.8649L109.609 15.1652L110.447 15.9159L111.117 16.5165L111.955 16.967L112.626 17.4174L113.296 17.8679L114.134 18.1682L114.804 18.4685L115.642 18.7688L116.648 19.0691L117.654 19.3694L118.659 19.8198L120 20.2703L121.341 20.7207L122.849 21.3213L124.693 21.9219L126.704 22.8228L127.207 22.973L127.71 23.2733L128.212 23.5736L128.715 23.8739L129.218 24.3243L129.553 24.7748L129.888 25.2252V25.5255H128.883H127.542H126.034H124.525L123.017 25.8258L121.844 26.2763L121.173 27.027L120.838 28.2282H121.341H121.844L122.682 28.3784L123.52 28.5285L124.525 28.6787L125.363 28.979L126.034 29.1291L126.704 29.2793L127.207 29.5796L127.877 30.03L128.883 30.3303L129.888 30.7808L131.061 31.2312L132.235 31.8318L133.408 32.2823L134.749 32.7327L135.922 33.3333L137.095 33.7838L138.268 34.3844L139.106 34.8348L139.944 35.4354L140.615 35.8859L140.95 36.3363L141.117 36.6366L139.777 37.3874L138.101 37.988L136.592 38.4384L134.916 38.7387L133.24 39.039L131.564 39.3393L129.888 39.4895L128.212 39.6396L126.369 39.9399L124.86 40.0901L123.184 40.2402L121.676 40.5405L120.168 40.991L118.659 41.2913L117.486 41.8919L116.145 42.4925L116.313 42.9429L116.648 43.2432L117.151 43.6937L117.821 43.994L118.492 44.2943L119.33 44.7447L120.335 45.045L121.341 45.4955L122.346 45.7958L123.52 46.2462L124.693 46.5465L125.866 46.997L127.039 47.4474L128.212 47.8979L129.385 48.4985L130.559 48.9489L132.235 49.8498L133.743 50.6006L134.916 51.3514L135.922 51.952L136.425 52.5526L136.592 53.1532L136.425 53.6036L135.754 54.0541L134.581 54.3544L133.24 54.6547L131.899 54.8048L130.559 54.955L129.05 55.2553L127.542 55.4054L126.034 55.5556L124.525 55.7057H123.017L121.508 55.8559L120 56.006H118.492H117.151L115.81 56.1562H114.469H113.296L110.447 58.1081L110.95 58.7087L111.788 59.3093L112.626 59.9099L113.799 60.3604L114.972 60.961L116.313 61.4114L117.821 61.8619L119.162 62.3123L120.67 62.7628L122.179 63.2132L123.687 63.5135L125.028 63.8138L126.369 64.1141L127.71 64.2643L128.715 64.4144L129.553 64.5646L131.061 64.7147L132.402 64.8649L133.575 65.015H134.581L135.587 65.1652H136.592H137.43H138.268L139.106 65.3153H140.112H140.95L141.955 65.1652H143.128H144.302H145.642H146.983L148.156 65.6156L148.994 66.2162L149.665 66.6667L150 67.2673L149.832 67.8679L149.162 68.3183L147.989 68.9189L145.978 69.3694L143.631 69.5195L141.453 69.6697L139.274 69.97L137.095 70.2703L135.084 70.7207L133.24 71.1712L131.229 71.4715L129.05 71.9219L127.039 72.0721L124.693 72.3724H122.346H119.832L116.983 72.0721L114.134 71.6216L110.782 71.021L107.263 70.1201L105.084 71.4715L103.073 72.8228L101.061 74.3243L99.2179 75.976L97.5419 77.6276L96.0335 79.4294L94.5251 81.2312L93.0168 83.033L91.5084 84.8348L90.1676 86.7868L88.6592 88.7387L87.3184 90.5405L85.9777 92.4925L84.4693 94.2943L82.9609 96.0961L81.2849 97.8979L81.1173 98.4985L80.9497 100.15L80.4469 102.402L79.9441 105.556L79.2737 109.159L78.6034 113.063L77.933 117.267L77.2626 121.772L76.4246 126.276L75.7542 130.48L75.2514 134.535L74.581 138.138L74.2458 141.291L73.9106 143.694L73.743 145.345V146.096L74.0782 146.547L74.2458 146.847L74.4134 147.297L74.7486 147.598L75.2514 148.048L75.9218 148.649L76.9274 149.249L78.1006 150H53.4637L54.4693 149.249L55.3073 148.799L56.3129 148.348L57.1508 147.898L57.9888 147.598L58.4916 147.147L58.9944 146.547L59.3296 145.796L59.8324 143.844L60.5028 141.892L61.1732 139.79L61.676 137.688L62.514 135.435L63.1844 133.333L63.8548 131.081L64.5251 128.829L65.1955 126.577L65.6983 124.324L66.3687 122.222L66.8715 120.12L67.2067 118.018L67.5419 116.066L67.8771 114.114V112.312L65.1955 110.961L63.0168 109.76L61.1732 108.709L59.4972 107.808L58.1564 106.907L57.1508 106.156L56.1453 105.405L55.3073 104.655L54.4693 103.904L53.7989 103.003L52.9609 101.952L52.1229 100.901L51.1173 99.5496L49.9441 98.048L48.6034 96.3964L46.9274 94.2943L46.0894 94.4444H45.419L44.9162 94.7447L44.4134 94.8949L43.9106 95.1952L43.5754 95.6456L43.4078 96.0961L43.2402 96.6967L42.2346 96.8468L41.0615 97.1471L39.8883 97.4474L38.5475 97.5976L37.2067 97.7477L35.8659 97.8979L34.6927 98.048H33.6872L32.514 98.3484L31.1732 98.6487L29.6648 98.7988L28.1564 99.0991L26.4804 99.3994L24.6369 99.6997L22.9609 100L21.1173 100.3L19.4413 100.45L17.5978 100.601L15.9218 100.751H14.4134L12.7374 100.601L11.3966 100.45L10.2235 100.3L9.05028 100L9.72067 99.2493L10.5587 98.949L11.3966 98.6487L12.2346 98.4985L13.2402 98.1982L14.0782 98.048L14.9162 97.7477L15.7542 97.2973V95.1952L16.5922 94.2943L17.5978 93.5435L18.771 92.9429L19.9441 92.3423L21.1173 91.8919L22.2905 91.4414L23.6313 91.1411L24.8045 90.8408L24.9721 90.3904L25.1397 90.0901L25.4749 89.6396V89.3393H26.3129H27.3184L28.1564 89.1892H28.9944L29.6648 89.039L30.1676 88.8889L30.5028 88.5886L30.838 88.1381H30L28.9944 87.988L27.9888 87.6877L26.9832 87.2372L26.1453 86.7868L25.3073 86.3363L24.4693 85.7357L23.7989 85.2853L23.2961 82.2823L22.1229 80.9309L20.2793 80.6306L18.1006 80.7808L16.0894 81.2312L14.2458 81.0811L13.0726 80.03L12.7374 77.6276L13.4078 77.027L14.4134 76.5766L15.2514 76.1261L16.257 75.8258L17.2626 75.5255L18.4358 75.3754L19.4413 75.0751L20.6145 74.7748L21.6201 74.6246L22.7933 74.3243L23.7989 74.024L24.8045 73.5736L25.8101 73.1231L26.8156 72.3724L27.6536 71.6216L28.4916 70.7207L27.9888 70.5706L27.486 70.4204L26.8156 70.2703H26.3129L25.8101 70.1201H25.3073H24.9721H24.4693L23.4637 69.8198L22.2905 69.0691L21.2849 68.018L20.2793 66.8168L19.2737 65.4655L18.1006 64.2643L17.095 63.3634L15.9218 62.6126L15.2514 62.3123L14.4134 62.012L13.5754 61.7117L12.5698 61.4114L11.5642 61.2613L10.3911 60.961L9.21788 60.8108L8.04469 60.5105L6.87151 60.3604L5.69832 60.2102L4.52514 59.9099L3.51955 59.7598L2.51397 59.4595L1.50838 59.3093L0.670391 59.009L0 58.7087L0.167598 58.5586L0.837989 58.4084L1.67598 58.1081L2.68156 57.958L3.68715 57.8078L4.69274 57.6577L5.19553 57.5075L5.53073 57.3574L8.04469 57.5075H10.5587H12.905L15.2514 57.3574L17.2626 57.2072L19.2737 57.0571L21.1173 56.7568L22.9609 56.4565L24.8045 56.1562L26.3129 55.7057L27.9888 55.4054L29.6648 54.955L31.1732 54.5045L32.514 54.2042L34.0223 53.7538L35.3631 53.3033L36.7039 53.003L38.2123 52.7027L39.5531 52.4024L40.8939 52.1021L42.4022 51.952L43.9106 51.6517H45.419H46.9274H48.6034L50.2793 51.8018L51.9553 52.1021L53.7989 52.4024L55.8101 52.8529L57.8212 53.4535L60 54.0541L62.3464 54.955L61.8436 54.2042L61.676 53.1532L61.5084 51.8018V50.4505V49.0991L61.8436 47.8979L62.3464 46.997L63.0168 46.3964L62.3464 45.7958L61.3408 45.4955L60.5028 45.1952L59.4972 45.045H58.324H57.1508L56.1453 45.1952H54.9721V44.5946L55.1397 43.8438V43.2432V42.6426L55.3073 42.042V41.4414V40.8408V40.2402L53.4637 38.7387L51.7877 37.5375L49.9441 36.7868L48.2682 36.1862L46.5922 35.7357L44.7486 35.5856L43.0726 35.7357L41.229 35.8859L39.3855 36.1862L37.3743 36.6366L35.3631 37.2372L33.1844 37.6877L31.0056 38.2883L28.6592 38.8889L26.1453 39.4895L23.4637 39.9399L23.7989 39.039L24.4693 38.1381L25.1397 37.2372L26.1453 36.3363L27.1508 35.5856L28.324 34.6847L29.4972 33.9339L30.6704 33.3333L31.8436 32.5826L32.8492 31.982L33.6872 31.5315L34.3575 31.0811L34.8603 30.6306L35.0279 30.3303L34.8603 30.03L34.3575 29.8799L34.6927 29.1291L35.3631 28.3784L36.2011 27.7778L37.2067 27.027L38.0447 26.4264L38.7151 25.8258L38.8827 25.2252L38.7151 24.6246H37.8771L36.7039 24.4745H35.5307L34.0223 24.3243L32.514 24.1742H31.0056L29.4972 23.8739L28.1564 23.7237L26.648 23.5736L25.4749 23.2733L24.6369 22.973L23.9665 22.6727L23.7989 22.3724V22.0721L24.4693 21.7718L25.4749 21.3213L26.648 21.021L27.8212 20.5706L28.9944 20.2703L30.1676 19.97L31.3408 19.8198L32.514 19.5195L33.5196 19.3694L34.6927 19.0691L35.6983 18.7688L36.7039 18.4685L37.7095 18.1682L38.5475 17.7177L39.3855 17.2673L40.0559 16.6667L40.7263 15.9159L41.229 15.1652L41.5642 15.015L41.8994 14.7147L42.4022 14.2643L43.0726 13.8138L43.743 13.3634L44.581 12.9129L45.5866 12.3123L46.5922 11.7117L47.5978 11.1111L48.771 10.6607L49.9441 10.0601L51.2849 9.45946L52.6257 9.00901L53.9665 8.55856L55.3073 8.10811L56.8156 7.80781ZM48.771 92.7928L50.2793 94.2943L51.7877 95.7958L53.2961 97.5976L54.8045 99.2493L56.648 100.901L58.324 102.402L60 103.453L62.0112 104.354L62.514 104.505L63.352 104.805L64.3575 105.105L65.5307 105.556L66.5363 105.856L67.7095 106.156L68.5475 106.306L69.2179 106.456L69.3855 105.556L69.7207 104.655L69.8883 103.604L70.0559 102.553L70.2235 101.351L70.3911 100.15L70.5587 98.7988V97.5976L70.7263 96.3964V95.3453V94.2943V93.2432V92.3423V91.5916L70.5587 90.991V90.5405L69.7207 87.988L68.7151 86.036L67.7095 84.5345L66.5363 83.3333L65.1955 82.4324L64.0223 81.5315L62.6816 80.7808L61.3408 79.8799L60.5028 82.1321L59.8324 83.7838L59.162 85.1351L58.6592 86.1862L58.1564 86.9369L57.6536 87.3874L57.3184 87.8378L56.8156 87.988L56.3129 88.2883L55.6425 88.4384L54.9721 88.7387L54.1341 89.039L53.1285 89.6396L51.7877 90.3904L50.4469 91.4414L48.771 92.7928ZM71.7318 82.8829L73.0726 70.7207L72.067 70.4204L70.8939 70.5706L69.5531 71.1712L68.2123 72.0721L66.8715 73.1231L65.6983 74.3243L64.5251 75.3754L63.6872 76.1261L63.352 77.1772L63.8548 78.3784L64.8603 79.5796L66.5363 80.7808L68.2123 81.8318L69.7207 82.5826L71.0615 83.033L71.7318 82.8829ZM82.6257 65.4655V66.6667L82.4581 68.1682V69.6697V71.1712L82.2905 72.8228V74.4745V75.976V77.3273L82.7933 76.2763L83.7989 75.2252L85.1397 74.024L86.3129 72.973L87.8212 72.0721L88.9944 71.4715L90.1676 70.8709L90.838 70.7207L92.0112 70.2703L91.8436 69.5195L91.0056 68.7688L89.3296 67.7177L87.486 66.967L85.6425 66.2162L83.9665 65.7658L82.6257 65.4655ZM81.2849 92.7928L82.4581 91.8919L83.6313 90.6907L84.8045 89.4895L85.9777 88.2883L87.1508 86.7868L88.324 85.4354L89.4972 83.9339L90.838 82.4324L92.0112 81.0811L93.1844 79.5796L94.3575 78.0781L95.5307 76.7267L96.8715 75.3754L98.0447 74.024L99.2179 72.8228L100.391 71.6216H99.0503L98.2123 71.4715L97.5419 71.1712L96.8715 71.021L96.2011 70.8709L95.5307 70.7207L94.5251 70.8709L93.1844 71.021L92.0112 71.7718L90.5028 72.8228L88.8268 74.4745L87.1508 76.2763L85.6425 78.0781L84.3017 79.8799L83.1285 81.2312L82.6257 82.2823L82.1229 83.6336L81.7877 84.8348L81.6201 86.1862L81.4525 87.5375V88.8889L81.2849 90.2402V91.5916V92.7928ZM82.6257 45.4955V46.6967V47.7477V48.9489V50V51.2012V52.2523V53.4535V54.6547H84.9721L86.1453 53.6036L87.1508 53.003L88.1564 52.5526L89.162 52.2523H90L91.0056 52.5526L92.0112 52.8529L93.1844 53.4535L93.352 54.5045L94.0223 55.2553L94.8603 55.8559L95.8659 56.1562L97.0391 56.4565L98.0447 56.6066L99.2179 56.7568H100.056L99.7207 56.6066L99.3855 56.4565L99.0503 56.1562L98.7151 55.8559L98.3799 55.7057L98.0447 55.4054L97.7095 55.1051L97.3743 54.955V52.2523H97.8771H98.5475L99.0503 52.1021L99.7207 51.952L100.391 51.8018L101.061 51.6517L101.732 51.5015L102.402 51.3514H101.899L101.229 51.2012L100.559 51.0511L99.7207 50.9009L98.8827 50.7508L98.0447 50.6006L97.3743 50.4505L96.7039 50.3003L95.8659 49.5495L95.0279 48.6486L94.1899 47.5976L93.352 46.5465L92.3464 45.4955L91.3408 44.5946L90.3352 43.994L89.3296 43.6937L89.162 44.8949L88.8268 45.6456L88.1564 46.0961L87.486 46.2462H86.4805L85.3073 45.9459L84.1341 45.6456L82.6257 45.4955ZM67.8771 16.967L67.0391 17.5676L66.0335 18.018L65.0279 18.4685L64.0223 18.9189L63.0168 19.2192L62.0112 19.3694L61.0056 19.6697L60 19.8198L58.9944 17.8679L53.4637 22.5225L54.1341 23.8739L54.6369 24.7748L54.9721 25.3754H55.3073L56.1453 25.0751L57.3184 24.4745L59.162 23.7237L62.0112 22.8228L62.8492 21.9219L64.0223 21.4715L65.3631 21.3213H66.7039L68.0447 21.4715L69.2179 21.6216H70.0559H70.5587L70.3911 20.8709L70.0559 20.4204L69.5531 19.97L69.0503 19.6697L68.5475 19.2192L68.2123 18.7688L67.8771 18.018V16.967ZM66.2011 46.997L65.0279 47.5976L64.3575 48.6486L64.1899 49.8498V51.0511L64.6927 52.4024L65.1955 53.6036L65.6983 54.5045L66.2011 55.2553L67.0391 55.4054L67.7095 55.7057L68.3799 56.1562L69.0503 56.6066L69.7207 57.0571L70.3911 57.5075L71.0615 58.1081L71.7318 58.7087H73.4078V50.9009L72.7374 50.3003L72.067 49.6997L71.229 49.0991L70.3911 48.3483L69.3855 47.8979L68.3799 47.4474L67.3743 47.1471L66.2011 46.997Z" fill="#008040"/>
<path d="M56.8156 7.80781L51.7877 6.90691L51.2849 6.45646L51.1173 5.85586L56.648 4.65465L60.838 3.15315L65.6983 0.45045L67.2067 0.15015L68.7151 0H70.3911L75.5866 0.45045L81.1173 0.15015H86.8156L90.1676 0.900901L86.3129 3.75375L85.8101 4.35435L85.6425 5.25526L90.3352 6.00601L92.8492 7.80781L93.1844 8.70871L98.2123 9.60961L104.078 9.90991H110.112H115.475L111.62 12.1622L105.922 12.9129L104.581 15.1652H109.609L113.296 17.8679L117.654 19.3694L122.849 21.3213L127.207 22.973L129.888 25.5255H124.525L121.844 26.2763L121.173 27.027L120.838 28.2282L125.363 28.979L129.888 30.7808L134.749 32.7327L139.106 34.8348L141.117 36.6366L136.592 38.4384L131.564 39.3393L126.369 39.9399L121.676 40.5405L117.486 41.8919L116.145 42.4925L120.335 45.045L124.693 46.5465L129.385 48.4985L133.743 50.6006L136.425 52.5526L136.592 53.1532L136.425 53.6036L135.754 54.0541L130.559 54.955L124.525 55.7057L118.492 56.006L113.296 56.1562L110.447 58.1081L114.972 60.961L119.162 62.3123L123.687 63.5135L128.715 64.4144L133.575 65.015L138.268 65.1652H146.983L149.665 66.6667L150 67.2673L149.832 67.8679L143.631 69.5195L137.095 70.2703L131.229 71.4715L124.693 72.3724H119.832L114.134 71.6216L107.263 70.1201L103.073 72.8228L99.2179 75.976L96.0335 79.4294L93.0168 83.033L90.1676 86.7868L87.3184 90.5405L84.4693 94.2943L81.2849 97.8979L80.4469 102.402L79.2737 109.159L78.6034 113.063L77.933 117.267L77.2626 121.772L76.4246 126.276L75.7542 130.48L74.581 138.138L73.9106 143.694L73.743 146.096L76.9274 149.249L78.1006 150H53.4637L57.9888 147.598L59.8324 143.844L61.1732 139.79L62.514 135.435L63.8548 131.081L65.1955 126.577L66.3687 122.222L67.2067 118.018L67.8771 112.312L63.0168 109.76L58.1564 106.907L54.4693 103.904L51.1173 99.5495L46.9274 94.2943L43.9106 95.1952L43.2402 96.6967L38.5475 97.5976L33.6872 98.048L28.1564 99.0991L22.9609 100L17.5978 100.601H12.7374L9.05028 100L13.2402 98.1982L15.7542 97.2973V95.1952L19.9441 92.3423L24.8045 90.8408L25.4749 89.3393L30.1676 88.8889L30.5028 88.5886L30.838 88.1381L26.1453 86.7868L23.7989 85.2853L23.2961 82.2823L22.1229 80.9309L16.0894 81.2312L14.2458 81.0811L13.0726 80.03L12.7374 77.6276L17.2626 75.5255L22.7933 74.3243L26.8156 72.3724L28.4916 70.7207L24.4693 70.1201L20.2793 66.8168L17.095 63.3634L12.5698 61.4114L8.04469 60.5105L3.51955 59.7598L0.670391 59.009L0 58.7087L0.167598 58.5586L4.69274 57.6577L5.53073 57.3574L10.5587 57.5075L17.2626 57.2072L22.9609 56.4565L27.9888 55.4054L32.514 54.2042L38.2123 52.7027L43.9106 51.6517L50.2793 51.8018L55.8101 52.8529L62.3464 54.955L61.5084 50.4505L62.3464 46.997L63.0168 46.3964L58.324 45.045L54.9721 45.1952L55.3073 40.8408V40.2402L51.7877 37.5375L46.5922 35.7357L41.2291 35.8859L35.3631 37.2372L31.0056 38.2883L26.1453 39.4895L23.4637 39.9399L26.1453 36.3363L30.6704 33.3333L34.3575 31.0811L34.8603 30.6306L35.0279 30.3303L34.8603 30.03L34.3575 29.8799L34.6927 29.1291L38.0447 26.4264L38.7151 25.8258L38.8827 25.2252L38.7151 24.6246L32.514 24.1742L26.648 23.5736L23.9665 22.6727L23.7989 22.3724V22.0721L28.9944 20.2703L33.5196 19.3694L38.5475 17.7177L41.8994 14.7147L45.5866 12.3123L49.9441 10.0601L55.3073 8.10811L56.8156 7.80781Z" stroke="black" stroke-width="0.317269"/>
<path d="M48.7705 92.7957L50.2789 94.2972L51.7873 95.7987L53.2956 97.6005L54.804 99.2522L56.6476 100.904L58.3236 102.405L59.9996 103.456L62.0107 104.357L63.3515 104.808L65.5303 105.558L67.7091 106.159L68.547 106.309L69.2174 106.459L69.385 105.558L69.8878 103.607L70.223 101.354L70.5582 98.8017L70.7258 96.3993V95.3483V94.2972V92.3453L70.5582 90.9939V90.5435L69.7202 87.9909L68.7146 86.039L67.7091 84.5375L66.5359 83.3363L65.1951 82.4354L64.0219 81.5345L62.6811 80.7837L61.3403 79.8828L60.5024 82.1351L59.832 83.7867L59.1616 85.1381L58.156 86.9399L56.8152 87.9909L54.9716 88.7417L53.128 89.6426L51.7873 90.3933L50.4465 91.4444L48.7705 92.7957Z" stroke="black" stroke-width="0.317269"/>
<path d="M71.7315 82.8843L73.0722 70.7222L72.0666 70.4219L70.8935 70.572L69.5527 71.1726L68.2119 72.0735L66.8711 73.1246L65.6979 74.3258L64.5247 75.3768L63.6868 76.1276L63.3516 77.1786L63.8544 78.3798L64.8599 79.581L66.5359 80.7822L68.2119 81.8333L69.7203 82.584L71.0611 83.0345L71.7315 82.8843Z" stroke="black" stroke-width="0.317269"/>
<path d="M82.6252 65.4688V66.67L82.4576 68.1715V69.673V71.1745L82.29 72.8261V74.4778V75.9793V77.3306L82.7928 76.2796L83.7984 75.2285L85.1392 74.0273L86.3124 72.9763L87.8208 72.0754L88.9939 71.4748L90.1671 70.8742L90.8375 70.724L92.0107 70.2736L91.8431 69.5228L91.0051 68.7721L89.3291 67.721L87.4856 66.9703L85.642 66.2195L83.966 65.7691L82.6252 65.4688Z" stroke="black" stroke-width="0.317269"/>
<path d="M81.2852 92.7908L82.4583 91.8899L83.6315 90.6887L84.8047 89.4875L85.9779 88.2863L87.1511 86.7848L88.3243 85.4335L89.4974 83.932L90.8382 82.4305L92.0114 81.0791L93.1846 79.5776L94.3578 78.0761L95.531 76.7248L96.8717 75.3734L98.0449 74.0221L99.2181 72.8209L100.391 71.6197L98.2125 71.4695L96.2014 70.8689L95.531 70.7188L93.1846 71.0191L92.0114 71.7698L90.503 72.8209L88.8271 74.4725L87.1511 76.2743L85.6427 78.0761L84.3019 79.8779L83.1287 81.2293L82.6259 82.2803L82.1231 83.6317L81.7879 84.8329L81.6204 86.1842L81.4528 87.5356V88.8869L81.2852 90.2383V92.7908Z" stroke="black" stroke-width="0.317269"/>
<path d="M82.626 45.4971V46.6983V47.7494V48.9506V54.6563H84.9723L86.1455 53.6052L88.1567 52.5542L90.0003 52.2539L92.0115 52.8545L93.1846 53.4551L93.3522 54.5061L94.8606 55.8575L97.0394 56.4581L98.045 56.6082L99.2182 56.7584H100.056L98.7154 55.8575L97.3746 54.9566V52.2539L99.0506 52.1037L101.062 51.6533L101.732 51.5031L102.403 51.353H101.9L99.7209 50.9025L98.045 50.6022L96.7042 50.3019L95.0282 48.6503L94.1902 47.5992L93.3522 46.5482L92.3466 45.4971L90.3355 43.9956L89.3299 43.6953L89.1623 44.8965L88.8271 45.6473L88.1567 46.0977L86.4807 46.2479L84.1344 45.6473L82.626 45.4971Z" stroke="black" stroke-width="0.317269"/>
<path d="M67.8773 16.9688L66.0337 18.0198L64.0225 18.9207L62.0114 19.3712L60.0002 19.8216L58.9946 17.8697L53.4639 22.5243L54.1343 23.8757L54.9722 25.3772H55.3074L57.3186 24.4763L59.1622 23.7255L62.0114 22.8246L62.8493 21.9237L65.3633 21.3231L68.0449 21.4733L70.056 21.6234H70.5588L70.3912 20.8727L70.056 20.4222L68.5477 19.221L67.8773 18.0198V16.9688Z" stroke="black" stroke-width="0.317269"/>
<path d="M66.2006 47L65.0274 47.6006L64.3571 48.6517L64.1895 49.8529V51.0541L64.6922 52.4054L65.195 53.6066L66.2006 55.2583L67.709 55.7087L69.0498 56.6096L70.3906 57.5105L71.7314 58.7117H73.4073V50.9039L72.0665 49.7027L70.3906 48.3514L68.3794 47.4505L66.2006 47Z" stroke="black" stroke-width="0.317269"/>
</g>
<defs>
<clipPath id="clip0_2109_212516">
<rect width="150" height="150" fill="white"/>
</clipPath>
</defs>
</svg>
