<svg width="150" height="150" viewBox="0 0 150 150" fill="none" xmlns="http://www.w3.org/2000/svg">
<g clip-path="url(#clip0_2109_212377)">
<path d="M36.7051 149.853C40.0571 149.853 42.7745 148.441 42.7745 146.7C42.7745 144.959 40.0571 143.547 36.7051 143.547C33.3531 143.547 30.6357 144.959 30.6357 146.7C30.6357 148.441 33.3531 149.853 36.7051 149.853Z" fill="#B2B2B2" stroke="black" stroke-width="0.416634"/>
<path d="M36.7052 149.698C39.738 149.698 42.1965 148.421 42.1965 146.845C42.1965 145.269 39.738 143.992 36.7052 143.992C33.6724 143.992 31.2139 145.269 31.2139 146.845C31.2139 148.421 33.6724 149.698 36.7052 149.698Z" fill="#D9D9D9"/>
<path d="M37.2836 147.744C39.1991 147.744 40.7518 146.938 40.7518 145.942C40.7518 144.947 39.1991 144.141 37.2836 144.141C35.3682 144.141 33.8154 144.947 33.8154 145.942C33.8154 146.938 35.3682 147.744 37.2836 147.744Z" fill="#EDEDED"/>
<path d="M37.8611 146.244C38.6592 146.244 39.3062 145.908 39.3062 145.493C39.3062 145.078 38.6592 144.742 37.8611 144.742C37.063 144.742 36.416 145.078 36.416 145.493C36.416 145.908 37.063 146.244 37.8611 146.244Z" fill="white"/>
<path d="M94.2198 86.0389C100.764 86.0389 106.07 83.2827 106.07 79.8827C106.07 76.4828 100.764 73.7266 94.2198 73.7266C87.6754 73.7266 82.3701 76.4828 82.3701 79.8827C82.3701 83.2827 87.6754 86.0389 94.2198 86.0389Z" fill="#B2B2B2" stroke="black" stroke-width="0.416634"/>
<path d="M93.931 85.2874C99.6773 85.2874 104.336 82.8673 104.336 79.882C104.336 76.8966 99.6773 74.4766 93.931 74.4766C88.1847 74.4766 83.5264 76.8966 83.5264 79.882C83.5264 82.8673 88.1847 85.2874 93.931 85.2874Z" fill="#D9D9D9"/>
<path d="M95.665 81.8332C99.1767 81.8332 102.023 80.3542 102.023 78.5299C102.023 76.7055 99.1767 75.2266 95.665 75.2266C92.1534 75.2266 89.3066 76.7055 89.3066 78.5299C89.3066 80.3542 92.1534 81.8332 95.665 81.8332Z" fill="#EDEDED"/>
<path d="M97.1099 79.4283C98.8657 79.4283 100.289 78.6888 100.289 77.7767C100.289 76.8645 98.8657 76.125 97.1099 76.125C95.354 76.125 93.9307 76.8645 93.9307 77.7767C93.9307 78.6888 95.354 79.4283 97.1099 79.4283Z" fill="white"/>
<path d="M11.5607 106.606C17.9455 106.606 23.1214 103.917 23.1214 100.6C23.1214 97.2827 17.9455 94.5938 11.5607 94.5938C5.1759 94.5938 0 97.2827 0 100.6C0 103.917 5.1759 106.606 11.5607 106.606Z" fill="#B2B2B2" stroke="black" stroke-width="0.416634"/>
<path d="M11.5609 105.706C17.1476 105.706 21.6765 103.353 21.6765 100.451C21.6765 97.5482 17.1476 95.1953 11.5609 95.1953C5.97422 95.1953 1.44531 97.5482 1.44531 100.451C1.44531 103.353 5.97422 105.706 11.5609 105.706Z" fill="#D9D9D9"/>
<path d="M13.0058 102.552C16.5175 102.552 19.3642 101.073 19.3642 99.2486C19.3642 97.4243 16.5175 95.9453 13.0058 95.9453C9.4942 95.9453 6.64746 97.4243 6.64746 99.2486C6.64746 101.073 9.4942 102.552 13.0058 102.552Z" fill="#EDEDED"/>
<path d="M14.7397 100.299C16.6551 100.299 18.2079 99.4922 18.2079 98.4971C18.2079 97.502 16.6551 96.6953 14.7397 96.6953C12.8243 96.6953 11.2715 97.502 11.2715 98.4971C11.2715 99.4922 12.8243 100.299 14.7397 100.299Z" fill="white"/>
<path d="M72.254 29.7264C78.7984 29.7264 84.1037 26.9702 84.1037 23.5702C84.1037 20.1703 78.7984 17.4141 72.254 17.4141C65.7096 17.4141 60.4043 20.1703 60.4043 23.5702C60.4043 26.9702 65.7096 29.7264 72.254 29.7264Z" fill="#B2B2B2" stroke="black" stroke-width="0.416634"/>
<path d="M72.5433 28.9827C78.2896 28.9827 82.9479 26.5626 82.9479 23.5773C82.9479 20.592 78.2896 18.1719 72.5433 18.1719C66.797 18.1719 62.1387 20.592 62.1387 23.5773C62.1387 26.5626 66.797 28.9827 72.5433 28.9827Z" fill="#D9D9D9"/>
<path d="M74.2773 25.6769C77.789 25.6769 80.6357 24.198 80.6357 22.3736C80.6357 20.5493 77.789 19.0703 74.2773 19.0703C70.7657 19.0703 67.9189 20.5493 67.9189 22.3736C67.9189 24.198 70.7657 25.6769 74.2773 25.6769Z" fill="#EDEDED"/>
<path d="M75.7222 23.2721C77.478 23.2721 78.9014 22.5326 78.9014 21.6204C78.9014 20.7082 77.478 19.9688 75.7222 19.9688C73.9663 19.9688 72.543 20.7082 72.543 21.6204C72.543 22.5326 73.9663 23.2721 75.7222 23.2721Z" fill="white"/>
<path d="M23.4102 5.85757C26.6026 5.85757 29.1906 4.51308 29.1906 2.85457C29.1906 1.19605 26.6026 -0.148438 23.4102 -0.148438C20.2178 -0.148438 17.6299 1.19605 17.6299 2.85457C17.6299 4.51308 20.2178 5.85757 23.4102 5.85757Z" fill="#B2B2B2" stroke="black" stroke-width="0.416634"/>
<path d="M23.1213 5.40198C25.8348 5.40198 28.0346 4.25916 28.0346 2.84943C28.0346 1.43969 25.8348 0.296875 23.1213 0.296875C20.4078 0.296875 18.208 1.43969 18.208 2.84943C18.208 4.25916 20.4078 5.40198 23.1213 5.40198Z" fill="#D9D9D9"/>
<path d="M23.9889 3.60114C25.4254 3.60114 26.59 2.99612 26.59 2.24979C26.59 1.50346 25.4254 0.898438 23.9889 0.898438C22.5523 0.898438 21.3877 1.50346 21.3877 2.24979C21.3877 2.99612 22.5523 3.60114 23.9889 3.60114Z" fill="#EDEDED"/>
<path d="M24.8552 2.55619C25.6533 2.55619 26.3003 2.22007 26.3003 1.80544C26.3003 1.39081 25.6533 1.05469 24.8552 1.05469C24.0571 1.05469 23.4102 1.39081 23.4102 1.80544C23.4102 2.22007 24.0571 2.55619 24.8552 2.55619Z" fill="white"/>
<path d="M138.15 44.4451C144.695 44.4451 150 41.6889 150 38.289C150 34.889 144.695 32.1328 138.15 32.1328C131.606 32.1328 126.301 34.889 126.301 38.289C126.301 41.6889 131.606 44.4451 138.15 44.4451Z" fill="#B2B2B2" stroke="black" stroke-width="0.416634"/>
<path d="M137.862 43.6936C143.608 43.6936 148.266 41.2735 148.266 38.2882C148.266 35.3029 143.608 32.8828 137.862 32.8828C132.115 32.8828 127.457 35.3029 127.457 38.2882C127.457 41.2735 132.115 43.6936 137.862 43.6936Z" fill="#D9D9D9"/>
<path d="M139.596 40.3879C143.107 40.3879 145.954 38.9089 145.954 37.0846C145.954 35.2602 143.107 33.7812 139.596 33.7812C136.084 33.7812 133.237 35.2602 133.237 37.0846C133.237 38.9089 136.084 40.3879 139.596 40.3879Z" fill="#EDEDED"/>
<path d="M141.041 37.9908C142.796 37.9908 144.22 37.2513 144.22 36.3392C144.22 35.427 142.796 34.6875 141.041 34.6875C139.285 34.6875 137.861 35.427 137.861 36.3392C137.861 37.2513 139.285 37.9908 141.041 37.9908Z" fill="white"/>
<path d="M47.6883 60.3625C51.8384 60.3625 55.2027 58.6147 55.2027 56.4586C55.2027 54.3025 51.8384 52.5547 47.6883 52.5547C43.5382 52.5547 40.1738 54.3025 40.1738 56.4586C40.1738 58.6147 43.5382 60.3625 47.6883 60.3625Z" fill="#B2B2B2" stroke="black" stroke-width="0.416634"/>
<path d="M47.6875 59.4626C51.0395 59.4626 53.7569 58.0508 53.7569 56.3094C53.7569 54.568 51.0395 53.1562 47.6875 53.1562C44.3355 53.1562 41.6182 54.568 41.6182 56.3094C41.6182 58.0508 44.3355 59.4626 47.6875 59.4626Z" fill="#D9D9D9"/>
<path d="M48.5551 57.5055C50.6301 57.5055 52.3123 56.6315 52.3123 55.5535C52.3123 54.4755 50.6301 53.6016 48.5551 53.6016C46.48 53.6016 44.7979 54.4755 44.7979 55.5535C44.7979 56.6315 46.48 57.5055 48.5551 57.5055Z" fill="#EDEDED"/>
<path d="M49.7107 56.1534C50.6684 56.1534 51.4448 55.75 51.4448 55.2525C51.4448 54.7549 50.6684 54.3516 49.7107 54.3516C48.7529 54.3516 47.9766 54.7549 47.9766 55.2525C47.9766 55.75 48.7529 56.1534 49.7107 56.1534Z" fill="white"/>
<path d="M115.607 131.383C122.151 131.383 127.456 128.626 127.456 125.226C127.456 121.827 122.151 119.07 115.607 119.07C109.062 119.07 103.757 121.827 103.757 125.226C103.757 128.626 109.062 131.383 115.607 131.383Z" fill="#B2B2B2" stroke="black" stroke-width="0.416634"/>
<path d="M115.318 130.483C121.064 130.483 125.722 128.063 125.722 125.077C125.722 122.092 121.064 119.672 115.318 119.672C109.571 119.672 104.913 122.092 104.913 125.077C104.913 128.063 109.571 130.483 115.318 130.483Z" fill="#D9D9D9"/>
<path d="M117.052 127.177C120.563 127.177 123.41 125.698 123.41 123.874C123.41 122.049 120.563 120.57 117.052 120.57C113.54 120.57 110.693 122.049 110.693 123.874C110.693 125.698 113.54 127.177 117.052 127.177Z" fill="#EDEDED"/>
<path d="M118.498 124.772C120.253 124.772 121.677 124.033 121.677 123.12C121.677 122.208 120.253 121.469 118.498 121.469C116.742 121.469 115.318 122.208 115.318 123.12C115.318 124.033 116.742 124.772 118.498 124.772Z" fill="white"/>
<path d="M58.96 119.819C62.1524 119.819 64.7404 118.474 64.7404 116.816C64.7404 115.157 62.1524 113.812 58.96 113.812C55.7676 113.812 53.1797 115.157 53.1797 116.816C53.1797 118.474 55.7676 119.819 58.96 119.819Z" fill="#B2B2B2" stroke="black" stroke-width="0.416634"/>
<path d="M58.9601 119.667C61.9929 119.667 64.4514 118.389 64.4514 116.814C64.4514 115.238 61.9929 113.961 58.9601 113.961C55.9273 113.961 53.4688 115.238 53.4688 116.814C53.4688 118.389 55.9273 119.667 58.9601 119.667Z" fill="#D9D9D9"/>
<path d="M59.8266 118.018C61.742 118.018 63.2948 117.211 63.2948 116.216C63.2948 115.221 61.742 114.414 59.8266 114.414C57.9112 114.414 56.3584 115.221 56.3584 116.216C56.3584 117.211 57.9112 118.018 59.8266 118.018Z" fill="#EDEDED"/>
<path d="M60.405 116.669C61.3627 116.669 62.1391 116.266 62.1391 115.768C62.1391 115.271 61.3627 114.867 60.405 114.867C59.4473 114.867 58.6709 115.271 58.6709 115.768C58.6709 116.266 59.4473 116.669 60.405 116.669Z" fill="white"/>
</g>
<defs>
<clipPath id="clip0_2109_212377">
<rect width="150" height="150" fill="white"/>
</clipPath>
</defs>
</svg>
