<svg width="150" height="150" viewBox="0 0 150 150" fill="none" xmlns="http://www.w3.org/2000/svg">
<g clip-path="url(#clip0_2109_212539)">
<path d="M150 138.438L94.877 137.237L93.2377 150L63.9344 149.249V137.237L0 139.339L38.1148 119.82L3.48361 120.42L54.0984 98.6487L16.8033 96.8468L58.6066 75.6757L24.7951 74.1742L57.7869 52.7027L33.1967 51.2012L58.1967 28.2282L37.7049 27.6276L75 0L117.828 27.027L93.2377 28.8288L120.492 46.2462L101.23 47.4474L122.541 59.4595L103.279 61.2613L127.459 76.8769L102.459 77.4775L135.861 100.751L110.041 99.8499L139.754 118.318H116.598L150 138.438Z" fill="#008040" stroke="black" stroke-width="0.350819"/>
</g>
<defs>
<clipPath id="clip0_2109_212539">
<rect width="150" height="150" fill="white"/>
</clipPath>
</defs>
</svg>
