<svg width="150" height="150" viewBox="0 0 150 150" fill="none" xmlns="http://www.w3.org/2000/svg">
<path d="M0.600586 139.025V48.293H130.631V139.025H0.600586Z" fill="#4C4C4C" stroke="black" stroke-width="0.662921"/>
<path d="M0.600586 48.2955L19.2192 2.92969H149.249L130.631 48.2955H0.600586Z" fill="#7F7F7F" stroke="black" stroke-width="0.662921"/>
<path d="M130.631 139.027L149.249 93.6614V2.92969L130.631 48.2955V139.027Z" fill="black" stroke="black" stroke-width="0.662921"/>
<path d="M117.417 146.342V86.3424L120.57 70.9766L123.573 86.3424V146.342H117.417Z" fill="#E5E5E5"/>
<path d="M105.105 146.342V86.3424L108.259 70.9766L111.262 86.3424V146.342H105.105Z" fill="#E5E5E5"/>
<path d="M92.6426 146.342V86.3424L95.7957 70.9766L98.9489 86.3424V146.342H92.6426Z" fill="#E5E5E5"/>
<path d="M80.3301 146.342V86.3424L83.4832 70.9766L86.4862 86.3424V146.342H80.3301Z" fill="#E5E5E5"/>
<path d="M68.0176 146.342V86.3424L71.0206 70.9766L74.1737 86.3424V146.342H68.0176Z" fill="#E5E5E5"/>
<path d="M55.5557 146.342V86.3424L58.7088 70.9766L61.7118 86.3424V146.342H55.5557Z" fill="#E5E5E5"/>
<path d="M43.2432 146.342V86.3424L46.2462 70.9766L49.3993 86.3424V146.342H43.2432Z" fill="#E5E5E5"/>
<path d="M30.7812 146.342V86.3424L33.9344 70.9766L36.9374 86.3424V146.342H30.7812Z" fill="#E5E5E5" stroke="black" stroke-width="0.662921"/>
<path d="M18.4688 146.342V86.3424L21.6219 70.9766L24.6249 86.3424V146.342H18.4688Z" fill="#E5E5E5"/>
<path d="M6.00586 146.342V86.3424L9.15901 70.9766L12.3122 86.3424V146.342H6.00586Z" fill="#E5E5E5"/>
<path d="M123.573 86.3438L117.417 100.978V116.344L123.573 100.978V86.3438Z" fill="white"/>
<path d="M111.262 86.3438L105.105 100.978V116.344L111.262 100.978V86.3438Z" fill="white"/>
<path d="M98.9489 86.3438L92.6426 100.978V116.344L98.9489 100.978V86.3438Z" fill="white"/>
<path d="M86.4862 86.3438L80.3301 100.978V116.344L86.4862 100.978V86.3438Z" fill="white"/>
<path d="M74.1737 86.3438L68.0176 100.978V116.344L74.1737 100.978V86.3438Z" fill="white"/>
<path d="M61.7118 86.3438L55.5557 100.978V116.344L61.7118 100.978V86.3438Z" fill="white"/>
<path d="M49.3993 86.3438L43.2432 100.978V116.344L49.3993 100.978V86.3438Z" fill="white"/>
<path d="M36.9374 86.3438L30.7812 100.978V116.344L36.9374 100.978V86.3438Z" fill="white"/>
<path d="M24.6249 86.3438L18.4688 100.978V116.344L24.6249 100.978V86.3438Z" fill="white"/>
<path d="M12.3122 86.3438L6.00586 100.978V116.344L12.3122 100.978V86.3438Z" fill="white"/>
<path d="M12.3122 105.367L6.00586 120.001V123.66L12.3122 109.026V105.367Z" fill="#999999"/>
<path d="M24.6249 105.367L18.4688 120.001V123.66L24.6249 109.026V105.367Z" fill="#999999"/>
<path d="M36.9374 105.367L30.7812 120.001V123.66L36.9374 109.026V105.367Z" fill="#999999"/>
<path d="M49.3993 105.367L43.2432 120.001V123.66L49.3993 109.026V105.367Z" fill="#999999"/>
<path d="M61.7118 105.367L55.5557 120.001V123.66L61.7118 109.026V105.367Z" fill="#999999"/>
<path d="M74.1737 105.367L68.0176 120.001V123.66L74.1737 109.026V105.367Z" fill="#999999"/>
<path d="M86.4862 105.367L80.3301 120.001V123.66L86.4862 109.026V105.367Z" fill="#999999"/>
<path d="M98.9489 105.367L92.6426 120.001V123.66L98.9489 109.026V105.367Z" fill="#999999"/>
<path d="M111.262 105.367L105.105 120.001V123.66L111.262 109.026V105.367Z" fill="#999999"/>
<path d="M123.573 105.367L117.417 120.001V123.66L123.573 109.026V105.367Z" fill="#999999"/>
<path d="M43.2432 146.342V86.3424L46.2462 70.9766L49.3993 86.3424V146.342H43.2432Z" stroke="black" stroke-width="0.662921"/>
<path d="M55.5557 146.342V86.3424L58.7088 70.9766L61.7118 86.3424V146.342H55.5557Z" stroke="black" stroke-width="0.662921"/>
<path d="M68.0176 146.342V86.3424L71.0206 70.9766L74.1737 86.3424V146.342H68.0176Z" stroke="black" stroke-width="0.662921"/>
<path d="M80.3301 146.342V86.3424L83.4832 70.9766L86.4862 86.3424V146.342H80.3301Z" stroke="black" stroke-width="0.662921"/>
<path d="M92.6426 146.342V86.3424L95.7957 70.9766L98.9489 86.3424V146.342H92.6426Z" stroke="black" stroke-width="0.662921"/>
<path d="M105.105 146.342V86.3424L108.259 70.9766L111.262 86.3424V146.342H105.105Z" stroke="black" stroke-width="0.662921"/>
<path d="M117.417 146.342V86.3424L120.57 70.9766L123.573 86.3424V146.342H117.417Z" stroke="black" stroke-width="0.662921"/>
<path d="M18.4688 146.342V86.3424L21.6219 70.9766L24.6249 86.3424V146.342H18.4688Z" stroke="black" stroke-width="0.662921"/>
<path d="M6.00586 146.342V86.3424L9.15901 70.9766L12.3122 86.3424V146.342H6.00586Z" stroke="black" stroke-width="0.662921"/>
</svg>
