<svg width="150" height="150" viewBox="0 0 150 150" fill="none" xmlns="http://www.w3.org/2000/svg">
<g clip-path="url(#clip0_2109_173108)">
<path d="M0 37.5H150V150H0V37.5Z" fill="white" stroke="black" stroke-width="0.740797"/>
<path d="M75.0001 85.5C88.8914 85.5 100.153 78.1127 100.153 69C100.153 59.8873 88.8914 52.5 75.0001 52.5C61.1088 52.5 49.8477 59.8873 49.8477 69C49.8477 78.1127 61.1088 85.5 75.0001 85.5Z" fill="black" stroke="black" stroke-width="0.740797"/>
<path d="M74.9998 83.0984C86.8705 83.0984 96.4937 76.7857 96.4937 68.9984C96.4937 61.2112 86.8705 54.8984 74.9998 54.8984C63.129 54.8984 53.5059 61.2112 53.5059 68.9984C53.5059 76.7857 63.129 83.0984 74.9998 83.0984Z" fill="#B2B2B2"/>
<path d="M102.896 68.9992L102.439 65.3992L100.61 62.0992L98.3232 58.7992L94.6646 56.0992L90.5488 53.6992L85.5183 52.1992L80.4878 50.9992L75 50.6992V59.0992L77.7439 59.3992L80.9451 59.9992L83.2317 60.8992L85.5183 62.0992L87.3476 63.5992L88.7195 65.0992L89.6341 67.1992L90.0915 68.9992H102.896Z" fill="#7F7F7F"/>
<path d="M75 87.3L80.4878 87L85.5183 85.8L90.5488 84.3L94.6646 81.9L98.3232 79.2L100.61 75.9L102.439 72.6L102.896 69H90.0915L89.6341 70.8L88.7195 72.9L87.3476 74.4L85.5183 75.9L83.2317 77.1L80.9451 78L77.7439 78.6L75 78.9V87.3Z" fill="#7F7F7F"/>
<path d="M47.1035 69L47.5608 72.6L49.3901 75.9L51.6767 79.2L55.3352 81.9L59.4511 84.3L64.4816 85.8L69.5121 87L74.9999 87.3V78.9L72.256 78.6L69.0547 78L66.7682 77.1L64.4816 75.9L62.6523 74.4L61.2803 72.9L60.3657 70.8L59.9084 69H47.1035Z" fill="#7F7F7F"/>
<path d="M74.9999 50.6992L69.5121 50.9992L64.4816 52.1992L59.4511 53.6992L55.3352 56.0992L51.6767 58.7992L49.3901 62.0992L47.5608 65.3992L47.1035 68.9992H59.9084L60.3657 67.1992L61.2803 65.0992L62.6523 63.5992L64.4816 62.0992L66.7682 60.8992L69.0547 59.9992L72.256 59.3992L74.9999 59.0992V50.6992Z" fill="#7F7F7F"/>
<path d="M74.9997 75.9016C80.8088 75.9016 85.518 72.8123 85.518 69.0016C85.518 65.1908 80.8088 62.1016 74.9997 62.1016C69.1906 62.1016 64.4814 65.1908 64.4814 69.0016C64.4814 72.8123 69.1906 75.9016 74.9997 75.9016Z" fill="#7F7F7F"/>
<path d="M92.378 68.9984L91.0061 64.4984L86.8902 61.1984L81.4024 58.7984L75 57.8984V66.2984L76.8293 66.5984L78.6585 67.1984L79.1159 68.0984L79.5732 68.9984H92.378Z" fill="#333333"/>
<path d="M75 80.4L81.4024 79.5L87.3476 77.1L91.0061 73.2L92.378 69H79.5732L79.1159 70.2L78.2012 71.1L76.8293 71.7L75 72V80.4Z" fill="#333333"/>
<path d="M58.0791 69L59.4511 73.2L63.1096 76.8L68.1401 79.5L74.9998 80.4V72L73.6279 71.7L72.2559 71.4L71.3413 70.2L70.884 69H58.0791Z" fill="#333333"/>
<path d="M74.9998 57.8984L68.1401 58.7984L63.1096 61.1984L59.4511 64.4984L58.0791 68.9984H70.884L71.3413 68.0984L72.2559 67.1984L73.6279 66.5984L74.9998 66.2984V57.8984Z" fill="#333333"/>
<path d="M107.013 72.9L105.641 76.2L102.897 79.8L99.6956 82.5L96.0371 85.2L91.4639 87.3L85.9761 89.1L80.4883 90V118.2H133.994V69H107.47L107.013 72.9Z" fill="#4C4C4C"/>
<path d="M43.4449 72.9L44.8168 76.2L47.5607 79.8L50.762 82.5L54.4205 85.2L58.9937 87.3L64.0242 89.1L69.512 90L69.9693 118.2H16.4632L16.0059 69H42.9876L43.4449 72.9Z" fill="#4C4C4C"/>
<path d="M107.47 69L107.013 72.9L105.641 76.2L102.897 79.8L99.6956 82.5L96.0371 85.2L91.4639 87.3L85.9761 89.1L80.4883 90V118.2H133.994V69H107.47Z" stroke="black" stroke-width="0.740797"/>
<path d="M42.9876 69L43.4449 72.9L44.8168 76.2L47.5607 79.8L50.762 82.5L54.4205 85.2L58.9937 87.3L64.0242 89.1L69.512 90L69.9693 118.2H16.4632L16.0059 69H42.9876Z" stroke="black" stroke-width="0.740797"/>
<path d="M1.37207 149.098L9.14646 143.698H140.854V43.4984L148.628 38.3984V149.098H1.37207Z" fill="#E5E5E5"/>
<path d="M9.14648 43.5H140.854V144H9.14648V43.5Z" stroke="#CCCCCC" stroke-width="0.740797"/>
<path d="M68.1406 23.3984H82.3175V37.4984H68.1406V23.3984Z" fill="black" stroke="black" stroke-width="0.740797"/>
<path d="M69.9697 0H80.488V23.4H69.9697V0Z" fill="#7F7F7F" stroke="black" stroke-width="0.740797"/>
</g>
<defs>
<clipPath id="clip0_2109_173108">
<rect width="150" height="150" fill="white"/>
</clipPath>
</defs>
</svg>
