<svg width="150" height="150" viewBox="0 0 150 150" fill="none" xmlns="http://www.w3.org/2000/svg">
<g clip-path="url(#clip0_2109_172008)">
<path d="M149.85 149.226V148.455V147.684V146.141V76.3471V74.8047H0V75.9615V76.7327V78.2751V149.226V149.612H149.85V149.226Z" fill="#828282"/>
<path d="M0 74.8047V75.1903H149.85V74.8047H0Z" fill="black"/>
<path d="M149.85 149.612V149.227H0V149.998H149.85V149.612Z" fill="black"/>
<path d="M145.195 82.1328V141.516H4.6543V82.1328H145.195Z" fill="#C1C1C1"/>
<path d="M4.6543 141.516V141.901H145.195V141.516H4.6543Z" fill="black"/>
<path d="M145.195 82.1328H4.6543V82.5184H145.195V82.1328Z" fill="black"/>
<path d="M145.195 56.2997V55.9141H4.6543V56.2997H145.195Z" fill="black"/>
<path d="M131.231 0.385604L145.195 56.2982V55.9126L131.231 0V0.385604Z" fill="black"/>
<path d="M18.6182 0.385604H131.231V0H18.6182V0.385604Z" fill="black"/>
<path d="M4.6543 55.9126V56.2982L18.6183 0.385604V0L4.6543 55.9126Z" fill="black"/>
<path d="M0 74.8087H149.85L145.195 55.9141H4.65465L0 74.8087Z" fill="#828282"/>
<path d="M149.85 75.1903V74.8047H0V75.1903H149.85Z" fill="black"/>
<path d="M145.195 56.2997L149.85 75.1943V74.8087L145.195 55.9141V56.2997Z" fill="black"/>
<path d="M4.6543 56.2997H145.195V55.9141H4.6543V56.2997Z" fill="black"/>
<path d="M0 74.8087V75.1943L4.65465 56.2997V55.9141L0 74.8087Z" fill="black"/>
<path d="M26.5765 122.619C29.1472 122.619 31.2312 119.167 31.2312 114.907C31.2312 110.648 29.1472 107.195 26.5765 107.195C24.0058 107.195 21.9219 110.648 21.9219 114.907C21.9219 119.167 24.0058 122.619 26.5765 122.619Z" fill="#FF0000" stroke="black" stroke-width="0.481242"/>
<path d="M46.3961 122.619C48.8839 122.619 50.9006 119.167 50.9006 114.907C50.9006 110.648 48.8839 107.195 46.3961 107.195C43.9083 107.195 41.8916 110.648 41.8916 114.907C41.8916 119.167 43.9083 122.619 46.3961 122.619Z" fill="#FF0000" stroke="black" stroke-width="0.481242"/>
<path d="M65.1647 122.619C67.6524 122.619 69.6692 119.167 69.6692 114.907C69.6692 110.648 67.6524 107.195 65.1647 107.195C62.6769 107.195 60.6602 110.648 60.6602 114.907C60.6602 119.167 62.6769 122.619 65.1647 122.619Z" fill="#FF0000" stroke="black" stroke-width="0.481242"/>
<path d="M85.1351 122.619C87.7058 122.619 89.7898 119.167 89.7898 114.907C89.7898 110.648 87.7058 107.195 85.1351 107.195C82.5644 107.195 80.4805 110.648 80.4805 114.907C80.4805 119.167 82.5644 122.619 85.1351 122.619Z" fill="#FF0000" stroke="black" stroke-width="0.481242"/>
<path d="M102.402 122.619C104.89 122.619 106.906 119.167 106.906 114.907C106.906 110.648 104.89 107.195 102.402 107.195C99.9142 107.195 97.8975 110.648 97.8975 114.907C97.8975 119.167 99.9142 122.619 102.402 122.619Z" fill="#FF0000" stroke="black" stroke-width="0.481242"/>
<path d="M120.721 122.619C123.292 122.619 125.376 119.167 125.376 114.907C125.376 110.648 123.292 107.195 120.721 107.195C118.15 107.195 116.066 110.648 116.066 114.907C116.066 119.167 118.15 122.619 120.721 122.619Z" fill="#FF0000" stroke="black" stroke-width="0.481242"/>
</g>
<defs>
<clipPath id="clip0_2109_172008">
<rect width="150" height="150" fill="white"/>
</clipPath>
</defs>
</svg>
