<svg width="150" height="150" viewBox="0 0 150 150" fill="none" xmlns="http://www.w3.org/2000/svg">
<g clip-path="url(#clip0_2109_172902)">
<path d="M150 150H0V0H150V150Z" fill="#009900" stroke="black" stroke-width="0.3003"/>
<path d="M128.078 141.294C135.376 141.294 141.292 135.378 141.292 128.08C141.292 120.783 135.376 114.867 128.078 114.867C120.781 114.867 114.865 120.783 114.865 128.08C114.865 135.378 120.781 141.294 128.078 141.294Z" fill="#CCCCCC"/>
<path d="M21.7718 34.985C29.0693 34.985 34.985 29.0693 34.985 21.7718C34.985 14.4744 29.0693 8.55859 21.7718 8.55859C14.4744 8.55859 8.55859 14.4744 8.55859 21.7718C8.55859 29.0693 14.4744 34.985 21.7718 34.985Z" fill="#CCCCCC"/>
<path d="M21.7718 141.294C29.0693 141.294 34.985 135.378 34.985 128.08C34.985 120.783 29.0693 114.867 21.7718 114.867C14.4744 114.867 8.55859 120.783 8.55859 128.08C8.55859 135.378 14.4744 141.294 21.7718 141.294Z" fill="#CCCCCC"/>
<path d="M92.6429 141.294C99.9404 141.294 105.856 135.378 105.856 128.08C105.856 120.783 99.9404 114.867 92.6429 114.867C85.3454 114.867 79.4297 120.783 79.4297 128.08C79.4297 135.378 85.3454 141.294 92.6429 141.294Z" fill="#CCCCCC"/>
<path d="M12.9131 105.854V43.9922H30.781V105.854H12.9131Z" fill="#CCCCCC"/>
<path d="M105.856 30.7819H43.9941V12.9141H105.856V30.7819Z" fill="#CCCCCC"/>
<path d="M39.1895 105.854V43.9922H57.2075V105.854H39.1895Z" fill="#CCCCCC"/>
<path d="M79.4297 105.854V43.9922H96.8471V105.854H79.4297Z" fill="#CCCCCC"/>
</g>
<defs>
<clipPath id="clip0_2109_172902">
<rect width="150" height="150" fill="white"/>
</clipPath>
</defs>
</svg>
