<svg width="150" height="150" viewBox="0 0 150 150" fill="none" xmlns="http://www.w3.org/2000/svg">
<g clip-path="url(#clip0_2109_172806)">
<path d="M134.234 11.8008H0V119.819H134.234V11.8008Z" fill="#C1FFC1" stroke="black" stroke-width="0.36918"/>
<path d="M123.123 119.82V131.848H58.1084V119.82H123.123Z" fill="#C1FFC1" stroke="black" stroke-width="0.36918"/>
<path d="M51.5013 119.82V131.848H6.60645V119.82H51.5013Z" fill="#C1FFC1" stroke="black" stroke-width="0.36918"/>
<path d="M150 0H134.234V150H138.739V5.90015H150V0Z" fill="white" stroke="black" stroke-width="0.36918"/>
<path d="M13.3633 29.9531H41.4414V48.7882H13.3633V29.9531Z" fill="#828282" stroke="black" stroke-width="0.36918"/>
<path d="M13.3633 59.9102H41.4414V78.7453H13.3633V59.9102Z" fill="#828282" stroke="black" stroke-width="0.36918"/>
<path d="M53.6035 29.9531H81.6816V48.7882H53.6035V29.9531Z" fill="#828282" stroke="black" stroke-width="0.36918"/>
<path d="M53.6035 68.9883H81.6816V87.8234H53.6035V68.9883Z" fill="#828282" stroke="black" stroke-width="0.36918"/>
<path d="M96.2461 56.9609H124.324V75.796H96.2461V56.9609Z" fill="#828282" stroke="black" stroke-width="0.36918"/>
<path d="M96.2461 29.9531H124.324V48.7882H96.2461V29.9531Z" fill="#828282" stroke="black" stroke-width="0.36918"/>
</g>
<defs>
<clipPath id="clip0_2109_172806">
<rect width="150" height="150" fill="white"/>
</clipPath>
</defs>
</svg>
