<svg width="150" height="150" viewBox="0 0 150 150" fill="none" xmlns="http://www.w3.org/2000/svg">
<g clip-path="url(#clip0_2109_171827)">
<path d="M0 150V142.095L12.4625 118.758H137.387L150 142.095V150H0Z" fill="#CCCCBF" stroke="black" stroke-width="0.336209"/>
<path d="M15.4658 122.523H134.385L143.544 142.097H6.30664L15.4658 122.523Z" fill="#666640"/>
<path d="M127.027 130.427H131.982L129.73 125.91H137.087L139.79 132.309H127.928L127.027 130.427Z" fill="#E5E5D8"/>
<path d="M118.168 130.426H125.075L125.976 132.308H119.069L118.168 130.426Z" fill="#E5E5D8"/>
<path d="M108.859 130.426H115.766L116.667 132.308H109.76L108.859 130.426Z" fill="#E5E5D8"/>
<path d="M99.5498 130.426H106.457L107.358 132.308H100.451L99.5498 130.426Z" fill="#E5E5D8"/>
<path d="M90.541 130.426H97.4479L98.3488 132.308H91.4419L90.541 130.426Z" fill="#E5E5D8"/>
<path d="M81.2314 130.426H88.1384L89.0393 132.308H82.1323L81.2314 130.426Z" fill="#E5E5D8"/>
<path d="M120.871 125.91H127.778L128.679 128.169H121.772L120.871 125.91Z" fill="#E5E5D8"/>
<path d="M111.562 125.91H118.468L119.219 128.169H112.462L111.562 125.91Z" fill="#E5E5D8"/>
<path d="M102.252 125.91H109.159L110.36 128.169H103.153L102.252 125.91Z" fill="#E5E5D8"/>
<path d="M93.2432 125.91H100.15L101.051 128.169H94.1441L93.2432 125.91Z" fill="#E5E5D8"/>
<path d="M83.9336 125.91H90.8405L91.7414 128.169H84.8345L83.9336 125.91Z" fill="#E5E5D8"/>
<path d="M74.625 125.91H81.5319L82.4328 128.169H75.5259L74.625 125.91Z" fill="#E5E5D8"/>
<path d="M123.573 121.395H134.835L135.735 123.653H124.474L123.573 121.395Z" fill="#E5E5D8"/>
<path d="M114.265 121.395H121.172L122.072 123.653H115.166L114.265 121.395Z" fill="#E5E5D8"/>
<path d="M105.255 121.395H112.162L113.063 123.653H106.156L105.255 121.395Z" fill="#E5E5D8"/>
<path d="M95.9463 121.395H102.853L103.754 123.653H96.8472L95.9463 121.395Z" fill="#E5E5D8"/>
<path d="M86.6367 121.395H93.5436L94.4445 123.653H87.5376L86.6367 121.395Z" fill="#E5E5D8"/>
<path d="M77.3271 121.395H84.5344L85.4353 123.653H78.5283L77.3271 121.395Z" fill="#E5E5D8"/>
<path d="M113.063 134.566H119.97L120.871 136.825H113.964L113.063 134.566Z" fill="#E5E5D8"/>
<path d="M103.754 134.566H110.661L111.562 136.825H104.655L103.754 134.566Z" fill="#E5E5D8"/>
<path d="M94.4443 134.566H101.351L102.552 136.825H95.3452L94.4443 134.566Z" fill="#E5E5D8"/>
<path d="M85.4355 134.566H92.3425L93.2434 136.825H86.3364L85.4355 134.566Z" fill="#E5E5D8"/>
<path d="M76.126 134.566H83.0329L83.9338 136.825H77.0269L76.126 134.566Z" fill="#E5E5D8"/>
<path d="M122.372 134.566H140.69L141.591 136.825H123.273L122.372 134.566Z" fill="#E5E5D8"/>
<path d="M105.556 139.086H117.267L118.168 140.968H106.457L105.556 139.086Z" fill="#E5E5D8"/>
<path d="M119.219 139.086H128.678L129.579 140.968H120.57L119.219 139.086Z" fill="#E5E5D8"/>
<path d="M131.081 139.086H142.492L143.393 140.968H131.982L131.081 139.086Z" fill="#E5E5D8"/>
<path d="M50.3008 139.086H103.454L104.355 140.968H51.2017L50.3008 139.086Z" fill="#E5E5D8"/>
<path d="M75.5259 130.426H82.4328L81.5319 132.308H74.625L75.5259 130.426Z" fill="#E5E5D8"/>
<path d="M66.2163 130.426H73.1232L72.2223 132.308H65.3154L66.2163 130.426Z" fill="#E5E5D8"/>
<path d="M56.9068 130.426H64.114L62.9128 132.308H56.0059L56.9068 130.426Z" fill="#E5E5D8"/>
<path d="M47.898 130.426H54.8049L53.904 132.308H46.9971L47.898 130.426Z" fill="#E5E5D8"/>
<path d="M38.5884 130.426H45.4953L44.5944 132.308H37.6875L38.5884 130.426Z" fill="#E5E5D8"/>
<path d="M29.2788 130.426H36.1857L35.2848 132.308H28.3779L29.2788 130.426Z" fill="#E5E5D8"/>
<path d="M10.9614 130.426H27.1777L25.9765 132.308H10.0605L10.9614 130.426Z" fill="#E5E5D8"/>
<path d="M72.8228 125.91H79.7297L78.8288 128.169H71.9219L72.8228 125.91Z" fill="#E5E5D8"/>
<path d="M63.5132 125.91H70.4201L69.5192 128.169H62.6123L63.5132 125.91Z" fill="#E5E5D8"/>
<path d="M54.5049 125.91H61.4118L60.2106 128.169H53.3037L54.5049 125.91Z" fill="#E5E5D8"/>
<path d="M45.1948 125.91H52.1018L51.2009 128.169H44.2939L45.1948 125.91Z" fill="#E5E5D8"/>
<path d="M35.8863 125.91H42.7932L41.8923 128.169H34.9854L35.8863 125.91Z" fill="#E5E5D8"/>
<path d="M26.5767 125.91H33.7839L32.5827 128.169H25.6758L26.5767 125.91Z" fill="#E5E5D8"/>
<path d="M12.7632 125.91H24.4749L23.7242 128.169H11.8623L12.7632 125.91Z" fill="#E5E5D8"/>
<path d="M79.4292 121.395H86.3361L85.4352 123.653H78.5283L79.4292 121.395Z" fill="#E5E5D8"/>
<path d="M70.1197 121.395H77.0266L76.1257 123.653H69.2188L70.1197 121.395Z" fill="#E5E5D8"/>
<path d="M60.8111 121.395H67.718L66.8171 123.653H59.9102L60.8111 121.395Z" fill="#E5E5D8"/>
<path d="M51.8018 121.395H58.7087L57.8078 123.653H50.6006L51.8018 121.395Z" fill="#E5E5D8"/>
<path d="M42.4927 121.395H49.3996L48.4987 123.653H41.5918L42.4927 121.395Z" fill="#E5E5D8"/>
<path d="M33.1831 121.395H40.09L39.1891 123.653H32.2822L33.1831 121.395Z" fill="#E5E5D8"/>
<path d="M24.1739 121.395H31.0808L29.8796 123.653H22.9727L24.1739 121.395Z" fill="#E5E5D8"/>
<path d="M15.0152 121.395H21.9221L21.0212 123.653H14.1143L15.0152 121.395Z" fill="#E5E5D8"/>
<path d="M75.8257 134.566H82.7326L81.8317 136.825H74.9248L75.8257 134.566Z" fill="#E5E5D8"/>
<path d="M66.5161 134.566H73.423L72.5221 136.825H65.6152L66.5161 134.566Z" fill="#E5E5D8"/>
<path d="M57.5078 134.566H64.4147L63.2135 136.825H56.3066L57.5078 134.566Z" fill="#E5E5D8"/>
<path d="M48.1978 134.566H55.1047L54.2038 136.825H47.2969L48.1978 134.566Z" fill="#E5E5D8"/>
<path d="M38.8892 134.566H45.7961L44.8952 136.825H37.9883L38.8892 134.566Z" fill="#E5E5D8"/>
<path d="M29.5796 134.566H36.7868L35.5856 136.825H28.6787L29.5796 134.566Z" fill="#E5E5D8"/>
<path d="M9.0093 134.566H27.4778L26.5769 136.825H8.1084L9.0093 134.566Z" fill="#E5E5D8"/>
<path d="M7.20754 139.086H18.4688L17.5679 140.968H6.30664L7.20754 139.086Z" fill="#E5E5D8"/>
<path d="M21.021 139.086H30.1802L29.2793 140.968H20.1201L21.021 139.086Z" fill="#E5E5D8"/>
<path d="M32.2827 139.086H43.9944L43.0935 140.968H31.3818L32.2827 139.086Z" fill="#E5E5D8"/>
<path d="M46.3965 139.086H99.2494L98.3485 140.968H45.1953L46.3965 139.086Z" fill="#E5E5D8"/>
<path d="M98.348 118.758H51.5011L55.7053 102.572L46.6963 102.196L32.5822 100.69L24.7744 99.1844V3.95232L32.5822 2.25847L46.396 0.564617L65.0147 0H84.8345L103.153 0.564617L117.267 2.25847L125.075 3.95232V99.1844L117.267 100.69L103.453 102.196L94.1438 102.572L98.348 118.758Z" fill="#CCCCBF"/>
<path d="M82.7326 91.6568H67.117L52.7026 90.904L41.8917 90.1512L35.8857 88.6455V14.4925L41.8917 13.175L52.7026 11.8576L67.117 11.293H82.7326L97.147 11.8576L107.958 13.175L113.964 14.4925V88.6455L107.958 90.1512L97.147 90.904L82.7326 91.6568Z" fill="#000066"/>
<path d="M53.6035 110.475L55.7056 102.57H94.1441L96.2462 110.475H53.6035Z" fill="#474719"/>
<path d="M98.348 118.758H51.5011L55.7053 102.572L46.6963 102.196L32.5822 100.69L24.7744 99.1844V3.95232L32.5822 2.25847L46.396 0.564617L65.0147 0H84.8345L103.153 0.564617L117.267 2.25847L125.075 3.95232V99.1844L117.267 100.69L103.453 102.196L94.1438 102.572L98.348 118.758Z" stroke="black" stroke-width="0.336209"/>
<path d="M82.7326 91.6566H67.117L52.7026 90.9037L41.8917 90.1509L35.8857 88.6453L76.4263 81.4934L98.3482 70.5775L107.658 51.7569L113.964 14.4922V88.6453L107.958 90.1509L97.147 90.9037L82.7326 91.6566Z" fill="#00004C"/>
<path d="M67.117 20.5151L50.6005 28.6079L44.2942 41.9705L35.8857 88.6455V14.4925L41.8917 13.175L52.7026 11.8576L67.117 11.293H82.7326L97.147 11.8576L107.958 13.175L113.964 14.4925L67.117 20.5151Z" fill="#000059"/>
<path fill-rule="evenodd" clip-rule="evenodd" d="M75.8262 61.9182L89.0394 46.8617L99.8502 25.4062L85.1355 46.8617L75.8262 61.9182ZM77.3277 49.873L85.4358 40.8391L92.0424 27.6647L83.0334 40.8391L77.3277 49.873Z" fill="white"/>
</g>
<defs>
<clipPath id="clip0_2109_171827">
<rect width="150" height="150" fill="white"/>
</clipPath>
</defs>
</svg>
