<svg width="150" height="150" viewBox="0 0 150 150" fill="none" xmlns="http://www.w3.org/2000/svg">
<g clip-path="url(#clip0_2109_173325)">
<path d="M7.76202 0L20.7633 7.65766L36.8694 17.4174L52.5874 27.7778L55.6922 29.7297L62.2898 34.5345L67.9173 38.2883L82.665 49.3994L94.3079 58.5586L98.577 61.8619L105.369 67.7177L111.384 72.6727L124.58 84.3844L137.387 96.6967L150 109.309V110.06H149.418L143.79 115.015L85.9638 109.309L80.7245 104.955L75.2911 100.751L71.2161 97.7477L23.286 60.8108L18.8228 56.7568L7.76202 48.4985L1.3584 5.70571L7.17987 0H7.76202Z" fill="#8282FF"/>
<path d="M58.2147 119.672H10.8668V124.176H0V149.852H69.0815V124.176H58.2147V119.672Z" fill="#020282"/>
<path d="M44.8252 106.304L47.93 118.916H53.3634L50.2586 105.703L44.8252 106.304Z" fill="#020282"/>
<path d="M120.893 34.6874L107.309 67.1199L113.325 71.9247L128.849 31.8346L125.162 26.8796L120.311 22.225L116.042 19.8226L110.22 17.5703H107.697L57.6328 28.9817L64.0364 33.7865L104.787 24.1769L72.9627 39.9427L77.6199 43.5463L102.458 29.5823L105.757 33.1859L111.19 36.4892L113.519 37.0898L96.2486 57.9607L100.712 61.264L120.893 34.6874Z" fill="#C1C1FF"/>
<path d="M22.1217 119.669L28.7194 88.4375H23.4801L18.6289 113.062L17.2705 119.669H22.1217Z" fill="#020282"/>
<path d="M2.52246 98.1999L8.73203 93.5453L17.8523 58.4102L22.7036 62.9147L22.3155 68.0198L63.2598 99.8516L69.6635 98.9507L74.3206 102.104L26.3905 107.96L19.5988 112.765L15.3297 111.413L13.1952 110.212L10.8666 108.56L8.73203 106.759L6.59749 104.957L5.0451 102.855L3.49271 100.602L2.52246 98.1999Z" fill="#0000FF"/>
<path d="M28.7197 88.4375L35.1233 119.669H40.9448L39.7805 115.765L38.2281 108.708L33.765 88.4375H28.7197Z" fill="#020282"/>
</g>
<defs>
<clipPath id="clip0_2109_173325">
<rect width="150" height="150" fill="white"/>
</clipPath>
</defs>
</svg>
