<svg width="150" height="150" viewBox="0 0 150 150" fill="none" xmlns="http://www.w3.org/2000/svg">
<g clip-path="url(#clip0_2109_171766)">
<path d="M30.3301 87.6016H114.114V92.9158H30.3301V87.6016Z" fill="black" stroke="black" stroke-width="0.320874"/>
<path d="M2.25225 92.3984H147.598L149.85 94.2842V94.7984L150 141.598L147.598 144.17H2.25225H1.35135L0 141.941V94.627L2.25225 92.3984Z" fill="white" stroke="black" stroke-width="0.320874"/>
<path d="M23.8737 0H118.769L121.471 2.91429L123.724 84.3429L123.573 85.3714L121.321 87.4286H21.4713H20.8707L18.7686 84.3429L21.171 3.08571L23.8737 0Z" fill="white" stroke="black" stroke-width="0.320874"/>
<path d="M19.0687 103.883H131.831L135.435 105.083L146.396 139.54L143.543 140.911H7.357L4.6543 139.711L15.4651 105.083L19.0687 103.883Z" fill="white" stroke="black" stroke-width="0.320874"/>
<path d="M7.35774 150H142.793L146.547 148.285V139.543L146.096 139.714L145.496 140.057L144.895 140.4L144.295 140.571L143.694 140.743H142.943H8.10849H7.35774L6.75714 140.4L6.15653 140.228L5.55593 139.885L5.10548 139.543L4.65503 139.371L4.50488 147.943L7.35774 150Z" fill="#ABABAB" stroke="black" stroke-width="0.320874"/>
<path d="M36.6368 11.8281H105.856L106.457 11.9996L106.907 12.3424L107.358 12.8567L107.658 13.371L107.808 14.0567L109.61 74.3996L109.46 75.0853L109.159 75.771L108.859 76.2853L108.258 76.6281L107.658 76.7996H34.9852H34.3846L33.9341 76.4567L33.4837 75.9424L33.1834 75.2567L33.0332 74.571L34.835 14.2281V13.7138L35.2855 13.0281L35.5858 12.5138L36.1864 12.171L36.6368 11.8281Z" fill="#ABABAB" stroke="black" stroke-width="0.320874"/>
<path d="M39.64 14.0547H103.754L104.205 14.2261L104.655 14.569L105.256 15.2547L105.556 15.769L105.706 16.2833L107.057 71.1404V71.8261L106.757 72.3404L106.307 72.8547L105.856 73.1975L105.256 73.369H37.9883L37.3877 73.1975L36.9373 72.8547L36.4868 72.169L36.3367 71.6547L36.1865 71.1404L37.8382 16.2833L37.9883 15.769L38.1385 15.2547L38.5889 14.7404L39.1895 14.2261L39.64 14.0547Z" fill="black" stroke="black" stroke-width="0.320874"/>
<path d="M40.0901 16.6289H103.153L104.054 71.1432H39.0391L40.0901 16.6289Z" fill="#00FFFF" stroke="black" stroke-width="0.320874"/>
<path d="M42.9434 22.8008H61.1115V41.4865H42.9434V22.8008Z" fill="#00FFFF" stroke="black" stroke-width="0.320874"/>
<path d="M42.9434 22.8008H61.1115V25.2008H42.9434V22.8008Z" fill="#0000FF" stroke="black" stroke-width="0.320874"/>
<path d="M41.1416 17.8281H102.403V20.571H41.1416V17.8281Z" fill="#0000FF" stroke="black" stroke-width="0.320874"/>
<path d="M54.6543 38.2305H76.5762V57.0876H54.6543V38.2305Z" fill="#00FFFF" stroke="black" stroke-width="0.320874"/>
<path d="M54.6543 38.5703H76.5762V41.1417H54.6543V38.5703Z" fill="#0000FF" stroke="black" stroke-width="0.320874"/>
<path d="M96.8468 47.3125H71.3213V69.7696H96.8468V47.3125Z" fill="#00FFFF" stroke="black" stroke-width="0.320874"/>
<path d="M96.8468 47.4844H71.3213V50.0558H96.8468V47.4844Z" fill="#0000FF" stroke="black" stroke-width="0.320874"/>
<path d="M84.9854 96.8594H135.286V101.317" stroke="black" stroke-width="0.320874"/>
<path d="M16.5166 131.141H134.384L127.478 107.141H23.1232L16.5166 131.141Z" fill="black" stroke="black" stroke-width="0.320874"/>
<path d="M19.6699 129.945H130.18L124.925 108.859H25.3756L19.6699 129.945Z" fill="white" stroke="black" stroke-width="0.320874"/>
<path d="M24.1738 112.629H127.027" stroke="black" stroke-width="0.320874"/>
<path d="M128.979 118.457H22.5225" stroke="black" stroke-width="0.320874"/>
<path d="M21.0215 124.969H130.481" stroke="black" stroke-width="0.320874"/>
<path d="M26.126 129.945L30.6305 108.859" stroke="black" stroke-width="0.320874"/>
<path d="M31.832 129.945L36.3365 108.859" stroke="black" stroke-width="0.320874"/>
<path d="M37.5371 129.945L40.6903 108.859" stroke="black" stroke-width="0.320874"/>
<path d="M43.3936 129.945L46.5467 108.859" stroke="black" stroke-width="0.320874"/>
<path d="M49.0986 129.945L50.9004 108.859" stroke="black" stroke-width="0.320874"/>
<path d="M54.8047 129.945L56.6065 108.859" stroke="black" stroke-width="0.320874"/>
<path d="M60.5107 129.945L61.4116 108.859" stroke="black" stroke-width="0.320874"/>
<path d="M66.2158 129.945L66.8164 108.859" stroke="black" stroke-width="0.320874"/>
<path d="M71.9219 129.945V108.859" stroke="black" stroke-width="0.320874"/>
<path d="M77.7774 129.945L77.1768 108.859" stroke="black" stroke-width="0.320874"/>
<path d="M83.4839 129.945L82.583 108.859" stroke="black" stroke-width="0.320874"/>
<path d="M89.1892 129.945L87.8379 108.859" stroke="black" stroke-width="0.320874"/>
<path d="M94.8948 129.945L93.2432 108.859" stroke="black" stroke-width="0.320874"/>
<path d="M100.6 129.945L98.6484 108.859" stroke="black" stroke-width="0.320874"/>
<path d="M106.456 129.945L103.453 108.859" stroke="black" stroke-width="0.320874"/>
<path d="M112.162 129.945L108.408 108.859" stroke="black" stroke-width="0.320874"/>
<path d="M117.868 129.945L113.813 108.859" stroke="black" stroke-width="0.320874"/>
<path d="M123.574 129.945L119.52 108.859" stroke="black" stroke-width="0.320874"/>
</g>
<defs>
<clipPath id="clip0_2109_171766">
<rect width="150" height="150" fill="white"/>
</clipPath>
</defs>
</svg>
