<svg width="150" height="150" viewBox="0 0 150 150" fill="none" xmlns="http://www.w3.org/2000/svg">
<g clip-path="url(#clip0_2109_172036)">
<path d="M0 62.25H150V149.999H0V62.25Z" fill="#7F7F7F" stroke="black" stroke-width="0.324986"/>
<path d="M6.15625 69.4609H143.694V142.79H6.15625V69.4609Z" fill="#E5E5E5" stroke="black" stroke-width="0.324986"/>
<path d="M51.502 62.2515V18.2891" stroke="black" stroke-width="0.324986"/>
<path d="M51.502 19.6964C52.1654 19.6964 52.7032 19.0666 52.7032 18.2896C52.7032 17.5127 52.1654 16.8828 51.502 16.8828C50.8386 16.8828 50.3008 17.5127 50.3008 18.2896C50.3008 19.0666 50.8386 19.6964 51.502 19.6964Z" fill="black" stroke="black" stroke-width="0.324986"/>
<path d="M48.3485 25.6737L47.5977 25.1462L46.847 24.4428L46.0962 23.5635L45.6458 22.6843L45.1953 21.6292L44.895 20.5741L44.5947 19.519V18.288V17.2329L44.895 16.002L45.1953 14.9469L45.6458 14.0676L46.0962 13.0125L46.847 12.3091L47.5977 11.6057L48.3485 10.9023" stroke="black" stroke-width="0.324986"/>
<path d="M47.447 31.1232L45.7953 30.244L44.2938 29.1889L43.0926 27.7821L42.0416 26.1994L41.1407 24.4409L40.5401 22.5066L40.0896 20.3964L39.9395 18.2862L40.0896 16.3518L40.5401 14.2416L41.1407 12.4831L41.8914 10.7246L42.9425 9.142L44.2938 7.7352L45.6452 6.50425L47.1467 5.625" stroke="black" stroke-width="0.324986"/>
<path d="M46.9969 36.7526L45.6455 36.2251L44.4443 35.6975L43.3933 34.9941L41.2912 33.2356L39.3392 31.1254L37.8377 28.6635L37.2371 27.4326L36.6365 26.0258L36.1861 24.4431L35.7356 23.0363L35.4353 21.4537L35.2852 18.2884L35.4353 15.2989L35.7356 13.7163L36.0359 12.3095L37.087 9.4959L38.4383 7.034L40.09 4.74795L40.9909 3.69285L42.0419 2.63775L43.093 1.93435L44.2942 1.0551L45.4954 0.3517L46.6966 0" stroke="black" stroke-width="0.324986"/>
<path d="M54.8047 25.6737L55.5554 25.1462L56.3062 24.4428L57.0569 23.5635L57.5074 22.6843L57.9578 21.6292L58.2581 20.5741L58.5584 19.519V18.288V17.2329L58.2581 16.002L57.9578 14.9469L57.5074 14.0676L57.0569 13.0125L56.3062 12.3091L55.5554 11.6057L54.8047 10.9023" stroke="black" stroke-width="0.324986"/>
<path d="M55.7061 31.1232L57.3577 30.244L58.8592 29.1889L60.0604 27.7821L61.1115 26.1994L62.0124 24.4409L62.613 22.5066L63.0634 20.3964L63.2136 18.2862L63.0634 16.3518L62.613 14.2416L62.0124 12.4831L61.2616 10.7246L60.2106 9.142L58.8592 7.7352L57.5079 6.50425L56.0064 5.625" stroke="black" stroke-width="0.324986"/>
<path d="M56.1562 36.7526L57.5076 36.2251L58.7088 35.6975L59.7599 34.9941L61.862 33.2356L63.8139 31.1254L65.3154 28.6635L65.916 27.4326L66.5166 26.0258L66.9671 24.4431L67.4175 23.0363L67.7178 21.4537L67.868 18.2884L67.7178 15.2989L67.4175 13.7163L67.1172 12.3095L66.0662 9.4959L64.7148 7.034L63.0632 4.74795L62.1623 3.69285L61.1112 2.63775L60.0602 1.93435L58.859 1.0551L57.6578 0.3517L56.4566 0" stroke="black" stroke-width="0.324986"/>
</g>
<defs>
<clipPath id="clip0_2109_172036">
<rect width="150" height="150" fill="white"/>
</clipPath>
</defs>
</svg>
