<svg width="150" height="150" viewBox="0 0 150 150" fill="none" xmlns="http://www.w3.org/2000/svg">
<g clip-path="url(#clip0_2109_172436)">
<path d="M28.2285 4.95444V4.44191V4.10023V3.5877L30.9312 0H31.2315H31.682H31.9823H116.066L118.919 0.683371L119.82 3.41686V3.92938V4.44191V80.1253L118.469 84.738L117.568 84.9089H117.117H116.517H32.2826L28.5288 82.8588L28.2285 77.9043V4.95444Z" fill="#C1C1C1" stroke="black" stroke-width="0.320325"/>
<path d="M51.2012 84.9062H96.997V90.3732H51.2012V84.9062Z" fill="#828282" stroke="black" stroke-width="0.320325"/>
<path d="M35.2852 16.0584V15.5459V14.8625V14.35L36.4864 9.90809L38.138 9.56641H38.4383H38.8888H109.459L112.763 12.8124L112.913 15.0334V65.6029V66.4571V66.7988V67.1404L112.763 69.1906L112.162 69.7031L107.808 70.0448H39.7897L39.3392 70.2156H38.8888L35.2852 67.8238V63.5527V16.0584Z" fill="#000066" stroke="black" stroke-width="0.320325"/>
<path d="M28.2285 102.676H119.82V98.4046L96.9973 90.375H51.2015L28.2285 98.4046V102.676Z" fill="#C1C1C1" stroke="black" stroke-width="0.320325"/>
<path d="M111.861 75.1719V81.3222H89.9395V75.1719H111.861Z" fill="#828282" stroke="black" stroke-width="0.320325"/>
<path d="M28.2285 98.4062H119.82" stroke="black" stroke-width="0.320325"/>
<path d="M5.1051 111.391L0 144.534H149.85L137.988 111.391H5.1051Z" fill="white" stroke="black" stroke-width="0.320325"/>
<path d="M93.093 113.609L92.6426 118.735H98.1981L97.7477 113.609H93.093Z" fill="#C1C1C1" stroke="black" stroke-width="0.320325"/>
<path d="M93.3931 112.07L93.0928 113.608H97.7474L97.4471 112.07H93.3931Z" fill="white" stroke="black" stroke-width="0.320325"/>
<path d="M98.9492 113.609L98.3486 118.735H104.054L103.454 113.609H98.9492Z" fill="#C1C1C1" stroke="black" stroke-width="0.320325"/>
<path d="M99.2495 112.07L98.9492 113.608H103.454L103.153 112.07H99.2495Z" fill="white" stroke="black" stroke-width="0.320325"/>
<path d="M104.654 113.609L104.054 118.735H109.759L109.159 113.609H104.654Z" fill="#C1C1C1" stroke="black" stroke-width="0.320325"/>
<path d="M104.955 112.07L104.654 113.608H109.159L108.859 112.07H104.955Z" fill="white" stroke="black" stroke-width="0.320325"/>
<path d="M79.2796 113.609L78.8291 118.735H84.5348L83.9342 113.609H79.2796Z" fill="#C1C1C1" stroke="black" stroke-width="0.320325"/>
<path d="M79.7297 112.07L79.2793 113.608H83.934L83.6337 112.07H79.7297Z" fill="white" stroke="black" stroke-width="0.320325"/>
<path d="M85.1348 113.609L84.5342 118.735H90.2399L89.6393 113.609H85.1348Z" fill="#C1C1C1" stroke="black" stroke-width="0.320325"/>
<path d="M85.4351 112.07L85.1348 113.608H89.6393L89.4891 112.07H85.4351Z" fill="white" stroke="black" stroke-width="0.320325"/>
<path d="M73.7236 113.609L73.123 118.735H78.8288L78.2282 113.609H73.7236Z" fill="#C1C1C1" stroke="black" stroke-width="0.320325"/>
<path d="M73.8738 112.07L73.7236 113.608H78.2281L77.9278 112.07H73.8738Z" fill="white" stroke="black" stroke-width="0.320325"/>
<path d="M68.0186 113.609L67.418 118.735H73.1237L72.5231 113.609H68.0186Z" fill="#C1C1C1" stroke="black" stroke-width="0.320325"/>
<path d="M68.3179 112.07L68.0176 113.608H72.5221L72.2218 112.07H68.3179Z" fill="white" stroke="black" stroke-width="0.320325"/>
<path d="M43.0928 113.609L42.4922 118.735H48.1979L47.7474 113.609H43.0928Z" fill="#C1C1C1" stroke="black" stroke-width="0.320325"/>
<path d="M43.3931 112.07L43.0928 113.608H47.7474L47.4471 112.07H43.3931Z" fill="white" stroke="black" stroke-width="0.320325"/>
<path d="M60.21 113.609L59.6094 118.735H65.3151L64.7145 113.609H60.21Z" fill="#C1C1C1" stroke="black" stroke-width="0.320325"/>
<path d="M60.5103 112.07L60.21 113.608H64.7145L64.4142 112.07H60.5103Z" fill="white" stroke="black" stroke-width="0.320325"/>
<path d="M48.7988 113.609L48.1982 118.735H53.9039L53.3033 113.609H48.7988Z" fill="#C1C1C1" stroke="black" stroke-width="0.320325"/>
<path d="M49.0991 112.07L48.7988 113.608H53.3033L53.003 112.07H49.0991Z" fill="white" stroke="black" stroke-width="0.320325"/>
<path d="M54.5049 113.609L53.9043 118.735H59.61L59.0094 113.609H54.5049Z" fill="#C1C1C1" stroke="black" stroke-width="0.320325"/>
<path d="M54.8052 112.07L54.5049 113.608H59.0094L58.7091 112.07H54.8052Z" fill="white" stroke="black" stroke-width="0.320325"/>
<path d="M35.7354 113.609L35.1348 118.735H40.8405L40.2399 113.609H35.7354Z" fill="#C1C1C1" stroke="black" stroke-width="0.320325"/>
<path d="M36.0357 112.07L35.7354 113.608H40.2399L39.9396 112.07H36.0357Z" fill="white" stroke="black" stroke-width="0.320325"/>
<path d="M24.3242 113.609L23.7236 118.735H29.4293L28.9789 113.609H24.3242Z" fill="#C1C1C1" stroke="black" stroke-width="0.320325"/>
<path d="M24.6245 112.07L24.3242 113.608H28.9789L28.5284 112.07H24.6245Z" fill="white" stroke="black" stroke-width="0.320325"/>
<path d="M18.6184 113.609L18.168 118.735H23.7235L23.2731 113.609H18.6184Z" fill="#C1C1C1" stroke="black" stroke-width="0.320325"/>
<path d="M18.9194 112.07L18.6191 113.608H23.2738L22.9735 112.07H18.9194Z" fill="white" stroke="black" stroke-width="0.320325"/>
<path d="M30.0303 113.609L29.4297 118.735H35.1354L34.5348 113.609H30.0303Z" fill="#C1C1C1" stroke="black" stroke-width="0.320325"/>
<path d="M30.3306 112.07L30.0303 113.608H34.5348L34.2345 112.07H30.3306Z" fill="white" stroke="black" stroke-width="0.320325"/>
<path d="M8.40846 113.609L7.95801 118.735H13.5136L13.0631 113.609H8.40846Z" fill="#C1C1C1" stroke="black" stroke-width="0.320325"/>
<path d="M43.0928 118.906L42.4922 124.032H48.1979L47.7474 118.906H43.0928Z" fill="#C1C1C1" stroke="black" stroke-width="0.320325"/>
<path d="M43.3931 117.539L43.0928 118.906H47.7474L47.4471 117.539H43.3931Z" fill="white" stroke="black" stroke-width="0.320325"/>
<path d="M82.8828 118.906L82.2822 124.032H87.9879L87.3873 118.906H82.8828Z" fill="#C1C1C1" stroke="black" stroke-width="0.320325"/>
<path d="M83.1831 117.539L82.8828 118.906H87.3873L87.2372 117.539H83.1831Z" fill="white" stroke="black" stroke-width="0.320325"/>
<path d="M37.387 118.906L36.9365 124.032H42.4921L42.0416 118.906H37.387Z" fill="#C1C1C1" stroke="black" stroke-width="0.320325"/>
<path d="M37.688 117.539L37.3877 118.906H42.0423L41.742 117.539H37.688Z" fill="white" stroke="black" stroke-width="0.320325"/>
<path d="M48.7988 118.906L48.1982 124.032H53.9039L53.3033 118.906H48.7988Z" fill="#C1C1C1" stroke="black" stroke-width="0.320325"/>
<path d="M49.0991 117.539L48.7988 118.906H53.3033L53.003 117.539H49.0991Z" fill="white" stroke="black" stroke-width="0.320325"/>
<path d="M65.916 118.906L65.3154 124.032H71.0211L70.4205 118.906H65.916Z" fill="#C1C1C1" stroke="black" stroke-width="0.320325"/>
<path d="M66.0662 117.539L65.916 118.906H70.4205L70.1202 117.539H66.0662Z" fill="white" stroke="black" stroke-width="0.320325"/>
<path d="M9.0088 118.906L8.4082 124.032H14.1139L13.5133 118.906H9.0088Z" fill="#C1C1C1" stroke="black" stroke-width="0.320325"/>
<path d="M9.30909 117.539L9.00879 118.906H13.5133L13.213 117.539H9.30909Z" fill="white" stroke="black" stroke-width="0.320325"/>
<path d="M54.5049 118.906L53.9043 124.032H59.61L59.0094 118.906H54.5049Z" fill="#C1C1C1" stroke="black" stroke-width="0.320325"/>
<path d="M54.8052 117.539L54.5049 118.906H59.0094L58.7091 117.539H54.8052Z" fill="white" stroke="black" stroke-width="0.320325"/>
<path d="M60.21 118.906L59.6094 124.032H65.3151L64.7145 118.906H60.21Z" fill="#C1C1C1" stroke="black" stroke-width="0.320325"/>
<path d="M60.5103 117.539L60.21 118.906H64.7145L64.4142 117.539H60.5103Z" fill="white" stroke="black" stroke-width="0.320325"/>
<path d="M25.9758 118.906L25.5254 124.032H31.2311L30.6305 118.906H25.9758Z" fill="#C1C1C1" stroke="black" stroke-width="0.320325"/>
<path d="M26.426 117.539L25.9756 118.906H30.6302L30.3299 117.539H26.426Z" fill="white" stroke="black" stroke-width="0.320325"/>
<path d="M20.4209 118.906L19.8203 124.032H25.526L24.9254 118.906H20.4209Z" fill="#C1C1C1" stroke="black" stroke-width="0.320325"/>
<path d="M20.7202 117.539L20.4199 118.906H24.9244L24.6241 117.539H20.7202Z" fill="white" stroke="black" stroke-width="0.320325"/>
<path d="M77.1768 118.906L76.5762 124.032H82.2819L81.6813 118.906H77.1768Z" fill="#C1C1C1" stroke="black" stroke-width="0.320325"/>
<path d="M77.4771 117.539L77.1768 118.906H81.6813L81.5311 117.539H77.4771Z" fill="white" stroke="black" stroke-width="0.320325"/>
<path d="M31.6819 118.906L31.2314 124.032H36.9372L36.3366 118.906H31.6819Z" fill="#C1C1C1" stroke="black" stroke-width="0.320325"/>
<path d="M31.9819 117.539L31.6816 118.906H36.3363L36.036 117.539H31.9819Z" fill="white" stroke="black" stroke-width="0.320325"/>
<path d="M14.7149 118.906L14.1143 124.032H19.82L19.2194 118.906H14.7149Z" fill="#C1C1C1" stroke="black" stroke-width="0.320325"/>
<path d="M15.0151 117.539L14.7148 118.906H19.2193L18.919 117.539H15.0151Z" fill="white" stroke="black" stroke-width="0.320325"/>
<path d="M71.4719 118.906L71.0215 124.032H76.577L76.1266 118.906H71.4719Z" fill="#C1C1C1" stroke="black" stroke-width="0.320325"/>
<path d="M71.772 117.539L71.4717 118.906H76.1263L75.826 117.539H71.772Z" fill="white" stroke="black" stroke-width="0.320325"/>
<path d="M45.3457 121.469L44.7451 126.594H50.4508L50.0004 121.469H45.3457Z" fill="#C1C1C1" stroke="black" stroke-width="0.320325"/>
<path d="M45.646 119.934L45.3457 121.471H50.0004L49.7001 119.934H45.646Z" fill="white" stroke="black" stroke-width="0.320325"/>
<path d="M85.1348 121.469L84.5342 126.594H90.2399L89.6393 121.469H85.1348Z" fill="#C1C1C1" stroke="black" stroke-width="0.320325"/>
<path d="M85.4351 119.934L85.1348 121.471H89.6393L89.4891 119.934H85.4351Z" fill="white" stroke="black" stroke-width="0.320325"/>
<path d="M39.6397 121.469L39.0391 126.594H44.7448L44.2943 121.469H39.6397Z" fill="#C1C1C1" stroke="black" stroke-width="0.320325"/>
<path d="M39.9399 119.934L39.6396 121.471H44.2943L43.994 119.934H39.9399Z" fill="white" stroke="black" stroke-width="0.320325"/>
<path d="M51.0508 121.469L50.4502 126.594H56.1559L55.7055 121.469H51.0508Z" fill="#C1C1C1" stroke="black" stroke-width="0.320325"/>
<path d="M51.3511 119.934L51.0508 121.471H55.7054L55.255 119.934H51.3511Z" fill="white" stroke="black" stroke-width="0.320325"/>
<path d="M68.168 121.469L67.5674 126.594H73.2731L72.6725 121.469H68.168Z" fill="#C1C1C1" stroke="black" stroke-width="0.320325"/>
<path d="M68.4683 119.934L68.168 121.471H72.6725L72.3722 119.934H68.4683Z" fill="white" stroke="black" stroke-width="0.320325"/>
<path d="M11.2608 121.469L10.6602 126.594H16.3659L15.7653 121.469H11.2608Z" fill="#C1C1C1" stroke="black" stroke-width="0.320325"/>
<path d="M11.562 119.934L11.2617 121.471H15.7662L15.4659 119.934H11.562Z" fill="white" stroke="black" stroke-width="0.320325"/>
<path d="M56.7569 121.469L56.1562 126.594H61.862L61.2614 121.469H56.7569Z" fill="#C1C1C1" stroke="black" stroke-width="0.320325"/>
<path d="M57.0571 119.934L56.7568 121.471H61.2613L60.961 119.934H57.0571Z" fill="white" stroke="black" stroke-width="0.320325"/>
<path d="M62.4619 121.469L61.8613 126.594H67.567L66.9664 121.469H62.4619Z" fill="#C1C1C1" stroke="black" stroke-width="0.320325"/>
<path d="M62.7632 119.934L62.4629 121.471H66.9674L66.6671 119.934H62.7632Z" fill="white" stroke="black" stroke-width="0.320325"/>
<path d="M28.3779 121.469L27.7773 126.594H33.483L32.8824 121.469H28.3779Z" fill="#C1C1C1" stroke="black" stroke-width="0.320325"/>
<path d="M28.5281 119.934L28.3779 121.471H32.8824L32.5821 119.934H28.5281Z" fill="white" stroke="black" stroke-width="0.320325"/>
<path d="M22.6729 121.469L22.0723 126.594H27.778L27.1774 121.469H22.6729Z" fill="#C1C1C1" stroke="black" stroke-width="0.320325"/>
<path d="M22.9732 119.934L22.6729 121.471H27.1774L26.8771 119.934H22.9732Z" fill="white" stroke="black" stroke-width="0.320325"/>
<path d="M79.429 121.469L78.9785 126.594H84.5341L83.9335 121.469H79.429Z" fill="#C1C1C1" stroke="black" stroke-width="0.320325"/>
<path d="M79.73 119.934L79.4297 121.471H83.9342L83.784 119.934H79.73Z" fill="white" stroke="black" stroke-width="0.320325"/>
<path d="M33.9338 121.469L33.4834 126.594H39.039L38.5885 121.469H33.9338Z" fill="#C1C1C1" stroke="black" stroke-width="0.320325"/>
<path d="M34.2339 119.934L33.9336 121.471H38.5882L38.2879 119.934H34.2339Z" fill="white" stroke="black" stroke-width="0.320325"/>
<path d="M16.9668 121.469L16.3662 126.594H22.0719L21.4713 121.469H16.9668Z" fill="#C1C1C1" stroke="black" stroke-width="0.320325"/>
<path d="M17.2671 119.934L16.9668 121.471H21.4713L21.171 119.934H17.2671Z" fill="white" stroke="black" stroke-width="0.320325"/>
<path d="M73.7239 121.469L73.2734 126.594H78.9791L78.3785 121.469H73.7239Z" fill="#C1C1C1" stroke="black" stroke-width="0.320325"/>
<path d="M74.0239 119.934L73.7236 121.471H78.3783L78.078 119.934H74.0239Z" fill="white" stroke="black" stroke-width="0.320325"/>
<path d="M43.0928 124.547L42.4922 129.843H48.1979L47.7474 124.547H43.0928Z" fill="#C1C1C1" stroke="black" stroke-width="0.320325"/>
<path d="M43.3931 123.176L43.0928 124.543H47.7474L47.4471 123.176H43.3931Z" fill="white" stroke="black" stroke-width="0.320325"/>
<path d="M82.8828 124.547L82.2822 129.843H87.9879L87.3873 124.547H82.8828Z" fill="#C1C1C1" stroke="black" stroke-width="0.320325"/>
<path d="M83.1831 123.176L82.8828 124.543H87.3873L87.2372 123.176H83.1831Z" fill="white" stroke="black" stroke-width="0.320325"/>
<path d="M37.387 124.547L36.9365 129.843H42.4921L42.0416 124.547H37.387Z" fill="#C1C1C1" stroke="black" stroke-width="0.320325"/>
<path d="M37.688 123.176L37.3877 124.543H42.0423L41.742 123.176H37.688Z" fill="white" stroke="black" stroke-width="0.320325"/>
<path d="M48.7988 124.547L48.1982 129.843H53.9039L53.3033 124.547H48.7988Z" fill="#C1C1C1" stroke="black" stroke-width="0.320325"/>
<path d="M49.0991 123.176L48.7988 124.543H53.3033L53.003 123.176H49.0991Z" fill="white" stroke="black" stroke-width="0.320325"/>
<path d="M65.916 124.547L65.3154 129.843H71.0211L70.4205 124.547H65.916Z" fill="#C1C1C1" stroke="black" stroke-width="0.320325"/>
<path d="M66.0662 123.176L65.916 124.543H70.4205L70.1202 123.176H66.0662Z" fill="white" stroke="black" stroke-width="0.320325"/>
<path d="M9.0088 124.547L8.4082 129.843H14.1139L13.5133 124.547H9.0088Z" fill="#C1C1C1" stroke="black" stroke-width="0.320325"/>
<path d="M9.30909 123.176L9.00879 124.543H13.5133L13.213 123.176H9.30909Z" fill="white" stroke="black" stroke-width="0.320325"/>
<path d="M54.5049 124.547L53.9043 129.843H59.61L59.0094 124.547H54.5049Z" fill="#C1C1C1" stroke="black" stroke-width="0.320325"/>
<path d="M54.8052 123.176L54.5049 124.543H59.0094L58.7091 123.176H54.8052Z" fill="white" stroke="black" stroke-width="0.320325"/>
<path d="M60.21 124.547L59.6094 129.843H65.3151L64.7145 124.547H60.21Z" fill="#C1C1C1" stroke="black" stroke-width="0.320325"/>
<path d="M60.5103 123.176L60.21 124.543H64.7145L64.4142 123.176H60.5103Z" fill="white" stroke="black" stroke-width="0.320325"/>
<path d="M25.9758 124.547L25.5254 129.843H31.2311L30.6305 124.547H25.9758Z" fill="#C1C1C1" stroke="black" stroke-width="0.320325"/>
<path d="M26.426 123.176L25.9756 124.543H30.6302L30.3299 123.176H26.426Z" fill="white" stroke="black" stroke-width="0.320325"/>
<path d="M20.4209 124.547L19.8203 129.843H25.526L24.9254 124.547H20.4209Z" fill="#C1C1C1" stroke="black" stroke-width="0.320325"/>
<path d="M20.7212 123.176L20.4209 124.543H24.9254L24.6251 123.176H20.7212Z" fill="white" stroke="black" stroke-width="0.320325"/>
<path d="M77.1768 124.547L76.5762 129.843H82.2819L81.6813 124.547H77.1768Z" fill="#C1C1C1" stroke="black" stroke-width="0.320325"/>
<path d="M77.4771 123.176L77.1768 124.543H81.6813L81.5311 123.176H77.4771Z" fill="white" stroke="black" stroke-width="0.320325"/>
<path d="M31.6819 124.547L31.2314 129.843H36.9372L36.3366 124.547H31.6819Z" fill="#C1C1C1" stroke="black" stroke-width="0.320325"/>
<path d="M31.9819 123.176L31.6816 124.543H36.3363L36.036 123.176H31.9819Z" fill="white" stroke="black" stroke-width="0.320325"/>
<path d="M14.7149 124.547L14.1143 129.843H19.82L19.2194 124.547H14.7149Z" fill="#C1C1C1" stroke="black" stroke-width="0.320325"/>
<path d="M15.0151 123.176L14.7148 124.543H19.2193L18.919 123.176H15.0151Z" fill="white" stroke="black" stroke-width="0.320325"/>
<path d="M71.4719 124.547L71.0215 129.843H76.577L76.1266 124.547H71.4719Z" fill="#C1C1C1" stroke="black" stroke-width="0.320325"/>
<path d="M71.772 123.176L71.4717 124.543H76.1263L75.826 123.176H71.772Z" fill="white" stroke="black" stroke-width="0.320325"/>
<path d="M45.3457 128.305L44.7451 133.43H50.4508L50.0004 128.305H45.3457Z" fill="#C1C1C1" stroke="black" stroke-width="0.320325"/>
<path d="M45.646 126.766L45.3457 128.303H50.0004L49.7001 126.766H45.646Z" fill="white" stroke="black" stroke-width="0.320325"/>
<path d="M85.1348 128.305L84.5342 133.43H90.2399L89.6393 128.305H85.1348Z" fill="#C1C1C1" stroke="black" stroke-width="0.320325"/>
<path d="M85.4351 126.766L85.1348 128.303H89.6393L89.4891 126.766H85.4351Z" fill="white" stroke="black" stroke-width="0.320325"/>
<path d="M39.6397 128.305L39.0391 133.43H44.7448L44.2943 128.305H39.6397Z" fill="#C1C1C1" stroke="black" stroke-width="0.320325"/>
<path d="M39.9399 126.766L39.6396 128.303H44.2943L43.994 126.766H39.9399Z" fill="white" stroke="black" stroke-width="0.320325"/>
<path d="M51.0508 128.305L50.4502 133.43H56.1559L55.7055 128.305H51.0508Z" fill="#C1C1C1" stroke="black" stroke-width="0.320325"/>
<path d="M51.3511 126.766L51.0508 128.303H55.7054L55.255 126.766H51.3511Z" fill="white" stroke="black" stroke-width="0.320325"/>
<path d="M68.168 128.305L67.5674 133.43H73.2731L72.6725 128.305H68.168Z" fill="#C1C1C1" stroke="black" stroke-width="0.320325"/>
<path d="M68.4683 126.766L68.168 128.303H72.6725L72.3722 126.766H68.4683Z" fill="white" stroke="black" stroke-width="0.320325"/>
<path d="M11.2617 128.305L10.6611 133.43H16.3668L15.7662 128.305H11.2617Z" fill="#C1C1C1" stroke="black" stroke-width="0.320325"/>
<path d="M11.562 126.766L11.2617 128.303H15.7662L15.4659 126.766H11.562Z" fill="white" stroke="black" stroke-width="0.320325"/>
<path d="M56.7569 128.305L56.1562 133.43H61.862L61.2614 128.305H56.7569Z" fill="#C1C1C1" stroke="black" stroke-width="0.320325"/>
<path d="M57.0571 126.766L56.7568 128.303H61.2613L60.961 126.766H57.0571Z" fill="white" stroke="black" stroke-width="0.320325"/>
<path d="M62.4629 128.305L61.8623 133.43H67.568L66.9674 128.305H62.4629Z" fill="#C1C1C1" stroke="black" stroke-width="0.320325"/>
<path d="M62.7632 126.766L62.4629 128.303H66.9674L66.6671 126.766H62.7632Z" fill="white" stroke="black" stroke-width="0.320325"/>
<path d="M28.3779 128.305L27.7773 133.43H33.483L32.8824 128.305H28.3779Z" fill="#C1C1C1" stroke="black" stroke-width="0.320325"/>
<path d="M28.5291 126.766L28.3789 128.303H32.8834L32.5831 126.766H28.5291Z" fill="white" stroke="black" stroke-width="0.320325"/>
<path d="M22.6729 128.305L22.0723 133.43H27.778L27.1774 128.305H22.6729Z" fill="#C1C1C1" stroke="black" stroke-width="0.320325"/>
<path d="M22.9732 126.766L22.6729 128.303H27.1774L26.8771 126.766H22.9732Z" fill="white" stroke="black" stroke-width="0.320325"/>
<path d="M79.429 128.305L78.9785 133.43H84.5341L83.9335 128.305H79.429Z" fill="#C1C1C1" stroke="black" stroke-width="0.320325"/>
<path d="M79.73 126.766L79.4297 128.303H83.9342L83.784 126.766H79.73Z" fill="white" stroke="black" stroke-width="0.320325"/>
<path d="M33.9338 128.305L33.4834 133.43H39.039L38.5885 128.305H33.9338Z" fill="#C1C1C1" stroke="black" stroke-width="0.320325"/>
<path d="M34.2339 126.766L33.9336 128.303H38.5882L38.2879 126.766H34.2339Z" fill="white" stroke="black" stroke-width="0.320325"/>
<path d="M16.9668 128.305L16.3662 133.43H22.0719L21.4713 128.305H16.9668Z" fill="#C1C1C1" stroke="black" stroke-width="0.320325"/>
<path d="M17.2671 126.766L16.9668 128.303H21.4713L21.171 126.766H17.2671Z" fill="white" stroke="black" stroke-width="0.320325"/>
<path d="M73.7239 128.305L73.2734 133.43H78.9791L78.3785 128.305H73.7239Z" fill="#C1C1C1" stroke="black" stroke-width="0.320325"/>
<path d="M74.0239 126.766L73.7236 128.303H78.3783L78.078 126.766H74.0239Z" fill="white" stroke="black" stroke-width="0.320325"/>
<path d="M84.5342 133.258L83.9336 138.383H89.6393L89.1888 133.258H84.5342Z" fill="#C1C1C1" stroke="black" stroke-width="0.320325"/>
<path d="M84.8345 131.719L84.5342 133.256H89.1888L88.8885 131.719H84.8345Z" fill="white" stroke="black" stroke-width="0.320325"/>
<path d="M93.8438 118.906L93.2432 124.032H98.9489L98.3483 118.906H93.8438Z" fill="#C1C1C1" stroke="black" stroke-width="0.320325"/>
<path d="M93.9939 117.539L93.8438 118.906H98.3483L98.048 117.539H93.9939Z" fill="white" stroke="black" stroke-width="0.320325"/>
<path d="M100 118.906L99.3994 124.032H105.105L104.505 118.906H100Z" fill="#C1C1C1" stroke="black" stroke-width="0.320325"/>
<path d="M100.3 117.539L100 118.906H104.505L104.354 117.539H100.3Z" fill="white" stroke="black" stroke-width="0.320325"/>
<path d="M94.8945 121.469L94.2939 126.594H99.9997L99.3991 121.469H94.8945Z" fill="#C1C1C1" stroke="black" stroke-width="0.320325"/>
<path d="M95.1948 119.934L94.8945 121.471H99.399L99.0987 119.934H95.1948Z" fill="white" stroke="black" stroke-width="0.320325"/>
<path d="M105.706 118.906L105.105 124.032H110.811L110.211 118.906H105.706Z" fill="#C1C1C1" stroke="black" stroke-width="0.320325"/>
<path d="M106.006 117.539L105.706 118.906H110.211L109.91 117.539H106.006Z" fill="white" stroke="black" stroke-width="0.320325"/>
<path d="M100.751 121.469L100.301 126.594H105.856L105.406 121.469H100.751Z" fill="#C1C1C1" stroke="black" stroke-width="0.320325"/>
<path d="M101.051 119.934L100.751 121.471H105.406L105.105 119.934H101.051Z" fill="white" stroke="black" stroke-width="0.320325"/>
<path d="M106.456 121.469L105.855 126.594H111.561L111.111 121.469H106.456Z" fill="#C1C1C1" stroke="black" stroke-width="0.320325"/>
<path d="M106.756 119.934L106.456 121.471H111.111L110.81 119.934H106.756Z" fill="white" stroke="black" stroke-width="0.320325"/>
<path d="M96.5469 133.086L95.9463 138.211H101.652L101.051 133.086H96.5469Z" fill="#C1C1C1" stroke="black" stroke-width="0.320325"/>
<path d="M96.8472 131.551L96.5469 133.088H101.051L100.751 131.551H96.8472Z" fill="white" stroke="black" stroke-width="0.320325"/>
<path d="M101.651 128.305L101.051 133.43H106.756L106.156 128.305H101.651Z" fill="#C1C1C1" stroke="black" stroke-width="0.320325"/>
<path d="M101.952 126.766L101.651 128.303H106.156L105.856 126.766H101.952Z" fill="white" stroke="black" stroke-width="0.320325"/>
<path d="M102.252 133.086L101.802 138.211H107.507L106.907 133.086H102.252Z" fill="#C1C1C1" stroke="black" stroke-width="0.320325"/>
<path d="M102.552 131.551L102.252 133.088H106.907L106.606 131.551H102.552Z" fill="white" stroke="black" stroke-width="0.320325"/>
<path d="M108.259 133.086L107.658 138.211H113.364L112.763 133.086H108.259Z" fill="#C1C1C1" stroke="black" stroke-width="0.320325"/>
<path d="M108.558 131.551L108.258 133.088H112.762L112.462 131.551H108.558Z" fill="white" stroke="black" stroke-width="0.320325"/>
<path d="M132.282 118.906L131.682 124.032H137.387L136.787 118.906H132.282Z" fill="#C1C1C1" stroke="black" stroke-width="0.320325"/>
<path d="M132.583 117.539L132.282 118.906H136.787L136.486 117.539H132.583Z" fill="white" stroke="black" stroke-width="0.320325"/>
<path d="M126.576 118.906L126.126 124.032H131.682L131.231 118.906H126.576Z" fill="#C1C1C1" stroke="black" stroke-width="0.320325"/>
<path d="M126.876 117.539L126.576 118.906H131.231L130.931 117.539H126.876Z" fill="white" stroke="black" stroke-width="0.320325"/>
<path d="M120.57 118.906L119.97 124.032H125.675L125.075 118.906H120.57Z" fill="#C1C1C1" stroke="black" stroke-width="0.320325"/>
<path d="M120.871 117.539L120.57 118.906H125.075L124.925 117.539H120.871Z" fill="white" stroke="black" stroke-width="0.320325"/>
<path d="M114.865 118.906L114.265 124.032H119.97L119.37 118.906H114.865Z" fill="#C1C1C1" stroke="black" stroke-width="0.320325"/>
<path d="M115.166 117.539L114.865 118.906H119.37L119.069 117.539H115.166Z" fill="white" stroke="black" stroke-width="0.320325"/>
<path d="M115.466 121.469L114.865 126.594H120.571L119.97 121.469H115.466Z" fill="#C1C1C1" stroke="black" stroke-width="0.320325"/>
<path d="M115.766 119.934L115.466 121.471H119.97L119.67 119.934H115.766Z" fill="white" stroke="black" stroke-width="0.320325"/>
<path d="M121.322 121.469L120.871 126.594H126.427L125.976 121.469H121.322Z" fill="#C1C1C1" stroke="black" stroke-width="0.320325"/>
<path d="M121.622 119.934L121.321 121.471H125.976L125.676 119.934H121.622Z" fill="white" stroke="black" stroke-width="0.320325"/>
<path d="M127.177 121.469L126.576 126.594H132.282L131.681 121.469H127.177Z" fill="#C1C1C1" stroke="black" stroke-width="0.320325"/>
<path d="M127.477 119.934L127.177 121.471H131.681L131.531 119.934H127.477Z" fill="white" stroke="black" stroke-width="0.320325"/>
<path d="M133.033 121.469L132.433 126.594H138.138L137.538 121.469H133.033Z" fill="#C1C1C1" stroke="black" stroke-width="0.320325"/>
<path d="M133.334 119.934L133.033 121.471H137.538L137.388 119.934H133.334Z" fill="white" stroke="black" stroke-width="0.320325"/>
<path d="M133.784 124.715L133.184 129.84H138.889L138.289 124.715H133.784Z" fill="#C1C1C1" stroke="black" stroke-width="0.320325"/>
<path d="M134.084 123.176L133.784 124.713H138.289L138.139 123.176H134.084Z" fill="white" stroke="black" stroke-width="0.320325"/>
<path d="M134.534 128.305L133.934 133.43H139.639L139.039 128.305H134.534Z" fill="#C1C1C1" stroke="black" stroke-width="0.320325"/>
<path d="M134.684 126.766L134.534 128.303H139.039L138.738 126.766H134.684Z" fill="white" stroke="black" stroke-width="0.320325"/>
<path d="M135.436 133.086L134.835 138.211H140.541L139.94 133.086H135.436Z" fill="#C1C1C1" stroke="black" stroke-width="0.320325"/>
<path d="M135.736 131.551L135.436 133.088H139.94L139.64 131.551H135.736Z" fill="white" stroke="black" stroke-width="0.320325"/>
<path d="M115.916 124.715L115.315 129.84H121.021L120.421 124.715H115.916Z" fill="#C1C1C1" stroke="black" stroke-width="0.320325"/>
<path d="M116.216 123.176L115.916 124.713H120.421L120.12 123.176H116.216Z" fill="white" stroke="black" stroke-width="0.320325"/>
<path d="M116.517 128.305L115.916 133.43H121.622L121.021 128.305H116.517Z" fill="#C1C1C1" stroke="black" stroke-width="0.320325"/>
<path d="M116.817 126.766L116.517 128.303H121.021L120.871 126.766H116.817Z" fill="white" stroke="black" stroke-width="0.320325"/>
<path d="M121.922 124.715L121.321 129.84H127.027L126.426 124.715H121.922Z" fill="#C1C1C1" stroke="black" stroke-width="0.320325"/>
<path d="M122.072 123.176L121.922 124.713H126.426L126.126 123.176H122.072Z" fill="white" stroke="black" stroke-width="0.320325"/>
<path d="M122.522 128.305L121.922 133.43H127.628L127.027 128.305H122.522Z" fill="#C1C1C1" stroke="black" stroke-width="0.320325"/>
<path d="M122.823 126.766L122.522 128.303H127.027L126.727 126.766H122.823Z" fill="white" stroke="black" stroke-width="0.320325"/>
<path d="M127.928 124.715L127.327 129.84H133.033L132.432 124.715H127.928Z" fill="#C1C1C1" stroke="black" stroke-width="0.320325"/>
<path d="M128.228 123.176L127.928 124.713H132.432L132.282 123.176H128.228Z" fill="white" stroke="black" stroke-width="0.320325"/>
<path d="M128.528 128.305L127.928 133.43H133.633L133.033 128.305H128.528Z" fill="#C1C1C1" stroke="black" stroke-width="0.320325"/>
<path d="M128.678 126.766L128.528 128.303H133.033L132.733 126.766H128.678Z" fill="white" stroke="black" stroke-width="0.320325"/>
<path d="M129.279 133.086L128.679 138.211H134.384L133.784 133.086H129.279Z" fill="#C1C1C1" stroke="black" stroke-width="0.320325"/>
<path d="M129.58 131.551L129.279 133.088H133.784L133.634 131.551H129.58Z" fill="white" stroke="black" stroke-width="0.320325"/>
<path d="M8.40846 133.258L7.95801 138.383H13.5136L13.0631 133.258H8.40846Z" fill="#C1C1C1" stroke="black" stroke-width="0.320325"/>
<path d="M8.7085 131.719L8.4082 133.256H13.0629L12.7626 131.719H8.7085Z" fill="white" stroke="black" stroke-width="0.320325"/>
<path d="M20.4209 133.258L19.8203 138.383H25.526L24.9254 133.258H20.4209Z" fill="#C1C1C1" stroke="black" stroke-width="0.320325"/>
<path d="M20.7202 131.719L20.4199 133.256H24.9244L24.6241 131.719H20.7202Z" fill="white" stroke="black" stroke-width="0.320325"/>
<path d="M78.9795 133.258L78.3789 138.383H83.9345L83.484 133.258H78.9795Z" fill="#C1C1C1" stroke="black" stroke-width="0.320325"/>
<path d="M79.1287 131.719L78.9785 133.256H83.483L83.1827 131.719H79.1287Z" fill="white" stroke="black" stroke-width="0.320325"/>
<path d="M14.1143 133.258L13.5137 138.383H19.2194L18.6188 133.258H14.1143Z" fill="#C1C1C1" stroke="black" stroke-width="0.320325"/>
<path d="M14.4146 131.719L14.1143 133.256H18.6188L18.3185 131.719H14.4146Z" fill="white" stroke="black" stroke-width="0.320325"/>
<path d="M73.2735 133.258L72.6729 138.383H78.3786L77.778 133.258H73.2735Z" fill="#C1C1C1" stroke="black" stroke-width="0.320325"/>
<path d="M73.5737 131.719L73.2734 133.256H77.7779L77.4776 131.719H73.5737Z" fill="white" stroke="black" stroke-width="0.320325"/>
<path d="M8.7085 112.242L8.4082 113.78H13.0629L12.7626 112.242H8.7085Z" fill="white" stroke="black" stroke-width="0.320325"/>
<path d="M25.9758 133.258L25.5254 138.383H72.6725L72.0719 133.258H25.9758Z" fill="#C1C1C1" stroke="black" stroke-width="0.320325"/>
<path d="M26.2759 131.719L25.9756 133.256H72.0717L70.2699 131.719H26.2759Z" fill="white" stroke="black" stroke-width="0.320325"/>
<path d="M123.123 133.086L122.673 138.211H128.379L127.628 133.086H123.123Z" fill="#C1C1C1" stroke="black" stroke-width="0.320325"/>
<path d="M123.423 131.551L123.123 133.088H127.628L127.477 131.551H123.423Z" fill="white" stroke="black" stroke-width="0.320325"/>
<path d="M117.267 133.086L116.816 138.211H122.372L121.922 133.086H117.267Z" fill="#C1C1C1" stroke="black" stroke-width="0.320325"/>
<path d="M117.568 131.551L117.268 133.088H121.922L121.622 131.551H117.568Z" fill="white" stroke="black" stroke-width="0.320325"/>
<path d="M149.85 144.531V145.215H0V144.531H149.85Z" fill="#E0E0E0"/>
<path d="M149.85 145.219V145.902H0V145.219H149.85Z" fill="#D6D6D6"/>
<path d="M149.85 145.898V146.582H0V145.898H149.85Z" fill="#CECECE"/>
<path d="M149.85 146.586V147.269H0V146.586H149.85Z" fill="#C4C4C4"/>
<path d="M149.85 147.266V147.949H0V147.266H149.85Z" fill="#BCBCBC"/>
<path d="M149.85 147.949V148.462H0V147.949H149.85Z" fill="#B5B5B5"/>
<path d="M149.85 148.461V149.144H0V148.461H149.85Z" fill="#ADADAD"/>
<path d="M149.85 149.148V149.832H0V149.148H149.85Z" fill="#A3A3A3"/>
<path d="M149.85 149.828V149.999H0V149.828H149.85Z" fill="#9B9B9B"/>
<path d="M0 144.531V149.998H149.85V144.531H0Z" stroke="black" stroke-width="0.320325"/>
</g>
<defs>
<clipPath id="clip0_2109_172436">
<rect width="150" height="150" fill="white"/>
</clipPath>
</defs>
</svg>
