<svg width="150" height="150" viewBox="0 0 150 150" fill="none" xmlns="http://www.w3.org/2000/svg">
<g clip-path="url(#clip0_2109_172141)">
<path d="M0 20.7227H150V150.002H0V20.7227Z" fill="#C1C1C1" stroke="black" stroke-width="0.520135"/>
<path d="M12.1621 24.9258H137.387V150.001H12.1621V24.9258Z" fill="#C1C1C1" stroke="black" stroke-width="0.520135"/>
<path d="M12.1621 31.2305H137.387V45.795H12.1621V31.2305Z" fill="#828282" stroke="black" stroke-width="0.520135"/>
<path d="M12.1621 45.7969H137.387V60.3614H12.1621V45.7969Z" fill="#828282" stroke="black" stroke-width="0.520135"/>
<path d="M24.7744 37.3867H124.774V39.4888H24.7744V37.3867Z" fill="black" stroke="black" stroke-width="0.520135"/>
<path d="M24.7744 50H124.774V56.1562H24.7744V50Z" fill="black" stroke="black" stroke-width="0.520135"/>
<path d="M24.7748 0H124.775L150 20.7207H0L24.7748 0Z" fill="white" stroke="black" stroke-width="0.520135"/>
<path d="M105.855 50H137.387V56.1562H105.855V50Z" fill="#C1C1C1" stroke="black" stroke-width="0.520135"/>
<path d="M118.469 50H124.775V56.1562H118.469V50Z" fill="#C1C1C1" stroke="black" stroke-width="0.520135"/>
<path d="M118.468 33.1836H93.6934V35.2857H118.468V33.1836Z" fill="#C1C1C1" stroke="black" stroke-width="0.520135"/>
<path d="M118.468 37.3878C121.951 37.3878 124.775 36.4467 124.775 35.2857C124.775 34.1247 121.951 33.1836 118.468 33.1836C114.986 33.1836 112.162 34.1247 112.162 35.2857C112.162 36.4467 114.986 37.3878 118.468 37.3878Z" fill="#C1C1C1" stroke="black" stroke-width="0.520135"/>
</g>
<defs>
<clipPath id="clip0_2109_172141">
<rect width="150" height="150" fill="white"/>
</clipPath>
</defs>
</svg>
