<svg width="150" height="150" viewBox="0 0 150 150" fill="none" xmlns="http://www.w3.org/2000/svg">
<g clip-path="url(#clip0_2109_172819)">
<path d="M0 0H150V150H0V0Z" fill="#006633"/>
<path d="M137.388 12.3242H143.694V49.5988H137.388V12.3242Z" fill="#B2B2B2"/>
<path d="M128.078 12.3242H134.384V49.5988H128.078V12.3242Z" fill="#B2B2B2"/>
<path d="M118.769 12.3242H125.075V49.5988H118.769V12.3242Z" fill="#B2B2B2"/>
<path d="M109.459 12.3242H115.465V49.5988H109.459V12.3242Z" fill="#B2B2B2"/>
<path d="M137.388 43.5864L143.694 24.9492V18.3359L137.388 36.9732V43.5864Z" fill="white"/>
<path d="M128.078 43.5864L134.384 24.9492V18.3359L128.078 36.9732V43.5864Z" fill="white"/>
<path d="M118.769 43.5864L125.075 24.9492V18.3359L118.769 36.9732V43.5864Z" fill="white"/>
<path d="M109.459 43.5864L115.465 24.9492V18.3359L109.459 36.9732V43.5864Z" fill="white"/>
<path d="M109.459 49.5988H115.465V12.3242" stroke="black" stroke-width="0.424901"/>
<path d="M118.769 49.5988H125.075V12.3242" stroke="black" stroke-width="0.424901"/>
<path d="M128.078 49.5988H134.384V12.3242" stroke="black" stroke-width="0.424901"/>
<path d="M137.388 49.5988H143.694V12.3242" stroke="black" stroke-width="0.424901"/>
<path d="M118.769 100.102H131.081V137.376H118.769V100.102Z" fill="black"/>
<path d="M68.6191 87.4766H81.2318V124.751H68.6191V87.4766Z" fill="black"/>
<path d="M56.0059 36.9766H68.6185V74.8523H56.0059V36.9766Z" fill="black"/>
<path d="M24.7745 30.9614H15.4652V5.71094H2.85254V43.5867H24.7745V30.9614Z" fill="black"/>
<path d="M9.15918 74.8516H21.7718V112.126H9.15918V74.8516Z" fill="black"/>
<path d="M0 150H150V0" stroke="black" stroke-width="0.424901"/>
<path d="M150 0H0V150" stroke="#99FFCC" stroke-width="0.424901"/>
<path d="M143.693 68.2383H146.997V74.8515H143.693V68.2383Z" fill="#FFCC00"/>
<path d="M143.693 80.8594H146.997V87.4726H143.693V80.8594Z" fill="#FFCC00"/>
<path d="M137.388 80.8594H140.691V87.4726H137.388V80.8594Z" fill="#FFCC00"/>
<path d="M137.388 68.2383H140.691V74.8515H137.388V68.2383Z" fill="#FFCC00"/>
<path d="M96.8467 80.8594H99.8497V87.4726H96.8467V80.8594Z" fill="#FFCC00"/>
<path d="M96.8467 68.2383H99.8497V74.8515H96.8467V68.2383Z" fill="#FFCC00"/>
<path d="M90.541 68.2383H93.544V74.8515H90.541V68.2383Z" fill="#FFCC00"/>
<path d="M90.541 80.8594H93.544V87.4726H90.541V80.8594Z" fill="#FFCC00"/>
<path d="M50 124.75H53.003V131.363H50V124.75Z" fill="#FFCC00"/>
<path d="M43.6934 112.125H46.6964V118.738H43.6934V112.125Z" fill="#FFCC00"/>
<path d="M50 100.102H53.003V106.114H50V100.102Z" fill="#FFCC00"/>
<path d="M50 137.375H53.003V143.387H50V137.375Z" fill="#FFCC00"/>
<path d="M43.6934 137.375H46.6964V143.387H43.6934V137.375Z" fill="#FFCC00"/>
<path d="M43.6934 124.75H46.6964V131.363H43.6934V124.75Z" fill="#FFCC00"/>
<path d="M50 112.125H53.003V118.738H50V112.125Z" fill="#FFCC00"/>
<path d="M43.6934 100.102H46.6964V106.114H43.6934V100.102Z" fill="#FFCC00"/>
<path d="M62.3125 16.5312H103.153V21.9421H62.3125V16.5312Z" fill="#FFCC00"/>
<path d="M62.3125 5.71094H103.153V11.1218H62.3125V5.71094Z" fill="#FFCC00"/>
<path d="M74.9248 27.6562H103.153V32.7665H74.9248V27.6562Z" fill="#FFCC00"/>
<path d="M74.9248 38.1758H103.153V43.5866H74.9248V38.1758Z" fill="#FFCC00"/>
<path d="M43.6934 143.386H2.85254V43.5859" stroke="#99FFCC" stroke-width="0.424901"/>
<path d="M137.388 74.8521H112.463V49.6016" stroke="#99FFCC" stroke-width="0.424901"/>
<path d="M99.8496 68.235V56.2109" stroke="#99FFCC" stroke-width="0.424901"/>
<path d="M68.6191 56.212H106.157V12.3242H103.154" stroke="#99FFCC" stroke-width="0.424901"/>
<path d="M62.3126 12.3242H37.3877V74.8493H56.0063" stroke="#99FFCC" stroke-width="0.424901"/>
<path d="M43.6934 106.109H21.7715" stroke="#B2B2B2" stroke-width="0.424901"/>
<path d="M43.6938 118.736H6.15625V43.5859" stroke="#B2B2B2" stroke-width="0.424901"/>
<path d="M90.5411 87.4766V137.376H68.6191V124.751" stroke="#B2B2B2" stroke-width="0.424901"/>
<path d="M146.997 87.4773V93.4893H125.075V68.2388H121.771V49.6016" stroke="#B2B2B2" stroke-width="0.424901"/>
<path d="M24.7744 56.2109H28.0777V74.8482H24.7744V56.2109Z" fill="#B2B2B2"/>
<path d="M24.7744 100.098V93.4844H34.384V100.098H24.7744Z" fill="#B2B2B2"/>
<path d="M31.0811 56.2109H34.3844V74.8482H31.0811V56.2109Z" fill="#B2B2B2"/>
<path d="M24.7744 87.4726V80.8594H34.384V87.4726H24.7744Z" fill="#B2B2B2"/>
<path d="M137.387 87.4773H131.081V49.6016" stroke="#003333" stroke-width="0.424901"/>
<path d="M99.8496 80.8594H121.772V100.098" stroke="#003333" stroke-width="0.424901"/>
<path d="M90.5401 74.8479H77.9275V62.2227H68.6182" stroke="#003333" stroke-width="0.424901"/>
<path d="M96.8468 87.4766V131.364H71.9219V124.751" stroke="#003333" stroke-width="0.424901"/>
<path d="M43.6941 131.363H12.4629V112.125" stroke="#003333" stroke-width="0.424901"/>
<path d="M74.9246 30.9609H24.7744" stroke="#003333" stroke-width="0.424901"/>
<path d="M62.3123 24.9492H40.3904V49.5985H9.15918V43.5865" stroke="#003333" stroke-width="0.424901"/>
<path d="M68.6191 106.109H81.2318" stroke="#7F7F7F" stroke-width="0.424901"/>
<path d="M56.0059 56.2109H68.6185" stroke="#7F7F7F" stroke-width="0.424901"/>
<path d="M56.0059 87.4766H62.3122V100.102H56.0059V87.4766Z" fill="#CCCCCC"/>
<path d="M56.0059 106.109H62.3122V118.735H56.0059V106.109Z" fill="#CCCCCC"/>
<path d="M99.8496 130.762H106.156" stroke="#B2B2B2" stroke-width="0.424901"/>
<path d="M109.459 130.762H115.465" stroke="#B2B2B2" stroke-width="0.424901"/>
<path d="M99.8496 124.75H106.156" stroke="#B2B2B2" stroke-width="0.424901"/>
<path d="M109.459 124.75H115.465" stroke="#B2B2B2" stroke-width="0.424901"/>
<path d="M99.8496 118.738H106.156" stroke="#B2B2B2" stroke-width="0.424901"/>
<path d="M109.459 118.738H115.465" stroke="#B2B2B2" stroke-width="0.424901"/>
<path d="M99.8496 112.125H106.156" stroke="#B2B2B2" stroke-width="0.424901"/>
<path d="M109.459 112.125H115.465" stroke="#B2B2B2" stroke-width="0.424901"/>
<path d="M99.8496 106.109H106.156" stroke="#B2B2B2" stroke-width="0.424901"/>
<path d="M109.459 106.109H115.465" stroke="#B2B2B2" stroke-width="0.424901"/>
<path d="M99.8496 100.102H106.156" stroke="#B2B2B2" stroke-width="0.424901"/>
<path d="M109.459 100.102H115.465" stroke="#B2B2B2" stroke-width="0.424901"/>
<path d="M99.8496 93.4844H106.156" stroke="#B2B2B2" stroke-width="0.424901"/>
<path d="M109.459 93.4844H115.465" stroke="#B2B2B2" stroke-width="0.424901"/>
<path d="M99.8496 87.4766H106.156" stroke="#B2B2B2" stroke-width="0.424901"/>
<path d="M109.459 87.4766H115.465" stroke="#B2B2B2" stroke-width="0.424901"/>
</g>
<defs>
<clipPath id="clip0_2109_172819">
<rect width="150" height="150" fill="white"/>
</clipPath>
</defs>
</svg>
