<svg width="150" height="150" viewBox="0 0 150 150" fill="none" xmlns="http://www.w3.org/2000/svg">
<g clip-path="url(#clip0_2109_172155)">
<path d="M12.4629 81.8588H127.778V78.8438H12.4629V81.8588Z" fill="white"/>
<path d="M0 85.6272H149.85L146.847 80.6523H3.003L0 85.6272Z" fill="white" stroke="black" stroke-width="0.300903"/>
<path d="M3.60352 80.654H146.246L130.781 59.6992H19.2191L3.60352 80.654Z" fill="white" stroke="black" stroke-width="0.300903"/>
<path d="M36.7871 3.61809V3.31658V3.01508V2.71357L40.0904 0H40.5409H40.8412H106.907L110.661 1.80905V2.86432V3.31658V3.61809V59.5477L108.559 63.0151H108.259H108.108H40.3907L36.7871 60.7538V57.7387V3.61809Z" fill="#C1C1C1" stroke="black" stroke-width="0.300903"/>
<path d="M55.2549 63.0156H92.1918V67.086H55.2549V63.0156Z" fill="#828282" stroke="black" stroke-width="0.300903"/>
<path d="M42.3428 11.9101V11.4578V11.1563V10.704L44.2947 7.23669L45.4959 7.08594H45.9464H46.2467H101.502L105.106 9.04574V11.307V48.694V49.7493L105.256 50.0508V50.3523L104.955 51.5583L104.805 51.7091L101.051 52.0106H46.2467H45.4959H45.1956H44.8953L42.3428 48.5432V11.9101Z" fill="#000066" stroke="black" stroke-width="0.300903"/>
<path d="M36.7871 76.1312H110.661V73.1161L92.1925 67.0859H55.2556L36.7871 73.1161V76.1312Z" fill="#C1C1C1" stroke="black" stroke-width="0.300903"/>
<path d="M104.354 55.7812V60.3039H86.6367V55.7812H104.354Z" fill="#828282" stroke="black" stroke-width="0.300903"/>
<path d="M36.7871 73.1172H110.661" stroke="black" stroke-width="0.300903"/>
<path d="M149.85 116.835V85.6289H0V116.835H149.85Z" fill="#C1C1C1" stroke="black" stroke-width="0.300903"/>
<path d="M93.6934 100.552H107.507V93.6172H93.6934V100.552Z" fill="white"/>
<path d="M92.4922 100.852H144.594V115.173H92.4922V100.852Z" fill="#828282" stroke="black" stroke-width="0.300903"/>
<path d="M97.748 104.922H139.34V111.103H97.748V104.922Z" fill="black" stroke="black" stroke-width="0.300903"/>
<path d="M131.682 104.922H144.595V111.103H131.682V104.922Z" fill="#C1C1C1" stroke="black" stroke-width="0.300903"/>
<path d="M136.787 104.922H139.34V111.103H136.787V104.922Z" fill="#C1C1C1" stroke="black" stroke-width="0.300903"/>
<path d="M92.793 86.5312H144.294V100.551H92.793V86.5312Z" fill="#828282" stroke="black" stroke-width="0.300903"/>
<path d="M97.8975 92.5609L139.189 92.4102V94.5207H97.8975V92.5609Z" fill="black" stroke="black" stroke-width="0.300903"/>
<path d="M136.487 88.4922H126.276V90.452H136.487V88.4922Z" fill="#C1C1C1" stroke="black" stroke-width="0.300903"/>
<path d="M136.637 92.4118C138.046 92.4118 139.189 91.5344 139.189 90.452C139.189 89.3696 138.046 88.4922 136.637 88.4922C135.227 88.4922 134.084 89.3696 134.084 90.452C134.084 91.5344 135.227 92.4118 136.637 92.4118Z" fill="#C1C1C1" stroke="black" stroke-width="0.300903"/>
<path d="M20.7208 119.094L16.5166 145.626H138.138L128.529 119.094H20.7208Z" fill="white" stroke="black" stroke-width="0.300903"/>
<path d="M92.0422 120.906L91.5918 125.127H96.2465L95.796 120.906H92.0422Z" fill="#C1C1C1" stroke="black" stroke-width="0.300903"/>
<path d="M92.1921 119.699L92.042 120.905H95.7957L95.4954 119.699H92.1921Z" fill="white" stroke="black" stroke-width="0.300903"/>
<path d="M96.6968 120.906L96.3965 125.127H100.901L100.451 120.906H96.6968Z" fill="#C1C1C1" stroke="black" stroke-width="0.300903"/>
<path d="M96.9966 119.699L96.6963 120.905H100.45L100.3 119.699H96.9966Z" fill="white" stroke="black" stroke-width="0.300903"/>
<path d="M101.352 120.906L100.901 125.127H105.556L105.106 120.906H101.352Z" fill="#C1C1C1" stroke="black" stroke-width="0.300903"/>
<path d="M101.652 119.699L101.352 120.905H105.105L104.805 119.699H101.652Z" fill="white" stroke="black" stroke-width="0.300903"/>
<path d="M80.7808 120.906L80.4805 125.127H84.985L84.5345 120.906H80.7808Z" fill="#C1C1C1" stroke="black" stroke-width="0.300903"/>
<path d="M81.0816 119.699L80.7812 120.905H84.535L84.3849 119.699H81.0816Z" fill="white" stroke="black" stroke-width="0.300903"/>
<path d="M85.5852 120.906L85.1348 125.127H89.7894L89.339 120.906H85.5852Z" fill="#C1C1C1" stroke="black" stroke-width="0.300903"/>
<path d="M85.7361 119.699L85.5859 120.905H89.3397L89.0394 119.699H85.7361Z" fill="white" stroke="black" stroke-width="0.300903"/>
<path d="M76.2766 120.906L75.8262 125.127H80.4808L79.8802 120.906H76.2766Z" fill="#C1C1C1" stroke="black" stroke-width="0.300903"/>
<path d="M76.4265 119.699L76.2764 120.905H79.88L79.7298 119.699H76.4265Z" fill="white" stroke="black" stroke-width="0.300903"/>
<path d="M71.6213 120.906L71.1709 125.127H75.8256L75.3751 120.906H71.6213Z" fill="#C1C1C1" stroke="black" stroke-width="0.300903"/>
<path d="M71.9224 119.699L71.6221 120.905H75.3758L75.0755 119.699H71.9224Z" fill="white" stroke="black" stroke-width="0.300903"/>
<path d="M51.5012 120.906L51.0508 125.127H55.5553L55.255 120.906H51.5012Z" fill="#C1C1C1" stroke="black" stroke-width="0.300903"/>
<path d="M51.6521 119.699L51.502 120.905H55.2557L54.9554 119.699H51.6521Z" fill="white" stroke="black" stroke-width="0.300903"/>
<path d="M65.3157 120.906L64.8652 125.127H69.3697L68.9193 120.906H65.3157Z" fill="#C1C1C1" stroke="black" stroke-width="0.300903"/>
<path d="M65.4656 119.699L65.3154 120.905H68.919L68.7689 119.699H65.4656Z" fill="white" stroke="black" stroke-width="0.300903"/>
<path d="M56.1563 120.906L55.5557 125.127H60.2103L59.7599 120.906H56.1563Z" fill="#C1C1C1" stroke="black" stroke-width="0.300903"/>
<path d="M56.3064 119.699L56.1562 120.905H59.7599L59.6097 119.699H56.3064Z" fill="white" stroke="black" stroke-width="0.300903"/>
<path d="M60.6604 120.906L60.21 125.127H64.8646L64.4142 120.906H60.6604Z" fill="#C1C1C1" stroke="black" stroke-width="0.300903"/>
<path d="M60.9605 119.699L60.6602 120.905H64.4139L64.1136 119.699H60.9605Z" fill="white" stroke="black" stroke-width="0.300903"/>
<path d="M45.4954 120.906L45.0449 125.127H49.6996L49.2491 120.906H45.4954Z" fill="#C1C1C1" stroke="black" stroke-width="0.300903"/>
<path d="M45.7954 119.699L45.4951 120.905H49.2489L48.9486 119.699H45.7954Z" fill="white" stroke="black" stroke-width="0.300903"/>
<path d="M36.3362 120.906L35.8857 125.127H40.3902L39.9398 120.906H36.3362Z" fill="#C1C1C1" stroke="black" stroke-width="0.300903"/>
<path d="M36.4861 119.699L36.3359 120.905H39.9395L39.6392 119.699H36.4861Z" fill="white" stroke="black" stroke-width="0.300903"/>
<path d="M31.6819 120.906L31.2314 125.127H35.8861L35.4356 120.906H31.6819Z" fill="#C1C1C1" stroke="black" stroke-width="0.300903"/>
<path d="M31.9819 119.699L31.6816 120.905H35.4354L35.1351 119.699H31.9819Z" fill="white" stroke="black" stroke-width="0.300903"/>
<path d="M40.9912 120.906L40.3906 125.127H45.0453L44.5948 120.906H40.9912Z" fill="#C1C1C1" stroke="black" stroke-width="0.300903"/>
<path d="M41.1414 119.699L40.9912 120.905H44.5948L44.2945 119.699H41.1414Z" fill="white" stroke="black" stroke-width="0.300903"/>
<path d="M23.273 120.906L22.9727 125.127H27.4772L27.0267 120.906H23.273Z" fill="#C1C1C1" stroke="black" stroke-width="0.300903"/>
<path d="M51.5012 125.277L51.0508 129.348H55.5553L55.255 125.277H51.5012Z" fill="#C1C1C1" stroke="black" stroke-width="0.300903"/>
<path d="M51.6521 124.07L51.502 125.276H55.2557L54.9554 124.07H51.6521Z" fill="white" stroke="black" stroke-width="0.300903"/>
<path d="M83.7835 125.277L83.333 129.348H87.8375L87.3871 125.277H83.7835Z" fill="#C1C1C1" stroke="black" stroke-width="0.300903"/>
<path d="M83.9343 124.07L83.7842 125.276H87.3878L87.2376 124.07H83.9343Z" fill="white" stroke="black" stroke-width="0.300903"/>
<path d="M46.8469 125.277L46.3965 129.348H51.0511L50.6007 125.277H46.8469Z" fill="#C1C1C1" stroke="black" stroke-width="0.300903"/>
<path d="M47.147 124.07L46.8467 125.276H50.6004L50.3001 124.07H47.147Z" fill="white" stroke="black" stroke-width="0.300903"/>
<path d="M56.1563 125.277L55.5557 129.348H60.2103L59.7599 125.277H56.1563Z" fill="#C1C1C1" stroke="black" stroke-width="0.300903"/>
<path d="M56.3064 124.07L56.1562 125.276H59.7599L59.6097 124.07H56.3064Z" fill="white" stroke="black" stroke-width="0.300903"/>
<path d="M69.9697 125.277L69.3691 129.348H74.0238L73.5733 125.277H69.9697Z" fill="#C1C1C1" stroke="black" stroke-width="0.300903"/>
<path d="M70.1199 124.07L69.9697 125.276H73.5733L73.4232 124.07H70.1199Z" fill="white" stroke="black" stroke-width="0.300903"/>
<path d="M23.874 125.277L23.2734 129.348H27.9281L27.4776 125.277H23.874Z" fill="#C1C1C1" stroke="black" stroke-width="0.300903"/>
<path d="M24.0242 124.07L23.874 125.276H27.4776L27.3275 124.07H24.0242Z" fill="white" stroke="black" stroke-width="0.300903"/>
<path d="M60.6604 125.277L60.21 129.348H64.8646L64.4142 125.277H60.6604Z" fill="#C1C1C1" stroke="black" stroke-width="0.300903"/>
<path d="M60.9614 124.07L60.6611 125.276H64.4149L64.1146 124.07H60.9614Z" fill="white" stroke="black" stroke-width="0.300903"/>
<path d="M65.3157 125.277L64.8652 129.348H69.3697L68.9193 125.277H65.3157Z" fill="#C1C1C1" stroke="black" stroke-width="0.300903"/>
<path d="M65.4656 124.07L65.3154 125.276H68.919L68.7689 124.07H65.4656Z" fill="white" stroke="black" stroke-width="0.300903"/>
<path d="M37.6878 125.277L37.2373 129.348H41.7418L41.2914 125.277H37.6878Z" fill="#C1C1C1" stroke="black" stroke-width="0.300903"/>
<path d="M37.8377 124.07L37.6875 125.276H41.2911L41.141 124.07H37.8377Z" fill="white" stroke="black" stroke-width="0.300903"/>
<path d="M33.0335 125.277L32.583 129.348H37.2377L36.7872 125.277H33.0335Z" fill="#C1C1C1" stroke="black" stroke-width="0.300903"/>
<path d="M33.3335 124.07L33.0332 125.276H36.787L36.4867 124.07H33.3335Z" fill="white" stroke="black" stroke-width="0.300903"/>
<path d="M79.1292 125.277L78.6787 129.348H83.3334L82.8829 125.277H79.1292Z" fill="#C1C1C1" stroke="black" stroke-width="0.300903"/>
<path d="M79.4292 124.07L79.1289 125.276H82.8827L82.5824 124.07H79.4292Z" fill="white" stroke="black" stroke-width="0.300903"/>
<path d="M42.3428 125.277L41.7422 129.348H46.3968L45.9464 125.277H42.3428Z" fill="#C1C1C1" stroke="black" stroke-width="0.300903"/>
<path d="M42.4929 124.07L42.3428 125.276H45.9464L45.7962 124.07H42.4929Z" fill="white" stroke="black" stroke-width="0.300903"/>
<path d="M28.5283 125.277L27.9277 129.348H32.5824L32.1319 125.277H28.5283Z" fill="#C1C1C1" stroke="black" stroke-width="0.300903"/>
<path d="M28.6785 124.07L28.5283 125.276H32.1319L31.9818 124.07H28.6785Z" fill="white" stroke="black" stroke-width="0.300903"/>
<path d="M74.4749 125.277L74.0244 129.348H78.6791L78.2286 125.277H74.4749Z" fill="#C1C1C1" stroke="black" stroke-width="0.300903"/>
<path d="M74.7749 124.07L74.4746 125.276H78.2284L78.0782 124.07H74.7749Z" fill="white" stroke="black" stroke-width="0.300903"/>
<path d="M53.303 127.234L52.8525 131.305H57.5072L57.0567 127.234H53.303Z" fill="#C1C1C1" stroke="black" stroke-width="0.300903"/>
<path d="M53.604 126.031L53.3037 127.237H57.0575L56.7572 126.031H53.604Z" fill="white" stroke="black" stroke-width="0.300903"/>
<path d="M85.5852 127.234L85.1348 131.305H89.7894L89.339 127.234H85.5852Z" fill="#C1C1C1" stroke="black" stroke-width="0.300903"/>
<path d="M85.7361 126.031L85.5859 127.237H89.3397L89.0394 126.031H85.7361Z" fill="white" stroke="black" stroke-width="0.300903"/>
<path d="M48.7988 127.234L48.1982 131.305H52.8529L52.4024 127.234H48.7988Z" fill="#C1C1C1" stroke="black" stroke-width="0.300903"/>
<path d="M48.949 126.031L48.7988 127.237H52.4024L52.1021 126.031H48.949Z" fill="white" stroke="black" stroke-width="0.300903"/>
<path d="M57.9583 127.234L57.5078 131.305H62.0123L61.712 127.234H57.9583Z" fill="#C1C1C1" stroke="black" stroke-width="0.300903"/>
<path d="M58.2583 126.031L57.958 127.237H61.7118L61.4115 126.031H58.2583Z" fill="white" stroke="black" stroke-width="0.300903"/>
<path d="M71.7717 127.234L71.3213 131.305H75.9759L75.3753 127.234H71.7717Z" fill="#C1C1C1" stroke="black" stroke-width="0.300903"/>
<path d="M72.0718 126.031L71.7715 127.237H75.3751L75.2249 126.031H72.0718Z" fill="white" stroke="black" stroke-width="0.300903"/>
<path d="M25.676 127.234L25.2256 131.305H29.8802L29.2796 127.234H25.676Z" fill="#C1C1C1" stroke="black" stroke-width="0.300903"/>
<path d="M25.9761 126.031L25.6758 127.237H29.2794L29.1292 126.031H25.9761Z" fill="white" stroke="black" stroke-width="0.300903"/>
<path d="M62.6123 127.234L62.0117 131.305H66.6664L66.2159 127.234H62.6123Z" fill="#C1C1C1" stroke="black" stroke-width="0.300903"/>
<path d="M62.7625 126.031L62.6123 127.237H66.2159L65.9156 126.031H62.7625Z" fill="white" stroke="black" stroke-width="0.300903"/>
<path d="M67.1174 127.234L66.667 131.305H71.3216L70.8712 127.234H67.1174Z" fill="#C1C1C1" stroke="black" stroke-width="0.300903"/>
<path d="M67.4175 126.031L67.1172 127.237H70.8709L70.5706 126.031H67.4175Z" fill="white" stroke="black" stroke-width="0.300903"/>
<path d="M39.4895 127.234L39.0391 131.305H43.6937L43.0931 127.234H39.4895Z" fill="#C1C1C1" stroke="black" stroke-width="0.300903"/>
<path d="M39.6394 126.031L39.4893 127.237H43.0929L42.9427 126.031H39.6394Z" fill="white" stroke="black" stroke-width="0.300903"/>
<path d="M34.8352 127.234L34.3848 131.305H39.0394L38.589 127.234H34.8352Z" fill="#C1C1C1" stroke="black" stroke-width="0.300903"/>
<path d="M35.1353 126.031L34.835 127.237H38.5887L38.2884 126.031H35.1353Z" fill="white" stroke="black" stroke-width="0.300903"/>
<path d="M81.0811 127.234L80.4805 131.305H85.1351L84.6847 127.234H81.0811Z" fill="#C1C1C1" stroke="black" stroke-width="0.300903"/>
<path d="M81.2312 126.031L81.0811 127.237H84.6847L84.5345 126.031H81.2312Z" fill="white" stroke="black" stroke-width="0.300903"/>
<path d="M44.1438 127.234L43.6934 131.305H48.1979L47.7474 127.234H44.1438Z" fill="#C1C1C1" stroke="black" stroke-width="0.300903"/>
<path d="M44.2947 126.031L44.1445 127.237H47.7481L47.598 126.031H44.2947Z" fill="white" stroke="black" stroke-width="0.300903"/>
<path d="M30.3303 127.234L29.8799 131.305H34.3844L33.9339 127.234H30.3303Z" fill="#C1C1C1" stroke="black" stroke-width="0.300903"/>
<path d="M30.4802 126.031L30.3301 127.237H33.9337L33.7835 126.031H30.4802Z" fill="white" stroke="black" stroke-width="0.300903"/>
<path d="M76.426 127.234L75.9756 131.305H80.4801L80.0296 127.234H76.426Z" fill="#C1C1C1" stroke="black" stroke-width="0.300903"/>
<path d="M76.5769 126.031L76.4268 127.237H80.0304L79.8802 126.031H76.5769Z" fill="white" stroke="black" stroke-width="0.300903"/>
<path d="M51.5012 129.648L51.0508 133.87H55.5553L55.255 129.648H51.5012Z" fill="#C1C1C1" stroke="black" stroke-width="0.300903"/>
<path d="M51.6521 128.594L51.502 129.649H55.2557L54.9554 128.594H51.6521Z" fill="white" stroke="black" stroke-width="0.300903"/>
<path d="M83.7835 129.648L83.333 133.87H87.8375L87.3871 129.648H83.7835Z" fill="#C1C1C1" stroke="black" stroke-width="0.300903"/>
<path d="M83.9343 128.594L83.7842 129.649H87.3878L87.2376 128.594H83.9343Z" fill="white" stroke="black" stroke-width="0.300903"/>
<path d="M46.8469 129.648L46.3965 133.87H51.0511L50.6007 129.648H46.8469Z" fill="#C1C1C1" stroke="black" stroke-width="0.300903"/>
<path d="M47.147 128.594L46.8467 129.649H50.6004L50.3001 128.594H47.147Z" fill="white" stroke="black" stroke-width="0.300903"/>
<path d="M56.1563 129.648L55.5557 133.87H60.2103L59.7599 129.648H56.1563Z" fill="#C1C1C1" stroke="black" stroke-width="0.300903"/>
<path d="M56.3064 128.594L56.1562 129.649H59.7599L59.6097 128.594H56.3064Z" fill="white" stroke="black" stroke-width="0.300903"/>
<path d="M69.9697 129.648L69.3691 133.87H74.0238L73.5733 129.648H69.9697Z" fill="#C1C1C1" stroke="black" stroke-width="0.300903"/>
<path d="M70.1199 128.594L69.9697 129.649H73.5733L73.4232 128.594H70.1199Z" fill="white" stroke="black" stroke-width="0.300903"/>
<path d="M23.874 129.648L23.2734 133.87H27.9281L27.4776 129.648H23.874Z" fill="#C1C1C1" stroke="black" stroke-width="0.300903"/>
<path d="M24.0242 128.594L23.874 129.649H27.4776L27.3275 128.594H24.0242Z" fill="white" stroke="black" stroke-width="0.300903"/>
<path d="M60.6604 129.648L60.21 133.87H64.8646L64.4142 129.648H60.6604Z" fill="#C1C1C1" stroke="black" stroke-width="0.300903"/>
<path d="M60.9605 128.594L60.6602 129.649H64.4139L64.1136 128.594H60.9605Z" fill="white" stroke="black" stroke-width="0.300903"/>
<path d="M65.3157 129.648L64.8652 133.87H69.3697L68.9193 129.648H65.3157Z" fill="#C1C1C1" stroke="black" stroke-width="0.300903"/>
<path d="M65.4656 128.594L65.3154 129.649H68.919L68.7689 128.594H65.4656Z" fill="white" stroke="black" stroke-width="0.300903"/>
<path d="M37.6878 129.648L37.2373 133.87H41.7418L41.2914 129.648H37.6878Z" fill="#C1C1C1" stroke="black" stroke-width="0.300903"/>
<path d="M37.8377 128.594L37.6875 129.649H41.2911L41.141 128.594H37.8377Z" fill="white" stroke="black" stroke-width="0.300903"/>
<path d="M33.0335 129.648L32.583 133.87H37.2377L36.7872 129.648H33.0335Z" fill="#C1C1C1" stroke="black" stroke-width="0.300903"/>
<path d="M33.3335 128.594L33.0332 129.649H36.787L36.4867 128.594H33.3335Z" fill="white" stroke="black" stroke-width="0.300903"/>
<path d="M79.1292 129.648L78.6787 133.87H83.3334L82.8829 129.648H79.1292Z" fill="#C1C1C1" stroke="black" stroke-width="0.300903"/>
<path d="M79.4292 128.594L79.1289 129.649H82.8827L82.5824 128.594H79.4292Z" fill="white" stroke="black" stroke-width="0.300903"/>
<path d="M42.3428 129.648L41.7422 133.87H46.3968L45.9464 129.648H42.3428Z" fill="#C1C1C1" stroke="black" stroke-width="0.300903"/>
<path d="M42.4929 128.594L42.3428 129.649H45.9464L45.7962 128.594H42.4929Z" fill="white" stroke="black" stroke-width="0.300903"/>
<path d="M28.5283 129.648L27.9277 133.87H32.5824L32.1319 129.648H28.5283Z" fill="#C1C1C1" stroke="black" stroke-width="0.300903"/>
<path d="M28.6785 128.594L28.5283 129.649H32.1319L31.9818 128.594H28.6785Z" fill="white" stroke="black" stroke-width="0.300903"/>
<path d="M74.4749 129.648L74.0244 133.87H78.6791L78.2286 129.648H74.4749Z" fill="#C1C1C1" stroke="black" stroke-width="0.300903"/>
<path d="M74.7749 128.594L74.4746 129.649H78.2284L78.0782 128.594H74.7749Z" fill="white" stroke="black" stroke-width="0.300903"/>
<path d="M53.303 132.664L52.8525 136.885H57.5072L57.0567 132.664H53.303Z" fill="#C1C1C1" stroke="black" stroke-width="0.300903"/>
<path d="M53.604 131.457L53.3037 132.663H57.0575L56.7572 131.457H53.604Z" fill="white" stroke="black" stroke-width="0.300903"/>
<path d="M85.5852 132.664L85.1348 136.885H89.7894L89.339 132.664H85.5852Z" fill="#C1C1C1" stroke="black" stroke-width="0.300903"/>
<path d="M85.7361 131.457L85.5859 132.663H89.3397L89.0394 131.457H85.7361Z" fill="white" stroke="black" stroke-width="0.300903"/>
<path d="M48.7988 132.664L48.1982 136.885H52.8529L52.4024 132.664H48.7988Z" fill="#C1C1C1" stroke="black" stroke-width="0.300903"/>
<path d="M48.949 131.457L48.7988 132.663H52.4024L52.1021 131.457H48.949Z" fill="white" stroke="black" stroke-width="0.300903"/>
<path d="M57.9583 132.664L57.5078 136.885H62.0123L61.712 132.664H57.9583Z" fill="#C1C1C1" stroke="black" stroke-width="0.300903"/>
<path d="M58.2583 131.457L57.958 132.663H61.7118L61.4115 131.457H58.2583Z" fill="white" stroke="black" stroke-width="0.300903"/>
<path d="M71.7717 132.664L71.3213 136.885H75.9759L75.3753 132.664H71.7717Z" fill="#C1C1C1" stroke="black" stroke-width="0.300903"/>
<path d="M72.0718 131.457L71.7715 132.663H75.3751L75.2249 131.457H72.0718Z" fill="white" stroke="black" stroke-width="0.300903"/>
<path d="M25.676 132.664L25.2256 136.885H29.8802L29.2796 132.664H25.676Z" fill="#C1C1C1" stroke="black" stroke-width="0.300903"/>
<path d="M25.9761 131.457L25.6758 132.663H29.2794L29.1292 131.457H25.9761Z" fill="white" stroke="black" stroke-width="0.300903"/>
<path d="M62.6123 132.664L62.0117 136.885H66.6664L66.2159 132.664H62.6123Z" fill="#C1C1C1" stroke="black" stroke-width="0.300903"/>
<path d="M62.7625 131.457L62.6123 132.663H66.2159L65.9156 131.457H62.7625Z" fill="white" stroke="black" stroke-width="0.300903"/>
<path d="M67.1174 132.664L66.667 136.885H71.3216L70.8712 132.664H67.1174Z" fill="#C1C1C1" stroke="black" stroke-width="0.300903"/>
<path d="M67.4175 131.457L67.1172 132.663H70.8709L70.5706 131.457H67.4175Z" fill="white" stroke="black" stroke-width="0.300903"/>
<path d="M39.4895 132.664L39.0391 136.885H43.6937L43.0931 132.664H39.4895Z" fill="#C1C1C1" stroke="black" stroke-width="0.300903"/>
<path d="M39.6394 131.457L39.4893 132.663H43.0929L42.9427 131.457H39.6394Z" fill="white" stroke="black" stroke-width="0.300903"/>
<path d="M34.8352 132.664L34.3848 136.885H39.0394L38.589 132.664H34.8352Z" fill="#C1C1C1" stroke="black" stroke-width="0.300903"/>
<path d="M35.1353 131.457L34.835 132.663H38.5887L38.2884 131.457H35.1353Z" fill="white" stroke="black" stroke-width="0.300903"/>
<path d="M81.0811 132.664L80.4805 136.885H85.1351L84.6847 132.664H81.0811Z" fill="#C1C1C1" stroke="black" stroke-width="0.300903"/>
<path d="M81.2312 131.457L81.0811 132.663H84.6847L84.5345 131.457H81.2312Z" fill="white" stroke="black" stroke-width="0.300903"/>
<path d="M44.1438 132.664L43.6934 136.885H48.1979L47.7474 132.664H44.1438Z" fill="#C1C1C1" stroke="black" stroke-width="0.300903"/>
<path d="M44.2947 131.457L44.1445 132.663H47.7481L47.598 131.457H44.2947Z" fill="white" stroke="black" stroke-width="0.300903"/>
<path d="M30.3303 132.664L29.8799 136.885H34.3844L33.9339 132.664H30.3303Z" fill="#C1C1C1" stroke="black" stroke-width="0.300903"/>
<path d="M30.4802 131.457L30.3301 132.663H33.9337L33.7835 131.457H30.4802Z" fill="white" stroke="black" stroke-width="0.300903"/>
<path d="M76.426 132.664L75.9756 136.885H80.4801L80.0296 132.664H76.426Z" fill="#C1C1C1" stroke="black" stroke-width="0.300903"/>
<path d="M76.5769 131.457L76.4268 132.663H80.0304L79.8802 131.457H76.5769Z" fill="white" stroke="black" stroke-width="0.300903"/>
<path d="M85.135 136.582L84.6846 140.803H89.3392L88.8888 136.582H85.135Z" fill="#C1C1C1" stroke="black" stroke-width="0.300903"/>
<path d="M85.2849 135.375L85.1348 136.581H88.8885L88.5882 135.375H85.2849Z" fill="white" stroke="black" stroke-width="0.300903"/>
<path d="M92.6426 125.125L92.042 129.346H96.6966L96.2462 125.125H92.6426Z" fill="#C1C1C1" stroke="black" stroke-width="0.300903"/>
<path d="M92.7927 124.07L92.6426 125.126H96.2462L96.096 124.07H92.7927Z" fill="white" stroke="black" stroke-width="0.300903"/>
<path d="M97.5979 125.125L97.1475 129.346H101.802L101.352 125.125H97.5979Z" fill="#C1C1C1" stroke="black" stroke-width="0.300903"/>
<path d="M97.898 124.07L97.5977 125.126H101.351L101.051 124.07H97.898Z" fill="white" stroke="black" stroke-width="0.300903"/>
<path d="M93.544 127.234L92.9434 131.305H97.598L97.1476 127.234H93.544Z" fill="#C1C1C1" stroke="black" stroke-width="0.300903"/>
<path d="M93.6941 126.031L93.5439 127.237H97.1475L96.8472 126.031H93.6941Z" fill="white" stroke="black" stroke-width="0.300903"/>
<path d="M102.252 125.125L101.802 129.346H106.456L105.856 125.125H102.252Z" fill="#C1C1C1" stroke="black" stroke-width="0.300903"/>
<path d="M102.402 124.07L102.252 125.126H105.856L105.705 124.07H102.402Z" fill="white" stroke="black" stroke-width="0.300903"/>
<path d="M98.3486 127.234L97.748 131.305H102.403L101.952 127.234H98.3486Z" fill="#C1C1C1" stroke="black" stroke-width="0.300903"/>
<path d="M98.4988 126.031L98.3486 127.237H101.952L101.802 126.031H98.4988Z" fill="white" stroke="black" stroke-width="0.300903"/>
<path d="M102.853 127.234L102.402 131.305H107.057L106.607 127.234H102.853Z" fill="#C1C1C1" stroke="black" stroke-width="0.300903"/>
<path d="M103.153 126.031L102.853 127.237H106.606L106.306 126.031H103.153Z" fill="white" stroke="black" stroke-width="0.300903"/>
<path d="M94.7444 136.43L94.2939 140.651H98.9486L98.4981 136.43H94.7444Z" fill="#C1C1C1" stroke="black" stroke-width="0.300903"/>
<path d="M95.0454 135.227L94.7451 136.433H98.4989L98.3487 135.227H95.0454Z" fill="white" stroke="black" stroke-width="0.300903"/>
<path d="M98.9485 132.664L98.498 136.885H103.153L102.702 132.664H98.9485Z" fill="#C1C1C1" stroke="black" stroke-width="0.300903"/>
<path d="M99.2495 131.457L98.9492 132.663H102.703L102.403 131.457H99.2495Z" fill="white" stroke="black" stroke-width="0.300903"/>
<path d="M99.5501 136.43L99.0996 140.651H103.604L103.154 136.43H99.5501Z" fill="#C1C1C1" stroke="black" stroke-width="0.300903"/>
<path d="M99.7 135.227L99.5498 136.433H103.153L103.003 135.227H99.7Z" fill="white" stroke="black" stroke-width="0.300903"/>
<path d="M104.355 136.43L103.904 140.651H108.409L107.958 136.43H104.355Z" fill="#C1C1C1" stroke="black" stroke-width="0.300903"/>
<path d="M104.505 135.227L104.354 136.433H107.958L107.808 135.227H104.505Z" fill="white" stroke="black" stroke-width="0.300903"/>
<path d="M123.724 125.125L123.273 129.346H127.928L127.478 125.125H123.724Z" fill="#C1C1C1" stroke="black" stroke-width="0.300903"/>
<path d="M124.024 124.07L123.724 125.126H127.477L127.177 124.07H124.024Z" fill="white" stroke="black" stroke-width="0.300903"/>
<path d="M119.219 125.125L118.769 129.346H123.273L122.973 125.125H119.219Z" fill="#C1C1C1" stroke="black" stroke-width="0.300903"/>
<path d="M119.519 124.07L119.219 125.126H122.973L122.672 124.07H119.519Z" fill="white" stroke="black" stroke-width="0.300903"/>
<path d="M114.264 125.125L113.813 129.346H118.468L118.018 125.125H114.264Z" fill="#C1C1C1" stroke="black" stroke-width="0.300903"/>
<path d="M114.565 124.07L114.265 125.126H118.018L117.868 124.07H114.565Z" fill="white" stroke="black" stroke-width="0.300903"/>
<path d="M109.61 125.125L109.159 129.346H113.814L113.363 125.125H109.61Z" fill="#C1C1C1" stroke="black" stroke-width="0.300903"/>
<path d="M109.91 124.07L109.609 125.126H113.363L113.213 124.07H109.91Z" fill="white" stroke="black" stroke-width="0.300903"/>
<path d="M110.21 127.234L109.609 131.305H114.264L113.814 127.234H110.21Z" fill="#C1C1C1" stroke="black" stroke-width="0.300903"/>
<path d="M110.36 126.031L110.21 127.237H113.814L113.513 126.031H110.36Z" fill="white" stroke="black" stroke-width="0.300903"/>
<path d="M114.865 127.234L114.564 131.305H119.069L118.619 127.234H114.865Z" fill="#C1C1C1" stroke="black" stroke-width="0.300903"/>
<path d="M115.166 126.031L114.865 127.237H118.619L118.319 126.031H115.166Z" fill="white" stroke="black" stroke-width="0.300903"/>
<path d="M119.669 127.234L119.219 131.305H123.873L123.273 127.234H119.669Z" fill="#C1C1C1" stroke="black" stroke-width="0.300903"/>
<path d="M119.97 126.031L119.67 127.237H123.274L123.123 126.031H119.97Z" fill="white" stroke="black" stroke-width="0.300903"/>
<path d="M124.325 127.234L124.024 131.305H128.529L128.078 127.234H124.325Z" fill="#C1C1C1" stroke="black" stroke-width="0.300903"/>
<path d="M124.625 126.031L124.324 127.237H128.078L127.928 126.031H124.625Z" fill="white" stroke="black" stroke-width="0.300903"/>
<path d="M125.075 129.801L124.625 133.871H129.13L128.679 129.801H125.075Z" fill="#C1C1C1" stroke="black" stroke-width="0.300903"/>
<path d="M125.225 128.594L125.075 129.8H128.679L128.529 128.594H125.225Z" fill="white" stroke="black" stroke-width="0.300903"/>
<path d="M125.526 132.664L125.075 136.885H129.73L129.279 132.664H125.526Z" fill="#C1C1C1" stroke="black" stroke-width="0.300903"/>
<path d="M125.826 131.457L125.525 132.663H129.279L128.979 131.457H125.826Z" fill="white" stroke="black" stroke-width="0.300903"/>
<path d="M126.277 136.43L125.826 140.651H130.481L130.03 136.43H126.277Z" fill="#C1C1C1" stroke="black" stroke-width="0.300903"/>
<path d="M126.577 135.227L126.276 136.433H130.03L129.73 135.227H126.577Z" fill="white" stroke="black" stroke-width="0.300903"/>
<path d="M110.511 129.801L110.061 133.871H114.715L114.115 129.801H110.511Z" fill="#C1C1C1" stroke="black" stroke-width="0.300903"/>
<path d="M110.811 128.594L110.511 129.8H114.114L113.964 128.594H110.811Z" fill="white" stroke="black" stroke-width="0.300903"/>
<path d="M111.111 132.664L110.66 136.885H115.165L114.714 132.664H111.111Z" fill="#C1C1C1" stroke="black" stroke-width="0.300903"/>
<path d="M111.261 131.457L111.111 132.663H114.715L114.565 131.457H111.261Z" fill="white" stroke="black" stroke-width="0.300903"/>
<path d="M115.316 129.801L114.865 133.871H119.52L119.069 129.801H115.316Z" fill="#C1C1C1" stroke="black" stroke-width="0.300903"/>
<path d="M115.616 128.594L115.315 129.8H119.069L118.769 128.594H115.616Z" fill="white" stroke="black" stroke-width="0.300903"/>
<path d="M115.916 132.664L115.315 136.885H119.97L119.52 132.664H115.916Z" fill="#C1C1C1" stroke="black" stroke-width="0.300903"/>
<path d="M116.066 131.457L115.916 132.663H119.52L119.369 131.457H116.066Z" fill="white" stroke="black" stroke-width="0.300903"/>
<path d="M120.27 129.801L119.819 133.871H124.324L124.024 129.801H120.27Z" fill="#C1C1C1" stroke="black" stroke-width="0.300903"/>
<path d="M120.421 128.594L120.271 129.8H124.024L123.724 128.594H120.421Z" fill="white" stroke="black" stroke-width="0.300903"/>
<path d="M120.721 132.664L120.271 136.885H124.775L124.325 132.664H120.721Z" fill="#C1C1C1" stroke="black" stroke-width="0.300903"/>
<path d="M120.871 131.457L120.721 132.663H124.324L124.174 131.457H120.871Z" fill="white" stroke="black" stroke-width="0.300903"/>
<path d="M121.322 136.43L120.871 140.651H125.526L125.075 136.43H121.322Z" fill="#C1C1C1" stroke="black" stroke-width="0.300903"/>
<path d="M121.622 135.227L121.321 136.433H125.075L124.775 135.227H121.622Z" fill="white" stroke="black" stroke-width="0.300903"/>
<path d="M23.273 136.582L22.9727 140.803H27.4772L27.0267 136.582H23.273Z" fill="#C1C1C1" stroke="black" stroke-width="0.300903"/>
<path d="M23.5737 135.375L23.2734 136.581H27.0272L26.877 135.375H23.5737Z" fill="white" stroke="black" stroke-width="0.300903"/>
<path d="M33.0335 136.582L32.583 140.803H37.2377L36.7872 136.582H33.0335Z" fill="#C1C1C1" stroke="black" stroke-width="0.300903"/>
<path d="M33.3335 135.375L33.0332 136.581H36.787L36.4867 135.375H33.3335Z" fill="white" stroke="black" stroke-width="0.300903"/>
<path d="M80.4807 136.582L80.0303 140.803H84.6849L84.2345 136.582H80.4807Z" fill="#C1C1C1" stroke="black" stroke-width="0.300903"/>
<path d="M80.7808 135.375L80.4805 136.581H84.2342L83.9339 135.375H80.7808Z" fill="white" stroke="black" stroke-width="0.300903"/>
<path d="M27.928 136.582L27.4775 140.803H32.1322L31.6817 136.582H27.928Z" fill="#C1C1C1" stroke="black" stroke-width="0.300903"/>
<path d="M28.228 135.375L27.9277 136.581H31.6815L31.3812 135.375H28.228Z" fill="white" stroke="black" stroke-width="0.300903"/>
<path d="M75.9756 136.582L75.375 140.803H80.0297L79.5792 136.582H75.9756Z" fill="#C1C1C1" stroke="black" stroke-width="0.300903"/>
<path d="M76.1257 135.375L75.9756 136.581H79.5792L79.429 135.375H76.1257Z" fill="white" stroke="black" stroke-width="0.300903"/>
<path d="M23.5737 120L23.2734 121.206H27.0272L26.877 120H23.5737Z" fill="white" stroke="black" stroke-width="0.300903"/>
<path d="M37.6878 136.733L37.2373 140.803H75.3754L74.925 136.582L37.6878 136.733Z" fill="#C1C1C1" stroke="black" stroke-width="0.300903"/>
<path d="M37.8377 135.375L37.6875 136.732L74.9247 136.581L73.5734 135.375H37.8377Z" fill="white" stroke="black" stroke-width="0.300903"/>
<path d="M116.366 136.43L115.916 140.651H120.571L120.12 136.43H116.366Z" fill="#C1C1C1" stroke="black" stroke-width="0.300903"/>
<path d="M116.667 135.227L116.366 136.433H120.12L119.82 135.227H116.667Z" fill="white" stroke="black" stroke-width="0.300903"/>
<path d="M111.562 136.43L111.262 140.651H115.766L115.316 136.43H111.562Z" fill="#C1C1C1" stroke="black" stroke-width="0.300903"/>
<path d="M111.862 135.227L111.562 136.433H115.315L115.165 135.227H111.862Z" fill="white" stroke="black" stroke-width="0.300903"/>
<path d="M138.138 146.081H16.5166V145.629H138.138V146.081Z" fill="#E8E8E8"/>
<path d="M138.138 146.078V146.53H16.5166V146.078H138.138Z" fill="#E0E0E0"/>
<path d="M138.138 146.531V146.984H16.5166V146.531H138.138Z" fill="#D6D6D6"/>
<path d="M138.138 146.984V147.437H16.5166V146.984H138.138Z" fill="#CECECE"/>
<path d="M138.138 147.438V147.89H16.5166V147.438H138.138Z" fill="#C4C4C4"/>
<path d="M138.138 147.891V148.343H16.5166V147.891H138.138Z" fill="#BCBCBC"/>
<path d="M138.138 148.34V148.792H16.5166V148.34H138.138Z" fill="#B5B5B5"/>
<path d="M138.138 148.797V149.249H16.5166V148.797H138.138Z" fill="#ADADAD"/>
<path d="M138.138 149.246V149.548H16.5166V149.246H138.138Z" fill="#A3A3A3"/>
<path d="M138.138 149.547V149.999H16.5166V149.547H138.138Z" fill="#9B9B9B"/>
<path d="M16.5166 145.629V150.001H138.138V145.629H16.5166Z" stroke="black" stroke-width="0.300903"/>
</g>
<defs>
<clipPath id="clip0_2109_172155">
<rect width="150" height="150" fill="white"/>
</clipPath>
</defs>
</svg>
