<svg width="150" height="150" viewBox="0 0 150 150" fill="none" xmlns="http://www.w3.org/2000/svg">
<g clip-path="url(#clip0_2109_194475)">
<path d="M138.446 148.949L133.906 150H16.5062L11.5543 148.949L7.42779 147.297L3.50757 144.595L1.23796 141.441L0 138.288V134.535L1.23796 131.081L47.0426 34.0841V6.75676H42.2971V0H107.909V6.75676H102.957V34.0841L148.762 131.081L150 134.535V138.288L148.762 141.441L146.286 144.595L142.572 147.297L138.446 148.949Z" fill="#7F7F7F"/>
<path d="M134.319 145.492L130.193 146.693H20.2204L15.6812 145.492L11.5546 143.991L8.25339 141.288L6.19011 138.285L4.95215 134.982V131.378L6.19011 128.075L51.5821 33.1799V6.45312H98.4184V33.1799L144.223 128.075L145.461 131.378V134.982L144.223 138.285L141.747 141.288L138.446 143.991L134.319 145.492Z" fill="#B2B2B2"/>
<path d="M44.3604 1.64844H105.433V5.10189H44.3604V1.64844Z" fill="#B2B2B2"/>
<path d="M132.668 143.991L128.129 144.741H21.6639L17.7437 143.991L13.6171 142.039L10.7285 139.786L8.25261 136.633L7.01465 133.48V129.877L8.25261 126.573L53.851 32.8796V6.45312H95.9417V32.8796L141.746 126.573L142.984 129.877V133.48L141.746 136.633L139.683 139.786L136.382 142.039L132.668 143.991Z" fill="#CCCCCC"/>
<path d="M128.542 142.039L124.415 143.09H25.3781L21.4579 142.039L18.1566 140.687L14.8554 138.285L12.7921 135.132L11.9668 131.979V128.375L12.7921 125.072L55.5019 32.5793V6.45312H94.7041V32.5793L137.208 125.072L138.445 128.375V131.979L137.208 135.132L135.144 138.285L132.256 140.687L128.542 142.039Z" fill="#E5E5E5"/>
<path d="M56.3271 32.2812H93.8787V34.0831H56.3271V32.2812Z" fill="#CCCCCC"/>
<path d="M86.8643 40.6875H93.8794L128.955 122.669H121.94L86.8643 40.6875Z" fill="white"/>
<path d="M56.3271 136.484H93.8787" stroke="white" stroke-width="0.352023"/>
<path d="M56.3271 129.578H93.8787" stroke="white" stroke-width="0.352023"/>
<path d="M56.3271 122.672H93.8787" stroke="white" stroke-width="0.352023"/>
<path d="M56.3271 116.062H93.8787" stroke="white" stroke-width="0.352023"/>
<path d="M56.3271 109.156H93.8787" stroke="white" stroke-width="0.352023"/>
<path d="M56.3271 102.25H93.8787" stroke="white" stroke-width="0.352023"/>
<path d="M56.3271 95.3438H93.8787" stroke="white" stroke-width="0.352023"/>
<path d="M56.3271 88.4375H93.8787" stroke="white" stroke-width="0.352023"/>
<path d="M56.3271 81.8281H93.8787" stroke="white" stroke-width="0.352023"/>
<path d="M56.3271 74.9219H93.8787" stroke="white" stroke-width="0.352023"/>
<path d="M56.3271 68.0156H93.8787" stroke="white" stroke-width="0.352023"/>
<path d="M56.3271 61.4141H93.8787" stroke="white" stroke-width="0.352023"/>
<path d="M56.3271 54.2031H93.8787" stroke="white" stroke-width="0.352023"/>
<path d="M56.3271 47.5938H93.8787" stroke="white" stroke-width="0.352023"/>
<path d="M56.3271 40.9922H93.8787" stroke="white" stroke-width="0.352023"/>
</g>
<defs>
<clipPath id="clip0_2109_194475">
<rect width="150" height="150" fill="white"/>
</clipPath>
</defs>
</svg>
