<svg width="150" height="150" viewBox="0 0 150 150" fill="none" xmlns="http://www.w3.org/2000/svg">
<g clip-path="url(#clip0_2109_194709)">
<path d="M150 150H0V0H150V150Z" fill="#BFD3F2" stroke="black" stroke-width="0.3003"/>
<path d="M136.787 58.8586L132.133 54.9547L119.069 51.201L98.1986 49.0989L74.9253 48.6484L51.6521 49.0989L30.7812 51.201L17.7181 54.9547L13.0635 58.8586L18.0184 71.4713L31.2316 79.1289V102.552L36.3368 107.657L49.0995 115.615L33.7842 130.931H116.066L100.751 115.615L113.514 107.657L118.619 102.552V79.1289L131.832 71.4713L136.787 58.8586Z" fill="#E5E5E5" stroke="black" stroke-width="0.3003"/>
<path d="M74.9245 68.0199C106.353 68.0199 131.831 64.2554 131.831 59.6115C131.831 54.9677 106.353 51.2031 74.9245 51.2031C43.4957 51.2031 18.0176 54.9677 18.0176 59.6115C18.0176 64.2554 43.4957 68.0199 74.9245 68.0199Z" fill="#8CA0BF" stroke="black" stroke-width="0.3003"/>
<path d="M109.31 29.5781L82.583 67.7163L103.304 67.2658L118.169 34.6832L109.31 29.5781Z" fill="#E5E5E5" stroke="black" stroke-width="0.3003"/>
<path d="M113.964 42.1939C119.603 42.1939 124.174 37.6226 124.174 31.9836C124.174 26.3447 119.603 21.7734 113.964 21.7734C108.325 21.7734 103.754 26.3447 103.754 31.9836C103.754 37.6226 108.325 42.1939 113.964 42.1939Z" fill="#8CA0BF" stroke="black" stroke-width="0.3003"/>
</g>
<defs>
<clipPath id="clip0_2109_194709">
<rect width="150" height="150" fill="white"/>
</clipPath>
</defs>
</svg>
