<svg width="150" height="150" viewBox="0 0 150 150" fill="none" xmlns="http://www.w3.org/2000/svg">
<g clip-path="url(#clip0_2109_194420)">
<path fill-rule="evenodd" clip-rule="evenodd" d="M0 7.50751L0.473186 7.20721L1.18297 6.90691L1.89274 6.75676L2.60252 6.60661L7.09779 5.85586L11.3565 5.1051L15.8517 4.5045L20.5836 3.75375L25.3155 3.15315L30.0473 2.7027L35.0158 2.1021L39.7476 1.65165L44.7161 1.35135L49.9211 0.900901L54.8896 0.750751L59.858 0.45045L65.0631 0.3003L70.0315 0.15015L75 0H79.9685H84.9369H89.9054L94.8738 0.15015L99.6057 0.3003L104.338 0.45045L108.833 0.750751L113.328 1.05105L117.823 1.35135L122.082 1.8018L126.104 2.25225L130.126 2.85285L133.912 3.45345L137.697 4.05405L141.009 4.8048L144.322 5.55556L147.397 6.30631L148.107 6.45646L149.054 6.90691L149.527 7.35736L150 7.80781L149.763 8.25826L149.054 9.00901L148.107 9.90991L146.924 11.1111L145.505 12.4625L143.849 14.2643L141.956 16.0661L139.826 18.1682L137.461 20.2703L135.095 22.6727L132.256 25.0751L129.653 27.6276L126.814 30.3303L123.975 33.033L120.899 35.7357L118.06 38.4384L114.984 41.1411L111.909 43.8438L109.069 46.5465L106.23 49.0991L103.628 51.6517L101.025 53.9039L98.4227 56.1562L96.2934 58.2583L93.9274 60.2102L92.0347 62.012L90.3785 63.5135L89.1956 64.8649L88.0126 65.9159L87.0662 66.6667L86.5931 67.1171L86.3565 67.2673V138.889L83.2808 139.79L80.4416 141.291L78.0757 143.093L75.9464 144.895L74.2902 146.697L72.8707 148.198L71.6877 149.249L70.7413 150H70.5047L70.0315 149.55V148.799L69.795 147.748V146.246V144.144L69.5584 141.742V138.589V67.2673L66.7192 65.1652L64.1167 63.0631L61.2776 60.961L58.2019 58.7087L55.3628 56.4565L52.2871 54.0541L49.4479 51.6517L46.3722 49.2492L43.2965 46.8468L40.4574 44.4444L37.3817 42.042L34.5426 39.6396L31.7035 37.2372L28.8644 34.8348L26.0252 32.5826L23.4227 30.3303L20.8202 28.0781L18.2177 25.8258L15.8517 23.7237L13.7224 21.7718L11.3565 19.8198L9.46372 18.018L7.57098 16.3664L5.91483 14.7147L4.49527 13.3634L3.07571 12.012L2.12934 10.8108L1.18297 9.90991L0.473186 9.00901L0 8.25826V7.80781V7.50751ZM2.60252 8.70871L4.02208 10.2102L5.44164 11.7117L7.09779 13.2132L8.51735 14.7147L10.1735 16.2162L11.8297 17.8679L13.7224 19.5195L15.3785 21.021L17.2713 22.8228L18.9274 24.4745L21.0568 26.1261L22.9495 27.7778L24.8423 29.5796L27.2082 31.3814L29.1009 33.033L31.2303 34.985L33.3596 36.7868L35.7256 38.5886L38.0915 40.5405L40.2208 42.3423L42.8233 44.2943L45.1893 46.2462L47.7918 48.1982L50.1577 50.1502L52.5237 52.2523L55.1262 54.2042L57.7287 56.3063L60.3312 58.4084L63.1703 60.5105L65.7729 62.6126L68.612 64.8649L71.2145 66.967V66.8168V67.2673V68.1682V69.5195V71.021V73.1231V75.2252V77.9279V80.6306V83.7838V86.9369V90.3904V93.8438V97.5976V101.201V105.105V108.859V112.613V116.366V120.12V123.574V127.027V130.33V133.483V136.336V138.889V141.291V143.393V145.045V146.396V147.297V147.898L71.4511 147.748L72.1609 146.847L73.3438 145.495L75 143.844L76.8927 142.042L79.0221 140.24L81.6246 138.889L83.9905 137.988L84.4637 67.2673L84.7003 66.967L85.1735 66.5165L86.1199 65.6156L87.5394 64.5646L88.959 63.0631L90.8517 61.4114L92.9811 59.4595L95.347 57.5075L97.7129 55.1051L100.315 52.8529L103.155 50.3003L105.994 47.5976L109.069 44.8949L112.145 42.042L115.221 39.3393L118.297 36.4865L121.136 33.6336L124.211 30.7808L127.05 28.0781L130.126 25.3754L132.729 22.8228L135.331 20.4204L137.697 18.1682L139.826 15.9159L141.719 14.1141L143.375 12.3123L144.795 10.8108L145.978 9.60961L146.688 8.70871L146.924 8.10811V7.80781H146.451L145.268 8.25826L143.375 8.70871L140.773 9.15916L137.934 9.60961L134.385 10.2102L130.363 10.6607L126.104 11.2613L121.372 11.7117L116.404 12.3123L111.199 12.7628L105.521 13.2132L99.8423 13.5135L94.164 13.8138L88.2492 14.1141H82.3344H76.4196L66.4827 13.964L57.4921 13.8138L48.9748 13.3634L41.4038 12.9129L34.5426 12.3123L28.3912 11.7117L22.9495 10.961L18.2177 10.3604L14.1956 9.90991L10.6467 9.30931L7.80757 8.85886L5.67823 8.40841L4.02208 8.25826H3.07571L2.60252 8.40841V8.70871ZM77.8391 12.9129H71.4511H65.0631L58.6751 12.6126L52.5237 12.3123L46.3722 12.012L40.4574 11.5616L34.7792 11.1111L29.5741 10.6607L24.6057 10.2102L20.1104 9.60961L16.0883 9.15916L12.776 8.70871L10.1735 8.25826L8.04416 7.80781L6.8612 7.50751L6.38801 7.20721L6.8612 7.05706L8.04416 6.75676L9.93691 6.45646L12.5394 6.00601L15.8517 5.55556L19.6372 5.1051L23.8959 4.65465L28.8644 4.05405L34.0694 3.6036L39.7476 3.003L45.6625 2.55255L52.0505 2.25225L58.4385 1.95195L65.2997 1.65165L71.9243 1.35135H78.7855L85.6467 1.2012L92.0347 1.35135L98.4227 1.5015L104.338 1.8018L110.016 2.25225L115.457 2.7027L120.426 3.15315L125.158 3.6036L129.416 4.35435L133.202 4.8048L136.514 5.40541L139.117 5.85586L141.246 6.30631L142.902 6.75676L143.849 7.05706L144.322 7.20721L143.849 7.50751L142.902 7.65766L141.009 8.10811L138.644 8.40841L135.804 9.00901L132.256 9.45946L128.47 9.90991L123.975 10.3604L119.006 10.8108L114.038 11.2613L108.596 11.5616L102.681 12.012L96.7666 12.3123L90.6151 12.6126L84.2271 12.9129H77.8391ZM30.7571 21.1712L32.8864 21.7718L35.0158 22.0721L36.9085 22.3724L38.5647 22.5225L39.9842 22.6727L41.1672 22.8228L41.877 23.1231L42.1136 23.4234L42.3502 24.024L42.5868 24.7748L43.0599 25.6757L43.5331 26.5766L44.0063 27.4775L44.7161 28.3784L45.4259 29.2793L46.1356 30.1802L46.8454 31.0811L47.5552 31.982L48.0284 32.7327L48.7382 33.6336L49.2114 34.3844L49.4479 34.985L49.6845 35.4354V35.8859L49.4479 36.036L48.5016 35.7357L47.3186 35.1351L45.6625 34.0841L43.5331 32.8829L41.6404 31.5315L39.2744 30.1802L37.1451 28.5285L35.0158 27.027L33.123 25.5255L31.4669 24.1742L30.2839 23.1231L29.3375 22.0721V21.4715L29.5741 21.1712H30.7571Z" fill="white"/>
<path d="M0 7.50751L7.09779 5.85586L15.8517 4.5045L25.3155 3.15315L35.0158 2.1021L44.7161 1.35135L54.8896 0.750751L65.0631 0.3003L70.0315 0.15015L75 0H79.9685H89.9054L99.6057 0.3003L108.833 0.750751L117.823 1.35135L126.104 2.25225L133.912 3.45345L141.009 4.8048L147.397 6.30631L149.527 7.35736L150 7.80781L149.763 8.25826L145.505 12.4625L141.956 16.0661L137.461 20.2703L132.256 25.0751L126.814 30.3303L120.899 35.7357L114.984 41.1411L109.069 46.5465L103.628 51.6517L98.4227 56.1562L93.9274 60.2102L90.3785 63.5135L86.5931 67.1171L86.3565 67.2673V138.889L80.4416 141.291L75.9464 144.895L71.6877 149.249L70.7413 150H70.5047L70.0315 149.55L69.795 144.144L69.5584 138.589V67.2673L64.1167 63.0631L58.2019 58.7087L52.2871 54.0541L46.3722 49.2492L40.4574 44.4444L34.5426 39.6396L28.8644 34.8348L23.4227 30.3303L18.2177 25.8258L13.7224 21.7718L9.46372 18.018L5.91483 14.7147L2.12934 10.8108L0 8.25826V7.80781V7.50751Z" stroke="black" stroke-width="0.376959"/>
<path d="M2.60254 8.70559L7.09781 13.2101L11.8297 17.8647L17.2713 22.8197L21.0568 26.123L24.8423 29.5765L29.101 33.0299L33.3596 36.7837L38.0915 40.5374L42.8234 44.2912L47.7918 48.1951L52.5237 52.2491L57.7287 56.3032L63.1704 60.5074L68.612 64.8617L71.2145 66.9638V66.8137V147.294V147.895L71.4511 147.745L75 143.841L79.0221 140.237L83.9905 137.985L84.4637 67.2641L88.959 63.0599L92.9811 59.4563L97.7129 55.102L103.155 50.2972L109.069 44.8918L115.221 39.3362L121.136 33.6305L127.05 28.075L132.729 22.8197L137.697 18.165L141.719 14.111L145.978 9.60649L146.688 8.70559L146.924 8.10499V7.80469L140.773 9.15604L134.385 10.2071L126.104 11.2581L116.404 12.3092L105.521 13.2101L94.1641 13.8107L82.3344 14.111H76.4196L66.4827 13.9608L57.4921 13.8107L48.9748 13.3602L41.4038 12.9098L34.5426 12.3092L22.9495 10.9578L14.1956 9.90679L7.80759 8.85574L3.07573 8.25514L2.60254 8.40529V8.70559Z" stroke="black" stroke-width="0.376959"/>
<path d="M75.2363 12.9148C113.26 12.9148 144.085 10.2931 144.085 7.05898C144.085 3.82488 113.26 1.20312 75.2363 1.20312C37.2123 1.20312 6.3877 3.82488 6.3877 7.05898C6.3877 10.2931 37.2123 12.9148 75.2363 12.9148Z" stroke="black" stroke-width="0.376959"/>
<path d="M30.7574 21.1719L32.8868 21.7725L35.0161 22.0728L38.565 22.5232L41.1675 22.8235L41.8773 23.1238L42.1139 23.4241L42.5871 24.7755L43.5335 26.5773L44.7164 28.3791L46.136 30.1809L47.5556 31.9827L48.7385 33.6343L49.4483 34.9857L49.6849 35.8866L49.4483 36.0367L47.319 35.1358L45.6628 34.0848L43.5335 32.8836L41.6407 31.5322L39.2748 30.1809L37.1455 28.5292L35.0161 27.0277L33.1234 25.5262L31.4672 24.1749L30.2843 23.1238L29.3379 22.0728V21.4722L29.5745 21.1719H30.7574Z" stroke="black" stroke-width="0.376959"/>
</g>
<defs>
<clipPath id="clip0_2109_194420">
<rect width="150" height="150" fill="white"/>
</clipPath>
</defs>
</svg>
