<svg width="150" height="150" viewBox="0 0 150 150" fill="none" xmlns="http://www.w3.org/2000/svg">
<g clip-path="url(#clip0_2109_194511)">
<path fill-rule="evenodd" clip-rule="evenodd" d="M142.857 8.10811H141.86L140.864 8.40841L139.867 8.55856L139.037 8.85886L138.206 9.30931L137.708 9.60961L137.375 10.0601L137.209 10.5105V142.643L136.877 143.694L135.88 144.595L134.053 145.495L131.894 146.246L129.07 146.997L125.748 147.598L121.927 148.048L117.774 148.499L113.123 148.949L108.306 149.249L103.156 149.55L97.6744 149.7L92.1927 149.85H86.5449L80.7309 150L74.9169 149.85L69.103 149.7L63.289 149.55L57.4751 149.399L51.9934 149.099L46.6777 148.799L41.5282 148.499L36.5448 148.048L32.0598 147.598L27.907 147.147L24.0864 146.547L20.7641 146.096L17.9402 145.495L15.6146 144.745L13.9535 144.144L12.9568 143.393L12.6246 142.643V10.8108V10.6607L12.4585 10.5105V10.2102L12.2924 10.0601L12.1262 9.75976L11.9601 9.45946L11.6279 9.30931L11.4618 9.15916L11.1296 8.85886L10.6312 8.55856L10.1329 8.40841L9.30233 8.10811L8.47176 7.80781L7.47508 7.50751L6.14618 7.35736H5.48173L4.65116 7.20721H3.98671L3.48837 7.05706L2.82392 6.90691L2.32558 6.75676L1.82724 6.60661L1.49502 6.45646L1.16279 6.15616L0.830565 6.00601L0.498339 5.85586L0.332226 5.70571L0.166113 5.55556H0V5.40541V5.1051L0.332226 4.8048L0.830565 4.5045L1.49502 4.2042L2.32558 4.05405L3.32226 3.75375L4.48505 3.45345L5.81395 3.15315L7.30897 3.003L8.9701 2.7027L10.7973 2.55255L12.7907 2.25225L14.7841 2.1021L16.9435 1.8018L19.4352 1.65165L21.7608 1.5015L24.4186 1.35135L27.0764 1.2012L29.9003 1.05105L32.8904 0.900901L35.8804 0.750751L39.0365 0.600601L42.1927 0.45045L45.5149 0.3003H48.8372L52.3256 0.15015H55.9801L59.6346 0H63.289H67.1096H70.9302H74.7508H78.5714H82.392H86.2126H89.8671L93.5216 0.15015H97.1761L100.664 0.3003L103.987 0.45045H107.309L110.631 0.600601L113.787 0.750751L116.777 0.900901L119.767 1.05105L122.591 1.2012L125.415 1.5015L128.073 1.65165L130.565 1.8018L132.89 1.95195L135.05 2.25225L137.209 2.4024L139.203 2.7027L141.03 2.85285L142.691 3.15315L144.186 3.3033L145.515 3.6036L146.678 3.75375L147.674 4.05405L148.505 4.35435L149.169 4.5045L149.668 4.8048L149.834 5.1051L150 5.40541H149.834V5.55556L149.668 5.70571V6.00601L149.336 6.15616L149.169 6.30631L148.837 6.60661L148.505 6.75676L148.007 6.90691L147.508 7.20721L146.844 7.35736L146.346 7.50751L145.515 7.65766L144.684 7.80781L143.854 7.95796L142.857 8.10811ZM135.548 142.492V12.9129V12.6126V12.1622V11.5616V10.961V10.3604V9.75976V9.45946V9.30931H131.395L127.243 9.45946L123.256 9.60961L119.269 9.75976H115.615L111.96 9.90991H108.472L104.983 10.0601H101.661H98.3389L95.0166 10.2102H91.6944H88.5382H85.216L82.0598 10.3604H78.9037H75.5814H72.2591H68.9369H65.6146H62.1262L58.4718 10.2102H54.8173H51.1628H47.1761L43.1894 10.0601H39.0365L34.7176 9.90991H30.2326L25.5814 9.75976H20.7641L15.6146 9.60961H15.2824L15.1163 9.75976L14.9502 9.90991V10.2102V10.8108V11.4114V12.1622V13.2132L14.6179 141.592L14.7841 141.892L14.9502 142.042L15.4485 142.342L16.113 142.643L16.9435 142.943L17.9402 143.243L19.103 143.544L20.2658 143.844L21.7608 144.144L23.2558 144.444L25.0831 144.745L26.9103 144.895L28.7375 145.195L30.897 145.495L33.0565 145.646L35.3821 145.946L37.7076 146.096L40.1993 146.396L42.691 146.547L45.1827 146.697L47.8405 146.997H50.6645L53.3223 147.147L56.3123 147.297L59.1362 147.447H61.9601L64.9502 147.598H67.9402H70.9302H73.9203H76.7442H79.7342H84.8837H89.701H94.1861L98.3389 147.447H102.159L105.814 147.297L109.136 147.147L112.126 146.997L114.95 146.847L117.608 146.697L119.934 146.547L122.093 146.396L124.086 146.096L125.748 145.946L127.409 145.646L128.738 145.495L129.9 145.195L131.063 145.045L131.894 144.745L132.724 144.595L133.389 144.294L133.887 144.144L134.385 143.844L134.718 143.694L135.05 143.393L135.216 143.243L135.382 143.093L135.548 142.943V142.793V142.643V142.492ZM21.9269 18.9189L22.093 18.6186L22.2591 18.3183L22.5914 18.018L23.0897 17.8679L23.588 17.7177L24.0864 17.5676H24.7508H25.4153H26.0797L26.5781 17.7177L27.2425 17.8679L27.7409 18.018L28.2392 18.1682L28.5714 18.3183L28.9037 18.6186L29.0698 18.9189V19.0691V19.2192V19.5195V19.97L29.2359 20.2703V20.8709V21.3213L29.402 21.9219V22.5225V23.2733V23.8739L29.5681 24.6246V25.5255V26.2763V27.1772L29.7342 28.0781V29.1291V30.03V31.0811L29.9003 32.1321V33.1832V34.2342V35.2853V36.4865V37.5375V38.7387V39.7898V40.991L29.7342 42.042V43.2432V44.4444V45.4955L29.5681 46.0961L29.402 46.2462L28.9037 46.3964L28.4053 46.2462L27.907 45.9459L27.4086 45.6456L26.7442 45.045L26.2458 44.4444L25.5814 43.6937L24.9169 42.9429L24.4186 42.1922L23.9203 41.4414L23.4219 40.5405L23.0897 39.7898L22.7575 39.1892V38.5886L21.9269 18.9189ZM47.3422 98.949L50 99.0991H52.8239L55.4817 99.2493H58.1395H60.7973L63.6213 99.3994H66.2791H68.9369L71.7608 99.5496H74.4186H77.0764H79.9003H82.5581L85.216 99.6997H88.0399H90.6977H93.3555H96.1794L98.8372 99.5496H101.661H104.319H106.977H109.801L112.625 99.3994H115.282H118.106L120.764 99.2493H123.588H126.246L129.07 99.0991H131.728L134.551 98.949V99.8499L131.728 100H129.07L126.246 100.15L123.588 100.3H120.93L118.272 100.45H115.615L112.791 100.601H110.133H107.475H104.817L102.159 100.751H99.5017H96.8439H94.1861H91.5282H88.8704H86.2126H83.5548H80.897L78.0731 100.601H75.4153H72.7575H69.9336L67.1096 100.45H64.4518L61.6279 100.3H58.804L55.9801 100.15L53.1561 100H50.3322L47.3422 99.8499V98.949ZM47.01 110.961L49.6678 111.111H52.4917L55.1495 111.261H57.8073L60.4651 111.411H63.289H65.9468L68.6047 111.562H71.4286H74.0864L76.7442 111.712H79.5681H82.2259H84.8837H87.7076H90.3654H93.1894H95.8472H98.6711H101.329H103.987L106.811 111.562H109.468H112.292L114.95 111.411H117.774H120.432L123.256 111.261H125.914L128.738 111.111H131.395L134.219 110.961V112.012H131.395L128.738 112.162H126.08L123.256 112.312L120.598 112.462H117.94L115.282 112.613H112.625H109.967L107.309 112.763H104.651H101.993H99.1694H96.5116L93.8538 112.913H91.196H88.5382L85.8804 112.763H83.2226H80.5648H77.907H75.0831L72.4252 112.613H69.6013H66.9435L64.1196 112.462H61.2957L58.4718 112.312L55.6478 112.162H52.8239L50 112.012H47.01V110.961ZM48.0066 54.5045L50.8306 54.6547H53.4884L56.1462 54.8048H58.804L61.4618 54.955H64.2857H66.9435L69.6013 55.1051H72.2591H75.0831L77.7409 55.2553H80.3987H83.2226H85.8804H88.7043H91.3621H94.0199H96.8439H99.5017H102.326H104.983L107.807 55.1051H110.465H113.289L115.947 54.955H118.771H121.429L124.252 54.8048H126.91L129.734 54.6547H132.392L135.216 54.5045V55.2553H132.558L129.734 55.4054L127.076 55.5556L124.252 55.7057L121.595 55.8559H118.937L116.279 56.006H113.621H110.963L108.306 56.1562H105.482L102.824 56.3063H100.166H97.5083H94.8505H92.1927H89.5349H86.8771H84.2193H81.5615L78.9037 56.1562H76.0797L73.4219 56.006H70.598H67.9402L65.1163 55.8559H62.2924L59.4684 55.7057L56.6445 55.5556L53.8206 55.4054L50.9967 55.2553H48.0066V54.5045ZM47.6744 64.8649L50.4983 65.015H53.1561L55.814 65.1652H58.4718L61.2957 65.3153H63.9535L66.6113 65.4655H69.4352L72.093 65.6156H74.7508H77.5748H80.2326H83.0565L85.7143 65.7658H88.3721H91.196H93.8538H96.6777L99.3355 65.6156H102.159H104.817H107.641H110.299L113.123 65.4655H115.781L118.439 65.3153H121.262L123.92 65.1652H126.744L129.402 65.015H132.226L134.884 64.8649V65.7658H132.226L129.402 65.9159L126.744 66.0661H124.086L121.429 66.2162H118.771L116.113 66.3664H113.289H110.631L107.973 66.5165H105.316H102.658L100 66.6667H97.3422H94.6844H92.0266H89.3688H86.711H84.0532L81.2292 66.5165H78.5714H75.9136L73.0897 66.3664H70.4319H67.608L64.7841 66.2162H61.9601L59.1362 66.0661H56.3123L53.4884 65.9159L50.6645 65.7658H47.6744V64.8649ZM47.6744 75.0751L50.4983 75.2252L53.1561 75.3754H55.814L58.4718 75.5255H61.2957L63.9535 75.6757H66.6113L69.2691 75.8258H72.093H74.7508H77.4086L80.2326 75.976H82.8904H85.5482H88.3721H91.0299H93.8538H96.5116H99.1694H101.993L104.651 75.8258H107.475H110.133H112.957L115.615 75.6757H118.439L121.096 75.5255H123.92L126.578 75.3754H129.402L132.06 75.2252L134.884 75.0751V75.976L132.226 76.1261L129.402 76.2763H126.744L123.92 76.4264H121.262L118.605 76.5766H115.781L113.123 76.7267H110.465H107.807L105.15 76.8769H102.492H99.8339H97.1761H94.5183H91.6944H89.0365H86.3787H83.7209H81.0631H78.4053L75.5814 76.7267H72.9236H70.0997L67.4419 76.5766H64.6179L61.9601 76.4264H59.1362L56.3123 76.2763H53.4884L50.6645 76.1261L47.6744 75.976V75.0751ZM47.3422 86.9369H50L52.8239 87.0871H55.4817L58.1395 87.2372H60.7973H63.6213L66.2791 87.3874H68.9369H71.7608L74.4186 87.5375H77.0764H79.9003H82.5581H85.216H88.0399H90.6977H93.3555H96.1794H98.8372H101.661H104.319H106.977L109.801 87.3874H112.625H115.282L118.106 87.2372H120.764H123.588L126.246 87.0871H129.07L131.728 86.9369H134.551V87.8378H131.728L129.07 87.988L126.246 88.1381H123.588L120.93 88.2883H118.106L115.449 88.4384H112.791L110.133 88.5886H107.475H104.817H102.159H99.5017L96.8439 88.7387H94.1861H91.3621H88.7043H86.0465L83.3887 88.5886H80.7309H77.907H75.2492H72.5914L69.7674 88.4384H67.1096L64.2857 88.2883H61.4618L58.804 88.1381H55.9801L53.1561 87.988L50.3322 87.8378H47.3422V86.9369ZM74.7508 1.35135H78.4053H81.8937L85.5482 1.5015H89.0365H92.3588H95.8472L99.1694 1.65165L102.326 1.8018H105.482L108.638 1.95195L111.628 2.1021H114.618L117.442 2.25225L120.266 2.4024L122.924 2.55255L125.415 2.7027L127.741 2.85285L130.066 3.003L132.226 3.15315L134.385 3.3033L136.213 3.45345L138.04 3.6036L139.701 3.75375L141.03 3.9039L142.525 4.2042L143.522 4.35435L144.518 4.5045L145.515 4.65465L146.013 4.8048L146.512 4.95496L146.844 5.1051L147.01 5.40541L146.844 5.55556L146.512 5.70571L146.013 5.85586L145.515 6.00601L144.518 6.15616L143.522 6.30631L142.525 6.45646H141.03L139.701 6.60661L138.04 6.75676L136.213 6.90691L134.385 7.05706H132.226L130.066 7.20721H127.741L125.415 7.35736L122.924 7.50751H120.266L117.442 7.65766H114.618L111.628 7.80781H108.638H105.482H102.326L99.1694 7.95796H95.8472H92.3588H89.0365H85.5482L81.8937 8.10811H78.4053H74.7508H71.0963H67.4419L63.9535 7.95796H60.299H56.9767H53.4884H50.1661L47.01 7.80781H43.8538H40.6977H37.7076L34.7176 7.65766H32.0598L29.2359 7.50751H26.7442L24.2525 7.35736L21.7608 7.20721H19.6013L17.4419 7.05706H15.4485L13.6213 6.90691L11.9601 6.75676L10.299 6.60661L8.80399 6.45646H7.6412L6.47841 6.30631L5.48173 6.15616L4.65116 6.00601L4.15282 5.85586L3.65449 5.70571L3.32226 5.55556L3.15615 5.40541L3.32226 5.1051L3.65449 4.95496L4.15282 4.8048L4.65116 4.5045L5.48173 4.35435L6.47841 4.2042L7.6412 4.05405L8.80399 3.75375L10.299 3.6036L11.9601 3.45345L13.6213 3.3033L15.4485 3.15315L17.4419 3.003L19.6013 2.85285L21.7608 2.7027L24.2525 2.55255L26.7442 2.4024L29.2359 2.25225H32.0598L34.7176 2.1021L37.7076 1.95195L40.6977 1.8018H43.8538L47.01 1.65165H50.1661L53.4884 1.5015H56.9767H60.299L63.9535 1.35135H67.4419H71.0963H74.7508ZM7.6412 5.40541L14.6179 5.55556L16.6113 5.40541L18.6047 5.25526L20.598 5.1051H22.7575L24.9169 4.95496L27.2425 4.8048L29.402 4.65465H31.7276L34.2193 4.5045H36.711L39.2027 4.35435H41.6944L44.186 4.2042H46.6777H49.3355L51.8272 4.05405H54.4851H57.1429H59.8007H62.4585H65.1163H67.608H70.2658H72.7575H75.4153H77.907H80.3987H82.8904H85.3821H87.8738H90.1993H92.5249H94.8505H97.3422H99.6678L101.827 4.2042H103.987H106.146H108.306L110.299 4.35435H112.126L113.953 4.5045H115.781H117.608L119.103 4.65465H120.764L122.259 4.8048H123.588L124.917 4.95496H126.246L127.409 5.1051H128.571L129.568 5.25526H130.399L131.395 5.40541H132.06H132.89L133.389 5.55556H133.887H134.385H134.718H134.884H135.216L140.698 5.40541L140.532 5.25526H140.033H139.203L138.04 5.1051L136.379 4.95496L134.551 4.8048L132.392 4.65465L129.9 4.5045L127.076 4.35435L123.92 4.05405L120.598 3.9039L116.944 3.75375L113.123 3.6036L108.97 3.45345L104.651 3.15315L100.166 3.003L95.3488 2.85285H90.5316L85.3821 2.7027H80.0664H74.5847H68.9369H63.289L57.4751 2.85285H51.495L45.3488 3.15315L39.2027 3.3033L33.0565 3.6036L26.7442 3.9039L20.4319 4.35435L13.9535 4.8048L7.6412 5.40541Z" fill="white"/>
<path d="M142.857 8.10811L138.206 9.30931L137.375 10.0601L137.209 10.5105V142.643L136.877 143.694L131.894 146.246L125.748 147.598L117.774 148.498L113.123 148.949L108.306 149.249L103.156 149.55L97.6744 149.7L92.1927 149.85H86.5449L80.7309 150L74.9169 149.85L69.103 149.7L63.289 149.55L57.4751 149.399L51.9934 149.099L46.6777 148.799L41.5282 148.498L36.5449 148.048L27.907 147.147L20.7641 146.096L15.6146 144.745L12.9568 143.393L12.6246 142.643V10.6607L8.47176 7.80781L3.48837 7.05706L0 5.40541V5.10511L4.48505 3.45345L10.7973 2.55255L16.9435 1.8018L21.7608 1.5015L27.0764 1.2012L32.8904 0.900901L39.0365 0.600601L45.515 0.3003L52.3256 0.15015L59.6346 0H67.1096H70.9302H74.7508H82.392H89.8671L97.1761 0.15015L103.987 0.45045L110.631 0.600601L116.777 0.900901L122.591 1.2012L128.073 1.65165L132.89 1.95195L139.203 2.7027L144.186 3.3033L149.169 4.5045L149.834 5.10511L150 5.40541H149.834L145.515 7.65766L142.857 8.10811Z" stroke="black" stroke-width="0.31586"/>
<path d="M135.548 142.496V12.9161V12.6158V12.1654V9.46265V9.3125H131.396L123.256 9.6128L115.615 9.76295L108.472 9.9131L101.661 10.0633L95.0168 10.2134H88.5384L82.06 10.3636H75.5816H68.9371H62.1265L54.8175 10.2134H47.1763L39.0368 10.0633L30.2328 9.9131L20.7643 9.76295L15.6148 9.6128H15.2826L15.1165 9.76295L14.9504 13.2164L14.6182 141.595L14.7843 141.895L19.1032 143.547L25.0833 144.748L30.8972 145.499L37.7079 146.099L42.6913 146.55L47.8408 147L53.3225 147.15L59.1364 147.451L64.9504 147.601H67.9404H70.9305H73.9205H79.7344H89.7012L98.3391 147.451L105.814 147.3L112.126 147L117.608 146.7L124.087 146.099L128.738 145.499L133.389 144.297L135.548 142.496Z" stroke="black" stroke-width="0.31586"/>
<path d="M21.9268 18.9217L22.0929 18.6214L23.5879 17.7205L24.0862 17.5703H24.7507H25.4151L27.2424 17.8706L28.5713 18.3211L29.0696 19.9727L29.2357 21.3241L29.4018 23.276L29.568 24.6274V26.279L29.7341 28.0808V30.0328L29.9002 32.1349V33.1859V34.237V35.288V39.7925L29.7341 42.0448V44.4472L29.568 46.0988L29.4018 46.249L28.9035 46.3991L28.4052 46.249L26.744 45.0478L25.5812 43.6964L24.4185 42.1949L23.4218 40.5433L22.7573 39.1919V38.5913L21.9268 18.9217Z" stroke="black" stroke-width="0.31586"/>
<path d="M47.3418 98.9453L52.8235 99.0955L58.1391 99.2456L63.6209 99.3958H68.9365L74.4182 99.5459H79.8999L85.2156 99.6961H96.179L101.661 99.5459H106.976L112.624 99.3958H118.106L123.588 99.2456L129.069 99.0955H131.727L134.551 98.9453V99.8462L129.069 99.9964L123.588 100.297L118.272 100.447L112.79 100.597H107.475L102.159 100.747H99.5013H96.8435H94.1857H86.2122H80.8966L75.4149 100.597H69.9332L64.4514 100.447L58.8036 100.297L53.1558 99.9964H50.3318L47.3418 99.8462V98.9453Z" stroke="black" stroke-width="0.31586"/>
<path d="M47.0098 110.961L52.4915 111.111L57.8071 111.261L63.2888 111.411L68.6045 111.562H74.0862L79.5679 111.712H84.8835H95.847H101.329L106.81 111.562H112.292L117.774 111.411L123.256 111.261L128.737 111.111H131.395L134.219 110.961V112.012L128.737 112.162L123.256 112.312L117.94 112.462L112.624 112.613L107.309 112.763H101.993H96.5114L93.8536 112.913H91.1958L85.8802 112.763H80.5646H75.0829L69.6011 112.613L64.1194 112.462L58.4716 112.312L52.8237 112.162L49.9998 112.012H47.0098V110.961Z" stroke="black" stroke-width="0.31586"/>
<path d="M48.0068 54.5078L53.4886 54.658L58.8042 54.8081L64.2859 54.9583L69.6015 55.1084H75.0832L80.3989 55.2586H85.8806H96.844H102.326L107.808 55.1084H113.289L118.771 54.9583L124.253 54.8081L129.734 54.658H132.392L135.216 54.5078V55.2586L129.734 55.4087L124.253 55.709L118.937 55.8592L113.621 56.0093L108.306 56.1595L102.824 56.3096H97.5085H94.8507H92.1929H86.8773H81.5617L76.0799 56.1595L70.5982 56.0093L65.1165 55.8592L59.4686 55.709L53.8208 55.4087L50.9969 55.2586H48.0068V54.5078Z" stroke="black" stroke-width="0.31586"/>
<path d="M47.6748 64.8672L53.1565 65.0173L58.4721 65.1675L63.9539 65.3176L69.4356 65.4678L74.7512 65.6179H80.2329L85.7147 65.7681H96.6781L102.16 65.6179H107.642L113.123 65.4678L118.439 65.3176L123.921 65.1675L129.402 65.0173H132.226L134.884 64.8672V65.7681L129.402 65.9182L124.087 66.0684L118.771 66.2185L113.289 66.3687L107.974 66.5188H102.658L97.3426 66.669H94.6848H92.027H86.7114L81.2296 66.5188H75.914L70.4323 66.3687L64.7844 66.2185L59.1366 66.0684L53.4888 65.9182L50.6648 65.7681H47.6748V64.8672Z" stroke="black" stroke-width="0.31586"/>
<path d="M47.6748 75.0781L53.1565 75.3784L58.4721 75.5286L63.9539 75.6787L69.2695 75.8289H74.7512L80.2329 75.979H85.5486H91.0303H96.512H101.994L107.475 75.8289H112.957L118.439 75.6787L123.921 75.5286L129.402 75.3784L132.06 75.2283L134.884 75.0781V75.979L129.402 76.2793L123.921 76.4295L118.605 76.5796L113.123 76.7298H107.808L102.492 76.8799H97.1765H94.5187H91.6947H86.3791H81.0635L75.5818 76.7298H70.1001L64.6183 76.5796L59.1366 76.4295L53.4888 76.2793L50.6648 76.1292L47.6748 75.979V75.0781Z" stroke="black" stroke-width="0.31586"/>
<path d="M47.3418 86.9375L52.8235 87.0877L58.1391 87.2378H63.6209L68.9365 87.388L74.4182 87.5381H79.8999H85.2156H96.179H101.661H106.976L112.624 87.388L118.106 87.2378H123.588L129.069 87.0877L131.727 86.9375H134.551V87.8384L129.069 87.9886L123.588 88.1387L118.106 88.2889L112.79 88.439L107.475 88.5892H102.159H99.5013L96.8435 88.7393H94.1857H86.0461L80.7305 88.5892H75.2488L69.767 88.439L64.2853 88.2889L58.8036 88.1387L53.1558 87.9886L50.3318 87.8384H47.3418V86.9375Z" stroke="black" stroke-width="0.31586"/>
<path d="M75.0832 7.95817C114.807 7.95817 147.01 6.47923 147.01 4.65487C147.01 2.8305 114.807 1.35156 75.0832 1.35156C35.359 1.35156 3.15625 2.8305 3.15625 4.65487C3.15625 6.47923 35.359 7.95817 75.0832 7.95817Z" stroke="black" stroke-width="0.31586"/>
<path d="M7.6416 5.40583L14.6183 5.55598L20.5984 5.10553L27.2429 4.80523L34.2197 4.50493L39.2031 4.35478L44.1864 4.20463H49.336L54.4855 4.05448H59.8011H65.1167H80.3991H85.3825H92.5253H99.6682L106.147 4.20463L112.127 4.35478L117.608 4.50493L123.588 4.80523L128.572 5.10553L133.389 5.55598H134.884H135.216L140.698 5.40583L134.552 4.80523L127.077 4.35478L120.598 3.90433L113.123 3.60403L104.652 3.15358L95.3492 2.85328H90.532L85.3825 2.70312H80.0668H74.5851H68.9373H63.2894L57.4755 2.85328H51.4954L45.3492 3.15358L39.2031 3.30373L33.0569 3.60403L26.7446 3.90433L20.4323 4.35478L13.9539 4.80523L7.6416 5.40583Z" stroke="black" stroke-width="0.31586"/>
</g>
<defs>
<clipPath id="clip0_2109_194511">
<rect width="150" height="150" fill="white"/>
</clipPath>
</defs>
</svg>
