<svg width="150" height="150" viewBox="0 0 150 150" fill="none" xmlns="http://www.w3.org/2000/svg">
<g clip-path="url(#clip0_2109_194558)">
<path fill-rule="evenodd" clip-rule="evenodd" d="M119.67 80.7895L120.27 80.2632L121.471 79.4737L122.973 78.6842L124.474 78.1579L126.126 77.6316L127.477 77.3684H128.529L129.129 77.6316V79.4737L129.279 81.5789V83.9474V86.3158L129.129 89.2105L128.829 91.5789L128.378 94.2105L127.928 96.3158L127.628 97.3684L127.327 98.9474L126.877 100.526L126.426 102.368L125.976 104.211L125.526 105.789L125.075 107.105L124.625 108.158L123.874 109.474L123.123 111.053L122.372 112.368L121.471 113.684L120.721 115L119.82 116.316L119.069 117.632L118.168 118.684L117.117 119.737L116.216 120.789L115.165 121.579L114.114 122.105L113.063 122.632L112.012 123.158H110.811H109.61L109.309 122.895L109.459 122.368L109.76 121.579L110.36 120.789L111.111 119.737L111.862 118.684L112.613 117.895L113.213 116.842L114.114 115L115.165 112.632L116.216 110.263L117.117 107.895L118.018 105.526L118.769 102.895L119.219 100.526L119.67 97.8947L119.82 96.0526V93.9474V91.8421V89.4737V87.1053L119.67 84.7368V82.6316V80.7895ZM17.5676 75.7895L17.4174 77.1053V78.6842V80.2632V81.5789V83.1579V84.4737L17.5676 86.0526V87.6316V89.2105V90.7895L17.7177 92.6316L18.018 94.2105L18.3183 96.0526L18.7688 97.8947L19.2192 99.7368L19.6697 101.316L20.2703 103.158L20.8709 105L21.4715 106.579L22.2222 108.421L22.973 110L23.7237 111.579L24.4745 112.895L25.2252 114.474H25.5255L25.976 114.211H26.4264L26.7267 113.947L26.2763 112.368L25.8258 110.789L25.2252 109.211L24.6246 107.632L24.024 106.053L23.4234 104.474L22.973 103.158L22.5225 101.579L22.3724 99.2105L22.2222 96.8421V94.2105V91.5789L22.3724 88.9474V86.3158L22.5225 83.6842V81.3158V81.0526V80.5263V79.7368V78.9474L22.3724 78.4211V77.6316L22.2222 77.3684L21.9219 77.1053L17.5676 75.7895ZM75.2252 105.526L75.5255 105.263L75.6757 104.474L75.8258 103.684V102.632V101.842L75.6757 101.053L75.5255 100.526H75.2252L73.8739 102.105L72.6727 102.368L71.4715 101.579L70.5706 100.526L69.8198 99.4737L69.2192 98.9474L68.9189 99.2105L69.0691 100.526V101.842L68.9189 103.421L68.7688 105L68.6186 106.579V108.421L68.7688 110.263L69.2192 112.368L70.1201 114.474L70.8709 114.737L71.7718 115.526L72.8228 116.053L73.7237 116.579L74.3243 116.842L74.9249 117.105L75.2252 116.842L74.9249 116.316L74.024 113.947L73.5736 111.842L73.4234 110.263V108.684L73.7237 107.368L74.1742 106.579L74.7748 106.053L75.2252 105.526ZM2.55255 54.7368L2.1021 53.9474L1.8018 54.4737L1.65165 56.3158V58.9474L1.95195 62.6316L2.55255 67.1053L3.3033 72.1053L4.5045 77.6316L5.85586 83.4211L7.50751 89.7368L9.60961 96.0526L11.8619 102.632L14.7147 108.684L17.7177 114.737L21.3213 120.526L25.2252 125.789L27.3273 128.158L29.5796 130.263L31.8318 132.368L34.3844 134.474L36.9369 136.316L39.6396 137.895L42.3423 139.474L45.3453 141.053L48.3483 142.368L51.5015 143.421L54.8048 144.474L58.1081 145.263L61.5616 145.789L65.1652 146.316L68.7688 146.842H72.5225H74.6246H76.7267L78.6787 146.579H80.6306L82.5826 146.316L84.3844 146.053L86.3363 145.789L88.1381 145.263L89.9399 145L91.7417 144.474L93.3934 143.947L95.1952 143.421L96.8468 142.895L98.4985 142.105L100.15 141.579L101.652 140.789L103.303 140L104.805 139.211L106.156 138.421L107.658 137.632L109.159 136.842L110.511 135.789L111.862 134.737L113.213 133.947L114.414 132.895L115.766 131.842L116.967 130.526L118.168 129.474L119.219 128.158L120.42 127.105L121.471 125.789L122.523 124.737L127.027 118.947L131.081 112.895L134.535 106.842L137.538 100.526L140.09 94.2105L142.192 88.1579L143.994 82.1053L145.345 76.5789L146.396 71.3158L147.147 66.5789L147.598 62.6316L147.748 59.4737V57.1053L147.598 55.7895L147.147 55.2632L146.697 56.0526L146.096 57.3684L145.495 58.4211L144.595 59.4737L143.544 60.7895L142.342 61.8421L140.991 63.1579L139.489 64.4737L137.988 65.5263L136.186 66.8421L134.384 68.1579L132.432 69.2105L130.48 70.5263L128.378 71.8421L126.126 72.8947L123.724 74.2105L121.471 75.2632L119.069 76.3158L116.667 77.3684L114.114 78.4211L111.562 79.4737L109.159 80.5263L106.456 81.3158L103.904 82.1053L101.351 82.8947L98.7988 83.6842L96.2462 84.4737L93.6937 85L91.1411 85.5263L88.7387 86.0526L86.3363 86.5789L83.9339 86.8421L81.6817 87.1053L80.9309 87.6316L80.03 88.6842L79.1291 90.5263L78.2282 92.3684L77.3273 94.2105L76.2763 95.7895L75.3754 97.1053L74.3243 97.3684L73.4234 97.1053L72.3724 95.7895L71.3213 94.2105L70.2703 92.3684L69.2192 90.5263L68.3183 88.6842L67.4174 87.6316L66.6667 87.1053L64.8649 86.8421L62.9129 86.5789L60.961 86.3158L58.8589 86.0526L56.7568 85.7895L54.6547 85.2632L52.4024 85L50.1502 84.4737L47.7477 83.9474L45.3453 83.4211L43.0931 82.6316L40.6907 82.1053L38.4384 81.3158L36.036 80.5263L33.6336 79.7368L31.3814 78.6842L29.1291 77.6316L26.7267 76.5789L24.4745 75.5263L22.3724 74.4737L20.2703 73.1579L18.1682 71.8421L16.2162 70.5263L14.2643 68.9474L12.4625 67.3684L10.6607 65.7895L9.00901 64.2105L7.50751 62.3684L6.15616 60.5263L4.8048 58.6842L3.6036 56.8421L2.55255 54.7368ZM74.9249 2.10526H71.1712L67.4174 2.36842L63.8138 2.63158L60.2102 2.89474L56.7568 3.42105L53.3033 3.94737L49.6997 4.47368L46.3964 5.26316L43.2432 6.05263L40.0901 6.84211L37.0871 7.89474L34.0841 8.94737L31.2312 10L28.3784 11.3158L25.8258 12.3684L23.1231 13.6842L20.7207 15.2632L18.4685 16.5789L16.2162 18.1579L14.2643 19.7368L12.3123 21.3158L10.5105 23.1579L8.85886 24.7368L7.50751 26.5789L6.15616 28.4211L4.95496 30.2632L4.05405 32.1053L3.15315 34.2105L2.55255 36.0526L2.1021 38.1579L1.8018 40L1.65165 42.1053L1.8018 44.2105L1.95195 46.3158L2.4024 48.1579L3.003 50L3.75375 51.8421L4.5045 53.9474L5.55556 55.5263L6.75676 57.3684L7.95796 59.2105L9.45946 61.0526L10.961 62.6316L12.6126 64.2105L14.4144 65.7895L16.3664 67.3684L18.4685 68.9474L20.5706 70.2632L22.8228 71.5789L25.3754 72.8947L27.7778 74.2105L30.3303 75.5263L33.033 76.5789L35.8859 77.6316L38.7387 78.6842L41.7417 79.4737L44.7447 80.2632L47.8979 81.0526L51.2012 81.5789L54.5045 82.1053L57.958 82.6316L61.4114 82.8947L64.8649 83.1579L68.4685 83.4211L68.9189 83.6842L69.3694 85L69.8198 86.5789L70.4204 88.6842L71.1712 90.5263L72.0721 92.1053L73.1231 93.4211L74.3243 93.6842L75.2252 93.4211L76.1261 92.1053L77.027 90.7895L77.9279 88.9474L78.8288 86.8421L79.4294 85.5263L80.03 84.2105L80.4805 83.9474L84.0841 83.4211L87.5375 82.6316L90.991 82.1053L94.4444 81.3158L97.7477 80.5263L101.051 79.7368L104.204 78.9474L107.357 78.1579L110.36 77.1053L113.213 76.0526L116.066 75L118.769 73.9474L121.471 72.8947L124.024 71.5789L126.577 70.2632L128.829 68.9474L131.081 67.6316L133.183 66.3158L135.135 65L136.937 63.4211L138.589 61.8421L140.24 60.2632L141.742 58.6842L143.093 57.1053L144.144 55.5263L145.195 53.6842L146.096 51.8421L146.847 50L147.447 48.1579L147.898 46.3158L148.048 44.2105L148.198 42.1053L148.048 40L147.748 38.1579L147.297 36.0526L146.697 34.2105L145.796 32.1053L144.895 30.2632L143.694 28.4211L142.342 26.5789L140.991 24.7368L139.339 23.1579L137.538 21.3158L135.586 19.7368L133.634 18.1579L131.381 16.5789L129.129 15.2632L126.727 13.6842L124.024 12.3684L121.471 11.3158L118.619 10L115.766 8.94737L112.763 7.89474L109.76 6.84211L106.607 6.05263L103.453 5.26316L100.15 4.47368L96.5465 3.94737L93.0931 3.42105L89.6396 2.89474L86.036 2.63158L82.4324 2.36842L78.6787 2.10526H74.9249ZM74.9249 0H78.8288L82.7327 0.263158L86.4865 0.526316L90.2402 0.789474L93.8438 1.31579L97.4474 1.84211L101.051 2.36842L104.354 3.15789L107.808 3.94737L110.961 5L114.114 6.05263L117.117 7.10526L120.12 8.1579L122.823 9.47368L125.676 10.7895L128.228 12.1053L130.631 13.4211L133.033 15L135.285 16.5789L137.237 18.1579L139.189 20L140.991 21.5789L142.643 23.4211L144.144 25.2632L145.495 27.3684L146.547 29.2105L147.598 31.0526L148.348 33.1579L149.099 35.2632L149.55 37.3684L149.85 39.4737L150 41.5789V44.2105L149.85 46.8421L149.7 49.7368L149.55 52.8947L149.249 56.5789L148.949 60.2632L148.499 64.2105L147.898 68.1579L147.297 72.3684L146.396 76.8421L145.495 81.3158L144.444 85.7895L143.093 90.5263L141.742 95L140.09 99.7368L138.288 104.211L136.336 108.684L134.084 112.895L131.532 117.105L128.829 121.316L125.976 125.263L122.673 128.947L119.219 132.632L115.465 135.789L111.411 138.947L107.057 141.579L102.252 143.947L97.2973 146.053L91.8919 147.632L86.1862 148.684L80.1802 149.474L73.7237 150L67.2673 149.737L61.2613 149.211L55.5556 148.158L50.3003 146.579L45.1952 144.737L40.5405 142.368L36.3363 139.737L32.2823 136.842L28.6787 133.421L25.2252 130L22.0721 126.053L19.2192 122.105L16.6667 118.158L14.2643 113.947L12.1622 109.474L10.2102 105L8.55856 100.263L7.05706 95.7895L5.70571 91.0526L4.65465 86.3158L3.6036 81.8421L2.85285 77.3684L2.1021 72.8947L1.5015 68.4211L1.05105 64.4737L0.750751 60.5263L0.45045 56.5789L0.3003 53.1579L0.15015 49.7368L0 46.8421V44.2105V41.5789V39.4737L0.3003 37.3684L0.750751 35.2632L1.5015 33.1579L2.25225 31.0526L3.3033 29.2105L4.35435 27.3684L5.70571 25.2632L7.20721 23.4211L8.85886 21.5789L10.6607 20L12.6126 18.1579L14.5646 16.5789L16.8168 15L19.2192 13.4211L21.6216 12.1053L24.1742 10.7895L27.027 9.47368L29.7297 8.1579L32.7327 7.10526L35.7357 6.05263L38.8889 5L42.042 3.94737L45.4955 3.15789L48.7988 2.36842L52.4024 1.84211L56.006 1.31579L59.6096 0.789474L63.3634 0.526316L67.1171 0.263158L71.021 0H74.9249Z" fill="white"/>
<path d="M119.67 80.7882L120.271 80.2619L121.472 79.4725L122.973 78.683L124.475 78.1567L126.126 77.6303L127.478 77.3672H128.529L129.129 77.6303L129.28 81.5777V83.9461V86.3146L129.129 89.2093L128.829 91.5777L128.379 94.2093L127.928 96.3146L127.328 98.9461L126.427 102.367L125.526 105.788L124.625 108.157L123.123 111.051L121.472 113.683L119.82 116.315L118.168 118.683L116.216 120.788L114.114 122.104L112.012 123.157H110.811H109.61L109.31 122.894L109.46 122.367L110.361 120.788L111.862 118.683L113.213 116.841L114.114 114.999L115.165 112.63L116.216 110.262L117.117 107.894L118.018 105.525L118.769 102.894L119.219 100.525L119.67 97.8935L119.82 93.9461V89.4725L119.67 84.7356V80.7882Z" stroke="black" stroke-width="0.397559"/>
<path d="M17.5671 75.7891L17.417 77.1049V78.6838V80.2627V83.1575L17.5671 86.0522V89.2101L17.7173 92.6312L18.3179 96.0522L19.2188 99.7364L20.2698 103.157L21.471 106.579L22.9725 110L24.474 112.894L25.2248 114.473H25.5251L26.426 114.21L26.7263 113.947L26.2759 112.368L25.2248 109.21L24.0236 106.052L22.9725 103.157L22.5221 101.579L22.3719 99.2101L22.2218 96.8417V94.2101V91.5785L22.3719 88.947V86.3154L22.5221 83.6838V79.7364L22.3719 77.6312L22.2218 77.368L21.9215 77.1049L17.5671 75.7891Z" stroke="black" stroke-width="0.397559"/>
<path d="M75.2257 105.524L75.526 105.261L75.8263 102.63L75.526 100.524H75.2257L73.8744 102.103L72.6732 102.366L70.5711 100.524L69.2197 98.9453L68.9194 99.2085L69.0696 101.84L68.7693 104.998L68.6191 106.577L68.7693 110.261L69.2197 112.366L70.1206 114.472L71.7723 115.524L73.7242 116.577L74.9254 117.103L75.2257 116.84L74.9254 116.314L74.0245 113.945L73.5741 111.84L73.4239 108.682L74.1747 106.577L75.2257 105.524Z" stroke="black" stroke-width="0.397559"/>
<path d="M2.55227 54.7348L2.10182 53.9453L1.80152 54.4716L1.65137 56.3137V58.9453L2.55227 67.1032L4.50422 77.6295L5.85557 83.419L7.50722 89.7348L9.60933 96.0506L11.8616 102.63L14.7144 108.682L17.7174 114.735L21.321 120.524L25.2249 125.787L29.5793 130.261L34.3841 134.472L39.6394 137.893L45.3451 141.051L51.5012 143.419L58.1078 145.261L65.1649 146.314L68.7685 146.84H72.5222H74.6243L80.6303 146.577L86.3361 145.787L91.7415 144.472L96.8466 142.893L101.651 140.787L106.156 138.419L110.51 135.787L114.414 132.893L118.168 129.472L121.471 125.787L122.522 124.735L127.027 118.945L131.081 112.893L134.534 106.84L137.537 100.524L140.09 94.2085L142.192 88.1558L145.345 76.5769L147.147 66.5769L147.597 62.6295L147.747 59.4716V57.1032L147.597 55.7874L147.147 55.2611L143.543 60.7874L139.489 64.4716L134.384 68.1558L130.48 70.5243L126.126 72.8927L121.471 75.2611L116.666 77.3664L111.561 79.4716L106.456 81.3137L101.351 82.8927L96.246 84.4716L91.1409 85.5243L86.3361 86.5769L81.6814 87.1032L80.9306 87.6295L77.327 94.2085L75.3751 97.1032L74.324 97.3664L70.27 92.3664L67.4171 87.6295L62.9126 86.5769L56.7565 85.7874L52.4021 84.9979L47.7475 83.9453L43.0928 82.6295L38.4382 81.3137L33.6333 79.7348L29.1288 77.6295L24.4742 75.5243L20.27 73.1558L16.2159 70.5243L12.4622 67.3664L7.50722 62.3664L3.60332 56.84L2.55227 54.7348Z" stroke="black" stroke-width="0.397559"/>
<path d="M74.9246 2.10156L67.4171 2.36472L60.2099 2.89104L53.303 3.94367L46.3961 5.25946L40.0898 6.8384L34.0838 8.94367L28.3781 11.3121L23.1228 13.6805L18.4682 16.5752L14.264 19.7331L10.5102 23.1542L6.15587 28.4174L3.15287 34.2068L1.80152 39.9963L1.65137 42.1016L1.80152 44.2068L3.75347 51.8384L6.75647 57.3647L10.9607 62.6279L14.4141 65.7858L18.4682 68.9437L22.8225 71.5752L27.7775 74.2068L33.0327 76.5752L38.7385 78.6805L44.7445 80.2595L51.2009 81.5752L57.9577 82.6279L64.8646 83.1542L68.4682 83.4174L68.9186 83.6805L71.1709 90.5226L73.1228 93.4174L74.324 93.6805L75.2249 93.4174L78.8285 86.8384L80.0297 84.2068L80.4802 83.9437L87.5373 82.6279L94.4442 81.3121L101.051 79.7331L107.357 78.1542L113.213 76.0489L118.768 73.9437L124.024 71.5752L128.829 68.9437L133.183 66.3121L136.937 63.4174L141.741 58.6805L145.195 53.6805L147.898 46.3121L148.048 44.2068L148.198 42.1016L148.048 39.9963L145.796 32.1016L142.342 26.5752L137.537 21.3121L133.633 18.1542L129.129 15.2595L124.024 12.3647L118.618 9.9963L112.762 7.89104L106.606 6.04893L100.15 4.46998L93.0928 3.41735L86.0358 2.62788L82.4321 2.36472L78.6784 2.10156H74.9246Z" stroke="black" stroke-width="0.397559"/>
<path d="M74.9249 0L82.7327 0.263158L90.2402 0.789474L97.4474 1.84211L104.354 3.15789L110.961 5L117.117 7.10526L122.823 9.47368L128.228 12.1053L133.033 15L137.237 18.1579L140.991 21.5789L145.495 27.3684L148.348 33.1579L149.85 39.4737L150 41.5789V44.2105L149.55 52.8947L148.949 60.2632L147.898 68.1579L146.396 76.8421L144.444 85.7895L141.742 95L138.288 104.211L134.084 112.895L128.829 121.316L122.673 128.947L119.219 132.632L115.465 135.789L111.411 138.947L107.057 141.579L102.252 143.947L97.2973 146.053L91.8919 147.632L86.1862 148.684L80.1802 149.474L73.7237 150L67.2673 149.737L61.2613 149.211L55.5556 148.158L50.3003 146.579L45.1952 144.737L40.5405 142.368L36.3363 139.737L32.2823 136.842L28.6787 133.421L22.0721 126.053L16.6667 118.158L12.1622 109.474L8.55856 100.263L5.70571 91.0526L3.6036 81.8421L2.1021 72.8947L1.05105 64.4737L0.45045 56.5789L0 46.8421V44.2105V41.5789L1.5015 33.1579L4.35435 27.3684L8.85886 21.5789L12.6126 18.1579L16.8168 15L21.6216 12.1053L27.027 9.47368L32.7327 7.10526L38.8889 5L45.4955 3.15789L52.4024 1.84211L59.6096 0.789474L67.1171 0.263158L71.021 0H74.9249Z" stroke="black" stroke-width="0.397559"/>
</g>
<defs>
<clipPath id="clip0_2109_194558">
<rect width="150" height="150" fill="white"/>
</clipPath>
</defs>
</svg>
