<svg width="150" height="150" viewBox="0 0 150 150" fill="none" xmlns="http://www.w3.org/2000/svg">
<g clip-path="url(#clip0_2109_194636)">
<path d="M70.8709 137.688H73.2733L75.3754 137.278L77.3273 136.662L78.979 135.431L80.3304 134.61L81.5316 132.968L81.982 131.327L82.5826 128.044V124.966L81.5316 122.093L80.3304 120.657L78.979 119.425L77.3273 118.605L75.3754 117.579L73.2733 116.963L70.8709 116.758L68.4685 116.963L66.3664 117.579L64.2643 118.605L62.6126 119.425L61.2613 120.657L60.0601 122.093L59.1592 124.966V128.044L59.4595 131.327L60.0601 132.968L61.2613 134.61L62.6126 135.431L64.2643 136.662L66.3664 137.278L68.4685 137.688H70.8709Z" fill="white" stroke="black" stroke-width="0.351059"/>
<path d="M59.1592 124.555L59.3093 125.786L59.9099 127.017L60.8108 128.043L62.3123 129.069L63.8138 129.685L66.0661 130.505L68.1682 130.916H70.8709H73.5736L75.5255 130.505L77.4775 129.685L79.2793 129.069L80.7808 128.043L81.6817 127.017L82.4325 125.786L82.5826 124.555" stroke="#808080" stroke-width="0.351059"/>
<path d="M26.7266 137.688H28.9789L31.2311 137.278L33.1831 136.662L34.8347 135.431L36.1861 134.61L37.3873 132.968L37.9879 131.327L38.4383 128.044V124.966L37.3873 122.093L36.1861 120.657L34.8347 119.425L33.1831 118.605L31.2311 117.579L28.9789 116.963L26.7266 116.758L24.3242 116.963L22.0719 117.579L19.9698 118.605L18.3182 119.425L16.9668 120.657L15.9158 122.093L15.3152 123.529L15.165 124.966V128.044L15.3152 131.327L15.9158 132.968L16.9668 134.61L18.3182 135.431L19.9698 136.662L22.0719 137.278L24.3242 137.688H26.7266Z" fill="white" stroke="black" stroke-width="0.351059"/>
<path d="M15.165 124.555V125.786L15.7656 127.017L16.8167 128.043L18.168 129.069L19.6695 129.685L21.7716 130.505L24.0239 130.916H26.5765H29.2792L31.5314 130.505L33.3332 129.685L35.135 129.069L36.4864 128.043L37.3873 127.017L38.2882 125.786L38.4383 124.555" stroke="#808080" stroke-width="0.351059"/>
<path d="M41.5914 150.001H43.8436L45.9457 149.385L47.7475 148.769L49.5493 147.538L50.9007 146.512L51.9517 145.281L52.7025 143.639L53.1529 140.356V137.073L52.7025 135.637L51.9517 133.995L50.9007 132.764L49.5493 131.327L47.7475 130.712L45.9457 129.686L43.8436 129.276L41.5914 129.07L39.0388 129.276L36.9367 129.686L34.8346 130.712L33.1829 131.327L31.6814 132.764L30.6304 133.995L29.7295 137.073V140.356L30.0298 143.639L30.6304 145.281L31.6814 146.512L33.1829 147.538L34.8346 148.769L36.9367 149.385L39.0388 150.001H41.5914Z" fill="white" stroke="black" stroke-width="0.351059"/>
<path d="M29.7295 136.867L30.0298 138.098L30.6304 139.124L31.5313 140.15L32.7325 141.382L34.3841 141.997L36.4862 142.818L38.7385 143.023H41.4412H43.8436L46.246 142.818L48.0478 141.997L49.6995 141.382L51.3511 140.15L52.1019 139.124L52.8526 138.098L53.1529 136.867" stroke="#808080" stroke-width="0.351059"/>
<path d="M123.123 84.9507L142.642 79.2051L146.096 77.5635L148.498 74.0752L149.849 69.9712L150 64.8412L148.348 60.5321L145.945 57.0437L142.642 55.8125H138.888L119.219 61.3529L123.123 84.9507Z" fill="#FFFF14" stroke="#FF8800" stroke-width="0.351059"/>
<path d="M122.223 60.5312L102.553 66.2768L99.0995 68.534L96.5469 71.4068L95.3457 75.7159V80.6407L96.6971 85.3603L99.0995 88.4382L102.553 90.4902L106.457 89.8746L126.126 84.3343L126.427 81.0511L126.727 77.9731V75.1003L126.427 71.8172L125.826 68.9444L124.775 66.0716L123.574 63.1988L122.223 60.5312Z" fill="#0000FF" stroke="#050588" stroke-width="0.351059"/>
<path d="M105.556 69.3544L122.673 64.4297" stroke="white" stroke-width="0.351059"/>
<path d="M125.826 63.203L137.388 60.125" stroke="#C2C200" stroke-width="0.351059"/>
<path d="M112.463 109.169H132.433L136.036 108.143L138.889 105.68L140.841 101.781L141.592 97.0619L140.841 92.1371L138.889 88.2384L136.036 85.9812L132.433 84.75H112.463V109.169Z" fill="#FFFF14" stroke="#FF8800" stroke-width="0.351059"/>
<path d="M115.466 84.75H95.1953L91.4415 85.9812L88.4385 88.2384L86.4866 92.1371L86.0361 97.0619L86.4866 101.781L88.4385 105.68L91.4415 108.143L95.1953 109.169H115.466L116.216 106.091L116.967 103.013L117.418 100.14L117.568 97.0619L117.418 93.9839L116.967 90.906L116.216 88.0332L115.466 84.75Z" fill="#0000FF" stroke="#050588" stroke-width="0.351059"/>
<path d="M97.748 88.8516H115.316" stroke="white" stroke-width="0.351059"/>
<path d="M118.318 88.8516H130.18" stroke="#C2C200" stroke-width="0.351059"/>
<path d="M3.15332 15.5938L9.60978 83.3092L11.862 86.5924L14.865 89.6704L18.3185 91.5171L22.823 92.5431L26.1263 94.8003L31.3815 96.2367L36.9371 96.8523L42.4927 97.0575L47.2975 96.8523L52.2524 96.2367L57.2074 94.8003L62.0122 92.5431L66.5167 91.5171L69.82 89.6704L72.6728 86.5924L75.2254 83.3092L81.6818 15.5938H3.15332Z" fill="white" stroke="#808080" stroke-width="0.351059"/>
<path d="M22.8228 92.5431L19.5195 15.5938" stroke="#808080" stroke-width="0.351059"/>
<path d="M42.4922 97.0575V15.5938" stroke="#808080" stroke-width="0.351059"/>
<path d="M62.0117 92.5431L65.1649 15.5938" stroke="#808080" stroke-width="0.351059"/>
<path d="M42.4925 31.1902C65.9604 31.1902 84.985 24.208 84.985 15.5951C84.985 6.98215 65.9604 0 42.4925 0C19.0245 0 0 6.98215 0 15.5951C0 24.208 19.0245 31.1902 42.4925 31.1902Z" fill="white" stroke="#808080" stroke-width="0.351059"/>
<path d="M42.1924 27.9087C63.753 27.9087 81.2314 22.4884 81.2314 15.802C81.2314 9.11567 63.753 3.69531 42.1924 3.69531C20.6317 3.69531 3.15332 9.11567 3.15332 15.802C3.15332 22.4884 20.6317 27.9087 42.1924 27.9087Z" fill="white" stroke="#808080" stroke-width="0.351059"/>
<path d="M10.6611 11.8984V21.3376" stroke="#808080" stroke-width="0.351059"/>
<path d="M13.0635 9.85156V22.7791" stroke="#808080" stroke-width="0.351059"/>
<path d="M15.916 8.41406V23.3935" stroke="#808080" stroke-width="0.351059"/>
<path d="M8.1084 15.3906V20.1102" stroke="#808080" stroke-width="0.351059"/>
</g>
<defs>
<clipPath id="clip0_2109_194636">
<rect width="150" height="150" fill="white"/>
</clipPath>
</defs>
</svg>
