<svg width="150" height="150" viewBox="0 0 150 150" fill="none" xmlns="http://www.w3.org/2000/svg">
<g clip-path="url(#clip0_2109_194696)">
<path d="M150 150H0V0H150V150Z" fill="#F7F7F7" stroke="black" stroke-width="0.3003"/>
<path d="M30.7812 127.927L22.8232 119.819L59.1596 54.9544V18.4679H54.2046V13.0625H95.6461V18.4679H90.6911V54.9544L127.027 119.819L119.52 127.927H30.7812Z" fill="white" stroke="black" stroke-width="0.3003"/>
<path d="M37.237 122.821L30.3301 116.064L56.7565 70.7188H93.0928L119.519 116.064L112.612 122.821H37.237Z" fill="#FFCC00"/>
<path d="M59.1592 18.4688H90.6907" stroke="black" stroke-width="0.3003"/>
<path d="M59.1592 28.6797H69.8198" stroke="black" stroke-width="0.3003"/>
<path d="M59.1592 39.3359H69.8198" stroke="black" stroke-width="0.3003"/>
<path d="M59.1592 49.5469H69.8198" stroke="black" stroke-width="0.3003"/>
<path d="M59.1592 79.5819L60.5105 76.5789L63.0631 75.8281L66.0661 76.5789L67.2673 79.5819L66.0661 82.5849L63.0631 83.3356L60.5105 82.5849L59.1592 79.5819Z" fill="white"/>
<path d="M64.2646 90.2372L65.616 87.2342L68.619 85.8828L71.1716 87.2342L72.3728 90.2372L71.1716 92.7897L68.619 93.9909L65.616 92.7897L64.2646 90.2372Z" fill="white"/>
<path d="M54.2041 97.8961L55.4053 95.3435L57.9579 93.9922L60.9609 95.3435L61.7116 97.8961L60.9609 100.749L57.9579 101.65L55.4053 100.749L54.2041 97.8961Z" fill="white"/>
</g>
<defs>
<clipPath id="clip0_2109_194696">
<rect width="150" height="150" fill="white"/>
</clipPath>
</defs>
</svg>
