<svg width="150" height="150" viewBox="0 0 150 150" fill="none" xmlns="http://www.w3.org/2000/svg">
<g clip-path="url(#clip0_2109_174674)">
<path d="M5.605 139.939V99.699L0.896484 96.5458L5.605 93.5428V56.4557L0.896484 53.3026L5.605 50.1494V9.90916L0.896484 6.90616L6.27765 4.50375L22.1969 2.5518L47.0848 1.20045L74.8875 0.75L102.69 1.20045L127.578 2.5518L143.497 4.50375L148.879 6.90616L144.17 9.90916V50.1494L148.879 53.3026L144.17 56.4557V93.5428L148.879 96.5458L144.17 99.699V139.939L148.879 142.942L143.497 145.345L127.578 147.447L102.69 148.798L74.8875 149.249L47.0848 148.798L22.1969 147.447L6.27765 145.345L0.896484 142.942L5.605 139.939Z" fill="#666666"/>
<path d="M13.2283 140.241V100.001L9.19238 96.998L13.2283 93.8448V56.007L9.19238 52.8538L13.2283 49.7007V9.46042L9.19238 6.45742L13.9009 4.05502L28.0265 2.25321L50.2238 1.05201L74.8875 0.601562L99.5511 1.05201L121.973 2.25321L136.098 4.05502L140.807 6.45742L136.547 9.46042V49.7007L140.807 52.8538L136.547 56.007V93.8448L140.807 96.998L136.547 100.001V140.241L140.807 143.394L136.098 145.647L121.973 147.599L99.5511 148.8L74.8875 149.1L50.2238 148.8L28.0265 147.599L13.9009 145.647L9.19238 143.394L13.2283 140.241Z" fill="#737373"/>
<path d="M20.8521 140.692V100.451L17.2646 97.2983L20.8521 94.2953V55.5565L17.2646 52.5535L20.8521 49.4004V9.00997L17.2646 6.00697L21.3005 3.60457L33.6324 2.10306L53.3633 1.05201L74.888 0.601562L96.6368 1.05201L116.144 2.10306L128.7 3.60457L132.736 6.00697L129.148 9.00997V49.4004L132.736 52.5535L129.148 55.5565V94.2953L132.736 97.2983L129.148 100.451V140.692L132.736 143.845L128.7 146.097L116.144 147.749L96.6368 148.8L74.888 149.1L53.3633 148.8L33.6324 147.749L21.3005 146.097L17.2646 143.845L20.8521 140.692Z" fill="#7F7F7F"/>
<path d="M28.475 141.142V100.902L25.3359 97.7487L28.475 94.5956V55.2562L25.3359 52.1031L28.475 48.9499V8.55952L25.3359 5.55652L28.9234 3.15411L39.4615 1.80276L56.2776 0.901863L74.8875 0.601562L93.4974 0.901863L110.538 1.80276L121.076 3.15411L124.663 5.55652L121.524 8.55952V48.9499L124.663 52.1031L121.524 55.2562V94.5956L124.663 97.7487L121.524 100.902V141.142L124.663 144.295L121.076 146.548L110.538 147.899L93.4974 148.8L74.8875 149.1L56.2776 148.8L39.4615 147.899L28.9234 146.548L25.3359 144.295L28.475 141.142Z" fill="#8C8C8C"/>
<path d="M36.0988 141.593V101.202L33.4082 98.049L36.0988 95.046V54.8058L33.4082 51.6526L36.0988 48.6496V8.10907L33.4082 5.10607L36.323 2.70366L45.2916 1.65261L59.4172 0.901863L74.888 0.601562L90.5831 0.901863L104.709 1.65261L113.453 2.70366L116.592 5.10607L113.901 8.10907V48.6496L116.592 51.6526L113.901 54.8058V95.046L116.592 98.049L113.901 101.202V141.593L116.592 144.746L113.453 146.998L104.709 148.199L90.5831 148.8L74.888 149.1L59.4172 148.8L45.2916 148.199L36.323 146.998L33.4082 144.746L36.0988 141.593Z" fill="#999999"/>
<path d="M43.4974 141.893V101.502L41.4795 98.4995L43.4974 95.3463V54.3553L41.4795 51.3523L43.4974 48.1992V7.65862L41.4795 4.50547L43.9459 2.25321L51.1207 1.50246L62.3315 0.901863L74.8876 0.601562L87.4436 0.901863L98.8786 1.50246L106.053 2.25321L108.52 4.50547L106.278 7.65862V48.1992L108.52 51.3523L106.278 54.3553V95.3463L108.52 98.4995L106.278 101.502V141.893L108.52 145.046L106.053 147.448L98.8786 148.349L87.4436 148.95L74.8876 149.1L62.3315 148.95L51.1207 148.349L43.9459 147.448L41.4795 145.046L43.4974 141.893Z" fill="#A6A6A6"/>
<path d="M51.1213 142.343V101.953L49.5518 98.7998L51.1213 95.7968V54.055L49.5518 50.9019L51.1213 47.8989V7.20817L49.5518 4.20517L51.3455 1.80276L56.9509 1.35231L65.471 0.901863L74.8881 0.601562L84.5293 0.901863L93.0495 1.35231L98.6549 1.80276L100.449 4.20517L98.6549 7.20817V47.8989L100.449 50.9019L98.6549 54.055V95.7968L100.449 98.7998L98.6549 101.953V142.343L100.449 145.496L98.6549 147.899L93.0495 148.499L84.5293 148.95L74.8881 149.1L65.471 148.95L56.9509 148.499L51.3455 147.899L49.5518 145.496L51.1213 142.343Z" fill="#B2B2B2"/>
<path d="M58.7441 142.794V102.403L57.623 99.2502L58.7441 96.2472V53.6046L57.623 50.6016L58.7441 47.4484V6.75772L57.623 3.75472L58.9683 1.35231L68.3854 0.751713L74.8876 0.601562L81.3899 0.751713L91.0311 1.35231L92.1522 3.75472L91.2553 6.75772V47.4484L92.1522 50.6016L91.2553 53.6046V96.2472L92.1522 99.2502L91.2553 102.403V142.794L92.1522 145.947L91.0311 148.199L81.3899 148.95L74.8876 149.1L68.3854 148.95L58.9683 148.199L57.623 145.947L58.7441 142.794Z" fill="#BFBFBF"/>
<path d="M66.1437 143.242V102.852L65.6953 99.699L66.1437 96.6959V53.3026V6.30556L66.368 0.90015L74.8881 0.75L81.3904 0.90015H83.4083L84.081 3.30255L83.6325 6.30556V47.1464V96.6959V143.242L83.4083 148.798L74.8881 149.249L68.3859 148.948L66.368 148.798L66.1437 143.242Z" fill="#CCCCCC"/>
<path d="M1.12109 96.5469L6.50226 97.2976L22.1973 98.0484L47.3094 98.4988L74.8879 98.649L102.691 98.4988L127.803 98.0484L143.722 97.2976L148.879 96.5469" stroke="black" stroke-width="0.366966"/>
<path d="M1.12109 53.3052L6.50226 52.5545L22.1973 51.8037L47.3094 51.3533L74.8879 51.2031L102.691 51.3533L127.803 51.8037L143.722 52.5545L148.879 53.3052" stroke="black" stroke-width="0.366966"/>
<path d="M5.605 139.939V99.6989L0.896484 96.5458L5.605 93.5428V56.4557L0.896484 53.3026L5.605 50.1494V9.90916L0.896484 6.90616L6.27765 4.50375L22.1969 2.5518L47.0848 1.20045L74.8875 0.75L102.69 1.20045L127.578 2.5518L143.497 4.50375L148.879 6.90616L144.17 9.90916V50.1494L148.879 53.3026L144.17 56.4557V93.5428L148.879 96.5458L144.17 99.6989V139.939L148.879 142.942L143.497 145.345L127.578 147.447L102.69 148.798L74.8875 149.248L47.0848 148.798L22.1969 147.447L6.27765 145.345L0.896484 142.942L5.605 139.939Z" stroke="black" stroke-width="0.366966"/>
</g>
<defs>
<clipPath id="clip0_2109_174674">
<rect width="150" height="150" fill="white"/>
</clipPath>
</defs>
</svg>
