<svg width="150" height="150" viewBox="0 0 150 150" fill="none" xmlns="http://www.w3.org/2000/svg">
<g clip-path="url(#clip0_2109_174519)">
<path d="M0.750977 0.75H148.799V149.095H0.750977V0.75Z" fill="#C2A385" stroke="black" stroke-width="0.300601"/>
<path d="M0.901367 63.4922H148.949V86.0599H0.901367V63.4922Z" fill="#FFFF00"/>
<path d="M126.877 85.9074L149.099 63.6406V78.5353L141.592 85.9074H126.877Z" fill="black"/>
<path d="M97.1475 85.9074L119.37 63.6406H134.235L112.012 85.9074H97.1475Z" fill="black"/>
<path d="M63.8135 85.9074L86.0357 63.6406H100.901L78.6783 85.9074H63.8135Z" fill="black"/>
<path d="M34.2344 85.9074L56.4566 63.6406H71.3215L48.9491 85.9074H34.2344Z" fill="black"/>
<path d="M4.50488 85.9074L26.7271 63.6406H41.592L19.3697 85.9074H4.50488Z" fill="black"/>
<path d="M0.750977 63.6406H11.8621L0.750977 74.774V63.6406Z" fill="black"/>
</g>
<defs>
<clipPath id="clip0_2109_174519">
<rect width="150" height="150" fill="white"/>
</clipPath>
</defs>
</svg>
