<svg width="150" height="150" viewBox="0 0 150 150" fill="none" xmlns="http://www.w3.org/2000/svg">
<g clip-path="url(#clip0_2109_174978)">
<path d="M5.70605 94.1172H144.145V131.372H5.70605V94.1172Z" fill="#996633" stroke="black" stroke-width="0.767349"/>
<path d="M5.70605 131.37L17.2676 94.1152V18.625L5.70605 55.8799V131.37Z" fill="#661900" stroke="black" stroke-width="0.767349"/>
<path d="M72.0723 131.37L83.6338 94.1152V18.625L72.0723 55.8799V131.37Z" fill="#661900" stroke="black" stroke-width="0.767349"/>
<path d="M138.438 131.37L150 94.1152V18.625L138.438 55.8799V131.37Z" fill="#996633" stroke="black" stroke-width="0.767349"/>
<path d="M138.438 150L150 112.745V94.1172L138.438 131.372V150Z" fill="#AD845B" stroke="black" stroke-width="0.767349"/>
<path d="M138.438 55.8824L150 18.6275V0L138.438 37.2549V55.8824Z" fill="#AD845B" stroke="black" stroke-width="0.767349"/>
<path d="M138.438 37.2549L150 0H11.4114L0 37.2549H138.438Z" fill="#D6C2AD" stroke="black" stroke-width="0.767349"/>
<path d="M0 131.375H138.438V150.002H0V131.375Z" fill="#C2A385" stroke="black" stroke-width="0.767349"/>
<path d="M0 37.2578H138.438V55.8853H0V37.2578Z" fill="#C2A385" stroke="black" stroke-width="0.767349"/>
<path d="M132.583 55.8828H138.439V131.373H132.583V55.8828Z" fill="#C2A385" stroke="black" stroke-width="0.767349"/>
<path d="M66.3662 55.8828H72.0719V131.373H66.3662V55.8828Z" fill="#C2A385" stroke="black" stroke-width="0.767349"/>
<path d="M0 55.8828H5.70571V131.373H0V55.8828Z" fill="#C2A385" stroke="black" stroke-width="0.767349"/>
</g>
<defs>
<clipPath id="clip0_2109_174978">
<rect width="150" height="150" fill="white"/>
</clipPath>
</defs>
</svg>
