<svg width="150" height="150" viewBox="0 0 150 150" fill="none" xmlns="http://www.w3.org/2000/svg">
<g clip-path="url(#clip0_2109_174424)">
<path d="M0 21.3555H124.925V150H0V21.3555Z" fill="#C2A385" stroke="black" stroke-width="0.393101"/>
<path d="M0 21.3551L24.7748 0H150L125.075 21.3551H0Z" fill="#D6C2AD" stroke="black" stroke-width="0.393101"/>
<path d="M124.925 150V21.3551L150 0V128.388L124.925 150Z" fill="#AD845B" stroke="black" stroke-width="0.393101"/>
<path d="M118.618 30.8752V21.3555H124.924V30.8752H118.618Z" fill="#CCB299" stroke="black" stroke-width="0.393101"/>
<path d="M124.925 30.6175V21.3551L150 0V9.26244L124.925 30.6175Z" fill="#B89471" stroke="black" stroke-width="0.393101"/>
<path d="M134.385 42.7107V13.3797L140.541 7.97656V37.5649L134.385 42.7107Z" fill="#B89471" stroke="black" stroke-width="0.393101"/>
<path d="M118.618 21.6124L143.693 0H150L124.924 21.6124H118.618Z" fill="#E0D1C1" stroke="black" stroke-width="0.393101"/>
<path d="M0 30.8752V21.3555H6.30631V30.8752H0Z" fill="#CCB299" stroke="black" stroke-width="0.393101"/>
<path d="M0 21.6124L24.9249 0H31.2312L6.15616 21.6124H0Z" fill="#E0D1C1" stroke="black" stroke-width="0.393101"/>
<path d="M9.15918 13.3791L15.4655 7.71875L140.541 7.97604L134.384 13.3791H9.15918Z" fill="#E0D1C1" stroke="black" stroke-width="0.393101"/>
</g>
<defs>
<clipPath id="clip0_2109_174424">
<rect width="150" height="150" fill="white"/>
</clipPath>
</defs>
</svg>
