<svg width="150" height="150" viewBox="0 0 150 150" fill="none" xmlns="http://www.w3.org/2000/svg">
<g clip-path="url(#clip0_2109_175486)">
<path d="M3.00293 0H146.847V3.003H3.00293V0Z" fill="#666666"/>
<path d="M3.00293 12.3125H146.847V15.1654H3.00293V12.3125Z" fill="#666666"/>
<path d="M3.00293 24.4727H146.847V27.4757H3.00293V24.4727Z" fill="#666666"/>
<path d="M3.00293 36.4883H146.847V39.7916H3.00293V36.4883Z" fill="#666666"/>
<path d="M3.00293 48.7969H146.847V51.7999H3.00293V48.7969Z" fill="#666666"/>
<path d="M3.00293 61.1094H146.847V64.1124H3.00293V61.1094Z" fill="#666666"/>
<path d="M3.00293 73.4219H146.847V76.4249H3.00293V73.4219Z" fill="#666666"/>
<path d="M3.00293 85.7344H146.847V88.7374H3.00293V85.7344Z" fill="#666666"/>
<path d="M3.00293 97.75H146.847V101.053H3.00293V97.75Z" fill="#666666"/>
<path d="M3.00293 110.062H146.847V113.066H3.00293V110.062Z" fill="#666666"/>
<path d="M3.00293 122.375H146.847V125.378H3.00293V122.375Z" fill="#666666"/>
<path d="M3.00293 134.688H146.847V137.54H3.00293V134.688Z" fill="#666666"/>
<path d="M3.00293 146.848H146.847V150.001H3.00293V146.848Z" fill="#666666"/>
<path d="M3.003 0H0V150H3.003V0Z" fill="#666666"/>
<path d="M15.1654 0H12.3125V150H15.1654V0Z" fill="#666666"/>
<path d="M27.4776 0H24.4746V150H27.4776V0Z" fill="#666666"/>
<path d="M39.7896 0H36.4863V150H39.7896V0Z" fill="#666666"/>
<path d="M52.1021 0H48.7988V150H52.1021V0Z" fill="#666666"/>
<path d="M64.1143 0H61.1113V150H64.1143V0Z" fill="#666666"/>
<path d="M76.4268 0H73.4238V150H76.4268V0Z" fill="#666666"/>
<path d="M88.7384 0H85.7354V150H88.7384V0Z" fill="#666666"/>
<path d="M101.051 0H97.748V150H101.051V0Z" fill="#666666"/>
<path d="M113.364 0H110.061V150H113.364V0Z" fill="#666666"/>
<path d="M125.375 0H122.372V150H125.375V0Z" fill="#666666"/>
<path d="M137.537 0H134.685V150H137.537V0Z" fill="#666666"/>
<path d="M150 0H146.847V150H150V0Z" fill="#666666"/>
<path d="M0 0H150V150H0V0Z" stroke="black" stroke-width="0.3003"/>
</g>
<defs>
<clipPath id="clip0_2109_175486">
<rect width="150" height="150" fill="white"/>
</clipPath>
</defs>
</svg>
