<svg width="150" height="150" viewBox="0 0 150 150" fill="none" xmlns="http://www.w3.org/2000/svg">
<g clip-path="url(#clip0_2109_174556)">
<path d="M0 0V3.003H5.04808V146.847H0V150H150V146.847H144.712V3.003H150V0H0Z" fill="#7F7F7F"/>
<path d="M16.1055 0V3.003H20.192V146.847H16.1055V150H133.894V146.847H129.807V3.003H133.894V0H16.1055Z" fill="#999999"/>
<path d="M21.3945 0V3.003H25.0003V146.847H21.3945V150H128.606V146.847H124.76V3.003H128.606V0H21.3945Z" fill="#B2B2B2"/>
<path d="M37.5 0V3.003H40.1442V146.847H37.5V150H112.5V146.847H109.856V3.003H112.5V0H37.5Z" fill="#CCCCCC"/>
<path d="M58.8945 0V3.003H60.0965V146.847H58.8945V150H90.8657V146.847H89.9041V3.003H90.8657V0H58.8945Z" fill="#E5E5E5"/>
<path d="M0 0V3.003H5.04808V146.847H0V150H150V146.847H144.712V3.003H150V0H0Z" stroke="black" stroke-width="0.379967"/>
<path d="M5.04785 9.30859H144.952V140.54H5.04785V9.30859Z" fill="#996633"/>
<path d="M19.9521 9.30859H130.289V140.54H19.9521V9.30859Z" fill="#AD8251"/>
<path d="M25 9.30859H125.24V140.54H25V9.30859Z" fill="#C29E70"/>
<path d="M39.9043 9.30859H110.577V140.54H39.9043V9.30859Z" fill="#D6BA8F"/>
<path d="M59.8555 9.30859H90.1439V140.54H59.8555V9.30859Z" fill="#EBD7AE"/>
<path d="M5.04785 9.30859H144.952V140.54H5.04785V9.30859Z" stroke="black" stroke-width="0.379967"/>
<path d="M4.80762 3.00391H144.952" stroke="#7F7F7F" stroke-width="0.379967"/>
<path d="M4.80762 146.848H144.952" stroke="#7F7F7F" stroke-width="0.379967"/>
</g>
<defs>
<clipPath id="clip0_2109_174556">
<rect width="150" height="150" fill="white"/>
</clipPath>
</defs>
</svg>
