<svg width="150" height="150" viewBox="0 0 150 150" fill="none" xmlns="http://www.w3.org/2000/svg">
<g clip-path="url(#clip0_2109_174863)">
<path d="M150 18.0172L102.991 11.7109H46.5812L0 18.0172V147.146L5.12821 147.897L15.3846 148.648L29.0598 149.248L45.7265 149.699L64.5299 149.999H85.0427L103.846 149.699L120.94 149.248L134.615 148.648L144.872 147.897L150 147.146V18.0172Z" fill="#CCCCCC"/>
<path d="M143.162 18.0185L100.427 11.2617H49.1452L6.41016 18.0185V147.148L11.5384 148.049L20.0854 148.649L33.3332 149.25L48.2905 149.7L66.2392 150H84.1879L101.282 149.7L116.667 149.25L129.487 148.649L138.889 148.049L143.162 147.148V18.0185Z" fill="#D1D1D1"/>
<path d="M137.179 18.0185L98.7175 11.2617H51.709L13.6748 18.0185V147.598L17.521 148.049L25.6406 148.649L37.1791 149.25L51.2816 149.7L67.0936 150H83.3329L98.7175 149.7L113.247 149.25L124.359 148.649L132.906 148.049L137.179 147.598V18.0185Z" fill="#D6D6D6"/>
<path d="M130.342 18.0185L96.1543 11.2617H54.274L20.0859 18.0185V147.898L23.5047 148.499L30.3423 149.1L41.4535 149.25L53.4193 149.7L67.9492 150H82.4791L96.1543 149.7L108.975 149.25L119.231 149.1L126.924 148.499L130.342 147.898V18.0185Z" fill="#D9D9D9"/>
<path d="M123.504 18.0185L93.5897 11.2617H57.2649L26.0684 18.0185V148.049L29.4872 148.649L36.3248 149.1L45.2991 149.25L55.9829 149.7L68.8034 150H81.6239L93.5897 149.7L104.701 149.25L114.103 149.1L120.085 148.649L123.504 148.049V18.0185Z" fill="#DEDEDE"/>
<path d="M116.666 18.0185L91.0253 11.2617H59.4014L33.333 18.0185V148.499L35.4698 148.649L41.4527 149.25L49.145 149.7H58.5467L69.6578 150H80.7689L91.0253 149.7H100.427L108.974 149.25L114.102 148.649L116.666 148.499V18.0185Z" fill="#E3E3E3"/>
<path d="M110.684 18.0185L88.4621 11.2617H61.9664L39.7441 18.0185V148.649L42.3082 149.1L46.5817 149.25L53.4194 149.7H61.1117L70.5134 150H79.9151L88.4621 149.7H97.0091L102.992 149.25L108.12 149.1L110.684 148.649V18.0185Z" fill="#E8E8E8"/>
<path d="M103.846 18.0185L85.8973 11.2617H64.5298L46.5811 18.0185V148.649L48.2905 149.1L51.7093 149.25L57.6922 149.7L63.6751 150H71.3674H79.0597H85.8973L92.7349 149.7L97.8631 149.25L102.137 149.1L103.846 148.649V18.0185Z" fill="#EDEDED"/>
<path d="M97.0089 18.0185L83.3337 11.2617H67.0944L52.5645 18.0185V149.1L54.2739 149.25L57.2653 149.7H61.1115L66.2397 150H72.2226H78.2055H83.3337L88.4619 149.7H92.7354L96.1542 149.25L97.0089 149.1V18.0185Z" fill="#F2F2F2"/>
<path d="M91.0253 18.0185L80.7689 11.2617H68.8031L59.4014 18.0185V149.25L60.2561 149.7H63.2475H65.3843L68.8031 150H73.0766H77.3501H80.7689L85.0424 149.7H87.6065H89.3159L91.0253 149.25V18.0185Z" fill="#F5F5F5"/>
<path d="M84.188 18.0185L80.7692 13.9644L79.0598 12.1626L78.2051 11.2617H77.7777H71.3675L68.376 15.6161L67.094 17.1176L66.2393 18.0185V22.0725V149.7H68.8034L69.2307 149.85L69.6581 150L70.5128 149.85L70.9401 149.7L71.3675 149.85V150H78.2051L79.4871 149.7L80.7692 150L82.0512 149.7H84.188V145.496V18.0185Z" fill="#FAFAFA"/>
<path d="M0 18.7664V18.0156H150V18.7664H0Z" fill="#F2F2F2"/>
<path d="M150 18.0172L102.991 11.7109H46.5812L0 18.0172V147.146L5.12821 147.897L15.3846 148.648L29.0598 149.248L45.7265 149.699L64.5299 149.999H85.0427L103.846 149.699L120.94 149.248L134.615 148.648L144.872 147.897L150 147.146V18.0172Z" stroke="black" stroke-width="0.506623"/>
<path d="M42.3076 11.7117V0H108.12V11.7117H42.3076Z" fill="#CCCCCC"/>
<path d="M46.5811 11.2613V0H102.991V11.2613H46.5811Z" fill="#D4D4D4"/>
<path d="M51.709 11.2613V0H98.7175V11.2613H51.709Z" fill="#DEDEDE"/>
<path d="M55.9824 11.2613V0H93.5893V11.2613H55.9824Z" fill="#E5E5E5"/>
<path d="M61.1113 11.2613V0H89.3165V11.2613H61.1113Z" fill="#EDEDED"/>
<path d="M65.3848 11.2613V0H84.1882V11.2613H65.3848Z" fill="#F7F7F7"/>
<path d="M70.5127 11.7117V0H79.9144V11.7117H70.5127Z" fill="white"/>
<path d="M42.3076 11.7117V0H108.12V11.7117H42.3076Z" stroke="black" stroke-width="0.506623"/>
</g>
<defs>
<clipPath id="clip0_2109_174863">
<rect width="150" height="150" fill="white"/>
</clipPath>
</defs>
</svg>
