<svg width="150" height="150" viewBox="0 0 150 150" fill="none" xmlns="http://www.w3.org/2000/svg">
<g clip-path="url(#clip0_2109_174811)">
<path d="M12.2598 131.833L26.6828 130.181L49.3992 129.13L75.0002 128.83V71.7725L49.3992 71.4722L26.6828 70.4212L12.2598 68.7695V131.833Z" fill="#CCCCCC"/>
<path d="M74.6398 5.253C91.1685 5.253 104.568 4.58076 104.568 3.7515C104.568 2.92225 91.1685 2.25 74.6398 2.25C58.1111 2.25 44.7119 2.92225 44.7119 3.7515C44.7119 4.58076 58.1111 5.253 74.6398 5.253Z" fill="#E5E5E5"/>
<path d="M74.6398 143.692C111.879 143.692 142.068 141.608 142.068 139.037C142.068 136.467 111.879 134.383 74.6398 134.383C37.4004 134.383 7.21191 136.467 7.21191 139.037C7.21191 141.608 37.4004 143.692 74.6398 143.692Z" fill="#B2B2B2"/>
<path d="M112.5 4.65556L120.072 3.00391V12.4634L127.644 15.4664L120.072 18.6195L119.712 43.6946L150 68.6195V143.695L144.591 146.097L128.365 148.199L103.125 149.55L75 150.001L46.875 149.55L21.274 148.199L5.04808 146.097L0 143.695V68.6195L29.9279 43.6946V18.6195L22.3558 15.4664L29.9279 12.4634V3.00391L37.5 4.65556V45.1961L7.21154 69.5204V136.938L12.2596 139.04L26.6827 140.992L49.399 142.193L75 142.493L100.24 142.193L122.957 140.992L137.38 139.04L142.428 136.938V69.5204L112.5 45.1961V4.65556Z" fill="#CCCCCC"/>
<path d="M120.072 12.4609L116.827 13.6621L107.091 14.7132L91.947 15.3138L74.9999 15.4639L58.0527 15.3138L42.5479 14.7132L33.1729 13.6621L29.9277 12.4609" stroke="black" stroke-width="0.465363"/>
<path d="M120.072 18.6172L116.827 19.8184L107.091 20.8694L91.947 21.6202L74.9999 21.7703L58.0527 21.6202L42.5479 20.8694L33.1729 19.8184L29.9277 18.6172" stroke="black" stroke-width="0.465363"/>
<path d="M120.072 3.00391V12.4634L127.644 15.4664L120.072 18.6195L119.712 43.6946L150 68.6195V143.695L144.591 146.097L128.365 148.199L103.125 149.55L75 150.001L46.875 149.55L21.274 148.199L5.04808 146.097L0 143.695V68.6195L29.9279 43.6946V18.6195L22.3558 15.4664L29.9279 12.4634V3.00391" stroke="black" stroke-width="0.465363"/>
<path d="M74.9999 6.00601C99.8925 6.00601 120.072 4.66152 120.072 3.003C120.072 1.34449 99.8925 0 74.9999 0C50.1072 0 29.9277 1.34449 29.9277 3.003C29.9277 4.66152 50.1072 6.00601 74.9999 6.00601Z" fill="#CCCCCC"/>
<path d="M74.9999 6.00601C99.8925 6.00601 120.072 4.66152 120.072 3.003C120.072 1.34449 99.8925 0 74.9999 0C50.1072 0 29.9277 1.34449 29.9277 3.003C29.9277 4.66152 50.1072 6.00601 74.9999 6.00601Z" stroke="black" stroke-width="0.465363"/>
<path d="M97.3555 137.386V67.8663L87.9805 46.8453V23.4219H99.1584L99.5189 47.596L116.105 68.6171V137.386H97.3555Z" fill="#E5E5E5"/>
<path d="M87.9805 13.9633V7.657L99.1584 6.90625V13.2126L87.9805 13.9633Z" fill="#E5E5E5"/>
<path d="M129.087 75.3754L117.548 56.1562L101.322 47.5977L118.63 67.1172L129.087 75.3754Z" fill="white"/>
<path d="M86.1777 47.5977L94.8316 61.5616L106.731 67.8679L93.7498 53.6037L86.1777 47.5977Z" fill="white"/>
</g>
<defs>
<clipPath id="clip0_2109_174811">
<rect width="150" height="150" fill="white"/>
</clipPath>
</defs>
</svg>
