<svg width="150" height="150" viewBox="0 0 150 150" fill="none" xmlns="http://www.w3.org/2000/svg">
<g clip-path="url(#clip0_2109_174936)">
<path d="M8.49902 11.2617H141.271V150H8.49902V11.2617Z" fill="#BF2600"/>
<path d="M14.7012 11.2617H135.758V150H14.7012V11.2617Z" fill="#C42B00"/>
<path d="M20.2148 11.2617H130.245V150H20.2148V11.2617Z" fill="#CC3300"/>
<path d="M25.7275 11.2617H124.273V150H25.7275V11.2617Z" fill="#D13800"/>
<path d="M31.7002 11.2617H118.76V150H31.7002V11.2617Z" fill="#D63D00"/>
<path d="M37.2129 11.2617H113.247V150H37.2129V11.2617Z" fill="#DB4200"/>
<path d="M42.7256 11.2617H107.733V150H42.7256V11.2617Z" fill="#E34A00"/>
<path d="M48.2393 11.2617H102.221V150H48.2393V11.2617Z" fill="#E84F00"/>
<path d="M53.752 11.2617H96.2481V150H53.752V11.2617Z" fill="#ED5400"/>
<path d="M59.2646 11.2617H90.7348V150H59.2646V11.2617Z" fill="#F25900"/>
<path d="M65.0078 11.2617H85.2222V150H65.0078V11.2617Z" fill="#FA6100"/>
<path d="M70.5205 11.2617H79.2495V150H70.5205V11.2617Z" fill="#FF6600"/>
<path d="M8.49902 11.2617H141.271V150H8.49902V11.2617Z" stroke="black" stroke-width="0.371434"/>
<path d="M0 0H150V17.4174H0V0Z" fill="#E5E5E5"/>
<path d="M6.43164 0H143.568V16.967H6.43164V0Z" fill="#E8E8E8"/>
<path d="M12.8633 0H137.136V16.967H12.8633V0Z" fill="#EBEBEB"/>
<path d="M19.0654 0H130.704V16.967H19.0654V0Z" fill="#EDEDED"/>
<path d="M25.7275 0H124.273V16.967H25.7275V0Z" fill="#F0F0F0"/>
<path d="M32.1592 0H117.841V16.967H32.1592V0Z" fill="#F2F2F2"/>
<path d="M38.3613 0H111.409V16.967H38.3613V0Z" fill="#F2F2F2"/>
<path d="M44.793 0H105.436V16.967H44.793V0Z" fill="#F5F5F5"/>
<path d="M51.2256 0H99.0051V16.967H51.2256V0Z" fill="#F7F7F7"/>
<path d="M57.6572 0H92.573V16.967H57.6572V0Z" fill="#FAFAFA"/>
<path d="M64.0889 0H86.1409V16.967H64.0889V0Z" fill="#FCFCFC"/>
<path d="M70.0615 0H79.7093V17.4174H70.0615V0Z" fill="white"/>
<path d="M0 0H150V17.4174H0V0Z" stroke="black" stroke-width="0.371434"/>
</g>
<defs>
<clipPath id="clip0_2109_174936">
<rect width="150" height="150" fill="white"/>
</clipPath>
</defs>
</svg>
