<svg width="150" height="150" viewBox="0 0 150 150" fill="none" xmlns="http://www.w3.org/2000/svg">
<g clip-path="url(#clip0_2109_174909)">
<path d="M140.323 148.951L136.757 150.002H12.9881L5.34805 147.15L1.01868 141.444L0 138.291V38.8913L2.80136 32.2847L8.91341 28.0805L31.3243 20.2727L34.3803 10.0625H115.365L118.421 20.2727L140.323 28.0805L146.944 32.2847L150 38.8913V138.291L146.944 144.597L140.323 148.951Z" fill="#E5E5E5"/>
<path d="M28.2686 0H120.968V10.0601H28.2686V0Z" fill="#E5E5E5"/>
<path d="M32.3428 0H117.402V10.0601H32.3428V0Z" fill="#E8E8E8"/>
<path d="M36.418 0H113.328V10.0601H36.418V0Z" fill="#EBEBEB"/>
<path d="M40.4922 0H109.253V10.0601H40.4922V0Z" fill="#EDEDED"/>
<path d="M44.5674 0H105.179V10.0601H44.5674V0Z" fill="#F0F0F0"/>
<path d="M48.1328 0H101.613V10.0601H48.1328V0Z" fill="#F2F2F2"/>
<path d="M52.207 0H97.5381V10.0601H52.207V0Z" fill="#F2F2F2"/>
<path d="M56.2822 0H93.4639V10.0601H56.2822V0Z" fill="#F5F5F5"/>
<path d="M60.3564 0H89.3887V10.0601H60.3564V0Z" fill="#F7F7F7"/>
<path d="M63.9219 0H85.8234V10.0601H63.9219V0Z" fill="#FAFAFA"/>
<path d="M67.9971 0H81.7492V10.0601H67.9971V0Z" fill="#FCFCFC"/>
<path d="M72.0713 0H77.674V10.0601H72.0713V0Z" fill="white"/>
<path d="M28.2686 0H120.968V10.0601H28.2686V0Z" stroke="black" stroke-width="0.391094"/>
<path d="M133.192 143.996L129.627 144.897H20.1191L16.5537 143.996L10.951 139.492L8.4043 132.885V38.8913L10.951 32.2847L16.5537 28.0805L36.4179 20.2727L38.9646 10.0625H110.781L113.328 20.2727L133.192 28.0805L138.795 32.2847L141.341 38.8913V132.885L138.795 139.492L133.192 143.996Z" fill="#F2F2F2"/>
<path d="M140.323 148.951L136.757 150.002H12.9881L5.34805 147.15L1.01868 141.444L0 138.291V38.8913L2.80136 32.2847L8.91341 28.0805L31.3243 20.2727L34.3803 10.0625H115.365L118.421 20.2727L140.323 28.0805L146.944 32.2847L150 38.8913V138.291L146.944 144.597L140.323 148.951Z" stroke="black" stroke-width="0.391094"/>
<path d="M8.91309 35.5846L10.9504 32.2812H138.794L140.322 35.5846H8.91309Z" fill="#D9D9D9"/>
<path d="M13.4971 29.8799L16.5531 28.0781H133.191L136.248 29.8799H13.4971Z" fill="white"/>
<path d="M133.192 147.149L129.627 148.05H20.1191L16.5537 147.149L13.4977 145.497L10.951 142.945L8.91363 139.792L8.4043 136.488L14.007 139.792L22.6658 142.945L46.0953 144.897H103.65L127.08 142.945L135.739 139.792L141.341 136.488L140.323 139.792L138.795 142.945L136.248 145.497L133.192 147.149Z" fill="#D9D9D9"/>
<path d="M127.08 131.082V44.295L118.421 40.6914V127.778L127.08 131.082Z" fill="white"/>
<path d="M28.2686 112.463V47.5977" stroke="#B2B2B2" stroke-width="0.391094"/>
<path d="M22.666 122.673V47.5977" stroke="#B2B2B2" stroke-width="0.391094"/>
<path d="M111.29 98.948V51.2002L106.706 49.3984V96.8459L111.29 98.948Z" fill="white"/>
<path d="M12.9883 98.948V51.2002L19.6097 49.3984V96.8459L12.9883 98.948Z" fill="white"/>
</g>
<defs>
<clipPath id="clip0_2109_174909">
<rect width="150" height="150" fill="white"/>
</clipPath>
</defs>
</svg>
