<svg width="150" height="150" viewBox="0 0 150 150" fill="none" xmlns="http://www.w3.org/2000/svg">
<g clip-path="url(#clip0_2109_175123)">
<path d="M0 51.061H149.85V33.5078H0V51.061Z" fill="black"/>
<path d="M12.4629 15.957L14.565 150H22.6731L24.7752 15.957H12.4629Z" fill="#333333"/>
<path d="M14.1143 15.957L15.4656 150H21.7719L23.2734 15.957H14.1143Z" fill="#4C4C4C"/>
<path d="M12.4629 15.957L14.565 150H22.6731L24.7752 15.957H12.4629Z" stroke="black" stroke-width="0.978982"/>
<path d="M74.9248 15.957L77.0269 150H85.4353L87.5374 15.957H74.9248Z" fill="#333333"/>
<path d="M76.4268 15.957L77.9283 150H84.2346L85.7361 15.957H76.4268Z" fill="#4C4C4C"/>
<path d="M74.9248 15.957L77.0269 150H85.4353L87.5374 15.957H74.9248Z" stroke="black" stroke-width="0.978982"/>
<path d="M137.388 15.957L139.49 150H147.748L149.85 15.957H137.388Z" fill="#333333"/>
<path d="M139.189 15.957L140.541 150H146.997L148.349 15.957H139.189Z" fill="#4C4C4C"/>
<path d="M137.388 15.957L139.49 150H147.748L149.85 15.957H137.388Z" stroke="black" stroke-width="0.978982"/>
<path d="M0 15.957L2.1021 150H10.3604L12.4625 15.957H0Z" fill="black" stroke="black" stroke-width="0.978982"/>
<path d="M62.3125 15.957L64.4146 150H72.823L74.9251 15.957H62.3125Z" fill="black" stroke="black" stroke-width="0.978982"/>
<path d="M125.075 15.957L127.177 150H135.285L137.388 15.957H125.075Z" fill="black" stroke="black" stroke-width="0.978982"/>
<path d="M0 0H149.85V33.5106H0V0Z" fill="#4C4C4C" stroke="black" stroke-width="0.978982"/>
</g>
<defs>
<clipPath id="clip0_2109_175123">
<rect width="150" height="150" fill="white"/>
</clipPath>
</defs>
</svg>
