<svg width="150" height="150" viewBox="0 0 150 150" fill="none" xmlns="http://www.w3.org/2000/svg">
<g clip-path="url(#clip0_2109_215015)">
<path d="M0 0H149.85V150H0V0Z" fill="black" stroke="black" stroke-width="0.3003"/>
<path d="M1.5015 148.348L148.348 1.5015L150 0H0V149.85L1.5015 148.348Z" fill="#CCCCCC" stroke="black" stroke-width="0.3003"/>
<path d="M1.50195 1.5H148.349V148.197H1.50195V1.5Z" fill="#7F7F7F" stroke="black" stroke-width="0.3003"/>
<path d="M13.9639 15.4688H109.309V88.8922H13.9639V15.4688Z" stroke="white" stroke-width="0.3003"/>
<path d="M13.9639 88.8922L15.4654 87.3907L107.808 17.1204L109.309 15.4688H13.9639V88.8922Z" fill="#4C4C4C" stroke="black" stroke-width="0.3003"/>
<path d="M15.4658 17.1172H107.808V87.3875H15.4658V17.1172Z" fill="black" stroke="black" stroke-width="0.3003"/>
<path d="M40.541 59.3064L68.6191 31.0781" stroke="white" stroke-width="0.3003"/>
<path d="M42.042 73.2734L81.081 34.2344" stroke="white" stroke-width="0.3003"/>
<path d="M62.3125 68.6219L76.4266 54.5078" stroke="white" stroke-width="0.3003"/>
<path d="M32.7324 48.3516L54.5042 26.4297" stroke="white" stroke-width="0.3003"/>
<path d="M110.811 21.7734H135.886V34.2359H110.811V21.7734Z" fill="#E5E5E5"/>
<path d="M135.886 21.4688H110.811V22.0694H135.886L135.585 21.7691H136.186V21.4688H135.886Z" fill="#7F7F7F"/>
<path d="M136.187 34.2359V21.7734H135.586V34.2359L135.886 33.9356V34.6864H136.187V34.2359Z" fill="#7F7F7F"/>
<path d="M110.811 34.6883H135.886V33.9375H110.811L111.261 34.2378H110.511V34.6883H110.811Z" fill="#7F7F7F"/>
<path d="M110.511 21.7691V34.2315H111.261V21.7691L110.811 22.0694V21.4688H110.511V21.7691Z" fill="#7F7F7F"/>
<path d="M110.811 34.2344H135.886V46.847H110.811V34.2344Z" fill="#E5E5E5"/>
<path d="M135.886 33.9375H110.811V34.6883H135.886L135.585 34.2378H136.186V33.9375H135.886Z" fill="#7F7F7F"/>
<path d="M136.187 46.847V34.2344H135.586V46.847L135.886 46.3965V47.1473H136.187V46.847Z" fill="#7F7F7F"/>
<path d="M110.811 47.1492H135.886V46.3984H110.811L111.261 46.8489H110.511V47.1492H110.811Z" fill="#7F7F7F"/>
<path d="M110.511 34.2378V46.8504H111.261V34.2378L110.811 34.6883V33.9375H110.511V34.2378Z" fill="#7F7F7F"/>
<path d="M110.811 46.8438H135.886V59.3062H110.811V46.8438Z" fill="#E5E5E5"/>
<path d="M135.886 46.3984H110.811V47.1492H135.886L135.585 46.8489H136.186V46.3984H135.886Z" fill="#7F7F7F"/>
<path d="M136.187 59.3062V46.8438H135.586V59.3062L135.886 58.8558V59.6065H136.187V59.3062Z" fill="#7F7F7F"/>
<path d="M110.811 59.6101H135.886V58.8594H110.811L111.261 59.3098H110.511V59.6101H110.811Z" fill="#7F7F7F"/>
<path d="M110.511 46.8489V59.3114H111.261V46.8489L110.811 47.1492V46.3984H110.511V46.8489Z" fill="#7F7F7F"/>
<path d="M110.811 59.3125H135.886V71.775H110.811V59.3125Z" fill="#E5E5E5"/>
<path d="M135.886 58.8594H110.811V59.6101H135.886L135.585 59.3098H136.186V58.8594H135.886Z" fill="#7F7F7F"/>
<path d="M136.187 71.775V59.3125H135.586V71.775L135.886 71.4747V72.0753H136.187V71.775Z" fill="#7F7F7F"/>
<path d="M110.811 72.0694H135.886V71.4688H110.811L111.261 71.7691H110.511V72.0694H110.811Z" fill="#7F7F7F"/>
<path d="M110.511 59.3098V71.7723H111.261V59.3098L110.811 59.6101V58.8594H110.511V59.3098Z" fill="#7F7F7F"/>
<path d="M110.811 71.7734H135.886V84.2359H110.811V71.7734Z" fill="#E5E5E5"/>
<path d="M135.886 71.4688H110.811V72.0694H135.886L135.585 71.7691H136.186V71.4688H135.886Z" fill="#7F7F7F"/>
<path d="M136.187 84.2359V71.7734H135.586V84.2359L135.886 83.9356V84.6864H136.187V84.2359Z" fill="#7F7F7F"/>
<path d="M110.811 84.6883H135.886V83.9375H110.811L111.261 84.2378H110.511V84.6883H110.811Z" fill="#7F7F7F"/>
<path d="M110.511 71.7691V84.2315H111.261V71.7691L110.811 72.0694V71.4688H110.511V71.7691Z" fill="#7F7F7F"/>
<path d="M129.579 32.5827C132.15 32.5827 134.234 30.4988 134.234 27.9281C134.234 25.3574 132.15 23.2734 129.579 23.2734C127.009 23.2734 124.925 25.3574 124.925 27.9281C124.925 30.4988 127.009 32.5827 129.579 32.5827Z" fill="#7F7F7F"/>
<path d="M134.685 27.9315L134.385 26.43L133.784 25.2288L132.883 24.1778L131.532 23.427L130.181 22.9766H129.58V23.7273L131.232 24.0276L132.733 24.9285L133.634 26.2799L133.934 27.9315H134.685Z" fill="black"/>
<path d="M129.58 33.0348L131.082 32.8846L132.433 32.1339L133.484 31.233L134.235 30.0318L134.685 28.5303V27.9297H133.934L133.634 29.7315L132.733 31.0828L131.232 31.9837L129.58 32.284V33.0348Z" fill="black"/>
<path d="M124.625 27.9297L124.775 29.4312L125.376 30.7825L126.427 31.8336L127.628 32.5843L129.13 33.0348H129.58V32.284L127.928 31.9837L126.577 31.0828L125.676 29.7315L125.226 27.9297H124.625Z" fill="black"/>
<path d="M129.58 22.9766L128.078 23.2769L126.877 23.8775L125.676 24.7784L124.925 25.9796L124.625 27.4811V27.9315H125.226L125.676 26.2799L126.577 24.9285L127.928 24.0276L129.58 23.7273V22.9766Z" fill="black"/>
<path d="M129.579 45.1921C132.15 45.1921 134.234 43.1082 134.234 40.5375C134.234 37.9668 132.15 35.8828 129.579 35.8828C127.009 35.8828 124.925 37.9668 124.925 40.5375C124.925 43.1082 127.009 45.1921 129.579 45.1921Z" fill="#7F7F7F"/>
<path d="M134.685 40.5426L134.385 39.0411L133.784 37.6898L132.883 36.6387L131.532 35.888L130.181 35.4375H129.58V36.1883L131.232 36.4886L132.733 37.3895L133.634 38.891L133.934 40.5426H134.685Z" fill="black"/>
<path d="M129.58 45.494L131.082 45.3439L132.433 44.7433L133.484 43.6922L134.235 42.491L134.685 40.9895V40.5391H133.934L133.634 42.1907L132.733 43.5421L131.232 44.443L129.58 44.8934V45.494Z" fill="black"/>
<path d="M124.625 40.5391L124.775 42.0406L125.376 43.3919L126.427 44.443L127.628 45.1937L129.13 45.494H129.58V44.8934L127.928 44.443L126.577 43.5421L125.676 42.1907L125.226 40.5391H124.625Z" fill="black"/>
<path d="M129.58 35.4375L128.078 35.7378L126.877 36.3384L125.676 37.2393L124.925 38.5907L124.625 39.942V40.5426H125.226L125.676 38.891L126.577 37.3895L127.928 36.4886L129.58 36.1883V35.4375Z" fill="black"/>
<path d="M129.579 57.6609C132.15 57.6609 134.234 55.5769 134.234 53.0062C134.234 50.4355 132.15 48.3516 129.579 48.3516C127.009 48.3516 124.925 50.4355 124.925 53.0062C124.925 55.5769 127.009 57.6609 129.579 57.6609Z" fill="#7F7F7F"/>
<path d="M134.685 53.0018L134.385 51.5003L133.784 50.149L132.883 49.0979L131.532 48.3472L130.181 48.0469H129.58V48.6475L131.232 49.0979L132.733 49.9988L133.634 51.3502L133.934 53.0018H134.685Z" fill="black"/>
<path d="M129.58 58.1051L131.082 57.8048L132.433 57.2042L133.484 56.1532L134.235 54.952L134.685 53.4505V53H133.934L133.634 54.6517L132.733 56.003L131.232 57.0541L129.58 57.3544V58.1051Z" fill="black"/>
<path d="M124.625 53L124.775 54.5015L125.376 55.8529L126.427 56.9039L127.628 57.6547L129.13 57.955L129.58 58.1051V57.3544L127.928 57.0541L126.577 56.003L125.676 54.6517L125.226 53H124.625Z" fill="black"/>
<path d="M129.58 48.0469L128.078 48.197L126.877 48.7976L125.676 49.8487L124.925 51.0499L124.625 52.5514V53.0018H125.226L125.676 51.3502L126.577 49.9988L127.928 49.0979L129.58 48.6475V48.0469Z" fill="black"/>
<path d="M129.579 70.1218C132.15 70.1218 134.234 68.0378 134.234 65.4672C134.234 62.8965 132.15 60.8125 129.579 60.8125C127.009 60.8125 124.925 62.8965 124.925 65.4672C124.925 68.0378 127.009 70.1218 129.579 70.1218Z" fill="#7F7F7F"/>
<path d="M134.685 65.4628L134.385 63.9613L133.784 62.7601L132.883 61.5589L131.532 60.8081L130.181 60.5078H129.58V61.1084L131.232 61.5589L132.733 62.4598L133.634 63.8111L133.934 65.4628H134.685Z" fill="black"/>
<path d="M129.58 70.5739L131.082 70.2736L132.433 69.673L133.484 68.7721L134.235 67.4207L134.685 66.0694V65.4688H133.934L133.634 67.1204L132.733 68.6219L131.232 69.5228L129.58 69.8231V70.5739Z" fill="black"/>
<path d="M124.625 65.4688L124.775 66.9703L125.376 68.3216L126.427 69.3727L127.628 70.1234L129.13 70.5739H129.58V69.8231L127.928 69.5228L126.577 68.6219L125.676 67.1204L125.226 65.4688H124.625Z" fill="black"/>
<path d="M129.58 60.5078L128.078 60.658L126.877 61.2586L125.676 62.3096L124.925 63.5108L124.625 65.0123V65.4628H125.226L125.676 63.8111L126.577 62.4598L127.928 61.5589L129.58 61.1084V60.5078Z" fill="black"/>
<path d="M129.579 82.5827C132.15 82.5827 134.234 80.4988 134.234 77.9281C134.234 75.3574 132.15 73.2734 129.579 73.2734C127.009 73.2734 124.925 75.3574 124.925 77.9281C124.925 80.4988 127.009 82.5827 129.579 82.5827Z" fill="#7F7F7F"/>
<path d="M134.685 77.9315L134.385 76.43L133.784 75.2288L132.883 74.1778L131.532 73.427L130.181 72.9766H129.58V73.7273L131.232 74.0276L132.733 74.9285L133.634 76.2799L133.934 77.9315H134.685Z" fill="black"/>
<path d="M129.58 83.0348L131.082 82.8846L132.433 82.1339L133.484 81.233L134.235 80.0318L134.685 78.5303V77.9297H133.934L133.634 79.7315L132.733 81.0828L131.232 81.9837L129.58 82.284V83.0348Z" fill="black"/>
<path d="M124.625 77.9297L124.775 79.4312L125.376 80.7825L126.427 81.8336L127.628 82.5843L129.13 83.0348H129.58V82.284L127.928 81.9837L126.577 81.0828L125.676 79.7315L125.226 77.9297H124.625Z" fill="black"/>
<path d="M129.58 72.9766L128.078 73.2769L126.877 73.8775L125.676 74.7784L124.925 75.9796L124.625 77.4811V77.9315H125.226L125.676 76.2799L126.577 74.9285L127.928 74.0276L129.58 73.7273V72.9766Z" fill="black"/>
<path d="M13.9639 98.3516H135.886V137.391H13.9639V98.3516Z" fill="#B2B2B2" stroke="white" stroke-width="0.3003"/>
<path d="M13.9639 137.391L15.4654 135.889L134.234 99.8531L135.886 98.3516H13.9639V137.391Z" fill="#4C4C4C" stroke="black" stroke-width="0.3003"/>
<path d="M15.4658 99.8516H134.385V135.888H15.4658V99.8516Z" fill="#7F7F7F" stroke="black" stroke-width="0.3003"/>
<path d="M17.1172 101.5H32.1322V112.311H17.1172V101.5Z" fill="#B2B2B2" stroke="black" stroke-width="0.3003"/>
<path d="M32.1318 101.5H47.1469V112.311H32.1318V101.5Z" fill="#B2B2B2" stroke="black" stroke-width="0.3003"/>
<path d="M47.1475 101.5H62.1625V112.311H47.1475V101.5Z" fill="#B2B2B2" stroke="black" stroke-width="0.3003"/>
<path d="M62.1621 101.5H77.1771V112.311H62.1621V101.5Z" fill="#B2B2B2" stroke="black" stroke-width="0.3003"/>
<path d="M77.1768 101.5H92.1918V112.311H77.1768V101.5Z" fill="#B2B2B2" stroke="black" stroke-width="0.3003"/>
<path d="M17.1172 112.461H32.1322V123.272H17.1172V112.461Z" fill="#B2B2B2" stroke="black" stroke-width="0.3003"/>
<path d="M32.1318 112.461H47.1469V123.272H32.1318V112.461Z" fill="#B2B2B2" stroke="black" stroke-width="0.3003"/>
<path d="M47.1475 112.461H62.1625V123.272H47.1475V112.461Z" fill="#B2B2B2" stroke="black" stroke-width="0.3003"/>
<path d="M62.1621 112.461H77.1771V123.272H62.1621V112.461Z" fill="#B2B2B2" stroke="black" stroke-width="0.3003"/>
<path d="M77.1768 112.461H92.1918V123.272H77.1768V112.461Z" fill="#B2B2B2" stroke="black" stroke-width="0.3003"/>
<path d="M17.1172 123.273H32.1322V134.234H17.1172V123.273Z" fill="#B2B2B2" stroke="black" stroke-width="0.3003"/>
<path d="M32.1318 123.273H47.1469V134.234H32.1318V123.273Z" fill="#B2B2B2" stroke="black" stroke-width="0.3003"/>
<path d="M47.1475 123.273H62.1625V134.234H47.1475V123.273Z" fill="#B2B2B2" stroke="black" stroke-width="0.3003"/>
<path d="M62.1621 123.273H77.1771V134.234H62.1621V123.273Z" fill="#B2B2B2" stroke="black" stroke-width="0.3003"/>
<path d="M77.1768 123.273H92.1918V134.234H77.1768V123.273Z" fill="#B2B2B2" stroke="black" stroke-width="0.3003"/>
<path d="M95.1953 101.5H109.309V134.233H95.1953V101.5Z" fill="#000066" stroke="black" stroke-width="0.3003"/>
<path d="M112.463 101.5H119.22V109.608H112.463V101.5Z" fill="#E5E5E5" stroke="black" stroke-width="0.3003"/>
<path d="M112.463 109.609H119.22V117.868H112.463V109.609Z" fill="#E5E5E5" stroke="black" stroke-width="0.3003"/>
<path d="M112.463 117.867H119.22V125.975H112.463V117.867Z" fill="#E5E5E5" stroke="black" stroke-width="0.3003"/>
<path d="M112.463 126.125H119.22V134.233H112.463V126.125Z" fill="#E5E5E5" stroke="black" stroke-width="0.3003"/>
<path d="M119.219 101.5H125.976V109.608H119.219V101.5Z" fill="#E5E5E5" stroke="black" stroke-width="0.3003"/>
<path d="M119.219 109.609H125.976V117.868H119.219V109.609Z" fill="#E5E5E5" stroke="black" stroke-width="0.3003"/>
<path d="M119.219 117.867H125.976V125.975H119.219V117.867Z" fill="#E5E5E5" stroke="black" stroke-width="0.3003"/>
<path d="M119.219 126.125H125.976V134.233H119.219V126.125Z" fill="#E5E5E5" stroke="black" stroke-width="0.3003"/>
<path d="M125.976 101.5H132.732V109.608H125.976V101.5Z" fill="#E5E5E5" stroke="black" stroke-width="0.3003"/>
<path d="M125.976 109.609H132.732V117.868H125.976V109.609Z" fill="#E5E5E5" stroke="black" stroke-width="0.3003"/>
<path d="M125.976 117.867H132.732V125.975H125.976V117.867Z" fill="#E5E5E5" stroke="black" stroke-width="0.3003"/>
<path d="M125.976 126.125H132.732V134.233H125.976V126.125Z" fill="#E5E5E5" stroke="black" stroke-width="0.3003"/>
<path d="M115.766 108.561C117.092 108.561 118.168 107.216 118.168 105.558C118.168 103.899 117.092 102.555 115.766 102.555C114.439 102.555 113.363 103.899 113.363 105.558C113.363 107.216 114.439 108.561 115.766 108.561Z" fill="#7F7F7F" stroke="white" stroke-width="0.3003"/>
<path d="M115.766 116.67C117.092 116.67 118.168 115.326 118.168 113.667C118.168 112.009 117.092 110.664 115.766 110.664C114.439 110.664 113.363 112.009 113.363 113.667C113.363 115.326 114.439 116.67 115.766 116.67Z" fill="#7F7F7F" stroke="white" stroke-width="0.3003"/>
<path d="M115.766 124.928C117.092 124.928 118.168 123.583 118.168 121.925C118.168 120.266 117.092 118.922 115.766 118.922C114.439 118.922 113.363 120.266 113.363 121.925C113.363 123.583 114.439 124.928 115.766 124.928Z" fill="#7F7F7F" stroke="white" stroke-width="0.3003"/>
<path d="M115.766 133.186C117.092 133.186 118.168 131.841 118.168 130.183C118.168 128.524 117.092 127.18 115.766 127.18C114.439 127.18 113.363 128.524 113.363 130.183C113.363 131.841 114.439 133.186 115.766 133.186Z" fill="#7F7F7F" stroke="white" stroke-width="0.3003"/>
<path d="M122.523 108.561C123.849 108.561 124.925 107.216 124.925 105.558C124.925 103.899 123.849 102.555 122.523 102.555C121.196 102.555 120.12 103.899 120.12 105.558C120.12 107.216 121.196 108.561 122.523 108.561Z" fill="#7F7F7F" stroke="white" stroke-width="0.3003"/>
<path d="M122.523 116.67C123.849 116.67 124.925 115.326 124.925 113.667C124.925 112.009 123.849 110.664 122.523 110.664C121.196 110.664 120.12 112.009 120.12 113.667C120.12 115.326 121.196 116.67 122.523 116.67Z" fill="#7F7F7F" stroke="white" stroke-width="0.3003"/>
<path d="M122.523 124.928C123.849 124.928 124.925 123.583 124.925 121.925C124.925 120.266 123.849 118.922 122.523 118.922C121.196 118.922 120.12 120.266 120.12 121.925C120.12 123.583 121.196 124.928 122.523 124.928Z" fill="#7F7F7F" stroke="white" stroke-width="0.3003"/>
<path d="M122.523 133.186C123.849 133.186 124.925 131.841 124.925 130.183C124.925 128.524 123.849 127.18 122.523 127.18C121.196 127.18 120.12 128.524 120.12 130.183C120.12 131.841 121.196 133.186 122.523 133.186Z" fill="#7F7F7F" stroke="white" stroke-width="0.3003"/>
<path d="M129.43 108.561C130.839 108.561 131.982 107.216 131.982 105.558C131.982 103.899 130.839 102.555 129.43 102.555C128.02 102.555 126.877 103.899 126.877 105.558C126.877 107.216 128.02 108.561 129.43 108.561Z" fill="#7F7F7F" stroke="white" stroke-width="0.3003"/>
<path d="M129.43 116.67C130.839 116.67 131.982 115.326 131.982 113.667C131.982 112.009 130.839 110.664 129.43 110.664C128.02 110.664 126.877 112.009 126.877 113.667C126.877 115.326 128.02 116.67 129.43 116.67Z" fill="#7F7F7F" stroke="white" stroke-width="0.3003"/>
<path d="M129.43 124.928C130.839 124.928 131.982 123.583 131.982 121.925C131.982 120.266 130.839 118.922 129.43 118.922C128.02 118.922 126.877 120.266 126.877 121.925C126.877 123.583 128.02 124.928 129.43 124.928Z" fill="#7F7F7F" stroke="white" stroke-width="0.3003"/>
<path d="M129.43 133.186C130.839 133.186 131.982 131.841 131.982 130.183C131.982 128.524 130.839 127.18 129.43 127.18C128.02 127.18 126.877 128.524 126.877 130.183C126.877 131.841 128.02 133.186 129.43 133.186Z" fill="#7F7F7F" stroke="white" stroke-width="0.3003"/>
</g>
<defs>
<clipPath id="clip0_2109_215015">
<rect width="150" height="150" fill="white"/>
</clipPath>
</defs>
</svg>
