<svg width="150" height="150" viewBox="0 0 150 150" fill="none" xmlns="http://www.w3.org/2000/svg">
<g clip-path="url(#clip0_2109_215926)">
<path d="M10.3037 6.00781H139.697V143.395H10.3037V6.00781Z" fill="#CCCCCC"/>
<path d="M0 150L10.3035 143.393H139.696V6.00601L149.281 0V150H0Z" fill="#999999"/>
<path d="M150 0L139.696 6.00601H10.3035V143.393L0 150V0H150Z" fill="#E5E5E5"/>
<path d="M0 0H149.281V150H0V0Z" stroke="black" stroke-width="0.37936"/>
<path d="M74.7605 40.5407C77.5395 40.5407 79.7924 39.129 79.7924 37.3875C79.7924 35.6461 77.5395 34.2344 74.7605 34.2344C71.9814 34.2344 69.7285 35.6461 69.7285 37.3875C69.7285 39.129 71.9814 40.5407 74.7605 40.5407Z" fill="#CCCCCC" stroke="black" stroke-width="0.37936"/>
<path d="M69.7285 36.7891H80.032V37.9903H69.7285V36.7891Z" fill="#666666" stroke="black" stroke-width="0.37936"/>
<path d="M74.7605 115.463C77.5395 115.463 79.7924 114.051 79.7924 112.309C79.7924 110.568 77.5395 109.156 74.7605 109.156C71.9814 109.156 69.7285 110.568 69.7285 112.309C69.7285 114.051 71.9814 115.463 74.7605 115.463Z" fill="#CCCCCC" stroke="black" stroke-width="0.37936"/>
<path d="M69.7285 111.859H80.032V113.061H69.7285V111.859Z" fill="#666666" stroke="black" stroke-width="0.37936"/>
<path d="M64.6963 59.1562H84.5845V90.3875H64.6963V59.1562Z" fill="#CCCCCC" stroke="black" stroke-width="0.37936"/>
<path d="M65.8945 59.9062H83.3865V89.9363H65.8945V59.9062Z" fill="#666666" stroke="black" stroke-width="0.37936"/>
<path d="M72.3643 87.5391H87.2205V95.1967H72.3643V87.5391Z" fill="#B2B2B2"/>
<path d="M67.0928 76.5768H81.949V62.3125H67.0928V76.5768Z" fill="#B2B2B2"/>
<path d="M67.0928 63.2109H81.949V64.7124H67.0928V63.2109Z" fill="#E5E5E5"/>
<path d="M72.3643 95.1967L67.0928 82.5841V76.5781L72.3643 87.5391V95.1967Z" fill="#999999"/>
<path d="M67.0928 76.5781L72.3643 87.5391H87.2206L81.949 76.5781H67.0928Z" fill="#E5E5E5"/>
<path d="M67.0928 82.5828V62.3125H81.949V76.5768L87.2206 87.5377V95.1954H72.3643L67.0928 82.5828Z" stroke="black" stroke-width="0.37936"/>
<path d="M67.0928 76.5781H81.949" stroke="black" stroke-width="0.37936"/>
</g>
<defs>
<clipPath id="clip0_2109_215926">
<rect width="150" height="150" fill="white"/>
</clipPath>
</defs>
</svg>
