<svg width="150" height="150" viewBox="0 0 150 150" fill="none" xmlns="http://www.w3.org/2000/svg">
<path d="M0.600586 148.72V1.02344H149.249V148.72H0.600586Z" fill="#CCCCCC" stroke="black" stroke-width="0.392094"/>
<path d="M143.093 6.39844L142.193 8.44622L144.595 15.6135L142.193 22.7807H137.538L136.787 24.8285H143.093L146.096 15.6135L143.093 6.39844Z" fill="#666666"/>
<path d="M143.093 124.914L142.193 127.218L144.595 134.129L142.193 141.296H137.538L136.787 143.6H143.093L146.096 134.129L143.093 124.914Z" fill="#666666"/>
<path d="M13.0634 6.39844L12.3126 8.44622L14.5649 15.6135L12.3126 22.7807H7.65798L6.90723 24.8285H13.0634L16.2165 15.6135L13.0634 6.39844Z" fill="#666666"/>
<path d="M13.0634 124.914L12.3126 127.218L14.5649 134.129L12.3126 141.296H7.65798L6.90723 143.6H13.0634L16.2165 134.129L13.0634 124.914Z" fill="#666666"/>
<path d="M6.90706 143.6L7.65781 141.296L5.25541 134.129L7.65781 127.218H12.3125L13.0632 124.914H6.90706L3.75391 134.129L6.90706 143.6Z" fill="white"/>
<path d="M136.787 143.6L137.538 141.296L135.286 134.129L137.538 127.218H142.193L143.093 124.914H136.787L133.784 134.129L136.787 143.6Z" fill="white"/>
<path d="M136.787 24.8285L137.538 22.7807L135.286 15.6135L137.538 8.44622H142.193L143.093 6.39844H136.787L133.784 15.6135L136.787 24.8285Z" fill="white"/>
<path d="M6.90706 24.8285L7.65781 22.7807L5.25541 15.6135L7.65781 8.44622H12.3125L13.0632 6.39844H6.90706L3.75391 15.6135L6.90706 24.8285Z" fill="white"/>
<path d="M16.2158 122.612V27.3906H133.633V122.612H16.2158Z" fill="#4C4C4C"/>
<path d="M16.2158 122.356L20.7203 114.677V35.3258H129.129L133.783 27.3906H16.2158V122.356Z" fill="black"/>
<path d="M133.783 27.3906L129.129 35.3258V114.677H20.7203L16.2158 122.356H133.783V27.3906Z" fill="#7F7F7F"/>
<path d="M16.2158 122.357H133.783V27.3906" stroke="white" stroke-width="0.392094"/>
</svg>
