<svg width="150" height="150" viewBox="0 0 150 150" fill="none" xmlns="http://www.w3.org/2000/svg">
<g clip-path="url(#clip0_2109_215538)">
<path d="M0 0H150V150H0V0Z" fill="#4C4C4C" stroke="black" stroke-width="0.601504"/>
<path d="M6.15625 12.0469H18.7689V39.1553H6.15625V12.0469Z" fill="#BFBFBF" stroke="black" stroke-width="0.601504"/>
<path d="M19.9697 12.0469H32.7325V39.1553H19.9697V12.0469Z" fill="#BFBFBF" stroke="black" stroke-width="0.601504"/>
<path d="M33.9336 12.0469H46.5462V39.1553H33.9336V12.0469Z" fill="#BFBFBF" stroke="black" stroke-width="0.601504"/>
<path d="M131.081 12.0469H143.694V39.1553H131.081V12.0469Z" fill="#BFBFBF" stroke="black" stroke-width="0.601504"/>
<path d="M47.748 12.0469H60.3607V39.1553H47.748V12.0469Z" fill="#BFBFBF" stroke="black" stroke-width="0.601504"/>
<path d="M61.5615 12.0469H74.3243V39.1553H61.5615V12.0469Z" fill="#BFBFBF" stroke="black" stroke-width="0.601504"/>
<path d="M75.5254 12.0469H88.138V39.1553H75.5254V12.0469Z" fill="#BFBFBF" stroke="black" stroke-width="0.601504"/>
<path d="M89.4893 12.0469H102.102V39.1553H89.4893V12.0469Z" fill="#BFBFBF" stroke="black" stroke-width="0.601504"/>
<path d="M103.304 12.0469H115.916V39.1553H103.304V12.0469Z" fill="#BFBFBF" stroke="black" stroke-width="0.601504"/>
<path d="M117.117 12.0469H129.88V39.1553H117.117V12.0469Z" fill="#BFBFBF" stroke="black" stroke-width="0.601504"/>
<path d="M6.15625 44.5781H18.7689V72.289H6.15625V44.5781Z" fill="#BFBFBF" stroke="black" stroke-width="0.601504"/>
<path d="M19.9697 44.5781H32.7325V72.289H19.9697V44.5781Z" fill="#BFBFBF" stroke="black" stroke-width="0.601504"/>
<path d="M33.9336 44.5781H46.5462V72.289H33.9336V44.5781Z" fill="#BFBFBF" stroke="black" stroke-width="0.601504"/>
<path d="M131.081 44.5781H143.694V72.289H131.081V44.5781Z" fill="#BFBFBF" stroke="black" stroke-width="0.601504"/>
<path d="M47.748 44.5781H60.3607V72.289H47.748V44.5781Z" fill="#BFBFBF" stroke="black" stroke-width="0.601504"/>
<path d="M61.5615 44.5781H74.3243V72.289H61.5615V44.5781Z" fill="#BFBFBF" stroke="black" stroke-width="0.601504"/>
<path d="M75.5254 44.5781H88.138V72.289H75.5254V44.5781Z" fill="#BFBFBF" stroke="black" stroke-width="0.601504"/>
<path d="M89.4893 44.5781H102.102V72.289H89.4893V44.5781Z" fill="#BFBFBF" stroke="black" stroke-width="0.601504"/>
<path d="M103.304 44.5781H115.916V72.289H103.304V44.5781Z" fill="#BFBFBF" stroke="black" stroke-width="0.601504"/>
<path d="M117.117 44.5781H129.88V72.289H117.117V44.5781Z" fill="#BFBFBF" stroke="black" stroke-width="0.601504"/>
<path d="M6.15625 77.7109H18.7689V104.819H6.15625V77.7109Z" fill="#BFBFBF" stroke="black" stroke-width="0.601504"/>
<path d="M19.9697 77.7109H32.7325V104.819H19.9697V77.7109Z" fill="#BFBFBF" stroke="black" stroke-width="0.601504"/>
<path d="M33.9336 77.7109H46.5462V104.819H33.9336V77.7109Z" fill="#BFBFBF" stroke="black" stroke-width="0.601504"/>
<path d="M131.081 77.7109H143.694V104.819H131.081V77.7109Z" fill="#BFBFBF" stroke="black" stroke-width="0.601504"/>
<path d="M47.748 77.7109H60.3607V104.819H47.748V77.7109Z" fill="#BFBFBF" stroke="black" stroke-width="0.601504"/>
<path d="M61.5615 77.7109H74.3243V104.819H61.5615V77.7109Z" fill="#BFBFBF" stroke="black" stroke-width="0.601504"/>
<path d="M75.5254 77.7109H88.138V104.819H75.5254V77.7109Z" fill="#BFBFBF" stroke="black" stroke-width="0.601504"/>
<path d="M89.4893 77.7109H102.102V104.819H89.4893V77.7109Z" fill="#BFBFBF" stroke="black" stroke-width="0.601504"/>
<path d="M103.304 77.7109H115.916V104.819H103.304V77.7109Z" fill="#BFBFBF" stroke="black" stroke-width="0.601504"/>
<path d="M117.117 77.7109H129.88V104.819H117.117V77.7109Z" fill="#BFBFBF" stroke="black" stroke-width="0.601504"/>
<path d="M6.15625 110.242H18.7689V137.351H6.15625V110.242Z" fill="#BFBFBF" stroke="black" stroke-width="0.601504"/>
<path d="M19.9697 110.242H32.7325V137.351H19.9697V110.242Z" fill="#BFBFBF" stroke="black" stroke-width="0.601504"/>
<path d="M33.9336 110.242H46.5462V137.351H33.9336V110.242Z" fill="#BFBFBF" stroke="black" stroke-width="0.601504"/>
<path d="M131.081 110.242H143.694V137.351H131.081V110.242Z" fill="#BFBFBF" stroke="black" stroke-width="0.601504"/>
<path d="M47.748 110.242H60.3607V137.351H47.748V110.242Z" fill="#BFBFBF" stroke="black" stroke-width="0.601504"/>
<path d="M61.5615 110.242H74.3243V137.351H61.5615V110.242Z" fill="#BFBFBF" stroke="black" stroke-width="0.601504"/>
<path d="M75.5254 110.242H88.138V137.351H75.5254V110.242Z" fill="#BFBFBF" stroke="black" stroke-width="0.601504"/>
<path d="M89.4893 110.242H102.102V137.351H89.4893V110.242Z" fill="#BFBFBF" stroke="black" stroke-width="0.601504"/>
<path d="M103.304 110.242H115.916V137.351H103.304V110.242Z" fill="#BFBFBF" stroke="black" stroke-width="0.601504"/>
<path d="M117.117 110.242H129.88V137.351H117.117V110.242Z" fill="#BFBFBF" stroke="black" stroke-width="0.601504"/>
<path d="M62.4629 3.01562H87.3878V9.03972H62.4629V3.01562Z" fill="#CC9933"/>
</g>
<defs>
<clipPath id="clip0_2109_215538">
<rect width="150" height="150" fill="white"/>
</clipPath>
</defs>
</svg>
