<svg width="150" height="150" viewBox="0 0 150 150" fill="none" xmlns="http://www.w3.org/2000/svg">
<g clip-path="url(#clip0_2109_215793)">
<path d="M23.6136 62.459L0.450195 56.3029V0.296875H149.551V56.3029L126.162 62.459V149.546H23.6136V62.459Z" fill="#7F7F7F"/>
<path d="M0.224888 56.6101L23.6132 62.7663L23.8381 62.1657L0.674663 55.8594L0.89955 56.3098H0V56.46L0.224888 56.6101Z" fill="black"/>
<path d="M0 0.3003V56.3063H0.89955V0.3003L0.449775 0.600601V0H0V0.3003Z" fill="black"/>
<path d="M149.551 0H0.450195V0.600601H149.551L149.101 0.3003H150V0H149.551Z" fill="black"/>
<path d="M150 56.3029V0.296875H149.101V56.3029L149.325 55.8524L149.775 56.6032L150 56.453V56.3029Z" fill="black"/>
<path d="M126.611 62.466L126.387 62.7663L149.775 56.6101L149.325 55.8594L125.937 62.1657L125.712 62.3158V62.466H126.611Z" fill="black"/>
<path d="M126.611 149.548V62.4609H125.712V149.548L126.162 149.248V149.998H126.611V149.548Z" fill="black"/>
<path d="M23.6129 150.001H126.162V149.25H23.6129L24.2875 149.55H23.1631V150.001H23.6129Z" fill="black"/>
<path d="M23.6129 62.7647L23.1631 62.4644V149.551H24.2875V62.4644V62.3142L23.8377 62.1641L23.6129 62.7647Z" fill="black"/>
<path d="M27.2109 51.5H122.788V143.392H27.2109V51.5Z" fill="black" stroke="black" stroke-width="0.367515"/>
<path d="M5.17188 3.45312H144.827V49.9997H5.17188V3.45312Z" fill="black" stroke="black" stroke-width="0.367515"/>
<path d="M16.6416 46.9984H133.133V14.2656H16.6416V46.9984Z" fill="#99CCCC" stroke="black" stroke-width="0.367515"/>
<path d="M4.94727 48.5H144.827" stroke="#7F7F7F" stroke-width="0.367515"/>
<path d="M35.3076 65.3125H48.8009V74.3215H35.3076V65.3125Z" fill="white" stroke="black" stroke-width="0.367515"/>
<path d="M35.3076 75.9766H48.8009V84.9856H35.3076V75.9766Z" fill="white" stroke="black" stroke-width="0.367515"/>
<path d="M35.3076 86.7891H48.8009V95.7981H35.3076V86.7891Z" fill="white" stroke="black" stroke-width="0.367515"/>
<path d="M35.3076 97.4453H48.8009V106.454H35.3076V97.4453Z" fill="#CCCCCC" stroke="black" stroke-width="0.367515"/>
<path d="M35.3076 108.258H48.8009V117.267H35.3076V108.258Z" fill="#CCCCCC" stroke="black" stroke-width="0.367515"/>
<path d="M35.3076 119.07H48.8009V127.929H35.3076V119.07Z" fill="#CCCCCC" stroke="black" stroke-width="0.367515"/>
<path d="M35.3076 129.727H48.8009V138.736H35.3076V129.727Z" fill="#0000FF" stroke="black" stroke-width="0.367515"/>
<path d="M51.499 65.3125H64.9923V74.3215H51.499V65.3125Z" fill="white" stroke="black" stroke-width="0.367515"/>
<path d="M51.499 75.9766H64.9923V84.9856H51.499V75.9766Z" fill="white" stroke="black" stroke-width="0.367515"/>
<path d="M51.499 86.7891H64.9923V95.7981H51.499V86.7891Z" fill="white" stroke="black" stroke-width="0.367515"/>
<path d="M51.499 97.4453H64.9923V106.454H51.499V97.4453Z" fill="#CCCCCC" stroke="black" stroke-width="0.367515"/>
<path d="M51.499 108.258H64.9923V117.267H51.499V108.258Z" fill="#CCCCCC" stroke="black" stroke-width="0.367515"/>
<path d="M51.499 119.07H64.9923V127.929H51.499V119.07Z" fill="#CCCCCC" stroke="black" stroke-width="0.367515"/>
<path d="M67.6914 65.3125H81.1847V74.3215H67.6914V65.3125Z" fill="white" stroke="black" stroke-width="0.367515"/>
<path d="M67.6914 75.9766H81.1847V84.9856H67.6914V75.9766Z" fill="white" stroke="black" stroke-width="0.367515"/>
<path d="M67.6914 86.7891H81.1847V95.7981H67.6914V86.7891Z" fill="white" stroke="black" stroke-width="0.367515"/>
<path d="M67.6914 97.4453H81.1847V106.454H67.6914V97.4453Z" fill="#CCCCCC" stroke="black" stroke-width="0.367515"/>
<path d="M67.6914 108.258H81.1847V117.267H67.6914V108.258Z" fill="#CCCCCC" stroke="black" stroke-width="0.367515"/>
<path d="M67.6914 119.07H81.1847V127.929H67.6914V119.07Z" fill="#CCCCCC" stroke="black" stroke-width="0.367515"/>
<path d="M83.8828 65.3125H97.3761V74.3215H83.8828V65.3125Z" fill="white" stroke="black" stroke-width="0.367515"/>
<path d="M83.8828 75.9766H97.3761V84.9856H83.8828V75.9766Z" fill="white" stroke="black" stroke-width="0.367515"/>
<path d="M83.8828 86.7891H97.3761V95.7981H83.8828V86.7891Z" fill="white" stroke="black" stroke-width="0.367515"/>
<path d="M83.8828 97.4453H97.3761V106.454H83.8828V97.4453Z" fill="white" stroke="black" stroke-width="0.367515"/>
<path d="M83.8828 108.258H97.3761V117.267H83.8828V108.258Z" fill="white" stroke="black" stroke-width="0.367515"/>
<path d="M99.8496 65.3125H113.343V74.3215H99.8496V65.3125Z" fill="white" stroke="black" stroke-width="0.367515"/>
<path d="M99.8496 75.9766H113.343V84.9856H99.8496V75.9766Z" fill="white" stroke="black" stroke-width="0.367515"/>
<path d="M99.8496 86.7891H113.343V95.7981H99.8496V86.7891Z" fill="white" stroke="black" stroke-width="0.367515"/>
<path d="M99.8496 97.4453H113.343V106.454H99.8496V97.4453Z" fill="white" stroke="black" stroke-width="0.367515"/>
<path d="M99.8496 108.258H113.343V117.267H99.8496V108.258Z" fill="white" stroke="black" stroke-width="0.367515"/>
<path d="M51.499 129.727H81.1842V138.736H51.499V129.727Z" fill="#FF0000" stroke="black" stroke-width="0.367515"/>
<path d="M56.4473 53.1562H72.6392V57.8109H56.4473V53.1562Z" fill="#0000FF" stroke="black" stroke-width="0.367515"/>
<path d="M35.3076 53.1562H51.7244V57.8109H35.3076V53.1562Z" fill="#0000FF" stroke="black" stroke-width="0.367515"/>
<path d="M98.2754 53.1562H114.467V57.8109H98.2754V53.1562Z" fill="#0000FF" stroke="black" stroke-width="0.367515"/>
<path d="M77.3613 53.1562H93.5532V57.8109H77.3613V53.1562Z" fill="#0000FF" stroke="black" stroke-width="0.367515"/>
<path d="M43.4036 63.817C47.8748 63.817 51.4995 62.8086 51.4995 61.5648C51.4995 60.3209 47.8748 59.3125 43.4036 59.3125C38.9323 59.3125 35.3076 60.3209 35.3076 61.5648C35.3076 62.8086 38.9323 63.817 43.4036 63.817Z" fill="#FF0000" stroke="black" stroke-width="0.367515"/>
<path d="M94.4531 125.225L98.9509 119.219L103.449 125.225H94.4531Z" fill="white" stroke="black" stroke-width="0.367515"/>
<path d="M103.449 132.734L98.9509 138.74L94.4531 132.734H103.449Z" fill="white" stroke="black" stroke-width="0.367515"/>
<path d="M93.3285 131.983L84.333 128.98L93.3285 125.977V131.983Z" fill="white" stroke="black" stroke-width="0.367515"/>
<path d="M104.348 125.977L113.343 128.98L104.348 131.983V125.977Z" fill="white" stroke="black" stroke-width="0.367515"/>
<path d="M17.9912 22.0703H132.009" stroke="#FF00FF" stroke-width="0.367515"/>
<path d="M17.9912 43.8438H132.009" stroke="#FF00FF" stroke-width="0.367515"/>
<path d="M74.8877 22.0727V15.0156" stroke="#FF00FF" stroke-width="0.367515"/>
<path d="M104.123 22.0727V15.0156" stroke="#FF00FF" stroke-width="0.367515"/>
<path d="M74.8877 43.8438V46.096" stroke="#FF00FF" stroke-width="0.367515"/>
<path d="M43.4033 43.8438V46.9969" stroke="#FF00FF" stroke-width="0.367515"/>
<path d="M104.123 43.8438V46.096" stroke="#FF00FF" stroke-width="0.367515"/>
</g>
<defs>
<clipPath id="clip0_2109_215793">
<rect width="150" height="150" fill="white"/>
</clipPath>
</defs>
</svg>
