<svg width="150" height="150" viewBox="0 0 150 150" fill="none" xmlns="http://www.w3.org/2000/svg">
<path d="M0.300781 148.634V0.914062H149.55V148.634H0.300781Z" fill="#CCCCCC" stroke="black" stroke-width="0.523288"/>
<path d="M7.20736 6.38281L6.90706 8.66245L8.10826 15.5014L6.90706 22.7962H4.05421L3.75391 25.0758H7.20736L8.85901 15.5014L7.20736 6.38281Z" fill="#666666"/>
<path d="M7.20736 124.922L6.90706 127.202L8.10826 134.04L6.90706 141.335H4.05421L3.75391 143.615H7.20736L8.85901 134.04L7.20736 124.922Z" fill="#666666"/>
<path d="M146.096 6.38281L145.646 8.66245L146.997 15.5014L145.646 22.7962H142.943L142.643 25.0758H146.096L147.748 15.5014L146.096 6.38281Z" fill="#666666"/>
<path d="M146.096 124.922L145.646 127.202L146.997 134.04L145.646 141.335H142.943L142.643 143.615H146.096L147.748 134.04L146.096 124.922Z" fill="#666666"/>
<path d="M76.5767 6.38281L76.2764 8.66245L77.4776 15.5014L76.2764 22.7962H73.5737L73.2734 25.0758H76.5767L78.2284 15.5014L76.5767 6.38281Z" fill="#666666"/>
<path d="M76.5767 124.922L76.2764 127.202L77.4776 134.04L76.2764 141.335H73.5737L73.2734 143.615H76.5767L78.2284 134.04L76.5767 124.922Z" fill="#666666"/>
<path d="M142.643 25.0758L142.943 22.7962L141.742 15.5014L142.943 8.66245H145.646L146.096 6.38281H142.643L140.841 15.5014L142.643 25.0758Z" fill="white"/>
<path d="M142.643 143.615L142.943 141.335L141.742 134.04L142.943 127.202H145.646L146.096 124.922H142.643L140.841 134.04L142.643 143.615Z" fill="white"/>
<path d="M73.2735 25.0758L73.5738 22.7962L72.3726 15.5014L73.5738 8.66245H76.2765L76.5768 6.38281H73.2735L71.4717 15.5014L73.2735 25.0758Z" fill="white"/>
<path d="M73.2735 143.615L73.5738 141.335L72.3726 134.04L73.5738 127.202H76.2765L76.5768 124.922H73.2735L71.4717 134.04L73.2735 143.615Z" fill="white"/>
<path d="M3.75419 25.0758L4.05449 22.7962L2.85329 15.5014L4.05449 8.66245H6.90734L7.20764 6.38281H3.75419L2.10254 15.5014L3.75419 25.0758Z" fill="white"/>
<path d="M3.75419 143.615L4.05449 141.335L2.85329 134.04L4.05449 127.202H6.90734L7.20764 124.922H3.75419L2.10254 134.04L3.75419 143.615Z" fill="white"/>
<path d="M8.85938 122.192V27.3594H140.841V122.192H8.85938Z" fill="#4C4C4C"/>
<path d="M8.85938 122.192L11.7122 114.441V35.1101H138.289L140.841 27.3594H8.85938V122.192Z" fill="black"/>
<path d="M140.992 27.3594L138.289 35.1101V114.441H11.5621L8.85938 122.192H140.992V27.3594Z" fill="#7F7F7F"/>
<path d="M8.85938 122.192H140.841V27.3594" stroke="white" stroke-width="0.523288"/>
</svg>
