<svg width="150" height="150" viewBox="0 0 150 150" fill="none" xmlns="http://www.w3.org/2000/svg">
<g clip-path="url(#clip0_2109_215278)">
<path d="M10.5068 0H139.13V53.3033H10.5068V0Z" fill="#0000FF" stroke="black" stroke-width="0.466486"/>
<path d="M5.07227 71.1719H144.565V142.193H5.07227V71.1719Z" fill="#0000FF" stroke="black" stroke-width="0.466486"/>
<path d="M26.4492 8.71094H123.188V44.2965H26.4492V8.71094Z" fill="black" stroke="black" stroke-width="0.466486"/>
<path d="M31.8838 10.9609H117.753V42.1922H31.8838V10.9609Z" fill="#7F7F7F" stroke="black" stroke-width="0.466486"/>
<path d="M26.4492 44.445L31.884 42.1927H117.754V10.9615L123.188 8.85938V44.445H26.4492Z" fill="#7F7F7F" stroke="black" stroke-width="0.466486"/>
<path d="M26.4494 46.5469L30.4349 47.2976L31.8842 48.9493L31.5219 49.7L28.6233 50.9012L26.4494 51.0514L24.6378 50.9012L21.7393 49.7L21.377 48.9493L22.1016 47.5979L25.7248 46.697L26.4494 46.5469Z" fill="black" stroke="black" stroke-width="0.466486"/>
<path d="M123.189 46.5469L127.174 47.2976L128.623 48.9493L128.261 49.7L125.363 50.9012L123.189 51.0514L121.377 50.9012L118.116 49.7V48.9493L118.841 47.5979L122.102 46.697L123.189 46.5469Z" fill="black" stroke="black" stroke-width="0.466486"/>
<path d="M5.07227 71.0198V22.0709L10.507 19.9688V71.0198H5.07227Z" fill="#0000FF" stroke="black" stroke-width="0.466486"/>
<path d="M144.566 71.0198V22.0709L139.131 19.9688V71.0198H144.566Z" fill="#0000FF" stroke="black" stroke-width="0.466486"/>
<path d="M0 24.3281H5.43478V31.0849H0V24.3281Z" fill="black" stroke="black" stroke-width="0.466486"/>
<path d="M144.565 24.3281H150V31.0849H144.565V24.3281Z" fill="black" stroke="black" stroke-width="0.466486"/>
<path d="M0 42.1953H5.43478V48.8019H0V42.1953Z" fill="black" stroke="black" stroke-width="0.466486"/>
<path d="M144.565 42.1953H150V48.8019H144.565V42.1953Z" fill="black" stroke="black" stroke-width="0.466486"/>
<path d="M10.5068 68.9219H139.13V72.2252H10.5068V68.9219Z" fill="black" stroke="black" stroke-width="0.466486"/>
<path d="M10.5068 68.9208V66.6686L13.0431 62.1641H104.347L107.246 66.6686V68.9208H10.5068Z" fill="black" stroke="black" stroke-width="0.466486"/>
<path d="M16.3047 67.4169L19.2032 63.0625H98.5511L101.45 67.4169H16.3047Z" fill="white" stroke="black" stroke-width="0.466486"/>
<path d="M82.9709 67.7179L85.5071 67.5678L82.6086 62.3125L77.8984 62.6128L80.4347 68.0182L82.9709 67.7179Z" fill="black"/>
<path d="M109.782 68.9194V63.3639L112.318 58.8594H134.058L136.594 63.3639V68.9194H109.782Z" fill="black" stroke="black" stroke-width="0.466486"/>
<path d="M112.318 63.3672V64.4182L134.057 64.2681V63.3672H112.318Z" fill="white" stroke="black" stroke-width="0.466486"/>
<path d="M10.5068 69.8203H107.246" stroke="#7F7F7F" stroke-width="0.466486"/>
<path d="M109.782 69.8203H136.594" stroke="#7F7F7F" stroke-width="0.466486"/>
<path d="M75.0002 75.5234L78.6234 76.2742L80.0727 77.7757L79.7104 78.6766L76.8118 79.8778L75.0002 80.0279L72.8263 79.8778L69.9277 78.6766L69.5654 77.7757L70.2901 76.4243L73.9133 75.5234H75.0002Z" fill="black" stroke="black" stroke-width="0.466486"/>
<path d="M75.0002 134.383L78.6234 135.134L80.0727 136.635L79.7104 137.536L76.8118 138.737L75.0002 138.887L72.8263 138.737L69.9277 137.536L69.5654 136.635L70.2901 135.434L73.9133 134.533L75.0002 134.383Z" fill="black" stroke="black" stroke-width="0.466486"/>
<path d="M134.058 86.6328L137.681 87.3836L139.13 88.8851L138.768 89.786L135.869 90.9872L134.058 91.1373L131.884 90.9872L128.985 89.786L128.623 88.8851L129.348 87.6839L132.971 86.783L134.058 86.6328Z" fill="black" stroke="black" stroke-width="0.466486"/>
<path d="M134.058 122.219L137.681 122.819L139.13 124.471L138.768 125.372L135.869 126.573L134.058 126.723L131.884 126.573L128.985 125.372L128.623 124.471L129.348 123.12L132.971 122.219H134.058Z" fill="black" stroke="black" stroke-width="0.466486"/>
<path d="M21.7393 49.8502V49.7L21.377 49.3997V49.0994V48.9493V48.4988L21.7393 48.0484L22.1016 47.5979L22.8262 47.2976L23.5509 46.9973L24.6378 46.8472L25.7248 46.697L26.4494 46.5469H27.1741L28.261 46.697L28.9856 46.8472L29.348 46.9973" stroke="white" stroke-width="0.466486"/>
<path d="M118.479 49.8502L118.116 49.7V49.3997V49.0994V48.9493V48.4988V48.0484L118.841 47.5979L119.565 47.2976L120.29 46.9973L121.377 46.8472L122.102 46.697L123.189 46.5469H123.913L125 46.697L125.363 46.8472L126.087 46.9973" stroke="white" stroke-width="0.466486"/>
<path d="M69.9277 78.8267V78.5264L69.5654 78.2261V78.076V77.7757V77.3252L69.9277 76.8748L70.2901 76.4243L71.0147 76.2742L72.1017 75.9739L72.8263 75.6736L73.9133 75.5234H75.0002H75.3625H76.4495L77.1741 75.6736L77.8988 75.9739" stroke="white" stroke-width="0.466486"/>
<path d="M128.985 89.9361V89.6358L128.623 89.3355V89.1854V88.8851V88.4346L128.985 87.9842L129.348 87.5337L130.072 87.2334L131.159 87.0833L131.884 86.783L132.971 86.6328H134.058H134.782H135.507L136.232 86.783L136.956 87.0833" stroke="white" stroke-width="0.466486"/>
<path d="M69.9277 137.686V137.536L69.5654 137.236V136.935V136.635V136.335L69.9277 135.884L70.2901 135.434L71.0147 135.134L72.1017 134.833L72.8263 134.683L73.9133 134.533L75.0002 134.383H75.3625L76.4495 134.533L77.1741 134.683L77.8988 134.833" stroke="white" stroke-width="0.466486"/>
<path d="M128.985 125.372V125.222L128.623 124.921V124.771V124.471V124.021L128.985 123.57L129.348 123.12L130.072 122.819L131.159 122.669L131.884 122.369L132.971 122.219H134.058H134.782H135.507L136.232 122.369L136.956 122.669" stroke="white" stroke-width="0.466486"/>
<path d="M21.377 142.195H128.623V148.952H21.377V142.195Z" fill="black" stroke="black" stroke-width="0.466486"/>
<path d="M139.13 148.949V147.898H10.5068V150.001H139.13V148.949Z" fill="black"/>
</g>
<defs>
<clipPath id="clip0_2109_215278">
<rect width="150" height="150" fill="white"/>
</clipPath>
</defs>
</svg>
