<svg width="150" height="150" viewBox="0 0 150 150" fill="none" xmlns="http://www.w3.org/2000/svg">
<g clip-path="url(#clip0_2109_214870)">
<path d="M0 0H150V150H0V0Z" fill="#E5E5E5" stroke="black" stroke-width="0.300451"/>
<path d="M3.00586 21.018L21.0419 3.15015L129.709 3L147.745 21.018V128.826L129.709 147.595H21.0419L3.00586 128.826V21.018Z" fill="#B2B2B2" stroke="black" stroke-width="0.300451"/>
<path d="M6.16211 22.6728L22.5449 6.15625H128.206L144.589 22.6728V127.327L128.206 144.445H22.5449L6.16211 127.327V22.6728Z" fill="white"/>
<path d="M22.3944 6.00953L5.86133 22.3759L6.46253 22.8263L22.8453 6.45998L22.5447 6.61013V5.85938H22.3944V6.00953Z" fill="black"/>
<path d="M128.206 5.85938H22.5449V6.61013H128.206L127.906 6.45998L128.357 6.00953V5.85938H128.206Z" fill="black"/>
<path d="M144.89 22.3742L128.357 6.00781L127.906 6.45826L144.289 22.8246V22.6745H144.89V22.5243V22.3742Z" fill="black"/>
<path d="M144.89 127.327V22.6719H144.289V127.327V127.026L144.89 127.627V127.477V127.327Z" fill="black"/>
<path d="M128.207 144.741H128.357L144.89 127.624L144.289 127.023L127.906 144.141H128.207V144.741Z" fill="black"/>
<path d="M22.3945 144.741H22.5448H128.206V144.141H22.5448H22.8454L22.3945 144.741Z" fill="black"/>
<path d="M5.86133 127.624L22.3944 144.741L22.8453 144.141L6.46253 127.023V127.324H5.86133V127.474V127.624Z" fill="black"/>
<path d="M5.86133 22.6753V127.33H6.46253V22.6753V22.8255L5.86133 22.375V22.5252V22.6753Z" fill="black"/>
<path d="M6.3125 119.516H144.589V127.323H6.3125V119.516Z" fill="#0000FF" stroke="black" stroke-width="0.300451"/>
<path d="M6.16217 9.30631C7.90536 9.30631 9.31848 7.89459 9.31848 6.15315C9.31848 4.41171 7.90536 3 6.16217 3C4.41899 3 3.00586 4.41171 3.00586 6.15315C3.00586 7.89459 4.41899 9.30631 6.16217 9.30631Z" fill="#7F7F7F" stroke="black" stroke-width="0.300451"/>
<path d="M5.86133 4.20312H6.46253V8.10703H5.86133V4.20312Z" fill="black" stroke="black" stroke-width="0.300451"/>
<path d="M4.20801 6.45826V6.00781H8.11582V6.45826H4.20801Z" fill="black" stroke="black" stroke-width="0.300451"/>
<path d="M144.589 9.30631C146.332 9.30631 147.745 7.89459 147.745 6.15315C147.745 4.41171 146.332 3 144.589 3C142.846 3 141.433 4.41171 141.433 6.15315C141.433 7.89459 142.846 9.30631 144.589 9.30631Z" fill="#7F7F7F" stroke="black" stroke-width="0.300451"/>
<path d="M144.289 4.20312H144.74V8.10703H144.289V4.20312Z" fill="black" stroke="black" stroke-width="0.300451"/>
<path d="M142.636 6.45826V6.00781H146.544V6.45826H142.636Z" fill="black" stroke="black" stroke-width="0.300451"/>
<path d="M6.16217 147.595C7.90536 147.595 9.31848 146.184 9.31848 144.442C9.31848 142.701 7.90536 141.289 6.16217 141.289C4.41899 141.289 3.00586 142.701 3.00586 144.442C3.00586 146.184 4.41899 147.595 6.16217 147.595Z" fill="#7F7F7F" stroke="black" stroke-width="0.300451"/>
<path d="M5.86133 142.492H6.46253V146.396H5.86133V142.492Z" fill="black" stroke="black" stroke-width="0.300451"/>
<path d="M4.20801 144.747V144.297H8.11582V144.747H4.20801Z" fill="black" stroke="black" stroke-width="0.300451"/>
<path d="M144.589 147.595C146.332 147.595 147.745 146.184 147.745 144.442C147.745 142.701 146.332 141.289 144.589 141.289C142.846 141.289 141.433 142.701 141.433 144.442C141.433 146.184 142.846 147.595 144.589 147.595Z" fill="#7F7F7F" stroke="black" stroke-width="0.300451"/>
<path d="M144.289 142.492H144.74V146.396H144.289V142.492Z" fill="black" stroke="black" stroke-width="0.300451"/>
<path d="M142.636 144.747V144.297H146.544V144.747H142.636Z" fill="black" stroke="black" stroke-width="0.300451"/>
<path d="M29.6094 21.7686L32.7657 18.7656H117.235L120.391 21.7686V109.306L117.235 112.459H32.7657L29.6094 109.306V21.7686Z" fill="white"/>
<path d="M32.465 18.4705L29.459 21.6236L29.9099 22.0741L33.0662 18.9209L32.7656 19.0711V18.3203H32.6153L32.465 18.4705Z" fill="black"/>
<path d="M117.235 18.3203H32.7656V19.0711H117.235L116.934 18.9209L117.535 18.4705L117.385 18.3203H117.235Z" fill="black"/>
<path d="M120.541 21.6219L117.535 18.4688L116.934 18.9192L120.09 22.0724L119.94 21.7721H120.691V21.6219H120.541Z" fill="black"/>
<path d="M120.691 109.311V21.7734H119.939V109.311L120.09 109.011L120.541 109.611L120.691 109.461V109.311Z" fill="black"/>
<path d="M117.535 112.611L120.541 109.608L120.09 109.008L116.934 112.161L117.234 112.011V112.762H117.384L117.535 112.611Z" fill="black"/>
<path d="M32.7654 112.766H117.234V112.016H32.7654L33.066 112.166L32.4648 112.616L32.6151 112.766H32.7654Z" fill="black"/>
<path d="M29.4589 109.608L32.4649 112.611L33.0661 112.161L29.9098 109.008L30.0601 109.308H29.3086V109.458L29.4589 109.608Z" fill="black"/>
<path d="M29.3086 21.7752V109.313H30.0601V21.7752L29.9098 22.0755L29.4589 21.625H29.3086V21.7752Z" fill="black"/>
<path d="M58.3166 70.2734H69.7395L71.3928 70.5737L72.4449 71.6248L72.5952 72.3755V85.2885L71.8437 86.79L70.3407 87.3906H69.7395H58.3166L56.6633 87.0903L55.6112 86.0392L55.4609 85.2885V72.3755L56.3627 70.874L57.7154 70.2734H58.3166Z" fill="#0000FF"/>
<path d="M69.7393 69.8203H58.3164V70.5711H69.7393V69.8203Z" fill="black"/>
<path d="M73.0459 72.3729L72.8956 71.9224L72.7453 71.3218L72.4447 71.0215L71.9938 70.5711L71.5429 70.2708L70.9417 70.1206L70.4908 69.9705L69.7393 69.8203V70.5711H70.3405L70.7914 70.7212L71.2423 70.8714L71.6932 71.1717L71.8435 71.472L72.1441 71.7723L72.2944 72.0726V72.3729H73.0459Z" fill="black"/>
<path d="M73.0464 85.2879V72.375H72.2949V85.2879H73.0464Z" fill="black"/>
<path d="M69.7393 87.8416L70.4908 87.6915L70.9417 87.5413L71.5429 87.3912L71.9938 87.0909L72.4447 86.6404L72.7453 86.3401L72.8956 85.7395L73.0459 85.2891H72.2944V85.5894L72.1441 85.8897L71.8435 86.19L71.6932 86.4903L71.2423 86.7906L70.7914 86.9407L70.3405 87.0909H69.7393V87.8416Z" fill="black"/>
<path d="M58.3164 87.8367H69.7393V87.0859H58.3164V87.8367Z" fill="black"/>
<path d="M55.1602 85.2891V85.7395L55.3105 86.3401L55.7614 86.6404L56.062 87.0909L56.5129 87.3912L57.1141 87.5413L57.7153 87.6915L58.3165 87.8416V87.0909H57.8656L57.2644 86.9407L56.8135 86.7906L56.5129 86.4903L56.2123 86.19L55.9117 85.8897V85.5894L55.7614 85.2891H55.1602Z" fill="black"/>
<path d="M55.1602 72.375V85.2879H55.7614V72.375H55.1602Z" fill="black"/>
<path d="M58.3165 69.8203L57.7153 69.9705L57.1141 70.1206L56.5129 70.2708L56.062 70.5711L55.7614 71.0215L55.3105 71.3218L55.1602 71.9224V72.3729H55.7614L55.9117 72.0726V71.7723L56.2123 71.472L56.5129 71.1717L56.8135 70.8714L57.2644 70.7212L57.8656 70.5711H58.3165V69.8203Z" fill="black"/>
<path d="M36.3723 70.2734H47.9455L49.4485 70.5737L50.5006 71.6248L50.8012 72.3755V85.2885L49.8994 86.79L48.3964 87.3906H47.9455H36.3723L34.8693 87.0903L33.8172 86.0392L33.5166 85.2885V72.3755L34.4184 70.874L35.9214 70.2734H36.3723Z" fill="#0000FF"/>
<path d="M47.9462 69.8203H36.373V70.5711H47.9462V69.8203Z" fill="black"/>
<path d="M51.1026 72.3729V71.9224L50.802 71.3218L50.5014 71.0215L50.0505 70.5711L49.5996 70.2708L49.1487 70.1206L48.5475 69.9705L47.9463 69.8203V70.5711H48.3972L48.8481 70.7212L49.299 70.8714L49.7499 71.1717L50.0505 71.472L50.2008 71.7723L50.3511 72.0726V72.3729H51.1026Z" fill="black"/>
<path d="M51.1021 85.2879V72.375H50.3506V85.2879H51.1021Z" fill="black"/>
<path d="M47.9463 87.8416L48.5475 87.6915L49.1487 87.5413L49.5996 87.3912L50.0505 87.0909L50.5014 86.6404L50.802 86.3401L51.1026 85.7395V85.2891H50.3511V85.5894L50.2008 85.8897L50.0505 86.19L49.7499 86.4903L49.299 86.7906L48.8481 86.9407L48.3972 87.0909H47.9463V87.8416Z" fill="black"/>
<path d="M36.373 87.8367H47.9462V87.0859H36.373V87.8367Z" fill="black"/>
<path d="M33.2168 85.2891V85.7395L33.5174 86.3401L33.818 86.6404L34.2689 87.0909L34.7198 87.3912L35.1707 87.5413L35.7719 87.6915L36.3731 87.8416V87.0909H35.9222L35.4713 86.9407L35.0204 86.7906L34.5695 86.4903L34.2689 86.19L34.1186 85.8897L33.9683 85.5894V85.2891H33.2168Z" fill="black"/>
<path d="M33.2168 72.375V85.2879H33.9683V72.375H33.2168Z" fill="black"/>
<path d="M36.3731 69.8203L35.7719 69.9705L35.1707 70.1206L34.7198 70.2708L34.2689 70.5711L33.818 71.0215L33.5174 71.3218L33.2168 71.9224V72.3729H33.9683V72.0726L34.1186 71.7723L34.2689 71.472L34.5695 71.1717L35.0204 70.8714L35.4713 70.7212L35.9222 70.5711H36.3731V69.8203Z" fill="black"/>
<path d="M58.3166 91.2891H69.7395L71.3928 91.7395L72.4449 92.6404L72.5952 93.5413V106.454L71.8437 107.956L70.3407 108.406L69.7395 108.556H58.3166L56.6633 108.106L55.6112 107.205L55.4609 106.454V93.5413L56.3627 92.0398L57.7154 91.4392L58.3166 91.2891Z" fill="#0000FF"/>
<path d="M69.7393 90.9922H58.3164V91.7429H69.7393V90.9922Z" fill="black"/>
<path d="M73.0459 93.5447L72.8956 92.9441L72.7453 92.4937L72.4447 92.0432L71.9938 91.7429L71.5429 91.4426L70.9417 91.1423L70.4908 90.9922H69.7393V91.7429H70.3405L70.7914 91.8931L71.2423 92.0432L71.6932 92.1934L71.9938 92.4937L72.1441 92.794L72.2944 93.2444V93.5447H73.0459Z" fill="black"/>
<path d="M73.0464 106.46V93.5469H72.2949V106.46H73.0464Z" fill="black"/>
<path d="M69.7393 108.856H70.4908L70.9417 108.705L71.5429 108.405L71.9938 108.105L72.4447 107.804L72.7453 107.354L72.8956 106.904L73.0459 106.453H72.2944V106.753L72.1441 107.054L71.9938 107.354L71.6932 107.654L71.2423 107.804L70.7914 107.955L70.3405 108.105H69.7393V108.856Z" fill="black"/>
<path d="M58.3164 108.86H69.7393V108.109H58.3164V108.86Z" fill="black"/>
<path d="M55.1602 106.453V106.904L55.3105 107.354L55.7614 107.804L56.062 108.105L56.5129 108.405L57.1141 108.705L57.7153 108.856H58.3165V108.105H57.8656L57.2644 107.955L56.8135 107.804L56.5129 107.654L56.2123 107.354L55.9117 107.054V106.753L55.7614 106.453H55.1602Z" fill="black"/>
<path d="M55.1602 93.5469V106.46H55.7614V93.5469H55.1602Z" fill="black"/>
<path d="M58.3165 90.9922H57.7153L57.1141 91.1423L56.5129 91.4426L56.062 91.7429L55.7614 92.0432L55.3105 92.4937L55.1602 92.9441V93.5447H55.7614L55.9117 93.2444V92.794L56.2123 92.4937L56.5129 92.1934L56.8135 92.0432L57.2644 91.8931L57.8656 91.7429H58.3165V90.9922Z" fill="black"/>
<path d="M36.3723 91.2891H47.9455L49.4485 91.7395L50.5006 92.6404L50.8012 93.5413V106.454L49.8994 107.956L48.3964 108.406L47.9455 108.556H36.3723L34.8693 108.106L33.8172 107.205L33.5166 106.454V93.5413L34.4184 92.0398L35.9214 91.4392L36.3723 91.2891Z" fill="#0000FF"/>
<path d="M47.9462 90.9922H36.373V91.7429H47.9462V90.9922Z" fill="black"/>
<path d="M51.1026 93.5447V92.9441L50.802 92.4937L50.5014 92.0432L50.0505 91.7429L49.5996 91.4426L49.1487 91.1423L48.5475 90.9922H47.9463V91.7429H48.3972L48.8481 91.8931L49.299 92.0432L49.7499 92.1934L50.0505 92.4937L50.2008 92.794L50.3511 93.2444V93.5447H51.1026Z" fill="black"/>
<path d="M51.1021 106.46V93.5469H50.3506V106.46H51.1021Z" fill="black"/>
<path d="M47.9463 108.856H48.5475L49.1487 108.705L49.5996 108.405L50.0505 108.105L50.5014 107.804L50.802 107.354L51.1026 106.904V106.453H50.3511V106.753L50.2008 107.054L50.0505 107.354L49.7499 107.654L49.299 107.804L48.8481 107.955L48.3972 108.105H47.9463V108.856Z" fill="black"/>
<path d="M36.373 108.86H47.9462V108.109H36.373V108.86Z" fill="black"/>
<path d="M33.2168 106.453V106.904L33.5174 107.354L33.818 107.804L34.2689 108.105L34.7198 108.405L35.1707 108.705L35.7719 108.856H36.3731V108.105H35.9222L35.4713 107.955L35.0204 107.804L34.5695 107.654L34.2689 107.354L34.1186 107.054L33.9683 106.753V106.453H33.2168Z" fill="black"/>
<path d="M33.2168 93.5469V106.46H33.9683V93.5469H33.2168Z" fill="black"/>
<path d="M36.3731 90.9922H35.7719L35.1707 91.1423L34.7198 91.4426L34.2689 91.7429L33.818 92.0432L33.5174 92.4937L33.2168 92.9441V93.5447H33.9683V93.2444L34.1186 92.794L34.2689 92.4937L34.5695 92.1934L35.0204 92.0432L35.4713 91.8931L35.9222 91.7429H36.3731V90.9922Z" fill="black"/>
<path d="M102.054 70.2734H113.477L115.13 70.5737L116.182 71.6248L116.483 72.3755V85.2885L115.581 86.79L114.078 87.3906H113.477H102.054L100.551 87.0903L99.4988 86.0392L99.1982 85.2885V72.3755L100.1 70.874L101.453 70.2734H102.054Z" fill="#0000FF"/>
<path d="M113.477 69.8203H102.054V70.5711H113.477V69.8203Z" fill="black"/>
<path d="M116.783 72.3729V71.9224L116.483 71.3218L116.182 71.0215L115.731 70.5711L115.28 70.2708L114.829 70.1206L114.228 69.9705L113.477 69.8203V70.5711H114.078L114.529 70.7212L114.98 70.8714L115.43 71.1717L115.581 71.472L115.881 71.7723L116.032 72.0726V72.3729H116.783Z" fill="black"/>
<path d="M116.784 85.2879V72.375H116.032V85.2879H116.784Z" fill="black"/>
<path d="M113.477 87.8416L114.228 87.6915L114.829 87.5413L115.28 87.3912L115.731 87.0909L116.182 86.6404L116.483 86.3401L116.783 85.7395V85.2891H116.032V85.5894L115.881 85.8897L115.581 86.19L115.43 86.4903L114.98 86.7906L114.529 86.9407L114.078 87.0909H113.477V87.8416Z" fill="black"/>
<path d="M102.054 87.8367H113.477V87.0859H102.054V87.8367Z" fill="black"/>
<path d="M98.8975 85.2891V85.7395L99.1981 86.3401L99.4987 86.6404L99.7993 87.0909L100.4 87.3912L100.851 87.5413L101.453 87.6915L102.054 87.8416V87.0909H101.603L101.002 86.9407L100.701 86.7906L100.25 86.4903L99.9496 86.19L99.7993 85.8897L99.649 85.5894L99.4987 85.2891H98.8975Z" fill="black"/>
<path d="M98.8975 72.375V85.2879H99.4987V72.375H98.8975Z" fill="black"/>
<path d="M102.054 69.8203L101.453 69.9705L100.851 70.1206L100.4 70.2708L99.7993 70.5711L99.4987 71.0215L99.1981 71.3218L98.8975 71.9224V72.3729H99.4987L99.649 72.0726L99.7993 71.7723L99.9496 71.472L100.25 71.1717L100.701 70.8714L101.002 70.7212L101.603 70.5711H102.054V69.8203Z" fill="black"/>
<path d="M80.261 70.2734H91.6838L93.3371 70.5737L94.3892 71.6248L94.5395 72.3755V85.2885L93.6377 86.79L92.285 87.3906H91.6838H80.261L78.6077 87.0903L77.5556 86.0392L77.4053 85.2885V72.3755L78.1568 70.874L79.6598 70.2734H80.261Z" fill="#0000FF"/>
<path d="M91.6836 69.8203H80.2607V70.5711H91.6836V69.8203Z" fill="black"/>
<path d="M94.8399 72.3729V71.9224L94.6896 71.3218L94.2387 71.0215L93.9381 70.5711L93.4872 70.2708L92.886 70.1206L92.2848 69.9705L91.6836 69.8203V70.5711H92.1345L92.7357 70.7212L93.1866 70.8714L93.4872 71.1717L93.7878 71.472L94.0884 71.7723V72.0726L94.2387 72.3729H94.8399Z" fill="black"/>
<path d="M94.8395 85.2879V72.375H94.2383V85.2879H94.8395Z" fill="black"/>
<path d="M91.6836 87.8416L92.2848 87.6915L92.886 87.5413L93.4872 87.3912L93.9381 87.0909L94.2387 86.6404L94.6896 86.3401L94.8399 85.7395V85.2891H94.2387L94.0884 85.5894V85.8897L93.7878 86.19L93.4872 86.4903L93.1866 86.7906L92.7357 86.9407L92.1345 87.0909H91.6836V87.8416Z" fill="black"/>
<path d="M80.2607 87.8367H91.6836V87.0859H80.2607V87.8367Z" fill="black"/>
<path d="M76.9541 85.2891L77.1044 85.7395L77.2547 86.3401L77.5553 86.6404L78.0062 87.0909L78.4571 87.3912L79.0583 87.5413L79.5092 87.6915L80.2607 87.8416V87.0909H79.6595L79.2086 86.9407L78.7577 86.7906L78.4571 86.4903L78.1565 86.19L77.8559 85.8897L77.7056 85.5894V85.2891H76.9541Z" fill="black"/>
<path d="M76.9541 72.375V85.2879H77.7056V72.375H76.9541Z" fill="black"/>
<path d="M80.2607 69.8203L79.5092 69.9705L79.0583 70.1206L78.4571 70.2708L78.0062 70.5711L77.5553 71.0215L77.2547 71.3218L77.1044 71.9224L76.9541 72.3729H77.7056V72.0726L77.8559 71.7723L78.1565 71.472L78.4571 71.1717L78.7577 70.8714L79.2086 70.7212L79.6595 70.5711H80.2607V69.8203Z" fill="black"/>
<path d="M102.054 91.2891H113.477L115.13 91.7395L116.182 92.6404L116.483 93.5413V106.454L115.581 107.956L114.078 108.406L113.477 108.556H102.054L100.551 108.106L99.4988 107.205L99.1982 106.454V93.5413L100.1 92.0398L101.453 91.4392L102.054 91.2891Z" fill="#0000FF"/>
<path d="M113.477 90.9922H102.054V91.7429H113.477V90.9922Z" fill="black"/>
<path d="M116.783 93.5447V92.9441L116.483 92.4937L116.182 92.0432L115.731 91.7429L115.28 91.4426L114.829 91.1423L114.228 90.9922H113.477V91.7429H114.078L114.529 91.8931L114.98 92.0432L115.43 92.1934L115.731 92.4937L115.881 92.794L116.032 93.2444V93.5447H116.783Z" fill="black"/>
<path d="M116.784 106.46V93.5469H116.032V106.46H116.784Z" fill="black"/>
<path d="M113.477 108.856H114.228L114.829 108.705L115.28 108.405L115.731 108.105L116.182 107.804L116.483 107.354L116.783 106.904V106.453H116.032V106.753L115.881 107.054L115.731 107.354L115.43 107.654L114.98 107.804L114.529 107.955L114.078 108.105H113.477V108.856Z" fill="black"/>
<path d="M102.054 108.86H113.477V108.109H102.054V108.86Z" fill="black"/>
<path d="M98.8975 106.453V106.904L99.1981 107.354L99.4987 107.804L99.7993 108.105L100.4 108.405L100.851 108.705L101.453 108.856H102.054V108.105H101.603L101.002 107.955L100.701 107.804L100.25 107.654L99.9496 107.354L99.7993 107.054L99.649 106.753L99.4987 106.453H98.8975Z" fill="black"/>
<path d="M98.8975 93.5469V106.46H99.4987V93.5469H98.8975Z" fill="black"/>
<path d="M102.054 90.9922H101.453L100.851 91.1423L100.4 91.4426L99.7993 91.7429L99.4987 92.0432L99.1981 92.4937L98.8975 92.9441V93.5447H99.4987L99.649 93.2444L99.7993 92.794L99.9496 92.4937L100.25 92.1934L100.701 92.0432L101.002 91.8931L101.603 91.7429H102.054V90.9922Z" fill="black"/>
<path d="M80.261 91.2891H91.6838L93.3371 91.7395L94.3892 92.6404L94.5395 93.5413V106.454L93.6377 107.956L92.285 108.406L91.6838 108.556H80.261L78.6077 108.106L77.5556 107.205L77.4053 106.454V93.5413L78.1568 92.0398L79.6598 91.4392L80.261 91.2891Z" fill="#0000FF"/>
<path d="M91.6836 90.9922H80.2607V91.7429H91.6836V90.9922Z" fill="black"/>
<path d="M94.8399 93.5447V92.9441L94.6896 92.4937L94.2387 92.0432L93.9381 91.7429L93.4872 91.4426L92.886 91.1423L92.2848 90.9922H91.6836V91.7429H92.1345L92.7357 91.8931L93.1866 92.0432L93.4872 92.1934L93.7878 92.4937L94.0884 92.794V93.2444L94.2387 93.5447H94.8399Z" fill="black"/>
<path d="M94.8395 106.46V93.5469H94.2383V106.46H94.8395Z" fill="black"/>
<path d="M91.6836 108.856H92.2848L92.886 108.705L93.4872 108.405L93.9381 108.105L94.2387 107.804L94.6896 107.354L94.8399 106.904V106.453H94.2387L94.0884 106.753V107.054L93.7878 107.354L93.4872 107.654L93.1866 107.804L92.7357 107.955L92.1345 108.105H91.6836V108.856Z" fill="black"/>
<path d="M80.2607 108.86H91.6836V108.109H80.2607V108.86Z" fill="black"/>
<path d="M76.9541 106.453L77.1044 106.904L77.2547 107.354L77.5553 107.804L78.0062 108.105L78.4571 108.405L79.0583 108.705L79.5092 108.856H80.2607V108.105H79.6595L79.2086 107.955L78.7577 107.804L78.4571 107.654L78.1565 107.354L77.8559 107.054L77.7056 106.753V106.453H76.9541Z" fill="black"/>
<path d="M76.9541 93.5469V106.46H77.7056V93.5469H76.9541Z" fill="black"/>
<path d="M80.2607 90.9922H79.5092L79.0583 91.1423L78.4571 91.4426L78.0062 91.7429L77.5553 92.0432L77.2547 92.4937L77.1044 92.9441L76.9541 93.5447H77.7056V93.2444L77.8559 92.794L78.1565 92.4937L78.4571 92.1934L78.7577 92.0432L79.2086 91.8931L79.6595 91.7429H80.2607V90.9922Z" fill="black"/>
<path d="M33.5166 21.7734H116.483V65.6173H33.5166V21.7734Z" fill="#99CCCC"/>
<path d="M116.483 21.4688H33.5166V22.2195H116.483L116.032 21.7691H116.783V21.4688H116.483Z" fill="black"/>
<path d="M116.784 65.6173V21.7734H116.032V65.6173L116.483 65.1668V65.9176H116.784V65.6173Z" fill="black"/>
<path d="M33.5174 65.9148H116.483V65.1641H33.5174L33.9683 65.6145H33.2168V65.9148H33.5174Z" fill="black"/>
<path d="M33.2168 21.7691V65.6129H33.9683V21.7691L33.5174 22.2195V21.4688H33.2168V21.7691Z" fill="black"/>
<path d="M123.848 112.461L125.05 113.362V113.512L123.998 114.713H123.848L122.646 113.812V113.512L123.547 112.461H123.848Z" fill="#7F7F7F" stroke="black" stroke-width="0.300451"/>
<path d="M123.848 107.805L124.9 108.405L125.05 108.856L123.998 110.057H123.848L122.646 109.156V108.856L123.547 107.805H123.848Z" fill="#7F7F7F" stroke="black" stroke-width="0.300451"/>
<path d="M123.848 103L125.05 104.051V104.201L124.149 105.402H123.848L122.646 104.502V104.201L123.547 103.15L123.848 103Z" fill="#7F7F7F" stroke="black" stroke-width="0.300451"/>
<path d="M123.848 98.3516L125.05 99.2525V99.5528L124.149 100.604L123.848 100.754L122.646 99.7029V99.5528L123.547 98.3516H123.848Z" fill="#7F7F7F" stroke="black" stroke-width="0.300451"/>
<path d="M40.5811 98.3468L42.0841 95.3438L43.7374 98.3468H40.5811Z" fill="white"/>
<path d="M41.7833 95.1961L40.2803 98.1991L40.8815 98.4994L42.5348 95.4964H41.7833L42.3845 95.1961L42.0839 94.4453L41.7833 95.1961Z" fill="white"/>
<path d="M44.0377 98.1983L42.3844 95.1953L41.7832 95.4956L43.4365 98.4986L43.7371 98.0482V98.7989H44.3383L44.0377 98.1983Z" fill="white"/>
<path d="M40.5807 98.7976H43.737V98.0469H40.5807L40.8813 98.4973L40.2801 98.197L39.9795 98.7976H40.5807Z" fill="white"/>
<path d="M65.5313 101.5L64.0283 104.653L62.375 101.5H65.5313Z" fill="white"/>
<path d="M64.3287 104.805L65.8317 101.652L65.2305 101.352L63.5771 104.505H64.3287L63.7274 104.805L64.0281 105.406L64.3287 104.805Z" fill="white"/>
<path d="M62.074 101.654L63.7273 104.807L64.3285 104.506L62.6752 101.353L62.3746 101.804V101.203H61.7734L62.074 101.654Z" fill="white"/>
<path d="M65.5313 101.203H62.375V101.804H65.5313L65.2307 101.353L65.8319 101.654L65.9822 101.203H65.5313Z" fill="white"/>
<path d="M84.168 101.505L81.0117 100.003L84.168 98.3516V101.505Z" fill="white"/>
<path d="M80.8619 100.304L84.0183 101.805L84.3189 101.205L81.1625 99.7031V100.304L80.8619 99.7031L80.2607 100.003L80.8619 100.304Z" fill="white"/>
<path d="M84.0176 98.0486L80.8613 99.7002L81.1619 100.301L84.3182 98.6492L83.8673 98.3489H84.4685V97.8984L84.0176 98.0486Z" fill="white"/>
<path d="M84.4694 101.505V98.3516H83.8682V101.505L84.3191 101.204L84.0185 101.805L84.4694 102.105V101.505Z" fill="white"/>
<path d="M108.968 98.3516L112.124 100.003L108.968 101.505V98.3516Z" fill="white"/>
<path d="M112.274 99.5484L109.118 98.0469L108.817 98.6475L111.974 100.299V99.6985L112.274 100.299L112.875 99.9988L112.274 99.5484Z" fill="white"/>
<path d="M109.118 101.805L112.274 100.304L111.974 99.7031L108.817 101.205L109.418 101.505H108.667V102.106L109.118 101.805Z" fill="white"/>
<path d="M108.667 98.3489V101.502H109.418V98.3489L108.817 98.6492L109.118 98.0486L108.667 97.8984V98.3489Z" fill="white"/>
<path d="M42.0838 104.658H42.5347V98.3516H41.7832V104.658H42.0838Z" fill="white"/>
<path d="M64.0281 95.3438H63.5771V101.5H64.3287V95.3438H64.0281Z" fill="white"/>
<path d="M90.3303 100.003V99.7031H84.168V100.304H90.3303V100.003Z" fill="white"/>
<path d="M102.806 99.8472V100.298H108.968V99.5469H102.806V99.8472Z" fill="white"/>
<path d="M92.134 31.6797H85.9717V32.2803H92.134L91.8334 31.98H92.5849V31.6797H92.134Z" fill="#7F7F7F"/>
<path d="M92.5855 45.1976V31.9844H91.834V45.1976L92.1346 44.8973V45.648H92.5855V45.1976Z" fill="#7F7F7F"/>
<path d="M85.9715 45.6492H92.1338V44.8984H85.9715L86.2721 45.1987H85.6709V45.6492H85.9715Z" fill="#7F7F7F"/>
<path d="M85.6709 31.98V45.1932H86.2721V31.98L85.9715 32.2803V31.6797H85.6709V31.98Z" fill="#7F7F7F"/>
<path d="M82.8156 31.6797H76.5029V32.2803H82.8156L82.515 31.98H83.1162V31.6797H82.8156Z" fill="#7F7F7F"/>
<path d="M83.1159 45.1976V31.9844H82.5146V45.1976L82.8152 44.8973V45.648H83.1159V45.1976Z" fill="#7F7F7F"/>
<path d="M76.5027 45.6492H82.8154V44.8984H76.5027L76.9537 45.1987H76.2021V45.6492H76.5027Z" fill="#7F7F7F"/>
<path d="M76.2021 31.98V45.1932H76.9537V31.98L76.5027 32.2803V31.6797H76.2021V31.98Z" fill="#7F7F7F"/>
</g>
<defs>
<clipPath id="clip0_2109_214870">
<rect width="150" height="150" fill="white"/>
</clipPath>
</defs>
</svg>
