<svg width="150" height="150" viewBox="0 0 150 150" fill="none" xmlns="http://www.w3.org/2000/svg">
<g clip-path="url(#clip0_2109_177436)">
<path d="M0 150H74.8L76.2 135.4L80.6 121.2L87.4 108.4L96.8 96.8L108.2 87.4L121.2 80.6L135.2 76.4L150 74.8V0L120.4 3.2L92.6 11.6L66.6 25.2L43.8 43.8L25.2 67L11.6 92.6L2.8 120.8L0 150Z" fill="#C0C0C0" stroke="black" stroke-width="0.4"/>
<path d="M150 68.9992L134.2 70.3992L119 74.9992L104.8 82.5992L92.6002 92.5992L82.4002 104.999L75.0002 118.999L70.2002 134.199L68.8002 149.999H6.2002L8.6002 122.199L17.0002 94.9992L30.2002 70.1992L48.2002 48.1992L69.8002 30.3992L95.0002 17.1992L121.8 8.99922L150 6.19922V68.9992Z" fill="black"/>
</g>
<defs>
<clipPath id="clip0_2109_177436">
<rect width="150" height="150" fill="white"/>
</clipPath>
</defs>
</svg>
