<svg width="150" height="150" viewBox="0 0 150 150" fill="none" xmlns="http://www.w3.org/2000/svg">
<g clip-path="url(#clip0_2109_177441)">
<path d="M0 0V74.8L14.6 76.2L28.8 80.6L41.6 87.4L53.2 96.8L62.6 108.2L69.4 121.2L73.6 135.2L75.2 150H150L146.8 120.4L138.4 92.6L124.8 66.6L106.2 43.8L83 25.2L57.4 11.6L29.2 2.8L0 0Z" fill="#C0C0C0" stroke="black" stroke-width="0.4"/>
<path d="M81 149.999L79.6 134.199L75 118.999L67.4 104.799L57.4 92.5992L45 82.3992L31 74.9992L15.8 70.1992L0 68.7992V6.19922L27.8 8.59922L55 16.9992L79.8 30.1992L101.8 48.1992L119.6 69.7992L132.8 94.9992L141 121.799L143.8 149.999H81Z" fill="black"/>
</g>
<defs>
<clipPath id="clip0_2109_177441">
<rect width="150" height="150" fill="white"/>
</clipPath>
</defs>
</svg>
