<svg width="150" height="150" viewBox="0 0 150 150" fill="none" xmlns="http://www.w3.org/2000/svg">
<g clip-path="url(#clip0_2109_177451)">
<path d="M150 0H75.2L73.8 14.6L69.4 28.8L62.6 41.6L53.2 53.2L41.8 62.6L28.8 69.4L14.8 73.6L0 75.2V150L29.6 146.8L57.4 138.4L83.4 124.8L106.2 106.2L124.8 83L138.4 57.4L147.2 29.2L150 0Z" fill="#C0C0C0" stroke="black" stroke-width="0.4"/>
<path d="M0 81L15.8 79.6L31 75L45.2 67.4L57.4 57.4L67.6 45L75 31L79.8 15.8L81.2 0H143.8L141.4 27.8L133 55L119.8 79.8L101.8 101.8L80.2 119.6L55 132.8L28.2 141L0 143.8V81Z" fill="black"/>
</g>
<defs>
<clipPath id="clip0_2109_177451">
<rect width="150" height="150" fill="white"/>
</clipPath>
</defs>
</svg>
