<svg width="150" height="150" viewBox="0 0 150 150" fill="none" xmlns="http://www.w3.org/2000/svg">
<g clip-path="url(#clip0_2109_177446)">
<path d="M150 150V75.2L135.4 73.8L121.2 69.4L108.4 62.6L96.8 53.2L87.4 41.8L80.6 28.8L76.4 14.8L74.8 0H0L3.2 29.6L11.6 57.4L25.2 83.4L43.8 106.2L67 124.8L92.6 138.4L120.8 147.2L150 150Z" fill="#C0C0C0" stroke="black" stroke-width="0.4"/>
<path d="M69.0002 0L70.4002 15.8L75.0002 31L82.6002 45.2L92.6002 57.4L105 67.6L119 75L134.2 79.8L150 81.2V143.8L122.2 141.4L95.0002 133L70.2002 119.8L48.2002 101.8L30.4002 80.2L17.2002 55L9.0002 28.2L6.2002 0H69.0002Z" fill="black"/>
</g>
<defs>
<clipPath id="clip0_2109_177446">
<rect width="150" height="150" fill="white"/>
</clipPath>
</defs>
</svg>
