<svg width="116" height="133" viewBox="0 0 116 133" fill="none" xmlns="http://www.w3.org/2000/svg">
<g clip-path="url(#clip0_1087_156324)">
<path d="M43.7198 106.39H37.0098V130.55H43.7198V106.39Z" fill="#29303D" stroke="#727689" stroke-miterlimit="10" stroke-linecap="round" stroke-linejoin="round"/>
<path d="M45.06 127.86H32.98V131.89H45.06V127.86Z" fill="#29303D" stroke="#727689" stroke-miterlimit="10" stroke-linecap="round" stroke-linejoin="round"/>
<path d="M47.7398 79.54H34.3198V106.38H47.7398V79.54Z" fill="#29303D" stroke="#727689" stroke-miterlimit="10" stroke-linecap="round" stroke-linejoin="round"/>
<path d="M100.24 106.39H93.5298V130.55H100.24V106.39Z" fill="#29303D" stroke="#727689" stroke-miterlimit="10" stroke-linecap="round" stroke-linejoin="round"/>
<path d="M101.59 127.86H89.5098V131.89H101.59V127.86Z" fill="#29303D" stroke="#727689" stroke-miterlimit="10" stroke-linecap="round" stroke-linejoin="round"/>
<path d="M104.27 79.54H90.8496V106.38H104.27V79.54Z" fill="#29303D" stroke="#727689" stroke-miterlimit="10" stroke-linecap="round" stroke-linejoin="round"/>
<path d="M111.9 33.9099H3.18018V79.5499H111.9V33.9099Z" fill="#29303D" stroke="#727689" stroke-miterlimit="10" stroke-linecap="round" stroke-linejoin="round"/>
<path d="M98.4802 20.6299H15.4102L3.18018 33.9099H111.91L98.4802 20.6299Z" fill="#29303D" stroke="#727689" stroke-miterlimit="10" stroke-linecap="round" stroke-linejoin="round"/>
<path d="M82.3802 106.39H34.0602L3.18018 79.54H111.91L82.3802 106.39Z" fill="#29303D" stroke="#727689" stroke-miterlimit="10" stroke-linecap="round" stroke-linejoin="round"/>
<path d="M63.5898 105.05H51.5098V110.42H63.5898V105.05Z" fill="#29303D" stroke="#727689" stroke-miterlimit="10" stroke-linecap="round" stroke-linejoin="round"/>
<path d="M109.59 0.5H5.5C2.74 0.5 0.5 2.74 0.5 5.5V15.49C0.5 18.25 2.74 20.49 5.5 20.49H109.6C112.36 20.49 114.6 18.25 114.6 15.49V5.5C114.59 2.74 112.35 0.5 109.59 0.5Z" fill="#29303D" stroke="#727689" stroke-miterlimit="10" stroke-linecap="round" stroke-linejoin="round"/>
<path d="M18.2198 106.39H11.5098V130.55H18.2198V106.39Z" fill="#29303D" stroke="#727689" stroke-miterlimit="10" stroke-linecap="round" stroke-linejoin="round"/>
<path d="M24.93 127.86H7.47998V131.89H24.93V127.86Z" fill="#29303D" stroke="#727689" stroke-miterlimit="10" stroke-linecap="round" stroke-linejoin="round"/>
<path d="M22.2398 79.54H8.81982V106.38H22.2398V79.54Z" fill="#29303D" stroke="#727689" stroke-miterlimit="10" stroke-linecap="round" stroke-linejoin="round"/>
<path d="M78.7696 106.39H72.0596V130.55H78.7696V106.39Z" fill="#29303D" stroke="#727689" stroke-miterlimit="10" stroke-linecap="round" stroke-linejoin="round"/>
<path d="M85.4798 127.86H68.0298V131.89H85.4798V127.86Z" fill="#29303D" stroke="#727689" stroke-miterlimit="10" stroke-linecap="round" stroke-linejoin="round"/>
<path d="M82.7896 79.54H69.3696V106.38H82.7896V79.54Z" fill="#29303D" stroke="#727689" stroke-miterlimit="10" stroke-linecap="round" stroke-linejoin="round"/>
</g>
<defs>
<clipPath id="clip0_1087_156324">
<rect width="115.09" height="132.39" fill="white"/>
</clipPath>
</defs>
</svg>
