<svg width="150" height="150" viewBox="0 0 150 150" fill="none" xmlns="http://www.w3.org/2000/svg">
<g clip-path="url(#clip0_2109_178320)">
<path d="M140.69 150H150V0H140.69V150Z" fill="#00FFFF" stroke="black" stroke-width="0.601504"/>
<path d="M84.3848 131.327H140.691V112.652H84.3848V131.327Z" fill="#00FFFF" stroke="black" stroke-width="0.601504"/>
<path d="M84.3848 37.3505H140.691V18.6758H84.3848V37.3505Z" fill="#00FFFF" stroke="black" stroke-width="0.601504"/>
<path d="M0 150V0H84.3844V150H0Z" fill="#00FFFF" stroke="black" stroke-width="0.601504"/>
<path d="M16.2159 9.03516H2.4021L2.25195 140.36H16.2159V9.03516Z" fill="#00FFFF" stroke="black" stroke-width="0.601504"/>
<path d="M140.69 131.327L150 93.375" stroke="black" stroke-width="0.601504"/>
<path d="M140.69 93.3728L150 56.0234" stroke="black" stroke-width="0.601504"/>
<path d="M140.69 56.026L150 18.0742" stroke="black" stroke-width="0.601504"/>
<path d="M140.69 18.0723L145.345 0" stroke="black" stroke-width="0.601504"/>
<path d="M145.346 149.999L150 131.324" stroke="black" stroke-width="0.601504"/>
<path d="M74.9248 150V0" stroke="black" stroke-width="0.601504"/>
<path d="M18.6182 150V0" stroke="black" stroke-width="0.601504"/>
<path d="M74.9248 131.327L84.2341 93.375" stroke="black" stroke-width="0.601504"/>
<path d="M74.9248 93.3728L84.2341 56.0234" stroke="black" stroke-width="0.601504"/>
<path d="M74.9248 56.026L84.2341 18.0742" stroke="black" stroke-width="0.601504"/>
<path d="M74.9248 18.0723L79.5795 0" stroke="black" stroke-width="0.601504"/>
<path d="M79.5801 149.999L84.2347 131.324" stroke="black" stroke-width="0.601504"/>
</g>
<defs>
<clipPath id="clip0_2109_178320">
<rect width="150" height="150" fill="white"/>
</clipPath>
</defs>
</svg>
