<svg width="150" height="150" viewBox="0 0 150 150" fill="none" xmlns="http://www.w3.org/2000/svg">
<path d="M34.8343 147.502L32.2818 148.216L30.3298 143.573L30.1797 137.502L31.9815 133.216L144.444 2.85882L146.997 2.14453L148.798 6.43025L149.099 12.5017L147.297 17.1445L34.8343 147.502Z" fill="#4C4C4C" stroke="black" stroke-width="0.463142"/>
<path d="M148.949 12.1429L148.799 6.42857L146.997 2.5L144.294 2.85714L142.793 7.5L142.943 13.2143L144.745 17.1429H147.297L148.949 12.1429Z" fill="#F2F2F2" stroke="black" stroke-width="0.463142"/>
<path d="M143.093 19.2874L142.943 13.216L141.141 9.64453H138.439L136.787 14.2874L137.087 20.0017L138.889 24.2874L141.292 23.9302L143.093 19.2874Z" fill="#F2F2F2" stroke="black" stroke-width="0.463142"/>
<path d="M137.087 26.0703V19.9989L135.135 16.0703L132.582 16.7846L130.931 21.0703L131.081 27.1417L132.883 31.0703L135.435 30.7132L137.087 26.0703Z" fill="#F2F2F2" stroke="black" stroke-width="0.463142"/>
<path d="M131.231 32.8577L131.081 27.1434L129.129 23.2148L126.577 23.572L125.075 27.8577L125.225 33.9291L127.027 37.8577L129.43 37.5006L131.231 32.8577Z" fill="#F2F2F2" stroke="black" stroke-width="0.463142"/>
<path d="M125.376 39.6429L125.225 33.9286L123.274 30L120.721 30.3571L119.069 34.6429L119.219 40.7143L121.171 44.6429L123.574 44.2857L125.376 39.6429Z" fill="#F2F2F2" stroke="black" stroke-width="0.463142"/>
<path d="M119.369 46.7852L119.219 40.7137L117.417 36.7852L114.714 37.1423L113.213 41.7852L113.363 47.4994L115.165 51.428L117.717 51.0709L119.369 46.7852Z" fill="#F2F2F2" stroke="black" stroke-width="0.463142"/>
<path d="M113.513 53.5703L113.363 47.4989L111.411 43.5703L108.859 43.9275L107.207 48.5703L107.357 54.2846L109.309 58.5703L111.712 58.2132L113.513 53.5703Z" fill="#F2F2F2" stroke="black" stroke-width="0.463142"/>
<path d="M107.508 60.3577L107.358 54.2863L105.556 50.7148L103.003 51.072L101.352 55.7148L101.502 61.4291L103.454 65.3577L105.856 65.0006L107.508 60.3577Z" fill="#F2F2F2" stroke="black" stroke-width="0.463142"/>
<path d="M101.652 67.1429L101.502 61.4286L99.5499 57.5L96.9974 57.8571L95.3457 62.5L95.4959 68.2143L97.4478 72.1429L99.8502 71.7857L101.652 67.1429Z" fill="#F2F2F2" stroke="black" stroke-width="0.463142"/>
<path d="M95.6454 74.2852L95.4953 68.2137L93.6935 64.2852L91.1409 64.6423L89.4893 69.2852L89.6394 74.9994L91.4412 78.928L93.9938 78.5709L95.6454 74.2852Z" fill="#F2F2F2" stroke="black" stroke-width="0.463142"/>
<path d="M89.7897 81.0703L89.6396 74.9989L87.6876 71.0703L85.2852 71.7846L83.4834 76.0703L83.6335 82.1417L85.5855 86.0703L88.1381 85.7132L89.7897 81.0703Z" fill="#F2F2F2" stroke="black" stroke-width="0.463142"/>
<path d="M83.9342 87.8555L83.6339 82.1412L81.8321 77.8555L79.2796 78.5698L77.6279 82.8555L77.7781 88.9269L79.73 92.8555L82.1324 92.4983L83.9342 87.8555Z" fill="#F2F2F2" stroke="black" stroke-width="0.463142"/>
<path d="M77.9284 94.6429L77.7782 88.9286L75.8263 85L73.4239 85.3571L71.6221 89.6429L71.7722 95.7143L73.7242 99.6429L76.1266 99.2857L77.9284 94.6429Z" fill="#F2F2F2" stroke="black" stroke-width="0.463142"/>
<path d="M72.0719 101.785L71.7716 95.7137L69.9698 91.7852L67.4173 92.1423L65.7656 96.7852L65.9158 102.499L67.8677 106.428L70.2701 106.071L72.0719 101.785Z" fill="#F2F2F2" stroke="black" stroke-width="0.463142"/>
<path d="M66.0663 108.57L65.9162 102.499L64.1144 98.5703L61.5618 98.9275L59.9102 103.57L60.0603 109.642L61.8621 113.213H64.4147L66.0663 108.57Z" fill="#F2F2F2" stroke="black" stroke-width="0.463142"/>
<path d="M60.2099 115.355L60.0597 109.641L58.1078 105.355L55.5552 106.07L54.0537 110.355V116.427L56.0057 120.355L58.4081 119.998L60.2099 115.355Z" fill="#F2F2F2" stroke="black" stroke-width="0.463142"/>
<path d="M54.204 122.143L54.0539 116.429L52.2521 112.5L49.6995 112.857L48.0479 117.143L48.198 123.214L50.15 127.143L52.4022 126.786L54.204 122.143Z" fill="#F2F2F2" stroke="black" stroke-width="0.463142"/>
<path d="M48.3485 129.285L48.1984 123.214L46.3966 119.285L43.6939 119.642L42.1924 124.285L42.3425 129.999L44.1443 133.928L46.6969 133.571L48.3485 129.285Z" fill="#F2F2F2" stroke="black" stroke-width="0.463142"/>
<path d="M42.4928 136.07L42.3427 129.999L40.3907 126.07L37.8382 126.427L36.1865 131.07L36.3367 136.785L38.2886 141.07L40.691 140.356L42.4928 136.07Z" fill="#F2F2F2" stroke="black" stroke-width="0.463142"/>
<path d="M36.4862 142.855L36.3361 136.784L34.5343 132.855L31.9817 133.213L30.3301 137.855V143.57L32.282 147.855L34.8346 147.498L36.4862 142.855Z" fill="#F2F2F2" stroke="black" stroke-width="0.463142"/>
<path d="M147.447 11.0703L147.297 8.21317L146.396 6.07031L145.195 6.42746L144.294 8.57031L144.444 11.4275L145.345 13.5703L146.546 13.2132L147.447 11.0703Z" fill="#4C4C4C"/>
<path d="M141.441 17.8555V14.9983L140.54 12.8555L139.189 13.5698L138.288 15.3555L138.438 18.5698L139.339 20.3555H140.69L141.441 17.8555Z" fill="#4C4C4C"/>
<path d="M135.586 25L135.436 21.7857L134.535 20L133.334 20.3571L132.433 22.5L132.583 25.3571L133.484 27.1429H134.685L135.586 25Z" fill="#4C4C4C"/>
<path d="M129.729 31.7852L129.579 28.5709L128.678 26.7852L127.327 27.1423L126.576 29.2852V32.1423L127.627 34.2852L128.828 33.928L129.729 31.7852Z" fill="#4C4C4C"/>
<path d="M123.723 38.5703V35.7132L122.672 33.5703L121.471 33.9275L120.57 36.0703L120.72 38.9275L121.621 41.0703H122.823L123.723 38.5703Z" fill="#4C4C4C"/>
<path d="M117.868 45.3577L117.718 42.5006L116.817 40.7148H115.466L114.715 42.8577V46.072L115.616 47.8577H116.967L117.868 45.3577Z" fill="#4C4C4C"/>
<path d="M112.012 52.5017L111.862 49.2874L110.811 47.1445L109.61 47.5017L108.709 50.0017L108.859 52.8588L109.76 55.0017L110.961 54.6445L112.012 52.5017Z" fill="#4C4C4C"/>
<path d="M106.006 59.2852L105.856 56.0709L104.955 54.2852H103.603L102.853 56.7852L103.003 59.6423L103.904 61.428H105.105L106.006 59.2852Z" fill="#4C4C4C"/>
<path d="M99.9998 66.0703V63.2132L99.0989 61.0703L97.7476 61.4275L96.8467 63.5703L97.147 66.4275L97.8977 68.5703L99.2491 68.2132L99.9998 66.0703Z" fill="#4C4C4C"/>
<path d="M94.1444 72.8555V69.9983L93.0933 67.8555L91.8921 68.2126L90.9912 70.3555L91.1414 73.2126L92.0423 75.3555L93.2435 74.9983L94.1444 72.8555Z" fill="#4C4C4C"/>
<path d="M88.2879 79.6429L88.1378 76.7857L87.2369 75H85.8855L85.1348 77.1429V80.3571L86.1858 82.1429H87.387L88.2879 79.6429Z" fill="#4C4C4C"/>
<path d="M82.2821 86.7852V83.5709L81.3812 81.7852H80.0298L79.1289 84.2852L79.2791 87.1423L80.18 88.928H81.3812L82.2821 86.7852Z" fill="#4C4C4C"/>
<path d="M76.4266 93.5703L76.2764 90.7132L75.3755 88.5703L74.1743 88.9275L73.2734 91.0703L73.4236 93.9275L74.3245 96.0703L75.5257 95.7132L76.4266 93.5703Z" fill="#4C4C4C"/>
<path d="M70.4207 100.355V97.4983L69.5198 95.3555L68.1685 95.7126L67.2676 97.8555L67.4177 100.713L68.3186 102.855H69.5198L70.4207 100.355Z" fill="#4C4C4C"/>
<path d="M64.5643 107.143L64.4141 104.286L63.5132 102.5H62.312L61.4111 104.643L61.5613 107.857L62.4622 109.643H63.6634L64.5643 107.143Z" fill="#4C4C4C"/>
<path d="M58.5587 114.287V111.073L57.6578 108.93L56.3064 109.287L55.5557 111.43V114.644L56.4566 116.43H57.8079L58.5587 114.287Z" fill="#4C4C4C"/>
<path d="M52.703 120.713V117.856L51.6519 116.07H50.4507L49.5498 118.57L49.7 121.427L50.6009 123.57L51.8021 123.213L52.703 120.713Z" fill="#4C4C4C"/>
<path d="M46.8465 127.855L46.6964 124.998L45.7955 122.855L44.4441 123.213L43.6934 125.355V128.57L44.5943 130.355L45.9456 129.998L46.8465 127.855Z" fill="#4C4C4C"/>
<path d="M40.8407 134.645V131.787L39.9398 129.645L38.5884 130.002L37.6875 132.145L37.8377 135.002L38.7386 137.145H40.0899L40.8407 134.645Z" fill="#4C4C4C"/>
<path d="M34.9852 141.428L34.835 138.571L33.9341 136.785H32.5828L31.832 138.928V142.142L32.8831 143.928H34.0843L34.9852 141.428Z" fill="#4C4C4C"/>
<path d="M144.445 2.85714L115.015 2.5L2.55278 132.857L0.750977 137.143L30.1804 137.5L31.9822 133.214L144.445 2.85714Z" fill="#B2B2B2"/>
<path d="M30.3301 143.572L32.282 148.215L2.85258 147.858L1.05078 143.215L30.3301 143.572Z" fill="#666666"/>
<path d="M30.3306 143.573L30.1804 137.502L0.750977 137.145L1.05128 143.216L30.3306 143.573Z" fill="#8C8C8C"/>
<path d="M144.444 2.85658L146.997 2.1423L117.567 1.78516L115.015 2.49944L144.444 2.85658Z" fill="#999999"/>
<path d="M66.6665 93.2143L37.3873 92.5L25.5254 106.071L54.9548 106.786L66.6665 93.2143Z" fill="#A6A6A6" stroke="#7F7F7F" stroke-width="0.463142"/>
<path d="M119.219 32.1423L89.7898 31.7852L78.0781 45.3566L107.357 45.7137L119.219 32.1423Z" fill="#A6A6A6" stroke="#7F7F7F" stroke-width="0.463142"/>
<path d="M32.2825 148.214L30.3306 143.571L30.1804 137.499L31.9822 133.214L144.445 2.85658L146.997 2.1423L117.568 1.78516L115.015 2.49944L2.55278 132.857L0.750977 137.142L1.05128 143.214L2.85308 147.857L32.2825 148.214Z" stroke="black" stroke-width="0.463142"/>
</svg>
