<svg width="150" height="150" viewBox="0 0 150 150" fill="none" xmlns="http://www.w3.org/2000/svg">
<path d="M142.943 69.3125L137.537 125.089H142.192L147.597 69.3125H142.943Z" fill="#BF8C00" stroke="black" stroke-width="0.570294"/>
<path d="M124.475 69.3125L118.919 125.089H123.574L128.979 69.3125H124.475Z" fill="#BF8C00" stroke="black" stroke-width="0.570294"/>
<path d="M105.856 69.3125L100.45 125.089H105.105L110.51 69.3125H105.856Z" fill="#BF8C00" stroke="black" stroke-width="0.570294"/>
<path d="M87.2374 69.3125L81.832 125.089H86.4867L91.8921 69.3125H87.2374Z" fill="#BF8C00" stroke="black" stroke-width="0.570294"/>
<path d="M68.7687 69.3125L63.3633 125.089H68.0179L73.2732 69.3125H68.7687Z" fill="#BF8C00" stroke="black" stroke-width="0.570294"/>
<path d="M50.1505 69.3125L44.7451 125.089H49.3998L54.8052 69.3125H50.1505Z" fill="#BF8C00" stroke="black" stroke-width="0.570294"/>
<path d="M31.6815 69.3125L26.126 125.089H30.7806L36.186 69.3125H31.6815Z" fill="#BF8C00" stroke="black" stroke-width="0.570294"/>
<path d="M13.0626 69.3125L7.65723 125.089H12.3119L17.7173 69.3125H13.0626Z" fill="#BF8C00" stroke="black" stroke-width="0.570294"/>
<path d="M0.600586 13.5391H149.249V35.7412H0.600586V13.5391Z" fill="#999999"/>
<path d="M0.600586 47.1101H149.249V35.7383H0.600586V47.1101Z" fill="#7F7F7F"/>
<path d="M0.600586 47.1133H149.249" stroke="black" stroke-width="0.570294"/>
<path d="M0.600586 125.09H149.249V147.292H0.600586V125.09Z" fill="#FFCC00"/>
<path d="M0.600586 58.4844H149.249V69.3147H0.600586V58.4844Z" fill="#FFCC00"/>
<path d="M0.600586 2.16797H149.249V13.5398H0.600586V2.16797Z" fill="#CCCCCC"/>
<path d="M0.600586 58.4844H149.249" stroke="black" stroke-width="0.570294"/>
<path d="M149.249 69.3125H0.600586" stroke="black" stroke-width="0.570294"/>
<path d="M0.600586 91.5156H149.249" stroke="black" stroke-width="0.570294"/>
<path d="M0.600586 147.293H149.249" stroke="black" stroke-width="0.570294"/>
<path d="M0.600586 125.09H149.249" stroke="black" stroke-width="0.570294"/>
<path d="M0.600586 2.16797H149.249" stroke="black" stroke-width="0.570294"/>
<path d="M0.600586 13.5391H149.249" stroke="black" stroke-width="0.570294"/>
<path d="M132.132 69.3125L137.537 125.089H142.192L136.786 69.3125H132.132Z" fill="#E5B200" stroke="black" stroke-width="0.570294"/>
<path d="M113.514 69.3125L118.919 125.089H123.574L118.168 69.3125H113.514Z" fill="#E5B200" stroke="black" stroke-width="0.570294"/>
<path d="M95.0449 69.3125L100.45 125.089H105.105L99.6996 69.3125H95.0449Z" fill="#E5B200" stroke="black" stroke-width="0.570294"/>
<path d="M76.4268 69.3125L81.8322 125.089H86.4868L81.0814 69.3125H76.4268Z" fill="#E5B200" stroke="black" stroke-width="0.570294"/>
<path d="M57.958 69.3125L63.3634 125.089H68.0181L62.4625 69.3125H57.958Z" fill="#E5B200" stroke="black" stroke-width="0.570294"/>
<path d="M39.3398 69.3125L44.7452 125.089H49.3999L43.9945 69.3125H39.3398Z" fill="#E5B200" stroke="black" stroke-width="0.570294"/>
<path d="M20.7207 69.3125L26.1261 125.089H30.7808L25.3754 69.3125H20.7207Z" fill="#E5B200" stroke="black" stroke-width="0.570294"/>
<path d="M2.25195 69.3125L7.65736 125.089H12.312L6.75646 69.3125H2.25195Z" fill="#E5B200" stroke="black" stroke-width="0.570294"/>
<path d="M139.189 2.16797H140.69L142.192 13.5398V58.4857H137.537V13.5398L139.189 2.16797Z" fill="#FFCC00" stroke="black" stroke-width="0.570294"/>
<path d="M120.571 2.16797H122.072L123.574 13.5398V58.4857H119.069V13.5398L120.571 2.16797Z" fill="#FFCC00" stroke="black" stroke-width="0.570294"/>
<path d="M101.952 2.16797H103.603L105.105 13.5398V58.4857H100.45V13.5398L101.952 2.16797Z" fill="#FFCC00" stroke="black" stroke-width="0.570294"/>
<path d="M83.4837 2.16797H84.9852L86.4867 13.5398V58.4857H81.832V13.5398L83.4837 2.16797Z" fill="#FFCC00" stroke="black" stroke-width="0.570294"/>
<path d="M64.8648 2.16797H66.3663L68.0179 13.5398V58.4857H63.3633V13.5398L64.8648 2.16797Z" fill="#FFCC00" stroke="black" stroke-width="0.570294"/>
<path d="M46.2466 2.16797H47.8983L49.3998 13.5398V58.4857H44.7451V13.5398L46.2466 2.16797Z" fill="#FFCC00" stroke="black" stroke-width="0.570294"/>
<path d="M27.7779 2.16797H29.2794L30.7809 13.5398V58.4857H26.2764V13.5398L27.7779 2.16797Z" fill="#FFCC00" stroke="black" stroke-width="0.570294"/>
<path d="M9.15873 2.16797H10.6602L12.3119 13.5398V58.4857H7.65723V13.5398L9.15873 2.16797Z" fill="#FFCC00" stroke="black" stroke-width="0.570294"/>
<path d="M102.553 5.41406H103.003L103.604 13.5368V39.5296H102.103V13.5368L102.553 5.41406Z" fill="#FFF2BF"/>
<path d="M83.9338 5.41406H84.5344L84.9849 13.5368V39.5296H83.4834V13.5368L83.9338 5.41406Z" fill="#FFF2BF"/>
<path d="M139.64 5.41406H140.241L140.691 13.5368V39.5296H139.189V13.5368L139.64 5.41406Z" fill="#FFF2BF"/>
<path d="M121.171 5.41406H121.621L122.072 13.5368V39.5296H120.57V13.5368L121.171 5.41406Z" fill="#FFF2BF"/>
<path d="M28.2278 5.41406H28.8284L29.2788 13.5368V39.5296H27.7773V13.5368L28.2278 5.41406Z" fill="#FFF2BF"/>
<path d="M9.75978 5.41406H10.2102L10.6607 13.5368V39.5296H9.15918V13.5368L9.75978 5.41406Z" fill="#FFF2BF"/>
<path d="M65.4658 5.41406H65.9163L66.3667 13.5368V39.5296H64.8652V13.5368L65.4658 5.41406Z" fill="#FFF2BF"/>
<path d="M46.8469 5.41406H47.2974L47.898 13.5368V39.5296H46.3965V13.5368L46.8469 5.41406Z" fill="#FFF2BF"/>
</svg>
