<svg width="150" height="150" viewBox="0 0 150 150" fill="none" xmlns="http://www.w3.org/2000/svg">
<path d="M121.472 101.857L130.331 72.4648" stroke="black" stroke-width="0.551687"/>
<path d="M121.472 72.4648L130.331 101.857" stroke="black" stroke-width="0.551687"/>
<path d="M121.472 105.406H130.03" stroke="black" stroke-width="0.551687"/>
<path d="M121.472 137.837L130.331 108.445" stroke="black" stroke-width="0.551687"/>
<path d="M121.472 108.445L130.331 137.837" stroke="black" stroke-width="0.551687"/>
<path d="M124.024 100.844H144.445V142.905H124.024V100.844Z" fill="#4C4C4C"/>
<path d="M127.478 100.846H136.937V77.5352H127.478V100.846Z" fill="#999999"/>
<path d="M124.925 100.844H131.982V84.1211H124.925V100.844Z" fill="black"/>
<path d="M134.985 100.846H143.994V73.9883H134.985V100.846Z" fill="#666666"/>
<path d="M129.43 124.664H147.448V146.455H129.43V124.664Z" fill="#7F7F7F"/>
<path d="M125.525 33.4453H126.426V147.972H125.525V33.4453Z" fill="#FFCC00" stroke="black" stroke-width="0.551687"/>
<path d="M124.024 33.4453H145.496V70.4386H124.024V33.4453Z" fill="#999999" stroke="black" stroke-width="0.551687"/>
<path d="M66.2158 147.972L68.1678 85.6406H69.2188L67.1167 147.972H66.2158Z" fill="#BF8C00" stroke="black" stroke-width="0.551687"/>
<path d="M67.1172 131.25H71.1712V127.703H67.1172V131.25Z" fill="#CCCCCC" stroke="black" stroke-width="0.551687"/>
<path d="M71.1714 147.972L69.0693 85.6406H70.5708L72.6729 147.972H71.1714Z" fill="#FFCC00" stroke="black" stroke-width="0.551687"/>
<path d="M123.574 22.8026L123.273 34.458L124.174 33.4445L124.475 21.7891L123.574 22.8026Z" fill="#BF8C00"/>
<path d="M119.669 25.8427L119.369 38.0049L120.42 36.9913L120.57 25.3359L119.669 25.8427Z" fill="#BF8C00"/>
<path d="M115.766 29.3935L115.466 41.5556L116.517 40.5421L116.817 28.8867L115.766 29.3935Z" fill="#BF8C00"/>
<path d="M112.012 32.9404L111.712 45.1025L112.613 44.089L112.913 32.4336L112.012 32.9404Z" fill="#BF8C00"/>
<path d="M108.108 36.4872L107.808 48.6494L108.859 47.6359L109.009 35.9805L108.108 36.4872Z" fill="#BF8C00"/>
<path d="M104.205 40.033L103.904 51.6884L104.955 51.1817L105.256 39.0195L104.205 40.033Z" fill="#BF8C00"/>
<path d="M100.301 43.5799L100.15 55.2353L101.051 54.7286L101.352 42.5664L100.301 43.5799Z" fill="#BF8C00"/>
<path d="M96.5464 47.1268L96.2461 58.7822L97.147 58.2754L97.5974 46.1133L96.5464 47.1268Z" fill="#BF8C00"/>
<path d="M92.6421 50.6776L92.3418 62.333L93.3928 61.3195L93.6931 49.6641L92.6421 50.6776Z" fill="#BF8C00"/>
<path d="M88.8892 53.7177L88.5889 65.8799L89.4898 64.8663L89.7901 53.2109L88.8892 53.7177Z" fill="#BF8C00"/>
<path d="M84.9849 57.2646L84.6846 69.4267L85.7356 68.4132L85.8858 56.7578L84.9849 57.2646Z" fill="#BF8C00"/>
<path d="M81.0808 60.8114L80.9307 72.9736L81.8316 71.9601L82.1319 60.3047L81.0808 60.8114Z" fill="#BF8C00"/>
<path d="M77.3276 64.3573L77.0273 76.0127L77.9282 75.5059L78.2285 63.3438L77.3276 64.3573Z" fill="#BF8C00"/>
<path d="M73.4233 67.9041L73.123 79.5595L74.0239 79.0528L74.3242 66.8906L73.4233 67.9041Z" fill="#BF8C00"/>
<path d="M69.5193 71.451L69.3691 83.1064L70.27 82.5997L70.4202 70.4375L69.5193 71.451Z" fill="#BF8C00"/>
<path d="M65.7661 75.0018L65.4658 86.6572L66.3667 85.6437L66.667 73.9883L65.7661 75.0018Z" fill="#BF8C00"/>
<path d="M61.8618 78.5487L61.5615 90.2041L62.4624 89.1906L62.7627 77.5352L61.8618 78.5487Z" fill="#BF8C00"/>
<path d="M57.9585 82.0955L57.6582 93.7509L58.7093 92.7374L58.8594 81.082L57.9585 82.0955Z" fill="#BF8C00"/>
<path d="M54.0544 85.1357L53.9043 97.2978L54.8052 96.2843L55.1055 84.6289L54.0544 85.1357Z" fill="#BF8C00"/>
<path d="M50.3003 88.6825L50 100.845L50.9009 99.8312L51.2012 88.1758L50.3003 88.6825Z" fill="#BF8C00"/>
<path d="M46.396 92.2284L46.0957 104.391L47.1468 103.377L47.2969 91.2148L46.396 92.2284Z" fill="#BF8C00"/>
<path d="M42.4927 95.7752L42.1924 107.937L43.2434 106.924L43.5437 94.7617L42.4927 95.7752Z" fill="#BF8C00"/>
<path d="M38.7388 99.326L38.4385 110.981L39.4895 110.475L39.6397 98.3125L38.7388 99.326Z" fill="#BF8C00"/>
<path d="M34.8345 102.873L34.5342 114.528L35.5852 113.515L35.8855 101.859L34.8345 102.873Z" fill="#BF8C00"/>
<path d="M31.0813 106.42L30.6309 118.075L31.6819 117.062L31.9822 105.406L31.0813 106.42Z" fill="#BF8C00"/>
<path d="M27.1773 109.967L26.877 121.622L27.7779 120.609L28.0782 108.953L27.1773 109.967Z" fill="#BF8C00"/>
<path d="M23.273 113.007L22.9727 125.169L24.0237 124.155L24.324 112.5L23.273 113.007Z" fill="#BF8C00"/>
<path d="M19.3689 116.554L19.2188 128.716L20.1197 127.702L20.42 116.047L19.3689 116.554Z" fill="#BF8C00"/>
<path d="M15.6157 120.101L15.3154 132.263L16.2163 131.249L16.5166 119.594L15.6157 120.101Z" fill="#BF8C00"/>
<path d="M11.7114 123.65L11.4111 135.306L12.4622 134.799L12.6123 122.637L11.7114 123.65Z" fill="#BF8C00"/>
<path d="M7.80835 127.197L7.6582 138.853L8.5591 138.346L8.8594 126.184L7.80835 127.197Z" fill="#BF8C00"/>
<path d="M4.05421 130.744L3.75391 142.399L4.65481 141.893L4.95511 129.73L4.05421 130.744Z" fill="#BF8C00"/>
<path d="M0.600586 122.127L123.874 10.6406L124.324 14.6947L0.900886 126.688L0.600586 122.127Z" fill="#999999"/>
<path d="M1.05054 128.716L124.474 17.2291L124.324 14.6953L0.900391 126.689L1.05054 128.716Z" fill="#7F7F7F"/>
<path d="M2.25195 143.92L125.675 32.4336L125.976 36.4876L2.7024 147.974L2.25195 143.92Z" fill="#FFCC00"/>
<path d="M1.20117 130.744L124.625 19.2578L124.775 21.2848L1.35132 132.771L1.20117 130.744Z" fill="#FFCC00"/>
<path d="M0.450195 120.1L123.723 8.61328L123.874 10.6403L0.600345 122.127L0.450195 120.1Z" fill="#CCCCCC"/>
<path d="M1.20117 130.744L124.625 19.2578" stroke="black" stroke-width="0.551687"/>
<path d="M124.775 21.2852L1.50195 133.278" stroke="black" stroke-width="0.551687"/>
<path d="M1.80176 137.33L125.075 25.8438" stroke="black" stroke-width="0.551687"/>
<path d="M2.70312 147.975L125.976 36.4883" stroke="black" stroke-width="0.551687"/>
<path d="M2.25195 143.92L125.675 32.4336" stroke="black" stroke-width="0.551687"/>
<path d="M0.450195 120.1L123.723 8.61328" stroke="black" stroke-width="0.551687"/>
<path d="M0.600586 122.127L123.874 10.6406" stroke="black" stroke-width="0.551687"/>
<path d="M1.05078 128.717L124.474 17.2305" stroke="black" stroke-width="0.551687"/>
<path d="M121.321 24.8299L123.273 34.4583L124.174 33.4448L122.222 23.8164L121.321 24.8299Z" fill="#E5B200"/>
<path d="M117.418 27.87L119.37 38.0052L120.421 36.9917L118.319 27.3633L117.418 27.87Z" fill="#E5B200"/>
<path d="M113.514 31.4208L115.466 41.556L116.517 40.5424L114.565 30.9141L113.514 31.4208Z" fill="#E5B200"/>
<path d="M109.76 34.9677L111.712 45.1028L112.613 44.0893L110.661 34.4609L109.76 34.9677Z" fill="#E5B200"/>
<path d="M105.855 38.5135L107.807 48.6486L108.858 47.6351L106.756 37.5L105.855 38.5135Z" fill="#E5B200"/>
<path d="M101.952 42.0604L103.904 51.6888L104.955 51.182L103.003 41.0469L101.952 42.0604Z" fill="#E5B200"/>
<path d="M98.1982 45.6073L100.15 55.2356L101.051 54.7289L99.0991 44.5938L98.1982 45.6073Z" fill="#E5B200"/>
<path d="M94.2939 49.1541L96.2459 58.7825L97.1468 58.2758L95.1948 48.1406L94.2939 49.1541Z" fill="#E5B200"/>
<path d="M90.3906 52.701L92.3426 62.3294L93.3936 61.3159L91.4417 51.6875L90.3906 52.701Z" fill="#E5B200"/>
<path d="M86.6367 56.2518L88.5887 65.8802L89.4896 64.8667L87.5376 55.2383L86.6367 56.2518Z" fill="#E5B200"/>
<path d="M82.7324 59.7987L84.6844 69.427L85.7354 68.4135L83.6333 58.7852L82.7324 59.7987Z" fill="#E5B200"/>
<path d="M78.8291 62.8388L80.9312 72.9739L81.8321 71.9604L79.8802 62.332L78.8291 62.8388Z" fill="#E5B200"/>
<path d="M74.9248 66.3846L77.0269 76.013L77.9278 75.5062L75.9759 65.3711L74.9248 66.3846Z" fill="#E5B200"/>
<path d="M71.1709 69.9315L73.1229 79.5599L74.0238 79.0531L72.0718 68.918L71.1709 69.9315Z" fill="#E5B200"/>
<path d="M67.2676 73.4784L69.3697 83.1067L70.2706 82.6L68.3186 72.4648L67.2676 73.4784Z" fill="#E5B200"/>
<path d="M63.5137 77.0252L65.4656 86.6536L66.3665 85.6401L64.4146 76.0117L63.5137 77.0252Z" fill="#E5B200"/>
<path d="M59.6094 80.576L61.5613 90.2044L62.4622 89.1909L60.5103 79.5625L59.6094 80.576Z" fill="#E5B200"/>
<path d="M55.7061 84.1229L57.658 93.7513L58.7091 92.7378L56.7571 83.1094L55.7061 84.1229Z" fill="#E5B200"/>
<path d="M51.8018 87.163L53.9039 97.2981L54.8048 96.2846L52.8528 86.6562L51.8018 87.163Z" fill="#E5B200"/>
<path d="M48.0479 90.7099L49.9998 100.845L50.9007 99.8315L48.9488 90.2031L48.0479 90.7099Z" fill="#E5B200"/>
<path d="M44.1445 94.2568L46.0965 104.392L47.1475 103.378L45.0454 93.75L44.1445 94.2568Z" fill="#E5B200"/>
<path d="M40.2402 97.8026L42.1922 107.938L43.2432 106.924L41.2913 96.7891L40.2402 97.8026Z" fill="#E5B200"/>
<path d="M36.4863 101.349L38.4383 110.978L39.4893 110.471L37.3872 100.336L36.4863 101.349Z" fill="#E5B200"/>
<path d="M32.583 104.9L34.535 114.529L35.586 113.515L33.4839 103.887L32.583 104.9Z" fill="#E5B200"/>
<path d="M28.8291 108.447L30.6309 118.075L31.682 117.062L29.73 107.434L28.8291 108.447Z" fill="#E5B200"/>
<path d="M24.9248 111.994L26.8768 121.622L27.7777 120.609L25.8257 110.98L24.9248 111.994Z" fill="#E5B200"/>
<path d="M21.0215 115.034L22.9734 125.169L24.0245 124.156L22.0725 114.527L21.0215 115.034Z" fill="#E5B200"/>
<path d="M17.2676 118.581L19.2195 128.716L20.1204 127.703L18.1685 118.074L17.2676 118.581Z" fill="#E5B200"/>
<path d="M13.3633 122.128L15.3152 132.263L16.2161 131.249L14.2642 121.621L13.3633 122.128Z" fill="#E5B200"/>
<path d="M9.45898 125.678L11.4109 135.306L12.462 134.799L10.3599 124.664L9.45898 125.678Z" fill="#E5B200"/>
<path d="M5.55566 129.224L7.65777 138.853L8.55867 138.346L6.60672 128.211L5.55566 129.224Z" fill="#E5B200"/>
<path d="M1.80176 132.771L3.75371 142.4L4.65461 141.893L2.70266 131.758L1.80176 132.771Z" fill="#E5B200"/>
<path d="M121.622 10.1357L122.072 9.62891L122.523 12.1627L123.123 20.2708L122.222 21.2843L121.472 12.6694L121.622 10.1357Z" fill="#FFCC00"/>
<path d="M117.868 13.6836H118.168L118.619 15.2039L119.369 23.8187L118.318 24.8322L117.718 16.2174L117.868 13.6836Z" fill="#FFCC00"/>
<path d="M113.964 17.2294L114.264 16.7227L114.865 18.7497L115.465 27.3645L114.564 28.3781L113.813 19.7632L113.964 17.2294Z" fill="#FFCC00"/>
<path d="M110.06 20.7763L110.361 20.2695L110.961 22.2966L111.562 30.9114L110.661 31.9249L109.91 23.3101L110.06 20.7763Z" fill="#FFCC00"/>
<path d="M106.306 24.3232L106.607 23.8164L107.057 25.8434L107.808 34.4583L106.757 35.4718L106.156 26.8569L106.306 24.3232Z" fill="#FFCC00"/>
<path d="M102.402 27.87L102.702 27.3633L103.153 29.3903L103.904 38.0052L103.003 38.5119L102.252 30.4038L102.402 27.87Z" fill="#FFCC00"/>
<path d="M98.6482 30.9141H98.7983L99.3989 32.9411L99.9995 41.556L99.0986 42.0627L98.498 33.4478L98.6482 30.9141Z" fill="#FFCC00"/>
<path d="M94.7449 34.4609H95.0452L95.4956 36.488L96.0962 45.1028L95.1953 45.6096L94.5947 36.9947L94.7449 34.4609Z" fill="#FFCC00"/>
<path d="M90.8406 38.0078H91.1409L91.5913 40.0348L92.3421 48.1429L91.291 49.1565L90.6904 40.5416L90.8406 38.0078Z" fill="#FFCC00"/>
<path d="M86.9373 41.5547H87.2376L87.8382 43.075L88.4388 51.6898L87.5379 52.7033L86.7871 44.0885L86.9373 41.5547Z" fill="#FFCC00"/>
<path d="M83.1834 45.1005L83.4837 44.5938L83.9341 46.6208L84.6849 55.2356L83.6338 56.2492L83.0332 47.6343L83.1834 45.1005Z" fill="#FFCC00"/>
<path d="M79.2791 48.6474L79.5794 48.1406L80.0298 50.1677L80.7806 58.7825L79.8797 59.796L79.1289 51.1812L79.2791 48.6474Z" fill="#FFCC00"/>
<path d="M75.3757 52.1943L75.8262 51.6875L76.2766 53.7145L76.8772 62.3294L75.9763 63.3429L75.2256 54.728L75.3757 52.1943Z" fill="#FFCC00"/>
<path d="M71.4717 55.745L71.9221 55.2383L72.3726 57.2653L73.1233 65.8802L72.0723 66.8937L71.4717 58.2788V55.745Z" fill="#FFCC00"/>
<path d="M67.7175 58.7852H68.0178L68.4683 60.8122L69.219 69.427L68.3181 69.9338L67.5674 61.8257L67.7175 58.7852Z" fill="#FFCC00"/>
<path d="M63.8142 62.332H64.2647L64.7151 64.3591L65.3157 72.9739L64.4148 73.4807L63.6641 64.8658L63.8142 62.332Z" fill="#FFCC00"/>
<path d="M59.9099 65.8789H60.3604L60.8108 67.9059L61.4114 76.014L60.5105 77.0276L59.7598 68.4127L59.9099 65.8789Z" fill="#FFCC00"/>
<path d="M56.156 69.4258H56.4563L56.9068 70.9461L57.6575 79.5609L56.7566 80.5744L56.0059 71.9596L56.156 69.4258Z" fill="#FFCC00"/>
<path d="M52.2517 72.9716L52.552 72.4648L53.1526 74.4919L53.7532 83.1067L52.8523 84.1202L52.1016 75.5054L52.2517 72.9716Z" fill="#FFCC00"/>
<path d="M48.4988 76.5185L48.7991 76.0117L49.2495 78.0387L49.8501 86.6536L48.9492 87.6671L48.3486 79.0523L48.4988 76.5185Z" fill="#FFCC00"/>
<path d="M44.5945 80.0693L44.8948 79.5625L45.3452 81.5895L46.096 90.2044L45.0449 91.2179L44.4443 82.603L44.5945 80.0693Z" fill="#FFCC00"/>
<path d="M40.6912 83.6161L40.9915 83.1094L41.5921 85.1364L42.1927 93.7513L41.2918 94.7648L40.541 86.1499L40.6912 83.6161Z" fill="#FFCC00"/>
<path d="M36.9373 87.163L37.0874 86.6562L37.688 88.6833L38.4388 97.2981L37.3877 97.8049L36.7871 89.6968L36.9373 87.163Z" fill="#FFCC00"/>
<path d="M33.033 90.2031H33.3333L33.7837 92.2302L34.5345 100.845L33.4834 101.352L32.8828 92.7369L33.033 90.2031Z" fill="#FFCC00"/>
<path d="M29.1287 93.75H29.429L30.0296 95.777L30.6302 104.392L29.7293 104.899L28.9785 96.2838L29.1287 93.75Z" fill="#FFCC00"/>
<path d="M25.3757 97.2969H25.5259L26.1265 99.3239L26.8772 107.432L25.8262 108.446L25.2256 99.8307L25.3757 97.2969Z" fill="#FFCC00"/>
<path d="M21.4714 100.844H21.7717L22.2222 102.364L22.9729 110.979L21.9219 111.992L21.3213 103.378L21.4714 100.844Z" fill="#FFCC00"/>
<path d="M17.5671 104.393L17.8674 103.887L18.3179 105.914L19.0686 114.529L18.1677 115.542L17.417 106.927L17.5671 104.393Z" fill="#FFCC00"/>
<path d="M13.6638 107.94L14.1143 107.434L14.5647 109.461L15.3155 118.075L14.2644 119.089L13.5137 110.474L13.6638 107.94Z" fill="#FFCC00"/>
<path d="M9.90992 111.487L10.2102 110.98L10.6607 113.007L11.4114 121.622L10.3604 122.129L9.75977 114.021L9.90992 111.487Z" fill="#FFCC00"/>
<path d="M6.00562 114.527H6.30592L6.90652 116.554L7.50712 125.169L6.60622 126.183L5.85547 117.568L6.00562 114.527Z" fill="#FFCC00"/>
<path d="M2.10254 118.074H2.55299L3.00344 120.101L3.60404 128.716L2.70314 129.223L2.10254 121.115V118.074Z" fill="#FFCC00"/>
<path d="M127.928 36.9913L133.483 70.4373H142.943V6.58594H129.429L127.928 36.9913Z" fill="#FFCC00"/>
<path d="M130.781 53.7147L133.484 70.4377H142.943V40.5391L130.781 53.7147Z" fill="#F7C400"/>
<path d="M131.381 58.2783L133.483 70.4405H142.942V45.6094L131.381 58.2783Z" fill="#EDBA00"/>
<path d="M131.832 60.3038L133.484 70.439H142.943V48.6484L131.832 60.3038Z" fill="#E5B200"/>
<path d="M127.928 36.9913L133.483 70.4373H142.943V6.58594H129.429L127.928 36.9913Z" stroke="black" stroke-width="0.551687"/>
<path d="M122.973 1.51953L126.126 40.5398L136.937 33.4452V6.5871L122.973 1.51953Z" fill="#FFD940" stroke="black" stroke-width="0.551687"/>
<path d="M133.934 73.9883L139.489 121.117H142.943V73.9883H133.934Z" fill="#BF8C00"/>
<path d="M126.427 104.394L135.436 73.9883" stroke="black" stroke-width="0.551687"/>
<path d="M126.427 73.9883L135.436 104.394" stroke="black" stroke-width="0.551687"/>
<path d="M136.486 73.9883L145.495 104.394" stroke="black" stroke-width="0.551687"/>
<path d="M136.486 104.394L145.495 73.9883" stroke="black" stroke-width="0.551687"/>
<path d="M126.427 107.938H145.496" stroke="black" stroke-width="0.551687"/>
<path d="M126.427 141.386L135.436 110.98" stroke="black" stroke-width="0.551687"/>
<path d="M126.427 110.98L135.436 141.386" stroke="black" stroke-width="0.551687"/>
<path d="M136.486 110.98L145.495 141.386" stroke="black" stroke-width="0.551687"/>
<path d="M136.486 141.386L145.495 110.98" stroke="black" stroke-width="0.551687"/>
<path d="M145.495 73.9883H146.396V147.975H145.495V73.9883Z" fill="#E5B200" stroke="black" stroke-width="0.551687"/>
<path d="M135.436 73.9883H136.487V147.975H135.436V73.9883Z" fill="#E5B200" stroke="black" stroke-width="0.551687"/>
<path d="M123.573 73.9848V70.4375H149.399V73.9848H123.573Z" fill="#CCCCCC" stroke="black" stroke-width="0.551687"/>
<path d="M126.427 124.661V121.113H146.397V124.661H126.427Z" fill="#CCCCCC" stroke="black" stroke-width="0.551687"/>
<path d="M123.573 107.938V104.391H127.928V107.938H123.573Z" fill="#CCCCCC" stroke="black" stroke-width="0.551687"/>
<path d="M120.57 33.4453H121.471V142.905H120.57V33.4453Z" fill="#FFCC00" stroke="black" stroke-width="0.551687"/>
<path d="M118.469 72.4653V68.918L123.574 70.4382V73.9855L118.469 72.4653Z" fill="#CCCCCC" stroke="black" stroke-width="0.551687"/>
<path d="M121.472 122.634V119.594L126.427 121.114V124.661L121.472 122.634Z" fill="#CCCCCC" stroke="black" stroke-width="0.551687"/>
<path d="M118.469 105.912V102.871L123.574 104.391V107.939L118.469 105.912Z" fill="#CCCCCC" stroke="black" stroke-width="0.551687"/>
<path d="M127.928 70.4377V40.5391" stroke="black" stroke-width="0.551687"/>
<path d="M118.469 68.918H124.024L127.928 70.4382H123.574L118.469 68.918Z" fill="white" stroke="black" stroke-width="0.551687"/>
<path d="M118.469 102.871H124.024L127.928 104.391H123.574L118.469 102.871Z" fill="white" stroke="black" stroke-width="0.551687"/>
<path d="M121.472 119.594H141.892L146.397 121.114H126.427L121.472 119.594Z" fill="white" stroke="black" stroke-width="0.551687"/>
</svg>
