<svg width="150" height="150" viewBox="0 0 150 150" fill="none" xmlns="http://www.w3.org/2000/svg">
<g clip-path="url(#clip0_2109_178202)">
<path d="M30.0303 150V0H119.82V150H30.0303Z" fill="#7387A6"/>
<path d="M119.819 150V0H150V150H119.819Z" fill="#263A59" stroke="black" stroke-width="0.474579"/>
<path d="M144.745 6.375H122.223V143.625H144.745V6.375Z" fill="#CCCCCC"/>
<path d="M30.0303 150V106.125L119.82 31.125V150H30.0303Z" fill="#6B7F9E"/>
<path d="M30.0303 150V131.25L119.82 55.875V150H30.0303Z" fill="#617594"/>
<path d="M30.0303 150V143.625L119.82 68.625V150H30.0303Z" fill="#596D8C"/>
<path d="M30.0303 150V0H119.82V150H30.0303Z" stroke="black" stroke-width="0.474579"/>
<path d="M144.744 43.5V81L122.372 106.125V69L144.744 43.5Z" fill="#E5E5E5"/>
<path d="M144.895 55.875V68.625L122.372 93.75V81.375L144.895 55.875Z" fill="white"/>
<path d="M144.745 6.375H122.223V143.625H144.745V6.375Z" stroke="black" stroke-width="0.474579"/>
<path d="M122.223 143.625V6.375H144.745" stroke="white" stroke-width="0.474579"/>
<path d="M150 0H119.819" stroke="#7387A6" stroke-width="0.474579"/>
<path d="M0 150V0H30.03V150H0Z" fill="#FFFF00" stroke="black" stroke-width="0.474579"/>
<path d="M0 0V150" stroke="black" stroke-width="0.474579"/>
<path d="M0 0V37.875L15.015 0H0Z" fill="black"/>
<path d="M15.015 37.125L0 75V112.5L15.015 75V37.125Z" fill="black"/>
<path d="M15.015 112.5L0 150H15.015V112.5Z" fill="black"/>
<path d="M14.8652 0V37.875L30.0304 0H14.8652Z" fill="black"/>
<path d="M30.0304 37.125L14.8652 75V112.5L30.0304 75V37.125Z" fill="black"/>
<path d="M30.0304 112.5L14.8652 150H30.0304V112.5Z" fill="black"/>
<path d="M30.0303 150V0H119.82" stroke="#BFD3F2" stroke-width="0.474579"/>
</g>
<defs>
<clipPath id="clip0_2109_178202">
<rect width="150" height="150" fill="white"/>
</clipPath>
</defs>
</svg>
