<svg width="150" height="150" viewBox="0 0 150 150" fill="none" xmlns="http://www.w3.org/2000/svg">
<path d="M3.9043 137.418V142.452H146.247V137.418H3.9043Z" fill="black"/>
<path d="M33.0332 59.9012V23.1562H138.138L142.343 26.1764L146.246 34.2301L148.349 45.8073L149.249 59.9012H33.0332Z" fill="#4C4C4C" stroke="black" stroke-width="0.549832"/>
<path d="M147.448 36.2422L142.943 45.3026L144.445 53.8596L148.949 45.3026L147.448 36.2422Z" fill="#999999"/>
<path d="M131.381 20.1328V39.2603H134.684V20.1328H131.381Z" fill="#999999"/>
<path d="M126.576 20.1328V39.2603H129.879V20.1328H126.576Z" fill="#999999"/>
<path d="M122.223 20.1328V39.2603H125.076V20.1328H122.223Z" fill="#999999"/>
<path d="M117.417 20.1328V39.2603H120.72V20.1328H117.417Z" fill="#999999"/>
<path d="M112.913 20.1328V39.2603H115.916V20.1328H112.913Z" fill="#999999"/>
<path d="M108.258 20.1328V39.2603H111.111V20.1328H108.258Z" fill="#999999"/>
<path d="M103.453 20.1328V39.2603H106.756V20.1328H103.453Z" fill="#999999"/>
<path d="M98.9492 20.1328V39.2603H101.952V20.1328H98.9492Z" fill="#999999"/>
<path d="M94.2939 20.1328V39.2603H97.4471V20.1328H94.2939Z" fill="#999999"/>
<path d="M89.4893 20.1328V39.2603H92.7926V20.1328H89.4893Z" fill="#999999"/>
<path d="M84.9854 20.1328V39.2603H87.9884V20.1328H84.9854Z" fill="#999999"/>
<path d="M80.3301 20.1328V39.2603H83.4832V20.1328H80.3301Z" fill="#999999"/>
<path d="M75.8262 20.1328V39.2603H78.8292V20.1328H75.8262Z" fill="#999999"/>
<path d="M71.0215 20.1328V39.2603H74.0245V20.1328H71.0215Z" fill="#999999"/>
<path d="M66.3662 20.1328V39.2603H69.5194V20.1328H66.3662Z" fill="#999999"/>
<path d="M61.8623 20.1328V39.2603H64.8653V20.1328H61.8623Z" fill="#999999"/>
<path d="M57.0566 20.1328V39.2603H60.3599V20.1328H57.0566Z" fill="#999999"/>
<path d="M52.4023 20.1328V39.2603H55.5555V20.1328H52.4023Z" fill="#999999"/>
<path d="M136.187 20.1328V39.2603H139.039V20.1328H136.187Z" fill="#999999"/>
<path d="M47.8975 20.1328V39.2603H50.9005V20.1328H47.8975Z" fill="#999999"/>
<path d="M43.0928 20.1328V39.2603H46.3961V20.1328H43.0928Z" fill="#999999"/>
<path d="M38.4385 20.1328V39.2603H41.5916V20.1328H38.4385Z" fill="#999999"/>
<path d="M33.9336 20.1328V39.2603H36.9366V20.1328H33.9336Z" fill="#999999"/>
<path d="M142.643 24.1602L140.24 39.2608L142.943 44.2944L145.345 29.1937L142.643 24.1602Z" fill="#999999"/>
<path d="M33.0332 59.9005H146.246L145.646 49.8334L143.844 41.2763L141.141 35.2361L138.439 34.2294L33.0332 33.2227V59.9005Z" fill="#B2B2B2" stroke="black" stroke-width="0.549832"/>
<path d="M33.0332 39.2617V58.8926H138.439V39.2617H33.0332Z" fill="black"/>
<path d="M132.282 59.8993L132.583 51.8456L134.084 45.302L136.186 40.2684L138.438 39.2617L140.54 40.2684L142.643 45.302L144.144 51.8456L144.444 59.8993H132.282Z" fill="#666666" stroke="black" stroke-width="0.549832"/>
<path d="M112.012 137.418V142.452H142.943V137.418H112.012Z" fill="#CC9900"/>
<path d="M3.9043 86.0742V137.417H146.247V86.0742H3.9043Z" fill="#FFCC00"/>
<path d="M112.012 137.418V147.485H142.943V137.418H112.012Z" fill="#FFCC00"/>
<path d="M43.9941 137.417H146.246V86.0742L43.9941 137.417Z" fill="#FAC700"/>
<path d="M64.5645 137.415H146.246V95.6367L64.5645 137.415Z" fill="#F2BF00"/>
<path d="M74.9248 137.417H146.246V100.672L74.9248 137.417Z" fill="#EBB800"/>
<path d="M3.9043 86.0742V95.638H146.247V86.0742H3.9043Z" fill="#CC9900"/>
<path d="M0.600586 53.8594V86.0741H149.249V53.8594H0.600586Z" fill="#FFE57F" stroke="black" stroke-width="0.549832"/>
<path d="M65.165 56.8789V83.0534H74.9248V56.8789H65.165Z" fill="#FFE066" stroke="black" stroke-width="0.549832"/>
<path d="M17.5674 56.8789V83.0534H32.4322V56.8789H17.5674Z" fill="#FFE066" stroke="black" stroke-width="0.549832"/>
<path d="M84.6846 66.9453V80.0326H95.1951V66.9453H84.6846Z" fill="#FFE066" stroke="black" stroke-width="0.549832"/>
<path d="M112.012 137.418V147.485H142.943V137.418H112.012Z" stroke="black" stroke-width="0.549832"/>
<path d="M124.475 44.2969V53.8606H130.781V44.2969H124.475Z" fill="#E5B200" stroke="black" stroke-width="0.549832"/>
<path d="M71.9219 44.2969V53.8606H78.2282V44.2969H71.9219Z" fill="#E5B200" stroke="black" stroke-width="0.549832"/>
<path d="M87.3877 137.418V147.485H93.694V137.418H87.3877Z" fill="#E5B200" stroke="black" stroke-width="0.549832"/>
<path d="M6.90723 137.418V147.485H13.2135V137.418H6.90723Z" fill="#E5B200" stroke="black" stroke-width="0.549832"/>
<path d="M24.7744 61.9119H25.375V59.8984H24.7744V61.9119Z" fill="black"/>
<path d="M30.9307 61.9119H31.5313V59.8984H30.9307V61.9119Z" fill="black"/>
<path d="M30.9307 80.033H31.5313V78.0195H30.9307V80.033Z" fill="black"/>
<path d="M24.7744 80.033H25.375V78.0195H24.7744V80.033Z" fill="black"/>
<path d="M18.4688 80.033H19.3697V78.0195H18.4688V80.033Z" fill="black"/>
<path d="M18.4688 61.9119H19.3697V59.8984H18.4688V61.9119Z" fill="black"/>
<path d="M73.4238 80.033H74.0244V78.0195H73.4238V80.033Z" fill="black"/>
<path d="M73.4238 61.9119H74.0244V59.8984H73.4238V61.9119Z" fill="black"/>
<path d="M65.7656 61.9119H66.3662V59.8984H65.7656V61.9119Z" fill="black"/>
<path d="M65.7656 80.033H66.3662V78.0195H65.7656V80.033Z" fill="black"/>
<path d="M39.3398 66.9453H50.9014V69.9654H39.3398V66.9453Z" fill="#4C4C4C"/>
<path d="M3.9043 10.0664V53.8583H33.0334V10.0664H3.9043Z" fill="#FFCC00"/>
<path d="M3.9043 38.2569V53.861H33.0334L33.3337 23.1562L3.9043 38.2569Z" fill="#FAC700"/>
<path d="M3.9043 46.8122V53.8591H33.0334L33.3337 32.2148L3.9043 46.8122Z" fill="#F2BF00"/>
<path d="M3.9043 51.8473V53.8607H33.0334L33.3337 37.25L3.9043 51.8473Z" fill="#EBB800"/>
<path d="M3.9043 10.0664V53.8584H33.0334V10.0664H3.9043Z" stroke="black" stroke-width="0.549832"/>
<path d="M3.9043 86.0742V137.416H146.247V86.0742H3.9043Z" stroke="black" stroke-width="0.549832"/>
<path d="M5.40527 18.1211V48.8258H17.8677V18.1211H5.40527Z" fill="#B2B2B2" stroke="black" stroke-width="0.549832"/>
<path d="M30.0303 44.2969V48.8271H31.5318V44.2969H30.0303Z" fill="#7F7F7F"/>
<path d="M6.00586 92.6172V98.6575H7.50736V92.6172H6.00586Z" fill="#7F7F7F"/>
<path d="M30.0303 92.6172V98.6575H31.5318V92.6172H30.0303Z" fill="#7F7F7F"/>
<path d="M84.084 92.6172V98.6575H85.8858V92.6172H84.084Z" fill="#7F7F7F"/>
<path d="M141.441 92.6172V98.6575H142.943V92.6172H141.441Z" fill="#7F7F7F"/>
<path d="M6.90723 10.0687V5.03516H30.0303V10.0687H6.90723Z" fill="#CC9900" stroke="black" stroke-width="0.549832"/>
<path d="M5.40527 2.01172V5.03185H31.5314V2.01172H5.40527Z" fill="#FFCC00" stroke="black" stroke-width="0.549832"/>
<path d="M6.90723 69.9684L7.20753 65.9415L9.30963 61.9147L10.5108 59.9012L11.712 58.8945L12.9132 59.9012L13.664 61.9147L16.0664 65.9415V69.9684V73.9952L13.664 77.0153L12.9132 80.0355H11.712H10.5108L9.30963 77.0153L7.20753 73.9952L6.90723 69.9684Z" fill="#4C4C4C"/>
<path d="M9.91017 76.008L9.30957 72.9879V69.9678V66.9476L9.91017 63.9275L10.8111 62.9208L11.712 61.9141L12.6129 62.9208" stroke="white" stroke-width="0.549832"/>
<path d="M64.8652 83.0534V56.8789H74.9253" stroke="white" stroke-width="0.549832"/>
<path d="M17.5674 83.0534V56.8789H32.4322" stroke="white" stroke-width="0.549832"/>
<path d="M84.6846 80.0326V66.9453H95.1951" stroke="white" stroke-width="0.549832"/>
<path d="M5.40527 48.8258V18.1211H17.5674" stroke="white" stroke-width="0.549832"/>
<path d="M12.6129 62.918L13.2135 63.9247L13.6639 66.9448V69.9649V72.9851L13.2135 74.9985L12.6129 77.0119L11.712 78.0186L10.8111 77.0119L9.91016 74.9985" stroke="black" stroke-width="0.549832"/>
</svg>
