<svg width="150" height="150" viewBox="0 0 150 150" fill="none" xmlns="http://www.w3.org/2000/svg">
<path d="M0.600586 10.4648H149.249V139.535H0.600586V10.4648Z" fill="#F2F2F2"/>
<path d="M0.600586 32.0938H149.249V118.605H0.600586V32.0938Z" fill="#E5E5E5"/>
<path d="M22.3726 132.558L13.0633 17.4414H9.91016L19.2195 132.558H22.3726Z" fill="#999999" stroke="black" stroke-width="0.64732"/>
<path d="M40.8406 132.558L31.6815 17.4414H28.5283L37.8376 132.558H40.8406Z" fill="#999999" stroke="black" stroke-width="0.64732"/>
<path d="M59.4598 132.558L50.1505 17.4414H47.1475L56.3066 132.558H59.4598Z" fill="#999999" stroke="black" stroke-width="0.64732"/>
<path d="M78.0777 132.558L68.7684 17.4414H65.6152L74.9245 132.558H78.0777Z" fill="#999999" stroke="black" stroke-width="0.64732"/>
<path d="M96.5467 132.558L87.3875 17.4414H84.2344L93.5437 132.558H96.5467Z" fill="#999999" stroke="black" stroke-width="0.64732"/>
<path d="M115.165 132.558L105.856 17.4414H102.853L112.012 132.558H115.165Z" fill="#999999" stroke="black" stroke-width="0.64732"/>
<path d="M133.784 132.558L124.474 17.4414H121.321L130.631 132.558H133.784Z" fill="#999999" stroke="black" stroke-width="0.64732"/>
<path d="M139.939 17.4414L144.594 75.3484H147.597L142.942 17.4414H139.939Z" fill="#999999" stroke="black" stroke-width="0.64732"/>
<path d="M130.631 132.558L139.94 17.4414H142.943L133.784 132.558H130.631Z" fill="#D9D9D9" stroke="black" stroke-width="0.64732"/>
<path d="M112.012 132.558L121.321 17.4414H124.474L115.165 132.558H112.012Z" fill="#D9D9D9" stroke="black" stroke-width="0.64732"/>
<path d="M93.5439 132.558L102.703 17.4414H105.856L96.5469 132.558H93.5439Z" fill="#D9D9D9" stroke="black" stroke-width="0.64732"/>
<path d="M74.9248 132.558L84.2341 17.4414H87.2371L78.078 132.558H74.9248Z" fill="#D9D9D9" stroke="black" stroke-width="0.64732"/>
<path d="M56.3066 132.558L65.6159 17.4414H68.7691L59.4598 132.558H56.3066Z" fill="#D9D9D9" stroke="black" stroke-width="0.64732"/>
<path d="M37.8379 132.558L46.997 17.4414H50.1502L40.8409 132.558H37.8379Z" fill="#D9D9D9" stroke="black" stroke-width="0.64732"/>
<path d="M19.2188 132.558L28.5281 17.4414H31.6812L22.3719 132.558H19.2188Z" fill="#D9D9D9" stroke="black" stroke-width="0.64732"/>
<path d="M0.600586 132.558L9.90989 17.4414H13.063L3.75374 132.558H0.600586Z" fill="#D9D9D9" stroke="black" stroke-width="0.64732"/>
<path d="M0.600586 139.535H149.249V147.21H0.600586V139.535Z" fill="#7F7F7F"/>
<path d="M0.600586 2.78906H149.249V10.4635H0.600586V2.78906Z" fill="#7F7F7F"/>
</svg>
