<svg width="150" height="150" viewBox="0 0 150 150" fill="none" xmlns="http://www.w3.org/2000/svg">
<path d="M16.667 144.792V138.542L19.0694 132.292V121.875H20.5709V132.292L22.9733 138.542V144.792H16.667Z" fill="#4C4C4C" stroke="black" stroke-width="0.790965"/>
<path d="M71.6221 144.792V138.542L74.3248 132.292V121.875H75.526V132.292L78.2287 138.542V144.792H71.6221Z" fill="#4C4C4C" stroke="black" stroke-width="0.790965"/>
<path d="M126.877 144.792V138.542L129.279 132.292V121.875H130.781V132.292L133.183 138.542V144.792H126.877Z" fill="#4C4C4C" stroke="black" stroke-width="0.790965"/>
<path d="M4.50488 89.5833V75H145.346V89.5833H4.50488Z" fill="#CCCCCC"/>
<path d="M4.50488 75.0013V47.918H145.346V75.0013H4.50488Z" fill="#666666"/>
<path d="M1.20117 68.7513L2.10207 54.168L4.50448 47.918L6.60658 54.168L7.50748 68.7513L6.60658 85.418L4.50448 89.5846L2.10207 85.418L1.20117 68.7513Z" fill="#B2B2B2" stroke="black" stroke-width="0.790965"/>
<path d="M142.343 68.7513L143.244 54.168L145.346 47.918L147.748 54.168L148.649 68.7513L147.748 85.418L145.346 89.5846L143.244 85.418L142.343 68.7513Z" fill="#B2B2B2" stroke="black" stroke-width="0.790965"/>
<path d="M50.6003 79.1654V58.332H44.2939V79.1654H50.6003Z" fill="#B2B2B2"/>
<path d="M105.555 79.1654V58.332H99.249V79.1654H105.555Z" fill="#B2B2B2"/>
<path d="M4.50488 47.918H145.346" stroke="white" stroke-width="0.790965"/>
<path d="M4.50488 89.582H145.346" stroke="black" stroke-width="0.790965"/>
<path d="M1.20117 41.6654V14.582H148.649V41.6654H1.20117Z" fill="#CCCCCC" stroke="black" stroke-width="0.790965"/>
<path d="M1.50195 14.582H148.649" stroke="white" stroke-width="0.790965"/>
<path d="M78.2285 29.1654V22.9154L79.1294 20.832L80.0303 22.9154L80.3306 29.1654L80.0303 35.4154L79.1294 37.4987L78.2285 35.4154V29.1654Z" fill="#666666"/>
<path d="M114.715 29.1654L115.015 22.9154L115.916 20.832L116.517 22.9154L117.117 29.1654L116.517 35.4154L115.916 37.4987L115.015 35.4154L114.715 29.1654Z" fill="#666666"/>
<path d="M41.291 29.1654L41.5913 22.9154L42.1919 20.832L43.0928 22.9154L43.6934 29.1654L43.0928 35.4154L42.1919 37.4987L41.5913 35.4154L41.291 29.1654Z" fill="#666666"/>
<path d="M4.50488 29.1654L4.80518 22.9154L5.70608 20.832L6.60698 22.9154L6.90729 29.1654L6.60698 35.4154L5.70608 37.4987L4.80518 35.4154L4.50488 29.1654Z" fill="#666666"/>
<path d="M139.939 68.7487V27.082H141.741V68.7487H139.939Z" fill="#B2B2B2" stroke="black" stroke-width="0.790965"/>
<path d="M129.279 68.7487V27.082H130.781V68.7487H129.279Z" fill="#B2B2B2" stroke="black" stroke-width="0.790965"/>
<path d="M118.619 68.7487V27.082H120.121V68.7487H118.619Z" fill="#B2B2B2" stroke="black" stroke-width="0.790965"/>
<path d="M103.153 68.7487V27.082H104.955V68.7487H103.153Z" fill="#B2B2B2" stroke="black" stroke-width="0.790965"/>
<path d="M92.4922 68.7487V27.082H94.294V68.7487H92.4922Z" fill="#B2B2B2" stroke="black" stroke-width="0.790965"/>
<path d="M81.9824 68.7487V27.082H83.1836V68.7487H81.9824Z" fill="#B2B2B2" stroke="black" stroke-width="0.790965"/>
<path d="M66.667 68.7487V27.082H68.1685V68.7487H66.667Z" fill="#B2B2B2" stroke="black" stroke-width="0.790965"/>
<path d="M55.5557 68.7487V27.082H57.3575V68.7487H55.5557Z" fill="#B2B2B2" stroke="black" stroke-width="0.790965"/>
<path d="M45.1953 68.7487V27.082H46.6968V68.7487H45.1953Z" fill="#B2B2B2" stroke="black" stroke-width="0.790965"/>
<path d="M29.7295 68.7487V27.082H31.231V68.7487H29.7295Z" fill="#B2B2B2" stroke="black" stroke-width="0.790965"/>
<path d="M19.0693 68.7487V27.082H20.5708V68.7487H19.0693Z" fill="#B2B2B2" stroke="black" stroke-width="0.790965"/>
<path d="M8.4082 68.7487V27.082H9.9097V68.7487H8.4082Z" fill="#B2B2B2" stroke="black" stroke-width="0.790965"/>
<path d="M149.25 4.16797V89.5846H147.748V4.16797H149.25Z" fill="#B2B2B2" stroke="black" stroke-width="0.790965"/>
<path d="M112.312 4.16797V89.5846H110.811V4.16797H112.312Z" fill="#B2B2B2" stroke="black" stroke-width="0.790965"/>
<path d="M75.5254 4.16797V89.5846H74.3242V4.16797H75.5254Z" fill="#B2B2B2" stroke="black" stroke-width="0.790965"/>
<path d="M39.0386 4.16797V89.5846H37.5371V4.16797H39.0386Z" fill="#B2B2B2" stroke="black" stroke-width="0.790965"/>
<path d="M2.10209 4.16797V89.5846H0.600586V4.16797H2.10209Z" fill="#B2B2B2" stroke="black" stroke-width="0.790965"/>
<path d="M1.20117 121.876V94.793H148.649V121.876H1.20117Z" fill="#B2B2B2" stroke="black" stroke-width="0.790965"/>
<path d="M4.50488 89.582V94.7904H145.346V89.582H4.50488Z" fill="black"/>
<path d="M148.649 126.043V41.668H139.039V126.043H148.649Z" fill="#7F7F7F" stroke="black" stroke-width="0.790965"/>
<path d="M139.039 105.21L132.882 117.71V126.043H118.018L116.216 117.71V52.0846L118.018 41.668H132.882V52.0846L139.039 62.5013V105.21Z" fill="#7F7F7F"/>
<path d="M139.039 101.04L132.882 107.29V117.707H118.018L116.216 107.29V60.4154L118.018 52.082H132.882V60.4154L139.039 68.7487V101.04Z" fill="#B2B2B2"/>
<path d="M139.039 89.5833L132.882 93.75V94.7917H118.018L116.216 93.75V77.0833L118.018 75H132.882V77.0833L139.039 79.1667V89.5833Z" fill="#E5E5E5"/>
<path d="M139.039 105.21L132.882 117.71V126.043H118.018L116.216 117.71V52.0846L118.018 41.668H132.882V52.0846L139.039 62.5013V105.21Z" stroke="black" stroke-width="0.790965"/>
<path d="M132.883 117.707V52.082" stroke="black" stroke-width="0.790965"/>
<path d="M118.018 126.043V41.668" stroke="black" stroke-width="0.790965"/>
<path d="M131.682 126.043V41.668" stroke="black" stroke-width="0.790965"/>
<path d="M142.343 94.793L142.643 87.5013L143.844 85.418L145.045 87.5013L145.346 94.793L145.045 103.126L143.844 105.21L142.643 103.126L142.343 94.793Z" fill="black"/>
<path d="M146.847 62.4987V52.082H140.841V62.4987H146.847Z" fill="#7F5959"/>
<path d="M125.375 126.042V75H119.219V126.042H125.375Z" fill="#7F7F7F" stroke="black" stroke-width="0.790965"/>
<path d="M119.219 126.042V75H125.375" stroke="white" stroke-width="0.790965"/>
<path d="M140.841 113.542V75H146.847" stroke="white" stroke-width="0.790965"/>
<path d="M139.039 126.043V41.668H148.649" stroke="white" stroke-width="0.790965"/>
<path d="M3.00293 68.7487L3.30323 60.4154L4.50443 58.332L5.70563 60.4154L6.00593 68.7487L5.70563 77.082L4.50443 79.1654L3.30323 77.082L3.00293 68.7487Z" fill="black"/>
</svg>
