<svg width="150" height="150" viewBox="0 0 150 150" fill="none" xmlns="http://www.w3.org/2000/svg">
<g clip-path="url(#clip0_2914_167942)">
<mask id="mask0_2914_167942" style="mask-type:luminance" maskUnits="userSpaceOnUse" x="0" y="0" width="150" height="150">
<path d="M150 0H0V150H150V0Z" fill="white"/>
</mask>
<g mask="url(#mask0_2914_167942)">
<path d="M124.925 69.8359H150V80.1638H124.925V69.8359Z" fill="#666666" stroke="black" stroke-width="0.313782"/>
<path d="M124.925 73.2812H150V76.724H124.925V73.2812Z" fill="#CCCCCC"/>
<path d="M0 122.785V27.2109H6.15616V34.0962H118.619V27.2109H124.925V122.785H118.619V115.899H6.15616V122.785H0Z" fill="#8C8C8C"/>
<path d="M134.385 27.2109H140.541V122.785H134.385V27.2109Z" fill="#8C8C8C" stroke="black" stroke-width="0.313782"/>
<path d="M134.385 37.375H140.541V112.457H134.385V37.375Z" fill="#999999"/>
<path d="M0 112.457V37.375H6.15616V42.7848H118.619V37.375H124.925V112.457H118.619V107.211H6.15616V112.457H0Z" fill="#999999"/>
<path d="M134.385 47.7031H140.541V102.293H134.385V47.7031Z" fill="#A6A6A6"/>
<path d="M0 102.293V47.7031H6.15616V51.6376H118.619V47.7031H124.925V102.293H118.619V98.3589H6.15616V102.293H0Z" fill="#A6A6A6"/>
<path d="M134.385 51.1484H140.541V98.8534H134.385V51.1484Z" fill="#B2B2B2"/>
<path d="M0 98.8534V51.1484H6.15616V54.5911H118.619V51.1484H124.925V98.8534H118.619V95.4107H6.15616V98.8534H0Z" fill="#B2B2B2"/>
<path d="M134.385 64.7578H140.541V85.2496H134.385V64.7578Z" fill="#BFBFBF"/>
<path d="M0 85.2496V64.7578H6.15616V66.2332H118.619V64.7578H124.925V85.2496H118.619V83.7742H6.15616V85.2496H0Z" fill="#BFBFBF"/>
<path d="M0 122.785V27.2109H6.15616V34.0962H118.619V27.2109H124.925V122.785H118.619V115.899H6.15616V122.785H0Z" stroke="black" stroke-width="0.313782"/>
<path d="M59.3096 115.905V34.1016" stroke="#7F7F7F" stroke-width="0.313782"/>
<path d="M0 61.4766H124.925" stroke="#7F7F7F" stroke-width="0.313782"/>
<path d="M78.078 115.898V143.275H74.9248V149.996H118.618V143.275H115.465L115.615 115.898L114.715 109.832L112.312 104.423L108.709 100.16L104.054 97.0457L98.7987 95.5703L96.8467 95.4062L91.2912 96.39L86.3362 99.0129L82.4323 102.947L79.5795 108.029L78.2281 113.767L78.078 115.898Z" fill="#8C8C8C"/>
<path d="M46.8469 34.0984V6.72131H50.0001V0H6.15625V6.72131H9.3094V34.0984L10.0602 40.1639L12.4626 45.5738L16.0662 49.8361L20.7208 52.9508L26.1262 54.4262L28.0782 54.5902L33.6337 53.6066L38.5887 50.9836L42.4926 47.0492L45.3454 41.9672L46.6968 36.0656L46.8469 34.0984Z" fill="#8C8C8C"/>
<path d="M82.1326 115.898V143.275H79.5801V149.996H113.964V143.275H111.562V115.898L110.811 109.832L109.01 104.423L106.157 100.16L102.553 97.0457L98.3488 95.5703L96.8473 95.4062L92.493 96.39L88.5891 99.0129L85.4359 102.947L83.1837 108.029L82.1326 113.767V115.898Z" fill="#999999"/>
<path d="M42.7925 34.0984V6.72131H45.1949V0H10.8105V6.72131H13.2129V34.0984L13.9637 40.1639L15.7655 45.5738L18.6184 49.8361L22.3721 52.9508L26.5763 54.4262L28.0778 54.5902L32.4322 53.6066L36.3361 50.9836L39.4892 47.0492L41.5913 41.9672L42.6424 36.0656L42.7925 34.0984Z" fill="#999999"/>
<path d="M87.3872 115.898V143.275H85.8857V149.996H107.808V143.275H106.156V115.898L105.706 109.832L104.504 104.423L102.703 100.16L99.6996 96.39L96.8467 95.4062L92.3422 97.8654L89.6395 102.947L88.138 108.029L87.5374 113.767L87.3872 115.898Z" fill="#B2B2B2"/>
<path d="M37.3875 34.0984V6.72131H39.0391V0H17.1172V6.72131H18.6187V34.0984L19.0691 40.1639L20.2703 45.5738L22.0721 49.8361L25.2253 53.6066L28.0781 54.5902L32.5827 52.1311L35.2854 47.0492L36.6367 41.9672L37.3875 36.0656V34.0984Z" fill="#B2B2B2"/>
<path d="M92.7927 115.898V143.275H92.042V149.996H101.501V143.275H100.751V113.767L100.45 108.029L99.9999 102.947L98.7987 97.8654L97.2972 95.5703L96.8468 95.4062L96.3963 95.5703L94.2942 100.16L93.2432 106.226L92.9429 111.8L92.7927 115.898Z" fill="#BFBFBF"/>
<path d="M32.1323 34.0984V6.72131H32.7329V0H23.2734V6.72131H24.0242V36.0656L24.3245 41.9672L24.9251 47.0492L26.1263 52.1311L27.6278 54.4262L28.0782 54.5902L28.3785 54.4262L30.6308 49.8361L31.5317 43.7705L31.9821 38.1967L32.1323 34.0984Z" fill="#BFBFBF"/>
<path d="M0 68.1953H124.925" stroke="black" stroke-width="0.313782"/>
<path d="M118.619 115.905V34.1016" stroke="black" stroke-width="0.313782"/>
<path d="M6.15625 115.905V34.1016" stroke="black" stroke-width="0.313782"/>
<path d="M65.6152 115.905V34.1016" stroke="black" stroke-width="0.313782"/>
<path d="M115.616 143.281H78.0781" stroke="black" stroke-width="0.313782"/>
<path d="M9.30957 6.71875H46.8471" stroke="black" stroke-width="0.313782"/>
<path d="M78.078 115.898V143.275H74.9248V149.996H118.618V143.275H115.465L115.615 115.898L114.715 109.832L112.312 104.423L108.709 100.16L104.054 97.0457L98.7987 95.5703L96.8467 95.4062L91.2912 96.39L86.3362 99.0129L82.4323 102.947L79.5795 108.029L78.2281 113.767L78.078 115.898Z" stroke="black" stroke-width="0.313782"/>
<path d="M46.8469 34.0984V6.72131H50.0001V0H6.15625V6.72131H9.3094V34.0984L10.0602 40.1639L12.4626 45.5738L16.0662 49.8361L20.7208 52.9508L26.1262 54.4262L28.0782 54.5902L33.6337 53.6066L38.5887 50.9836L42.4926 47.0492L45.3454 41.9672L46.6968 36.0656L46.8469 34.0984Z" stroke="black" stroke-width="0.313782"/>
<path d="M50 51.1484H56.1562V57.8697H50V51.1484Z" fill="#8C8C8C"/>
<path d="M9.30957 51.1484H15.6159V57.8697H9.30957V51.1484Z" fill="#8C8C8C"/>
<path d="M9.30957 78.3594H15.6159V85.2446H9.30957V78.3594Z" fill="#8C8C8C"/>
<path d="M50 78.3594H56.1562V85.2446H50V78.3594Z" fill="#8C8C8C"/>
<path d="M68.7686 51.1484H74.9247V57.8697H68.7686V51.1484Z" fill="#8C8C8C"/>
<path d="M68.7686 78.3594H74.9247V85.2446H68.7686V78.3594Z" fill="#8C8C8C"/>
<path d="M109.31 51.1484H115.616V57.8697H109.31V51.1484Z" fill="#8C8C8C"/>
<path d="M109.31 78.3594H115.616V85.2446H109.31V78.3594Z" fill="#8C8C8C"/>
</g>
</g>
<defs>
<clipPath id="clip0_2914_167942">
<rect width="150" height="150" fill="white"/>
</clipPath>
</defs>
</svg>
