<svg width="150" height="150" viewBox="0 0 150 150" fill="none" xmlns="http://www.w3.org/2000/svg">
<g clip-path="url(#clip0_2109_241669)">
<path d="M97.8977 126.23L83.3331 130.011H68.168L53.4533 126.23L40.3902 118.847L29.5794 108.583L22.0719 95.7974L18.168 81.7518V66.9859L22.0719 52.9402L29.5794 40.1551L40.3902 29.891L53.4533 22.5081L68.168 18.7266H83.3331L97.8977 22.5081L110.961 29.891L121.772 40.1551L129.279 52.9402L133.333 66.9859V81.7518L129.429 95.7974L121.772 108.583L110.961 118.847L97.8977 126.23Z" stroke="black" stroke-width="0.328864"/>
<path d="M137.537 150L140.24 144.598L142.042 139.736L143.693 133.794L145.195 127.311L146.546 120.108L147.297 115.066L148.048 109.664L148.498 104.262L149.099 98.4994L149.399 92.7371L149.699 86.6146L149.849 80.4922L150 77.611V74.3697L149.849 68.4274L149.699 62.485L149.549 56.7227L149.099 50.9604L148.648 45.5582L148.048 39.976L147.447 34.934L146.696 29.892L145.946 25.03L144.444 18.3673L143.093 12.425L141.291 7.02281L139.489 2.52101L138.138 0" stroke="black" stroke-width="0.328864"/>
<path d="M12.3123 150L9.60961 144.598L7.80781 139.736L6.15616 133.794L4.65465 127.311L3.3033 120.108L2.55255 115.066L1.8018 109.664L1.35135 104.262L0.750751 98.4994L0.45045 92.7371L0.15015 86.6146L0 80.4922V77.611V74.3697V68.4274L0.15015 62.485L0.3003 56.7227L0.750751 50.9604L1.2012 45.5582L1.8018 39.976L2.4024 34.934L3.15315 29.892L3.9039 25.03L5.40541 18.3673L6.75676 12.425L8.55856 7.02281L10.3604 2.52101L11.7117 0" stroke="black" stroke-width="0.328864"/>
</g>
<defs>
<clipPath id="clip0_2109_241669">
<rect width="150" height="150" fill="white"/>
</clipPath>
</defs>
</svg>
