<svg width="150" height="150" viewBox="0 0 150 150" fill="none" xmlns="http://www.w3.org/2000/svg">
<g clip-path="url(#clip0_2109_241181)">
<path d="M0 125.375V150" stroke="black" stroke-width="0.321241"/>
<path d="M0 1.05469V26.1298" stroke="black" stroke-width="0.321241"/>
<path d="M0 26.125L5.15464 26.7256L9.79381 29.5785L12.7148 33.4824L13.5739 38.137L12.7148 43.3923L9.79381 47.2962L5.15464 49.9989L0 50.5995L5.15464 51.9508L9.79381 54.6535L12.7148 58.5574L13.5739 63.2121L12.7148 67.8667L9.79381 71.9208L5.15464 74.4733L0 75.8247L5.15464 76.4253L9.79381 79.128L12.7148 83.0319L13.5739 87.6866L12.7148 93.092L9.79381 96.9959L5.15464 99.5484L0 100.299L5.15464 101.651L9.79381 104.203L12.7148 108.257L13.5739 112.912L12.7148 117.416L9.79381 121.47L5.15464 124.173L0 125.374" stroke="black" stroke-width="0.321241"/>
<path d="M150 124.328V148.803" stroke="black" stroke-width="0.321241"/>
<path d="M150 0V25.0751" stroke="black" stroke-width="0.321241"/>
<path d="M150 25.0781L144.673 25.6787L140.034 28.3814L137.113 32.4355L136.426 36.94L137.113 42.3454L140.034 46.2493L144.673 48.952L150 49.5526L144.673 50.904L140.034 53.4565L137.113 57.5106L136.426 62.1652L137.113 66.8199L140.034 70.7238L144.673 73.4265L150 74.7778L144.673 75.3784L140.034 77.931L137.113 81.985L136.426 86.6397L137.113 91.8949L140.034 95.949L144.673 98.5015L150 99.2523L144.673 100.454L140.034 103.156L137.113 107.06L136.426 111.715L137.113 116.369L140.034 120.273L144.673 123.126L150 124.327" stroke="black" stroke-width="0.321241"/>
<path d="M44.8457 39.6406H102.921" stroke="black" stroke-width="0.321241"/>
<path d="M45.0176 39.4922V126.279" stroke="black" stroke-width="0.321241"/>
<path d="M45.0176 79.5781H96.7358" stroke="black" stroke-width="0.321241"/>
</g>
<defs>
<clipPath id="clip0_2109_241181">
<rect width="150" height="150" fill="white"/>
</clipPath>
</defs>
</svg>
