<svg width="150" height="150" viewBox="0 0 150 150" fill="none" xmlns="http://www.w3.org/2000/svg">
<g clip-path="url(#clip0_2109_241214)">
<path d="M150 150H0L4.71074 146.547L9.42149 142.042L13.6364 136.637L16.3636 132.583L18.843 128.228L21.0744 123.423L23.0579 118.468L24.7934 113.213L26.5289 107.658L27.7686 101.802L29.0083 95.9459L29.7521 89.7898L30.2479 83.4835L30.7438 77.027V70.8709L30.4959 65.015L30 59.1592L29.2562 53.3033L28.2645 47.7477L27.0248 42.3423L25.5372 36.9369L24.0496 31.982L22.314 27.1772L20.0826 22.5225L18.0992 18.1682L15.6198 14.1141L13.1405 10.3604L9.17355 5.40541L4.71074 1.2012L3.22314 0H145.537L144.05 1.05105L139.587 5.25526L135.62 10.2102L133.14 13.964L130.661 18.018L128.43 22.2222L126.446 26.8769L124.711 31.6817L123.223 36.7868L121.736 42.042L120.496 47.4474L119.504 53.003L118.76 58.8589L118.264 64.5646L118.017 70.5706V76.8769L118.264 83.3333L119.008 89.6396L119.752 95.7958L120.992 101.802L122.231 107.658L123.967 113.363L125.95 118.619L127.934 123.724L130.413 128.529L132.893 132.883L135.62 136.937L138.595 140.541L143.306 145.345L148.264 148.949L150 150Z" stroke="black" stroke-width="0.385888"/>
</g>
<defs>
<clipPath id="clip0_2109_241214">
<rect width="150" height="150" fill="white"/>
</clipPath>
</defs>
</svg>
