<svg width="150" height="150" viewBox="0 0 150 150" fill="none" xmlns="http://www.w3.org/2000/svg">
<g clip-path="url(#clip0_2109_241367)">
<path d="M16.6667 149.794C25.8714 149.794 33.3333 139.693 33.3333 127.233C33.3333 114.773 25.8714 104.672 16.6667 104.672C7.46192 104.672 0 114.773 0 127.233C0 139.693 7.46192 149.794 16.6667 149.794Z" stroke="black" stroke-width="0.34939"/>
<path d="M133.183 149.794C142.388 149.794 149.85 139.693 149.85 127.233C149.85 114.773 142.388 104.672 133.183 104.672C123.979 104.672 116.517 114.773 116.517 127.233C116.517 139.693 123.979 149.794 133.183 149.794Z" stroke="black" stroke-width="0.34939"/>
<path d="M16.667 93.6992L17.8682 88.0081L19.0694 82.7236L21.3216 72.3577L23.5739 62.8049L25.676 53.8618L27.9283 45.7317L30.3307 38.0081L32.8832 31.0976L35.7361 25L38.7391 19.3089L42.1925 14.6341L46.2466 10.3659L50.6009 6.91057L55.5559 4.06504L61.2616 2.03252L67.5679 0.609756L74.625 0L78.2286 0.203252L84.685 1.21951L90.5409 3.04878L95.7961 5.4878L100.451 8.73984L104.655 12.6016L108.259 17.0732L111.712 22.561L114.565 28.4553L117.268 34.9593L119.82 42.2764L122.223 50.4065L124.475 58.9431L126.727 68.2927L128.979 78.252L130.03 83.5366L131.232 88.8211L132.433 94.3089" stroke="black" stroke-width="0.34939"/>
</g>
<defs>
<clipPath id="clip0_2109_241367">
<rect width="150" height="150" fill="white"/>
</clipPath>
</defs>
</svg>
