<svg width="150" height="150" viewBox="0 0 150 150" fill="none" xmlns="http://www.w3.org/2000/svg">
<g clip-path="url(#clip0_2109_241275)">
<path d="M80.0298 150.003H80.3301L90.24 144.918L89.6394 140.398L79.7295 145.483H80.0298V150.003Z" fill="black"/>
<path d="M69.5195 149.996H69.8198H80.03V145.477H69.8198H70.1201L69.5195 149.996Z" fill="black"/>
<path d="M59.3096 144.918H59.6099L69.5198 150.003L70.1204 145.483L60.2105 140.398L60.5108 140.963L59.3096 144.918Z" fill="black"/>
<path d="M50.6011 135.314L59.3098 144.919L60.511 140.964L51.8023 131.359H52.1026L50.3008 134.749H50.6011V135.314Z" fill="black"/>
<path d="M42.793 120.622L43.0933 121.187L50.3005 134.746L52.1023 131.356L44.8951 117.797L45.1954 118.362L42.793 120.622Z" fill="black"/>
<path d="M37.6875 103.671V104.236L42.7926 120.621L45.195 118.361L40.0899 101.977V102.542L37.6875 103.671Z" fill="black"/>
<path d="M34.9854 84.4634V85.0284L37.6881 103.672L40.0905 102.543L37.3878 83.8984V84.4634H34.9854Z" fill="black"/>
<path d="M34.9854 64.6875V65.2525V84.4615H37.3878V65.2525V65.8174L34.9854 64.6875Z" fill="black"/>
<path d="M37.6881 45.4766V46.0415L34.9854 64.6856L37.3878 65.8155L40.0905 47.1715V47.7364L37.6881 45.4766Z" fill="black"/>
<path d="M42.7926 29.0962L37.6875 45.4804L40.0899 47.7403L45.195 31.3561L44.8947 31.9211L43.0929 28.5312V29.0962H42.7926Z" fill="black"/>
<path d="M50.6003 14.4062L50.3 14.9712L43.0928 28.5305L44.8946 31.9204L52.1018 18.3611H51.8015L50.6003 14.4062Z" fill="black"/>
<path d="M59.6096 4.80469H59.3093L50.6006 14.4092L51.8018 18.364L60.5105 8.75949L60.2102 9.32446L59.6096 4.80469Z" fill="black"/>
<path d="M69.8196 0H69.5193L59.6094 4.80226L60.21 9.32203L70.1199 4.23729H69.8196V0Z" fill="black"/>
<path d="M80.3298 0H80.0295H69.8193V4.23729H80.0295H79.7292L80.3298 0Z" fill="black"/>
<path d="M90.24 4.80226L80.3301 0L79.7295 4.23729L89.6394 9.32203L89.3391 8.75706L90.8406 4.80226H90.5403H90.24Z" fill="black"/>
<path d="M99.2498 14.4092L90.8413 4.80469L89.3398 8.75949L98.0486 18.364H97.7483L99.5501 14.9742V14.4092H99.2498Z" fill="black"/>
<path d="M107.057 29.093L106.757 28.5281L99.5498 14.9688L97.748 18.3586L104.955 31.9179V31.3529L107.057 29.093Z" fill="black"/>
<path d="M112.162 46.0429V45.4779L107.057 29.0938L104.955 31.3536L110.06 47.7378L109.76 47.1728L112.162 46.0429Z" fill="black"/>
<path d="M114.865 64.6909L112.162 46.0469L109.76 47.1768L112.462 65.8209V65.2559H115.165V64.6909H114.865Z" fill="black"/>
<path d="M115.166 84.4669V65.2578H112.463V84.4669V83.9019L114.865 85.0318H115.166V84.4669Z" fill="black"/>
<path d="M112.163 104.237V103.672L114.865 85.0284L112.463 83.8984L110.061 102.543V101.978L112.163 104.237Z" fill="black"/>
<path d="M107.057 120.621L112.162 104.236L110.06 101.977L104.955 118.361V117.796L106.757 121.186H107.057V120.621Z" fill="black"/>
<path d="M99.2495 135.311L99.5498 134.746L106.757 121.187L104.955 117.797L97.748 131.356H98.0483L99.2495 135.311Z" fill="black"/>
<path d="M90.8413 144.919L99.2498 135.314L98.0486 131.359L89.3398 140.964L89.6401 140.399L90.2407 144.919H90.541H90.8413Z" fill="black"/>
<path d="M0 26.2734H44.8949V29.6633H0V26.2734Z" fill="black" stroke="black" stroke-width="0.411899"/>
<path d="M0 118.929V27.9688H1.5015V118.929H0Z" fill="black" stroke="black" stroke-width="0.411899"/>
<path d="M0 118.93H44.8949V122.32H0V118.93Z" fill="black" stroke="black" stroke-width="0.411899"/>
<path d="M150 26.8359H104.955V29.6608H150V26.8359Z" fill="black" stroke="black" stroke-width="0.411899"/>
<path d="M150 120.624V27.9688H148.349V120.624H150Z" fill="black" stroke="black" stroke-width="0.411899"/>
<path d="M150 119.492H104.955V122.317H150V119.492Z" fill="black" stroke="black" stroke-width="0.411899"/>
</g>
<defs>
<clipPath id="clip0_2109_241275">
<rect width="150" height="150" fill="white"/>
</clipPath>
</defs>
</svg>
