<svg width="150" height="150" viewBox="0 0 150 150" fill="none" xmlns="http://www.w3.org/2000/svg">
<g clip-path="url(#clip0_2109_241379)">
<path d="M19.6694 8.33333L19.3691 7.69231L23.5733 12.8205L24.0238 5.12821L19.9697 0H19.8196H19.6694V8.33333Z" fill="black"/>
<path d="M15.4658 7.69231L15.1655 8.33333H19.67V0H15.1655H15.0154H14.8652L15.4658 7.69231Z" fill="black"/>
<path d="M11.5618 12.8205H11.2615L15.4657 7.69231L14.8651 0L10.811 5.12821H10.6609H10.5107L11.5618 12.8205Z" fill="black"/>
<path d="M8.10819 22.4327H7.95804L11.5616 12.8173L10.5106 5.125L6.90699 15.3814V16.0224H6.75684L8.10819 22.4327Z" fill="black"/>
<path d="M4.95536 33.9722L4.80521 35.2542L8.10852 22.4337L6.75716 16.0234L3.60401 28.844H3.45386L3.30371 29.485L4.95536 33.9722Z" fill="black"/>
<path d="M2.85308 48.0741L2.70293 49.3562L4.95518 33.9716L3.30353 29.4844L0.901127 44.869V45.51L0.750977 46.151L2.85308 48.0741Z" fill="black"/>
<path d="M1.95195 66.028V66.6691L2.85285 48.0793L0.750751 46.1562L0 65.387V66.028H1.95195Z" fill="black"/>
<path d="M1.95195 83.3311V83.9722V66.0234H0V83.9722V84.6132L1.95195 83.3311Z" fill="black"/>
<path d="M2.7027 100.644L2.85285 101.926L1.95195 83.3359L0 84.618L0.750751 103.849L0.900901 104.49V105.131L2.7027 100.644Z" fill="black"/>
<path d="M4.80429 114.743L4.95444 116.025L2.70219 100.641L0.900391 105.128L3.30279 120.512L3.45294 121.153H3.60309L4.80429 114.743Z" fill="black"/>
<path d="M7.95787 127.563H8.10802L4.80472 114.742L3.60352 121.152L6.75667 133.973H6.90682V134.614L7.95787 127.563Z" fill="black"/>
<path d="M11.2616 137.178H11.5619L7.95828 127.562L6.90723 134.614L10.5108 144.87H10.661H10.8111L11.2616 137.178Z" fill="black"/>
<path d="M15.1649 141.667L15.4652 142.308L11.261 137.18L10.8105 144.872L14.8646 150H15.0148H15.1649V141.667Z" fill="black"/>
<path d="M19.3692 142.305L19.6695 141.664H15.165V149.997H19.6695H19.8197H19.9698L19.3692 142.305Z" fill="black"/>
<path d="M23.273 137.18H23.5733L19.3691 142.308L19.9697 150L24.0238 144.872H24.1739H24.3241L23.273 137.18Z" fill="black"/>
<path d="M26.7269 127.562H26.877L23.2734 137.178L24.3245 144.87L27.9281 134.614V133.973H28.0782L26.7269 127.562Z" fill="black"/>
<path d="M29.8797 116.024L30.0299 114.742L26.7266 127.563L28.0779 133.973L31.2311 121.152H31.3812L31.5314 120.511L29.8797 116.024Z" fill="black"/>
<path d="M31.8318 101.923V100.641L29.8799 116.025L31.5315 120.512L33.6336 105.128V104.487V103.846L31.8318 101.923Z" fill="black"/>
<path d="M32.8831 83.9774L33.0332 82.6953L31.832 101.926L33.6338 103.849L34.835 85.2594L34.9852 84.6184V83.9774H32.8831Z" fill="black"/>
<path d="M33.033 67.3063L32.8828 66.0242V83.973H34.9849V66.0242V65.3832L34.8348 64.7422L33.033 67.3063Z" fill="black"/>
<path d="M31.832 49.3622V48.0801L33.0332 67.3109L34.835 64.7468L33.6338 46.1571V45.516V44.875L31.832 49.3622Z" fill="black"/>
<path d="M30.03 35.254L29.8799 33.972L31.8318 49.3566L33.6336 44.8694L31.5315 29.4848L31.3814 28.8438H31.2312L30.03 35.254Z" fill="black"/>
<path d="M26.8767 22.4341H26.7266L30.0299 35.2546L31.2311 28.8444L28.0779 16.0238H27.9278V15.3828L26.8767 22.4341Z" fill="black"/>
<path d="M23.5737 12.8173H23.2734L26.877 22.4327L27.9281 15.3814L24.3245 5.125H24.1743H24.0242L23.5737 12.8173Z" fill="black"/>
<path d="M134.685 8.33333L134.385 7.69231L138.589 12.8205L139.039 5.12821L134.985 0H134.835H134.685V8.33333Z" fill="black"/>
<path d="M130.48 7.69231L130.18 8.33333H134.685V0H130.18H130.03H129.88L130.48 7.69231Z" fill="black"/>
<path d="M126.576 12.8205H126.276L130.48 7.69231L129.88 0L125.826 5.12821H125.676H125.525L126.576 12.8205Z" fill="black"/>
<path d="M123.123 22.4327H122.973L126.576 12.8173L125.525 5.125L121.922 15.3814V16.0224H121.771L123.123 22.4327Z" fill="black"/>
<path d="M119.97 33.9722L119.82 35.2542L123.123 22.4337L121.772 16.0234L118.619 28.844H118.469L118.318 29.485L119.97 33.9722Z" fill="black"/>
<path d="M118.018 48.0741V49.3562L119.97 33.9716L118.318 29.4844L116.216 44.869V45.51V46.151L118.018 48.0741Z" fill="black"/>
<path d="M116.967 66.028L116.817 67.3101L118.018 48.0793L116.217 46.1562L115.015 64.746L114.865 65.387V66.028H116.967Z" fill="black"/>
<path d="M116.817 82.6901L116.967 83.9722V66.0234H114.865V83.9722V84.6132L115.015 85.2542L116.817 82.6901Z" fill="black"/>
<path d="M118.018 100.644V101.926L116.816 82.6953L115.015 85.2594L116.216 103.849V104.49V105.131L118.018 100.644Z" fill="black"/>
<path d="M119.819 114.743L119.97 116.025L118.018 100.641L116.216 105.128L118.318 120.512L118.468 121.153H118.618L119.819 114.743Z" fill="black"/>
<path d="M122.973 127.563H123.124L119.82 114.742L118.619 121.152L121.772 133.973H121.922V134.614L122.973 127.563Z" fill="black"/>
<path d="M126.276 137.178H126.577L122.973 127.562L121.922 134.614L125.525 144.87H125.676H125.826L126.276 137.178Z" fill="black"/>
<path d="M130.181 141.667L130.481 142.308L126.277 137.18L125.826 144.872L129.88 150H130.03H130.181V141.667Z" fill="black"/>
<path d="M134.384 142.305L134.684 141.664H130.18V149.997H134.684H134.834H134.984L134.384 142.305Z" fill="black"/>
<path d="M138.289 137.18H138.589L134.385 142.308L134.985 150L139.039 144.872H139.19H139.34L138.289 137.18Z" fill="black"/>
<path d="M141.742 127.562H141.892L138.288 137.178L139.339 144.87L142.943 134.614V133.973H143.093L141.742 127.562Z" fill="black"/>
<path d="M144.895 116.024L145.045 114.742L141.742 127.563L143.094 133.973L146.247 121.152H146.397L146.547 120.511L144.895 116.024Z" fill="black"/>
<path d="M146.997 101.923L147.147 100.641L144.895 116.025L146.546 120.512L148.949 105.128V104.487L149.099 103.846L146.997 101.923Z" fill="black"/>
<path d="M147.898 83.977V83.3359L146.997 101.926L149.099 103.849L150 84.618V83.977H147.898Z" fill="black"/>
<path d="M147.897 66.6649V66.0238V83.9726H150V66.0238V65.3828L147.897 66.6649Z" fill="black"/>
<path d="M147.147 49.3622L146.997 48.0801L147.898 66.6699L150 65.3878L149.099 46.1571L148.949 45.516V44.875L147.147 49.3622Z" fill="black"/>
<path d="M145.045 35.254L144.895 33.972L147.147 49.3566L148.949 44.8694L146.546 29.4848L146.396 28.8438H146.246L145.045 35.254Z" fill="black"/>
<path d="M141.892 22.4341H141.742L145.045 35.2546L146.247 28.8444L143.094 16.0238H142.943V15.3828L141.892 22.4341Z" fill="black"/>
<path d="M138.588 12.8173H138.288L141.892 22.4327L142.943 15.3814L139.339 5.125H139.189H139.039L138.588 12.8173Z" fill="black"/>
<path d="M34.2344 79.49H114.865V70.5156H34.2344V79.49Z" fill="black" stroke="black" stroke-width="0.620484"/>
</g>
<defs>
<clipPath id="clip0_2109_241379">
<rect width="150" height="150" fill="white"/>
</clipPath>
</defs>
</svg>
