<svg width="150" height="150" viewBox="0 0 150 150" fill="none" xmlns="http://www.w3.org/2000/svg">
<g clip-path="url(#clip0_2109_241646)">
<path d="M103.754 144.843L84.6847 150H65.1652L46.0961 144.843L29.1291 134.833L15.1652 120.728L5.25526 103.893L0 84.6309V64.9141L5.25526 45.9555L15.1652 28.817L29.1291 15.0152L46.0961 5.00506L65.1652 0H84.6847L103.754 5.00506L120.721 15.0152L134.685 28.817L144.595 45.9555L150 64.9141V84.6309L144.595 103.893L134.685 120.728L120.721 134.833L103.754 144.843Z" stroke="black" stroke-width="0.301815"/>
<path d="M22.2227 128.01L127.628 21.5391" stroke="black" stroke-width="0.301815"/>
<path d="M3.30371 96.6152L95.6461 3.1875" stroke="black" stroke-width="0.301815"/>
<path d="M54.9551 146.509L146.847 53.6875" stroke="black" stroke-width="0.301815"/>
</g>
<defs>
<clipPath id="clip0_2109_241646">
<rect width="150" height="150" fill="white"/>
</clipPath>
</defs>
</svg>
