<svg width="150" height="150" viewBox="0 0 150 150" fill="none" xmlns="http://www.w3.org/2000/svg">
<g clip-path="url(#clip0_2109_241555)">
<path d="M73.4238 75.8902L74.3247 83.2506L75.3758 90.3572L76.7271 97.21L78.2286 103.555L79.8803 109.647L83.7842 120.814L88.2887 130.459L93.3938 138.581L98.7992 144.418L104.655 148.479L110.511 150.002H113.664L119.67 147.971L125.676 143.403L131.382 135.789L134.084 130.966L136.787 125.383L139.34 119.037L141.592 112.185L143.994 104.317L146.097 95.6872L148.048 86.2963L150 76.144L146.997 74.875L145.346 84.7735L143.394 93.9105L141.292 102.286L139.039 109.647L136.787 116.499L134.385 122.337L129.28 131.982L124.175 138.834L118.769 143.149L113.364 144.926L107.958 144.418L102.703 142.134L97.598 137.565L92.7932 130.966L88.2887 122.845L84.3848 112.946L80.9313 101.525L79.58 95.4334L78.2286 88.8344L77.1776 81.9816L76.4268 75.1288L73.4238 75.8902Z" fill="#0000FF"/>
<path d="M2.85285 76.1421L4.65465 65.9899L6.45646 56.599L8.55856 47.9695L10.8108 40.3553L13.2132 33.7563L15.6156 27.665L20.7207 17.7665L25.976 10.9137L31.3814 6.59899L36.9369 4.82234L42.3423 5.32995L47.5976 8.12183L52.7027 12.6904L57.6577 19.2893L62.012 27.665L65.9159 37.5635L69.2192 48.9848L70.5706 55.33L71.7718 61.9289L72.6727 68.5279L73.4234 75.8883L76.4264 75.1269L75.5255 67.5127L74.6246 60.4061L73.4234 53.8071L72.0721 47.2081L70.4204 41.1168L66.5165 29.6954L62.1622 19.797L57.0571 11.9289L51.6517 5.83756L45.7958 1.52284L39.7898 0H36.6366L30.4805 2.03046L24.4745 6.59899L18.6186 14.2132L15.9159 19.0355L13.2132 24.6193L10.6607 30.9645L8.25826 38.0711L5.85586 45.9391L3.75375 54.8223L1.8018 64.467L0 74.8731L2.85285 76.1421Z" fill="#0000FF"/>
<path d="M107.508 75.3807V75.1269L106.607 67.5127L105.556 60.4061L104.355 53.5533L102.853 46.9543L101.201 40.8629L99.3996 34.7716L95.0453 24.3655L90.2405 15.4822L84.9852 8.37564L79.2795 3.29949L73.2735 0.507614L70.2705 0H67.1174L60.9612 2.03046L54.805 7.1066L48.9492 14.467L46.2465 19.2893L43.5438 25.1269L40.8411 31.4721L38.4387 38.5787L36.1864 46.4467L33.9342 55.0761L31.9822 64.7208L30.0303 75.1269L32.8831 76.3959L34.6849 66.2437L36.6369 57.1066L38.8891 48.731L40.9912 40.8629L43.3936 34.0102L45.796 27.9188L51.0513 18.2741L56.3065 11.1675L61.8621 6.85279L67.2675 5.07614L72.8231 5.58376L78.2285 8.12183L83.3336 12.6904L88.2885 19.0355L92.793 27.4112L96.6969 37.3096L100.15 48.9848L101.502 55.33L102.703 61.6751L103.754 68.5279L104.505 75.8883V75.6345L107.508 75.3807Z" fill="#FF0000"/>
<path d="M149.4 141.373L147.298 141.119L145.196 140.611L143.244 139.85L141.142 139.088L139.19 138.073L137.388 137.058L135.436 135.789L133.634 134.774L131.832 133.251L130.03 131.728L128.379 129.951L126.727 128.175L125.075 126.398L123.574 124.368L122.072 122.337L120.571 120.053L119.37 117.769L118.018 115.484L116.667 112.946L115.466 110.408L114.415 107.87L113.364 105.332L112.463 102.54L111.562 99.7483L110.661 96.7026L110.06 93.9107L109.46 90.865L108.859 87.8194L108.409 84.7737L107.958 81.728L107.658 78.4285L107.508 75.3828L104.505 75.6366L104.805 79.1899L105.105 82.4894L105.406 85.7889L106.006 89.0884L106.607 92.3879L107.208 95.6874L108.108 98.7331L108.859 101.779L109.91 104.824L110.811 107.87L112.012 110.662L113.214 113.454L114.415 116.246L115.766 118.784L117.117 121.322L118.619 123.86L120.12 126.144L121.772 128.175L123.424 130.459L125.075 132.489L126.877 134.266L128.679 136.043L130.481 137.566L132.433 139.088L134.385 140.611L136.337 141.88L138.439 143.149L140.541 143.911L142.643 144.672L144.745 145.434L146.847 145.941L149.099 146.449L149.4 141.373Z" fill="#FF0000"/>
</g>
<defs>
<clipPath id="clip0_2109_241555">
<rect width="150" height="150" fill="white"/>
</clipPath>
</defs>
</svg>
