<svg width="150" height="150" viewBox="0 0 150 150" fill="none" xmlns="http://www.w3.org/2000/svg">
<g clip-path="url(#clip0_2109_241440)">
<path d="M82.1319 150.001L94.5943 145.083L93.9937 140.836L81.5312 145.754H81.8316V150.001H81.9817H82.1319Z" fill="#003333"/>
<path d="M68.9194 149.997H81.8324V145.75H68.9194H69.2197L68.6191 149.997H68.7693H68.9194Z" fill="#003333"/>
<path d="M56.1565 145.083L68.619 150.001L69.2196 145.754L56.7571 140.836L57.2076 141.059L55.7061 144.636L55.8562 144.86L56.1565 145.083Z" fill="#003333"/>
<path d="M44.5942 135.022L55.7054 144.635L57.2069 141.058L46.0957 131.445L46.396 131.669L44.2939 134.799L44.4441 135.022H44.5942Z" fill="#003333"/>
<path d="M35.1355 121.164L44.2947 134.8L46.3968 131.671L37.2376 118.258L37.5379 118.705L34.9854 120.717L35.1355 120.94V121.164Z" fill="#003333"/>
<path d="M28.3779 104.173L34.9845 120.715L37.5371 118.704L30.9305 101.938L31.0806 102.608L28.3779 103.726V103.949V104.173Z" fill="#003333"/>
<path d="M25.075 85.1724L28.3783 103.727L31.081 102.609L27.7777 84.0547V84.5018H24.9248V84.7253L25.075 85.1724Z" fill="#003333"/>
<path d="M24.9248 65.2752V84.5003H27.7777V65.2752V65.9459L25.075 64.8281L24.9248 65.0517V65.2752Z" fill="#003333"/>
<path d="M28.3785 46.2722L25.0752 64.8266L27.7779 65.9443L31.0812 47.3899L30.9311 47.837L28.3785 45.6016V45.8251V46.2722Z" fill="#003333"/>
<path d="M34.9855 29.0643L28.3789 45.6068L30.9315 47.8422L37.5381 31.2998L37.2378 31.7468L35.1357 28.6172V28.8407L34.9855 29.0643Z" fill="#003333"/>
<path d="M44.2939 15.2049L35.1348 28.6177L37.2369 31.7474L46.396 18.111L46.0957 18.5581L44.5942 14.7578L44.4441 14.9814L44.2939 15.2049Z" fill="#003333"/>
<path d="M55.7058 5.14542L44.5947 14.7579L46.0962 18.5582L57.2073 8.72217L56.7569 8.94572L56.1563 4.92188H55.856L55.7058 5.14542Z" fill="#003333"/>
<path d="M68.6187 0L56.1562 4.91803L56.7569 8.94188L69.2193 4.02384L68.919 4.24739V0H68.7689H68.6187Z" fill="#003333"/>
<path d="M81.8319 0H68.9189V4.24739H81.8319L81.5316 4.02385L82.1322 0H81.982H81.8319Z" fill="#003333"/>
<path d="M94.5943 4.91803L82.1319 0L81.5312 4.02384L93.9937 8.94188L93.5433 8.71833L95.0448 5.14158L94.8946 4.91803H94.5943Z" fill="#003333"/>
<path d="M106.157 14.7531L95.0454 5.14062L93.5439 8.71738L104.655 18.5534L104.355 18.1063L106.457 15.2002L106.307 14.9767L106.157 14.7531Z" fill="#003333"/>
<path d="M115.616 28.6159L106.457 15.2031L104.354 18.1092L113.514 31.7456L113.213 31.2985L115.766 29.063L115.616 28.8395V28.6159Z" fill="#003333"/>
<path d="M122.372 46.2756L122.222 45.8285L115.765 29.0625L113.213 31.298L119.669 47.8404L119.519 47.3933L122.372 46.2756Z" fill="#003333"/>
<path d="M125.676 64.8278L122.372 46.2734L119.52 47.3912L122.973 65.9456V65.2749H125.826V65.0514L125.676 64.8278Z" fill="#003333"/>
<path d="M125.826 84.4985V65.2734H122.973V84.4985V84.0514L125.675 85.1691L125.826 84.722V84.4985Z" fill="#003333"/>
<path d="M122.373 103.727L125.676 85.1724L122.973 84.0547L119.67 102.609L119.82 101.938L122.373 104.174V103.95V103.727Z" fill="#003333"/>
<path d="M115.765 120.715L122.372 104.173L119.819 101.938L113.213 118.704L113.513 118.256L115.615 121.163V120.939L115.765 120.715Z" fill="#003333"/>
<path d="M106.457 134.8L115.616 121.164L113.514 118.258L104.354 131.671L104.655 131.447L106.156 135.024H106.306L106.457 134.8Z" fill="#003333"/>
<path d="M95.0454 144.635L106.157 135.022L104.655 131.445L93.5439 141.058L93.9944 140.834L94.595 145.082L94.8953 144.858L95.0454 144.635Z" fill="#003333"/>
<path d="M53.9034 55.8906H52.1016L73.7232 93.8936H75.6751H75.525L53.9034 55.8906Z" fill="black" stroke="black" stroke-width="0.366418"/>
<path d="M51.6517 55.8906H53.3033L31.8318 93.8936H29.8799H30.03L51.6517 55.8906Z" fill="black" stroke="black" stroke-width="0.366418"/>
<path d="M98.1983 55.8906H96.3965L117.868 93.8936H119.82H119.67L98.1983 55.8906Z" fill="black" stroke="black" stroke-width="0.366418"/>
<path d="M95.9456 55.8906H97.5973L76.1258 93.8936H74.1738H74.324L95.9456 55.8906Z" fill="black" stroke="black" stroke-width="0.366418"/>
<path d="M0 91.6562H31.5315V94.1153H0V91.6562Z" fill="black" stroke="black" stroke-width="0.366418"/>
<path d="M118.318 91.4297H150V93.8887H118.318V91.4297Z" fill="black" stroke="black" stroke-width="0.366418"/>
</g>
<defs>
<clipPath id="clip0_2109_241440">
<rect width="150" height="150" fill="white"/>
</clipPath>
</defs>
</svg>
