<svg width="150" height="150" viewBox="0 0 150 150" fill="none" xmlns="http://www.w3.org/2000/svg">
<g clip-path="url(#clip0_2109_241143)">
<path d="M0 0H149.85" stroke="black" stroke-width="0.368068"/>
<path d="M127.478 0V68.1203H127.327L127.027 76.4662L126.276 84.5865L124.925 92.4812L123.123 99.9248L120.871 107.143L118.018 113.91L115.015 120.226L111.411 126.09L107.508 131.278L103.453 136.015L98.949 140.075L94.1442 143.459L89.1892 146.391L83.934 148.421L78.6787 149.549L72.973 150H70.2703L64.7147 149.098L59.4595 147.519L54.3544 145.038L49.3994 141.88L44.8949 138.271L40.5406 133.759L36.4865 128.797L32.8829 123.383L29.4295 117.293L26.5766 110.752L24.0241 103.759L22.0721 96.5414L20.4204 89.0977L19.3694 81.203L18.9189 73.0827V69.0226L19.0691 0" stroke="black" stroke-width="0.368068"/>
</g>
<defs>
<clipPath id="clip0_2109_241143">
<rect width="150" height="150" fill="white"/>
</clipPath>
</defs>
</svg>
