<svg width="150" height="150" viewBox="0 0 150 150" fill="none" xmlns="http://www.w3.org/2000/svg">
<g clip-path="url(#clip0_2109_241583)">
<path d="M143.694 148.479H150L108.258 94.7226H101.352L101.652 94.5703L143.694 148.479Z" fill="black" stroke="black" stroke-width="0.302427"/>
<path d="M83.9336 150L102.102 144.975L101.051 140.406L82.7324 145.432L83.333 145.279V150H83.6333H83.9336Z" fill="black"/>
<path d="M64.4141 150.002H83.333V145.281H64.4141L65.0147 145.434L63.8135 150.002H64.1138H64.4141Z" fill="black"/>
<path d="M45.6455 144.975L63.8137 150L65.0149 145.432L46.8467 140.406L47.4473 140.711L45.0449 144.822L45.3452 144.975H45.6455Z" fill="black"/>
<path d="M28.8284 135.229L45.0446 144.823L47.447 140.711L31.2308 131.117L31.6812 131.574L28.3779 134.772L28.5281 135.077L28.8284 135.229Z" fill="black"/>
<path d="M14.8648 121.221L28.3783 134.775L31.6816 131.577L18.1681 118.023L18.6185 118.48L14.5645 120.765L14.7146 121.069L14.8648 121.221Z" fill="black"/>
<path d="M5.10499 104.159L14.5644 120.758L18.6185 118.474L9.15904 101.875L9.30919 102.484L4.80469 103.55L4.95484 103.855L5.10499 104.159Z" fill="black"/>
<path d="M0 85.1245L4.8048 103.551L9.30931 102.485L4.5045 83.9062V84.5154H0V84.82V85.1245Z" fill="black"/>
<path d="M0 65.3279V84.5157H4.5045V65.3279V65.937L0 64.7188V65.0233V65.3279Z" fill="black"/>
<path d="M4.8048 46.2966L0 64.723L4.5045 65.9413L9.30931 47.5149L9.15916 48.124L5.1051 45.6875L4.95496 45.9921L4.8048 46.2966Z" fill="black"/>
<path d="M14.5649 29.2419L5.10547 45.6887L9.15952 48.1252L18.619 31.5262L18.1685 31.9831L14.8652 28.6328L14.7151 28.9374L14.5649 29.2419Z" fill="black"/>
<path d="M28.2286 15.078L14.8652 28.6313L18.1685 31.9816L31.5319 18.4283L31.0815 18.8851L28.8292 14.7734L28.5289 14.9257L28.2286 15.078Z" fill="black"/>
<path d="M45.0453 5.17957L28.8291 14.7735L31.0814 18.8852L47.4477 9.29124L46.8471 9.44353L45.6459 4.875L45.3456 5.02728L45.0453 5.17957Z" fill="black"/>
<path d="M63.8137 0L45.6455 4.8731L46.8467 9.44162L65.0149 4.56853H64.4143V0H64.114H63.8137Z" fill="black"/>
<path d="M83.333 0H64.4141V4.56853H83.333H82.7324L83.9336 0H83.6333H83.333Z" fill="black"/>
<path d="M102.102 4.8731L83.9336 0L82.7324 4.56853L101.051 9.44162L100.45 9.28934L102.702 5.17766L102.402 5.02538L102.102 4.8731Z" fill="black"/>
<path d="M119.069 14.7736L102.702 5.17969L100.45 9.29136L116.817 18.8853L116.366 18.4284L119.519 15.0782L119.369 14.9259L119.069 14.7736Z" fill="black"/>
<path d="M132.883 28.6314L119.519 15.0781L116.366 18.4284L129.73 31.9817L129.279 31.5248L133.333 29.2406L133.183 28.936L132.883 28.6314Z" fill="black"/>
<path d="M142.643 45.6889L133.333 29.2422L129.279 31.5265L138.589 48.1254L138.438 47.5163L142.943 46.298L142.793 45.9935L142.643 45.6889Z" fill="black"/>
<path d="M147.898 64.7233L142.943 46.2969L138.438 47.5151L143.393 65.9415L143.243 65.3324H147.898V65.0278V64.7233Z" fill="black"/>
<path d="M147.898 84.5159V65.3281H143.243V84.5159L143.393 83.9068L147.898 85.1251V84.8205V84.5159Z" fill="black"/>
<path d="M142.943 103.551L147.898 85.1245L143.393 83.9062L138.438 102.485L138.739 101.876L142.793 104.16L142.943 103.855V103.551Z" fill="black"/>
<path d="M133.333 120.758L142.793 104.159L138.739 101.875L129.279 118.474L129.73 118.017L132.883 121.215L133.183 121.063L133.333 120.758Z" fill="black"/>
<path d="M119.369 134.775L132.882 121.221L129.729 118.023L116.216 131.577L116.666 131.12L118.919 135.232L119.219 135.079L119.369 134.775Z" fill="black"/>
<path d="M102.702 144.823L118.919 135.229L116.666 131.117L100.45 140.711L101.051 140.407L102.102 144.975H102.402L102.702 144.823Z" fill="black"/>
</g>
<defs>
<clipPath id="clip0_2109_241583">
<rect width="150" height="150" fill="white"/>
</clipPath>
</defs>
</svg>
