<svg width="150" height="150" viewBox="0 0 150 150" fill="none" xmlns="http://www.w3.org/2000/svg">
<g clip-path="url(#clip0_2109_241046)">
<path d="M141.742 141.722V7.82031H150V141.722H141.742Z" fill="black" stroke="black" stroke-width="0.300601"/>
<path d="M0 0H150V7.82347H0V0Z" fill="black" stroke="black" stroke-width="0.300601"/>
<path d="M0 142.023H150V149.997H0V142.023Z" fill="black" stroke="black" stroke-width="0.300601"/>
<path d="M0 141.271V7.82031H8.10811V141.271H0Z" fill="black" stroke="black" stroke-width="0.300601"/>
<path d="M84.084 143.53L100.601 139.167L98.7987 131.945L82.2822 136.308L83.1831 136.158V143.681H83.6336L84.084 143.53Z" fill="black"/>
<path d="M65.9155 143.679H83.1828V136.156H65.9155L66.9666 136.307L65.0146 143.528L65.4651 143.679H65.9155Z" fill="black"/>
<path d="M48.4986 139.167L65.0151 143.53L66.967 136.308L50.4505 131.945L51.3514 132.246L47.5977 138.716L48.0481 139.017L48.4986 139.167Z" fill="black"/>
<path d="M32.8826 130.141L47.5973 138.717L51.3511 132.248L36.7865 123.672L37.5372 124.274L32.1318 129.539L32.5823 129.84L32.8826 130.141Z" fill="black"/>
<path d="M19.9697 117.352L32.1319 129.538L37.5373 124.272L25.225 112.086L25.8256 112.838L19.3691 116.599L19.6694 117.051L19.9697 117.352Z" fill="black"/>
<path d="M10.6607 101.855L19.3694 116.599L25.8258 112.838L17.2673 98.0938L17.5676 98.9965L10.3604 100.802L10.5105 101.404L10.6607 101.855Z" fill="black"/>
<path d="M6.00562 84.4012L10.36 100.8L17.5672 98.995L13.2128 82.4453L13.363 83.348H5.85547V83.9498L6.00562 84.4012Z" fill="black"/>
<path d="M5.85547 66.2016V83.3531H13.363V66.2016L13.2128 67.1043L6.00562 65.1484L5.85547 65.5998V66.2016Z" fill="black"/>
<path d="M10.3602 48.7485L6.00586 65.1477L13.2131 67.1035L17.5674 50.5539L17.2671 51.4566L10.6605 47.6953L10.5104 48.1467L10.3602 48.7485Z" fill="black"/>
<path d="M19.3689 32.9476L10.6602 47.6918L17.2668 51.4531L25.8253 36.7089L25.2247 37.4611L19.9695 32.1953L19.6692 32.4962L19.3689 32.9476Z" fill="black"/>
<path d="M31.9817 20.0081L19.9697 32.1946L25.225 37.4604L37.3871 25.2739L36.6364 25.8757L32.7325 19.4062L32.4322 19.7072L31.9817 20.0081Z" fill="black"/>
<path d="M47.5973 10.8342L32.7324 19.4099L36.6363 25.8793L51.351 17.3036L50.4501 17.6045L48.4982 10.3828L48.0477 10.5333L47.5973 10.8342Z" fill="black"/>
<path d="M65.0146 6.01764L48.498 10.3807L50.45 17.6024L66.9665 13.2393L65.9155 13.3898V5.86719H65.465L65.0146 6.01764Z" fill="black"/>
<path d="M83.1833 5.86719H65.916V13.3898H83.1833L82.2824 13.2393L84.0842 6.01764L83.6337 5.86719H83.1833Z" fill="black"/>
<path d="M100.601 10.3787L84.084 6.01562L82.2822 13.2373L98.7987 17.6004L97.7477 17.2995L101.501 10.8301L101.051 10.5292L100.601 10.3787Z" fill="black"/>
<path d="M116.367 19.4117L101.502 10.8359L97.748 17.3053L112.613 25.8811L111.862 25.2793L117.117 20.0135L116.817 19.7126L116.367 19.4117Z" fill="black"/>
<path d="M129.13 32.1944L117.118 20.0078L111.862 25.2736L123.874 37.4602L123.274 36.7079L129.73 32.9466L129.58 32.4953L129.13 32.1944Z" fill="black"/>
<path d="M138.288 47.6895L129.73 32.9453L123.273 36.7066L131.832 51.4508L131.532 50.5481L138.739 48.5923L138.589 48.1409L138.288 47.6895Z" fill="black"/>
<path d="M143.243 65.1434L138.738 48.5938L131.531 50.5496L136.036 67.0993L135.886 66.1966H143.393V65.5948L143.243 65.1434Z" fill="black"/>
<path d="M143.393 83.3468V66.1953H135.886V83.3468L136.036 82.4441L143.243 84.3999L143.393 83.9486V83.3468Z" fill="black"/>
<path d="M138.738 100.8L143.243 84.4012L136.036 82.4453L131.531 98.995L131.982 98.0923L138.438 101.854L138.738 101.402V100.8Z" fill="black"/>
<path d="M129.73 116.599L138.439 101.855L131.982 98.0938L123.273 112.838L123.874 112.086L129.129 117.352L129.58 117.051L129.73 116.599Z" fill="black"/>
<path d="M116.967 129.538L129.129 117.352L123.874 112.086L111.712 124.272L112.463 123.671L116.216 130.14L116.667 129.839L116.967 129.538Z" fill="black"/>
<path d="M101.502 138.717L116.217 130.141L112.463 123.672L97.748 132.248L98.7991 131.947L100.601 139.168L101.051 139.018L101.502 138.717Z" fill="black"/>
</g>
<defs>
<clipPath id="clip0_2109_241046">
<rect width="150" height="150" fill="white"/>
</clipPath>
</defs>
</svg>
