<svg width="150" height="150" viewBox="0 0 150 150" fill="none" xmlns="http://www.w3.org/2000/svg">
<g clip-path="url(#clip0_2109_240970)">
<path d="M150 125.227V150.001" stroke="black" stroke-width="0.388465"/>
<path d="M150 0V25.2252" stroke="black" stroke-width="0.388465"/>
<path d="M150 25.2266L142.211 25.8272L135.427 28.68L131.155 32.5839L130.15 37.2386L131.155 42.644L135.427 46.5479L142.211 49.2506L150 50.0013L142.211 51.3527L135.427 53.9052L131.155 57.9593L130.15 62.6139L131.155 67.2686L135.427 71.3227L142.211 73.8752L150 75.2266L142.211 75.9773L135.427 78.5299L131.155 82.5839L130.15 87.2386L131.155 92.644L135.427 96.5479L142.211 99.2506L150 100.001L142.211 101.203L135.427 103.905L131.155 107.959L130.15 112.614L131.155 117.269L135.427 121.173L142.211 124.025L150 125.227" stroke="black" stroke-width="0.388465"/>
<path d="M23.1156 114.263L0 100.449V81.0794L23.1156 67.2656H55.5276L78.6432 81.0794V100.449L55.5276 114.263H23.1156Z" stroke="black" stroke-width="0.388465"/>
<path d="M39.1963 67.8651V54.3516" stroke="black" stroke-width="0.388465"/>
<path d="M39.1963 0V17.2673" stroke="black" stroke-width="0.388465"/>
<path d="M39.1963 29.1328V45.6493" stroke="black" stroke-width="0.388465"/>
</g>
<defs>
<clipPath id="clip0_2109_240970">
<rect width="150" height="150" fill="white"/>
</clipPath>
</defs>
</svg>
