<svg width="150" height="150" viewBox="0 0 150 150" fill="none" xmlns="http://www.w3.org/2000/svg">
<g clip-path="url(#clip0_2109_241659)">
<path d="M104.279 27.4792C113.214 27.4792 120.457 21.2945 120.457 13.6654C120.457 6.03622 113.214 -0.148438 104.279 -0.148438C95.3438 -0.148438 88.1006 6.03622 88.1006 13.6654C88.1006 21.2945 95.3438 27.4792 104.279 27.4792Z" stroke="black" stroke-width="0.324986"/>
<path d="M16.0023 87.8351C24.8402 87.8351 32.0047 81.7177 32.0047 74.1715C32.0047 66.6252 24.8402 60.5078 16.0023 60.5078C7.16449 60.5078 0 66.6252 0 74.1715C0 81.7177 7.16449 87.8351 16.0023 87.8351Z" stroke="black" stroke-width="0.324986"/>
<path d="M133.822 87.987C142.757 87.987 150 81.8023 150 74.1732C150 66.544 142.757 60.3594 133.822 60.3594C124.887 60.3594 117.644 66.544 117.644 74.1732C117.644 81.8023 124.887 87.987 133.822 87.987Z" stroke="black" stroke-width="0.324986"/>
<path d="M104.279 150.003C113.214 150.003 120.457 143.818 120.457 136.189C120.457 128.56 113.214 122.375 104.279 122.375C95.3438 122.375 88.1006 128.56 88.1006 136.189C88.1006 143.818 95.3438 150.003 104.279 150.003Z" stroke="black" stroke-width="0.324986"/>
<path d="M31.6529 69.5217L91.2661 23.2755L87.5732 19.6719L27.6084 65.9181L31.6529 69.5217Z" fill="black" stroke="black" stroke-width="0.324986"/>
<path d="M64.8887 20.7168V21.7679L89.6835 22.3685L89.8594 20.1162L65.0645 19.5156L64.8887 20.7168Z" fill="black"/>
<path d="M88.98 21.1736L87.5732 21.4739L90.3868 37.9904L93.0246 37.6901L90.3868 21.0234L88.98 21.1736Z" fill="black"/>
</g>
<defs>
<clipPath id="clip0_2109_241659">
<rect width="150" height="150" fill="white"/>
</clipPath>
</defs>
</svg>
