<svg width="150" height="150" viewBox="0 0 150 150" fill="none" xmlns="http://www.w3.org/2000/svg">
<g clip-path="url(#clip0_2109_241193)">
<path d="M0 138.601L0.900901 135.344L1.95195 132.738L3.15315 130.621L4.5045 128.992L5.85586 127.852L7.35736 127.201L8.85886 126.875H10.2102L11.5616 127.364L13.0631 128.015L14.2643 129.155L15.4655 130.458L16.5165 132.25L17.2673 134.041L18.018 136.158L18.4685 138.439L18.9189 140.719L19.5195 142.836L20.4204 144.627L21.4715 146.256L22.6727 147.722L24.024 148.862L25.2252 149.513L26.7267 150.002H28.0781L29.5796 149.676L31.0811 149.025L32.4324 147.885L33.7838 146.256L34.985 143.976L36.036 141.533L37.0871 138.276" stroke="black" stroke-width="0.312758"/>
<path d="M97.4479 127.362L81.8323 131.922H65.7662L50.0004 127.362L36.1866 118.73L24.7752 106.352L16.6671 91.5309L12.4629 74.5928V57.329L16.6671 40.3909L24.7752 25.4072L36.0365 13.0293L50.0004 4.39739L65.7662 0H81.8323L97.4479 4.39739L111.412 13.0293L122.823 25.4072L130.781 40.3909L135.136 57.329V74.5928L130.931 91.5309L122.823 106.352L111.262 118.73L97.4479 127.362Z" stroke="black" stroke-width="0.312758"/>
<path d="M116.967 112.702L30.4805 18.8906" stroke="black" stroke-width="0.312758"/>
<path d="M112.763 137.296L113.814 134.038L114.865 131.432L116.066 129.315L117.417 127.686L118.769 126.546L120.27 125.895L121.772 125.406L123.123 125.569L124.474 126.058L125.826 126.709L127.177 127.849L128.378 129.152L129.429 130.944L130.18 132.735L130.931 134.853L131.381 137.133L131.832 139.413L132.432 141.53L133.333 143.322L134.384 144.95L135.586 146.253L136.787 147.393L138.138 148.208L139.64 148.533L140.991 148.696L142.492 148.37L143.844 147.719L145.345 146.579L146.697 144.95L147.898 142.67L148.949 140.227L150 136.97" stroke="black" stroke-width="0.312758"/>
</g>
<defs>
<clipPath id="clip0_2109_241193">
<rect width="150" height="150" fill="white"/>
</clipPath>
</defs>
</svg>
