<svg width="150" height="150" viewBox="0 0 150 150" fill="none" xmlns="http://www.w3.org/2000/svg">
<g clip-path="url(#clip0_2109_240906)">
<path d="M8.11623 149.849C12.5987 149.849 16.2325 146.219 16.2325 141.741C16.2325 137.263 12.5987 133.633 8.11623 133.633C3.63376 133.633 0 137.263 0 141.741C0 146.219 3.63376 149.849 8.11623 149.849Z" stroke="black" stroke-width="0.300451"/>
<path d="M141.733 149.399C146.299 149.399 150 145.702 150 141.141C150 136.58 146.299 132.883 141.733 132.883C137.168 132.883 133.467 136.58 133.467 141.141C133.467 145.702 137.168 149.399 141.733 149.399Z" stroke="black" stroke-width="0.300451"/>
<path d="M16.3828 141.592H30.6614L74.3988 0L119.489 140.991L133.768 141.141" stroke="black" stroke-width="0.300451"/>
<path d="M50.9521 75.9766H98.7477" stroke="black" stroke-width="0.300451"/>
</g>
<defs>
<clipPath id="clip0_2109_240906">
<rect width="150" height="150" fill="white"/>
</clipPath>
</defs>
</svg>
