<svg width="150" height="150" viewBox="0 0 150 150" fill="none" xmlns="http://www.w3.org/2000/svg">
<g clip-path="url(#clip0_2109_241098)">
<path d="M89.9694 102.251L89.667 102.101L95.8666 103.903L96.4714 101.2L90.423 99.3984H89.9694V102.251Z" fill="black"/>
<path d="M83.9211 102.101L83.6187 102.251H89.9695V99.3984H83.6187H83.3162H83.165L83.9211 102.101Z" fill="black"/>
<path d="M78.3266 103.753L78.0241 103.903L83.9213 102.101L83.1653 99.3984L77.4193 101.2H77.1169L76.8145 101.35L78.3266 103.753Z" fill="black"/>
<path d="M73.4882 106.907L73.337 107.207L78.3269 103.754L76.8148 101.352L71.6737 104.655H71.5225L73.4882 106.907Z" fill="black"/>
<path d="M78.0246 145.348L78.3271 145.499L73.3371 142.195L71.6738 144.598L76.815 148.051H77.1174H77.4198L78.0246 145.348Z" fill="black"/>
<path d="M83.6185 146.995L83.921 147.146L78.0238 145.344L77.4189 148.046L83.1649 149.698L83.3161 149.998H83.6185V146.995Z" fill="black"/>
<path d="M89.6675 147.15L89.9699 147H83.6191V150.003H89.9699H90.4236V149.703L89.6675 147.15Z" fill="black"/>
<path d="M95.2618 145.494L95.8666 145.344L89.667 147.146L90.423 149.698L96.4714 148.046H96.6226H96.7738L95.2618 145.494Z" fill="black"/>
<path d="M100.252 142.345L100.403 142.195L95.2617 145.499L96.7738 148.051L101.915 144.598H102.066L102.217 144.448L100.252 142.345Z" fill="black"/>
<path d="M104.788 138.285L105.091 137.984L100.252 142.339L102.218 144.441L106.905 140.237L107.208 139.936V139.786L104.788 138.285Z" fill="black"/>
<path d="M107.661 133.636V133.336L104.788 138.291L107.207 139.792L110.08 134.687H110.232V134.387L107.661 133.636Z" fill="black"/>
<path d="M109.324 127.628V127.328L107.661 133.634L110.232 134.385L111.895 127.929H112.197V127.628H109.324Z" fill="black"/>
<path d="M109.324 122.071V121.621V127.627H112.197V121.621V121.47L111.895 121.32L109.324 122.071Z" fill="black"/>
<path d="M107.661 115.916V115.615L109.324 122.072L111.895 121.321L110.232 115.015V114.714L110.08 114.414L107.661 115.916Z" fill="black"/>
<path d="M105.091 111.26L104.788 110.96L107.661 115.915L110.08 114.413L107.207 109.458V109.308L106.905 109.008L105.091 111.26Z" fill="black"/>
<path d="M100.403 107.209L100.252 106.909L105.091 111.263L106.905 109.011L102.218 104.656H102.066H101.915L100.403 107.209Z" fill="black"/>
<path d="M95.8666 103.906L95.2617 103.756L100.403 107.209L101.915 104.657L96.7738 101.353L96.6226 101.203H96.4714L95.8666 103.906Z" fill="black"/>
<path d="M142.591 97.5968H142.439L148.79 99.3986L149.546 96.5457L143.196 94.5938H142.893H142.591V97.5968Z" fill="black"/>
<path d="M136.24 97.5968H135.938H142.591V94.5938H135.938H135.484L136.24 97.5968Z" fill="black"/>
<path d="M130.191 99.2484L129.738 99.3986L136.24 97.5968L135.484 94.5938L128.982 96.5457H128.679H128.377L130.191 99.2484Z" fill="black"/>
<path d="M124.748 102.703V103.003L130.192 99.2496L128.377 96.5469L123.085 100.301L122.933 100.451H122.782L124.748 102.703Z" fill="black"/>
<path d="M119.909 107.06L119.758 107.36L124.748 102.705L122.782 100.453L117.641 105.108L117.339 105.258V105.408L119.909 107.06Z" fill="black"/>
<path d="M116.885 112.163L116.733 112.613L119.909 107.058L117.338 105.406L114.163 110.812L114.012 111.112V111.412L116.885 112.163Z" fill="black"/>
<path d="M114.92 118.471V119.072L116.886 112.165L114.013 111.414L112.198 118.321L112.047 118.471H114.92Z" fill="black"/>
<path d="M114.92 124.775V125.075V118.469H112.047V125.075V125.376H112.198L114.92 124.775Z" fill="black"/>
<path d="M116.734 131.23L116.885 131.53L114.919 124.773L112.197 125.374L114.012 132.281V132.731H114.163L116.734 131.23Z" fill="black"/>
<path d="M119.758 136.339L119.909 136.64L116.734 131.234L114.163 132.736L117.338 138.141V138.442L117.641 138.742L119.758 136.339Z" fill="black"/>
<path d="M124.747 140.84V140.991L119.758 136.336L117.641 138.738L122.782 143.243H122.933H123.084L124.747 140.84Z" fill="black"/>
<path d="M129.738 144.297L130.192 144.447L124.748 140.844L123.085 143.246L128.377 147L128.68 147.3H128.982L129.738 144.297Z" fill="black"/>
<path d="M135.937 145.949L136.24 146.099L129.737 144.297L128.981 147.3L135.483 148.952V149.102H135.937V145.949Z" fill="black"/>
<path d="M142.44 146.095L142.591 145.945H135.938V149.098H142.591H142.893L143.196 148.948L142.44 146.095Z" fill="black"/>
<path d="M148.337 144.447L148.79 144.297L142.439 146.099L143.196 148.952L149.546 147.3H149.849L150 147L148.337 144.447Z" fill="black"/>
<path d="M0 148.949L2.26815 149.399L35.9879 0.45045L33.7198 0L0 148.949Z" fill="black" stroke="black" stroke-width="0.301358"/>
<path d="M70.3129 148.949L67.8936 149.399L34.1738 0.45045L36.442 0L70.3129 148.949Z" fill="black" stroke="black" stroke-width="0.301358"/>
<path d="M70.7656 16.2188H73.4874V149.252H70.7656V16.2188Z" fill="black" stroke="black" stroke-width="0.301358"/>
<path d="M14.0625 94.8984H57.0061V96.7002H14.0625V94.8984Z" fill="black" stroke="black" stroke-width="0.301358"/>
</g>
<defs>
<clipPath id="clip0_2109_241098">
<rect width="150" height="150" fill="white"/>
</clipPath>
</defs>
</svg>
