<svg width="29" height="150" viewBox="0 0 29 150" fill="none" xmlns="http://www.w3.org/2000/svg">
<g clip-path="url(#clip0_2914_169975)">
<mask id="mask0_2914_169975" style="mask-type:luminance" maskUnits="userSpaceOnUse" x="0" y="0" width="29" height="150">
<path d="M29 0H0V150H29V0Z" fill="white"/>
</mask>
<g mask="url(#mask0_2914_169975)">
<path d="M29 143.243V89.9399L25.3955 86.6366V39.9399L21.791 36.6366V3.45345L18.1864 0H10.8136L7.20904 3.45345V36.6366L3.60452 39.9399V86.6366L0 89.9399V143.243L2.45763 146.997L6.38983 148.799L11.4689 149.7L14.4181 150L20.1525 149.399L24.7401 147.898L28.3446 145.195L29 143.243Z" fill="#F6E629"/>
<path d="M26.87 143.243V133.183L27.0338 131.532V129.88V101.502L26.87 96.5465V89.9399L23.757 86.6366V77.7778L23.9208 71.9219V50.1502L23.757 44.2943V39.9399L20.644 36.6366V30.3303L20.8078 24.024V11.5616L20.644 5.40541V3.3033L17.6949 0H16.8756H16.2203H15.4011H11.4689L8.35587 3.3033V9.60961V15.7658V28.2282V34.5345V36.6366L5.24288 39.9399V48.6486L5.40672 54.5045V76.2763L5.24288 82.1321V86.6366L2.45757 89.4895L2.12988 89.9399V91.5916V99.8498V104.955V131.532V136.486V143.243L4.25983 146.997L8.68355 149.099L13.2711 149.85H14.5819H15.7288L20.3163 149.099L24.7401 146.997L26.87 143.243Z" fill="#F6E84C"/>
<path d="M24.74 143.243V133.183V131.532V129.88V101.502V96.5465V89.9399L22.1185 86.6366V77.7778L22.2824 71.9219V50.1502L22.1185 44.2943V39.9399L19.6609 36.6366V30.3303V24.024V11.5616V5.40541V3.3033L17.0394 0H16.3841H15.8925H15.2372H11.9603L9.33886 3.3033V9.60961L9.5027 15.7658V28.2282L9.33886 34.5345V36.6366L6.88123 39.9399V48.6486V54.5045V76.2763V82.1321V86.6366L4.75129 89.4895L4.25977 89.9399V91.5916V99.8498L4.42361 104.955V131.532L4.25977 136.486V143.243L6.06203 146.997L10.4858 149.399L13.4349 149.85H14.5818H15.5649L20.1524 148.799L23.9208 145.796L24.74 143.243Z" fill="#F7EB69"/>
<path d="M22.6102 143.243V133.183V131.532V129.88V101.502V96.5465V89.9399L20.4803 86.6366V77.7778V71.9219V50.1502V44.2943V39.9399L18.5142 36.6366V30.3303V24.024V11.5616V5.40541V3.3033L16.5481 0H16.0565H15.565H15.0735H12.6159L10.4859 3.3033V9.60961V15.7658V28.2282V34.5345V36.6366L8.51981 39.9399V48.6486V54.5045V76.2763V82.1321V86.6366L6.71755 89.4895L6.55371 89.9399V91.5916V99.8498V104.955V131.532V136.486V143.243L8.8475 147.898L12.9435 149.7L14.582 149.85L16.2204 149.7L20.1526 147.898L22.6102 143.243Z" fill="#F8EE84"/>
<path d="M20.3164 143.243V133.183V131.532V129.88V101.502V96.5465V89.9399L18.8418 86.6366V77.7778L19.0056 71.9219V50.1502L18.8418 44.2943V39.9399L17.5311 36.6366V30.3303V24.024V11.5616V5.40541V3.3033L15.8926 0H15.5649H15.2373H14.9096H13.1073L11.4689 3.3033V9.60961L11.6327 15.7658V28.2282L11.4689 34.5345V36.6366L10.1582 39.9399V48.6486V54.5045V76.2763V82.1321V86.6366L8.84744 89.4895L8.68359 89.9399V91.5916V99.8498V104.955V131.532V136.486V143.243L10.322 147.898L13.2712 149.7L14.5819 149.85L15.7288 149.7L19.3333 146.997L20.3164 143.243Z" fill="#F8F197"/>
<path d="M18.1864 143.243V89.9399L17.2033 86.6366V39.9399L16.3841 36.6366V3.45345L15.401 0H13.5988L12.6157 3.45345V36.6366L11.7965 39.9399V86.6366L10.8135 89.9399V143.243L11.7965 147.898L14.418 150L17.8587 145.946L18.1864 143.243Z" fill="#F9F3A4"/>
<path d="M29 143.243V89.9399L25.3955 86.6366V39.9399L21.791 36.6366V3.45345L18.1864 0H10.8136L7.20904 3.45345V36.6366L3.60452 39.9399V86.6366L0 89.9399V143.243L2.45763 146.997L6.38983 148.799L11.4689 149.7L14.4181 150L20.1525 149.399L24.7401 147.898L28.3446 145.195L29 143.243Z" stroke="#F6E400" stroke-width="0.713431"/>
<path d="M7.20898 3.45312H21.7909" stroke="#F6E400" stroke-width="0.713431"/>
<path d="M7.20898 36.6367H21.7909" stroke="#F6E400" stroke-width="0.713431"/>
<path d="M25.3955 39.9395H3.60449" stroke="#F6E400" stroke-width="0.713431"/>
<path d="M25.3955 86.6367H3.60449" stroke="#F6E400" stroke-width="0.713431"/>
<path d="M0 89.9395H29" stroke="#F6E400" stroke-width="0.713431"/>
<path d="M0 143.244H29" stroke="#F6E400" stroke-width="0.713431"/>
</g>
</g>
<defs>
<clipPath id="clip0_2914_169975">
<rect width="29" height="150" fill="white"/>
</clipPath>
</defs>
</svg>
