<svg width="150" height="150" viewBox="0 0 150 150" fill="none" xmlns="http://www.w3.org/2000/svg">
<g clip-path="url(#clip0_2914_168280)">
<mask id="mask0_2914_168280" style="mask-type:luminance" maskUnits="userSpaceOnUse" x="0" y="0" width="150" height="150">
<path d="M150 0H0V150H150V0Z" fill="white"/>
</mask>
<g mask="url(#mask0_2914_168280)">
<path d="M74.9998 150H0.299805V0L74.9998 75V150Z" fill="#F0E210"/>
<path d="M150 75V0H0L75 75H150Z" fill="#F0E210"/>
<path d="M4.7998 149.997H70.1998V70.1969L4.7998 4.79688V149.997Z" fill="#F2E756"/>
<path d="M150 4.79688V70.1969H70.4998L4.7998 4.79688H150Z" fill="#F2E756"/>
<path d="M12.5996 150.002H62.3996V62.4016L12.5996 12.6016V150.002Z" fill="#F5EE8C"/>
<path d="M150 12.6016V62.4016H62.6996L12.5996 12.6016H150Z" fill="#F5EE8C"/>
<path d="M20.4004 149.998H54.6004V54.5984L20.4004 20.3984V149.998Z" fill="#F9F6BF"/>
<path d="M150 20.3984V54.5984H54.9004L20.4004 20.3984H150Z" fill="#F9F6BF"/>
<path d="M26.7002 149.998H48.6002V48.2984L26.7002 26.3984V149.998Z" fill="#FDFCE2"/>
<path d="M150 26.3984V48.2984H48.6002L26.7002 26.3984H150Z" fill="#FDFCE2"/>
<path d="M33 150.003H42.3V42.3031L33 32.7031V150.003Z" fill="#FFFFFE"/>
<path d="M150 32.7031V42.3031H42.3L33 32.7031H150Z" fill="#FFFFFE"/>
<path d="M150 0H0" stroke="#F0E210" stroke-width="0.6"/>
<path d="M75 75H150" stroke="#F0E210" stroke-width="0.6"/>
<path d="M0 150V0" stroke="#F0E210" stroke-width="0.6"/>
<path d="M75 75V150" stroke="#F0E210" stroke-width="0.6"/>
</g>
</g>
<defs>
<clipPath id="clip0_2914_168280">
<rect width="150" height="150" fill="white"/>
</clipPath>
</defs>
</svg>
