<svg width="150" height="150" viewBox="0 0 150 150" fill="none" xmlns="http://www.w3.org/2000/svg">
<g clip-path="url(#clip0_2122_168486)">
<path d="M81.6523 115.164H117.193V144.443H81.6523V115.164Z" fill="#CCCCBD" stroke="black" stroke-width="0.330856"/>
<path d="M8.38477 139.938H53.403V146.094H8.38477V139.938Z" fill="#CCCCBD" stroke="black" stroke-width="0.330856"/>
<path d="M8.38477 74.9217L12.03 62.6094H49.5755L53.403 74.9217H8.38477Z" fill="#CCCCBD" stroke="black" stroke-width="0.330856"/>
<path d="M121.02 144.593H119.197V37.8359H121.02V144.593Z" fill="#333300"/>
<path d="M70.3525 144.593H68.3477V37.8359H70.3525V144.593Z" fill="#333300"/>
<path d="M53.4023 42.4952H57.2298V28.5312H53.4023V42.4952Z" fill="#666638" stroke="black" stroke-width="0.330856"/>
<path d="M54.3145 42.4952H56.1371V28.5312H54.3145V42.4952Z" fill="#B2B29B"/>
<path d="M60.875 25.375H143.439V37.8375H60.875V25.375Z" fill="#B2B29B" stroke="black" stroke-width="0.330856"/>
<path d="M8.38477 74.9219H53.403V139.937H8.38477V74.9219Z" fill="#B2B29B" stroke="black" stroke-width="0.330856"/>
<path d="M121.021 144.593H128.494V37.8359H121.021V144.593Z" fill="#B2B29B" stroke="black" stroke-width="0.330856"/>
<path d="M60.875 144.593H68.3477V37.8359H60.875V144.593Z" fill="#B2B29B" stroke="black" stroke-width="0.330856"/>
<path d="M57.2305 144.594H132.322V146.095H57.2305V144.594Z" fill="#B2B29B" stroke="black" stroke-width="0.330856"/>
<path d="M0.728516 146.094H135.965V149.247H0.728516V146.094Z" fill="#B2B29B" stroke="black" stroke-width="0.330856"/>
<path d="M72.1758 28.5312H124.849V37.8406H72.1758V28.5312Z" fill="#7F7F59" stroke="black" stroke-width="0.330856"/>
<path d="M38.457 69.3731L41.5555 70.7244L44.8361 69.3731V68.1719H38.457V69.3731Z" fill="#666666" stroke="black" stroke-width="0.330856"/>
<path d="M38.457 72.0701L41.5555 73.4215L44.8361 72.0701V70.7188H38.457V72.0701Z" fill="#666666" stroke="black" stroke-width="0.330856"/>
<path d="M31.8945 72.0701L35.1752 73.4215L38.4559 72.0701V70.7188H31.8945V72.0701Z" fill="#666666" stroke="black" stroke-width="0.330856"/>
<path d="M31.8945 69.3731L35.1752 70.7244L38.4559 69.3731V68.1719H31.8945V69.3731Z" fill="#666666" stroke="black" stroke-width="0.330856"/>
<path d="M18.7734 66.8201L22.0541 68.1715L25.1525 66.8201V65.4688H18.7734V66.8201Z" fill="#666666" stroke="black" stroke-width="0.330856"/>
<path d="M18.7734 72.0701L22.0541 73.4215L25.1525 72.0701V70.7188H18.7734V72.0701Z" fill="#666666" stroke="black" stroke-width="0.330856"/>
<path d="M18.7734 69.3731L22.0541 70.7244L25.1525 69.3731V68.1719H18.7734V69.3731Z" fill="#666666" stroke="black" stroke-width="0.330856"/>
<path d="M38.457 68.1717L41.5555 69.3729L44.8361 68.1717L41.5555 66.8203L38.457 68.1717Z" fill="#997A7A" stroke="black" stroke-width="0.330856"/>
<path d="M38.457 70.7185L41.5555 72.0699L44.8361 70.7185L41.5555 69.3672L38.457 70.7185Z" fill="#7A9999" stroke="black" stroke-width="0.330856"/>
<path d="M31.8945 68.1717L35.1752 69.3729L38.4559 68.1717L35.1752 66.8203L31.8945 68.1717Z" fill="#E5E5E5" stroke="black" stroke-width="0.330856"/>
<path d="M31.8945 70.7185L35.1752 72.0699L38.4559 70.7185L35.1752 69.3672L31.8945 70.7185Z" fill="#E5E5E5" stroke="black" stroke-width="0.330856"/>
<path d="M18.7734 70.7185L22.0541 72.0699L25.1525 70.7185L22.0541 69.3672L18.7734 70.7185Z" fill="#E5E5E5" stroke="black" stroke-width="0.330856"/>
<path d="M18.7734 68.1717L22.0541 69.3729L25.1525 68.1717L22.0541 66.8203L18.7734 68.1717Z" fill="#E5E5E5" stroke="black" stroke-width="0.330856"/>
<path d="M18.7734 65.4685L22.0541 66.8199L25.1525 65.4685L22.0541 64.1172L18.7734 65.4685Z" fill="#E5E5E5" stroke="black" stroke-width="0.330856"/>
<path d="M60.875 0.601562H121.021V9.91087H60.875V0.601562Z" fill="#7F7F59"/>
<path d="M60.875 9.90625H107.898V25.3717H60.875V9.90625Z" fill="#B2B29B" stroke="black" stroke-width="0.330856"/>
<path d="M98.4199 9.90625H105.893V25.3717H98.4199V9.90625Z" fill="#99997A" stroke="black" stroke-width="0.330856"/>
<path d="M76.002 9.90625H83.4746V25.3717H76.002V9.90625Z" fill="#99997A" stroke="black" stroke-width="0.330856"/>
<path d="M99.3309 141.295C107.082 141.295 113.365 136.119 113.365 129.733C113.365 123.348 107.082 118.172 99.3309 118.172C91.5801 118.172 85.2969 123.348 85.2969 129.733C85.2969 136.119 91.5801 141.295 99.3309 141.295Z" fill="#99997A"/>
<path d="M81.6523 105.859H105.893V115.169H81.6523V105.859Z" fill="#B2B29B" stroke="black" stroke-width="0.330856"/>
<path d="M77.8242 98.1953H109.72V105.853H77.8242V98.1953Z" fill="#B2B2AA" stroke="black" stroke-width="0.330856"/>
<path d="M81.652 98.1962V79.5776L76.002 62.6106V31.6797H113.548V62.6106L105.893 79.5776V98.1962H81.652Z" fill="#333300"/>
<path d="M84.2043 98.0461V79.5776L79.8301 62.4605V31.6797H109.721V62.4605L103.706 79.5776V98.0461H84.2043Z" fill="#404005"/>
<path d="M85.4804 98.0461V79.5776L81.653 62.4605L81.4707 31.6797H107.898V62.4605L102.613 79.5776V98.0461H85.4804Z" fill="#4C4C16"/>
<path d="M88.2137 98.0461V79.5776L85.2975 62.4605L85.1152 31.6797H104.07L104.253 62.4605L100.425 79.5776V98.0461H88.2137Z" fill="#595926"/>
<path d="M92.0408 98.1962V79.5776L90.9473 62.6106V31.6797H98.4199V62.6106L96.9618 79.5776V98.1962H92.0408Z" fill="#666638"/>
<path d="M81.652 98.1962V79.5776L76.002 62.6106V31.6797H113.548V62.6106L105.893 79.5776V98.1962H81.652Z" stroke="black" stroke-width="0.330856"/>
<path d="M67.4355 0.601562H114.459V9.91087H67.4355V0.601562Z" fill="#919170"/>
<path d="M70.3516 0.601562H111.725V9.91087H70.3516V0.601562Z" fill="#A6A68A"/>
<path d="M77.8242 0.601562H104.252V9.91087H77.8242V0.601562Z" fill="#B8B8A4"/>
<path d="M85.2969 0.601562H96.597V9.91087H85.2969V0.601562Z" fill="#CCCCBD"/>
<path d="M60.875 0.601562H121.021V9.91087H60.875V0.601562Z" stroke="black" stroke-width="0.330856"/>
<path d="M76.002 43.9922H113.548" stroke="black" stroke-width="0.330856"/>
<path d="M76.002 59.4609H113.548" stroke="black" stroke-width="0.330856"/>
<path d="M113.548 62.6094H76.002" stroke="black" stroke-width="0.330856"/>
<path d="M105.893 79.5781H81.6523" stroke="black" stroke-width="0.330856"/>
<path d="M77.8242 101.203H109.72" stroke="black" stroke-width="0.330856"/>
<path d="M109.72 102.703H77.8242" stroke="black" stroke-width="0.330856"/>
<path d="M143.439 36.3345L149.09 36.1843V26.875L143.439 27.0252V28.5267L147.267 28.3765V34.6828H143.439V36.3345Z" fill="#E5E5DD" stroke="black" stroke-width="0.330856"/>
<path d="M90.0371 29.2812H99.3324V31.6837H90.0371V29.2812Z" fill="#4C4C16" stroke="black" stroke-width="0.330856"/>
<path d="M51.5801 43.9922H59.0527V53.3015H51.5801V43.9922Z" fill="#B2B2B2" stroke="black" stroke-width="0.330856"/>
<path d="M113.548 33.1797H4.55664V34.6812H30.8021L76.0026 36.3328H113.548V33.1797Z" fill="#B2B2B2" stroke="black" stroke-width="0.330856"/>
<path d="M70.3522 43.992H40.2793V31.6797H42.1019V42.4905H70.3522V43.992Z" fill="#CCCCBD" stroke="black" stroke-width="0.330856"/>
<path d="M62.6969 59.4608V53.3047H49.5742V54.8062H59.0517V59.4608H62.6969Z" fill="#CCCCBD" stroke="black" stroke-width="0.330856"/>
<path d="M15.8558 62.6094L14.0332 74.9217V139.937" stroke="#4C4C16" stroke-width="0.330856"/>
<path d="M47.7523 139.937V74.9217L45.9297 62.6094" stroke="#4C4C16" stroke-width="0.330856"/>
<path d="M17.6797 81.0781H44.1074V133.631H17.6797V81.0781Z" stroke="#4C4C16" stroke-width="0.330856"/>
<path d="M21.5059 87.2344H40.2786V88.886H21.5059V87.2344Z" fill="#CCCCBD" stroke="#CCCCBD" stroke-width="0.330856"/>
<path d="M36.4512 87.2344H40.2786V88.886H36.4512V87.2344Z" fill="black"/>
<path d="M21.5059 87.2344H23.3285V88.886H21.5059V87.2344Z" fill="black"/>
<path d="M24.2402 87.2344H28.0677V88.886H24.2402V87.2344Z" fill="black"/>
<path d="M28.9785 87.2344H35.5399V88.886H28.9785V87.2344Z" fill="black"/>
<path d="M21.1417 109.606L19.6836 107.354L22.4175 105.102L25.1514 107.354L23.8756 109.606L22.4175 117.414L21.1417 109.606Z" fill="black"/>
<path d="M76.002 34.6875H113.548" stroke="white" stroke-width="0.330856"/>
</g>
<defs>
<clipPath id="clip0_2122_168486">
<rect width="150" height="150" fill="white"/>
</clipPath>
</defs>
</svg>
