<svg width="150" height="150" viewBox="0 0 150 150" fill="none" xmlns="http://www.w3.org/2000/svg">
<path d="M28.528 148.771H16.6662H15.9154L15.0145 148.42L14.2638 147.893L13.513 147.366L12.7623 146.488L12.0115 145.434L11.2608 144.38L10.51 142.975L9.9094 141.57L9.15865 139.989L8.4079 138.057L7.8073 136.125L7.2067 134.193L6.6061 131.909L6.0055 129.626L5.55505 127.167L4.95444 124.532L4.50399 121.898L4.05354 119.087L3.60309 116.277L3.15264 113.291L2.70219 110.13L2.40189 106.968L2.10159 103.631L1.80129 100.294L1.50099 96.9563L1.35084 93.2678L1.20069 89.7549L1.05054 86.242L0.900391 82.5535V78.6893V75.0008V71.1367V67.4481L1.05054 63.7596L1.20069 60.0711L1.35084 56.5582L1.50099 53.0453L1.80129 49.5324L2.10159 46.1952L2.40189 42.858L2.70219 39.6964L3.15264 36.7104L3.60309 33.5488L4.05354 30.7385L4.50399 27.9282L4.95444 25.2936L5.55505 22.6589L6.0055 20.1999L6.6061 17.9165L7.2067 15.8088L7.8073 13.7011L8.4079 11.769L9.15865 10.0125L9.9094 8.25609L10.51 6.85094L11.2608 5.44579L12.0115 4.39192L12.7623 3.33806L13.513 2.45984L14.2638 1.93291L15.0145 1.40598L15.9154 1.05469H16.6662H28.528V148.771Z" fill="#CCCCCC" stroke="black" stroke-width="0.324795"/>
<path d="M28.5294 148.596C37.2366 148.596 44.2952 115.567 44.2952 74.8252C44.2952 34.0829 37.2366 1.05469 28.5294 1.05469C19.8222 1.05469 12.7637 34.0829 12.7637 74.8252C12.7637 115.567 19.8222 148.596 28.5294 148.596Z" fill="#B2B2B2"/>
<path d="M28.5294 74.9968L36.3372 139.107L35.4363 141.39L34.5354 143.147L33.6345 144.903L32.5835 146.308L31.5324 147.362L30.4814 148.24L29.4303 148.767H28.5294H27.6285L26.8778 148.416L26.127 147.889L25.3763 147.362L24.6255 146.484L23.8748 145.43L23.124 144.376L22.3733 142.971L21.6225 141.566L21.0219 139.985L20.2712 138.053L19.6706 136.121L19.07 134.189L18.4694 131.905L17.8688 129.622L17.2682 127.163L16.8177 124.528L16.2171 121.894L15.9168 119.083L15.4664 116.273L15.0159 113.287L14.5655 110.126L14.2652 106.964L13.9649 103.627L13.6646 100.29L13.3643 96.9523L13.2141 93.2637L13.064 89.7509L12.9138 86.238L12.7637 82.5495V78.6853V74.9968V73.7673V72.5377V71.3082V70.0787V69.0249V67.6197V66.5658L12.9138 65.1607V64.1068V62.8773L13.064 61.6478V60.594V59.3644V58.1349L13.2141 56.9054V55.8516L28.5294 74.9968Z" fill="#C4C4C4"/>
<path d="M28.5294 75L32.5835 146.136L31.9829 146.663L31.5324 147.19L31.082 147.717L30.4814 148.068L30.0309 148.419L29.4303 148.595L28.9799 148.77H28.5294H27.6285L26.8778 148.419L26.127 147.892L25.3763 147.365L24.6255 146.487L23.8748 145.433L23.124 144.379L22.3733 142.974L21.6225 141.569L21.0219 139.988L20.2712 138.056L19.6706 136.124L19.07 134.192L18.4694 131.909L17.8688 129.625L17.2682 127.166L16.8177 124.532L16.2171 121.897L15.9168 119.087L15.4664 116.276L15.0159 113.29L14.5655 110.129L14.2652 106.967L13.9649 103.63L13.6646 100.293L13.3643 96.9555L13.2141 93.267L13.064 89.7541L12.9138 86.2412L12.7637 82.5527V78.6885V75H28.5294Z" fill="#D4D4D4"/>
<path d="M28.5287 75L24.3245 146.136L23.5737 145.258L22.9731 144.028L22.2224 142.623L21.4716 141.218L20.871 139.461L20.1202 137.529L19.5196 135.597L18.919 133.489L18.3184 131.206L17.7178 128.747L17.1172 126.288L16.6668 123.653L16.0662 120.843L15.6157 118.033L15.1653 115.047L14.7148 111.885L28.5287 75Z" fill="#E5E5E5"/>
<path d="M28.5293 74.999L32.5834 3.6875L33.3341 4.56572L33.9347 5.79523L34.6855 7.20038L35.4362 8.78118L36.187 10.362L36.7876 12.2941L37.3882 14.2261L38.1389 16.3339L38.7395 18.6172L39.3401 21.0763L39.7906 23.5353L40.3912 26.1699L40.8416 28.9802L41.4422 31.9662L41.7425 34.9521L42.193 37.9381L28.5293 74.999Z" fill="#C4C4C4"/>
<path d="M28.5294 148.596C37.2366 148.596 44.2952 115.567 44.2952 74.8252C44.2952 34.0829 37.2366 1.05469 28.5294 1.05469C19.8222 1.05469 12.7637 34.0829 12.7637 74.8252C12.7637 115.567 19.8222 148.596 28.5294 148.596Z" stroke="black" stroke-width="0.324795"/>
<path d="M107.508 95.7292H29.4303L28.6796 95.5536L27.9288 95.2023L27.3282 94.6753L26.7276 94.1484L26.127 93.2702L25.5264 92.2163L25.076 90.9868L24.6255 89.5817L24.1751 88.1765L23.7246 86.5957L23.4243 84.8393L23.124 83.0828L22.8237 81.1507L22.6736 79.2187V77.1109L22.5234 75.0032L22.6736 72.7198V70.7877L22.8237 68.8557L23.124 66.9236L23.4243 65.1671L23.7246 63.4107L24.1751 61.8299L24.6255 60.2491L25.076 59.0196L25.5264 57.7901L26.127 56.7362L26.7276 55.858L27.3282 55.1554L27.9288 54.6285L28.6796 54.2772L29.4303 54.1016H107.508V95.7292Z" fill="#999999"/>
<path d="M107.507 92.5623H26.1253L25.9752 92.3866L25.825 92.211V91.684L25.5247 91.1571L25.2244 90.4545L24.9241 89.5763L24.6238 88.5225L24.3235 87.2929L24.0232 86.0634L23.7229 84.8339L23.4226 83.2531L23.1223 81.6723L22.9722 80.0915L22.6719 78.3351V76.5787V74.8222L26.1253 57.2578H107.507V92.5623Z" fill="#ADADAD"/>
<path d="M107.507 89.4031H24.774L24.6238 89.0519V88.7006L24.4737 88.3493L24.3235 87.6467L24.0232 86.9441L23.8731 86.0659L23.7229 85.1877L23.4226 84.1338L23.2725 82.9043L23.1223 81.8504L22.9722 80.6209L22.822 79.2158L22.6719 77.8106V76.4055V74.8247L24.774 60.4219H107.507V89.4031Z" fill="#C2C2C2"/>
<path d="M107.507 86.24H23.8731V86.0643L23.7229 85.3618L23.4226 84.3079L23.2725 82.9027L23.1223 81.3219L22.822 79.2142L22.6719 77.1065V74.8231L23.8731 63.4062H107.507V86.24Z" fill="#D6D6D6"/>
<path d="M107.507 83.2565H23.4226V83.0809V82.5539L23.2725 81.8513L23.1223 80.7975L22.9722 79.568L22.822 78.1628L22.6719 76.582V74.8256L23.4226 66.5703H107.507V83.2565Z" fill="#EBEBEB"/>
<path d="M107.507 80.0974H22.9722H23.1223L22.9722 79.7461V79.2192L22.822 78.6922V77.814L22.6719 76.9358V76.0576V75.0037V73.9498V72.896V72.0177L22.822 71.3152L22.9722 70.6126V70.0857V69.91V69.7344H107.507V80.0974Z" fill="white"/>
<path d="M107.507 95.7292H29.4286L28.6779 95.5536L27.9271 95.2023L27.3265 94.6753L26.7259 94.1484L26.1253 93.2702L25.5247 92.2163L25.0743 90.9868L24.6238 89.5817L24.1734 88.1765L23.7229 86.5957L23.4226 84.8393L23.1223 83.0828L22.9722 81.1507L22.6719 79.2187V77.1109V75.0032V72.7198V70.7877L22.9722 68.8557L23.1223 66.9236L23.4226 65.1671L23.7229 63.4107L24.1734 61.8299L24.6238 60.2491L25.0743 59.0196L25.5247 57.7901L26.1253 56.7362L26.7259 55.858L27.3265 55.1554L27.9271 54.6285L28.6779 54.2772L29.4286 54.1016H107.507V95.7292Z" stroke="black" stroke-width="0.324795"/>
<path d="M131.231 148.771H119.369H118.468L117.718 148.42L116.967 147.893L116.216 147.366L115.465 146.488L114.715 145.434L113.964 144.38L113.213 142.975L112.462 141.57L111.862 139.989L111.111 138.057L110.51 136.125L109.91 134.193L109.309 131.909L108.709 129.626L108.108 127.167L107.658 124.532L107.207 121.898L106.757 119.087L106.306 116.277L105.856 113.291L105.405 110.13L105.105 106.968L104.805 103.631L104.504 100.294L104.204 96.9563L104.054 93.2678L103.904 89.7549L103.754 86.242L103.604 82.5535V78.6893V75.0008V71.1367V67.4481L103.754 63.7596L103.904 60.0711L104.054 56.5582L104.204 53.0453L104.504 49.5324L104.805 46.1952L105.105 42.858L105.405 39.6964L105.856 36.7104L106.306 33.5488L106.757 30.7385L107.207 27.9282L107.658 25.2936L108.108 22.6589L108.709 20.1999L109.309 17.9165L109.91 15.8088L110.51 13.7011L111.111 11.769L111.862 10.0125L112.462 8.25609L113.213 6.85094L113.964 5.44579L114.715 4.39192L115.465 3.33806L116.216 2.45984L116.967 1.93291L117.718 1.40598L118.468 1.05469H119.369H131.231V148.771Z" fill="#CCCCCC" stroke="black" stroke-width="0.324795"/>
<path d="M131.08 148.596C139.787 148.596 146.846 115.567 146.846 74.8252C146.846 34.0829 139.787 1.05469 131.08 1.05469C122.373 1.05469 115.314 34.0829 115.314 74.8252C115.314 115.567 122.373 148.596 131.08 148.596Z" fill="#B2B2B2"/>
<path d="M131.23 74.9968L139.038 139.107L138.137 141.39L137.236 143.147L136.335 144.903L135.284 146.308L134.233 147.362L133.182 148.24L132.131 148.767H131.23H130.329L129.579 148.416L128.828 147.889L127.927 147.362L127.176 146.484L126.426 145.43L125.675 144.376L125.074 142.971L124.323 141.566L123.573 139.985L122.972 138.053L122.372 136.121L121.621 134.189L121.17 131.905L120.57 129.622L119.969 127.163L119.519 124.528L118.918 121.894L118.468 119.083L118.017 116.273L117.567 113.287L117.266 110.126L116.966 106.964L116.666 103.627L116.366 100.29L116.065 96.9523L115.915 93.2637L115.615 89.7509V86.238L115.465 82.5495L115.314 78.6853V74.9968V73.7673V72.5377V71.3082L115.465 70.0787V69.0249V67.6197V66.5658L115.615 65.1607V64.1068V62.8773V61.6478V60.594L115.765 59.3644V58.1349L115.915 56.9054V55.8516L131.23 74.9968Z" fill="#C4C4C4"/>
<path d="M131.23 75L135.134 146.136L134.684 146.663L134.233 147.19L133.783 147.717L133.182 148.068L132.732 148.419L132.131 148.595L131.681 148.77H131.23H130.329L129.579 148.419L128.828 147.892L127.927 147.365L127.176 146.487L126.426 145.433L125.675 144.379L125.074 142.974L124.323 141.569L123.573 139.988L122.972 138.056L122.372 136.124L121.621 134.192L121.17 131.909L120.57 129.625L119.969 127.166L119.519 124.532L118.918 121.897L118.468 119.087L118.017 116.276L117.567 113.29L117.266 110.129L116.966 106.967L116.666 103.63L116.366 100.293L116.065 96.9555L115.915 93.267L115.615 89.7541V86.2412L115.465 82.5527L115.314 78.6885V75H131.23Z" fill="#D4D4D4"/>
<path d="M131.232 75L127.178 146.136L126.427 145.258L125.676 144.028L124.925 142.623L124.175 141.218L123.574 139.461L122.823 137.529L122.223 135.597L121.622 133.489L120.871 131.206L120.421 128.747L119.82 126.288L119.22 123.653L118.769 120.843L118.319 118.033L117.868 115.047L117.418 111.885L131.232 75Z" fill="#E5E5E5"/>
<path d="M131.23 74.999L135.134 3.6875L136.035 4.56572L136.636 5.79523L137.387 7.20038L138.137 8.78118L138.738 10.362L139.489 12.2941L140.089 14.2261L140.69 16.3339L141.441 18.6172L141.891 21.0763L142.492 23.5353L143.092 26.1699L143.543 28.9802L143.993 31.9662L144.444 34.9521L144.894 37.9381L131.23 74.999Z" fill="#C4C4C4"/>
<path d="M131.08 148.596C139.787 148.596 146.846 115.567 146.846 74.8252C146.846 34.0829 139.787 1.05469 131.08 1.05469C122.373 1.05469 115.314 34.0829 115.314 74.8252C115.314 115.567 122.373 148.596 131.08 148.596Z" stroke="black" stroke-width="0.324795"/>
<path d="M144.444 95.7292H131.981L131.231 95.5536L130.63 95.2023L129.879 94.6753L129.279 94.1484L128.678 93.2702L128.228 92.2163L127.627 90.9868L127.177 89.5817L126.726 88.1765L126.426 86.5957L125.975 84.8393L125.675 82.9072L125.525 81.1507L125.375 79.2187L125.225 77.1109V75.0032V72.7198L125.375 70.7877L125.525 68.8557L125.675 66.9236L125.975 64.9915L126.426 63.4107L126.726 61.6543L127.177 60.2491L127.627 58.844L128.228 57.7901L128.678 56.7362L129.279 55.858L129.879 55.1554L130.63 54.6285L131.231 54.2772L131.981 54.1016H144.444V95.7292Z" fill="#999999"/>
<path d="M144.444 92.5623H128.678V92.3866L128.528 92.211L128.378 91.684L128.077 91.1571L127.927 90.4545L127.627 89.5763L127.177 88.5225L126.876 87.2929L126.576 86.0634L126.276 84.8339L125.975 83.2531L125.675 81.6723L125.525 80.0915L125.375 78.3351L125.225 76.5787V74.8222L128.678 57.2578H144.444V92.5623Z" fill="#ADADAD"/>
<path d="M144.444 89.4031H127.477H127.327V89.0519L127.177 88.7006L127.026 88.3493L126.876 87.6467L126.726 86.9441L126.426 86.0659L126.276 85.1877L126.126 84.1338L125.975 82.9043L125.675 81.8504L125.525 80.6209L125.375 79.2158L125.225 77.8106V76.4055V74.8247L127.477 60.4219H144.444V89.4031Z" fill="#C2C2C2"/>
<path d="M144.444 86.24H126.576L126.426 86.0643L126.276 85.3618L125.975 84.3079L125.825 82.9027L125.675 81.3219L125.525 79.2142L125.375 77.1065L125.225 74.8231L126.576 63.4062H144.444V86.24Z" fill="#D6D6D6"/>
<path d="M144.444 83.2565H125.975V83.0809V82.5539L125.825 81.8513L125.675 80.7975L125.525 79.568L125.375 78.1628V76.582L125.225 74.8256L125.975 66.5703H144.444V83.2565Z" fill="#EBEBEB"/>
<path d="M144.444 80.0974H125.525H125.675L125.525 79.7461V79.2192V78.6922L125.375 77.814L125.225 76.9358V76.0576V75.0037V73.9498V72.896L125.375 72.0177V71.3152L125.525 70.6126V70.0857V69.91V69.7344H144.444V80.0974Z" fill="white"/>
<path d="M144.444 95.7292H131.981L131.231 95.5536L130.63 95.2023L129.879 94.6753L129.279 94.1484L128.678 93.2702L128.228 92.2163L127.627 90.9868L127.177 89.5817L126.726 88.1765L126.426 86.5957L125.975 84.8393L125.675 82.9072L125.525 81.1507L125.375 79.2187L125.225 77.1109V75.0032V72.7198L125.375 70.7877L125.525 68.8557L125.675 66.9236L125.975 64.9915L126.426 63.4107L126.726 61.6543L127.177 60.2491L127.627 58.844L128.228 57.7901L128.678 56.7362L129.279 55.858L129.879 55.1554L130.63 54.6285L131.231 54.2772L131.981 54.1016H144.444V95.7292Z" stroke="black" stroke-width="0.324795"/>
<path d="M144.444 95.5536C146.849 95.5536 148.799 86.2742 148.799 74.8276C148.799 63.3809 146.849 54.1016 144.444 54.1016C142.039 54.1016 140.09 63.3809 140.09 74.8276C140.09 86.2742 142.039 95.5536 144.444 95.5536Z" fill="#CCCCCC" stroke="black" stroke-width="0.324795"/>
<path d="M144.444 85.3666C145.605 85.3666 146.546 80.7269 146.546 75.0036C146.546 69.2803 145.605 64.6406 144.444 64.6406C143.283 64.6406 142.342 69.2803 142.342 75.0036C142.342 80.7269 143.283 85.3666 144.444 85.3666Z" stroke="black" stroke-width="0.324795"/>
</svg>
