<svg width="150" height="150" viewBox="0 0 150 150" fill="none" xmlns="http://www.w3.org/2000/svg">
<g clip-path="url(#clip0_2122_168413)">
<path d="M25.976 150V134.793H22.8228L19.5195 142.396H3.15315L0 134.793V105.069L3.15315 97.4654H19.5195L22.8228 105.069H25.976V89.8618H39.039V75L19.5195 0H71.6216L52.1021 75V89.8618H91.2913L84.6847 59.7926H107.508L101.051 89.8618H150V150H25.976Z" fill="#00FFFF" stroke="black" stroke-width="0.45561"/>
<path d="M146.697 142.4L140.24 97.4688L133.634 142.4L127.177 97.4688L120.571 142.4L114.114 97.4688L107.508 142.4L101.051 97.4688L94.4445 142.4L87.988 97.4688L81.5315 142.4L74.9249 97.4688L68.4685 142.4L61.8619 97.4688L55.4054 142.4L48.7988 97.4688L42.3424 142.4L35.8859 97.4688L29.2793 142.4" stroke="black" stroke-width="0.45561"/>
<path d="M39.0391 75H52.1021" stroke="black" stroke-width="0.45561"/>
<path d="M39.0391 89.8594H52.1021" stroke="black" stroke-width="0.45561"/>
<path d="M91.291 89.8594H101.051" stroke="black" stroke-width="0.45561"/>
<path d="M22.8223 134.794V105.07" stroke="black" stroke-width="0.45561"/>
<path d="M25.9766 105.07V134.794" stroke="black" stroke-width="0.45561"/>
</g>
<defs>
<clipPath id="clip0_2122_168413">
<rect width="150" height="150" fill="white"/>
</clipPath>
</defs>
</svg>
