<svg width="150" height="150" viewBox="0 0 150 150" fill="none" xmlns="http://www.w3.org/2000/svg">
<path d="M115.166 68.3594V74.8389H142.944V68.3594H115.166Z" fill="#596D8C"/>
<path d="M146.097 100.107C147.838 100.107 149.25 97.0609 149.25 93.3035C149.25 89.546 147.838 86.5 146.097 86.5C144.355 86.5 142.943 89.546 142.943 93.3035C142.943 97.0609 144.355 100.107 146.097 100.107Z" fill="#596D8C" stroke="black" stroke-width="0.441111"/>
<path d="M146.095 96.542C146.925 96.542 147.597 95.0915 147.597 93.3022C147.597 91.513 146.925 90.0625 146.095 90.0625C145.266 90.0625 144.594 91.513 144.594 93.3022C144.594 95.0915 145.266 96.542 146.095 96.542Z" fill="#405473"/>
<path d="M59.4597 74.839L50.1504 8.10033L53.3035 1.29688H96.5468L99.6999 8.10033L90.3906 74.839H59.4597Z" fill="#596D8C" stroke="black" stroke-width="0.441111"/>
<path d="M59.4589 74.839L53.3027 1.29688H96.546L90.3898 74.839H59.4589Z" fill="#8CA0BF" stroke="black" stroke-width="0.441111"/>
<path d="M6.90787 148.378V138.335H0.601562V78.3997H6.90787V74.8359H142.944V148.378H6.90787Z" fill="#8CA0BF" stroke="black" stroke-width="0.441111"/>
<path d="M56.3066 74.8359V148.378" stroke="black" stroke-width="0.441111"/>
<path d="M93.543 74.8359V148.378" stroke="black" stroke-width="0.441111"/>
<path d="M9.91016 74.8389V68.3594H22.3726V74.8389H9.91016Z" fill="#7387A6" stroke="black" stroke-width="0.441111"/>
<path d="M115.166 68.3574V34.6641H142.944V68.3574H115.166Z" fill="#7387A6" stroke="black" stroke-width="0.441111"/>
<path d="M8.4082 81.6406V138.336H54.8046V81.6406H8.4082Z" fill="#7387A6"/>
<path d="M84.2341 21.3828V61.2316H65.7656" stroke="#A6BAD9" stroke-width="0.441111"/>
<path d="M65.6152 61.5556V21.3828H84.2339" stroke="#596D8C" stroke-width="0.441111"/>
<path d="M65.166 62.5307V20.4141H84.6855" stroke="#A6BAD9" stroke-width="0.441111"/>
<path d="M84.8357 20.0859V62.5265H65.166" stroke="#596D8C" stroke-width="0.441111"/>
<path d="M71.9219 31.4219H78.078V38.2253H71.9219V31.4219Z" fill="#E5E5E5"/>
<path d="M73.4238 34.6641H76.4268" stroke="#FF0000" stroke-width="0.441111"/>
<path d="M50.9004 12.9612L54.0535 8.10156H95.7953L98.9484 12.9612" stroke="#405473" stroke-width="0.441111"/>
<path d="M84.2344 16.5234H85.7359V19.7632H84.2344V16.5234Z" fill="#7387A6" stroke="#405473" stroke-width="0.441111"/>
<path d="M85.7363 18.1406V19.7605H87.2378L88.5892 20.0845L89.7904 20.4084L90.9916 20.7324L92.0426 21.3804L93.0937 22.0283L93.9946 22.6763L94.8955 23.6482L95.6462 24.6201L96.2468 25.592L96.8474 26.8879L97.2979 28.1838L97.5982 29.8037L97.8985 31.0996L98.0486 33.0434L98.1988 34.6633L98.0486 36.6071L97.8985 38.227L97.5982 39.5229L97.1477 41.1428L96.6973 42.1147L96.0967 43.4106L95.4961 44.3825L94.7453 45.0305L93.9946 45.6784L93.0937 46.3264L92.1928 46.6503H91.2919L90.391 46.9743H89.3399L88.2889 46.6503H87.2378V48.2702H89.0396H90.6913H92.0426L93.394 47.6223L94.445 47.2983L95.3459 46.3264L96.0967 45.6784L96.8474 44.7065L97.448 43.4106L97.8985 42.4387L98.1988 41.1428L98.4991 39.8469L98.6492 38.551L98.7994 37.2551L98.9495 35.9592V34.6633V33.3674L98.7994 32.0715L98.6492 30.7756L98.4991 29.1557L98.1988 27.8598L97.7483 26.564L97.2979 25.2681L96.6973 23.9722L95.9465 22.6763L95.0456 21.7043L93.9946 20.7324L92.6432 19.7605L91.2919 19.1125L89.6402 18.4646L87.8384 18.1406H85.7363Z" fill="#405473"/>
<path d="M85.7363 40.1719H87.2378V49.8911H85.7363V40.1719Z" fill="#7387A6" stroke="#405473" stroke-width="0.441111"/>
<path d="M6.90625 138.334V78.3984" stroke="black" stroke-width="0.441111"/>
<path d="M8.4082 88.1172H54.8046V91.6809H8.4082V88.1172Z" fill="#263A59"/>
<path d="M8.4082 101.406H54.8046V104.97H8.4082V101.406Z" fill="#263A59"/>
<path d="M8.4082 115.008H54.8046V118.248H8.4082V115.008Z" fill="#263A59"/>
<path d="M8.4082 128.297H54.8046V131.537H8.4082V128.297Z" fill="#263A59"/>
<path d="M6.90631 88.1172H4.50391V91.6809H6.90631V88.1172Z" fill="#263A59"/>
<path d="M6.90631 101.406H4.50391V104.97H6.90631V101.406Z" fill="#263A59"/>
<path d="M6.90631 115.008H4.50391V118.248H6.90631V115.008Z" fill="#263A59"/>
<path d="M6.90631 128.297H4.50391V131.537H6.90631V128.297Z" fill="#263A59"/>
<path d="M95.7949 133.151V79.6953H114.414V133.151H95.7949Z" fill="#596D8C"/>
<path d="M90.3896 121.49L88.8881 118.25H81.2305V121.49H90.3896Z" fill="#A6BAD9"/>
<path d="M70.2695 121.49L71.0203 118.25H78.8281L79.5788 121.49H70.2695Z" fill="#A6BAD9"/>
<path d="M59.459 121.49L60.9605 118.25H68.7683V121.49H59.459Z" fill="#A6BAD9"/>
<path d="M59.459 91.686L60.9605 89.7422H88.8884L90.3899 91.686H59.459Z" fill="#A6BAD9"/>
<path d="M59.459 91.6838V81.6406H90.3899V91.6838L88.8884 89.74V84.8804H60.9605V89.74L59.459 91.6838Z" fill="#596D8C"/>
<path d="M90.3896 94.9219V121.488L88.8881 118.248V98.1616H81.2305V94.9219H90.3896Z" fill="#596D8C"/>
<path d="M70.2695 94.9219V121.488L71.0203 118.248V98.1616H78.8281V118.248L79.5788 121.488V94.9219H70.2695Z" fill="#596D8C"/>
<path d="M59.459 94.9219V121.488L60.9605 118.248V98.1616H68.7683V94.9219H59.459Z" fill="#596D8C"/>
<path d="M60.9609 84.8828H88.8889V89.7424H60.9609V84.8828Z" fill="#405473"/>
<path d="M60.9609 98.1641H68.7687V118.25H60.9609V98.1641Z" fill="#405473"/>
<path d="M71.0215 98.1641H78.8293V118.25H71.0215V98.1641Z" fill="#405473"/>
<path d="M81.082 98.1641H88.8898V118.25H81.082V98.1641Z" fill="#405473"/>
<path d="M59.459 128.297H90.3899" stroke="#A6BAD9" stroke-width="0.441111"/>
<path d="M59.459 135.094H90.3899" stroke="#A6BAD9" stroke-width="0.441111"/>
<path d="M59.459 128.945H90.3899" stroke="#596D8C" stroke-width="0.441111"/>
<path d="M59.459 135.742H90.3899" stroke="#596D8C" stroke-width="0.441111"/>
<path d="M59.459 145.141H90.3899" stroke="#A6BAD9" stroke-width="0.441111"/>
<path d="M59.459 145.789H90.3899" stroke="#596D8C" stroke-width="0.441111"/>
<path d="M142.943 100.109H149.25V103.349L145.346 106.589L142.943 131.535V100.109Z" fill="#7387A6" stroke="black" stroke-width="0.441111"/>
<path d="M128.978 64.7924C132.378 64.7924 135.135 58.8455 135.135 51.5095C135.135 44.1735 132.378 38.2266 128.978 38.2266C125.578 38.2266 122.822 44.1735 122.822 51.5095C122.822 58.8455 125.578 64.7924 128.978 64.7924Z" fill="#596D8C"/>
<path d="M128.228 57.6675C130.302 57.6675 131.982 54.0413 131.982 49.5681C131.982 45.095 130.302 41.4688 128.228 41.4688C126.155 41.4688 124.475 45.095 124.475 49.5681C124.475 54.0413 126.155 57.6675 128.228 57.6675Z" fill="#667A99"/>
<path d="M124.624 61.2287L123.273 56.6931L122.822 51.5095L123.273 46.6499L124.624 42.1143L126.726 39.1985L129.129 38.2266L131.381 39.1985L133.483 42.1143" stroke="#A6BAD9" stroke-width="0.441111"/>
<path d="M127.478 51.1904C128.307 51.1904 128.98 49.7399 128.98 47.9507C128.98 46.1614 128.307 44.7109 127.478 44.7109C126.649 44.7109 125.977 46.1614 125.977 47.9507C125.977 49.7399 126.649 51.1904 127.478 51.1904Z" fill="#8CA0BF"/>
<path d="M25.375 76.4609H37.8375V81.6445H25.375V76.4609Z" fill="#FFFFD9"/>
<path d="M72.6719 101.406H77.1764V106.59H72.6719V101.406Z" fill="#CCCCA6"/>
<path d="M139.939 146.763V76.4609" stroke="#A6BAD9" stroke-width="0.441111"/>
<path d="M116.066 146.763V76.4609" stroke="#A6BAD9" stroke-width="0.441111"/>
<path d="M115.314 146.763V76.4609" stroke="#405473" stroke-width="0.441111"/>
<path d="M139.189 146.763V76.4609" stroke="#405473" stroke-width="0.441111"/>
<path d="M112.912 91.6875H146.095V94.9272H112.912V91.6875Z" fill="#A6BAD9" stroke="black" stroke-width="0.441111"/>
<path d="M112.912 86.5H146.095V89.7397H112.912V86.5Z" fill="#A6BAD9" stroke="black" stroke-width="0.441111"/>
<path d="M112.912 88.1172H146.095" stroke="white" stroke-width="0.441111"/>
<path d="M112.912 93.3047H146.095" stroke="white" stroke-width="0.441111"/>
<path d="M94.2949 129.917V76.4609H112.914V129.917H94.2949Z" fill="#739973" stroke="black" stroke-width="0.441111"/>
<path d="M95.7949 126.672V79.6953H111.26V126.672H95.7949Z" fill="#8CB28C"/>
<path d="M103.604 84.8828H105.105V88.1226H103.604V84.8828Z" fill="#E5E5E5"/>
<path d="M100.451 84.8828H101.953V88.1226H100.451V84.8828Z" fill="#E5E5E5"/>
<path d="M97.2969 84.8828H98.9485V88.1226H97.2969V84.8828Z" fill="#E5E5E5"/>
<path d="M97.2969 91.6875H98.9485V94.9272H97.2969V91.6875Z" fill="#E5E5E5"/>
<path d="M100.451 91.6875H101.953V94.9272H100.451V91.6875Z" fill="#E5E5E5"/>
<path d="M103.604 91.6875H105.105V94.9272H103.604V91.6875Z" fill="#E5E5E5"/>
<path d="M101.201 101.406H105.856V108.21H101.201V101.406Z" fill="#E5E5E5"/>
<path d="M101.951 103.352H102.852" stroke="#FF0000" stroke-width="0.441111"/>
<path d="M101.951 104.969H104.354" stroke="#FF0000" stroke-width="0.441111"/>
<path d="M119.82 11.3359H122.823V34.6621H119.82V11.3359Z" fill="#596D8C" stroke="black" stroke-width="0.441111"/>
<path d="M133.484 41.7891L134.835 46.3247L135.286 51.5083L134.835 56.3679L133.484 60.9035L131.382 63.8193L128.979 64.7912L126.727 63.8193L124.625 60.9035" stroke="#263A59" stroke-width="0.441111"/>
</svg>
