<svg width="150" height="150" viewBox="0 0 150 150" fill="none" xmlns="http://www.w3.org/2000/svg">
<g clip-path="url(#clip0_2122_169123)">
<path d="M43.2441 23.2704L115.466 126.901L129.13 117L130.331 115.845L131.382 114.524L132.433 113.369L133.635 112.049L134.686 110.729L135.737 109.409L136.638 108.089L137.538 106.604L138.439 105.284L139.34 103.798L140.241 102.313L140.992 100.828L141.743 99.343L142.493 97.6928L143.244 96.2077L143.845 94.5575L144.445 93.0723L145.046 91.4222L145.647 89.772L146.097 88.1219L146.547 86.4717L146.998 84.8215L147.448 83.1714L147.749 81.3562L148.049 79.706L148.349 77.8908L148.65 76.2407L148.8 74.5905L148.95 72.7753V70.9601L149.1 69.31V67.4948V64.0294L148.8 60.7291L148.349 57.4288L147.899 54.1285L147.298 50.8281L146.397 47.6928L145.496 44.5575L144.295 41.5872L143.094 38.6169L141.743 35.8116L140.391 33.0063L138.74 30.2011L137.088 27.5608L135.286 25.0856L133.334 22.6103L131.382 20.3001L129.28 18.1549L127.028 16.0096L124.776 14.0294L122.373 12.2143L119.821 10.3991L117.268 8.91393L114.716 7.42879L112.013 6.10865L109.31 4.78852L106.457 3.79842L103.604 2.80832L100.601 2.14826L97.5985 1.65321L94.5955 1.15816L91.5925 0.828125H88.4393H86.7877L85.136 0.993142H83.4844L81.9829 1.15816L80.3312 1.32317L78.8297 1.65321L77.1781 1.98324L75.6766 2.31327L74.0249 2.64331L72.5234 3.13836L71.0219 3.63341L69.5204 4.12846L68.0189 4.78852L66.5174 5.44859L65.0159 6.10865L63.5144 6.76872L62.1631 7.42879L60.6616 8.25387L59.3102 9.07895L57.9589 9.90403L56.6075 10.8941L55.2562 11.7192L53.9048 12.7093L52.5534 13.8644L51.3522 14.8545L50.151 16.0096L48.7997 16.9997L47.7486 18.3199L46.5474 19.475L45.3462 20.6301L44.2952 21.9502L43.2441 23.2704Z" fill="#666666"/>
<path d="M81.6821 137.951C115.184 137.951 142.343 108.103 142.343 71.2839C142.343 34.4649 115.184 4.61719 81.6821 4.61719C48.1802 4.61719 21.0215 34.4649 21.0215 71.2839C21.0215 108.103 48.1802 137.951 81.6821 137.951Z" fill="#CCCCCC"/>
<path d="M81.6816 71.2861L97.2973 6.92969L98.6486 7.25972L100.15 7.75477L101.501 8.41484L103.003 8.90989L104.354 9.40494L105.706 10.065L107.057 10.7251L108.408 11.5501L109.76 12.2102L110.961 13.0353L112.312 13.8604L113.664 14.6855L114.865 15.5105L116.216 16.5006L117.417 17.4907L118.619 18.3158L119.82 19.4709L121.021 20.461L122.072 21.4511L123.123 22.6063L124.324 23.7614L125.375 24.9165L126.276 26.0716L127.327 27.3917L128.378 28.5469L129.279 29.867L130.18 31.1871L131.081 32.3422L131.982 33.6624L132.733 35.1475L133.634 36.4676L134.384 37.7878L81.6816 71.2861Z" fill="#D4D4D4"/>
<path d="M81.6821 137.951C115.184 137.951 142.343 108.103 142.343 71.2839C142.343 34.4649 115.184 4.61719 81.6821 4.61719C48.1802 4.61719 21.0215 34.4649 21.0215 71.2839C21.0215 108.103 48.1802 137.951 81.6821 137.951Z" stroke="black" stroke-width="0.314816"/>
<path d="M22.9727 34.3251L95.1949 137.955L108.859 128.054L110.06 126.899L111.111 125.744L112.312 124.424L113.363 123.269L114.414 121.784L115.465 120.464L116.366 119.144L117.267 117.823L118.318 116.338L119.069 114.853L119.97 113.368L120.72 111.883L121.471 110.398L122.222 108.913L122.973 107.262L123.573 105.777L124.174 104.127L124.774 102.477L125.375 100.827L125.976 99.1765L126.276 97.5264L126.726 95.8762L127.177 94.226L127.477 92.4109L127.928 90.7607L128.078 89.1105L128.378 87.2954L128.528 85.6452L128.678 83.83L128.829 82.1798V80.3647V78.5495V75.2491L128.528 71.7838L128.228 68.4835L127.627 65.1831L127.027 61.8828L126.126 58.7475L125.225 55.7772L124.024 52.6419L122.823 49.6716L121.471 46.8663L120.12 44.061L118.468 41.4208L116.816 38.7805L115.015 36.1402L113.063 33.83L111.111 31.5198L109.009 29.2095L106.756 27.0643L104.504 25.2491L102.102 23.269L99.6994 21.6188L97.1468 19.9686L94.4441 18.4835L91.7414 17.1633L89.0387 16.0082L86.1859 14.8531L83.333 14.028L80.33 13.2029L77.4772 12.7079L74.324 12.2128L71.321 11.8828H68.1679H66.5162L65.0147 12.0478L63.363 12.2128L61.7114 12.3779L60.2099 12.5429L58.5582 12.7079L56.9066 13.0379L55.4051 13.368L53.7534 13.863L52.2519 14.193L50.7504 14.6881L49.2489 15.3482L47.7474 15.8432L46.2459 16.5033L44.7444 17.1633L43.2429 17.8234L41.8916 18.6485L40.3901 19.3086L39.0387 20.1336L37.6874 20.9587L36.336 21.9488L34.9847 22.9389L33.6333 23.929L32.282 24.9191L31.0808 25.9092L29.8796 27.0643L28.6784 28.2194L27.4772 29.3746L26.276 30.5297L25.0748 31.6848L24.0237 33.0049L22.9727 34.3251Z" fill="#999999"/>
<path d="M61.4107 149.013C94.9126 149.013 122.071 119.165 122.071 82.3464C122.071 45.5274 94.9126 15.6797 61.4107 15.6797C27.9087 15.6797 0.75 45.5274 0.75 82.3464C0.75 119.165 27.9087 149.013 61.4107 149.013Z" fill="#CCCCCC"/>
<path d="M61.4107 82.3414L91.741 140.262L90.0893 141.252L88.2875 142.242L86.6359 143.067L84.6839 144.058L82.8821 144.718L80.9302 145.543L79.1284 146.203L77.1764 146.698L75.2245 147.193L73.2725 147.688L71.3206 148.183L69.3686 148.513L67.2665 148.678L65.3146 149.008H63.3626H61.4107H58.2575L55.2545 148.678L52.2515 148.348L49.2485 147.688L46.2455 147.028L43.3926 146.038L40.5398 145.048L37.8371 143.728L35.1344 142.407L32.5818 140.922L30.0293 139.437L27.4767 137.622L25.0743 135.807L22.8221 133.827L20.5698 131.681L18.4677 129.536L16.5158 127.226L14.5638 124.751L12.762 122.275L11.1104 119.635L9.45871 116.995L8.10736 114.19L6.75601 111.219L5.5548 108.249L4.3536 105.279L3.4527 102.143L2.5518 99.0081L1.9512 95.7077L1.50075 92.4074L1.0503 89.1071L0.75 85.8067V82.3414V81.3513V80.1962L0.90015 79.0411V78.051L1.0503 76.8959V75.7407L1.20045 74.7506L1.3506 73.5955L1.50075 72.6054L1.6509 71.4503L1.80105 70.2952L2.10135 69.3051L2.2515 68.315L2.40165 67.1599L2.70195 66.1698L2.8521 65.1797L61.4107 82.3414Z" fill="#D4D4D4"/>
<path d="M61.4107 82.3438L77.0263 146.7L76.1254 146.865L75.2245 147.195L74.1734 147.36L73.2725 147.69L72.3716 147.855L71.3206 148.02L70.2695 148.185L69.3686 148.35L68.4677 148.515L67.4167 148.68H66.3656L65.3146 148.845L64.4137 149.01H63.3626H62.4617H61.4107H58.2575L55.2545 148.68L52.2515 148.35L49.2485 147.69L46.2455 147.03L43.3926 146.04L40.5398 145.05L37.8371 143.73L35.1344 142.41L32.5818 140.925L30.0293 139.439L27.4767 137.624L25.0743 135.809L22.8221 133.829L20.5698 131.684L18.4677 129.538L16.5158 127.228L14.5638 124.753L12.762 122.278L11.1104 119.637L9.45871 116.997L8.10736 114.192L6.75601 111.222L5.5548 108.251L4.3536 105.281L3.4527 102.146L2.5518 99.0104L1.9512 95.7101L1.50075 92.4098L1.0503 89.1094L0.75 85.8091V82.3438H61.4107Z" fill="#DEDEDE"/>
<path d="M61.4117 82.3438L45.7961 146.7L44.4447 146.205L42.9432 145.875L41.5919 145.215L40.2405 144.72L38.739 144.06L37.3877 143.4L36.0363 142.905L34.685 142.08L33.3336 141.42L32.1324 140.595L30.7811 139.769L29.4297 138.944L28.2285 137.954L27.0273 137.129L25.676 136.139L24.4748 135.149L23.2735 134.159L22.2225 133.169L21.0213 132.014L19.9702 131.024L18.769 129.869L17.718 128.713L16.8171 127.558L15.766 126.238L14.715 125.083L13.8141 123.763L12.9132 122.443L12.0123 121.123L11.1114 119.802L10.3606 118.482L9.45974 117.162L8.70898 115.677L61.4117 82.3438Z" fill="#E5E5E5"/>
<path d="M61.4121 82.3408L77.0277 17.9844L78.5292 18.4794L79.8806 18.8095L81.2319 19.4695L82.7334 19.9646L84.0848 20.6246L85.4361 21.2847L86.7875 21.7798L88.1388 22.6048L89.4902 23.2649L90.8415 24.09L92.1929 24.9151L93.3941 25.7402L94.7454 26.7302L95.9466 27.5553L97.1478 28.5454L98.349 29.3705L99.5502 30.5256L100.751 31.5157L101.802 32.6708L103.004 33.6609L104.055 34.8161L105.106 35.9712L106.157 37.1263L107.208 38.4464L108.109 39.6015L109.01 40.9217L110.061 42.2418L110.812 43.5619L111.712 44.8821L112.463 46.2022L113.364 47.5223L114.115 49.0075L61.4121 82.3408Z" fill="#D4D4D4"/>
<path d="M37.8379 86.1366L39.0391 79.2059L42.6427 72.9353L55.1052 65.1795L61.4115 63.8594L67.7178 65.1795L73.4235 69.1399L77.0271 75.4105L78.2283 82.3412L77.0271 89.2719L73.4235 95.5425L60.961 103.298L54.6547 104.618L48.3484 103.298L42.6427 99.3379L39.0391 93.0673L37.8379 86.1366Z" fill="#7F7F7F" stroke="black" stroke-width="0.314816"/>
<path d="M54.6547 104.62C63.9424 104.62 71.4715 96.3453 71.4715 86.1381C71.4715 75.9309 63.9424 67.6562 54.6547 67.6562C45.367 67.6562 37.8379 75.9309 37.8379 86.1381C37.8379 96.3453 45.367 104.62 54.6547 104.62Z" fill="#F7F7F7"/>
<path d="M54.8047 85.9766L54.6546 104.623L48.3483 103.303L42.6426 99.3429L54.8047 85.9766Z" fill="white"/>
<path d="M54.6547 104.62C63.9424 104.62 71.4715 96.3453 71.4715 86.1381C71.4715 75.9309 63.9424 67.6562 54.6547 67.6562C45.367 67.6562 37.8379 75.9309 37.8379 86.1381C37.8379 96.3453 45.367 104.62 54.6547 104.62Z" stroke="black" stroke-width="0.314816"/>
<path d="M54.6538 97.0263C60.2098 97.0263 64.7139 92.0763 64.7139 85.9702C64.7139 79.864 60.2098 74.9141 54.6538 74.9141C49.0978 74.9141 44.5938 79.864 44.5938 85.9702C44.5938 92.0763 49.0978 97.0263 54.6538 97.0263Z" stroke="black" stroke-width="0.314816"/>
<path d="M61.4107 149.013C94.9126 149.013 122.071 119.165 122.071 82.3464C122.071 45.5274 94.9126 15.6797 61.4107 15.6797C27.9087 15.6797 0.75 45.5274 0.75 82.3464C0.75 119.165 27.9087 149.013 61.4107 149.013Z" stroke="black" stroke-width="0.314816"/>
</g>
<defs>
<clipPath id="clip0_2122_169123">
<rect width="150" height="150" fill="white"/>
</clipPath>
</defs>
</svg>
