<svg width="150" height="150" viewBox="0 0 150 150" fill="none" xmlns="http://www.w3.org/2000/svg">
<g clip-path="url(#clip0_2122_168201)">
<path d="M6.15625 90.6953L26.4265 102.517H113.213V90.6953H6.15625Z" fill="#4C4C4C"/>
<path d="M113.213 90.6948V43.4079L88.7383 11.625H143.843L119.369 43.4079V90.6948H113.213Z" fill="#BF0000" stroke="black" stroke-width="0.341168"/>
<path d="M6.15625 59.1094V90.6985H113.213V59.1094H6.15625Z" fill="#CCCCCC" stroke="black" stroke-width="0.341168"/>
<path d="M113.213 61.2422H116.216V68.9941H113.213V61.2422Z" fill="#CCCCCC" stroke="black" stroke-width="0.341168"/>
<path d="M128.529 86.8217V75H146.848V86.8217H128.529Z" fill="#CCCCCC" stroke="black" stroke-width="0.341168"/>
<path d="M76.4258 94.7656V98.6416H107.056V94.7656H76.4258Z" fill="#BF0000"/>
<path d="M21.3223 94.7656V98.6416H67.2682V94.7656H21.3223Z" fill="#BF0000"/>
<path d="M3.00391 59.1112V39.3438H6.15706V59.1112H3.00391Z" fill="#FF7F7F" stroke="black" stroke-width="0.341168"/>
<path fill-rule="evenodd" clip-rule="evenodd" d="M88.7396 11.6279V0H143.845V11.6279H88.7396ZM27.4784 102.519V150H150.001V86.8217H125.376V102.519H100.902V90.6977H97.8988V102.519H64.2652V90.6977H61.2622V102.519H36.6375L6.15706 86.8217V59.1085H3.00391V90.6977L27.4784 102.519ZM107.058 102.519L113.214 90.6977H119.37L125.376 102.519H107.058Z" fill="#FF0000"/>
<path d="M88.7383 11.6279V0H143.843V11.6279H88.7383Z" stroke="black" stroke-width="0.341168"/>
<path d="M27.4784 102.52V150.001H150.001V86.8226H125.376V102.52H100.902V90.6985H97.8988V102.52H64.2652V90.6985H61.2622V102.52H36.6375L6.15706 86.8226V59.1094H3.00391V90.6985L27.4784 102.52Z" stroke="black" stroke-width="0.341168"/>
<path d="M107.057 102.517L113.213 90.6953H119.369L125.375 102.517H107.057Z" stroke="black" stroke-width="0.341168"/>
<path d="M0 55.2344H3.003V67.0561H0V55.2344Z" fill="#333333"/>
<path d="M128.529 90.6953H140.842V94.7651H128.529V90.6953Z" fill="black"/>
<path d="M33.6328 106.586V146.121H125.375V106.586H33.6328Z" fill="#666666"/>
<path d="M76.5762 127.519L79.5792 120.93L82.5822 127.519H76.5762Z" fill="#FFCC00"/>
<path d="M24.4746 106.586H27.4776V110.462H24.4746V106.586Z" stroke="black" stroke-width="0.341168"/>
<path d="M24.4746 114.344H27.4776V118.414H24.4746V114.344Z" stroke="black" stroke-width="0.341168"/>
<path d="M24.4746 122.289H27.4776V126.359H24.4746V122.289Z" stroke="black" stroke-width="0.341168"/>
<path d="M128.529 57.1719H116.217V73.0633H128.529V57.1719Z" fill="#A6A6A6"/>
<path d="M128.529 60.0781H116.217V70.1556H128.529V60.0781Z" fill="#CCCCCC"/>
<path d="M128.529 63.7578H116.217V66.471H128.529V63.7578Z" fill="white"/>
<path d="M128.529 57.1719H116.217V73.0633H128.529V57.1719Z" stroke="black" stroke-width="0.341168"/>
<path d="M128.979 77.5209V75.1953H146.546V77.5209H128.979Z" fill="#B2B2B2"/>
<path d="M125.375 75.0018V55.2344H146.846L150 75.0018H125.375Z" fill="#F2F2F2" stroke="black" stroke-width="0.341168"/>
<path d="M6.15625 39.3438V59.1112H113.213V39.3438H6.15625Z" fill="#F2F2F2" stroke="black" stroke-width="0.341168"/>
<path d="M48.9492 19.5703H55.1054V39.3378H48.9492V19.5703Z" fill="#D9D9D9" stroke="black" stroke-width="0.341168"/>
<path d="M55.1055 19.5703H67.2676V39.3378H55.1055V19.5703Z" fill="#B2B2B2" stroke="black" stroke-width="0.341168"/>
<path d="M67.2676 19.5703H73.4237V39.3378H67.2676V19.5703Z" fill="#8C8C8C" stroke="black" stroke-width="0.341168"/>
<path d="M73.4238 27.5156H76.4268V35.4614H73.4238V27.5156Z" fill="#4C4C4C"/>
<path d="M113.213 39.3387L100.9 15.6953H131.531L119.369 39.3387H113.213Z" fill="#A60000"/>
<path d="M113.213 39.3387L100.9 15.6953H131.531" stroke="#7F0000" stroke-width="0.341168"/>
<path d="M119.369 43.4141H113.213" stroke="#7F0000" stroke-width="0.341168"/>
</g>
<defs>
<clipPath id="clip0_2122_168201">
<rect width="150" height="150" fill="white"/>
</clipPath>
</defs>
</svg>
