<svg width="150" height="150" viewBox="0 0 150 150" fill="none" xmlns="http://www.w3.org/2000/svg">
<g clip-path="url(#clip0_2122_169142)">
<path d="M43.2441 23.2379L115.166 126.919L128.98 116.864L130.181 115.71L131.232 114.557L132.433 113.238L133.484 111.919L134.535 110.601L135.586 109.282L136.638 107.963L137.538 106.48L138.439 105.161L139.34 103.677L140.241 102.194L140.992 100.71L141.743 99.2269L142.493 97.5786L143.244 96.095L143.845 94.4467L144.595 92.9632L145.046 91.3148L145.647 89.6665L146.097 88.0181L146.698 86.3698L146.998 84.7214L147.448 83.0731L147.749 81.2599L148.049 79.6115L148.349 77.9632L148.65 76.3148L148.8 74.5016L148.95 72.8533V71.0401L149.1 69.2269V67.5786V64.117L148.8 60.8203L148.349 57.5236L147.899 54.2269L147.148 50.9302L146.397 47.7983L145.346 44.6665L144.295 41.6994L143.094 38.7324L141.743 35.7654L140.241 32.9632L138.74 30.3258L136.938 27.6884L135.136 25.2159L133.184 22.7434L131.232 20.4357L129.13 18.2928L126.878 16.15L124.626 14.172L122.223 12.1939L119.821 10.5456L117.118 8.89724L114.565 7.41372L111.863 6.09504L109.16 4.94119L106.307 3.78735L103.454 2.96317L100.451 2.13899L97.4483 1.64449L94.4453 1.14998L91.2922 0.820312H88.2892H86.6375L84.9859 0.985148H83.3342L81.6826 1.14998L80.1811 1.47965L78.5294 1.64449L77.0279 1.97416L75.3763 2.46866L73.8748 2.79833L72.3733 3.29284L70.7216 3.78735L69.2201 4.28185L67.8688 4.94119L66.3673 5.4357L64.8658 6.25987L63.3643 6.91921L62.0129 7.57855L60.5114 8.40273L59.1601 9.22691L57.8087 10.0511L56.4574 11.0401L55.106 12.0291L53.7547 13.0181L52.5534 14.0071L51.2021 14.9961L50.0009 16.15L48.7997 17.139L47.5985 18.4577L46.5474 19.6115L45.3462 20.7654L44.2952 22.084L43.2441 23.2379Z" fill="#7F4C19"/>
<path d="M39.3398 24.0677L40.8413 22.4194L42.3428 20.9359L43.8443 19.6172L45.496 18.2985L46.9975 16.9798L48.6492 15.6611L50.3008 14.6721L51.9525 13.5183L53.7543 12.3644L55.5561 11.3754L57.3579 10.5513L59.1597 9.56224L60.9615 8.9029L62.9134 8.07873L64.7152 7.58422L66.6672 6.92488L68.6191 6.43037L70.4209 5.93587L72.3729 5.44136L74.475 5.11169L76.4269 4.94686L78.3789 4.78202L80.3308 4.61719H82.2828H84.2347H86.3368L88.2888 4.78202L90.2407 5.11169L92.1927 5.44136L94.1446 5.77103L96.0966 6.26554L98.0486 6.76004L100.001 7.41939L101.952 8.07873L103.904 8.73807L105.706 9.56224L107.508 10.5513L109.31 11.5403L111.112 12.5293L112.913 13.5183L114.565 14.6721L116.217 15.826L117.868 17.1447L119.37 18.4633L120.871 19.782L122.523 21.2655L123.874 22.5842L125.376 24.2326L126.727 25.7161L128.079 27.3644L129.28 29.0128L130.481 30.6611L131.682 32.3095L132.883 34.1227L133.934 35.9359L134.985 37.9139L135.886 39.7271L136.937 41.7051L137.688 43.6831L138.589 45.6611L139.34 47.6392L139.94 49.782L140.541 51.76L141.142 53.9029L39.3398 24.0677Z" fill="#CC9900" stroke="black" stroke-width="0.314643"/>
<path d="M125.376 118.351L124.025 119.834L122.523 121.318L120.872 122.801L119.37 124.12L117.869 125.439L116.067 126.593L114.415 127.746L112.764 128.9L110.962 129.889L109.16 130.878L107.508 131.867L105.707 132.691L103.755 133.516L101.953 134.175L100.001 134.834L98.1991 135.494L96.2471 135.988L94.2952 136.483L92.3432 136.812L90.3913 137.142L88.4393 137.472L86.4874 137.637L84.3853 137.801H82.4333H80.4814L78.5294 137.637L76.5775 137.472L74.4754 137.307L72.5234 136.977L70.5715 136.483L68.6195 136.153L66.6676 135.494L64.7156 134.999L62.7636 134.175L60.9618 133.516L59.0099 132.691L57.2081 131.867L55.4063 130.878L53.7546 129.889L51.9528 128.735L50.3012 127.746L48.6495 126.428L46.9979 125.274L45.3462 123.955L43.8447 122.637L42.3432 121.153L40.8417 119.669L39.4904 118.186L38.139 116.702L36.7877 115.054L35.4363 113.406L34.2351 111.757L33.0339 109.944L31.9829 108.131L30.7817 106.318L29.8808 104.505L28.8297 102.527L27.9288 100.713L27.0279 98.7354L26.2772 96.7574L25.5264 94.6145L24.9258 92.6365L24.1751 90.6585L23.7246 88.5156L125.376 118.351Z" fill="#B27F00" stroke="black" stroke-width="0.314643"/>
<path d="M39.3388 24.0625L37.9875 25.546L36.7863 27.1944L35.4349 28.8427L34.2337 30.4911L33.0325 32.3043L31.9815 34.1174L30.9304 35.9306L29.8794 37.9087L28.9785 39.7218L27.9274 41.6999L27.1766 43.6779L26.4259 45.6559L25.6751 47.7988L24.9244 49.7768L24.3238 51.9196L23.8733 53.8977L23.4229 56.0405L22.9724 58.1834L22.522 60.3262L22.2217 62.4691L22.0715 64.6119L21.7712 66.7548V69.0625L21.6211 71.2054L21.7712 73.3482V75.6559L21.9214 77.7988L22.2217 79.9416L22.3718 82.0845L22.8223 84.2273L23.1226 86.3702L23.7232 88.5131L125.375 118.348L126.726 116.865L128.078 115.216L129.429 113.568L130.48 111.755L131.681 110.106L132.882 108.293L133.933 106.315L134.984 104.502L135.885 102.524L136.786 100.546L137.687 98.568L138.438 96.59L139.189 94.612L139.789 92.4691L140.39 90.4911L140.99 88.5131L141.441 86.3702L141.891 84.2273L142.192 82.0845L142.492 79.9416L142.792 77.6339L142.942 75.4911V73.3482L143.093 71.2054V68.8977L142.942 66.7548L142.792 64.6119L142.642 62.4691L142.342 60.1614L142.042 58.1834L141.591 56.0405L141.141 53.8977L39.3388 24.0625Z" fill="#D9A600" stroke="black" stroke-width="0.314643"/>
<path d="M22.9727 34.4496L95.0447 137.801L108.708 128.076L109.91 126.922L111.111 125.603L112.162 124.285L113.213 123.131L114.264 121.647L115.315 120.329L116.216 119.01L117.267 117.527L118.168 116.043L119.069 114.724L119.82 113.241L120.72 111.757L121.471 110.109L122.222 108.625L122.823 107.142L123.573 105.494L124.174 104.01L124.774 102.362L125.375 100.713L125.826 99.065L126.276 97.4166L126.726 95.7683L127.177 94.1199L127.477 92.4716L127.777 90.6584L128.078 89.01L128.378 87.1969L128.528 85.5485L128.678 83.9002L128.829 82.087L128.979 80.2738V78.6254L128.829 75.1639L128.678 71.8672L128.228 68.4057L127.627 65.2738L127.027 61.9771L126.126 58.8452L125.225 55.7133L124.174 52.5815L122.823 49.7793L121.471 46.8122L120.12 44.01L118.468 41.3727L116.816 38.7353L115.015 36.2628L113.063 33.7903L111.111 31.4826L109.009 29.1749L106.756 27.1969L104.354 25.2188L102.102 23.2408L99.5492 21.5925L96.9967 19.9441L94.4441 18.4606L91.7414 17.1419L88.8886 15.9881L86.1859 14.8342L83.1829 14.01L80.33 13.1859L77.327 12.6914L74.324 12.1969L71.1709 11.8672H68.0177H66.3661L64.8645 12.032L63.2129 12.1969L61.5612 12.3617L60.0597 12.5265L58.4081 12.8562L56.9066 13.021L55.2549 13.3507L53.7534 13.8452L52.1018 14.3397L50.6003 14.8342L49.0988 15.3287L47.5973 15.9881L46.2459 16.6474L44.7444 17.1419L43.2429 17.9661L41.7414 18.6254L40.3901 19.4496L39.0387 20.2738L37.5372 21.2628L36.1859 22.087L34.8345 23.076L33.6333 24.065L32.282 25.054L31.0808 26.043L29.8796 27.1969L28.5282 28.3507L27.327 29.5046L26.276 30.6584L25.0748 31.8122L24.0237 33.1309L22.9727 34.4496Z" fill="#B27F4C" stroke="black" stroke-width="0.314643"/>
<path d="M8.70796 115.711L7.80706 113.733L6.90616 111.92L6.00526 109.777L5.2545 107.799L4.50375 105.821L3.90315 103.678L3.30255 101.7L2.70195 99.5574L2.2515 97.4145L1.80105 95.4365L1.50075 93.1288L1.20045 90.9859L1.0503 88.8431L0.90015 86.7002L0.75 84.5574V82.4145V80.2716L0.90015 78.1288L1.0503 75.8211L1.20045 73.6782L1.50075 71.5354L1.80105 69.3925L2.2515 67.2497L2.70195 65.2716L3.30255 63.1288L3.90315 60.9859L4.50375 59.0079L5.2545 56.865L6.00526 54.887L6.90616 52.909L7.80706 50.931L8.70796 48.953L9.75901 47.1398L10.8101 45.3266L12.0113 43.3486L13.2125 41.7002L14.5638 40.0519L15.765 38.2387L17.1164 36.5903L18.6179 35.1068L19.9692 33.6233L21.4707 32.1398L22.9722 30.6562L24.4737 29.5024L26.1254 28.1837L27.777 26.865L29.4287 25.7112L31.0803 24.5573L32.8821 23.5683L34.5338 22.5793L36.3356 21.5903L38.1374 20.7661L40.0893 19.942L41.8911 19.2826L43.6929 18.6233L45.6449 17.9639L47.5968 17.4694L49.5488 16.9749L51.5008 16.6453L53.4527 16.1508L55.4047 15.9859L57.3566 15.8211L59.4587 15.6562H61.4107L8.70796 115.711Z" fill="#E5B219" stroke="black" stroke-width="0.314643"/>
<path d="M113.965 48.9531L115.016 50.9311L115.917 52.9092L116.667 54.8872L117.568 56.8652L118.169 58.8432L118.92 60.9861L119.52 62.9641L119.971 65.107L120.571 67.2498L120.872 69.2278L121.322 71.3707L121.472 73.6784L121.772 75.8213L121.923 77.9641L122.073 80.107V82.2498V84.3927L121.923 86.5355L121.772 88.6784L121.472 90.9861L121.322 93.129L120.872 95.2718L120.571 97.2498L119.971 99.3927L119.52 101.536L118.92 103.678L118.169 105.656L117.568 107.799L116.667 109.777L115.917 111.755L115.016 113.733L113.965 115.711L112.914 117.525L111.863 119.503L110.661 121.151L109.46 122.964L108.259 124.777L106.908 126.426L105.556 127.909L104.205 129.558L102.703 131.041L101.352 132.525L99.8505 133.843L98.1989 135.327L96.6974 136.481L95.0457 137.799L93.3941 138.953L91.5923 140.107L89.9406 141.096L88.1388 142.085L86.337 143.074L84.5352 143.898L82.7334 144.722L80.9316 145.382L78.9797 146.041L77.1779 146.7L75.2259 147.195L73.274 147.689L71.322 148.184L69.3701 148.514L67.4181 148.678L65.4662 148.843L63.3641 149.008H61.4121L113.965 48.9531Z" fill="#CC9900" stroke="black" stroke-width="0.314643"/>
<path d="M8.70898 115.711L9.76004 117.524L10.8111 119.338L12.0123 121.151L13.2135 122.799L14.4147 124.447L15.766 126.261L17.1174 127.744L18.4687 129.393L19.9702 130.876L21.4717 132.36L22.9732 133.843L24.4748 135.162L26.1264 136.48L27.7781 137.634L29.4297 138.788L31.0814 139.942L32.733 141.096L34.5348 142.085L36.3366 142.909L38.1384 143.898L39.9402 144.557L41.8922 145.382L43.8441 146.041L45.6459 146.7L47.5979 147.195L49.5498 147.689L51.6519 148.184L53.4537 148.513L55.5558 148.678L57.5078 148.843L59.4597 149.008H61.4117L113.964 48.953L113.063 47.1398L111.862 45.3266L110.811 43.5134L109.61 41.865L108.409 40.0519L107.057 38.4035L105.706 36.7552L104.355 35.2716L102.853 33.7881L101.352 32.3046L99.8501 30.8211L98.1985 29.5024L96.697 28.1837L95.0453 26.865L93.3937 25.876L91.742 24.7222L89.9402 23.5683L88.2886 22.7442L86.4868 21.7552L84.685 20.7661L82.733 20.1068L80.9312 19.2826L78.9793 18.6233L77.0273 17.9639L75.0753 17.4694L73.1234 16.9749L71.1714 16.6453L69.2195 16.1508L67.2675 15.9859L65.3156 15.8211L63.3636 15.6562H61.4117L8.70898 115.711Z" fill="#CCA600" stroke="black" stroke-width="0.314643"/>
<path d="M61.4116 93.2988C66.9676 93.2988 71.4717 88.3543 71.4717 82.2549C71.4717 76.1555 66.9676 71.2109 61.4116 71.2109C55.8556 71.2109 51.3516 76.1555 51.3516 82.2549C51.3516 88.3543 55.8556 93.2988 61.4116 93.2988Z" fill="black" stroke="black" stroke-width="0.314643"/>
<path d="M62.763 71.0469L58.7089 71.3765L55.1053 73.5194L52.5528 76.6513L51.3516 80.6073L51.5017 85.2227L53.3035 89.1787L56.3065 91.9809L60.0603 93.2996L64.1143 93.1348L67.7179 91.1568L64.1143 92.1458L60.5107 90.6623L57.5077 87.8601L55.5558 83.904L55.4056 79.4535L56.757 75.3326L59.3095 72.2007L62.763 71.0469Z" fill="#996600" stroke="black" stroke-width="0.314643"/>
<path d="M97.2974 96.5965C99.1218 96.5965 100.601 94.9729 100.601 92.9701C100.601 90.9673 99.1218 89.3438 97.2974 89.3438C95.4731 89.3438 93.9941 90.9673 93.9941 92.9701C93.9941 94.9729 95.4731 96.5965 97.2974 96.5965Z" fill="#B2B2B2"/>
<path d="M71.0201 46.4871C72.8445 46.4871 74.3234 44.8635 74.3234 42.8607C74.3234 40.858 72.8445 39.2344 71.0201 39.2344C69.1957 39.2344 67.7168 40.858 67.7168 42.8607C67.7168 44.8635 69.1957 46.4871 71.0201 46.4871Z" fill="#B2B2B2"/>
<path d="M51.651 125.276C53.4753 125.276 54.9543 123.653 54.9543 121.65C54.9543 119.647 53.4753 118.023 51.651 118.023C49.8266 118.023 48.3477 119.647 48.3477 121.65C48.3477 123.653 49.8266 125.276 51.651 125.276Z" fill="#B2B2B2"/>
<path d="M25.3756 75.1668C27.1999 75.1668 28.6789 73.5432 28.6789 71.5404C28.6789 69.5376 27.1999 67.9141 25.3756 67.9141C23.5512 67.9141 22.0723 69.5376 22.0723 71.5404C22.0723 73.5432 23.5512 75.1668 25.3756 75.1668Z" fill="#B2B2B2"/>
</g>
<defs>
<clipPath id="clip0_2122_169142">
<rect width="150" height="150" fill="white"/>
</clipPath>
</defs>
</svg>
