<svg width="150" height="150" viewBox="0 0 150 150" fill="none" xmlns="http://www.w3.org/2000/svg">
<path d="M0.75 46.5781H149.249V144.078H0.75V46.5781Z" fill="#CCCCBD"/>
<path d="M112.012 144.077H149.249V78.9453L112.012 99.0769V144.077Z" fill="#C4C4B2"/>
<path d="M0.601562 144.077H37.8388V78.9453L0.601562 99.0769V144.077Z" fill="#C4C4B2"/>
<path d="M112.012 144.076H149.249V87.2344L112.012 107.366V144.076Z" fill="#BABAA6"/>
<path d="M0.601562 144.076H37.8388V87.2344L0.601562 107.366V144.076Z" fill="#BABAA6"/>
<path d="M112.012 144.08H149.249V103.422L112.012 123.553V144.08Z" fill="#B2B29B"/>
<path d="M0.601562 144.08H37.8388V103.422L0.601562 123.553V144.08Z" fill="#B2B29B"/>
<path d="M0.601562 46.5757L2.25321 13.8125H147.599L149.25 46.5757H0.601562Z" fill="#E5E5DD"/>
<path d="M2.25321 13.8125H147.599L149.25 46.5757V144.076H0.751713L0.601562 46.5757L2.25321 13.8125Z" stroke="black" stroke-width="0.486908"/>
<path d="M37.8379 42.2344H112.012V148.024H37.8379V42.2344Z" fill="#E5E5DD"/>
<path d="M37.8379 148.023H112.012V58.8125L37.8379 99.4704V148.023Z" fill="#DEDED4"/>
<path d="M37.8379 148.027H112.012V66.7109L37.8379 107.369V148.027Z" fill="#D4D4C7"/>
<path d="M37.8379 148.026H112.012V83.2891L37.8379 123.552V148.026Z" fill="#CCCCBD"/>
<path d="M37.8379 42.2344H112.012V148.024H37.8379V42.2344Z" stroke="black" stroke-width="0.486908"/>
<path d="M78.0781 62.368L78.979 60.7891L79.8799 62.368V76.9733L78.979 78.947L78.0781 76.9733V62.368Z" fill="#666666" stroke="black" stroke-width="0.486908"/>
<path d="M69.9707 62.368L70.8716 60.7891L71.9227 62.368V76.9733L70.8716 78.947L69.9707 76.9733V62.368Z" fill="#666666" stroke="black" stroke-width="0.486908"/>
<path d="M78.0781 62.368L78.979 60.7891L79.8799 62.368V64.3417L78.979 63.5522L78.0781 64.3417V62.368Z" fill="white"/>
<path d="M69.9707 62.368L70.8716 60.7891L71.9227 62.368V64.3417L70.8716 63.5522L69.9707 64.3417V62.368Z" fill="white"/>
<path d="M69.9707 75.3984L70.8716 75.7932L71.9227 75.3984V76.9774L70.8716 78.9511L69.9707 76.9774V75.3984Z" fill="black"/>
<path d="M78.0781 75.3984L78.979 75.7932L79.8799 75.3984V76.9774L78.979 78.9511L78.0781 76.9774V75.3984Z" fill="black"/>
<path d="M70.2695 91.1875H71.9212V95.5296H70.2695V91.1875Z" fill="#4C4C16"/>
<path d="M77.9277 91.1875H79.5794V95.5296H77.9277V91.1875Z" fill="#4C4C16"/>
<path d="M37.8379 42.236L38.5886 1.57812H111.261L112.012 42.236H37.8379Z" fill="#F7F7F4"/>
<path d="M74.9258 1.57812V148.025" stroke="black" stroke-width="0.486908"/>
<path d="M37.8379 42.236L38.5886 1.57812H111.261L112.012 42.236H37.8379Z" stroke="black" stroke-width="0.486908"/>
<path d="M104.355 34.3409L105.857 30.3935V13.8146L104.355 9.86719H82.5835L81.082 13.8146V30.3935L82.5835 34.3409H104.355Z" fill="#E5FFFF"/>
<path d="M67.2674 34.3409L68.7689 30.3935V13.8146L67.2674 9.86719H45.4956L43.9941 13.8146V30.3935L45.4956 34.3409H67.2674Z" fill="#E5FFFF"/>
<path d="M104.355 13.8146L105.857 18.1567V13.8146L104.355 9.86719H82.5835L81.082 13.8146V18.1567L82.5835 13.8146H104.355Z" fill="#B2CCCC"/>
<path d="M67.2674 13.8146L68.7689 18.1567V13.8146L67.2674 9.86719H45.4956L43.9941 13.8146V18.1567L45.4956 13.8146H67.2674Z" fill="#B2CCCC"/>
<path d="M55.5555 15.7891L52.8528 18.947L51.2012 26.0522L55.5555 15.7891Z" fill="white"/>
<path d="M52.5527 30.3943L56.3065 26.0522L58.7089 15.7891L52.5527 30.3943Z" fill="white"/>
<path d="M92.6434 15.7891L89.9407 18.947L88.2891 26.0522L92.6434 15.7891Z" fill="white"/>
<path d="M89.6387 30.3943L93.5426 26.0522L95.7948 15.7891L89.6387 30.3943Z" fill="white"/>
<path d="M95.0449 30.396L99.6996 20.1328" stroke="#B2E5E5" stroke-width="0.486908"/>
<path d="M89.0391 26.051L92.7928 18.1562" stroke="#B2E5E5" stroke-width="0.486908"/>
<path d="M57.957 30.396L62.6117 20.1328" stroke="#B2E5E5" stroke-width="0.486908"/>
<path d="M51.9512 26.051L55.5548 18.1562" stroke="#B2E5E5" stroke-width="0.486908"/>
<path d="M67.2674 34.3409L68.7689 30.3935V13.8146L67.2674 9.86719H45.4956L43.9941 13.8146V30.3935L45.4956 34.3409H67.2674Z" stroke="black" stroke-width="0.486908"/>
<path d="M104.355 34.3409L105.857 30.3935V13.8146L104.355 9.86719H82.5835L81.082 13.8146V30.3935L82.5835 34.3409H104.355Z" stroke="black" stroke-width="0.486908"/>
</svg>
