<svg width="150" height="150" viewBox="0 0 150 150" fill="none" xmlns="http://www.w3.org/2000/svg">
<g clip-path="url(#clip0_2122_168966)">
<path d="M11.2617 79.5765L12.4629 76.2732L15.7662 74.9219L19.0695 76.2732L20.571 79.5765L19.0695 82.8798L15.7662 84.2312L12.4629 82.8798L11.2617 79.5765Z" fill="#00FFFF" stroke="black" stroke-width="0.3003"/>
<path d="M89.9399 150.001V78.6797H22.3724L0 101.202V150.001H89.9399Z" fill="#00FFFF" stroke="black" stroke-width="0.3003"/>
<path d="M89.9406 91.7412H134.986V56.1556H89.9406V59.9094H71.1719V41.1406H89.9406V44.8944H146.247V103.002H89.9406V91.7412Z" fill="#00FFFF" stroke="black" stroke-width="0.3003"/>
<path d="M80.4812 59.7592C85.6226 59.7592 89.7905 55.5913 89.7905 50.4499C89.7905 45.3085 85.6226 41.1406 80.4812 41.1406C75.3398 41.1406 71.1719 45.3085 71.1719 50.4499C71.1719 55.5913 75.3398 59.7592 80.4812 59.7592Z" stroke="black" stroke-width="0.3003"/>
<path d="M104.955 0H119.97V150H104.955V0Z" fill="#00FFFF" stroke="black" stroke-width="0.3003"/>
<path d="M11.2617 88.1354V82.4297" stroke="black" stroke-width="0.3003"/>
<path d="M11.2617 97.4479V91.7422" stroke="black" stroke-width="0.3003"/>
<path d="M11.2617 106.759V101.203" stroke="black" stroke-width="0.3003"/>
<path d="M46.3965 90.6875L51.6517 92.7896" stroke="black" stroke-width="0.3003"/>
<path d="M55.2559 94.7422L59.6102 98.4959" stroke="black" stroke-width="0.3003"/>
<path d="M62.3125 101.648L65.0152 106.603" stroke="black" stroke-width="0.3003"/>
<path d="M66.5156 110.508L67.4165 116.063" stroke="black" stroke-width="0.3003"/>
<path d="M67.4182 120.273L66.3672 125.829" stroke="black" stroke-width="0.3003"/>
<path d="M65.015 129.883L62.1621 134.688" stroke="black" stroke-width="0.3003"/>
<path d="M59.4598 137.984L55.1055 141.438" stroke="black" stroke-width="0.3003"/>
<path d="M51.5013 143.695L46.2461 145.497" stroke="black" stroke-width="0.3003"/>
<path d="M42.0416 146.25H36.3359" stroke="black" stroke-width="0.3003"/>
<path d="M32.1324 145.499L27.0273 143.547" stroke="black" stroke-width="0.3003"/>
<path d="M23.2726 141.441L19.0684 137.688" stroke="black" stroke-width="0.3003"/>
<path d="M16.2164 134.533L13.5137 129.578" stroke="black" stroke-width="0.3003"/>
<path d="M12.0122 125.673L11.1113 120.117" stroke="black" stroke-width="0.3003"/>
<path d="M11.1113 115.915L12.1624 110.359" stroke="black" stroke-width="0.3003"/>
<path d="M13.5137 106.305L16.3665 101.5" stroke="black" stroke-width="0.3003"/>
<path d="M19.0684 98.1974L23.4227 94.5938" stroke="black" stroke-width="0.3003"/>
<path d="M27.1777 92.4893L32.2828 90.6875" stroke="black" stroke-width="0.3003"/>
<path d="M36.6367 89.9375H42.0421" stroke="black" stroke-width="0.3003"/>
<path d="M22.373 95.4922H89.9406" stroke="black" stroke-width="0.3003"/>
<path d="M22.373 78.6797V150.001" stroke="black" stroke-width="0.3003"/>
<path d="M7.35742 114.266L24.3244 101.203" stroke="black" stroke-width="0.3003"/>
<path d="M29.8789 108.711H82.4315V142.495H29.8789V108.711Z" stroke="black" stroke-width="0.3003"/>
<path d="M86.1864 101.203H80.6309V104.957H86.1864V101.203Z" fill="#00FFFF"/>
<path d="M76.8776 101.203H71.1719V104.957H76.8776V101.203Z" fill="#00FFFF"/>
<path d="M67.4166 101.203H61.7109V104.957H67.4166V101.203Z" fill="#00FFFF"/>
<path d="M138.738 56.1562H142.492V91.7418H138.738V56.1562Z" fill="#00FFFF"/>
<path d="M123.725 22.375V122.675L133.034 86.1888" stroke="black" stroke-width="0.3003"/>
<path d="M89.9395 50.6032L101.201 122.675V22.375" stroke="black" stroke-width="0.3003"/>
<path d="M13.9648 75.8265L74.9258 43.0938" stroke="black" stroke-width="0.3003"/>
<path d="M140.54 95.3452C145.681 95.3452 149.849 91.1773 149.849 86.0359C149.849 80.8945 145.681 76.7266 140.54 76.7266C135.398 76.7266 131.23 80.8945 131.23 86.0359C131.23 91.1773 135.398 95.3452 140.54 95.3452Z" fill="#00FFFF" stroke="black" stroke-width="0.3003"/>
<path d="M112.313 35.4386C119.528 35.4386 125.376 29.5901 125.376 22.3756C125.376 15.161 119.528 9.3125 112.313 9.3125C105.099 9.3125 99.25 15.161 99.25 22.3756C99.25 29.5901 105.099 35.4386 112.313 35.4386Z" fill="#00FFFF" stroke="black" stroke-width="0.3003"/>
<path d="M112.313 140.392C119.528 140.392 125.376 134.543 125.376 127.329C125.376 120.114 119.528 114.266 112.313 114.266C105.099 114.266 99.25 120.114 99.25 127.329C99.25 134.543 105.099 140.392 112.313 140.392Z" fill="#00FFFF" stroke="black" stroke-width="0.3003"/>
<path d="M111.562 126.578H113.364V128.38H111.562V126.578Z" fill="#00FFFF"/>
<path d="M139.639 85.2891H141.44V87.0909H139.639V85.2891Z" fill="#00FFFF"/>
<path d="M111.562 21.4688H113.364V23.2706H111.562V21.4688Z" fill="#00FFFF"/>
<path d="M79.5801 49.5469H81.532V51.4988H79.5801V49.5469Z" fill="#00FFFF"/>
<path d="M38.4375 117.117H40.2393V118.919H38.4375V117.117Z" fill="#00FFFF"/>
</g>
<defs>
<clipPath id="clip0_2122_168966">
<rect width="150" height="150" fill="white"/>
</clipPath>
</defs>
</svg>
