<svg width="150" height="150" viewBox="0 0 150 150" fill="none" xmlns="http://www.w3.org/2000/svg">
<g clip-path="url(#clip0_2122_168237)">
<path d="M116.666 131.253H119.669V106.305H131.681V131.253H134.834V140.551H116.666V131.253Z" fill="#333333" stroke="black" stroke-width="0.305071"/>
<path d="M4.50391 6.19531H65.0144V140.544H4.50391V6.19531Z" fill="#D9D9D9" stroke="black" stroke-width="0.305071"/>
<path d="M7.50781 140.547H10.5108V146.9H7.50781V140.547Z" fill="#4C4C4C"/>
<path d="M16.666 87.5547H113.513V140.551H16.666V87.5547Z" fill="#4C4C4C"/>
<path d="M150 9.29688L128.679 49.896H122.673L101.502 9.29688H150Z" fill="#D9D9D9" stroke="black" stroke-width="0.305071"/>
<path d="M101.502 0H150V9.29752H101.502V0Z" fill="#F2F2F2" stroke="black" stroke-width="0.305071"/>
<path d="M119.67 49.8984H131.682V68.6484H119.67V49.8984Z" fill="#E5E5E5" stroke="black" stroke-width="0.305071"/>
<path d="M116.666 71.7422H16.666V87.393H116.666V71.7422Z" fill="#CCCCCC" stroke="black" stroke-width="0.305071"/>
<path d="M116.666 71.7428H16.666V62.4453H116.666V71.7428Z" fill="#F2F2F2" stroke="black" stroke-width="0.305071"/>
<path d="M116.666 68.646H131.681L134.834 65.5469V84.2969L131.681 81.1977H116.666V68.646Z" fill="#CCCCCC" stroke="black" stroke-width="0.305071"/>
<path d="M131.682 71.7475H134.084V69.5781L131.682 70.198V71.7475Z" fill="#666666"/>
<path d="M131.682 78.1016H134.084V80.4259L131.682 79.6511V78.1016Z" fill="#666666"/>
<path d="M131.682 74.2266H134.084V75.7761H131.682V74.2266Z" fill="#666666"/>
<path d="M134.834 62.4453H149.999V93.747H134.834V62.4453Z" fill="white" stroke="black" stroke-width="0.305071"/>
<path d="M10.5098 140.547H149.999V149.999H10.5098V140.547Z" fill="#4C4C4C" stroke="black" stroke-width="0.305071"/>
<path d="M16.666 142.25H56.0054V148.293H16.666V142.25Z" fill="black"/>
<path d="M62.0117 142.25H101.501V148.293H62.0117V142.25Z" fill="black"/>
<path d="M107.508 142.25H146.847V148.293H107.508V142.25Z" fill="black"/>
<path d="M16.667 65.5469H7.50781V84.2969H16.667V65.5469Z" fill="#333333" stroke="black" stroke-width="0.305071"/>
<path d="M10.5098 96.8485V93.7494H13.6629V84.2969H16.6659V93.7494H19.6689V96.8485H10.5098Z" fill="#F2F2F2" stroke="black" stroke-width="0.305071"/>
<path d="M107.508 87.5547L110.511 125.055H119.67L116.667 87.5547H107.508Z" fill="#CCCCCC" stroke="black" stroke-width="0.305071"/>
<path d="M19.6699 81.1953H77.1774V84.2945H19.6699V81.1953Z" fill="#D94059"/>
<path d="M62.0117 93.75H95.3451V125.052H62.0117V93.75Z" fill="black"/>
<path d="M19.6699 87.5547L22.8231 103.051H38.4387L41.5918 87.5547L44.745 103.051H60.3606L63.5138 87.5547L66.6669 103.051H82.4327L85.4357 87.5547L88.739 103.051H104.355L107.508 87.5547H19.6699Z" fill="#666666" stroke="black" stroke-width="0.305071"/>
<path d="M69.5198 98.2468L67.2676 92.8233L69.5198 87.5547H80.1805L82.4327 92.8233L80.1805 98.2468L74.9252 100.416L69.5198 98.2468Z" fill="black"/>
<path d="M47.4476 98.2468L45.1953 92.8233L47.4476 87.5547H58.2584L60.3605 92.8233L58.2584 98.2468L52.853 100.416L47.4476 98.2468Z" fill="black"/>
<path d="M25.5257 98.2468L23.2734 92.8233L25.5257 87.5547H36.1864L38.4386 92.8233L36.1864 98.2468L30.9311 100.416L25.5257 98.2468Z" fill="black"/>
<path d="M90.8404 98.2468L88.7383 92.8233L90.8404 87.5547H101.651L103.753 92.8233L101.651 98.2468L96.2458 100.416L90.8404 98.2468Z" fill="black"/>
<path d="M34.834 106.305H68.1673V121.801H34.834V106.305Z" fill="#333333"/>
<path d="M74.1738 115.602H101.501V140.55H74.1738V115.602Z" fill="#333333"/>
<path d="M113.514 125.055H116.667V140.551H113.514V125.055Z" fill="#666666" stroke="black" stroke-width="0.305071"/>
<path d="M62.0117 128.148H113.513V134.347H62.0117V128.148Z" fill="#666666" stroke="black" stroke-width="0.305071"/>
<path d="M10.5098 140.55V96.8516H19.6689V140.55H10.5098Z" fill="#666666" stroke="black" stroke-width="0.305071"/>
<path d="M134.834 93.75H149.999V140.548H134.834V93.75Z" fill="#666666" stroke="black" stroke-width="0.305071"/>
<path d="M22.6719 109.398H56.0052V140.545H22.6719V109.398Z" fill="#7F7F7F" stroke="black" stroke-width="0.305071"/>
<path d="M19.6699 68.6437V43.6953H43.8441V68.6437H19.6699Z" fill="#F2F2F2" stroke="black" stroke-width="0.305071"/>
<path d="M19.6699 75.0017V68.6484H43.8441V75.0017H19.6699Z" fill="#D9D9D9" stroke="black" stroke-width="0.305071"/>
<path d="M28.6777 140.548V75H34.6837V140.548H28.6777Z" fill="#666666" stroke="black" stroke-width="0.305071"/>
<path d="M30.6309 140.548V75H32.733V140.548H30.6309Z" fill="#B2B2B2"/>
<path d="M22.6719 59.3512V45.25H40.84V59.3512H22.6719Z" fill="#CCCCCC" stroke="black" stroke-width="0.305071"/>
<path d="M24.1738 57.7989V46.7969H39.339V57.7989H24.1738Z" fill="#CBE5CB"/>
<path d="M39.339 46.7969H24.1738V48.3465H39.339V46.7969Z" fill="#7FBF7F"/>
<path d="M22.6719 61.6719H40.84V66.3206H22.6719V61.6719Z" fill="white" stroke="black" stroke-width="0.305071"/>
<path d="M22.6719 66.3203H40.84V67.0951H22.6719V66.3203Z" fill="#CCCCCC" stroke="black" stroke-width="0.305071"/>
<path d="M37.8379 61.6719V67.0954" stroke="#999999" stroke-width="0.305071"/>
<path d="M34.834 61.6719V67.0954" stroke="#999999" stroke-width="0.305071"/>
<path d="M31.832 61.6719V67.0954" stroke="#999999" stroke-width="0.305071"/>
<path d="M28.6777 61.6719V67.0954" stroke="#999999" stroke-width="0.305071"/>
<path d="M25.6758 61.6719V67.0954" stroke="#999999" stroke-width="0.305071"/>
<path d="M22.6719 63.2266H40.84" stroke="#999999" stroke-width="0.305071"/>
<path d="M40.84 64.7734H22.6719" stroke="#999999" stroke-width="0.305071"/>
<path fill-rule="evenodd" clip-rule="evenodd" d="M115.014 87.5547V89.1043H134.834V90.6539H113.513V87.5547H115.014ZM112.011 87.5547V92.2034H134.834V93.753H110.51V87.5547H112.011Z" fill="#CC6633"/>
<path d="M115.015 87.5547V89.1043H134.835V90.6539H113.514V87.5547H115.015Z" stroke="black" stroke-width="0.305071"/>
<path d="M112.011 87.5547V92.2034H134.834V93.753H110.51V87.5547H112.011Z" stroke="black" stroke-width="0.305071"/>
<path d="M13.6641 18.75H22.6731V25.7231H13.6641V18.75Z" fill="#333333"/>
<path d="M25.6758 22.625H53.0031V24.9494H25.6758V22.625Z" fill="#D94059"/>
<path d="M137.838 68.6484H140.841V71.7476H137.838V68.6484Z" fill="#7F7FFF"/>
<path d="M143.844 68.6484H146.847V71.7476H143.844V68.6484Z" fill="#FFCC00"/>
<path d="M119.67 70.3516H128.679V75.7751H119.67V70.3516Z" fill="#FFCC00"/>
<path d="M120.42 71.125H127.927V72.6746H120.42V71.125Z" fill="black"/>
<path d="M121.172 54.7031H130.181V64.0006H121.172V54.7031Z" fill="#CC6633" stroke="black" stroke-width="0.305071"/>
<path d="M122.672 56.25H128.678V62.4483H122.672V56.25Z" fill="#4C4C4C"/>
<path d="M141.292 87.0874L140.842 86.0027L141.292 84.763L142.343 84.4531L143.394 84.763L143.845 86.0027L143.394 87.0874L142.343 87.5523L141.292 87.0874Z" fill="#7F7F7F"/>
<path d="M142.792 82.2827L142.342 81.198L142.792 80.1133L143.843 79.6484L144.894 80.1133L145.345 81.198L144.894 82.2827L143.843 82.7476L142.792 82.2827Z" fill="#CC9933"/>
<path d="M8.25781 69.5781H15.7653V72.6773H8.25781V69.5781Z" fill="#E5E5E5"/>
<path d="M8.25781 78.1016H15.7653V82.7503H8.25781V78.1016Z" fill="#7F7F7F"/>
<path d="M0 70.1953H7.50751V79.6478H0V70.1953Z" fill="#B2B2B2" stroke="black" stroke-width="0.305071"/>
<path d="M0 69.5781H7.50751V70.198H0V69.5781Z" fill="#CCCCCC" stroke="black" stroke-width="0.305071"/>
<path d="M3.75423 69.5743L1.50198 56.2478L2.25273 52.9937L4.50499 51.4441V50.3594L1.50198 52.3738L0.300781 56.2478L3.00348 69.5743H3.75423Z" fill="black"/>
</g>
<defs>
<clipPath id="clip0_2122_168237">
<rect width="150" height="150" fill="white"/>
</clipPath>
</defs>
</svg>
