<svg width="150" height="150" viewBox="0 0 150 150" fill="none" xmlns="http://www.w3.org/2000/svg">
<g clip-path="url(#clip0_2109_179470)">
<path d="M89.039 97.746L36.4865 149.998L0 113.662L52.4024 61.1094L89.039 97.746Z" fill="#B2B2B2" stroke="black" stroke-width="0.3003"/>
<path d="M86.4864 97.7477L52.4023 63.3633L44.4443 105.706L86.4864 97.7477Z" fill="#BFBFBF"/>
<path d="M44.4443 105.407L86.4863 97.4492L36.4863 147.75L44.4443 105.407Z" fill="#D9D9D9"/>
<path d="M36.4864 147.749L2.40234 113.665L44.4444 105.707L36.4864 147.749Z" fill="#CCCCCC"/>
<path d="M143.244 43.2421L91.1415 95.6445L54.5049 59.0079L106.907 6.60547L143.244 43.2421Z" fill="#B2B2B2" stroke="black" stroke-width="0.3003"/>
<path d="M141.142 43.242L106.907 9.00781L99.0996 51.0499L141.142 43.242Z" fill="#BFBFBF"/>
<path d="M99.0986 51.05L141.141 43.2422L91.1406 93.092L99.0986 51.05Z" fill="#D9D9D9"/>
<path d="M91.1412 93.0928L56.7568 59.0087L99.0992 51.0508L91.1412 93.0928Z" fill="#CCCCCC"/>
<path d="M54.5041 54.5039L47.8975 61.1105L48.7984 62.4619L55.8554 55.555L54.5041 54.5039Z" fill="#4C4C4C" stroke="black" stroke-width="0.3003"/>
<path d="M94.2941 94.293L87.6875 100.9L88.5884 102.251L95.6455 95.344L94.2941 94.293Z" fill="#4C4C4C" stroke="black" stroke-width="0.3003"/>
<path d="M94.2943 98.7979L92.1922 101.35L48.7988 57.9571L51.0511 55.5547L94.2943 98.7979Z" fill="#B2B2B2" stroke="black" stroke-width="0.3003"/>
<path d="M109.159 0L102.252 6.90691L103.453 7.80781L110.06 1.2012L109.159 0Z" fill="#4C4C4C" stroke="black" stroke-width="0.3003"/>
<path d="M148.949 39.7891L142.042 46.696L143.243 47.8972L150 40.9903L148.949 39.7891Z" fill="#4C4C4C" stroke="black" stroke-width="0.3003"/>
<path d="M148.949 44.4464L146.696 46.6986L103.453 3.45538L105.705 1.20312L148.949 44.4464Z" fill="#B2B2B2" stroke="black" stroke-width="0.3003"/>
</g>
<defs>
<clipPath id="clip0_2109_179470">
<rect width="150" height="150" fill="white"/>
</clipPath>
</defs>
</svg>
