<svg width="150" height="150" viewBox="0 0 150 150" fill="none" xmlns="http://www.w3.org/2000/svg">
<g clip-path="url(#clip0_2109_179644)">
<path d="M139.64 138.568H0V23.2102H20.1201V0H119.82V23.2102H139.64V138.568Z" fill="#CCCCCC" stroke="black" stroke-width="0.322537"/>
<path d="M119.82 138.569V23.2109H20.1201V138.569" stroke="#7F7F7F" stroke-width="0.322537"/>
<path d="M134.835 18.7052H150V14.8945H134.835V18.7052Z" fill="#4C4C4C" stroke="black" stroke-width="0.322537"/>
<path d="M134.835 146.882H150V143.418H134.835V146.882Z" fill="#4C4C4C" stroke="black" stroke-width="0.322537"/>
<path d="M139.64 11.7773H144.745V149.999H139.64V11.7773Z" fill="#B2B2B2" stroke="black" stroke-width="0.322537"/>
<path d="M22.9727 26.3281L69.9697 80.3697L22.9727 134.758V26.3281Z" fill="#BFBFBF"/>
<path d="M116.817 26.3281L69.9697 80.3697L116.817 134.758V26.3281Z" fill="#CCCCCC"/>
<path d="M116.817 26.6758L69.9704 80.3709L22.8232 26.6758H116.817Z" fill="#B2B2B2"/>
<path d="M116.817 134.759L69.9704 80.3711L22.8232 134.759H116.817Z" fill="#D9D9D9"/>
</g>
<defs>
<clipPath id="clip0_2109_179644">
<rect width="150" height="150" fill="white"/>
</clipPath>
</defs>
</svg>
