<svg width="150" height="150" viewBox="0 0 150 150" fill="none" xmlns="http://www.w3.org/2000/svg">
<g clip-path="url(#clip0_2109_179552)">
<path d="M82.1321 139.039L0 56.9069L56.9069 0L139.039 82.1321L82.1321 139.039Z" fill="#BFBFBF" stroke="black" stroke-width="0.3003"/>
<path d="M82.1321 135.586L135.886 82.1321L69.5195 69.5195L82.1321 135.586Z" fill="#D9D9D9"/>
<path d="M69.8197 69.2186L82.132 135.585L3.60352 56.9062L69.8197 69.2186Z" fill="#CCCCCC"/>
<path d="M3.60352 56.9061L57.2071 3.15234L69.5194 69.5187L3.60352 56.9061Z" fill="#B2B2B2"/>
<path d="M150 85.4363L139.039 74.9258L137.388 76.7276L148.199 87.2381L150 85.4363Z" fill="#4C4C4C" stroke="black" stroke-width="0.3003"/>
<path d="M87.5374 148.198L76.7266 137.387L74.9248 139.038L85.7356 149.999L87.5374 148.198Z" fill="#4C4C4C" stroke="black" stroke-width="0.3003"/>
<path d="M80.3302 148.198L76.7266 144.444L144.444 76.4258L148.198 80.0294L80.3302 148.198Z" fill="#B2B2B2" stroke="black" stroke-width="0.3003"/>
</g>
<defs>
<clipPath id="clip0_2109_179552">
<rect width="150" height="150" fill="white"/>
</clipPath>
</defs>
</svg>
