<svg width="150" height="150" viewBox="0 0 150 150" fill="none" xmlns="http://www.w3.org/2000/svg">
<g clip-path="url(#clip0_2109_179617)">
<path d="M138.581 0V140.09H23.3564V119.97H0V19.97H23.3564V0H138.581Z" fill="#CCCCCC" stroke="black" stroke-width="0.322351"/>
<path d="M138.581 19.9688H23.3564V119.969H138.581" stroke="#7F7F7F" stroke-width="0.322351"/>
<path d="M18.5123 149.999V134.684H14.7061V149.999H18.5123Z" fill="#4C4C4C" stroke="black" stroke-width="0.322351"/>
<path d="M147.232 149.999V134.684H143.426V149.999H147.232Z" fill="#4C4C4C" stroke="black" stroke-width="0.322351"/>
<path d="M11.5918 144.894V139.789H150V144.894H11.5918Z" fill="#B2B2B2" stroke="black" stroke-width="0.322351"/>
<path d="M27.1631 22.9727L80.9693 69.6694L27.1631 116.666V22.9727Z" fill="#BFBFBF"/>
<path d="M134.775 22.9727L80.9688 69.6694L134.775 116.666V22.9727Z" fill="#CCCCCC"/>
<path d="M134.775 23.2734L80.9687 69.6698L26.8164 23.2734H134.775Z" fill="#B2B2B2"/>
<path d="M134.775 116.665L80.9687 69.668L26.8164 116.665H134.775Z" fill="#D9D9D9"/>
</g>
<defs>
<clipPath id="clip0_2109_179617">
<rect width="150" height="150" fill="white"/>
</clipPath>
</defs>
</svg>
