<svg width="150" height="150" viewBox="0 0 150 150" fill="none" xmlns="http://www.w3.org/2000/svg">
<g clip-path="url(#clip0_2109_179759)">
<path d="M22.6375 35.8869L59.4499 9.16016L136.46 63.8148L121.227 74.6256L136.46 85.7367L59.8731 140.091L44.2172 129.28L22.6375 113.064H0L0.423131 36.1872L22.6375 35.8869Z" fill="#CCCCCC" stroke="black" stroke-width="0.356464"/>
<path d="M22.6377 112.765L121.227 74.6264L22.6377 36.4883" stroke="#7F7F7F" stroke-width="0.356464"/>
<path d="M147.461 60.5117L135.613 68.9201L138.152 70.7219L149.577 62.3135L147.461 60.5117Z" fill="#4C4C4C" stroke="black" stroke-width="0.356464"/>
<path d="M61.5652 0L50.1406 7.95796L52.2563 9.75976L64.104 1.8018L61.5652 0Z" fill="#4C4C4C" stroke="black" stroke-width="0.356464"/>
<path d="M147.885 66.5162L144.077 69.2189L51.834 3.90363L55.6422 1.05078L147.885 66.5162Z" fill="#B2B2B2" stroke="black" stroke-width="0.356464"/>
<path d="M23.0605 36.4883V113.966" stroke="#7F7F7F" stroke-width="0.356464"/>
<path d="M136.037 80.9307L147.462 89.3391L150 87.5373L138.576 79.1289L136.037 80.9307Z" fill="#4C4C4C" stroke="black" stroke-width="0.356464"/>
<path d="M50.1406 141.892L61.9883 150L64.5271 148.048L52.6794 140.09L50.1406 141.892Z" fill="#4C4C4C" stroke="black" stroke-width="0.356464"/>
<path d="M144.076 80.332L148.308 83.335L56.065 148.5L52.2568 145.797L144.076 80.332Z" fill="#B2B2B2" stroke="black" stroke-width="0.356464"/>
</g>
<defs>
<clipPath id="clip0_2109_179759">
<rect width="150" height="150" fill="white"/>
</clipPath>
</defs>
</svg>
