<svg width="150" height="150" viewBox="0 0 150 150" fill="none" xmlns="http://www.w3.org/2000/svg">
<g clip-path="url(#clip0_2109_179813)">
<path d="M93.3932 6.77344L78.6785 22.057V6.77344H7.20703V127.309V142.435H78.6785V127.309L143.694 59.557L93.3932 6.77344Z" fill="#CCCCCC" stroke="black" stroke-width="0.307624"/>
<path d="M7.20703 22.0586H78.6785V127.311H7.20703" stroke="#7F7F7F" stroke-width="0.307624"/>
<path d="M140.541 67.4355L148.049 59.2422L150 61.1329L142.043 69.3262L140.541 67.4355Z" fill="#4C4C4C" stroke="black" stroke-width="0.307624"/>
<path d="M83.7842 8.19328L91.592 0L93.0935 1.89076L85.586 9.76891L83.7842 8.19328Z" fill="#4C4C4C" stroke="black" stroke-width="0.307624"/>
<path d="M145.946 68.0658L148.499 65.2297L87.6881 1.10156L84.9854 4.09526L145.946 68.0658Z" fill="#B2B2B2" stroke="black" stroke-width="0.307624"/>
<path d="M81.6816 138.656V150.001H84.084V138.656H81.6816Z" fill="#4C4C4C" stroke="black" stroke-width="0.307624"/>
<path d="M1.80176 138.656V150.001H4.05401V138.656H1.80176Z" fill="#4C4C4C" stroke="black" stroke-width="0.307624"/>
<path d="M85.8859 142.438V146.219H0V142.438H85.8859Z" fill="#B2B2B2" stroke="black" stroke-width="0.307624"/>
<path d="M10.21 24.5781L42.9427 74.0529L10.21 123.528V24.5781Z" fill="#BFBFBF"/>
<path d="M75.6761 24.5781L42.9434 74.0529L75.6761 123.528V24.5781Z" fill="#CCCCCC"/>
<path d="M75.6754 24.8945L42.9427 74.0542L10.21 24.8945H75.6754Z" fill="#B2B2B2"/>
<path d="M75.6754 123.529L42.9427 74.0547L10.21 123.529H75.6754Z" fill="#D9D9D9"/>
</g>
<defs>
<clipPath id="clip0_2109_179813">
<rect width="150" height="150" fill="white"/>
</clipPath>
</defs>
</svg>
