<svg width="150" height="150" viewBox="0 0 150 150" fill="none" xmlns="http://www.w3.org/2000/svg">
<g clip-path="url(#clip0_2109_179405)">
<path d="M70.5706 137.628H0V11.2109H70.5706V137.628Z" fill="#B2B2B2" stroke="black" stroke-width="0.481862"/>
<path d="M69.0692 133.764V15.4648L35.4355 75.0009L69.0692 133.764Z" fill="#CCCCCC"/>
<path d="M35.4356 74.2266L69.0693 133.763H1.35156L35.4356 74.2266Z" fill="#D9D9D9"/>
<path d="M1.35156 133.764V15.4648L35.4356 75.0009L1.35156 133.764Z" fill="#BFBFBF"/>
<path d="M143.994 137.628H73.5732V11.2109H143.994V137.628Z" fill="#B2B2B2" stroke="black" stroke-width="0.481862"/>
<path d="M142.343 133.764V15.4648L108.709 75.0009L142.343 133.764Z" fill="#CCCCCC"/>
<path d="M108.709 74.2266L142.342 133.763H75.0752L108.709 74.2266Z" fill="#D9D9D9"/>
<path d="M75.0752 133.764V15.4648L108.709 75.0009L75.0752 133.764Z" fill="#BFBFBF"/>
<path d="M76.5769 3.86719H67.2676V7.73317H76.5769V3.86719Z" fill="#4C4C4C" stroke="black" stroke-width="0.481862"/>
<path d="M76.5769 141.496H67.2676V146.135H76.5769V141.496Z" fill="#4C4C4C" stroke="black" stroke-width="0.481862"/>
<path d="M73.5738 150H70.2705V0H73.5738V150Z" fill="#B2B2B2" stroke="black" stroke-width="0.481862"/>
<path d="M150 3.86719H140.69V7.73317H150V3.86719Z" fill="#4C4C4C" stroke="black" stroke-width="0.481862"/>
<path d="M150 141.496H140.69V146.135H150V141.496Z" fill="#4C4C4C" stroke="black" stroke-width="0.481862"/>
<path d="M146.997 150H143.544V0H146.997V150Z" fill="#B2B2B2" stroke="black" stroke-width="0.481862"/>
</g>
<defs>
<clipPath id="clip0_2109_179405">
<rect width="150" height="150" fill="white"/>
</clipPath>
</defs>
</svg>
