<svg width="150" height="150" viewBox="0 0 150 150" fill="none" xmlns="http://www.w3.org/2000/svg">
<g clip-path="url(#clip0_2109_179374)">
<path d="M150 3.07812H145.346V6.92428H150V3.07812Z" fill="#4C4C4C" stroke="black" stroke-width="0.679706"/>
<path d="M150 142.309H145.346V145.386H150V142.309Z" fill="#4C4C4C" stroke="black" stroke-width="0.679706"/>
<path d="M35.5856 137.693H0V11.5391H35.5856V137.693Z" fill="#B2B2B2" stroke="black" stroke-width="0.679706"/>
<path d="M34.685 133.079V14.6172L17.8682 74.6172L34.685 133.079Z" fill="#CCCCCC"/>
<path d="M17.8681 74.6172L34.6849 133.079H0.750977L17.8681 74.6172Z" fill="#D9D9D9"/>
<path d="M0.750977 133.079V14.6172L17.8681 74.6172L0.750977 133.079Z" fill="#BFBFBF"/>
<path d="M72.5224 137.693H37.0869V11.5391H72.5224V137.693Z" fill="#B2B2B2" stroke="black" stroke-width="0.679706"/>
<path d="M71.9218 133.079V14.6172L54.8047 74.6172L71.9218 133.079Z" fill="#CCCCCC"/>
<path d="M54.8046 74.6172L71.9217 133.079H37.6875L54.8046 74.6172Z" fill="#D9D9D9"/>
<path d="M37.6875 133.079V14.6172L54.8046 74.6172L37.6875 133.079Z" fill="#BFBFBF"/>
<path d="M38.5885 3.07812H34.084V6.92428H38.5885V3.07812Z" fill="#4C4C4C" stroke="black" stroke-width="0.679706"/>
<path d="M38.5885 142.309H34.084V145.386H38.5885V142.309Z" fill="#4C4C4C" stroke="black" stroke-width="0.679706"/>
<path d="M37.0874 150H35.5859V0H37.0874V150Z" fill="#B2B2B2" stroke="black" stroke-width="0.679706"/>
<path d="M75.526 3.07812H71.0215V6.92428H75.526V3.07812Z" fill="#4C4C4C" stroke="black" stroke-width="0.679706"/>
<path d="M75.526 142.309H71.0215V145.386H75.526V142.309Z" fill="#4C4C4C" stroke="black" stroke-width="0.679706"/>
<path d="M74.024 150H72.5225V0H74.024V150Z" fill="#B2B2B2" stroke="black" stroke-width="0.679706"/>
<path d="M109.76 137.693H74.3242V11.5391H109.76V137.693Z" fill="#B2B2B2" stroke="black" stroke-width="0.679706"/>
<path d="M109.159 133.079V14.6172L92.042 74.6172L109.159 133.079Z" fill="#CCCCCC"/>
<path d="M92.0419 74.6172L109.159 133.079H74.9248L92.0419 74.6172Z" fill="#D9D9D9"/>
<path d="M74.9248 133.079V14.6172L92.0419 74.6172L74.9248 133.079Z" fill="#BFBFBF"/>
<path d="M146.997 137.693H111.262V11.5391H146.997V137.693Z" fill="#B2B2B2" stroke="black" stroke-width="0.679706"/>
<path d="M146.396 133.079V14.6172L129.279 74.6172L146.396 133.079Z" fill="#CCCCCC"/>
<path d="M129.279 74.6172L146.396 133.079H112.162L129.279 74.6172Z" fill="#D9D9D9"/>
<path d="M112.162 133.079V14.6172L129.279 74.6172L112.162 133.079Z" fill="#BFBFBF"/>
<path d="M113.063 3.07812H108.258V6.92428H113.063V3.07812Z" fill="#4C4C4C" stroke="black" stroke-width="0.679706"/>
<path d="M113.063 142.309H108.258V145.386H113.063V142.309Z" fill="#4C4C4C" stroke="black" stroke-width="0.679706"/>
<path d="M111.261 150H109.76V0H111.261V150Z" fill="#B2B2B2" stroke="black" stroke-width="0.679706"/>
<path d="M148.499 150H146.997V0H148.499V150Z" fill="#B2B2B2" stroke="black" stroke-width="0.679706"/>
</g>
<defs>
<clipPath id="clip0_2109_179374">
<rect width="150" height="150" fill="white"/>
</clipPath>
</defs>
</svg>
