<svg width="150" height="150" viewBox="0 0 150 150" fill="none" xmlns="http://www.w3.org/2000/svg">
<g clip-path="url(#clip0_2109_179487)">
<path d="M139.189 67.7189L56.9069 150.001L0 92.9442L82.1321 10.5117L139.189 67.7189Z" fill="#B2B2B2" stroke="black" stroke-width="0.3003"/>
<path d="M135.586 67.7186L82.1321 13.9648L69.5195 80.3312L135.586 67.7186Z" fill="#BFBFBF"/>
<path d="M69.5198 80.0311L135.586 67.7188L56.9072 146.397L69.5198 80.0311Z" fill="#D9D9D9"/>
<path d="M56.9073 146.398L3.30371 92.6443L69.5199 80.332L56.9073 146.398Z" fill="#CCCCCC"/>
<path d="M85.4353 0L74.9248 10.5105L76.7266 12.4625L87.2371 1.65165L85.4353 0Z" fill="#4C4C4C" stroke="black" stroke-width="0.3003"/>
<path d="M148.199 62.3125L137.388 73.1233L139.189 74.9251L150 64.1143L148.199 62.3125Z" fill="#4C4C4C" stroke="black" stroke-width="0.3003"/>
<path d="M148.199 69.5202L144.595 73.1238L76.4268 5.25595L80.0304 1.65234L148.199 69.5202Z" fill="#B2B2B2" stroke="black" stroke-width="0.3003"/>
</g>
<defs>
<clipPath id="clip0_2109_179487">
<rect width="150" height="150" fill="white"/>
</clipPath>
</defs>
</svg>
