<svg width="150" height="150" viewBox="0 0 150 150" fill="none" xmlns="http://www.w3.org/2000/svg">
<g clip-path="url(#clip0_2109_179882)">
<path d="M0 52.4024L15.7895 67.4174H0V142.342H126H141.789V67.4174H126L55.1053 0L0 52.4024Z" fill="#CCCCCC" stroke="black" stroke-width="0.307948"/>
<path d="M15.7891 142.343V67.418H126V142.343" stroke="#7F7F7F" stroke-width="0.307948"/>
<path d="M138 64.4141H150V62.0117H138V64.4141Z" fill="#4C4C4C" stroke="black" stroke-width="0.307948"/>
<path d="M138 148.049H150V145.797H138V148.049Z" fill="#4C4C4C" stroke="black" stroke-width="0.307948"/>
<path d="M141.789 59.9102H145.894V150H141.789V59.9102Z" fill="#B2B2B2" stroke="black" stroke-width="0.307948"/>
<path d="M18.6318 69.5195L70.5792 104.505L18.6318 139.64V69.5195Z" fill="#BFBFBF"/>
<path d="M122.842 69.5195L70.5791 104.505L122.842 139.64V69.5195Z" fill="#CCCCCC"/>
<path d="M122.842 69.5195L70.5786 104.505L18.3154 69.5195H122.842Z" fill="#B2B2B2"/>
<path d="M122.842 139.639L70.5786 104.504L18.3154 139.639H122.842Z" fill="#D9D9D9"/>
</g>
<defs>
<clipPath id="clip0_2109_179882">
<rect width="150" height="150" fill="white"/>
</clipPath>
</defs>
</svg>
