<svg width="150" height="150" viewBox="0 0 150 150" fill="none" xmlns="http://www.w3.org/2000/svg">
<g clip-path="url(#clip0_2109_179780)">
<path d="M111.261 22.649L139.64 60L81.5315 136.689L70.1201 121.589L58.2583 136.689L0 60L11.7117 44.3046L29.2793 22.649V0L111.261 0.397351V22.649Z" fill="#CCCCCC" stroke="black" stroke-width="0.345434"/>
<path d="M29.2793 22.6484L70.1201 121.589L110.661 22.6484" stroke="#7F7F7F" stroke-width="0.345434"/>
<path d="M84.9849 147.616L76.126 135.895L74.3242 138.279L83.0329 150L84.9849 147.616Z" fill="#4C4C4C" stroke="black" stroke-width="0.345434"/>
<path d="M150 61.9875L141.141 50.2656L139.039 52.6497L148.048 64.3716L150 61.9875Z" fill="#4C4C4C" stroke="black" stroke-width="0.345434"/>
<path d="M78.5289 148.409L75.8262 144.435L145.346 52.25L148.349 56.0248L78.5289 148.409Z" fill="#B2B2B2" stroke="black" stroke-width="0.345434"/>
<path d="M110.961 23.0469H28.0781" stroke="#7F7F7F" stroke-width="0.345434"/>
</g>
<defs>
<clipPath id="clip0_2109_179780">
<rect width="150" height="150" fill="white"/>
</clipPath>
</defs>
</svg>
