<svg width="150" height="150" viewBox="0 0 150 150" fill="none" xmlns="http://www.w3.org/2000/svg">
<g clip-path="url(#clip0_2109_179680)">
<path d="M0 19.8198L19.8596 20.1201V0H119.458L119.759 20.1201L140.07 19.8198V119.52H119.759V139.79H19.8596V119.52H0V19.8198Z" fill="#CCCCCC" stroke="black" stroke-width="0.300601"/>
<path d="M119.759 19.8203L19.8594 20.1206V119.82H119.759V19.8203Z" stroke="#7F7F7F" stroke-width="0.300601"/>
<path d="M150 123.723H134.805V127.026H150V123.723Z" fill="#4C4C4C" stroke="black" stroke-width="0.300601"/>
<path d="M150 12.3125H134.805V15.6158H150V12.3125Z" fill="#4C4C4C" stroke="black" stroke-width="0.300601"/>
<path d="M144.734 129.73H140.07V9.91016H144.734V129.73Z" fill="#B2B2B2" stroke="black" stroke-width="0.300601"/>
<path d="M123.972 134.836V150.001H126.981V134.836H123.972Z" fill="#4C4C4C" stroke="black" stroke-width="0.300601"/>
<path d="M12.3369 134.836V150.001H15.6468V134.836H12.3369Z" fill="#4C4C4C" stroke="black" stroke-width="0.300601"/>
<path d="M129.689 139.789V144.894H9.92969V139.789H129.689Z" fill="#B2B2B2" stroke="black" stroke-width="0.300601"/>
<path d="M22.5674 22.8242L69.2073 69.6711L22.5674 116.518V22.8242Z" fill="#BFBFBF"/>
<path d="M116.149 22.8242L69.208 69.6711L116.149 116.518V22.8242Z" fill="#CCCCCC"/>
<path d="M116.148 23.125L69.2074 69.6715L22.2666 23.125H116.148Z" fill="#B2B2B2"/>
<path d="M116.148 116.515L69.2074 69.668L22.2666 116.515H116.148Z" fill="#D9D9D9"/>
</g>
<defs>
<clipPath id="clip0_2109_179680">
<rect width="150" height="150" fill="white"/>
</clipPath>
</defs>
</svg>
