<svg width="150" height="150" viewBox="0 0 150 150" fill="none" xmlns="http://www.w3.org/2000/svg">
<g clip-path="url(#clip0_2109_181390)">
<path d="M32.7324 89.1875H117.117V98.3467H32.7324V89.1875Z" fill="black" stroke="black" stroke-width="0.3003"/>
<path d="M46.6963 18.7703H103.153V7.05859H46.6963V18.7703Z" fill="black" stroke="black" stroke-width="0.3003"/>
<path d="M9.15918 37.5391H140.691V84.3859H9.15918V37.5391Z" fill="#FF9E59" stroke="black" stroke-width="0.3003"/>
<path d="M10.3604 38.7383H139.489V45.495H10.3604V38.7383Z" fill="#FFBE90"/>
<path d="M10.3604 73.875H139.489V83.1843H10.3604V73.875Z" fill="#FF7D21"/>
<path d="M32.7324 107.957L37.5372 149.999H112.312L117.117 107.957H32.7324Z" fill="#FF7D21" stroke="black" stroke-width="0.3003"/>
<path d="M44.2939 7.05706V2.25225L49.0988 0H100.75L105.555 2.25225V7.05706H44.2939Z" fill="#333333" stroke="black" stroke-width="0.3003"/>
<path d="M41.8916 35.1359V23.5743L46.6964 18.7695H103.153L107.958 23.5743V35.1359H41.8916Z" fill="#333333" stroke="black" stroke-width="0.3003"/>
<path d="M140.69 23.5742H150V98.349H140.69V23.5742Z" fill="#FF9143" stroke="black" stroke-width="0.3003"/>
<path d="M37.5371 35.1367H112.312V84.386H37.5371V35.1367Z" fill="#FF9143" stroke="black" stroke-width="0.3003"/>
<path d="M0 23.5742H9.15916V98.349H0V23.5742Z" fill="#FF9143" stroke="black" stroke-width="0.3003"/>
<path d="M65.4658 79.1289H70.2706V109.91H65.4658V79.1289Z" fill="#999999" stroke="black" stroke-width="0.3003"/>
<path d="M37.5371 79.1289H41.8915V109.91H37.5371V79.1289Z" fill="#999999" stroke="black" stroke-width="0.3003"/>
<path d="M51.502 79.1289H56.3068V109.91H51.502V79.1289Z" fill="#999999" stroke="black" stroke-width="0.3003"/>
<path d="M79.5791 79.1289H84.3839V109.91H79.5791V79.1289Z" fill="#999999" stroke="black" stroke-width="0.3003"/>
<path d="M93.5439 79.1289H98.3488V109.91H93.5439V79.1289Z" fill="#999999" stroke="black" stroke-width="0.3003"/>
<path d="M107.958 79.1289H112.312V109.91H107.958V79.1289Z" fill="#999999" stroke="black" stroke-width="0.3003"/>
<path d="M27.9277 79.5781H121.922V89.1877H27.9277V79.5781Z" fill="#FF9E59" stroke="black" stroke-width="0.3003"/>
<path d="M27.9277 98.3477H121.922V107.957H27.9277V98.3477Z" fill="#FF9E59" stroke="black" stroke-width="0.3003"/>
<path d="M141.141 77.9297H149.099V97.8997H141.141V77.9297Z" fill="#FF7D21"/>
<path d="M0.300781 77.9297H8.70919V97.8997H0.300781V77.9297Z" fill="#FF7D21"/>
<path d="M141.141 23.875H149.099V39.9411H141.141V23.875Z" fill="#FFBE90"/>
<path d="M0.300781 23.875H8.70919V39.9411H0.300781V23.875Z" fill="#FFBE90"/>
</g>
<defs>
<clipPath id="clip0_2109_181390">
<rect width="150" height="150" fill="white"/>
</clipPath>
</defs>
</svg>
