<svg width="150" height="150" viewBox="0 0 150 150" fill="none" xmlns="http://www.w3.org/2000/svg">
<g clip-path="url(#clip0_2109_181416)">
<path d="M112.463 14.2422H130.03V27.1892H112.463V14.2422Z" fill="black" stroke="black" stroke-width="0.333294"/>
<path d="M33.7842 33.1062L37.3878 11.2812H112.463L116.066 33.1062H33.7842Z" fill="#E5E5E5" stroke="black" stroke-width="0.333294"/>
<path d="M135.735 34.5859H150V149.999H135.735V34.5859Z" fill="#4040C6" stroke="black" stroke-width="0.333294"/>
<path d="M13.9639 57.5234H135.736V127.067H13.9639V57.5234Z" fill="#4040C6" stroke="black" stroke-width="0.333294"/>
<path d="M0 34.5859H13.964V149.999H0V34.5859Z" fill="#4040C6" stroke="black" stroke-width="0.333294"/>
<path d="M137.087 116.707H148.648V148.52H137.087V116.707Z" fill="#0000B2"/>
<path d="M15.165 103.762H134.685V125.587H15.165V103.762Z" fill="#0000B2"/>
<path d="M1.20117 116.707H12.7627V148.52H1.20117V116.707Z" fill="#0000B2"/>
<path d="M36.1865 46.0547H113.664V57.522H36.1865V46.0547Z" fill="#0000B2"/>
<path d="M137.087 49.0117H148.648V61.9587H137.087V49.0117Z" fill="#6666D1"/>
<path d="M15.165 64.918H134.685V71.9463H15.165V64.918Z" fill="#6666D1"/>
<path d="M1.20117 49.0117H12.7627V61.9587H1.20117V49.0117Z" fill="#6666D1"/>
<path d="M55.4053 70.4688H94.7446V115.228H55.4053V70.4688Z" fill="#2727BE" stroke="black" stroke-width="0.333294"/>
<path d="M20.8711 33.1055H128.979V44.5728H20.8711V33.1055Z" fill="#CCCCCC" stroke="black" stroke-width="0.333294"/>
<path d="M22.0723 44.5742H127.778V46.0539H22.0723V44.5742Z" fill="black" stroke="black" stroke-width="0.333294"/>
<path d="M113.664 30.1484H128.979V44.5751H113.664V30.1484Z" fill="#E5E5E5" stroke="black" stroke-width="0.333294"/>
<path d="M20.8711 30.1484H36.1864V44.5751H20.8711V30.1484Z" fill="#E5E5E5" stroke="black" stroke-width="0.333294"/>
<path d="M116.066 30.1491H119.37V24.2305H116.066V30.1491Z" fill="#999999" stroke="black" stroke-width="0.333294"/>
<path d="M23.2734 30.1491H26.877V24.2305H23.2734V30.1491Z" fill="#999999" stroke="black" stroke-width="0.333294"/>
<path d="M119.369 30.1491H126.576V24.2305H119.369V30.1491Z" fill="#666666" stroke="black" stroke-width="0.333294"/>
<path d="M26.877 30.1491H33.7839V24.2305H26.877V30.1491Z" fill="#666666" stroke="black" stroke-width="0.333294"/>
<path d="M113.664 46.0547H128.979V60.4813H113.664V46.0547Z" fill="#5252CB" stroke="black" stroke-width="0.333294"/>
<path d="M20.8711 46.0547H36.1864V60.4813H20.8711V46.0547Z" fill="#5252CB" stroke="black" stroke-width="0.333294"/>
<path d="M114.865 11.6523L111.412 8.69297L107.658 6.47349L103.304 4.43896L98.1986 2.77435L93.9944 1.84957L89.4899 0.924784L84.8352 0.369914L79.8802 0H78.2286H76.5769H74.9253H69.8202L65.0154 0.369914L60.3607 0.924784L56.0064 1.84957L51.8022 2.77435L46.6971 4.43896L42.1926 6.28853L38.4388 8.32306L35.586 10.7275L34.9854 11.2824L114.865 11.6523Z" fill="#CC9933" stroke="black" stroke-width="0.333294"/>
<path d="M65.6152 11.2827L68.0176 6.84375H81.8315L84.2339 11.2827H65.6152Z" fill="#D1A300" stroke="black" stroke-width="0.333294"/>
<path d="M37.3877 18.679L38.5889 12.9453H111.262L112.463 18.679H37.3877Z" fill="#CCCCCC"/>
</g>
<defs>
<clipPath id="clip0_2109_181416">
<rect width="150" height="150" fill="white"/>
</clipPath>
</defs>
</svg>
