<svg width="150" height="150" viewBox="0 0 150 150" fill="none" xmlns="http://www.w3.org/2000/svg">
<g clip-path="url(#clip0_2109_182491)">
<path d="M3.003 150V124.245L0 119.918V72.7335L3.003 68.6126V47.1841H12.4625V68.6126L21.7718 64.2857V55.6319L23.7237 55.2198L22.973 50.4808L34.8348 47.1841L35.4354 51.9231L37.3874 51.3049L40.5405 59.9588H46.8468V55.6319H42.1922V51.3049H43.6937V38.5302L45.1952 36.4698H54.6547L56.1562 38.5302V29.8764L59.3093 25.5494V4.12088L62.4625 0H87.3874L90.5405 4.12088V25.5494L93.6937 29.8764V38.5302L95.1952 36.4698H104.655L106.156 38.5302V51.3049H107.658V55.6319H103.003V59.9588L131.231 77.0604L137.387 72.7335V47.1841H146.847V68.6126L150 72.7335V119.918L146.847 124.245V150H137.387V132.898L128.078 119.918H100L93.6937 124.245L87.3874 141.346H62.4625L59.3093 132.898L18.6186 119.918L12.4625 124.245V150H3.003Z" fill="#00FFFF" stroke="black" stroke-width="0.351781"/>
<path d="M59.3096 132.9H74.9252L93.694 124.246" stroke="black" stroke-width="0.351781"/>
<path d="M100 119.919L106.156 115.798L113.964 113.531L121.772 115.798L128.078 119.919" stroke="black" stroke-width="0.351781"/>
<path d="M3.00293 124.245V68.6133" stroke="black" stroke-width="0.351781"/>
<path d="M146.847 124.245V68.6133" stroke="black" stroke-width="0.351781"/>
<path d="M46.8467 55.6328H103.003" stroke="black" stroke-width="0.351781"/>
<path d="M27.9275 106.936C33.0689 106.936 37.2368 101.217 37.2368 94.1614C37.2368 87.1062 33.0689 81.3867 27.9275 81.3867C22.7861 81.3867 18.6182 87.1062 18.6182 94.1614C18.6182 101.217 22.7861 106.936 27.9275 106.936Z" stroke="black" stroke-width="0.351781"/>
<path d="M121.772 106.936C126.914 106.936 131.082 101.217 131.082 94.1614C131.082 87.1062 126.914 81.3867 121.772 81.3867C116.631 81.3867 112.463 87.1062 112.463 94.1614C112.463 101.217 116.631 106.936 121.772 106.936Z" stroke="black" stroke-width="0.351781"/>
<path d="M12.4629 68.6133V124.245" stroke="black" stroke-width="0.351781"/>
<path d="M137.388 132.899V72.7344" stroke="black" stroke-width="0.351781"/>
<path d="M43.6934 38.5312H106.156" stroke="black" stroke-width="0.351781"/>
<path d="M90.5408 25.5508H59.3096" stroke="black" stroke-width="0.351781"/>
<path d="M93.6938 29.875H56.1562" stroke="black" stroke-width="0.351781"/>
<path d="M74.9248 25.5508V29.8777" stroke="black" stroke-width="0.351781"/>
<path d="M68.6191 25.5508V29.8777" stroke="black" stroke-width="0.351781"/>
<path d="M81.2314 25.5508V29.8777" stroke="black" stroke-width="0.351781"/>
<path d="M23.874 55.2186L35.4356 51.9219" stroke="black" stroke-width="0.351781"/>
<path d="M26.877 54.3953L26.2764 49.6562" stroke="black" stroke-width="0.351781"/>
<path d="M32.4326 52.7468L31.832 48.0078" stroke="black" stroke-width="0.351781"/>
<path d="M43.6934 51.3047V55.6316" stroke="black" stroke-width="0.351781"/>
<path d="M106.156 51.3047V55.6316" stroke="black" stroke-width="0.351781"/>
</g>
<defs>
<clipPath id="clip0_2109_182491">
<rect width="150" height="150" fill="white"/>
</clipPath>
</defs>
</svg>
