<svg width="150" height="150" viewBox="0 0 150 150" fill="none" xmlns="http://www.w3.org/2000/svg">
<g clip-path="url(#clip0_2109_181830)">
<path d="M36.4863 0H113.363V150H36.4863V0Z" fill="#E5E5E5" stroke="black" stroke-width="0.419883"/>
<path d="M74.7752 121.526C87.9604 121.526 98.6491 100.63 98.6491 74.8529C98.6491 49.076 87.9604 28.1797 74.7752 28.1797C61.5901 28.1797 50.9014 49.076 50.9014 74.8529C50.9014 100.63 61.5901 121.526 74.7752 121.526Z" fill="#7F7F7F" stroke="black" stroke-width="0.419883"/>
<path d="M74.9252 107.73C84.2129 107.73 91.742 93.0106 91.742 74.8533C91.742 56.696 84.2129 41.9766 74.9252 41.9766C65.6375 41.9766 58.1084 56.696 58.1084 74.8533C58.1084 93.0106 65.6375 107.73 74.9252 107.73Z" fill="#333333" stroke="black" stroke-width="0.419883"/>
<path d="M74.9254 102.738C82.8033 102.738 89.1897 90.2526 89.1897 74.8513C89.1897 59.4501 82.8033 46.9648 74.9254 46.9648C67.0475 46.9648 60.6611 59.4501 60.6611 74.8513C60.6611 90.2526 67.0475 102.738 74.9254 102.738Z" fill="#666666" stroke="black" stroke-width="0.419883"/>
<path d="M74.9249 84.2476C77.5785 84.2476 79.7297 80.0421 79.7297 74.8543C79.7297 69.6665 77.5785 65.4609 74.9249 65.4609C72.2713 65.4609 70.1201 69.6665 70.1201 74.8543C70.1201 80.0421 72.2713 84.2476 74.9249 84.2476Z" fill="#7F7F7F" stroke="black" stroke-width="0.419883"/>
<path d="M74.9248 78.377C75.92 78.377 76.7267 76.8 76.7267 74.8545C76.7267 72.9091 75.92 71.332 74.9248 71.332C73.9297 71.332 73.123 72.9091 73.123 74.8545C73.123 76.8 73.9297 78.377 74.9248 78.377Z" fill="#B2B2B2" stroke="black" stroke-width="0.419883"/>
<path d="M41.2911 79.5496C42.6179 79.5496 43.6935 77.4468 43.6935 74.8529C43.6935 72.259 42.6179 70.1562 41.2911 70.1562C39.9643 70.1562 38.8887 72.259 38.8887 74.8529C38.8887 77.4468 39.9643 79.5496 41.2911 79.5496Z" fill="#E5E5E5"/>
<path d="M44.7445 74.853V73.3853L44.4442 72.2112L44.1439 71.3305L43.8436 70.1564L43.243 69.2757L42.6424 68.6886L42.0418 68.3951L41.291 68.1016V72.2112H41.5913L41.8916 72.5047L42.1919 72.7982L42.3421 73.0918L42.4922 73.3853L42.6424 73.9724V74.2659L42.7925 74.853H44.7445Z" fill="black"/>
<path d="M41.291 81.603L42.0418 81.3095L42.4922 81.0159L43.243 80.4289L43.8436 79.5482L44.1439 78.6676L44.4442 77.4934L44.7445 76.3193V74.8516H42.7925L42.6424 75.4386V76.0257L42.4922 76.6128L42.3421 76.9064L42.1919 77.1999L42.0418 77.4934H41.7415H41.291V81.603Z" fill="black"/>
<path d="M37.9883 74.8516V76.3193L38.2886 77.4934L38.4387 78.6676L38.8892 79.5482L39.4898 80.4289L40.2405 81.0159L40.691 81.3095L41.2916 81.603V77.4934H40.9913H40.691L40.5408 77.1999L40.3907 76.9064L40.2405 76.6128L40.0904 76.0257V75.4386L39.9402 74.8516H37.9883Z" fill="black"/>
<path d="M41.2916 68.1016L40.691 68.3951L40.0904 68.6886L39.4898 69.2757L38.8892 70.1564L38.5889 71.3305L38.2886 72.2112L37.9883 73.3853V74.853H39.9402L40.0904 74.2659V73.9724L40.2405 73.3853L40.3907 73.0918L40.5408 72.7982L40.8411 72.5047L41.1414 72.2112H41.2916V68.1016Z" fill="black"/>
<path d="M43.8436 74.8517V72.7969H38.8887V76.9065H43.8436V74.8517Z" fill="black"/>
<path d="M108.559 79.5496C109.885 79.5496 110.961 77.4468 110.961 74.8529C110.961 72.259 109.885 70.1562 108.559 70.1562C107.232 70.1562 106.156 72.259 106.156 74.8529C106.156 77.4468 107.232 79.5496 108.559 79.5496Z" fill="#E5E5E5"/>
<path d="M112.012 74.853L111.862 73.3853L111.712 72.2112L111.411 71.3305L110.961 70.1564L110.36 69.2757L109.76 68.6886L109.309 68.3951L108.559 68.1016V72.2112H108.859L109.159 72.5047L109.459 72.7982L109.61 73.0918L109.76 73.3853V73.9724L109.91 74.2659V74.853H112.012Z" fill="black"/>
<path d="M108.559 81.603L109.159 81.3095L109.76 81.0159L110.36 80.4289L110.961 79.5482L111.411 78.6676L111.712 77.4934L111.862 76.3193L112.012 74.8516H109.91V75.4386L109.76 76.0257L109.61 76.6128V76.9064L109.459 77.1999L109.159 77.4934H108.859H108.559V81.603Z" fill="black"/>
<path d="M105.105 74.8516L105.256 76.3193L105.406 77.4934L105.706 78.6676L106.157 79.5482L106.607 80.4289L107.208 81.0159L107.808 81.3095L108.559 81.603V77.4934H108.108H107.958L107.808 77.1999L107.658 76.9064L107.508 76.6128L107.358 76.0257L107.208 75.4386V74.8516H105.105Z" fill="black"/>
<path d="M108.559 68.1016L107.808 68.3951L107.208 68.6886L106.607 69.5693L106.157 70.1564L105.706 71.3305L105.406 72.2112L105.256 73.3853L105.105 74.853H107.208V74.2659L107.358 73.9724V73.3853L107.658 73.0918L107.808 72.5047H107.958L108.259 72.2112H108.559V68.1016Z" fill="black"/>
<path d="M110.961 74.8517V72.7969H106.156V76.9065H110.961V74.8517Z" fill="black"/>
<path d="M58.1085 145.011C59.4353 145.011 60.5109 142.908 60.5109 140.314C60.5109 137.72 59.4353 135.617 58.1085 135.617C56.7816 135.617 55.7061 137.72 55.7061 140.314C55.7061 142.908 56.7816 145.011 58.1085 145.011Z" fill="#E5E5E5"/>
<path d="M58.1078 133.855H57.5071L56.9065 134.443L56.3059 135.03L55.7053 135.617L55.2549 136.791L54.9546 137.965L54.8044 139.139L54.6543 140.313H56.7564V140.02L56.9065 139.433L57.0567 138.846L57.2068 138.552L57.357 138.259L57.6573 137.965H57.8075L58.1078 137.672V133.855Z" fill="black"/>
<path d="M61.5619 140.313L61.4117 139.139L61.2616 137.965L60.9613 136.791L60.5108 135.617L60.0604 135.03L59.6099 134.443L58.8591 133.855H58.1084V137.672L58.4087 137.965H58.709L58.8591 138.259L59.1594 138.552L59.3096 138.846L59.4597 139.433V140.02L59.6099 140.313H61.5619Z" fill="black"/>
<path d="M58.1084 147.064L58.8591 146.77L59.4597 146.477L60.0604 145.89L60.5108 145.303L60.9613 144.129L61.2616 142.954L61.4117 141.78L61.5619 140.312H59.6099L59.4597 140.9V141.487L59.3096 142.074L59.1594 142.367L58.8591 142.661L58.709 142.954H58.5588H58.1084V147.064Z" fill="black"/>
<path d="M54.6543 140.312L54.8044 141.78L54.9546 142.954L55.2549 144.129L55.7053 145.303L56.3059 146.183L56.9065 146.477L57.5071 146.77L58.1078 147.064V142.954H57.8075H57.5071L57.357 142.661L57.2068 142.367L57.0567 142.074L56.9065 141.487L56.7564 140.9V140.312H54.6543Z" fill="black"/>
<path d="M58.1079 135.91H57.207V145.304H59.159V135.91H58.1079Z" fill="black"/>
<path d="M91.7413 145.011C93.0681 145.011 94.1437 142.908 94.1437 140.314C94.1437 137.72 93.0681 135.617 91.7413 135.617C90.4145 135.617 89.3389 137.72 89.3389 140.314C89.3389 142.908 90.4145 145.011 91.7413 145.011Z" fill="#E5E5E5"/>
<path d="M91.7415 133.855H90.9908L90.3902 134.443L89.9397 135.03L89.3391 135.617L88.8887 136.791L88.5884 137.965L88.4382 139.139L88.2881 140.313H90.24L90.3902 140.02V139.433L90.5403 138.846L90.6905 138.552L90.8406 138.259L91.1409 137.965H91.4412L91.7415 137.672V133.855Z" fill="black"/>
<path d="M95.1956 140.313L95.0455 139.139L94.8953 137.965L94.595 136.791L94.1446 135.617L93.544 135.03L92.9434 134.443L92.3428 133.855H91.7422V137.672L92.0425 137.965H92.1926L92.4929 138.259L92.6431 138.552L92.7932 138.846L92.9434 139.433L93.0935 140.02V140.313H95.1956Z" fill="black"/>
<path d="M91.7422 147.064L92.3428 146.77L92.9434 146.477L93.544 146.183L94.1446 145.303L94.595 144.129L94.8953 142.954L95.0455 141.78L95.1956 140.312H93.0935V140.9L92.9434 141.487L92.7932 142.074L92.6431 142.367L92.4929 142.661L92.3428 142.954H92.0425H91.7422V147.064Z" fill="black"/>
<path d="M88.2881 140.312L88.4382 141.78L88.5884 142.954L88.8887 144.129L89.3391 145.303L89.9397 146.183L90.5403 146.477L91.1409 146.77L91.7415 147.064V142.954H91.4412H91.1409L90.8406 142.661L90.6905 142.367L90.5403 142.074L90.3902 141.487V140.9L90.24 140.312H88.2881Z" fill="black"/>
<path d="M91.7415 135.91H90.6904V145.304H92.7925V135.91H91.7415Z" fill="black"/>
<path d="M58.1085 13.7957C59.4353 13.7957 60.5109 11.6929 60.5109 9.09902C60.5109 6.50512 59.4353 4.40234 58.1085 4.40234C56.7816 4.40234 55.7061 6.50512 55.7061 9.09902C55.7061 11.6929 56.7816 13.7957 58.1085 13.7957Z" fill="#E5E5E5"/>
<path d="M58.1078 2.34766L57.5071 2.6412L56.9065 2.93474L56.3059 3.52182L55.7053 4.40245L55.2549 5.57662L54.9546 6.75079L54.8044 7.63141L54.6543 9.09912H56.7564V8.51204L56.9065 7.92496L57.0567 7.33787H57.2068L57.357 7.04433L57.6573 6.75079L57.8075 6.45725H58.1078V2.34766Z" fill="black"/>
<path d="M61.5619 9.09912L61.4117 7.63141L61.2616 6.75079L60.9613 5.57662L60.5108 4.40245L60.0604 3.52182L59.6099 2.93474L58.8591 2.6412L58.1084 2.34766V6.45725H58.4087L58.709 6.75079H58.8591L59.1594 7.33787H59.3096L59.4597 7.92496V8.51204L59.6099 9.09912H61.5619Z" fill="black"/>
<path d="M58.1084 15.853L58.8591 15.5595L59.6099 15.2659L60.0604 14.6789L60.5108 13.7982L60.9613 12.6241L61.2616 11.4499L61.4117 10.5693L61.5619 9.10156H59.6099L59.4597 9.68865V10.2757L59.3096 10.8628L59.1594 11.1564L58.8591 11.4499H58.709L58.4087 11.7434H58.1084V15.853Z" fill="black"/>
<path d="M54.6543 9.10156L54.8044 10.5693L54.9546 11.4499L55.2549 12.6241L55.7053 13.7982L56.3059 14.6789L56.9065 15.2659L57.5071 15.5595L58.1078 15.853V11.7434H57.8075L57.6573 11.4499L57.357 11.1564H57.2068L57.0567 10.8628L56.9065 10.2757L56.7564 9.68865V9.10156H54.6543Z" fill="black"/>
<path d="M58.1079 4.40234H57.207V13.7957H59.159V4.40234H58.1079Z" fill="black"/>
<path d="M91.7413 13.7957C93.0681 13.7957 94.1437 11.6929 94.1437 9.09902C94.1437 6.50512 93.0681 4.40234 91.7413 4.40234C90.4145 4.40234 89.3389 6.50512 89.3389 9.09902C89.3389 11.6929 90.4145 13.7957 91.7413 13.7957Z" fill="#E5E5E5"/>
<path d="M91.7415 2.34766L90.9908 2.6412L90.3902 2.93474L89.9397 3.52182L89.3391 4.40245L88.8887 5.57662L88.5884 6.75079L88.4382 7.63141L88.2881 9.09912H90.24L90.3902 8.51204V7.92496L90.5403 7.33787H90.6905L90.8406 7.04433L91.1409 6.75079L91.4412 6.45725H91.7415V2.34766Z" fill="black"/>
<path d="M95.1956 9.09912L95.0455 7.63141L94.8953 6.75079L94.595 5.57662L94.1446 4.40245L93.544 3.52182L92.9434 2.93474L92.3428 2.6412L91.7422 2.34766V6.45725H92.0425L92.1926 6.75079L92.4929 7.04433L92.6431 7.33787H92.7932L92.9434 7.92496L93.0935 8.51204V9.09912H95.1956Z" fill="black"/>
<path d="M91.7422 15.853L92.3428 15.5595L92.9434 15.2659L93.544 14.6789L94.1446 13.7982L94.595 12.6241L94.8953 11.4499L95.0455 10.5693L95.1956 9.10156H93.0935V9.68865L92.9434 10.2757L92.7932 10.8628L92.6431 11.1564H92.4929L92.1926 11.4499L92.0425 11.7434H91.7422V15.853Z" fill="black"/>
<path d="M88.2881 9.10156L88.4382 10.5693L88.5884 11.4499L88.8887 12.6241L89.3391 13.7982L89.9397 14.6789L90.3902 15.2659L90.9908 15.5595L91.7415 15.853V11.7434H91.4412L91.1409 11.4499L90.8406 11.1564H90.6905L90.5403 10.8628L90.3902 10.2757V9.68865L90.24 9.10156H88.2881Z" fill="black"/>
<path d="M91.7415 4.40234H90.6904V13.7957H92.7925V4.40234H91.7415Z" fill="black"/>
<path d="M113.363 14.9688H150V54.8905H113.363V14.9688Z" fill="#B2B2B2" stroke="black" stroke-width="0.419883"/>
<path d="M113.964 13.7969H116.366V56.0669H113.964V13.7969Z" fill="#E5E5E5" stroke="black" stroke-width="0.419883"/>
<path d="M116.967 13.7969H119.219V56.0669H116.967V13.7969Z" fill="#E5E5E5" stroke="black" stroke-width="0.419883"/>
<path d="M119.97 13.7969H122.372V56.0669H119.97V13.7969Z" fill="#E5E5E5" stroke="black" stroke-width="0.419883"/>
<path d="M132.583 13.7969H134.985V56.0669H132.583V13.7969Z" fill="#E5E5E5" stroke="black" stroke-width="0.419883"/>
<path d="M135.586 13.7969H137.988V56.0669H135.586V13.7969Z" fill="#E5E5E5" stroke="black" stroke-width="0.419883"/>
<path d="M138.438 13.7969H140.991V56.0669H138.438V13.7969Z" fill="#E5E5E5" stroke="black" stroke-width="0.419883"/>
<path d="M141.592 13.7969H143.994V56.0669H141.592V13.7969Z" fill="#E5E5E5" stroke="black" stroke-width="0.419883"/>
<path d="M144.595 13.7969H146.997V56.0669H144.595V13.7969Z" fill="#E5E5E5" stroke="black" stroke-width="0.419883"/>
<path d="M147.598 13.7969H150V56.0669H147.598V13.7969Z" fill="#E5E5E5" stroke="black" stroke-width="0.419883"/>
<path d="M0 14.9688H36.4865V54.8905H0V14.9688Z" fill="#B2B2B2" stroke="black" stroke-width="0.419883"/>
<path d="M0 13.7969H2.25225V56.0669H0V13.7969Z" fill="#E5E5E5" stroke="black" stroke-width="0.419883"/>
<path d="M2.85254 13.7969H5.25494V56.0669H2.85254V13.7969Z" fill="#E5E5E5" stroke="black" stroke-width="0.419883"/>
<path d="M5.85547 13.7969H8.25787V56.0669H5.85547V13.7969Z" fill="#E5E5E5" stroke="black" stroke-width="0.419883"/>
<path d="M27.4775 13.7969H29.8799V56.0669H27.4775V13.7969Z" fill="#E5E5E5" stroke="black" stroke-width="0.419883"/>
<path d="M30.4805 13.7969H32.7327V56.0669H30.4805V13.7969Z" fill="#E5E5E5" stroke="black" stroke-width="0.419883"/>
<path d="M33.4834 13.7969H35.8858V56.0669H33.4834V13.7969Z" fill="#E5E5E5" stroke="black" stroke-width="0.419883"/>
</g>
<defs>
<clipPath id="clip0_2109_181830">
<rect width="150" height="150" fill="white"/>
</clipPath>
</defs>
</svg>
