<svg width="150" height="150" viewBox="0 0 150 150" fill="none" xmlns="http://www.w3.org/2000/svg">
<g clip-path="url(#clip0_2109_182183)">
<path d="M150 91.7422V150H124.699V91.7422H150Z" fill="#B2B2B2" stroke="black" stroke-width="0.393777"/>
<path d="M24.5264 106.457H124.698V135.586H24.5264V106.457Z" fill="#B2B2B2" stroke="black" stroke-width="0.393777"/>
<path d="M24.5267 91.7422V150H0V91.7422H24.5267Z" fill="#B2B2B2" stroke="black" stroke-width="0.393777"/>
<path d="M150 98.0469V143.693H124.699V98.0469H150Z" fill="#CCCCCC"/>
<path d="M24.5264 110.961H124.698V130.781H24.5264V110.961Z" fill="#CCCCCC"/>
<path d="M24.5267 98.0469V143.693H0V98.0469H24.5267Z" fill="#CCCCCC"/>
<path d="M150 107.957V133.783H124.699V107.957H150Z" fill="#E5E5E5"/>
<path d="M24.5264 116.367H124.698V125.376H24.5264V116.367Z" fill="#E5E5E5"/>
<path d="M24.5267 107.957V133.783H0V107.957H24.5267Z" fill="#E5E5E5"/>
<path d="M150 117.566V124.173H124.699V117.566H150Z" fill="white"/>
<path d="M24.5264 119.969H124.698V121.771H24.5264V119.969Z" fill="white"/>
<path d="M24.5267 117.566V124.173H0V117.566H24.5267Z" fill="white"/>
<path d="M43.6314 23.5736L24.5264 21.7718V1.65165L43.6314 0V23.5736Z" fill="#E50000" stroke="black" stroke-width="0.393777"/>
<path d="M106.11 0L124.699 1.65165V21.7718L106.11 23.5736V0Z" fill="#E50000" stroke="black" stroke-width="0.393777"/>
<path d="M106.11 7.95907H124.183V5.25637L106.11 4.35547V7.95907Z" fill="#E5E5E5"/>
<path d="M43.6319 7.95907H25.5596V5.25637L43.6319 4.35547V7.95907Z" fill="#E5E5E5"/>
<path d="M43.6318 0H106.11V62.6126H43.6318V0Z" fill="#FF0000" stroke="black" stroke-width="0.393777"/>
<path d="M74.8709 57.958C102.39 57.958 124.699 44.9836 124.699 28.979C124.699 12.9743 102.39 0 74.8709 0C47.3517 0 25.043 12.9743 25.043 28.979C25.043 44.9836 47.3517 57.958 74.8709 57.958Z" fill="#FF0000" stroke="black" stroke-width="0.393777"/>
<path d="M74.8706 48.9478C93.8345 48.9478 109.208 40.0069 109.208 28.9778C109.208 17.9487 93.8345 9.00781 74.8706 9.00781C55.9066 9.00781 40.5332 17.9487 40.5332 28.9778C40.5332 40.0069 55.9066 48.9478 74.8706 48.9478Z" fill="#4C4C4C" stroke="black" stroke-width="0.393777"/>
<path d="M84.4233 107.358L84.1652 107.658L83.6488 107.959L82.8743 108.259L81.8416 108.559L80.2925 108.709L78.7435 109.01H76.9363L75.129 109.16L73.0636 109.01H71.2564L69.7073 108.709L68.1583 108.559L67.1256 108.259L66.0929 107.959L65.5765 107.658L65.3184 107.358V62.6133H84.4233V107.358Z" fill="#4C4C4C" stroke="black" stroke-width="0.393777"/>
<path d="M81.3252 57.8073L85.7142 57.507L89.5868 56.9064L93.4594 56.1556L97.3321 55.1046L100.947 54.0535L104.303 52.7022L107.401 51.2006L110.241 49.549L113.081 47.8973L115.663 45.9454L117.986 43.9934L119.793 41.8913L121.601 39.6391L122.891 37.3868L123.924 35.1346L124.699 32.582H116.437L115.921 34.534L114.888 36.4859L113.855 38.2877L112.306 40.0895L110.757 41.7412L108.95 43.3928L106.885 44.8943L104.561 46.3958L102.237 47.7472L99.6557 48.9484L97.0739 49.9994L93.9758 50.9003L91.1359 51.8013L88.0378 52.4019L84.6815 53.0025L81.3252 53.3028V57.8073Z" fill="#E50000" stroke="black" stroke-width="0.393777"/>
<path d="M124.698 25.3737L123.924 22.9713L122.891 20.5689L121.6 18.3166L119.793 16.0644L117.986 13.9623L115.662 12.0103L113.081 10.2085L110.241 8.4067L107.401 6.75504L104.303 5.40369L100.946 4.05234L97.3318 2.85114L93.4592 1.95024L89.5866 1.19949L85.7139 0.598888L81.3249 0.148438L80.8086 4.65294L84.1649 5.10339L87.5212 5.55384L90.8774 6.30459L93.9755 7.05534L96.8155 8.1064L99.6554 9.15745L102.237 10.3586L104.561 11.71L106.884 13.0614L108.95 14.713L110.757 16.2145L112.306 18.0163L113.855 19.668L114.888 21.6199L115.92 23.5719L116.437 25.3737H124.698Z" fill="#E50000" stroke="black" stroke-width="0.393777"/>
<path d="M68.4165 0.148438L64.2857 0.598888L60.1548 1.19949L56.2822 1.95024L52.6678 2.85114L49.0533 4.05234L45.697 5.40369L42.3407 6.75504L39.5008 8.4067L36.6609 10.2085L34.3373 12.0103L32.0137 13.9623L29.9483 16.0644L28.3993 18.3166L27.1084 20.5689L25.8175 22.9713L25.043 25.3737H33.3046L34.0791 23.5719L34.8536 21.6199L36.1445 19.668L37.4354 18.0163L38.9844 16.2145L40.7917 14.713L42.8571 13.0614L45.1807 11.71L47.5042 10.3586L50.086 9.15745L52.9259 8.1064L55.7659 7.05534L58.864 6.30459L61.9621 5.55384L65.0602 5.10339L68.4165 4.65294V0.148438Z" fill="#E50000" stroke="black" stroke-width="0.393777"/>
<path d="M25.043 32.582L25.8175 35.1346L26.8502 37.3868L28.1411 39.6391L29.6901 41.8913L31.7555 43.9934L34.0791 45.9454L36.4027 47.8973L39.2426 49.549L42.3407 51.2006L45.4388 52.7022L48.7951 54.0535L52.4096 55.1046L56.2822 56.1556L60.1548 56.9064L64.2857 57.507L68.4165 57.8073V53.3028L65.0602 53.0025L61.9621 52.4019L58.864 51.8013L55.7659 50.9003L52.9259 49.9994L50.086 48.9484L47.5042 47.7472L45.1807 46.3958L42.8571 44.8943L40.7917 43.3928L38.9844 41.7412L37.4354 40.0895L36.1445 38.2877L34.8536 36.4859L34.0791 34.534L33.3046 32.582H25.043Z" fill="#E50000" stroke="black" stroke-width="0.393777"/>
<path d="M51.8936 22.9727H97.3325V34.9847H51.8936V22.9727Z" fill="#333333" stroke="black" stroke-width="0.393777"/>
<path d="M54.4746 24.4727H95.2663V33.4817H54.4746V24.4727Z" fill="#B2B2B2" stroke="black" stroke-width="0.393777"/>
<path d="M74.613 56.9053C76.0389 56.9053 77.1948 56.2331 77.1948 55.4038C77.1948 54.5746 76.0389 53.9023 74.613 53.9023C73.1871 53.9023 72.0312 54.5746 72.0312 55.4038C72.0312 56.2331 73.1871 56.9053 74.613 56.9053Z" fill="#B2B2B2" stroke="black" stroke-width="0.393777"/>
<path d="M120.31 30.1793C121.593 30.1793 122.633 29.5742 122.633 28.8279C122.633 28.0816 121.593 27.4766 120.31 27.4766C119.027 27.4766 117.986 28.0816 117.986 28.8279C117.986 29.5742 119.027 30.1793 120.31 30.1793Z" fill="#B2B2B2" stroke="black" stroke-width="0.393777"/>
<path d="M74.3548 3.4527C75.6381 3.4527 76.6784 2.84768 76.6784 2.10135C76.6784 1.35502 75.6381 0.75 74.3548 0.75C73.0716 0.75 72.0312 1.35502 72.0312 2.10135C72.0312 2.84768 73.0716 3.4527 74.3548 3.4527Z" fill="#B2B2B2" stroke="black" stroke-width="0.393777"/>
<path d="M28.6579 30.3311C30.0838 30.3311 31.2397 29.6589 31.2397 28.8296C31.2397 28.0004 30.0838 27.3281 28.6579 27.3281C27.2321 27.3281 26.0762 28.0004 26.0762 28.8296C26.0762 29.6589 27.2321 30.3311 28.6579 30.3311Z" fill="#B2B2B2" stroke="black" stroke-width="0.393777"/>
<path d="M60.6709 66.2148H89.0702V84.5332H60.6709V66.2148Z" fill="#999999" stroke="black" stroke-width="0.393777"/>
<path d="M60.6709 91.7422H89.0702V97.1476H60.6709V91.7422Z" fill="#999999" stroke="black" stroke-width="0.393777"/>
<path d="M69.9658 66.2148H84.4237V84.5332H69.9658V66.2148Z" fill="#CCCCCC" stroke="black" stroke-width="0.393777"/>
<path d="M69.9658 91.7422H84.4237V97.1476H69.9658V91.7422Z" fill="#CCCCCC" stroke="black" stroke-width="0.393777"/>
<path d="M62.2207 66.2173H87.5219V65.3164H62.2207V66.2173Z" fill="#666666" stroke="black" stroke-width="0.393777"/>
<path d="M60.6709 87.2383H89.0702V89.941H60.6709V87.2383Z" fill="#B2B2B2"/>
<path d="M60.6709 98.9492H89.0702V101.652H60.6709V98.9492Z" fill="#B2B2B2"/>
<path d="M63.7695 87.2383H85.9726V89.941H63.7695V87.2383Z" fill="#CCCCCC"/>
<path d="M63.7695 98.9492H85.9726V101.652H63.7695V98.9492Z" fill="#CCCCCC"/>
<path d="M68.417 87.2383H81.3258V89.941H68.417V87.2383Z" fill="#E5E5E5"/>
<path d="M68.417 98.9492H81.3258V101.652H68.417V98.9492Z" fill="#E5E5E5"/>
<path d="M73.0635 98.9492H76.1616V101.652H73.0635V98.9492Z" fill="white"/>
<path d="M73.0635 87.2383H76.1616V89.941H73.0635V87.2383Z" fill="white"/>
<path d="M49.8284 132.581L48.2793 119.969H101.463L99.9144 132.581H49.8284Z" fill="#B2B2B2" stroke="black" stroke-width="0.393777"/>
<path d="M60.6709 98.9492H89.0702V101.652H60.6709V98.9492Z" stroke="black" stroke-width="0.393777"/>
<path d="M60.6709 87.2383H89.0702V89.941H60.6709V87.2383Z" stroke="black" stroke-width="0.393777"/>
</g>
<defs>
<clipPath id="clip0_2109_182183">
<rect width="150" height="150" fill="white"/>
</clipPath>
</defs>
</svg>
