<svg width="150" height="150" viewBox="0 0 150 150" fill="none" xmlns="http://www.w3.org/2000/svg">
<g clip-path="url(#clip0_2109_181298)">
<path d="M140.308 150H9.46154L8.30769 149.85L4.15385 146.396L2.07692 142.642L0.692308 137.537L0 133.784V131.681V129.729L0.230769 123.723L1.38462 118.618L3.23077 114.264L6.46154 110.66L8.30769 109.76L9.46154 109.609H140.538L141.462 109.76L145.846 113.213L147.923 116.967L149.308 122.072L149.769 125.675L150 127.627V129.729L149.769 135.736L148.385 140.991L146.538 145.345L143.308 148.949L141.231 149.85L140.308 150Z" fill="#E5E5E5" stroke="black" stroke-width="0.37229"/>
<path d="M9.46191 109.758L11.3081 110.208L12.9235 111.409L14.5388 113.211L15.2311 114.412L15.9235 115.614L16.6158 117.115L17.0773 118.767L17.5388 120.268L18.0004 122.07L18.2311 124.022L18.4619 125.824L18.6927 127.926V131.98L18.4619 133.932L18.2311 135.734L18.0004 137.686L17.5388 139.488L17.0773 140.989L16.6158 142.641L15.9235 143.992L15.2311 145.343L13.8465 147.446L12.0004 148.947L10.385 149.848L9.46191 149.998" stroke="black" stroke-width="0.37229"/>
<path d="M20.3076 122.973H147.923V129.429H20.3076V122.973Z" fill="white"/>
<path d="M15.2305 148.497L17.5382 145.344H144L141 148.497H15.2305Z" fill="black"/>
<path d="M15 110.961L18.2308 114.865H144L140.769 110.961H15Z" fill="#7F7F7F"/>
<path d="M88.1534 109.459L87.9226 110.06L87.2303 110.661L86.0765 111.261L84.6919 111.561L83.0765 112.012L80.9995 112.162L78.9226 112.312H76.6149H74.3072L71.9995 112.162L70.1534 112.012L68.3072 111.561L66.9226 111.261L65.7688 110.661L65.0765 110.06L64.8457 109.459V93.8438H88.1534V109.459Z" fill="#7F7F7F" stroke="black" stroke-width="0.37229"/>
<path d="M86.0774 110.06V93.8438H82.1543V111.261L86.0774 110.06Z" fill="black"/>
<path d="M12.4616 93.8438L4.15392 88.5886L3.69238 0H139.615L148.385 5.55556V93.8438H12.4616Z" fill="#333333" stroke="black" stroke-width="0.37229"/>
<path d="M12.4619 5.25391H148.385V93.6923H12.4619V5.25391Z" fill="#7F7F7F" stroke="black" stroke-width="0.37229"/>
<path d="M24.2305 17.1172H135.923V31.6818H24.2305V17.1172Z" fill="white" stroke="black" stroke-width="0.37229"/>
<path d="M41.5381 42.3438H62.9996V56.1576H41.5381V42.3438Z" fill="#FF0000" stroke="black" stroke-width="0.37229"/>
<path d="M96.2305 42.3438H117.692V56.1576H96.2305V42.3438Z" fill="#FF0000" stroke="black" stroke-width="0.37229"/>
<path d="M41.5381 65.6172H62.9996V79.431H41.5381V65.6172Z" fill="#FF0000" stroke="black" stroke-width="0.37229"/>
<path d="M96.2305 65.6172H117.692V79.431H96.2305V65.6172Z" fill="#FF0000" stroke="black" stroke-width="0.37229"/>
</g>
<defs>
<clipPath id="clip0_2109_181298">
<rect width="150" height="150" fill="white"/>
</clipPath>
</defs>
</svg>
