<svg width="150" height="150" viewBox="0 0 150 150" fill="none" xmlns="http://www.w3.org/2000/svg">
<g clip-path="url(#clip0_2109_181532)">
<path d="M26.5762 99.8984H123.273V150.002H26.5762V99.8984Z" fill="#E5E5E5" stroke="black" stroke-width="0.305229"/>
<path d="M36.1865 99.8984V149.847" stroke="black" stroke-width="0.305229"/>
<path d="M26.5762 99.8966V2.32678L28.9786 0H72.5221L74.9245 2.32678V99.8966H26.5762Z" fill="black" stroke="black" stroke-width="0.305229"/>
<path d="M123.273 142.397H130.631V137.434H123.273V142.397Z" fill="#7F7F7F" stroke="black" stroke-width="0.305229"/>
<path d="M123.273 137.279H130.631V127.352H123.273V137.279Z" fill="#E5E5E5" stroke="black" stroke-width="0.305229"/>
<path d="M123.273 127.354H130.631V122.391H123.273V127.354Z" fill="white" stroke="black" stroke-width="0.305229"/>
<path d="M137.838 142.397H147.598V137.434H137.838V142.397Z" fill="#7F7F7F" stroke="black" stroke-width="0.305229"/>
<path d="M137.838 137.279H147.598V127.352H137.838V137.279Z" fill="#E5E5E5" stroke="black" stroke-width="0.305229"/>
<path d="M137.838 127.354H147.598V122.391H137.838V127.354Z" fill="white" stroke="black" stroke-width="0.305229"/>
<path d="M147.598 126.113H149.85V138.523H147.598V126.113Z" fill="#E5E5E5" stroke="black" stroke-width="0.305229"/>
<path d="M130.631 126.113H137.838V138.523H130.631V126.113Z" fill="#E5E5E5" stroke="black" stroke-width="0.305229"/>
<path d="M131.682 139.918L130.631 124.871" stroke="black" stroke-width="0.305229"/>
<path d="M133.033 139.918L131.682 124.871" stroke="black" stroke-width="0.305229"/>
<path d="M134.234 139.918L133.033 124.871" stroke="black" stroke-width="0.305229"/>
<path d="M135.436 139.918L134.234 124.871" stroke="black" stroke-width="0.305229"/>
<path d="M136.637 139.918L135.436 124.871" stroke="black" stroke-width="0.305229"/>
<path d="M137.838 139.918L136.637 124.871" stroke="black" stroke-width="0.305229"/>
<path d="M148.649 139.918L147.598 124.871" stroke="black" stroke-width="0.305229"/>
<path d="M148.648 124.871L149.85 139.918" stroke="black" stroke-width="0.305229"/>
<path d="M26.5761 142.397H19.2188V137.434H26.5761V142.397Z" fill="#7F7F7F" stroke="black" stroke-width="0.305229"/>
<path d="M26.5761 137.279H19.2188V127.352H26.5761V137.279Z" fill="#E5E5E5" stroke="black" stroke-width="0.305229"/>
<path d="M26.5761 127.354H19.2188V122.391H26.5761V127.354Z" fill="white" stroke="black" stroke-width="0.305229"/>
<path d="M12.0117 142.397H2.25195V137.434H12.0117V142.397Z" fill="#7F7F7F" stroke="black" stroke-width="0.305229"/>
<path d="M12.0117 137.279H2.25195V127.352H12.0117V137.279Z" fill="#E5E5E5" stroke="black" stroke-width="0.305229"/>
<path d="M12.0117 127.354H2.25195V122.391H12.0117V127.354Z" fill="white" stroke="black" stroke-width="0.305229"/>
<path d="M2.25225 138.523H0V126.113H2.25225V138.523Z" fill="#E5E5E5" stroke="black" stroke-width="0.305229"/>
<path d="M19.2189 126.113H12.0117V138.523H19.2189V126.113Z" fill="#E5E5E5" stroke="black" stroke-width="0.305229"/>
<path d="M18.168 124.871L19.219 139.918" stroke="black" stroke-width="0.305229"/>
<path d="M16.8164 124.871L18.1678 139.918" stroke="black" stroke-width="0.305229"/>
<path d="M15.6152 124.871L16.8164 139.918" stroke="black" stroke-width="0.305229"/>
<path d="M14.4141 124.871L15.6153 139.918" stroke="black" stroke-width="0.305229"/>
<path d="M13.2129 124.871L14.4141 139.918" stroke="black" stroke-width="0.305229"/>
<path d="M12.0117 124.871L13.2129 139.918" stroke="black" stroke-width="0.305229"/>
<path d="M1.20117 124.871L2.25222 139.918" stroke="black" stroke-width="0.305229"/>
<path d="M1.2012 139.918L0 124.871" stroke="black" stroke-width="0.305229"/>
<path d="M83.333 99.8957H122.072V59.875H83.333V99.8957Z" fill="black" stroke="black" stroke-width="0.305229"/>
<path d="M108.858 49.9492H117.267V59.8768H108.858V49.9492Z" fill="#E5E5E5" stroke="black" stroke-width="0.305229"/>
<path d="M88.2881 49.9492H91.8917V59.8768H88.2881V49.9492Z" fill="#7F7F7F" stroke="black" stroke-width="0.305229"/>
<path d="M91.8916 49.9492H108.859V59.8768H91.8916V49.9492Z" fill="#CCCCCC" stroke="black" stroke-width="0.305229"/>
<path d="M111.712 92.2961L108.408 95.5536L104.354 97.8803L100 99.4315L97.7478 99.7418L96.5466 99.8969H95.4955L91.1412 99.4315L87.2373 98.1906L83.6337 96.174L79.1292 91.9858L76.8769 88.4181L75.2253 84.5401L74.3244 80.3519L74.4745 74.9227L75.8259 69.9589L77.6277 66.2361L80.1802 62.9786L82.8829 59.7211L83.7838 55.5329L82.2823 50.2588L78.2283 47.0013L74.1742 46.2257L70.7207 47.4667L68.9189 45.1399L69.5195 44.8297L73.2733 43.5887L74.0241 43.4336H74.7748L79.2793 44.5194L83.0331 47.0013L85.4355 50.8793L86.3364 55.5329L85.2853 60.6518L81.8319 64.84L79.2793 68.4077L77.6277 72.7511L76.7268 77.0944L77.1772 81.9031L78.979 87.1771L82.2823 91.6756L86.4865 94.9331L91.5916 96.9496L96.3964 97.2599L101.351 96.4843L105.706 94.4677L109.309 91.2102L111.712 92.2961Z" fill="black" stroke="black" stroke-width="0.305229"/>
<path d="M74.9248 42.3477H77.3272V48.5524H74.9248V42.3477Z" fill="black" stroke="black" stroke-width="0.305229"/>
<path d="M84.5342 89.6602H87.0867V93.5381H84.5342V89.6602Z" fill="#7F7F7F" stroke="black" stroke-width="0.305229"/>
<path d="M87.0869 89.6602H90.6905V93.5381H87.0869V89.6602Z" fill="#B2B2B2" stroke="black" stroke-width="0.305229"/>
<path d="M90.6904 89.6602H93.0928V93.5381H90.6904V89.6602Z" fill="#E5E5E5" stroke="black" stroke-width="0.305229"/>
<path d="M112.312 89.6602H114.865V93.5381H112.312V89.6602Z" fill="#7F7F7F" stroke="black" stroke-width="0.305229"/>
<path d="M114.865 89.6602H118.469V93.5381H114.865V89.6602Z" fill="#B2B2B2" stroke="black" stroke-width="0.305229"/>
<path d="M118.469 89.6602H120.871V93.5381H118.469V89.6602Z" fill="#E5E5E5" stroke="black" stroke-width="0.305229"/>
<path d="M86.0361 93.5352H91.892V94.621H86.0361V93.5352Z" fill="#4C4C4C" stroke="black" stroke-width="0.305229"/>
<path d="M113.664 93.5352H119.67V94.621H113.664V93.5352Z" fill="#4C4C4C" stroke="black" stroke-width="0.305229"/>
<path d="M84.5342 94.6211H120.871" stroke="#7F7F7F" stroke-width="0.305229"/>
<path d="M74.9248 4.80859H77.3272V8.68657H74.9248V4.80859Z" fill="black" stroke="black" stroke-width="0.305229"/>
<path d="M74.9248 31.1797H77.3272V34.9025H74.9248V31.1797Z" fill="black" stroke="black" stroke-width="0.305229"/>
<path d="M74.9248 9.77344H77.3272V29.7838H74.9248V9.77344Z" fill="black" stroke="black" stroke-width="0.305229"/>
<path d="M74.9248 4.80859V34.9017" stroke="#7F7F7F" stroke-width="0.305229"/>
<path d="M51.9521 89.1935V87.332H53.754" stroke="#7F7F7F" stroke-width="0.305229"/>
<path d="M53.754 88.2617H51.9521" stroke="#7F7F7F" stroke-width="0.305229"/>
<path d="M54.5049 87.332V89.1935H56.4568" stroke="#7F7F7F" stroke-width="0.305229"/>
<path d="M57.3574 89.1935V87.332H59.1592V89.1935H57.3574Z" stroke="#7F7F7F" stroke-width="0.305229"/>
<path d="M60.0605 87.332V89.1935H61.8623V87.332" stroke="#7F7F7F" stroke-width="0.305229"/>
<path d="M60.9609 89.1935V87.332" stroke="#7F7F7F" stroke-width="0.305229"/>
<path d="M48.1982 91.0547H65.6157" stroke="#7F7F7F" stroke-width="0.305229"/>
<path d="M48.1982 92.1406H65.6157" stroke="#7F7F7F" stroke-width="0.305229"/>
<path d="M48.1982 84.6953H65.6157" stroke="#7F7F7F" stroke-width="0.305229"/>
<path d="M48.1982 85.625H65.6157" stroke="#7F7F7F" stroke-width="0.305229"/>
<path d="M64.5645 94.7761L69.2191 88.2611L64.5645 81.7461" stroke="#7F7F7F" stroke-width="0.305229"/>
<path d="M65.6152 94.7761L70.1197 88.2611L65.6152 81.7461" stroke="#7F7F7F" stroke-width="0.305229"/>
</g>
<defs>
<clipPath id="clip0_2109_181532">
<rect width="150" height="150" fill="white"/>
</clipPath>
</defs>
</svg>
