<svg width="150" height="150" viewBox="0 0 150 150" fill="none" xmlns="http://www.w3.org/2000/svg">
<g clip-path="url(#clip0_2109_182385)">
<path d="M148.048 106.605V42.454H81.8319L30.4806 21.0703H6.75684V127.989L30.4806 128.617L81.8319 106.605H148.048Z" fill="#7F7F7F"/>
<path d="M148.048 102.831V46.8562H81.8319L30.4806 28.6172L6.75684 27.9883V121.07H30.4806L81.8319 102.831H148.048Z" fill="#999999"/>
<path d="M148.048 95.9124V53.1451H81.8319L30.4806 39.3086L6.75684 38.6797V110.378H30.4806L81.8319 95.9124H148.048Z" fill="#B2B2B2"/>
<path d="M148.048 89.6227V59.434H81.8319L30.4806 49.3711H6.75684V99.6856H30.4806L81.8319 89.6227H148.048Z" fill="#CCCCCC"/>
<path d="M148.048 84.5909V65.094H81.8319L30.4806 58.8047L6.75684 58.1758V90.8802H30.4806L81.8319 84.5909H148.048Z" fill="#E5E5E5"/>
<path d="M148.048 77.6722V71.3829H81.8319L30.4806 69.4961L6.75684 68.8672V80.1879H30.4806L81.8319 77.6722H148.048Z" fill="white"/>
<path d="M148.048 106.605V42.454H81.8319L30.4806 21.0703H6.75684V128.617H29.5797L81.8319 106.605H148.048Z" stroke="black" stroke-width="0.43459"/>
<path d="M7.65766 0.628906H0V150H7.65766V0.628906Z" fill="#7F7F7F"/>
<path d="M7.65766 9.75H0V141.197H7.65766V9.75Z" fill="#999999"/>
<path d="M7.65766 25.7852H0V125.471H7.65766V25.7852Z" fill="#B2B2B2"/>
<path d="M7.65766 40.5664H0V109.749H7.65766V40.5664Z" fill="#CCCCCC"/>
<path d="M7.65766 53.1445H0V97.1697H7.65766V53.1445Z" fill="#E5E5E5"/>
<path d="M7.65766 66.3516H0V83.9616H7.65766V66.3516Z" fill="white"/>
<path d="M7.65766 0H0V150H7.65766V0Z" stroke="black" stroke-width="0.43459"/>
<path d="M34.0842 0.628906H26.2764V150H34.0842V0.628906Z" fill="#7F7F7F"/>
<path d="M34.0842 10.3789H26.2764V141.197H34.0842V10.3789Z" fill="#999999"/>
<path d="M34.0842 26.1016H26.2764V124.844H34.0842V26.1016Z" fill="#B2B2B2"/>
<path d="M34.0842 40.5664H26.2764V109.12H34.0842V40.5664Z" fill="#CCCCCC"/>
<path d="M34.0842 53.1445H26.2764V97.1697H34.0842V53.1445Z" fill="#E5E5E5"/>
<path d="M34.0842 66.3516H26.2764V84.5906H34.0842V66.3516Z" fill="white"/>
<path d="M34.0842 0H26.2764V150H34.0842V0Z" stroke="black" stroke-width="0.43459"/>
<path d="M142.493 31.7617H137.388V117.296H142.493V31.7617Z" fill="#7F7F7F"/>
<path d="M142.493 38.0508H137.388V112.265H142.493V38.0508Z" fill="#999999"/>
<path d="M142.493 46.8555H137.388V103.459H142.493V46.8555Z" fill="#B2B2B2"/>
<path d="M142.493 55.0312H137.388V94.6539H142.493V55.0312Z" fill="#CCCCCC"/>
<path d="M142.493 62.5781H137.388V87.1064H142.493V62.5781Z" fill="#E5E5E5"/>
<path d="M142.493 70.125H137.388V80.1879H142.493V70.125Z" fill="white"/>
<path d="M142.492 31.7617H137.087V117.296H142.492V31.7617Z" stroke="black" stroke-width="0.43459"/>
<path d="M150 0.628906H142.192V150H150V0.628906Z" fill="#7F7F7F"/>
<path d="M150 10.3789H142.192V141.197H150V10.3789Z" fill="#999999"/>
<path d="M150 26.1016H142.192V124.844H150V26.1016Z" fill="#B2B2B2"/>
<path d="M150 40.5664H142.192V109.12H150V40.5664Z" fill="#CCCCCC"/>
<path d="M150 53.1445H142.192V97.1697H150V53.1445Z" fill="#E5E5E5"/>
<path d="M150 66.3516H142.192V84.5906H150V66.3516Z" fill="white"/>
<path d="M150 0H142.492V150H150V0Z" stroke="black" stroke-width="0.43459"/>
<path d="M81.832 42.4531V106.604" stroke="#7F7F7F" stroke-width="0.43459"/>
</g>
<defs>
<clipPath id="clip0_2109_182385">
<rect width="150" height="150" fill="white"/>
</clipPath>
</defs>
</svg>
