<svg width="150" height="150" viewBox="0 0 150 150" fill="none" xmlns="http://www.w3.org/2000/svg">
<g clip-path="url(#clip0_2109_182232)">
<path d="M125.167 74.9258H150V150.001H125.167V74.9258Z" fill="#E5E5E5" stroke="black" stroke-width="0.346815"/>
<path d="M25.0332 93.8438H125.167V131.381H25.0332V93.8438Z" fill="#E5E5E5" stroke="black" stroke-width="0.346815"/>
<path d="M0 74.9258H25.0334V150.001H0V74.9258Z" fill="#E5E5E5" stroke="black" stroke-width="0.346815"/>
<path d="M59.0791 0H89.1192V12.7628H59.0791V0Z" fill="#B2B2B2"/>
<path d="M63.084 0H85.1134V12.7628H63.084V0Z" fill="#CCCCCC"/>
<path d="M69.0918 0H79.1051V12.7628H69.0918V0Z" fill="#E5E5E5"/>
<path d="M73.0977 0H75.1003V12.7628H73.0977V0Z" fill="white"/>
<path d="M59.0791 0H89.1192V12.7628H59.0791V0Z" stroke="black" stroke-width="0.346815"/>
<path d="M126.368 122.973H148.398V148.798H126.368V122.973Z" fill="#CCCCCC"/>
<path d="M26.2354 119.07H123.565V130.181H26.2354V119.07Z" fill="#CCCCCC"/>
<path d="M1.40234 122.973H23.4317V148.798H1.40234V122.973Z" fill="#CCCCCC"/>
<path d="M126.368 83.0312H148.398V94.743H126.368V83.0312Z" fill="white"/>
<path d="M26.2354 97.1484H123.565V102.254H26.2354V97.1484Z" fill="white"/>
<path d="M1.40234 83.0312H23.4317V94.743H1.40234V83.0312Z" fill="white"/>
<path d="M85.1134 96.8476L84.9131 97.298L84.3123 97.8986L83.311 98.3491L81.9091 98.7995L80.3069 99.0998L78.5045 99.25L76.3016 99.4001L73.8984 99.5503L71.6955 99.4001L69.6928 99.25L67.8904 99.0998L66.2883 98.7995L64.8864 98.3491L64.0853 97.8986L63.2843 97.298L63.084 96.8476V60.2109H85.1134V96.8476Z" fill="#4C4C4C" stroke="black" stroke-width="0.346815"/>
<path d="M59.0791 77.6289H89.1192V85.4367H59.0791V77.6289Z" fill="#999999" stroke="black" stroke-width="0.346815"/>
<path d="M59.0791 57.207H89.1192V67.7175H59.0791V57.207Z" fill="#999999" stroke="black" stroke-width="0.346815"/>
<path d="M65.0869 57.207H83.1109V67.7175H65.0869V57.207Z" fill="#B2B2B2"/>
<path d="M71.0947 57.207H77.1027V67.7175H71.0947V57.207Z" fill="#CCCCCC"/>
<path d="M69.0918 77.6289H83.9116V85.4367H69.0918V77.6289Z" fill="#CCCCCC" stroke="black" stroke-width="0.346815"/>
<path d="M59.0791 71.6211H89.1192V75.2247H59.0791V71.6211Z" fill="#B2B2B2"/>
<path d="M59.0791 87.8359H89.1192V91.4395H59.0791V87.8359Z" fill="#B2B2B2" stroke="black" stroke-width="0.346815"/>
<path d="M62.2832 71.6211H85.5142V75.2247H62.2832V71.6211Z" fill="#CCCCCC"/>
<path d="M62.2832 87.8359H85.5142V91.4395H62.2832V87.8359Z" fill="#CCCCCC"/>
<path d="M67.4902 71.6211H80.7079V75.2247H67.4902V71.6211Z" fill="#E5E5E5"/>
<path d="M67.4902 87.8359H80.7079V91.4395H67.4902V87.8359Z" fill="#E5E5E5"/>
<path d="M72.2969 87.8359H75.9017V91.4395H72.2969V87.8359Z" fill="white"/>
<path d="M72.2969 71.6211H75.9017V75.2247H72.2969V71.6211Z" fill="white"/>
<path d="M59.0791 71.6211H89.1192V75.2247H59.0791V71.6211Z" stroke="black" stroke-width="0.346815"/>
<path d="M74.8996 61.8631C94.6978 61.8631 110.747 49.8299 110.747 34.9863C110.747 20.1426 94.6978 8.10938 74.8996 8.10938C55.1014 8.10938 39.0518 20.1426 39.0518 34.9863C39.0518 49.8299 55.1014 61.8631 74.8996 61.8631Z" fill="#CCCCCC"/>
<path d="M75.0998 34.9841L49.4656 54.2033L45.0598 50.1492L41.6552 45.3444L39.8528 40.3895L39.0518 34.9841L39.8528 29.5787L41.8555 24.6237L45.26 19.969L49.6659 16.0651L54.8729 12.7618L61.0811 10.2093L67.8902 8.55763L75.0998 7.95703L81.9089 8.55763L88.718 10.2093L94.9263 12.7618L100.333 16.0651L75.0998 34.9841Z" fill="white"/>
<path d="M74.8998 60.3601C93.592 60.3601 108.745 48.9992 108.745 34.9848C108.745 20.9703 93.592 9.60938 74.8998 9.60938C56.2077 9.60938 41.0547 20.9703 41.0547 34.9848C41.0547 48.9992 56.2077 60.3601 74.8998 60.3601Z" fill="#E5E5E5" stroke="#7F7F7F" stroke-width="0.346815"/>
<path d="M74.8996 61.8631C94.6978 61.8631 110.747 49.8299 110.747 34.9863C110.747 20.1426 94.6978 8.10938 74.8996 8.10938C55.1014 8.10938 39.0518 20.1426 39.0518 34.9863C39.0518 49.8299 55.1014 61.8631 74.8996 61.8631Z" stroke="black" stroke-width="0.346815"/>
<path d="M75.5004 17.5689L74.2988 16.668L89.5191 14.2656L90.3202 15.1665L88.7181 19.9713L75.5004 17.5689Z" fill="#CCCCCC"/>
<path d="M61.4819 56.608L60.2803 55.7071L75.5006 53.3047L76.3016 54.2056L74.6995 59.0104L61.4819 56.608Z" fill="#CCCCCC"/>
<path d="M74.6992 16.6676L76.3014 11.5625L89.1184 14.2652L87.5163 19.3703L74.6992 16.6676Z" fill="white" stroke="#7F7F7F" stroke-width="0.346815"/>
<path d="M60.6807 55.7071L62.2828 50.9023L75.5004 53.3047L73.4978 58.4099L60.6807 55.7071Z" fill="white" stroke="#7F7F7F" stroke-width="0.346815"/>
<path d="M66.2888 36.6374C68.8327 36.6374 70.8949 35.0912 70.8949 33.1839C70.8949 31.2766 68.8327 29.7305 66.2888 29.7305C63.7449 29.7305 61.6826 31.2766 61.6826 33.1839C61.6826 35.0912 63.7449 36.6374 66.2888 36.6374Z" fill="#E5E5E5" stroke="#7F7F7F" stroke-width="0.346815"/>
</g>
<defs>
<clipPath id="clip0_2109_182232">
<rect width="150" height="150" fill="white"/>
</clipPath>
</defs>
</svg>
