<svg width="150" height="150" viewBox="0 0 150 150" fill="none" xmlns="http://www.w3.org/2000/svg">
<g clip-path="url(#clip0_2109_181686)">
<path d="M52.0273 47.7461H97.7481V60.659H52.0273V47.7461Z" fill="white" stroke="black" stroke-width="0.367791"/>
<path d="M6.53125 17.2656H42.3421V25.9743H6.53125V17.2656Z" fill="white" stroke="black" stroke-width="0.367791"/>
<path d="M6.53125 32.4336H42.3421V41.1423H6.53125V32.4336Z" fill="white" stroke="black" stroke-width="0.367791"/>
<path d="M74.9996 56.4565C98.3846 56.4565 117.342 43.8182 117.342 28.2282C117.342 12.6382 98.3846 0 74.9996 0C51.6145 0 32.6572 12.6382 32.6572 28.2282C32.6572 43.8182 51.6145 56.4565 74.9996 56.4565Z" fill="white" stroke="black" stroke-width="0.367791"/>
<path d="M74.7745 54.0535C96.2937 54.0535 113.738 42.4237 113.738 28.0775C113.738 13.7314 96.2937 2.10156 74.7745 2.10156C53.2553 2.10156 35.8105 13.7314 35.8105 28.0775C35.8105 42.4237 53.2553 54.0535 74.7745 54.0535Z" fill="#7F7F7F" stroke="black" stroke-width="0.367791"/>
<path d="M74.7747 51.9509C94.5524 51.9509 110.585 41.2622 110.585 28.077C110.585 14.8918 94.5524 4.20312 74.7747 4.20312C54.9969 4.20312 38.9639 14.8918 38.9639 28.077C38.9639 41.2622 54.9969 51.9509 74.7747 51.9509Z" fill="black" stroke="#7F7F7F" stroke-width="0.367791"/>
<path d="M74.7751 43.2444C87.3383 43.2444 97.5228 36.4547 97.5228 28.0792C97.5228 19.7037 87.3383 12.9141 74.7751 12.9141C62.2119 12.9141 52.0273 19.7037 52.0273 28.0792C52.0273 36.4547 62.2119 43.2444 74.7751 43.2444Z" fill="black" stroke="#7F7F7F" stroke-width="0.367791"/>
<path d="M55.4053 23.7227H94.5945V32.4314H55.4053V23.7227Z" fill="#00FF00" stroke="#7F7F7F" stroke-width="0.367791"/>
<path d="M91.2158 30.0306V28.3789" stroke="black" stroke-width="0.367791"/>
<path d="M91.2158 27.929V26.2773" stroke="black" stroke-width="0.367791"/>
<path d="M90.7656 25.9766H88.2881" stroke="black" stroke-width="0.367791"/>
<path d="M88.0635 26.2773V27.929" stroke="black" stroke-width="0.367791"/>
<path d="M88.0635 28.3789V30.0306" stroke="black" stroke-width="0.367791"/>
<path d="M88.2881 30.332H90.7656" stroke="black" stroke-width="0.367791"/>
<path d="M12.8379 30.332H29.2793V43.3951H12.8379V30.332Z" fill="white" stroke="black" stroke-width="0.367791"/>
<path d="M12.8379 15.1641H29.2793V28.2271H12.8379V15.1641Z" fill="white" stroke="black" stroke-width="0.367791"/>
<path d="M12.8379 23.7227H29.2793V28.2272H12.8379V23.7227Z" fill="black" stroke="black" stroke-width="0.367791"/>
<path d="M12.8379 39.0391H29.2793V43.3934H12.8379V39.0391Z" fill="black" stroke="black" stroke-width="0.367791"/>
<path d="M12.8379 21.6211H29.2793V25.9754H12.8379V21.6211Z" fill="#7F7F7F" stroke="black" stroke-width="0.367791"/>
<path d="M12.8379 36.7852H29.2793V41.1395H12.8379V36.7852Z" fill="#7F7F7F" stroke="black" stroke-width="0.367791"/>
<path d="M55.4058 60.8125L42.3428 84.6864L107.658 84.5362L94.595 60.8125H55.4058Z" fill="white" stroke="black" stroke-width="0.367791"/>
<path d="M22.748 84.6836H127.027V86.9358H22.748V84.6836Z" fill="#FFFF00" stroke="black" stroke-width="0.367791"/>
<path d="M16.2158 86.9375H133.783V150.001H16.2158V86.9375Z" fill="#FFFF00" stroke="black" stroke-width="0.367791"/>
<path d="M0 86.9375H12.8378V150.001H0V86.9375Z" fill="#FFFF00" stroke="black" stroke-width="0.367791"/>
<path d="M136.937 86.9375H150V150.001H136.937V86.9375Z" fill="#FFFF00" stroke="black" stroke-width="0.367791"/>
<path d="M12.8379 86.9375H16.2163V150.001H12.8379V86.9375Z" fill="black" stroke="black" stroke-width="0.367791"/>
<path d="M133.559 86.9375H136.937V150.001H133.559V86.9375Z" fill="black" stroke="black" stroke-width="0.367791"/>
<path d="M6.30647 117.418L8.3335 117.718L9.68485 119.07V119.52L8.55873 121.022L6.30647 121.622L5.18035 121.472L3.37855 120.421L3.15332 119.52L3.37855 118.619L5.18035 117.568L6.30647 117.418Z" fill="#7F7F7F" stroke="black" stroke-width="0.367791"/>
<path d="M143.468 117.418L145.27 117.718L146.621 119.07V119.52L145.72 121.022L143.468 121.622L142.117 121.472L140.315 120.421L140.09 119.52L140.315 118.619L142.117 117.568L143.468 117.418Z" fill="#7F7F7F" stroke="black" stroke-width="0.367791"/>
<path d="M6.53125 121.62V117.266" stroke="black" stroke-width="0.367791"/>
<path d="M140.09 119.52H146.621" stroke="black" stroke-width="0.367791"/>
<path d="M52.0273 127.628H83.5589L72.0724 135.285H83.5589L97.7481 125.676V121.922L83.5589 112.312H72.0724L83.5589 119.97H52.0273V127.628Z" fill="black" stroke="black" stroke-width="0.367791"/>
</g>
<defs>
<clipPath id="clip0_2109_181686">
<rect width="150" height="150" fill="white"/>
</clipPath>
</defs>
</svg>
