<svg width="150" height="150" viewBox="0 0 150 150" fill="none" xmlns="http://www.w3.org/2000/svg">
<g clip-path="url(#clip0_2109_181315)">
<path d="M12.5 150.001L0 144.145V79.7305H137.179L149.679 85.5863V150.001H12.5Z" fill="black" stroke="black" stroke-width="0.438748"/>
<path d="M12.5 85.4336H149.679V149.848H12.5V85.4336Z" fill="#7F7F7F" stroke="black" stroke-width="0.438748"/>
<path d="M88.782 81.9816V82.5822L87.8205 83.0326L86.8589 83.6332L85.2564 83.9335L83.6538 84.2338L81.4102 84.5341L79.1666 84.6843H76.6025H74.0384L71.7948 84.5341L69.5513 84.2338L67.9487 83.9335L66.3461 83.6332L65.0641 83.0326L64.4231 82.5822L64.1025 81.9816V66.8164H88.782V81.9816Z" fill="#7F7F7F" stroke="black" stroke-width="0.438748"/>
<path d="M86.859 81.981V68.918H82.6924V83.0321L86.859 81.981Z" fill="black" stroke="black" stroke-width="0.438748"/>
<path d="M140.385 70.1201H9.29487L8.33333 69.97L4.80769 65.9159L2.88462 59.7598L1.60256 54.5045L0.961538 48.6486L0.320513 42.042L0 38.5886V34.985L0.320513 27.9279L0.961538 21.3213L1.60256 15.4655L2.88462 10.2102L4.16667 6.00601L6.73077 1.5015L8.33333 0.15015L9.29487 0H140.705L141.667 0.15015L145.192 4.2042L147.115 10.3604L148.397 15.4655L149.038 21.4715L150 27.9279V31.3814V34.985V42.042L149.038 48.6486L148.397 54.5045L147.115 59.7598L145.833 64.1141L143.269 68.6186L141.346 69.97L140.385 70.1201Z" fill="#E5E5E5" stroke="black" stroke-width="0.438748"/>
<path d="M9.29492 0L10.2565 0.15015L14.1026 4.2042L16.0257 10.3604L17.3077 15.6156L18.2693 21.4715L18.5898 28.0781L18.9103 31.5315V38.7387L18.2693 45.4955L17.6283 51.6517L16.6667 57.3574L15.3847 62.1622L13.1411 67.4174L10.2565 69.97L9.29492 70.1201" stroke="black" stroke-width="0.438748"/>
<path d="M23.7178 21.1719H147.115V30.331H23.7178V21.1719Z" fill="white"/>
<path d="M15.0645 68.9176L17.308 63.8125H142.949L141.026 68.9176H15.0645Z" fill="black"/>
<path d="M15.0645 0.902344L17.308 6.00745H142.949L140.705 0.902344H15.0645Z" fill="#7F7F7F"/>
</g>
<defs>
<clipPath id="clip0_2109_181315">
<rect width="150" height="150" fill="white"/>
</clipPath>
</defs>
</svg>
