<svg width="150" height="150" viewBox="0 0 150 150" fill="none" xmlns="http://www.w3.org/2000/svg">
<g clip-path="url(#clip0_2109_214623)">
<path d="M119.363 132.883V74.6246L131.299 62.012L133.289 55.8559L133.687 23.2733L129.31 16.2162L122.546 10.8108L110.212 5.55556L95.0924 1.8018L78.3816 0H61.2728L44.1641 1.95195L29.4426 5.55556L17.1084 10.8108L9.94655 16.2162L5.96777 23.2733V55.8559L8.35504 62.012L20.2914 74.6246V132.883L23.8723 137.688L30.2383 142.042L39.3895 145.495L50.5301 147.898L63.2622 149.249H76.3922L88.7264 147.898L100.265 145.495L109.416 142.042L115.782 137.688L119.363 132.883Z" fill="#727F7F"/>
<path d="M115.783 132.883V74.4745L126.924 62.012L128.913 55.8559V23.2733L125.332 16.2162L118.966 10.6607L107.428 5.55556L93.5018 1.8018L77.9845 0H62.0694L46.1543 1.8018L32.2286 5.55556L21.088 10.6607L14.7219 16.2162L10.7432 23.2733V55.8559L12.7326 62.012L23.8731 74.4745V132.883L27.0562 137.688L33.4222 141.892L41.7776 145.345L52.1225 147.898L63.6609 149.099H75.9952L87.5336 147.898L97.8784 145.345L106.632 141.892L112.6 137.688L115.783 132.883Z" fill="#7A8787"/>
<path d="M112.202 132.883V74.4745L122.547 62.012L124.536 55.8559V23.2733L120.955 16.2162L114.987 10.6607L104.642 5.55556L91.5123 1.8018L77.1887 0H62.4672L48.1436 1.8018L35.4115 5.55556L24.6688 10.6607L18.7006 16.2162L15.5176 23.2733V55.8559L17.507 62.012L27.4539 74.4745V132.883L30.6369 137.688L36.2072 141.892L43.7669 145.345L53.7139 147.898L64.4566 149.099H75.5972L85.942 147.898L95.8889 145.345L103.846 141.892L109.417 137.688L112.202 132.883Z" fill="#828F8F"/>
<path d="M108.62 132.883V74.4745L118.169 62.012L119.761 55.8559V23.2733L116.578 16.2162L111.405 10.6607L101.856 5.55556L89.9201 1.8018L76.7901 0H62.8644L50.1323 1.8018L38.1959 5.55556L28.6469 10.6607L23.0766 16.2162L19.8936 23.2733V55.8559L21.8829 62.012L31.0341 74.4745V132.883L33.8193 137.688L38.9917 141.892L46.1535 145.345L54.9068 147.898L64.8538 149.099L84.7477 147.898L93.501 145.345L101.061 141.892L105.835 137.688L108.62 132.883Z" fill="#899696"/>
<path d="M105.04 132.883V74.4745L113.793 62.012L115.385 55.8559V23.2733L112.599 16.2162L107.427 10.6607L98.6737 5.55556L87.931 1.8018L75.9946 0H63.6604L51.7241 1.8018L40.9814 5.55556L32.2281 10.6607L27.4535 16.2162L24.2705 23.2733V55.8559L26.2599 62.012L34.6153 74.4745V132.883L37.4005 137.688L41.7771 141.892L48.1432 145.345L65.2519 149.099H74.4031L91.5119 145.345L98.2758 141.892L102.652 137.688L105.04 132.883Z" fill="#919E9E"/>
<path d="M101.459 132.883V74.4745L109.018 62.012L110.61 55.8559V23.2733L108.223 16.2162L103.846 10.6607L95.8884 5.55556L85.9415 1.8018L75.5966 0H64.4561L53.7134 1.8018L43.7664 5.55556L36.2067 10.6607L31.8301 16.2162L29.0449 23.2733V55.8559L30.6364 62.012L38.1961 74.4745V132.883L40.5834 137.688L44.5622 141.892L50.5303 145.345L65.6497 149.099H74.0051L89.1245 145.345L95.0927 141.892L99.4693 137.688L101.459 132.883Z" fill="#99A6A6"/>
<path d="M97.8777 132.883V74.4745L104.642 62.012L105.835 55.8559L106.233 23.2733L103.846 16.2162L99.8671 10.6607L93.1032 5.55556L84.3498 1.8018L74.8008 0H64.8538L55.3047 1.8018L46.9493 5.55556L40.1854 10.6607L36.2066 16.2162L33.8193 23.2733V55.8559L35.013 62.012L41.7769 74.4745V132.883L43.7663 137.688L47.3472 141.892L52.5196 145.345L66.0475 149.099H73.6071L87.135 145.345L92.3074 141.892L95.8883 137.688L97.8777 132.883Z" fill="#A0ADAD"/>
<path d="M94.2971 132.883V74.4745L100.265 62.012L101.459 55.8559V23.2733L99.4695 16.2162L96.2865 10.6607L89.9204 5.55556L82.3607 1.8018L74.4032 0H65.6499L57.2944 1.8018L49.7348 5.55556L43.7666 10.6607L40.1857 16.2162L38.1963 23.2733V55.8559L39.3899 62.012L45.3581 74.4745V132.883L46.9496 137.688L50.1326 141.892L60.4775 147.898L66.8435 149.099H73.2096L84.748 145.345L89.5225 141.892L92.7056 137.688L94.2971 132.883Z" fill="#ABB8B8"/>
<path d="M90.7161 132.883V74.4745L95.8885 62.012L97.0821 55.8559V23.2733L95.0927 16.2162L92.3076 10.6607L87.1352 5.55556L80.7691 1.8018L73.6073 0H66.0476L59.2837 1.8018L52.9177 5.55556L47.3474 10.6607L44.5622 16.2162L42.9707 23.2733V55.8559L43.7665 62.012L48.9389 74.4745V132.883L50.5304 137.688L53.3155 141.892L62.0688 147.898L67.2413 149.099H72.8116L82.7585 145.345L86.7373 141.892L89.5224 137.688L90.7161 132.883Z" fill="#B2BFBF"/>
<path d="M87.1355 132.883V74.4745L91.5121 62.012L92.3079 55.8559V23.2733L90.7164 16.2162L88.3291 10.6607L83.9524 5.55556L78.78 1.8018L72.8118 0H66.8437L60.8755 1.8018L55.7031 5.55556L51.3264 10.6607L48.9392 16.2162L47.3477 23.2733V55.8559L48.1434 62.012L52.5201 74.4745V132.883L53.7137 137.688L56.101 141.892L63.2628 147.898L67.6394 149.099H72.0161L80.7694 145.345L83.5546 141.892L85.9418 137.688L87.1355 132.883Z" fill="#BAC7C7"/>
<path d="M70.0266 148.949C79.915 148.949 87.9311 115.606 87.9311 74.4745C87.9311 33.3434 79.915 0 70.0266 0C60.1382 0 52.1221 33.3434 52.1221 74.4745C52.1221 115.606 60.1382 148.949 70.0266 148.949Z" fill="#C2CFCF"/>
<path d="M69.629 148.949C76.8805 148.949 82.759 115.606 82.759 74.4745C82.759 33.3434 76.8805 0 69.629 0C62.3775 0 56.499 33.3434 56.499 74.4745C56.499 115.606 62.3775 148.949 69.629 148.949Z" fill="#C9D6D6"/>
<path d="M70.0268 148.949C74.8611 148.949 78.7801 115.606 78.7801 74.4745C78.7801 33.3434 74.8611 0 70.0268 0C65.1924 0 61.2734 33.3434 61.2734 74.4745C61.2734 115.606 65.1924 148.949 70.0268 148.949Z" fill="#D1DEDE"/>
<path d="M69.6282 149.249C71.8256 149.249 73.607 115.839 73.607 74.6246C73.607 33.4106 71.8256 0 69.6282 0C67.4308 0 65.6494 33.4106 65.6494 74.6246C65.6494 115.839 67.4308 149.249 69.6282 149.249Z" fill="#D8E5E5"/>
<path d="M119.364 74.6265H20.2922L7.95801 62.1641H131.698L119.364 74.6265Z" fill="#596666"/>
<path d="M115.783 74.4764H23.873L12.7324 62.1641H127.321L115.783 74.4764Z" fill="#616E6E"/>
<path d="M112.201 74.4764H27.4532L17.1084 62.1641H122.944L112.201 74.4764Z" fill="#687575"/>
<path d="M108.621 74.4764H31.0344L21.4854 62.1641H118.568L108.621 74.4764Z" fill="#707D7D"/>
<path d="M105.04 74.4764H34.6156L25.8623 62.1641H113.793L105.04 74.4764Z" fill="#788585"/>
<path d="M101.458 74.4764H38.1958L30.2383 62.1641H109.416L101.458 74.4764Z" fill="#7F8C8C"/>
<path d="M97.8778 74.4764H41.777L34.6152 62.1641H105.04L97.8778 74.4764Z" fill="#879494"/>
<path d="M94.6947 74.4764H45.3578L39.3896 62.1641H100.663L94.6947 74.4764Z" fill="#919E9E"/>
<path d="M91.1145 74.4764H48.9394L43.3691 62.1641H96.2869L91.1145 74.4764Z" fill="#99A6A6"/>
<path d="M87.5335 74.4764H52.5202L48.1436 62.1641H91.9101L87.5335 74.4764Z" fill="#A0ADAD"/>
<path d="M83.9519 74.4764H56.1004L52.5195 62.1641H87.1349L83.9519 74.4764Z" fill="#A8B5B5"/>
<path d="M80.3713 74.4764H59.6816L56.8965 62.1641H82.7586L80.3713 74.4764Z" fill="#B0BDBD"/>
<path d="M76.7907 74.4764H62.8649L61.2734 62.1641H78.3822L76.7907 74.4764Z" fill="#B7C4C4"/>
<path d="M73.2091 74.6265H66.4452L65.6494 62.1641H74.0049L73.2091 74.6265Z" fill="#BFCCCC"/>
<path d="M119.363 132.883V74.6246L131.299 62.012L133.289 55.8559L133.687 23.2733L129.31 16.2162L122.546 10.8108L110.212 5.55556L95.0924 1.8018L78.3816 0H61.2728L44.1641 1.95195L29.4426 5.55556L17.1084 10.8108L9.94655 16.2162L5.96777 23.2733V55.8559L8.35504 62.012L20.2914 74.6246V132.883L23.8723 137.688L30.2383 142.042L39.3895 145.495L50.5301 147.898L63.2622 149.249H76.3922L88.7264 147.898L100.265 145.495L109.416 142.042L115.782 137.688L119.363 132.883Z" stroke="black" stroke-width="0.488841"/>
<path d="M5.96777 23.2734H133.687" stroke="#A5B2B2" stroke-width="0.488841"/>
<path d="M107.029 133.18L111.803 133.33L123.74 136.183L127.718 139.036L138.461 140.987L139.655 142.939L130.106 149.396L124.933 149.997L114.588 147.744L105.835 147.444L93.8987 144.741L91.1135 143.69L88.7263 142.039L87.1348 140.387V138.735L88.7263 136.933L91.1135 135.582L93.8987 134.531L97.4796 133.33L103.05 133.18H107.029Z" fill="#727F7F" stroke="black" stroke-width="0.488841"/>
<path d="M48.5411 143.69L45.756 144.741L33.8196 147.444L25.0663 147.744L14.7215 149.997L9.54907 149.396L0 142.939L1.19363 140.987L11.5385 138.735L16.313 136.183L27.8515 133.33L32.626 133.18H37.4005L41.3793 133.33L45.756 134.231L48.5411 135.582L50.9284 136.933L52.5199 138.735V140.387L50.9284 142.039L48.5411 143.69Z" fill="#727F7F" stroke="black" stroke-width="0.488841"/>
<path d="M103.846 133.18H105.835L122.944 136.783L127.32 139.186L137.665 141.588L139.257 143.39L130.106 149.096L124.933 149.396L115.384 147.144H106.631L90.3178 143.39L88.7263 142.639L87.9305 141.588L87.1348 140.087V138.435L88.7263 136.933L90.3178 135.582L93.1029 134.531L96.6838 133.63L101.458 133.33L103.846 133.18Z" fill="#7D8A8A"/>
<path d="M50.1322 142.643L49.3365 143.243L33.0235 146.847L24.2701 147.147L14.7211 149.399L9.54865 148.799L0.397461 143.243L1.98897 141.592L12.3338 139.189L16.7105 136.486L33.8192 133.183L36.2065 132.883L38.1959 133.183L42.5725 133.634L45.7556 134.534L48.5407 135.586L50.928 136.937L52.5195 138.438V140.09L50.928 141.592L50.1322 142.643Z" fill="#7D8A8A"/>
<path d="M100.663 133.18H103.05L121.352 137.234L126.525 139.786L136.87 141.888L138.461 143.39L130.901 148.795L125.729 149.096L116.18 146.843L108.222 146.543L88.7263 142.339L87.9305 141.888L87.1348 140.687L87.9305 139.486V138.135L88.7263 136.933L90.3178 135.582L93.1029 134.681L96.286 133.93L98.2753 133.33L100.663 133.18Z" fill="#899696"/>
<path d="M51.7239 141.588L50.9281 142.039L31.4321 146.243L23.4745 146.843L13.9255 148.795L8.75304 148.495L1.19336 143.39L2.78487 141.888L13.1297 139.486L18.3021 136.933L37.0024 133.18H38.196L40.5833 133.33L43.3684 133.93L46.5514 134.681L49.3366 135.582L50.9281 136.783L51.7239 138.135L52.5196 139.486L51.7239 140.687V141.588Z" fill="#899696"/>
<path d="M99.0711 133.336H99.8669L120.557 137.84L125.729 140.093L136.074 142.345L137.665 143.997L130.901 148.501H126.525L116.18 146.249L108.222 145.648L87.9305 141.294L87.1348 140.994V140.093V139.192L87.9305 138.141L88.7263 136.789L90.3178 135.888L92.3072 134.988L94.6944 134.237L96.6838 133.636L99.0711 133.336Z" fill="#94A1A1"/>
<path d="M51.7239 140.687V141.288L31.0342 145.642L22.6788 146.243L13.1297 148.495L8.75304 148.195L1.19336 143.69L3.58063 142.339L13.9255 140.087L19.0979 137.534L38.9918 133.18L40.5833 133.33L42.5727 133.63L44.9599 134.231L47.3472 134.681L49.3366 135.582L50.9281 136.783L51.7239 137.834L52.5196 139.036V140.087L51.7239 140.687Z" fill="#94A1A1"/>
<path d="M96.6838 133.633H97.4796L120.159 138.438L124.933 140.69L135.278 142.942L137.665 144.293L131.697 147.897L127.32 148.197L116.976 145.945L109.416 145.194L87.1348 140.39V140.089V139.489V138.738L87.9305 137.837L88.7263 136.786L90.3178 135.885L92.3072 134.984L93.8987 134.534L96.286 133.933L96.6838 133.633Z" fill="#A0ADAD"/>
<path d="M52.5198 140.093V140.393L30.2386 145.198L21.8832 145.648L12.3341 147.901H7.95743L1.98926 144.297L4.37653 142.645L13.9256 140.393L19.8938 138.441L42.1749 133.336L42.5728 133.636L43.3686 133.937L45.7558 134.537L47.3473 134.988L49.3367 135.888L50.9282 136.789L51.724 137.54L52.5198 138.741V139.492V140.093Z" fill="#A0ADAD"/>
<path d="M95.4902 133.938H96.286L118.965 139.043L124.535 140.995L134.88 143.247L136.87 144.598L132.493 147.901L127.718 147.751L117.771 145.349L110.212 144.598L87.1348 139.793V139.493V139.043L87.9305 138.442V137.541L88.7263 136.79L90.3178 135.889L91.9093 135.439L93.1029 134.688L94.6944 134.238L95.4902 133.938Z" fill="#ABB8B8"/>
<path d="M52.5199 139.193V139.493L29.443 144.598L21.8833 145.349L11.5385 147.751H7.16181L2.78516 144.598L4.77455 143.247L14.7215 140.995L20.6897 139.043L43.3687 133.938H44.1645L44.9602 134.238L45.756 134.688L47.7454 135.439L49.3369 135.889L50.9284 136.79L51.7241 137.241V138.442L52.5199 139.043V139.193Z" fill="#ABB8B8"/>
<path d="M93.8997 134.535L94.6954 134.234L118.568 139.49L123.741 141.592L133.687 143.694L136.87 144.745L132.494 147.448L128.913 147.147L118.568 145.195L111.008 144.294L87.1357 139.039L87.9315 138.439V137.838L88.7273 137.237V136.787L90.3188 135.886L91.1145 135.586L92.3082 134.985L93.1039 134.685L93.8997 134.535Z" fill="#B7C4C4"/>
<path d="M51.7241 138.739L52.5199 139.039L28.6472 143.994L21.0875 144.745L10.7427 147.147L7.16181 147.448L2.78516 144.745L5.5703 143.394L15.5173 141.592L21.0875 139.189L44.9602 134.234V134.535H46.5517L47.3475 134.985L48.5411 135.436L49.3369 135.886L50.9284 136.487V137.237L51.7241 137.838V138.439V138.739Z" fill="#B7C4C4"/>
<path d="M93.1031 134.688L117.772 140.093L123.74 141.895L133.289 143.997L136.074 145.198L133.289 147.15L129.31 146.85L118.965 144.597L111.803 143.396L87.9307 138.441V138.141H88.7264V137.54V136.94V136.489L89.5222 136.189L91.1137 135.588L91.9094 135.438L92.3073 134.988L93.1031 134.688Z" fill="#C2CFCF"/>
<path d="M51.7243 138.141L27.8516 143.396L20.6898 144.597L10.345 146.85L6.3662 147.15L3.58105 145.198L6.3662 143.997L16.3131 141.895L21.8834 139.793L46.5519 134.688V134.988L47.7455 135.438L48.5413 135.588L49.337 135.889L50.1328 136.489L50.9285 136.94V137.54V137.841L51.7243 138.141Z" fill="#C2CFCF"/>
<path d="M92.3073 135.438H91.9094L116.18 140.693L122.944 142.344L133.289 144.597L135.278 145.347L133.289 146.849L129.31 146.248L120.159 144.296L112.599 142.945L87.9307 137.54H88.7264V137.239V136.939V136.789L89.5222 136.489V136.188L90.3179 135.888L91.1137 135.588H91.9094L92.3073 135.438Z" fill="#CEDBDB"/>
<path d="M50.9287 137.537L26.6581 142.942L19.8942 143.993L9.54937 146.246L5.57059 146.846L4.37695 145.345L6.36634 144.294L16.7112 142.342L22.6793 140.39L47.3478 134.984V135.435H47.7457L48.5414 135.585L49.3372 135.885L50.1329 136.186V136.486L50.9287 136.786V136.936V137.237V137.537Z" fill="#CEDBDB"/>
<path d="M50.9287 136.937L25.8624 142.343L19.0984 143.694L8.75361 145.946L5.57059 146.547L4.37695 145.646L7.1621 144.745L17.5069 142.643L24.2709 141.292L48.5414 135.586H49.3372V135.886V136.187H50.1329V136.487L50.9287 136.787V136.937Z" fill="#D8E5E5"/>
<path d="M90.3181 135.586H91.1138L115.384 141.292L122.148 142.943L132.493 144.745L135.278 145.646L133.687 146.547L130.902 145.946L120.557 143.694L113.793 142.343L88.7266 136.937V136.787L89.5223 136.487V136.187H90.3181V135.886V135.586Z" fill="#D8E5E5"/>
<path d="M138.462 140.992L124.536 150.001" stroke="#727F7F" stroke-width="0.488841"/>
<path d="M123.74 136.188L105.836 147.449" stroke="#727F7F" stroke-width="0.488841"/>
<path d="M127.719 139.039L114.589 147.748" stroke="#727F7F" stroke-width="0.488841"/>
<path d="M15.517 150.001L1.19336 140.992" stroke="#727F7F" stroke-width="0.488841"/>
<path d="M33.8191 147.449L16.3125 136.188" stroke="#727F7F" stroke-width="0.488841"/>
<path d="M25.0659 147.748L11.5381 139.039" stroke="#727F7F" stroke-width="0.488841"/>
<path d="M128.912 50.9036L130.901 50.4531L138.063 50.6033L142.042 51.6543H148.01L150 52.7054V57.8105L148.01 58.7114H142.042L138.063 59.7624L130.901 59.9126L128.912 59.4621L126.923 58.8615L125.331 58.1108L124.138 56.9096L123.342 55.7084V54.6573L124.138 53.4561L125.331 52.4051L126.923 51.5042L128.912 50.9036Z" fill="#727F7F"/>
<path d="M127.321 51.355L128.116 51.0547H138.063L142.042 51.9556H148.01L149.602 52.8565V57.5111L148.01 58.412H142.042L138.063 59.4631H128.116L127.321 59.0126L126.127 58.5622L124.933 57.8114L124.138 56.9105L123.342 55.8595V54.6583L124.138 53.6072L124.933 52.5562L126.525 51.9556L127.321 51.355Z" fill="#7D8A8A"/>
<path d="M126.127 51.8003L126.923 51.5H138.063L142.042 52.4009H147.612L149.602 53.1517V57.2057L148.01 58.1066H142.042L138.063 59.0075H126.923L126.127 58.7072L125.331 58.2568L124.933 57.506L123.74 56.6051L123.342 55.7042V54.8033L124.138 53.7523L124.933 53.0015L125.331 52.2508L126.127 51.8003Z" fill="#899696"/>
<path d="M125.331 52.1033L126.127 51.9531H138.063L142.042 52.7039H148.01L149.602 53.4546V57.0582L148.01 57.809H142.042L138.063 58.5597L126.127 58.4096L125.331 58.2594L124.933 57.809L124.138 57.2084L123.74 56.4576L123.342 55.5567V54.806L123.74 53.9051L124.535 53.1543L124.933 52.5537L125.331 52.1033Z" fill="#94A1A1"/>
<path d="M124.933 52.5564L125.331 52.4062H138.063L142.042 53.157L148.01 53.0069L149.602 53.7576V56.7606L148.01 57.3612H142.042L138.063 57.9618H125.331L124.933 57.8117L124.535 57.5114L124.138 56.9108L123.74 56.3102L123.342 55.5594V54.8087L123.74 54.2081L124.138 53.4573L124.535 53.0069L124.933 52.5564Z" fill="#A0ADAD"/>
<path d="M124.535 53.0017L124.933 52.8516H138.063L142.042 53.4522H148.01L149.602 53.9026V56.6053L148.01 57.0558H142.042L138.063 57.5062H124.933L124.535 57.3561L124.138 57.0558V56.6053L123.74 56.0047L123.342 55.5543V54.9537L123.74 54.3531L124.138 53.7525V53.302L124.535 53.0017Z" fill="#ABB8B8"/>
<path d="M124.138 53.4548V53.3047H138.063L142.042 53.7551H148.01L149.602 54.2056V56.3077L147.612 56.608H142.042L138.063 57.2086H124.138V57.0584V56.7581L123.74 56.4578V55.8572L123.342 55.4068V54.9563L123.74 54.5059L124.138 54.0554V53.7551V53.4548Z" fill="#B7C4C4"/>
<path d="M124.138 53.9002V53.75H138.063L142.042 54.0503H148.01L149.602 54.5008V56.0023L148.01 56.3026H142.042L138.063 56.6029H124.138V56.4527L123.74 56.0023L123.342 55.8521V55.4017V55.1014V54.6509L123.74 54.3506L124.138 54.0503V53.9002Z" fill="#C2CFCF"/>
<path d="M136.472 56.0049C143.723 56.0049 149.602 55.6016 149.602 55.104C149.602 54.6065 143.723 54.2031 136.472 54.2031C129.22 54.2031 123.342 54.6065 123.342 55.104C123.342 55.6016 129.22 56.0049 136.472 56.0049Z" fill="#CEDBDB"/>
<path d="M136.472 55.5572C143.723 55.5572 149.602 55.3555 149.602 55.1067C149.602 54.8579 143.723 54.6562 136.472 54.6562C129.22 54.6562 123.342 54.8579 123.342 55.1067C123.342 55.3555 129.22 55.5572 136.472 55.5572Z" fill="#D8E5E5"/>
<path d="M128.912 50.9036L130.901 50.4531L138.063 50.6033L142.042 51.6543H148.01L150 52.7054V57.8105L148.01 58.7114H142.042L138.063 59.7624L130.901 59.9126L128.912 59.4621L126.923 58.8615L125.331 58.1108L124.138 56.9096L123.342 55.7084V54.6573L124.138 53.4561L125.331 52.4051L126.923 51.5042L128.912 50.9036Z" stroke="black" stroke-width="0.488841"/>
<path d="M148.01 51.6484L147.612 58.7055" stroke="#727F7F" stroke-width="0.488841"/>
<path d="M138.063 50.6016V59.7607" stroke="#727F7F" stroke-width="0.488841"/>
<path d="M142.042 51.6484V58.7055" stroke="#727F7F" stroke-width="0.488841"/>
<path d="M26.6575 37.9905C31.9313 37.9905 36.2065 35.5704 36.2065 32.5851C36.2065 29.5998 31.9313 27.1797 26.6575 27.1797C21.3837 27.1797 17.1084 29.5998 17.1084 32.5851C17.1084 35.5704 21.3837 37.9905 26.6575 37.9905Z" fill="#8C9999"/>
<path d="M23.873 35.736C26.9494 35.736 29.4433 34.3243 29.4433 32.5828C29.4433 30.8414 26.9494 29.4297 23.873 29.4297C20.7966 29.4297 18.3027 30.8414 18.3027 32.5828C18.3027 34.3243 20.7966 35.736 23.873 35.736Z" fill="#A5B2B2"/>
</g>
<defs>
<clipPath id="clip0_2109_214623">
<rect width="150" height="150" fill="white"/>
</clipPath>
</defs>
</svg>
