<svg width="150" height="150" viewBox="0 0 150 150" fill="none" xmlns="http://www.w3.org/2000/svg">
<g clip-path="url(#clip0_2109_213688)">
<path d="M15.1654 32.8372C16.7409 32.8372 18.0182 25.287 18.0182 15.9733C18.0182 6.6596 16.7409 -0.890625 15.1654 -0.890625C13.5898 -0.890625 12.3125 6.6596 12.3125 15.9733C12.3125 25.287 13.5898 32.8372 15.1654 32.8372Z" fill="#B2B2B2" stroke="black" stroke-width="0.730122"/>
<path d="M5.55566 36.3906H26.4265V93.1954H5.55566V36.3906Z" fill="#99CC99"/>
<path d="M6.30664 47.9297H26.4268V93.196H6.30664V47.9297Z" fill="#73A673"/>
<path d="M5.55566 36.3906H26.4265V93.1954H5.55566V36.3906Z" stroke="black" stroke-width="0.730122"/>
<path d="M25.8262 43.4922H124.175L123.424 124.261H26.4268L25.8262 43.4922Z" fill="#4C7F4C"/>
<path d="M25.8262 43.4902H124.024V29.2891H25.8262V43.4902Z" fill="#99CC99"/>
<path d="M26.7271 68.3438H123.424V106.509H26.4268L26.7271 68.3438Z" fill="#336633"/>
<path d="M25.8262 43.4902V29.2891H124.175V43.4902L123.424 124.259H26.4268L25.8262 43.4902Z" stroke="black" stroke-width="0.730122"/>
<path d="M26.4268 124.258H122.223V149.997H26.4268V124.258Z" fill="#9999FF"/>
<path d="M26.4268 142.898L122.223 131.359V149.998H26.4268V142.898Z" fill="#9494FA"/>
<path d="M26.4268 143.784L122.223 133.133V149.997H26.4268V143.784Z" fill="#8F8FF5"/>
<path d="M26.4268 145.562L122.223 134.023V150H26.4268V145.562Z" fill="#8A8AF0"/>
<path d="M26.4268 124.258H122.223V149.997H26.4268V124.258Z" stroke="black" stroke-width="0.730122"/>
<path d="M117.868 95.8548C120.522 95.8548 122.673 91.4836 122.673 86.0914C122.673 80.6993 120.522 76.3281 117.868 76.3281C115.215 76.3281 113.063 80.6993 113.063 86.0914C113.063 91.4836 115.215 95.8548 117.868 95.8548Z" fill="#4C4C4C"/>
<path d="M101.952 90.5332V104.734H101.501V90.5332H101.051V106.51H100.601V90.5332H100.15V107.397H99.5495V90.5332H99.0991V110.947H98.6486V90.5332H98.1982V114.498H97.7477V90.5332H97.1471V118.936H96.6967V90.5332H96.2462V124.261H95.7958L91.4414 100.297V71.8942L95.7958 47.9297H96.2462V81.6575H96.6967V53.2551H97.1471V81.6575H97.7477V57.693H98.1982V81.6575H98.6486V61.2433H99.0991V81.6575H99.5495V64.7936H100.15V81.6575H100.601V65.6812H101.051V81.6575H101.501V67.4563H101.952V81.6575H102.402V67.4563H103.003V81.6575H103.453V65.6812H103.904V81.6575H104.354V64.7936H104.805V81.6575H105.255V61.2433H105.706V81.6575H106.306V57.693H106.757V81.6575H107.207V53.2551H107.658V81.6575H108.108V47.9297H108.559L113.063 71.8942V100.297L108.559 124.261H108.108V90.5332H107.658V118.936H107.207V90.5332H106.757V114.498H106.306V90.5332H105.706V110.947H105.255V90.5332H104.805V107.397H104.354V90.5332H103.904V106.51H103.453V90.5332H103.003V104.734H102.402V90.5332H101.952Z" fill="#4C4C4C"/>
<path d="M86.4864 95.8548C89.1401 95.8548 91.2913 91.4836 91.2913 86.0914C91.2913 80.6993 89.1401 76.3281 86.4864 76.3281C83.8328 76.3281 81.6816 80.6993 81.6816 86.0914C81.6816 91.4836 83.8328 95.8548 86.4864 95.8548Z" fill="#4C4C4C"/>
<path d="M70.7212 90.5332V104.734H70.2708V90.5332H69.6702V106.51H69.2197V90.5332H68.7693V107.397H68.3188V90.5332H67.8684V110.947H67.4179V90.5332H66.8173V114.498H66.3669V90.5332H65.9164V118.936H65.466V90.5332H65.0155V124.261H64.5651L60.0605 100.297V71.8942L64.5651 47.9297H65.0155V81.6575H65.466V53.2551H65.9164V81.6575H66.3669V57.693H66.8173V81.6575H67.4179V61.2433H67.8684V81.6575H68.3188V64.7936H68.7693V81.6575H69.2197V65.6812H69.6702V81.6575H70.2708V67.4563H70.7212V81.6575H71.1717V67.4563H71.6221V81.6575H72.0726V65.6812H72.523V81.6575H73.1236V64.7936H73.5741V81.6575H74.0245V61.2433H74.475V81.6575H74.9254V57.693H75.3759V81.6575H75.9765V53.2551H76.4269V81.6575H76.8774V47.9297H77.3278L81.6822 71.8942V100.297L77.3278 124.261H76.8774V90.5332H76.4269V118.936H75.9765V90.5332H75.3759V114.498H74.9254V90.5332H74.475V110.947H74.0245V90.5332H73.5741V107.397H73.1236V90.5332H72.523V106.51H72.0726V90.5332H71.6221V104.734H71.1717V90.5332H70.7212Z" fill="#4C4C4C"/>
<path d="M55.255 95.8548C57.9086 95.8548 60.0598 91.4836 60.0598 86.0914C60.0598 80.6993 57.9086 76.3281 55.255 76.3281C52.6014 76.3281 50.4502 80.6993 50.4502 86.0914C50.4502 91.4836 52.6014 95.8548 55.255 95.8548Z" fill="#4C4C4C"/>
<path d="M39.3396 90.5332V104.734H38.8892V90.5332H38.4387V106.51H37.9883V90.5332H37.5378V107.397H37.0874V90.5332H36.4868V110.947H36.0363V90.5332H35.5859V114.498H35.1354V90.5332H34.685V118.936H34.2345V90.5332H33.6339V124.261H33.1835L28.8291 100.297V71.8942L33.1835 47.9297H33.6339V81.6575H34.2345V53.2551H34.685V81.6575H35.1354V57.693H35.5859V81.6575H36.0363V61.2433H36.4868V81.6575H37.0874V64.7936H37.5378V81.6575H37.9883V65.6812H38.4387V81.6575H38.8892V67.4563H39.3396V81.6575H39.7901V67.4563H40.3907V81.6575H40.8411V65.6812H41.2916V81.6575H41.742V64.7936H42.1925V81.6575H42.7931V61.2433H43.2435V81.6575H43.694V57.693H44.1444V81.6575H44.5949V53.2551H45.0453V81.6575H45.6459V47.9297H46.0964L50.4507 71.8942V100.297L46.0964 124.261H45.6459V90.5332H45.0453V118.936H44.5949V90.5332H44.1444V114.498H43.694V90.5332H43.2435V110.947H42.7931V90.5332H42.1925V107.397H41.742V90.5332H41.2916V106.51H40.8411V90.5332H40.3907V104.734H39.7901V90.5332H39.3396Z" fill="#4C4C4C"/>
<path d="M24.0236 95.8548C26.6772 95.8548 28.8284 91.4836 28.8284 86.0914C28.8284 80.6993 26.6772 76.3281 24.0236 76.3281C21.3699 76.3281 19.2188 80.6993 19.2188 86.0914C19.2188 91.4836 21.3699 95.8548 24.0236 95.8548Z" fill="#4C4C4C"/>
<path d="M24.0236 92.3045C26.6772 92.3045 28.8284 88.728 28.8284 84.3163C28.8284 79.9045 26.6772 76.3281 24.0236 76.3281C21.3699 76.3281 19.2188 79.9045 19.2188 84.3163C19.2188 88.728 21.3699 92.3045 24.0236 92.3045Z" fill="#999999"/>
<path d="M39.3396 89.6415V99.4048H38.8892V89.6415H38.4387V100.292H37.9883V89.6415H37.5378V101.18H37.0874V89.6415H36.4868V102.955H36.0363V89.6415H35.5859V105.618H35.1354V89.6415H34.685V109.168H34.2345V89.6415H33.6339V112.718H33.1835L28.8291 95.8545V76.3279L33.1835 60.3516H33.6339V82.5409H34.2345V63.0143H34.685V82.5409H35.1354V66.5646H35.5859V82.5409H36.0363V69.2273H36.4868V82.5409H37.0874V71.89H37.5378V82.5409H37.9883V72.7776H38.4387V82.5409H38.8892V72.7776H39.3396V82.5409H39.7901V72.7776H40.3907V82.5409H40.8411V72.7776H41.2916V82.5409H41.742V71.89H42.1925V82.5409H42.7931V69.2273H43.2435V82.5409H43.694V66.5646H44.1444V82.5409H44.5949V63.0143H45.0453V82.5409H45.6459V60.3516H46.0964L50.4507 76.3279V95.8545L46.0964 112.718H45.6459V89.6415H45.0453V109.168H44.5949V89.6415H44.1444V105.618H43.694V89.6415H43.2435V102.955H42.7931V89.6415H42.1925V101.18H41.742V89.6415H41.2916V100.292H40.8411V89.6415H40.3907V99.4048H39.7901V89.6415H39.3396Z" fill="#999999"/>
<path d="M55.255 92.3045C57.9086 92.3045 60.0598 88.728 60.0598 84.3163C60.0598 79.9045 57.9086 76.3281 55.255 76.3281C52.6014 76.3281 50.4502 79.9045 50.4502 84.3163C50.4502 88.728 52.6014 92.3045 55.255 92.3045Z" fill="#999999"/>
<path d="M70.7212 89.6415V99.4048H70.2708V89.6415H69.6702V100.292H69.2197V89.6415H68.7693V101.18H68.3188V89.6415H67.8684V102.955H67.4179V89.6415H66.8173V105.618H66.3669V89.6415H65.9164V109.168H65.466V89.6415H65.0155V112.718H64.5651L60.0605 95.8545V76.3279L64.5651 60.3516H65.0155V82.5409H65.466V63.0143H65.9164V82.5409H66.3669V66.5646H66.8173V82.5409H67.4179V69.2273H67.8684V82.5409H68.3188V71.89H68.7693V82.5409H69.2197V72.7776H69.6702V82.5409H70.2708V72.7776H70.7212V82.5409H71.1717V72.7776H71.6221V82.5409H72.0726V72.7776H72.523V82.5409H73.1236V71.89H73.5741V82.5409H74.0245V69.2273H74.475V82.5409H74.9254V66.5646H75.3759V82.5409H75.9765V63.0143H76.4269V82.5409H76.8774V60.3516H77.3278L81.6822 76.3279V95.8545L77.3278 112.718H76.8774V89.6415H76.4269V109.168H75.9765V89.6415H75.3759V105.618H74.9254V89.6415H74.475V102.955H74.0245V89.6415H73.5741V101.18H73.1236V89.6415H72.523V100.292H72.0726V89.6415H71.6221V99.4048H71.1717V89.6415H70.7212Z" fill="#999999"/>
<path d="M86.4864 92.3045C89.1401 92.3045 91.2913 88.728 91.2913 84.3163C91.2913 79.9045 89.1401 76.3281 86.4864 76.3281C83.8328 76.3281 81.6816 79.9045 81.6816 84.3163C81.6816 88.728 83.8328 92.3045 86.4864 92.3045Z" fill="#999999"/>
<path d="M101.952 89.6415V99.4048H101.501V89.6415H101.051V100.292H100.601V89.6415H100.15V101.18H99.5495V89.6415H99.0991V102.955H98.6486V89.6415H98.1982V105.618H97.7477V89.6415H97.1471V109.168H96.6967V89.6415H96.2462V112.718H95.7958L91.4414 95.8545V76.3279L95.7958 60.3516H96.2462V82.5409H96.6967V63.0143H97.1471V82.5409H97.7477V66.5646H98.1982V82.5409H98.6486V69.2273H99.0991V82.5409H99.5495V71.89H100.15V82.5409H100.601V72.7776H101.051V82.5409H101.501V72.7776H101.952V82.5409H102.402V72.7776H103.003V82.5409H103.453V72.7776H103.904V82.5409H104.354V71.89H104.805V82.5409H105.255V69.2273H105.706V82.5409H106.306V66.5646H106.757V82.5409H107.207V63.0143H107.658V82.5409H108.108V60.3516H108.559L113.063 76.3279V95.8545L108.559 112.718H108.108V89.6415H107.658V109.168H107.207V89.6415H106.757V105.618H106.306V89.6415H105.706V102.955H105.255V89.6415H104.805V101.18H104.354V89.6415H103.904V100.292H103.453V89.6415H103.003V99.4048H102.402V89.6415H101.952Z" fill="#999999"/>
<path d="M117.868 92.3045C120.522 92.3045 122.673 88.728 122.673 84.3163C122.673 79.9045 120.522 76.3281 117.868 76.3281C115.215 76.3281 113.063 79.9045 113.063 84.3163C113.063 88.728 115.215 92.3045 117.868 92.3045Z" fill="#999999"/>
<path d="M117.868 83.4287C120.522 83.4287 122.673 81.8392 122.673 79.8784C122.673 77.9176 120.522 76.3281 117.868 76.3281C115.215 76.3281 113.063 77.9176 113.063 79.8784C113.063 81.8392 115.215 83.4287 117.868 83.4287Z" fill="#E5E5E5"/>
<path d="M102.252 97.6316C108.223 97.6316 113.063 92.4657 113.063 86.0931C113.063 79.7206 108.223 74.5547 102.252 74.5547C96.2816 74.5547 91.4414 79.7206 91.4414 86.0931C91.4414 92.4657 96.2816 97.6316 102.252 97.6316Z" fill="#E5E5E5"/>
<path d="M86.4864 83.4287C89.1401 83.4287 91.2913 81.8392 91.2913 79.8784C91.2913 77.9176 89.1401 76.3281 86.4864 76.3281C83.8328 76.3281 81.6816 77.9176 81.6816 79.8784C81.6816 81.8392 83.8328 83.4287 86.4864 83.4287Z" fill="#E5E5E5"/>
<path d="M70.8714 97.6316C76.842 97.6316 81.6822 92.4657 81.6822 86.0931C81.6822 79.7206 76.842 74.5547 70.8714 74.5547C64.9007 74.5547 60.0605 79.7206 60.0605 86.0931C60.0605 92.4657 64.9007 97.6316 70.8714 97.6316Z" fill="#E5E5E5"/>
<path d="M55.255 83.4287C57.9086 83.4287 60.0598 81.8392 60.0598 79.8784C60.0598 77.9176 57.9086 76.3281 55.255 76.3281C52.6014 76.3281 50.4502 77.9176 50.4502 79.8784C50.4502 81.8392 52.6014 83.4287 55.255 83.4287Z" fill="#E5E5E5"/>
<path d="M39.6399 97.6316C45.6106 97.6316 50.4507 92.4657 50.4507 86.0931C50.4507 79.7206 45.6106 74.5547 39.6399 74.5547C33.6693 74.5547 28.8291 79.7206 28.8291 86.0931C28.8291 92.4657 33.6693 97.6316 39.6399 97.6316Z" fill="#E5E5E5"/>
<path d="M24.0236 83.4287C26.6772 83.4287 28.8284 81.8392 28.8284 79.8784C28.8284 77.9176 26.6772 76.3281 24.0236 76.3281C21.3699 76.3281 19.2188 77.9176 19.2188 79.8784C19.2188 81.8392 21.3699 83.4287 24.0236 83.4287Z" fill="#E5E5E5"/>
<path d="M109.009 57.6957L112.612 74.5596V76.3347L109.009 64.7963V69.2341L112.612 78.9975V81.6602L109.009 74.5596V78.9975L112.612 85.2105L109.009 83.4353V88.7608L112.612 86.9856L109.009 93.1986V97.6365L112.612 90.5359V93.1986L109.009 102.962V107.4L112.612 95.8614V97.6365L109.009 114.5V118.938L112.763 99.4117V72.7844L109.009 53.2578V57.6957Z" fill="#333333"/>
<path d="M95.3456 114.5L91.7419 97.6365V95.8614L95.3456 107.4V102.962L91.7419 93.1986V90.5359L95.3456 97.6365V93.1986L91.7419 86.9856L95.3456 88.7608V83.4353L91.7419 85.2105L95.3456 78.9975V74.5596L91.7419 81.6602V78.9975L95.3456 69.2341V64.7963L91.7419 76.3347V74.5596L95.3456 57.6957V53.2578L91.5918 72.7844V99.4117L95.3456 118.938V114.5Z" fill="#333333"/>
<path d="M77.7773 57.6957L81.3809 74.5596V76.3347L77.7773 64.7963V69.2341L81.3809 78.9975V81.6602L77.7773 74.5596V78.9975L81.3809 85.2105L77.7773 83.4353V88.7608L81.3809 86.9856L77.7773 93.1986V97.6365L81.3809 90.5359V93.1986L77.7773 102.962V107.4L81.3809 95.8614V97.6365L77.7773 114.5V118.938L81.5311 99.4117V72.7844L77.7773 53.2578V57.6957Z" fill="#333333"/>
<path d="M64.1139 114.5L60.5103 97.6365V95.8614L64.1139 107.4V102.962L60.5103 93.1986V90.5359L64.1139 97.6365V93.1986L60.5103 86.9856L64.1139 88.7608V83.4353L60.5103 85.2105L64.1139 78.9975V74.5596L60.5103 81.6602V78.9975L64.1139 69.2341V64.7963L60.5103 76.3347V74.5596L64.1139 57.6957V53.2578L60.21 72.7844V99.4117L64.1139 118.938V114.5Z" fill="#333333"/>
<path d="M32.8824 114.5L29.2788 97.6365V95.8614L32.8824 107.4V102.962L29.2788 93.1986V90.5359L32.8824 97.6365V93.1986L29.2788 86.9856L32.8824 88.7608V83.4353L29.2788 85.2105L32.8824 78.9975V74.5596L29.2788 81.6602V78.9975L32.8824 69.2341V64.7963L29.2788 76.3347V74.5596L32.8824 57.6957V53.2578L28.9785 72.7844V99.4117L32.8824 118.938V114.5Z" fill="#333333"/>
<path d="M46.3965 57.6957L50.0001 74.5596V76.3347L46.3965 64.7963V69.2341L50.0001 78.9975V81.6602L46.3965 74.5596V78.9975L50.0001 85.2105L46.3965 83.4353V88.7608L50.0001 86.9856L46.3965 93.1986V97.6365L50.0001 90.5359V93.1986L46.3965 102.962V107.4L50.0001 95.8614V97.6365L46.3965 114.5V118.938L50.3004 99.4117V72.7844L46.3965 53.2578V57.6957Z" fill="#333333"/>
<path d="M26.4268 110.945H122.673V124.259H26.4268V110.945Z" fill="#CCCCCC" stroke="black" stroke-width="0.730122"/>
<path d="M122.673 57.6953H143.544V114.5H122.673V57.6953Z" fill="#4C7F4C"/>
<path d="M122.673 57.6953H143.544V95.861H122.673V57.6953Z" fill="#669966"/>
<path d="M122.673 57.6953H143.544V89.648H122.673V57.6953Z" fill="#73A673"/>
<path d="M122.673 57.6953H143.544V84.3225H122.673V57.6953Z" fill="#7FB27F"/>
<path d="M122.673 57.6953H143.544V78.9971H122.673V57.6953Z" fill="#8CBF8C"/>
<path d="M122.673 57.6953H143.544V73.6716H122.673V57.6953Z" fill="#99CC99"/>
<path d="M122.673 57.6953H143.544V68.3462H122.673V57.6953Z" fill="#A6D9A6"/>
<path d="M122.673 57.6953H143.544V62.1332H122.673V57.6953Z" fill="#B2E5B2"/>
<path d="M143.544 88.7578H150V114.497H143.544V88.7578Z" fill="#669966"/>
<path d="M143.544 88.7578H150V93.1957H143.544V88.7578Z" fill="#B2E5B2"/>
<path d="M122.673 57.6953H143.544V114.5H122.673V57.6953Z" stroke="black" stroke-width="0.730122"/>
<path d="M143.544 88.7578H150V114.497H143.544V88.7578Z" stroke="black" stroke-width="0.730122"/>
<path d="M124.324 47.9297H130.631V90.5332H124.324V47.9297Z" fill="#73A673"/>
<path d="M124.324 47.9297H130.631V50.5924H124.324V47.9297Z" fill="#B2E5B2"/>
<path d="M124.324 57.693V47.9297H130.631V57.693" stroke="black" stroke-width="0.730122"/>
<path d="M122.223 114.5H150V141.127H122.223V114.5Z" fill="#9999FF"/>
<path d="M122.223 133.135L150 122.484V141.123H122.223V133.135Z" fill="#9494FA"/>
<path d="M122.223 134.026L150 123.375V141.126H122.223V134.026Z" fill="#8F8FF5"/>
<path d="M122.223 135.799L150 125.148V141.125H122.223V135.799Z" fill="#8A8AF0"/>
<path d="M122.223 114.5H150V141.127H122.223V114.5Z" stroke="black" stroke-width="0.730122"/>
<path d="M21.6217 54.1406V118.046H7.35742V54.1406H21.6217Z" fill="#7F7F7F"/>
<path d="M21.6217 60.3516V111.831H7.35742V60.3516H21.6217Z" fill="#999999"/>
<path d="M21.6217 66.5703V105.624H7.35742V66.5703H21.6217Z" fill="#B2B2B2"/>
<path d="M21.6217 72.7812V99.4085H7.35742V72.7812H21.6217Z" fill="#CCCCCC"/>
<path d="M21.6217 78.9922V93.1934H7.35742V78.9922H21.6217Z" fill="#E5E5E5"/>
<path d="M21.6217 54.1406V118.046H7.35742V54.1406H21.6217Z" stroke="black" stroke-width="0.730122"/>
<path d="M8.70898 86.0938H26.4267V142.898H8.70898V86.0938Z" fill="#99CC99"/>
<path d="M8.70898 126.925L26.4267 102.961V142.902H8.70898V126.925Z" fill="#94C794"/>
<path d="M8.70898 128.699L26.4267 104.734V142.9H8.70898V128.699Z" fill="#8FC28F"/>
<path d="M8.70898 132.246L26.4267 108.281V142.897H8.70898V132.246Z" fill="#8ABD8A"/>
<path d="M8.70898 86.0938H26.4267V142.898H8.70898V86.0938Z" stroke="black" stroke-width="0.730122"/>
<path d="M0 75.4453H8.70871V135.8H0V75.4453Z" fill="#99CC99"/>
<path d="M0 118.047L8.70871 93.1953V135.799H0V118.047Z" fill="#94C794"/>
<path d="M0 120.711L8.70871 95.8594V135.8H0V120.711Z" fill="#8FC28F"/>
<path d="M0 125.146L8.70871 99.4062V135.797H0V125.146Z" fill="#8ABD8A"/>
<path d="M0 75.4453H8.70871V135.8H0V75.4453Z" stroke="black" stroke-width="0.730122"/>
<path d="M50.4502 3.54688H60.5103V43.4877H50.4502V3.54688Z" fill="#99CC99"/>
<path d="M51.502 3.54688H59.4599V43.4877H51.502V3.54688Z" fill="#8CBF8C"/>
<path d="M53.7539 3.54688H57.2074V43.4877H53.7539V3.54688Z" fill="#7FB27F"/>
<path d="M12.9131 3.54688H17.4176V56.8013H12.9131V3.54688Z" fill="#7F7F7F"/>
<path d="M13.3633 3.54688H16.9669V56.8013H13.3633V3.54688Z" fill="#999999"/>
<path d="M13.8135 3.54688H16.5162V56.8013H13.8135V3.54688Z" fill="#B2B2B2"/>
<path d="M14.2646 3.54688H16.0665V56.8013H14.2646V3.54688Z" fill="#CCCCCC"/>
<path d="M14.7148 3.54688H15.6157V56.8013H14.7148V3.54688Z" fill="#E5E5E5"/>
<path d="M12.9131 3.54688H17.4176V56.8013H12.9131V3.54688Z" stroke="black" stroke-width="0.730122"/>
<path d="M50.4502 29.2865V3.54688H60.5103V29.2865" stroke="black" stroke-width="0.730122"/>
<path d="M81.6816 3.54688H91.7417V43.4877H81.6816V3.54688Z" fill="#99CC99"/>
<path d="M82.8828 3.54688H90.6906V43.4877H82.8828V3.54688Z" fill="#8CBF8C"/>
<path d="M84.9854 3.54688H88.589V43.4877H84.9854V3.54688Z" fill="#7FB27F"/>
<path d="M81.6816 29.2865V3.54688H91.7417V29.2865" stroke="black" stroke-width="0.730122"/>
</g>
<defs>
<clipPath id="clip0_2109_213688">
<rect width="150" height="150" fill="white"/>
</clipPath>
</defs>
</svg>
