<svg width="150" height="150" viewBox="0 0 150 150" fill="none" xmlns="http://www.w3.org/2000/svg">
<g clip-path="url(#clip0_2109_214750)">
<path d="M141.406 91.8919L132.812 88.5886V34.0841L141.406 32.4324V17.8679L132.812 17.1171L128.125 12.4625L108.594 7.50751L88.2812 5.1051L83.5938 3.3033V2.55255L79.6875 1.65165V0H61.7188V1.65165L57.0312 2.55255V3.3033L53.125 5.1051L32.8125 7.50751L12.5 12.4625L8.59375 17.1171L0 17.8679V32.4324L8.59375 34.0841V88.5886L0 91.8919V145.495L4.6875 146.697L27.3438 148.949L60.9375 150L97.6562 149.55L127.344 147.898L136.719 146.697L141.406 145.495V91.8919Z" fill="#596666"/>
<path d="M136.719 91.8919L128.125 88.5886V33.9339L136.719 32.2823V17.8679L128.125 16.967L124.219 12.4625L106.25 7.50751L87.5 5.1051L83.5938 3.3033V2.55255L78.9062 1.65165V0H62.5V1.65165L58.5938 2.55255V3.3033L54.6875 5.1051L35.9375 7.50751L17.1875 12.3123L13.2812 16.967L4.6875 17.8679V32.2823L13.2812 33.9339V88.5886L4.6875 91.8919V146.396L30.4688 148.799L61.7188 149.85L96.0938 149.55L123.438 147.898L136.719 146.396V91.8919Z" fill="#637070"/>
<path d="M131.25 91.8919L124.219 88.5886V33.9339L131.25 32.2823V17.8679L124.219 16.967L120.312 12.4625L103.906 7.50751L85.9375 5.1051L82.0312 3.3033V2.55255L78.125 1.65165V0H63.2812V1.65165L59.375 2.55255V3.3033L55.4688 5.1051L38.2812 7.50751L21.0938 12.3123L17.1875 16.967L10.1562 17.8679V32.2823L17.1875 33.9339V88.5886L10.1562 91.8919V147.297L14.0625 147.748L47.6562 149.55L62.5 149.85L93.75 149.55L119.531 147.898L127.344 147.748L131.25 147.297V91.8919Z" fill="#6D7A7A"/>
<path d="M126.562 91.8919L119.531 88.5886V33.9339L126.562 32.2823V17.8679L119.531 16.967L116.406 12.4625L100.781 7.50751L84.375 5.1051L81.25 3.3033V2.55255L77.3438 1.65165V0H64.0625V1.65165L60.1562 2.55255V3.3033L57.0312 5.1051L32.0312 9.75976L21.875 15.4655V16.967L14.8438 17.8679V32.2823L21.875 33.9339V88.5886L14.8438 91.8919V147.898L18.75 148.198L26.5625 147.898L49.2188 149.55L63.2812 149.85L92.1875 149.55L115.625 147.898L122.656 148.198L126.562 147.898V91.8919Z" fill="#788585"/>
<path d="M121.094 91.8919L114.844 88.5886V33.9339L121.094 32.2823V17.8679L114.844 16.967L111.719 12.4625L98.4375 7.50751L83.5938 5.1051L80.4688 3.3033V2.55255L77.3438 1.65165V0H64.8438V1.65165L60.9375 2.55255L58.5938 5.1051L35.1562 9.75976L26.5625 15.4655V16.967L20.3125 17.8679V32.2823L26.5625 33.9339V88.5886L20.3125 91.8919V148.198L23.4375 148.499L30.4688 147.898L51.5625 149.55L64.0625 149.85L89.8438 149.55L110.938 147.898L117.969 148.499L121.094 148.198V91.8919Z" fill="#7F8C8C"/>
<path d="M116.406 91.8919L110.156 88.5886V33.9339L116.406 32.2823V17.8679L110.156 16.967L107.812 12.4625L95.3125 7.50751L82.0312 5.1051L76.5625 1.65165V0H64.8438V1.65165L59.375 5.1051L39.0625 9.75976L31.25 15.4655V16.967L25.7812 17.8679V32.2823L31.25 33.9339V88.5886L25.7812 91.8919V148.499L42.9688 148.799L64.8438 149.85L88.2812 149.55L116.406 148.499V91.8919Z" fill="#899696"/>
<path d="M110.938 91.8919L106.25 88.5886V33.9339L110.938 32.2823V17.8679L106.25 16.967L103.906 12.4625L92.9688 7.50751L81.25 5.1051L75.7812 1.65165V0H65.625V1.65165L60.9375 5.1051L42.9688 9.75976L35.9375 15.4655V16.967L30.4688 17.8679V32.2823L35.9375 33.9339V88.5886L30.4688 91.8919V148.799L38.2812 149.249L46.0938 148.799L65.625 149.85L95.3125 148.799L103.125 149.249L110.938 148.799V91.8919Z" fill="#94A1A1"/>
<path d="M106.25 91.8919L101.562 88.5886V33.9339L106.25 32.2823V17.8679L101.562 16.967L99.2188 12.4625L89.8438 7.50751L77.3438 3.3033V2.55255L75 1.65165V0H66.4062V1.65165L61.7188 5.1051L46.0938 9.75976L39.8438 15.4655V16.967L35.9375 17.8679V32.2823L39.8438 33.9339V88.5886L35.9375 91.8919V149.099H38.2812L42.9688 149.399L49.2188 148.799L66.4062 149.85L92.1875 148.799L99.2188 149.399L103.906 149.099H106.25V91.8919Z" fill="#9EABAB"/>
<path d="M100.781 91.8919L96.875 88.5886V33.9339L100.781 32.2823V17.8679L96.875 16.967L95.3125 12.4625L86.7188 7.50751L76.5625 3.3033V2.55255L74.2188 1.65165V0H67.1875V1.65165L63.2812 5.1051L50 9.75976L44.5312 15.4655V16.967L40.625 17.8679V32.2823L44.5312 33.9339V88.5886L40.625 91.8919V149.249L46.875 149.55L52.3438 148.799L67.1875 149.85L89.0625 148.799L95.3125 149.55L100.781 149.249V91.8919Z" fill="#A8B5B5"/>
<path d="M96.0938 91.8919L92.9688 88.5886V33.9339L96.0938 32.2823V17.8679L92.9688 16.967L91.4062 12.4625L84.375 7.50751L75 3.3033L74.2188 0H67.9688V1.65165L65.625 2.55255L57.0312 7.50751L50.7812 12.3123L49.2188 16.967L46.0938 17.8679V32.2823L49.2188 33.9339V88.5886L46.0938 91.8919V149.399L50.7812 149.55L55.4688 148.799L67.1875 149.85L85.9375 148.799L90.625 149.55L96.0938 149.399V91.8919Z" fill="#B2BFBF"/>
<path d="M90.625 91.8919L88.2812 88.5886V33.9339L90.625 32.2823V17.8679L88.2812 16.967L86.7188 12.4625L81.25 7.50751L74.2188 3.3033L73.4375 0H67.9688L65.625 5.1051L57.0312 9.75976L53.125 15.4655V16.967L50.7812 17.8679V32.2823L53.125 33.9339V88.5886L50.7812 91.8919V149.55L67.9688 149.85L90.625 149.55V91.8919Z" fill="#BAC7C7"/>
<path d="M85.9375 91.8919L83.5938 88.5886V33.9339L85.9375 32.2823V17.8679L83.5938 16.967L82.8125 12.4625L78.9062 7.50751L73.4375 3.3033L72.6562 0H68.75L67.1875 5.1051L60.9375 9.75976L57.8125 15.4655V16.967L56.25 17.8679V32.2823L57.8125 33.9339V88.5886L56.25 91.8919V149.7L64.8438 149.55L68.75 149.85H72.6562L76.5625 149.55L85.9375 149.7V91.8919Z" fill="#C4D1D1"/>
<path d="M80.4688 91.8919L79.6875 88.5886V33.9339L80.4688 32.2823V17.8679L78.9062 12.4625L76.5625 7.50751L72.6562 3.3033L71.875 0H69.5312L67.9688 5.1051L64.0625 9.75976L62.5 15.4655L60.9375 17.8679V32.2823L62.5 33.9339V88.5886L60.9375 91.8919V149.7L63.2812 149.55L64.8438 149.7L67.1875 149.55L69.5312 149.85H71.875L74.2188 149.55L76.5625 149.7L78.125 149.55L80.4688 149.7V91.8919Z" fill="#CEDBDB"/>
<path d="M70.3125 149.85C72.9013 149.85 75 116.305 75 74.9249C75 33.545 72.9013 0 70.3125 0C67.7237 0 65.625 33.545 65.625 74.9249C65.625 116.305 67.7237 149.85 70.3125 149.85Z" fill="#D8E5E5"/>
<path d="M141.406 91.8919L132.812 88.5886V34.0841L141.406 32.4324V17.8679L132.812 17.1171L128.125 12.4625L108.594 7.50751L88.2812 5.10511L83.5938 3.3033V2.55255L79.6875 1.65165V0H61.7188V1.65165L57.0312 2.55255V3.3033L53.125 5.10511L32.8125 7.50751L12.5 12.4625L8.59375 17.1171L0 17.8679V32.4324L8.59375 34.0841V88.5886L0 91.8919V145.495L4.6875 146.697L27.3438 148.949L60.9375 150L97.6562 149.55L127.344 147.898L136.719 146.697L141.406 145.495V91.8919Z" stroke="black" stroke-width="0.684996"/>
<path d="M0 91.8906H141.406" stroke="#D8E5E5" stroke-width="0.684996"/>
<path d="M0 17.8672H141.406" stroke="#D8E5E5" stroke-width="0.684996"/>
<path d="M0 32.4297H141.406" stroke="#D8E5E5" stroke-width="0.684996"/>
<path d="M8.59375 88.5859H132.812" stroke="#8C9999" stroke-width="0.684996"/>
<path d="M8.59375 34.0859H132.812" stroke="#8C9999" stroke-width="0.684996"/>
<path d="M8.59375 16.9688H132.812" stroke="#8C9999" stroke-width="0.684996"/>
<path d="M53.125 5.10156H88.2812" stroke="#8C9999" stroke-width="0.684996"/>
<path d="M57.0312 3.30469H84.375" stroke="#8C9999" stroke-width="0.684996"/>
<path d="M61.7188 1.64844H79.6875" stroke="#8C9999" stroke-width="0.684996"/>
<path d="M30.4688 142.943C37.8038 142.943 43.75 141.464 43.75 139.639C43.75 137.815 37.8038 136.336 30.4688 136.336C23.1337 136.336 17.1875 137.815 17.1875 139.639C17.1875 141.464 23.1337 142.943 30.4688 142.943Z" fill="#8C9999"/>
<path d="M101.562 143.094C111.486 143.094 119.531 141.548 119.531 139.641C119.531 137.734 111.486 136.188 101.562 136.188C91.6386 136.188 83.5938 137.734 83.5938 139.641C83.5938 141.548 91.6386 143.094 101.562 143.094Z" fill="#A5B2B2"/>
<path d="M30.4688 141.895C35.2149 141.895 39.0625 140.887 39.0625 139.643C39.0625 138.399 35.2149 137.391 30.4688 137.391C25.7226 137.391 21.875 138.399 21.875 139.643C21.875 140.887 25.7226 141.895 30.4688 141.895Z" fill="#3F4C4C"/>
<path d="M101.562 142.191C108.898 142.191 114.844 141.048 114.844 139.638C114.844 138.229 108.898 137.086 101.562 137.086C94.2275 137.086 88.2812 138.229 88.2812 139.638C88.2812 141.048 94.2275 142.191 101.562 142.191Z" fill="#596666"/>
<path d="M70.3125 119.068C79.8049 119.068 87.5 117.589 87.5 115.764C87.5 113.94 79.8049 112.461 70.3125 112.461C60.8201 112.461 53.125 113.94 53.125 115.764C53.125 117.589 60.8201 119.068 70.3125 119.068Z" fill="#A5B2B2"/>
<path d="M56.25 117.866L53.9062 117.116L53.125 116.215V115.314L53.9062 114.413L56.25 113.662L59.375 113.062L64.0625 112.611L67.9688 112.461H73.4375L77.3438 112.611L81.25 113.062L84.375 113.662" stroke="#F2FFFF" stroke-width="0.684996"/>
<path d="M87.5 114.414L88.2812 115.315V116.216L87.5 117.117L84.375 117.868L81.25 118.468L77.3438 119.069L73.4375 119.219H67.9688L64.0625 119.069L59.375 118.468" stroke="#8C9999" stroke-width="0.684996"/>
<path d="M70.3125 127.631C75.0587 127.631 78.9062 126.892 78.9062 125.98C78.9062 125.068 75.0587 124.328 70.3125 124.328C65.5663 124.328 61.7188 125.068 61.7188 125.98C61.7188 126.892 65.5663 127.631 70.3125 127.631Z" fill="#A5B2B2"/>
<path d="M64.0625 127.181L62.5 126.731L61.7188 126.28V125.83L62.5 125.379L64.0625 125.079L64.8438 124.628L67.1875 124.478L69.5312 124.328H71.875L74.2188 124.478L76.5625 124.628L78.125 125.079" stroke="#F2FFFF" stroke-width="0.684996"/>
<path d="M78.9062 125.375L79.6875 125.825V126.276L78.9062 126.726L78.125 127.177L76.5625 127.477L74.2188 127.627L71.875 127.777H69.5312L67.1875 127.627L64.8438 127.477" stroke="#8C9999" stroke-width="0.684996"/>
<path d="M0 64.7109H8.59375V78.3746H0V64.7109Z" fill="#8C9999" stroke="black" stroke-width="0.684996"/>
<path d="M110.156 27.9283C114.902 27.9283 118.75 27.1888 118.75 26.2767C118.75 25.3645 114.902 24.625 110.156 24.625C105.41 24.625 101.562 25.3645 101.562 26.2767C101.562 27.1888 105.41 27.9283 110.156 27.9283Z" fill="#A5B2B2"/>
<path d="M103.125 27.4779L102.344 27.0274L101.562 26.577V26.1265L102.344 25.6761L103.125 25.3758L104.688 25.0755L107.031 24.7752L109.375 24.625H111.719L114.062 24.7752L115.625 25.0755L117.969 25.3758" stroke="#F2FFFF" stroke-width="0.684996"/>
<path d="M118.75 25.6719L119.531 26.1223V26.5728L118.75 27.0232L117.969 27.4737L115.625 27.774L114.062 28.0743H111.719H109.375H107.031L104.688 27.774" stroke="#8C9999" stroke-width="0.684996"/>
<path d="M52.3438 15.1613C61.8361 15.1613 69.5312 13.6824 69.5312 11.858C69.5312 10.0336 61.8361 8.55469 52.3438 8.55469C42.8514 8.55469 35.1562 10.0336 35.1562 11.858C35.1562 13.6824 42.8514 15.1613 52.3438 15.1613Z" fill="#596666"/>
<path d="M62.5 10.0633L56.25 11.4146L65.625 11.2645V12.6158L56.25 12.3155L62.5 13.817L56.25 14.4176L53.125 12.766L49.2188 14.4176L42.9688 13.817L49.2188 12.3155L39.8438 12.6158V11.2645L49.2188 11.4146L42.9688 10.0633L49.2188 9.3125L53.125 11.1143L56.25 9.3125L62.5 10.0633Z" fill="#BFCCCC"/>
<path d="M52.3438 12.6109C54.5011 12.6109 56.25 12.2748 56.25 11.8601C56.25 11.4455 54.5011 11.1094 52.3438 11.1094C50.1864 11.1094 48.4375 11.4455 48.4375 11.8601C48.4375 12.2748 50.1864 12.6109 52.3438 12.6109Z" fill="#727F7F"/>
<path d="M141.406 95.3438H150V102.251H141.406V95.3438Z" fill="#8C9999" stroke="black" stroke-width="0.684996"/>
<path d="M35.1562 122.672H43.75V124.324H35.1562V122.672Z" fill="#263333"/>
<path d="M35.1562 127.781H43.75V129.433H35.1562V127.781Z" fill="#263333"/>
<path d="M128.125 123.57H132.812V125.222H128.125V123.57Z" fill="#263333"/>
<path d="M128.125 121.023H132.812V122.675H128.125V121.023Z" fill="#263333"/>
</g>
<defs>
<clipPath id="clip0_2109_214750">
<rect width="150" height="150" fill="white"/>
</clipPath>
</defs>
</svg>
