<svg width="150" height="150" viewBox="0 0 150 150" fill="none" xmlns="http://www.w3.org/2000/svg">
<g clip-path="url(#clip0_2109_214188)">
<path d="M132.115 71.7734H17.8846L11.8269 73.4251L2.88462 73.2749L0 74.9266V82.7344L2.88462 84.2359L11.8269 84.3861L17.8846 85.8876H122.885H132.115L137.885 84.2359H147.115L150 82.7344V74.9266L147.115 73.4251H137.885L132.115 71.7734Z" fill="#727F7F"/>
<path d="M132.115 72.375L17.8846 72.5252L12.1154 73.8765H2.88462L0 75.2279V82.2849L2.88462 83.6363L12.1154 83.7864L17.8846 85.1378H123.173H132.115L138.173 83.6363H147.115L150 82.2849V75.2279L147.115 73.8765H138.173L132.115 72.375Z" fill="#7D8A8A"/>
<path d="M132.115 73.125H17.8846L12.1154 74.4764L2.88462 74.3262L0 75.6776V81.9839L2.88462 83.1851H12.1154L17.8846 84.3863H123.173H132.115L138.173 83.1851H147.115L150 81.9839V75.6776L147.115 74.4764H138.173L132.115 73.125Z" fill="#899696"/>
<path d="M132.115 73.875H17.8846L12.1154 74.9261H2.88462L0 75.9771V81.5327L2.88462 82.5837H12.1154L17.8846 83.7849H123.173H132.115L138.173 82.5837H147.115L150 81.5327V75.9771L147.115 74.9261H138.173L132.115 73.875Z" fill="#94A1A1"/>
<path d="M132.115 74.4766H17.8846L12.1154 75.5276H2.88462L0 76.4285V81.0832L2.88462 82.1342H12.1154L17.8846 83.0351H123.173H132.115L138.173 82.1342H147.115L150 81.0832V76.4285L147.115 75.5276H138.173L132.115 74.4766Z" fill="#A0ADAD"/>
<path d="M132.115 75.2266H17.8846L12.1154 75.9773H2.88462L0 76.7281V80.7821L2.88462 81.5329H12.1154L17.8846 82.4338H123.173H132.115L138.173 81.5329H147.115L150 80.7821V76.7281L147.115 75.9773H138.173L132.115 75.2266Z" fill="#ABB8B8"/>
<path d="M132.115 75.8281L17.8846 75.9783L12.1154 76.5789H2.88462L0 77.1795V80.3326L2.88462 80.9332L12.1154 81.0834L17.8846 81.684H123.173H132.115L138.173 80.9332H147.115L150 80.3326V77.1795L147.115 76.5789H138.173L132.115 75.8281Z" fill="#B7C4C4"/>
<path d="M132.115 76.5781H17.8846L12.1154 77.1787L2.88462 77.0286L0 77.6292V80.0316L2.88462 80.482H12.1154L17.8846 80.9325H123.173H132.115L138.173 80.482H147.115L150 80.0316V77.6292L147.115 77.1787H138.173L132.115 76.5781Z" fill="#C2CFCF"/>
<path d="M75 80.3311C116.421 80.3311 150 79.6589 150 78.8296C150 78.0004 116.421 77.3281 75 77.3281C33.5786 77.3281 0 78.0004 0 78.8296C0 79.6589 33.5786 80.3311 75 80.3311Z" fill="#CEDBDB"/>
<path d="M75 79.5796C116.421 79.5796 150 79.2435 150 78.8289C150 78.4142 116.421 78.0781 75 78.0781C33.5786 78.0781 0 78.4142 0 78.8289C0 79.2435 33.5786 79.5796 75 79.5796Z" fill="#D8E5E5"/>
<path d="M137.885 84.2327V73.4219" stroke="#727F7F" stroke-width="0.416233"/>
<path d="M132.115 85.8876V71.7734" stroke="#727F7F" stroke-width="0.416233"/>
<path d="M11.8271 84.2327V73.4219" stroke="#727F7F" stroke-width="0.416233"/>
<path d="M17.8848 85.8876V71.7734" stroke="#727F7F" stroke-width="0.416233"/>
<path d="M147.115 84.2327V73.4219" stroke="#727F7F" stroke-width="0.416233"/>
<path d="M132.115 71.7734H17.8846L11.8269 73.4251L2.88462 73.2749L0 74.9266V82.7344L2.88462 84.2359L11.8269 84.3861L17.8846 85.8876H122.885H132.115L137.885 84.2359H147.115L150 82.7344V74.9266L147.115 73.4251H137.885L132.115 71.7734Z" stroke="black" stroke-width="0.416233"/>
<path d="M32.8848 50.75H117.116V56.1554H32.8848V50.75Z" fill="#334040" stroke="black" stroke-width="0.416233"/>
<path d="M58.5576 31.2282V3H91.4422V31.2282H58.5576Z" fill="#596666"/>
<path d="M58.5576 31.2329V21.7734H91.4422V31.2329H58.5576Z" fill="#263333" stroke="black" stroke-width="0.416233"/>
<path d="M93.4619 0H97.5004V31.982H93.4619V0Z" fill="#596666" stroke="black" stroke-width="0.416233"/>
<path d="M86.5381 0H90.5765V31.982H86.5381V0Z" fill="#596666" stroke="black" stroke-width="0.416233"/>
<path d="M79.9043 0H83.9428V31.982H79.9043V0Z" fill="#596666" stroke="black" stroke-width="0.416233"/>
<path d="M72.9805 0H77.0189V31.982H72.9805V0Z" fill="#596666" stroke="black" stroke-width="0.416233"/>
<path d="M66.0576 0H70.0961V31.982H66.0576V0Z" fill="#596666" stroke="black" stroke-width="0.416233"/>
<path d="M59.4229 0H63.4613V31.982H59.4229V0Z" fill="#596666" stroke="black" stroke-width="0.416233"/>
<path d="M52.5 0H56.5385V31.982H52.5V0Z" fill="#596666" stroke="black" stroke-width="0.416233"/>
<path d="M53.6543 0.75H55.6735V3.00225H53.6543V0.75Z" fill="#CCD9D9"/>
<path d="M94.3271 0.75H96.3464V3.00225H94.3271V0.75Z" fill="#CCD9D9"/>
<path d="M60.2881 0.75H62.3073V3.00225H60.2881V0.75Z" fill="#CCD9D9"/>
<path d="M67.2119 0.75H69.2311V3.00225H67.2119V0.75Z" fill="#CCD9D9"/>
<path d="M74.1348 0.75H75.8655V3.00225H74.1348V0.75Z" fill="#CCD9D9"/>
<path d="M80.7695 0.75H82.7888V3.00225H80.7695V0.75Z" fill="#CCD9D9"/>
<path d="M87.6924 0.75H89.7116V3.00225H87.6924V0.75Z" fill="#CCD9D9"/>
<path d="M94.3271 4.65625H96.3464V31.8334H94.3271V4.65625Z" fill="#CCD9D9"/>
<path d="M87.6924 4.65625H89.7116V31.8334H87.6924V4.65625Z" fill="#CCD9D9"/>
<path d="M80.7695 4.65625H82.7888V31.8334H80.7695V4.65625Z" fill="#CCD9D9"/>
<path d="M74.1348 4.65625H75.8655V31.8334H74.1348V4.65625Z" fill="#CCD9D9"/>
<path d="M67.2119 4.65625H69.2311V31.8334H67.2119V4.65625Z" fill="#CCD9D9"/>
<path d="M60.2881 4.65625H62.3073V31.8334H60.2881V4.65625Z" fill="#CCD9D9"/>
<path d="M53.6543 4.65625H55.6735V31.8334H53.6543V4.65625Z" fill="#CCD9D9"/>
<path d="M95.4805 0.75V31.6809" stroke="white" stroke-width="0.416233"/>
<path d="M88.5576 0.75V31.6809" stroke="white" stroke-width="0.416233"/>
<path d="M81.6348 0.75V31.6809" stroke="white" stroke-width="0.416233"/>
<path d="M75 0.75V31.6809" stroke="white" stroke-width="0.416233"/>
<path d="M68.0771 0.75V31.6809" stroke="white" stroke-width="0.416233"/>
<path d="M61.4424 0.75V31.6809" stroke="white" stroke-width="0.416233"/>
<path d="M54.5195 0.75V31.6809" stroke="white" stroke-width="0.416233"/>
<path d="M117.116 56.1593H122.885V128.231L119.712 134.538L113.366 140.243L104.423 144.898L93.4618 148.201L81.3464 150.003H68.6541L56.5387 148.201L45.5771 144.898L36.6348 140.243L30.2887 134.538L26.8271 128.231V56.1593H32.8848L36.0579 53.0061L43.2695 49.1022L50.7695 46.85L51.0579 31.2344H98.9425V46.85L106.443 49.1022L113.943 53.0061L117.116 56.1593Z" fill="#8C9999"/>
<path d="M114.23 56.1532H119.711V128.225L116.827 134.532L110.769 140.237L102.403 144.892L92.3073 148.195L81.0573 149.847H69.2304L57.6919 148.195L47.5958 144.892L39.2304 140.237L33.4612 134.532L30.2881 128.225V56.1532H36.0573L38.6535 53L45.5765 49.0961L52.4996 46.6937L52.7881 31.0781H97.4996V46.6937L104.423 49.0961L111.346 53L114.23 56.1532Z" fill="#919E9E"/>
<path d="M111.346 56.1532H116.25V128.225L113.654 134.532L108.173 140.237L100.385 144.892L91.1538 148.195L80.4808 149.847H69.5192L59.1346 148.195L49.9038 144.892L42.1154 140.237L36.6346 134.532L33.75 128.225V56.1532H38.9423L41.5385 53L47.8846 49.0961L54.2308 46.6937L54.5192 31.0781H95.7692V46.6937L102.115 49.0961L108.462 53L111.346 56.1532Z" fill="#96A3A3"/>
<path d="M108.173 56.1548H113.077V128.227L110.481 134.533L105.288 140.239L98.3652 144.894L89.7113 148.197L80.1921 149.848H70.0959L60.2882 148.197L51.9229 144.894L44.7113 140.239L39.519 134.533L36.9229 128.227V56.1548H41.8267L44.1344 53.0016L50.1921 49.0977L55.9613 46.6953H94.0382L99.8075 49.0977L105.865 53.0016L108.173 56.1548Z" fill="#9BA8A8"/>
<path d="M105.289 56.1548H109.616V128.227L107.308 134.533L102.692 140.239L96.3463 144.894L88.5578 148.197L79.6155 149.848H70.3848L61.7309 148.197L53.9425 144.894L47.3078 140.239L42.6925 134.533L40.3848 128.227V56.1548H44.7117L47.0194 53.0016L52.2117 49.0977L57.6925 46.6953H92.3078L97.7886 49.0977L103.269 53.0016L105.289 56.1548Z" fill="#A0ADAD"/>
<path d="M102.403 56.1548H106.442V128.227L104.134 134.533L100.096 140.239L94.3265 144.894L87.1149 148.197L79.3265 149.848H70.9611L62.8842 148.197L55.9611 144.894L49.9034 140.239L45.8649 134.533L43.8457 128.227V56.1548H47.5957L49.6149 53.0016L54.5188 49.0977L59.4226 46.6953H90.8649L95.7688 49.0977L100.384 53.0016L102.403 56.1548Z" fill="#A5B2B2"/>
<path d="M99.5195 56.1548H102.981V128.227L100.962 134.533L97.5003 140.239L92.308 144.894L85.9618 148.197L78.7503 149.848H71.5388L64.3272 148.197L57.9811 144.894L52.7888 140.239L49.0388 134.533L47.0195 128.227V56.1548H50.7695L52.5003 53.0016L56.5388 49.0977L61.1541 46.6953H89.1349L93.4618 49.0977L97.7888 53.0016L99.5195 56.1548Z" fill="#ABB8B8"/>
<path d="M96.6343 56.1548H99.5189V128.227L98.0766 134.533L94.9035 140.239L90.2882 144.894L84.5189 148.197L78.4612 149.848H71.8266L65.4805 148.197L59.9997 144.894L55.3843 140.239L52.2112 134.533L50.4805 128.227V56.1548H53.6535L55.0959 53.0016L58.8459 49.0977L62.5959 46.6953H87.4035L91.1535 49.0977L95.192 53.0016L96.6343 56.1548Z" fill="#ADBABA"/>
<path d="M93.7501 56.1548H96.3462V128.227L94.9039 134.533L92.0193 140.239L88.2693 144.894L83.3655 148.197L77.8847 149.848H72.4039L66.9232 148.197L62.0193 144.894L57.9808 140.239L55.3847 134.533L53.9424 128.227V56.1548H56.5385L57.6924 53.0016L61.1539 49.0977L64.327 46.6953H85.6732L89.1347 49.0977L92.3078 53.0016L93.7501 56.1548Z" fill="#B2BFBF"/>
<path d="M90.8652 56.1548H92.8845V128.227L91.7306 134.533L89.4229 140.239L85.9614 144.894L81.9229 148.197L77.3075 149.848H72.6922L68.0768 148.197L64.0383 144.894L60.8652 140.239L58.2691 134.533L57.1152 128.227V56.1548H59.4229L60.5768 53.0016L63.1729 49.0977L66.0575 46.6953H83.9422L86.8268 49.0977L89.7114 53.0016L90.8652 56.1548Z" fill="#B7C4C4"/>
<path d="M87.981 56.1548H89.7118V128.227L88.5579 134.533L86.8271 140.239L83.9425 144.894L80.7695 148.197L77.0195 149.848H73.2695L69.5195 148.197L66.0579 144.894L63.4618 140.239L61.4425 134.533L60.5771 128.227V56.1548H62.3079L63.1733 53.0016L65.481 49.0977L67.7887 46.6953H82.2118L84.5195 49.0977L86.8271 53.0016L87.981 56.1548Z" fill="#BCC9C9"/>
<path d="M84.8077 56.1548H86.25V128.227L85.6731 134.533L84.2308 140.239L81.9231 144.894L79.3269 148.197L76.4423 149.848H73.5577L70.6731 148.197L68.0769 144.894L66.0577 140.239L64.6154 134.533L63.75 128.227V56.1548H65.1923L66.0577 53.0016L67.7885 49.0977L69.5192 46.6953H80.7692L82.5 49.0977L84.2308 53.0016L84.8077 56.1548Z" fill="#C2CFCF"/>
<path d="M81.9235 56.1548H83.0773V128.227L82.5004 134.533L81.3465 140.239L79.9042 144.894L78.1735 148.197L76.1542 149.848H74.135L72.1158 148.197L70.385 144.894L68.6542 140.239L67.7888 134.533L67.2119 128.227V56.1548H68.0773L68.6542 53.0016L69.8081 49.0977L70.9619 46.6953H79.0388L80.1927 49.0977L81.3465 53.0016L81.9235 56.1548Z" fill="#C7D4D4"/>
<path d="M79.0386 56.1531H79.6155V128.225L79.3271 134.531L78.7501 140.237L77.8848 144.892L76.7309 148.195L75.5771 149.997H74.4232L73.2694 148.195L72.1155 144.892L71.2502 140.237L70.6732 134.531L70.3848 128.225V56.1531H70.9617L71.2502 52.9999L72.1155 49.096L72.6925 46.8438H77.3078L77.8848 49.096L78.7501 52.9999L79.0386 56.1531Z" fill="#CCD9D9"/>
<path d="M117.116 56.1593H122.885V128.231L119.712 134.538L113.366 140.243L104.423 144.898L93.4618 148.201L81.3464 150.003H68.6541L56.5387 148.201L45.5771 144.898L36.6348 140.243L30.2887 134.538L26.8271 128.231V56.1593H32.8848L36.0579 53.0061L43.2695 49.1022L50.7695 46.85L51.0579 31.2344H98.9425V46.85L106.443 49.1022L113.943 53.0061L117.116 56.1593Z" stroke="black" stroke-width="0.416233"/>
<path d="M28.5576 128.828H121.442" stroke="#E5F2F2" stroke-width="0.416233"/>
<path d="M28.5576 87.5391H121.442" stroke="#E5F2F2" stroke-width="0.416233"/>
<path d="M28.5576 68.7656H121.442" stroke="#E5F2F2" stroke-width="0.416233"/>
<path d="M30 71.1719H120" stroke="#8C9999" stroke-width="0.416233"/>
<path d="M30 89.9375H120" stroke="#8C9999" stroke-width="0.416233"/>
<path d="M30 131.234H120" stroke="#8C9999" stroke-width="0.416233"/>
<path d="M34.3271 56.1562H115.385" stroke="black" stroke-width="0.416233"/>
<path d="M37.5 56.1562V53.003H36.0577V50H30V53.003L34.3269 56.1562H37.5Z" fill="#8C9999" stroke="black" stroke-width="0.416233"/>
<path d="M49.3271 56.1562V53.003H47.8848V50H41.8271V53.003L46.4425 56.1562H49.3271Z" fill="#8C9999" stroke="black" stroke-width="0.416233"/>
<path d="M61.4424 56.1562V53.003H60.0001V50H53.9424V53.003L58.5578 56.1562H61.4424Z" fill="#8C9999" stroke="black" stroke-width="0.416233"/>
<path d="M73.5576 56.1562V53.003H72.1153V50H66.0576V53.003L70.3845 56.1562H73.5576Z" fill="#8C9999" stroke="black" stroke-width="0.416233"/>
<path d="M85.3848 56.1562V53.003H83.9425V50H77.8848V53.003L82.5002 56.1562H85.3848Z" fill="#8C9999" stroke="black" stroke-width="0.416233"/>
<path d="M97.5 56.1562V53.003H96.0577V50H90V53.003L94.6154 56.1562H97.5Z" fill="#8C9999" stroke="black" stroke-width="0.416233"/>
<path d="M109.327 56.1562V53.003H107.885V50H101.827V53.003L106.443 56.1562H109.327Z" fill="#8C9999" stroke="black" stroke-width="0.416233"/>
<path d="M121.442 56.1562V53.003H120V50H113.942V53.003L118.558 56.1562H121.442Z" fill="#8C9999" stroke="black" stroke-width="0.416233"/>
<path d="M112.5 53H118.558V56.1532H112.5V53Z" fill="#CCD9D9" stroke="black" stroke-width="0.416233"/>
<path d="M100.385 53H106.442V56.1532H100.385V53Z" fill="#CCD9D9" stroke="black" stroke-width="0.416233"/>
<path d="M88.5576 53H94.6153V56.1532H88.5576V53Z" fill="#CCD9D9" stroke="black" stroke-width="0.416233"/>
<path d="M76.4424 53H82.5001V56.1532H76.4424V53Z" fill="#CCD9D9" stroke="black" stroke-width="0.416233"/>
<path d="M64.6152 53H70.6729V56.1532H64.6152V53Z" fill="#CCD9D9" stroke="black" stroke-width="0.416233"/>
<path d="M52.5 53H58.5577V56.1532H52.5V53Z" fill="#CCD9D9" stroke="black" stroke-width="0.416233"/>
<path d="M40.3848 53H46.4425V56.1532H40.3848V53Z" fill="#CCD9D9" stroke="black" stroke-width="0.416233"/>
<path d="M28.5576 53H34.6153V56.1532H28.5576V53Z" fill="#CCD9D9" stroke="black" stroke-width="0.416233"/>
<path d="M2.88477 84.2327V73.4219" stroke="#727F7F" stroke-width="0.416233"/>
<path d="M100.961 71.9236L104.423 72.2239L113.654 75.0767L117.404 78.0797L125.192 80.4821L126.346 82.5842L118.846 89.341L114.807 89.7915L107.019 87.5392L100.096 87.3891L90.8652 84.5362L88.269 83.1848L86.5382 81.5332L85.6729 79.8815V77.9296L86.5382 76.1278L88.269 74.4761L90.8652 73.2749L94.0382 72.374L97.4998 71.7734L100.961 71.9236Z" fill="#727F7F" stroke="black" stroke-width="0.416233"/>
<path d="M55.6732 83.1848L53.3655 84.5362L43.8463 87.3891L37.2117 87.5392L29.4232 89.7915L25.3848 89.341L17.8848 82.4341L18.7502 80.332L26.8271 78.0797L30.2886 75.0767L39.8078 72.2239L42.9809 71.7734H46.7309L50.1925 72.2239L53.3655 73.2749L55.6732 74.4761L57.6925 76.1278L58.5578 77.9296V79.7314L57.404 81.5332L55.6732 83.1848Z" fill="#727F7F" stroke="black" stroke-width="0.416233"/>
<path d="M98.3652 71.9219H100.096L113.077 75.8258L116.538 78.5285L124.615 80.9309L125.769 82.8828L119.134 88.8888L115.096 89.3393L107.307 87.087L100.673 86.7867L87.9805 82.8828L87.1152 82.1321L86.5382 80.9309L85.6729 79.4294V77.7777L86.5382 76.1261L88.269 74.6246L90.5767 73.4234L93.1729 72.5225L96.3459 72.2222L98.3652 71.9219Z" fill="#7D8A8A"/>
<path d="M57.1152 81.9836L56.2498 82.7344L43.269 86.6383L36.6344 86.9386L28.8459 89.341L24.8075 88.8906L18.1729 82.7344L19.3267 80.7824L27.1152 78.38L31.1536 75.6773L43.8459 71.7734H45.5767L47.8844 72.0737L50.769 72.5242L53.6536 73.4251L55.9613 74.4761L57.4036 75.9776L58.269 77.6293V79.2809L57.4036 80.9326L57.1152 81.9836Z" fill="#7D8A8A"/>
<path d="M96.0575 71.9219H97.4998L112.211 76.4264L116.25 78.9789L124.038 81.3813L125.481 83.1831L119.423 88.5885L115.673 88.8888L107.884 86.6366L101.538 86.1861L86.8267 81.6816L86.2498 81.081L85.6729 80.1801L85.9613 78.9789V77.4774L86.5382 75.9759L87.9805 74.7747L89.9998 73.7237L92.3075 72.8228L94.3267 72.2222L96.0575 71.9219Z" fill="#899696"/>
<path d="M57.6927 80.9326L57.4042 81.5332L42.6927 86.0377L36.0581 86.4882L28.2696 88.8906L24.5196 88.5903L18.4619 83.0347L19.9042 81.2329L27.6927 78.9806L31.7311 76.2779L46.4427 71.7734L47.5965 71.9236L49.6158 72.2239L51.635 72.8245L53.9427 73.5752L55.9619 74.6263L57.4042 75.9776L57.9811 77.329L58.2696 78.8305V80.0317L57.6927 80.9326Z" fill="#899696"/>
<path d="M94.6152 72.2188H95.769L111.634 77.0236L115.673 79.426L123.461 81.8284L124.904 83.48L119.711 88.2848L115.961 88.5851L108.173 86.1827L101.827 85.5821L86.2498 80.7773L85.6729 80.3269V79.426V78.3749L85.9613 77.1737L86.8267 75.9725L87.9805 74.7713L89.9998 73.8704L91.4421 73.1197L93.4613 72.5191L94.6152 72.2188Z" fill="#94A1A1"/>
<path d="M58.2689 80.1784L57.9804 80.6289L41.8265 85.4337L35.7689 86.0343L27.6919 88.4367L24.2304 88.1364L19.0381 83.4817L20.4804 81.6799L28.2689 79.2775L32.3073 76.8751L48.4612 72.0703H49.3265L50.7689 72.3706L52.4996 72.9712L54.2304 73.722L55.9612 74.6229L57.4035 75.8241L57.9804 77.0253L58.2689 78.2265V79.4277V80.1784Z" fill="#94A1A1"/>
<path d="M93.4613 72.5252L94.0382 72.375L111.057 77.4801L115.096 79.8825L122.884 82.2849L124.615 83.9366L120 87.9906H116.538L108.75 85.7384L102.692 84.8375L85.6729 79.7324V79.4321V78.8315V77.9306L86.2498 76.8795L86.8267 75.8285L87.9805 74.7774L89.4229 74.0267L90.8652 73.2759L92.3075 72.8255L93.4613 72.5252Z" fill="#A0ADAD"/>
<path d="M58.2695 79.4321V79.7324L41.2502 84.8375L35.1925 85.5882L27.4041 87.8405H23.9425L19.3271 83.7864L21.0579 82.1348L28.8464 79.8825L33.1733 77.4801L50.1925 72.375L50.7695 72.5252L51.9233 72.8255L53.0771 73.2759L54.5195 74.0267L56.2502 74.7774L57.4041 75.8285L57.6925 76.8795L58.2695 77.9306V78.6813V79.4321Z" fill="#A0ADAD"/>
<path d="M92.3075 72.8203H92.5959L110.192 78.0756L114.519 80.478L122.596 82.7302L124.327 84.2317L120.577 87.6852L117.115 87.535L109.327 85.1326L103.557 84.2317L85.9613 78.9765L85.6729 78.6762V78.2257L86.2498 77.6251V76.5741L86.8267 75.8233L87.9805 74.9224L89.1344 74.3218L90.5767 73.7212L91.1536 73.2708L92.3075 72.8203Z" fill="#ABB8B8"/>
<path d="M58.2691 78.6762V78.9765L40.6729 84.2317L34.6152 85.1326L26.8268 87.3849L23.3652 87.535L19.6152 84.0816L21.346 82.7302L29.4229 80.3278L33.7498 78.0756L51.346 72.8203H51.9229L52.7883 73.1206L53.6537 73.7212L55.096 74.1717L56.2499 74.9224L57.1152 75.6732L57.6922 76.5741V77.475L58.2691 78.0756V78.6762Z" fill="#ABB8B8"/>
<path d="M91.1536 73.4236V73.2734L109.615 78.6788L113.942 80.9311L122.019 83.1833L124.038 84.5347L120.865 87.3876L117.692 87.0873L109.904 84.6848L104.134 83.7839L85.6729 78.2284L85.9613 78.0782V77.6278L86.2498 77.1773L86.5382 76.4266L86.8267 75.6758L87.6921 74.9251L88.5575 74.4746L89.7113 74.0242L90.5767 73.7239L91.1536 73.4236Z" fill="#B7C4C4"/>
<path d="M57.9812 77.9298L58.2697 78.08L39.8081 83.6355L34.0389 84.5364L26.2505 86.9388L23.0774 87.2391L19.9043 84.3863L21.9235 83.1851L29.712 80.7827L34.3274 78.6806L52.7889 73.125V73.2752L53.6543 73.5755L54.2312 73.8758L55.3851 74.3262L56.2505 74.9268L57.1158 75.6776L57.4043 76.2782L57.6928 77.0289L57.9812 77.4794V77.9298Z" fill="#B7C4C4"/>
<path d="M90.0004 73.8767L90.2888 73.7266L109.039 79.2821L113.654 81.3842L121.443 83.6365L123.462 84.8377L121.154 86.9398L118.27 86.6395L110.481 84.2371L104.712 83.186L85.9619 77.4803L86.2504 77.3302L86.5388 77.18V76.7296V76.129L86.8273 75.6785L87.6927 75.2281L88.2696 74.6275L89.135 74.3272L89.7119 74.177L90.0004 73.8767Z" fill="#C2CFCF"/>
<path d="M57.692 77.3241L57.9805 77.4742L39.2305 83.0298L33.4612 84.231L25.6728 86.4832L22.7882 86.7835L20.4805 84.8316L22.4997 83.6304L30.2882 81.228L34.9035 79.276L53.6535 73.5703L53.942 73.7205L54.2305 74.0208L54.8074 74.1709L55.6728 74.6214L56.5382 74.9217L57.1151 75.5223L57.4035 75.9727V76.5733V77.0238L57.692 77.3241Z" fill="#C2CFCF"/>
<path d="M89.4227 74.4722V74.1719L108.173 79.8776L113.077 81.8295L121.153 84.0818L123.173 85.1328L121.442 86.6343L118.557 86.1839L110.769 83.7815L105.288 82.5803L86.5381 76.8746H86.8265L86.5381 76.5743L86.8265 76.274V75.8235L87.115 75.5232L87.6919 75.2229L87.9804 74.9226L88.5573 74.6223L88.8458 74.4722H89.4227Z" fill="#CEDBDB"/>
<path d="M57.1157 76.7244H57.6926L38.6541 82.4301L33.1734 83.6313L25.0965 86.0337L22.5003 86.4842L20.7695 85.1328L23.0772 84.0818L30.8657 81.6794L35.7695 79.8776L54.808 74.1719L54.5195 74.322H55.0965L55.6734 74.6223L55.9618 74.7725L56.5388 75.0728L56.8272 75.3731L57.1157 75.8235L57.4041 76.1238V76.4241L57.1157 76.7244Z" fill="#CEDBDB"/>
<path d="M57.4038 75.9764L37.7884 81.8322L32.5961 83.3337L24.8076 85.586L21.923 86.3367L21.0576 85.4358L23.6538 84.5349L31.4422 82.2827L36.3461 80.4809L55.673 74.625H55.9615L56.2499 74.7752V74.9253V75.0755L56.5384 75.2256L56.8268 75.3758V75.5259L57.1153 75.8262H57.4038V75.9764Z" fill="#D8E5E5"/>
<path d="M87.981 74.625H88.2695L107.596 80.4809L112.789 82.2827L120.577 84.6851L122.885 85.586L122.019 86.3367L119.423 85.7361L111.635 83.3337L106.154 81.9824L86.8271 75.9764L87.1156 75.8262V75.6761L87.4041 75.3758L87.6925 75.2256V75.0755L87.981 74.9253V74.7752V74.625Z" fill="#D8E5E5"/>
<path d="M125.193 80.3281L114.52 89.7876" stroke="#727F7F" stroke-width="0.416233"/>
<path d="M113.653 75.0781L100.096 87.3904" stroke="#727F7F" stroke-width="0.416233"/>
<path d="M117.404 78.0781L107.02 87.5376" stroke="#727F7F" stroke-width="0.416233"/>
<path d="M29.4227 89.7876L19.0381 80.3281" stroke="#727F7F" stroke-width="0.416233"/>
<path d="M43.8458 87.3904L30.2881 75.0781" stroke="#727F7F" stroke-width="0.416233"/>
<path d="M37.2112 87.3874L26.5381 78.0781" stroke="#727F7F" stroke-width="0.416233"/>
</g>
<defs>
<clipPath id="clip0_2109_214188">
<rect width="150" height="150" fill="white"/>
</clipPath>
</defs>
</svg>
