<svg width="150" height="150" viewBox="0 0 150 150" fill="none" xmlns="http://www.w3.org/2000/svg">
<g clip-path="url(#clip0_2109_214799)">
<path d="M68.1818 9.00901V1.2012H61.8506V0H80.8441V1.2012H74.9999V9.00901H68.1818Z" fill="#3F4C4C" stroke="black" stroke-width="0.540833"/>
<path d="M93.994 148.652L78.8966 150.003H63.3121L48.2147 148.652L35.0654 146.4L23.8641 142.946L16.0719 138.892L12.1758 134.238V28.682L16.0719 18.0213L23.8641 12.1655L34.5784 8.11142L48.2147 5.70901L63.3121 4.50781H78.8966L93.994 5.70901L107.143 8.11142L118.345 12.1655L126.137 18.0213L130.033 28.682V134.238L126.137 138.892L118.345 142.946L107.143 146.4L93.994 148.652Z" fill="#596666"/>
<path d="M92.0456 148.646L78.4092 149.847H64.2859L50.1625 148.646L37.9872 146.243L27.7599 142.94L20.4547 138.736L16.5586 134.081V28.6759L20.4547 18.0152L27.7599 12.1594L37.5002 8.10532L50.1625 5.55276L64.2859 4.35156H78.4092L92.0456 5.55276L104.708 8.10532L114.935 12.1594L121.753 18.0152L125.65 28.6759V134.081L122.24 138.736L114.935 142.94L104.708 146.243L92.0456 148.646Z" fill="#637070"/>
<path d="M90.5843 148.646L77.9219 149.847H64.7726L51.6232 148.646L40.4219 146.243L31.1687 142.94L24.3505 138.736L20.9414 134.081V28.6759L24.3505 18.0152L31.1687 12.1594L40.4219 8.10532L51.6232 5.55276L64.7726 4.35156H77.9219L90.5843 5.55276L101.786 8.10532L111.526 12.1594L117.857 18.0152L121.266 28.6759V134.081L118.344 138.736L111.526 142.94L101.786 146.243L90.5843 148.646Z" fill="#6D7A7A"/>
<path d="M89.1229 148.646L77.4346 149.847H65.2593L53.571 148.646L43.3437 146.243L34.5775 142.94L28.7333 138.736L25.3242 134.081V28.6759L28.7333 18.0152L34.5775 12.1594L42.8567 8.10532L53.571 5.55276L65.2593 4.35156H77.4346L89.1229 5.55276L99.3502 8.10532L108.116 12.1594L113.961 18.0152L116.883 28.6759V134.081L113.961 138.736L108.116 142.94L99.3502 146.243L89.1229 148.646Z" fill="#788585"/>
<path d="M87.1755 148.646L76.4613 149.847H65.747L55.5197 148.646L45.7794 146.243L37.9872 142.94L32.6301 138.736L29.708 134.081V28.6759L32.6301 18.0152L37.9872 12.1594L45.2924 8.10532L55.5197 5.55276L65.747 4.35156H76.4613L87.1755 5.55276L96.9158 8.10532L104.708 12.1594L110.065 18.0152L112.987 28.6759V134.081L110.065 138.736L104.708 142.94L96.9158 146.243L87.1755 148.646Z" fill="#7F8C8C"/>
<path d="M85.7142 148.646L75.9739 149.847H66.2337L56.9804 148.646L48.7012 146.243L41.396 142.94L36.5259 138.736L34.0908 134.081V28.6759L36.5259 18.0152L41.396 12.1594L48.2142 8.10532L56.9804 5.55276L66.2337 4.35156H75.9739L85.7142 5.55276L93.9934 8.10532L101.299 12.1594L106.169 18.0152L108.604 28.6759V134.081L106.169 138.736L101.299 142.94L93.9934 146.243L85.7142 148.646Z" fill="#899696"/>
<path d="M83.7658 148.646L75.4866 149.847H67.2074L58.4412 148.646L51.136 146.243L44.8048 142.94L40.4217 138.736L38.4736 134.081V28.6759L40.4217 18.0152L44.8048 12.1594L50.649 8.10532L58.4412 5.70291L67.2074 4.35156H75.4866L83.7658 5.70291L91.558 8.10532L97.8892 12.1594L101.785 18.0152L104.22 28.6759V134.081L101.785 138.736L97.8892 142.94L91.558 146.243L83.7658 148.646Z" fill="#94A1A1"/>
<path d="M82.3055 148.646L75.0003 149.847H67.6951L60.3899 148.646L54.0587 146.243L48.2146 142.94L44.8055 138.736L42.8574 134.081V28.6759L44.8055 18.0152L48.2146 12.1594L53.5717 8.10532L60.3899 5.70291L67.6951 4.35156H75.0003L82.3055 5.70291L88.6366 8.10532L93.9938 12.1594L97.8899 18.0152L99.8379 28.6759V134.081L97.8899 138.736L93.9938 142.94L88.6366 146.243L82.3055 148.646Z" fill="#9EABAB"/>
<path d="M80.8438 148.646L74.5127 149.847H68.1815L61.8503 148.646L56.4932 146.243L52.1101 142.79L48.701 138.736L46.7529 134.081V28.6759L48.701 18.0152L52.1101 12.1594L56.4932 7.95517L61.8503 5.70291L68.1815 4.35156H74.5127L80.8438 5.70291L86.201 7.95517L90.5841 12.1594L93.9932 18.0152L95.4542 28.6759V134.081L93.9932 138.736L90.5841 142.79L86.201 146.243L80.8438 148.646Z" fill="#A8B5B5"/>
<path d="M78.8965 148.646L74.0263 149.847H68.6692L63.7991 148.646L59.4159 146.243L55.5198 142.79L52.5978 138.736L51.1367 134.081V28.6759L52.5978 18.0152L55.5198 12.1594L58.9289 7.95517L63.7991 5.70291L68.6692 4.35156H74.0263L78.8965 5.70291L83.2796 7.95517L87.1757 12.1594L89.6107 18.0152L91.0718 28.6759V134.081L90.0978 138.736L87.1757 142.79L83.2796 146.243L78.8965 148.646Z" fill="#B2BFBF"/>
<path d="M71.1039 149.697C79.711 149.697 86.6884 117.16 86.6884 77.0242C86.6884 36.8882 79.711 4.35156 71.1039 4.35156C62.4969 4.35156 55.5195 36.8882 55.5195 77.0242C55.5195 117.16 62.4969 149.697 71.1039 149.697Z" fill="#BAC7C7"/>
<path d="M71.1039 149.697C77.0213 149.697 81.8182 117.16 81.8182 77.0242C81.8182 36.8882 77.0213 4.35156 71.1039 4.35156C65.1866 4.35156 60.3896 36.8882 60.3896 77.0242C60.3896 117.16 65.1866 149.697 71.1039 149.697Z" fill="#C4D1D1"/>
<path d="M71.1043 149.697C74.8699 149.697 77.9225 117.16 77.9225 77.0242C77.9225 36.8882 74.8699 4.35156 71.1043 4.35156C67.3387 4.35156 64.2861 36.8882 64.2861 77.0242C64.2861 117.16 67.3387 149.697 71.1043 149.697Z" fill="#CEDBDB"/>
<path d="M71.104 149.853C72.4489 149.853 73.5391 117.316 73.5391 77.1805C73.5391 37.0445 72.4489 4.50781 71.104 4.50781C69.7592 4.50781 68.6689 37.0445 68.6689 77.1805C68.6689 117.316 69.7592 149.853 71.104 149.853Z" fill="#D8E5E5"/>
<path d="M0 93.0938H12.1753V95.346H0V93.0938Z" fill="#BFCCCC"/>
<path d="M0 90.0938H12.1753V93.0968H0V90.0938Z" fill="#8C9999"/>
<path d="M0 90.0938H12.1753V95.349H0V90.0938Z" stroke="black" stroke-width="0.540833"/>
<path d="M130.032 93.0938H142.208V95.346H130.032V93.0938Z" fill="#BFCCCC"/>
<path d="M130.032 90.0938H142.208V93.0968H130.032V90.0938Z" fill="#8C9999"/>
<path d="M130.032 90.0938H142.208V95.349H130.032V90.0938Z" stroke="black" stroke-width="0.540833"/>
<path d="M105.682 95.349L100.812 93.0968V90.0938H95.9414V93.0968L91.0713 95.349H105.682Z" fill="#727F7F"/>
<path d="M91.0718 95.346L95.9419 93.0938H88.6367L83.7666 95.346H91.0718Z" fill="#BFCCCC"/>
<path d="M95.9419 90.0938H88.6367V93.0968H95.9419V90.0938Z" fill="#A5B2B2"/>
<path d="M105.682 95.349L100.812 93.0968V90.0938H88.6367V93.0968L83.7666 95.349H105.682Z" stroke="#3F4C4C" stroke-width="0.540833"/>
<path d="M36.5264 95.349L41.3965 93.0968V90.0938H46.7536V93.0968L51.6238 95.349H36.5264Z" fill="#727F7F"/>
<path d="M51.1367 95.346L46.2666 93.0938H54.0588L58.9289 95.346H51.1367Z" fill="#A5B2B2"/>
<path d="M46.2666 90.0938H54.0588V93.0968H46.2666V90.0938Z" fill="#8C9999"/>
<path d="M36.5264 95.349L41.3965 93.0968V90.0938H54.0588V93.0968L58.929 95.349H36.5264Z" stroke="#3F4C4C" stroke-width="0.540833"/>
<path d="M12.1758 133.18H130.033" stroke="#BFCCCC" stroke-width="0.540833"/>
<path d="M14.6104 134.688H127.597" stroke="#BFCCCC" stroke-width="0.540833"/>
<path d="M127.597 24.1719H14.6104" stroke="#BFCCCC" stroke-width="0.540833"/>
<path d="M127.597 22.6719H14.6104" stroke="#BFCCCC" stroke-width="0.540833"/>
<path d="M93.994 148.652L78.8966 150.003H63.3121L48.7018 148.652L35.0654 146.25L23.8641 142.946L16.0719 138.742L12.1758 134.087V28.682L16.0719 18.0213L23.8641 12.1655L35.0654 8.11142L48.2147 5.70901L63.3121 4.50781H78.8966L93.994 5.70901L107.143 8.11142L118.345 12.1655L126.137 18.0213L130.033 28.682V134.087L126.137 138.742L118.345 142.946L107.143 146.25L93.994 148.652Z" stroke="black" stroke-width="0.540833"/>
<path d="M130.032 118.766H139.772V119.817H146.591V121.919H149.513V127.925H146.591V129.877H139.772V130.928H130.032V118.766Z" fill="#596666"/>
<path d="M130.032 119.82H139.772V120.571H146.591V122.223H150V127.478H146.591V129.13H139.772V130.031H130.032V119.82Z" fill="#6D7A7A"/>
<path d="M130.032 120.57H139.772V121.321H146.591V122.823H150V126.877H146.591V128.378H139.772V129.129H130.032V120.57Z" fill="#849191"/>
<path d="M130.032 121.625H139.772V122.075H146.591V123.277H150V126.43H146.591V127.631H139.772V128.081H130.032V121.625Z" fill="#99A6A6"/>
<path d="M130.032 122.523H139.772V122.824H146.591V123.725H150V126.127H146.591V126.878H139.772V127.178H130.032V122.523Z" fill="#ADBABA"/>
<path d="M130.032 123.422H139.772V123.572H146.591V124.173H150V125.524H146.591V126.125H139.772V126.275H130.032V123.422Z" fill="#C4D1D1"/>
<path d="M139.772 125.229C145.152 125.229 149.513 125.027 149.513 124.779C149.513 124.53 145.152 124.328 139.772 124.328C134.393 124.328 130.032 124.53 130.032 124.779C130.032 125.027 134.393 125.229 139.772 125.229Z" fill="#D8E5E5"/>
<path d="M139.772 129.88V119.82" stroke="#596666" stroke-width="0.540833"/>
<path d="M146.591 127.928V121.922" stroke="#596666" stroke-width="0.540833"/>
<path d="M130.032 118.766H139.772V119.817H146.591V121.919H149.513V127.925H146.591V129.877H139.772V130.928H130.032V118.766Z" stroke="black" stroke-width="0.540833"/>
<path d="M20.4545 125.828C23.6821 125.828 26.2987 123.072 26.2987 119.672C26.2987 116.272 23.6821 113.516 20.4545 113.516C17.2269 113.516 14.6104 116.272 14.6104 119.672C14.6104 123.072 17.2269 125.828 20.4545 125.828Z" fill="#596666" stroke="black" stroke-width="0.540833"/>
<path d="M11.6885 115.164V124.323" stroke="#596666" stroke-width="0.540833"/>
<path d="M5.35742 116.969V122.524" stroke="#596666" stroke-width="0.540833"/>
<path d="M21.9161 124.926L20.942 125.227H11.2018V124.176H5.84464V122.524H2.43555V116.968H5.84464V115.317H11.2018V114.266H20.942L21.9161 114.566L22.8901 115.317L23.8641 116.368L24.3511 117.569L24.8381 119.07V120.422L24.3511 121.773L23.8641 123.124L22.8901 124.176L21.9161 124.926Z" fill="#596666"/>
<path d="M22.4031 124.025L21.4291 124.325H11.6888V123.424H5.84464V122.073H2.43555V117.418H5.84464V115.917H11.6888V115.016H21.4291L22.4031 115.466L23.3771 115.917L23.8641 116.968L24.8381 117.868V119.07V120.271V121.472L23.8641 122.523L23.3771 123.424L22.4031 124.025Z" fill="#6D7A7A"/>
<path d="M22.8901 123.271L22.4031 123.422H12.1758V122.821H6.33165V121.62H2.43555V117.866H6.33165V116.665H12.1758V115.914H22.4031L22.8901 116.214L23.8641 116.665L24.3511 117.416L24.8381 118.316V119.217V120.268V121.169L24.3511 122.07L23.8641 122.821L22.8901 123.271Z" fill="#849191"/>
<path d="M23.3771 122.376L22.8901 122.676H12.6628V122.076H6.33165V121.175H2.43555V118.322H6.33165V117.271H12.6628V116.82H22.8901L23.3771 116.97L23.8641 117.421L24.3511 117.871L24.8381 118.622V119.373V120.124V120.874L24.3511 121.475L23.8641 122.076L23.3771 122.376Z" fill="#99A6A6"/>
<path d="M23.8641 121.624L23.3771 121.775H13.1498V121.474H6.81866V120.723H2.43555V118.621H6.81866V118.021H13.1498V117.57H23.3771L23.8641 117.72L24.3511 118.021L24.8381 118.471V118.922V119.522V119.973V120.423V121.024L24.3511 121.324L23.8641 121.624Z" fill="#ADBABA"/>
<path d="M13.6368 120.871C19.8232 120.871 24.8381 120.333 24.8381 119.67C24.8381 119.007 19.8232 118.469 13.6368 118.469C7.45054 118.469 2.43555 119.007 2.43555 119.67C2.43555 120.333 7.45054 120.871 13.6368 120.871Z" fill="#C4D1D1"/>
<path d="M13.6368 119.968C19.8232 119.968 24.8381 119.833 24.8381 119.667C24.8381 119.502 19.8232 119.367 13.6368 119.367C7.45054 119.367 2.43555 119.502 2.43555 119.667C2.43555 119.833 7.45054 119.968 13.6368 119.968Z" fill="#D8E5E5"/>
<path d="M21.9161 124.926L20.942 125.227H11.2018V124.176H5.84464V122.524H2.43555V116.968H5.84464V115.317H11.2018V114.266H20.942L21.9161 114.566L22.8901 115.317L23.8641 116.368L24.3511 117.569L24.8381 119.07V120.422L24.3511 121.773L23.8641 123.124L22.8901 124.176L21.9161 124.926Z" stroke="black" stroke-width="0.540833"/>
<path d="M5.84375 116.969L6.33076 117.119V117.569L6.81778 118.02V118.62V119.371V120.122V120.723V121.473L6.33076 121.924V122.224L5.84375 122.524" stroke="#727F7F" stroke-width="0.540833"/>
<path d="M11.2012 115.312L12.1752 115.613L12.6622 116.213L13.1492 116.964L13.6362 118.015V119.066V120.267V121.469L13.1492 122.52L12.6622 123.27L12.1752 123.871L11.2012 124.171" stroke="#727F7F" stroke-width="0.540833"/>
<path d="M45.2924 9.00901V1.2012H39.4482V0H58.4417V1.2012H52.1106V9.00901H45.2924Z" fill="#727F7F"/>
<path d="M47.7275 9.00901V0H58.4418V1.2012H49.6756V9.00901H47.7275Z" fill="#BFCCCC"/>
<path d="M45.2924 9.00901V1.2012H39.4482V0H58.4417V1.2012H52.1106V9.00901H45.2924Z" stroke="black" stroke-width="0.540833"/>
<path d="M90.5841 9.00901V1.2012H84.2529V0H103.246V1.2012H96.9153V9.00901H90.5841Z" fill="#727F7F"/>
<path d="M92.5322 9.00901V0H103.247V1.2012H94.4803V9.00901H92.5322Z" fill="#BFCCCC"/>
<path d="M90.5841 9.00901V1.2012H84.2529V0H103.246V1.2012H96.9153V9.00901H90.5841Z" stroke="black" stroke-width="0.540833"/>
<path d="M34.0913 21.171C38.1259 21.171 41.3965 19.961 41.3965 18.4683C41.3965 16.9757 38.1259 15.7656 34.0913 15.7656C30.0568 15.7656 26.7861 16.9757 26.7861 18.4683C26.7861 19.961 30.0568 21.171 34.0913 21.171Z" fill="#8C9999"/>
<path d="M100.325 16.6632C104.359 16.6632 107.63 15.4532 107.63 13.9605C107.63 12.4679 104.359 11.2578 100.325 11.2578C96.2902 11.2578 93.0195 12.4679 93.0195 13.9605C93.0195 15.4532 96.2902 16.6632 100.325 16.6632Z" fill="#8C9999"/>
</g>
<defs>
<clipPath id="clip0_2109_214799">
<rect width="150" height="150" fill="white"/>
</clipPath>
</defs>
</svg>
