<svg width="150" height="150" viewBox="0 0 150 150" fill="none" xmlns="http://www.w3.org/2000/svg">
<g clip-path="url(#clip0_2109_213782)">
<path d="M25.8262 110.946H124.024V29.2891H25.8262V110.946Z" fill="#669966"/>
<path d="M15.1654 32.8372C16.7409 32.8372 18.0182 25.287 18.0182 15.9733C18.0182 6.6596 16.7409 -0.890625 15.1654 -0.890625C13.5898 -0.890625 12.3125 6.6596 12.3125 15.9733C12.3125 25.287 13.5898 32.8372 15.1654 32.8372Z" fill="#B2B2B2" stroke="black" stroke-width="0.730122"/>
<path d="M5.55566 36.3906H26.4265V93.1954H5.55566V36.3906Z" fill="#99CC99" stroke="black" stroke-width="0.730122"/>
<path d="M25.8262 124.259H124.024V29.2891H25.8262V124.259Z" fill="#99CC99"/>
<path d="M122.673 57.6953H143.544V114.5H122.673V57.6953Z" fill="#4C7F4C"/>
<path d="M122.673 57.6953H143.544V95.861H122.673V57.6953Z" fill="#669966"/>
<path d="M122.673 57.6953H143.544V89.648H122.673V57.6953Z" fill="#73A673"/>
<path d="M122.673 57.6953H143.544V84.3225H122.673V57.6953Z" fill="#7FB27F"/>
<path d="M122.673 57.6953H143.544V78.9971H122.673V57.6953Z" fill="#8CBF8C"/>
<path d="M122.673 57.6953H143.544V73.6716H122.673V57.6953Z" fill="#99CC99"/>
<path d="M122.673 57.6953H143.544V68.3462H122.673V57.6953Z" fill="#A6D9A6"/>
<path d="M122.673 57.6953H143.544V62.1332H122.673V57.6953Z" fill="#B2E5B2"/>
<path d="M143.544 88.7578H150V114.497H143.544V88.7578Z" fill="#669966"/>
<path d="M143.544 88.7578H150V93.1957H143.544V88.7578Z" fill="#B2E5B2"/>
<path d="M122.673 57.6953H143.544V114.5H122.673V57.6953Z" stroke="black" stroke-width="0.730122"/>
<path d="M143.544 88.7578H150V114.497H143.544V88.7578Z" stroke="black" stroke-width="0.730122"/>
<path d="M124.324 47.9297H130.631V90.5332H124.324V47.9297Z" fill="#73A673"/>
<path d="M124.324 47.9297H130.631V50.5924H124.324V47.9297Z" fill="#B2E5B2"/>
<path d="M124.324 57.693V47.9297H130.631V57.693" stroke="black" stroke-width="0.730122"/>
<path d="M122.223 114.5H150V141.127H122.223V114.5Z" fill="#9999FF"/>
<path d="M122.223 133.135L150 122.484V141.123H122.223V133.135Z" fill="#9494FA"/>
<path d="M122.223 134.026L150 123.375V141.126H122.223V134.026Z" fill="#8F8FF5"/>
<path d="M122.223 135.799L150 125.148V141.125H122.223V135.799Z" fill="#8A8AF0"/>
<path d="M122.223 114.5H150V141.127H122.223V114.5Z" stroke="black" stroke-width="0.730122"/>
<path d="M0 75.4453H8.70871V135.8H0V75.4453Z" fill="#99CC99"/>
<path d="M0 118.047L8.70871 93.1953V135.799H0V118.047Z" fill="#94C794"/>
<path d="M0 120.711L8.70871 95.8594V135.8H0V120.711Z" fill="#8FC28F"/>
<path d="M0 125.146L8.70871 99.4062V135.797H0V125.146Z" fill="#8ABD8A"/>
<path d="M0 75.4453H8.70871V135.8H0V75.4453Z" stroke="black" stroke-width="0.730122"/>
<path d="M50.4502 3.54688H60.5103V43.4877H50.4502V3.54688Z" fill="#99CC99"/>
<path d="M12.9131 3.54688H17.4176V37.2747H12.9131V3.54688Z" fill="#7F7F7F"/>
<path d="M13.3633 3.54688H16.9669V37.2747H13.3633V3.54688Z" fill="#999999"/>
<path d="M13.8135 3.54688H16.5162V37.2747H13.8135V3.54688Z" fill="#B2B2B2"/>
<path d="M14.2646 3.54688H16.0665V37.2747H14.2646V3.54688Z" fill="#CCCCCC"/>
<path d="M14.7148 3.54688H15.6157V37.2747H14.7148V3.54688Z" fill="#E5E5E5"/>
<path d="M12.9131 3.54688H17.4176V37.2747H12.9131V3.54688Z" stroke="black" stroke-width="0.730122"/>
<path d="M81.6816 3.54688H91.7417V43.4877H81.6816V3.54688Z" fill="#99CC99"/>
<path d="M82.8828 3.54688H90.6906V43.4877H82.8828V3.54688Z" fill="#A6D9A6"/>
<path d="M84.9854 3.54688H88.589V43.4877H84.9854V3.54688Z" fill="#B2E5B2"/>
<path d="M51.502 3.54688H59.3098V43.4877H51.502V3.54688Z" fill="#A6D9A6"/>
<path d="M53.6035 3.54688H57.2071V43.4877H53.6035V3.54688Z" fill="#B2E5B2"/>
<path d="M25.8262 36.3871V29.2865H50.4508V3.54688H60.5109V29.2865H81.8322V3.54688H91.7421V29.2865H124.024V57.6889" stroke="black" stroke-width="0.730122"/>
<path d="M26.4268 39.0547H52.8532V124.262H26.4268V39.0547Z" fill="#4C7F4C"/>
<path d="M26.4268 39.0547H52.8532V86.9837H26.4268V39.0547Z" fill="#669966"/>
<path d="M26.4268 39.0547H52.8532V79.8831H26.4268V39.0547Z" fill="#73A673"/>
<path d="M26.4268 39.0547H52.8532V72.7825H26.4268V39.0547Z" fill="#7FB27F"/>
<path d="M26.4268 39.0547H52.8532V65.6819H26.4268V39.0547Z" fill="#8CBF8C"/>
<path d="M26.4268 39.0547H52.8532V58.5813H26.4268V39.0547Z" fill="#99CC99"/>
<path d="M26.4268 39.0547H52.8532V51.4807H26.4268V39.0547Z" fill="#A6D9A6"/>
<path d="M26.4268 39.0547H52.8532V45.2677H26.4268V39.0547Z" fill="#B2E5B2"/>
<path d="M26.4268 39.0547H52.8532V124.262H26.4268V39.0547Z" stroke="#4C7F4C" stroke-width="0.730122"/>
<path d="M57.8076 39.0547H84.3842V124.262H57.8076V39.0547Z" fill="#4C7F4C"/>
<path d="M57.8076 39.0547H84.3842V86.9837H57.8076V39.0547Z" fill="#669966"/>
<path d="M57.8076 39.0547H84.3842V79.8831H57.8076V39.0547Z" fill="#73A673"/>
<path d="M57.8076 39.0547H84.3842V72.7825H57.8076V39.0547Z" fill="#7FB27F"/>
<path d="M57.8076 39.0547H84.3842V65.6819H57.8076V39.0547Z" fill="#8CBF8C"/>
<path d="M57.8076 39.0547H84.3842V58.5813H57.8076V39.0547Z" fill="#99CC99"/>
<path d="M57.8076 39.0547H84.3842V51.4807H57.8076V39.0547Z" fill="#A6D9A6"/>
<path d="M57.8076 39.0547H84.3842V45.2677H57.8076V39.0547Z" fill="#B2E5B2"/>
<path d="M57.8076 39.0547H84.3842V124.262H57.8076V39.0547Z" stroke="#4C7F4C" stroke-width="0.730122"/>
<path d="M89.0391 39.0547H115.465V124.262H89.0391V39.0547Z" fill="#4C7F4C"/>
<path d="M89.0391 39.0547H115.465V86.9837H89.0391V39.0547Z" fill="#669966"/>
<path d="M89.0391 39.0547H115.465V79.8831H89.0391V39.0547Z" fill="#73A673"/>
<path d="M89.0391 39.0547H115.465V72.7825H89.0391V39.0547Z" fill="#7FB27F"/>
<path d="M89.0391 39.0547H115.465V65.6819H89.0391V39.0547Z" fill="#8CBF8C"/>
<path d="M89.0391 39.0547H115.465V58.5813H89.0391V39.0547Z" fill="#99CC99"/>
<path d="M89.0391 39.0547H115.465V51.4807H89.0391V39.0547Z" fill="#A6D9A6"/>
<path d="M89.0391 39.0547H115.465V45.2677H89.0391V39.0547Z" fill="#B2E5B2"/>
<path d="M8.70898 86.0938H26.4267V142.898H8.70898V86.0938Z" fill="#99CC99"/>
<path d="M8.70898 126.925L26.4267 102.961V142.902H8.70898V126.925Z" fill="#94C794"/>
<path d="M8.70898 128.699L26.4267 104.734V142.9H8.70898V128.699Z" fill="#8FC28F"/>
<path d="M8.70898 132.246L26.4267 108.281V142.897H8.70898V132.246Z" fill="#8ABD8A"/>
<path d="M8.70898 86.0938H26.4267V142.898H8.70898V86.0938Z" stroke="black" stroke-width="0.730122"/>
<path d="M62.9131 75.4405V39.9375" stroke="#CCFFCC" stroke-width="0.730122"/>
<path d="M68.4688 75.4405V39.9375" stroke="#CCFFCC" stroke-width="0.730122"/>
<path d="M73.874 75.4405V39.9375" stroke="#CCFFCC" stroke-width="0.730122"/>
<path d="M79.2793 75.4405V39.9375" stroke="#CCFFCC" stroke-width="0.730122"/>
<path d="M31.3818 75.4405V39.9375" stroke="#CCFFCC" stroke-width="0.730122"/>
<path d="M36.9365 75.4405V39.9375" stroke="#CCFFCC" stroke-width="0.730122"/>
<path d="M42.3428 75.4405V39.9375" stroke="#CCFFCC" stroke-width="0.730122"/>
<path d="M47.748 75.4405V39.9375" stroke="#CCFFCC" stroke-width="0.730122"/>
<path d="M93.9941 75.4405V39.9375" stroke="#CCFFCC" stroke-width="0.730122"/>
<path d="M99.3994 75.4405V39.9375" stroke="#CCFFCC" stroke-width="0.730122"/>
<path d="M104.955 75.4405V39.9375" stroke="#CCFFCC" stroke-width="0.730122"/>
<path d="M110.36 75.4405V39.9375" stroke="#CCFFCC" stroke-width="0.730122"/>
<path d="M62.9131 75.4453V118.936" stroke="#336633" stroke-width="0.730122"/>
<path d="M68.4688 75.4453V118.936" stroke="#336633" stroke-width="0.730122"/>
<path d="M73.874 75.4453V118.936" stroke="#336633" stroke-width="0.730122"/>
<path d="M79.2793 75.4453V118.936" stroke="#336633" stroke-width="0.730122"/>
<path d="M31.3818 75.4453V118.936" stroke="#336633" stroke-width="0.730122"/>
<path d="M36.9365 75.4453V118.936" stroke="#336633" stroke-width="0.730122"/>
<path d="M42.3428 75.4453V118.936" stroke="#336633" stroke-width="0.730122"/>
<path d="M47.748 75.4453V118.936" stroke="#336633" stroke-width="0.730122"/>
<path d="M93.9941 75.4453V118.936" stroke="#336633" stroke-width="0.730122"/>
<path d="M99.3994 75.4453V118.936" stroke="#336633" stroke-width="0.730122"/>
<path d="M104.955 75.4453V118.936" stroke="#336633" stroke-width="0.730122"/>
<path d="M110.36 75.4453V118.936" stroke="#336633" stroke-width="0.730122"/>
<path d="M7.95801 63.9016V44.375H19.8199" stroke="white" stroke-width="0.730122"/>
<path d="M7.95801 63.9016H19.8199V44.375" stroke="#669966" stroke-width="0.730122"/>
<path d="M115.466 65.6797H122.673V108.283H115.466V65.6797Z" fill="#4C7F4C"/>
<path d="M115.466 65.6797H122.673V99.4075H115.466V65.6797Z" fill="#73A673"/>
<path d="M115.466 65.6797H122.673V71.8927H115.466V65.6797Z" fill="#A6D9A6"/>
<path d="M115.466 65.6797H122.673V108.283H115.466V65.6797Z" fill="#4C7F4C" stroke="black" stroke-width="0.730122"/>
<path d="M89.0391 39.0547H115.465V124.262H89.0391V39.0547Z" stroke="#4C7F4C" stroke-width="0.730122"/>
<path d="M25.8262 124.258H122.223V149.997H25.8262V124.258Z" fill="#9999FF"/>
<path d="M25.8262 142.898L122.223 131.359V149.998H25.8262V142.898Z" fill="#9494FA"/>
<path d="M25.8262 143.784L122.223 133.133V149.997H25.8262V143.784Z" fill="#8F8FF5"/>
<path d="M25.8262 145.562L122.223 134.023V150H25.8262V145.562Z" fill="#8A8AF0"/>
<path d="M25.8262 124.258H122.223V149.997H25.8262V124.258Z" stroke="black" stroke-width="0.730122"/>
</g>
<defs>
<clipPath id="clip0_2109_213782">
<rect width="150" height="150" fill="white"/>
</clipPath>
</defs>
</svg>
