<svg width="150" height="150" viewBox="0 0 150 150" fill="none" xmlns="http://www.w3.org/2000/svg">
<g clip-path="url(#clip0_2109_213894)">
<path d="M140.541 137.774L131.982 125.392L125.225 108.934L119.069 89.9687L113.964 70.0627L110.361 50.4702L108.259 32.7586L108.108 17.7116L109.61 6.42633L112.613 0H37.3876L40.691 6.42633L42.3426 17.7116L42.0423 32.7586L39.9402 50.4702L36.3366 70.0627L31.2315 89.9687L25.0753 108.934L18.1684 125.392L9.30957 137.774H140.541Z" fill="#D1D9D9"/>
<path d="M140.691 137.774L137.988 133.856L135.286 129.937L132.583 126.176L130.781 122.257L129.129 118.025L127.328 113.95L125.676 109.875L124.024 105.329L122.523 100.47L121.021 95.768L119.52 91.0658L118.168 86.2069L116.967 81.1912L115.616 76.1756L114.415 71.3166L113.364 66.3009L112.463 61.442L111.562 56.5831L110.661 51.7241L110.06 47.0219L109.61 42.6332L109.009 38.2445L108.559 33.6991L108.259 28.8401V24.1379L108.108 19.4357L108.559 14.7335L109.159 9.87461L110.06 5.64263L112.012 1.5674L112.613 0H98.6489H96.2465H93.9943H53.9042H49.2495H37.5378L40.8411 3.1348L44.1444 6.42633L45.6459 10.6583L47.1474 14.8903L48.3486 19.5925L48.7991 24.2947L49.0994 28.9969L49.3997 33.8558L48.9492 39.185L48.4988 44.8276L48.0483 49.2163L47.2976 54.0752L46.3967 58.9342L45.4958 63.7931L44.5949 68.652L43.2435 73.6677L41.8922 78.6834L40.3907 83.6991L38.8892 88.7147L37.2375 93.5737L35.2855 98.2759L33.3336 102.978L31.3816 107.837L29.1294 112.069L26.8771 116.144L24.6249 120.219L22.2225 124.295L19.3696 127.743L16.3666 130.721L13.2135 133.856L10.2105 136.991L9.30957 137.774H13.5138H34.0843L42.1925 137.618H112.012L120.12 137.774H136.487H140.691Z" fill="#CED6D6"/>
<path d="M140.691 137.774L137.988 133.856L135.286 129.937L132.583 126.176L130.781 122.257L129.129 118.025L127.328 113.95L125.676 109.875L124.024 105.329L122.523 100.47L121.021 95.768L119.52 91.0658L118.168 86.2069L116.967 81.1912L115.616 76.1756L114.415 71.3166L113.364 66.3009L112.463 61.442L111.562 56.5831L110.661 51.7241L110.06 47.0219L109.61 42.6332L109.009 38.2445L108.559 33.6991L108.259 28.8401V24.1379L108.108 19.4357L108.559 14.7335L109.159 9.87461L110.06 5.64263L112.012 1.5674L112.613 0H98.6489H96.2465H93.9943H53.9042H49.2495H37.5378L41.2916 2.3511L45.0453 4.85893L47.5979 6.42633L50.0003 10.6583L52.4027 15.047L54.0543 18.8088L54.9552 23.511L55.8561 28.0564L56.757 32.7586L56.6069 38.2445L56.3066 43.5737L56.0063 49.0596L55.2555 53.9185L54.3546 58.7774L53.4537 63.6364L52.5528 68.4953L51.0513 73.6677L49.5498 78.5266L47.8982 83.6991L46.2465 88.7147L44.1444 93.5737L41.8922 98.4326L39.4897 103.135L37.2375 107.994L34.5348 112.226L31.6819 116.301L28.6789 120.219L25.8261 124.295L22.0723 127.743L18.1684 130.721L14.2645 133.856L10.3606 136.991L9.30957 137.774H13.5138H34.0843L42.1925 137.618H112.012L120.12 137.774H136.487H140.691Z" fill="#C9D1D1"/>
<path d="M140.691 137.774L137.988 133.856L135.286 129.937L132.583 126.176L130.781 122.257L129.129 118.025L127.328 113.95L125.676 109.875L124.024 105.329L122.523 100.47L121.021 95.768L119.52 91.0658L118.168 86.2069L116.967 81.1912L115.616 76.1756L114.415 71.3166L113.364 66.3009L112.463 61.442L111.562 56.5831L110.661 51.7241L110.06 47.0219L109.61 42.6332L109.009 38.2445L108.559 33.6991L108.259 28.8401V24.1379L108.108 19.4357L108.559 14.7335L109.159 9.87461L110.06 5.64263L112.012 1.5674L112.613 0H98.6489H96.2465H93.9943H53.9042H49.2495H37.5378L41.742 1.88088L45.9462 3.9185L50.1504 5.95611L51.0513 6.42633L53.754 10.0313L56.4567 13.6364L59.0093 17.3981L60.8111 21.7868L62.1624 26.3323L63.5138 31.0345L64.1144 36.0502V41.3793L63.9642 46.8652L63.5138 52.5078L62.6129 57.3668L61.712 62.3824L60.6609 67.2414L59.3096 72.2571L57.6579 77.2727L55.8561 82.4451L54.2045 87.6176L51.9522 92.4765L49.2495 97.3354L47.1474 100.94L45.0453 104.545L43.0934 108.15L39.7901 112.382L36.3366 116.301L32.8831 120.376L29.4297 124.451L26.1264 126.959L22.5228 129.31L18.9192 131.505L15.3156 133.856L11.712 136.207L10.5108 136.991L9.30957 137.774H13.5138H34.0843L42.1925 137.618H112.012L120.12 137.774H136.487H140.691Z" fill="#C7CFCF"/>
<path d="M140.691 137.774L137.988 133.856L135.286 129.937L132.583 126.176L130.781 122.257L129.129 118.025L127.328 113.95L125.676 109.875L124.024 105.329L122.523 100.47L121.021 95.768L119.52 91.0658L118.168 86.2069L116.967 81.1912L115.616 76.1756L114.415 71.3166L113.364 66.3009L112.463 61.442L111.562 56.5831L110.661 51.7241L110.06 47.0219L109.61 42.6332L109.009 38.2445L108.559 33.6991L108.259 28.8401V24.1379L108.108 19.4357L108.559 14.7335L109.159 9.87461L110.06 5.64263L112.012 1.5674L112.613 0H98.6489H96.2465H93.9943H53.9042H49.2495H37.5378L41.742 1.5674L45.9462 3.1348L50.1504 4.85893L54.3546 6.42633L57.8081 10.1881L61.2615 13.7931L64.715 17.5549L66.9672 21.9436L68.9192 26.489L70.721 31.0345L71.6219 36.0502V41.3793L71.772 46.7085L71.4717 52.5078L70.5708 57.3668L69.6699 62.2257L68.6189 67.0846L67.2675 72.1003L65.3156 77.2727L63.9642 81.1912L62.0123 86.3636L59.9102 91.3793L57.5078 94.9843L55.2555 98.5893L52.8531 102.194L50.4507 105.799L48.1985 109.561L45.0453 112.539L42.0423 115.517L39.0393 118.339L35.8861 121.473L32.8831 124.451L28.9792 126.959L24.9252 129.31L20.721 131.505L16.3666 133.856L12.1624 136.207L10.8111 136.991L9.30957 137.774H13.5138H34.0843L42.1925 137.618H112.012L120.12 137.774H136.487H140.691Z" fill="#C1C9C9"/>
<path d="M140.691 137.774L137.988 133.856L135.286 129.937L132.583 126.176L130.781 122.257L129.129 118.025L127.328 113.95L125.676 109.875L124.024 105.329L122.523 100.47L121.021 95.768L119.52 91.0658L118.168 86.2069L116.967 81.1912L115.616 76.1756L114.415 71.3166L113.364 66.3009L112.463 61.442L111.562 56.5831L110.661 51.7241L110.06 47.0219L109.61 42.6332L109.009 38.2445L108.559 33.6991L108.259 28.8401V24.1379L108.108 19.4357L108.559 14.7335L109.159 9.87461L110.06 5.64263L112.012 1.5674L112.613 0H98.6489H96.2465H93.9943H53.9042H49.2495H37.5378L42.6429 1.5674L47.5979 3.1348L52.703 4.85893L57.8081 6.42633L61.1114 9.40439L64.5648 12.3824L67.8681 15.3605L71.1714 18.4953L73.5738 22.884L75.5258 26.6458L77.778 31.1912L78.8291 32.9154L79.1294 38.2445L79.4297 43.4169L79.73 48.7461L79.1294 53.605L78.2285 58.464L77.3276 63.3229L76.2765 68.1818L74.6249 73.3542L73.1234 77.2727L71.6219 81.0345L69.9702 84.953L68.4687 88.8715L66.2165 92.6332L63.6639 96.2383L60.9612 99.8433L58.4087 103.605L55.706 107.21L52.703 110.658L49.2495 113.636L45.7961 116.614L42.1925 119.436L38.739 122.414L35.2855 125.392L30.4807 127.743L25.5258 129.937L20.721 132.288L15.9162 134.639L10.9612 136.991L9.30957 137.774H13.5138H34.0843L42.1925 137.618H112.012L120.12 137.774H136.487H140.691Z" fill="#BFC7C7"/>
<path d="M140.691 137.774L137.988 133.856L135.286 129.937L132.583 126.176L130.781 122.257L129.129 118.025L127.328 113.95L125.676 109.875L124.024 105.329L122.523 100.47L121.021 95.768L119.52 91.0658L118.168 86.2069L116.967 81.1912L115.616 76.1756L114.415 71.3166L113.364 66.3009L112.463 61.442L111.562 56.5831L110.661 51.7241L110.06 47.0219L109.61 42.6332L109.009 38.2445L108.559 33.6991L108.259 28.8401V24.1379L108.108 19.4357L108.559 14.7335L109.159 9.87461L110.06 5.64263L112.012 1.5674L112.613 0H98.6489H96.2465H93.9943H53.9042H49.2495H37.5378L41.8922 1.09718L46.3967 2.3511L50.9012 3.60502L55.2555 4.85893L59.76 6.11285L64.1144 8.77743L68.1684 11.7555L72.0723 14.7335L75.8261 17.8683L78.6789 21.3166L80.9312 24.9216L83.1834 28.5266L85.5858 32.1317L86.0363 33.0721L86.6369 38.2445L87.0873 43.4169L87.688 48.7461L87.0873 53.4483L86.1864 58.3072L85.2855 63.1661L84.2345 68.0251L82.4327 73.1975L80.781 77.116L79.1294 81.0345L77.4777 85.1097L75.8261 89.0282L73.2735 92.79L70.4207 96.395L67.5678 100L64.5648 103.605L61.5618 107.367L58.4087 110.815L54.3546 113.636L50.4507 116.614L46.5468 119.592L42.4928 122.414L38.5889 125.392L33.1834 127.743L27.6279 129.937L22.2225 132.288L16.6669 134.639L11.2615 136.991L9.30957 137.774H13.5138H34.0843L42.1925 137.618H112.012L120.12 137.774H136.487H140.691Z" fill="#BAC2C2"/>
<path d="M140.691 137.774L131.982 125.392L125.225 108.777L119.069 89.9687L113.964 70.0627L110.361 50.4702L108.409 32.6019L108.108 17.5549L109.61 6.42633L112.613 0H37.5378L44.745 6.42633L49.0994 17.8683L50.6009 32.7586L49.2495 50.3135L45.6459 69.906L39.7901 89.9687L31.8321 109.091L22.2225 125.392L9.30957 137.774H140.691Z" fill="#CCD4D4"/>
<path d="M140.691 137.774L131.982 125.392L125.225 108.777L119.069 89.9687L113.964 70.0627L110.361 50.4702L108.409 32.6019L108.108 17.5549L109.61 6.42633L112.613 0H37.5378L48.6489 6.42633L55.8561 18.0251L59.1594 32.7586L58.5588 50.1567L54.9552 69.7492L48.3486 90.1254L38.5889 109.248L26.1264 125.392L9.30957 137.774H140.691Z" fill="#C9D1D1"/>
<path d="M140.691 137.774L131.982 125.392L125.225 108.777L119.069 89.9687L113.964 70.0627L110.361 50.4702L108.409 32.6019L108.108 17.5549L109.61 6.42633L112.613 0H37.5378L52.703 6.42633L62.4627 18.1818L67.718 32.9154L67.8681 50L64.1144 69.5925L56.9072 90.1254L45.1955 109.404L30.1804 125.392L9.30957 137.774H140.691Z" fill="#C4CCCC"/>
<path d="M140.691 137.774L131.982 125.392L125.225 108.777L119.069 89.9687L113.964 70.0627L110.361 50.4702L108.409 32.6019L108.108 17.5549L109.61 6.42633L112.613 0H37.5378L56.6069 6.42633L69.2195 18.3386L76.2765 32.9154L77.1774 49.8433L73.4237 69.4357L65.4657 90.2821L51.9522 109.561L34.0843 125.392L9.30957 137.774H140.691Z" fill="#BFC7C7"/>
<path d="M140.691 137.774L131.982 125.392L125.225 108.777L119.069 89.9687L113.964 70.0627L110.361 50.4702L108.409 32.6019L108.108 17.5549L109.61 6.42633L112.613 0H37.5378L60.6609 6.42633L75.9762 18.4953L84.8351 33.0721L86.3366 49.8433L82.733 69.4357L74.0243 90.2821L58.709 109.718L37.9882 125.392L9.30957 137.774H140.691Z" fill="#BCC4C4"/>
<path d="M140.541 137.774L131.982 125.392L125.225 108.934L119.069 89.9687L113.964 70.0627L110.361 50.4702L108.259 32.7586L108.108 17.7116L109.61 6.42633L112.613 0H37.3876L64.5648 6.58307L82.5828 18.8088L93.3937 33.2288L95.6459 49.6865L91.8922 69.279L82.5828 90.4389L65.3156 110.031L41.8922 125.549L9.30957 137.774H140.541Z" fill="#B7BFBF"/>
<path d="M140.541 137.778L131.982 125.395L125.225 108.938L119.069 89.9721L113.964 70.0662L109.31 46.3984L107.057 64.4235L101.502 79.784L96.0964 88.8749L90.5408 95.3013L73.4237 111.759L44.4447 127.119L9.30957 137.778H140.541Z" fill="#B0B8B8"/>
<path d="M69.2196 0L69.67 6.42633L69.9703 17.7116L69.8202 32.7586L69.5199 50.4702L69.0694 70.0627L68.1685 89.9687L67.2676 108.934L66.2166 125.392L64.8652 137.774" stroke="#A8B0B0" stroke-width="0.306819"/>
<path d="M85.1354 137.774L83.784 125.392L82.733 108.934L81.6819 89.9687L80.9312 70.0627L80.4807 50.4702L80.0303 32.7586V17.7116L80.3306 6.42633L80.781 0" stroke="#A8B0B0" stroke-width="0.306819"/>
<path d="M59.76 0L61.1114 6.42633L61.712 17.7116V32.7586L60.8111 50.4702L59.3096 70.0627L57.2075 89.9687L54.8051 108.934L51.9522 125.392L48.3486 137.774" stroke="#A8B0B0" stroke-width="0.306819"/>
<path d="M101.501 137.774L98.0478 125.392L95.195 108.934L92.7926 89.9687L90.6905 70.0627L89.189 50.4702L88.4382 32.7586L88.2881 17.7116L88.8887 6.42633L90.24 0" stroke="#A8B0B0" stroke-width="0.306819"/>
<path d="M51.3515 0L53.4536 6.42633L54.3545 17.7116L54.2044 32.7586L52.853 50.4702L50.6008 70.0627L47.2975 89.9687L43.5437 108.934L39.1893 125.392L33.6338 137.774" stroke="#A8B0B0" stroke-width="0.306819"/>
<path d="M116.366 137.774L110.961 125.392L106.607 108.934L102.703 89.9687L99.5497 70.0627L97.2974 50.4702L95.946 32.7586L95.7959 17.7116L96.8469 6.42633L98.7989 0" stroke="#A8B0B0" stroke-width="0.306819"/>
<path d="M44.5945 0L47.2973 6.42633L48.4985 17.7116L48.3483 32.7586L46.6966 50.4702L43.6936 70.0627L39.4894 89.9687L34.6846 108.934L29.1291 125.392L21.9219 137.774" stroke="#A8B0B0" stroke-width="0.306819"/>
<path d="M128.078 137.774L121.021 125.392L115.616 108.934L110.661 89.9687L106.607 70.0627L103.604 50.4702L101.952 32.7586L101.802 17.7116L103.003 6.42633L105.405 0" stroke="#A8B0B0" stroke-width="0.306819"/>
<path d="M42.1924 61.9141H68.769" stroke="#A8B0B0" stroke-width="0.306819"/>
<path d="M49.0986 57.0547H73.423" stroke="#A8B0B0" stroke-width="0.306819"/>
<path d="M51.502 40.75H70.2707" stroke="#A8B0B0" stroke-width="0.306819"/>
<path d="M46.8467 26.9609H58.5584" stroke="#A8B0B0" stroke-width="0.306819"/>
<path d="M60.9609 83.8594H82.7327" stroke="#A8B0B0" stroke-width="0.306819"/>
<path d="M50 95.2969H66.3664" stroke="#A8B0B0" stroke-width="0.306819"/>
<path d="M53.9043 97.8047H85.1355" stroke="#A8B0B0" stroke-width="0.306819"/>
<path d="M140.541 137.774L131.982 125.392L125.225 108.934L119.069 89.9687L113.964 70.0627L110.361 50.4702L108.259 32.7586L108.108 17.7116L109.61 6.42633L112.613 0H37.3876L40.691 6.42633L42.3426 17.7116L42.0423 32.7586L39.9402 50.4702L36.3366 70.0627L31.2315 89.9687L25.0753 108.934L18.1684 125.392L9.30957 137.774H140.541Z" stroke="black" stroke-width="0.306819"/>
<path d="M0 149.999H149.85V130.406H0V149.999Z" fill="#99A6A6"/>
<path d="M6.15625 149.999H143.844V130.406H6.15625V149.999Z" fill="#9BA8A8"/>
<path d="M12.3125 149.999H137.688V130.406H12.3125V149.999Z" fill="#A0ADAD"/>
<path d="M18.6189 149.999H131.382V130.406H18.4688L18.6189 149.999Z" fill="#A3B0B0"/>
<path d="M24.7752 149.999H125.226V130.406H24.625L24.7752 149.999Z" fill="#A5B2B2"/>
<path d="M30.9307 149.999H119.069V130.406H30.9307V149.999Z" fill="#ABB8B8"/>
<path d="M37.0869 149.999H112.913V130.406H37.0869V149.999Z" fill="#ADBABA"/>
<path d="M43.2432 149.999H106.757V130.406H43.2432V149.999Z" fill="#B2BFBF"/>
<path d="M49.3994 149.999H100.601V130.406H49.3994V149.999Z" fill="#B5C2C2"/>
<path d="M55.5557 149.999H94.4446V130.406H55.5557V149.999Z" fill="#B7C4C4"/>
<path d="M61.7119 149.999H88.2885V130.406H61.7119V149.999Z" fill="#BCC9C9"/>
<path d="M67.8682 149.999H81.9823V130.406H67.8682V149.999Z" fill="#BFCCCC"/>
<path d="M0 149.999H149.85V130.406H0V149.999Z" stroke="black" stroke-width="0.306819"/>
<path d="M0 133.695H149.85" stroke="black" stroke-width="0.306819"/>
<path d="M149.85 136.992H0" stroke="black" stroke-width="0.306819"/>
<path d="M0 140.125H149.85" stroke="black" stroke-width="0.306819"/>
<path d="M149.85 143.414H0" stroke="black" stroke-width="0.306819"/>
<path d="M0 146.711H149.85" stroke="black" stroke-width="0.306819"/>
</g>
<defs>
<clipPath id="clip0_2109_213894">
<rect width="150" height="150" fill="white"/>
</clipPath>
</defs>
</svg>
