<svg width="150" height="150" viewBox="0 0 150 150" fill="none" xmlns="http://www.w3.org/2000/svg">
<g clip-path="url(#clip0_2109_214484)">
<path d="M119.282 133.033V74.6246L131.25 62.1622L133.643 56.006V23.2733L129.654 16.3664L122.473 10.8108L110.106 5.55556L95.3456 1.8018L78.1913 0H61.0371L44.2818 1.95195L29.1222 5.55556L16.7552 10.8108L9.57432 16.3664L5.58496 23.2733V56.006L7.97858 62.1622L19.9467 74.6246V133.033L23.5371 137.838L29.9201 142.042L39.0956 145.646L50.2658 148.048L63.0318 149.399H76.1967L88.5637 148.048L100.133 145.646L109.308 142.042L115.691 137.838L119.282 133.033Z" fill="#727F7F"/>
<path d="M115.691 133.033V74.6246L126.861 62.012L128.856 55.8559L129.255 23.2733L125.266 16.2162L118.883 10.6607L107.314 5.55556L93.3508 1.8018L77.7923 0H61.8348L46.2763 1.8018L31.9146 5.55556L20.7444 10.6607L14.3614 16.2162L10.3721 23.2733V55.8559L12.3668 62.012L23.9359 74.6246V133.033L26.7285 137.838L33.1114 142.042L41.4891 145.495L51.8614 148.048L63.8295 149.249H75.7976L87.3668 148.048L98.138 145.495L106.516 142.042L112.5 137.838L115.691 133.033Z" fill="#7A8787"/>
<path d="M112.101 133.033V74.6246L122.473 62.012L124.468 55.8559V23.2733L121.276 16.2162L114.893 10.6607L104.521 5.55556L91.7549 1.8018L76.9943 0H62.2336L47.8719 1.8018L35.106 5.55556L24.3347 10.6607L18.3507 16.2162L15.1592 23.2733V55.8559L17.1539 62.012L27.1273 74.6246V133.033L30.3188 137.838L35.9039 142.042L43.8826 145.495L53.4571 148.048L64.2283 149.249H75.3985L86.1698 148.048L95.7443 145.495L103.723 142.042L109.308 137.838L112.101 133.033Z" fill="#828F8F"/>
<path d="M108.511 133.033V74.6246L118.085 62.012L120.08 55.8559V23.2733L116.888 16.2162L111.303 10.6607L101.729 5.55556L89.7606 1.8018L76.5957 0H63.0319L49.867 1.8018L37.8989 5.55556L28.3244 10.6607L22.7393 16.2162L19.5479 23.2733V55.8559L21.5425 62.012L30.7181 74.6246V133.033L33.5106 137.838L38.6968 142.042L45.8776 145.495L54.6542 148.048L64.6276 149.249L84.5744 148.048L93.75 145.495L100.931 142.042L106.117 137.838L108.511 133.033Z" fill="#899696"/>
<path d="M104.92 133.033V74.6246L113.697 62.012L115.292 55.8559V23.2733L112.5 16.2162L107.314 10.6607L98.936 5.55556L87.7658 1.8018L75.7977 0H63.4307L51.4626 1.8018L40.6913 5.55556L31.9147 10.6607L27.1275 16.2162L24.335 23.2733V55.8559L25.9307 62.012L34.3084 74.6246V133.033L37.1009 137.838L41.4892 142.042L48.2711 145.495L65.0264 149.249H74.6009L91.3562 145.495L98.1381 142.042L102.526 137.838L104.92 133.033Z" fill="#919E9E"/>
<path d="M101.33 133.033V74.6246L109.309 62.012L110.506 55.8559L110.904 23.2733L108.112 16.2162L103.724 10.6607L95.7449 5.55556L86.1704 1.8018L75.3992 0H64.229L53.4577 1.8018L43.8832 5.55556L35.9045 10.6607L31.5162 16.2162L28.7236 23.2733V55.8559L30.3194 62.012L37.8992 74.6246V133.033L40.2928 137.838L44.2821 142.042L50.2662 145.495L65.8247 149.249H73.8034L89.3619 145.495L95.346 142.042L99.3353 137.838L101.33 133.033Z" fill="#99A6A6"/>
<path d="M119.282 74.6265H19.9471L7.58008 62.1641H131.649L119.282 74.6265Z" fill="#596666"/>
<path d="M115.692 74.6265H23.9363L12.3672 62.1641H127.261L115.692 74.6265Z" fill="#616E6E"/>
<path d="M112.101 74.6265H27.1272L16.7549 62.1641H122.872L112.101 74.6265Z" fill="#687575"/>
<path d="M108.511 74.6265H30.718L21.1436 62.1641H118.484L108.511 74.6265Z" fill="#707D7D"/>
<path d="M104.921 74.6265H34.3088L25.5322 62.1641H114.096L104.921 74.6265Z" fill="#788585"/>
<path d="M101.329 74.6265H37.8986L29.9199 62.1641H109.707L101.329 74.6265Z" fill="#7F8C8C"/>
<path d="M119.282 133.033V74.6246L131.25 62.1622L133.643 56.006V23.2733L129.654 16.3664L122.473 10.8108L110.106 5.55556L95.3456 1.8018L78.1913 0H61.0371L44.2818 1.95195L29.1222 5.55556L16.7552 10.8108L9.57432 16.3664L5.58496 23.2733V56.006L7.97858 62.1622L19.9467 74.6246V133.033L23.5371 137.838L29.9201 142.042L39.0956 145.646L50.2658 148.048L63.0318 149.399H76.1967L88.5637 148.048L100.133 145.646L109.308 142.042L115.691 137.838L119.282 133.033Z" stroke="black" stroke-width="0.489491"/>
<path d="M5.58496 23.2734H133.643" stroke="#A5B2B2" stroke-width="0.489491"/>
<path d="M106.915 133.18L111.303 133.48L123.67 136.183L128.059 139.036L138.431 141.138L139.628 143.09L130.053 149.396L124.867 149.846L114.894 147.744L106.117 147.594L94.1491 145.042L90.9576 143.69L88.564 142.189L87.3672 140.537V138.885L88.564 137.234L90.9576 135.732L94.1491 134.531L98.1385 133.63L102.527 133.18H106.915Z" fill="#727F7F" stroke="black" stroke-width="0.489491"/>
<path d="M48.6702 143.692L45.4787 144.893L33.5106 147.596L24.734 147.746L14.7606 149.848L9.57447 149.398L0 143.091L1.19681 141.139L11.1702 138.887L15.9574 136.184L27.9255 133.482L32.3138 133.181L37.1011 133.031L41.4894 133.482L45.4787 134.383L48.6702 135.734L51.0638 137.235L52.2606 138.887V140.539L51.0638 142.19L48.6702 143.692Z" fill="#727F7F" stroke="black" stroke-width="0.489491"/>
<path d="M103.724 133.18H105.718L122.873 136.783L127.261 139.486L137.633 141.588L139.229 143.39L130.452 149.096L125.266 149.546L115.293 147.294L106.915 147.144L90.1597 143.39L88.9629 142.639L88.1651 141.588L87.3672 140.237V138.735L88.564 137.234L90.5587 135.732L93.3512 134.681L97.3406 133.78L100.931 133.48L103.724 133.18Z" fill="#7D8A8A"/>
<path d="M50.2664 142.641L49.4686 143.392L32.7132 146.995L24.3356 147.296L13.9632 149.398L8.77707 149.097L0.399414 143.392L1.99516 141.44L11.9686 139.338L16.7558 136.635L33.5111 133.031H35.9047L38.2983 133.332L42.2877 133.782L45.8781 134.533L49.0696 135.734L51.0643 137.085L51.8622 138.587V140.238L51.0643 141.59L50.2664 142.641Z" fill="#7D8A8A"/>
<path d="M100.931 133.33L102.527 133.18L121.676 137.384L126.463 139.786L136.835 142.039L138.83 143.69L130.851 148.795L126.064 149.096L116.091 146.843L107.713 146.543L88.564 142.339L87.7661 141.738L87.3672 140.837L87.7661 139.786V138.435L88.564 137.084L90.5587 135.882L92.9523 134.981L96.1438 134.081L98.5374 133.48L100.931 133.33Z" fill="#899696"/>
<path d="M51.4627 141.588L50.6649 142.189L31.9149 146.393L23.5372 146.843L13.5638 149.096L8.37764 148.795L0.797852 143.69L2.3936 141.888L12.7659 139.786L17.9521 137.234L36.7021 133.18H38.2979L40.6915 133.48L43.484 134.081L46.2766 134.831L49.0691 135.732L50.6649 136.933L51.8617 138.285V139.636V140.837L51.4627 141.588Z" fill="#899696"/>
<path d="M98.9363 133.484H100.133L120.878 137.989L126.064 140.241L136.436 142.493L138.032 143.995L131.25 148.499L126.463 148.8L116.49 146.547L108.511 145.947L87.7661 141.442L87.3672 140.992V140.241V139.34L87.7661 138.139L88.564 136.938L90.1597 135.887L92.9523 134.986L94.947 134.385L97.3406 133.785L98.9363 133.484Z" fill="#94A1A1"/>
<path d="M51.8622 140.843L51.4632 141.294L30.7185 145.798L22.7398 146.399L12.7664 148.651L7.97918 148.351L1.19727 143.997L3.19195 142.345L13.1654 140.243L18.7505 137.84L39.0962 133.336L40.293 133.486L42.2877 133.636L44.6813 134.237L47.0749 134.988L49.0696 135.738L50.6654 136.94L51.4632 137.991L51.8622 139.192V140.243V140.843Z" fill="#94A1A1"/>
<path d="M97.3406 133.783L98.1385 133.633L120.08 138.438L125.266 140.69L135.638 142.942L137.633 144.444L131.649 148.197L127.261 148.348L117.287 146.095L109.309 145.345L87.3672 140.54V140.239V139.639V138.888L88.1651 137.987L88.9629 136.936L90.5587 135.885L92.1544 135.284L94.1491 134.534L95.7448 134.083L97.3406 133.783Z" fill="#A0ADAD"/>
<path d="M51.8617 140.239V140.54L29.9202 145.345L22.3404 145.945L11.968 148.197L7.57975 148.047L1.5957 144.293L3.98932 142.792L13.9627 140.54L19.5478 138.438L41.4893 133.633L42.2872 133.783L43.8829 134.083L45.4787 134.534L47.4734 135.134L49.468 135.885L50.6648 136.786L51.4627 137.837L51.8617 138.738V139.639V140.239Z" fill="#A0ADAD"/>
<path d="M95.7448 134.086H96.1438L119.282 139.041L124.468 141.143L134.841 143.395L137.234 144.596L132.447 147.9L128.059 147.75L118.085 145.647L110.505 144.747L87.3672 139.942V139.641V139.041L88.1651 138.59V137.69L88.9629 136.789L90.1597 136.038L91.7555 135.437L93.3512 134.987L94.548 134.386L95.7448 134.086Z" fill="#ABB8B8"/>
<path d="M51.8621 139.491V139.792L29.1228 144.747L21.543 145.497L11.1706 147.75H7.18129L1.99512 144.596L4.38873 143.245L14.7611 140.993L20.3462 139.041L43.0855 134.086H43.8834L45.0802 134.386L45.8781 134.837L47.8728 135.287L49.4685 136.038L50.6653 136.789L51.0643 137.539L51.4632 138.44L51.8621 139.041V139.491Z" fill="#ABB8B8"/>
<path d="M94.1491 134.683L94.548 134.383L118.484 139.638L124.069 141.59L134.043 143.842L136.835 145.043L132.846 147.596L128.458 147.296L118.484 145.194L110.904 144.293L87.3672 139.188V139.037L87.7661 138.587V138.137L88.564 137.386L88.9629 136.785L90.1597 136.034L91.3565 135.584L92.5534 135.134L93.3512 134.833L94.1491 134.683Z" fill="#B7C4C4"/>
<path d="M51.8616 138.887V139.037L28.3244 144.143L20.7446 145.043L10.7712 147.296L6.38292 147.446L2.39355 144.893L5.18611 143.692L15.1595 141.44L21.1436 139.488L44.6808 134.383L45.0797 134.533L45.8776 134.683L46.6755 135.134L48.2712 135.584L49.468 136.034L50.2659 136.635L51.0638 137.236V137.986L51.4627 138.437L51.8616 138.887Z" fill="#B7C4C4"/>
<path d="M92.9518 134.984H93.3507L117.287 140.24L123.67 142.041L133.643 144.144L136.436 145.345L133.244 147.297L129.255 146.846L119.282 144.744L112.101 143.693L87.7656 138.438V138.288L88.5635 138.138V137.687V137.237L88.9624 136.636L89.7603 136.336L90.5582 135.735L91.755 135.435L92.5529 135.285L92.9518 134.984Z" fill="#C2CFCF"/>
<path d="M51.4627 138.289V138.44L27.5265 143.545L20.3457 144.596L9.97332 146.848L5.98396 147.148L3.19141 145.196L5.98396 144.145L15.9574 141.893L21.9414 140.091L46.2765 134.836V134.986L46.6754 135.136L47.8723 135.437L48.6701 135.737L49.468 136.037L50.2659 136.638L50.6648 137.088L51.0637 137.539L50.6648 137.989L51.4627 138.289Z" fill="#C2CFCF"/>
<path d="M92.1544 135.588V135.438L116.49 140.693L122.872 142.344L132.846 144.597L135.638 145.648L133.245 146.999L130.053 146.549L120.08 144.296L112.899 143.095L88.165 137.84H88.9629L88.564 137.54V137.239L88.9629 136.939L89.3618 136.639L89.7608 136.338L90.1597 136.038L90.9576 135.738H91.3565L92.1544 135.588Z" fill="#CEDBDB"/>
<path d="M50.6653 137.691H51.0642L26.3302 143.097L19.5483 144.148L9.17593 146.4L5.5855 146.851L3.59082 145.499L6.38337 144.598L16.7557 142.346L22.7398 140.544L47.4738 135.289L47.0749 135.439H47.8727L48.6706 135.74L49.0695 135.89L49.8674 136.19L50.2664 136.49V136.791L50.6653 137.241V137.391V137.691Z" fill="#CEDBDB"/>
<path d="M50.6648 137.086L25.5318 142.491L18.7499 143.842L8.77649 146.095L5.18607 146.695L3.98926 145.945L7.18075 145.044L17.1542 142.791L23.9361 141.29L48.6701 135.734H49.069L49.468 135.885V136.035V136.185L49.8669 136.335V136.485L50.2659 136.635V136.785L50.6648 136.936V137.086Z" fill="#D8E5E5"/>
<path d="M90.1592 135.734H90.5582L115.691 141.29L122.473 142.942L132.446 145.044L135.638 145.945L134.441 146.695L130.851 146.095L120.877 143.842L113.696 142.491L88.5635 137.086H88.9624V136.936V136.785L89.3613 136.635V136.485L89.7603 136.335L90.1592 136.185V136.035L90.5582 135.885L90.1592 135.734Z" fill="#D8E5E5"/>
<path d="M138.431 141.141L124.468 149.849" stroke="#727F7F" stroke-width="0.489491"/>
<path d="M123.67 136.188L106.117 147.599" stroke="#727F7F" stroke-width="0.489491"/>
<path d="M128.058 139.039L114.894 147.748" stroke="#727F7F" stroke-width="0.489491"/>
<path d="M14.7611 149.849L1.19727 141.141" stroke="#727F7F" stroke-width="0.489491"/>
<path d="M33.5102 147.599L15.957 136.188" stroke="#727F7F" stroke-width="0.489491"/>
<path d="M24.7338 147.748L11.1699 139.039" stroke="#727F7F" stroke-width="0.489491"/>
<path d="M128.856 50.9019L131.25 50.6016H138.431L142.021 51.6526H148.005L150 52.7037V57.8088L148.005 58.8598H142.42L138.431 59.9109H131.25L128.856 59.6106L126.861 59.01L125.266 58.1091L124.069 57.058L123.67 55.8568V54.6556L124.069 53.4544L125.266 52.4034L126.861 51.5025L128.856 50.9019Z" fill="#727F7F"/>
<path d="M127.261 51.355L128.458 51.0547H138.431L142.021 52.1057H148.006L150 53.0066V57.5111L148.006 58.5622H142.021L138.431 59.4631H128.458L127.261 59.1628L126.463 58.5622L124.867 57.8114L124.069 56.9105L123.67 55.8595L123.271 54.6583L124.069 53.6072L124.867 52.7063L126.463 51.9556L127.261 51.355Z" fill="#7D8A8A"/>
<path d="M126.462 51.8003L126.861 51.5H138.032L142.021 52.4009H148.005L150 53.1517V57.3559L148.005 58.1066H142.021L138.431 59.0075H126.861L126.064 58.7072L125.266 58.2568L124.867 57.506L124.069 56.6051L123.67 55.8544V54.8033L124.069 53.9024L124.468 53.0015L125.266 52.2508L126.462 51.8003Z" fill="#899696"/>
<path d="M125.665 52.2517L126.064 52.1016H138.032L142.021 52.7022H148.005L150 53.4529V57.0565L148.005 57.8073H142.021L138.032 58.558H126.064L125.665 58.2577L124.867 57.9574L124.468 57.2067L123.67 56.4559V55.7052V54.8043L124.069 53.9034L124.468 53.3028L124.867 52.7022L125.665 52.2517Z" fill="#94A1A1"/>
<path d="M124.867 52.7066L125.266 52.4062H138.431L142.021 53.157H148.005L150 53.7576L149.601 56.9108L148.005 57.5114H142.021L138.032 58.112H125.266L124.867 57.8117L124.468 57.5114L124.069 57.0609L123.67 56.3102V55.7096V54.8087V54.2081L124.069 53.4573L124.468 53.0069L124.867 52.7066Z" fill="#A0ADAD"/>
<path d="M124.468 53.0017H124.867L138.032 52.8516L142.021 53.4522H148.005L150 53.9026V56.6053L148.005 57.0558H142.021L138.032 57.5062L124.867 57.6564L124.468 57.5062V57.2059L124.069 56.7555L123.67 56.1549V55.5543V54.9537V54.3531L124.069 53.9026L124.468 53.4522V53.0017Z" fill="#ABB8B8"/>
<path d="M124.468 53.605V53.4548L138.032 53.3047L142.021 53.9053H148.006L150 54.2056V56.3077L148.006 56.7581H142.021L138.032 57.2086H124.468V57.0584L124.069 56.7581V56.4578L123.67 56.0074V55.5569L123.271 54.9563L123.67 54.5059L124.069 54.0554V53.7551L124.468 53.605Z" fill="#B7C4C4"/>
<path d="M124.069 53.9062H138.032L142.021 54.2066H148.006L150 54.5069V56.1585L148.006 56.3087H142.021L138.032 56.7591H124.069V56.609V56.4588L123.67 56.1585V55.8582L123.271 55.5579L123.67 55.1075V54.657V54.3567L124.069 54.2066V53.9062Z" fill="#C2CFCF"/>
<path d="M136.835 56.1534C144.106 56.1534 150 55.75 150 55.2525C150 54.7549 144.106 54.3516 136.835 54.3516C129.564 54.3516 123.67 54.7549 123.67 55.2525C123.67 55.75 129.564 56.1534 136.835 56.1534Z" fill="#CEDBDB"/>
<path d="M136.436 55.8575C143.707 55.8575 149.601 55.5886 149.601 55.2569C149.601 54.9251 143.707 54.6562 136.436 54.6562C129.166 54.6562 123.271 54.9251 123.271 55.2569C123.271 55.5886 129.166 55.8575 136.436 55.8575Z" fill="#D8E5E5"/>
<path d="M128.856 50.9019L131.25 50.6016H138.431L142.021 51.6526H148.005L150 52.7037V57.8088L148.005 58.8598H142.42L138.431 59.9109H131.25L128.856 59.6106L126.861 59.01L125.266 58.1091L124.069 57.058L123.67 55.8568V54.6556L124.069 53.4544L125.266 52.4034L126.861 51.5025L128.856 50.9019Z" stroke="black" stroke-width="0.489491"/>
<path d="M148.005 51.6484V58.8556" stroke="#727F7F" stroke-width="0.489491"/>
<path d="M138.431 50.6016V59.9109" stroke="#727F7F" stroke-width="0.489491"/>
<path d="M142.021 51.6484L142.42 58.8556" stroke="#727F7F" stroke-width="0.489491"/>
<path d="M26.3294 37.9905C31.6172 37.9905 35.9038 35.5704 35.9038 32.5851C35.9038 29.5998 31.6172 27.1797 26.3294 27.1797C21.0415 27.1797 16.7549 29.5998 16.7549 32.5851C16.7549 35.5704 21.0415 37.9905 26.3294 37.9905Z" fill="#8C9999"/>
<path d="M23.5373 35.736C26.6218 35.736 29.1224 34.3243 29.1224 32.5828C29.1224 30.8414 26.6218 29.4297 23.5373 29.4297C20.4527 29.4297 17.9521 30.8414 17.9521 32.5828C17.9521 34.3243 20.4527 35.736 23.5373 35.736Z" fill="#A5B2B2"/>
<path d="M98.1388 130.631V74.6246L104.921 62.012L106.117 55.8559V23.2733L103.724 16.2162L99.7345 10.6607L92.9526 5.55556L84.176 1.8018L74.6015 0H65.0271L55.0536 1.8018L46.676 5.55556L39.8941 10.6607L35.9047 16.2162L33.5111 23.2733V55.8559L34.7079 62.012L41.4898 74.6246V130.631L43.0856 134.234L1.19727 143.093L11.9685 149.399L49.8675 141.441L59.043 145.646L66.2239 146.997H73.4047L86.9685 143.243L89.7611 141.441L127.66 149.399L138.032 143.093L96.543 134.234L98.1388 130.631Z" fill="#4C4C4C"/>
<path d="M93.7505 130.632V74.6255L99.7345 62.0129L100.532 55.8567L100.931 33.4844H39.4951L38.6973 55.8567L39.8941 62.0129L45.8781 74.6255V130.632L46.676 133.034L48.6707 135.286L51.8622 140.692L55.0536 143.244L60.6388 145.647L66.6228 146.998H73.0058L78.9898 145.647L84.5749 143.244L87.3675 140.692L90.9579 135.286L92.9526 133.034L93.7505 130.632Z" fill="#666666"/>
<path d="M36.7021 31.0781H104.92V33.4805H36.7021V31.0781Z" fill="#7F7F7F"/>
<path d="M47.0742 13.2109H51.0636V31.0788H47.0742V13.2109Z" fill="#669966"/>
<path d="M53.0586 13.2109H57.4469V31.0788H53.0586V13.2109Z" fill="#669966"/>
<path d="M59.4414 13.2109H63.4308V31.0788H59.4414V13.2109Z" fill="#669966"/>
<path d="M65.4258 13.2109H69.8141V31.0788H65.4258V13.2109Z" fill="#669966"/>
<path d="M71.8086 13.2109H75.798V31.0788H71.8086V13.2109Z" fill="#669966"/>
<path d="M77.793 13.2109H82.1813V31.0788H77.793V13.2109Z" fill="#669966"/>
<path d="M84.1758 13.2109H88.1651V31.0788H84.1758V13.2109Z" fill="#669966"/>
<path d="M90.1592 13.2109H94.5475V31.0788H90.1592V13.2109Z" fill="#669966"/>
<path d="M91.3564 13.2109H92.9522V31.0788H91.3564V13.2109Z" fill="#99FF99"/>
<path d="M85.3721 13.2109H86.9678V31.0788H85.3721V13.2109Z" fill="#99FF99"/>
<path d="M78.9893 13.2109H80.585V31.0788H78.9893V13.2109Z" fill="#99FF99"/>
<path d="M73.0049 13.2109H74.6006V31.0788H73.0049V13.2109Z" fill="#99FF99"/>
<path d="M66.6221 13.2109H68.2178V31.0788H66.6221V13.2109Z" fill="#99FF99"/>
<path d="M60.6387 13.2109H62.2344V31.0788H60.6387V13.2109Z" fill="#99FF99"/>
<path d="M54.2549 13.2109H55.8506V31.0788H54.2549V13.2109Z" fill="#99FF99"/>
<path d="M48.2715 13.2109H49.8672V31.0788H48.2715V13.2109Z" fill="#99FF99"/>
<path d="M47.0742 34.9859H51.0636V33.4844H47.0742V34.9859Z" fill="#4C4C4C"/>
<path d="M53.0586 34.9859H57.4469V33.4844H53.0586V34.9859Z" fill="#4C4C4C"/>
<path d="M59.4414 34.9859H63.4308V33.4844H59.4414V34.9859Z" fill="#4C4C4C"/>
<path d="M65.4258 34.9859H69.8141V33.4844H65.4258V34.9859Z" fill="#4C4C4C"/>
<path d="M71.8086 34.9859H75.798V33.4844H71.8086V34.9859Z" fill="#4C4C4C"/>
<path d="M77.793 34.9859H82.1813V33.4844H77.793V34.9859Z" fill="#4C4C4C"/>
<path d="M84.1758 34.9859H88.1651V33.4844H84.1758V34.9859Z" fill="#4C4C4C"/>
<path d="M90.1592 34.9859H94.5475V33.4844H90.1592V34.9859Z" fill="#4C4C4C"/>
<path d="M99.734 10.6621L98.1382 9.46094H41.4893L39.8936 10.6621H99.734Z" fill="#7F7F7F"/>
<path d="M74.6015 0H65.0271L55.0537 1.8018L46.676 5.55556L39.8941 10.6607L35.9047 16.2162L33.5111 23.2733V55.8559L34.7079 62.012L41.4898 74.6246V130.631L43.0856 134.234L1.19727 143.093L11.9685 149.399" stroke="#0C1919" stroke-width="0.489491"/>
<path d="M49.8672 141.445L52.2608 143.247L59.0427 145.65" stroke="#0C1919" stroke-width="0.489491"/>
<path d="M11.9678 149.403L49.8667 141.445" stroke="#D8E5E5" stroke-width="0.489491"/>
<path d="M59.043 145.646L66.2238 146.997H73.4047L80.5855 145.646L86.9685 143.243L89.7611 141.441L127.66 149.399L138.032 143.093L96.543 134.234L96.9419 133.033L98.1387 130.631V74.6246L104.921 62.012L106.117 55.8559V23.2733L103.724 16.2162L99.7345 10.6607L92.9525 5.55556L84.1759 1.8018L74.6015 0" stroke="#D8E5E5" stroke-width="0.489491"/>
<path d="M79.787 8.55556L71.8083 3H55.0529L47.0742 8.55556H79.787Z" fill="#666699"/>
<path d="M34.3086 59.0078H104.92" stroke="#B2B2B2" stroke-width="0.489491"/>
<path d="M51.463 37.3845L49.0693 37.2344V132.129L51.463 131.979V37.3845Z" fill="#663300"/>
<path d="M53.4571 37.3845L49.4678 37.2344V132.129L53.4571 131.829V37.3845Z" fill="#6B3300"/>
<path d="M55.4523 37.3906H51.4629V131.985L55.4523 131.685V37.3906Z" fill="#703300"/>
<path d="M57.4464 37.5408L53.457 37.3906V131.835L57.4464 131.535V37.5408Z" fill="#733300"/>
<path d="M59.4415 37.5408L55.4521 37.3906V131.685L59.4415 131.385V37.5408Z" fill="#783300"/>
<path d="M61.0377 37.6892L57.4473 37.5391V131.533L61.0377 131.233V37.6892Z" fill="#7D3300"/>
<path d="M63.0318 37.6892L59.4414 37.5391V131.383L63.0318 131.083V37.6892Z" fill="#823300"/>
<path d="M65.0265 37.8377L61.0371 37.6875V131.231L65.0265 130.931V37.8377Z" fill="#873300"/>
<path d="M67.0216 37.8377L63.0322 37.6875V131.081L67.0216 130.931V37.8377Z" fill="#8C3300"/>
<path d="M69.0157 37.9861L65.0264 37.8359V130.929L69.0157 130.779V37.9861Z" fill="#8F3300"/>
<path d="M67.0215 37.8359L69.814 37.9861V130.629L67.0215 130.929V37.8359Z" fill="#943300"/>
<path d="M69.0156 37.9844H69.8135V130.627L69.0156 130.777V37.9844Z" fill="#993300"/>
<path d="M87.7656 37.3845L90.5582 37.2344V132.129L87.7656 131.829V37.3845Z" fill="#663300"/>
<path d="M85.7715 37.3845L89.7608 37.2344V131.979L85.7715 131.829V37.3845Z" fill="#6B3300"/>
<path d="M83.7764 37.5408L87.7657 37.3906V131.835L83.7764 131.685V37.5408Z" fill="#703300"/>
<path d="M81.7822 37.5408L85.7716 37.3906V131.835L81.7822 131.535V37.5408Z" fill="#733300"/>
<path d="M79.7871 37.6892L83.7765 37.5391V131.683L79.7871 131.383V37.6892Z" fill="#783300"/>
<path d="M78.1914 37.6892L81.7818 37.5391V131.533L78.1914 131.233V37.6892Z" fill="#7D3300"/>
<path d="M76.1973 37.8377L79.7877 37.6875V131.381L76.1973 131.081V37.8377Z" fill="#823300"/>
<path d="M74.2021 37.8377L78.1915 37.6875V131.231L74.2021 130.931V37.8377Z" fill="#873300"/>
<path d="M72.207 37.9861L76.1964 37.8359V131.079L72.207 130.779V37.9861Z" fill="#8C3300"/>
<path d="M70.2129 37.9861L74.2023 37.8359V130.929L70.2129 130.629V37.9861Z" fill="#8F3300"/>
<path d="M72.2071 37.9844H69.8135V130.627L72.2071 130.777V37.9844Z" fill="#943300"/>
<path d="M70.2124 37.9844H69.8135V130.627H70.2124V37.9844Z" fill="#993300"/>
<path d="M49.0693 43.5469L69.814 44.5979L90.1598 43.5469" stroke="#CC6633" stroke-width="0.489491"/>
<path d="M49.0693 52.25L69.814 53.3011L90.1598 52.25" stroke="#CC6633" stroke-width="0.489491"/>
<path d="M49.0693 60.9609L69.814 62.1621L90.1598 60.9609" stroke="#CC6633" stroke-width="0.489491"/>
<path d="M49.0693 69.6719L69.814 70.8731L90.1598 69.6719" stroke="#CC6633" stroke-width="0.489491"/>
<path d="M49.0693 78.375L69.814 79.5762L90.1598 78.375" stroke="#CC6633" stroke-width="0.489491"/>
<path d="M49.0693 87.0859L69.814 88.2871L90.1598 87.0859" stroke="#CC6633" stroke-width="0.489491"/>
<path d="M49.0693 95.7969L69.814 96.9981L90.1598 95.7969" stroke="#CC6633" stroke-width="0.489491"/>
<path d="M49.0693 104.508L69.814 105.709L90.1598 104.508" stroke="#CC6633" stroke-width="0.489491"/>
<path d="M67.0216 149.397L61.4365 105.703H77.7929L72.6067 149.397H67.0216Z" fill="#7F7F7F"/>
<path d="M67.819 149.397L63.4307 105.703H75.7977L71.8083 149.397H67.819Z" fill="#999999"/>
<path d="M68.6168 149.397L65.8242 105.703H73.8029L71.0104 149.397H68.6168Z" fill="#B2B2B2"/>
<path d="M69.0161 149.397L67.8193 105.703H71.8087L70.6119 149.397H69.0161Z" fill="#CCCCCC"/>
<path d="M69.4146 149.397L69.0156 105.703H70.6114L70.2124 149.397H69.4146Z" fill="#E5E5E5"/>
<path d="M78.1917 8.55652L70.2129 3.60156H57.447L49.8672 8.55652H78.1917Z" fill="#4C4C7F"/>
<path d="M88.5635 8.5594L83.7762 5.40625H74.6007L69.8135 8.5594H88.5635Z" fill="#9999CC"/>
<path d="M71.8086 110.211L90.1597 111.262" stroke="#CC6633" stroke-width="0.489491"/>
<path d="M71.8086 115.766L90.1597 116.667" stroke="#CC6633" stroke-width="0.489491"/>
<path d="M71.8086 121.172L90.1597 122.073" stroke="#CC6633" stroke-width="0.489491"/>
<path d="M71.8086 126.578L90.1597 127.479" stroke="#CC6633" stroke-width="0.489491"/>
<path d="M65.4257 111.859L49.0693 112.76" stroke="#CC6633" stroke-width="0.489491"/>
<path d="M65.4257 117.266L49.0693 118.167" stroke="#CC6633" stroke-width="0.489491"/>
<path d="M65.4257 122.672L49.0693 123.573" stroke="#CC6633" stroke-width="0.489491"/>
</g>
<defs>
<clipPath id="clip0_2109_214484">
<rect width="150" height="150" fill="white"/>
</clipPath>
</defs>
</svg>
