<svg width="150" height="150" viewBox="0 0 150 150" fill="none" xmlns="http://www.w3.org/2000/svg">
<g clip-path="url(#clip0_2109_214303)">
<path d="M1.68945 120.719H147.635V124.473H1.68945V120.719Z" fill="#596666"/>
<path d="M1.68945 66.5156H147.635V70.2694H1.68945V66.5156Z" fill="#3F4C4C"/>
<path d="M1.68945 67.4141H147.635V69.366H1.68945V67.4141Z" fill="#A5B2B2"/>
<path d="M141.554 140.694L136.824 144.297L128.041 147.15L115.541 148.501L100.676 149.402L83.4459 150.003H65.8784L48.9865 149.402L34.1216 148.501L21.2838 147.15L12.5 144.297L8.10811 140.694V38.7416H0V27.6305H8.10811L12.5 19.9729L21.2838 13.2161L33.7838 7.66054L48.9865 3.75664L65.8784 1.80469H83.4459L100.676 3.75664L115.541 7.66054L128.041 13.2161L136.824 19.9729L141.216 27.6305H150V38.7416H141.554V140.694Z" fill="#727F7F"/>
<path d="M136.824 140.687L132.432 144.291L124.324 146.994L112.838 148.345L98.6485 149.396L83.108 149.847H66.8918L51.0134 149.396L37.162 148.345L25.3377 146.994L17.2296 144.291L13.1755 140.687V38.7355H5.40527V27.6244H13.1755L17.2296 19.9668L25.3377 13.21L36.8242 7.65444L51.0134 3.75054L66.8918 1.64844H83.108L98.6485 3.75054L112.838 7.65444L124.324 13.21L132.432 19.9668L136.486 27.6244H144.594V38.7355H136.824V140.687Z" fill="#7A8787"/>
<path d="M132.094 140.687L128.04 144.291L120.608 146.994L109.797 148.345L96.9592 149.396L82.4322 149.847H67.5673L53.0403 149.396L40.2024 148.345L29.3916 146.994L21.9592 144.291L17.9051 140.687V38.7355H10.8105V27.6244H17.9051L21.9592 19.9668L29.3916 13.21L39.8646 7.65444L53.0403 3.75054L67.5673 1.64844H82.4322L96.9592 3.75054L110.135 7.65444L120.608 13.21L128.04 19.9668L131.756 27.6244H139.189V38.7355H132.094V140.687Z" fill="#828F8F"/>
<path d="M127.027 140.687L123.648 144.291L116.554 146.994L106.756 148.345L94.932 149.396L81.7564 149.847H67.905L54.7293 149.396L42.905 148.345L33.1077 146.994L26.351 144.291L22.6347 140.687V38.7355H16.2158V27.6244H22.6347L26.351 19.9668L33.1077 13.21L42.905 7.65444L54.7293 3.75054L67.905 1.64844H81.7564L94.932 3.75054L106.756 7.65444L116.554 13.21L123.31 19.9668L127.027 27.6244H133.783V38.7355H127.027V140.687Z" fill="#899696"/>
<path d="M122.297 140.687L118.918 144.291L112.837 146.994L103.716 148.345L93.2427 149.396L81.0806 149.847H68.5806L56.7562 149.396L45.9454 148.345L37.1616 146.994L30.7427 144.291L27.7022 140.687V38.7355H21.6211V27.6244H27.7022L30.7427 19.9668L37.1616 13.21L45.9454 7.65444L56.7562 3.75054L68.5806 1.64844H81.0806L93.2427 3.75054L104.054 7.65444L112.837 13.21L118.918 19.9668L121.959 27.6244H128.378V38.7355H122.297V140.687Z" fill="#919E9E"/>
<path d="M117.568 140.687L114.527 144.291L108.784 146.994L101.014 148.345L91.2165 149.396L80.4057 149.847H69.2571L58.4463 149.396L48.9868 148.345L40.8787 146.994L35.1355 144.291L32.4327 140.687V38.7355H27.0273V27.6244H32.4327L35.1355 19.9668L40.8787 13.21L48.649 7.65444L58.4463 3.75054L69.2571 1.64844H80.4057L91.2165 3.75054L101.014 7.65444L108.784 13.21L114.527 19.9668L117.23 27.6244H122.635V38.7355H117.568V140.687Z" fill="#99A6A6"/>
<path d="M112.5 140.687L110.135 144.291L105.068 146.994L89.5273 149.396L80.0678 149.847H69.9327L60.4732 149.396L44.9327 146.994L39.8651 144.291L37.1624 140.687V38.7355H32.7705V27.6244H37.1624L39.8651 19.9668L44.9327 13.21L51.6894 7.65444L60.4732 3.75054L69.9327 1.64844H80.0678L89.5273 3.75054L97.9732 7.65444L105.068 13.21L110.135 19.9668L112.5 27.6244H117.23V38.7355H112.5V140.687Z" fill="#A0ADAD"/>
<path d="M107.77 140.687L105.743 144.291L101.351 146.994L87.5001 149.396L79.392 149.847L62.1623 149.396L48.6488 146.994L44.2569 144.291L42.2298 140.687V38.7355H38.1758V27.6244H42.2298L44.2569 19.9668L48.6488 13.21L54.7298 7.65444L62.1623 3.75054L70.6082 1.64844H79.392L87.5001 3.75054L94.9325 7.65444L101.351 13.21L105.406 19.9668L107.77 27.6244H111.824V38.7355H107.77V140.687Z" fill="#ABB8B8"/>
<path d="M103.041 140.687L97.2973 146.994L85.8108 149.396L78.7162 149.847L64.1892 149.396L52.7027 146.994L46.9594 140.687V38.7355H43.5811V27.6244H46.9594L48.9865 19.9668L52.7027 13.21L57.7702 7.65444L64.1892 3.75054L71.2838 1.64844H78.7162L85.8108 3.75054L92.2297 7.65444L97.2973 13.21L101.013 19.9668L103.041 27.6244H106.419V38.7355H103.041V140.687Z" fill="#B2BFBF"/>
<path d="M97.9728 140.687L93.5809 146.994L84.1215 149.396L78.0404 149.847L66.2161 149.396L56.4188 146.994L51.689 140.687V38.7355H48.9863V27.6244H51.689L53.3782 19.9668L56.4188 13.21L60.8107 7.65444L66.2161 3.75054L71.9593 1.64844H78.0404L84.1215 3.75054L89.189 7.65444L93.5809 13.21L96.6215 19.9668L97.9728 27.6244H101.013V38.7355H97.9728V140.687Z" fill="#BAC7C7"/>
<path d="M93.243 140.687L89.8646 146.994L82.0943 149.396L77.3646 149.847L67.9051 149.396L60.4727 146.994L56.7565 140.687V38.7355H54.3916V27.6244H56.7565L57.77 19.9668L60.4727 13.21L63.8511 7.65444L67.9051 3.75054L72.6348 1.64844H77.3646L82.0943 3.75054L86.1484 7.65444L89.8646 13.21L91.8916 19.9668L93.243 27.6244H95.6078V38.7355H93.243V140.687Z" fill="#C2CFCF"/>
<path d="M88.5131 140.687L85.8104 146.994L76.6888 149.847L66.8915 148.345L64.1888 146.994L61.4861 140.687V38.7355H59.7969V27.6244H61.4861L62.4996 19.9668L64.1888 13.21L66.5536 7.65444L69.932 3.75054L73.3104 1.64844H76.6888L80.405 3.75054L83.1077 7.65444L85.8104 13.21L87.4996 19.9668L88.5131 27.6244H90.2023V38.7355H88.5131V140.687Z" fill="#C9D6D6"/>
<path d="M83.4464 140.687L82.095 146.994L76.3518 149.847H73.9869L66.8923 144.291L66.5545 140.687V38.7355H65.2031V27.6244H66.5545L66.8923 19.9668L68.2437 13.21L69.595 7.65444L73.9869 1.64844H76.3518L80.4058 7.65444L82.095 13.21L83.1085 19.9668L83.4464 27.6244H84.7977V38.7355H83.4464V140.687Z" fill="#D1DEDE"/>
<path d="M74.6625 149.853C76.9014 149.853 78.7165 116.711 78.7165 75.8287C78.7165 34.9464 76.9014 1.80469 74.6625 1.80469C72.4235 1.80469 70.6084 34.9464 70.6084 75.8287C70.6084 116.711 72.4235 149.853 74.6625 149.853Z" fill="#D8E5E5"/>
<path d="M141.554 140.694L136.824 144.297L128.041 147.15L115.541 148.501L100.676 149.402L83.4459 150.003H65.8784L48.9865 149.402L34.1216 148.501L21.2838 147.15L12.5 144.297L8.10811 140.694V38.7416H0V27.6305H8.10811L12.5 19.9729L21.2838 13.2161L33.7838 7.66054L48.9865 3.75664L65.8784 1.80469H83.4459L100.676 3.75664L115.541 7.66054L128.041 13.2161L136.824 19.9729L141.216 27.6305H150V38.7416H141.554V140.694Z" stroke="black" stroke-width="0.45045"/>
<path d="M8.1084 38.7422H141.554" stroke="#596666" stroke-width="0.45045"/>
<path d="M1.68945 24.9219H6.08135V27.6246H1.68945V24.9219Z" fill="#727F7F" stroke="#3F4C4C" stroke-width="0.45045"/>
<path d="M10.1348 24.9219H14.5267V27.6246H10.1348V24.9219Z" fill="#727F7F" stroke="#3F4C4C" stroke-width="0.45045"/>
<path d="M18.5811 24.9219H22.6351V27.6246H18.5811V24.9219Z" fill="#727F7F" stroke="#3F4C4C" stroke-width="0.45045"/>
<path d="M27.0273 24.9219H31.0814V27.6246H27.0273V24.9219Z" fill="#727F7F" stroke="#3F4C4C" stroke-width="0.45045"/>
<path d="M35.1348 24.9219H39.5267V27.6246H35.1348V24.9219Z" fill="#727F7F" stroke="#3F4C4C" stroke-width="0.45045"/>
<path d="M43.5811 24.9219H47.6351V27.6246H43.5811V24.9219Z" fill="#727F7F" stroke="#3F4C4C" stroke-width="0.45045"/>
<path d="M51.6895 24.9219H56.0813V27.6246H51.6895V24.9219Z" fill="#727F7F" stroke="#3F4C4C" stroke-width="0.45045"/>
<path d="M60.1348 24.9219H64.5267V27.6246H60.1348V24.9219Z" fill="#727F7F" stroke="#3F4C4C" stroke-width="0.45045"/>
<path d="M68.5811 24.9219H72.6351V27.6246H68.5811V24.9219Z" fill="#727F7F" stroke="#3F4C4C" stroke-width="0.45045"/>
<path d="M77.0273 24.9219H81.0814V27.6246H77.0273V24.9219Z" fill="#727F7F" stroke="#3F4C4C" stroke-width="0.45045"/>
<path d="M85.4727 24.9219H89.5267V27.6246H85.4727V24.9219Z" fill="#727F7F" stroke="#3F4C4C" stroke-width="0.45045"/>
<path d="M93.5811 24.9219H97.6351V27.6246H93.5811V24.9219Z" fill="#727F7F" stroke="#3F4C4C" stroke-width="0.45045"/>
<path d="M101.689 24.9219H106.081V27.6246H101.689V24.9219Z" fill="#727F7F" stroke="#3F4C4C" stroke-width="0.45045"/>
<path d="M110.135 24.9219H114.527V27.6246H110.135V24.9219Z" fill="#727F7F" stroke="#3F4C4C" stroke-width="0.45045"/>
<path d="M118.581 24.9219H122.635V27.6246H118.581V24.9219Z" fill="#727F7F" stroke="#3F4C4C" stroke-width="0.45045"/>
<path d="M126.689 24.9219H130.744V27.6246H126.689V24.9219Z" fill="#727F7F" stroke="#3F4C4C" stroke-width="0.45045"/>
<path d="M135.135 24.9219H139.189V27.6246H135.135V24.9219Z" fill="#727F7F" stroke="#3F4C4C" stroke-width="0.45045"/>
<path d="M143.581 24.9219H147.635V27.6246H143.581V24.9219Z" fill="#727F7F" stroke="#3F4C4C" stroke-width="0.45045"/>
<path d="M8.1084 27.625H141.554" stroke="#D8E5E5" stroke-width="0.45045"/>
<path d="M72.6351 1.65165V0.750751H68.5811V0H81.0811V0.750751H76.6892V1.65165H72.6351Z" fill="#8C9999"/>
<path d="M74.6621 0.750751V0H81.081V0.750751H74.6621Z" fill="#D8E5E5"/>
<path d="M72.6351 1.65165V0.750751H68.5811V0H81.0811V0.750751H76.6892V1.65165H72.6351Z" stroke="black" stroke-width="0.45045"/>
<path d="M97.6351 6.30961V5.40871H93.5811V4.50781H106.081V5.40871H101.689V6.30961H97.6351Z" fill="#8C9999"/>
<path d="M99.6621 5.40871V4.50781H106.081V5.40871H99.6621Z" fill="#D8E5E5"/>
<path d="M97.6351 6.30961V5.40871H93.5811V4.50781H106.081V5.40871H101.689V6.30961H97.6351Z" stroke="black" stroke-width="0.45045"/>
<path d="M83.1078 6.30961V5.40871H79.0537V4.50781H91.5537V5.40871H87.1618V6.30961H83.1078Z" fill="#8C9999"/>
<path d="M85.1348 5.40871V4.50781H91.5537V5.40871H85.1348Z" fill="#D8E5E5"/>
<path d="M83.1078 6.30961V5.40871H79.0537V4.50781H91.5537V5.40871H87.1618V6.30961H83.1078Z" stroke="black" stroke-width="0.45045"/>
<path d="M127.027 124.927L131.081 121.773L138.176 123.575L134.122 126.728L127.027 124.927Z" fill="#596666"/>
<path d="M105.405 126.88L109.459 123.727L116.554 125.528L112.5 128.682L105.405 126.88Z" fill="#596666"/>
<path d="M83.1084 127.628L87.1625 124.625L94.257 126.427L90.203 129.58L83.1084 127.628Z" fill="#596666"/>
<path d="M56.0811 127.628L60.1351 124.625L67.2297 126.427L63.1756 129.58L56.0811 127.628Z" fill="#596666"/>
<path d="M33.1084 126.88L37.1625 123.727L44.257 125.528L40.203 128.682L33.1084 126.88Z" fill="#596666"/>
<path d="M10.1348 124.927L14.5267 121.773L21.2834 123.575L17.2294 126.728L10.1348 124.927Z" fill="#596666"/>
<path d="M127.027 123.575L134.122 121.773L138.176 124.927L131.081 126.728L127.027 123.575Z" fill="#596666"/>
<path d="M105.405 125.528L112.5 123.727L116.554 126.88L109.459 128.682L105.405 125.528Z" fill="#596666"/>
<path d="M83.1084 126.427L90.203 124.625L94.257 127.628L87.1625 129.58L83.1084 126.427Z" fill="#596666"/>
<path d="M56.0811 126.427L63.1756 124.625L67.2297 127.628L60.1351 129.58L56.0811 126.427Z" fill="#596666"/>
<path d="M33.1084 125.528L40.203 123.727L44.257 126.88L37.1625 128.682L33.1084 125.528Z" fill="#596666"/>
<path d="M10.1348 123.575L17.2294 121.773L21.2834 124.927L14.5267 126.728L10.1348 123.575Z" fill="#596666"/>
<path d="M128.379 122.375H136.487V126.129H128.379V122.375Z" fill="#596666"/>
<path d="M106.757 124.328H115.203V127.932H106.757V124.328Z" fill="#596666"/>
<path d="M84.7969 125.227H92.905V128.83H84.7969V125.227Z" fill="#596666"/>
<path d="M57.4326 125.227H65.5407V128.83H57.4326V125.227Z" fill="#596666"/>
<path d="M34.7969 124.328H42.905V127.932H34.7969V124.328Z" fill="#596666"/>
<path d="M11.8242 122.375H19.9323V126.129H11.8242V122.375Z" fill="#596666"/>
<path d="M131.419 123.57H135.811V125.372H131.419V123.57Z" fill="#192626"/>
<path d="M109.459 125.375H113.513V127.177H109.459V125.375Z" fill="#192626"/>
<path d="M86.4863 126.125H90.5404V127.927H86.4863V126.125Z" fill="#192626"/>
<path d="M59.459 126.125H63.513V127.927H59.459V126.125Z" fill="#192626"/>
<path d="M36.1484 125.375H40.2025V127.177H36.1484V125.375Z" fill="#192626"/>
<path d="M12.5 123.57H16.5541V125.372H12.5V123.57Z" fill="#192626"/>
<path d="M19.5946 56.4573C27.0579 56.4573 33.1081 53.7683 33.1081 50.4513C33.1081 47.1343 27.0579 44.4453 19.5946 44.4453C12.1313 44.4453 6.08105 47.1343 6.08105 50.4513C6.08105 53.7683 12.1313 56.4573 19.5946 56.4573Z" fill="#A5B2B2"/>
<path d="M8.78418 54.0507L11.149 55.2519L14.5274 56.0027L17.9058 56.4531H21.2842L25.0004 56.0027L28.0409 55.2519L30.4058 54.0507L32.095 52.6994L33.1085 51.1979V49.5462L32.095 48.0447L30.4058 46.6934L28.0409 45.4922L21.622 47.8946L24.3247 49.3961L24.6626 51.348L23.3112 53.1498L19.595 54.2009L15.5409 54.5012L11.4869 53.7504L9.79769 53.1498L8.78418 54.0507Z" fill="#727F7F"/>
<path d="M16.2165 54.3556C20.6945 54.3556 24.3246 52.7423 24.3246 50.752C24.3246 48.7618 20.6945 47.1484 16.2165 47.1484C11.7385 47.1484 8.1084 48.7618 8.1084 50.752C8.1084 52.7423 11.7385 54.3556 16.2165 54.3556Z" fill="#192626"/>
<path d="M19.5946 56.4573C27.0579 56.4573 33.1081 53.7683 33.1081 50.4513C33.1081 47.1343 27.0579 44.4453 19.5946 44.4453C12.1313 44.4453 6.08105 47.1343 6.08105 50.4513C6.08105 53.7683 12.1313 56.4573 19.5946 56.4573Z" stroke="black" stroke-width="0.45045"/>
</g>
<defs>
<clipPath id="clip0_2109_214303">
<rect width="150" height="150" fill="white"/>
</clipPath>
</defs>
</svg>
