<svg width="150" height="150" viewBox="0 0 150 150" fill="none" xmlns="http://www.w3.org/2000/svg">
<g clip-path="url(#clip0_2109_214069)">
<path d="M144.445 95.1983V92.1953H5.55566V95.1983H144.445Z" fill="#999933"/>
<path d="M144.445 94.7427V92.6406H5.55566V94.7427H144.445Z" fill="#CCCC33"/>
<path d="M144.445 94.295V93.0938H5.55566V94.295H144.445Z" fill="#FFFF00"/>
<path d="M144.445 95.1983V92.1953H5.55566V95.1983H144.445Z" stroke="black" stroke-width="0.47164"/>
<path d="M26.6664 0V6.15616H22.9627L26.6664 8.55856V15.6156H18.8887V56.1562L34.4442 81.2312H18.8887V90.5405L22.9627 93.6937L18.8887 94.4444V106.156H24.8146V128.078L42.222 149.85H107.407L124.815 128.078V106.156H130.741V94.4444L127.037 93.6937L130.741 90.5405V81.2312H115.185L130.741 56.1562V15.6156H122.963V8.55856L127.037 6.15616H122.963V0H26.6664Z" fill="#99A6A6"/>
<path d="M31.8515 0V6.15616H28.5182L31.8515 8.55856V15.4655H24.8145V56.1562L38.8885 81.0811H24.8145V90.5405L28.5182 93.6937L24.8145 94.4444V106.156H29.9996V127.928L45.5552 149.85H104.444L120 127.928V106.156H125.185V94.4444L121.481 93.6937L125.185 90.5405V81.0811H111.111L125.185 56.1562V15.4655H118.148V8.55856L121.481 6.15616H118.148V0H31.8515Z" fill="#9EABAB"/>
<path d="M37.0375 0V6.15616H33.7042L37.0375 8.55856V15.4655H30.7412V56.1562L42.9634 81.0811H30.7412V90.5405L33.7042 93.6937L30.7412 94.4444V106.156H35.1857V127.928L49.2597 149.85H100.741L114.815 127.928V106.156H119.26V94.4444L116.297 93.6937L119.26 90.5405V81.0811H107.038L119.26 56.1562V15.4655H112.963V8.55856L116.297 6.15616H112.963V0H37.0375Z" fill="#A3B0B0"/>
<path d="M41.8522 0V6.15616H39.2596L41.8522 8.55856V15.4655H36.667V56.1562L47.0374 81.0811H36.667V90.5405L39.2596 93.6937L36.667 94.4444V106.156H40.3707V127.928L52.5929 149.85H97.4077L109.63 127.928V106.156H113.334V94.4444L110.741 93.6937L113.334 90.5405V81.0811H102.963L113.334 56.1562V15.4655H108.148V8.55856L110.741 6.15616H108.148V0H41.8522Z" fill="#ABB8B8"/>
<path d="M46.6671 0V6.15616H44.4449L46.6671 8.55856V15.4655H42.2227V56.1562L51.4819 81.0811H42.2227V90.5405L44.4449 93.6937L42.2227 94.4444V106.156H45.556V127.928L55.9264 149.85H94.0745L104.445 127.928V106.156H107.778V94.4444L105.556 93.6937L107.778 90.5405V81.0811H98.519L107.778 56.1562V15.4655H103.334V8.55856L105.556 6.15616H103.334V0H46.6671Z" fill="#B0BDBD"/>
<path d="M51.8521 0V6.15616H50.0003L51.8521 8.55856V15.4655H48.1484V56.1562L55.5558 81.0811H48.1484V90.5405L50.0003 93.6937L48.1484 94.4444V106.156H50.741V127.928L59.2595 149.85H90.741L99.2596 127.928V106.156H101.852V94.4444L100 93.6937L101.852 90.5405V81.0811H94.4447L101.852 56.1562V15.4655H98.1484V8.55856L100 6.15616H98.1484V0H51.8521Z" fill="#B5C2C2"/>
<path d="M56.6671 0V6.15616H55.1856L56.6671 8.55856V15.4655H53.7041V56.1562L59.63 81.0811H53.7041V90.5405L55.1856 93.6937L53.7041 94.4444V106.156H55.9263V127.928L62.593 149.85H87.4078L94.0745 127.928V106.156H96.2967V94.4444L94.8152 93.6937L96.2967 90.5405V81.0811H90.3708L96.2967 56.1562V15.4655H93.3337V8.55856L94.8152 6.15616H93.3337V0H56.6671Z" fill="#BAC7C7"/>
<path d="M61.8521 0V6.15616H60.741L61.8521 8.55856V15.4655H59.6299V56.1562L64.0743 81.0811H59.6299V90.5405L60.741 93.6937L59.6299 94.4444V106.156H61.1114V127.928L65.9262 149.85H84.0743L88.8891 127.928V106.156H90.3706V94.4444L89.2595 93.6937L90.3706 90.5405V81.0811H86.2965L90.3706 56.1562V15.4655H88.5188V8.55856L89.2595 6.15616H88.5188V0H61.8521Z" fill="#C2CFCF"/>
<path d="M66.6668 0V6.15616H65.926L66.6668 8.55856V15.4655H65.5557V56.1562L68.1483 81.0811H65.5557V90.5405L65.926 93.6937L65.5557 94.4444V106.156H66.2964V127.928L69.6297 149.85H80.7409L83.7038 127.928V106.156H84.8149V94.4444L84.0742 93.6937L84.8149 90.5405V81.0811H81.852L84.8149 56.1562V15.4655H83.3334V8.55856L84.0742 6.15616H83.3334V0H66.6668Z" fill="#C7D4D4"/>
<path d="M71.4817 0V6.15616V8.55856V15.6156H71.1113V56.1562L72.2224 81.2312H71.1113V106.156H71.4817V128.078L72.5928 149.85H77.0373L78.5187 128.078V106.156H78.8891V81.2312H77.778L78.8891 56.1562V15.6156H78.1484V8.55856L78.5187 6.15616H78.1484V0H71.4817Z" fill="#CCD9D9"/>
<path d="M34.4443 81.2313V56.1562H115.185V81.2313H34.4443Z" fill="#727F7F"/>
<path d="M39.6299 81.0812V56.1562H110.371V81.0812H39.6299Z" fill="#7A8787"/>
<path d="M44.4443 81.0812V56.1562H105.555V81.0812H44.4443Z" fill="#828F8F"/>
<path d="M49.2588 81.0812V56.1562H100.74V81.0812H49.2588Z" fill="#899696"/>
<path d="M54.4443 81.0812V56.1562H95.5554V81.0812H54.4443Z" fill="#8F9C9C"/>
<path d="M59.2588 81.0812V56.1562H90.7403V81.0812H59.2588Z" fill="#96A3A3"/>
<path d="M64.4443 81.0812V56.1562H85.9258V81.0812H64.4443Z" fill="#9EABAB"/>
<path d="M69.2588 81.2313V56.1562H80.7403V81.2313H69.2588Z" fill="#A5B2B2"/>
<path d="M34.4443 81.2313V56.1562H115.185V81.2313H34.4443Z" stroke="black" stroke-width="0.47164"/>
<path d="M115.556 81.2313L130.741 56.1562H113.704V81.2313H115.556Z" fill="#A0ADAD" stroke="black" stroke-width="0.47164"/>
<path d="M34.4442 81.2313L18.8887 56.1562H36.2961V81.2313H34.4442Z" fill="#A0ADAD" stroke="black" stroke-width="0.47164"/>
<path d="M94.0738 81.2313L109.259 56.1562H90.3701V81.2313H94.0738Z" fill="#ABB8B8" stroke="black" stroke-width="0.47164"/>
<path d="M55.5553 81.2313L40.3701 56.1562H59.6294V81.2313H55.5553Z" fill="#ABB8B8" stroke="black" stroke-width="0.47164"/>
<path d="M36.2962 81.2313L22.9629 56.1562" stroke="black" stroke-width="0.47164"/>
<path d="M71.1113 56.1562H78.8891L77.0373 81.2313H72.9632L71.1113 56.1562Z" fill="#D8E5E5" stroke="black" stroke-width="0.47164"/>
<path d="M59.6294 81.2313L45.9257 56.1562H40.3701L55.5553 81.2313H59.6294Z" fill="#CCD9D9" stroke="black" stroke-width="0.47164"/>
<path d="M90.3701 81.2313L103.703 56.1562H109.629L94.0738 81.2313H90.3701Z" fill="#CCD9D9" stroke="black" stroke-width="0.47164"/>
<path d="M113.333 81.2313L127.037 56.1562H130.74L115.185 81.2313H113.333Z" fill="#BFCCCC" stroke="black" stroke-width="0.47164"/>
<path d="M36.2961 81.2313L22.9627 56.1562H18.8887L34.4442 81.2313H36.2961Z" fill="#BFCCCC" stroke="black" stroke-width="0.47164"/>
<path d="M22.9629 93.6953H127.037" stroke="#99A6A6" stroke-width="0.47164"/>
<path d="M130.741 94.4453H18.8887" stroke="#99A6A6" stroke-width="0.47164"/>
<path d="M24.8145 106.156H124.814" stroke="#99A6A6" stroke-width="0.47164"/>
<path d="M130.741 90.5391H18.8887" stroke="#99A6A6" stroke-width="0.47164"/>
<path d="M26.667 15.6172H122.963" stroke="#99A6A6" stroke-width="0.47164"/>
<path d="M28.5186 6.15625H121.111" stroke="#99A6A6" stroke-width="0.47164"/>
<path d="M18.8887 28.8281H130.741" stroke="#99A6A6" stroke-width="0.47164"/>
<path d="M130.741 42.1953H18.8887" stroke="#99A6A6" stroke-width="0.47164"/>
<path d="M51.8516 149.853L74.8145 148.352L98.1479 149.853H51.8516Z" fill="#99A6A6"/>
<path d="M21.1106 0H9.25879V13.2132H21.1106V0Z" fill="#8C9999"/>
<path d="M19.2595 0H11.1113V13.2132H19.2595V0Z" fill="#A5B2B2"/>
<path d="M17.0367 0H13.333V13.2132H17.0367V0Z" fill="#CCD9D9"/>
<path d="M21.1106 0H9.25879V13.2132H21.1106V0Z" stroke="black" stroke-width="0.47164"/>
<path d="M26.667 10.9609H15.1855V11.7117H26.667V10.9609Z" fill="#8C9999"/>
<path d="M26.667 1.5H15.1855V2.25075H26.667V1.5Z" fill="#8C9999"/>
<path d="M30.3701 1.64844H49.9997V5.40219H30.3701V1.64844Z" fill="#8C9999"/>
<path d="M65.1855 1.64844H84.4448V5.40219H65.1855V1.64844Z" fill="#8C9999"/>
<path d="M99.6299 1.64844H119.26V5.40219H99.6299V1.64844Z" fill="#8C9999"/>
<path d="M55.5558 24.9219H48.1484V28.075H55.5558V24.9219Z" fill="#263333"/>
<path d="M32.5922 24.9219H24.8145V28.075H32.5922V24.9219Z" fill="#263333"/>
<path d="M34.4443 37.3906H45.9258V41.2945H34.4443V37.3906Z" fill="#263333"/>
<path d="M57.4072 37.3906H69.2591V41.2945H57.4072V37.3906Z" fill="#263333"/>
<path d="M80.7402 37.3906H92.2217V41.2945H80.7402V37.3906Z" fill="#263333"/>
<path d="M71.1113 24.9219H78.8891V28.075H71.1113V24.9219Z" fill="#263333"/>
<path d="M94.0742 24.9219H101.852V28.075H94.0742V24.9219Z" fill="#263333"/>
<path d="M117.407 24.9219H124.815V28.075H117.407V24.9219Z" fill="#263333"/>
<path d="M103.704 37.3906H115.186V41.2945H103.704V37.3906Z" fill="#263333"/>
<path d="M55.5558 28.075H48.1484V24.9219" stroke="white" stroke-width="0.47164"/>
<path d="M32.5922 28.075H24.8145V24.9219" stroke="white" stroke-width="0.47164"/>
<path d="M71.1113 28.0781H78.8891" stroke="white" stroke-width="0.47164"/>
<path d="M94.0742 28.075H101.852V24.9219" stroke="white" stroke-width="0.47164"/>
<path d="M117.407 28.075H124.815V24.9219" stroke="white" stroke-width="0.47164"/>
<path d="M69.2588 41.2945H57.7773V37.3906" stroke="white" stroke-width="0.47164"/>
<path d="M46.2959 41.2945H34.8145V37.3906" stroke="white" stroke-width="0.47164"/>
<path d="M80.7402 41.2945H92.2217V37.3906" stroke="white" stroke-width="0.47164"/>
<path d="M103.704 41.2945H115.186V37.3906" stroke="white" stroke-width="0.47164"/>
<path d="M101.852 2.25H117.037V4.6524H101.852V2.25Z" fill="#263333"/>
<path d="M67.0371 2.25H82.5927V4.6524H67.0371V2.25Z" fill="#263333"/>
<path d="M32.5928 2.25H47.778V4.6524H32.5928V2.25Z" fill="#263333"/>
<path d="M22.9632 93.6968H127.037L128.889 92.1953H21.1113L22.9632 93.6968Z" fill="#596666"/>
<path d="M78.8889 95.1953L77.037 99.0992H72.9629L71.4814 95.1953H78.8889Z" fill="#ABB8B8"/>
<path d="M78.8889 95.1983V92.1953H71.4814V95.1983H78.8889Z" fill="#FFFF00"/>
<path d="M77.4076 94.7427V92.6406H72.5928V94.7427H77.4076Z" fill="#999933"/>
<path d="M76.2967 94.295V93.0938H73.7041V94.295H76.2967Z" fill="black"/>
<path d="M78.8889 95.1983V92.1953H71.4814V95.1983H78.8889Z" stroke="#666633" stroke-width="0.47164"/>
<path d="M26.667 7.05469H122.963V7.80544H26.667V7.05469Z" fill="#D8E5E5"/>
<path d="M18.8887 16.3672H130.741V17.1179H18.8887V16.3672Z" fill="#D8E5E5"/>
<path d="M18.8887 20.2734H130.741V21.0242H18.8887V20.2734Z" fill="#D8E5E5"/>
<path d="M18.8887 29.7266H130.741V30.4773H18.8887V29.7266Z" fill="#D8E5E5"/>
<path d="M18.8887 42.9453H130.741V43.6961H18.8887V42.9453Z" fill="#D8E5E5"/>
<path d="M18.8887 55.4062H130.741V56.157H18.8887V55.4062Z" fill="#D8E5E5"/>
<path d="M26.6664 0V6.15616H22.9627L26.6664 8.55856V15.6156H18.8887V56.1562L34.4442 81.2312H18.8887V90.5405L22.9627 93.6937L18.8887 94.4444V106.156H24.8146V128.078L42.222 149.85H107.407L124.815 128.078V106.156H130.741V94.4444L127.037 93.6937L130.741 90.5405V81.2312H115.185L130.741 56.1562V15.6156H122.963V8.55856L127.037 6.15616H122.963V0H26.6664Z" stroke="black" stroke-width="0.47164"/>
<path d="M136.666 19.5172C140.962 19.5172 144.444 18.1055 144.444 16.3641C144.444 14.6227 140.962 13.2109 136.666 13.2109C132.371 13.2109 128.889 14.6227 128.889 16.3641C128.889 18.1055 132.371 19.5172 136.666 19.5172Z" fill="#CCCC33" stroke="#999933" stroke-width="0.47164"/>
<path d="M148.149 18.7656H125.186V20.2671H148.149V18.7656Z" fill="#CCCC33" stroke="#999933" stroke-width="0.47164"/>
<path d="M150 20.2734H115.186V21.7749H150V20.2734Z" fill="#999933" stroke="#666633" stroke-width="0.47164"/>
<path d="M136.667 15.3125L134.074 16.3636L136.667 17.4146L139.63 16.3636L136.667 15.3125Z" fill="#999933"/>
<path d="M136.667 18.7657V13.9609" stroke="#999933" stroke-width="0.47164"/>
<path d="M0 49.1023L1.48148 48.3516H50V74.9281L1.48148 74.1774L0 73.4266V49.1023Z" fill="#BAC7C7" stroke="black" stroke-width="0.47164"/>
<path d="M50 48.3516H61.4815V74.1774L50 74.9281V48.3516Z" fill="#ABB8B8" stroke="black" stroke-width="0.47164"/>
<path d="M9.25977 71.7703H40.3709V51.5" stroke="#8C9999" stroke-width="0.47164"/>
<path d="M127.037 81.2305H122.963V78.8281H127.037V81.2305Z" fill="#8C9999"/>
<path d="M111.481 81.2305H107.777V78.8281H111.481V81.2305Z" fill="#8C9999"/>
<path d="M95.9264 81.2305H92.2227V78.8281H95.9264V81.2305Z" fill="#8C9999"/>
<path d="M80.7408 81.2305H77.0371V78.8281H80.7408V81.2305Z" fill="#8C9999"/>
<path d="M65.1851 81.2305H61.4814V78.8281H65.1851V81.2305Z" fill="#8C9999"/>
<path d="M49.9999 81.2305H45.9258V78.8281H49.9999V81.2305Z" fill="#8C9999"/>
<path d="M34.4439 81.2305H30.7402V78.8281H34.4439V81.2305Z" fill="#8C9999"/>
<path d="M22.9629 81.2305H30.7407V78.8281H22.9629V81.2305Z" fill="#C9D1D1"/>
<path d="M38.5186 81.2305H45.926V78.8281H38.5186V81.2305Z" fill="#C9D1D1"/>
<path d="M53.7041 81.2305H61.4819V78.8281H53.7041V81.2305Z" fill="#C9D1D1"/>
<path d="M69.2598 81.2305H77.0375V78.8281H69.2598V81.2305Z" fill="#C9D1D1"/>
<path d="M84.8145 81.2305H92.2219V78.8281H84.8145V81.2305Z" fill="#C9D1D1"/>
<path d="M100 81.2305H107.778V78.8281H100V81.2305Z" fill="#C9D1D1"/>
<path d="M115.556 81.2305H122.963V78.8281H115.556V81.2305Z" fill="#C9D1D1"/>
<path d="M22.9629 81.2305H34.4444V78.8281H22.9629V81.2305Z" stroke="black" stroke-width="0.47164"/>
<path d="M38.5186 81.2305H50V78.8281H38.5186V81.2305Z" stroke="black" stroke-width="0.47164"/>
<path d="M53.7041 81.2305H65.1856V78.8281H53.7041V81.2305Z" stroke="black" stroke-width="0.47164"/>
<path d="M69.2598 81.2305H80.7412V78.8281H69.2598V81.2305Z" stroke="black" stroke-width="0.47164"/>
<path d="M84.8145 81.2305H95.9256V78.8281H84.8145V81.2305Z" stroke="black" stroke-width="0.47164"/>
<path d="M100 81.2305H111.481V78.8281H100V81.2305Z" stroke="black" stroke-width="0.47164"/>
<path d="M115.556 81.2305H127.037V78.8281H115.556V81.2305Z" stroke="black" stroke-width="0.47164"/>
<path d="M124.815 106.156L122.963 110.06H28.1485L26.667 106.156H124.815Z" fill="#99A6A6"/>
<path d="M111.482 106.156L109.63 110.06H40.3704L38.5186 106.156H111.482Z" fill="#ABB8B8"/>
</g>
<defs>
<clipPath id="clip0_2109_214069">
<rect width="150" height="150" fill="white"/>
</clipPath>
</defs>
</svg>
