<svg width="150" height="150" viewBox="0 0 150 150" fill="none" xmlns="http://www.w3.org/2000/svg">
<g clip-path="url(#clip0_2109_214698)">
<path d="M103.791 149.548L84.5972 149.999H64.6919L46.2085 149.548L28.436 148.798L14.9289 147.746L4.9763 146.245L0 144.743V143.242L4.9763 141.891H144.313L150 143.242V144.743L144.313 146.245L135.071 147.746L120.853 148.798L103.791 149.548Z" fill="#727F7F" stroke="black" stroke-width="0.653427"/>
<path d="M103.791 147.9L84.5972 148.35H64.6919L46.2085 147.9L28.436 147.149L14.9289 146.098L4.9763 144.746L0 143.245V141.593L4.9763 140.242L14.9289 138.891H134.36L144.313 140.242L150 141.743V143.245L144.313 144.746L135.071 146.098L120.853 147.149L103.791 147.9Z" fill="#A5B2B2" stroke="black" stroke-width="0.653427"/>
<path fill-rule="evenodd" clip-rule="evenodd" d="M4.26562 142.193H145.024V142.643H4.26562V142.193ZM6.39833 143.694L142.18 140.841L142.891 141.292L7.10923 143.995L6.39833 143.694ZM12.7964 144.895L134.36 139.49L136.493 139.941L14.9291 145.346L12.7964 144.895ZM23.4599 146.247L122.986 138.439L125.83 138.739L27.0144 146.397L23.4599 146.247ZM37.6779 147.148L108.057 137.538L111.612 137.838L41.2324 147.298L37.6779 147.148ZM54.0287 147.748L90.2846 137.088L95.2609 137.238L59.005 147.898L54.0287 147.748ZM72.5121 147.898L71.8012 136.938H76.7775L77.4884 147.898H72.5121ZM90.9955 147.898L54.0287 137.238L58.2941 137.088L95.2609 147.748L90.9955 147.898ZM108.057 147.298L36.967 137.838L41.2324 137.538L112.323 147.148L108.057 147.298ZM122.986 146.397L22.749 138.739L26.3035 138.439L126.541 146.247L122.986 146.397ZM135.071 145.346L12.0855 139.941L14.2182 139.49L137.204 144.895L135.071 145.346ZM142.18 143.995L5.68743 141.292L7.10923 140.841L143.602 143.694L142.18 143.995Z" fill="#263333"/>
<path d="M137.914 89.9399L130.094 86.6366V33.3333L137.914 31.6817V17.4174L130.094 16.6667L125.829 12.1622L108.767 7.35736L90.284 4.95496L86.7295 3.3033V2.55255L82.4641 1.65165V0H66.8243V1.65165L62.5589 2.55255V3.3033L59.0044 4.95496L40.5209 7.35736L23.4593 12.1622L19.1939 16.6667L11.374 17.4174V31.6817L19.1939 33.3333V86.6366L11.374 89.9399V142.342L15.6394 143.544L36.2555 145.646L66.1134 146.697L98.8148 146.396L125.118 144.745L133.649 143.544L137.914 142.342V89.9399Z" fill="#596666"/>
<path d="M133.649 89.9399L125.829 86.6366V33.3333L133.649 31.6817V17.4174L125.829 16.6667L122.986 12.1622L106.635 7.35736L89.5733 4.95496L86.0188 3.3033V2.4024L82.4643 1.65165V0H67.5354V1.65165L63.9809 2.4024V3.3033L60.4264 4.95496L43.3648 7.35736L27.0141 12.1622L23.4596 16.6667L16.3506 17.4174V31.6817L23.4596 33.3333V86.6366L16.3506 89.9399V143.243L39.0994 145.646L66.8245 146.547L97.3932 146.246L121.564 144.745L133.649 143.243V89.9399Z" fill="#637070"/>
<path d="M128.673 89.9399L122.275 86.6366V33.3333L128.673 31.6817V17.4174L122.275 16.6667L119.431 12.1622L104.502 7.35736L88.8627 4.95496L85.3082 3.3033V2.4024L81.7537 1.65165V0H68.2465V1.65165L64.692 2.4024V3.3033L61.8484 4.95496L46.2086 7.35736L30.5688 12.1622L27.7252 16.6667L20.6162 17.4174V31.6817L27.7252 33.3333V86.6366L20.6162 89.9399V144.144L24.1707 144.595L54.0285 146.246L67.5356 146.547L95.9717 146.246L118.01 144.745L125.119 144.595L128.673 144.144V89.9399Z" fill="#6D7A7A"/>
<path d="M124.408 89.9399L118.01 86.6366V33.3333L124.408 31.6817V17.4174L118.01 16.6667L115.166 12.1622L101.659 7.35736L87.4411 4.95496L84.5975 3.3033V2.4024L81.043 1.65165V0H68.9577V1.65165L65.4032 2.4024V3.3033L62.5596 4.95496L40.5217 9.45946L31.28 15.015V16.6667L25.5928 17.4174V31.6817L31.28 33.3333V86.6366L25.5928 89.9399V144.595L28.4364 144.895L35.5454 144.745L56.1615 146.246L68.2468 146.547L93.8392 146.246L114.455 144.745L120.853 144.895L124.408 144.595V89.9399Z" fill="#788585"/>
<path d="M120.142 89.9399L114.455 86.6366V33.3333L120.142 31.6817V17.4174L114.455 16.6667L111.611 12.1622L98.8148 7.35736L86.0186 4.95496L83.175 3.3033V2.4024L80.3314 1.65165V0H69.6679V1.65165L66.1133 2.4024L63.9806 4.95496L43.3645 9.45946L35.5446 15.015V16.6667L29.8574 17.4174V31.6817L35.5446 33.3333V86.6366L29.8574 89.9399V144.895L32.701 145.195L39.0991 144.745L57.5825 146.246L68.9569 146.547L92.4167 146.246L110.9 144.745L116.587 145.195L120.142 144.895V89.9399Z" fill="#7F8C8C"/>
<path d="M115.166 89.9399L110.189 86.6366V33.3333L115.166 31.6817V17.4174L110.189 16.6667L108.057 12.1622L96.6823 7.35736L85.3079 4.95496L79.6207 1.65165V0H69.6681V1.65165L64.6918 4.95496L46.9193 9.45946L39.8103 15.015V16.6667L34.834 17.4174V31.6817L39.8103 33.3333V86.6366L34.834 89.9399V145.345L50.4738 145.646L69.6681 146.547L90.2842 146.246L115.166 145.345V89.9399Z" fill="#899696"/>
<path d="M110.901 89.9399L105.924 86.6366V33.3333L110.901 31.6817V17.4174L105.924 16.6667L104.502 12.1622L94.5498 7.35736L83.8863 4.95496L79.6209 1.65165V0H70.3792V1.65165L66.1138 4.95496L49.7631 9.45946L43.365 15.015V16.6667L39.0996 17.4174V31.6817L43.365 33.3333V86.6366L39.0996 89.9399V145.646L46.2086 145.946L52.6067 145.646L70.3792 146.547L96.6825 145.646L103.792 145.946L110.901 145.646V89.9399Z" fill="#94A1A1"/>
<path d="M105.924 89.9399L102.37 86.6366V33.3333L105.924 31.6817V17.4174L102.37 16.6667L100.237 12.1622L91.7065 7.35736L81.043 3.3033V2.4024L78.9103 1.65165V0H71.0904V1.65165L66.825 4.95496L52.6069 9.45946L47.6306 15.015V16.6667L43.3652 17.4174V31.6817L47.6306 33.3333V86.6366L43.3652 89.9399V145.946H45.4979L49.7633 146.096L55.4505 145.646L71.0904 146.547L93.8392 145.646L100.237 146.096L104.503 145.946H105.924V89.9399Z" fill="#9EABAB"/>
<path d="M101.658 89.9399L98.1039 86.6366V33.3333L101.658 31.6817V17.4174L98.1039 16.6667L96.6821 12.1622L89.573 7.35736L79.6204 3.3033V2.4024L78.1986 1.65165V0H71.8005V1.65165L68.246 4.95496L56.1607 9.45946L51.1844 15.015V16.6667L48.3408 17.4174V31.6817L51.1844 33.3333V86.6366L48.3408 89.9399V146.096L53.3171 146.246L58.2934 145.646L71.0896 146.547L90.9949 145.646L96.6821 146.246L101.658 146.096V89.9399Z" fill="#A8B5B5"/>
<path d="M97.3932 89.9399L94.5496 86.6366V33.3333L97.3932 31.6817V17.4174L94.5496 16.6667L93.1278 12.1622L86.7297 7.35736L78.9098 3.3033L77.488 0H71.8008V1.65165L70.379 2.4024L62.5591 7.35736L56.8718 12.1622L55.45 16.6667L52.6064 17.4174V31.6817L55.45 33.3333V86.6366L52.6064 89.9399V146.096L56.8718 146.396L61.1373 145.646L71.8008 146.547L88.8624 145.646L92.4169 146.396L97.3932 146.096V89.9399Z" fill="#B2BFBF"/>
<path d="M92.4171 89.9399L90.2844 86.6366V33.3333L92.4171 31.6817V17.4174L90.2844 16.6667L89.5735 12.1622L84.5972 7.35736L78.1991 3.3033L77.4882 0H72.5119L70.3792 4.95496L62.5593 9.45946L59.7157 15.015V16.6667L57.583 17.4174V31.6817L59.7157 33.3333V86.6366L57.583 89.9399V146.396L72.5119 146.547L92.4171 146.396V89.9399Z" fill="#BAC7C7"/>
<path d="M88.152 89.9399L86.0192 86.6366V33.3333L88.152 31.6817V17.4174L86.0192 16.6667L85.3083 12.1622L81.7538 7.35736L77.4884 3.3033L76.7775 0H73.223L71.8012 4.95496L66.114 9.45946L63.2704 15.015V16.6667L61.8486 17.4174V31.6817L63.2704 33.3333V86.6366L61.8486 89.9399V146.396L69.6685 146.246L73.223 146.547H76.7775L79.6211 146.246L88.152 146.396V89.9399Z" fill="#C4D1D1"/>
<path d="M83.1749 89.9399L82.464 86.6366V33.3333L83.1749 31.6817V17.4174L81.7531 12.1622L79.6204 7.35736L76.7768 2.4024L76.0659 0H73.9332L72.5114 4.95496L68.9569 9.45946L67.5351 15.015L66.1133 17.4174V31.6817L67.5351 33.3333V86.6366L66.1133 89.9399V146.396H68.246H69.6678L71.8005 146.246L73.9332 146.547H76.0659L78.1986 146.246L80.3313 146.396H81.7531H83.1749V89.9399Z" fill="#CEDBDB"/>
<path d="M74.6443 146.547C77 146.547 78.9097 113.741 78.9097 73.2733C78.9097 32.8056 77 0 74.6443 0C72.2886 0 70.3789 32.8056 70.3789 73.2733C70.3789 113.741 72.2886 146.547 74.6443 146.547Z" fill="#D8E5E5"/>
<path d="M137.914 89.9399L130.094 86.6366V33.3333L137.914 31.6817V17.4174L130.094 16.6667L125.829 12.1622L108.767 7.35736L90.284 4.95495L86.7295 3.3033V2.55255L82.4641 1.65165V0H66.8243V1.65165L62.5589 2.55255V3.3033L59.0044 4.95495L40.5209 7.35736L23.4593 12.1622L19.1939 16.6667L11.374 17.4174V31.6817L19.1939 33.3333V86.6366L11.374 89.9399V142.342L15.6394 143.544L36.2555 145.646L66.1134 146.697L98.8148 146.396L125.118 144.745L133.649 143.544L137.914 142.342V89.9399Z" stroke="black" stroke-width="0.653427"/>
<path d="M11.374 89.9375H137.914" stroke="#D8E5E5" stroke-width="0.653427"/>
<path d="M11.374 17.4141H137.914" stroke="#D8E5E5" stroke-width="0.653427"/>
<path d="M11.374 31.6797H137.914" stroke="#D8E5E5" stroke-width="0.653427"/>
<path d="M19.1943 86.6328H130.095" stroke="#8C9999" stroke-width="0.653427"/>
<path d="M19.1943 33.3359H130.095" stroke="#8C9999" stroke-width="0.653427"/>
<path d="M19.1943 16.6641H130.095" stroke="#8C9999" stroke-width="0.653427"/>
<path d="M59.0049 4.95312H90.2845" stroke="#8C9999" stroke-width="0.653427"/>
<path d="M62.5596 3.30469H86.7302" stroke="#8C9999" stroke-width="0.653427"/>
<path d="M66.8242 1.64844H83.1749" stroke="#8C9999" stroke-width="0.653427"/>
<path d="M39.099 139.943C45.3809 139.943 50.4734 138.464 50.4734 136.639C50.4734 134.815 45.3809 133.336 39.099 133.336C32.8171 133.336 27.7246 134.815 27.7246 136.639C27.7246 138.464 32.8171 139.943 39.099 139.943Z" fill="#8C9999"/>
<path d="M102.369 139.943C111.007 139.943 118.009 138.464 118.009 136.639C118.009 134.815 111.007 133.336 102.369 133.336C93.7317 133.336 86.7295 134.815 86.7295 136.639C86.7295 138.464 93.7317 139.943 102.369 139.943Z" fill="#A5B2B2"/>
<path d="M39.0992 138.887C43.418 138.887 46.9191 137.879 46.9191 136.635C46.9191 135.391 43.418 134.383 39.0992 134.383C34.7804 134.383 31.2793 135.391 31.2793 136.635C31.2793 137.879 34.7804 138.887 39.0992 138.887Z" fill="#3F4C4C"/>
<path d="M101.659 139.039C107.941 139.039 113.033 137.964 113.033 136.637C113.033 135.31 107.941 134.234 101.659 134.234C95.3767 134.234 90.2842 135.31 90.2842 136.637C90.2842 137.964 95.3767 139.039 101.659 139.039Z" fill="#596666"/>
<path d="M74.6447 116.513C83.2823 116.513 90.2845 115.034 90.2845 113.21C90.2845 111.385 83.2823 109.906 74.6447 109.906C66.0071 109.906 59.0049 111.385 59.0049 113.21C59.0049 115.034 66.0071 116.513 74.6447 116.513Z" fill="#A5B2B2"/>
<path d="M62.5594 115.312L59.7158 114.561L59.0049 113.81V112.909L59.7158 112.008L62.5594 111.258L65.403 110.657L68.2466 110.207L72.512 109.906H76.7774L81.0428 110.207L84.5973 110.657L87.4409 111.258" stroke="#F2FFFF" stroke-width="0.653427"/>
<path d="M89.573 112.016L90.2839 112.917V113.817L89.573 114.568L87.4403 115.319L84.5967 115.92L81.0422 116.37L76.7768 116.67H72.5113L68.2459 116.37L65.4023 115.92" stroke="#8C9999" stroke-width="0.653427"/>
<path d="M74.6441 124.928C78.9629 124.928 82.464 124.189 82.464 123.277C82.464 122.364 78.9629 121.625 74.6441 121.625C70.3253 121.625 66.8242 122.364 66.8242 123.277C66.8242 124.189 70.3253 124.928 74.6441 124.928Z" fill="#A5B2B2"/>
<path d="M68.246 124.328L67.5351 124.027L66.8242 123.577V123.127L67.5351 122.676L68.246 122.226L69.6678 121.925L71.8005 121.775L73.9332 121.625H76.0659L78.1986 121.775L79.6204 121.925L81.0422 122.226" stroke="#F2FFFF" stroke-width="0.653427"/>
<path d="M82.4642 122.672V123.122V123.573V124.023L81.0424 124.324L79.6206 124.624L78.1988 124.924L76.0661 125.074H73.9334L71.8007 124.924L69.668 124.624" stroke="#8C9999" stroke-width="0.653427"/>
<path d="M11.374 63.3672H19.1939V76.5804H11.374V63.3672Z" fill="#8C9999" stroke="black" stroke-width="0.653427"/>
<path d="M110.19 27.4752C114.509 27.4752 118.01 26.7357 118.01 25.8235C118.01 24.9113 114.509 24.1719 110.19 24.1719C105.871 24.1719 102.37 24.9113 102.37 25.8235C102.37 26.7357 105.871 27.4752 110.19 27.4752Z" fill="#A5B2B2"/>
<path d="M103.792 26.8746L102.37 26.4241V25.9737V25.5232V25.2229L103.792 24.7725L105.214 24.4722L106.636 24.322L109.479 24.1719H111.612L113.034 24.322L115.166 24.4722L116.588 24.7725" stroke="#F2FFFF" stroke-width="0.653427"/>
<path d="M117.298 25.2266L118.009 25.5269V25.9773L117.298 26.4278L116.587 26.8782L115.165 27.1785L113.033 27.3287L111.611 27.4788H109.478L107.346 27.3287L105.213 27.1785" stroke="#8C9999" stroke-width="0.653427"/>
<path d="M59.005 14.8644C67.6427 14.8644 74.6449 13.3855 74.6449 11.5611C74.6449 9.73675 67.6427 8.25781 59.005 8.25781C50.3674 8.25781 43.3652 9.73675 43.3652 11.5611C43.3652 13.3855 50.3674 14.8644 59.005 14.8644Z" fill="#596666"/>
<path d="M67.536 9.75685L62.5597 11.2584L70.3796 10.9581V12.3094L62.5597 12.0091L67.536 13.5106L61.8488 14.1112L59.0052 12.4596L55.4507 14.1112L50.4744 13.5106L55.4507 12.0091L46.9199 12.3094V10.9581L55.4507 11.2584L50.4744 9.75685L55.4507 9.15625L59.0052 10.8079L61.8488 9.15625L67.536 9.75685Z" fill="#BFCCCC"/>
<path d="M58.2938 12.314C60.2569 12.314 61.8483 11.9779 61.8483 11.5633C61.8483 11.1486 60.2569 10.8125 58.2938 10.8125C56.3307 10.8125 54.7393 11.1486 54.7393 11.5633C54.7393 11.9779 56.3307 12.314 58.2938 12.314Z" fill="#727F7F"/>
<path d="M137.915 93.3906H145.735V99.9972H137.915V93.3906Z" fill="#8C9999" stroke="black" stroke-width="0.653427"/>
<path d="M43.3652 119.969H51.1851V121.62H43.3652V119.969Z" fill="#263333"/>
<path d="M43.3652 125.078H51.1851V126.73H43.3652V125.078Z" fill="#263333"/>
<path d="M125.829 120.867H130.095V122.519H125.829V120.867Z" fill="#263333"/>
<path d="M125.829 118.32H130.095V119.972H125.829V118.32Z" fill="#263333"/>
</g>
<defs>
<clipPath id="clip0_2109_214698">
<rect width="150" height="150" fill="white"/>
</clipPath>
</defs>
</svg>
