<svg width="150" height="150" viewBox="0 0 150 150" fill="none" xmlns="http://www.w3.org/2000/svg">
<g clip-path="url(#clip0_2109_214381)">
<path d="M130.675 132.887L121.166 110.965L105.215 92.9468V91.4453H108.282L126.074 110.214L135.583 131.235L130.675 132.887Z" fill="#263333" stroke="black" stroke-width="0.429224"/>
<path d="M19.0183 132.887L28.5275 110.965L44.4784 92.9468V91.4453H41.411L23.6196 110.214L14.1104 131.235L19.0183 132.887Z" fill="#263333" stroke="black" stroke-width="0.429224"/>
<path d="M0 139.187H3.98773L8.89571 135.583L18.0982 132.73L31.5951 131.379L47.546 130.328L65.3374 129.877H84.3558L102.147 130.328L118.098 131.379L131.595 132.73L140.798 135.583L145.706 139.187H150V136.934L144.785 133.181L134.969 130.478L120.859 128.976L103.681 128.075L84.6626 127.625H65.0307L46.0123 128.075L28.8344 128.976L14.7239 130.478L4.90798 133.181L0 136.934V139.187Z" fill="#3F4C4C" stroke="black" stroke-width="0.429224"/>
<path d="M119.632 137.087L116.565 139.79L110.736 141.742L102.147 142.793L92.0247 143.393L80.675 143.844H69.0186L57.6689 143.393L47.5462 142.793L38.9572 141.742L33.129 139.79L30.0615 137.087V110.961H119.632V137.087Z" fill="#263333"/>
<path d="M116.564 136.937L113.497 139.64L108.282 141.742L100.307 142.793L91.1043 143.393L80.3681 143.844H69.3251L58.8957 143.393L49.3865 142.793L41.7178 141.742L36.1963 139.64L33.4355 136.937V110.961H116.564V136.937Z" fill="#2E3B3B"/>
<path d="M113.19 136.937L110.736 139.64L105.521 141.742L98.466 142.793L89.5703 143.393L80.0611 143.844H69.9384L60.1225 143.393L51.5335 142.793L44.1715 141.742L39.2636 139.64L36.8096 136.937V110.961H113.19V136.937Z" fill="#354242"/>
<path d="M109.816 136.937L107.668 139.64L103.067 141.742L96.3187 142.793L88.3432 143.393L79.4475 143.844H70.2451L61.3493 143.393L53.6806 142.793L46.9322 141.742L42.3309 139.64L39.877 136.937V110.961H109.816V136.937Z" fill="#3D4A4A"/>
<path d="M106.749 136.937L104.602 139.64L100.307 141.742L94.479 142.793L87.117 143.393L79.1415 143.844H70.8593L62.5771 143.393L55.5219 142.793L49.3869 141.742L45.3992 139.64L43.252 136.937V110.961H106.749V136.937Z" fill="#455252"/>
<path d="M103.375 136.937L101.534 139.64L97.8531 141.742L92.3316 142.793L85.8899 143.393L78.8347 143.844H71.166L63.804 143.393L57.669 142.793L52.1476 141.742L48.4666 139.64L46.3193 136.937V110.961H103.375V136.937Z" fill="#4C5959"/>
<path d="M100.307 136.937L98.4664 139.64L95.0921 141.742L90.4909 142.793L84.6627 143.393L78.221 143.844H71.4725L65.0308 143.393L59.5093 142.793L54.6013 141.742L51.2271 139.64L49.6934 136.937V110.961H100.307V136.937Z" fill="#546161"/>
<path d="M96.9324 136.937L95.3987 139.64L92.6379 141.742L88.3435 142.793L83.4355 143.393L77.914 143.844H72.0858L66.5643 143.393L61.3496 142.793L57.3619 141.742L54.2944 139.64L53.0674 136.937V110.961H96.9324V136.937Z" fill="#5E6B6B"/>
<path d="M93.8648 136.937L92.6378 139.64L90.1838 141.742L86.5029 142.793L82.2084 143.393L77.3004 143.844H72.3924L67.7912 143.393L63.4967 142.793L60.1225 141.742L57.3618 139.64L56.1348 136.937V110.961H93.8648V136.937Z" fill="#667373"/>
<path d="M90.4904 136.937L89.5701 139.64L87.4229 141.742L84.6622 142.793L80.9812 143.393L76.9935 143.844H73.0057L69.018 143.393L65.6438 142.793L62.5763 141.742L60.429 139.64L59.5088 136.937V110.961H90.4904V136.937Z" fill="#6D7A7A"/>
<path d="M87.4237 136.937L86.5034 139.64L84.9697 141.742L82.5157 142.793L79.755 143.393L76.6875 143.844H73.3132L70.2458 143.393L67.485 142.793L65.031 141.742L63.4973 139.64L62.8838 136.937V110.961H87.4237V136.937Z" fill="#758282"/>
<path d="M84.0493 136.937L83.4358 139.64L82.2088 141.742L80.3684 142.793L78.5279 143.393L76.0739 143.844H73.6199L71.4726 143.393L69.3254 142.793L67.7917 141.742L66.5647 139.64L65.9512 136.937V110.961H84.0493V136.937Z" fill="#7D8A8A"/>
<path d="M80.6749 136.937L80.3681 139.64L79.7546 141.742L78.5276 142.793L77.3007 143.393L75.7669 143.844H74.2332L72.6994 143.393L71.4724 142.793L70.2454 141.742L69.6319 139.64L69.3252 136.937V110.961H80.6749V136.937Z" fill="#849191"/>
<path d="M77.3006 137.087V139.79L76.9938 141.742L76.3803 142.793L76.0736 143.393L75.1533 143.844H74.5398L73.9263 143.393L73.3128 142.793L73.0061 141.742L72.3926 139.79V137.087V110.961H77.3006V137.087Z" fill="#8C9999"/>
<path d="M119.632 137.087L116.565 139.79L110.736 141.742L102.147 142.793L92.0247 143.393L80.675 143.844H69.0186L57.6689 143.393L47.5462 142.793L38.9572 141.742L33.129 139.79L30.0615 137.087V110.961H119.632V137.087Z" stroke="black" stroke-width="0.429224"/>
<path d="M19.0186 101.953H130.675V105.106H19.0186V101.953Z" fill="#596666"/>
<path d="M19.0186 56.1562H130.675V59.3094H19.0186V56.1562Z" fill="#3F4C4C"/>
<path d="M19.0186 56.9062H130.675V58.5579H19.0186V56.9062Z" fill="#A5B2B2"/>
<path d="M126.073 118.767L122.392 121.92L115.644 124.173L106.135 125.374L94.4782 126.125L81.5948 126.575H68.0979L55.2144 126.125L43.558 125.374L34.0488 124.173L27.3003 121.92L23.6193 118.767V32.7312H17.4844V23.2718H23.6193L27.3003 16.8153L34.0488 11.1096L43.558 6.45496L55.2144 3.15165L68.0979 1.5H81.5948L94.4782 3.15165L106.135 6.45496L115.644 11.1096L122.392 16.8153L125.767 23.2718H132.515V32.7312H126.073V118.767Z" fill="#727F7F"/>
<path d="M122.393 118.769L119.019 121.772L112.884 124.174L103.988 125.225L93.2517 126.126L81.2885 126.577H68.7118L56.7486 126.126L46.0124 125.225L37.1167 124.174L30.675 121.772L27.6075 118.769V32.7329H21.7793V23.2735H27.6075L30.675 16.817L37.1167 11.1113L45.7057 6.45667L56.7486 3.15336L68.7118 1.35156H81.2885L93.2517 3.15336L103.988 6.45667L112.884 11.1113L119.019 16.817L122.393 23.2735H128.221V32.7329H122.393V118.769Z" fill="#7A8787"/>
<path d="M118.711 118.769L115.644 121.772L109.816 124.174L101.84 125.225L91.7175 126.126L80.6746 126.577H69.3249L57.9752 126.126L48.1592 125.225L39.877 124.174L34.3556 121.772L31.2881 118.769V32.7329H25.7666V23.2735H31.2881L34.3556 16.817L39.877 11.1113L48.1592 6.45667L57.9752 3.15336L69.3249 1.35156H80.6746L91.7175 3.15336L101.84 6.45667L109.816 11.1113L115.644 16.817L118.711 23.2735H124.233V32.7329H118.711V118.769Z" fill="#828F8F"/>
<path d="M115.031 118.769L112.27 121.772L107.055 124.174L99.3867 125.225L90.491 126.126L80.3683 126.577H69.6321L59.5094 126.126L50.6137 125.225L42.945 124.174L37.7302 121.772L34.9695 118.769V32.7329H30.0615V23.2735H34.9695L37.7302 16.817L42.945 11.1113L50.3069 6.45667L59.5094 3.15336L69.6321 1.35156H80.3683L90.491 3.15336L99.3867 6.45667L107.055 11.1113L112.27 16.817L115.031 23.2735H119.939V32.7329H115.031V118.769Z" fill="#899696"/>
<path d="M111.349 118.769L108.895 121.772L103.987 124.174L88.9568 126.126L79.7544 126.577H70.2451L61.0427 126.126L46.012 124.174L41.104 121.772L38.6501 118.769V32.7329H34.0488V23.2735H38.6501L41.104 16.817L46.012 11.1113L52.7605 6.45667L61.0427 3.15336L70.2451 1.35156H79.7544L88.9568 3.15336L97.239 6.45667L103.987 11.1113L108.589 16.817L111.043 23.2735H115.951V32.7329H111.349V118.769Z" fill="#919E9E"/>
<path d="M107.669 118.769L105.215 121.772L100.92 124.174L87.4235 126.126L79.1413 126.577L62.2701 126.126L48.7732 124.174L44.4787 121.772L42.3315 118.769V32.7329H38.3438V23.2735H42.3315L44.4787 16.817L48.7732 11.1113L54.9082 6.45667L62.2701 3.15336L70.5523 1.35156H79.1413L87.4235 3.15336L95.0922 6.45667L100.92 11.1113L105.215 16.817L107.362 23.2735H111.657V32.7329H107.669V118.769Z" fill="#99A6A6"/>
<path d="M103.987 118.769L101.84 121.772L98.1592 124.174L86.196 126.126L78.834 126.577L63.8033 126.126L51.8401 124.174L48.1592 121.772L46.0119 118.769V32.7329H42.6377V23.2735H46.0119L48.1592 16.817L51.8401 11.1113L57.3616 6.45667L63.8033 3.15336L71.1653 1.35156H78.834L86.196 3.15336L92.6377 6.45667L98.1592 11.1113L101.84 16.817L103.681 23.2735H107.362V32.7329H103.987V118.769Z" fill="#A0ADAD"/>
<path d="M100 118.769L98.4665 121.772L95.0922 124.174L84.6628 126.126L78.2211 126.577L65.3376 126.126L54.9082 124.174L51.534 121.772L50.0002 118.769V32.7329H46.626V23.2735H50.0002L51.534 16.817L54.9082 11.1113L59.5094 6.45667L65.3376 3.15336L71.7794 1.35156H78.2211L84.6628 3.15336L90.491 6.45667L95.0922 11.1113L98.4665 16.817L100 23.2735H103.374V32.7329H100V118.769Z" fill="#ABB8B8"/>
<path d="M96.3187 118.769L92.331 124.174L83.4353 126.126L77.9138 126.577L66.8708 126.126L57.9751 124.174L53.6807 118.769V32.7329H50.9199V23.2735H53.6807L54.9077 16.817L57.9751 11.1113L61.6561 6.45667L66.8708 3.15336L72.0856 1.35156H77.9138L83.4353 3.15336L88.0365 6.45667L92.331 11.1113L94.785 16.817L96.3187 23.2735H99.0794V32.7329H96.3187V118.769Z" fill="#B2BFBF"/>
<path d="M92.6382 118.769L89.2639 124.174L81.902 126.126L77.3007 126.577L68.0983 126.126L60.7363 124.174L57.3621 118.769V32.7329H55.2148V23.2735H57.3621L58.5891 16.817L60.7363 11.1113L64.1105 6.45667L68.0983 3.15336L72.6995 1.35156H77.3007L81.902 3.15336L85.8897 6.45667L89.2639 11.1113L91.4112 16.817L92.6382 23.2735H95.0921V32.7329H92.6382V118.769Z" fill="#BAC7C7"/>
<path d="M88.9568 118.769L86.196 124.174L76.9936 126.577L66.5641 125.225L63.8034 124.174L61.0426 118.769V32.7329H59.2021V23.2735H61.0426L61.9629 16.817L63.8034 11.1113L66.2574 6.45667L73.0058 1.35156H76.9936L80.3678 3.15336L83.742 6.45667L86.196 11.1113L88.0365 16.817L88.9568 23.2735H90.7972V32.7329H88.9568V118.769Z" fill="#C2CFCF"/>
<path d="M85.2762 118.769L83.4357 124.174L76.3805 126.577L66.8713 124.174L64.7241 118.769V32.7329H63.4971V23.2735H64.7241L65.3376 16.817L66.8713 11.1113L68.7118 6.45667L73.6198 1.35156H76.3805L81.2885 6.45667L83.4357 11.1113L84.6627 16.817L85.2762 23.2735H86.81V32.7329H85.2762V118.769Z" fill="#C9D6D6"/>
<path d="M81.5948 118.769L80.3678 124.174L76.0733 126.577H74.2328L68.7114 121.772L68.4046 118.769V32.7329H67.4844V23.2735H68.4046L68.7114 16.817L69.6316 11.1113L70.8586 6.45667L74.2328 1.35156H76.0733L79.1408 6.45667L80.3678 11.1113L81.2881 16.817L81.5948 23.2735H82.5151V32.7329H81.5948V118.769Z" fill="#D1DEDE"/>
<path d="M74.8468 126.425C76.5409 126.425 77.9143 98.4595 77.9143 63.9625C77.9143 29.4654 76.5409 1.5 74.8468 1.5C73.1527 1.5 71.7793 29.4654 71.7793 63.9625C71.7793 98.4595 73.1527 126.425 74.8468 126.425Z" fill="#D8E5E5"/>
<path d="M126.073 118.767L122.392 121.92L115.644 124.173L106.135 125.374L94.4782 126.125L81.5948 126.575H68.0979L55.2144 126.125L43.558 125.374L34.0488 124.173L27.3003 121.92L23.6193 118.767V32.7312H17.4844V23.2718H23.6193L27.3003 16.8153L34.0488 11.1096L43.558 6.45495L55.2144 3.15165L68.0979 1.5H81.5948L94.4782 3.15165L106.135 6.45495L115.644 11.1096L122.392 16.8153L125.767 23.2718H132.515V32.7312H126.073V118.767Z" stroke="black" stroke-width="0.429224"/>
<path d="M23.6191 32.7344H126.073" stroke="#596666" stroke-width="0.429224"/>
<path d="M19.0186 21.0234H22.086V23.2757H19.0186V21.0234Z" fill="#727F7F" stroke="#3F4C4C" stroke-width="0.429224"/>
<path d="M25.46 21.0234H28.5274V23.2757H25.46V21.0234Z" fill="#727F7F" stroke="#3F4C4C" stroke-width="0.429224"/>
<path d="M31.5947 21.0234H34.969V23.2757H31.5947V21.0234Z" fill="#727F7F" stroke="#3F4C4C" stroke-width="0.429224"/>
<path d="M38.0371 21.0234H41.4113V23.2757H38.0371V21.0234Z" fill="#727F7F" stroke="#3F4C4C" stroke-width="0.429224"/>
<path d="M44.4785 21.0234H47.8527V23.2757H44.4785V21.0234Z" fill="#727F7F" stroke="#3F4C4C" stroke-width="0.429224"/>
<path d="M50.9199 21.0234H53.9874V23.2757H50.9199V21.0234Z" fill="#727F7F" stroke="#3F4C4C" stroke-width="0.429224"/>
<path d="M57.3623 21.0234H60.4298V23.2757H57.3623V21.0234Z" fill="#727F7F" stroke="#3F4C4C" stroke-width="0.429224"/>
<path d="M63.8037 21.0234H66.8712V23.2757H63.8037V21.0234Z" fill="#727F7F" stroke="#3F4C4C" stroke-width="0.429224"/>
<path d="M69.9385 21.0234H73.3127V23.2757H69.9385V21.0234Z" fill="#727F7F" stroke="#3F4C4C" stroke-width="0.429224"/>
<path d="M76.3809 21.0234H79.7551V23.2757H76.3809V21.0234Z" fill="#727F7F" stroke="#3F4C4C" stroke-width="0.429224"/>
<path d="M82.8223 21.0234H86.1965V23.2757H82.8223V21.0234Z" fill="#727F7F" stroke="#3F4C4C" stroke-width="0.429224"/>
<path d="M89.2637 21.0234H92.3312V23.2757H89.2637V21.0234Z" fill="#727F7F" stroke="#3F4C4C" stroke-width="0.429224"/>
<path d="M95.7051 21.0234H98.7726V23.2757H95.7051V21.0234Z" fill="#727F7F" stroke="#3F4C4C" stroke-width="0.429224"/>
<path d="M102.147 21.0234H105.215V23.2757H102.147V21.0234Z" fill="#727F7F" stroke="#3F4C4C" stroke-width="0.429224"/>
<path d="M108.282 21.0234H111.656V23.2757H108.282V21.0234Z" fill="#727F7F" stroke="#3F4C4C" stroke-width="0.429224"/>
<path d="M114.724 21.0234H117.791V23.2757H114.724V21.0234Z" fill="#727F7F" stroke="#3F4C4C" stroke-width="0.429224"/>
<path d="M121.166 21.0234H124.234V23.2757H121.166V21.0234Z" fill="#727F7F" stroke="#3F4C4C" stroke-width="0.429224"/>
<path d="M127.607 21.0234H130.675V23.2757H127.607V21.0234Z" fill="#727F7F" stroke="#3F4C4C" stroke-width="0.429224"/>
<path d="M23.6201 23.2734H126.074" stroke="#D8E5E5" stroke-width="0.429224"/>
<path d="M73.3127 1.35135V0.600601H69.9385V0H79.7544V0.600601H76.3802V1.35135H73.3127Z" fill="#8C9999"/>
<path d="M74.8467 0.600601V0H79.7547V0.600601H74.8467Z" fill="#D8E5E5"/>
<path d="M73.3127 1.35135V0.600601H69.9385V0H79.7544V0.600601H76.3802V1.35135H73.3127Z" stroke="black" stroke-width="0.429224"/>
<path d="M92.3312 5.2515V4.50075H89.2637V3.75H98.7729V4.50075H95.3986V5.2515H92.3312Z" fill="#8C9999"/>
<path d="M93.8652 4.50075V3.75H98.7732V4.50075H93.8652Z" fill="#D8E5E5"/>
<path d="M92.3312 5.2515V4.50075H89.2637V3.75H98.7729V4.50075H95.3986V5.2515H92.3312Z" stroke="black" stroke-width="0.429224"/>
<path d="M81.2883 5.2515V4.50075H77.9141V3.75H87.73V4.50075H84.3558V5.2515H81.2883Z" fill="#8C9999"/>
<path d="M82.8223 4.50075V3.75H87.7302V4.50075H82.8223Z" fill="#D8E5E5"/>
<path d="M81.2883 5.2515V4.50075H77.9141V3.75H87.73V4.50075H84.3558V5.2515H81.2883Z" stroke="black" stroke-width="0.429224"/>
<path d="M114.724 105.404L118.098 102.852L123.313 104.353L120.245 107.056L114.724 105.404Z" fill="#596666"/>
<path d="M98.1592 107.054L101.533 104.352L106.748 106.003L103.681 108.556L98.1592 107.054Z" fill="#596666"/>
<path d="M81.2881 107.804L84.3556 105.102L89.877 106.753L86.8096 109.306L81.2881 107.804Z" fill="#596666"/>
<path d="M60.4297 107.804L63.4972 105.102L69.0186 106.753L65.9512 109.306L60.4297 107.804Z" fill="#596666"/>
<path d="M42.9443 107.054L46.0118 104.352L51.5333 106.003L48.4658 108.556L42.9443 107.054Z" fill="#596666"/>
<path d="M25.46 105.404L28.5274 102.852L34.0489 104.353L30.6747 107.056L25.46 105.404Z" fill="#596666"/>
<path d="M114.724 104.353L120.245 102.852L123.313 105.404L118.098 107.056L114.724 104.353Z" fill="#596666"/>
<path d="M98.1592 106.003L103.681 104.352L106.748 107.054L101.533 108.556L98.1592 106.003Z" fill="#596666"/>
<path d="M81.2881 106.753L86.8096 105.102L89.877 107.804L84.3556 109.306L81.2881 106.753Z" fill="#596666"/>
<path d="M60.4297 106.753L65.9512 105.102L69.0186 107.804L63.4972 109.306L60.4297 106.753Z" fill="#596666"/>
<path d="M42.9443 106.003L48.4658 104.352L51.5333 107.054L46.0118 108.556L42.9443 106.003Z" fill="#596666"/>
<path d="M25.46 104.353L30.6747 102.852L34.0489 105.404L28.5274 107.056L25.46 104.353Z" fill="#596666"/>
<path d="M115.951 103.305H122.393V106.458H115.951V103.305Z" fill="#596666"/>
<path d="M99.3867 104.953H105.828V108.106H99.3867V104.953Z" fill="#596666"/>
<path d="M82.5156 105.703H88.6506V108.856H82.5156V105.703Z" fill="#596666"/>
<path d="M61.6562 105.703H67.7912V108.856H61.6562V105.703Z" fill="#596666"/>
<path d="M44.1719 104.953H50.3068V108.106H44.1719V104.953Z" fill="#596666"/>
<path d="M26.3809 103.305H32.8226V106.458H26.3809V103.305Z" fill="#596666"/>
<path d="M118.405 104.352H121.473V105.853H118.405V104.352Z" fill="#192626"/>
<path d="M101.227 105.859H104.601V107.361H101.227V105.859Z" fill="#192626"/>
<path d="M83.7422 106.453H87.1164V108.105H83.7422V106.453Z" fill="#192626"/>
<path d="M63.1904 106.453H66.2579V108.105H63.1904V106.453Z" fill="#192626"/>
<path d="M45.0918 105.859H48.466V107.361H45.0918V105.859Z" fill="#192626"/>
<path d="M26.9941 104.352H30.0616V105.853H26.9941V104.352Z" fill="#192626"/>
<path d="M32.5154 47.6008C38.2754 47.6008 42.9448 45.3152 42.9448 42.4957C42.9448 39.6763 38.2754 37.3906 32.5154 37.3906C26.7554 37.3906 22.0859 39.6763 22.0859 42.4957C22.0859 45.3152 26.7554 47.6008 32.5154 47.6008Z" fill="#A5B2B2"/>
<path d="M24.2334 45.6447L26.0739 46.5456L28.5279 47.2964L31.2886 47.5967H34.0493L36.5033 47.2964L38.9573 46.5456L40.7978 45.6447L42.3316 44.4435L42.9451 43.2423V41.891L42.3316 40.5396L40.7978 39.3384L38.9573 38.4375L34.0493 40.3895L36.1966 41.7408L36.5033 43.2423L35.2763 44.7438L32.5156 45.7949L29.4481 45.945L26.3806 45.3444L25.1536 44.7438L24.2334 45.6447Z" fill="#727F7F"/>
<path d="M30.0617 45.7951C33.45 45.7951 36.1967 44.4506 36.1967 42.7921C36.1967 41.1336 33.45 39.7891 30.0617 39.7891C26.6735 39.7891 23.9268 41.1336 23.9268 42.7921C23.9268 44.4506 26.6735 45.7951 30.0617 45.7951Z" fill="#192626"/>
<path d="M32.5154 47.6008C38.2754 47.6008 42.9448 45.3152 42.9448 42.4957C42.9448 39.6763 38.2754 37.3906 32.5154 37.3906C26.7554 37.3906 22.0859 39.6763 22.0859 42.4957C22.0859 45.3152 26.7554 47.6008 32.5154 47.6008Z" stroke="black" stroke-width="0.429224"/>
<path d="M53.9875 148.496L57.3617 121.92L65.3372 108.556V107.055H61.963L52.4538 121.169L47.8525 147.745L53.9875 148.496Z" fill="#BFCCCC" stroke="black" stroke-width="0.429224"/>
<path d="M95.7052 148.496L92.3309 121.92L84.3555 108.556V107.055H87.7297L97.2389 121.169L101.84 147.745L95.7052 148.496Z" fill="#BFCCCC" stroke="black" stroke-width="0.429224"/>
<path d="M23.6198 146.845L31.5952 120.269L47.5462 107.806V106.305H44.4787L26.994 119.518L19.0186 146.094L23.6198 146.845Z" fill="#A5B2B2" stroke="black" stroke-width="0.429224"/>
<path d="M126.074 146.845L118.098 120.269L102.147 107.806V106.305H105.215L122.7 119.518L130.675 146.094L126.074 146.845Z" fill="#A5B2B2" stroke="black" stroke-width="0.429224"/>
<path d="M145.092 139.942L135.583 117.119L119.632 106.308V104.656H122.699L140.491 116.368L150 136.788L145.092 139.942Z" fill="#8C9999" stroke="black" stroke-width="0.429224"/>
<path d="M4.60123 139.942L14.1104 117.119L30.0614 106.308V104.656H26.9939L9.20245 116.368L0 136.788L4.60123 139.942Z" fill="#8C9999" stroke="black" stroke-width="0.429224"/>
<path d="M150 136.484H145.706L140.798 140.839L131.595 143.992L118.098 145.644L102.147 146.695L84.3558 147.295H65.3374L47.546 146.695L31.5951 145.644L18.0982 143.992L8.89571 140.839L3.98773 136.484H0V139.187L4.90798 143.391L14.7239 146.695L28.8344 148.196L46.0123 149.397L65.0307 149.848H84.6626L103.681 149.397L120.859 148.196L134.969 146.695L144.785 143.391L150 139.187V136.484Z" fill="#8C9999" stroke="black" stroke-width="0.429224"/>
</g>
<defs>
<clipPath id="clip0_2109_214381">
<rect width="150" height="150" fill="white"/>
</clipPath>
</defs>
</svg>
