<svg width="150" height="150" viewBox="0 0 150 150" fill="none" xmlns="http://www.w3.org/2000/svg">
<g clip-path="url(#clip0_2109_213945)">
<path d="M144.231 95.1983V92.1953H9.375V95.1983H144.231Z" fill="#999933"/>
<path d="M144.231 94.7427V92.6406H9.375V94.7427H144.231Z" fill="#CCCC33"/>
<path d="M144.231 94.295V93.0938H9.375V94.295H144.231Z" fill="#FFFF00"/>
<path d="M144.231 95.1983V92.1953H9.375V95.1983H144.231Z" stroke="black" stroke-width="0.465363"/>
<path d="M29.9276 0V6.15616H25.9612L29.9276 8.55856V15.6156H22.3555V56.1562L37.4997 81.2312H22.3555V90.5405L25.9612 93.6937L22.3555 94.4444V106.156H28.1247V128.078L45.0718 149.85H108.533L125.48 128.078V106.156H131.25V94.4444L127.283 93.6937L131.25 90.5405V81.2312H116.105L131.25 56.1562V15.6156H123.678V8.55856L127.283 6.15616H123.678V0H29.9276Z" fill="#99A6A6"/>
<path d="M34.976 0V6.15616H31.3702L34.976 8.55856V15.4655H28.125V56.1562L41.4663 81.0811H28.125V90.5405L31.3702 93.6937L28.125 94.4444V106.156H33.1731V127.928L48.3173 149.85H105.288L120.433 127.928V106.156H125.481V94.4444L122.236 93.6937L125.481 90.5405V81.0811H112.139L125.481 56.1562V15.4655H118.99V8.55856L122.236 6.15616H118.99V0H34.976Z" fill="#9EABAB"/>
<path d="M39.6638 0V6.15616H36.7791L39.6638 8.55856V15.4655H33.8945V56.1562L45.7936 81.0811H33.8945V90.5405L36.7791 93.6937L33.8945 94.4444V106.156H38.2215V127.928L51.5628 149.85H102.044L115.385 127.928V106.156H120.072V94.4444L117.188 93.6937L120.072 90.5405V81.0811H108.173L120.072 56.1562V15.4655H113.943V8.55856L117.188 6.15616H113.943V0H39.6638Z" fill="#A3B0B0"/>
<path d="M44.7114 0V6.15616H41.8268L44.7114 8.55856V15.4655H39.3027V56.1562L49.7595 81.0811H39.3027V90.5405L41.8268 93.6937L39.3027 94.4444V106.156H43.2691V127.928L54.8075 149.85H98.7979L110.336 127.928V106.156H114.303V94.4444L111.779 93.6937L114.303 90.5405V81.0811H103.846L114.303 56.1562V15.4655H109.255V8.55856L111.779 6.15616H109.255V0H44.7114Z" fill="#ABB8B8"/>
<path d="M49.3992 0V6.15616H47.2357L49.3992 8.55856V15.4655H45.0723V56.1562L53.7261 81.0811H45.0723V90.5405L47.2357 93.6937L45.0723 94.4444V106.156H48.3175V127.928L58.4136 149.85H95.553L105.289 127.928V106.156H108.534V94.4444L106.37 93.6937L108.534 90.5405V81.0811H99.88L108.534 56.1562V15.4655H104.207V8.55856L106.37 6.15616H104.207V0H49.3992Z" fill="#B0BDBD"/>
<path d="M54.4468 0V6.15616H52.2834L54.4468 8.55856V15.4655H50.4805V56.1562L58.0526 81.0811H50.4805V90.5405L52.2834 93.6937L50.4805 94.4444V106.156H53.3651V127.928L61.6584 149.85H92.3074L100.24 127.928V106.156H103.125V94.4444L101.322 93.6937L103.125 90.5405V81.0811H95.9132L103.125 56.1562V15.4655H99.5189V8.55856L101.322 6.15616H99.5189V0H54.4468Z" fill="#B5C2C2"/>
<path d="M59.1346 0V6.15616H57.6923L59.1346 8.55856V15.4655H56.25V56.1562L62.0192 81.0811H56.25V90.5405L57.6923 93.6937L56.25 94.4444V106.156H58.4135V127.928L64.9038 149.85H89.0625L95.1923 127.928V106.156H97.3558V94.4444L95.9135 93.6937L97.3558 90.5405V81.0811H91.5865L97.3558 56.1562V15.4655H94.4712V8.55856L95.9135 6.15616H94.4712V0H59.1346Z" fill="#BAC7C7"/>
<path d="M63.8224 0V6.15616H63.1013L63.8224 8.55856V15.4655H62.0195V56.1562L65.9859 81.0811H62.0195V90.5405L63.1013 93.6937L62.0195 94.4444V106.156H63.4618V127.928L68.1493 149.85H85.8176L90.1445 127.928V106.156H91.9474V94.4444L90.8657 93.6937L91.9474 90.5405V81.0811H87.6205L91.9474 56.1562V15.4655H89.784V8.55856L90.8657 6.15616H89.784V0H63.8224Z" fill="#C2CFCF"/>
<path d="M68.87 0V6.15616H68.1489L68.87 8.55856V15.4655H67.4277V56.1562L70.3123 81.0811H67.4277V90.5405L68.1489 93.6937L67.4277 94.4444V106.156H68.5095V127.928L71.3941 149.85H82.2114L85.4566 127.928V106.156H86.1777V94.4444L85.8172 93.6937L86.1777 90.5405V81.0811H83.6537L86.1777 56.1562V15.4655H85.096V8.55856L85.8172 6.15616H85.096V0H68.87Z" fill="#C7D4D4"/>
<path d="M73.5578 0V6.15616H73.1973L73.5578 8.55856V15.6156H73.1973V56.1562L74.279 81.2312H73.1973V106.156H73.5578V128.078L74.6396 149.85H78.9665L80.0482 128.078V106.156H80.4088V81.2312H79.3271L80.4088 56.1562V15.6156H80.0482V8.55856L80.4088 6.15616H80.0482V0H73.5578Z" fill="#CCD9D9"/>
<path d="M37.5 81.2313V56.1562H116.106V81.2313H37.5Z" fill="#727F7F"/>
<path d="M42.1875 81.0812V56.1562H111.418V81.0812H42.1875Z" fill="#7A8787"/>
<path d="M47.2354 81.0812V56.1562H106.731V81.0812H47.2354Z" fill="#828F8F"/>
<path d="M51.9229 81.0812V56.1562H101.682V81.0812H51.9229Z" fill="#899696"/>
<path d="M56.9707 81.0812V56.1562H96.9947V81.0812H56.9707Z" fill="#8F9C9C"/>
<path d="M61.6582 81.0812V56.1562H91.9467V81.0812H61.6582Z" fill="#96A3A3"/>
<path d="M66.3457 81.0812V56.1562H87.2592V81.0812H66.3457Z" fill="#9EABAB"/>
<path d="M71.0332 81.2313V56.1562H82.5717V81.2313H71.0332Z" fill="#A5B2B2"/>
<path d="M37.5 81.2313V56.1562H116.106V81.2313H37.5Z" stroke="black" stroke-width="0.465363"/>
<path d="M116.466 81.2313L131.25 56.1562H114.303V81.2313H116.466Z" fill="#A0ADAD" stroke="black" stroke-width="0.465363"/>
<path d="M37.4997 81.2313L22.3555 56.1562H39.3026V81.2313H37.4997Z" fill="#A0ADAD" stroke="black" stroke-width="0.465363"/>
<path d="M95.5533 81.2313L110.337 56.1562H91.5869V81.2313H95.5533Z" fill="#ABB8B8" stroke="black" stroke-width="0.465363"/>
<path d="M58.0524 81.2313L42.9082 56.1562H62.0188V81.2313H58.0524Z" fill="#ABB8B8" stroke="black" stroke-width="0.465363"/>
<path d="M39.3033 81.2313L25.9619 56.1562" stroke="black" stroke-width="0.465363"/>
<path d="M73.1973 56.1562H80.4088L78.6059 81.2313H75.0002L73.1973 56.1562Z" fill="#D8E5E5" stroke="black" stroke-width="0.465363"/>
<path d="M61.6582 81.2313L48.6774 56.1562H42.9082L58.0524 81.2313H61.6582Z" fill="#CCD9D9" stroke="black" stroke-width="0.465363"/>
<path d="M91.5869 81.2313L104.928 56.1562H110.337L95.5533 81.2313H91.5869Z" fill="#CCD9D9" stroke="black" stroke-width="0.465363"/>
<path d="M114.303 81.2313L127.284 56.1562H131.25L116.106 81.2313H114.303Z" fill="#BFCCCC" stroke="black" stroke-width="0.465363"/>
<path d="M39.3026 81.2313L25.9612 56.1562H22.3555L37.4997 81.2313H39.3026Z" fill="#BFCCCC" stroke="black" stroke-width="0.465363"/>
<path d="M25.9619 93.6953H127.284" stroke="#99A6A6" stroke-width="0.465363"/>
<path d="M131.25 94.4453H22.3555" stroke="#99A6A6" stroke-width="0.465363"/>
<path d="M28.125 106.156H125.481" stroke="#99A6A6" stroke-width="0.465363"/>
<path d="M131.25 90.5391H22.3555" stroke="#99A6A6" stroke-width="0.465363"/>
<path d="M29.9277 15.6172H123.678" stroke="#99A6A6" stroke-width="0.465363"/>
<path d="M31.7305 6.15625H121.875" stroke="#99A6A6" stroke-width="0.465363"/>
<path d="M22.3555 28.8281H131.25" stroke="#99A6A6" stroke-width="0.465363"/>
<path d="M131.25 42.1953H22.3555" stroke="#99A6A6" stroke-width="0.465363"/>
<path d="M54.4473 149.853L76.803 148.352L99.1588 149.853H54.4473Z" fill="#99A6A6"/>
<path d="M24.1584 0H12.9805V13.2132H24.1584V0Z" fill="#8C9999"/>
<path d="M22.3553 0H14.7832V13.2132H22.3553V0Z" fill="#A5B2B2"/>
<path d="M20.5533 0H16.5869V13.2132H20.5533V0Z" fill="#CCD9D9"/>
<path d="M24.1584 0H12.9805V13.2132H24.1584V0Z" stroke="black" stroke-width="0.465363"/>
<path d="M29.9281 10.9609H18.3896V11.7117H29.9281V10.9609Z" fill="#8C9999"/>
<path d="M29.9281 1.5H18.3896V2.25075H29.9281V1.5Z" fill="#8C9999"/>
<path d="M33.5332 1.64844H52.2832V5.40219H33.5332V1.64844Z" fill="#8C9999"/>
<path d="M67.4277 1.64844H86.1777V5.40219H67.4277V1.64844Z" fill="#8C9999"/>
<path d="M100.962 1.64844H119.712V5.40219H100.962V1.64844Z" fill="#8C9999"/>
<path d="M58.0526 24.9219H50.4805V28.075H58.0526V24.9219Z" fill="#263333"/>
<path d="M35.6971 24.9219H28.125V28.075H35.6971V24.9219Z" fill="#263333"/>
<path d="M37.5 37.3906H48.6779V41.2945H37.5V37.3906Z" fill="#263333"/>
<path d="M59.8555 37.3906H71.0334V41.2945H59.8555V37.3906Z" fill="#263333"/>
<path d="M82.5723 37.3906H93.7502V41.2945H82.5723V37.3906Z" fill="#263333"/>
<path d="M73.1973 24.9219H80.4088V28.075H73.1973V24.9219Z" fill="#263333"/>
<path d="M95.5527 24.9219H103.125V28.075H95.5527V24.9219Z" fill="#263333"/>
<path d="M117.908 24.9219H125.48V28.075H117.908V24.9219Z" fill="#263333"/>
<path d="M104.928 37.3906H116.106V41.2945H104.928V37.3906Z" fill="#263333"/>
<path d="M58.0526 28.075H50.4805V24.9219" stroke="white" stroke-width="0.465363"/>
<path d="M35.3365 28.075H28.125V24.9219" stroke="white" stroke-width="0.465363"/>
<path d="M73.1973 28.0781H80.4088" stroke="white" stroke-width="0.465363"/>
<path d="M95.5527 28.075H102.764V24.9219" stroke="white" stroke-width="0.465363"/>
<path d="M117.908 28.075H125.48V24.9219" stroke="white" stroke-width="0.465363"/>
<path d="M71.0334 41.2945H59.8555V37.3906" stroke="white" stroke-width="0.465363"/>
<path d="M48.6779 41.2945H37.5V37.3906" stroke="white" stroke-width="0.465363"/>
<path d="M82.5723 41.2945H93.7502V37.3906" stroke="white" stroke-width="0.465363"/>
<path d="M104.928 41.2945H116.106V37.3906" stroke="white" stroke-width="0.465363"/>
<path d="M102.765 2.25H117.909V4.6524H102.765V2.25Z" fill="#263333"/>
<path d="M69.2305 2.25H84.3747V4.6524H69.2305V2.25Z" fill="#263333"/>
<path d="M35.3369 2.25H50.4811V4.6524H35.3369V2.25Z" fill="#263333"/>
<path d="M25.9611 93.6968H127.283L129.447 92.1953H24.1582L25.9611 93.6968Z" fill="#596666"/>
<path d="M80.4088 95.1953L78.6059 99.0992H75.0002L73.1973 95.1953H80.4088Z" fill="#ABB8B8"/>
<path d="M80.4088 95.1983V92.1953H73.1973V95.1983H80.4088Z" fill="#FFFF00"/>
<path d="M79.3271 94.7427V92.6406H74.6396V94.7427H79.3271Z" fill="#999933"/>
<path d="M78.2447 94.295V93.0938H75.7207V94.295H78.2447Z" fill="black"/>
<path d="M80.4088 95.1983V92.1953H73.1973V95.1983H80.4088Z" stroke="#666633" stroke-width="0.465363"/>
<path d="M29.9277 7.05469H123.678V7.80544H29.9277V7.05469Z" fill="#D8E5E5"/>
<path d="M22.3555 16.3672H131.25V17.1179H22.3555V16.3672Z" fill="#D8E5E5"/>
<path d="M22.3555 20.2734H131.25V21.0242H22.3555V20.2734Z" fill="#D8E5E5"/>
<path d="M22.3555 29.7266H131.25V30.4773H22.3555V29.7266Z" fill="#D8E5E5"/>
<path d="M22.3555 42.9453H131.25V43.6961H22.3555V42.9453Z" fill="#D8E5E5"/>
<path d="M22.3555 55.4062H131.25V56.157H22.3555V55.4062Z" fill="#D8E5E5"/>
<path d="M29.9276 0V6.15616H25.9612L29.9276 8.55856V15.6156H22.3555V56.1562L37.4997 81.2312H22.3555V90.5405L25.9612 93.6937L22.3555 94.4444V106.156H28.1247V128.078L45.0718 149.85H108.533L125.48 128.078V106.156H131.25V94.4444L127.283 93.6937L131.25 90.5405V81.2312H116.105L131.25 56.1562V15.6156H123.678V8.55856L127.283 6.15616H123.678V0H29.9276Z" stroke="black" stroke-width="0.465363"/>
<path d="M137.019 19.5172C141.201 19.5172 144.591 18.1055 144.591 16.3641C144.591 14.6227 141.201 13.2109 137.019 13.2109C132.837 13.2109 129.447 14.6227 129.447 16.3641C129.447 18.1055 132.837 19.5172 137.019 19.5172Z" fill="#CCCC33" stroke="#999933" stroke-width="0.465363"/>
<path d="M148.197 18.7656H125.48V20.2671H148.197V18.7656Z" fill="#CCCC33" stroke="#999933" stroke-width="0.465363"/>
<path d="M150 20.2734H116.105V21.7749H150V20.2734Z" fill="#999933" stroke="#666633" stroke-width="0.465363"/>
<path d="M137.019 15.3125L134.495 16.3636L137.019 17.4146L139.543 16.3636L137.019 15.3125Z" fill="#999933"/>
<path d="M137.02 18.7657V13.9609" stroke="#999933" stroke-width="0.465363"/>
<path d="M3.60547 49.1023L5.40835 48.3516H52.6439V74.9281L5.40835 74.1774L3.60547 73.4266V49.1023Z" fill="#BAC7C7" stroke="black" stroke-width="0.465363"/>
<path d="M52.6445 48.3516H63.8224V74.1774L52.6445 74.9281V48.3516Z" fill="#ABB8B8" stroke="black" stroke-width="0.465363"/>
<path d="M12.9805 71.7703H42.9084V51.5" stroke="#8C9999" stroke-width="0.465363"/>
<path d="M127.284 81.2305H123.678V78.8281H127.284V81.2305Z" fill="#8C9999"/>
<path d="M112.5 81.2305H108.533V78.8281H112.5V81.2305Z" fill="#8C9999"/>
<path d="M97.3558 81.2305H93.75V78.8281H97.3558V81.2305Z" fill="#8C9999"/>
<path d="M82.5718 81.2305H78.6055V78.8281H82.5718V81.2305Z" fill="#8C9999"/>
<path d="M67.428 81.2305H63.8223V78.8281H67.428V81.2305Z" fill="#8C9999"/>
<path d="M52.2835 81.2305H48.6777V78.8281H52.2835V81.2305Z" fill="#8C9999"/>
<path d="M37.4995 81.2305H33.5332V78.8281H37.4995V81.2305Z" fill="#8C9999"/>
<path d="M26.3223 81.2305H33.5338V78.8281H26.3223V81.2305Z" fill="#C9D1D1"/>
<path d="M41.1055 81.2305H48.6776V78.8281H41.1055V81.2305Z" fill="#C9D1D1"/>
<path d="M56.25 81.2305H63.8221V78.8281H56.25V81.2305Z" fill="#C9D1D1"/>
<path d="M71.3945 81.2305H78.6061V78.8281H71.3945V81.2305Z" fill="#C9D1D1"/>
<path d="M86.1777 81.2305H93.7498V78.8281H86.1777V81.2305Z" fill="#C9D1D1"/>
<path d="M101.322 81.2305H108.534V78.8281H101.322V81.2305Z" fill="#C9D1D1"/>
<path d="M116.105 81.2305H123.678V78.8281H116.105V81.2305Z" fill="#C9D1D1"/>
<path d="M26.3223 81.2305H37.5002V78.8281H26.3223V81.2305Z" stroke="black" stroke-width="0.465363"/>
<path d="M41.1055 81.2305H52.2834V78.8281H41.1055V81.2305Z" stroke="black" stroke-width="0.465363"/>
<path d="M56.25 81.2305H67.4279V78.8281H56.25V81.2305Z" stroke="black" stroke-width="0.465363"/>
<path d="M71.3945 81.2305H82.5724V78.8281H71.3945V81.2305Z" stroke="black" stroke-width="0.465363"/>
<path d="M86.1777 81.2305H97.3556V78.8281H86.1777V81.2305Z" stroke="black" stroke-width="0.465363"/>
<path d="M101.322 81.2305H112.5V78.8281H101.322V81.2305Z" stroke="black" stroke-width="0.465363"/>
<path d="M116.105 81.2305H127.283V78.8281H116.105V81.2305Z" stroke="black" stroke-width="0.465363"/>
<path d="M125.481 106.156L123.678 110.06H31.37L29.9277 106.156H125.481Z" fill="#99A6A6"/>
<path d="M112.14 106.156L110.337 110.06H42.9091L41.4668 106.156H112.14Z" fill="#ABB8B8"/>
<path d="M28.125 131.978C43.658 131.978 56.25 126.735 56.25 120.266C56.25 113.798 43.658 108.555 28.125 108.555C12.592 108.555 0 113.798 0 120.266C0 126.735 12.592 131.978 28.125 131.978Z" fill="#99A6A6" stroke="black" stroke-width="0.465363"/>
<path d="M27.7643 131.083C42.1024 131.083 53.7258 126.242 53.7258 120.272C53.7258 114.301 42.1024 109.461 27.7643 109.461C13.4261 109.461 1.80273 114.301 1.80273 120.272C1.80273 126.242 13.4261 131.083 27.7643 131.083Z" fill="#CCD9D9"/>
<path d="M27.764 129.58C40.1107 129.58 50.1197 125.412 50.1197 120.27C50.1197 115.129 40.1107 110.961 27.764 110.961C15.4172 110.961 5.4082 115.129 5.4082 120.27C5.4082 125.412 15.4172 129.58 27.764 129.58Z" fill="#3F4C4C" stroke="#99A6A6" stroke-width="0.465363"/>
<path d="M27.7644 127.925C37.9206 127.925 46.1538 124.496 46.1538 120.267C46.1538 116.038 37.9206 112.609 27.7644 112.609C17.6082 112.609 9.375 116.038 9.375 120.267C9.375 124.496 17.6082 127.925 27.7644 127.925Z" fill="#334040"/>
<path d="M27.764 125.522C34.9331 125.522 40.7447 123.102 40.7447 120.116C40.7447 117.131 34.9331 114.711 27.764 114.711C20.5949 114.711 14.7832 117.131 14.7832 120.116C14.7832 123.102 20.5949 125.522 27.764 125.522Z" fill="#263333"/>
</g>
<defs>
<clipPath id="clip0_2109_213945">
<rect width="150" height="150" fill="white"/>
</clipPath>
</defs>
</svg>
