<svg width="150" height="150" viewBox="0 0 150 150" fill="none" xmlns="http://www.w3.org/2000/svg">
<g clip-path="url(#clip0_2109_191317)">
<path fill-rule="evenodd" clip-rule="evenodd" d="M45.5301 34.2342L47.5572 34.3844L49.4283 34.985L51.1435 35.8859L52.7027 37.0871L53.9501 38.4384L54.8857 40.0901L55.3534 41.8919L55.6653 43.8438L55.3534 45.7958L54.8857 47.5976L53.9501 49.3994L52.7027 50.9009L51.1435 52.1021L49.4283 53.003L47.5572 53.6036L45.5301 53.9039L43.5031 53.6036L41.632 53.003L39.9168 52.1021L38.5135 50.9009L37.2661 49.3994L36.3306 47.5976L35.7069 45.7958L35.5509 43.8438L35.7069 41.8919L36.3306 40.0901L37.2661 38.4384L38.5135 37.0871L39.9168 35.8859L41.632 34.985L43.5031 34.3844L45.5301 34.2342ZM43.815 9.30931L53.1705 10.5105L63.7734 2.55255L71.7256 6.60661L69.3867 18.6186L75.1559 25.3754L88.4096 26.5766L91.2162 34.8348L81.3929 43.2432L80.4574 52.4024L88.4096 61.4114L84.1996 69.0691L71.1019 67.2673L64.3971 72.6727L63.7734 85.1351L55.0416 87.8378L46.7775 78.0781L37.2661 77.1772L27.5988 85.1351L19.6466 81.0811V66.5165L14.1892 59.7598L2.65073 61.4114L0 53.003L9.97921 44.1441L11.2266 35.1351L2.65073 26.5766L6.86071 18.6186L18.3992 21.9219L25.104 16.3664L27.5988 2.55255L36.1746 0L43.815 9.30931ZM98.8565 96.5465L99.7921 96.2462L100.728 95.9459L101.663 95.6456H102.599L103.534 95.4955L104.47 95.6456L105.561 95.7958L106.497 95.9459L107.277 96.2462L108.212 96.6967L108.992 97.1471L109.927 97.7477L110.551 98.3484L111.331 99.0991L111.954 99.8499L112.422 100.751L112.89 101.652L113.202 102.553L113.514 103.453V104.354L113.669 105.255V106.156L113.514 107.207L113.202 108.108L112.89 108.859L112.578 109.76L112.11 110.661L111.486 111.411L110.863 112.162L110.239 112.763L109.459 113.363L108.524 113.964L107.588 114.414L106.497 114.715L105.561 114.865L104.626 115.015H103.534H102.599L101.663 114.865L100.728 114.565L99.7921 114.264L98.8565 113.814L98.0769 113.363L97.2973 112.763L96.5177 112.162L95.894 111.411L95.2703 110.661L94.8025 109.76L94.3347 108.859L94.0229 107.958L93.711 107.057L93.5551 106.156V105.105V104.204L93.711 103.303L94.0229 102.402L94.3347 101.502L94.6466 100.601L95.1143 99.8499L95.738 99.0991L96.3617 98.3484L97.1414 97.7477L97.921 97.1471L98.8565 96.5465ZM84.8233 75.8258L93.5551 72.3724L99.0125 60.8108H107.9L111.954 72.3724L120.062 75.5255L132.536 70.2703L139.241 76.4264L134.719 88.1381L138.306 96.5465L150 101.051V109.459L137.838 113.964L134.096 121.772L139.865 133.183L133.472 139.64L121.31 134.985L112.734 138.288L108.212 150H99.0125L92.1518 137.087L83.8877 133.483L74.8441 139.94L68.1393 133.784L72.6611 121.471L69.0748 113.363L57.3805 109.459V100.751L69.0748 98.048L72.0374 90.0901L67.2037 77.1772L73.5967 71.1712L84.8233 75.8258Z" fill="#808080"/>
<path d="M45.53 53.602C51.0414 53.602 55.5092 49.2997 55.5092 43.9924C55.5092 38.6852 51.0414 34.3828 45.53 34.3828C40.0186 34.3828 35.5508 38.6852 35.5508 43.9924C35.5508 49.2997 40.0186 53.602 45.53 53.602Z" stroke="black" stroke-width="0.306021"/>
<path d="M43.815 9.30931L53.1705 10.5105L63.7734 2.55255L71.7256 6.60661L69.3867 18.6186L75.1559 25.3754L88.4096 26.5766L91.2162 34.8348L81.3929 43.2432L80.4574 52.4024L88.4096 61.4114L84.1996 69.0691L71.1019 67.2673L64.3971 72.6727L63.7734 85.1351L55.0416 87.8378L46.7775 78.0781L37.2661 77.1772L27.5988 85.1351L19.6466 81.0811V66.5165L14.1892 59.7598L2.65073 61.4114L0 53.003L9.97921 44.1441L11.2266 35.1351L2.65073 26.5766L6.86071 18.6186L18.3992 21.9219L25.1039 16.3664L27.5988 2.55255L36.1746 0L43.815 9.30931Z" stroke="black" stroke-width="0.306021"/>
<path d="M103.534 114.864C109.045 114.864 113.513 110.561 113.513 105.254C113.513 99.9469 109.045 95.6445 103.534 95.6445C98.0225 95.6445 93.5547 99.9469 93.5547 105.254C93.5547 110.561 98.0225 114.864 103.534 114.864Z" stroke="black" stroke-width="0.306021"/>
<path d="M84.8237 75.8275L93.5555 72.3741L99.0129 60.8125H107.901L111.955 72.3741L120.063 75.5272L132.537 70.272L139.242 76.4281L134.72 88.1398L138.306 96.5482L150 101.053V109.461L137.838 113.966L134.096 121.773L139.865 133.185L133.472 139.641L121.31 134.987L112.734 138.29L108.212 150.002H99.0129L92.1522 137.089L83.8881 133.485L74.8445 139.942L68.1397 133.785L72.6615 121.473L69.0752 113.365L57.3809 109.461V100.752L69.0752 98.0497L72.0378 90.0918L67.2041 77.1789L73.5971 71.1729L84.8237 75.8275Z" stroke="black" stroke-width="0.306021"/>
</g>
<defs>
<clipPath id="clip0_2109_191317">
<rect width="150" height="150" fill="white"/>
</clipPath>
</defs>
</svg>
