<svg width="150" height="150" viewBox="0 0 150 150" fill="none" xmlns="http://www.w3.org/2000/svg">
<g clip-path="url(#clip0_2109_191372)">
<path d="M17.5674 39.263L23.2731 60.6099V89.3901L17.5674 110.737L52.2521 135.705L86.0359 142.948L102.703 150L114.114 146.569L122.372 135.705L125.375 103.494V46.5057L122.372 14.2948L114.114 3.24015L102.703 0L86.0359 7.0521L52.2521 14.2948L17.5674 39.263Z" fill="#FF3300" stroke="black" stroke-width="0.338338"/>
<path d="M103.604 54.5108L111.411 53.3672L128.078 74.9047L108.408 96.6328L103.604 95.4892L99.3995 88.2465L96.9971 79.479V70.5209L99.3995 61.7535L103.604 54.5108Z" fill="#FF9966"/>
<path d="M114.114 60.6081L109.309 49.1723L116.216 46.5039H130.781L137.687 49.1723L143.693 54.509L147.898 61.7517L150 70.5192V79.4772L147.898 88.2447L143.693 95.4874L137.687 100.824L131.081 103.492H116.216L109.309 100.824L108.408 89.3883V78.3336L114.114 60.6081Z" fill="black"/>
<path d="M91.5918 114.359L54.9551 110.738L23.2734 89.3906" stroke="black" stroke-width="0.338338"/>
<path d="M91.5918 35.6406L54.9551 39.262L23.2734 60.6089" stroke="black" stroke-width="0.338338"/>
<path d="M17.5676 110.737L4.65465 107.307L4.05405 104.638L1.35135 100.826L0.45045 96.6332L0 92.8212L1.35135 86.7221L4.65465 84.0537L10.3604 85.5785L13.3634 82.9102L23.2733 89.3905L20.2703 100.064L17.5676 110.737Z" fill="#FF9966" stroke="black" stroke-width="0.338338"/>
<path d="M17.5676 39.2617L4.65465 42.6925L4.05405 45.3608L1.35135 49.1728L0.45045 53.3659L0 57.1779L1.35135 63.277L4.65465 65.9453L10.3604 64.4205L13.3634 67.0889L23.2733 60.6086L20.2703 49.9352L17.5676 39.2617Z" fill="#FF9966" stroke="black" stroke-width="0.338338"/>
</g>
<defs>
<clipPath id="clip0_2109_191372">
<rect width="150" height="150" fill="white"/>
</clipPath>
</defs>
</svg>
