<svg width="150" height="150" viewBox="0 0 150 150" fill="none" xmlns="http://www.w3.org/2000/svg">
<g clip-path="url(#clip0_2109_191466)">
<path d="M0 150V144.895H17.9785V119.369H36.2254L40.5188 71.021L113.506 38.1381L54.4723 12.4625L33.0054 15.1652L36.2254 20.2703L15.0268 22.6727L11.0018 17.5676L23.3453 16.3664L16.9052 6.15616L4.56172 7.35736L0.805009 2.55255L22.2719 0L26.0286 4.95496L68.1574 0L145.17 30.4805L150 40.6907L90.4293 78.8288V83.9339H108.676V124.474H122.63V144.895H126.923V150H0Z" fill="#B2E5E5" stroke="black" stroke-width="0.401451"/>
<path d="M90.4297 83.9336V119.369" stroke="black" stroke-width="0.401451"/>
<path d="M108.676 124.473V144.893" stroke="black" stroke-width="0.401451"/>
<path d="M122.63 144.895H17.9785" stroke="black" stroke-width="0.401451"/>
<path d="M36.2256 119.371H108.676" stroke="black" stroke-width="0.401451"/>
<path d="M13.1484 1.20312L27.1019 21.4734" stroke="black" stroke-width="0.401451"/>
<path d="M26.0283 4.95312L33.0051 15.1633" stroke="black" stroke-width="0.401451"/>
<path d="M43.739 89.6378L36.2256 78.827L43.739 67.7159L63.5959 63.5117L82.9161 67.7159L90.4295 78.827L82.9161 89.6378L63.5959 94.1423L43.739 89.6378Z" fill="#B2E5E5" stroke="black" stroke-width="0.401451"/>
<path d="M118.336 45.3449L113.506 38.1377L118.336 30.7803L131.753 27.7773L144.633 30.7803L150 38.1377L144.633 45.3449L131.753 48.1978L118.336 45.3449Z" fill="#B2E5E5" stroke="black" stroke-width="0.401451"/>
<path d="M53.3993 13.0631L49.6426 7.35736L53.3993 1.95195L63.5961 0L73.2562 1.95195L77.0129 7.35736L73.2562 13.0631L63.5961 15.1652L53.3993 13.0631Z" fill="#B2E5E5" stroke="black" stroke-width="0.401451"/>
</g>
<defs>
<clipPath id="clip0_2109_191466">
<rect width="150" height="150" fill="white"/>
</clipPath>
</defs>
</svg>
