<svg width="150" height="150" viewBox="0 0 150 150" fill="none" xmlns="http://www.w3.org/2000/svg">
<g clip-path="url(#clip0_2109_191339)">
<path d="M74.9249 149.85C116.305 149.85 149.85 116.305 149.85 74.9249C149.85 33.545 116.305 0 74.9249 0C33.545 0 0 33.545 0 74.9249C0 116.305 33.545 149.85 74.9249 149.85Z" fill="#999999" stroke="black" stroke-width="0.3003"/>
<path d="M74.925 143.694C112.905 143.694 143.694 112.905 143.694 74.925C143.694 36.9451 112.905 6.15625 74.925 6.15625C36.9451 6.15625 6.15625 36.9451 6.15625 74.925C6.15625 112.905 36.9451 143.694 74.925 143.694Z" fill="#B2B2B2"/>
<path d="M74.775 137.386C109.272 137.386 137.237 109.42 137.237 74.9234C137.237 40.4263 109.272 12.4609 74.775 12.4609C40.2779 12.4609 12.3125 40.4263 12.3125 74.9234C12.3125 109.42 40.2779 137.386 74.775 137.386Z" fill="#D9D9D9"/>
<path d="M74.7743 131.082C105.789 131.082 130.93 105.94 130.93 74.9257C130.93 43.9115 105.789 18.7695 74.7743 18.7695C43.7601 18.7695 18.6182 43.9115 18.6182 74.9257C18.6182 105.94 43.7601 131.082 74.7743 131.082Z" fill="#B2B2B2"/>
<path d="M74.7747 124.774C102.306 124.774 124.625 102.455 124.625 74.9241C124.625 47.3928 102.306 25.0742 74.7747 25.0742C47.2433 25.0742 24.9248 47.3928 24.9248 74.9241C24.9248 102.455 47.2433 124.774 74.7747 124.774Z" fill="#4C4C4C" stroke="black" stroke-width="0.3003"/>
<path d="M74.9246 116.367C97.895 116.367 116.516 97.7456 116.516 74.7752C116.516 51.8048 97.895 33.1836 74.9246 33.1836C51.9542 33.1836 33.333 51.8048 33.333 74.7752C33.333 97.7456 51.9542 116.367 74.9246 116.367Z" fill="#737373"/>
<path d="M74.9251 108.257C93.3346 108.257 108.258 93.3327 108.258 74.9232C108.258 56.5137 93.3346 41.5898 74.9251 41.5898C56.5156 41.5898 41.5918 56.5137 41.5918 74.9232C41.5918 93.3327 56.5156 108.257 74.9251 108.257Z" fill="#999999"/>
<path d="M74.9247 100.002C88.7733 100.002 99.9998 88.7752 99.9998 74.9266C99.9998 61.0781 88.7733 49.8516 74.9247 49.8516C61.0761 49.8516 49.8496 61.0781 49.8496 74.9266C49.8496 88.7752 61.0761 100.002 74.9247 100.002Z" fill="#BFBFBF"/>
</g>
<defs>
<clipPath id="clip0_2109_191339">
<rect width="150" height="150" fill="white"/>
</clipPath>
</defs>
</svg>
