<svg width="150" height="150" viewBox="0 0 150 150" fill="none" xmlns="http://www.w3.org/2000/svg">
<g clip-path="url(#clip0_2109_191439)">
<path d="M30.7911 68.918L43.2204 72.8219L24.0114 90.8399L11.582 86.936L30.7911 68.918Z" fill="#7F7F7F" stroke="black" stroke-width="0.411899"/>
<path d="M29.0957 119.069H48.3047V103.754H29.0957V119.069Z" fill="#CCCCCC" stroke="black" stroke-width="0.411899"/>
<path d="M48.3047 103.754H87.2877V119.069H48.3047V103.754Z" fill="#B2B2B2" stroke="black" stroke-width="0.411899"/>
<path d="M0 92.3405L7.06215 85.4336L78.8136 107.656L71.4689 114.262L0 92.3405Z" fill="#4C4C4C" stroke="black" stroke-width="0.411899"/>
<path d="M33.6163 149.998V144.893H14.4072V137.086H33.6163V131.98H130.791V137.086H150V144.893H130.791V149.998H33.6163Z" fill="#999999" stroke="black" stroke-width="0.411899"/>
<path d="M43.2207 129.277H121.187V142.19H43.2207V129.277Z" fill="#B2B2B2" stroke="black" stroke-width="0.411899"/>
<path d="M38.7002 126.875H125.706V129.277H38.7002V126.875Z" fill="#CCCCCC" stroke="black" stroke-width="0.411899"/>
<path d="M38.7002 124.176H125.706V126.878H38.7002V124.176Z" fill="#E5E5E5" stroke="black" stroke-width="0.411899"/>
<path d="M72.5986 124.174H130.791V103.754H72.5986V124.174Z" fill="#E5E5E5" stroke="black" stroke-width="0.411899"/>
<path d="M33.6162 124.174V113.964L72.5993 103.754V124.174H33.6162Z" fill="#CCCCCC" stroke="black" stroke-width="0.411899"/>
<path d="M121.187 80.3305L57.91 62.3125H14.4072L72.5993 80.3305H121.187Z" fill="#CCCCCC" stroke="black" stroke-width="0.411899"/>
<path d="M14.407 62.3125L9.32227 70.1203L67.5144 88.1383L72.5991 80.3305L14.407 62.3125Z" fill="#B2B2B2" stroke="black" stroke-width="0.411899"/>
<path d="M130.791 106.158H67.5139L59.6043 103.906L55.932 100.452L53.9546 95.7975L53.6721 94.5963L53.3896 93.2449L53.6721 91.8936L55.0846 87.0888L58.4744 83.335L64.6891 80.6323L66.1015 80.332H67.5139H130.791L138.983 82.4341L142.938 86.0377L145.198 90.5422L145.48 91.8936V93.2449V94.5963L143.785 99.4011L140.113 103.155L133.616 105.858L132.203 106.008L130.791 106.158Z" fill="#E5E5E5" stroke="black" stroke-width="0.411899"/>
<path d="M67.7964 106.158C75.7531 106.158 82.2032 100.377 82.2032 93.2449C82.2032 86.1133 75.7531 80.332 67.7964 80.332C59.8398 80.332 53.3896 86.1133 53.3896 93.2449C53.3896 100.377 59.8398 106.158 67.7964 106.158Z" fill="#CCCCCC" stroke="black" stroke-width="0.411899"/>
<path d="M72.5991 49.3981V67.4162H38.7008L18.9268 62.311V52.1008L44.9155 43.6924L46.3279 43.242L47.7403 42.9417L48.8703 42.6414L50.5652 42.3411L51.6951 42.1909L53.1075 42.0408L54.52 41.8906H55.6499L58.7573 42.0408L61.5821 42.4912L64.407 43.242L66.6669 44.1429L68.9268 45.1939L70.6217 46.5453L71.7516 47.8966L72.5991 49.3981Z" fill="#E5E5E5" stroke="black" stroke-width="0.411899"/>
<path d="M109.887 12.7638L66.3837 53.0041L63.5589 53.7548L55.6493 52.7038L49.7171 49.5506L49.4346 48.7999V47.5987L93.5024 7.35841L94.0673 7.05811L96.0447 6.75781L103.672 7.95901L109.887 11.1122L110.169 11.8629L109.887 12.7638Z" fill="#CCCCCC" stroke="black" stroke-width="0.411899"/>
<path d="M107.627 12.162L64.1242 52.1019L60.7344 53.3031L53.3898 51.6515L51.1299 49.5494L51.6949 48.4983L95.7626 7.95778L96.0451 7.65748L98.87 7.20703L106.215 8.85868L108.475 11.2611L107.627 12.162Z" fill="#E5E5E5"/>
<path d="M103.673 10.6597L60.1697 50.9L58.1923 52.1012L56.2149 52.8519L55.6499 52.7018L55.085 52.2513V51.8009L55.3674 50.1492L55.6499 49.6988L99.7177 9.15823L101.695 8.10718L102.825 7.95703L104.52 8.40748L104.802 8.70778L103.955 10.3594L103.673 10.6597Z" fill="white"/>
<path d="M92.9378 7.657L93.7852 7.3567L96.0451 6.90625H98.87L101.977 7.50685L105.65 8.5579L108.192 9.90925L109.887 11.1105L110.169 11.8612L109.887 12.7621L109.322 13.2126L107.345 13.5129H104.237L100.847 12.9123L97.74 11.8612L94.9152 10.66L93.2202 9.4588L92.6553 8.2576L92.9378 7.657Z" fill="#E5E5E5" stroke="black" stroke-width="0.411899"/>
<path d="M133.616 12.1622H103.672L101.13 11.7117L98.87 10.3604L97.4575 8.40841L96.8926 5.85586L97.4575 3.6036L98.87 1.65165L101.13 0.45045L103.672 0H133.616L136.158 0.45045L138.136 1.65165L139.83 3.6036L140.395 5.85586L139.83 8.40841L138.136 10.3604L136.158 11.7117L133.616 12.1622Z" fill="#E5E5E5" stroke="black" stroke-width="0.411899"/>
<path d="M103.672 12.012C107.417 12.012 110.452 9.32303 110.452 6.00601C110.452 2.68898 107.417 0 103.672 0C99.9279 0 96.8926 2.68898 96.8926 6.00601C96.8926 9.32303 99.9279 12.012 103.672 12.012Z" fill="#CCCCCC" stroke="black" stroke-width="0.411899"/>
<path d="M130.226 4.65577L144.35 12.1633L145.198 13.0642L144.35 14.866L143.22 16.3675L140.96 17.5687L138.418 18.3194L135.876 18.6197L133.051 17.869L118.927 10.3615L118.079 9.46057L118.927 7.80892L120.057 6.45757L122.316 5.40652L124.859 4.65577L127.401 4.35547L130.226 4.65577Z" fill="#E5E5E5" stroke="black" stroke-width="0.411899"/>
<path d="M133.051 17.8693L132.203 16.9684L133.051 15.3167L134.181 13.9654L136.44 12.9143L138.983 12.1636L141.525 11.8633L144.35 12.1636L145.197 13.0645L144.35 14.8663L143.22 16.3678L140.96 17.569L138.418 18.3197L135.875 18.62L133.051 17.8693Z" fill="#CCCCCC" stroke="black" stroke-width="0.411899"/>
<path d="M68.6445 55.7067L67.5145 56.1572L66.3846 56.6076L64.9722 56.9079L63.8422 57.2082L62.4298 57.5085L61.0174 57.6587L59.3225 57.8088H57.91L54.8027 57.6587L51.9778 57.2082L49.4355 56.3073L46.8931 55.2563L44.9157 54.0551L43.5032 52.5536L42.6558 50.9019L42.0908 49.1001V48.95L42.3733 48.6497V48.4995L42.6558 48.1992" stroke="#7F7F7F" stroke-width="0.411899"/>
</g>
<defs>
<clipPath id="clip0_2109_191439">
<rect width="150" height="150" fill="white"/>
</clipPath>
</defs>
</svg>
