<svg width="150" height="150" viewBox="0 0 150 150" fill="none" xmlns="http://www.w3.org/2000/svg">
<g clip-path="url(#clip0_2109_191401)">
<path d="M31.3387 116.966L21.9067 116.065L13.6917 113.813L6.99797 110.209L2.12982 105.555L0 100.149V98.3474L0.912779 93.8429L3.34686 89.6387L7.60649 86.0351L8.21501 85.4345L73.9351 29.8789L94.6247 36.4855L31.3387 116.966Z" fill="#FF6600" stroke="black" stroke-width="0.427479"/>
<path d="M45.0304 116.968C65.699 116.968 82.4543 108.7 82.4543 98.4997C82.4543 88.2999 65.699 80.0312 45.0304 80.0312C24.3617 80.0312 7.60645 88.2999 7.60645 98.4997C7.60645 108.7 24.3617 116.968 45.0304 116.968Z" fill="#E54C00" stroke="black" stroke-width="0.427479"/>
<path d="M31.3389 142.194L62.9819 126.578H94.6249L62.9819 142.194H31.3389Z" fill="#FF6600" stroke="black" stroke-width="0.427479"/>
<path d="M62.9819 150.001V138.289L31.3389 142.193V150.001H62.9819Z" fill="#FF6600" stroke="black" stroke-width="0.427479"/>
<path d="M47.1602 138.29V116.969H94.6247L86.7139 130.482L47.1602 138.29Z" fill="#E54C00" stroke="black" stroke-width="0.427479"/>
<path d="M133.57 110.959V93.5416L125.659 87.8359H47.1602L82.4543 110.959H133.57Z" fill="#FFCC00" stroke="black" stroke-width="0.427479"/>
<path d="M66.6326 95.3434L82.4541 110.959H133.57L125.659 116.965H31.3385V105.253L25.8618 101.8L23.4277 97.4455L25.8618 92.7909L31.947 89.4876L41.0748 87.8359H42.9004H70.8922L63.59 90.0882L65.1113 94.5927L66.6326 95.3434Z" fill="#FF6600" stroke="black" stroke-width="0.427479"/>
<path d="M110.446 118.768L110.142 117.567L109.533 116.516L108.316 115.465L107.099 114.714L105.274 113.963L103.144 113.513L100.71 113.213L98.2756 113.062L95.8415 113.213L93.7117 113.513L91.8861 113.963L90.0606 114.714L88.8435 115.465L87.6265 116.516L87.018 117.567L86.7137 118.768V130.48L62.9814 138.288V149.999H110.446V118.768Z" fill="#E54C00" stroke="black" stroke-width="0.427479"/>
<path d="M66.6328 95.3448H70.5882H74.2393H77.8904H81.5415H85.1926H89.148H92.7991H96.4503H100.101H103.752H107.404H111.055H114.706H118.357H122.008H125.659H127.18H128.702L129.919 95.1946L131.136 95.0445L132.353 94.8943L132.961 94.594L133.57 94.1436V93.543" stroke="black" stroke-width="0.427479"/>
<path d="M39.25 87.8382L87.9315 33.1836L114.706 39.7902L78.8038 87.8382H39.25Z" fill="#FF6600" stroke="black" stroke-width="0.427479"/>
<path d="M14.9082 87.5379L80.6283 33.1836" stroke="#7F7F7F" stroke-width="0.427479"/>
<path d="M66.6328 142.191H82.4543V146.095H66.6328V142.191Z" fill="#4C4C4C" stroke="black" stroke-width="0.427479"/>
<path d="M66.6328 146.098H110.446" stroke="black" stroke-width="0.427479"/>
<path d="M62.9814 113.062V116.966" stroke="black" stroke-width="0.427479"/>
<path d="M134.787 46.3962H132.961H131.136H129.31H119.574L116.227 45.7956L112.88 45.195L109.533 44.4442L105.578 43.3932L101.622 42.192L99.4925 41.4412L97.3627 40.6905L95.2329 39.7896L92.7988 38.7385L90.3647 37.6875L87.9307 36.4863L88.2349 35.1349L88.8434 33.7836L89.7562 31.231L90.669 30.0298L92.4946 27.6274L94.6244 25.3752L97.0585 23.2731L99.7968 21.171L102.839 19.219L104.361 18.168H106.491H110.446L114.401 18.3181L118.661 18.4683L122.616 18.7686L126.572 19.3692L130.527 19.9698L134.787 20.8707L138.134 22.3722L141.48 23.8737L145.131 25.225L148.478 26.7265L150 27.4773L149.695 28.3782L149.391 30.0298L148.783 31.6815L148.478 33.3331L147.261 34.8346L145.74 36.4863L144.219 37.9878L142.697 39.6394L140.872 41.1409L139.046 42.6424L137.525 44.1439L135.699 45.6454L134.787 46.3962Z" fill="#FF6600" stroke="black" stroke-width="0.427479"/>
<path d="M134.787 41.5928V45.797L131.744 42.4937L111.055 37.3886L106.187 19.0703L138.438 23.2745L134.787 41.5928Z" fill="#E54C00"/>
<path d="M148.175 27.4776L138.439 23.2734L123.226 38.2885L134.787 41.5918L148.175 27.4776Z" fill="#FF7F00"/>
<path d="M66.6328 5.55469L115.923 19.9691L119.27 21.1703L121.704 22.3715L123.529 24.0232L124.746 25.6748L125.355 27.4766L125.051 29.2784L124.442 31.2304L122.617 32.882L120.487 34.5337L117.748 35.7349L114.706 36.6358L111.359 37.2364L107.404 37.5367L105.578 37.6868L101.927 37.5367L98.2758 36.9361L96.4502 36.4856L47.1602 22.3715L66.6328 5.55469Z" fill="#FF6600" stroke="black" stroke-width="0.427479"/>
<path d="M46.5518 22.372L64.1988 19.6693L66.0244 5.85547L50.2029 8.85847L46.5518 22.372Z" fill="#FF6600" stroke="black" stroke-width="0.427479"/>
<path d="M119.574 31.382H120.791L121.704 31.2318L122.617 30.7814L123.53 30.3309L124.138 29.8805L124.442 29.2799L125.051 28.6793V27.7784V27.3279L124.747 26.7273L124.442 26.2769L123.834 25.6763L123.225 25.2258L122.617 24.7753L122.008 24.475L121.4 24.1747L67.2416 6.45703L65.416 19.9705L119.574 31.382Z" fill="#FF7F00"/>
<path d="M86.1054 35.5859L42.292 86.637L90.9735 39.1895L86.1054 35.5859Z" fill="#FF7F00"/>
<path d="M16.7339 85.7362L4.56348 89.0395L73.9347 30.7812L80.6284 32.2828L16.7339 85.7362Z" fill="#FF7F00"/>
<path d="M65.4162 95.6445L40.4669 99.8487H25.2539V95.6445H65.4162Z" fill="#FF7F00"/>
<path d="M82.4543 110.959H79.7159H66.6328L65.72 110.809L63.5902 110.208L60.5476 108.857L57.2007 107.055L55.6794 106.004L53.8539 104.953L52.6368 103.602L51.1155 102.401L49.8985 101.049L48.6815 99.6978L48.0729 98.1963L47.4644 96.6948L47.1602 95.3434L47.4644 93.9921L48.0729 92.6407L48.9857 91.2894L51.7241 89.3374L55.9837 87.9861L58.722 87.8359" stroke="#7F7F7F" stroke-width="0.427479"/>
<path d="M47.1606 21.4707L30.1221 15.765L36.8158 4.05324L40.4669 3.15234L33.7732 14.8641L47.1606 19.9692L52.0288 19.0683L55.6799 6.45565L56.8969 8.25745L53.8543 20.5698L47.1606 21.4707Z" fill="#FF6600" stroke="black" stroke-width="0.427479"/>
<path d="M33.7725 14.8641L47.1599 19.9692L52.028 19.0683L55.6792 6.45565L50.2025 7.35655L40.4662 3.15234L33.7725 14.8641Z" fill="#E54C00" stroke="black" stroke-width="0.427479"/>
<path d="M47.1602 19.9681L50.2028 7.35547" stroke="black" stroke-width="0.427479"/>
<path d="M36.2068 11.5627L37.1195 11.7128L39.5536 10.6618L41.0749 8.85997L41.3792 7.65877L41.0749 5.85697L39.8579 5.25637L39.2494 4.95607L33.1642 4.35547H32.5557L29.5131 5.40652L27.6875 7.05817V8.40952L27.9918 9.91102L29.5131 10.6618L36.2068 11.5627Z" fill="#999999" stroke="black" stroke-width="0.427479"/>
<path d="M31.3386 10.6618C33.3551 10.6618 34.9897 9.25006 34.9897 7.50862C34.9897 5.76718 33.3551 4.35547 31.3386 4.35547C29.3222 4.35547 27.6875 5.76718 27.6875 7.50862C27.6875 9.25006 29.3222 10.6618 31.3386 10.6618Z" fill="#CCCCCC" stroke="black" stroke-width="0.427479"/>
<path d="M31.3392 8.85847C32.3475 8.85847 33.1648 8.18623 33.1648 7.35697C33.1648 6.52771 32.3475 5.85547 31.3392 5.85547C30.331 5.85547 29.5137 6.52771 29.5137 7.35697C29.5137 8.18623 30.331 8.85847 31.3392 8.85847Z" fill="#333333" stroke="black" stroke-width="0.427479"/>
<path d="M48.6816 18.9189C55.235 18.9189 60.5477 14.6838 60.5477 9.45946C60.5477 4.23514 55.235 0 48.6816 0C42.1281 0 36.8154 4.23514 36.8154 9.45946C36.8154 14.6838 42.1281 18.9189 48.6816 18.9189Z" fill="#B2B2B2" stroke="black" stroke-width="0.427479"/>
<path d="M52.3329 18.9189C58.8864 18.9189 64.199 14.6838 64.199 9.45946C64.199 4.23514 58.8864 0 52.3329 0C45.7794 0 40.4668 4.23514 40.4668 9.45946C40.4668 14.6838 45.7794 18.9189 52.3329 18.9189Z" fill="#CCCCCC" stroke="black" stroke-width="0.427479"/>
<path d="M52.0281 12.463C54.0445 12.463 55.6792 11.1185 55.6792 9.46003C55.6792 7.80152 54.0445 6.45703 52.0281 6.45703C50.0116 6.45703 48.377 7.80152 48.377 9.46003C48.377 11.1185 50.0116 12.463 52.0281 12.463Z" fill="#CCCCCC" stroke="#7F7F7F" stroke-width="0.427479"/>
<path d="M43.509 7.20901C44.1812 7.20901 44.7261 6.94012 44.7261 6.60841C44.7261 6.27671 44.1812 6.00781 43.509 6.00781C42.8369 6.00781 42.292 6.27671 42.292 6.60841C42.292 6.94012 42.8369 7.20901 43.509 7.20901Z" fill="#666666" stroke="black" stroke-width="0.427479"/>
<path d="M60.8514 13.9624C61.6916 13.9624 62.3727 13.6263 62.3727 13.2117C62.3727 12.7971 61.6916 12.4609 60.8514 12.4609C60.0112 12.4609 59.3301 12.7971 59.3301 13.2117C59.3301 13.6263 60.0112 13.9624 60.8514 13.9624Z" fill="#666666" stroke="black" stroke-width="0.427479"/>
</g>
<defs>
<clipPath id="clip0_2109_191401">
<rect width="150" height="150" fill="white"/>
</clipPath>
</defs>
</svg>
