<svg width="150" height="150" viewBox="0 0 150 150" fill="none" xmlns="http://www.w3.org/2000/svg">
<g clip-path="url(#clip0_2109_191332)">
<path d="M0.600586 74.8294L37.8378 0.683594H111.411L149.249 74.8294L111.411 149.146H37.8378L0.600586 74.8294Z" fill="#CCCCCC"/>
<path d="M37.8378 149.146L46.997 131.549L18.7688 74.8294L46.997 18.2804H102.853L111.411 0.683594H37.8378L0.600586 74.8294L37.8378 149.146Z" fill="#E5E5E5"/>
<path d="M111.411 0.683594L102.853 18.2804L130.481 74.8294L102.853 131.549H46.997L37.8379 149.146H111.411L149.249 74.8294L111.411 0.683594Z" fill="#B2B2B2"/>
<path d="M0.600586 74.8294L37.8378 0.683594H111.411L149.249 74.8294L111.411 149.146H37.8378L0.600586 74.8294Z" stroke="black" stroke-width="0.320325"/>
</g>
<defs>
<clipPath id="clip0_2109_191332">
<rect width="150" height="150" fill="white"/>
</clipPath>
</defs>
</svg>
