<svg width="150" height="150" viewBox="0 0 150 150" fill="none" xmlns="http://www.w3.org/2000/svg">
<g clip-path="url(#clip0_2109_245450)">
<path d="M139.474 6.00601V3.003L138.947 2.7027L134.211 1.8018L128.421 1.35135L120.526 0.750751L115.79 0.600601L111.053 0.45045L105.79 0.3003L100 0.15015L94.2106 0H87.8948H81.579H68.4211H62.1053H55.7895L50.0001 0.15015L44.2106 0.3003L38.9474 0.45045L34.2106 0.600601L25.2632 1.05105L18.4211 1.5015L13.6843 2.1021L11.0527 2.7027L10.5264 3.003V6.00601" stroke="#FFCC00" stroke-width="0.562233"/>
<path d="M32.1055 0.75V3.753" stroke="#FFCC00" stroke-width="0.562233"/>
<path d="M53.6846 0.148438V3.15144" stroke="#FFCC00" stroke-width="0.562233"/>
<path d="M74.7373 0V3.003" stroke="#FFCC00" stroke-width="0.562233"/>
<path d="M96.3154 0.148438V3.15144" stroke="#FFCC00" stroke-width="0.562233"/>
<path d="M117.895 0.75V3.753" stroke="#FFCC00" stroke-width="0.562233"/>
<path d="M10.5264 4.503L11.0527 4.35285L15.7895 3.3018L21.579 2.85135L29.4737 2.4009L34.2106 2.25075L38.9474 2.1006L44.2106 1.95045L50.0001 1.8003L55.7895 1.65015L62.1053 1.5H68.4211H81.579H87.8948L94.2106 1.65015L100 1.8003L105.79 1.95045L111.053 2.1006L115.79 2.25075L124.737 2.55105L131.579 3.15165L136.316 3.6021L138.947 4.35285L139.474 4.503" stroke="#FFCC00" stroke-width="0.562233"/>
<path d="M139.474 146.844L138.947 147.144L124.737 148.796L105.79 149.547L87.8948 149.847L81.579 149.997H74.7369L55.7895 149.847L38.9474 149.396L21.579 148.495L11.0527 147.144L10.5264 146.844V6.15315L11.0527 5.85285L25.2632 4.2012L44.2106 3.45045L62.1053 3H68.4211H74.7369L94.2106 3.15015L111.053 3.6006L128.421 4.35135L138.947 5.85285L139.474 6.15315V146.844Z" fill="#8C8C8C"/>
<path d="M126.842 146.844L125.79 147.444L111.579 149.096L95.2635 149.697L85.2635 149.847L80.0003 149.997H74.7372L59.474 149.847L42.1056 149.246L27.3687 148.045L24.2108 147.444L23.6845 147.144L23.1582 146.844V6.15315L24.2108 5.4024L38.4214 3.9009L54.7372 3.3003L64.2108 3H69.474H74.7372L90.0003 3.15015L107.895 3.75075L122.632 4.8018L125.79 5.4024L126.316 5.85285L126.842 6.15315V146.844Z" fill="#A6A6A6"/>
<path d="M121.052 146.844V147.144L107.895 149.096L93.1577 149.697L84.2104 149.847L79.4735 149.997H74.7367L56.8419 149.697L42.1051 149.096L28.9472 147.144L28.4209 146.844V6.15315L28.9472 5.85285L42.1051 3.9009L56.8419 3.3003L65.7893 3H69.9998H74.7367L93.1577 3.3003L107.895 3.9009L121.052 5.85285V6.15315V146.844Z" fill="#BFBFBF"/>
<path d="M112.631 146.844L111.579 147.444L98.9471 149.246L82.6313 149.847L78.9471 149.997H74.7366L56.8418 149.547L41.5787 148.345L37.8945 147.444L37.3682 147.144V146.844V6.15315L37.8945 5.4024L51.0524 3.75075L67.3682 3H71.0524H74.7366L93.1576 3.45045L107.894 4.65165L111.579 5.4024L112.105 5.85285L112.631 6.15315V146.844Z" fill="#D9D9D9"/>
<path d="M94.211 146.844V147.444L78.9479 149.847L74.7374 149.997L58.9479 148.495L55.79 147.444L55.2637 146.844V6.15315L55.79 5.4024L71.0531 3H74.7374L91.0531 4.35135L94.211 5.4024V6.15315V146.844Z" fill="#F2F2F2"/>
<path d="M139.474 146.844L138.947 147.144L124.737 148.796L105.79 149.547L87.8948 149.847L81.579 149.997H74.7369L55.7895 149.847L38.9474 149.396L21.579 148.495L11.0527 147.144L10.5264 146.844V6.15315L11.0527 5.85285L25.2632 4.2012L44.2106 3.45045L62.1053 3H68.4211H74.7369L94.2106 3.15015L111.053 3.6006L128.421 4.35135L138.947 5.85285L139.474 6.15315V146.844Z" stroke="black" stroke-width="0.562233"/>
<path d="M10.5264 30.6297L11.0527 30.3294L15.7895 29.4285L21.579 28.8279L29.4737 28.3775L34.2106 28.2273L38.9474 28.0772L44.2106 27.927L50.0001 27.7769L55.7895 27.6267L62.1053 27.4766H68.4211H81.579H87.8948L94.2106 27.6267L100 27.7769L105.79 27.927L111.053 28.0772L115.79 28.2273L124.737 28.6778L131.579 29.1282L136.316 29.5787L138.947 30.3294L139.474 30.6297" stroke="#7F7F7F" stroke-width="0.562233"/>
<path d="M10.5264 62.761L11.0527 62.6109L15.7895 62.0103L21.579 61.8601L29.4737 61.5598L38.9474 61.4097L44.2106 61.2595H50.0001H55.7895H62.1053L68.4211 61.1094H81.579L87.8948 61.2595H94.2106H100H105.79L111.053 61.4097L120.526 61.5598L128.421 61.8601L134.211 62.0103L138.947 62.6109L139.474 62.761" stroke="#7F7F7F" stroke-width="0.562233"/>
<path d="M139.474 122.375L138.947 122.675L134.211 123.576L128.421 124.027L120.526 124.627L115.79 124.777L111.053 124.928L105.79 125.078L100 125.228H94.2106L87.8948 125.378H81.579H68.4211H62.1053L55.7895 125.228H50.0001L44.2106 125.078L38.9474 124.928L34.2106 124.777L25.2632 124.327L18.4211 123.877L13.6843 123.276L11.0527 122.675L10.5264 122.375" stroke="#7F7F7F" stroke-width="0.562233"/>
<path d="M139.474 93.2422L138.947 93.3923L134.211 93.8428L128.421 94.1431L120.526 94.4434L111.053 94.5935H105.79L100 94.7437H94.2106H87.8948L81.579 94.8938H68.4211L62.1053 94.7437H55.7895H50.0001L44.2106 94.5935H38.9474L29.4737 94.4434L21.579 94.1431L15.7895 93.8428L11.0527 93.3923L10.5264 93.2422" stroke="#7F7F7F" stroke-width="0.562233"/>
<path d="M138.947 90.2406H144.21L150 88.7391V87.2376L144.21 85.5859H138.947V90.2406Z" fill="#E5E5E5" stroke="black" stroke-width="0.562233"/>
<path d="M138.947 86.3359H147.368" stroke="black" stroke-width="0.562233"/>
<path d="M138.947 87.2344H150" stroke="black" stroke-width="0.562233"/>
<path d="M138.947 87.9844H147.368" stroke="black" stroke-width="0.562233"/>
<path d="M138.947 88.7422H147.368" stroke="black" stroke-width="0.562233"/>
<path d="M138.947 89.4922H144.21" stroke="black" stroke-width="0.562233"/>
<path d="M150 85.5889V88.7421V88.1415L148.947 87.5409L147.895 86.9403L146.842 86.4898L145.263 86.1895L143.158 85.8892L141.579 85.7391L139.474 85.5889V82.5859H141.579L143.158 82.8862L145.263 83.1865L146.842 83.4868L147.895 83.9373L148.947 84.3877L150 84.9883V85.5889Z" fill="#BFBFBF" stroke="black" stroke-width="0.562233"/>
<path d="M150 85.5859V88.5889L148.421 90.3907L143.158 92.0424L140 92.9433L135.789 93.8442L131.579 94.7451L126.316 95.4958L121.053 96.3967L115.263 97.2976L108.947 98.0484L102.632 98.9493L95.7895 99.8502L88.9474 100.751L81.5789 101.652L74.7368 102.403L67.8947 103.304L61.0526 104.205L54.2105 104.955L47.3684 105.856L40.5263 106.757L34.7368 107.658L28.9474 108.409L23.1579 109.31L17.8947 110.211L13.6842 111.111L9.47368 111.862L3.68421 113.664L0 115.316V116.217V113.214L1.57895 111.412L6.31579 109.76L9.47368 108.859L13.6842 107.958L17.8947 107.208L23.1579 106.307L28.9474 105.406L34.7368 104.505L40.5263 103.754L47.3684 102.853L54.2105 101.952L61.0526 101.051L67.8947 100.301L74.7368 99.3998L81.5789 98.4989L88.9474 97.5979L95.7895 96.8472L102.632 95.9463L108.947 95.0454L115.263 94.2946L121.053 93.3937L126.316 92.4928L131.579 91.5919L135.789 90.8412L140 89.9403L146.316 88.2886L149.474 86.4868L150 85.5859Z" fill="#A6A6A6" stroke="black" stroke-width="0.562233"/>
<path d="M150 88.5859L148.421 90.3877L143.158 92.0394L140 92.9403L135.789 93.8412L131.579 94.7421L126.316 95.4928L121.053 96.3937L115.263 97.2946L108.947 98.1955L102.632 98.9463L95.7895 99.8472L88.9474 100.748L81.5789 101.649L74.7368 102.4L67.8947 103.301L61.0526 104.202L54.2105 104.952L47.3684 105.853L40.5263 106.754L34.7368 107.655L28.9474 108.556L23.1579 109.307L17.8947 110.208L13.6842 111.108L9.47368 111.859L3.68421 113.661L0 115.313V116.214V116.814L3.15789 118.015L8.42105 119.066L10.5263 119.367V116.214L12.1053 114.562L16.3158 112.76L19.4737 111.859L23.1579 111.108L27.3684 110.208L32.1053 109.307L37.3684 108.406L42.6316 107.655L48.4211 106.754L54.7368 105.853L61.0526 104.952L67.3684 104.202L73.6842 103.301L80 102.4L86.8421 101.649L93.1579 100.748L99.4737 99.8472L105.789 98.9463L111.579 98.0454L117.368 97.2946L123.158 96.3937L127.895 95.4928L132.632 94.7421L136.842 93.8412L141.053 92.9403L146.316 91.2886L149.474 89.4868L150 88.5859Z" fill="#7F7F7F" stroke="black" stroke-width="0.562233"/>
<path d="M138.947 35.139H144.21L150 33.6375V32.136L144.21 30.4844H138.947V35.139Z" fill="#E5E5E5" stroke="black" stroke-width="0.562233"/>
<path d="M138.947 31.3828H147.368" stroke="black" stroke-width="0.562233"/>
<path d="M138.947 32.1328H150" stroke="black" stroke-width="0.562233"/>
<path d="M138.947 32.8828H147.368" stroke="black" stroke-width="0.562233"/>
<path d="M138.947 33.6328H147.368" stroke="black" stroke-width="0.562233"/>
<path d="M138.947 34.3828H144.21" stroke="black" stroke-width="0.562233"/>
<path d="M150 30.4796V33.6327V33.0321L148.947 32.4315L147.895 31.8309L146.842 31.3805L145.263 31.0802L143.158 30.7799L141.579 30.6297L139.474 30.4796V27.4766H141.579L143.158 27.7769L145.263 28.0772L146.842 28.3775L147.895 28.8279L148.947 29.4285L150 29.879V30.4796Z" fill="#BFBFBF" stroke="black" stroke-width="0.562233"/>
<path d="M150 30.4844V33.6375L148.421 35.2892L143.158 36.9408L140 37.8417L135.789 38.7426L131.579 39.6435L126.316 40.3943L121.053 41.2952L115.263 42.1961L108.947 43.097L102.632 43.8477L95.7895 44.7486L88.9474 45.6495L81.5789 46.5504L74.7368 47.3012L67.8947 48.2021L61.0526 49.103L54.2105 50.0039L47.3684 50.7546L40.5263 51.6555L34.7368 52.5564L28.9474 53.3072L23.1579 54.2081L17.8947 55.109L13.6842 56.0099L9.47368 56.7607L3.68421 58.5625L0 60.2141V61.115V58.112L1.57895 56.4604L6.31579 54.6585L9.47368 53.7576L13.6842 52.8567L17.8947 52.106L23.1579 51.2051L28.9474 50.3042L34.7368 49.5534L40.5263 48.6525L47.3684 47.7516L54.2105 46.8507L61.0526 45.9498L67.8947 45.1991L74.7368 44.2982L81.5789 43.3973L88.9474 42.6465L95.7895 41.7456L102.632 40.8447L108.947 39.9438L115.263 39.1931L121.053 38.2922L126.316 37.3913L131.579 36.4904L135.789 35.7396L140 34.8387L146.316 33.1871L149.474 31.3853L150 30.4844Z" fill="#A6A6A6" stroke="black" stroke-width="0.562233"/>
<path d="M150 33.6328L148.421 35.2845L143.158 36.9361L140 37.837L135.789 38.7379L131.579 39.6388L126.316 40.5397L121.053 41.2905L115.263 42.1914L108.947 43.0923L102.632 43.843L95.7895 44.7439L88.9474 45.6448L81.5789 46.5457L74.7368 47.2965L67.8947 48.1974L61.0526 49.0983L54.2105 49.9992L47.3684 50.7499L40.5263 51.6508L34.7368 52.5517L28.9474 53.4526L23.1579 54.2034L17.8947 55.1043L13.6842 56.0052L9.47368 56.7559L3.68421 58.5577L0 60.2094V61.1103V61.7109L3.15789 62.9121L8.42105 63.9631L10.5263 64.2634V61.1103L12.1053 59.4586L16.3158 57.6568L19.4737 56.7559L23.1579 56.0052L27.3684 55.1043L32.1053 54.2034L37.3684 53.3025L42.6316 52.5517L48.4211 51.6508L54.7368 50.7499L61.0526 49.9992L67.3684 49.0983L73.6842 48.1974L80 47.2965L86.8421 46.5457L93.1579 45.6448L99.4737 44.7439L105.789 43.843L111.579 43.0923L117.368 42.1914L123.158 41.2905L127.895 40.3896L132.632 39.6388L136.842 38.7379L141.053 37.837L146.316 36.1854L149.474 34.3836L150 33.6328Z" fill="#7F7F7F" stroke="black" stroke-width="0.562233"/>
</g>
<defs>
<clipPath id="clip0_2109_245450">
<rect width="150" height="150" fill="white"/>
</clipPath>
</defs>
</svg>
