<svg width="150" height="150" viewBox="0 0 150 150" fill="none" xmlns="http://www.w3.org/2000/svg">
<g clip-path="url(#clip0_2109_243064)">
<path d="M102.688 1.79688H125.269V13.1969H102.688V1.79688Z" fill="#336666" stroke="black" stroke-width="0.803219"/>
<path d="M104.839 1.79688H122.581V13.1969H104.839V1.79688Z" fill="#4C7F7F"/>
<path d="M108.603 1.79688H119.355V13.1969H108.603V1.79688Z" fill="#669999"/>
<path d="M112.903 1.79688H115.054V13.1969H112.903V1.79688Z" fill="#99CCCC"/>
<path d="M26.8818 143.998V13.7984L82.7958 3.89844L138.71 13.7984V143.998H26.8818Z" fill="#194C4C" stroke="black" stroke-width="0.803219"/>
<path d="M31.1826 143.998V13.7984L82.7955 3.89844L133.871 13.7984V143.998H31.1826Z" fill="#336666"/>
<path d="M38.1719 143.998V13.7984L82.7955 3.89844L126.882 13.7984V143.998H38.1719Z" fill="#4C7F7F"/>
<path d="M50 143.998V13.7984L82.7957 3.89844L115.591 13.7984V143.998H50Z" fill="#669999"/>
<path d="M63.9785 143.998V13.7984L82.7957 3.89844L101.075 13.7984V143.998H63.9785Z" fill="#7FB2B2"/>
<path d="M77.957 143.998V13.7984L82.7957 3.89844L87.0968 13.7984V143.998H77.957Z" fill="#99CCCC"/>
<path d="M15.5918 143.703H150V150.003H15.5918V143.703Z" fill="#666666" stroke="black" stroke-width="0.803219"/>
<path d="M99.4619 0H128.494V1.8H99.4619V0Z" fill="#336666"/>
<path d="M102.15 0H125.269V1.8H102.15V0Z" fill="#4C7F7F"/>
<path d="M106.989 0H120.968V1.8H106.989V0Z" fill="#669999"/>
<path d="M112.365 0H115.591V1.8H112.365V0Z" fill="#99CCCC"/>
<path d="M99.4619 0H128.494V1.8H99.4619V0Z" stroke="black" stroke-width="0.803219"/>
<path d="M6.45117 119.998V98.3984H26.8813V119.998H6.45117Z" fill="#336666" stroke="black" stroke-width="0.803219"/>
<path d="M6.45117 117.9V100.5H26.8813V117.9H6.45117Z" fill="#4C7F7F"/>
<path d="M6.45117 114.597V103.797H26.8813V114.597H6.45117Z" fill="#669999"/>
<path d="M6.45117 110.4V108H26.8813V110.4H6.45117Z" fill="#99CCCC"/>
<path d="M0 122.998V95.3984H6.45161V122.998H0Z" fill="#336666"/>
<path d="M0 120.302V98.1016H6.45161V120.302H0Z" fill="#4C7F7F"/>
<path d="M0 116.097V102.297H6.45161V116.097H0Z" fill="#669999"/>
<path d="M0 110.703V107.703H6.45161V110.703H0Z" fill="#99CCCC"/>
<path d="M0 122.998V95.3984H6.45161V122.998H0Z" stroke="black" stroke-width="0.803219"/>
<path d="M26.8818 14.1016H138.71" stroke="#669999" stroke-width="0.803219"/>
</g>
<defs>
<clipPath id="clip0_2109_243064">
<rect width="150" height="150" fill="white"/>
</clipPath>
</defs>
</svg>
