<svg width="150" height="150" viewBox="0 0 150 150" fill="none" xmlns="http://www.w3.org/2000/svg">
<g clip-path="url(#clip0_2109_244328)">
<path d="M0 93.8438L56.1576 135.962V150.001H93.8424V135.962L150 93.8438H0Z" fill="#7F7F7F"/>
<path d="M3.69434 93.8438L57.2658 135.962V150.001H92.7337V135.962L146.305 93.8438H3.69434Z" fill="#999999"/>
<path d="M14.0391 93.8438L59.8519 135.962V150.001H90.1474V135.962L135.96 93.8438H14.0391Z" fill="#B2B2B2"/>
<path d="M28.0791 93.8438L63.1776 135.962V150.001H86.8229V135.962L121.921 93.8438H28.0791Z" fill="#CCCCCC"/>
<path d="M46.9209 93.8438L67.98 135.962V150.001H82.0194V135.962L103.079 93.8438H46.9209Z" fill="#E5E5E5"/>
<path d="M69.0889 93.8438L73.5224 135.962V150.001H76.478V135.962L80.9115 93.8438H69.0889Z" fill="white"/>
<path d="M0 93.8438L56.1576 135.962V150.001H93.8424V135.962L150 93.8438H0Z" stroke="black" stroke-width="0.738916"/>
<path d="M75 18.4729C116.421 18.4729 150 14.3376 150 9.23645C150 4.1353 116.421 0 75 0C33.5786 0 0 4.1353 0 9.23645C0 14.3376 33.5786 18.4729 75 18.4729Z" fill="#7F7F7F"/>
<path d="M75 18.8441C116.421 18.8441 150 15.7013 150 11.8244C150 7.94752 116.421 4.80469 75 4.80469C33.5786 4.80469 0 7.94752 0 11.8244C0 15.7013 33.5786 18.8441 75 18.8441Z" fill="#666666"/>
<path d="M75 18.4706C116.421 18.4706 150 16.9819 150 15.1454C150 13.309 116.421 11.8203 75 11.8203C33.5786 11.8203 0 13.309 0 15.1454C0 16.9819 33.5786 18.4706 75 18.4706Z" fill="#4C4C4C"/>
<path d="M150 93.8403V9.23438L149.631 10.3427L144.089 12.929L137.069 14.4068L133.005 15.1457L128.202 15.8846L122.66 16.6235L116.749 16.993L110.837 17.7319L104.187 18.1014L97.1675 18.4708H90.1478L82.7586 18.8403H67.2414L59.8522 18.4708H52.8325L45.8128 18.1014L39.1626 17.7319L33.2512 16.993L27.3399 16.6235L22.1675 15.8846L16.9951 15.1457L12.931 14.4068L5.91133 12.929L1.47783 11.0817L0.369458 10.3427L0 9.23438V93.8403L0.369458 94.9487L5.91133 97.5349L12.931 99.0127L16.9951 99.7516L22.1675 100.491L27.3399 100.86L33.2512 101.599L39.1626 101.968L45.8128 102.338L52.8325 102.707H59.8522L67.2414 103.077H75H82.7586L90.1478 102.707H97.1675L104.187 102.338L110.837 101.968L116.749 101.599L122.66 100.86L128.202 100.491L133.005 99.7516L137.069 99.0127L144.089 97.5349L148.522 95.6876L149.631 94.9487L150 93.8403Z" fill="#7F7F7F"/>
<path d="M140.763 98.2755L135.222 99.3839L128.571 100.123L125.246 100.862L121.182 101.231L117.488 101.601H113.054L108.99 101.97L104.187 102.34L99.7536 102.709H90.1477L84.9753 103.078H80.1723H65.0245L59.8521 102.709H50.2462L45.8127 102.34L41.3792 101.97L36.9457 101.601H32.5122L28.4482 101.231L21.059 100.123L14.7782 99.3839L11.8225 98.645L9.23633 98.2755V14.0391L14.7782 15.1474L21.059 15.8864L28.4482 16.9947L32.5122 17.3642H36.5762L41.0097 17.7336L45.4432 18.1031L50.2462 18.4726H59.8521L65.0245 18.842H84.9753L90.1477 18.4726H99.7536L104.557 18.1031L108.99 17.7336L113.424 17.3642H117.488L121.552 16.9947L128.941 15.8864L135.222 15.1474L138.177 14.4085L140.763 14.0391V98.2755Z" fill="#999999"/>
<path d="M128.941 100.119L123.399 100.858L117.488 101.228L111.207 101.967L104.557 102.336L97.5374 102.705H90.1482L82.7591 103.075H67.2418L59.8527 102.705H52.4635L45.4438 102.336L38.7936 101.967L32.5128 101.228L26.6014 100.858L21.0596 100.119V15.8828L26.6014 16.6217L32.5128 16.9912L38.7936 17.7301L45.4438 18.0996L52.4635 18.469H59.8527L67.2418 18.8385H82.7591L90.1482 18.469H97.5374L104.557 18.0996L111.207 17.7301L117.488 16.9912L123.399 16.6217L128.941 15.8828V100.119Z" fill="#B2B2B2"/>
<path d="M114.902 101.604L110.468 101.973L105.665 102.343L100.862 102.712H95.6898L90.5174 103.081H59.1134L53.941 102.712H49.138L44.3351 102.343L39.5321 101.973L35.0986 101.604V17.3672L39.5321 17.7366H44.3351L49.138 18.1061L53.941 18.4756H59.1134L64.2858 18.845H85.7144L90.8868 18.4756H96.0592L101.232 18.1061L106.035 17.7366H110.838L115.271 17.3672L114.902 101.604Z" fill="#CCCCCC"/>
<path d="M98.2757 102.707L92.7338 103.077H56.8964L51.3545 102.707V18.1016L56.8964 18.471H62.8077L69.0885 18.8405H83.8668L89.7781 18.471L95.6895 18.1016H98.6451L98.2757 102.707Z" fill="#E5E5E5"/>
<path d="M79.4331 103.082H78.3247H77.2163H76.1079H74.9996H73.5217H72.0439H70.9355H69.8271V18.4766L70.9355 18.846H72.0439H73.5217H74.9996H76.1079H77.5858H78.6941L79.8025 18.4766L79.4331 103.082Z" fill="white"/>
<path d="M150 9.23438L149.631 10.3427L144.089 12.929L137.069 14.4068L133.005 15.1457L128.202 15.8846L122.66 16.6235L116.749 16.993L110.837 17.7319L104.187 18.1014L97.1675 18.4708H90.1478L82.7586 18.8403H67.2414L59.8522 18.4708H52.8325L45.8128 18.1014L39.1626 17.7319L33.2512 16.993L27.3399 16.6235L22.1675 15.8846L16.9951 15.1457L12.931 14.4068L5.91133 12.929L1.47783 11.0817L0.369458 10.3427L0 9.23438" stroke="black" stroke-width="0.738916"/>
<path d="M150 93.8424V9.23645L149.631 8.12808L144.089 5.54187L137.069 4.06404L133.005 3.32512L128.202 2.58621L122.66 2.21675L116.749 1.47783L110.837 1.10837L104.187 0.738916L97.1675 0.369458L90.1478 0H82.7586H59.8522L52.8325 0.369458L45.8128 0.738916L39.1626 1.10837L33.2512 1.47783L27.3399 2.21675L22.1675 2.58621L16.9951 3.32512L12.931 4.06404L5.91133 5.54187L1.47783 7.38916L0.369458 8.12808L0 9.23645V93.8424L0.369458 94.9507L5.91133 97.5369L12.931 99.0148L16.9951 99.7537L22.1675 100.493L27.3399 100.862L33.2512 101.601L39.1626 101.97L45.8128 102.34L52.8325 102.709H59.8522L67.2414 103.079H75H82.7586L90.1478 102.709H97.1675L104.187 102.34L110.837 101.97L116.749 101.601L122.66 100.862L128.202 100.493L133.005 99.7537L137.069 99.0148L144.089 97.5369L148.522 95.6897L149.631 94.9507L150 93.8424Z" stroke="black" stroke-width="0.738916"/>
</g>
<defs>
<clipPath id="clip0_2109_244328">
<rect width="150" height="150" fill="white"/>
</clipPath>
</defs>
</svg>
