<svg width="150" height="150" viewBox="0 0 150 150" fill="none" xmlns="http://www.w3.org/2000/svg">
<g clip-path="url(#clip0_2109_242374)">
<path d="M134.953 149.398V150H116.145V149.398H119.436H122.257H123.668H125.549H126.96H128.84H131.192H134.953Z" fill="#333333" stroke="black" stroke-width="0.751927"/>
<path d="M33.8557 149.398V150H15.0469V149.398H18.8086H21.1597H23.0406H24.4513H25.8619H27.7428H30.0939H33.8557Z" fill="#333333" stroke="black" stroke-width="0.751927"/>
<path d="M35.2661 113.93V143.99H32.915V145.793L49.3727 145.493V143.99H47.0216V124.451L35.2661 113.93Z" fill="#333333" stroke="black" stroke-width="0.751927"/>
<path d="M103.449 124.451V143.99H101.098V145.793L117.555 145.493V143.99H115.204V113.93L103.449 124.451Z" fill="#333333" stroke="black" stroke-width="0.751927"/>
<path d="M83.2285 140.984L141.066 87.1762V9.01984L136.363 3.00781H141.066L150 9.01984V87.1762L84.6392 140.984H83.2285Z" fill="#4C4C4C"/>
<path d="M66.7712 140.984L9.40439 87.1762V9.01984L14.1066 3.00781H9.40439L0 9.01984V87.1762L65.8307 140.984H66.7712Z" fill="#7F7F7F"/>
<path d="M80.8779 140.984L117.555 87.1762V9.01984L112.853 3.00781H124.608L129.311 9.01984V87.1762L82.2886 140.984H80.8779Z" fill="#7F7F7F"/>
<path d="M82.2881 140.984L129.31 87.1762V9.01984L124.608 3.00781H136.363L141.066 9.01984V87.1762L83.2285 140.984H82.2881Z" fill="#666666"/>
<path d="M68.1817 140.984L21.1598 87.1762V9.01984L25.862 3.00781H14.1065L9.4043 9.01984V87.1762L66.7711 140.984H68.1817Z" fill="#999999"/>
<path d="M79.9375 140.984L105.8 87.1762V9.01984L101.097 3.00781H112.853L117.555 9.01984V87.1762L80.8779 140.984H79.9375Z" fill="#999999"/>
<path d="M69.1225 140.984L32.9156 87.1762V9.01984L37.6178 3.00781H25.8624L21.1602 9.01984V87.1762L68.1821 140.984H69.1225Z" fill="#B2B2B2"/>
<path d="M78.5264 140.984L94.0436 87.1762V9.01984L90.2819 3.00781H101.097L105.799 9.01984V87.1762L79.937 140.984H78.5264Z" fill="#B2B2B2"/>
<path d="M70.5326 140.984L44.6705 87.1762V9.01984L49.3727 3.00781H37.6172L32.915 9.01984V87.1762L69.1219 140.984H70.5326Z" fill="#CCCCCC"/>
<path d="M77.5859 140.984L82.2881 87.1762V9.01984L79.937 3.00781H90.2819L94.0436 9.01984V87.1762L78.5264 140.984H77.5859Z" fill="#CCCCCC"/>
<path d="M72.4138 140.984L56.4264 87.1762V9.01984L59.7179 3.00781H49.3731L44.6709 9.01984V87.1762L70.533 140.984H72.4138Z" fill="#E5E5E5"/>
<path d="M75.2349 140.984L68.1816 87.1762V9.01984L70.5327 3.00781H79.9371L82.2882 9.01984V87.1762L77.586 140.984H75.2349Z" fill="#E5E5E5"/>
<path d="M75.2355 140.984L68.1822 87.1762V9.01984L70.5333 3.00781H59.7183L56.4268 9.01984V87.1762L72.4142 140.984H75.2355Z" fill="white"/>
<path d="M112.853 3.00601L75.2354 0L141.066 3.00601H112.853Z" fill="#7F7F7F"/>
<path d="M75.2354 0L84.6397 3.00601H112.853L75.2354 0Z" fill="#B2B2B2"/>
<path d="M75.235 0L58.7773 3.00601H84.6394L75.235 0Z" fill="#E5E5E5"/>
<path d="M58.7776 3.00601L75.2353 0L35.2666 3.00601H58.7776Z" fill="#CCCCCC"/>
<path d="M75.235 0L35.2664 3.00601H9.4043L75.235 0Z" fill="#B2B2B2"/>
<path d="M9.4043 3.00601H141.066L75.235 0L9.4043 3.00601Z" stroke="black" stroke-width="0.751927"/>
<path d="M0 87.1762L65.8307 140.984H84.6395L150 87.1762V9.01984L141.066 3.00781H9.40439L0 9.01984V87.1762Z" stroke="black" stroke-width="0.751927"/>
<path d="M149.999 84.7734L148.589 85.6752L144.357 86.2764L137.304 86.8776L128.369 87.4788L117.084 88.0801L104.388 88.3807L90.7518 88.6813H75.7048H60.6578L47.0214 88.3807L34.3255 88.0801L23.0403 87.4788L14.1061 86.8776L7.05279 86.2764L2.82081 85.6752L1.41016 84.7734" stroke="#B2B2B2" stroke-width="0.751927"/>
<path d="M149.999 11.4234L148.589 10.5216L144.357 9.92043L137.304 9.31923L128.369 8.71803L117.084 8.11683L104.388 7.81623L90.7518 7.51562H75.7048H60.6578L47.0214 7.81623L34.3255 8.11683L23.0403 8.71803L14.1061 9.31923L7.05279 9.92043L2.82081 10.5216L1.41016 11.4234" stroke="#B2B2B2" stroke-width="0.751927"/>
<path d="M33.8557 149.398V150H15.0469V149.398H18.8086H21.1597H23.0406H24.4513H25.8619H27.7428H30.0939H33.8557Z" fill="#333333" stroke="black" stroke-width="0.751927"/>
<path d="M31.5044 148.495H28.2129V107.914L31.5044 110.92V148.495Z" fill="#4C4C4C" stroke="black" stroke-width="0.751927"/>
<path d="M28.2129 148.493H24.4512V104.906L28.2129 107.912V148.493Z" fill="#666666" stroke="black" stroke-width="0.751927"/>
<path d="M24.4517 148.499H21.1602V101.906L24.4517 105.213V148.499Z" fill="#7F7F7F" stroke="black" stroke-width="0.751927"/>
<path d="M132.602 148.494H129.311V101.901L132.602 99.1953V148.494Z" fill="#4C4C4C" stroke="black" stroke-width="0.751927"/>
<path d="M31.5044 148.495H28.2129V107.914L31.5044 110.92V148.495Z" fill="#4C4C4C" stroke="black" stroke-width="0.751927"/>
<path d="M129.311 148.499H125.549V104.912L129.311 101.906V148.499Z" fill="#666666" stroke="black" stroke-width="0.751927"/>
<path d="M28.2129 148.493H24.4512V104.906L28.2129 107.912V148.493Z" fill="#666666" stroke="black" stroke-width="0.751927"/>
<path d="M125.548 148.498H122.257V107.916L125.548 105.211V148.498Z" fill="#7F7F7F" stroke="black" stroke-width="0.751927"/>
<path d="M24.4517 148.499H21.1602V101.906L24.4517 105.213V148.499Z" fill="#7F7F7F" stroke="black" stroke-width="0.751927"/>
<path d="M122.257 148.495H134.953V149.397H116.145V148.495H118.496V110.92L122.257 107.914V148.495Z" fill="#B2B2B2" stroke="black" stroke-width="0.751927"/>
<path d="M21.1597 148.498H33.8557V149.399H15.0469V148.498H17.398V98.8984L21.1597 101.904V148.498Z" fill="#B2B2B2" stroke="black" stroke-width="0.751927"/>
</g>
<defs>
<clipPath id="clip0_2109_242374">
<rect width="150" height="150" fill="white"/>
</clipPath>
</defs>
</svg>
