<svg width="150" height="150" viewBox="0 0 150 150" fill="none" xmlns="http://www.w3.org/2000/svg">
<g clip-path="url(#clip0_2109_243657)">
<path d="M37.3733 117.912V143.659H27.7773V108.211L37.3733 117.912Z" fill="#333333" stroke="black" stroke-width="0.86822"/>
<path d="M111.616 117.912V143.659H121.212V108.211L111.616 117.912Z" fill="#333333" stroke="black" stroke-width="0.86822"/>
<path d="M150 97.0155V41.7916L148.485 36.1946L143.939 30.9707L136.869 26.4931L127.778 22.3886L116.667 19.0304L104.04 16.4185L89.899 14.5528L74.7475 14.1797L59.596 14.5528L45.9596 16.4185L33.3333 19.0304L22.2222 22.3886L12.6263 26.4931L6.06061 30.9707L1.51515 36.1946L0 41.7916V97.0155L1.51515 102.613L6.06061 107.836L12.6263 112.314L22.2222 116.418L33.3333 119.777L45.9596 122.389L59.596 124.254L74.7475 124.627L89.899 124.254L104.04 122.389L116.667 119.777L127.778 116.418L136.869 112.314L143.939 107.836L148.485 102.613L150 97.0155Z" fill="#7F7F7F" stroke="black" stroke-width="0.86822"/>
<path d="M137.373 97.0155V41.7916L135.858 36.1946L132.323 30.9707L126.767 26.4931L119.192 22.3886L109.596 19.0304L98.9896 16.4185L87.3735 14.5528L74.7472 14.1797L62.1209 14.5528L50.5048 16.4185L39.8987 19.0304L30.8078 22.3886L23.232 26.4931L17.6765 30.9707L13.6361 36.1946L12.626 41.7916V97.0155L13.6361 102.613L17.6765 107.836L23.232 112.314L30.8078 116.418L39.8987 119.777L50.5048 122.389L62.1209 124.254L74.7472 124.627L87.3735 124.254L98.9896 122.389L109.596 119.777L119.192 116.418L126.767 112.314L132.323 107.836L135.858 102.613L137.373 97.0155Z" fill="#999999"/>
<path d="M118.687 97.0155V41.7916L117.677 36.1946L115.152 30.9707L111.111 26.4931L106.061 22.3886L99.4953 19.0304L91.9195 16.4185L83.8387 14.5528L74.7478 14.1797L66.162 14.5528L58.0812 16.4185L50.5054 19.0304L43.9397 22.3886L38.8892 26.4931L34.8488 30.9707L32.3236 36.1946L31.3135 41.7916V97.0155L32.3236 102.613L34.8488 107.836L38.8892 112.314L43.9397 116.418L50.5054 119.777L58.0812 122.389L66.162 124.254L74.7478 124.627L83.8387 124.254L91.9195 122.389L99.4953 119.777L106.061 116.418L111.111 112.314L115.152 107.836L117.677 102.613L118.687 97.0155Z" fill="#B2B2B2"/>
<path d="M100 97.0155V41.7916L99.4949 36.1946L97.9798 30.9707L95.9596 26.4931L92.9293 22.3886L88.8889 19.0304L84.8485 16.4185L79.798 14.5528L74.7475 14.1797L69.697 14.5528L65.1515 16.4185L61.1111 19.0304L57.0707 22.3886L54.0404 26.4931L52.0202 30.9707L50.5051 36.1946L50 41.7916V97.0155L50.5051 102.613L52.0202 107.836L54.0404 112.314L57.0707 116.418L61.1111 119.777L65.1515 122.389L69.697 124.254L74.7475 124.627L79.798 124.254L84.8485 122.389L88.8889 119.777L92.9293 116.418L95.9596 112.314L97.9798 107.836L99.4949 102.613L100 97.0155Z" fill="#CCCCCC"/>
<path d="M150 41.7891L148.485 43.2816L143.939 44.401L136.869 45.5204L127.778 46.6398L116.667 47.3861L104.04 48.1323L89.899 48.5055H74.7475H59.596L45.9596 48.1323L33.3333 47.3861L22.2222 46.6398L12.6263 45.5204L6.06061 44.401L1.51515 43.2816L0 41.7891" stroke="black" stroke-width="0.86822"/>
<path d="M150 97.0156L148.485 98.5082L143.939 99.6276L136.869 100.747L127.778 101.866L116.667 102.986L104.04 103.359L89.899 104.105H74.7475H59.596L45.9596 103.359L33.3333 102.986L22.2222 101.866L12.6263 100.747L6.06061 99.6276L1.51515 98.5082L0 97.0156" stroke="black" stroke-width="0.86822"/>
<path d="M129.798 24.6269L134.343 11.5672V8.20896L131.818 5.22388L127.273 2.61194L121.212 0.746269L117.677 0.373134L114.646 0L111.616 0.373134L109.091 0.746269L106.566 1.49254L104.545 2.61194L103.03 3.73134L102.02 5.22388L97.4746 18.2836V19.0299L98.4847 19.403L99.4948 20.5224L101.515 21.2687L103.535 22.0149L106.566 22.7612L109.596 23.5075L112.626 24.2537L115.656 25L118.687 25.3731L121.717 25.7463H126.262L127.778 25.3731L129.293 25L129.798 24.6269Z" fill="#7F7F7F" stroke="black" stroke-width="0.86822"/>
<path d="M126.768 23.8825L131.313 11.1959L131.818 7.83769L129.798 4.85261L126.262 2.24067L121.212 0.748134L118.182 0.375H115.656L113.131 0.748134L111.111 1.12127L108.586 1.86754L107.071 2.98694L106.06 4.47948L105.05 5.97201L100.505 18.6586L101.01 19.778L103.535 21.2705L107.576 23.1362L112.626 24.2556L117.677 25.0019H122.222L125.252 24.6287L126.768 23.8825Z" fill="#999999"/>
<path d="M122.727 23.1381L127.777 10.4515L128.282 7.09328L126.767 4.10821L124.747 1.8694L121.212 0.75H117.171L113.636 1.49627L111.111 3.73507L109.091 6.72015L104.04 19.4067L104.545 20.5261L106.06 22.0187L109.091 23.1381L112.626 24.2575L116.161 24.6306H119.192L121.717 24.2575L122.727 23.1381Z" fill="#B2B2B2"/>
<path d="M117.677 22.0187L122.222 9.33209L123.232 5.97388V3.36194L122.222 1.49627L121.212 0.75H119.192L117.171 2.24254L115.656 4.85448L114.141 7.83955L109.596 20.5261V21.6455L110.101 22.7649L111.111 23.8843L112.626 24.2575H114.141L115.656 23.8843L117.171 23.1381L117.677 22.0187Z" fill="#CCCCCC"/>
<path d="M102.021 5.22656V5.97283L103.031 6.7191L104.546 7.46537L106.061 8.21164L108.586 9.33104L111.111 10.0773L114.142 10.8236L117.172 11.5698L120.202 11.943L123.233 12.3161L126.263 12.6892H128.788H130.808H132.829L133.839 12.3161L134.344 11.5698" stroke="black" stroke-width="0.86822"/>
<path d="M21.2122 115.296V149.997H8.58594V102.609L21.2122 115.296Z" fill="#333333" stroke="black" stroke-width="0.86822"/>
<path d="M127.777 115.296V149.997H140.404V102.609L127.777 115.296Z" fill="#333333" stroke="black" stroke-width="0.86822"/>
<path d="M19.1923 113.807V150.001H10.6064V104.852L19.1923 113.807Z" fill="#4C4C4C"/>
<path d="M129.798 113.807V150.001H138.384V104.852L129.798 113.807Z" fill="#4C4C4C"/>
<path d="M17.1714 111.942V150.002H12.626V108.211L17.1714 111.942Z" fill="#666666"/>
<path d="M131.818 111.942V150.002H136.364V108.211L131.818 111.942Z" fill="#666666"/>
</g>
<defs>
<clipPath id="clip0_2109_243657">
<rect width="150" height="150" fill="white"/>
</clipPath>
</defs>
</svg>
