<svg width="150" height="150" viewBox="0 0 150 150" fill="none" xmlns="http://www.w3.org/2000/svg">
<g clip-path="url(#clip0_2109_242415)">
<path d="M99.9998 123.297V143.697H97.0928V145.497L118.023 145.197V143.697H115.116V123.597L99.9998 123.297Z" fill="#4C4C4C" stroke="black" stroke-width="0.835269"/>
<path d="M34.8835 123.602V144.002H31.9766V145.502H52.9068V143.702H49.9998V123.602H34.8835Z" fill="#4C4C4C" stroke="black" stroke-width="0.835269"/>
<path d="M28.4886 149.102V150.002H4.65137V149.102H9.30253H12.2095H14.5351H16.2793H18.0235H20.349H23.8374H28.4886Z" fill="#4C4C4C" stroke="black" stroke-width="0.835269"/>
<path d="M145.348 149.102V150.002H120.93V149.102H125.581H128.488H130.813H133.139H134.883H137.209H140.697H145.348Z" fill="#4C4C4C" stroke="black" stroke-width="0.835269"/>
<path d="M136.047 124.798L140.698 119.998V7.19844L136.047 2.39844H140.698L150 7.19844V119.998L140.698 124.798H136.047Z" fill="#4C4C4C"/>
<path d="M13.9535 124.798L9.30233 119.998V7.19844L13.9535 2.39844H9.30233L0 7.19844V119.998L9.30233 124.798H13.9535Z" fill="#7F7F7F"/>
<path d="M112.209 124.798L116.86 119.998V7.19844L112.209 2.39844H124.418L129.069 7.19844V119.998L124.418 124.798H112.209Z" fill="#7F7F7F"/>
<path d="M124.419 124.798L129.07 119.998V7.19844L124.419 2.39844H136.047L140.698 7.19844V119.998L136.047 124.798H124.419Z" fill="#666666"/>
<path d="M25.5818 124.798L20.9306 119.998V7.19844L25.5818 2.39844H13.9539L9.30273 7.19844V119.998L13.9539 124.798H25.5818Z" fill="#999999"/>
<path d="M100.581 124.798L105.232 119.998V7.19844L100.581 2.39844H112.209L116.86 7.19844V119.998L112.209 124.798H100.581Z" fill="#999999"/>
<path d="M37.2088 124.798L32.5576 119.998V7.19844L37.2088 2.39844H25.5809L20.9297 7.19844V119.998L25.5809 124.798H37.2088Z" fill="#B2B2B2"/>
<path d="M90.1162 124.798L93.6046 119.998V7.19844L90.1162 2.39844H100.581L105.232 7.19844V119.998L100.581 124.798H90.1162Z" fill="#B2B2B2"/>
<path d="M49.4191 124.798L44.7679 119.998V7.19844L49.4191 2.39844H37.2098L32.5586 7.19844V119.998L37.2098 124.798H49.4191Z" fill="#CCCCCC"/>
<path d="M79.6514 124.798L81.9769 119.998V7.19844L79.6514 2.39844H90.1165L93.6049 7.19844V119.998L90.1165 124.798H79.6514Z" fill="#CCCCCC"/>
<path d="M59.8832 124.798L56.3948 119.998V7.19844L59.8832 2.39844H48.8367L44.1855 7.19844V119.998L48.8367 124.798H59.8832Z" fill="#E5E5E5"/>
<path d="M70.349 124.798L68.0234 119.998V7.19844L70.349 2.39844H79.6513L81.9769 7.19844V119.998L79.6513 124.798H70.349Z" fill="#E5E5E5"/>
<path d="M70.349 124.798L68.0234 119.998V7.19844L70.349 2.39844H59.8839L56.3955 7.19844V119.998L59.8839 124.798H70.349Z" fill="white"/>
<path d="M112.791 2.4L75 0L140.698 2.4H112.791Z" fill="#7F7F7F"/>
<path d="M75 0L84.3023 2.4H112.791L75 0Z" fill="#B2B2B2"/>
<path d="M74.9998 0L58.7207 2.4H84.3021L74.9998 0Z" fill="#E5E5E5"/>
<path d="M58.7207 2.4L74.9997 0L35.4648 2.4H58.7207Z" fill="#CCCCCC"/>
<path d="M75.0001 0L35.4652 2.4H9.88379L75.0001 0Z" fill="#B2B2B2"/>
<path d="M9.30273 2.4H140.698L74.419 0L9.30273 2.4Z" stroke="black" stroke-width="0.835269"/>
<path d="M0 120.002L9.30233 124.802H140.698L150 120.002V6.90156L140.698 2.10156H9.30233L0 6.90156V120.002Z" stroke="black" stroke-width="0.835269"/>
<path d="M150 118.203L148.256 118.803L144.186 119.403L137.21 120.003L127.907 120.303L116.861 120.603L104.651 120.903L90.698 121.203H75.5817H60.4654L46.5119 120.903L33.7212 120.603L22.6747 120.303L13.9538 120.003L6.97704 119.403L2.90727 118.803L1.16309 118.203" stroke="#B2B2B2" stroke-width="0.835269"/>
<path d="M150 8.39844L148.256 7.79844L144.186 7.19844L137.21 6.89844L127.907 6.29844L116.861 5.99844L104.651 5.69844L90.698 5.39844H75.5817H60.4654L46.5119 5.69844L33.7212 5.99844L22.6747 6.29844L13.9538 6.89844L6.97704 7.19844L2.90727 7.79844L1.16309 8.39844" stroke="#B2B2B2" stroke-width="0.835269"/>
<path d="M142.442 148.503H137.791V121.803L142.442 121.203V148.503Z" fill="#4C4C4C" stroke="black" stroke-width="0.835269"/>
<path d="M25.5809 148.503H20.9297V122.703H25.5809V148.503Z" fill="#4C4C4C" stroke="black" stroke-width="0.835269"/>
<path d="M137.791 148.497H133.14V122.697L137.791 121.797V148.497Z" fill="#666666" stroke="black" stroke-width="0.835269"/>
<path d="M20.9301 148.503H16.8604V122.703H20.9301V148.503Z" fill="#666666" stroke="black" stroke-width="0.835269"/>
<path d="M133.139 148.503H128.488V122.703H133.139V148.503Z" fill="#7F7F7F" stroke="black" stroke-width="0.835269"/>
<path d="M16.8601 148.497H12.209V121.797L16.8601 122.697V148.497Z" fill="#7F7F7F" stroke="black" stroke-width="0.835269"/>
<path d="M128.488 148.503H145.348V149.103H120.93V148.503H123.837V122.703H128.488V148.503Z" fill="#B2B2B2" stroke="black" stroke-width="0.835269"/>
<path d="M12.2095 148.498H28.4886V149.098H4.65137V148.498H7.55834V120.898L12.2095 121.798V148.498Z" fill="#B2B2B2" stroke="black" stroke-width="0.835269"/>
</g>
<defs>
<clipPath id="clip0_2109_242415">
<rect width="150" height="150" fill="white"/>
</clipPath>
</defs>
</svg>
