<svg width="150" height="150" viewBox="0 0 150 150" fill="none" xmlns="http://www.w3.org/2000/svg">
<g clip-path="url(#clip0_2109_246420)">
<path d="M9.30957 136.094H140.541V138.768H9.30957V136.094Z" fill="black"/>
<path d="M149.249 51.072L150 66.58V82.6228L149.249 98.6656L148.048 112.569L146.246 123.799L144.144 131.821L141.742 136.099H8.10811L5.70571 131.821L3.6036 123.799L1.8018 112.569L0.600601 98.6656L0 83.1576V66.58L0.600601 51.072L1.8018 37.1683L3.6036 25.9383L5.70571 18.1843L8.10811 13.9062H141.742L144.144 18.1843L146.246 25.9383L148.048 37.1683L149.249 51.072Z" fill="#B2B2B2"/>
<path d="M149.249 52.676L150 67.1145V82.0877L149.249 95.9915L148.048 108.826L146.246 119.521L144.144 126.473L141.742 130.751L8.10811 130.216L5.70571 126.473L3.6036 119.521L1.8018 108.826L0.600601 95.9915L0 82.0877V67.1145L0.600601 52.676L1.8018 40.3765L3.6036 29.6813L5.70571 22.4621L8.10811 18.7188H141.742L144.144 22.4621L146.246 29.6813L148.048 40.3765L149.249 52.676Z" fill="#BABABA"/>
<path d="M149.249 54.8112L150 67.6454V81.0144L149.249 93.8486L148.048 105.079L146.246 114.704L144.144 121.656L141.742 124.865H8.10811L5.70571 121.656L3.6036 114.704L1.8018 105.079L0.600601 93.8486L0 81.0144V67.6454L0.600601 54.8112L1.8018 43.0465L3.6036 33.9555L5.70571 27.0037L8.10811 24.0625H141.742L144.144 27.0037L146.246 33.9555L148.048 43.0465L149.249 54.8112Z" fill="#BFBFBF"/>
<path d="M149.249 56.4169L150 68.1816V79.9463L149.249 91.711L148.048 101.871L146.246 110.428L144.144 116.31L141.742 119.518H8.10811L5.70571 116.31L3.6036 110.428L1.8018 101.871L0.600601 91.711L0 79.9463V68.1816L0.600601 56.4169L1.8018 46.2564L3.6036 37.7003L5.70571 31.8179L8.10811 28.6094H141.742L144.144 31.8179L146.246 37.7003L148.048 46.2564L149.249 56.4169Z" fill="#C7C7C7"/>
<path d="M149.249 58.5599L150 68.7203V78.8807L149.249 89.0411L148.048 98.1321L146.246 105.619L144.144 110.966L141.742 113.64H8.10811L5.70571 110.966L3.6036 105.619L1.8018 98.1321L0.600601 89.0411L0 78.8807V68.7203L0.600601 58.5599L1.8018 48.9342L3.6036 41.9823L5.70571 36.6347L8.10811 33.9609H141.742L144.144 36.6347L146.246 41.9823L148.048 49.469L149.249 58.5599Z" fill="#CFCFCF"/>
<path d="M149.249 60.1638L150 68.72V77.8109L149.249 86.9018L148.048 94.9232L146.246 101.34L144.144 105.618L141.742 108.292H8.10811L5.70571 105.618L3.6036 101.34L1.8018 94.9232L0.600601 86.9018L0 77.8109V68.72L0.600601 60.1638L1.8018 52.1424L3.6036 45.7253L5.70571 40.9125L8.10811 38.7734H141.742L144.144 40.9125L146.246 45.7253L148.048 52.1424L149.249 60.1638Z" fill="#D6D6D6"/>
<path d="M149.249 61.7678L150 69.2544V77.2758L149.249 84.7624L148.048 91.1795L146.246 96.5271L144.144 100.805L141.742 102.409H8.10811L5.70571 100.805L3.6036 96.5271L1.8018 91.1795L0.600601 84.7624L0 77.2758V69.2544L0.600601 61.7678L1.8018 55.3506L3.6036 50.003L5.70571 45.725L8.10811 43.5859H141.742L144.144 45.725L146.246 50.003L148.048 55.3506L149.249 61.7678Z" fill="#DBDBDB"/>
<path d="M149.249 63.9029L150 69.7853V76.2024L149.249 82.0848L148.048 87.9671L146.246 92.2452L144.144 95.4538L141.742 97.058H8.10811L5.70571 95.4538L3.6036 92.2452L1.8018 87.9671L0.600601 82.0848L0 76.2024V69.7853L0.600601 63.9029L1.8018 58.0206L3.6036 53.7425L5.70571 50.534L8.10811 48.9297H141.742L144.144 50.534L146.246 53.7425L148.048 58.0206L149.249 63.9029Z" fill="#E3E3E3"/>
<path d="M149.249 65.5069L150 70.3197V75.1326L149.249 79.9454L148.048 84.2235L146.246 87.9668L144.144 90.1058L141.742 91.7101L8.10811 91.1753L5.70571 90.1058L3.6036 87.9668L1.8018 84.2235L0.600601 79.9454L0 75.1326V70.3197L0.600601 65.5069L1.8018 61.2288L3.6036 58.0203L5.70571 55.3465L8.10811 53.7422H141.742L144.144 55.3465L146.246 57.4855L148.048 61.2288L149.249 65.5069Z" fill="#EBEBEB"/>
<path d="M149.249 67.1151L150 70.8585V74.067L149.249 77.8103L148.048 80.4841L146.246 83.1579L144.144 84.7622L141.742 85.8317H8.10811L5.70571 84.7622L3.6036 83.1579L1.8018 80.4841L0.600601 77.8103L0 74.067V70.8585L0.600601 67.1151L1.8018 64.4413L3.6036 61.7675L5.70571 60.1633L8.10811 59.0938H141.742L144.144 60.1633L146.246 61.7675L148.048 64.4413L149.249 67.1151Z" fill="#F2F2F2"/>
<path d="M149.249 69.2538L150 71.3929V73.5319L149.249 75.1362L148.048 77.2752L146.246 78.8795L144.144 79.949L141.742 80.4838H8.10811L5.70571 79.949L3.6036 78.8795L1.8018 77.2752L0.600601 75.1362L0 73.5319V71.3929L0.600601 69.2538L1.8018 67.1148L3.6036 65.5105L5.70571 64.441L8.10811 63.9062H141.742L144.144 64.441L146.246 65.5105L148.048 67.1148L149.249 69.2538Z" fill="#F7F7F7"/>
<path d="M74.9249 74.5976C116.305 74.5976 149.85 73.4005 149.85 71.9238C149.85 70.4471 116.305 69.25 74.9249 69.25C33.545 69.25 0 70.4471 0 71.9238C0 73.4005 33.545 74.5976 74.9249 74.5976Z" fill="white"/>
<path d="M149.249 51.072L150 66.58V82.6228L149.249 98.6656L148.048 112.569L146.246 123.799L144.144 131.821L141.742 136.099H8.10811L5.70571 131.821L3.6036 123.799L1.8018 112.569L0.600601 98.6656L0 83.1576V66.58L0.600601 51.072L1.8018 37.1683L3.6036 25.9383L5.70571 18.1843L8.10811 13.9062H141.742L144.144 18.1843L146.246 25.9383L148.048 37.1683L149.249 51.072Z" stroke="black" stroke-width="0.400735"/>
<path d="M68.6182 8.02344H78.2278V141.446H68.6182V8.02344Z" fill="#F2F2F2"/>
<path d="M68.6182 8.02344H78.2278V54.2801H68.6182V8.02344Z" fill="#E3E3E3"/>
<path d="M68.6182 8.02344H78.2278V46.7935H68.6182V8.02344Z" fill="#D4D4D4"/>
<path d="M68.6182 8.02344H78.2278V39.8416H68.6182V8.02344Z" fill="#C4C4C4"/>
<path d="M68.6182 8.02344H78.2278V32.8897H68.6182V8.02344Z" fill="#B8B8B8"/>
<path d="M68.6182 8.02344H78.2278V25.4031H68.6182V8.02344Z" fill="#A8A8A8"/>
<path d="M68.6182 8.02344H78.2278V18.7186H68.6182V8.02344Z" fill="#999999"/>
<path d="M68.6182 8.02344H78.2278V141.446H68.6182V8.02344Z" stroke="black" stroke-width="0.400735"/>
<path d="M71.9219 5.34375H74.9249V141.44H71.9219V5.34375Z" fill="#666666"/>
<path d="M15.6152 8.02344H25.0747V141.446H15.6152V8.02344Z" fill="#F2F2F2"/>
<path d="M15.6152 8.02344H25.0747V54.2801H15.6152V8.02344Z" fill="#E3E3E3"/>
<path d="M15.6152 8.02344H25.0747V46.7935H15.6152V8.02344Z" fill="#D4D4D4"/>
<path d="M15.6152 8.02344H25.0747V39.8416H15.6152V8.02344Z" fill="#C4C4C4"/>
<path d="M15.6152 8.02344H25.0747V32.8897H15.6152V8.02344Z" fill="#B8B8B8"/>
<path d="M15.6152 8.02344H25.0747V25.4031H15.6152V8.02344Z" fill="#A8A8A8"/>
<path d="M15.6152 8.02344H25.0747V18.7186H15.6152V8.02344Z" fill="#999999"/>
<path d="M15.6152 8.02344H25.0747V141.446H15.6152V8.02344Z" stroke="black" stroke-width="0.400735"/>
<path d="M18.9189 5.34375H21.9219V141.44H18.9189V5.34375Z" fill="#666666"/>
<path d="M125.075 8.02344H134.385V141.446H125.075V8.02344Z" fill="#F2F2F2"/>
<path d="M125.075 8.02344H134.385V54.2801H125.075V8.02344Z" fill="#E3E3E3"/>
<path d="M125.075 8.02344H134.385V46.7935H125.075V8.02344Z" fill="#D4D4D4"/>
<path d="M125.075 8.02344H134.385V39.8416H125.075V8.02344Z" fill="#C4C4C4"/>
<path d="M125.075 8.02344H134.385V32.8897H125.075V8.02344Z" fill="#B8B8B8"/>
<path d="M125.075 8.02344H134.385V25.4031H125.075V8.02344Z" fill="#A8A8A8"/>
<path d="M125.075 8.02344H134.385V18.7186H125.075V8.02344Z" fill="#999999"/>
<path d="M125.075 8.02344H134.385V141.446H125.075V8.02344Z" stroke="black" stroke-width="0.400735"/>
<path d="M128.078 5.34375H131.081V141.44H128.078V5.34375Z" fill="#666666"/>
<path d="M4.80469 141.445H145.045V144.654H4.80469V141.445Z" fill="#666666" stroke="black" stroke-width="0.400735"/>
<path d="M1.50195 144.656H148.349V147.33H1.50195V144.656Z" fill="#666666" stroke="black" stroke-width="0.400735"/>
<path d="M0 147.328H150V150.002H0V147.328Z" fill="#666666" stroke="black" stroke-width="0.400735"/>
<path d="M28.0781 2.67188H65.6157V24.8644H28.0781V2.67188Z" fill="#CCCCCC"/>
<path d="M29.5791 2.6738H64.1136V0H29.5791V2.6738Z" fill="#666666"/>
<path d="M31.0811 2.67188H62.9129V24.8644H31.0811V2.67188Z" fill="#D4D4D4"/>
<path d="M33.7842 2.67188H59.9103V24.8644H33.7842V2.67188Z" fill="#DEDEDE"/>
<path d="M36.7871 2.67188H56.9072V24.8644H36.7871V2.67188Z" fill="#E5E5E5"/>
<path d="M39.4893 2.67188H54.204V24.8644H39.4893V2.67188Z" fill="#EDEDED"/>
<path d="M42.4922 2.67188H51.2009V24.8644H42.4922V2.67188Z" fill="#F7F7F7"/>
<path d="M45.1953 2.67188H48.4986V24.8644H45.1953V2.67188Z" fill="white"/>
<path d="M28.0781 24.8644V2.67188H65.6157V24.8644" stroke="black" stroke-width="0.400735"/>
</g>
<defs>
<clipPath id="clip0_2109_246420">
<rect width="150" height="150" fill="white"/>
</clipPath>
</defs>
</svg>
