<svg width="150" height="150" viewBox="0 0 150 150" fill="none" xmlns="http://www.w3.org/2000/svg">
<g clip-path="url(#clip0_2109_246034)">
<path d="M33.0395 95.1953V146.847H30.5615V149.099H45.2642V146.847H42.7862V95.1953H33.0395Z" fill="#333333"/>
<path d="M107.213 95.1953V146.847H104.735V149.099H119.438V146.847H116.96V95.1953H107.213Z" fill="#333333"/>
<path d="M75.0002 135.585C115.965 135.585 149.174 105.401 149.174 68.1674C149.174 30.9338 115.965 0.75 75.0002 0.75C34.035 0.75 0.826172 30.9338 0.826172 68.1674C0.826172 105.401 34.035 135.585 75.0002 135.585Z" fill="#666666" stroke="black" stroke-width="0.314989"/>
<path d="M2.80859 65.9144L7.92974 41.7402L22.9628 19.6682L47.0817 6.0045L73.6786 1.5L100.276 6.0045L124.394 19.6682L139.428 41.7402L144.549 65.9144L139.428 90.0886L124.394 112.161L100.276 125.824L73.6786 130.479L47.0817 125.824L22.9628 112.161L7.92974 90.0886L2.80859 65.9144Z" fill="#6E6E6E"/>
<path d="M4.62598 63.8116L9.58192 40.6884L23.9542 19.8176L46.9167 6.7545L72.3573 2.25L97.7978 6.7545L120.76 19.8176L135.133 40.6884L139.923 63.8116L135.133 86.9347L120.76 107.956L97.7978 121.019L72.3573 125.373L46.9167 121.019L23.9542 107.956L9.58192 86.9347L4.62598 63.8116Z" fill="#757575"/>
<path d="M6.44238 61.7148L11.0679 39.7929L24.7794 19.8229L46.7508 7.36045L70.8697 3.15625L95.1538 7.36045L116.96 19.8229L130.671 39.7929L135.297 61.7148L130.671 83.7869L116.96 103.757L95.1538 116.219L70.8697 120.424L46.7508 116.219L24.7794 103.757L11.0679 83.7869L6.44238 61.7148Z" fill="#7D7D7D"/>
<path d="M8.4248 59.612L12.72 38.7411L25.7706 19.8222L46.5856 7.9603L69.5482 3.90625L92.5107 7.9603L113.326 19.8222L126.376 38.7411L130.672 59.612L126.376 80.633L113.326 99.5519L92.5107 111.264L69.5482 115.318L46.5856 111.264L25.7706 99.5519L12.72 80.633L8.4248 59.612Z" fill="#858585"/>
<path d="M10.2422 57.5074L14.3721 37.6876L26.762 19.8197L46.4206 8.55844L68.0616 4.80469L89.8677 8.55844L109.526 19.8197L121.916 37.6876L126.046 57.5074L121.916 77.3272L109.526 95.3452L89.8677 106.456L68.0616 110.21L46.4206 106.456L26.762 95.3452L14.3721 77.3272L10.2422 57.5074Z" fill="#8F8F8F"/>
<path d="M12.0596 55.4028L15.8591 36.6341L27.5882 19.8172L46.2556 9.30673L66.7402 5.70312L87.2248 9.30673L105.892 19.8172L117.456 36.6341L121.421 55.4028L117.456 74.0214L105.892 91.1386L87.2248 101.649L66.7402 105.253L46.2556 101.649L27.5882 91.1386L15.8591 74.0214L12.0596 55.4028Z" fill="#969696"/>
<path d="M13.877 53.3L17.5113 35.7324L28.5796 19.8165L46.0906 9.90658L65.2536 6.45312L84.5818 9.90658L102.093 19.8165L113.161 35.7324L116.795 53.3L113.161 70.8675L102.093 86.7835L84.5818 96.6934L65.2536 100.147L46.0906 96.6934L28.5796 86.7835L17.5113 70.8675L13.877 53.3Z" fill="#9E9E9E"/>
<path d="M15.6934 51.2032L19.1625 34.8369L29.4048 19.8218L45.9246 10.5125L63.9312 7.35938L82.1031 10.5125L98.2925 19.8218L108.7 34.8369L112.169 51.2032L108.7 67.7197L98.2925 82.5846L82.1031 91.8939L63.9312 95.0471L45.9246 91.8939L29.4048 82.5846L19.1625 67.7197L15.6934 51.2032Z" fill="#A6A6A6"/>
<path d="M17.6758 49.0987L20.8145 33.7833L30.396 19.8194L45.5943 11.1107L62.4445 8.25781L79.4599 11.1107L94.6582 19.8194L104.24 33.7833L107.544 49.0987L104.24 64.414L94.6582 78.3779L79.4599 87.0866L62.4445 89.9395L45.5943 87.0866L30.396 78.3779L20.8145 64.414L17.6758 49.0987Z" fill="#ADADAD"/>
<path d="M19.4932 46.9941L22.4667 32.7298L31.3874 19.8169L45.4293 11.859L61.1231 9.15625L76.817 11.859L91.024 19.8169L99.9447 32.7298L102.918 46.9941L99.9447 61.2584L91.024 74.1713L76.817 82.2794L61.1231 84.9821L45.4293 82.2794L31.3874 74.1713L22.4667 61.2584L19.4932 46.9941Z" fill="#B5B5B5"/>
<path d="M59.8017 79.8762C81.0598 79.8762 98.2929 64.2129 98.2929 44.8912C98.2929 25.5696 81.0598 9.90625 59.8017 9.90625C38.5436 9.90625 21.3105 25.5696 21.3105 44.8912C21.3105 64.2129 38.5436 79.8762 59.8017 79.8762Z" fill="#BDBDBD"/>
<path d="M23.1279 42.7945L25.6059 30.7825L33.205 19.8215L45.0993 13.0648L58.3152 10.8125L71.531 13.0648L83.5905 19.8215L91.1896 30.7825L93.5024 42.7945L91.1896 54.8065L83.5905 65.7675L71.531 72.5242L58.3152 74.7765L45.0993 72.5242L33.205 65.7675L25.6059 54.8065L23.1279 42.7945Z" fill="#C4C4C4"/>
<path d="M24.9453 40.6916L27.2581 29.7307L34.1964 19.8208L44.9343 13.6646L56.9938 11.5625L69.0532 13.6646L79.7911 19.8208L86.7295 29.7307L88.877 40.6916L86.7295 51.6526L79.7911 61.5625L69.0532 67.7187L56.9938 69.8208L44.9343 67.7187L34.1964 61.5625L27.2581 51.6526L24.9453 40.6916Z" fill="#CFCFCF"/>
<path d="M55.507 64.5613C71.2909 64.5613 84.0863 52.9315 84.0863 38.5854C84.0863 24.2392 71.2909 12.6094 55.507 12.6094C39.7231 12.6094 26.9277 24.2392 26.9277 38.5854C26.9277 52.9315 39.7231 64.5613 55.507 64.5613Z" fill="#D6D6D6"/>
<path d="M54.1847 59.6134C68.2351 59.6134 79.6252 49.2609 79.6252 36.4903C79.6252 23.7198 68.2351 13.3672 54.1847 13.3672C40.1343 13.3672 28.7441 23.7198 28.7441 36.4903C28.7441 49.2609 40.1343 59.6134 54.1847 59.6134Z" fill="#DEDEDE"/>
<path d="M52.6981 54.5059C64.9238 54.5059 74.8347 45.4978 74.8347 34.3857C74.8347 23.2737 64.9238 14.2656 52.6981 14.2656C40.4724 14.2656 30.5615 23.2737 30.5615 34.3857C30.5615 45.4978 40.4724 54.5059 52.6981 54.5059Z" fill="#E5E5E5"/>
<path d="M18.1713 95.1953V146.847H15.6934V149.099H30.5612V146.847H27.918V95.1953H18.1713Z" fill="#7F7F7F"/>
<path d="M18.9982 95.1953V146.847H16.8506V149.099H29.2405V146.847H27.2581V95.1953H18.9982Z" fill="#999999"/>
<path d="M19.8239 95.1953V146.847H18.1719V149.099H28.0838V146.847H26.4318V95.1953H19.8239Z" fill="#B2B2B2"/>
<path d="M20.6497 95.1953V146.847H19.3281V149.099H26.762V146.847H25.6057V95.1953H20.6497Z" fill="#CCCCCC"/>
<path d="M21.4754 95.1953V146.847H20.6494V149.099H25.6054V146.847H24.7794V95.1953H21.4754Z" fill="#E5E5E5"/>
<path d="M22.3022 95.1953V146.847H21.8066V149.099H24.2846V146.847H23.9542V95.1953H22.3022Z" fill="white"/>
<path d="M18.1713 95.1953V146.847H15.6934V149.099H30.5612V146.847H27.918V95.1953H18.1713Z" stroke="black" stroke-width="0.314989"/>
<path d="M121.916 95.1953V146.847H119.438V149.099H134.306V146.847H131.828V95.1953H121.916Z" fill="#7F7F7F"/>
<path d="M122.742 95.1953V146.847H120.76V149.099H133.15V146.847H131.002V95.1953H122.742Z" fill="#999999"/>
<path d="M123.568 95.1953V146.847H121.916V149.099H131.828V146.847H130.176V95.1953H123.568Z" fill="#B2B2B2"/>
<path d="M124.56 95.1953V146.847H123.238V149.099H130.672V146.847H129.351V95.1953H124.56Z" fill="#CCCCCC"/>
<path d="M125.386 95.1953V146.847H124.56V149.099H129.35V146.847H128.69V95.1953H125.386Z" fill="#E5E5E5"/>
<path d="M126.046 95.1953V146.847H125.716V149.099H128.194V146.847H127.698V95.1953H126.046Z" fill="white"/>
<path d="M121.916 95.1953V146.847H119.438V149.099H134.306V146.847H131.828V95.1953H121.916Z" stroke="black" stroke-width="0.314989"/>
<path d="M0.826172 95.1956H149.174V91.7422H0.826172V95.1956Z" fill="#666666"/>
<path d="M0.826172 95.1956H149.174V91.7422H0.826172V95.1956Z" fill="#333333"/>
<path d="M5.28613 95.0455H144.879V91.7422H5.28613V95.0455Z" fill="#3D3D3D"/>
<path d="M9.58105 95.0455H140.418V91.7422H9.58105V95.0455Z" fill="#454545"/>
<path d="M14.042 95.0455H135.958V91.7422H14.042V95.0455Z" fill="#4F4F4F"/>
<path d="M18.502 95.0455H131.663V91.7422H18.502V95.0455Z" fill="#595959"/>
<path d="M22.9629 95.0455H127.203V91.7422H22.9629V95.0455Z" fill="#636363"/>
<path d="M27.2578 95.0455H122.742V91.7422H27.2578V95.0455Z" fill="#6B6B6B"/>
<path d="M31.7178 95.0455H118.447V91.7422H31.7178V95.0455Z" fill="#757575"/>
<path d="M36.0137 95.0455H113.987V91.7422H36.0137V95.0455Z" fill="#7F7F7F"/>
<path d="M40.4736 95.0455H109.526V91.7422H40.4736V95.0455Z" fill="#8A8A8A"/>
<path d="M44.9336 95.0455H105.231V91.7422H44.9336V95.0455Z" fill="#919191"/>
<path d="M49.2295 95.0455H100.771V91.7422H49.2295V95.0455Z" fill="#9C9C9C"/>
<path d="M53.6895 95.0455H96.4758V91.7422H53.6895V95.0455Z" fill="#A6A6A6"/>
<path d="M58.1494 95.0455H92.0151V91.7422H58.1494V95.0455Z" fill="#B0B0B0"/>
<path d="M62.4453 95.0455H87.5554V91.7422H62.4453V95.0455Z" fill="#B8B8B8"/>
<path d="M66.9053 95.0455H83.0947V91.7422H66.9053V95.0455Z" fill="#C2C2C2"/>
<path d="M71.2002 95.1956H78.7993V91.7422H71.2002V95.1956Z" fill="#CCCCCC"/>
<path d="M0.826172 95.1956H149.174V91.7422H0.826172V95.1956Z" stroke="black" stroke-width="0.314989"/>
</g>
<defs>
<clipPath id="clip0_2109_246034">
<rect width="150" height="150" fill="white"/>
</clipPath>
</defs>
</svg>
