<svg width="150" height="150" viewBox="0 0 150 150" fill="none" xmlns="http://www.w3.org/2000/svg">
<g clip-path="url(#clip0_2109_242287)">
<path d="M135.9 150L140.7 140.392V14.5658L135.9 4.64844H140.7L150 14.5658V140.392L140.7 150H135.9Z" fill="#4C4C4C"/>
<path d="M14.1 150L9.3 140.392V14.5658L14.1 4.64844H9.3L0 14.5658V140.392L9.3 150H14.1Z" fill="#7F7F7F"/>
<path d="M112.5 150L117 140.392V14.5658L112.5 4.64844H124.2L129 14.5658V140.392L124.2 150H112.5Z" fill="#7F7F7F"/>
<path d="M124.2 150L129 140.392V14.5658L124.2 4.64844H135.9L140.7 14.5658V140.392L135.9 150H124.2Z" fill="#666666"/>
<path d="M25.7998 150L20.9998 140.392V14.5658L25.7998 4.64844H14.0998L9.2998 14.5658V140.392L14.0998 150H25.7998Z" fill="#999999"/>
<path d="M100.8 150L105.3 140.392V14.5658L100.8 4.64844H112.5L117.3 14.5658V140.392L112.5 150H100.8Z" fill="#999999"/>
<path d="M37.5 150L32.7 140.392V14.5658L37.5 4.64844H25.8L21 14.5658V140.392L25.8 150H37.5Z" fill="#B2B2B2"/>
<path d="M90.2998 150L93.5998 140.392V14.5658L90.2998 4.64844H100.8L105.6 14.5658V140.392L100.8 150H90.2998Z" fill="#B2B2B2"/>
<path d="M49.2002 150L44.4002 140.392V14.5658L49.2002 4.64844H37.5002L32.7002 14.5658V140.392L37.5002 150H49.2002Z" fill="#CCCCCC"/>
<path d="M79.7998 150L81.8998 140.392V14.5658L79.7998 4.64844H90.2998L93.8998 14.5658V140.392L90.2998 150H79.7998Z" fill="#CCCCCC"/>
<path d="M59.7004 150L56.1004 140.392V14.5658L59.7004 4.64844H49.2004L44.4004 14.5658V140.392L49.2004 150H59.7004Z" fill="#E5E5E5"/>
<path d="M70.1998 150L67.7998 140.392V14.5658L70.1998 4.64844H79.7998L81.8998 14.5658V140.392L79.7998 150H70.1998Z" fill="#E5E5E5"/>
<path d="M70.1996 150L67.7996 140.392V14.5658L70.1996 4.64844H59.6996L56.0996 14.5658V140.392L59.6996 150H70.1996Z" fill="white"/>
<path d="M112.5 4.64876L75 0L140.7 4.64876H112.5Z" fill="#7F7F7F"/>
<path d="M75 0L84.3 4.64876H112.5L75 0Z" fill="#B2B2B2"/>
<path d="M75 0L58.5 4.64876H84.3L75 0Z" fill="#E5E5E5"/>
<path d="M58.4996 4.64876L74.9996 0L35.0996 4.64876H58.4996Z" fill="#CCCCCC"/>
<path d="M74.9998 0L35.0998 4.64876H9.2998L74.9998 0Z" fill="#B2B2B2"/>
<path d="M9.2998 4.64876H140.7L74.9998 0L9.2998 4.64876Z" stroke="black" stroke-width="0.609837"/>
<path d="M0 140.392L9.3 150H140.7L150 140.392V14.5658L140.7 4.64844H9.3L0 14.5658V140.392Z" stroke="black" stroke-width="0.609837"/>
<path d="M150 136.672L149.7 137.292L144.3 139.151L137.4 140.081L132.9 140.701L128.1 141.011L123 141.321L117.3 141.94L111 142.25H104.7L97.8002 142.56L90.6002 142.87H60.6002L53.4002 142.56L46.5002 142.25H40.2002L33.9002 141.94L28.2002 141.321L23.1002 141.011L18.3002 140.701L13.8002 140.081L6.9002 139.151L2.7002 137.912L1.5002 137.292L1.2002 136.672" stroke="#B2B2B2" stroke-width="0.609837"/>
<path d="M150 17.9744L149.7 17.3545L144.3 15.495L137.4 14.5653L132.9 14.2554L128.1 13.6355L123 13.3256L117.3 13.0157L111 12.7058L104.7 12.3959H97.8002L90.6002 12.0859H60.6002L53.4002 12.3959H46.5002L40.2002 12.7058L33.9002 13.0157L28.2002 13.3256L23.1002 13.6355L18.3002 14.2554L13.8002 14.5653L6.9002 15.495L2.7002 16.7347L1.5002 17.3545L1.2002 17.9744" stroke="#B2B2B2" stroke-width="0.609837"/>
</g>
<defs>
<clipPath id="clip0_2109_242287">
<rect width="150" height="150" fill="white"/>
</clipPath>
</defs>
</svg>
