<svg width="150" height="150" viewBox="0 0 150 150" fill="none" xmlns="http://www.w3.org/2000/svg">
<g clip-path="url(#clip0_2109_242312)">
<path d="M100 110.102V140.702H96.8994V143.102H118.217V140.702H115.116V110.102H100Z" fill="#4C4C4C" stroke="black" stroke-width="0.681994"/>
<path d="M34.884 110.102V140.702H31.7832V143.102H53.101V140.702H50.0003V110.102H34.884Z" fill="#4C4C4C" stroke="black" stroke-width="0.681994"/>
<path d="M29.07 148.797V149.997H4.65137V148.797H8.91493H12.4033H14.7289H16.6669H18.6049H20.9304H24.4188H29.07Z" fill="#4C4C4C" stroke="black" stroke-width="0.681994"/>
<path d="M145.348 148.797V149.997H121.317V148.797H125.581H129.069H131.395H133.333H135.271H137.596H140.697H145.348Z" fill="#4C4C4C" stroke="black" stroke-width="0.681994"/>
<path d="M136.047 112.502L140.698 105.002V10.8016L136.047 3.60156H140.698L150 10.8016V105.002L140.698 112.502H136.047Z" fill="#4C4C4C"/>
<path d="M14.3411 112.502L9.68992 105.002V10.8016L14.3411 3.60156H9.68992L0 10.8016V105.002L9.68992 112.502H14.3411Z" fill="#7F7F7F"/>
<path d="M112.403 112.502L117.054 105.002V10.8016L112.403 3.60156H124.419L129.07 10.8016V105.002L124.419 112.502H112.403Z" fill="#7F7F7F"/>
<path d="M124.419 112.502L129.07 105.002V10.8016L124.419 3.60156H136.047L140.698 10.8016V105.002L136.047 112.502H124.419Z" fill="#666666"/>
<path d="M25.9685 112.502L21.3174 105.002V10.8016L25.9685 3.60156H14.3406L9.68945 10.8016V105.002L14.3406 112.502H25.9685Z" fill="#999999"/>
<path d="M100.775 112.502L105.427 105.002V10.8016L100.775 3.60156H112.791L117.442 10.8016V105.002L112.791 112.502H100.775Z" fill="#999999"/>
<path d="M37.5965 112.502L32.9453 105.002V10.8016L37.5965 3.60156H25.9685L21.3174 10.8016V105.002L25.9685 112.502H37.5965Z" fill="#B2B2B2"/>
<path d="M90.3105 112.502L93.7989 105.002V10.8016L90.3105 3.60156H100.776L105.427 10.8016V105.002L100.776 112.502H90.3105Z" fill="#B2B2B2"/>
<path d="M49.2244 112.502L44.5732 105.002V10.8016L49.2244 3.60156H37.5965L32.9453 10.8016V105.002L37.5965 112.502H49.2244Z" fill="#CCCCCC"/>
<path d="M79.8447 112.502L82.1703 105.002V10.8016L79.8447 3.60156H90.3098L93.7982 10.8016V105.002L90.3098 112.502H79.8447Z" fill="#CCCCCC"/>
<path d="M59.6895 112.502L56.2011 105.002V10.8016L59.6895 3.60156H49.2244L44.5732 10.8016V105.002L49.2244 112.502H59.6895Z" fill="#E5E5E5"/>
<path d="M70.5424 112.502L68.2168 105.002V10.8016L70.5424 3.60156H79.8447L82.1703 10.8016V105.002L79.8447 112.502H70.5424Z" fill="#E5E5E5"/>
<path d="M70.5423 112.502L68.2167 105.002V10.8016L70.5423 3.60156H59.6895L56.2012 10.8016V105.002L59.6895 112.502H70.5423Z" fill="white"/>
<path d="M112.403 3.6L75.1934 0L140.697 3.6H112.403Z" fill="#7F7F7F"/>
<path d="M75.1934 0L84.4957 3.6H112.403L75.1934 0Z" fill="#B2B2B2"/>
<path d="M75.194 0L58.5273 3.6H84.4963L75.194 0Z" fill="#E5E5E5"/>
<path d="M58.5273 3.6L75.194 0L35.2715 3.6H58.5273Z" fill="#CCCCCC"/>
<path d="M75.1933 0L35.2708 3.6H9.68945L75.1933 0Z" fill="#B2B2B2"/>
<path d="M9.68945 3.6H140.697L75.1933 0L9.68945 3.6Z" stroke="black" stroke-width="0.681994"/>
<path d="M0 105.002L9.68992 112.502H140.698L150 105.002V10.8016L140.698 3.60156H9.68992L0 10.8016V105.002Z" stroke="black" stroke-width="0.681994"/>
<path d="M150 102.297L149.613 102.897L144.186 104.097L137.21 104.997L128.295 105.597L122.869 105.897L117.055 106.197H111.241L104.652 106.497H97.6748L90.6981 106.797H60.8531L53.4888 106.497H46.8996L40.3105 106.197H34.1089L28.6826 105.897L23.2562 105.597L14.3415 104.997L7.36473 104.097L1.93838 102.897L1.55078 102.297" stroke="#B2B2B2" stroke-width="0.681994"/>
<path d="M150 13.5L148.45 12.6L141.086 11.4L132.946 10.8L122.869 10.2L117.055 9.9L111.241 9.6L104.652 9.3H97.6748L90.6981 9H60.8531L53.4888 9.3H46.8996L40.3105 9.6L34.1089 9.9L28.6826 10.2L18.605 10.8L10.4655 11.4L5.03915 12.3L3.10117 12.6L1.55078 13.5" stroke="#B2B2B2" stroke-width="0.681994"/>
<path d="M142.636 147.6H137.984V107.7L142.636 106.5V147.6Z" fill="#4C4C4C" stroke="black" stroke-width="0.681994"/>
<path d="M25.9685 147.598H21.3174V108.898H25.9685V147.598Z" fill="#4C4C4C" stroke="black" stroke-width="0.681994"/>
<path d="M137.984 147.603H133.333V108.903L137.984 107.703V147.603Z" fill="#666666" stroke="black" stroke-width="0.681994"/>
<path d="M21.3182 147.598H16.667V108.898H21.3182V147.598Z" fill="#666666" stroke="black" stroke-width="0.681994"/>
<path d="M133.334 147.598H128.683V108.898H133.334V147.598Z" fill="#7F7F7F" stroke="black" stroke-width="0.681994"/>
<path d="M16.6669 147.603H12.4033V107.703L16.6669 108.903V147.603Z" fill="#7F7F7F" stroke="black" stroke-width="0.681994"/>
<path d="M128.682 147.598H145.348V148.798H121.317V147.598H124.418V108.898H128.682V147.598Z" fill="#B2B2B2" stroke="black" stroke-width="0.681994"/>
<path d="M12.4033 147.6H29.07V148.8H4.65137V147.6H7.75214V106.5L12.4033 107.7V147.6Z" fill="#B2B2B2" stroke="black" stroke-width="0.681994"/>
</g>
<defs>
<clipPath id="clip0_2109_242312">
<rect width="150" height="150" fill="white"/>
</clipPath>
</defs>
</svg>
