<svg width="150" height="150" viewBox="0 0 150 150" fill="none" xmlns="http://www.w3.org/2000/svg">
<g clip-path="url(#clip0_2109_243729)">
<path d="M100.2 18.9V6.3L99.5998 5.1L98.3998 3.9L95.9998 2.7L92.9998 1.8L88.7998 0.9L84.5998 0.6L79.7998 0H70.1998L65.3998 0.6L61.1998 0.9L56.9998 1.8L53.9998 2.7L51.5998 3.9L50.3998 5.1L49.7998 6.3V18.9L50.3998 20.1L51.5998 21.3L53.9998 22.5L56.9998 23.4L61.1998 24.3L65.3998 24.6L70.1998 25.2H79.7998L84.5998 24.6L88.7998 24.3L92.9998 23.4L95.9998 22.5L98.3998 21.3L99.5998 20.1L100.2 18.9Z" fill="#7F7F7F" stroke="black" stroke-width="0.848528"/>
<path d="M96 18.9V6.3L95.4 5.1L94.2 3.9L92.4 2.7L90 1.8L86.4 0.9L82.8 0.6L79.2 0H70.8L67.2 0.6L63.6 0.9L60 1.8L57.6 2.7L55.8 3.9L54.6 5.1L54 6.3V18.9L54.6 20.1L55.8 21.3L57.6 22.5L60 23.4L63.6 24.3L67.2 24.6L70.8 25.2H79.2L82.8 24.6L86.4 24.3L90 23.4L92.4 22.5L94.2 21.3L95.4 20.1L96 18.9Z" fill="#999999"/>
<path d="M75 25.2C83.2843 25.2 90 19.5588 90 12.6C90 5.64121 83.2843 0 75 0C66.7157 0 60 5.64121 60 12.6C60 19.5588 66.7157 25.2 75 25.2Z" fill="#B2B2B2"/>
<path d="M74.9996 25.2C79.6388 25.2 83.3996 19.5588 83.3996 12.6C83.3996 5.64121 79.6388 0 74.9996 0C70.3604 0 66.5996 5.64121 66.5996 12.6C66.5996 19.5588 70.3604 25.2 74.9996 25.2Z" fill="#CCCCCC"/>
<path d="M100.2 6.29688L99.5998 6.59688L98.3998 6.89688L95.9998 7.19688L92.9998 7.49688H88.7998L84.5998 7.79688H79.7998H74.9998H70.1998H65.3998L61.1998 7.49688H56.9998L53.9998 7.19688L51.5998 6.89688L50.3998 6.59688L49.7998 6.29688" stroke="black" stroke-width="0.848528"/>
<path d="M100.2 18.8984L99.5998 19.1984L98.3998 19.4984L95.9998 19.7984L92.9998 20.0984L88.7998 20.3984H84.5998L79.7998 20.6984H74.9998H70.1998L65.3998 20.3984H61.1998L56.9998 20.0984L53.9998 19.7984L51.5998 19.4984L50.3998 19.1984L49.7998 18.8984" stroke="black" stroke-width="0.848528"/>
<path d="M12.5996 31.2031H137.4V143.703H12.5996V31.2031Z" fill="#7F7F7F" stroke="black" stroke-width="0.848528"/>
<path d="M25.2002 31.2031H124.8V143.703H25.2002V31.2031Z" fill="#999999"/>
<path d="M37.7998 31.2031H112.8V143.703H37.7998V31.2031Z" fill="#B2B2B2"/>
<path d="M56.4004 31.2031H93.6004V143.703H56.4004V31.2031Z" fill="#CCCCCC"/>
<path d="M0 143.703H150V150.003H0V143.703Z" fill="#999999" stroke="black" stroke-width="0.848528"/>
<path d="M0 24.8984H150V31.1984H0V24.8984Z" fill="#999999" stroke="black" stroke-width="0.848528"/>
<path d="M6.59961 31.2031H18.5996V37.5031H6.59961V31.2031Z" fill="#666666" stroke="black" stroke-width="0.848528"/>
<path d="M131.4 31.2031H144V37.5031H131.4V31.2031Z" fill="#666666" stroke="black" stroke-width="0.848528"/>
<path d="M43.7998 31.2031H56.3998V37.5031H43.7998V31.2031Z" fill="#7F7F7F" stroke="black" stroke-width="0.848528"/>
<path d="M93.5996 31.2031H106.2V37.5031H93.5996V31.2031Z" fill="#7F7F7F" stroke="black" stroke-width="0.848528"/>
<path d="M6.59961 137.398H18.5996V143.698H6.59961V137.398Z" fill="#666666" stroke="black" stroke-width="0.848528"/>
<path d="M131.4 137.398H144V143.698H131.4V137.398Z" fill="#666666" stroke="black" stroke-width="0.848528"/>
<path d="M43.7998 137.398H56.3998V143.698H43.7998V137.398Z" fill="#7F7F7F" stroke="black" stroke-width="0.848528"/>
<path d="M93.5996 137.398H106.2V143.698H93.5996V137.398Z" fill="#7F7F7F" stroke="black" stroke-width="0.848528"/>
</g>
<defs>
<clipPath id="clip0_2109_243729">
<rect width="150" height="150" fill="white"/>
</clipPath>
</defs>
</svg>
