<svg width="150" height="150" viewBox="0 0 150 150" fill="none" xmlns="http://www.w3.org/2000/svg">
<g clip-path="url(#clip0_2109_244877)">
<path d="M148.097 13.8138H1.26855L6.65968 11.5616L12.5265 9.45946L16.4905 8.10811L20.7717 6.90691L25.2115 5.70571L29.8098 4.65465L34.5667 3.75375L39.3235 2.85285L44.239 2.1021L49.1544 1.5015L54.2284 0.900901L59.3024 0.45045L64.5349 0.15015L69.7675 0H72.3045H75.0001H77.537L82.7696 0.15015L88.0022 0.3003L93.2347 0.750751L98.3087 1.2012L103.224 1.8018L108.14 2.55255L113.055 3.3033L117.653 4.2042L122.252 5.1051L126.691 6.30631L130.973 7.50751L135.095 8.70871L140.962 10.8108L146.353 13.0631L148.097 13.8138Z" fill="#999999" stroke="black" stroke-width="0.308598"/>
<path d="M0 13.8125H150V30.6293H0V13.8125Z" fill="#999999"/>
<path d="M0 30.6328H150V47.5998H0V30.6328Z" fill="#999999"/>
<path d="M0 47.5938H150V64.4106H0V47.5938Z" fill="#999999"/>
<path d="M0 65.0156H150V81.8324H0V65.0156Z" fill="#999999"/>
<path d="M0 81.8281H150V98.7951H0V81.8281Z" fill="#999999"/>
<path d="M0 98.7969H150V115.614H0V98.7969Z" fill="#999999"/>
<path d="M0 115.617H150V133.035H0V115.617Z" fill="#999999"/>
<path d="M0 133.031H150V149.998H0V133.031Z" fill="#999999" stroke="black" stroke-width="0.308598"/>
<path d="M137.95 13.8138H6.34277L11.4168 11.5616L16.8079 9.45946L22.5161 7.50751L28.5415 5.70571L34.7254 4.2042L39.0066 3.3033L43.4464 2.55255L47.8861 1.8018L52.4844 1.2012L57.3999 0.750751L62.1567 0.3003L67.2307 0.15015L72.3047 0H75.0003H77.5373L82.6113 0.15015L87.3681 0.3003L91.9664 0.750751L98.3089 1.5015L104.493 2.55255L110.36 3.75375L115.751 5.1051L121.142 6.90691L126.216 8.70871L131.29 10.8108L136.205 13.0631L137.95 13.8138Z" fill="#B2B2B2"/>
<path d="M4.43945 13.8125H141.12V30.6293H4.43945V13.8125Z" fill="#B2B2B2"/>
<path d="M4.43945 30.6328H141.12V47.5998H4.43945V30.6328Z" fill="#B2B2B2"/>
<path d="M4.43945 47.5938H141.12V64.4106H4.43945V47.5938Z" fill="#B2B2B2"/>
<path d="M4.43945 65.0156H141.12V81.8324H4.43945V65.0156Z" fill="#B2B2B2"/>
<path d="M4.43945 81.8281H141.12V98.7951H4.43945V81.8281Z" fill="#B2B2B2"/>
<path d="M4.43945 98.7969H141.12V115.614H4.43945V98.7969Z" fill="#B2B2B2"/>
<path d="M4.43945 115.617H141.12V133.035H4.43945V115.617Z" fill="#B2B2B2"/>
<path d="M4.43945 133.031H141.12V149.998H4.43945V133.031Z" fill="#B2B2B2"/>
<path d="M0 13.8125H150V15.0137H0V13.8125Z" fill="#B2B2B2"/>
<path d="M0 30.6328H150V31.834H0V30.6328Z" fill="#B2B2B2"/>
<path d="M0 47.5938H150V49.3956H0V47.5938Z" fill="#B2B2B2"/>
<path d="M0 65.0156H150V66.2168H0V65.0156Z" fill="#B2B2B2"/>
<path d="M0 81.8281H150V83.0293H0V81.8281Z" fill="#B2B2B2"/>
<path d="M0 98.7969H150V100.599H0V98.7969Z" fill="#B2B2B2"/>
<path d="M0 115.617H150V117.419H0V115.617Z" fill="#B2B2B2"/>
<path d="M0 133.031H150V134.232H0V133.031Z" fill="#B2B2B2"/>
<path d="M122.727 13.8138H13.3193L18.3933 11.5616L23.4673 9.45946L28.3828 7.50751L33.4568 5.70571L38.8479 4.2042L44.239 2.85285L49.9472 1.8018L56.1312 0.900901L62.7908 0.3003L67.3891 0.15015L72.3045 0H75.0001H77.5371L82.4525 0.15015L87.2094 0.600601L93.5519 1.5015L99.4187 2.55255L104.493 4.05405L109.091 5.55556L113.055 7.35736L117.336 9.60961L121.142 12.3123L122.252 13.3634L122.727 13.8138Z" fill="#CCCCCC"/>
<path d="M12.0508 13.8125H125.899V30.6293H12.0508V13.8125Z" fill="#CCCCCC"/>
<path d="M12.0508 30.6328H125.899V47.5998H12.0508V30.6328Z" fill="#CCCCCC"/>
<path d="M12.0508 47.5938H125.899V64.4106H12.0508V47.5938Z" fill="#CCCCCC"/>
<path d="M12.0508 65.0156H125.899V81.8324H12.0508V65.0156Z" fill="#CCCCCC"/>
<path d="M12.0508 81.8281H125.899V98.7951H12.0508V81.8281Z" fill="#CCCCCC"/>
<path d="M12.0508 98.7969H125.899V115.614H12.0508V98.7969Z" fill="#CCCCCC"/>
<path d="M12.0508 115.617H125.899V133.035H12.0508V115.617Z" fill="#CCCCCC"/>
<path d="M12.0508 133.031H125.899V149.998H12.0508V133.031Z" fill="#CCCCCC"/>
<path d="M0 28.8281H150V30.6299H0V28.8281Z" fill="#CCCCCC"/>
<path d="M0 46.3984H150V47.5996H0V46.3984Z" fill="#CCCCCC"/>
<path d="M0 63.2109H150V64.4121H0V63.2109Z" fill="#CCCCCC"/>
<path d="M0 80.0312H150V81.8331H0V80.0312Z" fill="#CCCCCC"/>
<path d="M0 97.5938H150V98.795H0V97.5938Z" fill="#CCCCCC"/>
<path d="M0 114.414H150V115.615H0V114.414Z" fill="#CCCCCC"/>
<path d="M0 131.234H150V133.036H0V131.234Z" fill="#CCCCCC"/>
<path d="M0 148.648H150V150H0V148.648Z" fill="#CCCCCC"/>
<path d="M97.1986 13.8138H29.8096L33.9322 10.5105L38.2134 7.80781L42.9702 5.55556L47.0929 3.9039L51.6912 2.55255L56.448 1.5015L61.6806 0.600601L67.0717 0H68.9745H71.0358H72.9385L78.6468 0.3003L83.2451 1.05105L87.6848 2.55255L91.3318 5.1051L93.7102 8.40841L95.9301 12.3123L96.8815 13.5135L97.1986 13.8138Z" fill="#E5E5E5"/>
<path d="M25.3701 13.8125H100.37V30.6293H25.3701V13.8125Z" fill="#E5E5E5"/>
<path d="M25.3701 30.6328H100.37V47.5998H25.3701V30.6328Z" fill="#E5E5E5"/>
<path d="M25.3701 47.5938H100.37V64.4106H25.3701V47.5938Z" fill="#E5E5E5"/>
<path d="M25.3701 65.0156H100.37V81.8324H25.3701V65.0156Z" fill="#E5E5E5"/>
<path d="M25.3701 81.8281H100.37V98.7951H25.3701V81.8281Z" fill="#E5E5E5"/>
<path d="M25.3701 98.7969H100.37V115.614H25.3701V98.7969Z" fill="#E5E5E5"/>
<path d="M25.3701 115.617H100.37V133.035H25.3701V115.617Z" fill="#E5E5E5"/>
<path d="M25.3701 133.031H100.37V149.998H25.3701V133.031Z" fill="#E5E5E5"/>
<path d="M0 115.617H150V133.035H0V115.617Z" stroke="black" stroke-width="0.308598"/>
<path d="M0 98.7969H150V115.614H0V98.7969Z" stroke="black" stroke-width="0.308598"/>
<path d="M0 81.8281H150V98.7951H0V81.8281Z" stroke="black" stroke-width="0.308598"/>
<path d="M0 65.0156H150V81.8324H0V65.0156Z" stroke="black" stroke-width="0.308598"/>
<path d="M0 47.5938H150V64.4106H0V47.5938Z" stroke="black" stroke-width="0.308598"/>
<path d="M0 30.6328H150V47.5998H0V30.6328Z" stroke="black" stroke-width="0.308598"/>
<path d="M0 13.8125H150V30.6293H0V13.8125Z" stroke="black" stroke-width="0.308598"/>
<path d="M31.7129 19.2188V73.423" stroke="#999999" stroke-width="0.308598"/>
<path d="M55.1797 54.8047V106.006" stroke="#999999" stroke-width="0.308598"/>
<path d="M113.848 57.8047V146.844" stroke="#999999" stroke-width="0.308598"/>
<path d="M91.4902 51.8047V89.0419" stroke="#999999" stroke-width="0.308598"/>
</g>
<defs>
<clipPath id="clip0_2109_244877">
<rect width="150" height="150" fill="white"/>
</clipPath>
</defs>
</svg>
