<svg width="150" height="150" viewBox="0 0 150 150" fill="none" xmlns="http://www.w3.org/2000/svg">
<g clip-path="url(#clip0_2109_243030)">
<path d="M137.4 150H12.6L10.2 148.558L5.7 137.019L3.6 128.365L2.1 116.827L0.9 104.567L0.3 90.1442L0 75L0.3 59.8558L0.9 46.1538L2.1 33.1731L3.6 22.3558L5.7 12.9808L10.2 1.44231L12.6 0H137.4L139.8 1.44231L144.3 12.9808L146.4 22.3558L147.9 33.1731L149.1 46.1538L149.7 59.8558L150 75L149.7 90.1442L149.1 104.567L147.9 116.827L146.4 128.365L144.3 137.019L139.8 148.558L137.4 150Z" fill="#B2B2B2" stroke="black" stroke-width="0.930261"/>
<path d="M12.5996 2.16406V20.9141H17.9996H24.5996H32.0996H40.4996H49.4996H59.0996H68.9996H78.8996H88.7996H98.6996H108.3H117.3H125.7H133.2H139.8H145.2L144.3 16.5871L143.1 10.8179L141 5.04868L138.3 2.16406H12.5996Z" fill="#7F7F7F"/>
<path d="M12.5996 148.555V129.805H17.9996H24.5996H32.0996H40.4996H49.4996H59.0996H68.9996H78.8996H88.7996H98.6996H108.3H117.3H125.7H133.2H139.8H145.2L144.3 134.132L143.1 139.901L141 144.949L138.3 148.555H12.5996Z" fill="#7F7F7F"/>
<path d="M12.5996 20.9141V49.0391H148.5L147.6 36.7794L145.8 24.5198L145.2 20.9141H12.5996Z" fill="#999999"/>
<path d="M12.5996 129.805V101.68H148.5L147.6 113.218L145.8 126.199L145.2 129.805H12.5996Z" fill="#999999"/>
<path d="M12.3 150C19.0931 150 24.6 116.421 24.6 75C24.6 33.5786 19.0931 0 12.3 0C5.5069 0 0 33.5786 0 75C0 116.421 5.5069 150 12.3 150Z" fill="#999999" stroke="black" stroke-width="0.930261"/>
<path d="M14.1 150C21.0588 150 26.7 116.421 26.7 75C26.7 33.5786 21.0588 0 14.1 0C7.14121 0 1.5 33.5786 1.5 75C1.5 116.421 7.14121 150 14.1 150Z" stroke="black" stroke-width="0.930261"/>
<path d="M9.9 149.997H2.4L1.5 148.555L0.9 145.67L0.3 141.343L0 135.574L0.3 129.805L0.9 124.757L1.5 121.872L2.4 120.43H9.9L11.1 121.872L11.7 124.757L12.3 129.805L12.6 135.574L12.3 141.343L11.7 145.67L11.1 148.555L9.9 149.997Z" fill="#B2B2B2" stroke="black" stroke-width="0.930261"/>
<path d="M2.4 149.276C3.72548 149.276 4.8 142.818 4.8 134.853C4.8 126.887 3.72548 120.43 2.4 120.43C1.07452 120.43 0 126.887 0 134.853C0 142.818 1.07452 149.276 2.4 149.276Z" fill="#4C4C4C" stroke="black" stroke-width="0.930261"/>
<path d="M53.0996 0L55.4996 1.44231L57.8996 5.76923L59.9996 12.9808L62.0996 22.3558L63.5996 33.1731L64.7996 46.1538L65.3996 59.8558L65.6996 75L65.3996 90.1442L64.7996 104.567L63.5996 116.827L62.0996 128.365L59.9996 137.019L57.8996 144.231L55.4996 148.558L53.0996 150" stroke="black" stroke-width="0.930261"/>
<path d="M96.9004 0L99.3004 1.44231L101.7 5.76923L103.8 12.9808L105.9 22.3558L107.4 33.1731L108.6 46.1538L109.2 59.8558L109.5 75L109.2 90.1442L108.6 104.567L107.4 116.827L105.9 128.365L103.8 137.019L101.7 144.231L99.3004 148.558L96.9004 150" stroke="black" stroke-width="0.930261"/>
</g>
<defs>
<clipPath id="clip0_2109_243030">
<rect width="150" height="150" fill="white"/>
</clipPath>
</defs>
</svg>
