<svg width="150" height="150" viewBox="0 0 150 150" fill="none" xmlns="http://www.w3.org/2000/svg">
<g clip-path="url(#clip0_2109_246902)">
<path d="M150 150H0V12.9418V12.6299L4.05405 10.1351L8.40841 8.57588L14.2643 6.86071L18.7688 5.76923L23.7237 4.67775L29.2793 3.7422L35.2853 2.80665L41.5916 1.8711L48.3483 1.09148L55.4054 0.623701L62.7628 0.155925L70.4204 0H74.1742H78.0781L85.7357 0.155925L93.0931 0.623701L100.15 1.09148L107.057 1.8711L113.514 2.80665L119.52 3.7422L125.075 4.67775L130.18 5.76923L134.835 6.86071L138.889 7.95218L143.994 9.51143L148.348 11.3825L149.85 12.6299L150 12.9418V150Z" fill="#00FFFF" stroke="black" stroke-width="0.306021"/>
<path d="M0 12.9453H150" stroke="black" stroke-width="0.306021"/>
</g>
<defs>
<clipPath id="clip0_2109_246902">
<rect width="150" height="150" fill="white"/>
</clipPath>
</defs>
</svg>
