<svg width="150" height="150" viewBox="0 0 150 150" fill="none" xmlns="http://www.w3.org/2000/svg">
<g clip-path="url(#clip0_2109_243752)">
<path d="M18.6182 102.344H134.384V113.422H18.6182V102.344Z" fill="#194C4C" stroke="black" stroke-width="0.324986"/>
<path d="M24.9248 113.422H128.078V138.92H24.9248V113.422Z" fill="black" stroke="black" stroke-width="0.324986"/>
<path d="M12.4625 7.21094L8.70871 9.32114L5.85586 14.0691L4.05405 19.5204L2.7027 24.6201L1.65165 30.2473L0.900901 36.402L0.3003 42.9085L0 49.9425V52.4044V54.8663V62.0761L0.45045 68.9343L1.2012 75.4407L2.1021 81.4196L3.15315 86.6951L4.5045 91.4431L6.45646 96.7186L9.30931 100.939L11.7117 102.346H12.4625H143.694V7.21094H12.4625Z" fill="#4C4C4C"/>
<path d="M12.4625 14.5938L8.70871 16.3522L5.85586 20.3968L4.05405 24.9689L2.4024 30.7719L1.35135 35.6957L0.600601 40.9712L0.15015 46.7743L0 50.643V52.7532V54.8634V60.8423L0.45045 66.8212L1.2012 72.2725L2.1021 77.3722L3.6036 83.1752L5.40541 88.2749L8.10811 92.6711L11.7117 94.9572L12.4625 95.133H143.694V14.5938H12.4625Z" fill="#666666"/>
<path d="M12.4625 25.5L7.50751 27.786L4.5045 32.1823L2.1021 38.5129L0.900901 43.4367L0.15015 48.888L0 54.8669L0.15015 60.67L0.900901 66.1213L2.1021 71.221L4.5045 77.3757L7.50751 81.772L12.4625 84.058H143.694V25.5H12.4625Z" fill="#7F7F7F"/>
<path d="M12.4625 29.1875L7.50751 31.2977L4.5045 35.1664L2.1021 40.6177L0.45045 47.3L0 52.2238V54.8616L0.15015 59.9612L0.900901 64.7092L2.7027 71.0398L5.40541 75.9636L8.70871 79.3047L12.4625 80.3598H143.694V29.1875H12.4625Z" fill="#999999"/>
<path d="M12.4625 43.9609L7.50751 44.8402L3.6036 47.1262L0.45045 51.5225L0 54.8636L1.35135 59.9633L5.40541 63.832L9.90991 65.5905L12.4625 65.7663H143.694V43.9609H12.4625Z" fill="#B2B2B2"/>
<path d="M12.4625 7.21094L8.70871 9.32114L5.85586 14.0691L4.05405 19.5204L2.7027 24.6201L1.65165 30.2473L0.900901 36.402L0.3003 42.9085L0 49.9425V52.4044V54.8663V62.0761L0.45045 68.9343L1.2012 75.4407L2.1021 81.4196L3.15315 86.6951L4.5045 91.4431L6.45646 96.7186L9.30931 100.939L11.7117 102.346H12.4625H143.694V7.21094H12.4625Z" stroke="black" stroke-width="0.324986"/>
<path d="M143.694 102.17C145.436 102.17 146.847 80.9126 146.847 54.6904C146.847 28.4682 145.436 7.21094 143.694 7.21094C141.953 7.21094 140.541 28.4682 140.541 54.6904C140.541 80.9126 141.953 102.17 143.694 102.17Z" fill="#7F7F7F" stroke="black" stroke-width="0.324986"/>
<path d="M12.4629 3.51562H15.616V106.036H12.4629V3.51562Z" fill="#CCCCCC" stroke="black" stroke-width="0.324986"/>
<path d="M24.9248 3.51562H28.078V106.036H24.9248V3.51562Z" fill="#999999" stroke="black" stroke-width="0.324986"/>
<path d="M37.3877 3.51562H40.5408V106.036H37.3877V3.51562Z" fill="#999999" stroke="black" stroke-width="0.324986"/>
<path d="M50 3.51562H53.003V106.036H50V3.51562Z" fill="#999999" stroke="black" stroke-width="0.324986"/>
<path d="M62.4629 3.51562H65.616V106.036H62.4629V3.51562Z" fill="#999999" stroke="black" stroke-width="0.324986"/>
<path d="M74.9248 3.51562H78.078V106.036H74.9248V3.51562Z" fill="#999999" stroke="black" stroke-width="0.324986"/>
<path d="M87.3877 3.51562H90.5408V106.036H87.3877V3.51562Z" fill="#999999" stroke="black" stroke-width="0.324986"/>
<path d="M100 3.51562H103.003V106.036H100V3.51562Z" fill="#999999" stroke="black" stroke-width="0.324986"/>
<path d="M112.463 3.51562H115.616V106.036H112.463V3.51562Z" fill="#999999" stroke="black" stroke-width="0.324986"/>
<path d="M124.925 3.51562H128.078V106.036H124.925V3.51562Z" fill="#999999" stroke="black" stroke-width="0.324986"/>
<path d="M137.388 3.51562H140.541V106.036H137.388V3.51562Z" fill="#CCCCCC" stroke="black" stroke-width="0.324986"/>
<path d="M109.31 36.5781H134.385V54.8665H109.31V36.5781Z" fill="#C2CCCC" stroke="black" stroke-width="0.324986"/>
<path d="M128.078 36.5781V40.271H112.463V51.1737H128.078V54.8665H109.31V36.5781H128.078Z" fill="#EFF2F2" stroke="black" stroke-width="0.324986"/>
<path d="M78.0781 98.8281H87.3874V120.634H78.0781V98.8281Z" fill="#A6A6A6" stroke="black" stroke-width="0.324986"/>
<path d="M28.0781 98.8281H37.3874V120.634H28.0781V98.8281Z" fill="#A6A6A6" stroke="black" stroke-width="0.324986"/>
<path d="M18.6182 120.633H46.8464V131.711H18.6182V120.633Z" fill="#A6A694" stroke="black" stroke-width="0.324986"/>
<path d="M21.7715 131.711H78.0778V146.306H21.7715V131.711Z" fill="#336666" stroke="black" stroke-width="0.324986"/>
<path d="M74.9248 135.406H137.387V150.002H74.9248V135.406Z" fill="#194C4C" stroke="black" stroke-width="0.324986"/>
<path d="M56.1562 120.633H115.616V135.404H56.1562V120.633Z" fill="#CCCCC2" stroke="black" stroke-width="0.324986"/>
<path d="M53.0029 109.727H62.4624V131.708H53.0029V109.727Z" fill="#7F7F7F" stroke="black" stroke-width="0.324986"/>
<path d="M18.6182 124.328H46.8464V128.021H18.6182V124.328Z" fill="#4C4C4C"/>
<path d="M71.7715 146.305H140.54V149.998H71.7715V146.305Z" fill="#A3B2B2" stroke="black" stroke-width="0.324986"/>
<path d="M71.7715 135.406H140.54V139.099H71.7715V135.406Z" fill="#A3B2B2" stroke="black" stroke-width="0.324986"/>
<path d="M33.3335 2.28605V7.20985H35.2855V2.28605H37.3876V0H31.2314V2.28605H33.3335Z" fill="black" stroke="black" stroke-width="0.324986"/>
<path d="M117.717 2.28605V7.20985H119.819V2.28605H121.771V0H115.615V2.28605H117.717Z" fill="black" stroke="black" stroke-width="0.324986"/>
<path d="M147.898 20.751H143.693V23.037H147.898V25.4989H150V18.2891H147.898V20.751Z" fill="#E5E5E5" stroke="black" stroke-width="0.324986"/>
<path d="M147.898 86.5166H143.693V88.9785H147.898V91.4404H150V84.0547H147.898V86.5166Z" fill="#E5E5E5" stroke="black" stroke-width="0.324986"/>
</g>
<defs>
<clipPath id="clip0_2109_243752">
<rect width="150" height="150" fill="white"/>
</clipPath>
</defs>
</svg>
