<svg width="150" height="150" viewBox="0 0 150 150" fill="none" xmlns="http://www.w3.org/2000/svg">
<g clip-path="url(#clip0_2109_246924)">
<path d="M0.719727 6.90787V142.944L6.11541 145.346L21.9427 147.448L47.1226 148.65L75.0003 149.25L102.698 148.65L127.698 147.448L143.705 145.346L148.921 142.944V6.90787L143.705 4.50547L127.698 2.40336L102.698 1.20216L75.0003 0.601562L47.1226 1.20216L21.9427 2.40336L6.11541 4.50547L0.719727 6.90787Z" fill="#00FFFF" stroke="black" stroke-width="0.328667"/>
<path d="M0.719727 16.0624L1.07944 15.4618L6.65498 13.66L11.5111 12.9093L17.8061 12.1585L25.1802 11.5579L30.5758 11.1075L36.5111 10.8072L42.8061 10.5069L49.4607 10.3567L56.4751 10.0564L63.6694 9.90625H67.4463H71.0435H75.0003H82.3744L89.7485 10.0564L96.9428 10.2066L103.777 10.3567L110.252 10.657L116.367 10.9573L121.943 11.4078L127.338 11.7081L134.353 12.4588L140.108 13.2096L145.684 14.2606L148.741 15.4618L148.921 15.7621L149.101 16.0624" stroke="black" stroke-width="0.328667"/>
<path d="M149.101 133.633L148.741 134.384L143.166 136.185L138.31 136.936L132.015 137.537L124.82 138.287L119.245 138.588L113.31 139.038L107.015 139.339L100.36 139.489L93.3456 139.639L86.1514 139.789H82.3744L78.7773 139.939H75.0003L67.4463 139.789H60.0722L52.878 139.639L46.0435 139.339L39.5686 139.188L33.4535 138.888L27.878 138.438L22.4823 137.987L15.6478 137.387L9.71253 136.636L4.13699 135.585L1.07944 134.384L0.899583 133.933L0.719727 133.633" stroke="black" stroke-width="0.328667"/>
</g>
<defs>
<clipPath id="clip0_2109_246924">
<rect width="150" height="150" fill="white"/>
</clipPath>
</defs>
</svg>
