<svg width="150" height="150" viewBox="0 0 150 150" fill="none" xmlns="http://www.w3.org/2000/svg">
<g clip-path="url(#clip0_2109_246946)">
<path d="M150 131.231V18.6186L147.523 13.964L142.568 10.5105L137.162 8.10811L130.405 6.00601L122.523 4.2042L113.739 2.55255L107.432 1.8018L100.676 1.05105L93.4685 0.45045L86.2613 0.15015L82.4324 0H78.6036H75H67.3423L59.9099 0.3003L52.7027 0.750751L45.7207 1.35135L39.1892 2.1021L32.8829 3.15315L24.5495 4.8048L17.1171 6.75676L10.8108 9.00901L5.85586 11.4114L1.35135 14.8649L0 17.7177V18.6186V131.231L2.25225 135.886L7.20721 139.339L12.6126 141.742L19.3694 143.844L27.2523 145.646L36.036 147.297L42.3423 148.048L49.0991 148.799L56.3063 149.399L63.5135 149.7L67.3423 149.85L71.1712 150H75L82.4324 149.85L89.8649 149.55L97.0721 149.099L104.054 148.499L110.586 147.748L116.892 146.697L125.225 145.045L132.658 143.093L138.964 140.841L143.919 138.438L148.423 134.985L149.775 132.132L150 131.231Z" fill="#00FFFF" stroke="black" stroke-width="0.367791"/>
<path d="M0 18.6172H150" stroke="black" stroke-width="0.367791"/>
<path d="M0 131.234H150" stroke="black" stroke-width="0.367791"/>
<path d="M46.8467 131.23V18.6172" stroke="black" stroke-width="0.367791"/>
<path d="M102.928 131.23V18.6172" stroke="black" stroke-width="0.367791"/>
<path d="M102.928 74.9219H46.8467" stroke="black" stroke-width="0.367791"/>
<path d="M102.928 56.1562H46.8467" stroke="black" stroke-width="0.367791"/>
<path d="M102.928 37.3906H46.8467" stroke="black" stroke-width="0.367791"/>
<path d="M102.928 93.6953H46.8467" stroke="black" stroke-width="0.367791"/>
<path d="M102.928 112.461H46.8467" stroke="black" stroke-width="0.367791"/>
</g>
<defs>
<clipPath id="clip0_2109_246946">
<rect width="150" height="150" fill="white"/>
</clipPath>
</defs>
</svg>
