<svg width="150" height="150" viewBox="0 0 150 150" fill="none" xmlns="http://www.w3.org/2000/svg">
<g clip-path="url(#clip0_2109_245684)">
<path d="M4.16699 0H146.212V150H4.16699V0Z" fill="#CCCCCC"/>
<path d="M10.9844 0H139.015V150H10.9844V0Z" fill="#D9D9D9"/>
<path d="M19.6973 0H130.303V150H19.6973V0Z" fill="#E5E5E5"/>
<path d="M33.7119 0H116.288V150H33.7119V0Z" fill="#F2F2F2"/>
<path d="M45.4541 0H104.545V150H45.4541V0Z" fill="#FAFAFA"/>
<path d="M62.1211 0H87.8787V150H62.1211V0Z" fill="white"/>
<path d="M4.16699 0H146.212V150H4.16699V0Z" stroke="black" stroke-width="0.6742"/>
<path d="M0 10.7969H150V12.5969H0V10.7969Z" fill="#CCCCCC" stroke="black" stroke-width="0.6742"/>
<path d="M0 32.7031H150V34.2031H0V32.7031Z" fill="#CCCCCC" stroke="black" stroke-width="0.6742"/>
<path d="M0 15.6016H150V17.1016H0V15.6016Z" fill="#CCCCCC" stroke="black" stroke-width="0.6742"/>
<path d="M1.13672 17.1016H4.16702V32.7016H1.13672V17.1016Z" fill="#E5E5E5" stroke="black" stroke-width="0.6742"/>
<path d="M146.212 17.1016H148.863V32.7016H146.212V17.1016Z" fill="#E5E5E5" stroke="black" stroke-width="0.6742"/>
<path d="M148.864 24.8984V29.6984L148.485 34.7984L147.728 39.5984L146.591 44.0984L145.076 48.8984L142.803 53.0984L140.152 57.2984L136.743 60.8984L132.576 64.4984L127.273 67.7984L121.212 70.4984L114.394 72.8984L106.44 74.6984L96.9701 76.1984L86.7428 77.0984L75.0004 77.3984L63.2579 77.0984L53.0307 76.1984L43.561 74.6984L35.6064 72.8984L28.7882 70.4984L22.7276 67.7984L17.4246 64.4984L13.2579 60.8984L9.84884 57.2984L7.19733 53.0984L4.9246 48.8984L3.40945 44.0984L2.27308 39.5984L1.51551 34.7984L1.13672 29.6984V24.8984H3.03066V29.6984L3.40945 34.1984L4.16702 38.9984L5.30339 43.4984L6.81854 47.9984L9.09126 52.1984L11.7428 56.0984L15.1519 59.6984L19.3185 63.2984L24.2428 66.2984L30.3034 68.9984L37.1216 71.3984L44.6973 73.4984L53.7882 74.6984L63.6367 75.5984L75.0004 75.8984L86.364 75.5984L96.2125 74.6984L105.303 73.4984L112.879 71.3984L119.697 68.9984L125.758 66.2984L130.682 63.2984L134.849 59.6984L138.258 56.0984L140.909 52.1984L143.182 47.9984L144.697 43.4984L145.834 38.9984L146.591 34.1984L146.97 29.6984V24.8984H148.864Z" fill="#B2B2B2" stroke="black" stroke-width="0.6742"/>
<path d="M55.3027 74.1016H94.6967V80.4016H55.3027V74.1016Z" fill="#FFCC00" stroke="black" stroke-width="0.6742"/>
<path d="M56.4395 75.8984H93.9395V77.3984H56.4395V75.8984Z" fill="white"/>
</g>
<defs>
<clipPath id="clip0_2109_245684">
<rect width="150" height="150" fill="white"/>
</clipPath>
</defs>
</svg>
