<svg width="150" height="150" viewBox="0 0 150 150" fill="none" xmlns="http://www.w3.org/2000/svg">
<g clip-path="url(#clip0_2109_243610)">
<path fill-rule="evenodd" clip-rule="evenodd" d="M45.3056 94.1441L118.076 135.285V138.138L45.3056 96.8468V94.1441ZM118.076 94.1441L45.3056 135.285V138.138L118.076 96.8468V94.1441ZM118.31 93.8438V146.096H126.761V93.8438H118.31ZM36.6201 93.8438V146.096H45.0708V93.8438H36.6201Z" fill="#333333"/>
<path d="M2.58203 149.098V12.7613L20.1877 1.5H67.136V6.0045H23.0046L9.62429 14.5631V149.098H2.58203Z" fill="#7F7F7F"/>
<path d="M4.45996 149.1V13.2136L20.6571 2.70312H67.136V4.95538H22.5351L7.98109 14.2647V149.1H4.45996Z" fill="#E5E5E5"/>
<path d="M2.58203 149.098V12.7613L20.1877 1.5H67.136V6.0045H23.0046L9.62429 14.5631V149.098H2.58203Z" stroke="black" stroke-width="0.375481"/>
<path d="M67.1358 134.234H96.4785L150 87.3874V24.9249L96.4785 6.15616L101.173 3.003V0H62.2062V3.003L67.1358 6.15616L13.3799 24.9249V87.3874L67.1358 134.234Z" fill="#666666"/>
<path d="M68.0748 134.234H95.5396L145.305 87.3875V24.925L95.5396 6.15625H68.0748L18.3096 24.925V87.3875L68.0748 134.234Z" fill="#6E6E6E"/>
<path d="M69.2486 134.234H94.366L140.375 87.3874V24.9249L94.366 6.15616L98.5914 3.003V0H65.0233V3.003L69.2486 6.15616L23.2393 24.9249V87.3874L69.2486 134.234Z" fill="#757575"/>
<path d="M70.1881 134.234H93.4275L135.446 87.3875V24.925L93.4275 6.15625H70.1881L27.9346 24.925V87.3875L70.1881 134.234Z" fill="#7D7D7D"/>
<path d="M71.3619 134.234H92.2539L130.517 87.3874V24.9249L92.2539 6.15616L95.7751 3.003V0H67.8408V3.003L71.3619 6.15616L32.8643 24.9249V87.3874L71.3619 134.234Z" fill="#858585"/>
<path d="M72.3 134.234H91.3141L125.821 87.3875V24.925L91.3141 6.15625H72.3L37.793 24.925V87.3875L72.3 134.234Z" fill="#8C8C8C"/>
<path d="M73.4738 134.234H90.1405L120.892 87.3874V24.9249L90.1405 6.15616L92.9574 3.003V0H70.6569V3.003L73.4738 6.15616L42.7227 24.9249V87.3874L73.4738 134.234Z" fill="#949494"/>
<path d="M74.4129 134.234H89.2016L115.962 87.3875V24.925L89.2016 6.15625H74.4129L47.6523 24.925V87.3875L74.4129 134.234Z" fill="#9E9E9E"/>
<path d="M75.5867 134.234H88.028L111.033 87.3874V24.9249L88.028 6.15616L90.1407 3.003V0H73.474V3.003L75.5867 6.15616L52.582 24.9249V87.3874L75.5867 134.234Z" fill="#A6A6A6"/>
<path d="M76.5262 134.234H87.0896L106.338 87.3875V24.925L87.0896 6.15625H76.5262L57.2773 24.925V87.3875L76.5262 134.234Z" fill="#ADADAD"/>
<path d="M77.7 134.234H85.916L101.409 87.3874V24.9249L85.916 6.15616L87.3244 3.003V0H76.0568V3.003L77.7 6.15616L62.207 24.9249V87.3874L77.7 134.234Z" fill="#B5B5B5"/>
<path d="M78.6381 134.234H84.9761L96.4785 87.3875V24.925L84.9761 6.15625H78.6381L67.1357 24.925V87.3875L78.6381 134.234Z" fill="#BDBDBD"/>
<path d="M79.8123 134.234H83.8029L91.5494 87.3874V24.9249L83.8029 6.15616L84.5071 3.003V0H78.8733V3.003L79.8123 6.15616L71.8311 24.9249V87.3874L79.8123 134.234Z" fill="#C4C4C4"/>
<path d="M81.6903 134.234C84.4128 134.234 86.6199 104.185 86.6199 67.1171C86.6199 30.0494 84.4128 0 81.6903 0C78.9678 0 76.7607 30.0494 76.7607 67.1171C76.7607 104.185 78.9678 134.234 81.6903 134.234Z" fill="#CCCCCC"/>
<path d="M67.1358 134.234H96.4785L150 87.3874V24.9249L96.4785 6.15616L101.173 3.003V0H62.2062V3.003L67.1358 6.15616L13.3799 24.9249V87.3874L67.1358 134.234Z" stroke="black" stroke-width="0.375481"/>
<path d="M67.1357 6.15625H96.4785" stroke="black" stroke-width="0.375481"/>
<path d="M13.3799 24.9219H150" stroke="black" stroke-width="0.375481"/>
<path d="M13.3799 87.3906H150" stroke="black" stroke-width="0.375481"/>
<path d="M13.3799 86.6328H150" stroke="#CCCCCC" stroke-width="0.375481"/>
<path d="M15.7275 24.1719H147.652" stroke="#CCCCCC" stroke-width="0.375481"/>
<path d="M115.963 87.3906V90.5438H140.376V87.3906H115.963Z" fill="#999999" stroke="black" stroke-width="0.375481"/>
<path d="M23.0049 87.3906V90.5438H47.418V87.3906H23.0049Z" fill="#999999" stroke="black" stroke-width="0.375481"/>
<path d="M123.239 90.5391V149.848H133.098V90.5391H123.239Z" fill="#7F7F7F" stroke="black" stroke-width="0.375481"/>
<path d="M30.5166 90.5391V149.848H40.141V90.5391H30.5166Z" fill="#7F7F7F" stroke="black" stroke-width="0.375481"/>
<path d="M125.821 87.3906V149.853H130.516V87.3906H125.821Z" fill="#999999" stroke="black" stroke-width="0.375481"/>
<path d="M32.8643 87.3906V149.853H37.7938V87.3906H32.8643Z" fill="#999999" stroke="black" stroke-width="0.375481"/>
<path d="M40.1406 93.6953L123.239 140.542V143.695L40.1406 96.8485V93.6953Z" fill="#7F7F7F" stroke="black" stroke-width="0.375481"/>
<path d="M123.239 93.6953L40.1406 140.542V143.695L123.239 96.8485V93.6953Z" fill="#7F7F7F" stroke="black" stroke-width="0.375481"/>
<path d="M67.1357 24.9219V55.4024" stroke="#CCCCCC" stroke-width="0.375481"/>
<path d="M13.3799 55.4062H150" stroke="#CCCCCC" stroke-width="0.375481"/>
<path d="M58.4512 56.1562V86.6367" stroke="#CCCCCC" stroke-width="0.375481"/>
<path d="M59.8594 56.1562V86.6367" stroke="#7F7F7F" stroke-width="0.375481"/>
<path d="M68.3096 24.9219V55.4024" stroke="#7F7F7F" stroke-width="0.375481"/>
<path d="M13.3799 56.1562H150" stroke="#7F7F7F" stroke-width="0.375481"/>
<path d="M0 82.7344H14.554V87.389H0V82.7344Z" fill="#7F7F7F" stroke="black" stroke-width="0.375481"/>
<path d="M0 53H14.554V57.8048H0V53Z" fill="#7F7F7F" stroke="black" stroke-width="0.375481"/>
<path d="M0 24.9219H14.554V29.7267H0V24.9219Z" fill="#7F7F7F" stroke="black" stroke-width="0.375481"/>
<path d="M2.34766 82.7344H7.27723V87.389H2.34766V82.7344Z" fill="#E5E5E5"/>
<path d="M2.34766 53H7.27723V57.8048H2.34766V53Z" fill="#E5E5E5"/>
<path d="M2.34766 24.9219H7.27723V29.7267H2.34766V24.9219Z" fill="#E5E5E5"/>
</g>
<defs>
<clipPath id="clip0_2109_243610">
<rect width="150" height="150" fill="white"/>
</clipPath>
</defs>
</svg>
