<svg width="150" height="150" viewBox="0 0 150 150" fill="none" xmlns="http://www.w3.org/2000/svg">
<g clip-path="url(#clip0_2109_243573)">
<path d="M137.215 90.3906H122.269V121.322H125.33V142.943H134.153V121.322H137.215V90.3906Z" fill="#4C4C4C" stroke="black" stroke-width="0.328864"/>
<path d="M58.3434 90.3906H43.3975V121.322H46.4587V142.943H55.2822V121.322H58.3434V90.3906Z" fill="#4C4C4C" stroke="black" stroke-width="0.328864"/>
<path d="M122.269 146.098V142.945H132.713V146.098H122.269Z" fill="#7F7F7F" stroke="black" stroke-width="0.328864"/>
<path d="M43.3975 146.098V142.945H53.8416V146.098H43.3975Z" fill="#7F7F7F" stroke="black" stroke-width="0.328864"/>
<path d="M132.713 146.098V142.945H137.215V146.098H132.713Z" fill="black" stroke="black" stroke-width="0.328864"/>
<path d="M53.8418 146.098V142.945H58.3436V146.098H53.8418Z" fill="black" stroke="black" stroke-width="0.328864"/>
<path d="M0.720703 37.8371V87.3866L37.8155 118.318L74.9104 124.474L112.005 118.318L149.1 87.3866V37.8371L126.951 19.2185H145.499L149.1 9.90916L145.499 0.75H4.50222L0.720703 9.90916L4.50222 19.2185H23.0496L0.720703 37.8371Z" fill="#7F7F7F"/>
<path d="M13.5059 37.8388V87.2382L44.2982 118.169L75.0905 124.325L105.883 118.169L136.675 87.2382V37.8388L118.128 19.2202H133.614L136.675 9.91087L133.614 0.601562H16.5671L13.5059 9.91087L16.5671 19.2202H31.8732L13.5059 37.8388Z" fill="#949494"/>
<path d="M19.4473 37.8388V87.2382L47.1784 118.169L75.0895 124.325L103.001 118.169L130.732 87.2382V37.8388L113.985 19.2202H127.851L130.732 9.91087L127.851 0.601562H22.1483L19.4473 9.91087L22.1483 19.2202H36.0139L19.4473 37.8388Z" fill="#A8A8A8"/>
<path d="M30.4326 37.8388V87.2382L52.7615 118.169L75.0905 124.325L97.2393 118.169L119.568 87.2382V37.8388L106.243 19.2202H117.407L119.568 9.91087L117.407 0.601562H32.7736L30.4326 9.91087L32.7736 19.2202H43.7579L30.4326 37.8388Z" fill="#BDBDBD"/>
<path d="M48.9795 37.8388V87.2382L62.1248 118.169L75.0899 124.325L88.0551 118.169L101.02 87.2382V37.8388L93.2772 19.2202H99.7598L101.02 9.91087L99.7598 0.601562H50.24L48.9795 9.91087L50.24 19.2202H56.7226L48.9795 37.8388Z" fill="#D1D1D1"/>
<path d="M67.5273 37.8371V87.3866L71.3089 118.318L74.9103 124.474L78.6918 118.318L82.4733 87.3866V37.8371L80.1324 19.2185H82.1132L82.4733 9.90916L82.1132 0.75H67.8875L67.5273 9.90916L67.8875 19.2185H69.6882L67.5273 37.8371Z" fill="#E5E5E5"/>
<path d="M4.50195 37.8359H149.1" stroke="white" stroke-width="0.328864"/>
<path d="M4.50195 87.3906H145.498" stroke="#666666" stroke-width="0.328864"/>
<path d="M45.3779 118.32H104.622" stroke="#666666" stroke-width="0.328864"/>
<path d="M138.116 28.6782L126.951 19.2188H23.0496L11.7051 28.6782L16.7471 27.0266L22.5094 25.8254L27.7315 25.0746L33.4938 24.3239L39.9764 23.7233L46.8191 23.2728L54.022 22.8224L61.7651 22.5221L66.9872 22.3719H72.2093H77.6114H85.5346L93.0976 22.6722L100.481 22.9725L107.503 23.5731L113.986 24.0236L119.928 24.7743L125.331 25.5251L131.633 26.5761L136.315 27.9275L137.395 28.2278L138.116 28.6782Z" fill="#4C4C4C"/>
<path d="M23.0488 19.2188H126.95" stroke="black" stroke-width="0.328864"/>
<path d="M0.720703 37.8371V87.3866L37.8155 118.318L74.9104 124.474L112.005 118.318L149.1 87.3866V37.8371L126.951 19.2185H145.499L149.1 9.90916L145.499 0.75H4.50222L0.720703 9.90916L4.50222 19.2185H23.0496L0.720703 37.8371Z" stroke="black" stroke-width="0.328864"/>
<path d="M26.8306 105.105L8.2832 90.3906V121.322H11.8846V146.096H23.0491V121.322H26.8306V105.105Z" fill="#666666"/>
<path d="M8.2832 149.247V146.094H21.2484V149.247H8.2832Z" fill="#B2B2B2" stroke="black" stroke-width="0.328864"/>
<path d="M21.248 149.247V146.094H26.8303V149.247H21.248Z" fill="#666666" stroke="black" stroke-width="0.328864"/>
<path d="M24.3101 103.602L10.8047 92.6406V121.319H13.5058V145.944H21.609V121.319H24.3101V103.602Z" fill="#878787"/>
<path d="M21.9687 101.954L13.3252 95.0469V121.323H14.9458V145.948H20.1679V121.323H21.9687V101.954Z" fill="#ABABAB"/>
<path d="M19.4475 99.7L15.666 96.5469V121.322H16.3863V146.096H18.7272V121.322H19.4475V99.7Z" fill="#CCCCCC"/>
<path d="M26.8306 105.105L8.2832 90.3906V121.322H11.8846V146.096H23.0491V121.322H26.8306V105.105Z" stroke="black" stroke-width="0.328864"/>
<path d="M11.8848 121.32H23.0492" stroke="black" stroke-width="0.328864"/>
<path d="M111.104 90.3906L92.5566 91.1414V121.322H96.3382V146.096H107.503V121.322H111.104V90.3906Z" fill="#666666"/>
<path d="M92.5566 149.247V146.094H105.522V149.247H92.5566Z" fill="#B2B2B2" stroke="black" stroke-width="0.328864"/>
<path d="M105.522 149.247V146.094H111.105V149.247H105.522Z" fill="#666666" stroke="black" stroke-width="0.328864"/>
<path d="M108.764 90.3906L95.0781 91.1414V121.322H97.7792V145.946H106.063V121.322H108.764V90.3906Z" fill="#878787"/>
<path d="M106.422 91.1406H97.5986V121.321H99.3994V145.945H104.621V121.321H106.242L106.422 91.1406Z" fill="#ABABAB"/>
<path d="M103.722 91.1406H100.12V121.321H100.66V146.096H103.001V121.321H103.722V91.1406Z" fill="#CCCCCC"/>
<path d="M111.104 90.3906L92.5566 91.1414V121.322H96.3382V146.096H107.503V121.322H111.104V90.3906Z" stroke="black" stroke-width="0.328864"/>
<path d="M96.3389 121.32H107.323" stroke="black" stroke-width="0.328864"/>
</g>
<defs>
<clipPath id="clip0_2109_243573">
<rect width="150" height="150" fill="white"/>
</clipPath>
</defs>
</svg>
