<svg width="150" height="150" viewBox="0 0 150 150" fill="none" xmlns="http://www.w3.org/2000/svg">
<g clip-path="url(#clip0_2109_246184)">
<path d="M150 32.6019L149.099 27.5862L146.547 22.884L142.492 18.4953L139.039 15.674L134.985 13.0094L130.33 10.6583L125.375 8.46395L119.67 6.42633L113.814 4.70219L107.357 3.1348L100.601 1.88088L93.6937 0.940439L86.3363 0.31348L78.8288 0H74.9249H71.021L63.5135 0.31348L56.1562 0.940439L49.2492 1.88088L42.4925 3.1348L36.036 4.70219L30.1802 6.42633L24.4745 8.46395L19.5195 10.6583L14.8649 13.0094L10.8108 15.674L7.35736 18.4953L3.3033 22.884L0.750751 27.5862L0 30.8777V32.6019V136.991L3.3033 140.752L7.35736 142.633L12.7628 144.201L17.1171 145.298L21.9219 146.238L27.3273 147.022L33.033 147.806L39.1892 148.433L45.7958 148.903L52.7027 149.373L59.7598 149.687L67.2673 150H71.021H74.9249H82.5826L90.0901 149.687L97.1471 149.373L104.054 148.903L110.661 148.433L116.817 147.806L122.523 147.022L127.928 146.238L132.733 145.298L137.087 144.201L142.492 142.633L146.547 140.752L149.85 137.618L150 136.991V32.6019Z" fill="#B2B2AD"/>
<path d="M137.388 32.6019L136.787 27.5862L134.685 22.884L131.232 18.4953L126.727 14.4201L123.124 11.7555L119.069 9.56113L114.565 7.36677L109.76 5.48589L104.655 3.9185L99.2497 2.50784L93.544 1.41066L87.538 0.626959L81.2317 0H78.0785H74.9254H71.7722L65.4659 0.31348L59.3097 0.940439L53.4539 1.88088L47.8983 3.1348L42.6431 4.70219L37.538 6.42633L32.8833 8.46395L28.6791 10.6583L24.9254 13.0094L21.4719 15.674L17.4178 19.906L14.4148 24.4514L12.7632 29.1536L12.4629 30.8777V32.6019V136.991L15.1656 140.752L19.9704 143.103L24.9254 144.828L30.7812 146.238L35.2857 147.022L40.0905 147.806L45.1956 148.433L50.601 148.903L56.3067 149.373L62.3127 149.687L68.619 150H71.7722H74.9254H81.2317L87.538 149.687L93.544 149.373L99.2497 148.903L104.655 148.433L109.76 147.806L114.565 147.022L119.069 146.238L123.124 145.298L128.379 143.73L132.433 142.006L136.187 139.498L137.388 137.618V136.991V32.6019Z" fill="#BFBFBA"/>
<path d="M128.078 32.6019L127.477 27.5862L125.675 22.884L122.823 18.4953L118.919 14.4201L114.264 10.6583L110.51 8.46395L106.606 6.42633L102.402 4.70219L97.8976 3.1348L93.243 1.88088L88.1378 0.940439L83.0327 0.31348L77.6273 0H74.9246H72.2219L66.8165 0.31348L61.7114 0.940439L56.6063 1.88088L51.9517 3.1348L47.4472 4.70219L43.243 6.42633L39.3391 8.46395L35.5853 10.6583L30.9306 14.4201L27.0267 18.4953L24.1739 22.884L22.3721 27.5862L21.9216 30.8777L21.7715 32.6019V136.991L24.1739 140.752L28.2279 143.103L32.4321 144.828L37.3871 146.238L43.243 147.335L47.4472 148.119L51.9517 148.746L56.6063 149.216L61.7114 149.53L66.8165 149.843L69.5192 150H72.2219H74.9246H80.33L85.5853 149.687L90.6904 149.373L95.6454 148.903L100.15 148.433L104.504 147.806L110.51 146.552L115.916 145.298L120.27 143.73L124.774 141.379L127.777 138.245L127.928 137.618L128.078 136.991V32.6019Z" fill="#CCCCC7"/>
<path d="M121.772 32.6019L121.171 27.5862L119.67 22.884L117.117 18.4953L113.814 14.4201L109.61 10.6583L104.655 7.36677L101.051 5.48589L97.2973 3.9185L93.0931 2.50784L88.8889 1.41066L84.3844 0.626959L79.7298 0H77.3274H74.925H72.5226L67.8679 0.31348L63.2133 0.940439L58.8589 1.88088L54.6547 3.1348L50.6006 4.70219L46.997 6.42633L41.8919 9.56113L37.3874 13.0094L33.7838 17.0846L30.931 21.3166L28.979 26.0188L28.0781 30.8777V32.6019V136.991L30.1802 140.752L33.7838 143.103L37.3874 144.828L41.8919 146.238L46.997 147.335L52.5526 148.433L58.8589 149.216L63.2133 149.53L67.8679 149.843L70.1202 150H72.5226H74.925H79.7298L84.3844 149.687L88.8889 149.373L93.0931 148.903L99.2493 148.119L104.655 147.022L109.61 145.768L113.814 144.201L118.018 142.006L121.171 138.871L121.772 137.618V136.991V32.6019Z" fill="#D9D9D4"/>
<path d="M106.156 32.6019L105.555 26.0188L103.753 19.906L100.75 14.4201L96.9967 9.56113L92.342 5.48589L87.0868 2.50784L81.2309 0.626959L78.0777 0H74.9246H71.7714L65.6153 1.41066L60.0597 3.9185L55.1048 7.36677L50.7504 11.7555L47.4471 17.0846L45.0447 22.884L43.8435 29.1536L43.6934 32.6019V136.991L46.0958 142.006L50.7504 145.298L55.1048 147.022L60.0597 148.433L65.6153 149.373L71.7714 150H74.9246H78.0777L84.2339 149.373L89.7895 148.433L94.7444 147.022L99.0988 145.298L103.753 142.006L106.006 138.245L106.156 136.991V32.6019Z" fill="#E5E5E0"/>
<path d="M87.3878 32.6019L87.2377 26.0188L86.4869 19.906L85.2857 14.4201L83.7842 9.56113L81.9824 5.48589L78.6791 1.41066L76.2767 0H74.9254H73.574L70.1205 2.50784L66.9674 7.36677L65.3157 11.7555L63.9644 17.0846L62.9133 22.884L62.4629 29.1536V32.6019V136.991L63.3638 142.006L66.0665 146.238L70.1205 148.903L73.574 150H74.9254H76.2767L80.9314 148.433L84.535 145.298L86.9374 140.752L87.3878 138.245V136.991V32.6019Z" fill="#F2F2ED"/>
<path d="M150 32.6019L149.099 27.5862L146.547 22.884L142.492 18.4953L139.039 15.674L134.985 13.0094L130.33 10.6583L125.375 8.46395L119.67 6.42633L113.814 4.70219L107.357 3.1348L100.601 1.88088L93.6937 0.940439L86.3363 0.31348L78.8288 0H74.9249H71.021L63.5135 0.31348L56.1562 0.940439L49.2492 1.88088L42.4925 3.1348L36.036 4.70219L30.1802 6.42633L24.4745 8.46395L19.5195 10.6583L14.8649 13.0094L10.8108 15.674L7.35736 18.4953L3.3033 22.884L0.750751 27.5862L0 30.8777V32.6019V136.991L3.3033 140.752L7.35736 142.633L12.7628 144.201L17.1171 145.298L21.9219 146.238L27.3273 147.022L33.033 147.806L39.1892 148.433L45.7958 148.903L52.7027 149.373L59.7598 149.687L67.2673 150H71.021H74.9249H82.5826L90.0901 149.687L97.1471 149.373L104.054 148.903L110.661 148.433L116.817 147.806L122.523 147.022L127.928 146.238L132.733 145.298L137.087 144.201L142.492 142.633L146.547 140.752L149.85 137.618L150 136.991V32.6019Z" stroke="black" stroke-width="0.306819"/>
<path d="M150 32.6016L149.85 32.915L145.345 34.7959L140.841 35.7364L134.985 36.5201L130.33 36.9903L125.375 37.4605L119.669 37.774L113.814 38.0875L107.357 38.4009L100.6 38.7144L93.6935 38.8712L86.3361 39.0279H78.8286H68.7686" stroke="#7F7F7F" stroke-width="0.306819"/>
<path d="M68.6186 14.5781V39.0295L31.0811 37.9324L31.2312 14.5781H68.6186Z" fill="#D9D9D4"/>
<path d="M150 52.1953L149.85 52.3521L145.345 54.3897L140.841 55.1734L134.985 55.9571L130.33 56.4273L125.375 56.8975L119.67 57.3677L113.814 57.6812L107.357 57.9947L100.601 58.1514L93.6937 58.4649L86.3363 58.6216H82.5826H78.8288H74.9249H67.2673L59.7598 58.4649L52.7027 58.3082L45.7958 58.1514L39.1892 57.8379L33.033 57.5245L27.3273 57.0542L21.9219 56.7408L17.1171 56.2705L12.7628 55.8003L7.35736 54.8599L2.25225 53.7627L0 52.3521V52.1953" stroke="#7F7F7F" stroke-width="0.306819"/>
<path d="M30.6306 37.774L27.1772 37.6172L23.8739 37.3038L20.7207 37.147L17.8679 36.8335L15.1652 36.5201L12.6126 36.2066L10.2102 35.8931L8.10811 35.5796L6.30631 35.1094L4.65465 34.7959L3.15315 34.4824L2.1021 34.0122L1.05105 33.6987L0.45045 33.3853L0 32.915V32.6016" stroke="#7F7F7F" stroke-width="0.306819"/>
<path d="M68.619 14.5781V39.0295L43.5439 38.4026V14.5781H68.619Z" fill="#E5E5E0"/>
<path d="M68.619 14.5781V39.0295L62.4629 38.8728V14.5781H68.619Z" fill="#F2F2ED"/>
<path d="M31.2315 14.5781L30.6309 37.9324" stroke="#7F7F7F" stroke-width="0.306819"/>
<path d="M68.6191 14.5748L75.6762 5.64062L74.9254 9.71586L68.6191 39.0262V14.5748Z" fill="#CCCCC7" stroke="#7F7F7F" stroke-width="0.306819"/>
<path d="M68.6188 14.5748L75.6759 5.64062H71.772L31.2314 14.5748H68.6188Z" fill="#F2F2ED" stroke="#7F7F7F" stroke-width="0.306819"/>
<path d="M35.8857 17.8672H54.6545V20.375H35.8857V17.8672Z" fill="#666666" stroke="black" stroke-width="0.306819"/>
</g>
<defs>
<clipPath id="clip0_2109_246184">
<rect width="150" height="150" fill="white"/>
</clipPath>
</defs>
</svg>
