<svg width="150" height="150" viewBox="0 0 150 150" fill="none" xmlns="http://www.w3.org/2000/svg">
<g clip-path="url(#clip0_2109_242277)">
<path d="M0 9.3L1.8 4.5L6 0.9L7.8 0.3L9.6 0H17.7H140.4L145.5 1.8L149.1 6L149.7 7.5L150 9.3V17.4V140.7L148.2 145.5L144 149.1L142.2 149.7L140.4 150H132.3H9.6L4.5 148.2L0.9 144L0.3 142.5L0 140.7V132.6V9.3Z" fill="#7F7F7F"/>
<path d="M9.2998 9.3L10.7998 4.5L14.3998 0.9L15.8998 0.3L17.3998 0H24.5998H132.6L137.1 1.8L140.1 6L140.4 7.5L140.7 9.3V17.4V140.7L139.2 145.5L135.6 149.1L134.1 149.7L132.6 150H125.4H17.3998L12.8998 148.2L9.8998 144L9.5998 142.5L9.2998 140.7V132.6V9.3Z" fill="#999999"/>
<path d="M23.4004 9.3V7.5L25.5004 3L28.8004 0.3L30.0004 0H35.7004H120L123.6 1.8L126 6L126.6 7.5V9.3V142.5L124.5 147L121.2 149.7L120 150H114.3H30.0004L26.4004 148.2L24.0004 144L23.4004 142.5V140.7V9.3Z" fill="#B2B2B2"/>
<path d="M42 9.3L42.9 4.5L44.7 0.9L45.3 0.3L46.2 0H49.8H103.8L104.7 0.3L107.1 4.5L107.7 6L108 7.5V9.3V142.5L106.8 147L104.7 149.7L103.8 150H100.2H46.2L45.3 149.7L42.9 145.5L42.3 144L42 142.5V140.7V9.3Z" fill="#CCCCCC"/>
<path d="M58.5 9.3L58.8 4.5L60.3 0.3L60.6 0H64.2H89.4L91.2 4.5V6L91.5 7.5V9.3V142.5L90.9 147L89.7 149.7L89.4 150H85.8H60.6L58.8 145.5V144L58.5 142.5V140.7V9.3Z" fill="#E5E5E5"/>
<path d="M72.5996 9.3V7.5V6V4.5L72.8996 0.3V0H74.0996H77.0996V1.8L77.3996 3V4.5V147L77.0996 149.7V150H75.8996H72.8996L72.5996 145.5V9.3Z" fill="white"/>
<path d="M0 9.3L1.8 4.5L6 0.9L7.5 0.3L9.3 0H17.4H140.7L145.5 1.8L149.1 6L149.7 7.5L150 9.3V17.4V140.7L148.2 145.5L144 149.1L142.5 149.7L140.7 150H132.6H9.3L4.5 148.2L0.9 144L0.3 142.5L0 140.7V132.6V9.3Z" stroke="black" stroke-width="0.6"/>
</g>
<defs>
<clipPath id="clip0_2109_242277">
<rect width="150" height="150" fill="white"/>
</clipPath>
</defs>
</svg>
