<svg width="150" height="150" viewBox="0 0 150 150" fill="none" xmlns="http://www.w3.org/2000/svg">
<g clip-path="url(#clip0_2109_243515)">
<path d="M73.495 7.21094H110.117V8.71244L109.365 10.2139L108.612 11.5653L107.107 12.9166L105.853 14.268L103.846 15.4692L101.589 16.5202L99.3311 17.5713L96.8227 18.6223L93.8127 19.3731L90.8027 20.1239L87.5418 20.7245L84.2809 21.3251L80.7692 21.6254L77.0067 21.9257H73.495H69.7324L65.9699 21.6254L62.4582 21.3251L58.9465 20.7245L55.9365 20.1239L52.6756 19.3731L49.9164 18.6223L47.408 17.5713L44.8997 16.5202L42.893 15.4692L41.1371 14.268L39.6321 12.9166L38.3779 11.5653L37.3746 10.2139L36.8729 8.71244L36.6221 7.21094H73.495Z" fill="#669999" stroke="black" stroke-width="0.38814"/>
<path d="M97.5752 141.594H134.197V149.852H97.5752V141.594Z" fill="black" stroke="black" stroke-width="0.38814"/>
<path d="M12.291 141.594H48.9131V149.852H12.291V141.594Z" fill="black" stroke="black" stroke-width="0.38814"/>
<path d="M12.291 1.64844H24.8328V28.0749H12.291V1.64844Z" fill="#669999"/>
<path d="M13.7959 1.64844H22.826V28.0749H13.7959V1.64844Z" fill="#8FC2C2"/>
<path d="M16.5547 1.64844H20.5681V28.0749H16.5547V1.64844Z" fill="#CCFFFF"/>
<path d="M12.291 1.64844H24.8328V28.0749H12.291V1.64844Z" stroke="black" stroke-width="0.38814"/>
<path d="M122.408 1.64844H134.198V28.0749H122.408V1.64844Z" fill="#669999"/>
<path d="M123.662 1.64844H132.692V28.0749H123.662V1.64844Z" fill="#8FC2C2"/>
<path d="M126.672 1.64844H129.933V28.0749H126.672V1.64844Z" fill="#CCFFFF"/>
<path d="M122.408 1.64844H134.198V28.0749H122.408V1.64844Z" stroke="black" stroke-width="0.38814"/>
<path d="M146.739 140.39L146.237 140.991L139.465 142.792L131.94 143.693L124.916 144.294L117.14 144.744L108.11 145.195L98.3278 145.495L88.0435 145.645L84.2809 145.795H80.7692H77.0067H65.7191L54.9331 145.645L44.8997 145.345L35.3679 145.045L26.8395 144.594L19.0635 144.144L10.5351 143.393L3.26087 142.042L0.250836 140.991L0 140.69V140.39V28.0777L3.26087 24.0237L8.77926 21.6213L16.806 19.369L24.0803 18.0177L32.3579 16.8165L41.6388 15.7654L51.4214 15.0147L62.2074 14.5642H65.7191L69.4816 14.4141H73.2441L80.7692 14.5642L88.0435 14.7144L98.3278 15.315L108.11 16.0657L117.14 17.1168L124.916 18.4681L131.94 19.9696L139.465 22.2219L145.234 25.375L146.488 27.4771L146.739 28.0777V140.39Z" fill="#669999"/>
<path d="M134.949 140.39L128.679 142.792L120.903 143.994L112.374 144.594L105.1 145.045L97.0732 145.345L88.5448 145.645L82.5247 145.795H79.5147H76.5046H66.9729L57.9428 145.645L49.4143 145.345L41.3876 145.045L34.1133 144.594L25.5849 143.994L17.809 142.792L11.7889 140.69L11.5381 140.39V137.087V28.0777L14.2973 24.0237L20.5682 21.0207L27.8424 18.9186L34.1133 17.5672L41.3876 16.366L49.4143 15.6153L57.9428 14.8645L66.9729 14.5642L69.9829 14.4141H73.2438L82.5247 14.5642L91.5548 15.0147L99.8324 15.7654L107.608 16.8165L114.632 18.0177L122.658 19.9696L128.679 22.2219L133.695 25.375L134.699 27.4771L134.949 28.0777V31.5312V140.39Z" fill="#7AADAD"/>
<path d="M123.161 140.39L122.91 140.991L117.141 143.093L108.612 144.294L101.087 144.895L92.8097 145.345L83.278 145.645L78.2612 145.795H73.2445L63.4619 145.645L54.181 145.345L45.6525 144.895L38.1275 144.294L29.599 143.093L23.579 140.991L23.3281 140.39L23.579 137.087V131.081V125.976L23.8298 121.471V115.465V109.609V92.1918V85.4351V77.327V72.6723V67.7174L23.579 62.312V56.4561V50.1498V43.393V36.0357L23.3281 28.0777L25.5857 24.0237L32.1074 20.5702L38.1275 18.4681L45.6525 16.8165L54.181 15.6153L63.4619 14.7144L68.2278 14.5642L73.2445 14.4141L78.2612 14.5642L88.0438 15.0147L97.074 16.0657L105.101 17.5672L111.873 19.369L119.148 22.8225L122.91 26.7264L123.161 28.0777V31.5312V140.39Z" fill="#8FC2C2"/>
<path d="M110.618 140.39L110.367 140.991L104.347 143.543L97.0732 144.594L87.7922 145.345L80.7688 145.645L77.0063 145.795H73.2437L65.7186 145.645L55.4344 145.195L46.9059 144.294L40.3842 143.093L36.12 140.991L35.8691 140.39V137.087V28.0777L37.625 24.0237L42.14 20.5702L49.4143 17.5672L58.6952 15.6153L65.7186 14.7144L69.4812 14.5642L73.2437 14.4141L77.0063 14.5642L84.2805 15.0147L91.0531 16.0657L99.5815 18.4681L106.103 21.6213L109.866 25.375L110.367 26.7264L110.618 28.0777V31.5312V140.39Z" fill="#A3D6D6"/>
<path d="M98.8298 140.39L94.5655 143.543L87.793 144.895L78.512 145.645L76.0037 145.795H73.2445L65.7194 145.645L57.191 144.594L50.92 143.093L47.91 140.991L47.6592 140.39V137.087V28.0777L49.6659 22.8225L53.6792 19.369L58.9468 16.8165L65.7194 15.0147L70.7361 14.5642L73.2445 14.4141L76.0037 14.5642L83.5287 15.6153L89.7997 17.5672L95.8197 21.6213L98.3281 25.375L98.8298 26.7264V28.0777V31.5312V140.39Z" fill="#B8EBEB"/>
<path d="M87.0402 140.39L83.0268 144.294L76.0034 145.645L73.2442 145.795L65.4683 144.895L59.6991 141.591L59.4482 140.39V28.0777L60.4516 22.8225L63.4616 18.4681L69.2309 15.0147L73.2442 14.4141L79.766 16.0657L84.0302 19.369L86.5385 24.0237L87.0402 28.0777V140.39Z" fill="#CCFFFF"/>
<path d="M146.739 140.39L146.237 140.991L139.465 142.792L131.94 143.693L124.916 144.294L117.14 144.744L108.11 145.195L98.3278 145.495L88.0435 145.645L84.2809 145.795H80.7692H77.0067H65.7191L54.9331 145.645L44.8997 145.345L35.3679 145.045L26.8395 144.594L19.0635 144.144L10.5351 143.393L3.26087 142.042L0.250836 140.991L0 140.69V140.39V28.0777L3.26087 24.0237L8.77926 21.6213L16.806 19.369L24.0803 18.0177L32.3579 16.8165L41.6388 15.7654L51.4214 15.0147L62.2074 14.5642H65.7191L69.4816 14.4141H73.2442L80.7692 14.5642L88.0435 14.7144L98.3278 15.315L108.11 16.0657L117.14 17.1168L124.916 18.4681L131.94 19.9696L139.465 22.2219L145.234 25.375L146.488 27.4771L146.739 28.0777V140.39Z" stroke="black" stroke-width="0.38814"/>
<path d="M0 28.0781H146.739V33.4835H0V28.0781Z" stroke="black" stroke-width="0.38814"/>
<path d="M73.2441 14.4144C93.47 14.4144 109.866 11.1876 109.866 7.20721C109.866 3.22678 93.47 0 73.2441 0C53.0183 0 36.6221 3.22678 36.6221 7.20721C36.6221 11.1876 53.0183 14.4144 73.2441 14.4144Z" fill="#B2E5E5"/>
<path d="M73.2437 14.2674C90.0062 14.2674 103.595 11.7801 103.595 8.71181C103.595 5.64356 90.0062 3.15625 73.2437 3.15625C56.4813 3.15625 42.8926 5.64356 42.8926 8.71181C42.8926 11.7801 56.4813 14.2674 73.2437 14.2674Z" fill="#99CCCC"/>
<path d="M73.495 14.4138C87.0713 14.4138 98.077 12.7331 98.077 10.66C98.077 8.58686 87.0713 6.90625 73.495 6.90625C59.9188 6.90625 48.9131 8.58686 48.9131 10.66C48.9131 12.7331 59.9188 14.4138 73.495 14.4138Z" fill="#7FB2B2"/>
<path d="M73.2441 14.4144C93.47 14.4144 109.866 11.1876 109.866 7.20721C109.866 3.22678 93.47 0 73.2441 0C53.0183 0 36.6221 3.22678 36.6221 7.20721C36.6221 11.1876 53.0183 14.4144 73.2441 14.4144Z" stroke="black" stroke-width="0.38814"/>
<path d="M116.89 126.273H144.482V142.039H116.89V126.273Z" fill="#336666" stroke="black" stroke-width="0.38814"/>
<path d="M112.124 142.039H150V144.141H112.124V142.039Z" fill="black" stroke="#7F7F7F" stroke-width="0.38814"/>
<path d="M144.482 120.867V126.273H116.89V124.17L130.686 122.969L144.482 120.867Z" fill="#669999" stroke="black" stroke-width="0.38814"/>
</g>
<defs>
<clipPath id="clip0_2109_243515">
<rect width="150" height="150" fill="white"/>
</clipPath>
</defs>
</svg>
