<svg width="150" height="150" viewBox="0 0 150 150" fill="none" xmlns="http://www.w3.org/2000/svg">
<path d="M148.668 115.765V112.612H142.806L131.616 3.90315H137.211V0.75H12.5221V3.90315H18.1171L6.92706 112.612H1.33203V115.765H148.668Z" fill="#4C4C4C"/>
<path d="M143.34 115.765V112.612H138.011L127.62 3.90315H132.682V0.75H17.0519V3.90315H22.3805L11.7233 112.612H6.66113V115.765H143.34Z" fill="#595959"/>
<path d="M138.011 115.765V112.612H133.215L123.357 3.90315H128.153V0.75H21.5807V3.90315H26.6429L16.785 112.612H11.9893V115.765H138.011Z" fill="#636363"/>
<path d="M132.682 115.765V112.612H128.153L119.361 3.90315H123.89V0.75H26.1105V3.90315H30.6399L21.8477 112.612H17.3184V115.765H132.682Z" fill="#707070"/>
<path d="M127.353 115.765V112.612H123.357L115.364 3.90315H119.361V0.75H30.6394V3.90315H34.9023L26.6429 112.612H22.6465V115.765H127.353Z" fill="#7A7A7A"/>
<path d="M122.024 115.765V112.612H118.294L111.101 3.90315H114.831V0.75H35.1682V3.90315H38.8982L31.7046 112.612H27.9746V115.765H122.024Z" fill="#878787"/>
<path d="M116.696 115.765V112.612H113.499L107.105 3.90315H110.302V0.75H39.698V3.90315H43.1616L36.5009 112.612H33.3037V115.765H116.696Z" fill="#949494"/>
<path d="M111.367 115.765V112.612H108.437L102.842 3.90315H105.772V0.75H44.227V3.90315H47.1578L41.5627 112.612H38.8984V115.765H111.367Z" fill="#9E9E9E"/>
<path d="M106.039 115.765V112.612H103.641L98.8457 3.90315H101.244V0.75H48.7568V3.90315H51.4211L46.6254 112.612H44.2275V115.765H106.039Z" fill="#ABABAB"/>
<path d="M100.71 115.765V112.612H98.5788L94.5823 3.90315H96.7137V0.75H53.2857V3.90315H55.4171L51.4207 112.612H49.5557V115.765H100.71Z" fill="#B8B8B8"/>
<path d="M95.3821 115.765V112.612H93.7835L90.5864 3.90315H92.1849V0.75H57.8155V3.90315H59.6805L56.4833 112.612H54.8848V115.765H95.3821Z" fill="#C2C2C2"/>
<path d="M90.053 115.765V112.612H88.7209L86.5894 3.90315H87.6552V0.75H62.3443V3.90315H63.6765L61.2786 112.612H60.2129V115.765H90.053Z" fill="#CFCFCF"/>
<path d="M84.7249 115.765V112.612H83.6592L82.3271 3.90315H83.1264V0.75H66.8741V3.90315H67.6734L66.0749 112.612H65.542V115.765H84.7249Z" fill="#D9D9D9"/>
<path d="M79.1294 115.765V112.612H78.863L78.0637 3.90315H78.5966V0.75H71.403V3.90315H71.9358L71.1365 112.612H70.8701V115.765H71.403H72.4687H73.5344H74.8666H76.4651H77.5309H78.5966H79.1294Z" fill="#E5E5E5"/>
<path d="M142.806 115.766H6.92676V117.117V118.318L8.25891 123.273L10.6568 128.228L14.1204 132.733L18.3832 137.087L23.7118 141.141L30.1062 144.745L37.0333 147.898L38.8983 148.498L40.7633 149.099H108.969L116.429 146.246L123.09 142.943L128.685 139.189L133.747 134.985L137.744 130.48L140.675 125.826L142.273 120.871L142.806 118.318V117.117V115.766Z" fill="#333333"/>
<path d="M138.01 115.766H11.7227V116.967L11.9891 118.318L13.0548 123.273L15.1862 128.078L18.3834 132.733L22.6463 137.087L27.442 141.141L33.3035 144.594L39.9642 147.748L41.5628 148.498L43.4278 149.099H106.572L113.499 146.246L119.627 142.943L124.955 139.189L129.485 134.985L133.215 130.48L135.879 125.676L137.478 120.721L138.01 118.318V116.967V115.766Z" fill="#404040"/>
<path d="M133.215 115.766H16.7852V116.967L17.0516 118.318L18.1173 123.273L19.9823 128.078L22.913 132.733L26.6431 137.087L31.4388 141.141L36.7674 144.594L42.6289 147.748L44.2274 148.498L45.826 149.099H104.174L110.568 146.246L116.163 142.943L120.959 139.189L125.222 134.985L128.686 130.48L131.084 125.676L132.682 120.721L132.949 118.318L133.215 116.967V115.766Z" fill="#4A4A4A"/>
<path d="M128.153 115.766H21.8477V116.967V118.318L22.9134 123.273L24.512 128.078L27.4427 132.733L30.9063 137.087L34.9027 141.141L39.9649 144.594L45.2935 147.748L46.8921 148.498L48.4906 149.099H101.777L107.372 146.246L112.7 142.943L117.23 139.189L120.96 134.985L124.157 130.48L126.288 125.676L127.887 120.721L128.153 118.318V116.967V115.766Z" fill="#575757"/>
<path d="M123.357 115.766H26.6426V116.967L26.909 118.318L27.7083 123.273L29.3069 128.078L31.7047 132.733L34.9019 137.087L38.8984 141.141L43.1612 144.594L48.2234 147.748L49.5555 148.498L50.8877 149.099H99.1115L105.772 145.495L110.302 142.042L114.298 138.138L117.495 133.934L120.159 129.279L122.024 124.474L123.09 119.519L123.357 118.318V116.967V115.766Z" fill="#616161"/>
<path d="M118.295 115.766H31.7051V116.967V118.318L32.5044 123.273L34.1029 128.078L36.2344 132.733L39.1651 137.087L42.3623 141.141L46.3587 144.594L52.2202 148.498L53.2859 149.099H96.714L102.575 145.495L106.572 142.042L110.302 138.138L113.233 133.934L115.63 129.279L117.229 124.474L118.028 119.519L118.295 118.318V116.967V115.766Z" fill="#6E6E6E"/>
<path d="M113.499 115.766H36.501V116.967L36.7674 118.318L37.0338 120.721L37.3003 123.273L38.0996 125.676L38.6324 128.078L39.6981 130.48L40.4974 132.733L41.8296 134.985L43.1617 137.087L44.4939 139.189L46.0925 141.141L47.9575 142.943L49.556 144.594L51.6875 146.246L53.5525 147.748L54.6182 148.498L55.9504 149.099H94.3163L96.4477 147.748L98.3127 146.246L100.178 144.594L102.309 142.943L103.908 141.141L105.506 139.189L106.838 137.087L108.171 134.985L109.236 132.733L110.568 130.48L111.368 128.078L112.167 125.676L112.7 123.273L112.966 120.721L113.233 118.318L113.499 116.967V115.766Z" fill="#7A7A7A"/>
<path d="M108.437 115.766H41.5635V116.967V118.318L41.8299 120.721L42.0963 123.273L42.6292 125.676L43.4285 128.078L44.2278 130.48L45.0271 132.733L46.0928 134.985L47.1585 137.087L48.4907 139.189L49.8228 141.141L51.4214 142.943L53.02 144.594L54.6185 146.246L56.4835 147.748L57.2828 148.498L58.3486 149.099H91.6523L93.7837 147.748L95.3823 146.246L97.2473 144.594L98.8459 142.943L100.178 141.141L101.51 139.189L102.842 137.087L103.908 134.985L104.974 132.733L106.039 130.48L106.839 128.078L107.372 125.676L107.905 123.273L108.171 120.721L108.437 118.318V116.967V115.766Z" fill="#858585"/>
<path d="M103.641 115.766H46.625V116.967V118.318L46.8914 120.721L47.1579 123.273L47.4243 125.676L47.9571 128.078L48.7564 130.48L49.5557 132.733L50.355 134.985L51.4207 137.087L52.4865 139.189L53.5522 141.141L54.8843 142.943L56.2165 144.594L57.5486 146.246L59.1472 147.748L59.9465 148.498L60.7458 149.099H89.2538L90.8524 147.748L92.4509 146.246L93.7831 144.594L95.1152 142.943L96.4474 141.141L97.7795 139.189L98.8452 137.087L99.6445 134.985L100.71 132.733L101.51 130.48L102.042 128.078L102.575 125.676L103.108 123.273L103.375 120.721L103.641 118.318V116.967V115.766Z" fill="#919191"/>
<path d="M98.579 115.766H51.4209V116.967V118.318L51.6873 120.721L51.9538 123.273L52.2202 125.676L52.753 128.078L53.2859 130.48L53.8188 132.733L54.6181 134.985L55.4173 137.087L56.2166 139.189L57.2824 141.141L58.3481 142.943L59.4138 144.594L60.7459 146.246L61.8117 147.748L62.611 148.498L63.4102 149.099H86.8561L88.1882 147.748L89.5204 146.246L90.5861 144.594L91.6518 142.943L92.7175 141.141L93.7832 139.189L94.5825 137.087L95.3818 134.985L96.1811 132.733L96.714 130.48L97.5133 128.078L97.7797 125.676L98.3125 123.273L98.579 120.721V118.318V116.967V115.766Z" fill="#9E9E9E"/>
<path d="M93.7836 115.766H56.4834V116.967V118.318V120.721L56.7498 123.273L57.0163 125.676L57.2827 128.078L57.8155 130.48L58.3484 132.733L58.8813 134.985L59.6806 137.087L60.2134 139.189L61.0127 141.141L61.812 142.943L62.6113 144.594L63.677 146.246L64.7427 147.748L65.2756 148.498L65.8084 149.099H84.1921L85.5243 147.748L86.3235 146.246L87.3893 144.594L88.1885 142.943L88.9878 141.141L89.7871 139.189L90.5864 137.087L91.1193 134.985L91.6521 132.733L92.185 130.48L92.7179 128.078L93.2507 125.676L93.5171 123.273V120.721L93.7836 119.519V118.318V116.967V115.766Z" fill="#A8A8A8"/>
<path d="M88.988 115.766H61.2793V116.967V118.318V120.721L61.5457 123.273L61.8122 125.676L62.0786 128.078L62.345 130.48L62.6114 132.733L63.1443 134.985L63.6772 137.087L64.21 139.189L64.7429 141.141L65.2757 142.943L66.075 144.594L66.6079 146.246L67.4072 147.748L67.94 148.498L68.2065 149.099H81.7944L82.5937 147.748L83.393 146.246L84.1923 144.594L84.7251 142.943L85.5244 141.141L86.0573 139.189L86.5901 137.087L86.8566 134.985L87.3894 132.733L87.6559 130.48L88.1887 128.078L88.4551 125.676L88.7216 123.273V120.721V119.519L88.988 118.318V116.967V115.766Z" fill="#B5B5B5"/>
<path d="M83.925 115.766H66.0742V116.967V118.318L66.3406 120.721V123.273L66.6071 125.676V128.078L66.8735 130.48L67.1399 132.733L67.4064 134.985L67.6728 137.087L68.2057 139.189L68.4721 141.141L69.0049 142.943L69.2714 144.594L69.8042 146.246L70.0707 147.748L70.3371 148.498L70.6035 149.099H79.3957L79.9286 147.748L80.4614 146.246L80.9943 144.594L81.2607 142.943L81.7936 141.141L82.06 139.189L82.3264 137.087L82.5929 134.985L82.8593 132.733L83.1257 130.48L83.3922 128.078L83.6586 125.676V123.273V120.721L83.925 119.519V118.318V116.967V115.766Z" fill="#BFBFBF"/>
<path d="M78.8632 115.766H71.1367V117.117V118.318V120.871V123.273V125.826V128.228L71.4031 130.48V132.733L71.6696 134.985L71.936 137.087V139.189L72.2024 141.141V142.943L72.4689 144.745L72.7353 146.246L73.0017 147.898V148.498V149.099H76.9982L77.2646 146.997L77.531 145.495V143.844L77.7975 142.042L78.0639 140.09V138.138L78.3303 136.036V133.934L78.5968 131.682V129.429V127.027L78.8632 124.624V122.072V120.871V119.67V117.117V115.766Z" fill="#CCCCCC"/>
<path d="M148.668 115.765V112.612H142.806L131.616 3.90315H137.211V0.75H12.5221V3.90315H18.1171L6.92706 112.612H1.33203V115.765H148.668Z" stroke="black" stroke-width="0.400022"/>
<path d="M142.806 115.766H6.92676V117.117V118.318L8.25891 123.273L10.6568 128.228L14.1204 132.733L18.3832 137.087L23.7118 141.141L30.1062 144.745L37.0333 147.898L38.8983 148.498L40.7633 149.099H108.969L116.429 146.246L123.09 142.943L128.685 139.189L133.747 134.985L137.744 130.48L140.675 125.826L142.273 120.871L142.806 118.318V117.117V115.766Z" stroke="black" stroke-width="0.400022"/>
<path d="M6.92676 112.609H142.806" stroke="black" stroke-width="0.400022"/>
<path d="M18.1172 3.90625H132.948" stroke="black" stroke-width="0.400022"/>
</svg>
