<svg width="150" height="150" viewBox="0 0 150 150" fill="none" xmlns="http://www.w3.org/2000/svg">
<g clip-path="url(#clip0_2109_243486)">
<path d="M122.005 1.20312H134.102V20.4223H122.005V1.20312Z" fill="#669999"/>
<path d="M12.7881 1.20312H24.8849V20.4223H12.7881V1.20312Z" fill="#669999"/>
<path d="M123.387 1.20312H124.424H132.027V20.4223L128.571 20.2722L123.387 20.4223V1.20312Z" fill="#8FC2C2"/>
<path d="M14.1709 1.20312H15.2078H22.8115V20.4223L19.3552 20.2722L14.1709 20.4223V1.20312Z" fill="#8FC2C2"/>
<path d="M125.807 1.20312H129.954V20.4223H125.807V1.20312Z" fill="#CCFFFF"/>
<path d="M16.2441 1.20312H20.3916V20.4223H16.2441V1.20312Z" fill="#CCFFFF"/>
<path d="M95.7373 143.391H133.41V149.997H95.7373V143.391Z" fill="black" stroke="black" stroke-width="0.45561"/>
<path d="M13.4795 143.391H51.8435V149.997H13.4795V143.391Z" fill="black" stroke="black" stroke-width="0.45561"/>
<path d="M122.005 1.20312H134.102V20.4223H122.005V1.20312Z" stroke="black" stroke-width="0.45561"/>
<path d="M12.7881 1.20312H24.8849V20.4223H12.7881V1.20312Z" stroke="black" stroke-width="0.45561"/>
<path d="M145.507 142.49L145.161 142.94L133.41 144.742L119.24 145.643L107.488 145.943L94.7005 146.244L87.4424 146.394L80.1843 146.544H72.5806L58.0645 146.394L44.5853 146.244L32.1429 145.793L21.4286 145.343L8.64055 144.442L0.345622 142.94L0 142.49V20.4177L5.52995 16.5138L16.5899 14.1114L26.6129 12.7601L38.0184 11.709L51.1521 10.9583L65.3226 10.5078H72.5806H80.1843L94.7005 10.9583L107.488 11.709L119.24 12.7601L129.263 14.1114L139.977 16.5138L145.161 19.3667L145.507 20.4177V142.49Z" fill="#669999"/>
<path d="M134.101 142.49L133.756 142.94L123.733 144.742L112.327 145.643L102.304 145.943L91.5899 146.244L85.7144 146.394L79.4932 146.544H73.6176L61.1752 146.394L49.7697 146.244L39.401 145.793L26.613 145.042L17.6268 143.991L13.1337 142.94L12.7881 142.49V138.736V20.4177L17.6268 16.5138L26.613 14.1114L39.401 12.1595L49.7697 11.2586L61.1752 10.658L67.3964 10.5078H73.6176H79.4932L91.5899 10.9583L102.304 11.709L112.327 12.7601L123.733 14.8622L131.336 17.4147L134.101 24.0213V36.1835L134.447 40.9883V49.697V56.3036V66.5138V69.5168V72.8201V89.0363V93.9913V111.559V118.466V133.931L134.101 142.49Z" fill="#7AADAD"/>
<path d="M122.696 142.49V142.94L114.401 144.742L104.723 145.643L92.6265 146.244L83.2947 146.394L78.456 146.544H73.6173L58.7556 146.244L45.9676 145.793L35.5989 145.042L26.2671 143.691L24.539 142.94L24.1934 142.49V138.736V20.4177L27.9952 16.5138L35.5989 14.1114L45.9676 12.1595L58.7556 10.9583L68.433 10.5078H73.6173H78.456L92.6265 11.2586L104.723 12.7601L114.401 14.8622L121.659 18.4658L122.696 19.3667V20.4177V24.0213V142.49Z" fill="#8FC2C2"/>
<path d="M110.599 142.49L110.253 142.94L101.958 145.042L90.8982 145.943L80.8751 146.394L77.0733 146.544H73.6171L62.2115 146.244L52.5341 145.793L42.1655 144.742L35.9443 142.94L35.5986 142.49V138.736L35.9443 132.28V126.724V121.919V117.415V104.202V78.3757V73.8712V63.5108V57.655V44.4417L35.5986 36.9342V28.9763V20.4177L38.7092 16.5138L46.6585 13.3607L55.2991 11.709L65.6678 10.658L69.8152 10.5078H73.6171H77.0733L87.7876 11.2586L96.7738 12.7601L106.106 15.6129L110.253 19.3667L110.599 20.4177V24.0213V142.49Z" fill="#A3D6D6"/>
<path d="M98.5027 142.49L91.2447 145.343L80.876 146.244L78.4567 146.394L76.0373 146.544H73.6179L63.5949 146.244L53.5719 145.042L47.6963 142.94V142.49V138.736V20.4177L50.8069 15.6129L59.1018 12.1595L68.088 10.658L70.853 10.5078H73.6179H76.0373L85.3691 11.709L94.3553 14.8622L98.5027 19.3667V20.4177V24.0213V142.49Z" fill="#B8EBEB"/>
<path d="M87.097 142.49L80.8758 145.793L72.5808 146.544L63.249 145.343L59.1016 142.49V20.4177L60.8297 15.6129L65.3228 12.1595L72.5808 10.5078L81.9126 12.7601L86.0601 16.5138L87.097 20.4177V142.49Z" fill="#CCFFFF"/>
<path d="M145.507 142.49L145.161 142.94L133.41 144.742L119.24 145.643L107.488 145.943L94.7005 146.244L87.4424 146.394L80.1843 146.544H72.5806L58.0645 146.394L44.5853 146.244L32.1429 145.793L21.4286 145.343L8.64055 144.442L0.345622 142.94L0 142.49V20.4177L5.52995 16.5138L16.5899 14.1114L26.6129 12.7601L38.0184 11.709L51.1521 10.9583L65.3226 10.5078H72.5806H80.1843L94.7005 10.9583L107.488 11.709L119.24 12.7601L129.263 14.1114L139.977 16.5138L145.161 19.3667L145.507 20.4177V142.49Z" stroke="black" stroke-width="0.45561"/>
<path d="M0 20.4219H145.507V24.1756H0V20.4219Z" stroke="black" stroke-width="0.45561"/>
<path d="M73.6174 5.25781H109.908L109.216 7.35991L107.143 9.31187L103.687 11.1137L101.613 11.8644L99.1934 12.7653L96.4285 13.3659L93.6635 13.9665L90.8985 14.5671L87.7879 14.8674L84.3317 15.3179L80.8755 15.6182L77.0736 15.7683H73.6174H69.8155L66.3593 15.6182L62.5575 15.3179L59.4469 14.8674L56.3363 14.5671L53.2257 13.9665L50.4607 13.3659L47.6957 12.7653L45.2764 11.8644L41.4745 10.2128L38.7096 8.41097L37.3271 6.30886L36.9814 5.25781H73.6174Z" fill="#669999" stroke="black" stroke-width="0.45561"/>
<path d="M73.2718 10.5105C93.3144 10.5105 109.562 8.15765 109.562 5.25526C109.562 2.35286 93.3144 0 73.2718 0C53.2292 0 36.9814 2.35286 36.9814 5.25526C36.9814 8.15765 53.2292 10.5105 73.2718 10.5105Z" fill="#B2E5E5"/>
<path d="M72.9265 10.5109C89.5333 10.5109 102.996 8.7631 102.996 6.60703C102.996 4.45096 89.5333 2.70312 72.9265 2.70312C56.3198 2.70312 42.8574 4.45096 42.8574 6.60703C42.8574 8.7631 56.3198 10.5109 72.9265 10.5109Z" fill="#99CCCC"/>
<path d="M73.2717 10.3629C86.6334 10.3629 97.4652 9.2201 97.4652 7.81036C97.4652 6.40063 86.6334 5.25781 73.2717 5.25781C59.9099 5.25781 49.0781 6.40063 49.0781 7.81036C49.0781 9.2201 59.9099 10.3629 73.2717 10.3629Z" fill="#7FB2B2"/>
<path d="M73.2718 10.5105C93.3144 10.5105 109.562 8.15765 109.562 5.25526C109.562 2.35286 93.3144 0 73.2718 0C53.2292 0 36.9814 2.35286 36.9814 5.25526C36.9814 8.15765 53.2292 10.5105 73.2718 10.5105Z" stroke="black" stroke-width="0.45561"/>
<path d="M115.783 132.586H144.815V144.298H115.783V132.586Z" fill="#336666" stroke="black" stroke-width="0.45561"/>
<path d="M109.908 144.297H150V145.949H109.908V144.297Z" fill="black" stroke="#7F7F7F" stroke-width="0.45561"/>
<path d="M144.124 128.531V132.585H115.783V130.633L129.954 130.033L144.124 128.531Z" fill="#669999" stroke="black" stroke-width="0.45561"/>
</g>
<defs>
<clipPath id="clip0_2109_243486">
<rect width="150" height="150" fill="white"/>
</clipPath>
</defs>
</svg>
