<svg width="150" height="150" viewBox="0 0 150 150" fill="none" xmlns="http://www.w3.org/2000/svg">
<g clip-path="url(#clip0_2109_243791)">
<path d="M116.102 90.5413V101.502H145.48V103.905H150V88.2891H145.48V90.5413H116.102Z" fill="#999999"/>
<path d="M116.102 92.1907V93.0916L115.819 94.1427V95.0436V97.8964L116.102 99.8484H121.469H125.141H137.853H141.808H145.48V101.2V101.5H146.045L148.588 101.35L149.153 101.5H149.718V100.749V98.7973V93.2418V91.2898V90.5391H149.153H148.588H148.023H145.48V92.1907H139.831H136.158H123.164H119.774H116.102Z" fill="#B2B2B2"/>
<path d="M116.102 93.8462V98.2006H145.48V99.1015H150V92.9453H145.48V93.8462H116.102Z" fill="#CCCCCC"/>
<path d="M116.102 90.5413V101.502H145.48V103.905H150V88.2891H145.48V90.5413H116.102Z" stroke="black" stroke-width="0.411899"/>
<path d="M145.48 101.5V90.5391" stroke="black" stroke-width="0.411899"/>
<path d="M82.2037 115.617H61.5823V131.233H57.0625V133.635H86.7235V131.233H82.2037V115.617Z" fill="#999999"/>
<path d="M79.0962 115.619H77.4012L75.7063 115.469H73.7289H68.3617L64.6894 115.619V118.472L64.9719 120.424V127.18L64.6894 129.283V131.235H62.147H61.582V131.535L61.8645 132.886L61.582 133.186V133.487H62.9945H66.9493H77.1188H81.0736H82.2035V133.186L82.486 132.886V132.586L82.2035 131.235H79.0962V128.232L79.3786 126.28V119.373L79.0962 117.571V115.619Z" fill="#B2B2B2"/>
<path d="M75.9886 115.617H67.7965V131.233H66.1016V133.635H77.6835V131.233H75.9886V115.617Z" fill="#CCCCCC"/>
<path d="M82.2037 115.617H61.5823V131.233H57.0625V133.635H86.7235V131.233H82.2037V115.617Z" stroke="black" stroke-width="0.411899"/>
<path d="M61.582 131.234H82.2035" stroke="black" stroke-width="0.411899"/>
<path d="M10.1699 105.102H133.616V106.303H10.1699V105.102Z" fill="#7F7F7F" stroke="black" stroke-width="0.411899"/>
<path d="M8.75684 50.2969H133.616V51.1978H8.75684V50.2969Z" fill="#7F7F7F" stroke="black" stroke-width="0.411899"/>
<path d="M9.6044 42.6406L2.25977 46.5445V148.647H9.6044V42.6406Z" fill="#CCCCCC" stroke="black" stroke-width="0.411899"/>
<path d="M9.60449 137.836V135.734H132.768V137.836H9.60449Z" fill="#CCCCCC" stroke="black" stroke-width="0.411899"/>
<path d="M132.769 42.6406L140.113 46.5445V148.647H132.769V42.6406Z" fill="#CCCCCC" stroke="black" stroke-width="0.411899"/>
<path d="M130.509 150H142.656V148.648H130.509V150Z" fill="#CCCCCC" stroke="black" stroke-width="0.411899"/>
<path d="M11.8644 150H0V148.648H11.8644V150Z" fill="#CCCCCC" stroke="black" stroke-width="0.411899"/>
<path d="M97.7399 21.7751L107.344 22.5258L116.101 24.7781L123.164 28.2315L127.966 32.5859L130.508 37.691L130.791 39.6429V107.811L129.378 112.015L125.988 115.919L120.621 119.523L113.559 122.676L104.802 125.229L94.6326 127.18L83.8981 128.382L77.9659 128.682L72.0337 128.832L65.819 128.682L54.5196 127.931L44.0676 126.28L34.4631 124.027L26.5535 121.174L20.3388 117.721L15.819 113.967L13.2766 109.913L12.9941 107.811V39.6429L14.6891 34.2375L18.6439 29.5829L25.141 25.8291L33.3331 23.1264L42.9376 21.9252L46.3275 21.7751L46.8924 15.4688H96.8924L97.7399 21.7751Z" fill="#7F7F7F"/>
<path d="M92.9378 21.7751L100.565 22.5258L107.627 24.7781L113.277 28.2315L117.232 32.5859L119.209 37.691L119.491 43.8471V52.2555V54.3576V56.6099V92.7961V99.2525V107.661L117.232 113.967L113.559 117.721L108.474 121.024L101.977 123.877L94.6327 126.28L86.1581 127.781L76.8361 128.682L72.0338 128.832L67.2315 128.682L57.9095 127.781L49.4349 126.28L41.8078 123.877L35.5931 121.024L30.2259 117.721L26.8361 113.967L24.8587 109.913L24.5762 107.661V105.559V94.8982V88.5919V54.3576V48.0513V39.4928L25.7061 34.2375L29.0959 29.5829L34.1807 25.8291L40.9604 23.1264L48.5875 21.7751H51.4123L51.6948 16.9703V15.4688H59.3219H61.8643H64.4067H82.2033H92.0903L92.6553 20.1234L92.9378 21.7751Z" fill="#919191"/>
<path d="M87.8534 21.7751L95.4805 23.1264L101.978 26.8802L105.368 31.0844L107.627 35.8892L107.91 41.745V52.2555V54.3576V56.6099V92.7961V99.2525V107.661L106.215 113.967L103.673 117.721L97.4579 122.526L89.2658 126.28L79.3788 128.382L75.7065 128.682L72.0342 128.832L68.3619 128.682L57.9099 127.18L49.1528 123.877L42.0907 119.523L38.7008 115.919L36.7234 111.865L36.1585 109.913L35.876 107.661V105.559V94.8982L36.1585 88.5919V54.3576L35.876 48.0513V39.4928L37.0059 34.2375L39.5483 29.5829L43.5031 25.8291L50.2828 22.5258L56.215 21.7751L56.7799 16.9703V15.4688H62.4296H64.407H66.3845H79.6613H87.2884L87.5709 20.1234L87.8534 21.7751Z" fill="#A6A6A6"/>
<path d="M82.7687 21.7751L89.2659 23.8772L93.5032 28.2315L95.4806 32.5859L96.3281 37.691L96.6105 43.8471V52.2555V54.3576V56.6099V92.7961V99.2525V107.661L95.4806 113.967L92.3733 119.523L87.571 123.877L81.6388 127.18L74.5767 128.682L72.0343 128.832L69.4919 128.682L62.4298 127.18L56.4976 123.877L51.6953 119.523L48.588 113.967L47.458 109.913V107.661V105.559V94.8982V88.5919V54.3576V48.0513V39.4928L48.023 34.2375L49.7179 29.5829L53.3902 24.7781L59.8874 21.7751H61.2998L61.5823 16.9703V15.4688H65.5371H66.667H68.0795H77.119H82.4863L82.7687 20.1234V21.7751Z" fill="#B8B8B8"/>
<path d="M77.6834 21.7751L82.4856 25.8291L84.1806 31.0844L85.028 36.0393V37.691V39.6429V107.811L84.4631 113.967L82.7681 119.523L80.2258 124.027L75.9885 127.931L73.1636 128.682L72.0337 128.832L70.6212 128.682L64.689 125.229L61.8642 121.174L59.8868 115.919L58.7568 109.913V107.811V39.6429L59.0393 34.2375L59.8868 29.5829L62.1467 24.7781L66.1015 21.7751L66.384 15.4688H77.4009L77.6834 21.7751Z" fill="#CCCCCC"/>
<path d="M97.7399 21.7751L107.344 22.5258L116.101 24.7781L123.164 28.2315L127.966 32.5859L130.508 37.691L130.791 39.6429V107.811L129.378 112.015L125.988 115.919L120.621 119.523L113.559 122.676L104.802 125.229L94.6326 127.18L83.8981 128.382L77.9659 128.682L72.0337 128.832L65.819 128.682L54.5196 127.931L44.0676 126.28L34.4631 124.027L26.5535 121.174L20.3388 117.721L15.819 113.967L13.2766 109.913L12.9941 107.811V39.6429L14.6891 34.2375L18.6439 29.5829L25.141 25.8291L33.3331 23.1264L42.9376 21.9252L46.3275 21.7751L46.8924 15.4688H96.8924L97.7399 21.7751Z" stroke="black" stroke-width="0.411899"/>
<path d="M46.8926 21.7734H96.8926" stroke="black" stroke-width="0.411899"/>
<path d="M104.237 15.4688H111.582V17.8712H104.237V15.4688Z" fill="#7F7F7F" stroke="black" stroke-width="0.411899"/>
<path d="M89.8301 15.4688H97.1747V17.8712H89.8301V15.4688Z" fill="#7F7F7F" stroke="black" stroke-width="0.411899"/>
<path d="M75.4238 15.4688H82.7685V17.8712H75.4238V15.4688Z" fill="#7F7F7F" stroke="black" stroke-width="0.411899"/>
<path d="M61.0166 15.4688H68.3612V17.8712H61.0166V15.4688Z" fill="#7F7F7F" stroke="black" stroke-width="0.411899"/>
<path d="M46.6104 15.4688H53.955V17.8712H46.6104V15.4688Z" fill="#7F7F7F" stroke="black" stroke-width="0.411899"/>
<path d="M32.2031 15.4688H39.5478V17.8712H32.2031V15.4688Z" fill="#7F7F7F" stroke="black" stroke-width="0.411899"/>
<path d="M114.407 15.4664V12.4634V12.3133L104.803 11.8628L95.7631 11.7127H84.7461L80.5089 11.5625H76.2716H63.2772L51.6953 11.7127L41.8083 11.8628L32.7687 12.1631L29.3789 12.3133V12.4634V15.4664V15.6166L38.9834 16.067L48.023 16.2172H59.3224L63.2772 16.3673H67.5145H80.5089L92.3733 16.2172L101.978 16.067L111.017 15.7667L114.407 15.6166V15.4664Z" fill="#7F7F7F"/>
<path d="M103.39 15.4664V15.016V14.7157V14.2652V12.7637V12.3133H103.107L99.4348 12.013L96.045 11.8628L92.0902 11.7127H87.0054L84.1806 11.5625H81.3557H78.2484H75.141H65.819H62.7116H59.8868L57.0619 11.7127H51.9772L47.7399 11.8628L44.3501 12.013L41.2427 12.1631L40.9602 12.3133H40.6777V12.7637V14.2652V15.4664L40.9602 15.6166L44.3501 15.9169H47.7399L51.9772 16.067L57.0619 16.2172H59.8868H62.7116H65.819H68.9263H78.2484H81.3557H84.1806H87.0054L92.0902 16.067L96.045 15.9169H99.4348L102.542 15.6166H103.107L103.39 15.4664Z" fill="#999999"/>
<path d="M92.0905 15.4664V15.016V14.7157V14.2652V12.7637V12.3133L88.7007 11.8628L84.7459 11.7127H81.6386L77.9662 11.5625H75.9888H74.0114H68.0792H64.1244L60.7346 11.7127L57.9097 11.8628L54.5199 12.013L51.9775 12.3133V12.7637V14.2652V15.4664V15.6166L55.3674 15.9169L59.3222 16.067L62.4295 16.2172H66.1018H68.0792H70.0566H75.9888H79.9436L83.3335 16.067H86.1583L89.5482 15.9169L92.0905 15.6166V15.4664Z" fill="#B2B2B2"/>
<path d="M80.7915 15.4664V12.4634L80.509 12.3133L76.8367 11.7127L73.7293 11.5625H70.057L66.9497 11.7127L63.8423 12.1631L63.2773 12.3133V12.4634V15.4664V15.6166L66.9497 16.2172L70.057 16.3673H73.7293L76.8367 16.2172L79.944 15.7667L80.509 15.6166L80.7915 15.4664Z" fill="#CCCCCC"/>
<path d="M114.407 15.4664V12.4634V12.3133L104.803 11.8628L95.7631 11.7127H84.7461L80.5088 11.5625H76.2716H63.2772L51.6953 11.7127L41.8083 11.8628L32.7687 12.1631L29.3789 12.3133V12.4634V15.4664V15.6166L38.9834 16.067L48.023 16.2172H59.3224L63.2772 16.3673H67.5145H80.5088L92.3733 16.2172L101.978 16.067L111.017 15.7667L114.407 15.6166V15.4664Z" stroke="black" stroke-width="0.411899"/>
<path d="M71.7518 13.064C95.1537 13.064 114.125 12.7279 114.125 12.3133C114.125 11.8986 95.1537 11.5625 71.7518 11.5625C48.3499 11.5625 29.3789 11.8986 29.3789 12.3133C29.3789 12.7279 48.3499 13.064 71.7518 13.064Z" fill="#7F7F7F" stroke="black" stroke-width="0.411899"/>
<path d="M47.7402 0H53.39V12.9129H47.7402V0Z" fill="black"/>
<path d="M89.8301 0H95.4798V12.9129H89.8301V0Z" fill="black"/>
<path d="M70.3389 2.10156H74.5762V12.4619H70.3389V2.10156Z" fill="black"/>
<path d="M38.418 0H61.5818V1.5015H38.418V0Z" fill="black"/>
<path d="M81.3557 0H104.237V1.5015H81.3557H81.0732V0H81.3557Z" fill="black"/>
<path d="M63.2773 1.80469H81.3564V3.00589H63.2773V1.80469Z" fill="black"/>
</g>
<defs>
<clipPath id="clip0_2109_243791">
<rect width="150" height="150" fill="white"/>
</clipPath>
</defs>
</svg>
