<svg width="150" height="150" viewBox="0 0 150 150" fill="none" xmlns="http://www.w3.org/2000/svg">
<g clip-path="url(#clip0_2109_246753)">
<path d="M125.167 27.1797H132.377V112.465H125.167V27.1797Z" fill="#999999"/>
<path d="M17.4229 27.1797H25.033V112.465H17.4229V27.1797Z" fill="#999999"/>
<path d="M120.36 100.75L123.965 98.0476L29.4388 30.1797L25.834 32.8824L120.36 100.75Z" fill="#7F7F7F" stroke="black" stroke-width="0.346815"/>
<path d="M23.832 130.48H29.039V0H23.832V130.48Z" fill="#7F7F7F" stroke="black" stroke-width="0.346815"/>
<path d="M12.2158 137.391V134.088L20.627 130.484H31.842L40.2532 134.088V137.391H12.2158Z" fill="#7F7F7F" stroke="black" stroke-width="0.346815"/>
<path d="M123.965 30.4805L120.36 28.0781L25.834 95.946L29.4388 98.6487L123.965 30.4805Z" fill="#7F7F7F" stroke="black" stroke-width="0.346815"/>
<path d="M121.161 130.48H126.368V0H121.161V130.48Z" fill="#7F7F7F" stroke="black" stroke-width="0.346815"/>
<path d="M109.546 137.391V134.088L117.957 130.484H129.172L137.583 134.088V137.391H109.546Z" fill="#7F7F7F" stroke="black" stroke-width="0.346815"/>
<path d="M12.2158 134.086H40.2532" stroke="black" stroke-width="0.346815"/>
<path d="M109.546 134.086H137.583" stroke="black" stroke-width="0.346815"/>
<path d="M129.573 115.163L133.979 111.86L20.2272 26.875L15.8213 30.1783L129.573 115.163Z" fill="#7F7F7F"/>
<path d="M130.774 113.964L132.376 113.063L19.025 28.0781L17.4229 28.979L130.774 113.964Z" fill="#E5E5E5"/>
<path d="M129.573 115.163L133.979 111.86L20.2272 26.875L15.8213 30.1783L129.573 115.163Z" stroke="black" stroke-width="0.346815"/>
<path d="M133.979 30.1783L129.573 26.875L15.8213 111.86L20.2272 115.163L133.979 30.1783Z" fill="#7F7F7F"/>
<path d="M132.376 28.979L130.774 28.0781L17.4229 113.063L19.025 113.964L132.376 28.979Z" fill="#E5E5E5"/>
<path d="M133.979 30.1783L129.573 26.875L15.8213 111.86L20.2272 115.163L133.979 30.1783Z" stroke="black" stroke-width="0.346815"/>
<path d="M13.418 142.192H19.8265V0H13.418V142.192Z" fill="#7F7F7F"/>
<path d="M130.374 142.192H136.382V0H130.374V142.192Z" fill="#7F7F7F"/>
<path d="M116.756 150.002V145.798L126.369 141.594H140.387L150 145.798V150.002H116.756Z" fill="#7F7F7F"/>
<path d="M0 150.002V145.798L9.41255 141.594H23.4312L33.0441 145.798V150.002H0Z" fill="#7F7F7F"/>
<path d="M122.764 150.002V145.798L129.172 141.594H137.583L143.591 145.798V150.002H122.764Z" fill="#B2B2B2"/>
<path d="M6.20801 150.002V145.798L12.216 141.594H21.0278L27.0358 145.798V150.002H6.20801Z" fill="#B2B2B2"/>
<path d="M13.418 150.002V145.798L15.0201 141.594H17.8238L19.8265 145.798V150.002H13.418Z" fill="#E5E5E5"/>
<path d="M130.374 150.002V145.798L131.976 141.594H134.78L136.382 145.798V150.002H130.374Z" fill="#E5E5E5"/>
<path d="M132.377 142.192H134.38V0H132.377V142.192Z" fill="#E5E5E5"/>
<path d="M15.4209 142.192H17.4236V0H15.4209V142.192Z" fill="#E5E5E5"/>
<path d="M0 145.797H33.0441" stroke="black" stroke-width="0.346815"/>
<path d="M116.756 145.797H150" stroke="black" stroke-width="0.346815"/>
<path d="M116.756 150.002V145.798L126.369 141.594H140.387L150 145.798V150.002H116.756Z" stroke="black" stroke-width="0.346815"/>
<path d="M130.374 141.441H136.382V0H130.374V141.441Z" stroke="black" stroke-width="0.346815"/>
<path d="M13.418 141.441H19.8265V0H13.418V141.441Z" stroke="black" stroke-width="0.346815"/>
<path d="M0 150.002V145.798L9.41255 141.594H23.4312L33.0441 145.798V150.002H0Z" stroke="black" stroke-width="0.346815"/>
</g>
<defs>
<clipPath id="clip0_2109_246753">
<rect width="150" height="150" fill="white"/>
</clipPath>
</defs>
</svg>
