<svg width="150" height="150" viewBox="0 0 150 150" fill="none" xmlns="http://www.w3.org/2000/svg">
<path d="M8.09375 7.96094H132.734V9.61259H8.09375V7.96094Z" fill="#4C4C4C"/>
<path d="M8.09375 18.3203H132.734V19.972H8.09375V18.3203Z" fill="#4C4C4C"/>
<path d="M8.09375 28.6797H132.734V30.3313H8.09375V28.6797Z" fill="#4C4C4C"/>
<path d="M8.09375 39.0391H132.734V40.5406H8.09375V39.0391Z" fill="#4C4C4C"/>
<path d="M8.09375 49.25H132.734V50.9017H8.09375V49.25Z" fill="#4C4C4C"/>
<path d="M8.09375 59.6094H132.734V61.261H8.09375V59.6094Z" fill="#4C4C4C"/>
<path d="M8.09375 69.9688H132.734V71.4703H8.09375V69.9688Z" fill="#4C4C4C"/>
<path d="M8.09375 80.3281H132.734V81.8296H8.09375V80.3281Z" fill="#4C4C4C"/>
<path d="M8.09375 90.5391H132.734V92.1907H8.09375V90.5391Z" fill="#4C4C4C"/>
<path d="M8.09375 100.898H132.734V102.55H8.09375V100.898Z" fill="#4C4C4C"/>
<path d="M8.09375 111.258H132.734V112.759H8.09375V111.258Z" fill="#4C4C4C"/>
<path d="M8.09375 121.469H132.734V123.12H8.09375V121.469Z" fill="#4C4C4C"/>
<path d="M8.09375 131.828H132.734V133.48H8.09375V131.828Z" fill="#4C4C4C"/>
<path d="M8.09375 142.195H132.734V143.847H8.09375V142.195Z" fill="#4C4C4C"/>
<path d="M126.798 97.4498V7.20955L125.719 6.4588L110.072 4.80715L91.1867 4.20655L74.9996 3.90625L57.1939 4.0564L41.0068 4.3567L24.2802 5.10745L12.4097 6.4588L10.791 7.20955V97.4498H126.798Z" fill="#666666"/>
<path d="M124.1 97.4498V6.60895L107.913 4.9573L90.647 4.20655L74.46 3.90625L57.7334 4.0564L42.6254 4.50685L26.4384 5.5579L14.0283 6.60895V97.4498H124.1Z" fill="#757575"/>
<path d="M122.482 97.4498V6.00835V5.8582L106.835 4.80715L89.5683 4.20655L74.4604 3.90625L58.2734 4.0564L38.8489 4.50685L22.1223 5.5579L15.6475 6.00835V97.4498H122.482Z" fill="#828282"/>
<path d="M120.324 97.4498V5.70805L105.216 4.80715L88.4891 4.20655L73.9208 3.90625L53.9567 4.0564L36.6906 4.50685L21.5826 5.2576L17.8057 5.70805V97.4498H120.324Z" fill="#919191"/>
<path d="M117.626 97.4498V5.5579L117.087 5.40775L99.8204 4.50685L83.0938 4.0564L73.9212 3.90625L54.4967 4.0564L38.3097 4.50685L22.6622 5.2576L21.0435 5.40775L20.5039 5.5579V97.4498H117.626Z" fill="#9E9E9E"/>
<path d="M111.691 97.4498V4.9573L96.5829 4.3567L77.698 3.90625H73.3814L56.1152 4.0564L38.8491 4.50685L26.439 4.9573H25.8994V97.4498H111.691Z" fill="#ADADAD"/>
<path d="M109.532 97.4498V4.9573L91.7262 4.20655L72.8413 3.90625L53.9564 4.0564L37.7693 4.3567L28.5967 4.9573V97.4498H109.532Z" fill="#BABABA"/>
<path d="M100.9 97.4498V4.50685H100.36L84.1729 4.0564L72.3024 3.90625L53.9571 4.0564L37.77 4.50685H37.2305V97.4498H100.9Z" fill="#C9C9C9"/>
<path d="M87.9495 97.4498V4.20655H87.4099H86.3308H84.7121L82.0142 4.0564H79.3164L76.079 3.90625H72.8416H69.0646H65.2876H62.0502L58.2732 4.0564H56.1149H53.4171L51.7984 4.20655H50.7193H50.1797V97.4498H87.9495Z" fill="#D6D6D6"/>
<path d="M71.7629 97.4498V4.20655V4.0564H70.6837L70.1442 3.90625H69.065L67.9859 4.0564H66.9068L66.3672 4.20655V97.4498H71.7629Z" fill="#E5E5E5"/>
<path d="M10.791 97.4453V145.794L12.4097 146.544L28.0572 148.196L46.4025 148.797L63.1291 149.097H80.9349L96.5824 148.647L113.849 147.896L125.719 146.544L126.798 145.794V97.4453H10.791Z" fill="#595959"/>
<path d="M13.4893 97.4453V146.394L30.2159 148.046L47.4821 148.797L63.6691 149.097H80.3957L95.5036 148.496L111.691 147.445L124.101 146.394V97.4453H13.4893Z" fill="#696969"/>
<path d="M15.6475 97.4453V146.995V147.145L31.2949 148.196L48.5611 148.947L63.669 149.097H79.8561L98.741 148.496L116.007 147.595L122.482 147.145V146.995V97.4453H15.6475Z" fill="#757575"/>
<path d="M17.8057 97.4453V147.295L32.9136 148.346L49.1006 148.947L63.669 149.097L84.1726 148.947L101.439 148.496L116.007 147.746L120.324 147.445V147.295V97.4453H17.8057Z" fill="#858585"/>
<path d="M20.5039 97.4453V147.595L38.3097 148.496L54.4967 148.947L64.2089 149.097H83.0938L99.8205 148.797L114.928 148.046L116.547 147.896L117.087 147.746V147.595V97.4453H20.5039Z" fill="#919191"/>
<path d="M25.8994 97.4453V148.046L41.5469 148.647L60.4318 149.097H64.2088L81.475 148.947L99.2807 148.496L111.691 148.046V97.4453H25.8994Z" fill="#A1A1A1"/>
<path d="M28.5967 97.4453V148.496L46.4024 148.947L64.7478 149.097H80.9348L97.6614 148.947L108.453 148.647L109.532 148.496V97.4453H28.5967Z" fill="#ADADAD"/>
<path d="M37.2305 97.4453V148.797H37.77L53.9571 149.097H62.5902H81.4751L98.2017 148.797H100.36V97.4453H37.2305Z" fill="#BDBDBD"/>
<path d="M50.1797 97.4453V148.797H50.7193H51.7984L53.4171 148.947H55.5754L58.2732 149.097H61.5106H65.2876H69.0646H72.8416H76.079H79.3164L82.0142 148.947H84.7121H86.3308L87.4099 148.797V97.4453H50.1797Z" fill="#C9C9C9"/>
<path d="M66.3672 97.4453V148.797V148.947H66.9068L67.9859 149.097H69.065H70.1442L71.2233 148.947H71.7629V148.797V97.4453H66.3672Z" fill="#D9D9D9"/>
<path d="M126.798 145.798L125.719 146.549L110.072 148.201L91.7263 148.801L80.9349 149.101H74.9997H69.0644L51.7982 148.951L32.3738 148.351L15.6471 147.149L12.4097 146.549L11.3306 146.098L10.791 145.798V7.20955L12.4097 6.4588L28.0572 4.80715L46.4025 4.20655L57.1939 4.0564L63.1291 3.90625H69.0644L86.3306 4.0564L105.755 4.657L122.482 5.8582L125.719 6.4588L126.798 6.90925V7.20955V145.798Z" stroke="black" stroke-width="0.569267"/>
<path d="M10.791 97.4453H126.798" stroke="#7F7F7F" stroke-width="0.569267"/>
<path d="M10.791 84.5312H126.798" stroke="#7F7F7F" stroke-width="0.569267"/>
<path d="M10.791 71.7734H126.798" stroke="#7F7F7F" stroke-width="0.569267"/>
<path d="M10.791 58.8594H126.798" stroke="#7F7F7F" stroke-width="0.569267"/>
<path d="M11.3311 31.3782L15.6476 30.7776L21.0433 30.4773L28.0577 30.177L36.6908 30.0269H41.5469L46.403 29.8767L51.7987 29.7266H57.1944H63.1296H75.0001H80.9354H86.3311L91.7267 29.8767L101.439 30.0269L110.072 30.177L117.086 30.4773L122.482 30.7776L127.338 31.3782" stroke="#7F7F7F" stroke-width="0.569267"/>
<path d="M10.791 45.9485L15.6471 45.3479L21.0428 45.0476L28.0572 44.7473L36.6903 44.5972L41.0068 44.447H46.4025L51.7982 44.2969H57.1939H63.1291H74.9997H80.3953H86.3306L91.7263 44.447L101.439 44.5972L110.072 44.7473L117.086 45.0476L122.482 45.3479L126.798 45.9485" stroke="#7F7F7F" stroke-width="0.569267"/>
<path d="M11.3311 20.1236L15.6476 18.7723L21.0433 18.1717L28.0577 17.7212L36.6908 17.4209L41.5469 17.2708L46.403 17.1206L51.7987 16.9705H57.1944L63.1296 16.8203H75.0001L80.9354 16.9705H86.3311L91.7267 17.1206L96.5829 17.2708L105.756 17.5711L113.849 18.0215L120.324 18.6221L124.64 19.0726L127.338 20.1236" stroke="#7F7F7F" stroke-width="0.569267"/>
<path d="M126.798 121.773L122.482 122.374L117.086 122.524L110.072 122.824L101.439 122.975L96.5824 123.125H91.7263L86.3306 123.275H80.9349H74.9997H63.1291H57.1939H51.7982L46.4025 123.125L36.6903 122.975L28.0572 122.824L21.0428 122.524L15.6471 122.374L10.791 121.773" stroke="#7F7F7F" stroke-width="0.569267"/>
<path d="M126.798 108.859L122.482 109.46L117.086 109.61L110.072 109.91L101.439 110.211H96.5824L91.7263 110.361H86.3306H80.9349H74.9997H63.1291H57.1939H51.7982H46.4025L36.6903 110.211L28.0572 109.91L21.0428 109.61L15.6471 109.46L10.791 108.859" stroke="#7F7F7F" stroke-width="0.569267"/>
<path d="M126.798 133.031L122.482 134.232L117.086 134.833L110.072 135.284L101.439 135.584L96.5824 135.734L91.7263 135.884L86.3306 136.034L80.9349 136.184H74.9997H63.1291H57.1939L51.7982 136.034L46.4025 135.884L41.5464 135.734L32.3738 135.434L24.2802 134.983L18.345 134.533L13.4889 133.932L10.791 133.031" stroke="#7F7F7F" stroke-width="0.569267"/>
<path d="M69.0645 3.90625V149.101" stroke="white" stroke-width="0.569267"/>
<path d="M10.791 7.95784L12.4097 7.35724L18.345 6.45634L24.2802 6.00589L32.3738 5.55544L41.5464 5.25514L46.4025 5.10499L51.7982 4.95484L57.1939 4.80469H63.1291H74.9997H80.9349L86.3306 4.95484L91.7263 5.10499L96.5824 5.25514L105.755 5.55544L113.849 6.00589L119.784 6.45634L124.1 7.05694L125.719 7.35724L126.798 7.95784" stroke="black" stroke-width="0.569267"/>
<path d="M10.791 8.85799L12.4097 8.10724L18.345 7.35649L24.2802 6.75589L32.3738 6.30544L41.5464 6.00514L46.4025 5.85499L51.7982 5.70484H57.1939L63.1291 5.55469H74.9997L80.9349 5.70484H86.3306L91.7263 5.85499L96.5824 6.00514L105.755 6.30544L113.849 6.75589L119.784 7.35649L124.1 7.80694L125.719 8.10724L126.798 8.85799" stroke="black" stroke-width="0.569267"/>
<path d="M31.2949 6.30469H33.9928V148.347H31.2949V6.30469Z" fill="#E5E5E5"/>
<path d="M5.39551 7.96094H8.09335V146.7H5.39551V7.96094Z" fill="#E5E5E5"/>
<path d="M2.69824 7.96094H5.39608V146.7H2.69824V7.96094Z" fill="#666666"/>
<path d="M28.5967 6.30469H31.2945V148.347H28.5967V6.30469Z" fill="#666666"/>
<path d="M10.791 4.0533L12.4097 3.30255L18.345 2.40165L24.2802 1.9512L32.3738 1.50075L41.5464 1.20045L46.4025 1.0503L51.7982 0.90015L57.1939 0.75H63.1291H74.9997H80.9349L86.3306 0.90015L91.7263 1.0503L96.5824 1.20045L105.755 1.50075L113.849 1.9512L119.784 2.40165L124.1 3.00225L125.719 3.30255L126.798 4.0533" stroke="#FFCC00" stroke-width="0.569267"/>
<path d="M10.791 5.5594L12.4097 4.9588L18.345 4.0579L24.2802 3.60745L32.3738 3.00685L41.5464 2.70655L46.4025 2.5564H51.7982L57.1939 2.40625H63.1291H74.9997H80.9349L86.3306 2.5564H91.7263L96.5824 2.70655L105.755 3.00685L113.849 3.60745L119.784 4.0579L124.1 4.6585L125.719 4.9588L126.798 5.5594" stroke="#FFCC00" stroke-width="0.569267"/>
<path d="M11.3311 7.20955V3.90625" stroke="#FFCC00" stroke-width="0.569267"/>
<path d="M127.338 3.90625V7.20955" stroke="#FFCC00" stroke-width="0.569267"/>
<path d="M28.5967 4.8033V1.5" stroke="#FFCC00" stroke-width="0.569267"/>
<path d="M106.835 4.8033V1.5" stroke="#FFCC00" stroke-width="0.569267"/>
<path d="M49.1006 4.0533V0.75" stroke="#FFCC00" stroke-width="0.569267"/>
<path d="M89.5684 3.90315V0.75" stroke="#FFCC00" stroke-width="0.569267"/>
<path d="M69.0645 3.90315V0.75" stroke="#FFCC00" stroke-width="0.569267"/>
<path d="M132.733 8.10938H135.971V146.698H132.733V8.10938Z" fill="#B2B2B2"/>
<path d="M144.604 7.96094H147.302V146.7H144.604V7.96094Z" fill="#B2B2B2"/>
<path d="M135.432 8.86184V7.96094H144.604V8.86184H135.432Z" fill="#B2B2B2"/>
<path d="M135.432 16.2195V15.4688H144.604V16.2195H135.432Z" fill="#B2B2B2"/>
<path d="M135.432 23.5711V22.8203H144.604V23.5711H135.432Z" fill="#B2B2B2"/>
<path d="M135.432 30.9304V30.1797H144.604V30.9304H135.432Z" fill="#B2B2B2"/>
<path d="M135.432 38.44V37.5391H144.604V38.44H135.432Z" fill="#B2B2B2"/>
<path d="M135.432 45.7993V44.8984H144.604V45.7993H135.432Z" fill="#B2B2B2"/>
<path d="M135.432 53.1509V52.25H144.604V53.1509H135.432Z" fill="#B2B2B2"/>
<path d="M135.432 60.5103V59.6094H144.604V60.5103H135.432Z" fill="#B2B2B2"/>
<path d="M135.432 67.8679V67.1172H144.604V67.8679H135.432Z" fill="#B2B2B2"/>
<path d="M135.432 75.2273V74.4766H144.604V75.2273H135.432Z" fill="#B2B2B2"/>
<path d="M135.432 82.5789V81.8281H144.604V82.5789H135.432Z" fill="#B2B2B2"/>
<path d="M135.432 90.0884V89.1875H144.604V90.0884H135.432Z" fill="#B2B2B2"/>
<path d="M135.432 97.4478V96.5469H144.604V97.4478H135.432Z" fill="#B2B2B2"/>
<path d="M135.432 104.807V103.906H144.604V104.807H135.432Z" fill="#B2B2B2"/>
<path d="M135.432 112.159V111.258H144.604V112.159H135.432Z" fill="#B2B2B2"/>
<path d="M135.432 119.516V118.766H144.604V119.516H135.432Z" fill="#B2B2B2"/>
<path d="M135.432 126.876V126.125H144.604V126.876H135.432Z" fill="#B2B2B2"/>
<path d="M135.432 134.235V133.484H144.604V134.235H135.432Z" fill="#B2B2B2"/>
<path d="M135.432 141.745V140.844H144.604V141.745H135.432Z" fill="#B2B2B2"/>
</svg>
