<svg width="150" height="150" viewBox="0 0 150 150" fill="none" xmlns="http://www.w3.org/2000/svg">
<g clip-path="url(#clip0_2109_243332)">
<path d="M31.3848 144.297H118.385V150.003H31.3848V144.297Z" fill="#7F7F7F"/>
<path d="M37.6152 144.297H95.5383V150.003H37.6152V144.297Z" fill="#B2B2B2"/>
<path d="M43.3848 144.297H78.6925V150.003H43.3848V144.297Z" fill="#CCCCCC"/>
<path d="M48.6924 144.297H63.4616V150.003H48.6924V144.297Z" fill="#E5E5E5"/>
<path d="M31.3848 144.297H118.385V150.003H31.3848V144.297Z" stroke="black" stroke-width="0.37229"/>
<path d="M46.8462 1.5H103.615L107.538 11.7102H42L46.8462 1.5Z" fill="#0000BF"/>
<path d="M48.2307 1.5H97.3845L100.846 11.7102H44.3076L48.2307 1.5Z" fill="#0000C9"/>
<path d="M49.1543 1.5H91.1543L94.1543 11.7102H46.1543L49.1543 1.5Z" fill="#0D0DD1"/>
<path d="M50.5382 1.5H84.9228L87.4612 11.7102H48.2305L50.5382 1.5Z" fill="#3333DB"/>
<path d="M51.9233 1.5H78.6925L80.7695 11.7102H50.0771L51.9233 1.5Z" fill="#5959E3"/>
<path d="M53.3075 1.5H72.6921L73.6152 11.7102H51.9229L53.3075 1.5Z" fill="#7F7FED"/>
<path d="M54.9231 1.5H66.2308L66.9231 11.7102H54L54.9231 1.5Z" fill="#A6A6F5"/>
<path d="M55.8457 1.5H60.2303V11.7102H55.8457V1.5Z" fill="#CCCCFF"/>
<path d="M46.8462 1.5H103.615L107.538 11.7102H42L46.8462 1.5Z" stroke="black" stroke-width="0.37229"/>
<path d="M53.3077 9.60938H96.4615L117 11.7115L134.308 17.1169L145.846 25.0748L150 35.1349V122.222L145.846 131.832L134.308 139.94L117 145.195L96.4615 147.447H53.3077L32.3077 145.195L15.6923 139.94L4.15385 131.832L0 122.222V35.1349L4.15385 25.0748L15.6923 17.1169L32.3077 11.7115L53.3077 9.60938Z" fill="#0000BF"/>
<path d="M51.9234 9.90625H91.6157L110.77 11.7081L127.154 17.1135L137.77 25.0714L141.462 35.1315V121.918L137.77 131.828L127.154 139.936L110.77 145.192L91.6157 147.143H51.9234L32.7695 145.192L17.0772 139.636L6.69261 131.528L2.76953 121.918V35.1315L6.69261 25.0714L17.0772 17.2636L32.7695 11.7081L51.9234 9.90625Z" fill="#0000C4"/>
<path d="M51.0002 9.90625H86.7695L104.539 11.7081L119.308 17.2636L129.462 25.5219L132.923 35.1315V121.918L129.462 131.528L119.308 139.636L104.539 145.192L86.7695 147.143H51.0002L33.4618 144.891L18.4618 139.636L9.00023 131.528L5.07715 121.618V35.4318L9.00023 25.5219L18.4618 17.2636L33.4618 12.0084L51.0002 9.90625Z" fill="#0000CC"/>
<path d="M49.6156 10.2066L82.1541 9.90625L98.7694 12.0084L112.154 17.2636L120.923 25.5219L124.154 35.4318V121.918L120.923 131.528L112.154 139.636L98.7694 145.192L82.1541 147.143L49.6156 146.843L33.4618 144.591L19.8464 139.336L11.3079 131.228L8.07715 121.618V35.4318L11.3079 25.5219L19.8464 17.7141L33.4618 12.0084L49.6156 10.2066Z" fill="#0A0AD1"/>
<path d="M48.2303 10.2109H77.7688L92.538 12.0127L104.538 17.268L112.846 25.5263L116.076 35.4362V121.923L112.846 131.532L104.538 139.64L92.538 144.896L77.7688 147.148L48.2303 146.547L33.9226 144.595L21.9226 139.04L13.8457 131.232L10.8457 121.322V35.7365L13.8457 25.6764L21.9226 17.7184L33.9226 12.313L48.2303 10.2109Z" fill="#2121D6"/>
<path d="M47.3072 10.5112L72.9226 10.2109L86.538 12.0127L96.9226 17.7184L104.538 25.5263L107.538 35.4362V121.622L104.538 131.532L96.9226 139.64L86.538 144.896L72.9226 147.148L47.3072 146.547L33.9226 144.295L23.3072 139.04L16.1534 130.932L13.8457 121.322V35.7365L16.1534 25.6764L23.3072 18.0187L33.9226 12.313L47.3072 10.5112Z" fill="#3838DB"/>
<path d="M45.9235 10.5112L68.3081 10.2109L80.3081 12.313L89.7697 17.7184L96.462 25.6764L98.7697 35.4362V121.622L96.462 131.232L89.7697 139.34L80.3081 144.896L68.3081 146.848L45.9235 146.097L34.3851 144.295L24.6928 138.739L18.462 130.631L16.1543 121.022V36.0368L18.462 26.1269L24.6928 18.0187L34.3851 12.7635L45.9235 10.5112Z" fill="#5454E3"/>
<path d="M44.769 10.8115L63.4613 10.2109L74.0767 12.313L82.1536 17.7184L87.9229 25.6764L90.2305 35.7365V121.622L87.9229 131.232L82.1536 139.34L74.0767 144.595L63.4613 146.848L44.769 146.097L34.8459 143.995L26.3075 138.739L20.9998 130.631L18.9229 120.571V36.0368L20.9998 26.1269L26.3075 18.319L34.8459 12.7635L44.769 10.8115Z" fill="#6B6BE8"/>
<path d="M43.3844 11.1084L58.8459 10.5078L67.8459 12.3096L74.9998 18.0153L79.8459 25.673L81.6921 35.733V121.319L79.8459 131.229L74.9998 139.337L67.8459 144.592L58.8459 146.844L43.3844 145.793L34.8459 143.691L28.1536 138.436L23.3075 130.328L21.9229 120.568V36.3336L23.3075 26.2736L28.1536 18.3156L34.8459 12.9102L43.3844 11.1084Z" fill="#8282ED"/>
<path d="M42.4616 11.1084L54.4616 10.5078L61.6155 12.3096L67.8462 18.0153L71.7693 26.1234L72.9232 35.733V121.319L71.7693 131.229L67.8462 139.337L61.6155 144.592L54.4616 146.844L42.4616 145.493L35.3078 143.691L29.5385 137.985L25.6155 130.328L24.6924 120.418V36.3336L25.6155 26.2736L29.5385 18.6159L35.3078 12.9102L42.4616 11.1084Z" fill="#9999F2"/>
<path d="M41.0766 11.1084L49.6151 10.5078L55.3843 12.7601L60.2305 18.0153L63.4612 26.1234L64.8459 36.0333V121.319L63.4612 131.229L60.2305 139.036L55.3843 144.592L49.6151 146.544L41.0766 145.493L35.3074 143.391L30.9228 137.985L28.1535 130.027L27.2305 119.967V36.6339L28.1535 26.724L30.9228 18.6159L35.3074 13.3607L41.0766 11.1084Z" fill="#B5B5FA"/>
<path d="M39.4615 11.4131L44.7692 10.8125L49.1538 12.7645L52.3846 18.0197L55.3846 26.1278L55.8462 36.0377V121.323L55.3846 130.933L52.3846 139.041L49.1538 144.596L44.7692 146.548L39.4615 145.197L35.7692 143.395L32.3077 137.84L30.4615 129.581L30 119.972V36.6383L30.4615 27.0287L32.3077 18.9206L35.7692 13.3651L39.4615 11.4131Z" fill="#CCCCFF"/>
<path d="M53.3077 9.60938H96.4615L117 11.7115L134.308 17.1169L145.846 25.0748L150 35.1349V122.222L145.846 131.832L134.308 139.94L117 145.195L96.4615 147.447H53.3077L32.3077 145.195L15.6923 139.94L4.15385 131.832L0 122.222V35.1349L4.15385 25.0748L15.6923 17.1169L32.3077 11.7115L53.3077 9.60938Z" stroke="black" stroke-width="0.37229"/>
<path d="M38.5381 0H111.23V1.5015H38.5381V0Z" fill="#7F7F7F"/>
<path d="M43.8457 0H92.3072V1.5015H43.8457V0Z" fill="#B2B2B2"/>
<path d="M48.6924 0H77.7693V1.5015H48.6924V0Z" fill="#CCCCCC"/>
<path d="M53.0771 0H65.3079V1.5015H53.0771V0Z" fill="#E5E5E5"/>
<path d="M38.5381 0H111.23V1.5015H38.5381V0Z" stroke="black" stroke-width="0.37229"/>
</g>
<defs>
<clipPath id="clip0_2109_243332">
<rect width="150" height="150" fill="white"/>
</clipPath>
</defs>
</svg>
