<svg width="150" height="150" viewBox="0 0 150 150" fill="none" xmlns="http://www.w3.org/2000/svg">
<g clip-path="url(#clip0_2109_246371)">
<path d="M72.6465 101.648H77.1485V143.09H72.6465V101.648Z" fill="#990000" stroke="black" stroke-width="0.35058"/>
<path d="M4.50195 134.381L9.20864 132.579L18.622 131.078L31.7189 129.877L47.6807 128.976L65.6889 128.375H84.1063L102.115 128.976L118.076 129.877L131.582 131.078L140.587 132.579L145.498 134.381V137.834L140.587 136.183L131.582 134.681L118.076 133.18L102.115 132.579L84.1063 131.828H65.6889L47.6807 132.579L31.7189 133.18L18.622 134.681L9.20864 136.183L4.50195 137.834V134.381Z" fill="#990000" stroke="black" stroke-width="0.35058"/>
<path d="M0 8.55502V63.8103L61.1869 101.648H88.6085L150 63.8103V8.55502L143.042 5.10156H6.34379L0 8.55502Z" fill="#CCCCCC"/>
<path d="M6.34375 8.55502V63.8103L62.4147 101.648H87.3806L143.861 63.8103V8.55502L137.312 5.10156H12.4829L6.34375 8.55502Z" fill="#D1D1D1"/>
<path d="M12.8926 8.55502V63.8103L63.6429 101.648H86.5624L137.313 63.8103V8.55502L131.583 5.10156H18.2132L12.8926 8.55502Z" fill="#D6D6D6"/>
<path d="M19.4404 8.55502V63.8103L64.8702 101.648H85.334L130.764 63.8103V8.55502L125.443 5.10156H24.5564L19.4404 8.55502Z" fill="#D9D9D9"/>
<path d="M25.5801 8.55502L25.9894 63.8103L66.0985 101.648H84.1067L124.216 63.8103V8.55502L119.714 5.10156H30.0821L25.5801 8.55502Z" fill="#DEDEDE"/>
<path d="M32.5371 8.55502V63.8103L67.3257 101.648H82.8782L117.667 63.8103V8.55502L113.574 5.10156H36.2206L32.5371 8.55502Z" fill="#E3E3E3"/>
<path d="M39.0859 8.55502V63.8103L68.5539 101.648H81.6507L111.119 63.8103V8.55502L107.844 5.10156H42.3602L39.0859 8.55502Z" fill="#E8E8E8"/>
<path d="M45.2246 8.55502L45.6339 63.8103L69.7812 101.648H80.4224L104.57 63.8103V8.55502L102.114 5.10156H48.0895L45.2246 8.55502Z" fill="#EDEDED"/>
<path d="M51.7734 8.55502V63.8103L71.0095 101.648H79.195L98.0217 63.8103V8.55502L95.9753 5.10156H53.8198L51.7734 8.55502Z" fill="#F2F2F2"/>
<path d="M58.3223 8.55502V63.8103L72.2377 101.648H77.9676L91.883 63.8103V8.55502L90.2459 5.10156H59.9594L58.3223 8.55502Z" fill="#F5F5F5"/>
<path d="M64.8701 8.55502V63.8103L73.0557 101.648H77.1484L85.334 63.8103V8.55502L84.1061 5.10156H66.0979L64.8701 8.55502Z" fill="#FAFAFA"/>
<path d="M71.4189 8.55502V63.8103L74.2839 101.648H75.5117L78.7859 63.8103V8.55502L78.3767 5.10156H71.8282L71.4189 8.55502Z" fill="white"/>
<path d="M0 8.55502V63.8103L61.1869 101.648H88.6085L150 63.8103V8.55502L143.042 5.10156H6.34379L0 8.55502Z" stroke="black" stroke-width="0.35058"/>
<path d="M20.4639 3.45312H129.536V5.10478H20.4639V3.45312Z" fill="#CCCCCC" stroke="black" stroke-width="0.35058"/>
<path d="M30.4912 3.45024H119.304V1.64844H30.4912V3.45024Z" fill="#333333" stroke="black" stroke-width="0.35058"/>
<path d="M64.4609 1.65165H84.9248V0H64.4609V1.65165Z" fill="#333333" stroke="black" stroke-width="0.35058"/>
<path d="M4.50195 60.2109H8.79936V150.001H4.50195V60.2109Z" fill="#BF2600" stroke="black" stroke-width="0.35058"/>
<path d="M140.996 60.2109H145.498V150.001H140.996V60.2109Z" fill="#BF2600" stroke="black" stroke-width="0.35058"/>
<path d="M145.498 137.836L140.587 139.638L131.173 141.29L118.076 142.491L102.115 143.392L84.1063 143.842H65.6889L47.6807 143.392L31.7189 142.491L18.622 141.29L9.20864 139.638L4.50195 137.836V134.383L9.20864 136.185L18.622 137.836L31.7189 139.188L47.6807 140.089L65.6889 140.389H84.1063L102.115 140.089L118.076 139.188L131.173 137.836L140.587 136.185L145.498 134.383V137.836Z" fill="#BF2600" stroke="black" stroke-width="0.35058"/>
<path d="M140.587 68.0156V71.6192H8.7998V68.0156H140.587Z" fill="#BF2600" stroke="black" stroke-width="0.35058"/>
</g>
<defs>
<clipPath id="clip0_2109_246371">
<rect width="150" height="150" fill="white"/>
</clipPath>
</defs>
</svg>
