<svg width="150" height="150" viewBox="0 0 150 150" fill="none" xmlns="http://www.w3.org/2000/svg">
<g clip-path="url(#clip0_2109_244403)">
<path d="M23.2959 7.03906H127.273V9.27787H23.2959V7.03906Z" fill="#FFFF00" stroke="black" stroke-width="0.852576"/>
<path d="M27.2725 11.8359H123.295V14.0747H27.2725V11.8359Z" fill="#FFFF00" stroke="black" stroke-width="0.852576"/>
<path d="M27.2725 12.7969H123.295V14.0762H27.2725V12.7969Z" fill="#CCCC33"/>
<path d="M23.2959 8.3125H127.273V9.27199H23.2959V8.3125Z" fill="#CCCC33"/>
<path d="M87.5 15.3552V9.27844L93.75 2.24219H100L93.75 9.27844V15.3552H87.5Z" fill="#FFFF00"/>
<path d="M62.5 15.3552V9.27844L56.25 2.24219H50L56.25 9.27844V15.3552H62.5Z" fill="#FFFF00"/>
<path d="M128.409 15.3516H22.1591L17.0455 16.6309L13.0682 17.9102L9.09091 19.5093L6.25 21.1085L3.40909 22.7076L1.70455 24.6266L0.568182 26.2258L0 28.1447V150H150V28.1447L149.432 26.2258L148.295 24.6266L146.591 22.7076L144.318 21.1085L141.477 19.5093L137.5 17.9102L133.523 16.6309L128.409 15.3516Z" fill="#7F7F7F"/>
<path d="M122.727 15.3516H27.8405L23.295 16.6309L19.3177 17.9102L15.9086 19.5093L13.0677 21.1085L10.795 22.7076L9.09047 24.6266L8.52228 26.2258L7.9541 28.1447V150H142.613V28.1447L142.045 26.2258L141.477 24.6266L139.772 22.7076L137.5 21.1085L134.659 19.5093L131.25 17.9102L127.272 16.6309L122.727 15.3516Z" fill="#999999"/>
<path d="M113.636 15.3516H36.3632L32.9541 16.6309L29.545 17.9102L27.2723 19.5093L24.9996 21.1085L22.7268 22.7076L21.5905 24.6266L21.0223 26.2258L20.4541 28.1447V150H130.113V28.1447L129.545 26.2258L128.977 24.6266L127.84 22.7076L125.568 21.1085L123.295 19.5093L120.454 17.9102L117.045 16.6309L113.636 15.3516Z" fill="#B2B2B2"/>
<path d="M101.705 15.3516H48.8636L46.5909 16.6309L44.3182 17.9102L42.0455 19.5093L40.9091 21.1085L39.2045 22.7076L38.0682 24.6266L37.5 26.2258V28.1447V150H112.5V28.1447V26.2258L111.932 24.6266L110.795 22.7076L109.659 21.1085L107.955 19.5093L106.25 17.9102L103.977 16.6309L101.705 15.3516Z" fill="#CCCCCC"/>
<path d="M88.6364 15.3516H61.9318L60.7955 16.6309L59.6591 17.9102L58.5227 19.5093L57.9545 21.1085L57.3864 22.7076L56.8182 24.6266L56.25 26.2258V28.1447V150H93.75V28.1447V26.2258L93.1818 24.6266V22.7076L92.6136 21.1085L91.4773 19.5093L90.9091 17.9102L89.7727 16.6309L88.6364 15.3516Z" fill="#E5E5E5"/>
<path d="M79.5455 15.3516H71.0227L70.4545 16.6309V17.9102L69.8864 19.5093L69.3182 21.1085V22.7076L68.75 24.6266V26.2258V28.1447V150H81.25V28.1447V26.2258V24.6266V22.7076L80.6818 21.1085V19.5093L80.1136 17.9102V16.6309L79.5455 15.3516Z" fill="white"/>
<path d="M128.409 15.3516H22.1591L17.0455 16.6309L13.0682 17.9102L9.09091 19.5093L6.25 21.1085L3.40909 22.7076L1.70455 24.6266L0.568182 26.2258L0 28.1447V150H150V28.1447L149.432 26.2258L148.295 24.6266L146.591 22.7076L144.318 21.1085L141.477 19.5093L137.5 17.9102L133.523 16.6309L128.409 15.3516Z" stroke="black" stroke-width="0.852576"/>
<path d="M19.8861 18.2266H14.7725V149.996H19.8861V18.2266Z" fill="#7F7F7F"/>
<path d="M40.3407 149.996V143.6H18.1816V141.681H40.3407V135.284H18.1816V133.365H40.3407V126.969H18.1816V125.05H40.3407V118.653H18.1816V116.414H40.3407V110.337H18.1816V108.099H40.3407V102.022H18.1816V99.7831H40.3407V93.7063H18.1816V91.4675H40.3407V85.0709H18.1816V83.1519H40.3407V76.7553H18.1816V74.8364H40.3407V68.4398H18.1816V66.5208H40.3407V60.1242H18.1816V58.2052H40.3407V51.8087H18.1816V49.5698H40.3407V43.4931H18.1816V41.2543H40.3407V35.1775H18.1816V32.9387H40.3407V26.5421H18.1816V24.6232H40.3407V18.2266H46.0225V149.996H40.3407Z" fill="#7F7F7F"/>
<path d="M14.2045 15.3516H9.09082V146.801H14.2045V15.3516Z" fill="#FFFF00" stroke="black" stroke-width="0.852576"/>
<path d="M34.6591 146.801V140.725H12.5V138.486H34.6591V132.089H12.5V130.17H34.6591V123.774H12.5V121.855H34.6591V115.458H12.5V113.539H34.6591V107.143H12.5V105.224H34.6591V98.827H12.5V96.5882H34.6591V90.5115H12.5V88.2727H34.6591V82.1959H12.5V79.9571H34.6591V73.8803H12.5V71.6415H34.6591V65.2449H12.5V63.326H34.6591V56.9294H12.5V55.0104H34.6591V48.6138H12.5V46.6948H34.6591V40.2983H12.5V38.3793H34.6591V31.9827H12.5V29.7439H34.6591V23.6671H12.5V21.4283H34.6591V15.3516H40.3409V146.801H34.6591Z" fill="#FFFF00" stroke="black" stroke-width="0.852576"/>
<path d="M89.7727 15.3552V9.27844L96.0227 2.24219H93.75L87.5 9.27844V15.3552H89.7727Z" fill="#CCCC33"/>
<path d="M60.7959 15.3552V9.27844L54.5459 2.24219H56.2504L62.5004 9.27844V15.3552H60.7959Z" fill="#CCCC33"/>
<path d="M131.25 2.23881H18.7497L29.5452 9.27505V15.3518H23.2952V9.27505L8.52246 0H142.045L127.272 9.27505V15.3518H121.022V9.27505L131.25 2.23881Z" fill="#FFFF00" stroke="black" stroke-width="0.852576"/>
<path d="M27.2725 15.3537V9.27699L14.7725 1.28125H139.772L127.272 9.27699V15.3537H125V9.27699L135.795 2.24074H18.7497L29.5452 9.27699V15.3537H27.2725Z" fill="#CCCC33"/>
<path d="M87.5 15.3552V9.27844L93.75 2.24219H100L93.75 9.27844V15.3552H87.5Z" stroke="black" stroke-width="0.852576"/>
<path d="M62.5 15.3552V9.27844L56.25 2.24219H50L56.25 9.27844V15.3552H62.5Z" stroke="black" stroke-width="0.852576"/>
</g>
<defs>
<clipPath id="clip0_2109_244403">
<rect width="150" height="150" fill="white"/>
</clipPath>
</defs>
</svg>
