<svg width="150" height="150" viewBox="0 0 150 150" fill="none" xmlns="http://www.w3.org/2000/svg">
<g clip-path="url(#clip0_2109_243679)">
<path d="M122.102 100.453H127.834V148.351H122.102V100.453Z" fill="#003333" stroke="black" stroke-width="0.338769"/>
<path d="M90 100.453H96.1146V146.699H90V100.453Z" fill="#003333" stroke="black" stroke-width="0.338769"/>
<path d="M31.9111 100.453H38.0258V146.699H31.9111V100.453Z" fill="#003333" stroke="black" stroke-width="0.338769"/>
<path d="M0 100.453H6.11465V148.351H0V100.453Z" fill="#003333" stroke="black" stroke-width="0.338769"/>
<path d="M127.834 134.233L96.1147 130.93H31.9108L0 134.233V137.386L31.9108 134.984H96.1147L127.834 137.386V134.233Z" fill="#003333" stroke="black" stroke-width="0.338769"/>
<path d="M2.10156 101.352H4.01239V147.448H2.10156V101.352Z" fill="#336666"/>
<path d="M124.013 101.352H125.924V147.448H124.013V101.352Z" fill="#336666"/>
<path d="M127.834 100.454L121.72 102.556L109.873 104.057L93.4395 105.258L73.949 105.859H53.6943L34.586 105.258L18.1529 104.057L6.49682 102.556L0 100.454V20.2735L6.49682 16.3696L18.1529 13.0663L34.586 10.6639L53.6943 9.3125H73.949L93.4395 10.6639L109.873 13.0663L121.72 16.3696L127.834 20.2735V100.454Z" fill="#336666"/>
<path d="M124.012 101.351L91.9104 105.255L73.9487 105.856H54.8404L36.8786 105.255L4.96777 101.351V19.9697L10.8913 16.0658L21.592 13.0628L36.8786 10.6604L54.8404 9.60938H73.9487L91.9104 10.6604L107.197 13.0628L118.28 16.0658L124.012 19.9697V101.351Z" fill="#3B6E6E"/>
<path d="M119.427 102.853L89.6181 105.255L73.1849 105.856H55.6053L39.1722 105.255L9.36328 102.853V19.9697L14.9047 16.0658L25.2232 13.0628L39.1722 10.6604L55.6053 9.60938H73.1849L89.6181 10.6604L103.758 13.0628L114.077 16.0658L119.427 19.9697V102.853Z" fill="#427575"/>
<path d="M115.222 103.153L87.7065 105.255L72.4199 105.856H56.369L41.0823 105.255L13.9486 103.153L13.5664 19.9697L18.5346 16.0658L28.0887 13.0628L41.0823 10.6604L56.369 9.60938H72.4199L87.7065 10.6604L100.7 13.0628L109.872 16.0658L115.222 19.9697V103.153Z" fill="#4A7D7D"/>
<path d="M110.637 103.754L85.7966 105.255L71.6565 105.856H57.1342L42.9941 105.255L18.1533 103.754V19.9697L22.7393 16.0658L31.5291 13.0628L42.9941 10.6604L57.1342 9.60938H71.6565L85.7966 10.6604L97.2616 13.0628L106.051 16.0658L110.637 19.9697V103.754Z" fill="#528585"/>
<path d="M106.051 103.754L83.5036 105.255L70.8921 105.856H57.8985L45.287 105.255L22.7393 103.754V19.9697L26.9431 16.0658L34.5864 13.0628L45.287 10.6604L57.8985 9.60938H70.8921L83.5036 10.6604L94.2042 13.0628L102.23 16.0658L106.051 19.9697V103.754Z" fill="#598C8C"/>
<path d="M101.847 104.654L81.5927 105.255L70.1277 105.856H58.2806L47.1978 105.255L27.3252 104.654V19.9697L30.7647 16.0658L37.6437 13.0628L47.1978 10.6604L58.6628 9.60938H70.1277L81.5927 10.6604L91.1469 13.0628L98.0258 16.0658L101.847 19.9697V104.654Z" fill="#619494"/>
<path d="M97.2608 104.955L79.299 105.255L69.7449 105.856H59.0442L49.4901 105.255L31.5283 104.955V19.9697L34.9678 16.0658L41.0825 13.0628L49.4901 10.6604L59.0442 9.60938H69.7449L79.299 10.6604L88.0888 13.0628L93.8213 16.0658L97.2608 19.9697V104.955Z" fill="#6B9E9E"/>
<path d="M92.6748 105.255L68.9805 105.856H59.8085L36.1143 105.255V19.9697L38.7894 16.0658L44.1397 13.0628L51.4009 10.6604L59.8085 9.60938H68.9805L77.3881 10.6604L84.6493 13.0628L89.9996 16.0658L92.6748 19.9697V105.255Z" fill="#73A6A6"/>
<path d="M88.4709 105.255L68.2161 105.856H60.5728L40.7002 105.255V19.9697L42.9932 16.0658L47.197 13.0628L53.3117 10.6604L60.5728 9.60938H68.2161L75.4773 10.6604L81.5919 13.0628L85.7957 16.0658L88.4709 19.9697V105.255Z" fill="#7AADAD"/>
<path d="M83.8852 105.555L67.4521 105.856H61.3374L44.9043 105.555V19.9697L46.8151 16.0658L50.6368 13.0628L55.6049 10.6604L61.3374 9.60938H67.4521L73.1846 10.6604L78.1527 13.0628L81.9744 16.0658L83.8852 19.9697V105.555Z" fill="#82B5B5"/>
<path d="M79.2992 105.555L66.6877 105.856H62.1017L49.4902 105.555V19.9697L51.0189 16.0658L53.6941 13.0628L57.5157 10.6604L62.1017 9.60938H66.6877L71.2737 10.6604L75.0953 13.0628L77.7705 16.0658L79.2992 19.9697V105.555Z" fill="#8ABDBD"/>
<path d="M75.0953 105.255L65.9233 105.856H62.866L54.0762 105.255V19.9697L54.8405 16.0658L56.7513 13.0628L59.4265 10.6604L62.866 9.60938H65.9233L69.3628 10.6604L72.038 13.0628L73.9488 16.0658L75.0953 19.9697V105.255Z" fill="#91C4C4"/>
<path d="M70.1277 105.555L64.7774 105.855H62.8666L57.8984 105.555V22.3716L58.6628 18.6178L59.8093 15.3145L61.3379 12.9121L62.8666 11.7109H64.7774L66.6882 12.9121L68.2169 15.3145L69.3634 18.6178L70.1277 22.3716V105.555Z" fill="#99CCCC"/>
<path d="M127.834 100.454L121.72 102.556L109.873 104.057L93.4395 105.258L73.949 105.859H53.6943L34.586 105.258L18.1529 104.057L6.49682 102.556L0 100.454V20.2735L6.49682 16.3696L18.1529 13.0663L34.586 10.6639L53.6943 9.3125H73.949L93.4395 10.6639L109.873 13.0663L121.72 16.3696L127.834 20.2735V100.454Z" stroke="black" stroke-width="0.338769"/>
<path d="M127.834 22.9766L121.72 24.7784L109.873 26.2799L93.4395 27.4811L73.949 28.0817H53.6943L34.586 27.4811L18.1529 26.2799L6.49682 24.7784L0 22.9766" stroke="#336666" stroke-width="0.338769"/>
<path d="M88.0894 19.3672L84.2677 21.7696L77.7709 23.5714L68.5989 24.4723H59.0448L50.255 23.5714L43.7582 21.7696L39.9365 19.3672V22.3702L43.7582 24.7726L50.255 26.2741L59.0448 27.4753H68.5989L77.7709 26.2741L84.2677 24.7726L88.0894 22.3702V19.3672Z" fill="#336666" stroke="black" stroke-width="0.338769"/>
<path d="M64.013 24.9242C77.31 24.9242 88.0894 21.9663 88.0894 18.3175C88.0894 14.6688 77.31 11.7109 64.013 11.7109C50.7159 11.7109 39.9365 14.6688 39.9365 18.3175C39.9365 21.9663 50.7159 24.9242 64.013 24.9242Z" fill="#669999" stroke="black" stroke-width="0.338769"/>
<path d="M20.0635 104.352H25.796V149.997H20.0635V104.352Z" fill="#336666" stroke="black" stroke-width="0.338769"/>
<path d="M101.848 104.352H107.962V149.997H101.848V104.352Z" fill="#336666" stroke="black" stroke-width="0.338769"/>
<path d="M103.758 105.859H106.051V148.352H103.758V105.859Z" fill="#669999"/>
<path d="M21.9746 105.859H23.8854V148.352H21.9746V105.859Z" fill="#669999"/>
<path d="M0 137.388L15.8599 140.541H112.166L127.834 137.388V134.234L112.166 136.487H15.8599L0 134.234V137.388Z" fill="#336666" stroke="black" stroke-width="0.338769"/>
<path d="M57.8984 0H70.1277V10.0601H57.8984V0Z" fill="#003333"/>
<path d="M59.0449 0H68.9812V9.30931H59.0449V0Z" fill="#1F5252"/>
<path d="M59.8086 0H68.2162V9.30931H59.8086V0Z" fill="#3D7070"/>
<path d="M60.9551 0H67.0697V9.30931H60.9551V0Z" fill="#5C8F8F"/>
<path d="M62.1016 0H65.9232V9.30931H62.1016V0Z" fill="#7AADAD"/>
<path d="M62.8662 0H65.1592V9.30931H62.8662V0Z" fill="#99CCCC"/>
<path d="M57.8984 0H70.1277V9.30931H57.8984V0Z" stroke="black" stroke-width="0.338769"/>
<path d="M145.796 145.947V58.1088L119.809 22.6734L123.63 21.1719L150 57.2079V145.947H145.796Z" fill="#7F7F7F" stroke="black" stroke-width="0.338769"/>
<path d="M136.242 68.0196L147.707 65.6172L148.471 67.1187L136.624 69.5211L136.242 68.0196Z" fill="#7F7F7F"/>
<path d="M136.242 87.2383L147.707 84.8359L148.471 86.3374L136.624 88.7398L136.242 87.2383Z" fill="#7F7F7F"/>
<path d="M136.242 105.254L147.707 102.852L148.471 104.353L136.624 106.755L136.242 105.254Z" fill="#7F7F7F"/>
<path d="M136.242 123.271L147.707 120.719L148.471 122.37L136.624 124.773L136.242 123.271Z" fill="#7F7F7F"/>
<path d="M136.242 123.271L147.707 120.719L147.325 119.367L135.478 121.77L136.242 123.271Z" fill="#B2B2B2"/>
<path d="M136.242 68.0167L147.707 65.6143L147.325 63.8125L135.478 66.2149L136.242 68.0167Z" fill="#B2B2B2"/>
<path d="M136.242 87.2398L147.707 84.8374L147.325 83.3359L135.478 85.7383L136.242 87.2398Z" fill="#B2B2B2"/>
<path d="M136.242 105.255L147.707 102.853L147.325 101.352L135.478 103.754L136.242 105.255Z" fill="#B2B2B2"/>
<path d="M133.949 150.003V62.0151L107.962 26.5796L111.401 25.0781L138.153 61.1142V150.003H133.949Z" fill="#7F7F7F" stroke="black" stroke-width="0.338769"/>
</g>
<defs>
<clipPath id="clip0_2109_243679">
<rect width="150" height="150" fill="white"/>
</clipPath>
</defs>
</svg>
