<svg width="150" height="150" viewBox="0 0 150 150" fill="none" xmlns="http://www.w3.org/2000/svg">
<g clip-path="url(#clip0_2109_243367)">
<path d="M38.4382 130.938H28.5283L47.7475 150V140L38.4382 130.938Z" fill="#7F7F7F" stroke="black" stroke-width="0.433229"/>
<path d="M119.67 130.938H109.91L129.129 150V140L119.67 130.938Z" fill="#7F7F7F" stroke="black" stroke-width="0.433229"/>
<path d="M33.6338 130.938H23.874L43.0932 150V140L33.6338 130.938Z" fill="#B2B2B2" stroke="black" stroke-width="0.433229"/>
<path d="M115.015 130.938H104.805L124.474 150V140L115.015 130.938Z" fill="#B2B2B2" stroke="black" stroke-width="0.433229"/>
<path d="M137.688 130.938L140.09 129.688L142.342 126.562L144.594 120.625L146.396 114.062L147.748 105.625L148.949 95.625L149.549 84.375L150 72.5L149.549 61.5625L148.949 50.3125L147.748 40.625L146.396 31.875L144.594 25.3125L142.342 19.6875L140.09 16.25L137.688 15V130.938Z" fill="#E0E0E0" stroke="black" stroke-width="0.433229"/>
<path d="M16.667 15L18.4688 16.25L21.3216 24.6875L22.673 31.875L23.8742 40.625L24.4748 50.3125L25.0754 61.5625V84.375L24.4748 95.625L23.8742 105.625L22.673 114.062L20.1204 126.562L18.4688 129.688L16.667 130.938H137.087L138.589 129.688L141.742 121.25L142.943 114.062L143.994 105.625L144.895 95.625L145.196 84.375L145.496 73.4375L145.196 61.5625L144.895 50.3125L143.994 40.625L142.943 31.875L140.09 19.6875L138.589 16.25L137.087 15H16.667Z" fill="#E5E5E5"/>
<path d="M15.9159 15L12.7628 15.625L6.90691 24.6875L4.65465 31.875L2.4024 40.625L1.2012 50.3125L0.3003 61.5625L0 73.4375L0.3003 84.375L1.2012 95.625L2.4024 105.625L4.65465 114.062L6.90691 121.25L12.7628 130.312L16.3664 131.562L17.8679 130.312L21.021 121.25L22.2222 114.688L23.2733 105.625L24.1742 95.625L24.4745 85L24.7748 73.4375L24.4745 61.5625L24.1742 50.3125L23.2733 40.625L22.2222 31.875L19.5195 19.6875L17.8679 16.25L15.9159 15Z" fill="#E5E5E5" stroke="black" stroke-width="0.433229"/>
<path d="M5.25526 87.1875L8.40841 99.0625L12.6126 109.375L15.7658 110.625L19.8198 110L23.5736 101.562L22.2222 114.688L21.021 121.25L19.5195 127.188L17.8679 130.312L16.3664 131.562L12.7628 130.312L9.75976 126.562L6.90691 121.25L4.65465 114.062L2.4024 105.625L1.2012 95.625L0.3003 84.375L0 73.4375L0.3003 61.5625L1.2012 50.3125L2.1021 43.125V44.375L2.4024 63.4375L3.45345 75.3125L5.25526 87.1875Z" fill="#B2B2B2"/>
<path d="M142.943 112.5H22.9733L22.673 114.062L21.3216 121.25L20.1204 126.562L18.4688 129.688L16.667 130.938H137.087L138.589 129.688L140.09 126.562L141.742 121.25L142.943 114.062V112.5Z" fill="#B2B2B2"/>
<path d="M142.943 112.5H22.9727L23.8736 105.625L24.1739 100.938H144.294L143.994 105.625L142.943 112.5Z" fill="#CCCCCC"/>
<path d="M21.0213 23.4375H141.141L140.09 19.6875L138.589 16.25L137.087 15H16.667L18.4688 16.25L20.1204 19.6875L21.0213 23.4375Z" fill="#CCCCCC"/>
<path d="M16.667 15L18.4688 16.25L21.3216 24.6875L22.673 31.875L23.8742 40.625L24.4748 50.3125L25.0754 61.5625V84.375L24.4748 95.625L23.8742 105.625L22.673 114.062L20.1204 126.562L18.4688 129.688L16.667 130.938H137.087L138.589 129.688L141.742 121.25L142.943 114.062L143.994 105.625L144.895 95.625L145.196 84.375L145.496 73.4375L145.196 61.5625L144.895 50.3125L143.994 40.625L142.943 31.875L140.09 19.6875L138.589 16.25L137.087 15H16.667Z" stroke="black" stroke-width="0.433229"/>
<path d="M43.6934 83.125H48.7985V140.938H43.6934V83.125Z" fill="#CCCCCC" stroke="black" stroke-width="0.433229"/>
<path d="M124.774 83.125H130.03V140.938H124.774V83.125Z" fill="#CCCCCC" stroke="black" stroke-width="0.433229"/>
<path d="M43.0928 150H44.4441V140.938H43.0928V150Z" fill="#CCCCCC" stroke="black" stroke-width="0.433229"/>
<path d="M124.475 150H125.376V140.938H124.475V150Z" fill="#CCCCCC" stroke="black" stroke-width="0.433229"/>
<path d="M47.748 150H48.7991V140.938H47.748V150Z" fill="#CCCCCC" stroke="black" stroke-width="0.433229"/>
<path d="M129.129 150H130.03V140.938H129.129V150Z" fill="#CCCCCC" stroke="black" stroke-width="0.433229"/>
<path d="M43.0928 82.5L42.7925 85L42.4922 95.625L41.8916 105.625L40.8405 114.688L39.6393 121.25L38.4381 127.188L36.7864 130.312L35.2849 131.562L33.9336 130.938L43.6934 140V83.125L43.0928 82.5Z" fill="#B2B2B2" stroke="black" stroke-width="0.433229"/>
<path d="M124.024 82.5V85L123.724 95.625L122.823 105.625L121.922 114.688L120.871 121.25L119.369 127.188L118.168 130.312L116.216 131.562L115.315 130.938L124.775 140V83.125L124.024 82.5Z" fill="#B2B2B2" stroke="black" stroke-width="0.433229"/>
<path d="M142.343 30H22.6729L22.9732 31.875L23.5738 35.3125H142.943L142.643 31.875L142.343 30Z" fill="white"/>
<path d="M42.7929 83.125H46.5467L40.5407 15H34.2344L36.1863 16.25L37.6878 19.6875L39.0392 24.6875L40.2404 31.875L41.2914 40.625L42.1923 50.3125L42.7929 61.5625V73.4375V83.125Z" fill="#B2B2B2" stroke="black" stroke-width="0.433229"/>
<path d="M124.024 83.125H127.928L121.621 15H115.615L117.117 16.25L118.768 19.6875L120.27 24.6875L121.621 31.875L122.522 40.625L123.423 50.3125L123.723 61.5625L124.024 73.4375V83.125Z" fill="#B2B2B2" stroke="black" stroke-width="0.433229"/>
<path d="M43.3935 83.125H48.7989V71.25V59.375L48.1983 49.0625L47.5977 39.375L46.2464 30.625L45.0452 23.4375L43.6938 18.125L42.1923 14.375L40.2404 13.75H34.835L34.2344 14.375L36.7869 15L38.4386 18.125L39.9401 23.4375L41.2914 30.625L42.1923 39.375L42.7929 49.0625L43.3935 59.375L43.6938 71.25L43.3935 83.125Z" fill="#E5E5E5" stroke="black" stroke-width="0.433229"/>
<path d="M124.774 83.125H130.03V71.25L129.729 59.375L129.429 49.0625L128.528 39.375L127.627 30.625L126.276 23.4375L124.774 18.125L123.123 14.375L121.621 13.75H116.216L115.615 14.375L117.717 15L119.669 18.125L120.87 23.4375L122.222 30.625L123.123 39.375L124.024 49.0625L124.774 59.375V71.25V83.125Z" fill="#E5E5E5" stroke="black" stroke-width="0.433229"/>
<path d="M66.0664 15H89.0394V9.0625H66.0664V15Z" fill="#CCCCCC"/>
<path d="M66.0664 15H67.1175V9.0625H66.0664V15Z" fill="#B2B2B2"/>
<path d="M87.2373 15H89.0391V9.0625H87.2373V15Z" fill="#B2B2B2"/>
<path d="M62.0117 5H93.243V9.0625H62.0117V5Z" fill="#F0F0F0"/>
<path d="M62.0117 5H93.243V1.25H62.0117V5Z" fill="#F0F0F0"/>
<path d="M66.3662 5H67.2671V9.0625H66.3662V5Z" fill="white"/>
<path d="M66.3662 5H67.2671V1.25H66.3662V5Z" fill="white"/>
<path d="M87.2373 5H93.2433V9.0625H87.2373V5Z" fill="#B2B2B2"/>
<path d="M87.2373 5H93.2433V1.25H87.2373V5Z" fill="#B2B2B2"/>
<path d="M62.0117 5H64.264V9.0625H62.0117V5Z" fill="#B2B2B2"/>
<path d="M62.0117 5H64.264V1.25H62.0117V5Z" fill="#B2B2B2"/>
<path d="M62.6123 10.3125H63.9637V9.0625H62.6123V10.3125Z" fill="#F0F0F0" stroke="black" stroke-width="0.433229"/>
<path d="M66.667 10.3125H67.718V9.0625H66.667V10.3125Z" fill="#F0F0F0" stroke="black" stroke-width="0.433229"/>
<path d="M70.8711 10.3125H71.772V9.0625H70.8711V10.3125Z" fill="#F0F0F0" stroke="black" stroke-width="0.433229"/>
<path d="M74.9248 10.3125H75.8257V9.0625H74.9248V10.3125Z" fill="#F0F0F0" stroke="black" stroke-width="0.433229"/>
<path d="M78.9785 10.3125H80.0296V9.0625H78.9785V10.3125Z" fill="#F0F0F0" stroke="black" stroke-width="0.433229"/>
<path d="M82.7324 10.3125H84.0838V9.0625H82.7324V10.3125Z" fill="#F0F0F0" stroke="black" stroke-width="0.433229"/>
<path d="M86.9365 10.3125H88.1377V9.0625H86.9365V10.3125Z" fill="#F0F0F0" stroke="black" stroke-width="0.433229"/>
<path d="M90.9912 10.3125H92.1924V9.0625H90.9912V10.3125Z" fill="#F0F0F0" stroke="black" stroke-width="0.433229"/>
<path d="M62.6123 0H63.9637V1.25H62.6123V0Z" fill="#F0F0F0" stroke="black" stroke-width="0.433229"/>
<path d="M66.667 0H67.718V1.25H66.667V0Z" fill="#F0F0F0" stroke="black" stroke-width="0.433229"/>
<path d="M70.8711 0H71.772V1.25H70.8711V0Z" fill="#F0F0F0" stroke="black" stroke-width="0.433229"/>
<path d="M74.9248 0H75.8257V1.25H74.9248V0Z" fill="#F0F0F0" stroke="black" stroke-width="0.433229"/>
<path d="M78.9785 0H80.0296V1.25H78.9785V0Z" fill="#F0F0F0" stroke="black" stroke-width="0.433229"/>
<path d="M82.7324 0H84.0838V1.25H82.7324V0Z" fill="#F0F0F0" stroke="black" stroke-width="0.433229"/>
<path d="M86.9365 0H88.1377V1.25H86.9365V0Z" fill="#F0F0F0" stroke="black" stroke-width="0.433229"/>
<path d="M90.9912 0H92.1924V1.25H90.9912V0Z" fill="#F0F0F0" stroke="black" stroke-width="0.433229"/>
<path d="M62.0117 5H93.2429V9.0625H62.0117V5Z" stroke="black" stroke-width="0.433229"/>
<path d="M62.0117 5H93.2429V1.25H62.0117V5Z" stroke="black" stroke-width="0.433229"/>
<path d="M66.0664 15H89.0394V9.0625H66.0664V15Z" stroke="black" stroke-width="0.433229"/>
</g>
<defs>
<clipPath id="clip0_2109_243367">
<rect width="150" height="150" fill="white"/>
</clipPath>
</defs>
</svg>
