<svg width="150" height="150" viewBox="0 0 150 150" fill="none" xmlns="http://www.w3.org/2000/svg">
<g clip-path="url(#clip0_2109_243987)">
<path d="M47.7972 36.489L35.4624 5.25781L31.2773 6.90946L43.3919 35.8884L47.7972 36.489Z" fill="#CCCCCC" stroke="black" stroke-width="0.363718"/>
<path d="M54.8457 26.2725L59.251 25.6719L62.3347 32.8791L57.9294 33.78L54.8457 26.2725Z" fill="#333333"/>
<path d="M41.4097 40.3921H0V38.8906H41.4097V40.3921Z" fill="#7F7F7F" stroke="black" stroke-width="0.363718"/>
<path d="M21.145 40.387L21.8058 31.378H41.4094L39.8675 33.4801L44.7133 32.8795L43.3917 28.375H17.6208L14.5371 41.2879L21.145 40.387Z" fill="#B2B2B2" stroke="black" stroke-width="0.363718"/>
<path d="M147.798 33.4874L144.273 32.5865L137.225 31.9859L127.093 31.085L114.758 30.7847L101.102 30.4844H87.0047L72.9078 30.7847L61.0135 31.085L50.8814 31.9859L43.8329 32.5865L39.8682 33.4874V144.598L43.8329 146.1L50.8814 147.601L61.0135 148.803L72.9078 149.553L87.0047 150.004H101.102L114.758 149.553L127.093 148.803L137.225 147.601L144.273 146.1L147.798 144.598V33.4874Z" fill="#7F7F7F"/>
<path d="M142.952 33.1871L139.428 32.2862L133.26 31.6856L124.009 31.085L112.996 30.7847L100.661 30.4844H87.4455L75.1107 30.7847L64.3177 31.085L54.8464 31.6856L48.4587 32.2862L45.375 33.1871V145.049L48.4587 146.701L54.8464 147.752L64.3177 148.803L75.1107 149.553L87.4455 150.004H100.661L112.996 149.553L124.009 148.803L133.26 147.752L139.428 146.701L142.952 145.049V33.1871Z" fill="#858585"/>
<path d="M138.106 32.8868L135.022 32.2862L129.295 31.3853L120.925 31.085L111.233 30.7847L99.7797 30.4844H88.326L76.8722 30.7847L66.7401 31.085L58.8106 31.3853L53.304 32.2862L50 32.8868V145.65L53.304 146.851L58.8106 148.202L66.7401 148.953L76.8722 149.553L88.326 150.004H99.7797L110.793 149.553L120.925 148.953L129.295 148.202L135.022 146.851L138.106 145.65V32.8868Z" fill="#8A8A8A"/>
<path d="M133.26 32.5865L130.176 31.9859L125.33 31.3853L117.841 31.085L109.031 30.7847L99.3391 30.4844H88.7664L79.0748 30.7847L69.8237 31.085L62.7752 31.3853L57.4889 31.9859L54.8457 32.5865V146.1L57.4889 147.301L62.7752 148.202L69.8237 148.953L79.0748 149.553L88.7664 150.004H99.3391L109.031 149.553L117.841 148.953L125.33 148.202L130.617 147.301L132.819 146.1L133.26 32.5865Z" fill="#8F8F8F"/>
<path d="M127.973 32.2862L125.771 31.6856L121.365 31.3853L115.198 30.7847L107.268 30.4844H98.4579H89.6474H80.8368L72.9073 30.7847L66.7399 31.3853L62.3346 31.6856L59.6914 32.2862V146.701L62.3346 147.601L66.7399 148.352L72.9073 148.953L80.8368 149.553L89.6474 150.004H98.4579L107.268 149.553L114.757 148.953L121.365 148.352L125.771 147.601L127.973 146.701V32.2862Z" fill="#949494"/>
<path d="M123.128 31.9859L121.366 31.3853L117.401 31.085L111.675 30.7847L105.067 30.4844H97.5776H90.0886H82.5997L75.9917 30.7847L70.7054 31.085L66.7406 31.3853L64.9785 31.9859V147.301L66.7406 148.202L70.7054 148.803L75.9917 149.403L82.5997 149.553L90.0886 150.004H97.5776L105.067 149.553L111.675 149.403L117.401 148.803L121.366 148.202L123.128 147.301V31.9859Z" fill="#999999"/>
<path d="M118.282 31.6856L116.52 31.3853L113.437 31.085L109.031 30.7847L103.304 30.4844H97.137H90.9696H84.8022L79.0753 30.7847L74.67 31.085L71.5863 31.3853L69.8242 31.6856V147.752L71.5863 148.352L74.67 148.953L79.0753 149.403L84.8022 149.553L90.9696 150.004H97.137L103.304 149.553L109.031 149.403L113.437 148.953L116.52 148.352L118.282 147.752V31.6856Z" fill="#9E9E9E"/>
<path d="M113.436 31.3853L112.115 31.085L109.472 30.7847H105.947L101.542 30.4844H96.6964H91.41H86.5642L82.1589 30.7847H78.6347L75.9915 31.085L74.6699 31.3853V148.202L75.9915 148.803L78.6347 149.403L82.1589 149.553H86.5642L91.41 150.004H96.6964L101.542 149.553H105.947L109.472 149.403L112.115 148.803L113.436 148.202V31.3853Z" fill="#A3A3A3"/>
<path d="M108.15 31.085L107.269 30.7847H105.507L102.864 30.4844H99.3394H95.8152H92.291H88.3262H85.2425L82.5993 30.7847H80.3967L79.5156 31.085V148.803L80.3967 148.953L82.5993 149.403L85.2425 149.553L88.3262 150.004H92.291H95.8152H99.3394L102.864 149.553L105.507 149.403L107.269 148.953L108.15 148.803V31.085Z" fill="#A8A8A8"/>
<path d="M103.304 30.7847H102.864L101.542 30.4844H99.7798H97.5772H95.3745H92.7314H90.5287H88.3261H86.564L85.2424 30.7847H84.3613V149.403L85.2424 149.553H86.564L88.3261 150.004H90.5287H92.7314H95.3745H97.5772H99.7798L101.542 149.553H102.864L103.304 149.403V30.7847Z" fill="#ADADAD"/>
<path d="M98.458 30.4844H98.0175H97.577H96.6959H95.8149H94.4933H93.1717H92.2906H90.969H90.5285H89.6475V150.004H90.5285H90.969H92.2906H93.1717H94.4933H95.8149H96.6959H97.577H98.0175H98.458V30.4844Z" fill="#B2B2B2"/>
<path d="M147.798 33.4874L144.273 32.5865L137.225 31.9859L127.093 31.085L114.758 30.7847L101.102 30.4844H87.0047L72.9078 30.7847L61.0135 31.085L50.8814 31.9859L43.8329 32.5865L39.8682 33.4874V144.598L43.8329 146.1L50.8814 147.601L61.0135 148.803L72.9078 149.553L87.0047 150.004H101.102L114.758 149.553L127.093 148.803L137.225 147.601L144.273 146.1L147.798 144.598V33.4874Z" stroke="black" stroke-width="0.363718"/>
<path d="M39.8677 113.061L41.6298 113.361L49.339 114.562L59.2509 115.463L72.4668 116.064L86.5637 116.364H101.101L115.639 116.064L128.414 115.463L138.987 114.562L146.476 113.361L147.797 113.061V111.859L150 112.46V113.661L146.476 114.862L138.987 116.064L128.414 116.964L115.639 117.565L101.101 117.865H86.5637L72.4668 117.565L59.2509 116.964L49.339 116.064L41.6298 114.862L37.665 113.661V112.46L39.8677 111.859V113.061Z" fill="#999999" stroke="black" stroke-width="0.363718"/>
<path d="M39.8677 66.8204L41.6298 66.5201L49.339 65.6192L59.2509 64.7183L72.4668 64.1177L86.5637 63.8174H101.101L115.639 64.1177L128.414 64.7183L138.987 65.6192L146.476 66.5201L147.797 66.8204V68.0216L150 67.421V66.2198L146.476 65.0186L138.987 64.1177L128.414 63.2168L115.639 62.6162L101.101 62.0156H86.5637L72.4668 62.6162L59.2509 63.2168L49.339 64.1177L41.6298 65.0186L37.665 66.2198V67.421L39.8677 68.0216V66.8204Z" fill="#999999" stroke="black" stroke-width="0.363718"/>
<path d="M39.8677 57.8083L41.6298 57.2077L49.339 55.7062L59.2509 54.2047L72.4668 52.7032L86.5637 51.2017L101.101 50.3008L115.639 49.7002L128.414 49.3999L138.987 49.7002L146.476 50.3008L147.797 50.6011V51.502L150 50.9014V49.7002L146.476 48.7993L138.987 48.1987L128.414 47.8984L115.639 48.1987L101.101 48.7993L86.5637 49.7002L72.4668 51.2017L59.2509 52.4029L49.339 54.2047L41.6298 55.7062L37.665 57.2077V58.4089L39.8677 58.7092V57.8083Z" fill="#999999" stroke="black" stroke-width="0.363718"/>
<path d="M39.8677 46.3987L41.6298 46.0984L49.339 44.2966L59.2509 42.7951L72.4668 41.2936L86.5637 40.0924L101.101 39.1915L115.639 38.2906H138.987L146.476 38.8912L147.797 39.1915V40.3927L150 39.7921V38.5909L146.476 37.3897L138.987 36.7891H115.639L101.101 37.3897L86.5637 38.5909L72.4668 39.7921L59.2509 41.2936L49.339 42.7951L41.6298 44.5969L37.665 45.7981V47.2996L39.8677 47.5999V46.3987Z" fill="#999999" stroke="black" stroke-width="0.363718"/>
<path d="M61.0131 0L70.2642 23.5736L44.4933 28.3784L35.2422 4.8048L61.0131 0Z" fill="#7F7F7F"/>
<path d="M59.6919 0.296875L68.943 23.8704L45.3747 28.0747L35.9033 4.35093L59.6919 0.296875Z" fill="#8C8C8C"/>
<path d="M58.811 0.296875L68.0621 23.8704L46.4761 27.7744L37.4453 4.35093L58.811 0.296875Z" fill="#999999"/>
<path d="M57.4886 0.453125L66.7397 24.1768L47.797 27.7805L38.5459 4.20688L57.4886 0.453125Z" fill="#A6A6A6"/>
<path d="M56.3881 0.898438L65.4189 24.472L48.6788 27.475L39.4277 3.75129L56.3881 0.898438Z" fill="#B2B2B2"/>
<path d="M55.2865 1.05469L64.5376 24.7784L50.0001 27.1808L40.749 3.60724L55.2865 1.05469Z" fill="#BFBFBF"/>
<path d="M53.9647 1.05469L63.2158 24.7784L51.3215 27.1808L41.6299 3.60724L53.9647 1.05469Z" fill="#CCCCCC"/>
<path d="M52.6428 1.5L62.3344 25.0736L52.4225 26.8754L42.9512 3.15165L52.6428 1.5Z" fill="#D9D9D9"/>
<path d="M51.7619 1.64844L61.013 25.3722L53.524 26.5734L44.4932 2.99979L51.7619 1.64844Z" fill="#E5E5E5"/>
<path d="M50.4411 1.64844L59.6922 25.3722L54.8464 26.5734L45.375 2.99979L50.4411 1.64844Z" fill="#F2F2F2"/>
<path d="M49.339 2.10156L58.8104 25.6751L55.7267 26.2757L46.4756 2.55201L49.339 2.10156Z" fill="white"/>
<path d="M61.0131 0L70.2642 23.5736L44.4933 28.3784L35.2422 4.8048L61.0131 0Z" stroke="black" stroke-width="0.363718"/>
<path d="M37.4453 10.6642L63.2162 5.85938" stroke="black" stroke-width="0.363718"/>
<path d="M47.3566 18.1711L44.4932 10.063L56.3874 7.96094" stroke="white" stroke-width="0.363718"/>
<path d="M47.3564 18.1711L59.2507 16.069L56.3873 7.96094" stroke="#999999" stroke-width="0.363718"/>
<path d="M58.3701 8.407L61.4538 7.65625L66.7402 20.2689L63.2159 20.8695L58.3701 8.407Z" fill="#E59898"/>
<path d="M57.9297 55.7031H129.736V130.628H57.9297V55.7031Z" fill="#99CC99"/>
<path d="M61.8945 55.7031H125.771V130.628H61.8945V55.7031Z" fill="#91C491"/>
<path d="M65.8594 55.7031H122.247V130.628H65.8594V55.7031Z" fill="#8CBF8C"/>
<path d="M69.8242 55.7031H118.282V130.628H69.8242V55.7031Z" fill="#85B885"/>
<path d="M73.7891 55.7031H114.318V130.628H73.7891V55.7031Z" fill="#7FB27F"/>
<path d="M77.7529 55.7031H110.352V130.628H77.7529V55.7031Z" fill="#78AB78"/>
<path d="M81.7178 55.7031H106.387V130.628H81.7178V55.7031Z" fill="#73A673"/>
<path d="M85.6826 55.7031H102.423V130.628H85.6826V55.7031Z" fill="#6B9E6B"/>
<path d="M89.6475 55.7031H98.458V130.628H89.6475V55.7031Z" fill="#669966"/>
<path d="M57.9297 130.628V55.7031H129.736" stroke="black" stroke-width="0.363718"/>
<path d="M66.7402 55.7031H71.586L100.661 130.628H96.2557L66.7402 55.7031Z" fill="#333333"/>
<path d="M129.736 55.7031V130.628H57.9297" stroke="#CCFFCC" stroke-width="0.363718"/>
<path d="M99.7795 124.778L95.3742 122.676L92.731 125.98L86.1231 126.881H80.8367L77.753 126.28L77.3125 125.079L79.5151 123.577L84.361 121.775L90.5284 119.974L94.9336 122.076L97.1363 118.772L103.744 118.172H109.031L112.114 118.772L112.555 119.974L110.352 121.475L105.947 123.277L99.7795 124.778Z" fill="#666666" stroke="black" stroke-width="0.363718"/>
<path d="M89.2071 98.3488L84.8018 96.547L82.1586 99.8503L75.5507 100.451H70.7049L67.6212 99.8503L67.1807 98.6491L69.3833 97.1476L73.7886 95.3458L79.956 93.8443L84.3613 95.6461L87.0045 92.6431L93.6124 91.7422H98.4582L101.542 92.3428L101.982 93.544L99.7798 95.0455L95.3745 96.8473L89.2071 98.3488Z" fill="#666666" stroke="black" stroke-width="0.363718"/>
</g>
<defs>
<clipPath id="clip0_2109_243987">
<rect width="150" height="150" fill="white"/>
</clipPath>
</defs>
</svg>
