<svg width="150" height="150" viewBox="0 0 150 150" fill="none" xmlns="http://www.w3.org/2000/svg">
<g clip-path="url(#clip0_2109_243093)">
<path d="M58.7627 9.30931H90.9792V0H58.7627V9.30931Z" fill="#7F7F7F"/>
<path d="M26.5469 18.6218H123.196V9.3125H26.5469V18.6218Z" fill="#7F7F7F"/>
<path d="M10.5674 28.0766H139.433V18.6172H10.5674V28.0766Z" fill="#7F7F7F"/>
<path d="M0 28.0781H150V150H0V28.0781Z" fill="#7F7F7F"/>
<path d="M12.3711 28.0781H137.629V150H12.3711V28.0781Z" fill="#999999"/>
<path d="M21.3916 28.0766H128.608V18.6172H21.3916V28.0766Z" fill="#999999"/>
<path d="M34.5361 18.6218H115.206V9.3125H34.5361V18.6218Z" fill="#999999"/>
<path d="M61.5977 9.30931H88.4018V0H61.5977V9.30931Z" fill="#999999"/>
<path d="M32.2168 28.0766H117.784V18.6172H32.2168V28.0766Z" fill="#A6A6A6"/>
<path d="M25 28.0781H125V150H25V28.0781Z" fill="#A6A6A6"/>
<path d="M31.1855 28.0781H118.814V150H31.1855V28.0781Z" fill="#B2B2B2"/>
<path d="M37.3711 28.0766H112.371V18.6172H37.3711V28.0766Z" fill="#B2B2B2"/>
<path d="M47.6807 18.6218H102.32V9.3125H47.6807V18.6218Z" fill="#B2B2B2"/>
<path d="M46.9072 28.0781H103.093V150H46.9072V28.0781Z" fill="#CCCCCC"/>
<path d="M53.3506 18.6218H96.3918V9.3125H53.3506V18.6218Z" fill="#CCCCCC"/>
<path d="M65.4639 9.30931H84.536V0H65.4639V9.30931Z" fill="#CCCCCC"/>
<path d="M50.7734 28.0766H98.9693V18.6172H50.7734V28.0766Z" fill="#CCCCCC"/>
<path d="M72.4229 9.30931H77.5775V0H72.4229V9.30931Z" fill="#E5E5E5"/>
<path d="M67.0107 18.6218H82.9901V9.3125H67.0107V18.6218Z" fill="#E5E5E5"/>
<path d="M64.1748 28.0766H85.8243V18.6172H64.1748V28.0766Z" fill="#E5E5E5"/>
<path d="M62.3711 28.0781H87.3711V150H62.3711V28.0781Z" fill="#E5E5E5"/>
<path d="M0 150H150V28.0781H139.433V18.6186H123.196V9.30931H90.9794V0H59.0206V9.30931H26.8041V18.6186H10.567V28.0781H0V150Z" stroke="black" stroke-width="0.393439"/>
<path d="M59.0205 9.3125H90.9793" stroke="black" stroke-width="0.393439"/>
<path d="M26.8037 18.6172H123.195" stroke="black" stroke-width="0.393439"/>
<path d="M10.5674 28.0781H139.433" stroke="black" stroke-width="0.393439"/>
</g>
<defs>
<clipPath id="clip0_2109_243093">
<rect width="150" height="150" fill="white"/>
</clipPath>
</defs>
</svg>
