<svg width="150" height="150" viewBox="0 0 150 150" fill="none" xmlns="http://www.w3.org/2000/svg">
<g clip-path="url(#clip0_2109_242922)">
<path d="M150 105.665V10.3448L148.645 8.12808L144.127 6.28079L136.898 4.4335L132.831 3.69458L127.861 2.95566L122.44 2.21675L117.018 1.84729L110.693 1.10837L103.916 0.738916L97.1386 0.369458H89.9096L82.6807 0H75H67.3193L59.6386 0.369458H52.8614L45.6325 0.738916L39.3072 1.10837L32.9819 1.84729L27.1084 2.21675L22.1386 2.95566L17.1687 3.69458L9.03614 5.17241L3.16265 7.0197L0.451807 9.23645L0 10.3448V105.665L3.16265 108.99L9.03614 110.837L17.1687 112.315L22.1386 113.054L27.1084 113.793L32.9819 114.163L39.3072 114.901L45.6325 115.271L52.8614 115.64H59.6386L67.3193 116.01H75H82.6807L89.9096 115.64H97.1386L103.916 115.271L110.693 114.901L117.018 114.163L122.44 113.793L127.861 113.054L132.831 112.315L140.964 110.837L146.386 108.99L148.645 107.882L149.548 106.773L150 105.665Z" fill="#7F7F7F" stroke="black" stroke-width="0.817126"/>
<path d="M150 107.142V106.403V105.664L149.548 106.772L148.645 107.881L144.127 109.728L136.898 111.575L132.831 112.314L127.861 113.053L122.44 113.792L117.018 114.162L110.693 114.901L103.916 115.27L97.1386 115.639H89.9096L82.6807 116.009H67.3193L59.6386 115.639H52.8614L45.6325 115.27L39.3072 114.901L32.9819 114.162L27.1084 113.792L22.1386 113.053L17.1687 112.314L9.03614 110.836L3.16265 108.989L0.451807 106.772L0 105.664V106.403V107.142L0.903614 111.575L2.25904 116.009L4.51807 120.442L7.22892 124.137L10.3916 128.201L14.4578 131.526L18.5241 134.851L23.494 137.807L28.9157 140.393L34.3373 142.979L40.6627 145.196L46.988 146.674L53.3133 148.152L60.5422 149.26L67.7711 149.63L75 149.999L82.2289 149.63L89.4578 149.26L96.2349 148.152L103.012 146.674L109.337 145.196L115.211 142.979L121.084 140.393L126.506 137.807L131.476 134.851L135.542 131.526L139.608 128.201L142.771 124.137L145.482 120.442L147.741 116.009L149.096 111.575L150 107.142Z" fill="#7F7F7F" stroke="black" stroke-width="0.817126"/>
<path d="M137.35 105.665V10.3448L135.994 8.12808L132.38 6.28079L126.506 4.4335L119.278 2.95566L109.79 1.84729L99.398 0.738916L87.651 0.369458L75.0004 0L62.3498 0.369458L50.6028 0.738916L39.7595 1.84729L30.7233 2.95566L23.0426 4.4335L17.1691 6.28079L13.5546 8.12808L12.1992 10.3448V105.665L13.5546 107.882L17.1691 109.729L23.0426 111.576L30.7233 113.054L39.7595 114.163L50.6028 115.271L62.3498 115.64L75.0004 116.01L87.651 115.64L99.398 115.271L109.79 114.163L119.278 113.054L126.506 111.576L132.38 109.729L135.994 107.882L137.35 105.665Z" fill="#999999"/>
<path d="M137.35 107.142V106.403V105.664L135.994 107.881L132.38 109.728L126.506 111.575L119.278 113.053L109.79 114.162L99.398 115.27L87.651 115.639L75.0004 116.009L62.3498 115.639L50.6028 115.27L39.7595 114.162L30.7233 113.053L23.0426 111.575L17.1691 109.728L13.5546 107.881L12.1992 105.664V107.142L14.0064 116.009L18.0727 124.137L23.9462 131.526L32.0787 137.807L41.1149 142.979L51.5064 146.674L62.8016 149.26L75.0004 149.999L87.1992 149.26L98.4944 146.674L108.886 142.979L117.922 137.807L125.603 131.526L131.476 124.137L135.543 116.009L137.35 107.142Z" fill="#999999"/>
<path d="M116.566 105.665V10.3448L115.662 8.12808L113.403 6.28079L109.337 4.4335L104.367 2.95566L98.4935 1.84729L91.2646 0.738916L83.5839 0.369458L74.9995 0L66.4152 0.369458L58.7345 0.738916L51.5055 1.84729L45.1802 2.95566L40.2104 4.4335L36.1441 6.28079L33.8851 8.12808L32.9814 10.3448V105.665L33.8851 107.882L36.1441 109.729L40.2104 111.576L45.1802 113.054L51.5055 114.163L58.7345 115.271L66.4152 115.64L74.9995 116.01L83.5839 115.64L91.2646 115.271L98.4935 114.163L104.367 113.054L109.337 111.576L113.403 109.729L115.662 107.882L116.566 105.665Z" fill="#B2B2B2"/>
<path d="M116.567 107.142V106.403V105.664L115.663 107.881L113.404 109.728L109.338 111.575L104.368 113.053L98.4945 114.162L91.2656 115.27L83.5848 115.639L75.0005 116.009L66.4162 115.639L58.7354 115.27L51.5065 114.162L45.1812 113.053L40.2113 111.575L36.1451 109.728L33.886 107.881L32.9824 105.664V107.142L34.3378 116.009L37.0487 124.137L41.115 131.526L46.0848 137.807L52.4101 142.979L59.1872 146.674L66.868 149.26L75.0005 149.999L83.133 149.26L90.3619 146.674L97.5909 142.979L103.464 137.807L108.886 131.526L112.952 124.137L115.211 116.009L116.567 107.142Z" fill="#B2B2B2"/>
<path d="M95.7831 105.665V10.3448L95.3313 8.12808L92.1686 4.4335L86.7469 1.84729L79.0662 0.369458L74.9999 0L66.8674 0.738916L60.0903 2.95566L56.024 6.28079L54.6686 8.12808L54.2168 10.3448V105.665L54.6686 107.882L57.8313 111.576L63.2529 114.163L70.9337 115.64L74.9999 116.01L83.1325 115.271L89.4578 113.054L93.9758 109.729L95.3313 107.882L95.7831 105.665Z" fill="#CCCCCC"/>
<path d="M95.7831 107.142V106.403V105.664L95.3313 107.881L93.9758 109.728L92.1686 111.575L89.4578 113.053L86.7469 114.162L83.1325 115.27L79.0662 115.639L74.9999 116.009L70.9337 115.639L66.8674 115.27L63.2529 114.162L60.0903 113.053L57.8313 111.575L56.024 109.728L54.6686 107.881L54.2168 105.664V107.142L54.6686 116.009L56.024 124.137L57.8313 131.526L60.5421 137.807L63.7047 142.979L66.8674 146.674L70.9337 149.26L74.9999 149.999L79.0662 149.26L82.6807 146.674L86.2951 142.979L89.4578 137.807L91.7168 131.526L93.9758 124.137L95.3313 116.009L95.7831 107.142Z" fill="#CCCCCC"/>
<path d="M75 19.9507C116.421 19.9507 150 15.4846 150 9.97537C150 4.46613 116.421 0 75 0C33.5786 0 0 4.46613 0 9.97537C0 15.4846 33.5786 19.9507 75 19.9507Z" stroke="black" stroke-width="0.817126"/>
<path d="M150 105.664L148.645 107.881L144.127 109.728L136.898 111.575L132.831 112.314L127.861 113.053L122.44 113.792L117.018 114.162L110.693 114.901L103.916 115.27L97.1386 115.639H89.9096L82.6807 116.009H67.3193L59.6386 115.639H52.8614L45.6325 115.27L39.3072 114.901L32.9819 114.162L27.1084 113.792L22.1386 113.053L17.1687 112.314L9.03614 110.836L3.16265 108.989L0 105.664" stroke="black" stroke-width="0.817126"/>
<path d="M75 19.9507C116.421 19.9507 150 15.4846 150 9.97537C150 4.46613 116.421 0 75 0C33.5786 0 0 4.46613 0 9.97537C0 15.4846 33.5786 19.9507 75 19.9507Z" fill="#7F7F7F" stroke="black" stroke-width="0.817126"/>
</g>
<defs>
<clipPath id="clip0_2109_242922">
<rect width="150" height="150" fill="white"/>
</clipPath>
</defs>
</svg>
