<svg width="150" height="150" viewBox="0 0 150 150" fill="none" xmlns="http://www.w3.org/2000/svg">
<g clip-path="url(#clip0_2109_245946)">
<path d="M61.3115 0H88.5246V150H61.3115V0Z" fill="#7F7F7F"/>
<path d="M63.9346 0H68.0329H69.5083H70.8198H80.4919H86.0657V28.0781V32.7327V37.3874V117.117V121.772V145.195V149.85H84.7542H79.1805H69.5083H65.246H63.9346V145.195V121.772V117.117V32.7327V28.0781V0Z" fill="#969696"/>
<path d="M66.3936 0H69.6722H70.6558H71.8034H79.3444H83.4427V28.0781L83.6067 32.7327V37.3874V117.117L83.4427 121.772V145.195V149.85H82.4591H77.2132H70.6558H67.5411H66.3936V145.195V121.772V117.117V32.7327V28.0781V0Z" fill="#ABABAB"/>
<path d="M69.0166 0H71.3117H71.9674H72.7871H78.033H80.9838V28.0781V32.7327V37.3874V117.117V121.772V145.195V149.85H80.1641H74.9182H69.6723H69.0166V145.195V121.772V117.117V32.7327V28.0781V0Z" fill="#C2C2C2"/>
<path d="M71.4756 0H78.3608V150H71.4756V0Z" fill="#D9D9D9"/>
<path d="M61.3115 0H88.5246V150H61.3115V0Z" stroke="black" stroke-width="0.313782"/>
<path d="M74.918 143.542C116.294 143.542 149.836 112.82 149.836 74.9233C149.836 37.0263 116.294 6.30469 74.918 6.30469C33.5419 6.30469 0 37.0263 0 74.9233C0 112.82 33.5419 143.542 74.918 143.542Z" fill="#999999"/>
<path d="M74.9176 143.694C110.409 143.694 139.18 112.905 139.18 74.925C139.18 36.9451 110.409 6.15625 74.9176 6.15625C39.4265 6.15625 10.6553 36.9451 10.6553 74.925C10.6553 112.905 39.4265 143.694 74.9176 143.694Z" fill="#A8A8A8"/>
<path d="M75.082 143.694C104.779 143.694 128.853 112.905 128.853 74.925C128.853 36.9451 104.779 6.15625 75.082 6.15625C45.3854 6.15625 21.3115 36.9451 21.3115 74.925C21.3115 112.905 45.3854 143.694 75.082 143.694Z" fill="#B8B8B8"/>
<path d="M74.9185 143.694C98.7301 143.694 118.033 112.905 118.033 74.925C118.033 36.9451 98.7301 6.15625 74.9185 6.15625C51.1068 6.15625 31.8037 36.9451 31.8037 74.925C31.8037 112.905 51.1068 143.694 74.9185 143.694Z" fill="#C4C4C4"/>
<path d="M74.918 143.694C92.8446 143.694 107.377 112.905 107.377 74.925C107.377 36.9451 92.8446 6.15625 74.918 6.15625C56.9914 6.15625 42.459 36.9451 42.459 74.925C42.459 112.905 56.9914 143.694 74.918 143.694Z" fill="#D4D4D4"/>
<path d="M74.9185 143.694C86.9601 143.694 96.7218 112.905 96.7218 74.925C96.7218 36.9451 86.9601 6.15625 74.9185 6.15625C62.8769 6.15625 53.1152 36.9451 53.1152 74.925C53.1152 112.905 62.8769 143.694 74.9185 143.694Z" fill="#E3E3E3"/>
<path d="M74.9179 143.542C81.1651 143.542 86.2294 112.82 86.2294 74.9233C86.2294 37.0263 81.1651 6.30469 74.9179 6.30469C68.6708 6.30469 63.6064 37.0263 63.6064 74.9233C63.6064 112.82 68.6708 143.542 74.9179 143.542Z" fill="#F2F2F2"/>
<path d="M74.918 143.542C116.294 143.542 149.836 112.82 149.836 74.9233C149.836 37.0263 116.294 6.30469 74.918 6.30469C33.5419 6.30469 0 37.0263 0 74.9233C0 112.82 33.5419 143.542 74.918 143.542Z" stroke="black" stroke-width="0.313782"/>
<path d="M74.9176 143.692L69.3438 142.941L64.0979 140.539L59.016 136.935L55.9012 133.632L52.9504 130.028L50.3274 125.824L47.8684 121.17L45.5733 116.064L43.6061 110.509L41.8028 104.653L40.4914 98.4969L39.3438 92.0404L38.6881 85.4338L38.3602 78.5269L38.1963 74.9233L38.3602 71.4699L38.6881 64.5629L39.3438 57.8062L40.4914 51.3497L41.8028 45.1936L43.6061 39.3377L45.5733 33.9323L47.8684 28.8272L50.3274 24.1726L52.9504 19.9684L55.9012 16.2146L59.016 13.0614L64.0979 9.30769L69.3438 7.05544L73.1143 6.30469H74.9176" stroke="black" stroke-width="0.313782"/>
<path d="M61.4756 15.6141V12.4609H64.9182V15.6141H61.4756Z" fill="#7F7F7F"/>
<path d="M55.5742 22.825V22.5247V20.8731V19.6719H56.3939H58.1972H59.0168V20.4226V22.0743V22.825H57.2136H55.5742Z" fill="#7F7F7F"/>
<path d="M50.8193 31.0828V30.6324L50.9833 29.1309L50.8193 27.9297H51.8029H53.4423H54.262L54.4259 28.6804V30.1819L54.262 31.0828L52.6226 30.9327L50.8193 31.0828Z" fill="#7F7F7F"/>
<path d="M47.377 39.7877V39.3372V37.6856V36.6345L48.1966 36.4844H49.9999L50.8196 36.6345V37.3853V38.8868V39.7877L49.1802 39.6375L47.377 39.7877Z" fill="#7F7F7F"/>
<path d="M44.7539 48.6453V48.345L44.9178 46.6934L44.7539 45.4922H45.7375H47.3769H48.1965L48.3605 46.2429V47.8946L48.1965 48.6453H46.5572H44.7539Z" fill="#7F7F7F"/>
<path d="M42.9512 57.8094V57.359L43.1151 55.8575L42.9512 54.6562H43.9348H45.5741H46.3938L46.5577 55.407V57.0587L46.3938 57.8094H44.7545H42.9512Z" fill="#7F7F7F"/>
<path d="M41.9668 66.9657V66.6654V65.0137V63.8125H42.7865H44.5897H45.4094V64.5633V66.2149V66.9657H43.7701H41.9668Z" fill="#7F7F7F"/>
<path d="M41.6396 76.2799V75.8294V74.1778V73.1267L42.4593 72.9766H44.2626L45.0823 73.1267V73.8775V75.379V76.2799L43.4429 76.1297L41.6396 76.2799Z" fill="#7F7F7F"/>
<path d="M41.9668 85.4344V85.1341V83.4825V82.2812H42.7865H44.5897H45.4094V83.032V84.6837V85.4344H43.7701H41.9668Z" fill="#7F7F7F"/>
<path d="M42.9512 94.7486V94.2982V92.6465V91.5955L43.7708 91.4453H45.5741L46.3938 91.5955V92.3462V93.8477V94.7486L44.7545 94.5985L42.9512 94.7486Z" fill="#7F7F7F"/>
<path d="M44.7539 103.755V103.454V101.803V100.602H45.5736H47.3769H48.1965V101.352V103.004V103.755H46.3933H44.7539Z" fill="#7F7F7F"/>
<path d="M47.2129 112.763V112.462V110.811V109.609H48.0326H49.8358H50.6555V110.36V112.012V112.763H48.8522H47.2129Z" fill="#7F7F7F"/>
<path d="M50.6553 121.473V121.023V119.522V118.32H51.4749H53.2782H54.0979V119.071V120.723V121.473H52.2946H50.6553Z" fill="#7F7F7F"/>
<path d="M55.2461 129.731V129.281V127.779V126.578H56.0658H57.869H58.6887V127.329V128.981V129.731H56.8854H55.2461Z" fill="#7F7F7F"/>
<path d="M61.1475 137.239V134.086H64.5901V137.239H61.1475Z" fill="#7F7F7F"/>
</g>
<defs>
<clipPath id="clip0_2109_245946">
<rect width="150" height="150" fill="white"/>
</clipPath>
</defs>
</svg>
