<svg width="150" height="150" viewBox="0 0 150 150" fill="none" xmlns="http://www.w3.org/2000/svg">
<g clip-path="url(#clip0_2109_246266)">
<path d="M1.80176 8.92969H147.898L148.048 149.999H125.976V136.147H23.5735V149.999H1.80176V8.92969Z" fill="#E5E5E5" stroke="black" stroke-width="0.330856"/>
<path d="M149.249 52.6755L150 69.0789V85.6646L149.249 101.703L148.048 116.102L146.396 128.131L144.294 136.515L141.892 140.889H7.95796L5.55556 136.515L3.45345 128.131L1.8018 116.102L0.600601 101.703L0 85.6646V69.0789L0.600601 52.6755L1.8018 38.0947L3.45345 26.4301L5.55556 18.0461L7.95796 13.6719H141.892L144.294 17.6816L146.396 26.0656L148.048 38.0947L149.249 52.6755Z" fill="#CCCCCC"/>
<path d="M149.249 54.8609L150 69.2595V84.9338L149.249 99.5146L148.048 112.82L146.547 123.755L144.595 131.41L142.492 135.42H7.35736L5.25526 131.41L3.3033 123.755L1.8018 112.82L0.600601 99.8792L0 84.9338V69.2595L0.600601 54.8609L1.8018 41.3737L3.3033 30.4381L5.25526 22.7832L7.35736 18.7734H142.492L144.595 22.7832L146.547 30.4381L148.048 41.3737L149.249 54.8609Z" fill="#D1D1D1"/>
<path d="M149.249 56.6845L150 69.9895V84.2057L149.249 97.693L148.499 109.722L146.997 119.382L145.195 126.308L143.393 129.953H6.45646L4.65465 126.308L2.85285 119.382L1.35135 109.722L0.600601 97.693L0 84.2057V69.9895L0.600601 56.6845L1.35135 44.6553L2.85285 34.8133L4.65465 27.8874L6.45646 24.2422H143.393L145.195 27.8874L146.997 34.8133L148.499 44.6553L149.249 56.6845Z" fill="#D6D6D6"/>
<path d="M149.249 58.8725L150 70.7194V83.4776L149.249 95.5068L148.499 106.442L147.297 115.191L145.796 121.205L143.844 124.486H6.00601L4.05405 121.205L2.55255 115.191L1.35135 106.442L0.600601 95.5068L0 83.4776V70.7194L0.600601 58.8725L1.35135 47.9369L2.55255 39.1885L4.05405 32.9916L6.00601 29.7109H143.844L145.796 32.9916L147.297 39.1885L148.499 47.9369L149.249 58.8725Z" fill="#D9D9D9"/>
<path d="M149.249 60.8757L150 71.4468V82.7469L149.249 93.318L148.649 103.16L147.598 110.815L146.396 116.647L144.895 119.199H4.95496L3.45345 116.647L2.25225 110.815L1.2012 103.16L0.600601 93.318L0 82.7469V71.4468L0.600601 60.8757L1.2012 51.2159L2.25225 43.561L3.45345 38.0932L4.95496 34.8125H144.895L146.396 37.7287L147.598 43.561L148.649 51.2159L149.249 60.8757Z" fill="#DEDEDE"/>
<path d="M149.7 62.6992L150 72.1768V82.0188L149.7 91.4963L149.099 99.8803L147.898 106.806L146.547 111.545L145.495 114.097H4.35435L3.3033 111.545L1.95195 106.442L1.2012 99.8803L0.15015 91.4963L0 82.0188V72.1768L0.15015 62.6992L1.2012 54.3153L1.95195 47.9362L3.3033 42.8329L4.35435 40.2812H145.495L146.547 42.8329L147.898 47.9362L149.099 54.3153L149.7 62.6992Z" fill="#E3E3E3"/>
<path d="M149.7 64.8873L150 72.9067V81.2907L149.7 89.3101L149.099 96.236L148.499 102.433L147.297 106.443L146.396 108.63H3.9039L2.55255 106.443L1.8018 102.433L0.750751 96.6005L0.15015 89.3101L0 81.2907V72.9067L0.15015 64.8873L0.750751 57.5969L1.8018 51.9468L2.55255 47.9371L3.9039 45.75H146.396L147.297 47.9371L148.499 51.9468L149.099 58.1437L149.7 64.8873Z" fill="#E8E8E8"/>
<path d="M149.7 67.0754L150 73.6367V80.5626L149.7 87.124L149.249 92.9563L148.649 98.0596L147.898 101.34L146.997 103.163H2.85285L1.95195 101.34L1.35135 98.0596L0.600601 93.3208L0.15015 87.124L0 80.5626V73.6367L0.15015 67.0754L0.600601 61.4253L1.35135 56.322L1.95195 53.0414L2.85285 51.2188H146.997L147.898 53.0414L148.649 56.322L149.249 61.4253L149.7 67.0754Z" fill="#EDEDED"/>
<path d="M149.7 69.2556L150 74.3589V79.8267L149.7 84.93L149.249 89.6688L149.099 93.6785L148.499 96.5946L147.898 97.6882H2.25225L1.35135 96.5946L0.750751 93.6785L0.600601 89.6688L0.15015 85.2945L0 79.8267V74.3589L0.15015 69.2556L0.600601 64.5169L0.750751 60.6894L1.35135 58.1378L2.25225 56.6797H147.898L148.499 58.1378L149.099 60.6894L149.249 64.5169L149.7 69.2556Z" fill="#F2F2F2"/>
<path d="M150 71.0791V75.0888V79.0985V83.1082L149.7 86.3889L149.249 89.3051L148.649 91.4922L148.499 92.5858H1.35135L1.2012 91.4922L0.600601 89.3051L0.15015 86.3889V83.1082L0 79.0985V75.0888L0.15015 71.0791V67.7984L0.600601 64.8822L1.2012 62.6951L1.35135 61.6016H148.499L148.649 62.6951L149.249 64.8822L149.7 67.7984L150 71.0791Z" fill="#F5F5F5"/>
<path d="M150 73.2672V75.8188V78.3704V80.9221L149.7 83.1092V84.9318L149.249 86.3899V87.1189H0.750751L0.600601 86.3899L0.15015 84.9318V83.1092L0 80.9221V78.3704V75.8188V73.2672L0.15015 71.08V69.2574L0.600601 67.7994L0.750751 67.0703H149.249V67.7994L149.7 69.2574V71.08L150 73.2672Z" fill="#FAFAFA"/>
<path d="M150 75.4552V76.5488V77.6423V78.7359V79.8295V80.923V81.2875V81.6521H0V81.2875V80.923V79.8295V78.7359V77.6423V76.5488V75.4552V74.3617V73.6326V72.9036V72.5391H150V72.9036V73.6326V74.3617V75.4552Z" fill="white"/>
<path d="M149.249 52.6755L150 69.0789V85.6646L149.249 101.703L148.048 116.102L146.396 128.131L144.294 136.515L141.892 140.889H7.95796L5.55556 136.515L3.45345 128.131L1.8018 116.102L0.600601 101.703L0 85.6646V69.0789L0.600601 52.6755L1.8018 38.0947L3.45345 26.4301L5.55556 18.0461L7.95796 13.6719H141.892L144.294 17.6816L146.396 26.0656L148.048 38.0947L149.249 52.6755Z" stroke="black" stroke-width="0.330856"/>
<path d="M7.35742 90.7656H29.8799V150H7.35742V90.7656Z" fill="#F5F5F5"/>
<path d="M7.35742 90.7656V150H29.8799V90.7656" stroke="black" stroke-width="0.330856"/>
<path d="M63.6641 90.7656H86.1866V150H63.6641V90.7656Z" fill="#F5F5F5"/>
<path d="M63.6641 90.7656V150H86.1866V90.7656" stroke="black" stroke-width="0.330856"/>
<path d="M119.97 90.7656H142.492V150H119.97V90.7656Z" fill="#F5F5F5"/>
<path d="M119.97 90.7656V150H142.492V90.7656" stroke="black" stroke-width="0.330856"/>
<path d="M59.7598 6.74219H89.7898V8.92931H59.7598V6.74219Z" fill="#E5E5E5" stroke="black" stroke-width="0.330856"/>
<path d="M69.3691 0H80.4803V6.74362H69.3691V0Z" fill="#E5E5E5" stroke="black" stroke-width="0.330856"/>
<path d="M76.877 6.74362V0" stroke="black" stroke-width="0.330856"/>
</g>
<defs>
<clipPath id="clip0_2109_246266">
<rect width="150" height="150" fill="white"/>
</clipPath>
</defs>
</svg>
