<svg width="150" height="150" viewBox="0 0 150 150" fill="none" xmlns="http://www.w3.org/2000/svg">
<g clip-path="url(#clip0_2109_243544)">
<path d="M124.746 1.5H136.612V23.7222H124.746V1.5Z" fill="#669999" stroke="black" stroke-width="0.427479"/>
<path d="M12.4746 1.5H24.645V23.7222H12.4746V1.5Z" fill="#669999" stroke="black" stroke-width="0.427479"/>
<path d="M125.964 1.5H126.877H135.396V23.7222H125.964V21.3198V19.518V17.8664V15.1637L126.268 12.7613V11.1096L125.964 9.30781V7.05556V4.503V1.5Z" fill="#8FC2C2"/>
<path d="M13.6914 1.5H14.9084H23.4277V23.7222H13.6914V1.5Z" fill="#8FC2C2"/>
<path d="M128.397 1.5H132.961V23.7222H128.397V1.5Z" fill="#CCFFFF"/>
<path d="M16.4297 1.5H20.6893V23.7222H16.4297V1.5Z" fill="#CCFFFF"/>
<path d="M149.391 106.759L141.785 109.912L134.483 111.714L124.746 113.515L116.227 114.717L107.099 115.768L96.7546 116.669L86.1055 117.269H82.1501L78.499 117.419H74.5436L63.286 117.269L52.3327 116.669L42.2921 115.768L32.86 114.717L24.3408 113.515L14.6045 111.714L7.30223 109.912L0.30426 107.359L0 107.059V106.759V23.7256L4.25963 19.8217L12.4746 17.2692L21.9067 15.6175L29.8174 14.4163L38.9452 13.5154L48.9858 12.9148L59.6349 12.3142L66.9371 12.1641H70.8925H74.5436L86.1055 12.3142L96.7546 12.6145L107.099 13.2151L116.227 14.116L124.746 15.1671L134.483 16.8187L141.785 18.7707L148.479 21.9238L149.087 23.125L149.391 23.7256V106.759Z" fill="#669999"/>
<path d="M137.221 106.759L129.615 110.512L118.661 113.215L109.533 114.867L98.8843 116.368L87.0182 117.419L80.933 117.569L74.5436 117.72L68.1541 117.569L55.9837 116.969L45.0304 115.768L34.9898 114.116L26.7748 112.314L17.3428 109.612L12.7789 107.359L12.4746 106.759V104.356V23.7256L17.3428 19.2211L26.7748 16.3683L34.9898 14.8668L45.0304 13.5154L55.9837 12.6145L68.1541 12.1641H74.5436H80.933L93.1034 12.6145L104.361 13.5154L114.402 14.8668L122.921 16.3683L132.353 19.2211L136.917 22.5244L137.221 23.7256V26.128V106.759Z" fill="#7AADAD"/>
<path d="M125.354 106.759L125.05 107.359L118.965 110.512L110.446 113.215L102.839 114.867L94.32 116.368L84.5837 117.419L79.7155 117.569L74.5431 117.72L69.3707 117.569L59.9386 116.969L50.8109 115.768L42.9001 114.116L33.1638 111.413L26.7743 108.711L24.6445 107.359V106.759V104.356V23.7256L28.5999 19.2211L35.9021 16.3683L46.8555 14.116L55.3748 13.065L64.5025 12.3142L69.3707 12.1641H74.5431H79.7155L89.4518 12.6145L98.5796 13.5154L106.795 14.8668L116.531 17.2692L122.92 20.2722L125.05 22.5244L125.354 23.7256V26.128V106.759Z" fill="#8FC2C2"/>
<path d="M112.576 106.759L108.012 110.512L101.622 113.215L92.7988 115.768L82.4539 117.419L78.4986 117.569L74.5432 117.72L70.5878 117.569L59.9387 116.368L50.5067 114.116L43.2045 111.413L37.4235 107.96L36.815 107.359L36.5107 106.759V104.356V23.7256L39.5533 19.2211L47.7683 15.6175L56.5919 13.5154L66.9367 12.3142L70.5878 12.1641H74.5432H78.4986L89.4519 13.065L98.884 14.8668L106.186 17.2692L111.967 21.3232L112.576 26.128L112.88 30.6325V36.1881V40.8427V49.7016L113.184 51.3533L112.88 53.1551V67.2692V73.8758V81.5334V90.3923L112.576 95.4974V100.903V106.759Z" fill="#A3D6D6"/>
<path d="M100.406 106.759L96.1461 111.413L89.1482 114.867L79.7161 117.419L77.282 117.569L74.5437 117.72L71.8054 117.569L62.0691 115.768L54.4626 112.314L49.8987 108.711L48.6816 107.359V106.759V104.356V23.7256L50.5072 19.2211L55.9839 15.6175L64.1989 13.065L71.8054 12.1641H74.5437H77.282L87.0184 13.5154L94.6248 16.3683L99.493 20.2722L100.406 22.5244V23.7256V26.128V106.759Z" fill="#B8EBEB"/>
<path d="M88.5397 106.759L86.1057 111.263L81.2375 115.467L76.0651 117.269L74.5438 117.419L73.3268 117.269L65.7203 113.966L61.7649 109.461L60.8521 107.359L60.5479 106.759V23.7256L61.7649 19.2211L65.7203 14.8668L73.3268 12.1641H74.5438H76.0651L83.3673 14.8668L87.3227 19.2211L88.5397 22.5244V23.7256V106.759Z" fill="#CCFFFF"/>
<path d="M149.391 106.759L141.785 109.912L134.483 111.714L124.746 113.515L116.227 114.717L107.099 115.768L96.7546 116.669L86.1055 117.269H82.1501L78.499 117.419H74.5436L63.286 117.269L52.3327 116.669L42.2921 115.768L32.86 114.717L24.3408 113.515L14.6045 111.714L7.30223 109.912L0.30426 107.359L0 107.059V106.759V23.7256L4.25963 19.8217L12.4746 17.2692L21.9067 15.6175L29.8174 14.4163L38.9452 13.5154L48.9858 12.9148L59.6349 12.3142L66.9371 12.1641H70.8925H74.5436L86.1055 12.3142L96.7546 12.6145L107.099 13.2151L116.227 14.116L124.746 15.1671L134.483 16.8187L141.785 18.7707L148.479 21.9238L149.087 23.125L149.391 23.7256V106.759Z" stroke="black" stroke-width="0.427479"/>
<path d="M0 23.7266H149.391V28.3812H0V23.7266Z" stroke="black" stroke-width="0.427479"/>
<path d="M0.608398 106.758H147.262" stroke="black" stroke-width="0.427479"/>
<path d="M0.608398 89.3359H150V97.444H0.608398V89.3359Z" stroke="black" stroke-width="0.427479"/>
<path d="M0.608398 47.75H150V55.5578H0.608398V47.75Z" stroke="black" stroke-width="0.427479"/>
<path d="M74.5441 6.15625H111.968L111.055 8.55865L110.142 9.75985L109.23 10.8109L107.404 11.862L105.579 12.913L103.449 13.8139L101.015 14.7148L98.2763 15.6157L95.538 16.2163L92.4954 16.8169L89.1485 17.4175L85.8017 17.7178L82.1505 18.1683L78.4994 18.3184H74.5441H70.8929L67.2418 18.1683L63.5907 17.7178L60.2438 17.4175L56.897 16.8169L53.8544 16.2163L50.8118 15.6157L48.3777 14.7148L45.9436 13.8139L43.5096 12.913L41.684 11.862L40.1627 10.8109L38.9457 9.75985L37.4244 7.35745L37.1201 6.15625H74.5441Z" fill="#669999" stroke="black" stroke-width="0.427479"/>
<path d="M74.5441 12.012C95.2127 12.012 111.968 9.32303 111.968 6.00601C111.968 2.68898 95.2127 0 74.5441 0C53.8754 0 37.1201 2.68898 37.1201 6.00601C37.1201 9.32303 53.8754 12.012 74.5441 12.012Z" fill="#B2E5E5"/>
<path d="M74.8475 12.009C92.1554 12.009 106.186 9.99227 106.186 7.5045C106.186 5.01674 92.1554 3 74.8475 3C57.5396 3 43.5088 5.01674 43.5088 7.5045C43.5088 9.99227 57.5396 12.009 74.8475 12.009Z" fill="#99CCCC"/>
<path d="M74.8477 12.1623C88.6268 12.1623 99.797 10.8178 99.797 9.15925C99.797 7.50074 88.6268 6.15625 74.8477 6.15625C61.0686 6.15625 49.8984 7.50074 49.8984 9.15925C49.8984 10.8178 61.0686 12.1623 74.8477 12.1623Z" fill="#7FB2B2"/>
<path d="M74.5441 12.012C95.2127 12.012 111.968 9.32303 111.968 6.00601C111.968 2.68898 95.2127 0 74.5441 0C53.8754 0 37.1201 2.68898 37.1201 6.00601C37.1201 9.32303 53.8754 12.012 74.5441 12.012Z" stroke="black" stroke-width="0.427479"/>
<path d="M120.182 144.593V101.5L136.612 106.755V144.593H142.393V147.146H115.01V144.593H120.182Z" fill="#669999" stroke="black" stroke-width="0.427479"/>
<path d="M27.6875 144.593V101.5L11.2575 106.755V144.593H5.47656V147.146H32.8599V144.593H27.6875Z" fill="#669999" stroke="black" stroke-width="0.427479"/>
<path d="M0.608398 147.148H38.3366V150.001H0.608398V147.148Z" fill="#336666" stroke="black" stroke-width="0.427479"/>
<path d="M109.533 147.148H147.261V150.001H109.533V147.148Z" fill="#336666" stroke="black" stroke-width="0.427479"/>
</g>
<defs>
<clipPath id="clip0_2109_243544">
<rect width="150" height="150" fill="white"/>
</clipPath>
</defs>
</svg>
