<svg width="150" height="150" viewBox="0 0 150 150" fill="none" xmlns="http://www.w3.org/2000/svg">
<g clip-path="url(#clip0_2109_243425)">
<path d="M12.9393 9.35252H0V0H150V9.35252H137.54V140.647H150V150H0V140.647H12.9393V9.35252Z" fill="#7F7F7F"/>
<path d="M23.0034 9.35252H12.9395V0H137.54V9.35252H126.997V140.647H137.54V150H12.9395V140.647H23.0034V9.35252Z" fill="#999999"/>
<path d="M33.5464 9.35252H25.3994V0H125.08V9.35252H116.933V140.647H125.08V150H25.3994V140.647H33.5464V9.35252Z" fill="#B2B2B2"/>
<path d="M46.4852 9.35252H40.7344V0H109.265V9.35252H103.514V140.647H109.265V150H40.7344V140.647H46.4852V9.35252Z" fill="#CCCCCC"/>
<path d="M59.4252 9.35252H56.5498V0H93.93V9.35252H90.5754V140.647H93.93V150H56.5498V140.647H59.4252V9.35252Z" fill="#E5E5E5"/>
<path d="M69.9682 9.35252H69.0098V0H81.4698V9.35252H80.5114V140.647H81.4698V150H69.0098V140.647H69.9682V9.35252Z" fill="white"/>
<path d="M46.9648 9.35156H53.1949V18.7041H46.9648V9.35156Z" fill="#B2B2B2" stroke="black" stroke-width="0.830388"/>
<path d="M71.8848 9.35156H78.1148V18.7041H71.8848V9.35156Z" fill="#B2B2B2" stroke="black" stroke-width="0.830388"/>
<path d="M96.8047 9.35156H103.035V18.7041H96.8047V9.35156Z" fill="#B2B2B2" stroke="black" stroke-width="0.830388"/>
<path d="M46.9648 131.297H53.1949V140.649H46.9648V131.297Z" fill="#B2B2B2" stroke="black" stroke-width="0.830388"/>
<path d="M71.8848 131.297H78.1148V140.649H71.8848V131.297Z" fill="#B2B2B2" stroke="black" stroke-width="0.830388"/>
<path d="M96.8047 131.297H103.035V140.649H96.8047V131.297Z" fill="#B2B2B2" stroke="black" stroke-width="0.830388"/>
<path d="M137.54 131.297H143.77V140.649H137.54V131.297Z" fill="#999999" stroke="black" stroke-width="0.830388"/>
<path d="M121.726 131.297H127.956V140.649H121.726V131.297Z" fill="#999999" stroke="black" stroke-width="0.830388"/>
<path d="M6.70898 131.297H12.939V140.649H6.70898V131.297Z" fill="#999999" stroke="black" stroke-width="0.830388"/>
<path d="M22.0449 131.297H28.275V140.649H22.0449V131.297Z" fill="#999999" stroke="black" stroke-width="0.830388"/>
<path d="M137.54 9.35156H143.77V18.7041H137.54V9.35156Z" fill="#999999" stroke="black" stroke-width="0.830388"/>
<path d="M121.726 9.35156H127.956V18.7041H121.726V9.35156Z" fill="#999999" stroke="black" stroke-width="0.830388"/>
<path d="M6.70898 9.35156H12.939V18.7041H6.70898V9.35156Z" fill="#999999" stroke="black" stroke-width="0.830388"/>
<path d="M22.0449 9.35156H28.275V18.7041H22.0449V9.35156Z" fill="#999999" stroke="black" stroke-width="0.830388"/>
<path d="M12.9395 140.648H137.54" stroke="black" stroke-width="0.830388"/>
<path d="M12.9395 9.35156H137.54" stroke="black" stroke-width="0.830388"/>
<path d="M12.9393 9.35252H0V0H150V9.35252H137.54V140.647H150V150H0V140.647H12.9393V9.35252Z" stroke="black" stroke-width="0.830388"/>
</g>
<defs>
<clipPath id="clip0_2109_243425">
<rect width="150" height="150" fill="white"/>
</clipPath>
</defs>
</svg>
