<svg width="150" height="150" viewBox="0 0 150 150" fill="none" xmlns="http://www.w3.org/2000/svg">
<g clip-path="url(#clip0_2109_246204)">
<path d="M149.001 142.942V143.242L143.209 145.495L136.418 146.396L129.627 147.146L122.037 147.747L116.245 148.197L110.253 148.498L103.662 148.648L96.8707 148.948L89.8801 149.098H82.4899L78.695 149.249H74.9L67.3102 149.098H60.1197L52.9293 148.948L46.1384 148.648L39.7469 148.498L33.5552 148.197L27.9626 147.747L20.173 147.146L13.5818 146.396L6.79084 145.495L1.7975 143.993L0.998562 143.242L0.798828 142.942V19.2185L3.19563 14.714L8.18897 11.2605L13.5818 8.85811L20.173 6.90616L27.9626 4.9542L33.5552 3.90315L39.7469 3.00225L46.1384 2.2515L52.9293 1.50075L60.1197 1.0503L67.3102 0.75H71.1051H74.9H82.4899L89.8801 1.0503L96.8707 1.50075L103.662 2.2515L110.253 3.00225L116.245 3.90315L122.037 4.9542L127.23 6.15541L134.221 8.25751L140.013 10.5098L144.407 12.9122L148.202 16.5158L149.001 18.3176V19.2185V142.942Z" fill="#B2B29B"/>
<path d="M143.009 142.944V143.244L137.816 145.346L131.424 146.397L125.432 147.148L118.242 147.749L110.253 148.199L104.46 148.499L98.4683 148.8L92.0768 148.95L85.2858 149.1H82.0901H78.4949H75.0994H68.1087L61.3178 148.95L54.7266 148.8L48.5348 148.65L42.5428 148.349L34.3538 147.899L26.9636 147.298L20.5721 146.698L13.5814 145.647L8.38837 144.145L6.99023 143.244V142.944V19.2202L9.1873 14.5655L13.5814 11.2622L18.5748 8.85982L24.5668 6.75772L31.7572 4.95592L36.9503 3.90487L42.5428 3.00396L48.5348 2.10306L54.7266 1.50246L61.3178 1.05201L68.1087 0.751713L71.5042 0.601562H75.0994L81.8904 0.751713L88.6813 1.05201L95.2725 1.50246L101.464 2.10306L107.456 3.00396L113.049 3.90487L118.242 4.95592L125.432 6.75772L131.424 8.85982L136.418 11.2622L140.812 14.5655L143.009 18.3193V19.2202V142.944Z" fill="#B8B8A4"/>
<path d="M137.017 142.944V143.244L132.223 145.346L126.431 146.397L121.038 147.148L114.447 147.749L107.257 148.199L99.2674 148.65L90.4791 148.95L84.4871 149.1H81.2913H78.0956H75.0996H68.7081L62.5164 148.95L56.5244 148.8L48.1356 148.499L40.3459 148.049L33.3553 147.599L27.1635 146.848L20.3726 145.947L14.9798 144.445L12.9824 143.244V142.944V19.2202L14.9798 14.5655L18.9744 11.2622L23.5683 8.85982L29.1609 6.75772L35.5523 4.95592L42.7427 3.45442L48.1356 2.55351L53.7281 1.80276L59.5204 1.20216L65.5124 0.901863L68.7081 0.751713L71.9039 0.601562H75.0996L81.2913 0.751713L87.4831 1.05201L93.4751 1.50246L99.0676 2.10306L104.66 3.00396L112.05 4.35532L118.841 6.15712L124.634 8.25922L129.627 10.3613L134.221 13.6646L136.817 17.4184L137.017 18.3193V19.2202V142.944Z" fill="#BDBDA9"/>
<path d="M131.025 142.944L130.825 143.545L125.632 145.647L120.04 146.698L112.65 147.599L106.258 148.049L99.2676 148.499L91.6777 148.8L83.4886 149.1H80.6923H77.896H75.0998H66.5112L58.3221 148.8L50.7323 148.499L43.7416 148.049L37.3501 147.599L31.7576 146.848L25.7656 145.947L20.7722 144.445L19.1743 143.545L18.9746 143.244V142.944V19.2202L20.7722 14.5655L24.3674 11.2622L29.96 8.25922L35.3528 6.15712L41.3448 4.35532L48.3355 3.00396L55.7256 1.80276L63.715 1.05201L69.3075 0.751713L72.1038 0.601562H75.0998L83.4886 0.901863L91.6777 1.50246L99.2676 2.55351L106.258 3.90487L112.65 5.55652L118.242 7.50847L123.036 9.61057L127.63 12.9139L130.426 16.3673L131.025 18.3193V19.2202V142.944Z" fill="#BFBFAD"/>
<path d="M125.033 142.944L120.24 145.647L113.649 146.848L106.858 147.749L100.866 148.199L94.4741 148.65L87.4834 148.95L80.0933 149.1H77.4968H75.0999H67.3103L60.1199 148.8L53.329 148.499L46.9375 148.049L41.345 147.599L34.9535 146.698L28.9615 145.346L24.9668 143.244V142.944V19.2202L26.5647 14.5655L29.7604 11.2622L34.9535 8.25922L39.5474 6.15712L45.1399 4.35532L51.1319 3.00396L57.7231 1.80276L64.9135 1.05201L69.9069 0.751713L72.5034 0.601562H75.0999L82.6898 0.901863L89.8802 1.50246L96.6712 2.55351L103.063 3.90487L108.655 5.55652L113.649 7.50847L119.041 10.3613L122.836 13.6646L125.033 18.3193V19.2202V142.944Z" fill="#C4C4B2"/>
<path d="M119.041 142.944L118.841 143.545L113.848 145.947L107.656 147.148L101.465 147.899L94.0744 148.499L88.0824 148.8L81.6909 149.1H79.4938H77.2967H75.0997H68.3087L61.9172 148.8L55.9252 148.499L48.5351 147.899L42.3433 147.148L36.1516 145.947L31.358 143.845L30.9585 143.545V143.244L30.7588 142.944V19.2202L32.1569 14.5655L35.1529 11.2622L39.5471 8.25922L45.3393 5.55652L50.3327 3.90487L55.9252 2.55351L61.9172 1.50246L68.3087 0.901863L70.5058 0.751713L72.7029 0.601562H75.0997L81.6909 0.901863L88.0824 1.50246L94.0744 2.55351L99.6669 3.90487L104.66 5.55652L110.453 8.25922L114.847 11.2622L117.643 14.5655L119.041 18.3193V19.2202V142.944Z" fill="#C9C9BA"/>
<path d="M113.249 142.944L113.049 143.545L108.655 145.947L102.064 147.298L96.2716 148.049L89.8801 148.65L82.6897 148.95L78.8948 149.1H75.0998H71.1052L63.715 148.8L56.9241 148.349L50.7323 147.749L43.3422 146.397L38.5486 144.746L36.9507 143.545L36.751 142.944V19.2202L38.5486 13.6646L43.3422 8.85982L47.9361 6.15712L53.7283 3.90487L60.1198 2.10306L67.3102 1.05201L71.1052 0.751713L75.0998 0.601562L78.8948 0.751713L86.2849 1.50246L93.2756 3.00396L99.2676 4.95592L104.461 7.50847L108.655 10.3613L112.45 15.4664L113.049 17.4184L113.249 19.2202V142.944Z" fill="#CFCFC0"/>
<path d="M107.257 142.944L103.262 145.947L97.6699 147.298L90.2798 148.349L84.4875 148.8L78.2958 149.1H75.1H71.7046L65.5128 148.8L59.7205 148.349L52.3304 147.298L46.7378 145.947L42.9429 143.545L42.7432 142.944V19.2202L44.341 13.6646L48.3357 8.85982L54.5275 4.95592L59.7205 3.00396L65.5128 1.50246L71.7046 0.751713L75.1 0.601562L78.2958 0.751713L84.4875 1.50246L90.2798 3.00396L95.4729 4.95592L99.867 7.50847L104.661 12.013L107.057 17.4184L107.257 19.2202V142.944Z" fill="#D4D4C7"/>
<path d="M101.265 142.944L96.6714 146.397L91.6781 147.749L85.2866 148.65L77.6967 149.1H75.1002H72.3039L64.714 148.65L58.3226 147.749L53.3292 146.397L48.9351 143.545L48.7354 142.944V19.2202L49.9338 13.6646L53.3292 8.85982L58.3226 4.95592L64.714 2.10306L72.3039 0.751713L75.1002 0.601562L77.6967 0.751713L85.2866 2.10306L91.6781 4.95592L96.6714 8.85982L100.067 13.6646L101.066 17.4184L101.265 19.2202V142.944Z" fill="#D9D9CC"/>
<path d="M95.2725 142.944L91.6773 146.397L86.2845 148.049L79.0941 148.95L77.0967 149.1H75.0994H72.9023L67.1101 148.65L60.7186 147.298L55.7252 144.746L54.9263 143.545L54.7266 142.944V19.2202L55.7252 13.6646L58.3218 8.85982L62.1167 4.95592L67.1101 2.10306L72.9023 0.751713L75.0994 0.601562L77.0967 0.751713L82.889 2.10306L87.8824 4.95592L91.6773 8.85982L94.2738 13.6646L95.0728 17.4184L95.2725 19.2202V142.944Z" fill="#DBDBD1"/>
<path d="M89.2807 142.944L86.0849 146.848L80.4924 148.65L76.4977 149.1H75.0996H73.5017L67.1102 148.049L62.5164 145.947L60.9185 143.545L60.7188 142.944V19.2202L61.5177 13.6646L63.3153 8.85982L65.9118 4.95592L70.7054 1.50246L73.5017 0.751713L75.0996 0.601562L76.4977 0.751713L81.8905 3.00396L85.0863 6.15712L87.4831 10.3613L88.8812 15.4664L89.0809 17.4184L89.2807 19.2202V142.944Z" fill="#E0E0D6"/>
<path d="M83.0891 142.942L80.6923 147.297L74.9 149.249L69.1077 147.297L66.7109 142.942V19.2185L67.1104 13.8131L68.1091 8.85811L69.7069 4.9542L72.5032 1.50075L74.9 0.75L79.4939 3.90315L81.8907 8.85811L82.6896 13.8131L83.0891 19.2185V142.942Z" fill="#E5E5DD"/>
<path d="M149.001 142.942V143.242L143.209 145.495L136.418 146.396L129.627 147.146L122.037 147.747L116.245 148.197L110.253 148.498L103.662 148.648L96.8707 148.948L89.8801 149.098H82.4899L78.695 149.248H74.9L67.3101 149.098H60.1197L52.9293 148.948L46.1384 148.648L39.7469 148.498L33.5552 148.197L27.9626 147.747L20.173 147.146L13.5818 146.396L6.79084 145.495L1.7975 143.993L0.998562 143.242L0.798828 142.942V19.2185L3.19563 14.714L8.18897 11.2605L13.5818 8.85811L20.173 6.90616L27.9626 4.9542L33.5552 3.90315L39.7469 3.00225L46.1384 2.2515L52.9293 1.50075L60.1197 1.0503L67.3101 0.75H71.1051H74.9H82.4899L89.8801 1.0503L96.8707 1.50075L103.662 2.2515L110.253 3.00225L116.245 3.90315L122.037 4.9542L127.23 6.15541L134.221 8.25751L140.013 10.5098L144.407 12.9122L148.202 16.5158L149.001 18.3176V19.2185V142.942Z" stroke="black" stroke-width="0.346353"/>
<path d="M142.809 141.438V141.739L137.616 143.24L131.225 144.141L125.233 144.592L118.042 145.042L110.253 145.493L104.46 145.643L98.2685 145.793L91.8771 145.943H85.2858L81.8904 146.093H78.4949H68.1087L61.3178 145.943L54.9263 145.793L48.5348 145.643L42.7426 145.493L34.5535 145.192L26.9636 144.742L20.5721 144.291L13.7812 143.541L8.38837 142.49L7.18997 141.739L6.99023 141.438V81.0781H142.809V141.438Z" fill="#99997A"/>
<path d="M134.62 141.739L134.421 141.889L128.628 143.691L122.636 144.441L117.044 144.892L110.652 145.342L103.462 145.643L95.4726 145.943L87.0838 146.093L84.0878 146.243H81.0918H78.0957H69.1077L63.1157 146.093L54.7269 145.943L46.7376 145.643L39.5471 145.342L33.1557 144.892L27.3634 144.441L21.5711 143.691L16.378 142.339L15.5791 141.889V141.739V81.0781H134.62V141.739Z" fill="#A1A185"/>
<path d="M126.231 141.889L126.032 142.189L121.038 143.991L114.447 144.892L107.456 145.493L101.464 145.793L94.8732 146.243L87.8826 146.393L82.8892 146.544H80.2927H77.6961H69.9065L62.3166 146.393L55.326 146.243L48.535 145.793L42.543 145.493L35.7521 144.892L30.1595 144.141L24.9664 142.94L23.9678 142.189V141.889V81.0781H126.231V141.889Z" fill="#ABAB91"/>
<path d="M117.643 142.189L117.443 142.64L112.649 144.441L105.259 145.493L98.8678 145.943L91.6774 146.393L83.688 146.694L79.4936 146.844H70.7053L62.5162 146.544L54.7266 146.243L47.9357 145.793L42.1434 145.192L35.7519 143.991L32.5562 142.64L32.3564 142.189V81.0781H117.643V142.189Z" fill="#B2B29B"/>
<path d="M109.255 142.49L109.055 142.94L103.462 145.042L96.8713 145.943L88.2827 146.694L82.091 146.994H78.4958H71.5051L64.9139 146.844L58.7221 146.544L50.9325 145.643L44.9405 144.742L40.9458 142.94L40.7461 142.49V81.0781H109.255V142.49Z" fill="#BABAA6"/>
<path d="M100.866 142.64V143.24L95.0735 145.643L89.481 146.544L82.69 147.144L77.6967 147.294H69.9071L62.7167 146.844L56.9244 145.943L51.3318 144.592L49.3345 143.24L49.1348 142.64V81.0781H100.866V142.64Z" fill="#C4C4B2"/>
<path d="M92.4768 142.94L88.4822 145.943L83.2891 147.144L76.6979 147.595L69.9069 147.444L63.9149 146.544L58.9216 144.892L57.5234 142.94V81.0781H92.4768V142.94Z" fill="#CCCCBD"/>
<path d="M74.8997 84.0841C112.405 84.0841 142.809 82.7396 142.809 81.0811C142.809 79.4226 112.405 78.0781 74.8997 78.0781C37.3943 78.0781 6.99023 79.4226 6.99023 81.0811C6.99023 82.7396 37.3943 84.0841 74.8997 84.0841Z" fill="#B2B29B"/>
</g>
<defs>
<clipPath id="clip0_2109_246204">
<rect width="150" height="150" fill="white"/>
</clipPath>
</defs>
</svg>
