<svg width="150" height="150" viewBox="0 0 150 150" fill="none" xmlns="http://www.w3.org/2000/svg">
<g clip-path="url(#clip0_2109_242936)">
<path d="M25.623 103.438V108.058V112.324V116.945V121.21V125.475V130.096V134.362V138.983L27.7583 140.049L30.4273 140.404L33.0964 140.049L34.6978 138.983V105.57L25.623 103.438Z" fill="black" stroke="black" stroke-width="0.871188"/>
<path d="M124.377 103.438V108.058V112.324V116.945V121.21V125.475V130.096V134.362V138.983L122.242 140.049L119.573 140.404L116.904 140.049L114.769 138.983V105.57L124.377 103.438Z" fill="black" stroke="black" stroke-width="0.871188"/>
<path d="M150 86.019V8.17536L148.399 6.3981L144.128 4.9763L137.189 3.5545L128.114 2.48815L116.904 1.4218L104.093 0.7109L90.2135 0H60.3203L45.9075 0.7109L33.0961 1.4218L21.8861 2.48815L12.8114 3.5545L5.87189 4.9763L1.60142 6.3981L0 8.17536V86.019L1.60142 87.7962L5.87189 89.218L12.8114 90.6398L21.8861 91.7062L33.0961 92.7725L45.9075 93.4834L60.3203 94.1943H90.2135L104.093 93.4834L116.904 92.7725L128.114 91.7062L137.189 90.6398L144.128 89.218L148.399 87.7962L150 86.019Z" fill="#7F7F7F" stroke="black" stroke-width="0.871188"/>
<path d="M150 87.082V86.3711V86.0156L148.399 87.7929L144.128 89.2147L137.189 90.6365L128.114 91.7028L116.904 92.7692L104.093 93.4801L90.2135 94.191H60.3203L45.9075 93.4801L33.0961 92.7692L21.8861 91.7028L12.8114 90.6365L5.87189 89.2147L1.60142 87.7929L0 86.0156V87.082L2.13523 94.5464L6.9395 100.945L14.4128 106.987L23.4875 111.963L34.1637 116.229L46.9751 119.428L60.8541 121.205L75.2669 121.916L89.6797 121.205L103.559 119.428L115.836 116.229L126.512 111.963L135.587 106.987L143.061 100.945L147.865 94.191L150 87.082Z" fill="#7F7F7F" stroke="black" stroke-width="0.871188"/>
<path d="M137.722 86.019V8.17536L136.655 6.3981L132.918 4.9763L127.046 3.5545L119.573 2.48815L109.964 1.4218L99.288 0.7109L87.5442 0H62.4553L50.7115 0.7109L40.0354 1.4218L30.9606 2.48815L22.9535 3.5545L17.0816 4.9763L13.345 6.3981L12.2773 8.17536V86.019L13.345 87.7962L17.0816 89.218L22.9535 90.6398L30.9606 91.7062L40.0354 92.7725L50.7115 93.4834L62.4553 94.1943H87.5442L99.288 93.4834L109.964 92.7725L119.573 91.7062L127.046 90.6398L132.918 89.218L136.655 87.7962L137.722 86.019Z" fill="#999999"/>
<path d="M137.722 87.082V86.3711V86.0156L136.655 87.7929L132.918 89.2147L127.046 90.6365L119.573 91.7028L109.964 92.7692L99.288 93.4801L87.5442 94.191H62.4553L50.7115 93.4801L40.0354 92.7692L30.9606 91.7028L22.9535 90.6365L17.0816 89.2147L13.345 87.7929L12.2773 86.0156V87.082L14.4126 94.5464L18.1492 100.945L24.5549 106.987L32.0282 111.963L41.103 116.229L51.7791 119.428L62.9891 121.205L75.2667 121.916L87.0104 121.205L98.7542 119.428L108.897 116.229L117.971 111.963L125.978 106.987L131.85 100.945L136.121 94.191L137.722 87.082Z" fill="#999999"/>
<path d="M116.904 86.019V8.17536L115.836 6.3981L109.964 3.5545L104.626 2.48815L98.7541 1.4218L91.2808 0.7109L83.8074 0H66.7256L59.2523 0.7109L51.779 1.4218L45.3733 2.48815L36.2986 4.9763L34.1633 6.3981L33.0957 8.17536V86.019L34.1633 87.7962L40.569 90.6398L45.3733 91.7062L51.779 92.7725L59.2523 93.4834L66.7256 94.1943H83.8074L91.2808 93.4834L98.7541 92.7725L104.626 91.7062L109.964 90.6398L115.836 87.7962L116.904 86.019Z" fill="#B2B2B2"/>
<path d="M116.904 87.082V86.3711V86.0156L115.836 87.7929L109.964 90.6365L104.626 91.7028L98.7541 92.7692L91.2808 93.4801L83.8074 94.191H66.7256L59.2523 93.4801L51.779 92.7692L45.3733 91.7028L36.2986 89.2147L34.1633 87.7929L33.0957 86.0156V87.082L34.6971 94.5464L37.3662 100.945L41.1028 106.987L46.4409 111.963L52.3128 116.229L59.2523 119.428L67.2594 121.205L75.2665 121.916L83.2736 121.205L90.7469 119.428L97.6864 116.229L104.092 111.963L108.896 106.987L113.167 100.945L115.836 94.191L116.904 87.082Z" fill="#B2B2B2"/>
<path d="M96.0859 86.019V8.17536L92.3492 3.5545L87.0111 1.4218L79.5378 0H70.9969L63.5236 1.4218L57.6517 3.5545L53.915 8.17536V86.019L57.6517 90.6398L63.5236 92.7725L70.9969 94.1943H79.5378L87.0111 92.7725L92.3492 90.6398L96.0859 86.019Z" fill="#CCCCCC"/>
<path d="M96.0849 87.082V86.3711V86.0156L95.5511 87.7929L94.4835 89.2147L92.3482 90.6365L89.6792 91.7028L87.0101 92.7692L83.2735 93.4801L79.5368 94.191H70.9959L66.7255 93.4801L63.5226 92.7692L60.3198 91.7028L57.6507 90.6365L55.5155 89.2147L54.4479 87.7929L53.9141 86.0156V87.082L54.4479 94.5464L56.0493 100.945L58.1845 106.987L60.8536 111.963L64.0564 116.229L67.2593 119.428L70.9959 121.205L75.2664 121.916L79.003 121.205L82.7397 119.428L86.4763 116.229L89.6792 111.963L91.8144 106.987L93.9496 100.945L95.5511 94.191L96.0849 87.082Z" fill="#CCCCCC"/>
<path d="M74.7331 16.3507C116.007 16.3507 149.466 12.6905 149.466 8.17536C149.466 3.66023 116.007 0 74.7331 0C33.4591 0 0 3.66023 0 8.17536C0 12.6905 33.4591 16.3507 74.7331 16.3507Z" stroke="black" stroke-width="0.871188"/>
<path d="M150 86.0156L148.399 87.7929L144.128 89.2147L137.189 90.6365L128.114 91.7028L116.904 92.7692L104.093 93.4801L90.2135 94.191H75.2669H60.3203L45.9075 93.4801L33.0961 92.7692L21.8861 91.7028L12.8114 90.6365L5.87189 89.2147L1.60142 87.7929L0 86.0156" stroke="black" stroke-width="0.871188"/>
<path d="M74.7331 16.3507C116.007 16.3507 149.466 12.6905 149.466 8.17536C149.466 3.66023 116.007 0 74.7331 0C33.4591 0 0 3.66023 0 8.17536C0 12.6905 33.4591 16.3507 74.7331 16.3507Z" fill="#7F7F7F" stroke="black" stroke-width="0.871188"/>
<path d="M9.07422 93.8359V100.945V107.698V114.097V120.85V127.604V134.002V140.755V147.864L11.7433 149.286L16.0137 149.997L20.2842 149.286L22.9532 147.864V106.277L9.07422 93.8359Z" fill="#333333" stroke="black" stroke-width="0.871188"/>
<path d="M11.21 95.2578V102.011V108.765V115.163V121.561V127.959V134.357V141.111V147.864L13.3452 149.286L16.0142 149.997L18.6833 149.286L20.8185 147.864V104.855L11.21 95.2578Z" fill="#4C4C4C"/>
<path d="M16.0141 149.646C17.1934 149.646 18.1494 138.188 18.1494 124.053C18.1494 109.919 17.1934 98.4609 16.0141 98.4609C14.8349 98.4609 13.8789 109.919 13.8789 124.053C13.8789 138.188 14.8349 149.646 16.0141 149.646Z" fill="#666666"/>
<path d="M140.392 93.8359V100.945V107.698V114.097V120.85V127.604V134.002V140.755V147.864L137.723 149.286L133.452 149.997L129.182 149.286L126.513 147.864V106.277L140.392 93.8359Z" fill="#333333" stroke="black" stroke-width="0.871188"/>
<path d="M138.256 95.2578V102.011V108.765V115.163V121.561V127.959V134.357V141.111V147.864L136.121 149.286L133.452 149.997L130.783 149.286L128.647 147.864V104.855L138.256 95.2578Z" fill="#4C4C4C"/>
<path d="M133.452 149.646C134.631 149.646 135.587 138.188 135.587 124.053C135.587 109.919 134.631 98.4609 133.452 98.4609C132.272 98.4609 131.316 109.919 131.316 124.053C131.316 138.188 132.272 149.646 133.452 149.646Z" fill="#666666"/>
</g>
<defs>
<clipPath id="clip0_2109_242936">
<rect width="150" height="150" fill="white"/>
</clipPath>
</defs>
</svg>
