<svg width="150" height="150" viewBox="0 0 150 150" fill="none" xmlns="http://www.w3.org/2000/svg">
<path d="M144.732 19.6676H4.95898L6.81849 13.2112L11.7772 9.30727L19.2152 6.60457L28.2028 4.80276L39.3598 3.90186L45.5582 3.60156H98.8639L110.641 3.90186L121.488 4.80276L130.785 6.60457L138.223 9.30727L142.872 13.2112L144.732 18.7667V19.6676Z" fill="#E5E5E5" stroke="black" stroke-width="0.431435"/>
<path d="M89.5664 3.0015H112.5V1.5H89.5664V3.0015Z" fill="black"/>
<path d="M32.5414 8.70817H32.2315H23.8637L20.7646 8.40787H19.8348L17.3555 7.80727V2.10156H32.5414V8.70817Z" fill="black"/>
<path d="M129.546 7.80727L127.066 8.40787L123.657 8.70817H123.347H114.05V2.10156H129.546V7.80727Z" fill="black"/>
<path d="M94.5244 3H107.541V3.9009L94.5244 3.6006V3Z" fill="black"/>
<path d="M108.781 2.10306H135.124V0.601562H108.781V2.10306Z" fill="black"/>
<path d="M11.7773 2.10306H37.5005V0.601562H11.7773V2.10306Z" fill="black"/>
<path d="M39.3594 3.0015H61.9833V1.5H39.3594V3.0015Z" fill="black"/>
<path d="M44.3184 3H57.025V3.6006L44.3184 3.9009V3Z" fill="black"/>
<path d="M57.0244 2.10306H90.8054V0.601562H57.0244V2.10306Z" fill="black"/>
<path d="M64.4629 2.10156H84.2976V9.30877H64.4629V2.10156Z" fill="black"/>
<path d="M95.1445 3H106.302V3.9009L95.1445 3.6006V3Z" fill="#B2B2B2"/>
<path d="M30.6822 8.71256L29.4425 9.01286L26.3434 8.86271L23.2442 8.71256L20.145 8.41226H19.8351L19.2153 8.26211L17.9756 7.81166V2.40625H30.6822V8.71256Z" fill="#B2B2B2"/>
<path d="M127.685 8.11196V8.26211V8.41226H127.376L124.276 8.56241L121.487 8.71256L118.078 9.01286L114.669 8.71256V2.40625H127.685V8.11196Z" fill="#B2B2B2"/>
<path d="M90.1855 3.00589H110.02V1.80469H90.1855V3.00589Z" fill="#B2B2B2"/>
<path d="M44.3184 3H56.0952V3.6006H44.3184V3Z" fill="#B2B2B2"/>
<path d="M39.9795 3.00589H59.5043V1.80469H39.9795V3.00589Z" fill="#B2B2B2"/>
<path d="M109.4 2.09964H132.024V0.898438H109.4V2.09964Z" fill="#B2B2B2"/>
<path d="M65.083 2.40625H81.8185V9.31316H65.083V2.40625Z" fill="#B2B2B2"/>
<path d="M58.2646 2.09964H87.087V0.898438H58.2646V2.09964Z" fill="#B2B2B2"/>
<path d="M12.3965 2.09964H35.0204V0.898438H12.3965V2.09964Z" fill="#B2B2B2"/>
<path d="M4.95898 20.2734H144.732V90.6939L143.492 97.1503L138.843 102.856L132.025 107.661L123.347 111.715L112.81 115.018L101.343 117.421L88.3267 118.922L75.0003 119.523L61.3639 118.922L49.2772 117.421L36.8805 115.318L26.6532 112.015L17.3557 107.961L10.5375 103.156L6.19865 97.1503L4.95898 90.6939V20.2734Z" fill="#B2B2B2" stroke="black" stroke-width="0.431435"/>
<path d="M144.731 20.2734V90.6939L143.491 97.1503L138.843 102.856L132.025 107.661L123.347 111.715L112.81 115.018L101.343 117.421L88.3262 118.922L74.9997 119.523L61.3634 118.922L49.2766 117.421L36.8799 115.318L58.884 113.216L81.1981 109.312L97.0038 103.156L103.822 93.6969V20.2734H144.731Z" fill="black"/>
<path d="M26.0329 111.711L57.0247 112.612H92.6652L124.587 111.711L126.446 112.312L123.347 115.615L119.008 116.516L92.6652 117.417H57.0247L33.161 116.516L26.0329 113.813L25.4131 112.312L26.0329 111.711Z" fill="#F0F0F0" stroke="black" stroke-width="0.431435"/>
<path d="M14.256 104.953L57.0246 106.455H92.6651L136.983 104.953L139.463 105.554L137.603 108.857L133.884 109.608L92.6651 111.109H57.0246L17.3552 109.608L13.6362 108.857L12.3965 105.554L14.256 104.953Z" fill="#F0F0F0" stroke="black" stroke-width="0.431435"/>
<path d="M7.43832 98.6519L21.6945 98.9522L57.0251 100.153H92.6656L128.306 98.9522L143.492 98.3516L145.352 98.9522L144.732 102.556L141.013 103.457L128.306 104.057L92.6656 104.958H57.0251L21.6945 104.057L9.91766 103.457L6.81849 102.556L4.95898 99.2525L7.43832 98.6519Z" fill="#F0F0F0" stroke="black" stroke-width="0.431435"/>
<path d="M4.95883 92.1953L21.6944 92.7959L57.0249 93.9971H92.6654L128.306 92.7959L144.732 92.1953L147.831 92.7959V95.9491L145.351 96.85L128.306 97.4506L92.6654 98.6518H57.0249L21.6944 97.4506L5.57867 96.85L3.09933 95.9491L2.47949 92.7959L4.95883 92.1953Z" fill="#F0F0F0" stroke="black" stroke-width="0.431435"/>
<path d="M4.33843 85.8828L21.6938 86.4834L57.0244 87.6846H92.6649L128.305 86.4834L145.351 85.8828L148.45 86.4834V89.7867L145.351 90.6876L128.305 91.2882L92.6649 92.4894H57.0244L21.6938 91.2882L4.33843 90.6876L1.23926 89.7867V86.4834L4.33843 85.8828Z" fill="#F0F0F0" stroke="black" stroke-width="0.431435"/>
<path d="M4.33843 79.7266L21.6938 80.3272L57.0244 81.5284H92.6649L128.305 80.3272L145.351 79.7266L148.45 80.3272V83.4803L145.351 84.3812L128.305 84.9818L92.6649 86.183H57.0244L21.6938 84.9818L4.33843 84.3812L1.23926 83.4803V80.3272L4.33843 79.7266Z" fill="#F0F0F0" stroke="black" stroke-width="0.431435"/>
<path d="M4.33843 73.4219L21.6938 74.0225L57.0244 75.2237H92.6649L128.305 74.0225L145.351 73.4219L148.45 74.0225V77.3258L145.351 78.2267L128.305 78.8273L92.6649 80.0285H57.0244L21.6938 78.8273L4.33843 78.2267L1.23926 77.3258V74.0225L4.33843 73.4219Z" fill="#F0F0F0" stroke="black" stroke-width="0.431435"/>
<path d="M4.33843 67.2656L21.6938 67.8662L57.0244 68.9173H92.6649L128.305 67.8662L145.351 67.2656L148.45 67.8662V71.0194L145.351 71.9203L128.305 72.5209L92.6649 73.7221H57.0244L21.6938 72.5209L4.33843 71.9203L1.23926 71.0194V67.8662L4.33843 67.2656Z" fill="#F0F0F0" stroke="black" stroke-width="0.431435"/>
<path d="M4.33843 60.9609L21.6938 61.5615L57.0244 62.7627H92.6649L128.305 61.5615L145.351 60.9609L148.45 61.5615V64.8648L145.351 65.7657L128.305 66.3663L92.6649 67.5675H57.0244L21.6938 66.3663L4.33843 65.7657L1.23926 64.8648V61.5615L4.33843 60.9609Z" fill="#F0F0F0" stroke="black" stroke-width="0.431435"/>
<path d="M4.33843 54.6562L21.6938 55.2569L57.0244 56.4581H92.6649L128.305 55.2569L145.351 54.6562L148.45 55.2569V58.5602L145.351 59.4611L128.305 60.0617L92.6649 61.2629H57.0244L21.6938 60.0617L4.33843 59.4611L1.23926 58.5602V55.2569L4.33843 54.6562Z" fill="#F0F0F0" stroke="black" stroke-width="0.431435"/>
<path d="M4.33843 48.5L21.6938 49.1006L57.0244 50.3018H92.6649L128.305 49.1006L145.351 48.5L148.45 49.1006V52.4039L145.351 53.3048L128.305 53.9054L92.6649 54.9565H57.0244L21.6938 53.9054L4.33843 53.3048L1.23926 52.4039V49.1006L4.33843 48.5Z" fill="#F0F0F0" stroke="black" stroke-width="0.431435"/>
<path d="M4.33843 42.1953L21.6938 42.7959L57.0244 43.9971H92.6649L128.305 42.7959L145.351 42.1953L148.45 42.7959V46.0992L145.351 47.0001L128.305 47.6007L92.6649 48.8019H57.0244L21.6938 47.6007L4.33843 47.0001L1.23926 46.0992V42.7959L4.33843 42.1953Z" fill="#F0F0F0" stroke="black" stroke-width="0.431435"/>
<path d="M4.33843 36.0391L21.6938 36.6397L57.0244 37.8409H92.6649L128.305 36.6397L145.351 36.0391L148.45 36.6397V39.943L145.351 40.8439L128.305 41.2943L92.6649 42.4955H57.0244L21.6938 41.2943L4.33843 40.8439L1.23926 39.943V36.6397L4.33843 36.0391Z" fill="#F0F0F0" stroke="black" stroke-width="0.431435"/>
<path d="M4.33843 29.7266L21.6938 30.3272L57.0244 31.5284H92.6649L128.305 30.3272L145.351 29.7266L148.45 30.3272V33.6305L145.351 34.5314L128.305 35.132L92.6649 36.3332H57.0244L21.6938 35.132L4.33843 34.5314L1.23926 33.6305V30.3272L4.33843 29.7266Z" fill="#F0F0F0" stroke="black" stroke-width="0.431435"/>
<path d="M4.33843 23.5703L21.6938 24.1709L57.0244 25.3721H92.6649L128.305 24.1709L145.351 23.5703L148.45 24.1709V27.3241L145.351 28.225L128.305 28.8256L92.6649 30.0268H57.0244L21.6938 28.8256L4.33843 28.225L1.23926 27.3241V24.1709L4.33843 23.5703Z" fill="#F0F0F0" stroke="black" stroke-width="0.431435"/>
<path d="M4.33843 17.2656L21.6938 17.8662L57.0244 19.0674H92.6649L128.305 17.8662L145.351 17.2656L148.45 17.8662V21.1695L145.351 22.0704L128.305 22.671L92.6649 23.8722H57.0244L21.6938 22.671L4.33843 22.0704L1.23926 21.1695V17.8662L4.33843 17.2656Z" fill="#F0F0F0" stroke="black" stroke-width="0.431435"/>
<path d="M1.23926 21.1719L36.8798 22.6734L73.7599 23.274L111.26 22.6734L148.45 21.1719" stroke="black" stroke-width="0.431435"/>
<path d="M1.23926 27.3281L36.8798 28.8296L73.7599 29.4302L111.26 28.8296L148.45 27.3281" stroke="black" stroke-width="0.431435"/>
<path d="M1.23926 33.6328L36.8798 35.1343L73.7599 35.7349L111.26 35.1343L148.45 33.6328" stroke="black" stroke-width="0.431435"/>
<path d="M1.23926 39.9375L36.8798 41.2889L73.7599 41.8895L111.26 41.2889L148.45 39.9375" stroke="black" stroke-width="0.431435"/>
<path d="M1.23926 46.0938L36.8798 47.5953L73.7599 48.1959L111.26 47.5953L148.45 46.0938" stroke="black" stroke-width="0.431435"/>
<path d="M1.23926 52.4062L36.8798 53.9078L73.7599 54.5084L111.26 53.9078L148.45 52.4062" stroke="black" stroke-width="0.431435"/>
<path d="M1.23926 58.5547L36.8798 60.0562L73.7599 60.6568L111.26 60.0562L148.45 58.5547" stroke="black" stroke-width="0.431435"/>
<path d="M1.23926 64.8672L36.8798 66.3687L73.7599 66.9693L111.26 66.3687L148.45 64.8672" stroke="black" stroke-width="0.431435"/>
<path d="M1.23926 71.0234L36.8798 72.5249L73.7599 73.1255L111.26 72.5249L148.45 71.0234" stroke="black" stroke-width="0.431435"/>
<path d="M1.23926 77.3281L36.8798 78.8296L73.7599 79.4302L111.26 78.8296L148.45 77.3281" stroke="black" stroke-width="0.431435"/>
<path d="M1.23926 83.4844L36.8798 84.9859L73.7599 85.5865L111.26 84.9859L148.45 83.4844" stroke="black" stroke-width="0.431435"/>
<path d="M1.23926 89.7891L36.8798 91.2906L73.7599 91.8912L111.26 91.2906L148.45 89.7891" stroke="black" stroke-width="0.431435"/>
<path d="M3.09961 96.2456L36.8806 97.4468L73.7608 98.0474L111.261 97.4468L148.451 95.9453" stroke="black" stroke-width="0.431435"/>
<path d="M7.43848 102.855L36.8806 104.056L73.7608 104.356L111.261 103.756L143.492 102.555" stroke="black" stroke-width="0.431435"/>
<path d="M14.876 109.312L73.7603 110.514L135.744 109.312" stroke="black" stroke-width="0.431435"/>
<path d="M31.9219 116.219L73.7607 116.819L120.248 116.219" stroke="black" stroke-width="0.431435"/>
<path d="M110.021 2.09964H127.686V0.898438H110.021V2.09964Z" fill="#E0E0E0"/>
<path d="M28.2029 8.71256H27.8929H27.583H26.9632H26.6533H26.0334H25.7235H25.1037H24.7938H23.864H23.2442L22.6243 8.56241H22.0045H21.3847L20.7648 8.41226H20.145H19.8351L19.2153 8.26211L18.9053 8.11196H18.5954H17.9756V2.40625H28.2029V8.71256Z" fill="#E0E0E0"/>
<path d="M125.206 8.71256H124.276H123.657H123.347H122.727H122.107H121.487L120.867 8.86271H119.938H119.318L118.698 9.01286H118.078H117.148H116.838L116.219 8.86271L115.599 8.71256H114.669V2.40625H125.206V8.71256Z" fill="#E0E0E0"/>
<path d="M58.8848 2.09964H81.8187V0.898438H58.8848V2.09964Z" fill="#E0E0E0"/>
<path d="M65.083 2.40625H78.7194V9.31316H65.083V2.40625Z" fill="#E0E0E0"/>
<path d="M13.0166 2.09964H30.0621V0.898438H13.0166V2.09964Z" fill="#E0E0E0"/>
<path d="M12.3965 2.10156H13.6362V2.40186H12.3965V2.10156Z" fill="#7F7F7F"/>
<path d="M14.876 2.10156H16.1156V2.40186H14.876V2.10156Z" fill="#7F7F7F"/>
<path d="M16.7354 2.10156H18.5949V2.40186H16.7354V2.10156Z" fill="#7F7F7F"/>
<path d="M19.2148 2.10156H21.0743V2.40186H19.2148V2.10156Z" fill="#7F7F7F"/>
<path d="M21.6943 2.10156H22.934V2.40186H21.6943V2.10156Z" fill="#7F7F7F"/>
<path d="M23.5537 2.10156H25.4132V2.40186H23.5537V2.10156Z" fill="#7F7F7F"/>
<path d="M26.0332 2.10156H27.8927V2.40186H26.0332V2.10156Z" fill="#7F7F7F"/>
<path d="M28.2021 2.10156H29.4418V2.40186H28.2021V2.10156Z" fill="#7F7F7F"/>
<path d="M30.0615 2.10156H31.921V2.40186H30.0615V2.10156Z" fill="#7F7F7F"/>
<path d="M32.541 2.10156H34.4005V2.40186H32.541V2.10156Z" fill="#7F7F7F"/>
<path d="M35.0205 2.10156H36.88V2.40186H35.0205V2.10156Z" fill="#7F7F7F"/>
<path d="M57.6445 2.10156H59.504V2.40186H57.6445V2.10156Z" fill="#7F7F7F"/>
<path d="M60.7441 2.10156H62.6036V2.40186H60.7441V2.10156Z" fill="#7F7F7F"/>
<path d="M63.8428 2.10156H65.7023V2.40186H63.8428V2.10156Z" fill="#7F7F7F"/>
<path d="M66.9424 2.10156H68.8019V2.40186H66.9424V2.10156Z" fill="#7F7F7F"/>
<path d="M69.4219 2.10156H71.9012V2.40186H69.4219V2.10156Z" fill="#7F7F7F"/>
<path d="M72.5205 2.10156H74.9998V2.40186H72.5205V2.10156Z" fill="#7F7F7F"/>
<path d="M75.6201 2.10156H77.4796V2.40186H75.6201V2.10156Z" fill="#7F7F7F"/>
<path d="M78.7188 2.10156H80.5783V2.40186H78.7188V2.10156Z" fill="#7F7F7F"/>
<path d="M81.8184 2.10156H83.6779V2.40186H81.8184V2.10156Z" fill="#7F7F7F"/>
<path d="M84.6074 2.10156H86.4669V2.40186H84.6074V2.10156Z" fill="#7F7F7F"/>
<path d="M87.0869 2.10156H89.5663V2.40186H87.0869V2.10156Z" fill="#7F7F7F"/>
<path d="M109.4 2.10156H111.26V2.40186H109.4V2.10156Z" fill="#7F7F7F"/>
<path d="M111.88 2.10156H112.81V2.40186H111.88V2.10156Z" fill="#7F7F7F"/>
<path d="M113.43 2.10156H115.289V2.40186H113.43V2.10156Z" fill="#7F7F7F"/>
<path d="M115.909 2.10156H117.769V2.40186H115.909V2.10156Z" fill="#7F7F7F"/>
<path d="M118.389 2.10156H119.628V2.40186H118.389V2.10156Z" fill="#7F7F7F"/>
<path d="M120.248 2.10156H122.108V2.40186H120.248V2.10156Z" fill="#7F7F7F"/>
<path d="M122.728 2.10156H124.587V2.40186H122.728V2.10156Z" fill="#7F7F7F"/>
<path d="M125.207 2.10156H127.067V2.40186H125.207V2.10156Z" fill="#7F7F7F"/>
<path d="M127.686 2.10156H128.925V2.40186H127.686V2.10156Z" fill="#7F7F7F"/>
<path d="M129.546 2.10156H131.405V2.40186H129.546V2.10156Z" fill="#7F7F7F"/>
<path d="M132.024 2.10156H133.884V2.40186H132.024V2.10156Z" fill="#7F7F7F"/>
<path d="M18.5947 8.11196H18.9046L19.2146 8.26211L19.8344 8.41226V2.40625H18.5947V8.11196Z" fill="white"/>
<path d="M115.289 8.71256H115.599H115.909H116.219H116.529V2.40625H115.289V8.71256Z" fill="white"/>
<path d="M110.641 2.09964H112.5V0.898438H110.641V2.09964Z" fill="white"/>
<path d="M65.7021 2.40625H67.5617V9.31316H65.7021V2.40625Z" fill="white"/>
<path d="M58.8848 2.09964H61.9839V0.898438H58.8848V2.09964Z" fill="white"/>
<path d="M13.6367 2.09964H15.4962V0.898438H13.6367V2.09964Z" fill="white"/>
<path d="M123.347 111.71H124.586L126.446 112.311L123.347 115.614L119.008 116.515L111.88 116.815V120.419H146.591V107.656H138.843L137.603 108.857L133.884 109.608L127.066 109.909L123.347 111.71Z" fill="#B2B2B2" stroke="black" stroke-width="0.431435"/>
<path d="M38.7401 116.815L33.1616 116.515L26.0335 113.812L25.4137 112.311L26.0335 111.71L21.6947 109.909L17.3558 109.608L13.6368 108.857L12.3971 107.656H3.09961V120.419H38.7401V116.815Z" fill="#B2B2B2" stroke="black" stroke-width="0.431435"/>
<path d="M83.0576 109.906H85.8469V123.27H83.0576V109.906Z" fill="#B2B2B2" stroke="black" stroke-width="0.431435"/>
<path d="M66.9424 109.906H70.0416V123.27H66.9424V109.906Z" fill="#B2B2B2" stroke="black" stroke-width="0.431435"/>
<path d="M148.45 122.524H119.628V120.422H148.45V122.524Z" fill="#7F7F7F" stroke="black" stroke-width="0.431435"/>
<path d="M1.85938 122.524H30.6817V120.422H1.85938V122.524Z" fill="#7F7F7F" stroke="black" stroke-width="0.431435"/>
<path d="M145.351 149.25H126.446V147.148H130.165V122.523H141.632V147.148H145.351V149.25Z" fill="#F0F0F0" stroke="black" stroke-width="0.431435"/>
<path d="M85.8471 149.248H66.3223V147.146H70.6611V122.672H81.8181V147.146H85.8471V149.248Z" fill="#F0F0F0" stroke="black" stroke-width="0.431435"/>
<path d="M4.33887 149.25H24.1736V147.148H19.8347V122.523H8.67771V147.148H4.33887V149.25Z" fill="#F0F0F0" stroke="black" stroke-width="0.431435"/>
<path d="M70.041 122.67V110.508H83.0575V122.67H70.041Z" fill="#F0F0F0" stroke="black" stroke-width="0.431435"/>
</svg>
