<svg width="150" height="150" viewBox="0 0 150 150" fill="none" xmlns="http://www.w3.org/2000/svg">
<g clip-path="url(#clip0_2109_245058)">
<path d="M0 3.52344H150V150.002H0V3.52344Z" fill="#666666" stroke="#666666" stroke-width="0.459869"/>
<path d="M1.50195 3.52344H142.793V150.002H1.50195V3.52344Z" fill="#999999" stroke="#999999" stroke-width="0.459869"/>
<path d="M5.55566 3.52344H127.177V150.002H5.55566V3.52344Z" fill="#B2B2B2" stroke="#B2B2B2" stroke-width="0.459869"/>
<path d="M13.0635 3.52344H113.063V150.002H13.0635V3.52344Z" fill="#CCCCCC"/>
<path d="M0 0H150V3.52113H0V0Z" fill="#E5E5E5" stroke="black" stroke-width="0.459869"/>
<path d="M3.15332 3.52344H3.90407V150.002H3.15332V3.52344Z" fill="#999999" stroke="#999999" stroke-width="0.459869"/>
<path d="M9.45898 3.52344H9.90943V150.002H9.45898V3.52344Z" fill="#999999" stroke="#999999" stroke-width="0.459869"/>
<path d="M15.4658 3.52344H16.3667V150.002H15.4658V3.52344Z" fill="#999999" stroke="#999999" stroke-width="0.459869"/>
<path d="M21.9219 3.52344H22.6726V150.002H21.9219V3.52344Z" fill="#999999" stroke="#999999" stroke-width="0.459869"/>
<path d="M27.9277 3.52344H28.6785V150.002H27.9277V3.52344Z" fill="#999999" stroke="#999999" stroke-width="0.459869"/>
<path d="M34.3848 3.52344H35.1355V150.002H34.3848V3.52344Z" fill="#999999" stroke="#999999" stroke-width="0.459869"/>
<path d="M40.6904 3.52344H41.5913V150.002H40.6904V3.52344Z" fill="#999999" stroke="#999999" stroke-width="0.459869"/>
<path d="M46.6963 3.52344H47.5972V150.002H46.6963V3.52344Z" fill="#999999" stroke="#999999" stroke-width="0.459869"/>
<path d="M53.1533 3.52344H53.9041V150.002H53.1533V3.52344Z" fill="#999999" stroke="#999999" stroke-width="0.459869"/>
<path d="M59.459 3.52344H59.9094V150.002H59.459V3.52344Z" fill="#999999" stroke="#999999" stroke-width="0.459869"/>
<path d="M65.4658 3.52344H66.3667V150.002H65.4658V3.52344Z" fill="#999999" stroke="#999999" stroke-width="0.459869"/>
<path d="M71.9219 3.52344H72.6726V150.002H71.9219V3.52344Z" fill="#999999" stroke="#999999" stroke-width="0.459869"/>
<path d="M77.9277 3.52344H78.6785V150.002H77.9277V3.52344Z" fill="#999999" stroke="#999999" stroke-width="0.459869"/>
<path d="M84.3848 3.52344H85.1355V150.002H84.3848V3.52344Z" fill="#999999" stroke="#999999" stroke-width="0.459869"/>
<path d="M90.6904 3.52344H91.5913V150.002H90.6904V3.52344Z" fill="#999999" stroke="#999999" stroke-width="0.459869"/>
<path d="M96.6963 3.52344H97.5972V150.002H96.6963V3.52344Z" fill="#999999" stroke="#999999" stroke-width="0.459869"/>
<path d="M103.153 3.52344H103.904V150.002H103.153V3.52344Z" fill="#999999" stroke="#999999" stroke-width="0.459869"/>
<path d="M109.459 3.52344H109.909V150.002H109.459V3.52344Z" fill="#999999" stroke="#999999" stroke-width="0.459869"/>
<path d="M115.466 3.52344H116.367V150.002H115.466V3.52344Z" fill="#999999" stroke="#999999" stroke-width="0.459869"/>
<path d="M121.922 3.52344H122.673V150.002H121.922V3.52344Z" fill="#999999" stroke="#999999" stroke-width="0.459869"/>
<path d="M127.928 3.52344H128.678V150.002H127.928V3.52344Z" fill="#999999" stroke="#999999" stroke-width="0.459869"/>
<path d="M134.385 3.52344H135.136V150.002H134.385V3.52344Z" fill="#999999" stroke="#999999" stroke-width="0.459869"/>
<path d="M140.69 3.52344H141.591V150.002H140.69V3.52344Z" fill="#999999" stroke="#999999" stroke-width="0.459869"/>
<path d="M146.696 3.52344H147.597V150.002H146.696V3.52344Z" fill="#999999" stroke="#999999" stroke-width="0.459869"/>
<path d="M2.25195 3.52344H3.15285V150.002H2.25195V3.52344Z" fill="#B2B2B2" stroke="#B2B2B2" stroke-width="0.459869"/>
<path d="M8.70898 3.52344H9.15943V150.002H8.70898V3.52344Z" fill="#B2B2B2" stroke="#B2B2B2" stroke-width="0.459869"/>
<path d="M14.7148 3.52344H15.4656V150.002H14.7148V3.52344Z" fill="#B2B2B2" stroke="#B2B2B2" stroke-width="0.459869"/>
<path d="M21.1709 3.52344H21.9216V150.002H21.1709V3.52344Z" fill="#B2B2B2" stroke="#B2B2B2" stroke-width="0.459869"/>
<path d="M27.1768 3.52344H27.9275V150.002H27.1768V3.52344Z" fill="#B2B2B2" stroke="#B2B2B2" stroke-width="0.459869"/>
<path d="M33.4834 3.52344H34.3843V150.002H33.4834V3.52344Z" fill="#B2B2B2" stroke="#B2B2B2" stroke-width="0.459869"/>
<path d="M39.9395 3.52344H40.6902V150.002H39.9395V3.52344Z" fill="#B2B2B2" stroke="#B2B2B2" stroke-width="0.459869"/>
<path d="M45.9463 3.52344H46.697V150.002H45.9463V3.52344Z" fill="#B2B2B2" stroke="#B2B2B2" stroke-width="0.459869"/>
<path d="M52.252 3.52344H53.1529V150.002H52.252V3.52344Z" fill="#B2B2B2" stroke="#B2B2B2" stroke-width="0.459869"/>
<path d="M58.709 3.52344H59.1594V150.002H58.709V3.52344Z" fill="#B2B2B2" stroke="#B2B2B2" stroke-width="0.459869"/>
<path d="M64.7148 3.52344H65.4656V150.002H64.7148V3.52344Z" fill="#B2B2B2" stroke="#B2B2B2" stroke-width="0.459869"/>
<path d="M71.1709 3.52344H71.9216V150.002H71.1709V3.52344Z" fill="#B2B2B2" stroke="#B2B2B2" stroke-width="0.459869"/>
<path d="M77.1768 3.52344H77.9275V150.002H77.1768V3.52344Z" fill="#B2B2B2" stroke="#B2B2B2" stroke-width="0.459869"/>
<path d="M83.4834 3.52344H84.3843V150.002H83.4834V3.52344Z" fill="#B2B2B2" stroke="#B2B2B2" stroke-width="0.459869"/>
<path d="M89.9395 3.52344H90.6902V150.002H89.9395V3.52344Z" fill="#B2B2B2" stroke="#B2B2B2" stroke-width="0.459869"/>
<path d="M95.9463 3.52344H96.697V150.002H95.9463V3.52344Z" fill="#B2B2B2" stroke="#B2B2B2" stroke-width="0.459869"/>
<path d="M102.252 3.52344H103.153V150.002H102.252V3.52344Z" fill="#B2B2B2" stroke="#B2B2B2" stroke-width="0.459869"/>
<path d="M108.709 3.52344H109.159V150.002H108.709V3.52344Z" fill="#B2B2B2" stroke="#B2B2B2" stroke-width="0.459869"/>
<path d="M114.715 3.52344H115.466V150.002H114.715V3.52344Z" fill="#B2B2B2" stroke="#B2B2B2" stroke-width="0.459869"/>
<path d="M121.171 3.52344H121.922V150.002H121.171V3.52344Z" fill="#B2B2B2" stroke="#B2B2B2" stroke-width="0.459869"/>
<path d="M127.177 3.52344H127.928V150.002H127.177V3.52344Z" fill="#B2B2B2" stroke="#B2B2B2" stroke-width="0.459869"/>
<path d="M133.483 3.52344H134.384V150.002H133.483V3.52344Z" fill="#B2B2B2" stroke="#B2B2B2" stroke-width="0.459869"/>
<path d="M139.939 3.52344H140.69V150.002H139.939V3.52344Z" fill="#B2B2B2" stroke="#B2B2B2" stroke-width="0.459869"/>
<path d="M145.946 3.52344H146.697V150.002H145.946V3.52344Z" fill="#B2B2B2" stroke="#B2B2B2" stroke-width="0.459869"/>
<path d="M0 3.52344H150V150.002H0V3.52344Z" stroke="black" stroke-width="0.459869"/>
</g>
<defs>
<clipPath id="clip0_2109_245058">
<rect width="150" height="150" fill="white"/>
</clipPath>
</defs>
</svg>
