<svg width="150" height="150" viewBox="0 0 150 150" fill="none" xmlns="http://www.w3.org/2000/svg">
<g clip-path="url(#clip0_2109_244153)">
<path d="M9.9 113.516V132.164H0V113.516H9.9Z" fill="#336666"/>
<path d="M9.9 115.133V130.538H0V115.133H9.9Z" fill="#4C7F7F"/>
<path d="M9.9 118.375V127.294H0V118.375H9.9Z" fill="#669999"/>
<path d="M9.9 121.625V124.057H0V121.625H9.9Z" fill="#99CCCC"/>
<path d="M9.9 113.516V132.164H0V113.516H9.9Z" stroke="black" stroke-width="0.986394"/>
<path d="M150 31.625V50.2736H140.1V31.625H150Z" fill="#336666"/>
<path d="M150 34.0547V48.6493H140.1V34.0547H150Z" fill="#4C7F7F"/>
<path d="M150 36.4844V46.2141H140.1V36.4844H150Z" fill="#669999"/>
<path d="M150 40.5391V42.1607H140.1V40.5391H150Z" fill="#99CCCC"/>
<path d="M150 31.625V50.2736H140.1V31.625H150Z" stroke="black" stroke-width="0.986394"/>
<path d="M66.5996 14.5938H71.9996V31.6208H66.5996V14.5938Z" fill="#336666" stroke="black" stroke-width="0.986394"/>
<path d="M66.9004 14.5938H71.4004V31.6208H66.9004V14.5938Z" fill="#4C7F7F"/>
<path d="M67.7998 14.5938H70.4998V31.6208H67.7998V14.5938Z" fill="#669999"/>
<path d="M69 14.5938H69.6V31.6208H69V14.5938Z" fill="#99CCCC"/>
<path d="M140.1 132.976H9.9L7.8 132.166L4.5 124.057L1.8 110.274L0.3 92.4358L0 81.8953L0.9 62.4358L3 46.2196L6 35.6791L7.8 32.4358L9.9 31.625H140.1L142.2 32.4358L145.5 40.5439L148.2 53.5169L149.7 72.1655L150 81.8953L149.1 102.166L147 118.382L144 128.922L142.2 132.166L140.1 132.976Z" fill="#194C4C" stroke="black" stroke-width="0.986394"/>
<path d="M140.1 128.915H9.9L7.8 128.104L4.5 120.807L1.8 107.834L0.3 91.6178L0 81.8881L0.9 64.0503L3 49.4557L6 39.7259L7.8 36.4827L9.9 35.6719H140.1L142.2 36.4827L145.5 43.78L148.2 55.9421L149.7 72.9692L150 81.8881L149.1 100.537L147 115.131L144 124.861L142.2 128.104L140.1 128.915Z" fill="#336666"/>
<path d="M140.1 122.434H9.9L6 119.191L3 110.272L0.9 97.2992L0 81.8938L0.9 66.4884L3 53.5154L6 45.4073L9.9 42.1641H140.1L144 45.4073L147 53.5154L149.1 66.4884L150 81.8938L149.1 97.2992L147 110.272L144 119.191L140.1 122.434Z" fill="#4C7F7F"/>
<path d="M140.1 111.892H9.9L6 109.46L1.8 98.1085L0.3 87.568L0 81.8923L0.9 70.541L3 60.8112L7.8 53.5139L9.9 52.7031H140.1L144 55.1356L148.2 65.6761L149.7 76.2166L150 81.8923L149.1 93.2437L147 102.973L142.2 111.082L140.1 111.892Z" fill="#669999"/>
<path d="M140.1 98.9212H9.9L4.5 96.4888L0.9 88.3807L0 81.8942L3 69.7321L7.8 64.8672H142.2L147 69.7321L149.7 78.651L150 81.8942L148.2 91.6239L144 97.2996L140.1 98.9212Z" fill="#7FB2B2"/>
<path d="M140.1 85.944H9.9L4.5 85.1332L0.3 82.7008L0 81.89L4.5 78.6467L6 77.8359H144L148.2 79.4576L150 81.89L145.5 85.1332L140.1 85.944Z" fill="#99CCCC"/>
<path d="M9.90039 31.625V132.976" stroke="black" stroke-width="0.986394"/>
<path d="M140.1 31.625V132.976" stroke="black" stroke-width="0.986394"/>
<path d="M64.2002 0H74.1002V14.5946H64.2002V0Z" fill="#336666"/>
<path d="M65.0996 0H73.1996V14.5946H65.0996V0Z" fill="#4C7F7F"/>
<path d="M66.5996 0H71.6996V14.5946H66.5996V0Z" fill="#669999"/>
<path d="M68.7002 0H69.6002V14.5946H68.7002V0Z" fill="#99CCCC"/>
<path d="M64.2002 0H74.1002V14.5946H64.2002V0Z" stroke="black" stroke-width="0.986394"/>
<path d="M123.6 14.5938H129V31.6208H123.6V14.5938Z" fill="#336666" stroke="black" stroke-width="0.986394"/>
<path d="M124.2 14.5938H128.4V31.6208H124.2V14.5938Z" fill="#4C7F7F"/>
<path d="M124.8 14.5938H127.8V31.6208H124.8V14.5938Z" fill="#669999"/>
<path d="M126 14.5938H126.6V31.6208H126V14.5938Z" fill="#99CCCC"/>
<path d="M121.2 0H131.4V14.5946H121.2V0Z" fill="#336666"/>
<path d="M122.4 0H130.2V14.5946H122.4V0Z" fill="#4C7F7F"/>
<path d="M123.9 0H128.7V14.5946H123.9V0Z" fill="#669999"/>
<path d="M125.7 0H126.9V14.5946H125.7V0Z" fill="#99CCCC"/>
<path d="M121.2 0H131.4V14.5946H121.2V0Z" stroke="black" stroke-width="0.986394"/>
<path d="M13.1998 149.999H9.2998V14.5938H13.1998V149.999Z" fill="#194C4C"/>
<path d="M13.1998 144.327H9.2998V20.2734H13.1998V144.327Z" fill="#336666"/>
<path d="M13.1998 135.402H9.2998V28.375H13.1998V135.402Z" fill="#4C7F7F"/>
<path d="M13.1998 121.624H9.2998V42.1641H13.1998V121.624Z" fill="#669999"/>
<path d="M13.1998 104.593H9.2998V59.1875H13.1998V104.593Z" fill="#7FB2B2"/>
<path d="M13.1998 87.5701H9.2998V76.2188H13.1998V87.5701Z" fill="#99CCCC"/>
<path d="M13.1998 149.999H9.2998V14.5938H13.1998V149.999Z" stroke="black" stroke-width="0.986394"/>
<path d="M17.1002 149.999H13.2002V14.5938H17.1002V149.999Z" fill="#194C4C"/>
<path d="M17.1002 144.327H13.2002V20.2734H17.1002V144.327Z" fill="#336666"/>
<path d="M17.1002 135.402H13.2002V28.375H17.1002V135.402Z" fill="#4C7F7F"/>
<path d="M17.1002 121.624H13.2002V42.1641H17.1002V121.624Z" fill="#669999"/>
<path d="M17.1002 104.593H13.2002V59.1875H17.1002V104.593Z" fill="#7FB2B2"/>
<path d="M17.1002 87.5701H13.2002V76.2188H17.1002V87.5701Z" fill="#99CCCC"/>
<path d="M17.1002 149.999H13.2002V14.5938H17.1002V149.999Z" stroke="black" stroke-width="0.986394"/>
<path d="M136.8 149.999H132.9V14.5938H136.8V149.999Z" fill="#194C4C"/>
<path d="M136.8 144.327H132.9V20.2734H136.8V144.327Z" fill="#336666"/>
<path d="M136.8 135.402H132.9V28.375H136.8V135.402Z" fill="#4C7F7F"/>
<path d="M136.8 121.624H132.9V42.1641H136.8V121.624Z" fill="#669999"/>
<path d="M136.8 104.593H132.9V59.1875H136.8V104.593Z" fill="#7FB2B2"/>
<path d="M136.8 87.5701H132.9V76.2188H136.8V87.5701Z" fill="#99CCCC"/>
<path d="M136.8 149.999H132.9V14.5938H136.8V149.999Z" stroke="black" stroke-width="0.986394"/>
<path d="M140.7 149.999H136.8V14.5938H140.7V149.999Z" fill="#194C4C"/>
<path d="M140.7 144.327H136.8V20.2734H140.7V144.327Z" fill="#336666"/>
<path d="M140.7 135.402H136.8V28.375H140.7V135.402Z" fill="#4C7F7F"/>
<path d="M140.7 121.624H136.8V42.1641H140.7V121.624Z" fill="#669999"/>
<path d="M140.7 104.593H136.8V59.1875H140.7V104.593Z" fill="#7FB2B2"/>
<path d="M140.7 87.5701H136.8V76.2188H140.7V87.5701Z" fill="#99CCCC"/>
<path d="M140.7 149.999H136.8V14.5938H140.7V149.999Z" stroke="black" stroke-width="0.986394"/>
</g>
<defs>
<clipPath id="clip0_2109_244153">
<rect width="150" height="150" fill="white"/>
</clipPath>
</defs>
</svg>
