<svg width="150" height="150" viewBox="0 0 150 150" fill="none" xmlns="http://www.w3.org/2000/svg">
<g clip-path="url(#clip0_2109_245979)">
<path d="M107.048 95.1953V146.847H104.57V149.099H119.438V146.847H116.96V95.1953H107.048Z" fill="#333333"/>
<path d="M33.0397 95.1953V146.847H30.3965V149.099H45.2643V146.847H42.7864V95.1953H33.0397Z" fill="#333333"/>
<path d="M75.0002 135.585C115.965 135.585 149.174 105.401 149.174 68.1674C149.174 30.9338 115.965 0.75 75.0002 0.75C34.035 0.75 0.826172 30.9338 0.826172 68.1674C0.826172 105.401 34.035 135.585 75.0002 135.585Z" fill="#666666" stroke="black" stroke-width="0.314989"/>
<path d="M5.12109 68.1674L10.2422 42.792L24.9449 19.8191L48.7334 5.5548L74.9999 0.75L101.266 5.5548L125.055 19.8191L139.923 42.792L144.879 68.1674L139.923 93.5428L125.055 116.366L101.266 130.63L74.9999 135.585L48.7334 130.63L24.9449 116.366L10.2422 93.5428L5.12109 68.1674Z" fill="#6E6E6E"/>
<path d="M9.41602 68.1674L14.0416 42.792L27.9182 19.8191L50.3852 5.5548L74.9997 0.75L99.6143 5.5548L122.081 19.8191L135.958 42.792L140.583 68.1674L135.958 93.5428L122.081 116.366L99.6143 130.63L74.9997 135.585L50.3852 130.63L27.9182 116.366L14.0416 93.5428L9.41602 68.1674Z" fill="#757575"/>
<path d="M13.5459 68.1674L18.0063 42.792L31.0569 19.9692L51.8719 5.5548L74.9996 0.75L98.1274 5.5548L118.942 19.9692L131.993 42.792L136.453 68.1674L131.993 93.5428L118.942 116.366L98.1274 130.63L74.9996 135.585L51.8719 130.63L31.0569 116.366L18.0063 93.5428L13.5459 68.1674Z" fill="#7D7D7D"/>
<path d="M17.8418 68.1674L21.9718 42.792L34.0312 19.9692L53.5246 5.5548L75.0004 0.75L96.4762 5.5548L115.97 19.9692L128.029 42.792L132.159 68.1674L128.029 93.5428L115.97 116.366L96.4762 130.63L75.0004 135.585L53.5246 130.63L34.0312 116.366L21.9718 93.5428L17.8418 68.1674Z" fill="#858585"/>
<path d="M22.1367 68.1674L25.9363 42.792L37.1698 19.9692L55.1764 5.5548L75.0002 0.75L94.8239 5.5548L112.831 19.9692L124.064 42.792L127.864 68.1674L124.064 93.3926L112.831 116.366L94.8239 130.63L75.0002 135.585L55.1764 130.63L37.1698 116.366L25.9363 93.3926L22.1367 68.1674Z" fill="#8F8F8F"/>
<path d="M26.4316 68.1674L29.7356 42.792L40.1431 19.9692L56.8281 5.5548L74.9999 0.75L93.3369 5.5548L109.857 19.9692L120.099 42.792L123.733 68.1674L120.099 93.3926L109.857 116.366L93.3369 130.63L74.9999 135.585L56.8281 130.63L40.1431 116.366L29.7356 93.3926L26.4316 68.1674Z" fill="#969696"/>
<path d="M30.7266 68.1674L33.8653 42.792L43.2816 19.9692L58.3147 5.5548L74.9997 0.75L91.6847 5.5548L106.883 19.9692L116.299 42.792L119.438 68.1674L116.299 93.3926L106.883 116.366L91.6847 130.63L74.9997 135.585L58.3147 130.63L43.2816 116.366L33.8653 93.3926L30.7266 68.1674Z" fill="#9E9E9E"/>
<path d="M74.9996 135.585C97.1701 135.585 115.143 105.401 115.143 68.1674C115.143 30.9338 97.1701 0.75 74.9996 0.75C52.8292 0.75 34.8564 30.9338 34.8564 68.1674C34.8564 105.401 52.8292 135.585 74.9996 135.585Z" fill="#A6A6A6"/>
<path d="M75.0004 135.585C94.7987 135.585 110.848 105.401 110.848 68.1674C110.848 30.9338 94.7987 0.75 75.0004 0.75C55.202 0.75 39.1523 30.9338 39.1523 68.1674C39.1523 105.401 55.202 135.585 75.0004 135.585Z" fill="#ADADAD"/>
<path d="M75.0003 135.585C92.5177 135.585 106.718 105.401 106.718 68.1674C106.718 30.9338 92.5177 0.75 75.0003 0.75C57.4829 0.75 43.2822 30.9338 43.2822 68.1674C43.2822 105.401 57.4829 135.585 75.0003 135.585Z" fill="#B5B5B5"/>
<path d="M75.0001 135.585C90.1453 135.585 102.423 105.401 102.423 68.1674C102.423 30.9338 90.1453 0.75 75.0001 0.75C59.8548 0.75 47.5771 30.9338 47.5771 68.1674C47.5771 105.401 59.8548 135.585 75.0001 135.585Z" fill="#BDBDBD"/>
<path d="M74.9998 135.585C87.7729 135.585 98.1276 105.401 98.1276 68.1674C98.1276 30.9338 87.7729 0.75 74.9998 0.75C62.2267 0.75 51.8721 30.9338 51.8721 68.1674C51.8721 105.401 62.2267 135.585 74.9998 135.585Z" fill="#C4C4C4"/>
<path d="M74.9996 135.585C85.4005 135.585 93.8322 105.401 93.8322 68.1674C93.8322 30.9338 85.4005 0.75 74.9996 0.75C64.5986 0.75 56.167 30.9338 56.167 68.1674C56.167 105.401 64.5986 135.585 74.9996 135.585Z" fill="#CFCFCF"/>
<path d="M74.9995 135.585C83.1196 135.585 89.7022 105.401 89.7022 68.1674C89.7022 30.9338 83.1196 0.75 74.9995 0.75C66.8795 0.75 60.2969 30.9338 60.2969 68.1674C60.2969 105.401 66.8795 135.585 74.9995 135.585Z" fill="#D6D6D6"/>
<path d="M75.0003 135.585C80.7482 135.585 85.4078 105.401 85.4078 68.1674C85.4078 30.9338 80.7482 0.75 75.0003 0.75C69.2524 0.75 64.5928 30.9338 64.5928 68.1674C64.5928 105.401 69.2524 135.585 75.0003 135.585Z" fill="#DEDEDE"/>
<path d="M74.835 135.585C78.2107 135.585 80.9473 105.401 80.9473 68.1674C80.9473 30.9338 78.2107 0.75 74.835 0.75C71.4592 0.75 68.7227 30.9338 68.7227 68.1674C68.7227 105.401 71.4592 135.585 74.835 135.585Z" fill="#E5E5E5"/>
<path d="M18.1713 95.1953V146.847H15.6934V149.099H30.396V146.847H27.918V95.1953H18.1713Z" fill="#7F7F7F"/>
<path d="M18.9982 95.1953V146.847H16.8506V149.099H29.2405V146.847H27.2581V95.1953H18.9982Z" fill="#999999"/>
<path d="M19.8239 95.1953V146.847H18.1719V149.099H28.0838V146.847H26.4318V95.1953H19.8239Z" fill="#B2B2B2"/>
<path d="M20.6497 95.1953V146.847H19.3281V149.099H26.762V146.847H25.6057V95.1953H20.6497Z" fill="#CCCCCC"/>
<path d="M21.3102 95.1953V146.847H20.6494V149.099H25.6054V146.847H24.7794V95.1953H21.3102Z" fill="#E5E5E5"/>
<path d="M22.3022 95.1953V146.847H21.8066V149.099H24.2846V146.847H23.9542V95.1953H22.3022Z" fill="white"/>
<path d="M18.1713 95.1953V146.847H15.6934V149.099H30.396V146.847H27.918V95.1953H18.1713Z" stroke="black" stroke-width="0.314989"/>
<path d="M121.916 95.1953V146.847H119.438V149.099H134.306V146.847H131.828V95.1953H121.916Z" fill="#7F7F7F"/>
<path d="M122.742 95.1953V146.847H120.76V149.099H133.15V146.847H131.002V95.1953H122.742Z" fill="#999999"/>
<path d="M123.568 95.1953V146.847H121.916V149.099H131.828V146.847H130.176V95.1953H123.568Z" fill="#B2B2B2"/>
<path d="M124.395 95.1953V146.847H123.238V149.099H130.672V146.847H129.351V95.1953H124.395Z" fill="#CCCCCC"/>
<path d="M125.221 95.1953V146.847H124.395V149.099H129.35V146.847H128.524V95.1953H125.221Z" fill="#E5E5E5"/>
<path d="M126.046 95.1953V146.847H125.551V149.099H128.194V146.847H127.698V95.1953H126.046Z" fill="white"/>
<path d="M121.916 95.1953V146.847H119.438V149.099H134.306V146.847H131.828V95.1953H121.916Z" stroke="black" stroke-width="0.314989"/>
<path d="M0.826172 95.1956H149.174V91.7422H0.826172V95.1956Z" fill="#666666"/>
<path d="M0.826172 95.1956H149.174V91.7422H0.826172V95.1956Z" fill="#333333"/>
<path d="M5.28613 95.0455H144.713V91.7422H5.28613V95.0455Z" fill="#3D3D3D"/>
<path d="M9.58105 95.0455H140.418V91.7422H9.58105V95.0455Z" fill="#454545"/>
<path d="M14.042 95.0455H135.958V91.7422H14.042V95.0455Z" fill="#4F4F4F"/>
<path d="M18.502 95.0455H131.498V91.7422H18.502V95.0455Z" fill="#595959"/>
<path d="M22.7969 95.0455H127.202V91.7422H22.7969V95.0455Z" fill="#636363"/>
<path d="M27.2578 95.0455H122.742V91.7422H27.2578V95.0455Z" fill="#6B6B6B"/>
<path d="M31.7178 95.0455H118.447V91.7422H31.7178V95.0455Z" fill="#757575"/>
<path d="M36.0137 95.0455H113.987V91.7422H36.0137V95.0455Z" fill="#7F7F7F"/>
<path d="M40.4736 95.0455H109.526V91.7422H40.4736V95.0455Z" fill="#8A8A8A"/>
<path d="M44.9336 95.0455H105.231V91.7422H44.9336V95.0455Z" fill="#919191"/>
<path d="M49.2295 95.0455H100.771V91.7422H49.2295V95.0455Z" fill="#9C9C9C"/>
<path d="M53.6895 95.0455H96.3106V91.7422H53.6895V95.0455Z" fill="#A6A6A6"/>
<path d="M57.9844 95.0455H92.0152V91.7422H57.9844V95.0455Z" fill="#B0B0B0"/>
<path d="M62.4453 95.0455H87.5554V91.7422H62.4453V95.0455Z" fill="#B8B8B8"/>
<path d="M66.9053 95.0455H83.0947V91.7422H66.9053V95.0455Z" fill="#C2C2C2"/>
<path d="M71.2002 95.1956H78.6341V91.7422H71.2002V95.1956Z" fill="#CCCCCC"/>
<path d="M0.826172 95.1956H149.174V91.7422H0.826172V95.1956Z" stroke="black" stroke-width="0.314989"/>
</g>
<defs>
<clipPath id="clip0_2109_245979">
<rect width="150" height="150" fill="white"/>
</clipPath>
</defs>
</svg>
