<svg width="150" height="150" viewBox="0 0 150 150" fill="none" xmlns="http://www.w3.org/2000/svg">
<g clip-path="url(#clip0_2109_246107)">
<path d="M66.0664 61.7031H83.7841V64.1854H66.0664V61.7031Z" fill="#FFFF91" stroke="black" stroke-width="0.326327"/>
<path d="M63.9639 61.7038H85.8858V61.1719H63.9639V61.7038Z" fill="#FFFF00" stroke="black" stroke-width="0.326327"/>
<path d="M84.835 61.1719H85.2854V61.7038H84.835V61.1719Z" fill="black" stroke="black" stroke-width="0.326327"/>
<path d="M81.2314 61.1719H82.2825V61.7038H81.2314V61.1719Z" fill="black" stroke="black" stroke-width="0.326327"/>
<path d="M78.2285 61.1719H78.679V61.7038H78.2285V61.1719Z" fill="black" stroke="black" stroke-width="0.326327"/>
<path d="M74.625 61.1719H75.2256V61.7038H74.625V61.1719Z" fill="black" stroke="black" stroke-width="0.326327"/>
<path d="M71.1709 61.1719H71.6213V61.7038H71.1709V61.1719Z" fill="black" stroke="black" stroke-width="0.326327"/>
<path d="M68.0176 61.1719H68.6182V61.7038H68.0176V61.1719Z" fill="black" stroke="black" stroke-width="0.326327"/>
<path d="M64.5645 61.1719H65.0149V61.7038H64.5645V61.1719Z" fill="black" stroke="black" stroke-width="0.326327"/>
<path d="M145.796 150.003H4.5045H4.2042L2.25225 144.861L1.5015 138.833L0.900901 132.627L0.45045 127.485L0.15015 121.812L0 115.606V111.173V109.046V106.741V100.358L0.15015 94.152L0.3003 88.301L0.750751 82.9818L1.2012 76.7762L1.95195 71.457L3.003 66.8471L4.2042 64.1875H4.5045H145.796H146.096L147.748 69.3293L148.499 75.3577L149.099 81.3861L149.399 86.5279L149.7 92.2017L149.85 98.2301V102.485L150 104.613V106.741L149.85 113.478L149.7 119.684L149.55 125.535L149.099 131.031L148.649 137.414L148.048 142.734L146.997 148.053L146.096 150.003H145.796Z" fill="#FFFFB3"/>
<path d="M145.796 150.003H4.5045H4.35435L2.4024 145.748L1.5015 140.074L0.750751 133.868L0.3003 128.017L0 121.634V119.861V118.266H141.291L141.592 124.826L141.892 131.032L142.342 136.528L142.943 142.024L143.994 146.989L145.646 150.003H145.796Z" fill="#FFFF91"/>
<path d="M145.796 149.998L143.543 145.566L142.642 140.247L142.042 134.218L141.892 129.608L141.741 128.367H0.450195L0.750496 134.218L1.20095 139.183L1.9517 144.147L3.30305 148.757L4.3541 149.998H4.50425H145.796Z" fill="#FFFF00"/>
<path d="M145.645 150.003C148.05 150.003 150 130.793 150 107.095C150 83.398 148.05 64.1875 145.645 64.1875C143.241 64.1875 141.291 83.398 141.291 107.095C141.291 130.793 143.241 150.003 145.645 150.003Z" fill="#FFFF75" stroke="black" stroke-width="0.326327"/>
<path d="M145.796 150.003H4.5045H4.2042L2.25225 144.861L1.5015 138.833L0.900901 132.627L0.45045 127.485L0.15015 121.812L0 115.606V111.173V109.046V106.741V100.358L0.15015 94.152L0.3003 88.301L0.750751 82.9818L1.2012 76.7762L1.95195 71.457L3.003 66.8471L4.2042 64.1875H4.5045H145.796H146.096L147.748 69.3293L148.498 75.3577L149.099 81.3861L149.399 86.5279L149.7 92.2017L149.85 98.2301V102.485L150 104.613V106.741L149.85 113.478L149.7 119.684L149.55 125.535L149.099 131.031L148.649 137.414L148.048 142.734L146.997 148.053L146.096 150.003H145.796Z" stroke="black" stroke-width="0.326327"/>
<path d="M100.15 150.003H99.8495L97.8975 144.861L96.9966 138.833L96.396 132.627L96.0957 127.485L95.7954 121.812L95.6453 115.606L95.4951 111.173V109.046V106.741V100.358L95.6453 94.152L95.9456 88.301L96.2459 82.9818L96.8465 76.7762L97.5972 71.457L98.4981 66.8471L99.8495 64.1875H100.15" stroke="#7F7F7F" stroke-width="0.326327"/>
<path d="M49.6998 150.003H49.5497L47.5977 144.861L46.6968 138.833L46.0962 132.627L45.7959 127.485L45.4956 121.812L45.1953 115.606V111.173V109.046V106.741V100.358L45.3455 94.152L45.6458 88.301L45.9461 82.9818L46.5467 76.7762L47.1473 71.457L48.1983 66.8471L49.5497 64.1875H49.6998" stroke="#7F7F7F" stroke-width="0.326327"/>
<path d="M45.1953 123.047H95.4956" stroke="#7F7F7F" stroke-width="0.326327"/>
<path d="M0.900391 132.625H46.6962" stroke="#7F7F7F" stroke-width="0.326327"/>
<path d="M96.5469 132.625H142.343" stroke="#7F7F7F" stroke-width="0.326327"/>
<path d="M4.50488 127.125H15.616V130.139H4.50488V127.125Z" fill="white" stroke="black" stroke-width="0.326327"/>
<path d="M4.50488 121.805H15.616V127.124H4.50488V121.805Z" fill="#FF0000" stroke="black" stroke-width="0.326327"/>
<path d="M14.1143 100.174V92.9047L14.7149 85.8125H29.4296L28.9791 92.9047V100.174H14.1143Z" fill="#663333" stroke="black" stroke-width="0.326327"/>
<path d="M145.495 99.9969C146.159 99.9969 146.696 96.8216 146.696 92.9047C146.696 88.9878 146.159 85.8125 145.495 85.8125C144.832 85.8125 144.294 88.9878 144.294 92.9047C144.294 96.8216 144.832 99.9969 145.495 99.9969Z" fill="#7F7F7F" stroke="black" stroke-width="0.326327"/>
<path d="M137.237 58.1562H140.841V64.1846H137.237V58.1562Z" fill="#999999" stroke="black" stroke-width="0.326327"/>
<path d="M137.688 58.1562H140.24V64.1846H137.688V58.1562Z" fill="#CCCCCC"/>
<path d="M138.288 58.1562H139.79V64.1846H138.288V58.1562Z" fill="white"/>
<path d="M137.237 58.1562H140.841V64.1846H137.237V58.1562Z" stroke="black" stroke-width="0.326327"/>
<path d="M137.238 58.1555L136.187 57.6236L137.238 54.6094H140.841L141.292 57.6236L140.841 58.1555H137.238Z" fill="#333333" stroke="black" stroke-width="0.326327"/>
<path d="M141.742 13.1192L139.189 2.30363L143.244 1.0625L145.796 11.8781L141.742 13.1192Z" fill="#333333" stroke="black" stroke-width="0.326327"/>
<path d="M137.237 2.30469H140.841V54.6097H137.237V2.30469Z" fill="#4C4C4C" stroke="black" stroke-width="0.326327"/>
<path d="M139.189 13.1192L137.237 2.30363L140.841 1.0625L143.243 11.8781L139.189 13.1192Z" fill="#4C4C4C" stroke="black" stroke-width="0.326327"/>
<path d="M102.703 10.109L102.103 8.33594H109.76L109.31 10.109H102.703Z" fill="#4C4C4C" stroke="black" stroke-width="0.326327"/>
<path d="M105.706 1.06383H106.157V0H105.706V1.06383Z" fill="#4C4C4C" stroke="black" stroke-width="0.326327"/>
<path d="M101.651 8.332L102.102 1.0625H109.759L110.21 8.332H101.651Z" fill="#999999" stroke="black" stroke-width="0.326327"/>
<path d="M102.703 10.1094H109.31V64.1874H102.703V10.1094Z" fill="#999999" stroke="black" stroke-width="0.326327"/>
<path d="M102.703 8.332L103.604 1.0625H108.709L109.31 8.332H102.703Z" fill="#CCCCCC"/>
<path d="M104.204 10.1094H108.258V64.1874H104.204V10.1094Z" fill="#CCCCCC"/>
<path d="M104.654 8.332L105.105 1.0625H106.756L107.207 8.332H104.654Z" fill="white"/>
<path d="M105.105 10.1094H106.757V64.1874H105.105V10.1094Z" fill="white"/>
<path d="M101.651 8.332L102.102 1.0625H109.759L110.21 8.332H101.651Z" stroke="black" stroke-width="0.326327"/>
<path d="M102.703 10.1094H109.31V64.1874H102.703V10.1094Z" stroke="black" stroke-width="0.326327"/>
<path d="M101.051 53.3672H110.811V55.6722H101.051V53.3672Z" fill="#999999" stroke="black" stroke-width="0.326327"/>
<path d="M101.051 55.6719H110.811V57.6222H101.051V55.6719Z" fill="#999999" stroke="black" stroke-width="0.326327"/>
<path d="M101.051 55.6719H110.811V56.3811H101.051V55.6719Z" fill="black" stroke="black" stroke-width="0.326327"/>
<path d="M10.6602 58.6875H20.2698V64.184H10.6602V58.6875Z" fill="#FFFFC8" stroke="black" stroke-width="0.326327"/>
<path d="M9.00879 58.6888H21.7716V57.625H9.00879V58.6888Z" fill="#FFFF00" stroke="black" stroke-width="0.326327"/>
<path d="M9.00879 57.6239H21.7716V56.3828H9.00879V57.6239Z" fill="black" stroke="black" stroke-width="0.326327"/>
</g>
<defs>
<clipPath id="clip0_2109_246107">
<rect width="150" height="150" fill="white"/>
</clipPath>
</defs>
</svg>
