<svg width="150" height="150" viewBox="0 0 150 150" fill="none" xmlns="http://www.w3.org/2000/svg">
<g clip-path="url(#clip0_2109_245896)">
<path d="M150 143.694V6.15625H0V143.694V143.994L4.5045 145.796L9.00901 146.697L14.8649 147.448L19.5195 147.898L24.4745 148.348L30.1802 148.649L36.036 149.099L42.4925 149.399L49.2492 149.55L56.1562 149.7L63.5135 149.85H67.2673L71.021 150H74.9249L82.5826 149.85H90.0901L97.1471 149.7L104.054 149.399L110.661 149.249L116.817 148.949L122.523 148.499L127.928 148.048L132.733 147.598L137.087 147.147L142.492 146.396L147.598 145.195L149.85 143.994L150 143.694Z" fill="#999999"/>
<path d="M139.64 143.695V117.87V113.515V109.161V36.188V27.6294V6.15796H115.315L111.261 6.00781H107.207H38.7387L30.6306 6.15796H14.4144H10.3604V10.3622V31.8336V40.5423V113.515V122.074V143.695L14.2643 145.798L19.8198 146.849L25.2252 147.599L31.5315 148.35L36.3363 148.65L41.5916 148.951L46.997 149.251L52.8528 149.551L58.8588 149.702L65.1652 149.852H68.3183H71.6216H74.9249H81.5315L87.988 149.702L94.1441 149.551L100 149.401L105.706 149.101L110.961 148.801L116.066 148.5L120.571 148.05L126.727 147.449L131.832 146.699L136.637 145.497L139.64 143.695Z" fill="#A8A8A8"/>
<path d="M129.129 143.695V117.87V113.515V109.161V36.188V27.6294V6.15796H108.859L105.406 6.00781H102.102H44.5948L37.8381 6.15796H24.1744H20.8711V10.3622V31.8336V40.5423V113.515V122.074V143.695V143.996L25.0753 146.098L30.0303 147.149L34.9852 147.9L40.5408 148.5L46.9972 148.951L51.5017 149.251L56.3065 149.551L61.4116 149.702L66.6669 149.852H69.3696H72.2224H74.9251H80.4807L85.8861 149.702L91.1414 149.551L96.0963 149.401L100.751 149.101L105.255 148.801L111.412 148.35L116.667 147.599L121.322 146.849L125.826 145.798L129.129 143.996V143.695Z" fill="#B8B8B8"/>
<path d="M118.769 143.695V117.87V113.515V109.161V36.188V27.6294V6.15796H102.252L99.5498 6.00781H96.8471H50.3005L44.8951 6.15796H33.9341H31.2314V10.3622V31.8336V40.5423V113.515V122.074V143.695V143.996L34.6849 146.098L38.739 147.149L44.1444 148.05L48.799 148.65L54.0543 149.101L59.9101 149.551L66.2164 149.702L70.5708 149.852H72.6729H74.9251H79.4296L85.8861 149.702L92.0423 149.401L97.5978 148.951L102.703 148.5L107.358 147.9L112.313 146.849L116.817 145.497L118.619 143.996L118.769 143.695Z" fill="#C4C4C4"/>
<path d="M108.258 143.695V117.87L108.409 113.515V109.161V36.188L108.258 27.6294V6.15796H95.796L93.844 6.00781H91.7419H56.1564L50.0002 6.15796H43.6939H41.5918V10.3622V31.8336L41.7419 40.5423V113.515L41.5918 122.074V143.695L41.7419 144.296L45.6459 146.699L50.3005 147.9L55.1053 148.65L60.5107 149.251L65.0152 149.551L69.9702 149.852H71.6218H73.2735H74.9251H80.0302L84.835 149.551L89.4897 149.251L94.8951 148.65L99.6999 147.9L104.204 146.699L107.958 144.596L108.108 144.296L108.258 143.695Z" fill="#D4D4D4"/>
<path d="M97.8974 143.695V117.87V113.515V109.161V36.188V27.6294V6.15796H89.3388L87.8373 6.00781H86.4859H62.1616L56.3058 6.15796H53.4529H52.1016V10.3622V31.8336V40.5423V113.515V122.074V143.695V144.296L56.0055 147.149L60.3598 148.5L66.0655 149.401L70.4199 149.702L72.6721 149.852H74.9244H77.3268L81.8313 149.551L87.8373 148.801L92.6421 147.599L96.8463 145.497L97.7472 144.296L97.8974 143.695Z" fill="#E3E3E3"/>
<path d="M87.3878 143.694V6.15625H62.4629V143.694L64.565 147.147L68.9193 149.249L73.574 149.85L74.9254 150L79.7302 149.399L83.7842 148.048L87.2377 144.895L87.3878 143.694Z" fill="#F2F2F2"/>
<path d="M150 143.694V6.15625H0V143.694V143.994L4.5045 145.796L9.00901 146.697L14.8649 147.448L19.5195 147.898L24.4745 148.348L30.1802 148.649L36.036 149.099L42.4925 149.399L49.2492 149.55L56.1562 149.7L63.5135 149.85H67.2673L71.021 150H74.9249L82.5826 149.85H90.0901L97.1471 149.7L104.054 149.399L110.661 149.249L116.817 148.949L122.523 148.499L127.928 148.048L132.733 147.598L137.087 147.147L142.492 146.396L147.598 145.195L149.85 143.994L150 143.694Z" stroke="black" stroke-width="0.3003"/>
<path d="M74.9249 12.3123C116.305 12.3123 149.85 9.55611 149.85 6.15616C149.85 2.75621 116.305 0 74.9249 0C33.545 0 0 2.75621 0 6.15616C0 9.55611 33.545 12.3123 74.9249 12.3123Z" fill="#BFBFBF" stroke="black" stroke-width="0.3003"/>
<path d="M37.3877 11.5625V149.1" stroke="black" stroke-width="0.3003"/>
<path d="M31.2314 15.4688H34.3846V18.6219H31.2314V15.4688Z" fill="#7F7F7F"/>
<path d="M31.2314 28.0781H34.3846V31.2313H31.2314V28.0781Z" fill="#7F7F7F"/>
<path d="M31.2314 40.5391H34.3846V43.6922H31.2314V40.5391Z" fill="#7F7F7F"/>
<path d="M31.2314 53H34.3846V56.1532H31.2314V53Z" fill="#7F7F7F"/>
<path d="M31.2314 65.4688H34.3846V68.6219H31.2314V65.4688Z" fill="#7F7F7F"/>
<path d="M31.2314 78.0781H34.3846V81.2313H31.2314V78.0781Z" fill="#7F7F7F"/>
<path d="M31.2314 90.5391H34.3846V93.6922H31.2314V90.5391Z" fill="#7F7F7F"/>
<path d="M31.2314 103H34.3846V106.153H31.2314V103Z" fill="#7F7F7F"/>
<path d="M31.2314 115.469H34.3846V118.622H31.2314V115.469Z" fill="#7F7F7F"/>
<path d="M31.2314 128.078H34.3846V131.231H31.2314V128.078Z" fill="#7F7F7F"/>
<path d="M31.2314 140.539H34.3846V143.692H31.2314V140.539Z" fill="#7F7F7F"/>
<path d="M100 11.5625V149.1" stroke="black" stroke-width="0.3003"/>
<path d="M93.6934 15.4688H96.8465V18.6219H93.6934V15.4688Z" fill="#999999"/>
<path d="M93.6934 28.0781H96.8465V31.2313H93.6934V28.0781Z" fill="#999999"/>
<path d="M93.6934 40.5391H96.8465V43.6922H93.6934V40.5391Z" fill="#999999"/>
<path d="M93.6934 53H96.8465V56.1532H93.6934V53Z" fill="#999999"/>
<path d="M93.6934 65.4688H96.8465V68.6219H93.6934V65.4688Z" fill="#999999"/>
<path d="M93.6934 78.0781H96.8465V81.2313H93.6934V78.0781Z" fill="#999999"/>
<path d="M93.6934 90.5391H96.8465V93.6922H93.6934V90.5391Z" fill="#999999"/>
<path d="M93.6934 103H96.8465V106.153H93.6934V103Z" fill="#999999"/>
<path d="M93.6934 115.469H96.8465V118.622H93.6934V115.469Z" fill="#999999"/>
<path d="M93.6934 128.078H96.8465V131.231H93.6934V128.078Z" fill="#999999"/>
<path d="M93.6934 140.539H96.8465V143.692H93.6934V140.539Z" fill="#999999"/>
<path fill-rule="evenodd" clip-rule="evenodd" d="M112.463 149.997V12.4595L112.312 11.1081L111.862 9.90691L111.411 8.85586L110.511 7.95496L109.61 7.2042L108.559 6.6036L107.357 6.3033L106.156 6.15315H105.405L104.505 6.3033L103.754 6.6036L103.003 7.05405L102.402 7.5045L101.802 7.95496L101.201 8.55556L100.751 9.30631L98.1982 7.8048L98.949 6.75375L99.6997 5.85285L100.45 4.95195L101.502 4.35135L102.553 3.75075L103.754 3.45045L104.955 3.15015L106.156 3L107.057 3.15015L108.108 3.3003L109.009 3.45045L109.76 3.75075L110.661 4.2012L111.411 4.65165L112.162 5.25225L112.763 5.85285L113.363 6.45345L113.964 7.2042L114.414 7.95496L114.715 8.70571L115.165 9.60661L115.315 10.5075L115.466 11.4084V12.4595L115.616 149.997H112.463ZM128.829 149.096V12.4595L128.679 11.1081L128.378 9.90691L127.778 8.85586L127.027 7.95496L126.126 7.2042L125.075 6.6036L123.874 6.3033L122.523 6.15315H121.772L121.021 6.3033L120.12 6.6036L119.52 7.05405L118.769 7.5045L118.168 7.95496L117.568 8.55556L117.117 9.30631L114.565 7.8048L115.315 6.75375L116.066 5.85285L116.967 4.95195L117.868 4.35135L119.069 3.75075L120.12 3.45045L121.321 3.15015L122.523 3L123.574 3.15015L124.475 3.3003L125.375 3.45045L126.276 3.75075L127.027 4.2012L127.778 4.65165L128.529 5.25225L129.129 5.85285L129.73 6.45345L130.33 7.2042L130.781 7.95496L131.231 8.70571L131.532 9.60661L131.682 10.5075L131.832 11.4084L131.982 12.4595V149.096H128.829ZM115.616 137.384H128.078V140.538H115.616V137.384ZM115.616 124.922H128.078V128.075H115.616V124.922ZM115.616 112.459H128.078V115.462H115.616V112.459ZM115.616 99.997H128.078V103H115.616V99.997ZM115.616 87.3844H128.078V90.5375H115.616V87.3844ZM115.616 74.9219H128.078V78.0751H115.616V74.9219ZM115.616 62.4595H128.078V65.4625H115.616V62.4595ZM115.616 49.997H128.078V53H115.616V49.997ZM115.616 37.3844H128.078V40.5375H115.616V37.3844ZM115.616 24.9219H128.078V28.0751H115.616V24.9219ZM115.616 12.4595H128.078V15.4625H115.616V12.4595Z" fill="#FFCC00"/>
<path d="M112.463 149.997V12.4595L110.511 7.95495L106.156 6.15315L101.802 7.95495L100.751 9.30631L98.1982 7.8048L101.502 4.35135L106.156 3L110.661 4.2012L113.964 7.2042L115.466 11.4084V12.4595L115.616 149.997H112.463Z" stroke="black" stroke-width="0.3003"/>
<path d="M128.829 149.096V12.4595L127.027 7.95495L122.522 6.15315L118.168 7.95495L117.117 9.30631L114.564 7.8048L117.868 4.35135L122.522 3L127.027 4.2012L130.33 7.2042L131.832 11.4084L131.982 12.4595V149.096H128.829Z" stroke="black" stroke-width="0.3003"/>
<path d="M115.615 137.391H128.078V140.544H115.615V137.391Z" stroke="black" stroke-width="0.3003"/>
<path d="M115.615 124.922H128.078V128.075H115.615V124.922Z" stroke="black" stroke-width="0.3003"/>
<path d="M115.615 112.461H128.078V115.464H115.615V112.461Z" stroke="black" stroke-width="0.3003"/>
<path d="M115.615 100H128.078V103.003H115.615V100Z" stroke="black" stroke-width="0.3003"/>
<path d="M115.615 87.3906H128.078V90.5438H115.615V87.3906Z" stroke="black" stroke-width="0.3003"/>
<path d="M115.615 74.9219H128.078V78.075H115.615V74.9219Z" stroke="black" stroke-width="0.3003"/>
<path d="M115.615 62.4609H128.078V65.4639H115.615V62.4609Z" stroke="black" stroke-width="0.3003"/>
<path d="M115.615 50H128.078V53.003H115.615V50Z" stroke="black" stroke-width="0.3003"/>
<path d="M115.615 37.3906H128.078V40.5438H115.615V37.3906Z" stroke="black" stroke-width="0.3003"/>
<path d="M115.615 24.9219H128.078V28.075H115.615V24.9219Z" stroke="black" stroke-width="0.3003"/>
<path d="M115.615 12.4609H128.078V15.4639H115.615V12.4609Z" stroke="black" stroke-width="0.3003"/>
</g>
<defs>
<clipPath id="clip0_2109_245896">
<rect width="150" height="150" fill="white"/>
</clipPath>
</defs>
</svg>
