<svg width="150" height="150" viewBox="0 0 150 150" fill="none" xmlns="http://www.w3.org/2000/svg">
<path d="M1.10254 149.25V13.9649L30.882 3.30427L74.9996 0.601562L121.599 3.30427L148.621 13.9649V149.25H1.10254Z" fill="#666638"/>
<path d="M13.5107 149.25V13.9649L35.5696 3.30427L74.9997 0.601562L114.43 3.30427L138.97 13.9649V149.25H13.5107Z" fill="#78784F"/>
<path d="M23.4375 149.25V13.9649L43.0147 3.30427L75 0.601562L109.467 3.30427L129.044 13.9649V149.25H23.4375Z" fill="#878763"/>
<path d="M33.3643 149.25V13.9649L50.4598 3.30427L75.0003 0.601562L102.022 3.30427L116.636 13.9649V149.25H33.3643Z" fill="#99997A"/>
<path d="M45.4961 149.25V13.9649L57.9042 3.30427L74.9998 0.601562L94.577 3.30427L106.985 13.9649V149.25H45.4961Z" fill="#ABAB91"/>
<path d="M55.4229 149.25V13.9649L62.592 3.30427L75.0001 0.601562L87.1324 3.30427L94.5773 13.9649V149.25H55.4229Z" fill="#BABAA6"/>
<path d="M67.5547 149.25V13.9649L70.0363 3.30427L74.9995 0.601562L82.4444 3.30427L84.6503 13.9649V149.25H67.5547Z" fill="#CCCCBD"/>
<path d="M1.10254 149.25V13.9649L30.882 3.30427L74.9996 0.601562L121.599 3.30427L148.621 13.9649V149.25H1.10254Z" stroke="black" stroke-width="0.406948"/>
<path d="M1.10254 13.9609H148.621" stroke="black" stroke-width="0.406948"/>
</svg>
