<svg width="150" height="150" viewBox="0 0 150 150" fill="none" xmlns="http://www.w3.org/2000/svg">
<g clip-path="url(#clip0_2109_238722)">
<path d="M37.0635 67.4211L65.3947 119.974L150 92.9466L122.057 40.0938L37.0635 67.4211Z" fill="#336666" stroke="black" stroke-width="0.341388"/>
<path d="M43.2734 67.1143L69.6641 116.664L143.403 92.9402L117.012 43.3906L43.2734 67.1143Z" fill="#4C7F7F"/>
<path d="M51.0352 64.7124L77.8139 114.262L135.641 95.6433L109.25 46.0938L51.0352 64.7124Z" fill="#669999"/>
<path d="M59.9609 61.7142L86.3516 111.264L126.326 98.6511L100.323 49.1016L59.9609 61.7142Z" fill="#7FB2B2"/>
<path d="M74.709 57.2096L101.1 106.759L111.578 103.155L85.5757 53.9062L74.709 57.2096Z" fill="#B2E5E5"/>
<path d="M0 53.9039L51.8111 94.1441L122.057 40.0901L69.6637 0L0 53.9039Z" fill="#336666" stroke="black" stroke-width="0.341388"/>
<path d="M6.20996 51.5014L54.9163 89.3392L115.46 42.4924L66.5592 4.80469L6.20996 51.5014Z" fill="#4C7F7F"/>
<path d="M12.4189 46.3962L61.1253 84.5343L108.861 47.5974L59.961 9.60938L12.4189 46.3962Z" fill="#669999"/>
<path d="M19.9873 40.3937L68.4996 78.5318L101.488 53.0063L52.1995 15.4688L19.9873 40.3937Z" fill="#7FB2B2"/>
<path d="M32.0186 31.38L80.9189 69.5182L89.069 62.6113L40.5567 24.7734L32.0186 31.38Z" fill="#B2E5E5"/>
<path d="M51.4229 92.9453V150.002H150V92.9453H51.4229Z" fill="#336666" stroke="black" stroke-width="0.341388"/>
<path d="M57.6322 94.7422L57.2441 148.196H143.402V95.0425L57.6322 94.7422Z" fill="#4C7F7F"/>
<path d="M66.5586 95.0425V148.196H134.088L134.476 94.7422L66.5586 95.0425Z" fill="#669999"/>
<path d="M77.8135 95.0425V148.196H123.997L123.609 94.7422L77.8135 95.0425Z" fill="#7FB2B2"/>
<path d="M94.502 94.7422L94.8901 148.196H106.921V95.0425L94.502 94.7422Z" fill="#B2E5E5"/>
</g>
<defs>
<clipPath id="clip0_2109_238722">
<rect width="150" height="150" fill="white"/>
</clipPath>
</defs>
</svg>
