<svg width="150" height="150" viewBox="0 0 150 150" fill="none" xmlns="http://www.w3.org/2000/svg">
<g clip-path="url(#clip0_2109_238295)">
<path d="M150 0V50H0V0H150Z" fill="#336666" stroke="black" stroke-width="0.450959"/>
<path d="M140.519 1.35156V48.4987H9.48047V1.35156H140.519Z" fill="#4C7F7F"/>
<path d="M126.975 1.35156V48.4987H23.3633V1.35156H126.975Z" fill="#669999"/>
<path d="M110.045 1.35156V48.4987H39.6162V1.35156H110.045Z" fill="#7FB2B2"/>
<path d="M84.3112 1.35156V48.4987H65.3496V1.35156H84.3112Z" fill="#B2E5E5"/>
<path d="M65.3496 0V50" stroke="black" stroke-width="0.450959"/>
<path d="M0 99.8498V50H150V99.8498H0Z" fill="#336666" stroke="black" stroke-width="0.450959"/>
<path d="M9.48047 98.3468V51.5H140.519V98.3468H9.48047Z" fill="#4C7F7F"/>
<path d="M23.3633 98.3468V51.5H126.975V98.3468H23.3633Z" fill="#669999"/>
<path d="M39.6162 98.3468V51.5H110.045V98.3468H39.6162Z" fill="#7FB2B2"/>
<path d="M65.3496 98.3468V51.5H84.3112V98.3468H65.3496Z" fill="#B2E5E5"/>
<path d="M112.754 99.8498V50" stroke="black" stroke-width="0.450959"/>
<path d="M150 99.8516V150.002H0V99.8516H150Z" fill="#336666" stroke="black" stroke-width="0.450959"/>
<path d="M140.519 101.648V148.495H9.48047V101.648H140.519Z" fill="#4C7F7F"/>
<path d="M126.975 101.648V148.495H23.3633V101.648H126.975Z" fill="#669999"/>
<path d="M110.045 101.648V148.495H39.6162V101.648H110.045Z" fill="#7FB2B2"/>
<path d="M84.3112 101.648V148.495H65.3496V101.648H84.3112Z" fill="#B2E5E5"/>
<path d="M47.0654 99.8516V150.002" stroke="black" stroke-width="0.450959"/>
</g>
<defs>
<clipPath id="clip0_2109_238295">
<rect width="150" height="150" fill="white"/>
</clipPath>
</defs>
</svg>
