<svg width="150" height="150" viewBox="0 0 150 150" fill="none" xmlns="http://www.w3.org/2000/svg">
<g clip-path="url(#clip0_2109_238653)">
<path d="M0 122.67L20.2703 102.25L47.5976 129.577L26.8769 149.998L0 122.67Z" fill="#336666" stroke="black" stroke-width="0.3003"/>
<path d="M2.25195 123.571L21.4712 104.352L45.4952 128.376L26.276 147.595L2.25195 123.571Z" fill="#4C7F7F"/>
<path d="M4.6543 125.977L23.8735 106.758L43.0927 125.977L23.5732 145.196L4.6543 125.977Z" fill="#669999"/>
<path d="M8.1084 129.582L26.8772 110.062L39.7901 122.975L20.5709 141.744L8.1084 129.582Z" fill="#7FB2B2"/>
<path d="M12.7627 134.086L31.6816 114.867L35.2852 118.471L16.066 137.39L12.7627 134.086Z" fill="#B2E5E5"/>
<path d="M15.165 138.291L35.5855 117.57" stroke="black" stroke-width="0.3003"/>
<path d="M68.0183 108.859L47.5978 129.579L20.2705 102.252L40.9912 81.5312L68.0183 108.859Z" fill="#336666" stroke="black" stroke-width="0.3003"/>
<path d="M65.6158 107.962L46.3966 127.181L22.6729 103.457L41.8921 83.9375L65.6158 107.962Z" fill="#4C7F7F"/>
<path d="M63.2133 105.552L43.9941 124.771L25.0752 105.852L44.2944 86.6328L63.2133 105.552Z" fill="#669999"/>
<path d="M60.2107 102.25L41.2918 121.769L28.3789 108.856L47.5981 89.9375L60.2107 102.25Z" fill="#7FB2B2"/>
<path d="M55.4053 97.7486L36.4864 116.968L32.8828 113.364L52.4023 94.4453L55.4053 97.7486Z" fill="#B2E5E5"/>
<path d="M47.898 88.4375L26.877 109.459" stroke="black" stroke-width="0.3003"/>
<path d="M40.9912 81.5342L61.4116 61.4141L88.4387 88.4411L68.0182 108.862L40.9912 81.5342Z" fill="#336666" stroke="black" stroke-width="0.3003"/>
<path d="M43.0928 83.0317L62.0117 63.8125L86.0357 87.5362L66.8165 106.455L43.0928 83.0317Z" fill="#4C7F7F"/>
<path d="M45.4951 85.438L64.7143 66.2188L83.6333 85.1377L64.414 104.057L45.4951 85.438Z" fill="#669999"/>
<path d="M48.7988 88.438L68.018 69.2188L80.931 82.1317L61.4114 101.351L48.7988 88.438Z" fill="#7FB2B2"/>
<path d="M53.3037 93.2427L72.5229 74.0234L75.8262 77.3267L56.9073 96.546L53.3037 93.2427Z" fill="#B2E5E5"/>
<path d="M59.6094 100.147L79.7295 79.7266" stroke="black" stroke-width="0.3003"/>
<path d="M61.4111 61.4126L81.5313 40.9922L108.859 68.0192L88.4382 88.4396L61.4111 61.4126Z" fill="#336666" stroke="black" stroke-width="0.3003"/>
<path d="M63.8135 62.0127L83.0327 43.0938L106.456 66.8175L87.5372 86.0367L63.8135 62.0127Z" fill="#4C7F7F"/>
<path d="M66.2158 64.7114L85.435 45.4922L104.054 64.4111L85.1347 83.6303L66.2158 64.7114Z" fill="#669999"/>
<path d="M69.2188 68.0161L88.438 48.7969L101.351 61.4095L82.1317 80.929L69.2188 68.0161Z" fill="#7FB2B2"/>
<path d="M74.0244 72.5239L93.2436 53.3047L96.5469 56.9083L77.3277 75.8272L74.0244 72.5239Z" fill="#B2E5E5"/>
<path d="M76.7266 76.7295L97.147 56.6094" stroke="black" stroke-width="0.3003"/>
<path d="M129.579 47.6008L108.859 68.0212L81.5312 40.9942L102.252 20.2734L129.579 47.6008Z" fill="#336666" stroke="black" stroke-width="0.3003"/>
<path d="M127.177 46.3956L107.958 65.6148L83.9336 41.8911L103.453 22.6719L127.177 46.3956Z" fill="#4C7F7F"/>
<path d="M124.775 43.997L105.556 63.2163L86.6367 44.2973L105.856 25.0781L124.775 43.997Z" fill="#669999"/>
<path d="M121.771 41.2879L102.252 60.2068L89.9395 47.5942L108.858 28.375L121.771 41.2879Z" fill="#7FB2B2"/>
<path d="M116.967 36.4864L97.7476 55.4053L94.4443 52.4023L113.363 32.8828L116.967 36.4864Z" fill="#B2E5E5"/>
<path d="M109.459 26.875L88.4385 47.896" stroke="black" stroke-width="0.3003"/>
<path d="M102.252 20.2703L122.672 0L150 26.8769L129.579 47.5976L102.252 20.2703Z" fill="#336666" stroke="black" stroke-width="0.3003"/>
<path d="M104.354 21.4692L123.574 2.25L147.598 26.274L128.379 45.4932L104.354 21.4692Z" fill="#4C7F7F"/>
<path d="M106.757 23.8755L125.976 4.65625L145.195 23.5752L125.976 43.0947L106.757 23.8755Z" fill="#669999"/>
<path d="M110.061 26.8781L129.58 8.10938L141.742 20.5718L122.973 39.7911L110.061 26.8781Z" fill="#7FB2B2"/>
<path d="M114.865 31.6845L134.084 12.7656L137.388 16.0689L118.469 35.2881L114.865 31.6845Z" fill="#B2E5E5"/>
<path d="M120.871 38.8892L141.292 18.4688" stroke="black" stroke-width="0.3003"/>
</g>
<defs>
<clipPath id="clip0_2109_238653">
<rect width="150" height="150" fill="white"/>
</clipPath>
</defs>
</svg>
