<svg width="150" height="150" viewBox="0 0 150 150" fill="none" xmlns="http://www.w3.org/2000/svg">
<g clip-path="url(#clip0_2109_238692)">
<path d="M0 103.753L34.6847 69.2188L80.9309 115.465L46.0961 150L0 103.753Z" fill="#336666" stroke="black" stroke-width="0.3003"/>
<path d="M4.05371 105.557L36.4861 73.125L76.7264 113.666L44.294 146.098L4.05371 105.557Z" fill="#4C7F7F"/>
<path d="M8.1084 110.056L40.691 77.0234L72.5228 109.156L39.7901 141.738L8.1084 110.056Z" fill="#669999"/>
<path d="M13.3633 115.162L46.096 82.4297L67.4173 104.051L34.6846 136.784L13.3633 115.162Z" fill="#7FB2B2"/>
<path d="M21.1709 122.975L53.9036 90.2422L59.6093 96.2482L26.8766 128.981L21.1709 122.975Z" fill="#B2E5E5"/>
<path d="M25.9756 129.581L60.8104 95.0469" stroke="black" stroke-width="0.3003"/>
<path d="M115.465 80.9337L80.9308 115.468L34.6846 69.222L69.2191 34.6875L115.465 80.9337Z" fill="#336666" stroke="black" stroke-width="0.3003"/>
<path d="M111.262 78.8262L78.8291 111.259L38.5889 71.0184L71.0213 38.5859L111.262 78.8262Z" fill="#4C7F7F"/>
<path d="M107.057 74.6209L74.6248 107.053L42.793 74.9212L74.9251 42.7891L107.057 74.6209Z" fill="#669999"/>
<path d="M102.252 69.5201L69.5191 102.253L47.8975 80.3309L80.3299 47.8984L102.252 69.5201Z" fill="#7FB2B2"/>
<path d="M94.144 61.4132L61.4113 94.146L56.0059 88.4402L88.4383 56.0078L94.144 61.4132Z" fill="#B2E5E5"/>
<path d="M80.6302 46.0938L46.0957 80.6283" stroke="black" stroke-width="0.3003"/>
<path d="M69.2188 34.6847L103.753 0L150 46.0961L115.465 80.9309L69.2188 34.6847Z" fill="#336666" stroke="black" stroke-width="0.3003"/>
<path d="M73.4238 36.1868L105.556 4.05469L146.097 44.2949L113.664 76.4271L73.4238 36.1868Z" fill="#4C7F7F"/>
<path d="M77.3271 40.3917L110.06 8.10938L141.742 39.7911L109.159 72.5238L77.3271 40.3917Z" fill="#669999"/>
<path d="M82.7324 45.7996L115.165 13.3672L136.786 34.6885L104.054 67.4212L82.7324 45.7996Z" fill="#7FB2B2"/>
<path d="M90.541 53.6043L122.973 21.1719L128.979 26.8776L96.547 59.6103L90.541 53.6043Z" fill="#B2E5E5"/>
<path d="M100.751 66.2142L135.286 31.6797" stroke="black" stroke-width="0.3003"/>
</g>
<defs>
<clipPath id="clip0_2109_238692">
<rect width="150" height="150" fill="white"/>
</clipPath>
</defs>
</svg>
