<svg width="150" height="150" viewBox="0 0 150 150" fill="none" xmlns="http://www.w3.org/2000/svg">
<g clip-path="url(#clip0_2109_238325)">
<path d="M83.333 99.8516V150.002H150V99.8516H83.333Z" fill="#336666" stroke="black" stroke-width="0.3003"/>
<path d="M87.5371 101.352V148.499H145.645V101.352H87.5371Z" fill="#4C7F7F"/>
<path d="M93.5439 101.352V148.499H139.49V101.352H93.5439Z" fill="#669999"/>
<path d="M101.051 101.352V148.499H132.282V101.352H101.051Z" fill="#7FB2B2"/>
<path d="M112.463 101.352V148.499H120.871V101.352H112.463Z" fill="#B2E5E5"/>
<path d="M50 0V66.5165L66.5165 70.7207L79.1291 83.3333L83.3333 99.8499H150L137.387 50L99.8498 12.4625L50 0Z" fill="#336666" stroke="black" stroke-width="0.3003"/>
<path d="M66.5166 70.7192L99.8499 12.4609" stroke="black" stroke-width="0.3003"/>
<path d="M79.1289 83.3333L137.387 50" stroke="black" stroke-width="0.3003"/>
<path d="M51.8018 62.3112L65.6156 65.9148L94.4444 15.4644L52.1021 4.20312L51.8018 62.3112Z" fill="#4C7F7F"/>
<path d="M52.1025 56.609L68.3188 61.1136L91.4419 20.8733L52.1025 10.0625V56.609Z" fill="#669999"/>
<path d="M52.1021 49.4021L72.2222 54.8075L87.8378 26.8796L51.8018 17.5703L52.1021 49.4021Z" fill="#7FB2B2"/>
<path d="M51.8018 37.385L77.9279 44.2919L82.1321 37.0847L52.1021 28.9766L51.8018 37.385Z" fill="#B2E5E5"/>
<path d="M71.0215 69.2195L81.2317 79.1294L131.082 49.7L100.151 18.4688L71.0215 69.2195Z" fill="#4C7F7F"/>
<path d="M74.0244 64.1152L86.0364 76.1273L125.976 52.7038L97.1475 23.875L74.0244 64.1152Z" fill="#669999"/>
<path d="M77.6279 57.8073L92.3426 72.522L119.97 56.3058L93.5438 30.1797L77.6279 57.8073Z" fill="#7FB2B2"/>
<path d="M83.6338 47.5978L102.553 66.5168L109.76 62.3125L87.838 40.3906L83.6338 47.5978Z" fill="#B2E5E5"/>
<path d="M83.333 84.2307L86.9366 97.7442L145.045 97.4439L133.783 55.1016L83.333 84.2307Z" fill="#4C7F7F"/>
<path d="M88.4385 81.2325L92.6427 97.749L139.189 97.4487L128.378 58.1094L88.4385 81.2325Z" fill="#669999"/>
<path d="M94.7451 77.6269L100.151 97.747L131.982 97.4467L122.072 61.7109L94.7451 77.6269Z" fill="#7FB2B2"/>
<path d="M104.955 71.6183L111.862 97.7444L120.27 97.4441L112.162 67.4141L104.955 71.6183Z" fill="#B2E5E5"/>
<path d="M0 66.5165H50V0H0V66.5165Z" fill="#336666" stroke="black" stroke-width="0.3003"/>
<path d="M1.35156 62.3112H48.4987V4.20312H1.35156V62.3112Z" fill="#4C7F7F"/>
<path d="M1.35156 56.3053H48.4987V10.3594H1.35156V56.3053Z" fill="#669999"/>
<path d="M1.35156 48.8015H48.4987V17.5703H1.35156V48.8015Z" fill="#7FB2B2"/>
<path d="M1.35156 37.385H48.4987V28.9766H1.35156V37.385Z" fill="#B2E5E5"/>
</g>
<defs>
<clipPath id="clip0_2109_238325">
<rect width="150" height="150" fill="white"/>
</clipPath>
</defs>
</svg>
