<svg width="150" height="150" viewBox="0 0 150 150" fill="none" xmlns="http://www.w3.org/2000/svg">
<g clip-path="url(#clip0_2109_238381)">
<path d="M99.8496 83.3359H150V150.003H99.8496V83.3359Z" fill="#336666" stroke="black" stroke-width="0.3003"/>
<path d="M101.352 87.5391H148.499V145.797H101.352V87.5391Z" fill="#4C7F7F"/>
<path d="M101.352 93.5469H148.499V139.493H101.352V93.5469Z" fill="#669999"/>
<path d="M101.352 101.055H148.499V132.286H101.352V101.055Z" fill="#7FB2B2"/>
<path d="M101.352 112.461H148.499V120.869H101.352V112.461Z" fill="#B2E5E5"/>
<path d="M0 50H66.5165L70.7207 66.5165L83.3333 79.1291L99.8499 83.3333V150L50 137.387L12.4625 99.8498L0 50Z" fill="#336666" stroke="black" stroke-width="0.3003"/>
<path d="M70.7211 66.5156L12.4629 99.849" stroke="black" stroke-width="0.3003"/>
<path d="M83.3333 79.1328L50 137.391" stroke="black" stroke-width="0.3003"/>
<path d="M62.312 51.8047L65.9156 65.6185L15.4651 94.4473L4.05371 52.105L62.312 51.8047Z" fill="#4C7F7F"/>
<path d="M56.6071 52.1016L61.1116 68.3178L20.8714 91.4409L10.0605 52.1016H56.6071Z" fill="#669999"/>
<path d="M49.3992 52.105L54.8046 72.2251L26.8767 87.8407L17.5674 51.8047L49.3992 52.105Z" fill="#7FB2B2"/>
<path d="M37.3869 51.8047L44.2938 77.9308L37.0866 82.135L28.9785 52.105L37.3869 51.8047Z" fill="#B2E5E5"/>
<path d="M69.2195 71.0234L79.1294 81.2336L49.7 131.083L18.4688 100.153L69.2195 71.0234Z" fill="#4C7F7F"/>
<path d="M64.1143 74.0234L76.1263 86.0354L52.7029 125.975L23.874 97.1466L64.1143 74.0234Z" fill="#669999"/>
<path d="M57.8073 77.625L72.522 92.3397L56.3058 119.967L30.1797 93.5409L57.8073 77.625Z" fill="#7FB2B2"/>
<path d="M47.5978 83.6328L66.5168 102.552L62.3125 109.759L40.3906 87.837L47.5978 83.6328Z" fill="#B2E5E5"/>
<path d="M84.2346 83.3359L97.7481 86.9395L97.4478 145.048L55.1055 133.786L84.2346 83.3359Z" fill="#4C7F7F"/>
<path d="M81.2315 88.4375L97.748 92.6417L97.4477 139.188L58.1084 128.377L81.2315 88.4375Z" fill="#669999"/>
<path d="M77.6278 94.7422L97.748 100.148L97.4477 131.979L61.7119 122.07L77.6278 94.7422Z" fill="#7FB2B2"/>
<path d="M71.6212 104.953L97.7473 111.86L97.447 120.268L67.417 112.16L71.6212 104.953Z" fill="#B2E5E5"/>
<path d="M66.5165 0V50H0V0H66.5165Z" fill="#336666" stroke="black" stroke-width="0.3003"/>
<path d="M62.312 1.35156V48.4987H4.05371V1.35156H62.312Z" fill="#4C7F7F"/>
<path d="M56.3063 1.35156V48.4987H10.3604V1.35156H56.3063Z" fill="#669999"/>
<path d="M48.7986 1.35156V48.4987H17.5674V1.35156H48.7986Z" fill="#7FB2B2"/>
<path d="M37.3869 1.35156V48.4987H28.9785V1.35156H37.3869Z" fill="#B2E5E5"/>
</g>
<defs>
<clipPath id="clip0_2109_238381">
<rect width="150" height="150" fill="white"/>
</clipPath>
</defs>
</svg>
