<svg width="150" height="150" viewBox="0 0 150 150" fill="none" xmlns="http://www.w3.org/2000/svg">
<g clip-path="url(#clip0_2109_238830)">
<path d="M82.4324 37.0625L29.8799 65.3937L56.9069 149.999L109.76 121.668L82.4324 37.0625Z" fill="#336666" stroke="black" stroke-width="0.341388"/>
<path d="M82.7331 43.2734L33.1836 69.6641L56.9073 143.791L106.457 117.012L82.7331 43.2734Z" fill="#4C7F7F"/>
<path d="M85.1355 51.0312L35.5859 77.81L54.2046 135.637L103.754 109.246L85.1355 51.0312Z" fill="#669999"/>
<path d="M88.1384 59.9609L38.5889 86.7397L51.2015 126.326L100.751 100.323L88.1384 59.9609Z" fill="#7FB2B2"/>
<path d="M92.6423 74.7109L43.0928 101.102L46.6964 111.968L95.9456 85.1896L92.6423 74.7109Z" fill="#B2E5E5"/>
<path d="M95.9463 0L55.7061 51.8111L109.76 121.669L150 69.6637L95.9463 0Z" fill="#336666" stroke="black" stroke-width="0.341388"/>
<path d="M98.3486 6.21094L60.5107 54.9173L107.358 115.461L145.195 66.5602L98.3486 6.21094Z" fill="#4C7F7F"/>
<path d="M103.454 12.4219L65.3154 61.1282L102.252 108.864L140.391 59.9639L103.454 12.4219Z" fill="#669999"/>
<path d="M109.459 19.9844L71.3213 68.4967L96.8468 101.485L134.384 52.1965L109.459 19.9844Z" fill="#7FB2B2"/>
<path d="M118.468 32.0156L80.3301 80.916L87.237 89.0661L125.075 40.5538L118.468 32.0156Z" fill="#B2E5E5"/>
<path d="M56.9069 51.4219H0V149.999H56.9069V51.4219Z" fill="#336666" stroke="black" stroke-width="0.341388"/>
<path d="M54.8045 57.6328H1.65137V143.791H54.8045V57.6328Z" fill="#4C7F7F"/>
<path d="M54.8045 66.5625H1.65137V134.48H54.8045V66.5625Z" fill="#669999"/>
<path d="M54.8045 77.8125H1.65137V123.608H54.8045V77.8125Z" fill="#7FB2B2"/>
<path d="M54.8045 94.5H1.65137V106.919H54.8045V94.5Z" fill="#B2E5E5"/>
</g>
<defs>
<clipPath id="clip0_2109_238830">
<rect width="150" height="150" fill="white"/>
</clipPath>
</defs>
</svg>
