<svg width="150" height="150" viewBox="0 0 150 150" fill="none" xmlns="http://www.w3.org/2000/svg">
<g clip-path="url(#clip0_2109_238549)">
<path d="M104.955 0V49.7765H45.1953V0H104.955Z" fill="#336666" stroke="black" stroke-width="0.317269"/>
<path d="M101.351 1.50781V48.4352H48.7988V1.50781H101.351Z" fill="#4C7F7F"/>
<path d="M95.646 1.50781V48.4352H54.5049V1.50781H95.646Z" fill="#669999"/>
<path d="M89.0393 1.50781V48.4352H61.1113V1.50781H89.0393Z" fill="#7FB2B2"/>
<path d="M78.8288 1.50781V48.4352H71.3213V1.50781H78.8288Z" fill="#B2E5E5"/>
<path d="M71.3213 0V49.7765" stroke="black" stroke-width="0.317269"/>
<path d="M45.1953 100.053V49.7734H104.955V100.053H45.1953Z" fill="#336666" stroke="black" stroke-width="0.317269"/>
<path d="M48.7988 98.3805V51.4531H101.351V98.3805H48.7988Z" fill="#4C7F7F"/>
<path d="M54.5049 98.3805V51.4531H95.646V98.3805H54.5049Z" fill="#669999"/>
<path d="M61.1113 98.3805V51.4531H89.0393V98.3805H61.1113Z" fill="#7FB2B2"/>
<path d="M71.3213 98.3805V51.4531H78.8288V98.3805H71.3213Z" fill="#B2E5E5"/>
<path d="M89.9395 100.053V49.7734" stroke="black" stroke-width="0.317269"/>
<path d="M104.955 100.055V149.999H45.1953V100.055H104.955Z" fill="#336666" stroke="black" stroke-width="0.317269"/>
<path d="M101.351 101.398V148.661H48.7988V101.398H101.351Z" fill="#4C7F7F"/>
<path d="M95.646 101.398V148.661H54.5049V101.398H95.646Z" fill="#669999"/>
<path d="M89.0393 101.398V148.661H61.1113V101.398H89.0393Z" fill="#7FB2B2"/>
<path d="M78.8288 101.398V148.661H71.3213V101.398H78.8288Z" fill="#B2E5E5"/>
<path d="M63.8135 100.055V149.999" stroke="black" stroke-width="0.317269"/>
<path d="M104.954 108.438L100.6 106.93L97.2968 103.578L94.8944 99.7232L92.9425 94.8629L91.441 89.4997L90.6902 84.807L90.0896 79.9467L89.9395 76.5947V74.9187V73.2428L90.2398 68.2148L90.8404 63.5221L92.1917 57.6562L93.8434 52.6282L96.0956 48.2707L99.0986 44.4159L102.702 42.0696L104.204 41.7344H104.954H150V108.438H104.954Z" fill="#336666"/>
<path d="M104.954 104.082L100.6 102.741L97.2968 99.8919L94.444 95.5344L92.492 91.1768L91.1407 86.3165L90.2398 80.7857L89.9395 76.4282V74.9198V73.4114L90.3899 67.7131L91.441 62.35L92.9425 57.4897L94.8944 53.2997L97.8974 49.2774L101.201 46.7634L104.204 45.7578H104.954H148.198V104.082H104.954Z" fill="#4C7F7F"/>
<path d="M104.954 98.0468L100.6 97.0412L96.6962 94.0244L93.8434 90.5049L91.7413 85.9798L90.3899 80.6166L89.9395 76.0915V74.9183V73.7451L90.6902 68.0468L92.1917 63.0189L94.444 58.8289L97.8974 54.8066L101.951 52.6278L104.204 52.125H104.954H148.198V98.0468H104.954Z" fill="#669999"/>
<path d="M104.954 90.6724L100.6 90.0021L96.6962 87.9909L93.3929 84.9741L91.1407 81.1194L89.9395 76.5942V74.9183L90.6902 70.2255L92.492 66.0356L96.6962 61.8456L100.6 59.8345L104.954 59.1641H148.198V90.6724H104.954Z" fill="#7FB2B2"/>
<path d="M104.954 79.2705L100.6 79.1029L95.495 78.2649L91.1407 76.5889L89.9395 74.913L93.3929 72.399L97.8974 71.3934L103.453 70.8906H104.954H148.198V79.2705H104.954Z" fill="#B2E5E5"/>
<path d="M104.954 108.438L100.6 106.93L97.2968 103.578L94.8944 99.7232L92.9425 94.8629L91.441 89.4997L90.6902 84.807L90.0896 79.9467L89.9395 76.5947V74.9187V73.2428L90.2398 68.2148L90.8404 63.5221L92.1917 57.6562L93.8434 52.6282L96.0956 48.2707L99.0986 44.4159L102.702 42.0696L104.204 41.7344H104.954H150V108.438H104.954Z" stroke="black" stroke-width="0.317269"/>
<path d="M92.042 59.1641H150" stroke="black" stroke-width="0.317269"/>
<path d="M44.5946 41.7344L49.0991 43.2428L52.4024 46.5947L54.8048 50.2819L56.7568 54.9746L58.1081 60.5053L59.1592 66.5388L59.6096 71.5668V73.2428V74.9187V76.5947L59.3093 81.6226L58.7087 86.483L57.5075 92.1813L55.7057 97.3768L53.6036 101.734L50.4505 105.757L46.997 107.935L45.3453 108.271L44.5946 108.438H0V41.7344H44.5946Z" fill="#336666"/>
<path d="M44.5943 45.7578L49.0988 47.0986L52.4021 49.9478L55.255 54.3053L57.0568 58.6628L58.4081 63.5232L59.309 69.0539L59.6093 73.4114V74.9198V76.4282L59.1589 82.1265L58.1078 87.4897L56.7565 92.35L54.8045 96.5399L51.8015 100.562L48.3481 103.076L45.3451 104.082H44.5943H1.65137V45.7578H44.5943Z" fill="#4C7F7F"/>
<path d="M44.5943 52.125L49.0988 53.1306L53.0027 55.9797L55.7054 59.4993L57.8075 64.0244L59.1589 69.22L59.6093 73.7451V74.9183V76.0915L59.0087 81.7898L57.5072 86.8177L55.255 91.1753L52.4021 94.6948L48.3481 97.3764L45.3451 98.0468H44.5943H1.65137V52.125H44.5943Z" fill="#669999"/>
<path d="M44.5943 59.1641L49.0988 59.8345L53.0027 61.8456L56.306 64.8624L58.4081 68.7171L59.6093 73.2423V74.9183L59.0087 79.611L57.0568 83.8009L53.0027 87.9909L49.0988 90.0021L44.5943 90.6724H1.65137V59.1641H44.5943Z" fill="#7FB2B2"/>
<path d="M44.5943 70.8906L49.0988 71.0582L54.2039 71.7286L58.4081 73.237L59.6093 74.913L56.306 77.5945L51.8015 78.7677L46.0958 79.2705H44.5943H1.65137V70.8906H44.5943Z" fill="#B2E5E5"/>
<path d="M44.5946 41.7344L49.0991 43.2428L52.4024 46.5947L54.8048 50.2819L56.7568 54.9746L58.1081 60.5053L59.1592 66.5388L59.6096 71.5668V73.2428V74.9187V76.5947L59.3093 81.6226L58.7087 86.483L57.5075 92.1813L55.7057 97.3768L53.6036 101.734L50.4505 105.757L46.997 107.935L45.3453 108.271L44.5946 108.438H0V41.7344H44.5946Z" stroke="black" stroke-width="0.317269"/>
<path d="M57.8078 90.6719H0" stroke="black" stroke-width="0.317269"/>
</g>
<defs>
<clipPath id="clip0_2109_238549">
<rect width="150" height="150" fill="white"/>
</clipPath>
</defs>
</svg>
