<svg width="150" height="150" viewBox="0 0 150 150" fill="none" xmlns="http://www.w3.org/2000/svg">
<g clip-path="url(#clip0_2109_238740)">
<path d="M29.8799 84.7995L82.4324 112.743L109.76 28.1371L56.9069 0L29.8799 84.7995Z" fill="#336666" stroke="black" stroke-width="0.341388"/>
<path d="M32.8828 80.1449L82.4324 106.536L106.156 32.7969L56.6065 6.40625L32.8828 80.1449Z" fill="#4C7F7F"/>
<path d="M35.5859 72.3788L85.1355 98.7695L103.754 40.9428L54.2046 14.1641L35.5859 72.3788Z" fill="#669999"/>
<path d="M38.2881 63.4507L87.8376 89.8414L100.751 50.2553L51.5013 23.4766L38.2881 63.4507Z" fill="#7FB2B2"/>
<path d="M43.0928 48.7052L92.6423 75.484L95.9456 64.6172L46.6964 38.2266L43.0928 48.7052Z" fill="#B2E5E5"/>
<path d="M0 98.771H56.9069V0H0V98.771Z" fill="#336666" stroke="black" stroke-width="0.341388"/>
<path d="M1.65137 92.176H55.1048V6.40625H1.65137V92.176Z" fill="#4C7F7F"/>
<path d="M1.35156 83.2479H55.1053V15.7188H1.35156V83.2479Z" fill="#669999"/>
<path d="M1.35156 71.9909L54.805 72.7671V26.1953L1.35156 26.5834V71.9909Z" fill="#7FB2B2"/>
<path d="M1.65137 55.3045L55.4051 55.6926L54.8045 43.6615L1.65137 43.2734V55.3045Z" fill="#B2E5E5"/>
<path d="M55.7061 97.9983L95.9463 150.003L150 80.5339L109.76 28.1406L55.7061 97.9983Z" fill="#336666" stroke="black" stroke-width="0.341388"/>
<path d="M60.5107 95.2777L98.0483 144.178L145.195 83.2467L107.658 34.7344L60.5107 95.2777Z" fill="#4C7F7F"/>
<path d="M65.6152 89.0695L103.153 137.582L140.09 89.8457L102.552 40.9453L65.6152 89.0695Z" fill="#669999"/>
<path d="M71.6221 81.3034L109.16 129.816L134.385 97.2154L96.547 48.7031L71.6221 81.3034Z" fill="#7FB2B2"/>
<path d="M80.6309 69.2725L118.469 117.785L125.075 109.247L87.5378 60.7344L80.6309 69.2725Z" fill="#B2E5E5"/>
</g>
<defs>
<clipPath id="clip0_2109_238740">
<rect width="150" height="150" fill="white"/>
</clipPath>
</defs>
</svg>
