<svg width="150" height="150" viewBox="0 0 150 150" fill="none" xmlns="http://www.w3.org/2000/svg">
<g clip-path="url(#clip0_2109_238409)">
<path d="M50 83.3359H0V150.003H50V83.3359Z" fill="#336666" stroke="black" stroke-width="0.3003"/>
<path d="M48.4987 87.5391H1.35156V145.797H48.4987V87.5391Z" fill="#4C7F7F"/>
<path d="M48.4987 93.5469H1.35156V139.493H48.4987V93.5469Z" fill="#669999"/>
<path d="M48.4987 101.055H1.35156V132.286H48.4987V101.055Z" fill="#7FB2B2"/>
<path d="M48.4987 112.461H1.35156V120.869H48.4987V112.461Z" fill="#B2E5E5"/>
<path d="M150 50H83.3333L79.1291 66.5165L66.5165 79.1291L50 83.3333V150L99.8498 137.387L137.387 99.8498L150 50Z" fill="#336666" stroke="black" stroke-width="0.3003"/>
<path d="M79.1289 66.5156L137.387 99.849" stroke="black" stroke-width="0.3003"/>
<path d="M66.5166 79.1328L99.8499 137.391" stroke="black" stroke-width="0.3003"/>
<path d="M87.5372 51.8047L83.9336 65.6185L134.384 94.4473L145.795 52.105L87.5372 51.8047Z" fill="#4C7F7F"/>
<path d="M93.2428 52.1016L88.7383 68.3178L128.979 91.4409L139.789 52.1016H93.2428Z" fill="#669999"/>
<path d="M100.45 52.105L95.0449 72.2251L122.973 87.8407L132.282 51.8047L100.45 52.105Z" fill="#7FB2B2"/>
<path d="M112.463 51.8047L105.556 77.9308L112.763 82.135L120.871 52.105L112.463 51.8047Z" fill="#B2E5E5"/>
<path d="M80.6306 71.0234L70.7207 81.2336L100.15 131.083L131.381 100.153L80.6306 71.0234Z" fill="#4C7F7F"/>
<path d="M85.7356 74.0234L73.7236 86.0354L97.1471 125.975L125.976 97.1466L85.7356 74.0234Z" fill="#669999"/>
<path d="M92.0419 77.625L77.3271 92.3397L93.5434 119.967L119.669 93.5409L92.0419 77.625Z" fill="#7FB2B2"/>
<path d="M102.252 83.6328L83.333 102.552L87.5372 109.759L109.459 87.837L102.252 83.6328Z" fill="#B2E5E5"/>
<path d="M65.6161 83.3359L52.1025 86.9395L52.4028 145.198L94.7452 133.786L65.6161 83.3359Z" fill="#4C7F7F"/>
<path d="M68.6191 88.4375L52.1025 92.6417L52.4028 139.188L91.7422 128.377L68.6191 88.4375Z" fill="#669999"/>
<path d="M72.2227 94.7422L52.1025 100.148L52.4028 131.979L88.1386 122.07L72.2227 94.7422Z" fill="#7FB2B2"/>
<path d="M78.2287 104.953L52.1025 111.86L52.4028 120.268L82.4329 112.16L78.2287 104.953Z" fill="#B2E5E5"/>
<path d="M83.333 0V50H150V0H83.333Z" fill="#336666" stroke="black" stroke-width="0.3003"/>
<path d="M87.5371 1.35156V48.4987H145.795V1.35156H87.5371Z" fill="#4C7F7F"/>
<path d="M93.5439 1.35156V48.4987H139.49V1.35156H93.5439Z" fill="#669999"/>
<path d="M101.051 1.35156V48.4987H132.282V1.35156H101.051Z" fill="#7FB2B2"/>
<path d="M112.463 1.35156V48.4987H120.871V1.35156H112.463Z" fill="#B2E5E5"/>
</g>
<defs>
<clipPath id="clip0_2109_238409">
<rect width="150" height="150" fill="white"/>
</clipPath>
</defs>
</svg>
