<svg width="150" height="150" viewBox="0 0 150 150" fill="none" xmlns="http://www.w3.org/2000/svg">
<g clip-path="url(#clip0_2109_238465)">
<path d="M64.0645 150.002V99.8516H150V150.002H64.0645Z" fill="#336666" stroke="black" stroke-width="0.340948"/>
<path d="M69.4834 148.349V101.352H144.967V148.349H69.4834Z" fill="#4C7F7F"/>
<path d="M77.6133 148.349V101.352H136.839V148.349H77.6133Z" fill="#669999"/>
<path d="M86.9033 148.349V101.352H127.161V148.349H86.9033Z" fill="#7FB2B2"/>
<path d="M102 148.349V101.352H112.452V148.349H102Z" fill="#B2E5E5"/>
<path d="M112.451 150.002V99.8516" stroke="black" stroke-width="0.340948"/>
<path d="M150 50V99.8498H64.0645V50H150Z" fill="#336666" stroke="black" stroke-width="0.340948"/>
<path d="M144.968 51.5V98.3468H69.4844V51.5H144.968Z" fill="#4C7F7F"/>
<path d="M136.839 51.5V98.3468H77.6133V51.5H136.839Z" fill="#669999"/>
<path d="M127.161 51.5V98.3468H86.9033V51.5H127.161Z" fill="#7FB2B2"/>
<path d="M112.452 51.5V98.3468H102V51.5H112.452Z" fill="#B2E5E5"/>
<path d="M85.7422 50V99.8498" stroke="black" stroke-width="0.340948"/>
<path d="M64.0645 50V0H150V50H64.0645Z" fill="#336666" stroke="black" stroke-width="0.340948"/>
<path d="M69.4844 48.1967V1.5H144.968V48.1967H69.4844Z" fill="#4C7F7F"/>
<path d="M77.6133 48.1967V1.5H136.839V48.1967H77.6133Z" fill="#669999"/>
<path d="M86.9033 48.1967V1.5H127.161V48.1967H86.9033Z" fill="#7FB2B2"/>
<path d="M102 48.1967V1.5H112.452V48.1967H102Z" fill="#B2E5E5"/>
<path d="M123.29 50V0" stroke="black" stroke-width="0.340948"/>
<path d="M64.0645 41.5938L69.4839 42.6448L74.3226 45.6478L77.8064 49.2514L80.9032 53.7559L82.6452 57.6598L84 62.0142L84.9677 66.6688L85.5484 71.4736L85.7419 73.2754V74.9271V76.5787L85.3548 81.5337L84.3871 86.3385L83.2258 90.843L81.4839 94.8971L78.7742 99.5517L75.2903 103.456L70.4516 106.759L65.2258 108.26H64.0645H0V41.5938H64.0645Z" fill="#336666"/>
<path d="M64.0642 45.7969L69.4836 46.6978L74.3223 49.2503L77.8061 52.4035L80.9029 56.3074L83.2255 60.962L84.7739 66.2173L85.5481 70.4215L85.7416 73.4245V74.926V76.4275L85.3545 80.7819L84.3868 84.9861L82.6449 90.0912L80.1287 94.5957L77.0319 98.3494L72.5803 101.803L67.3545 103.755L65.2255 104.055H64.0642H2.32227V45.7969H64.0642Z" fill="#4C7F7F"/>
<path d="M64.0642 52.1016L69.4836 52.8523L74.3223 54.8043L78.7739 58.1076L82.0642 62.1616L83.9997 66.0655L85.3545 70.2697L85.7416 73.7232V74.9244V76.1256L84.9674 80.6301L83.6126 84.8343L81.4836 88.5881L77.8061 92.492L73.5481 95.495L68.5158 97.2968L65.2255 97.7472H64.0642H2.32227V52.1016H64.0642Z" fill="#669999"/>
<path d="M64.0642 59.3125L70.4513 60.0633L76.2578 62.0152L80.9029 65.0182L83.9997 68.772L85.5481 73.2765L85.7416 74.9281L84.7739 79.5828L82.0642 83.6368L77.8061 86.9401L72.5803 89.3425L66.3868 90.3936L64.0642 90.5437H2.32227V59.3125H64.0642Z" fill="#7FB2B2"/>
<path d="M64.0642 70.7188L70.4513 70.8689L76.2578 71.4695L82.0642 72.5206L85.7416 74.923L80.9029 77.6257L74.3223 78.6767L68.5158 78.977L64.0642 79.1272H2.32227V70.7188H64.0642Z" fill="#B2E5E5"/>
<path d="M64.0645 41.5938L69.4839 42.6448L74.3226 45.6478L77.8064 49.2514L80.9032 53.7559L82.6452 57.6598L84 62.0142L84.9677 66.6688L85.5484 71.4736L85.7419 73.2754V74.9271V76.5787L85.3548 81.5337L84.3871 86.3385L83.2258 90.843L81.4839 94.8971L78.7742 99.5517L75.2903 103.456L70.4516 106.759L65.2258 108.26H64.0645H0V41.5938H64.0645Z" stroke="black" stroke-width="0.340948"/>
<path d="M83.0323 90.5391H0" stroke="black" stroke-width="0.340948"/>
</g>
<defs>
<clipPath id="clip0_2109_238465">
<rect width="150" height="150" fill="white"/>
</clipPath>
</defs>
</svg>
