<svg width="150" height="150" viewBox="0 0 150 150" fill="none" xmlns="http://www.w3.org/2000/svg">
<g clip-path="url(#clip0_2109_238866)">
<path d="M89.6323 43.3934L45.5056 0L0 44.5946L31.1032 74.9249L0.153218 105.556L45.1992 150L89.6323 106.456H150V43.3934H89.6323Z" fill="#336666" stroke="black" stroke-width="0.303352"/>
<path d="M87.4872 47.296L43.3605 2.85156L4.29004 42.4912L36.3125 74.9236L4.29004 107.356L43.3605 145.945L87.4872 102.551H148.927V47.296H87.4872Z" fill="#4C7F7F"/>
<path d="M85.6482 53.3063L39.3765 7.96094L8.12012 38.5916L44.2795 74.6276L8.12012 111.565L39.3765 141.895L85.6482 96.5495H148.927V53.3063H85.6482Z" fill="#669999"/>
<path d="M82.584 59.6115L34.4737 12.1641L13.0232 33.4854L54.6984 74.6265L12.7168 116.068L34.1673 137.089L82.584 89.6415L148.927 89.9418V59.6115H82.584Z" fill="#7FB2B2"/>
<path d="M77.6815 71.0208L26.2004 20.5703L20.6846 25.9757L71.5528 74.9247L21.2974 124.174L26.2004 129.279L77.6815 78.8286H148.928V71.0208H77.6815Z" fill="#B2E5E5"/>
<path d="M90.2456 103.457L87.7941 104.358L74.9238 75.5293L77.3753 74.3281L90.2456 103.457Z" fill="#336666"/>
<path d="M87.4877 45.1953L90.2456 46.3965L77.3753 75.5256L74.9238 74.3244L87.4877 45.1953Z" fill="#336666"/>
<path d="M33.248 76.4249V73.4219H76.149V76.4249H33.248Z" fill="#336666"/>
<path d="M76.4559 74.9219H31.1035" stroke="black" stroke-width="0.303352"/>
<path d="M89.6318 43.3906L76.4551 74.9222L89.6318 106.454" stroke="black" stroke-width="0.303352"/>
</g>
<defs>
<clipPath id="clip0_2109_238866">
<rect width="150" height="150" fill="white"/>
</clipPath>
</defs>
</svg>
