<svg width="150" height="150" viewBox="0 0 150 150" fill="none" xmlns="http://www.w3.org/2000/svg">
<g clip-path="url(#clip0_2109_238905)">
<path d="M43.3934 60.2145L0 104.341L44.5946 150L74.9249 118.744L105.556 149.694L150 104.648L106.456 60.2145V0H43.3934V60.2145Z" fill="#336666" stroke="black" stroke-width="0.303352"/>
<path d="M47.297 62.3621L2.85254 106.489L42.4922 145.712L74.9246 113.537L107.357 145.712L146.096 106.489L102.552 62.3621V0.921875H47.297V62.3621Z" fill="#4C7F7F"/>
<path d="M53.3034 64.2007L7.95801 110.472L38.5886 141.729L74.6247 105.569L111.562 141.729L141.892 110.472L96.5466 64.2007V0.921875H53.3034V64.2007Z" fill="#669999"/>
<path d="M59.6096 67.2651L12.1621 115.375L33.4834 136.826L74.6246 95.1507L116.066 137.132L137.087 115.682L89.6396 67.2651L89.9399 0.921875H59.6096V67.2651Z" fill="#7FB2B2"/>
<path d="M71.0208 72.168L20.5703 123.649L25.9757 129.165L74.9247 78.2967L124.174 128.552L129.279 123.649L78.8286 72.168V0.921875H71.0208V72.168Z" fill="#B2E5E5"/>
<path d="M103.453 59.6016L104.354 62.053L75.5254 74.9233L74.3242 72.4718L103.453 59.6016Z" fill="#336666"/>
<path d="M45.1953 62.3595L46.3965 59.6016L75.5256 72.4718L74.3244 74.9233L45.1953 62.3595Z" fill="#336666"/>
<path d="M76.4268 116.596H73.4238V73.6953H76.4268V116.596Z" fill="#336666"/>
<path d="M74.9248 73.3906V118.743" stroke="black" stroke-width="0.303352"/>
<path d="M43.3936 60.2109L74.9251 73.3876L106.457 60.2109" stroke="black" stroke-width="0.303352"/>
</g>
<defs>
<clipPath id="clip0_2109_238905">
<rect width="150" height="150" fill="white"/>
</clipPath>
</defs>
</svg>
