<svg width="150" height="150" viewBox="0 0 150 150" fill="none" xmlns="http://www.w3.org/2000/svg">
<g clip-path="url(#clip0_2109_238848)">
<path d="M65.0066 29.8828L37.0635 82.4354L121.669 109.763L150 56.9098L65.0066 29.8828Z" fill="#336666" stroke="black" stroke-width="0.341388"/>
<path d="M69.6641 32.8828L43.2734 82.4324L117.012 106.156L143.403 56.6065L69.6641 32.8828Z" fill="#4C7F7F"/>
<path d="M77.4258 35.5859L51.0352 85.1355L108.862 103.754L135.641 54.2046L77.4258 35.5859Z" fill="#669999"/>
<path d="M86.3516 38.2891L59.9609 87.8386L99.547 100.752L126.326 51.5023L86.3516 38.2891Z" fill="#7FB2B2"/>
<path d="M101.099 43.0938L74.3203 92.6433L85.1871 95.9466L111.578 46.6974L101.099 43.0938Z" fill="#B2E5E5"/>
<path d="M51.0352 0V56.9069H150V0H51.0352Z" fill="#336666" stroke="black" stroke-width="0.341388"/>
<path d="M57.6328 1.80469V55.108H143.403V1.80469H57.6328Z" fill="#4C7F7F"/>
<path d="M66.5586 1.35156V55.1053H134.088V1.35156H66.5586Z" fill="#669999"/>
<path d="M77.8133 1.35156L77.0371 54.805H123.609L123.221 1.35156H77.8133Z" fill="#7FB2B2"/>
<path d="M94.5024 1.80469L94.1143 55.4083L106.145 54.8077L106.533 1.80469H94.5024Z" fill="#B2E5E5"/>
<path d="M51.8111 55.7031L0 95.9434L69.2756 149.997L121.669 109.757L51.8111 55.7031Z" fill="#336666" stroke="black" stroke-width="0.341388"/>
<path d="M54.5273 60.5078L5.62695 98.0453L66.5584 145.192L115.071 107.655L54.5273 60.5078Z" fill="#4C7F7F"/>
<path d="M60.7369 65.6172L12.2246 103.155L59.9607 140.092L108.861 102.554L60.7369 65.6172Z" fill="#669999"/>
<path d="M68.4996 71.625L19.9873 109.163L52.5876 134.388L101.1 96.5499L68.4996 71.625Z" fill="#7FB2B2"/>
<path d="M80.5308 80.6328L32.0186 118.471L40.5567 125.077L89.069 87.5397L80.5308 80.6328Z" fill="#B2E5E5"/>
</g>
<defs>
<clipPath id="clip0_2109_238848">
<rect width="150" height="150" fill="white"/>
</clipPath>
</defs>
</svg>
