<svg width="150" height="150" viewBox="0 0 150 150" fill="none" xmlns="http://www.w3.org/2000/svg">
<g clip-path="url(#clip0_2109_229344)">
<path d="M131.081 42.2344L134.384 59.7101H138.889V50.9722H143.694V59.7101H150V88.8363H143.694V97.5742H138.889V88.8363H134.384L131.081 103.399V42.2344Z" fill="#999999"/>
<path d="M18.7688 103.399L15.4655 88.8363H10.961V97.5742H6.15616V88.8363H0V59.7101H6.15616V50.9722H10.961V59.7101H15.4655L18.7688 42.2344V103.399Z" fill="#999999"/>
<path d="M131.081 48.0547L134.384 59.7052H138.889V53.8799H143.694V59.7052H150V85.9188H143.694V94.6566H138.889V85.9188H134.384L131.081 100.482V48.0547Z" fill="#CCCCCC"/>
<path d="M18.7688 100.482L15.4655 88.8314H10.961V94.6566H6.15616V88.8314H0V59.7052H6.15616V53.8799H10.961V59.7052H15.4655L18.7688 48.0547V100.482Z" fill="#CCCCCC"/>
<path d="M131.081 56.7969L134.384 65.5347H138.889V59.7095H143.694V65.5347H150V83.0105H143.694V88.8357H138.889V83.0105H134.384L131.081 91.7483V56.7969Z" fill="#F2F2F2"/>
<path d="M18.7688 91.7483L15.4655 83.0105H10.961V88.8357H6.15616V83.0105H0V65.5347H6.15616V59.7095H10.961V65.5347H15.4655L18.7688 56.7969V91.7483Z" fill="#F2F2F2"/>
<path d="M6.15625 88.8372V59.7109" stroke="#666666" stroke-width="0.935233"/>
<path d="M10.9609 88.8372V59.7109" stroke="#666666" stroke-width="0.935233"/>
<path d="M8.55859 97.5707V50.9688" stroke="#666666" stroke-width="0.935233"/>
<path d="M15.4658 88.8372V59.7109" stroke="#666666" stroke-width="0.935233"/>
<path d="M143.693 59.7109V88.8372" stroke="#666666" stroke-width="0.935233"/>
<path d="M138.889 59.7109V88.8372" stroke="#666666" stroke-width="0.935233"/>
<path d="M141.291 50.9688V97.5707" stroke="#666666" stroke-width="0.935233"/>
<path d="M134.385 59.7109V88.8372" stroke="#666666" stroke-width="0.935233"/>
<path d="M18.7686 0H131.081V150H18.7686V0Z" fill="#666666"/>
<path d="M18.7686 5.82812H131.081V144.178H18.7686V5.82812Z" fill="#707070"/>
<path d="M18.7686 8.73438H131.081V138.346H18.7686V8.73438Z" fill="#7D7D7D"/>
<path d="M18.7686 13.1094H131.081V135.439H18.7686V13.1094Z" fill="#878787"/>
<path d="M18.7686 18.9297H131.081V129.609H18.7686V18.9297Z" fill="#919191"/>
<path d="M18.7686 26.2109H131.081V123.784H18.7686V26.2109Z" fill="#9C9C9C"/>
<path d="M18.7686 27.6719H131.081V117.963H18.7686V27.6719Z" fill="#A8A8A8"/>
<path d="M18.7686 33.4922H131.081V115.046H18.7686V33.4922Z" fill="#B2B2B2"/>
<path d="M18.7686 39.3203H131.081V109.223H18.7686V39.3203Z" fill="#BDBDBD"/>
<path d="M18.7686 45.1484H131.081V103.401H18.7686V45.1484Z" fill="#C9C9C9"/>
<path d="M18.7686 48.0547H131.081V97.5693H18.7686V48.0547Z" fill="#D4D4D4"/>
<path d="M18.7686 53.8828H131.081V91.7469H18.7686V53.8828Z" fill="#DEDEDE"/>
<path d="M18.7686 59.7109H131.081V88.8372H18.7686V59.7109Z" fill="#E8E8E8"/>
<path d="M18.7686 65.5312H131.081V83.007H18.7686V65.5312Z" fill="#F5F5F5"/>
<path d="M18.7686 71.3594H131.081V77.1846H18.7686V71.3594Z" fill="white"/>
<path d="M18.7686 0H131.081V150H18.7686V0Z" stroke="black" stroke-width="0.935233"/>
<path d="M18.7688 103.399L15.4655 88.8363H10.961V97.5742H6.15616V88.8363H0V59.7101H6.15616V50.9722H10.961V59.7101H15.4655L18.7688 42.2344V103.399Z" stroke="black" stroke-width="0.935233"/>
<path d="M131.081 42.2344L134.384 59.7101H138.889V50.9722H143.694V59.7101H150V88.8363H143.694V97.5742H138.889V88.8363H134.384L131.081 103.399V42.2344Z" stroke="black" stroke-width="0.935233"/>
</g>
<defs>
<clipPath id="clip0_2109_229344">
<rect width="150" height="150" fill="white"/>
</clipPath>
</defs>
</svg>
