<svg width="150" height="150" viewBox="0 0 150 150" fill="none" xmlns="http://www.w3.org/2000/svg">
<g clip-path="url(#clip0_2109_229455)">
<path d="M88.4384 99.8559H0V0H88.4384V99.8559Z" fill="#7F7F7F" stroke="black" stroke-width="0.509535"/>
<path d="M120.571 92.0752H88.4385V7.78125H150V118.876H120.571V92.0752Z" fill="#7F7F7F"/>
<path d="M120.57 118.875L132.582 149.999H137.988L150 118.875H120.57Z" fill="#7F7F7F"/>
<path d="M88.4384 90.3435H0V8.21094H88.4384V90.3435Z" fill="#999999"/>
<path d="M123.273 84.2944H88.4385V14.2656H147.147V118.877H123.273V84.2944Z" fill="#999999"/>
<path d="M123.273 118.875L132.883 149.999H137.688L147.147 118.875H123.273Z" fill="#999999"/>
<path d="M125.976 76.5164H88.4385V22.9141H144.444V118.879H125.976V76.5164Z" fill="#B2B2B2"/>
<path d="M88.4384 81.7035H0V17.7266H88.4384V81.7035Z" fill="#B2B2B2"/>
<path d="M125.976 118.875L133.483 149.999H136.937L144.444 118.875H125.976Z" fill="#B2B2B2"/>
<path d="M88.4384 72.1911H0V27.2344H88.4384V72.1911Z" fill="#CCCCCC"/>
<path d="M128.679 68.7357H88.4385V30.6953H141.892V118.88H128.679V68.7357Z" fill="#CCCCCC"/>
<path d="M128.679 118.875L134.084 149.999H136.487L141.892 118.875H128.679Z" fill="#CCCCCC"/>
<path d="M131.381 60.9471H88.4385V38.4688H139.189V118.872H131.381V60.9471Z" fill="#E5E5E5"/>
<path d="M88.4384 63.5485H0V35.8828H88.4384V63.5485Z" fill="#E5E5E5"/>
<path d="M131.382 118.875L134.685 149.999H135.886L139.19 118.875H131.382Z" fill="#E5E5E5"/>
<path d="M133.784 54.0362H88.4385V45.3906H136.487V118.878H133.784V54.0362Z" fill="white"/>
<path d="M88.4384 54.0362H0V45.3906H88.4384V54.0362Z" fill="white"/>
<path d="M133.784 118.875L134.985 149.999H135.436L136.787 118.875H133.784Z" fill="white"/>
<path d="M120.571 92.0752H88.4385V7.78125H150V118.876L137.988 150H132.583L120.571 118.876V92.0752Z" stroke="black" stroke-width="0.509535"/>
<path d="M134.685 123.195L134.084 120.601V118.008L134.685 115.414H135.886L136.486 118.008V120.601L135.886 123.195H134.685Z" fill="#CCCCCC" stroke="black" stroke-width="0.509535"/>
<path d="M74.6251 60.9471L72.2227 54.8953V44.5206L74.6251 38.4688H77.9284L80.3308 44.5206V54.8953L77.9284 60.9471H74.6251Z" fill="#CCCCCC" stroke="black" stroke-width="0.509535"/>
<path d="M125.976 76.5164L144.444 22.9141" stroke="white" stroke-width="0.509535"/>
</g>
<defs>
<clipPath id="clip0_2109_229455">
<rect width="150" height="150" fill="white"/>
</clipPath>
</defs>
</svg>
