<svg width="150" height="150" viewBox="0 0 150 150" fill="none" xmlns="http://www.w3.org/2000/svg">
<g clip-path="url(#clip0_2109_229308)">
<path d="M16.5166 0H150V150H16.5166V0Z" fill="#4C4C4C"/>
<path d="M16.2158 3.63281H148.498V142.746H16.2158V3.63281Z" fill="#545454"/>
<path d="M16.2158 10.8906H148.498V135.487H16.2158V10.8906Z" fill="#5C5C5C"/>
<path d="M16.2158 18.1484H148.498V128.229H16.2158V18.1484Z" fill="#636363"/>
<path d="M16.2158 25.4062H148.498V120.971H16.2158V25.4062Z" fill="#6B6B6B"/>
<path d="M16.2158 32.6641H148.498V113.712H16.2158V32.6641Z" fill="#737373"/>
<path d="M16.2158 39.9219H148.498V107.664H16.2158V39.9219Z" fill="#7A7A7A"/>
<path d="M16.2158 47.1797H148.498V102.825H16.2158V47.1797Z" fill="#828282"/>
<path d="M16.2158 54.4375H148.498V93.1472H16.2158V54.4375Z" fill="#8A8A8A"/>
<path d="M16.2158 61.6953H148.498V88.3082H16.2158V61.6953Z" fill="#919191"/>
<path d="M16.5166 68.9531H150V81.0499H16.5166V68.9531Z" fill="#999999"/>
<path d="M18.0176 0H146.997V150H18.0176V0Z" fill="#16284C"/>
<path d="M18.0176 3.63281H146.997V142.746H18.0176V3.63281Z" fill="#1E3054"/>
<path d="M18.0176 10.8906H146.997V135.487H18.0176V10.8906Z" fill="#26385C"/>
<path d="M18.0176 18.1484H146.997V128.229H18.0176V18.1484Z" fill="#2D3F63"/>
<path d="M18.0176 25.4062H146.997V120.971H18.0176V25.4062Z" fill="#35476B"/>
<path d="M18.0176 32.6641H146.997V113.712H18.0176V32.6641Z" fill="#3D4F73"/>
<path d="M18.0176 39.9219H146.997V107.664H18.0176V39.9219Z" fill="#44567A"/>
<path d="M18.0176 47.1797H146.997V102.825H18.0176V47.1797Z" fill="#4C5E82"/>
<path d="M18.0176 54.4375H146.997V95.5665H18.0176V54.4375Z" fill="#54668A"/>
<path d="M18.0176 61.6953H146.997V88.3082H18.0176V61.6953Z" fill="#5B6D91"/>
<path d="M18.0176 68.9531H146.997V81.0499H18.0176V68.9531Z" fill="#637599"/>
<path d="M0 42.3359H16.5165V105.239H0V42.3359Z" fill="#666666"/>
<path d="M0 47.1797H16.5165V99.1958H0V47.1797Z" fill="#7A7A7A"/>
<path d="M0 52.0156H16.5165V95.564H0V52.0156Z" fill="#919191"/>
<path d="M0 56.8516H16.5165V90.7225H0V56.8516Z" fill="#A6A6A6"/>
<path d="M0 61.6953H16.5165V85.8889H0V61.6953Z" fill="#BABABA"/>
<path d="M0 66.5312H16.5165V81.0474H0V66.5312Z" fill="#D1D1D1"/>
<path d="M0 71.3672H16.5165V76.2059H0V71.3672Z" fill="#E5E5E5"/>
<path d="M11.8623 42.3359H13.3638V107.659H11.8623V42.3359Z" fill="#666666"/>
<path d="M7.65723 42.3359H8.55813V107.659H7.65723V42.3359Z" fill="#666666"/>
<path d="M0 42.3359H16.5165V107.659H0V42.3359Z" stroke="black" stroke-width="0.852369"/>
<path d="M16.5166 0H148.499V150H16.5166V0Z" stroke="black" stroke-width="0.852369"/>
</g>
<defs>
<clipPath id="clip0_2109_229308">
<rect width="150" height="150" fill="white"/>
</clipPath>
</defs>
</svg>
