<svg width="150" height="150" viewBox="0 0 150 150" fill="none" xmlns="http://www.w3.org/2000/svg">
<g clip-path="url(#clip0_2109_229283)">
<path d="M150 137.387L146.655 141.141L140.738 143.243L132.762 145.345L125.3 146.697L116.552 147.748L107.29 148.649L96.9983 149.399L86.1921 149.7L82.5901 149.85L78.7307 150H74.8714L67.41 149.85L56.3465 149.549L45.7976 148.949L36.0206 148.048L27.2727 146.997L19.554 145.796L12.8645 144.294L5.66038 142.192L0.25729 138.588L0 137.988V137.387V4.80469H150V137.387Z" fill="#996633"/>
<path d="M89.2797 148.496H60.9778L35.2488 146.694L15.4375 143.24L4.37402 138.886V4.35156H145.883V138.886L135.077 143.24L115.009 146.694L89.2797 148.496Z" fill="#9E6B38"/>
<path d="M88.2501 148.496H62.0065L37.3067 146.694L18.7818 143.691L8.49023 139.487V4.35156H141.252V139.487L131.475 143.691L112.435 146.694L88.2501 148.496Z" fill="#A3703D"/>
<path d="M87.2211 148.496H62.5213L39.8798 146.694L22.3841 143.841L13.3789 140.237V4.35156H137.135V140.237L127.873 143.841L110.377 146.694L87.2211 148.496Z" fill="#A87542"/>
<path d="M86.7071 148.496H63.551L42.7105 146.844L25.9867 144.292L17.4961 140.838V4.35156H132.505V140.838L123.757 144.292L107.805 146.844L86.7071 148.496Z" fill="#AB7845"/>
<path d="M85.677 148.496H64.5793L45.0252 146.844L30.1024 144.442L21.8691 141.439V4.35156H128.387V141.439L120.154 144.442L105.231 146.844L85.677 148.496Z" fill="#B07D4A"/>
<path d="M84.6484 148.496H65.0944L47.0841 147.295L33.705 144.892L25.9863 142.039V4.35156H123.756V142.039L116.552 144.892L102.659 147.295L84.6484 148.496Z" fill="#B5824F"/>
<path d="M84.1335 148.496H66.1232L49.6566 147.295L37.3067 145.042L30.6172 142.64V4.35156H119.639V142.64L112.95 145.042L100.085 147.295L84.1335 148.496Z" fill="#BA8754"/>
<path d="M83.1049 148.496H67.1529L52.2301 147.295L40.9093 145.643L34.7344 143.24V4.35156H115.009V143.24L109.348 145.643L98.0277 147.295L83.1049 148.496Z" fill="#BF8C59"/>
<path d="M82.0759 148.496H68.1822L54.8032 147.445L44.5116 146.093L39.623 143.841V4.35156H110.892V143.841L105.232 146.093L95.455 147.445L82.0759 148.496Z" fill="#C4915E"/>
<path d="M81.5613 148.496H68.6968L57.3761 147.445L48.1136 146.243L43.4824 144.442V4.35156H106.261V144.442L101.63 146.243L92.8821 147.445L81.5613 148.496Z" fill="#C99663"/>
<path d="M80.5317 148.496H69.7256L59.434 147.895L52.2299 146.694L47.5986 145.042V4.35156H102.144V145.042L98.0275 146.694L90.3088 147.895L80.5317 148.496Z" fill="#CF9C69"/>
<path d="M79.5022 148.496H70.7544L62.0065 147.895L55.8316 146.844L52.2295 145.643V4.35156H98.0271V145.643L94.425 146.844L87.7355 147.895L79.5022 148.496Z" fill="#D19E6B"/>
<path d="M78.4736 148.496H71.2695L64.58 147.895L59.4342 147.295L56.3467 146.243V4.35156H93.3964V146.243L90.8235 147.295L85.6777 147.895L78.4736 148.496Z" fill="#D6A370"/>
<path d="M77.9587 148.496H72.2983L67.1525 148.045L63.0359 147.445L60.9775 146.844V4.35156H89.2794V146.844L86.7065 147.445L83.1045 148.045L77.9587 148.496Z" fill="#DBA875"/>
<path d="M76.9301 148.496H73.328L69.2114 148.045L66.6385 147.895H65.0947V4.35156H84.6488V147.895H83.105L80.5321 148.045L76.9301 148.496Z" fill="#E0AD7A"/>
<path d="M75.9005 148.498H73.8422H71.7839H70.2402H69.7256V4.80469H80.5318V148.498H79.5026H77.9589H75.9005Z" fill="#E5B27F"/>
<path d="M150 137.387L146.655 141.141L140.738 143.243L132.762 145.345L125.3 146.697L116.552 147.748L107.29 148.649L96.9983 149.399L86.1921 149.7L82.5901 149.85L78.7307 150H74.8714L67.41 149.85L56.3465 149.549L45.7976 148.949L36.0206 148.048L27.2727 146.997L19.554 145.796L12.8645 144.294L5.66038 142.192L0.25729 138.588L0 137.988V137.387V4.80469H150V137.387Z" stroke="black" stroke-width="0.393101"/>
<path d="M74.8714 9.00901C116.222 9.00901 149.743 6.99227 149.743 4.5045C149.743 2.01674 116.222 0 74.8714 0C33.521 0 0 2.01674 0 4.5045C0 6.99227 33.521 9.00901 74.8714 9.00901Z" fill="#E5B27F" stroke="black" stroke-width="0.393101"/>
<path d="M150 8.40625L144.854 9.60745L135.077 10.8087L121.184 11.5594L103.688 12.16L84.6484 12.4603H65.0943L46.0549 12.16L29.0738 11.5594L15.4374 10.8087L5.1458 9.60745L0 8.40625" stroke="#996633" stroke-width="0.393101"/>
<path d="M142.281 12.7647L147.427 12.1641V24.4764L142.281 25.3773V12.7647Z" fill="#CCCCCC"/>
<path d="M75.1289 8.25751C107.527 8.25751 133.791 6.57689 133.791 4.50375C133.791 2.43061 107.527 0.75 75.1289 0.75C42.7307 0.75 16.4668 2.43061 16.4668 4.50375C16.4668 6.57689 42.7307 8.25751 75.1289 8.25751Z" fill="#D9A673"/>
</g>
<defs>
<clipPath id="clip0_2109_229283">
<rect width="150" height="150" fill="white"/>
</clipPath>
</defs>
</svg>
