<svg width="150" height="150" viewBox="0 0 150 150" fill="none" xmlns="http://www.w3.org/2000/svg">
<g clip-path="url(#clip0_2109_227666)">
<path d="M0 150V142.341L10.8108 134.681V119.787H0V73.83H31.982V30.4257H69.5195V73.83H74.9249V28.298H71.021V13.6172H101.652V150H0Z" fill="#666666"/>
<path d="M5.4056 73.83V35.9576L1.95215 28.298V20.6385L5.4056 13.6172H35.2855L40.0903 51.2768H29.2795V73.83H5.4056Z" fill="#7F7F7F"/>
<path d="M56.3066 123.192V43.6172H66.8172V119.787H80.3307V77.6597H101.652V150H66.8172V134.681L56.3066 123.192Z" fill="#7F7F7F"/>
<path d="M48.7984 62.7666L46.0957 52.9794V31.2773L52.1017 24.4688H68.9185L74.9245 32.1283V52.1283L71.0206 58.9368H65.0146L63.5131 62.7666H48.7984Z" fill="#8C9999" stroke="black" stroke-width="0.357474"/>
<path d="M56.7568 52.1255C60.4884 52.1255 63.5135 47.8389 63.5135 42.551C63.5135 37.2632 60.4884 32.9766 56.7568 32.9766C53.0251 32.9766 50 37.2632 50 42.551C50 47.8389 53.0251 52.1255 56.7568 52.1255Z" fill="#669999"/>
<path d="M56.7572 50.2139C59.6596 50.2139 62.0125 46.8799 62.0125 42.7671C62.0125 38.6544 59.6596 35.3203 56.7572 35.3203C53.8548 35.3203 51.502 38.6544 51.502 42.7671C51.502 46.8799 53.8548 50.2139 56.7572 50.2139Z" fill="#B2B2B2"/>
<path d="M0 150V142.341L10.8108 134.681V119.787H0V73.83H5.40541V35.9576L1.95195 28.298V20.6385L5.40541 13.6172H35.2853L37.3874 30.4257H69.5195V73.83H74.9249V28.298H71.021V13.6172H101.652V150H0Z" stroke="black" stroke-width="0.357474"/>
<path d="M26.5769 130.849V100.636H16.0664V92.9766H53.6039V100.636H40.0904V130.849H26.5769Z" fill="#4C4C4C"/>
<path d="M73.7236 97.6599V97.2344L79.7296 99.7876V100.639L73.7236 97.6599Z" fill="#FFE57F"/>
<path d="M77.3271 79.363L77.6274 78.9375L83.6335 81.4907V82.3418L77.3271 79.363Z" fill="#FFE57F"/>
<path d="M80.6309 61.4917L80.9312 60.6406L86.9372 63.6193V64.0449L80.6309 61.4917Z" fill="#FFE57F"/>
<path d="M80.9314 60.6406H81.532L73.7241 97.6619H72.8232L80.9314 60.6406Z" fill="#FFE57F"/>
<path d="M77.6275 112.13L86.9368 63.6193L85.7356 60.6406L76.126 109.151L77.6275 112.13Z" fill="#CCCCCC" stroke="black" stroke-width="0.357474"/>
<path d="M96.5469 28.2969H150V149.999H96.5469V28.2969Z" fill="#CCCCCC"/>
<path d="M123.273 82.3368L150 50.4219V104.464H123.273V82.3368Z" fill="#C7C7C7"/>
<path d="M96.5469 82.3368L123.274 50.4219V104.464H96.5469V82.3368Z" fill="#C7C7C7"/>
<path d="M123.273 85.743L150 53.8281V104.466H123.273V85.743Z" fill="#C2C2C2"/>
<path d="M96.5469 85.743L123.274 53.8281V104.466H96.5469V85.743Z" fill="#C2C2C2"/>
<path d="M123.273 90.4227L150 58.5078V104.465H123.273V90.4227Z" fill="#BDBDBD"/>
<path d="M96.5469 90.4227L123.274 58.5078V104.465H96.5469V90.4227Z" fill="#BDBDBD"/>
<path d="M96.5469 28.2969H150V149.999H96.5469V28.2969Z" stroke="black" stroke-width="0.357474"/>
<path d="M123.273 104.467V28.2969" stroke="#B2B2B2" stroke-width="0.357474"/>
<path d="M98.9492 112.125H147.298V123.189H98.9492V112.125Z" fill="#99CCCC"/>
<path d="M98.9492 112.125H111.262L101.352 115.955L98.9492 123.189V112.125Z" fill="#669999"/>
<path d="M111.262 112.125H123.274L113.664 115.955L111.262 123.189V112.125Z" fill="#669999"/>
<path d="M123.273 112.125H135.285L125.676 115.955L123.273 123.189V112.125Z" fill="#669999"/>
<path d="M135.285 112.125H147.297L137.688 115.955L135.285 123.189V112.125Z" fill="#669999"/>
<path d="M98.9492 146.169H147.298V108.297" stroke="#999999" stroke-width="0.357474"/>
<path d="M96.2461 104.469H150" stroke="#999999" stroke-width="0.357474"/>
<path d="M147.298 123.195H98.9492" stroke="#999999" stroke-width="0.357474"/>
<path d="M147.298 112.125H98.9492V123.189" stroke="black" stroke-width="0.357474"/>
<path d="M101.651 119.791L106.456 115.961L104.054 119.791L108.859 115.961" stroke="white" stroke-width="0.357474"/>
<path d="M113.664 119.791L118.469 115.961L116.066 119.791L120.871 115.961" stroke="white" stroke-width="0.357474"/>
<path d="M125.676 119.791L130.481 115.961L128.078 119.791L132.883 115.961" stroke="white" stroke-width="0.357474"/>
<path d="M137.388 119.791L142.042 115.961L139.64 119.791L144.445 115.961" stroke="white" stroke-width="0.357474"/>
<path d="M127.777 78.9392V35.1094H145.045" stroke="#999999" stroke-width="0.357474"/>
<path d="M144.444 35.9609V77.6631H128.679" stroke="#999999" stroke-width="0.357474"/>
<path d="M136.486 77.6631V35.9609" stroke="#999999" stroke-width="0.357474"/>
<path d="M145.495 35.1094V78.5136H127.777" stroke="#E5E5E5" stroke-width="0.357474"/>
<path d="M128.679 77.6631V35.9609H144.444" stroke="#E5E5E5" stroke-width="0.357474"/>
<path d="M85.7354 103.617H96.2459V150H85.7354V103.617Z" fill="#CCCCCC"/>
<path d="M86.9365 147.023H95.0446V150.002H86.9365V147.023Z" fill="#999999"/>
<path d="M86.9365 142.344H95.0446V145.322H86.9365V142.344Z" fill="#999999"/>
<path d="M86.9365 137.656H95.0446V140.635H86.9365V137.656Z" fill="#999999"/>
<path d="M86.9365 132.977H95.0446V135.53H86.9365V132.977Z" fill="#999999"/>
<path d="M86.9365 128.297H95.0446V130.85H86.9365V128.297Z" fill="#999999"/>
<path d="M86.9365 123.195H95.0446V126.174H86.9365V123.195Z" fill="#999999"/>
<path d="M86.9365 117.656H95.0446V120.635H86.9365V117.656Z" fill="#999999"/>
<path d="M86.9365 112.977H95.0446V115.955H86.9365V112.977Z" fill="#999999"/>
<path d="M86.9365 108.297H95.0446V111.276H86.9365V108.297Z" fill="#999999"/>
<path d="M86.9365 103.617H95.0446V106.17H86.9365V103.617Z" fill="#999999"/>
<path d="M25.9756 45.7422H48.1978V46.5933H25.9756V45.7422Z" fill="#FFE57F"/>
<path d="M25.9756 51.2734H48.1978V52.1245H25.9756V51.2734Z" fill="#FFE57F"/>
<path d="M0 38.0859H25.3754V38.937H0V38.0859Z" fill="#FFE57F"/>
<path d="M0 43.6172H25.3754V44.4683H0V43.6172Z" fill="#FFE57F"/>
<path d="M48.1982 50.4219H64.1142V51.2729H48.1982V50.4219Z" fill="#FFE57F"/>
<path d="M48.1982 55.9609H64.1142V56.812H48.1982V55.9609Z" fill="#FFE57F"/>
<path d="M64.1143 45.7422H85.7359V46.5933H64.1143V45.7422Z" fill="#FFE57F"/>
<path d="M64.1143 51.2734H85.7359V52.1245H64.1143V51.2734Z" fill="#FFE57F"/>
<path d="M25.9756 96.8047H48.1978V97.6558H25.9756V96.8047Z" fill="#FFE57F"/>
<path d="M25.9756 102.344H48.1978V103.62H25.9756V102.344Z" fill="#FFE57F"/>
<path d="M0 89.1484H25.3754V89.9995H0V89.1484Z" fill="#FFE57F"/>
<path d="M0 94.6797H25.3754V95.9563H0V94.6797Z" fill="#FFE57F"/>
<path d="M48.1982 101.492H64.1142V102.343H48.1982V101.492Z" fill="#FFE57F"/>
<path d="M48.1982 107.023H64.1142V108.3H48.1982V107.023Z" fill="#FFE57F"/>
<path d="M64.1143 96.8047H85.7359V97.6558H64.1143V96.8047Z" fill="#FFE57F"/>
<path d="M64.1143 102.344H85.7359V103.62H64.1143V102.344Z" fill="#FFE57F"/>
<path d="M0 38.0859V50.4264H0.600601V38.0859H0Z" fill="#FFE57F"/>
<path d="M12.0117 38.0859V50.4264H12.4622V38.0859H12.0117Z" fill="#FFE57F"/>
<path d="M24.7744 38.0859V50.4264H25.375V38.0859H24.7744Z" fill="#FFE57F"/>
<path d="M25.9756 45.3203V57.6607H26.5762V45.3203H25.9756Z" fill="#FFE57F"/>
<path d="M36.7871 45.3203V57.6607H37.3877V45.3203H36.7871Z" fill="#FFE57F"/>
<path d="M47.2969 45.3203V57.6607H48.1978V45.3203H47.2969Z" fill="#FFE57F"/>
<path d="M48.7988 50.4219V62.7623H49.3994V50.4219H48.7988Z" fill="#FFE57F"/>
<path d="M62.9131 50.4219V62.7623H63.5137V50.4219H62.9131Z" fill="#FFE57F"/>
<path d="M64.1143 45.3203V57.6607H65.0152V45.3203H64.1143Z" fill="#FFE57F"/>
<path d="M74.3242 45.3203V57.6607H74.9248V45.3203H74.3242Z" fill="#FFE57F"/>
<path d="M84.835 45.3203V57.6607H85.7359V45.3203H84.835Z" fill="#FFE57F"/>
<path d="M0 89.1484V101.489H0.600601V89.1484H0Z" fill="#FFE57F"/>
<path d="M12.0117 89.1484V101.489H12.4622V89.1484H12.0117Z" fill="#FFE57F"/>
<path d="M24.7744 89.1484V101.489H25.375V89.1484H24.7744Z" fill="#FFE57F"/>
<path d="M25.9756 96.8047V109.145H26.5762V96.8047H25.9756Z" fill="#FFE57F"/>
<path d="M36.7871 96.8047V109.145H37.3877V96.8047H36.7871Z" fill="#FFE57F"/>
<path d="M47.2969 96.8047V109.145H48.1978V96.8047H47.2969Z" fill="#FFE57F"/>
<path d="M48.7988 101.492V113.833H49.3994V101.492H48.7988Z" fill="#FFE57F"/>
<path d="M62.9131 101.492V113.833H63.5137V101.492H62.9131Z" fill="#FFE57F"/>
<path d="M64.1143 96.8047V109.145H65.0152V96.8047H64.1143Z" fill="#FFE57F"/>
<path d="M74.3242 96.8047V109.145H74.9248V96.8047H74.3242Z" fill="#FFE57F"/>
<path d="M84.835 96.8047V109.145H85.7359V96.8047H84.835Z" fill="#FFE57F"/>
<path d="M25.9756 112.13L24.7744 104.471L25.375 101.492L26.5762 109.152L25.9756 112.13Z" fill="#CCCCCC" stroke="black" stroke-width="0.357474"/>
<path d="M25.9756 60.6346L24.7744 52.9751L25.375 50.4219L26.5762 57.6559L25.9756 60.6346Z" fill="#CCCCCC" stroke="black" stroke-width="0.357474"/>
<path d="M48.1978 65.3158L47.2969 60.635L48.1978 57.6562L48.7984 62.7626L48.1978 65.3158Z" fill="#CCCCCC" stroke="black" stroke-width="0.357474"/>
<path d="M64.1143 65.3158L65.0152 60.635L64.1143 57.6562L63.5137 62.7626L64.1143 65.3158Z" fill="#CCCCCC" stroke="black" stroke-width="0.357474"/>
<path d="M48.1978 116.808L47.2969 112.127L48.1978 109.148L48.7984 113.829L48.1978 116.808Z" fill="#E5E5E5" stroke="black" stroke-width="0.357474"/>
<path d="M64.1143 116.808L65.0152 112.127L64.1143 109.148L63.5137 113.829L64.1143 116.808Z" fill="#E5E5E5" stroke="black" stroke-width="0.357474"/>
<path d="M64.1143 109.148H85.7359V112.127H64.1143V109.148Z" fill="#E5E5E5" stroke="black" stroke-width="0.357474"/>
<path d="M48.1982 113.828H64.1142V116.807H48.1982V113.828Z" fill="#E5E5E5" stroke="black" stroke-width="0.357474"/>
<path d="M25.9756 109.148H48.1978V112.127H25.9756V109.148Z" fill="#E5E5E5" stroke="black" stroke-width="0.357474"/>
<path d="M0 101.492H25.3754V104.471H0V101.492Z" fill="#E5E5E5" stroke="black" stroke-width="0.357474"/>
<path d="M64.1143 57.6562H85.7359V60.635H64.1143V57.6562Z" fill="#E5E5E5" stroke="black" stroke-width="0.357474"/>
<path d="M48.1982 62.7656H64.1142V65.3188H48.1982V62.7656Z" fill="#E5E5E5" stroke="black" stroke-width="0.357474"/>
<path d="M25.9756 57.6562H48.1978V60.635H25.9756V57.6562Z" fill="#E5E5E5" stroke="black" stroke-width="0.357474"/>
<path d="M0 50.4219H25.3754V52.9751H0V50.4219Z" fill="#E5E5E5" stroke="black" stroke-width="0.357474"/>
<path d="M85.7354 60.6406H96.2459V63.6193H85.7354V60.6406Z" fill="#E5E5E5" stroke="black" stroke-width="0.357474"/>
<path d="M85.7354 28.2969H96.2459V60.6373H85.7354V28.2969Z" fill="#CCCCCC"/>
<path d="M86.9365 58.5078H95.0446V60.6355H86.9365V58.5078Z" fill="#999999"/>
<path d="M86.9365 55.5312H95.0446V57.2334H86.9365V55.5312Z" fill="#999999"/>
<path d="M86.9365 52.125H95.0446V54.2527H86.9365V52.125Z" fill="#999999"/>
<path d="M86.9365 48.7266H95.0446V50.8542H86.9365V48.7266Z" fill="#999999"/>
<path d="M86.9365 45.3203H95.0446V47.448H86.9365V45.3203Z" fill="#999999"/>
<path d="M86.9365 42.3438H95.0446V44.0459H86.9365V42.3438Z" fill="#999999"/>
<path d="M86.9365 38.5078H95.0446V40.2099H86.9365V38.5078Z" fill="#999999"/>
<path d="M86.9365 35.1094H95.0446V36.8115H86.9365V35.1094Z" fill="#999999"/>
<path d="M86.9365 31.7031H95.0446V33.8308H86.9365V31.7031Z" fill="#999999"/>
<path d="M86.9365 28.2969H95.0446V30.4245H86.9365V28.2969Z" fill="#999999"/>
<path d="M25.9756 22.7633L24.7744 15.3165L25.375 12.125L26.5762 19.7846L25.9756 22.7633Z" fill="#99CCCC" stroke="black" stroke-width="0.357474"/>
<path d="M25.9756 19.7891H84.8344V22.7678H25.9756V19.7891Z" fill="#CCFFFF" stroke="black" stroke-width="0.357474"/>
<path d="M0 12.125H25.3754V15.3165H0V12.125Z" fill="#CCFFFF" stroke="black" stroke-width="0.357474"/>
<path d="M85.7354 22.7656H96.2459V25.7443H85.7354V22.7656Z" fill="#CCFFFF" stroke="black" stroke-width="0.357474"/>
<path d="M25.9756 7.65625H85.7353V8.72008H25.9756V7.65625Z" fill="#CCFFFF" stroke="#669999" stroke-width="0.357474"/>
<path d="M25.9756 13.6172H85.7353V14.4683H25.9756V13.6172Z" fill="#CCFFFF" stroke="#669999" stroke-width="0.357474"/>
<path d="M0 0H25.3754V1.06383H0V0Z" fill="#CCFFFF" stroke="#669999" stroke-width="0.357474"/>
<path d="M0 5.96094H25.3754V6.812H0V5.96094Z" fill="#CCFFFF" stroke="#669999" stroke-width="0.357474"/>
<path d="M0 0V12.1277H0.600601V0H0Z" fill="#99CCCC"/>
<path d="M12.0117 0V12.1277H12.4622V0H12.0117Z" fill="#99CCCC"/>
<path d="M24.7744 0V12.1277H25.375V0H24.7744Z" fill="#99CCCC"/>
<path d="M25.9756 7.65625V19.7839H26.5762V7.65625H25.9756Z" fill="#99CCCC"/>
<path d="M36.7871 7.65625V19.7839H37.3877V7.65625H36.7871Z" fill="#99CCCC"/>
<path d="M47.2969 7.65625V19.7839H48.1978V7.65625H47.2969Z" fill="#99CCCC"/>
<path d="M64.1143 7.65625V19.7839H65.0152V7.65625H64.1143Z" fill="#99CCCC"/>
<path d="M74.3242 7.65625V19.7839H74.9248V7.65625H74.3242Z" fill="#99CCCC"/>
<path d="M84.835 7.65625V19.7839H85.7359V7.65625H84.835Z" fill="#99CCCC"/>
<path d="M56.3066 7.65625H56.9072V19.7839H56.3066V7.65625Z" fill="#99CCCC"/>
<path d="M96.2461 24.4688H150V28.2985H96.2461V24.4688Z" fill="#E5E5E5" stroke="black" stroke-width="0.357474"/>
<path d="M96.2461 12.125H150V13.6144H96.2461V12.125Z" fill="#CCFFFF" stroke="#669999" stroke-width="0.357474"/>
<path d="M96.2461 18.0859H150V18.937H96.2461V18.0859Z" fill="#CCFFFF" stroke="#669999" stroke-width="0.357474"/>
<path d="M118.469 12.125H119.069V24.4654H118.469V12.125Z" fill="#99CCCC"/>
<path d="M96.2461 12.125H97.147V24.4654H96.2461V12.125Z" fill="#99CCCC"/>
<path d="M107.057 12.125H107.657V24.4654H107.057V12.125Z" fill="#99CCCC"/>
<path d="M129.279 12.125H129.88V24.4654H129.279V12.125Z" fill="#99CCCC"/>
<path d="M140.09 12.125H140.69V24.4654H140.09V12.125Z" fill="#99CCCC"/>
<path d="M149.249 12.125H150V24.4654H149.249V12.125Z" fill="#99CCCC"/>
</g>
<defs>
<clipPath id="clip0_2109_227666">
<rect width="150" height="150" fill="white"/>
</clipPath>
</defs>
</svg>
