<svg width="150" height="150" viewBox="0 0 150 150" fill="none" xmlns="http://www.w3.org/2000/svg">
<g clip-path="url(#clip0_2109_228278)">
<path d="M0 23.9297H4.65465V150.002H0V23.9297Z" fill="#CCCCCC"/>
<path d="M0 72.2969H4.65465V149.998H0V72.2969Z" fill="#B2B2B2"/>
<path d="M0 93.9141H4.65465V150.003H0V93.9141Z" fill="#999999"/>
<path d="M0 136.617H4.65465V149.996H0V136.617Z" fill="#7F7F7F"/>
<path d="M0 23.9297H4.65465V150.002H0V23.9297Z" stroke="black" stroke-width="0.393101"/>
<path d="M9.15918 80.0156H140.691V85.676H9.15918V80.0156Z" fill="#333333"/>
<path d="M9.15918 115.008H13.964V120.668H43.6937V107.289H59.3093V141.766H82.7327V120.668H59.3093V117.581H89.0391V112.435H96.8469V117.581H115.465V107.289H128.078V141.766H129.58V123.241H140.691V149.999H9.15918V115.008Z" fill="#333333" stroke="black" stroke-width="0.393101"/>
<path d="M18.4688 109.859H31.0814V149.997H18.4688V109.859Z" fill="#4C4C4C"/>
<path d="M0 66.125H150V75.3874H0V66.125Z" fill="#666666" stroke="black" stroke-width="0.393101"/>
<path d="M0 135.078H150V143.311H0V135.078Z" fill="#666666"/>
<path d="M0 90.8203H150V96.9953H0V90.8203Z" fill="#666666" stroke="black" stroke-width="0.393101"/>
<path d="M0 91.8516H150V95.4536H0V91.8516Z" fill="#7F7F7F"/>
<path d="M0 136.617H150V141.763H0V136.617Z" fill="#7F7F7F"/>
<path d="M0 68.1797H150V73.8401H0V68.1797Z" fill="#7F7F7F"/>
<path d="M0 69.7266H150V72.2995H0V69.7266Z" fill="#999999"/>
<path d="M0 92.8828H150V94.4266H0V92.8828Z" fill="#999999"/>
<path d="M0 138.164H150V140.222H0V138.164Z" fill="#999999"/>
<path d="M0 135.078H150V143.311H0V135.078Z" stroke="black" stroke-width="0.393101"/>
<path d="M11.5611 58.9219H138.288V65.0968L139.189 64.5823V76.9322H138.288V83.1071H11.5611V76.9322H10.6602V64.5823L11.5611 65.0968V58.9219Z" fill="#003300" stroke="black" stroke-width="0.393101"/>
<path d="M11.5611 85.6797H138.288V89.7963H138.888V97.515H138.288V101.632H11.5611V97.515H10.6602V89.7963H11.5611V85.6797Z" fill="#666666" stroke="black" stroke-width="0.393101"/>
<path d="M11.5611 128.391H138.288V134.051H138.888V144.343H138.288V150.003H11.5611V144.343H10.6602V134.051H11.5611V128.391Z" fill="#666666" stroke="black" stroke-width="0.393101"/>
<path d="M12.4629 85.6797H137.388V101.632H12.4629V85.6797Z" fill="#7F7F7F"/>
<path d="M12.4629 128.391H137.388V150.003H12.4629V128.391Z" fill="#7F7F7F"/>
<path d="M12.4629 129.93H137.388V148.455H12.4629V129.93Z" fill="#919191"/>
<path d="M12.4629 86.7031H137.388V100.597H12.4629V86.7031Z" fill="#919191"/>
<path d="M12.4629 88.25H137.388V99.0562H12.4629V88.25Z" fill="#A1A1A1"/>
<path d="M12.4629 131.992H137.388V146.915H12.4629V131.992Z" fill="#A1A1A1"/>
<path d="M12.4629 133.531H137.388V144.852H12.4629V133.531Z" fill="#B2B2B2"/>
<path d="M12.4629 89.2812H137.388V98.0291H12.4629V89.2812Z" fill="#B2B2B2"/>
<path d="M12.4629 90.3125H137.388V96.4875H12.4629V90.3125Z" fill="#C4C4C4"/>
<path d="M12.4629 135.078H137.388V143.311H12.4629V135.078Z" fill="#C4C4C4"/>
<path d="M12.4629 136.617H137.388V141.763H12.4629V136.617Z" fill="#D4D4D4"/>
<path d="M12.4629 91.8516H137.388V95.4536H12.4629V91.8516Z" fill="#D4D4D4"/>
<path d="M12.4629 92.8828H137.388V94.4266H12.4629V92.8828Z" fill="#E5E5E5"/>
<path d="M12.4629 138.164H137.388V140.222H12.4629V138.164Z" fill="#E5E5E5"/>
<path d="M12.1621 58.9219H137.387V83.1071H12.1621V58.9219Z" fill="#669966"/>
<path d="M12.4629 60.4609H137.388V81.0441H12.4629V60.4609Z" fill="#78AB78"/>
<path d="M12.4629 62.5234H137.388V79.5046H12.4629V62.5234Z" fill="#87BA87"/>
<path d="M12.4629 64.5781H137.388V77.4426H12.4629V64.5781Z" fill="#99CC99"/>
<path d="M12.4629 66.125H137.388V75.3874H12.4629V66.125Z" fill="#ABDEAB"/>
<path d="M12.4629 68.1797H137.388V73.8401H12.4629V68.1797Z" fill="#BAEDBA"/>
<path d="M12.1621 69.7266H137.387V71.7849H12.1621V69.7266Z" fill="#CCFFCC"/>
<path d="M12.1621 58.9219H137.387V83.1071H12.1621V58.9219Z" stroke="#336633" stroke-width="0.393101"/>
<path d="M9.15918 101.633H140.691V107.293H9.15918V101.633Z" fill="#CCCCCC" stroke="black" stroke-width="0.393101"/>
<path d="M9.1588 150V21.3551H140.69V150H145.195V0H4.6543V150H9.1588Z" fill="#CCCCCC" stroke="black" stroke-width="0.393101"/>
<path d="M12.4629 128.391H137.388V150.003H12.4629V128.391Z" stroke="black" stroke-width="0.393101"/>
<path d="M12.4629 85.6797H137.388V101.632H12.4629V85.6797Z" stroke="black" stroke-width="0.393101"/>
<path d="M9.15918 21.3551V0" stroke="black" stroke-width="0.393101"/>
<path d="M140.69 21.3551V0" stroke="black" stroke-width="0.393101"/>
<path d="M10.6602 17.4963V4.11719H138.288" stroke="white" stroke-width="0.393101"/>
<path d="M10.6602 17.4963H138.288V4.11719" stroke="#999999" stroke-width="0.393101"/>
<path d="M5.25488 148.455V129.93H8.55819V148.455H5.25488Z" fill="#B2B2B2"/>
<path d="M5.25488 100.598V87.2188H8.55819V100.598H5.25488Z" fill="#B2B2B2"/>
<path d="M5.25488 81.5577V59.9453H8.55819V81.5577H5.25488Z" fill="#B2B2B2"/>
<path d="M141.291 148.455V129.93H144.594V148.455H141.291Z" fill="#B2B2B2"/>
<path d="M141.291 100.598V87.2188H144.594V100.598H141.291Z" fill="#B2B2B2"/>
<path d="M141.291 81.5577V59.9453H144.594V81.5577H141.291Z" fill="#B2B2B2"/>
<path d="M8.55819 129.93H5.25488V148.455" stroke="#666666" stroke-width="0.393101"/>
<path d="M8.55819 87.2188H5.25488V100.598" stroke="#666666" stroke-width="0.393101"/>
<path d="M8.55819 59.9453H5.25488V81.5577" stroke="#666666" stroke-width="0.393101"/>
<path d="M144.594 129.93H141.291V148.455" stroke="#666666" stroke-width="0.393101"/>
<path d="M144.594 87.2188H141.291V100.598" stroke="#666666" stroke-width="0.393101"/>
<path d="M144.594 59.9453H141.291V81.5577" stroke="#666666" stroke-width="0.393101"/>
<path d="M144.594 59.9453V81.5577H141.291" stroke="white" stroke-width="0.393101"/>
<path d="M144.594 87.2188V100.598H141.291" stroke="white" stroke-width="0.393101"/>
<path d="M144.594 129.93V148.455H141.291" stroke="white" stroke-width="0.393101"/>
<path d="M8.55819 59.9453V81.5577H5.25488" stroke="white" stroke-width="0.393101"/>
<path d="M8.55819 87.2188V100.598H5.25488" stroke="white" stroke-width="0.393101"/>
<path d="M8.55819 129.93V148.455H5.25488" stroke="white" stroke-width="0.393101"/>
<path d="M62.3125 6.42969H87.5377V14.663H62.3125V6.42969Z" fill="#7F7F7F"/>
<path d="M5.25488 10.8047H8.55819V25.4702H5.25488V10.8047Z" fill="#4C4C4C"/>
<path d="M5.25488 40.3906H8.55819V54.7989H5.25488V40.3906Z" fill="#4C4C4C"/>
<path d="M141.291 10.8047H144.594V25.4702H141.291V10.8047Z" fill="#4C4C4C"/>
<path d="M141.291 40.3906H144.594V54.7989H141.291V40.3906Z" fill="#4C4C4C"/>
<path d="M3.75391 25.4688H10.2104V30.6145H3.75391V25.4688Z" fill="#E5E5E5" stroke="black" stroke-width="0.393101"/>
<path d="M139.64 25.4688H146.096V30.6145H139.64V25.4688Z" fill="#E5E5E5" stroke="black" stroke-width="0.393101"/>
<path d="M0.750977 33.1875H3.00323V41.4208H0.750977V33.1875Z" fill="white"/>
</g>
<defs>
<clipPath id="clip0_2109_228278">
<rect width="150" height="150" fill="white"/>
</clipPath>
</defs>
</svg>
