<svg width="150" height="150" viewBox="0 0 150 150" fill="none" xmlns="http://www.w3.org/2000/svg">
<g clip-path="url(#clip0_2109_228407)">
<path d="M120.271 76.6797H121.772V115.1H120.271V76.6797Z" fill="#FF6600" stroke="black" stroke-width="0.310076"/>
<path d="M99.8496 121.502L121.772 108.375V109.976L101.651 121.502H99.8496Z" fill="black"/>
<path d="M1.35156 134.953H125.075V136.554H1.35156V134.953Z" fill="black"/>
<path d="M131.382 56.5117V3.52344H137.388L140.691 56.5117H131.382Z" fill="#E54C00" stroke="black" stroke-width="0.310076"/>
<path d="M123.573 29.9375H131.381V56.5117H123.573V29.9375Z" fill="#FF6600"/>
<path d="M125.075 29.9375H129.58V56.5117H125.075V29.9375Z" fill="#E54C00"/>
<path d="M123.573 29.9375H131.381V56.5117H123.573V29.9375Z" stroke="black" stroke-width="0.310076"/>
<path d="M140.991 149.679L139.64 149.999H138.588L137.387 149.679L136.186 149.039L135.285 148.078H142.793L141.892 149.039L140.991 149.679Z" fill="#333333" stroke="black" stroke-width="0.310076"/>
<path d="M59.61 149.683L58.4088 150.003H57.2076L56.0064 149.683L54.8052 149.043L53.9043 148.082V141.999L54.8052 141.039L56.0064 140.398L57.2076 140.078H58.4088L59.61 140.398L60.5109 141.039L61.4118 141.999V148.082L60.5109 149.043L59.61 149.683Z" fill="#333333" stroke="black" stroke-width="0.310076"/>
<path d="M1.35156 134.949V125.023H125.075V134.949H1.35156Z" fill="#E54C00" stroke="black" stroke-width="0.310076"/>
<path d="M0 141.673H125.075V125.024H3.3033V121.502H121.772V108.375L99.8499 121.502H87.5375L121.772 98.1293V54.9062H125.075L148.499 56.5071L150 125.024V148.396H0V141.673Z" fill="#FF6600"/>
<path d="M0 141.673H125.075V125.024H3.3033V121.502H87.5375L121.772 98.1293V54.9062H125.075L148.498 56.5071L150 125.024V148.396H0V141.673Z" stroke="black" stroke-width="0.310076"/>
<path d="M99.8496 121.502L121.772 108.375V121.502H99.8496Z" stroke="black" stroke-width="0.310076"/>
<path d="M125.075 125.024V54.9062" stroke="#B21900" stroke-width="0.310076"/>
<path d="M131.382 118.3V73.1562H143.694" stroke="#B21900" stroke-width="0.310076"/>
<path d="M2.85254 125.031L3.30299 123.43H125.075V125.031H2.85254Z" fill="#FFFF00" stroke="black" stroke-width="0.310076"/>
<path d="M7.35745 124.71L6.15625 123.43H11.5617L13.2133 124.71H7.35745Z" fill="black"/>
<path d="M18.4683 124.71L16.9668 123.43H22.6725L23.8737 124.71H18.4683Z" fill="black"/>
<path d="M29.2793 124.71L28.0781 123.43H33.4835L34.985 124.71H29.2793Z" fill="black"/>
<path d="M40.3902 124.71L38.8887 123.43H44.5944L45.7956 124.71H40.3902Z" fill="black"/>
<path d="M51.2012 124.71L50 123.43H55.4054L56.9069 124.71H51.2012Z" fill="black"/>
<path d="M62.312 124.71L60.8105 123.43H66.5163L67.7175 124.71H62.312Z" fill="black"/>
<path d="M73.4234 124.71L71.9219 123.43H77.6276L78.8288 124.71H73.4234Z" fill="black"/>
<path d="M84.2344 124.71L83.0332 123.43H88.4386L89.9401 124.71H84.2344Z" fill="black"/>
<path d="M95.3453 124.71L93.8438 123.43H99.5495L100.751 124.71H95.3453Z" fill="black"/>
<path d="M106.156 124.71L104.955 123.43H110.36L111.862 124.71H106.156Z" fill="black"/>
<path d="M117.267 124.71L115.766 123.43H121.471L122.673 124.71H117.267Z" fill="black"/>
<path d="M131.382 43.3828H137.388V49.7862H131.382V43.3828Z" fill="#FF6600" stroke="black" stroke-width="0.310076"/>
<path d="M132.883 0H135.886L137.388 3.52188H131.382L132.883 0Z" fill="#333333" stroke="black" stroke-width="0.310076"/>
<path d="M143.694 73.1562V118.3H131.382" stroke="#FFD9BF" stroke-width="0.310076"/>
<path d="M121.771 98.1321V96.5312H149.099V98.1321H121.771Z" fill="#333333"/>
<path d="M121.771 94.9293V93.9688H149.099V94.9293H121.771Z" fill="#333333"/>
</g>
<defs>
<clipPath id="clip0_2109_228407">
<rect width="150" height="150" fill="white"/>
</clipPath>
</defs>
</svg>
