<svg width="150" height="150" viewBox="0 0 150 150" fill="none" xmlns="http://www.w3.org/2000/svg">
<g clip-path="url(#clip0_2109_228144)">
<path d="M82.8828 43.9141H111.561V73.0185H82.8828V43.9141Z" fill="#336666"/>
<path d="M28.6787 62H76.5766V131.747H28.6787V62Z" fill="#003333"/>
<path d="M63.6641 73.0156H143.694V131.741H63.6641V73.0156Z" fill="#194C4C"/>
<path d="M51.2015 10.8516V18.0846H19.0693V10.8516H51.2015Z" fill="#669999" stroke="black" stroke-width="0.32161"/>
<path d="M51.2015 11.8828V17.3937H19.0693V11.8828H51.2015Z" fill="#99CCCC"/>
<path d="M51.2015 13.6016V15.3237H19.0693V13.6016H51.2015Z" fill="#CCFFFF"/>
<path d="M3.30371 0H15.7662V73.0195H3.30371V0Z" fill="#669999" stroke="black" stroke-width="0.32161"/>
<path d="M114.865 29.1016H127.478V87.8272H114.865V29.1016Z" fill="#669999" stroke="black" stroke-width="0.32161"/>
<path d="M51.2016 7.0625H41.2917L31.9824 18.0843V87.8317H44.595V25.6618L47.8983 21.8731H51.2016V7.0625Z" fill="#669999" stroke="black" stroke-width="0.32161"/>
<path d="M114.865 74.3984H127.478V76.8095H114.865V74.3984Z" fill="#336666"/>
<path d="M114.865 66.8203H127.478V71.9868H114.865V66.8203Z" fill="#336666"/>
<path d="M114.865 62H127.478V64.411H114.865V62Z" fill="#336666"/>
<path d="M31.9824 74.3984H44.595V76.8095H31.9824V74.3984Z" fill="#336666"/>
<path d="M31.9824 66.8203H44.595V71.9868H31.9824V66.8203Z" fill="#336666"/>
<path d="M31.9824 62H44.595V64.411H31.9824V62Z" fill="#336666"/>
<path d="M3.30371 63.375H15.7662V65.786H3.30371V63.375Z" fill="#336666"/>
<path d="M3.30371 55.9688H15.7662V60.963H3.30371V55.9688Z" fill="#336666"/>
<path d="M3.30371 51.1484H15.7662V53.5595H3.30371V51.1484Z" fill="#336666"/>
<path d="M9.45987 87.8265L3.30371 76.8047H22.3728V87.8265H9.45987Z" fill="#336666" stroke="black" stroke-width="0.32161"/>
<path d="M3.30371 73.0156H22.3728V76.8044H3.30371V73.0156Z" fill="#99CCCC" stroke="black" stroke-width="0.32161"/>
<path d="M86.1865 29.1016H92.4928V32.8903H86.1865V29.1016Z" fill="#003333"/>
<path d="M66.9668 29.1016H73.2731V32.8903H66.9668V29.1016Z" fill="#003333"/>
<path d="M57.3575 84.0391V98.8496H89.1893V84.0391H92.4926V87.8278H137.087V84.0391H140.39V127.954H137.087V124.165H92.4926V127.954H89.1893V113.144H57.3575V127.954H54.0541V124.165H9.45955V127.954H6.15625V84.0391H9.45955V87.8278H54.0541V84.0391H57.3575Z" fill="#4C7F7F"/>
<path d="M57.3575 86.4531V99.5415H89.1893V86.4531H92.4926V89.553H137.087V86.4531H140.39V125.546H137.087V122.446H92.4926V125.546H89.1893V112.63H57.3575V125.546H54.0541V122.446H9.45955V125.546H6.15625V86.4531H9.45955V89.553H54.0541V86.4531H57.3575Z" fill="#578A8A"/>
<path d="M57.3575 88.5156V100.226H89.1893V88.5156H92.4926V91.6155H137.087V88.5156H140.39V123.475H137.087V120.548H92.4926V123.475H89.1893V111.765H57.3575V123.475H54.0541V120.548H9.45955V123.475H6.15625V88.5156H9.45955V91.6155H54.0541V88.5156H57.3575Z" fill="#5E9191"/>
<path d="M57.3575 90.9297V100.918H89.1893V90.9297H92.4926V93.3407H137.087V90.9297H140.39V121.067H137.087V118.656H92.4926V121.067H89.1893V111.251H57.3575V121.067H54.0541V118.656H9.45955V121.067H6.15625V90.9297H9.45955V93.3407H54.0541V90.9297H57.3575Z" fill="#699C9C"/>
<path d="M57.3575 93.3438V101.61H89.1893V93.3438H92.4926V95.4103H137.087V93.3438H140.39V118.659H137.087V116.765H92.4926V118.659H89.1893V110.221H57.3575V118.659H54.0541V116.765H9.45955V118.659H6.15625V93.3438H9.45955V95.4103H54.0541V93.3438H57.3575Z" fill="#73A6A6"/>
<path d="M57.3575 95.4062V102.639H89.1893V95.4062H92.4926V97.1284H137.087V95.4062H140.39V116.761H137.087V115.039H92.4926V116.761H89.1893V109.528H57.3575V116.761H54.0541V115.039H9.45955V116.761H6.15625V95.4062H9.45955V97.1284H54.0541V95.4062H57.3575Z" fill="#7DB0B0"/>
<path d="M57.3575 97.8203V103.331H89.1893V97.8203H92.4926V99.198H137.087V97.8203H140.39V114.181H137.087V112.975H92.4926V114.181H89.1893V108.842H57.3575V114.181H54.0541V112.975H9.45955V114.181H6.15625V97.8203H9.45955V99.198H54.0541V97.8203H57.3575Z" fill="#85B8B8"/>
<path d="M57.3575 100.227V104.015H89.1893V100.227H92.4926V100.915H137.087V100.227H140.39V111.765H137.087V110.904H92.4926V111.765H89.1893V108.148H57.3575V111.765H54.0541V110.904H9.45955V111.765H6.15625V100.227H9.45955V100.915H54.0541V100.227H57.3575Z" fill="#8FC2C2"/>
<path d="M57.3575 102.297V105.052H89.1893V102.297H92.4926V102.986H137.087V102.297H140.39V109.874H137.087V109.186H92.4926V109.874H89.1893V107.463H57.3575V109.874H54.0541V109.186H9.45955V109.874H6.15625V102.297H9.45955V102.986H54.0541V102.297H57.3575Z" fill="#99CCCC"/>
<path d="M0 149.997V131.742H146.547V149.997H0Z" fill="#F2E5CC" stroke="black" stroke-width="0.32161"/>
<path d="M0 138.977H146.547" stroke="#998C73" stroke-width="0.32161"/>
<path d="M137.087 87.8281V124.166" stroke="#336666" stroke-width="0.32161"/>
<path d="M9.45898 124.166V87.8281" stroke="#336666" stroke-width="0.32161"/>
<path d="M54.0537 87.8281V124.166" stroke="#336666" stroke-width="0.32161"/>
<path d="M92.4922 124.166V87.8281" stroke="#336666" stroke-width="0.32161"/>
<path d="M89.1895 113.145V98.8516" stroke="#336666" stroke-width="0.32161"/>
<path d="M57.3574 98.8516V113.145" stroke="#336666" stroke-width="0.32161"/>
<path d="M57.3575 84.0391V98.8496H89.1893V84.0391H92.4926V87.8278H137.087V84.0391H140.39V127.954H137.087V124.165H92.4926V127.954H89.1893V113.144H57.3575V127.954H54.0541V124.165H9.45955V127.954H6.15625V84.0391H9.45955V87.8278H54.0541V84.0391H57.3575Z" stroke="black" stroke-width="0.32161"/>
<path d="M60.3603 0H150V29.1045H60.3603L51.2012 21.8714V7.06085L60.3603 0Z" fill="#4C7F7F"/>
<path d="M60.6606 1.54688H150V27.3793H60.6606L51.2012 20.8351V8.09108L60.6606 1.54688Z" fill="#598C8C"/>
<path d="M60.6606 3.27344H150V25.3171H60.6606L51.2012 19.8062V8.78434L60.6606 3.27344Z" fill="#669999"/>
<path d="M60.6606 5.33594H150V23.5908H60.6606L51.2012 19.1132V9.81355L60.6606 5.33594Z" fill="#73A6A6"/>
<path d="M60.6606 7.0625H150V21.8731H60.6606L51.2012 18.0843V10.8512L60.6606 7.0625Z" fill="#7FB2B2"/>
<path d="M60.6606 8.78125H150V19.8031H60.6606L51.2012 17.392V11.5367L60.6606 8.78125Z" fill="#8CBFBF"/>
<path d="M60.3603 10.8516H150V18.0846H60.3603L51.2012 16.3625V12.5737L60.3603 10.8516Z" fill="#99CCCC"/>
<path d="M60.3603 0H150V29.1045H60.3603L51.2012 21.8714V7.06085L60.3603 0Z" stroke="black" stroke-width="0.32161"/>
<path d="M3.30371 120.727H60.3608V131.748H3.30371V120.727Z" fill="#336666" stroke="black" stroke-width="0.32161"/>
<path d="M86.1865 131.748V120.727H95.7961V124.171H111.562V120.727H121.172V131.748H86.1865Z" fill="#D9CCB3" stroke="black" stroke-width="0.32161"/>
<path d="M86.1865 32.8906H92.4928V120.721H86.1865V32.8906Z" fill="#669999" stroke="black" stroke-width="0.32161"/>
<path d="M86.7871 32.8906H91.5919V120.721H86.7871V32.8906Z" fill="#99CCCC"/>
<path d="M88.5889 32.8906H90.0904V120.721H88.5889V32.8906Z" fill="#CCFFFF"/>
<path d="M12.7627 10.8516H19.069V120.725H12.7627V10.8516Z" fill="#669999" stroke="black" stroke-width="0.32161"/>
<path d="M13.3633 10.8516H18.1681V120.725H13.3633V10.8516Z" fill="#99CCCC"/>
<path d="M15.165 10.8516H16.6665V120.725H15.165V10.8516Z" fill="#CCFFFF"/>
<path d="M66.9668 32.8906H73.2731V131.743H66.9668V32.8906Z" fill="#669999" stroke="black" stroke-width="0.32161"/>
<path d="M67.8682 32.8906H72.3727V131.743H67.8682V32.8906Z" fill="#99CCCC"/>
<path d="M69.3691 32.8906H70.8706V131.743H69.3691V32.8906Z" fill="#CCFFFF"/>
<path d="M70.12 127.96C71.8614 127.96 73.2731 126.34 73.2731 124.343C73.2731 122.346 71.8614 120.727 70.12 120.727C68.3785 120.727 66.9668 122.346 66.9668 124.343C66.9668 126.34 68.3785 127.96 70.12 127.96Z" stroke="black" stroke-width="0.32161"/>
<path d="M86.1865 43.9141H92.4928" stroke="black" stroke-width="0.32161"/>
<path d="M66.9668 91.2734H73.2731" stroke="black" stroke-width="0.32161"/>
<path d="M19.069 84.0391H12.7627" stroke="black" stroke-width="0.32161"/>
<path d="M28.6787 18.0846V10.8516" stroke="black" stroke-width="0.32161"/>
<path d="M60.3604 29.1045V0" stroke="#336666" stroke-width="0.32161"/>
<path d="M86.1865 29.1045V0" stroke="#336666" stroke-width="0.32161"/>
<path d="M111.562 29.1045V0" stroke="#336666" stroke-width="0.32161"/>
<path d="M137.087 29.1045V0" stroke="#336666" stroke-width="0.32161"/>
</g>
<defs>
<clipPath id="clip0_2109_228144">
<rect width="150" height="150" fill="white"/>
</clipPath>
</defs>
</svg>
