<svg width="150" height="150" viewBox="0 0 150 150" fill="none" xmlns="http://www.w3.org/2000/svg">
<g clip-path="url(#clip0_2109_228514)">
<path d="M85.1348 55.8984H110.961V96.882H85.1348V55.8984Z" fill="#4C4C4C" stroke="black" stroke-width="0.313782"/>
<path d="M27.1768 69.6719H85.1347V110.655H27.1768V69.6719Z" fill="#333333" stroke="black" stroke-width="0.313782"/>
<path d="M6.75684 110.656H121.772V118.197H6.75684V110.656Z" fill="#333333" stroke="black" stroke-width="0.313782"/>
<path d="M6.75684 120.82H121.772V128.689H6.75684V120.82Z" fill="#333333" stroke="black" stroke-width="0.313782"/>
<path d="M11.5615 32.9531H100.751V73.9367H11.5615V32.9531Z" fill="#000066" stroke="black" stroke-width="0.313782"/>
<path d="M6.15625 0H106.156V13.2787H6.15625V0Z" fill="#333333" stroke="black" stroke-width="0.313782"/>
<path d="M18.4688 2.13281H25.676V11.641H18.4688V2.13281Z" fill="#CCCC33"/>
<path d="M37.3877 2.13281H44.2946V11.641H37.3877V2.13281Z" fill="#CCCC33"/>
<path d="M56.0059 2.13281H63.2131V11.641H56.0059V2.13281Z" fill="#CCCC33"/>
<path d="M74.9248 2.13281H81.8317V11.641H74.9248V2.13281Z" fill="#CCCC33"/>
<path d="M94.4443 2.13281H101.351V11.641H94.4443V2.13281Z" fill="#CCCC33"/>
<path d="M88.1377 122.785H89.0386V7.375H98.3479V122.785H99.2488L99.8494 124.424L98.3479 125.08V142.129H89.0386V125.08L87.5371 124.424L88.1377 122.785Z" fill="#666666" stroke="black" stroke-width="0.313782"/>
<path d="M69.52 122.785H70.1206V7.375H79.7303V122.785H80.3309L81.2318 124.424L79.7303 125.08V142.129H70.1206V125.08L68.6191 124.424L69.52 122.785Z" fill="#666666" stroke="black" stroke-width="0.313782"/>
<path d="M50.6006 122.785H51.5015V7.375H60.8108V122.785H61.7117L62.3123 124.424L60.8108 125.08V142.129H51.5015V125.08L50 124.424L50.6006 122.785Z" fill="#666666" stroke="black" stroke-width="0.313782"/>
<path d="M31.982 122.785H32.5826V7.375H42.1922V122.785H42.7928L43.6937 124.424L42.1922 125.08V142.129H32.5826V125.08L31.0811 124.424L31.982 122.785Z" fill="#666666" stroke="black" stroke-width="0.313782"/>
<path d="M13.0635 122.785H13.9644V7.375H23.2737V122.785H24.1746L24.7752 124.424L23.2737 125.08V142.129H13.9644V125.08L12.4629 124.424L13.0635 122.785Z" fill="#666666" stroke="black" stroke-width="0.313782"/>
<path d="M98.3484 27.0469V122.785H89.0391V27.0469H98.3484Z" fill="#7F7F7F"/>
<path d="M79.7297 27.0469V122.785H70.1201V27.0469H79.7297Z" fill="#7F7F7F"/>
<path d="M60.8113 27.0469V122.785H51.502V27.0469H60.8113Z" fill="#7F7F7F"/>
<path d="M42.1926 27.0469V122.785H32.583V27.0469H42.1926Z" fill="#7F7F7F"/>
<path d="M23.2732 27.0469V122.785H13.9639V27.0469H23.2732Z" fill="#7F7F7F"/>
<path d="M97.7478 27.0469V122.785H89.6396V27.0469H97.7478Z" fill="#999999"/>
<path d="M79.1291 27.0469V122.785H70.7207V27.0469H79.1291Z" fill="#999999"/>
<path d="M60.2106 27.0469V122.785H52.1025V27.0469H60.2106Z" fill="#999999"/>
<path d="M41.592 27.0469V122.785H33.1836V27.0469H41.592Z" fill="#999999"/>
<path d="M22.6726 27.0469V122.785H14.5645V27.0469H22.6726Z" fill="#999999"/>
<path d="M96.8473 27.0469V122.785H90.541V27.0469H96.8473Z" fill="#B2B2B2"/>
<path d="M77.9284 27.0469V122.785H71.6221V27.0469H77.9284Z" fill="#B2B2B2"/>
<path d="M59.3092 27.0469V122.785H53.0029V27.0469H59.3092Z" fill="#B2B2B2"/>
<path d="M40.3903 27.0469V122.785H34.084V27.0469H40.3903Z" fill="#B2B2B2"/>
<path d="M21.7721 27.0469V122.785H15.4658V27.0469H21.7721Z" fill="#B2B2B2"/>
<path d="M95.9459 27.0469V122.785H91.4414V27.0469H95.9459Z" fill="#CCCCCC"/>
<path d="M77.0274 27.0469V122.785H72.8232V27.0469H77.0274Z" fill="#CCCCCC"/>
<path d="M58.4088 27.0469V122.785H53.9043V27.0469H58.4088Z" fill="#CCCCCC"/>
<path d="M39.4894 27.0469V122.785H35.2852V27.0469H39.4894Z" fill="#CCCCCC"/>
<path d="M20.8707 27.0469V122.785H16.3662V27.0469H20.8707Z" fill="#CCCCCC"/>
<path d="M95.0455 27.0469V122.785H92.3428V27.0469H95.0455Z" fill="#E5E5E5"/>
<path d="M76.4268 27.0469V122.785H73.4238V27.0469H76.4268Z" fill="#E5E5E5"/>
<path d="M57.5074 27.0469V122.785H54.8047V27.0469H57.5074Z" fill="#E5E5E5"/>
<path d="M38.8887 27.0469V122.785H35.8857V27.0469H38.8887Z" fill="#E5E5E5"/>
<path d="M19.9703 27.0469V122.785H17.2676V27.0469H19.9703Z" fill="#E5E5E5"/>
<path d="M94.1446 27.0469V122.785H92.9434V27.0469H94.1446Z" fill="white"/>
<path d="M75.5254 27.0469V122.785H74.3242V27.0469H75.5254Z" fill="white"/>
<path d="M56.6065 27.0469V122.785H55.4053V27.0469H56.6065Z" fill="white"/>
<path d="M37.9883 27.0469V122.785H36.7871V27.0469H37.9883Z" fill="white"/>
<path d="M19.0689 27.0469V122.785H18.168V27.0469H19.0689Z" fill="white"/>
<path d="M7.65723 140.492H125.075V147.377H7.65723V140.492Z" fill="#666666"/>
<path d="M7.65723 141.148H125.075V146.722H7.65723V141.148Z" fill="#999999"/>
<path d="M7.65723 142.461H125.075V145.412H7.65723V142.461Z" fill="#B2B2B2"/>
<path d="M7.65723 140.492H125.075V147.377H7.65723V140.492Z" stroke="black" stroke-width="0.313782"/>
<path d="M5.25488 136.227H12.4621V146.39H5.25488V136.227Z" fill="#003399" stroke="black" stroke-width="0.313782"/>
<path d="M49.0986 136.227H63.2127V146.39H49.0986V136.227Z" fill="#003399" stroke="black" stroke-width="0.313782"/>
<path d="M87.5371 136.227H94.444V146.39H87.5371V136.227Z" fill="#003399" stroke="black" stroke-width="0.313782"/>
<path d="M118.769 149.998V27.0469H115.465V141.473L110.961 146.391H106.156V136.227H109.459V129.342H0V136.227H103.153V146.391H0V149.998H115.465H118.769Z" fill="#3366CC" stroke="black" stroke-width="0.313782"/>
<path d="M0 129.344H109.459V131.311H0V129.344Z" fill="#98B2E5"/>
<path d="M120.271 40.8203H149.85V109.017H120.271V40.8203Z" fill="#CCCCCC"/>
<path d="M120.271 89.3446L149.85 60.4922V109.017H120.271V89.3446Z" fill="#C7C7C7"/>
<path d="M120.271 91.9699L149.85 63.4453V109.019H120.271V91.9699Z" fill="#C2C2C2"/>
<path d="M120.271 96.2277L149.85 67.7031V109.015H120.271V96.2277Z" fill="#BDBDBD"/>
<path d="M120.271 40.8203H149.85V109.017H120.271V40.8203Z" stroke="black" stroke-width="0.313782"/>
<path d="M123.273 104.754H146.397V100.492" stroke="#999999" stroke-width="0.313782"/>
<path d="M144.895 100.494H147.898V92.9531" stroke="#999999" stroke-width="0.313782"/>
<path d="M144.895 55.9004H147.898V48.3594" stroke="#999999" stroke-width="0.313782"/>
<path d="M146.396 48.3568V45.0781" stroke="#999999" stroke-width="0.313782"/>
<path d="M146.396 92.6197V55.8984" stroke="#999999" stroke-width="0.313782"/>
<path d="M123.273 104.75V45.0781H146.397" stroke="white" stroke-width="0.313782"/>
<path d="M144.895 55.9004V48.3594H147.898" stroke="white" stroke-width="0.313782"/>
<path d="M144.895 100.494V92.9531H147.898" stroke="white" stroke-width="0.313782"/>
<path d="M118.769 35.5703H120.27V114.259H118.769V35.5703Z" fill="#B2B2B2" stroke="black" stroke-width="0.313782"/>
<path d="M98.3484 27.0469V122.785H89.0391V27.0469H98.3484Z" stroke="black" stroke-width="0.313782"/>
<path d="M23.2732 27.0469V122.785H13.9639V27.0469H23.2732Z" stroke="black" stroke-width="0.313782"/>
<path d="M42.1926 27.0469V122.785H32.583V27.0469H42.1926Z" stroke="black" stroke-width="0.313782"/>
<path d="M60.8113 27.0469V122.785H51.502V27.0469H60.8113Z" stroke="black" stroke-width="0.313782"/>
<path d="M79.7297 27.0469V122.785H70.1201V27.0469H79.7297Z" stroke="black" stroke-width="0.313782"/>
<path d="M110.961 31.3125H115.465V121.804H110.961V31.3125Z" fill="#999999" stroke="black" stroke-width="0.313782"/>
</g>
<defs>
<clipPath id="clip0_2109_228514">
<rect width="150" height="150" fill="white"/>
</clipPath>
</defs>
</svg>
