<svg width="150" height="150" viewBox="0 0 150 150" fill="none" xmlns="http://www.w3.org/2000/svg">
<g clip-path="url(#clip0_2109_228742)">
<path d="M132.282 115.676H125.675L119.669 114.011L114.864 111.515L112.462 108.186V4.78791H108.258V0.210938H150V4.78791H145.795V108.186L143.093 111.515L138.588 114.011L132.282 115.676Z" fill="#7F0000"/>
<path d="M95.7955 106.931V112.757H54.0537V106.931H58.2579V20.1768H54.0537V14.3516H95.7955V20.1768H91.5912V106.931H95.7955Z" fill="#7F0000"/>
<path d="M24.1742 115.676H17.2673L11.2613 114.011L6.45646 111.515L4.05405 108.186V4.78791H0V0.210938H41.5916V4.78791H37.3874V108.186L34.985 111.515L30.1802 114.011L24.1742 115.676Z" fill="#7F0000" stroke="black" stroke-width="0.353485"/>
<path d="M23.5737 115.257H18.1683L13.0632 114.008L9.15931 111.512L7.05721 108.183V4.36893H3.75391V0H37.9881V4.36893H34.3845V108.183L32.2824 111.512L28.6788 114.008L23.5737 115.257Z" fill="#8F0000"/>
<path d="M92.1922 106.931V112.34H57.958V106.931H61.2613V20.1768H57.958V14.3516H92.1922V20.1768H88.5886V106.931H92.1922Z" fill="#8F0000"/>
<path d="M131.682 115.257H126.277L121.472 114.008L117.568 111.512L115.466 108.183V4.36893H111.862V0H146.397V4.36893H142.793V108.183L140.691 111.512L136.787 114.008L131.682 115.257Z" fill="#8F0000"/>
<path d="M131.081 115.257H126.877L122.973 114.008L119.97 111.512L118.468 108.183V4.36893H115.766V0H142.492V4.36893H139.79V108.183L138.288 111.512L135.285 114.008L131.081 115.257Z" fill="#9E0000"/>
<path d="M88.2882 106.931V112.34H61.5615V106.931H64.2642V20.1768H61.5615V14.3516H88.2882V20.1768H85.5855V106.931H88.2882Z" fill="#9E0000"/>
<path d="M22.973 115.257H18.7688L14.8649 114.008L11.5616 111.512L10.0601 108.183V4.36893H7.35742V0H34.3844L34.0841 4.36893H31.3814V108.183L29.8799 111.512L26.8769 114.008L22.973 115.257Z" fill="#9E0000"/>
<path d="M22.3728 115.257H19.3698L16.3668 114.008L14.2647 111.512L13.0635 108.183V4.78502L11.2617 4.36893V0H30.4809V4.36893H28.3788V108.183L27.4779 111.512L25.0755 114.008L22.3728 115.257Z" fill="#AD0000"/>
<path d="M84.685 106.931V112.34H65.4658V106.931H67.2676V20.1768H65.4658V14.3516H84.685V20.1768H82.5829V106.931H84.685Z" fill="#AD0000"/>
<path d="M130.781 115.257H127.478L124.775 114.008L122.673 111.512L121.472 108.183V4.78502L119.67 4.36893V0H138.889V4.36893H136.787V108.183L135.586 111.512L133.484 114.008L130.781 115.257Z" fill="#AD0000"/>
<path d="M130.18 115.257H128.078L126.577 114.008L125.075 111.512L124.475 108.183V4.78502L123.273 4.36893V0H134.985V4.36893H133.784V108.183L133.183 111.512L131.682 114.008L130.18 115.257Z" fill="#BD1000"/>
<path d="M80.7806 106.931V112.34H69.3691V106.931H70.5703V20.1768H69.3691V14.3516H80.7806V20.1768H79.5794V106.931H80.7806Z" fill="#BD1000"/>
<path d="M21.7721 115.257H19.9703L18.1685 114.008L16.9673 111.512L16.0664 108.183V4.78502L14.8652 4.36893V0H26.5769V4.36893H25.3757V108.183L24.7751 111.512L23.5739 114.008L21.7721 115.257Z" fill="#BD1000"/>
<path d="M129.279 115.676H128.679L128.078 114.011L127.478 111.515V108.186V4.78791H126.877V0.210938H131.081V4.78791H130.781V108.186L130.481 111.515L129.88 114.011L129.279 115.676Z" fill="#CC3300"/>
<path d="M76.8766 106.931V112.757H72.9727V106.931H73.273V20.1768H72.9727V14.3516H76.8766V20.1768H76.5763V106.931H76.8766Z" fill="#CC3300"/>
<path d="M21.171 115.676H20.5704L19.6695 114.011L19.3692 111.515L19.0689 108.186V4.78791H18.7686V0.210938H22.9728V4.78791H22.3722V108.186V111.515L21.7716 114.011L21.171 115.676Z" fill="#CC3300"/>
<path d="M95.7955 106.931V112.757H54.0537V106.931H58.2579V20.1768H54.0537V14.3516H95.7955V20.1768H91.5912V106.931H95.7955Z" stroke="black" stroke-width="0.353485"/>
<path d="M132.282 115.676H125.675L119.669 114.011L114.864 111.515L112.462 108.186V4.78791H108.258V0.210938H150V4.78791H145.795V108.186L143.093 111.515L138.588 114.011L132.282 115.676Z" stroke="black" stroke-width="0.353485"/>
<path d="M112.463 108.18H118.769V147.084H120.871V149.997H118.769H112.463V108.18Z" fill="#8F0000" stroke="black" stroke-width="0.353485"/>
<path d="M139.79 108.18H145.796V149.997H139.79H137.388V147.084H139.79V108.18Z" fill="#8F0000" stroke="black" stroke-width="0.353485"/>
<path d="M4.05371 108.18H10.36V147.084H12.4621V149.997H10.36H4.05371V108.18Z" fill="#8F0000" stroke="black" stroke-width="0.353485"/>
<path d="M31.3814 108.18H37.3874V149.997H31.3814H29.2793V147.084H31.3814V108.18Z" fill="#8F0000" stroke="black" stroke-width="0.353485"/>
<path d="M115.466 66.1562V95.6986H88.5889V66.1562H115.466Z" fill="#8F0000"/>
<path d="M61.2616 66.1562V95.6986H34.3848V66.1562H61.2616Z" fill="#8F0000"/>
<path d="M64.564 69.0703V92.3713H31.3809V69.0703H64.564Z" fill="#9E0000"/>
<path d="M118.769 69.0703V92.3713H85.2852V69.0703H118.769Z" fill="#9E0000"/>
<path d="M121.772 71.9844V89.8762H82.2822V71.9844H121.772Z" fill="#AD0000"/>
<path d="M67.5676 71.9844V89.8762H28.0781V71.9844H67.5676Z" fill="#AD0000"/>
<path d="M70.871 74.8984V86.965H25.0752V74.8984H70.871Z" fill="#BD1000"/>
<path d="M125.075 74.8984V86.965H79.2793V74.8984H125.075Z" fill="#BD1000"/>
<path d="M128.078 77.8125V84.0538H79.2793V77.8125H128.078Z" fill="#CC3300"/>
<path d="M70.8706 77.8125V84.0538H21.7715V77.8125H70.8706Z" fill="#CC3300"/>
<path d="M108.258 63.6641V98.1994H95.7959V63.6641H108.258Z" fill="#8F0000"/>
<path d="M54.0543 63.6641V98.1994H41.5918V63.6641H54.0543Z" fill="#8F0000"/>
<path d="M54.0543 66.9922V94.454H41.5918V66.9922H54.0543Z" fill="#9E0000"/>
<path d="M108.258 66.9922V94.454H95.7959V66.9922H108.258Z" fill="#9E0000"/>
<path d="M108.258 70.3203V91.1248H95.7959V70.3203H108.258Z" fill="#AD0000"/>
<path d="M54.0543 70.7344V91.1227H41.5918V70.7344H54.0543Z" fill="#AD0000"/>
<path d="M54.0543 74.0625V87.7934H41.5918V74.0625H54.0543Z" fill="#BD1000"/>
<path d="M108.258 74.0625V87.7934H95.7959V74.0625H108.258Z" fill="#BD1000"/>
<path d="M108.258 77.3906V84.4641H95.7959V77.3906H108.258Z" fill="#CC3300"/>
<path d="M54.0543 77.3906V84.4641H41.5918V77.3906H54.0543Z" fill="#CC3300"/>
<path d="M112.463 106.938H145.796" stroke="black" stroke-width="0.353485"/>
<path d="M4.05371 106.938H37.387" stroke="black" stroke-width="0.353485"/>
<path d="M58.2578 106.938H91.5911" stroke="black" stroke-width="0.353485"/>
<path d="M112.463 4.36719H145.796" stroke="black" stroke-width="0.353485"/>
<path d="M4.05371 4.36719H37.387" stroke="black" stroke-width="0.353485"/>
<path d="M58.2578 20.1797H91.5911" stroke="black" stroke-width="0.353485"/>
<path d="M115.466 30.1641V59.2903H88.5889V30.1641H115.466Z" fill="#8F0000"/>
<path d="M61.2616 30.1641V59.2903H34.3848V30.1641H61.2616Z" fill="#8F0000"/>
<path d="M64.564 33.0781V56.3791H31.3809V33.0781H64.564Z" fill="#9E0000"/>
<path d="M118.769 33.0781V56.3791H85.2852V33.0781H118.769Z" fill="#9E0000"/>
<path d="M121.772 35.9922V53.4679H82.2822V35.9922H121.772Z" fill="#AD0000"/>
<path d="M67.5676 35.9922V53.4679H28.0781V35.9922H67.5676Z" fill="#AD0000"/>
<path d="M70.871 38.9062V50.5567H25.0752V38.9062H70.871Z" fill="#BD1000"/>
<path d="M125.075 38.9062V50.5567H79.2793V38.9062H125.075Z" fill="#BD1000"/>
<path d="M128.078 41.8203V47.6456H79.2793V41.8203H128.078Z" fill="#CC3300"/>
<path d="M70.8706 41.8203V47.6456H21.7715V41.8203H70.8706Z" fill="#CC3300"/>
<path d="M108.258 27.6719V61.7912H95.7959V27.6719H108.258Z" fill="#8F0000"/>
<path d="M54.0543 27.6719V61.7912H41.5918V27.6719H54.0543Z" fill="#8F0000"/>
<path d="M54.0543 31V58.4619H41.5918V31H54.0543Z" fill="#9E0000"/>
<path d="M108.258 31V58.4619H95.7959V31H108.258Z" fill="#9E0000"/>
<path d="M108.258 34.3281V55.1326H95.7959V34.3281H108.258Z" fill="#AD0000"/>
<path d="M54.0543 34.3281V55.1326H41.5918V34.3281H54.0543Z" fill="#AD0000"/>
<path d="M54.0543 37.6562V51.8033H41.5918V37.6562H54.0543Z" fill="#BD1000"/>
<path d="M108.258 37.6562V51.3872H95.7959V37.6562H108.258Z" fill="#BD1000"/>
<path d="M108.258 41.3984V48.0559H95.7959V41.3984H108.258Z" fill="#CC3300"/>
<path d="M54.0543 40.9844V48.0579H41.5918V40.9844H54.0543Z" fill="#CC3300"/>
<path d="M41.5918 27.6719H54.0543V62.2072H41.5918V27.6719Z" stroke="black" stroke-width="0.353485"/>
<path d="M47.748 62.2072V27.6719" stroke="black" stroke-width="0.353485"/>
<path d="M41.5918 63.6641H54.0543V98.1994H41.5918V63.6641Z" stroke="black" stroke-width="0.353485"/>
<path d="M47.748 98.1994V63.6641" stroke="black" stroke-width="0.353485"/>
<path d="M95.7959 27.6719H108.258V62.2072H95.7959V27.6719Z" stroke="black" stroke-width="0.353485"/>
<path d="M102.102 62.2072V27.6719" stroke="black" stroke-width="0.353485"/>
<path d="M95.7959 63.6641H108.258V98.1994H95.7959V63.6641Z" stroke="black" stroke-width="0.353485"/>
<path d="M102.102 98.1994V63.6641" stroke="black" stroke-width="0.353485"/>
<path d="M74.9254 61.9963C81.8082 61.9963 87.3878 54.2653 87.3878 44.7286C87.3878 35.1919 81.8082 27.4609 74.9254 27.4609C68.0425 27.4609 62.4629 35.1919 62.4629 44.7286C62.4629 54.2653 68.0425 61.9963 74.9254 61.9963Z" fill="#BD1000" stroke="black" stroke-width="0.353485"/>
<path d="M74.9254 99.6526C81.8082 99.6526 87.3878 91.9215 87.3878 82.3849C87.3878 72.8482 81.8082 65.1172 74.9254 65.1172C68.0425 65.1172 62.4629 72.8482 62.4629 82.3849C62.4629 91.9215 68.0425 99.6526 74.9254 99.6526Z" fill="#BD1000" stroke="black" stroke-width="0.353485"/>
<path d="M74.9248 59.0851C80.6467 59.0851 85.2852 52.6581 85.2852 44.7301C85.2852 36.802 80.6467 30.375 74.9248 30.375C69.2029 30.375 64.5645 36.802 64.5645 44.7301C64.5645 52.6581 69.2029 59.0851 74.9248 59.0851Z" fill="#CCCCCC"/>
<path d="M74.9248 96.5304C80.6467 96.5304 85.2852 90.1035 85.2852 82.1754C85.2852 74.2473 80.6467 67.8203 74.9248 67.8203C69.2029 67.8203 64.5645 74.2473 64.5645 82.1754C64.5645 90.1035 69.2029 96.5304 74.9248 96.5304Z" fill="#CCCCCC"/>
<path d="M74.9247 54.9274C78.9881 54.9274 82.2821 50.3633 82.2821 44.7332C82.2821 39.1031 78.9881 34.5391 74.9247 34.5391C70.8614 34.5391 67.5674 39.1031 67.5674 44.7332C67.5674 50.3633 70.8614 54.9274 74.9247 54.9274Z" fill="#191919"/>
<path d="M74.9247 92.3727C78.9881 92.3727 82.2821 87.8086 82.2821 82.1785C82.2821 76.5485 78.9881 71.9844 74.9247 71.9844C70.8614 71.9844 67.5674 76.5485 67.5674 82.1785C67.5674 87.8086 70.8614 92.3727 74.9247 92.3727Z" fill="#191919"/>
</g>
<defs>
<clipPath id="clip0_2109_228742">
<rect width="150" height="150" fill="white"/>
</clipPath>
</defs>
</svg>
