<svg width="150" height="150" viewBox="0 0 150 150" fill="none" xmlns="http://www.w3.org/2000/svg">
<g clip-path="url(#clip0_2109_229075)">
<path d="M60.4209 23.8739L85.6714 0H96.493L71.2425 23.8739H60.4209Z" fill="#4C4C4C"/>
<path d="M61.623 23.8739L86.2723 0H95.8916L70.6411 23.8739H61.623Z" fill="#666666"/>
<path d="M62.2246 23.8739L87.4751 0H94.6895L69.439 23.8739H62.2246Z" fill="#7F7F7F"/>
<path d="M63.4268 23.8739L88.6773 0H93.4869L68.2364 23.8739H63.4268Z" fill="#999999"/>
<path d="M64.6289 23.8739L89.2782 0H92.2842L67.6349 23.8739H64.6289Z" fill="#B2B2B2"/>
<path d="M65.2305 23.8739L90.481 0H91.6834L66.4329 23.8739H65.2305Z" fill="#CCCCCC"/>
<path d="M60.4209 23.8739L85.6714 0H96.493L71.2425 23.8739H60.4209Z" stroke="black" stroke-width="0.424901"/>
<path d="M112.124 112.461H128.356V147.296H112.124V112.461Z" fill="#000066" stroke="black" stroke-width="0.424901"/>
<path d="M32.1641 112.461H47.7953V147.296H32.1641V112.461Z" fill="#000066" stroke="black" stroke-width="0.424901"/>
<path d="M21.3428 112.461H36.974V149.998H21.3428V112.461Z" fill="#003399" stroke="black" stroke-width="0.424901"/>
<path d="M122.946 112.461H139.179V149.998H122.946V112.461Z" fill="#003399" stroke="black" stroke-width="0.424901"/>
<path d="M16.2324 96.2469V35.286L20.4408 31.0818L28.5571 27.4782L40.5811 24.4752L55.6112 22.3731L71.8436 21.1719H88.6773L104.91 22.3731L119.94 24.4752L131.363 27.4782L140.381 31.0818L144.589 35.286V96.2469H16.2324Z" fill="#003399"/>
<path d="M21.9443 96.2469V35.286L25.5516 31.0818L33.3672 27.4782L44.1888 24.4752L57.4153 22.3731L72.4453 21.1719H88.0766L102.505 22.3731L116.333 24.4752L127.155 27.4782L134.97 31.0818L138.578 35.286V96.2469H21.9443Z" fill="#1040A1"/>
<path d="M27.3545 96.2469L27.9557 35.286L30.9617 31.0818L38.1761 27.4782L47.7954 24.4752L59.8194 22.3731L73.0459 21.1719H87.4747L100.701 22.3731L112.725 24.4752L122.344 27.4782L128.958 31.0818L132.565 35.286V96.2469H27.3545Z" fill="#1E4CA8"/>
<path d="M33.3672 96.2469V35.286L36.9744 31.0818L42.9864 27.4782L51.4033 24.4752L62.2249 22.3731L74.249 21.1719H86.273L98.2971 22.3731L109.119 24.4752L117.536 27.4782L123.548 31.0818L127.155 35.286V96.2469H33.3672Z" fill="#2E59B0"/>
<path d="M39.3789 96.2469V35.286L42.3849 31.0818L47.7957 27.4782L55.0102 24.4752L64.6294 22.3731L74.8498 21.1719H85.6715L95.8919 22.3731L105.511 24.4752L112.726 27.4782L118.136 31.0818L121.142 35.286V96.2469H39.3789Z" fill="#3E66B8"/>
<path d="M45.3906 96.2469V35.286L47.7954 31.0818L52.6051 27.4782L58.6171 24.4752L67.0339 22.3731L75.4507 21.1719H85.07L93.4868 22.3731L101.904 24.4752L107.916 27.4782L112.725 31.0818L115.13 35.286V96.2469H45.3906Z" fill="#4C72BF"/>
<path d="M51.4023 96.2469V35.286L53.206 31.0818L56.8132 27.4782L62.224 24.4752L68.8372 22.3731L76.6528 21.1719H83.8673L91.6829 22.3731L98.2961 24.4752L103.707 27.4782L107.314 31.0818L109.118 35.286V96.2469H51.4023Z" fill="#5C80C7"/>
<path d="M57.415 96.2469V35.286L58.6174 31.0818L61.6235 27.4782L65.8319 24.4752L71.2427 22.3731L77.2547 21.1719H83.2667L89.2788 22.3731L94.6896 24.4752L98.898 27.4782L101.904 31.0818L103.106 35.286V96.2469H57.415Z" fill="#6C8DCF"/>
<path d="M62.8262 96.2469V35.286L64.0286 31.0818L66.4334 27.4782L69.4394 24.4752L73.6478 22.3731L77.8562 21.1719H82.6659L86.8743 22.3731L91.0827 24.4752L94.0887 27.4782L96.4935 31.0818L97.6959 35.286V96.2469H62.8262Z" fill="#7A99D6"/>
<path d="M68.8379 96.2469V35.286L69.4391 31.0818L71.2427 27.4782L73.0463 24.4752L76.0523 22.3731L79.0583 21.1719H81.4631L84.4692 22.3731L87.4752 24.4752L89.2788 27.4782L91.0824 31.0818L91.6836 35.286V96.2469H68.8379Z" fill="#8AA6DE"/>
<path d="M74.8496 96.2469V35.286V31.0818L76.052 27.4782L76.6532 24.4752L77.8556 22.3731L79.6592 21.1719H80.8616L82.064 22.3731L83.2664 24.4752L84.4688 27.4782L85.07 31.0818L85.6713 35.286V96.2469H74.8496Z" fill="#98B2E5"/>
<path d="M144.589 96.25V109.163L140.381 113.367L131.363 116.971L119.94 119.974L104.91 122.076L88.6773 123.277H71.8436L55.6112 122.076L40.5811 119.974L28.5571 116.971L20.4408 113.367L16.2324 109.163V96.25H144.589Z" fill="#00197F"/>
<path d="M138.578 96.25V109.163L134.97 113.067L127.155 116.67L116.333 119.974L102.505 122.076L88.0766 123.277H72.4453L57.4153 122.076L44.1888 119.974L33.3672 116.67L25.5516 113.067L21.9443 109.163V96.25H138.578Z" fill="#002687"/>
<path d="M133.166 96.25L132.565 109.163L129.559 113.067L122.345 116.67L112.726 119.974L100.702 122.076L87.4751 123.277H73.0462L59.8198 122.076L47.7957 119.974L38.1765 116.67L31.8639 113.067L27.9561 109.163V96.25H133.166Z" fill="#05338F"/>
<path d="M127.155 96.25V109.163L123.548 113.067L117.536 116.67L109.119 119.974L98.2971 122.076L86.273 123.277H74.249L62.2249 122.076L51.4033 119.974L42.9864 116.67L36.9744 113.067L33.3672 109.163V96.25H127.155Z" fill="#143F96"/>
<path d="M121.142 96.25V109.163L118.136 113.067L112.726 116.67L105.511 119.974L95.8919 122.076L85.6715 123.277H74.8498L64.6294 122.076L55.0102 119.974L47.7957 116.67L42.3849 113.067L39.3789 109.163V96.25H121.142Z" fill="#244C9E"/>
<path d="M115.13 96.25V109.163L112.725 113.067L107.916 116.67L101.904 119.974L93.4868 122.076L85.07 123.277H75.4507L67.0339 122.076L58.6171 119.974L52.6051 116.67L47.7954 113.067L45.3906 109.163V96.25H115.13Z" fill="#3359A6"/>
<path d="M109.118 96.25V109.163L107.314 113.067L103.707 116.67L98.2961 119.974L91.6829 122.076L83.8673 123.277H76.6528L68.8372 122.076L62.224 119.974L56.8132 116.67L53.206 113.067L51.4023 109.163V96.25H109.118Z" fill="#4266AD"/>
<path d="M103.106 96.25V109.163L101.904 113.067L98.898 116.67L94.6896 119.974L89.2788 122.076L83.2667 123.277H77.2547L71.2427 122.076L65.8319 119.974L61.6235 116.67L58.6174 113.067L57.415 109.163V96.25H103.106Z" fill="#5273B5"/>
<path d="M97.6959 96.25V109.163L96.4935 113.067L94.0887 116.67L91.0827 119.974L86.8743 122.076L82.6659 123.277H77.8562L73.6478 122.076L69.4394 119.974L66.4334 116.67L64.0286 113.067L62.8262 109.163V96.25H97.6959Z" fill="#6180BD"/>
<path d="M91.6836 96.25V109.163L91.0824 113.067L89.2788 116.67L87.4752 119.974L84.4692 122.076L81.4631 123.277H79.0583L76.0523 122.076L73.0463 119.974L71.2427 116.67L69.4391 113.067L68.8379 109.163V96.25H91.6836Z" fill="#708CC4"/>
<path d="M85.6713 96.25V109.163L85.07 113.367L84.4688 116.971L83.2664 119.974L82.064 122.076L80.8616 123.277H79.6592L77.8556 122.076L76.6532 119.974L76.052 116.971L74.8496 113.367V109.163V96.25H85.6713Z" fill="#7F99CC"/>
<path d="M16.2324 109.16L20.4408 113.364L28.5571 116.968L40.5811 119.971L55.01 122.073L71.8436 123.274H88.6773L104.91 122.073L119.339 119.971L131.363 116.968L140.381 113.364L144.589 109.16V35.286L139.78 31.0818L131.363 27.4782L119.94 24.4752L104.91 22.3731L88.6773 21.1719H71.8436L55.01 22.3731L40.5811 24.4752L28.5571 27.4782L20.4408 31.0818L16.2324 35.286V109.16Z" stroke="black" stroke-width="0.424901"/>
<path d="M139.178 139.188V144.593H21.3428V139.188H139.178Z" fill="#3366CC" stroke="black" stroke-width="0.424901"/>
<path d="M47.7959 0H85.6716V1.05105H50.8019V88.4384H80.2608V89.6396H71.844V132.583H106.714L107.315 120.571H71.844V119.069H107.315V79.1291H96.4933V77.6276H109.72V133.784H91.0825V139.189H88.0765V133.784L69.4392 133.934V89.6396H47.7959V0Z" fill="#333333"/>
<path d="M85.6709 88.4384V0H96.4925V88.4384H85.6709Z" fill="#7F7F7F" stroke="black" stroke-width="0.424901"/>
<path d="M85.6713 85.7335H0V80.3281H85.6713V85.7335Z" fill="#7F7F7F" stroke="black" stroke-width="0.424901"/>
<path d="M150 96.2457H0V91.1406H150V96.2457Z" fill="#7F7F7F" stroke="black" stroke-width="0.424901"/>
<path d="M86.2725 88.4384V0H95.8917V88.4384H86.2725Z" fill="#999999"/>
<path d="M85.6713 85.1373H0V80.6328H85.6713V85.1373Z" fill="#999999"/>
<path d="M150 95.9498H0V91.4453H150V95.9498Z" fill="#999999"/>
<path d="M87.4746 88.4384V0H94.689V88.4384H87.4746Z" fill="#B2B2B2"/>
<path d="M85.6713 84.838H0V81.2344H85.6713V84.838Z" fill="#B2B2B2"/>
<path d="M150 95.3424H0V92.0391H150V95.3424Z" fill="#B2B2B2"/>
<path d="M88.6777 88.4384V0H93.4874V88.4384H88.6777Z" fill="#CCCCCC"/>
<path d="M85.6713 84.2305H0V81.8281H85.6713V84.2305Z" fill="#CCCCCC"/>
<path d="M150 95.0465H0V92.3438H150V95.0465Z" fill="#CCCCCC"/>
<path d="M89.2783 88.4384V0H92.2843V88.4384H89.2783Z" fill="#E5E5E5"/>
<path d="M85.6713 83.6343H0V82.1328H85.6713V83.6343Z" fill="#E5E5E5"/>
<path d="M150 94.4468H0V92.9453H150V94.4468Z" fill="#E5E5E5"/>
<path d="M150 94.1431H0V93.2422H150V94.1431Z" fill="white"/>
<path d="M85.6713 83.335H0V82.7344H85.6713V83.335Z" fill="white"/>
<path d="M90.4814 88.4384V0H91.6839V88.4384H90.4814Z" fill="white"/>
<path d="M80.2607 88.4375H122.946V109.759H80.2607V88.4375Z" fill="#CCCCCC"/>
<path d="M80.2607 103.454L122.946 94.4453V109.761H80.2607V103.454Z" fill="#C7C7C7"/>
<path d="M80.2607 104.353L122.946 95.3438V109.758H80.2607V104.353Z" fill="#C2C2C2"/>
<path d="M80.2607 105.853L122.946 96.8438V109.757H80.2607V105.853Z" fill="#BDBDBD"/>
<path d="M80.2607 88.4375H122.946V109.759H80.2607V88.4375Z" stroke="black" stroke-width="0.424901"/>
<path d="M88.0762 89.6406H115.13V92.3433H88.0762V89.6406Z" fill="#B2B2B2"/>
</g>
<defs>
<clipPath id="clip0_2109_229075">
<rect width="150" height="150" fill="white"/>
</clipPath>
</defs>
</svg>
