<svg width="150" height="150" viewBox="0 0 150 150" fill="none" xmlns="http://www.w3.org/2000/svg">
<g clip-path="url(#clip0_2109_229032)">
<path d="M96.7738 143.693L89.1701 143.993L81.336 144.293H64.7462L57.1425 143.993L49.3084 143.693L35.0226 142.492L23.2715 140.99L14.9766 138.888L10.8291 136.786V13.0622L14.9766 10.9601L23.2715 8.85799L35.0226 7.35649L49.3084 6.15529L57.1425 5.85499L64.7462 5.55469H81.336L89.1701 5.85499L96.7738 6.15529L111.06 7.35649L122.58 8.85799L130.875 10.9601L134.792 13.0622V136.786L130.875 138.888L122.58 140.99L111.06 142.492L96.7738 143.693Z" fill="#E5E5E5"/>
<path d="M64.7463 144.293L57.1426 143.993V5.85499L64.7463 5.55469V144.293Z" fill="#B2E5B2"/>
<path d="M57.1425 143.998L49.3084 143.697L35.0227 142.496L23.2715 140.995L14.9766 138.892L10.8291 136.79V13.0666L14.9766 10.9645L23.2715 8.86238L35.0227 7.36088L49.3084 6.15968L57.1425 5.85938V143.998Z" fill="#BFBFBF"/>
<path d="M43.7783 93.8438H101.843V96.8468H43.7783V93.8438Z" fill="#CCCCCC" stroke="black" stroke-width="0.372004"/>
<path d="M43.7793 93.8424H101.844V90.5391H43.7793V93.8424Z" fill="white" stroke="black" stroke-width="0.372004"/>
<path d="M96.7738 143.693L89.1701 143.993L81.336 144.293H64.7462L57.1425 143.993L49.3084 143.693L35.0227 142.492L23.2715 140.99L14.9766 138.888L10.8291 136.786V13.0622L14.9766 10.9601L23.2715 8.85799L35.0227 7.35649L49.3084 6.15529L57.1425 5.85499L64.7462 5.55469H81.336L89.1701 5.85499L96.7738 6.15529L111.06 7.35649L122.58 8.85799L130.875 10.9601L134.792 13.0622V136.786L130.875 138.888L122.58 140.99L111.06 142.492L96.7738 143.693Z" stroke="black" stroke-width="0.372004"/>
<path d="M99.0781 150V0L114.746 1.05105L127.189 2.85285L136.175 4.95496L140.783 7.35736V142.492L136.175 144.895L127.189 146.997L114.746 148.799L99.0781 150Z" fill="#CCCCCC" stroke="black" stroke-width="0.372004"/>
<path d="M47.0049 150L31.3367 148.799L18.6639 146.997L9.9081 144.895L5.2998 142.492V7.35736L9.9081 4.95496L19.1247 2.85285L31.3367 1.05105L47.0049 0V150Z" fill="#CCCCCC" stroke="black" stroke-width="0.372004"/>
<path d="M99.0781 100.152V87.5391L106.912 90.5421V96.8484L99.0781 100.152Z" fill="#E5E5E5" stroke="black" stroke-width="0.372004"/>
<path d="M47.005 100.152L39.1709 96.8484V90.5421L47.005 87.5391V100.152Z" fill="#E5E5E5" stroke="black" stroke-width="0.372004"/>
<path d="M31.7969 146.698V76.5781" stroke="#7F7F7F" stroke-width="0.372004"/>
<path d="M11.29 140.989V37.8359" stroke="#7F7F7F" stroke-width="0.372004"/>
<path d="M20.0459 47.2969V127.928" stroke="#7F7F7F" stroke-width="0.372004"/>
<path d="M29.7236 33.0312V141.89" stroke="#7F7F7F" stroke-width="0.372004"/>
<path d="M17.2812 15.1641V101.05" stroke="#7F7F7F" stroke-width="0.372004"/>
<path d="M26.0371 9.46094V91.4429" stroke="#7F7F7F" stroke-width="0.372004"/>
<path d="M37.7881 65.4661V4.05469" stroke="#7F7F7F" stroke-width="0.372004"/>
<path d="M10.3691 8.55469V22.819" stroke="#7F7F7F" stroke-width="0.372004"/>
<path d="M112.903 146.698V76.5781" stroke="#7F7F7F" stroke-width="0.372004"/>
<path d="M133.641 140.989V37.8359" stroke="#7F7F7F" stroke-width="0.372004"/>
<path d="M125.346 47.2969V127.928" stroke="#7F7F7F" stroke-width="0.372004"/>
<path d="M115.668 33.0312V141.89" stroke="#7F7F7F" stroke-width="0.372004"/>
<path d="M127.649 15.1641V101.05" stroke="#7F7F7F" stroke-width="0.372004"/>
<path d="M119.354 9.46094V91.4429" stroke="#7F7F7F" stroke-width="0.372004"/>
<path d="M106.912 65.4661V4.05469" stroke="#7F7F7F" stroke-width="0.372004"/>
<path d="M134.793 8.55469V22.819" stroke="#7F7F7F" stroke-width="0.372004"/>
<path d="M150 125.526L144.931 122.523L139.862 124.626L130.415 126.127L116.59 127.629L99.5391 128.529L102.765 131.683L99.5391 134.686L116.59 133.785L130.415 132.283L139.862 130.782L144.931 128.83L150 125.526Z" fill="#CCCCCC" stroke="black" stroke-width="0.372004"/>
<path d="M150 108.856L144.931 106.453L139.862 107.955L130.415 109.456L116.59 110.207L99.5391 111.108L102.765 113.51L99.5391 115.913L116.59 115.012L130.415 114.111L139.862 112.609L144.931 111.108L150 108.856Z" fill="#CCCCCC" stroke="black" stroke-width="0.372004"/>
<path d="M150 27.6313L144.931 30.6343L139.862 28.5322L130.415 26.7304L116.59 25.5292L99.5391 24.6283L102.765 21.325L99.5391 18.1719L116.59 19.3731L130.415 20.4241L139.862 22.2259L144.931 24.328L150 27.6313Z" fill="#CCCCCC" stroke="black" stroke-width="0.372004"/>
<path d="M150 44.2914L144.931 46.3935L139.862 44.892L130.415 43.6908L116.59 42.4896L99.5391 41.889L102.765 39.6368L99.5391 37.2344L116.59 37.835L130.415 39.0362L139.862 40.2374L144.931 41.5887L150 44.2914Z" fill="#CCCCCC" stroke="black" stroke-width="0.372004"/>
<path d="M150 62.3127L144.931 65.1656L139.862 63.0635L130.415 61.4118L116.59 60.2106L99.5391 59.3097L102.765 56.0064L99.5391 52.7031L116.59 53.9043L130.415 55.1055L139.862 56.9073L144.931 59.0094L150 62.3127Z" fill="#CCCCCC" stroke="black" stroke-width="0.372004"/>
<path d="M150 78.9806L144.931 81.0827L139.862 79.5812L130.415 78.38L116.59 77.1788L99.5391 76.5782L102.765 74.1758L99.5391 71.7734L116.59 72.374L130.415 73.5752L139.862 74.7764L144.931 76.2779L150 78.9806Z" fill="#CCCCCC" stroke="black" stroke-width="0.372004"/>
<path d="M0 125.526L4.83871 122.523L9.447 124.626L18.2028 126.127L31.106 127.629L46.5438 128.529L43.318 131.683L46.5438 134.686L31.106 133.785L18.2028 132.283L9.447 130.782L4.83871 128.83L0 125.526Z" fill="#CCCCCC" stroke="black" stroke-width="0.372004"/>
<path d="M0 108.856L4.83871 106.453L9.447 107.955L18.2028 109.456L31.106 110.207L46.5438 111.108L43.318 113.51L46.5438 115.913L31.106 115.012L18.2028 114.111L9.447 112.609L4.83871 111.108L0 108.856Z" fill="#CCCCCC" stroke="black" stroke-width="0.372004"/>
<path d="M0 27.6313L4.83871 30.6343L9.447 28.5322L18.2028 26.7304L31.106 25.5292L46.5438 24.6283L43.318 21.325L46.5438 18.1719L31.106 19.3731L18.2028 20.4241L9.447 22.2259L4.83871 24.328L0 27.6313Z" fill="#CCCCCC" stroke="black" stroke-width="0.372004"/>
<path d="M0 44.2914L4.83871 46.3935L9.447 44.892L18.2028 43.6908L31.106 42.4896L46.5438 41.889L43.318 39.6368L46.5438 37.2344L31.106 37.835L18.2028 39.0362L9.447 40.2374L4.83871 41.5887L0 44.2914Z" fill="#CCCCCC" stroke="black" stroke-width="0.372004"/>
<path d="M0 62.3127L4.83871 65.1656L9.447 63.0635L18.2028 61.4118L31.106 60.2106L46.5438 59.3097L43.318 56.0064L46.5438 52.7031L31.106 53.9043L18.2028 55.1055L9.447 56.9073L4.83871 59.0094L0 62.3127Z" fill="#CCCCCC" stroke="black" stroke-width="0.372004"/>
<path d="M0 78.9806L4.83871 81.0827L9.447 79.5812L18.2028 78.38L31.106 77.1788L46.5438 76.5782L43.318 74.1758L46.5438 71.7734L31.106 72.374L18.2028 73.5752L9.447 74.7764L4.83871 76.2779L0 78.9806Z" fill="#CCCCCC" stroke="black" stroke-width="0.372004"/>
<path d="M99.0781 100.152V87.5391H116.59L130.415 87.8394H140.322L145.852 90.5421V96.8484L140.322 99.8514H130.875L116.59 100.152H99.0781Z" fill="#CCCCCC" stroke="black" stroke-width="0.372004"/>
<path d="M47.0047 100.152H29.7236L15.4378 99.8514H5.76042L0.230469 96.8484V90.5421L5.76042 87.8394H15.8987L29.7236 87.5391H47.0047V100.152Z" fill="#CCCCCC" stroke="black" stroke-width="0.372004"/>
</g>
<defs>
<clipPath id="clip0_2109_229032">
<rect width="150" height="150" fill="white"/>
</clipPath>
</defs>
</svg>
