<svg width="150" height="150" viewBox="0 0 150 150" fill="none" xmlns="http://www.w3.org/2000/svg">
<g clip-path="url(#clip0_2109_229404)">
<path d="M0 30.5107L0.750751 26.2734H149.099L150 30.5107V127.968L149.099 131.358H0.750751L0 127.968V30.5107Z" fill="#CCCCCC"/>
<path d="M0 31.3594H150V126.275H0V31.3594Z" fill="#D1D1D1"/>
<path d="M0 38.9844H150V119.493H0V38.9844Z" fill="#D9D9D9"/>
<path d="M0 43.2188H150V114.405H0V43.2188Z" fill="#DEDEDE"/>
<path d="M0 50H150V107.627H0V50Z" fill="#E5E5E5"/>
<path d="M0 55.0859H150V100.849H0V55.0859Z" fill="#EBEBEB"/>
<path d="M0 61.8672H150V95.7655H0V61.8672Z" fill="#F2F2F2"/>
<path d="M0 66.9453H150V88.9792H0V66.9453Z" fill="#F7F7F7"/>
<path d="M0 73.7266H150V84.7435H0V73.7266Z" fill="white"/>
<path d="M0 30.5107L0.750751 26.2734H149.099L150 30.5107V127.968L149.099 131.358H0.750751L0 127.968V30.5107Z" stroke="black" stroke-width="0.713431"/>
<path d="M3.9043 17.7969H145.946V26.2715H3.9043V17.7969Z" fill="#333333"/>
<path d="M2.25195 17.7937H147.597V4.23438H2.25195V17.7937Z" fill="#3366CC"/>
<path d="M2.25195 0H147.597V4.23729H2.25195V0Z" fill="#98B2E5"/>
<path d="M15.4658 131.358V26.2734" stroke="#B2B2B2" stroke-width="0.713431"/>
<path d="M31.0811 131.358V26.2734" stroke="#B2B2B2" stroke-width="0.713431"/>
<path d="M46.6963 131.358V26.2734" stroke="#B2B2B2" stroke-width="0.713431"/>
<path d="M62.3125 131.358V26.2734" stroke="#B2B2B2" stroke-width="0.713431"/>
<path d="M77.9277 131.358V26.2734" stroke="#B2B2B2" stroke-width="0.713431"/>
<path d="M93.5439 131.358V26.2734" stroke="#B2B2B2" stroke-width="0.713431"/>
<path d="M109.459 131.358V26.2734" stroke="#B2B2B2" stroke-width="0.713431"/>
<path d="M125.075 131.358V26.2734" stroke="#B2B2B2" stroke-width="0.713431"/>
<path d="M140.69 131.358V26.2734" stroke="#B2B2B2" stroke-width="0.713431"/>
<path d="M15.4658 114.406H134.385V149.999H15.4658V114.406Z" fill="#BFB299"/>
<path d="M15.4658 116.102H134.385V146.61H15.4658V116.102Z" fill="#C7BAA1"/>
<path d="M15.4658 119.492H134.385V144.916H15.4658V119.492Z" fill="#D1C4AB"/>
<path d="M15.4658 121.188H134.385V141.526H15.4658V121.188Z" fill="#D9CCB3"/>
<path d="M15.4658 122.883H134.385V139.832H15.4658V122.883Z" fill="#E0D3BA"/>
<path d="M15.4658 126.273H134.385V136.443H15.4658V126.273Z" fill="#EBDEC5"/>
<path d="M15.4658 127.969H134.385V134.748H15.4658V127.969Z" fill="#F2E5CC"/>
<path d="M15.4658 114.406H134.385V149.999H15.4658V114.406Z" stroke="#998C73" stroke-width="0.713431"/>
<path d="M23.2734 109.32V149.998" stroke="#998C73" stroke-width="0.713431"/>
<path d="M30.7812 109.32V149.998" stroke="#998C73" stroke-width="0.713431"/>
<path d="M37.9883 109.32V149.998" stroke="#998C73" stroke-width="0.713431"/>
<path d="M45.4951 109.32V149.998" stroke="#998C73" stroke-width="0.713431"/>
<path d="M52.7031 109.32V149.998" stroke="#998C73" stroke-width="0.713431"/>
<path d="M60.21 109.32V149.998" stroke="#998C73" stroke-width="0.713431"/>
<path d="M67.7178 109.32V149.998" stroke="#998C73" stroke-width="0.713431"/>
<path d="M74.9248 109.32V149.998" stroke="#998C73" stroke-width="0.713431"/>
<path d="M82.1318 109.32V149.998" stroke="#998C73" stroke-width="0.713431"/>
<path d="M89.6396 109.32V149.998" stroke="#998C73" stroke-width="0.713431"/>
<path d="M96.8467 109.32V149.998" stroke="#998C73" stroke-width="0.713431"/>
<path d="M104.354 109.32V149.998" stroke="#998C73" stroke-width="0.713431"/>
<path d="M111.562 109.32V149.998" stroke="#998C73" stroke-width="0.713431"/>
<path d="M119.069 109.32V149.998" stroke="#998C73" stroke-width="0.713431"/>
<path d="M126.276 109.32V149.998" stroke="#998C73" stroke-width="0.713431"/>
<path d="M12.4629 43.2188H21.7722V78.812H12.4629V43.2188Z" fill="#666666"/>
<path d="M21.7722 78.8125H12.4629" stroke="black" stroke-width="0.713431"/>
<path d="M2.25195 17.7966H147.597V0H2.25195V17.7966Z" stroke="black" stroke-width="0.713431"/>
</g>
<defs>
<clipPath id="clip0_2109_229404">
<rect width="150" height="150" fill="white"/>
</clipPath>
</defs>
</svg>
