<svg width="150" height="150" viewBox="0 0 150 150" fill="none" xmlns="http://www.w3.org/2000/svg">
<g clip-path="url(#clip0_2109_217544)">
<path d="M0 52.3743V0H120.288V52.3743H0Z" fill="#7F7F7F"/>
<path d="M7.66797 52.3743V0H113.099V52.3743H7.66797Z" fill="#999999"/>
<path d="M20.6074 52.3743V0H100.16V52.3743H20.6074Z" fill="#B2B2B2"/>
<path d="M32.5879 52.3743V0H87.6997V52.3743H32.5879Z" fill="#CCCCCC"/>
<path d="M42.6514 52.3743V0H77.6354V52.3743H42.6514Z" fill="#E5E5E5"/>
<path d="M52.7158 52.3743V0H67.5721V52.3743H52.7158Z" fill="white"/>
<path d="M120.287 52.3743V0" stroke="black" stroke-width="0.896205"/>
<path d="M0 0V52.3743" stroke="black" stroke-width="0.896205"/>
<path d="M119.808 52.375L16.2939 104.749L12.4601 98.8834L9.10543 92.5985L6.70926 86.3135L4.3131 79.6096L2.39617 72.9057L0.958466 65.7828L0.479233 59.0789L0 52.375H119.808Z" fill="#7F7F7F"/>
<path d="M119.809 52.375L22.5242 101.397L19.1696 95.9504L16.2942 90.0845L13.4188 83.7996L11.5018 77.5147L10.0641 71.2297L8.62644 64.9448L8.1472 58.6599L7.66797 52.375H119.809Z" fill="#999999"/>
<path d="M119.808 52.375L33.5465 95.9504L30.6711 90.9225L27.7957 85.8946L25.3995 80.4476L23.4826 75.0007L22.0449 69.5538L21.0864 63.6878L20.1279 58.2409V52.375H119.808Z" fill="#B2B2B2"/>
<path d="M119.808 52.375L44.0895 90.5035L41.6933 86.3135L39.2972 81.7046L37.3802 77.0957L35.4633 72.0677L34.5048 67.0398L33.5464 62.0119L32.5879 57.4029V52.375H119.808Z" fill="#CCCCCC"/>
<path d="M119.808 52.375L52.7153 85.8946L50.3191 82.1236L48.4022 77.9337L46.4852 74.1627L45.0475 69.5538L44.0891 65.3638L43.1306 61.1739L42.6514 56.5649V52.375H119.808Z" fill="#E5E5E5"/>
<path d="M119.808 52.375L61.342 81.7046L59.4251 78.3527L57.5082 75.0007L56.0705 71.2297L55.112 67.4588L54.1535 63.6878L53.1951 59.9169L52.7158 56.1459V52.375H119.808Z" fill="white"/>
<path d="M119.809 52.375L74.7608 75.0007L72.8438 72.4867L71.4061 69.5538L70.4477 67.0398L69.4892 64.1068L68.5307 61.1739L68.0515 58.2409L67.5723 55.308V52.375H119.809Z" fill="#E5E5E5"/>
<path d="M119.808 52.375L83.3865 70.8108L81.9488 68.7158L80.9904 66.6208L80.0319 64.1068L79.0734 62.0119L78.5942 59.4979L78.115 56.9839L77.6357 54.889V52.375H119.808Z" fill="#CCCCCC"/>
<path d="M119.808 52.375L92.0123 66.6208L91.0539 64.9448L90.0954 63.2689L89.6162 61.5929L88.6577 59.4979L88.1785 57.8219V56.1459L87.6992 54.051V52.375H119.808Z" fill="#B2B2B2"/>
<path d="M119.809 52.375L102.556 61.1739L101.598 59.0789L100.639 56.5649L100.16 54.47V52.375H119.809Z" fill="#999999"/>
<path d="M119.809 52.375L113.579 55.727L113.099 54.889L112.62 54.051V53.213V52.375H119.809Z" fill="#7F7F7F"/>
<path d="M46.0064 150.001L16.2939 104.749L119.808 52.375L150 97.6264L46.0064 150.001Z" fill="#7F7F7F"/>
<path d="M52.2359 146.645L22.5234 101.394L113.578 55.3047L143.769 100.975L52.2359 146.645Z" fill="#999999"/>
<path d="M63.7386 141.205L33.5469 95.9533L103.036 60.7578L132.748 106.428L63.7386 141.205Z" fill="#B2B2B2"/>
<path d="M74.2815 135.756L44.0898 90.5048L92.0132 66.2031L121.726 111.874L74.2815 135.756Z" fill="#CCCCCC"/>
<path d="M82.4283 131.567L52.7158 86.3153L83.3867 70.8125L113.099 116.064L82.4283 131.567Z" fill="#E5E5E5"/>
<path d="M91.5337 126.958L61.8213 81.7068L74.2814 75.4219L104.473 120.673L91.5337 126.958Z" fill="white"/>
<path d="M150 97.6264L119.809 52.375" stroke="black" stroke-width="0.896205"/>
<path d="M16.2939 104.75L46.0064 150.001" stroke="black" stroke-width="0.896205"/>
<path d="M16.2939 104.749L12.4601 98.8834L9.10543 92.5985L6.70927 86.3135L4.3131 79.6096L2.39617 72.9057L0.958466 65.7828L0.479233 59.0789L0 52.375" stroke="black" stroke-width="0.896205"/>
</g>
<defs>
<clipPath id="clip0_2109_217544">
<rect width="150" height="150" fill="white"/>
</clipPath>
</defs>
</svg>
