<svg width="150" height="150" viewBox="0 0 150 150" fill="none" xmlns="http://www.w3.org/2000/svg">
<g clip-path="url(#clip0_2109_217451)">
<path d="M150 97.625V149.999H29.8076V97.625H150Z" fill="#7F7F7F"/>
<path d="M142.789 97.625V149.999H37.0195V97.625H142.789Z" fill="#999999"/>
<path d="M129.808 97.625V149.999H50V97.625H129.808Z" fill="#B2B2B2"/>
<path d="M117.788 97.625V149.999H62.5V97.625H117.788Z" fill="#CCCCCC"/>
<path d="M107.692 97.625V149.999H72.5957V97.625H107.692Z" fill="#E5E5E5"/>
<path d="M97.5962 97.625V149.999H82.6924V97.625H97.5962Z" fill="white"/>
<path d="M29.8076 97.625V149.999" stroke="black" stroke-width="0.897641"/>
<path d="M150 149.999V97.625" stroke="black" stroke-width="0.897641"/>
<path d="M29.8076 97.6272L134.135 45.6719L137.981 51.5378L140.865 57.8227L143.75 64.1076L146.154 70.8115L147.596 77.5154L149.038 84.2194L149.519 90.9233L150 97.6272H29.8076Z" fill="#7F7F7F"/>
<path d="M29.8076 97.6239L127.885 48.6016L131.25 54.0485L134.135 59.9144L137.019 66.1993L138.942 72.4842L140.385 78.7692L141.827 85.0541L142.308 91.339L142.788 97.6239H29.8076Z" fill="#999999"/>
<path d="M29.8076 97.6223L116.827 54.0469L119.711 59.0748L122.596 64.1027L125 69.5497L126.923 74.9966L128.365 80.8625L129.327 86.3094L130.288 92.1754V97.6223H29.8076Z" fill="#B2B2B2"/>
<path d="M29.8076 97.6285L105.769 59.5L108.654 63.6899L111.058 68.2989L112.981 72.9078L114.904 77.9358L115.865 82.9637L116.827 87.5726L117.788 92.6006V97.6285H29.8076Z" fill="#CCCCCC"/>
<path d="M29.8076 97.6289L97.1153 64.1094L99.5192 67.8803L101.442 72.0703L103.365 76.2602L104.808 80.4502L106.25 84.6401L107.211 88.83L107.692 93.439V97.6289H29.8076Z" fill="#E5E5E5"/>
<path d="M29.8076 97.6265L88.4615 68.2969L90.3845 71.6488L92.3076 75.0008L93.7499 78.7717L95.1922 82.5427L96.1538 86.3136L97.1153 90.0846L97.5961 93.8555V97.6265H29.8076Z" fill="white"/>
<path d="M29.8076 97.6257L75.4807 75L77.4038 77.514L78.8461 80.4469L79.8076 82.9609L80.7692 85.8939L81.7307 88.8268L82.2115 91.7598L82.6922 94.6927V97.6257H29.8076Z" fill="#E5E5E5"/>
<path d="M29.8076 97.6233L66.8268 79.1875L68.2692 81.2825L69.2307 83.3774L70.1922 85.8914L71.1538 87.9864L71.6345 90.5003L72.1153 93.0143L72.5961 95.1093V97.6233H29.8076Z" fill="#CCCCCC"/>
<path d="M29.8076 97.6237L58.173 83.7969L59.1345 85.4729L60.0961 87.1488L60.5768 88.8248L61.5384 90.5008L62.0192 92.1768V94.2717L62.4999 95.9477V97.6237H29.8076Z" fill="#B2B2B2"/>
<path d="M29.8076 97.6221L47.5961 89.2422L48.5576 91.3372L49.5192 93.4321L49.9999 95.5271V97.6221H29.8076Z" fill="#999999"/>
<path d="M29.8076 97.6283L36.5384 94.6953L37.0192 95.5333V95.9523L37.4999 96.7903V97.6283H29.8076Z" fill="#7F7F7F"/>
<path d="M104.327 0L134.135 45.2514L29.8077 98.0447L0 52.3743L104.327 0Z" fill="#7F7F7F"/>
<path d="M97.5962 3.35156L127.885 48.603L36.5385 94.6923L6.25 49.4409L97.5962 3.35156Z" fill="#999999"/>
<path d="M86.5384 8.79688L116.827 54.0483L47.1153 89.2438L17.3076 43.9924L86.5384 8.79688Z" fill="#B2B2B2"/>
<path d="M75.9617 14.2422L105.769 59.4936L58.1732 83.7953L27.8848 38.5439L75.9617 14.2422Z" fill="#CCCCCC"/>
<path d="M67.308 18.4375L97.5965 63.6889L66.8272 79.1917L37.0195 33.9403L67.308 18.4375Z" fill="#E5E5E5"/>
<path d="M58.6536 23.0469L88.4613 68.2983L75.9613 75.0022L45.6729 29.3318L58.6536 23.0469Z" fill="white"/>
<path d="M0 52.375L29.8077 98.0454" stroke="black" stroke-width="0.897641"/>
<path d="M134.135 45.2514L104.327 0" stroke="black" stroke-width="0.897641"/>
<path d="M134.135 45.6719L137.981 51.5378L140.866 57.8227L143.75 64.1076L146.154 70.8115L147.596 77.5154L149.039 84.2194L149.519 90.9233L150 97.6272" stroke="black" stroke-width="0.897641"/>
</g>
<defs>
<clipPath id="clip0_2109_217451">
<rect width="150" height="150" fill="white"/>
</clipPath>
</defs>
</svg>
