<svg width="150" height="150" viewBox="0 0 150 150" fill="none" xmlns="http://www.w3.org/2000/svg">
<g clip-path="url(#clip0_2109_216796)">
<path d="M62.4 0H0V75H62.4L67.2 75.9L71.4 78.6L74.1 82.8L75 87.6V150H150V87.6L149.4 78.6L148.2 69.9L146.1 61.5L143.1 53.4L139.5 45.9L135 38.7L129.9 31.8L124.2 25.8L118.2 20.1L111.3 15L104.1 10.5L96.6 6.9L88.5 3.9L80.1 1.8L71.4 0.6L62.4 0Z" fill="#7F7F7F"/>
<path d="M145.2 87.5969L144.9 79.1969L143.4 70.7969L141.6 62.9969L138.6 55.1969L135.3 47.9969L131.1 41.0969L126.3 34.7969L120.9 29.0969L115.2 23.6969L108.9 18.8969L102 14.6969L94.8 11.3969L87 8.39687L79.2 6.59687L70.8 5.09687L62.4 4.79688H0V70.1969H62.4L69.3 71.6969L74.7 75.2969L78.3 80.6969L79.8 87.5969V149.997H145.2V87.5969Z" fill="#999999"/>
<path d="M137.4 87.6016V150.002H87.6V87.6016L87 82.5016L85.5 77.7016L83.4 73.5016L80.1 69.9016L76.5 66.6016L72.3 64.5016L67.5 63.0016L62.4 62.4016H0V12.6016H62.4L70.2 12.9016L77.4 14.1016L84.6 15.9016L91.5 18.6016L98.1 21.6016L104.4 25.5016L110.1 29.7016L115.5 34.5016L120.3 39.9016L124.5 45.6016L128.4 51.9016L131.4 58.5016L134.1 65.4016L135.9 72.6016L137.1 79.8016L137.4 87.6016Z" fill="#B2B2B2"/>
<path d="M129.6 87.5984L129.3 80.6984L128.1 74.0984L126.6 67.4984L124.2 61.4984L121.5 55.4984L118.2 50.0984L114.3 44.6984L110.1 39.8984L105.3 35.6984L99.9 31.7984L94.5 28.4984L88.5 25.7984L82.5 23.3984L75.9 21.8984L69.3 20.6984L62.4 20.3984H0V54.5984H62.4L69 55.1984L75.3 57.2984L81 60.2984L85.8 64.1984L89.7 68.9984L92.7 74.6984L94.8 80.9984L95.4 87.5984V149.998H129.6V87.5984Z" fill="#CCCCCC"/>
<path d="M123.6 87.6031V150.003H101.7V87.6031L100.8 79.8031L98.7 72.3031L95.1 65.7031L90.3 60.0031L84.3 55.2031L77.7 51.6031L70.2 49.5031L62.4 48.6031H0V26.7031H62.4L68.7 27.0031L74.7 27.9031L80.7 29.4031L86.4 31.5031L91.5 34.2031L96.6 37.2031L101.4 40.5031L105.6 44.4031L109.8 48.9031L113.1 53.7031L116.1 58.5031L118.8 63.9031L120.9 69.6031L122.4 75.3031L123.3 81.3031L123.6 87.6031Z" fill="#E5E5E5"/>
<path d="M117.3 87.6031L117 81.9031L116.1 76.5031L114.9 71.4031L113.1 66.3031L110.7 61.5031L108 57.0031L104.7 52.8031L101.1 48.9031L97.2 45.3031L93 42.0031L88.5 39.3031L83.7 36.9031L78.6 35.1031L73.5 33.9031L68.1 33.0031L62.4 32.7031H0V42.3031H62.4L71.7 43.2031L80.1 45.9031L87.9 50.1031L94.5 55.5031L99.9 62.1031L104.1 69.9031L106.8 78.3031L107.7 87.6031V150.003H117.3V87.6031Z" fill="white"/>
<path d="M150 150V87.6L149.4 78.6L148.2 69.9L146.1 61.5L143.1 53.4L139.5 45.9L135 38.7L129.9 31.8L124.2 25.8L118.2 20.1L111.3 15L104.1 10.5L96.6 6.9L88.5 3.9L80.1 1.8L71.4 0.6L62.4 0H0" stroke="black" stroke-width="0.6"/>
<path d="M0 75H62.4L64.8 75.3L67.2 75.9L69.3 77.1L71.4 78.6L72.9 80.7L74.1 82.8L74.7 85.2L75 87.6V150" stroke="black" stroke-width="0.6"/>
</g>
<defs>
<clipPath id="clip0_2109_216796">
<rect width="150" height="150" fill="white"/>
</clipPath>
</defs>
</svg>
