<svg width="150" height="150" viewBox="0 0 150 150" fill="none" xmlns="http://www.w3.org/2000/svg">
<g clip-path="url(#clip0_2109_217854)">
<path d="M46.3351 150H0V45.1328H46.3351V150Z" fill="#7F7F7F"/>
<path d="M46.3351 143.366H0V51.7734H46.3351V143.366Z" fill="#999999"/>
<path d="M46.3351 132.297H0V62.8281H46.3351V132.297Z" fill="#B2B2B2"/>
<path d="M46.3351 121.683H0V73.4531H46.3351V121.683Z" fill="#CCCCCC"/>
<path d="M46.3351 113.278H0V82.3047H46.3351V113.278Z" fill="#E5E5E5"/>
<path d="M46.3351 103.98H0V91.1484H46.3351V103.98Z" fill="white"/>
<path d="M46.3351 45.1328H0" stroke="black" stroke-width="0.833661"/>
<path d="M0 150H46.3351" stroke="black" stroke-width="0.833661"/>
<path d="M46.335 45.5781L126.832 97.7905L123.691 103.543L120.157 109.295L116.23 114.605L111.911 119.472L107.592 123.897L102.879 128.321L98.1674 132.304L93.0627 135.844L87.5653 138.941L82.0679 142.038L76.5706 144.251L70.6805 146.463L64.7905 147.791L58.5077 149.118L52.6177 149.56L46.335 150.003V45.5781Z" fill="#7F7F7F"/>
<path d="M46.335 45.5781L121.728 94.2507L118.586 99.5604L115.445 104.87L111.911 109.737L107.984 114.605L104.057 119.029L99.3454 123.012L95.0261 126.552L89.9213 130.091L85.2093 133.189L79.7119 135.844L74.6072 138.056L69.1098 139.826L63.6124 141.596L57.7224 142.481L52.225 143.366H46.335V45.5781Z" fill="#999999"/>
<path d="M46.335 45.5781L113.482 88.941L110.733 93.8082L107.984 98.233L104.843 102.658L101.309 107.083L97.3821 111.065L93.4554 114.605L89.5287 117.702L85.2093 120.799L80.8899 123.454L76.1779 125.667L71.4659 127.879L66.3611 129.649L61.6491 130.976L56.5444 131.861L51.4397 132.746H46.335V45.5781Z" fill="#B2B2B2"/>
<path d="M46.335 45.5781L105.235 83.6312L100.131 92.0383L94.6334 99.118L87.958 105.755L80.4973 111.065L72.6439 115.49L64.0051 119.029L55.3664 120.799L46.335 121.684V45.5781Z" fill="#CCCCCC"/>
<path d="M46.335 45.5781L98.5601 79.2064L94.2407 86.7286L89.136 93.3657L83.246 99.118L76.5706 103.985L69.5025 107.525L62.0418 110.622L54.1884 112.392L46.335 112.835V45.5781Z" fill="#E5E5E5"/>
<path d="M46.335 45.5781L91.8847 74.7817L87.958 81.4188L83.6386 87.171L78.1412 92.0383L72.6439 96.4631L66.3611 100.003L60.0784 102.215L53.403 103.985L46.335 104.428V45.5781Z" fill="white"/>
<path d="M46.335 45.5781L81.6753 68.1445L78.5339 73.0118L75.3926 77.879L71.0732 81.8613L66.7538 84.9587L62.0418 87.6135L56.9371 89.3834L51.8323 90.7109L46.335 91.1533V45.5781Z" fill="#E5E5E5"/>
<path d="M46.335 45.5781L74.9999 64.1622L72.6439 68.1445L69.5025 71.6843L66.3611 74.7817L62.8271 77.4365L58.9004 79.6489L54.9737 80.9764L50.6543 81.8613L46.335 82.3038V45.5781Z" fill="#CCCCCC"/>
<path d="M46.335 45.5781L68.3245 59.7374L66.3611 62.8348L64.3978 65.4896L62.0418 67.702L59.2931 69.9144L56.1517 71.6843L53.0104 73.0118L49.869 73.4542L46.335 73.8967V45.5781Z" fill="#B2B2B2"/>
<path d="M46.335 45.5781L60.0784 53.9852L58.9004 55.7551L57.7224 57.525L56.1517 59.2949L54.1884 60.1799L52.225 61.5073L50.2617 62.3923L48.2983 62.8348H46.335V45.5781Z" fill="#999999"/>
<path d="M126.832 97.7891L123.691 103.541L120.157 109.293L116.23 114.603L111.911 119.47L107.592 123.895L102.879 128.32L98.1674 132.302L93.0627 135.842L87.5653 138.94L82.0679 142.037L76.5706 144.249L70.6805 146.462L64.7905 147.789L58.5077 149.116L52.6177 149.559L46.335 150.001" stroke="black" stroke-width="0.833661"/>
<path d="M46.335 45.5781L51.4397 48.6755L50.6543 50.0029L49.4763 51.3303L47.9056 51.7728L46.335 52.2153V45.5781Z" fill="#7F7F7F"/>
<path d="M150 52.6549L126.832 97.7876L46.335 45.5752L69.5025 0L150 52.6549Z" fill="#7F7F7F"/>
<path d="M145.288 49.1114L121.728 94.6867L51.0469 48.669L74.6071 3.09375L145.288 49.1114Z" fill="#999999"/>
<path d="M136.649 43.8073L113.089 88.9401L59.6855 53.9843L82.8531 8.85156L136.649 43.8073Z" fill="#B2B2B2"/>
<path d="M128.403 38.0501L105.235 83.6253L67.9316 59.289L91.0992 14.1562L128.403 38.0501Z" fill="#CCCCCC"/>
<path d="M121.728 34.0727L98.5602 79.2054L75 63.7187L98.1675 18.5859L121.728 34.0727Z" fill="#E5E5E5"/>
<path d="M114.66 29.645L91.4925 74.7777L81.6758 68.1406L104.843 23.0078L114.66 29.645Z" fill="white"/>
<path d="M69.5025 0L46.335 45.5752" stroke="black" stroke-width="0.833661"/>
<path d="M126.832 97.789L150 52.6562" stroke="black" stroke-width="0.833661"/>
</g>
<defs>
<clipPath id="clip0_2109_217854">
<rect width="150" height="150" fill="white"/>
</clipPath>
</defs>
</svg>
