<svg width="150" height="150" viewBox="0 0 150 150" fill="none" xmlns="http://www.w3.org/2000/svg">
<g clip-path="url(#clip0_2109_217127)">
<path d="M37.0482 31.1969L0 28.1969V9.29687L37.0482 6.29688V31.1969Z" fill="#7F7F7F" stroke="black" stroke-width="1.04132"/>
<path d="M37.0482 87.6031L0 84.6031V65.7031L37.0482 62.7031V87.6031Z" fill="#7F7F7F" stroke="black" stroke-width="1.04132"/>
<path d="M37.0482 143.697L0 140.697V122.097L37.0482 118.797V143.697Z" fill="#7F7F7F" stroke="black" stroke-width="1.04132"/>
<path d="M37.0479 0H150V150H37.0479V0Z" fill="#7F7F7F"/>
<path d="M37.0479 9.29688H150V140.997H37.0479V9.29688Z" fill="#999999"/>
<path d="M37.0479 25.5H150V125.1H37.0479V25.5Z" fill="#B2B2B2"/>
<path d="M37.0479 40.7969H150V109.497H37.0479V40.7969Z" fill="#CCCCCC"/>
<path d="M37.0479 52.7969H150V96.8969H37.0479V52.7969Z" fill="#E5E5E5"/>
<path d="M37.0479 66H150V84.3H37.0479V66Z" fill="white"/>
<path d="M37.0479 0H150V150H37.0479V0Z" stroke="black" stroke-width="1.04132"/>
<path d="M37.0482 26.6969L0 24.8969V9.29687L37.0482 6.29688V26.6969Z" fill="#B2B2B2" stroke="black" stroke-width="1.04132"/>
<path d="M37.0482 82.8031L0 81.3031V65.7031L37.0482 62.7031V82.8031Z" fill="#B2B2B2" stroke="black" stroke-width="1.04132"/>
<path d="M37.0482 139.197L0 137.697V122.097L37.0482 118.797V139.197Z" fill="#B2B2B2" stroke="black" stroke-width="1.04132"/>
<path d="M0 12.5969V9.29688L37.0482 6.29688V11.0969L0 12.5969Z" fill="#E5E5E5" stroke="black" stroke-width="1.04132"/>
<path d="M0 68.7031V65.7031L37.0482 62.7031V67.2031L0 68.7031Z" fill="#E5E5E5" stroke="black" stroke-width="1.04132"/>
<path d="M0 125.097V122.097L37.0482 118.797V123.597L0 125.097Z" fill="#E5E5E5" stroke="black" stroke-width="1.04132"/>
</g>
<defs>
<clipPath id="clip0_2109_217127">
<rect width="150" height="150" fill="white"/>
</clipPath>
</defs>
</svg>
