<svg width="150" height="100" viewBox="0 0 150 100" fill="none" xmlns="http://www.w3.org/2000/svg">
<g clip-path="url(#clip0_2109_218170)">
<path d="M136.787 100L0 22.3043L13.0631 0L150 77.548L136.787 100Z" fill="#7F7F7F"/>
<path d="M137.688 98.817L0.750977 20.8259L12.1624 1.32812L149.099 79.0238L137.688 98.817Z" fill="#999999"/>
<path d="M139.189 96.4575L1.95215 18.4664L10.9612 3.69531L147.898 81.391L139.189 96.4575Z" fill="#B2B2B2"/>
<path d="M140.39 94.0901L3.45312 16.099L9.45913 6.05469L146.396 83.7504L140.39 94.0901Z" fill="#CCCCCC"/>
<path d="M141.592 92.3185L4.35449 14.3274L8.2584 7.82812L145.195 85.5238L141.592 92.3185Z" fill="#E5E5E5"/>
<path d="M142.493 90.2515L5.55566 12.5558L7.35747 9.60156L144.294 87.5927L142.493 90.2515Z" fill="white"/>
<path d="M150 77.548L13.0635 0" stroke="black" stroke-width="0.364791"/>
<path d="M0 22.3047L136.787 100" stroke="black" stroke-width="0.364791"/>
</g>
<defs>
<clipPath id="clip0_2109_218170">
<rect width="150" height="100" fill="white"/>
</clipPath>
</defs>
</svg>
