<svg width="150" height="150" viewBox="0 0 150 150" fill="none" xmlns="http://www.w3.org/2000/svg">
<g clip-path="url(#clip0_2109_217823)">
<path d="M103.665 150H150V45.1328H103.665V150Z" fill="#7F7F7F"/>
<path d="M103.665 143.366H150V51.7734H103.665V143.366Z" fill="#999999"/>
<path d="M103.665 132.297H150V62.8281H103.665V132.297Z" fill="#B2B2B2"/>
<path d="M103.665 121.683H150V73.4531H103.665V121.683Z" fill="#CCCCCC"/>
<path d="M103.665 113.278H150V82.3047H103.665V113.278Z" fill="#E5E5E5"/>
<path d="M103.665 103.98H150V91.1484H103.665V103.98Z" fill="white"/>
<path d="M103.665 45.1328H150" stroke="black" stroke-width="0.833661"/>
<path d="M150 150H103.665" stroke="black" stroke-width="0.833661"/>
<path d="M103.665 45.5781L23.168 97.7905L26.3093 103.543L29.8434 109.295L33.7701 114.605L38.0894 119.472L42.4088 123.897L47.1208 128.321L51.8329 132.304L56.9376 135.844L62.435 138.941L67.9324 142.038L73.4297 144.251L79.3198 146.463L85.2099 147.791L91.4926 149.118L97.3826 149.56L103.665 150.003V45.5781Z" fill="#7F7F7F"/>
<path d="M103.665 45.5781L28.2725 94.2507L31.4138 99.5604L34.5552 104.87L38.0892 109.737L42.0159 114.605L46.3353 119.029L50.6547 123.012L55.3667 126.552L60.0787 130.091L65.1835 133.189L70.2882 135.844L75.3929 138.056L80.8903 139.826L86.3876 141.596L92.2777 142.481L97.7751 143.366H103.665V45.5781Z" fill="#999999"/>
<path d="M103.665 45.5781L36.5186 88.941L39.2672 93.8082L42.4086 98.233L45.55 102.658L49.084 107.083L52.618 111.065L56.5447 114.605L60.4714 117.702L64.7908 120.799L69.5028 123.454L73.8222 125.667L78.5343 127.879L83.639 129.649L88.351 130.976L93.4557 131.861L98.5604 132.746H103.665V45.5781Z" fill="#B2B2B2"/>
<path d="M103.665 45.5781L44.7646 83.6312L49.8694 92.0383L55.7594 99.118L62.4348 105.755L69.5029 111.065L77.3563 115.49L85.995 119.029L94.6338 120.799L103.665 121.684V45.5781Z" fill="#CCCCCC"/>
<path d="M103.665 45.5781L51.4395 79.2064L55.7588 86.7286L60.8635 93.3657L66.7536 99.118L73.429 103.985L80.497 107.525L87.9578 110.622L95.8112 112.392L103.665 112.835V45.5781Z" fill="#E5E5E5"/>
<path d="M103.665 45.5781L58.1152 74.7817L62.0419 81.4188L66.754 87.171L71.8587 92.0383L77.3561 96.4631L83.6388 100.003L89.9215 102.215L96.5969 103.985L103.665 104.428V45.5781Z" fill="white"/>
<path d="M103.665 45.5781L68.3242 68.1445L71.4656 73.0118L74.6069 77.879L78.9263 81.8613L83.2457 84.9587L87.9577 87.6135L93.0624 89.3834L98.1672 90.7109L103.665 91.1533V45.5781Z" fill="#E5E5E5"/>
<path d="M103.665 45.5781L75 64.1622L77.356 68.1445L80.4974 71.6843L83.6387 74.7817L87.1728 77.4365L91.0995 79.6489L95.0262 80.9764L99.3456 81.8613L103.665 82.3038V45.5781Z" fill="#CCCCCC"/>
<path d="M103.665 45.5781L81.6758 59.7374L83.6391 62.8348L85.9952 65.4896L88.3512 67.702L91.0999 69.9144L93.8486 71.6843L96.9899 73.0118L100.131 73.4542L103.665 73.8967V45.5781Z" fill="#B2B2B2"/>
<path d="M103.665 45.5781L90.3145 53.9852L91.4925 55.7551L92.6705 57.525L94.2412 59.2949L95.8118 60.1799L97.7752 61.5073L99.7385 62.3923L101.702 62.8348H103.665V45.5781Z" fill="#999999"/>
<path d="M23.168 97.7891L26.3093 103.541L29.8434 109.293L33.7701 114.603L38.0894 119.47L42.4088 123.895L47.1208 128.32L51.8329 132.302L56.9376 135.842L62.435 138.94L67.9324 142.037L73.4297 144.249L79.3198 146.462L85.2099 147.789L91.4926 149.116L97.3826 149.559L103.665 150.001" stroke="black" stroke-width="0.833661"/>
<path d="M103.665 45.5781L98.5605 48.6755L99.3459 50.0029L100.524 51.3303L102.095 51.7728L103.665 52.2153V45.5781Z" fill="#7F7F7F"/>
<path d="M0 52.6549L23.1675 97.7876L103.665 45.5752L80.4974 0L0 52.6549Z" fill="#7F7F7F"/>
<path d="M5.10449 49.1114L28.272 94.6867L98.9527 48.669L75.7851 3.09375L5.10449 49.1114Z" fill="#999999"/>
<path d="M13.7432 43.8073L36.9107 88.9401L90.3138 53.9843L67.1463 8.85156L13.7432 43.8073Z" fill="#B2B2B2"/>
<path d="M21.5967 38.0501L45.1569 83.6253L82.0679 59.289L58.9003 14.1562L21.5967 38.0501Z" fill="#CCCCCC"/>
<path d="M28.2725 34.0727L51.44 79.2054L75.0002 63.7187L51.8327 18.5859L28.2725 34.0727Z" fill="#E5E5E5"/>
<path d="M35.3398 29.645L58.5074 74.7777L68.3241 68.1406L45.1566 23.0078L35.3398 29.645Z" fill="white"/>
<path d="M80.4971 0L103.665 45.5752" stroke="black" stroke-width="0.833661"/>
<path d="M23.1675 97.789L0 52.6562" stroke="black" stroke-width="0.833661"/>
</g>
<defs>
<clipPath id="clip0_2109_217823">
<rect width="150" height="150" fill="white"/>
</clipPath>
</defs>
</svg>
