<svg width="150" height="150" viewBox="0 0 150 150" fill="none" xmlns="http://www.w3.org/2000/svg">
<g clip-path="url(#clip0_2109_217389)">
<path d="M97.626 0H150V120.192H97.626V0Z" fill="#7F7F7F"/>
<path d="M97.626 7.21094H150V112.98H97.626V7.21094Z" fill="#999999"/>
<path d="M97.626 20.1953H150V100.484H97.626V20.1953Z" fill="#B2B2B2"/>
<path d="M97.626 32.6953H150V87.9838H97.626V32.6953Z" fill="#CCCCCC"/>
<path d="M97.626 42.3047H150V77.4008H97.626V42.3047Z" fill="#E5E5E5"/>
<path d="M97.626 52.8828H150V67.3059H97.626V52.8828Z" fill="white"/>
<path d="M97.626 120.195H150" stroke="black" stroke-width="0.897641"/>
<path d="M150 0H97.626" stroke="black" stroke-width="0.897641"/>
<path d="M97.6253 120.192L45.251 15.8654L51.1169 12.0192L57.4018 9.13461L63.6867 6.25L70.3906 3.84615L77.0946 2.40385L84.2175 0.961538L90.9214 0.480769L97.6253 0V120.192Z" fill="#7F7F7F"/>
<path d="M97.6259 120.192L48.6035 22.1148L54.0504 18.7494L59.9164 15.8648L66.2013 12.9802L72.4862 11.0571L78.7711 9.61478L85.056 8.17248L91.3409 7.69171L97.6259 7.21094V120.192Z" fill="#999999"/>
<path d="M97.6252 120.192L54.0498 33.1725L59.0777 30.2879L64.1057 27.4032L69.5526 24.9994L74.9995 23.0763L80.4465 21.634L86.3124 20.6725L91.7593 19.7109H97.6252V120.192Z" fill="#B2B2B2"/>
<path d="M97.6256 120.192L59.4971 44.2302L63.687 41.3456L68.296 38.9417L72.9049 37.0186L77.9328 35.0956L82.9608 34.134L87.9887 33.1725L92.5976 32.2109H97.6256V120.192Z" fill="#CCCCCC"/>
<path d="M97.626 120.189L63.6875 52.8816L67.4584 50.4778L71.6484 48.5547L75.8383 46.6316L80.0283 45.1893L84.2182 43.747L88.8272 42.7855L93.0171 42.3047H97.626V120.189Z" fill="#E5E5E5"/>
<path d="M97.6255 120.195L68.2959 61.5409L71.6479 59.6178L74.9998 57.6947L78.7708 56.2524L82.5417 54.8101L86.3127 53.8486L90.0836 52.887L93.8546 52.4062H97.6255V120.195Z" fill="white"/>
<path d="M97.6257 120.189L74.5811 74.5162L77.095 72.5931L80.028 71.1508L82.9609 70.1893L85.8939 69.2278L88.8269 68.2662L91.7598 67.7855L94.6928 67.3047H97.6257V120.189Z" fill="#E5E5E5"/>
<path d="M97.6252 120.195L79.1895 83.1755L81.2844 81.7332L83.3794 80.7716L85.8934 79.8101L87.9883 78.8486L90.5023 78.3678L93.0163 77.887L95.1112 77.4062H97.6252V120.195Z" fill="#CCCCCC"/>
<path d="M97.6257 120.192L83.3799 91.8269L85.0559 90.8654L86.7318 89.9038L88.4078 89.4231L90.0838 88.4615L92.1788 87.9808H93.8547L95.9497 87.5H97.6257V120.192Z" fill="#B2B2B2"/>
<path d="M97.626 120.192L88.8271 102.885L90.9221 101.442L93.0171 100.481L95.5311 100H97.626V120.192Z" fill="#999999"/>
<path d="M97.6254 120.192L94.2734 113.462L95.1114 112.981H95.9494L96.7874 112.5H97.6254V120.192Z" fill="#7F7F7F"/>
<path d="M0 45.6749L45.2514 15.8672L97.6257 120.194L52.3743 150.002L0 45.6749Z" fill="#7F7F7F"/>
<path d="M2.93262 52.4056L48.603 22.1172L94.6924 113.944L49.022 143.752L2.93262 52.4056Z" fill="#999999"/>
<path d="M8.79883 63.4603L54.0502 33.1719L88.8268 102.883L43.5754 132.691L8.79883 63.4603Z" fill="#B2B2B2"/>
<path d="M14.2461 74.0421L59.4975 44.2344L83.3802 91.8305L38.1288 122.119L14.2461 74.0421Z" fill="#CCCCCC"/>
<path d="M18.4355 82.6947L63.6869 52.4062L79.1897 83.1755L33.9383 113.464L18.4355 82.6947Z" fill="#E5E5E5"/>
<path d="M23.0449 91.8275L68.2963 61.5391L74.5812 74.5198L29.3298 104.328L23.0449 91.8275Z" fill="white"/>
<path d="M52.374 150.003L97.6254 120.195" stroke="black" stroke-width="0.897641"/>
<path d="M45.2514 15.8672L0 45.6749" stroke="black" stroke-width="0.897641"/>
<path d="M45.251 15.8654L51.1169 12.0192L57.4018 9.13462L63.6867 6.25L70.3906 3.84615L77.0946 2.40385L84.2175 0.961538L90.9214 0.480769L97.6253 0" stroke="black" stroke-width="0.897641"/>
</g>
<defs>
<clipPath id="clip0_2109_217389">
<rect width="150" height="150" fill="white"/>
</clipPath>
</defs>
</svg>
