<svg width="150" height="150" viewBox="0 0 150 150" fill="none" xmlns="http://www.w3.org/2000/svg">
<g clip-path="url(#clip0_2109_217283)">
<path d="M150 150L149.7 134.4L148.5 120L146.7 105.6L144 91.8L141 78.6L137.1 66L132.9 54.6L128.1 43.8L122.7 34.2L117 25.8L110.7 18L104.1 12L97.2 6.6L90 3L82.8 0.6L75 0L67.2 0.6L60 3L52.8 6.6L45.9 12L39.3 18L33 25.8L27.3 34.2L21.9 43.8L17.1 54.6L12.9 66L9 78.6L6 91.8L3.3 105.6L1.5 120L0.3 134.4L0 150H64.2L65.1 141.6L67.5 134.4L70.8 129.6L75 127.8L79.2 129.6L82.8 134.4L85.2 141.6L86.1 150H150Z" fill="#7F7F7F"/>
<path d="M146.1 149.997L145.8 135.597L144.6 121.197L142.8 107.397L140.4 94.7969L137.4 82.1969L134.1 70.1969L129.9 59.3969L125.4 49.1969L120.3 40.1969L114.9 31.7969L108.9 25.1969L102.6 19.1969L96.3004 14.3969L89.4004 10.7969L82.2004 8.39687L75.0004 7.79688L67.8004 8.39687L60.6004 10.7969L54.0004 14.3969L47.4004 19.1969L41.1004 25.1969L35.4004 31.7969L30.0004 40.1969L24.9004 49.1969L20.1004 59.3969L16.2004 70.1969L12.6004 82.1969L9.60039 94.7969L7.20039 107.397L5.40039 121.197L4.20039 135.597L3.90039 149.997H60.3004L61.5004 138.597L64.5004 128.997L69.3004 122.397L75.0004 119.997L81.0004 122.397L85.8004 128.997L88.8004 138.597L90.0004 149.997H146.1Z" fill="#999999"/>
<path d="M10.2002 149.998H54.0002L54.3002 141.598L55.8002 133.798L57.6002 126.598L60.3002 119.998L63.3002 115.198L66.9002 110.998L70.8002 108.598L75.0002 107.998L79.2002 108.598L83.4002 110.998L87.0002 115.198L90.0002 119.998L92.7002 126.598L94.5002 133.798L96.0002 141.598L96.3002 149.998H139.8L139.5 136.798L138.6 124.198L136.8 111.598L134.7 99.5984L132 88.1984L128.7 77.3984L125.1 67.7984L120.9 58.1984L116.1 49.7984L111.3 42.5984L105.9 35.9984L100.2 30.5984L94.2002 26.3984L87.9002 22.7984L81.6002 20.9984L75.0002 20.3984L68.4002 20.9984L62.1002 22.7984L55.8002 26.3984L49.8002 30.5984L44.1002 35.9984L38.7002 42.5984L33.9002 49.7984L29.1002 58.1984L24.9002 67.7984L21.3002 77.3984L18.0002 88.1984L15.3002 99.5984L13.2002 111.598L11.4002 124.198L10.5002 136.798L10.2002 149.998Z" fill="#B2B2B2"/>
<path d="M132.9 150.003L132.6 138.003L131.7 126.603L130.2 115.803L128.4 105.003L126 94.8031L123 85.2031L119.7 76.2031L115.8 68.4031L111.9 60.6031L107.4 54.0031L102.6 48.0031L97.4996 43.2031L92.0996 39.6031L86.6996 36.6031L80.9996 34.8031L74.9996 34.2031L68.9996 34.8031L63.2996 36.6031L57.8996 39.6031L52.4996 43.2031L47.3996 48.0031L42.5996 54.0031L38.0996 60.6031L34.1996 68.4031L30.2996 76.2031L26.9996 85.2031L23.9996 94.8031L21.5996 105.003L19.7996 115.803L18.2996 126.603L17.3996 138.003L17.0996 150.003H46.7996L47.3996 138.603L49.1996 127.803L51.5996 118.203L55.1996 109.803L59.3996 103.203L64.1996 97.8031L69.2996 94.8031L74.9996 93.6031L80.6996 94.8031L86.0996 97.8031L90.8996 103.203L95.0996 109.803L98.3996 118.203L101.1 127.803L102.6 138.603L103.2 150.003H132.9Z" fill="#CCCCCC"/>
<path d="M127.5 150H108.6L108 136.2L105.9 123.6L102.9 112.2L98.6998 102.6L93.8998 94.2L88.1998 88.2L81.8998 84L74.9998 82.8L68.3998 84L62.0998 88.2L56.3998 94.2L51.2998 102.6L47.0998 112.2L44.0998 123.6L41.9998 136.2L41.3998 150H22.7998L23.0998 139.2L23.9998 129L25.1998 118.8L26.9998 109.2L29.0998 100.2L31.7998 91.2L34.7998 83.4L38.0998 75.6L41.6998 69L45.8998 63L50.0998 57.6L54.5998 53.4L59.3998 49.8L64.4998 47.4L69.5998 45.6L74.9998 45L80.3998 45.6L85.4998 47.4L90.5998 49.8L95.3998 53.4L99.8998 57.6L104.4 63L108.3 69L112.2 75.6L115.5 83.4L118.5 91.2L121.2 100.2L123.3 109.2L125.1 118.8L126.3 129L127.2 139.2L127.5 150Z" fill="#E5E5E5"/>
<path d="M121.8 149.998H114L113.1 134.398L111 119.398L107.4 106.198L102.6 94.7984L96.9002 85.1984L90.3002 77.9984L82.8002 73.7984L75.0002 71.9984L67.2002 73.7984L60.0002 77.9984L53.4002 85.1984L47.4002 94.7984L42.6002 106.198L39.0002 119.398L36.9002 134.398L36.0002 149.998H28.2002L29.1002 131.398L31.8002 113.398L36.3002 97.7984L42.0002 83.9984L48.9002 72.5984L56.7002 63.5984L65.7002 58.1984L75.0002 56.3984L84.3002 58.1984L93.3002 63.5984L101.1 72.5984L108 83.9984L113.7 97.7984L118.2 113.398L120.9 131.398L121.8 149.998Z" fill="white"/>
<path d="M64.2002 149.997L64.5002 145.797L65.1002 141.597L66.0002 137.997L67.5002 134.397L69.0002 131.397L70.8002 129.597L72.9002 128.397L75.0002 127.797L77.1002 128.397L79.2002 129.597L81.0002 131.397L82.8002 134.397L84.3002 137.997L85.2002 141.597L85.8002 145.797L86.1002 149.997" stroke="black" stroke-width="0.848528"/>
<path d="M150 150L149.7 134.4L148.5 120L146.7 105.6L144 91.8L141 78.6L137.1 66L132.9 54.6L128.1 43.8L122.7 34.2L117 25.8L110.7 18L104.1 12L97.2 6.6L90 3L82.8 0.6L75 0L67.2 0.6L60 3L52.8 6.6L45.9 12L39.3 18L33 25.8L27.3 34.2L21.9 43.8L17.1 54.6L12.9 66L9 78.6L6 91.8L3.3 105.6L1.5 120L0.3 134.4L0 150" stroke="black" stroke-width="0.848528"/>
</g>
<defs>
<clipPath id="clip0_2109_217283">
<rect width="150" height="150" fill="white"/>
</clipPath>
</defs>
</svg>
