<svg width="150" height="150" viewBox="0 0 150 150" fill="none" xmlns="http://www.w3.org/2000/svg">
<g clip-path="url(#clip0_2109_216614)">
<path d="M37.5 0V75H0V150H150V75H112.5V0H37.5Z" fill="#7F7F7F"/>
<path d="M42.3 0V79.8H0V145.2H150V79.8H108V0H42.3Z" fill="#999999"/>
<path d="M50.1 0V87.6H0V137.4H150V87.6H100.2V0H50.1Z" fill="#B2B2B2"/>
<path d="M57.9 0V95.4H0V129.6H150V95.4H92.4V0H57.9Z" fill="#CCCCCC"/>
<path d="M64.2 0V101.7H0V123.6H150V101.7H87.6V0H64.2Z" fill="#E5E5E5"/>
<path d="M70.5 0V107.7H0V117.3H150V107.7H79.8V0H70.5Z" fill="white"/>
<path d="M37.5 0V75H0" stroke="black" stroke-width="0.6"/>
<path d="M112.5 0V75H150" stroke="black" stroke-width="0.6"/>
<path d="M150 150H0" stroke="black" stroke-width="0.6"/>
</g>
<defs>
<clipPath id="clip0_2109_216614">
<rect width="150" height="150" fill="white"/>
</clipPath>
</defs>
</svg>
