<svg width="150" height="150" viewBox="0 0 150 150" fill="none" xmlns="http://www.w3.org/2000/svg">
<g clip-path="url(#clip0_2109_217513)">
<path d="M150 52.3743V0H29.7129V52.3743H150Z" fill="#7F7F7F"/>
<path d="M142.332 52.3743V0H37.3799V52.3743H142.332Z" fill="#999999"/>
<path d="M129.872 52.3743V0H49.8398V52.3743H129.872Z" fill="#B2B2B2"/>
<path d="M117.413 52.3743V0H62.3008V52.3743H117.413Z" fill="#CCCCCC"/>
<path d="M107.828 52.3743V0H72.3643V52.3743H107.828Z" fill="#E5E5E5"/>
<path d="M97.284 52.3743V0H82.4277V52.3743H97.284Z" fill="white"/>
<path d="M29.7129 52.3743V0" stroke="black" stroke-width="0.896205"/>
<path d="M150 0V52.3743" stroke="black" stroke-width="0.896205"/>
<path d="M30.1914 52.375L134.185 104.749L137.54 98.8834L140.894 92.5985L143.77 86.3135L145.687 79.6096L147.604 72.9057L149.041 65.7828L149.52 59.0789L150 52.375H30.1914Z" fill="#7F7F7F"/>
<path d="M30.1914 52.375L127.476 101.397L130.83 95.9504L133.706 90.0845L136.581 83.7996L138.498 77.5147L139.936 71.2297L141.374 64.9448L141.853 58.6599L142.332 52.375H30.1914Z" fill="#999999"/>
<path d="M30.1914 52.375L116.933 95.9504L119.808 90.9225L122.204 85.8946L124.6 80.4476L126.517 75.0007L127.955 69.5538L128.913 63.6878L129.872 58.2409V52.375H30.1914Z" fill="#B2B2B2"/>
<path d="M30.1914 52.375L105.91 90.5035L108.786 86.3135L111.182 81.7046L113.099 77.0957L114.536 72.0677L115.974 67.0398L116.933 62.0119L117.412 57.4029V52.375H30.1914Z" fill="#CCCCCC"/>
<path d="M30.1914 52.375L97.2841 85.8946L99.6802 82.1236L101.597 77.9337L103.514 74.1627L104.952 69.5538L105.91 65.3638L106.869 61.1739L107.348 56.5649V52.375H30.1914Z" fill="#E5E5E5"/>
<path d="M30.1914 52.375L88.6579 81.7046L90.5748 78.3527L92.4917 75.0007L93.9294 71.2297L95.3671 67.4588L96.3256 63.6878L97.2841 59.9169L97.7633 56.1459V52.375H30.1914Z" fill="white"/>
<path d="M30.1914 52.375L75.7186 75.0007L77.1563 72.4867L78.594 69.5538L79.5524 67.0398L80.5109 64.1068L81.4694 61.1739L81.9486 58.2409L82.4278 55.308V52.375H30.1914Z" fill="#E5E5E5"/>
<path d="M30.1914 52.375L67.0924 70.8108L68.0508 68.7158L69.4885 66.6208L70.447 64.1068L70.9262 62.0119L71.4055 59.4979L71.8847 56.9839L72.3639 54.889V52.375H30.1914Z" fill="#CCCCCC"/>
<path d="M30.1914 52.375L58.4662 66.6208L59.4246 64.9448L59.9039 63.2689L60.8623 61.5929L61.3416 59.4979L61.8208 57.8219V56.1459L62.3 54.051V52.375H30.1914Z" fill="#B2B2B2"/>
<path d="M30.1914 52.375L47.4438 61.1739L48.4023 59.0789L49.3607 56.5649L49.84 54.47V52.375H30.1914Z" fill="#999999"/>
<path d="M30.1914 52.375L36.4214 55.727L36.9007 54.889L37.3799 54.051V53.213V52.375H30.1914Z" fill="#7F7F7F"/>
<path d="M103.994 150.001L134.185 104.749L30.1917 52.375L0 97.6264L103.994 150.001Z" fill="#7F7F7F"/>
<path d="M97.764 146.645L127.476 101.394L36.4222 55.3047L6.23047 100.975L97.764 146.645Z" fill="#999999"/>
<path d="M86.7408 141.205L116.453 95.9533L47.4436 60.7578L17.252 106.428L86.7408 141.205Z" fill="#B2B2B2"/>
<path d="M75.7185 135.756L105.91 90.5048L57.9869 66.2031L28.2744 111.874L75.7185 135.756Z" fill="#CCCCCC"/>
<path d="M67.5723 131.567L97.2848 86.3153L67.0931 70.8125L36.9014 116.064L67.5723 131.567Z" fill="#E5E5E5"/>
<path d="M58.4666 126.958L88.6583 81.7068L75.719 75.4219L45.5273 120.673L58.4666 126.958Z" fill="white"/>
<path d="M0 97.6264L30.1917 52.375" stroke="black" stroke-width="0.896205"/>
<path d="M134.185 104.75L103.993 150.001" stroke="black" stroke-width="0.896205"/>
<path d="M134.186 104.749L137.54 98.8834L140.895 92.5985L143.77 86.3135L145.687 79.6096L147.604 72.9057L149.042 65.7828L149.521 59.0789L150 52.375" stroke="black" stroke-width="0.896205"/>
</g>
<defs>
<clipPath id="clip0_2109_217513">
<rect width="150" height="150" fill="white"/>
</clipPath>
</defs>
</svg>
