<svg width="150" height="150" viewBox="0 0 150 150" fill="none" xmlns="http://www.w3.org/2000/svg">
<g clip-path="url(#clip0_2109_216965)">
<path d="M112.5 147.638C133.211 147.638 150 114.588 150 73.8189C150 33.0499 133.211 0 112.5 0C91.7893 0 75 33.0499 75 73.8189C75 114.588 91.7893 147.638 112.5 147.638Z" fill="#7F7F7F" stroke="black" stroke-width="0.84182"/>
<path d="M112.5 140.551C131.222 140.551 146.4 110.673 146.4 73.8182C146.4 36.963 131.222 7.08594 112.5 7.08594C93.7772 7.08594 78.5996 36.963 78.5996 73.8182C78.5996 110.673 93.7772 140.551 112.5 140.551Z" fill="#999999"/>
<path d="M112.5 128.741C127.908 128.741 140.4 104.152 140.4 73.8197C140.4 43.4875 127.908 18.8984 112.5 18.8984C97.0909 18.8984 84.5996 43.4875 84.5996 73.8197C84.5996 104.152 97.0909 128.741 112.5 128.741Z" fill="#B2B2B2"/>
<path d="M112.5 117.519C124.761 117.519 134.7 97.9533 134.7 73.818C134.7 49.6827 124.761 30.1172 112.5 30.1172C100.239 30.1172 90.2998 49.6827 90.2998 73.818C90.2998 97.9533 100.239 117.519 112.5 117.519Z" fill="#CCCCCC"/>
<path d="M112.5 108.074C122.109 108.074 129.9 92.7391 129.9 73.8223C129.9 54.9054 122.109 39.5703 112.5 39.5703C102.89 39.5703 95.0996 54.9054 95.0996 73.8223C95.0996 92.7391 102.89 108.074 112.5 108.074Z" fill="#E5E5E5"/>
<path d="M0 0H112.8V112.795H0V0Z" fill="#7F7F7F"/>
<path d="M0 7.67969H112.8V106.302H0V7.67969Z" fill="#999999"/>
<path d="M0 19.4844H112.8V94.4844H0V19.4844Z" fill="#B2B2B2"/>
<path d="M0 30.7109H112.8V82.6794H0V30.7109Z" fill="#CCCCCC"/>
<path d="M0 40.1562H112.8V73.2271H0V40.1562Z" fill="#E5E5E5"/>
<path d="M0 50.1953H112.8V63.778H0V50.1953Z" fill="white"/>
<path d="M0 112.797H112.8" stroke="black" stroke-width="0.84182"/>
<path d="M112.8 0H0" stroke="black" stroke-width="0.84182"/>
<path d="M111.9 68.5023V37.2031L115.2 37.7937L118.2 39.5653L120.9 42.5181L123.3 46.0614L125.1 50.7858L126.6 56.1008L127.5 62.0063L127.8 68.5023L127.5 74.9984L126.6 80.3134L125.1 85.6283L123.3 90.3527L120.9 93.896L118.2 96.8488L115.2 98.6204L111.9 99.211V68.5023Z" fill="white"/>
<path d="M111.9 61.4157V37.2031L114.3 37.7937L116.7 38.9748L118.8 41.337L120.6 44.2897L122.1 47.833L123.3 51.9669L123.9 56.6913L124.2 61.4157L123.9 66.1401L123.3 70.8645L122.1 74.9984L120.6 78.5417L118.8 81.4945L116.7 83.8567L114.3 85.0378L111.9 85.6283V61.4157Z" fill="#E5E5E5"/>
<path d="M111.9 56.6913V37.2031L114 37.7937L115.8 38.9748L117.6 40.7464L119.1 43.1086L120.3 46.0614L121.2 49.0141L121.5 52.5575L121.8 56.6913L121.5 60.8252L121.2 64.3685L120.3 67.3212L119.1 70.274L117.6 72.6362L115.8 74.4079L114 75.589L111.9 76.1795V56.6913Z" fill="#CCCCCC"/>
<path d="M111.9 51.9669V37.2031L114.9 38.3842L117.3 41.337L119.1 46.0614L119.7 51.9669L119.1 57.8724L117.3 62.5968L114.9 66.1401L111.9 67.3212V51.9669Z" fill="#B2B2B2"/>
<path d="M111.6 46.6519V37.2031L113.4 37.7937L114.9 40.1559L116.1 43.1086L116.4 46.6519L116.1 50.1953L114.9 52.5575L113.4 54.9197L111.6 55.5102V46.6519Z" fill="#999999"/>
<path d="M111.3 40.7464V37.2031L112.2 37.7937L112.8 38.3842L113.1 39.5653L113.4 40.7464L113.1 42.5181L112.8 43.6992L112.2 44.2897L111.3 44.8803V40.7464Z" fill="#7F7F7F"/>
<path d="M56.0996 37.2031H112.8V149.998H56.0996V37.2031Z" fill="#7F7F7F"/>
<path d="M56.0996 44.8828H112.8V143.505H56.0996V44.8828Z" fill="#999999"/>
<path d="M56.0996 56.6953H112.8V131.695H56.0996V56.6953Z" fill="#B2B2B2"/>
<path d="M56.0996 67.9141H112.8V119.883H56.0996V67.9141Z" fill="#CCCCCC"/>
<path d="M56.0996 77.3594H112.8V110.43H56.0996V77.3594Z" fill="#E5E5E5"/>
<path d="M56.0996 87.3984H112.8V100.981H56.0996V87.3984Z" fill="white"/>
<path d="M56.0996 150H112.8" stroke="black" stroke-width="0.84182"/>
<path d="M112.8 37.2031H56.0996" stroke="black" stroke-width="0.84182"/>
</g>
<defs>
<clipPath id="clip0_2109_216965">
<rect width="150" height="150" fill="white"/>
</clipPath>
</defs>
</svg>
