<svg width="150" height="150" viewBox="0 0 150 150" fill="none" xmlns="http://www.w3.org/2000/svg">
<g clip-path="url(#clip0_2109_216735)">
<path d="M37.5 150V0H112.5V150H37.5Z" fill="#7F7F7F"/>
<path d="M42.2998 150V0H108V150H42.2998Z" fill="#999999"/>
<path d="M50.4004 150V0H100.2V150H50.4004Z" fill="#B2B2B2"/>
<path d="M57.9004 150V0H92.4004V150H57.9004Z" fill="#CCCCCC"/>
<path d="M63.9004 150V0H86.1004V150H63.9004Z" fill="#E5E5E5"/>
<path d="M70.5 150V0H79.5V150H70.5Z" fill="white"/>
<path d="M112.5 150V0" stroke="black" stroke-width="0.6"/>
<path d="M37.5 0V150" stroke="black" stroke-width="0.6"/>
<path d="M33 112.5H0V37.5H33L40.5 38.4L47.4 40.5L53.7 43.8L59.4 48.6L63.9 54L67.5 60.3L69.6 67.5L70.5 75L69.6 82.5L67.5 89.7L63.9 96L59.4 101.4L53.7 106.2L47.4 109.5L40.5 111.6L33 112.5Z" fill="#7F7F7F"/>
<path d="M51.3 107.697L55.5 104.997L59.1 101.697L62.4 98.0969L65.4 93.8969L67.5 89.3969L69 84.8969L70.2 80.0969L70.5 74.9969L70.2 69.8969L69 65.0969L67.5 60.2969L65.4 55.7969L62.4 51.8969L59.1 48.2969L55.5 44.9969L51.3 42.2969H0V107.697H51.3Z" fill="#999999"/>
<path d="M60.9 99.9016L63 97.2016L64.8 94.5016L66.6 91.5016L68.1 88.5016L69 85.2016L69.9 81.9016L70.2 78.6016L70.5 75.0016L70.2 71.7016L69.9 68.4016L69 65.1016L68.1 61.8016L66.6 58.5016L64.8 55.5016L63 52.8016L60.9 50.1016H0V99.9016H60.9Z" fill="#B2B2B2"/>
<path d="M66.3 92.0984L67.2 89.9984L68.1 88.1984L68.7 86.0984L69.3 83.9984L69.9 81.5984L70.2 79.4984L70.5 77.0984V74.9984V72.8984L70.2 70.4984L69.9 68.3984L69.3 66.2984L68.7 63.8984L68.1 61.7984L67.2 59.9984L66.3 57.8984H0V92.0984H66.3Z" fill="#CCCCCC"/>
<path d="M68.7 85.7984L69 84.5984L69.6 83.0984L69.9 81.8984L70.2 80.3984V79.1984L70.5 77.6984V76.4984V74.9984V73.4984L70.2 71.6984V70.1984L69.9 68.6984L69.6 66.8984L69.3 65.3984L68.7 63.8984L68.4 62.3984H0V86.0984L68.7 85.7984Z" fill="#E5E5E5"/>
<path d="M69.9 79.8031L70.2 78.6031V77.4031L70.5 76.2031V75.0031V73.8031L70.2 72.6031V71.1031L69.9 70.2031H0V79.8031H69.9Z" fill="white"/>
<path d="M0 37.5H33L40.5 38.4L47.4 40.5L53.7 43.8L59.4 48.6L63.9 54L67.5 60.3L69.6 67.5L70.5 75L69.6 82.5L67.5 89.7L63.9 96L59.4 101.4L53.7 106.2L47.4 109.5L40.5 111.6L33 112.5H0" stroke="black" stroke-width="0.6"/>
<path d="M117.3 112.5H150V37.5H117.3L109.8 38.4L102.6 40.5L96.2998 43.8L90.8998 48.6L86.0998 54L82.7998 60.3L80.6998 67.5L79.7998 75L80.6998 82.5L82.7998 89.7L86.0998 96L90.8998 101.4L96.2998 106.2L102.6 109.5L109.8 111.6L117.3 112.5Z" fill="#7F7F7F"/>
<path d="M98.9998 107.697L94.7998 104.997L90.8998 101.697L87.5998 98.0969L84.8998 93.8969L82.7998 89.3969L80.9998 84.8969L80.0998 80.0969L79.7998 74.9969L80.0998 69.8969L81.2998 65.0969L82.7998 60.2969L84.8998 55.7969L87.8998 51.8969L91.1998 48.2969L94.7998 44.9969L98.9998 42.2969H150V107.697H98.9998Z" fill="#999999"/>
<path d="M89.3998 99.9016L87.2998 97.2016L85.1998 94.5016L83.6998 91.5016L82.1998 88.5016L81.2998 85.2016L80.3998 81.9016L80.0998 78.6016L79.7998 75.0016L80.0998 71.7016L80.3998 68.4016L81.2998 65.1016L82.1998 61.8016L83.6998 58.5016L85.1998 55.5016L87.2998 52.8016L89.3998 50.1016H150V99.9016H89.3998Z" fill="#B2B2B2"/>
<path d="M83.9998 92.0984L83.0998 89.9984L82.1998 88.1984L81.5998 86.0984L80.9998 83.9984L80.3998 81.5984L80.0998 79.4984L79.7998 77.0984V74.9984V72.8984L80.0998 70.4984L80.3998 68.3984L80.9998 66.2984L81.5998 63.8984L82.1998 61.7984L83.0998 59.9984L83.9998 57.8984H150V92.0984H83.9998Z" fill="#CCCCCC"/>
<path d="M81.5998 85.7984L81.2998 84.5984L80.6998 83.0984L80.3998 81.8984V80.3984L80.0998 79.1984L79.7998 77.6984V76.4984V74.9984V73.4984L80.0998 71.6984V70.1984L80.3998 68.6984L80.6998 66.8984L80.9998 65.3984L81.5998 63.8984L81.8998 62.3984H150V86.0984L81.5998 85.7984Z" fill="#E5E5E5"/>
<path d="M80.0998 79.8031L79.7998 78.6031V77.4031V76.2031V75.0031V73.8031V72.6031V71.1031L80.0998 70.2031H150V79.8031H80.0998Z" fill="white"/>
<path d="M150 37.5H117.3L109.8 38.4L102.6 40.5L96.2998 43.8L90.8998 48.6L86.0998 54L82.7998 60.3L80.6998 67.5L79.7998 75L80.6998 82.5L82.7998 89.7L86.0998 96L90.8998 101.4L96.2998 106.2L102.6 109.5L109.8 111.6L117.3 112.5H150" stroke="black" stroke-width="0.6"/>
</g>
<defs>
<clipPath id="clip0_2109_216735">
<rect width="150" height="150" fill="white"/>
</clipPath>
</defs>
</svg>
