<svg width="150" height="150" viewBox="0 0 150 150" fill="none" xmlns="http://www.w3.org/2000/svg">
<g clip-path="url(#clip0_2109_217210)">
<path d="M31.1998 37.0482L28.1998 0H9.5998L6.2998 37.0482H31.1998Z" fill="#7F7F7F" stroke="black" stroke-width="1.04132"/>
<path d="M87.6002 37.0482L84.6002 0H65.7002L62.7002 37.0482H87.6002Z" fill="#7F7F7F" stroke="black" stroke-width="1.04132"/>
<path d="M143.7 37.0482L140.7 0H122.1L118.8 37.0482H143.7Z" fill="#7F7F7F" stroke="black" stroke-width="1.04132"/>
<path d="M0 37.0469V149.999H150V37.0469H0Z" fill="#7F7F7F"/>
<path d="M9.2998 37.0469V149.999H141V37.0469H9.2998Z" fill="#999999"/>
<path d="M25.5 37.0469V149.999H125.1V37.0469H25.5Z" fill="#B2B2B2"/>
<path d="M40.7998 37.0469V149.999H109.5V37.0469H40.7998Z" fill="#CCCCCC"/>
<path d="M52.7998 37.0469V149.999H96.8998V37.0469H52.7998Z" fill="#E5E5E5"/>
<path d="M66 37.0469V149.999H84.3V37.0469H66Z" fill="white"/>
<path d="M0 37.0469V149.999H150V37.0469H0Z" stroke="black" stroke-width="1.04132"/>
<path d="M26.6998 37.0482L25.1998 0H9.5998L6.2998 37.0482H26.6998Z" fill="#B2B2B2" stroke="black" stroke-width="1.04132"/>
<path d="M82.8002 37.0482L81.3002 0H65.7002L62.7002 37.0482H82.8002Z" fill="#B2B2B2" stroke="black" stroke-width="1.04132"/>
<path d="M139.2 37.0482L137.7 0H122.1L118.8 37.0482H139.2Z" fill="#B2B2B2" stroke="black" stroke-width="1.04132"/>
<path d="M12.5998 0H9.5998L6.2998 37.0482H11.0998L12.5998 0Z" fill="#E5E5E5" stroke="black" stroke-width="1.04132"/>
<path d="M68.7002 0H65.7002L62.7002 37.0482H67.2002L68.7002 0Z" fill="#E5E5E5" stroke="black" stroke-width="1.04132"/>
<path d="M125.1 0H122.1L118.8 37.0482H123.6L125.1 0Z" fill="#E5E5E5" stroke="black" stroke-width="1.04132"/>
</g>
<defs>
<clipPath id="clip0_2109_217210">
<rect width="150" height="150" fill="white"/>
</clipPath>
</defs>
</svg>
