<svg width="150" height="150" viewBox="0 0 150 150" fill="none" xmlns="http://www.w3.org/2000/svg">
<g clip-path="url(#clip0_2109_218104)">
<path d="M31.5 0L150 118.5L118.5 150L0 31.5L31.5 0Z" fill="#7F7F7F"/>
<path d="M29.6996 1.79688L148.2 120.597L120.6 148.197L2.09961 29.6969L29.6996 1.79688Z" fill="#999999"/>
<path d="M26.1004 5.39844L144.9 123.898L123.9 144.898L5.40039 26.0984L26.1004 5.39844Z" fill="#B2B2B2"/>
<path d="M23.1002 8.39844L141.6 127.198L127.2 141.598L8.7002 23.0984L23.1002 8.39844Z" fill="#CCCCCC"/>
<path d="M20.3996 11.1016L138.9 129.602L129.9 138.902L11.0996 20.4016L20.3996 11.1016Z" fill="#E5E5E5"/>
<path d="M17.6998 13.7969L136.2 132.297L132.3 136.197L13.7998 17.6969L17.6998 13.7969Z" fill="white"/>
<path d="M0 31.5L118.5 150" stroke="black" stroke-width="0.6"/>
<path d="M150 118.5L31.5 0" stroke="black" stroke-width="0.6"/>
</g>
<defs>
<clipPath id="clip0_2109_218104">
<rect width="150" height="150" fill="white"/>
</clipPath>
</defs>
</svg>
