<svg width="150" height="150" viewBox="0 0 150 150" fill="none" xmlns="http://www.w3.org/2000/svg">
<g clip-path="url(#clip0_2109_216886)">
<path d="M75.2998 0H150V150L75.2998 75V0Z" fill="#7F7F7F"/>
<path d="M0 75V150H150L75 75H0Z" fill="#7F7F7F"/>
<path d="M145.2 0H79.7998V79.8L145.2 145.2V0Z" fill="#999999"/>
<path d="M0 145.197V79.7969H79.8L145.5 145.197H0Z" fill="#999999"/>
<path d="M137.4 0H87.5996V87.6L137.4 137.4V0Z" fill="#B2B2B2"/>
<path d="M0 137.402V87.6016H87.6L137.7 137.402H0Z" fill="#B2B2B2"/>
<path d="M129.6 0H95.4004V95.4L129.6 129.6V0Z" fill="#CCCCCC"/>
<path d="M0 129.598V95.3984H95.4L129.9 129.598H0Z" fill="#CCCCCC"/>
<path d="M123.6 0H101.7V101.4L123.6 123.3V0Z" fill="#E5E5E5"/>
<path d="M0 123.298V101.398H101.7L123.6 123.298H0Z" fill="#E5E5E5"/>
<path d="M117.3 0H108V107.7L117.3 117.3V0Z" fill="white"/>
<path d="M0 117.303V107.703H108L117.3 117.303H0Z" fill="white"/>
<path d="M0 150H150" stroke="black" stroke-width="0.6"/>
<path d="M75 75H0" stroke="black" stroke-width="0.6"/>
<path d="M150 0V150" stroke="black" stroke-width="0.6"/>
<path d="M75.2998 75V0" stroke="black" stroke-width="0.6"/>
</g>
<defs>
<clipPath id="clip0_2109_216886">
<rect width="150" height="150" fill="white"/>
</clipPath>
</defs>
</svg>
