<svg width="150" height="150" viewBox="0 0 150 150" fill="none" xmlns="http://www.w3.org/2000/svg">
<g clip-path="url(#clip0_2109_217606)">
<path d="M0 39.3281H48.285V149.999H0V39.3281Z" fill="#7F7F7F"/>
<path d="M0 46.1875H48.285V143.596H0V46.1875Z" fill="#999999"/>
<path d="M0 58.0781H48.285V131.706H0V58.0781Z" fill="#B2B2B2"/>
<path d="M0 69.5156H48.285V120.278H0V69.5156Z" fill="#CCCCCC"/>
<path d="M0 78.2031H48.285V110.673H0V78.2031Z" fill="#E5E5E5"/>
<path d="M0 87.8047H48.285V101.524H0V87.8047Z" fill="white"/>
<path d="M0 150H48.285" stroke="black" stroke-width="0.850873"/>
<path d="M48.285 39.3281H0" stroke="black" stroke-width="0.850873"/>
<path d="M48.2852 39.3281L115.963 117.529L112.797 121.188L109.235 124.846L105.277 128.048L101.715 131.249L97.7575 133.993L93.4039 136.737L89.4461 139.481L85.0925 141.31L80.739 143.596L75.9896 144.968L71.6361 146.798L66.8867 147.712L62.1374 148.627L57.7838 149.542L53.0345 149.999H48.2852V39.3281Z" fill="#7F7F7F"/>
<path d="M48.2852 39.3281L112.005 112.499L108.839 116.157L105.277 119.359L102.111 122.56L98.1532 125.304L94.5912 128.048L90.6334 130.792L86.6757 133.078L82.7179 134.907L78.3643 136.737L74.4065 138.566L70.053 139.938L65.6994 140.853L61.3458 141.767L56.9923 142.682L52.6387 143.139H48.2852V39.3281Z" fill="#999999"/>
<path d="M48.2852 39.3281L104.881 104.724L98.9448 110.67L93.0081 116.157L85.8841 120.731L79.1559 124.389L71.6361 127.59L64.1163 129.877L56.2007 131.249L48.2852 131.706V39.3281Z" fill="#B2B2B2"/>
<path d="M48.2852 39.3281L97.7575 96.4928L92.6123 101.523L87.0714 106.554L81.1348 110.67L74.8023 113.871L68.4699 116.615L61.7416 118.444L55.0134 119.816L48.2852 120.273V39.3281Z" fill="#CCCCCC"/>
<path d="M48.2852 39.3281L92.2166 89.633L87.863 94.2062L82.7179 98.322L77.5728 101.981L72.0319 105.182L66.0952 107.468L60.5543 109.298L54.2218 110.212L48.2852 110.67V39.3281Z" fill="#E5E5E5"/>
<path d="M48.2852 39.3281L86.2799 83.2306L82.3221 87.3464L78.3643 91.005L73.615 94.2062L68.8656 96.4928L64.1163 98.7793L58.9712 100.151L53.4303 101.066L48.2852 101.523V39.3281Z" fill="white"/>
<path d="M48.2852 39.3281L77.9685 73.6269L74.8023 76.8281L71.6361 79.572L68.0741 81.8586L64.5121 84.1452L60.5543 85.5171L56.5965 86.8891L52.2429 87.3464L48.2852 87.8037V39.3281Z" fill="#E5E5E5"/>
<path d="M48.2852 39.3281L72.4276 66.7672L70.053 69.5111L67.2825 71.7976L64.1163 73.6269L61.3458 74.9989L58.1796 76.3708L55.0134 77.2854L51.4514 78.2001H48.2852V39.3281Z" fill="#CCCCCC"/>
<path d="M48.2852 39.3281L66.491 60.3647L64.5121 62.194L62.5332 64.0232L60.5543 65.3952L58.1796 66.7671L55.8049 67.6818L53.4303 68.5964L50.6598 69.0537H48.2852V39.3281Z" fill="#B2B2B2"/>
<path d="M48.2852 39.3281L59.367 52.133L56.9923 54.4196L54.2218 56.2489L51.4514 57.1635L48.2852 57.6208V39.3281Z" fill="#999999"/>
<path d="M48.2852 39.3281L52.6387 43.9013L51.8472 44.8159L50.6598 45.7306L49.4725 46.1879H48.2852V39.3281Z" fill="#7F7F7F"/>
<path d="M115.963 117.531L112.797 121.19L109.235 124.848L105.277 128.05L101.715 131.251L97.7575 133.995L93.4039 136.739L89.4461 139.482L85.0925 141.312L80.739 143.598L75.9896 144.97L71.6361 146.8L66.8867 147.714L62.1374 148.629L57.7838 149.543L53.0345 150.001H48.2852" stroke="black" stroke-width="0.850873"/>
<path d="M48.2852 38.872L82.3221 0L150 78.2012L115.963 117.53L48.2852 38.872Z" fill="#7F7F7F"/>
<path d="M52.2432 43.8996L86.2801 4.57031L146.043 73.6252L112.006 112.497L52.2432 43.8996Z" fill="#999999"/>
<path d="M59.7627 52.1376L93.7996 13.2656L138.918 65.3998L104.881 104.272L59.7627 52.1376Z" fill="#B2B2B2"/>
<path d="M66.4912 60.3683L100.528 21.0391L131.795 57.1671L97.7577 96.4964L66.4912 60.3683Z" fill="#CCCCCC"/>
<path d="M72.0312 66.7668L106.068 27.4375L125.857 50.3034L92.2159 89.6326L72.0312 66.7668Z" fill="#E5E5E5"/>
<path d="M77.9688 73.6261L112.006 34.2969L120.317 43.9005L86.2801 83.2298L77.9688 73.6261Z" fill="white"/>
<path d="M115.963 117.532L150 78.2031" stroke="black" stroke-width="0.850873"/>
<path d="M82.3221 0L48.2852 38.872" stroke="black" stroke-width="0.850873"/>
</g>
<defs>
<clipPath id="clip0_2109_217606">
<rect width="150" height="150" fill="white"/>
</clipPath>
</defs>
</svg>
