<svg width="150" height="150" viewBox="0 0 150 150" fill="none" xmlns="http://www.w3.org/2000/svg">
<g clip-path="url(#clip0_2109_216668)">
<path d="M0 75H150V150H0V75Z" fill="#7F7F7F"/>
<path d="M0 79.7969H150V145.497H0V79.7969Z" fill="#999999"/>
<path d="M0 87.6016H150V137.702H0V87.6016Z" fill="#B2B2B2"/>
<path d="M0 95.3984H150V129.898H0V95.3984Z" fill="#CCCCCC"/>
<path d="M0 101.398H150V123.598H0V101.398Z" fill="#E5E5E5"/>
<path d="M0 108H150V117H0V108Z" fill="white"/>
<path d="M0 150H150" stroke="black" stroke-width="0.6"/>
<path d="M150 75H0" stroke="black" stroke-width="0.6"/>
<path d="M37.5 75V0H112.5V75L111.6 82.5L109.5 89.7L106.2 96L101.4 101.4L96 106.2L89.7 109.5L82.5 111.6L75 112.5L67.5 111.6L60.3 109.5L54 106.2L48.6 101.4L43.8 96L40.5 89.7L38.4 82.5L37.5 75Z" fill="#7F7F7F"/>
<path d="M42.2998 93.3L44.9998 97.5L48.2998 101.4L51.8998 104.7L56.0998 107.4L60.5998 109.5L65.0998 111.3L69.8998 112.2L74.9998 112.5L80.0998 112.2L84.8998 111L89.6998 109.5L94.1998 107.4L98.0998 104.4L101.7 101.1L105 97.5L107.7 93.3V0H42.2998V93.3Z" fill="#999999"/>
<path d="M50.0996 102.9L52.7996 105L55.4996 107.1L58.4996 108.6L61.7996 110.1L64.7996 111L68.0996 111.9L71.3996 112.2L74.9996 112.5L78.2996 112.2L81.8996 111.9L85.1996 111L88.4996 110.1L91.4996 108.6L94.4996 107.1L97.1996 105L99.8996 102.9V0H50.0996V102.9Z" fill="#B2B2B2"/>
<path d="M57.9004 108.3L60.0004 109.2L61.8004 110.1L63.9004 110.7L66.3004 111.3L68.4004 111.9L70.5004 112.2L72.9004 112.5H75.0004H77.1004L79.5004 112.2L81.6004 111.9L84.0004 111.3L86.1004 110.7L88.2004 110.1L90.0004 109.2L92.1004 108.3V0H57.9004V108.3Z" fill="#CCCCCC"/>
<path d="M64.2002 110.7L65.4002 111L66.9002 111.6L68.1002 111.9H69.6002L70.8002 112.2L72.3002 112.5H73.5002H75.0002H76.5002L78.3002 112.2H79.8002L81.3002 111.9L83.1002 111.6L84.6002 111.3L86.1002 110.7L87.6002 110.4V0H64.2002V110.7Z" fill="#E5E5E5"/>
<path d="M70.2002 112.2L71.4002 112.5H72.6002H73.8002H75.0002H76.2002H77.4002H78.9002L79.8002 112.2V0H70.2002V112.2Z" fill="white"/>
<path d="M112.5 0V75L111.6 82.5L109.5 89.7L106.2 96L101.4 101.4L96 106.2L89.7 109.5L82.5 111.6L75 112.5L67.5 111.6L60.3 109.5L54 106.2L48.6 101.4L43.8 96L40.5 89.7L38.4 82.5L37.5 75V0" stroke="black" stroke-width="0.6"/>
</g>
<defs>
<clipPath id="clip0_2109_216668">
<rect width="150" height="150" fill="white"/>
</clipPath>
</defs>
</svg>
