<svg width="150" height="150" viewBox="0 0 150 150" fill="none" xmlns="http://www.w3.org/2000/svg">
<g clip-path="url(#clip0_2109_218115)">
<path d="M0 116.366L80.2994 0L150 33.4835L69.521 150L0 116.366Z" fill="#7F7F7F"/>
<path d="M4.13184 118.47L84.6109 1.95312L145.689 31.3826L65.2097 147.899L4.13184 118.47Z" fill="#999999"/>
<path d="M11.6768 122.071L92.1558 5.55469L138.503 28.0772L58.0241 144.293L11.6768 122.071Z" fill="#B2B2B2"/>
<path d="M18.5029 125.376L98.982 8.85938L131.317 24.475L50.8383 140.992L18.5029 125.376Z" fill="#CCCCCC"/>
<path d="M24.252 128.076L104.731 11.8594L125.21 21.469L44.731 137.986L24.252 128.076Z" fill="#E5E5E5"/>
<path d="M30.3594 131.079L110.838 14.5625L119.461 18.7667L38.9821 135.283L30.3594 131.079Z" fill="white"/>
<path d="M69.5215 150.001L150.001 33.4844" stroke="black" stroke-width="0.32847"/>
<path d="M80.2994 0L0 116.366" stroke="black" stroke-width="0.32847"/>
</g>
<defs>
<clipPath id="clip0_2109_218115">
<rect width="150" height="150" fill="white"/>
</clipPath>
</defs>
</svg>
