<svg width="150" height="150" viewBox="0 0 150 150" fill="none" xmlns="http://www.w3.org/2000/svg">
<g clip-path="url(#clip0_2109_217668)">
<path d="M0 110.619H48.0769V0H0V110.619Z" fill="#7F7F7F"/>
<path d="M0 103.543H48.0769V6.64062H0V103.543Z" fill="#999999"/>
<path d="M0 91.5919H48.0769V18.1406H0V91.5919Z" fill="#B2B2B2"/>
<path d="M0 80.5334H48.0769V29.6484H0V80.5334Z" fill="#CCCCCC"/>
<path d="M0 71.6809H48.0769V38.9375H0V71.6809Z" fill="#E5E5E5"/>
<path d="M0 61.9434H48.0769V48.2266H0V61.9434Z" fill="white"/>
<path d="M0 0H48.0769" stroke="black" stroke-width="0.825067"/>
<path d="M48.0769 110.617H0" stroke="black" stroke-width="0.825067"/>
<path d="M48.0771 110.619L116.154 32.3009L112.693 28.7611L109.231 25.2212L105.385 21.6814L101.539 18.5841L97.6925 15.9292L93.4618 13.2743L89.231 10.6195L85.0002 8.40708L80.3848 6.63717L75.7695 4.86726L71.5387 3.53982L66.9233 2.21239L62.3079 1.32743L57.3079 0.442478L52.6925 0H48.0771V110.619Z" fill="#7F7F7F"/>
<path d="M48.0771 110.623L111.923 37.1716L108.846 33.6318L105.385 30.5344L101.923 27.4371L98.4618 24.3397L94.6156 21.6849L90.7695 19.03L86.5387 16.8176L82.6925 14.6052L78.4618 12.8353L74.231 11.0654L70.0002 9.73797L65.7695 8.85301L61.1541 7.96806L56.9233 7.0831L52.3079 6.64062H48.0771V110.623Z" fill="#999999"/>
<path d="M48.0771 110.618L104.616 45.5743L98.8464 39.3796L92.6925 34.0698L85.7695 29.2026L78.8464 25.2203L71.5387 22.1229L63.8464 19.9105L56.1541 18.5831L48.0771 18.1406V110.618Z" fill="#B2B2B2"/>
<path d="M48.0771 110.617L97.6925 53.5373L92.6925 48.2275L86.9233 43.3603L81.1541 39.378L75.0002 36.2806L68.4618 33.6258L61.9233 31.4134L55.0002 30.5284L48.0771 30.0859V110.617Z" fill="#CCCCCC"/>
<path d="M48.0771 110.619L91.9233 60.1764L87.3079 55.3092L82.6925 51.3269L77.3079 47.7871L71.9233 44.6897L66.1541 42.0348L60.0002 40.2649L54.231 39.38L48.0771 38.9375V110.619Z" fill="#E5E5E5"/>
<path d="M48.0771 110.616L86.5387 66.3682L82.6925 62.3859L78.4618 58.846L73.8464 55.7487L68.8464 53.0938L63.8464 50.8814L58.8464 49.554L53.4618 48.669L48.0771 48.2266V110.616Z" fill="white"/>
<path d="M48.0771 110.621L77.6925 76.5499L74.6156 73.4526L71.5387 70.7977L67.6925 68.1428L64.231 65.9304L60.3848 64.603L56.1541 63.2756L52.3079 62.8331L48.0771 62.3906V110.621Z" fill="#E5E5E5"/>
<path d="M48.0771 110.623L72.3079 82.7466L69.6156 80.0917L66.9233 77.8794L64.231 76.1094L61.1541 74.3395L58.0771 73.0121L54.6156 72.1271L51.5387 71.2422H48.0771V110.623Z" fill="#CCCCCC"/>
<path d="M48.0771 110.62L66.5387 89.3808L64.6156 87.6109L62.6925 85.841L60.3848 84.0711L58.0771 82.7436L55.7695 81.8587L53.0771 80.9737L50.7695 80.5312H48.0771V110.62Z" fill="#B2B2B2"/>
<path d="M48.0771 110.623L59.231 97.7913L56.9233 95.5789L54.231 93.3665L51.1541 92.4815L48.0771 92.0391V110.623Z" fill="#999999"/>
<path d="M48.0771 110.619L52.3079 105.751L51.5387 104.866L50.3848 103.982L49.231 103.539H48.0771V110.619Z" fill="#7F7F7F"/>
<path d="M116.154 32.3009L112.693 28.7611L109.231 25.2212L105.385 21.6814L101.539 18.5841L97.6925 15.9292L93.4618 13.2743L89.231 10.6195L85.0002 8.40708L80.3848 6.63717L75.7695 4.86726L71.5387 3.53982L66.9233 2.21239L62.3079 1.32743L57.3079 0.442478L52.6925 0H48.0771" stroke="black" stroke-width="0.825067"/>
<path d="M48.0771 110.623L81.9233 150.004L150 71.6852L116.154 32.3047L48.0771 110.623Z" fill="#7F7F7F"/>
<path d="M52.3076 105.756L86.1538 145.136L145.769 76.5524L111.923 37.1719L52.3076 105.756Z" fill="#999999"/>
<path d="M59.6152 97.348L93.4614 136.729L138.846 84.5162L104.615 45.5781L59.6152 97.348Z" fill="#B2B2B2"/>
<path d="M66.5381 89.3798L100.384 128.76L131.538 92.9196L97.6919 53.5391L66.5381 89.3798Z" fill="#CCCCCC"/>
<path d="M71.9229 83.1885L106.154 122.127L126.154 99.1177L91.9229 60.1797L71.9229 83.1885Z" fill="#E5E5E5"/>
<path d="M78.0771 76.547L111.923 115.485L120.385 105.751L86.1541 66.8125L78.0771 76.547Z" fill="white"/>
<path d="M116.154 32.3047L150 71.6852" stroke="black" stroke-width="0.825067"/>
<path d="M81.9233 149.998L48.0771 110.617" stroke="black" stroke-width="0.825067"/>
</g>
<defs>
<clipPath id="clip0_2109_217668">
<rect width="150" height="150" fill="white"/>
</clipPath>
</defs>
</svg>
