<svg width="150" height="150" viewBox="0 0 150 150" fill="none" xmlns="http://www.w3.org/2000/svg">
<g clip-path="url(#clip0_2109_218082)">
<path d="M0 118.5L118.5 0L150 31.5L31.5 150L0 118.5Z" fill="#7F7F7F"/>
<path d="M2.09961 120.602L120.6 2.10156L148.2 29.7016L29.6996 148.202L2.09961 120.602Z" fill="#999999"/>
<path d="M5.40039 123.898L123.9 5.39844L144.9 26.3984L26.4004 144.898L5.40039 123.898Z" fill="#B2B2B2"/>
<path d="M8.7002 127.198L127.2 8.39844L141.6 23.0984L23.1002 141.598L8.7002 127.198Z" fill="#CCCCCC"/>
<path d="M11.0996 129.602L129.6 11.1016L138.9 20.4016L20.3996 138.902L11.0996 129.602Z" fill="#E5E5E5"/>
<path d="M13.7998 132.297L132.3 13.7969L136.2 17.6969L17.6998 136.197L13.7998 132.297Z" fill="white"/>
<path d="M31.5 150L150 31.5" stroke="black" stroke-width="0.6"/>
<path d="M118.5 0L0 118.5" stroke="black" stroke-width="0.6"/>
</g>
<defs>
<clipPath id="clip0_2109_218082">
<rect width="150" height="150" fill="white"/>
</clipPath>
</defs>
</svg>
