<svg width="150" height="150" viewBox="0 0 150 150" fill="none" xmlns="http://www.w3.org/2000/svg">
<g clip-path="url(#clip0_2109_217165)">
<path d="M131.531 31.1969L150 28.1969V9.29687L131.531 6.29688V31.1969Z" fill="#7F7F7F" stroke="black" stroke-width="0.735215"/>
<path d="M131.531 87.6031L150 84.6031V65.7031L131.531 62.7031V87.6031Z" fill="#7F7F7F" stroke="black" stroke-width="0.735215"/>
<path d="M131.531 143.697L150 140.697V122.097L131.531 118.797V143.697Z" fill="#7F7F7F" stroke="black" stroke-width="0.735215"/>
<path d="M18.4685 31.1969L0 28.1969V9.29687L18.4685 6.29688V31.1969Z" fill="#7F7F7F" stroke="black" stroke-width="0.735215"/>
<path d="M18.4685 87.6031L0 84.6031V65.7031L18.4685 62.7031V87.6031Z" fill="#7F7F7F" stroke="black" stroke-width="0.735215"/>
<path d="M18.4685 143.697L0 140.697V122.097L18.4685 118.797V143.697Z" fill="#7F7F7F" stroke="black" stroke-width="0.735215"/>
<path d="M131.531 26.6969L150 24.8969V9.29687L131.531 6.29688V26.6969Z" fill="#B2B2B2" stroke="black" stroke-width="0.735215"/>
<path d="M131.531 82.8031L150 81.3031V65.7031L131.531 62.7031V82.8031Z" fill="#B2B2B2" stroke="black" stroke-width="0.735215"/>
<path d="M131.531 139.197L150 137.697V122.097L131.531 118.797V139.197Z" fill="#B2B2B2" stroke="black" stroke-width="0.735215"/>
<path d="M18.4685 26.6969L0 24.8969V9.29687L18.4685 6.29688V26.6969Z" fill="#B2B2B2" stroke="black" stroke-width="0.735215"/>
<path d="M18.4685 82.8031L0 81.3031V65.7031L18.4685 62.7031V82.8031Z" fill="#B2B2B2" stroke="black" stroke-width="0.735215"/>
<path d="M18.4685 139.197L0 137.697V122.097L18.4685 118.797V139.197Z" fill="#B2B2B2" stroke="black" stroke-width="0.735215"/>
<path d="M18.4688 0H75.2255V150H18.4688V0Z" fill="#7F7F7F"/>
<path d="M18.4688 9.29688H75.2255V140.997H18.4688V9.29688Z" fill="#999999"/>
<path d="M18.4688 25.5H75.2255V125.1H18.4688V25.5Z" fill="#B2B2B2"/>
<path d="M18.4688 40.7969H75.2255V109.497H18.4688V40.7969Z" fill="#CCCCCC"/>
<path d="M18.4688 52.7969H75.2255V96.8969H18.4688V52.7969Z" fill="#E5E5E5"/>
<path d="M18.4688 66H75.2255V84.3H18.4688V66Z" fill="white"/>
<path d="M18.4688 0H75.2255V150H18.4688V0Z" stroke="black" stroke-width="0.735215"/>
<path d="M0 12.5969V9.29688L18.4685 6.29688V11.0969L0 12.5969Z" fill="#E5E5E5" stroke="black" stroke-width="0.735215"/>
<path d="M0 68.7031V65.7031L18.4685 62.7031V67.2031L0 68.7031Z" fill="#E5E5E5" stroke="black" stroke-width="0.735215"/>
<path d="M0 125.097V122.097L18.4685 118.797V123.597L0 125.097Z" fill="#E5E5E5" stroke="black" stroke-width="0.735215"/>
<path d="M150 12.5969V9.29688L131.531 6.29688V11.0969L150 12.5969Z" fill="#E5E5E5" stroke="black" stroke-width="0.735215"/>
<path d="M150 68.7031V65.7031L131.531 62.7031V67.2031L150 68.7031Z" fill="#E5E5E5" stroke="black" stroke-width="0.735215"/>
<path d="M150 125.097V122.097L131.531 118.797V123.597L150 125.097Z" fill="#E5E5E5" stroke="black" stroke-width="0.735215"/>
<path d="M131.532 0H75.2256V150H131.532V0Z" fill="#7F7F7F"/>
<path d="M131.532 9.29688H75.2256V140.997H131.532V9.29688Z" fill="#999999"/>
<path d="M131.532 25.5H75.2256V125.1H131.532V25.5Z" fill="#B2B2B2"/>
<path d="M131.532 40.7969H75.2256V109.497H131.532V40.7969Z" fill="#CCCCCC"/>
<path d="M131.532 52.7969H75.2256V96.8969H131.532V52.7969Z" fill="#E5E5E5"/>
<path d="M131.532 66H75.2256V84.3H131.532V66Z" fill="white"/>
<path d="M131.532 0H75.2256V150H131.532V0Z" stroke="black" stroke-width="0.735215"/>
</g>
<defs>
<clipPath id="clip0_2109_217165">
<rect width="150" height="150" fill="white"/>
</clipPath>
</defs>
</svg>
