<svg width="150" height="150" viewBox="0 0 150 150" fill="none" xmlns="http://www.w3.org/2000/svg">
<g clip-path="url(#clip0_2109_217637)">
<path d="M150 110.79H101.715V0H150V110.79Z" fill="#7F7F7F"/>
<path d="M150 103.948H101.715V6.83594H150V103.948Z" fill="#999999"/>
<path d="M150 92.0946H101.715V18.2344H150V92.0946Z" fill="#B2B2B2"/>
<path d="M150 80.7017H101.715V30.0938H150V80.7017Z" fill="#CCCCCC"/>
<path d="M150 71.5818H101.715V39.2109H150V71.5818Z" fill="#E5E5E5"/>
<path d="M150 62.0031H101.715V48.7812H150V62.0031Z" fill="white"/>
<path d="M150 0H101.715" stroke="black" stroke-width="0.849579"/>
<path d="M101.715 110.789H150" stroke="black" stroke-width="0.849579"/>
<path d="M101.715 110.79L34.0371 32.3708L37.2033 28.7234L40.7653 25.076L44.7231 21.8845L48.2851 18.693L52.2429 15.9574L56.5965 13.2219L60.5543 10.9422L64.9078 8.66261L69.2614 6.83891L74.0107 5.0152L78.3643 3.64742L83.1136 2.27964L87.863 1.36778L92.2165 0.455927L96.9659 0H101.715V110.79Z" fill="#7F7F7F"/>
<path d="M101.715 110.787L37.9951 37.3831L41.1613 33.7356L44.7233 30.5441L47.8896 27.3527L51.8474 24.6171L55.4094 21.8815L59.3671 19.146L63.3249 16.8663L67.2827 15.0426L71.6363 13.2189L75.5941 11.3952L79.9476 10.0274L84.3012 9.11557L88.6547 8.20372L93.0083 7.29186L97.3619 6.83594H101.715V110.787Z" fill="#999999"/>
<path d="M101.715 110.793L45.1191 45.595L51.0558 39.668L57.3883 34.1968L64.1165 29.6376L71.2405 25.9901L78.3645 22.7987L86.2801 20.519L93.7999 19.1512L101.715 18.6953V110.793Z" fill="#B2B2B2"/>
<path d="M101.715 110.793L52.2432 53.802L57.3883 48.3308L62.9292 43.7716L68.8659 39.6682L75.1983 36.4767L81.5308 33.7412L88.259 31.4615L94.9872 30.5497L101.715 30.0938V110.793Z" fill="#CCCCCC"/>
<path d="M101.715 110.791L57.7832 60.1836L62.1368 55.6243L67.2819 51.521L72.427 47.8736L77.9679 44.6821L83.9046 42.4024L89.4455 40.5787L95.7779 39.6669L101.715 39.2109V110.791Z" fill="#E5E5E5"/>
<path d="M101.715 110.79L63.7207 66.5652L67.6785 62.4619L72.032 58.8144L76.3856 55.623L81.135 53.3433L86.2801 51.0637L91.4252 49.6959L96.5703 48.7841L101.715 48.3281V110.79Z" fill="white"/>
<path d="M101.715 110.789L72.0312 76.5947L75.1975 73.4032L78.3637 70.6676L81.9257 67.9321L85.8835 66.1084L89.8413 64.7406L93.7991 63.3728L97.7568 62.9169L101.715 62.4609V110.789Z" fill="#E5E5E5"/>
<path d="M101.715 110.788L77.9688 82.9763L80.3434 80.2407L83.1139 77.9611L85.8843 76.1374L88.6548 74.3137L91.821 73.4018L94.9872 72.49L98.5492 71.5781H101.715V110.788Z" fill="#CCCCCC"/>
<path d="M101.715 110.786L83.5088 89.8139L85.4877 87.5342L87.4666 85.7105L89.4455 84.3427L91.8201 82.9749L94.1948 82.0631L96.5695 81.1512L99.3399 80.6953H101.715V110.786Z" fill="#B2B2B2"/>
<path d="M101.715 110.792L90.6328 97.5699L93.0075 95.2902L95.7779 93.9225L98.5484 93.0106L101.715 92.5547V110.792Z" fill="#999999"/>
<path d="M101.715 110.792L97.7568 105.777L98.5484 104.865L99.3399 104.409L100.527 103.953H101.715V110.792Z" fill="#7F7F7F"/>
<path d="M34.0371 32.3708L37.2033 28.7234L40.7653 25.076L44.7231 21.8845L48.2851 18.693L52.2429 15.9574L56.5965 13.2219L60.5543 10.9422L64.9078 8.66261L69.2614 6.83891L74.0107 5.0152L78.3643 3.64742L83.1136 2.27964L87.863 1.36778L92.2165 0.455927L96.9659 0H101.715" stroke="black" stroke-width="0.849579"/>
<path d="M101.715 110.792L67.6781 150.001L0 71.5819L34.0369 32.8281L101.715 110.792Z" fill="#7F7F7F"/>
<path d="M97.7572 105.772L63.7203 144.982L4.35352 76.5925L37.9947 37.3828L97.7572 105.772Z" fill="#999999"/>
<path d="M90.2374 97.5694L56.5963 136.779L11.4775 84.8035L45.1187 45.5938L90.2374 97.5694Z" fill="#B2B2B2"/>
<path d="M83.5095 89.8151L49.4725 128.569L18.2061 93.0066L52.243 53.7969L83.5095 89.8151Z" fill="#CCCCCC"/>
<path d="M77.9684 83.432L43.9315 122.186L24.1426 99.3894L58.1795 60.1797L77.9684 83.432Z" fill="#E5E5E5"/>
<path d="M72.0319 76.5979L37.9949 115.808L29.6836 106.233L63.7205 67.0234L72.0319 76.5979Z" fill="white"/>
<path d="M34.0369 32.8281L0 71.5819" stroke="black" stroke-width="0.849579"/>
<path d="M67.6777 149.999L101.715 110.789" stroke="black" stroke-width="0.849579"/>
</g>
<defs>
<clipPath id="clip0_2109_217637">
<rect width="150" height="150" fill="white"/>
</clipPath>
</defs>
</svg>
