<svg width="150" height="150" viewBox="0 0 150 150" fill="none" xmlns="http://www.w3.org/2000/svg">
<g clip-path="url(#clip0_2109_216785)">
<path d="M0 87.6V150H75V87.6L75.9 82.8L78.6 78.6L82.8 75.9L87.6 75H150V0H87.6L78.6 0.6L69.9 1.8L61.5 3.9L53.4 6.9L45.9 10.5L38.7 15L31.8 20.1L25.8 25.8L20.1 31.8L15 38.7L10.5 45.9L6.9 53.4L3.9 61.5L1.8 69.9L0.6 78.6L0 87.6Z" fill="#7F7F7F"/>
<path d="M87.5998 4.79688L79.1998 5.09687L71.0998 6.59687L62.9998 8.39687L55.4998 11.3969L48.2998 14.6969L41.3998 18.8969L35.0998 23.6969L29.0998 29.0969L23.6998 34.7969L18.8998 41.0969L14.6998 47.9969L11.3998 55.1969L8.3998 62.9969L6.5998 70.7969L5.0998 79.1969L4.7998 87.5969V149.997H70.4998V87.5969L71.6998 80.6969L75.5998 75.2969L80.9998 71.6969L87.5998 70.1969H150V4.79688H87.5998Z" fill="#999999"/>
<path d="M87.5996 12.6016H150V62.4016H87.5996L82.4996 63.0016L77.9996 64.5016L73.7996 66.6016L69.8996 69.9016L66.8996 73.5016L64.7996 77.7016L63.2996 82.5016L62.6996 87.6016V150.002H12.5996V87.6016L12.8996 79.8016L14.0996 72.6016L15.8996 65.4016L18.5996 58.5016L21.5996 51.9016L25.4996 45.6016L29.6996 39.9016L34.4996 34.5016L39.8996 29.7016L45.5996 25.5016L51.8996 21.6016L58.4996 18.6016L65.3996 15.9016L72.5996 14.1016L79.7996 12.9016L87.5996 12.6016Z" fill="#B2B2B2"/>
<path d="M87.6004 20.3984L80.7004 20.6984L74.1004 21.8984L67.5004 23.3984L61.5004 25.7984L55.5004 28.4984L50.1004 31.7984L44.7004 35.6984L40.2004 39.8984L35.7004 44.6984L31.8004 50.0984L28.5004 55.4984L25.8004 61.4984L23.4004 67.4984L21.9004 74.0984L20.7004 80.6984L20.4004 87.5984V149.998H54.9004V87.5984L55.5004 80.9984L57.6004 74.6984L60.6004 68.9984L64.5004 64.1984L69.3004 60.2984L75.0004 57.2984L81.0004 55.1984L87.6004 54.5984H150V20.3984H87.6004Z" fill="#CCCCCC"/>
<path d="M87.6002 26.7031H150V48.6031H87.6002L79.8002 49.5031L72.3002 51.6031L65.7002 55.2031L60.0002 60.0031L55.2002 65.7031L51.6002 72.3031L49.5002 79.8031L48.6002 87.6031V150.003H26.7002V87.6031L27.0002 81.3031L27.9002 75.3031L29.4002 69.6031L31.5002 63.9031L34.2002 58.5031L37.2002 53.7031L40.5002 48.9031L44.7002 44.4031L48.9002 40.5031L53.7002 37.2031L58.5002 34.2031L63.9002 31.5031L69.6002 29.4031L75.3002 27.9031L81.3002 27.0031L87.6002 26.7031Z" fill="#E5E5E5"/>
<path d="M87.6 32.7031L81.9 33.0031L76.5 33.9031L71.4 35.1031L66.3 36.9031L61.5 39.3031L57 42.0031L52.8 45.3031L48.9 48.9031L45.3 52.8031L42.3 57.0031L39.6 61.5031L37.2 66.3031L35.4 71.4031L34.2 76.5031L33.3 81.9031L33 87.6031V150.003H42.3V87.6031L43.2 78.3031L45.9 69.9031L50.1 62.1031L55.5 55.5031L62.4 50.1031L69.9 45.9031L78.6 43.2031L87.6 42.3031H150V32.7031H87.6Z" fill="white"/>
<path d="M150 0H87.6L78.6 0.6L69.9 1.8L61.5 3.9L53.4 6.9L45.9 10.5L38.7 15L31.8 20.1L25.8 25.8L20.1 31.8L15 38.7L10.5 45.9L6.9 53.4L3.9 61.5L1.8 69.9L0.6 78.6L0 87.6V150" stroke="black" stroke-width="0.6"/>
<path d="M75 150V87.6L75.3 85.2L75.9 82.8L77.1 80.7L78.6 78.6L80.7 77.1L82.8 75.9L85.2 75.3L87.6 75H150" stroke="black" stroke-width="0.6"/>
</g>
<defs>
<clipPath id="clip0_2109_216785">
<rect width="150" height="150" fill="white"/>
</clipPath>
</defs>
</svg>
