<svg width="150" height="150" viewBox="0 0 150 150" fill="none" xmlns="http://www.w3.org/2000/svg">
<g clip-path="url(#clip0_2109_216905)">
<path d="M112.5 85.6164C133.211 85.6164 150 66.4505 150 42.8082C150 19.1659 133.211 0 112.5 0C91.7893 0 75 19.1659 75 42.8082C75 66.4505 91.7893 85.6164 112.5 85.6164Z" fill="#7F7F7F" stroke="black" stroke-width="0.641061"/>
<path d="M112.5 81.5066C131.222 81.5066 146.4 64.1807 146.4 42.808C146.4 21.4353 131.222 4.10938 112.5 4.10938C93.7772 4.10938 78.5996 21.4353 78.5996 42.808C78.5996 64.1807 93.7772 81.5066 112.5 81.5066Z" fill="#999999"/>
<path d="M112.5 74.6596C127.908 74.6596 140.4 60.4001 140.4 42.8103C140.4 25.2204 127.908 10.9609 112.5 10.9609C97.0909 10.9609 84.5996 25.2204 84.5996 42.8103C84.5996 60.4001 97.0909 74.6596 112.5 74.6596Z" fill="#B2B2B2"/>
<path d="M112.5 68.1537C124.761 68.1537 134.7 56.8075 134.7 42.8112C134.7 28.815 124.761 17.4688 112.5 17.4688C100.239 17.4688 90.2998 28.815 90.2998 42.8112C90.2998 56.8075 100.239 68.1537 112.5 68.1537Z" fill="#CCCCCC"/>
<path d="M112.5 62.6713C122.109 62.6713 129.9 53.7784 129.9 42.8083C129.9 31.8383 122.109 22.9453 112.5 22.9453C102.89 22.9453 95.0996 31.8383 95.0996 42.8083C95.0996 53.7784 102.89 62.6713 112.5 62.6713Z" fill="#E5E5E5"/>
<path d="M0 0H112.8V65.411H0V0Z" fill="#7F7F7F"/>
<path d="M0 4.45312H112.8V61.6449H0V4.45312Z" fill="#999999"/>
<path d="M0 11.3047H112.8V54.7978H0V11.3047Z" fill="#B2B2B2"/>
<path d="M0 17.8047H112.8V47.5992H0V17.8047Z" fill="#CCCCCC"/>
<path d="M0 23.2891H112.8V42.4671H0V23.2891Z" fill="#E5E5E5"/>
<path d="M0 29.1094H112.8V36.9861H0V29.1094Z" fill="white"/>
<path d="M0 65.4141H112.8" stroke="black" stroke-width="0.641061"/>
<path d="M112.8 0H0" stroke="black" stroke-width="0.641061"/>
<path d="M0 96.5781V150.003H56.1V96.5781L57.9 90.4137L62.1 86.3041L65.7 85.6192H112.5V21.5781H65.7L59.1 21.9206L52.5 22.948L46.2 24.6603L40.2 27.4L34.5 30.4822L29.1 34.2494L23.7 38.7014L19.2 43.4959L15 48.6329L11.1 54.4548L7.8 60.6192L5.1 67.1261L3 73.9754L1.2 81.1672L0.3 88.7014L0 96.5781Z" fill="#7F7F7F"/>
<path d="M65.6996 25.3438L59.3996 25.6862L53.3996 27.0561L47.0996 28.7684L41.6996 31.1657L36.2996 33.9054L30.8996 37.6725L26.3996 41.7821L21.8996 46.2342L17.6996 51.0287L14.0996 56.5081L11.0996 62.6725L8.39961 68.8369L6.29961 75.3438L4.79961 82.1931L3.89961 89.3848L3.59961 96.5766V150.001H52.7996V96.5766L53.6996 90.4122L56.6996 85.9602L60.5996 82.878L65.6996 81.5081H112.5V25.3438H65.6996Z" fill="#999999"/>
<path d="M65.6996 32.1953H112.5V75.0035H65.6996L58.4996 76.7159L52.4996 81.1679L48.5996 88.0172L47.0996 96.5789V150.004H9.59961V89.7296L10.4996 83.5652L11.9996 77.4008L13.7996 71.5789L16.1996 65.757L19.1996 60.62L22.1996 55.483L25.7996 51.0309L29.9996 46.9213L34.1996 43.1542L38.9996 39.7296L43.7996 37.3323L48.8996 34.935L54.2996 33.5652L59.6996 32.5378L65.6996 32.1953Z" fill="#B2B2B2"/>
<path d="M65.6998 38.6953L60.5998 39.0378L55.4998 40.0652L50.6998 41.435L46.1998 43.4898L41.6998 45.8871L37.4998 48.6268L33.5998 52.0515L29.9998 55.4761L26.6998 59.5857L23.6998 64.3802L21.2998 68.8323L19.1998 73.9693L17.3998 79.1063L16.4998 84.9282L15.5998 90.4076L15.2998 96.572V149.997H41.0998V96.572L41.6998 90.7501L43.1998 85.2707L45.5998 80.4761L48.2998 76.3665L51.8998 72.9419L56.0998 70.5446L60.5998 68.8323L65.6998 68.1474H112.5V38.6953H65.6998Z" fill="#CCCCCC"/>
<path d="M65.6996 44.1797H112.5V63.0153H65.6996L59.6996 63.7002L54.2996 65.4126L49.1996 68.8372L44.9996 72.6043L41.3996 77.7413L38.6996 83.2208L37.1996 89.7276L36.2996 96.5769V150.002H20.0996V91.0975L20.9996 85.9605L22.1996 81.166L23.6996 76.029L25.4996 71.5769L27.8996 67.4674L30.2996 63.3578L33.5996 59.2482L36.5996 56.166L40.1996 53.0838L43.7996 50.6865L47.9996 48.2893L52.1996 46.5769L56.3996 45.2071L60.8996 44.5222L65.6996 44.1797Z" fill="#E5E5E5"/>
<path d="M65.6996 49.3125L61.4996 49.655L57.2996 50.3399L53.3996 51.3673L49.7996 53.0796L46.1996 55.1344L42.5996 57.5317L39.5996 60.2714L36.5996 63.3536L33.8996 66.4358L31.7996 70.2029L29.6996 73.97L27.8996 78.0796L26.3996 82.5317L25.4996 86.9837L24.8996 91.4358L24.5996 96.5728V149.997H31.7996V96.5728L32.3996 88.3536L34.4996 81.1618L37.4996 74.655L41.6996 68.833L46.7996 64.381L52.4996 60.6139L59.0996 58.2166L65.6996 57.5317H112.5V49.3125H65.6996Z" fill="white"/>
<path d="M112.5 21.5781H65.7L59.1 21.9206L52.5 22.948L46.2 24.6603L40.2 27.4L34.5 30.4822L29.1 34.2494L23.7 38.7014L19.2 43.4959L15 48.6329L11.1 54.4548L7.8 60.6192L5.1 67.1261L3 73.9754L1.2 81.1672L0.3 88.7014L0 96.5781V150.003" stroke="black" stroke-width="0.641061"/>
<path d="M56.0996 150.001V96.5761L56.3996 94.5213L56.9996 92.4665L57.8996 90.4117L59.0996 88.6994L60.5996 87.3295L62.0996 86.3021L63.8996 85.9597L65.6996 85.6172H112.5" stroke="black" stroke-width="0.641061"/>
<path d="M111.9 39.3863V21.5781L115.2 21.9206L118.2 22.948L120.9 24.6603L123 26.7151L125.1 29.4548L126.6 32.537L127.5 35.6192L127.8 39.3863L127.5 43.1535L126.6 46.5781L125.1 49.6603L123 52.0576L120.9 54.4548L118.2 56.1672L115.2 57.1946L111.9 57.537V39.3863Z" fill="white"/>
<path d="M111.9 35.2768V21.5781L114.3 21.9206L116.7 22.6055L118.8 23.9754L120.6 25.6877L122.1 27.7425L123.3 29.7973L123.9 32.537L124.2 35.2768L123.9 38.0165L123.3 40.7562L122.1 43.1535L120.6 45.2083L118.8 46.9206L116.7 48.2905L114.3 48.9754L111.9 49.3178V35.2768Z" fill="#E5E5E5"/>
<path d="M111.9 32.8795V21.5781L114 21.9206L115.8 22.2631L117.3 23.2905L118.8 24.6603L120 26.3726L120.9 28.4274L121.5 30.4822L121.8 32.8795L121.5 35.2768L120.9 37.3315L120 39.0439L118.8 40.7562L117.3 42.1261L115.8 43.1535L114 43.8384L111.9 44.1809V32.8795Z" fill="#CCCCCC"/>
<path d="M111.9 30.1398V21.5781L114.9 22.2631L117.3 23.9754L119.1 26.7151L119.7 30.1398L119.1 33.5644L117.3 36.3042L114.9 38.3589L111.9 39.0439V30.1398Z" fill="#B2B2B2"/>
<path d="M111.6 26.7151V21.5781L113.4 21.9206L114.9 22.948L116.1 24.6603L116.4 26.7151L116.1 28.7699L114.9 30.4822L113.4 31.8521L111.6 32.1946V26.7151Z" fill="#999999"/>
<path d="M111.3 23.6329V21.5781H112.2L112.8 21.9206L113.1 22.6055V23.6329V24.3179L112.8 25.0028L112.2 25.3452L111.3 25.6877V23.6329Z" fill="#7F7F7F"/>
</g>
<defs>
<clipPath id="clip0_2109_216905">
<rect width="150" height="150" fill="white"/>
</clipPath>
</defs>
</svg>
