<svg width="150" height="150" viewBox="0 0 150 150" fill="none" xmlns="http://www.w3.org/2000/svg">
<g clip-path="url(#clip0_2109_189252)">
<path d="M0 146.395H150V149.848H0V146.395Z" fill="black"/>
<path d="M0 0H149.559V146.096H0V0Z" fill="#F2F2F2"/>
<path d="M0 78.8296L149.559 18.7695V146.097H0V78.8296Z" fill="#F0F0F0"/>
<path d="M0 86.0361L150 25.6758V146.096H0V86.0361Z" fill="#EDEDED"/>
<path d="M0 92.9419L150 32.2812V146.095H0V92.9419Z" fill="#EBEBEB"/>
<path d="M0 99.5479L150 39.1875V146.094H0V99.5479Z" fill="#E8E8E8"/>
<path d="M0 106.157L150 45.7969V146.097H0V106.157Z" fill="#E5E5E5"/>
<path d="M0 113.063L150 52.7031V146.097H0V113.063Z" fill="#E3E3E3"/>
<path d="M0 119.669L150 59.3086V146.095H0V119.669Z" fill="#E0E0E0"/>
<path d="M0 126.274L150 65.9141V146.094H0V126.274Z" fill="#DEDEDE"/>
<path d="M0 133.185L150 72.8242V146.097H0V133.185Z" fill="#DBDBDB"/>
<path d="M0 139.64L149.559 79.4297V146.096H0V139.64Z" fill="#D9D9D9"/>
<path d="M0 7.05859H150V21.7733H0V7.05859Z" fill="#4C4C4C"/>
<path d="M0 0H149.559V146.096H0V0Z" stroke="black" stroke-width="0.363718"/>
<path d="M106.828 10.2109H144.714V19.0698H106.828V10.2109Z" fill="#E5E5E5"/>
<path d="M115.638 18.1677L112.555 15.9154V13.0626L115.638 10.6602H120.044L123.127 13.0626V15.9154L120.044 18.1677H115.638Z" stroke="black" stroke-width="0.363718"/>
<path d="M131.938 18.1677L128.414 15.9154V13.0626L131.938 10.6602H135.903L139.427 13.0626V15.9154L135.903 18.1677H131.938Z" stroke="black" stroke-width="0.363718"/>
<path d="M5.06641 10.2109H10.3527V15.4662H5.06641V10.2109Z" fill="#CCCCCC"/>
</g>
<defs>
<clipPath id="clip0_2109_189252">
<rect width="150" height="150" fill="white"/>
</clipPath>
</defs>
</svg>
