<svg width="150" height="150" viewBox="0 0 150 150" fill="none" xmlns="http://www.w3.org/2000/svg">
<g clip-path="url(#clip0_2109_189457)">
<path d="M5.14355 93.8439L41.3161 89.0391H82.7984L118.971 93.8439H5.14355Z" fill="#B2B2B2" stroke="black" stroke-width="0.315685"/>
<path d="M0 93.8438H124.281V150H0V93.8438Z" fill="#CCCCCC"/>
<path d="M0 133.782L124.281 110.059V149.999H0V133.782Z" fill="#C7C7C7"/>
<path d="M0 136.035L124.281 112.461V149.998H0V136.035Z" fill="#C2C2C2"/>
<path d="M0 139.49L124.281 116.066V150H0V139.49Z" fill="#BDBDBD"/>
<path d="M124.281 145.044H134.403L150 103.152H124.281V145.044Z" fill="#B2B2B2" stroke="black" stroke-width="0.315685"/>
<path d="M41.3164 93.844H82.7987V84.2344H41.3164V93.844Z" fill="#CCCCCC" stroke="black" stroke-width="0.315685"/>
<path d="M46.6261 84.2342L41.3164 70.1201V42.1922L51.604 23.2733V0H72.5111V23.2733L82.7987 42.1922V70.1201L77.489 84.2342H46.6261Z" fill="#999999"/>
<path d="M48.9488 84.2342L44.3027 70.1201V41.8919L53.2629 23.2733V0H70.8514V23.2733L79.8116 41.8919V70.1201L75.4974 84.2342H48.9488Z" fill="#A6A6A6"/>
<path d="M51.2723 84.2342L47.29 70.1201V41.8919L54.9228 23.2733V0H69.5246V23.2733L76.8254 41.8919V70.1201L73.175 84.2342H51.2723Z" fill="#B2B2B2"/>
<path d="M53.2631 84.2342L50.2764 70.1201V41.8919L56.2498 23.2733V0H67.8649V23.2733L73.8383 41.8919V70.1201L70.8516 84.2342H53.2631Z" fill="#BFBFBF"/>
<path d="M55.5859 84.2342L53.5947 70.1201V41.8919L57.9089 23.2733V0H66.5372V23.2733L70.8514 41.8919V70.1201L68.5284 84.2342H55.5859Z" fill="#CCCCCC"/>
<path d="M57.9095 84.2342L56.582 70.1201V41.8919L59.2369 23.2733V0H64.8785V23.2733L67.5334 41.8919V70.1201L66.2059 84.2342H57.9095Z" fill="#D9D9D9"/>
<path d="M60.2321 84.2342L59.5684 70.1201V42.1922L60.8958 23.2733V0H63.2188V23.2733L64.5462 42.1922V70.1201L63.8825 84.2342H60.2321Z" fill="#E5E5E5"/>
<path d="M42.6436 42.1914H81.471" stroke="#7F7F7F" stroke-width="0.315685"/>
<path d="M42.6436 70.1211H81.471" stroke="#7F7F7F" stroke-width="0.315685"/>
<path d="M62.0575 69.2205C66.3646 69.2205 69.8561 61.8258 69.8561 52.704C69.8561 43.5822 66.3646 36.1875 62.0575 36.1875C57.7504 36.1875 54.2588 43.5822 54.2588 52.704C54.2588 61.8258 57.7504 69.2205 62.0575 69.2205Z" fill="#666666" stroke="black" stroke-width="0.315685"/>
<path d="M46.6261 84.2342L41.3164 70.1201V42.1922L51.604 23.2733V0H72.5111V23.2733L82.7987 42.1922V70.1201L77.489 84.2342H46.6261Z" stroke="black" stroke-width="0.315685"/>
<path d="M48.9492 0H74.8342" stroke="black" stroke-width="0.315685"/>
<path d="M48.9492 20.8711H74.8342" stroke="black" stroke-width="0.315685"/>
<path d="M51.6035 23.2734H72.5106" stroke="black" stroke-width="0.315685"/>
<path d="M0 98.3477H124.281" stroke="black" stroke-width="0.315685"/>
<path d="M5.14355 145.047H10.1214" stroke="black" stroke-width="0.315685"/>
<path d="M113.993 145.047H118.971" stroke="black" stroke-width="0.315685"/>
<path d="M0 93.8438H124.281V150H0V93.8438Z" stroke="black" stroke-width="0.315685"/>
<path d="M41.3164 86.6367H82.7987" stroke="black" stroke-width="0.315685"/>
</g>
<defs>
<clipPath id="clip0_2109_189457">
<rect width="150" height="150" fill="white"/>
</clipPath>
</defs>
</svg>
