<svg width="150" height="150" viewBox="0 0 150 150" fill="none" xmlns="http://www.w3.org/2000/svg">
<g clip-path="url(#clip0_2109_191245)">
<path d="M0 0H150V150H0V0Z" fill="white"/>
<path d="M0 88.3085L150 0V150H0V88.3085Z" fill="#FAFAFA"/>
<path d="M0 97.2642L150 8.70703V150.001H0V97.2642Z" fill="#F5F5F5"/>
<path d="M0 110.695L150 21.6406V149.999H0V110.695Z" fill="#F0F0F0"/>
<path d="M0 0H150V150H0V0Z" stroke="black" stroke-width="0.386527"/>
<path d="M109.459 108.707H143.693V139.553H109.459V108.707Z" fill="#E5E5E5"/>
<path d="M143.693 108.207V139.55H109.459" stroke="white" stroke-width="0.386527"/>
<path d="M143.693 108.207H109.459V139.55" stroke="#999999" stroke-width="0.386527"/>
<path d="M109.459 10.1992H143.693V98.2589H109.459V10.1992Z" fill="#333333"/>
<path d="M118.769 10.1992H121.772V98.2589H118.769V10.1992Z" fill="#CCCCCC"/>
<path d="M131.081 10.1992H134.384V98.2589H131.081V10.1992Z" fill="#CCCCCC"/>
<path d="M109.459 25.6211V20.1484H143.693V25.6211H109.459Z" fill="#CCCCCC"/>
<path d="M109.459 41.0454V36.0703H143.693V41.0454H109.459Z" fill="#CCCCCC"/>
<path d="M109.459 56.4673V51.4922H143.693V56.4673H109.459Z" fill="#CCCCCC"/>
<path d="M109.459 72.3867V66.9141H143.693V72.3867H109.459Z" fill="#CCCCCC"/>
<path d="M109.459 87.8125V82.3398H143.693V87.8125H109.459Z" fill="#CCCCCC"/>
<path d="M103.153 146.02V3.98047" stroke="#7F7F7F" stroke-width="0.386527"/>
<path d="M6.15625 139.551H18.4686V144.526H6.15625V139.551Z" fill="#CCCCCC"/>
<path d="M96.8469 8.70703H6.15625V11.1946H96.8469V14.1797H6.15625V16.916H96.8469V19.1548H6.15625V21.6424H96.8469V24.6274H6.15625V27.115H96.8469V29.6026H6.15625V32.5876H96.8469V35.0752H6.15625V37.5628H96.8469V40.0503H6.15625V43.0354H96.8469V45.523H6.15625V48.0105H96.8469V50.4981H6.15625V53.4831H96.8469V55.9707H6.15625V58.4583H96.8469V60.9458H6.15625V63.9309H96.8469V66.4185H6.15625V68.906H96.8469V71.3936H6.15625V74.3787H96.8469V76.8662H6.15625V79.3538H96.8469V81.8414H6.15625V84.8264H96.8469V87.314H6.15625V89.8016H96.8469V92.2891H6.15625V95.2742H96.8469V97.7618H6.15625V100.249H96.8469V102.737H6.15625V105.722H96.8469V108.21H6.15625V110.697H96.8469V113.682H6.15625V116.17H96.8469V118.657H6.15625V121.145H96.8469V124.13H6.15625V126.617H96.8469V129.105H6.15625V132.09H96.8469V134.578H6.15625" stroke="#7F7F7F" stroke-width="0.386527"/>
<path d="M130.781 130.595L128.379 124.128L130.781 117.66H135.286L130.781 130.595Z" fill="#E5E5E5" stroke="#7F7F7F" stroke-width="0.386527"/>
<path d="M117.868 130.595L115.466 124.128L117.868 117.66H122.373L117.868 130.595Z" fill="#E5E5E5" stroke="#7F7F7F" stroke-width="0.386527"/>
<path d="M130.781 130.595L135.286 117.66L137.388 124.128L135.286 130.595H130.781Z" fill="#B2B2B2" stroke="black" stroke-width="0.386527"/>
<path d="M117.868 130.595L122.373 117.66L124.475 124.128L122.373 130.595H117.868Z" fill="#B2B2B2" stroke="black" stroke-width="0.386527"/>
<path d="M130.781 130.595L134.085 117.66H135.286L135.886 119.153L130.781 130.595Z" fill="white" stroke="#B2B2B2" stroke-width="0.386527"/>
<path d="M117.868 130.595L121.171 117.66H122.373L122.973 119.153L117.868 130.595Z" fill="white" stroke="#B2B2B2" stroke-width="0.386527"/>
<path d="M1.50195 2.48828H148.349V147.513H1.50195V2.48828Z" stroke="#7F7F7F" stroke-width="0.386527"/>
</g>
<defs>
<clipPath id="clip0_2109_191245">
<rect width="150" height="150" fill="white"/>
</clipPath>
</defs>
</svg>
