<svg width="150" height="150" viewBox="0 0 150 150" fill="none" xmlns="http://www.w3.org/2000/svg">
<g clip-path="url(#clip0_2109_190223)">
<path d="M6.15616 6.39344V146.721H143.694V6.39344H6.15616L0 0H150V150H0V0L6.15616 6.39344Z" fill="#E5E5CB"/>
<path d="M0 0H150V150H0V0Z" stroke="black" stroke-width="0.313782"/>
<path d="M6.15625 16.8863H71.922V146.722H77.928V16.8863H143.694V6.39453H6.15625V16.8863Z" stroke="black" stroke-width="0.313782"/>
<path d="M6.15625 6.39453H143.694V146.722H6.15625V6.39453Z" stroke="black" stroke-width="0.313782"/>
<path d="M6.15625 16.8863H71.922V146.722H77.928V16.8863H143.694V6.39453H6.15625V16.8863Z" fill="#CCCCB2"/>
<path d="M6.15625 13.2773H143.694V16.8839H6.15625V13.2773Z" fill="#B2B298"/>
<path d="M4.6543 6.39453H6.1558V146.722H4.6543V6.39453Z" fill="#FFFFE5"/>
<path d="M143.693 6.39453H145.195V146.722H143.693V6.39453Z" fill="#FFFFE5"/>
<path d="M145.195 4.91797V6.39338H4.6543V4.91797H145.195Z" fill="#FFFFE5"/>
<path d="M74.0244 6.39453H75.8262V146.722H74.0244V6.39453Z" fill="#FFFFE5"/>
<path d="M4.6543 146.721V4.91797H145.195V146.721" stroke="#B2B265" stroke-width="0.313782"/>
<path d="M6.15625 21.1484H74.0241V27.0501H6.15625V21.1484Z" fill="black"/>
<path d="M2.85254 21.1484H4.65434V27.0501H2.85254V21.1484Z" fill="black"/>
<path d="M145.195 21.1484H146.997V27.0501H145.195V21.1484Z" fill="black"/>
<path d="M75.8262 21.1484H143.694V27.0501H75.8262V21.1484Z" fill="black"/>
<path d="M6.15625 64.7539H74.0241V70.6555H6.15625V64.7539Z" fill="black"/>
<path d="M2.85254 64.7539H4.65434V70.6555H2.85254V64.7539Z" fill="black"/>
<path d="M145.195 64.7539H146.997V70.6555H145.195V64.7539Z" fill="black"/>
<path d="M75.8262 64.7539H143.694V70.6555H75.8262V64.7539Z" fill="black"/>
<path d="M6.15625 108.359H74.0241V114.261H6.15625V108.359Z" fill="black"/>
<path d="M2.85254 108.359H4.65434V114.261H2.85254V108.359Z" fill="black"/>
<path d="M145.195 108.359H146.997V114.261H145.195V108.359Z" fill="black"/>
<path d="M75.8262 108.359H143.694V114.261H75.8262V108.359Z" fill="black"/>
</g>
<defs>
<clipPath id="clip0_2109_190223">
<rect width="150" height="150" fill="white"/>
</clipPath>
</defs>
</svg>
