<svg width="150" height="150" viewBox="0 0 150 150" fill="none" xmlns="http://www.w3.org/2000/svg">
<g clip-path="url(#clip0_2109_187881)">
<path d="M31.0811 0H150V150H31.0811V0Z" fill="#CCCCCC" stroke="black" stroke-width="0.424901"/>
<path d="M31.0811 112.124H21.7718L0 49.5987L21.7718 5.71094H31.0811V112.124Z" fill="#CCCCCC" stroke="black" stroke-width="0.424901"/>
<path d="M31.0811 106.111L150 43.5859V149.999H31.0811V106.111Z" fill="#C7C7C7"/>
<path d="M31.0812 112.124H21.7719L4.95508 64.6291L31.0812 45.3906V112.124Z" fill="#C7C7C7"/>
<path d="M31.0811 112.724L150 49.5977V149.998H31.0811V112.724Z" fill="#C2C2C2"/>
<path d="M31.0814 112.123H21.7721L6.90723 69.4381L31.0814 50.8008V112.123Z" fill="#C2C2C2"/>
<path d="M31.0811 121.744L150 59.2188V150H31.0811V121.744Z" fill="#BDBDBD"/>
<path d="M31.0811 112.125H21.7718L9.15918 76.0524L31.0811 59.2188V112.125Z" fill="#BDBDBD"/>
<path d="M34.3848 5.71094H146.997V143.386H34.3848V5.71094Z" stroke="#7F7F7F" stroke-width="0.424901"/>
<path d="M115.466 5.71094V143.386" stroke="#7F7F7F" stroke-width="0.424901"/>
<path d="M68.6191 5.71094V143.386" stroke="#7F7F7F" stroke-width="0.424901"/>
<path d="M74.9248 5.71094V143.386" stroke="#7F7F7F" stroke-width="0.424901"/>
<path d="M31.0811 93.4855H28.0781V56.2109H31.0811V93.4855Z" fill="#999999" stroke="black" stroke-width="0.424901"/>
</g>
<defs>
<clipPath id="clip0_2109_187881">
<rect width="150" height="150" fill="white"/>
</clipPath>
</defs>
</svg>
