<svg width="150" height="150" viewBox="0 0 150 150" fill="none" xmlns="http://www.w3.org/2000/svg">
<g clip-path="url(#clip0_2109_189198)">
<path d="M15.0152 18.6836L13.5137 32.5626H31.0812V18.6836H15.0152Z" fill="#003300" stroke="black" stroke-width="0.56622"/>
<path d="M0.900391 138.258H136.786V146.799H0.900391V138.258Z" fill="#003300"/>
<path d="M0.900391 146.797H136.786V150H0.900391V146.797Z" fill="#669966"/>
<path d="M0.900391 138.258H136.786V150.002H0.900391V138.258Z" stroke="black" stroke-width="0.56622"/>
<path d="M31.0811 4.80469H137.387V138.257H31.0811V4.80469Z" fill="#99CC99"/>
<path d="M109.459 99.8212L137.387 19.75V138.255H109.459V99.8212Z" fill="#96C996"/>
<path d="M96.8467 99.8207L109.459 44.3047V138.255H96.8467V99.8207Z" fill="#96C996"/>
<path d="M68.6191 99.8212L96.8474 19.75V138.255H68.6191V99.8212Z" fill="#96C996"/>
<path d="M50 99.8207L68.6186 44.3047V138.255H50V99.8207Z" fill="#96C996"/>
<path d="M31.0811 99.8207L50 44.3047V138.255H31.0811V99.8207Z" fill="#96C996"/>
<path d="M31.0811 105.161L50 49.6445V138.257H31.0811V105.161Z" fill="#94C794"/>
<path d="M50 105.161L68.6186 49.6445V138.257H50V105.161Z" fill="#94C794"/>
<path d="M68.6191 105.161L96.8474 26.6914V138.257H68.6191V105.161Z" fill="#94C794"/>
<path d="M96.8467 105.161L109.459 49.6445V138.257H96.8467V105.161Z" fill="#94C794"/>
<path d="M109.459 105.161L137.387 26.6914V138.257H109.459V105.161Z" fill="#94C794"/>
<path d="M109.459 113.7L137.387 35.2305V138.255H109.459V113.7Z" fill="#91C491"/>
<path d="M96.8467 113.7L109.459 58.1836V138.255H96.8467V113.7Z" fill="#91C491"/>
<path d="M68.6191 113.7L96.8474 35.2305V138.255H68.6191V113.7Z" fill="#91C491"/>
<path d="M50 113.7L68.6186 58.1836V138.255H50V113.7Z" fill="#91C491"/>
<path d="M31.0811 113.7L50 58.1836V138.255H31.0811V113.7Z" fill="#91C491"/>
<path d="M50.3008 138.257V4.80469" stroke="#CCFFCC" stroke-width="0.56622"/>
<path d="M109.76 138.257V4.80469" stroke="#CCFFCC" stroke-width="0.56622"/>
<path d="M97.4473 138.257V4.80469" stroke="#CCFFCC" stroke-width="0.56622"/>
<path d="M69.2188 138.257V4.80469" stroke="#CCFFCC" stroke-width="0.56622"/>
<path d="M109.459 138.257V4.80469" stroke="#336633" stroke-width="0.56622"/>
<path d="M96.8467 138.257V4.80469" stroke="#336633" stroke-width="0.56622"/>
<path d="M68.9189 138.257V4.80469" stroke="#336633" stroke-width="0.56622"/>
<path d="M50 138.257V4.80469" stroke="#336633" stroke-width="0.56622"/>
<path d="M31.0811 4.80469H137.387V138.257H31.0811V4.80469Z" stroke="black" stroke-width="0.56622"/>
<path d="M0 32.5625H31.0811V138.256H0V32.5625Z" fill="#99CC99" stroke="black" stroke-width="0.56622"/>
<path d="M5.2552 39.5H2.40234V41.1014H5.2552V43.7705H2.40234V45.3719H5.2552V48.0409H2.40234V49.6423H5.2552V51.7776H2.40234V53.9128H5.2552V56.048H2.40234V58.1833H5.2552V60.3185H2.40234V62.4537H5.2552V64.589H2.40234V66.7242H5.2552V68.8594H2.40234V70.9947H5.2552V73.1299H2.40234V75.7989H5.2552V77.4004H2.40234V80.0694H5.2552V81.6708H2.40234V83.806H5.2552V85.9413H2.40234V88.0765H5.2552V90.2117H2.40234V92.347H5.2552V94.4822H2.40234V96.6174H5.2552V98.7527H2.40234V100.888H5.2552V103.023H2.40234V105.158H5.2552V107.294H2.40234V109.429H5.2552V111.564H2.40234V113.699H5.2552V115.835H2.40234V117.97H5.2552V120.105H2.40234V122.24H5.2552V124.375H2.40234V126.511H5.2552V128.646H2.40234V130.781H5.2552V132.916H2.40234" stroke="black" stroke-width="0.56622"/>
<path d="M10.0599 39.5H7.20703V41.1014H10.0599V43.7705H7.20703V45.3719H10.0599V48.0409H7.20703V49.6423H10.0599V51.7776H7.20703V53.9128H10.0599V56.048H7.20703V58.1833H10.0599V60.3185H7.20703V62.4537H10.0599V64.589H7.20703V66.7242H10.0599V68.8594H7.20703V70.9947H10.0599V73.1299H7.20703V75.7989H10.0599V77.4004H7.20703V80.0694H10.0599V81.6708H7.20703V83.806H10.0599V85.9413H7.20703V88.0765H10.0599V90.2117H7.20703V92.347H10.0599V94.4822H7.20703V96.6174H10.0599V98.7527H7.20703V100.888H10.0599V103.023H7.20703V105.158H10.0599V107.294H7.20703V109.429H10.0599V111.564H7.20703V113.699H10.0599V115.835H7.20703V117.97H10.0599V120.105H7.20703V122.24H10.0599V124.375H7.20703V126.511H10.0599V128.646H7.20703V130.781H10.0599V132.916H7.20703" stroke="black" stroke-width="0.56622"/>
<path d="M15.015 39.5H11.5615V41.1014H15.015V43.7705H11.5615V45.3719H15.015V48.0409H11.5615V49.6423H15.015V51.7776H11.5615V53.9128H15.015V56.048H11.5615V58.1833H15.015V60.3185H11.5615V62.4537H15.015V64.589H11.5615V66.7242H15.015V68.8594H11.5615V70.9947H15.015V73.1299H11.5615V75.7989H15.015V77.4004H11.5615V80.0694H15.015V81.6708H11.5615V83.806H15.015V85.9413H11.5615V88.0765H15.015V90.2117H11.5615V92.347H15.015V94.4822H11.5615V96.6174H15.015V98.7527H11.5615V100.888H15.015V103.023H11.5615V105.158H15.015V107.294H11.5615V109.429H15.015V111.564H11.5615V113.699H15.015V115.835H11.5615V117.97H15.015V120.105H11.5615V122.24H15.015V124.375H11.5615V126.511H15.015V128.646H11.5615V130.781H15.015V132.916H11.5615" stroke="black" stroke-width="0.56622"/>
<path d="M19.3692 39.5H16.3662V41.1014H19.3692V43.7705H16.3662V45.3719H19.3692V48.0409H16.3662V49.6423H19.3692V51.7776H16.3662V53.9128H19.3692V56.048H16.3662V58.1833H19.3692V60.3185H16.3662V62.4537H19.3692V64.589H16.3662V66.7242H19.3692V68.8594H16.3662V70.9947H19.3692V73.1299H16.3662V75.7989H19.3692V77.4004H16.3662V80.0694H19.3692V81.6708H16.3662V83.806H19.3692V85.9413H16.3662V88.0765H19.3692V90.2117H16.3662V92.347H19.3692V94.4822H16.3662V96.6174H19.3692V98.7527H16.3662V100.888H19.3692V103.023H16.3662V105.158H19.3692V107.294H16.3662V109.429H19.3692V111.564H16.3662V113.699H19.3692V115.835H16.3662V117.97H19.3692V120.105H16.3662V122.24H19.3692V124.375H16.3662V126.511H19.3692V128.646H16.3662V130.781H19.3692V132.916H16.3662" stroke="black" stroke-width="0.56622"/>
<path d="M24.1744 39.5H20.8711V41.1014H24.1744V43.7705H20.8711V45.3719H24.1744V48.0409H20.8711V49.6423H24.1744V51.7776H20.8711V53.9128H24.1744V56.048H20.8711V58.1833H24.1744V60.3185H20.8711V62.4537H24.1744V64.589H20.8711V66.7242H24.1744V68.8594H20.8711V70.9947H24.1744V73.1299H20.8711V75.7989H24.1744V77.4004H20.8711V80.0694H24.1744V81.6708H20.8711V83.806H24.1744V85.9413H20.8711V88.0765H24.1744V90.2117H20.8711V92.347H24.1744V94.4822H20.8711V96.6174H24.1744V98.7527H20.8711V100.888H24.1744V103.023H20.8711V105.158H24.1744V107.294H20.8711V109.429H24.1744V111.564H20.8711V113.699H24.1744V115.835H20.8711V117.97H24.1744V120.105H20.8711V122.24H24.1744V124.375H20.8711V126.511H24.1744V128.646H20.8711V130.781H24.1744V132.916H20.8711" stroke="black" stroke-width="0.56622"/>
<path d="M28.6788 39.5H25.6758V41.1014H28.6788V43.7705H25.6758V45.3719H28.6788V48.0409H25.6758V49.6423H28.6788V51.7776H25.6758V53.9128H28.6788V56.048H25.6758V58.1833H28.6788V60.3185H25.6758V62.4537H28.6788V64.589H25.6758V66.7242H28.6788V68.8594H25.6758V70.9947H28.6788V73.1299H25.6758V75.7989H28.6788V77.4004H25.6758V80.0694H28.6788V81.6708H25.6758V83.806H28.6788V85.9413H25.6758V88.0765H28.6788V90.2117H25.6758V92.347H28.6788V94.4822H25.6758V96.6174H28.6788V98.7527H25.6758V100.888H28.6788V103.023H25.6758V105.158H28.6788V107.294H25.6758V109.429H28.6788V111.564H25.6758V113.699H28.6788V115.835H25.6758V117.97H28.6788V120.105H25.6758V122.24H28.6788V124.375H25.6758V126.511H28.6788V128.646H25.6758V130.781H28.6788V132.916H25.6758" stroke="black" stroke-width="0.56622"/>
<path d="M150 60.3205L141.141 17.082H137.388V60.3205H150Z" fill="#99CC99" stroke="black" stroke-width="0.56622"/>
<path d="M142.193 115.835L138.739 99.8203H137.388V115.835H142.193Z" fill="#99CC99" stroke="black" stroke-width="0.56622"/>
<path d="M95.3453 4.80427V0L93.8438 4.80427H95.3453Z" fill="#99CC99" stroke="black" stroke-width="0.56622"/>
<path d="M51.502 27.2223V8.53906H68.0185" stroke="#CCFFCC" stroke-width="0.56622"/>
<path d="M51.502 58.1851V30.9609H68.0185" stroke="#CCFFCC" stroke-width="0.56622"/>
<path d="M51.502 113.701V60.3203H68.0185" stroke="#CCFFCC" stroke-width="0.56622"/>
<path d="M51.502 136.121V115.836H68.0185" stroke="#CCFFCC" stroke-width="0.56622"/>
<path d="M51.502 136.121H68.0185V115.836" stroke="#336633" stroke-width="0.56622"/>
<path d="M51.502 113.701H68.0185V60.3203" stroke="#336633" stroke-width="0.56622"/>
<path d="M51.502 58.1851H68.0185V30.9609" stroke="#336633" stroke-width="0.56622"/>
<path d="M51.502 27.2223H68.0185V8.53906" stroke="#336633" stroke-width="0.56622"/>
<path d="M56.3066 32.5625V41.1034H63.2135V32.5625H56.3066Z" fill="#E5FFE5"/>
<path d="M57.8076 44.3047V49.6428H61.7115V44.3047H57.8076Z" fill="#003300"/>
<path d="M65.6152 119.039V122.242H67.1167V119.039H65.6152Z" fill="#003300"/>
<path d="M94.4443 72.0625V74.1977H95.9458V72.0625H94.4443Z" fill="#003300"/>
</g>
<defs>
<clipPath id="clip0_2109_189198">
<rect width="150" height="150" fill="white"/>
</clipPath>
</defs>
</svg>
