<svg width="150" height="150" viewBox="0 0 150 150" fill="none" xmlns="http://www.w3.org/2000/svg">
<path d="M2.10254 145.53H96.3968L108.559 133.402V134.998L96.3968 148.721H2.10254V145.53Z" fill="#333333"/>
<path d="M0.600586 13.4023H97.7477V145.53H0.600586V13.4023Z" fill="#EDEDED"/>
<path d="M0.600586 145.53L97.4474 144.892L97.7477 58.4023L0.600586 102.126V145.53Z" fill="#E5E5E5"/>
<path d="M0.600586 145.532L97.4474 144.893L97.7477 69.5742L0.600586 112.659V145.532Z" fill="#DEDEDE"/>
<path d="M0.600586 145.531H97.7477V90.957L0.600586 134.68V145.531Z" fill="#D4D4D4"/>
<path d="M0.600586 13.4023H97.7477V145.53H0.600586V13.4023Z" stroke="black" stroke-width="0.437814"/>
<path d="M0.600586 135H97.7477" stroke="#7F7F7F" stroke-width="0.437814"/>
<path d="M3.45312 19.4688H32.1318V128.937H3.45312V19.4688Z" stroke="#7F7F7F" stroke-width="0.437814"/>
<path d="M34.9854 19.4688H49.2496V128.937H34.9854V19.4688Z" stroke="#7F7F7F" stroke-width="0.437814"/>
<path d="M52.1025 19.4688H94.8953V128.937H52.1025V19.4688Z" stroke="#7F7F7F" stroke-width="0.437814"/>
<path d="M66.3662 19.4688V128.937" stroke="#7F7F7F" stroke-width="0.437814"/>
<path d="M83.4834 128.937V19.4688" stroke="#7F7F7F" stroke-width="0.437814"/>
<path d="M3.45312 19.4688H94.8946" stroke="#7F7F7F" stroke-width="0.437814"/>
<path d="M12.1621 37.6602H23.4234V49.7878H12.1621V37.6602Z" fill="white"/>
<path d="M15.6152 25.5312H19.9696V31.5951H15.6152V25.5312Z" fill="#FFA6A6"/>
<path d="M15.6152 25.5312H17.7173V28.7227H15.6152V25.5312Z" fill="#A6A6FF"/>
<path d="M70.7207 107.555H73.5736V113.619H70.7207V107.555Z" fill="#333333"/>
<path d="M76.2764 107.555H79.1292V113.619H76.2764V107.555Z" fill="#333333"/>
<path d="M75.6758 77.2344H78.3785V83.2982H75.6758V77.2344Z" fill="#333333"/>
<path d="M69.9697 77.2344H72.8226V83.2982H69.9697V77.2344Z" fill="#333333"/>
<path d="M77.0273 65.1055H79.8802V71.1693H77.0273V65.1055Z" fill="#333333"/>
<path d="M71.4717 65.1055H74.1744V71.1693H71.4717V65.1055Z" fill="#333333"/>
<path d="M76.2764 34.7891H79.1292V40.8529H76.2764V34.7891Z" fill="#333333"/>
<path d="M70.7207 34.7891H73.5736V40.8529H70.7207V34.7891Z" fill="#333333"/>
<path d="M75.6758 80.1067L77.0271 77.2344L78.3785 80.1067L77.0271 83.2982L75.6758 80.1067Z" fill="#CC4C4C"/>
<path d="M77.0273 68.297L78.5288 65.1055L79.8802 68.297L78.5288 71.1693L77.0273 68.297Z" fill="#CC4C4C"/>
<path d="M76.2764 37.6614L77.7779 34.7891L79.1292 37.6614L77.7779 40.8529L76.2764 37.6614Z" fill="#CC4C4C"/>
<path d="M70.7207 37.6614L72.0721 34.7891L73.5736 37.6614L72.0721 40.8529L70.7207 37.6614Z" fill="#CC4C4C"/>
<path d="M71.4717 68.297L72.823 65.1055L74.1744 68.297L72.823 71.1693L71.4717 68.297Z" fill="#CC4C4C"/>
<path d="M69.9697 80.1067L71.3211 77.2344L72.8226 80.1067L71.3211 83.2982L69.9697 80.1067Z" fill="#CC4C4C"/>
<path d="M70.7207 110.746L72.0721 107.555L73.5736 110.746L72.0721 113.619L70.7207 110.746Z" fill="#CC4C4C"/>
<path d="M76.2764 110.746L77.7779 107.555L79.1292 110.746L77.7779 113.619L76.2764 110.746Z" fill="#CC4C4C"/>
<path d="M0.600586 13.405L12.012 1.27734H109.159L97.7477 13.405H0.600586Z" fill="#CCCCCC" stroke="black" stroke-width="0.437814"/>
<path d="M97.748 145.533L109.159 133.405V1.27734L97.748 13.405V145.533Z" fill="#999999" stroke="black" stroke-width="0.437814"/>
<path d="M97.748 133.404L137.838 60.6382L149.25 48.1914L109.159 119.681L97.748 133.404Z" fill="#4C4C4C"/>
<path d="M97.748 23.9375L132.132 48.1928L137.838 60.6396L97.748 133.406V23.9375Z" fill="#DEDEDE"/>
<path d="M132.132 48.1914L97.748 63.5106V133.404L137.838 60.6382L132.132 48.1914Z" fill="#D4D4D4"/>
<path d="M136.337 57.4453L97.748 75.6368V133.403L137.838 60.6368L136.337 57.4453Z" fill="#CCCCCC"/>
<path d="M125.226 82.9805L97.748 97.023V133.406L125.226 82.9805Z" fill="#C4C4C4"/>
<path d="M97.748 23.9375L132.132 48.1928L137.838 60.6396L97.748 133.406V23.9375Z" stroke="black" stroke-width="0.437814"/>
<path d="M132.132 48.1916L143.544 36.0639L109.159 11.8086L97.748 23.9363L132.132 48.1916Z" fill="#CCCCCC"/>
<path d="M132.132 48.1902L143.543 36.0625L149.249 48.1902L137.838 60.637L132.132 48.1902Z" fill="#B2B2B2"/>
<path d="M132.132 48.1916L137.838 60.6384L149.25 48.1916L143.544 36.0639L109.159 11.8086L97.748 23.9363L132.132 48.1916Z" stroke="black" stroke-width="0.437814"/>
<path d="M10.6607 86.4899L9.15918 67.9792V65.1069L10.6607 55.8516V86.4899Z" fill="#666666"/>
<path d="M9.15918 67.9778H24.9249V65.1055H9.15918V67.9778Z" fill="#B2B2B2"/>
<path d="M10.6607 55.8516L9.15918 65.1069H24.9249L26.4264 55.8516H10.6607Z" fill="#CCCCCC"/>
<path d="M24.9249 65.1069H9.15918L10.6607 55.8516" stroke="white" stroke-width="0.437814"/>
<path d="M10.6611 67.9805H26.4269V83.2996H10.6611V67.9805Z" fill="#333333"/>
<path d="M26.4263 86.4899L24.9248 67.9792V65.1069L26.4263 55.8516V86.4899Z" fill="#999999"/>
<path d="M10.6607 86.4899L9.15918 67.9792V65.1069L10.6607 55.8516H26.4264V86.4899L26.1261 83.2984H10.6607V86.4899Z" stroke="black" stroke-width="0.437814"/>
</svg>
