<svg width="150" height="150" viewBox="0 0 150 150" fill="none" xmlns="http://www.w3.org/2000/svg">
<g clip-path="url(#clip0_2109_188274)">
<path d="M133.483 116.488V144.752H131.081V116.488H133.483Z" fill="#333333"/>
<path d="M20.8711 55.5195H128.979V57.5384H20.8711V55.5195Z" fill="#333333"/>
<path d="M18.4688 57.5352H131.081V149.998H18.4688V57.5352Z" fill="#8C8C8C"/>
<path d="M18.4688 123.352L131.081 84.5898V150H18.4688V123.352Z" fill="#878787"/>
<path d="M18.4688 126.987L131.081 88.6289V150.002H18.4688V126.987Z" fill="#828282"/>
<path d="M18.4688 132.639L131.081 94.2812V150.001H18.4688V132.639Z" fill="#7D7D7D"/>
<path d="M18.4688 57.5352H131.081V149.998H18.4688V57.5352Z" stroke="black" stroke-width="0.348212"/>
<path d="M106.156 61.5742H128.078V145.962H106.156V61.5742Z" stroke="#333333" stroke-width="0.348212"/>
<path d="M65.6152 61.5742H99.8495V145.962H65.6152V61.5742Z" stroke="#333333" stroke-width="0.348212"/>
<path d="M31.0811 61.5742H59.3093V145.962H31.0811V61.5742Z" stroke="#333333" stroke-width="0.348212"/>
<path d="M82.7325 130.821C84.391 130.821 85.7355 129.014 85.7355 126.784C85.7355 124.554 84.391 122.746 82.7325 122.746C81.074 122.746 79.7295 124.554 79.7295 126.784C79.7295 129.014 81.074 130.821 82.7325 130.821Z" fill="#333333"/>
<path d="M3.00293 59.5547H18.4684V149.999H3.00293V59.5547Z" fill="#7F7F7F" stroke="black" stroke-width="0.348212"/>
<path d="M0 101.547H18.4685V149.999H0V101.547Z" fill="#8C8C8C"/>
<path d="M0 101.547H18.4685L18.018 103.969H1.35135V111.237H18.018V114.467H1.35135V122.947H18.018V126.984H1.35135V147.98L0 149.999V101.547Z" fill="#4C4C4C"/>
<path d="M1.35156 110.027H18.0182V112.046H1.35156V110.027Z" fill="#B2B2B2"/>
<path d="M1.35156 120.523H18.0182V124.965H1.35156V120.523Z" fill="#B2B2B2"/>
<path d="M1.35156 133.043H18.0182V140.715H1.35156V133.043Z" fill="#858585"/>
<path d="M1.35156 140.715H18.0182V147.983H1.35156V140.715Z" fill="#7D7D7D"/>
<path d="M0 101.547H18.4685V149.999H0V101.547Z" stroke="black" stroke-width="0.348212"/>
<path d="M37.3877 0H77.3276V55.5182H37.3877V0Z" fill="#999999"/>
<path d="M37.3877 39.3678L77.3276 15.9492V55.5185H37.3877V39.3678Z" fill="#949494"/>
<path d="M37.3877 41.7897L77.3276 18.3711V55.5178H37.3877V41.7897Z" fill="#8F8F8F"/>
<path d="M37.3877 45.0187L77.3276 22.0039V55.5167H37.3877V45.0187Z" fill="#8A8A8A"/>
<path d="M37.3877 0H77.3276V55.5182H37.3877V0Z" stroke="black" stroke-width="0.348212"/>
<path d="M26.2759 55.52L37.387 43.0032V40.9844L24.7744 55.52H26.2759Z" fill="#666666" stroke="black" stroke-width="0.348212"/>
<path d="M88.138 55.52L77.3271 43.0032V40.9844L89.6395 55.52H88.138Z" fill="#666666" stroke="black" stroke-width="0.348212"/>
<path d="M109.459 38.5586H124.174V55.5169H109.459V38.5586Z" fill="#7F7F7F" stroke="black" stroke-width="0.348212"/>
<path d="M118.769 48.2522L117.268 45.8296V43.0032L118.769 40.9844H120.871L122.673 43.0032V45.8296L120.871 48.2522H118.769Z" fill="#E5E5E5" stroke="black" stroke-width="0.348212"/>
<path d="M112.462 48.2522L110.961 45.8296V43.0032L112.462 40.9844H114.865L116.366 43.0032V45.8296L114.865 48.2522H112.462Z" fill="#E5E5E5" stroke="black" stroke-width="0.348212"/>
<path d="M131.081 87.8188L134.985 83.7811V87.0113H138.288V62.7852H134.985V66.0153L131.081 62.7852V87.8188Z" fill="#4C4C4C" stroke="black" stroke-width="0.348212"/>
<path d="M137.388 84.9948L146.847 80.5533V76.5156H137.388V84.9948Z" fill="#999999" stroke="black" stroke-width="0.348212"/>
<path d="M138.288 66.0156H150V76.5136H138.288V66.0156Z" fill="#7F7F7F"/>
<path d="M138.288 66.8242H150V75.3034H138.288V66.8242Z" fill="#919191"/>
<path d="M138.288 68.0352H150V74.0917H138.288V68.0352Z" fill="#A6A6A6"/>
<path d="M138.288 68.8438H150V73.2852H138.288V68.8438Z" fill="#B8B8B8"/>
<path d="M138.288 70.0547H150V72.0735H138.288V70.0547Z" fill="#CCCCCC"/>
<path d="M138.288 66.0156H150V76.5136H138.288V66.0156Z" stroke="black" stroke-width="0.348212"/>
<path d="M51.502 22.8125H65.6161V35.3293H51.502V22.8125Z" fill="#CCCCCC"/>
<path d="M41.291 62.7852H49.0988V66.0153H41.291V62.7852Z" fill="#CCCCCC"/>
<path d="M78.8291 62.7852H86.6369V66.0153H78.8291V62.7852Z" fill="#CCCCCC"/>
<path d="M113.363 62.7852H121.171V66.0153H113.363V62.7852Z" fill="#CCCCCC"/>
<path d="M111.562 50.2695H115.465V52.2884H111.562V50.2695Z" fill="#CCCCCC"/>
<path d="M117.868 50.2695H121.772V52.2884H117.868V50.2695Z" fill="#CCCCCC"/>
<path d="M57.8076 31.293H59.3091V33.3118H57.8076V31.293Z" fill="black"/>
<path d="M62.3125 24.832H63.814V27.4565H62.3125V24.832Z" fill="black"/>
<path d="M57.8076 24.832H59.3091V27.4565H57.8076V24.832Z" fill="black"/>
<path d="M53.0029 24.832H54.5044V27.4565H53.0029V24.832Z" fill="black"/>
</g>
<defs>
<clipPath id="clip0_2109_188274">
<rect width="150" height="150" fill="white"/>
</clipPath>
</defs>
</svg>
