<svg width="150" height="150" viewBox="0 0 150 150" fill="none" xmlns="http://www.w3.org/2000/svg">
<g clip-path="url(#clip0_2109_189589)">
<path d="M12.2158 2.85156H137.583V146.695H12.2158V2.85156Z" fill="#7F7F7F"/>
<path d="M16.2217 2.85156H133.979V146.695H16.2217V2.85156Z" fill="#7A7A7A"/>
<path d="M19.8262 2.85156H130.374V146.695H19.8262V2.85156Z" fill="#787878"/>
<path d="M23.4316 2.85156H126.769V146.695H23.4316V2.85156Z" fill="#737373"/>
<path d="M27.2363 2.85156H122.764V146.695H27.2363V2.85156Z" fill="#6E6E6E"/>
<path d="M30.6406 2.85156H119.159V146.695H30.6406V2.85156Z" fill="#6B6B6B"/>
<path d="M34.2461 2.85156H115.555V146.695H34.2461V2.85156Z" fill="#666666"/>
<path d="M37.8506 2.85156H111.949V146.695H37.8506V2.85156Z" fill="#616161"/>
<path d="M41.8555 2.85156H108.344V146.695H41.8555V2.85156Z" fill="#5E5E5E"/>
<path d="M45.4609 2.85156H104.74V146.695H45.4609V2.85156Z" fill="#595959"/>
<path d="M49.0654 2.85156H101.135V146.695H49.0654V2.85156Z" fill="#545454"/>
<path d="M52.6699 2.85156H97.5297V146.695H52.6699V2.85156Z" fill="#525252"/>
<path d="M56.2754 2.85156H93.5251V146.695H56.2754V2.85156Z" fill="#4C4C4C"/>
<path d="M137.583 146.695V149.999H12.2158V146.695H137.583Z" fill="#CCCCCC"/>
<path d="M137.583 50V53.003H12.2158V50H137.583Z" fill="#CCCCCC"/>
<path d="M137.583 0V2.85285H12.2158V0H137.583Z" fill="#CCCCCC"/>
<path d="M141.588 0V150H137.583V0H141.588Z" fill="#CCCCCC"/>
<path d="M72.6973 2.85156H77.1031V49.9987H72.6973V2.85156Z" fill="#CCCCCC"/>
<path d="M8.21094 0H12.2163V150H8.21094V0Z" fill="#CCCCCC"/>
<path d="M75.1005 53.0039L137.183 99.8508L75.1005 146.698L12.6172 99.8508L75.1005 53.0039Z" fill="#CCCCCC"/>
<path d="M141.589 6.15625H150V32.5827H141.589V6.15625Z" fill="#CCCCCC" stroke="black" stroke-width="0.346815"/>
<path d="M141.589 1.35156H8.21094" stroke="black" stroke-width="0.346815"/>
<path d="M12.2158 53.0039H137.583V146.698H12.2158V53.0039Z" stroke="black" stroke-width="0.346815"/>
<path d="M77.1025 2.85156H137.583V49.9987H77.1025V2.85156Z" stroke="black" stroke-width="0.346815"/>
<path d="M12.2158 2.85156H72.6965V49.9987H12.2158V2.85156Z" stroke="black" stroke-width="0.346815"/>
<path d="M8.21094 0H141.589V150H8.21094V0Z" stroke="black" stroke-width="0.346815"/>
<path d="M141.589 148.5H8.21094" stroke="black" stroke-width="0.346815"/>
<path d="M147.997 6.15625V32.5827" stroke="black" stroke-width="0.346815"/>
<path d="M74.6992 146.695V149.999" stroke="black" stroke-width="0.346815"/>
<path d="M8.21094 99.8516H12.2163" stroke="black" stroke-width="0.346815"/>
<path d="M137.583 99.8516H141.588" stroke="black" stroke-width="0.346815"/>
<path d="M74.6992 53.003V50" stroke="black" stroke-width="0.346815"/>
<path d="M75.1005 53.0039L137.183 99.8508L75.1005 146.698L12.6172 99.8508L75.1005 53.0039Z" stroke="black" stroke-width="0.346815"/>
<path d="M24.6328 12.4609H58.2777V49.9985H24.6328V12.4609Z" fill="#4C4C4C"/>
<path d="M25.2334 14.8633H58.2775V49.6981H25.2334V14.8633Z" fill="#595959"/>
<path d="M25.2334 17.418H58.2775V49.7003H25.2334V17.418Z" fill="#666666"/>
<path d="M25.2334 19.668H58.2775V49.698H25.2334V19.668Z" fill="#737373"/>
<path d="M25.2334 22.3711H58.2775V49.6984H25.2334V22.3711Z" fill="#7F7F7F"/>
<path d="M25.2334 24.7734H58.2775V49.6984H25.2334V24.7734Z" fill="#8C8C8C"/>
<path d="M25.2334 27.1758H58.2775V49.6983H25.2334V27.1758Z" fill="#999999"/>
<path d="M25.2334 29.8789H58.2775V49.6987H25.2334V29.8789Z" fill="#A6A6A6"/>
<path d="M25.2334 32.2812H58.2775V49.6987H25.2334V32.2812Z" fill="#B2B2B2"/>
<path d="M25.2334 37.3867H58.2775V49.699H25.2334V37.3867Z" fill="#BFBFBF"/>
<path d="M24.6328 12.4609H58.2777V49.9985H24.6328V12.4609Z" stroke="black" stroke-width="0.346815"/>
<path d="M75.1 56.3047L133.177 99.8482L75.1 143.692L16.6221 99.8482L75.1 56.3047Z" fill="white"/>
<path d="M133.178 99.8516L75.1003 143.695L45.8613 121.773L133.178 99.8516Z" fill="#FAFAFA"/>
<path d="M118.758 110.961L75.0997 143.694L53.0703 127.477L118.758 110.961Z" fill="#F5F5F5"/>
<path d="M85.1133 12.4609H131.175V49.9985H85.1133V12.4609Z" fill="#4C4C4C" stroke="black" stroke-width="0.346815"/>
<path d="M0 87.5391H8.21095V125.077H0V87.5391Z" fill="#4C4C4C"/>
<path d="M0 12.4609H8.21095V43.6922H0V12.4609Z" fill="#4C4C4C" stroke="black" stroke-width="0.346815"/>
<path d="M85.5137 14.4141H131.175V47.8975H85.5137V14.4141Z" fill="#5C5C5C"/>
<path d="M0 89.3398H8.21095V122.973H0V89.3398Z" fill="#5C5C5C"/>
<path d="M0 13.9648H8.21095V41.8928H0V13.9648Z" fill="#5C5C5C"/>
<path d="M85.5137 16.0664H131.175V45.7961H85.5137V16.0664Z" fill="#6B6B6B"/>
<path d="M0 91.1406H8.21095V120.87H0V91.1406Z" fill="#6B6B6B"/>
<path d="M0 15.4648H8.21095V40.3898H0V15.4648Z" fill="#6B6B6B"/>
<path d="M85.5137 18.168H131.175V43.9938H85.5137V18.168Z" fill="#7D7D7D"/>
<path d="M0 93.2422H8.21095V119.068H0V93.2422Z" fill="#7D7D7D"/>
<path d="M0 17.418H8.21095V38.5891H0V17.418Z" fill="#7D7D7D"/>
<path d="M85.5137 20.4219H131.175V41.8933H85.5137V20.4219Z" fill="#8C8C8C"/>
<path d="M0 95.3438H8.21095V116.965H0V95.3438Z" fill="#8C8C8C"/>
<path d="M0 18.918H8.21095V37.0861H0V18.918Z" fill="#8C8C8C"/>
<path d="M85.5137 22.0703H131.175V40.0883H85.5137V22.0703Z" fill="#9C9C9C"/>
<path d="M0 97.1484H8.21095V115.166H0V97.1484Z" fill="#9C9C9C"/>
<path d="M0 20.5703H8.21095V35.285H0V20.5703Z" fill="#9C9C9C"/>
<path d="M85.5137 24.1758H131.175V37.9896H85.5137V24.1758Z" fill="#ABABAB"/>
<path d="M0 22.0703H8.21095V33.782H0V22.0703Z" fill="#ABABAB"/>
<path d="M0 99.25H8.21095V113.064H0V99.25Z" fill="#ABABAB"/>
<path d="M85.5137 25.9766H131.175V36.1868H85.5137V25.9766Z" fill="#BDBDBD"/>
<path d="M0 101.051H8.21095V111.261H0V101.051Z" fill="#BDBDBD"/>
<path d="M0 23.5742H8.21095V32.2829H0V23.5742Z" fill="#BDBDBD"/>
<path d="M85.1133 29.5781H131.175V32.5811H85.1133V29.5781Z" fill="#CCCCCC"/>
<path d="M0 26.5781H8.21095V29.2808H0V26.5781Z" fill="#CCCCCC"/>
<path d="M0 104.656H8.21095V107.659H0V104.656Z" fill="#CCCCCC"/>
<path d="M0 87.5391H8.21095V125.077H0V87.5391Z" stroke="black" stroke-width="0.346815"/>
</g>
<defs>
<clipPath id="clip0_2109_189589">
<rect width="150" height="150" fill="white"/>
</clipPath>
</defs>
</svg>
