<svg width="150" height="150" viewBox="0 0 150 150" fill="none" xmlns="http://www.w3.org/2000/svg">
<g clip-path="url(#clip0_2109_191105)">
<path d="M40.0801 37.3867V112.462H41.7601H43.2001H108.72H110.16V37.3867H108.72H107.04H105.36H41.7601H40.0801Z" fill="#333333"/>
<path d="M40.0801 40.6914V108.86H110.16V40.6914H40.0801Z" fill="#383838"/>
<path d="M40.0801 44.293V105.554H110.16V44.293H40.0801Z" fill="#3D3D3D"/>
<path d="M40.0801 47.5977V101.952H110.16V47.5977H40.0801Z" fill="#424242"/>
<path d="M40.0801 51.2031V98.6506H110.16V51.2031H40.0801Z" fill="#474747"/>
<path d="M40.0801 54.5039V95.0444H110.16V54.5039H40.0801Z" fill="#4C4C4C"/>
<path d="M40.0801 58.1094V91.743H110.16V58.1094H40.0801Z" fill="#525252"/>
<path d="M40.0801 61.4102V88.1369H110.16V61.4102H40.0801Z" fill="#575757"/>
<path d="M40.0801 64.7148V84.835H110.16V64.7148H40.0801Z" fill="#5C5C5C"/>
<path d="M40.0801 68.3164V81.5296H110.16V68.3164H40.0801Z" fill="#616161"/>
<path d="M40.0801 71.9219V77.9279H41.7601H43.2001H108.72H110.16V71.9219H108.72H107.04H105.36H41.7601H40.0801Z" fill="#666666"/>
<path d="M40.0801 37.3867V112.462H41.7601H43.2001H108.72H110.16V37.3867H108.72H107.04H105.36H41.7601H40.0801Z" stroke="black" stroke-width="0.379663"/>
<path d="M134.64 24.7734H150V125.074H134.64V24.7734Z" fill="#4C4C4C" stroke="black" stroke-width="0.379663"/>
<path d="M110.16 28.0781H119.76V121.772H110.16V28.0781Z" fill="#4C4C4C"/>
<path d="M69.8398 28.0781H79.9198V121.772H69.8398V28.0781Z" fill="#4C4C4C" stroke="black" stroke-width="0.379663"/>
<path d="M30 28.0781H40.08V121.772H30V28.0781Z" fill="#4C4C4C" stroke="black" stroke-width="0.379663"/>
<path d="M0 24.7734H15.12V125.074H0V24.7734Z" fill="#4C4C4C"/>
<path d="M135.12 29.2773H150V120.569H135.12V29.2773Z" fill="#545454"/>
<path d="M110.16 31.9805H119.76V117.566H110.16V31.9805Z" fill="#545454"/>
<path d="M69.8398 31.9805H79.9198V117.566H69.8398V31.9805Z" fill="#545454"/>
<path d="M30 31.9805H40.08V117.566H30V31.9805Z" fill="#545454"/>
<path d="M0.480469 29.2773H15.1205V120.569H0.480469V29.2773Z" fill="#545454"/>
<path d="M135.12 33.4844H150V116.067H135.12V33.4844Z" fill="#5C5C5C"/>
<path d="M110.16 36.1875H119.76V113.665H110.16V36.1875Z" fill="#5C5C5C"/>
<path d="M69.8398 36.1875H79.9198V113.665H69.8398V36.1875Z" fill="#5C5C5C"/>
<path d="M30 36.1875H40.08V113.665H30V36.1875Z" fill="#5C5C5C"/>
<path d="M0.480469 33.4844H15.1205V116.067H0.480469V33.4844Z" fill="#5C5C5C"/>
<path d="M135.12 37.9883H150V111.862H135.12V37.9883Z" fill="#636363"/>
<path d="M110.16 40.3906H119.76V109.46H110.16V40.3906Z" fill="#636363"/>
<path d="M69.8398 40.3906H79.9198V109.46H69.8398V40.3906Z" fill="#636363"/>
<path d="M30 40.3906H40.08V109.46H30V40.3906Z" fill="#636363"/>
<path d="M0.480469 37.9883H15.1205V111.862H0.480469V37.9883Z" fill="#636363"/>
<path d="M135.12 42.1914H150V107.357H135.12V42.1914Z" fill="#6B6B6B"/>
<path d="M110.16 44.293H119.76V105.254H110.16V44.293Z" fill="#6B6B6B"/>
<path d="M69.8398 44.293H79.9198V105.254H69.8398V44.293Z" fill="#6B6B6B"/>
<path d="M30 44.293H40.08V105.254H30V44.293Z" fill="#6B6B6B"/>
<path d="M0.480469 42.1914H15.1205V107.357H0.480469V42.1914Z" fill="#6B6B6B"/>
<path d="M135.12 46.6953H150V103.152H135.12V46.6953Z" fill="#737373"/>
<path d="M110.16 48.5H119.76V101.353H110.16V48.5Z" fill="#737373"/>
<path d="M69.8398 48.5H79.9198V101.353H69.8398V48.5Z" fill="#737373"/>
<path d="M30 48.5H40.08V101.353H30V48.5Z" fill="#737373"/>
<path d="M0.480469 46.6953H15.1205V103.152H0.480469V46.6953Z" fill="#737373"/>
<path d="M135.12 51.2031H150V98.6506H135.12V51.2031Z" fill="#7A7A7A"/>
<path d="M110.16 52.7031H119.76V97.1476H110.16V52.7031Z" fill="#7A7A7A"/>
<path d="M69.8398 52.7031H79.9198V97.1476H69.8398V52.7031Z" fill="#7A7A7A"/>
<path d="M30 52.7031H40.08V97.1476H30V52.7031Z" fill="#7A7A7A"/>
<path d="M0.480469 51.2031H15.1205V98.6506H0.480469V51.2031Z" fill="#7A7A7A"/>
<path d="M135.12 55.4062H150V94.145H135.12V55.4062Z" fill="#828282"/>
<path d="M110.16 56.6055H119.76V92.9418H110.16V56.6055Z" fill="#828282"/>
<path d="M69.8398 56.6055H79.9198V92.9418H69.8398V56.6055Z" fill="#828282"/>
<path d="M30 56.6055H40.08V92.9418H30V56.6055Z" fill="#828282"/>
<path d="M0.480469 55.4062H15.1205V94.145H0.480469V55.4062Z" fill="#828282"/>
<path d="M135.12 59.9102H150V89.9402H135.12V59.9102Z" fill="#8A8A8A"/>
<path d="M110.16 60.8125H119.76V89.0407H110.16V60.8125Z" fill="#8A8A8A"/>
<path d="M69.8398 60.8125H79.9198V89.0407H69.8398V60.8125Z" fill="#8A8A8A"/>
<path d="M30 60.8125H40.08V89.0407H30V60.8125Z" fill="#8A8A8A"/>
<path d="M0.480469 59.9102H15.1205V89.9402H0.480469V59.9102Z" fill="#8A8A8A"/>
<path d="M135.12 64.1133H150V85.4346H135.12V64.1133Z" fill="#919191"/>
<path d="M110.16 65.0156H119.76V84.8354H110.16V65.0156Z" fill="#919191"/>
<path d="M69.8398 65.0156H79.9198V84.8354H69.8398V65.0156Z" fill="#919191"/>
<path d="M30 65.0156H40.08V84.8354H30V65.0156Z" fill="#919191"/>
<path d="M0.480469 64.1133H15.1205V85.4346H0.480469V64.1133Z" fill="#919191"/>
<path d="M134.64 68.6172H150V81.2298H134.64V68.6172Z" fill="#999999"/>
<path d="M110.16 68.918H119.76V80.6297H110.16V68.918Z" fill="#999999"/>
<path d="M69.8398 68.918H79.9198V80.6297H69.8398V68.918Z" fill="#999999"/>
<path d="M30 68.918H40.08V80.6297H30V68.918Z" fill="#999999"/>
<path d="M0 68.6172H15.12V81.2298H0V68.6172Z" fill="#999999"/>
<path d="M110.16 28.0781H119.76V121.772H110.16V28.0781Z" stroke="black" stroke-width="0.379663"/>
<path d="M0 24.7734H15.12V125.074H0V24.7734Z" stroke="black" stroke-width="0.379663"/>
<path d="M135.12 150V0H119.76V150H135.12Z" fill="#7F0000" stroke="black" stroke-width="0.379663"/>
<path d="M30.0001 150V0H15.1201V150H30.0001Z" fill="#7F0000" stroke="black" stroke-width="0.379663"/>
<path d="M135.12 144.145V5.70703H120.24V144.145H135.12Z" fill="#8A0000"/>
<path d="M30.0001 144.145V5.70703H15.1201V144.145H30.0001Z" fill="#8A0000"/>
<path d="M135.12 138.589V11.2617H120.24V138.589H135.12Z" fill="#940000"/>
<path d="M30.0001 138.589V11.2617H15.1201V138.589H30.0001Z" fill="#940000"/>
<path d="M135.12 132.434V16.9688H120.24V132.434H135.12Z" fill="#9E0000"/>
<path d="M30.0001 132.434V16.9688H15.1201V132.434H30.0001Z" fill="#9E0000"/>
<path d="M135.12 126.876V22.6719H120.24V126.876H135.12Z" fill="#AB0000"/>
<path d="M30.0001 126.876V22.6719H15.1201V126.876H30.0001Z" fill="#AB0000"/>
<path d="M135.12 121.172V28.3789H120.24V121.172H135.12Z" fill="#B50000"/>
<path d="M30.0001 121.172V28.3789H15.1201V121.172H30.0001Z" fill="#B50000"/>
<path d="M135.12 115.467V34.0859H120.24V115.467H135.12Z" fill="#BF0000"/>
<path d="M30.0001 115.467V34.0859H15.1201V115.467H30.0001Z" fill="#BF0000"/>
<path d="M135.12 109.759V39.7891H120.24V109.759H135.12Z" fill="#C90000"/>
<path d="M30.0001 109.759V39.7891H15.1201V109.759H30.0001Z" fill="#C90000"/>
<path d="M135.12 104.055V45.7969H120.24V104.055H135.12Z" fill="#D40000"/>
<path d="M30.0001 104.055V45.7969H15.1201V104.055H30.0001Z" fill="#D40000"/>
<path d="M135.12 98.3468V51.5H120.24V98.3468H135.12Z" fill="#DE0000"/>
<path d="M30.0001 98.3468V51.5H15.1201V98.3468H30.0001Z" fill="#DE0000"/>
<path d="M135.12 92.6425V57.207H120.24V92.6425H135.12Z" fill="#EB0000"/>
<path d="M30.0001 92.6425V57.207H15.1201V92.6425H30.0001Z" fill="#EB0000"/>
<path d="M135.12 86.9381V62.9141H120.24V86.9381H135.12Z" fill="#F50000"/>
<path d="M30.0001 86.9381V62.9141H15.1201V86.9381H30.0001Z" fill="#F50000"/>
<path d="M135.12 81.2298V68.6172H119.76V81.2298H135.12Z" fill="#FF0000"/>
<path d="M30.0001 81.2298V68.6172H15.1201V81.2298H30.0001Z" fill="#FF0000"/>
<path d="M15.1201 2.85156L19.9201 6.15487V15.9146L15.1201 19.2179V28.3771L19.9201 31.6804V41.29L15.1201 44.5933V54.2029L19.9201 57.2059V66.8155L15.1201 70.1188V79.7284L19.9201 83.0317V92.3411L15.1201 95.6444V105.254L19.9201 108.557V118.167L15.1201 121.17V130.629L19.9201 133.933V143.692L15.1201 146.695" stroke="black" stroke-width="0.379663"/>
<path d="M135.12 146.695L129.84 143.692V133.933L135.12 130.629V121.17L129.84 117.867V108.257L135.12 105.254V95.6444L129.84 92.3411V82.7314L135.12 79.7284V70.1188L129.84 66.8155V57.2059L135.12 53.9026V44.293L129.84 41.29V31.6804L135.12 28.3771V18.7675L129.84 15.9146V6.15487L135.12 2.85156" stroke="black" stroke-width="0.379663"/>
<path d="M75.1201 118.77V31.082" stroke="#B2B2B2" stroke-width="0.379663"/>
</g>
<defs>
<clipPath id="clip0_2109_191105">
<rect width="150" height="150" fill="white"/>
</clipPath>
</defs>
</svg>
