<svg width="150" height="150" viewBox="0 0 150 150" fill="none" xmlns="http://www.w3.org/2000/svg">
<g clip-path="url(#clip0_2109_191063)">
<path d="M124.948 150L150 143.994V0L124.948 5.85586V150Z" fill="#CCCCCC" stroke="black" stroke-width="0.433681"/>
<path d="M0 5.85547H137.474V150H0V5.85547Z" fill="#F2F2F2" stroke="black" stroke-width="0.433681"/>
<path d="M12.2129 11.8633H124.948V89.9414H12.2129V11.8633Z" fill="#F2F2F2" stroke="black" stroke-width="0.433681"/>
<path d="M12.2129 89.9414H124.948V143.995H12.2129V89.9414Z" fill="#E5E5E5" stroke="black" stroke-width="0.433681"/>
<path d="M18.4756 92.9414H118.684V140.989H18.4756V92.9414Z" fill="#666666" stroke="black" stroke-width="0.433681"/>
<path d="M21.6074 94.4453H67.3277V97.4483H21.6074V94.4453Z" fill="#D9D9D9"/>
<path d="M21.6074 100.449H67.3277V103.452H21.6074V100.449Z" fill="#D9D9D9"/>
<path d="M21.6074 106.457H67.3277V109.46H21.6074V106.457Z" fill="#D9D9D9"/>
<path d="M21.6074 112.461H67.3277V115.464H21.6074V112.461Z" fill="#D9D9D9"/>
<path d="M21.6074 118.469H67.3277V121.472H21.6074V118.469Z" fill="#D9D9D9"/>
<path d="M21.6074 124.473H67.3277V127.476H21.6074V124.473Z" fill="#D9D9D9"/>
<path d="M21.6074 130.48H67.3277V133.483H21.6074V130.48Z" fill="#D9D9D9"/>
<path d="M21.6074 136.488H67.3277V139.491H21.6074V136.488Z" fill="#D9D9D9"/>
<path d="M69.833 94.4453H115.553V97.4483H69.833V94.4453Z" fill="#D9D9D9"/>
<path d="M69.833 100.449H115.553V103.452H69.833V100.449Z" fill="#D9D9D9"/>
<path d="M69.833 106.457H115.553V109.46H69.833V106.457Z" fill="#D9D9D9"/>
<path d="M69.833 112.461H115.553V115.464H69.833V112.461Z" fill="#D9D9D9"/>
<path d="M69.833 118.469H115.553V121.472H69.833V118.469Z" fill="#D9D9D9"/>
<path d="M69.833 124.473H115.553V127.476H69.833V124.473Z" fill="#D9D9D9"/>
<path d="M69.833 130.48H115.553V133.483H69.833V130.48Z" fill="#D9D9D9"/>
<path d="M69.833 136.488H115.553V139.491H69.833V136.488Z" fill="#D9D9D9"/>
<path d="M68.5802 35.8852C78.9571 35.8852 87.3693 31.8517 87.3693 26.8762C87.3693 21.9007 78.9571 17.8672 68.5802 17.8672C58.2032 17.8672 49.791 21.9007 49.791 26.8762C49.791 31.8517 58.2032 35.8852 68.5802 35.8852Z" fill="#7F7F7F" stroke="black" stroke-width="0.433681"/>
<path d="M68.5805 26.8781L52.9229 28.9802V26.8781L53.236 25.3766L54.1755 23.8751L55.7412 22.6739L57.6201 21.4727L59.8122 20.4217L62.6306 19.8211L65.4489 19.2205L68.5805 19.0703L72.0251 19.2205L74.8435 19.8211L77.6619 20.4217L80.1671 21.4727L82.046 22.6739L83.6118 23.8751L84.5512 25.3766L84.8644 26.8781L84.5512 28.5298L84.2381 28.9802L68.5805 26.8781Z" fill="white"/>
<path d="M55.4277 23.875H81.7325V25.6768H55.4277V23.875Z" fill="#FF0000"/>
<path d="M64.1963 23.875H73.5909V25.6768H64.1963V23.875Z" fill="#00FF00"/>
<path d="M66.7012 27.1778V27.0276V26.8775L67.0143 26.5772L67.3275 26.2769L67.9538 26.1267L68.5801 25.9766L69.5195 26.1267L70.1458 26.2769L70.459 26.5772V26.8775V27.0276V27.1778" stroke="black" stroke-width="0.433681"/>
<path d="M68.5801 25.9767L69.2064 21.1719V25.9767H68.5801Z" fill="black" stroke="black" stroke-width="0.433681"/>
<path d="M40.3965 90.8398H56.0541V92.3413H40.3965V90.8398Z" fill="#FF7F7F"/>
<path d="M52.9229 43.3945H103.027V44.896H52.9229V43.3945Z" fill="#00FF00"/>
<path d="M52.9229 46.3945H76.0961V47.2954H52.9229V46.3945Z" fill="#333333"/>
<path d="M52.9229 47.8984H76.0961V48.7993H52.9229V47.8984Z" fill="#333333"/>
<path d="M49.7914 44.8951L34.1338 40.3906V44.8951H49.7914Z" fill="#00FF00" stroke="#CCCCCC" stroke-width="0.433681"/>
<path d="M34.1338 40.3906L49.7914 44.8951V40.3906H34.1338Z" fill="white" stroke="#CCCCCC" stroke-width="0.433681"/>
<path d="M150 0L124.948 5.85586H12.2129L37.2651 0H150Z" fill="white" stroke="black" stroke-width="0.433681"/>
<path d="M89.2484 78.0789L86.7432 77.6285L85.8037 76.4273L86.7432 75.3762L89.2484 74.9258L91.4405 75.3762L92.3799 76.4273L91.4405 77.6285L89.2484 78.0789Z" fill="#4C4C4C"/>
<path d="M89.2484 71.7703L86.7432 71.3199L85.8037 70.2688L86.7432 69.0676L89.2484 68.6172L91.4405 69.0676L92.3799 70.2688L91.4405 71.3199L89.2484 71.7703Z" fill="#4C4C4C"/>
<path d="M89.2484 65.4639L86.7432 65.0135L85.8037 63.9624L86.7432 62.9114L89.2484 62.4609L91.4405 62.9114L92.3799 63.9624L91.4405 65.0135L89.2484 65.4639Z" fill="#4C4C4C"/>
<path d="M89.2484 59.3094L86.7432 58.859L85.8037 57.6578L86.7432 56.6067L89.2484 56.1562L91.4405 56.6067L92.3799 57.6578L91.4405 58.859L89.2484 59.3094Z" fill="#4C4C4C"/>
<path d="M89.2484 53.003L86.7432 52.5526L85.8037 51.5015L86.7432 50.3003L89.2484 50L91.4405 50.3003L92.3799 51.5015L91.4405 52.5526L89.2484 53.003Z" fill="#4C4C4C"/>
</g>
<defs>
<clipPath id="clip0_2109_191063">
<rect width="150" height="150" fill="white"/>
</clipPath>
</defs>
</svg>
