<svg width="150" height="150" viewBox="0 0 150 150" fill="none" xmlns="http://www.w3.org/2000/svg">
<g clip-path="url(#clip0_2109_190032)">
<path d="M0 0H146.096V150H0V0Z" fill="#CCCCCC"/>
<path d="M0 75.1156L146.096 0V75.1156L0 150V75.1156Z" fill="#F2F2F2"/>
<path d="M0 0H146.096V150H0V0Z" stroke="black" stroke-width="0.372577"/>
<path d="M2.85254 4.39062H142.943V145.377H2.85254V4.39062Z" fill="black"/>
<path d="M12.3125 18.9531H134.084V131.049H12.3125V18.9531Z" fill="#330000"/>
<path d="M16.3662 18.9531H129.88V131.049H16.3662V18.9531Z" fill="#3D0000"/>
<path d="M20.2705 18.9531H125.676V131.049H20.2705V18.9531Z" fill="#450000"/>
<path d="M24.4746 18.9531H121.472V131.049H24.4746V18.9531Z" fill="#4F0000"/>
<path d="M28.6787 18.9531H117.568V131.049H28.6787V18.9531Z" fill="#570000"/>
<path d="M32.8828 18.9531H113.363V131.049H32.8828V18.9531Z" fill="#610000"/>
<path d="M36.7871 18.9531H109.159V131.049H36.7871V18.9531Z" fill="#690300"/>
<path d="M40.9912 18.9531H104.955V131.049H40.9912V18.9531Z" fill="#730D00"/>
<path d="M45.1953 18.9531H101.051V131.049H45.1953V18.9531Z" fill="#7D1700"/>
<path d="M49.3994 18.9531H96.8469V131.049H49.3994V18.9531Z" fill="#851F00"/>
<path d="M53.6035 18.9531H92.6426V131.049H53.6035V18.9531Z" fill="#8F2900"/>
<path d="M57.5078 18.9531H88.4387V131.049H57.5078V18.9531Z" fill="#963000"/>
<path d="M61.7119 18.9531H84.5347V131.049H61.7119V18.9531Z" fill="#A13B08"/>
<path d="M65.916 18.9531H80.3304V131.049H65.916V18.9531Z" fill="#A8420F"/>
<path d="M70.1201 18.9531H76.1261V131.049H70.1201V18.9531Z" fill="#B24C19"/>
<path d="M9.15918 24.2695H136.937V29.3543H9.15918V24.2695Z" fill="#4C4C4C" stroke="black" stroke-width="0.372577"/>
<path d="M9.15918 44.6055H136.937V49.228H9.15918V44.6055Z" fill="#4C4C4C" stroke="black" stroke-width="0.372577"/>
<path d="M9.15918 63.0977H136.937V67.7202H9.15918V63.0977Z" fill="#4C4C4C" stroke="black" stroke-width="0.372577"/>
<path d="M9.15918 82.0508H136.937V86.6733H9.15918V82.0508Z" fill="#4C4C4C" stroke="black" stroke-width="0.372577"/>
<path d="M9.15918 100.539H136.937V105.624H9.15918V100.539Z" fill="#4C4C4C" stroke="black" stroke-width="0.372577"/>
<path d="M9.15918 119.492H136.937V124.115H9.15918V119.492Z" fill="#4C4C4C" stroke="black" stroke-width="0.372577"/>
<path d="M9.15918 26.1172H136.937V27.7351H9.15918V26.1172Z" fill="#A13B08"/>
<path d="M9.15918 45.9922H136.937V47.3789H9.15918V45.9922Z" fill="#A13B08"/>
<path d="M9.15918 64.9453H136.937V65.8698H9.15918V64.9453Z" fill="#A13B08"/>
<path d="M9.15918 83.8984H136.937V84.8229H9.15918V83.8984Z" fill="#A13B08"/>
<path d="M9.15918 102.387H136.937V103.773H9.15918V102.387Z" fill="#A13B08"/>
<path d="M9.15918 121.34H136.937V122.264H9.15918V121.34Z" fill="#A13B08"/>
<path d="M146.096 43.2188H150V106.547H146.096V43.2188Z" fill="#B2B2B2" stroke="black" stroke-width="0.372577"/>
</g>
<defs>
<clipPath id="clip0_2109_190032">
<rect width="150" height="150" fill="white"/>
</clipPath>
</defs>
</svg>
