<svg width="150" height="150" viewBox="0 0 150 150" fill="none" xmlns="http://www.w3.org/2000/svg">
<path d="M25.8928 105.855H7.44043V28.5282H32.1428V25.375H1.19043V109.009H25.8928V105.855Z" fill="#7F1900" stroke="black" stroke-width="0.422789"/>
<path d="M32.1424 27.0273H4.46387V107.358H25.8924" stroke="#FFCC00" stroke-width="0.422789"/>
<path d="M80.9521 0.601562V3.75472H105.655V0.601562H80.9521Z" fill="#999999"/>
<path d="M85.7139 0.75V3.753H100.892V0.75H85.7139Z" fill="#CCCCCC"/>
<path d="M91.667 0.601562V3.75472H94.9408V0.601562H91.667Z" fill="white"/>
<path d="M80.9521 0.601562V3.75472H105.655V0.601562H80.9521Z" stroke="black" stroke-width="0.422789"/>
<path d="M124.107 57.207V62.6124H142.56V57.207H124.107Z" fill="#4C4C4C"/>
<path d="M32.1426 57.207V62.6124H50.2973V57.207H32.1426Z" fill="#4C4C4C"/>
<path d="M127.381 57.207V62.6124H138.988V57.207H127.381Z" fill="#7F7F7F"/>
<path d="M35.417 57.207V62.6124H47.0241V57.207H35.417Z" fill="#7F7F7F"/>
<path d="M75 57.207V62.6124H93.4524V57.207H75Z" fill="#7F7F7F"/>
<path d="M78.5713 57.207V62.6124H89.8808V57.207H78.5713Z" fill="#B2B2B2"/>
<path d="M132.143 57.207V62.6124H134.524V57.207H132.143Z" fill="#B2B2B2"/>
<path d="M40.1787 57.207V62.6124H42.262V57.207H40.1787Z" fill="#B2B2B2"/>
<path d="M148.512 142.944V62.6133H25.8926V142.944L26.1902 143.694L33.3331 145.947L44.0473 147.298L52.9759 148.199L63.3926 148.649L74.7021 149.1L87.2021 149.25L99.4045 149.1L111.012 148.649L121.428 148.199L130.654 147.298L141.071 145.947L148.214 143.694L148.512 142.944Z" fill="#999999" stroke="black" stroke-width="0.422789"/>
<path d="M140.774 145.644V62.4609H33.9287V145.644L49.1073 147.596L67.262 148.797L87.2025 149.098L107.441 148.797L125.595 147.596L140.774 145.644Z" fill="#ABABAB"/>
<path d="M132.738 146.695V62.4609H41.667V146.695L70.2384 148.797L87.2027 149.098L104.465 148.797L132.738 146.695Z" fill="#B8B8B8"/>
<path d="M125 147.296V62.4609H49.7021V147.296L73.2141 148.797L87.2022 149.098L101.488 148.797L125 147.296Z" fill="#C4C4C4"/>
<path d="M116.964 147.896V62.4609H57.4404V147.896L76.1904 148.797L87.2023 149.098L98.5119 148.797L116.964 147.896Z" fill="#D1D1D1"/>
<path d="M109.226 148.497V62.4609H65.1787V148.497L87.2025 149.098L109.226 148.497Z" fill="#DEDEDE"/>
<path d="M101.19 148.347V62.4609H73.2139V148.347L77.3805 148.647L87.202 149.098L97.321 148.647L101.19 148.347Z" fill="#EBEBEB"/>
<path d="M93.4521 148.95V62.6133H80.9521V148.95H81.5474H82.7379H84.8212L87.2021 149.25L89.5831 148.95H91.6664H92.8569H93.4521Z" fill="#F7F7F7"/>
<path d="M25.8926 62.6133H148.512V65.6163H25.8926V62.6133Z" fill="#4C4C4C"/>
<path d="M148.512 142.944V139.941L148.214 140.542L141.071 142.794L130.654 144.296L121.428 145.047L111.012 145.497L99.4045 145.947L87.2021 146.098L74.7021 145.947L63.3926 145.497L52.9759 145.047L44.0473 144.296L33.3331 142.794L26.1902 140.542L25.8926 139.941V142.944L26.1902 143.695L33.3331 145.947L44.0473 147.299L52.9759 148.2L63.3926 148.65L74.7021 149.101H80.9521L87.2021 149.251L93.4521 149.101L105.357 148.95L116.369 148.5L126.19 147.749L134.524 146.848L143.75 145.347L148.214 143.695L148.512 142.944Z" fill="#4C4C4C"/>
<path d="M83.0361 57.207V62.6124H85.4171V57.207H83.0361Z" fill="#E5E5E5"/>
<path d="M25.8926 56.3065H136.309V40.841L140.774 37.838V16.0662H145.535V3.75391H44.345V16.2164H32.1426V37.838L25.8926 40.841V56.3065Z" fill="#CCCCCC" stroke="black" stroke-width="0.422789"/>
<path d="M25.8926 40.8389H136.309L140.774 37.8359H32.1426L25.8926 40.8389Z" fill="#E5E5E5" stroke="black" stroke-width="0.422789"/>
<path d="M136.31 56.3065L148.512 57.2074V3.75391H145.536V16.2164H140.774V37.838L136.31 40.841V56.3065Z" fill="#B2B2B2" stroke="black" stroke-width="0.422789"/>
<path d="M44.3457 16.2148H142.56" stroke="black" stroke-width="0.422789"/>
<path d="M38.0957 20.7227H80.9528V33.1851H38.0957V20.7227Z" fill="#E5E5E5"/>
<path d="M38.0957 33.1851H80.9528V20.7227" stroke="#7F7F7F" stroke-width="0.422789"/>
<path d="M148.512 57.2056L136.309 56.3047H25.8926V57.2056H148.512Z" fill="black"/>
<path d="M45.833 17.7188H130.059V19.2203H45.833V17.7188Z" fill="#999999"/>
<path d="M45.833 34.6836H130.059V36.3352H45.833V34.6836Z" fill="#999999"/>
<path d="M41.9646 140.69C48.375 140.69 53.5717 136.186 53.5717 130.63C53.5717 125.074 48.375 120.57 41.9646 120.57C35.5541 120.57 30.3574 125.074 30.3574 130.63C30.3574 136.186 35.5541 140.69 41.9646 140.69Z" fill="#333333"/>
<path d="M25.8932 118.167H16.667V50.1492H25.8932V46.9961H10.417V121.32H25.8932V118.167Z" fill="#7F1900" stroke="black" stroke-width="0.422789"/>
<path d="M25.8928 48.6484H13.6904V119.82H25.8928" stroke="#FFCC00" stroke-width="0.422789"/>
</svg>
