<svg width="150" height="150" viewBox="0 0 150 150" fill="none" xmlns="http://www.w3.org/2000/svg">
<g clip-path="url(#clip0_2109_189829)">
<path d="M7.95796 145.083H4.05405V150.001H0V126.113H4.05405V131.031H7.95796V145.083Z" fill="#859999"/>
<path d="M7.95796 24.2396H4.05405V29.1577H0V5.97266H4.05405V10.1881H7.95796V24.2396Z" fill="#859999" stroke="black" stroke-width="0.45933"/>
<path d="M141.892 131.031H145.796V126.113H150V150.001H145.796V145.083H141.892V131.031Z" fill="#859999"/>
<path d="M141.892 10.1881H145.796V5.97266H150V29.1577H145.796V24.2396H141.892V10.1881Z" fill="#859999"/>
<path d="M141.892 133.842H145.796V131.031H150V145.083H145.796V142.272H141.892V133.842Z" fill="#D1D9D9"/>
<path d="M141.892 12.9978H145.796V10.1875H150V24.239H145.796V21.4287H141.892V12.9978Z" fill="#D1D9D9"/>
<path d="M7.95796 142.272H4.05405V145.083H0V131.031H4.05405V133.842H7.95796V142.272Z" fill="#D1D9D9"/>
<path d="M7.95796 21.4287H4.05405V24.239H0V10.1875H4.05405V12.9978H7.95796V21.4287Z" fill="#D1D9D9"/>
<path d="M4.05371 10.1875V24.239" stroke="black" stroke-width="0.45933"/>
<path d="M7.95796 145.083H4.05405V150.001H0V126.113H4.05405V131.031H7.95796V145.083Z" stroke="black" stroke-width="0.45933"/>
<path d="M4.05371 131.031V145.083" stroke="black" stroke-width="0.45933"/>
<path d="M141.892 131.031H145.796V126.113H150V150.001H145.796V145.083H141.892V131.031Z" stroke="black" stroke-width="0.45933"/>
<path d="M145.796 145.083V131.031" stroke="black" stroke-width="0.45933"/>
<path d="M141.892 10.1881H145.796V5.97266H150V29.1577H145.796V24.2396H141.892V10.1881Z" stroke="black" stroke-width="0.45933"/>
<path d="M145.796 24.239V10.1875" stroke="black" stroke-width="0.45933"/>
<path d="M7.95801 5.97266H141.892V150.001H7.95801V5.97266Z" fill="#98B2B2" stroke="black" stroke-width="0.45933"/>
<path d="M13.3633 0H136.486V150H13.3633V0Z" fill="#CCCCCC" stroke="black" stroke-width="0.45933"/>
<path d="M18.7686 12.2969H72.222V137.355H18.7686V12.2969Z" fill="#004C4C"/>
<path d="M77.6279 12.2969H131.081V137.355H77.6279V12.2969Z" fill="#004C4C"/>
<path d="M131.381 124.707H18.7686" stroke="#CCCCCC" stroke-width="0.45933"/>
<path d="M18.7686 99.4141H131.381" stroke="#CCCCCC" stroke-width="0.45933"/>
<path d="M131.381 74.1211H18.7686" stroke="#CCCCCC" stroke-width="0.45933"/>
<path d="M18.7686 49.5312H131.381" stroke="#CCCCCC" stroke-width="0.45933"/>
<path d="M18.7686 24.2383H131.381" stroke="#CCCCCC" stroke-width="0.45933"/>
<path d="M18.7686 0V150" stroke="black" stroke-width="0.45933"/>
<path d="M131.382 0V150" stroke="black" stroke-width="0.45933"/>
<path d="M18.7686 137.355H131.381" stroke="black" stroke-width="0.45933"/>
<path d="M18.7686 12.2969H131.381" stroke="black" stroke-width="0.45933"/>
<path d="M21.4717 12.2969V137.355" stroke="#004C4C" stroke-width="0.45933"/>
<path d="M31.9824 12.2969V137.355" stroke="#004C4C" stroke-width="0.45933"/>
<path d="M42.793 12.2969V137.355" stroke="#004C4C" stroke-width="0.45933"/>
<path d="M53.6035 12.2969V137.355" stroke="#004C4C" stroke-width="0.45933"/>
<path d="M64.4141 12.2969V137.355" stroke="#004C4C" stroke-width="0.45933"/>
<path d="M85.7354 12.2969V137.355" stroke="#004C4C" stroke-width="0.45933"/>
<path d="M96.2461 12.2969V137.355" stroke="#004C4C" stroke-width="0.45933"/>
<path d="M107.057 12.2969V137.355" stroke="#004C4C" stroke-width="0.45933"/>
<path d="M117.868 12.2969V137.355" stroke="#004C4C" stroke-width="0.45933"/>
<path d="M128.679 12.2969V137.355" stroke="#004C4C" stroke-width="0.45933"/>
<path d="M18.7686 131.031H131.381" stroke="#CCCCCC" stroke-width="0.45933"/>
<path d="M18.7686 118.383H131.381" stroke="#CCCCCC" stroke-width="0.45933"/>
<path d="M18.7686 112.062H131.381" stroke="#CCCCCC" stroke-width="0.45933"/>
<path d="M131.381 105.738H18.7686" stroke="#CCCCCC" stroke-width="0.45933"/>
<path d="M131.381 93.0898H18.7686" stroke="#CCCCCC" stroke-width="0.45933"/>
<path d="M18.7686 86.7695H131.381" stroke="#CCCCCC" stroke-width="0.45933"/>
<path d="M18.7686 80.4453H131.381" stroke="#CCCCCC" stroke-width="0.45933"/>
<path d="M18.7686 68.5H131.381" stroke="#CCCCCC" stroke-width="0.45933"/>
<path d="M131.381 62.1797H18.7686" stroke="#CCCCCC" stroke-width="0.45933"/>
<path d="M18.7686 55.8555H131.381" stroke="#CCCCCC" stroke-width="0.45933"/>
<path d="M131.381 43.207H18.7686" stroke="#CCCCCC" stroke-width="0.45933"/>
<path d="M18.7686 36.8867H131.381" stroke="#CCCCCC" stroke-width="0.45933"/>
<path d="M131.381 30.5625H18.7686" stroke="#CCCCCC" stroke-width="0.45933"/>
<path d="M18.7686 18.6172H131.381" stroke="#CCCCCC" stroke-width="0.45933"/>
</g>
<defs>
<clipPath id="clip0_2109_189829">
<rect width="150" height="150" fill="white"/>
</clipPath>
</defs>
</svg>
