<svg width="150" height="150" viewBox="0 0 150 150" fill="none" xmlns="http://www.w3.org/2000/svg">
<g clip-path="url(#clip0_2109_189114)">
<path d="M27.2314 144.445H35.174V150.001H27.2314V144.445Z" fill="black"/>
<path d="M133.661 144.445H141.831V150.001H133.661V144.445Z" fill="black"/>
<path d="M78.7441 144.445H86.9136V150.001H78.7441V144.445Z" fill="black"/>
<path d="M19.0625 0H150V144.444H19.0625V0Z" fill="#F2E5CC"/>
<path d="M19.0625 102.552L150 42.1914V144.444H19.0625V102.552Z" fill="#EDE0C7"/>
<path d="M19.0625 108.56L150 48.1992V144.445H19.0625V108.56Z" fill="#E8DBC2"/>
<path d="M19.0625 117.567L150 57.207V144.444H19.0625V117.567Z" fill="#E3D6BD"/>
<path d="M19.0625 0H150V144.444H19.0625V0Z" stroke="black" stroke-width="0.36918"/>
<path d="M19.0615 7.05859H13.6152L2.72266 17.8694V65.0166H19.0615V7.05859Z" fill="#F2E5CC" stroke="black" stroke-width="0.36918"/>
<path d="M24.5078 7.05859H90.0903V61.4129H24.5078V7.05859Z" stroke="#B2A58C" stroke-width="0.36918"/>
<path d="M40.6201 65.0156H73.7517V72.2228H40.6201V65.0156Z" fill="#333333"/>
<path d="M133.661 140.841V101.051" stroke="#FFF2D9" stroke-width="0.36918"/>
<path d="M128.215 140.841V101.051" stroke="#B2A58C" stroke-width="0.36918"/>
<path d="M122.769 83.0312H139.107V93.8421H122.769V83.0312Z" fill="#EBDEC5"/>
<path d="M129.576 90.2403L128.215 89.3394V87.8379L129.576 86.6367H131.846L133.661 87.8379V89.3394L131.846 90.2403H129.576Z" stroke="#B2A58C" stroke-width="0.36918"/>
<path d="M56.5055 121.77L54.917 119.668L56.5055 117.266H60.5902L62.6326 119.668L60.5902 121.77H56.5055Z" fill="#B2A58C"/>
<path d="M42.6625 107.356L40.6201 105.254L42.6625 102.852H46.5203L48.3357 105.254L46.5203 107.356H42.6625Z" fill="#B2A58C"/>
<path d="M56.5056 15.6151L54.2363 13.0626L56.5056 10.6602H60.5903L62.6327 13.0626L60.5903 15.6151H56.5056Z" fill="#4C3F26"/>
<path d="M0 65.0162L2.72315 62.9141" stroke="black" stroke-width="0.36918"/>
<path d="M0 21.7701L2.72315 19.668" stroke="black" stroke-width="0.36918"/>
<path d="M0 30.481L2.72315 28.3789" stroke="black" stroke-width="0.36918"/>
<path d="M0 39.1876L2.72315 36.7852" stroke="black" stroke-width="0.36918"/>
<path d="M0 47.5982L2.72315 45.4961" stroke="black" stroke-width="0.36918"/>
<path d="M0 56.3052L2.72315 54.2031" stroke="black" stroke-width="0.36918"/>
</g>
<defs>
<clipPath id="clip0_2109_189114">
<rect width="150" height="150" fill="white"/>
</clipPath>
</defs>
</svg>
