<svg width="150" height="150" viewBox="0 0 150 150" fill="none" xmlns="http://www.w3.org/2000/svg">
<g clip-path="url(#clip0_2109_190306)">
<path d="M98.9486 115.767L83.0327 118.77H66.8165L50.9006 115.767L36.4862 110.061L24.9246 101.953L16.8165 91.7427L12.6123 80.6316V69.2202L16.8165 58.1091L24.9246 47.8988L36.4862 39.7907L50.9006 34.085L66.8165 31.082H83.0327L98.9486 34.085L113.363 39.7907L124.925 47.8988L133.033 58.1091L137.237 69.2202V80.6316L133.033 91.7427L124.925 101.953L113.363 110.061L98.9486 115.767Z" fill="#CCFFFF"/>
<path d="M98.9488 115.767L83.0329 118.77H66.8167L50.9007 115.767L36.4863 110.061L74.9248 68.6196L50.9007 34.085L66.8167 31.082H83.0329L98.9488 34.085L74.9248 68.6196L113.363 110.061L98.9488 115.767Z" fill="#BFF2F2"/>
<path d="M98.9484 115.767L83.0325 118.77H66.8163L50.9004 115.767L74.9244 68.6196L66.8163 31.082H83.0325L74.9244 68.6196L98.9484 115.767Z" fill="#E5FFFF"/>
<path d="M98.9486 115.767L83.0327 118.77H66.8165L50.9006 115.767L36.4862 110.061L24.9246 101.953L16.8165 91.7427L12.6123 80.6316V69.2202L16.8165 58.1091L24.9246 47.8988L36.4862 39.7907L50.9006 34.085L66.8165 31.082H83.0327L98.9486 34.085L113.363 39.7907L124.925 47.8988L133.033 58.1091L137.237 69.2202V80.6316L133.033 91.7427L124.925 101.953L113.363 110.061L98.9486 115.767Z" stroke="black" stroke-width="0.3003"/>
<path d="M137.237 80.6309L133.033 91.7421L124.925 101.952L113.363 110.06L98.9486 115.766L83.0327 118.769H66.8165L50.9006 115.766L36.4862 110.06L24.9246 101.952L16.8165 91.7421L12.6123 80.6309V77.0273L16.8165 87.5379L24.9246 96.8472L36.4862 104.355L50.9006 109.76L66.8165 112.463H83.0327L98.9486 109.76L113.363 104.355L124.925 96.8472L133.033 87.5379L137.237 77.0273V80.6309Z" fill="#99CCCC" stroke="black" stroke-width="0.3003"/>
<path d="M64.7147 0L45.7958 5.1051L28.8288 14.8649L14.8649 28.8288L5.1051 45.7958L0 65.015V84.8348L5.1051 103.754L14.8649 120.871L28.979 134.985L46.0961 144.745L65.015 150H84.8348L103.754 144.745L120.871 134.985L134.985 120.871L144.745 103.754L150 84.8348V65.015L144.745 45.7958L134.985 28.979L121.021 14.8649L103.754 5.1051L84.8348 0H64.7147L67.1171 2.85285H83.033L98.949 7.65766L113.363 17.2673L124.925 30.7808L133.033 46.997L137.237 65.3153V84.2342L133.033 102.553L124.925 119.069L113.363 132.583L98.949 141.892L83.033 146.997H66.8168L50.9009 141.892L36.4865 132.583L24.9249 119.069L16.8168 102.553L12.6126 84.2342V65.3153L16.8168 46.997L24.9249 30.7808L36.4865 17.2673L50.6006 7.95796L67.1171 2.85285L64.7147 0Z" fill="#CBE5E5"/>
<path d="M103.754 144.745L84.8348 150H65.015L46.0961 144.745L28.979 134.985L14.8649 120.871L5.10511 103.754L0 84.8348V65.015L5.10511 45.7958L14.8649 28.979L28.979 14.8649L46.0961 5.10511L65.015 0H84.8348L103.754 5.10511L121.021 14.8649L134.985 28.979L144.745 46.0961L150 65.015V84.8348L144.745 103.754L134.985 120.871L120.871 134.985L103.754 144.745Z" stroke="black" stroke-width="0.3003"/>
<path d="M98.9486 141.891L83.0327 146.996H66.8165L50.9006 141.891L36.4862 132.581L24.9246 119.068L16.8165 102.852L12.6123 84.5332V65.314L16.8165 46.9957L24.9246 30.7795L36.4862 17.266L50.9006 7.95667L66.8165 2.85156H83.0327L98.9486 7.65637L113.363 17.266L124.925 30.7795L133.033 46.9957L137.237 65.314V84.2329L133.033 102.551L124.925 119.068L113.363 132.581L98.9486 141.891Z" stroke="black" stroke-width="0.3003"/>
<path d="M101.352 144.745L115.165 134.985L127.478 120.871L136.186 103.754L140.541 84.8352V65.0154L136.186 45.7962L127.478 28.9793L115.165 14.8652L101.352 5.10547L119.069 14.8652L132.282 28.9793L141.892 45.7962L146.697 65.0154V84.8352L141.892 103.754L132.583 120.871L119.069 134.985L101.352 144.745Z" fill="#E5FFFF"/>
<path d="M48.4982 144.745L34.6844 134.985L22.3721 120.871L13.6634 103.754L9.309 84.8352V65.0154L13.6634 45.7962L22.3721 28.8292L34.6844 14.8652L48.1979 5.10547L30.7805 14.8652L17.267 28.8292L7.95764 45.7962L2.85254 65.0154V84.8352L7.95764 103.754L17.267 120.871L30.7805 134.985L48.4982 144.745Z" fill="#E5FFFF"/>
<path d="M12.6123 65.6172H137.237V71.6232H12.6123V65.6172Z" fill="#99CCCC"/>
<path d="M12.6123 63.2148H137.237V65.6172H12.6123V63.2148Z" fill="#CCFFFF"/>
<path d="M12.6123 63.2148H137.237V71.6233H12.6123V63.2148Z" stroke="black" stroke-width="0.3003"/>
<path d="M13.2129 65.6172H135.886" stroke="black" stroke-width="0.3003"/>
</g>
<defs>
<clipPath id="clip0_2109_190306">
<rect width="150" height="150" fill="white"/>
</clipPath>
</defs>
</svg>
