<svg width="150" height="150" viewBox="0 0 150 150" fill="none" xmlns="http://www.w3.org/2000/svg">
<g clip-path="url(#clip0_2109_188551)">
<path d="M57.8078 25.3812L60.3603 16.7586L67.8679 7.97338L80.03 2.44193L93.3934 0.652344H113.664L127.027 2.44193L139.039 7.97338L146.697 16.7586L149.249 26.3573V123.646L146.697 133.245L139.039 142.03L127.027 147.561L113.664 149.351H93.3934L80.03 147.561L67.8679 142.03L60.3603 133.245L57.8078 124.622H0.600586V25.3812H57.8078Z" fill="#FF7F00" stroke="black" stroke-width="0.312589"/>
<path d="M57.8076 124.62V25.3789" stroke="black" stroke-width="0.312589"/>
<path d="M92.042 149.351V0.652344" stroke="black" stroke-width="0.312589"/>
<path d="M115.015 149.351V0.652344" stroke="black" stroke-width="0.312589"/>
<path d="M29.1289 74.8355C33.8556 74.8355 37.6874 66.5319 37.6874 56.2888C37.6874 46.0458 33.8556 37.7422 29.1289 37.7422C24.4021 37.7422 20.5703 46.0458 20.5703 56.2888C20.5703 66.5319 24.4021 74.8355 29.1289 74.8355Z" stroke="black" stroke-width="0.312589"/>
<path d="M29.1289 112.093C33.8556 112.093 37.6874 103.79 37.6874 93.5466C37.6874 83.3036 33.8556 75 29.1289 75C24.4021 75 20.5703 83.3036 20.5703 93.5466C20.5703 103.79 24.4021 112.093 29.1289 112.093Z" stroke="black" stroke-width="0.312589"/>
</g>
<defs>
<clipPath id="clip0_2109_188551">
<rect width="150" height="150" fill="white"/>
</clipPath>
</defs>
</svg>
