<svg width="150" height="150" viewBox="0 0 150 150" fill="none" xmlns="http://www.w3.org/2000/svg">
<g clip-path="url(#clip0_2109_188773)">
<path d="M115.466 0H131.081V8.07365H115.466V0Z" fill="#666666"/>
<path d="M96.8467 0H112.462V8.07365H96.8467V0Z" fill="#666666"/>
<path d="M77.9277 0H93.5434V8.07365H77.9277V0Z" fill="#666666"/>
<path d="M59.3096 0H74.9252V8.07365H59.3096V0Z" fill="#666666"/>
<path d="M40.3906 0H56.0062V8.07365H40.3906V0Z" fill="#666666"/>
<path d="M21.7715 0H37.3871V8.07365H21.7715V0Z" fill="#666666"/>
<path d="M2.85254 0H18.4682V8.07365H2.85254V0Z" fill="#666666"/>
<path d="M116.667 0H130.181V8.07365H116.667V0Z" fill="#787878"/>
<path d="M98.0479 0H111.261V8.07365H98.0479V0Z" fill="#787878"/>
<path d="M79.1289 0H92.6424V8.07365H79.1289V0Z" fill="#787878"/>
<path d="M60.5107 0H73.724V8.07365H60.5107V0Z" fill="#787878"/>
<path d="M41.5918 0H55.1053V8.07365H41.5918V0Z" fill="#787878"/>
<path d="M22.9727 0H36.1859V8.07365H22.9727V0Z" fill="#787878"/>
<path d="M4.2041 0H17.5675V8.07365H4.2041V0Z" fill="#787878"/>
<path d="M117.868 0H128.979V8.07365H117.868V0Z" fill="#878787"/>
<path d="M99.249 0H110.06V8.07365H99.249V0Z" fill="#878787"/>
<path d="M80.3301 0H91.4412V8.07365H80.3301V0Z" fill="#878787"/>
<path d="M61.7119 0H72.5227V8.07365H61.7119V0Z" fill="#878787"/>
<path d="M42.793 0H53.9041V8.07365H42.793V0Z" fill="#878787"/>
<path d="M24.1738 0H34.9846V8.07365H24.1738V0Z" fill="#878787"/>
<path d="M5.40527 0H16.3662V8.07365H5.40527V0Z" fill="#878787"/>
<path d="M119.069 0H127.778V8.07365H119.069V0Z" fill="#999999"/>
<path d="M100.15 0H109.159V8.07365H100.15V0Z" fill="#999999"/>
<path d="M81.5312 0H90.24V8.07365H81.5312V0Z" fill="#999999"/>
<path d="M62.6123 0H71.6213V8.07365H62.6123V0Z" fill="#999999"/>
<path d="M43.9941 0H52.7028V8.07365H43.9941V0Z" fill="#999999"/>
<path d="M25.0752 0H34.0842V8.07365H25.0752V0Z" fill="#999999"/>
<path d="M6.45605 0H15.1648V8.07365H6.45605V0Z" fill="#999999"/>
<path d="M120.271 0H126.577V8.07365H120.271V0Z" fill="#ABABAB"/>
<path d="M101.352 0H107.958V8.07365H101.352V0Z" fill="#ABABAB"/>
<path d="M82.7324 0H89.0387V8.07365H82.7324V0Z" fill="#ABABAB"/>
<path d="M63.8135 0H70.4201V8.07365H63.8135V0Z" fill="#ABABAB"/>
<path d="M45.1953 0H51.5016V8.07365H45.1953V0Z" fill="#ABABAB"/>
<path d="M26.2764 0H32.883V8.07365H26.2764V0Z" fill="#ABABAB"/>
<path d="M7.65723 0H14.1137V8.07365H7.65723V0Z" fill="#ABABAB"/>
<path d="M121.171 0H125.675V8.07365H121.171V0Z" fill="#BABABA"/>
<path d="M102.553 0H106.757V8.07365H102.553V0Z" fill="#BABABA"/>
<path d="M83.6338 0H88.1383V8.07365H83.6338V0Z" fill="#BABABA"/>
<path d="M65.0146 0H69.2189V8.07365H65.0146V0Z" fill="#BABABA"/>
<path d="M46.0957 0H50.6002V8.07365H46.0957V0Z" fill="#BABABA"/>
<path d="M27.4775 0H31.6817V8.07365H27.4775V0Z" fill="#BABABA"/>
<path d="M8.55859 0H13.0631V8.07365H8.55859V0Z" fill="#BABABA"/>
<path d="M122.372 0H124.474V8.07365H122.372V0Z" fill="#CCCCCC"/>
<path d="M103.754 0H105.556V8.07365H103.754V0Z" fill="#CCCCCC"/>
<path d="M84.835 0H86.9371V8.07365H84.835V0Z" fill="#CCCCCC"/>
<path d="M66.2158 0H68.0176V8.07365H66.2158V0Z" fill="#CCCCCC"/>
<path d="M47.2969 0H49.399V8.07365H47.2969V0Z" fill="#CCCCCC"/>
<path d="M28.6787 0H30.4805V8.07365H28.6787V0Z" fill="#CCCCCC"/>
<path d="M9.75977 0H11.8619V8.07365H9.75977V0Z" fill="#CCCCCC"/>
<path d="M12.6123 140.652V114.307H62.312V105.808H99.8495V87.9609H125.075V114.307H140.69V140.652H12.6123Z" fill="#333333" stroke="black" stroke-width="0.505186"/>
<path d="M0 8.07422H150V140.652H140.691V87.9609H0V8.07422Z" fill="#CCCCCC" stroke="black" stroke-width="0.505186"/>
<path d="M0 140.652V150.001H150V140.652H0Z" fill="#BFBFBF" stroke="black" stroke-width="0.505186"/>
<path d="M109.459 87.9609V140.652H112.462V87.9609H109.459Z" fill="#BFBFBF" stroke="black" stroke-width="0.505186"/>
<path d="M87.5371 87.9609V140.652H90.5401V87.9609H87.5371Z" fill="#BFBFBF" stroke="black" stroke-width="0.505186"/>
<path d="M65.6152 87.9609V140.652H68.6182V87.9609H65.6152Z" fill="#BFBFBF" stroke="black" stroke-width="0.505186"/>
<path d="M43.6934 87.9609V140.652H46.6964V87.9609H43.6934Z" fill="#BFBFBF" stroke="black" stroke-width="0.505186"/>
<path d="M21.7715 87.9609V140.652H24.7745V87.9609H21.7715Z" fill="#BFBFBF" stroke="black" stroke-width="0.505186"/>
<path d="M0 87.9609V140.652H2.85285V87.9609H0Z" fill="#BFBFBF" stroke="black" stroke-width="0.505186"/>
<path d="M106.156 140.653V105.809H134.384V140.653H106.156Z" fill="#666666" stroke="black" stroke-width="0.505186"/>
<path d="M8.55859 140.65V96.457H27.1772V140.65H8.55859Z" fill="#666666" stroke="black" stroke-width="0.505186"/>
<path d="M2.85254 19.1211V72.6622H131.982V19.1211H2.85254Z" fill="#B2B2B2"/>
<path d="M2.85254 70.9648H21.7715" stroke="black" stroke-width="0.505186"/>
<path d="M21.7715 61.6133H2.85254" stroke="black" stroke-width="0.505186"/>
<path d="M2.85254 53.1172H21.7715" stroke="black" stroke-width="0.505186"/>
<path d="M21.7715 43.7695H2.85254" stroke="black" stroke-width="0.505186"/>
<path d="M2.85254 35.6953H21.7715" stroke="black" stroke-width="0.505186"/>
<path d="M21.7715 25.9219H2.85254" stroke="black" stroke-width="0.505186"/>
<path d="M2.85254 65.8633H21.7715" stroke="black" stroke-width="0.505186"/>
<path d="M21.7715 57.3672H2.85254" stroke="black" stroke-width="0.505186"/>
<path d="M2.85254 48.8672H21.7715" stroke="black" stroke-width="0.505186"/>
<path d="M21.7715 39.9414H2.85254" stroke="black" stroke-width="0.505186"/>
<path d="M2.85254 31.0195H21.7715" stroke="black" stroke-width="0.505186"/>
<path d="M21.7715 21.6719H2.85254" stroke="black" stroke-width="0.505186"/>
<path d="M24.7744 70.9648H43.6933" stroke="black" stroke-width="0.505186"/>
<path d="M43.6933 61.6133H24.7744" stroke="black" stroke-width="0.505186"/>
<path d="M24.7744 53.1172H43.6933" stroke="black" stroke-width="0.505186"/>
<path d="M43.6933 43.7695H24.7744" stroke="black" stroke-width="0.505186"/>
<path d="M24.7744 35.6953H43.6933" stroke="black" stroke-width="0.505186"/>
<path d="M43.6933 25.9219H24.7744" stroke="black" stroke-width="0.505186"/>
<path d="M24.7744 65.8633H43.6933" stroke="black" stroke-width="0.505186"/>
<path d="M43.6933 57.3672H24.7744" stroke="black" stroke-width="0.505186"/>
<path d="M24.7744 48.8672H43.6933" stroke="black" stroke-width="0.505186"/>
<path d="M43.6933 39.9414H24.7744" stroke="black" stroke-width="0.505186"/>
<path d="M24.7744 31.0195H43.6933" stroke="black" stroke-width="0.505186"/>
<path d="M43.6933 21.6719H24.7744" stroke="black" stroke-width="0.505186"/>
<path d="M46.6963 70.9648H65.6152" stroke="black" stroke-width="0.505186"/>
<path d="M65.6152 61.6133H46.6963" stroke="black" stroke-width="0.505186"/>
<path d="M46.6963 53.1172H65.6152" stroke="black" stroke-width="0.505186"/>
<path d="M65.6152 43.7695H46.6963" stroke="black" stroke-width="0.505186"/>
<path d="M46.6963 35.6953H65.6152" stroke="black" stroke-width="0.505186"/>
<path d="M65.6152 25.9219H46.6963" stroke="black" stroke-width="0.505186"/>
<path d="M46.6963 65.8633H65.6152" stroke="black" stroke-width="0.505186"/>
<path d="M65.6152 57.3672H46.6963" stroke="black" stroke-width="0.505186"/>
<path d="M46.6963 48.8672H65.6152" stroke="black" stroke-width="0.505186"/>
<path d="M65.6152 39.9414H46.6963" stroke="black" stroke-width="0.505186"/>
<path d="M46.6963 31.0195H65.6152" stroke="black" stroke-width="0.505186"/>
<path d="M65.6152 21.6719H46.6963" stroke="black" stroke-width="0.505186"/>
<path d="M68.6182 70.9648H87.5371" stroke="black" stroke-width="0.505186"/>
<path d="M87.5371 61.6133H68.6182" stroke="black" stroke-width="0.505186"/>
<path d="M68.6182 53.1172H87.5371" stroke="black" stroke-width="0.505186"/>
<path d="M87.5371 43.7695H68.6182" stroke="black" stroke-width="0.505186"/>
<path d="M68.6182 35.6953H87.5371" stroke="black" stroke-width="0.505186"/>
<path d="M87.5371 25.9219H68.6182" stroke="black" stroke-width="0.505186"/>
<path d="M68.6182 65.8633H87.5371" stroke="black" stroke-width="0.505186"/>
<path d="M87.5371 57.3672H68.6182" stroke="black" stroke-width="0.505186"/>
<path d="M68.6182 48.8672H87.5371" stroke="black" stroke-width="0.505186"/>
<path d="M87.5371 39.9414H68.6182" stroke="black" stroke-width="0.505186"/>
<path d="M68.6182 31.0195H87.5371" stroke="black" stroke-width="0.505186"/>
<path d="M87.5371 21.6719H68.6182" stroke="black" stroke-width="0.505186"/>
<path d="M90.541 70.9648H109.46" stroke="black" stroke-width="0.505186"/>
<path d="M109.46 61.6133H90.541" stroke="black" stroke-width="0.505186"/>
<path d="M90.541 53.1172H109.46" stroke="black" stroke-width="0.505186"/>
<path d="M109.46 43.7695H90.541" stroke="black" stroke-width="0.505186"/>
<path d="M90.541 35.6953H109.46" stroke="black" stroke-width="0.505186"/>
<path d="M109.46 25.9219H90.541" stroke="black" stroke-width="0.505186"/>
<path d="M90.541 65.8633H109.46" stroke="black" stroke-width="0.505186"/>
<path d="M109.46 57.3672H90.541" stroke="black" stroke-width="0.505186"/>
<path d="M90.541 48.8672H109.46" stroke="black" stroke-width="0.505186"/>
<path d="M109.46 39.9414H90.541" stroke="black" stroke-width="0.505186"/>
<path d="M90.541 31.0195H109.46" stroke="black" stroke-width="0.505186"/>
<path d="M109.46 21.6719H90.541" stroke="black" stroke-width="0.505186"/>
<path d="M112.463 70.9648H131.082" stroke="black" stroke-width="0.505186"/>
<path d="M131.082 61.6133H112.463" stroke="black" stroke-width="0.505186"/>
<path d="M112.463 53.1172H131.082" stroke="black" stroke-width="0.505186"/>
<path d="M131.082 43.7695H112.463" stroke="black" stroke-width="0.505186"/>
<path d="M112.463 35.6953H131.082" stroke="black" stroke-width="0.505186"/>
<path d="M131.082 25.9219H112.463" stroke="black" stroke-width="0.505186"/>
<path d="M112.463 65.8633H131.082" stroke="black" stroke-width="0.505186"/>
<path d="M131.082 57.3672H112.463" stroke="black" stroke-width="0.505186"/>
<path d="M112.463 48.8672H131.082" stroke="black" stroke-width="0.505186"/>
<path d="M131.082 39.9414H112.463" stroke="black" stroke-width="0.505186"/>
<path d="M112.463 31.0195H131.082" stroke="black" stroke-width="0.505186"/>
<path d="M131.082 21.6719H112.463" stroke="black" stroke-width="0.505186"/>
<path d="M2.85254 0H18.4682V8.07365H2.85254V0Z" stroke="black" stroke-width="0.505186"/>
<path d="M21.7715 0H37.3871V8.07365H21.7715V0Z" stroke="black" stroke-width="0.505186"/>
<path d="M40.3906 0H56.0062V8.07365H40.3906V0Z" stroke="black" stroke-width="0.505186"/>
<path d="M59.3096 0H74.9252V8.07365H59.3096V0Z" stroke="black" stroke-width="0.505186"/>
<path d="M77.9277 0H93.5433V8.07365H77.9277V0Z" stroke="black" stroke-width="0.505186"/>
<path d="M96.8467 0H112.462V8.07365H96.8467V0Z" stroke="black" stroke-width="0.505186"/>
<path d="M115.466 0H131.081V8.07365H115.466V0Z" stroke="black" stroke-width="0.505186"/>
<path d="M140.69 87.9609V8.07422" stroke="#B2B2B2" stroke-width="0.505186"/>
</g>
<defs>
<clipPath id="clip0_2109_188773">
<rect width="150" height="150" fill="white"/>
</clipPath>
</defs>
</svg>
