<svg width="150" height="150" viewBox="0 0 150 150" fill="none" xmlns="http://www.w3.org/2000/svg">
<path d="M133.6 142.943V3.75391H1.59961V142.943L9.99961 145.946L21.1996 147.297L36.3996 148.499L48.3996 148.949L60.7996 149.099L67.5996 149.249L80.7996 149.099L93.1996 148.649L104.4 148.198L118.4 146.847L128.4 145.346L133.6 142.943Z" fill="#999999" stroke="black" stroke-width="0.490143"/>
<path d="M10.7998 3.75391H124.8V145.796L108.8 147.598L89.1998 148.799L67.9998 149.099L46.3998 148.799L27.1998 147.598L10.7998 145.796V3.75391Z" fill="#A6A6A6"/>
<path d="M19.5996 3.75391H116V146.847L102.4 148.048L85.9996 148.799L67.9996 149.099L49.5996 148.799L33.5996 148.048L19.5996 146.847V3.75391Z" fill="#B5B5B5"/>
<path d="M28.4004 3.75391H107.2V147.748L96.0004 148.499L82.8004 148.799L68.0004 149.099L53.2004 148.799L39.6004 148.499L28.4004 147.748V3.75391Z" fill="#C2C2C2"/>
<path d="M37.2002 3.75391H98.4002V148.348L89.6002 148.649L68.0002 149.099L46.0002 148.649L37.2002 148.348V3.75391Z" fill="#CFCFCF"/>
<path d="M46 3.75391H89.6V148.799L76 148.949L68 149.099L59.6 148.949L46 148.799V3.75391Z" fill="#DBDBDB"/>
<path d="M54.7998 3.75391H80.7998V148.799L67.9998 149.099L54.7998 148.799V3.75391Z" fill="#EBEBEB"/>
<path d="M63.5996 3.75391H71.9996V148.949H71.5996H70.7996H69.1996L67.5996 149.249L65.9996 148.949H64.7996H63.9996H63.5996V3.75391Z" fill="#F7F7F7"/>
<path d="M1.59961 6.90706V3.75391H133.6V6.90706L129.2 7.95811L114.8 9.00916L92.3996 9.75991L67.5996 9.91006L43.1996 9.75991L20.7996 9.00916L6.39961 7.95811L1.59961 6.90706Z" fill="#4C4C4C" stroke="black" stroke-width="0.490143"/>
<path d="M67.5996 6.60757C104.05 6.60757 133.6 5.26308 133.6 3.60457C133.6 1.94605 104.05 0.601562 67.5996 0.601562C31.1488 0.601562 1.59961 1.94605 1.59961 3.60457C1.59961 5.26308 31.1488 6.60757 67.5996 6.60757Z" fill="#666666" stroke="black" stroke-width="0.490143"/>
<path d="M133.6 139.941L129.2 142.194L114.8 144.446L92.3996 145.647L67.5996 146.098L43.1996 145.647L20.7996 144.446L6.39961 142.194L1.59961 139.941" stroke="black" stroke-width="0.490143"/>
<path d="M40.7998 40.8397H94.3998V34.6836H40.7998V40.8397Z" stroke="black" stroke-width="0.490143"/>
<path d="M42.7998 40.0882H92.3998V35.4336H42.7998V40.0882Z" fill="white" stroke="black" stroke-width="0.490143"/>
<path d="M67.5996 38.439H88.3996V36.9375H67.5996V38.439Z" fill="#006600"/>
<path d="M47.2002 38.439H61.6002V36.9375H47.2002V38.439Z" fill="#FF0000"/>
<path d="M61.5996 138.438H73.9996V142.942H61.5996V138.438Z" fill="black"/>
<path d="M117.2 27.0257L119.6 23.5723L125.6 22.3711L131.2 23.5723L133.6 27.0257L131.2 30.3291L125.6 31.6804L119.6 30.3291L117.2 27.0257Z" fill="black"/>
<path d="M125.6 25.375L123.2 27.0267L125.6 28.5282H146V25.375H125.6Z" fill="#7F1900" stroke="black" stroke-width="0.490143"/>
<path d="M63.5996 119.82H71.9996V139.94H63.5996V119.82Z" fill="#7F1900" stroke="black" stroke-width="0.490143"/>
<path d="M125.6 27.0273H144" stroke="#FFCC00" stroke-width="0.490143"/>
<path d="M67.5996 139.189V120.57" stroke="#FFCC00" stroke-width="0.490143"/>
<path d="M67.6002 120.569C75.5531 120.569 82.0002 118.149 82.0002 115.163C82.0002 112.178 75.5531 109.758 67.6002 109.758C59.6473 109.758 53.2002 112.178 53.2002 115.163C53.2002 118.149 59.6473 120.569 67.6002 120.569Z" fill="#B2B2B2" stroke="black" stroke-width="0.490143"/>
<path d="M70.7996 119.821C75.8806 119.821 79.9996 118.275 79.9996 116.368C79.9996 114.46 75.8806 112.914 70.7996 112.914C65.7186 112.914 61.5996 114.46 61.5996 116.368C61.5996 118.275 65.7186 119.821 70.7996 119.821Z" fill="#E5E5E5"/>
<path d="M148 27.0267L146 25.375L144 27.0267L146 28.5282L148 27.0267Z" fill="black"/>
</svg>
