<svg width="150" height="150" viewBox="0 0 150 150" fill="none" xmlns="http://www.w3.org/2000/svg">
<g clip-path="url(#clip0_2109_188980)">
<path d="M12.1618 77.9032V73.6262H5.55524L4.95464 61.4062L2.85254 76.6812L12.1618 77.9032Z" fill="#666666"/>
<path d="M147.898 49.7969H12.7627V98.6767H147.898V49.7969Z" fill="#999999"/>
<path d="M12.1621 49.7969H12.7627V98.6767H12.1621V49.7969Z" fill="#4C4C4C"/>
<path d="M12.7627 71.7923V70.5703H15.1651V71.7923H12.7627Z" fill="#4C4C4C"/>
<path d="M12.7627 66.2939V64.4609H15.1651V66.2939H12.7627Z" fill="#4C4C4C"/>
<path d="M12.7627 60.1846V58.3516H15.1651V60.1846H12.7627Z" fill="#4C4C4C"/>
<path d="M12.7627 54.0736V52.8516H15.1651V54.0736H12.7627Z" fill="#4C4C4C"/>
<path d="M12.7627 77.9017V76.6797H15.1651V77.9017H12.7627Z" fill="#4C4C4C"/>
<path d="M12.7627 84.0127V82.1797H15.1651V84.0127H12.7627Z" fill="#4C4C4C"/>
<path d="M12.7627 89.5111V88.2891H15.1651V89.5111H12.7627Z" fill="#4C4C4C"/>
<path d="M12.7627 95.6204V94.3984H15.1651V95.6204H12.7627Z" fill="#4C4C4C"/>
<path d="M147.898 98.6767H146.997V49.7969H147.898V98.6767Z" fill="#4C4C4C"/>
<path d="M146.997 76.6797V77.9017H144.895V76.6797H146.997Z" fill="#4C4C4C"/>
<path d="M146.997 82.1797V83.4017H144.895V82.1797H146.997Z" fill="#4C4C4C"/>
<path d="M146.997 88.2891V89.5111H144.895V88.2891H146.997Z" fill="#4C4C4C"/>
<path d="M146.997 93.7891V95.6221H144.895V93.7891H146.997Z" fill="#4C4C4C"/>
<path d="M146.997 70.5703V71.7923H144.895V70.5703H146.997Z" fill="#4C4C4C"/>
<path d="M146.997 64.4609V65.6829H144.895V64.4609H146.997Z" fill="#4C4C4C"/>
<path d="M146.997 58.3516V60.1846H144.895V58.3516H146.997Z" fill="#4C4C4C"/>
<path d="M146.997 52.8516V54.0736H144.895V52.8516H146.997Z" fill="#4C4C4C"/>
<path d="M147.898 15.582H12.7627V41.2439H147.898V15.582Z" fill="#CCCCCC"/>
<path d="M12.1621 15.582H12.7627V41.2439H12.1621V15.582Z" fill="#7F7F7F"/>
<path d="M12.7627 38.1885V36.3555H15.1651V38.1885H12.7627Z" fill="#7F7F7F"/>
<path d="M12.7627 32.0775V30.8555H15.1651V32.0775H12.7627Z" fill="#7F7F7F"/>
<path d="M12.7627 25.9681V24.7461H15.1651V25.9681H12.7627Z" fill="#7F7F7F"/>
<path d="M12.7627 20.4697V18.6367H15.1651V20.4697H12.7627Z" fill="#7F7F7F"/>
<path d="M147.898 41.2439H146.997V15.582H147.898V41.2439Z" fill="#7F7F7F"/>
<path d="M146.997 18.6367V20.4697H144.895V18.6367H146.997Z" fill="#7F7F7F"/>
<path d="M146.997 24.7461V25.9681H144.895V24.7461H146.997Z" fill="#7F7F7F"/>
<path d="M146.997 30.8555V32.0775H144.895V30.8555H146.997Z" fill="#7F7F7F"/>
<path d="M146.997 36.3555V38.1885H144.895V36.3555H146.997Z" fill="#7F7F7F"/>
<path d="M148.348 15.582H12.1621V41.2439H148.348V15.582Z" stroke="black" stroke-width="0.428349"/>
<path d="M148.348 49.7969H12.1621V98.6767H148.348V49.7969Z" stroke="black" stroke-width="0.428349"/>
<path d="M16.667 8.55469H144.295V138.392H16.667V8.55469Z" fill="#336666"/>
<path d="M16.667 11.9141H144.295V134.725H16.667V11.9141Z" fill="#386B6B"/>
<path d="M16.667 15.582H144.295V131.061H16.667V15.582Z" fill="#407373"/>
<path d="M16.667 19.2461H144.295V127.393H16.667V19.2461Z" fill="#457878"/>
<path d="M16.667 22.9141H144.295V123.729H16.667V22.9141Z" fill="#4C7F7F"/>
<path d="M16.667 26.5781H144.295V120.061H16.667V26.5781Z" fill="#528585"/>
<path d="M16.667 30.2461H144.295V116.397H16.667V30.2461Z" fill="#598C8C"/>
<path d="M16.667 33.9102H144.295V112.729H16.667V33.9102Z" fill="#5E9191"/>
<path d="M16.667 37.5781H144.295V109.065H16.667V37.5781Z" fill="#669999"/>
<path d="M16.667 41.2422H144.295V105.397H16.667V41.2422Z" fill="#6B9E9E"/>
<path d="M16.667 45.5195H144.295V101.12H16.667V45.5195Z" fill="#73A6A6"/>
<path d="M16.667 49.1836H144.295V97.4524H16.667V49.1836Z" fill="#78ABAB"/>
<path d="M16.667 52.8516H144.295V93.7884H16.667V52.8516Z" fill="#7FB2B2"/>
<path d="M16.667 56.5156H144.295V90.1205H16.667V56.5156Z" fill="#85B8B8"/>
<path d="M16.667 60.1836H144.295V86.4565H16.667V60.1836Z" fill="#8CBFBF"/>
<path d="M16.667 63.8477H144.295V82.7886H16.667V63.8477Z" fill="#91C4C4"/>
<path d="M16.667 67.5156H144.295V79.1246H16.667V67.5156Z" fill="#99CCCC"/>
<path d="M16.667 8.55469H144.295V138.392H16.667V8.55469Z" stroke="black" stroke-width="0.428349"/>
<path d="M16.667 114.562H144.295" stroke="#003333" stroke-width="0.428349"/>
<path d="M16.667 43.6875H144.295" stroke="#003333" stroke-width="0.428349"/>
<path d="M10.8105 138.391H150V150H10.8105V138.391Z" fill="#669999" stroke="black" stroke-width="0.428349"/>
<path d="M134.084 42.7695H135.585V55.906H134.084V42.7695Z" fill="#669999"/>
<path d="M124.475 42.7695H125.976V107.23H124.475V42.7695Z" fill="#669999"/>
<path d="M122.372 42.7695H123.874V107.23H122.372V42.7695Z" fill="#669999"/>
<path d="M120.271 42.7695H121.772V107.23H120.271V42.7695Z" fill="#669999"/>
<path d="M118.168 42.7695H119.669V107.23H118.168V42.7695Z" fill="#669999"/>
<path d="M83.333 38.1875H86.0357V138.391H83.333V38.1875Z" fill="#669999"/>
<path d="M78.2285 49.7969H79.73V126.783H78.2285V49.7969Z" fill="#669999"/>
<path d="M61.4111 32.0781H62.9126V61.406H61.4111V32.0781Z" fill="#669999"/>
<path d="M59.3096 32.0781H60.8111V61.406H59.3096V32.0781Z" fill="#669999"/>
<path d="M57.207 32.0781H58.7085V91.3449H57.207V32.0781Z" fill="#669999"/>
<path d="M41.8916 32.0781H43.3931V112.119H41.8916V32.0781Z" fill="#669999"/>
<path d="M39.79 32.0781H41.2915V112.119H39.79V32.0781Z" fill="#669999"/>
<path d="M37.6875 32.0781H38.8887V138.392H37.6875V32.0781Z" fill="#669999"/>
<path d="M134.685 42.7695H134.985V55.906H134.685V42.7695Z" fill="#CCFFFF"/>
<path d="M125.075 42.7695H125.375V107.23H125.075V42.7695Z" fill="#CCFFFF"/>
<path d="M122.973 42.7695H123.273V107.23H122.973V42.7695Z" fill="#CCFFFF"/>
<path d="M120.871 42.7695H121.171V107.23H120.871V42.7695Z" fill="#CCFFFF"/>
<path d="M118.769 42.7695H119.069V107.23H118.769V42.7695Z" fill="#CCFFFF"/>
<path d="M84.2344 38.1875H85.1353V138.391H84.2344V38.1875Z" fill="#CCFFFF"/>
<path d="M78.8291 49.7969H79.1294V126.783H78.8291V49.7969Z" fill="#CCFFFF"/>
<path d="M62.0117 32.0781H62.312V61.406H62.0117V32.0781Z" fill="#CCFFFF"/>
<path d="M59.9102 32.0781H60.2105V61.406H59.9102V32.0781Z" fill="#CCFFFF"/>
<path d="M57.8076 32.0781H58.1079V91.3449H57.8076V32.0781Z" fill="#CCFFFF"/>
<path d="M42.4922 32.0781H42.7925V112.119H42.4922V32.0781Z" fill="#CCFFFF"/>
<path d="M40.3906 32.0781H40.6909V112.119H40.3906V32.0781Z" fill="#CCFFFF"/>
<path d="M37.9883 32.0781H38.5889V138.392H37.9883V32.0781Z" fill="#CCFFFF"/>
<path d="M112.162 3.05469H132.432V32.0771H112.162V3.05469Z" stroke="#999999" stroke-width="0.428349"/>
<path d="M116.667 107.23H128.379V110.285H116.667V107.23Z" fill="#669999" stroke="black" stroke-width="0.428349"/>
<path d="M132.433 55.9062H137.087V61.4052H132.433V55.9062Z" fill="#CCCCCC" stroke="black" stroke-width="0.428349"/>
<path d="M138.138 49.7969H141.741V61.4058H138.138V49.7969Z" fill="#E5E5E5" stroke="black" stroke-width="0.428349"/>
<path d="M39.79 112.117H45.4957V138.39H39.79V112.117Z" fill="#669999"/>
<path d="M41.8916 112.117H43.3931V138.39H41.8916V112.117Z" fill="#CCFFFF"/>
<path d="M39.79 112.117H45.4957V138.39H39.79V112.117Z" stroke="black" stroke-width="0.428349"/>
<path d="M63.8135 73.6252L65.0147 70.5703V63.2383" stroke="#336666" stroke-width="0.428349"/>
<path d="M134.084 42.7695H135.585V55.906H134.084V42.7695Z" stroke="black" stroke-width="0.428349"/>
<path d="M124.475 42.7695H125.976V107.23H124.475V42.7695Z" stroke="black" stroke-width="0.428349"/>
<path d="M122.372 42.7695H123.874V107.23H122.372V42.7695Z" stroke="black" stroke-width="0.428349"/>
<path d="M120.271 42.7695H121.772V107.23H120.271V42.7695Z" stroke="black" stroke-width="0.428349"/>
<path d="M118.168 42.7695H119.669V107.23H118.168V42.7695Z" stroke="black" stroke-width="0.428349"/>
<path d="M78.2285 49.7969H79.73V126.783H78.2285V49.7969Z" stroke="black" stroke-width="0.428349"/>
<path d="M83.333 38.1875H86.0357V138.391H83.333V38.1875Z" stroke="black" stroke-width="0.428349"/>
<path d="M61.4111 32.0781H62.9126V61.406H61.4111V32.0781Z" stroke="black" stroke-width="0.428349"/>
<path d="M59.3096 32.0781H60.8111V61.406H59.3096V32.0781Z" stroke="black" stroke-width="0.428349"/>
<path d="M57.207 32.0781H58.7085V91.3449H57.207V32.0781Z" stroke="black" stroke-width="0.428349"/>
<path d="M37.6875 32.0781H38.8887V138.392H37.6875V32.0781Z" stroke="black" stroke-width="0.428349"/>
<path d="M39.79 32.0781H41.2915V112.119H39.79V32.0781Z" stroke="black" stroke-width="0.428349"/>
<path d="M41.8916 32.0781H43.3931V112.119H41.8916V32.0781Z" stroke="black" stroke-width="0.428349"/>
<path d="M134.084 60.1839L133.483 58.3509L134.084 57.1289L134.685 58.3509L134.084 60.1839Z" fill="#007F00"/>
<path d="M135.585 60.1839L134.685 58.3509L135.585 57.1289L136.186 58.3509L135.585 60.1839Z" fill="#7F0000"/>
<path d="M100.751 126.781V132.28H77.6279V126.781H100.751Z" fill="#669999"/>
<path d="M100.751 128.613V130.446H77.6279V128.613H100.751Z" fill="#CCFFFF"/>
<path d="M100.751 126.781V132.28H77.6279V126.781H100.751Z" stroke="black" stroke-width="0.428349"/>
<path d="M36.7871 3.05469H103.454V32.0771H36.7871V3.05469Z" fill="#99CCCC" stroke="black" stroke-width="0.428349"/>
<path d="M137.087 116.395H142.642V138.39H137.087V116.395Z" fill="#99CCCC" stroke="black" stroke-width="0.428349"/>
<path d="M98.6484 91.3438H102.252V113.34H98.6484V91.3438Z" fill="#99CCCC" stroke="black" stroke-width="0.428349"/>
<path d="M92.042 120.672H132.432V138.391H92.042V120.672Z" fill="#99CCCC" stroke="black" stroke-width="0.428349"/>
<path d="M47.5977 3.97266V30.8566" stroke="#336666" stroke-width="0.428349"/>
<path d="M48.498 3.97266V30.8566" stroke="#CCFFFF" stroke-width="0.428349"/>
<path d="M106.456 0H138.138V42.7699H106.456V0Z" fill="#BFCCCC" stroke="black" stroke-width="0.428349"/>
<path d="M76.126 38.1875H81.8317V49.7965H76.126V38.1875Z" fill="#BFCCCC" stroke="black" stroke-width="0.428349"/>
<path d="M56.3066 61.4062H63.8141V79.1252H56.3066V61.4062Z" fill="#BFCCCC" stroke="black" stroke-width="0.428349"/>
<path d="M89.0391 89.5117H97.7478V132.282H89.0391V89.5117Z" fill="#BFCCCC" stroke="black" stroke-width="0.428349"/>
<path d="M52.1025 120.672H77.6281V138.391H52.1025V120.672Z" fill="#BFCCCC" stroke="black" stroke-width="0.428349"/>
<path d="M17.8682 116.395H23.8742V138.39H17.8682V116.395Z" fill="#BFCCCC" stroke="black" stroke-width="0.428349"/>
<path d="M56.3062 138.391L55.4053 134.114V129.837L56.3062 126.171L58.4083 123.727H60.5104L62.6125 126.171L63.8137 129.837V134.114L62.6125 138.391H56.3062Z" stroke="#336666" stroke-width="0.428349"/>
<path d="M67.1172 138.391L65.916 134.114V129.837L67.1172 126.171L68.919 123.727H71.3214L73.1232 126.171L74.3244 129.837V134.114L73.1232 138.391H67.1172Z" stroke="#336666" stroke-width="0.428349"/>
<path d="M93.3939 104.175C94.9695 104.175 96.2467 101.577 96.2467 98.3709C96.2467 95.1652 94.9695 92.5664 93.3939 92.5664C91.8183 92.5664 90.541 95.1652 90.541 98.3709C90.541 101.577 91.8183 104.175 93.3939 104.175Z" fill="#99CCCC" stroke="#669999" stroke-width="0.428349"/>
<path d="M57.8081 60.1842L56.3066 57.1292L57.8081 54.0742L59.3096 57.1292L57.8081 60.1842Z" fill="#FF6600"/>
<path d="M62.312 60.1842L60.8105 57.1292L62.312 54.0742L63.5132 57.1292L62.312 60.1842Z" fill="#FF6600"/>
<path d="M65.315 66.2936L63.8135 63.2386L65.315 60.1836L66.5162 63.2386L65.315 66.2936Z" fill="#FF6600"/>
<path d="M57.8081 86.456L56.3066 84.012L57.8081 80.957L59.3096 84.012L57.8081 86.456Z" fill="#FF6600"/>
<path d="M147.897 18.6367H148.348V36.3557H147.897V18.6367Z" fill="#FF6600"/>
<path d="M147.897 51.0195H148.348V68.7385H147.897V51.0195Z" fill="#FF6600"/>
<path d="M147.897 79.125H148.348V96.8439H147.897V79.125Z" fill="#FF6600"/>
<path d="M11.7119 21.9961H12.1624V39.4095H11.7119V21.9961Z" fill="#FF6600"/>
<path d="M11.7118 22.9141H7.20732L5.55566 24.7471V38.189H11.7118V22.9141Z" fill="#4C4C4C"/>
<path d="M5.55556 24.7461L0 68.7379V76.6809L1.95195 82.1799L12.1622 84.0129V76.6809H4.2042V70.5709L9.15916 38.188L6.45646 33.3001L5.55556 24.7461Z" fill="#333333"/>
</g>
<defs>
<clipPath id="clip0_2109_188980">
<rect width="150" height="150" fill="white"/>
</clipPath>
</defs>
</svg>
