<svg width="150" height="150" viewBox="0 0 150 150" fill="none" xmlns="http://www.w3.org/2000/svg">
<path d="M149.4 4.88281L143.544 15.9775V148.226L149.4 137.131V4.88281Z" fill="#43A143" stroke="black" stroke-width="0.516274"/>
<path d="M0.450195 15.9766H29.1289V148.225H0.450195V15.9766Z" fill="#82E082" stroke="black" stroke-width="0.516274"/>
<path d="M57.8076 15.9766H29.1289V148.225H57.8076V15.9766Z" fill="#82E082" stroke="black" stroke-width="0.516274"/>
<path d="M86.4863 15.9766V148.225H57.8076V15.9766H86.4863Z" fill="#82E082"/>
<path d="M115.165 148.225H86.4863V113.609H115.165V148.225Z" fill="#82E082"/>
<path d="M115.165 15.9766H143.543V148.225H115.165V15.9766Z" fill="#82E082"/>
<path d="M143.543 15.9775L149.399 4.88281H6.30605L0.450195 15.9775H143.543Z" fill="#82E082"/>
<path d="M57.8076 15.9766H86.4863V148.225H57.8076V15.9766Z" stroke="black" stroke-width="0.516274"/>
<path d="M115.165 148.225H86.4863V113.609H115.165V148.225Z" stroke="black" stroke-width="0.516274"/>
<path d="M115.165 15.9766H143.543V148.225H115.165V15.9766Z" stroke="black" stroke-width="0.516274"/>
<path d="M0.450195 15.9775H143.543L149.399 4.88281H6.30605L0.450195 15.9775Z" stroke="black" stroke-width="0.516274"/>
<path fill-rule="evenodd" clip-rule="evenodd" d="M119.22 46.1541H120.721V59.9115H119.22V46.1541ZM119.52 47.0417H120.421V56.805H119.52V47.0417ZM10.0605 44.3789H19.8203V72.3375H10.0605V44.3789ZM10.9614 45.2665H19.2197V69.6748H10.9614V45.2665ZM25.0756 71.4499H27.6281V95.4144H25.0756V71.4499ZM25.0756 72.3375H27.0275V91.8641H25.0756V72.3375ZM19.2197 23.5209V31.5091H11.2617V23.5209H19.2197ZM18.9194 25.2961V27.9588H12.7632V25.2961H18.9194ZM30.3308 71.4499H32.8834V95.4144H30.3308V71.4499ZM30.6311 72.3375H32.2828V91.8641H30.6311V72.3375ZM82.1326 71.4499H84.6852V95.4144H82.1326V71.4499ZM82.4329 72.3375H84.0846V91.8641H82.4329V72.3375ZM115.166 15.9766H86.487V113.61H115.166V15.9766Z" fill="#217F21"/>
<path d="M137.087 8.8747H136.787L137.087 7.98713H136.036L135.586 7.09955H131.231V3.10547L131.832 3.99304H139.49L139.79 3.10547H140.09V7.98713H139.79L138.889 8.8747H137.087Z" fill="#F0F0F0"/>
<path d="M136.787 8.8747H137.087H138.889L139.79 7.98713H140.09V3.10547H139.79L139.49 3.99304H131.832L131.231 3.10547V7.09955H135.586L136.036 7.98713H137.087L136.787 8.8747ZM136.787 8.8747H134.234" stroke="black" stroke-width="0.516274"/>
<path d="M136.786 8.87586H136.336H135.585H133.933L132.432 9.76343L130.93 8.87586H129.279H128.378H128.078L127.777 7.98828V12.4262L128.078 13.3137H128.378H129.279L130.63 14.2013H132.432H134.234L135.585 13.3137H136.786L137.087 12.4262V7.98828L136.786 8.87586Z" fill="#F0F0F0"/>
<path d="M137.087 7.98828V8.87586" stroke="black" stroke-width="0.516274"/>
<path d="M137.087 7.98828L136.786 8.87586H136.336H135.585H133.933L132.432 9.76343L130.93 8.87586H129.279H128.378H128.078L127.777 7.98828V12.4262L128.078 13.3137H128.378H129.279L130.63 14.2013H132.432H134.234L135.585 13.3137H136.786L137.087 12.4262V7.98828Z" stroke="black" stroke-width="0.516274"/>
<path d="M113.664 19.5273H87.9883V23.5214H113.664V19.5273Z" fill="#92F0B0"/>
<path d="M113.664 25.2969H87.9883V28.8472H113.664V25.2969Z" fill="#92F0B0"/>
<path d="M113.664 30.6211H87.9883V34.1714H113.664V30.6211Z" fill="#92F0B0"/>
<path d="M113.664 35.9453H87.9883V39.9394H113.664V35.9453Z" fill="#92F0B0"/>
<path d="M113.664 41.7148H87.9883V45.2651H113.664V41.7148Z" fill="#92F0B0"/>
<path d="M113.664 47.043H87.9883V50.5933H113.664V47.043Z" fill="#92F0B0"/>
<path d="M113.664 52.3672H87.9883V55.9175H113.664V52.3672Z" fill="#92F0B0"/>
<path d="M113.664 58.1367H87.9883V61.687H113.664V58.1367Z" fill="#92F0B0"/>
<path d="M113.664 63.4609H87.9883V67.0112H113.664V63.4609Z" fill="#92F0B0"/>
<path d="M113.664 68.7852H87.9883V72.3355H113.664V68.7852Z" fill="#92F0B0"/>
<path d="M113.664 74.5547H87.9883V78.105H113.664V74.5547Z" fill="#92F0B0"/>
<path d="M113.664 79.8828H87.9883V83.4331H113.664V79.8828Z" fill="#92F0B0"/>
<path d="M113.664 85.207H87.9883V87.8698H113.664V85.207Z" fill="#92F0B0"/>
<path d="M113.664 90.9766H87.9883V94.5269H113.664V90.9766Z" fill="#92F0B0"/>
<path d="M113.664 96.3008H87.9883V99.8511H113.664V96.3008Z" fill="#92F0B0"/>
<path d="M113.664 101.629H87.9883V104.292H113.664V101.629Z" fill="#92F0B0"/>
<path d="M113.664 107.395H87.9883V110.057H113.664V107.395Z" fill="#92F0B0"/>
<path d="M131.231 7.09955H131.532V3.99304L131.231 3.10547V7.09955Z" fill="#E0E0E0"/>
<path d="M128.378 8.875V13.3129H128.078V12.4253V8.875H128.378Z" fill="#E0E0E0"/>
<path d="M133.934 9.76257V13.3129H134.234H135.585H136.786V12.4253H137.087V8.875H136.786H136.336H135.585L133.934 9.76257Z" fill="#E0E0E0"/>
<path d="M137.087 3.99304V8.8747H137.387H138.889L139.79 7.98713H140.09V3.10547L139.79 3.99304H139.489H138.588H137.387H137.087Z" fill="#E0E0E0"/>
<path d="M148.499 14.2031L144.745 22.6351V136.245L148.499 129.144V14.2031Z" fill="#7F7F7F"/>
<path d="M117.868 82.543H140.691V142.454H117.868V82.543Z" fill="#7F7F7F"/>
<path d="M135.586 3.9939C137.991 3.9939 139.94 3.59652 139.94 3.10632C139.94 2.61613 137.991 2.21875 135.586 2.21875C133.181 2.21875 131.231 2.61613 131.231 3.10632C131.231 3.59652 133.181 3.9939 135.586 3.9939Z" fill="#7F7F7F"/>
<path d="M132.432 9.76428C135.003 9.76428 137.087 9.16821 137.087 8.43292C137.087 7.69763 135.003 7.10156 132.432 7.10156C129.861 7.10156 127.777 7.69763 127.777 8.43292C127.777 9.16821 129.861 9.76428 132.432 9.76428Z" fill="#7F7F7F"/>
<path d="M117.868 35.9453H140.691V68.7855H117.868V35.9453Z" stroke="black" stroke-width="0.516274"/>
<path fill-rule="evenodd" clip-rule="evenodd" d="M7.20713 7.10126H8.55849V3.10718H7.20713V7.10126ZM6.90683 2.21961L7.95788 1.33203L8.85879 2.21961L9.15909 3.99475V7.10126H6.60653V3.99475L6.90683 2.21961ZM3.60353 14.2019H4.80473V11.5391H3.60353V14.2019ZM3.30323 10.6516L4.20413 8.87641L5.40533 10.6516L5.70563 12.4267V15.0894H3.00293V12.4267L3.30323 10.6516ZM145.946 7.10126H146.847V3.10718H145.946V7.10126ZM145.345 2.21961L146.246 1.33203L147.447 2.21961V3.99475V7.10126H145.045V3.99475L145.345 2.21961ZM141.291 14.2019H142.342V11.5391H141.291V14.2019ZM140.691 10.6516L141.892 8.87641L142.943 10.6516L143.243 12.4267V15.0894H140.39V12.4267L140.691 10.6516Z" fill="#82E082"/>
<path d="M7.20703 7.09955H8.55838V3.10547H7.20703V7.09955Z" stroke="black" stroke-width="0.516274"/>
<path d="M6.90675 2.21961L7.9578 1.33203L8.8587 2.21961L9.159 3.99475V7.10126H6.60645V3.99475L6.90675 2.21961Z" stroke="black" stroke-width="0.516274"/>
<path d="M3.60352 14.2018H4.80472V11.5391H3.60352V14.2018Z" stroke="black" stroke-width="0.516274"/>
<path d="M3.30323 10.6501L4.20413 8.875L5.40533 10.6501L5.70563 12.4253V15.088H3.00293V12.4253L3.30323 10.6501Z" stroke="black" stroke-width="0.516274"/>
<path d="M145.946 7.09955H146.847V3.10547H145.946V7.09955Z" stroke="black" stroke-width="0.516274"/>
<path d="M145.345 2.21961L146.246 1.33203L147.447 2.21961V3.99475V7.10126H145.045V3.99475L145.345 2.21961Z" stroke="black" stroke-width="0.516274"/>
<path d="M141.291 14.2018H142.342V11.5391H141.291V14.2018Z" stroke="black" stroke-width="0.516274"/>
<path d="M140.691 10.6501L141.892 8.875L142.943 10.6501L143.243 12.4253V15.088H140.391V12.4253L140.691 10.6501Z" stroke="black" stroke-width="0.516274"/>
</svg>
