<svg width="150" height="150" viewBox="0 0 150 150" fill="none" xmlns="http://www.w3.org/2000/svg">
<g clip-path="url(#clip0_2109_190323)">
<path d="M0 49.5664H149.7V76.7802H0V49.5664Z" fill="#CCCCCC"/>
<path d="M0.150391 51.5117H150V74.8379H0.150391V51.5117Z" fill="#D4D4D4"/>
<path d="M0.150391 53.457H150V72.8955H0.150391V53.457Z" fill="#DEDEDE"/>
<path d="M0.150391 55.3984H150V70.9492H0.150391V55.3984Z" fill="#E5E5E5"/>
<path d="M0.150391 57.3438H150V69.0068H0.150391V57.3438Z" fill="#EDEDED"/>
<path d="M0.150391 59.2891H150V67.0644H0.150391V59.2891Z" fill="#F7F7F7"/>
<path d="M0 61.2305H149.7V65.1182H0V61.2305Z" fill="white"/>
<path d="M0 49.5664H149.7V76.7802H0V49.5664Z" stroke="black" stroke-width="0.441111"/>
<path d="M113.363 126.674H21.4714L16.3663 109.179L14.5645 80.0216V46.3283L16.3663 17.1706L21.4714 0H113.363V8.09935L131.682 47.6242H135.285V79.3736H131.682L113.363 118.251V126.674Z" fill="#596666"/>
<path d="M113.363 119.547H21.4714L16.3663 104.645L14.5645 78.0787V48.2731L16.3663 21.7073L21.4714 6.48047H113.363V13.2839L131.682 48.9211H135.285V77.4308H131.682L113.363 112.42V119.547Z" fill="#637070"/>
<path d="M113.363 113.065H21.4714L16.3663 99.4584L14.5645 76.1322V49.5663L16.3663 26.5642L21.4714 13.2812H113.363V19.1128L131.682 50.8622H135.285V75.4843H131.682L113.363 106.586V113.065Z" fill="#6B7878"/>
<path d="M113.363 105.939H21.4714L16.3663 94.9237L14.5645 74.8373V51.5112L16.3663 31.4248L21.4714 19.7617H113.363V25.2693L131.682 52.1591H135.285V74.1894H131.682L113.363 100.755V105.939Z" fill="#758282"/>
<path d="M113.363 99.4606H21.4714L16.3663 89.7414L14.5645 72.8947V53.4563L16.3663 36.6096L21.4714 26.5664H113.363V31.426L131.682 54.1042H135.285V72.2467H131.682L113.363 94.9249V99.4606Z" fill="#7F8C8C"/>
<path d="M113.363 92.9823H21.4714L16.3663 84.559L14.5645 70.9521V54.7534L16.3663 41.1465L21.4714 33.3711H113.363V37.2588L131.682 55.4013H135.285V70.3041H131.682L113.363 89.0946V92.9823Z" fill="#899696"/>
<path d="M113.363 86.4999H21.4714L16.3663 80.0204L14.5645 69.0053V56.6943L16.3663 46.3271L21.4714 39.8477H113.363V43.0874L131.682 57.3423H135.285V69.0053H131.682L113.363 83.2602V86.4999Z" fill="#919E9E"/>
<path d="M113.363 79.3735H21.4714L16.3663 74.8378L14.5645 67.7104V58.6391L16.3663 50.8638L21.4714 46.3281H113.363V48.272L131.682 58.6391H135.285V67.0625H131.682L113.363 77.4296V79.3735Z" fill="#9BA8A8"/>
<path d="M113.363 72.8955H21.4714L16.3663 70.3037L14.5645 65.768V60.5845L16.3663 56.0488L21.4714 53.457H113.363V54.7529L131.682 60.5845H135.285V65.768H131.682L113.363 71.5996V72.8955Z" fill="#A5B2B2"/>
<path d="M113.363 126.674H21.4714L16.3663 109.179L14.5645 80.0216V46.3283L16.3663 17.1706L21.4714 0H113.363V8.09935L131.682 47.6242H135.285V79.3736H131.682L113.363 118.251V126.674Z" stroke="black" stroke-width="0.441111"/>
<path d="M21.7715 126.674V0" stroke="#BFCCCC" stroke-width="0.441111"/>
<path d="M113.363 118.249V7.77344" stroke="#BFCCCC" stroke-width="0.441111"/>
<path d="M131.682 78.7265V47.625" stroke="#BFCCCC" stroke-width="0.441111"/>
<path d="M28.9785 110.477H32.8824V150.001H28.9785V110.477Z" fill="#6B7878"/>
<path d="M28.9785 142.227H32.8824V150.002H28.9785V142.227Z" fill="#E5E5B2"/>
<path d="M29.2793 110.477V150.001H32.8829V110.477" stroke="black" stroke-width="0.441111"/>
<path d="M71.3213 31.4258V94.9247" stroke="black" stroke-width="0.441111"/>
<path d="M73.123 31.4258V94.9247" stroke="black" stroke-width="0.441111"/>
<path d="M74.9248 43.0898V82.6147" stroke="black" stroke-width="0.441111"/>
<path d="M80.3301 31.4258V94.9247" stroke="black" stroke-width="0.441111"/>
<path d="M82.1318 57.3438V76.7822" stroke="black" stroke-width="0.441111"/>
<path d="M39.1895 27.8633V91.0382" stroke="black" stroke-width="0.441111"/>
<path d="M41.291 27.8633V91.0382" stroke="black" stroke-width="0.441111"/>
</g>
<defs>
<clipPath id="clip0_2109_190323">
<rect width="150" height="150" fill="white"/>
</clipPath>
</defs>
</svg>
