<svg width="150" height="150" viewBox="0 0 150 150" fill="none" xmlns="http://www.w3.org/2000/svg">
<g clip-path="url(#clip0_2109_189708)">
<path d="M6.15625 121.172H143.694V147.298L142.042 150.001H7.8079L6.15625 147.298V121.172Z" fill="#CCCCCC"/>
<path d="M6.15625 121.172H143.694V131.082H6.15625V121.172Z" fill="#999999"/>
<path d="M6.15616 121.171L0 102.252V8.55856L2.85285 0H146.997L150 8.55856V102.252L143.694 121.171H6.15616Z" fill="#E5E5E5" stroke="black" stroke-width="0.520135"/>
<path d="M143.694 112.162L146.997 102.253V18.4688H81.2314V112.162H143.694Z" fill="#333333" stroke="black" stroke-width="0.520135"/>
<path d="M6.15584 112.162L2.85254 102.253V18.4688H68.6183V112.162H6.15584Z" fill="#333333" stroke="black" stroke-width="0.520135"/>
<path d="M6.15625 121.172H143.694V147.298L142.042 150.001H7.8079L6.15625 147.298V121.172Z" stroke="black" stroke-width="0.520135"/>
<path d="M74.9251 145.497C81.8909 145.497 87.5377 141.262 87.5377 136.038C87.5377 130.813 81.8909 126.578 74.9251 126.578C67.9594 126.578 62.3125 130.813 62.3125 136.038C62.3125 141.262 67.9594 145.497 74.9251 145.497Z" stroke="#7F7F7F" stroke-width="0.520135"/>
<path d="M6.15625 112.164H143.694" stroke="#B2B2B2" stroke-width="0.520135"/>
<path d="M2.85254 102.254H146.997" stroke="#B2B2B2" stroke-width="0.520135"/>
<path d="M2.85254 93.2422H146.997" stroke="#B2B2B2" stroke-width="0.520135"/>
<path d="M2.85254 84.2344H146.997" stroke="#B2B2B2" stroke-width="0.520135"/>
<path d="M2.85254 74.3242H146.997" stroke="#B2B2B2" stroke-width="0.520135"/>
<path d="M2.85254 65.3164H146.997" stroke="#B2B2B2" stroke-width="0.520135"/>
<path d="M2.85254 55.4062H146.997" stroke="#B2B2B2" stroke-width="0.520135"/>
<path d="M2.85254 46.8477H146.997" stroke="#B2B2B2" stroke-width="0.520135"/>
<path d="M2.85254 37.8359H146.997" stroke="#B2B2B2" stroke-width="0.520135"/>
<path d="M2.85254 27.4766H146.997" stroke="#B2B2B2" stroke-width="0.520135"/>
<path d="M2.85254 18.4688H146.997" stroke="#B2B2B2" stroke-width="0.520135"/>
<path d="M6.15625 8.55859H143.694" stroke="#B2B2B2" stroke-width="0.520135"/>
<path d="M74.9248 8.55859V112.162" stroke="#B2B2B2" stroke-width="0.520135"/>
<path d="M62.3125 8.55859V112.162" stroke="#B2B2B2" stroke-width="0.520135"/>
<path d="M50 8.55859V112.162" stroke="#B2B2B2" stroke-width="0.520135"/>
<path d="M37.3877 8.55859V112.162" stroke="#B2B2B2" stroke-width="0.520135"/>
<path d="M24.7744 8.55859V112.162" stroke="#B2B2B2" stroke-width="0.520135"/>
<path d="M12.6123 8.55859V112.162" stroke="#B2B2B2" stroke-width="0.520135"/>
<path d="M6.15584 8.55859L2.85254 18.4685V102.252L6.15584 112.162" stroke="#B2B2B2" stroke-width="0.520135"/>
<path d="M87.8379 8.55859V112.162" stroke="#B2B2B2" stroke-width="0.520135"/>
<path d="M100.15 8.55859V112.162" stroke="#B2B2B2" stroke-width="0.520135"/>
<path d="M112.763 8.55859V112.162" stroke="#B2B2B2" stroke-width="0.520135"/>
<path d="M125.075 8.55859V112.162" stroke="#B2B2B2" stroke-width="0.520135"/>
<path d="M137.537 8.55859V112.162" stroke="#B2B2B2" stroke-width="0.520135"/>
<path d="M143.693 8.55859L146.997 18.4685V102.252L143.693 112.162" stroke="#B2B2B2" stroke-width="0.520135"/>
<path d="M87.5371 142.793H89.0386V147.297H87.5371V142.793Z" fill="white"/>
<path d="M60.8105 142.793H62.312V147.297H60.8105V142.793Z" fill="white"/>
<path d="M65.6152 144.594H66.2158V147.296H65.6152V144.594Z" fill="#7F7F7F"/>
<path d="M83.6338 144.594H84.2344V147.296H83.6338V144.594Z" fill="#7F7F7F"/>
<path d="M10.6611 142.793H12.6131V147.297H10.6611V142.793Z" fill="#4C4C4C"/>
<path d="M137.237 142.793H138.889V147.297H137.237V142.793Z" fill="#4C4C4C"/>
</g>
<defs>
<clipPath id="clip0_2109_189708">
<rect width="150" height="150" fill="white"/>
</clipPath>
</defs>
</svg>
