<svg width="150" height="150" viewBox="0 0 150 150" fill="none" xmlns="http://www.w3.org/2000/svg">
<g clip-path="url(#clip0_2109_189811)">
<path d="M0 0H150V150H0V0Z" fill="#99CCCC" stroke="black" stroke-width="0.520135"/>
<path d="M24.3246 146.697L18.4688 144.745V142.493L24.3246 140.691H32.4327L37.3877 142.493V144.745L32.4327 146.697H24.3246Z" fill="white" stroke="black" stroke-width="0.520135"/>
<path d="M117.568 146.697L112.162 144.745V142.493L117.568 140.691H125.676L131.081 142.493V144.745L125.676 146.697H117.568Z" fill="white" stroke="black" stroke-width="0.520135"/>
<path d="M24.3246 123.723L18.4688 122.071V119.368L24.3246 117.566H32.4327L37.3877 119.368V122.071L32.4327 123.723H24.3246Z" fill="white" stroke="black" stroke-width="0.520135"/>
<path d="M118.468 123.723L112.162 122.071V119.368L118.468 117.566H125.676L131.081 119.368V122.071L125.676 123.723H118.468Z" fill="white" stroke="black" stroke-width="0.520135"/>
<path d="M24.3246 100.752L18.4688 98.9503V96.5479L24.3246 94.7461H32.4327L37.3877 96.5479V98.9503L32.4327 100.752H24.3246Z" fill="white" stroke="black" stroke-width="0.520135"/>
<path d="M118.468 100.752L112.162 98.9503V96.5479L118.468 94.7461H125.676L131.081 96.5479V98.9503L125.676 100.752H118.468Z" fill="white" stroke="black" stroke-width="0.520135"/>
<path d="M24.3246 77.9274L18.4688 76.1256V73.4229L24.3246 71.6211H32.4327L37.3877 73.4229V76.1256L32.4327 77.9274H24.3246Z" fill="white" stroke="black" stroke-width="0.520135"/>
<path d="M118.468 77.9274L112.162 76.1256V73.4229L118.468 71.6211H125.676L131.081 73.4229V76.1256L125.676 77.9274H118.468Z" fill="white" stroke="black" stroke-width="0.520135"/>
<path d="M24.3246 55.1032L18.4688 53.3014V50.5987L24.3246 48.7969H32.4327L37.3877 50.5987V53.3014L32.4327 55.1032H24.3246Z" fill="white" stroke="black" stroke-width="0.520135"/>
<path d="M118.468 55.1032L112.162 53.3014V50.5987L118.468 48.7969H125.676L131.081 50.5987V53.3014L125.676 55.1032H118.468Z" fill="white" stroke="black" stroke-width="0.520135"/>
<path d="M24.3246 31.9821L18.4688 30.1803V27.7779L24.3246 25.6758H32.4327L37.3877 27.7779V30.1803L32.4327 31.9821H24.3246Z" fill="white" stroke="black" stroke-width="0.520135"/>
<path d="M118.468 31.9821L112.162 30.1803V27.7779L118.468 25.6758H125.676L131.081 27.7779V30.1803L125.676 31.9821H118.468Z" fill="white" stroke="black" stroke-width="0.520135"/>
<path d="M24.3246 9.15787L18.4688 7.35607V4.80351L24.3246 2.85156H32.4327L37.3877 4.80351V7.35607L32.4327 9.15787H24.3246Z" fill="white" stroke="black" stroke-width="0.520135"/>
<path d="M117.568 9.15787L112.162 7.35607V4.80351L117.568 2.85156H125.676L131.081 4.80351V7.35607L125.676 9.15787H117.568Z" fill="white" stroke="black" stroke-width="0.520135"/>
</g>
<defs>
<clipPath id="clip0_2109_189811">
<rect width="150" height="150" fill="white"/>
</clipPath>
</defs>
</svg>
