<svg width="150" height="150" viewBox="0 0 150 150" fill="none" xmlns="http://www.w3.org/2000/svg">
<g clip-path="url(#clip0_2109_190555)">
<path d="M0 0H150V150H0V0Z" fill="black"/>
<path d="M4.33398 0H145.666V150H4.33398V0Z" fill="#080808"/>
<path d="M8.66797 0H141.332V150H8.66797V0Z" fill="#0F0F0F"/>
<path d="M12.7607 0H136.998V150H12.7607V0Z" fill="#171717"/>
<path d="M17.0947 0H132.665V150H17.0947V0Z" fill="#1F1F1F"/>
<path d="M21.6689 0H128.33V150H21.6689V0Z" fill="#292929"/>
<path d="M26.0029 0H123.997V150H26.0029V0Z" fill="#303030"/>
<path d="M30.5781 0H119.182V150H30.5781V0Z" fill="#383838"/>
<path d="M35.1523 0H114.847V150H35.1523V0Z" fill="#404040"/>
<path d="M39.2451 0H110.513V150H39.2451V0Z" fill="#474747"/>
<path d="M43.5791 0H106.179V150H43.5791V0Z" fill="#4F4F4F"/>
<path d="M47.9131 0H101.846V150H47.9131V0Z" fill="#575757"/>
<path d="M52.4883 0H97.5124V150H52.4883V0Z" fill="#5E5E5E"/>
<path d="M56.5811 0H93.1782V150H56.5811V0Z" fill="#696969"/>
<path d="M60.915 0H88.8444V150H60.915V0Z" fill="#707070"/>
<path d="M65.7305 0H84.5106V150H65.7305V0Z" fill="#787878"/>
<path d="M70.0645 0H79.6953V150H70.0645V0Z" fill="#7F7F7F"/>
<path d="M0 6.30469H150V143.542H0V6.30469Z" fill="#999999"/>
<path d="M4.33398 6.30469H145.666V143.542H4.33398V6.30469Z" fill="#9E9E9E"/>
<path d="M8.66797 6.30469H141.332V143.542H8.66797V6.30469Z" fill="#A3A3A3"/>
<path d="M12.7607 6.30469H136.998V143.542H12.7607V6.30469Z" fill="#A8A8A8"/>
<path d="M17.0947 6.30469H132.665V143.542H17.0947V6.30469Z" fill="#ABABAB"/>
<path d="M21.6689 6.30469H128.33V143.542H21.6689V6.30469Z" fill="#B0B0B0"/>
<path d="M26.0029 6.30469H123.997V143.542H26.0029V6.30469Z" fill="#B5B5B5"/>
<path d="M30.5781 6.30469H119.182V143.542H30.5781V6.30469Z" fill="#BABABA"/>
<path d="M35.1523 6.30469H114.847V143.542H35.1523V6.30469Z" fill="#BFBFBF"/>
<path d="M39.2461 6.30469H110.514V143.542H39.2461V6.30469Z" fill="#C4C4C4"/>
<path d="M43.5791 6.30469H106.179V143.542H43.5791V6.30469Z" fill="#C9C9C9"/>
<path d="M47.9131 6.30469H101.846V143.542H47.9131V6.30469Z" fill="#CFCFCF"/>
<path d="M52.4883 6.30469H97.5124V143.542H52.4883V6.30469Z" fill="#D1D1D1"/>
<path d="M56.5811 6.30469H93.1782V143.542H56.5811V6.30469Z" fill="#D6D6D6"/>
<path d="M60.915 6.30469H88.8444V143.542H60.915V6.30469Z" fill="#DBDBDB"/>
<path d="M65.7305 6.30469H84.5106V143.542H65.7305V6.30469Z" fill="#E0E0E0"/>
<path d="M70.0645 6.30469H79.6953V143.542H70.0645V6.30469Z" fill="#E5E5E5"/>
<path d="M73.4346 6.30469L74.8792 112.461L75.8423 6.30469H73.4346Z" fill="#F2F2F2"/>
<path d="M73.4346 6.30631V0H75.8423V6.30631H73.4346Z" fill="#8C8C8C"/>
<path d="M0 0H150V150H0V0Z" stroke="black" stroke-width="0.380272"/>
<path d="M63.3223 37.3861V24.7734H85.9547V37.3861H63.3223Z" fill="white"/>
<path d="M63.3223 37.3867H85.9547" stroke="black" stroke-width="0.380272"/>
</g>
<defs>
<clipPath id="clip0_2109_190555">
<rect width="150" height="150" fill="white"/>
</clipPath>
</defs>
</svg>
