<svg width="150" height="150" viewBox="0 0 150 150" fill="none" xmlns="http://www.w3.org/2000/svg">
<g clip-path="url(#clip0_2109_188672)">
<path d="M13.9639 6.69141H73.4233" stroke="#859985" stroke-width="0.37229"/>
<path d="M11.5615 10.3828H75.6756" stroke="#859985" stroke-width="0.37229"/>
<path d="M8.55859 14.0781H78.8289" stroke="#859985" stroke-width="0.37229"/>
<path d="M23.4238 3.46094H26.4268V15.4609H23.4238V3.46094Z" fill="#859985" stroke="black" stroke-width="0.37229"/>
<path d="M42.1924 3.46094H45.3455V15.4609H42.1924V3.46094Z" fill="#859985" stroke="black" stroke-width="0.37229"/>
<path d="M60.9609 3.46094H63.9639V15.4609H60.9609V3.46094Z" fill="#859985" stroke="black" stroke-width="0.37229"/>
<path d="M0 20.0781H150V140.309H0V20.0781Z" fill="#333333"/>
<path d="M0 34.8477H150" stroke="#476647" stroke-width="0.37229"/>
<path d="M0 54H150" stroke="#476647" stroke-width="0.37229"/>
<path d="M0 73.1523H150" stroke="#476647" stroke-width="0.37229"/>
<path d="M0 92.3086H150" stroke="#476647" stroke-width="0.37229"/>
<path d="M0 111.461H150" stroke="#476647" stroke-width="0.37229"/>
<path d="M0 130.617H150" stroke="#476647" stroke-width="0.37229"/>
<path d="M5.40527 34.8477H144.444" stroke="#859985" stroke-width="0.37229"/>
<path d="M5.40527 54H144.444" stroke="#859985" stroke-width="0.37229"/>
<path d="M5.40527 73.1523H144.444" stroke="#859985" stroke-width="0.37229"/>
<path d="M5.40527 92.3086H144.444" stroke="#859985" stroke-width="0.37229"/>
<path d="M5.40527 111.461H144.444" stroke="#859985" stroke-width="0.37229"/>
<path d="M5.40527 130.617H144.444" stroke="#859985" stroke-width="0.37229"/>
<path d="M13.2129 34.8477H136.636" stroke="#A3B2A3" stroke-width="0.37229"/>
<path d="M13.2129 54H136.636" stroke="#A3B2A3" stroke-width="0.37229"/>
<path d="M13.2129 73.1523H136.636" stroke="#A3B2A3" stroke-width="0.37229"/>
<path d="M13.2129 92.3086H136.636" stroke="#A3B2A3" stroke-width="0.37229"/>
<path d="M13.2129 111.461H136.636" stroke="#A3B2A3" stroke-width="0.37229"/>
<path d="M13.2129 130.617H136.636" stroke="#A3B2A3" stroke-width="0.37229"/>
<path d="M6.90723 145.152H142.943V149.998H6.90723V145.152Z" fill="black"/>
<path d="M103.003 20.0781H106.156V140.309H103.003V20.0781Z" fill="#A3B2A3"/>
<path d="M84.3848 20.0781H87.3878V140.309H84.3848V20.0781Z" fill="#A3B2A3"/>
<path d="M65.6152 20.0781H68.6182V140.309H65.6152V20.0781Z" fill="#A3B2A3"/>
<path d="M46.8467 20.0781H49.9998V140.309H46.8467V20.0781Z" fill="#A3B2A3"/>
<path d="M124.925 20.0781H128.078V140.309H124.925V20.0781Z" fill="#859985"/>
<path d="M28.0781 20.0781H31.2313V140.309H28.0781V20.0781Z" fill="#859985"/>
<path d="M143.693 20.0781H146.847V140.309H143.693V20.0781Z" fill="#476647"/>
<path d="M9.30957 20.0781H12.4627V140.309H9.30957V20.0781Z" fill="#476647"/>
<path d="M0 140.309H150L147.598 145.155H2.25225L0 140.309Z" fill="#476647"/>
<path d="M2.25225 15.4609H147.598L150 20.0763H0L2.25225 15.4609Z" fill="#476647"/>
<path d="M9.3094 15.4615L17.868 3.46154H69.5196L81.2313 15.4615H84.3845L70.2704 0H17.1172L6.15625 15.4615H9.3094Z" fill="#859985" stroke="black" stroke-width="0.37229"/>
<path d="M5.40527 140.309H144.444L142.342 145.155H7.50738L5.40527 140.309Z" fill="#859985"/>
<path d="M7.50738 15.4609H142.342L144.444 20.0763H5.40527L7.50738 15.4609Z" fill="#859985"/>
<path d="M13.2129 140.309H136.636L134.684 145.155H15.1648L13.2129 140.309Z" fill="#A3B2A3"/>
<path d="M15.1648 15.4609H134.684L136.636 20.0763H13.2129L15.1648 15.4609Z" fill="#A3B2A3"/>
<path d="M0 140.309H150L147.598 145.155H2.25225L0 140.309Z" stroke="black" stroke-width="0.37229"/>
<path d="M2.25225 15.4609H147.598L150 20.0763H0L2.25225 15.4609Z" stroke="black" stroke-width="0.37229"/>
<path d="M62.4629 68.3086H87.3878V82.6163H62.4629V68.3086Z" fill="#DDE5DD" stroke="black" stroke-width="0.37229"/>
</g>
<defs>
<clipPath id="clip0_2109_188672">
<rect width="150" height="150" fill="white"/>
</clipPath>
</defs>
</svg>
