<svg width="150" height="150" viewBox="0 0 150 150" fill="none" xmlns="http://www.w3.org/2000/svg">
<g clip-path="url(#clip0_2109_188127)">
<path d="M12.7628 95.543H6.45646L0 123.266L6.45646 139.107H12.7628V95.543Z" fill="#CC9933" stroke="black" stroke-width="0.545277"/>
<path d="M12.7632 4.94922L3.30371 58.9096L11.4118 85.6423H12.7632V4.94922Z" fill="#CC9933" stroke="black" stroke-width="0.545277"/>
<path d="M13.6633 4.94922L4.05371 58.9096" stroke="#996600" stroke-width="0.545277"/>
<path d="M13.6632 98.5156H6.45595L0.900391 123.268" stroke="#996600" stroke-width="0.545277"/>
<path d="M12.7627 0H150V150H12.7627V0Z" fill="#E5B24C"/>
<path d="M12.7627 106.435L150 10.8906V150H12.7627V106.435Z" fill="#E0AD47"/>
<path d="M12.7627 112.377L150 15.3477V150.001H12.7627V112.377Z" fill="#DBA842"/>
<path d="M12.7627 122.278L150 26.2383V150.001H12.7627V122.278Z" fill="#D6A33D"/>
<path d="M120.57 4.94922H146.546V63.8601H120.57V4.94922Z" fill="#996600" stroke="black" stroke-width="0.545277"/>
<path d="M120.57 79.7031H146.546V139.109H120.57V79.7031Z" fill="#996600" stroke="black" stroke-width="0.545277"/>
<path d="M135.285 90.5938H145.195V139.109H135.285V90.5938Z" fill="#663300"/>
<path d="M135.285 79.7031H138.438V90.5942H135.285V79.7031Z" fill="#663300"/>
<path d="M135.285 63.862H138.438V26.2383H135.285V63.862Z" fill="#663300"/>
<path d="M120.57 26.2383H135.285V37.6244H120.57V26.2383Z" fill="#663300"/>
<path d="M120.57 79.7031H135.285V112.376H120.57V79.7031Z" fill="#663300"/>
<path d="M120.57 4.94922L135.585 63.8601" stroke="black" stroke-width="0.545277"/>
<path d="M120.57 34.1602L128.078 63.8631" stroke="black" stroke-width="0.545277"/>
<path d="M128.078 4.94922L143.093 63.8601" stroke="black" stroke-width="0.545277"/>
<path d="M135.586 4.94922L146.547 49.0086" stroke="black" stroke-width="0.545277"/>
<path d="M143.093 4.94922L146.546 19.3057" stroke="black" stroke-width="0.545277"/>
<path d="M122.673 4.94922L137.388 63.8601" stroke="black" stroke-width="0.545277"/>
<path d="M120.57 26.2383L129.88 63.862" stroke="black" stroke-width="0.545277"/>
<path d="M120.57 56.4375L122.672 63.8632" stroke="black" stroke-width="0.545277"/>
<path d="M129.88 4.94922L144.745 63.8601" stroke="black" stroke-width="0.545277"/>
<path d="M137.388 4.94922L146.547 41.0878" stroke="black" stroke-width="0.545277"/>
<path d="M144.745 4.94922L146.547 11.3849" stroke="black" stroke-width="0.545277"/>
<path d="M124.475 4.94922L139.039 63.8601" stroke="black" stroke-width="0.545277"/>
<path d="M120.57 19.3086L131.982 63.863" stroke="black" stroke-width="0.545277"/>
<path d="M120.57 49.0117L124.474 63.8632" stroke="black" stroke-width="0.545277"/>
<path d="M131.982 4.94922L146.547 63.8601" stroke="black" stroke-width="0.545277"/>
<path d="M139.039 4.94922L146.547 34.1571" stroke="black" stroke-width="0.545277"/>
<path d="M126.276 4.94922L141.291 63.8601" stroke="black" stroke-width="0.545277"/>
<path d="M120.57 12.8711L133.784 63.8612" stroke="black" stroke-width="0.545277"/>
<path d="M120.57 41.0898L126.276 63.8621" stroke="black" stroke-width="0.545277"/>
<path d="M133.784 4.94922L146.547 56.4344" stroke="black" stroke-width="0.545277"/>
<path d="M141.291 4.94922L146.546 26.2363" stroke="black" stroke-width="0.545277"/>
<path d="M146.546 4.94922L131.531 63.8601" stroke="black" stroke-width="0.545277"/>
<path d="M146.547 34.1602L139.039 63.8631" stroke="black" stroke-width="0.545277"/>
<path d="M139.039 4.94922L124.475 63.8601" stroke="black" stroke-width="0.545277"/>
<path d="M131.531 4.94922L120.57 49.0086" stroke="black" stroke-width="0.545277"/>
<path d="M124.474 4.94922L120.57 19.3057" stroke="black" stroke-width="0.545277"/>
<path d="M144.745 4.94922L129.88 63.8601" stroke="black" stroke-width="0.545277"/>
<path d="M146.547 26.2383L137.388 63.862" stroke="black" stroke-width="0.545277"/>
<path d="M146.547 56.4375L144.745 63.8632" stroke="black" stroke-width="0.545277"/>
<path d="M137.388 4.94922L122.673 63.8601" stroke="black" stroke-width="0.545277"/>
<path d="M129.88 4.94922L120.57 41.0878" stroke="black" stroke-width="0.545277"/>
<path d="M122.672 4.94922L120.57 11.3849" stroke="black" stroke-width="0.545277"/>
<path d="M143.093 4.94922L128.078 63.8601" stroke="black" stroke-width="0.545277"/>
<path d="M146.547 19.3086L135.586 63.863" stroke="black" stroke-width="0.545277"/>
<path d="M146.546 49.0117L143.093 63.8632" stroke="black" stroke-width="0.545277"/>
<path d="M135.585 4.94922L120.57 63.8601" stroke="black" stroke-width="0.545277"/>
<path d="M128.078 4.94922L120.57 34.1571" stroke="black" stroke-width="0.545277"/>
<path d="M140.841 4.94922L126.276 63.8601" stroke="black" stroke-width="0.545277"/>
<path d="M146.547 12.8711L133.784 63.8612" stroke="black" stroke-width="0.545277"/>
<path d="M146.547 41.0898L140.841 63.8621" stroke="black" stroke-width="0.545277"/>
<path d="M133.784 4.94922L120.57 56.4344" stroke="black" stroke-width="0.545277"/>
<path d="M126.276 4.94922L120.57 26.2363" stroke="black" stroke-width="0.545277"/>
<path d="M120.57 79.7031L135.585 139.109" stroke="black" stroke-width="0.545277"/>
<path d="M120.57 109.406L128.078 139.109" stroke="black" stroke-width="0.545277"/>
<path d="M128.078 79.7031L143.093 139.109" stroke="black" stroke-width="0.545277"/>
<path d="M135.586 79.7031L146.547 124.258" stroke="black" stroke-width="0.545277"/>
<path d="M143.093 79.7031L146.546 94.5546" stroke="black" stroke-width="0.545277"/>
<path d="M122.673 79.7031L137.388 139.109" stroke="black" stroke-width="0.545277"/>
<path d="M120.57 101.484L129.88 139.108" stroke="black" stroke-width="0.545277"/>
<path d="M120.57 131.188L122.672 139.108" stroke="black" stroke-width="0.545277"/>
<path d="M129.88 79.7031L144.745 139.109" stroke="black" stroke-width="0.545277"/>
<path d="M137.388 79.7031L146.547 116.337" stroke="black" stroke-width="0.545277"/>
<path d="M144.745 79.7031L146.547 87.6239" stroke="black" stroke-width="0.545277"/>
<path d="M124.475 79.7031L139.039 139.109" stroke="black" stroke-width="0.545277"/>
<path d="M120.57 94.5547L131.982 139.109" stroke="black" stroke-width="0.545277"/>
<path d="M120.57 124.258L124.474 139.109" stroke="black" stroke-width="0.545277"/>
<path d="M131.982 79.7031L146.547 139.109" stroke="black" stroke-width="0.545277"/>
<path d="M139.039 79.7031L146.547 109.406" stroke="black" stroke-width="0.545277"/>
<path d="M126.276 79.7031L141.291 139.109" stroke="black" stroke-width="0.545277"/>
<path d="M120.57 87.625L133.784 139.11" stroke="black" stroke-width="0.545277"/>
<path d="M120.57 116.336L126.276 139.108" stroke="black" stroke-width="0.545277"/>
<path d="M133.784 79.7031L146.547 131.188" stroke="black" stroke-width="0.545277"/>
<path d="M141.291 79.7031L146.546 101.485" stroke="black" stroke-width="0.545277"/>
<path d="M146.546 79.7031L131.531 139.109" stroke="black" stroke-width="0.545277"/>
<path d="M146.547 109.406L139.039 139.109" stroke="black" stroke-width="0.545277"/>
<path d="M139.039 79.7031L124.475 139.109" stroke="black" stroke-width="0.545277"/>
<path d="M131.531 79.7031L120.57 124.258" stroke="black" stroke-width="0.545277"/>
<path d="M124.474 79.7031L120.57 94.5546" stroke="black" stroke-width="0.545277"/>
<path d="M144.745 79.7031L129.88 139.109" stroke="black" stroke-width="0.545277"/>
<path d="M146.547 101.484L137.388 139.108" stroke="black" stroke-width="0.545277"/>
<path d="M146.547 131.188L144.745 139.108" stroke="black" stroke-width="0.545277"/>
<path d="M137.388 79.7031L122.673 139.109" stroke="black" stroke-width="0.545277"/>
<path d="M129.88 79.7031L120.57 116.337" stroke="black" stroke-width="0.545277"/>
<path d="M122.672 79.7031L120.57 87.6239" stroke="black" stroke-width="0.545277"/>
<path d="M143.093 79.7031L128.078 139.109" stroke="black" stroke-width="0.545277"/>
<path d="M146.547 94.5547L135.586 139.109" stroke="black" stroke-width="0.545277"/>
<path d="M146.546 124.258L143.093 139.109" stroke="black" stroke-width="0.545277"/>
<path d="M135.585 79.7031L120.57 139.109" stroke="black" stroke-width="0.545277"/>
<path d="M128.078 79.7031L120.57 109.406" stroke="black" stroke-width="0.545277"/>
<path d="M140.841 79.7031L126.276 139.109" stroke="black" stroke-width="0.545277"/>
<path d="M146.547 87.625L133.784 139.11" stroke="black" stroke-width="0.545277"/>
<path d="M146.547 116.336L140.841 139.108" stroke="black" stroke-width="0.545277"/>
<path d="M133.784 79.7031L120.57 131.188" stroke="black" stroke-width="0.545277"/>
<path d="M126.276 79.7031L120.57 101.485" stroke="black" stroke-width="0.545277"/>
<path d="M12.7627 0H150V150H12.7627V0Z" stroke="black" stroke-width="0.545277"/>
<path d="M16.0664 58.9102H30.7811V85.6428H16.0664V58.9102Z" fill="#E5E5E5"/>
<path d="M16.0664 85.6428L17.8682 63.8607H29.2796L30.7811 85.6428V58.9102H16.0664V85.6428Z" fill="#7F7F7F"/>
<path d="M16.0664 58.9102H30.7811V85.6428H16.0664V58.9102Z" stroke="#663300" stroke-width="0.545277"/>
<path d="M15.4658 123.266H17.1175V125.246H15.4658V123.266Z" fill="#663300"/>
<path d="M15.4658 90.5938H17.1175V93.564H15.4658V90.5938Z" fill="#663300"/>
<path d="M38.2881 123.266H39.7896V125.246H38.2881V123.266Z" fill="#663300"/>
<path d="M38.2881 18.8125H39.7896V20.2976H38.2881V18.8125Z" fill="#663300"/>
<path d="M38.2881 71.7812H39.7896V74.7515H38.2881V71.7812Z" fill="#663300"/>
<path d="M54.5049 123.266H56.0064V125.246H54.5049V123.266Z" fill="#663300"/>
<path d="M54.5049 18.8125H56.0064V20.2976H54.5049V18.8125Z" fill="#663300"/>
<path d="M54.5049 71.7812H56.0064V74.7515H54.5049V71.7812Z" fill="#663300"/>
<path d="M71.0215 123.266H72.523V125.246H71.0215V123.266Z" fill="#663300"/>
<path d="M71.0215 18.8125H72.523V20.2976H71.0215V18.8125Z" fill="#663300"/>
<path d="M71.0215 71.7812H72.523V74.7515H71.0215V71.7812Z" fill="#663300"/>
<path d="M85.4355 123.266H87.2373V125.246H85.4355V123.266Z" fill="#663300"/>
<path d="M85.4355 18.8125H87.2373V20.2976H85.4355V18.8125Z" fill="#663300"/>
<path d="M85.4355 71.7812H87.2373V74.7515H85.4355V71.7812Z" fill="#663300"/>
<path d="M106.757 123.266H108.258V125.246H106.757V123.266Z" fill="#663300"/>
<path d="M106.757 18.8125H108.258V20.2976H106.757V18.8125Z" fill="#663300"/>
<path d="M106.757 71.7812H108.258V74.7515H106.757V71.7812Z" fill="#663300"/>
<path d="M131.982 142.078H137.688V147.029H131.982V142.078Z" fill="#663300"/>
<path d="M97.748 142.078H103.454V147.029H97.748V142.078Z" fill="#663300"/>
<path d="M62.6123 142.078H68.318V147.029H62.6123V142.078Z" fill="#663300"/>
<path d="M28.3789 142.078H34.0846V147.029H28.3789V142.078Z" fill="#663300"/>
<path d="M136.187 142.078V147.029" stroke="#CC9933" stroke-width="0.545277"/>
<path d="M101.952 142.078V147.029" stroke="#CC9933" stroke-width="0.545277"/>
<path d="M66.8164 142.078V147.029" stroke="#CC9933" stroke-width="0.545277"/>
<path d="M32.583 142.078V147.029" stroke="#CC9933" stroke-width="0.545277"/>
<path d="M99.249 142.078V147.029" stroke="#F2E5CC" stroke-width="0.545277"/>
<path d="M133.784 142.078V147.029" stroke="#F2E5CC" stroke-width="0.545277"/>
<path d="M30.1797 142.078V147.029" stroke="#F2E5CC" stroke-width="0.545277"/>
<path d="M64.4141 142.078V147.029" stroke="#F2E5CC" stroke-width="0.545277"/>
<path d="M16.0664 4.94922H30.7811V7.42447H16.0664V4.94922Z" fill="#CCCCCC"/>
<path d="M16.0664 4.94922H117.268V139.108H16.0664V4.94922Z" stroke="#996600" stroke-width="0.545277"/>
<path d="M30.7812 85.6445L31.0816 139.11" stroke="#996600" stroke-width="0.545277"/>
<path d="M39.1895 4.94922V139.108" stroke="#996600" stroke-width="0.545277"/>
<path d="M53.9043 4.94922V139.108" stroke="#996600" stroke-width="0.545277"/>
<path d="M55.4053 4.94922V139.108" stroke="#996600" stroke-width="0.545277"/>
<path d="M70.1201 4.94922V139.108" stroke="#996600" stroke-width="0.545277"/>
<path d="M71.6211 4.94922V139.108" stroke="#996600" stroke-width="0.545277"/>
<path d="M86.3359 4.94922V139.108" stroke="#996600" stroke-width="0.545277"/>
<path d="M96.2461 4.94922V139.108" stroke="#996600" stroke-width="0.545277"/>
<path d="M107.357 4.94922V139.108" stroke="#996600" stroke-width="0.545277"/>
<path d="M16.0664 7.42578H30.7811V58.9109H16.0664V7.42578Z" fill="#FFCC66" stroke="#CC9933" stroke-width="0.545277"/>
</g>
<defs>
<clipPath id="clip0_2109_188127">
<rect width="150" height="150" fill="white"/>
</clipPath>
</defs>
</svg>
