<svg width="71" height="302" viewBox="0 0 71 302" fill="none" xmlns="http://www.w3.org/2000/svg">
<g clip-path="url(#clip0_2914_168118)">
<path fill-rule="evenodd" clip-rule="evenodd" d="M2.89331 257.447L19.2296 282.47V301.143H51.9021V282.47L68.2384 257.447H70.7588V251.132H68.2384V194.787H70.7588V188.454H68.2384V127.301H70.7588V120.968H68.2384V63.1173H70.7588V56.7843H68.2384L58.495 38.1116H51.9021V12.7976L42.1741 0.458008H29.1266L19.2296 12.7976V38.1116H12.7904L2.89331 56.7843H0.541992V63.1173H2.89331V120.968H0.541992V127.301H2.89331V188.454H0.541992V194.787H2.89331V251.132H0.541992V257.447H2.89331Z" fill="#7F7F7F"/>
<path fill-rule="evenodd" clip-rule="evenodd" d="M7.45203 257.156L21.5907 282.47V301.143H49.6989V282.47L63.8375 257.156H66.0352V251.132H63.8375V194.479H66.0352V188.454H63.8375V127.301H66.0352V120.968H63.8375V63.1173H66.0352V56.7843H63.8375L55.3543 37.8028H49.6989V12.7976L41.2311 0.458008H30.0738L21.5907 12.7976V37.8028H15.9352L7.45203 56.7843H5.25439V63.1173H7.45203V120.968H5.25439V127.301H7.45203V188.454H5.25439V194.479H7.45203V251.132H5.25439V257.156H7.45203Z" fill="#919191"/>
<path fill-rule="evenodd" clip-rule="evenodd" d="M11.8448 257.156L23.7858 282.47V301.143H47.5141V282.47L59.4397 257.156H61.1763V251.132H59.4397V194.479H61.1763V188.454H59.4397V127.301H61.1763V120.968H59.4397V63.1173H61.1763V56.7843H59.4397L52.3704 37.8028H47.5141V12.7976L40.4448 0.458008H30.8551L23.7858 12.7976V37.8028H19.0831L11.8448 56.7843H10.1235V63.1173H11.8448V120.968H10.1235V127.301H11.8448V188.454H10.1235V194.479H11.8448V251.132H10.1235V257.156H11.8448Z" fill="#A3A3A3"/>
<path fill-rule="evenodd" clip-rule="evenodd" d="M16.2493 257.156L25.9928 282.47V301.143H45.3104V282.47L55.0537 257.156H56.4677V251.132H55.0537V194.479H56.4677V188.454H55.0537V127.301H56.4677V120.968H55.0537V63.1173H56.4677V56.7843H55.0537L49.2292 37.8028H45.3104V12.7976L39.5013 0.458008H31.8018L25.9928 12.7976V37.8028H22.2121L16.2493 56.7843H14.8354V63.1173H16.2493V120.968H14.8354V127.301H16.2493V188.454H14.8354V194.479H16.2493V251.132H14.8354V257.156H16.2493Z" fill="#B5B5B5"/>
<path fill-rule="evenodd" clip-rule="evenodd" d="M20.8116 257.156L28.1883 282.47V301.143H43.1107V282.47L50.4873 257.156H51.5938V251.132H50.4873V194.479H51.5938V188.454H50.4873V127.301H51.5938V120.968H50.4873V63.1173H51.5938V56.7843H50.4873L46.0921 37.8028H43.1107V12.7976L38.7154 0.458008H32.7372L28.1883 12.7976V37.8028H25.2069L20.8116 56.7843H19.7051V63.1173H20.8116V120.968H19.7051V127.301H20.8116V188.454H19.7051V194.479H20.8116V251.132H19.7051V257.156H20.8116Z" fill="#C9C9C9"/>
<path fill-rule="evenodd" clip-rule="evenodd" d="M25.2008 257.156L30.5489 282.47V301.143H40.7533V282.47L46.086 257.156H46.8851V251.132H46.086V194.479H46.8851V188.454H46.086V127.301H46.8851V120.968H46.086V63.1173H46.8851V56.7843H46.086L42.9509 37.8028H40.7533V12.7976L37.7719 0.458008H33.5303L30.5489 12.7976V37.8028H28.3512L25.2008 56.7843H24.417V63.1173H25.2008V120.968H24.417V127.301H25.2008V188.454H24.417V194.479H25.2008V251.132H24.417V257.156H25.2008Z" fill="#DBDBDB"/>
<path fill-rule="evenodd" clip-rule="evenodd" d="M29.763 257.156L32.7444 282.47V301.143H38.7073V282.47L41.535 257.156H42.0114V251.132H41.535V194.479H42.0114V188.454H41.535V127.301H42.0114V120.968H41.535V63.1173H42.0114V56.7843H41.535L39.8138 37.8028H38.7073V12.7976L36.8323 0.458008H34.4657L32.7444 12.7976V37.8028H31.4843L29.763 56.7843H29.2866V63.1173H29.763V120.968H29.2866V127.301H29.763V188.454H29.2866V194.479H29.763V251.132H29.2866V257.156H29.763Z" fill="#EDEDED"/>
<path d="M35.5693 301.147C36.4368 301.147 37.14 233.834 37.14 150.8C37.14 67.7654 36.4368 0.453125 35.5693 0.453125C34.7018 0.453125 33.9985 67.7654 33.9985 150.8C33.9985 233.834 34.7018 301.147 35.5693 301.147Z" fill="white"/>
<path fill-rule="evenodd" clip-rule="evenodd" d="M2.89331 257.447L19.2296 282.47V301.143H51.9021V282.47L68.2384 257.447H70.7588V251.132H68.2384V194.787H70.7588V188.454H68.2384V127.301H70.7588V120.968H68.2384V63.1173H70.7588V56.7843H68.2384L58.495 38.1116H51.9021V12.7976L42.1741 0.458008H29.1266L19.2296 12.7976V38.1116H12.7904L2.89331 56.7843H0.541992V63.1173H2.89331V120.968H0.541992V127.301H2.89331V188.454H0.541992V194.787H2.89331V251.132H0.541992V257.447H2.89331Z" stroke="black" stroke-width="0.367645" stroke-miterlimit="3"/>
<path d="M19.2339 12.8027H51.9064" stroke="black" stroke-width="0.367645" stroke-miterlimit="3"/>
<path d="M19.2339 38.1113H51.9064" stroke="black" stroke-width="0.367645" stroke-miterlimit="3"/>
<path d="M19.2339 282.462H51.9064" stroke="black" stroke-width="0.367645" stroke-miterlimit="3"/>
<path d="M2.89795 63.1191H68.243" stroke="black" stroke-width="0.367645" stroke-miterlimit="3"/>
<path d="M2.89795 127.596H68.243" stroke="black" stroke-width="0.367645" stroke-miterlimit="3"/>
<path d="M2.89795 194.785H68.243" stroke="black" stroke-width="0.367645" stroke-miterlimit="3"/>
<path d="M2.89795 257.455H68.243" stroke="black" stroke-width="0.367645" stroke-miterlimit="3"/>
<path d="M2.89795 57.0928H68.243" stroke="#E5E5E5" stroke-width="0.367645" stroke-miterlimit="3"/>
<path d="M2.89795 121.27H68.243" stroke="#E5E5E5" stroke-width="0.367645" stroke-miterlimit="3"/>
<path d="M2.89795 188.458H68.243" stroke="#E5E5E5" stroke-width="0.367645" stroke-miterlimit="3"/>
<path d="M2.89795 251.127H68.243" stroke="#E5E5E5" stroke-width="0.367645" stroke-miterlimit="3"/>
</g>
<defs>
<clipPath id="clip0_2914_168118">
<rect width="71" height="302" fill="white"/>
</clipPath>
</defs>
</svg>
