<svg width="150" height="150" viewBox="0 0 150 150" fill="none" xmlns="http://www.w3.org/2000/svg">
<g clip-path="url(#clip0_2109_208138)">
<path d="M104.655 0.601562H149.249V89.7907H104.655L100.15 90.3913L96.2462 92.3433L93.0931 95.1962L90.8408 98.7998L89.9399 103.154L89.7898 104.656V149.25H0.600586V104.656L0.750736 99.2502L1.20119 93.995L1.80179 88.8899L2.85284 83.6346L3.90389 78.6796L5.40539 73.7247L7.05704 68.9199L8.85884 64.1151L10.9609 59.6106L13.2132 55.1061L15.7658 50.7517L18.4685 46.5475L21.3213 42.4935L24.4745 38.5896L27.6276 34.8358L31.2312 31.2322L34.8348 27.6286L38.5886 24.4754L42.4925 21.3223L46.5465 18.4694L50.7507 15.7667L55.1051 13.2142L59.6096 10.9619L64.1141 8.85982L68.9189 7.05802L73.7237 5.40637L78.6787 3.90487L83.6336 2.85381L88.8889 1.80276L93.994 1.20216L99.2492 0.751713L104.655 0.601562Z" fill="#5C6666"/>
<path d="M6.30664 104.653L6.45679 99.5479L6.75709 94.593L7.50784 89.638L8.25859 84.8332L9.30964 80.0284L10.661 75.3738L12.3126 70.8693L13.9643 66.3647L16.0664 62.0104L18.1685 57.8062L20.5709 53.602L23.1235 49.6981L25.8262 45.7942L28.679 42.0404L31.8322 38.4368L35.1355 35.1335L38.4388 31.8302L42.0424 28.6771L45.7961 25.8242L49.7 23.1215L53.6039 20.569L57.8081 18.1665L62.0123 16.0644L66.3667 13.9623L70.8712 12.3107L75.3757 10.659L80.0304 9.30769L84.8352 8.25664L89.64 7.50589L94.5949 6.75514L99.5499 6.45484L104.655 6.30469H149.25V84.0825H104.655L98.4988 85.1335L94.8952 86.635L90.2406 90.0885L86.637 94.8933L85.1355 98.4969L84.2346 102.551L84.0844 104.653V149.248H6.30664V104.653Z" fill="#777F7F"/>
<path d="M13.6641 104.655L13.8142 100L14.1145 95.3457L14.7151 90.8412L15.616 86.3367L16.6671 81.8322L17.8683 77.628L19.2196 73.4238L20.8713 69.2196L22.6731 65.1656L24.7752 61.2617L26.8773 57.5079L29.2797 53.7542L31.8322 50.1506L34.5349 46.8472L37.3878 43.5439L40.3908 40.3908L43.5439 37.3878L46.8472 34.5349L50.1506 31.8322L53.7542 29.2797L57.5079 26.8773L61.2617 24.7752L65.1656 22.6731L69.2196 20.8713L73.4238 19.2196L77.628 17.8683L81.8322 16.6671L86.3367 15.616L90.8412 14.7151L95.3457 14.1145L100 13.8142L104.655 13.6641H149.25V76.7271H104.655L98.9493 77.1776L93.6941 78.8292L89.0394 81.5319L84.8352 84.8352L81.5319 89.0394L78.8292 93.6941L77.1776 98.9493L76.7271 104.655V149.25H13.6641V104.655Z" fill="#919999"/>
<path d="M104.655 19.3672H149.25V71.3191H104.655L99.5498 71.6194L94.745 72.6705L90.0904 74.4723L85.8862 76.8747L82.1324 79.8777L78.8291 83.3312L75.9762 87.2351L73.724 91.5894L72.0723 96.2441L71.3216 101.199L71.0213 104.652V149.247H19.0693L19.3696 104.652L19.5198 100.148L19.8201 95.7936L20.4207 91.5894L21.1714 87.3852L22.0723 83.3312L23.1234 79.2771L24.4747 75.223L26.1264 71.3191L27.778 67.5654L29.5798 63.9618L31.6819 60.3582L33.9342 56.9047L36.3366 53.6014L38.739 50.2981L44.2946 44.2921L50.3006 38.7366L53.6039 36.3342L56.9072 33.9318L60.3606 31.6795L63.9642 29.5774L67.5678 27.7756L71.3216 26.1239L75.2255 24.4723L79.2795 23.1209L83.3336 22.0699L87.3877 21.169L91.5919 20.4182L95.7961 19.8176L100.15 19.5173L104.655 19.3672Z" fill="#AAB2B2"/>
<path d="M104.654 22.9766L96.2459 23.427L88.1378 24.6282L84.2339 25.5291L80.33 26.5802L76.5763 27.9315L72.8225 29.433L69.2189 31.0847L62.312 34.8384L55.7054 39.1928L49.6994 44.1477L44.1438 49.7033L39.1889 55.7093L34.8345 62.3159L31.0808 69.2228L29.4291 72.8264L27.9276 76.5802L26.5763 80.3339L25.5252 84.2378L24.6243 88.1417L23.4231 96.2498L22.9727 100.454V104.658V149.253H67.5672V104.658L68.0177 98.9525L69.2189 93.5471L71.1709 88.5922L73.8736 83.9375L77.1769 79.7333L81.0808 75.9796L85.4351 72.8264L90.2399 70.424L95.345 68.6222L100.75 67.7213L104.654 67.5712H149.249V22.9766H104.654Z" fill="#C7CCCC"/>
<path d="M104.654 26.875L96.6963 27.1753L88.8885 28.3765L81.5311 30.3285L74.3239 32.881L67.5672 36.1843L61.1107 40.0882L55.1047 44.5927L49.5491 49.5477L44.5942 55.1032L40.0897 61.1092L36.1858 67.5657L32.8825 74.3224L30.3299 81.5297L28.378 88.887L27.1768 96.6948L26.8765 104.653L26.5762 149.247H63.6633L63.9636 104.653L64.414 98.3465L65.7654 92.4906L67.1167 88.7369L68.7684 85.1333L72.0717 80.1783L75.8254 75.8239L80.1798 72.0702L85.1347 68.7669L88.7383 67.1152L92.4921 65.7639L98.3479 64.4125L104.654 63.9621H149.249V26.875H104.654Z" fill="#E0E5E5"/>
<path d="M104.654 32.1328L97.1469 32.5833L90.0898 33.6343L83.0327 35.4361L76.4261 37.8385L70.1198 40.8415L64.1138 44.5953L58.5583 48.6493L53.303 53.304L48.6484 58.5592L44.5943 64.1148L40.8405 70.1208L37.8375 76.4271L35.4351 83.0337L33.6333 90.0908L32.5823 97.1478L32.282 100.902L32.1318 104.655V149.25H58.258V104.655L58.5583 99.8505L59.1589 95.346L60.3601 90.8415L62.0117 86.6373L63.8135 82.5833L66.2159 78.6794L68.9186 75.2259L71.9216 71.9226L75.2249 68.9196L78.6784 66.2169L82.5823 63.8145L86.6363 62.0127L90.8405 60.361L95.3451 59.1598L99.8496 58.5592L104.654 58.2589H149.249V32.1328H104.654Z" fill="#FCFFFF"/>
<path d="M149.249 0.601562H104.655L99.2492 0.751713L93.994 1.20216L88.8889 1.80276L83.6336 2.85381L78.6787 3.90487L73.7237 5.40637L68.9189 7.05802L64.1141 8.85982L59.6096 10.9619L55.1051 13.2142L50.7507 15.7667L46.5465 18.4694L42.4925 21.3223L38.5886 24.4754L34.8348 27.6286L31.2312 31.2322L27.6276 34.8358L24.4745 38.5896L21.3213 42.4935L18.4685 46.5475L15.7658 50.7517L13.2132 55.1061L10.9609 59.6106L8.85884 64.1151L7.05704 68.9199L5.40539 73.7247L3.90389 78.6796L2.85284 83.6346L1.80179 88.8899L1.20119 93.995L0.750736 99.2502L0.600586 104.656V149.25" stroke="black" stroke-width="0.3003"/>
<path d="M149.249 89.7891H104.655L103.153 89.9392L101.652 90.0894L100.15 90.3897L98.799 90.8401L97.4477 91.5909L96.2465 92.3416L95.1954 93.0924L94.1444 94.1434L93.0933 95.1945L92.3426 96.2455L91.5918 97.4467L90.8411 98.7981L90.3906 100.149L90.0903 101.651L89.9402 103.152L89.79 104.654V149.249" stroke="black" stroke-width="0.3003"/>
</g>
<defs>
<clipPath id="clip0_2109_208138">
<rect width="150" height="150" fill="white"/>
</clipPath>
</defs>
</svg>
