<svg width="150" height="150" viewBox="0 0 150 150" fill="none" xmlns="http://www.w3.org/2000/svg">
<g clip-path="url(#clip0_2109_208126)">
<path d="M45.1952 149.25H0.600586V60.061H45.1952L49.6997 59.4604L53.6036 57.5085L56.7567 54.6556L58.8588 51.052L59.9099 46.6977L60.06 45.1962V0.601562H149.249V45.1962L149.099 50.6016L148.649 55.8568L148.048 61.1121L146.997 66.2172L145.946 71.1721L144.595 76.1271L142.793 80.9319L140.991 85.7367L138.889 90.2412L136.637 94.7457L134.084 99.1001L131.381 103.304L128.529 107.358L125.375 111.262L122.222 115.166L118.769 118.77L115.165 122.223L111.261 125.376L107.357 128.529L103.303 131.382L99.0991 134.085L94.7447 136.638L90.2402 138.89L85.7357 140.992L80.9309 142.794L76.1261 144.596L71.1712 145.947L66.2162 146.998L61.1111 148.049L55.8558 148.65L50.6006 149.1L45.1952 149.25Z" fill="#5C6666"/>
<path d="M143.544 45.1962L143.393 50.3013L143.093 55.2562L142.492 60.2112L141.592 65.016L140.541 69.8208L139.189 74.4754L137.538 78.9799L135.886 83.4844L133.934 87.8388L131.682 92.043L129.279 96.2472L126.877 100.151L124.024 104.055L121.171 107.809L118.018 111.412L114.715 114.716L111.411 118.019L107.808 121.172L104.054 124.025L100.15 126.878L96.2462 129.28L92.042 131.683L87.8378 133.935L83.4835 135.887L78.979 137.538L74.4745 139.19L69.8198 140.542L65.015 141.593L60.2102 142.493L55.2552 143.094L50.3003 143.394L45.1952 143.545H0.600586V65.6166H45.1952L51.3513 64.7157L54.9549 63.2142L59.6096 59.6106L63.2132 54.9559L64.7147 51.3523L65.6156 47.2983V45.1962V0.601562H143.544V45.1962Z" fill="#777F7F"/>
<path d="M136.186 45.1962L136.036 49.8508L135.736 54.5055L135.135 59.01L134.384 63.5145L133.333 68.019L131.982 72.2232L130.631 76.4274L128.979 80.6316L127.177 84.6856L125.225 88.5896L122.973 92.3433L120.571 96.0971L118.168 99.7007L115.465 103.004L112.613 106.307L109.459 109.46L106.306 112.614L103.153 115.316L99.6997 118.169L96.0961 120.572L92.3423 122.974L88.5886 125.226L84.6847 127.178L80.6306 128.98L76.5766 130.632L72.3724 131.983L68.018 133.334L63.5135 134.385L59.1591 135.136L54.5045 135.737L50 136.037L45.3453 136.187H0.600586V73.1241H45.3453L50.9009 72.5235L56.1561 70.8718L60.8108 68.3193L64.8649 64.8658L68.3183 60.8118L70.8709 56.007L72.5225 50.7517L73.1231 45.1962V0.601562H136.186V45.1962Z" fill="#919999"/>
<path d="M45.1952 130.632H0.600586V78.5295H45.1952L50.3003 78.2292L55.1051 77.1781L59.7597 75.3763L63.964 72.9739L67.7177 69.9709L71.021 66.5175L73.8739 62.6136L76.1261 58.2592L77.6276 53.6046L78.5285 48.6496L78.6787 45.3463V0.601562H130.631V45.3463L130.48 49.7007L130.18 54.055L129.58 58.2592L128.829 62.4634L127.928 66.6676L126.727 70.7217L125.375 74.6256L123.874 78.5295L122.222 82.2832L120.27 86.037L118.168 89.4904L116.066 92.9439L113.664 96.2472L111.111 99.5505L108.408 102.704L102.703 108.409L99.5495 111.112L96.2462 113.665L92.9429 116.067L89.4895 118.169L85.8859 120.271L82.2823 122.223L78.3784 123.875L74.6246 125.376L70.5706 126.728L66.5165 127.929L62.4624 128.83L58.2582 129.581L53.9039 130.181L49.6997 130.481L45.1952 130.632Z" fill="#AAB2B2"/>
<path d="M45.1952 126.878L53.6036 126.427L61.7117 125.226L65.6156 124.325L69.5195 123.274L73.2733 121.923L77.027 120.421L80.6306 118.77L87.5375 115.016L94.1441 110.662L100.15 105.707L105.706 100.151L110.661 94.1451L115.015 87.5385L118.769 80.6316L120.42 77.028L121.922 73.2742L123.273 69.5205L124.324 65.6166L125.976 57.6586L126.877 49.4004V45.1962V0.601562H82.2823V45.1962L81.8318 50.9019L80.6306 56.3073L78.6787 61.2622L75.976 65.9169L72.6727 70.1211L68.7688 73.8748L64.4144 77.028L59.6096 79.4304L54.5045 81.2322L49.0991 82.1331L45.1952 82.2832H0.600586V126.878H45.1952Z" fill="#C7CCCC"/>
<path d="M45.1952 123.124L53.1531 122.674L60.9609 121.623L68.3183 119.671L75.5255 116.968L82.2823 113.665L88.7387 109.761L94.7447 105.256L100.3 100.301L105.255 94.7457L109.76 88.7397L113.664 82.2832L116.967 75.5265L119.67 68.3193L121.622 60.9619L122.673 53.1541L123.123 45.1962L123.273 0.601562H86.1862L86.036 45.1962L85.5856 51.3523L84.6847 55.4064L82.7327 61.1121L80.1802 66.3673L76.7267 71.1721L72.6727 75.3763L68.018 78.9799L62.9129 81.9829L59.1591 83.4844L53.4534 85.1361L47.2973 86.037H45.1952H0.600586V123.124H45.1952Z" fill="#E0E5E5"/>
<path d="M45.1952 117.719L52.7027 117.268L59.7597 116.217L66.8168 114.415L73.4234 112.013L79.7297 108.86L85.7357 105.256L91.2913 101.052L96.3964 96.3974L101.051 91.2923L105.255 85.7367L108.859 79.7307L112.012 73.4244L114.414 66.8178L116.216 59.7607L117.267 52.7037L117.568 48.9499L117.718 45.1962V0.601562H91.5916V45.1962L91.2913 50.001L90.6907 54.5055L89.4895 59.01L87.988 63.3643L86.036 67.2682L83.6336 71.1721L81.0811 74.7757L77.9279 77.9289L74.7748 81.082L71.1712 83.6346L67.2673 86.037L63.3633 87.989L59.009 89.4904L54.5045 90.6917L50 91.2923L45.1952 91.5926H0.600586V117.719H45.1952Z" fill="#FCFFFF"/>
<path d="M0.600586 149.25H45.1952L50.6006 149.1L55.8558 148.65L61.1111 148.049L66.2162 146.998L71.1712 145.947L76.1261 144.596L80.9309 142.794L85.7357 140.992L90.2402 138.89L94.7447 136.638L99.0991 134.085L103.303 131.382L107.357 128.529L111.261 125.376L115.165 122.223L118.769 118.77L122.222 115.166L125.375 111.262L128.529 107.358L131.381 103.304L134.084 99.1001L136.637 94.7457L138.889 90.2412L140.991 85.7367L142.793 80.9319L144.595 76.1271L145.946 71.1721L146.997 66.2172L148.048 61.1121L148.649 55.8568L149.099 50.6016L149.249 45.1962V0.601562" stroke="black" stroke-width="0.3003"/>
<path d="M0.600586 60.061H45.1952L46.6967 59.9109L48.1982 59.7607L49.6997 59.4604L51.051 58.8598L52.2522 58.2592L53.6036 57.5085L54.6546 56.7577L55.7057 55.7067L56.7567 54.6556L57.5075 53.6046L58.2582 52.2532L58.8588 51.052L59.4594 49.7007L59.7597 48.1992L59.9099 46.6977L60.06 45.1962V0.601562" stroke="black" stroke-width="0.3003"/>
</g>
<defs>
<clipPath id="clip0_2109_208126">
<rect width="150" height="150" fill="white"/>
</clipPath>
</defs>
</svg>
