<svg width="150" height="150" viewBox="0 0 150 150" fill="none" xmlns="http://www.w3.org/2000/svg">
<g clip-path="url(#clip0_2109_208349)">
<path d="M0 44.8949V0H89.9399V44.8949L90.5405 49.3994L92.4925 53.3033L95.3453 56.4565L99.0991 58.7087L103.303 59.9099H104.955H150V150H104.955L99.5496 149.85L94.1441 149.399L89.039 148.799L83.7838 147.748L78.6787 146.697L73.7237 145.195L68.7688 143.544L64.1141 141.592L59.4595 139.489L54.955 137.237L50.4505 134.685L46.2462 131.982L42.042 128.979L38.1381 125.976L34.3844 122.673L30.6306 119.219L27.1772 115.465L23.8739 111.712L20.8709 107.808L17.8679 103.604L15.1652 99.3994L12.6126 94.8949L10.3604 90.3904L8.25826 85.7357L6.30631 81.0811L4.65465 76.1261L3.15315 71.1712L2.1021 66.0661L1.05105 60.8108L0.45045 55.7057L0 50.3003V44.8949Z" fill="#5C6666"/>
<path d="M104.955 144.294L99.85 144.144L94.7449 143.694L89.7899 143.093L84.8349 142.192L80.0301 141.141L75.3755 139.79L70.7208 138.288L66.2163 136.486L61.862 134.535L57.5076 132.282L53.4536 129.88L49.3995 127.327L45.4956 124.474L41.7419 121.622L38.1382 118.468L34.6848 115.165L31.3815 111.712L28.2283 108.108L25.3755 104.354L22.5226 100.45L19.9701 96.3964L17.5677 92.3423L15.3154 87.988L13.3635 83.6336L11.5617 79.1291L10.0602 74.4745L8.70882 69.8198L7.65777 65.015L6.75687 60.0601L6.15626 55.1051L5.70581 50L5.55566 44.8949V0H84.2343V44.8949L85.1352 51.0511L86.7869 54.8048L90.3905 59.4595L95.0452 63.0631L98.7989 64.7147L104.955 65.6156H150V144.294H104.955Z" fill="#777F7F"/>
<path d="M104.955 136.787L100.151 136.637L95.4959 136.336L90.9914 135.736L86.4869 134.985L81.9824 133.934L77.628 132.583L73.4238 131.231L69.2196 129.58L65.0154 127.778L61.1115 125.676L57.3578 123.423L53.604 121.021L50.0004 118.619L46.547 115.766L43.2437 112.913L39.9404 109.91L36.9374 106.607L34.0845 103.303L31.2316 99.8499L28.8292 96.2462L26.4268 92.4925L24.1746 88.7387L22.0725 84.8348L20.2707 80.7808L18.619 76.5766L17.2677 72.2222L15.9163 68.018L14.8653 63.5135L14.1145 59.009L13.5139 54.3544L13.2136 49.8498L13.0635 45.045V0H76.7271V45.045L77.3277 50.6006L78.9794 55.8559L81.5319 60.6607L84.9854 64.8649L89.1896 68.3183L93.9944 70.8709L99.2497 72.5225L104.955 73.1231H150V136.787H104.955Z" fill="#919999"/>
<path d="M18.7686 44.8949V0H71.171V44.8949L71.9217 51.6517L73.8737 58.1081L76.8767 63.8138L81.0809 68.7688L86.0358 72.973L91.7415 76.1261L98.0478 78.0781L104.805 78.6787H150V131.231L104.805 131.081H100.3L95.9457 130.781L91.7415 130.18L87.5373 129.429L83.3331 128.378L79.1289 127.177L75.225 125.976L71.3211 124.324L67.4172 122.673L63.8136 120.721L60.21 118.619L56.7565 116.517L53.3031 114.114L49.9998 111.411L46.8466 108.709L41.1409 102.853L38.4382 99.6997L35.7355 96.5465L33.3331 93.0931L31.231 89.6396L29.1289 86.036L27.177 82.2823L25.5253 78.5285L23.8737 74.6246L22.6725 70.5706L21.4713 66.5165L20.4202 62.3123L19.6695 58.1081L19.0689 53.7538L18.7686 49.3994V44.8949Z" fill="#AAB2B2"/>
<path d="M22.3721 44.8949L22.8225 53.4535L24.1739 61.5616L25.0748 65.6156L26.1258 69.5195L27.4772 73.2733L28.9787 77.027L30.6303 80.6306L32.4321 84.2342L34.3841 87.6877L38.7384 94.2943L43.8435 100.3L49.5492 106.006L55.5553 111.111L62.1619 115.465L65.6153 117.417L69.2189 119.219L72.8225 120.871L76.5763 122.372L80.33 123.724L84.2339 124.775L88.288 125.676L96.3961 127.027L100.6 127.327L104.955 127.477H150V82.4324H104.955L97.297 81.6817L90.3901 79.4294L83.9336 75.976L78.3781 71.4715L73.8736 65.9159L70.4201 59.4595L68.1679 52.5526L67.4171 44.8949V0H22.3721V44.8949Z" fill="#C7CCCC"/>
<path d="M26.2764 44.8949L26.5767 53.003L27.7779 60.8108L29.7298 68.3183L32.4325 75.5255L35.7358 82.4324L39.6397 88.8889L44.1442 94.8949L49.2493 100.601L54.955 105.706L60.9611 110.21L67.4175 114.114L74.3244 117.417L81.5316 120.12L89.0391 122.072L96.8469 123.273L104.955 123.574L150 123.724V86.1862H104.955L98.6487 85.7357L92.6427 84.2342L88.889 82.8829L85.2854 81.2312L80.3304 77.9279L75.8259 74.024L71.922 69.5195L68.6187 64.5646L66.9671 60.961L65.6157 57.2072L64.5647 53.1532L63.8139 46.997L63.6638 44.8949V0H26.2764V44.8949Z" fill="#E0E5E5"/>
<path d="M31.832 44.8949L32.1323 52.4024L33.3335 59.7598L35.1353 66.6667L37.5377 73.4234L40.5407 79.7297L44.2945 85.7357L48.4987 91.4414L53.1534 96.6967L58.4086 101.351L64.1143 105.556L70.1203 109.309L76.4266 112.312L83.1834 114.715L90.0903 116.517L97.4476 117.718L101.201 118.018H104.955H150V91.7417H104.955L100.15 91.5916L95.4957 90.8408L90.9912 89.6396L86.6368 88.1381L82.5828 86.1862L78.6789 83.7838L75.0753 81.0811L71.772 78.0781L68.769 74.7748L66.0663 71.1712L63.6639 67.2673L61.7119 63.2132L60.2104 58.8589L59.0092 54.3544L58.2585 49.6997L58.1083 44.8949V0H31.832V44.8949Z" fill="#FCFFFF"/>
<path d="M0 0V44.8949V50.3003L0.45045 55.7057L1.05105 60.8108L2.1021 66.0661L3.15315 71.1712L4.65465 76.1261L6.30631 81.0811L8.25826 85.7357L10.3604 90.3904L12.6126 94.8949L15.1652 99.3994L17.8679 103.604L20.8709 107.808L23.8739 111.712L27.1772 115.465L30.6306 119.219L34.3844 122.673L38.1381 125.976L42.042 128.979L46.2462 131.982L50.4505 134.685L54.955 137.237L59.4595 139.489L64.1141 141.592L68.7688 143.544L73.7237 145.195L78.6787 146.697L83.7838 147.748L89.039 148.799L94.1441 149.399L99.5495 149.85L104.955 150H150" stroke="black" stroke-width="0.3003"/>
<path d="M89.9395 0V44.8949V46.5465L90.2398 47.8979L90.5401 49.3994L91.1407 50.7508L91.7413 52.1021L92.492 53.3033L93.3929 54.5045L94.2938 55.5556L95.3449 56.4565L96.5461 57.3574L97.7473 58.1081L99.0986 58.7087L100.45 59.3093L101.951 59.6096L103.303 59.9099H104.954H150" stroke="black" stroke-width="0.3003"/>
<path d="M89.9399 44.8984H0" stroke="black" stroke-width="0.3003"/>
<path d="M104.955 59.9062V149.996" stroke="black" stroke-width="0.3003"/>
<path d="M94.2945 55.5547L30.6309 119.218" stroke="black" stroke-width="0.3003"/>
<path d="M91.8918 52.4062L13.9639 97.4513" stroke="black" stroke-width="0.3003"/>
<path d="M90.3901 48.7969L3.45312 72.0701" stroke="black" stroke-width="0.3003"/>
<path d="M97.4474 57.9609L52.4023 135.889" stroke="black" stroke-width="0.3003"/>
<path d="M101.051 59.4609L77.7773 146.398" stroke="black" stroke-width="0.3003"/>
<path d="M89.9399 22.375H0" stroke="black" stroke-width="0.3003"/>
<path d="M127.478 59.9062V149.996" stroke="black" stroke-width="0.3003"/>
</g>
<defs>
<clipPath id="clip0_2109_208349">
<rect width="150" height="150" fill="white"/>
</clipPath>
</defs>
</svg>
