<svg width="150" height="150" viewBox="0 0 150 150" fill="none" xmlns="http://www.w3.org/2000/svg">
<g clip-path="url(#clip0_2109_208100)">
<path d="M112.012 0.601562V37.8388H149.249V112.013H112.012V149.25H37.8378V112.013H0.600586V37.8388H37.8378V0.601562H112.012Z" fill="#5C6666"/>
<path d="M107.658 0.601562V42.4935H149.249V106.608H107.658V149.25H42.4925V106.608H0.600586V42.4935H42.4925V0.601562H107.658Z" fill="#757F7F"/>
<path d="M101.351 0.601562V48.6496H149.249V101.202H101.351V149.25H48.7988V101.202H0.600586V48.6496H48.7988V0.601562H101.351Z" fill="#919999"/>
<path d="M96.5465 0.601562V53.3043H149.249V96.5475H96.5465V149.25H53.3033V96.5475H0.600586V53.3043H53.3033V0.601562H96.5465Z" fill="#AAB2B2"/>
<path d="M93.6937 0.601562V56.3073H149.249V93.5445H93.6937V149.25H56.4564V93.5445H0.600586V56.3073H56.4564V0.601562H93.6937Z" fill="#C7CCCC"/>
<path d="M90.3904 0.601562V59.4604H149.249V90.3913H90.3904V149.25H59.4594V90.3913H0.600586V59.4604H59.4594V0.601562H90.3904Z" fill="#E0E5E5"/>
<path d="M85.8859 0.601562V64.1151H149.249V85.7367H85.8859V149.25H64.2642V85.7367H0.600586V64.1151H64.2642V0.601562H85.8859Z" fill="#FCFFFF"/>
<path d="M0.600586 37.8388H37.8378V0.601562" stroke="black" stroke-width="0.3003"/>
<path d="M112.012 0.601562V37.8388H149.249" stroke="black" stroke-width="0.3003"/>
<path d="M149.249 112.016H112.012V149.253" stroke="black" stroke-width="0.3003"/>
<path d="M37.8378 149.253V112.016H0.600586" stroke="black" stroke-width="0.3003"/>
</g>
<defs>
<clipPath id="clip0_2109_208100">
<rect width="150" height="150" fill="white"/>
</clipPath>
</defs>
</svg>
