<svg width="150" height="150" viewBox="0 0 150 150" fill="none" xmlns="http://www.w3.org/2000/svg">
<g clip-path="url(#clip0_2109_208412)">
<path d="M150 104.955V150H59.9099V104.955L59.3093 100.45L57.3574 96.5465L54.5045 93.3934L50.7508 91.1411L46.5465 89.9399H44.8949H0V0H44.8949H50.3003L55.7057 0.45045L60.8108 1.05105L66.0661 2.1021L71.1712 3.15315L76.1261 4.65465L81.0811 6.30631L85.7357 8.25826L90.3904 10.3604L94.8949 12.6126L99.3994 15.1652L103.604 17.8679L107.808 20.8709L111.712 23.8739L115.465 27.1772L119.219 30.6306L122.673 34.3844L125.976 38.1381L128.979 42.042L131.982 46.2462L134.685 50.4505L137.237 54.955L139.489 59.4595L141.592 64.1141L143.544 68.7688L145.195 73.7237L146.697 78.6787L147.748 83.7838L148.799 89.039L149.399 94.1441L149.85 99.5496L150 104.955Z" fill="#5C6666"/>
<path d="M44.8949 5.55469L50 5.70484L55.1051 6.15529L60.0601 6.75589L65.015 7.65679L69.8198 8.70784L74.4745 10.0592L79.1291 11.5607L83.6336 13.3625L87.988 15.3144L92.3423 17.5667L96.3964 19.9691L100.45 22.5217L104.354 25.3745L108.108 28.2274L111.712 31.3805L115.165 34.6838L118.468 38.1373L121.622 41.7409L124.474 45.4946L127.327 49.3985L129.88 53.4526L132.282 57.5066L134.535 61.861L136.486 66.2153L138.288 70.7199L139.79 75.3745L141.141 80.0292L142.192 84.834L143.093 89.7889L143.694 94.7439L144.144 99.849L144.294 104.954V149.999H65.6156V104.954L64.7147 98.7979L63.0631 95.0442L59.4595 90.3895L54.8048 86.7859L51.0511 85.1343L44.8949 84.2334H0V5.55469H44.8949Z" fill="#777F7F"/>
<path d="M44.8949 13.0625L49.6997 13.2127L54.3544 13.513L58.8589 14.1136L63.3634 14.8643L67.8679 15.9154L72.2222 17.2667L76.4264 18.6181L80.6306 20.2697L84.8348 22.0715L88.7387 24.1736L92.4925 26.4259L96.2462 28.8283L99.8499 31.2307L103.303 34.0835L106.607 36.9364L109.91 39.9394L112.913 43.2427L115.766 46.546L118.619 49.9994L121.021 53.603L123.423 57.3568L125.676 61.1105L127.778 65.0145L129.58 69.0685L131.231 73.2727L132.583 77.6271L133.934 81.8313L134.985 86.3358L135.736 90.8403L136.336 95.4949L136.637 99.9994L136.787 104.804V149.999H73.1231V104.804L72.5225 99.2487L70.8709 93.9934L68.3183 89.1886L64.8649 84.9844L60.6607 81.531L55.8559 78.9784L50.6006 77.3268L44.8949 76.7262H0V13.0625H44.8949Z" fill="#919999"/>
<path d="M131.081 104.954V149.999H78.6787V104.954L77.9279 98.1968L75.976 91.7403L72.973 86.0346L68.7688 81.0797L63.8138 76.8754L58.1081 73.7223L51.8018 71.7703L45.045 71.1697H0V18.6172L45.045 18.7673H49.5495L53.9039 19.0676L58.1081 19.6682L62.3123 20.419L66.5165 21.47L70.7207 22.6712L74.6246 23.8724L78.5285 25.5241L82.4324 27.1757L86.036 29.1277L89.6396 31.2298L93.0931 33.3319L96.5465 35.7343L99.8499 38.437L103.003 41.1397L108.709 46.9956L111.411 50.1487L114.114 53.3019L116.517 56.7553L118.619 60.2088L120.721 63.8124L122.673 67.5661L124.324 71.3199L125.976 75.2238L127.177 79.2778L128.378 83.3319L129.429 87.5361L130.18 91.7403L130.781 96.0947L131.081 100.449V104.954Z" fill="#AAB2B2"/>
<path d="M127.477 104.958L127.027 96.399L125.676 88.2909L124.775 84.2369L123.724 80.333L122.372 76.5792L120.871 72.8255L119.219 69.2218L117.417 65.6182L115.465 62.1648L111.111 55.5582L106.006 49.5522L100.3 43.8465L94.2943 38.7414L87.6877 34.387L84.2342 32.4351L80.6306 30.6333L77.027 28.9816L73.2733 27.4801L69.5195 26.1288L65.6156 25.0777L61.5616 24.1768L53.4535 22.8255L49.2492 22.5252L44.8949 22.375H0V67.42H44.8949L52.5526 68.1708L59.4595 70.423L65.9159 73.8765L71.4715 78.381L75.976 83.9366L79.4294 90.393L81.6817 97.2999L82.4324 104.958V150.003H127.477V104.958Z" fill="#C7CCCC"/>
<path d="M123.574 104.954L123.273 96.8457L122.072 89.0379L120.12 81.5304L117.417 74.3232L114.114 67.4163L110.21 60.9598L105.706 54.9538L100.601 49.2481L94.8949 44.143L88.8889 39.6385L82.4324 35.7346L75.5255 32.4313L68.3183 29.7286L60.8108 27.7767L53.003 26.5755L44.8949 26.2752L0 26.125V63.6625H44.8949L51.2012 64.113L57.2072 65.6145L60.961 66.9658L64.5646 68.6175L69.5195 71.9208L74.024 75.8247L77.9279 80.3292L81.2312 85.2842L82.8829 88.8878L84.2342 92.6415L85.2853 96.6956L86.036 102.852L86.1862 104.954V149.999H123.574V104.954Z" fill="#E0E5E5"/>
<path d="M118.018 104.951L117.718 97.4437L116.517 90.0864L114.715 83.1795L112.312 76.4227L109.309 70.1164L105.556 64.1104L101.351 58.4047L96.6967 53.1494L91.4414 48.4948L85.7357 44.2906L79.7297 40.5368L73.4234 37.5338L66.6667 35.1314L59.7598 33.3296L52.4024 32.1284L48.6486 31.8281H44.8949H0V58.1044H44.8949L49.6997 58.2546L54.3544 59.0053L58.8589 60.2065L63.2132 61.708L67.2673 63.66L71.1712 66.0624L74.7748 68.7651L78.0781 71.7681L81.0811 75.0714L83.7838 78.675L86.1862 82.5789L88.1381 86.6329L89.6396 90.9873L90.8408 95.4918L91.5916 100.146L91.7417 104.951V149.996H118.018V104.951Z" fill="#FCFFFF"/>
<path d="M150 150V104.955L149.85 99.5495L149.399 94.1441L148.799 89.039L147.748 83.7838L146.697 78.6787L145.195 73.7237L143.544 68.7688L141.592 64.1141L139.489 59.4595L137.237 54.955L134.685 50.4505L131.982 46.2462L128.979 42.042L125.976 38.1381L122.673 34.3844L119.219 30.6306L115.465 27.1772L111.712 23.8739L107.808 20.8709L103.604 17.8679L99.3994 15.1652L94.8949 12.6126L90.3904 10.3604L85.7357 8.25826L81.0811 6.30631L76.1261 4.65465L71.1712 3.15315L66.0661 2.1021L60.8108 1.05105L55.7057 0.45045L50.3003 0H44.8949H0" stroke="black" stroke-width="0.3003"/>
<path d="M59.9099 149.998V104.953V103.301L59.6096 101.95L59.3093 100.448L58.7087 99.0967L58.1081 97.7453L57.3574 96.5441L56.4565 95.3429L55.5556 94.2919L54.5045 93.391L53.3033 92.4901L52.1021 91.7393L50.7508 91.1387L49.3994 90.5381L47.8979 90.2378L46.5465 89.9375H44.8949H0" stroke="black" stroke-width="0.3003"/>
<path d="M59.9102 104.953H150" stroke="black" stroke-width="0.3003"/>
<path d="M44.8945 89.9399V0" stroke="black" stroke-width="0.3003"/>
<path d="M55.5557 94.2965L119.219 30.6328" stroke="black" stroke-width="0.3003"/>
<path d="M57.958 97.4513L135.886 52.4062" stroke="black" stroke-width="0.3003"/>
<path d="M59.459 101.055L146.396 77.7812" stroke="black" stroke-width="0.3003"/>
<path d="M52.4023 91.8889L97.4474 13.9609" stroke="black" stroke-width="0.3003"/>
<path d="M48.7988 90.3901L72.0721 3.45312" stroke="black" stroke-width="0.3003"/>
<path d="M59.9102 127.477H150" stroke="black" stroke-width="0.3003"/>
<path d="M22.3721 89.9399V0" stroke="black" stroke-width="0.3003"/>
</g>
<defs>
<clipPath id="clip0_2109_208412">
<rect width="150" height="150" fill="white"/>
</clipPath>
</defs>
</svg>
