<svg width="150" height="150" viewBox="0 0 150 150" fill="none" xmlns="http://www.w3.org/2000/svg">
<g clip-path="url(#clip0_2109_207983)">
<path d="M50 75.0751H0V0H50V75.0751Z" fill="#663300"/>
<path d="M50 0V74.9249L54.955 75.3754L59.6096 76.8769L63.8138 79.2793L67.5676 82.2823L70.5706 86.036L72.973 90.2402L74.4745 94.8949L74.9249 100H150L149.85 94.8949L149.399 89.7898L148.799 84.8348L147.898 79.8799L146.847 75.0751L145.495 70.2703L143.844 65.6156L142.042 61.1111L140.09 56.6066L137.838 52.4024L135.435 48.1982L132.733 44.1441L130.03 40.2402L127.027 36.4865L123.874 32.7327L120.571 29.2793L117.117 25.976L113.514 22.8228L109.61 19.8198L105.706 17.1171L101.652 14.4144L97.5976 12.012L93.2432 9.75976L88.7387 7.80781L84.2342 6.00601L79.5796 4.35435L74.9249 3.003L69.97 1.95195L65.1652 1.05105L60.0601 0.45045L55.1051 0H50Z" fill="#663300"/>
<path d="M74.9248 150V100H150V150H74.9248Z" fill="#663300"/>
<path d="M50 68.7672H0V6.30469H50V68.7672Z" fill="#7F3F0C"/>
<path d="M50 6.15625V68.6187L56.1562 69.3695L62.012 71.1713L67.4174 74.0241L72.0721 77.7779L75.8258 82.4325L78.6787 87.8379L80.4805 93.6938L81.2312 100H143.694L143.544 95.1953L143.243 90.3905L142.643 85.7358L141.742 81.0812L140.691 76.5767L139.489 72.0722L137.988 67.7178L136.336 63.5136L134.384 59.3094L132.282 55.2553L130.03 51.3514L127.628 47.5977L124.925 43.9941L122.222 40.3905L119.219 36.937L116.216 33.6337L112.913 30.6307L109.459 27.6277L105.856 24.925L102.252 22.2223L98.4985 19.8199L94.5946 17.5677L90.5405 15.4656L86.3363 13.5136L82.1321 11.862L77.7778 10.3605L73.2733 9.15925L68.7688 8.1082L64.1141 7.2073L59.4595 6.6067L54.6547 6.3064L50 6.15625Z" fill="#7F3F0C"/>
<path d="M81.2314 150V100H143.694V150H81.2314Z" fill="#7F3F0C"/>
<path d="M50 56.3032H0V18.7656H50V56.3032Z" fill="#B25926"/>
<path d="M131.231 99.9986L130.781 91.5902L129.58 83.6322L127.477 75.8244L124.775 68.3169L121.321 61.2598L117.267 54.5031L112.613 48.3469L107.357 42.4911L101.502 37.2358L95.3453 32.5812L88.5886 28.5271L81.5315 25.0736L74.024 22.3709L66.2162 20.2688L58.2583 19.0676L54.0541 18.7673L50 18.6172V56.1547L54.3544 56.455L58.7087 57.0556L62.9129 58.1067L66.967 59.6082L70.7207 61.41L74.3243 63.6622L77.7778 66.2148L80.7808 69.0676L83.6336 72.0706L86.1862 75.5241L88.4384 79.1277L90.2402 82.8815L91.7417 86.9355L92.7928 91.1397L93.3934 95.4941L93.6937 97.7463V99.9986H131.231Z" fill="#B25926"/>
<path d="M93.6934 150V100H131.231V150H93.6934Z" fill="#B25926"/>
<path d="M50 45.3439H0V29.5781H50V45.3439Z" fill="#CC6633"/>
<path d="M120.27 99.9985H104.655L104.354 94.443L103.453 88.8874L102.102 83.6322L100.3 78.6772L98.048 73.8724L95.3453 69.3679L92.042 65.1637L88.5886 61.2598L84.6847 57.8064L80.4805 54.503L75.976 51.8003L71.1712 49.5481L66.2162 47.7463L60.961 46.3949L55.4054 45.494L52.7027 45.3439L50 45.1937V29.5781L57.0571 30.0286L64.1141 31.0796L70.7207 32.7313L77.1772 35.1337L83.3333 38.1367L89.1892 41.7403L94.5946 45.7943L99.5495 50.2988L104.054 55.2538L108.108 60.6592L111.712 66.5151L114.715 72.6712L117.117 79.1277L118.769 85.7343L119.82 92.7913L120.12 96.3949L120.27 99.9985Z" fill="#CC6633"/>
<path d="M104.505 150V100H120.271V150H104.505Z" fill="#CC6633"/>
<path d="M150 150V100L149.85 94.7447L149.399 89.7898L148.799 84.6847L147.898 79.8799L146.847 75.0751L145.495 70.2703L143.844 65.6156L142.042 61.1111L140.09 56.6066L137.838 52.4024L135.435 48.1982L132.733 44.1441L130.03 40.2402L127.027 36.4865L123.874 32.7327L120.571 29.2793L117.117 25.976L113.363 22.8228L109.61 19.8198L105.706 17.1171L101.652 14.4144L97.4474 12.012L93.2432 9.75976L88.7387 7.80781L84.2342 6.00601L79.5796 4.5045L74.7748 3.15315L69.97 1.95195L65.1652 1.05105L60.0601 0.45045L55.1051 0.15015L50 0H0" stroke="black" stroke-width="0.3003"/>
<path d="M74.9249 149.997V99.997L74.7748 97.4444L74.4745 94.8918L73.7237 92.4894L72.973 90.2372L71.9219 87.9849L70.5706 86.033L69.2192 84.081L67.5676 82.2792L65.7658 80.6276L63.8138 79.2762L61.8619 77.9249L59.6096 76.8738L57.3574 76.1231L54.955 75.5225L52.4024 75.072L50 74.9219L0 75.072" stroke="black" stroke-width="0.3003"/>
</g>
<defs>
<clipPath id="clip0_2109_207983">
<rect width="150" height="150" fill="white"/>
</clipPath>
</defs>
</svg>
