<svg width="150" height="150" viewBox="0 0 150 150" fill="none" xmlns="http://www.w3.org/2000/svg">
<g clip-path="url(#clip0_2109_208224)">
<path d="M0 150V0H150V150H0Z" fill="#5C6666"/>
<path d="M9.03613 150V0H140.964V150H9.03613Z" fill="#757F7F"/>
<path d="M21.6865 150V0H128.313V150H21.6865Z" fill="#919999"/>
<path d="M30.7227 150V0H118.674V150H30.7227Z" fill="#AAB2B2"/>
<path d="M37.3496 150V0H112.651V150H37.3496Z" fill="#C7CCCC"/>
<path d="M43.373 150V0H106.626V150H43.373Z" fill="#E0E5E5"/>
<path d="M53.0117 150V0H96.9876V150H53.0117Z" fill="#FCFFFF"/>
<path d="M0 150V0H150V150H0Z" stroke="black" stroke-width="0.601504"/>
<path d="M0 131.078H150" stroke="black" stroke-width="0.601504"/>
<path d="M0 112.461H150" stroke="black" stroke-width="0.601504"/>
<path d="M0 93.5469H150" stroke="black" stroke-width="0.601504"/>
<path d="M0 74.9219H150" stroke="black" stroke-width="0.601504"/>
<path d="M0 56.0078H150" stroke="black" stroke-width="0.601504"/>
<path d="M0 37.3906H150" stroke="black" stroke-width="0.601504"/>
<path d="M0 18.7656H150" stroke="black" stroke-width="0.601504"/>
<path d="M0 140.539H150" stroke="black" stroke-width="0.601504"/>
<path d="M0 121.773H150" stroke="black" stroke-width="0.601504"/>
<path d="M0 103H150" stroke="black" stroke-width="0.601504"/>
<path d="M0 84.2344H150" stroke="black" stroke-width="0.601504"/>
<path d="M0 65.4688H150" stroke="black" stroke-width="0.601504"/>
<path d="M0 46.8438H150" stroke="black" stroke-width="0.601504"/>
<path d="M0 28.0781H150" stroke="black" stroke-width="0.601504"/>
<path d="M0 9.3125H150" stroke="black" stroke-width="0.601504"/>
</g>
<defs>
<clipPath id="clip0_2109_208224">
<rect width="150" height="150" fill="white"/>
</clipPath>
</defs>
</svg>
