<svg width="150" height="150" viewBox="0 0 150 150" fill="none" xmlns="http://www.w3.org/2000/svg">
<g clip-path="url(#clip0_2109_207966)">
<path d="M75.0751 100V150H0V100H75.0751Z" fill="#663300"/>
<path d="M0 100H74.9249L75.3754 94.8949L76.8769 90.2402L79.2793 86.036L82.2823 82.2823L86.036 79.2793L90.2402 76.8769L94.8949 75.3754L100 74.9249V0H94.8949L89.7898 0.45045L84.8348 1.05105L79.8799 1.95195L75.0751 3.003L70.2703 4.35435L65.6156 6.00601L61.1111 7.80781L56.6066 9.75976L52.4024 12.012L48.1982 14.4144L44.1441 17.1171L40.2402 19.8198L36.4865 22.8228L32.7327 25.976L29.2793 29.2793L25.976 32.7327L22.8228 36.3363L19.8198 40.2402L17.1171 44.1441L14.4144 48.1982L12.012 52.2523L9.75976 56.6066L7.80781 61.1111L6.00601 65.6156L4.35435 70.2703L3.003 74.9249L1.95195 79.8799L1.05105 84.6847L0.45045 89.7898L0 94.7447V100Z" fill="#663300"/>
<path d="M150 74.9249H100V0H150V74.9249Z" fill="#663300"/>
<path d="M68.7691 100V150H6.30664V100H68.7691Z" fill="#7F3F0C"/>
<path d="M6.15625 100H68.6187L69.3695 93.6938L71.1713 87.8379L74.0241 82.4325L77.928 77.7779L82.4325 74.0241L87.8379 71.1713L93.6938 69.3695L100 68.6187V6.15625L95.1953 6.3064L90.3905 6.6067L85.7358 7.2073L81.0812 8.1082L76.5767 9.15925L72.0722 10.3605L67.7178 11.862L63.5136 13.5136L59.3094 15.4656L55.2553 17.5677L51.3514 19.8199L47.5977 22.2223L43.9941 24.925L40.3905 27.6277L36.937 30.6307L33.7839 33.6337L30.6307 36.937L27.6277 40.3905L24.925 43.9941L22.2223 47.5977L19.8199 51.3514L17.5677 55.2553L15.4656 59.3094L13.5136 63.5136L11.862 67.7178L10.3605 72.0722L9.15925 76.5767L8.1082 81.0812L7.2073 85.7358L6.6067 90.3905L6.3064 95.1953L6.15625 100Z" fill="#7F3F0C"/>
<path d="M150 68.6187H100V6.15625H150V68.6187Z" fill="#7F3F0C"/>
<path d="M56.3061 100V150H18.7686V100H56.3061Z" fill="#B25926"/>
<path d="M100.001 18.6172L91.5921 19.0676L83.6342 20.2688L75.8263 22.3709L68.3188 25.0736L61.2618 28.5271L54.505 32.5812L48.3489 37.2358L42.493 42.4911L37.2378 48.3469L32.5831 54.5031L28.5291 61.2598L25.0756 68.3169L22.3729 75.8244L20.2708 83.6322L19.0696 91.5902L18.7693 95.7944L18.6191 99.9986H56.1567L56.457 95.4941L57.0576 91.1397L58.1086 86.9355L59.6101 82.8815L61.4119 79.1277L63.6642 75.5241L66.2167 72.0706L69.0696 69.0676L72.0726 66.2148L75.526 63.6622L79.1297 61.41L82.8834 59.6082L86.9375 58.1067L91.1417 57.0556L95.496 56.455L97.7483 56.1547H100.001V18.6172Z" fill="#B25926"/>
<path d="M150 56.1547H100V18.6172H150V56.1547Z" fill="#B25926"/>
<path d="M45.3449 100V150H29.5791V100H45.3449Z" fill="#CC6633"/>
<path d="M100 29.5781V45.1937L94.4449 45.494L88.8894 46.3949L83.6341 47.7463L78.6792 49.5481L73.8744 51.8003L69.3699 54.503L65.1657 57.8064L61.2618 61.2598L57.8083 65.1637L54.505 69.3679L51.8023 73.8724L49.55 78.6772L47.7482 83.6322L46.3969 88.8874L45.496 94.443L45.3458 97.1457L45.1957 99.9985H29.5801L30.0305 92.7913L31.0816 85.7343L32.7332 79.1277L35.1356 72.6712L38.1386 66.5151L41.7422 60.6592L45.7963 55.2538L50.3008 50.2988L55.2558 45.7943L60.6612 41.7403L66.517 38.1367L72.6732 35.1337L79.1296 32.7313L85.7362 31.0796L92.7933 30.0286L96.3969 29.7283L100 29.5781Z" fill="#CC6633"/>
<path d="M150 45.3439H100V29.5781H150V45.3439Z" fill="#CC6633"/>
<path d="M150 0H100H94.7447L89.7898 0.45045L84.6847 1.05105L79.8799 1.95195L75.0751 3.003L70.2703 4.35435L65.6156 6.00601L61.1111 7.80781L56.6066 9.75976L52.4024 12.012L48.1982 14.4144L44.1441 17.1171L40.2402 19.8198L36.4865 22.8228L32.7327 25.976L29.2793 29.2793L25.976 32.7327L22.8228 36.4865L19.8198 40.2402L17.1171 44.1441L14.4144 48.1982L12.012 52.4024L9.75976 56.6066L7.80781 61.1111L6.00601 65.6156L4.5045 70.2703L3.15315 75.0751L1.95195 79.8799L1.05105 84.6847L0.45045 89.7898L0.15015 94.7447L0 100V150" stroke="black" stroke-width="0.3003"/>
<path d="M150 74.9219H99.9999L97.4473 75.072L94.8948 75.3723L92.4924 76.1231L90.2401 76.8738L87.9879 77.9249L86.0359 79.2762L84.084 80.6276L82.2822 82.2792L80.6305 84.081L79.2792 86.033L77.9278 87.9849L76.8768 90.2372L76.126 92.4894L75.5254 94.8918L75.075 97.4444L74.9248 99.997L75.075 149.997" stroke="black" stroke-width="0.3003"/>
</g>
<defs>
<clipPath id="clip0_2109_207966">
<rect width="150" height="150" fill="white"/>
</clipPath>
</defs>
</svg>
