<svg width="150" height="150" viewBox="0 0 150 150" fill="none" xmlns="http://www.w3.org/2000/svg">
<g clip-path="url(#clip0_2109_181017)">
<path d="M97.6287 5.25391L0.151367 101.65L48.89 149.999L146.065 53.6023L97.6287 5.25391Z" fill="#7F7F7F"/>
<path d="M0.151367 101.65L97.6287 5.25391" stroke="black" stroke-width="0.30151"/>
<path d="M48.8896 150.002L146.064 53.6055" stroke="black" stroke-width="0.30151"/>
<path d="M89.1523 3.75375L93.0878 0L150 56.3063L146.065 60.2102L89.1523 3.75375Z" fill="#CCCCCC" stroke="black" stroke-width="0.30151"/>
<path d="M80.9785 11.8609L85.2167 7.95703L141.826 64.1132L137.891 68.3174L80.9785 11.8609Z" fill="#CCCCCC" stroke="black" stroke-width="0.30151"/>
<path d="M72.8057 19.9703L77.0438 16.0664L133.653 72.2226L129.718 76.4268L72.8057 19.9703Z" fill="#CCCCCC" stroke="black" stroke-width="0.30151"/>
<path d="M64.9346 28.0792L68.87 23.875L125.782 80.3315L121.544 84.2354L64.9346 28.0792Z" fill="#CCCCCC" stroke="black" stroke-width="0.30151"/>
<path d="M56.7607 36.1847L60.6962 31.9805L117.608 88.4369L113.37 92.3408L56.7607 36.1847Z" fill="#CCCCCC" stroke="black" stroke-width="0.30151"/>
<path d="M48.5869 43.9937L52.5223 40.0898L109.435 96.5463L105.499 100.45L48.5869 43.9937Z" fill="#CCCCCC" stroke="black" stroke-width="0.30151"/>
<path d="M40.4141 52.1031L44.6522 48.1992L101.262 104.355L97.3263 108.56L40.4141 52.1031Z" fill="#CCCCCC" stroke="black" stroke-width="0.30151"/>
<path d="M32.2402 60.2086L36.4784 56.3047L93.0879 112.461L89.1524 116.665L32.2402 60.2086Z" fill="#CCCCCC" stroke="black" stroke-width="0.30151"/>
<path d="M24.3691 68.3175L28.3046 64.1133L85.2168 120.57L80.9786 124.474L24.3691 68.3175Z" fill="#CCCCCC" stroke="black" stroke-width="0.30151"/>
<path d="M16.1953 76.4269L20.1307 72.2227L77.0429 128.679L72.8048 132.583L16.1953 76.4269Z" fill="#CCCCCC" stroke="black" stroke-width="0.30151"/>
<path d="M8.02246 84.2359L11.9579 80.332L68.8701 136.788L64.9347 140.692L8.02246 84.2359Z" fill="#CCCCCC" stroke="black" stroke-width="0.30151"/>
<path d="M0 92.3414L4.08678 88.4375L60.6963 144.594L56.7608 148.798L0 92.3414Z" fill="#CCCCCC" stroke="black" stroke-width="0.30151"/>
</g>
<defs>
<clipPath id="clip0_2109_181017">
<rect width="150" height="150" fill="white"/>
</clipPath>
</defs>
</svg>
