<svg width="150" height="150" viewBox="0 0 150 150" fill="none" xmlns="http://www.w3.org/2000/svg">
<g clip-path="url(#clip0_2109_180941)">
<path d="M0 6.60547V76.5754L7.22336 76.8757L14.293 77.9268L21.0553 79.7286L27.6639 81.9808L33.8115 84.9838L39.8053 88.4373L45.1844 92.6415L50.2561 96.9959L54.8668 101.951L59.0164 107.356L62.7049 113.212L65.625 119.218L68.084 125.675L69.7746 132.281L70.8504 139.188L71.3115 142.642V146.245H142.93L142.777 139.188L142.162 132.131L141.24 125.074L140.01 118.167L138.32 111.41L136.475 104.804L134.17 98.3472L131.711 92.0409L128.791 85.7346L125.717 79.8787L122.182 74.0229L118.494 68.3172L114.498 62.7616L110.195 57.5064L105.738 52.4013L100.973 47.5965L96.0553 42.9418L90.8299 38.5875L85.2971 34.3832L79.7643 30.4793L73.9242 26.8757L67.9303 23.4223L61.7828 20.4193L55.4816 17.5664L49.0266 15.0139L42.418 12.9118L35.6557 10.9598L28.7398 9.45832L21.6701 8.10697L14.4467 7.35622L7.22336 6.75562L0 6.60547Z" fill="#7F7F7F" stroke="black" stroke-width="0.303818"/>
<path d="M150 144.145V150H66.7012V144.145H150Z" fill="#CCCCCC" stroke="black" stroke-width="0.303818"/>
<path d="M9.52864 81.6817L3.68848 81.0811L12.295 0L18.4426 0.600601L9.52864 81.6817Z" fill="#CCCCCC" stroke="black" stroke-width="0.303818"/>
<path d="M16.598 83.1844L10.7578 81.9832L27.9709 1.95312L33.9648 3.30448L16.598 83.1844Z" fill="#CCCCCC" stroke="black" stroke-width="0.303818"/>
<path d="M23.0533 84.9863L17.5205 83.1845L43.1865 5.70703L49.0267 7.50883L23.0533 84.9863Z" fill="#CCCCCC" stroke="black" stroke-width="0.303818"/>
<path d="M29.5084 87.8395L23.9756 85.5873L57.9408 10.8125L63.4735 13.2149L29.5084 87.8395Z" fill="#CCCCCC" stroke="black" stroke-width="0.303818"/>
<path d="M35.8098 91.1422L30.4307 88.4395L72.2339 17.7188L77.4594 20.4215L35.8098 91.1422Z" fill="#CCCCCC" stroke="black" stroke-width="0.303818"/>
<path d="M41.3419 95.3472L36.4238 91.5934L85.4505 25.5273L90.3685 29.1309L41.3419 95.3472Z" fill="#CCCCCC" stroke="black" stroke-width="0.303818"/>
<path d="M46.5679 99.5494L42.2646 95.9458L98.2073 35.2852L102.511 38.8888L46.5679 99.5494Z" fill="#CCCCCC" stroke="black" stroke-width="0.303818"/>
<path d="M51.1788 104.656L47.4902 100.452L109.58 45.7969L113.269 50.0011L51.1788 104.656Z" fill="#CCCCCC" stroke="black" stroke-width="0.303818"/>
<path d="M55.4817 110.059L52.1006 105.554L119.416 57.6562L123.258 62.0106L55.4817 110.059Z" fill="#CCCCCC" stroke="black" stroke-width="0.303818"/>
<path d="M59.3241 116.065L56.0967 110.96L128.484 70.2695L131.558 75.3746L59.3241 116.065Z" fill="#CCCCCC" stroke="black" stroke-width="0.303818"/>
<path d="M62.0902 122.073L59.4775 116.968L135.861 83.7852L138.32 88.8903L62.0902 122.073Z" fill="#CCCCCC" stroke="black" stroke-width="0.303818"/>
<path d="M64.2417 128.828L62.3975 123.122L141.701 98.0469L143.545 103.452L64.2417 128.828Z" fill="#CCCCCC" stroke="black" stroke-width="0.303818"/>
<path d="M65.6246 135.434L64.5488 129.729L146.311 112.762L147.541 118.467L65.6246 135.434Z" fill="#CCCCCC" stroke="black" stroke-width="0.303818"/>
<path d="M66.7011 142.044L65.9326 136.338L149.078 127.93L149.693 133.635L66.7011 142.044Z" fill="#CCCCCC" stroke="black" stroke-width="0.303818"/>
</g>
<defs>
<clipPath id="clip0_2109_180941">
<rect width="150" height="150" fill="white"/>
</clipPath>
</defs>
</svg>
