<svg width="150" height="150" viewBox="0 0 150 150" fill="none" xmlns="http://www.w3.org/2000/svg">
<g clip-path="url(#clip0_2109_180980)">
<path d="M146.847 142.974V71.4868L139.79 71.0285L132.883 69.9593L126.126 68.279L119.67 65.835L113.513 62.78L107.808 59.2668L102.402 55.1426L97.2971 50.5601L92.7926 45.3666L88.7386 39.8676L85.135 34.0631L82.132 27.6477L79.7296 21.2322L78.0779 14.3585L76.8767 7.17923L76.7266 3.51324L76.5764 0H6.60645L6.7566 7.17923L7.3572 14.5112L8.2581 21.5377L9.4593 28.7169L11.1109 35.5906L12.9128 42.3116L15.165 49.0326L17.5674 55.4481L20.4203 61.7108L23.5734 67.9735L26.8767 73.9308L30.6305 79.7352L34.5344 85.387L38.7386 90.7332L43.0929 95.9267L47.7476 100.967L52.7025 105.703L57.8076 110.132L63.0629 114.409L68.6185 118.381L74.174 122.2L80.18 125.56L86.186 128.768L92.3422 131.67L98.7986 134.267L105.255 136.558L111.862 138.391L118.618 140.071L125.525 141.293L132.582 142.21L139.639 142.821L146.847 142.974Z" fill="#7F7F7F" stroke="black" stroke-width="0.302888"/>
<path d="M144.145 66.4453H150V149.999H144.145V66.4453Z" fill="#CCCCCC" stroke="black" stroke-width="0.302888"/>
<path d="M137.538 65.9883L143.243 66.4465L134.535 149.39L128.679 148.779L137.538 65.9883Z" fill="#CCCCCC" stroke="black" stroke-width="0.302888"/>
<path d="M130.481 64.6133L136.336 65.988L119.37 147.251L113.514 146.029L130.481 64.6133Z" fill="#CCCCCC" stroke="black" stroke-width="0.302888"/>
<path d="M124.174 62.4727L129.579 64.3057L104.504 143.583L98.6484 141.75L124.174 62.4727Z" fill="#CCCCCC" stroke="black" stroke-width="0.302888"/>
<path d="M117.868 59.7266L123.273 62.1706L89.9396 138.393L84.5342 135.796L117.868 59.7266Z" fill="#CCCCCC" stroke="black" stroke-width="0.302888"/>
<path d="M111.712 56.3633L116.817 59.4183L75.9762 131.516L70.8711 128.461L111.712 56.3633Z" fill="#CCCCCC" stroke="black" stroke-width="0.302888"/>
<path d="M106.307 52.3945L110.811 55.755L62.6129 123.27L58.1084 119.91L106.307 52.3945Z" fill="#CCCCCC" stroke="black" stroke-width="0.302888"/>
<path d="M101.201 47.6562L105.405 51.7805L50.4503 113.644L46.2461 109.673L101.201 47.6562Z" fill="#CCCCCC" stroke="black" stroke-width="0.302888"/>
<path d="M96.2464 42.4648L100.15 47.0473L39.3395 102.954L35.4355 98.2184L96.2464 42.4648Z" fill="#CCCCCC" stroke="black" stroke-width="0.302888"/>
<path d="M92.3419 36.9648L95.6453 41.8528L29.2789 90.8854L25.9756 85.9974L92.3419 36.9648Z" fill="#CCCCCC" stroke="black" stroke-width="0.302888"/>
<path d="M88.739 31.0078L91.742 36.354L20.8712 77.9019L17.8682 72.7084L88.739 31.0078Z" fill="#CCCCCC" stroke="black" stroke-width="0.302888"/>
<path d="M86.0363 24.5938L88.4387 30.0927L13.5137 64.0031L11.1113 58.5041L86.0363 24.5938Z" fill="#CCCCCC" stroke="black" stroke-width="0.302888"/>
<path d="M83.7841 18.1758L85.7361 23.6748L7.50786 49.4894L5.70605 43.6849L83.7841 18.1758Z" fill="#CCCCCC" stroke="black" stroke-width="0.302888"/>
<path d="M82.2827 11.3047L83.4839 17.1092L3.30374 34.3699L2.10254 28.5654L82.2827 11.3047Z" fill="#CCCCCC" stroke="black" stroke-width="0.302888"/>
<path d="M81.5315 4.27734L81.982 10.0818L0.45045 19.094L0 12.8313L81.5315 4.27734Z" fill="#CCCCCC" stroke="black" stroke-width="0.302888"/>
</g>
<defs>
<clipPath id="clip0_2109_180980">
<rect width="150" height="150" fill="white"/>
</clipPath>
</defs>
</svg>
