<svg width="150" height="150" viewBox="0 0 150 150" fill="none" xmlns="http://www.w3.org/2000/svg">
<g clip-path="url(#clip0_2109_180815)">
<path d="M135.517 74.624V37.3867H8.27539V74.624H135.517Z" fill="#7F7F7F"/>
<path d="M135.518 37.3867V74.624" stroke="black" stroke-width="0.788233"/>
<path d="M8.27539 37.3867V74.624" stroke="black" stroke-width="0.788233"/>
<path d="M150 73.4219V74.9234H0V73.4219H150Z" fill="#CCCCCC" stroke="black" stroke-width="0.788233"/>
<path d="M150 70.1211V71.6226H0V70.1211H150Z" fill="#CCCCCC" stroke="black" stroke-width="0.788233"/>
<path d="M150 67.1172V68.6187H0V67.1172H150Z" fill="#CCCCCC" stroke="black" stroke-width="0.788233"/>
<path d="M150 64.1133V65.6148H0V64.1133H150Z" fill="#CCCCCC" stroke="black" stroke-width="0.788233"/>
<path d="M150 60.8125V62.314H0V60.8125H150Z" fill="#CCCCCC" stroke="black" stroke-width="0.788233"/>
<path d="M150 57.8086V59.3101H0V57.8086H150Z" fill="#CCCCCC" stroke="black" stroke-width="0.788233"/>
<path d="M150 54.5039V56.3057H0V54.5039H150Z" fill="#CCCCCC" stroke="black" stroke-width="0.788233"/>
<path d="M150 51.5V53.0015H0V51.5H150Z" fill="#CCCCCC" stroke="black" stroke-width="0.788233"/>
<path d="M150 48.5V50.0015H0V48.5H150Z" fill="#CCCCCC" stroke="black" stroke-width="0.788233"/>
<path d="M150 45.1953V46.9971H0V45.1953H150Z" fill="#CCCCCC" stroke="black" stroke-width="0.788233"/>
<path d="M150 42.1914V43.6929H0V42.1914H150Z" fill="#CCCCCC" stroke="black" stroke-width="0.788233"/>
<path d="M150 39.1875V40.689H0V39.1875H150Z" fill="#CCCCCC" stroke="black" stroke-width="0.788233"/>
<path d="M135.517 37.0871V0H8.27539V37.0871H135.517Z" fill="#7F7F7F"/>
<path d="M135.518 0V37.0871" stroke="black" stroke-width="0.788233"/>
<path d="M8.27539 0V37.0871" stroke="black" stroke-width="0.788233"/>
<path d="M150 35.8867V37.3882H0V35.8867H150Z" fill="#CCCCCC" stroke="black" stroke-width="0.788233"/>
<path d="M150 32.8828V34.3843H0V32.8828H150Z" fill="#CCCCCC" stroke="black" stroke-width="0.788233"/>
<path d="M150 29.5781V31.0796H0V29.5781H150Z" fill="#CCCCCC" stroke="black" stroke-width="0.788233"/>
<path d="M150 26.5781V28.0796H0V26.5781H150Z" fill="#CCCCCC" stroke="black" stroke-width="0.788233"/>
<path d="M150 23.2734V25.0752H0V23.2734H150Z" fill="#CCCCCC" stroke="black" stroke-width="0.788233"/>
<path d="M150 20.4219V21.7732H0V20.4219H150Z" fill="#CCCCCC" stroke="black" stroke-width="0.788233"/>
<path d="M150 17.2656V18.7671H0V17.2656H150Z" fill="#CCCCCC" stroke="black" stroke-width="0.788233"/>
<path d="M150 13.9648V15.7666H0V13.9648H150Z" fill="#CCCCCC" stroke="black" stroke-width="0.788233"/>
<path d="M150 10.9609V12.4624H0V10.9609H150Z" fill="#CCCCCC" stroke="black" stroke-width="0.788233"/>
<path d="M150 7.95703V9.45853H0V7.95703H150Z" fill="#CCCCCC" stroke="black" stroke-width="0.788233"/>
<path d="M150 4.65625V6.15775H0V4.65625H150Z" fill="#CCCCCC" stroke="black" stroke-width="0.788233"/>
<path d="M150 1.80078V3.30228H0V1.80078H150Z" fill="#CCCCCC" stroke="black" stroke-width="0.788233"/>
<path d="M135.517 149.548V112.461H8.27539V149.548H135.517Z" fill="#7F7F7F"/>
<path d="M135.518 112.461V149.548" stroke="black" stroke-width="0.788233"/>
<path d="M8.27539 112.461V149.548" stroke="black" stroke-width="0.788233"/>
<path d="M150 148.5V150.002H0V148.5H150Z" fill="#CCCCCC" stroke="black" stroke-width="0.788233"/>
<path d="M150 145.195V146.997H0V145.195H150Z" fill="#CCCCCC" stroke="black" stroke-width="0.788233"/>
<path d="M150 142.191V143.693H0V142.191H150Z" fill="#CCCCCC" stroke="black" stroke-width="0.788233"/>
<path d="M150 139.039V140.691H0V139.039H150Z" fill="#CCCCCC" stroke="black" stroke-width="0.788233"/>
<path d="M150 135.887V137.538H0V135.887H150Z" fill="#CCCCCC" stroke="black" stroke-width="0.788233"/>
<path d="M150 132.883V134.234H0V132.883H150Z" fill="#CCCCCC" stroke="black" stroke-width="0.788233"/>
<path d="M150 129.879V131.38H0V129.879H150Z" fill="#CCCCCC" stroke="black" stroke-width="0.788233"/>
<path d="M150 126.578V128.08H0V126.578H150Z" fill="#CCCCCC" stroke="black" stroke-width="0.788233"/>
<path d="M150 123.574V125.076H0V123.574H150Z" fill="#CCCCCC" stroke="black" stroke-width="0.788233"/>
<path d="M150 120.27V122.071H0V120.27H150Z" fill="#CCCCCC" stroke="black" stroke-width="0.788233"/>
<path d="M150 117.266V118.767H0V117.266H150Z" fill="#CCCCCC" stroke="black" stroke-width="0.788233"/>
<path d="M150 114.266V115.767H0V114.266H150Z" fill="#CCCCCC" stroke="black" stroke-width="0.788233"/>
<path d="M135.517 112.463V74.9258H8.27539V112.463H135.517Z" fill="#7F7F7F"/>
<path d="M135.518 74.9258V112.463" stroke="black" stroke-width="0.788233"/>
<path d="M8.27539 74.9258V112.463" stroke="black" stroke-width="0.788233"/>
<path d="M150 110.961V112.462H0V110.961H150Z" fill="#CCCCCC" stroke="black" stroke-width="0.788233"/>
<path d="M150 107.957V109.459H0V107.957H150Z" fill="#CCCCCC" stroke="black" stroke-width="0.788233"/>
<path d="M150 104.656V106.458H0V104.656H150Z" fill="#CCCCCC" stroke="black" stroke-width="0.788233"/>
<path d="M150 101.652V103.154H0V101.652H150Z" fill="#CCCCCC" stroke="black" stroke-width="0.788233"/>
<path d="M150 98.6484V100.15H0V98.6484H150Z" fill="#CCCCCC" stroke="black" stroke-width="0.788233"/>
<path d="M150 95.3438V96.8453H0V95.3438H150Z" fill="#CCCCCC" stroke="black" stroke-width="0.788233"/>
<path d="M150 92.3438V93.8453H0V92.3438H150Z" fill="#CCCCCC" stroke="black" stroke-width="0.788233"/>
<path d="M150 89.3398V90.8413H0V89.3398H150Z" fill="#CCCCCC" stroke="black" stroke-width="0.788233"/>
<path d="M150 86.0352V87.5367H0V86.0352H150Z" fill="#CCCCCC" stroke="black" stroke-width="0.788233"/>
<path d="M150 83.0312V84.5328H0V83.0312H150Z" fill="#CCCCCC" stroke="black" stroke-width="0.788233"/>
<path d="M150 79.7305V81.5323H0V79.7305H150Z" fill="#CCCCCC" stroke="black" stroke-width="0.788233"/>
<path d="M150 76.7266V78.2281H0V76.7266H150Z" fill="#CCCCCC" stroke="black" stroke-width="0.788233"/>
</g>
<defs>
<clipPath id="clip0_2109_180815">
<rect width="150" height="150" fill="white"/>
</clipPath>
</defs>
</svg>
