<svg width="150" height="150" viewBox="0 0 150 150" fill="none" xmlns="http://www.w3.org/2000/svg">
<g clip-path="url(#clip0_2109_181086)">
<path d="M146.847 118.009L87.988 59.1562L58.5586 88.7337L117.417 147.587L146.847 118.009Z" fill="#7F7F7F"/>
<path d="M87.9883 59.1562L146.847 118.009" stroke="black" stroke-width="0.301055"/>
<path d="M58.5586 88.7305L117.417 147.584" stroke="black" stroke-width="0.301055"/>
<path d="M147.447 113.18L150 115.594L115.615 150.001L113.213 147.586L147.447 113.18Z" fill="#CCCCCC" stroke="black" stroke-width="0.301055"/>
<path d="M142.642 108.047L145.045 110.461L110.811 144.868L108.408 142.453L142.642 108.047Z" fill="#CCCCCC" stroke="black" stroke-width="0.301055"/>
<path d="M137.838 103.219L140.24 105.633L106.006 140.04L103.604 137.625L137.838 103.219Z" fill="#CCCCCC" stroke="black" stroke-width="0.301055"/>
<path d="M132.732 98.3906L135.435 100.805L101.201 135.212L98.498 132.797L132.732 98.3906Z" fill="#CCCCCC" stroke="black" stroke-width="0.301055"/>
<path d="M127.928 93.2578L130.33 95.9741L96.0958 130.381L93.6934 127.664L127.928 93.2578Z" fill="#CCCCCC" stroke="black" stroke-width="0.301055"/>
<path d="M123.123 88.4297L125.525 90.8442L91.2911 125.251L88.8887 122.836L123.123 88.4297Z" fill="#CCCCCC" stroke="black" stroke-width="0.301055"/>
<path d="M118.318 83.6016L120.721 86.016L86.4864 120.422L84.084 118.008L118.318 83.6016Z" fill="#CCCCCC" stroke="black" stroke-width="0.301055"/>
<path d="M113.213 78.7734L115.615 81.1879L81.3809 115.594L78.9785 113.18L113.213 78.7734Z" fill="#CCCCCC" stroke="black" stroke-width="0.301055"/>
<path d="M108.408 73.6406L110.81 76.0551L76.5762 110.462L74.1738 108.047L108.408 73.6406Z" fill="#CCCCCC" stroke="black" stroke-width="0.301055"/>
<path d="M103.603 68.8125L106.006 71.227L71.7715 105.633L69.3691 103.219L103.603 68.8125Z" fill="#CCCCCC" stroke="black" stroke-width="0.301055"/>
<path d="M98.4989 63.9844L101.202 66.3989L66.9674 100.805L64.2646 98.3908L98.4989 63.9844Z" fill="#CCCCCC" stroke="black" stroke-width="0.301055"/>
<path d="M93.6932 58.8516L96.0956 61.5679L61.8614 95.9743L59.459 93.258L93.6932 58.8516Z" fill="#CCCCCC" stroke="black" stroke-width="0.301055"/>
<path d="M87.988 59.1549L29.4294 0L0 29.5775L58.5586 88.7324L87.988 59.1549Z" fill="#7F7F7F"/>
<path d="M29.4297 0L87.9882 59.1549" stroke="black" stroke-width="0.301055"/>
<path d="M0 29.5781L58.5586 88.7331" stroke="black" stroke-width="0.301055"/>
<path d="M88.8885 54.0234L91.2909 56.4379L57.0567 90.8444L54.6543 88.4299L88.8885 54.0234Z" fill="#CCCCCC" stroke="black" stroke-width="0.301055"/>
<path d="M83.784 49.1953L86.4867 51.6098L52.2525 86.0162L49.5498 83.6017L83.784 49.1953Z" fill="#CCCCCC" stroke="black" stroke-width="0.301055"/>
<path d="M78.9794 44.0625L81.3818 46.7788L47.1475 81.1852L44.7451 78.4689L78.9794 44.0625Z" fill="#CCCCCC" stroke="black" stroke-width="0.301055"/>
<path d="M74.1737 39.2344L76.5761 41.6489L42.3419 76.0553L39.9395 73.6408L74.1737 39.2344Z" fill="#CCCCCC" stroke="black" stroke-width="0.301055"/>
<path d="M69.369 34.4062L71.7714 36.8207L37.5372 71.2272L35.1348 68.8127L69.369 34.4062Z" fill="#CCCCCC" stroke="black" stroke-width="0.301055"/>
<path d="M64.2645 29.5781L66.6669 31.9926L32.4327 66.3991L30.0303 63.9846L64.2645 29.5781Z" fill="#CCCCCC" stroke="black" stroke-width="0.301055"/>
<path d="M59.4598 24.4453L61.8622 26.8598L27.628 61.2662L25.2256 58.8517L59.4598 24.4453Z" fill="#CCCCCC" stroke="black" stroke-width="0.301055"/>
<path d="M54.6542 19.6172L57.0566 22.0317L22.8223 56.4381L20.4199 54.0236L54.6542 19.6172Z" fill="#CCCCCC" stroke="black" stroke-width="0.301055"/>
<path d="M49.5497 14.7891L52.2524 17.2035L18.0181 51.61L15.3154 49.1955L49.5497 14.7891Z" fill="#CCCCCC" stroke="black" stroke-width="0.301055"/>
<path d="M44.745 9.65625L47.1474 12.3725L12.9131 46.779L10.5107 44.0627L44.745 9.65625Z" fill="#CCCCCC" stroke="black" stroke-width="0.301055"/>
<path d="M39.9403 4.82812L42.3427 7.24261L8.10846 41.6491L5.70605 39.2346L39.9403 4.82812Z" fill="#CCCCCC" stroke="black" stroke-width="0.301055"/>
<path d="M35.1356 0L37.538 2.41449L3.30377 36.8209L0.901367 34.4064L35.1356 0Z" fill="#CCCCCC" stroke="black" stroke-width="0.301055"/>
</g>
<defs>
<clipPath id="clip0_2109_181086">
<rect width="150" height="150" fill="white"/>
</clipPath>
</defs>
</svg>
