<svg width="150" height="150" viewBox="0 0 150 150" fill="none" xmlns="http://www.w3.org/2000/svg">
<g clip-path="url(#clip0_2109_180999)">
<path d="M143.393 0H71.6216L71.3213 7.20721L70.1201 14.4144L68.4685 21.1712L66.0661 27.7778L63.0631 34.0841L59.4595 39.9399L55.2553 45.4955L50.6006 50.6006L45.4955 55.2553L39.9399 59.4595L34.0841 63.0631L27.7778 66.0661L21.1712 68.4685L14.4144 70.1201L7.20721 71.3213L3.6036 71.4715L0 71.6216V143.393L7.20721 143.243L14.5646 142.643L21.7718 141.742L28.8288 140.541L35.7357 138.889L42.6426 136.937L49.2492 134.685L55.7057 132.132L62.1622 129.279L68.3183 125.976L74.3243 122.523L80.1802 118.919L85.7357 114.865L91.1411 110.511L96.3964 106.006L101.351 101.201L106.156 96.2462L110.661 91.1411L114.865 85.5856L118.919 80.03L122.673 74.1742L126.126 68.1682L129.279 62.012L132.132 55.5556L134.685 49.0991L136.937 42.4925L138.889 35.5856L140.541 28.8288L141.742 21.7718L142.643 14.5646L143.243 7.20721L143.393 0Z" fill="#7F7F7F" stroke="black" stroke-width="0.3003"/>
<path d="M66.0664 9.76162L66.9673 3.60547L150 12.6145L149.25 18.4703L66.0664 9.76162Z" fill="#CCCCCC" stroke="black" stroke-width="0.3003"/>
<path d="M64.8652 16.6684L66.0664 10.8125L148.048 28.0798L146.847 33.9356L64.8652 16.6684Z" fill="#CCCCCC" stroke="black" stroke-width="0.3003"/>
<path d="M62.7627 23.122L64.5645 17.5664L144.294 43.5424L142.492 49.0979L62.7627 23.122Z" fill="#CCCCCC" stroke="black" stroke-width="0.3003"/>
<path d="M59.9102 29.579L62.4627 24.0234L138.739 58.4078L136.337 63.6631L59.9102 29.579Z" fill="#CCCCCC" stroke="black" stroke-width="0.3003"/>
<path d="M56.6064 35.8859L59.6094 30.4805L131.982 72.3724L129.279 77.4775L56.6064 35.8859Z" fill="#CCCCCC" stroke="black" stroke-width="0.3003"/>
<path d="M52.4023 41.2914L56.3062 36.6367L123.574 85.886L120.27 90.5406L52.4023 41.2914Z" fill="#CCCCCC" stroke="black" stroke-width="0.3003"/>
<path d="M47.8975 46.6981L51.9515 42.3438L113.964 98.1996L110.06 102.554L47.8975 46.6981Z" fill="#CCCCCC" stroke="black" stroke-width="0.3003"/>
<path d="M42.9434 51.6517L47.2977 47.5977L103.154 109.76L98.9494 113.664L42.9434 51.6517Z" fill="#CCCCCC" stroke="black" stroke-width="0.3003"/>
<path d="M37.0869 55.5572L42.0419 52.2539L91.141 119.972L86.186 123.275L37.0869 55.5572Z" fill="#CCCCCC" stroke="black" stroke-width="0.3003"/>
<path d="M31.2314 59.3077L36.3366 56.3047L78.2284 128.527L72.823 131.68L31.2314 59.3077Z" fill="#CCCCCC" stroke="black" stroke-width="0.3003"/>
<path d="M24.625 62.0118L30.1806 59.6094L64.2646 136.036L58.7091 138.438L24.625 62.0118Z" fill="#CCCCCC" stroke="black" stroke-width="0.3003"/>
<path d="M18.168 64.2627L23.7235 62.4609L49.6995 142.191L44.1439 143.992L18.168 64.2627Z" fill="#CCCCCC" stroke="black" stroke-width="0.3003"/>
<path d="M11.4111 65.7676L17.267 64.5664L34.5343 146.548L28.6784 147.75L11.4111 65.7676Z" fill="#CCCCCC" stroke="black" stroke-width="0.3003"/>
<path d="M4.35449 66.667L10.5106 66.0664L19.0692 149.25L13.2134 150L4.35449 66.667Z" fill="#CCCCCC" stroke="black" stroke-width="0.3003"/>
</g>
<defs>
<clipPath id="clip0_2109_180999">
<rect width="150" height="150" fill="white"/>
</clipPath>
</defs>
</svg>
