<svg width="150" height="150" viewBox="0 0 150 150" fill="none" xmlns="http://www.w3.org/2000/svg">
<g clip-path="url(#clip0_2109_181161)">
<path d="M70.1386 9.75781L66.4723 13.2113L62.9654 16.8149L59.6179 20.5686L56.2704 24.1722L53.2417 28.0761L50.0536 31.98L47.1843 35.8839L44.315 39.938L41.4457 43.992L38.8953 48.1963L36.3448 52.4005L33.7943 56.7548L31.5626 61.1092L29.331 65.4635L27.2587 69.968L25.1864 74.4725L23.433 78.977L21.6795 83.6317L19.9261 88.1362L18.4914 92.7908L17.0568 97.5956L15.7815 102.25L14.6657 107.055L13.5499 111.71L12.7529 116.515L11.9558 121.169L11.3182 125.974L10.84 130.779L10.5212 135.584L10.2024 140.388L10.043 145.193V149.998H113.337V144.893L113.497 140.088L113.816 135.133L114.613 130.178L115.569 125.373L116.844 120.569L118.438 115.764L120.192 111.259L122.105 106.605L124.496 102.1L126.887 97.7458L129.756 93.5416L132.785 89.4875L135.813 85.4335L139.32 81.6797L141.074 79.8779L142.987 78.0761L70.1386 9.75781Z" fill="#7F7F7F"/>
<path d="M113.337 150V147.447V142.493L113.656 137.538L114.293 132.733L115.09 127.778L116.206 122.973L117.641 118.168L119.235 113.514L121.148 108.859L123.22 104.354L125.611 100L128.321 95.6457L131.19 91.4415L134.219 87.3874L137.566 83.6337L141.073 79.8799L142.986 78.0781" stroke="black" stroke-width="0.309417"/>
<path d="M70.1386 9.75781L66.4723 13.2113L62.9654 16.8149L59.6179 20.5686L56.2704 24.1722L53.2417 28.0761L50.0536 31.98L47.1843 35.8839L44.315 39.938L41.4457 43.992L38.8953 48.1963L36.3448 52.4005L33.7943 56.7548L31.5626 61.1092L29.331 65.4635L27.2587 69.968L25.1864 74.4725L23.433 78.977L21.6795 83.6317L19.9261 88.1362L18.4914 92.7908L17.0568 97.5957L15.7815 102.25L14.6657 107.055L13.5499 111.71L12.7529 116.515L11.9558 121.169L11.3182 125.974L10.84 130.779L10.5212 135.584L10.2024 140.388L10.043 145.193V149.998" stroke="black" stroke-width="0.309417"/>
<path d="M65.6746 0L59.6172 5.55556L143.942 84.985L150 79.2793L65.6746 0Z" fill="#CCCCCC" stroke="black" stroke-width="0.309417"/>
<path d="M137.566 92.4919L142.986 86.1856L50.3717 15.4648L45.1113 21.7712L137.566 92.4919Z" fill="#CCCCCC" stroke="black" stroke-width="0.309417"/>
<path d="M132.147 100.149L136.61 93.3924L36.8227 32.2812L32.3594 39.1882L132.147 100.149Z" fill="#CCCCCC" stroke="black" stroke-width="0.309417"/>
<path d="M127.364 108.557L131.19 101.35L25.3452 50.4492L21.5195 57.6564L127.364 108.557Z" fill="#CCCCCC" stroke="black" stroke-width="0.309417"/>
<path d="M123.857 117.266L126.727 109.758L15.7809 69.668L12.5928 76.8752L123.857 117.266Z" fill="#CCCCCC" stroke="black" stroke-width="0.309417"/>
<path d="M120.989 126.275L123.22 118.467L8.13011 89.4883L5.89844 97.2961L120.989 126.275Z" fill="#CCCCCC" stroke="black" stroke-width="0.309417"/>
<path d="M119.395 135.584L120.67 127.476L3.02915 110.059L1.75391 117.866L119.395 135.584Z" fill="#CCCCCC" stroke="black" stroke-width="0.309417"/>
<path d="M118.757 144.746L119.075 136.788L0.159405 131.082L0 138.89L118.757 144.746Z" fill="#CCCCCC" stroke="black" stroke-width="0.309417"/>
</g>
<defs>
<clipPath id="clip0_2109_181161">
<rect width="150" height="150" fill="white"/>
</clipPath>
</defs>
</svg>
