<svg width="150" height="150" viewBox="0 0 150 150" fill="none" xmlns="http://www.w3.org/2000/svg">
<g clip-path="url(#clip0_2109_180184)">
<path d="M7.95796 149.469C12.353 149.469 15.9159 136.847 15.9159 121.277C15.9159 105.708 12.353 93.0859 7.95796 93.0859C3.5629 93.0859 0 105.708 0 121.277C0 136.847 3.5629 149.469 7.95796 149.469Z" stroke="black" stroke-width="0.565215"/>
<path d="M141.892 150.001C146.37 150.001 150 137.142 150 121.278C150 105.415 146.37 92.5547 141.892 92.5547C137.414 92.5547 133.784 105.415 133.784 121.278C133.784 137.142 137.414 150.001 141.892 150.001Z" stroke="black" stroke-width="0.565215"/>
<path d="M16.0664 121.809L149.4 0" stroke="black" stroke-width="0.565215"/>
</g>
<defs>
<clipPath id="clip0_2109_180184">
<rect width="150" height="150" fill="white"/>
</clipPath>
</defs>
</svg>
