<svg width="150" height="150" viewBox="0 0 150 150" fill="none" xmlns="http://www.w3.org/2000/svg">
<g clip-path="url(#clip0_2109_180077)">
<path d="M12.7628 149.7C19.8114 149.7 25.5255 138.26 25.5255 124.149C25.5255 110.037 19.8114 98.5977 12.7628 98.5977C5.71408 98.5977 0 110.037 0 124.149C0 138.26 5.71408 149.7 12.7628 149.7Z" stroke="black" stroke-width="0.424901"/>
<path d="M136.937 149.7C143.985 149.7 149.699 138.26 149.699 124.149C149.699 110.037 143.985 98.5977 136.937 98.5977C129.888 98.5977 124.174 110.037 124.174 124.149C124.174 138.26 129.888 149.7 136.937 149.7Z" stroke="black" stroke-width="0.424901"/>
<path d="M0 62.2227H150" stroke="black" stroke-width="0.424901"/>
<path d="M74.9248 0V62.2245" stroke="black" stroke-width="0.424901"/>
</g>
<defs>
<clipPath id="clip0_2109_180077">
<rect width="150" height="150" fill="white"/>
</clipPath>
</defs>
</svg>
