<svg width="150" height="150" viewBox="0 0 150 150" fill="none" xmlns="http://www.w3.org/2000/svg">
<g clip-path="url(#clip0_2109_180208)">
<path d="M50 135.578H0" stroke="black" stroke-width="2.7735"/>
<path d="M50 28.8477H0" stroke="black" stroke-width="2.7735"/>
<path d="M100 135.578H150" stroke="black" stroke-width="2.7735"/>
<path d="M100 28.8477H150" stroke="black" stroke-width="2.7735"/>
<path d="M74.667 28.8462L96.667 0" stroke="black" stroke-width="2.7735"/>
<path d="M74.667 135.579L96.667 109.617" stroke="black" stroke-width="2.7735"/>
<path d="M46.667 28.845L47.3337 37.4988L50.0003 40.3834L52.0003 37.4988L52.667 28.845L52.0003 17.3065L50.0003 14.4219L47.3337 17.3065L46.667 28.845Z" fill="white" stroke="black" stroke-width="2.7735"/>
<path d="M72 28.845L72.6667 37.4988L74.6667 40.3834L77.3333 37.4988L78 28.845L77.3333 17.3065L74.6667 14.4219L72.6667 17.3065L72 28.845Z" fill="white" stroke="black" stroke-width="2.7735"/>
<path d="M96.667 28.845L97.3337 37.4988L100 40.3834L102 37.4988L102.667 28.845L102 17.3065L100 14.4219L97.3337 17.3065L96.667 28.845Z" fill="white" stroke="black" stroke-width="2.7735"/>
<path d="M46.667 135.578L47.3337 147.116L50.0003 150.001L52.0003 147.116L52.667 135.578L52.0003 126.924L50.0003 124.039L47.3337 126.924L46.667 135.578Z" fill="white" stroke="black" stroke-width="2.7735"/>
<path d="M72 135.578L72.6667 147.116L74.6667 150.001L77.3333 147.116L78 135.578L77.3333 126.924L74.6667 124.039L72.6667 126.924L72 135.578Z" fill="white" stroke="black" stroke-width="2.7735"/>
<path d="M96.667 135.578L97.3337 147.116L100 150.001L102 147.116L102.667 135.578L102 126.924L100 124.039L97.3337 126.924L96.667 135.578Z" fill="white" stroke="black" stroke-width="2.7735"/>
<path d="M87.333 14.4219V124.037" stroke="black" stroke-width="2.7735"/>
</g>
<defs>
<clipPath id="clip0_2109_180208">
<rect width="150" height="150" fill="white"/>
</clipPath>
</defs>
</svg>
