<svg width="150" height="150" viewBox="0 0 150 150" fill="none" xmlns="http://www.w3.org/2000/svg">
<g clip-path="url(#clip0_2109_180141)">
<path d="M7.65766 25.3731C11.8869 25.3731 15.3153 19.6932 15.3153 12.6866C15.3153 5.67997 11.8869 0 7.65766 0C3.42845 0 0 5.67997 0 12.6866C0 19.6932 3.42845 25.3731 7.65766 25.3731Z" stroke="black" stroke-width="0.386527"/>
<path d="M15.4658 12.9336L150 46.5157" stroke="black" stroke-width="0.386527"/>
<path d="M74.9251 150.001V124.131H53.1533V98.2599H96.6969V72.3892H74.9251V28.3594" stroke="black" stroke-width="0.386527"/>
<path d="M142.042 25.3731C146.437 25.3731 150 19.6932 150 12.6866C150 5.67997 146.437 0 142.042 0C137.647 0 134.084 5.67997 134.084 12.6866C134.084 19.6932 137.647 25.3731 142.042 25.3731Z" stroke="black" stroke-width="0.386527"/>
</g>
<defs>
<clipPath id="clip0_2109_180141">
<rect width="150" height="150" fill="white"/>
</clipPath>
</defs>
</svg>
