<svg width="150" height="150" viewBox="0 0 150 150" fill="none" xmlns="http://www.w3.org/2000/svg">
<g clip-path="url(#clip0_2109_180503)">
<path d="M68.168 2.51562V148.53" stroke="black" stroke-width="0.354965"/>
<path d="M67.8679 75.9453H0" stroke="black" stroke-width="0.354965"/>
<path d="M84.5342 75.9453H150" stroke="black" stroke-width="0.354965"/>
<path d="M105.556 150L102.102 144.755L98.9493 139.091L96.0965 133.007L93.5439 126.294L91.1415 119.371L89.1896 112.238L87.6881 104.685L86.3367 96.9231L85.4358 89.1608L84.9854 81.1888V78.4615V75.9441V73.007L85.2857 64.8252L86.0364 56.6434L87.2376 48.4615L88.7391 40.6993L90.6911 33.3566L92.9433 26.014L95.646 19.3007L98.649 12.7972L101.952 6.92308L105.406 1.67832L106.757 0" stroke="black" stroke-width="0.354965"/>
</g>
<defs>
<clipPath id="clip0_2109_180503">
<rect width="150" height="150" fill="white"/>
</clipPath>
</defs>
</svg>
