<svg width="150" height="150" viewBox="0 0 150 150" fill="none" xmlns="http://www.w3.org/2000/svg">
<g clip-path="url(#clip0_2109_180230)">
<path d="M115.916 1.05469L119.369 8.08045L122.673 16.1601L125.676 25.2936L128.378 36.8861L130.33 49.5324L131.381 62.1788L131.832 75.1765L131.381 88.1741L130.03 100.469L128.078 112.764L125.375 124.006L121.772 134.193L117.568 143.678L115.916 146.137" stroke="black" stroke-width="0.45933"/>
<path d="M68.1685 1.05469L71.6219 8.08045L74.9252 16.1601L78.0784 25.2936L80.7811 36.8861L82.5829 49.5324L83.6339 62.1788L83.9342 70.961L83.6339 83.6074L82.733 96.605L80.7811 108.9L78.2285 120.141L74.9252 131.031L71.0213 140.516L67.8682 146.137" stroke="black" stroke-width="0.45933"/>
<path d="M21.3213 1.75781L24.9249 8.43229L28.2282 16.5119L31.2312 25.9967L34.0841 37.9405L36.036 50.5869L37.0871 63.2332L37.3874 76.2309L36.9369 88.8772L35.5856 101.524L33.6336 113.819L30.7807 125.06L27.1771 135.599L22.9729 144.732L21.3213 147.542" stroke="black" stroke-width="0.45933"/>
<path d="M6.30631 149.297C9.78918 149.297 12.6126 142.692 12.6126 134.543C12.6126 126.395 9.78918 119.789 6.30631 119.789C2.82343 119.789 0 126.395 0 134.543C0 142.692 2.82343 149.297 6.30631 149.297Z" stroke="black" stroke-width="0.45933"/>
<path d="M55.4049 149.297C58.8878 149.297 61.7112 142.692 61.7112 134.543C61.7112 126.395 58.8878 119.789 55.4049 119.789C51.9221 119.789 49.0986 126.395 49.0986 134.543C49.0986 142.692 51.9221 149.297 55.4049 149.297Z" stroke="black" stroke-width="0.45933"/>
<path d="M103.454 149.297C106.937 149.297 109.76 142.692 109.76 134.543C109.76 126.395 106.937 119.789 103.454 119.789C99.9709 119.789 97.1475 126.395 97.1475 134.543C97.1475 142.692 99.9709 149.297 103.454 149.297Z" stroke="black" stroke-width="0.45933"/>
<path d="M6.30631 29.5082C9.78918 29.5082 12.6126 22.9026 12.6126 14.7541C12.6126 6.60563 9.78918 0 6.30631 0C2.82343 0 0 6.60563 0 14.7541C0 22.9026 2.82343 29.5082 6.30631 29.5082Z" stroke="black" stroke-width="0.45933"/>
<path d="M55.4049 29.5082C58.8878 29.5082 61.7112 22.9026 61.7112 14.7541C61.7112 6.60563 58.8878 0 55.4049 0C51.9221 0 49.0986 6.60563 49.0986 14.7541C49.0986 22.9026 51.9221 29.5082 55.4049 29.5082Z" stroke="black" stroke-width="0.45933"/>
<path d="M103.454 29.5082C106.937 29.5082 109.76 22.9026 109.76 14.7541C109.76 6.60563 106.937 0 103.454 0C99.9709 0 97.1475 6.60563 97.1475 14.7541C97.1475 22.9026 99.9709 29.5082 103.454 29.5082Z" stroke="black" stroke-width="0.45933"/>
<path d="M36.9365 72.015H144.294L150 31.2656" stroke="black" stroke-width="0.45933"/>
</g>
<defs>
<clipPath id="clip0_2109_180230">
<rect width="150" height="150" fill="white"/>
</clipPath>
</defs>
</svg>
