<svg width="150" height="150" viewBox="0 0 150 150" fill="none" xmlns="http://www.w3.org/2000/svg">
<g clip-path="url(#clip0_2109_180256)">
<path d="M12.0116 63.2901C15.4116 63.2901 18.1678 60.4426 18.1678 56.9302C18.1678 53.4177 15.4116 50.5703 12.0116 50.5703C8.61167 50.5703 5.85547 53.4177 5.85547 56.9302C5.85547 60.4426 8.61167 63.2901 12.0116 63.2901Z" stroke="black" stroke-width="0.305229"/>
<path d="M59.6095 63.4441C62.9265 63.4441 65.6155 60.5272 65.6155 56.9291C65.6155 53.3309 62.9265 50.4141 59.6095 50.4141C56.2925 50.4141 53.6035 53.3309 53.6035 56.9291C53.6035 60.5272 56.2925 63.4441 59.6095 63.4441Z" stroke="black" stroke-width="0.305229"/>
<path d="M105.255 63.4441C108.572 63.4441 111.261 60.5272 111.261 56.9291C111.261 53.3309 108.572 50.4141 105.255 50.4141C101.938 50.4141 99.249 53.3309 99.249 56.9291C99.249 60.5272 101.938 63.4441 105.255 63.4441Z" stroke="black" stroke-width="0.305229"/>
<path d="M12.0116 12.7198C15.4116 12.7198 18.1678 9.87234 18.1678 6.35988C18.1678 2.84741 15.4116 0 12.0116 0C8.61167 0 5.85547 2.84741 5.85547 6.35988C5.85547 9.87234 8.61167 12.7198 12.0116 12.7198Z" stroke="black" stroke-width="0.305229"/>
<path d="M59.6095 12.5658C62.9265 12.5658 65.6155 9.7878 65.6155 6.36101C65.6155 2.93421 62.9265 0.15625 59.6095 0.15625C56.2925 0.15625 53.6035 2.93421 53.6035 6.36101C53.6035 9.7878 56.2925 12.5658 59.6095 12.5658Z" stroke="black" stroke-width="0.305229"/>
<path d="M105.255 12.5658C108.572 12.5658 111.261 9.7878 111.261 6.36101C111.261 2.93421 108.572 0.15625 105.255 0.15625C101.938 0.15625 99.249 2.93421 99.249 6.36101C99.249 9.7878 101.938 12.5658 105.255 12.5658Z" stroke="black" stroke-width="0.305229"/>
<path d="M41.5918 30.2483H144.294L150 12.875" stroke="black" stroke-width="0.305229"/>
<path d="M12.7628 149.226C16.0799 149.226 18.7688 146.448 18.7688 143.021C18.7688 139.594 16.0799 136.816 12.7628 136.816C9.44582 136.816 6.75684 139.594 6.75684 143.021C6.75684 146.448 9.44582 149.226 12.7628 149.226Z" stroke="black" stroke-width="0.305229"/>
<path d="M23.5736 88.5713L23.4234 91.0532L22.6727 93.38L21.6216 95.5517L20.1201 97.258L18.4685 98.8092L16.3664 99.895L14.2643 100.671L11.8619 100.981L9.45946 100.671L7.20721 99.895L5.25526 98.8092L3.45345 97.258L1.95195 95.5517L0.900901 93.38L0.15015 91.0532L0 88.5713L0.15015 86.0894L0.900901 83.6075L1.95195 81.591L3.45345 79.5744L5.25526 78.0232L7.20721 76.9374L9.45946 76.1618L11.8619 75.8516" stroke="black" stroke-width="0.305229"/>
<path d="M0 113.081L0.15015 110.444L0.900901 108.118L1.95195 105.946L3.45345 104.24L5.10511 102.688L7.05706 101.603L9.30931 100.827L11.5616 100.672L13.964 100.827L16.3664 101.603L18.3183 102.688L20.1201 104.084L21.6216 105.946L22.6727 107.962L23.4234 110.289L23.5736 112.771L23.4234 115.253L22.8228 117.58L21.7718 119.596L20.4204 121.458L18.6186 123.009L16.6667 124.095L14.4144 124.87L11.8619 125.181" stroke="black" stroke-width="0.305229"/>
<path d="M11.8623 76.7855V63.4453" stroke="black" stroke-width="0.305229"/>
<path d="M13.0635 137.281V124.871" stroke="black" stroke-width="0.305229"/>
<path d="M60.5104 149.534C63.9933 149.534 66.8167 146.617 66.8167 143.019C66.8167 139.421 63.9933 136.504 60.5104 136.504C57.0275 136.504 54.2041 139.421 54.2041 143.019C54.2041 146.617 57.0275 149.534 60.5104 149.534Z" stroke="black" stroke-width="0.305229"/>
<path d="M71.3209 87.6406V87.7957V87.9508V88.106L71.0206 90.743L70.2698 93.0698L69.2188 95.0863L67.7173 96.9477L65.9155 98.4989L63.8134 99.7399L61.7113 100.36L60.5101 100.515L59.3089 100.671L58.1077 100.515L55.8554 100.05L53.7533 99.1194L51.8014 97.8785L50.1497 96.1721L48.7984 94.1556L47.8975 91.9839L47.447 89.502L47.2969 88.2611L47.447 86.865L47.8975 84.3831L48.7984 82.2114L50.1497 80.1949L51.8014 78.6437L53.7533 77.2476L55.8554 76.3169L58.1077 75.8516H59.3089" stroke="black" stroke-width="0.305229"/>
<path d="M116.967 87.6439L116.667 90.1258L116.066 92.4526L115.015 94.6242L113.664 96.3305L111.862 97.8817L109.91 99.1227L107.808 99.7432L105.556 100.053L103.003 99.7432L100.751 99.1227L98.6491 97.8817L96.8472 96.3305L95.4959 94.6242L94.4448 92.4526L93.6941 90.1258L93.5439 87.6439L93.6941 85.3171L94.4448 82.9903L95.4959 80.8187L96.8472 78.9572L98.6491 77.406L100.751 76.3202L103.003 75.5446L105.556 75.2344" stroke="black" stroke-width="0.305229"/>
<path d="M47.2969 112.771L47.5972 110.289L48.3479 107.807L49.399 105.79L50.9005 103.774L52.7023 102.222L54.8044 101.137L57.0566 100.361L59.3089 100.051L61.7113 100.361L63.8134 100.981L65.9155 102.067L67.7173 103.619L69.2188 105.325L70.2698 107.496L71.0206 109.823L71.3209 112.46L71.0206 114.942L70.42 117.269L69.3689 119.286L67.8674 121.147L66.0656 122.698L64.1137 123.784L61.8614 124.56L59.3089 124.87" stroke="black" stroke-width="0.305229"/>
<path d="M93.5439 112.46V112.305V112.149V111.839L93.6941 109.357L94.4448 107.186L95.4959 105.014L96.8472 103.153L98.4989 101.601L100.451 100.516L102.703 99.7399L103.754 99.4297H104.955H106.157L108.559 100.05L110.811 100.981L112.613 102.377L114.265 104.083L115.616 106.1L116.367 108.271L116.817 110.598L116.967 111.839V113.08L116.817 114.476L116.217 116.803L115.166 118.975L113.814 120.836L112.012 122.387L110.06 123.473L107.808 124.249L106.607 124.404L105.556 124.559" stroke="black" stroke-width="0.305229"/>
<path d="M59.3096 76.7849V62.8242" stroke="black" stroke-width="0.305229"/>
<path d="M105.556 76.4747V62.8242" stroke="black" stroke-width="0.305229"/>
<path d="M60.5107 136.968V124.559" stroke="black" stroke-width="0.305229"/>
<path d="M106.156 136.66V124.25" stroke="black" stroke-width="0.305229"/>
<path d="M106.156 150.155C109.639 150.155 112.462 147.238 112.462 143.64C112.462 140.042 109.639 137.125 106.156 137.125C102.673 137.125 99.8496 140.042 99.8496 143.64C99.8496 147.238 102.673 150.155 106.156 150.155Z" stroke="black" stroke-width="0.305229"/>
</g>
<defs>
<clipPath id="clip0_2109_180256">
<rect width="150" height="150" fill="white"/>
</clipPath>
</defs>
</svg>
