<svg width="150" height="150" viewBox="0 0 150 150" fill="none" xmlns="http://www.w3.org/2000/svg">
<g clip-path="url(#clip0_2109_180010)">
<path d="M7.95796 23.348C12.353 23.348 15.9159 18.1214 15.9159 11.674C15.9159 5.22663 12.353 0 7.95796 0C3.5629 0 0 5.22663 0 11.674C0 18.1214 3.5629 23.348 7.95796 23.348Z" stroke="black" stroke-width="0.363718"/>
<path d="M140.541 24.2308C144.936 24.2308 148.499 19.0042 148.499 12.5568C148.499 6.10944 144.936 0.882812 140.541 0.882812C136.146 0.882812 132.583 6.10944 132.583 12.5568C132.583 19.0042 136.146 24.2308 140.541 24.2308Z" stroke="black" stroke-width="0.363718"/>
<path d="M15.916 12.7734L150 61.8924" stroke="black" stroke-width="0.363718"/>
<path d="M77.7773 69.3829V34.1406" stroke="black" stroke-width="0.363718"/>
<path d="M77.7778 150C93.119 150 105.556 131.953 105.556 109.691C105.556 87.4295 93.119 69.3828 77.7778 69.3828C62.4365 69.3828 50 87.4295 50 109.691C50 131.953 62.4365 150 77.7778 150Z" fill="#00FFFF" stroke="black" stroke-width="0.363718"/>
</g>
<defs>
<clipPath id="clip0_2109_180010">
<rect width="150" height="150" fill="white"/>
</clipPath>
</defs>
</svg>
