<svg width="150" height="150" viewBox="0 0 150 150" fill="none" xmlns="http://www.w3.org/2000/svg">
<g clip-path="url(#clip0_2109_180104)">
<path d="M103.003 91.0383C108.144 91.0383 112.312 84.4915 112.312 76.4156C112.312 68.3397 108.144 61.793 103.003 61.793C97.8613 61.793 93.6934 68.3397 93.6934 76.4156C93.6934 84.4915 97.8613 91.0383 103.003 91.0383Z" stroke="black" stroke-width="0.376366"/>
<path d="M46.8472 91.2717C52.0715 91.2717 56.3066 84.6193 56.3066 76.4132C56.3066 68.2071 52.0715 61.5547 46.8472 61.5547C41.6228 61.5547 37.3877 68.2071 37.3877 76.4132C37.3877 84.6193 41.6228 91.2717 46.8472 91.2717Z" stroke="black" stroke-width="0.376366"/>
<path d="M36.7868 76.1797H0" stroke="black" stroke-width="0.376366"/>
<path d="M112.763 76.1797H150" stroke="black" stroke-width="0.376366"/>
<path d="M74.9248 116.983V38.4452L98.3482 17.2188" stroke="black" stroke-width="0.376366"/>
<path d="M37.6875 58.2539H112.162" stroke="black" stroke-width="0.376366"/>
<path d="M103.003 149.765C108.144 149.765 112.312 143.218 112.312 135.142C112.312 127.066 108.144 120.52 103.003 120.52C97.8613 120.52 93.6934 127.066 93.6934 135.142C93.6934 143.218 97.8613 149.765 103.003 149.765Z" stroke="black" stroke-width="0.376366"/>
<path d="M46.8472 149.998C52.0715 149.998 56.3066 143.346 56.3066 135.14C56.3066 126.934 52.0715 120.281 46.8472 120.281C41.6228 120.281 37.3877 126.934 37.3877 135.14C37.3877 143.346 41.6228 149.998 46.8472 149.998Z" stroke="black" stroke-width="0.376366"/>
<path d="M36.7868 134.906H0" stroke="black" stroke-width="0.376366"/>
<path d="M112.763 134.906H150" stroke="black" stroke-width="0.376366"/>
<path d="M37.6875 116.98H112.162" stroke="black" stroke-width="0.376366"/>
<path d="M37.0869 46.9355V22.8789" stroke="black" stroke-width="0.376366"/>
<path d="M48.498 46.9355V22.8789" stroke="black" stroke-width="0.376366"/>
<path d="M48.4983 34.668H37.0869" stroke="black" stroke-width="0.376366"/>
<path d="M74.775 23.1132C77.9262 23.1132 80.4807 17.9391 80.4807 11.5566C80.4807 5.17407 77.9262 0 74.775 0C71.6239 0 69.0693 5.17407 69.0693 11.5566C69.0693 17.9391 71.6239 23.1132 74.775 23.1132Z" stroke="black" stroke-width="0.376366"/>
<path d="M101.352 46.9355L106.907 22.8789L112.763 46.9355" stroke="black" stroke-width="0.376366"/>
<path d="M111.112 40.8008H102.703" stroke="black" stroke-width="0.376366"/>
</g>
<defs>
<clipPath id="clip0_2109_180104">
<rect width="150" height="150" fill="white"/>
</clipPath>
</defs>
</svg>
