<svg width="150" height="150" viewBox="0 0 150 150" fill="none" xmlns="http://www.w3.org/2000/svg">
<g clip-path="url(#clip0_2109_180070)">
<path d="M74.9248 0V150" stroke="black" stroke-width="0.65971"/>
<path d="M0 150H149.85" stroke="black" stroke-width="0.65971"/>
<path d="M136.937 150.001C143.985 150.001 149.699 122.424 149.699 88.4067C149.699 54.3892 143.985 26.8125 136.937 26.8125C129.888 26.8125 124.174 54.3892 124.174 88.4067C124.174 122.424 129.888 150.001 136.937 150.001Z" stroke="black" stroke-width="0.65971"/>
<path d="M12.7628 150.001C19.8114 150.001 25.5255 122.424 25.5255 88.4067C25.5255 54.3892 19.8114 26.8125 12.7628 26.8125C5.71408 26.8125 0 54.3892 0 88.4067C0 122.424 5.71408 150.001 12.7628 150.001Z" stroke="black" stroke-width="0.65971"/>
</g>
<defs>
<clipPath id="clip0_2109_180070">
<rect width="150" height="150" fill="white"/>
</clipPath>
</defs>
</svg>
