<svg width="150" height="150" viewBox="0 0 150 150" fill="none" xmlns="http://www.w3.org/2000/svg">
<g clip-path="url(#clip0_2109_180062)">
<path d="M12.7628 150.001C19.8114 150.001 25.5255 122.424 25.5255 88.4067C25.5255 54.3892 19.8114 26.8125 12.7628 26.8125C5.71408 26.8125 0 54.3892 0 88.4067C0 122.424 5.71408 150.001 12.7628 150.001Z" stroke="black" stroke-width="0.65971"/>
<path d="M136.937 150.001C143.985 150.001 149.699 122.424 149.699 88.4067C149.699 54.3892 143.985 26.8125 136.937 26.8125C129.888 26.8125 124.174 54.3892 124.174 88.4067C124.174 122.424 129.888 150.001 136.937 150.001Z" stroke="black" stroke-width="0.65971"/>
<path d="M0 150H150" stroke="black" stroke-width="0.65971"/>
<path d="M74.9248 0V150" stroke="black" stroke-width="0.65971"/>
<path d="M54.5049 31.1594L55.8562 26.087L57.3577 21.0145L59.1595 16.6667L60.9613 12.3188L62.1625 10.1449L63.5139 7.97101L64.8652 5.7971L66.2166 4.34783L67.5679 2.89855L69.0694 1.44928L70.4208 0.724638L71.9223 0H73.4238H74.1746H74.9253H77.1776L78.5289 0.724638L80.0304 1.44928L81.3818 2.17391L82.8833 3.62319L84.2346 5.07246L85.586 7.24638L86.9373 8.69565L88.1385 11.5942L89.9403 15.2174L91.7421 19.5652L93.2436 23.913L94.7451 29.7101L95.1956 31.1594" stroke="black" stroke-width="0.65971"/>
</g>
<defs>
<clipPath id="clip0_2109_180062">
<rect width="150" height="150" fill="white"/>
</clipPath>
</defs>
</svg>
