<svg width="150" height="150" viewBox="0 0 150 150" fill="none" xmlns="http://www.w3.org/2000/svg">
<g clip-path="url(#clip0_2109_180166)">
<path d="M7.65766 25.3731C11.8869 25.3731 15.3153 19.6932 15.3153 12.6866C15.3153 5.67997 11.8869 0 7.65766 0C3.42845 0 0 5.67997 0 12.6866C0 19.6932 3.42845 25.3731 7.65766 25.3731Z" stroke="black" stroke-width="0.386527"/>
<path d="M15.4658 12.9336L149.85 46.5157" stroke="black" stroke-width="0.386527"/>
<path d="M141.892 25.6206C146.204 25.6206 149.7 19.8293 149.7 12.6853C149.7 5.54134 146.204 -0.25 141.892 -0.25C137.58 -0.25 134.084 5.54134 134.084 12.6853C134.084 19.8293 137.58 25.6206 141.892 25.6206Z" stroke="black" stroke-width="0.386527"/>
<path d="M53.1533 149.998L74.9251 80.0977" stroke="black" stroke-width="0.386527"/>
<path d="M74.4746 80.0977L96.6968 149.998" stroke="black" stroke-width="0.386527"/>
<path d="M74.9248 28.3594V80.1007" stroke="black" stroke-width="0.386527"/>
</g>
<defs>
<clipPath id="clip0_2109_180166">
<rect width="150" height="150" fill="white"/>
</clipPath>
</defs>
</svg>
