<svg width="150" height="150" viewBox="0 0 150 150" fill="none" xmlns="http://www.w3.org/2000/svg">
<g clip-path="url(#clip0_2109_180427)">
<path d="M18.9189 75H46.6967L65.7658 0L84.3844 150L103.153 75H131.381" stroke="black" stroke-width="0.490798"/>
<path d="M9.45946 99.8668C14.6838 99.8668 18.9189 88.5542 18.9189 74.5994C18.9189 60.6446 14.6838 49.332 9.45946 49.332C4.23514 49.332 0 60.6446 0 74.5994C0 88.5542 4.23514 99.8668 9.45946 99.8668Z" stroke="black" stroke-width="0.490798"/>
<path d="M140.541 99.8668C145.765 99.8668 150 88.5542 150 74.5994C150 60.6446 145.765 49.332 140.541 49.332C135.316 49.332 131.081 60.6446 131.081 74.5994C131.081 88.5542 135.316 99.8668 140.541 99.8668Z" stroke="black" stroke-width="0.490798"/>
</g>
<defs>
<clipPath id="clip0_2109_180427">
<rect width="150" height="150" fill="white"/>
</clipPath>
</defs>
</svg>
