<svg width="150" height="150" viewBox="0 0 150 150" fill="none" xmlns="http://www.w3.org/2000/svg">
<g clip-path="url(#clip0_2109_180510)">
<path d="M105.555 150L102.102 144.755L98.9488 139.091L95.9458 133.007L93.3933 126.294L91.141 119.371L89.1891 112.028L87.5374 104.685L86.1861 96.9231L85.2852 88.9511L84.8347 80.979V78.2518L84.6846 75.5245L84.8347 72.7972L85.135 64.6154L85.8858 56.6434L87.087 48.6713L88.5885 40.9091L90.5404 33.3566L92.7927 26.2238L95.4954 19.3007L98.3482 13.007L101.652 6.92308L105.255 1.67832L106.606 0" stroke="black" stroke-width="0.354965"/>
<path d="M104.654 52.4492H120.57" stroke="black" stroke-width="0.354965"/>
<path d="M37.5371 41.5391V63.567" stroke="black" stroke-width="0.354965"/>
<path d="M29.7295 52.4492H45.4953" stroke="black" stroke-width="0.354965"/>
<path d="M84.3848 75.5234H150" stroke="black" stroke-width="0.354965"/>
<path d="M67.8679 75.5234H0" stroke="black" stroke-width="0.354965"/>
<path d="M68.3184 2.51562V149.159" stroke="black" stroke-width="0.354965"/>
</g>
<defs>
<clipPath id="clip0_2109_180510">
<rect width="150" height="150" fill="white"/>
</clipPath>
</defs>
</svg>
