<svg width="150" height="150" viewBox="0 0 150 150" fill="none" xmlns="http://www.w3.org/2000/svg">
<g clip-path="url(#clip0_2109_180124)">
<path d="M24.9248 133.155L25.2251 119.519L25.9759 106.283L27.1771 93.8503L28.8287 81.4171L30.9308 69.7861L33.4834 58.5561L36.3362 48.5294L39.6395 38.9037L43.093 30.4813L46.9969 22.4599L51.0509 16.0428L55.4053 10.4278L60.0599 5.61497L64.8647 2.40642L69.8197 0.401069L72.3723 0H74.9248H77.4774L82.5825 1.20321L87.3873 4.01069L92.0419 8.02139L96.5464 12.8342L100.901 19.2513L104.805 26.4706L108.558 34.492L111.862 43.7166L115.015 53.3422L117.718 64.1711L119.97 75.4011L121.922 87.4331L123.423 99.8663L124.324 113.102L124.925 126.337V133.155" stroke="black" stroke-width="0.490798"/>
<path d="M69.6697 123.93L28.6787 13.2344" stroke="black" stroke-width="0.490798"/>
<path d="M6.15616 149.599C9.55611 149.599 12.3123 142.236 12.3123 133.155C12.3123 124.073 9.55611 116.711 6.15616 116.711C2.75621 116.711 0 124.073 0 133.155C0 142.236 2.75621 149.599 6.15616 149.599Z" stroke="black" stroke-width="0.490798"/>
<path d="M143.693 149.599C147.093 149.599 149.849 142.236 149.849 133.155C149.849 124.073 147.093 116.711 143.693 116.711C140.293 116.711 137.537 124.073 137.537 133.155C137.537 142.236 140.293 149.599 143.693 149.599Z" stroke="black" stroke-width="0.490798"/>
<path d="M74.9247 149.599C78.3247 149.599 81.0809 142.236 81.0809 133.155C81.0809 124.073 78.3247 116.711 74.9247 116.711C71.5248 116.711 68.7686 124.073 68.7686 133.155C68.7686 142.236 71.5248 149.599 74.9247 149.599Z" stroke="black" stroke-width="0.490798"/>
<path d="M12.4629 133.156H24.9254" stroke="black" stroke-width="0.490798"/>
<path d="M124.925 133.156H137.537" stroke="black" stroke-width="0.490798"/>
</g>
<defs>
<clipPath id="clip0_2109_180124">
<rect width="150" height="150" fill="white"/>
</clipPath>
</defs>
</svg>
