<svg width="150" height="150" viewBox="0 0 150 150" fill="none" xmlns="http://www.w3.org/2000/svg">
<g clip-path="url(#clip0_2109_180157)">
<path d="M142.193 26.9345C146.505 26.9345 150 21.1814 150 14.0845C150 6.98755 146.505 1.23438 142.193 1.23438C137.88 1.23438 134.385 6.98755 134.385 14.0845C134.385 21.1814 137.88 26.9345 142.193 26.9345Z" stroke="black" stroke-width="0.385251"/>
<path d="M15.4658 14.0857L150 0" stroke="black" stroke-width="0.385251"/>
<path d="M7.65766 26.6903C11.8869 26.6903 15.3153 21.0478 15.3153 14.0873C15.3153 7.12691 11.8869 1.48438 7.65766 1.48438C3.42845 1.48438 0 7.12691 0 14.0873C0 21.0478 3.42845 26.6903 7.65766 26.6903Z" stroke="black" stroke-width="0.385251"/>
<path d="M74.9251 92.4219L53.1533 150" stroke="black" stroke-width="0.385251"/>
<path d="M96.9969 150L74.9248 92.4219" stroke="black" stroke-width="0.385251"/>
<path d="M74.9248 7.66016V92.4213" stroke="black" stroke-width="0.385251"/>
</g>
<defs>
<clipPath id="clip0_2109_180157">
<rect width="150" height="150" fill="white"/>
</clipPath>
</defs>
</svg>
