<svg width="150" height="150" viewBox="0 0 150 150" fill="none" xmlns="http://www.w3.org/2000/svg">
<g clip-path="url(#clip0_2109_179988)">
<path d="M8 49.7925C12.4183 49.7925 16 38.6461 16 24.8963C16 11.1464 12.4183 0 8 0C3.58172 0 0 11.1464 0 24.8963C0 38.6461 3.58172 49.7925 8 49.7925Z" stroke="black" stroke-width="0.705638"/>
<path d="M141.8 51.6597C146.218 51.6597 149.8 40.5133 149.8 26.7635C149.8 13.0136 146.218 1.86719 141.8 1.86719C137.382 1.86719 133.8 13.0136 133.8 26.7635C133.8 40.5133 137.382 51.6597 141.8 51.6597Z" stroke="black" stroke-width="0.705638"/>
<path d="M120.8 106.43L146.6 126.347" stroke="black" stroke-width="0.705638"/>
<path d="M16.4004 26.1406L117.4 150L121.2 107.053L16.4004 26.1406Z" fill="#00FFFF" stroke="black" stroke-width="0.705638"/>
</g>
<defs>
<clipPath id="clip0_2109_179988">
<rect width="150" height="150" fill="white"/>
</clipPath>
</defs>
</svg>
