<svg width="150" height="150" viewBox="0 0 150 150" fill="none" xmlns="http://www.w3.org/2000/svg">
<g clip-path="url(#clip0_2109_180365)">
<path d="M74.9246 15.0156L134.834 74.9255L74.9246 134.835L15.0146 74.9255L74.9246 15.0156Z" stroke="black" stroke-width="0.3003"/>
<path d="M0 74.9258H15.015" stroke="black" stroke-width="0.3003"/>
<path d="M74.9248 15.015V0" stroke="black" stroke-width="0.3003"/>
<path d="M134.835 74.9258H149.85" stroke="black" stroke-width="0.3003"/>
<path d="M74.9248 134.836V149.851" stroke="black" stroke-width="0.3003"/>
<path d="M101.201 56.1556L116.066 41.1406" stroke="black" stroke-width="0.3003"/>
<path d="M41.1406 116.066L56.1556 101.051" stroke="black" stroke-width="0.3003"/>
<path d="M116.066 108.56L101.201 93.6953" stroke="black" stroke-width="0.3003"/>
<path d="M56.1559 48.65L41.291 33.7852" stroke="black" stroke-width="0.3003"/>
<path d="M7.50781 82.4336H15.0153" stroke="black" stroke-width="0.3003"/>
<path d="M138.738 78.5273V86.185" stroke="black" stroke-width="0.3003"/>
<path d="M134.835 82.4336H142.342" stroke="black" stroke-width="0.3003"/>
<path d="M33.7842 108.56L48.649 93.6953V108.56H33.7842Z" fill="black" stroke="black" stroke-width="0.3003"/>
<path d="M108.708 116.068L93.6934 101.203H108.708V116.068Z" fill="black" stroke="black" stroke-width="0.3003"/>
<path d="M93.6934 48.6495L108.708 33.4844V48.6495H93.6934Z" fill="black" stroke="black" stroke-width="0.3003"/>
<path d="M48.649 56.1556L33.7842 41.1406H48.649V56.1556Z" fill="black" stroke="black" stroke-width="0.3003"/>
</g>
<defs>
<clipPath id="clip0_2109_180365">
<rect width="150" height="150" fill="white"/>
</clipPath>
</defs>
</svg>
