<svg width="150" height="150" viewBox="0 0 150 150" fill="none" xmlns="http://www.w3.org/2000/svg">
<g clip-path="url(#clip0_2109_180134)">
<path d="M7.65766 26.6449C11.8869 26.6449 15.3153 21.0117 15.3153 14.0627C15.3153 7.11373 11.8869 1.48047 7.65766 1.48047C3.42845 1.48047 0 7.11373 0 14.0627C0 21.0117 3.42845 26.6449 7.65766 26.6449Z" stroke="black" stroke-width="0.384934"/>
<path d="M15.4658 14.0625L149.85 0" stroke="black" stroke-width="0.384934"/>
<path d="M74.9251 150V124.343H53.1533V98.6846H96.6969V73.2734H74.9251V7.64844" stroke="black" stroke-width="0.384934"/>
<path d="M141.892 26.8923C146.204 26.8923 149.7 21.1486 149.7 14.0633C149.7 6.97809 146.204 1.23438 141.892 1.23438C137.58 1.23438 134.084 6.97809 134.084 14.0633C134.084 21.1486 137.58 26.8923 141.892 26.8923Z" stroke="black" stroke-width="0.384934"/>
</g>
<defs>
<clipPath id="clip0_2109_180134">
<rect width="150" height="150" fill="white"/>
</clipPath>
</defs>
</svg>
