<svg width="150" height="150" viewBox="0 0 150 150" fill="none" xmlns="http://www.w3.org/2000/svg">
<g clip-path="url(#clip0_2109_180620)">
<path d="M73.8662 20.1211L89.7409 22.073L103.996 27.4785L109.827 34.986V44.7457L103.996 52.1031L89.7409 57.3583L73.8662 59.6106L57.6674 57.3583L45.6804 52.1031L37.5811 44.7457V34.986L45.6804 27.4785L57.6674 22.073L73.8662 20.1211Z" stroke="black" stroke-width="0.441111"/>
<path d="M73.8661 0L51.8359 2.1021L29.8056 7.50751L13.9309 15.9159L3.88769 27.4775L0 40.2402L3.88769 52.1021L13.9309 63.6637L29.8056 72.2222L51.8359 77.6276L73.8661 79.5796" stroke="black" stroke-width="0.441111"/>
<path d="M73.8662 0L97.8403 2.1021L117.603 7.50751L135.745 15.9159L145.788 27.4775L150 40.2402L145.788 52.1021L135.745 63.6637L117.603 72.2222L97.8403 77.6276L73.8662 79.5796" stroke="black" stroke-width="0.441111"/>
<path d="M73.8662 79.5781V139.188" stroke="black" stroke-width="0.441111"/>
<path d="M17.8184 139.188H129.913" stroke="black" stroke-width="0.441111"/>
<path d="M35.9609 150H111.771" stroke="black" stroke-width="0.441111"/>
</g>
<defs>
<clipPath id="clip0_2109_180620">
<rect width="150" height="150" fill="white"/>
</clipPath>
</defs>
</svg>
