<svg width="150" height="150" viewBox="0 0 150 150" fill="none" xmlns="http://www.w3.org/2000/svg">
<g clip-path="url(#clip0_2109_180084)">
<path d="M9.45946 150.302C14.6838 150.302 18.9189 141.823 18.9189 131.364C18.9189 120.905 14.6838 112.426 9.45946 112.426C4.23514 112.426 0 120.905 0 131.364C0 141.823 4.23514 150.302 9.45946 150.302Z" stroke="black" stroke-width="0.424901"/>
<path d="M74.7749 150.302C79.9992 150.302 84.2343 141.823 84.2343 131.364C84.2343 120.905 79.9992 112.426 74.7749 112.426C69.5506 112.426 65.3154 120.905 65.3154 131.364C65.3154 141.823 69.5506 150.302 74.7749 150.302Z" stroke="black" stroke-width="0.424901"/>
<path d="M140.541 150.302C145.765 150.302 150 141.823 150 131.364C150 120.905 145.765 112.426 140.541 112.426C135.316 112.426 131.081 120.905 131.081 131.364C131.081 141.823 135.316 150.302 140.541 150.302Z" stroke="black" stroke-width="0.424901"/>
<path d="M74.7749 36.6733C79.9992 36.6733 84.2343 28.4637 84.2343 18.3367C84.2343 8.20961 79.9992 0 74.7749 0C69.5506 0 65.3154 8.20961 65.3154 18.3367C65.3154 28.4637 69.5506 36.6733 74.7749 36.6733Z" stroke="black" stroke-width="0.424901"/>
<path d="M27.9282 75.1492C33.1525 75.1492 37.3877 66.6704 37.3877 56.2113C37.3877 45.7522 33.1525 37.2734 27.9282 37.2734C22.7039 37.2734 18.4688 45.7522 18.4688 56.2113C18.4688 66.6704 22.7039 75.1492 27.9282 75.1492Z" stroke="black" stroke-width="0.424901"/>
<path d="M121.922 75.1492C127.147 75.1492 131.382 66.6704 131.382 56.2113C131.382 45.7522 127.147 37.2734 121.922 37.2734C116.698 37.2734 112.463 45.7522 112.463 56.2113C112.463 66.6704 116.698 75.1492 121.922 75.1492Z" stroke="black" stroke-width="0.424901"/>
<path d="M65.7658 131.062H18.9189L23.2733 140.682" stroke="black" stroke-width="0.424901"/>
<path d="M18.9189 131.061L23.2733 121.441" stroke="black" stroke-width="0.424901"/>
</g>
<defs>
<clipPath id="clip0_2109_180084">
<rect width="150" height="150" fill="white"/>
</clipPath>
</defs>
</svg>
