<svg width="150" height="150" viewBox="0 0 150 150" fill="none" xmlns="http://www.w3.org/2000/svg">
<g clip-path="url(#clip0_2109_180607)">
<path d="M40.3906 150V0H109.31V150H40.3906Z" fill="#00FFFF" stroke="black" stroke-width="0.551687"/>
<path d="M109.459 127.196V101.352H118.168L122.222 104.899H146.096L147.747 105.406L148.948 106.926L149.699 109.966L150 114.02L149.699 118.075L148.948 121.115L147.747 123.142L146.096 123.649H122.222L118.318 127.196H109.459Z" fill="#00FFFF" stroke="black" stroke-width="0.551687"/>
<path d="M40.3904 87.6688H31.8318L27.6276 84.1215H3.9039L2.1021 83.6148L0.900901 81.5877L0.15015 78.5472L0 74.9999L0.15015 70.9458L0.900901 67.9053L2.1021 65.8783L3.9039 65.3715H27.6276L31.8318 61.8242H40.3904V87.6688Z" fill="#00FFFF" stroke="black" stroke-width="0.551687"/>
<path d="M109.459 47.6347V22.2969H118.168L122.222 25.8442H146.096L147.747 26.3509L148.948 27.8712L149.699 30.9117L150 34.9658L149.699 39.0198L148.948 41.5536L147.747 43.5807L146.096 44.0874H122.222L118.318 47.6347H109.459Z" fill="#00FFFF" stroke="black" stroke-width="0.551687"/>
<path d="M43.0928 141.386H106.907V8.10938H43.0928V141.386Z" fill="#00FFFF" stroke="black" stroke-width="0.551687"/>
</g>
<defs>
<clipPath id="clip0_2109_180607">
<rect width="150" height="150" fill="white"/>
</clipPath>
</defs>
</svg>
