<svg width="150" height="150" viewBox="0 0 150 150" fill="none" xmlns="http://www.w3.org/2000/svg">
<g clip-path="url(#clip0_2109_180433)">
<path d="M18.7691 12.418H93.694L140.541 74.9013L93.694 137.385H18.4688" stroke="black" stroke-width="0.346815"/>
<path d="M9.4597 24.6339C14.6011 24.6339 18.769 19.0748 18.769 12.2173C18.769 5.35986 14.6011 -0.199219 9.4597 -0.199219C4.31831 -0.199219 0.150391 5.35986 0.150391 12.2173C0.150391 19.0748 4.31831 24.6339 9.4597 24.6339Z" stroke="black" stroke-width="0.346815"/>
<path d="M9.15916 149.601C14.2176 149.601 18.3183 144.131 18.3183 137.384C18.3183 130.637 14.2176 125.168 9.15916 125.168C4.1007 125.168 0 130.637 0 137.384C0 144.131 4.1007 149.601 9.15916 149.601Z" stroke="black" stroke-width="0.346815"/>
<path d="M142.193 85.3121C146.505 85.3121 150 80.6497 150 74.8983C150 69.1468 146.505 64.4844 142.193 64.4844C137.88 64.4844 134.385 69.1468 134.385 74.8983C134.385 80.6497 137.88 85.3121 142.193 85.3121Z" fill="black" stroke="black" stroke-width="0.346815"/>
</g>
<defs>
<clipPath id="clip0_2109_180433">
<rect width="150" height="150" fill="white"/>
</clipPath>
</defs>
</svg>
