<svg width="150" height="150" viewBox="0 0 150 150" fill="none" xmlns="http://www.w3.org/2000/svg">
<g clip-path="url(#clip0_2109_180326)">
<path d="M7.95796 74.2991C12.353 74.2991 15.9159 57.6667 15.9159 37.1495C15.9159 16.6324 12.353 0 7.95796 0C3.5629 0 0 16.6324 0 37.1495C0 57.6667 3.5629 74.2991 7.95796 74.2991Z" stroke="black" stroke-width="0.648831"/>
<path d="M141.892 77.8025C146.37 77.8025 150 60.8563 150 39.952C150 19.0478 146.37 2.10156 141.892 2.10156C137.414 2.10156 133.784 19.0478 133.784 39.952C133.784 60.8563 137.414 77.8025 141.892 77.8025Z" stroke="black" stroke-width="0.648831"/>
<path d="M7.80762 75V150H142.042V75" stroke="black" stroke-width="0.648831"/>
</g>
<defs>
<clipPath id="clip0_2109_180326">
<rect width="150" height="150" fill="white"/>
</clipPath>
</defs>
</svg>
