<svg width="150" height="150" viewBox="0 0 150 150" fill="none" xmlns="http://www.w3.org/2000/svg">
<g clip-path="url(#clip0_2109_180095)">
<path d="M37.6875 82.9062H112.162" stroke="black" stroke-width="0.536496"/>
<path d="M74.9248 83.8658V42.6518L98.3482 0" stroke="black" stroke-width="0.536496"/>
<path d="M112.763 119.328H150" stroke="black" stroke-width="0.536496"/>
<path d="M36.7868 119.328H0" stroke="black" stroke-width="0.536496"/>
<path d="M46.8472 150.001C52.0715 150.001 56.3066 136.483 56.3066 119.809C56.3066 103.134 52.0715 89.6172 46.8472 89.6172C41.6228 89.6172 37.3877 103.134 37.3877 119.809C37.3877 136.483 41.6228 150.001 46.8472 150.001Z" stroke="black" stroke-width="0.536496"/>
<path d="M103.003 149.523C108.144 149.523 112.312 136.22 112.312 119.81C112.312 103.4 108.144 90.0977 103.003 90.0977C97.8613 90.0977 93.6934 103.4 93.6934 119.81C93.6934 136.22 97.8613 149.523 103.003 149.523Z" stroke="black" stroke-width="0.536496"/>
</g>
<defs>
<clipPath id="clip0_2109_180095">
<rect width="150" height="150" fill="white"/>
</clipPath>
</defs>
</svg>
