<svg width="150" height="150" viewBox="0 0 150 150" fill="none" xmlns="http://www.w3.org/2000/svg">
<g clip-path="url(#clip0_2109_204081)">
<path d="M80.9307 128.547V138.838H149.249V128.547H80.9307Z" fill="#4C4C4C"/>
<path d="M119.52 128.55V24.9453H24.4746V59.4802H30.3305V97.329H80.9311V128.55H119.52Z" fill="#B2B2B2" stroke="black" stroke-width="0.32366"/>
<path d="M39.3389 97.4998V59.4766H104.654V97.4998H39.3389Z" fill="#666666" stroke="black" stroke-width="0.32366"/>
<path d="M39.3398 21.4511V66.2767L63.0636 97.3232V138.835H80.9314V97.3232L104.655 66.2767V21.4511L77.9284 14.4744V4.18368H80.9314V0.695312H63.0636V4.18368H66.0666V14.4744L39.3398 21.4511Z" fill="#999999"/>
<path d="M45.1953 21.4511V66.2767L64.7148 97.3232V138.835H79.2794V97.3232L98.6488 66.2767V21.4511L76.877 14.4744V4.18368H79.2794V0.695312H64.7148V4.18368H67.1172V14.4744L45.1953 21.4511Z" fill="#B2B2B2"/>
<path d="M57.0566 21.4511V66.2767L68.0176 97.3232V138.835H75.9756V97.3232L86.9365 66.2767V21.4511L74.7744 14.4744V4.18368H75.9756V0.695312H68.0176V4.18368H69.2188V14.4744L57.0566 21.4511Z" fill="#CCCCCC"/>
<path d="M71.9222 138.835C73.4978 138.835 74.775 107.911 74.775 69.7651C74.775 31.6189 73.4978 0.695312 71.9222 0.695312C70.3466 0.695312 69.0693 31.6189 69.0693 69.7651C69.0693 107.911 70.3466 138.835 71.9222 138.835Z" fill="#E5E5E5"/>
<path d="M39.3398 21.4511V66.2767L63.0636 97.3232V138.835H80.9314V97.3232L104.655 66.2767V21.4511L77.9284 14.4744V4.18368H80.9314V0.695312H63.0636V4.18368H66.0666V14.4744L39.3398 21.4511Z" stroke="black" stroke-width="0.32366"/>
<path d="M30.3301 59.4766H39.3391" stroke="black" stroke-width="0.32366"/>
<path d="M39.3398 66.2812H104.655" stroke="black" stroke-width="0.32366"/>
<path d="M66.0664 4.1875H77.9283" stroke="black" stroke-width="0.32366"/>
<path d="M66.0664 14.4766H77.9283" stroke="black" stroke-width="0.32366"/>
<path d="M39.3398 21.4531H104.655" stroke="black" stroke-width="0.32366"/>
<path d="M3.60352 107.793V97.3281H140.24V107.793H3.60352Z" fill="#CCCCCC" stroke="black" stroke-width="0.32366"/>
<path d="M54.0537 97.3236V76.7422H57.0567L71.9216 83.5445L86.7864 76.7422H89.7894V97.3236H54.0537Z" fill="#999999" stroke="black" stroke-width="0.32366"/>
<path d="M119.52 149.124C132.622 149.124 143.243 136.786 143.243 121.566C143.243 106.346 132.622 94.0078 119.52 94.0078C106.417 94.0078 95.7959 106.346 95.7959 121.566C95.7959 136.786 106.417 149.124 119.52 149.124Z" fill="black"/>
<path d="M24.3243 149.124C37.4266 149.124 48.048 136.786 48.048 121.566C48.048 106.346 37.4266 94.0078 24.3243 94.0078C11.2221 94.0078 0.600586 106.346 0.600586 121.566C0.600586 136.786 11.2221 149.124 24.3243 149.124Z" fill="black"/>
<path d="M119.519 139.363C127.978 139.363 134.835 131.397 134.835 121.572C134.835 111.746 127.978 103.781 119.519 103.781C111.061 103.781 104.204 111.746 104.204 121.572C104.204 131.397 111.061 139.363 119.519 139.363Z" fill="white"/>
<path d="M24.3241 139.363C32.7825 139.363 39.6394 131.397 39.6394 121.572C39.6394 111.746 32.7825 103.781 24.3241 103.781C15.8657 103.781 9.00879 111.746 9.00879 121.572C9.00879 131.397 15.8657 139.363 24.3241 139.363Z" fill="white"/>
<path d="M24.3246 126.278C26.5636 126.278 28.3786 124.17 28.3786 121.569C28.3786 118.968 26.5636 116.859 24.3246 116.859C22.0856 116.859 20.2705 118.968 20.2705 121.569C20.2705 124.17 22.0856 126.278 24.3246 126.278Z" stroke="black" stroke-width="0.32366"/>
<path d="M119.52 126.455C121.842 126.455 123.724 124.268 123.724 121.571C123.724 118.874 121.842 116.688 119.52 116.688C117.198 116.688 115.315 118.874 115.315 121.571C115.315 124.268 117.198 126.455 119.52 126.455Z" stroke="black" stroke-width="0.32366"/>
<path d="M60.0597 5.05469H54.0537V13.7756H60.0597V5.05469Z" fill="#B2B2B2" stroke="black" stroke-width="0.32366"/>
<path d="M66.0666 12.0314V6.79887L60.0605 5.05469V13.7756L66.0666 12.0314Z" fill="#666666" stroke="black" stroke-width="0.32366"/>
</g>
<defs>
<clipPath id="clip0_2109_204081">
<rect width="150" height="150" fill="white"/>
</clipPath>
</defs>
</svg>
