<svg width="150" height="150" viewBox="0 0 150 150" fill="none" xmlns="http://www.w3.org/2000/svg">
<g clip-path="url(#clip0_2109_202811)">
<path d="M96.8791 71.625H3.06152V139.643H96.8791V71.625Z" fill="#666666" stroke="black" stroke-width="0.328864"/>
<path d="M100.12 74.3281H0V136.941H100.12V74.3281Z" fill="#E5E5E5" stroke="black" stroke-width="0.328864"/>
<path d="M100.12 139.641H0V150.001H100.12V139.641Z" fill="#CCCCCC" stroke="black" stroke-width="0.328864"/>
<path d="M100.12 69.0703H0V71.6229H100.12V69.0703Z" fill="#E5E5E5" stroke="black" stroke-width="0.328864"/>
<path d="M87.3352 69.0657H12.2451V6.45312H87.3352V69.0657Z" fill="#E5E5E5" stroke="black" stroke-width="0.328864"/>
<path d="M87.3352 61.4141H12.2451" stroke="#7F7F7F" stroke-width="0.328864"/>
<path d="M88.2355 136.938H74.9102V138.139H88.2355V136.938Z" fill="black" stroke="black" stroke-width="0.328864"/>
<path d="M87.3352 67.1172H12.2451V69.0691H87.3352V67.1172Z" fill="#CCCCCC" stroke="black" stroke-width="0.328864"/>
<path d="M146.038 117.414H100.12V127.774H146.038L146.759 127.624L147.479 127.324L148.199 126.874L148.92 126.273L149.46 125.522L149.64 124.621L150 123.57V122.519V121.468L149.64 120.567L149.46 119.666L148.92 118.916L148.199 118.315L147.479 117.865L146.759 117.564L146.038 117.414Z" fill="#999999" stroke="black" stroke-width="0.328864"/>
<path d="M146.038 118.172H100.12V127.031H146.038L146.759 126.881L147.479 126.58L148.199 126.13L148.92 125.529L149.46 124.929L149.64 124.178L150 123.277V122.526V121.625L149.64 120.875L149.46 120.124L148.92 119.523L148.199 118.923L147.479 118.622L146.759 118.322L146.038 118.172Z" fill="#B2B2B2"/>
<path d="M146.038 119.82H100.12V125.076H146.038H146.759L147.479 124.925L148.199 124.625L148.92 124.325L149.46 124.025L149.64 123.574L150 122.973V122.523V121.922L149.64 121.322L149.46 120.871L148.92 120.571L148.199 120.121L147.479 119.97L146.759 119.82H146.038Z" fill="#CCCCCC"/>
<path d="M124.97 123.275C138.694 123.275 149.82 122.939 149.82 122.524C149.82 122.11 138.694 121.773 124.97 121.773C111.246 121.773 100.12 122.11 100.12 122.524C100.12 122.939 111.246 123.275 124.97 123.275Z" fill="#E5E5E5"/>
<path d="M62.6652 6.45646V0H37.4551V6.45646H39.796V1.8018H59.784V6.45646H62.6652Z" fill="#666666" stroke="black" stroke-width="0.328864"/>
</g>
<defs>
<clipPath id="clip0_2109_202811">
<rect width="150" height="150" fill="white"/>
</clipPath>
</defs>
</svg>
