<svg width="150" height="150" viewBox="0 0 150 150" fill="none" xmlns="http://www.w3.org/2000/svg">
<g clip-path="url(#clip0_2109_203239)">
<path d="M49.0996 74.0234H51.6522V79.1285H49.0996V74.0234Z" fill="#194C4C"/>
<path d="M17.417 94.1406H33.1828V103.3H17.417V94.1406Z" fill="#194C4C"/>
<path d="M6.60645 91.5938H44.144V94.1463H6.60645V91.5938Z" fill="#4C7F7F"/>
<path d="M66.5166 83.3323H116.667L115.766 43.2422H67.4175L66.5166 83.3323Z" fill="#B2E5E5"/>
<path d="M0 91.5925H46.5465V61.5625H0V91.5925Z" fill="#669999"/>
<path d="M0 88.2906H46.6967V64.8672H0V88.2906Z" fill="#78ABAB"/>
<path d="M0 84.8385H46.6967V68.1719H0V84.8385Z" fill="#8CBFBF"/>
<path d="M0 81.5349H46.6967V71.625H0V81.5349Z" fill="#9ED1D1"/>
<path d="M0 78.2252H46.5465V74.9219H0V78.2252Z" fill="#B2E5E5"/>
<path d="M0 91.5925H46.5465V61.5625H0V91.5925Z" stroke="black" stroke-width="0.3003"/>
<path d="M11.5615 61.5625H39.9399V74.9259H11.5615V61.5625Z" fill="#336666" stroke="black" stroke-width="0.3003"/>
<path d="M9.91016 60.8125H41.5918V62.4642H9.91016V60.8125Z" fill="#99CCCC" stroke="black" stroke-width="0.3003"/>
<path d="M9.91016 64.1172H41.5918V65.7688H9.91016V64.1172Z" fill="#99CCCC" stroke="black" stroke-width="0.3003"/>
<path d="M9.91016 67.4141H41.5918V69.0657H9.91016V67.4141Z" fill="#99CCCC" stroke="black" stroke-width="0.3003"/>
<path d="M9.91016 70.7188H41.5918V72.3704H9.91016V70.7188Z" fill="#99CCCC" stroke="black" stroke-width="0.3003"/>
<path d="M9.91016 74.0234H41.5918V75.6751H9.91016V74.0234Z" fill="#99CCCC" stroke="black" stroke-width="0.3003"/>
<path d="M9.15918 83.3359H46.5466" stroke="black" stroke-width="0.3003"/>
<path d="M9.15918 61.5625V91.5925" stroke="black" stroke-width="0.3003"/>
<path d="M33.1836 93.2422H44.1446V103.302H33.1836V93.2422Z" fill="#B2E5E5" stroke="black" stroke-width="0.3003"/>
<path d="M6.60645 93.2422H17.4173V103.302H6.60645V93.2422Z" fill="#B2E5E5" stroke="black" stroke-width="0.3003"/>
<path d="M33.1836 93.2422H44.1446V95.7947H33.1836V93.2422Z" fill="#7FB2B2"/>
<path d="M6.60645 93.2422H17.4173V95.7947H6.60645V93.2422Z" fill="#7FB2B2"/>
<path d="M34.084 79.879H44.144V77.4766H34.084V79.879Z" fill="white"/>
<path d="M4.05371 78.2266H15.7654V89.9383H4.05371V78.2266Z" fill="#7FB2B2" stroke="black" stroke-width="0.3003"/>
<path d="M4.05371 89.9383V78.2266H15.7654" stroke="white" stroke-width="0.3003"/>
<path d="M116.667 126.574H150V113.211H116.667V126.574Z" fill="#99CCCC" stroke="black" stroke-width="0.3003"/>
<path d="M50 83.3359H66.5165V129.882H50V83.3359Z" fill="#99CCCC" stroke="black" stroke-width="0.3003"/>
<path d="M67.418 64.1131H68.9195H70.5711H72.0726H76.5771H81.0816H105.256H109.76H115.766V60.2092L115.916 58.8578V57.5065V48.3473L115.766 43.2422H106.757H105.256H103.754H78.0786H73.5741H68.9195H67.418V44.4434L67.5681 49.6986V58.8578L67.418 64.1131Z" fill="#BAEDED"/>
<path d="M67.418 56.6056H68.9195H70.5711H72.0726H76.5771H81.0816H105.256H109.76H115.766V54.053L115.916 53.3022V52.4013V46.5455L115.766 43.2422H106.757H105.256H103.754H78.0786H73.5741H68.9195H67.418V43.9929L67.5681 49.098L67.418 54.053V56.6056Z" fill="#C2F5F5"/>
<path d="M67.418 54.053H115.766V43.2422H67.418V54.053Z" fill="#CCFFFF"/>
<path d="M66.5166 83.3323H116.667L115.766 43.2422H67.4175L66.5166 83.3323Z" stroke="black" stroke-width="0.3003"/>
<path d="M46.5469 66.5156H49.0994V86.6357H46.5469V66.5156Z" fill="#7FB2B2" stroke="black" stroke-width="0.3003"/>
<path d="M69.9697 43.2432V3.3033H114.865V0H118.318V3.3033H126.576V0H129.88V3.3033H133.183V23.2733H113.213V43.2432H69.9697Z" fill="#B2E5E5" stroke="black" stroke-width="0.3003"/>
<path d="M6.60645 103.305H44.144V129.881H6.60645V103.305Z" fill="#B2E5E5" stroke="black" stroke-width="0.3003"/>
<path d="M0 129.883H119.97V150.003H0V129.883Z" fill="#B2E5E5" stroke="black" stroke-width="0.3003"/>
<path d="M66.5166 129.882H116.667V83.3359H66.5166V129.882Z" fill="#B2E5E5" stroke="black" stroke-width="0.3003"/>
<path d="M50 83.33L50.7508 67.4141H65.7658L66.5165 83.33H50Z" fill="#B2E5E5" stroke="black" stroke-width="0.3003"/>
<path d="M69.0693 40.8438H77.4777V43.2462H69.0693V40.8438Z" fill="#CCFFFF" stroke="black" stroke-width="0.3003"/>
<path d="M105.706 40.8438H114.114V43.2462H105.706V40.8438Z" fill="#CCFFFF" stroke="black" stroke-width="0.3003"/>
<path d="M87.3877 40.8438H95.7961V43.2462H87.3877V40.8438Z" fill="#CCFFFF" stroke="black" stroke-width="0.3003"/>
<path d="M85.7354 76.5793H100.75L99.8495 56.6094H86.6363L85.7354 76.5793Z" fill="#FFFFB2"/>
<path d="M56.4561 74.9237H59.9095V69.9688H56.4561V74.9237Z" fill="#FFFFB2"/>
<path d="M86.6367 71.6229H99.8499V69.0703H86.6367V71.6229Z" fill="#E5B200"/>
<path d="M42.4922 136.633H77.4772V143.239H42.4922V136.633Z" fill="#7F7F7F" stroke="white" stroke-width="0.3003"/>
<path d="M69.9697 86.6328H113.213V129.876H69.9697V86.6328Z" fill="#7FB2B2" stroke="black" stroke-width="0.3003"/>
</g>
<defs>
<clipPath id="clip0_2109_203239">
<rect width="150" height="150" fill="white"/>
</clipPath>
</defs>
</svg>
