<svg width="150" height="150" viewBox="0 0 150 150" fill="none" xmlns="http://www.w3.org/2000/svg">
<g clip-path="url(#clip0_2109_204825)">
<path d="M0 0V87.5375L59.5941 136.787V138.889L63.2841 143.694H86.5314L90.2214 138.889V136.787L150 87.5375V0H0Z" fill="#00FFFF"/>
<path d="M36.5312 137.539L59.4095 149.851" stroke="black" stroke-width="0.332884"/>
<path d="M59.4095 137.539L36.5312 149.851" stroke="black" stroke-width="0.332884"/>
<path d="M59.4092 148.348L63.2837 143.694L59.4092 139.039" stroke="black" stroke-width="0.332884"/>
<path d="M113.469 137.539L90.4062 149.851" stroke="black" stroke-width="0.332884"/>
<path d="M90.4062 137.539L113.469 149.851" stroke="black" stroke-width="0.332884"/>
<path d="M90.2212 148.348L86.3467 143.694L90.2212 139.039" stroke="black" stroke-width="0.332884"/>
<path d="M59.594 137.391V149.853H36.5312V137.391H59.594Z" stroke="black" stroke-width="0.332884"/>
<path d="M113.284 137.391V149.853H90.2217V137.391H113.284Z" stroke="black" stroke-width="0.332884"/>
<path d="M27.1221 48.1992L18.635 45.4965H7.9339L3.50586 35.2863L15.683 28.6797L30.8121 31.0821L34.1332 43.3944L27.1221 48.1992Z" stroke="black" stroke-width="0.332884"/>
<path d="M20.8482 56.9108L30.0733 56.3102L40.0364 52.4062L49.2615 60.2141L41.8814 70.4243L27.1213 73.4273L17.1582 63.8177L20.8482 56.9108Z" stroke="black" stroke-width="0.332884"/>
<path d="M91.6973 59.3086L83.2102 56.3056H72.5091L68.0811 46.0954L80.2582 39.7891L95.3873 42.1915L99.0774 54.2035L91.6973 59.3086Z" stroke="black" stroke-width="0.332884"/>
<path d="M116.42 24.4766L124.907 26.879L135.608 26.5787L140.405 36.4886L128.966 43.3955L113.837 41.5937L109.409 29.5817L116.42 24.4766Z" stroke="black" stroke-width="0.332884"/>
<path d="M132.656 78.83L123.8 80.3315L114.575 85.4366L104.243 78.83L109.778 68.0192L123.8 62.9141L135.239 71.3225L132.656 78.83Z" stroke="black" stroke-width="0.332884"/>
<path d="M48.5244 103.754L40.0374 101.051H29.3362L24.9082 90.5407L37.0853 84.2344L52.2145 86.6368L55.5355 98.9491L48.5244 103.754Z" stroke="black" stroke-width="0.332884"/>
<path d="M89.8525 80.0289L88.7455 87.5364L92.0666 95.9448L81.3655 102.251L70.2954 94.7436L68.8193 82.4313L81.7345 76.125L89.8525 80.0289Z" stroke="black" stroke-width="0.332884"/>
<path d="M64.7598 119.368L72.5088 115.164L78.0439 107.656L90.959 110.359L91.328 122.071L80.6269 131.08L66.2358 126.875L64.7598 119.368Z" stroke="black" stroke-width="0.332884"/>
<path d="M47.4172 40.3922L44.8342 39.4913H41.5131L40.0371 36.188L44.0961 34.0859L48.8932 34.9868L50.0002 38.8907L47.4172 40.3922Z" stroke="black" stroke-width="0.332884"/>
<path d="M59.9631 50.0016L57.3801 48.8004H54.059L52.583 45.7974L56.642 43.6953L61.4391 44.2959L62.5461 48.1998L59.9631 50.0016Z" stroke="black" stroke-width="0.332884"/>
<path d="M60.3322 34.986L57.7492 34.0851H54.0592L52.9521 30.7818L56.6422 28.6797L61.4392 29.5806L62.5462 33.4845L60.3322 34.986Z" stroke="black" stroke-width="0.332884"/>
<path d="M101.291 39.7907L98.7082 38.8898H95.3871L93.9111 35.5865L97.9702 33.4844L102.767 34.3853L103.874 38.2892L101.291 39.7907Z" stroke="black" stroke-width="0.332884"/>
<path d="M141.882 48.7965L140.037 50.5983L138.93 53.301H134.502L133.395 49.6974L135.609 46.0938L140.406 46.3941L141.882 48.7965Z" stroke="black" stroke-width="0.332884"/>
<path d="M13.4682 50.8999L13.0992 53.3023L14.2062 56.005L10.5162 57.8068L7.19518 55.4044L6.82617 51.5005L11.2542 49.3984L13.4682 50.8999Z" stroke="black" stroke-width="0.332884"/>
<path d="M77.3067 64.7109L79.8897 65.9121H83.2107L84.3177 69.2154L80.6277 71.0172L75.8306 70.1163L74.7236 66.2124L77.3067 64.7109Z" stroke="black" stroke-width="0.332884"/>
<path d="M94.6494 63.5156L97.2325 64.7168H100.553L102.03 68.0201L97.9705 70.1222L93.1734 68.921L92.0664 65.0171L94.6494 63.5156Z" stroke="black" stroke-width="0.332884"/>
<path d="M19.0041 78.8297L16.4211 77.9288H12.731L11.624 74.6255L15.3141 72.5234L20.1111 73.4243L21.2181 77.3282L19.0041 78.8297Z" stroke="black" stroke-width="0.332884"/>
<path d="M50.3692 64.7109L52.9522 65.9121H56.2732L57.7492 69.2154L53.6902 71.3175L48.8931 70.4166L47.7861 66.2124L50.3692 64.7109Z" stroke="black" stroke-width="0.332884"/>
<path d="M112.73 56.3092L114.575 54.5074L115.682 51.8047H119.742L121.218 55.4083L118.635 59.0119L113.837 58.7116L112.73 56.3092Z" stroke="black" stroke-width="0.332884"/>
<path d="M107.196 92.9391L104.612 92.0382H100.922L99.8154 88.7349L103.505 86.6328L108.303 87.5337L109.41 91.4376L107.196 92.9391Z" stroke="black" stroke-width="0.332884"/>
<path d="M136.347 83.6309L135.978 86.0333L137.085 88.736L133.764 90.8381L130.074 88.4357L129.705 84.5318L133.764 82.4297L136.347 83.6309Z" stroke="black" stroke-width="0.332884"/>
<path d="M69.9263 102.856L66.9742 103.757L64.7602 105.859L60.7012 104.358L61.8082 100.754L65.8672 98.3516L69.9263 100.454V102.856Z" stroke="black" stroke-width="0.332884"/>
<path d="M14.5758 83.9322L14.9448 86.3346L16.7898 88.737L13.8378 91.4397L9.77875 89.6379L8.30273 86.0343L11.6238 83.0312L14.5758 83.9322Z" stroke="black" stroke-width="0.332884"/>
<path d="M41.5133 113.961L40.4063 111.558L37.8232 109.756L39.6683 106.453L44.0963 107.354L47.0483 110.357L44.4653 113.961H41.5133Z" stroke="black" stroke-width="0.332884"/>
<path d="M103.136 102.854V105.256L104.612 107.959L101.66 110.061L97.6012 108.259L96.4941 104.356L100.553 101.953L103.136 102.854Z" stroke="black" stroke-width="0.332884"/>
<path d="M72.8787 137.388L70.2957 138.589L68.4506 140.992L64.3916 140.091V136.487L67.7126 133.484L72.5097 134.986L72.8787 137.388Z" stroke="black" stroke-width="0.332884"/>
<path d="M0 0V87.3874L59.4096 136.637V139.039L63.2841 143.694" stroke="black" stroke-width="0.332884"/>
<path d="M86.3467 143.694L90.2212 139.039V136.637L149.815 87.3874V0" stroke="black" stroke-width="0.332884"/>
</g>
<defs>
<clipPath id="clip0_2109_204825">
<rect width="150" height="150" fill="white"/>
</clipPath>
</defs>
</svg>
