<svg width="150" height="150" viewBox="0 0 150 150" fill="none" xmlns="http://www.w3.org/2000/svg">
<g clip-path="url(#clip0_2109_200371)">
<path d="M133.183 80.4245V3.36719H122.673V80.4245H133.183Z" fill="#7F7F7F"/>
<path d="M132.583 80.4245V3.36719H123.273V80.4245H132.583Z" fill="#999999"/>
<path d="M131.231 80.4245V3.36719H124.475V80.4245H131.231Z" fill="#B2B2B2"/>
<path d="M130.481 80.4245V3.36719H125.676V80.4245H130.481Z" fill="#CCCCCC"/>
<path d="M129.579 80.4245V3.36719H126.576V80.4245H129.579Z" fill="#E5E5E5"/>
<path d="M128.679 80.4245V3.36719H127.478V80.4245H128.679Z" fill="white"/>
<path d="M122.673 80.4245V3.36719" stroke="black" stroke-width="0.473987"/>
<path d="M133.184 3.36719V80.4245" stroke="black" stroke-width="0.473987"/>
<path d="M148.199 55.7344H117.268V81.9189H148.199V55.7344Z" fill="#7F7F7F"/>
<path d="M148.199 57.2344H117.268V80.4264H148.199V57.2344Z" fill="#999999"/>
<path d="M148.199 60.2266H117.268V77.4335H148.199V60.2266Z" fill="#B2B2B2"/>
<path d="M148.199 63.2188H117.268V75.1888H148.199V63.2188Z" fill="#CCCCCC"/>
<path d="M148.199 64.7109H117.268V72.9404H148.199V64.7109Z" fill="#E5E5E5"/>
<path d="M148.199 67.7031H117.268V70.6956H148.199V67.7031Z" fill="white"/>
<path d="M148.199 81.9219H117.268" stroke="black" stroke-width="0.473987"/>
<path d="M117.268 55.7344H148.199" stroke="black" stroke-width="0.473987"/>
<path d="M109.459 78.9297H73.123V92.396H109.459V78.9297Z" fill="#B2B2B2"/>
<path d="M109.459 59.4766H73.123V78.9279H109.459V59.4766Z" fill="#CCCCCC"/>
<path d="M109.459 59.4726H73.123V42.2656H109.459V59.4726Z" fill="#E5E5E5"/>
<path d="M109.459 42.2656H73.123V92.3903H109.459V42.2656Z" stroke="black" stroke-width="0.473987"/>
<path d="M25.375 20.5713V19.075L24.324 18.3269L24.0237 17.5788L23.8735 16.4566L24.6243 13.09L24.7744 12.7159L25.375 12.3419L25.8255 12.7159L26.2759 13.4641L26.5762 17.5788L26.4261 18.3269L25.9756 19.075H25.375V20.5713L25.8255 20.1972L26.8765 18.3269L27.0267 17.9529L27.1768 17.2047V16.4566V15.3344L26.4261 12.3419L25.8255 11.9678L25.375 11.5938L25.0747 11.9678L23.8735 13.4641L23.7234 15.3344L23.5732 16.4566L23.7234 17.2047V17.9529L25.0747 20.1972L25.375 20.5713Z" fill="#666666"/>
<path d="M25.375 20.5713V19.075M25.375 20.5713L25.8255 20.1972L26.8765 18.3269L27.0267 17.9529L27.1768 17.2047V16.4566V15.3344L26.4261 12.3419L25.8255 11.9678L25.375 11.5938L25.0747 11.9678L23.8735 13.4641L23.7234 15.3344L23.5732 16.4566L23.7234 17.2047V17.9529L25.0747 20.1972L25.375 20.5713ZM25.375 19.075L24.324 18.3269L24.0237 17.5788L23.8735 16.4566L24.6243 13.09L24.7744 12.7159L25.375 12.3419L25.8255 12.7159L26.2759 13.4641L26.5762 17.5788L26.4261 18.3269L25.9756 19.075H25.375Z" stroke="black" stroke-width="0.473987"/>
<path d="M41.8918 23.9375H3.60352V114.087H41.8918V23.9375Z" fill="#CCCCCC" stroke="black" stroke-width="0.473987"/>
<path d="M3.6036 23.9375L0 37.0298V100.621L3.6036 114.087V23.9375Z" fill="#B2B2B2" stroke="black" stroke-width="0.473987"/>
<path d="M14.5645 23.9375H36.1861V114.087H14.5645V23.9375Z" fill="#B2B2B2" stroke="black" stroke-width="0.473987"/>
<path d="M41.8916 114.087L45.4952 100.621V37.0298L41.8916 23.9375V114.087Z" fill="#B2B2B2" stroke="black" stroke-width="0.473987"/>
<path d="M30.7806 93.8906H18.168V114.09H30.7806V93.8906Z" fill="#999999" stroke="black" stroke-width="0.473987"/>
<path d="M45.4951 59.4766H49.0987V78.1798H45.4951V59.4766Z" fill="#999999" stroke="black" stroke-width="0.473987"/>
<path d="M40.0905 109.602H32.583V119.327H40.0905V109.602Z" fill="#999999" stroke="black" stroke-width="0.473987"/>
<path d="M19.9701 109.602H12.9131V119.327H19.9701V109.602Z" fill="#999999" stroke="black" stroke-width="0.473987"/>
<path d="M34.3842 28.0547H16.3662V32.5435H34.3842V28.0547Z" fill="#CCCCCC" stroke="black" stroke-width="0.473987"/>
<path d="M34.3842 37.0312H16.3662V41.52H34.3842V37.0312Z" fill="#CCCCCC" stroke="black" stroke-width="0.473987"/>
<path d="M34.3842 19.0781H16.3662V23.941H34.3842V19.0781Z" fill="#CCCCCC" stroke="black" stroke-width="0.473987"/>
<path d="M34.3842 46.3828H16.3662V50.4975H34.3842V46.3828Z" fill="#CCCCCC" stroke="black" stroke-width="0.473987"/>
<path d="M34.3842 64.7109H16.3662V69.1997H34.3842V64.7109Z" fill="#CCCCCC" stroke="black" stroke-width="0.473987"/>
<path d="M34.3842 73.6875H16.3662V78.1763H34.3842V73.6875Z" fill="#CCCCCC" stroke="black" stroke-width="0.473987"/>
<path d="M34.3842 55.7344H16.3662V60.2232H34.3842V55.7344Z" fill="#CCCCCC" stroke="black" stroke-width="0.473987"/>
<path d="M34.3842 82.6719H16.3662V87.1607H34.3842V82.6719Z" fill="#CCCCCC" stroke="black" stroke-width="0.473987"/>
<path d="M34.3842 91.6484H16.3662V96.1372H34.3842V91.6484Z" fill="#CCCCCC" stroke="black" stroke-width="0.473987"/>
<path d="M135.886 119.328H12.3125V144.016H135.886V119.328Z" fill="#E5E5E5" stroke="black" stroke-width="0.473987"/>
<path d="M135.886 150.001H12.3125V144.016H135.886V150.001Z" fill="#CCCCCC" stroke="black" stroke-width="0.473987"/>
<path d="M71.021 42.2656H49.3994V119.323H71.021V42.2656Z" fill="#E5E5E5" stroke="black" stroke-width="0.473987"/>
<path d="M117.267 107.361H112.763V26.5625H117.267V107.361Z" fill="#CCCCCC" stroke="black" stroke-width="0.473987"/>
<path d="M109.459 107.361H112.762V26.5625H109.459V107.361Z" fill="#E5E5E5" stroke="black" stroke-width="0.473987"/>
<path d="M109.459 70.7H73.123V63.2188H109.459V70.7Z" fill="#999999" stroke="black" stroke-width="0.473987"/>
<path d="M109.46 42.2732V26.5625L71.0215 42.2732H109.46Z" fill="#E5E5E5" stroke="black" stroke-width="0.473987"/>
<path d="M118.168 119.326V113.341H109.46V84.1641H107.357V119.326H118.168Z" fill="#999999" stroke="black" stroke-width="0.473987"/>
<path d="M117.268 113.342H114.265V109.602H117.268V113.342Z" fill="#CCCCCC" stroke="black" stroke-width="0.473987"/>
<path d="M83.9339 119.326V113.341H75.5254V84.1641H73.123V119.326H83.9339Z" fill="#999999" stroke="black" stroke-width="0.473987"/>
<path d="M83.3336 113.342H80.0303V109.602H83.3336V113.342Z" fill="#CCCCCC" stroke="black" stroke-width="0.473987"/>
<path d="M73.1236 92.3903H71.0215V42.2656H73.1236V92.3903Z" fill="#E5E5E5" stroke="black" stroke-width="0.473987"/>
<path d="M106.456 63.2205V38.9062L103.453 40.0284V63.2205H106.456Z" fill="#999999" stroke="black" stroke-width="0.473987"/>
<path d="M67.7177 117.086H50V101.375L67.7177 117.086Z" fill="#CCCCCC"/>
<path d="M13.0635 141.767V126.805L60.2106 141.767H13.0635Z" fill="#CCCCCC"/>
<path d="M133.484 28.8047V55.7374H138.889V81.9219H117.268V55.7374H122.673V28.8047H133.484Z" fill="#7F7F7F"/>
<path d="M132.583 28.8047V57.2336H138.889V80.4256H117.268V57.2336H123.274V28.8047H132.583Z" fill="#999999"/>
<path d="M131.682 28.8047V60.2261H138.889V77.4331H117.268V60.2261H124.475V28.8047H131.682Z" fill="#B2B2B2"/>
<path d="M130.481 28.8047V62.4705H138.889V75.1887H117.268V62.4705H125.676V28.8047H130.481Z" fill="#CCCCCC"/>
<path d="M129.58 28.8047V64.7149H138.889V72.9443H117.268V64.7149H126.277V28.8047H129.58Z" fill="#E5E5E5"/>
<path d="M128.679 28.8047V66.9593H138.889V70.7H117.268V66.9593H127.478V28.8047H128.679Z" fill="white"/>
<path d="M133.483 28.8047V55.7374H138.889" stroke="black" stroke-width="0.473987"/>
<path d="M122.673 28.8047V55.7374H117.268" stroke="black" stroke-width="0.473987"/>
<path d="M117.268 81.9219H138.889" stroke="black" stroke-width="0.473987"/>
<path d="M132.583 2.99252L132.883 0H134.535L135.286 2.99252H132.583Z" fill="#7F7F7F" stroke="black" stroke-width="0.473987"/>
<path d="M126.877 2.99252L127.177 0H128.979L129.279 2.99252H126.877Z" fill="#7F7F7F" stroke="black" stroke-width="0.473987"/>
<path d="M120.871 2.99252L121.171 0H123.273L123.574 2.99252H120.871Z" fill="#7F7F7F" stroke="black" stroke-width="0.473987"/>
<path d="M132.583 22.0703L132.883 25.0628H134.535L135.286 22.0703H132.583Z" fill="#7F7F7F" stroke="black" stroke-width="0.473987"/>
<path d="M126.877 22.0703L127.177 25.0628H128.979L129.279 22.0703H126.877Z" fill="#7F7F7F" stroke="black" stroke-width="0.473987"/>
<path d="M120.871 22.0703L121.171 25.0628H123.273L123.574 22.0703H120.871Z" fill="#7F7F7F" stroke="black" stroke-width="0.473987"/>
<path d="M133.184 2.99252V0H134.535L135.286 2.99252H133.184Z" fill="#B2B2B2" stroke="black" stroke-width="0.473987"/>
<path d="M127.177 2.99252L127.477 0H128.979L129.279 2.99252H127.177Z" fill="#B2B2B2" stroke="black" stroke-width="0.473987"/>
<path d="M121.472 2.99252V0H123.273L123.574 2.99252H121.472Z" fill="#B2B2B2" stroke="black" stroke-width="0.473987"/>
<path d="M133.184 22.0703V25.0628H134.535L135.286 22.0703H133.184Z" fill="#B2B2B2" stroke="black" stroke-width="0.473987"/>
<path d="M127.177 22.0703L127.477 25.0628H128.979L129.279 22.0703H127.177Z" fill="#B2B2B2" stroke="black" stroke-width="0.473987"/>
<path d="M121.472 22.0703V25.0628H123.273L123.574 22.0703H121.472Z" fill="#B2B2B2" stroke="black" stroke-width="0.473987"/>
<path d="M135.886 22.0694V12.3438H120.271V22.0694H135.886Z" fill="#7F7F7F"/>
<path d="M134.985 22.0694V12.3438H121.171V22.0694H134.985Z" fill="#999999"/>
<path d="M133.183 22.0694V12.3438H122.973V22.0694H133.183Z" fill="#B2B2B2"/>
<path d="M131.682 22.0694V12.3438H124.475V22.0694H131.682Z" fill="#CCCCCC"/>
<path d="M130.481 22.0694V12.3438H125.676V22.0694H130.481Z" fill="#E5E5E5"/>
<path d="M128.979 22.0694V12.3438H127.177V22.0694H128.979Z" fill="white"/>
<path d="M135.886 22.0694V12.3438H120.271V22.0694H135.886Z" stroke="black" stroke-width="0.473987"/>
<path d="M134.234 25.0628H134.535L135.285 22.0703H134.535L134.234 25.0628Z" fill="#E5E5E5" stroke="black" stroke-width="0.473987"/>
<path d="M128.679 25.0628H128.979L129.279 22.0703H128.979L128.679 25.0628Z" fill="#E5E5E5" stroke="black" stroke-width="0.473987"/>
<path d="M122.973 25.0628H123.273L123.573 22.0703H122.973V25.0628Z" fill="#E5E5E5" stroke="black" stroke-width="0.473987"/>
<path d="M134.234 0H134.535L135.285 2.99252H134.535L134.234 0Z" fill="#E5E5E5" stroke="black" stroke-width="0.473987"/>
<path d="M128.679 0H128.979L129.279 2.99252H128.979L128.679 0Z" fill="#E5E5E5" stroke="black" stroke-width="0.473987"/>
<path d="M122.973 0H123.273L123.573 2.99252H122.973V0Z" fill="#E5E5E5" stroke="black" stroke-width="0.473987"/>
<path d="M135.886 2.99219V12.3438H120.271V2.99219H135.886Z" fill="#7F7F7F"/>
<path d="M134.985 2.99219V12.3438H121.171V2.99219H134.985Z" fill="#999999"/>
<path d="M133.183 2.99219V12.3438H122.973V2.99219H133.183Z" fill="#B2B2B2"/>
<path d="M131.682 2.99219V12.3438H124.475V2.99219H131.682Z" fill="#CCCCCC"/>
<path d="M130.481 2.99219V12.3438H125.676V2.99219H130.481Z" fill="#E5E5E5"/>
<path d="M128.979 2.99219V12.3438H127.177V2.99219H128.979Z" fill="white"/>
<path d="M135.886 2.99219V12.3438H120.271V2.99219H135.886Z" stroke="black" stroke-width="0.473987"/>
<path d="M148.648 80.4219L150 81.17V85.6588L148.648 86.4069V80.4219Z" fill="#7F7F7F" stroke="black" stroke-width="0.473987"/>
<path d="M148.648 65.4609L150 66.2091V71.446L148.648 72.1941V65.4609Z" fill="#7F7F7F" stroke="black" stroke-width="0.473987"/>
<path d="M148.648 51.25L150 51.9981V57.235L148.648 57.9832V51.25Z" fill="#7F7F7F" stroke="black" stroke-width="0.473987"/>
<path d="M140.991 80.4219L139.79 81.17V85.6588L140.991 86.4069V80.4219Z" fill="#7F7F7F" stroke="black" stroke-width="0.473987"/>
<path d="M140.991 65.4609L139.79 66.2091V71.446L140.991 72.1941V65.4609Z" fill="#7F7F7F" stroke="black" stroke-width="0.473987"/>
<path d="M140.991 51.25L139.79 51.9981V57.235L140.991 57.9832V51.25Z" fill="#7F7F7F" stroke="black" stroke-width="0.473987"/>
<path d="M148.648 81.1719L150 81.92V85.6607L148.648 86.4088V81.1719Z" fill="#B2B2B2" stroke="black" stroke-width="0.473987"/>
<path d="M148.648 66.9609L150 67.7091V71.4497L148.648 72.1978V66.9609Z" fill="#B2B2B2" stroke="black" stroke-width="0.473987"/>
<path d="M148.648 52.7422H150V57.231L148.648 57.9791V52.7422Z" fill="#B2B2B2" stroke="black" stroke-width="0.473987"/>
<path d="M140.991 81.1719L139.79 81.92V85.6607L140.991 86.4088V81.1719Z" fill="#B2B2B2" stroke="black" stroke-width="0.473987"/>
<path d="M140.991 66.9609L139.79 67.7091V71.4497L140.991 72.1978V66.9609Z" fill="#B2B2B2" stroke="black" stroke-width="0.473987"/>
<path d="M140.991 52.7422H139.79V57.231L140.991 57.9791V52.7422Z" fill="#B2B2B2" stroke="black" stroke-width="0.473987"/>
<path d="M140.991 87.9046H144.895V49.75H140.991V87.9046Z" fill="#7F7F7F"/>
<path d="M140.991 85.658H144.895V51.9922H140.991V85.658Z" fill="#999999"/>
<path d="M140.991 81.9189H144.895V55.7344H140.991V81.9189Z" fill="#B2B2B2"/>
<path d="M140.991 77.4335H144.895V60.2266H140.991V77.4335Z" fill="#CCCCCC"/>
<path d="M140.991 74.4407H144.895V63.2188H140.991V74.4407Z" fill="#E5E5E5"/>
<path d="M140.991 71.4497H144.895V66.9609H140.991V71.4497Z" fill="white"/>
<path d="M140.991 87.9046H144.895V49.75H140.991V87.9046Z" stroke="black" stroke-width="0.473987"/>
<path d="M139.79 84.9141V85.6622L140.991 86.4103V85.6622L139.79 84.9141Z" fill="#E5E5E5" stroke="black" stroke-width="0.473987"/>
<path d="M139.79 70.6953V71.4434L140.991 72.1916V70.6953H139.79Z" fill="#E5E5E5" stroke="black" stroke-width="0.473987"/>
<path d="M139.79 55.7344V57.2306L140.991 57.9788V56.4825L139.79 55.7344Z" fill="#E5E5E5" stroke="black" stroke-width="0.473987"/>
<path d="M150 84.9141V85.6622L148.648 86.4103V85.6622L150 84.9141Z" fill="#E5E5E5" stroke="black" stroke-width="0.473987"/>
<path d="M150 70.6953V71.4434L148.648 72.1916V70.6953H150Z" fill="#E5E5E5" stroke="black" stroke-width="0.473987"/>
<path d="M150 55.7344V57.2306L148.648 57.9788V56.4825L150 55.7344Z" fill="#E5E5E5" stroke="black" stroke-width="0.473987"/>
<path d="M148.648 87.9046H144.895V49.75H148.648V87.9046Z" fill="#7F7F7F"/>
<path d="M148.648 85.658H144.895V51.9922H148.648V85.658Z" fill="#999999"/>
<path d="M148.648 81.9189H144.895V55.7344H148.648V81.9189Z" fill="#B2B2B2"/>
<path d="M148.648 77.4335H144.895V60.2266H148.648V77.4335Z" fill="#CCCCCC"/>
<path d="M148.648 74.4407H144.895V63.2188H148.648V74.4407Z" fill="#E5E5E5"/>
<path d="M148.648 71.4497H144.895V66.9609H148.648V71.4497Z" fill="white"/>
<path d="M148.648 87.9046H144.895V49.75H148.648V87.9046Z" stroke="black" stroke-width="0.473987"/>
</g>
<defs>
<clipPath id="clip0_2109_200371">
<rect width="150" height="150" fill="white"/>
</clipPath>
</defs>
</svg>
