<svg width="150" height="150" viewBox="0 0 150 150" fill="none" xmlns="http://www.w3.org/2000/svg">
<g clip-path="url(#clip0_2109_201127)">
<path d="M0.943359 8.10907V113.965L19.5754 137.689L75 149.25L130.896 137.689L148.821 113.965V8.10907H138.443V0.601562H102.83V8.10907H0.943359Z" fill="#B2B2AA"/>
<path d="M5.89648 8.10938V113.965L23.3493 137.389L75.0003 149.251L127.123 137.389L144.104 113.965V8.10938H5.89648Z" fill="#B8B8B0"/>
<path d="M11.3203 8.10938V113.965L27.1222 137.389L74.9996 149.251L123.349 137.389L139.15 113.965V8.10938H11.3203Z" fill="#BABAB2"/>
<path d="M16.0381 8.10938V113.965L30.8966 137.389L75.0004 149.251L119.576 137.389L134.434 113.965V8.10938H16.0381Z" fill="#BFBFB7"/>
<path d="M20.9902 8.10938V113.965L34.6695 137.389L74.9997 149.251L115.802 137.389L129.245 113.965V8.10938H20.9902Z" fill="#C2C2BD"/>
<path d="M26.1797 8.10938V113.965L38.4438 137.389L75.0004 149.251L112.029 137.389L124.293 113.965V8.10938H26.1797Z" fill="#C7C7C2"/>
<path d="M30.8965 8.10938V113.965L41.9814 137.389L75.0003 149.251L108.255 137.389L119.576 113.965V8.10938H30.8965Z" fill="#C9C9C4"/>
<path d="M35.8486 8.10938V113.965L45.7543 137.389L74.9996 149.251L104.717 137.389L114.386 113.965V8.10938H35.8486Z" fill="#CFCFCA"/>
<path d="M41.0381 8.10938V113.965L49.5287 137.389L75.0004 149.251L100.944 137.389L109.198 113.965V8.10938H41.0381Z" fill="#D1D1CC"/>
<path d="M45.7549 8.10938V113.965L53.3021 137.389L75.0002 149.251L97.17 137.389L104.717 113.965V8.10938H45.7549Z" fill="#D6D6D1"/>
<path d="M50.707 8.10938V113.965L57.075 137.389L74.9995 149.251L93.3957 137.389L99.2919 113.965V8.10938H50.707Z" fill="#D9D9D6"/>
<path d="M56.1318 8.10938V113.965L60.8488 137.389L74.9998 149.251L89.6224 137.389L94.3394 113.965V8.10938H56.1318Z" fill="#DEDEDB"/>
<path d="M60.8486 8.10938V113.965L64.3864 137.389L74.9996 149.251L85.8486 137.389L89.6222 113.965V8.10938H60.8486Z" fill="#E0E0DD"/>
<path d="M65.8018 8.10938V113.965L68.1602 137.689L74.9999 149.251L82.0753 137.689L84.198 113.965V8.10938H65.8018Z" fill="#E5E5E2"/>
<path d="M0.943359 8.10907V113.965L19.5754 137.689L75 149.25L130.896 137.689L148.821 113.965V8.10907H138.443V0.601562H102.83V8.10907H0.943359Z" stroke="black" stroke-width="0.376366"/>
<path d="M10.377 134.831H140.094V131.828H10.377V134.831Z" fill="#7F7F72" stroke="black" stroke-width="0.376366"/>
<path d="M0.943359 113.961H148.821" stroke="black" stroke-width="0.376366"/>
<path d="M100.236 6.60938H141.038" stroke="black" stroke-width="0.376366"/>
<path d="M100.236 5.25781H141.038" stroke="black" stroke-width="0.376366"/>
<path d="M102.83 8.10938H138.443" stroke="black" stroke-width="0.376366"/>
<path d="M19.5753 137.689L74.9998 149.25L130.896 137.689L132.547 134.836L74.9998 146.247L17.2168 134.836L19.5753 137.689Z" stroke="black" stroke-width="0.376366"/>
<path d="M68.1602 149.246V145.492H82.0753V149.246H68.1602Z" fill="#CCCCC7" stroke="black" stroke-width="0.376366"/>
</g>
<defs>
<clipPath id="clip0_2109_201127">
<rect width="150" height="150" fill="white"/>
</clipPath>
</defs>
</svg>
