<svg width="150" height="150" viewBox="0 0 150 150" fill="none" xmlns="http://www.w3.org/2000/svg">
<g clip-path="url(#clip0_2109_202435)">
<path d="M17.1172 87.9688H128.679V122.77H17.1172V87.9688Z" fill="#4C4C4C"/>
<path d="M49.549 105.373H148.948V61.871L73.8734 7.89678L69.6692 5.64115L65.1647 3.70774L60.6601 2.4188L55.8553 1.4521L52.7022 1.12987L51.2007 0.96875H49.549L44.5941 1.29098L39.7893 1.93545L35.1346 3.38551L30.6301 4.99668L26.4259 7.25232L22.3719 9.83019L18.6181 12.8914L15.1647 16.2749L12.0115 19.9806L9.15865 24.0085L6.75625 28.3587L4.65414 32.8699L3.15264 37.7034L1.80129 42.6981L1.20069 47.8538L0.900391 50.5928V53.1707V55.9097L1.50099 61.0654L2.40189 66.2212L3.90339 71.0547L5.7052 75.8882L7.95745 80.2383L10.51 84.4274L13.513 88.2942L16.8163 91.8388L20.5701 95.0611L24.3238 97.8001L28.528 100.217L32.8824 102.311L37.3869 103.761L42.1917 104.889L47.1466 105.373H49.549Z" fill="#E56500" stroke="black" stroke-width="0.311074"/>
<path d="M15.165 33.6719H69.8197V142.265H29.2792V115.036V72.8233H15.165V33.6719Z" fill="#A6A6A6" stroke="black" stroke-width="0.311074"/>
<path d="M19.0693 138.078H27.1774V142.428H19.0693V138.078Z" fill="#BFBFBF" stroke="black" stroke-width="0.311074"/>
<path d="M71.9219 138.078H80.03V142.428H71.9219V138.078Z" fill="#BFBFBF" stroke="black" stroke-width="0.311074"/>
<path d="M96.2461 137.43H101.351V140.33H96.2461V137.43Z" fill="#BFBFBF" stroke="black" stroke-width="0.311074"/>
<path d="M129.729 137.43H134.835V140.33H129.729V137.43Z" fill="#BFBFBF" stroke="black" stroke-width="0.311074"/>
<path d="M94.2939 140.336H136.786V146.781H94.2939V140.336Z" fill="#BFBFBF" stroke="black" stroke-width="0.311074"/>
<path d="M97.5977 137.43H100.15V140.33H97.5977V137.43Z" fill="#F2F2F2" stroke="black" stroke-width="0.311074"/>
<path d="M130.931 137.43H133.483V140.33H130.931V137.43Z" fill="#F2F2F2" stroke="black" stroke-width="0.311074"/>
<path d="M21.1709 138.078H25.225V142.428H21.1709V138.078Z" fill="#F2F2F2" stroke="black" stroke-width="0.311074"/>
<path d="M73.874 138.078H78.0782V142.428H73.874V138.078Z" fill="#F2F2F2" stroke="black" stroke-width="0.311074"/>
<path d="M110.511 105.367H120.571V140.33H110.511V105.367Z" fill="#8C8C8C" stroke="black" stroke-width="0.311074"/>
<path d="M98.1982 107.625H148.949V116.325H98.1982V107.625Z" fill="#D9D9D9" stroke="black" stroke-width="0.311074"/>
<path d="M81.8322 48.8183L80.631 42.5347L78.3788 36.8957L75.0755 31.7399L71.1716 27.2286L66.5169 23.5229L61.2617 20.7839L55.556 19.0117L52.7031 18.5283L49.55 18.3672L46.547 18.5283L40.6911 19.6561L35.2857 21.9118L30.3307 25.1341L26.1265 29.162L22.5229 33.9955L19.6701 39.4735L17.7181 45.596L17.2677 48.8183H13.0635V57.5186H17.2677L18.3187 63.1577L19.9704 68.3135L22.3728 73.147L25.2256 77.1749L25.3758 77.0138L25.2256 76.8527V77.1749V114.071H73.8743L102.403 96.6701V77.1749H73.8743L76.1265 72.9859L78.2286 68.6357L80.3307 63.8022L81.6821 59.1298L81.8322 57.5186H86.1866V48.8183H81.8322Z" fill="#D9D9D9"/>
<path d="M25.2256 77.1749L22.3728 73.147L19.9704 68.3135L18.3187 63.1577L17.2677 57.5186H13.0635V48.8183H17.2677L17.7181 45.596L19.6701 39.4735L22.5229 33.9955L26.1265 29.162L30.3307 25.1341L35.2857 21.9118L40.6911 19.6561L46.547 18.5283L49.55 18.3672L52.7031 18.5283L55.556 19.0117L61.2617 20.7839L66.5169 23.5229L71.1716 27.2286L75.0755 31.7399L78.3788 36.8957L80.631 42.5347L81.8322 48.8183H86.1866V57.5186H81.8322L81.6821 59.1298L80.3307 63.8022L78.2286 68.6357L76.1265 72.9859L73.8743 77.1749H102.403V96.6701L73.8743 114.071H25.2256V77.1749ZM25.2256 77.1749L25.3758 77.0138L25.2256 76.8527V77.1749Z" stroke="black" stroke-width="0.311074"/>
<path d="M17.1172 142.43H81.9821V149.035H17.1172V142.43Z" fill="#D9D9D9" stroke="black" stroke-width="0.311074"/>
<path d="M118.619 101.023H138.889V107.629H118.619V101.023Z" fill="#333333"/>
<path d="M115.616 101.989L110.511 87.9717L115.616 73.9545L128.679 68.4766L141.742 73.9545L146.997 87.9717L141.742 101.989L128.679 107.628L115.616 101.989Z" fill="#8C8C8C" stroke="black" stroke-width="0.311074"/>
<path d="M118.618 98.9261L114.414 87.9702L118.468 77.1753L128.678 72.6641L138.889 77.0142L142.943 87.9702L138.889 98.9261L128.678 103.276L118.618 98.9261Z" fill="#A6A6A6"/>
<path d="M121.472 95.7003L118.619 87.9667L121.472 80.2331L128.679 77.1719L136.037 80.2331L138.889 87.9667L135.886 95.8615L128.679 98.9227L121.472 95.7003Z" fill="#333333"/>
<path d="M128.679 98.9227V77.1719" stroke="#A6A6A6" stroke-width="0.311074"/>
<path d="M138.889 87.9688H118.619" stroke="#A6A6A6" stroke-width="0.311074"/>
<path d="M135.886 95.7046L121.622 80.3984" stroke="#A6A6A6" stroke-width="0.311074"/>
<path d="M135.886 80.3984L121.622 95.7046" stroke="#A6A6A6" stroke-width="0.311074"/>
<path d="M49.5491 77.177C61.9051 77.177 71.9215 66.4289 71.9215 53.1705C71.9215 39.9121 61.9051 29.1641 49.5491 29.1641C37.1932 29.1641 27.1768 39.9121 27.1768 53.1705C27.1768 66.4289 37.1932 77.177 49.5491 77.177Z" fill="#BFBFBF"/>
<path d="M25.2256 77.1719H73.8742" stroke="black" stroke-width="0.311074"/>
<path d="M49.5492 70.5669C58.5052 70.5669 65.7654 62.7764 65.7654 53.1663C65.7654 43.5562 58.5052 35.7656 49.5492 35.7656C40.5933 35.7656 33.333 43.5562 33.333 53.1663C33.333 62.7764 40.5933 70.5669 49.5492 70.5669Z" fill="#666666"/>
<path d="M49.7 36.0938L49.5498 70.5728" stroke="#BFBFBF" stroke-width="0.311074"/>
<path d="M33.333 53.1719H65.7654" stroke="#BFBFBF" stroke-width="0.311074"/>
<path d="M37.9883 65.5728L60.9613 40.9219" stroke="#BFBFBF" stroke-width="0.311074"/>
<path d="M38.2881 41.0859L60.9608 65.5757" stroke="#BFBFBF" stroke-width="0.311074"/>
<path d="M31.3811 76.5319L28.0778 73.1484L25.3751 68.9594L23.273 64.6092L21.9216 59.7757L21.321 54.9422L21.1709 53.1699L21.321 50.1087L22.5222 44.1473L24.6244 38.6693L27.7775 33.8358L31.5313 29.8079L36.0358 26.4244L41.1409 24.1688L46.6964 22.8799L49.5493 22.7188L52.4021 22.8799L57.9577 24.1688L63.0628 26.4244L67.5673 29.8079L71.4712 33.8358L74.4742 38.6693L76.5763 44.1473L77.7775 50.1087L77.9277 53.1699V54.9422L77.3271 59.7757L75.9757 64.4481L73.8736 68.7982L71.321 72.8262L68.0177 76.2096" stroke="#7F7F7F" stroke-width="0.311074"/>
</g>
<defs>
<clipPath id="clip0_2109_202435">
<rect width="150" height="150" fill="white"/>
</clipPath>
</defs>
</svg>
