<svg width="150" height="150" viewBox="0 0 150 150" fill="none" xmlns="http://www.w3.org/2000/svg">
<path d="M121.875 128.828V139.038H148.803V128.828H121.875Z" fill="#B2B2B2" stroke="black" stroke-width="0.346122"/>
<path d="M121.875 128.828V139.038H40.0927L32.3135 128.828H121.875Z" fill="#666666" stroke="black" stroke-width="0.346122"/>
<path d="M144.415 149.101V142.344H0.99707V149.101H144.415Z" fill="#4C4C4C" stroke="black" stroke-width="0.346122"/>
<path d="M18.9492 101.953L32.3136 128.83H59.2418L72.6061 118.77L86.17 128.83H113.098L126.463 101.953H18.9492Z" fill="#7F7F7F" stroke="black" stroke-width="0.346122"/>
<path d="M113.099 108.711V135.588L121.875 132.285V112.014L113.099 108.711Z" fill="#CCCCCC" stroke="black" stroke-width="0.346122"/>
<path d="M32.314 135.588V108.711L23.3379 112.014V132.285L32.314 135.588Z" fill="#CCCCCC" stroke="black" stroke-width="0.346122"/>
<path d="M14.3619 101.951L9.97363 0.75H135.439L130.851 101.951H14.3619Z" fill="#999999" stroke="black" stroke-width="0.346122"/>
<path d="M9.97363 14.2656H135.439V17.5689H130.851L95.1465 101.953H50.2662L14.3619 17.5689H9.97363V14.2656Z" fill="#7F7F7F"/>
<path d="M9.97363 14.2635H18.9497L54.6545 105.255H90.5587L126.463 14.2635H135.439V0.75H9.97363V14.2635Z" fill="#B2B2B2" stroke="black" stroke-width="0.346122"/>
<path d="M27.9253 149.098V145.645L24.9333 142.341V139.038L27.9253 135.585V132.281H18.9492V135.585L21.9412 139.038V142.341L18.9492 145.645V149.098H27.9253Z" fill="#E5E5E5" stroke="black" stroke-width="0.346122"/>
<path d="M126.462 149.098V145.645L123.47 142.341V139.038L126.462 135.585V132.281H117.486V135.585L120.478 139.038V142.341L117.486 145.645V149.098H126.462Z" fill="#E5E5E5" stroke="black" stroke-width="0.346122"/>
<path d="M59.2422 128.826L72.6065 118.766L86.1704 128.826H59.2422Z" fill="#333333"/>
<path d="M30.1197 133.031V111.109L25.7314 112.761V131.38L30.1197 133.031Z" fill="#999999"/>
<path d="M115.293 111.109V133.031L119.681 131.53V112.761L115.293 111.109Z" fill="#999999"/>
</svg>
