<svg width="150" height="150" viewBox="0 0 150 150" fill="none" xmlns="http://www.w3.org/2000/svg">
<g clip-path="url(#clip0_2109_201976)">
<path d="M148.911 0.601562L139.985 9.91087V13.064L148.911 3.75472V0.601562Z" fill="#B2B2B2" stroke="black" stroke-width="0.3616"/>
<path d="M148.911 19.2188L139.985 25.8254V28.8284L148.911 22.3719V19.2188Z" fill="#B2B2B2" stroke="black" stroke-width="0.3616"/>
<path d="M148.911 99.7L139.985 96.5469V99.7L148.911 102.703V99.7Z" fill="#B2B2B2" stroke="black" stroke-width="0.3616"/>
<path d="M148.911 130.633L139.985 123.727V126.73L148.911 133.636V130.633Z" fill="#B2B2B2" stroke="black" stroke-width="0.3616"/>
<path d="M5.44294 98.2008L1.95963 98.0506V100.453H0.871094L1.0888 94.2969H2.17733L1.95963 96.5491H5.44294V98.2008Z" fill="#666666" stroke="black" stroke-width="0.3616"/>
<path d="M5.44294 103.604L14.3689 96.5469H10.0148L0.871094 99.7V103.604H5.44294Z" fill="#999999" stroke="black" stroke-width="0.3616"/>
<path d="M5.44238 130.633L14.3684 123.727V126.73L5.44238 133.636V130.633Z" fill="#B2B2B2" stroke="black" stroke-width="0.3616"/>
<path d="M5.44238 99.7L14.3684 96.5469V99.7L5.44238 102.703V99.7Z" fill="#B2B2B2" stroke="black" stroke-width="0.3616"/>
<path d="M5.44238 0.601562L14.3684 9.91087V13.064L5.44238 3.75472V0.601562Z" fill="#B2B2B2" stroke="black" stroke-width="0.3616"/>
<path d="M5.44238 19.2188L14.3684 25.8254V28.8284L5.44238 22.3719V19.2188Z" fill="#B2B2B2" stroke="black" stroke-width="0.3616"/>
<path d="M139.985 36.9375V80.3309H136.066V36.9375H139.985Z" fill="#B2B2B2" stroke="black" stroke-width="0.3616"/>
<path d="M18.2879 36.9375V80.3309H14.3691V36.9375H18.2879Z" fill="#B2B2B2" stroke="black" stroke-width="0.3616"/>
<path fill-rule="evenodd" clip-rule="evenodd" d="M18.2879 123.57H136.067V126.423H18.2879V123.57ZM18.2879 96.5429H136.067V99.2456H18.2879V96.5429ZM18.2879 26.2726H136.067V28.8252H18.2879V26.2726ZM14.3691 36.9333V9.90625H139.986V36.9333H136.067V12.609H18.2879V36.9333H14.3691ZM139.986 80.3267V139.936H136.067V80.3267H139.986ZM18.2879 80.3267V139.936H14.3691V80.3267H18.2879Z" fill="#999999"/>
<path d="M18.2871 123.57H136.066V126.423H18.2871V123.57Z" stroke="black" stroke-width="0.3616"/>
<path d="M18.2871 96.5469H136.066V99.2496H18.2871V96.5469Z" stroke="black" stroke-width="0.3616"/>
<path d="M18.2871 26.2734H136.066V28.826H18.2871V26.2734Z" stroke="black" stroke-width="0.3616"/>
<path d="M14.3691 36.9333V9.90625H139.986V36.9333H136.067V12.609H18.2879V36.9333H14.3691Z" stroke="black" stroke-width="0.3616"/>
<path d="M139.985 80.3281V139.938H136.066V80.3281H139.985Z" stroke="black" stroke-width="0.3616"/>
<path d="M18.2879 80.3281V139.938H14.3691V80.3281H18.2879Z" stroke="black" stroke-width="0.3616"/>
<path d="M100.798 130.633L97.3151 123.727L96.2266 126.73L99.7099 133.636L100.798 130.633Z" fill="#4C4C4C"/>
<path d="M53.5557 130.633L57.039 123.727L58.1275 126.73L54.8619 133.636L53.5557 130.633Z" fill="#4C4C4C"/>
<path d="M54.8623 109.757H99.7099L95.1381 104.352H59.2164L54.8623 109.757Z" fill="#7F7F7F" stroke="black" stroke-width="0.3616"/>
<path d="M40.7107 90.8392L36.792 73.1215V45.9443L38.9691 32.2806L42.8878 28.2266L74.2376 29.5779L103.846 28.2266L111.683 29.5779L115.602 40.5389L117.779 67.7161L115.602 86.635L113.643 92.0404L108.635 93.5419L84.0344 95.0434L50.2898 93.5419L40.7107 90.8392Z" fill="#FAFAFA" stroke="black" stroke-width="0.3616"/>
<path d="M107.765 75.8281L109.724 89.3417L111.684 73.1254L101.887 64.8672L107.765 75.8281Z" fill="#D9D9D9"/>
<path d="M70.3196 67.7184L99.9278 54.0547L64.4416 66.367L62.4822 56.7574L58.5635 69.0697L70.3196 67.7184Z" fill="#D9D9D9"/>
<path d="M40.7114 77.1757L42.8884 54.0526L40.7114 40.5391L38.9697 62.1607L40.7114 77.1757Z" fill="#D9D9D9"/>
<path d="M109.725 87.9888L115.603 74.4753L109.725 55.4062L111.684 73.124L109.725 87.9888Z" fill="#EBEBEB"/>
<path d="M105.806 52.7015L107.765 64.8636L109.724 41.8906L105.806 30.9297V52.7015Z" fill="#EBEBEB"/>
<path d="M97.9679 49.9988L76.1973 60.8096L94.0492 47.2961L101.887 30.9297L97.9679 49.9988Z" fill="#EBEBEB"/>
<path d="M72.2784 45.9447L56.6035 30.9297L70.319 33.6324L94.0491 30.9297L68.3597 37.6864L72.2784 45.9447Z" fill="#EBEBEB"/>
<path d="M48.7664 60.8098L44.8477 43.2422L48.7664 32.2812V60.8098Z" fill="#EBEBEB"/>
<path d="M56.6043 77.1782L52.6855 56.7578L58.5636 69.0701L70.3198 67.7188L92.0905 58.1092L56.6043 77.1782Z" fill="#EBEBEB"/>
<path d="M85.994 71.772L66.4004 77.1774L80.1159 71.772L101.887 51.3516L85.994 71.772Z" fill="#EBEBEB"/>
<path d="M95.138 91.8946L107.765 86.6394L70.3194 85.288L88.1714 78.5312L54.6445 83.9367L95.138 91.8946Z" fill="#EBEBEB"/>
<path d="M50.7261 93.5444L66.401 90.8417L46.5897 83.9348L44.848 66.3672L42.8887 86.6375L50.7261 93.5444Z" fill="#EBEBEB"/>
<path d="M9.79652 31.6797V81.0791H5.44238V31.6797H9.79652Z" fill="#E5E5E5" stroke="black" stroke-width="0.3616"/>
<path d="M148.912 31.6797V81.0791H144.558V31.6797H148.912Z" fill="#E5E5E5" stroke="black" stroke-width="0.3616"/>
<path d="M50.29 93.5438L74.8909 90.3906L108.635 93.5438H50.29Z" fill="#CCCCCC"/>
<path d="M43.541 30.0312L74.8908 31.6829L104.064 30.0312L110.812 31.6829" stroke="#7F7F7F" stroke-width="0.3616"/>
<path d="M106.241 22.3688V30.1766L110.813 30.3268L112.99 22.3688V16.0625H107.547L106.241 22.3688Z" fill="#E5E5E5" stroke="black" stroke-width="0.3616"/>
<path d="M48.1131 22.3688V30.1766L43.5413 30.3268L41.1465 22.3688L41.3642 16.0625H46.8069L48.1131 22.3688Z" fill="#E5E5E5" stroke="black" stroke-width="0.3616"/>
<path d="M146.734 34.6875V77.9307" stroke="#7F7F7F" stroke-width="0.3616"/>
<path d="M7.62012 34.6875V77.9307" stroke="#7F7F7F" stroke-width="0.3616"/>
<path d="M50.29 93.5423L68.142 91.8906L108.635 93.5423L96.2262 94.293L90.5658 98.9477L91.872 105.104L94.0491 107.356L75.9794 109.008L61.3931 107.356L63.7879 105.104L61.3931 98.9477L50.29 93.5423Z" fill="#B2B2B2"/>
<path d="M54.8623 109.758H99.7099V128.977H54.8623V109.758Z" fill="#999999" stroke="black" stroke-width="0.3616"/>
<path d="M63.7881 105.102L75.9797 105.852L91.8723 105.102" stroke="black" stroke-width="0.3616"/>
<path d="M50.5077 93.3906L82.7284 95.0423L104.064 93.3906V95.793H50.29L50.5077 93.3906Z" fill="#666666"/>
<path d="M54.6445 95.7969L61.3934 98.95L63.7882 105.106L61.3934 107.358L75.9798 109.01L94.0495 107.358L91.8724 105.106L90.5662 98.95L94.0495 95.7969" stroke="black" stroke-width="0.3616"/>
<path d="M69.4482 122.819L71.6253 118.916L77.2857 117.414L82.7284 118.916L85.1231 122.819L82.7284 126.723L77.2857 128.225L71.6253 126.723L69.4482 122.819Z" fill="#CCCCCC"/>
<path d="M71.626 122.826L73.1499 120.123L77.2864 118.922L81.2051 120.123L82.729 122.826L81.2051 125.679L77.2864 126.73L73.1499 125.679L71.626 122.826Z" fill="#E5E5E5" stroke="#7F7F7F" stroke-width="0.3616"/>
<path d="M74.8916 122.822L75.5447 121.771L77.2864 121.32L78.8103 121.771L79.4634 122.822V125.224H74.8916V122.822Z" fill="white" stroke="black" stroke-width="0.3616"/>
<path d="M54.8623 111.258H99.7099" stroke="black" stroke-width="0.3616"/>
<path d="M107.547 17.7142L108.2 16.513L109.724 16.0625L111.248 16.513L111.901 17.7142L111.248 18.7652L109.724 19.2157L108.2 18.7652L107.547 17.7142Z" fill="black"/>
<path d="M42.4531 17.7142L43.1062 16.513L44.6302 16.0625L46.1541 16.513L46.8073 17.7142L46.1541 18.7652L44.6302 19.2157L43.1062 18.7652L42.4531 17.7142Z" fill="black"/>
<path d="M63.7881 106.609L75.9797 107.36L91.8723 106.609" stroke="white" stroke-width="0.3616"/>
<path d="M74.8916 125.228L75.5447 124.177L77.2864 123.727L78.8103 124.177L79.4634 125.228L78.8103 126.279L77.2864 126.73L75.5447 126.279L74.8916 125.228Z" fill="black"/>
<path d="M91.8726 96.5469L87.3008 100.451V104.355" stroke="#666666" stroke-width="0.3616"/>
<path d="M86.2118 97.2969L82.7285 100.45V104.354" stroke="#666666" stroke-width="0.3616"/>
<path d="M81.64 96.5469L79.4629 99.7L80.5514 104.355" stroke="#666666" stroke-width="0.3616"/>
<path d="M76.1973 96.5469L77.2858 100.451V104.355" stroke="#666666" stroke-width="0.3616"/>
<path d="M70.9727 96.5469L72.7143 100.451L74.8914 105.105" stroke="#666666" stroke-width="0.3616"/>
<path d="M60.3047 96.5469L65.9651 100.451L68.3598 104.355" stroke="#666666" stroke-width="0.3616"/>
<path d="M65.7471 96.5469L69.4481 100.451L70.5366 104.355" stroke="#666666" stroke-width="0.3616"/>
<path fill-rule="evenodd" clip-rule="evenodd" d="M148.911 81.082V149.25H144.557V81.082H148.911ZM10.0142 130.632H144.557V133.635H10.0142V130.632ZM10.0142 99.7007H144.557V102.704H10.0142V99.7007ZM9.79652 81.082V149.25H5.44238V81.082H9.79652ZM10.0142 19.2202H144.557V22.3733H10.0142V19.2202ZM5.44238 31.6826V0.601562H148.911V31.6826H144.557V3.75472H10.0142V31.6826H5.44238Z" fill="#CCCCCC"/>
<path d="M148.912 81.0781V149.246H144.558V81.0781H148.912Z" stroke="black" stroke-width="0.3616"/>
<path d="M10.0146 130.633H144.557V133.636H10.0146V130.633Z" stroke="black" stroke-width="0.3616"/>
<path d="M10.0146 99.7031H144.557V102.706H10.0146V99.7031Z" stroke="black" stroke-width="0.3616"/>
<path d="M9.79652 81.0781V149.246H5.44238V81.0781H9.79652Z" stroke="black" stroke-width="0.3616"/>
<path d="M10.0146 19.2188H144.557V22.3719H10.0146V19.2188Z" stroke="black" stroke-width="0.3616"/>
<path d="M5.44238 31.6826V0.601562H148.911V31.6826H144.557V3.75472H10.0142V31.6826H5.44238Z" stroke="black" stroke-width="0.3616"/>
<path d="M24.6012 91.8906H42.4531L41.3646 93.6924H23.2949L24.6012 91.8906Z" fill="#E5E5E5" stroke="black" stroke-width="0.3616"/>
<path d="M23.2949 93.5469H41.3646V109.012H23.2949V93.5469Z" fill="#B2B2B2" stroke="black" stroke-width="0.3616"/>
<path d="M42.4528 107.206V91.8906L41.3643 93.6924V109.008L42.4528 107.206Z" fill="#7F7F7F" stroke="black" stroke-width="0.3616"/>
<path d="M26.7783 96.3984H37.8814V106.008H26.7783V96.3984Z" fill="black"/>
<path d="M27.8662 97.2969H36.7922V105.105H27.8662V97.2969Z" fill="#CCCCCC"/>
<path d="M31.1318 99.7031H35.7037V101.955H31.1318V99.7031Z" fill="#7F5959"/>
</g>
<defs>
<clipPath id="clip0_2109_201976">
<rect width="150" height="150" fill="white"/>
</clipPath>
</defs>
</svg>
