<svg width="150" height="150" viewBox="0 0 150 150" fill="none" xmlns="http://www.w3.org/2000/svg">
<g clip-path="url(#clip0_2109_204643)">
<path d="M133.763 62.3123L134.279 107.057L115.206 111.562V150H15.7219V62.3123L16.495 57.3574L18.2992 52.7027L21.1342 48.3483L25.0002 44.1441L29.8971 40.2402L35.8249 36.7868L42.526 33.7838L49.7425 31.3814L13.1445 0H136.856L100.258 31.3814L107.474 33.7838L113.918 36.7868L119.588 40.2402L124.485 44.1441L128.351 48.3483L131.444 52.7027L133.248 57.3574L133.763 62.3123Z" fill="#00FFFF"/>
<path d="M89.6904 39.7929L100.515 31.2344" stroke="black" stroke-width="0.393439"/>
<path d="M136.598 0H150" stroke="black" stroke-width="0.393439"/>
<path d="M131.185 150H115.206" stroke="black" stroke-width="0.393439"/>
<path d="M115.206 111.56V62.4609" stroke="black" stroke-width="0.393439"/>
<path d="M70.3612 63.9654L69.8457 61.563L72.423 59.7612L76.289 59.4609L79.6395 60.8123L80.155 63.2147L77.5777 65.1666L73.7117 65.4669L70.3612 63.9654Z" stroke="black" stroke-width="0.393439"/>
<path d="M72.4226 59.6134L59.0205 46.25" stroke="black" stroke-width="0.393439"/>
<path d="M72.1648 65.1641L58.7627 78.6776" stroke="black" stroke-width="0.393439"/>
<path d="M80.4121 62.4609H107.216" stroke="black" stroke-width="0.393439"/>
<path d="M69.5879 40.5391H80.4126" stroke="black" stroke-width="0.393439"/>
<path d="M51.5469 45.0438L60.8252 41.8906" stroke="black" stroke-width="0.393439"/>
<path d="M39.6904 54.2023L45.1028 48.7969" stroke="black" stroke-width="0.393439"/>
<path d="M37.3711 65.4687V59.3125" stroke="black" stroke-width="0.393439"/>
<path d="M45.1028 76.1259L39.6904 70.5703" stroke="black" stroke-width="0.393439"/>
<path d="M60.8252 82.8858L51.5469 79.8828" stroke="black" stroke-width="0.393439"/>
<path d="M80.4126 84.3828H69.5879" stroke="black" stroke-width="0.393439"/>
<path d="M98.4541 79.8828L88.918 83.036" stroke="black" stroke-width="0.393439"/>
<path d="M110.051 70.7188L104.896 76.1242" stroke="black" stroke-width="0.393439"/>
<path d="M112.629 59.3125V65.6188" stroke="black" stroke-width="0.393439"/>
<path d="M104.896 48.7969L110.309 54.2023" stroke="black" stroke-width="0.393439"/>
<path d="M89.1748 41.8906L98.4532 45.0438" stroke="black" stroke-width="0.393439"/>
<path d="M53.6084 81.9844L101.804 150.002H85.8249" stroke="black" stroke-width="0.393439"/>
<path d="M74.9999 149.998H59.0205L88.4019 130.328" stroke="black" stroke-width="0.393439"/>
<path d="M60.3091 39.7929L49.4844 31.2344" stroke="black" stroke-width="0.393439"/>
<path d="M0 150H15.9794V62.4625L16.2371 59.9099L16.4948 57.5075L17.268 55.1051L18.299 52.8529L19.5876 50.4505L21.3918 48.3483L23.1959 46.2462L25.2577 44.1441L27.5773 42.1922L30.1546 40.2402L32.732 38.4384L35.8247 36.7868L38.9175 35.2853L42.268 33.7838L45.8763 32.4324L49.4845 31.3814L13.1443 0H0" stroke="black" stroke-width="0.393439"/>
<path d="M136.598 0L100.258 31.3814L104.124 32.4324L107.474 33.7838L110.825 35.2853L114.175 36.7868L117.01 38.4384L119.845 40.2402L122.423 42.1922L124.742 44.1441L126.804 46.2462L128.608 48.3483L130.155 50.4505L131.443 52.8529L132.474 55.1051L133.248 57.5075L133.763 59.9099L134.021 62.4625V106.907L115.206 111.562V150" stroke="black" stroke-width="0.393439"/>
</g>
<defs>
<clipPath id="clip0_2109_204643">
<rect width="150" height="150" fill="white"/>
</clipPath>
</defs>
</svg>
