<svg width="150" height="150" viewBox="0 0 150 150" fill="none" xmlns="http://www.w3.org/2000/svg">
<g clip-path="url(#clip0_2109_204034)">
<path d="M48.7995 109.159L56.0024 137.237H93.8176L101.02 109.159L119.748 87.5375L101.02 0H48.7995L29.7119 87.5375L48.7995 109.159Z" fill="#336666" stroke="black" stroke-width="0.328864"/>
<path d="M7.56348 150.002H29.7123V109.161H119.748V150.002H142.437V109.161L138.836 99.8514V87.5391H10.9848V99.8514L7.56348 109.161V150.002Z" fill="#669999" stroke="black" stroke-width="0.328864"/>
<path d="M74.9099 99.6997C107.928 99.6997 134.694 77.3812 134.694 49.8498C134.694 22.3185 107.928 0 74.9099 0C41.8921 0 15.126 22.3185 15.126 49.8498C15.126 77.3812 41.8921 99.6997 74.9099 99.6997Z" fill="#669999" stroke="black" stroke-width="0.328864"/>
<path d="M0 99.8516H150V109.161H138.836V125.077H127.311V109.161H22.509V125.077H10.9844V109.161H0V99.8516Z" fill="#99CCCC" stroke="black" stroke-width="0.328864"/>
<path d="M7.56348 125.078H142.437V131.084H134.874V150.003H131.273V131.084H18.5479V150.003H15.1265V131.084H7.56348V125.078Z" fill="#99CCCC" stroke="black" stroke-width="0.328864"/>
<path d="M72.7488 91.443C101.49 91.443 124.79 72.0152 124.79 48.0496C124.79 24.0841 101.49 4.65625 72.7488 4.65625C44.0075 4.65625 20.708 24.0841 20.708 48.0496C20.708 72.0152 44.0075 91.443 72.7488 91.443Z" fill="#6EA1A1"/>
<path d="M70.7679 86.189C97.1224 86.189 118.487 68.3745 118.487 46.3992C118.487 24.4239 97.1224 6.60938 70.7679 6.60938C44.4134 6.60938 23.0488 24.4239 23.0488 46.3992C23.0488 68.3745 44.4134 86.189 70.7679 86.189Z" fill="#78ABAB"/>
<path d="M68.7878 81.2308C92.9544 81.2308 112.545 64.8952 112.545 44.7443C112.545 24.5934 92.9544 8.25781 68.7878 8.25781C44.6212 8.25781 25.0303 24.5934 25.0303 44.7443C25.0303 64.8952 44.6212 81.2308 68.7878 81.2308Z" fill="#7FB2B2"/>
<path d="M66.6262 75.672C88.406 75.672 106.062 60.9498 106.062 42.7891C106.062 24.6284 88.406 9.90625 66.6262 9.90625C44.8464 9.90625 27.1904 24.6284 27.1904 42.7891C27.1904 60.9498 44.8464 75.672 66.6262 75.672Z" fill="#87BABA"/>
<path d="M64.466 70.5698C83.9584 70.5698 99.7601 57.3938 99.7601 41.1404C99.7601 24.8869 83.9584 11.7109 64.466 11.7109C44.9736 11.7109 29.1719 24.8869 29.1719 41.1404C29.1719 57.3938 44.9736 70.5698 64.466 70.5698Z" fill="#91C4C4"/>
<path d="M62.4849 65.4632C79.7894 65.4632 93.8174 53.7661 93.8174 39.3371C93.8174 24.908 79.7894 13.2109 62.4849 13.2109C45.1804 13.2109 31.1523 24.908 31.1523 39.3371C31.1523 53.7661 45.1804 65.4632 62.4849 65.4632Z" fill="#99CCCC"/>
<path d="M60.3243 60.2091C75.2419 60.2091 87.3351 50.1254 87.3351 37.6866C87.3351 25.2477 75.2419 15.1641 60.3243 15.1641C45.4066 15.1641 33.3135 25.2477 33.3135 37.6866C33.3135 50.1254 45.4066 60.2091 60.3243 60.2091Z" fill="#A1D4D4"/>
<path d="M58.3438 55.1069C70.974 55.1069 81.2129 46.5694 81.2129 36.0378C81.2129 25.5063 70.974 16.9688 58.3438 16.9688C45.7135 16.9688 35.4746 25.5063 35.4746 36.0378C35.4746 46.5694 45.7135 55.1069 58.3438 55.1069Z" fill="#ABDEDE"/>
<path d="M56.0029 49.9969C66.3458 49.9969 74.7304 43.0055 74.7304 34.3812C74.7304 25.757 66.3458 18.7656 56.0029 18.7656C45.66 18.7656 37.2754 25.757 37.2754 34.3812C37.2754 43.0055 45.66 49.9969 56.0029 49.9969Z" fill="#B2E5E5"/>
<path d="M119.748 0H122.269V99.8499H119.748V0Z" fill="#FFCC00"/>
<path d="M132.353 0H134.874V99.8499H132.353V0Z" fill="#FFCC00"/>
<path d="M122.269 15.0156H132.353V16.9676H122.269V15.0156Z" fill="#FFCC00"/>
<path d="M122.269 31.9844H132.353V34.0865H122.269V31.9844Z" fill="#FFCC00"/>
<path d="M122.269 48.7969H132.353V50.899H122.269V48.7969Z" fill="#FFCC00"/>
<path d="M122.269 65.9141H132.353V68.0162H122.269V65.9141Z" fill="#FFCC00"/>
<path d="M122.269 83.0312H132.353V85.1334H122.269V83.0312Z" fill="#FFCC00"/>
<path d="M122.269 6.30469H132.353V8.25664H122.269V6.30469Z" fill="#FFCC00"/>
<path d="M122.269 23.2734H132.353V25.5257H122.269V23.2734Z" fill="#FFCC00"/>
<path d="M122.269 40.3906H132.353V42.4927H122.269V40.3906Z" fill="#FFCC00"/>
<path d="M122.269 57.5078H132.353V59.6099H122.269V57.5078Z" fill="#FFCC00"/>
<path d="M122.269 74.3281H132.353V76.7305H122.269V74.3281Z" fill="#FFCC00"/>
<path d="M122.269 91.4453H132.353V93.5474H122.269V91.4453Z" fill="#FFCC00"/>
</g>
<defs>
<clipPath id="clip0_2109_204034">
<rect width="150" height="150" fill="white"/>
</clipPath>
</defs>
</svg>
