<svg width="150" height="150" viewBox="0 0 150 150" fill="none" xmlns="http://www.w3.org/2000/svg">
<path d="M75.0003 112.64C110.257 112.64 138.838 89.4513 138.838 60.8471C138.838 32.243 110.257 9.05469 75.0003 9.05469C39.744 9.05469 11.1631 32.243 11.1631 60.8471C11.1631 89.4513 39.744 112.64 75.0003 112.64Z" fill="#CCCCCC" stroke="black" stroke-width="0.628419"/>
<path d="M69.0696 60.8516V117.455L66.6278 145.757H8.02312L5.23242 117.455V60.8516H69.0696Z" fill="#BFBFBF"/>
<path d="M144.767 117.454V79.8125H75V117.454H144.767Z" fill="#BFBFBF"/>
<path d="M75 4.24219V41.8837H144.767V4.24219H75Z" fill="#BFBFBF"/>
<path d="M61.3954 60.8516V117.455L59.3024 145.757H15.3489L13.2559 117.455V60.8516H61.3954Z" fill="#D9D9D9"/>
<path d="M144.767 112.638V84.3359H75V112.638H144.767Z" fill="#D9D9D9"/>
<path d="M75 9.05469V37.3566H144.767V9.05469H75Z" fill="#D9D9D9"/>
<path d="M53.0235 60.8516V117.455L51.977 145.757H22.6746L21.2793 117.455V60.8516H53.0235Z" fill="#E5E5E5"/>
<path d="M144.767 108.111V89.1484H75V108.111H144.767Z" fill="#E5E5E5"/>
<path d="M75 13.5859V32.5482H144.767V13.5859H75Z" fill="#E5E5E5"/>
<path d="M45.3492 60.8516V117.455L44.6516 145.757H30.0004L29.3027 117.455V60.8516H45.3492Z" fill="#F2F2F2"/>
<path d="M75 18.3984V27.7381H144.767V18.3984H75Z" fill="#F2F2F2"/>
<path d="M144.767 103.301V93.9609H75V103.301H144.767Z" fill="#F2F2F2"/>
<path d="M69.0696 117.453H5.23242" stroke="black" stroke-width="0.628419"/>
<path d="M69.0696 60.8516V117.455L66.6278 145.757H8.02312L5.23242 117.455V60.8516H69.0696Z" stroke="black" stroke-width="0.628419"/>
<path d="M144.767 117.454V79.8125H75V117.454H144.767Z" stroke="black" stroke-width="0.628419"/>
<path d="M75 4.24219V41.8837H144.767V4.24219H75Z" stroke="black" stroke-width="0.628419"/>
<path d="M74.9999 89.1507C94.2657 89.1507 109.884 76.4795 109.884 60.8488C109.884 45.2181 94.2657 32.5469 74.9999 32.5469C55.7342 32.5469 40.1162 45.2181 40.1162 60.8488C40.1162 76.4795 55.7342 89.1507 74.9999 89.1507Z" fill="#CCCCCC" stroke="black" stroke-width="0.628419"/>
<path d="M74.9997 82.0778C89.449 82.0778 101.162 72.5744 101.162 60.8514C101.162 49.1284 89.449 39.625 74.9997 39.625C60.5504 39.625 48.8369 49.1284 48.8369 60.8514C48.8369 72.5744 60.5504 82.0778 74.9997 82.0778Z" fill="#E5E5E5" stroke="black" stroke-width="0.628419"/>
</svg>
