<svg width="150" height="150" viewBox="0 0 150 150" fill="none" xmlns="http://www.w3.org/2000/svg">
<g clip-path="url(#clip0_2109_204598)">
<path d="M65.4655 150L45.1952 114.877H21.9219V79.908H45.1952L34.2342 59.2025H0V28.681H43.5435V0H150V25.4601H115.616V59.2025L104.655 79.908H124.925V114.877H104.655L84.3844 150H65.4655Z" fill="#00FFFF"/>
<path d="M0 28.681H43.6937V0H150" stroke="black" stroke-width="0.303507"/>
<path d="M150 25.4609H115.616V59.0499L104.655 79.7554H124.925V114.878H104.655L84.3848 150.001" stroke="black" stroke-width="0.303507"/>
<path d="M65.6153 149.998L45.1949 114.875H21.7715" stroke="black" stroke-width="0.303507"/>
<path d="M21.7718 79.7524H45.1952L34.3844 59.0469H0" stroke="black" stroke-width="0.303507"/>
<path d="M53.0029 57.3643V35.125" stroke="black" stroke-width="0.303507"/>
<path d="M59.3096 57.3643V35.125" stroke="black" stroke-width="0.303507"/>
<path d="M65.6152 57.3643V35.125" stroke="black" stroke-width="0.303507"/>
<path d="M46.8467 35.125V57.3643H109.309V35.125" stroke="black" stroke-width="0.303507"/>
<path d="M77.9277 57.3643V35.125" stroke="black" stroke-width="0.303507"/>
<path d="M84.2344 57.3643V35.125" stroke="black" stroke-width="0.303507"/>
<path d="M90.541 57.3643V35.125" stroke="black" stroke-width="0.303507"/>
<path d="M71.7715 57.3643V35.125" stroke="black" stroke-width="0.303507"/>
<path d="M103.003 57.3643V35.125" stroke="black" stroke-width="0.303507"/>
<path d="M96.6963 57.3643V35.125" stroke="black" stroke-width="0.303507"/>
</g>
<defs>
<clipPath id="clip0_2109_204598">
<rect width="150" height="150" fill="white"/>
</clipPath>
</defs>
</svg>
