<svg width="150" height="150" viewBox="0 0 150 150" fill="none" xmlns="http://www.w3.org/2000/svg">
<path d="M62.6123 101.157V5.78125H142.943V101.157H62.6123Z" fill="#4C4C4C"/>
<path d="M62.6123 95.0885V11.5625H142.943V95.0885H62.6123Z" fill="#616161"/>
<path d="M62.6123 89.0201V17.6328H142.943V89.0201H62.6123Z" fill="#787878"/>
<path d="M62.6123 86.1304V20.5234H142.943V86.1304H62.6123Z" fill="#8C8C8C"/>
<path d="M62.6123 80.0541V26.5859H142.943V80.0541H62.6123Z" fill="#A1A1A1"/>
<path d="M62.6123 72.5409V34.1016H142.943V72.5409H62.6123Z" fill="#B8B8B8"/>
<path d="M62.6123 62.4269V44.5078H142.943V62.4269H62.6123Z" fill="#CCCCCC"/>
<path d="M62.6123 101.157V5.78125H142.943V101.157H62.6123Z" stroke="black" stroke-width="0.416634"/>
<path d="M56.3066 105.492V1.15625H62.6129V105.492H56.3066Z" fill="black"/>
<path d="M56.3066 92.1988V14.7422H62.6129V92.1988H56.3066Z" fill="#4C4C4C"/>
<path d="M56.3066 68.2063V38.4375H62.6129V68.2063H56.3066Z" fill="#666666"/>
<path d="M56.3066 83.2344H62.6129" stroke="#7F7F7F" stroke-width="0.416634"/>
<path d="M56.3066 95.0859H62.6129" stroke="#7F7F7F" stroke-width="0.416634"/>
<path d="M56.3066 89.0156H62.6129" stroke="#7F7F7F" stroke-width="0.416634"/>
<path d="M56.3066 101.156H62.6129" stroke="#7F7F7F" stroke-width="0.416634"/>
<path d="M56.3066 23.7031H62.6129" stroke="#7F7F7F" stroke-width="0.416634"/>
<path d="M56.3066 11.5625H62.6129" stroke="#7F7F7F" stroke-width="0.416634"/>
<path d="M56.3066 17.6328H62.6129" stroke="#7F7F7F" stroke-width="0.416634"/>
<path d="M56.3066 5.78125H62.6129" stroke="#7F7F7F" stroke-width="0.416634"/>
<path d="M56.3066 71.1016H62.6129" stroke="#BFBFBF" stroke-width="0.416634"/>
<path d="M56.3066 77.1641H62.6129" stroke="#BFBFBF" stroke-width="0.416634"/>
<path d="M56.3066 65.3203H62.6129" stroke="#BFBFBF" stroke-width="0.416634"/>
<path d="M56.3066 35.5469H62.6129" stroke="#BFBFBF" stroke-width="0.416634"/>
<path d="M56.3066 41.6172H62.6129" stroke="#BFBFBF" stroke-width="0.416634"/>
<path d="M56.3066 29.4766H62.6129" stroke="#BFBFBF" stroke-width="0.416634"/>
<path d="M56.3066 59.25H62.6129" stroke="#E5E5E5" stroke-width="0.416634"/>
<path d="M56.3066 47.3984H62.6129" stroke="#E5E5E5" stroke-width="0.416634"/>
<path d="M56.3066 53.4688H62.6129" stroke="#E5E5E5" stroke-width="0.416634"/>
<path d="M56.3066 105.492V1.15625H62.6129V105.492H56.3066Z" stroke="black" stroke-width="0.416634"/>
<path d="M142.943 145.668V71.1016H149.25V145.668H142.943Z" fill="#A6A6A6" stroke="black" stroke-width="0.416634"/>
<path d="M50.1504 145.668V71.1016H56.3065V145.668H50.1504Z" fill="#A6A6A6" stroke="black" stroke-width="0.416634"/>
<path d="M0.600586 145.664H56.3063V148.554H0.600586V145.664Z" fill="#CCCCCC" stroke="black" stroke-width="0.416634"/>
<path d="M142.943 145.664H149.25V148.554H142.943V145.664Z" fill="#CCCCCC" stroke="black" stroke-width="0.416634"/>
<path d="M47.1475 65.3166V41.6172H56.3066V65.3166H47.1475Z" fill="#4C4C4C"/>
<path d="M47.1475 61.5599V45.0859H56.3066V61.5599H47.1475Z" fill="#8C8C8C"/>
<path d="M47.1475 60.1151V46.8203H56.3066V60.1151H47.1475Z" fill="#A1A1A1"/>
<path d="M47.1475 55.4915V51.1562H56.3066V55.4915H47.1475Z" fill="#CCCCCC"/>
<path d="M47.1475 65.3166V41.6172H56.3066V65.3166H47.1475Z" stroke="black" stroke-width="0.416634"/>
<path d="M47.1475 71.0986V65.3182H49.3997V52.0234H50.9012V65.3182H52.5529V52.0234H54.0544V65.3182H56.3066V71.0986H47.1475Z" fill="#E5E5E5" stroke="black" stroke-width="0.416634"/>
<path d="M2.25195 145.668L3.75345 130.928H47.1468V71.1016H50.1499V145.668H2.25195Z" fill="#7F7F7F" stroke="black" stroke-width="0.416634"/>
<path d="M28.5283 130.925V124.856H34.6845L39.3391 121.965L40.8406 113.006V101.156H47.1469V130.925H28.5283Z" fill="#B2B2B2" stroke="black" stroke-width="0.416634"/>
<path d="M18.4685 130.925H3.75374L0.600586 129.48V102.601L3.75374 101.156H18.4685V102.601H22.3724L23.8739 105.492V113.006H27.7778V108.382H28.5285V106.937H30.7808V108.382H31.6817V113.006H34.6847V104.046H37.8378V102.601H40.8408V129.48H37.8378V127.746H34.6847V118.786H31.6817V123.411H30.7808V124.856H28.5285V123.411H27.7778V118.786H23.8739V126.301L22.3724 129.48H18.4685V130.925Z" fill="#4C4C4C" stroke="black" stroke-width="0.416634"/>
<path d="M18.4687 128.035H3.90413L0.750977 126.879V104.914L3.90413 103.469H18.4687V104.914H22.3726L23.8741 107.226V113.584H27.778V109.827H28.5288V108.382H30.9312V109.827H31.6819V113.584H34.8351V106.07H37.8381V104.914H40.9912V126.879H37.8381V125.723H34.8351V118.209H31.6819V121.966H30.9312V123.122H28.5288V121.966H27.778V118.209H23.8741V124.567L22.3726 126.879H18.4687V128.035Z" fill="#666666"/>
<path d="M18.4687 126.301H3.90413L0.750977 125.145V106.648L3.90413 105.492H18.4687V106.648H22.3726L23.8741 108.671V113.874H27.778V110.694H28.5288V109.538H30.9312V110.694H31.6819V113.874H34.8351V107.515H37.8381V106.648H40.9912V125.145H37.8381V124.278H34.8351V117.92H31.6819V121.099H30.9312V121.966H28.5288V121.099H27.778V117.92H23.8741V123.122L22.3726 125.145H18.4687V126.301Z" fill="#7F7F7F"/>
<path d="M18.4687 123.123H3.90413L0.750977 122.545V109.25L3.90413 108.383H18.4687V109.25H22.3726L23.8741 110.695V114.452H27.778V112.14H28.5288V111.562H30.9312V112.14H31.6819V114.452H34.8351V109.828H37.8381V109.25H40.9912V122.545H37.8381V121.678H34.8351V117.342H31.6819V119.654H30.9312V120.233H28.5288V119.654H27.778V117.342H23.8741V121.1L22.3726 122.545H18.4687V123.123Z" fill="#999999"/>
<path d="M18.4685 118.788H3.75374L0.600586 118.499V113.297L3.75374 113.008H18.4685V113.297H22.3724L23.8739 113.875V115.32H27.7778V114.453H28.5285V114.164H30.7808V114.453H31.6817V115.32H34.6847V113.586H37.8378V113.297H40.8408V118.499H37.8378V118.21H34.6847V116.476H31.6817V117.343H30.7808V117.632H28.5285V117.343H27.7778V116.476H23.8739V117.921L22.3724 118.499H18.4685V118.788Z" fill="#B2B2B2"/>
<path d="M18.4686 130.922H3.75391" stroke="black" stroke-width="0.416634"/>
<path d="M23.874 118.788V113.008" stroke="black" stroke-width="0.416634"/>
<path d="M27.7773 113.008V118.788" stroke="black" stroke-width="0.416634"/>
<path d="M28.5283 123.412V108.383" stroke="black" stroke-width="0.416634"/>
<path d="M30.7812 108.383V123.412" stroke="black" stroke-width="0.416634"/>
<path d="M31.6816 118.788V113.008" stroke="black" stroke-width="0.416634"/>
<path d="M34.6846 113.008V118.788" stroke="black" stroke-width="0.416634"/>
<path d="M37.8379 127.746V104.047" stroke="black" stroke-width="0.416634"/>
<path d="M18.4688 129.48V102.602" stroke="black" stroke-width="0.416634"/>
<path d="M3.75391 101.156V130.925" stroke="black" stroke-width="0.416634"/>
<path d="M8.4082 101.156H17.7175V114.451H8.4082V101.156Z" fill="#333333" stroke="black" stroke-width="0.416634"/>
<path d="M7.65723 113.008H18.468V111.562H7.65723V113.008Z" fill="#BFBFBF" stroke="black" stroke-width="0.416634"/>
<path d="M7.65723 110.117H18.468V108.383H7.65723V110.117Z" fill="#BFBFBF" stroke="black" stroke-width="0.416634"/>
<path d="M7.65723 106.937H18.468V105.492H7.65723V106.937Z" fill="#BFBFBF" stroke="black" stroke-width="0.416634"/>
<path d="M7.65723 104.336H18.468V102.891H7.65723V104.336Z" fill="#BFBFBF" stroke="black" stroke-width="0.416634"/>
<path d="M7.65723 102.023H18.468V100.578H7.65723V102.023Z" fill="#BFBFBF" stroke="black" stroke-width="0.416634"/>
<path d="M11.5615 118.789H16.9669V130.928H11.5615V118.789Z" fill="#999999" stroke="black" stroke-width="0.416634"/>
<path d="M11.5615 130.928V118.789H16.9669" stroke="white" stroke-width="0.416634"/>
<path d="M68.7686 74.2812H70.2701V78.6165H68.7686V74.2812Z" fill="#666666"/>
<path d="M74.9248 74.2812H76.4263V78.6165H74.9248V74.2812Z" fill="#666666"/>
<path d="M81.0811 74.2812H82.5826V78.6165H81.0811V74.2812Z" fill="#666666"/>
<path d="M87.2373 74.2812H88.889V78.6165H87.2373V74.2812Z" fill="#666666"/>
<path d="M93.5439 74.2812H95.0454V78.6165H93.5439V74.2812Z" fill="#666666"/>
<path d="M99.6992 74.2812H101.201V78.6165H99.6992V74.2812Z" fill="#666666"/>
<path d="M105.855 74.2812H107.357V78.6165H105.855V74.2812Z" fill="#666666"/>
<path d="M112.012 74.2812H113.513V78.6165H112.012V74.2812Z" fill="#666666"/>
<path d="M118.168 74.2812H119.82V78.6165H118.168V74.2812Z" fill="#666666"/>
<path d="M124.475 74.2812H125.976V78.6165H124.475V74.2812Z" fill="#666666"/>
<path d="M130.631 74.2812H132.132V78.6165H130.631V74.2812Z" fill="#666666"/>
<path d="M136.787 74.2812H138.289V78.6165H136.787V74.2812Z" fill="#666666"/>
<path d="M68.7686 35.5469H70.2701V39.8821H68.7686V35.5469Z" fill="#666666"/>
<path d="M74.9248 35.5469H76.4263V39.8821H74.9248V35.5469Z" fill="#666666"/>
<path d="M81.0811 35.5469H82.5826V39.8821H81.0811V35.5469Z" fill="#666666"/>
<path d="M87.2373 35.5469H88.889V39.8821H87.2373V35.5469Z" fill="#666666"/>
<path d="M93.5439 35.5469H95.0454V39.8821H93.5439V35.5469Z" fill="#666666"/>
<path d="M99.6992 35.5469H101.201V39.8821H99.6992V35.5469Z" fill="#666666"/>
<path d="M105.855 35.5469H107.357V39.8821H105.855V35.5469Z" fill="#666666"/>
<path d="M112.012 35.5469H113.513V39.8821H112.012V35.5469Z" fill="#666666"/>
<path d="M118.168 35.5469H119.82V39.8821H118.168V35.5469Z" fill="#666666"/>
<path d="M124.475 35.5469H125.976V39.8821H124.475V35.5469Z" fill="#666666"/>
<path d="M130.631 35.5469H132.132V39.8821H130.631V35.5469Z" fill="#666666"/>
<path d="M136.787 35.5469H138.289V39.8821H136.787V35.5469Z" fill="#666666"/>
</svg>
