<svg width="150" height="150" viewBox="0 0 150 150" fill="none" xmlns="http://www.w3.org/2000/svg">
<path d="M23.5996 43.2422H126V44.5935H23.5996V43.2422Z" fill="#003333"/>
<path d="M133.6 22.5234H16.4004V43.2442H133.6V22.5234Z" fill="#4C4C4C"/>
<path d="M133.6 22.5234H20V43.2442H133.6V22.5234Z" fill="#666666"/>
<path d="M133.6 22.5234H25.2002V43.2442H133.6V22.5234Z" fill="#7F7F7F"/>
<path d="M133.6 22.5234H32.7998V43.2442H133.6V22.5234Z" fill="#999999"/>
<path d="M8.7998 143.695V149.251H16.3998L23.5998 143.695H126.4L133.6 149.251H140.8V143.695H8.7998Z" fill="#333333"/>
<path d="M1.59961 44.5938H148.4V149.248H140.8L133.6 143.693H16.3996L8.79961 149.248H1.59961V44.5938Z" fill="#E5E5DD" stroke="black" stroke-width="0.490143"/>
<path d="M2.40039 143.397H147.2V91.4453L2.40039 102.857V143.397Z" fill="#DEDED4"/>
<path d="M2.40039 143.395H147.2V101.953L2.40039 113.365V143.395Z" fill="#D4D4C7"/>
<path d="M2.39961 143.39L1.59961 149.246H8.79961L16.3996 143.691H133.6L140.8 149.246H148.4L147.6 143.39V107.805L2.39961 119.366V143.39Z" fill="#CCCCBD"/>
<path d="M45.5996 118.922H104.4V132.736H45.5996V118.922Z" fill="#99997A"/>
<path d="M45.5996 132.735V116.219H104.4V132.735L96.7996 121.624H52.7996L45.5996 132.735Z" fill="#333300"/>
<path d="M45.5996 116.219H104.4V132.735H45.5996V116.219Z" stroke="black" stroke-width="0.490143"/>
<path d="M23.5996 63.8125H43.9996V69.3681H23.5996V63.8125Z" fill="white"/>
<path d="M105.6 63.8125H126.4V69.3681H105.6V63.8125Z" fill="white"/>
<path d="M78.4004 63.8125H98.8004V69.3681H78.4004V63.8125Z" fill="white"/>
<path d="M50.7998 63.8125H71.5998V69.3681H50.7998V63.8125Z" fill="white"/>
<path d="M140.8 39.0391L146 39.94L148.4 41.8919L146 43.8439L140.8 44.5946L135.6 43.8439L133.6 41.8919L135.6 39.94L140.8 39.0391V39.7898L136.8 40.3904L135.2 41.8919L136.8 43.2433L138.8 43.6937H142.8L144.8 43.2433L146 42.6427V41.1412L144.8 40.3904L140.8 39.7898V39.0391Z" fill="#333300"/>
<path d="M8.79961 39.0391L13.9996 39.94L16.3996 41.8919L13.9996 43.8439L8.79961 44.5946L3.59961 43.8439L1.59961 41.8919L3.59961 39.94L8.79961 39.0391V39.7898L4.79961 40.3904L3.19961 41.8919L4.79961 43.2433L6.79961 43.6937H10.7996L12.7996 43.2433L13.9996 42.6427V41.1412L12.7996 40.3904L8.79961 39.7898V39.0391Z" fill="#333300"/>
<path d="M133.6 43.2442V22.5234H43.5996V43.2442H133.6Z" fill="#B2B2B2"/>
<path d="M130 25.2266H120.8V26.7281H130V25.2266Z" fill="#003333"/>
<path d="M115.2 25.2266H106V26.7281H115.2V25.2266Z" fill="#003333"/>
<path d="M100.8 25.2266H91.5996V26.7281H100.8V25.2266Z" fill="#003333"/>
<path d="M85.9998 25.2266H76.7998V26.7281H85.9998V25.2266Z" fill="#003333"/>
<path d="M71.2 25.2266H62V26.7281H71.2V25.2266Z" fill="#003333"/>
<path d="M56.7996 25.2266H47.5996V26.7281H56.7996V25.2266Z" fill="#003333"/>
<path d="M130 36.3359H120.8V37.6873H130V36.3359Z" fill="#003333"/>
<path d="M115.2 36.3359H106V37.6873H115.2V36.3359Z" fill="#003333"/>
<path d="M100.8 36.3359H91.5996V37.6873H100.8V36.3359Z" fill="#003333"/>
<path d="M85.9998 36.3359H76.7998V37.6873H85.9998V36.3359Z" fill="#003333"/>
<path d="M71.2 36.3359H62V37.6873H71.2V36.3359Z" fill="#003333"/>
<path d="M56.7996 36.3359H47.5996V37.6873H56.7996V36.3359Z" fill="#003333"/>
<path d="M130 39.0391H120.8V40.3904H130V39.0391Z" fill="#003333"/>
<path d="M115.2 39.0391H106V40.3904H115.2V39.0391Z" fill="#003333"/>
<path d="M100.8 39.0391H91.5996V40.3904H100.8V39.0391Z" fill="#003333"/>
<path d="M85.9998 39.0391H76.7998V40.3904H85.9998V39.0391Z" fill="#003333"/>
<path d="M71.2 39.0391H62V40.3904H71.2V39.0391Z" fill="#003333"/>
<path d="M56.7996 39.0391H47.5996V40.3904H56.7996V39.0391Z" fill="#003333"/>
<path d="M130 33.6328H120.8V34.9842H130V33.6328Z" fill="#003333"/>
<path d="M115.2 33.6328H106V34.9842H115.2V33.6328Z" fill="#003333"/>
<path d="M100.8 33.6328H91.5996V34.9842H100.8V33.6328Z" fill="#003333"/>
<path d="M85.9998 33.6328H76.7998V34.9842H85.9998V33.6328Z" fill="#003333"/>
<path d="M71.2 33.6328H62V34.9842H71.2V33.6328Z" fill="#003333"/>
<path d="M56.7996 33.6328H47.5996V34.9842H56.7996V33.6328Z" fill="#003333"/>
<path d="M130 30.7812H120.8V32.1326H130V30.7812Z" fill="#003333"/>
<path d="M115.2 30.7812H106V32.1326H115.2V30.7812Z" fill="#003333"/>
<path d="M100.8 30.7812H91.5996V32.1326H100.8V30.7812Z" fill="#003333"/>
<path d="M85.9998 30.7812H76.7998V32.1326H85.9998V30.7812Z" fill="#003333"/>
<path d="M71.2 30.7812H62V32.1326H71.2V30.7812Z" fill="#003333"/>
<path d="M56.7996 30.7812H47.5996V32.1326H56.7996V30.7812Z" fill="#003333"/>
<path d="M130 28.0781H120.8V29.4295H130V28.0781Z" fill="#003333"/>
<path d="M115.2 28.0781H106V29.4295H115.2V28.0781Z" fill="#003333"/>
<path d="M100.8 28.0781H91.5996V29.4295H100.8V28.0781Z" fill="#003333"/>
<path d="M85.9998 28.0781H76.7998V29.4295H85.9998V28.0781Z" fill="#003333"/>
<path d="M71.2 28.0781H62V29.4295H71.2V28.0781Z" fill="#003333"/>
<path d="M56.7996 28.0781H47.5996V29.4295H56.7996V28.0781Z" fill="#003333"/>
<path d="M16.4004 22.5234H133.6V43.2442H16.4004V22.5234Z" stroke="black" stroke-width="0.490143"/>
<path d="M38.4004 0.601562H74.8004V22.6736H38.4004V0.601562Z" fill="#4C4C4C" stroke="black" stroke-width="0.490143"/>
<path d="M42 0.601562H71.2V22.6736H42V0.601562Z" fill="#666666"/>
<path d="M47.5996 0.601562H65.5996V22.6736H47.5996V0.601562Z" fill="#999999"/>
<path d="M52.7998 0.601562H60.3998V22.6736H52.7998V0.601562Z" fill="#B2B2B2"/>
<path d="M1.59961 143.695V149.251H8.79961L16.3996 143.695H133.6L140.8 149.251H148.4V143.695" stroke="black" stroke-width="0.490143"/>
</svg>
