<svg width="150" height="150" viewBox="0 0 150 150" fill="none" xmlns="http://www.w3.org/2000/svg">
<g clip-path="url(#clip0_2109_204731)">
<path d="M59.8964 0L45.0518 35.5856L0 65.015V104.354L29.8619 123.874V150H119.965V123.874L150 104.354V65.015L105.121 35.5856L89.931 0H59.8964Z" fill="#00FFFF" stroke="black" stroke-width="0.32198"/>
<path d="M29.8623 123.871V45.4922" stroke="black" stroke-width="0.32198"/>
<path d="M119.966 123.871V45.4922" stroke="black" stroke-width="0.32198"/>
<path d="M71.2891 32.5859H78.884" stroke="black" stroke-width="0.32198"/>
<path d="M56.7891 34.9815L64.0388 33.1797" stroke="black" stroke-width="0.32198"/>
<path d="M43.6709 40.6939L50.2302 37.3906" stroke="black" stroke-width="0.32198"/>
<path d="M32.624 49.0983L37.8024 44.5938" stroke="black" stroke-width="0.32198"/>
<path d="M24.3379 59.6085L28.1354 54.2031" stroke="black" stroke-width="0.32198"/>
<path d="M19.5049 71.9235L21.5762 65.6172" stroke="black" stroke-width="0.32198"/>
<path d="M18.8145 84.5329V78.2266" stroke="black" stroke-width="0.32198"/>
<path d="M21.5762 97.1501L19.5049 90.8438" stroke="black" stroke-width="0.32198"/>
<path d="M28.1354 108.562L24.3379 103.156" stroke="black" stroke-width="0.32198"/>
<path d="M37.8024 118.169L32.624 113.664" stroke="black" stroke-width="0.32198"/>
<path d="M49.8849 125.374L43.6709 122.07" stroke="black" stroke-width="0.32198"/>
<path d="M64.0388 129.583L56.7891 127.781" stroke="black" stroke-width="0.32198"/>
<path d="M78.5388 130.484H71.2891" stroke="black" stroke-width="0.32198"/>
<path d="M93.0378 127.781L85.7881 129.583" stroke="black" stroke-width="0.32198"/>
<path d="M106.156 122.07L99.9424 125.374" stroke="black" stroke-width="0.32198"/>
<path d="M117.204 113.664L112.025 118.469" stroke="black" stroke-width="0.32198"/>
<path d="M125.489 103.156L121.691 108.862" stroke="black" stroke-width="0.32198"/>
<path d="M130.322 90.8438L128.251 97.1501" stroke="black" stroke-width="0.32198"/>
<path d="M131.357 78.2266V84.8332" stroke="black" stroke-width="0.32198"/>
<path d="M128.251 65.6172L130.322 71.9235" stroke="black" stroke-width="0.32198"/>
<path d="M121.691 54.2031L125.489 59.9088" stroke="black" stroke-width="0.32198"/>
<path d="M112.025 44.5938L117.549 49.0983" stroke="black" stroke-width="0.32198"/>
<path d="M99.9424 37.3906L106.502 40.6939" stroke="black" stroke-width="0.32198"/>
<path d="M85.7881 33.1797L93.0378 34.9815" stroke="black" stroke-width="0.32198"/>
</g>
<defs>
<clipPath id="clip0_2109_204731">
<rect width="150" height="150" fill="white"/>
</clipPath>
</defs>
</svg>
