<svg width="150" height="150" viewBox="0 0 150 150" fill="none" xmlns="http://www.w3.org/2000/svg">
<path d="M3.75391 141.946V135.438H146.096V141.946H3.75391Z" fill="#000099"/>
<path d="M126.126 129.238H15.3154V78.1017L15.4656 75.0025L16.3665 65.705L18.3184 57.3372L21.3214 50.2091L24.925 44.6306L29.1292 40.9116L105.706 4.03144L109.91 1.86202L110.661 1.5521L111.412 1.24219H112.012L116.967 2.79177L121.622 6.8207L125.826 13.329L128.679 19.5273L131.081 26.9653L133.183 35.3331L134.835 44.3207L136.036 54.2381L136.637 64.4653L136.787 68.1843V71.5934V75.9323L136.036 88.329L134.685 100.416L132.433 111.263L129.58 121.18L127.327 126.759L126.126 129.238Z" fill="#0000CC" stroke="black" stroke-width="0.431435"/>
<path d="M9.91016 129.238V110.023H82.5828V129.238H9.91016Z" fill="#0000E5" stroke="black" stroke-width="0.431435"/>
<path d="M0.600586 148.454V141.945H149.249V148.454H0.600586Z" fill="#0000FF" stroke="black" stroke-width="0.431435"/>
<path d="M0.600586 135.433V129.234H149.249V135.433H0.600586Z" fill="#0000FF" stroke="black" stroke-width="0.431435"/>
<path d="M126.727 50.8265L136.787 36.5703L138.288 41.2191L126.727 57.3348V50.8265Z" fill="#0000FF" stroke="black" stroke-width="0.431435"/>
<path d="M124.475 92.355H126.727V79.6484H129.129V97.3137H124.475V92.355Z" fill="#0000FF" stroke="black" stroke-width="0.431435"/>
<path d="M129.129 122.727H138.438V116.219H129.129V122.727Z" fill="#0000FF" stroke="black" stroke-width="0.431435"/>
<path d="M85.7354 110.023H125.976V121.18H85.7354V110.023Z" fill="#000099" stroke="black" stroke-width="0.431435"/>
<path d="M82.583 106.922V129.236H129.13V106.922H125.976V122.728H85.7362V106.922H82.583Z" fill="#0000FF" stroke="black" stroke-width="0.431435"/>
<path d="M81.231 48.9643L80.3301 44.6255L81.231 39.9767L83.3331 38.1172H126.726V44.6255H86.4862L85.5853 48.9643L83.3331 50.8238L81.231 48.9643Z" fill="#0000FF" stroke="black" stroke-width="0.431435"/>
<path d="M82.2825 46.7973L81.832 44.6278L82.2825 42.1485L83.4837 41.2188L84.5347 42.1485L84.9852 44.6278L84.5347 46.7973L83.4837 47.727L82.2825 46.7973Z" fill="#000099"/>
<path d="M124.475 83.9852H126.727V71.8984H124.475V83.9852Z" fill="#0000E5" stroke="black" stroke-width="0.431435"/>
<path d="M124.475 61.3654H126.727V48.9688H124.475V61.3654Z" fill="#0000E5" stroke="black" stroke-width="0.431435"/>
<path d="M87.2373 106.923V46.1797H124.475V106.923H87.2373Z" fill="#0000E5" stroke="black" stroke-width="0.431435"/>
<path d="M99.6992 55.7817H112.012V49.2734H99.6992V55.7817Z" fill="#0000FF" stroke="black" stroke-width="0.431435"/>
<path d="M81.231 48.9643L80.3301 44.6255L81.231 39.9767L83.3331 38.1172H126.726" stroke="#ABABFF" stroke-width="0.431435"/>
<path d="M99.6992 55.7817V49.2734H112.012" stroke="#ABABFF" stroke-width="0.431435"/>
<path d="M87.2373 106.923V46.1797H124.475" stroke="#ABABFF" stroke-width="0.431435"/>
<path d="M9.91016 129.238V110.023H82.5828" stroke="#ABABFF" stroke-width="0.431435"/>
<path d="M19.2188 127.688H43.9935V129.237H19.2188V127.688Z" fill="black"/>
<path d="M19.2188 127.683V57.3313H37.8374V49.2734H43.9935V127.683H19.2188Z" fill="#FF7F00" stroke="black" stroke-width="0.431435"/>
<path d="M31.6816 105.059H35.4354V79.3359H31.6816V105.059Z" fill="#333333"/>
<path d="M24.7749 97.0008L23.874 92.352L24.7749 87.7033L27.0272 85.8438L29.2794 87.7033L30.1803 92.352L29.2794 97.0008L27.0272 98.8603L24.7749 97.0008Z" fill="#333333"/>
<path d="M24.7749 97.0008L23.874 92.352L24.7749 87.7033L27.0272 85.8438L29.2794 87.7033" stroke="white" stroke-width="0.431435"/>
<path d="M19.2188 127.377V57.3359H43.9935" stroke="white" stroke-width="0.431435"/>
<path d="M37.8379 57.3313V49.2734H43.994" stroke="white" stroke-width="0.431435"/>
<path d="M85.7354 110.021H125.976V106.922H85.7354V110.021Z" fill="#0000FF" stroke="black" stroke-width="0.431435"/>
<path d="M118.168 118.078H122.823V122.727H118.168V118.078Z" fill="#0000CC" stroke="black" stroke-width="0.431435"/>
<path d="M103.604 118.078H108.258V122.727H103.604V118.078Z" fill="#0000CC" stroke="black" stroke-width="0.431435"/>
<path d="M118.168 118.078H122.823V122.727H118.168V118.078Z" fill="#0000CC" stroke="black" stroke-width="0.431435"/>
<path d="M103.604 118.078H108.258V122.727H103.604V118.078Z" fill="#0000CC" stroke="black" stroke-width="0.431435"/>
<path d="M88.8887 118.078H93.5433V122.727H88.8887V118.078Z" fill="#0000CC" stroke="black" stroke-width="0.431435"/>
<path d="M119.82 118.078H121.322V122.727H119.82V118.078Z" fill="#7F7FFF"/>
<path d="M105.105 118.078H106.607V122.727H105.105V118.078Z" fill="#7F7FFF"/>
<path d="M90.3906 118.078H91.8921V122.727H90.3906V118.078Z" fill="#7F7FFF"/>
</svg>
