<svg width="150" height="150" viewBox="0 0 150 150" fill="none" xmlns="http://www.w3.org/2000/svg">
<g clip-path="url(#clip0_2109_203287)">
<path d="M59.9102 92.9142H60.6609V91.2422H59.9102V92.9142Z" fill="#E0E0E0" stroke="black" stroke-width="0.378755"/>
<path d="M34.835 92.9142H35.5857V91.2422H34.835V92.9142Z" fill="#E0E0E0" stroke="black" stroke-width="0.378755"/>
<path d="M36.4868 92.9142H35.5859V91.2422H36.4868V92.9142Z" fill="#F0F0F0" stroke="black" stroke-width="0.378755"/>
<path d="M61.562 92.9142H60.6611V91.2422H61.562V92.9142Z" fill="#F0F0F0" stroke="black" stroke-width="0.378755"/>
<path d="M61.5611 90.7656H60.6602V91.2433H61.5611V90.7656Z" fill="#7F7F7F" stroke="black" stroke-width="0.378755"/>
<path d="M61.5615 92.9142H62.1621V91.2422H61.5615V92.9142Z" fill="#7F7F7F" stroke="black" stroke-width="0.378755"/>
<path d="M36.7871 90.7656H35.5859V91.2433H36.7871V90.7656Z" fill="#7F7F7F" stroke="black" stroke-width="0.378755"/>
<path d="M36.4863 92.9142H37.0869V91.2422H36.4863V92.9142Z" fill="#7F7F7F" stroke="black" stroke-width="0.378755"/>
<path d="M82.4328 131.85H82.1325V133.283H13.0635V108.203H82.4328V131.85Z" fill="#0000AD" stroke="black" stroke-width="0.378755"/>
<path d="M0.450195 131.844H11.4112V149.041H0.450195V131.844Z" fill="#7F7FFF" stroke="black" stroke-width="0.378755"/>
<path d="M21.0208 133.758H18.7686V147.134H21.0208V133.758Z" fill="#7F7FFF" stroke="black" stroke-width="0.378755"/>
<path d="M75.3753 133.758H73.123V147.134H75.3753V133.758Z" fill="#7F7FFF" stroke="black" stroke-width="0.378755"/>
<path d="M82.1318 131.844H93.0928V149.041H82.1318V131.844Z" fill="#7F7FFF" stroke="black" stroke-width="0.378755"/>
<path d="M70.5703 133.283H72.8226V108.203H70.5703V133.283Z" fill="#7F7FFF" stroke="black" stroke-width="0.378755"/>
<path d="M47.4473 133.283H49.6995V108.203H47.4473V133.283Z" fill="#7F7FFF" stroke="black" stroke-width="0.378755"/>
<path d="M22.9727 133.283H25.2249V108.203H22.9727V133.283Z" fill="#7F7FFF" stroke="black" stroke-width="0.378755"/>
<path d="M20.7207 104.141H74.7748V108.201H20.7207V104.141Z" fill="#7F7FFF" stroke="black" stroke-width="0.378755"/>
<path d="M48.6488 65.6875L50.901 66.1652L53.1533 67.3595L55.1052 68.7926L57.0572 71.42L58.4085 73.8085L59.3095 76.9136L60.3605 80.4964V88.1397L59.3095 91.7225L59.0091 92.9168H62.9131V104.143H34.2344V92.9168H38.1383L37.838 91.7225L36.7869 88.1397V80.4964L37.838 76.9136L38.7389 73.8085L40.3905 71.42L41.892 68.7926L43.844 67.3595L46.0962 66.1652L48.6488 65.6875Z" fill="#7F7FFF" stroke="black" stroke-width="0.378755"/>
<path d="M109.76 100.078H144.294L149.399 137.339H115.015L109.76 100.078Z" fill="#7F7FFF" stroke="black" stroke-width="0.378755"/>
<path d="M42.3421 5.49582H41.291V2.86843L41.8916 1.19646L42.9427 0.71875H43.5433H44.5943L45.1949 1.19646L45.7955 2.86843V5.49582H44.8946V3.34614L44.5943 2.86843L43.8436 2.39072H43.5433H43.243L42.6424 2.86843L42.3421 3.34614V5.49582Z" fill="#7F7FFF" stroke="black" stroke-width="0.378755"/>
<path d="M145.195 107.722L144.895 104.617H149.399V107.722H145.195Z" fill="#0000FF" stroke="black" stroke-width="0.378755"/>
<path d="M148.348 130.175L148.048 127.07H149.399V130.175H148.348Z" fill="#0000FF" stroke="black" stroke-width="0.378755"/>
<path d="M131.381 102.469H132.582V134.236H131.381V102.469Z" fill="#0000FF" stroke="black" stroke-width="0.378755"/>
<path d="M109.76 100.078H111.411L116.517 137.339H115.015L109.76 100.078Z" fill="#0000FF" stroke="black" stroke-width="0.378755"/>
<path d="M149.099 134.711H114.564L115.015 137.338H149.399L149.099 134.711Z" fill="#0000FF" stroke="black" stroke-width="0.378755"/>
<path d="M82.4326 131.848H93.0933V133.281H114.264L110.511 104.141H82.4326V131.848Z" fill="#0000FF" stroke="black" stroke-width="0.378755"/>
<path d="M60.3606 84.5547V88.1375L59.6099 91.7203L59.0093 92.9146H62.9132V104.141H34.2345V92.9146H38.1384L37.8381 91.7203L37.0874 88.1375L36.7871 84.5547H28.8291V104.141H74.775V107.723H82.4327V104.141H110.21L107.958 84.5547H60.3606Z" fill="#0000FF" stroke="black" stroke-width="0.378755"/>
<path d="M48.6489 65.6833L50.9012 66.161L53.1534 67.3552L55.1054 68.7884L57.0573 71.4158L58.4087 73.8043L59.3096 76.9094V5.49219H28.8291V84.5527H36.7871V80.4922L37.8381 76.9094L38.739 73.8043L40.3907 71.4158L41.8922 68.7884L43.8441 67.3552L46.0964 66.161L48.6489 65.6833Z" fill="#0000FF" stroke="black" stroke-width="0.378755"/>
<path d="M13.0635 112.737H28.8292V5.49219H26.2767L13.0635 63.7724V112.737Z" fill="#0000FF" stroke="black" stroke-width="0.378755"/>
<path d="M82.1319 133.758H11.4111V147.134H82.1319V133.758Z" fill="#0000FF" stroke="black" stroke-width="0.378755"/>
<path d="M48.4982 96.9736C52.8104 96.9736 56.306 91.4128 56.306 84.5532C56.306 77.6936 52.8104 72.1328 48.4982 72.1328C44.1861 72.1328 40.6904 77.6936 40.6904 84.5532C40.6904 91.4128 44.1861 96.9736 48.4982 96.9736Z" fill="#CCCCCC" stroke="black" stroke-width="0.378755"/>
<path d="M59.3096 48.2479H28.8291V45.8594H59.3096V48.2479Z" fill="#7F7FFF" stroke="black" stroke-width="0.378755"/>
<path d="M77.3276 84.0767L76.727 75.478L75.0753 66.6404L72.5228 58.9971L68.9192 51.8315L64.4147 46.3379L59.6099 42.2774L59.3096 39.65L59.6099 39.8888L60.3606 40.6054V38.2169L59.3096 37.0226V32.9621L59.6099 32.4844L73.4237 47.2933L72.2225 50.3984L70.2705 48.2487L68.9192 49.443L70.1204 51.3538L71.3216 53.5035L72.5228 55.892L73.4237 58.0417L74.3246 56.1309H74.4747L74.0243 53.9812L73.4237 51.8315L74.775 50.8761L75.3756 50.3984L76.2765 53.5035L77.1774 56.6086L78.0783 59.4748L78.9792 62.5799L79.8801 65.685L80.781 68.7901L81.6819 71.8952L82.4327 75.0003L81.2315 75.7169L80.1804 76.4334L79.73 74.5226L79.2795 72.8506L77.9282 72.3729H77.6279L77.9282 74.5226L78.3786 77.15L78.5288 79.5385L78.6789 82.4048V83.599L79.8801 82.6436L80.1804 80.0162V78.5831L81.8321 78.822L82.4327 79.0608H82.8831L82.733 79.5385L82.4327 82.4048L82.2825 83.8379L82.1324 84.5544L77.3276 84.0767Z" fill="#7F7F7F" stroke="black" stroke-width="0.378755"/>
<path d="M48.4983 85.9846C49.0788 85.9846 49.5494 85.236 49.5494 84.3126C49.5494 83.3892 49.0788 82.6406 48.4983 82.6406C47.9178 82.6406 47.4473 83.3892 47.4473 84.3126C47.4473 85.236 47.9178 85.9846 48.4983 85.9846Z" fill="#7F7F7F" stroke="black" stroke-width="0.378755"/>
<path d="M60.3606 84.0728H77.3276L76.727 75.4741L75.0753 66.6365L72.5228 58.9932L68.9192 52.5441L64.4147 46.3339L59.6099 42.2734H59.3096V45.8562V48.2448V76.9072H59.6099L60.3606 80.49V84.0728Z" fill="#4C4C4C" stroke="black" stroke-width="0.378755"/>
</g>
<defs>
<clipPath id="clip0_2109_203287">
<rect width="150" height="150" fill="white"/>
</clipPath>
</defs>
</svg>
