<svg width="150" height="150" viewBox="0 0 150 150" fill="none" xmlns="http://www.w3.org/2000/svg">
<path d="M36.1395 125.078L19.041 147.45H23.3156L38.4711 130.033H102.59L117.746 147.45H122.02L104.922 125.078H36.1395Z" fill="#F2F2F2" stroke="black" stroke-width="0.483109"/>
<path d="M51.2953 134.983V100.148H89.7668V134.983H98.316V138.287H89.7668V141.59H51.2953V138.287H42.7461V134.983H51.2953Z" fill="#B2E5E5" stroke="black" stroke-width="0.483109"/>
<path d="M62.1761 113.517L51.2953 112.616L42.7461 109.312L31.8652 113.517L51.2953 121.024V126.73H89.7668V113.517L79.2746 112.616L62.1761 113.517Z" fill="#4C4C4C" stroke="black" stroke-width="0.483109"/>
<path d="M62.1765 4.05469H1.94336V37.2379L53.6273 57.0577V100.151H62.1765V4.05469Z" fill="#B2E5E5" stroke="black" stroke-width="0.483109"/>
<path d="M19.041 7.35938V27.1792L96.3726 57.0591V63.6657H122.02V52.1041H130.57V53.7558H134.844V50.4525L143.393 47.1492L145.725 48.0501L147.668 47.1492L139.119 43.8459L137.176 44.5966L139.119 45.4975L134.844 47.1492V43.8459H130.57V45.4975H122.02V7.35938H19.041Z" fill="#B2E5E5" stroke="black" stroke-width="0.483109"/>
<path d="M53.2383 0.75H87.8238V7.35661H53.2383V0.75Z" fill="#B2E5E5" stroke="black" stroke-width="0.483109"/>
<path d="M23.3164 28.8281L96.3734 57.0564V60.3597H122.021V28.8281H23.3164Z" fill="#4C4C4C"/>
<path d="M61.7871 27.1797H79.2742V126.729H61.7871V27.1797Z" fill="#F2F2F2" stroke="black" stroke-width="0.483109"/>
<path d="M79.2742 50.4504L62.1758 43.8438" stroke="black" stroke-width="0.483109"/>
<path d="M96.373 60.3594L122.021 63.6627" stroke="black" stroke-width="0.483109"/>
<path d="M122.021 60.3594L96.373 63.6627" stroke="black" stroke-width="0.483109"/>
<path d="M130.57 52.0988V45.4922" stroke="black" stroke-width="0.483109"/>
<path d="M134.845 47.1484V50.4517" stroke="black" stroke-width="0.483109"/>
<path d="M143.394 47.1438L139.119 45.4922" stroke="black" stroke-width="0.483109"/>
<path d="M23.3164 113.665L43.1351 106.008L47.0211 107.359L26.8138 115.167L23.3164 113.665Z" fill="#F2F2F2" stroke="black" stroke-width="0.483109"/>
<path d="M89.7666 126.726L109.197 119.218L113.471 120.87L117.746 119.218L98.3158 111.711L94.0412 113.513L98.3158 115.164L89.7666 118.468V126.726Z" fill="white" stroke="black" stroke-width="0.483109"/>
<path d="M109.197 119.218L98.3164 115.164" stroke="black" stroke-width="0.483109"/>
<path d="M51.2949 112.609V121.018" stroke="black" stroke-width="0.483109"/>
<path d="M51.2949 134.984H89.7664" stroke="black" stroke-width="0.483109"/>
<path d="M51.2949 138.289H89.7664" stroke="black" stroke-width="0.483109"/>
<path d="M42.7461 136.633H98.316" stroke="black" stroke-width="0.483109"/>
<path d="M64.1191 133.336H76.943V134.988H64.1191V133.336Z" stroke="black" stroke-width="0.483109"/>
<path d="M64.1191 141.594H76.943V143.245H64.1191V141.594Z" fill="#B2E5E5" stroke="black" stroke-width="0.483109"/>
<path d="M17.0986 147.445H25.6479V149.097H17.0986V147.445Z" fill="#E5E5E5" stroke="black" stroke-width="0.483109"/>
<path d="M115.414 147.445H124.352V149.097H115.414V147.445Z" fill="#E5E5E5" stroke="black" stroke-width="0.483109"/>
</svg>
