<svg width="150" height="150" viewBox="0 0 150 150" fill="none" xmlns="http://www.w3.org/2000/svg">
<path d="M75.0003 112.64C110.257 112.64 138.838 89.4513 138.838 60.8471C138.838 32.243 110.257 9.05469 75.0003 9.05469C39.744 9.05469 11.1631 32.243 11.1631 60.8471C11.1631 89.4513 39.744 112.64 75.0003 112.64Z" fill="#CCCCCC" stroke="black" stroke-width="0.628419"/>
<path d="M80.9297 60.8516V117.455L83.3715 145.757H141.976L144.767 117.455V60.8516H80.9297Z" fill="#BFBFBF"/>
<path d="M5.23242 117.454V79.8125H74.9999V117.454H5.23242Z" fill="#BFBFBF"/>
<path d="M74.9999 4.24219V41.8837H5.23242V4.24219H74.9999Z" fill="#BFBFBF"/>
<path d="M88.6045 60.8516V117.455L90.6975 145.757H134.651L136.744 117.455V60.8516H88.6045Z" fill="#D9D9D9"/>
<path d="M5.23242 112.638V84.3359H74.9999V112.638H5.23242Z" fill="#D9D9D9"/>
<path d="M74.9999 9.05469V37.3566H5.23242V9.05469H74.9999Z" fill="#D9D9D9"/>
<path d="M96.9766 60.8516V117.455L98.0231 145.757H127.325L128.721 117.455V60.8516H96.9766Z" fill="#E5E5E5"/>
<path d="M5.23242 108.111V89.1484H74.9999V108.111H5.23242Z" fill="#E5E5E5"/>
<path d="M74.9999 13.5859V32.5482H5.23242V13.5859H74.9999Z" fill="#E5E5E5"/>
<path d="M104.651 60.8516V117.455L105.349 145.757H120L120.698 117.455V60.8516H104.651Z" fill="#F2F2F2"/>
<path d="M74.9999 18.3984V27.7381H5.23242V18.3984H74.9999Z" fill="#F2F2F2"/>
<path d="M5.23242 103.301V93.9609H74.9999V103.301H5.23242Z" fill="#F2F2F2"/>
<path d="M80.9297 117.453H144.767" stroke="black" stroke-width="0.628419"/>
<path d="M80.9297 60.8516V117.455L83.3715 145.757H141.976L144.767 117.455V60.8516H80.9297Z" stroke="black" stroke-width="0.628419"/>
<path d="M5.23242 117.454V79.8125H74.9999V117.454H5.23242Z" stroke="black" stroke-width="0.628419"/>
<path d="M74.9999 4.24219V41.8837H5.23242V4.24219H74.9999Z" stroke="black" stroke-width="0.628419"/>
<path d="M74.9999 89.1507C94.2657 89.1507 109.884 76.4795 109.884 60.8488C109.884 45.2181 94.2657 32.5469 74.9999 32.5469C55.7342 32.5469 40.1162 45.2181 40.1162 60.8488C40.1162 76.4795 55.7342 89.1507 74.9999 89.1507Z" fill="#CCCCCC" stroke="black" stroke-width="0.628419"/>
<path d="M74.9997 82.0778C89.449 82.0778 101.162 72.5744 101.162 60.8514C101.162 49.1284 89.449 39.625 74.9997 39.625C60.5504 39.625 48.8369 49.1284 48.8369 60.8514C48.8369 72.5744 60.5504 82.0778 74.9997 82.0778Z" fill="#E5E5E5" stroke="black" stroke-width="0.628419"/>
</svg>
