<svg width="150" height="150" viewBox="0 0 150 150" fill="none" xmlns="http://www.w3.org/2000/svg">
<g clip-path="url(#clip0_2109_202290)">
<path d="M122.373 75.4688L131.081 83.9593L123.874 91.3493V106.129H108.108V91.3493L122.373 75.4688Z" fill="#336666" stroke="black" stroke-width="0.307301"/>
<path d="M7.05664 139.305H146.096V149.21H7.05664V139.305Z" fill="#B2E5E5" stroke="black" stroke-width="0.307301"/>
<path d="M13.3633 139.306L22.8227 129.4H18.7687V102.828H22.8227L130.33 129.4L139.64 139.306H13.3633Z" fill="#4C7F7F" stroke="black" stroke-width="0.307301"/>
<path d="M22.8232 132.703V76.4141H92.3428V132.703H22.8232Z" fill="#99CCCC" stroke="black" stroke-width="0.307301"/>
<path d="M105.856 101.886L101.802 91.3512L105.856 80.6593L116.066 76.4141L126.276 80.6593L130.33 91.3512L126.276 101.886L116.066 106.131L105.856 101.886Z" fill="#669999" stroke="black" stroke-width="0.307301"/>
<path d="M108.108 99.5301L104.955 91.354L108.108 83.0206L116.066 79.7188L123.874 83.0206L127.177 91.354L123.874 99.5301L116.066 102.832L108.108 99.5301Z" fill="#7FB2B2"/>
<path d="M110.511 97.1666L108.108 91.349L110.511 85.3741L116.066 83.0156L121.622 85.3741L123.874 91.349L121.622 97.1666L116.066 99.5251L110.511 97.1666Z" fill="#194C4C"/>
<path d="M116.066 99.5251V83.0156" stroke="#7FB2B2" stroke-width="0.307301"/>
<path d="M123.874 91.3516H108.108" stroke="#7FB2B2" stroke-width="0.307301"/>
<path d="M121.622 97.1665L110.511 85.5312" stroke="#7FB2B2" stroke-width="0.307301"/>
<path d="M121.622 85.5312L110.511 97.1665" stroke="#7FB2B2" stroke-width="0.307301"/>
<path d="M33.7842 71.3828H81.2316V73.1124H33.7842V71.3828Z" fill="#4C4C4C"/>
<path d="M92.3428 129.406H130.331V109.438H92.3428V129.406Z" fill="#669999" stroke="black" stroke-width="0.307301"/>
<path d="M92.3428 109.431V106.129H139.64L146.097 83.0156H149.1L142.793 109.431H92.3428Z" fill="#99CCCC" stroke="black" stroke-width="0.307301"/>
<path d="M112.012 0.789062L93.9941 71.0721L96.9971 71.8582L98.6488 65.5689L132.282 74.8457L148.499 11.0092L112.012 0.789062Z" fill="#99CCCC" stroke="black" stroke-width="0.307301"/>
<path d="M132.883 33.964L129.58 46.6999L114.265 42.4546L117.568 29.7188L132.883 33.964Z" fill="#F2F2F2"/>
<path d="M131.832 34.5889L128.979 45.7524L127.478 45.2807L130.481 34.1172L131.832 34.5889Z" fill="#FF0000"/>
<path d="M101.802 76.4135V73.1116H98.6486V69.8097L95.4954 66.5078L92.3423 69.8097V73.1116H13.3633V76.4135H101.802Z" fill="#B2E5E5" stroke="black" stroke-width="0.307301"/>
<path d="M12.4629 96.2266H16.5169V136.006H12.4629V96.2266Z" fill="#7F7F7F"/>
<path d="M12.4629 101.258H16.5169V130.975H12.4629V101.258Z" fill="#999999"/>
<path d="M12.4629 102.828H16.5169V129.4H12.4629V102.828Z" fill="#B2B2B2"/>
<path d="M12.4629 107.234H16.5169V124.844H12.4629V107.234Z" fill="#CCCCCC"/>
<path d="M12.4629 112.734H16.5169V119.338H12.4629V112.734Z" fill="#F2F2F2"/>
<path d="M12.4629 96.2266H16.5169V136.006H12.4629V96.2266Z" stroke="black" stroke-width="0.307301"/>
<path d="M0.750977 128.461H12.4627V133.492H0.750977V128.461Z" fill="#7F7F7F"/>
<path d="M0.750977 129.406H12.4627V132.708H0.750977V129.406Z" fill="#B2B2B2"/>
<path d="M0.750977 130.344H12.4627V131.602H0.750977V130.344Z" fill="#E5E5E5"/>
<path d="M0.750977 128.461H12.4627V133.492H0.750977V128.461Z" stroke="black" stroke-width="0.307301"/>
<path d="M16.5166 113.68H18.7689V118.554H16.5166V113.68Z" fill="#194C4C"/>
<path d="M32.2822 83.0156H47.2972V92.9213H32.2822V83.0156Z" fill="#669999" stroke="#336666" stroke-width="0.307301"/>
<path d="M32.2822 92.9213V83.0156H47.2972" stroke="#B2E5E5" stroke-width="0.307301"/>
<path d="M27.4775 92.9219H47.2974V114.463H27.4775V92.9219Z" fill="#7FB2B2" stroke="#336666" stroke-width="0.307301"/>
<path d="M37.0869 94.6562L33.0328 95.4424L29.1289 97.9581V102.046L33.0328 99.5305L37.0869 98.7443L40.9908 99.5305L45.7956 102.046V97.9581L40.9908 95.4424L37.0869 94.6562Z" fill="#F2F2F2" stroke="#194C4C" stroke-width="0.307301"/>
<path d="M27.4775 114.463V92.9219H47.2974" stroke="#B2E5E5" stroke-width="0.307301"/>
<path d="M63.9639 124.214L61.5615 117.768L63.9639 111.321L70.2702 108.648L76.4264 111.321L78.8288 117.768L76.4264 124.214L70.2702 126.887L63.9639 124.214Z" fill="#7FB2B2" stroke="#336666" stroke-width="0.307301"/>
<path d="M64.7148 112.734H82.883V122.797H64.7148V112.734Z" fill="#B2E5E5"/>
<path d="M82.883 112.734H64.7148V122.797H82.883" stroke="#336666" stroke-width="0.307301"/>
<path d="M88.2881 91.3516V120.282H125.525V117.767H91.5914L94.5944 91.3516H88.2881Z" fill="#7FB2B2" stroke="black" stroke-width="0.307301"/>
<path d="M73.4238 83.0156H86.0364V94.6508H73.4238V83.0156Z" fill="#7FB2B2" stroke="#336666" stroke-width="0.307301"/>
<path d="M74.1738 86.3223H85.2849V84.75H86.7864V86.3223H88.438V84.75H89.9395V86.3223H91.5912V84.75H93.0927V86.3223H94.7443V84.75H96.2458V86.3223H97.8975V88.0519H99.399V89.6242H97.8975V91.3538H96.2458V92.9261H94.7443V91.3538H93.0927V92.9261H91.5912V91.3538H89.9395V92.9261H88.438V91.3538H86.7864V92.9261H85.2849V91.3538H74.1738V89.6242H47.2969V88.0519H74.1738V86.3223Z" fill="#99CCCC"/>
<path d="M73.2729 90.5685C87.619 90.5685 99.2488 89.7941 99.2488 88.8389C99.2488 87.8837 87.619 87.1094 73.2729 87.1094C58.9267 87.1094 47.2969 87.8837 47.2969 88.8389C47.2969 89.7941 58.9267 90.5685 73.2729 90.5685Z" fill="#BFF2F2"/>
<path d="M74.1738 86.3223H85.2849V84.75H86.7864V86.3223H88.438V84.75H89.9395V86.3223H91.5912V84.75H93.0927V86.3223H94.7443V84.75H96.2458V86.3223H97.8975V88.0519H99.399V89.6242H97.8975V91.3538H96.2458V92.9261H94.7443V91.3538H93.0927V92.9261H91.5912V91.3538H89.9395V92.9261H88.438V91.3538H86.7864V92.9261H85.2849V91.3538H74.1738V89.6242H47.2969V88.0519H74.1738V86.3223Z" stroke="black" stroke-width="0.307301"/>
<path d="M74.1738 89.6192V88.0469" stroke="black" stroke-width="0.307301"/>
<path d="M85.2852 91.3518V86.3203" stroke="black" stroke-width="0.307301"/>
<path d="M86.7871 91.3518V86.3203" stroke="black" stroke-width="0.307301"/>
<path d="M88.2881 91.3518V86.3203" stroke="black" stroke-width="0.307301"/>
<path d="M89.9395 91.3518V86.3203" stroke="black" stroke-width="0.307301"/>
<path d="M91.5918 91.3518V86.3203" stroke="black" stroke-width="0.307301"/>
<path d="M93.0928 91.3518V86.3203" stroke="black" stroke-width="0.307301"/>
<path d="M94.5947 91.3518V86.3203" stroke="black" stroke-width="0.307301"/>
<path d="M96.2461 91.3518V86.3203" stroke="black" stroke-width="0.307301"/>
<path d="M97.8975 89.6192V88.0469" stroke="black" stroke-width="0.307301"/>
</g>
<defs>
<clipPath id="clip0_2109_202290">
<rect width="150" height="150" fill="white"/>
</clipPath>
</defs>
</svg>
