<svg width="150" height="150" viewBox="0 0 150 150" fill="none" xmlns="http://www.w3.org/2000/svg">
<g clip-path="url(#clip0_2109_201414)">
<path d="M37.9492 74.923L67.4456 37.8359H104.496V74.923H37.9492Z" fill="#666666"/>
<path d="M30.3955 74.9231H45.3236V43.9922H30.3955V74.9231Z" fill="#B2B2B2" stroke="black" stroke-width="0.328667"/>
<path d="M33.2734 45.4922H35.072V74.9216H33.2734V45.4922Z" fill="#7F7F7F"/>
<path d="M0.719727 74.9219H149.101V87.2342H0.719727V74.9219Z" fill="#7F7F7F"/>
<path d="M0.719727 136.789H149.101V149.252H0.719727V136.789Z" fill="#7F7F7F"/>
<path d="M11.8701 74.9219H137.949V87.2342H11.8701V74.9219Z" fill="#919191"/>
<path d="M11.8701 136.789H137.949V149.101H11.8701V136.789Z" fill="#919191"/>
<path d="M23.0215 74.9219H126.798V87.2342H23.0215V74.9219Z" fill="#A1A1A1"/>
<path d="M23.0215 136.789H126.798V149.101H23.0215V136.789Z" fill="#A1A1A1"/>
<path d="M34.1729 74.9219H115.648V87.2342H34.1729V74.9219Z" fill="#B2B2B2"/>
<path d="M34.1729 136.789H115.648V149.101H34.1729V136.789Z" fill="#B2B2B2"/>
<path d="M45.3242 74.9219H104.677V87.2342H45.3242V74.9219Z" fill="#C4C4C4"/>
<path d="M45.3242 136.789H104.677V149.101H45.3242V136.789Z" fill="#C4C4C4"/>
<path d="M56.4746 74.9219H93.525V87.2342H56.4746V74.9219Z" fill="#D4D4D4"/>
<path d="M56.4746 136.789H93.525V149.101H56.4746V136.789Z" fill="#D4D4D4"/>
<path d="M67.4463 74.9219H82.3743V87.2342H67.4463V74.9219Z" fill="#E5E5E5"/>
<path d="M67.4463 136.789H82.3743V149.252H67.4463V136.789Z" fill="#E5E5E5"/>
<path d="M8.27344 87.2344H141.727V136.784H8.27344V87.2344Z" fill="#B2B2B2" stroke="black" stroke-width="0.328667"/>
<path d="M30.3955 87.2342H34.1725V74.9219H30.3955V87.2342Z" fill="#CCCCCC"/>
<path d="M115.647 87.2342H119.424V74.9219H115.647V87.2342Z" fill="#CCCCCC"/>
<path d="M30.3955 149.252H34.1725V136.789H30.3955V149.252Z" fill="#CCCCCC"/>
<path d="M115.647 149.252H119.424V136.789H115.647V149.252Z" fill="#CCCCCC"/>
<path d="M4.49609 87.2344L145.323 118.165" stroke="black" stroke-width="0.328667"/>
<path d="M145.503 87.2344L4.67578 118.165" stroke="black" stroke-width="0.328667"/>
<path d="M4.49609 90.3906L145.323 121.322" stroke="black" stroke-width="0.328667"/>
<path d="M145.503 90.3906L4.67578 121.322" stroke="black" stroke-width="0.328667"/>
<path d="M4.49609 93.5469L145.323 124.478" stroke="black" stroke-width="0.328667"/>
<path d="M145.503 93.5469L4.67578 124.478" stroke="black" stroke-width="0.328667"/>
<path d="M4.49609 96.5469L145.323 127.478" stroke="black" stroke-width="0.328667"/>
<path d="M145.503 96.5469L4.67578 127.478" stroke="black" stroke-width="0.328667"/>
<path d="M4.49609 99.7031L145.323 130.634" stroke="black" stroke-width="0.328667"/>
<path d="M145.503 99.7031L4.67578 130.634" stroke="black" stroke-width="0.328667"/>
<path d="M4.49609 102.703L145.323 133.634" stroke="black" stroke-width="0.328667"/>
<path d="M145.503 102.703L4.67578 133.634" stroke="black" stroke-width="0.328667"/>
<path d="M4.49609 105.859L145.323 136.79" stroke="black" stroke-width="0.328667"/>
<path d="M145.503 105.859L4.67578 136.79" stroke="black" stroke-width="0.328667"/>
<path d="M103.237 87.2344L145.324 96.5437" stroke="black" stroke-width="0.328667"/>
<path d="M46.7621 87.2344L4.67578 96.5437" stroke="black" stroke-width="0.328667"/>
<path d="M89.209 87.2344L145.324 99.6968" stroke="black" stroke-width="0.328667"/>
<path d="M60.611 87.2344L4.67578 99.6968" stroke="black" stroke-width="0.328667"/>
<path d="M75 87.2344L145.324 102.7" stroke="black" stroke-width="0.328667"/>
<path d="M74.9995 87.2344L4.67578 102.7" stroke="black" stroke-width="0.328667"/>
<path d="M61.1514 87.2344L145.324 105.853" stroke="black" stroke-width="0.328667"/>
<path d="M88.8484 87.2344L4.67578 105.853" stroke="black" stroke-width="0.328667"/>
<path d="M46.9424 87.2344L145.324 109.006" stroke="black" stroke-width="0.328667"/>
<path d="M103.057 87.2344L4.67578 109.006" stroke="black" stroke-width="0.328667"/>
<path d="M32.9141 87.2344L145.324 112.009" stroke="black" stroke-width="0.328667"/>
<path d="M117.086 87.2344L4.67578 112.009" stroke="black" stroke-width="0.328667"/>
<path d="M18.7051 87.2344L145.324 115.162" stroke="black" stroke-width="0.328667"/>
<path d="M131.294 87.2344L4.67578 115.162" stroke="black" stroke-width="0.328667"/>
<path d="M4.49609 109.008L131.115 136.786" stroke="black" stroke-width="0.328667"/>
<path d="M145.504 109.008L18.7051 136.786" stroke="black" stroke-width="0.328667"/>
<path d="M4.49609 112.016L117.266 136.79" stroke="black" stroke-width="0.328667"/>
<path d="M145.503 112.016L32.7334 136.79" stroke="black" stroke-width="0.328667"/>
<path d="M4.49609 115.164L103.057 136.786" stroke="black" stroke-width="0.328667"/>
<path d="M145.504 115.164L46.9424 136.786" stroke="black" stroke-width="0.328667"/>
<path d="M4.49609 118.172L89.0285 136.79" stroke="black" stroke-width="0.328667"/>
<path d="M145.503 118.172L60.9707 136.79" stroke="black" stroke-width="0.328667"/>
<path d="M4.49609 121.32L74.8198 136.786" stroke="black" stroke-width="0.328667"/>
<path d="M145.503 121.32L75.1797 136.786" stroke="black" stroke-width="0.328667"/>
<path d="M4.49609 124.477L60.7911 136.789" stroke="black" stroke-width="0.328667"/>
<path d="M145.504 124.477L89.0293 136.789" stroke="black" stroke-width="0.328667"/>
<path d="M4.49609 127.477L46.7623 136.786" stroke="black" stroke-width="0.328667"/>
<path d="M145.503 127.477L103.237 136.786" stroke="black" stroke-width="0.328667"/>
<path d="M131.295 87.2344L145.324 90.3875" stroke="black" stroke-width="0.328667"/>
<path d="M18.5247 87.2344L4.67578 90.3875" stroke="black" stroke-width="0.328667"/>
<path d="M117.446 87.2344L145.324 93.3905" stroke="black" stroke-width="0.328667"/>
<path d="M32.5535 87.2344L4.67578 93.3905" stroke="black" stroke-width="0.328667"/>
<path d="M4.49609 130.633L32.5536 136.789" stroke="black" stroke-width="0.328667"/>
<path d="M145.504 130.633L117.446 136.789" stroke="black" stroke-width="0.328667"/>
<path d="M4.49609 133.781L18.5249 136.784" stroke="black" stroke-width="0.328667"/>
<path d="M145.503 133.781L131.475 136.784" stroke="black" stroke-width="0.328667"/>
<path d="M4.49609 136.784V87.2344" stroke="black" stroke-width="0.328667"/>
<path d="M145.324 136.784V87.2344" stroke="black" stroke-width="0.328667"/>
<path d="M0.719727 74.9219H149.101V87.2342H0.719727V74.9219Z" stroke="black" stroke-width="0.328667"/>
<path d="M0.719727 136.789H149.101V149.252H0.719727V136.789Z" stroke="black" stroke-width="0.328667"/>
<path d="M30.3955 87.2344H34.1725V136.784H30.3955V87.2344Z" fill="#7F7F7F"/>
<path d="M115.647 87.2344H119.424V136.784H115.647V87.2344Z" fill="#7F7F7F"/>
<path d="M112.05 31.6826V74.9259H89.7478V59.6106L84.532 61.4124L78.7766 62.3133L71.0427 62.4634L64.0284 61.1121L57.3737 58.8598L51.4384 55.4064L46.4025 51.2022L42.4456 46.2472L39.5679 40.8418L37.9492 34.8358V31.6826V28.3793L39.5679 22.5235L42.4456 16.9679L46.4025 12.013L51.4384 7.80877L57.3737 4.50547L64.0284 2.10306L71.0427 0.751713L74.9996 0.601562L78.7766 0.751713L85.9708 2.10306L92.4456 4.50547L98.3809 7.80877L103.417 12.013L107.554 16.9679L110.251 22.5235L111.87 28.3793L112.05 31.6826Z" fill="#CCCCCC" stroke="black" stroke-width="0.328667"/>
<path d="M74.9999 56.3057C89.3036 56.3057 100.899 46.6254 100.899 34.6841C100.899 22.7428 89.3036 13.0625 74.9999 13.0625C60.6961 13.0625 49.1006 22.7428 49.1006 34.6841C49.1006 46.6254 60.6961 56.3057 74.9999 56.3057Z" fill="#D9D9D9" stroke="black" stroke-width="0.328667"/>
<path d="M75.0002 46.9996C83.1454 46.9996 89.7484 41.4872 89.7484 34.6873C89.7484 27.8874 83.1454 22.375 75.0002 22.375C66.8549 22.375 60.252 27.8874 60.252 34.6873C60.252 41.4872 66.8549 46.9996 75.0002 46.9996Z" fill="black"/>
<path d="M52.6982 33.9375H54.4968V35.5892H52.6982V33.9375Z" fill="#666666"/>
<path d="M55.2158 43.3931L56.8345 42.4922L57.7338 43.9937L56.1151 44.7444L55.2158 43.3931Z" fill="#666666"/>
<path d="M62.9492 50.4529L64.0284 49.1016L65.6471 49.8523L64.7478 51.2037L62.9492 50.4529Z" fill="#666666"/>
<path d="M74.1006 53.3001V51.6484H75.8991V53.3001H74.1006Z" fill="#666666"/>
<path d="M85.2518 51.1976L84.3525 49.8462L85.9712 48.9453L87.0504 50.2967L85.2518 51.1976Z" fill="#666666"/>
<path d="M93.7046 44.5943L92.0859 43.8435L92.9852 42.4922L94.7838 43.2429L93.7046 44.5943Z" fill="#666666"/>
<path d="M97.3026 35.4329H95.3242V33.7812H97.3026V35.4329Z" fill="#666666"/>
<path d="M94.6039 25.9764L92.9852 26.8773L92.0859 25.3758L93.7046 24.625L94.6039 25.9764Z" fill="#666666"/>
<path d="M86.8707 18.9226L85.9714 20.274L84.1729 19.5232L85.252 18.1719L86.8707 18.9226Z" fill="#666666"/>
<path d="M75.8993 16.0625V17.7142H73.9209V16.0625H75.8993Z" fill="#666666"/>
<path d="M64.5679 18.1719L65.4672 19.5232L63.8485 20.4241L62.9492 18.9226L64.5679 18.1719Z" fill="#666666"/>
<path d="M56.1153 24.7734L57.734 25.5242L56.8347 26.8755L55.0361 26.1248L56.1153 24.7734Z" fill="#666666"/>
</g>
<defs>
<clipPath id="clip0_2109_201414">
<rect width="150" height="150" fill="white"/>
</clipPath>
</defs>
</svg>
