<svg width="150" height="150" viewBox="0 0 150 150" fill="none" xmlns="http://www.w3.org/2000/svg">
<g clip-path="url(#clip0_2109_204682)">
<path d="M27.2725 0V150H122.406V98.7988H149.679V47.8979H122.406V0H27.2725Z" fill="#00FFFF"/>
<path d="M150 47.7477H122.567V0H27.1123L27.2727 150" stroke="black" stroke-width="0.310408"/>
<path d="M122.566 149.998V98.7969H149.839" stroke="black" stroke-width="0.310408"/>
<path d="M74.7598 98.9512L78.2892 82.8851L83.2624 76.5788L95.2945 73.2755L83.2624 70.1224L78.2892 63.8161L74.9202 47.75" stroke="black" stroke-width="0.310408"/>
<path d="M0 73.2734H74.9198" stroke="black" stroke-width="0.310408"/>
<path d="M74.9199 108.409V38.2891" stroke="black" stroke-width="0.310408"/>
<path d="M34.0107 28.6797H45.722" stroke="black" stroke-width="0.310408"/>
<path d="M51.6582 28.6797H63.209" stroke="black" stroke-width="0.310408"/>
<path d="M68.9844 28.6797H80.856" stroke="black" stroke-width="0.310408"/>
<path d="M86.6309 28.6797H98.3421" stroke="black" stroke-width="0.310408"/>
<path d="M104.117 28.6797H115.828" stroke="black" stroke-width="0.310408"/>
<path d="M34.0107 118.016H45.722" stroke="black" stroke-width="0.310408"/>
<path d="M51.4971 118.016H63.2083" stroke="black" stroke-width="0.310408"/>
<path d="M69.1445 118.016H80.6953" stroke="black" stroke-width="0.310408"/>
<path d="M86.6309 118.016H98.3421" stroke="black" stroke-width="0.310408"/>
<path d="M104.117 118.016H115.828" stroke="black" stroke-width="0.310408"/>
<path d="M54.5449 108.406H95.454" stroke="black" stroke-width="0.310408"/>
<path d="M54.5449 38.2891H95.454" stroke="black" stroke-width="0.310408"/>
</g>
<defs>
<clipPath id="clip0_2109_204682">
<rect width="150" height="150" fill="white"/>
</clipPath>
</defs>
</svg>
