<svg width="150" height="150" viewBox="0 0 150 150" fill="none" xmlns="http://www.w3.org/2000/svg">
<g clip-path="url(#clip0_2109_201843)">
<path d="M24.7598 97.4453V106.604H28.8863L26.823 110.508H34.2508L31.1559 106.604H35.2825V97.4453H24.7598Z" fill="#999999" stroke="#7F7F7F" stroke-width="0.352023"/>
<path d="M27.8545 97.4453V106.604H29.7114L28.6798 110.508H31.7747L30.5367 106.604H32.1874V97.4453H27.8545Z" fill="#D9D9D9"/>
<path d="M29.5053 19.3672L28.8863 35.5834H9.90416V32.2801H5.57129V38.5864H56.5341V32.2801L52.4076 32.4303V35.5834H33.2192L32.8065 19.3672H29.5053Z" fill="#7FB2B2" stroke="black" stroke-width="0.352023"/>
<path d="M4.53906 6.90625V16.0654H140.509V6.90625H4.53906Z" fill="#7FB2B2" stroke="black" stroke-width="0.352023"/>
<path d="M8.66564 43.2422L7.42767 47.5965L6.18971 51.9509L4.95174 56.1551L3.71378 60.2092L2.47581 66.3653L1.44418 72.071L0.825195 77.4764V79.1281V80.9299L1.23785 85.4344L2.26949 89.6386L4.95174 94.1431L6.60236 95.7947L7.634 96.5455H10.9352H51.1691L54.883 93.092L56.3273 89.1881L56.9462 85.5845V84.2332V82.8818L56.7399 78.077L56.1209 72.6716L55.2956 66.6656L54.4703 62.1611L53.645 57.2062L52.8197 51.9509L51.7881 46.2452L51.1691 43.2422L48.6931 43.5425L41.4717 44.4434L34.4566 45.1941L27.0288 45.3443L18.5693 44.8938L12.1732 43.8428L8.66564 43.2422Z" fill="#E5E5E5" stroke="#7F7F7F" stroke-width="0.352023"/>
<path d="M7.63379 96.5442L15.0616 98.9466L40.6462 99.6974L49.1056 98.9466L51.1689 96.5442L39.6145 95.7935L28.8855 96.5442L22.6957 94.292L18.3628 91.1388L14.0299 74.1719L15.0616 87.3851L12.9983 96.5442H7.63379Z" fill="#A6A6A6"/>
<path d="M25.7914 67.271L27.8547 71.0248L34.2508 75.6794L37.3457 68.0218L40.647 64.8686L41.6786 57.9617L40.647 49.4032L35.2825 69.5233L32.1876 68.0218L26.823 46.25L24.7598 59.4632L28.8863 64.8686L25.7914 67.271Z" fill="#BFBFBF"/>
<path d="M48.0746 44.7476H51.1695L49.1062 34.6875H47.043L48.0746 44.7476Z" fill="#CCCCCC" stroke="#7F7F7F" stroke-width="0.352023"/>
<path d="M11.9673 44.7476H8.66602L10.9356 34.6875H12.9989L11.9673 44.7476Z" fill="#CCCCCC" stroke="#7F7F7F" stroke-width="0.352023"/>
<path d="M72.6268 96.5428L144.841 6.90315L140.509 3.75L68.2939 93.5398L72.6268 96.5428Z" fill="#99CCCC" stroke="#4C7F7F" stroke-width="0.352023"/>
<path d="M140.509 96.5428L68.2939 6.90315L72.6268 3.75L144.841 93.5398L140.509 96.5428Z" fill="#99CCCC" stroke="#4C7F7F" stroke-width="0.352023"/>
<path d="M72.627 99.7031V109.012H140.509V99.7031H72.627Z" fill="#336666" stroke="black" stroke-width="0.352023"/>
<path d="M33.0122 15.7644L31.1553 12.3109L33.0122 9.0076L37.5514 7.65625L42.297 9.0076L43.9476 12.3109L42.297 15.7644L37.5514 17.1157L33.0122 15.7644Z" fill="#336666" stroke="black" stroke-width="0.352023"/>
<path d="M20.0142 15.7644L18.1572 12.3109L20.0142 9.0076L24.7597 7.65625L29.2989 9.0076L31.1559 12.3109L29.2989 15.7644L24.7597 17.1157L20.0142 15.7644Z" fill="#336666" stroke="black" stroke-width="0.352023"/>
<path d="M24.7598 12.3125V19.3696H37.5521V12.3125H24.7598Z" fill="#B2E5E5" stroke="black" stroke-width="0.352023"/>
<path d="M21.458 20.5703V25.225H40.8528V20.5703H21.458Z" fill="#B2E5E5" stroke="black" stroke-width="0.352023"/>
<path d="M149.175 149.25V0.601562H63.9619V149.25H72.6277V6.90787H140.509V93.5445H72.6277V99.7007H140.509V149.25H149.175Z" fill="#B2E5E5"/>
<path d="M72.627 93.5429V6.90625H140.509V93.5429H72.627Z" stroke="black" stroke-width="0.352023"/>
<path d="M149.175 149.25V0.601562H63.9619V149.25H72.6277V99.7007H140.509V149.25H149.175Z" stroke="black" stroke-width="0.352023"/>
<path d="M24.7596 25.375L20.4268 53.3029L24.7596 88.8885L23.728 117.417" stroke="black" stroke-width="0.352023"/>
<path d="M21.458 117.414H24.7592V124.471H21.458V117.414Z" fill="#B2B2B2" stroke="black" stroke-width="0.352023"/>
</g>
<defs>
<clipPath id="clip0_2109_201843">
<rect width="150" height="150" fill="white"/>
</clipPath>
</defs>
</svg>
