<svg width="150" height="150" viewBox="0 0 150 150" fill="none" xmlns="http://www.w3.org/2000/svg">
<path d="M25.3887 142.944V0.601562H145.622V142.944H121.692V99.7007H49.3186V142.944H25.3887Z" fill="#4C3F32"/>
<path d="M1.16699 149.249V6.90625H121.692V149.249H97.4705V105.855H25.3888V149.249H1.16699Z" fill="#F2E5D8"/>
<path d="M25.3887 108.262L52.5287 131.385H88.4237L97.4704 123.577V105.859H25.3887V108.262Z" fill="#A6998C" stroke="black" stroke-width="0.418656"/>
<path d="M52.5288 131.384L58.3653 129.883L25.3887 106.609V108.261L52.5288 131.384Z" fill="#7F7265"/>
<path d="M82.5879 129.88L88.4245 131.381L97.4712 123.573V120.57L82.5879 129.88Z" fill="#7F7265"/>
<path d="M52.5293 131.384H88.4242L82.5877 129.883H58.3659L52.5293 131.384Z" fill="#BFB2A5" stroke="#7F7265" stroke-width="0.418656"/>
<path d="M121.692 149.25V6.90787L145.622 0.601562V142.043L140.953 143.545V100.151L126.362 104.505V147.749L121.692 149.25Z" fill="#B2A598" stroke="black" stroke-width="0.418656"/>
<path d="M1.16699 6.90787H121.692L145.622 0.601562H25.3888L1.16699 6.90787Z" fill="#FFF2E5" stroke="black" stroke-width="0.418656"/>
<path d="M1.16699 102.704V87.9895L121.692 59.4609V74.1757L1.16699 102.704Z" fill="#EBDED1"/>
<path d="M1.16699 110.509V101.95L121.692 73.4219V81.8303L1.16699 110.509Z" fill="#E0D3C6"/>
<path d="M1.16699 149.246V109.757L121.692 81.0781V149.246H97.4705V105.853H25.3888V149.246H1.16699Z" fill="#D9CCBF"/>
<path d="M1.16699 149.249V6.90625H121.692V149.249H97.4705V105.855H25.3888V149.249H1.16699Z" stroke="black" stroke-width="0.418656"/>
<path d="M56.9062 129.133H68.8712V105.859" stroke="#7F7265" stroke-width="0.418656"/>
<path d="M71.79 129.133V105.859" stroke="#CCBFB2" stroke-width="0.418656"/>
<path d="M1.16699 93.5407H121.692L145.622 87.2344" stroke="black" stroke-width="0.418656"/>
<path d="M25.3887 9.90625H97.4704V31.5279H25.3887V9.90625Z" fill="#F2E5D8" stroke="black" stroke-width="0.418656"/>
<path d="M1.16699 34.6875H121.692" stroke="#BFB2A5" stroke-width="0.418656"/>
<path d="M26.8486 91.1379V90.3872H97.4712V62.6094H98.9303V91.1379H26.8486Z" fill="#7F7265"/>
<path d="M26.8486 60.2083V59.4576H97.4712V37.8359H98.9303V60.2083H26.8486Z" fill="#7F7265"/>
<path d="M25.3887 37.8359H97.4704V59.4576H25.3887V37.8359Z" fill="#F2E5D8"/>
<path d="M25.3887 62.6094H97.4704V90.3872H25.3887V62.6094Z" fill="#F2E5D8"/>
<path d="M25.3887 59.4576V37.8359H97.4704" stroke="white" stroke-width="0.418656"/>
<path d="M25.3887 90.3872V62.6094H97.4704" stroke="white" stroke-width="0.418656"/>
<path d="M28.3076 11.5625H94.5527V30.031H28.3076V11.5625Z" fill="#4C4C4C"/>
<path d="M26.8486 33.1795V31.5279H97.4712V9.90625H98.9303V33.1795H26.8486Z" fill="#66594C"/>
<path d="M37.3541 41.5882L25.3891 40.8374L23.93 39.3359L22.4709 40.8374L19.2607 41.5882L22.4709 42.4891L23.93 43.9906L25.3891 42.4891L37.3541 41.5882Z" fill="black"/>
<path d="M37.3541 55.5569L25.3891 54.8062L23.93 53.3047L22.4709 54.8062L19.2607 55.5569L22.4709 56.3077L23.93 57.9593L25.3891 56.3077L37.3541 55.5569Z" fill="black"/>
<path d="M37.3541 66.3694L25.3891 65.6187L23.93 64.1172L22.4709 65.6187L19.2607 66.3694L22.4709 67.2703L23.93 68.7718L25.3891 67.2703L37.3541 66.3694Z" fill="black"/>
<path d="M37.3541 86.4866L25.3891 85.7359L23.93 84.2344L22.4709 85.7359L19.2607 86.4866L22.4709 87.2374L23.93 88.889L25.3891 87.2374L37.3541 86.4866Z" fill="black"/>
<path d="M97.4707 89.6375V86.4844H98.9298V89.6375H97.4707Z" fill="black"/>
<path d="M97.4707 66.5203V63.3672H98.9298V66.5203H97.4707Z" fill="black"/>
<path d="M97.4707 78.075V74.9219H98.9298V78.075H97.4707Z" fill="black"/>
<path d="M97.4707 41.7391V38.5859H98.9298V41.7391H97.4707Z" fill="black"/>
<path d="M97.4707 58.7078V55.5547H98.9298V58.7078H97.4707Z" fill="black"/>
<path d="M52.5293 96.5469H70.6227V102.703H52.5293V96.5469Z" fill="#B2A598"/>
<path d="M53.9883 97.2969H68.8715V101.952H53.9883V97.2969Z" fill="#F2E5D8"/>
<path d="M52.5293 40.8438H70.6227V46.9999H52.5293V40.8438Z" fill="white"/>
<path d="M53.9883 41.5938H68.8715V46.2484H53.9883V41.5938Z" fill="#8CA0BF"/>
<path d="M124.611 81.0826L144.164 76.5781V79.5811L124.611 84.2358V81.0826Z" fill="#4C3F32"/>
<path d="M124.611 67.264L144.164 62.6094V65.6124L124.611 70.267V67.264Z" fill="#4C3F32"/>
<path d="M124.611 53.3031L144.164 48.6484V51.8016L124.611 56.3061V53.3031Z" fill="#4C3F32"/>
<path d="M124.611 53.3031L144.164 48.6484L148.541 50.1499L128.989 54.8046L124.611 53.3031Z" fill="#D9CCBF"/>
<path d="M124.611 67.264L144.164 62.6094L148.541 64.1109L128.989 68.7655L124.611 67.264Z" fill="#D9CCBF"/>
<path d="M124.611 81.0826L144.164 76.5781L148.541 78.0796L128.989 82.5841L124.611 81.0826Z" fill="#D9CCBF"/>
<path d="M123.151 10.664V35.4387L145.622 29.2826V4.50781L123.151 10.664Z" fill="#4C3F32"/>
<path d="M126.07 10.664V33.1865L148.541 27.0303V4.50781L126.07 10.664Z" fill="#C7BAAD" stroke="black" stroke-width="0.418656"/>
</svg>
