<svg width="150" height="150" viewBox="0 0 150 150" fill="none" xmlns="http://www.w3.org/2000/svg">
<g clip-path="url(#clip0_2109_204916)">
<path d="M68.816 59.4619L32.3467 28.8312V21.0234H129.704V28.8312L93.2346 59.4619H68.816Z" fill="#00FFFF" stroke="black" stroke-width="0.436423"/>
<path d="M32.3467 86.488V88.1396V89.9414V91.7432V97.4489L32.6638 103.455L32.9809 109.611L33.9323 115.767L35.2008 121.623L36.7864 127.029L39.0063 131.833L42.1775 135.887L46.9344 139.641L48.52 140.242H113.531L118.922 137.089L122.727 131.833L125.264 127.029L126.85 121.623L128.118 115.767L128.753 109.611L129.387 103.455L129.704 97.4489V95.497V93.545V91.7432V86.488H125.581L118.922 90.9925L112.262 93.6952L104.017 95.6471L94.8203 96.0976H93.2346V78.8303L97.3572 76.8784L93.2346 74.9264L97.3572 72.9745L93.2346 71.0225L97.3572 69.2207L93.2346 67.2687L97.3572 65.3168L93.2346 63.3648L97.3572 61.4129L93.2346 59.4609H68.816L64.6934 61.4129L68.816 63.3648L64.6934 65.3168L68.816 67.2687L64.6934 69.2207L68.816 71.0225L64.6934 72.9745L68.816 74.9264L64.6934 76.8784L68.816 78.8303V96.0976L58.3509 95.6471L49.7885 93.6952L43.1289 90.9925L36.4693 86.488H32.3467Z" fill="#00FFFF" stroke="black" stroke-width="0.436423"/>
<path d="M68.8164 74.9219H93.235" stroke="black" stroke-width="0.436423"/>
<path d="M68.8164 71.0234H93.235" stroke="black" stroke-width="0.436423"/>
<path d="M68.8164 67.2656H93.235" stroke="black" stroke-width="0.436423"/>
<path d="M68.8164 63.3672H93.235" stroke="black" stroke-width="0.436423"/>
<path d="M32.3472 150.003V148.051H28.2246V144.147H32.3472V142.195H129.705V144.147H133.827V148.051H129.705V150.003H32.3472Z" fill="#00FFFF" stroke="black" stroke-width="0.436423"/>
<path d="M85.3066 115.318L113.531 142.195H117.653L85.3066 111.414V115.318Z" fill="#00FFFF" stroke="black" stroke-width="0.436423"/>
<path d="M77.0615 142.189V65.3125H85.3068V142.189H77.0615Z" fill="#00FFFF" stroke="black" stroke-width="0.436423"/>
<path d="M48.5201 142.195L77.0613 115.318V111.414L44.3975 142.195H48.5201Z" fill="#00FFFF" stroke="black" stroke-width="0.436423"/>
<path d="M32.3467 144.141H129.704" stroke="black" stroke-width="0.436423"/>
<path d="M28.2246 146.094H133.827" stroke="black" stroke-width="0.436423"/>
<path d="M32.3467 148.047H129.704" stroke="black" stroke-width="0.436423"/>
<path d="M56.7656 11.4141L81.1842 17.2699L105.603 11.4141" stroke="black" stroke-width="0.436423"/>
<path d="M68.8164 17.2656H93.235" stroke="black" stroke-width="0.436423"/>
<path d="M121.459 7.65766L129.704 9.60961H150V0H129.704L121.459 1.8018V7.65766Z" fill="#00FFFF" stroke="black" stroke-width="0.436423"/>
<path d="M105.603 3.75664H113.531V1.80469H121.459V11.4143H113.531V9.6125H105.603V3.75664Z" fill="#00FFFF" stroke="black" stroke-width="0.436423"/>
<path d="M68.8164 21.0239V17.2702L56.7656 11.4143V1.80469H105.603V11.4143L93.235 17.2702V21.0239H68.8164Z" fill="#00FFFF" stroke="black" stroke-width="0.436423"/>
<path d="M56.7653 9.60586H0V3.75H56.7653V9.60586Z" fill="#00FFFF" stroke="black" stroke-width="0.436423"/>
<path d="M16.1738 26.875H145.878V28.827H16.1738V26.875Z" fill="#00FFFF" stroke="black" stroke-width="0.436423"/>
<path d="M16.1738 36.4858L24.1019 28.8281L32.3472 36.4858H16.1738Z" fill="#00FFFF" stroke="black" stroke-width="0.436423"/>
<path d="M129.704 36.4858L137.949 28.8281L145.877 36.4858H129.704Z" fill="#00FFFF" stroke="black" stroke-width="0.436423"/>
<path d="M56.7656 78.827H105.603V76.875H137.95V82.5807H105.603V80.7789H56.7656V78.827Z" fill="#00FFFF" stroke="black" stroke-width="0.436423"/>
<path d="M32.3467 84.5312H129.704V86.4832H32.3467V84.5312Z" fill="#00FFFF" stroke="black" stroke-width="0.436423"/>
</g>
<defs>
<clipPath id="clip0_2109_204916">
<rect width="150" height="150" fill="white"/>
</clipPath>
</defs>
</svg>
