<svg width="150" height="150" viewBox="0 0 150 150" fill="none" xmlns="http://www.w3.org/2000/svg">
<g clip-path="url(#clip0_2109_202345)">
<path d="M62.6129 19.0379L149.25 81.0198V133.092H6.90723V61.0068L7.35768 53.6234L8.55888 46.6286L10.5108 40.2167L13.2135 34.1934L16.5168 28.753L20.4207 23.8954L24.7751 19.8151L29.5799 16.7063L34.685 14.3747L40.2406 13.2089L42.0424 13.0146L43.9943 12.8203H45.1955L50.0003 13.5975L54.8051 14.9576L59.3096 17.0949L62.6129 19.0379Z" fill="#E56500" stroke="black" stroke-width="0.341609"/>
<path d="M0.600586 144.945H149.249V149.026H0.600586V144.945Z" fill="#CCCCCC" stroke="black" stroke-width="0.341609"/>
<path d="M78.0784 129.012H149.25V133.092H74.9252L16.2165 25.8382L6.90723 12.8201L37.8382 0.773438V16.9004L62.6129 27.004H67.2676L78.0784 56.9263V129.012Z" fill="#CCCCCC" stroke="black" stroke-width="0.341609"/>
<path d="M3.75391 133.094H146.096V144.946H3.75391V133.094Z" fill="#999999" stroke="black" stroke-width="0.341609"/>
<path d="M90.3906 121.047H146.096V129.013H90.3906V121.047Z" fill="#E5E5E5" stroke="black" stroke-width="0.341609"/>
<path d="M74.9249 61.0068L74.4745 53.6234L73.2733 46.6286L71.3213 40.2167L68.6186 34.1934L65.3153 28.753L61.4114 23.8954L57.057 19.8151L52.2522 16.7063L46.997 14.3747L41.5916 13.2089L39.6396 13.0146L37.8378 12.8203L35.8859 13.0146L30.3303 13.7918L25.0751 15.9291L20.1201 18.6493L15.6156 22.5353L11.5615 27.0043L8.10809 32.2504L5.10509 38.0794L3.00299 44.4913L1.35134 51.2918L0.750736 58.4809L0.600586 61.0068V133.092H74.9249V61.0068Z" fill="#FF7F00" stroke="black" stroke-width="0.341609"/>
<path d="M130.63 81.0234L105.855 121.049H130.63L123.573 109.003H146.096L142.943 81.0234H130.63Z" fill="#4C4C4C" stroke="black" stroke-width="0.341609"/>
<path d="M78.078 129.016H74.9248" stroke="black" stroke-width="0.341609"/>
<path d="M78.0781 97.1484H101.952V109.001H78.0781V97.1484Z" fill="#7F7F7F"/>
<path d="M83.4834 76.9453H101.952V84.9116H83.4834V76.9453Z" fill="#7F7F7F"/>
<path d="M78.0781 73.0547H83.4835V88.9873H78.0781V73.0547Z" fill="#7F7F7F" stroke="black" stroke-width="0.341609"/>
<path d="M78.0781 76.3594H83.4835V85.6858H78.0781V76.3594Z" fill="#B2B2B2"/>
<path d="M78.0781 99.4844H101.952V106.673H78.0781V99.4844Z" fill="#B2B2B2"/>
<path d="M83.4834 78.5H101.952V83.3575H83.4834V78.5Z" fill="#B2B2B2"/>
<path d="M78.0781 102.203H101.952V103.952H78.0781V102.203Z" fill="#E5E5E5"/>
<path d="M83.4834 80.4375H101.952V81.6033H83.4834V80.4375Z" fill="#E5E5E5"/>
<path d="M78.0781 97.1484H101.952V109.001H78.0781V97.1484Z" stroke="black" stroke-width="0.341609"/>
<path d="M83.4834 76.9453H101.952V84.9116H83.4834V76.9453Z" stroke="black" stroke-width="0.341609"/>
<path d="M116.816 68.9763H119.819V56.9297H116.816V68.9763Z" fill="#666666"/>
<path d="M118.168 120.857C130.11 120.857 139.79 108.33 139.79 92.8777C139.79 77.4252 130.11 64.8984 118.168 64.8984C106.227 64.8984 96.5469 77.4252 96.5469 92.8777C96.5469 108.33 106.227 120.857 118.168 120.857Z" fill="#7F7F7F" stroke="black" stroke-width="0.341609"/>
<path d="M118.168 116.774C128.368 116.774 136.636 106.075 136.636 92.8755C136.636 79.6765 128.368 68.9766 118.168 68.9766C107.968 68.9766 99.6992 79.6765 99.6992 92.8755C99.6992 106.075 107.968 116.774 118.168 116.774Z" fill="#999999"/>
<path d="M109.309 104.536L105.855 93.0723L109.309 81.6085L118.168 76.9453L127.177 81.6085L130.63 93.0723L127.177 104.536L118.168 109.005L109.309 104.536Z" fill="#B2B2B2"/>
<path d="M119.52 95.0156L126.727 100.262" stroke="black" stroke-width="0.341609"/>
<path d="M119.67 98.125L125.676 102.594" stroke="black" stroke-width="0.341609"/>
<path d="M119.219 100.844L123.723 104.341" stroke="black" stroke-width="0.341609"/>
<path d="M119.219 103.953L121.921 105.896" stroke="black" stroke-width="0.341609"/>
<path d="M121.622 93.4609L127.778 97.9298" stroke="black" stroke-width="0.341609"/>
<path d="M123.424 91.7109L127.928 95.014" stroke="black" stroke-width="0.341609"/>
<path d="M125.375 90.1562L127.928 92.0993" stroke="black" stroke-width="0.341609"/>
<path d="M117.868 90.9297L117.718 80.4375" stroke="black" stroke-width="0.341609"/>
<path d="M119.82 89.7639V80.4375" stroke="black" stroke-width="0.341609"/>
<path d="M121.922 88.2156V81.6094" stroke="black" stroke-width="0.341609"/>
<path d="M124.024 87.0491V82.9688" stroke="black" stroke-width="0.341609"/>
<path d="M115.766 89.7707V80.25" stroke="black" stroke-width="0.341609"/>
<path d="M113.664 88.2156V81.6094" stroke="black" stroke-width="0.341609"/>
<path d="M111.562 87.0491V82.9688" stroke="black" stroke-width="0.341609"/>
<path d="M116.066 95.0156L108.858 100.262" stroke="black" stroke-width="0.341609"/>
<path d="M114.114 93.2656L107.808 98.1231" stroke="black" stroke-width="0.341609"/>
<path d="M112.162 91.7109L107.657 95.014" stroke="black" stroke-width="0.341609"/>
<path d="M110.211 90.1562L107.508 92.0993" stroke="black" stroke-width="0.341609"/>
<path d="M116.367 97.9297L109.91 102.593" stroke="black" stroke-width="0.341609"/>
<path d="M116.367 100.844L111.862 104.341" stroke="black" stroke-width="0.341609"/>
<path d="M116.367 103.953L113.664 105.896" stroke="black" stroke-width="0.341609"/>
<path d="M116.066 95.7927L115.165 93.0725L116.066 90.158L118.168 88.9922L120.42 90.158L121.321 93.0725L120.42 95.7927L118.168 96.9585L116.066 95.7927Z" fill="#A6A6A6" stroke="black" stroke-width="0.341609"/>
</g>
<defs>
<clipPath id="clip0_2109_202345">
<rect width="150" height="150" fill="white"/>
</clipPath>
</defs>
</svg>
