<svg width="150" height="150" viewBox="0 0 150 150" fill="none" xmlns="http://www.w3.org/2000/svg">
<g clip-path="url(#clip0_2109_200792)">
<path d="M114.715 0H121.021V12.4752H114.715V0Z" fill="#B2B2B2" stroke="black" stroke-width="0.42237"/>
<path d="M55.4053 0H61.7116V12.4752H55.4053V0Z" fill="#B2B2B2" stroke="black" stroke-width="0.42237"/>
<path d="M85.7354 0H92.0417V12.4752H85.7354V0Z" fill="#B2B2B2" stroke="black" stroke-width="0.42237"/>
<path d="M24.9248 0H31.2311V12.4752H24.9248V0Z" fill="#B2B2B2" stroke="black" stroke-width="0.42237"/>
<path d="M53.9043 100.695H114.715V139.309H53.9043V100.695Z" fill="#CCCCCC" stroke="black" stroke-width="0.42237"/>
<path d="M22.5225 106.633H30.3303V108.415H22.5225V106.633Z" fill="#7F7F7F" stroke="black" stroke-width="0.42237"/>
<path d="M22.5225 124.454L30.3303 123.266V125.642L22.5225 126.83V124.454Z" fill="#999999" stroke="black" stroke-width="0.42237"/>
<path d="M22.5225 120.297L30.3303 119.109V120.892L22.5225 122.08V120.297Z" fill="#999999" stroke="black" stroke-width="0.42237"/>
<path d="M22.5225 115.547L30.3303 114.359V116.736L22.5225 117.924V115.547Z" fill="#999999" stroke="black" stroke-width="0.42237"/>
<path d="M22.5225 110.79L30.3303 109.602V111.978L22.5225 113.166V110.79Z" fill="#999999" stroke="black" stroke-width="0.42237"/>
<path d="M22.5225 120.297L30.3303 123.267V125.643L22.5225 122.673V120.297Z" fill="#E5E5E5" stroke="black" stroke-width="0.42237"/>
<path d="M22.5225 115.547L30.3303 119.111V120.893L22.5225 117.923V115.547Z" fill="#E5E5E5" stroke="black" stroke-width="0.42237"/>
<path d="M22.5225 111.383L30.3303 114.353V116.729L22.5225 113.165V111.383Z" fill="#E5E5E5" stroke="black" stroke-width="0.42237"/>
<path d="M22.5225 106.633L30.3303 109.603V111.979L22.5225 109.009V106.633Z" fill="#E5E5E5" stroke="black" stroke-width="0.42237"/>
<path d="M0 51.0859H150V57.0265H143.544L134.234 100.69H12.3123L0 69.5018V51.0859Z" fill="#B2B2B2" stroke="black" stroke-width="0.42237"/>
<path d="M0 48.1172H150V51.0875H0V48.1172Z" fill="#4C4C4C" stroke="black" stroke-width="0.42237"/>
<path d="M0 48.1163V44.552H9.30931L15.6156 4.75H131.231L140.541 44.552H150V48.1163H0Z" fill="#CCCCCC" stroke="black" stroke-width="0.42237"/>
<path d="M12.3125 62.9688H18.6188V75.444H12.3125V62.9688Z" fill="#999999" stroke="black" stroke-width="0.42237"/>
<path d="M15.6153 64.75L17.1168 66.2351L17.7174 68.6114V69.5025L17.1168 72.7698L15.6153 74.255L14.2639 73.3639L13.363 71.2847L13.2129 69.5025L13.6633 67.1262L14.7144 65.047L15.6153 64.75Z" fill="#333333" stroke="black" stroke-width="0.42237"/>
<path d="M40.541 62.9688H46.8473V75.444H40.541V62.9688Z" fill="#999999" stroke="black" stroke-width="0.42237"/>
<path d="M43.5435 64.75L45.045 65.6411L45.7958 67.7203L45.9459 69.5025L45.3453 72.7698L44.1441 74.255H43.5435L42.042 72.7698L41.5916 70.3936L41.4414 69.5025L42.042 66.2351L43.5435 64.75Z" fill="#333333" stroke="black" stroke-width="0.42237"/>
<path d="M77.9277 62.9688H84.234V75.444H77.9277V62.9688Z" fill="#999999" stroke="black" stroke-width="0.42237"/>
<path d="M81.2315 74.255C82.5583 74.255 83.6339 72.1272 83.6339 69.5025C83.6339 66.8778 82.5583 64.75 81.2315 64.75C79.9047 64.75 78.8291 66.8778 78.8291 69.5025C78.8291 72.1272 79.9047 74.255 81.2315 74.255Z" fill="#333333" stroke="black" stroke-width="0.42237"/>
<path d="M109.31 62.9688H115.616V75.444H109.31V62.9688Z" fill="#999999" stroke="black" stroke-width="0.42237"/>
<path d="M112.612 64.75L114.114 66.2351L114.714 68.6114V69.5025L114.114 72.7698L112.612 74.255L111.111 73.3639L110.36 71.2847L110.21 69.5025L110.811 66.2351L112.012 65.047L112.612 64.75Z" fill="#333333" stroke="black" stroke-width="0.42237"/>
<path d="M71.9224 97.7259H13.2137L1.50195 67.7259V54.0625H71.9224V97.7259Z" stroke="#7F7F7F" stroke-width="0.42237"/>
<path d="M73.4238 97.7259H132.733L142.943 54.0625H73.4238V97.7259Z" stroke="#7F7F7F" stroke-width="0.42237"/>
<path d="M16.216 5.9375L10.21 46.3335H139.639L130.33 5.9375H16.216Z" fill="#CCCCCC" stroke="#7F7F7F" stroke-width="0.42237"/>
<path d="M17.1168 5.9375L12.6123 36.8286H137.537L129.729 5.9375H17.1168Z" fill="#E5E5E5"/>
<path d="M24.9248 30.8906H31.2311V43.3659H24.9248V30.8906Z" fill="#999999" stroke="black" stroke-width="0.42237"/>
<path d="M27.9283 32.6719L29.4298 33.2659L30.3307 35.9392V36.8303L30.0304 39.5036L28.5289 41.5828H27.9283L26.4268 40.3946L25.8262 37.7214V36.8303L26.4268 33.86L27.9283 32.6719Z" fill="#333333" stroke="black" stroke-width="0.42237"/>
<path d="M68.6182 30.8906H74.9245V43.3659H68.6182V30.8906Z" fill="#999999" stroke="black" stroke-width="0.42237"/>
<path d="M71.9219 32.6719L73.4234 33.86L74.024 36.8303L73.7237 39.5036L72.3724 41.5828H71.9219L70.4204 40.9887L69.5195 37.7214V36.8303L70.1201 33.86L71.3213 32.6719H71.9219Z" fill="#333333" stroke="black" stroke-width="0.42237"/>
<path d="M118.618 30.8906H124.924V43.3659H118.618V30.8906Z" fill="#999999" stroke="black" stroke-width="0.42237"/>
<path d="M121.922 32.6719L123.423 33.86L124.024 36.8303L123.724 39.5036L122.372 41.5828H121.922L120.42 40.9887L119.52 37.7214V36.8303L120.12 33.86L121.321 32.6719H121.922Z" fill="#333333" stroke="black" stroke-width="0.42237"/>
<path d="M16.5166 10.6953L14.7148 23.1706H133.634L130.33 10.6953H16.5166Z" fill="white"/>
<path d="M18.6182 149.997L21.9215 125.047H31.2308L34.2338 149.997H18.6182Z" fill="#E5E5E5" stroke="black" stroke-width="0.42237"/>
<path d="M0 46.3359H150V48.1181H0V46.3359Z" fill="#CC9933" stroke="black" stroke-width="0.42237"/>
<path d="M20.1201 125.047H32.7327V128.017H20.1201V125.047Z" fill="#CCCCCC" stroke="black" stroke-width="0.42237"/>
<path d="M20.1201 106.63H32.7327V105.442H31.2312V81.9766H24.9249V86.135H21.9219V105.442H20.1201V106.63Z" fill="#E5E5E5" stroke="black" stroke-width="0.42237"/>
<path d="M126.427 106.633H134.235V108.415H126.427V106.633Z" fill="#7F7F7F" stroke="black" stroke-width="0.42237"/>
<path d="M126.427 124.454L134.235 123.266V125.642L126.427 126.83V124.454Z" fill="#999999" stroke="black" stroke-width="0.42237"/>
<path d="M126.427 120.297L134.235 119.109V120.892L126.427 122.08V120.297Z" fill="#999999" stroke="black" stroke-width="0.42237"/>
<path d="M126.427 115.547L134.235 114.359V116.736L126.427 117.924V115.547Z" fill="#999999" stroke="black" stroke-width="0.42237"/>
<path d="M126.427 110.79L134.235 109.602V111.978L126.427 113.166V110.79Z" fill="#999999" stroke="black" stroke-width="0.42237"/>
<path d="M126.427 120.297L134.235 123.267V125.643L126.427 122.673V120.297Z" fill="#E5E5E5" stroke="black" stroke-width="0.42237"/>
<path d="M126.427 115.547L134.235 119.111V120.893L126.427 117.923V115.547Z" fill="#E5E5E5" stroke="black" stroke-width="0.42237"/>
<path d="M126.427 111.383L134.235 114.353V116.729L126.427 113.165V111.383Z" fill="#E5E5E5" stroke="black" stroke-width="0.42237"/>
<path d="M126.427 106.633L134.235 109.603V111.979L126.427 109.009V106.633Z" fill="#E5E5E5" stroke="black" stroke-width="0.42237"/>
<path d="M122.522 149.997L125.826 125.047H135.135L138.138 149.997H122.522Z" fill="#E5E5E5" stroke="black" stroke-width="0.42237"/>
<path d="M124.024 125.047H136.637V128.017H124.024V125.047Z" fill="#CCCCCC" stroke="black" stroke-width="0.42237"/>
<path d="M124.024 106.63H136.637V105.442H135.136V81.9766H128.829V86.135H125.826V105.442H124.024V106.63Z" fill="#E5E5E5" stroke="black" stroke-width="0.42237"/>
<path d="M46.8467 100.695L49.9998 116.141H59.3091L62.3121 100.695H46.8467Z" fill="#E5E5E5" stroke="black" stroke-width="0.42237"/>
<path d="M106.307 100.695L109.31 116.141H118.619L121.922 100.695H106.307Z" fill="#E5E5E5" stroke="black" stroke-width="0.42237"/>
</g>
<defs>
<clipPath id="clip0_2109_200792">
<rect width="150" height="150" fill="white"/>
</clipPath>
</defs>
</svg>
