<svg width="150" height="150" viewBox="0 0 150 150" fill="none" xmlns="http://www.w3.org/2000/svg">
<g clip-path="url(#clip0_2109_204221)">
<path d="M57.958 107.731L7.95801 121.284V22.9688L57.958 36.5216V107.731Z" fill="#999999" stroke="black" stroke-width="0.371434"/>
<path d="M57.958 39.5078H7.95801V104.975H57.958V39.5078Z" fill="#CCCCCC" stroke="black" stroke-width="0.371434"/>
<path d="M7.95801 69.6036L25.8259 66.8471L40.0901 61.3341L45.3454 47.7812V96.939L40.0901 83.1564L25.8259 77.6434L7.95801 74.8869V69.6036Z" fill="#A6A6A6"/>
<path d="M7.95801 74.8849H45.3454V69.6016H7.95801V74.8849Z" fill="#CCCCCC" stroke="black" stroke-width="0.371434"/>
<path d="M136.487 143.341V34H125.676V143.341H136.487Z" fill="#B2B2B2" stroke="black" stroke-width="0.371434"/>
<path d="M57.958 143.341V34H68.6187V143.341H57.958Z" fill="#B2B2B2"/>
<path d="M136.487 101.529V42.9531H125.676V101.529H136.487Z" fill="#BFBFBF"/>
<path d="M57.8076 101.529V42.9531H68.6184V101.529H57.8076Z" fill="#BFBFBF"/>
<path d="M136.487 97.1672V47.3203H125.676V97.1672H136.487Z" fill="#D9D9D9"/>
<path d="M57.8076 97.1672V47.3203H68.6184V97.1672H57.8076Z" fill="#D9D9D9"/>
<path d="M136.487 83.6162V60.875H125.676V83.6162H136.487Z" fill="#E5E5E5"/>
<path d="M57.8076 83.6162V60.875H68.6184V83.6162H57.8076Z" fill="#E5E5E5"/>
<path d="M57.8076 143.341V34H68.6184V143.341H57.8076Z" stroke="black" stroke-width="0.371434"/>
<path d="M134.685 96.9375H127.478V110.49H134.685V96.9375Z" fill="#E5E5E5" stroke="black" stroke-width="0.371434"/>
<path d="M59.7598 96.9375H66.8168V110.49H59.7598V96.9375Z" fill="#E5E5E5" stroke="black" stroke-width="0.371434"/>
<path d="M57.958 116H65.0151V137.822H57.958V116Z" fill="#7F7F7F" stroke="black" stroke-width="0.371434"/>
<path d="M136.336 116H129.279V137.822H136.336V116Z" fill="#7F7F7F" stroke="black" stroke-width="0.371434"/>
<path d="M68.6191 104.975V39.5078H125.826V104.975H68.6191Z" fill="#E5E5E5"/>
<path d="M68.6191 104.977L86.487 143.338H107.958L125.826 104.977H68.6191Z" fill="#CCCCCC"/>
<path d="M75.8262 28.4864L82.8832 6.66406H111.562L118.619 28.4864H75.8262Z" fill="#999999" stroke="black" stroke-width="0.371434"/>
<path d="M68.6182 39.5099V28.4838H90.0896V17.6875H104.354V28.4838H125.825V39.5099H68.6182Z" fill="#CCCCCC" stroke="black" stroke-width="0.371434"/>
<path d="M118.619 148.849H75.8262V143.336H118.619V148.849Z" fill="#7F7F7F"/>
<path d="M118.619 6.66145H75.8262V1.14844H118.619V6.66145Z" fill="#7F7F7F"/>
<path d="M0.750977 126.799V17.6875H7.95818V126.799H0.750977Z" fill="#7F7F7F"/>
<path d="M113.514 148.849H80.7812V143.336H113.514V148.849Z" fill="#A1A1A1"/>
<path d="M113.664 6.66145H80.7812V1.14844H113.664V6.66145Z" fill="#A1A1A1"/>
<path d="M0.750977 114.164V30.3203H7.95818V114.164H0.750977Z" fill="#A1A1A1"/>
<path d="M111.112 148.849H83.1836V143.336H111.112V148.849Z" fill="#C4C4C4"/>
<path d="M0.750977 107.733V36.5234H7.95818V107.733H0.750977Z" fill="#C4C4C4"/>
<path d="M111.112 6.66145H83.1836V1.14844H111.112V6.66145Z" fill="#C4C4C4"/>
<path d="M103.604 6.66145H90.8408V1.14844H103.604V6.66145Z" fill="#E5E5E5"/>
<path d="M0.750977 88.6687V55.8203H7.95818V88.6687H0.750977Z" fill="#E5E5E5"/>
<path d="M103.754 148.849H90.8408V143.336H103.754V148.849Z" fill="#E5E5E5"/>
<path d="M116.967 102.451V80.3984H112.463V99.694H108.859V80.3984H103.454V99.694H100V80.3984H94.5949V99.4643L90.9913 99.694V80.3984H85.736V99.694L82.1324 99.4643V80.3984H77.6279V102.451H116.967Z" fill="#7F7F7F" stroke="black" stroke-width="0.371434"/>
<path d="M77.6279 42.2656V74.8843H81.9823V42.2656H85.5859V74.8843H90.9913V42.2656H94.4447V74.8843H99.8502V42.2656H103.454V74.8843H108.709V42.2656H112.313V74.8843H116.817V42.2656H77.6279Z" fill="#7F7F7F" stroke="black" stroke-width="0.371434"/>
<path d="M86.487 143.336L68.6191 104.975V39.5078H125.826V104.975L107.958 143.336H86.487Z" stroke="black" stroke-width="0.371434"/>
<path d="M136.486 44.7969H147.297L149.099 47.5534V96.7111L147.297 99.4676H136.486V44.7969Z" fill="#7F7F7F" stroke="black" stroke-width="0.371434"/>
<path d="M57.9583 99.4676H47.2977L45.3457 96.9408V47.5534L47.2977 44.7969H57.9583V99.4676Z" fill="#7F7F7F" stroke="black" stroke-width="0.371434"/>
<path d="M136.486 50.3047H147.297L149.099 52.3721V92.1117L147.297 94.1791H136.486V50.3047Z" fill="#A1A1A1"/>
<path d="M57.9583 94.1823H47.2977L45.3457 91.8852V52.3752L47.2977 50.0781H57.9583V94.1823Z" fill="#A1A1A1"/>
<path d="M136.486 53.0625H147.297L149.099 54.6705V89.8159L147.297 91.6536H136.486V53.0625Z" fill="#C4C4C4"/>
<path d="M57.9583 91.4271H47.2977L45.3457 89.5894V54.6736L47.2977 52.8359H57.9583V91.4271Z" fill="#C4C4C4"/>
<path d="M136.486 61.1016H147.297L149.099 62.2501V82.0051L147.297 83.1536H136.486V61.1016Z" fill="#E5E5E5"/>
<path d="M57.9583 83.1536H47.2977L45.3457 82.2348V62.2501L47.2977 61.1016H57.9583V83.1536Z" fill="#E5E5E5"/>
<path d="M118.619 148.849H75.8262V143.336H118.619V148.849Z" stroke="black" stroke-width="0.371434"/>
<path d="M118.619 6.66145H75.8262V1.14844H118.619V6.66145Z" stroke="black" stroke-width="0.371434"/>
<path d="M0.750977 126.799V17.6875H7.95818V126.799H0.750977Z" stroke="black" stroke-width="0.371434"/>
</g>
<defs>
<clipPath id="clip0_2109_204221">
<rect width="150" height="150" fill="white"/>
</clipPath>
</defs>
</svg>
