<svg width="150" height="150" viewBox="0 0 150 150" fill="none" xmlns="http://www.w3.org/2000/svg">
<g clip-path="url(#clip0_2109_200736)">
<path d="M129.264 56.0037C134.172 56.0037 138.151 53.7853 138.151 51.0487C138.151 48.3122 134.172 46.0938 129.264 46.0938C124.356 46.0938 120.377 48.3122 120.377 51.0487C120.377 53.7853 124.356 56.0037 129.264 56.0037Z" fill="#E5E5E5" stroke="black" stroke-width="0.402171"/>
<path d="M129.803 61.7116L140.306 54.8047H123.07V61.7116H129.803Z" fill="#7F7F7F" stroke="black" stroke-width="0.402171"/>
<path d="M120.377 76.2734H150V128.075H120.377V76.2734Z" fill="#999999" stroke="black" stroke-width="0.402171"/>
<path d="M140.306 110.812L145.691 117.719V130.332H123.07V117.719L128.456 110.812H140.306Z" fill="#CCCCCC" stroke="black" stroke-width="0.402171"/>
<path d="M135.457 110.812L136.804 117.719V130.332H131.418V117.719L132.764 110.812H135.457Z" fill="white"/>
<path d="M140.306 110.81L145.691 93.8431V61.7109H123.07V93.8431L128.456 110.81H140.306Z" fill="#CCCCCC" stroke="black" stroke-width="0.402171"/>
<path d="M135.457 110.81L136.804 93.8431V61.7109H131.418V93.8431L132.764 110.81H135.457Z" fill="white"/>
<path d="M5.38636 89.6406L2.69336 95.046H23.968L21.275 89.6406H5.38636Z" fill="#B2B2B2" stroke="black" stroke-width="0.402171"/>
<path d="M67.3252 131.078L70.0182 137.234H86.7148L89.4078 131.078H67.3252Z" fill="#7F7F7F" stroke="black" stroke-width="0.402171"/>
<path d="M33.6621 109.312L55.7447 131.084H100.448L123.07 109.312H33.6621Z" fill="#666666" stroke="black" stroke-width="0.402171"/>
<path d="M40.3945 109.312L58.9762 131.084H96.9475L116.068 109.312H40.3945Z" fill="#7F7F7F"/>
<path d="M55.7451 109.312L67.325 131.084H89.4076L100.449 109.312H55.7451Z" fill="#999999"/>
<path d="M74.0576 109.312L76.212 131.084H80.5208L82.4059 109.312H74.0576Z" fill="#B2B2B2"/>
<path d="M36.3557 132.733H32.8548L21.8135 118.469H47.397L36.3557 132.733Z" fill="#999999"/>
<path d="M36.3555 132.733H33.6625L26.1221 118.469H43.8959L36.3555 132.733Z" fill="#B2B2B2"/>
<path d="M35.0089 132.733L32.8545 118.469H36.3554L35.0089 132.733Z" fill="#CCCCCC"/>
<path d="M36.3557 132.733H32.8548L21.8135 118.469H47.397L36.3557 132.733Z" stroke="black" stroke-width="0.402171"/>
<path d="M33.6621 43.6953H123.07V103.155H33.6621V43.6953Z" fill="#666666" stroke="black" stroke-width="0.402171"/>
<path d="M40.3945 43.6953H116.068V103.155H40.3945V43.6953Z" fill="#7F7F7F"/>
<path d="M55.7451 43.6953H100.449V103.155H55.7451V43.6953Z" fill="#999999"/>
<path d="M74.0576 43.6953H82.4059V103.155H74.0576V43.6953Z" fill="#B2B2B2"/>
<path d="M28.0068 37.5391H128.456V43.6952H28.0068V37.5391Z" fill="#CCCCCC" stroke="black" stroke-width="0.402171"/>
<path d="M28.0071 143.845H22.6211V37.5391H28.0071V143.845Z" fill="#CCCCCC" stroke="black" stroke-width="0.402171"/>
<path d="M134.111 143.845H128.456V37.5391H134.111V143.845Z" fill="#CCCCCC" stroke="black" stroke-width="0.402171"/>
<path d="M28.0068 103.156H128.456V109.312H28.0068V103.156Z" fill="#CCCCCC" stroke="black" stroke-width="0.402171"/>
<path d="M28.0068 137.234H128.456V140.388H28.0068V137.234Z" fill="#CCCCCC" stroke="black" stroke-width="0.402171"/>
<path d="M19.1201 147.594H30.9693V149.996H19.1201V147.594Z" fill="#CCCCCC" stroke="black" stroke-width="0.402171"/>
<path d="M23.9678 143.844H26.6608V147.598H23.9678V143.844Z" fill="#7F7F7F" stroke="black" stroke-width="0.402171"/>
<path d="M125.763 147.594H136.804V149.996H125.763V147.594Z" fill="#CCCCCC" stroke="black" stroke-width="0.402171"/>
<path d="M129.803 143.844H132.765V147.598H129.803V143.844Z" fill="#7F7F7F" stroke="black" stroke-width="0.402171"/>
<path d="M25.3145 37.536H28.0075V1.5H25.3145V37.536Z" fill="#999999" stroke="black" stroke-width="0.402171"/>
<path d="M128.456 37.536H131.418V1.5H128.456V37.536Z" fill="#999999" stroke="black" stroke-width="0.402171"/>
<path d="M36.3555 43.6937H39.0485V0H36.3555V43.6937Z" fill="#B2B2B2" stroke="black" stroke-width="0.402171"/>
<path d="M117.415 43.6937H120.377V0H117.415V43.6937Z" fill="#B2B2B2" stroke="black" stroke-width="0.402171"/>
<path d="M25.3145 1.5015L36.3557 0V1.5015L25.3145 3.003V1.5015Z" fill="#999999" stroke="black" stroke-width="0.402171"/>
<path d="M36.3555 0H120.377V1.5015H36.3555V0Z" fill="#B2B2B2" stroke="black" stroke-width="0.402171"/>
<path d="M120.377 0L131.418 1.5015V3.003L120.377 1.5015V0Z" fill="#999999" stroke="black" stroke-width="0.402171"/>
<path d="M36.3555 21.7734H120.377V23.2749H36.3555V21.7734Z" fill="#B2B2B2" stroke="black" stroke-width="0.402171"/>
<path d="M25.3145 22.5242L36.3557 21.7734V23.2749L25.3145 24.0257V22.5242Z" fill="#999999" stroke="black" stroke-width="0.402171"/>
<path d="M120.377 21.7734L131.418 22.5242V24.0257L120.377 23.2749V21.7734Z" fill="#999999" stroke="black" stroke-width="0.402171"/>
<path d="M22.6211 103.156V116.97H30.9694L55.745 107.661V103.156H22.6211Z" fill="#E5E5E5" stroke="black" stroke-width="0.402171"/>
<path d="M48.7432 60.0625H107.989V92.7952H48.7432V60.0625Z" fill="#B2B2B2" stroke="black" stroke-width="0.402171"/>
<path d="M57.0918 64.7109H99.6412V88.1344H57.0918V64.7109Z" fill="#CCCCCC" stroke="black" stroke-width="0.402171"/>
<path d="M70.0176 66.3672H89.4072V86.6375H70.0176V66.3672Z" fill="#B2B2B2" stroke="black" stroke-width="0.402171"/>
<path d="M79.7129 68.6172H85.0989V84.383H79.7129V68.6172Z" fill="#4C4C4C" stroke="black" stroke-width="0.402171"/>
<path d="M52.7832 68.6172H63.2859V70.1187H52.7832V68.6172Z" fill="#E5E5E5" stroke="black" stroke-width="0.402171"/>
<path d="M52.7832 82.7344H63.2859V84.386H52.7832V82.7344Z" fill="#E5E5E5" stroke="black" stroke-width="0.402171"/>
<path d="M93.4473 68.6172H103.681V70.1187H93.4473V68.6172Z" fill="#E5E5E5" stroke="black" stroke-width="0.402171"/>
<path d="M93.4473 82.7344H103.681V84.386H93.4473V82.7344Z" fill="#E5E5E5" stroke="black" stroke-width="0.402171"/>
<path d="M33.6621 132.734H36.3551V137.239H33.6621V132.734Z" fill="#999999" stroke="black" stroke-width="0.402171"/>
<path d="M22.6212 66.368H0V62.4641L0.2693 59.9115L0.807899 57.5091L1.6158 55.407L2.1544 53.4551L2.693 51.8034L3.5009 50.4521L4.8474 48.8004L6.4632 47.4491L8.61759 46.2479L10.772 45.347L13.465 44.7464L15.8887 44.2959L18.851 43.9956L21.544 43.8455L22.6212 43.6953V66.368Z" fill="#E5E5E5" stroke="black" stroke-width="0.402171"/>
<path d="M0 66.3672H22.6212V89.6405H0V66.3672Z" fill="#E5E5E5" stroke="black" stroke-width="0.402171"/>
<path d="M128.456 70.8702V67.8672L120.915 68.9182L114.991 72.0714L112.028 76.4257V77.4768V137.237H117.414V77.4768L120.107 73.2726L126.301 71.0203L128.456 70.8702Z" fill="#B2B2B2" stroke="black" stroke-width="0.402171"/>
</g>
<defs>
<clipPath id="clip0_2109_200736">
<rect width="150" height="150" fill="white"/>
</clipPath>
</defs>
</svg>
