<svg width="150" height="150" viewBox="0 0 150 150" fill="none" xmlns="http://www.w3.org/2000/svg">
<g clip-path="url(#clip0_2109_204300)">
<path d="M74.9252 142.942C112.491 142.942 142.943 112.49 142.943 74.9243C142.943 37.359 112.491 6.90625 74.9252 6.90625C37.3599 6.90625 6.90723 37.359 6.90723 74.9243C6.90723 112.49 37.3599 142.942 74.9252 142.942Z" fill="#CCCCCC" stroke="black" stroke-width="0.3003"/>
<path d="M149.249 0.601562V50.1511H74.7744V0.601562H149.249Z" fill="#BFBFBF" stroke="black" stroke-width="0.3003"/>
<path d="M0.600586 75.0781H50.1501V149.252H0.600586V75.0781Z" fill="#BFBFBF" stroke="black" stroke-width="0.3003"/>
<path d="M149.249 6.90625V44.1435H74.7744V6.90625H149.249Z" fill="#D9D9D9"/>
<path d="M6.90723 75.0781H43.9943V149.252H6.90723V75.0781Z" fill="#D9D9D9"/>
<path d="M149.249 13.2109V37.8356H74.7744V13.2109H149.249Z" fill="#E5E5E5"/>
<path d="M13.0635 75.0781H37.8383V149.252H13.0635V75.0781Z" fill="#E5E5E5"/>
<path d="M149.249 19.2188V31.5311H74.7744V19.2188H149.249Z" fill="#F2F2F2"/>
<path d="M19.3691 75.0781H31.5313V149.252H19.3691V75.0781Z" fill="#F2F2F2"/>
<path d="M74.925 112.01C95.4076 112.01 112.012 95.4057 112.012 74.923C112.012 54.4404 95.4076 37.8359 74.925 37.8359C54.4423 37.8359 37.8379 54.4404 37.8379 74.923C37.8379 95.4057 54.4423 112.01 74.925 112.01Z" fill="#CCCCCC" stroke="black" stroke-width="0.3003"/>
<path d="M74.925 102.856C90.3492 102.856 102.853 90.3521 102.853 74.9279C102.853 59.5038 90.3492 47 74.925 47C59.5008 47 46.9971 59.5038 46.9971 74.9279C46.9971 90.3521 59.5008 102.856 74.925 102.856Z" fill="#E5E5E5" stroke="black" stroke-width="0.3003"/>
</g>
<defs>
<clipPath id="clip0_2109_204300">
<rect width="150" height="150" fill="white"/>
</clipPath>
</defs>
</svg>
