<svg width="150" height="150" viewBox="0 0 150 150" fill="none" xmlns="http://www.w3.org/2000/svg">
<g clip-path="url(#clip0_2109_204672)">
<path d="M0 149.85V131.081H26.3083L35.6436 116.667L24.8232 110.36L16.1245 102.703L9.54738 93.994L5.51627 84.6847L4.24328 74.9249L5.51627 65.1652L9.54738 55.8559L15.9123 47.1471L24.8232 39.4895L35.6436 33.3333L26.5205 18.6186H0V0H149.788L150 18.6186H123.267L114.144 33.3333L124.965 39.6396L133.663 47.1471L140.028 55.8559L144.059 65.1652L145.545 74.9249L144.272 84.6847L140.24 94.1441L133.663 102.703L124.965 110.36L114.144 116.667L123.479 131.081H149.788L150 149.85H0Z" fill="#00FFFF"/>
<path d="M8.69922 74.9219H141.09" stroke="black" stroke-width="0.356968"/>
<path d="M28.0059 108.109L121.782 41.7422" stroke="black" stroke-width="0.356968"/>
<path d="M74.8936 121.772V28.0781" stroke="black" stroke-width="0.356968"/>
<path d="M121.782 108.109L28.0059 41.7422" stroke="black" stroke-width="0.356968"/>
<path d="M114.569 0H149.788L150 18.6186H123.268L114.145 33.3333L124.965 39.6396L133.664 47.1471L140.029 55.8559L144.06 65.1652L145.545 74.9249L144.272 84.6847L140.241 94.1441L133.664 102.703L124.965 110.36L114.145 116.667L123.48 131.081H149.788L150 150L114.569 149.85" stroke="black" stroke-width="0.356968"/>
<path d="M35.2192 149.85L0 150V131.081H26.3083L35.6436 116.667L24.8232 110.36L16.1245 102.703L9.54738 93.994L5.51627 84.6847L4.24328 74.9249L5.51627 65.1652L9.54738 55.8559L15.9123 47.1471L24.8232 39.4895L35.6436 33.3333L26.5205 18.6186H0V0H35.2192" stroke="black" stroke-width="0.356968"/>
</g>
<defs>
<clipPath id="clip0_2109_204672">
<rect width="150" height="150" fill="white"/>
</clipPath>
</defs>
</svg>
