<svg width="150" height="150" viewBox="0 0 150 150" fill="none" xmlns="http://www.w3.org/2000/svg">
<path d="M75.0003 140.944C110.257 140.944 138.838 117.756 138.838 89.1518C138.838 60.5476 110.257 37.3594 75.0003 37.3594C39.744 37.3594 11.1631 60.5476 11.1631 89.1518C11.1631 117.756 39.744 140.944 75.0003 140.944Z" fill="#CCCCCC" stroke="black" stroke-width="0.628419"/>
<path d="M80.9307 89.1479V32.5441L83.3725 4.24219H141.977L144.768 32.5441V89.1479H80.9307Z" fill="#BFBFBF"/>
<path d="M5.23242 32.5469V70.1884H74.9999V32.5469H5.23242Z" fill="#BFBFBF"/>
<path d="M74.9999 145.751V108.109H5.23242V145.751H74.9999Z" fill="#BFBFBF"/>
<path d="M88.6045 89.1479V32.5441L90.6975 4.24219H134.651L136.744 32.5441V89.1479H88.6045Z" fill="#D9D9D9"/>
<path d="M5.23242 37.3594V65.6613H74.9999V37.3594H5.23242Z" fill="#D9D9D9"/>
<path d="M74.9999 140.943V112.641H5.23242V140.943H74.9999Z" fill="#D9D9D9"/>
<path d="M96.9766 89.1479V32.5441L98.0231 4.24219H127.325L128.721 32.5441V89.1479H96.9766Z" fill="#E5E5E5"/>
<path d="M5.23242 41.8906V60.8529H74.9999V41.8906H5.23242Z" fill="#E5E5E5"/>
<path d="M74.9999 136.415V117.453H5.23242V136.415H74.9999Z" fill="#E5E5E5"/>
<path d="M104.651 89.1479V32.5441L105.349 4.24219H120L120.698 32.5441V89.1479H104.651Z" fill="#F2F2F2"/>
<path d="M74.9999 131.605V122.266H5.23242V131.605H74.9999Z" fill="#F2F2F2"/>
<path d="M5.23242 46.6953V56.0349H74.9999V46.6953H5.23242Z" fill="#F2F2F2"/>
<path d="M80.9307 32.5469H144.768" stroke="black" stroke-width="0.628419"/>
<path d="M80.9307 89.1479V32.5441L83.3725 4.24219H141.977L144.768 32.5441V89.1479H80.9307Z" stroke="black" stroke-width="0.628419"/>
<path d="M5.23242 32.5469V70.1884H74.9999V32.5469H5.23242Z" stroke="black" stroke-width="0.628419"/>
<path d="M74.9999 145.751V108.109H5.23242V145.751H74.9999Z" stroke="black" stroke-width="0.628419"/>
<path d="M74.9999 117.455C94.2657 117.455 109.884 104.784 109.884 89.1535C109.884 73.5227 94.2657 60.8516 74.9999 60.8516C55.7342 60.8516 40.1162 73.5227 40.1162 89.1535C40.1162 104.784 55.7342 117.455 74.9999 117.455Z" fill="#CCCCCC" stroke="black" stroke-width="0.628419"/>
<path d="M74.9997 110.375C89.449 110.375 101.162 100.871 101.162 89.1483C101.162 77.4253 89.449 67.9219 74.9997 67.9219C60.5504 67.9219 48.8369 77.4253 48.8369 89.1483C48.8369 100.871 60.5504 110.375 74.9997 110.375Z" fill="#E5E5E5" stroke="black" stroke-width="0.628419"/>
</svg>
