<svg width="150" height="150" viewBox="0 0 150 150" fill="none" xmlns="http://www.w3.org/2000/svg">
<path d="M75.0003 140.944C110.257 140.944 138.838 117.756 138.838 89.1518C138.838 60.5476 110.257 37.3594 75.0003 37.3594C39.744 37.3594 11.1631 60.5476 11.1631 89.1518C11.1631 117.756 39.744 140.944 75.0003 140.944Z" fill="#CCCCCC" stroke="black" stroke-width="0.628419"/>
<path d="M69.0696 89.1479V32.5441L66.6278 4.24219H8.02312L5.23242 32.5441V89.1479H69.0696Z" fill="#BFBFBF"/>
<path d="M144.767 32.5469V70.1884H75V32.5469H144.767Z" fill="#BFBFBF"/>
<path d="M75 145.751V108.109H144.767V145.751H75Z" fill="#BFBFBF"/>
<path d="M61.3954 89.1479V32.5441L59.3024 4.24219H15.3489L13.2559 32.5441V89.1479H61.3954Z" fill="#D9D9D9"/>
<path d="M144.767 37.3594V65.6613H75V37.3594H144.767Z" fill="#D9D9D9"/>
<path d="M75 140.943V112.641H144.767V140.943H75Z" fill="#D9D9D9"/>
<path d="M53.0235 89.1479V32.5441L51.977 4.24219H22.6746L21.2793 32.5441V89.1479H53.0235Z" fill="#E5E5E5"/>
<path d="M144.767 41.8906V60.8529H75V41.8906H144.767Z" fill="#E5E5E5"/>
<path d="M75 136.415V117.453H144.767V136.415H75Z" fill="#E5E5E5"/>
<path d="M45.3492 89.1479V32.5441L44.6516 4.24219H30.0004L29.3027 32.5441V89.1479H45.3492Z" fill="#F2F2F2"/>
<path d="M75 131.605V122.266H144.767V131.605H75Z" fill="#F2F2F2"/>
<path d="M144.767 46.6953V56.0349H75V46.6953H144.767Z" fill="#F2F2F2"/>
<path d="M69.0696 32.5469H5.23242" stroke="black" stroke-width="0.628419"/>
<path d="M69.0696 89.1479V32.5441L66.6278 4.24219H8.02312L5.23242 32.5441V89.1479H69.0696Z" stroke="black" stroke-width="0.628419"/>
<path d="M144.767 32.5469V70.1884H75V32.5469H144.767Z" stroke="black" stroke-width="0.628419"/>
<path d="M75 145.751V108.109H144.767V145.751H75Z" stroke="black" stroke-width="0.628419"/>
<path d="M74.9999 117.455C94.2657 117.455 109.884 104.784 109.884 89.1535C109.884 73.5227 94.2657 60.8516 74.9999 60.8516C55.7342 60.8516 40.1162 73.5227 40.1162 89.1535C40.1162 104.784 55.7342 117.455 74.9999 117.455Z" fill="#CCCCCC" stroke="black" stroke-width="0.628419"/>
<path d="M74.9997 110.375C89.449 110.375 101.162 100.871 101.162 89.1483C101.162 77.4253 89.449 67.9219 74.9997 67.9219C60.5504 67.9219 48.8369 77.4253 48.8369 89.1483C48.8369 100.871 60.5504 110.375 74.9997 110.375Z" fill="#E5E5E5" stroke="black" stroke-width="0.628419"/>
</svg>
