<svg width="150" height="150" viewBox="0 0 150 150" fill="none" xmlns="http://www.w3.org/2000/svg">
<g clip-path="url(#clip0_2109_204532)">
<path d="M150 0V150H63.1579V124.625H27.4436V134.084H47.3684V150H0V134.084H19.5489V121.471H63.1579V44.8949L43.2331 53.6036V85.1351L63.1579 93.8438V100.15L31.5789 87.5375V51.2012L63.1579 38.5886V0H150Z" fill="#00FFFF"/>
<path d="M67.293 124.773H74.8118" stroke="black" stroke-width="0.475173"/>
<path d="M78.9473 124.773H86.842" stroke="black" stroke-width="0.475173"/>
<path d="M90.9775 124.773H98.8723" stroke="black" stroke-width="0.475173"/>
<path d="M102.632 124.773H110.527" stroke="black" stroke-width="0.475173"/>
<path d="M114.286 124.773H122.181" stroke="black" stroke-width="0.475173"/>
<path d="M126.315 124.773H134.21" stroke="black" stroke-width="0.475173"/>
<path d="M138.346 124.773H145.865" stroke="black" stroke-width="0.475173"/>
<path d="M67.293 100.898H74.8118" stroke="black" stroke-width="0.475173"/>
<path d="M78.9473 100.898H86.842" stroke="black" stroke-width="0.475173"/>
<path d="M90.9775 100.898H98.8723" stroke="black" stroke-width="0.475173"/>
<path d="M102.632 100.898H110.527" stroke="black" stroke-width="0.475173"/>
<path d="M114.286 100.898H122.181" stroke="black" stroke-width="0.475173"/>
<path d="M126.315 100.898H134.21" stroke="black" stroke-width="0.475173"/>
<path d="M138.346 100.898H145.865" stroke="black" stroke-width="0.475173"/>
<path d="M106.391 81.983C123.832 81.983 137.97 76.3362 137.97 69.3704C137.97 62.4047 123.832 56.7578 106.391 56.7578C88.9509 56.7578 74.8125 62.4047 74.8125 69.3704C74.8125 76.3362 88.9509 81.983 106.391 81.983Z" stroke="black" stroke-width="0.475173"/>
<path d="M106.391 56.7547V53.6016" stroke="black" stroke-width="0.475173"/>
<path d="M94.361 57.6575L91.3535 54.8047" stroke="black" stroke-width="0.475173"/>
<path d="M84.2104 60.5101L78.5713 58.2578" stroke="black" stroke-width="0.475173"/>
<path d="M77.4436 64.5684L69.9248 63.3672" stroke="black" stroke-width="0.475173"/>
<path d="M74.8117 69.3672H66.917" stroke="black" stroke-width="0.475173"/>
<path d="M77.4436 74.1719L69.9248 75.5232" stroke="black" stroke-width="0.475173"/>
<path d="M84.2104 78.375L78.5713 80.6273" stroke="black" stroke-width="0.475173"/>
<path d="M94.361 81.0781L91.3535 83.931" stroke="black" stroke-width="0.475173"/>
<path d="M106.391 81.9844V85.1375" stroke="black" stroke-width="0.475173"/>
<path d="M118.797 81.0781L121.804 83.931" stroke="black" stroke-width="0.475173"/>
<path d="M128.947 78.375L134.586 80.6273" stroke="black" stroke-width="0.475173"/>
<path d="M135.714 74.1719L143.233 75.5232" stroke="black" stroke-width="0.475173"/>
<path d="M138.346 69.3672H146.24" stroke="black" stroke-width="0.475173"/>
<path d="M135.714 64.5684L143.233 63.3672" stroke="black" stroke-width="0.475173"/>
<path d="M128.947 60.5101L134.586 58.2578" stroke="black" stroke-width="0.475173"/>
<path d="M118.797 57.6575L121.804 54.8047" stroke="black" stroke-width="0.475173"/>
<path d="M86.8424 47.2973L63.1582 37.8378H90.6018L63.1582 0" stroke="black" stroke-width="0.475173"/>
<path d="M126.316 47.2973L150 37.8378H122.557L150 0" stroke="black" stroke-width="0.475173"/>
<path d="M150 0V150H63.1579V124.625H27.4436V134.084H47.3684V150H0V134.084H19.5489V121.471H63.1579V100.15L31.5789 87.5375V51.2012L63.1579 38.5886V0H150Z" stroke="black" stroke-width="0.475173"/>
<path d="M63.1582 44.8984L43.2334 53.6071V85.1387L63.1582 93.8474V44.8984Z" stroke="black" stroke-width="0.475173"/>
</g>
<defs>
<clipPath id="clip0_2109_204532">
<rect width="150" height="150" fill="white"/>
</clipPath>
</defs>
</svg>
