<svg width="150" height="150" viewBox="0 0 150 150" fill="none" xmlns="http://www.w3.org/2000/svg">
<g clip-path="url(#clip0_2109_202392)">
<path d="M61.2613 7.14608L146.096 68.8524V121.035H6.75684V49.0112L7.20729 41.6699L8.40849 34.7254L10.3604 28.1778L12.913 22.027L16.2163 16.6699L19.97 11.908L24.3244 7.93973L28.9791 4.56672L34.0842 2.38418L39.3394 1.1937L41.2914 0.995288L43.0932 0.796875H44.2944L48.949 1.59053L53.6037 2.97941L58.1082 4.96354L61.2613 7.14608Z" fill="#E56500" stroke="black" stroke-width="0.345205"/>
<path d="M91.5918 118.055H109.76V124.007H91.5918V118.055Z" fill="#7F7F7F" stroke="black" stroke-width="0.345205"/>
<path d="M91.5918 119.242H109.76V122.814H91.5918V119.242Z" fill="#B2B2B2"/>
<path d="M91.5918 120.438H109.76V121.628H91.5918V120.438Z" fill="#E5E5E5"/>
<path d="M52.252 80.9531H89.339V121.032H52.252V80.9531Z" fill="#666666" stroke="black" stroke-width="0.345205"/>
<path d="M9.75977 80.9531H52.2523V121.032H9.75977V80.9531Z" fill="#999999" stroke="black" stroke-width="0.345205"/>
<path d="M37.8379 50.396L39.94 74.2055L88.1382 66.8642L85.8859 43.0547L37.8379 50.396Z" fill="#7F7F7F" stroke="black" stroke-width="0.345205"/>
<path d="M55.2549 117.062H91.5912V124.999H55.2549V117.062Z" fill="#BFBFBF" stroke="black" stroke-width="0.345205"/>
<path d="M6.75684 73.0156H55.2553V80.9521H6.75684V73.0156Z" fill="#BFBFBF" stroke="black" stroke-width="0.345205"/>
<path d="M6.75684 97.0234H55.2553V104.96H6.75684V97.0234Z" fill="#BFBFBF" stroke="black" stroke-width="0.345205"/>
<path d="M6.75684 121.031H55.2553V128.968H6.75684V121.031Z" fill="#BFBFBF" stroke="black" stroke-width="0.345205"/>
<path d="M15.7658 73.0157L9.75977 52.9761L55.2553 49.0078V73.0157H15.7658Z" fill="#A6A6A6" stroke="black" stroke-width="0.345205"/>
<path d="M71.9219 125H80.9309V132.937H71.9219V125Z" fill="#7F7F7F" stroke="black" stroke-width="0.345205"/>
<path d="M23.4238 128.969H32.4328V132.937H23.4238V128.969Z" fill="#7F7F7F" stroke="black" stroke-width="0.345205"/>
<path d="M109.76 130.951H149.249V117.062H109.76V130.951Z" fill="#CCCCCC" stroke="black" stroke-width="0.345205"/>
<path d="M0.600586 137.102H146.096V149.006H0.600586V137.102Z" fill="#CCCCCC" stroke="black" stroke-width="0.345205"/>
<path d="M118.919 113.094H143.093V117.062H118.919V113.094Z" fill="#333333"/>
<path d="M120.12 111.31L115.766 97.0241L120.12 82.5399L131.081 76.9844L141.892 82.5399L146.246 97.0241L141.892 111.31L131.081 117.064L120.12 111.31Z" fill="#666666" stroke="black" stroke-width="0.345205"/>
<path d="M121.772 109.128L118.168 97.0244L121.772 84.7228L131.081 79.9609L140.24 84.7228L143.844 97.0244L140.24 109.128L131.081 114.088L121.772 109.128Z" fill="#7F7F7F"/>
<path d="M125.526 104.168L123.424 97.0253L125.526 89.8824L131.081 86.9062L136.487 89.8824L138.589 97.0253L136.487 104.168L131.081 106.946L125.526 104.168Z" fill="#333333"/>
<path d="M131.081 106.946V86.9062" stroke="#7F7F7F" stroke-width="0.345205"/>
<path d="M136.336 103.967L125.676 90.0781" stroke="#7F7F7F" stroke-width="0.345205"/>
<path d="M125.676 103.967L136.336 90.0781" stroke="#7F7F7F" stroke-width="0.345205"/>
<path d="M123.424 97.0234H138.589" stroke="#7F7F7F" stroke-width="0.345205"/>
<path d="M98.498 115.078H103.003V126.983H98.498V115.078Z" fill="#7F7F7F" stroke="black" stroke-width="0.345205"/>
<path d="M98.498 117.266H103.003V124.805H98.498V117.266Z" fill="#B2B2B2"/>
<path d="M98.498 119.844H103.003V122.225H98.498V119.844Z" fill="#E5E5E5"/>
<path d="M112.763 130.953H121.922V137.104H112.763V130.953Z" fill="#E5E5E5" stroke="black" stroke-width="0.345205"/>
<path d="M137.087 130.953H146.096V137.104H137.087V130.953Z" fill="#E5E5E5" stroke="black" stroke-width="0.345205"/>
<path d="M18.7686 132.938H37.0869V138.096H18.7686V132.938Z" fill="#E5E5E5" stroke="black" stroke-width="0.345205"/>
<path d="M67.2676 132.938H85.5859V138.096H67.2676V132.938Z" fill="#E5E5E5" stroke="black" stroke-width="0.345205"/>
<path d="M94.4442 83.9287L71.7715 31.9446L79.5793 25.9922L102.252 77.9763L94.4442 83.9287Z" fill="#B2B2B2" stroke="black" stroke-width="0.345205"/>
<path d="M71.7715 77.9763L94.4442 25.9922L102.402 31.9446L79.5793 83.9287L71.7715 77.9763Z" fill="#B2B2B2" stroke="black" stroke-width="0.345205"/>
<path d="M64.2646 49.0078H109.76V60.9126H64.2646V49.0078Z" fill="#B2B2B2" stroke="black" stroke-width="0.345205"/>
<path d="M87.0868 24.8027L91.8916 25.5964L96.3961 27.3821L100.15 30.3583L103.453 34.1281L106.156 38.6916L108.108 43.8503L109.309 49.2075L109.759 54.9614L109.309 60.9138L107.958 66.6678L105.856 71.6281L103.153 76.1916L99.6994 79.763L95.9456 82.5408L91.5913 84.3265L87.0868 84.9218L82.5823 84.3265L78.2279 82.5408L74.324 79.763L71.0207 76.1916L68.1679 71.6281L66.0658 66.6678L64.8646 60.9138L64.264 54.9614L64.8646 48.8106L66.0658 43.2551L68.1679 38.0964L71.0207 33.7313L74.324 29.9614L78.2279 27.1837L82.5823 25.5964L87.0868 24.8027V8.92969H85.285L80.0297 9.92175L75.0748 11.7075L70.4201 14.4852L66.2159 18.0567L62.4622 22.4218L59.1589 27.3821L56.4562 32.9376L54.3541 39.0884L53.0027 45.636L52.252 52.5805V54.9614V57.3424L53.0027 64.0884L54.3541 70.636L56.4562 76.7868L59.1589 82.5408L62.4622 87.5011L66.2159 91.8662L70.4201 95.4376L75.0748 98.2154L80.0297 100.001L85.285 100.993H87.0868H88.8886L93.9937 100.001L98.9487 98.2154L103.603 95.4376L107.808 91.6678L111.711 87.3027L115.015 82.3424L117.717 76.7868L119.82 70.636L121.171 64.0884L121.771 57.3424L121.922 54.9614L121.771 52.5805L121.171 45.4376L119.82 38.89L117.717 32.7392L115.165 27.1837L111.862 22.2233L108.108 17.8583L103.904 14.2868L99.249 11.7075L94.1438 9.72334L88.8886 8.92969H87.0868V24.8027Z" fill="#CCCCCC"/>
<path d="M87.0868 100.993C106.326 100.993 121.922 80.3841 121.922 54.9614C121.922 29.5388 106.326 8.92969 87.0868 8.92969C67.848 8.92969 52.252 29.5388 52.252 54.9614C52.252 80.3841 67.848 100.993 87.0868 100.993Z" stroke="black" stroke-width="0.345205"/>
<path d="M86.9373 84.7253C99.4591 84.7253 109.61 71.3116 109.61 54.765C109.61 38.2184 99.4591 24.8047 86.9373 24.8047C74.4156 24.8047 64.2646 38.2184 64.2646 54.765C64.2646 71.3116 74.4156 84.7253 86.9373 84.7253Z" stroke="black" stroke-width="0.345205"/>
<path d="M67.2673 81.1499L63.8138 75.5944L61.8619 70.8325L60.3604 65.6737L59.4595 60.3166L59.1592 54.9594L59.6096 47.4198L61.2613 40.6737L63.964 34.3245L67.2673 28.769L71.4715 24.4039L76.2763 20.8325L81.3814 18.6499L87.0871 18.0547L92.4925 18.6499L96.5466 20.2372L100.3 22.4198L103.754 25.1975L106.907 28.769" stroke="#7F7F7F" stroke-width="0.345205"/>
<path d="M86.9367 66.6689C91.9123 66.6689 95.9458 61.339 95.9458 54.7641C95.9458 48.1893 91.9123 42.8594 86.9367 42.8594C81.9612 42.8594 77.9277 48.1893 77.9277 54.7641C77.9277 61.339 81.9612 66.6689 86.9367 66.6689Z" fill="#CCCCCC" stroke="black" stroke-width="0.345205"/>
<path d="M106.907 28.7734L110.361 34.329L112.313 39.0909L113.814 44.0512L114.715 49.4084L115.015 54.7655L114.415 62.3052L112.913 69.2496L110.211 75.4004L106.907 80.956L102.703 85.5195L97.8982 88.8925L92.643 91.075L87.0874 91.8687L81.5318 91.075L77.6279 89.6861L73.8742 87.3052L70.4207 84.5274L67.2676 80.956" stroke="white" stroke-width="0.345205"/>
</g>
<defs>
<clipPath id="clip0_2109_202392">
<rect width="150" height="150" fill="white"/>
</clipPath>
</defs>
</svg>
