<svg width="150" height="150" viewBox="0 0 150 150" fill="none" xmlns="http://www.w3.org/2000/svg">
<g clip-path="url(#clip0_2109_203993)">
<path d="M36.2964 60.8125H34.0742V133.035H36.2964V60.8125Z" fill="#4C5959" stroke="black" stroke-width="0.47164"/>
<path d="M114.444 60.8125H116.667V133.035H114.444V60.8125Z" fill="#4C5959" stroke="black" stroke-width="0.47164"/>
<path d="M110 140.539H112.222V133.031H110V140.539Z" fill="#4C5959" stroke="black" stroke-width="0.47164"/>
<path d="M41.1109 133.031H38.8887V140.539H41.1109V133.031Z" fill="#4C5959" stroke="black" stroke-width="0.47164"/>
<path d="M25.1855 133.031H38.8893V140.539H25.1855V133.031Z" fill="#7F8C8C" stroke="black" stroke-width="0.47164"/>
<path d="M125.926 140.539H111.852V133.031H125.926V140.539Z" fill="#7F8C8C" stroke="black" stroke-width="0.47164"/>
<path d="M121.111 60.8125H116.667V133.035H121.111V60.8125Z" fill="#7F8C8C" stroke="black" stroke-width="0.47164"/>
<path d="M29.6299 60.8125H34.4447V133.035H29.6299V60.8125Z" fill="#7F8C8C" stroke="black" stroke-width="0.47164"/>
<path d="M121.111 4.65465V60.961L86.6664 74.9249V81.982H63.3331V74.9249L28.8887 60.961V4.65465L36.6664 1.95195L49.259 0.750751L61.1109 0.15015L74.8146 0L88.5183 0.15015L100.741 0.750751L112.963 1.95195L121.111 4.65465Z" fill="#727F7F"/>
<path d="M113.703 4.65465V60.961L85.1848 74.9249V81.982H65.1848V74.9249L36.2959 60.961V4.65465L44.8144 1.5015L56.2959 0.45045L67.0366 0H74.8144L86.6663 0.15015L99.6292 0.900901L109.259 2.25225L113.703 4.65465Z" fill="#8C9999"/>
<path d="M106.296 4.65465V60.961L82.9626 74.9249V81.982H67.4071V74.9249L43.333 60.961V4.65465L50.37 1.5015L62.5923 0.3003L74.8145 0L87.4071 0.3003L97.4071 1.2012L105.926 3.6036L106.296 4.65465Z" fill="#A5B2B2"/>
<path d="M103.704 4.65465V60.961L82.2221 74.9249V81.982H67.7776V74.9249L45.9258 60.961V4.65465L54.4443 1.2012L66.2962 0.15015L74.8147 0L86.2962 0.3003L97.0369 1.5015L103.704 4.65465Z" fill="#BFCCCC"/>
<path d="M95.1848 4.65465V60.961L79.9996 74.9249V81.982H69.9996V74.9249L54.8145 60.961V4.65465L60.7404 1.2012L70.7404 0H74.8145L86.2959 0.750751L94.4441 3.15315L95.1848 4.65465Z" fill="#D8E5E5"/>
<path d="M85.1855 4.65465V60.961L77.7781 74.9249V81.982H72.2226V74.9249L65.1855 60.961V4.65465V3.6036L65.9263 2.7027L66.667 1.95195L67.7781 1.2012L69.2596 0.750751L71.1115 0.3003L72.9633 0H74.8152H77.0374L78.8892 0.3003L80.7411 0.750751L82.2226 1.2012L83.3337 1.95195L84.4448 2.7027L84.8152 3.6036L85.1855 4.65465Z" fill="#F2FFFF"/>
<path d="M121.111 4.65465V60.961L86.6664 74.9249V81.982H63.3331V74.9249L28.8887 60.961V4.65465L36.6664 1.95195L49.259 0.750751L61.1109 0.15015L74.8146 0L88.5183 0.15015L100.741 0.750751L112.963 1.95195L121.111 4.65465Z" stroke="black" stroke-width="0.47164"/>
<path d="M28.8887 5.85949L30.7405 4.35799L34.4442 3.45709L39.259 2.70634L42.222 2.40604L45.5553 2.10574L49.259 1.80544L52.9627 1.50514L57.0368 1.35499L61.1109 1.20484L65.5553 1.05469H69.9998H74.8146H79.6294H84.0739L88.5183 1.20484L92.9627 1.35499L97.0368 1.50514L100.741 1.80544L104.074 2.10574L107.407 2.40604L112.963 3.15679L117.407 3.90754L120 4.80844L121.111 5.85949" stroke="black" stroke-width="0.47164"/>
<path d="M28.8887 24.6251L30.7405 23.1236L34.4442 22.2227L39.259 21.472L42.222 21.1717L45.5553 20.8714L49.259 20.5711L52.9627 20.2708L57.0368 20.1206L61.1109 19.9705L65.5553 19.8203H69.9998H74.8146H79.6294H84.0739L88.5183 19.9705L92.9627 20.1206L97.0368 20.2708L100.741 20.5711L104.074 20.8714L107.407 21.1717L112.963 21.9224L117.407 22.6732L120 23.5741L121.111 24.6251" stroke="black" stroke-width="0.47164"/>
<path d="M28.8887 43.2423L30.7405 41.891L34.4442 40.9901L39.259 40.2393L42.222 39.939L45.5553 39.6387L49.259 39.3384L52.9627 39.0381L57.0368 38.888L61.1109 38.7378L65.5553 38.5877H69.9998L74.8146 38.4375L79.6294 38.5877H84.0739L88.5183 38.7378L92.9627 38.888L97.0368 39.0381L100.741 39.3384L104.074 39.6387L107.407 39.939L112.963 40.5396L117.407 41.4405L120 42.3414L121.111 43.2423" stroke="black" stroke-width="0.47164"/>
<path d="M62.2227 81.3828H88.1486V83.1846H62.2227V81.3828Z" fill="#727F7F"/>
<path d="M62.2227 74.4766H88.1486V76.2784H62.2227V74.4766Z" fill="#727F7F" stroke="black" stroke-width="0.47164"/>
<path d="M65.5557 74.4766H84.4446V76.2784H65.5557V74.4766Z" fill="#919E9E"/>
<path d="M65.5557 81.3828H84.4446V83.1846H65.5557V81.3828Z" fill="#919E9E"/>
<path d="M67.4072 74.4766H82.9628V76.2784H67.4072V74.4766Z" fill="#B2BFBF"/>
<path d="M67.4072 81.3828H82.9628V83.1846H67.4072V81.3828Z" fill="#B2BFBF"/>
<path d="M72.2227 74.4766H77.7782V76.2784H72.2227V74.4766Z" fill="#D8E5E5"/>
<path d="M72.2227 81.3828H77.7782V83.1846H72.2227V81.3828Z" fill="#D8E5E5"/>
<path d="M62.2227 81.3828H88.1486V83.1846H62.2227V81.3828Z" stroke="black" stroke-width="0.47164"/>
<path d="M5.55566 53.75H144.445V56.1524H5.55566V53.75Z" fill="#D8E5E5" stroke="black" stroke-width="0.47164"/>
<path d="M121.111 60.8109L144.445 56.1562H5.55566L28.5186 60.8109L28.889 60.6608L39.2594 59.4596L52.9631 58.859L65.5557 58.5587H79.6297L92.9631 58.7088L104.445 59.0091L115.556 59.7599L120.741 60.6608L121.111 60.8109Z" fill="#727F7F" stroke="black" stroke-width="0.47164"/>
<path d="M11.4814 84.2344H138.518V86.6368H11.4814V84.2344Z" fill="#A5B2B2" stroke="black" stroke-width="0.47164"/>
<path d="M14.074 56.1562H11.4814V140.541H14.074V56.1562Z" fill="#727F7F" stroke="black" stroke-width="0.47164"/>
<path d="M135.556 56.1562H138.519V140.541H135.556V56.1562Z" fill="#727F7F" stroke="black" stroke-width="0.47164"/>
<path d="M130 149.999H132.963V140.539H130V149.999Z" fill="#727F7F" stroke="black" stroke-width="0.47164"/>
<path d="M20.0001 140.539H17.0371V149.999H20.0001V140.539Z" fill="#727F7F" stroke="black" stroke-width="0.47164"/>
<path d="M0 140.539H17.037V149.999H0V140.539Z" fill="#A5B2B2" stroke="black" stroke-width="0.47164"/>
<path d="M150 149.999H132.963V140.539H150V149.999Z" fill="#A5B2B2" stroke="black" stroke-width="0.47164"/>
<path d="M144.444 56.1562H138.519V140.541H144.444V56.1562Z" fill="#A5B2B2" stroke="black" stroke-width="0.47164"/>
<path d="M5.55566 56.1562H11.4816V140.541H5.55566V56.1562Z" fill="#A5B2B2" stroke="black" stroke-width="0.47164"/>
</g>
<defs>
<clipPath id="clip0_2109_203993">
<rect width="150" height="150" fill="white"/>
</clipPath>
</defs>
</svg>
