<svg width="150" height="150" viewBox="0 0 150 150" fill="none" xmlns="http://www.w3.org/2000/svg">
<g clip-path="url(#clip0_2109_200888)">
<path d="M0 46.1813L12.6126 34.7281H137.237L150 46.1813V42.1173L137.237 30.6641H12.6126L0 42.1173V46.1813Z" fill="#B2B2B2" stroke="black" stroke-width="0.333089"/>
<path d="M0 76.8454L12.6126 65.3922H137.237L150 76.8454V73.1508L137.237 61.3281H12.6126L0 73.1508V76.8454Z" fill="#B2B2B2" stroke="black" stroke-width="0.333089"/>
<path d="M0 107.515L12.6126 96.0618H137.237L150 107.515V103.82L137.237 92.3672H12.6126L0 103.82V107.515Z" fill="#B2B2B2" stroke="black" stroke-width="0.333089"/>
<path d="M0 138.179L12.6126 126.726H137.237L150 138.179V134.484L137.237 123.031H12.6126L0 134.484V138.179Z" fill="#B2B2B2" stroke="black" stroke-width="0.333089"/>
<path d="M0 15.5172L12.6126 3.50985H137.237L150 15.5172V11.2685L137.237 0H12.6126L0 11.2685V15.5172Z" fill="#B2B2B2" stroke="black" stroke-width="0.333089"/>
<path d="M12.6123 3.50781V123.028" stroke="black" stroke-width="0.333089"/>
<path d="M137.237 3.50781V123.028" stroke="black" stroke-width="0.333089"/>
<path d="M17.8682 3.50781V123.028" stroke="black" stroke-width="0.333089"/>
<path d="M22.9727 3.50781V123.028" stroke="black" stroke-width="0.333089"/>
<path d="M28.2285 3.50781V123.028" stroke="black" stroke-width="0.333089"/>
<path d="M33.4834 3.50781V123.028" stroke="black" stroke-width="0.333089"/>
<path d="M38.5889 3.50781V123.028" stroke="black" stroke-width="0.333089"/>
<path d="M43.8438 3.50781V123.028" stroke="black" stroke-width="0.333089"/>
<path d="M49.0996 3.50781V123.028" stroke="black" stroke-width="0.333089"/>
<path d="M54.3545 3.50781V123.028" stroke="black" stroke-width="0.333089"/>
<path d="M59.459 3.50781V123.028" stroke="black" stroke-width="0.333089"/>
<path d="M64.7148 3.50781V123.028" stroke="black" stroke-width="0.333089"/>
<path d="M69.9697 3.50781V123.028" stroke="black" stroke-width="0.333089"/>
<path d="M75.0752 3.50781V123.028" stroke="black" stroke-width="0.333089"/>
<path d="M80.3301 3.50781V123.028" stroke="black" stroke-width="0.333089"/>
<path d="M85.5859 3.50781V123.028" stroke="black" stroke-width="0.333089"/>
<path d="M90.6904 3.50781V123.028" stroke="black" stroke-width="0.333089"/>
<path d="M95.9463 3.50781V123.028" stroke="black" stroke-width="0.333089"/>
<path d="M101.201 3.50781V123.028" stroke="black" stroke-width="0.333089"/>
<path d="M106.307 3.50781V123.028" stroke="black" stroke-width="0.333089"/>
<path d="M111.562 3.50781V123.028" stroke="black" stroke-width="0.333089"/>
<path d="M116.816 3.50781V123.028" stroke="black" stroke-width="0.333089"/>
<path d="M121.922 3.50781V123.028" stroke="black" stroke-width="0.333089"/>
<path d="M127.177 3.50781V123.028" stroke="black" stroke-width="0.333089"/>
<path d="M132.433 3.50781V123.028" stroke="black" stroke-width="0.333089"/>
<path d="M0 138.18L12.6126 126.727H137.237L150 138.18H0Z" fill="#CCCCCC" stroke="black" stroke-width="0.333089"/>
<path d="M0 15.5156V134.481" stroke="black" stroke-width="0.333089"/>
<path d="M150 15.5156V134.481" stroke="black" stroke-width="0.333089"/>
<path d="M6.30664 15.5156V134.481" stroke="black" stroke-width="0.333089"/>
<path d="M12.6123 15.5156V134.481" stroke="black" stroke-width="0.333089"/>
<path d="M18.4688 15.5156V134.481" stroke="black" stroke-width="0.333089"/>
<path d="M24.9248 15.5156V134.481" stroke="black" stroke-width="0.333089"/>
<path d="M31.2314 15.5156V134.481" stroke="black" stroke-width="0.333089"/>
<path d="M37.5371 15.5156V134.481" stroke="black" stroke-width="0.333089"/>
<path d="M43.8438 15.5156V134.481" stroke="black" stroke-width="0.333089"/>
<path d="M49.8496 15.5156V134.481" stroke="black" stroke-width="0.333089"/>
<path d="M56.1562 15.5156V134.481" stroke="black" stroke-width="0.333089"/>
<path d="M62.4629 15.5156V134.481" stroke="black" stroke-width="0.333089"/>
<path d="M68.7686 15.5156V134.481" stroke="black" stroke-width="0.333089"/>
<path d="M75.0752 15.5156V134.481" stroke="black" stroke-width="0.333089"/>
<path d="M81.0811 15.5156V134.481" stroke="black" stroke-width="0.333089"/>
<path d="M87.3877 15.5156V134.481" stroke="black" stroke-width="0.333089"/>
<path d="M93.6934 15.5156V134.481" stroke="black" stroke-width="0.333089"/>
<path d="M100 15.5156V134.481" stroke="black" stroke-width="0.333089"/>
<path d="M106.307 15.5156V134.481" stroke="black" stroke-width="0.333089"/>
<path d="M112.312 15.5156V134.481" stroke="black" stroke-width="0.333089"/>
<path d="M118.619 15.5156V134.481" stroke="black" stroke-width="0.333089"/>
<path d="M124.925 15.5156V134.481" stroke="black" stroke-width="0.333089"/>
<path d="M131.381 15.5156V134.481" stroke="black" stroke-width="0.333089"/>
<path d="M137.237 15.5156V134.481" stroke="black" stroke-width="0.333089"/>
<path d="M143.544 15.5156V134.481" stroke="black" stroke-width="0.333089"/>
<path d="M0 11.2656H150V15.5144H0V11.2656Z" fill="#7F7F7F" stroke="black" stroke-width="0.333089"/>
<path d="M0 42.1172H150V46.1812H0V42.1172Z" fill="#7F7F7F" stroke="black" stroke-width="0.333089"/>
<path d="M0 73.1562H150V76.8508H0V73.1562Z" fill="#7F7F7F" stroke="black" stroke-width="0.333089"/>
<path d="M0 103.82H150V107.515H0V103.82Z" fill="#7F7F7F" stroke="black" stroke-width="0.333089"/>
<path d="M0 134.484H150V138.179H0V134.484Z" fill="#7F7F7F" stroke="black" stroke-width="0.333089"/>
<path d="M12.6123 4.98438V124.504" stroke="#7F7F7F" stroke-width="0.333089"/>
<path d="M11.1113 5.91406V125.434" stroke="#7F7F7F" stroke-width="0.333089"/>
<path d="M10.0605 6.83594V126.356" stroke="#7F7F7F" stroke-width="0.333089"/>
<path d="M8.85938 7.75781V127.278" stroke="#7F7F7F" stroke-width="0.333089"/>
<path d="M7.80762 8.67969V128.015" stroke="#7F7F7F" stroke-width="0.333089"/>
<path d="M6.60645 9.60938V129.129" stroke="#7F7F7F" stroke-width="0.333089"/>
<path d="M5.55566 10.3438V129.863" stroke="#7F7F7F" stroke-width="0.333089"/>
<path d="M4.35449 11.2656V130.785" stroke="#7F7F7F" stroke-width="0.333089"/>
<path d="M3.30371 12.375V131.71" stroke="#7F7F7F" stroke-width="0.333089"/>
<path d="M2.10254 13.6719V132.637" stroke="#7F7F7F" stroke-width="0.333089"/>
<path d="M1.05078 14.5938V133.559" stroke="#7F7F7F" stroke-width="0.333089"/>
<path d="M0 15.5156V134.481" stroke="#7F7F7F" stroke-width="0.333089"/>
<path d="M137.237 4.98438V124.504" stroke="#7F7F7F" stroke-width="0.333089"/>
<path d="M138.738 5.91406V125.434" stroke="#7F7F7F" stroke-width="0.333089"/>
<path d="M139.79 6.83594V126.356" stroke="#7F7F7F" stroke-width="0.333089"/>
<path d="M140.991 7.75781V127.278" stroke="#7F7F7F" stroke-width="0.333089"/>
<path d="M142.042 8.67969V128.015" stroke="#7F7F7F" stroke-width="0.333089"/>
<path d="M143.243 9.60938V129.129" stroke="#7F7F7F" stroke-width="0.333089"/>
<path d="M144.294 10.3438V129.863" stroke="#7F7F7F" stroke-width="0.333089"/>
<path d="M145.495 11.2656V130.785" stroke="#7F7F7F" stroke-width="0.333089"/>
<path d="M146.547 12.375V131.71" stroke="#7F7F7F" stroke-width="0.333089"/>
<path d="M147.748 13.6719V132.637" stroke="#7F7F7F" stroke-width="0.333089"/>
<path d="M148.799 14.5938V133.559" stroke="#7F7F7F" stroke-width="0.333089"/>
<path d="M150 15.5156V134.481" stroke="#7F7F7F" stroke-width="0.333089"/>
<path d="M0 138.18H15.6156V142.244H0V138.18Z" fill="#999999" stroke="black" stroke-width="0.333089"/>
<path d="M150 138.18H134.234V142.244H150V138.18Z" fill="#999999" stroke="black" stroke-width="0.333089"/>
<path d="M0 142.242H2.85285V150.001H0V142.242Z" fill="#CCCCCC" stroke="black" stroke-width="0.333089"/>
<path d="M150 142.242H146.997V150.001H150V142.242Z" fill="#CCCCCC" stroke="black" stroke-width="0.333089"/>
<path d="M15.6152 138.18H134.234V140.396H15.6152V138.18Z" fill="black" stroke="black" stroke-width="0.333089"/>
</g>
<defs>
<clipPath id="clip0_2109_200888">
<rect width="150" height="150" fill="white"/>
</clipPath>
</defs>
</svg>
