<svg width="150" height="150" viewBox="0 0 150 150" fill="none" xmlns="http://www.w3.org/2000/svg">
<g clip-path="url(#clip0_2109_204271)">
<path d="M50.6006 86.0859H53.1531V144.458H50.6006V86.0859Z" fill="#666666" stroke="black" stroke-width="0.322537"/>
<path d="M118.769 29.6172L124.175 35.8528L39.7902 133.197L34.3848 126.961L118.769 29.6172Z" fill="#666666"/>
<path d="M120.571 31.6953L122.373 33.7738L37.9883 131.118L36.1865 129.039L120.571 31.6953Z" fill="#999999"/>
<path d="M118.769 29.6172L124.174 35.8528L49.2494 122.285L43.3936 116.049L118.769 29.6172Z" stroke="black" stroke-width="0.322537"/>
<path d="M111.111 37.9297L116.967 44.1653L58.2579 111.89L52.8525 105.655L111.111 37.9297Z" fill="#E5E5E5"/>
<path d="M112.913 40.0078L114.865 42.0863L56.4561 109.812L54.6543 107.733L112.913 40.0078Z" fill="white"/>
<path d="M111.111 37.9297L116.967 44.1653L58.2579 111.89L52.8525 105.655L111.111 37.9297Z" stroke="black" stroke-width="0.322537"/>
<path d="M114.865 25.4647L125.976 12.8203L134.985 23.3861V40.0143H127.778L114.865 25.4647Z" fill="#999999" stroke="black" stroke-width="0.322537"/>
<path d="M129.579 17.147L134.985 23.3826L145.945 10.7382L140.54 4.15625L129.579 17.147Z" fill="#4C4C4C"/>
<path d="M131.382 19.0519L133.334 21.3037L144.145 8.65932L142.343 6.23438L131.382 19.0519Z" fill="#7F7F7F"/>
<path d="M129.579 17.147L134.985 23.3826L145.945 10.7382L140.54 4.15625L129.579 17.147Z" stroke="black" stroke-width="0.322537"/>
<path d="M140.54 0L150 10.739L147.747 12.8176L138.738 2.07852L140.54 0Z" fill="#333333" stroke="black" stroke-width="0.322537"/>
<path d="M118.769 25.4609L127.778 35.8535" stroke="black" stroke-width="0.322537"/>
<path d="M125.976 17.1484L118.769 25.4625" stroke="white" stroke-width="0.322537"/>
<path d="M37.9875 109.812L43.3929 116.048L34.3839 126.96L28.9785 120.378L37.9875 109.812Z" fill="#666666"/>
<path d="M37.9875 109.812L49.2488 122.284L39.7893 133.196L28.9785 120.378L37.9875 109.812Z" stroke="black" stroke-width="0.322537"/>
<path d="M127.027 40.0078H135.736V43.2988H127.027V40.0078Z" fill="#CCCCCC" stroke="black" stroke-width="0.322537"/>
<path d="M4.6543 86.0859H7.20685V144.458H4.6543V86.0859Z" fill="#666666" stroke="black" stroke-width="0.322537"/>
<path d="M33.6336 127.83H24.1741L2.40234 91.4555V86.0859H55.4053V91.4555L33.6336 127.83Z" fill="#999999" stroke="black" stroke-width="0.322537"/>
<path d="M0 83.1406H57.958V86.0852H0V83.1406Z" fill="#CCCCCC" stroke="black" stroke-width="0.322537"/>
<path d="M2.40234 91.4531H55.4053" stroke="black" stroke-width="0.322537"/>
<path d="M45.9461 86.0859L57.9581 99.7695V102.714L43.3936 86.0859H45.9461Z" fill="#B2B2B2" stroke="black" stroke-width="0.322537"/>
<path d="M0 99.7695L11.8619 86.0859H14.4144L0 102.714V99.7695Z" fill="#B2B2B2" stroke="black" stroke-width="0.322537"/>
<path d="M0 86.0859H3.6036V150H0V86.0859Z" fill="#B2B2B2" stroke="black" stroke-width="0.322537"/>
<path d="M54.3545 86.0859H57.9581V150H54.3545V86.0859Z" fill="#B2B2B2" stroke="black" stroke-width="0.322537"/>
<path d="M22.8232 126.094H34.9854V129.038H22.8232V126.094Z" fill="#7F7F7F" stroke="black" stroke-width="0.322537"/>
</g>
<defs>
<clipPath id="clip0_2109_204271">
<rect width="150" height="150" fill="white"/>
</clipPath>
</defs>
</svg>
