<svg width="150" height="150" viewBox="0 0 150 150" fill="none" xmlns="http://www.w3.org/2000/svg">
<g clip-path="url(#clip0_2109_201003)">
<path d="M0 0V29.5796L24.9719 81.5315V96.2462L54.162 148.198H95.838L124.859 96.2462V81.5315L149.831 29.5796V0H0Z" fill="#999999"/>
<path d="M8.26758 0V29.5796L30.3711 81.5315V96.2462L56.3553 148.198H93.4757L119.291 96.2462V81.5315L141.563 29.5796V0H8.26758Z" fill="#B2B2B2"/>
<path d="M12.4863 0V29.5796L33.24 81.5315V96.2462L57.5369 148.198H92.2951L116.423 96.2462V81.5315L137.346 29.5796V0H12.4863Z" fill="#CCCCCC"/>
<path d="M20.7539 0V29.5796L38.8079 81.5315V96.2462L59.899 148.198H89.9328L111.024 96.2462V81.5315L129.078 29.5796V0H20.7539Z" fill="#999999"/>
<path d="M33.2393 0V29.5796L47.2438 81.5315V96.2462L63.273 148.198H86.5576L102.587 96.2462V81.5315L116.591 29.5796V0H33.2393Z" fill="#B2B2B2"/>
<path d="M41.5068 0V29.5796L52.6429 81.5315V96.2462L65.6351 148.198H84.1952L97.0186 96.2462V81.5315L108.155 29.5796V0H41.5068Z" fill="#CCCCCC"/>
<path d="M58.2119 0V29.5796L63.78 81.5315V96.2462L70.1917 148.198H79.6405L86.0522 96.2462V81.5315L91.6202 29.5796V0H58.2119Z" fill="#E5E5E5"/>
<path d="M0 0V29.5796L24.9719 81.5315V96.2462L54.162 148.198H95.838L124.859 96.2462V81.5315L149.831 29.5796V0H0Z" stroke="black" stroke-width="0.318337"/>
<path d="M20.7539 0V29.5796L38.8079 81.5315V96.2462L59.899 148.198H89.9328L111.024 96.2462V81.5315L129.078 29.5796V0H20.7539Z" stroke="black" stroke-width="0.318337"/>
<path d="M74.9158 150.002C86.3777 150.002 95.6694 149.195 95.6694 148.2C95.6694 147.205 86.3777 146.398 74.9158 146.398C63.4538 146.398 54.1621 147.205 54.1621 148.2C54.1621 149.195 63.4538 150.002 74.9158 150.002Z" fill="#999999" stroke="black" stroke-width="0.318337"/>
<path d="M74.9153 149.546C84.0476 149.546 91.4507 148.941 91.4507 148.195C91.4507 147.449 84.0476 146.844 74.9153 146.844C65.783 146.844 58.3799 147.449 58.3799 148.195C58.3799 148.941 65.783 149.546 74.9153 149.546Z" fill="#4C4C4C" stroke="black" stroke-width="0.318337"/>
<path d="M24.9717 96.25H124.859" stroke="#7F7F7F" stroke-width="0.318337"/>
<path d="M0 29.5781H149.831" stroke="#7F7F7F" stroke-width="0.318337"/>
<path d="M16.5352 80.4844H133.296V82.4363H16.5352V80.4844Z" fill="#7F7F7F"/>
<path d="M31.2148 80.4844H118.616V82.4363H31.2148V80.4844Z" fill="#B2B2B2"/>
<path d="M57.1992 80.4844H92.6323V82.4363H57.1992V80.4844Z" fill="#E5E5E5"/>
<path d="M16.5352 80.4844H133.296V82.4363H16.5352V80.4844Z" stroke="black" stroke-width="0.318337"/>
<path d="M20.7537 62.9138L12.4859 44.4453L0 59.3102L20.7537 62.9138Z" fill="#7F7F7F" stroke="black" stroke-width="0.318337"/>
<path d="M129.078 62.9138L137.346 44.4453L150.001 59.3102L129.078 62.9138Z" fill="#7F7F7F" stroke="black" stroke-width="0.318337"/>
</g>
<defs>
<clipPath id="clip0_2109_201003">
<rect width="150" height="150" fill="white"/>
</clipPath>
</defs>
</svg>
