<svg width="150" height="150" viewBox="0 0 150 150" fill="none" xmlns="http://www.w3.org/2000/svg">
<g clip-path="url(#clip0_2109_204328)">
<path d="M74.9252 142.942C112.491 142.942 142.943 112.49 142.943 74.9243C142.943 37.359 112.491 6.90625 74.9252 6.90625C37.3599 6.90625 6.90723 37.359 6.90723 74.9243C6.90723 112.49 37.3599 142.942 74.9252 142.942Z" fill="#CCCCCC" stroke="black" stroke-width="0.3003"/>
<path d="M0.600586 0.601562H50.3003V74.9259H0.600586V0.601562Z" fill="#BFBFBF" stroke="black" stroke-width="0.3003"/>
<path d="M74.9248 149.247V99.5469H149.249V149.247H74.9248Z" fill="#BFBFBF" stroke="black" stroke-width="0.3003"/>
<path d="M6.90723 0.601562H43.9943V74.9259H6.90723V0.601562Z" fill="#D9D9D9"/>
<path d="M74.9248 142.946V105.859H149.249V142.946H74.9248Z" fill="#D9D9D9"/>
<path d="M13.2129 0.601562H37.8375V74.9259H13.2129V0.601562Z" fill="#E5E5E5"/>
<path d="M74.9248 136.64V112.016H149.249V136.64H74.9248Z" fill="#E5E5E5"/>
<path d="M19.0693 0.601562H31.5318V74.9259H19.0693V0.601562Z" fill="#F2F2F2"/>
<path d="M74.9248 130.482V118.32H149.249V130.482H74.9248Z" fill="#F2F2F2"/>
<path d="M74.925 112.01C95.4076 112.01 112.012 95.4057 112.012 74.923C112.012 54.4404 95.4076 37.8359 74.925 37.8359C54.4423 37.8359 37.8379 54.4404 37.8379 74.923C37.8379 95.4057 54.4423 112.01 74.925 112.01Z" fill="#CCCCCC" stroke="black" stroke-width="0.3003"/>
<path d="M74.925 102.856C90.3492 102.856 102.853 90.3521 102.853 74.9279C102.853 59.5038 90.3492 47 74.925 47C59.5008 47 46.9971 59.5038 46.9971 74.9279C46.9971 90.3521 59.5008 102.856 74.925 102.856Z" fill="#E5E5E5" stroke="black" stroke-width="0.3003"/>
</g>
<defs>
<clipPath id="clip0_2109_204328">
<rect width="150" height="150" fill="white"/>
</clipPath>
</defs>
</svg>
