<svg width="150" height="150" viewBox="0 0 150 150" fill="none" xmlns="http://www.w3.org/2000/svg">
<g clip-path="url(#clip0_2109_200500)">
<path d="M30.7808 23.5557V22.6611L30.0301 22.0646L29.5796 21.17L29.4295 17.8897L30.7808 16.1004H31.6817L32.2823 16.6969L32.5826 19.3807L31.982 22.0646L31.0811 22.6611V23.5557H31.5316L32.8829 21.7664L33.1832 20.2754V19.3807V18.4861L32.5826 16.1004L31.5316 14.9076L31.0811 14.6094L30.6307 14.9076L29.4295 16.1004L28.8289 18.4861L28.6787 19.3807L28.8289 20.2754L29.7298 22.9593L30.7808 23.5557Z" fill="#666666" stroke="black" stroke-width="0.423209"/>
<path d="M51.2016 26.5391H4.50488V115.406H51.2016V26.5391Z" fill="#CCCCCC" stroke="black" stroke-width="0.423209"/>
<path d="M4.5045 26.5391L0 40.2568V101.688L4.5045 115.406V26.5391Z" fill="#B2B2B2" stroke="black" stroke-width="0.423209"/>
<path d="M17.7178 26.5391H44.2943V115.406H17.7178V26.5391Z" fill="#B2B2B2" stroke="black" stroke-width="0.423209"/>
<path d="M51.2012 115.406L55.7057 101.688V40.2568L51.2012 26.5391V115.406Z" fill="#B2B2B2" stroke="black" stroke-width="0.423209"/>
<path d="M37.6879 95.1328H22.0723V115.411H37.6879V95.1328Z" fill="#999999" stroke="black" stroke-width="0.423209"/>
<path d="M55.7061 62.3281H59.9103V79.6243H55.7061V62.3281Z" fill="#999999" stroke="black" stroke-width="0.423209"/>
<path d="M48.7986 110.633H40.0898V119.579H48.7986V110.633Z" fill="#999999" stroke="black" stroke-width="0.423209"/>
<path d="M24.4748 110.633H15.4658V119.579H24.4748V110.633Z" fill="#999999" stroke="black" stroke-width="0.423209"/>
<path d="M42.1919 31.3125H19.9697V35.4875H42.1919V31.3125Z" fill="#CCCCCC" stroke="black" stroke-width="0.423209"/>
<path d="M42.1919 40.2578H19.9697V44.4328H42.1919V40.2578Z" fill="#CCCCCC" stroke="black" stroke-width="0.423209"/>
<path d="M42.1919 22.6641H19.9697V26.5408H42.1919V22.6641Z" fill="#CCCCCC" stroke="black" stroke-width="0.423209"/>
<path d="M42.1919 49.2031H19.9697V53.3781H42.1919V49.2031Z" fill="#CCCCCC" stroke="black" stroke-width="0.423209"/>
<path d="M42.1919 66.5H19.9697V71.2714H42.1919V66.5Z" fill="#CCCCCC" stroke="black" stroke-width="0.423209"/>
<path d="M42.1919 75.4453H19.9697V79.6203H42.1919V75.4453Z" fill="#CCCCCC" stroke="black" stroke-width="0.423209"/>
<path d="M42.1919 57.5547H19.9697V62.3261H42.1919V57.5547Z" fill="#CCCCCC" stroke="black" stroke-width="0.423209"/>
<path d="M42.1919 84.3906H19.9697V88.5656H42.1919V84.3906Z" fill="#CCCCCC" stroke="black" stroke-width="0.423209"/>
<path d="M42.1919 93.3438H19.9697V97.5187H42.1919V93.3438Z" fill="#CCCCCC" stroke="black" stroke-width="0.423209"/>
<path d="M126.126 119.586H14.8652V144.039H126.126V119.586Z" fill="#E5E5E5" stroke="black" stroke-width="0.423209"/>
<path d="M126.126 150.003H14.8652V144.039H126.126V150.003Z" fill="#CCCCCC" stroke="black" stroke-width="0.423209"/>
<path d="M16.0664 142.246V127.336L73.4238 142.246H16.0664Z" fill="#CCCCCC"/>
<path d="M60.21 116.005H98.0478L105.555 99.3047H113.063V108.251H117.868V37.2769H113.063V46.8197H105.555L98.0478 29.5234H60.21V116.005Z" fill="#999999"/>
<path d="M60.21 106.458H98.0478L105.555 93.3369H113.063V100.494H117.868V45.0267H113.063V52.1838H105.555L98.0478 39.0625H60.21V106.458Z" fill="#B2B2B2"/>
<path d="M60.21 95.13H98.0478L105.555 86.7801H113.063V91.5515H117.868V53.977H113.063V59.3448H105.555L98.0478 50.3984H60.21V95.13Z" fill="#CCCCCC"/>
<path d="M60.21 82.0047H98.0478L105.555 78.4262H113.063V80.8118H117.868V65.3049H113.063V67.0942H105.555L98.0478 63.5156H60.21V82.0047Z" fill="#E5E5E5"/>
<path d="M60.21 116.005H98.0478L105.555 99.3047H113.063V108.251H117.868V37.2769H113.063V46.8197H105.555L98.0478 29.5234H60.21V116.005Z" stroke="black" stroke-width="0.423209"/>
<path d="M113.063 46.8203V99.3054" stroke="black" stroke-width="0.423209"/>
<path d="M105.556 99.3054V46.8203" stroke="black" stroke-width="0.423209"/>
<path d="M98.0485 29.5234H90.541V116.005H98.0485V29.5234Z" fill="white" stroke="black" stroke-width="0.423209"/>
<path d="M98.0478 116.008H60.21V117.797H98.0478V116.008Z" fill="black" stroke="black" stroke-width="0.423209"/>
<path d="M97.1471 78.4297H91.4414V102.883H97.1471V78.4297Z" fill="#E5E5E5"/>
<path d="M97.1471 114.215H91.4414V102.883H97.1471V114.215Z" fill="#CCCCCC"/>
<path d="M87.5377 27.7344H86.6368V117.794H64.1143V119.583H87.5377V27.7344Z" fill="#B2B2B2" stroke="black" stroke-width="0.423209"/>
<path d="M116.967 108.25L116.066 119.582H115.166L114.265 108.25H116.967Z" fill="#666666" stroke="black" stroke-width="0.423209"/>
<path d="M117.868 108.248H135.886V37.2734H117.868V108.248Z" fill="#D6D6D6" stroke="black" stroke-width="0.423209"/>
<path d="M117.868 101.09H135.886V44.4297H117.868V101.09Z" fill="#EBEBEB" stroke="black" stroke-width="0.423209"/>
<path d="M117.868 93.3406H135.886V52.1875H117.868V93.3406Z" fill="white" stroke="black" stroke-width="0.423209"/>
<path d="M126.877 89.7627C129.696 89.7627 131.982 85.2232 131.982 79.6235C131.982 74.0238 129.696 69.4844 126.877 69.4844C124.057 69.4844 121.771 74.0238 121.771 79.6235C121.771 85.2232 124.057 89.7627 126.877 89.7627Z" fill="white" stroke="black" stroke-width="0.423209"/>
<path d="M126.726 84.397C128.136 84.397 129.279 82.1272 129.279 79.3274C129.279 76.5275 128.136 74.2578 126.726 74.2578C125.317 74.2578 124.174 76.5275 124.174 79.3274C124.174 82.1272 125.317 84.397 126.726 84.397Z" fill="white" stroke="black" stroke-width="0.423209"/>
<path d="M139.339 29.5234H135.886V116.005H139.339V29.5234Z" fill="white" stroke="black" stroke-width="0.423209"/>
<path d="M143.394 110.633H147.147V87.9688H143.394V110.633Z" fill="#E5E5E5" stroke="black" stroke-width="0.423209"/>
<path d="M143.394 57.552H147.147V35.4844H143.394V57.552Z" fill="#E5E5E5" stroke="black" stroke-width="0.423209"/>
<path d="M146.246 84.3906H150V61.7266H146.246V84.3906Z" fill="#E5E5E5" stroke="black" stroke-width="0.423209"/>
<path d="M139.34 106.457H143.394V91.5469H139.34V106.457Z" fill="#999999" stroke="black" stroke-width="0.423209"/>
<path d="M139.34 53.9757H143.394V38.4688H139.34V53.9757Z" fill="#999999" stroke="black" stroke-width="0.423209"/>
<path d="M139.34 80.2152H146.247V65.3047H139.34V80.2152Z" fill="#999999" stroke="black" stroke-width="0.423209"/>
<path d="M96.2467 29.5229V5.06958L94.1446 0L92.3428 5.06958V29.5229H96.2467Z" fill="#7F7F7F" stroke="black" stroke-width="0.423209"/>
<path d="M101.952 14.6094H86.6367V22.6611H101.952V14.6094Z" fill="#B2B2B2" stroke="black" stroke-width="0.423209"/>
</g>
<defs>
<clipPath id="clip0_2109_200500">
<rect width="150" height="150" fill="white"/>
</clipPath>
</defs>
</svg>
