<svg width="150" height="150" viewBox="0 0 150 150" fill="none" xmlns="http://www.w3.org/2000/svg">
<g clip-path="url(#clip0_2109_204342)">
<path d="M74.9252 142.942C112.491 142.942 142.943 112.49 142.943 74.9243C142.943 37.359 112.491 6.90625 74.9252 6.90625C37.3599 6.90625 6.90723 37.359 6.90723 74.9243C6.90723 112.49 37.3599 142.942 74.9252 142.942Z" fill="#CCCCCC" stroke="black" stroke-width="0.3003"/>
<path d="M0.600586 149.253V99.7031H75.0751V149.253H0.600586Z" fill="#BFBFBF" stroke="black" stroke-width="0.3003"/>
<path d="M149.249 74.7757H99.6992V0.601562H149.249V74.7757Z" fill="#BFBFBF" stroke="black" stroke-width="0.3003"/>
<path d="M0.600586 142.94V105.703H75.0751V142.94H0.600586Z" fill="#D9D9D9"/>
<path d="M142.943 74.7757H105.855V0.601562H142.943V74.7757Z" fill="#D9D9D9"/>
<path d="M0.600586 136.64V112.016H75.0751V136.64H0.600586Z" fill="#E5E5E5"/>
<path d="M136.786 74.7757H112.012V0.601562H136.786V74.7757Z" fill="#E5E5E5"/>
<path d="M0.600586 130.633V118.32H75.0751V130.633H0.600586Z" fill="#F2F2F2"/>
<path d="M130.481 74.7757H118.318V0.601562H130.481V74.7757Z" fill="#F2F2F2"/>
<path d="M74.925 112.01C95.4076 112.01 112.012 95.4057 112.012 74.923C112.012 54.4404 95.4076 37.8359 74.925 37.8359C54.4423 37.8359 37.8379 54.4404 37.8379 74.923C37.8379 95.4057 54.4423 112.01 74.925 112.01Z" fill="#CCCCCC" stroke="black" stroke-width="0.3003"/>
<path d="M74.9252 102.704C90.2665 102.704 102.703 90.2675 102.703 74.9262C102.703 59.585 90.2665 47.1484 74.9252 47.1484C59.584 47.1484 47.1475 59.585 47.1475 74.9262C47.1475 90.2675 59.584 102.704 74.9252 102.704Z" fill="#E5E5E5" stroke="black" stroke-width="0.3003"/>
</g>
<defs>
<clipPath id="clip0_2109_204342">
<rect width="150" height="150" fill="white"/>
</clipPath>
</defs>
</svg>
