<svg width="150" height="150" viewBox="0 0 150 150" fill="none" xmlns="http://www.w3.org/2000/svg">
<g clip-path="url(#clip0_2109_200981)">
<path d="M16.5996 149.853V4.50781H23.0773V149.853H16.5996Z" fill="#003333" stroke="black" stroke-width="0.348682"/>
<path d="M133.401 149.853V4.50781H126.923V149.853H133.401Z" fill="#003333" stroke="black" stroke-width="0.348682"/>
<path d="M0 1.5V32.4309L50 149.848H100L150 32.4309V1.5H0Z" fill="#7FB2B2" stroke="black" stroke-width="0.348682"/>
<path d="M2.02441 32.4297L50.0001 149.096H100L147.976 32.4297H2.02441Z" fill="#669999"/>
<path d="M16.5996 68.0156L50.0004 149.097H100L133.401 68.0156H16.5996Z" fill="#4C7F7F"/>
<path d="M31.1738 103.453L49.9997 149.099H99.9997L118.826 103.453H31.1738Z" fill="#336666"/>
<path d="M47.7734 142.195L50.0002 149.102H100L102.024 142.195H47.7734Z" fill="#194C4C"/>
<path d="M10.3241 149.85V0H8.2998V149.85H10.3241Z" fill="#194C4C"/>
<path d="M139.474 149.85V0H141.7V149.85H139.474Z" fill="#194C4C"/>
<path d="M8.2998 29.2812H141.701V35.4374H8.2998V29.2812Z" fill="#7FB2B2" stroke="black" stroke-width="0.348682"/>
<path d="M8.2998 37.0892H141.701V35.4375H8.2998V37.0892Z" fill="#194C4C"/>
<path d="M8.2998 64.8672H141.701V71.0233H8.2998V64.8672Z" fill="#7FB2B2" stroke="black" stroke-width="0.348682"/>
<path d="M8.2998 100.453H141.701V106.609H8.2998V100.453Z" fill="#7FB2B2" stroke="black" stroke-width="0.348682"/>
<path d="M8.2998 136.039H141.701V142.195H8.2998V136.039Z" fill="#7FB2B2" stroke="black" stroke-width="0.348682"/>
<path d="M8.2998 72.5249H141.701V71.0234H8.2998V72.5249Z" fill="#194C4C"/>
<path d="M8.2998 108.261H141.701V106.609H8.2998V108.261Z" fill="#194C4C"/>
<path d="M8.2998 143.847H141.701V142.195H8.2998V143.847Z" fill="#194C4C"/>
<path d="M0 149.85V0H8.29959V149.85H0Z" fill="#7FB2B2" stroke="black" stroke-width="0.348682"/>
<path d="M150 149.85V0H141.7V149.85H150Z" fill="#7FB2B2" stroke="black" stroke-width="0.348682"/>
</g>
<defs>
<clipPath id="clip0_2109_200981">
<rect width="150" height="150" fill="white"/>
</clipPath>
</defs>
</svg>
