<svg width="148" height="148" viewBox="0 0 148 148" fill="none" xmlns="http://www.w3.org/2000/svg">
<rect width="148" height="148" fill="#F6E400"/>
<rect x="7" y="7" width="133" height="133" fill="#F7E620"/>
<rect x="13" y="14" width="122" height="120" fill="#F6E84B"/>
<rect x="19" y="21" width="109" height="106" fill="#F7EB66"/>
<rect x="26" y="28" width="96" height="92" fill="#F8ED7D"/>
<rect x="26" y="28" width="96" height="92" fill="#F8ED7D"/>
<rect x="26" y="28" width="96" height="92" fill="#F8ED7D"/>
<rect x="26" y="28" width="96" height="92" fill="#F8ED7D"/>
<rect x="26" y="28" width="96" height="92" fill="#F8ED7D"/>
<rect x="32" y="34" width="83" height="80" fill="#F8ED7D"/>
<rect x="32" y="34" width="83" height="80" fill="#F8ED7D"/>
<rect x="32" y="34" width="83" height="80" fill="#F8ED7D"/>
<rect x="32" y="34" width="83" height="80" fill="#F8ED7D"/>
<rect x="32" y="34" width="83" height="80" fill="#F8ED7D"/>
<rect x="32" y="34" width="83" height="80" fill="#F9F092"/>
<rect x="38" y="40" width="71" height="67" fill="#F8ED7D"/>
<rect x="38" y="40" width="71" height="67" fill="#F8ED7D"/>
<rect x="38" y="40" width="71" height="67" fill="#F8ED7D"/>
<rect x="38" y="40" width="71" height="67" fill="#F8ED7D"/>
<rect x="38" y="40" width="71" height="67" fill="#F8ED7D"/>
<rect x="38" y="40" width="71" height="67" fill="#FAF2A4"/>
<rect x="45" y="47" width="57" height="54" fill="#F8ED7D"/>
<rect x="45" y="47" width="57" height="54" fill="#F8ED7D"/>
<rect x="45" y="47" width="57" height="54" fill="#F8ED7D"/>
<rect x="45" y="47" width="57" height="54" fill="#F8ED7D"/>
<rect x="45" y="47" width="57" height="54" fill="#F8ED7D"/>
<rect x="45" y="47" width="57" height="54" fill="#FAF2A4"/>
<rect x="45" y="47" width="57" height="54" fill="#FAF5B6"/>
</svg>
