<svg width="150" height="150" viewBox="0 0 150 150" fill="none" xmlns="http://www.w3.org/2000/svg">
<g clip-path="url(#clip0_2109_178983)">
<path d="M100.064 78.2282L110.627 85.1351L123.111 90.2402L135.98 93.3934L150 94.5946V150L122.151 147.447L96.0307 141.141L71.2548 131.081L49.936 117.267L0 78.3784V0L100.064 78.2282Z" fill="#00FFFF" stroke="black" stroke-width="0.339635"/>
<path d="M37.6445 107.656L87.7726 68.6172" stroke="black" stroke-width="0.339635"/>
<path d="M24.9678 97.7461L75.2879 58.707" stroke="black" stroke-width="0.339635"/>
<path d="M12.4844 88.1384L62.6124 48.9492" stroke="black" stroke-width="0.339635"/>
<path d="M0 78.3784L50.128 39.0391" stroke="black" stroke-width="0.339635"/>
<path d="M0 58.7068L37.644 29.2773" stroke="black" stroke-width="0.339635"/>
<path d="M0 38.8889L24.968 19.5195" stroke="black" stroke-width="0.339635"/>
<path d="M0 19.3674L12.484 9.75781" stroke="black" stroke-width="0.339635"/>
<path d="M99.8715 78.3789L49.9355 117.268" stroke="black" stroke-width="0.339635"/>
<path d="M123.112 90.0898L95.8389 141.291" stroke="black" stroke-width="0.339635"/>
<path d="M110.82 85.1367L71.4473 131.083" stroke="black" stroke-width="0.339635"/>
<path d="M136.172 93.2422L122.535 147.597" stroke="black" stroke-width="0.339635"/>
</g>
<defs>
<clipPath id="clip0_2109_178983">
<rect width="150" height="150" fill="white"/>
</clipPath>
</defs>
</svg>
