<svg width="150" height="150" viewBox="0 0 150 150" fill="none" xmlns="http://www.w3.org/2000/svg">
<g clip-path="url(#clip0_2109_178727)">
<path d="M150 150V75.2L135.4 73.8L121.2 69.4L108.4 62.6L96.8 53.2L87.4 41.8L80.6 28.8L76.4 14.8L74.8 0H0L3.2 29.6L11.6 57.4L25.2 83.4L43.8 106.2L67 124.8L92.6 138.4L120.8 147.2L150 150Z" fill="#00FFFF" stroke="black" stroke-width="0.4"/>
<path d="M121.2 69.1992L92.5996 138.599" stroke="black" stroke-width="0.4"/>
<path d="M97 53L44 106" stroke="black" stroke-width="0.4"/>
<path d="M80.7996 28.6016L11.5996 57.4016" stroke="black" stroke-width="0.4"/>
<path d="M135.4 73.6016L120.6 147.002" stroke="black" stroke-width="0.4"/>
<path d="M108.4 62.3984L66.5996 124.598" stroke="black" stroke-width="0.4"/>
<path d="M87.6002 41.8008L25.2002 83.2008" stroke="black" stroke-width="0.4"/>
<path d="M76.3998 14.8008L2.7998 29.2008" stroke="black" stroke-width="0.4"/>
</g>
<defs>
<clipPath id="clip0_2109_178727">
<rect width="150" height="150" fill="white"/>
</clipPath>
</defs>
</svg>
