<svg width="150" height="150" viewBox="0 0 150 150" fill="none" xmlns="http://www.w3.org/2000/svg">
<g clip-path="url(#clip0_2109_178480)">
<path d="M150 150H0V0H150V150Z" fill="#00FFFF" stroke="black" stroke-width="0.852369"/>
<path d="M79.5791 150V0" stroke="black" stroke-width="0.852369"/>
<path d="M84.3848 150V0" stroke="black" stroke-width="0.852369"/>
<path d="M88.8887 150V0" stroke="black" stroke-width="0.852369"/>
<path d="M93.6934 150V0" stroke="black" stroke-width="0.852369"/>
<path d="M98.3486 150V0" stroke="black" stroke-width="0.852369"/>
<path d="M103.003 150V0" stroke="black" stroke-width="0.852369"/>
<path d="M107.657 150V0" stroke="black" stroke-width="0.852369"/>
<path d="M112.463 150L112.312 0" stroke="black" stroke-width="0.852369"/>
<path d="M117.117 150V0" stroke="black" stroke-width="0.852369"/>
<path d="M121.771 150V0" stroke="black" stroke-width="0.852369"/>
<path d="M126.427 150V0" stroke="black" stroke-width="0.852369"/>
<path d="M131.081 150V0" stroke="black" stroke-width="0.852369"/>
<path d="M135.886 150V0" stroke="black" stroke-width="0.852369"/>
<path d="M140.541 150V0" stroke="black" stroke-width="0.852369"/>
<path d="M145.195 150V0" stroke="black" stroke-width="0.852369"/>
<path d="M4.6543 150V0" stroke="black" stroke-width="0.852369"/>
<path d="M9.30957 150V0" stroke="black" stroke-width="0.852369"/>
<path d="M13.9639 150V0" stroke="black" stroke-width="0.852369"/>
<path d="M18.6182 150V0" stroke="black" stroke-width="0.852369"/>
<path d="M23.2734 150V0" stroke="black" stroke-width="0.852369"/>
<path d="M28.0781 150V0" stroke="black" stroke-width="0.852369"/>
<path d="M32.7324 150V0" stroke="black" stroke-width="0.852369"/>
<path d="M37.3877 150V0" stroke="black" stroke-width="0.852369"/>
<path d="M42.042 150V0" stroke="black" stroke-width="0.852369"/>
<path d="M46.8467 150V0" stroke="black" stroke-width="0.852369"/>
<path d="M51.3516 150V0" stroke="black" stroke-width="0.852369"/>
<path d="M56.1562 150V0" stroke="black" stroke-width="0.852369"/>
<path d="M60.8105 150V0" stroke="black" stroke-width="0.852369"/>
<path d="M65.4658 150V0" stroke="black" stroke-width="0.852369"/>
<path d="M70.1201 150V0" stroke="black" stroke-width="0.852369"/>
<path d="M74.9248 150V0" stroke="black" stroke-width="0.852369"/>
</g>
<defs>
<clipPath id="clip0_2109_178480">
<rect width="150" height="150" fill="white"/>
</clipPath>
</defs>
</svg>
