<svg width="150" height="150" viewBox="0 0 150 150" fill="none" xmlns="http://www.w3.org/2000/svg">
<g clip-path="url(#clip0_2109_179193)">
<path d="M0 150H150V0H0V150Z" fill="#00FFFF" stroke="black" stroke-width="0.393439"/>
<path d="M0 85.8247H37.3874L112.462 0" stroke="black" stroke-width="0.393439"/>
<path d="M140.541 150V0" stroke="black" stroke-width="0.393439"/>
<path d="M131.081 150V0" stroke="black" stroke-width="0.393439"/>
<path d="M121.922 150V0" stroke="black" stroke-width="0.393439"/>
<path d="M112.463 150V0" stroke="black" stroke-width="0.393439"/>
<path d="M103.153 149.999V10.5664" stroke="black" stroke-width="0.393439"/>
<path d="M93.6934 149.999V21.3906" stroke="black" stroke-width="0.393439"/>
<path d="M84.3848 149.998V31.957" stroke="black" stroke-width="0.393439"/>
<path d="M75.0752 150.002V42.7852" stroke="black" stroke-width="0.393439"/>
<path d="M65.6152 150.001V53.3516" stroke="black" stroke-width="0.393439"/>
<path d="M56.1562 150.001V64.1758" stroke="black" stroke-width="0.393439"/>
<path d="M46.9971 150V75" stroke="black" stroke-width="0.393439"/>
<path d="M37.5371 149.999V85.8242" stroke="black" stroke-width="0.393439"/>
<path d="M28.0781 149.999V85.8242" stroke="black" stroke-width="0.393439"/>
<path d="M18.7686 149.999V85.8242" stroke="black" stroke-width="0.393439"/>
<path d="M9.45898 149.999V85.8242" stroke="black" stroke-width="0.393439"/>
</g>
<defs>
<clipPath id="clip0_2109_179193">
<rect width="150" height="150" fill="white"/>
</clipPath>
</defs>
</svg>
