<svg width="150" height="150" viewBox="0 0 150 150" fill="none" xmlns="http://www.w3.org/2000/svg">
<g clip-path="url(#clip0_2109_178998)">
<path d="M49.936 78.2282L39.3726 85.1351L26.8886 90.2402L13.8284 93.3934L0 94.5946V150L27.8489 147.447L53.9693 141.141L78.7452 131.081L100.064 117.267L149.808 78.3784L150 0L49.936 78.2282Z" fill="#00FFFF" stroke="black" stroke-width="0.339635"/>
<path d="M112.356 107.656L62.2275 68.6172" stroke="black" stroke-width="0.339635"/>
<path d="M124.84 97.7461L74.7119 58.707" stroke="black" stroke-width="0.339635"/>
<path d="M137.324 88.1384L87.3877 48.9492" stroke="black" stroke-width="0.339635"/>
<path d="M149.808 78.3784L99.8721 39.0391" stroke="black" stroke-width="0.339635"/>
<path d="M150 58.7068L112.355 29.2773" stroke="black" stroke-width="0.339635"/>
<path d="M150 38.8889L124.84 19.5195" stroke="black" stroke-width="0.339635"/>
<path d="M150 19.3674L137.324 9.75781" stroke="black" stroke-width="0.339635"/>
<path d="M50.1279 78.3789L100.064 117.268" stroke="black" stroke-width="0.339635"/>
<path d="M26.8887 90.0898L54.1614 141.291" stroke="black" stroke-width="0.339635"/>
<path d="M39.1807 85.1367L78.5533 131.083" stroke="black" stroke-width="0.339635"/>
<path d="M13.6367 93.2422L27.4651 147.597" stroke="black" stroke-width="0.339635"/>
</g>
<defs>
<clipPath id="clip0_2109_178998">
<rect width="150" height="150" fill="white"/>
</clipPath>
</defs>
</svg>
