<svg width="150" height="150" viewBox="0 0 150 150" fill="none" xmlns="http://www.w3.org/2000/svg">
<g clip-path="url(#clip0_2109_179093)">
<path d="M150 150V0H0V150H150Z" fill="#00FFFF" stroke="black" stroke-width="0.393439"/>
<path d="M85.8247 149.999V112.462L0 37.3867" stroke="black" stroke-width="0.393439"/>
<path d="M150 9.30859H0" stroke="black" stroke-width="0.393439"/>
<path d="M150 18.7695H0" stroke="black" stroke-width="0.393439"/>
<path d="M150 27.9297H0" stroke="black" stroke-width="0.393439"/>
<path d="M150 37.3867H0" stroke="black" stroke-width="0.393439"/>
<path d="M150 46.6953H10.5674" stroke="black" stroke-width="0.393439"/>
<path d="M150 56.1562H21.3916" stroke="black" stroke-width="0.393439"/>
<path d="M150 65.4648H31.959" stroke="black" stroke-width="0.393439"/>
<path d="M150 74.7734H42.7832" stroke="black" stroke-width="0.393439"/>
<path d="M150 84.2344H53.3506" stroke="black" stroke-width="0.393439"/>
<path d="M150 93.6953H64.1748" stroke="black" stroke-width="0.393439"/>
<path d="M150 102.852H75" stroke="black" stroke-width="0.393439"/>
<path d="M150 112.312H85.8252" stroke="black" stroke-width="0.393439"/>
<path d="M150 121.773H85.8252" stroke="black" stroke-width="0.393439"/>
<path d="M150 131.082H85.8252" stroke="black" stroke-width="0.393439"/>
<path d="M150 140.391H85.8252" stroke="black" stroke-width="0.393439"/>
</g>
<defs>
<clipPath id="clip0_2109_179093">
<rect width="150" height="150" fill="white"/>
</clipPath>
</defs>
</svg>
