<svg width="150" height="150" viewBox="0 0 150 150" fill="none" xmlns="http://www.w3.org/2000/svg">
<g clip-path="url(#clip0_2109_178515)">
<path d="M133.333 150L0 16.5165L16.6667 0L150 133.183L133.333 150Z" fill="#00FFFF" stroke="black" stroke-width="0.3003"/>
<path d="M70.8711 87.3893L87.3876 70.7227" stroke="black" stroke-width="0.3003"/>
<path d="M74.9248 91.5924L91.5915 74.9258" stroke="black" stroke-width="0.3003"/>
<path d="M78.9785 95.6471L95.6452 78.9805" stroke="black" stroke-width="0.3003"/>
<path d="M83.1836 99.8503L99.8503 83.1836" stroke="black" stroke-width="0.3003"/>
<path d="M87.3877 104.053L104.054 87.3867" stroke="black" stroke-width="0.3003"/>
<path d="M91.5918 108.257L108.258 91.5898" stroke="black" stroke-width="0.3003"/>
<path d="M95.6455 112.311L112.312 95.6445" stroke="black" stroke-width="0.3003"/>
<path d="M99.8496 116.518L116.516 99.8516" stroke="black" stroke-width="0.3003"/>
<path d="M104.054 120.721L120.72 104.055" stroke="black" stroke-width="0.3003"/>
<path d="M108.258 124.924L124.924 108.258" stroke="black" stroke-width="0.3003"/>
<path d="M112.312 128.979L129.129 112.312" stroke="black" stroke-width="0.3003"/>
<path d="M116.517 133.182L133.183 116.516" stroke="black" stroke-width="0.3003"/>
<path d="M120.721 137.389L137.387 120.723" stroke="black" stroke-width="0.3003"/>
<path d="M124.925 141.592L141.591 124.926" stroke="black" stroke-width="0.3003"/>
<path d="M129.129 145.647L145.645 128.98" stroke="black" stroke-width="0.3003"/>
<path d="M4.2041 20.7196L20.7206 4.20312" stroke="black" stroke-width="0.3003"/>
<path d="M8.25781 24.9245L24.9245 8.25781" stroke="black" stroke-width="0.3003"/>
<path d="M12.3125 28.9792L29.1293 12.3125" stroke="black" stroke-width="0.3003"/>
<path d="M16.5166 33.1823L33.1833 16.5156" stroke="black" stroke-width="0.3003"/>
<path d="M20.7207 37.3893L37.3874 20.7227" stroke="black" stroke-width="0.3003"/>
<path d="M24.9248 41.5924L41.5915 24.9258" stroke="black" stroke-width="0.3003"/>
<path d="M29.1289 45.6471L45.7956 28.9805" stroke="black" stroke-width="0.3003"/>
<path d="M33.1836 49.8503L49.8503 33.1836" stroke="black" stroke-width="0.3003"/>
<path d="M37.3877 54.0534L54.0544 37.3867" stroke="black" stroke-width="0.3003"/>
<path d="M41.5918 58.2565L58.2585 41.5898" stroke="black" stroke-width="0.3003"/>
<path d="M45.7959 62.4613L62.4626 45.6445" stroke="black" stroke-width="0.3003"/>
<path d="M49.8496 66.5182L66.5163 49.8516" stroke="black" stroke-width="0.3003"/>
<path d="M54.0537 70.7214L70.7204 54.0547" stroke="black" stroke-width="0.3003"/>
<path d="M58.2578 74.9245L74.9245 58.2578" stroke="black" stroke-width="0.3003"/>
<path d="M62.4629 78.9775L78.9794 62.4609" stroke="black" stroke-width="0.3003"/>
<path d="M66.667 83.1845L83.1835 66.668" stroke="black" stroke-width="0.3003"/>
</g>
<defs>
<clipPath id="clip0_2109_178515">
<rect width="150" height="150" fill="white"/>
</clipPath>
</defs>
</svg>
