<svg width="150" height="150" viewBox="0 0 150 150" fill="none" xmlns="http://www.w3.org/2000/svg">
<g clip-path="url(#clip0_2109_178923)">
<path d="M71.6216 49.936L64.7147 39.3726L59.6096 26.8886L56.4565 13.8284L55.2553 0H0L2.4024 27.8489L8.70871 53.9693L18.7688 78.7452L32.5826 100.064L71.4715 149.808L150 150L71.6216 49.936Z" fill="#00FFFF" stroke="black" stroke-width="0.339635"/>
<path d="M42.1924 112.355L81.2314 62.2266" stroke="black" stroke-width="0.339635"/>
<path d="M52.1025 124.839L91.1416 74.7109" stroke="black" stroke-width="0.339635"/>
<path d="M61.7119 137.323L100.901 87.3867" stroke="black" stroke-width="0.339635"/>
<path d="M71.4717 149.807L110.811 99.8711" stroke="black" stroke-width="0.339635"/>
<path d="M91.1406 150L120.57 112.355" stroke="black" stroke-width="0.339635"/>
<path d="M110.961 150L130.33 124.84" stroke="black" stroke-width="0.339635"/>
<path d="M130.48 150L140.09 137.324" stroke="black" stroke-width="0.339635"/>
<path d="M71.4719 50.1289L32.583 100.065" stroke="black" stroke-width="0.339635"/>
<path d="M59.7598 26.8867L8.55859 54.1594" stroke="black" stroke-width="0.339635"/>
<path d="M64.7145 39.1797L18.7686 78.5523" stroke="black" stroke-width="0.339635"/>
<path d="M56.6063 13.6367L2.25195 27.4651" stroke="black" stroke-width="0.339635"/>
</g>
<defs>
<clipPath id="clip0_2109_178923">
<rect width="150" height="150" fill="white"/>
</clipPath>
</defs>
</svg>
