<svg width="150" height="150" viewBox="0 0 150 150" fill="none" xmlns="http://www.w3.org/2000/svg">
<g clip-path="url(#clip0_2109_179213)">
<path d="M150 0H0V150H150V0Z" fill="#00FFFF" stroke="black" stroke-width="0.393439"/>
<path d="M150 64.1758H112.463L37.3877 150.001" stroke="black" stroke-width="0.393439"/>
<path d="M9.30957 0V150" stroke="black" stroke-width="0.393439"/>
<path d="M18.7686 0V150" stroke="black" stroke-width="0.393439"/>
<path d="M27.9277 0V150" stroke="black" stroke-width="0.393439"/>
<path d="M37.3877 0V150" stroke="black" stroke-width="0.393439"/>
<path d="M46.6963 0V139.433" stroke="black" stroke-width="0.393439"/>
<path d="M56.1562 0V128.608" stroke="black" stroke-width="0.393439"/>
<path d="M65.4658 0V118.041" stroke="black" stroke-width="0.393439"/>
<path d="M74.7744 0V107.216" stroke="black" stroke-width="0.393439"/>
<path d="M84.2344 0V96.3918" stroke="black" stroke-width="0.393439"/>
<path d="M93.6934 0V85.8247" stroke="black" stroke-width="0.393439"/>
<path d="M102.853 0V75" stroke="black" stroke-width="0.393439"/>
<path d="M112.312 0V64.1753" stroke="black" stroke-width="0.393439"/>
<path d="M121.771 0V64.1753" stroke="black" stroke-width="0.393439"/>
<path d="M131.081 0V64.1753" stroke="black" stroke-width="0.393439"/>
<path d="M140.391 0V64.1753" stroke="black" stroke-width="0.393439"/>
</g>
<defs>
<clipPath id="clip0_2109_179213">
<rect width="150" height="150" fill="white"/>
</clipPath>
</defs>
</svg>
