<svg width="150" height="150" viewBox="0 0 150 150" fill="none" xmlns="http://www.w3.org/2000/svg">
<g clip-path="url(#clip0_2109_178716)">
<path d="M0 0V74.8L14.6 76.2L28.8 80.6L41.6 87.4L53.2 96.8L62.6 108.2L69.4 121.2L73.6 135.2L75.2 150H150L146.8 120.4L138.4 92.6L124.8 66.6L106.2 43.8L83 25.2L57.4 11.6L29.2 2.8L0 0Z" fill="#00FFFF" stroke="black" stroke-width="0.4"/>
<path d="M28.7998 80.7984L57.3998 11.3984" stroke="black" stroke-width="0.4"/>
<path d="M53 97L106 44" stroke="black" stroke-width="0.4"/>
<path d="M69.2002 121.402L138.4 92.6016" stroke="black" stroke-width="0.4"/>
<path d="M14.5996 76.4L29.3996 3" stroke="black" stroke-width="0.4"/>
<path d="M41.5996 87.5984L83.3996 25.3984" stroke="black" stroke-width="0.4"/>
<path d="M62.4004 108.201L124.8 66.8008" stroke="black" stroke-width="0.4"/>
<path d="M73.5996 135.201L147.2 120.801" stroke="black" stroke-width="0.4"/>
</g>
<defs>
<clipPath id="clip0_2109_178716">
<rect width="150" height="150" fill="white"/>
</clipPath>
</defs>
</svg>
