<svg width="150" height="150" viewBox="0 0 150 150" fill="none" xmlns="http://www.w3.org/2000/svg">
<g clip-path="url(#clip0_2109_179173)">
<path d="M150 150H0V0H150V150Z" fill="#00FFFF" stroke="black" stroke-width="0.393439"/>
<path d="M150 85.8247H112.463L37.3877 0" stroke="black" stroke-width="0.393439"/>
<path d="M9.30957 150V0" stroke="black" stroke-width="0.393439"/>
<path d="M18.7686 150V0" stroke="black" stroke-width="0.393439"/>
<path d="M27.9277 150V0" stroke="black" stroke-width="0.393439"/>
<path d="M37.3877 150V0" stroke="black" stroke-width="0.393439"/>
<path d="M46.6963 149.999V10.5664" stroke="black" stroke-width="0.393439"/>
<path d="M56.1562 149.999V21.3906" stroke="black" stroke-width="0.393439"/>
<path d="M65.4658 149.998V31.957" stroke="black" stroke-width="0.393439"/>
<path d="M74.7744 150.002V42.7852" stroke="black" stroke-width="0.393439"/>
<path d="M84.2344 150.001V53.3516" stroke="black" stroke-width="0.393439"/>
<path d="M93.6934 150.001V64.1758" stroke="black" stroke-width="0.393439"/>
<path d="M102.853 150V75" stroke="black" stroke-width="0.393439"/>
<path d="M112.312 149.999V85.8242" stroke="black" stroke-width="0.393439"/>
<path d="M121.771 149.999V85.8242" stroke="black" stroke-width="0.393439"/>
<path d="M131.081 149.999V85.8242" stroke="black" stroke-width="0.393439"/>
<path d="M140.391 149.999V85.8242" stroke="black" stroke-width="0.393439"/>
</g>
<defs>
<clipPath id="clip0_2109_179173">
<rect width="150" height="150" fill="white"/>
</clipPath>
</defs>
</svg>
