<svg width="150" height="150" viewBox="0 0 150 150" fill="none" xmlns="http://www.w3.org/2000/svg">
<g clip-path="url(#clip0_2109_178968)">
<path d="M49.936 71.6216L39.3726 64.7147L26.8886 59.6096L13.8284 56.4565L0 55.2553V0L27.8489 2.4024L53.9693 8.70871L78.7452 18.7688L100.064 32.5826L149.808 71.4715L150 150L49.936 71.6216Z" fill="#00FFFF" stroke="black" stroke-width="0.339635"/>
<path d="M112.356 42.1914L62.2275 81.2304" stroke="black" stroke-width="0.339635"/>
<path d="M124.84 52.1016L74.7119 91.1406" stroke="black" stroke-width="0.339635"/>
<path d="M137.324 61.7109L87.3877 100.9" stroke="black" stroke-width="0.339635"/>
<path d="M149.808 71.4727L99.8721 110.812" stroke="black" stroke-width="0.339635"/>
<path d="M150 91.1406L112.355 120.57" stroke="black" stroke-width="0.339635"/>
<path d="M150 110.961L124.84 130.33" stroke="black" stroke-width="0.339635"/>
<path d="M150 130.48L137.324 140.09" stroke="black" stroke-width="0.339635"/>
<path d="M50.1279 71.4709L100.064 32.582" stroke="black" stroke-width="0.339635"/>
<path d="M26.8887 59.7598L54.1614 8.55859" stroke="black" stroke-width="0.339635"/>
<path d="M39.1807 64.7155L78.5533 18.7695" stroke="black" stroke-width="0.339635"/>
<path d="M13.6367 56.6083L27.4651 2.25391" stroke="black" stroke-width="0.339635"/>
</g>
<defs>
<clipPath id="clip0_2109_178968">
<rect width="150" height="150" fill="white"/>
</clipPath>
</defs>
</svg>
