<svg width="150" height="150" viewBox="0 0 150 150" fill="none" xmlns="http://www.w3.org/2000/svg">
<g clip-path="url(#clip0_2109_178738)">
<path d="M150 0H75.2L73.8 14.6L69.4 28.8L62.6 41.6L53.2 53.2L41.8 62.6L28.8 69.4L14.8 73.6L0 75.2V150L29.6 146.8L57.4 138.4L83.4 124.8L106.2 106.2L124.8 83L138.4 57.4L147.2 29.2L150 0Z" fill="#00FFFF" stroke="black" stroke-width="0.4"/>
<path d="M69.2002 28.8008L138.6 57.4008" stroke="black" stroke-width="0.4"/>
<path d="M53 53L106 106" stroke="black" stroke-width="0.4"/>
<path d="M28.5996 69.1992L57.3996 138.399" stroke="black" stroke-width="0.4"/>
<path d="M73.5996 14.6016L147 29.4016" stroke="black" stroke-width="0.4"/>
<path d="M62.4004 41.6016L124.6 83.4016" stroke="black" stroke-width="0.4"/>
<path d="M41.7998 62.3984L83.1998 124.798" stroke="black" stroke-width="0.4"/>
<path d="M14.7998 73.6016L29.1998 147.202" stroke="black" stroke-width="0.4"/>
</g>
<defs>
<clipPath id="clip0_2109_178738">
<rect width="150" height="150" fill="white"/>
</clipPath>
</defs>
</svg>
