<svg width="150" height="150" viewBox="0 0 150 150" fill="none" xmlns="http://www.w3.org/2000/svg">
<g clip-path="url(#clip0_2109_178705)">
<path d="M0 150H74.8L76.2 135.4L80.6 121.2L87.4 108.4L96.8 96.8L108.2 87.4L121.2 80.6L135.2 76.4L150 74.8V0L120.4 3.2L92.6 11.6L66.6 25.2L43.8 43.8L25.2 67L11.6 92.6L2.8 120.8L0 150Z" fill="#00FFFF" stroke="black" stroke-width="0.4"/>
<path d="M80.8004 121.202L11.4004 92.6016" stroke="black" stroke-width="0.4"/>
<path d="M97 97L44 44" stroke="black" stroke-width="0.4"/>
<path d="M121.4 80.8016L92.5996 11.6016" stroke="black" stroke-width="0.4"/>
<path d="M76.4 135.402L3 120.602" stroke="black" stroke-width="0.4"/>
<path d="M87.6004 108.402L25.4004 66.6016" stroke="black" stroke-width="0.4"/>
<path d="M108.2 87.5992L66.7998 25.1992" stroke="black" stroke-width="0.4"/>
<path d="M135.2 76.4008L120.8 2.80078" stroke="black" stroke-width="0.4"/>
</g>
<defs>
<clipPath id="clip0_2109_178705">
<rect width="150" height="150" fill="white"/>
</clipPath>
</defs>
</svg>
