<svg width="150" height="150" viewBox="0 0 150 150" fill="none" xmlns="http://www.w3.org/2000/svg">
<g clip-path="url(#clip0_2109_166626)">
<path d="M5.25488 140.243H26.2759V101.219H5.25488V140.243Z" fill="#003333" stroke="black" stroke-width="0.382737"/>
<path d="M13.3637 86.5859H18.7691V120.732H6.90723V96.342L13.3637 86.5859Z" fill="#336666" stroke="black" stroke-width="0.382737"/>
<path d="M0 117.316L1.35135 103.658L7.35736 101.219H11.8619V130.487H0V117.316Z" fill="#669999" stroke="black" stroke-width="0.382737"/>
<path d="M29.2793 8.04883H35.2853V22.683H29.2793V8.04883Z" fill="#333333" stroke="black" stroke-width="0.382737"/>
<path d="M29.2793 22.6836H35.2853V130.488H29.2793V22.6836Z" fill="black"/>
<path d="M5.25488 140.244H150V142.683H5.25488V140.244Z" fill="#3366CC"/>
<path d="M35.2852 22.6836H150V130.488H35.2852V22.6836Z" fill="#003399"/>
<path d="M35.2852 26.0977H150V127.073H35.2852V26.0977Z" fill="#083BA1"/>
<path d="M35.2852 29.5117H150V123.658H35.2852V29.5117Z" fill="#0F42A8"/>
<path d="M35.2852 33.4141H150V119.756H35.2852V33.4141Z" fill="#174AB0"/>
<path d="M35.2852 36.8301H150V116.342H35.2852V36.8301Z" fill="#1C4FB5"/>
<path d="M35.2852 40.2441H150V112.927H35.2852V40.2441Z" fill="#2457BD"/>
<path d="M35.2852 43.6582H150V109.512H35.2852V43.6582Z" fill="#2B5EC4"/>
<path d="M35.2852 47.0723H150V106.097H35.2852V47.0723Z" fill="#3366CC"/>
<path d="M35.2852 50.4883H150V102.683H35.2852V50.4883Z" fill="#3B6ED4"/>
<path d="M35.2852 54.3906H150V98.7809H35.2852V54.3906Z" fill="#4275DB"/>
<path d="M35.2852 57.8047H150V95.3657H35.2852V57.8047Z" fill="#4A7DE3"/>
<path d="M35.2852 61.2188H150V91.9505H35.2852V61.2188Z" fill="#4F82E8"/>
<path d="M35.2852 64.6348H150V88.5372H35.2852V64.6348Z" fill="#578AF0"/>
<path d="M35.2852 68.0488H150V85.122H35.2852V68.0488Z" fill="#5E91F7"/>
<path d="M35.2852 71.9512H150V81.7073H35.2852V71.9512Z" fill="#6699FF"/>
<path d="M35.2852 22.6836H150V130.488H35.2852V22.6836Z" stroke="black" stroke-width="0.382737"/>
<path d="M29.2793 26.0977H35.2853V127.073H29.2793V26.0977Z" fill="#0A0A0A"/>
<path d="M29.2793 29.5117H35.2853V123.658H29.2793V29.5117Z" fill="#121212"/>
<path d="M29.2793 33.4141H35.2853V119.756H29.2793V33.4141Z" fill="#1C1C1C"/>
<path d="M29.2793 36.8301H35.2853V116.342H29.2793V36.8301Z" fill="#242424"/>
<path d="M29.2793 40.2441H35.2853V112.927H29.2793V40.2441Z" fill="#2E2E2E"/>
<path d="M29.2793 43.6582H35.2853V109.512H29.2793V43.6582Z" fill="#363636"/>
<path d="M29.2793 47.0723H35.2853V106.097H29.2793V47.0723Z" fill="#404040"/>
<path d="M29.2793 50.4883H35.2853V102.683H29.2793V50.4883Z" fill="#4A4A4A"/>
<path d="M29.2793 54.3906H35.2853V98.7809H29.2793V54.3906Z" fill="#525252"/>
<path d="M29.2793 57.8047H35.2853V95.3657H29.2793V57.8047Z" fill="#5C5C5C"/>
<path d="M29.2793 61.2188H35.2853V91.9505H29.2793V61.2188Z" fill="#636363"/>
<path d="M29.2793 64.6348H35.2853V88.5372H29.2793V64.6348Z" fill="#6E6E6E"/>
<path d="M29.2793 68.0488H35.2853V85.122H29.2793V68.0488Z" fill="#757575"/>
<path d="M29.2793 71.9512H35.2853V81.7073H29.2793V71.9512Z" fill="#7F7F7F"/>
<path d="M29.2793 22.6836H35.2853V130.488H29.2793V22.6836Z" stroke="black" stroke-width="0.382737"/>
<path d="M131.982 120.732H140.841V140.245H131.982V120.732Z" fill="#3366CC" stroke="black" stroke-width="0.382737"/>
<path d="M44.2939 120.732H53.6033V140.245H44.2939V120.732Z" fill="#3366CC" stroke="black" stroke-width="0.382737"/>
<path d="M5.25488 142.684H150V150.001H5.25488V142.684Z" fill="#003399"/>
<path d="M5.25488 140.244H150V150H5.25488V140.244Z" stroke="black" stroke-width="0.382737"/>
<path d="M20.2705 101.219H23.2735V140.243H20.2705V101.219Z" fill="#336666"/>
<path d="M14.2646 81.707H29.2797V101.219H14.2646V81.707Z" fill="#669999"/>
<path d="M14.2646 82.6836H29.2797V99.7568H14.2646V82.6836Z" fill="#78ABAB"/>
<path d="M14.2646 84.1465H29.2797V98.2928H14.2646V84.1465Z" fill="#87BABA"/>
<path d="M14.2646 85.6094H29.2797V96.8289H14.2646V85.6094Z" fill="#99CCCC"/>
<path d="M14.2646 87.0723H29.2797V95.3649H14.2646V87.0723Z" fill="#ABDEDE"/>
<path d="M14.2646 88.5371H29.2797V93.903H14.2646V88.5371Z" fill="#BAEDED"/>
<path d="M14.2646 90H29.2797V92.439H14.2646V90Z" fill="#CCFFFF"/>
<path d="M14.2646 81.707H29.2797V101.219H14.2646V81.707Z" stroke="black" stroke-width="0.382737"/>
<path d="M2.85254 130.488L3.75344 139.268L5.85554 145.122L12.7624 147.561L25.6754 146.585L42.1919 139.268L47.297 131.951L49.6994 123.17L50.6003 69.5119L48.7985 21.707" stroke="black" stroke-width="0.382737"/>
<path d="M150 62.1953L36.1865 71.9514" stroke="#003399" stroke-width="0.382737"/>
<path d="M36.1865 81.707L150 91.4631" stroke="#003399" stroke-width="0.382737"/>
<path d="M45.1953 71.9512H54.8049V87.5609H45.1953V71.9512Z" fill="#E5E5E5"/>
<path d="M45.1953 87.5609V71.9512H54.8049" stroke="white" stroke-width="0.382737"/>
<path d="M45.1953 87.5609H54.8049V71.9512" stroke="black" stroke-width="0.382737"/>
<path d="M48.1982 22.6825H49.6997V5.60938H48.1982V22.6825Z" fill="#333333" stroke="black" stroke-width="0.382737"/>
<path d="M57.207 82.6823H60.21V7.31641H57.207V82.6823Z" fill="#333333" stroke="black" stroke-width="0.382737"/>
<path d="M55.7061 15.3652H61.7121V57.3165H55.7061V15.3652Z" fill="#999999" stroke="black" stroke-width="0.382737"/>
<path d="M48.1978 10.4878L47.2969 5.36585L48.1978 0H50.2999L51.2008 5.36585L50.2999 10.4878H48.1978Z" fill="#E5E5E5" stroke="black" stroke-width="0.382737"/>
</g>
<defs>
<clipPath id="clip0_2109_166626">
<rect width="150" height="150" fill="white"/>
</clipPath>
</defs>
</svg>
