<svg width="150" height="150" viewBox="0 0 150 150" fill="none" xmlns="http://www.w3.org/2000/svg">
<g clip-path="url(#clip0_2109_166933)">
<path d="M0 0H37.218H74.6617H112.556H150V18.6186V37.3874V56.006V74.9249V93.5435V112.462V131.081V150H112.556H74.6617H37.218H0V131.081V112.462V93.5435V74.9249V56.006V37.3874V18.6186V0Z" fill="#FFCC00"/>
<path d="M99.9247 144.895L83.6841 150H66.0902L49.3984 144.895L34.5112 134.985L22.3308 120.721L13.3082 103.754L9.24805 84.8348V65.015L13.3082 45.7958L22.3308 28.979L34.5112 14.8649L49.3984 4.95496L66.0902 0H83.6841L100.376 4.95496L115.263 14.8649L127.444 28.979L136.015 46.0961L140.526 65.015V84.8348L136.015 103.754L127.444 120.721L115.263 134.985L99.9247 144.895Z" fill="#FFCC00"/>
<path d="M99.0227 142.042L83.2332 147.147H66.5415L50.3009 142.042L36.3159 132.583L24.1355 119.37L16.0152 102.853L11.5039 84.5347V65.3155L16.0152 46.9972L24.1355 30.4807L36.3159 16.9671L50.3009 7.65784L66.5415 2.55273H83.2332L99.0227 7.35754L113.459 16.9671L125.188 30.4807L133.76 46.9972L137.82 65.3155V84.2344L133.76 102.853L125.188 119.37L113.459 132.583L99.0227 142.042Z" fill="#FFC400"/>
<path d="M98.1207 139.34L82.7824 144.445H66.9929L51.6545 139.34L37.6696 130.481L26.3914 117.568L18.7222 101.652L14.2109 83.9348V65.6165L18.7222 47.8987L26.3914 32.2831L37.6696 19.2201L51.6545 10.0609L66.9929 5.40625H82.7824L98.1207 10.0609L112.106 19.2201L123.384 32.2831L131.053 47.8987L135.564 65.6165V83.9348L131.053 101.652L123.384 117.568L112.106 130.481L98.1207 139.34Z" fill="#FFBF00"/>
<path d="M97.2177 136.936L82.3305 141.441H67.4433L52.5561 136.936L39.4734 128.227L28.8719 115.765L20.9771 100.75L16.917 83.6327V65.915L20.9771 49.0982L28.8719 33.7829L39.4734 21.4705L52.5561 12.912L67.4433 7.95703H82.3305L97.2177 12.4615L110.3 21.4705L121.128 33.7829L128.797 49.0982L132.857 65.915V83.6327L128.797 100.75L121.128 115.765L110.3 128.227L97.2177 136.936Z" fill="#FFB800"/>
<path d="M95.8646 134.534L81.8797 138.738H67.4436L53.4586 134.534L40.827 126.276L30.4511 114.264L23.6842 99.549L19.624 83.3328V66.516L23.6842 49.9995L30.4511 35.5851L40.827 23.5731L53.4586 15.1647L67.4436 10.6602H81.8797L96.3158 15.1647L108.496 23.5731L118.872 35.5851L126.09 49.9995L130.15 66.516V83.3328L126.09 99.549L118.872 114.264L108.496 126.276L95.8646 134.534Z" fill="#FFB200"/>
<path d="M94.9626 131.982L81.8799 136.186H67.895L54.3611 131.982L42.6318 123.874L32.707 112.462L25.9401 98.6486L22.3311 83.033V66.8167L25.9401 51.2011L32.707 37.087L42.6318 25.6756L54.3611 17.5675L67.895 13.3633H81.8799L94.9626 17.5675L107.143 25.6756L117.068 37.087L123.835 51.2011L127.444 66.8167V82.7327L123.835 98.6486L117.068 112.462L107.143 123.874L94.9626 131.982Z" fill="#FFAB00"/>
<path d="M94.0597 129.43L81.4281 133.334H68.3454L55.7138 129.43L44.4356 121.772L34.9619 110.961L28.195 97.4478L25.0371 82.7331V67.1175L28.195 52.1024L34.9619 38.8892L44.4356 28.0784L55.7138 20.2706L68.3454 16.0664H81.4281L94.0597 20.2706L105.338 28.0784L114.812 38.8892L121.127 52.1024L124.736 67.1175V82.4328L121.127 97.4478L114.812 110.961L105.338 121.772L94.0597 129.43Z" fill="#FFA600"/>
<path d="M93.1577 126.876L80.9772 130.63H68.7968L56.6163 126.876L45.7893 119.669L37.2178 109.159L30.9021 96.5461L27.9697 82.1317V67.4169L30.9021 53.3028L37.2178 40.6902L45.7893 30.1797L56.6163 22.6722L68.7968 19.2188H80.9772L93.1577 22.6722L103.985 30.1797L112.556 40.6902L118.872 53.3028L122.03 67.4169V82.1317L118.872 96.5461L112.556 109.159L103.985 119.669L93.1577 126.876Z" fill="#FF9E00"/>
<path d="M91.8045 124.474L80.5263 128.078H68.797L57.5188 124.474L47.594 117.267L39.0226 107.357L33.1579 95.3451L30 81.8315V67.7174L33.1579 54.2039L39.0226 42.1919L47.594 32.282L57.5188 25.3751L68.797 21.7715H80.5263L92.2556 25.3751L102.18 32.282L110.752 42.1919L116.165 54.5042L119.323 67.7174V81.8315L116.165 95.3451L110.752 107.357L102.18 117.267L91.8045 124.474Z" fill="#FF9900"/>
<path d="M90.9025 121.772L80.5266 125.376H69.2484L58.4213 121.772L48.9476 115.165L41.2785 105.856L35.8649 94.4446L32.707 81.5317V68.3185L35.8649 55.4055L41.2785 43.9941L48.9476 34.3845L58.4213 27.7779L69.2484 24.4746H80.5266L90.9025 27.7779L100.376 34.3845L108.497 43.9941L113.91 55.4055L116.617 68.3185V81.5317L113.91 94.4446L108.497 105.856L100.376 115.165L90.9025 121.772Z" fill="#FF9100"/>
<path d="M89.9995 119.37L80.0747 122.523H69.6988L59.774 119.37L50.7514 113.064L43.5334 104.055L38.1199 93.2438L35.4131 81.2318V68.6192L38.1199 56.3069L43.5334 45.4961L50.7514 36.7873L59.774 30.481L69.6988 27.1777H80.0747L89.9995 30.481L99.0221 36.7873L106.24 45.4961L111.203 56.6072L114.36 68.6192V81.2318L111.203 93.2438L106.24 104.055L99.0221 113.064L89.9995 119.37Z" fill="#FF8C00"/>
<path d="M74.887 119.969C95.1928 119.969 111.654 99.8016 111.654 74.924C111.654 50.0463 95.1928 29.8789 74.887 29.8789C54.5812 29.8789 38.1201 50.0463 38.1201 74.924C38.1201 99.8016 54.5812 119.969 74.887 119.969Z" fill="#FF8500"/>
<path d="M74.8873 116.966C93.6982 116.966 108.947 98.0763 108.947 74.7742C108.947 51.4721 93.6982 32.582 74.8873 32.582C56.0764 32.582 40.8271 51.4721 40.8271 74.7742C40.8271 98.0763 56.0764 116.966 74.8873 116.966Z" fill="#FF7F00"/>
<path d="M74.8876 114.264C92.2036 114.264 106.241 96.5841 106.241 74.7746C106.241 52.9652 92.2036 35.2852 74.8876 35.2852C57.5716 35.2852 43.5342 52.9652 43.5342 74.7746C43.5342 96.5841 57.5716 114.264 74.8876 114.264Z" fill="#FF7800"/>
<path d="M74.8869 111.562C90.7079 111.562 103.533 95.0919 103.533 74.7751C103.533 54.4583 90.7079 37.9883 74.8869 37.9883C59.0658 37.9883 46.2402 54.4583 46.2402 74.7751C46.2402 95.0919 59.0658 111.562 74.8869 111.562Z" fill="#FF7300"/>
<path d="M74.8871 108.86C89.2133 108.86 100.827 93.5996 100.827 74.7755C100.827 55.9514 89.2133 40.6914 74.8871 40.6914C60.5609 40.6914 48.9473 55.9514 48.9473 74.7755C48.9473 93.5996 60.5609 108.86 74.8871 108.86Z" fill="#FF6B00"/>
<path d="M74.6618 106.156C87.6176 106.156 98.1204 92.1731 98.1204 74.9246C98.1204 57.6761 87.6176 43.6934 74.6618 43.6934C61.7059 43.6934 51.2031 57.6761 51.2031 74.9246C51.2031 92.1731 61.7059 106.156 74.6618 106.156Z" fill="#FF6600"/>
<path d="M0 0H37.218H74.6617H112.556H150V18.6186V37.3874V56.006V74.9249V93.5435V112.462V131.081V150H112.556H74.6617H37.218H0V131.081V112.462V93.5435V74.9249V56.006V37.3874V18.6186V0Z" stroke="black" stroke-width="0.368068"/>
</g>
<defs>
<clipPath id="clip0_2109_166933">
<rect width="150" height="150" fill="white"/>
</clipPath>
</defs>
</svg>
