<svg width="150" height="150" viewBox="0 0 150 150" fill="none" xmlns="http://www.w3.org/2000/svg">
<g clip-path="url(#clip0_2109_165514)">
<path d="M0 62.3125H150V150H0V62.3125Z" fill="#E5E5E5"/>
<path d="M51.8488 24.7748L28.5586 32.5826V43.6937H51.8488V62.3123H97.8747V43.6937H121.165V34.0841L97.8747 24.7748V6.15616L74.5845 4.95496L73.4754 3.15315L71.2573 1.65165L68.4847 0.45045L65.1575 0H61.2758L57.9486 0.45045L55.176 1.65165L52.9579 3.15315L51.8488 4.95496V24.7748Z" fill="#B2B2B2" stroke="black" stroke-width="0.408075"/>
<path d="M86.2291 12.4622C92.6605 12.4622 97.8742 9.63879 97.8742 6.15592C97.8742 2.67304 92.6605 -0.150391 86.2291 -0.150391C79.7977 -0.150391 74.584 2.67304 74.584 6.15592C74.584 9.63879 79.7977 12.4622 86.2291 12.4622Z" fill="#666666" stroke="black" stroke-width="0.408075"/>
<path d="M0 62.3125H150V150H0V62.3125Z" stroke="black" stroke-width="0.408075"/>
<path d="M51.8486 43.6934H97.8745" stroke="black" stroke-width="0.408075"/>
<path d="M97.8745 24.7754H51.8486" stroke="black" stroke-width="0.408075"/>
<path d="M28.5586 34.084H121.165" stroke="black" stroke-width="0.408075"/>
<path d="M72.9203 87.5372L70.7021 86.0357V84.2339L72.9203 82.7324H76.802L79.0201 84.2339V86.0357L76.802 87.5372H72.9203Z" fill="white" stroke="black" stroke-width="0.408075"/>
<path d="M29.6673 87.2369L27.4492 86.0357V83.9336L29.6673 82.7324H33.549L36.0444 83.9336V86.0357L33.549 87.2369H29.6673Z" fill="white" stroke="black" stroke-width="0.408075"/>
<path d="M51.2943 87.5372L49.0762 86.0357V84.2339L51.2943 82.7324H55.176L57.3941 84.2339V86.0357L55.176 87.5372H51.2943Z" fill="white" stroke="black" stroke-width="0.408075"/>
<path d="M8.59491 87.2369L5.82227 86.0357V83.9336L8.59491 82.7324H11.9221L14.6947 83.9336V86.0357L11.9221 87.2369H8.59491Z" fill="white" stroke="black" stroke-width="0.408075"/>
<path d="M116.729 87.2369L113.956 86.0357V83.9336L116.729 82.7324H120.056L122.829 83.9336V86.0357L120.056 87.2369H116.729Z" fill="white" stroke="black" stroke-width="0.408075"/>
<path d="M137.8 87.5372L135.582 86.0357V84.2339L137.8 82.7324H141.682L143.9 84.2339V86.0357L141.682 87.5372H137.8Z" fill="white" stroke="black" stroke-width="0.408075"/>
<path d="M95.1017 87.2369L92.3291 86.0357V83.9336L95.1017 82.7324H98.4289L101.202 83.9336V86.0357L98.4289 87.2369H95.1017Z" fill="white" stroke="black" stroke-width="0.408075"/>
<path d="M0 141.291H150V145.195H0V141.291Z" fill="#FFFF00" stroke="black" stroke-width="0.408075"/>
<path d="M4.15918 96.8477L11.3681 127.929H138.355L145.564 96.8477H4.15918Z" fill="#CC1900"/>
<path d="M11.3682 127.928L13.5863 132.733L15.2499 136.937L16.6362 139.79L16.9135 140.69L18.577 140.54L25.2314 137.988L30.2221 135.886L36.322 138.288L42.9763 140.69L50.4624 138.588L56.8395 136.336L59.0576 135.886L65.9892 138.288L74.5844 140.69L81.2388 138.438L89.0022 135.736L96.4883 137.838L103.697 140.09L106.747 140.69L108.411 140.39L114.788 137.387L117.838 136.036L119.501 135.886L126.71 139.189L132.81 140.69L135.028 136.336L136.692 132.132L138.355 128.378V128.078V127.928H11.3682Z" fill="#CC1900" stroke="black" stroke-width="0.408075"/>
<path d="M4.15918 93.5427V93.9932V94.5938V95.0442V96.6959V96.846H145.564V96.6959V96.5457V96.0953V93.5427L137.801 94.2935L132.81 94.4436L124.215 93.6929L121.165 93.5427L112.57 94.2935L109.52 94.4436L100.924 93.6929L97.8745 93.5427L89.2793 94.2935L86.2294 94.4436L77.6342 93.6929L74.5843 93.5427L66.5437 93.843L59.0575 94.5938L51.8486 93.5427L50.1851 93.3926H48.7987L40.4808 94.4436L31.6083 93.843L22.7359 93.5427L15.2498 94.7439L7.48635 93.843L4.15918 93.5427Z" fill="#004CCC" stroke="black" stroke-width="0.408075"/>
<path d="M4.15918 96.8477L10.8135 126.277H138.91L145.564 96.8477H4.15918Z" fill="#BD1C00"/>
<path d="M4.15918 96.8477L10.259 124.475H139.464L145.564 96.8477H4.15918Z" fill="#AB1F00"/>
<path d="M4.15918 96.8477L10.259 122.673H140.019L145.564 96.8477H4.15918Z" fill="#9C2400"/>
<path d="M4.15918 96.8477L9.70447 120.571H140.019L145.564 96.8477H4.15918Z" fill="#8C260D"/>
<path d="M4.15918 96.8477L9.14994 118.77H140.573L145.564 96.8477H4.15918Z" fill="#7D291C"/>
<path d="M4.15918 96.8477L8.59541 116.968H141.128L145.564 96.8477H4.15918Z" fill="#6B2B2B"/>
<path d="M4.15918 96.8477L8.04088 115.166H141.682L145.564 96.8477H4.15918Z" fill="#5C303D"/>
<path d="M4.15918 96.8477L7.48635 113.364H142.237L145.564 96.8477H4.15918Z" fill="#4C334C"/>
<path d="M4.15918 96.8477L7.48635 111.562H142.237L145.564 96.8477H4.15918Z" fill="#3D365C"/>
<path d="M4.15918 96.8477L6.93182 109.761H142.791L145.564 96.8477H4.15918Z" fill="#2B386B"/>
<path d="M4.15918 96.8477L6.37729 107.959H143.346L145.564 96.8477H4.15918Z" fill="#1C3D7D"/>
<path d="M4.15918 96.8477L5.82277 106.157H143.9L145.564 96.8477H4.15918Z" fill="#0D408C"/>
<path d="M4.15918 96.8477L5.26824 104.355H144.455L145.564 96.8477H4.15918Z" fill="#00429C"/>
<path d="M4.15918 96.8477L5.26824 102.553H144.455L145.564 96.8477H4.15918Z" fill="#0045AB"/>
<path d="M4.15918 96.8477L4.71371 100.752H145.009L145.564 96.8477H4.15918Z" fill="#004ABD"/>
<path d="M4.15918 96.8477V98.9498H145.564V96.8477H4.15918Z" fill="#004CCC"/>
<path d="M4.15918 96.8477L11.3681 127.929H138.355L145.564 96.8477" stroke="black" stroke-width="0.408075"/>
<path d="M126.71 127.928L142.791 107.658" stroke="black" stroke-width="0.408075"/>
<path d="M129.483 94.4453L103.975 127.929H115.065L141.128 94.4453" stroke="black" stroke-width="0.408075"/>
<path d="M106.746 94.4453L80.6836 127.929H92.3287L118.392 94.4453" stroke="black" stroke-width="0.408075"/>
<path d="M83.4564 94.4453L57.3936 127.929H69.0387L95.1015 94.4453" stroke="black" stroke-width="0.408075"/>
<path d="M60.1666 94.4453L34.9355 127.929H45.7489L71.8117 94.4453" stroke="black" stroke-width="0.408075"/>
<path d="M37.7083 94.4453L11.3682 127.929H23.0133L49.0761 94.4453" stroke="black" stroke-width="0.408075"/>
<path d="M8.59473 116.367L25.7851 94.4453" stroke="black" stroke-width="0.408075"/>
<path d="M5.82227 105.256L14.1402 94.4453" stroke="black" stroke-width="0.408075"/>
</g>
<defs>
<clipPath id="clip0_2109_165514">
<rect width="150" height="150" fill="white"/>
</clipPath>
</defs>
</svg>
