<svg width="150" height="150" viewBox="0 0 150 150" fill="none" xmlns="http://www.w3.org/2000/svg">
<g clip-path="url(#clip0_2109_166892)">
<path d="M0 76.4727H150V82.6774H0V76.4727Z" fill="#7F7F7F" stroke="black" stroke-width="0.305229"/>
<path d="M2.25195 150V9.30664H147.597V150H2.25195Z" fill="#333333"/>
<path d="M2.25195 150V95.3979L147.597 38.0039V150H2.25195Z" fill="#2E2E2E"/>
<path d="M2.25195 149.999V106.256L147.597 49.1719V149.999H2.25195Z" fill="#292929"/>
<path d="M2.25195 150.001V118.046L147.597 60.6523V150.001H2.25195Z" fill="#242424"/>
<path d="M65.0146 0H68.0177V4.65357H65.0146V0Z" fill="#7F0000"/>
<path d="M18.7686 0H21.7716V4.65357H18.7686V0Z" fill="#7F0000"/>
<path d="M65.916 0H67.4175V4.65357H65.916V0Z" fill="#FF0000"/>
<path d="M19.6699 0H21.1714V4.65357H19.6699V0Z" fill="#FF0000"/>
<path d="M147.147 9.30664V150H135.586V9.30664H147.147Z" fill="#474747"/>
<path d="M3.00293 150V9.30664H14.2642V150H3.00293Z" fill="#474747"/>
<path d="M147.147 9.30664V150H137.988V9.30664H147.147Z" fill="#595959"/>
<path d="M2.70312 150V9.30664H11.8623V150H2.70312Z" fill="#595959"/>
<path d="M147.598 9.30664V150H140.391V9.30664H147.598Z" fill="#666666"/>
<path d="M2.70312 150V9.30664H9.91033V150H2.70312Z" fill="#666666"/>
<path d="M147.598 9.30664V150H142.192V9.30664H147.598Z" fill="#737373"/>
<path d="M2.70312 150V9.30664H7.65808V150H2.70312Z" fill="#737373"/>
<path d="M147.598 9.30664V150H143.994V9.30664H147.598Z" fill="#7F7F7F"/>
<path d="M2.70312 150V9.30664H5.85628V150H2.70312Z" fill="#7F7F7F"/>
<path d="M2.70312 150V9.30664H4.65508V150H2.70312Z" fill="#8C8C8C"/>
<path d="M147.598 9.30664V150H145.346V9.30664H147.598Z" fill="#8C8C8C"/>
<path d="M147.597 9.30664V150H146.847V9.30664H147.597Z" fill="#999999"/>
<path d="M2.25195 150V9.30664H3.15285V150H2.25195Z" fill="#999999"/>
<path d="M2.25195 150V9.30664H147.747V150H2.25195Z" stroke="black" stroke-width="0.305229"/>
<path d="M60.5107 7.60156H72.5228V9.30787H60.5107V7.60156Z" fill="#7F7F7F" stroke="black" stroke-width="0.305229"/>
<path d="M62.0117 6.04883H71.0207V7.60002H62.0117V6.04883Z" fill="#7F7F7F" stroke="black" stroke-width="0.305229"/>
<path d="M64.4141 4.6543H68.9186V6.05037H64.4141V4.6543Z" fill="#7F7F7F" stroke="black" stroke-width="0.305229"/>
<path d="M14.2646 7.60156H26.2767V9.30787H14.2646V7.60156Z" fill="#7F7F7F" stroke="black" stroke-width="0.305229"/>
<path d="M15.916 6.04883H24.7749V7.60002H15.916V6.04883Z" fill="#7F7F7F" stroke="black" stroke-width="0.305229"/>
<path d="M18.168 4.6543H22.6725V6.05037H18.168V4.6543Z" fill="#7F7F7F" stroke="black" stroke-width="0.305229"/>
<path d="M45.4951 70.2695H104.354V125.182H45.4951V70.2695Z" fill="#E5E5E5" stroke="black" stroke-width="0.305229"/>
<path d="M38.5889 6.98047H43.0934V9.30725H38.5889V6.98047Z" fill="#FFE566" stroke="black" stroke-width="0.305229"/>
<path d="M3.00293 10.7031H146.847" stroke="#B2B2B2" stroke-width="0.305229"/>
<path d="M50.6006 74.3027H99.2492V84.2303H50.6006V74.3027Z" fill="#CCCCCC"/>
<path d="M48.498 93.8477H101.351V102.534H48.498V93.8477Z" fill="#CCCCCC"/>
<path d="M56.0059 116.494H93.8437V119.597H56.0059V116.494Z" fill="#CCCCCC"/>
<path d="M65.0146 0H68.0177V4.65357H65.0146V0Z" stroke="black" stroke-width="0.305229"/>
<path d="M18.7686 0H21.7716V4.65357H18.7686V0Z" stroke="black" stroke-width="0.305229"/>
</g>
<defs>
<clipPath id="clip0_2109_166892">
<rect width="150" height="150" fill="white"/>
</clipPath>
</defs>
</svg>
