<svg width="150" height="150" viewBox="0 0 150 150" fill="none" xmlns="http://www.w3.org/2000/svg">
<g clip-path="url(#clip0_2109_166321)">
<path d="M110.961 99.3448H132.583L133.784 93.2312L137.988 91.4845V67.9037L129.279 61.3535H123.574L119.67 66.157H110.961V99.3448Z" fill="#324C7F" stroke="black" stroke-width="0.362126"/>
<path d="M120.57 108.079L135.886 85.8084L134.384 83.625L118.769 105.896L120.57 108.079Z" fill="#FFE5B2" stroke="black" stroke-width="0.362126"/>
<path d="M123.874 124.673V119.869L121.771 116.812" stroke="black" stroke-width="0.362126"/>
<path d="M113.063 134.279H134.685V127.729H113.063V134.279Z" fill="#7F99CC" stroke="black" stroke-width="0.362126"/>
<path d="M119.67 131.223L119.369 137.336H114.564L113.964 131.223H119.67Z" fill="#7F99CC"/>
<path d="M125.976 131.223L125.676 137.336H120.871L120.271 131.223H125.976Z" fill="#7F99CC"/>
<path d="M132.583 131.223L132.282 137.336H127.478L126.877 131.223H132.583Z" fill="#7F99CC"/>
<path d="M127.478 124.672H132.282L132.583 131.222H126.877L127.478 124.672Z" fill="#98B2E5"/>
<path d="M120.871 124.672H125.676L125.976 131.222H120.271L120.871 124.672Z" fill="#98B2E5"/>
<path d="M114.564 124.672H119.369L119.67 131.222H113.964L114.564 124.672Z" fill="#98B2E5"/>
<path d="M114.564 124.672H119.369L119.67 131.222L119.369 137.336H114.564L113.964 131.222L114.564 124.672Z" stroke="black" stroke-width="0.362126"/>
<path d="M120.871 124.672H125.676L125.976 131.222L125.676 137.336H120.871L120.271 131.222L120.871 124.672Z" stroke="black" stroke-width="0.362126"/>
<path d="M127.478 124.672H132.282L132.583 131.222L132.282 137.336H127.478L126.877 131.222L127.478 124.672Z" stroke="black" stroke-width="0.362126"/>
<path d="M111.262 20.3048H116.367V7.85938H111.262V20.3048Z" fill="#193366" stroke="black" stroke-width="0.362126"/>
<path d="M111.262 23.3633H123.874V55.241H111.262V23.3633Z" fill="#98B2E5"/>
<path d="M111.262 38.6454L123.874 25.5449V47.8157H111.262V38.6454Z" fill="#93ADE0"/>
<path d="M111.262 46.0692L123.874 32.9688V53.9294H111.262V46.0692Z" fill="#8EA8DB"/>
<path d="M111.262 53.0575L123.874 39.957V55.2409H111.262V53.0575Z" fill="#89A3D6"/>
<path d="M111.262 23.3633H123.874V55.241H111.262V23.3633Z" stroke="black" stroke-width="0.362126"/>
<path d="M53.3037 0H59.61V1.0917H53.3037V0Z" fill="#191919" stroke="black" stroke-width="0.362126"/>
<path d="M97.748 0H104.355V1.0917H97.748V0Z" fill="#191919" stroke="black" stroke-width="0.362126"/>
<path d="M1.95215 1.0918H111.562V140.393H1.95215V1.0918Z" fill="#98B2E5"/>
<path d="M1.95215 68.7782L111.562 10.918V109.39H1.95215V68.7782Z" fill="#93ADE0"/>
<path d="M1.95215 100.655L111.562 42.5762V135.153H1.95215V100.655Z" fill="#8EA8DB"/>
<path d="M1.95215 132.533L111.562 74.0176V140.393H1.95215V132.533Z" fill="#89A3D6"/>
<path d="M1.95215 1.0918H111.562V140.393H1.95215V1.0918Z" stroke="black" stroke-width="0.362126"/>
<path d="M1.95215 148.254H147.898V142.141H1.95215V148.254Z" fill="#324C7F"/>
<path d="M0 140.393H150V142.139H0V140.393Z" fill="#7F99CC" stroke="black" stroke-width="0.362126"/>
<path d="M0 148.254H150V150.001H0V148.254Z" fill="#7F99CC" stroke="black" stroke-width="0.362126"/>
<path d="M126.576 58.2969H133.783L139.189 63.1004V89.7379H126.576V58.2969Z" fill="#7F99CC" stroke="black" stroke-width="0.362126"/>
<path d="M131.981 71.8349L131.381 70.5249L131.981 69.2148H133.183L133.783 70.5249L133.183 71.8349H131.981Z" fill="#191919"/>
<path d="M111.562 102.402H121.171L122.072 115.066H110.961L111.562 102.402Z" fill="#98B2E5"/>
<path d="M122.072 115.066L121.171 127.73H111.562L110.961 115.066H122.072Z" fill="#7F99CC"/>
<path d="M111.562 102.402H121.171L122.072 115.066L121.171 127.73H111.562L110.961 115.066L111.562 102.402Z" stroke="black" stroke-width="0.362126"/>
<path d="M112.463 103.711H120.271V106.331H112.463V103.711Z" fill="#FFB27F"/>
<path d="M112.463 112.446H120.271V106.332H112.463V112.446Z" fill="#E5E5E5"/>
</g>
<defs>
<clipPath id="clip0_2109_166321">
<rect width="150" height="150" fill="white"/>
</clipPath>
</defs>
</svg>
