<svg width="150" height="150" viewBox="0 0 150 150" fill="none" xmlns="http://www.w3.org/2000/svg">
<g clip-path="url(#clip0_2109_166444)">
<path d="M118.618 50.1445H121.021V88.8333H118.618V50.1445Z" fill="black"/>
<path d="M123.124 53.1705H121.021V50.1445H125.226V88.8333H123.124V53.1705Z" fill="black"/>
<path d="M112.913 30.2598H116.517V69.3808H112.913V30.2598Z" fill="#333333" stroke="black" stroke-width="0.360295"/>
<path d="M112.012 114.338H134.234L135.435 107.854L139.94 106.557V82.3494L130.931 75.8652H124.925L121.021 80.4041H112.012V114.338Z" fill="#324C7F" stroke="black" stroke-width="0.360295"/>
<path d="M52.7031 0H59.3097V1.51297H52.7031V0Z" fill="#191919" stroke="black" stroke-width="0.360295"/>
<path d="M98.3486 0H105.406V1.51297H98.3486V0Z" fill="#191919" stroke="black" stroke-width="0.360295"/>
<path d="M0 1.51367H112.613V143.3H0V1.51367Z" fill="#B2B2B2"/>
<path d="M0 70.4602L112.613 11.2383V111.743H0V70.4602Z" fill="#ADADAD"/>
<path d="M0 103.098L112.613 43.6602V138.329H0V103.098Z" fill="#A8A8A8"/>
<path d="M0 135.303L112.613 75.8652V143.3H0V135.303Z" fill="#A3A3A3"/>
<path d="M0 1.51367H112.613V143.3H0V1.51367Z" stroke="black" stroke-width="0.360295"/>
<path d="M0 149.999H150V143.299H0V149.999Z" fill="#191919" stroke="black" stroke-width="0.360295"/>
<path d="M112.913 40.2012H118.619V58.7891H112.913V40.2012Z" fill="#B2B2B2"/>
<path d="M112.913 49.279L118.619 41.498V54.8986H112.913V49.279Z" fill="#ADADAD"/>
<path d="M112.913 53.6032L118.619 45.8223V58.3583H112.913V53.6032Z" fill="#A8A8A8"/>
<path d="M112.913 57.9255L118.619 50.1445V58.7901H112.913V57.9255Z" fill="#A3A3A3"/>
<path d="M112.913 40.2012H118.619V58.7891H112.913V40.2012Z" stroke="black" stroke-width="0.360295"/>
<path d="M112.913 97.9102H116.517L123.123 136.815H112.913V97.9102Z" fill="#333333" stroke="black" stroke-width="0.360295"/>
<path d="M112.612 101.801H134.234V133.789H112.612V101.801Z" fill="#98B2E5"/>
<path d="M112.612 117.363L134.234 103.963V126.441H112.612V117.363Z" fill="#93ADE0"/>
<path d="M112.612 124.711L134.234 111.311V132.492H112.612V124.711Z" fill="#8EA8DB"/>
<path d="M112.612 132.061L134.234 118.229V133.79H112.612V132.061Z" fill="#89A3D6"/>
<path d="M112.612 101.801H134.234V133.789H112.612V101.801Z" stroke="black" stroke-width="0.360295"/>
</g>
<defs>
<clipPath id="clip0_2109_166444">
<rect width="150" height="150" fill="white"/>
</clipPath>
</defs>
</svg>
