<svg width="150" height="150" viewBox="0 0 150 150" fill="none" xmlns="http://www.w3.org/2000/svg">
<g clip-path="url(#clip0_2109_166061)">
<path d="M0 101.951H4.69484V107.957H0V101.951Z" fill="black"/>
<path d="M18.7793 143.844H23.2394V149.85H18.7793V143.844Z" fill="black"/>
<path d="M131.221 143.844H135.916V149.85H131.221V143.844Z" fill="black"/>
<path d="M4.69531 0H150V143.844H4.69531V0Z" fill="#6699FF"/>
<path d="M4.69531 102.253L150 41.8926V143.845H4.69531V102.253Z" fill="#6194FA"/>
<path d="M4.69531 108.259L150 47.8984V143.844H4.69531V108.259Z" fill="#5C8FF5"/>
<path d="M4.69531 117.267L150 56.9062V143.843H4.69531V117.267Z" fill="#578AF0"/>
<path d="M9.38965 9.00977H145.305V14.8656H9.38965V9.00977Z" fill="black"/>
<path d="M9.38965 128.979H145.305V140.84H9.38965V128.979Z" fill="#4073D9" stroke="black" stroke-width="0.375481"/>
<path d="M14.084 131.982H140.61V140.841H14.084V131.982Z" fill="black"/>
<path d="M9.38965 0H145.305V9.00901H9.38965V0Z" fill="#4C7FE5"/>
<path d="M145.305 0V128.979" stroke="#194CB2" stroke-width="0.375481"/>
<path d="M9.38965 128.979V0" stroke="#194CB2" stroke-width="0.375481"/>
<path d="M9.38965 68.918H145.305" stroke="#194CB2" stroke-width="0.375481"/>
<path d="M4.69531 0H150V143.844H4.69531V0Z" stroke="black" stroke-width="0.375481"/>
<path d="M56.1035 3.00391H70.188V6.00691H56.1035V3.00391Z" fill="#CCCCCC"/>
<path d="M70.1875 3.00391H98.3565V6.00691H70.1875V3.00391Z" fill="#333333"/>
<path d="M98.357 3.00391V6.00691H56.1035" stroke="#D9E5FF" stroke-width="0.375481"/>
<path d="M98.357 3.00391H56.1035V6.00691" stroke="#194CB2" stroke-width="0.375481"/>
<path d="M0 92.9434H4.69484V98.9494H0V92.9434Z" fill="#666666"/>
</g>
<defs>
<clipPath id="clip0_2109_166061">
<rect width="150" height="150" fill="white"/>
</clipPath>
</defs>
</svg>
