<svg width="150" height="150" viewBox="0 0 150 150" fill="none" xmlns="http://www.w3.org/2000/svg">
<g clip-path="url(#clip0_2109_166746)">
<path d="M6.42676 37.3867H150V149.999H6.42676V37.3867Z" fill="#B2B2B2"/>
<path d="M6.42676 37.3867H150V121.771L6.42676 134.234V37.3867Z" fill="#BFBFBF"/>
<path d="M6.42676 37.3867H150V115.465L6.42676 128.077V37.3867Z" fill="#CCCCCC"/>
<path d="M6.42676 37.3867H150V103.002L6.42676 115.465V37.3867Z" fill="#D9D9D9"/>
<path d="M6.42676 37.3867H150V74.9243L6.42676 87.3867V37.3867Z" fill="#E5E5E5"/>
<path d="M6.42676 37.3867H150V149.999H6.42676V37.3867Z" stroke="black" stroke-width="0.306819"/>
<path d="M19.4355 0H65.2036V37.3874H19.4355V0Z" fill="#7F7F7F"/>
<path d="M22.2568 0H62.3822V37.3874H22.2568V0Z" fill="#999999"/>
<path d="M27.1162 0H57.5237V37.3874H27.1162V0Z" fill="#B2B2B2"/>
<path d="M28.9971 0H55.6428V37.3874H28.9971V0Z" fill="#CCCCCC"/>
<path d="M35.7363 0H49.0592V37.3874H35.7363V0Z" fill="#E5E5E5"/>
<path d="M19.4355 0H65.2036V37.3874H19.4355V0Z" stroke="black" stroke-width="0.306819"/>
<path d="M0 50H6.42633V74.9249H0V50Z" fill="#CCCCCC" stroke="black" stroke-width="0.306819"/>
<path d="M0 96.8477H6.42633V112.463H0V96.8477Z" fill="#999999" stroke="black" stroke-width="0.306819"/>
<path d="M13.0098 24.9258H16.3013V131.232H13.0098V24.9258Z" fill="#7F7F7F"/>
</g>
<defs>
<clipPath id="clip0_2109_166746">
<rect width="150" height="150" fill="white"/>
</clipPath>
</defs>
</svg>
