<svg width="150" height="150" viewBox="0 0 150 150" fill="none" xmlns="http://www.w3.org/2000/svg">
<g clip-path="url(#clip0_2109_166853)">
<path d="M0.150391 149.999V9.1582H87.2375V149.999H0.150391Z" fill="#333333"/>
<path d="M1.05078 149.999V9.1582H28.0778V149.999H1.05078Z" fill="#4C4C4C"/>
<path d="M0.750977 149.999V9.1582H22.6729V149.999H0.750977Z" fill="#595959"/>
<path d="M0.750977 149.999V9.1582H17.2675V149.999H0.750977Z" fill="#666666"/>
<path d="M0.600586 149.999V9.1582H12.7627V149.999H0.600586Z" fill="#737373"/>
<path d="M0.600586 149.999V9.1582H8.55854V149.999H0.600586Z" fill="#7F7F7F"/>
<path d="M0.150391 149.999V9.1582H5.2555V149.999H0.150391Z" fill="#8C8C8C"/>
<path d="M0.150391 149.999V9.1582H1.95219V149.999H0.150391Z" fill="#999999"/>
<path d="M0.150391 149.999V9.1582H87.2375V149.999H0.150391Z" stroke="black" stroke-width="0.3003"/>
<path d="M87.2376 88.1389H78.5288L77.0273 86.6374V78.8296L78.5288 77.3281H87.2376V88.1389Z" fill="#191919"/>
<path d="M150 28.9785H123.573V32.8824H150V28.9785Z" fill="#999999"/>
<path d="M101.952 20.2695H87.5371V34.3836H101.952V20.2695Z" fill="#CC9933" stroke="black" stroke-width="0.3003"/>
<path d="M101.952 17.2676H87.5371V20.2706H101.952V17.2676Z" fill="#FFCC66" stroke="black" stroke-width="0.3003"/>
<path d="M101.952 34.3848H87.5371V43.9944H101.952V34.3848Z" fill="#996600" stroke="black" stroke-width="0.3003"/>
<path d="M123.574 22.0724H105.556L101.952 17.2676V43.9943L105.556 39.1895H123.574V22.0724Z" fill="#CC9933"/>
<path d="M123.574 23.2728H105.556L101.952 19.2188V41.8914L105.556 37.6872H123.574V23.2728Z" fill="#D4A64D"/>
<path d="M123.574 24.4752H105.556L101.952 21.1719V39.7905L105.556 36.4872H123.574V24.4752Z" fill="#DEB86B"/>
<path d="M123.574 25.9761H105.556L101.952 23.2734V37.9882L105.556 35.2854H123.574V25.9761Z" fill="#E5C484"/>
<path d="M123.574 27.1768H105.556L101.952 25.375V35.8855L105.556 33.7834H123.574V27.1768Z" fill="#EDD3A0"/>
<path d="M123.574 28.3789H105.556L101.952 27.1777V33.7843L105.556 32.5831H123.574V28.3789Z" fill="#F7E3BC"/>
<path d="M123.574 29.8799H105.556L101.952 29.2793V31.6817L105.556 31.3814H123.574V29.8799Z" fill="#FFF2D9"/>
<path d="M123.574 22.0724H105.556L101.952 17.2676V43.9943L105.556 39.1895H123.574V22.0724Z" stroke="black" stroke-width="0.3003"/>
<path d="M105.556 38.5878V22.6719" stroke="#CC9933" stroke-width="0.3003"/>
<path d="M109.159 39.1894V22.0723H110.961V39.1894H112.763V22.0723H114.565V39.1894H116.366V22.0723H118.168V39.1894H119.97V22.0723H121.772V39.1894" stroke="black" stroke-width="0.3003"/>
<path d="M150 29.5801H123.573V32.2828H150V29.5801Z" fill="#CCCCCC"/>
<path d="M150 30.4805H123.573V31.3814H150V30.4805Z" fill="#E5E5E5"/>
<path d="M150 28.9785H123.573V32.8824H150V28.9785Z" stroke="black" stroke-width="0.3003"/>
<path d="M82.7325 87.5373C85.3862 87.5373 87.5373 85.3862 87.5373 82.7325C87.5373 80.0789 85.3862 77.9277 82.7325 77.9277C80.0789 77.9277 77.9277 80.0789 77.9277 82.7325C77.9277 85.3862 80.0789 87.5373 82.7325 87.5373Z" fill="#CCCCCC" stroke="black" stroke-width="0.3003"/>
<path d="M85.1349 86.0363L79.1289 80.0303L80.0298 79.4297L85.7355 85.4357L85.1349 86.0363Z" fill="#7F7F7F"/>
<path d="M59.9102 7.6582H72.5228V9.1597H59.9102V7.6582Z" fill="#7F7F7F" stroke="black" stroke-width="0.3003"/>
<path d="M61.7119 6.15625H71.0212V7.65775H61.7119V6.15625Z" fill="#7F7F7F" stroke="black" stroke-width="0.3003"/>
<path d="M63.8135 4.80469H68.6183V6.15604H63.8135V4.80469Z" fill="#7F7F7F" stroke="black" stroke-width="0.3003"/>
<path d="M64.7148 0H67.7178V4.35435H64.7148V0Z" fill="#7F0000"/>
<path d="M65.6152 0H67.1167V4.35435H65.6152V0Z" fill="#FF0000"/>
<path d="M64.7148 0H67.7178V4.35435H64.7148V0Z" stroke="black" stroke-width="0.3003"/>
<path d="M0 59.3086H3.9039V99.8491H0V59.3086Z" fill="#E5E5E5" stroke="black" stroke-width="0.3003"/>
</g>
<defs>
<clipPath id="clip0_2109_166853">
<rect width="150" height="150" fill="white"/>
</clipPath>
</defs>
</svg>
