<svg width="150" height="150" viewBox="0 0 150 150" fill="none" xmlns="http://www.w3.org/2000/svg">
<g clip-path="url(#clip0_2109_166360)">
<path d="M93.6934 99.392H124.774L126.576 93.161L132.582 91.6412V67.6291L120.27 61.2461H112.012L106.306 66.1093H93.6934V99.392Z" fill="#324C7F" stroke="black" stroke-width="0.30212"/>
<path d="M107.507 108.208L129.579 85.8672L127.477 83.4355L105.405 106.08L107.507 108.208Z" fill="#FFE5B2" stroke="black" stroke-width="0.30212"/>
<path d="M112.613 124.468V119.908L109.31 116.717" stroke="black" stroke-width="0.30212"/>
<path d="M96.6963 134.195H128.078V127.812H96.6963V134.195Z" fill="#7F99CC" stroke="black" stroke-width="0.30212"/>
<path d="M106.606 130.852L106.006 137.235H99.0986L98.498 130.852H106.606Z" fill="#7F99CC"/>
<path d="M115.466 130.852L115.015 137.235H108.108L107.508 130.852H115.466Z" fill="#7F99CC"/>
<path d="M124.774 130.852L124.174 137.235H117.417L116.816 130.852H124.774Z" fill="#7F99CC"/>
<path d="M117.417 124.469H124.174L124.774 130.852H116.816L117.417 124.469Z" fill="#98B2E5"/>
<path d="M108.108 124.469H115.015L115.466 130.852H107.508L108.108 124.469Z" fill="#98B2E5"/>
<path d="M99.0986 124.469H106.006L106.606 130.852H98.498L99.0986 124.469Z" fill="#98B2E5"/>
<path d="M99.0986 124.469H106.006L106.606 130.852L106.006 137.235H99.0986L98.498 130.852L99.0986 124.469Z" stroke="black" stroke-width="0.30212"/>
<path d="M108.108 124.469H115.015L115.466 130.852L115.015 137.235H108.108L107.508 130.852L108.108 124.469Z" stroke="black" stroke-width="0.30212"/>
<path d="M117.417 124.469H124.174L124.774 130.852L124.174 137.235H117.417L116.816 130.852L117.417 124.469Z" stroke="black" stroke-width="0.30212"/>
<path d="M94.5947 20.212H101.502V7.75H94.5947V20.212Z" fill="#193366" stroke="black" stroke-width="0.30212"/>
<path d="M94.5947 23.5566H112.613V55.0156H94.5947V23.5566Z" fill="#98B2E5"/>
<path d="M94.5947 38.9055L112.613 25.6836V48.024H94.5947V38.9055Z" fill="#93ADE0"/>
<path d="M94.5947 46.2L112.613 32.8262V53.7988H94.5947V46.2Z" fill="#8EA8DB"/>
<path d="M94.5947 53.191L112.613 40.1211V55.0147H94.5947V53.191Z" fill="#89A3D6"/>
<path d="M94.5947 23.5566H112.613V55.0156H94.5947V23.5566Z" stroke="black" stroke-width="0.30212"/>
<path d="M10.9609 0H20.2702V1.36778H10.9609V0Z" fill="#191919" stroke="black" stroke-width="0.30212"/>
<path d="M74.9248 0H84.5344V1.36778H74.9248V0Z" fill="#191919" stroke="black" stroke-width="0.30212"/>
<path d="M3.15332 1.36719H94.5948V140.577H3.15332V1.36719Z" fill="#98B2E5"/>
<path d="M3.15332 68.8457L94.5948 10.791V109.423H3.15332V68.8457Z" fill="#93ADE0"/>
<path d="M3.15332 100.607L94.5948 42.5527V135.106H3.15332V100.607Z" fill="#8EA8DB"/>
<path d="M3.15332 132.371L94.5948 74.3164V140.578H3.15332V132.371Z" fill="#89A3D6"/>
<path d="M3.15332 1.36719H94.5948V140.577H3.15332V1.36719Z" stroke="black" stroke-width="0.30212"/>
<path d="M3.15332 148.481H146.697V142.098H3.15332V148.481Z" fill="#324C7F"/>
<path d="M0 140.578H149.85V142.098H0V140.578Z" fill="#7F99CC" stroke="black" stroke-width="0.30212"/>
<path d="M0 148.48H149.85V150H0V148.48Z" fill="#7F99CC" stroke="black" stroke-width="0.30212"/>
<path d="M64.1143 137.234H93.6938V37.6895L64.1143 61.2457V137.234Z" fill="#4C6699"/>
<path d="M87.5371 91.6406H89.0386V103.951H87.5371V91.6406Z" fill="#7F99CC" stroke="black" stroke-width="0.30212"/>
<path d="M65.6152 64.5898H67.1167V77.3558H65.6152V64.5898Z" fill="#7F99CC" stroke="black" stroke-width="0.30212"/>
<path d="M13.9639 124.469V51.9766L37.5374 23.5571H62.3122L74.9248 4.4082H93.6936V26.4447H90.8407V39.2106L62.3122 61.2471V124.469H13.9639Z" fill="#00194C"/>
<path d="M27.3276 36.1699H90.8411V39.2094L78.2285 48.9359H17.2676L27.3276 36.1699Z" fill="#324C7F"/>
<path d="M13.9639 61.2461H62.3122V74.0121H13.9639V61.2461Z" fill="#324C7F"/>
<path d="M13.9639 124.469H62.3122V137.235H13.9639V124.469Z" fill="#324C7F"/>
<path d="M27.9277 36.1699H31.3812V48.9359H27.9277V36.1699Z" fill="#00194C"/>
<path d="M34.2344 36.1699H37.5377V48.9359H34.2344V36.1699Z" fill="#00194C"/>
<path d="M40.541 36.1699H43.8443V48.9359H40.541V36.1699Z" fill="#00194C"/>
<path d="M46.8467 36.1699H50.15V48.9359H46.8467V36.1699Z" fill="#00194C"/>
<path d="M53.1533 36.1699H56.3065V48.9359H53.1533V36.1699Z" fill="#00194C"/>
<path d="M59.3096 36.1699H62.6129V48.9359H59.3096V36.1699Z" fill="#00194C"/>
<path d="M65.6152 36.1699H68.6182V48.9359H65.6152V36.1699Z" fill="#00194C"/>
<path d="M71.9219 36.1699H74.9249V48.9359H71.9219V36.1699Z" fill="#00194C"/>
<path d="M78.2285 36.1699H81.2315V46.5043L78.2285 48.9359V36.1699Z" fill="#00194C"/>
<path d="M84.2344 36.1699H87.5377V41.641L84.2344 44.0727V36.1699Z" fill="#00194C"/>
<path d="M22.0723 43.1604L25.0753 39.209V48.9354H22.0723V43.1604Z" fill="#00194C"/>
<path d="M13.9639 61.2461H17.2672V74.0121H13.9639V61.2461Z" fill="#00194C"/>
<path d="M20.2705 61.2461H23.5738V74.0121H20.2705V61.2461Z" fill="#00194C"/>
<path d="M26.5762 61.2461H29.8795V74.0121H26.5762V61.2461Z" fill="#00194C"/>
<path d="M32.7324 61.2461H36.0357V74.0121H32.7324V61.2461Z" fill="#00194C"/>
<path d="M39.0391 61.2461H42.0421V74.0121H39.0391V61.2461Z" fill="#00194C"/>
<path d="M45.3457 61.2461H48.3487V74.0121H45.3457V61.2461Z" fill="#00194C"/>
<path d="M51.6514 61.2461H54.6544V74.0121H51.6514V61.2461Z" fill="#00194C"/>
<path d="M18.7686 124.469H22.0719V137.235H18.7686V124.469Z" fill="#00194C"/>
<path d="M25.0752 124.469H27.928V137.235H25.0752V124.469Z" fill="#00194C"/>
<path d="M31.3809 124.469H34.2337V137.235H31.3809V124.469Z" fill="#00194C"/>
<path d="M37.5371 124.469H40.5401V137.235H37.5371V124.469Z" fill="#00194C"/>
<path d="M43.8438 124.469H46.8468V137.235H43.8438V124.469Z" fill="#00194C"/>
<path d="M50.1504 124.469H53.1534V137.235H50.1504V124.469Z" fill="#00194C"/>
<path d="M56.1562 124.469H59.3094V137.235H56.1562V124.469Z" fill="#00194C"/>
<path d="M57.8076 61.2461H60.8106V74.0121H57.8076V61.2461Z" fill="#00194C"/>
<path d="M6.15625 137.235H62.3124V61.2471L90.8409 39.2106V26.4447H93.6938V4.4082" stroke="white" stroke-width="0.30212"/>
<path d="M6.15625 61.2471L13.9641 51.9766V137.235H6.15625V61.2471Z" fill="#324C7F"/>
<path d="M10.3604 56.8398L13.964 51.9766V137.235H10.3604V56.8398Z" fill="#284275"/>
<path d="M11.2617 55.0161L13.9644 51.9766V137.235H11.2617V55.0161Z" fill="#1E386B"/>
<path d="M12.4629 54.4082L13.9644 51.9766V137.235H12.4629V54.4082Z" fill="#163063"/>
<path d="M13.3633 52.8884L13.9639 51.9766V137.235H13.3633V52.8884Z" fill="#0C2659"/>
<path d="M6.15625 137.235V61.2471L37.5376 23.5571H62.3124L74.925 4.4082H93.6938" stroke="black" stroke-width="0.30212"/>
<path d="M43.5439 15.6527H51.6521V7.75H43.5439V15.6527Z" fill="#324C7F" stroke="black" stroke-width="0.30212"/>
<path d="M44.4443 14.7424H50.7506V8.35938H44.4443V14.7424Z" fill="#E5E5E5"/>
<path d="M45.3457 14.1345L48.649 11.7029L47.4478 10.791L45.3457 14.1345Z" fill="#FF0000"/>
<path d="M116.517 58.3594H126.577L134.384 63.0706V89.8183H116.517V58.3594Z" fill="#7F99CC" stroke="black" stroke-width="0.30212"/>
<path d="M124.174 71.884L123.273 70.6682L124.174 69.1484H125.676L126.577 70.6682L125.676 71.884H124.174Z" fill="#191919"/>
<path d="M73.123 74.0117H84.5345V80.3947H73.123V74.0117Z" fill="#191919"/>
<path d="M76.4268 83.7383H81.2316V85.258H76.4268V83.7383Z" fill="#191919"/>
<path d="M94.8946 102.432H108.708L109.91 115.198H93.6934L94.8946 102.432Z" fill="#98B2E5"/>
<path d="M109.91 115.197L108.708 127.811H94.8946L93.6934 115.197H109.91Z" fill="#7F99CC"/>
<path d="M94.8946 102.432H108.708L109.91 115.198L108.708 127.812H94.8946L93.6934 115.198L94.8946 102.432Z" stroke="black" stroke-width="0.30212"/>
<path d="M96.0957 103.646H107.507V106.382H96.0957V103.646Z" fill="#FFB27F"/>
<path d="M96.0957 112.766H107.507V106.383H96.0957V112.766Z" fill="#E5E5E5"/>
</g>
<defs>
<clipPath id="clip0_2109_166360">
<rect width="150" height="150" fill="white"/>
</clipPath>
</defs>
</svg>
