<svg width="150" height="150" viewBox="0 0 150 150" fill="none" xmlns="http://www.w3.org/2000/svg">
<g clip-path="url(#clip0_2109_210295)">
<path d="M40.6702 129.6L36.7344 133.8L69.9705 132L74.781 129L40.6702 129.6Z" fill="#999999" stroke="black" stroke-width="0.724418"/>
<path d="M45.044 129.602H31.0498V131.402H45.044V129.602Z" fill="#4C4C4C" stroke="black" stroke-width="0.724418"/>
<path d="M13.9941 127.203L30.6122 130.203V132.003L13.9941 128.703V127.203Z" fill="#4C4C4C" stroke="black" stroke-width="0.724418"/>
<path d="M20.1166 129.003L29.7375 127.203L8.30897 125.703H2.18652L20.1166 129.003Z" fill="#CCCCCC" stroke="black" stroke-width="0.724418"/>
<path d="M15.3061 133.803L20.1166 129.003L2.18659 125.703L0 128.103L15.3061 133.803Z" fill="#999999" stroke="black" stroke-width="0.724418"/>
<path d="M29.3004 138.3C33.6479 138.3 37.1722 135.882 37.1722 132.9C37.1722 129.918 33.6479 127.5 29.3004 127.5C24.953 127.5 21.4287 129.918 21.4287 132.9C21.4287 135.882 24.953 138.3 29.3004 138.3Z" fill="#666666" stroke="black" stroke-width="0.724418"/>
<path d="M31.9246 45.2969H26.6768V129.297H31.9246V45.2969Z" fill="#7F7F7F" stroke="black" stroke-width="0.724418"/>
<path d="M31.0493 45.2969H27.5508V129.297H31.0493V45.2969Z" fill="#B2B2B2"/>
<path d="M29.7379 45.2969H28.8633V129.297H29.7379V45.2969Z" fill="white"/>
<path d="M45.0441 131.4L40.6709 129.6L74.7817 129L76.0936 129.6L45.0441 131.4Z" fill="#B2B2B2" stroke="black" stroke-width="0.724418"/>
<path d="M27.9885 132.898H31.487L24.9273 138.598H21.4287L27.9885 132.898Z" fill="#4C4C4C" stroke="black" stroke-width="0.724418"/>
<path d="M27.1137 135.297H16.6181L6.99707 146.697H11.8076L27.1137 135.297Z" fill="#B2B2B2" stroke="black" stroke-width="0.724418"/>
<path d="M11.8076 146.697L27.1137 135.297L34.5481 140.097L15.3062 149.997L11.8076 146.697Z" fill="#7F7F7F" stroke="black" stroke-width="0.724418"/>
<path d="M77.4048 4.19844H39.3581V2.39844H15.3057V26.0984H77.4048V4.19844Z" fill="#7F7F7F" stroke="black" stroke-width="0.724418"/>
<path d="M8.30859 47.4016H51.1657L74.7809 26.1016H8.30859V47.4016Z" fill="#7F7F7F" stroke="black" stroke-width="0.724418"/>
<path d="M106.706 23.7031C112.261 23.7031 116.764 20.3453 116.764 16.2031C116.764 12.061 112.261 8.70312 106.706 8.70312C101.151 8.70312 96.6475 12.061 96.6475 16.2031C96.6475 20.3453 101.151 23.7031 106.706 23.7031Z" fill="#7F7F7F" stroke="black" stroke-width="0.724418"/>
<path d="M106.706 22.2031C112.261 22.2031 116.764 19.5168 116.764 16.2031C116.764 12.8894 112.261 10.2031 106.706 10.2031C101.151 10.2031 96.6475 12.8894 96.6475 16.2031C96.6475 19.5168 101.151 22.2031 106.706 22.2031Z" fill="#999999"/>
<path d="M106.706 19.8016C112.261 19.8016 116.764 18.1898 116.764 16.2016C116.764 14.2133 112.261 12.6016 106.706 12.6016C101.151 12.6016 96.6475 14.2133 96.6475 16.2016C96.6475 18.1898 101.151 19.8016 106.706 19.8016Z" fill="#B2B2B2"/>
<path d="M106.706 17.0969C112.261 17.0969 116.764 16.6939 116.764 16.1969C116.764 15.6998 112.261 15.2969 106.706 15.2969C101.151 15.2969 96.6475 15.6998 96.6475 16.1969C96.6475 16.6939 101.151 17.0969 106.706 17.0969Z" fill="#CCCCCC"/>
<path d="M147.376 7.5H136.443V24.3H147.376V7.5Z" fill="#999999" stroke="black" stroke-width="0.724418"/>
<path d="M147.376 24.3L150 22.5V9.6L147.376 7.5V24.3Z" fill="#B2B2B2" stroke="black" stroke-width="0.724418"/>
<path d="M136.443 8.70312H106.705V24.3031H136.443V8.70312Z" fill="#7F7F7F" stroke="black" stroke-width="0.724418"/>
<path d="M136.443 20.7031H105.394V21.0031H136.443V20.7031Z" fill="#B2B2B2" stroke="black" stroke-width="0.724418"/>
<path d="M136.443 19.2031H105.394V19.5031H136.443V19.2031Z" fill="#B2B2B2" stroke="black" stroke-width="0.724418"/>
<path d="M136.443 17.7031H105.394V18.3031H136.443V17.7031Z" fill="#B2B2B2" stroke="black" stroke-width="0.724418"/>
<path d="M136.443 16.5H105.394V16.8H136.443V16.5Z" fill="#B2B2B2" stroke="black" stroke-width="0.724418"/>
<path d="M136.443 15H105.394V15.6H136.443V15Z" fill="#B2B2B2" stroke="black" stroke-width="0.724418"/>
<path d="M136.443 13.5H105.394V14.1H136.443V13.5Z" fill="#B2B2B2" stroke="black" stroke-width="0.724418"/>
<path d="M136.443 12.2969H105.394V12.5969H136.443V12.2969Z" fill="#B2B2B2" stroke="black" stroke-width="0.724418"/>
<path d="M136.443 10.7969H105.394V11.3969H136.443V10.7969Z" fill="#B2B2B2" stroke="black" stroke-width="0.724418"/>
<path d="M136.443 9.60156H105.394V9.90156H136.443V9.60156Z" fill="#B2B2B2" stroke="black" stroke-width="0.724418"/>
<path d="M136.443 8.10156H105.394V8.70156H136.443V8.10156Z" fill="#B2B2B2" stroke="black" stroke-width="0.724418"/>
<path d="M16.6182 6.60156H76.0934" stroke="black" stroke-width="0.724418"/>
<path d="M136.443 21.8984H105.394V22.4984H136.443V21.8984Z" fill="#B2B2B2" stroke="black" stroke-width="0.724418"/>
<path d="M136.443 26.1016L136.006 22.5016H112.391L96.6471 15.6016L94.8978 9.60156H76.9678V26.1016H136.443Z" fill="#CCCCCC" stroke="black" stroke-width="0.724418"/>
<path d="M76.9678 26.1016H140.816V24.3016L112.391 22.5016L76.9678 9.60156V26.1016Z" fill="#999999" stroke="black" stroke-width="0.724418"/>
<path d="M10.0586 45.6016V27.6016H51.1665" stroke="white" stroke-width="0.724418"/>
<path d="M16.6182 22.7969H76.0934" stroke="white" stroke-width="0.724418"/>
<path d="M67.7842 19.4984V12.8984" stroke="white" stroke-width="0.724418"/>
<path d="M69.9707 19.4984V12.8984" stroke="black" stroke-width="0.724418"/>
<path d="M77.4053 9.89844H80.9038V31.7984H77.4053V9.89844Z" fill="#B2B2B2" stroke="black" stroke-width="0.724418"/>
<path d="M39.3587 4.20312H16.6182" stroke="black" stroke-width="0.724418"/>
<path d="M69.0957 0.898438H71.2823V4.19844H69.0957V0.898438Z" fill="#CCCCCC" stroke="black" stroke-width="0.724418"/>
<path d="M17.9297 0.898438H36.7344V2.39844H17.9297V0.898438Z" fill="#999999" stroke="black" stroke-width="0.724418"/>
<path d="M22.7402 0H31.9239V0.9H22.7402V0Z" fill="#B2B2B2" stroke="black" stroke-width="0.724418"/>
</g>
<defs>
<clipPath id="clip0_2109_210295">
<rect width="150" height="150" fill="white"/>
</clipPath>
</defs>
</svg>
