<svg width="150" height="150" viewBox="0 0 150 150" fill="none" xmlns="http://www.w3.org/2000/svg">
<g clip-path="url(#clip0_2109_210535)">
<path d="M74.9997 149.702C83.1361 149.702 89.7319 147.553 89.7319 144.902C89.7319 142.251 83.1361 140.102 74.9997 140.102C66.8634 140.102 60.2676 142.251 60.2676 144.902C60.2676 147.553 66.8634 149.702 74.9997 149.702Z" fill="#7F7F7F" stroke="black" stroke-width="1.26773"/>
<path d="M74.9999 149.702C81.6569 149.702 87.0534 147.553 87.0534 144.902C87.0534 142.251 81.6569 140.102 74.9999 140.102C68.3429 140.102 62.9463 142.251 62.9463 144.902C62.9463 147.553 68.3429 149.702 74.9999 149.702Z" fill="#B2B2B2"/>
<path d="M74.9997 149.702C77.9584 149.702 80.3569 147.553 80.3569 144.902C80.3569 142.251 77.9584 140.102 74.9997 140.102C72.0411 140.102 69.6426 142.251 69.6426 144.902C69.6426 147.553 72.0411 149.702 74.9997 149.702Z" fill="#E5E5E5"/>
<path d="M74.9997 141.902C83.1361 141.902 89.7319 141.499 89.7319 141.002C89.7319 140.505 83.1361 140.102 74.9997 140.102C66.8634 140.102 60.2676 140.505 60.2676 141.002C60.2676 141.499 66.8634 141.902 74.9997 141.902Z" fill="#7F7F7F" stroke="black" stroke-width="1.26773"/>
<path d="M83.0359 69.2969H68.3037V141.297H83.0359V69.2969Z" fill="#7F7F7F" stroke="black" stroke-width="1.26773"/>
<path d="M80.3574 69.2969H70.9824V141.297H80.3574V69.2969Z" fill="#B2B2B2"/>
<path d="M76.3393 69.2969H75V141.297H76.3393V69.2969Z" fill="white"/>
<path d="M60.2679 143.398H20.0893L0 147.898H60.2679V143.398Z" fill="#B2B2B2" stroke="black" stroke-width="1.26773"/>
<path d="M89.7324 147.898H129.911L150 143.398H89.7324V147.898Z" fill="#8C8C8C" stroke="black" stroke-width="1.26773"/>
<path d="M33.4824 69.3016V66.6016H53.5717V51.6016H33.4824V48.6016H116.518V51.6016H96.4289V66.6016H116.518V69.3016H33.4824Z" fill="#999999"/>
<path d="M40.1787 69.3016V66.6016H57.5894V51.6016H40.1787V48.6016H108.482V51.6016H92.4109V66.6016H108.482V69.3016H40.1787Z" fill="#B2B2B2"/>
<path d="M53.5713 69.3016V66.6016H64.2856V51.6016H53.5713V48.6016H96.4284V51.6016H85.7141V66.6016H96.4284V69.3016H53.5713Z" fill="#CCCCCC"/>
<path d="M65.625 69.3016V66.6016H69.6429V51.6016H65.625V48.6016H83.0357V51.6016H79.0179V66.6016H83.0357V69.3016H65.625Z" fill="#E5E5E5"/>
<path d="M33.4824 69.3016V66.6016H53.5717V51.6016H33.4824V48.6016H116.518V51.6016H96.4289V66.6016H116.518V69.3016H33.4824Z" stroke="black" stroke-width="1.26773"/>
<path d="M53.5713 51.6016H96.4284" stroke="black" stroke-width="1.26773"/>
<path d="M53.5713 66.6016H96.4284" stroke="black" stroke-width="1.26773"/>
<path d="M33.4824 48.6016H116.518V12.6016H33.4824V48.6016Z" fill="#CCCCCC"/>
<path d="M42.8574 48.6016H105.804V12.6016H42.8574V48.6016Z" fill="#D9D9D9"/>
<path d="M53.5713 48.6016H96.4284V12.6016H53.5713V48.6016Z" fill="#E5E5E5"/>
<path d="M62.9463 48.6016H87.0534V12.6016H62.9463V48.6016Z" fill="#F2F2F2"/>
<path d="M33.4824 48.6016H116.518V12.6016H33.4824V48.6016Z" stroke="black" stroke-width="1.26773"/>
<path d="M33.4824 18.6016H116.518V32.1016H33.4824V18.6016Z" fill="#A6A6A6" stroke="black" stroke-width="1.26773"/>
<path d="M56.25 32.1H79.0179V21H56.25V32.1Z" fill="#B2B2B2" stroke="black" stroke-width="1.26773"/>
<path d="M83.0361 32.1016H92.4111V20.1016H83.0361V32.1016Z" fill="#7F7F7F" stroke="black" stroke-width="1.26773"/>
<path d="M96.4287 32.1016H105.804V20.1016H96.4287V32.1016Z" fill="#7F7F7F" stroke="black" stroke-width="1.26773"/>
<path d="M79.0176 27.6016H112.5V32.1016H79.0176V27.6016Z" fill="#E5E5E5" stroke="black" stroke-width="1.26773"/>
<path d="M40.1787 32.1H73.6609V25.5H40.1787V32.1Z" fill="#E5E5E5" stroke="black" stroke-width="1.26773"/>
<path d="M36.1611 12.5984H112.5V0.898438H36.1611V12.5984Z" fill="#B2B2B2" stroke="black" stroke-width="1.26773"/>
<path d="M33.4824 0H116.518V0.9H33.4824V0Z" fill="#CCCCCC" stroke="black" stroke-width="1.26773"/>
<path d="M49.5537 1.5V12" stroke="black" stroke-width="1.26773"/>
<path d="M62.9463 1.5V12" stroke="black" stroke-width="1.26773"/>
<path d="M75 1.5V12" stroke="black" stroke-width="1.26773"/>
<path d="M87.0537 1.5V12" stroke="black" stroke-width="1.26773"/>
<path d="M99.1074 1.5V12" stroke="black" stroke-width="1.26773"/>
</g>
<defs>
<clipPath id="clip0_2109_210535">
<rect width="150" height="150" fill="white"/>
</clipPath>
</defs>
</svg>
