<svg width="150" height="150" viewBox="0 0 150 150" fill="none" xmlns="http://www.w3.org/2000/svg">
<path d="M0.600586 97.7862H149.099V52.2109H0.600586V97.7862Z" fill="#7F7F7F"/>
<path d="M0.750977 92.4813H149.249V56.6406H0.750977V92.4813Z" fill="#999999"/>
<path d="M0.750977 87.609H149.249V61.9453H0.750977V87.609Z" fill="#B2B2B2"/>
<path d="M0.750977 82.7467H149.249V66.375H0.750977V82.7467Z" fill="#CCCCCC"/>
<path d="M0.600586 77.8744H149.099V71.6797H0.600586V77.8744Z" fill="#E5E5E5"/>
<path d="M0.600586 97.7862H6.90689V52.2109H0.600586V97.7862Z" stroke="black" stroke-width="0.515512"/>
<path d="M25.3757 138.496L19.2195 120.355H13.0634L9.91023 102.213H6.90723V47.3457H9.91023L13.0634 29.2041H19.2195L25.3757 11.0625H124.325L130.631 29.2041H136.787L139.94 47.3457H142.943V102.213H139.94L136.787 120.355H130.631L124.325 138.496H25.3757Z" fill="#4C4C4C"/>
<path d="M25.5258 129.649L19.2195 113.719H13.0634L10.0604 98.2327H6.90723V51.33H10.0604L13.0634 35.8433H19.2195L25.5258 19.9141H124.475L130.631 35.8433H136.787L139.94 51.33H142.943V98.2327H139.94L136.787 113.719H130.631L124.475 129.649H25.5258Z" fill="#5E5E5E"/>
<path d="M25.5258 120.354L19.2195 107.079H13.0634L10.0604 94.2474H6.90723V54.8668H10.0604L13.0634 42.035H19.2195L25.5258 29.2031H124.475L130.631 42.035H136.787L139.94 54.8668H142.943V94.2474H139.94L136.787 107.079H130.631L124.475 120.354H25.5258Z" fill="#6E6E6E"/>
<path d="M25.5258 111.064L19.2195 100.887H13.0634L10.0604 90.2671H6.90723V58.8511H10.0604L13.0634 48.6742H19.2195L25.5258 38.0547H124.475L130.631 48.6742H136.787L139.94 58.8511H142.943V90.2671H139.94L136.787 100.887H130.631L124.475 111.064H25.5258Z" fill="#7F7F7F"/>
<path d="M25.5258 102.211L19.2195 94.2464H13.0634L10.0604 86.2818H6.90723V62.8305H10.0604L13.0634 54.8659H19.2195L25.5258 47.3438H124.475L130.631 54.8659H136.787L139.94 62.8305H142.943V86.2818H139.94L136.787 94.2464H130.631L124.475 102.211H25.5258Z" fill="#919191"/>
<path d="M25.5258 92.921L19.2195 87.6112H13.0634L10.0604 82.3015H6.90723V66.8148H10.0604L13.0634 61.505H19.2195L25.5258 56.1953H124.475L130.631 61.505H136.787L139.94 66.8148H142.943V82.3015H139.94L136.787 87.6112H130.631L124.475 92.921H25.5258Z" fill="#A1A1A1"/>
<path d="M25.3757 81.8546L19.2195 79.6422H13.0634L9.91023 77.8723H6.90723V71.6776H9.91023L13.0634 69.9077H19.2195L25.3757 67.6953H124.325L130.631 69.9077H136.787L139.94 71.6776H142.943V77.8723H139.94L136.787 79.6422H130.631L124.325 81.8546H25.3757Z" fill="#B2B2B2"/>
<path d="M25.3757 138.496L19.2195 120.355H13.0634L9.91023 102.213H6.90723V47.3457H9.91023L13.0634 29.2041H19.2195L25.3757 11.0625H124.325L130.631 29.2041H136.787L139.94 47.3457H142.943V102.213H139.94L136.787 120.355H130.631L124.325 138.496H25.3757Z" stroke="black" stroke-width="0.515512"/>
<path d="M25.375 1.77344H124.324V147.791H25.375V1.77344Z" fill="#B2B2B2" stroke="black" stroke-width="0.515512"/>
<path d="M30.0303 15.4844H119.67V134.068H30.0303V15.4844Z" fill="#E5E5E5" stroke="black" stroke-width="0.515512"/>
<path d="M30.0303 97.7862H119.67V52.2109H30.0303V97.7862Z" fill="#7F7F7F" stroke="black" stroke-width="0.515512"/>
<path d="M33.9344 97.7842L38.8894 48.6692L40.8413 41.1471L43.2437 38.4922L45.496 41.1471L47.5981 48.6692L47.8984 52.209H43.2437L38.2888 100.882L36.1867 108.846L33.9344 111.501L31.532 108.846L30.7812 106.634V97.7842H33.9344Z" fill="#4C4C4C" stroke="black" stroke-width="0.515512"/>
<path d="M52.2523 97.7842L56.907 48.6692L58.8589 41.1471L61.2613 38.4922L63.5136 41.1471L65.6157 48.6692L65.916 52.209H61.2613L56.6067 100.882L54.5046 108.846L52.2523 111.501L49.8499 108.846L47.898 100.882L47.5977 97.7842H52.2523Z" fill="#4C4C4C" stroke="black" stroke-width="0.515512"/>
<path d="M70.2699 97.7842L75.2248 48.6692L77.3269 41.1471L79.5792 38.4922L81.9816 41.1471L83.9336 48.6692L84.2339 52.209H79.5792L74.7744 100.882L72.6723 108.846L70.2699 111.501L68.0176 108.846L65.9155 100.882L65.6152 97.7842H70.2699Z" fill="#4C4C4C" stroke="black" stroke-width="0.515512"/>
<path d="M88.5882 97.7842L93.2429 48.6692L95.345 41.1471L97.5973 38.4922L99.9997 41.1471L101.952 48.6692L102.252 52.209H97.5973L92.9426 100.882L90.9907 108.846L88.5882 111.501L86.336 108.846L84.2339 100.882L83.9336 97.7842H88.5882Z" fill="#4C4C4C" stroke="black" stroke-width="0.515512"/>
<path d="M106.607 97.7842L111.261 48.6692L113.364 41.1471L115.616 38.4922L118.018 41.1471L119.069 45.1294V52.209H115.616L110.961 100.882L109.009 108.846L106.607 111.501L104.355 108.846L102.252 100.882L101.952 97.7842H106.607Z" fill="#4C4C4C" stroke="black" stroke-width="0.515512"/>
<path d="M136.787 120.354V29.2031" stroke="white" stroke-width="0.515512"/>
<path d="M13.0635 120.354V29.2031" stroke="white" stroke-width="0.515512"/>
<path d="M139.939 102.211V47.3438" stroke="black" stroke-width="0.515512"/>
<path d="M130.631 120.354V29.2031" stroke="black" stroke-width="0.515512"/>
<path d="M9.91016 102.211V47.3438" stroke="black" stroke-width="0.515512"/>
<path d="M19.2188 120.354V29.2031" stroke="black" stroke-width="0.515512"/>
</svg>
