<svg width="150" height="150" viewBox="0 0 150 150" fill="none" xmlns="http://www.w3.org/2000/svg">
<g clip-path="url(#clip0_2109_210487)">
<path d="M122.493 70.7969H148.281V76.1969H122.493V70.7969Z" fill="#7F7F7F"/>
<path d="M122.493 71.7031H148.281V75.3031H122.493V71.7031Z" fill="#B2B2B2"/>
<path d="M122.493 73.2031H148.281V74.1031H122.493V73.2031Z" fill="#E5E5E5"/>
<path d="M122.493 70.7969H148.281V76.1969H122.493V70.7969Z" stroke="black" stroke-width="0.718164"/>
<path d="M115.616 57H118.625V59.1H115.616V57Z" fill="#B2B2B2" stroke="black" stroke-width="0.718164"/>
<path d="M110.889 59.1016H121.204V61.2016H110.889V59.1016Z" fill="#0000BF" stroke="black" stroke-width="0.718164"/>
<path d="M121.633 64.4984L125.071 57.8984L121.633 51.8984H109.599L106.16 57.8984L109.599 64.4984H121.633L118.624 61.1984H112.607L110.888 57.8984L112.607 54.5984H118.624L120.344 57.8984L118.624 61.1984L121.633 64.4984Z" fill="#0000FF"/>
<path d="M121.633 64.4984L125.071 57.8984L121.633 51.8984H109.599L106.16 57.8984L109.599 64.4984H121.633ZM121.633 64.4984L118.624 61.1984M118.624 61.1984H112.607L110.888 57.8984L112.607 54.5984H118.624L120.344 57.8984L118.624 61.1984Z" stroke="black" stroke-width="0.718164"/>
<path d="M107.88 78.9031V61.2031H121.204L132.808 66.0031V78.9031H126.361V68.1031L119.484 65.4031H113.897V78.9031H107.88Z" fill="#0000FF" stroke="black" stroke-width="0.718164"/>
<path d="M114.757 65.1016H125.072V67.2016H114.757V65.1016Z" fill="#0000BF" stroke="black" stroke-width="0.718164"/>
<path d="M113.467 57H115.616V59.1H113.467V57Z" fill="#E5E5E5" stroke="black" stroke-width="0.718164"/>
<path d="M122.493 68.1016H120.344V79.2016H122.493V68.1016Z" fill="#7F7F7F"/>
<path d="M122.493 69.8984H120.344V77.3984H122.493V69.8984Z" fill="#B2B2B2"/>
<path d="M122.493 72.6016H120.344V74.4016H122.493V72.6016Z" fill="#E5E5E5"/>
<path d="M122.493 68.1016H120.344V79.2016H122.493V68.1016Z" stroke="black" stroke-width="0.718164"/>
<path d="M97.1348 31.1984L116.906 6.89844L143.123 17.3984L122.923 41.6984L97.1348 31.1984Z" fill="#0000B2" stroke="black" stroke-width="0.718164"/>
<path d="M99.7139 32.1016L119.914 8.10156L140.115 16.2016L120.344 40.5016L99.7139 32.1016Z" fill="#0000CC"/>
<path d="M104.012 33.8984L124.212 9.89844L135.817 14.3984L115.616 38.6984L104.012 33.8984Z" fill="#0000E5"/>
<path d="M108.739 35.7031L128.51 11.7031L131.519 12.6031L111.318 36.9031L108.739 35.7031Z" fill="#0000FF"/>
<path d="M131.089 24.6016L136.246 18.6016L144.842 22.2016L139.685 28.2016L131.089 24.6016Z" fill="#0000FF" stroke="black" stroke-width="0.718164"/>
<path d="M37.8226 138.602L32.665 140.702L60.1722 150.002L65.7596 149.102L37.8226 138.602Z" fill="#999999" stroke="black" stroke-width="0.718164"/>
<path d="M41.6907 140.102L30.516 135.602L29.2266 136.802L40.8311 141.302L41.6907 140.102Z" fill="#4C4C4C" stroke="black" stroke-width="0.718164"/>
<path d="M18.9115 128.102L30.0863 135.902L28.7969 137.402L17.6221 129.302L18.9115 128.102Z" fill="#4C4C4C" stroke="black" stroke-width="0.718164"/>
<path d="M22.3498 131.4L30.9458 133.2L15.0432 124.8L10.3154 123L22.3498 131.4Z" fill="#CCCCCC" stroke="black" stroke-width="0.718164"/>
<path d="M15.4729 133.8L22.3497 131.4L10.3153 123L6.87695 124.2L15.4729 133.8Z" fill="#999999" stroke="black" stroke-width="0.718164"/>
<path d="M27.0771 142.802C31.1124 142.802 34.3837 140.518 34.3837 137.702C34.3837 134.885 31.1124 132.602 27.0771 132.602C23.0418 132.602 19.7705 134.885 19.7705 137.702C19.7705 140.518 23.0418 142.802 27.0771 142.802Z" fill="#666666" stroke="black" stroke-width="0.718164"/>
<path d="M87.6788 67.8L83.3808 66L27.5068 133.8L31.8048 135.6L87.6788 67.8Z" fill="#7F7F7F" stroke="black" stroke-width="0.718164"/>
<path d="M86.819 67.4969L84.2402 66.2969L27.9365 134.097L30.9451 135.297L86.819 67.4969Z" fill="#B2B2B2"/>
<path d="M85.9601 67.1984L85.1005 66.8984L29.2266 134.398L30.0862 134.698L85.9601 67.1984Z" fill="white"/>
<path d="M40.8309 141.302L37.8223 138.602L65.7592 149.102L66.189 150.002L40.8309 141.302Z" fill="#B2B2B2" stroke="black" stroke-width="0.718164"/>
<path d="M25.7875 137.102L28.7961 138.302L19.7703 140.702L16.7617 139.802L25.7875 137.102Z" fill="#4C4C4C" stroke="black" stroke-width="0.718164"/>
<path d="M23.639 138.902L15.043 135.602L0 141.602L3.8682 143.102L23.639 138.902Z" fill="#B2B2B2" stroke="black" stroke-width="0.718164"/>
<path d="M3.86816 143.098L23.6389 138.898L26.2177 145.198L4.72776 146.998L3.86816 143.098Z" fill="#7F7F7F" stroke="black" stroke-width="0.718164"/>
<path d="M82.9512 65.6984L83.381 57.8984L96.7048 63.2984L87.2492 67.4984L82.9512 65.6984Z" fill="#7F7F7F" stroke="black" stroke-width="0.718164"/>
<path d="M83.8105 65.9969L85.5297 58.7969L94.5555 62.3969L86.3893 67.1969L83.8105 65.9969Z" fill="#B2B2B2"/>
<path d="M84.2402 66.3031L88.1084 59.7031L92.4064 61.5031L85.9594 66.9031L84.2402 66.3031Z" fill="#E5E5E5"/>
<path d="M84.2402 58.1984L87.6786 35.3984L92.8362 29.3984L127.22 43.1984L122.492 49.4984L95.8448 62.9984L84.2402 58.1984Z" fill="#0000D9"/>
<path d="M85.5303 58.7984L91.5475 36.8984L96.7051 30.8984L123.353 41.6984L118.625 47.6984L94.5561 62.3984L85.5303 58.7984Z" fill="#0000FF"/>
<path d="M87.249 59.3969L97.1344 39.2969L102.292 33.2969L117.765 39.2969L112.607 45.5969L92.4066 61.4969L87.249 59.3969Z" fill="#5959FF"/>
<path d="M89.3984 60.3031L103.152 41.7031L108.31 35.7031L111.748 37.2031L107.02 43.2031L90.6878 60.9031L89.3984 60.3031Z" fill="#7F7FFF"/>
<path d="M84.2402 58.1984L87.6786 35.3984L92.8362 29.3984L127.22 43.1984L122.492 49.4984L95.8448 62.9984L84.2402 58.1984Z" stroke="black" stroke-width="0.718164"/>
<path d="M112.607 5.1L119.914 0L150 12.3L147.421 19.2L112.607 5.1Z" fill="#0000D9"/>
<path d="M116.476 6.60313L123.352 1.20312L146.991 10.8031L143.553 17.7031L116.476 6.60313Z" fill="#0000FF"/>
<path d="M122.493 8.99688L128.081 3.29688L141.834 8.69688L137.966 15.2969L122.493 8.99688Z" fill="#5959FF"/>
<path d="M128.08 11.3984L133.238 5.39844L136.676 6.89844L131.948 12.8984L128.08 11.3984Z" fill="#7F7FFF"/>
<path d="M112.607 5.1L119.914 0L150 12.3L147.421 19.2L112.607 5.1Z" stroke="black" stroke-width="0.718164"/>
</g>
<defs>
<clipPath id="clip0_2109_210487">
<rect width="150" height="150" fill="white"/>
</clipPath>
</defs>
</svg>
