<svg width="150" height="150" viewBox="0 0 150 150" fill="none" xmlns="http://www.w3.org/2000/svg">
<g clip-path="url(#clip0_2109_210750)">
<path d="M92.9434 150.001V138.336H150V146.222L92.9434 150.001Z" fill="#E5E5E5" stroke="black" stroke-width="0.314125"/>
<path d="M75.0746 150.001V138.336H18.0176V146.222L75.0746 150.001Z" fill="#E5E5E5" stroke="black" stroke-width="0.314125"/>
<path d="M71.4717 140.305H96.3966V148.191H71.4717V140.305Z" fill="#E5E5E5" stroke="black" stroke-width="0.314125"/>
<path d="M51.8018 56.5156V60.2944H116.066V56.5156H51.8018Z" fill="#E5E5E5" stroke="black" stroke-width="0.314125"/>
<path d="M78.6787 138.336H89.3394V150.001H78.6787V138.336Z" fill="#E5E5E5" stroke="black" stroke-width="0.314125"/>
<path d="M80.4805 60.2969H87.5375V138.336H80.4805V60.2969Z" fill="#E5E5E5" stroke="black" stroke-width="0.314125"/>
<path d="M0 34.5036L0.750751 39.2681L4.2042 42.3897L6.45646 42.7183L7.35736 42.8826H8.25826H42.6426V40.7468L47.5976 40.4182L51.3514 38.4467L51.8018 37.2966V36.6395V35.818V15.7742L48.9489 12.1597L44.4444 11.6668H42.6426V9.69531H9.00901L4.2042 10.0239L0.750751 13.1455L0 16.5956V17.91V34.5036Z" fill="#E5E5E5" stroke="black" stroke-width="0.314125"/>
<path d="M51.8018 9.69531H116.066V42.8826H51.8018V9.69531Z" fill="#E5E5E5" stroke="black" stroke-width="0.314125"/>
<path d="M57.207 42.8828L59.0088 48.6331H108.859L110.66 42.8828H57.207Z" fill="#E5E5E5" stroke="black" stroke-width="0.314125"/>
<path d="M55.4053 56.5189L57.2071 48.6328H110.661L112.462 56.5189H55.4053Z" fill="#E5E5E5" stroke="black" stroke-width="0.314125"/>
<path d="M57.207 7.71875H108.859V9.69027H57.207V7.71875Z" fill="#E5E5E5" stroke="black" stroke-width="0.314125"/>
<path d="M60.8105 7.72152L67.8676 5.75H98.1979L105.405 7.72152H60.8105Z" fill="#E5E5E5" stroke="black" stroke-width="0.314125"/>
<path d="M76.7266 1.80469H89.3392V5.74773H76.7266V1.80469Z" fill="#E5E5E5" stroke="black" stroke-width="0.314125"/>
<path d="M82.2822 0H83.9339V1.80723H82.2822V0Z" fill="#E5E5E5" stroke="black" stroke-width="0.314125"/>
<path d="M42.6426 40.7438V11.8281" stroke="black" stroke-width="0.314125"/>
<path d="M7.35742 42.8826V9.69531" stroke="black" stroke-width="0.314125"/>
</g>
<defs>
<clipPath id="clip0_2109_210750">
<rect width="150" height="150" fill="white"/>
</clipPath>
</defs>
</svg>
