<svg width="150" height="150" viewBox="0 0 150 150" fill="none" xmlns="http://www.w3.org/2000/svg">
<path d="M148.433 132.429V50.2969H1.34375V132.429L3.80644 136.633L8.50793 139.636L13.8811 141.738L20.5975 143.54L28.2094 145.192L36.9408 146.543L42.9855 147.294L49.702 147.894L56.6423 148.345L63.8064 148.795H67.3885L71.1945 148.946H75.0005L82.3885 148.795L89.7766 148.645L96.7169 148.195L103.433 147.594L109.926 146.994L115.971 146.093L124.478 144.591L131.642 142.94L137.911 140.988L143.956 138.135L148.209 134.231L148.433 133.33V132.429Z" fill="#00FFFF" stroke="black" stroke-width="0.366692"/>
<path d="M62.6861 13.2107L61.3429 8.40594L57.313 4.50204L51.4921 1.94949L44.3279 0.898438L37.1638 1.94949L31.3429 4.50204L27.5369 8.40594L25.9697 13.2107V50.2978H62.6861V13.2107Z" fill="#8CD98C" stroke="black" stroke-width="0.366692"/>
<path d="M124.03 13.2107L122.687 8.40594L118.657 4.50204L112.836 1.94949L105.672 0.898438L98.5075 1.94949L92.6866 4.50204L88.6568 8.40594L87.3135 13.2107V50.2978H124.03V13.2107Z" fill="#8CD98C" stroke="black" stroke-width="0.366692"/>
<path d="M64.0295 124.322L65.8206 123.721L67.3877 122.37L68.5071 120.418L68.9549 118.016L68.5071 115.763L67.3877 113.811L65.8206 112.46L64.0295 111.859L24.6265 124.322L22.8355 123.721L21.2683 122.37L20.1489 120.418L19.7012 118.016L20.1489 115.763L21.2683 113.811L22.8355 112.46L24.6265 111.859L64.0295 124.322Z" fill="white" stroke="black" stroke-width="0.366692"/>
<path d="M125.149 124.322L127.164 123.721L128.731 122.37L129.851 120.418L130.075 118.016L129.851 115.763L128.731 113.811L127.164 112.46L125.149 111.859L85.9703 124.322L83.9554 123.721L82.6121 122.37L81.4927 120.418L81.0449 118.016L81.4927 115.763L82.6121 113.811L83.9554 112.46L85.9703 111.859L125.149 124.322Z" fill="white"/>
<path d="M44.3281 118.015V33.7812" stroke="black" stroke-width="0.366692"/>
<path d="M125.149 124.322L127.164 123.721L128.731 122.37L129.851 120.418L130.075 118.016L129.851 115.763L128.731 113.811L127.164 112.46L125.149 111.859L85.9703 124.322L83.9554 123.721L82.6121 122.37L81.4927 120.418L81.0449 118.016L81.4927 115.763L82.6121 113.811L83.9554 112.46L85.9703 111.859L125.149 124.322Z" stroke="black" stroke-width="0.366692"/>
<path d="M105.672 118.015V33.7812" stroke="black" stroke-width="0.366692"/>
</svg>
