<svg width="150" height="150" viewBox="0 0 150 150" fill="none" xmlns="http://www.w3.org/2000/svg">
<g clip-path="url(#clip0_2109_210864)">
<path d="M131.202 150.002L135.038 149.619L138.491 148.468L141.56 146.933L144.629 144.631L146.931 141.562L148.465 138.493L149.616 135.041L150 131.204L149.616 127.368L148.465 123.915L146.931 120.846L144.629 117.777L141.56 115.475L138.491 113.941L135.038 112.79L131.202 112.406L75.1914 131.204L131.202 150.002Z" fill="#7F7F7F" stroke="black" stroke-width="0.767263"/>
<path d="M131.202 146.934L135.038 146.551L138.491 145.783L141.56 144.249L144.629 142.331L146.931 140.029L148.465 137.344L149.616 134.275L150 131.205L149.616 128.136L148.465 125.067L146.931 122.382L144.629 120.08L141.56 118.162L138.491 116.627L135.038 115.86L131.202 115.477L75.1914 131.205L131.202 146.934Z" fill="#999999"/>
<path d="M112.404 140.407C132.955 140.407 149.616 136.284 149.616 131.199C149.616 126.114 132.955 121.992 112.404 121.992C91.8519 121.992 75.1914 126.114 75.1914 131.199C75.1914 136.284 91.8519 140.407 112.404 140.407Z" fill="#B2B2B2"/>
<path d="M18.798 150.002L14.9616 149.619L11.509 148.468L8.4399 146.933L5.37084 144.631L3.06905 141.562L1.53453 138.493L0.383632 135.041L0 131.204L0.383632 127.368L1.53453 123.915L3.06905 120.846L5.37084 117.777L8.4399 115.475L11.509 113.941L14.9616 112.79L18.798 112.406L75.1918 131.204L18.798 150.002Z" fill="#7F7F7F" stroke="black" stroke-width="0.767263"/>
<path d="M18.798 146.934L14.9616 146.551L11.509 145.783L8.4399 144.249L5.37084 142.331L3.06905 140.029L1.53453 137.344L0.383632 134.275L0 131.205L0.383632 128.136L1.53453 125.067L3.06905 122.382L5.37084 120.08L8.4399 118.162L11.509 116.627L14.9616 115.86L18.798 115.477L75.1918 131.205L18.798 146.934Z" fill="#999999"/>
<path d="M37.5959 140.407C58.3596 140.407 75.1918 136.284 75.1918 131.199C75.1918 126.114 58.3596 121.992 37.5959 121.992C16.8323 121.992 0 126.114 0 131.199C0 136.284 16.8323 140.407 37.5959 140.407Z" fill="#B2B2B2"/>
<path d="M83.2483 121.995V0H66.7522V121.995L63.6831 126.215L62.5322 131.202L63.6831 136.189L66.3685 140.026L70.2049 142.711L75.1921 143.862L79.7957 142.711L83.632 140.026L86.3174 136.189L87.4683 131.202L86.3174 126.215L83.2483 121.995Z" fill="#7F7F7F" stroke="black" stroke-width="0.767263"/>
<path d="M82.4807 121.608V1.53125H67.5191V121.608L65.9846 123.143L65.2173 125.061L64.45 127.362L64.0664 129.664L64.8337 133.884L67.5191 137.337L70.9718 140.022L75.1917 140.79L79.4117 140.022L82.8644 137.337L85.1662 133.884L85.9334 129.664L85.5498 127.362L84.7825 125.061L84.0153 123.143L82.4807 121.608Z" fill="#999999"/>
<path d="M80.5625 121.229V3.07031H69.4372V121.229L68.2863 122.38L67.1354 123.914L66.7518 125.449L66.3682 127.367L67.1354 130.436L69.0536 133.121L71.739 135.04L75.1917 135.807L78.6444 135.04L81.3298 133.121L82.8643 130.436L83.6316 127.367L83.248 125.449L82.8643 123.914L81.7134 122.38L80.5625 121.229Z" fill="#B2B2B2"/>
</g>
<defs>
<clipPath id="clip0_2109_210864">
<rect width="150" height="150" fill="white"/>
</clipPath>
</defs>
</svg>
