<svg width="59" height="150" viewBox="0 0 59 150" fill="none" xmlns="http://www.w3.org/2000/svg">
<g clip-path="url(#clip0_2109_210648)">
<path d="M54.8453 134.383L30.7467 136.335H29.9157L29.2924 136.485L28.4614 136.635L27.8382 136.935L27.215 137.236L26.5917 137.536L26.1762 137.986L25.7607 138.437L50.2748 136.335L50.6903 135.884L51.1058 135.584L51.7291 135.134L52.3523 134.833L52.9755 134.683L53.5988 134.533L54.222 134.383H54.8453Z" fill="#7F7F7F" stroke="black" stroke-width="0.563222"/>
<path d="M58.9996 137.386V136.485L58.7919 135.884L58.5841 135.284L58.1686 134.983L57.5454 134.683L56.9221 134.383H55.8834H54.8447L30.7461 136.335L31.7848 136.485L32.6158 136.635L33.6545 137.086L34.2778 137.536L35.1088 138.287L35.5243 139.037L35.732 139.788L35.9398 140.689L58.9996 137.386Z" fill="#A6A6A6" stroke="black" stroke-width="0.563222"/>
<path d="M3.32422 135.133L23.4756 136.784H24.3066L24.9299 136.935L25.5531 137.085L26.1763 137.235L26.5918 137.535L27.0073 137.836L27.4228 138.136L27.8383 138.586L7.2714 136.935L7.06366 136.484L6.64816 136.184L6.02492 135.884L5.60943 135.583L4.98619 135.433L4.5707 135.283L3.94746 135.133H3.32422Z" fill="#7F7F7F" stroke="black" stroke-width="0.563222"/>
<path d="M0 137.685V136.935V136.334L0.207746 135.884L0.623239 135.583L1.03873 135.433L1.66197 135.283L2.49296 135.133H3.32394L23.4754 136.784H22.6444L21.8134 137.085L21.1901 137.385L20.5669 137.836L20.1514 138.436L19.7359 139.037L19.3204 139.637V140.388L0 137.685Z" fill="#A6A6A6" stroke="black" stroke-width="0.563222"/>
<path d="M22.6445 62.1641H28.8769V142.945H22.6445V62.1641Z" fill="#7F7F7F" stroke="black" stroke-width="0.563222"/>
<path d="M24.9297 62.1641H26.5917V142.945H24.9297V62.1641Z" fill="#BFBFBF"/>
<path d="M30.9538 39.9401V42.0422H40.7179V39.9401L41.7566 34.2344H29.915L30.9538 39.9401Z" fill="#006600" stroke="black" stroke-width="0.563222"/>
<path d="M33.4475 39.9401V42.0422H38.2256V39.9401L38.8489 34.2344H32.8242L33.4475 39.9401Z" fill="#008C00"/>
<path d="M23.8906 5.70571V28.5285L28.0456 34.2342H43.8343L47.7815 28.5285V5.70571L47.366 3.6036L46.3272 1.65165L44.4575 0.45045L41.7568 0H29.9153L27.4223 0.45045L25.5526 1.65165L24.3061 3.6036L23.8906 5.70571Z" fill="#006600"/>
<path d="M28.0459 5.70571V28.5285L30.5389 34.2342H41.1339L43.8346 28.5285V5.70571L43.6269 3.6036L42.7959 1.65165L41.5494 0.45045L39.8874 0H31.9931L30.1234 0.45045L28.8769 1.65165L28.2536 3.6036L28.0459 5.70571Z" fill="#008C00"/>
<path d="M29.915 5.70571V28.5285L31.9925 34.2342H39.8869L41.7566 28.5285V5.70571L41.5488 3.6036L41.1333 1.65165L40.0946 0.45045L39.4714 0H38.8481H32.8235H32.2003L30.746 1.65165L30.1228 3.6036L29.915 5.70571Z" fill="#00B200"/>
<path d="M33.8623 5.70571V28.5285L34.4855 34.2342H37.1862L37.8095 28.5285V4.5045V2.55255L37.394 0.900901L37.1862 0H36.7708H34.901H34.6933L34.0701 1.65165L33.8623 3.6036V5.70571Z" fill="#00D900"/>
<path d="M23.8906 5.70571V28.5285L28.0456 34.2342H43.8343L47.7815 28.5285V5.70571L47.366 3.6036L46.3272 1.65165L44.4575 0.45045L41.7568 0H29.9153L27.4223 0.45045L25.5526 1.65165L24.3061 3.6036L23.8906 5.70571Z" stroke="black" stroke-width="0.563222"/>
<path d="M23.8906 37.0859H30.954V42.0409H23.8906V37.0859Z" fill="#006600" stroke="black" stroke-width="0.563222"/>
<path d="M28.0459 7.80469H47.7818V28.5254H28.0459V7.80469Z" fill="#006600" stroke="black" stroke-width="0.563222"/>
<path d="M28.877 5.70312H30.9544V28.5259H28.877V5.70312Z" fill="#008C00" stroke="black" stroke-width="0.563222"/>
<path d="M33.8623 5.70312H35.9398V28.5259H33.8623V5.70312Z" fill="#008C00" stroke="black" stroke-width="0.563222"/>
<path d="M38.8486 5.70312H40.7184V28.5259H38.8486V5.70312Z" fill="#008C00" stroke="black" stroke-width="0.563222"/>
<path d="M43.835 5.70312H45.7047V28.5259H43.835V5.70312Z" fill="#008C00" stroke="black" stroke-width="0.563222"/>
<path d="M45.7041 4.20312H50.69V27.0259H45.7041V4.20312Z" fill="#004C00" stroke="black" stroke-width="0.563222"/>
<path d="M47.7812 42.0391H12.0488V47.1442H47.7812V42.0391Z" fill="#00A600" stroke="black" stroke-width="0.563222"/>
<path d="M51.7293 47.1484H8.10254V49.2505H51.7293V47.1484Z" fill="#00BF00" stroke="black" stroke-width="0.563222"/>
<path d="M47.782 59.9062H4.15527V62.1585H47.782V59.9062Z" fill="#00BF00" stroke="black" stroke-width="0.563222"/>
<path d="M47.7812 49.25H12.0488V59.9107H47.7812V49.25Z" fill="#008C00" stroke="black" stroke-width="0.563222"/>
<path d="M33.8623 44.1406H44.6651V45.6421H33.8623V44.1406Z" fill="white"/>
<path d="M15.3732 149.996L13.9189 141.288L15.7887 140.237L17.8661 139.336L20.3591 138.735L22.2288 138.435L24.9295 138.135L25.9682 137.984L28.8767 138.135L30.9542 138.285L33.4471 138.735L35.9401 139.336L38.0175 140.237L39.6795 141.288L29.7077 149.996L27.6302 148.795L25.7605 148.345L23.683 148.044H21.6056L19.3204 148.345L17.4506 148.795L15.3732 149.996Z" fill="#A6A6A6" stroke="black" stroke-width="0.563222"/>
<path d="M24.5137 145.945L25.7602 139.789H29.9151L26.7989 146.846L24.5137 145.945Z" fill="#E5E5E5"/>
</g>
<defs>
<clipPath id="clip0_2109_210648">
<rect width="59" height="150" fill="white"/>
</clipPath>
</defs>
</svg>
