<svg width="150" height="150" viewBox="0 0 150 150" fill="none" xmlns="http://www.w3.org/2000/svg">
<g clip-path="url(#clip0_2109_210678)">
<path d="M70.9414 74.9219H79.0576V149.997H70.9414V74.9219Z" fill="#E5E5E5" stroke="black" stroke-width="0.424901"/>
<path d="M52.6055 36.4844L56.8139 56.7546V74.9228H93.1866V56.7546L97.395 36.4844H52.6055Z" fill="#E5E5E5" stroke="black" stroke-width="0.424901"/>
<path d="M79.0586 28.375H99.4995V30.327H79.0586V28.375Z" fill="#E5E5E5" stroke="black" stroke-width="0.424901"/>
<path d="M97.3946 0L101.904 0.3003L104.308 1.2012L105.21 2.55255L105.511 3.3033V4.05405V24.3243H103.407V25.6757L102.505 27.6276L100.701 28.2282L99.1982 28.3784H98.597H79.0579L76.6531 27.9279L75.1501 26.4264L74.8495 24.9249V24.3243H73.0459V4.05405V2.55255L73.9477 1.2012L76.3525 0.3003L78.4567 0H81.1621H97.3946Z" fill="#E5E5E5" stroke="black" stroke-width="0.424901"/>
<path d="M52.6055 30.3281V36.4843H97.3951V34.3822H105.511V30.3281H52.6055Z" fill="#E5E5E5" stroke="black" stroke-width="0.424901"/>
<path d="M105.511 4.05469H73.0459" stroke="black" stroke-width="0.424901"/>
<path d="M73.0459 24.3281H105.511" stroke="black" stroke-width="0.424901"/>
<path d="M105.511 22.2188H73.0459" stroke="black" stroke-width="0.424901"/>
<path d="M52.6055 32.4297H105.511" stroke="black" stroke-width="0.424901"/>
<path d="M56.8135 56.7578H93.1862" stroke="black" stroke-width="0.424901"/>
<path d="M56.8135 58.7109H93.1862" stroke="black" stroke-width="0.424901"/>
<path d="M56.8135 60.8125H93.1862" stroke="black" stroke-width="0.424901"/>
<path d="M56.8135 72.9766H93.1862" stroke="black" stroke-width="0.424901"/>
<path d="M62.8252 72.9717V65.7645L63.4264 64.4131L63.727 64.1128L66.733 63.8125H82.9655L86.2721 64.1128L87.1739 65.4642V72.9717" stroke="black" stroke-width="0.424901"/>
<path d="M64.9299 150V143.844H0V147.898L64.9299 150Z" fill="#E5E5E5" stroke="black" stroke-width="0.424901"/>
<path d="M85.0703 150V143.844H150V147.898L85.0703 150Z" fill="#E5E5E5" stroke="black" stroke-width="0.424901"/>
<path d="M85.0703 119.522V113.516H150V117.57L85.0703 119.522Z" fill="#E5E5E5" stroke="black" stroke-width="0.424901"/>
<path d="M64.9299 119.522V113.516H0V117.57L64.9299 119.522Z" fill="#E5E5E5" stroke="black" stroke-width="0.424901"/>
<path d="M60.7217 114.414H89.2788V118.468H60.7217V114.414Z" fill="#E5E5E5" stroke="black" stroke-width="0.424901"/>
<path d="M60.7217 144.898H89.2788V148.952H60.7217V144.898Z" fill="#E5E5E5" stroke="black" stroke-width="0.424901"/>
<path d="M68.8379 143.844H81.1625V150H68.8379V143.844Z" fill="#E5E5E5" stroke="black" stroke-width="0.424901"/>
<path d="M68.8379 113.516H81.1625V119.522H68.8379V113.516Z" fill="#E5E5E5" stroke="black" stroke-width="0.424901"/>
</g>
<defs>
<clipPath id="clip0_2109_210678">
<rect width="150" height="150" fill="white"/>
</clipPath>
</defs>
</svg>
