<svg width="150" height="150" viewBox="0 0 150 150" fill="none" xmlns="http://www.w3.org/2000/svg">
<g clip-path="url(#clip0_2109_198474)">
<path d="M25.6758 0H145.045V2.02429H25.6758V0Z" fill="#33260D" stroke="black" stroke-width="0.348682"/>
<path d="M25.6758 2.02344H141.892V149.999H25.6758V2.02344Z" fill="#F2E5CC"/>
<path d="M25.6758 107.084L141.892 45.1406V149.999H25.6758V107.084Z" fill="#EDE0C7"/>
<path d="M25.6758 113.154L141.892 51.2109V149.996H25.6758V113.154Z" fill="#E8DBC2"/>
<path d="M25.6758 122.467L141.892 60.5234V149.997H25.6758V122.467Z" fill="#E3D6BD"/>
<path d="M48.1983 115.181L25.6758 62.9541V49.5938L54.8049 115.181H48.1983Z" fill="#D9CCB3"/>
<path d="M25.6758 2.02344H141.892V149.999H25.6758V2.02344Z" stroke="black" stroke-width="0.348682"/>
<path d="M90.2398 10.7266H135.585L133.783 19.2286H88.7383L90.2398 10.7266Z" fill="#D9CCB3"/>
<path d="M30.48 19.2344H75.8254L74.0236 28.3437H28.9785L30.48 19.2344Z" fill="#D9CCB3"/>
<path d="M88.7383 21.6562H133.783" stroke="#D9CCB3" stroke-width="0.348682"/>
<path d="M28.9785 30.1641H74.0236" stroke="#D9CCB3" stroke-width="0.348682"/>
<path d="M32.2822 71.4609H141.892" stroke="#D9CCB3" stroke-width="0.348682"/>
<path d="M83.9336 115.181V2.02344" stroke="#D9CCB3" stroke-width="0.348682"/>
<path d="M25.6757 149.999V115.181L19.3694 71.4561H0V49.5938H22.3724L51.5015 115.181H138.589V149.999H25.6757Z" fill="#BFB299" stroke="black" stroke-width="0.348682"/>
<path d="M138.589 115.18H145.045V149.998H138.589V115.18Z" fill="#665940" stroke="black" stroke-width="0.348682"/>
<path d="M141.892 2.02344H145.045V115.181H141.892V2.02344Z" fill="#D9CCB3" stroke="black" stroke-width="0.348682"/>
<path d="M25.6758 115.18H51.5016" stroke="#998C73" stroke-width="0.348682"/>
<path d="M1.50195 52.0234H11.2617V58.5012H1.50195V52.0234Z" fill="#CCCCCC"/>
<path d="M67.7178 62.9531H103.153V112.751H67.7178V62.9531Z" fill="#33260D" stroke="black" stroke-width="0.348682"/>
<path d="M71.0215 95.3438H100.151V112.753H71.0215V95.3438Z" fill="#665940"/>
<path d="M74.0245 86.8438H96.8473L100.151 91.2972H71.0215L74.0245 86.8438Z" fill="#BFB299"/>
<path d="M67.7178 112.751H71.0211V62.9531H67.7178V112.751Z" fill="#998C73" stroke="black" stroke-width="0.348682"/>
<path d="M71.0215 95.3455H100.151V91.2969H71.0215V95.3455Z" fill="#998C73" stroke="black" stroke-width="0.348682"/>
<path d="M99.8496 112.751H103.153V62.9531H99.8496V112.751Z" fill="#998C73" stroke="black" stroke-width="0.348682"/>
<path d="M74.024 86.8398V62.9531H72.5225V88.8641L74.024 86.8398Z" fill="#998C73"/>
<path d="M96.8467 86.8398V62.9531H98.3482V88.8641L96.8467 86.8398Z" fill="#998C73"/>
<path d="M83.3336 88.8695L80.6309 85.2258V79.5578L83.3336 75.9141H87.5378L90.2405 79.5578V85.2258L87.5378 88.8695H83.3336Z" fill="#CCCCCC"/>
<path d="M83.3336 88.8664L80.6309 85.2227L90.2405 79.5547V85.2227L87.5378 88.8664H83.3336Z" fill="#B2B2B2"/>
<path d="M83.3336 88.8695L80.6309 85.2258V79.5578L83.3336 75.9141H87.5378L90.2405 79.5578V85.2258L87.5378 88.8695H83.3336Z" stroke="black" stroke-width="0.348682"/>
<path d="M71.0215 91.2932H72.523V62.9531H71.0215V91.2932Z" fill="#D9CCB3" stroke="black" stroke-width="0.348682"/>
<path d="M98.3486 91.2932H99.8501V62.9531H98.3486V91.2932Z" fill="#D9CCB3" stroke="black" stroke-width="0.348682"/>
<path d="M124.174 106.273L127.477 132.589H146.546L149.85 106.273H124.174Z" fill="#998C73"/>
<path d="M124.174 106.275V97.7734H149.85V106.275H124.174Z" fill="#D9CCB3"/>
<path d="M127.477 84.4141L124.174 97.7744H149.85L146.546 84.4141H127.477Z" fill="#F2E5CC"/>
<path d="M124.174 106.276L127.477 132.592H146.546L149.85 106.276V97.7744L146.546 84.4141H127.477L124.174 97.7744V106.276Z" stroke="black" stroke-width="0.348682"/>
<path d="M132.282 88.0547L130.48 94.5324H143.243L141.892 88.0547H132.282Z" fill="#33260D"/>
<path d="M127.478 101.82H130.18" stroke="black" stroke-width="0.348682"/>
<path d="M132.732 101.82H135.585" stroke="black" stroke-width="0.348682"/>
<path d="M138.589 101.82H141.141" stroke="black" stroke-width="0.348682"/>
<path d="M143.844 101.82H146.546" stroke="black" stroke-width="0.348682"/>
<path d="M135.586 122.872L133.784 120.443V117.204L135.586 115.18H138.289L140.391 117.204V120.443L138.289 122.872H135.586Z" fill="black"/>
<path d="M136.036 121.66L134.685 120.041V117.612L136.036 115.992H137.988L139.339 117.612V120.041L137.988 121.66H136.036Z" fill="#CCCCCC"/>
<path d="M136.486 120.853L135.285 119.639V118.019L136.486 116.805H137.688L138.588 118.019V119.639L137.688 120.853H136.486Z" fill="black"/>
<path d="M24.1738 143.523H27.1768V150.001H24.1738V143.523Z" fill="#665940" stroke="black" stroke-width="0.348682"/>
<path d="M134.685 132.594H140.991L145.045 143.525H138.588L134.685 132.594Z" fill="#33260D" stroke="black" stroke-width="0.348682"/>
</g>
<defs>
<clipPath id="clip0_2109_198474">
<rect width="150" height="150" fill="white"/>
</clipPath>
</defs>
</svg>
