<svg width="150" height="150" viewBox="0 0 150 150" fill="none" xmlns="http://www.w3.org/2000/svg">
<g clip-path="url(#clip0_2109_195224)">
<path d="M126.951 60.2102L117.587 62.3123H75.0898V0H117.587L126.951 2.1021L135.594 6.30631L142.257 11.8619L147.479 19.0691L150 26.8769V35.2853L147.479 43.0931L142.257 50.3003L135.594 56.006L126.951 60.2102Z" fill="#B2B2B2" stroke="black" stroke-width="0.328864"/>
<path d="M76.5307 10.2102C79.912 10.2102 82.6531 7.92458 82.6531 5.1051C82.6531 2.28563 79.912 0 76.5307 0C73.1493 0 70.4082 2.28563 70.4082 5.1051C70.4082 7.92458 73.1493 10.2102 76.5307 10.2102Z" fill="#CCCCCC" stroke="black" stroke-width="0.328864"/>
<path d="M86.2549 56.0078V81.233H112.545V68.6204L108.944 65.6174V56.0078H86.2549Z" fill="#B2B2B2"/>
<path d="M86.2549 77.9297H112.545V81.233H86.2549V77.9297Z" fill="#E5E5E5"/>
<path d="M86.2549 56.0078V70.1219L108.944 63.8156V56.0078H86.2549Z" fill="#A6A6A6"/>
<path d="M86.2549 74.9219H112.545V77.9249H86.2549V74.9219Z" fill="#CCCCCC"/>
<path d="M86.2549 56.0078V81.233H112.545V68.6204L108.944 65.6174V56.0078H86.2549Z" stroke="black" stroke-width="0.328864"/>
<path d="M87.335 77.9297H111.465" stroke="white" stroke-width="0.328864"/>
<path d="M87.335 74.9219H111.465" stroke="white" stroke-width="0.328864"/>
<path d="M22.6895 140.544V56.0092L30.0724 46.6999V9.3125H89.8563V68.6218H82.6534L78.6919 71.6248V112.466H112.545V128.081L104.982 140.544H22.6895Z" fill="#CCCCCC"/>
<path d="M22.6895 140.539V96.8457L78.6919 76.125V112.461H112.545V128.077L104.982 140.539H22.6895Z" fill="#C7C7C7"/>
<path d="M22.6895 140.544V101.655L78.6919 81.2344V112.466H112.545V128.081L104.982 140.544H22.6895Z" fill="#C2C2C2"/>
<path d="M22.6895 140.542V120.572L78.6919 99.8516V112.464H112.545V128.08L104.982 140.542H22.6895Z" fill="#BDBDBD"/>
<path d="M22.6895 140.544V56.0092L30.0724 46.6999V9.3125H89.8563V68.6218H82.6534L78.6919 71.6248V112.466H112.545V128.081L104.982 140.544H22.6895Z" stroke="black" stroke-width="0.328864"/>
<path d="M112.545 150L97.419 125.075H37.6351L26.1104 106.156H18.9076L0 150H112.545Z" fill="#CCCCCC" stroke="black" stroke-width="0.328864"/>
<path d="M86.2548 46.6953V65.6142H82.6533" stroke="white" stroke-width="0.328864"/>
<path d="M86.254 46.6953H77.9706V68.6172L76.1699 71.6202V112.461" stroke="#7F7F7F" stroke-width="0.328864"/>
<path d="M0 150L3.78151 146.547H14.946L18.9076 150" stroke="white" stroke-width="0.328864"/>
<path d="M93.8174 150L97.4188 146.547H108.583L112.545 150" stroke="white" stroke-width="0.328864"/>
<path d="M95.618 125.828L97.4188 128.681L95.618 130.933H92.0166" stroke="#7F7F7F" stroke-width="0.328864"/>
<path d="M24.4901 107.055L26.1108 109.757L24.4901 112.46H20.8887" stroke="#7F7F7F" stroke-width="0.328864"/>
<path d="M92.0163 130.933L89.8555 128.681L92.0163 125.828H95.6178" stroke="white" stroke-width="0.328864"/>
<path d="M20.888 112.46L18.9072 109.757L20.888 107.055H24.4895" stroke="white" stroke-width="0.328864"/>
<path d="M112.545 125.072L120.108 121.769V112.46L112.545 109.156V125.072Z" fill="#CCCCCC" stroke="black" stroke-width="0.328864"/>
<path d="M82.6533 0H104.982V12.4625H116.507V43.6937H82.6533V0Z" fill="#B2B2B2" stroke="black" stroke-width="0.328864"/>
<path d="M78.6914 49.9985V23.2717L79.7718 19.9684L81.9327 17.4159L84.4537 14.8633L88.0552 13.3618L91.6566 12.4609H95.6182L99.5798 13.0615L102.821 14.8633L105.702 17.4159L107.863 19.9684L108.583 23.2717V49.9985H78.6914Z" fill="#CCCCCC"/>
<path d="M93.8173 27.9279C95.8063 27.9279 97.4187 26.5834 97.4187 24.9249C97.4187 23.2664 95.8063 21.9219 93.8173 21.9219C91.8282 21.9219 90.2158 23.2664 90.2158 24.9249C90.2158 26.5834 91.8282 27.9279 93.8173 27.9279Z" fill="#999999"/>
<path d="M95.6182 50H104.982V56.006H95.6182V50Z" fill="#4C4C4C" stroke="black" stroke-width="0.328864"/>
<path d="M89.8555 50H93.8171V68.6186H89.8555V50Z" fill="#B2B2B2" stroke="black" stroke-width="0.328864"/>
<path d="M93.8174 50V68.6186H95.6181V59.3093H99.5797V53.003H95.6181V50H93.8174Z" fill="#CCCCCC" stroke="black" stroke-width="0.328864"/>
<path d="M78.6914 112.461H112.545V113.962H78.6914V112.461Z" fill="#999999"/>
<path d="M61.7646 71.625H74.0095V77.9313H61.7646V71.625Z" fill="#E5E5E5"/>
<path d="M24.4902 71.625H61.7651V77.9313H24.4902V71.625Z" fill="#4C4C4C"/>
<path d="M78.6914 49.9972V37.3845L108.583 26.2734V49.9972H78.6914Z" fill="#C4C4C4"/>
<path d="M78.6914 49.9985V23.2717L79.7718 19.9684L81.9327 17.4159L84.4537 14.8633L88.0552 13.3618L91.6566 12.4609H95.6182L99.5798 13.0615L102.821 14.8633L105.702 17.4159L107.863 19.9684L108.583 23.2717V49.9985H78.6914Z" stroke="black" stroke-width="0.328864"/>
<path d="M78.6914 109.156H112.545V112.46H78.6914V109.156Z" fill="#B2B2B2" stroke="black" stroke-width="0.328864"/>
<path d="M104.262 109.156H104.982V112.46H104.262V109.156Z" fill="#666666"/>
<path d="M86.2549 109.156H87.3353V112.46H86.2549V109.156Z" fill="#666666"/>
<path d="M78.6914 103.156H112.545V109.463H78.6914V103.156Z" fill="#CCCCCC" stroke="black" stroke-width="0.328864"/>
<path d="M79.7715 60.8125H84.4534V64.7164H79.7715V60.8125Z" fill="#333333"/>
<path d="M79.7715 56.0078H84.4534V59.9117H79.7715V56.0078Z" fill="#666666"/>
<path d="M79.7715 51.5H84.4534V55.4039H79.7715V51.5Z" fill="#B2B2B2"/>
<path d="M81.5723 60.8125H84.4534V63.2149H81.5723V60.8125Z" fill="#E5E5E5"/>
<path d="M97.0587 56.9102L98.4993 55.709L97.0587 54.5078L95.6182 55.709L97.0587 56.9102Z" stroke="#7F7F7F" stroke-width="0.328864"/>
<path d="M88.0551 67.7196L88.9555 67.4193L89.1355 67.119L86.2544 66.8187L83.5533 66.5184L81.0323 66.068L78.8714 65.6175L76.8907 65.1671L75.0899 64.5665L73.4693 63.9659L72.0287 63.3653L69.5077 62.0139L67.3468 60.5124L65.7262 59.0109L64.1055 57.5094L62.665 56.1581L61.0443 54.8067L59.2436 53.6055L57.2628 52.5545L54.7418 51.8037L53.3012 51.6536L51.5005 51.3533H49.6998L47.719 51.2031L45.5581 51.3533L43.0371 51.5034V51.9539V52.2542V53.0049L45.0179 52.8548L46.6385 52.7046L49.8798 52.8548L52.4009 53.3052L54.7418 54.056L56.9027 55.107L58.8834 56.3082L60.6842 57.8097L62.4849 59.3112L64.4657 60.8127L66.4465 62.3142L68.7874 63.8157L70.228 64.4163L71.6686 65.0169L73.1091 65.6175L74.9099 66.068L76.7106 66.5184L78.5113 66.9689L80.6722 67.2692L83.0131 67.5695L85.354 67.7196H88.0551Z" fill="#999999" stroke="#7F7F7F" stroke-width="0.328864"/>
<path d="M41.2363 49.1016H44.8378V57.8103H41.2363V49.1016Z" fill="#999999"/>
<path d="M48.7998 51.5H58.1636V58.4069H48.7998V51.5Z" fill="#999999"/>
<path d="M59.9639 53.9062H69.3276V60.8132H59.9639V53.9062Z" fill="#999999" stroke="#666666" stroke-width="0.328864"/>
<path d="M41.5967 49.1016H44.4778V57.51H41.5967V49.1016Z" fill="#A6A6A6"/>
<path d="M49.8799 51.5H57.0828V58.4069H49.8799V51.5Z" fill="#A6A6A6"/>
<path d="M61.0449 53.9062H68.6079V60.8132H61.0449V53.9062Z" fill="#A6A6A6"/>
<path d="M61.7646 53.9062H67.527V60.8132H61.7646V53.9062Z" fill="#B2B2B2"/>
<path d="M50.6006 51.5H56.3629V58.4069H50.6006V51.5Z" fill="#B2B2B2"/>
<path d="M41.957 49.1016H44.1179V57.51H41.957V49.1016Z" fill="#B2B2B2"/>
<path d="M62.8447 53.9062H66.4462V60.8132H62.8447V53.9062Z" fill="#BFBFBF"/>
<path d="M51.6807 51.5H55.2821V58.4069H51.6807V51.5Z" fill="#BFBFBF"/>
<path d="M42.3164 49.1016H43.757V57.51H42.3164V49.1016Z" fill="#BFBFBF"/>
<path d="M63.5654 53.9062H65.7263V60.8132H63.5654V53.9062Z" fill="#CCCCCC"/>
<path d="M52.4014 51.5H54.5622V58.4069H52.4014V51.5Z" fill="#CCCCCC"/>
<path d="M42.6768 49.1016H43.397V57.8103H42.6768V49.1016Z" fill="#CCCCCC"/>
<path d="M48.7998 51.5H58.1636V58.4069H48.7998V51.5Z" stroke="#666666" stroke-width="0.328864"/>
<path d="M41.2363 49.1016H44.8378V57.8103H41.2363V49.1016Z" stroke="#666666" stroke-width="0.328864"/>
<path d="M116.146 52.7021L137.395 34.9844L145.678 41.591L124.43 59.3087L116.146 52.7021Z" fill="#CCCCCC"/>
<path d="M93.8173 9.00601C95.8063 9.00601 97.4187 7.66152 97.4187 6.003C97.4187 4.34449 95.8063 3 93.8173 3C91.8282 3 90.2158 4.34449 90.2158 6.003C90.2158 7.66152 91.8282 9.00601 93.8173 9.00601Z" stroke="#4C4C4C" stroke-width="0.328864"/>
</g>
<defs>
<clipPath id="clip0_2109_195224">
<rect width="150" height="150" fill="white"/>
</clipPath>
</defs>
</svg>
