<svg width="150" height="150" viewBox="0 0 150 150" fill="none" xmlns="http://www.w3.org/2000/svg">
<g clip-path="url(#clip0_2109_198373)">
<path d="M50.3008 65.4141H65.6161V68.3625H50.3008V65.4141Z" fill="#CCCCCC"/>
<path d="M74.9248 65.4141H90.2401V68.3625H74.9248V65.4141Z" fill="#CCCCCC"/>
<path d="M50.3008 73.8906H65.6161V76.839H50.3008V73.8906Z" fill="#CCCCCC"/>
<path d="M74.9248 73.8906H90.2401V76.839H74.9248V73.8906Z" fill="#CCCCCC"/>
<path d="M50.3008 82.3672H65.6161V85.3156H50.3008V82.3672Z" fill="#CCCCCC"/>
<path d="M74.9248 82.3672H90.2401V85.3156H74.9248V82.3672Z" fill="#CCCCCC"/>
<path d="M50.3008 90.8516H65.6161V93.8H50.3008V90.8516Z" fill="#CCCCCC"/>
<path d="M74.9248 90.8516H90.2401V93.8H74.9248V90.8516Z" fill="#CCCCCC"/>
<path d="M65.6152 99.3255V59.8906H74.9245V99.3255H65.6152Z" fill="#CCCCCC"/>
<path d="M45.7959 99.3281H94.7448V105.225H45.7959V99.3281Z" fill="#CCCCCC"/>
<path d="M90.2402 99.3255V59.8906H94.7447V99.3255H90.2402Z" fill="#CCCCCC"/>
<path d="M45.7959 54.3594H94.7448V59.8876H45.7959V54.3594Z" fill="#CCCCCC"/>
<path d="M45.7959 59.8906H50.3004V99.3255H45.7959V59.8906Z" fill="#CCCCCC"/>
<path d="M50.3008 93.7969H65.6161V99.3251H50.3008V93.7969Z" stroke="black" stroke-width="0.33268"/>
<path d="M74.9248 93.7969H90.2401V99.3251H74.9248V93.7969Z" stroke="black" stroke-width="0.33268"/>
<path d="M50.3008 85.3203H65.6161V90.8486H50.3008V85.3203Z" stroke="black" stroke-width="0.33268"/>
<path d="M74.9248 85.3203H90.2401V90.8486H74.9248V85.3203Z" stroke="black" stroke-width="0.33268"/>
<path d="M50.3008 76.8438H65.6161V82.372H50.3008V76.8438Z" stroke="black" stroke-width="0.33268"/>
<path d="M74.9248 76.8438H90.2401V82.372H74.9248V76.8438Z" stroke="black" stroke-width="0.33268"/>
<path d="M50.3008 59.8906H65.6161V65.4189H50.3008V59.8906Z" stroke="black" stroke-width="0.33268"/>
<path d="M74.9248 59.8906H90.2401V65.4189H74.9248V59.8906Z" stroke="black" stroke-width="0.33268"/>
<path d="M45.7959 54.3594H94.7448V105.219H45.7959V54.3594Z" stroke="black" stroke-width="0.33268"/>
<path d="M50.3008 68.3672H65.6161V73.8954H50.3008V68.3672Z" stroke="black" stroke-width="0.33268"/>
<path d="M74.9248 68.3672H90.2401V73.8954H74.9248V68.3672Z" stroke="black" stroke-width="0.33268"/>
<path d="M137.688 124.016H150V149.077H137.688V124.016Z" fill="#999999" stroke="black" stroke-width="0.33268"/>
<path d="M0 34.4609H12.1622V59.8909H0V34.4609Z" fill="#999999" stroke="black" stroke-width="0.33268"/>
<path d="M3.00293 105.219H101.051V116.275H3.00293V105.219Z" fill="#999999" stroke="black" stroke-width="0.33268"/>
<path d="M15.3154 116.281H137.688V147.239H15.3154V116.281Z" fill="#4C4C4C" stroke="black" stroke-width="0.33268"/>
<path d="M58.1084 110.75H94.745V112.593H58.1084V110.75Z" fill="#333333"/>
<path d="M6.15625 30.0391H137.688V59.8916H6.15625V30.0391Z" fill="#BFBFBF"/>
<path d="M6.15625 33.9062H137.688" stroke="black" stroke-width="0.33268"/>
<path d="M6.15625 30.0391H137.688V59.8916H6.15625V30.0391Z" stroke="black" stroke-width="0.33268"/>
<path d="M101.051 44.7812H137.687V127.705H101.051V44.7812Z" fill="#CCCCCC"/>
<path d="M101.051 85.6911L137.687 63.5781V127.706H101.051V85.6911Z" fill="#C7C7C7"/>
<path d="M101.051 87.9021L137.687 65.7891V127.706H101.051V87.9021Z" fill="#C2C2C2"/>
<path d="M101.051 91.2146L137.687 69.1016V127.701H101.051V91.2146Z" fill="#BDBDBD"/>
<path d="M101.051 44.7812H137.687V127.705H101.051V44.7812Z" stroke="black" stroke-width="0.33268"/>
<path d="M3.00293 44.7812H39.7897V97.484H3.00293V44.7812Z" fill="#CCCCCC"/>
<path d="M3.00293 82.3708L39.7897 60.2578V97.4814H3.00293V82.3708Z" fill="#C7C7C7"/>
<path d="M3.00293 84.5818L39.7897 62.4688V97.481H3.00293V84.5818Z" fill="#C2C2C2"/>
<path d="M3.00293 87.9021L39.7897 65.7891V97.4844H3.00293V87.9021Z" fill="#BDBDBD"/>
<path d="M3.00293 44.7812H39.7897V97.484H3.00293V44.7812Z" stroke="black" stroke-width="0.33268"/>
<path d="M21.1709 82.3672H48.7985V127.699H21.1709V82.3672Z" fill="#FF6600" stroke="black" stroke-width="0.33268"/>
<path d="M104.054 82.3672H131.681V127.699H104.054V82.3672Z" fill="#FF6600" stroke="black" stroke-width="0.33268"/>
<path d="M110.061 105.219H140.541V108.904H110.061V105.219Z" fill="#999999"/>
<path d="M110.061 90.1094H140.541V104.851H110.061V90.1094Z" fill="#CCCCCC"/>
<path d="M110.061 90.1094H140.541V108.905H110.061V90.1094Z" stroke="black" stroke-width="0.33268"/>
<path d="M39.79 48.4609H101.051" stroke="white" stroke-width="0.33268"/>
<path d="M39.79 47.7266H101.051" stroke="black" stroke-width="0.33268"/>
<path d="M30.6309 0H110.06V30.0369H30.6309V0Z" fill="#CCCCCC"/>
<path d="M110.06 7.18464H30.6309V4.78906H110.06V7.18464Z" fill="#999999"/>
<path d="M110.06 22.3H30.6309V19.3516H110.06V22.3Z" fill="#999999"/>
<path d="M6.15625 33.9062H137.988V36.3018H6.15625V33.9062Z" fill="#999999"/>
<path d="M110.361 4.78893H30.6309V1.65625H110.361V4.78893Z" fill="#333333"/>
<path d="M31.9824 21.5625H36.7872V30.0392H31.9824V21.5625Z" fill="#4C4C4C"/>
<path d="M104.054 21.5625H108.558V30.0392H104.054V21.5625Z" fill="#4C4C4C"/>
<path d="M51.2009 124.016L45.7954 138.758L44.2939 125.674L51.2009 124.016Z" fill="#7F7F7F" stroke="black" stroke-width="0.33268"/>
<path d="M15.3154 138.755H45.7959L44.2944 125.672H38.889V127.699H35.886V125.672H25.2253V127.699H22.0722V125.672H16.6668L15.3154 138.755Z" fill="#B2B2B2" stroke="black" stroke-width="0.33268"/>
<path d="M9.91016 124.016L15.3156 138.758L16.6669 125.674L9.91016 124.016Z" fill="#CCCCCC" stroke="black" stroke-width="0.33268"/>
<path d="M31.3818 92.6875H38.8893V100.427H31.3818V92.6875Z" fill="#FFCC00"/>
<path d="M22.0723 83.4766H28.3786V87.1621H22.0723V83.4766Z" fill="#FFCC00"/>
<path d="M42.042 83.4766H48.1981V87.1621H42.042V83.4766Z" fill="#FFCC00"/>
<path d="M19.0693 59.8906H25.2255V63.5761H19.0693V59.8906Z" fill="#4C4C4C"/>
<path d="M116.366 59.8906H122.222V63.5761H116.366V59.8906Z" fill="#4C4C4C"/>
<path d="M122.223 70.2109H133.184V82.3731H122.223V70.2109Z" fill="#FFCC00"/>
<path d="M105.556 70.2109H116.066V80.5303H105.556V70.2109Z" fill="#FFCC00"/>
<path d="M25.375 70.2109H35.8855V82.3731H25.375V70.2109Z" fill="#FFCC00"/>
<path d="M8.4082 70.2109H18.7686V80.5303H8.4082V70.2109Z" fill="#FFCC00"/>
<path d="M104.654 83.4766H110.961V87.1621H104.654V83.4766Z" fill="#FFCC00"/>
<path d="M124.625 83.4766H130.781V87.1621H124.625V83.4766Z" fill="#FFCC00"/>
<path d="M112.312 103.378V91.9531H129.129" stroke="white" stroke-width="0.33268"/>
<path d="M131.682 103.378V91.9531H134.534" stroke="white" stroke-width="0.33268"/>
<path d="M131.682 103.378H134.534V91.9531" stroke="#999999" stroke-width="0.33268"/>
<path d="M112.312 103.378H129.129V91.9531" stroke="#999999" stroke-width="0.33268"/>
<path d="M66.5166 72.0547H74.0241V79.7942H66.5166V72.0547Z" fill="#FFCC00"/>
<path d="M55.1055 112.594H98.0484V150.002H55.1055V112.594Z" fill="#CCCCCC"/>
<path d="M55.1055 139.128L98.0484 123.648V150H55.1055V139.128Z" fill="#C7C7C7"/>
<path d="M55.1055 140.973L98.0484 125.125V150.002H55.1055V140.973Z" fill="#C2C2C2"/>
<path d="M55.1055 143.184L98.0484 127.336V150.002H55.1055V143.184Z" fill="#BDBDBD"/>
<path d="M55.1055 112.594H98.0484V150.002H55.1055V112.594Z" stroke="black" stroke-width="0.33268"/>
<path d="M58.1084 107.062H94.745V110.748H58.1084V107.062Z" fill="#7F7F7F"/>
<path d="M58.1084 107.805H94.745V110.016H58.1084V107.805Z" fill="#B2B2B2"/>
<path d="M58.1084 108.539H94.745V109.276H58.1084V108.539Z" fill="white"/>
<path d="M58.1084 107.062H94.745V110.748H58.1084V107.062Z" stroke="black" stroke-width="0.33268"/>
<path d="M52.1025 127.703L55.1055 133.231H98.0485L101.051 127.703L98.0485 129.546H55.1055L52.1025 127.703Z" fill="#E5E5E5" stroke="black" stroke-width="0.33268"/>
<path d="M70.4209 127.703H82.4329V129.546H70.4209V127.703Z" fill="#333333"/>
<path d="M92.042 107.063H98.048V104.114L92.042 98.5859V107.063Z" fill="#FF6600" stroke="black" stroke-width="0.33268"/>
<path d="M61.1115 107.063H55.1055V104.114L61.1115 98.5859V107.063Z" fill="#FF6600" stroke="black" stroke-width="0.33268"/>
<path d="M61.1113 94.5312H62.6128V107.062H61.1113V94.5312Z" fill="#FF6600" stroke="black" stroke-width="0.33268"/>
<path d="M90.2402 94.5312H91.7417V107.062H90.2402V94.5312Z" fill="#FF6600" stroke="black" stroke-width="0.33268"/>
<path d="M94.7451 105.961H98.0484V112.595H94.7451V105.961Z" fill="#CCCCCC" stroke="black" stroke-width="0.33268"/>
<path d="M55.1055 105.961H58.1085V112.595H55.1055V105.961Z" fill="#CCCCCC" stroke="black" stroke-width="0.33268"/>
<path d="M15.3154 138.758H45.7959V149.077H15.3154V138.758Z" fill="#999999" stroke="black" stroke-width="0.33268"/>
<path d="M137.688 124.018V110.75H139.039L143.994 124.018H137.688Z" fill="#CCCCCC" stroke="black" stroke-width="0.33268"/>
<path d="M109.459 4.78906H31.0811" stroke="#FF6600" stroke-width="0.33268"/>
<path d="M7.65723 36.3047H137.087" stroke="#FF6600" stroke-width="0.33268"/>
<path d="M30.6309 0H110.06V30.0369H30.6309V0Z" stroke="black" stroke-width="0.33268"/>
<path d="M30.6309 19.3516H110.06" stroke="black" stroke-width="0.33268"/>
</g>
<defs>
<clipPath id="clip0_2109_198373">
<rect width="150" height="150" fill="white"/>
</clipPath>
</defs>
</svg>
