<svg width="150" height="150" viewBox="0 0 150 150" fill="none" xmlns="http://www.w3.org/2000/svg">
<g clip-path="url(#clip0_2109_198915)">
<path d="M18.4688 146.695H131.382V149.999H18.4688V146.695Z" fill="black"/>
<path d="M0 146.695H150V112.461H0V146.695Z" fill="#FFCC00"/>
<path d="M0 146.694H150V140.688H0V146.694Z" fill="#CC9900"/>
<path d="M0 121.77H150V112.461H0V121.77Z" fill="#FFE57F"/>
<path d="M0 146.695H150V112.461H0V146.695Z" stroke="black" stroke-width="0.3003"/>
<path d="M4.6543 115.469H29.5792V118.772H4.6543V115.469Z" fill="#4C4C4C"/>
<path d="M56.0059 0H93.8437V112.462H56.0059V0Z" fill="#FFCC00"/>
<path d="M56.0059 62.3149L93.8437 44.2969V112.465H56.0059V62.3149Z" fill="#FAC700"/>
<path d="M56.0059 64.1118L93.8437 46.0938V112.46H56.0059V64.1118Z" fill="#F5C200"/>
<path d="M56.0059 66.8149L93.8437 48.7969V112.461H56.0059V66.8149Z" fill="#F0BD00"/>
<path d="M56.0059 0H93.8437V112.462H56.0059V0Z" stroke="black" stroke-width="0.3003"/>
<path d="M68.6191 109.156H70.1206V110.958H68.6191V109.156Z" fill="black"/>
<path d="M79.7295 109.156H81.231V110.958H79.7295V109.156Z" fill="black"/>
<path d="M106.156 112.464V106.158L107.658 99.8516L112.463 98.3501V87.5393L113.964 85.7375V77.9297H118.769V85.7375L120.27 87.5393V98.3501L125.075 99.8516L126.577 106.158V112.464H106.156Z" fill="#7F7F7F"/>
<path d="M107.357 112.464V106.158L108.859 99.8516L113.063 98.3501V87.239L114.264 85.7375V77.9297H118.469V85.7375L119.97 87.239V98.3501L123.874 99.8516L125.375 106.158V112.464H107.357Z" fill="#8F8F8F"/>
<path d="M108.559 112.464V106.158L109.76 99.8516L113.363 98.3501V87.239L114.565 85.7375V77.9297H118.168V85.7375L119.369 87.239V98.3501L122.973 99.8516L124.024 106.158V112.464H108.559Z" fill="#9E9E9E"/>
<path d="M109.76 112.464V106.158L110.661 99.8516L113.964 98.3501V87.239L114.865 85.7375V77.9297H117.868V85.7375L119.069 87.239V98.3501L122.072 99.8516L122.973 106.158V112.464H109.76Z" fill="#B0B0B0"/>
<path d="M110.961 112.464V106.158L111.862 99.8516L114.264 98.3501V87.239L115.165 85.7375V77.9297H117.568V85.7375L118.468 87.239V98.3501L121.171 99.8516L121.772 106.158V112.464H110.961Z" fill="#BFBFBF"/>
<path d="M112.162 112.464V106.158L112.763 99.8516L114.865 98.3501V87.239L115.465 85.7375V77.9297H117.267V85.7375L118.168 87.239V98.3501L119.97 99.8516L120.571 106.158V112.464H112.162Z" fill="#CFCFCF"/>
<path d="M113.363 112.464V106.158L113.664 99.8516L115.165 98.3501V87.239L115.766 85.7375V77.9297H117.267V85.7375L117.567 87.239V98.3501L119.069 99.8516L119.67 106.158V112.464H113.363Z" fill="#DEDEDE"/>
<path d="M114.564 112.464V106.158V99.8516L115.766 98.3501V87.239L116.066 85.7375V77.9297H116.967V85.7375L117.267 87.239V98.3501L118.168 99.8516L118.468 106.158V112.464H114.564Z" fill="#F0F0F0"/>
<path d="M116.367 112.464C116.864 112.464 117.268 104.733 117.268 95.197C117.268 85.6605 116.864 77.9297 116.367 77.9297C115.869 77.9297 115.466 85.6605 115.466 95.197C115.466 104.733 115.869 112.464 116.367 112.464Z" fill="white"/>
<path d="M112.463 87.5391H120.271" stroke="#7F7F7F" stroke-width="0.3003"/>
<path d="M107.657 99.8516H125.075" stroke="#7F7F7F" stroke-width="0.3003"/>
<path d="M106.156 112.464V106.158L107.658 99.8516L112.463 98.3501V87.5393L113.964 85.7375V77.9297H118.769V85.7375L120.27 87.5393V98.3501L125.075 99.8516L126.577 106.158V112.464H106.156Z" stroke="black" stroke-width="0.3003"/>
<path d="M112.463 98.3516H120.271" stroke="black" stroke-width="0.3003"/>
<path d="M113.964 85.7344H118.769" stroke="black" stroke-width="0.3003"/>
<path d="M106.156 106.156H126.577" stroke="black" stroke-width="0.3003"/>
<path d="M92.042 67.1172H107.658V79.7298H92.042V67.1172Z" fill="#333333" stroke="black" stroke-width="0.3003"/>
<path d="M93.8438 54.5078H98.3483V67.1204H93.8438V54.5078Z" fill="#B2B2B2" stroke="black" stroke-width="0.3003"/>
<path d="M88.739 67.1204H86.3366L83.9341 66.2195L82.1323 64.4177L81.2314 62.0153V59.6129L82.1323 57.2105L83.9341 55.709L86.3366 54.5078H95.3456V57.8111H93.5438L93.8441 62.0153L92.6429 64.4177L90.8411 66.2195L88.739 67.1204Z" fill="#333333" stroke="black" stroke-width="0.3003"/>
<path d="M88.4386 65.614H86.6368L85.1353 64.7131L83.6338 63.5119L83.0332 61.7101V59.9083L83.6338 58.1065L85.1353 56.9053L86.6368 56.3047H93.5437V57.8062H92.3425V61.7101L91.7419 63.5119L90.2404 64.7131L88.4386 65.614Z" fill="#999999"/>
<path d="M87.2369 62.3155L85.7354 60.814L87.2369 59.3125L89.0387 60.814L87.2369 62.3155Z" fill="#FF0000"/>
<path d="M109.459 77.928H123.273L126.576 73.4235L123.273 68.6187H109.459L107.657 67.1172V79.7298L109.459 77.928Z" fill="#CCCCCC"/>
<path d="M109.459 77.928V68.6187L107.657 67.1172V79.7298L109.459 77.928Z" fill="#999999"/>
<path d="M123.273 77.9265L126.577 73.422L123.273 68.6172V77.9265Z" fill="#B2B2B2"/>
<path d="M109.459 77.928H123.273L126.576 73.4235L123.273 68.6187H109.459L107.657 67.1172V79.7298L109.459 77.928Z" stroke="black" stroke-width="0.3003"/>
<path d="M113.964 71.9219H118.769V79.7297H113.964V71.9219Z" fill="#CC9933"/>
<path d="M114.265 71.625H118.469V79.7331H114.265V71.625Z" fill="#D1A347"/>
<path d="M114.564 71.625H118.168V79.7331H114.564V71.625Z" fill="#D6AD59"/>
<path d="M114.865 71.625H117.868V79.7331H114.865V71.625Z" fill="#DBB76D"/>
<path d="M115.165 71.625H117.567V79.7331H115.165V71.625Z" fill="#DEBD7D"/>
<path d="M115.466 71.625H117.568V79.7331H115.466V71.625Z" fill="#E3C791"/>
<path d="M115.466 71.625H117.268V79.7331H115.466V71.625Z" fill="#E8D1A6"/>
<path d="M115.766 71.625H116.967V79.7331H115.766V71.625Z" fill="#EDDBB7"/>
<path d="M116.066 71.9219H116.667V79.7297H116.066V71.9219Z" fill="#F2E5CC"/>
<path d="M113.964 71.9219H118.769V79.7297H113.964V71.9219Z" stroke="black" stroke-width="0.3003"/>
<path d="M59.3096 24.7732H92.0423V12.4609" stroke="#CC9900" stroke-width="0.3003"/>
</g>
<defs>
<clipPath id="clip0_2109_198915">
<rect width="150" height="150" fill="white"/>
</clipPath>
</defs>
</svg>
