<svg width="150" height="150" viewBox="0 0 150 150" fill="none" xmlns="http://www.w3.org/2000/svg">
<g clip-path="url(#clip0_2109_197835)">
<path d="M138.589 22.8984H141.292V63.7268H138.589V22.8984Z" fill="#B2B2B2" stroke="black" stroke-width="0.32652"/>
<path d="M25.9763 16.8626H5.70605V0.53125H25.9763V16.8626Z" fill="#7F7F7F"/>
<path d="M25.9763 15.7949H5.70605V1.59375H25.9763V15.7949Z" fill="#999999"/>
<path d="M25.9763 14.0202H5.70605V3.54688H25.9763V14.0202Z" fill="#B2B2B2"/>
<path d="M25.9763 12.6041H5.70605V5.14844H25.9763V12.6041Z" fill="#CCCCCC"/>
<path d="M25.9763 11.361H5.70605V6.39062H25.9763V11.361Z" fill="#E5E5E5"/>
<path d="M25.9763 9.76516H5.70605V7.8125H25.9763V9.76516Z" fill="white"/>
<path d="M25.9763 16.8626H5.70605V0.53125H25.9763V16.8626Z" stroke="black" stroke-width="0.32652"/>
<path d="M11.2617 0.53125V16.8626" stroke="black" stroke-width="0.32652"/>
<path d="M25.9764 9.05196H14.2646V0.53125H25.9764V9.05196Z" fill="#333333"/>
<path d="M25.976 20.4175H8.55859V16.8672H25.976V20.4175Z" fill="#333333"/>
<path d="M127.478 67.9844H132.583V143.251H127.478V67.9844Z" fill="#4C4C4C" stroke="black" stroke-width="0.32652"/>
<path d="M5.70605 67.9844H10.9613V143.251H5.70605V67.9844Z" fill="#4C4C4C" stroke="black" stroke-width="0.32652"/>
<path d="M0 20.4141H138.589V67.988H0V20.4141Z" fill="#B2B2B2"/>
<path d="M0 54.1395L138.589 34.2578V67.9856H0V54.1395Z" fill="#ADADAD"/>
<path d="M0 56.2723L138.589 36.3906V67.9883H0V56.2723Z" fill="#A8A8A8"/>
<path d="M0 59.116L138.589 39.2344V67.9918H0V59.116Z" fill="#A3A3A3"/>
<path d="M0 20.4141H138.589V67.988H0V20.4141Z" stroke="black" stroke-width="0.32652"/>
<path d="M132.583 67.9844H138.589V149.996H132.583V67.9844Z" fill="#999999" stroke="black" stroke-width="0.32652"/>
<path d="M0 67.9844H5.70571V149.996H0V67.9844Z" fill="#999999" stroke="black" stroke-width="0.32652"/>
<path d="M28.6787 54.5H31.6817V67.9911H28.6787V54.5Z" fill="#4C4C4C"/>
<path d="M106.757 54.5H109.46V67.9911H106.757V54.5Z" fill="#4C4C4C"/>
<path d="M138.588 20.4142L135.585 0H121.171L118.168 16.8639H43.0928L40.3901 0H25.9757L22.9727 20.4142H138.588Z" fill="#CCCCCC"/>
<path d="M137.988 16.1538L135.585 0H121.171L118.168 16.8639L137.988 16.1538Z" fill="#E5E5E5"/>
<path d="M43.0928 16.8639L40.3901 0H25.9756L23.5732 16.1538L43.0928 16.8639Z" fill="#E5E5E5"/>
<path d="M138.588 20.4142L135.585 0H121.171L118.168 16.8639H43.0928L40.3901 0H25.9757L22.9727 20.4142H138.588Z" stroke="black" stroke-width="0.32652"/>
<path d="M126.877 105.625V112.371H11.2617V105.625H126.877Z" fill="#4C4C4C" stroke="black" stroke-width="0.32652"/>
<path d="M132.583 109.172V115.917H5.70605V109.172H132.583Z" fill="#7F7F7F" stroke="black" stroke-width="0.32652"/>
<path d="M141.291 35.6797H150V60.5318H141.291V35.6797Z" fill="#666666" stroke="black" stroke-width="0.32652"/>
</g>
<defs>
<clipPath id="clip0_2109_197835">
<rect width="150" height="150" fill="white"/>
</clipPath>
</defs>
</svg>
