<svg width="150" height="150" viewBox="0 0 150 150" fill="none" xmlns="http://www.w3.org/2000/svg">
<g clip-path="url(#clip0_2109_199047)">
<path d="M34.0986 28.0781H115.902V128.078H34.0986V28.0781Z" fill="#4C3F26"/>
<path d="M6.55762 128.078H143.115V146.697H6.55762V128.078Z" fill="#F2E5CC"/>
<path d="M6.55762 141.292L143.115 133.484V146.698H6.55762V141.292Z" fill="#EDE0C7"/>
<path d="M6.55762 142.042L143.115 134.234V146.697H6.55762V142.042Z" fill="#E8DBC2"/>
<path d="M6.55762 143.245L143.115 135.438V146.699H6.55762V143.245Z" fill="#E3D6BD"/>
<path d="M6.55762 128.078H143.115V146.697H6.55762V128.078Z" stroke="black" stroke-width="0.313782"/>
<path d="M6.55762 129.578H143.115" stroke="black" stroke-width="0.313782"/>
<path d="M78.1973 99.8516H81.8038V128.08H78.1973V99.8516Z" fill="#F2E5CC" stroke="black" stroke-width="0.313782"/>
<path d="M68.0332 99.8516H71.3119V128.08H68.0332V99.8516Z" fill="#F2E5CC" stroke="black" stroke-width="0.313782"/>
<path d="M9.99963 99.8516H3.27832V106.158H9.99963V99.8516Z" fill="#333333"/>
<path d="M34.0986 28.0781H115.902V34.0841H34.0986V28.0781Z" fill="#BFB299" stroke="black" stroke-width="0.313782"/>
<path d="M91.9668 112.461H115.901V121.77H91.9668V112.461Z" fill="#665940" stroke="black" stroke-width="0.313782"/>
<path d="M81.8037 106.156H98.8529V115.466H81.8037V106.156Z" fill="#998C73" stroke="black" stroke-width="0.313782"/>
<path d="M34.0986 103.156H61.1478V121.775H34.0986V103.156Z" fill="#665940" stroke="black" stroke-width="0.313782"/>
<path d="M44.0986 106.156H57.8691V121.772H44.0986V106.156Z" fill="#998C73" stroke="black" stroke-width="0.313782"/>
<path d="M34.0986 121.773H115.902V128.08H34.0986V121.773Z" fill="#BFB299" stroke="black" stroke-width="0.313782"/>
<path d="M115.901 99.8516H129.344V128.08H115.901V99.8516Z" fill="#D9CCB3" stroke="black" stroke-width="0.313782"/>
<path d="M20.1641 99.8516H34.0985V128.08H20.1641V99.8516Z" fill="#D9CCB3" stroke="black" stroke-width="0.313782"/>
<path d="M68.0332 99.8516H81.8037V128.08H68.0332V99.8516Z" stroke="black" stroke-width="0.313782"/>
<path d="M34.0986 12.4608L37.2134 6.30469H112.295L115.902 12.4608V28.0765H34.0986V12.4608Z" fill="#F2E5CC" stroke="black" stroke-width="0.313782"/>
<path d="M129.344 99.8483L139.508 90.539H129.344V12.4609H115.901V99.8483H129.344Z" fill="#F2E5CC" stroke="black" stroke-width="0.313782"/>
<path d="M20.1639 99.8483L10 90.539H20.1639V12.4609H34.0984V99.8483H20.1639Z" fill="#F2E5CC" stroke="black" stroke-width="0.313782"/>
<path d="M143.115 128.078L129.345 106.156V128.078H143.115Z" fill="#F2E5CC" stroke="black" stroke-width="0.313782"/>
<path d="M6.55762 128.078L20.1642 106.156V128.078H6.55762Z" fill="#F2E5CC" stroke="black" stroke-width="0.313782"/>
<path d="M119.181 146.695H150V149.999H119.181V146.695Z" fill="#F2E5CC" stroke="black" stroke-width="0.313782"/>
<path d="M0 146.695H30.3279V149.999H0V146.695Z" fill="#F2E5CC" stroke="black" stroke-width="0.313782"/>
<path d="M76.5576 134.234H79.8363V146.697H76.5576V134.234Z" fill="#BFB299" stroke="black" stroke-width="0.313782"/>
<path d="M69.6719 134.234H73.2784V146.697H69.6719V134.234Z" fill="#BFB299" stroke="black" stroke-width="0.313782"/>
<path d="M83.4427 131.078H66.3936V134.231H83.4427V131.078Z" fill="#F2E5CC" stroke="black" stroke-width="0.313782"/>
<path d="M27.0488 112.461H30.3275V128.077H27.0488V112.461Z" fill="#BFB299" stroke="black" stroke-width="0.313782"/>
<path d="M20.1641 112.461H23.9346V128.077H20.1641V112.461Z" fill="#BFB299" stroke="black" stroke-width="0.313782"/>
<path d="M126.065 112.461H129.344V128.077H126.065V112.461Z" fill="#BFB299" stroke="black" stroke-width="0.313782"/>
<path d="M119.181 112.461H122.787V128.077H119.181V112.461Z" fill="#BFB299" stroke="black" stroke-width="0.313782"/>
<path d="M132.951 109.156H115.901V112.46H132.951V109.156Z" fill="#F2E5CC" stroke="black" stroke-width="0.313782"/>
<path d="M17.0488 109.156H34.098V112.46H17.0488V109.156Z" fill="#F2E5CC" stroke="black" stroke-width="0.313782"/>
<path d="M83.4427 131.084H66.3936V125.078H83.4427V131.084Z" fill="#333333" stroke="black" stroke-width="0.313782"/>
<path d="M67.3769 128.677L65.7375 126.275L64.7539 123.272V120.269L65.7375 117.566L67.3769 115.164L69.9998 113.362L73.2785 112.461H76.5572L79.508 113.362L82.131 115.164L84.0982 117.566L85.0818 120.269V123.272L84.0982 126.275L82.131 128.677L79.508 130.179L76.5572 131.08H73.2785L69.9998 130.179L67.3769 128.677Z" fill="#333333" stroke="black" stroke-width="0.313782"/>
<path d="M74.7545 128.078C78.4666 128.078 81.4758 125.322 81.4758 121.922C81.4758 118.522 78.4666 115.766 74.7545 115.766C71.0424 115.766 68.0332 118.522 68.0332 121.922C68.0332 125.322 71.0424 128.078 74.7545 128.078Z" fill="#666666"/>
<path d="M74.9177 123.276C75.823 123.276 76.557 122.604 76.557 121.775C76.557 120.946 75.823 120.273 74.9177 120.273C74.0123 120.273 73.2783 120.946 73.2783 121.775C73.2783 122.604 74.0123 123.276 74.9177 123.276Z" fill="black"/>
<path d="M30.3279 95.3438H10V109.158H30.3279V95.3438Z" fill="#333333"/>
<path d="M30.3279 96.5469H10V107.958H30.3279V96.5469Z" fill="#4C4C4C"/>
<path d="M30.3279 98.3516H10V106.159H30.3279V98.3516Z" fill="#666666"/>
<path d="M30.3279 100.453H10V104.057H30.3279V100.453Z" fill="#7F7F7F"/>
<path d="M30.3279 95.3438H10V109.158H30.3279V95.3438Z" stroke="black" stroke-width="0.313782"/>
<path d="M9.99963 100.75H3.27832V105.555H9.99963V100.75Z" fill="#666666"/>
<path d="M9.99963 102.25H3.27832V103.752H9.99963V102.25Z" fill="#7F7F7F"/>
<path d="M9.99963 99.8516H3.27832V106.158H9.99963V99.8516Z" stroke="black" stroke-width="0.313782"/>
<path d="M139.836 104.658H146.721V98.3516H139.836V104.658Z" fill="#333333"/>
<path d="M119.181 109.161H139.836V95.0469H119.181V109.161Z" fill="#333333"/>
<path d="M119.181 107.958H139.836V96.5469H119.181V107.958Z" fill="#4C4C4C"/>
<path d="M119.181 106.159H139.836V98.3516H119.181V106.159Z" fill="#666666"/>
<path d="M119.181 104.057H139.836V100.453H119.181V104.057Z" fill="#7F7F7F"/>
<path d="M119.181 109.161H139.836V95.0469H119.181V109.161Z" stroke="black" stroke-width="0.313782"/>
<path d="M139.836 103.75H146.721V98.9453H139.836V103.75Z" fill="#666666"/>
<path d="M139.836 102.252H146.721V100.75H139.836V102.252Z" fill="#7F7F7F"/>
<path d="M139.836 104.658H146.721V98.3516H139.836V104.658Z" stroke="black" stroke-width="0.313782"/>
<path d="M34.0986 71.625H115.902V99.8532H34.0986V71.625Z" fill="#F2E5CC"/>
<path d="M34.0986 91.743L115.902 80.0312V99.8511H34.0986V91.743Z" fill="#EDE0C7"/>
<path d="M34.0986 92.9461L115.902 81.2344V99.853H34.0986V92.9461Z" fill="#E8DBC2"/>
<path d="M34.0986 94.743L115.902 83.0312V99.8481H34.0986V94.743Z" fill="#E3D6BD"/>
<path d="M34.0986 71.625H115.902V99.8532H34.0986V71.625Z" stroke="black" stroke-width="0.313782"/>
<path d="M47.377 68.6172H102.131V81.2298H47.377V68.6172Z" fill="#F2E5CC" stroke="black" stroke-width="0.313782"/>
<path d="M30.328 12.4625V0H23.9346V12.4625H30.328Z" fill="#333333"/>
<path d="M29.6718 12.4625V0H24.5898V12.4625H29.6718Z" fill="#4C4C4C"/>
<path d="M29.0166 12.4625V0H25.2461V12.4625H29.0166Z" fill="#666666"/>
<path d="M28.0326 12.4625V0H26.0654V12.4625H28.0326Z" fill="#7F7F7F"/>
<path d="M30.328 12.4625V0H23.9346V12.4625H30.328Z" stroke="black" stroke-width="0.313782"/>
<path d="M126.066 12.4625V0H119.181V12.4625H126.066Z" fill="#333333"/>
<path d="M125.41 12.4625V0H120.164V12.4625H125.41Z" fill="#4C4C4C"/>
<path d="M124.754 12.4625V0H120.819V12.4625H124.754Z" fill="#666666"/>
<path d="M123.443 12.4625V0H121.804V12.4625H123.443Z" fill="#7F7F7F"/>
<path d="M126.066 12.4625V0H119.181V12.4625H126.066Z" stroke="black" stroke-width="0.313782"/>
<path d="M64.7539 9.15625H85.0818V24.7719H64.7539V9.15625Z" fill="#E5E5E5" stroke="black" stroke-width="0.313782"/>
<path d="M66.3936 10.6641H83.4427V15.619H66.3936V10.6641Z" fill="#666666"/>
<path d="M66.3936 18.4688H83.4427V23.2736H66.3936V18.4688Z" fill="#999999"/>
<path d="M45.7373 58.1094L50.6553 66.8181H55.5734L60.4914 58.1094H55.5734L52.9504 62.3136L50.6553 58.1094H45.7373Z" fill="#665940"/>
<path d="M60.4922 58.1094L65.0824 66.8181H70.0004L74.9184 58.1094H70.0004L67.7053 62.3136L65.0824 58.1094H60.4922Z" fill="#665940"/>
<path d="M74.918 58.1094L79.836 66.8181H84.4262L89.3442 58.1094H84.4262L82.1311 62.3136L79.836 58.1094H74.918Z" fill="#665940"/>
<path d="M89.3438 58.1094L94.2618 66.8181H99.1798L103.77 58.1094H99.1798L96.5569 62.3136L94.2618 58.1094H89.3438Z" fill="#665940"/>
<path d="M35.5742 45.1953H38.8529V128.078H35.5742V45.1953Z" fill="#998C73"/>
<path d="M36.8848 45.1953H37.8684V128.078H36.8848V45.1953Z" fill="#F2E5CC"/>
<path d="M34.0986 43.6953H115.902V46.6983H34.0986V43.6953Z" fill="#F2E5CC" stroke="black" stroke-width="0.313782"/>
</g>
<defs>
<clipPath id="clip0_2109_199047">
<rect width="150" height="150" fill="white"/>
</clipPath>
</defs>
</svg>
