<svg width="150" height="150" viewBox="0 0 150 150" fill="none" xmlns="http://www.w3.org/2000/svg">
<g clip-path="url(#clip0_2109_197485)">
<path d="M2.85285 113.057L0 109.965V99.9989L2.85285 96.5625H20.2703V113.057H2.85285Z" fill="#336666"/>
<path d="M32.1326 128.347L8.85938 118.209V113.055H32.1326V128.347Z" fill="#194C4C" stroke="black" stroke-width="0.321241"/>
<path d="M20.2705 111.683V98.2812H32.1324V111.683H20.2705Z" fill="#669999"/>
<path d="M20.2705 98.2792V91.75H32.1324V98.2792H20.2705Z" fill="#99CCCC"/>
<path d="M20.2705 94.8432V93.125H32.1324V94.8432H20.2705Z" fill="#B2E5E5"/>
<path d="M20.2705 111.681V91.75H32.1324V111.681H20.2705Z" stroke="black" stroke-width="0.321241"/>
<path d="M2.85309 112.027L0.150391 108.934V100.687L2.85309 97.9375H20.2705V112.027H2.85309Z" fill="#457878"/>
<path d="M2.85309 110.653L0.150391 108.247V101.374L2.85309 98.9688H20.2705V110.653H2.85309Z" fill="#548787"/>
<path d="M2.85309 109.278L0.150391 107.56V102.062L2.85309 100.344H20.2705V109.278H2.85309Z" fill="#669999"/>
<path d="M2.85309 108.248L0.150391 106.873V102.75L2.85309 101.375H20.2705V108.248H2.85309Z" fill="#78ABAB"/>
<path d="M2.85309 106.874L0.150391 106.186V103.437L2.85309 102.75H20.2705V106.874H2.85309Z" fill="#87BABA"/>
<path d="M2.85285 105.5H0V104.469L2.85285 104.125H20.2703V105.5H2.85285Z" fill="#99CCCC"/>
<path d="M2.85285 113.057L0 109.965V99.9989L2.85285 96.5625H20.2703V113.057H2.85285Z" stroke="black" stroke-width="0.321241"/>
<path d="M5.85547 101.719H20.2699" stroke="black" stroke-width="0.321241"/>
<path d="M5.85547 113.057V96.5625" stroke="black" stroke-width="0.321241"/>
<path d="M32.1326 118.213V98.2812L26.2768 108.247L8.85938 118.213H32.1326Z" fill="#669999" stroke="black" stroke-width="0.321241"/>
<path d="M133.934 71.4766L132.433 146.391H144.144L143.544 71.4766H133.934Z" fill="#003333"/>
<path d="M33.0327 71.4766L32.1318 146.391H43.8435L42.342 71.4766H33.0327Z" fill="#003333"/>
<path d="M29.1289 146.391H46.5463V147.422H29.1289V146.391Z" fill="#003333"/>
<path d="M129.729 146.391H147.147V147.422H129.729V146.391Z" fill="#003333"/>
<path d="M33.4832 33.3349V41.5823H31.5312V58.4208H33.4832V66.6682H35.7355V58.4208H42.9427V94.1596H48.9487V58.4208H51.0508V92.4414H56.1559V94.8469H127.327L133.333 91.7541V58.4208H140.54V66.6682H142.642V58.4208H145.195V41.5823H142.642V33.3349H140.54V41.5823H133.333V8.24898L127.327 4.98438H56.1559V7.56169H51.0508V41.5823H48.9487V6.53077H42.9427V41.5823H35.7355V33.3349H33.4832Z" fill="#669999"/>
<path d="M133.934 71.4766L134.985 148.281H146.246L143.543 71.4766H133.934Z" fill="#99CCCC"/>
<path d="M33.033 71.4766L29.8799 148.281H41.7417L42.3423 71.4766H33.033Z" fill="#99CCCC"/>
<path d="M33.4832 34.3666V41.9268H31.5312V57.7343H33.4832V65.6381H35.7355V57.7343H42.9427V91.4113H48.9487V57.7343H51.0508V90.0367H56.1559V92.0986H127.777L133.333 89.0058V57.7343H140.54V65.6381H142.642V57.7343H145.195V41.9268H142.642V34.3666H140.54V41.9268H133.333V10.6553L127.777 7.5625H56.1559V9.968H51.0508V41.9268H48.9487V9.10889H42.9427V41.9268H35.7355V34.3666H33.4832Z" fill="#6B9E9E"/>
<path d="M33.4832 35.0548V42.6149H31.5312V57.3915H33.4832V64.608H35.7355V57.3915H42.9427V89.0067H48.9487V57.3915H51.0508V87.6321H56.1559V89.6939H127.777L133.333 86.6012V57.3915H140.54V64.608H142.642V57.3915H145.195V42.6149H142.642V35.0548H140.54V42.6149H133.333V12.8898L127.777 10.3125H56.1559V12.3744H51.0508V42.6149H48.9487V11.6871H42.9427V42.6149H35.7355V35.0548H33.4832Z" fill="#73A6A6"/>
<path d="M33.4832 36.0786V42.9515H31.5312V56.6972H33.4832V63.57H35.7355V56.6972H42.9427V86.2505H48.9487V56.6972H51.0508V84.8759H56.1559V86.9377H127.777L133.333 84.1886V56.6972H140.54V63.57H142.642V56.6972H145.195V42.9515H142.642V36.0786H140.54V42.9515H133.333V15.4601L127.777 12.7109H56.1559V14.7728H51.0508V42.9515H48.9487V14.0855H42.9427V42.9515H35.7355V36.0786H33.4832Z" fill="#78ABAB"/>
<path d="M33.4832 37.1104V43.6396H31.5312V56.3544H33.4832V62.54H35.7355V56.3544H42.9427V83.8458H48.9487V56.3544H51.0508V82.4713H56.1559V84.5331H127.777L133.333 81.784V56.3544H140.54V62.54H142.642V56.3544H145.195V43.6396H142.642V37.1104H140.54V43.6396H133.333V17.8664L127.777 15.4609H56.1559V17.0073H51.0508V43.6396H48.9487V16.4919H42.9427V43.6396H35.7355V37.1104H33.4832Z" fill="#7FB2B2"/>
<path d="M33.4832 38.1421V43.984H31.5312V55.6679H33.4832V61.8534H35.7355V55.6679H42.9427V81.0974H48.9487V55.6679H51.0508V80.0665H56.1559V81.7847H127.777L133.333 79.3792V55.6679H140.54V61.8534H142.642V55.6679H145.195V43.984H142.642V38.1421H140.54V43.984H133.333V20.2727L127.777 17.8672H56.1559V19.5854H51.0508V43.984H48.9487V19.2418H42.9427V43.984H35.7355V38.1421H33.4832Z" fill="#85B8B8"/>
<path d="M33.4832 38.8302V44.3285H31.5312V55.3251H33.4832V60.8234H35.7355V55.3251H42.9427V78.6928H48.9487V55.3251H51.0508V77.6619H56.1559V79.3801H127.777L133.333 76.9746V55.3251H140.54V60.8234H142.642V55.3251H145.195V44.3285H142.642V38.8302H140.54V44.3285H133.333V22.679L127.777 20.6172H56.1559V22.3354H51.0508V44.3285H48.9487V21.4763H42.9427V44.3285H35.7355V38.8302H33.4832Z" fill="#8CBFBF"/>
<path d="M33.4832 39.8619V45.0166H31.5312V54.9822H33.4832V59.7932H35.7355V54.9822H42.9427V76.288H48.9487V54.9822H51.0508V75.2571H56.1559V76.6317H127.777L133.333 74.5698V54.9822H140.54V59.7932H142.642V54.9822H145.195V45.0166H142.642V39.8619H140.54V45.0166H133.333V25.0853L127.777 23.0234H56.1559V24.7417H51.0508V45.0166H48.9487V24.0544H42.9427V45.0166H35.7355V39.8619H33.4832Z" fill="#91C4C4"/>
<path d="M33.4832 40.8937V45.3611H31.5312V54.2958H33.4832V58.7631H35.7355V54.2958H42.9427V73.5398H48.9487V54.2958H51.0508V72.8525H56.1559V74.227H127.777L133.333 72.1652V54.2958H140.54V58.7631H142.642V54.2958H145.195V45.3611H142.642V40.8937H140.54V45.3611H133.333V27.4917L127.777 25.7734H56.1559V27.148H51.0508V45.3611H48.9487V26.8044H42.9427V45.3611H35.7355V40.8937H33.4832Z" fill="#99CCCC"/>
<path d="M33.4832 41.9254V45.7055H31.5312V53.9529H33.4832V57.733H35.7355V53.9529H42.9427V71.135H48.9487V53.9529H51.0508V70.4477H56.1559V71.4787H127.777L133.333 69.7604V53.9529H140.54V57.733H142.642V53.9529H145.195V45.7055H142.642V41.9254H140.54V45.7055H133.333V29.8979L127.777 28.1797H56.1559V29.5543H51.0508V45.7055H48.9487V29.2106H42.9427V45.7055H35.7355V41.9254H33.4832Z" fill="#9ED1D1"/>
<path d="M33.4832 42.9572V46.3936H31.5312V53.2665H33.4832V57.0465H35.7355V53.2665H42.9427V68.3867H48.9487V53.2665H51.0508V67.6994H56.1559V68.7304H127.777L133.333 67.3558V53.2665H140.54V57.0465H142.642V53.2665H145.195V46.3936H142.642V42.9572H140.54V46.3936H133.333V32.3043L127.777 30.9297H56.1559V31.9606H51.0508V46.3936H48.9487V31.617H42.9427V46.3936H35.7355V42.9572H33.4832Z" fill="#A6D9D9"/>
<path d="M33.4832 43.989V46.7381H31.5312V52.9237H33.4832V56.0165H35.7355V52.9237H42.9427V65.9821H48.9487V52.9237H51.0508V65.2948H56.1559V66.3257H127.777L133.333 64.9512V52.9237H140.54V56.0165H142.642V52.9237H145.195V46.7381H142.642V43.989H140.54V46.7381H133.333V34.7106L127.777 33.6797H56.1559V34.367H51.0508V46.7381H48.9487V34.0233H42.9427V46.7381H35.7355V43.989H33.4832Z" fill="#ABDEDE"/>
<path d="M33.4832 44.677V47.4261H31.5312V52.5808H33.4832V54.9863H35.7355V52.5808H42.9427V63.5773H48.9487V52.5808H51.0508V62.8901H56.1559V63.5773H127.777L133.333 62.5464V52.5808H140.54V54.9863H142.642V52.5808H145.195V47.4261H142.642V44.677H140.54V47.4261H133.333V37.1169L127.777 36.0859H56.1559V36.7732H51.0508V47.4261H48.9487V36.7732H42.9427V47.4261H35.7355V44.677H33.4832Z" fill="#B2E5E5"/>
<path d="M33.4832 45.701V47.7628H31.5312V51.8865H33.4832V53.9484H35.7355V51.8865H42.9427V60.8213H48.9487V51.8865H51.0508V60.4776H56.1559V61.1649H127.777L133.333 60.134V51.8865H140.54V53.9484H142.642V51.8865H145.195V47.7628H142.642V45.701H140.54V47.7628H133.333V39.5154L127.777 38.8281H56.1559V39.5154H51.0508V47.7628H48.9487V39.1718H42.9427V47.7628H35.7355V45.701H33.4832Z" fill="#B8EBEB"/>
<path d="M33.4832 46.7327V48.1072H31.5312V51.5437H33.4832V52.9182H35.7355V51.5437H42.9427V58.4165H48.9487V51.5437H51.0508V58.0729H56.1559V58.4165H127.777L133.333 57.7292V51.5437H140.54V52.9182H142.642V51.5437H145.195V48.1072H142.642V46.7327H140.54V48.1072H133.333V41.9217L127.777 41.2344H56.1559V41.9217H51.0508V48.1072H48.9487V41.578H42.9427V48.1072H35.7355V46.7327H33.4832Z" fill="#BFF2F2"/>
<path d="M88.288 55.6682C119.634 55.6682 145.045 53.0527 145.045 49.8263C145.045 46.5999 119.634 43.9844 88.288 43.9844C56.9421 43.9844 31.5312 46.5999 31.5312 49.8263C31.5312 53.0527 56.9421 55.6682 88.288 55.6682Z" fill="#C4F7F7"/>
<path d="M88.288 53.2636C119.634 53.2636 145.045 51.802 145.045 49.999C145.045 48.196 119.634 46.7344 88.288 46.7344C56.9421 46.7344 31.5312 48.196 31.5312 49.999C31.5312 51.802 56.9421 53.2636 88.288 53.2636Z" fill="#CCFFFF"/>
<path d="M133.333 41.5781V58.4166" stroke="black" stroke-width="0.321241"/>
<path d="M142.643 58.4166V41.5781" stroke="black" stroke-width="0.321241"/>
<path d="M33.4834 41.5781V58.4166" stroke="black" stroke-width="0.321241"/>
<path d="M42.9434 41.5781V58.4166" stroke="black" stroke-width="0.321241"/>
<path d="M48.9492 41.5781V58.4166" stroke="black" stroke-width="0.321241"/>
<path d="M51.0508 41.5781V58.4166" stroke="black" stroke-width="0.321241"/>
<path d="M134.234 113.745L134.985 148.281H146.246L144.445 96.2188L134.234 113.745Z" fill="#91C4C4"/>
<path d="M31.2312 113.745L29.8799 148.281H41.7417L42.042 96.2188L31.2312 113.745Z" fill="#91C4C4"/>
<path d="M33.033 71.4766L29.8799 148.281H41.7417L42.3423 71.4766H33.033Z" stroke="black" stroke-width="0.321241"/>
<path d="M133.934 71.4766L134.985 148.281H146.246L143.543 71.4766H133.934Z" stroke="black" stroke-width="0.321241"/>
<path d="M127.327 94.8469V4.98438" stroke="#336666" stroke-width="0.321241"/>
<path d="M56.1562 92.4422V7.5625" stroke="#336666" stroke-width="0.321241"/>
<path d="M33.0332 124.912L34.0843 94.8438H40.2404" stroke="#CCFFFF" stroke-width="0.321241"/>
<path d="M40.2404 94.8438L39.3395 124.912H33.0332" stroke="#336666" stroke-width="0.321241"/>
<path d="M49.55 46.7344H42.9434V48.1089H49.55V46.7344Z" fill="#669999" stroke="black" stroke-width="0.321241"/>
<path d="M49.55 51.5469H42.9434V53.2651H49.55V51.5469Z" fill="#669999" stroke="black" stroke-width="0.321241"/>
<path d="M49.55 66.6641H42.9434V68.0386H49.55V66.6641Z" fill="#407373" stroke="black" stroke-width="0.321241"/>
<path d="M49.55 31.9609H42.9434V33.6792H49.55V31.9609Z" fill="#407373" stroke="black" stroke-width="0.321241"/>
<path d="M49.55 81.4453H42.9434V83.1635H49.55V81.4453Z" fill="#194C4C" stroke="black" stroke-width="0.321241"/>
<path d="M49.55 17.0078H42.9434V18.8978H49.55V17.0078Z" fill="#194C4C" stroke="black" stroke-width="0.321241"/>
<path d="M49.55 91.75H42.9434V93.1246H49.55V91.75Z" fill="#003333" stroke="black" stroke-width="0.321241"/>
<path d="M49.55 7.5625H42.9434V9.10889H49.55V7.5625Z" fill="#003333" stroke="black" stroke-width="0.321241"/>
<path d="M49.55 36.7734H42.9434V38.4917H49.55V36.7734Z" fill="#4C7F7F" stroke="black" stroke-width="0.321241"/>
<path d="M49.55 61.5156H42.9434V63.2338H49.55V61.5156Z" fill="#4C7F7F" stroke="black" stroke-width="0.321241"/>
<path d="M49.55 27.1484H42.9434V28.523H49.55V27.1484Z" fill="#336666" stroke="black" stroke-width="0.321241"/>
<path d="M49.55 71.4766H42.9434V73.1948H49.55V71.4766Z" fill="#336666" stroke="black" stroke-width="0.321241"/>
<path d="M49.55 21.9922H42.9434V23.7104H49.55V21.9922Z" fill="#265959" stroke="black" stroke-width="0.321241"/>
<path d="M49.55 76.6328H42.9434V78.351H49.55V76.6328Z" fill="#265959" stroke="black" stroke-width="0.321241"/>
<path d="M49.55 12.375H42.9434V14.0932H49.55V12.375Z" fill="#0D4040" stroke="black" stroke-width="0.321241"/>
<path d="M49.55 86.6016H42.9434V88.3198H49.55V86.6016Z" fill="#0D4040" stroke="black" stroke-width="0.321241"/>
<path d="M26.2764 148.281H45.3454V149.999H26.2764V148.281Z" fill="#669999" stroke="black" stroke-width="0.321241"/>
<path d="M131.381 148.281H149.999V149.999H131.381V148.281Z" fill="#669999" stroke="black" stroke-width="0.321241"/>
<path d="M102.703 4.98438V11.6854H79.5801V4.98438H102.703Z" fill="#598C8C"/>
<path d="M33.4832 33.3349V41.5823H31.5312V58.4208H33.4832V66.6682H35.7355V58.4208H42.9427V94.1596H48.9487V58.4208H51.0508V92.4414H56.1559V94.8469H127.327L133.333 91.7541V58.4208H140.54V66.6682H142.642V58.4208H145.195V41.5823H142.642V33.3349H140.54V41.5823H133.333V8.24898L127.327 4.98438H56.1559V7.56169H51.0508V41.5823H48.9487V6.53077H42.9427V41.5823H35.7355V33.3349H33.4832Z" stroke="black" stroke-width="0.321241"/>
<path d="M136.937 31.6172H140.54V68.3869H143.543V71.8234L133.934 71.4797V68.3869H136.937V31.6172Z" fill="#669999" stroke="black" stroke-width="0.321241"/>
<path d="M35.7354 31.6172H39.339V68.3869H42.342V71.4797H32.7324L33.0327 68.3869H35.7354V31.6172Z" fill="#669999" stroke="black" stroke-width="0.321241"/>
<path d="M49.55 56.7031H42.9434V58.0777H49.55V56.7031Z" fill="#598C8C" stroke="black" stroke-width="0.321241"/>
<path d="M49.55 41.5781H42.9434V43.2963H49.55V41.5781Z" fill="#598C8C" stroke="black" stroke-width="0.321241"/>
<path d="M78.0781 2.40625H79.5796V4.98357H78.0781V2.40625Z" fill="#99CCCC" stroke="black" stroke-width="0.321241"/>
<path d="M102.703 2.40625H104.205V4.98357H102.703V2.40625Z" fill="#99CCCC" stroke="black" stroke-width="0.321241"/>
<path d="M79.5791 2.4055L90.9905 0L102.702 2.4055V4.98282H79.5791V2.4055Z" fill="#99CCCC" stroke="black" stroke-width="0.321241"/>
<path d="M80.1807 3.43659L90.9915 0.515625L102.103 3.43659V4.12387H80.1807V3.43659Z" fill="#669999"/>
</g>
<defs>
<clipPath id="clip0_2109_197485">
<rect width="150" height="150" fill="white"/>
</clipPath>
</defs>
</svg>
