<svg width="150" height="150" viewBox="0 0 150 150" fill="none" xmlns="http://www.w3.org/2000/svg">
<g clip-path="url(#clip0_2109_195955)">
<path d="M144.82 148.495H4.94531L30.1415 98.9453H119.859L144.82 148.495Z" fill="#B2B2B2" stroke="black" stroke-width="0.37607"/>
<path d="M115.149 14.2674L113.736 11.1142L110.91 8.11121L107.143 5.55865L102.433 4.05715L97.7236 3.15625H75.1176L70.879 8.11121L67.1113 5.55865L62.4017 4.05715L57.6922 3.15625H52.0407L47.3311 4.05715L42.6215 5.55865L38.8539 8.11121L36.0281 11.1142L34.6152 14.2674V150.003H115.149V14.2674Z" fill="#CCCCCC" stroke="black" stroke-width="0.37607"/>
<path d="M75.1182 12.7656H108.556V73.4263H75.1182V12.7656Z" fill="#999999"/>
<path d="M108.556 12.7656V73.4263H75.1182" stroke="white" stroke-width="0.37607"/>
<path d="M108.556 12.7656H75.1182V73.4263" stroke="#4C4C4C" stroke-width="0.37607"/>
<path d="M44.9766 22.375H57.2215V78.2309H44.9766V22.375Z" fill="#B2B2B2" stroke="#7F7F7F" stroke-width="0.37607"/>
<path d="M57.2215 22.375V78.2309H44.9766" stroke="white" stroke-width="0.37607"/>
<path d="M57.2215 22.375H44.9766V78.2309" stroke="#4C4C4C" stroke-width="0.37607"/>
<path d="M0 148.5H150V150.002H0V148.5Z" fill="#CCCCCC" stroke="black" stroke-width="0.37607"/>
<path d="M44.9766 98.9453H104.788V146.693H44.9766V98.9453Z" fill="#999999"/>
<path d="M107.614 124.477H102.434V150.002H107.614V124.477Z" fill="#B2B2B2" stroke="black" stroke-width="0.37607"/>
<path d="M47.3309 124.477H42.1504V150.002H47.3309V124.477Z" fill="#B2B2B2" stroke="black" stroke-width="0.37607"/>
<path d="M44.9766 143.695H104.788V150.002H44.9766V143.695Z" fill="#CCCCCC" stroke="black" stroke-width="0.37607"/>
<path d="M44.9766 98.9453H104.788V110.056H44.9766V98.9453Z" fill="#7F7F7F"/>
<path d="M102.434 98.9453H107.614V114.861H102.434V98.9453Z" fill="#B2B2B2" stroke="black" stroke-width="0.37607"/>
<path d="M72.292 98.9453H77.4725V114.861H72.292V98.9453Z" fill="#B2B2B2" stroke="black" stroke-width="0.37607"/>
<path d="M42.1504 98.9453H47.3309V114.861H42.1504V98.9453Z" fill="#B2B2B2" stroke="black" stroke-width="0.37607"/>
<path d="M30.1416 92.6406H119.859V98.9469H30.1416V92.6406Z" fill="#CCCCCC" stroke="black" stroke-width="0.37607"/>
<path d="M47.3314 17.5703V54.2069H32.2607V17.5703H47.3314Z" fill="#7F7F7F"/>
<path d="M46.3888 17.5703V54.2069H33.4375V17.5703H46.3888Z" fill="#999999"/>
<path d="M44.9763 17.5703V54.2069H34.6152V17.5703H44.9763Z" fill="#B2B2B2"/>
<path d="M43.0923 17.5703V54.2069H36.7344V17.5703H43.0923Z" fill="#CCCCCC"/>
<path d="M42.151 17.5703V54.2069H37.4414V17.5703H42.151Z" fill="#E5E5E5"/>
<path d="M40.7373 17.5703V54.2069H38.8535V17.5703H40.7373Z" fill="white"/>
<path d="M47.3314 17.5703V54.2069H32.2607V17.5703H47.3314Z" stroke="black" stroke-width="0.37607"/>
<path d="M42.151 79.7335V57.2109H37.4414V79.7335H42.151Z" fill="#7F7F7F"/>
<path d="M42.151 79.7335V57.2109H37.4414V79.7335H42.151Z" fill="#999999"/>
<path d="M41.6795 79.7335V57.2109H38.3828V79.7335H41.6795Z" fill="#B2B2B2"/>
<path d="M41.2083 79.7335V57.2109H38.8535V79.7335H41.2083Z" fill="#CCCCCC"/>
<path d="M40.7381 79.7335V57.2109H39.3252V79.7335H40.7381Z" fill="#E5E5E5"/>
<path d="M40.2671 79.7335V57.2109H39.3252V79.7335H40.2671Z" fill="white"/>
<path d="M42.151 79.7335V57.2109H37.4414V79.7335H42.151Z" stroke="black" stroke-width="0.37607"/>
<path d="M30.1416 54.2031H49.6863V57.2061H30.1416V54.2031Z" fill="#B2B2B2" stroke="black" stroke-width="0.37607"/>
<path d="M30.1416 14.2656H49.6863V17.5689H30.1416V14.2656Z" fill="#B2B2B2" stroke="black" stroke-width="0.37607"/>
<path d="M62.4023 87.8359H77.473V92.6407H62.4023V87.8359Z" fill="#CCB27F" stroke="black" stroke-width="0.37607"/>
<path d="M87.3623 87.8359H102.433V92.6407H87.3623V87.8359Z" fill="#CCB27F" stroke="black" stroke-width="0.37607"/>
<path d="M72.292 28.6797H85.0078V84.5355H72.292V28.6797Z" fill="#B2B2B2" stroke="#7F7F7F" stroke-width="0.37607"/>
<path d="M64.2859 17.5703V78.231H62.873V17.5703H64.2859Z" fill="#4C4C4C"/>
<path d="M57.2217 22.375H69.9375V25.378H57.2217V22.375Z" fill="#B2B2B2" stroke="black" stroke-width="0.37607"/>
<path d="M61.4597 52.7031V78.2287H60.0469V52.7031H61.4597Z" fill="#4C4C4C"/>
<path d="M67.5821 52.7031V78.2287H65.6982V52.7031H67.5821Z" fill="#4C4C4C"/>
<path d="M57.2217 62.3125H69.9375V65.3155H57.2217V62.3125Z" fill="#B2B2B2" stroke="black" stroke-width="0.37607"/>
<path d="M90.1885 33.4844H102.433V74.9258H90.1885V33.4844Z" fill="#CCCCCC"/>
<path d="M90.1885 41.2891H102.433V62.0098H90.1885V41.2891Z" fill="#E5E5E5"/>
<path d="M90.1885 33.4844H102.433V74.9258H90.1885V33.4844Z" stroke="black" stroke-width="0.37607"/>
<path d="M67.582 44.5945H92.5428V15.7656H87.3623V38.2881H67.582V44.5945Z" fill="#E5E5E5" stroke="#7F7F7F" stroke-width="0.37607"/>
<path d="M97.7234 84.5315H94.4267L91.13 83.6306L88.7752 82.1291L87.3623 80.027V77.9249L88.7752 75.8228L90.1881 74.9219H102.433L103.846 75.8228L104.788 77.9249V80.027L103.846 82.1291L101.02 83.6306L97.7234 84.5315Z" stroke="black" stroke-width="0.37607"/>
<path d="M82.6532 28.6802V9.46094H77.4727V28.6802H82.6532Z" fill="#7F7F7F"/>
<path d="M82.182 28.6802V9.46094H77.9434V28.6802H82.182Z" fill="#999999"/>
<path d="M81.7108 28.6802V9.46094H78.4141V28.6802H81.7108Z" fill="#B2B2B2"/>
<path d="M81.2405 28.6802V9.46094H78.8857V28.6802H81.2405Z" fill="#CCCCCC"/>
<path d="M80.7693 28.6802V9.46094H79.3564V28.6802H80.7693Z" fill="#E5E5E5"/>
<path d="M80.2981 28.6802V9.46094H79.8271V28.6802H80.2981Z" fill="white"/>
<path d="M82.6532 28.6802V9.46094H77.4727V28.6802H82.6532Z" stroke="black" stroke-width="0.37607"/>
<path d="M77.4727 9.45946L78.4146 6.15616V1.35135L78.8855 0H80.7694L81.7113 1.35135V6.15616L82.6532 9.45946H77.4727Z" fill="#7F7F7F"/>
<path d="M78.8857 9.45946L79.3567 6.15616V1.35135L79.8277 0H80.2986V1.35135V6.15616L80.7696 9.45946H78.8857Z" fill="#E5E5E5"/>
<path d="M77.4727 9.45946L78.4146 6.15616V1.35135L78.8855 0H80.7694L81.7113 1.35135V6.15616L82.6532 9.45946H77.4727Z" stroke="black" stroke-width="0.37607"/>
<path d="M77.4727 1.35156H82.6532V2.25246H77.4727V1.35156Z" fill="#B2B2B2" stroke="black" stroke-width="0.37607"/>
<path d="M77.4727 5.55469H82.6532V6.15529H77.4727V5.55469Z" fill="#B2B2B2" stroke="black" stroke-width="0.37607"/>
<path d="M57.2215 81.2344V89.3425H44.9766" stroke="white" stroke-width="0.37607"/>
<path d="M57.2215 81.2344H44.9766V89.3425" stroke="#999999" stroke-width="0.37607"/>
<path d="M47.3311 126.875H102.433" stroke="#4C4C4C" stroke-width="0.37607"/>
</g>
<defs>
<clipPath id="clip0_2109_195955">
<rect width="150" height="150" fill="white"/>
</clipPath>
</defs>
</svg>
