<svg width="150" height="150" viewBox="0 0 150 150" fill="none" xmlns="http://www.w3.org/2000/svg">
<g clip-path="url(#clip0_2109_195291)">
<path d="M0 24.9265H4.97512V28.0796H51.4925V15.6172H4.97512V18.47H0V24.9265Z" fill="#7F7F7F"/>
<path d="M0 24.4709H4.97512V27.1736H51.4925V16.0625H4.97512V19.0655H0V24.4709Z" fill="#878787"/>
<path d="M0 23.8757H4.97512V26.2781H51.4925V16.9688H4.97512V19.3712H0V23.8757Z" fill="#919191"/>
<path d="M0 23.5729H4.97512V25.675H51.4925V17.8672H4.97512V19.669H0V23.5729Z" fill="#999999"/>
<path d="M0 23.2736H4.97512V24.9252H51.4925V18.4688H4.97512V19.9703H0V23.2736Z" fill="#A1A1A1"/>
<path d="M0 22.9708H4.97512V24.172H51.4925V19.3672H4.97512V20.7185H0V22.9708Z" fill="#ABABAB"/>
<path d="M0 22.6715H4.97512V23.2721H51.4925V19.9688H4.97512V20.8697H0V22.6715Z" fill="#B2B2B2"/>
<path d="M0 24.9265H4.97512V28.0796H51.4925V15.6172H4.97512V18.47H0V24.9265Z" stroke="black" stroke-width="0.386527"/>
<path d="M0 31.0782H10.199V9.15625H46.5174V31.0782H150V53.0001H0V31.0782Z" fill="#CCCCCC"/>
<path d="M0 46.6999L150 37.3906V53.0062H0V46.6999Z" fill="#C7C7C7"/>
<path d="M0 47.5984L150 38.2891V53.0038H0V47.5984Z" fill="#C2C2C2"/>
<path d="M0 48.7981L150 39.7891V53.0023H0V48.7981Z" fill="#BDBDBD"/>
<path d="M0 31.0782H10.199V9.15625H46.5174V31.0782H150V53.0001H0V31.0782Z" stroke="black" stroke-width="0.386527"/>
<path d="M77.3633 37.3906H108.707V50.0032H77.3633V37.3906Z" fill="#7F7F7F"/>
<path d="M79.3535 37.3906H106.717V49.7029H79.3535V37.3906Z" fill="#8A8A8A"/>
<path d="M80.8457 37.3906H105.224V49.7029H80.8457V37.3906Z" fill="#919191"/>
<path d="M82.3379 37.3906H103.731V49.7029H82.3379V37.3906Z" fill="#9C9C9C"/>
<path d="M83.8311 37.3906H102.239V49.7029H83.8311V37.3906Z" fill="#A6A6A6"/>
<path d="M85.8213 37.3906H100.249V49.7029H85.8213V37.3906Z" fill="#B0B0B0"/>
<path d="M87.3135 37.3906H98.7563V49.7029H87.3135V37.3906Z" fill="#B8B8B8"/>
<path d="M88.8057 37.3906H97.2634V49.7029H88.8057V37.3906Z" fill="#C2C2C2"/>
<path d="M90.2988 37.3906H95.274V50.0032H90.2988V37.3906Z" fill="#CCCCCC"/>
<path d="M77.3633 37.3906H108.707V50.0032H77.3633V37.3906Z" stroke="black" stroke-width="0.386527"/>
<path d="M62.9355 35.8828H124.13" stroke="#999999" stroke-width="0.386527"/>
<path d="M62.9355 37.3906H64.4281V50.0032H62.9355V37.3906Z" fill="#7F7F7F"/>
<path d="M121.642 37.3906H122.637V50.0032H121.642V37.3906Z" fill="#7F7F7F"/>
<path d="M66.915 37.3906H67.9101V50.0032H66.915V37.3906Z" fill="#7F7F7F"/>
<path d="M117.662 37.3906H118.657V50.0032H117.662V37.3906Z" fill="#7F7F7F"/>
<path d="M37.065 15.6141H23.3834V12.4609H11.1943V31.0796H37.065V15.6141Z" fill="#BDBDBD"/>
<path d="M51.493 34.0811H37.0651V31.0781H25.8711V49.997H51.493V34.0811Z" fill="#BDBDBD"/>
<path d="M10.1992 31.0781H25.8709V47.5946" stroke="black" stroke-width="0.386527"/>
<path d="M17.6621 5.25781H19.1546V31.0836H17.6621V5.25781Z" fill="#7F7F7F"/>
<path d="M19.1543 6.15871V5.25781H61.9404V6.15871H19.1543Z" fill="#7F7F7F"/>
<path d="M57.9603 42.1923H56.4678V6.15625H57.9603V42.1923Z" fill="#7F7F7F"/>
<path d="M56.4676 41.5938V42.4947H43.5322V41.5938H56.4676Z" fill="#7F7F7F"/>
<path d="M56.4674 28.0781V28.6787H37.0645V28.0781H56.4674Z" fill="#7F7F7F"/>
<path d="M36.0693 28.0781H37.0644V35.8859H36.0693V28.0781Z" fill="#7F7F7F"/>
<path d="M29.6016 44.2912V35.8828H43.5319" stroke="white" stroke-width="0.386527"/>
<path d="M29.6016 44.2912H43.5319V35.8828" stroke="#7F7F7F" stroke-width="0.386527"/>
<path d="M145.024 31.082H124.129V11.5625H137.064L142.039 13.3643L144.527 16.067V19.3703L142.039 22.3733L145.024 31.082Z" fill="#7F7F7F" stroke="black" stroke-width="0.386527"/>
<path d="M4.97559 24.9252V18.4688" stroke="black" stroke-width="0.386527"/>
<path d="M61.9404 0H124.129V37.3874H61.9404V0Z" fill="#CCCCCC"/>
<path d="M61.9404 50H124.129V68.6186H61.9404V50Z" fill="#CCCCCC"/>
<path d="M61.9404 26.58L124.129 10.6641V37.3908H61.9404V26.58Z" fill="#C7C7C7"/>
<path d="M61.9404 63.2141L124.129 55.4062V68.6195H61.9404V63.2141Z" fill="#C7C7C7"/>
<path d="M61.9404 28.0766L124.129 12.4609V37.3859H61.9404V28.0766Z" fill="#C2C2C2"/>
<path d="M61.9404 64.1159L124.129 56.0078V68.6204H61.9404V64.1159Z" fill="#C2C2C2"/>
<path d="M61.9404 65.0187L124.129 57.2109V68.6223H61.9404V65.0187Z" fill="#BDBDBD"/>
<path d="M61.9404 30.4784L124.129 14.5625V37.3853H61.9404V30.4784Z" fill="#BDBDBD"/>
<path d="M62.9355 68.6172H64.4281V115.464H62.9355V68.6172Z" fill="#7F7F7F"/>
<path d="M121.642 68.6172H122.637V115.464H121.642V68.6172Z" fill="#7F7F7F"/>
<path d="M118.657 115.464H113.682V68.6172H118.657V115.464Z" fill="#CCCCCC"/>
<path d="M66.915 68.6172H72.3877V115.464H66.915V68.6172Z" fill="#CCCCCC"/>
<path d="M118.657 115.464H116.169V68.6172H118.657V115.464Z" fill="#B2B2B2"/>
<path d="M66.915 68.6172H69.4026V115.464H66.915V68.6172Z" fill="#B2B2B2"/>
<path d="M118.657 115.464H117.662V68.6172H118.657V115.464Z" fill="#7F7F7F"/>
<path d="M66.915 68.6172H68.4076V115.464H66.915V68.6172Z" fill="#7F7F7F"/>
<path d="M77.3633 115.469H108.707V150.003H77.3633V115.469Z" fill="#B2B2B2" stroke="black" stroke-width="0.386527"/>
<path d="M77.3633 134.234H108.707V143.694H77.3633V134.234Z" fill="#4C4C4C"/>
<path d="M61.9404 115.469H77.3633V150.003H61.9404V115.469Z" fill="#CCCCCC"/>
<path d="M108.209 115.469H124.129V150.003H108.209V115.469Z" fill="#CCCCCC"/>
<path d="M108.209 137.391H124.129V150.003H108.209V137.391Z" fill="#D6D6D6"/>
<path d="M61.9404 137.391H77.3633V150.003H61.9404V137.391Z" fill="#D6D6D6"/>
<path d="M108.209 140.391H124.129V150H108.209V140.391Z" fill="#DEDEDE"/>
<path d="M61.9404 140.391H77.3633V150H61.9404V140.391Z" fill="#DEDEDE"/>
<path d="M108.209 143.695H124.129V150.002H108.209V143.695Z" fill="#E8E8E8"/>
<path d="M61.9404 143.695H77.3633V150.002H61.9404V143.695Z" fill="#E8E8E8"/>
<path d="M61.9404 146.547H77.3633V150H61.9404V146.547Z" fill="#F2F2F2"/>
<path d="M108.209 146.547H124.129V150H108.209V146.547Z" fill="#F2F2F2"/>
<path d="M124.129 59.3125H134.577V128.081H124.129V59.3125Z" fill="#CCCCCC" stroke="black" stroke-width="0.386527"/>
<path d="M96.2688 140.688H89.8011L84.3285 139.787L79.8508 138.435L77.3633 136.633V118.766H108.707V136.633L106.219 138.435L101.741 139.787L96.2688 140.688Z" fill="#CCCCCC" stroke="black" stroke-width="0.386527"/>
<path d="M61.9404 115.469H77.3633V150.003H61.9404V115.469Z" stroke="black" stroke-width="0.386527"/>
<path d="M108.209 115.469H124.129V150.003H108.209V115.469Z" stroke="black" stroke-width="0.386527"/>
<path d="M77.3633 115.469H108.707V118.772H77.3633V115.469Z" fill="#E5E5E5" stroke="black" stroke-width="0.386527"/>
<path d="M129.105 101.355C130.479 101.355 131.592 100.682 131.592 99.8531C131.592 99.0238 130.479 98.3516 129.105 98.3516C127.731 98.3516 126.617 99.0238 126.617 99.8531C126.617 100.682 127.731 101.355 129.105 101.355Z" fill="white" stroke="black" stroke-width="0.386527"/>
<path d="M129.105 88.8858C130.479 88.8858 131.592 88.2136 131.592 87.3843C131.592 86.5551 130.479 85.8828 129.105 85.8828C127.731 85.8828 126.617 86.5551 126.617 87.3843C126.617 88.2136 127.731 88.8858 129.105 88.8858Z" fill="white" stroke="black" stroke-width="0.386527"/>
<path d="M125.124 121.77V112.461H133.084V121.77H125.124Z" fill="#B2B2B2" stroke="black" stroke-width="0.386527"/>
<path d="M126.617 113.961V120.267" stroke="#666666" stroke-width="0.386527"/>
<path d="M131.592 113.961V120.267" stroke="#666666" stroke-width="0.386527"/>
<path d="M66.915 93.5469H72.3877" stroke="#7F7F7F" stroke-width="0.386527"/>
<path d="M113.682 93.5469H118.657" stroke="#7F7F7F" stroke-width="0.386527"/>
<path d="M118.657 115.464H113.682V68.6172H118.657V115.464Z" stroke="black" stroke-width="0.386527"/>
<path d="M66.915 68.6172H72.3877V115.464H66.915V68.6172Z" stroke="black" stroke-width="0.386527"/>
<path d="M65.9199 77.9297H120.149V87.5393H65.9199V77.9297Z" fill="#CCCCCC"/>
<path d="M65.9199 84.837L120.149 80.6328V87.5397H65.9199V84.837Z" fill="#C7C7C7"/>
<path d="M65.9199 85.1383L120.149 81.2344V87.5407H65.9199V85.1383Z" fill="#C2C2C2"/>
<path d="M65.9199 85.732L120.149 81.8281V87.5338H65.9199V85.732Z" fill="#BDBDBD"/>
<path d="M65.9199 77.9297H120.149V87.5393H65.9199V77.9297Z" stroke="black" stroke-width="0.386527"/>
<path d="M61.9404 0H124.129V37.3874H61.9404V0Z" stroke="black" stroke-width="0.386527"/>
<path d="M61.9404 50H124.129V68.6186H61.9404V50Z" stroke="black" stroke-width="0.386527"/>
<path d="M75.8711 68.6172V73.422H78.8562V71.9205H81.3437V73.422H83.8313V71.9205H86.3189V73.422H88.8064V71.9205H91.7915V73.422H94.2791V71.9205H96.7666V73.422H99.2542V71.9205H101.742V73.422H104.727V71.9205H107.214V73.422H109.702V68.6172H75.8711Z" fill="#999999"/>
<path d="M75.8711 68.6172V71.0196H109.702V68.6172H75.8711Z" fill="#4C4C4C"/>
<path d="M78.3584 68.6172V71.0196H107.214V68.6172H78.3584Z" fill="#595959"/>
<path d="M80.8457 68.6172V71.0196H105.224V68.6172H80.8457Z" fill="#666666"/>
<path d="M83.333 68.6172V71.0196H102.736V68.6172H83.333Z" fill="#737373"/>
<path d="M85.8213 68.6172V71.0196H100.249V68.6172H85.8213Z" fill="#7F7F7F"/>
<path d="M87.8105 68.6172V71.0196H97.7608V68.6172H87.8105Z" fill="#8C8C8C"/>
<path d="M90.2988 68.6172V71.0196H95.274V68.6172H90.2988Z" fill="#999999"/>
<path d="M75.8711 68.6172V73.422H78.8562V71.9205H81.3437V73.422H83.8313V71.9205H86.3189V73.422H88.8064V71.9205H91.7915V73.422H94.2791V71.9205H96.7666V73.422H99.2542V71.9205H101.742V73.422H104.727V71.9205H107.214V73.422H109.702V68.6172H75.8711Z" stroke="black" stroke-width="0.386527"/>
<path d="M92.2883 24.7732C94.2116 24.7732 95.7708 22.017 95.7708 18.6171C95.7708 15.2171 94.2116 12.4609 92.2883 12.4609C90.3649 12.4609 88.8057 15.2171 88.8057 18.6171C88.8057 22.017 90.3649 24.7732 92.2883 24.7732Z" fill="#B2B2B2" stroke="#666666" stroke-width="0.386527"/>
<path d="M93.035 64.8611C98.1183 64.8611 102.239 62.3738 102.239 59.3056C102.239 56.2373 98.1183 53.75 93.035 53.75C87.9518 53.75 83.8311 56.2373 83.8311 59.3056C83.8311 62.3738 87.9518 64.8611 93.035 64.8611Z" fill="#B2B2B2" stroke="#666666" stroke-width="0.386527"/>
<path d="M125.124 92.9453H128.109V94.4468H125.124V92.9453Z" fill="black"/>
<path d="M130.597 92.9453H133.084V94.4468H130.597V92.9453Z" fill="black"/>
<path d="M91.791 21.7734H92.786V23.2749H91.791V21.7734Z" fill="black"/>
<path d="M91.791 14.1172H92.786V15.6187H91.791V14.1172Z" fill="black"/>
<path d="M78.8555 58.4062H81.343V60.2081H78.8555V58.4062Z" fill="black"/>
<path d="M104.727 58.4062H107.214V60.2081H104.727V58.4062Z" fill="black"/>
<path d="M113.682 150.002V143.695H118.657V150.002H113.682Z" fill="#7F7F7F"/>
<path d="M66.915 150.002V143.695H72.3877V150.002H66.915Z" fill="#7F7F7F" stroke="black" stroke-width="0.386527"/>
<path d="M68.9053 150.002V143.695H70.3978V150.002H68.9053Z" fill="#E5E5E5"/>
<path d="M115.672 150.002V143.695H117.164V150.002H115.672Z" fill="#E5E5E5"/>
<path d="M113.682 150.002V143.695H118.657V150.002H113.682Z" stroke="black" stroke-width="0.386527"/>
</g>
<defs>
<clipPath id="clip0_2109_195291">
<rect width="150" height="150" fill="white"/>
</clipPath>
</defs>
</svg>
