<svg width="150" height="150" viewBox="0 0 150 150" fill="none" xmlns="http://www.w3.org/2000/svg">
<g clip-path="url(#clip0_2109_195106)">
<path d="M37.2179 69.5181V71.6202H18.2705V68.6172H72.4058V104.653H70.1502V70.1187H51.2028V69.5181H37.2179Z" fill="#663300"/>
<path d="M112.557 115.469V2.40625H37.2185V68.6225H74.6621V106.16H4.28613V115.469H112.557Z" fill="#B27F19" stroke="black" stroke-width="0.368068"/>
<path d="M0 149.998L8.79699 112.461H140.526L150 149.998H0Z" fill="#CC9933"/>
<path d="M37.2182 71.021H18.2708L11.5039 50L19.6242 0H37.2182V71.021Z" fill="#CC9933" stroke="black" stroke-width="0.368068"/>
<path d="M71.5036 62.3123H59.3231L47.1427 60.2102L36.7667 56.006L27.7442 50.3003L21.4284 43.0931L18.2705 35.2853V26.8769L21.4284 19.0691L27.7442 12.012L36.7667 6.15616L47.1427 1.95195L59.3231 0H71.5036L126.541 6.15616V56.006L71.5036 62.3123Z" fill="#CC9933"/>
<path d="M71.5039 62.3085H59.3234L47.143 60.2064L36.7671 56.0022L27.7445 50.2965L21.4287 43.0893L126.541 25.6719V56.0022L71.5039 62.3085Z" fill="#C4912B"/>
<path d="M82.7818 16.0625L87.7442 19.6661L91.8043 23.8703L93.6088 28.6751V33.4799L91.8043 38.2847L87.7442 42.4889L82.7818 46.0925L76.0148 48.4949L69.2479 49.9964H61.5788L54.3607 48.4949L48.0449 46.0925" stroke="#996600" stroke-width="0.368068"/>
<path d="M48.0448 46.0946L42.6313 42.491L39.0223 38.2868L37.2178 33.482V28.6772L39.0223 23.8723L42.6313 19.6681L48.0448 16.0645L54.3606 13.6621L61.5787 12.4609H69.2478L76.4659 13.6621L82.7817 16.0645" stroke="#F2E5CC" stroke-width="0.368068"/>
<path d="M80.526 37.6907C82.7683 37.6907 84.5861 34.8673 84.5861 31.3844C84.5861 27.9016 82.7683 25.0781 80.526 25.0781C78.2836 25.0781 76.4658 27.9016 76.4658 31.3844C76.4658 34.8673 78.2836 37.6907 80.526 37.6907Z" fill="#663300"/>
<path d="M71.9545 24.1727H59.3229L57.0673 23.422L56.165 22.0706V20.5691L57.0673 19.3679L59.3229 18.6172H71.9545L73.759 19.3679L74.6613 20.5691V22.0706L73.759 23.422L71.9545 24.1727Z" fill="#663300"/>
<path d="M50.3004 37.6907C52.5427 37.6907 54.3605 34.8673 54.3605 31.3844C54.3605 27.9016 52.5427 25.0781 50.3004 25.0781C48.058 25.0781 46.2402 27.9016 46.2402 31.3844C46.2402 34.8673 48.058 37.6907 50.3004 37.6907Z" fill="#663300"/>
<path d="M71.9545 44.296H59.3229L57.0673 43.3951L56.165 42.1939V40.6924L57.0673 39.4912L59.3229 38.8906H71.9545L73.759 39.4912L74.6613 40.6924V42.1939L73.759 43.3951L71.9545 44.296Z" fill="#663300"/>
<path d="M71.5036 62.3123H59.3231L47.1427 60.2102L36.7667 56.006L27.7442 50.3003L21.4284 43.0931L18.2705 35.2853V26.8769L21.4284 19.0691L27.7442 12.012L36.7667 6.15616L47.1427 1.95195L59.3231 0H71.5036L126.541 6.15616V56.006L71.5036 62.3123Z" stroke="black" stroke-width="0.368068"/>
<path d="M0 149.999L2.4812 139.188L143.233 122.672L150 149.999H0Z" fill="#C4912B"/>
<path d="M0 149.998L8.79699 112.461H140.526L150 149.998H0Z" stroke="black" stroke-width="0.368068"/>
<path d="M145.488 140.539V146.545H126.541" stroke="#F2E5CC" stroke-width="0.368068"/>
<path d="M23.2335 140.539V146.545H4.28613" stroke="#F2E5CC" stroke-width="0.368068"/>
<path d="M145.488 140.539H126.541V146.545" stroke="#996600" stroke-width="0.368068"/>
<path d="M23.2335 140.539H4.28613V146.545" stroke="#996600" stroke-width="0.368068"/>
<path d="M64.7372 32.8814L63.3838 31.0796L64.7372 29.5781H67.4439L68.7973 31.0796L67.4439 32.8814H64.7372Z" fill="#996600"/>
<path d="M8.79688 96.8438H70.1503V106.153H8.79688V96.8438Z" fill="#CCCCCC"/>
<path d="M8.79688 104.658L70.1503 98.3516V106.159H8.79688V104.658Z" fill="#BFBFBF"/>
<path d="M11.5039 104.354L67.8949 98.6484" stroke="#E5E5E5" stroke-width="0.368068"/>
<path d="M8.79688 96.8438H70.1503V106.153H8.79688V96.8438Z" stroke="black" stroke-width="0.368068"/>
<path d="M8.79688 103.156H70.1503" stroke="black" stroke-width="0.368068"/>
<path d="M56.1655 104.655V112.463H74.6618L79.6242 106.156V68.6188L74.6618 62.3125L51.2031 65.6158V69.5197H72.4061V104.655H56.1655Z" fill="#CC9933"/>
<path d="M40.827 62.6158L39.4736 60.814L40.827 59.3125H43.9849L45.3383 60.814L43.9849 62.6158H40.827Z" fill="#CCCCCC"/>
<path d="M60.6768 67.7172V67.4169V67.1166V66.6662V64.7142L62.9324 64.4139L65.188 64.1136L67.2181 63.8133L69.2482 63.513L71.0527 63.0626L72.8572 62.6121L75.3384 61.2608L76.0151 60.8103L76.6918 60.6602L77.8196 59.0085L78.2707 57.2067V54.8043L78.0452 52.1016V50.6001L77.5941 47.8974L77.1429 45.495L76.6918 43.2428L75.7895 41.2908L74.4362 39.489L72.8572 37.8373L71.0527 36.3358L69.0226 34.9845L66.9925 33.7833L65.188 32.5821L64.2858 31.9815L65.8647 31.0806L67.4437 30.48L67.8948 30.1797L68.7971 30.7803L70.6016 32.1316L72.6316 33.483L74.6617 35.1346L76.4662 36.6361L78.0452 38.4379L79.3986 40.3899L80.3008 42.492L80.9775 44.8944L81.2031 46.3959L81.6542 47.7473V49.2488L81.8798 50.9004L82.1053 52.4019V54.0536V55.4049V56.9064L81.6542 59.6091L81.2031 61.7112L80.0753 62.9124L78.4963 63.9635L76.2407 65.0145L73.985 65.9154L71.955 66.516L69.4738 66.9665L67.2181 67.1166L64.7369 67.4169L62.0301 67.5671L60.6768 67.7172Z" fill="#7F4C00"/>
<path d="M62.0303 66.2186L72.4062 64.7171L78.2709 61.7141L79.6243 59.3117L80.5265 54.5069L78.2709 42.1946L74.6619 37.3898L66.5416 31.9844" stroke="#CC9933" stroke-width="0.368068"/>
<path d="M40.8271 63.2109H43.985V67.7154H40.8271V63.2109Z" fill="#333333"/>
<path d="M58.4209 104.656H65.1878V107.059H58.4209V104.656Z" fill="#663300"/>
<path d="M16.0146 106.156H34.962V109.159H16.0146V106.156Z" fill="#663300"/>
<path d="M56.1655 104.655V112.463H74.6618L79.6242 106.156V68.6188L74.6618 62.3125L51.2031 65.6158V69.5197H72.4061V104.655H56.1655Z" stroke="black" stroke-width="0.368068"/>
<path d="M17.8198 71.9219L12.4062 77.3273L17.8198 79.4294L23.2333 74.024L17.8198 71.9219Z" fill="#996600" stroke="black" stroke-width="0.368068"/>
<path d="M17.8195 72.5249L13.7593 77.3297L9.24805 74.9273L12.8571 71.0234L17.8195 72.5249Z" fill="#E5B24C" stroke="black" stroke-width="0.368068"/>
<path d="M18.2708 71.0234L11.5039 77.9303L13.7595 78.8312L20.5265 71.624L18.2708 71.0234Z" fill="#CC9933" stroke="black" stroke-width="0.368068"/>
</g>
<defs>
<clipPath id="clip0_2109_195106">
<rect width="150" height="150" fill="white"/>
</clipPath>
</defs>
</svg>
