<svg width="150" height="150" viewBox="0 0 150 150" fill="none" xmlns="http://www.w3.org/2000/svg">
<g clip-path="url(#clip0_2109_196020)">
<path d="M24.7744 138.773H125.075V147.33H24.7744V138.773Z" fill="#4C4C4C"/>
<path d="M2.85285 116.308V99.7305L0 83.153L2.85285 5.07812H146.997L150 83.153L146.997 99.7305V116.308H125.075V138.768H24.7748V116.308H2.85285Z" fill="#E5E5E5"/>
<path d="M2.85285 99.7338L0 83.1562H150L146.997 99.7338H2.85285Z" fill="#CCCCCC"/>
<path d="M37.3872 99.7305L35.8857 83.153L37.3872 5.07812" stroke="#7F7F7F" stroke-width="0.400735"/>
<path d="M53.3038 10.6953L51.502 83.1552L53.3038 99.7327H96.547L98.3488 83.1552L96.547 10.6953H53.3038Z" fill="#999999"/>
<path d="M51.502 83.1562L53.3038 99.7338H96.547L98.3488 83.1562H51.502Z" fill="#666666"/>
<path d="M53.3038 10.6953L51.502 83.1552L53.3038 99.7327H96.547L98.3488 83.1552L96.547 10.6953H53.3038Z" stroke="black" stroke-width="0.400735"/>
<path d="M24.7744 122.195V116.312H125.075V122.195H24.7744Z" fill="#B2B2B2"/>
<path d="M2.85285 116.308V99.7305L0 83.153L2.85285 5.07812H146.997L150 83.153L146.997 99.7305V116.308H125.075V147.324H24.7748V116.308H2.85285Z" stroke="black" stroke-width="0.400735"/>
<path d="M24.7744 116.312H125.075" stroke="black" stroke-width="0.400735"/>
<path d="M28.0781 147.328H31.0811V150.002H28.0781V147.328Z" fill="black"/>
<path d="M118.769 147.328H121.772V150.002H118.769V147.328Z" fill="black"/>
<path d="M73.4238 147.328H76.4268V150.002H73.4238V147.328Z" fill="black"/>
<path d="M50 147.328H53.003V150.002H50V147.328Z" fill="black"/>
<path d="M96.8467 147.328H99.8497V150.002H96.8467V147.328Z" fill="black"/>
<path d="M37.9878 99.7305L36.4863 83.153L37.9878 5.07812" stroke="white" stroke-width="0.400735"/>
<path d="M53.3037 18.9844H89.3397V27.5405H53.3037V18.9844Z" fill="#191919"/>
<path d="M64.1143 27.5391H69.5197V49.4642H64.1143V27.5391Z" fill="#191919"/>
<path d="M56.9072 83.1565H67.718V41.4453H56.9072V83.1565Z" fill="#4C4C4C" stroke="black" stroke-width="0.400735"/>
<path d="M74.9248 38.7734H91.141V49.4686H74.9248V38.7734Z" fill="#4C4C4C" stroke="black" stroke-width="0.400735"/>
<path d="M65.916 49.4688H87.5376V83.1586H65.916V49.4688Z" fill="#F2E5CC" stroke="black" stroke-width="0.400735"/>
<path d="M60.5107 71.9219H91.1414V77.2695H60.5107V71.9219Z" fill="#B2CCFF" stroke="black" stroke-width="0.400735"/>
<path d="M53.3037 60.6953H67.7181V71.9253H53.3037V60.6953Z" fill="#B2CCFF" stroke="black" stroke-width="0.400735"/>
<path d="M89.3389 10.6953L91.1407 83.1552L89.3389 99.7327H96.5461L98.3479 83.1552L96.5461 10.6953H89.3389Z" fill="#B2CCFF" stroke="black" stroke-width="0.400735"/>
<path d="M92.9434 83.1533L93.8443 80.4795V66.5757L92.9434 63.3672H94.7452L95.6461 66.5757V80.4795L94.7452 83.1533H92.9434Z" fill="black"/>
<path d="M99.8496 2.40625H118.769V35.5613H99.8496V2.40625Z" fill="#666666" stroke="black" stroke-width="0.400735"/>
<path d="M106.156 130.211H110.961V138.767H106.156V130.211Z" fill="#666666" stroke="black" stroke-width="0.400735"/>
<path d="M101.352 35.5625H106.156V141.445H101.352V35.5625Z" fill="#4C4C4C" stroke="black" stroke-width="0.400735"/>
<path d="M101.651 5.07812H112.462V21.923H101.651V5.07812Z" fill="#7F7F7F"/>
<path d="M103.453 8.02344H110.66V18.986H103.453V8.02344Z" fill="#333333" stroke="black" stroke-width="0.400735"/>
<path d="M101.352 25.1328H102.252V25.935H101.352V25.1328Z" fill="#E5E5E5"/>
<path d="M101.352 28.3438H102.252V29.6806H101.352V28.3438Z" fill="#E5E5E5"/>
<path d="M101.352 32.0859H102.252V32.8881H101.352V32.0859Z" fill="#E5E5E5"/>
<path d="M104.054 25.1328H104.654V25.935H104.054V25.1328Z" fill="#E5E5E5"/>
<path d="M104.054 28.3438H104.654V29.6806H104.054V28.3438Z" fill="#E5E5E5"/>
<path d="M104.054 32.0859H104.654V32.8881H104.054V32.0859Z" fill="#E5E5E5"/>
<path d="M106.456 25.1328H107.357V25.935H106.456V25.1328Z" fill="#E5E5E5"/>
<path d="M106.456 28.3438H107.357V29.6806H106.456V28.3438Z" fill="#E5E5E5"/>
<path d="M106.456 32.0859H107.357V32.8881H106.456V32.0859Z" fill="#E5E5E5"/>
<path d="M108.859 25.1328H109.76V25.935H108.859V25.1328Z" fill="#E5E5E5"/>
<path d="M108.859 28.3438H109.76V29.6806H108.859V28.3438Z" fill="#E5E5E5"/>
<path d="M108.859 32.0859H109.76V32.8881H108.859V32.0859Z" fill="#E5E5E5"/>
<path d="M111.262 25.1328H112.163V25.935H111.262V25.1328Z" fill="#E5E5E5"/>
<path d="M111.262 28.3438H112.163V29.6806H111.262V28.3438Z" fill="#E5E5E5"/>
<path d="M111.262 32.0859H112.163V32.8881H111.262V32.0859Z" fill="#E5E5E5"/>
<path d="M113.964 25.1328H114.564V25.935H113.964V25.1328Z" fill="#E5E5E5"/>
<path d="M113.964 28.3438H114.564V29.6806H113.964V28.3438Z" fill="#E5E5E5"/>
<path d="M113.964 32.0859H114.564V32.8881H113.964V32.0859Z" fill="#E5E5E5"/>
<path d="M116.366 25.1328H116.967V25.935H116.366V25.1328Z" fill="#E5E5E5"/>
<path d="M116.366 28.3438H116.967V29.6806H116.366V28.3438Z" fill="#E5E5E5"/>
<path d="M116.366 32.0859H116.967V32.8881H116.366V32.0859Z" fill="#E5E5E5"/>
<path d="M82.7324 126.469H87.5372V131.816H82.7324V126.469Z" fill="#7F0000"/>
<path d="M81.832 131.82H88.1383V137.168H81.832V131.82Z" fill="#7F0000"/>
<path d="M10.21 27.5391H18.4682V32.8867H10.21V27.5391Z" fill="#7F0000"/>
<path d="M56.3066 0H93.5439V5.08021H56.3066V0Z" fill="#333333" stroke="black" stroke-width="0.400735"/>
</g>
<defs>
<clipPath id="clip0_2109_196020">
<rect width="150" height="150" fill="white"/>
</clipPath>
</defs>
</svg>
