<svg width="150" height="150" viewBox="0 0 150 150" fill="none" xmlns="http://www.w3.org/2000/svg">
<g clip-path="url(#clip0_2109_199955)">
<path d="M84.2812 0H140.611V31.0811H84.2812V0Z" fill="#BF8C26"/>
<path d="M84.2812 22.0692L140.611 9.15625V31.0782H84.2812V22.0692Z" fill="#BA8721"/>
<path d="M84.2812 23.5726L140.611 10.3594V31.0801H84.2812V23.5726Z" fill="#B5821C"/>
<path d="M84.2812 25.3756L140.611 12.3125V31.0813H84.2812V25.3756Z" fill="#B07D17"/>
<path d="M84.2812 0H140.611V31.0811H84.2812V0Z" stroke="black" stroke-width="0.357982"/>
<path d="M2.34668 115.469V148.502H9.17456V146.7H7.04085V118.772L9.17456 115.469H2.34668Z" fill="#4C1900"/>
<path d="M147.866 115.469V148.502H140.611V146.7H142.745V118.772L140.611 115.469H147.866Z" fill="#4C1900"/>
<path d="M0 31.0781H150V116.964H0V31.0781Z" fill="#CC9933"/>
<path d="M0 92.0404L150 56.3047V116.965H0V92.0404Z" fill="#C7942E"/>
<path d="M0 95.642L150 59.9062V116.963H0V95.642Z" fill="#C28F29"/>
<path d="M0 101.048L150 65.3125V116.964H0V101.048Z" fill="#BD8A24"/>
<path d="M0 31.0781H150V116.964H0V31.0781Z" stroke="black" stroke-width="0.357982"/>
<path d="M0 116.969V150.002H7.04125V148.5H4.4808V120.272L7.04125 116.969H0Z" fill="#BD8A24" stroke="black" stroke-width="0.357982"/>
<path d="M150 116.969V150.002H142.745V148.5H145.306V120.272L142.745 116.969H150Z" fill="#BD8A24" stroke="black" stroke-width="0.357982"/>
<path d="M23.2578 5.10156H126.53V31.0775H23.2578V5.10156Z" fill="#CC9933"/>
<path d="M23.2578 23.572L126.53 12.4609V31.0796H23.2578V23.572Z" fill="#C7942E"/>
<path d="M23.2578 24.7752L126.53 13.6641V31.0815H23.2578V24.7752Z" fill="#C28F29"/>
<path d="M23.2578 26.2735L126.53 15.3125V31.0783H23.2578V26.2735Z" fill="#BD8A24"/>
<path d="M23.2578 5.10156H126.53V31.0775H23.2578V5.10156Z" stroke="black" stroke-width="0.357982"/>
<path d="M83.0014 13.3668L80.8677 11.7151L77.027 10.6641H72.7596L68.9189 11.7151L66.7852 13.3668L68.9189 13.9674L72.7596 13.0665H77.027L80.8677 13.9674L83.0014 13.3668Z" fill="#CCCCCC"/>
<path d="M70.1992 13.9609L72.7597 15.4624H77.4538L79.5876 13.9609" stroke="#996600" stroke-width="0.357982"/>
<path d="M76.1734 22.9718H73.613L65.5049 14.2631V12.0108L68.0653 10.0589L72.3328 9.00781H77.4537L81.7211 10.0589L84.2816 12.0108V14.2631L76.1734 22.9718Z" stroke="#996600" stroke-width="0.357982"/>
<path d="M9.1748 97.1433V47.5938H140.612V97.1433H9.1748Z" stroke="#996600" stroke-width="0.357982"/>
<path d="M74.8936 47.5938V97.1433" stroke="#996600" stroke-width="0.357982"/>
<path d="M26.6719 29.5781H123.542" stroke="#996600" stroke-width="0.357982"/>
<path d="M2.34668 113.664H147.866" stroke="#996600" stroke-width="0.357982"/>
<path d="M93.6699 12.3125H115.861V20.5708H93.6699V12.3125Z" fill="#B2B2B2"/>
<path d="M93.6699 20.5708V12.3125H115.861" stroke="#E5E5E5" stroke-width="0.357982"/>
<path d="M115.861 12.3125V20.5708H93.6699" stroke="#7F7F7F" stroke-width="0.357982"/>
<path d="M32.6455 15.4688H36.0594V20.5739H32.6455V15.4688Z" fill="#996600"/>
<path d="M79.5879 46.0938H83.0018V50.8986H79.5879V46.0938Z" fill="#996600"/>
<path d="M79.5879 65.9141H83.0018V75.824H79.5879V65.9141Z" fill="#996600"/>
<path d="M79.5879 93.8438H83.0018V98.9489H79.5879V93.8438Z" fill="#996600"/>
<path d="M7.04102 54.2031H9.17473V58.4073H7.04102V54.2031Z" fill="#E5B24C"/>
<path d="M7.04102 86.6328H9.17473V90.5367H7.04102V86.6328Z" fill="#E5B24C"/>
<path d="M138.478 54.2031H140.611V58.4073H138.478V54.2031Z" fill="#E5B24C"/>
<path d="M138.478 86.6328H140.611V90.5367H138.478V86.6328Z" fill="#E5B24C"/>
<path d="M140.611 86.6328H142.745V90.5367H140.611V86.6328Z" fill="#B27F19"/>
<path d="M140.611 54.2031H142.745V58.4073H140.611V54.2031Z" fill="#B27F19"/>
<path d="M9.1748 86.6328H11.7353V90.5367H9.1748V86.6328Z" fill="#B27F19"/>
<path d="M9.1748 54.2031H11.7353V58.4073H9.1748V54.2031Z" fill="#B27F19"/>
<path d="M142.745 54.2031V58.4073H86.8418" stroke="#996600" stroke-width="0.357982"/>
<path d="M142.745 86.6328V90.5367H86.8418" stroke="#996600" stroke-width="0.357982"/>
<path d="M63.371 54.2031V58.4073H7.04102" stroke="#996600" stroke-width="0.357982"/>
<path d="M63.371 86.6328V90.5367H7.04102" stroke="#996600" stroke-width="0.357982"/>
<path d="M86.8418 90.5367V86.6328H142.745" stroke="#FFCC66" stroke-width="0.357982"/>
<path d="M86.8418 58.4073V54.2031H142.745" stroke="#FFCC66" stroke-width="0.357982"/>
<path d="M7.04102 90.5367V86.6328H63.371" stroke="#FFCC66" stroke-width="0.357982"/>
<path d="M7.04102 58.4073V54.2031H63.371" stroke="#FFCC66" stroke-width="0.357982"/>
</g>
<defs>
<clipPath id="clip0_2109_199955">
<rect width="150" height="150" fill="white"/>
</clipPath>
</defs>
</svg>
