<svg width="150" height="150" viewBox="0 0 150 150" fill="none" xmlns="http://www.w3.org/2000/svg">
<g clip-path="url(#clip0_2109_195638)">
<path d="M139.489 44.7969H150V124.723H139.489V44.7969Z" fill="#E5CBCB" stroke="black" stroke-width="0.334119"/>
<path d="M139.489 26.9531H146.847V76.7673H139.489V26.9531Z" fill="#4C3232" stroke="black" stroke-width="0.334119"/>
<path d="M139.49 86.0574H135.586V71.1875H139.49V86.0574Z" fill="#F2D8D8"/>
<path d="M5.85547 71.1875H9.75937V86.0574H5.85547V71.1875Z" fill="#F2D8D8"/>
<path d="M135.585 86.0574H131.531V71.1875H135.585V86.0574Z" fill="#CCB2B2"/>
<path d="M9.75977 71.1875H13.3634V86.0574H9.75977V71.1875Z" fill="#CCB2B2"/>
<path d="M139.489 86.0574H131.531V71.1875H139.489V86.0574Z" stroke="black" stroke-width="0.334119"/>
<path d="M5.85547 71.1875H13.363V86.0574H5.85547V71.1875Z" stroke="black" stroke-width="0.334119"/>
<path d="M3.003 29.9219V48.5092L0 52.2267V60.0334H145.495V52.2267L142.342 48.5092V29.9219H3.003Z" fill="#F2D8D8" stroke="black" stroke-width="0.334119"/>
<path d="M17.2672 35.4981H128.078L129.58 33.6393L132.583 42.933H142.342V29.9219H3.00293V42.933H12.7627L15.9158 33.6393L17.2672 35.4981Z" fill="#B29898"/>
<path d="M5.85586 150.002V119.891L0 112.456V97.5859H145.495V112.456L139.489 119.891V150.002H5.85586Z" fill="#FFE5E5"/>
<path d="M130.18 0V29.9257L133.183 41.0781H142.342L145.495 29.9257V0H130.18Z" fill="#FFE5E5" stroke="black" stroke-width="0.334119"/>
<path d="M127.027 33.6431H18.3182L15.165 29.9257V0H130.18V29.9257L127.027 33.6431Z" fill="#FFE5E5" stroke="black" stroke-width="0.334119"/>
<path d="M0 0V29.9257L3.003 41.0781H11.8619L15.1652 29.9257V0H0Z" fill="#FFE5E5" stroke="black" stroke-width="0.334119"/>
<path d="M11.8623 41.0781V0H18.3188V33.6431L15.1656 29.9257L11.8623 41.0781Z" fill="#E5CBCB"/>
<path d="M133.183 41.0781V0H127.027V33.6431L130.18 29.9257L133.183 41.0781Z" fill="#E5CBCB"/>
<path d="M0 60.0391V71.1915H145.495V60.0391H0Z" fill="#FFB28C" stroke="black" stroke-width="0.334119"/>
<path d="M0 86.0625V97.5867H145.495V86.0625H0Z" fill="#997F7F" stroke="black" stroke-width="0.334119"/>
<path d="M5.85547 149.996V137.357L145.495 103.156V112.45L139.489 119.885V149.996H5.85547Z" fill="#F7DDDD"/>
<path d="M5.85586 150.002V119.891L0 112.456V97.5859H145.495V112.456L139.489 119.891V150.002H5.85586Z" stroke="black" stroke-width="0.334119"/>
<path d="M18.3184 145.17V135.133" stroke="#B29898" stroke-width="0.334119"/>
<path d="M130.18 150.003V135.133" stroke="#B29898" stroke-width="0.334119"/>
<path d="M130.18 135.133H127.027V145.17H18.3184" stroke="#FFF7F7" stroke-width="0.334119"/>
<path d="M15.165 150.003V135.133H18.3182" stroke="#FFF7F7" stroke-width="0.334119"/>
<path d="M22.8232 4.64844V9.29528H61.4118V4.64844H22.8232Z" fill="#997F7F"/>
<path d="M18.7686 58.1797V60.0384H127.027V58.1797H18.7686Z" fill="#997F7F"/>
<path d="M55.1055 42.9375H89.9403V52.2312H55.1055V42.9375Z" fill="#FFE5E5"/>
<path d="M55.1055 52.2312V42.9375H89.9403" stroke="white" stroke-width="0.334119"/>
<path d="M55.1055 52.2312H89.9403V42.9375" stroke="#B29898" stroke-width="0.334119"/>
<path d="M0 94.6094H145.495" stroke="#664C4C" stroke-width="0.334119"/>
<path d="M0.900391 69.3281H2.40189" stroke="#664C4C" stroke-width="0.334119"/>
<path d="M6.90723 69.3281H8.25858" stroke="#664C4C" stroke-width="0.334119"/>
<path d="M12.7627 69.3281H14.2642" stroke="#664C4C" stroke-width="0.334119"/>
<path d="M18.7686 69.3281H20.2701" stroke="#664C4C" stroke-width="0.334119"/>
<path d="M24.7744 69.3281H26.5762" stroke="#664C4C" stroke-width="0.334119"/>
<path d="M31.0811 69.3281H32.5826" stroke="#664C4C" stroke-width="0.334119"/>
<path d="M37.0869 69.3281H38.5884" stroke="#664C4C" stroke-width="0.334119"/>
<path d="M43.0928 69.3281H44.5943" stroke="#664C4C" stroke-width="0.334119"/>
<path d="M49.0996 69.3281H50.6011" stroke="#664C4C" stroke-width="0.334119"/>
<path d="M55.1055 69.3281H56.9073" stroke="#664C4C" stroke-width="0.334119"/>
<path d="M61.4111 69.3281H62.9126" stroke="#664C4C" stroke-width="0.334119"/>
<path d="M67.417 69.3281H68.9185" stroke="#664C4C" stroke-width="0.334119"/>
<path d="M73.4238 69.3281H74.9253" stroke="#664C4C" stroke-width="0.334119"/>
<path d="M79.4297 69.3281H80.9312" stroke="#664C4C" stroke-width="0.334119"/>
<path d="M85.4355 69.3281H87.2373" stroke="#664C4C" stroke-width="0.334119"/>
<path d="M91.7422 69.3281H93.2437" stroke="#664C4C" stroke-width="0.334119"/>
<path d="M97.748 69.3281H99.2495" stroke="#664C4C" stroke-width="0.334119"/>
<path d="M103.754 69.3281H105.255" stroke="#664C4C" stroke-width="0.334119"/>
<path d="M109.76 69.3281H111.261" stroke="#664C4C" stroke-width="0.334119"/>
<path d="M115.766 69.3281H117.567" stroke="#664C4C" stroke-width="0.334119"/>
<path d="M122.072 69.3281H123.574" stroke="#664C4C" stroke-width="0.334119"/>
<path d="M128.078 69.3281H129.58" stroke="#664C4C" stroke-width="0.334119"/>
<path d="M133.934 69.3281H135.585" stroke="#664C4C" stroke-width="0.334119"/>
<path d="M140.09 69.3281H141.591" stroke="#664C4C" stroke-width="0.334119"/>
<path d="M3.75391 69.3281H5.40556" stroke="#664C4C" stroke-width="0.334119"/>
<path d="M9.75977 69.3281H11.4114" stroke="#664C4C" stroke-width="0.334119"/>
<path d="M15.916 69.3281H17.2674" stroke="#664C4C" stroke-width="0.334119"/>
<path d="M21.7715 69.3281H23.273" stroke="#664C4C" stroke-width="0.334119"/>
<path d="M27.7773 69.3281H29.5791" stroke="#664C4C" stroke-width="0.334119"/>
<path d="M34.084 69.3281H35.5855" stroke="#664C4C" stroke-width="0.334119"/>
<path d="M40.0898 69.3281H41.5913" stroke="#664C4C" stroke-width="0.334119"/>
<path d="M46.0957 69.3281H47.5972" stroke="#664C4C" stroke-width="0.334119"/>
<path d="M52.1025 69.3281H53.604" stroke="#664C4C" stroke-width="0.334119"/>
<path d="M58.1084 69.3281H59.9102" stroke="#664C4C" stroke-width="0.334119"/>
<path d="M64.4141 69.3281H65.9156" stroke="#664C4C" stroke-width="0.334119"/>
<path d="M70.4199 69.3281H71.9214" stroke="#664C4C" stroke-width="0.334119"/>
<path d="M76.4268 69.3281H77.9283" stroke="#664C4C" stroke-width="0.334119"/>
<path d="M82.4326 69.3281H83.9341" stroke="#664C4C" stroke-width="0.334119"/>
<path d="M88.4385 69.3281H90.2403" stroke="#664C4C" stroke-width="0.334119"/>
<path d="M94.7451 69.3281H96.2466" stroke="#664C4C" stroke-width="0.334119"/>
<path d="M100.751 69.3281H102.252" stroke="#664C4C" stroke-width="0.334119"/>
<path d="M106.757 69.3281H108.258" stroke="#664C4C" stroke-width="0.334119"/>
<path d="M112.763 69.3281H114.264" stroke="#664C4C" stroke-width="0.334119"/>
<path d="M118.769 69.3281H120.57" stroke="#664C4C" stroke-width="0.334119"/>
<path d="M125.075 69.3281H126.577" stroke="#664C4C" stroke-width="0.334119"/>
<path d="M131.081 69.3281H132.583" stroke="#664C4C" stroke-width="0.334119"/>
<path d="M137.087 69.3281H138.438" stroke="#664C4C" stroke-width="0.334119"/>
<path d="M142.943 69.3281H144.445" stroke="#664C4C" stroke-width="0.334119"/>
<path d="M3.75391 87.9219H7.50766V89.7806H3.75391V87.9219Z" fill="#664C4C"/>
<path d="M15.916 87.9219H19.6698V89.7806H15.916V87.9219Z" fill="#664C4C"/>
<path d="M28.0781 87.9219H31.6817V89.7806H28.0781V87.9219Z" fill="#664C4C"/>
<path d="M40.0898 87.9219H43.9937V89.7806H40.0898V87.9219Z" fill="#664C4C"/>
<path d="M52.4023 87.9219H56.3062V89.7806H52.4023V87.9219Z" fill="#664C4C"/>
<path d="M64.7148 87.9219H68.6187V89.7806H64.7148V87.9219Z" fill="#664C4C"/>
<path d="M76.7266 87.9219H80.6305V89.7806H76.7266V87.9219Z" fill="#664C4C"/>
<path d="M89.0391 87.9219H92.943V89.7806H89.0391V87.9219Z" fill="#664C4C"/>
<path d="M101.352 87.9219H104.955V89.7806H101.352V87.9219Z" fill="#664C4C"/>
<path d="M113.363 87.9219H117.267V89.7806H113.363V87.9219Z" fill="#664C4C"/>
<path d="M125.676 87.9219H129.58V89.7806H125.676V87.9219Z" fill="#664C4C"/>
<path d="M137.988 87.9219H141.592V89.7806H137.988V87.9219Z" fill="#664C4C"/>
<path d="M96.8467 44.0547H109.159V57.0658H96.8467V44.0547Z" fill="#664C4C"/>
<path d="M111.262 44.0547H123.574V54.0919H111.262V44.0547Z" fill="#664C4C"/>
<path d="M130.18 44.0547H133.933V57.0658H130.18V44.0547Z" fill="#664C4C"/>
<path d="M134.685 53.3438H141.591V57.0612H134.685V53.3438Z" fill="#664C4C"/>
<path d="M133.934 100.188H137.087V109.481H133.934V100.188Z" fill="#664C4C"/>
<path d="M140.991 119.891H142.343V121.749H140.991V119.891Z" fill="#664C4C"/>
<path d="M146.096 119.891H147.447V121.749H146.096V119.891Z" fill="#664C4C"/>
<path d="M142.943 101.305L143.994 103.163V105.022L142.943 106.881L141.591 107.624H140.09" stroke="#B29898" stroke-width="0.334119"/>
<path d="M140.09 107.622L138.439 106.879L137.988 105.02V103.161L138.439 101.303L140.09 100.188H141.592L142.943 101.303" stroke="white" stroke-width="0.334119"/>
<path d="M18.3184 29.9276L127.027 5.39228V1.11719H18.3184V29.9276Z" fill="#FFEDED"/>
</g>
<defs>
<clipPath id="clip0_2109_195638">
<rect width="150" height="150" fill="white"/>
</clipPath>
</defs>
</svg>
