<svg width="150" height="150" viewBox="0 0 150 150" fill="none" xmlns="http://www.w3.org/2000/svg">
<g clip-path="url(#clip0_2109_197649)">
<path d="M52.1025 2.15625H148.949V91.7246H52.1025V2.15625Z" fill="#CCCCCC" stroke="black" stroke-width="0.464805"/>
<path d="M54.8047 7.55469H146.396V43.5259H54.8047V7.55469Z" fill="#999999"/>
<path d="M54.8047 10.0703H146.396V43.5235H54.8047V10.0703Z" fill="#9E9E9E"/>
<path d="M54.8047 12.5938H146.396V43.529H54.8047V12.5938Z" fill="#A6A6A6"/>
<path d="M54.8047 14.75H146.396V43.527H54.8047V14.75Z" fill="#ABABAB"/>
<path d="M54.8047 17.2656H146.396V43.5246H54.8047V17.2656Z" fill="#B2B2B2"/>
<path d="M54.8047 19.0625H146.396V42.8035H54.8047V19.0625Z" fill="#B8B8B8"/>
<path d="M54.8047 22.3047H146.396V42.8083H54.8047V22.3047Z" fill="#BFBFBF"/>
<path d="M54.8047 24.1016H146.396V42.8066H54.8047V24.1016Z" fill="#C4C4C4"/>
<path d="M54.8047 30.5781H146.396V43.5278H54.8047V30.5781Z" fill="#CCCCCC"/>
<path d="M54.8047 43.5234H146.396V53.5954H54.8047V43.5234Z" fill="#7F7F7F"/>
<path d="M54.8047 53.5938H146.396V60.788H54.8047V53.5938Z" fill="#4C4C4C"/>
<path d="M31.3818 108.273H128.979V147.842H31.3818V108.273Z" fill="#7F7F7F" stroke="black" stroke-width="0.464805"/>
<path d="M10.5107 91.7266V150H31.3816V108.273H128.979V150H150V91.7266H10.5107Z" fill="#E5E5E5" stroke="black" stroke-width="0.464805"/>
<path d="M31.3818 93.8828H150V97.4799H31.3818V93.8828Z" fill="#99CCCC"/>
<path d="M31.3818 108.273V91.7266" stroke="#7F7F7F" stroke-width="0.464805"/>
<path d="M128.979 108.273V91.7266" stroke="#7F7F7F" stroke-width="0.464805"/>
<path d="M9.45946 91.7266L0 83.0935V50L2.7027 0H52.1021V91.7266H9.45946Z" fill="#E5E5E5"/>
<path d="M9.45946 91.7268L0 83.0938H52.1021V91.7268H9.45946Z" fill="#CCCCCC"/>
<path d="M0 83.0935V50H52.1021V83.0935H0Z" fill="#D9D9D9"/>
<path d="M9.45946 91.7266L0 83.0935V50L2.7027 0H52.1021V91.7266H9.45946Z" stroke="black" stroke-width="0.464805"/>
<path d="M52.1025 62.2266H147.148V73.0179H52.1025V62.2266Z" fill="#E5E5E5" stroke="#7F7F7F" stroke-width="0.464805"/>
<path d="M55.7061 57.9141H66.2166V87.4105H55.7061V57.9141Z" fill="#F2F2F2" stroke="#7F7F7F" stroke-width="0.464805"/>
<path d="M53.9043 76.6172H147.148V83.092H53.9043V76.6172Z" fill="#7F7F7F" stroke="black" stroke-width="0.464805"/>
<path d="M54.8047 78.7734H146.396V81.6511H54.8047V78.7734Z" fill="#CCCCCC"/>
<path d="M53.0029 28.7734H56.6065V57.9101H53.0029V28.7734Z" fill="black"/>
<path d="M56.6064 53.5973H57.5073V62.2304H64.4143V53.5973H68.0179V33.0938H56.6064V53.5973Z" fill="#4C4C4C" stroke="black" stroke-width="0.464805"/>
<path d="M32.2822 76.6211V55.7578H46.096" stroke="white" stroke-width="0.464805"/>
<path d="M32.2822 76.6211H46.096V55.7578" stroke="#7F7F7F" stroke-width="0.464805"/>
<path d="M38.2881 73.0237L42.7926 64.3906" stroke="white" stroke-width="0.464805"/>
<path d="M35.5859 73.02L41.8922 60.0703" stroke="white" stroke-width="0.464805"/>
<path d="M33.7842 64.3889L37.3878 57.9141" stroke="white" stroke-width="0.464805"/>
<path d="M25.9756 91.7266V50L26.8765 0" stroke="#7F7F7F" stroke-width="0.464805"/>
<path d="M27.4775 37.0488L27.7778 18.3438H28.6787L28.3784 37.0488H27.4775Z" fill="black"/>
<path d="M49.6997 37.0542L48.4985 39.2125H31.3814L30.4805 37.0542V14.752L31.3814 12.5938H48.4985L49.6997 14.752V37.0542Z" fill="#7F7F7F"/>
<path d="M49.0996 35.6143L48.1987 38.492L31.6822 37.7726L30.7812 35.6143V16.1899L31.6822 13.6719H48.1987L49.0996 15.4704V35.6143Z" fill="#333333"/>
<path d="M39.4893 34.1735L44.8947 24.1016" stroke="#7F7F7F" stroke-width="0.464805"/>
<path d="M36.4863 34.1704L43.6935 19.0625" stroke="#7F7F7F" stroke-width="0.464805"/>
<path d="M34.3848 24.1002L38.2887 17.2656" stroke="#7F7F7F" stroke-width="0.464805"/>
<path d="M135.886 133.454H143.093V108.274L107.958 99.6407V57.9141H104.654V108.274L135.886 116.907V133.454Z" fill="white"/>
<path d="M143.093 108.274L107.958 99.6406L104.654 108.274L135.886 116.907L143.093 108.274Z" fill="#F2F2F2"/>
<path d="M135.886 133.454H143.093V108.274L107.958 99.6407V57.9141H104.654V108.274L135.886 116.907V133.454Z" stroke="black" stroke-width="0.464805"/>
<path d="M113.364 66.5466L95.9463 64.3883V28.7768L113.364 25.1797V66.5466Z" fill="#7F7F7F" stroke="black" stroke-width="0.464805"/>
<path d="M113.363 66.5466L119.369 64.3883V28.7768L113.363 25.1797V66.5466Z" fill="#E5E5E5" stroke="black" stroke-width="0.464805"/>
<path d="M108.859 57.9101L96.8467 56.4713V31.2914L108.859 28.7734V57.9101Z" fill="#333333"/>
<path d="M96.8467 57.9141L111.561 60.0723" stroke="#CCCCCC" stroke-width="0.464805"/>
<path d="M115.165 60.0722L116.066 57.9139V34.8923L115.165 33.0938" stroke="black" stroke-width="0.464805"/>
<path d="M135.886 116.907V108.273H143.093" stroke="black" stroke-width="0.464805"/>
<path d="M135.886 119.062H143.093" stroke="#7F7F7F" stroke-width="0.464805"/>
<path d="M145.646 53.5953H135.286V45.6816L130.781 33.0917V26.9766H145.646V53.5953Z" fill="#E5E5E5"/>
<path d="M145.646 45.6837H143.844V33.0938H145.646V45.6837Z" fill="#B2B2B2"/>
<path d="M137.538 45.6837H135.286L130.781 33.0938H137.088L137.538 45.6837Z" fill="#B2B2B2"/>
<path d="M145.646 53.5953H135.286V45.6816L130.781 33.0917V26.9766H145.646V53.5953Z" stroke="black" stroke-width="0.464805"/>
<path d="M130.78 30.5737H128.979L127.177 28.7751L128.979 26.9766H130.78V30.5737Z" fill="black"/>
<path d="M147.148 34.8943H145.346V22.6641H147.148V34.8943Z" fill="#B2B2B2" stroke="black" stroke-width="0.464805"/>
</g>
<defs>
<clipPath id="clip0_2109_197649">
<rect width="150" height="150" fill="white"/>
</clipPath>
</defs>
</svg>
