<svg width="150" height="150" viewBox="0 0 150 150" fill="none" xmlns="http://www.w3.org/2000/svg">
<g clip-path="url(#clip0_2109_194720)">
<path d="M15.1201 75.8281H134.88V110.963H15.1201V75.8281Z" fill="#666666" stroke="black" stroke-width="0.321241"/>
<path d="M5.1543 144.444L17.8691 128.078H132.13L144.501 144.444H5.1543Z" fill="#999999" stroke="black" stroke-width="0.321241"/>
<path d="M3.43652 144.445H146.564V146.698H3.43652V144.445Z" fill="#B2B2B2" stroke="black" stroke-width="0.321241"/>
<path d="M17.8691 148.499V0H132.13V148.499H17.8691Z" fill="#7F7F7F" stroke="black" stroke-width="0.321241"/>
<path d="M28.3506 24.7734H121.478V112.461H28.3506V24.7734Z" fill="#666666"/>
<path d="M28.3506 106.156H121.478V112.463H28.3506V106.156Z" fill="#333333"/>
<path d="M28.3506 24.7734H121.478V31.0797H28.3506V24.7734Z" fill="#333333"/>
<path d="M28.3506 24.7734H121.478V112.461H28.3506V24.7734Z" stroke="black" stroke-width="0.321241"/>
<path d="M28.3506 117.266H121.478V148.497H28.3506V117.266Z" fill="#666666"/>
<path d="M28.3506 139.487L121.478 126.273V148.496H28.3506V139.487Z" fill="#616161"/>
<path d="M28.3506 140.69L121.478 127.477V148.498H28.3506V140.69Z" fill="#5C5C5C"/>
<path d="M28.3506 142.493L121.478 129.43V148.499H28.3506V142.493Z" fill="#575757"/>
<path d="M28.3506 117.266H121.478V120.269H28.3506V117.266Z" fill="#4C4C4C"/>
<path d="M35.5674 21.7719V6.15625H53.4368" stroke="#B2B2B2" stroke-width="0.321241"/>
<path d="M96.3916 21.7719V6.15625H114.261" stroke="#B2B2B2" stroke-width="0.321241"/>
<path d="M28.3506 81.2344H121.478V87.5407H28.3506V81.2344Z" fill="#E54C00"/>
<path d="M32.3025 77.9297H117.698L121.478 81.233H28.3506L32.3025 77.9297Z" fill="#FF6600"/>
<path d="M31.7871 42.1909H46.2201V24.7734H56.873V42.1909H92.9555L92.6119 24.7734H103.608V42.1909H118.041V74.9236H31.7871V42.1909Z" fill="#CC3300" stroke="black" stroke-width="0.321241"/>
<path d="M96.3916 21.7719H114.261V6.15625" stroke="#4C4C4C" stroke-width="0.321241"/>
<path d="M35.5674 21.7719H53.4368V6.15625" stroke="#4C4C4C" stroke-width="0.321241"/>
<path d="M44.3304 18.4656C47.2721 18.4656 49.6568 16.3816 49.6568 13.8109C49.6568 11.2402 47.2721 9.15625 44.3304 9.15625C41.3886 9.15625 39.0039 11.2402 39.0039 13.8109C39.0039 16.3816 41.3886 18.4656 44.3304 18.4656Z" stroke="#666666" stroke-width="0.321241"/>
<path d="M105.155 18.4656C108.096 18.4656 110.481 16.3816 110.481 13.8109C110.481 11.2402 108.096 9.15625 105.155 9.15625C102.213 9.15625 99.8281 11.2402 99.8281 13.8109C99.8281 16.3816 102.213 18.4656 105.155 18.4656Z" stroke="#666666" stroke-width="0.321241"/>
<path d="M36.2539 20.4219H37.2848V21.0225H36.2539V20.4219Z" fill="#333333"/>
<path d="M36.2539 6.75781H37.2848V7.80886H36.2539V6.75781Z" fill="#333333"/>
<path d="M51.375 6.75781H52.4059V7.80886H51.375V6.75781Z" fill="#333333"/>
<path d="M51.375 20.4219H52.4059V21.0225H51.375V20.4219Z" fill="#333333"/>
<path d="M97.0791 20.4219H98.11V21.0225H97.0791V20.4219Z" fill="#333333"/>
<path d="M97.0791 6.75781H98.11V7.80886H97.0791V6.75781Z" fill="#333333"/>
<path d="M112.543 6.75781H113.23V7.80886H112.543V6.75781Z" fill="#333333"/>
<path d="M112.543 20.4219H113.23V21.0225H112.543V20.4219Z" fill="#333333"/>
<path d="M35.5674 123.273H45.1894V128.078H35.5674V123.273Z" fill="#999999"/>
<path d="M35.5674 124.172H45.1894V125.073H35.5674V124.172Z" fill="#CC590D"/>
<path d="M97.0791 67.1172H99.141V74.925H97.0791V67.1172Z" fill="black"/>
<path d="M74.0547 67.1172H75.7729V74.925H74.0547V67.1172Z" fill="black"/>
<path d="M50.6875 67.1172H52.4057V74.925H50.6875V67.1172Z" fill="black"/>
<path d="M114.948 117.266H117.697V118.767H114.948V117.266Z" fill="black"/>
<path d="M89.1748 117.266H91.9239V118.767H89.1748V117.266Z" fill="black"/>
<path d="M57.9033 117.266H60.6525V118.767H57.9033V117.266Z" fill="black"/>
<path d="M31.7871 117.266H34.5363V118.767H31.7871V117.266Z" fill="black"/>
<path d="M6.87305 141.289H8.41944V144.442H6.87305V141.289Z" fill="black"/>
<path d="M141.065 141.289H142.784V144.442H141.065V141.289Z" fill="black"/>
<path d="M35.5674 42.1915V39.7891H92.6121V42.1915H35.5674Z" fill="#E54C00" stroke="black" stroke-width="0.321241"/>
<path d="M106.013 42.1909L105.326 39.7885L108.075 32.5812L113.23 24.7734H117.697V42.1909H106.013Z" fill="#E54C00" stroke="black" stroke-width="0.321241"/>
<path d="M28.3506 87.5391H34.5362V103.155H28.3506V87.5391Z" fill="#191919"/>
<path d="M115.292 87.5391H121.478V103.155H115.292V87.5391Z" fill="#191919"/>
<path d="M71.3057 24.7734H78.5222V39.7885H71.3057V24.7734Z" fill="#666666" stroke="black" stroke-width="0.321241"/>
<path d="M124.914 18.6172H128.694V112.461H124.914V18.6172Z" fill="#666666" stroke="black" stroke-width="0.321241"/>
<path d="M21.3057 18.6172H24.7421V112.461H21.3057V18.6172Z" fill="#666666" stroke="black" stroke-width="0.321241"/>
<path d="M72.3369 24.7734H77.4916V39.7885H72.3369V24.7734Z" fill="#B2B2B2"/>
<path d="M125.602 18.6172H128.007V112.461H125.602V18.6172Z" fill="#B2B2B2"/>
<path d="M21.4775 18.6172H24.2267V112.461H21.4775V18.6172Z" fill="#B2B2B2"/>
<path d="M74.0547 24.7734H75.7729V39.7885H74.0547V24.7734Z" fill="#E5E5E5"/>
<path d="M22.6807 18.6172H23.5398V112.461H22.6807V18.6172Z" fill="#E5E5E5"/>
<path d="M126.289 18.6172H127.32V112.461H126.289V18.6172Z" fill="#E5E5E5"/>
<path d="M129.381 77.9249H124.914V74.9219H24.9137V77.9249H20.6182V84.2312H24.9137V96.8438H28.3501V77.9249H121.477V84.2312H129.381V77.9249Z" fill="#FFCC00"/>
<path d="M20.1035 103.153H24.7427V106.156H124.915V103.153H129.382V96.847H124.915V84.2344H121.478V103.153H28.3509V96.847H20.1035V103.153Z" fill="#FFCC00"/>
<path d="M20.1035 96.8438V103.15H24.7427V106.153H124.915V103.15H129.382V96.8438H124.915V84.2312H129.382V77.9249H124.915V74.9219H24.9145V77.9249H20.619V84.2312H24.9145V96.8438H20.1035Z" stroke="black" stroke-width="0.321241"/>
<path d="M28.3506 77.9297H121.478V103.155H28.3506V77.9297Z" stroke="black" stroke-width="0.321241"/>
<path d="M28.3506 87.5391H121.478" stroke="black" stroke-width="0.321241"/>
<path d="M17.8691 148.5H132.13V150.002H17.8691V148.5Z" fill="black"/>
<path d="M28.3506 117.266H121.478V148.497H28.3506V117.266Z" stroke="black" stroke-width="0.321241"/>
<path d="M133.849 146.695H150V149.999H133.849V146.695Z" fill="#FFB27F" stroke="black" stroke-width="0.321241"/>
<path d="M0 146.695H15.8076V149.999H0V146.695Z" fill="#FFB27F" stroke="black" stroke-width="0.321241"/>
<path d="M138.316 146.695H145.533V149.999H138.316V146.695Z" fill="#FFD9BF"/>
<path d="M4.46777 146.695H11.1688V149.999H4.46777V146.695Z" fill="#FFD9BF"/>
<path d="M20.1035 3H34.5365V18.6156H20.1035V3Z" fill="#333333" stroke="#999999" stroke-width="0.321241"/>
<path d="M114.948 3H129.381V18.6156H114.948V3Z" fill="#333333" stroke="#999999" stroke-width="0.321241"/>
</g>
<defs>
<clipPath id="clip0_2109_194720">
<rect width="150" height="150" fill="white"/>
</clipPath>
</defs>
</svg>
