<svg width="150" height="150" viewBox="0 0 150 150" fill="none" xmlns="http://www.w3.org/2000/svg">
<g clip-path="url(#clip0_2109_200007)">
<path d="M81.1628 34.3874V31.2343H74.0986V25.0781H87.4754V34.3874H81.1628Z" fill="#99CCCC"/>
<path d="M67.9357 11.7156V8.56241H115.581V2.40625H61.623V11.7156H67.9357Z" fill="#99CCCC"/>
<path d="M82.8161 34.3859V29.7313H74.0986V26.5781H85.8221V34.3859H82.8161Z" fill="#CCFFFF"/>
<path d="M66.4326 11.7141V7.0594H115.581V3.90625H63.126V11.7141H66.4326Z" fill="#CCFFFF"/>
<path d="M64.7793 10.9618V5.40625H115.581" stroke="white" stroke-width="0.300451"/>
<path d="M84.3185 33.4835V28.0781H74.8496" stroke="white" stroke-width="0.300451"/>
<path d="M81.1628 34.3874V31.2343H74.0986V25.0781H87.4754V34.3874H81.1628Z" stroke="black" stroke-width="0.300451"/>
<path d="M67.9357 11.7156V8.56241H115.581V2.40625H61.623V11.7156H67.9357Z" stroke="black" stroke-width="0.300451"/>
<path d="M87.4747 34.3828V49.9984H81.1621V34.3828H87.4747Z" fill="#7F7F7F"/>
<path d="M74.8496 2.40625H90.6312V8.56241H74.8496V2.40625Z" fill="#7F7F7F"/>
<path d="M87.0241 34.3828V49.9984H81.6133V34.3828H87.0241Z" fill="#999999"/>
<path d="M74.8496 2.70312H90.6312V8.25868H74.8496V2.70312Z" fill="#999999"/>
<path d="M86.4233 34.3828V49.9984H82.2148V34.3828H86.4233Z" fill="#B2B2B2"/>
<path d="M74.8496 3.45312H90.6312V7.50718H74.8496V3.45312Z" fill="#B2B2B2"/>
<path d="M85.6712 34.3828V49.9984H82.9658V34.3828H85.6712Z" fill="#CCCCCC"/>
<path d="M74.8496 4.05469H90.6312V6.90754H74.8496V4.05469Z" fill="#CCCCCC"/>
<path d="M85.3709 34.3828V49.9984H83.417V34.3828H85.3709Z" fill="#E5E5E5"/>
<path d="M74.8496 4.65625H90.6312V6.3079H74.8496V4.65625Z" fill="#E5E5E5"/>
<path d="M84.77 34.3828V49.9984H83.8682V34.3828H84.77Z" fill="white"/>
<path d="M74.8496 5.10156H90.6312V5.85231H74.8496V5.10156Z" fill="white"/>
<path d="M24.9502 149.102H128.207V149.852H24.9502V149.102Z" fill="#003333"/>
<path d="M5.41113 46.8438H74.0985V49.9969H5.41113V46.8438Z" fill="#003333"/>
<path d="M5.41113 46.8483V9.46094H74.0985V46.8483H5.41113Z" fill="#669999"/>
<path d="M2.40527 50.0001V6.15625H5.41129V50.0001H2.40527Z" fill="#669999"/>
<path d="M5.41113 44.1478V12.0156H74.0985V44.1478H5.41113Z" fill="#78ABAB"/>
<path d="M2.25488 46.85V9.3125H5.4112V46.85H2.25488Z" fill="#78ABAB"/>
<path d="M5.41113 41.5895V14.5625H74.0985V41.5895H5.41113Z" fill="#87BABA"/>
<path d="M2.25488 43.844V12.3125H5.4112V43.844H2.25488Z" fill="#87BABA"/>
<path d="M5.41113 39.0391V17.1172H74.0985V39.0391H5.41113Z" fill="#99CCCC"/>
<path d="M2.25488 40.838V15.3125H5.4112V40.838H2.25488Z" fill="#99CCCC"/>
<path d="M5.41113 36.4887V19.6719H74.0985V36.4887H5.41113Z" fill="#ABDEDE"/>
<path d="M2.25488 37.8398V18.3203H5.4112V37.8398H2.25488Z" fill="#ABDEDE"/>
<path d="M5.41113 33.7803V22.2188H74.0985V33.7803H5.41113Z" fill="#BAEDED"/>
<path d="M2.25488 34.8338V21.3203H5.4112V34.8338H2.25488Z" fill="#BAEDED"/>
<path d="M5.41113 31.2282V24.9219H74.0985V31.2282H5.41113Z" fill="#CCFFFF"/>
<path d="M2.40527 31.8339V24.4766H5.41129V31.8339H2.40527Z" fill="#CCFFFF"/>
<path d="M132.565 149.7H123.847L116.332 148.198L111.974 145.195V4.5045L116.332 1.65165L123.847 0H132.565L140.08 1.65165L144.288 4.5045V145.195L140.08 148.198L132.565 149.7Z" fill="#78ABAB"/>
<path d="M131.814 149.7H124.6L118.287 148.198L114.68 145.195V4.5045L118.287 1.65165L124.6 0H131.814L138.127 1.65165L141.734 4.5045V145.195L138.127 148.198L131.814 149.7Z" fill="#87BABA"/>
<path d="M131.062 149.7H125.2L120.09 148.198L117.234 145.195V4.5045L120.09 1.65165L125.2 0H131.062L136.172 1.65165L139.178 4.5045V145.195L136.172 148.198L131.062 149.7Z" fill="#99CCCC"/>
<path d="M130.461 149.7H125.952L122.045 148.198L119.79 145.195V4.5045L122.045 1.65165L125.952 0H130.461L134.369 1.65165L136.624 4.5045V145.195L134.369 148.198L130.461 149.7Z" fill="#ABDEDE"/>
<path d="M129.709 149.7H126.553L123.998 148.198L122.345 145.195V4.5045L123.998 1.65165L126.553 0H129.709L132.415 1.65165L133.918 4.5045V145.195L132.415 148.198L129.709 149.7Z" fill="#BAEDED"/>
<path d="M123.397 50H0V93.6937L24.9499 112.462V146.697H118.737V81.2312H123.397V50Z" fill="#BAEDED"/>
<path d="M12.4746 103.006L24.9496 112.466V146.7H118.737V81.2345H123.396V65.4688L12.4746 103.006Z" fill="#B5E8E8"/>
<path d="M18.6377 107.806L24.9503 112.461V146.695H118.738V81.2297H123.397V73.4219L18.6377 107.806Z" fill="#B0E3E3"/>
<path d="M24.9502 112.466V149.102H118.738V81.2344L24.9502 112.466Z" fill="#ABDEDE"/>
<path d="M118.737 149.102V81.2344H123.397" stroke="#669999" stroke-width="0.300451"/>
<path d="M106.263 12.4609H150V15.6141H106.263V12.4609Z" fill="#669999"/>
<path d="M109.419 12.4609H146.994V15.4639H109.419V12.4609Z" fill="#78ABAB"/>
<path d="M112.274 12.4609H143.988V15.4639H112.274V12.4609Z" fill="#87BABA"/>
<path d="M115.28 12.4609H140.831V15.4639H115.28V12.4609Z" fill="#99CCCC"/>
<path d="M118.437 12.4609H137.976V15.4639H118.437V12.4609Z" fill="#ABDEDE"/>
<path d="M121.443 12.4609H134.82V15.4639H121.443V12.4609Z" fill="#BAEDED"/>
<path d="M124.449 12.4609H131.814V15.6141H124.449V12.4609Z" fill="#CCFFFF"/>
<path d="M128.206 18.7703L126.553 17.1187L128.206 15.6172L129.709 17.1187L128.206 18.7703Z" stroke="#336666" stroke-width="0.300451"/>
<path d="M128.206 18.7656V28.0749" stroke="#336666" stroke-width="0.300451"/>
<path d="M129.709 23.4266L128.056 21.7749L129.709 20.2734L131.212 21.7749L129.709 23.4266Z" stroke="#336666" stroke-width="0.300451"/>
<path d="M119.489 109.312H146.092" stroke="#336666" stroke-width="0.300451"/>
<path d="M119.489 110.062H146.092" stroke="#CCFFFF" stroke-width="0.300451"/>
<path d="M106.263 12.4609H150V15.6141H106.263V12.4609Z" stroke="black" stroke-width="0.300451"/>
<path d="M123.397 50H0V93.6937L24.9499 112.462V149.099H118.737" stroke="black" stroke-width="0.300451"/>
<path d="M24.9496 81.0812C31.8393 81.0812 37.4245 75.5015 37.4245 68.6187C37.4245 61.7359 31.8393 56.1562 24.9496 56.1562C18.0598 56.1562 12.4746 61.7359 12.4746 68.6187C12.4746 75.5015 18.0598 81.0812 24.9496 81.0812Z" fill="#99CCCC"/>
<path d="M105.36 52.4062H121.893V57.0609H105.36V52.4062Z" fill="white"/>
<path d="M75.752 120.117H87.4754V124.922H75.752V120.117Z" fill="white"/>
<path d="M140.832 24.1719H146.093V27.7755H140.832V24.1719Z" fill="white"/>
<path d="M82.0645 120.719H87.0244V124.322H82.0645V120.719Z" fill="black"/>
<path d="M77.2549 121.773H80.1106" stroke="black" stroke-width="0.300451"/>
<path d="M5.41113 9.3125H74.0985V46.85H5.41113V9.3125Z" stroke="black" stroke-width="0.300451"/>
<path d="M2.25488 6.15625H5.4112V50.0001H2.25488V6.15625Z" stroke="black" stroke-width="0.300451"/>
<path d="M49.8994 28.0781H52.3042V50H49.8994V28.0781Z" fill="#CCFFFF"/>
<path d="M49.8994 28.0781V50H52.3042V28.0781" stroke="#336666" stroke-width="0.300451"/>
<path d="M87.4747 34.3828V49.9984H81.1621V34.3828H87.4747Z" stroke="black" stroke-width="0.300451"/>
<path d="M74.8496 2.40625H90.6312V8.56241H74.8496V2.40625Z" stroke="black" stroke-width="0.300451"/>
<path d="M90.6309 0V10.961H93.7872V0H90.6309Z" fill="#99CCCC"/>
<path d="M90.6309 1.64844V9.3061H93.7872V1.64844H90.6309Z" fill="#B2E5E5"/>
<path d="M90.6309 3.15625V7.8109H93.7872V3.15625H90.6309Z" fill="#CCFFFF"/>
<path d="M90.6309 4.80469V6.15604H93.7872V4.80469H90.6309Z" fill="white"/>
<path d="M90.6309 0V10.961H93.7872V0H90.6309Z" stroke="black" stroke-width="0.300451"/>
<path d="M92.1338 10.961V0" stroke="#336666" stroke-width="0.300451"/>
<path d="M29.6093 36.6389L26.3027 31.2335L29.6093 25.8281H35.7717L39.0783 31.2335L35.7717 36.6389H29.6093Z" fill="#E5E5E5"/>
<path d="M112.726 108.555H117.836V112.158H112.726V108.555Z" fill="#7F7F7F"/>
</g>
<defs>
<clipPath id="clip0_2109_200007">
<rect width="150" height="150" fill="white"/>
</clipPath>
</defs>
</svg>
