<svg width="150" height="150" viewBox="0 0 150 150" fill="none" xmlns="http://www.w3.org/2000/svg">
<g clip-path="url(#clip0_2109_199562)">
<path d="M19.3691 144.103H117.267L143.243 111.671H150V104.3H143.243L104.354 79.9754V16.2162H97.7475V0H91.1409V48.2801H19.3691V144.103Z" fill="#333333" stroke="black" stroke-width="0.47048"/>
<path d="M14.5645 119.78V48.2812H91.141V119.78H14.5645Z" fill="#191919"/>
<path d="M70.1201 119.779V71.8672H86.3363V119.779H70.1201Z" fill="#333333"/>
<path d="M9.91016 8.10938V104.301H16.0663V88.0848H65.3156V104.301H71.6219V8.10938H65.3156V24.3256H16.0663V8.10938H9.91016Z" fill="#4C4C4C"/>
<path d="M9.91016 14.375V96.9303H16.3666V83.6625H65.3156V96.9303H71.6219V14.375H65.3156V28.3799H16.3666V14.375H9.91016Z" fill="#595959"/>
<path d="M9.91016 21.0078V90.2953H16.3666V79.2388H65.3156V90.2953H71.6219V21.0078H65.3156V32.8014H16.3666V21.0078H9.91016Z" fill="#666666"/>
<path d="M9.91016 27.6406V83.6603H16.3666V74.8151H65.3156V83.6603H71.6219V27.6406H65.3156V37.5915H16.3666V27.6406H9.91016Z" fill="#737373"/>
<path d="M9.91016 34.2734V77.0253H16.3666V69.6543H65.3156V77.0253H71.6219V34.2734H65.3156V41.6444H16.3666V34.2734H9.91016Z" fill="#7F7F7F"/>
<path d="M9.91016 40.9062V70.3903H16.3666V65.9677H65.3156V70.3903H71.6219V40.9062H65.3156V46.066H16.3666V40.9062H9.91016Z" fill="#8C8C8C"/>
<path d="M9.91016 47.5469V63.7631H16.0663V61.5518H65.3156V63.7631H71.6219V47.5469H65.3156V50.4953H16.0663V47.5469H9.91016Z" fill="#999999"/>
<path d="M9.91016 8.10938V104.301H16.0663V88.0848H65.3156V104.301H71.6219V8.10938H65.3156V24.3256H16.0663V8.10938H9.91016Z" stroke="black" stroke-width="0.47048"/>
<path d="M6.60645 104.297H19.3692V140.415H6.60645V104.297Z" fill="#666666"/>
<path d="M6.60645 104.297H19.3692V124.199H6.60645V104.297Z" fill="#7F7F7F"/>
<path d="M6.60645 104.297H19.3692V116.09H6.60645V104.297Z" fill="#999999"/>
<path d="M6.60645 104.297H19.3692V107.982H6.60645V104.297Z" fill="#B2B2B2"/>
<path d="M6.60645 104.297H19.3692V140.415H6.60645V104.297Z" stroke="black" stroke-width="0.47048"/>
<path d="M0 48.2812H9.90991V63.7604H0V48.2812Z" fill="#191919"/>
<path d="M4.6543 48.2812H6.60625V63.7604H4.6543V48.2812Z" fill="#7F7F7F"/>
<path d="M65.0146 141.158V127.891H73.4231" stroke="#999999" stroke-width="0.47048"/>
<path d="M65.0146 141.158H73.4231V127.891" stroke="black" stroke-width="0.47048"/>
<path d="M19.3691 144.106V51.9688H63.5133V144.106H19.3691Z" fill="#4C4C4C" stroke="black" stroke-width="0.47048"/>
<path d="M47.2969 135.997V124.203H60.2098V135.997H47.2969Z" fill="#CCCCCC"/>
<path d="M62.0116 119.776H25.9756V55.6484" stroke="black" stroke-width="0.47048"/>
<path d="M55.4053 119.776V55.6484" stroke="black" stroke-width="0.47048"/>
<path d="M25.9756 119.781V140.42" stroke="black" stroke-width="0.47048"/>
<path d="M97.7482 64.1277C101.397 64.1277 104.355 56.8675 104.355 47.9115C104.355 38.9556 101.397 31.6953 97.7482 31.6953C94.0995 31.6953 91.1416 38.9556 91.1416 47.9115C91.1416 56.8675 94.0995 64.1277 97.7482 64.1277Z" stroke="#999999" stroke-width="0.47048"/>
<path d="M97.748 63.7631V47.5469" stroke="#999999" stroke-width="0.47048"/>
<path d="M97.748 63.7631V47.5469" stroke="#999999" stroke-width="0.47048"/>
<path d="M104.054 52.7066L97.748 47.5469" stroke="#999999" stroke-width="0.47048"/>
<path d="M101.652 35.0156L97.748 47.5463" stroke="#999999" stroke-width="0.47048"/>
<path d="M93.8438 35.0156L97.7477 47.5463" stroke="#999999" stroke-width="0.47048"/>
<path d="M91.4414 52.7066L97.7477 47.5469" stroke="#999999" stroke-width="0.47048"/>
<path d="M74.9248 141.158V127.891H83.0329" stroke="#999999" stroke-width="0.47048"/>
<path d="M74.9248 141.158H83.0329V127.891" stroke="black" stroke-width="0.47048"/>
<path d="M65.0146 124.203H131.982" stroke="black" stroke-width="0.47048"/>
<path d="M94.4443 107.982V104.297H143.243V107.982H94.4443Z" fill="#666666"/>
<path d="M94.4443 99.8737V91.7656H131.982V99.8737H94.4443Z" fill="#7F7F7F"/>
<path d="M99.3993 92.1368C102.136 92.1368 104.354 86.6916 104.354 79.9747C104.354 73.2577 102.136 67.8125 99.3993 67.8125C96.6627 67.8125 94.4443 73.2577 94.4443 79.9747C94.4443 86.6916 96.6627 92.1368 99.3993 92.1368Z" stroke="#999999" stroke-width="0.47048"/>
<path d="M99.5498 91.7702V79.9766" stroke="#999999" stroke-width="0.47048"/>
<path d="M99.5498 91.7702V79.9766" stroke="#999999" stroke-width="0.47048"/>
<path d="M104.054 83.6621L99.5498 79.9766" stroke="#999999" stroke-width="0.47048"/>
<path d="M102.253 70.3906L99.5498 79.9729" stroke="#999999" stroke-width="0.47048"/>
<path d="M96.5469 70.3906L99.5499 79.9729" stroke="#999999" stroke-width="0.47048"/>
<path d="M94.7451 83.6621L99.5499 79.9766" stroke="#999999" stroke-width="0.47048"/>
<path d="M104.354 91.7669V68.1797H112.463V91.7669H104.354Z" fill="#666666"/>
<path d="M65.0146 121.992H131.982" stroke="#666666" stroke-width="0.47048"/>
<path d="M90.2402 150.004L96.2462 96.1953" stroke="#999999" stroke-width="0.47048"/>
<path d="M82.1318 116.094L104.354 130.836" stroke="#999999" stroke-width="0.47048"/>
<path d="M83.333 137.471L103.153 109.461" stroke="#999999" stroke-width="0.47048"/>
<path d="M87.5371 99.1406L98.9485 147.789" stroke="#999999" stroke-width="0.47048"/>
<path d="M93.2429 142.999C97.7209 142.999 101.351 134.088 101.351 123.097C101.351 112.106 97.7209 103.195 93.2429 103.195C88.7649 103.195 85.1348 112.106 85.1348 123.097C85.1348 134.088 88.7649 142.999 93.2429 142.999Z" stroke="#999999" stroke-width="0.47048"/>
<path d="M0 48.2812H9.90991V63.7604H0V48.2812Z" stroke="black" stroke-width="0.47048"/>
</g>
<defs>
<clipPath id="clip0_2109_199562">
<rect width="150" height="150" fill="white"/>
</clipPath>
</defs>
</svg>
