<svg width="150" height="150" viewBox="0 0 150 150" fill="none" xmlns="http://www.w3.org/2000/svg">
<g clip-path="url(#clip0_2109_199617)">
<path d="M9.15918 0H13.6637V59.201H9.15918V0Z" fill="#98B27F" stroke="black" stroke-width="0.46705"/>
<path d="M14.5645 118.401L131.381 111.138V98.0625H14.5645V118.401Z" fill="#193300"/>
<path d="M14.5645 61.3828H36.9368V98.0656H14.5645V61.3828Z" fill="#B2CC99"/>
<path d="M14.5645 79.1763L36.9368 64.6484V98.0625H14.5645V79.1763Z" fill="#ADC794"/>
<path d="M14.5645 84.9848L36.9368 70.0938V98.0599H14.5645V84.9848Z" fill="#A8C28F"/>
<path d="M14.5645 90.8011L36.9368 75.5469V98.065H14.5645V90.8011Z" fill="#A3BD8A"/>
<path d="M36.9365 61.3828H59.6092V98.0656H36.9365V61.3828Z" fill="#B2CC99"/>
<path d="M36.9365 79.1763L59.6092 64.6484V98.0625H36.9365V79.1763Z" fill="#ADC794"/>
<path d="M36.9365 84.9848L59.6092 70.0938V98.0599H36.9365V84.9848Z" fill="#A8C28F"/>
<path d="M36.9365 90.8011L59.6092 75.5469V98.065H36.9365V90.8011Z" fill="#A3BD8A"/>
<path d="M59.6094 61.3828H82.1319V98.0656H59.6094V61.3828Z" fill="#B2CC99"/>
<path d="M59.6094 79.1763L82.1319 64.6484V98.0625H59.6094V79.1763Z" fill="#ADC794"/>
<path d="M59.6094 84.9848L82.1319 70.0938V98.0599H59.6094V84.9848Z" fill="#A8C28F"/>
<path d="M59.6094 90.8011L82.1319 75.5469V98.065H59.6094V90.8011Z" fill="#A3BD8A"/>
<path d="M82.1318 61.3828H104.805V98.0656H82.1318V61.3828Z" fill="#B2CC99"/>
<path d="M82.1318 79.1763L104.805 64.6484V98.0625H82.1318V79.1763Z" fill="#ADC794"/>
<path d="M82.1318 84.9848L104.805 70.0938V98.0599H82.1318V84.9848Z" fill="#A8C28F"/>
<path d="M82.1318 90.8011L104.805 75.5469V98.065H82.1318V90.8011Z" fill="#A3BD8A"/>
<path d="M104.805 61.3828H127.177V98.0656H104.805V61.3828Z" fill="#B2CC99"/>
<path d="M104.805 79.1763L127.177 64.6484V98.0625H104.805V79.1763Z" fill="#ADC794"/>
<path d="M104.805 84.9848L127.177 70.0938V98.0599H104.805V84.9848Z" fill="#A8C28F"/>
<path d="M104.805 90.8011L127.177 75.5469V98.065H104.805V90.8011Z" fill="#A3BD8A"/>
<path d="M127.177 61.3828H150V98.0656H127.177V61.3828Z" fill="#B2CC99"/>
<path d="M127.177 79.1763L150 64.6484V98.0625H127.177V79.1763Z" fill="#ADC794"/>
<path d="M127.177 84.9848L150 70.0938V98.0599H127.177V84.9848Z" fill="#A8C28F"/>
<path d="M127.177 90.8011L150 75.5469V98.065H127.177V90.8011Z" fill="#A3BD8A"/>
<path d="M2.25195 108.958H150V98.0625H2.25195V108.958Z" fill="#7F9966"/>
<path d="M2.25195 59.2031H14.5643V150.002H2.25195V59.2031Z" fill="#B2CC99"/>
<path d="M2.25195 99.5139L14.5643 92.25V149.998H2.25195V99.5139Z" fill="#ADC794"/>
<path d="M2.25195 110.412L14.5643 102.422V150.001H2.25195V110.412Z" fill="#A8C28F"/>
<path d="M2.25195 120.584L14.5643 112.594V150.003H2.25195V120.584Z" fill="#A3BD8A"/>
<path d="M14.5645 118.398H150V149.997H14.5645V118.398Z" fill="#98B27F"/>
<path d="M115.315 118.398H150V149.997H59.1592L115.315 118.398Z" fill="#91AB78"/>
<path d="M14.5645 118.398H150V149.997H14.5645V118.398Z" stroke="black" stroke-width="0.46705"/>
<path d="M131.982 36.6797H138.289V60.6506H131.982V36.6797Z" fill="#B2CC99" stroke="black" stroke-width="0.46705"/>
<path d="M133.784 22.1562H136.787V36.6841H133.784V22.1562Z" fill="#7F9966"/>
<path d="M134.084 22.1562H136.486V36.6841H134.084V22.1562Z" fill="#91AB78"/>
<path d="M134.385 22.1562H136.187V36.6841H134.385V22.1562Z" fill="#A5BF8C"/>
<path d="M134.685 22.1562H135.886V36.6841H134.685V22.1562Z" fill="#B7D19E"/>
<path d="M134.985 22.1562H135.586V36.6841H134.985V22.1562Z" fill="#CBE5B2"/>
<path d="M133.784 22.1562H136.787V36.6841H133.784V22.1562Z" stroke="black" stroke-width="0.46705"/>
<path d="M18.4688 135.109H22.9733V143.1H18.4688V135.109Z" fill="#193300"/>
<path d="M42.9434 135.109H47.7482V143.1H42.9434V135.109Z" fill="#193300"/>
<path d="M67.418 135.109H72.2228V143.1H67.418V135.109Z" fill="#193300"/>
<path d="M92.1924 135.109H96.6969V143.1H92.1924V135.109Z" fill="#193300"/>
<path d="M116.816 135.109H121.621V143.1H116.816V135.109Z" fill="#193300"/>
<path d="M141.291 135.109H146.096V143.1H141.291V135.109Z" fill="#193300"/>
<path d="M27.4775 68.2812H28.979V71.9132H27.4775V68.2812Z" fill="#193300"/>
<path d="M30.4805 79.1797H31.6817V82.8116H30.4805V79.1797Z" fill="#193300"/>
<path d="M21.7715 68.2812H23.273V71.9132H21.7715V68.2812Z" fill="#193300"/>
<path d="M19.0693 79.1797H20.2705V82.8116H19.0693V79.1797Z" fill="#193300"/>
<path d="M33.0332 90.7969H34.5347V94.4288H33.0332V90.7969Z" fill="#193300"/>
<path d="M16.0664 90.7969H17.5679V94.4288H16.0664V90.7969Z" fill="#193300"/>
<path d="M50.1504 68.2812H51.6519V71.9132H50.1504V68.2812Z" fill="#193300"/>
<path d="M53.1533 79.1797H54.3545V82.8116H53.1533V79.1797Z" fill="#193300"/>
<path d="M44.4443 68.2812H45.9458V71.9132H44.4443V68.2812Z" fill="#193300"/>
<path d="M41.7422 79.1797H42.9434V82.8116H41.7422V79.1797Z" fill="#193300"/>
<path d="M55.8555 90.7969H57.357V94.4288H55.8555V90.7969Z" fill="#193300"/>
<path d="M38.7383 90.7969H40.2398V94.4288H38.7383V90.7969Z" fill="#193300"/>
<path d="M72.8232 68.2812H74.3247V71.9132H72.8232V68.2812Z" fill="#193300"/>
<path d="M75.8262 79.1797H77.3277V82.8116H75.8262V79.1797Z" fill="#193300"/>
<path d="M67.1172 68.2812H68.6187V71.9132H67.1172V68.2812Z" fill="#193300"/>
<path d="M64.4141 79.1797H65.9156V82.8116H64.4141V79.1797Z" fill="#193300"/>
<path d="M78.5283 90.7969H80.0298V94.4288H78.5283V90.7969Z" fill="#193300"/>
<path d="M61.5615 90.7969H63.063V94.4288H61.5615V90.7969Z" fill="#193300"/>
<path d="M95.4951 68.2812H96.9966V71.9132H95.4951V68.2812Z" fill="#193300"/>
<path d="M98.498 79.1797H99.9995V82.8116H98.498V79.1797Z" fill="#193300"/>
<path d="M89.79 68.2812H91.2915V71.9132H89.79V68.2812Z" fill="#193300"/>
<path d="M87.2373 79.1797H88.7388V82.8116H87.2373V79.1797Z" fill="#193300"/>
<path d="M101.201 90.7969H102.703V94.4288H101.201V90.7969Z" fill="#193300"/>
<path d="M84.2344 90.7969H85.7359V94.4288H84.2344V90.7969Z" fill="#193300"/>
<path d="M118.619 68.2812H119.67V71.9132H118.619V68.2812Z" fill="#193300"/>
<path d="M121.171 79.1797H122.672V82.8116H121.171V79.1797Z" fill="#193300"/>
<path d="M112.913 68.2812H114.114V71.9132H112.913V68.2812Z" fill="#193300"/>
<path d="M109.91 79.1797H111.412V82.8116H109.91V79.1797Z" fill="#193300"/>
<path d="M124.174 90.7969H125.375V94.4288H124.174V90.7969Z" fill="#193300"/>
<path d="M106.907 90.7969H108.409V94.4288H106.907V90.7969Z" fill="#193300"/>
<path d="M141.291 68.2812H142.793V71.9132H141.291V68.2812Z" fill="#193300"/>
<path d="M143.994 79.1797H145.496V82.8116H143.994V79.1797Z" fill="#193300"/>
<path d="M135.586 68.2812H137.087V71.9132H135.586V68.2812Z" fill="#193300"/>
<path d="M132.582 79.1797H134.084V82.8116H132.582V79.1797Z" fill="#193300"/>
<path d="M146.847 90.7969H148.348V94.4288H146.847V90.7969Z" fill="#193300"/>
<path d="M129.88 90.7969H131.081V94.4288H129.88V90.7969Z" fill="#193300"/>
<path d="M3.75391 146.366V124.211H13.0632" stroke="#E5FFCC" stroke-width="0.46705"/>
<path d="M13.0632 124.211V146.366H3.75391" stroke="#7F9966" stroke-width="0.46705"/>
<path d="M36.9365 98.0656V61.3828" stroke="#7F9966" stroke-width="0.46705"/>
<path d="M59.6094 98.0656V61.3828" stroke="#7F9966" stroke-width="0.46705"/>
<path d="M82.1318 98.0656V61.3828" stroke="#7F9966" stroke-width="0.46705"/>
<path d="M104.805 98.0656V61.3828" stroke="#7F9966" stroke-width="0.46705"/>
<path d="M127.177 98.0656V61.3828" stroke="#7F9966" stroke-width="0.46705"/>
<path d="M14.5645 60.6562H150V108.961H14.5645V60.6562Z" stroke="black" stroke-width="0.46705"/>
<path d="M2.25195 59.2031H14.5643V150.002H2.25195V59.2031Z" stroke="black" stroke-width="0.46705"/>
<path d="M0 53.3906H12.1622V105.328H0V53.3906Z" fill="#B2CC99"/>
<path d="M0 76.632L12.1622 73V105.324H0V76.632Z" fill="#ADC794"/>
<path d="M0 82.8115L12.1622 78.4531V105.33H0V82.8115Z" fill="#A8C28F"/>
<path d="M0 88.6162L12.1622 84.2578V105.323H0V88.6162Z" fill="#A3BD8A"/>
<path d="M0 53.3906H12.1622V105.328H0V53.3906Z" stroke="black" stroke-width="0.46705"/>
</g>
<defs>
<clipPath id="clip0_2109_199617">
<rect width="150" height="150" fill="white"/>
</clipPath>
</defs>
</svg>
