<svg width="150" height="150" viewBox="0 0 150 150" fill="none" xmlns="http://www.w3.org/2000/svg">
<g clip-path="url(#clip0_2109_195800)">
<path d="M78.5283 70.5312H125.075V73.1803H78.5283V70.5312Z" fill="#E5CB98" stroke="black" stroke-width="0.445953"/>
<path d="M80.6309 73.1797H125.075V76.4909H80.6309V73.1797Z" fill="#663300" stroke="black" stroke-width="0.445953"/>
<path d="M0 0H66.5165V146.689H0V0Z" fill="#C78F1F"/>
<path d="M0 102.319L66.5165 53.3125V146.69H0V102.319Z" fill="#BF7F07"/>
<path d="M0 0H66.5165V146.689H0V0Z" stroke="black" stroke-width="0.445953"/>
<path d="M36.1862 122.185H30.1802L24.4745 118.874L19.6696 112.914L15.4654 103.642L12.4624 92.3838L10.9609 79.801V67.2182L12.4624 54.6355L15.4654 43.3772L19.3693 34.1056L24.4745 27.4831L30.1802 24.1719H36.1862L52.7027 34.1056V112.914L36.1862 122.185Z" fill="#CC9933"/>
<path d="M36.1866 122.189H30.1806L24.4749 118.877L19.6701 112.917L15.4659 103.646L12.4629 92.3873L52.7031 62.5859V112.917L36.1866 122.189Z" fill="#C4912B"/>
<path d="M36.1862 122.185H30.1802L24.4745 118.874L19.6696 112.914L15.4654 103.642L12.4624 92.3838L10.9609 79.801V67.2182L12.4624 54.6355L15.4654 43.3772L19.3693 34.1056L24.4745 27.4831L30.1802 24.1719H36.1862L52.7027 34.1056V112.914L36.1862 122.185Z" stroke="black" stroke-width="0.445953"/>
<path d="M31.9815 85.7611L30.1797 83.7744L28.3779 80.4631L27.7773 75.8273V71.1916L28.3779 66.5558L30.1797 63.2446L31.9815 61.2578H58.1077L58.408 63.9068H66.5161V85.7611H31.9815Z" fill="#663300" stroke="black" stroke-width="0.445953"/>
<path d="M50 76.4922H149.85V82.4525H50V76.4922Z" fill="#E5CB98"/>
<path d="M50 82.4531H149.85V150.003H50V82.4531Z" fill="#CC9933"/>
<path d="M58.4084 59.2734V9.27344H0.600586" stroke="#E5CB98" stroke-width="0.445953"/>
<path d="M149.85 89.7344V149.999H50V138.741L149.85 89.7344Z" fill="#C4912B"/>
<path d="M50 85.7578H149.85" stroke="#996600" stroke-width="0.445953"/>
<path d="M102.853 142.052V100.992H122.973" stroke="#E5CB98" stroke-width="0.445953"/>
<path d="M102.853 142.052H122.973V100.992" stroke="#996600" stroke-width="0.445953"/>
<path d="M53.3037 142.055H60.2106V148.677H53.3037V142.055Z" fill="#663300"/>
<path d="M139.489 142.055H146.246V148.677H139.489V142.055Z" fill="#663300"/>
<path d="M96.5469 142.055H103.454V148.677H96.5469V142.055Z" fill="#663300"/>
<path d="M50 148.672H149.85" stroke="#996600" stroke-width="0.445953"/>
<path d="M50 76.4922H149.85V150.002H50V76.4922Z" stroke="black" stroke-width="0.445953"/>
<path d="M50 76.4922H125.075V77.8167H50V76.4922Z" fill="#E5E5E5"/>
<path d="M50 76.4922H149.85V82.4525H50V76.4922Z" stroke="black" stroke-width="0.445953"/>
<path d="M122.072 39.4062H138.889V70.5321H122.072V39.4062Z" fill="#CC9933"/>
<path d="M138.889 70.5281H147.147V57.9453H149.85V76.4884H138.889V70.5281Z" fill="#E5CB98" stroke="black" stroke-width="0.445953"/>
<path d="M125.075 70.5312H136.186V82.4518H125.075V70.5312Z" fill="#996600" stroke="black" stroke-width="0.445953"/>
<path d="M122.072 63.9049L138.889 51.9844V70.5274H122.072V63.9049Z" fill="#C4912B"/>
<path d="M122.072 39.4062H138.889V70.5321H122.072V39.4062Z" stroke="black" stroke-width="0.445953"/>
<path d="M49.0996 12.5859H63.8143V28.8111H49.0996V12.5859Z" fill="#CCCCCC"/>
<path d="M17.5674 13.9092L16.9668 11.9224L17.5674 9.27344H18.7686L19.3692 11.9224L18.7686 13.9092H17.5674Z" fill="#663300"/>
<path d="M43.9942 13.9092L43.3936 11.9224L43.9942 9.27344H45.1954L45.796 11.9224L45.1954 13.9092H43.9942Z" fill="#663300"/>
<path d="M21.1714 79.8052L19.6699 74.5071L21.1714 68.5469H24.1744L25.3756 74.5071L24.1744 79.8052H21.1714Z" fill="#663300"/>
<path d="M32.583 77.8125H50.0004V81.1238H32.583V77.8125Z" fill="#CCB27F"/>
<path d="M32.583 76.4922H50.0004V77.8167H32.583V76.4922Z" fill="#B2B2B2"/>
<path d="M32.583 76.4922H50.0004V81.1279H32.583V76.4922Z" stroke="black" stroke-width="0.445953"/>
<path d="M45.7959 65.8906H66.5166V73.1754H45.7959V65.8906Z" fill="#997F4C"/>
<path d="M46.9971 65.8906H65.3154V73.1754H46.9971V65.8906Z" fill="#A38956"/>
<path d="M48.1982 65.8906H64.1142V73.1754H48.1982V65.8906Z" fill="#AB915E"/>
<path d="M49.3994 65.8906H62.9129V73.1754H49.3994V65.8906Z" fill="#B59B68"/>
<path d="M50.6006 65.8906H61.7117V73.1754H50.6006V65.8906Z" fill="#BFA572"/>
<path d="M51.8018 65.2344H60.5105V73.1814H51.8018V65.2344Z" fill="#C9AF7C"/>
<path d="M53.0029 65.2344H59.3092V73.1814H53.0029V65.2344Z" fill="#D1B784"/>
<path d="M54.2041 65.2344H58.108V73.1814H54.2041V65.2344Z" fill="#DBC18E"/>
<path d="M55.4053 65.8906H56.9068V73.1754H55.4053V65.8906Z" fill="#E5CB98"/>
<path d="M46.9971 65.8906H47.898V70.5264H46.9971V65.8906Z" fill="#663300"/>
<path d="M49.3994 65.8906H50V70.5264H49.3994V65.8906Z" fill="#663300"/>
<path d="M51.502 65.8906H52.1026V70.5264H51.502V65.8906Z" fill="#663300"/>
<path d="M53.6035 65.8906H54.5044V70.5264H53.6035V65.8906Z" fill="#663300"/>
<path d="M55.7061 65.8906H56.607V70.5264H55.7061V65.8906Z" fill="#663300"/>
<path d="M58.1084 65.8906H58.709V70.5264H58.1084V65.8906Z" fill="#663300"/>
<path d="M60.21 65.8906H60.8106V70.5264H60.21V65.8906Z" fill="#663300"/>
<path d="M62.3125 65.8906H62.9131V70.5264H62.3125V65.8906Z" fill="#663300"/>
<path d="M64.4141 65.8906H65.315V70.5264H64.4141V65.8906Z" fill="#663300"/>
<path d="M45.7959 65.8906H66.5166V73.1754H45.7959V65.8906Z" stroke="black" stroke-width="0.445953"/>
<path d="M68.0181 21.5234V41.391H66.5166V21.5234H68.0181Z" fill="#997F4C"/>
<path d="M68.0181 23.5078V38.7396H66.5166V23.5078H68.0181Z" fill="#AB915E"/>
<path d="M68.0181 26.1562V36.7523H66.5166V26.1562H68.0181Z" fill="#BFA572"/>
<path d="M68.0181 28.1484V34.1087H66.5166V28.1484H68.0181Z" fill="#D1B784"/>
<path d="M68.0181 30.7969V32.1214H66.5166V30.7969H68.0181Z" fill="#E5CB98"/>
<path d="M68.0181 21.5234V41.391H66.5166V21.5234H68.0181Z" stroke="black" stroke-width="0.445953"/>
<path d="M126.276 39.4049L127.177 27.4844H129.279V33.4446H131.982V27.4844H134.084L134.685 39.4049H126.276Z" fill="#E5CB98" stroke="black" stroke-width="0.445953"/>
</g>
<defs>
<clipPath id="clip0_2109_195800">
<rect width="150" height="150" fill="white"/>
</clipPath>
</defs>
</svg>
