<svg width="150" height="150" viewBox="0 0 150 150" fill="none" xmlns="http://www.w3.org/2000/svg">
<g clip-path="url(#clip0_2109_195406)">
<path fill-rule="evenodd" clip-rule="evenodd" d="M45.8614 74.9233V67.1155H47.8641V62.3107H58.278V56.3047H37.4502V74.9233H45.8614ZM120.761 74.9233V67.1155H118.759V62.3107H108.345V56.3047H129.172V74.9233H120.761ZM49.8668 62.3107H51.0684V74.9233H49.8668V62.3107ZM56.2753 62.3107H57.0764V74.9233H56.2753V62.3107ZM109.546 62.3107H110.347V74.9233H109.546V62.3107ZM115.554 62.3107H116.756V74.9233H115.554V62.3107Z" fill="black"/>
<path d="M45.8614 74.9233V67.1155H47.8641V62.3107H58.278V56.3047H37.4502V74.9233H45.8614Z" stroke="black" stroke-width="0.346815"/>
<path d="M120.761 74.9233V67.1155H118.759V62.3107H108.345V56.3047H129.172V74.9233H120.761Z" stroke="black" stroke-width="0.346815"/>
<path d="M49.8662 62.3125H51.0678V74.9251H49.8662V62.3125Z" stroke="black" stroke-width="0.346815"/>
<path d="M56.2754 62.3125H57.0765V74.9251H56.2754V62.3125Z" stroke="black" stroke-width="0.346815"/>
<path d="M109.546 62.3125H110.347V74.9251H109.546V62.3125Z" stroke="black" stroke-width="0.346815"/>
<path d="M115.554 62.3125H116.755V74.9251H115.554V62.3125Z" stroke="black" stroke-width="0.346815"/>
<path d="M108.345 37.3875H116.756V6.15625H108.345V37.3875Z" fill="#669966"/>
<path d="M49.8662 37.3875H58.2774V6.15625H49.8662V37.3875Z" fill="#669966"/>
<path d="M110.347 37.3875H114.753V6.15625H110.347V37.3875Z" fill="#598C59"/>
<path d="M51.8691 37.3875H56.275V6.15625H51.8691V37.3875Z" fill="#598C59"/>
<path d="M31.041 85.7344H33.0437V113.963H31.041V85.7344Z" fill="#333333"/>
<path d="M37.4502 109.156H129.172V112.46H37.4502V109.156Z" fill="#669966" stroke="black" stroke-width="0.346815"/>
<path d="M133.178 9.15625H150V74.922H133.178V9.15625Z" fill="#336633" stroke="black" stroke-width="0.346815"/>
<path d="M0 6.15625H33.0441V74.925H0V6.15625Z" fill="#336633" stroke="black" stroke-width="0.346815"/>
<path d="M133.578 13.9609H150V74.021H133.578V13.9609Z" fill="#3D703D"/>
<path d="M0 9.00781H33.4446V73.4222H0V9.00781Z" fill="#3D703D"/>
<path d="M133.578 18.4688H150V72.8231H133.578V18.4688Z" fill="#477A47"/>
<path d="M0 11.5625H33.4446V71.6226H0V11.5625Z" fill="#477A47"/>
<path d="M133.578 23.2734H150V71.9221H133.578V23.2734Z" fill="#528552"/>
<path d="M0 14.5625H33.4446V70.1181H0V14.5625Z" fill="#528552"/>
<path d="M133.578 28.0781H150V71.0211H133.578V28.0781Z" fill="#5C8F5C"/>
<path d="M0 17.2656H33.4446V68.617H0V17.2656Z" fill="#5C8F5C"/>
<path d="M133.578 32.5859H150V70.1235H133.578V32.5859Z" fill="#669966"/>
<path d="M0 20.2734H33.4446V67.1203H0V20.2734Z" fill="#669966"/>
<path d="M133.578 37.3906H150V69.2225H133.578V37.3906Z" fill="#70A370"/>
<path d="M0 22.9766H33.4446V65.6192H0V22.9766Z" fill="#70A370"/>
<path d="M133.578 42.1953H150V68.3214H133.578V42.1953Z" fill="#7AAD7A"/>
<path d="M0 25.6719H33.4446V63.81H0V25.6719Z" fill="#7AAD7A"/>
<path d="M133.578 46.6953H150V67.416H133.578V46.6953Z" fill="#85B885"/>
<path d="M0 28.6797H33.4446V62.3133H0V28.6797Z" fill="#85B885"/>
<path d="M133.578 51.5H150V66.515H133.578V51.5Z" fill="#8FC28F"/>
<path d="M0 31.3828H33.4446V60.8122H0V31.3828Z" fill="#8FC28F"/>
<path d="M133.178 56.3047H150V65.614H133.178V56.3047Z" fill="#99CC99"/>
<path d="M0 34.3828H33.0441V59.3077H0V34.3828Z" fill="#99CC99"/>
<path d="M37.4502 131.08V112.461H129.172V131.08H120.761L112.35 137.386H54.2726L45.8614 131.08H37.4502Z" fill="#70A370"/>
<path d="M37.4502 131.083V129.281L129.172 116.969V131.083H120.761L112.35 137.389H54.2726L45.8614 131.083H37.4502Z" fill="#6B9E6B"/>
<path d="M129.172 118.766V131.078H120.761L112.35 137.384H54.2722L45.861 131.078H41.4551L129.172 118.766Z" fill="#669966"/>
<path d="M37.4502 131.08V112.461H129.172V131.08H120.761L112.35 137.386H54.2726L45.8614 131.08H37.4502Z" stroke="black" stroke-width="0.346815"/>
<path d="M33.0439 106.156H133.177V109.46H33.0439V106.156Z" fill="#CCCCCC" stroke="black" stroke-width="0.346815"/>
<path d="M129.172 37.3906H133.177V149.853H129.172V37.3906Z" fill="#669966" stroke="black" stroke-width="0.346815"/>
<path d="M33.0439 37.3906H37.4498V149.853H33.0439V37.3906Z" fill="#669966" stroke="black" stroke-width="0.346815"/>
<path d="M14.8193 84.2344H31.041V115.466H14.8193V84.2344Z" fill="#CCCCCC"/>
<path d="M14.8193 100.15L31.041 93.8438V115.465H14.8193V100.15Z" fill="#C7C7C7"/>
<path d="M14.8193 103.15L31.041 96.8438V115.462H14.8193V103.15Z" fill="#C2C2C2"/>
<path d="M14.8193 106.158L31.041 99.8516V115.467H14.8193V106.158Z" fill="#BDBDBD"/>
<path d="M14.8193 84.2344H31.041V115.466H14.8193V84.2344Z" stroke="black" stroke-width="0.346815"/>
<path d="M37.4502 87.5391H129.172V90.5421H37.4502V87.5391Z" fill="#669966" stroke="black" stroke-width="0.346815"/>
<path d="M37.4502 77.9297H129.172V87.5393H37.4502V77.9297Z" fill="#73A673" stroke="black" stroke-width="0.346815"/>
<path d="M129.172 71.6232V77.9295H37.4502V71.6232L41.4555 74.9265H49.8668L62.2833 65.6172H104.339L116.756 74.9265H125.167L129.172 71.6232Z" fill="#669966" stroke="black" stroke-width="0.346815"/>
<path d="M62.2832 74.9219H104.339V81.2282H62.2832V74.9219Z" fill="#73A673"/>
<path d="M104.339 74.9219V81.2282H62.6836" stroke="#336633" stroke-width="0.346815"/>
<path d="M37.4502 37.3906H129.172V56.3095H37.4502V37.3906Z" fill="#75A875"/>
<path d="M37.4502 50.5969L129.172 42.7891V56.3026H37.4502V50.5969Z" fill="#70A370"/>
<path d="M37.4502 51.5031L129.172 43.6953V56.3079H37.4502V51.5031Z" fill="#6B9E6B"/>
<path d="M37.4502 52.7062L129.172 44.8984V56.3098H37.4502V52.7062Z" fill="#669966"/>
<path d="M37.4502 37.3906H129.172V56.3095H37.4502V37.3906Z" stroke="black" stroke-width="0.346815"/>
<path d="M68.6914 77.9312L70.6941 76.4297L72.6967 77.9312L70.6941 79.4327L68.6914 77.9312Z" fill="#003300"/>
<path d="M81.1084 78.2315L83.1111 76.4297L85.5143 78.2315L83.1111 79.733L81.1084 78.2315Z" fill="#003300"/>
<path d="M93.9248 77.9312L95.9275 76.4297L97.9301 77.9312L95.9275 79.733L93.9248 77.9312Z" fill="#003300"/>
<path d="M20.6279 106.156H27.0365" stroke="black" stroke-width="0.346815"/>
<path d="M16.6221 89.0391H29.0386V101.351H16.6221V89.0391Z" fill="#D9D9D9"/>
<path d="M16.6221 92.0406L18.6247 90.5391L20.6274 92.0406L18.6247 93.5421L16.6221 92.0406Z" fill="#7F7F7F"/>
<path d="M25.0332 92.0406L27.0359 90.5391L29.0385 92.0406L27.0359 93.5421L25.0332 92.0406Z" fill="#7F7F7F"/>
<path d="M16.6221 98.3453L18.6247 96.8438L20.6274 98.3453L18.6247 99.8468L16.6221 98.3453Z" fill="#7F7F7F"/>
<path d="M20.6279 106.158L22.6306 104.656L25.0338 106.158L22.6306 107.659L20.6279 106.158Z" fill="#7F7F7F"/>
<path d="M39.4521 54.5078H127.169" stroke="#99CC99" stroke-width="0.346815"/>
<path d="M37.4502 87.5391H129.172" stroke="#99CC99" stroke-width="0.346815"/>
<path d="M108.345 37.3875H116.756V6.15625H108.345V37.3875Z" stroke="black" stroke-width="0.346815"/>
<path d="M49.8662 37.3875H58.2774V6.15625H49.8662V37.3875Z" stroke="black" stroke-width="0.346815"/>
<path d="M53.0703 0.75H55.073V37.3866H53.0703V0.75Z" fill="#99CC99" stroke="black" stroke-width="0.346815"/>
<path d="M111.549 0.75H113.551V37.3866H111.549V0.75Z" fill="#99CC99" stroke="black" stroke-width="0.346815"/>
<path d="M108.345 0H116.756V0.750751H108.345V0Z" fill="black"/>
<path d="M49.8662 0H58.2774V0.750751H49.8662V0Z" fill="black"/>
<path d="M62.2832 81.2282V74.9219H104.339" stroke="#CCFFCC" stroke-width="0.346815"/>
<path d="M33.0441 138.742V149.853H27.0361V148.502H31.0415V138.742H33.0441Z" fill="#4C7F4C" stroke="black" stroke-width="0.346815"/>
<path d="M133.178 138.742V149.853H139.586V148.502H135.581V138.742H133.178Z" fill="#4C7F4C" stroke="black" stroke-width="0.346815"/>
</g>
<defs>
<clipPath id="clip0_2109_195406">
<rect width="150" height="150" fill="white"/>
</clipPath>
</defs>
</svg>
