<svg width="150" height="150" viewBox="0 0 150 150" fill="none" xmlns="http://www.w3.org/2000/svg">
<g clip-path="url(#clip0_2109_196503)">
<path d="M13.3648 150V130.48L4.87421 110.961H0V81.5312H150V150H13.3648Z" fill="#7F7F7F"/>
<path d="M13.3644 150.001V130.482L9.59082 121.173L150 92.3438V150.001H13.3644Z" fill="#7A7A7A"/>
<path d="M13.3653 149.997V130.477L11.793 126.874L150.001 96.8438V149.997H13.3653Z" fill="#757575"/>
<path d="M13.3652 150.002V131.684L150 102.555V150.002H13.3652Z" fill="#707070"/>
<path d="M105.817 149.999V145.194L108.962 141.891L112.421 145.194V149.999H105.817Z" fill="#4C4C4C"/>
<path d="M98.8994 81.5315V0H123.742L129.403 4.05405L134.748 12.3123L138.679 23.8739L141.667 37.988L143.082 53.6036V81.2312L98.8994 81.5315Z" fill="#7F7F7F" stroke="black" stroke-width="0.307301"/>
<path d="M122.642 48.8008C128.286 48.8008 132.862 44.4312 132.862 39.041C132.862 33.6508 128.286 29.2812 122.642 29.2812C116.998 29.2812 112.422 33.6508 112.422 39.041C112.422 44.4312 116.998 48.8008 122.642 48.8008Z" fill="#999999"/>
<path d="M51.1006 0H98.8993V45.4955H51.1006V0Z" fill="#999999"/>
<path d="M51.1006 32.2817L98.8993 13.0625V45.4949H51.1006V32.2817Z" fill="#949494"/>
<path d="M51.1006 34.083L98.8993 15.1641V45.4944H51.1006V34.083Z" fill="#8F8F8F"/>
<path d="M51.1006 37.0864L98.8993 17.8672V45.4948H51.1006V37.0864Z" fill="#8A8A8A"/>
<path d="M51.1006 0H98.8993V45.4955H51.1006V0Z" stroke="black" stroke-width="0.307301"/>
<path d="M57.7041 43.0962H64.6223V3.15625" stroke="#B2B2B2" stroke-width="0.307301"/>
<path d="M57.7041 43.0962V3.15625H64.6223" stroke="#4C4C4C" stroke-width="0.307301"/>
<path d="M71.541 43.0962H78.4593V3.15625" stroke="#B2B2B2" stroke-width="0.307301"/>
<path d="M71.541 43.0962V3.15625H78.4593" stroke="#4C4C4C" stroke-width="0.307301"/>
<path d="M85.0625 43.0962H91.9807V3.15625" stroke="#B2B2B2" stroke-width="0.307301"/>
<path d="M85.0625 43.0962V3.15625H91.9807" stroke="#4C4C4C" stroke-width="0.307301"/>
<path d="M54.5596 32.5859H95.4401V71.625H54.5596V32.5859Z" fill="#999999"/>
<path d="M54.5596 71.625V32.5859H95.4401" stroke="#E5E5E5" stroke-width="0.307301"/>
<path d="M54.5596 71.625H95.4401V32.5859" stroke="#333333" stroke-width="0.307301"/>
<path d="M78.459 55.4062H81.9181V71.6225H78.459V55.4062Z" fill="#7F7F7F"/>
<path d="M51.1006 45.4922H98.8993V81.5282H51.1006V45.4922Z" fill="#333333"/>
<path d="M13.3652 71.6236H51.1011V29.2812H13.3652V71.6236Z" fill="#919191"/>
<path d="M13.3652 71.6236L40.7237 61.7137L51.1011 29.2812H13.3652V71.6236Z" fill="#999999"/>
<path d="M13.3652 71.6236H51.1011V29.2812H13.3652V71.6236Z" stroke="black" stroke-width="0.307301"/>
<path d="M13.3648 150V130.48L4.87421 110.961H0V81.5312H150V150H13.3648Z" stroke="black" stroke-width="0.307301"/>
<path d="M3.30176 71.6222H13.3647V25.9766H3.30176V71.6222Z" fill="#B2B2B2" stroke="black" stroke-width="0.307301"/>
<path d="M68.3967 126.877L65.881 124.474L63.9942 121.471L63.0508 118.168V114.865L63.9942 111.561L65.881 108.558L68.3967 106.156L71.5413 104.354L75.0005 103.453H78.4596L81.9187 104.354L85.0634 106.156" stroke="#B2B2B2" stroke-width="0.307301"/>
<path d="M85.0625 106.156L87.5782 108.559" stroke="#333333" stroke-width="0.307301"/>
<path d="M87.5789 124.477L85.0632 126.879L81.9185 128.681L78.4594 129.582H75.0003L71.2267 128.681L68.3965 126.879" stroke="#333333" stroke-width="0.307301"/>
<path d="M84.4336 106.758L86.9493 109.16" stroke="#B2B2B2" stroke-width="0.307301"/>
<path d="M86.9499 124.172L84.4342 126.274L81.604 127.775L78.4594 128.676H75.0002L71.8556 127.775L68.7109 126.274" stroke="#B2B2B2" stroke-width="0.307301"/>
<path d="M68.7111 126.273L66.5099 123.871L64.6231 121.168L63.9941 118.165V114.862L64.6231 111.859L66.5099 109.156L68.7111 106.754L71.8558 105.252L75.0004 104.352H78.4596L81.6042 105.252L84.4344 106.754" stroke="#333333" stroke-width="0.307301"/>
<path d="M92.9242 111.258L94.182 112.459L95.1254 113.961L95.4399 115.762V117.264L95.1254 119.066L94.182 120.567L92.9242 121.768L91.3518 122.669L89.465 122.97H87.5782L86.0059 122.669L84.4336 121.768" stroke="#B2B2B2" stroke-width="0.307301"/>
<path d="M84.4337 121.774L83.1758 120.573L82.2324 119.072L81.918 117.27V115.768L82.2324 113.966L83.1758 112.465L84.4337 111.264L86.006 110.363L87.5783 110.062H89.4651L91.3519 110.363L92.9243 111.264" stroke="#333333" stroke-width="0.307301"/>
<path d="M83.8048 122.369L82.5469 120.868L81.6035 119.366L80.9746 117.565V115.463L81.6035 113.661L82.5469 112.159L83.8048 110.658L85.6916 109.757L87.5784 109.156H89.7796L91.6664 109.757L93.2388 110.658" stroke="#B2B2B2" stroke-width="0.307301"/>
<path d="M93.2386 110.664L94.811 112.166L95.7544 113.667L96.3833 115.469V117.571L95.7544 119.373L94.811 120.874L93.2386 122.376L91.6663 123.277L89.7795 123.877H87.5783L85.6915 123.277L83.8047 122.376" stroke="#333333" stroke-width="0.307301"/>
<path d="M141.667 104.352V111.559H118.396" stroke="#B2B2B2" stroke-width="0.307301"/>
<path d="M141.667 104.352H118.396V111.559" stroke="#4C4C4C" stroke-width="0.307301"/>
<path d="M3.30176 71.625H96.3835V81.5349H3.30176V71.625Z" fill="#7F7F7F" stroke="black" stroke-width="0.307301"/>
<path d="M45.9124 96.3963C49.8201 96.3963 52.9879 93.3712 52.9879 89.6396C52.9879 85.9079 49.8201 82.8828 45.9124 82.8828C42.0047 82.8828 38.8369 85.9079 38.8369 89.6396C38.8369 93.3712 42.0047 96.3963 45.9124 96.3963Z" fill="#CCCCCC" stroke="black" stroke-width="0.307301"/>
<path d="M44.8109 87.8362L53.9304 56.3047L56.4461 56.9053L47.6411 88.7371L80.9744 97.1455L80.3455 99.8482L47.0122 91.4398L37.8927 122.971L35.0625 122.371L44.182 90.5389L10.8486 82.1305L11.4776 79.4278L44.8109 87.8362Z" fill="#B2B2B2" stroke="#666666" stroke-width="0.307301"/>
<path d="M116.038 71.6183C123.592 71.6183 129.717 65.7698 129.717 58.5553C129.717 51.3407 123.592 45.4922 116.038 45.4922C108.483 45.4922 102.358 51.3407 102.358 58.5553C102.358 65.7698 108.483 71.6183 116.038 71.6183Z" fill="#CCCCCC"/>
<path d="M115.88 69.3716C122.133 69.3716 127.201 64.5315 127.201 58.5608C127.201 52.5902 122.133 47.75 115.88 47.75C109.628 47.75 104.56 52.5902 104.56 58.5608C104.56 64.5315 109.628 69.3716 115.88 69.3716Z" fill="#7F7F7F"/>
<path d="M111.479 46.0972L113.365 45.7969L120.598 71.0221L118.397 71.3224L111.479 46.0972Z" fill="#CCCCCC"/>
<path d="M102.987 62.9118L102.358 61.11L128.773 54.2031L129.402 56.3052L102.987 62.9118Z" fill="#CCCCCC"/>
<path d="M109.119 16.0641C110.943 16.0641 112.421 14.6524 112.421 12.911C112.421 11.1695 110.943 9.75781 109.119 9.75781C107.296 9.75781 105.817 11.1695 105.817 12.911C105.817 14.6524 107.296 16.0641 109.119 16.0641Z" fill="#CCCCCC" stroke="#333333" stroke-width="0.307301"/>
<path d="M112.421 84.8359V94.4455H98.8994V84.8359H112.421Z" fill="#7F7F7F"/>
<path d="M111.792 84.8359V94.4455H99.5283V84.8359H111.792Z" fill="#999999"/>
<path d="M110.22 84.8359V94.4455H101.101V84.8359H110.22Z" fill="#B2B2B2"/>
<path d="M108.648 84.8359V94.4455H102.673V84.8359H108.648Z" fill="#CCCCCC"/>
<path d="M107.704 84.8359V94.4455H103.616V84.8359H107.704Z" fill="#E5E5E5"/>
<path d="M106.446 84.8359V94.4455H104.874V84.8359H106.446Z" fill="white"/>
<path d="M98.8994 94.4453H112.421" stroke="#666666" stroke-width="0.307301"/>
<path d="M102.358 26.8747V19.3672H125.314" stroke="#B2B2B2" stroke-width="0.307301"/>
<path d="M102.358 26.8747H125.314V19.3672" stroke="#4C4C4C" stroke-width="0.307301"/>
<path d="M95.4404 71.625V84.8382H105.818L109.277 81.5349H119.34V71.625H95.4404Z" fill="#8C8C8C" stroke="black" stroke-width="0.307301"/>
<path d="M113.365 101.055V83.9375H146.699" stroke="#B2B2B2" stroke-width="0.307301"/>
<path d="M113.365 101.055H146.699V83.9375" stroke="#4C4C4C" stroke-width="0.307301"/>
</g>
<defs>
<clipPath id="clip0_2109_196503">
<rect width="150" height="150" fill="white"/>
</clipPath>
</defs>
</svg>
