<svg width="150" height="150" viewBox="0 0 150 150" fill="none" xmlns="http://www.w3.org/2000/svg">
<g clip-path="url(#clip0_2109_198054)">
<path d="M87.5371 33.9375H110.961V40.8227H87.5371V33.9375Z" fill="#CCCCCC" stroke="black" stroke-width="0.313782"/>
<path d="M6.30664 132.953H143.544V146.396H6.30664V132.953Z" fill="#669999" stroke="black" stroke-width="0.313782"/>
<path d="M3.00293 149.997H146.847V146.391H3.00293V149.997Z" fill="#003333" stroke="black" stroke-width="0.313782"/>
<path d="M6.30631 132.951L0 111.968L3.003 40.8203H146.847L150 111.968L143.544 132.951H6.30631Z" fill="#E5E5E5"/>
<path d="M6.30631 132.95L0 111.966L1.35135 76.5562L147.447 58.5234L150 111.966L143.544 132.95H6.30631Z" fill="#E0E0E0"/>
<path d="M6.30631 132.948L0 111.965L0.750751 94.2596L148.499 76.5547L150 111.965L143.544 132.948H6.30631Z" fill="#DBDBDB"/>
<path d="M6.30631 132.954L0 111.971L149.099 94.2656L150 111.971L143.544 132.954H6.30631Z" fill="#D6D6D6"/>
<path d="M6.30631 132.951L0 111.968L3.003 40.8203H146.847L150 111.968L143.544 132.951H6.30631Z" stroke="black" stroke-width="0.313782"/>
<path d="M37.3877 40.8203H112.463V109.017H37.3877V40.8203Z" fill="#336666"/>
<path d="M46.6963 40.8203H103.153V109.017H46.6963V40.8203Z" fill="#CCCCCC" stroke="black" stroke-width="0.313782"/>
<path d="M37.3877 40.8203H112.463V109.017H37.3877V40.8203Z" stroke="black" stroke-width="0.313782"/>
<path d="M46.6963 102.133H103.153V109.018H46.6963V102.133Z" fill="#333333" stroke="black" stroke-width="0.313782"/>
<path d="M46.6963 102.13H103.153V98.8516H46.6963V102.13Z" fill="#7F7F7F" stroke="black" stroke-width="0.313782"/>
<path d="M46.6963 98.8487L53.0026 95.2422H96.8464L103.153 98.8487H46.6963Z" fill="#E5E5E5" stroke="black" stroke-width="0.313782"/>
<path d="M62.3125 0H87.5377V54.2623H62.3125V0Z" fill="#E5E5E5"/>
<path d="M62.3125 0H87.5377V13.2787H62.3125V0Z" fill="#D9D9D9"/>
<path d="M62.3125 0H87.5377V10H62.3125V0Z" fill="#CCCCCC"/>
<path d="M62.3125 0H87.5377V6.39344H62.3125V0Z" fill="#BFBFBF"/>
<path d="M62.3125 0H87.5377V3.27869H62.3125V0Z" fill="#B2B2B2"/>
<path d="M106.156 91.9688H109.46V105.411H106.156V91.9688Z" fill="#003333"/>
<path d="M40.3906 91.9688H43.6939V105.411H40.3906V91.9688Z" fill="#003333"/>
<path d="M27.4775 98.8516H34.3844V103.77H27.4775V98.8516Z" fill="#003333"/>
<path d="M18.7686 98.8516H25.3752V103.77H18.7686V98.8516Z" fill="#003333"/>
<path d="M10.9609 98.8516H17.5675V103.77H10.9609V98.8516Z" fill="#003333"/>
<path d="M3.00293 98.8516H9.75969V103.77H3.00293V98.8516Z" fill="#003333"/>
<path d="M27.4775 92.9531H34.3844V97.8712H27.4775V92.9531Z" fill="#003333"/>
<path d="M18.7686 92.9531H25.3752V97.8712H18.7686V92.9531Z" fill="#003333"/>
<path d="M10.9609 92.9531H17.5675V97.8712H10.9609V92.9531Z" fill="#003333"/>
<path d="M27.4775 86.7188H34.3844V91.6368H27.4775V86.7188Z" fill="#003333"/>
<path d="M18.7686 86.7188H25.3752V91.6368H18.7686V86.7188Z" fill="#003333"/>
<path d="M27.4775 80.8203H34.3844V85.4105H27.4775V80.8203Z" fill="#003333"/>
<path d="M90.5408 57.8672V91.9656H59.3096" stroke="white" stroke-width="0.313782"/>
<path d="M90.5408 57.8672H59.3096V91.9656" stroke="#999999" stroke-width="0.313782"/>
<path d="M68.6182 68.0361V54.2656H81.2308V68.0361H68.6182Z" fill="#7F7F7F"/>
<path d="M69.5195 68.0361V54.2656H80.3303V68.0361H69.5195Z" fill="#999999"/>
<path d="M70.7207 68.0361V54.2656H79.1291V68.0361H70.7207Z" fill="#B2B2B2"/>
<path d="M72.2227 68.0361V54.2656H77.6281V68.0361H72.2227Z" fill="#CCCCCC"/>
<path d="M73.123 68.0361V54.2656H76.7267V68.0361H73.123Z" fill="#E5E5E5"/>
<path d="M74.0244 68.0361V54.2656H75.8262V68.0361H74.0244Z" fill="white"/>
<path d="M68.6182 68.0361V54.2656H81.2308V68.0361H68.6182Z" stroke="black" stroke-width="0.313782"/>
<path d="M43.6934 10H62.312V40.8197H43.6934V10Z" fill="#CCCCCC"/>
<path d="M43.6934 31.6386L62.312 19.0156V40.8189H43.6934V31.6386Z" fill="#C7C7C7"/>
<path d="M43.6934 32.9509L62.312 20.1641V40.8198H43.6934V32.9509Z" fill="#C2C2C2"/>
<path d="M43.6934 34.9197L62.312 22.1328V40.8213H43.6934V34.9197Z" fill="#BDBDBD"/>
<path d="M46.6963 44.1016H56.0056V50.9868H46.6963V44.1016Z" fill="#B2B2B2" stroke="black" stroke-width="0.313782"/>
<path d="M46.6963 50.9844H53.0026V59.509H46.6963V50.9844Z" fill="#B2B2B2" stroke="black" stroke-width="0.313782"/>
<path d="M68.6182 136.227H143.543V139.833H68.6182V136.227Z" fill="#FFCC00"/>
<path d="M9.15918 136.227H65.6156V139.833H9.15918V136.227Z" fill="#FFCC00"/>
<path d="M106.156 44.1016H109.46V47.3803H106.156V44.1016Z" fill="#FFCC00"/>
<path d="M63.8135 45.7344H73.4231V52.6196H63.8135V45.7344Z" fill="#FFCC00"/>
<path d="M48.1982 55.8984H53.003V59.505H48.1982V55.8984Z" fill="#FFCC00"/>
<path d="M34.3848 95.2422H37.3878V98.8487H34.3848V95.2422Z" fill="#FFCC00"/>
<path d="M115.466 54.2656H140.691V81.8066H115.466V54.2656Z" fill="#669999" stroke="black" stroke-width="0.313782"/>
<path d="M126.577 90.3293H117.268L115.466 81.8047H128.078L126.577 90.3293Z" fill="#CCCCCC" stroke="black" stroke-width="0.313782"/>
<path d="M117.268 45.7344H126.577L128.078 54.259H115.466L117.268 45.7344Z" fill="#CCCCCC" stroke="black" stroke-width="0.313782"/>
<path d="M9.15918 52.625H34.3844" stroke="#003333" stroke-width="0.313782"/>
<path d="M9.15918 55.8984H34.3844" stroke="#003333" stroke-width="0.313782"/>
<path d="M117.268 81.8066V54.2656" stroke="#003333" stroke-width="0.313782"/>
<path d="M118.769 55.8984H131.381V68.0296H118.769V55.8984Z" fill="#003333"/>
<path d="M118.769 68.0296V55.8984H131.081" stroke="black" stroke-width="0.313782"/>
<path d="M131.081 55.8984V68.0296H118.769" stroke="#99CCCC" stroke-width="0.313782"/>
<path d="M118.769 71.3125H138.889" stroke="#99CCCC" stroke-width="0.313782"/>
<path d="M125.075 71.3125V79.8371" stroke="#99CCCC" stroke-width="0.313782"/>
<path d="M134.385 71.3125V79.8371" stroke="#99CCCC" stroke-width="0.313782"/>
<path d="M62.3125 0H87.5377V54.2623H62.3125V0Z" stroke="black" stroke-width="0.313782"/>
<path d="M43.6934 10H62.312V40.8197H43.6934V10Z" stroke="black" stroke-width="0.313782"/>
<path d="M46.6963 44.099H103.153V40.8203H46.6963V44.099Z" fill="#E5E5E5" stroke="black" stroke-width="0.313782"/>
</g>
<defs>
<clipPath id="clip0_2109_198054">
<rect width="150" height="150" fill="white"/>
</clipPath>
</defs>
</svg>
