<svg width="150" height="150" viewBox="0 0 150 150" fill="none" xmlns="http://www.w3.org/2000/svg">
<g clip-path="url(#clip0_2109_196138)">
<path d="M2.85254 7.03906H146.997V13.9106H2.85254V7.03906Z" fill="#B2B2B2" stroke="black" stroke-width="0.317269"/>
<path d="M2.85254 115.141H146.997V142.962H2.85254V115.141Z" fill="black"/>
<path d="M12.4629 115.141H137.388V146.314H12.4629V115.141Z" fill="#191919"/>
<path d="M109.459 115.141H121.771V150.001H109.459V115.141Z" fill="#333333"/>
<path d="M28.0781 115.141H40.3904V150.001H28.0781V115.141Z" fill="#333333"/>
<path d="M0 104.414H150V115.14H0V104.414Z" fill="#3366CC"/>
<path d="M0 52.125H150V104.751H0V52.125Z" fill="#E0E0E0"/>
<path d="M1.35135 13.9106H37.3874V0H112.462V13.9106H148.499L150 52.1229H0L1.35135 13.9106Z" fill="#E5E5E5"/>
<path d="M35.8863 104.417V52.1264L37.3878 13.9141H34.3848L32.583 52.1264V104.417H35.8863Z" fill="#B2B2B2"/>
<path d="M117.268 104.417V52.1264L115.466 13.9141H112.463L113.964 52.1264V104.417H117.268Z" fill="#B2B2B2"/>
<path d="M37.3872 13.9141L35.8857 52.1264V104.417" stroke="#666666" stroke-width="0.317269"/>
<path d="M112.463 13.9141L113.964 52.1264V104.417" stroke="#666666" stroke-width="0.317269"/>
<path d="M1.35135 13.9106H37.3874V0H112.462V13.9106H148.498L150 52.1229V115.14H0V52.1229L1.35135 13.9106Z" stroke="black" stroke-width="0.317269"/>
<path d="M74.9248 104.413V0" stroke="black" stroke-width="0.317269"/>
<path d="M66.2163 86.3122H63.2133L60.8109 84.6362L45.1953 53.7982V50.7815L60.8109 17.2619L63.2133 15.5859H66.2163L68.6187 17.2619L70.1202 19.9435V81.9547L68.6187 84.6362L66.2163 86.3122Z" fill="black"/>
<path d="M83.6334 86.3122H86.6364L89.0388 84.6362L104.654 53.7982V50.7815L89.0388 17.2619L86.6364 15.5859H83.6334L80.9307 17.2619L79.7295 19.9435V81.9547L80.9307 84.6362L83.6334 86.3122Z" fill="black"/>
<path d="M84.5347 83.964H87.2375L103.153 53.4612V50.7796L87.2375 18.2656H84.5347L82.4326 19.6064L81.2314 22.6232V80.2768L82.4326 82.6232L84.5347 83.964Z" fill="#333333"/>
<path d="M65.3149 83.964H62.6122L46.6963 53.4612V50.7796L62.6122 18.2656H65.0146L67.417 19.6064L68.6182 22.6232V80.2768L67.417 82.6232L65.3149 83.964Z" fill="#333333"/>
<path d="M2.85254 115.141V142.962H12.4621V146.314H28.0778V150.001H40.3901V146.314H109.459V150.001H121.771V146.314H137.387V142.962H146.997V115.141H2.85254Z" stroke="black" stroke-width="0.317269"/>
</g>
<defs>
<clipPath id="clip0_2109_196138">
<rect width="150" height="150" fill="white"/>
</clipPath>
</defs>
</svg>
