<svg width="150" height="150" viewBox="0 0 150 150" fill="none" xmlns="http://www.w3.org/2000/svg">
<g clip-path="url(#clip0_2109_198216)">
<path d="M133.033 141.367V33.2319L126.576 22.7188V141.367H133.033Z" fill="#B2B2B2" stroke="black" stroke-width="0.335788"/>
<path d="M36.4863 141.367H80.0299V143.62H36.4863V141.367Z" fill="black"/>
<path d="M126.576 141.367H149.849V150.003H126.576V141.367Z" fill="#6699FF" stroke="black" stroke-width="0.335788"/>
<path d="M126.577 141.367H116.667V150.003H126.577V141.367Z" fill="#003399" stroke="black" stroke-width="0.335788"/>
<path d="M80.0303 141.367H116.667V150.003H80.0303V141.367Z" fill="#003300" stroke="black" stroke-width="0.335788"/>
<path d="M106.456 3.94531H119.97V101.943H106.456V3.94531Z" fill="#669966"/>
<path d="M39.79 99.6871H106.457V0H39.79V99.6871Z" fill="#669966"/>
<path d="M1.65137 141.367H36.4862V150.003H1.65137V141.367Z" fill="#B2B2B2" stroke="black" stroke-width="0.335788"/>
<path d="M116.667 3.94531H119.97V99.69H116.667V3.94531Z" fill="#003300"/>
<path d="M106.456 3.94531H119.97V101.943H106.456V3.94531Z" stroke="black" stroke-width="0.335788"/>
<path d="M113.363 16.3359H126.576V141.367H113.363V16.3359Z" fill="#CCCCCC" stroke="black" stroke-width="0.335788"/>
<path d="M110.061 99.6875L123.274 101.94V141.365H110.061V99.6875Z" fill="#B2B2B2"/>
<path d="M29.8799 99.6875H110.06V141.365H29.8799V99.6875Z" fill="#CCCCCC"/>
<path d="M0 91.4297H26.5766V141.367H0V91.4297Z" fill="#CCCCCC"/>
<path d="M29.8799 124.847L110.06 103.82V141.367H29.8799V124.847Z" fill="#C7C7C7"/>
<path d="M0 116.581L26.5766 108.32V141.362H0V116.581Z" fill="#C7C7C7"/>
<path d="M29.8799 133.104L110.06 112.453V141.364H29.8799V133.104Z" fill="#C2C2C2"/>
<path d="M0 125.222L26.5766 116.586V141.367H0V125.222Z" fill="#C2C2C2"/>
<path d="M29.8799 137.237L110.06 116.586V141.367H29.8799V137.237Z" fill="#BDBDBD"/>
<path d="M0 133.48L26.5766 124.844V141.364H0V133.48Z" fill="#BDBDBD"/>
<path d="M29.8799 99.6875H110.06L123.273 101.94V141.365H29.8799V99.6875Z" stroke="black" stroke-width="0.335788"/>
<path d="M0 91.4297H26.5766V141.367H0V91.4297Z" stroke="black" stroke-width="0.335788"/>
<path d="M39.79 45.62L106.457 24.5938V99.6876H39.79V45.62Z" fill="#619461"/>
<path d="M39.79 64.3935L106.457 43.3672V99.6876H39.79V64.3935Z" fill="#5C8F5C"/>
<path d="M39.79 83.1669L106.457 62.1406V99.6876H39.79V83.1669Z" fill="#578A57"/>
<path d="M39.79 99.6871H106.457V0H39.79V99.6871Z" stroke="black" stroke-width="0.335788"/>
<path d="M56.6064 124.844H83.3332V128.974H56.6064V124.844Z" fill="#B2B2B2"/>
<path d="M110.061 141.365V99.6875" stroke="#E5E5E5" stroke-width="0.335788"/>
<path d="M56.6064 124.844H83.3332" stroke="#E5E5E5" stroke-width="0.335788"/>
<path d="M56.6064 141.365V99.6875" stroke="#7F7F7F" stroke-width="0.335788"/>
<path d="M83.333 141.365V99.6875" stroke="#7F7F7F" stroke-width="0.335788"/>
<path d="M68.3184 99.6871V0" stroke="#003300" stroke-width="0.335788"/>
<path d="M21.4717 93.6797H24.775V101.94H21.4717V93.6797Z" fill="#FFCC00"/>
<path d="M44.8945 3.94531H54.8044V8.26321H44.8945V3.94531Z" fill="#FFB27F"/>
<path d="M44.8945 8.25781H54.8044V12.2002H44.8945V8.25781Z" fill="black"/>
<path d="M65.0151 91.4273V24.5938H51.5015L48.1982 58.0105L51.5015 91.4273H65.0151Z" fill="black"/>
<path d="M71.6221 91.4273V24.5938H84.8353L88.1386 58.0105L84.8353 91.4273H71.6221Z" fill="black"/>
<path d="M63.2132 89.5471V26.8438H53.3033L50 58.0077L53.3033 89.5471H63.2132Z" fill="#333333"/>
<path d="M73.123 89.5471V26.8438H83.033L86.3363 58.0077L83.033 89.5471H73.123Z" fill="#333333"/>
<path d="M66.5166 93.6797H69.8199V97.8099H66.5166V93.6797Z" fill="black"/>
</g>
<defs>
<clipPath id="clip0_2109_198216">
<rect width="150" height="150" fill="white"/>
</clipPath>
</defs>
</svg>
