<svg width="150" height="150" viewBox="0 0 150 150" fill="none" xmlns="http://www.w3.org/2000/svg">
<g clip-path="url(#clip0_2109_195145)">
<path d="M28.4121 68.6172H106.546V103.152H28.4121V68.6172Z" fill="#4C4C4C"/>
<path d="M20.0557 43.6953H114.902V68.6202H20.0557V43.6953Z" fill="#B2B2B2" stroke="black" stroke-width="0.500946"/>
<path d="M24.2344 146.545V112.461H110.725V146.545H102.786V127.926H32.1731V146.545H24.2344Z" fill="#CCCCCC"/>
<path d="M15.042 125.078H24.2342V127.931H15.042V125.078Z" fill="#E5E5E5"/>
<path d="M15.042 127.93H24.2342V131.083H15.042V127.93Z" fill="#999999"/>
<path d="M15.042 125.078H24.2342V131.084H15.042V125.078Z" stroke="black" stroke-width="0.500946"/>
<path d="M110.725 125.078H119.081V127.931H110.725V125.078Z" fill="#E5E5E5"/>
<path d="M110.725 127.93H119.081V131.083H110.725V127.93Z" fill="#999999"/>
<path d="M110.725 125.078H119.081V131.084H110.725V125.078Z" stroke="black" stroke-width="0.500946"/>
<path d="M24.2344 127.93H32.1731V146.548H24.2344V127.93Z" fill="#B2B2B2"/>
<path d="M101.95 127.93H110.725V146.548H101.95V127.93Z" fill="#B2B2B2"/>
<path d="M24.2344 146.545V112.461H110.725V146.545H102.786V127.926H32.1731V146.545H24.2344Z" stroke="black" stroke-width="0.500946"/>
<path d="M6.68555 125.078H15.0421V150.003H6.68555V125.078Z" fill="#CCCCCC" stroke="black" stroke-width="0.500946"/>
<path d="M119.081 125.078H128.273V150.003H119.081V125.078Z" fill="#CCCCCC" stroke="black" stroke-width="0.500946"/>
<path d="M17.5488 103.156H117.41V112.466H17.5488V103.156Z" fill="#CCCCCC" stroke="black" stroke-width="0.500946"/>
<path d="M17.5488 109.156H117.41" stroke="#7F7F7F" stroke-width="0.500946"/>
<path d="M41.3652 109.156H93.1758V118.766H41.3652V109.156Z" fill="#CCCCCC"/>
<path d="M41.3652 118.766V109.156H93.1758" stroke="white" stroke-width="0.500946"/>
<path d="M41.3652 118.766H93.1758V109.156" stroke="#7F7F7F" stroke-width="0.500946"/>
<path d="M63.0918 112.461H71.8662V115.464H63.0918V112.461Z" fill="#4C4C4C"/>
<path d="M37.6045 43.6953H97.3538V56.0076H37.6045V43.6953Z" fill="#4C4C4C"/>
<path d="M20.0557 12.4609H114.902V43.6922H20.0557V12.4609Z" fill="#CCCCCC"/>
<path d="M20.0557 34.3843L114.902 21.9219V43.6936H20.0557V34.3843Z" fill="#C4C4C4"/>
<path d="M20.0557 12.4609H114.902V43.6922H20.0557V12.4609Z" stroke="black" stroke-width="0.500946"/>
<path d="M20.0557 68.6172H28.4122V103.152H20.0557V68.6172Z" fill="#999999" stroke="black" stroke-width="0.500946"/>
<path d="M106.546 68.6172H114.902V103.152H106.546V68.6172Z" fill="#999999" stroke="black" stroke-width="0.500946"/>
<path d="M24.2344 81.233H110.725V77.9297L102.786 74.9267V56.0078H32.1731V74.9267L24.2344 77.9297V81.233Z" fill="#CCCCCC"/>
<path d="M110.725 77.9249L102.786 74.9219H32.1731L24.2344 77.9249H110.725Z" fill="#E5E5E5"/>
<path d="M24.2344 81.233H110.725V77.9297L102.786 74.9267V56.0078H32.1731V74.9267L24.2344 77.9297V81.233Z" stroke="black" stroke-width="0.500946"/>
<path d="M93.1758 59.3125V71.6248H41.3652" stroke="white" stroke-width="0.500946"/>
<path d="M93.1758 59.3125H41.3652V71.6248" stroke="#7F7F7F" stroke-width="0.500946"/>
<path d="M9.19238 106.156H15.042V125.075H9.19238V106.156Z" fill="#B2B2B2" stroke="black" stroke-width="0.500946"/>
<path d="M119.081 106.156H125.766V125.075H119.081V106.156Z" fill="#B2B2B2" stroke="black" stroke-width="0.500946"/>
<path d="M0 12.4609H20.0557V49.9985H0V12.4609Z" fill="#B2B2B2"/>
<path d="M0 12.4609H20.0557V22.3708H0V12.4609Z" fill="#BFBFBF"/>
<path d="M0 12.4609H20.0557V19.3678H0V12.4609Z" fill="#CCCCCC"/>
<path d="M0 12.4609H20.0557V16.3648H0V12.4609Z" fill="#D9D9D9"/>
<path d="M0 12.4609H20.0557V14.1126H0V12.4609Z" fill="#E5E5E5"/>
<path d="M0 12.4609H20.0557V49.9985H0V12.4609Z" stroke="black" stroke-width="0.500946"/>
<path d="M114.902 0H150V62.3123H114.902V0Z" fill="#7F7F7F"/>
<path d="M114.902 2.70312H150V59.61H114.902V2.70312Z" fill="#878787"/>
<path d="M114.902 5.25781H150V56.9095H114.902V5.25781Z" fill="#8F8F8F"/>
<path d="M114.902 7.96094H150V54.2072H114.902V7.96094Z" fill="#969696"/>
<path d="M114.902 10.8125H150V51.5032H114.902V10.8125Z" fill="#9E9E9E"/>
<path d="M114.902 13.3672H150V48.8026H114.902V13.3672Z" fill="#A6A6A6"/>
<path d="M114.902 16.0625H150V45.7922H114.902V16.0625Z" fill="#ADADAD"/>
<path d="M114.902 19.0703H150V43.0943H114.902V19.0703Z" fill="#B5B5B5"/>
<path d="M114.902 21.9219H150V40.3903H114.902V21.9219Z" fill="#BDBDBD"/>
<path d="M114.902 24.4766H150V37.6898H114.902V24.4766Z" fill="#C4C4C4"/>
<path d="M114.902 27.1797H150V34.9875H114.902V27.1797Z" fill="#CCCCCC"/>
<path d="M114.902 0H150V62.3123H114.902V0Z" stroke="black" stroke-width="0.500946"/>
<path d="M104.039 50H114.903V60.8108H104.039V50Z" fill="#333333"/>
<path d="M104.039 45.1953H114.903V50.0001H104.039V45.1953Z" fill="#CCCCCC"/>
<path d="M104.039 45.1953H114.903V60.8109H104.039V45.1953Z" stroke="black" stroke-width="0.500946"/>
<path d="M24.2344 0H36.7692V12.4625H24.2344V0Z" fill="#B2B2B2" stroke="black" stroke-width="0.500946"/>
<path d="M36.7686 1.35156H114.902V6.30652H36.7686V1.35156Z" fill="#7F7F7F"/>
<path d="M37.6045 1.64844H114.903V6.00279H37.6045V1.64844Z" fill="#949494"/>
<path d="M37.6045 2.10156H114.903V5.55502H37.6045V2.10156Z" fill="#ABABAB"/>
<path d="M37.6045 2.70312H114.903V4.95538H37.6045V2.70312Z" fill="#BFBFBF"/>
<path d="M37.6045 3H114.903V4.65165H37.6045V3Z" fill="#D4D4D4"/>
<path d="M37.6045 3.30469H114.903V4.35574H37.6045V3.30469Z" fill="#EBEBEB"/>
<path d="M36.7686 3.60156H114.902V4.05201H36.7686V3.60156Z" fill="white"/>
<path d="M36.7686 1.35156H114.902V6.30652H36.7686V1.35156Z" stroke="black" stroke-width="0.500946"/>
<path d="M36.7686 6.90625H114.902V9.1585H36.7686V6.90625Z" fill="#7F7F7F"/>
<path d="M36.7686 7.21094H114.902V9.16289H36.7686V7.21094Z" fill="#949494"/>
<path d="M36.7686 7.35938H114.902V8.86088H36.7686V7.35938Z" fill="#ABABAB"/>
<path d="M36.7686 7.35938H114.902V8.56058H36.7686V7.35938Z" fill="#BFBFBF"/>
<path d="M36.7686 7.65625H114.902V8.55715H36.7686V7.65625Z" fill="#D4D4D4"/>
<path d="M36.7686 7.65625H114.902V8.25685H36.7686V7.65625Z" fill="#EBEBEB"/>
<path d="M36.7686 7.96094H114.902V8.26124H36.7686V7.96094Z" fill="white"/>
<path d="M36.7686 6.90625H114.902V9.1585H36.7686V6.90625Z" stroke="black" stroke-width="0.500946"/>
<path d="M75.6264 55.4031V52.0998H78.1334V49.0968H80.2225V46.0938H53.8994V49.0968H56.4064V52.0998H58.4955V55.4031H75.6264Z" fill="#999999" stroke="black" stroke-width="0.500946"/>
<path d="M58.4961 49.1016H75.627" stroke="#666666" stroke-width="0.500946"/>
<path d="M61.0029 52.1016H73.9556" stroke="#666666" stroke-width="0.500946"/>
<path d="M52.2285 62.3125H82.3121V71.0212H52.2285V62.3125Z" fill="#333333"/>
<path d="M54.7354 65.6172H81.0585V70.1217H54.7354V65.6172Z" fill="#E5E5E5"/>
</g>
<defs>
<clipPath id="clip0_2109_195145">
<rect width="150" height="150" fill="white"/>
</clipPath>
</defs>
</svg>
