<svg width="150" height="150" viewBox="0 0 150 150" fill="none" xmlns="http://www.w3.org/2000/svg">
<g clip-path="url(#clip0_2109_198259)">
<path d="M0 99.8516H150V109.161H0V99.8516Z" fill="white"/>
<path d="M87.5371 12.4609H93.5431V37.3859H87.5371V12.4609Z" fill="#CCCCCC" stroke="black" stroke-width="0.3003"/>
<path d="M12.4629 62.3125H137.388V99.85H12.4629V62.3125Z" fill="#CCCCCC" stroke="black" stroke-width="0.3003"/>
<path d="M56.0059 56.0078H93.8437V93.5453H56.0059V56.0078Z" fill="#7F7F7F" stroke="black" stroke-width="0.3003"/>
<path d="M106.156 74.9219H150V99.8468H106.156V74.9219Z" fill="#E5E5E5"/>
<path d="M0 74.9219H43.6937V99.8468H0V74.9219Z" fill="#E5E5E5"/>
<path d="M106.156 95.3464L150 84.8359V99.851H106.156V95.3464Z" fill="#D6D6D6"/>
<path d="M0 95.3464L43.6937 84.8359V99.851H0V95.3464Z" fill="#D6D6D6"/>
<path d="M106.156 92.6433L150 82.1328V99.8505H106.156V92.6433Z" fill="#E0E0E0"/>
<path d="M0 92.6433L43.6937 82.1328V99.8505H0V92.6433Z" fill="#E0E0E0"/>
<path d="M106.156 93.8464L150 83.3359V99.8525H106.156V93.8464Z" fill="#DBDBDB"/>
<path d="M0 93.8464L43.6937 83.3359V99.8525H0V93.8464Z" fill="#DBDBDB"/>
<path d="M12.4629 140.688H137.388V146.844H12.4629V140.688Z" fill="black"/>
<path d="M6.15625 100.75H143.694V108.558H6.15625V100.75Z" fill="#00CCCC"/>
<path d="M0 137.391H150V140.694H0V137.391Z" fill="#7F7F7F" stroke="black" stroke-width="0.3003"/>
<path d="M6.15625 140.688L9.15925 149.997H12.4626V140.688H71.922V149.997H77.928V140.688H137.387V149.997H140.691L143.694 140.688H6.15625Z" fill="#4C4C4C" stroke="black" stroke-width="0.3003"/>
<path d="M118.769 28.2266H150V56.0043H118.769V28.2266Z" fill="#E5E5E5" stroke="black" stroke-width="0.3003"/>
<path d="M56.0059 37.3874H93.5434V34.0841L87.5374 31.0811L90.5404 28.2282V12.4625H96.8467V0H59.3092V31.0811L56.0059 34.0841V37.3874Z" fill="#E5E5E5" stroke="black" stroke-width="0.3003"/>
<path d="M0 74.9219H43.6937V99.8468H0V74.9219Z" stroke="black" stroke-width="0.3003"/>
<path d="M106.156 74.9219H150V99.8468H106.156V74.9219Z" stroke="black" stroke-width="0.3003"/>
<path d="M59.3096 37.3906L62.3126 40.3936V57.811H87.5378V40.3936L90.5408 37.3906H59.3096Z" fill="#CCCCCC" stroke="black" stroke-width="0.3003"/>
<path d="M43.6934 74.9219H49.9997V99.8468H43.6934V74.9219Z" fill="#4C4C4C" stroke="black" stroke-width="0.3003"/>
<path d="M99.8496 74.9219H106.156V99.8468H99.8496V74.9219Z" fill="#4C4C4C" stroke="black" stroke-width="0.3003"/>
<path d="M50.3008 84.2344H99.8503V90.5407H50.3008V84.2344Z" fill="#999999"/>
<path d="M50 83.6328H99.5495V85.1343H50V83.6328Z" fill="black"/>
<path d="M50 86.6328H99.5495V88.1343H50V86.6328Z" fill="black"/>
<path d="M50 89.6406H99.5495V91.4424H50V89.6406Z" fill="black"/>
<path d="M67.1172 41.2891H82.7328V52.0999H67.1172V41.2891Z" fill="#E5E5E5"/>
<path d="M67.1172 52.0999V41.2891H82.7328" stroke="white" stroke-width="0.3003"/>
<path d="M82.7328 41.2891V52.0999H67.1172" stroke="black" stroke-width="0.3003"/>
<path d="M71.0215 50.5969L78.8293 42.7891" stroke="white" stroke-width="0.3003"/>
<path d="M74.0244 50.0001L78.8292 45.1953" stroke="white" stroke-width="0.3003"/>
<path d="M70.1201 45.1915L72.5225 42.7891" stroke="white" stroke-width="0.3003"/>
<path d="M87.5378 31.0833L84.2345 8.71094H63.2135L59.3096 31.0833" stroke="#7F7F7F" stroke-width="0.3003"/>
<path d="M74.3242 30.4844H75.8257V31.9859H74.3242V30.4844Z" fill="black"/>
<path d="M71.6211 57.8047V68.6155L72.8223 69.5164V74.9218L73.7232 75.8227V84.2311H75.8253V75.8227L77.0265 74.9218V69.5164L77.9274 68.6155V57.8047H71.6211Z" fill="#7F7F7F"/>
<path d="M72.2227 57.5078V68.6189L73.1236 69.5198V74.9252L74.0245 75.5258V84.2345H75.8263V75.5258L76.7272 74.9252V69.5198L77.3278 68.6189V57.5078H72.2227Z" fill="#9E9E9E"/>
<path d="M73.123 57.5078V68.6189L73.7236 69.5198V74.9252L74.3242 75.5258V84.2345H75.5254V75.5258L76.126 74.9252V69.5198L76.7267 68.6189V57.5078H73.123Z" fill="#BFBFBF"/>
<path d="M73.7236 57.5078V68.6189L74.0239 69.5198V74.9252L74.6245 75.5258V84.2345H75.2251V75.5258L75.5254 74.9252V69.5198L76.126 68.6189V57.5078H73.7236Z" fill="#DEDEDE"/>
<path d="M74.7747 84.2311C75.0234 84.2311 75.2251 78.3154 75.2251 71.0179C75.2251 63.7204 75.0234 57.8047 74.7747 57.8047C74.5259 57.8047 74.3242 63.7204 74.3242 71.0179C74.3242 78.3154 74.5259 84.2311 74.7747 84.2311Z" fill="white"/>
<path d="M71.6211 57.8047V68.6155L72.8223 69.5164V74.9218L73.7232 75.8227V84.2311H75.8253V75.8227L77.0265 74.9218V69.5164L77.9274 68.6155V57.8047H71.6211Z" stroke="black" stroke-width="0.3003"/>
<path d="M71.9219 68.6172H77.9279" stroke="black" stroke-width="0.3003"/>
<path d="M72.5225 74.9219H76.4264" stroke="black" stroke-width="0.3003"/>
<path d="M72.5225 69.5156H76.4264" stroke="black" stroke-width="0.3003"/>
<path d="M74.0244 75.8281H75.8262" stroke="black" stroke-width="0.3003"/>
<path d="M12.4629 109.156H137.388V137.384H12.4629V109.156Z" fill="#999999" stroke="black" stroke-width="0.3003"/>
<path d="M0 99.8516H150V109.161H0V99.8516Z" stroke="black" stroke-width="0.3003"/>
<path d="M118.769 62.314V60.8125H135.736V62.314H118.769Z" fill="#B2B2B2"/>
<path d="M119.369 28.6797H149.099V55.4064H119.369V28.6797Z" fill="#666666"/>
<path d="M121.171 30.1797H147.597V46.6962H121.171V30.1797Z" fill="#4C4C4C"/>
<path d="M121.171 48.1968H147.597V46.6953H121.171V48.1968Z" fill="#333333"/>
<path d="M118.769 60.814L121.621 59.3125H132.733L135.736 60.814H118.769Z" fill="#CCCCCC"/>
<path d="M121.621 59.3111V56.0078H132.732V59.3111H121.621Z" fill="#999999"/>
<path d="M118.769 62.3141V60.8126L121.621 59.3111V56.0078H132.733V59.3111L135.736 60.8126V62.3141H118.769Z" stroke="black" stroke-width="0.3003"/>
<path d="M56.0059 125.074L61.7116 137.386H89.0389L94.4443 125.074L74.9248 112.461L56.0059 125.074Z" fill="#4C4C4C"/>
<path d="M50 125.072V118.766L56.006 109.156H93.5435L99.8498 118.766V125.072H87.5375L84.2342 121.619H65.6156L62.3123 125.072H50Z" fill="#B2B2B2"/>
<path d="M53.0029 113.961L56.0059 109.156H93.5435L96.8468 113.961H53.0029Z" fill="#7F7F7F"/>
<path d="M50 125.072V118.766L56.006 109.156H93.5435L99.8498 118.766V125.072H87.5375L84.2342 121.619H65.6156L62.3123 125.072H50Z" stroke="black" stroke-width="0.3003"/>
<path d="M57.6576 125.075C60.2283 125.075 62.3122 122.991 62.3122 120.42C62.3122 117.85 60.2283 115.766 57.6576 115.766C55.0869 115.766 53.0029 117.85 53.0029 120.42C53.0029 122.991 55.0869 125.075 57.6576 125.075Z" fill="#7F7F7F" stroke="black" stroke-width="0.3003"/>
<path d="M40.3906 125.378L53.9041 117.57L58.4086 125.678L44.8951 133.486L40.3906 125.378Z" fill="#CCCCCC"/>
<path d="M43.0928 123.875L51.2009 119.07L55.7054 127.479L47.5973 131.833L43.0928 123.875Z" fill="#999999"/>
<path d="M43.6934 125.375L51.8015 120.57" stroke="black" stroke-width="0.3003"/>
<path d="M44.5947 126.575L52.7028 122.07" stroke="black" stroke-width="0.3003"/>
<path d="M45.1953 128.078L53.6037 123.273" stroke="black" stroke-width="0.3003"/>
<path d="M46.0957 129.131L54.2038 124.477" stroke="black" stroke-width="0.3003"/>
<path d="M46.9971 130.781L55.1052 125.977" stroke="black" stroke-width="0.3003"/>
<path d="M43.3936 124.473L51.5017 119.969" stroke="black" stroke-width="0.3003"/>
<path d="M44.2939 125.977L52.4021 121.172" stroke="black" stroke-width="0.3003"/>
<path d="M44.8945 127.178L53.0026 122.523" stroke="black" stroke-width="0.3003"/>
<path d="M45.7959 128.68L53.904 123.875" stroke="black" stroke-width="0.3003"/>
<path d="M46.3965 129.88L54.5046 125.375" stroke="black" stroke-width="0.3003"/>
<path d="M47.2969 131.383L55.405 126.578" stroke="black" stroke-width="0.3003"/>
<path d="M40.3906 125.378L53.9041 117.57L58.4086 125.678L44.8951 133.486L40.3906 125.378Z" stroke="black" stroke-width="0.3003"/>
</g>
<defs>
<clipPath id="clip0_2109_198259">
<rect width="150" height="150" fill="white"/>
</clipPath>
</defs>
</svg>
