<svg width="150" height="150" viewBox="0 0 150 150" fill="none" xmlns="http://www.w3.org/2000/svg">
<g clip-path="url(#clip0_2109_196321)">
<path d="M13.6641 4.19531H108.859V150H13.6641V4.19531Z" fill="#333333" stroke="black" stroke-width="0.354965"/>
<path d="M20.2705 61.6793H51.802V21.6094H20.2705V61.6793Z" fill="#666666"/>
<path d="M35.8857 61.6797H96.096V101.54H35.8857V61.6797Z" fill="#4C4C4C"/>
<path d="M143.693 21.6094H149.85V96.9241H143.693V21.6094Z" fill="#666666"/>
<path d="M108.858 0H143.693V74.8951H108.858V0Z" fill="#CCCCCC"/>
<path d="M108.859 53.0779L143.694 21.6094V74.8961H108.859V53.0779Z" fill="#C7C7C7"/>
<path d="M108.859 56.4373L143.694 24.9688V74.8988H108.859V56.4373Z" fill="#C2C2C2"/>
<path d="M108.859 61.0467L143.694 29.5781V74.8928H108.859V61.0467Z" fill="#BDBDBD"/>
<path d="M108.858 0H143.693V74.8951H108.858V0Z" stroke="black" stroke-width="0.354965"/>
<path d="M108.859 74.8984H143.694V150.003H108.859V74.8984Z" fill="#CCCCCC"/>
<path d="M108.859 128.39L143.694 96.9219V149.999H108.859V128.39Z" fill="#C7C7C7"/>
<path d="M108.859 131.328L143.694 99.8594V149.999H108.859V131.328Z" fill="#C2C2C2"/>
<path d="M108.859 136.365L143.694 104.477V150.001H108.859V136.365Z" fill="#BDBDBD"/>
<path d="M108.859 74.8984H143.694V150.003H108.859V74.8984Z" stroke="black" stroke-width="0.354965"/>
<path d="M143.693 26.2266H149.85V95.6671H143.693V26.2266Z" fill="#707070"/>
<path d="M143.693 30.4219H149.85V94.4079H143.693V30.4219Z" fill="#7A7A7A"/>
<path d="M143.693 35.0312H149.85V93.1431H143.693V35.0312Z" fill="#858585"/>
<path d="M143.693 39.6484H149.85V91.4666H143.693V39.6484Z" fill="#8F8F8F"/>
<path d="M143.693 43.8438H149.85V90.2074H143.693V43.8438Z" fill="#999999"/>
<path d="M143.693 48.4609H149.85V88.9504H143.693V48.4609Z" fill="#A3A3A3"/>
<path d="M143.693 52.6562H149.85V87.6912H143.693V52.6562Z" fill="#ADADAD"/>
<path d="M143.693 57.2734H149.85V86.4343H143.693V57.2734Z" fill="#B8B8B8"/>
<path d="M143.693 61.4688H149.85V84.7555H143.693V61.4688Z" fill="#C2C2C2"/>
<path d="M143.693 66.0859H149.85V83.4985H143.693V66.0859Z" fill="#CCCCCC"/>
<path d="M143.693 21.6094H149.85V96.9241H143.693V21.6094Z" stroke="black" stroke-width="0.354965"/>
<path d="M23.2734 141.188H118.168V149.999H23.2734V141.188Z" fill="#B2B2B2"/>
<path d="M99.3994 74.8984H108.859V88.1152H99.3994V74.8984Z" fill="#B2B2B2" stroke="black" stroke-width="0.354965"/>
<path d="M67.5674 105.734H99.3992V110.35H67.5674V105.734Z" fill="#B2B2B2" stroke="black" stroke-width="0.354965"/>
<path d="M73.874 70.4922H99.3995V96.9258H73.874V70.4922Z" fill="#B2B2B2" stroke="black" stroke-width="0.354965"/>
<path d="M10.6611 35.0312H32.8834V66.0802H10.6611V35.0312Z" fill="#666666"/>
<path d="M105.706 101.539H23.2735L20.2705 141.189H108.859L105.706 101.539Z" fill="#999999"/>
<path d="M70.8711 48.4609H73.8741V119.16H70.8711V48.4609Z" fill="#B2B2B2"/>
<path d="M23.2737 141.188V149.999H4.50488V145.383L23.2737 141.188Z" fill="#999999"/>
<path d="M118.168 141.188L137.387 145.383V149.999H118.168V141.188Z" fill="#7F7F7F"/>
<path d="M23.2737 141.188H118.169L137.388 145.383V149.999H4.50488V145.383L23.2737 141.188Z" stroke="black" stroke-width="0.354965"/>
<path d="M80.1797 141.189V101.539H105.705L108.858 141.189L102.402 105.735H83.483V141.189H80.1797Z" fill="#B2B2B2"/>
<path d="M108.859 141.189L99.3993 110.35H83.4834V105.734H102.402L108.859 141.189Z" fill="#7F7F7F"/>
<path d="M80.1797 141.189V101.539H105.705L108.858 141.189L102.402 105.735H83.483V141.189H80.1797Z" stroke="#4C4C4C" stroke-width="0.354965"/>
<path d="M70.8711 92.7266H73.8741V110.349H70.8711V92.7266Z" fill="#666666"/>
<path d="M70.8711 53.0781H73.8741V66.0851H70.8711V53.0781Z" fill="#666666"/>
<path d="M70.8711 53.0781H73.8741" stroke="black" stroke-width="0.354965"/>
<path d="M70.8711 66.0859H73.8741" stroke="white" stroke-width="0.354965"/>
<path d="M70.8711 92.7266H73.8741" stroke="black" stroke-width="0.354965"/>
<path d="M70.8711 110.352H73.8741" stroke="white" stroke-width="0.354965"/>
<path d="M70.8711 48.4609H73.8741V119.16H70.8711V48.4609Z" stroke="black" stroke-width="0.354965"/>
<path d="M57.9583 61.6751H55.1055V30.8359H57.9583V61.6751Z" fill="#4C4C4C"/>
<path d="M64.565 61.6751H61.2617V30.8359H64.565V61.6751Z" fill="#4C4C4C"/>
<path d="M108.859 30.8401H51.8018V21.6094H108.859V30.8401Z" fill="#7F7F7F"/>
<path d="M86.4863 61.6751H108.859V30.8359H86.4863V61.6751Z" fill="#666666"/>
<path d="M1.05078 96.9219H20.27V136.782H1.05078V96.9219Z" fill="#CCCCCC"/>
<path d="M1.05078 125.455L20.27 108.672V136.784H1.05078V125.455Z" fill="#C7C7C7"/>
<path d="M1.05078 127.135L20.27 110.352V136.785H1.05078V127.135Z" fill="#C2C2C2"/>
<path d="M1.05078 129.65L20.27 112.867V136.783H1.05078V129.65Z" fill="#BDBDBD"/>
<path d="M1.05078 96.9219H20.27V136.782H1.05078V96.9219Z" stroke="black" stroke-width="0.354965"/>
<path d="M70.8708 88.1081H32.8828V79.2969H70.8708V88.1081Z" fill="#7F7F7F"/>
<path d="M70.8708 87.6908H32.8828V79.7188H70.8708V87.6908Z" fill="#999999"/>
<path d="M70.8708 86.8562H32.8828V80.5625H70.8708V86.8562Z" fill="#B2B2B2"/>
<path d="M70.8708 85.5965H32.8828V81.8203H70.8708V85.5965Z" fill="#CCCCCC"/>
<path d="M70.8708 85.1714H32.8828V82.2344H70.8708V85.1714Z" fill="#E5E5E5"/>
<path d="M70.8708 84.3369H32.8828V83.0781H70.8708V84.3369Z" fill="white"/>
<path d="M70.8708 88.1081H32.8828V79.2969H70.8708V88.1081Z" stroke="black" stroke-width="0.354965"/>
<path d="M10.6611 35.0312H32.8834V53.9124H10.6611V35.0312Z" fill="#6E6E6E"/>
<path d="M10.6611 35.0312H32.8834V50.5557H10.6611V35.0312Z" fill="#787878"/>
<path d="M10.6611 35.0312H32.8834V47.1991H10.6611V35.0312Z" fill="#7F7F7F"/>
<path d="M10.6611 35.0312H32.8834V43.8424H10.6611V35.0312Z" fill="#878787"/>
<path d="M10.6611 35.0312H32.8834V40.4858H10.6611V35.0312Z" fill="#919191"/>
<path d="M10.6611 35.0312H32.8834V37.1292H10.6611V35.0312Z" fill="#999999"/>
<path d="M10.6611 35.0312H32.8834V66.0802H10.6611V35.0312Z" stroke="black" stroke-width="0.354965"/>
<path d="M7.35742 66.0859H32.8829V96.9251H7.35742V66.0859Z" fill="#666666"/>
<path d="M7.80762 66.0859H32.8827V84.7573H7.80762V66.0859Z" fill="#6E6E6E"/>
<path d="M7.80762 66.0859H32.8827V81.4006H7.80762V66.0859Z" fill="#787878"/>
<path d="M7.80762 66.0859H32.8827V78.044H7.80762V66.0859Z" fill="#7F7F7F"/>
<path d="M7.80762 66.0859H32.8827V74.8971H7.80762V66.0859Z" fill="#878787"/>
<path d="M7.80762 66.0859H32.8827V71.5405H7.80762V66.0859Z" fill="#919191"/>
<path d="M7.35742 66.0859H32.8829V68.3936H7.35742V66.0859Z" fill="#999999"/>
<path d="M7.35742 66.0859H32.8829V96.9251H7.35742V66.0859Z" stroke="black" stroke-width="0.354965"/>
<path d="M20.2703 96.9258H1.05105L0.600601 94.8279L0.15015 91.0516L0 86.4362V80.9817L0.15015 76.3663L0.600601 72.5901L1.05105 70.4922H20.2703L20.8709 72.5901L21.1712 75.9467L21.4715 80.9817V86.4362L21.1712 91.0516L20.8709 94.8279L20.2703 96.9258Z" fill="#4C4C4C"/>
<path d="M0.600601 94.8279L0.15015 91.0516L0 86.4362V80.9817L0.15015 76.3663L0.600601 72.5901L1.05105 70.4922H20.2703L20.8709 72.5901L21.1712 75.9467L21.4715 80.9817V86.4362L21.1712 91.0516L20.8709 94.8279H0.600601Z" fill="#666666"/>
<path d="M0.15015 91.0475L0 86.4321V80.9775L0.15015 76.3622L0.600601 72.5859H20.8709L21.1712 75.9426L21.4715 80.9775V86.4321L21.1712 91.0475H0.15015Z" fill="#7F7F7F"/>
<path d="M0 86.4348V80.9803L0.15015 76.3649L21.1712 75.9453L21.4715 80.9803V86.4348H0Z" fill="#999999"/>
<path d="M20.2703 96.9258H1.05105L0.600601 94.8279L0.15015 91.0516L0 86.4362V80.9817L0.15015 76.3663L0.600601 72.5901L1.05105 70.4922H20.2703L20.8709 72.5901L21.1712 75.9467L21.4715 80.9817V86.4362L21.1712 91.0516L20.8709 94.8279L20.2703 96.9258Z" stroke="black" stroke-width="0.354965"/>
</g>
<defs>
<clipPath id="clip0_2109_196321">
<rect width="150" height="150" fill="white"/>
</clipPath>
</defs>
</svg>
