<svg width="150" height="150" viewBox="0 0 150 150" fill="none" xmlns="http://www.w3.org/2000/svg">
<g clip-path="url(#clip0_2109_197707)">
<path d="M14.2646 4.35128V2.375H56.9073V4.35128H14.2646Z" fill="#4C4C4C" stroke="black" stroke-width="0.344523"/>
<path d="M10.06 96.2435L1.80176 87.1526V61.4609H10.06V96.2435Z" fill="#B2B2B2" stroke="black" stroke-width="0.344523"/>
<path d="M69.5195 57.9089V4.35156H98.6487V57.9089H69.5195Z" fill="#BFBFBF"/>
<path d="M103.754 76.0907L98.6484 57.9089V4.35156H105.555V76.0907H103.754Z" fill="#B2B2B2"/>
<path d="M62.9131 76.0907L69.5197 57.9089V4.35156H62.9131V76.0907Z" fill="#A6A6A6"/>
<path d="M8.25781 76.0859H144.444V147.627H8.25781V76.0859Z" fill="#CCCCCC"/>
<path d="M8.25781 127.079L144.444 97.0391V147.632H8.25781V127.079Z" fill="#C7C7C7"/>
<path d="M8.25781 129.844L144.444 99.8047V147.631H8.25781V129.844Z" fill="#C2C2C2"/>
<path d="M8.25781 134.586L144.444 104.547V147.63H8.25781V134.586Z" fill="#BDBDBD"/>
<path d="M10.0605 76.089V42.4922H23.5741V76.089H10.0605Z" fill="#E5E5E5"/>
<path d="M10.0605 42.4939L11.8623 4.35156H25.3759L23.5741 42.4939H10.0605Z" fill="#F2F2F2"/>
<path d="M10.0605 76.0907V42.4939L11.8623 4.35156H25.3759L23.5741 42.4939V76.0907H10.0605Z" stroke="black" stroke-width="0.344523"/>
<path d="M103.754 76.0831V66.9922H144.445V76.0831H103.754Z" fill="#F2F2F2"/>
<path d="M105.556 66.9972V57.9062H144.445V66.9972H105.556Z" fill="#E5E5E5"/>
<path d="M105.556 53.5547V57.9025H144.445V53.5547H105.556Z" fill="#D9D9D9"/>
<path d="M105.556 53.559V51.1875H144.445V53.559H105.556Z" fill="#CCCCCC"/>
<path d="M105.556 51.1872V49.2109H144.445V51.1872H105.556Z" fill="#BFBFBF"/>
<path d="M103.754 76.0884V66.9975H105.556V49.2109H144.445V76.0884H103.754Z" stroke="black" stroke-width="0.344523"/>
<path d="M105.556 66.9922H144.445" stroke="#7F7F7F" stroke-width="0.344523"/>
<path d="M105.555 49.2116L104.654 42.4922H146.246L144.444 49.2116H105.555Z" fill="#999999" stroke="black" stroke-width="0.344523"/>
<path d="M105.555 0L104.654 42.4901H146.246L144.444 0H105.555Z" fill="#CCCCCC" stroke="black" stroke-width="0.344523"/>
<path d="M143.544 2.375L144.445 24.3118H120.871V2.375H143.544Z" fill="#333333"/>
<path d="M113.964 4.35156H115.766V6.52548H113.964V4.35156Z" fill="#7F0000"/>
<path d="M113.964 35.7734H115.766V37.7497H113.964V35.7734Z" fill="#7F0000"/>
<path d="M108.859 4.35156H110.661V6.52548H108.859V4.35156Z" fill="#336633"/>
<path d="M108.859 35.7734H110.661V37.7497H108.859V35.7734Z" fill="#336633"/>
<path d="M107.057 40.115V24.3047H117.267" stroke="white" stroke-width="0.344523"/>
<path d="M107.057 22.3355V2.375H117.267" stroke="white" stroke-width="0.344523"/>
<path d="M107.057 40.115H117.267V24.3047" stroke="#999999" stroke-width="0.344523"/>
<path d="M107.057 22.3355H117.267V2.375" stroke="#999999" stroke-width="0.344523"/>
<path d="M143.994 26.6797L144.445 40.1184H120.871V26.6797H143.994Z" fill="#B2B2B2"/>
<path d="M144.294 26.6797L144.445 33.3991H132.433V26.6797H144.294Z" fill="#999999"/>
<path d="M132.283 33.3984L132.433 40.1178H120.871V33.3984H132.283Z" fill="#999999"/>
<path d="M111.561 17.59L110.66 16.6019V14.428L111.561 13.2422H113.063L113.963 14.428V16.6019L113.063 17.59H111.561Z" fill="#7F0000"/>
<path d="M110.961 19.9616L108.859 17.9853V15.4161L110.961 13.2422H113.664L115.466 15.4161V17.9853L113.664 19.9616H110.961Z" stroke="#B2B2B2" stroke-width="0.344523"/>
<path d="M10.0605 149.997V147.625H142.643V149.997H10.0605Z" fill="black"/>
<path d="M8.25781 76.0859H144.444V147.627H8.25781V76.0859Z" stroke="black" stroke-width="0.344523"/>
<path d="M62.9131 76.0907L69.5197 57.9089V4.35156L62.9131 53.561V76.0907Z" fill="#999999"/>
<path d="M62.9131 4.35128V2.375H105.556V4.35128H62.9131Z" fill="#E5E5E5" stroke="black" stroke-width="0.344523"/>
<path d="M23.5732 76.089V42.4922H62.9126V76.089H23.5732Z" fill="#BFBFBF"/>
<path d="M23.5732 42.4936L25.375 2.375H64.7144L62.9126 42.4936H23.5732Z" fill="#CCCCCC"/>
<path d="M41.8916 35.7681L43.0928 8.89062H58.7084L57.8075 35.7681H41.8916Z" fill="#E5E5E5"/>
<path d="M42.793 12.0527L43.0933 8.89062H58.7089V12.0527H42.793Z" fill="#999999"/>
<path d="M41.8916 35.7681L43.0928 8.89062H44.8946L43.6934 35.7681H41.8916Z" fill="#999999"/>
<path d="M41.8916 35.7681L43.0928 8.89062H58.7084" stroke="black" stroke-width="0.344523"/>
<path d="M59.0087 8.89062L57.8075 35.7681H41.8916" stroke="white" stroke-width="0.344523"/>
<path d="M23.5732 76.0904V42.4936L25.375 2.375H64.7144L62.9126 42.4936V76.0904H23.5732Z" stroke="black" stroke-width="0.344523"/>
<path d="M36.4863 147.629V143.281H53.6034V147.629H36.4863Z" fill="#4C4C4C"/>
<path d="M35.5859 147.626L36.4868 142.092L43.9943 140.906H45.7961L53.604 142.092L54.2046 147.626L51.8022 143.278H38.2886L35.5859 147.626Z" fill="#E54C00" stroke="black" stroke-width="0.344523"/>
<path d="M35.5859 149.997V147.626H44.2946V140.906H45.7961V147.626H54.2046V149.997H35.5859Z" fill="#FF6600" stroke="black" stroke-width="0.344523"/>
<path d="M33.1831 106.125L32.2822 104.939L33.1831 104.148L33.7837 104.939L33.1831 106.125Z" fill="black"/>
<path d="M141.292 73.7153L140.391 72.5295L141.292 71.3438L142.192 72.5295L141.292 73.7153Z" fill="black"/>
<path d="M33.1836 104.938V143.277L35.586 145.254" stroke="black" stroke-width="0.344523"/>
<path d="M0 87.1526H1.8018V61.4609H0V87.1526Z" fill="#E5E5E5" stroke="black" stroke-width="0.344523"/>
<path d="M60.2105 70.5496L59.6099 69.3639V46.8342L60.2105 45.6484H59.6099L58.709 46.8342V69.3639L59.6099 70.5496H60.2105Z" fill="#FF6600"/>
<path d="M62.9131 76.0881L69.5197 57.9062H98.6488L103.754 76.0881H62.9131Z" fill="#999999" stroke="black" stroke-width="0.344523"/>
<path d="M71.3213 76.0881L74.9249 57.9062" stroke="#666666" stroke-width="0.344523"/>
<path d="M96.8472 76.0881L93.5439 57.9062" stroke="#666666" stroke-width="0.344523"/>
<path d="M98.6484 57.9089V4.35156" stroke="#7F7F7F" stroke-width="0.344523"/>
<path d="M65.3154 57.1139V33.3984H73.1232V57.1139H65.3154Z" fill="#7F7F7F"/>
<path d="M65.6152 55.1347V34.9766H73.1227V55.1347H65.6152Z" fill="#919191"/>
<path d="M65.6152 53.5585V36.5625H73.1227V53.5585H65.6152Z" fill="#A1A1A1"/>
<path d="M65.6152 51.9746V38.1406H73.1227V51.9746H65.6152Z" fill="#B2B2B2"/>
<path d="M65.6152 49.9986V40.1172H73.1227V49.9986H65.6152Z" fill="#C4C4C4"/>
<path d="M65.6152 48.4225V41.7031H73.1227V48.4225H65.6152Z" fill="#D4D4D4"/>
<path d="M65.3154 46.8386V43.2812H73.1232V46.8386H65.3154Z" fill="#E5E5E5"/>
<path d="M65.3154 57.1139V33.3984H73.1232V57.1139H65.3154Z" stroke="#4C4C4C" stroke-width="0.344523"/>
<path d="M96.8467 64.6266V42.4922H102.853V64.6266H96.8467Z" fill="#4C4C4C" stroke="black" stroke-width="0.344523"/>
<path d="M96.8467 34.5859V42.4911H102.853V34.5859H96.8467Z" fill="#7F7F7F" stroke="black" stroke-width="0.344523"/>
<path d="M141.292 72.532L141.592 78.0656L138.589 80.8324L142.192 82.4134L138.889 85.5755L142.493 87.1565L139.039 89.9233L142.643 91.5043L139.79 94.2711L143.093 95.8522L139.94 98.619L143.544 100.595L140.391 103.362L143.994 104.943L140.841 107.71L144.445 109.291L148.048 107.71L144.895 104.943L148.349 103.362L145.346 100.595L148.799 98.619L145.346 96.2474L148.949 94.2711L146.096 91.5043L149.25 89.9233L146.247 87.1565L149.7 85.1802L146.547 82.8087L150 80.8324L146.997 78.0656L147.147 65.8126L145.346 44.4688" stroke="black" stroke-width="0.344523"/>
<path d="M141.291 74.9025L139.489 72.531L141.291 70.5547L142.642 72.531L141.291 74.9025Z" stroke="#7F7F7F" stroke-width="0.344523"/>
<path d="M33.1836 107.309L31.3818 104.937L33.1836 102.961L34.6851 104.937L33.1836 107.309Z" stroke="#7F7F7F" stroke-width="0.344523"/>
</g>
<defs>
<clipPath id="clip0_2109_197707">
<rect width="150" height="150" fill="white"/>
</clipPath>
</defs>
</svg>
