<svg width="150" height="150" viewBox="0 0 150 150" fill="none" xmlns="http://www.w3.org/2000/svg">
<g clip-path="url(#clip0_2109_198966)">
<path d="M127.777 12.9453L128.378 22.9568" stroke="black" stroke-width="0.32198"/>
<path d="M142.493 139.991L140.241 132.741L135.586 127.562" stroke="#666666" stroke-width="0.32198"/>
<path d="M7.35742 139.991L9.60967 132.741L14.2643 127.562" stroke="#666666" stroke-width="0.32198"/>
<path d="M144.294 147.585V138.609L147.597 139.3L150 144.823L144.294 147.585Z" fill="#666666" stroke="black" stroke-width="0.32198"/>
<path d="M5.55556 147.585V138.609L2.25225 139.3L0 144.823L5.55556 147.585Z" fill="#666666" stroke="black" stroke-width="0.32198"/>
<path d="M144.294 147.585V138.609L138.588 139.3L137.688 144.823L144.294 147.585Z" fill="#CCCCCC" stroke="black" stroke-width="0.32198"/>
<path d="M5.55566 147.585V138.609L11.2614 139.3L12.1623 144.823L5.55566 147.585Z" fill="#CCCCCC" stroke="black" stroke-width="0.32198"/>
<path d="M129.28 98.9084H111.862L129.28 92.3491V88.8969L146.397 82.3376V72.3261L137.688 69.2191V62.6598L134.985 52.6483V26.4113L126.277 19.5068V16.3998L129.28 12.9475V3.28125H111.862L54.5049 26.4113H20.2707V65.7669H43.0935L57.5079 72.3261V85.7899H48.7992V82.3376H28.6791L25.9764 78.8854H22.9734L20.2707 82.3376V98.9084L17.2677 105.468H14.2646V128.598H134.985V105.468H131.982L129.28 98.9084Z" fill="#999999" stroke="black" stroke-width="0.32198"/>
<path d="M62.3123 56.7894L55.4054 59.206H48.1982L41.2913 56.7894L35.2853 51.611L31.0811 45.0518L28.6787 37.1116V28.8262L31.0811 20.8861L35.2853 13.9816L41.2913 9.14845L48.1982 6.38665L116.366 0H119.069L121.772 1.03567L123.874 2.58918L125.676 5.35098L126.276 8.28539V11.2198L125.676 14.3268L123.874 16.916L121.772 18.8147L62.3123 56.7894Z" fill="#CCCCCC" stroke="black" stroke-width="0.32198"/>
<path d="M51.802 45.9167C58.1044 45.9167 63.2134 40.0434 63.2134 32.7982C63.2134 25.5531 58.1044 19.6797 51.802 19.6797C45.4997 19.6797 40.3906 25.5531 40.3906 32.7982C40.3906 40.0434 45.4997 45.9167 51.802 45.9167Z" fill="#B2B2B2"/>
<path d="M43.3936 42.2926L41.2915 38.8404L40.3906 35.0429V30.9002L41.2915 26.7575L43.3936 23.3053L46.3966 20.8887L50.0002 19.5078H53.6038L56.9071 20.8887L59.9101 23.3053" stroke="#666666" stroke-width="0.32198"/>
<path d="M59.9101 23.3047L62.0122 26.7569L63.2134 30.8996V35.0423L62.0122 38.8398L59.9101 42.292L56.9071 44.7086L53.6038 46.0895H50.0002L46.3966 44.7086L43.3936 42.292" stroke="white" stroke-width="0.32198"/>
<path d="M49.0991 34.3488L48.7988 32.2774L49.6997 30.5513L51.2012 29.5156L53.003 29.8608L54.2042 31.2417L54.5045 33.3131L53.9039 35.0392L52.1021 36.0749L50.3003 35.7297L49.0991 34.3488Z" fill="#E5E5E5" stroke="#666666" stroke-width="0.32198"/>
<path d="M43.0928 37.8057L43.3931 36.77L43.9937 36.0796L44.8946 35.7344L45.7955 36.4248L46.0958 37.1153V38.1509L45.4952 38.8414L44.5943 39.1866L43.6934 38.8414L43.0928 37.8057Z" fill="#333333"/>
<path d="M46.0957 25.0323L46.396 23.9966L46.9966 23.3062L47.8975 22.9609L48.4981 23.6514L49.0987 24.3418V25.3775L48.4981 26.068L47.5972 26.4132L46.6963 26.068L46.0957 25.0323Z" fill="#333333"/>
<path d="M57.207 28.4776L57.5073 27.4419L58.1079 26.7515L59.0088 26.4062L59.6094 26.7515L60.21 27.7871V28.8228L59.6094 29.5133L58.7085 29.8585L57.8076 29.5133L57.207 28.4776Z" fill="#333333"/>
<path d="M54.2041 41.251L54.5044 40.2154L55.105 39.5249L56.0059 39.1797L56.6065 39.8701L57.2071 40.5606V41.5963L56.6065 42.2867L55.7056 42.6319L54.8047 42.2867L54.2041 41.251Z" fill="#333333"/>
<path d="M20.8711 97.875H111.261V98.9107H20.8711V97.875Z" fill="#333333"/>
<path d="M17.8682 104.773H131.382V105.464H17.8682V104.773Z" fill="#333333"/>
<path d="M20.8711 98.9062H111.261" stroke="#CCCCCC" stroke-width="0.32198"/>
<path d="M17.8682 105.469H131.382" stroke="#CCCCCC" stroke-width="0.32198"/>
<path d="M98.3483 55.0638C101.499 55.0638 104.054 52.1272 104.054 48.5046C104.054 44.882 101.499 41.9453 98.3483 41.9453C95.1971 41.9453 92.6426 44.882 92.6426 48.5046C92.6426 52.1272 95.1971 55.0638 98.3483 55.0638Z" fill="#B2B2B2"/>
<path d="M20.8711 65.7656V70.944H28.0783V65.7656H20.8711Z" fill="#666666" stroke="black" stroke-width="0.32198"/>
<path d="M25.9756 78.8828L26.5762 82.3351H28.6783L25.9756 78.8828Z" fill="#666666"/>
<path d="M98.3487 53.3382C100.671 53.3382 102.553 51.1743 102.553 48.505C102.553 45.8357 100.671 43.6719 98.3487 43.6719C96.0268 43.6719 94.1445 45.8357 94.1445 48.505C94.1445 51.1743 96.0268 53.3382 98.3487 53.3382Z" fill="#CCCCCC"/>
<path d="M67.7178 81.6421L83.934 63L94.1442 74.0472L83.3334 88.8918H74.0241L67.7178 81.6421Z" fill="#B2B2B2"/>
<path d="M67.418 85.7891V88.2056H89.0396V85.7891H67.418Z" fill="white"/>
<path d="M76.7266 88.8965V80.6112H82.4323V85.7895H83.9338V78.1946H90.5404V76.4685H83.9338V69.2188H88.7386L90.8407 69.9092L92.6425 71.6353L94.144 73.7067L94.7446 76.1232V78.885L94.144 81.3016L92.6425 83.3729L90.8407 84.7538L88.7386 85.7895H86.9368V88.8965H76.7266Z" fill="#CCCCCC"/>
<path d="M48.1983 85.7891H24.4746" stroke="#4C4C4C" stroke-width="0.32198"/>
<path d="M20.8711 65.0765V52.6484H28.0783" stroke="#CCCCCC" stroke-width="0.32198"/>
<path d="M28.0783 52.6484V65.0765H20.8711" stroke="#666666" stroke-width="0.32198"/>
<path d="M15.165 48.1607L18.7686 52.3034L22.9728 56.4461L23.8737 55.4104L19.8197 51.6129L15.7656 47.125L15.165 48.1607Z" fill="#666666"/>
<path d="M23.874 60.9341L28.6788 62.315L33.4836 63.3507L33.7839 62.315L28.9791 61.2793L24.1743 59.8984L23.874 60.9341Z" fill="#666666"/>
<path d="M14.865 48.5025L14.2644 47.8121L14.1143 47.1216L14.2644 46.4312L14.865 46.0859H15.4656L16.0662 46.4312V47.1216V47.8121L15.4656 48.5025H14.865Z" fill="black"/>
<path d="M23.8741 61.2745H23.2735L22.6729 60.9292V60.2388L22.9732 59.5483L23.5738 59.2031H24.1744L24.4747 59.8936L24.775 60.584L24.4747 61.2745H23.8741Z" fill="black"/>
<path d="M32.5825 63.6963L32.2822 63.0059V62.3154L32.8828 61.625H33.4834L34.084 61.9702L34.3843 62.6607V63.6963L33.7837 64.0416L33.1831 64.3868L32.5825 63.6963Z" fill="#B2B2B2" stroke="#4C4C4C" stroke-width="0.32198"/>
<path d="M24.4742 59.2081C25.6351 59.2081 26.5763 58.1262 26.5763 56.7916C26.5763 55.4569 25.6351 54.375 24.4742 54.375C23.3132 54.375 22.3721 55.4569 22.3721 56.7916C22.3721 58.1262 23.3132 59.2081 24.4742 59.2081Z" fill="#B2B2B2" stroke="#4C4C4C" stroke-width="0.32198"/>
<path d="M54.5049 106.156V127.56" stroke="#E5E5E5" stroke-width="0.32198"/>
<path d="M94.7451 106.156V127.56" stroke="#E5E5E5" stroke-width="0.32198"/>
<path d="M93.8438 106.156V127.56" stroke="#666666" stroke-width="0.32198"/>
<path d="M53.9043 106.156V127.56" stroke="#666666" stroke-width="0.32198"/>
<path d="M97.7476 48.5078L95.6455 52.6505" stroke="#7F7F7F" stroke-width="0.32198"/>
<path d="M12.1621 105.469H14.2642V128.599H12.1621V105.469Z" fill="#CCCCCC" stroke="black" stroke-width="0.32198"/>
<path d="M134.985 105.469H136.937V128.599H134.985V105.469Z" fill="#CCCCCC" stroke="black" stroke-width="0.32198"/>
<path d="M12.1621 128.594L10.9609 145.165H139.189L136.937 128.594H12.1621Z" fill="#CCCCCC" stroke="black" stroke-width="0.32198"/>
<path d="M56.6064 110.299V107.883H63.2131" stroke="#666666" stroke-width="0.32198"/>
<path d="M85.4355 110.299V107.883H91.7419" stroke="#666666" stroke-width="0.32198"/>
<path d="M96.8467 110.299V107.883H103.453" stroke="#666666" stroke-width="0.32198"/>
<path d="M125.676 110.299V107.883H131.982" stroke="#666666" stroke-width="0.32198"/>
<path d="M131.982 107.883V110.299H125.676" stroke="#E5E5E5" stroke-width="0.32198"/>
<path d="M103.453 107.883V110.299H96.8467" stroke="#E5E5E5" stroke-width="0.32198"/>
<path d="M92.0422 107.883V110.299H85.4355" stroke="#E5E5E5" stroke-width="0.32198"/>
<path d="M63.2131 107.883V110.299H56.6064" stroke="#E5E5E5" stroke-width="0.32198"/>
<path d="M115.466 33.6562H116.967V84.7495H115.466V33.6562Z" fill="#666666"/>
<path d="M119.069 33.6562H120.571V84.7495H119.069V33.6562Z" fill="#666666"/>
<path d="M111.861 64.3828H123.573V78.8822H111.861V64.3828Z" fill="#B2B2B2"/>
<path d="M115.315 60.07C117.057 60.07 118.468 58.4471 118.468 56.4452C118.468 54.4432 117.057 52.8203 115.315 52.8203C113.574 52.8203 112.162 54.4432 112.162 56.4452C112.162 58.4471 113.574 60.07 115.315 60.07Z" stroke="#CCCCCC" stroke-width="0.32198"/>
<path d="M115.165 56.4478L112.763 54.0312" stroke="#CCCCCC" stroke-width="0.32198"/>
<path d="M118.168 54.7188L115.165 56.4449" stroke="#CCCCCC" stroke-width="0.32198"/>
<path d="M114.865 60.2428L115.166 56.4453" stroke="#CCCCCC" stroke-width="0.32198"/>
<path d="M68.9189 66.1075L69.8198 64.7266L76.4265 72.3215L75.5256 73.3572L68.9189 66.1075Z" fill="#666666"/>
<path d="M71.6211 63.0044L72.522 61.9688L79.1286 69.2185L77.9274 70.2541L71.6211 63.0044Z" fill="#666666"/>
<path d="M64.7148 64.0388L70.7208 56.7891L73.7239 60.5865L67.7178 67.491L64.7148 64.0388Z" fill="#666666"/>
<path d="M69.2193 65.9387C71.0437 65.9387 72.5226 64.2385 72.5226 62.1412C72.5226 60.0439 71.0437 58.3438 69.2193 58.3438C67.395 58.3438 65.916 60.0439 65.916 62.1412C65.916 64.2385 67.395 65.9387 69.2193 65.9387Z" stroke="#CCCCCC" stroke-width="0.32198"/>
<path d="M69.2188 61.9649L71.3209 59.2031" stroke="#CCCCCC" stroke-width="0.32198"/>
<path d="M70.7203 65.421L69.2188 61.9688" stroke="#CCCCCC" stroke-width="0.32198"/>
<path d="M65.916 61.625L69.2193 61.9702" stroke="#CCCCCC" stroke-width="0.32198"/>
<path d="M15.165 127.562H28.6786V128.598H15.165V127.562Z" fill="#E5E5E5" stroke="black" stroke-width="0.32198"/>
<path d="M120.57 127.562H134.084V128.598H120.57V127.562Z" fill="#E5E5E5" stroke="black" stroke-width="0.32198"/>
<path d="M9.60938 145.164H140.69V146.545H9.60938V145.164Z" fill="#E5E5E5" stroke="black" stroke-width="0.32198"/>
<path d="M18.6185 139.989C20.1941 139.989 21.4713 138.521 21.4713 136.709C21.4713 134.898 20.1941 133.43 18.6185 133.43C17.0429 133.43 15.7656 134.898 15.7656 136.709C15.7656 138.521 17.0429 139.989 18.6185 139.989Z" fill="#333333"/>
<path d="M130.03 139.989C131.605 139.989 132.882 138.521 132.882 136.709C132.882 134.898 131.605 133.43 130.03 133.43C128.454 133.43 127.177 134.898 127.177 136.709C127.177 138.521 128.454 139.989 130.03 139.989Z" fill="#333333"/>
<path d="M73.1232 150.002V138.609L68.919 139.3L65.916 146.55L73.1232 150.002Z" fill="#666666" stroke="black" stroke-width="0.32198"/>
<path d="M73.123 150.002V138.609L80.3303 139.3L81.8318 146.55L73.123 150.002Z" fill="#CCCCCC" stroke="black" stroke-width="0.32198"/>
<path d="M75.5259 138.609L73.4238 134.985L71.622 131.705L70.1205 128.771L68.9193 126.181L68.0184 123.765L67.4178 121.866L67.1175 120.313V119.104L67.4178 118.241L68.1685 117.723L69.2196 117.551L70.7211 117.896L72.5229 118.414L74.7751 119.449L77.3277 120.83L80.3307 122.729L81.3817 123.592L82.4328 125.491L82.5829 126.354L82.4328 127.044L81.5319 128.598L79.7301 129.634L78.679 130.151L77.3277 130.669L75.9763 130.842L74.4748 131.014H72.9733H71.3217L69.8202 130.669L68.1685 130.324L66.667 129.806L65.0153 129.116L63.5138 128.253L62.1625 127.217L60.8111 126.009L59.6099 124.628L58.5589 123.074L57.8081 121.348L57.0574 119.277L56.6069 117.033L56.3066 114.444V111.682L56.6069 108.748L57.2075 105.468L58.1084 102.016" stroke="#666666" stroke-width="0.32198"/>
<path d="M0 144.823L5.55556 144.133" stroke="black" stroke-width="0.32198"/>
<path d="M150 144.823L144.294 144.133" stroke="black" stroke-width="0.32198"/>
<path d="M65.916 146.55L73.1232 145.859" stroke="black" stroke-width="0.32198"/>
</g>
<defs>
<clipPath id="clip0_2109_198966">
<rect width="150" height="150" fill="white"/>
</clipPath>
</defs>
</svg>
