<svg width="150" height="150" viewBox="0 0 150 150" fill="none" xmlns="http://www.w3.org/2000/svg">
<g clip-path="url(#clip0_2109_196443)">
<path d="M3.89831 114.562L2.88136 120.569H0V123.572H17.1186V114.562H3.89831Z" fill="#7F7F7F" stroke="black" stroke-width="0.319056"/>
<path d="M17.1183 114.562L13.7285 123.572L30.3387 149.998H150V117.566L146.949 114.562H17.1183Z" fill="#7F7F7F"/>
<path d="M24.2373 140.093L30.339 150.003H150V117.57L24.2373 140.093Z" fill="#787878"/>
<path d="M17.1183 114.562L13.7285 123.572L30.3387 149.998H150V117.566L146.949 114.562H17.1183Z" stroke="black" stroke-width="0.319056"/>
<path d="M66.9489 50V114.565H10.6777V50H66.9489Z" fill="#666666" stroke="black" stroke-width="0.319056"/>
<path d="M66.9489 50V114.565H10.6777L66.9489 50Z" fill="#5E5E5E"/>
<path d="M66.9492 14.5625V76.4244H110.339V14.5625H66.9492Z" fill="#666666"/>
<path d="M70.3389 14.5625V76.4244H106.949V14.5625H70.3389Z" fill="#737373"/>
<path d="M66.9492 14.5625V76.4244H110.339V14.5625H66.9492Z" stroke="black" stroke-width="0.319056"/>
<path d="M66.9492 114.568V76.4297H110.339V114.568H66.9492Z" fill="#4C4C4C" stroke="black" stroke-width="0.319056"/>
<path d="M3.89844 52.7057V114.568H10.6781V47L3.89844 52.7057Z" fill="#7F7F7F" stroke="black" stroke-width="0.319056"/>
<path d="M83.5598 14.5681V5.85938L77.1191 8.56208V14.5681H83.5598Z" fill="#7F7F7F" stroke="black" stroke-width="0.319056"/>
<path d="M83.5596 14.5681V5.85938H110.339V14.5681H83.5596Z" fill="#4C4C4C"/>
<path d="M100.17 111.559V55.7031H63.5596V111.559H100.17Z" fill="#7F7F7F"/>
<path d="M110.339 114.561V8.55469H133.39L137.458 9.75589L140.847 11.7078L143.559 14.1102L145.424 17.2634L146.949 20.5667L146.61 114.561H110.339Z" fill="#7F7F7F" stroke="black" stroke-width="0.319056"/>
<path d="M100.169 120.573V58.7109H63.5592V111.564H30.3389V120.573H100.169Z" fill="#8C8C8C"/>
<path d="M100.169 120.568V55.7031H63.5592V111.559H30.3389V120.568H100.169Z" stroke="black" stroke-width="0.319056"/>
<path d="M30.3389 114.562H100.169" stroke="#B2B2B2" stroke-width="0.319056"/>
<path d="M30.3389 113.961H100.169" stroke="#666666" stroke-width="0.319056"/>
<path d="M63.5596 111.562H100.17" stroke="#666666" stroke-width="0.319056"/>
<path d="M74.4067 67.7188V113.364H70.3389V67.7188H74.4067Z" fill="#7F7F7F"/>
<path d="M74.0676 67.7188V113.364H70.6777V67.7188H74.0676Z" fill="#999999"/>
<path d="M73.7285 67.7188V113.364H71.0166V67.7188H73.7285Z" fill="#B2B2B2"/>
<path d="M73.3894 67.7188V113.364H71.3555V67.7188H73.3894Z" fill="#CCCCCC"/>
<path d="M73.0512 67.7188V113.364H71.6953V67.7188H73.0512Z" fill="#E5E5E5"/>
<path d="M72.7121 67.7188V113.364H72.0342V67.7188H72.7121Z" fill="white"/>
<path d="M74.4067 67.7188V113.364H70.3389V67.7188H74.4067Z" stroke="black" stroke-width="0.319056"/>
<path d="M93.7289 67.7188V113.364H89.6611V67.7188H93.7289Z" fill="#7F7F7F"/>
<path d="M93.3899 67.7188V113.364H89.6611V67.7188H93.3899Z" fill="#999999"/>
<path d="M93.0507 67.7188V113.364H90.3389V67.7188H93.0507Z" fill="#B2B2B2"/>
<path d="M92.3726 67.7188V113.364H90.6777V67.7188H92.3726Z" fill="#CCCCCC"/>
<path d="M92.0336 67.7188V113.364H91.0166V67.7188H92.0336Z" fill="#E5E5E5"/>
<path d="M91.6945 67.7188V113.364H91.3555V67.7188H91.6945Z" fill="white"/>
<path d="M93.7289 67.7188V113.364H89.6611V67.7188H93.7289Z" stroke="black" stroke-width="0.319056"/>
<path d="M124.237 119.071H81.1865V116.969H124.237V119.071Z" fill="#7F7F7F"/>
<path d="M124.237 119.071H81.1865V116.969H124.237V119.071Z" fill="#999999"/>
<path d="M124.237 118.767H81.1865V117.266H124.237V118.767Z" fill="#B2B2B2"/>
<path d="M124.237 118.471H81.1865V117.57H124.237V118.471Z" fill="#CCCCCC"/>
<path d="M124.237 118.471H81.1865V117.57H124.237V118.471Z" fill="#E5E5E5"/>
<path d="M124.237 118.167H81.1865V117.867H124.237V118.167Z" fill="white"/>
<path d="M124.237 119.071H81.1865V116.969H124.237V119.071Z" stroke="black" stroke-width="0.319056"/>
<path d="M110.339 14.5681V5.85938L96.7797 8.56208L86.9492 14.5681H110.339Z" fill="#666666"/>
<path d="M112.034 63.2109H129.322V90.238H112.034V63.2109Z" fill="#999999"/>
<path d="M112.034 90.238V63.2109H129.322" stroke="#CCCCCC" stroke-width="0.319056"/>
<path d="M112.034 90.238H129.322V63.2109" stroke="#4C4C4C" stroke-width="0.319056"/>
<path d="M122.203 92.6391C127.071 92.6391 131.017 89.1434 131.017 84.8312C131.017 80.5191 127.071 77.0234 122.203 77.0234C117.336 77.0234 113.39 80.5191 113.39 84.8312C113.39 89.1434 117.336 92.6391 122.203 92.6391Z" stroke="#333333" stroke-width="0.319056"/>
<path d="M120.17 92.3431L124.577 77.3281" stroke="#333333" stroke-width="0.319056"/>
<path d="M113.729 83.0312L130.678 86.9352" stroke="#333333" stroke-width="0.319056"/>
<path d="M83.5596 14.5681V5.85938H110.339V14.5681H83.5596Z" stroke="black" stroke-width="0.319056"/>
<path d="M101.187 112.461H146.949V114.563H101.187V112.461Z" fill="#999999"/>
<path d="M79.4912 21.3203H102.881V33.7828H79.4912V21.3203Z" fill="#4C4C4C"/>
<path d="M82.8814 71.3213L81.1865 10.961L82.8814 4.5045L86.2713 0.750751L88.6442 0L92.034 0.750751L93.7289 2.85285L94.4069 5.85586" stroke="black" stroke-width="0.319056"/>
<path d="M80.5088 71.3203H84.5766V82.7317H80.5088V71.3203Z" fill="#999999"/>
<path d="M80.5088 82.7317V71.3203H84.5766" stroke="#CCCCCC" stroke-width="0.319056"/>
<path d="M80.5088 82.7317H84.5766V71.3203" stroke="#4C4C4C" stroke-width="0.319056"/>
<path d="M32.0342 139.789H35.424V146.996H32.0342V139.789Z" fill="#4C4C4C"/>
<path d="M143.56 139.789H146.949V146.996H143.56V139.789Z" fill="#4C4C4C"/>
</g>
<defs>
<clipPath id="clip0_2109_196443">
<rect width="150" height="150" fill="white"/>
</clipPath>
</defs>
</svg>
