<svg width="150" height="150" viewBox="0 0 150 150" fill="none" xmlns="http://www.w3.org/2000/svg">
<g clip-path="url(#clip0_2109_196405)">
<path d="M54.0781 0H95.9221V70.4204H54.0781V0Z" fill="#7F7F7F" stroke="black" stroke-width="0.326327"/>
<path d="M45.7448 31.5312H83.1562V49.249H45.7448L43.6172 35.1349L45.7448 31.5312Z" fill="#333333" stroke="black" stroke-width="0.326327"/>
<path d="M51.9502 35.1328H77.1275V45.6433H51.9502V35.1328Z" fill="#CCCCCC"/>
<path d="M51.9502 35.1328H77.1275V38.7364H51.9502V35.1328Z" fill="#999999"/>
<path d="M62.4111 0H87.4111V6.90691H62.4111V0Z" fill="#B2B2B2"/>
<path d="M87.7657 6.90829H62.4111V3.30469H87.7657V6.90829Z" fill="#4C4C4C"/>
<path d="M87.4111 6.90625V63.5129H62.4111" stroke="#B2B2B2" stroke-width="0.326327"/>
<path d="M87.4111 6.90625H62.4111V63.5129" stroke="#333333" stroke-width="0.326327"/>
<path d="M116.666 68.6172H12.4111V70.419H116.666V68.6172Z" fill="#B2B2B2" stroke="#666666" stroke-width="0.326327"/>
<path d="M116.667 75.8281H141.844V93.2455H116.667V75.8281Z" fill="#333333"/>
<path d="M2.12766 38.7422H12.4113V70.4239H0L2.12766 38.7422Z" fill="#7F7F7F" stroke="black" stroke-width="0.326327"/>
<path d="M33.333 77.625H116.666V148.045H33.333V77.625Z" fill="#7F7F7F"/>
<path d="M116.667 97H145.745V104.207H116.667V97Z" fill="#4C4C4C" stroke="black" stroke-width="0.326327"/>
<path d="M116.667 93.2427H141.844V74.0234H150V96.9964H116.667V93.2427Z" fill="#7F7F7F" stroke="black" stroke-width="0.326327"/>
<path d="M116.667 49.25H141.844V70.4212H116.667V49.25Z" fill="#666666" stroke="black" stroke-width="0.326327"/>
<path d="M0 70.4219H150V75.8273L125.177 77.6291H24.8227L0 75.8273V70.4219Z" fill="#7F7F7F" stroke="black" stroke-width="0.326327"/>
<path d="M33.333 127.023H116.666V148.044H33.333V127.023Z" fill="#666666"/>
<path d="M33.333 107.805L116.666 89.9375V127.025H33.333V107.805Z" fill="#7A7A7A"/>
<path d="M33.333 112.915L116.666 95.0469V127.029H33.333V112.915Z" fill="#757575"/>
<path d="M33.333 118.319L116.666 100.602V127.028H33.333V118.319Z" fill="#707070"/>
<path d="M33.333 77.625H116.666V148.045H33.333V77.625Z" stroke="black" stroke-width="0.326327"/>
<path d="M47.6954 96.0927C53.4728 96.0927 58.1564 92.1265 58.1564 87.2339C58.1564 82.3412 53.4728 78.375 47.6954 78.375C41.9179 78.375 37.2344 82.3412 37.2344 87.2339C37.2344 92.1265 41.9179 96.0927 47.6954 96.0927Z" fill="#999999" stroke="#333333" stroke-width="0.326327"/>
<path d="M41.4893 123.427V102.406H108.333" stroke="#B2B2B2" stroke-width="0.326327"/>
<path d="M41.4893 123.427H108.333V102.406" stroke="#333333" stroke-width="0.326327"/>
<path d="M33.333 98.7969H116.666" stroke="#333333" stroke-width="0.326327"/>
<path d="M47.6949 92.4949C51.1222 92.4949 53.9006 90.142 53.9006 87.2396C53.9006 84.3372 51.1222 81.9844 47.6949 81.9844C44.2676 81.9844 41.4893 84.3372 41.4893 87.2396C41.4893 90.142 44.2676 92.4949 47.6949 92.4949Z" fill="#7F7F7F"/>
<path d="M114.539 79.4297V97.8982H61.5244" stroke="#B2B2B2" stroke-width="0.326327"/>
<path d="M114.539 79.4297H61.5244V97.8982" stroke="#333333" stroke-width="0.326327"/>
<path d="M72.6948 97.5971C78.3743 97.5971 82.9785 93.6981 82.9785 88.8884C82.9785 84.0787 78.3743 80.1797 72.6948 80.1797C67.0153 80.1797 62.4111 84.0787 62.4111 88.8884C62.4111 93.6981 67.0153 97.5971 72.6948 97.5971Z" fill="#999999" stroke="#333333" stroke-width="0.326327"/>
<path d="M73.0494 94.1433C76.4767 94.1433 79.2551 91.7905 79.2551 88.8881C79.2551 85.9857 76.4767 83.6328 73.0494 83.6328C69.6221 83.6328 66.8438 85.9857 66.8438 88.8881C66.8438 91.7905 69.6221 94.1433 73.0494 94.1433Z" fill="#7F7F7F"/>
<path d="M97.8721 97.749C103.65 97.749 108.333 93.7827 108.333 88.8901C108.333 83.9975 103.65 80.0312 97.8721 80.0312C92.0947 80.0312 87.4111 83.9975 87.4111 88.8901C87.4111 93.7827 92.0947 97.749 97.8721 97.749Z" fill="#999999" stroke="#333333" stroke-width="0.326327"/>
<path d="M97.8727 94.1433C101.3 94.1433 104.078 91.7905 104.078 88.8881C104.078 85.9857 101.3 83.6328 97.8727 83.6328C94.4454 83.6328 91.667 85.9857 91.667 88.8881C91.667 91.7905 94.4454 94.1433 97.8727 94.1433Z" fill="#7F7F7F"/>
<path d="M40.4258 74.9219H108.334" stroke="black" stroke-width="0.326327"/>
<path d="M24.8223 148.047H41.4889V149.849H24.8223V148.047Z" fill="#333333"/>
<path d="M107.27 148.047H124.114V149.849H107.27V148.047Z" fill="#333333"/>
</g>
<defs>
<clipPath id="clip0_2109_196405">
<rect width="150" height="150" fill="white"/>
</clipPath>
</defs>
</svg>
