<svg width="150" height="150" viewBox="0 0 150 150" fill="none" xmlns="http://www.w3.org/2000/svg">
<g clip-path="url(#clip0_2109_199817)">
<path d="M89.2998 0H93.1909V98.3484H89.2998V0Z" fill="#998C73"/>
<path d="M89.6885 0H92.8013V98.3484H89.6885V0Z" fill="#B0A38A"/>
<path d="M90.0781 0H92.4128V98.3484H90.0781V0Z" fill="#C4B79E"/>
<path d="M90.4668 0H92.0232V98.3484H90.4668V0Z" fill="#DBCEB5"/>
<path d="M90.8564 0H91.2456V98.3484H90.8564V0Z" fill="#F2E5CC"/>
<path d="M89.2998 0H93.1909V98.3483H89.2998V0Z" stroke="black" stroke-width="0.341831"/>
<path d="M117.704 109.156V92.0391H125.486L131.712 96.8439V109.156H117.704Z" fill="black"/>
<path d="M145.72 149.852V99.8516H121.595V112.464H16.1479V106.158H0V149.852H145.72Z" fill="#4C4C4C" stroke="black" stroke-width="0.341831"/>
<path d="M4.08594 109.156H121.596V131.078H4.08594V109.156Z" fill="#CCCCCC"/>
<path d="M4.08594 124.775L121.596 115.766V131.081H4.08594V124.775Z" fill="#C7C7C7"/>
<path d="M4.08594 125.673L121.596 116.664V131.078H4.08594V125.673Z" fill="#C2C2C2"/>
<path d="M4.08594 127.176L121.596 117.867V131.08H4.08594V127.176Z" fill="#BDBDBD"/>
<path d="M4.08594 109.156H121.596V131.078H4.08594V109.156Z" stroke="black" stroke-width="0.341831"/>
<path d="M121.596 115.469H150V125.078H121.596V115.469Z" fill="#CCCCCC"/>
<path d="M121.596 125.078H150V128.081H121.596V125.078Z" fill="#999999"/>
<path d="M121.596 115.469H150V128.081H121.596V115.469Z" stroke="black" stroke-width="0.341831"/>
<path d="M123.541 128.078H127.821V149.85H123.541V128.078Z" fill="#666666" stroke="black" stroke-width="0.341831"/>
<path d="M143.774 128.078H148.055V149.85H143.774V128.078Z" fill="#666666" stroke="black" stroke-width="0.341831"/>
<path d="M4.08594 59.3125H12.2571V106.159H4.08594V59.3125Z" fill="#F2E5CC" stroke="black" stroke-width="0.341831"/>
<path d="M117.704 59.3125H125.486V92.0452H117.704V59.3125Z" fill="#F2E5CC" stroke="black" stroke-width="0.341831"/>
<path d="M4.08594 92.6401L12.2571 72.8203V106.154H4.08594V92.6401Z" fill="#E5D8BF"/>
<path d="M117.704 82.4354L125.486 68.9219V92.045H117.704V82.4354Z" fill="#E5D8BF"/>
<path d="M12.2568 59.3125H117.704V70.1233H12.2568V59.3125Z" fill="#F2E5CC"/>
<path d="M12.2568 59.3125H117.704V62.0152H12.2568V59.3125Z" fill="#B2A58C"/>
<path d="M12.2568 59.3125H117.704V70.1233H12.2568V59.3125Z" stroke="black" stroke-width="0.341831"/>
<path d="M74.9023 12.4609H107.587V73.4219H74.9023V12.4609Z" fill="#F2E5CC"/>
<path d="M74.9023 55.7052L107.587 30.1797V73.4229H74.9023V55.7052Z" fill="#EDE0C7"/>
<path d="M74.9023 58.108L107.587 32.8828V73.4234H74.9023V58.108Z" fill="#E8DBC2"/>
<path d="M74.9023 62.0099L107.587 36.4844V73.4213H74.9023V62.0099Z" fill="#E3D6BD"/>
<path d="M74.9023 12.4609H107.587V73.4219H74.9023V12.4609Z" stroke="black" stroke-width="0.341831"/>
<path d="M125.486 117.266H131.712V123.272H125.486V117.266Z" fill="#BF0000"/>
</g>
<defs>
<clipPath id="clip0_2109_199817">
<rect width="150" height="150" fill="white"/>
</clipPath>
</defs>
</svg>
