<svg width="150" height="150" viewBox="0 0 150 150" fill="none" xmlns="http://www.w3.org/2000/svg">
<g clip-path="url(#clip0_2109_196715)">
<path d="M0 56.0078H37.3874V87.5393H0V56.0078Z" fill="#CCCCCC"/>
<path d="M0 78.2254L37.3874 65.3125V87.5347H0V78.2254Z" fill="#C7C7C7"/>
<path d="M0 79.7288L37.3874 66.5156V87.5366H0V79.7288Z" fill="#C2C2C2"/>
<path d="M0 81.5301L37.3874 68.6172V87.5361H0V81.5301Z" fill="#BDBDBD"/>
<path d="M17.1172 56.0078V82.7345" stroke="#7F7F7F" stroke-width="0.3003"/>
<path d="M18.4688 56.0078V82.7345" stroke="white" stroke-width="0.3003"/>
<path d="M0 56.0078H37.3874V87.5393H0V56.0078Z" stroke="black" stroke-width="0.3003"/>
<path d="M7.65723 85.7344H64.1137V121.77H7.65723V85.7344Z" fill="#4C4C4C"/>
<path d="M1.35156 124.922H148.499V149.997H1.35156V124.922Z" fill="#9999FF"/>
<path d="M60.8105 149.998V137.386H23.273V149.998H21.7715V134.383H62.312V149.998H60.8105Z" fill="#6666CC"/>
<path d="M21.7715 149.998V134.383H62.312V149.998" stroke="black" stroke-width="0.3003"/>
<path d="M1.35135 81.2315H7.65766V121.772H63.8138V79.73L109.459 79.4297V81.2315H148.499L150 117.268L148.499 121.772V124.925H1.35135V121.772L0 117.268L1.35135 81.2315Z" fill="#F2F2F2"/>
<path d="M23.2734 137.391H60.811V150.003H23.2734V137.391Z" fill="#8585EB"/>
<path d="M1.35156 124.922H148.499V149.997H1.35156V124.922Z" stroke="black" stroke-width="0.3003"/>
<path d="M0 117.266H7.65766V121.77H1.35135L0 117.266Z" fill="#B2B2B2"/>
<path d="M150 117.266L148.498 121.77H63.8135V117.266H150Z" fill="#B2B2B2"/>
<path d="M9.15918 85.7344H62.3123V121.77H9.15918V85.7344Z" fill="#B2B2B2"/>
<path d="M7.65723 82.7344H63.8134V85.7374H7.65723V82.7344Z" fill="#CCCCCC" stroke="black" stroke-width="0.3003"/>
<path d="M110.961 108.26L148.498 95.0469L150 117.269H110.961V108.26Z" fill="#EDEDED"/>
<path d="M63.8135 106.155L109.459 90.5391L110.961 117.266H63.8135V106.155Z" fill="#EDEDED"/>
<path d="M110.961 109.46L148.498 96.5469L150 117.268H110.961V109.46Z" fill="#E8E8E8"/>
<path d="M63.8135 107.955L109.459 92.0391L110.961 117.264H63.8135V107.955Z" fill="#E8E8E8"/>
<path d="M110.961 111.264L148.498 98.3516L150 117.27H110.961V111.264Z" fill="#E3E3E3"/>
<path d="M63.8135 110.061L109.459 94.4453L110.961 117.268H63.8135V110.061Z" fill="#E3E3E3"/>
<path d="M7.65723 123.273H146.846" stroke="#7F7F7F" stroke-width="0.3003"/>
<path d="M109.459 81.2344L110.96 117.27L109.459 121.775V123.276" stroke="#7F7F7F" stroke-width="0.3003"/>
<path d="M1.35135 81.2315H7.65766V121.772H63.8138V79.73L109.459 79.4297V81.2315H148.498L150 117.268L148.498 121.772V124.925H1.35135V121.772L0 117.268L1.35135 81.2315Z" stroke="black" stroke-width="0.3003"/>
<path d="M37.3877 0H62.3126V82.7327H37.3877V0Z" fill="#9999FF"/>
<path d="M37.3877 47.3005L62.3126 37.3906V82.736H37.3877V47.3005Z" fill="#9494FA"/>
<path d="M37.3877 48.199L62.3126 38.2891V82.7335H37.3877V48.199Z" fill="#8F8FF5"/>
<path d="M37.3877 49.699L62.3126 39.7891V82.732H37.3877V49.699Z" fill="#8A8AF0"/>
<path d="M37.3877 0H62.3126V82.7327H37.3877V0Z" stroke="black" stroke-width="0.3003"/>
<path d="M18.4688 109.156H53.0033V118.766H51.5018V121.769H20.2706V118.766H18.4688V109.156Z" fill="#4C4C4C"/>
<path d="M20.5703 109.156H51.2009V118.466H49.6994V121.769H22.222V118.466H20.5703V109.156Z" fill="#5E5E5E"/>
<path d="M22.6729 109.156H49.0993V118.466H47.8981V121.769H23.8741V118.466H22.6729V109.156Z" fill="#737373"/>
<path d="M24.4746 109.156H47.2974V118.466H46.0962V121.769H25.6758V118.466H24.4746V109.156Z" fill="#858585"/>
<path d="M26.5762 109.156H45.1948V118.466H44.2939V121.769H27.1768V118.466H26.5762V109.156Z" fill="#999999"/>
<path d="M28.3779 109.156H43.3929V118.466H42.492V121.769H28.9785V118.466H28.3779V109.156Z" fill="#ABABAB"/>
<path d="M30.4805 109.156H41.2913V118.466H40.6907V121.769H30.7808V118.466H30.4805V109.156Z" fill="#BFBFBF"/>
<path d="M32.2822 109.156H39.4894V118.466H38.8888V121.769H32.5825V118.466H32.2822V109.156Z" fill="#D1D1D1"/>
<path d="M34.3848 109.156H37.3878V118.766V121.769H34.3848V118.766V109.156Z" fill="#E5E5E5"/>
<path d="M18.4688 109.156H53.0033V118.766H51.5018V121.769H20.2706V118.766H18.4688V109.156Z" stroke="black" stroke-width="0.3003"/>
<path d="M21.7715 118.766H49.9997" stroke="#7F7F7F" stroke-width="0.3003"/>
<path d="M6.30664 135.734H17.1175V148.497H6.30664V135.734Z" fill="#8585EB"/>
<path d="M10.0605 143.094H15.466V147.598H10.0605V143.094Z" fill="black"/>
<path d="M10.6611 139.789H14.1146V142.792H10.6611V139.789Z" fill="black"/>
<path d="M8.4082 139.789H10.0599V147.597H8.4082V139.789Z" fill="#6666CC"/>
<path d="M8.4082 139.792H10.0599V138.141H8.4082V139.792Z" fill="white" stroke="black" stroke-width="0.3003"/>
<path d="M6.30664 135.734H17.1175V148.497L16.5169 147.596V136.785H7.65799V147.596L6.30664 148.497V135.734Z" fill="#333399"/>
<path d="M6.30664 135.734H17.1175V148.497H6.30664V135.734Z" stroke="black" stroke-width="0.3003"/>
<path d="M112.463 87.5391H124.925V112.464H112.463V87.5391Z" fill="#333333"/>
<path d="M87.5371 87.5391H99.8494V112.464H87.5371V87.5391Z" fill="#333333"/>
<path d="M74.9248 87.5391H87.5374V112.464H74.9248V87.5391Z" fill="#CCCCCC"/>
<path d="M74.9248 112.464V87.5391H99.8497" stroke="black" stroke-width="0.3003"/>
<path d="M99.8497 87.5391V112.464H74.9248" stroke="white" stroke-width="0.3003"/>
<path d="M77.3271 147.594H85.135V149.996H77.3271V147.594Z" fill="#B2B2FF" stroke="black" stroke-width="0.3003"/>
<path d="M78.8291 121.172H83.6339V147.598H78.8291V121.172Z" fill="#B2B2FF" stroke="black" stroke-width="0.3003"/>
<path d="M77.3271 118.766H85.135V121.168H77.3271V118.766Z" fill="#B2B2FF" stroke="black" stroke-width="0.3003"/>
<path d="M91.4414 93.5469L92.9429 94.4478V113.967L91.4414 114.868V93.5469Z" fill="#CCCCFF" stroke="black" stroke-width="0.3003"/>
<path d="M77.9277 113.961H84.234V118.766H77.9277V113.961Z" fill="#B2B2FF"/>
<path d="M78.8291 113.961H83.6339V118.766H78.8291V113.961Z" fill="#C7C7FF"/>
<path d="M79.7295 113.961H82.7325V118.766H79.7295V113.961Z" fill="#DEDEFF"/>
<path d="M80.3301 113.961H81.8316V118.766H80.3301V113.961Z" fill="#F2F2FF"/>
<path d="M77.9277 113.961H84.234V118.766H77.9277V113.961Z" stroke="black" stroke-width="0.3003"/>
<path d="M75.8262 113.967V95.3487L91.4418 93.5469V114.868L75.8262 113.967Z" fill="#E5E5E5" stroke="black" stroke-width="0.3003"/>
<path d="M76.4268 95.9468V102.253H90.5409V94.4453L76.4268 95.9468Z" fill="#7F7F7F"/>
<path d="M77.3271 96.8506V101.655H82.7326V96.25L77.3271 96.8506Z" fill="#333333"/>
<path d="M84.2344 103.156H85.1353V113.366H84.2344V103.156Z" fill="black"/>
<path d="M85.7354 103.156H86.6363V113.366H85.7354V103.156Z" fill="black"/>
<path d="M82.7331 113.363V106.156H76.4268" stroke="#B2B2B2" stroke-width="0.3003"/>
<path d="M40.3906 50.0032V37.3906H59.3095" stroke="#CCCCFF" stroke-width="0.3003"/>
<path d="M40.3906 50.0032H59.3095V37.3906" stroke="#6666CC" stroke-width="0.3003"/>
<path d="M38.2881 51.5H61.7115" stroke="#6666CC" stroke-width="0.3003"/>
</g>
<defs>
<clipPath id="clip0_2109_196715">
<rect width="150" height="150" fill="white"/>
</clipPath>
</defs>
</svg>
