<svg width="150" height="150" viewBox="0 0 150 150" fill="none" xmlns="http://www.w3.org/2000/svg">
<g clip-path="url(#clip0_2109_195864)">
<path d="M12.4629 87.8135H17.2677V72.6875H12.4629V87.8135Z" fill="black"/>
<path d="M17.2676 87.815H22.0724V76.8906H17.2676V87.815Z" fill="black"/>
<path d="M22.0723 83.6148H116.667V81.0938H22.0723V83.6148Z" fill="black"/>
<path d="M122.973 4.20312H61.5612L58.2579 12.1863H8.5582L4.6543 23.1107V87.8166H6.1558V25.6317L9.4591 17.2283H122.973V4.20312Z" fill="#E5E5E5"/>
<path d="M69.3691 149.997H148.348V145.375H69.3691V149.997Z" fill="black"/>
<path d="M122.973 0H148.348V145.378H122.973V0Z" fill="#00CCFF"/>
<path d="M122.973 81.9318L148.348 51.6797V145.377H122.973V81.9318Z" fill="#00C7FA"/>
<path d="M122.973 91.1759L148.348 57.5625V145.378H122.973V91.1759Z" fill="#00C2F5"/>
<path d="M122.973 100.418L148.348 66.8047V145.376H122.973V100.418Z" fill="#00BDF0"/>
<path d="M122.973 0H148.348V145.378H122.973V0Z" stroke="black" stroke-width="0.502348"/>
<path d="M122.973 17.2266H9.45955L6.15625 25.6299V87.8148H12.4626V70.1677H122.973V17.2266Z" fill="#00CCFF"/>
<path d="M6.15625 61.7673V87.8177H12.4626V70.1706H122.973V25.6328L6.15625 61.7673Z" fill="#00C7FA"/>
<path d="M6.15625 65.966V87.8147H12.4626V70.1677H122.973V30.6719L6.15625 65.966Z" fill="#00C2F5"/>
<path d="M6.15625 70.1691V87.8162H12.4626V70.1691H122.973V34.875L6.15625 70.1691Z" fill="#00BDF0"/>
<path d="M122.973 17.2266H9.45955L6.15625 25.6299V87.8148H12.4626V70.1677H122.973V17.2266Z" stroke="black" stroke-width="0.502348"/>
<path d="M150 4.20312H148.349V140.338H150V4.20312Z" fill="#00CCFF" stroke="black" stroke-width="0.502348"/>
<path d="M0 87.8125V132.35L6.15616 149.997H69.3694V87.8125H0Z" fill="#00CCFF" stroke="black" stroke-width="0.502348"/>
<path d="M69.3691 145.376H122.973V87.8125H69.3691V145.376Z" fill="#00CCFF" stroke="black" stroke-width="0.502348"/>
<path d="M122.973 7.98438H59.7593L58.2578 12.1861H122.973V7.98438Z" fill="#FF8C40"/>
<path d="M122.973 4.20312H61.5612L58.2579 12.1863H8.5582L4.6543 23.1107V87.8166H6.1558V25.6317L9.4591 17.2283H122.973V4.20312Z" stroke="black" stroke-width="0.502348"/>
<path d="M69.3691 81.0935V43.2784L72.3721 34.875H113.663L116.666 43.2784V81.0935H69.3691Z" fill="#E5E5E5"/>
<path d="M69.3691 81.09V66.8043L116.666 47.4766V81.09H69.3691Z" fill="#E0E0E0"/>
<path d="M69.3691 81.089V68.484L116.666 49.1562V81.089H69.3691Z" fill="#DBDBDB"/>
<path d="M69.3691 81.0915V71.0074L116.666 51.6797V81.0915H69.3691Z" fill="#D6D6D6"/>
<path d="M69.3691 43.2784L72.3721 34.875H113.663L116.666 43.2784H69.3691Z" fill="#F2F2F2"/>
<path d="M69.3691 81.0935V43.2784L72.3721 34.875H113.663L116.666 43.2784V81.0935H69.3691Z" stroke="black" stroke-width="0.502348"/>
<path d="M73.874 81.0935V43.2784L74.4746 34.875" stroke="#7F7F7F" stroke-width="0.502348"/>
<path d="M112.462 81.0935V43.2784L111.562 34.875" stroke="#7F7F7F" stroke-width="0.502348"/>
<path d="M117.567 83.6172H118.468V86.1382H117.567V83.6172Z" fill="#4C4C4C"/>
<path d="M117.567 72.6875H118.468V74.3682H117.567V72.6875Z" fill="#4C4C4C"/>
<path d="M13.9639 87.8174H20.2702V79.4141H13.9639V87.8174Z" fill="#4C4C4C"/>
<path d="M126.276 28.1484H145.195V81.0896H126.276V28.1484Z" fill="#E5E5E5"/>
<path d="M126.276 81.0896V28.1484H145.195" stroke="white" stroke-width="0.502348"/>
<path d="M145.195 28.1484V81.0896H126.276" stroke="black" stroke-width="0.502348"/>
<path d="M127.777 32.3516H143.693V60.923H127.777V32.3516Z" fill="#7F7F7F"/>
<path d="M127.777 63.4453H143.693V72.689H127.777V63.4453Z" fill="#7F7F7F"/>
<path d="M128.979 34.875H137.387V50.001H128.979V34.875Z" fill="#333333"/>
<path d="M116.667 18.9062H122.673V25.6289H116.667V18.9062Z" fill="#FFCC00"/>
<path d="M128.979 34.875H137.387V50.001H128.979V34.875Z" fill="#333333"/>
<path d="M70.8711 87.8125H122.973V92.0142H70.8711V87.8125Z" fill="#0099CC"/>
<path d="M12.4629 98.7422H69.3698V103.784H12.4629V98.7422Z" fill="#0099CC"/>
<path d="M12.4629 87.8125H70.8713V98.7369H12.4629V87.8125Z" fill="#33D6FF" stroke="black" stroke-width="0.502348"/>
<path d="M22.0723 83.6172H116.667V87.8189H22.0723V83.6172Z" fill="#B2B2B2" stroke="black" stroke-width="0.502348"/>
<path d="M116.667 87.8189V70.1719H122.973V87.8189H116.667Z" fill="#E5E5E5" stroke="black" stroke-width="0.502348"/>
<path d="M78.3779 70.169V61.7656H87.0866V70.169H78.3779Z" fill="#4C4C4C"/>
<path d="M70.8711 76.8906H71.4717V79.4116H70.8711V76.8906Z" fill="#4C4C4C"/>
<path d="M70.8711 55.0391H71.4717V56.7197H70.8711V55.0391Z" fill="#4C4C4C"/>
<path d="M70.8711 48.3203H71.4717V50.001H70.8711V48.3203Z" fill="#4C4C4C"/>
<path d="M121.472 83.6172H122.373V86.1382H121.472V83.6172Z" fill="#4C4C4C"/>
<path d="M121.472 72.6875H122.373V74.3682H121.472V72.6875Z" fill="#4C4C4C"/>
<path d="M123.874 132.352H124.775V134.873H123.874V132.352Z" fill="#4C4C4C"/>
<path d="M123.874 12.1875H124.775V14.7085H123.874V12.1875Z" fill="#4C4C4C"/>
<path d="M123.874 74.3672H124.775V76.8882H123.874V74.3672Z" fill="#4C4C4C"/>
<path d="M24.1738 28.1548L23.5732 27.3145V24.7935L24.1738 23.9531H24.7744L25.0747 24.7935V27.3145L24.7744 28.1548H24.1738Z" fill="#4C4C4C"/>
<path d="M107.057 28.1548L106.606 27.3145V24.7935L107.057 23.9531H107.657L107.958 24.7935V27.3145L107.657 28.1548H107.057Z" fill="#4C4C4C"/>
<path d="M28.3779 150.003V98.7422" stroke="#006699" stroke-width="0.502348"/>
<path d="M56.7568 150.003V98.7422" stroke="#006699" stroke-width="0.502348"/>
<path d="M107.357 145.376V87.8125" stroke="#006699" stroke-width="0.502348"/>
<path d="M116.667 145.376V87.8125" stroke="#006699" stroke-width="0.502348"/>
<path d="M26.8767 114.703V136.552H15.7656" stroke="#006699" stroke-width="0.502348"/>
<path d="M15.7656 136.552V114.703H26.8767" stroke="#7FE5FF" stroke-width="0.502348"/>
</g>
<defs>
<clipPath id="clip0_2109_195864">
<rect width="150" height="150" fill="white"/>
</clipPath>
</defs>
</svg>
