<svg width="150" height="150" viewBox="0 0 150 150" fill="none" xmlns="http://www.w3.org/2000/svg">
<g clip-path="url(#clip0_2109_198557)">
<path d="M30.1807 139.969H34.0846V150H30.1807V139.969Z" fill="#FFCC00" stroke="black" stroke-width="0.306819"/>
<path d="M83.6338 139.969H87.5377V150H83.6338V139.969Z" fill="#FFCC00" stroke="black" stroke-width="0.306819"/>
<path d="M86.0361 6.42969H92.3424V36.5237H86.0361V6.42969Z" fill="#B27F00" stroke="black" stroke-width="0.306819"/>
<path d="M92.3428 13.3203H105.256V36.5178H92.3428V13.3203Z" fill="#B27F00" stroke="black" stroke-width="0.306819"/>
<path d="M95.6455 26.4922H101.952V73.2007H95.6455V26.4922Z" fill="#B27F00" stroke="black" stroke-width="0.306819"/>
<path d="M89.3398 26.4922H92.3428V73.2007H89.3398V26.4922Z" fill="#B27F00" stroke="black" stroke-width="0.306819"/>
<path d="M86.0361 20.0625H98.949V60.0312H86.0361V20.0625Z" fill="#CC9900"/>
<path d="M98.9492 20.0625H111.562V33.3854H98.9492V20.0625Z" fill="#B27F00"/>
<path d="M98.9492 21.4766H111.562V31.5079H98.9492V21.4766Z" fill="#CC9900"/>
<path d="M98.9492 23.3516H111.562V29.9346H98.9492V23.3516Z" fill="#E5B200"/>
<path d="M98.9492 24.9219H111.562V28.3702H98.9492V24.9219Z" fill="#FFCC00"/>
<path d="M0 150V63.1661H12.7628V0H86.036V73.1975H150V150H143.694V139.969H6.15616V150H0Z" fill="#FFCC00"/>
<path d="M0 107.991L54.2042 83.2266V133.07H0V107.991Z" fill="#FAC700"/>
<path d="M0 111.445L54.2042 86.6797V133.075H0V111.445Z" fill="#F5C200"/>
<path d="M0 117.086L54.2042 92.0078V133.387H0V117.086Z" fill="#F0BD00"/>
<path d="M12.7627 39.028L54.2041 20.0625V63.1659H12.7627V39.028Z" fill="#FAC700"/>
<path d="M12.7627 41.5363L54.2041 22.4141V63.1664H12.7627V41.5363Z" fill="#F5C200"/>
<path d="M12.7627 45.6135L54.2041 26.8047V63.1683L12.7627 63.4818V45.6135Z" fill="#F0BD00"/>
<path d="M12.7627 63.1641H54.2041" stroke="#7F4C00" stroke-width="0.306819"/>
<path d="M0 133.383H150" stroke="#7F4C00" stroke-width="0.306819"/>
<path d="M16.6668 70.0625H6.15625V70.6895H16.6668V71.3164H6.15625V71.9434H16.6668V72.5703H6.15625V73.5108H16.6668V74.1377H6.15625V74.7647H16.6668V75.3917H6.15625V76.0186H16.6668V76.6456H6.15625V77.586H16.6668V78.213H6.15625V78.8399H16.6668V79.4669H6.15625V80.0938H16.6668V80.7208H6.15625V81.6612H16.6668V82.2882H6.15625V82.9152H16.6668V83.5421H6.15625V84.1691H16.6668V84.796H6.15625V85.7365H16.6668V86.3634H6.15625V86.9904H16.6668V87.6174H6.15625V88.2443H16.6668V88.8713H6.15625V89.4982H16.6668V90.4387H6.15625V91.0656H16.6668V91.6926H6.15625V92.3196H16.6668V92.9465H6.15625V93.887H16.6668V94.5139H6.15625" stroke="#B27F00" stroke-width="0.306819"/>
<path d="M32.282 70.0625H21.7715V70.6895H32.282V71.3164H21.7715V71.9434H32.282V72.5703H21.7715V73.5108H32.282V74.1377H21.7715V74.7647H32.282V75.3917H21.7715V76.0186H32.282V76.6456H21.7715V77.586H32.282V78.213H21.7715V78.8399H32.282V79.4669H21.7715V80.0938H32.282V80.7208H21.7715V81.6612H32.282V82.2882H21.7715V82.9152H32.282V83.5421H21.7715V84.1691H32.282V84.796H21.7715V85.7365H32.282V86.3634H21.7715V86.9904H32.282V87.6174H21.7715V88.2443H32.282V88.8713H21.7715V89.4982H32.282V90.4387H21.7715V91.0656H32.282V91.6926H21.7715V92.3196H32.282V92.9465H21.7715V93.887H32.282V94.5139H21.7715" stroke="#B27F00" stroke-width="0.306819"/>
<path d="M47.8982 70.0625H37.3877V70.6895H47.8982V71.3164H37.3877V71.9434H47.8982V72.5703H37.3877V73.5108H47.8982V74.1377H37.3877V74.7647H47.8982V75.3917H37.3877V76.0186H47.8982V76.6456H37.3877V77.586H47.8982V78.213H37.3877V78.8399H47.8982V79.4669H37.3877V80.0938H47.8982V80.7208H37.3877V81.6612H47.8982V82.2882H37.3877V82.9152H47.8982V83.5421H37.3877V84.1691H47.8982V84.796H37.3877V85.7365H47.8982V86.3634H37.3877V86.9904H47.8982V87.6174H37.3877V88.2443H47.8982V88.8713H37.3877V89.4982H47.8982V90.4387H37.3877V91.0656H47.8982V91.6926H37.3877V92.3196H47.8982V92.9465H37.3877V93.887H47.8982V94.5139H37.3877" stroke="#B27F00" stroke-width="0.306819"/>
<path d="M24.4743 16.4609H15.7656V17.4014H24.4743V18.4986H15.7656V19.2823H24.4743V20.066H15.7656V20.8497H24.4743V21.7901H15.7656V22.4171H24.4743V23.3575H15.7656V24.2979H24.4743V24.9249H15.7656V25.8653H24.4743V26.8058H15.7656V27.7462H24.4743V28.3732H15.7656V29.3136H24.4743V30.254H15.7656V31.1945H24.4743V31.8214H15.7656V32.7619H24.4743V33.7023H15.7656V34.3293H24.4743V35.2697H15.7656V36.2102H24.4743V37.1506H15.7656V37.7776H24.4743V38.718H15.7656V39.6584H24.4743V40.2854H15.7656V41.2258H24.4743V42.1663H15.7656V42.7932H24.4743V43.7337H15.7656V44.6741H24.4743V45.6145H15.7656V46.2415H24.4743V47.1819H15.7656" stroke="#B27F00" stroke-width="0.306819"/>
<path d="M37.6872 16.4609H28.9785V17.4014H37.6872V18.4986H28.9785V19.2823H37.6872V20.066H28.9785V20.8497H37.6872V21.7901H28.9785V22.4171H37.6872V23.3575H28.9785V24.2979H37.6872V24.9249H28.9785V25.8653H37.6872V26.8058H28.9785V27.7462H37.6872V28.3732H28.9785V29.3136H37.6872V30.254H28.9785V31.1945H37.6872V31.8214H28.9785V32.7619H37.6872V33.7023H28.9785V34.3293H37.6872V35.2697H28.9785V36.2102H37.6872V37.1506H28.9785V37.7776H37.6872V38.718H28.9785V39.6584H37.6872V40.2854H28.9785V41.2258H37.6872V42.1663H28.9785V42.7932H37.6872V43.7337H28.9785V44.6741H37.6872V45.6145H28.9785V46.2415H37.6872V47.1819H28.9785" stroke="#B27F00" stroke-width="0.306819"/>
<path d="M50.9011 16.4609H42.1924V17.4014H50.9011V18.4986H42.1924V19.2823H50.9011V20.066H42.1924V20.8497H50.9011V21.7901H42.1924V22.4171H50.9011V23.3575H42.1924V24.2979H50.9011V24.9249H42.1924V25.8653H50.9011V26.8058H42.1924V27.7462H50.9011V28.3732H42.1924V29.3136H50.9011V30.254H42.1924V31.1945H50.9011V31.8214H42.1924V32.7619H50.9011V33.7023H42.1924V34.3293H50.9011V35.2697H42.1924V36.2102H50.9011V37.1506H42.1924V37.7776H50.9011V38.718H42.1924V39.6584H50.9011V40.2854H42.1924V41.2258H50.9011V42.1663H42.1924V42.7932H50.9011V43.7337H42.1924V44.6741H50.9011V45.6145H42.1924V46.2415H50.9011V47.1819H42.1924" stroke="#B27F00" stroke-width="0.306819"/>
<path d="M57.5078 13.3203H83.0333V29.9347H57.5078V13.3203Z" fill="#333333"/>
<path d="M57.5078 10.0312H83.0333V13.3228H57.5078V10.0312Z" fill="#B2B2B2"/>
<path d="M57.5078 29.9372V10.0312H83.0333" stroke="black" stroke-width="0.306819"/>
<path d="M83.0333 10.0312V29.9372H57.5078" stroke="#FFFF00" stroke-width="0.306819"/>
<path d="M57.5078 46.5547H66.8171V60.0343H57.5078V46.5547Z" fill="#666666"/>
<path d="M86.0361 107.991L150 83.2266V133.07H86.0361V107.991Z" fill="#FAC700"/>
<path d="M86.0361 111.445L150 86.6797V133.075H86.0361V111.445Z" fill="#F5C200"/>
<path d="M86.0361 117.086L150 92.0078V133.387H86.0361V117.086Z" fill="#F0BD00"/>
<path d="M86.0361 133.383V73.1953" stroke="#CC9900" stroke-width="0.306819"/>
<path d="M54.2041 133.386V0" stroke="#CC9900" stroke-width="0.306819"/>
<path d="M0 150V63.1661H12.7628V0H86.036V73.1975H150V150H143.694V139.969H6.15616V150H0Z" stroke="black" stroke-width="0.306819"/>
<path d="M76.577 43.2628C78.3184 43.2628 79.7301 41.7891 79.7301 39.9712C79.7301 38.1534 78.3184 36.6797 76.577 36.6797C74.8355 36.6797 73.4238 38.1534 73.4238 39.9712C73.4238 41.7891 74.8355 43.2628 76.577 43.2628Z" fill="#CC9900"/>
<path d="M49.3994 134.016H54.2042V139.031H49.3994V134.016Z" fill="#333333"/>
</g>
<defs>
<clipPath id="clip0_2109_198557">
<rect width="150" height="150" fill="white"/>
</clipPath>
</defs>
</svg>
