<svg width="150" height="150" viewBox="0 0 150 150" fill="none" xmlns="http://www.w3.org/2000/svg">
<g clip-path="url(#clip0_2109_197782)">
<path d="M18.7686 16.3594H112.462V28.5801H18.7686V16.3594Z" fill="#B2B2B2" stroke="black" stroke-width="0.34407"/>
<path d="M59.3096 19.7109H71.9222V25.8213H59.3096V19.7109Z" fill="white"/>
<path d="M43.6934 18.3281H56.0057V26.6067H43.6934V18.3281Z" fill="#4C4C4C"/>
<path d="M34.3848 28.5801V16.3594" stroke="#7F7F7F" stroke-width="0.34407"/>
<path d="M34.9854 28.5801V16.3594" stroke="#CCCCCC" stroke-width="0.34407"/>
<path d="M112.463 0H149.85V49.0802H112.463V0Z" fill="#E5E5E5" stroke="black" stroke-width="0.34407"/>
<path d="M112.463 49.0781H149.85V90.471H112.463V49.0781Z" fill="#7F7F7F" stroke="black" stroke-width="0.34407"/>
<path d="M12.4629 90.4704V49.0775L15.4659 28.5781H62.3127V90.4704H12.4629Z" fill="#7F7F7F" stroke="black" stroke-width="0.34407"/>
<path d="M28.0781 49.0781H62.3124V90.471H28.0781V49.0781Z" fill="#666666"/>
<path d="M28.0781 90.471V49.0781" stroke="black" stroke-width="0.34407"/>
<path d="M62.3125 28.5781H112.463V90.4704H62.3125V28.5781Z" fill="#CCCCCC"/>
<path d="M62.3125 28.5781H112.463V49.0775H62.3125V28.5781Z" fill="#E5E5E5"/>
<path d="M62.3125 28.5781H112.463V90.4704H62.3125V28.5781Z" stroke="black" stroke-width="0.34407"/>
<path d="M84.2344 53.4141H90.5407" stroke="black" stroke-width="0.34407"/>
<path d="M90.5407 57.3594H84.2344" stroke="black" stroke-width="0.34407"/>
<path d="M105.255 57.3594H109.459V65.638H105.255V57.3594Z" fill="#4C4C4C"/>
<path d="M101.351 43.9581V34.1027L98.6486 30.5547H76.126L73.7236 34.1027V43.9581L76.126 47.1118H98.6486L101.351 43.9581Z" fill="black" stroke="black" stroke-width="0.34407"/>
<path d="M101.051 43.1667V34.4939L98.9488 31.7344H76.4263L74.3242 34.4939V43.1667L76.4263 46.3204H98.9488L101.051 43.1667Z" fill="#4C4C4C"/>
<path d="M0 90.4766H149.85V147.638H0V90.4766Z" fill="#7F7F7F"/>
<path d="M0 131.079L149.85 107.031V147.636H0V131.079Z" fill="#7A7A7A"/>
<path d="M0 133.446L149.85 109.398V147.638H0V133.446Z" fill="#757575"/>
<path d="M0 136.993L149.85 112.945V147.637H0V136.993Z" fill="#707070"/>
<path d="M0 90.4766H149.85V147.638H0V90.4766Z" stroke="black" stroke-width="0.34407"/>
<path d="M13.9639 114.914H25.6756V143.692H13.9639V114.914Z" fill="#666666"/>
<path d="M13.9639 143.692V114.914H25.6756" stroke="#999999" stroke-width="0.34407"/>
<path d="M25.6756 114.914V143.692H13.9639" stroke="black" stroke-width="0.34407"/>
<path d="M63.2129 147.634V114.914H119.669V147.634" stroke="#999999" stroke-width="0.34407"/>
<path d="M62.3125 147.634V114.914H118.769V147.634" stroke="black" stroke-width="0.34407"/>
<path d="M114.564 57.3594H116.667V61.6958H114.564V57.3594Z" fill="#333333"/>
<path d="M113.363 1.17969H148.949V48.2888H113.363V1.17969Z" fill="#4C4C4C"/>
<path d="M122.673 9.07031H139.79V20.1084H122.673V9.07031Z" fill="black"/>
<path d="M125.075 10.0547H137.388V18.3333H125.075V10.0547Z" fill="#CCCCCC"/>
<path d="M121.771 30.9453H140.54" stroke="white" stroke-width="0.34407"/>
<path d="M121.771 31.7344H140.54" stroke="white" stroke-width="0.34407"/>
<path d="M121.771 32.9141H140.54" stroke="white" stroke-width="0.34407"/>
<path d="M121.771 33.7031H140.54" stroke="white" stroke-width="0.34407"/>
<path d="M121.771 34.8906H140.54" stroke="white" stroke-width="0.34407"/>
<path d="M60.8109 46.3175V32.9141H29.5796L28.0781 46.3175H60.8109Z" fill="#E5E5E5"/>
<path d="M31.0811 34.8852L60.8109 32.9141H29.5796L28.0781 46.3175L31.0811 34.8852Z" fill="#B2B2B2"/>
<path d="M60.8109 46.3175V32.9141H29.5796L28.0781 46.3175H60.8109Z" stroke="black" stroke-width="0.34407"/>
<path d="M31.9824 30.9453H58.4088" stroke="#CCCCCC" stroke-width="0.34407"/>
<path d="M97.748 147.633H117.868V149.998H97.748V147.633Z" fill="black"/>
<path d="M142.192 147.633H148.499V149.998H142.192V147.633Z" fill="black"/>
<path d="M121.171 147.633H127.477V149.998H121.171V147.633Z" fill="black"/>
<path d="M50 147.633H66.2162V149.998H50V147.633Z" fill="black"/>
<path d="M2.40234 147.633H18.7687V149.998H2.40234V147.633Z" fill="black"/>
<path d="M115.165 141.719H117.267V146.844H115.165V141.719Z" fill="#999999"/>
<path d="M18.0176 79.8281H22.6722V86.1356H18.0176V79.8281Z" fill="white"/>
<path d="M18.468 46.3203H22.9725L22.6722 49.4741H18.0176L18.468 46.3203Z" fill="white"/>
<path d="M19.5195 62.4844H20.8709V68.7919H19.5195V62.4844Z" fill="black"/>
</g>
<defs>
<clipPath id="clip0_2109_197782">
<rect width="150" height="150" fill="white"/>
</clipPath>
</defs>
</svg>
