<svg width="150" height="150" viewBox="0 0 150 150" fill="none" xmlns="http://www.w3.org/2000/svg">
<g clip-path="url(#clip0_2109_194985)">
<path d="M15.0205 7.35736V3.9039L19.8269 0L119.96 7.35736L124.767 11.2613V119.97H30.0405V104.955H35.0472L36.2488 104.054V90.8408L35.0472 89.9399H30.0405V26.2763L15.0205 7.35736Z" fill="#669999"/>
<path d="M124.766 44.8984V119.974H30.04V104.958H35.0467L36.2483 104.058V90.8444L35.0467 89.9435H30.04V76.7303L124.766 44.8984Z" fill="#5E9191"/>
<path d="M15.0205 7.35736V3.9039L19.8269 0L119.96 7.35736L124.767 11.2613V119.97H30.0405V104.955H35.0472L36.2488 104.054V90.8408L35.0472 89.9399H30.0405V26.2763L15.0205 7.35736Z" stroke="black" stroke-width="0.346815"/>
<path d="M50.0664 120.87V119.969H109.946V120.87H50.0664Z" fill="#003333"/>
<path d="M25.2334 52.4062H30.0398V89.9438H25.2334V52.4062Z" fill="#99CCCC"/>
<path d="M25.2334 129.281H30.0398V150.002H25.2334V129.281Z" fill="#336666"/>
<path d="M25.2334 97.4453H30.0398V125.674H25.2334V97.4453Z" fill="#99CCCC"/>
<path d="M109.946 122.671V119.969H129.973V122.671H109.946Z" fill="#669999" stroke="black" stroke-width="0.346815"/>
<path d="M30.04 122.671V119.969H50.0667V122.671H30.04Z" fill="#669999" stroke="black" stroke-width="0.346815"/>
<path d="M31.041 112.461H85.1131V101.05H89.9195V71.3203" stroke="#336666" stroke-width="0.346815"/>
<path d="M31.041 113.362H86.3147V102.251H91.1211V71.3203" stroke="#99CCCC" stroke-width="0.346815"/>
<path d="M82.3096 58.1094H107.543V73.1244H82.3096V58.1094Z" stroke="#336666" stroke-width="0.346815"/>
<path d="M39.8535 59.9062H46.2621V66.5129H39.8535V59.9062Z" fill="#99CCCC"/>
<path d="M30.0398 63.8125H25.2334" stroke="#669999" stroke-width="0.346815"/>
<path d="M25.2334 52.4062H30.0398V89.9438H25.2334V52.4062Z" stroke="black" stroke-width="0.346815"/>
<path d="M107.543 14.8672H147.596V22.3747H107.543V14.8672Z" fill="black"/>
<path d="M92.7238 7.96094L139.987 11.2642L139.586 13.066L92.3232 10.063L92.7238 7.96094Z" fill="#333333"/>
<path d="M98.3315 43.6941L139.987 26.2767L138.785 24.625L97.1299 42.1926L98.3315 43.6941Z" fill="#333333"/>
<path d="M111.148 15.7656H143.592V21.4713H111.148V15.7656Z" fill="#B2B2B2"/>
<path d="M139.987 26.1244C145.517 26.1244 150 22.7632 150 18.6169C150 14.4706 145.517 11.1094 139.987 11.1094C134.457 11.1094 129.974 14.4706 129.974 18.6169C129.974 22.7632 134.457 26.1244 139.987 26.1244Z" fill="#7F7F7F" stroke="black" stroke-width="0.346815"/>
<path d="M94.9269 44.8969C108.752 44.8969 119.96 36.4938 119.96 26.1281C119.96 15.7624 108.752 7.35938 94.9269 7.35938C81.1014 7.35938 69.8936 15.7624 69.8936 26.1281C69.8936 36.4938 81.1014 44.8969 94.9269 44.8969Z" fill="#99CCCC"/>
<path d="M58.2777 43.0954L52.2697 47.5999L45.0601 50.6029L36.6489 52.4047H28.4379L19.8264 50.6029L12.8171 47.5999L6.40854 43.0954L2.4032 37.3897L0 31.0834V24.7771L2.4032 18.7711L6.80908 13.0654L12.8171 8.5609L19.8264 5.2576L28.4379 3.90625H36.6489L45.0601 5.2576L52.2697 8.5609L58.2777 13.0654L62.6836 18.4708L64.6862 24.7771V31.0834L62.6836 37.3897L58.2777 43.0954Z" fill="#99CCCC"/>
<path d="M58.2777 43.0925L32.243 28.0775L2.4032 37.3868L0 31.0805V24.7742L2.4032 18.7682L6.80908 13.0625L32.243 28.0775L62.6836 18.4679L64.6862 24.7742V31.0805L62.6836 37.3868L58.2777 43.0925Z" fill="#A6D9D9"/>
<path d="M114.753 37.6856L95.1272 26.2742L71.4957 33.4814L69.8936 28.6766V23.5715L71.4957 19.067L74.7 14.5625L94.7267 26.2742L118.358 19.067L119.96 23.5715V28.6766L118.358 33.4814L114.753 37.6856Z" fill="#A6D9D9"/>
<path d="M32.8439 28.0775L6.40866 43.0925L2.40332 37.3868L32.2431 28.0775L58.2778 13.0625L62.6837 18.4679L32.8439 28.0775Z" fill="#7FB2B2"/>
<path d="M95.1266 26.2742L74.6994 37.6856L71.4951 33.4814L94.7261 26.2742L114.753 14.5625L118.358 19.067L95.1266 26.2742Z" fill="#7FB2B2"/>
<path d="M94.9264 35.583C101.894 35.583 107.543 31.3478 107.543 26.1235C107.543 20.8992 101.894 16.6641 94.9264 16.6641C87.9583 16.6641 82.3096 20.8992 82.3096 26.1235C82.3096 31.3478 87.9583 35.583 94.9264 35.583Z" stroke="#336666" stroke-width="0.346815"/>
<path d="M32.443 33.7864C36.4248 33.7864 39.6526 31.2319 39.6526 28.0807C39.6526 24.9295 36.4248 22.375 32.443 22.375C28.4613 22.375 25.2334 24.9295 25.2334 28.0807C25.2334 31.2319 28.4613 33.7864 32.443 33.7864Z" stroke="#336666" stroke-width="0.346815"/>
<path d="M94.9269 44.8969C108.752 44.8969 119.96 36.4938 119.96 26.1281C119.96 15.7624 108.752 7.35938 94.9269 7.35938C81.1014 7.35938 69.8936 15.7624 69.8936 26.1281C69.8936 36.4938 81.1014 44.8969 94.9269 44.8969Z" stroke="black" stroke-width="0.346815"/>
<path d="M58.2777 43.0954L52.2697 47.5999L45.0601 50.6029L36.6489 52.4047H28.4379L19.8264 50.6029L12.8171 47.5999L6.40854 43.0954L2.4032 37.3897L0 31.0834V24.7771L2.4032 18.7711L6.80908 13.0654L12.8171 8.5609L19.8264 5.2576L28.4379 3.90625H36.6489L45.0601 5.2576L52.2697 8.5609L58.2777 13.0654L62.6836 18.4708L64.6862 24.7771V31.0834L62.6836 37.3897L58.2777 43.0954Z" stroke="black" stroke-width="0.346815"/>
<path d="M94.9265 33.9325C100.567 33.9325 105.14 30.5041 105.14 26.2748C105.14 22.0456 100.567 18.6172 94.9265 18.6172C89.2857 18.6172 84.7129 22.0456 84.7129 26.2748C84.7129 30.5041 89.2857 33.9325 94.9265 33.9325Z" fill="#003333"/>
<path d="M84.7129 63.8125H104.74V71.32H84.7129V63.8125Z" fill="#336666"/>
<path d="M86.315 22.375H103.538L104.74 63.8164H84.7129L86.315 22.375Z" fill="#669999"/>
<path d="M86.315 22.375H103.538L104.74 71.3239H84.7129L86.315 22.375Z" stroke="black" stroke-width="0.346815"/>
<path d="M25.2334 125.672H30.0398V129.275H25.2334V125.672Z" fill="#669999"/>
<path d="M25.2334 97.4453H30.0398V149.998H25.2334V97.4453Z" stroke="black" stroke-width="0.346815"/>
</g>
<defs>
<clipPath id="clip0_2109_194985">
<rect width="150" height="150" fill="white"/>
</clipPath>
</defs>
</svg>
