<svg width="150" height="150" viewBox="0 0 150 150" fill="none" xmlns="http://www.w3.org/2000/svg">
<g clip-path="url(#clip0_2914_168555)">
<mask id="mask0_2914_168555" style="mask-type:luminance" maskUnits="userSpaceOnUse" x="0" y="0" width="150" height="150">
<path d="M150 0H0V150H150V0Z" fill="white"/>
</mask>
<g mask="url(#mask0_2914_168555)">
<path d="M26.5766 115.32H8.55859V123.677H9.60964V141.435H8.55859V149.373H35.4355V141.435H15.6157V123.677H24.7748V133.078H60.961V121.17H30.7808L27.3274 117.201L26.5766 115.32Z" fill="#B2B2B2" stroke="black" stroke-width="0.354223"/>
<path d="M84.2344 141.438H141.291V149.376H84.2344V141.438Z" fill="#B2B2B2" stroke="black" stroke-width="0.354223"/>
<path d="M106.306 123.68H126.876L138.888 141.437H89.9395L106.306 123.68Z" fill="#B2B2B2" stroke="black" stroke-width="0.354223"/>
<path d="M115.165 141.437H118.618V123.68H115.165V141.437Z" fill="#E0E0E0" stroke="black" stroke-width="0.354223"/>
<path d="M60.9609 23.1875V121.168H30.7807L27.3273 117.199L24.024 106.962L22.2222 91.0844L21.3213 71.8644L22.2222 53.2711L24.024 37.3936L26.8768 27.1569L30.4804 23.1875H60.9609Z" fill="#E0E0E0" stroke="black" stroke-width="0.354223"/>
<path d="M75.0752 118.871V25.6953L91.4416 39.4836V105.918L85.7359 111.768L79.2794 116.782L75.0752 118.871Z" fill="#E0E0E0" stroke="black" stroke-width="0.354223"/>
<path d="M98.1982 21.7266H126.126L129.279 25.6959L131.081 36.5594L131.832 52.6458L132.132 72.4926L131.832 92.1305L131.081 108.426L129.279 119.289L126.126 123.676H98.1982V21.7266Z" fill="#E0E0E0" stroke="black" stroke-width="0.354223"/>
<path d="M149.549 38.0234H143.844V107.383H149.549V38.0234Z" fill="#E0E0E0" stroke="black" stroke-width="0.354223"/>
<path d="M102.103 6.89062V21.7235H124.024V6.89062H102.103Z" fill="#E0E0E0" stroke="black" stroke-width="0.354223"/>
<path d="M89.6396 0.414062V6.89039H136.336V0.414062H89.6396Z" fill="#E0E0E0" stroke="black" stroke-width="0.354223"/>
<path d="M10.9609 64.9705H14.8648V58.7031H10.9609V64.9705Z" fill="#E0E0E0" stroke="black" stroke-width="0.354223"/>
<path d="M26.2768 113.437L24.0245 106.543L22.2227 91.0829L21.3218 71.8628L21.6221 64.9688H4.95544L4.50499 65.1776L3.15363 67.0578L2.40288 69.3559L1.65213 72.4895L1.35183 74.1609L1.20168 76.25L0.901382 78.1302L0.751232 80.4283L0.601082 82.7263L0.450931 85.2333L0.300781 87.7402V90.2472V92.7542L0.450931 95.2611L0.601082 97.5592L0.751232 99.8572L0.901382 102.155L1.20168 104.245L1.35183 106.125L2.10258 109.467L2.85333 112.183L3.60408 114.272L4.50499 115.317H4.95544H26.2768V113.437Z" fill="#E0E0E0" stroke="black" stroke-width="0.354223"/>
<path d="M7.80762 58.705H18.0178V35.5156H7.80762V58.705Z" fill="#E0E0E0" stroke="black" stroke-width="0.354223"/>
<path d="M60.9609 11.9062H75.0751V133.076H60.9609V11.9062Z" fill="#E0E0E0" stroke="black" stroke-width="0.354223"/>
<path d="M91.4414 18.1719H98.1982V126.598H91.4414V18.1719Z" fill="#E0E0E0" stroke="black" stroke-width="0.354223"/>
<path d="M135.285 52.2266L136.787 53.689L137.838 58.0761L138.889 64.5525V72.4912V80.4299L137.838 86.6973L136.787 91.0845L135.285 92.7558H131.832L132.132 92.1291V72.4912V52.6444V52.2266H135.285Z" fill="#E0E0E0" stroke="black" stroke-width="0.354223"/>
<path d="M137.388 56.6172L137.838 58.0796L138.889 64.5559V72.4946V80.4333L137.838 86.7008L137.388 88.7899H143.844V56.6172H137.388Z" fill="#E0E0E0" stroke="black" stroke-width="0.354223"/>
<path d="M4.2041 92.7578H17.7176V110.307H4.2041V92.7578Z" fill="#F0F0F0" stroke="black" stroke-width="0.354223"/>
<path d="M58.4082 19.6357H60.5103V16.7109H58.4082V19.6357Z" fill="#F0F0F0" stroke="black" stroke-width="0.354223"/>
<path d="M58.4082 38.0243H60.5103V34.8906H58.4082V38.0243Z" fill="#F0F0F0" stroke="black" stroke-width="0.354223"/>
<path d="M58.4082 56.1945H60.5103V53.6875H58.4082V56.1945Z" fill="#F0F0F0" stroke="black" stroke-width="0.354223"/>
<path d="M58.4082 74.3742H60.5103V71.8672H58.4082V74.3742Z" fill="#F0F0F0" stroke="black" stroke-width="0.354223"/>
<path d="M58.4082 92.7587H60.5103V89.625H58.4082V92.7587Z" fill="#F0F0F0" stroke="black" stroke-width="0.354223"/>
<path d="M58.4082 129.112H60.5103V126.188H58.4082V129.112Z" fill="#F0F0F0" stroke="black" stroke-width="0.354223"/>
<path d="M58.4082 110.933H60.5103V108.008H58.4082V110.933Z" fill="#F0F0F0" stroke="black" stroke-width="0.354223"/>
<path d="M8.55862 105.921L7.35742 101.533L8.55862 97.564L11.2613 96.1016L14.5646 97.564L15.6157 101.533L14.5646 105.921L11.2613 107.383L8.55862 105.921Z" fill="black"/>
<path d="M30.1802 131.198H33.6337L35.4355 126.602L33.6337 122.633H30.1802L28.6787 126.602L30.1802 131.198Z" fill="#F0F0F0"/>
<path d="M38.5887 131.198H42.1923L43.8439 126.602L42.1923 122.633H38.5887L37.2373 126.602L38.5887 131.198Z" fill="#F0F0F0"/>
<path d="M98.1982 108.844H114.715V104.875H98.1982V108.844Z" fill="#F2F2F2" stroke="black" stroke-width="0.354223"/>
<path d="M88.5889 110.304H91.4417V106.961H88.5889V110.304Z" fill="#F2F2F2" stroke="black" stroke-width="0.354223"/>
<path d="M98.1982 70.4051H114.715V67.0625H98.1982V70.4051Z" fill="#F2F2F2" stroke="black" stroke-width="0.354223"/>
<path d="M88.5889 72.4928H91.4417V68.5234H88.5889V72.4928Z" fill="#F2F2F2" stroke="black" stroke-width="0.354223"/>
<path d="M98.1982 34.8912H114.715V30.9219H98.1982V34.8912Z" fill="#F2F2F2" stroke="black" stroke-width="0.354223"/>
<path d="M88.5889 36.9772H91.4417V33.0078H88.5889V36.9772Z" fill="#F2F2F2" stroke="black" stroke-width="0.354223"/>
<path d="M88.5889 36.9766H91.4417V38.8568H88.5889V36.9766Z" fill="#CCCCCC" stroke="black" stroke-width="0.354223"/>
<path d="M98.1982 34.8906H114.715V38.86H98.1982V34.8906Z" fill="#CCCCCC" stroke="black" stroke-width="0.354223"/>
<path d="M88.5889 72.4922H91.4417V74.3724H88.5889V72.4922Z" fill="#CCCCCC" stroke="black" stroke-width="0.354223"/>
<path d="M98.1982 70.4062H114.715V74.3757H98.1982V70.4062Z" fill="#CCCCCC" stroke="black" stroke-width="0.354223"/>
<path d="M88.5889 110.305H91.4417V112.812H88.5889V110.305Z" fill="#CCCCCC" stroke="black" stroke-width="0.354223"/>
<path d="M98.1982 108.844H114.715V112.813H98.1982V108.844Z" fill="#CCCCCC" stroke="black" stroke-width="0.354223"/>
<path d="M58.4082 19.6406H60.5103V21.7298H58.4082V19.6406Z" fill="#B2B2B2" stroke="black" stroke-width="0.354223"/>
<path d="M58.4082 38.0234H60.5103V39.4858H58.4082V38.0234Z" fill="#B2B2B2" stroke="black" stroke-width="0.354223"/>
<path d="M58.4082 56.1953H60.5103V57.6577H58.4082V56.1953Z" fill="#B2B2B2" stroke="black" stroke-width="0.354223"/>
<path d="M58.4082 74.375H60.5103V75.8374H58.4082V74.375Z" fill="#B2B2B2" stroke="black" stroke-width="0.354223"/>
<path d="M58.4082 92.7578H60.5103V94.2202H58.4082V92.7578Z" fill="#B2B2B2" stroke="black" stroke-width="0.354223"/>
<path d="M58.4082 110.93H60.5103V112.81H58.4082V110.93Z" fill="#B2B2B2" stroke="black" stroke-width="0.354223"/>
<path d="M58.4082 129.109H60.5103V130.572H58.4082V129.109Z" fill="#B2B2B2" stroke="black" stroke-width="0.354223"/>
<path d="M75.0752 16.7109H77.1773V20.2625H75.0752V16.7109Z" fill="#B2B2B2" stroke="black" stroke-width="0.354223"/>
<path d="M75.0752 34.8906H77.1773V38.4422H75.0752V34.8906Z" fill="#B2B2B2" stroke="black" stroke-width="0.354223"/>
<path d="M75.0752 53.2734H77.1773V56.6161H75.0752V53.2734Z" fill="#B2B2B2" stroke="black" stroke-width="0.354223"/>
<path d="M75.0752 71.4453H77.1773V74.9968H75.0752V71.4453Z" fill="#B2B2B2" stroke="black" stroke-width="0.354223"/>
<path d="M75.0752 89.625H77.1773V93.1765H75.0752V89.625Z" fill="#B2B2B2" stroke="black" stroke-width="0.354223"/>
<path d="M75.0752 108.008H77.1773V111.35H75.0752V108.008Z" fill="#B2B2B2" stroke="black" stroke-width="0.354223"/>
<path d="M75.0752 125.555H77.1773V129.106H75.0752V125.555Z" fill="#B2B2B2" stroke="black" stroke-width="0.354223"/>
<path d="M58.4082 125.141H60.5103V126.185H58.4082V125.141Z" fill="white"/>
<path d="M58.4082 106.961H60.5103V108.006H58.4082V106.961Z" fill="white"/>
<path d="M58.4082 88.1641H60.5103V89.6265H58.4082V88.1641Z" fill="white"/>
<path d="M58.4082 69.9844H60.5103V71.8646H58.4082V69.9844Z" fill="white"/>
<path d="M58.4082 51.8125H60.5103V53.6927H58.4082V51.8125Z" fill="white"/>
<path d="M58.4082 34.0547H60.5103V34.8903H58.4082V34.0547Z" fill="white"/>
<path d="M58.4082 15.6719H60.5103V16.7164H58.4082V15.6719Z" fill="white"/>
<path d="M62.0117 18.1719H73.7234V26.1106H62.0117V18.1719Z" fill="white"/>
<path d="M59.91 26.1172H28.3785L26.2764 34.4737H59.91V26.1172Z" fill="white"/>
<path d="M9.91016 58.0768H11.712V36.9766H9.91016V58.0768Z" fill="white"/>
<path d="M4.20389 69.9844H20.1198V78.3409H2.85254L4.20389 69.9844Z" fill="white"/>
<path d="M92.042 23.1875H97.4474V30.0817H92.042V23.1875Z" fill="white"/>
<path d="M127.478 23.1875H98.7988V27.5747H128.979L127.478 23.1875Z" fill="white"/>
<path d="M92.793 1.46094V5.84812H100.601V1.46094H92.793Z" fill="white"/>
<path d="M104.505 7.9375V20.6812H108.108V7.9375H104.505Z" fill="white"/>
<path d="M132.433 56.1953H137.087L137.838 59.5379H132.433V56.1953Z" fill="white"/>
<path d="M138.889 62.0469H143.844V64.9717H138.889V62.0469Z" fill="white"/>
<path d="M144.145 44.2891H148.799V52.2278H144.145V44.2891Z" fill="white"/>
<path d="M88.5889 104.875H91.4417V106.964H88.5889V104.875Z" fill="white"/>
<path d="M88.5889 67.0625H91.4417V68.5249H88.5889V67.0625Z" fill="white"/>
<path d="M88.5889 30.9219H91.4417V33.011H88.5889V30.9219Z" fill="white"/>
<path d="M68.0176 11.9062V133.076" stroke="black" stroke-width="0.354223"/>
<path d="M24.7744 123.677V115.32" stroke="black" stroke-width="0.354223"/>
</g>
</g>
<defs>
<clipPath id="clip0_2914_168555">
<rect width="150" height="150" fill="white"/>
</clipPath>
</defs>
</svg>
