<svg width="150" height="150" viewBox="0 0 150 150" fill="none" xmlns="http://www.w3.org/2000/svg">
<path d="M129.19 128.077L130.688 130.179L129.856 131.08L129.19 131.23H4.49512V149.848L129.19 149.998L135.35 149.098L140.844 146.695L145.172 143.092L148.335 138.437L149.834 133.032L150 131.23L149.834 129.278L148.335 123.872L145.172 119.218L140.844 115.614L135.35 113.362L131.188 112.611L129.19 112.461V128.077Z" fill="#73E351"/>
<path d="M129.023 109.311L130.521 111.563L129.689 112.314L129.023 112.464H38.9563L34.6278 113.515L30.9652 117.269L29.9663 120.872L29.7998 121.773L29.9663 122.674L31.2981 127.029L35.4602 130.482L38.9563 131.083L129.023 131.233L131.021 131.083L137.014 129.731L142.175 126.878L146.171 122.975L148.834 118.02L149.667 114.416L149.833 112.464L149.667 110.512L148.168 105.107L145.005 100.602L140.677 96.9986L135.183 94.5962L131.021 93.8455L129.023 93.6953V109.311Z" fill="#73E351"/>
<path d="M129.023 90.3891L130.521 92.6413L129.689 93.5422H129.023H38.9563L34.6278 94.7434L30.9652 98.4972L29.9663 101.951L29.7998 102.852L29.9663 103.903L31.2981 108.107L35.4602 111.56L38.9563 112.311H129.023L131.021 112.161L137.014 110.809L142.175 107.957L146.171 104.053L148.834 99.0978L149.667 95.4942L149.833 93.5422L149.667 91.7404L148.168 86.335L145.005 81.6803L140.677 78.0767L135.183 75.6743L131.021 74.9236L129.023 74.7734V90.3891Z" fill="#73E351"/>
<path d="M129.023 71.6217L130.521 73.8741L129.689 74.775H129.023H38.9563L34.6278 75.9761L30.9652 79.7298L29.9663 83.1833L29.7998 84.2343L29.9663 85.1353L31.2981 89.4897L35.4602 92.7929L38.9563 93.5437H129.023H131.021L137.014 92.1923L142.175 89.3395L146.171 85.2854L148.834 80.3304L149.667 76.7268L149.833 74.775L149.667 72.9731L148.168 67.5678L145.005 62.913L140.677 59.3094L135.183 56.9071L131.021 56.1562H129.023V71.6217Z" fill="#73E351"/>
<path d="M129.023 53.0062L130.521 55.1083L129.689 56.0092L129.023 56.1594H38.9563L34.6278 57.2104L30.9652 60.9642L29.9663 64.4177L29.7998 65.4687L29.9663 66.3696L31.2981 70.724L35.4602 74.0273L38.9563 74.778H129.023H131.021L137.014 73.4267L142.175 70.5738L146.171 66.5198L148.834 61.7149L149.667 57.9612L149.833 56.1594L149.667 54.2074L148.168 48.802L145.005 44.2975L140.677 40.5438L135.183 38.2915L131.021 37.5408L129.023 37.3906V53.0062Z" fill="#73E351"/>
<path d="M129.023 34.2328L130.521 36.4851L129.689 37.2358L129.023 37.386H38.9563L34.6278 38.5872L30.9652 42.3409L29.9663 45.7944L29.7998 46.6953L29.9663 47.7463L31.2981 51.9505L35.4602 55.404L38.9563 56.0046L129.023 56.1547L131.021 56.0046L137.014 54.6532L142.175 51.8004L146.171 47.8965L148.834 42.9415L149.667 39.3379L149.833 37.386L149.667 35.434L148.168 30.0286L145.005 25.5241L140.677 21.7703L135.183 19.5181L131.021 18.7673L129.023 18.6172V34.2328Z" fill="#73E351"/>
<path d="M3.33008 15.6156H129.024L130.522 17.8679L129.69 18.6186L129.024 18.7688H38.9572L34.6286 19.97L30.966 23.7237L29.8007 28.0781L30.966 32.5826L33.7962 35.8859L38.1248 37.3874L38.9572 37.5375H129.024L131.022 37.3874L137.015 36.036L142.176 33.1832L146.171 29.2793L148.835 24.3243L149.667 20.7207L149.834 18.7688L149.667 16.8168L148.169 11.4114L145.006 6.90691L140.677 3.3033L135.184 0.900901L131.022 0.15015L129.024 0H3.33008V15.6156Z" fill="#73E351"/>
<path d="M145.338 126.43L133.352 131.985L129.023 133.787H5.66016V147.15H9.48924H13.3183H17.1474H28.8011H36.4593H102.053H109.878H129.023L135.682 146.099L141.01 143.096L144.672 138.742L146.504 133.637L146.67 131.835L146.504 130.033L146.004 128.231L145.338 126.43Z" fill="#95EC7D"/>
<path d="M146.337 107.656L133.352 113.212L128.857 115.014H112.042H106.548H58.768H53.2741H39.1231L34.2952 116.966L32.6303 120.419L32.4639 121.77L32.6303 123.122L35.2941 127.176L37.7913 128.227L39.1231 128.377H41.9533H55.9378H61.5982H109.378H114.872H128.857L133.685 127.776L137.68 126.125L142.675 122.221L145.838 117.266L147.003 113.963L147.17 112.161V110.659L146.837 109.158L146.337 107.656Z" fill="#95EC7D"/>
<path d="M146.337 89.0391L133.352 94.4445L128.857 96.2463H112.042H106.548H58.768H53.2741H39.1231L34.2952 98.1982L32.6303 101.652L32.4639 103.003L32.6303 104.354L35.2941 108.408L37.7913 109.459L39.1231 109.61H41.9533H55.9378H61.5982H109.378H114.872H128.857L133.685 109.009L137.68 107.357L142.675 103.453L145.838 98.6487L147.003 95.1952L147.17 93.5436V91.8919L146.837 90.3904L146.337 89.0391Z" fill="#95EC7D"/>
<path d="M146.337 70.2734L133.352 75.6788L128.857 77.4806H112.042H106.548H58.768H53.2741H39.1231L34.2952 79.4326L32.6303 82.8861L32.4639 84.2374L32.6303 85.5888L35.2941 89.793L37.7913 90.6939L39.1231 90.844H41.9533H55.9378H61.5982H109.378H114.872H128.857L133.685 90.2434L137.68 88.5918L142.675 84.6879L145.838 79.883L147.003 76.4296L147.17 74.7779V73.1263L146.837 71.6248L146.337 70.2734Z" fill="#95EC7D"/>
<path d="M146.337 51.5L133.352 56.9054L128.857 58.7072H112.042H106.548H58.768H53.2741H39.1231L34.2952 60.6592L32.6303 64.1126L32.4639 65.464L32.6303 66.8153L35.2941 71.0195L37.7913 71.9204L39.1231 72.0706H41.9533H55.9378H61.5982H109.378H114.872H128.857L133.685 71.47L137.68 69.8183L142.675 65.9144L145.838 61.1096L147.003 57.6562L147.17 56.0045V54.3529L146.837 52.8514L146.337 51.5Z" fill="#95EC7D"/>
<path d="M146.337 32.7344L133.352 38.2899L128.857 40.0917H112.042L106.548 39.9416H58.768L53.2741 40.0917H39.1231L34.2952 42.0437L32.6303 45.4971L32.4639 46.8485L32.6303 48.0497L35.2941 52.2539L37.7913 53.1548L39.1231 53.3049H41.9533H55.9378H61.5982H109.378H114.872H128.857L133.685 52.7043L137.68 51.0527L142.675 47.2989L145.838 42.344L147.003 38.8905L147.17 37.2389V35.5872L146.837 34.0857L146.337 32.7344Z" fill="#95EC7D"/>
<path d="M4.16211 13.2127H27.4695H35.2942H101.72H109.379H128.857L132.852 15.4649L132.187 20.4199L126.027 21.4709H112.042H106.548H58.7681H53.2742H39.1233L34.2953 23.4229L32.464 28.0775L34.2953 32.7322L37.7914 34.534L39.1233 34.8343H41.9534H55.9379L61.5983 34.6841H109.379L114.872 34.8343H128.857L134.184 33.9334L138.679 31.6811L142.342 28.528L145.006 24.4739L146.171 20.2697L146.337 18.7682V17.2667L145.172 12.7622L142.675 8.70817L139.012 5.40487L134.517 3.00246L130.855 2.25171L128.857 2.10156H4.16211V13.2127Z" fill="#95EC7D"/>
<path d="M142.841 128.078L135.849 131.231L134.184 134.985L129.19 136.787H6.65918V144.595H129.19L134.351 143.694L138.513 141.141L141.509 137.688L143.174 133.634L143.341 132.132L142.841 128.078Z" fill="#E3FBDB"/>
<path d="M142.842 109.312L136.016 112.466L133.019 116.67L129.024 117.871H38.957L35.2944 120.273L35.1279 121.775L37.2922 125.379L38.957 125.679L129.024 125.829L133.852 124.928L138.014 122.526L141.177 119.072L143.008 115.018L143.341 112.165L142.842 109.312Z" fill="#E3FBDB"/>
<path d="M142.842 90.5391L136.016 93.6922L133.019 98.0466L129.024 99.0976H38.957L35.2944 101.5L35.1279 103.002L37.2922 106.605L38.957 106.905L129.024 107.056L133.852 106.155L138.014 103.752L141.177 100.299L143.008 96.2448L143.341 93.3919L142.842 90.5391Z" fill="#E3FBDB"/>
<path d="M142.842 71.7734L136.016 74.9266L133.019 79.2809L129.024 80.332H38.957L35.2944 82.7344L35.1279 84.3861L37.2922 87.8395L38.957 88.29H129.024L133.852 87.3891L138.014 84.9867L141.177 81.5332L143.008 77.4791L143.341 74.6263L142.842 71.7734Z" fill="#E3FBDB"/>
<path d="M142.842 53L136.016 56.1532L133.019 60.5075L129.024 61.5586H38.957L35.2944 63.961L35.1279 65.6126L37.2922 69.0661L38.957 69.5165H129.024L133.852 68.6156L138.014 66.2132L141.177 62.7598L143.008 58.7057L143.341 55.8529L142.842 53Z" fill="#E3FBDB"/>
<path d="M142.842 34.2344L136.016 37.3875L133.019 41.7419L129.024 42.9431H38.957L35.2944 45.3455L35.1279 46.847L37.2922 50.3004L38.957 50.7509H129.024L133.852 49.85L138.014 47.4476L141.177 44.1443L143.008 40.0902L143.341 37.0872L142.842 34.2344Z" fill="#E3FBDB"/>
<path d="M4.82812 10.9582H129.023L133.851 13.0603L135.683 18.1654L133.685 22.82L129.356 24.3215H38.9569L35.2943 26.7239L36.1267 30.9281L38.1245 32.1293H38.9569H129.023L134.351 30.778L138.846 27.4747L141.676 23.1203L142.675 19.817L142.841 18.766L142.675 17.7149L141.51 13.0603L138.513 8.55577L133.851 5.40261L130.688 4.50171L129.023 4.35156H4.82812V10.9582Z" fill="#E3FBDB"/>
<path d="M4.16158 149.997C6.36826 149.997 8.15714 145.762 8.15714 140.538C8.15714 135.313 6.36826 131.078 4.16158 131.078C1.95489 131.078 0.166016 135.313 0.166016 140.538C0.166016 145.762 1.95489 149.997 4.16158 149.997Z" fill="#57DC1E"/>
<path d="M3.16315 15.6156C4.91011 15.6156 6.3263 12.1199 6.3263 7.80781C6.3263 3.49567 4.91011 0 3.16315 0C1.41619 0 0 3.49567 0 7.80781C0 12.1199 1.41619 15.6156 3.16315 15.6156Z" fill="#57DC1E"/>
<path d="M38.124 37.3906H131.52" stroke="#57DC1E" stroke-width="0.31621"/>
<path d="M38.124 56.1562H131.52" stroke="#57DC1E" stroke-width="0.31621"/>
<path d="M38.124 74.9219H131.52" stroke="#57DC1E" stroke-width="0.31621"/>
<path d="M38.124 93.6953H131.52" stroke="#57DC1E" stroke-width="0.31621"/>
<path d="M38.124 112.461H131.52" stroke="#57DC1E" stroke-width="0.31621"/>
<path d="M38.124 131.234H131.52" stroke="#57DC1E" stroke-width="0.31621"/>
</svg>
