<svg width="150" height="150" viewBox="0 0 150 150" fill="none" xmlns="http://www.w3.org/2000/svg">
<path d="M15.4863 10.6641H38.8669V13.0665H15.4863V10.6641Z" fill="#4C4C4C" stroke="black" stroke-width="0.427046"/>
<path d="M27.935 105.102L18.5221 146.843H23.3804V147.594H17.0039H12.4492L23.3804 105.102H27.935Z" fill="black"/>
<path d="M68.623 105.102L78.036 146.843H73.4813V147.594H79.5542H84.1089L73.4813 105.102H68.623Z" fill="black"/>
<path d="M71.9644 123.721L66.4988 123.121L61.6405 121.619L58.604 119.367L57.6931 116.664H38.8672L41.2963 122.82L48.2801 128.376L59.515 131.829L71.9644 132.88H97.4704V135.283H104.758V121.319H97.4704V123.721H71.9644Z" fill="#7F7F7F"/>
<path d="M71.9629 131.829H97.469V132.88H104.756V123.721H97.469V124.772H71.9629L65.5864 124.172L60.1208 122.52L56.4771 119.667L55.2625 116.664H41.2949L43.4204 122.37L49.7969 127.475L60.4245 130.778L71.9629 131.829Z" fill="#B2B2B2"/>
<path d="M71.963 129.427L62.2464 128.526L53.4407 125.823L47.9751 121.469L45.8496 116.664H50.7079L52.2261 120.568L56.7808 124.172L63.7646 126.424L71.963 127.175H97.469V125.973H104.756V130.628H97.469V129.427H71.963Z" fill="#E5E5E5"/>
<path d="M71.9644 123.721L66.4988 123.121L61.6405 121.619L58.604 119.367L57.6931 116.664H38.8672L41.2963 122.82L48.2801 128.376L59.515 131.829L71.9644 132.88H97.4704V135.283H104.758V121.319H97.4704V123.721H71.9644Z" stroke="black" stroke-width="0.427046"/>
<path d="M97.4688 132.886V123.727" stroke="black" stroke-width="0.427046"/>
<path d="M71.9629 132.886V123.727" stroke="black" stroke-width="0.427046"/>
<path d="M74.0898 132.886V123.727" stroke="#7F7F7F" stroke-width="0.427046"/>
<path d="M1.21484 102.703H95.3444V104.355H1.21484V102.703Z" fill="#666666" stroke="black" stroke-width="0.427046"/>
<path d="M10.627 109.008V13.0625H85.9306V109.008L83.1978 112.462L74.9994 115.615L62.55 117.567L48.2788 118.168L34.3112 117.567L21.5581 115.615L13.3597 112.462L10.627 109.008Z" fill="#666666"/>
<path d="M15.4863 108.858V13.0625H81.377V108.858L79.2515 112.312L71.9641 115.465L60.7292 117.567L48.2798 118.168L36.1341 117.567L24.8993 115.465L17.6118 112.312L15.4863 108.858Z" fill="#757575"/>
<path d="M19.7363 108.858V13.0625H77.125V108.858L74.9995 112.312L68.9266 115.465L59.21 117.567L48.2788 118.168L37.6513 117.567L27.9347 115.465L21.8618 112.312L19.7363 108.858Z" fill="#828282"/>
<path d="M24.291 108.858V13.0625H72.5704V108.858L70.7485 112.312L65.5866 115.465L57.3882 117.567L48.2789 118.168L39.1696 117.567L31.2748 115.465L26.1129 112.312L24.291 108.858Z" fill="#919191"/>
<path d="M28.543 108.858V13.0625H68.0167V108.858L66.4984 112.312L62.5511 115.465L55.8709 117.567L48.2798 118.168L40.9924 117.567L34.3122 115.465L30.0612 112.312L28.543 108.858Z" fill="#A1A1A1"/>
<path d="M33.0977 108.858V13.0625H63.7657V108.858L62.5511 112.312L59.211 115.465L54.0491 117.567L48.2798 118.168L42.8143 117.567L37.3487 115.465L34.3122 112.312L33.0977 108.858Z" fill="#B0B0B0"/>
<path d="M37.6523 108.858V13.0625H59.211V108.858L58.3001 112.312L56.1746 115.465L52.5309 117.567L48.2799 118.168L44.3325 117.567L40.6888 115.465L38.5633 112.312L37.6523 108.858Z" fill="#BDBDBD"/>
<path d="M43.7246 109.008V13.0625H53.1376V109.008L52.8339 112.462L51.6193 115.615L50.1011 117.567L48.2793 118.168L46.4574 117.567L44.9392 115.615L44.0283 112.462L43.7246 109.008Z" fill="#CCCCCC"/>
<path d="M10.627 109.008V13.0625H85.9306V109.008L83.1978 112.462L74.9994 115.615L62.55 117.567L48.2788 118.168L34.3112 117.567L21.5581 115.615L13.3597 112.462L10.627 109.008Z" stroke="black" stroke-width="0.427046"/>
<path d="M10.627 71.9219H85.9306" stroke="#B2B2B2" stroke-width="0.427046"/>
<path d="M10.627 77.1797H85.9306" stroke="black" stroke-width="0.427046"/>
<path d="M10.627 25.5234H85.9306" stroke="#B2B2B2" stroke-width="0.427046"/>
<path d="M10.627 27.1797H85.9306" stroke="black" stroke-width="0.427046"/>
<path d="M10.627 15.3125H85.9306" stroke="black" stroke-width="0.427046"/>
<path d="M21.8631 106.608L10.6282 148.35H17.0048V149.25H10.6282H7.5918L20.0412 106.608V101.953H21.5594L21.8631 106.608Z" fill="#7F7F7F" stroke="black" stroke-width="0.427046"/>
<path d="M74.6973 106.608L85.9321 148.35H79.5556V149.25H85.9321H88.9685L76.5191 106.608V101.953H75.0009L74.6973 106.608Z" fill="#7F7F7F" stroke="black" stroke-width="0.427046"/>
<path d="M88.967 149.25L95.3435 148.35L81.0722 106.608V101.953H76.5176V106.608L88.967 149.25Z" fill="#CCCCCC" stroke="black" stroke-width="0.427046"/>
<path d="M7.59136 149.25L1.21484 148.35L15.4861 106.608V101.953H20.0408V106.608L7.59136 149.25Z" fill="#CCCCCC" stroke="black" stroke-width="0.427046"/>
<path d="M1.21484 102.703H95.3444" stroke="#B2B2B2" stroke-width="0.427046"/>
<path d="M1.21484 104.352H95.3444" stroke="black" stroke-width="0.427046"/>
<path d="M46.7617 102.703H49.7982V104.355H46.7617V102.703Z" fill="black"/>
<path d="M115.689 13.8132L110.223 13.3627L105.365 11.8612L102.329 9.4588L101.418 6.90625H82.5918L85.0209 12.9123L92.0048 18.4678L103.24 21.9213L115.689 23.1225H141.195V25.3747H148.482V11.4108H141.195V13.8132H115.689Z" fill="#7F7F7F"/>
<path d="M115.688 21.9213H141.194V23.1225H148.481V13.8132H141.194V15.0144L115.688 14.8642L109.311 14.2636L103.845 12.612L100.505 9.90925L99.2908 6.90625H85.0195L87.145 12.4618L93.5216 17.7171L104.149 20.8702L115.688 21.9213Z" fill="#B2B2B2"/>
<path d="M115.689 19.669L105.972 18.618L97.1664 15.9153L91.7008 11.5609L89.8789 6.90625H94.4336L95.9518 10.8102L100.506 14.2636L107.49 16.5159L115.689 17.2666H141.195V16.0654H148.482V20.7201H141.195V19.669H115.689Z" fill="#E5E5E5"/>
<path d="M115.689 13.8132L110.223 13.3627L105.365 11.8612L102.329 9.4588L101.418 6.90625H82.5918L85.0209 12.9123L92.0048 18.4678L103.24 21.9213L115.689 23.1225H141.195V25.3747H148.482V11.4108H141.195V13.8132H115.689Z" stroke="black" stroke-width="0.427046"/>
<path d="M141.195 23.1218V13.8125" stroke="black" stroke-width="0.427046"/>
<path d="M119.332 23.1218V13.8125" stroke="black" stroke-width="0.427046"/>
<path d="M121.457 23.1218V13.8125" stroke="#7F7F7F" stroke-width="0.427046"/>
<path d="M35.8301 13.064L38.8665 11.5625V3.75472L45.243 0.601562H104.454L110.83 3.75472V11.5625H82.5912V13.064H35.8301Z" fill="#999999" stroke="black" stroke-width="0.427046"/>
<path d="M51.3164 5.25781H82.5917V13.0656H51.3164V5.25781Z" fill="#7F7F7F"/>
<path d="M82.5918 11.5625H110.831V13.064H82.5918V11.5625Z" fill="#CCCCCC" stroke="black" stroke-width="0.427046"/>
<path d="M82.5918 11.5641V5.25781" stroke="black" stroke-width="0.427046"/>
<path d="M84.1094 12.3125H109.312" stroke="#7F7F7F" stroke-width="0.427046"/>
<path d="M12.4495 19.2171L12.1458 11.5594H9.10938V8.40625H10.6276V9.90775H17.0041V8.40625H18.5223V11.5594H15.4859V19.2171H12.4495Z" fill="#7F7F7F" stroke="black" stroke-width="0.427046"/>
<path d="M84.11 19.2171L84.4136 11.5594H87.4501V8.40625H85.9318V9.90775H79.5553V8.40625H78.0371V11.5594H81.3772L81.0735 19.2171H84.11Z" fill="#7F7F7F" stroke="black" stroke-width="0.427046"/>
<path d="M17.0032 19.9718V16.9688L13.9668 17.7195V19.221L17.0032 19.9718Z" fill="#999999" stroke="black" stroke-width="0.427046"/>
<path d="M79.5547 19.9718V16.9688L82.5911 17.7195V19.221L79.5547 19.9718Z" fill="#999999" stroke="black" stroke-width="0.427046"/>
<path d="M107.794 3.75225L101.418 1.5L104.758 5.25375L107.794 3.75225Z" fill="#CCCCCC"/>
<path d="M117.206 16.0639V8.40625H107.793V9.90775H112.348V16.0639H117.206Z" fill="#666666" stroke="black" stroke-width="0.427046"/>
</svg>
