<svg width="150" height="150" viewBox="0 0 150 150" fill="none" xmlns="http://www.w3.org/2000/svg">
<g clip-path="url(#clip0_2122_166349)">
<path d="M11.5625 134.969H150.001V138.04H11.5625V134.969Z" fill="#7F7F00" stroke="black" stroke-width="0.311576"/>
<path d="M11.5625 94.7188H150.001V98.1131H11.5625V94.7188Z" fill="#7F7F00" stroke="black" stroke-width="0.311576"/>
<path d="M11.8611 52.6969L13.9632 51.2422L4.35357 143.537L1.95117 146.447L11.8611 52.6969Z" fill="#7F7F00" stroke="black" stroke-width="0.311576"/>
<path d="M146.246 47.1953H150V138.036H146.246V47.1953Z" fill="#7F7F00" stroke="black" stroke-width="0.311576"/>
<path d="M134.234 61.7476H137.988L150 50.7562V47.5234L134.234 61.7476Z" fill="#7F7F00" stroke="black" stroke-width="0.311576"/>
<path d="M134.234 149.03H137.988L150 138.039H146.246L134.234 149.03Z" fill="#7F7F00" stroke="black" stroke-width="0.311576"/>
<path d="M93.0938 149.03H96.8475L108.709 138.039H105.106L93.0938 149.03Z" fill="#7F7F00" stroke="black" stroke-width="0.311576"/>
<path d="M42.1914 149.03H45.795L57.807 138.039H54.0533L42.1914 149.03Z" fill="#7F7F00" stroke="black" stroke-width="0.311576"/>
<path d="M0 149.03H3.6036L15.6156 138.039H11.8619L0 149.03Z" fill="#7F7F00" stroke="black" stroke-width="0.311576"/>
<path d="M105.105 47.1953H108.709V138.036H105.105V47.1953Z" fill="#7F7F00" stroke="black" stroke-width="0.311576"/>
<path d="M53.6035 47.1953H57.3573V138.036H53.6035V47.1953Z" fill="#7F7F00" stroke="black" stroke-width="0.311576"/>
<path d="M11.8613 47.1953H15.1646V138.036H11.8613V47.1953Z" fill="#7F7F00" stroke="black" stroke-width="0.311576"/>
<path d="M0 58.5148H3.6036L15.6156 47.5234H11.8619L0 58.5148Z" fill="#7F7F00" stroke="black" stroke-width="0.311576"/>
<path d="M93.0938 58.5148H96.8475L108.709 47.5234H105.106L93.0938 58.5148Z" fill="#7F7F00" stroke="black" stroke-width="0.311576"/>
<path d="M42.1914 58.5148H45.795L57.807 47.5234H54.0533L42.1914 58.5148Z" fill="#7F7F00" stroke="black" stroke-width="0.311576"/>
<path d="M96.2472 134.964H69.07L45.7967 119.285L32.2832 91.8066V60.2872L45.7967 33.2936L69.07 17.4531H95.9469L119.37 33.2936L132.884 60.2872L132.584 91.8066L119.37 119.285L96.2472 134.964Z" fill="black" stroke="black" stroke-width="0.311576"/>
<path d="M91.441 138.362H64.5641L41.1407 122.683L27.7773 95.5283V64.0089L41.1407 36.5304L64.5641 20.8516H91.441L114.564 36.5304L128.228 64.0089V95.5283L114.564 122.683L91.441 138.362Z" fill="#7F7F7F" stroke="black" stroke-width="0.311576"/>
<path d="M98.9492 73.0625L128.228 95.5302" stroke="black" stroke-width="0.311576"/>
<path d="M93.543 61.7422L128.228 64.0051" stroke="black" stroke-width="0.311576"/>
<path d="M72.373 55.2775L91.4421 21.1719" stroke="black" stroke-width="0.311576"/>
<path d="M62.4629 61.743L64.565 21.1719" stroke="black" stroke-width="0.311576"/>
<path d="M93.5435 97.7891L91.4414 138.36" stroke="black" stroke-width="0.311576"/>
<path d="M83.6328 55.2813L114.564 36.5312" stroke="black" stroke-width="0.311576"/>
<path d="M98.9492 86.3125L114.865 122.681" stroke="black" stroke-width="0.311576"/>
<path d="M87.6871 143.532H60.8102L37.3868 127.691L24.0234 100.698V69.1783L37.3868 41.6999L60.8102 25.8594H87.6871L110.81 41.6999L124.474 69.1783V100.698L111.111 127.691L87.6871 143.532Z" fill="#7F7F7F" stroke="black" stroke-width="0.311576"/>
<path d="M95.1953 78.2344L124.475 100.702" stroke="black" stroke-width="0.311576"/>
<path d="M89.7891 66.9219L124.474 69.1848" stroke="black" stroke-width="0.311576"/>
<path d="M68.6191 60.2877L87.6882 26.3438" stroke="black" stroke-width="0.311576"/>
<path d="M58.709 66.9149L60.8111 26.3438" stroke="black" stroke-width="0.311576"/>
<path d="M89.7896 102.805L87.6875 143.861" stroke="black" stroke-width="0.311576"/>
<path d="M79.8789 60.2885L110.81 42.0234" stroke="black" stroke-width="0.311576"/>
<path d="M95.1953 91.4844L111.111 127.691" stroke="black" stroke-width="0.311576"/>
<path d="M87.9879 100.217H77.1771L67.5675 93.7519L62.1621 82.5989V69.8295L67.5675 58.5148L77.1771 52.2109H87.9879L97.5975 58.5148L103.003 69.8295V82.5989L97.5975 93.7519L87.9879 100.217Z" stroke="black" stroke-width="0.311576"/>
<path d="M84.234 102.48H73.4232L63.9638 96.1762L58.4082 84.8615V72.0921L63.9638 61.1008L73.4232 54.7969H84.234L93.8436 61.1008L99.249 72.0921V84.8615L93.8436 96.1762L84.234 102.48Z" stroke="black" stroke-width="0.311576"/>
<path d="M80.1793 105.066H69.3685L59.7589 98.7621L54.3535 87.4475V74.6781L59.7589 63.6867L69.3685 57.3828H80.1793L89.789 63.6867L95.1944 74.6781V87.4475L89.789 98.7621L80.1793 105.066Z" stroke="black" stroke-width="0.311576"/>
<path fill-rule="evenodd" clip-rule="evenodd" d="M75.3756 115.572H63.9642L54.0543 108.622L48.1985 97.3071V83.7295L54.0543 72.0916L63.9642 65.4644H75.3756L85.2855 72.0916L91.1414 83.7295V97.3071L85.2855 108.622L75.3756 115.572ZM83.3336 149.355H56.4567L32.8831 133.676L19.6699 106.036V74.6778L32.8831 47.5226L56.4567 31.8438H83.3336L106.457 47.5226L119.97 74.6778V106.036L106.457 133.676L83.3336 149.355Z" fill="#F0F0F0"/>
<path d="M75.3744 115.569H63.963L54.0531 108.618L48.1973 97.3036V83.726L54.0531 72.0881L63.963 65.4609H75.3744L85.2844 72.0881L91.1402 83.726V97.3036L85.2844 108.618L75.3744 115.569Z" stroke="black" stroke-width="0.311576"/>
<path d="M83.3336 149.355H56.4567L32.8831 133.676L19.6699 106.036V74.6778L32.8831 47.5226L56.4567 31.8438H83.3336L106.457 47.5226L119.97 74.6778V106.036L106.457 133.676L83.3336 149.355Z" stroke="black" stroke-width="0.311576"/>
<path fill-rule="evenodd" clip-rule="evenodd" d="M75.3756 115.572H63.9642L54.0543 108.622L48.1985 97.3071V83.7295L54.0543 72.0916L63.9642 65.4644H75.3756L85.2855 72.0916L91.1414 83.7295V97.3071L85.2855 108.622L75.3756 115.572ZM83.3336 149.355H56.4567L32.8831 133.676L19.6699 106.036V74.6778L32.8831 47.5226L56.4567 31.8438H83.3336L106.457 47.5226L119.97 74.6778V106.036L106.457 133.676L83.3336 149.355Z" fill="#F0F0F0"/>
<path d="M75.3744 115.569H63.963L54.0531 108.618L48.1973 97.3036V83.726L54.0531 72.0881L63.963 65.4609H75.3744L85.2844 72.0881L91.1402 83.726V97.3036L85.2844 108.618L75.3744 115.569Z" stroke="black" stroke-width="0.311576"/>
<path d="M83.3336 149.355H56.4567L32.8831 133.676L19.6699 106.036V74.6778L32.8831 47.5226L56.4567 31.8438H83.3336L106.457 47.5226L119.97 74.6778V106.036L106.457 133.676L83.3336 149.355Z" stroke="black" stroke-width="0.311576"/>
<path d="M48.9492 97.306L19.6699 75" stroke="black" stroke-width="0.311576"/>
<path d="M90.8418 84.2109L119.971 106.032" stroke="black" stroke-width="0.311576"/>
<path d="M54.3546 108.617L19.6699 106.516" stroke="black" stroke-width="0.311576"/>
<path d="M85.2852 72.7344L119.97 74.674" stroke="black" stroke-width="0.311576"/>
<path d="M64.2637 65.7877L83.3327 31.8438" stroke="black" stroke-width="0.311576"/>
<path d="M75.376 115.25L56.457 149.356" stroke="black" stroke-width="0.311576"/>
<path d="M54.3535 72.4149L56.4556 31.8438" stroke="black" stroke-width="0.311576"/>
<path d="M85.2859 108.617L83.334 149.35" stroke="black" stroke-width="0.311576"/>
<path d="M64.2649 115.25L33.334 133.677" stroke="black" stroke-width="0.311576"/>
<path d="M75.375 65.7885L106.456 47.5234" stroke="black" stroke-width="0.311576"/>
<path d="M48.9489 84.2123L32.8828 47.8438" stroke="black" stroke-width="0.311576"/>
<path d="M90.8418 97.3047L106.758 133.673" stroke="black" stroke-width="0.311576"/>
<path d="M48.948 98.1145L18.918 77.1016" stroke="black" stroke-width="0.311576"/>
<path d="M90.8418 83.0781L120.722 104.253" stroke="black" stroke-width="0.311576"/>
<path d="M55.1044 109.425L20.2695 108.617" stroke="black" stroke-width="0.311576"/>
<path d="M84.6855 72.0938L119.37 72.7403" stroke="black" stroke-width="0.311576"/>
<path d="M63.2129 66.2732L80.9306 31.3594" stroke="black" stroke-width="0.311576"/>
<path d="M76.1259 114.922L58.4082 149.997" stroke="black" stroke-width="0.311576"/>
<path d="M53.6035 73.0633L54.054 32.4922" stroke="black" stroke-width="0.311576"/>
<path d="M86.0359 107.977L85.2852 148.548" stroke="black" stroke-width="0.311576"/>
<path d="M64.8657 115.57L34.6855 134.967" stroke="black" stroke-width="0.311576"/>
<path d="M74.4746 65.7901L104.655 46.0703" stroke="black" stroke-width="0.311576"/>
<path d="M48.4982 84.8572L31.5312 49.2969" stroke="black" stroke-width="0.311576"/>
<path d="M91.1406 96.1719L108.108 132.217" stroke="black" stroke-width="0.311576"/>
<path d="M0 58.5156H3.6036V149.033H0V58.5156Z" fill="#BFBF00" stroke="black" stroke-width="0.311576"/>
<path d="M147.898 52.6969L150 51.2422L140.39 143.537L137.688 146.447L147.898 52.6969Z" fill="#7F7F00" stroke="black" stroke-width="0.311576"/>
<path d="M134.234 58.5156H137.988V149.033H134.234V58.5156Z" fill="#BFBF00" stroke="black" stroke-width="0.311576"/>
<path d="M93.543 58.5156H96.8463V149.033H93.543V58.5156Z" fill="#BFBF00" stroke="black" stroke-width="0.311576"/>
<path d="M42.4922 58.5156H46.2459V149.033H42.4922V58.5156Z" fill="#BFBF00" stroke="black" stroke-width="0.311576"/>
<path d="M0 58.5156H137.988V61.4251H0V58.5156Z" fill="#BFBF00" stroke="black" stroke-width="0.311576"/>
<path d="M45.7949 64.8203H93.5427V68.0531H45.7949V64.8203Z" fill="#BFBF00" stroke="black" stroke-width="0.311576"/>
<path d="M45.7949 115.57H93.5427V118.641H45.7949V115.57Z" fill="#BFBF00" stroke="black" stroke-width="0.311576"/>
<path d="M0 58.5137H137.988L116.967 29.2573L69.0691 10.9922L21.6216 29.2573L0 58.5137Z" fill="#BFBF00" stroke="black" stroke-width="0.311576"/>
<path d="M0 146.445H137.988V149.355H0V146.445Z" fill="#BFBF00" stroke="black" stroke-width="0.311576"/>
<path d="M80.48 0L33.3328 17.7802L21.6211 29.2565L69.0685 10.9914L80.48 0Z" fill="#BFBF00" stroke="black" stroke-width="0.311576"/>
<path d="M80.4798 0L128.828 18.2651L117.267 29.2565L69.0684 10.9914L80.4798 0Z" fill="#7F7F00" stroke="black" stroke-width="0.311576"/>
<path d="M128.829 18.2656L150 47.5221L138.439 58.5135L117.268 29.5803L128.829 18.2656Z" fill="#7F7F00" stroke="black" stroke-width="0.311576"/>
<path d="M92.792 83.0781H51.9512V95.8475L57.3566 106.839L66.9662 113.466L68.3175 118.638L87.3866 106.839L92.792 95.8475V83.0781Z" fill="black" stroke="black" stroke-width="0.311576"/>
<path d="M83.333 88.2578H42.4922V101.027L47.8976 112.019L57.3571 118.646H68.318L77.7775 112.665L83.333 101.027V88.2578Z" fill="#CCCCCC" stroke="black" stroke-width="0.311576"/>
<path d="M77.7773 112.658L83.3329 101.02V88.2505L92.7924 83.0781V95.8475L87.387 106.839L77.7773 112.658Z" fill="#B2B2B2" stroke="black" stroke-width="0.311576"/>
<path d="M51.6509 83.0781L42.1914 88.2505H51.6509V83.0781Z" fill="#4C4C4C" stroke="black" stroke-width="0.311576"/>
<path d="M43.0938 37.3359H98.9496V54.1463H43.0938V37.3359Z" fill="#7F7F00" stroke="black" stroke-width="0.311576"/>
<path d="M42.4922 37.9844H98.1979V55.2796H42.4922V37.9844Z" fill="#BFBF00" stroke="black" stroke-width="0.311576"/>
<path d="M43.3936 53.8281H43.844V54.1514V54.4747H43.3936H43.0933L42.793 54.1514L43.0933 53.8281H43.3936Z" stroke="black" stroke-width="0.311576"/>
<path d="M43.3941 53.3438L43.8445 53.8287V54.1519V54.4752H43.3941H43.0938V54.1519V53.8287L43.3941 53.3438Z" stroke="black" stroke-width="0.311576"/>
<path d="M43.3936 38.7969L43.844 39.1202V39.4434L43.3936 39.9283L43.0933 39.4434H42.793L43.0933 39.1202L43.3936 38.7969Z" stroke="black" stroke-width="0.311576"/>
<path d="M43.3941 38.7969L43.8445 39.1202V39.4434L43.3941 39.9283L43.0938 39.4434V39.1202L43.3941 38.7969Z" stroke="black" stroke-width="0.311576"/>
<path d="M96.8467 53.8281H97.147V54.1514V54.4747H96.8467H96.5464L96.2461 54.1514L96.5464 53.8281H96.8467Z" stroke="black" stroke-width="0.311576"/>
<path d="M96.8472 53.3438L97.1475 53.8287V54.1519V54.4752H96.8472H96.5469V54.1519V53.8287L96.8472 53.3438Z" stroke="black" stroke-width="0.311576"/>
<path d="M96.8467 38.7969L97.147 39.1202V39.4434L96.8467 39.9283L96.5464 39.4434H96.2461L96.5464 39.1202L96.8467 38.7969Z" stroke="black" stroke-width="0.311576"/>
<path d="M96.8472 38.7969L97.1475 39.1202V39.4434L96.8472 39.9283L96.5469 39.4434V39.1202L96.8472 38.7969Z" stroke="black" stroke-width="0.311576"/>
</g>
<defs>
<clipPath id="clip0_2122_166349">
<rect width="150" height="150" fill="white"/>
</clipPath>
</defs>
</svg>
