<svg width="150" height="150" viewBox="0 0 150 150" fill="none" xmlns="http://www.w3.org/2000/svg">
<g clip-path="url(#clip0_2122_167379)">
<path d="M100.602 44.4922H109.31V52.758H100.602V44.4922Z" fill="#82E082"/>
<path d="M100.6 42.3047H97.1465V54.7034H100.6V42.3047Z" fill="#82E082"/>
<path d="M100.602 44.4922H109.31V52.758H100.602V44.4922Z" stroke="black" stroke-width="0.382117"/>
<path d="M100.6 42.3047H97.1465V54.7034H100.6V42.3047Z" stroke="black" stroke-width="0.382117"/>
<path d="M5.70508 49.5938H38.2877V102.349H5.70508V49.5938Z" fill="#82E082" stroke="black" stroke-width="0.382117"/>
<path d="M41.1406 67.1016H67.7172V150.003H41.1406V67.1016Z" fill="#82E082" stroke="black" stroke-width="0.382117"/>
<path d="M43.9941 71.9609H64.865V95.0566H43.9941V71.9609Z" fill="#43A143" stroke="black" stroke-width="0.382117"/>
<path d="M120.871 67.1016H147.748V150.003H120.871V67.1016Z" fill="#F0F0F0" stroke="black" stroke-width="0.382117"/>
<path d="M70.5703 67.1016H119.219V126.664L97.7475 137.604H91.4412L70.5703 126.664V67.1016Z" fill="#F0F0F0"/>
<path d="M91.4414 137.602H97.7477V149.514H91.4414V137.602Z" fill="#F0F0F0" stroke="black" stroke-width="0.382117"/>
<path d="M78.5283 130.797V67.1016H70.5703V126.664L78.5283 130.797Z" fill="#CCCCCC"/>
<path d="M116.967 67.1016V127.88L119.219 126.664V67.1016H116.967Z" fill="#CCCCCC"/>
<path d="M70.5703 67.1016H119.219V126.664L97.7475 137.604H91.4412L70.5703 126.664V67.1016Z" stroke="black" stroke-width="0.382117"/>
<path d="M0.601562 135.656H40.8418V140.762H0.601562V135.656Z" fill="#F0F0F0" stroke="black" stroke-width="0.382117"/>
<path d="M77.3281 54.2109H117.268V59.3163H77.3281V54.2109Z" fill="#F0F0F0" stroke="black" stroke-width="0.382117"/>
<path d="M65.7656 5.10535H67.7176V0H65.7656V5.10535Z" fill="#F0F0F0" stroke="black" stroke-width="0.382117"/>
<path d="M126.275 5.10535H128.528V0H126.275V5.10535Z" fill="#F0F0F0" stroke="black" stroke-width="0.382117"/>
<path d="M59.459 65.6404V10.2109H62.6121V65.6404H59.459Z" fill="#F0F0F0" stroke="black" stroke-width="0.382117"/>
<path d="M131.682 65.6404V10.2109H134.835V65.6404H131.682Z" fill="#F0F0F0" stroke="black" stroke-width="0.382117"/>
<path d="M70.8711 49.1088V10.2109H74.1744V49.1088H70.8711Z" fill="#F0F0F0" stroke="black" stroke-width="0.382117"/>
<path d="M119.82 49.1088V10.2109H123.124V49.1088H119.82Z" fill="#F0F0F0" stroke="black" stroke-width="0.382117"/>
<path d="M58.1074 65.6406V67.0993H63.9633V65.6406H58.1074Z" fill="#F0F0F0" stroke="black" stroke-width="0.382117"/>
<path d="M130.48 65.6406V67.0993H136.186V65.6406H130.48Z" fill="#F0F0F0" stroke="black" stroke-width="0.382117"/>
<path d="M74.1744 49.1094V50.0818V51.7836L74.775 53.2423L75.3756 53.7285L76.7269 54.2147H77.3276V59.3201H75.3756H74.4747L72.823 58.3476L72.2224 57.3752L71.6218 56.4027L70.8711 53.2423V52.2698V49.1094H74.1744Z" fill="#F0F0F0"/>
<path d="M59.459 10.2107H62.6121V9.23825V7.53647L63.2127 6.56402L63.9635 5.59157L65.1647 5.10535H65.7653V0H63.9635H62.9124L61.2608 0.972447L60.3599 1.94489L60.0596 3.40357L59.459 6.0778V7.53647V10.2107Z" fill="#F0F0F0"/>
<path d="M119.82 10.2107H123.124V9.23825L123.424 7.53647L123.724 6.56402L124.625 5.59157L125.976 5.10535H126.577V0H124.325H123.724L121.772 0.972447L121.172 1.94489L120.571 3.40357L120.121 6.0778L119.82 7.53647V10.2107Z" fill="#F0F0F0"/>
<path d="M123.122 49.1094H119.819V50.0818V51.7836L119.219 53.2423L118.618 53.7285L117.267 54.2147H116.666V59.3201H118.918H119.519L121.171 58.3476L122.071 57.3752L122.672 56.4027L123.122 53.2423V52.2698V49.1094Z" fill="#F0F0F0"/>
<path d="M74.1733 10.2107H70.87V9.23825V7.53647L70.5696 6.56402L69.6687 5.59157L68.3174 5.10535H67.7168V0H69.969H70.5696L72.2213 0.972447L73.1222 1.94489L73.873 3.40357L74.1733 6.0778V7.53647V10.2107Z" fill="#F0F0F0"/>
<path d="M134.836 10.2107H131.682V9.23825V7.53647L131.082 6.56402L130.481 5.59157L129.13 5.10535H128.529V0H130.481H131.082L133.034 0.972447L133.634 1.94489L134.235 3.40357L134.836 6.0778V7.53647V10.2107Z" fill="#F0F0F0"/>
<path d="M70.8711 49.1094H74.1744V50.0818V51.7836L74.775 53.2423L75.3756 53.7285L76.7269 54.2147H77.3276V59.3201H75.3756H74.4747L72.823 58.3476L72.2224 57.3752L71.6218 56.4027L70.8711 53.2423V52.2698V49.1094Z" stroke="black" stroke-width="0.382117"/>
<path d="M59.459 10.2107H62.6121V9.23825V7.53647L63.2127 6.56402L63.9635 5.59157L65.1647 5.10535H65.7653V0H63.9635H62.9124L61.2608 0.972447L60.3599 1.94489L60.0596 3.40357L59.459 6.0778V7.53647V10.2107Z" stroke="black" stroke-width="0.382117"/>
<path d="M119.82 10.2107H123.124V9.23825L123.424 7.53647L123.724 6.56402L124.625 5.59157L125.976 5.10535H126.577V0H124.325H123.724L121.772 0.972447L121.172 1.94489L120.571 3.40357L120.121 6.0778L119.82 7.53647V10.2107Z" stroke="black" stroke-width="0.382117"/>
<path d="M123.122 49.1094H119.819V50.0818V51.7836L119.219 53.2423L118.618 53.7285L117.267 54.2147H116.666V59.3201H118.918H119.519L121.171 58.3476L122.071 57.3752L122.672 56.4027L123.122 53.2423V52.2698V49.1094Z" stroke="black" stroke-width="0.382117"/>
<path d="M74.1733 10.2107H70.87V9.23825V7.53647L70.5696 6.56402L69.6687 5.59157L68.3174 5.10535H67.7168V0H69.969H70.5696L72.2213 0.972447L73.1222 1.94489L73.873 3.40357L74.1733 6.0778V7.53647V10.2107Z" stroke="black" stroke-width="0.382117"/>
<path d="M134.836 10.2107H131.682V9.23825V7.53647L131.082 6.56402L130.481 5.59157L129.13 5.10535H128.529V0H130.481H131.082L133.034 0.972447L133.634 1.94489L134.235 3.40357L134.836 6.0778V7.53647V10.2107Z" stroke="black" stroke-width="0.382117"/>
<path d="M30.93 102.352V135.658H28.6777V102.352H30.93Z" fill="#F0F0F0" stroke="black" stroke-width="0.382117"/>
<path d="M14.5655 102.352V135.658H12.7637V102.352H14.5655Z" fill="#F0F0F0" stroke="black" stroke-width="0.382117"/>
<path d="M0.600601 133.469H0V142.707H0.600601V133.469Z" fill="#F0F0F0" stroke="black" stroke-width="0.382117"/>
<path d="M55.2562 22.125L57.2081 23.0974L57.8087 25.7717L57.2081 28.4459L55.2562 29.9046L53.6045 28.4459L53.0039 25.7717L53.6045 23.0974L55.2562 22.125Z" fill="#43A143" stroke="black" stroke-width="0.382117"/>
<path d="M127.477 22.125L129.429 23.0974L130.029 25.7717L129.429 28.4459L127.477 29.9046L125.975 28.4459L125.225 25.7717L125.975 23.0974L127.477 22.125Z" fill="#43A143" stroke="black" stroke-width="0.382117"/>
<path d="M57.5078 32.089V18.9609H64.5649V32.089H57.5078Z" fill="#82E082" stroke="black" stroke-width="0.382117"/>
<path d="M129.73 32.089V18.9609H136.788V32.089H129.73Z" fill="#82E082" stroke="black" stroke-width="0.382117"/>
<path d="M96.2471 105.508L98.0489 106.48L98.7997 109.641L98.0489 112.801L96.2471 114.26L94.2952 112.801L93.2441 109.641L94.2952 106.48L96.2471 105.508Z" fill="#F0F0F0" stroke="black" stroke-width="0.382117"/>
<path d="M99.6992 116.938H148.948V121.07H99.6992V116.938Z" fill="#F0F0F0" stroke="black" stroke-width="0.382117"/>
<path d="M150 114.75H148.949V123.016H150V114.75Z" fill="#F0F0F0" stroke="black" stroke-width="0.382117"/>
<path d="M94.8945 113.287V109.641H97.1468V113.287H94.8945Z" fill="#F0F0F0" stroke="black" stroke-width="0.382117"/>
<path d="M127.478 115.481V116.94H125.976V115.481L124.625 114.266H128.829L127.478 115.481Z" fill="#F0F0F0" stroke="black" stroke-width="0.382117"/>
<path d="M97.1468 113.289V113.775L97.4471 115.477L97.7474 115.963L98.4981 116.936H99.0987H99.6993V121.069H98.0477H97.7474L96.2459 120.096L95.9456 119.61L95.1948 118.394L94.8945 116.45V115.477V113.289H97.1468Z" fill="#F0F0F0"/>
<path d="M94.8945 113.289H97.1468V113.775L97.4471 115.477L97.7474 115.963L98.4981 116.936H99.0987H99.6993V121.069H98.0477H97.7474L96.2459 120.096L95.9456 119.61L95.1948 118.394L94.8945 116.45V115.477V113.289Z" stroke="black" stroke-width="0.382117"/>
<path d="M95.9456 109.646C96.5261 109.646 96.9966 109.32 96.9966 108.917C96.9966 108.514 96.5261 108.188 95.9456 108.188C95.3651 108.188 94.8945 108.514 94.8945 108.917C94.8945 109.32 95.3651 109.646 95.9456 109.646Z" fill="#E5E5E5" stroke="black" stroke-width="0.382117"/>
<path d="M7.6582 74.875H8.5591V80.2235H7.6582V74.875Z" fill="#F0F0F0" stroke="black" stroke-width="0.382117"/>
</g>
<defs>
<clipPath id="clip0_2122_167379">
<rect width="150" height="150" fill="white"/>
</clipPath>
</defs>
</svg>
