<svg width="150" height="150" viewBox="0 0 150 150" fill="none" xmlns="http://www.w3.org/2000/svg">
<g clip-path="url(#clip0_2122_163223)">
<path d="M75.0751 4.92188L117.868 6.91983L150 12.6063L117.868 17.0633L75.0751 19.2149L30.03 17.0633L0 12.6063L30.03 6.91983L75.0751 4.92188Z" fill="black" stroke="black" stroke-width="0.303818"/>
<path d="M30.0292 147.54L1.95117 142.161V12.6016L30.0292 17.827V147.54Z" fill="#E5E5E5" stroke="black" stroke-width="0.303818"/>
<path d="M30.0293 147.541L75.0743 149.539V19.8261L30.0293 17.8281V147.541Z" fill="#F0F0F0" stroke="black" stroke-width="0.303818"/>
<path d="M117.867 147.541L75.0742 149.539V19.8261L117.867 17.8281V147.541Z" fill="#E0E0E0" stroke="black" stroke-width="0.303818"/>
<path d="M117.867 147.54L148.198 142.161V12.6016L117.867 17.827V147.54Z" fill="#CCCCCC" stroke="black" stroke-width="0.303818"/>
<path d="M75.0743 5.53125L117.867 7.68289L148.197 12.6009L117.867 17.8263L75.0743 19.8243L30.0292 17.8263L1.95117 12.6009L30.0292 7.68289L75.0743 5.53125Z" fill="#B2B2B2" stroke="black" stroke-width="0.303818"/>
<path d="M129.429 15.6743L39.6389 6.91406L30.0292 7.68251L1.95117 12.6005L30.0292 17.8259L75.0743 19.8239L117.867 17.8259L129.429 15.6743Z" fill="#7F7F7F"/>
<path d="M71.0214 0.617188L2.70312 13.527" stroke="black" stroke-width="0.303818"/>
<path d="M78.5293 0.617188L147.448 13.527" stroke="black" stroke-width="0.303818"/>
<path d="M0.300781 12.1406H150L148.199 14.2923H1.95243L0.300781 12.1406Z" fill="#669999" stroke="black" stroke-width="0.303818"/>
<path d="M15.0156 19.2109V57.3257" stroke="black" stroke-width="0.303818"/>
<path d="M96.2461 23.0547V61.1694" stroke="black" stroke-width="0.303818"/>
<path d="M51.8027 61.4766V104.817" stroke="black" stroke-width="0.303818"/>
<path d="M95.3457 105.125V147.85" stroke="black" stroke-width="0.303818"/>
<path d="M15.0156 101.281V144.314" stroke="black" stroke-width="0.303818"/>
<path d="M148.199 142.625L117.869 147.851L75.0758 150.002L29.7304 147.851L1.65234 142.933V141.242L29.7304 146.468L75.0758 148.466L117.869 146.468L148.199 141.242V142.625Z" fill="#7F7F7F"/>
<path d="M148.199 99.589L117.869 104.507L75.0758 106.659L29.7304 104.507L1.65234 99.589V97.8984L29.7304 103.124L75.0758 105.122L117.869 103.124L148.199 97.8984V99.589Z" fill="#7F7F7F"/>
<path d="M148.199 55.7894L117.869 61.1685L75.0758 63.1665L29.7304 61.1685L1.65234 56.2505V54.4062L29.7304 59.3243L75.0758 61.4759L117.869 59.3243L148.199 54.4062V55.7894Z" fill="#7F7F7F"/>
<path d="M148.199 17.3703L117.869 22.2883L75.0758 24.4399L29.7304 22.2883L1.65234 17.3703V15.6797L29.7304 20.9051L75.0758 23.0567L117.869 20.9051L148.199 15.6797V17.3703Z" fill="#7F7F7F"/>
<path d="M150 15.9828L118.919 20.9009L75.0751 23.3599L28.6787 20.9009L0 15.9828V12.1406L28.6787 17.366L75.0751 19.5177L118.919 17.366L150 12.1406V15.9828Z" fill="#669999" stroke="black" stroke-width="0.303818"/>
<path d="M130.48 17.3672V18.1356L126.727 18.9041V18.1356L130.48 17.3672Z" fill="black"/>
<path d="M135.586 59.3203V60.0888L131.832 60.7035V60.0888L135.586 59.3203Z" fill="black"/>
<path d="M140.39 102.047V102.815L136.637 103.123V102.354L140.39 102.047Z" fill="black"/>
<path d="M135.886 57.3281V57.9429L126.727 59.6335V59.0187L135.886 57.3281Z" fill="black"/>
<path d="M140.69 99.5938V100.362L131.531 102.053V101.284L140.69 99.5938Z" fill="black"/>
<path d="M130.48 20.5938V21.2085L126.727 21.9769V21.2085L130.48 20.5938Z" fill="black"/>
<path d="M135.586 62.5547V63.1694L131.832 63.9379V63.1694L135.586 62.5547Z" fill="black"/>
<path d="M140.39 105.125V105.893L136.637 106.662V105.893L140.39 105.125Z" fill="black"/>
<path d="M130.48 23.6719V24.4403L126.727 25.0551V24.4403L130.48 23.6719Z" fill="black"/>
<path d="M135.586 65.625V66.7008L131.832 67.0082V66.3934L135.586 65.625Z" fill="black"/>
<path d="M140.39 108.352V108.966L136.637 109.735V108.966L140.39 108.352Z" fill="black"/>
<path d="M130.48 26.8984V27.5132L126.727 28.2816V27.5132L130.48 26.8984Z" fill="black"/>
<path d="M135.586 69.1562V69.771L131.832 70.5394V69.4636L135.586 69.1562Z" fill="black"/>
<path d="M140.39 111.422V112.19L136.637 112.805V112.19L140.39 111.422Z" fill="black"/>
<path d="M130.48 29.9688V30.7372L126.727 31.3519V30.7372L130.48 29.9688Z" fill="black"/>
<path d="M135.586 72.2344V73.0028L131.832 73.7713V73.0028L135.586 72.2344Z" fill="black"/>
<path d="M140.39 114.648V115.263L136.637 116.032V115.263L140.39 114.648Z" fill="black"/>
<path d="M130.48 33.1953V33.8101L126.727 34.5785V33.8101L130.48 33.1953Z" fill="black"/>
<path d="M135.586 75.4609V76.2294L131.832 76.8441V76.2294L135.586 75.4609Z" fill="black"/>
<path d="M140.39 117.727V118.495L136.637 119.11V118.495L140.39 117.727Z" fill="black"/>
<path d="M130.48 36.2734V37.0419L126.727 37.6566V37.0419L130.48 36.2734Z" fill="black"/>
<path d="M135.586 78.6875V79.3023L131.832 80.0707V79.3023L135.586 78.6875Z" fill="black"/>
<path d="M140.39 120.953V121.568L136.637 122.336V121.568L140.39 120.953Z" fill="black"/>
<path d="M130.48 39.5V40.1148L126.727 40.8832V40.1148L130.48 39.5Z" fill="black"/>
<path d="M135.586 81.7656V82.5341L131.832 83.1488V82.5341L135.586 81.7656Z" fill="black"/>
<path d="M140.39 124.023V124.792L136.637 125.407V124.792L140.39 124.023Z" fill="black"/>
<path d="M130.48 42.5703V43.6461L126.727 43.9535V43.3388L130.48 42.5703Z" fill="black"/>
<path d="M135.586 84.9922V85.6069L131.832 86.3754V85.6069L135.586 84.9922Z" fill="black"/>
<path d="M140.39 127.258V127.873L136.637 128.641V127.873L140.39 127.258Z" fill="black"/>
<path d="M130.48 46.1094V46.7241L126.727 47.4926V46.4168L130.48 46.1094Z" fill="black"/>
<path d="M135.586 88.0625V88.8309L131.832 89.4457V88.8309L135.586 88.0625Z" fill="black"/>
<path d="M140.39 130.328V131.404L136.637 131.711V131.097L140.39 130.328Z" fill="black"/>
<path d="M130.48 49.1797V49.9481L126.727 50.5629V49.9481L130.48 49.1797Z" fill="black"/>
<path d="M135.586 91.2891V91.9038L131.832 92.6723V91.9038L135.586 91.2891Z" fill="black"/>
<path d="M140.39 133.859V134.474L136.637 135.243V134.167L140.39 133.859Z" fill="black"/>
<path d="M130.48 52.4062V53.021L126.727 53.7894V53.021L130.48 52.4062Z" fill="black"/>
<path d="M135.586 94.3672V95.1356L131.832 95.7504V95.1356L135.586 94.3672Z" fill="black"/>
<path d="M140.39 136.938V137.706L136.637 138.321V137.706L140.39 136.938Z" fill="black"/>
<path d="M130.48 55.4844V56.2528L126.727 56.8676V56.2528L130.48 55.4844Z" fill="black"/>
<path d="M135.586 97.8984V98.5132L131.832 98.9743V98.2058L135.586 97.8984Z" fill="black"/>
<path d="M140.39 140.164V140.779L136.637 141.547V140.779L140.39 140.164Z" fill="black"/>
<path d="M126.727 16.4454L127.327 15.9844V59.3245H126.727V16.4454Z" fill="black"/>
<path d="M131.531 58.25H132.132V101.283L131.531 101.744V58.25Z" fill="black"/>
<path d="M136.186 100.971L136.936 100.664V144.004H136.186V100.971Z" fill="black"/>
<path d="M130.18 15.6797H130.78V58.7125H130.18V15.6797Z" fill="black"/>
<path d="M135.285 57.9402L135.886 57.6328V100.973H135.285V57.9402Z" fill="black"/>
<path d="M139.939 100.359H140.69V143.238H139.939V100.359Z" fill="black"/>
<path d="M69.6699 0H80.1804V0.922131H69.6699V0Z" fill="#669999" stroke="black" stroke-width="0.303818"/>
<path d="M70.7207 12.1411H79.5796V0.921875H70.7207V12.1411Z" fill="#669999" stroke="black" stroke-width="0.303818"/>
<path d="M52.2519 145.7C56.9787 145.7 60.8105 141.778 60.8105 136.94C60.8105 132.102 56.9787 128.18 52.2519 128.18C47.5252 128.18 43.6934 132.102 43.6934 136.94C43.6934 141.778 47.5252 145.7 52.2519 145.7Z" fill="#E5E5E5" stroke="black" stroke-width="0.303818"/>
<path d="M52.2526 132.789L54.9553 133.865L56.3066 136.939L54.9553 140.166L52.2526 141.242L49.0994 140.166L47.748 136.939L49.0994 133.865L52.2526 132.789Z" fill="#F0F0F0" stroke="black" stroke-width="0.303818"/>
<path d="M52.2522 129.25L52.8528 129.711V130.326V131.094L52.2522 131.402L51.5015 131.094L51.2012 130.326L51.5015 129.711L52.2522 129.25Z" fill="black" stroke="black" stroke-width="0.303818"/>
<path d="M48.7991 130.328H49.5498L49.8501 131.097L49.5498 131.711L48.7991 132.172L48.0483 131.711L47.748 131.097L48.0483 130.328H48.7991Z" fill="black" stroke="black" stroke-width="0.303818"/>
<path d="M46.3968 132.789H47.1475L47.4478 133.558L47.1475 134.172L46.3968 134.48L45.7962 134.172L45.3457 133.558L45.7962 132.789H46.3968Z" fill="black" stroke="black" stroke-width="0.303818"/>
<path d="M45.3447 136.016L46.0955 136.323L46.3958 136.938L46.0955 137.706L45.3447 138.014L45.0444 137.706L44.7441 136.938L45.0444 136.323L45.3447 136.016Z" fill="black" stroke="black" stroke-width="0.303818"/>
<path d="M46.3968 139.398L47.1475 139.86L47.4478 140.474L47.1475 141.243H46.3968H45.7962L45.3457 140.474L45.7962 139.86L46.3968 139.398Z" fill="black" stroke="black" stroke-width="0.303818"/>
<path d="M48.7991 141.852L49.5498 142.159L49.8501 142.927L49.5498 143.696H48.7991H48.0483L47.748 142.927L48.0483 142.159L48.7991 141.852Z" fill="black" stroke="black" stroke-width="0.303818"/>
<path d="M52.2522 142.625L52.8528 142.932V143.701V144.316L52.2522 144.623L51.5015 144.316L51.2012 143.701L51.5015 142.932L52.2522 142.625Z" fill="black" stroke="black" stroke-width="0.303818"/>
<path d="M55.2561 141.852L56.0069 142.159L56.3072 142.927L56.0069 143.696H55.2561H54.6555L54.2051 142.927L54.6555 142.159L55.2561 141.852Z" fill="black" stroke="black" stroke-width="0.303818"/>
<path d="M57.6572 139.398L58.408 139.86L58.7083 140.474L58.408 141.243H57.6572H57.0566V140.474V139.86L57.6572 139.398Z" fill="black" stroke="black" stroke-width="0.303818"/>
<path d="M58.7093 136.32H59.3099L59.7603 136.935L59.3099 137.704L58.7093 138.011L57.9585 137.704L57.6582 136.935L57.9585 136.32H58.7093Z" fill="black" stroke="black" stroke-width="0.303818"/>
<path d="M57.6572 132.789H58.408L58.7083 133.558L58.408 134.172L57.6572 134.48L57.0566 134.172V133.558V132.789H57.6572Z" fill="black" stroke="black" stroke-width="0.303818"/>
<path d="M55.2561 130.328H56.0069L56.3072 131.097L56.0069 131.711L55.2561 132.172L54.6555 131.711L54.2051 131.097L54.6555 130.328H55.2561Z" fill="black" stroke="black" stroke-width="0.303818"/>
</g>
<defs>
<clipPath id="clip0_2122_163223">
<rect width="150" height="150" fill="white"/>
</clipPath>
</defs>
</svg>
