<svg width="150" height="150" viewBox="0 0 150 150" fill="none" xmlns="http://www.w3.org/2000/svg">
<g clip-path="url(#clip0_2122_166444)">
<path d="M5.85586 100.82L76.7267 146.721L79.7297 150H83.6336L86.6366 146.721L145.646 99.1803L148.048 96.4481L150 89.8907V59.2896L147.297 51.6393L143.994 48.9071L73.1231 3.27869L70.1201 0H66.2162L63.2132 3.27869L4.2042 50.5465L1.8018 53.2787L0 59.2896V89.8907L2.55255 97.541L5.85586 100.82Z" fill="#7F657F"/>
<path d="M144.295 101.365H113.364L109.76 97.5401L107.658 91.5292V58.1959L109.76 52.1849L113.364 48.9062H144.295L147.748 52.1849L150.001 58.1959V91.5292L147.748 97.5401L144.295 101.365Z" fill="black"/>
<path d="M81.6811 150.002C85.9103 150.002 89.3388 143.763 89.3388 136.067C89.3388 128.371 85.9103 122.133 81.6811 122.133C77.4519 122.133 74.0234 128.371 74.0234 136.067C74.0234 143.763 77.4519 150.002 81.6811 150.002Z" fill="black"/>
<path d="M68.1674 27.5954C72.3966 27.5954 75.8251 21.3568 75.8251 13.661C75.8251 5.96522 72.3966 -0.273438 68.1674 -0.273438C63.9382 -0.273438 60.5098 5.96522 60.5098 13.661C60.5098 21.3568 63.9382 27.5954 68.1674 27.5954Z" fill="black"/>
<path d="M9.60961 101.365H5.55556L2.1021 97.5401L0 91.5292V58.1959L2.1021 52.1849L5.55556 48.9062H9.60961L13.0631 52.1849L15.1652 58.1959V91.5292L13.0631 97.5401L9.60961 101.365Z" fill="black"/>
<path d="M15.166 73.5H107.659V76.2322H15.166V73.5Z" fill="black"/>
<path d="M69.8203 0L143.994 48.9071V51.6393L69.8203 3.27869V0Z" fill="black"/>
<path d="M2.55273 51.6404L64.7149 1.36719V4.37265L2.55273 54.9191V51.6404Z" fill="black"/>
<path d="M79.1287 148.359L5.85547 100.818V98.0859L79.1287 145.627V148.359Z" fill="black"/>
<path d="M145.645 99.1776L85.1348 148.358V145.626L145.645 96.4453V99.1776Z" fill="black"/>
<path d="M142.343 74.8636C146.074 74.8636 149.099 69.3589 149.099 62.5685C149.099 55.7781 146.074 50.2734 142.343 50.2734C138.611 50.2734 135.586 55.7781 135.586 62.5685C135.586 69.3589 138.611 74.8636 142.343 74.8636Z" fill="#E5CBE5"/>
<path d="M142.343 99.1839C146.074 99.1839 149.099 93.6792 149.099 86.8888C149.099 80.0984 146.074 74.5938 142.343 74.5938C138.611 74.5938 135.586 80.0984 135.586 86.8888C135.586 93.6792 138.611 99.1839 142.343 99.1839Z" fill="#E5CBE5"/>
<path d="M128.829 99.1839C132.561 99.1839 135.586 93.6792 135.586 86.8888C135.586 80.0984 132.561 74.5938 128.829 74.5938C125.097 74.5938 122.072 80.0984 122.072 86.8888C122.072 93.6792 125.097 99.1839 128.829 99.1839Z" fill="#E5CBE5"/>
<path d="M128.829 74.8636C132.561 74.8636 135.586 69.3589 135.586 62.5685C135.586 55.7781 132.561 50.2734 128.829 50.2734C125.097 50.2734 122.072 55.7781 122.072 62.5685C122.072 69.3589 125.097 74.8636 128.829 74.8636Z" fill="#E5CBE5"/>
<path d="M115.315 74.8636C119.047 74.8636 122.072 69.3589 122.072 62.5685C122.072 55.7781 119.047 50.2734 115.315 50.2734C111.584 50.2734 108.559 55.7781 108.559 62.5685C108.559 69.3589 111.584 74.8636 115.315 74.8636Z" fill="#E5CBE5"/>
<path d="M115.315 99.1839C119.047 99.1839 122.072 93.6792 122.072 86.8888C122.072 80.0984 119.047 74.5938 115.315 74.5938C111.584 74.5938 108.559 80.0984 108.559 86.8888C108.559 93.6792 111.584 99.1839 115.315 99.1839Z" fill="#E5CBE5"/>
<path d="M81.6825 148.364C85.4142 148.364 88.4393 142.859 88.4393 136.069C88.4393 129.278 85.4142 123.773 81.6825 123.773C77.9509 123.773 74.9258 129.278 74.9258 136.069C74.9258 142.859 77.9509 148.364 81.6825 148.364Z" fill="#E5CBE5"/>
<path d="M68.1689 25.9574C71.9005 25.9574 74.9256 20.4527 74.9256 13.6623C74.9256 6.87188 71.9005 1.36719 68.1689 1.36719C64.4372 1.36719 61.4121 6.87188 61.4121 13.6623C61.4121 20.4527 64.4372 25.9574 68.1689 25.9574Z" fill="#E5CBE5"/>
<path d="M7.50676 99.1839C11.2384 99.1839 14.2635 93.6792 14.2635 86.8888C14.2635 80.0984 11.2384 74.5938 7.50676 74.5938C3.7751 74.5938 0.75 80.0984 0.75 86.8888C0.75 93.6792 3.7751 99.1839 7.50676 99.1839Z" fill="#E5CBE5"/>
<path d="M7.50676 74.8636C11.2384 74.8636 14.2635 69.3589 14.2635 62.5685C14.2635 55.7781 11.2384 50.2734 7.50676 50.2734C3.7751 50.2734 0.75 55.7781 0.75 62.5685C0.75 69.3589 3.7751 74.8636 7.50676 74.8636Z" fill="#E5CBE5"/>
</g>
<defs>
<clipPath id="clip0_2122_166444">
<rect width="150" height="150" fill="white"/>
</clipPath>
</defs>
</svg>
