<svg width="150" height="150" viewBox="0 0 150 150" fill="none" xmlns="http://www.w3.org/2000/svg">
<g clip-path="url(#clip0_2122_166655)">
<path d="M9.60938 142.466H134.985V27.0547H9.60938V142.466Z" fill="#7F7F7F" stroke="black" stroke-width="0.453525"/>
<path d="M20.8701 7.53125L12.9121 26.3669V149.997L20.8701 131.846V7.53125Z" fill="#B2B2B2" stroke="black" stroke-width="0.453525"/>
<path d="M0 26.3724H12.9129L23.8739 0.6875H11.2613L0 26.3724Z" fill="#F0F0F0" stroke="black" stroke-width="0.453525"/>
<path d="M62.7623 14.3868H125.225V40.7566H60.8103V40.0717H19.2188V13.3594H62.7623V14.3868Z" fill="#4C4C4C"/>
<path d="M18.918 13.3594H124.624V14.3868H18.918V13.3594Z" fill="black"/>
<path d="M52.2522 19.1773C52.8327 19.1773 53.3033 18.104 53.3033 16.7801C53.3033 15.4561 52.8327 14.3828 52.2522 14.3828C51.6717 14.3828 51.2012 15.4561 51.2012 16.7801C51.2012 18.104 51.6717 19.1773 52.2522 19.1773Z" fill="#F0F0F0" stroke="black" stroke-width="0.453525"/>
<path d="M40.9903 19.5185C41.6537 19.5185 42.1915 18.2919 42.1915 16.7788C42.1915 15.2657 41.6537 14.0391 40.9903 14.0391C40.3269 14.0391 39.7891 15.2657 39.7891 16.7788C39.7891 18.2919 40.3269 19.5185 40.9903 19.5185Z" fill="#F0F0F0" stroke="black" stroke-width="0.453525"/>
<path d="M29.2796 19.1773C29.86 19.1773 30.3306 18.104 30.3306 16.7801C30.3306 15.4561 29.86 14.3828 29.2796 14.3828C28.6991 14.3828 28.2285 15.4561 28.2285 16.7801C28.2285 18.104 28.6991 19.1773 29.2796 19.1773Z" fill="#F0F0F0" stroke="black" stroke-width="0.453525"/>
<path d="M131.681 2.05469L133.933 4.45195L135.585 7.53414L136.636 12.6711V18.1506L135.585 23.2876L133.933 27.0547L128.979 38.6985L130.63 2.05469H131.681Z" fill="black" stroke="black" stroke-width="0.453525"/>
<path d="M130.33 2.74219H131.681L133.633 5.13945L135.285 8.22164L135.885 12.6737V18.1531L135.285 22.6052L133.633 26.3723L128.228 38.7011L124.023 15.071L130.33 2.74219Z" fill="#666666" stroke="black" stroke-width="0.453525"/>
<path d="M117.719 19.8648C118.465 19.8648 119.07 18.7915 119.07 17.4676C119.07 16.1436 118.465 15.0703 117.719 15.0703C116.972 15.0703 116.367 16.1436 116.367 17.4676C116.367 18.7915 116.972 19.8648 117.719 19.8648Z" fill="#F0F0F0" stroke="black" stroke-width="0.453525"/>
<path d="M85.4353 19.8648C86.1817 19.8648 86.7867 18.7915 86.7867 17.4676C86.7867 16.1436 86.1817 15.0703 85.4353 15.0703C84.689 15.0703 84.084 16.1436 84.084 17.4676C84.084 18.7915 84.689 19.8648 85.4353 19.8648Z" fill="#F0F0F0" stroke="black" stroke-width="0.453525"/>
<path d="M106.306 19.8648C107.053 19.8648 107.658 18.7915 107.658 17.4676C107.658 16.1436 107.053 15.0703 106.306 15.0703C105.56 15.0703 104.955 16.1436 104.955 17.4676C104.955 18.7915 105.56 19.8648 106.306 19.8648Z" fill="#F0F0F0" stroke="black" stroke-width="0.453525"/>
<path d="M74.0232 19.8648C74.7696 19.8648 75.3746 18.7915 75.3746 17.4676C75.3746 16.1436 74.7696 15.0703 74.0232 15.0703C73.2769 15.0703 72.6719 16.1436 72.6719 17.4676C72.6719 18.7915 73.2769 19.8648 74.0232 19.8648Z" fill="#F0F0F0" stroke="black" stroke-width="0.453525"/>
<path d="M94.8946 20.206C95.558 20.206 96.0958 18.9794 96.0958 17.4663C96.0958 15.9532 95.558 14.7266 94.8946 14.7266C94.2312 14.7266 93.6934 15.9532 93.6934 17.4663C93.6934 18.9794 94.2312 20.206 94.8946 20.206Z" fill="#F0F0F0" stroke="black" stroke-width="0.453525"/>
<path d="M62.4627 19.8648C63.209 19.8648 63.814 18.7915 63.814 17.4676C63.814 16.1436 63.209 15.0703 62.4627 15.0703C61.7163 15.0703 61.1113 16.1436 61.1113 17.4676C61.1113 18.7915 61.7163 19.8648 62.4627 19.8648Z" fill="#F0F0F0" stroke="black" stroke-width="0.453525"/>
<path d="M125.676 40.7566C128.993 40.7566 131.682 34.6236 131.682 27.058C131.682 19.4925 128.993 13.3594 125.676 13.3594C122.359 13.3594 119.67 19.4925 119.67 27.058C119.67 34.6236 122.359 40.7566 125.676 40.7566Z" fill="black" stroke="black" stroke-width="0.453525"/>
<path d="M125.526 40.069C128.595 40.069 131.082 34.3959 131.082 27.3978C131.082 20.3997 128.595 14.7266 125.526 14.7266C122.458 14.7266 119.971 20.3997 119.971 27.3978C119.971 34.3959 122.458 40.069 125.526 40.069Z" fill="#7F7F7F" stroke="black" stroke-width="0.453525"/>
<path d="M125.676 30.1331C126.422 30.1331 127.027 28.7532 127.027 27.0509C127.027 25.3487 126.422 23.9688 125.676 23.9688C124.929 23.9688 124.324 25.3487 124.324 27.0509C124.324 28.7532 124.929 30.1331 125.676 30.1331Z" fill="#F0F0F0" stroke="black" stroke-width="0.453525"/>
<path d="M125.676 40.0703H19.5195V41.4402H125.676V40.0703Z" fill="black"/>
<path d="M125.676 13.3561L130.631 2.05469H79.1297H22.2228L16.2168 15.0684L125.676 13.3561Z" fill="#7F7F7F" stroke="black" stroke-width="0.453525"/>
<path d="M18.9181 40.7566C22.2351 40.7566 24.9241 34.6236 24.9241 27.058C24.9241 19.4925 22.2351 13.3594 18.9181 13.3594C15.6011 13.3594 12.9121 19.4925 12.9121 27.058C12.9121 34.6236 15.6011 40.7566 18.9181 40.7566Z" fill="black" stroke="black" stroke-width="0.453525"/>
<path d="M18.9186 39.0403C22.0698 39.0403 24.6243 33.5206 24.6243 26.7116C24.6243 19.9026 22.0698 14.3828 18.9186 14.3828C15.7674 14.3828 13.2129 19.9026 13.2129 26.7116C13.2129 33.5206 15.7674 39.0403 18.9186 39.0403Z" fill="#7F7F7F" stroke="black" stroke-width="0.453525"/>
<path d="M18.7696 30.1384C19.433 30.1384 19.9708 28.6051 19.9708 26.7137C19.9708 24.8223 19.433 23.2891 18.7696 23.2891C18.1062 23.2891 17.5684 24.8223 17.5684 26.7137C17.5684 28.6051 18.1062 30.1384 18.7696 30.1384Z" fill="#F0F0F0" stroke="black" stroke-width="0.453525"/>
<path d="M127.026 131.164H12.9121V149.315H127.026V131.164Z" fill="#E0E0E0" stroke="black" stroke-width="0.453525"/>
<path d="M128.979 38.6953H8.55859L33.1832 115.065H104.655L128.979 38.6953Z" fill="#F0F0F0" stroke="black" stroke-width="0.453525"/>
<path d="M0 26.3672H12.9129V149.997H0V26.3672Z" fill="#F0F0F0" stroke="black" stroke-width="0.453525"/>
<path d="M125.676 26.3672H138.288V149.997H125.676V26.3672Z" fill="#F0F0F0" stroke="black" stroke-width="0.453525"/>
<path d="M150.001 0L138.289 26.3699V150L150.001 123.63V0Z" fill="#E0E0E0" stroke="black" stroke-width="0.453525"/>
<path d="M125.676 26.3724H138.288L149.249 0.6875H136.637L125.676 26.3724Z" fill="#F0F0F0" stroke="black" stroke-width="0.453525"/>
<path d="M79.1289 47.6016H121.021V130.478H79.1289V47.6016Z" fill="#F0F0F0" stroke="black" stroke-width="0.453525"/>
<path d="M79.1289 47.6019H121.021L123.723 41.4375H81.8316L79.1289 47.6019Z" fill="#E0E0E0" stroke="black" stroke-width="0.453525"/>
<path d="M123.724 40.75L121.021 47.5993V130.476L123.724 124.312V40.75Z" fill="#B2B2B2" stroke="black" stroke-width="0.453525"/>
<path d="M116.667 88.6953H118.619L119.37 90.0652V97.5994L118.619 99.3118H116.667L116.066 97.5994V90.0652L116.667 88.6953Z" fill="#E0E0E0" stroke="black" stroke-width="0.453525"/>
<path d="M86.7862 96.2344L87.6871 96.9193L87.9874 100.001L87.6871 102.399L86.7862 103.084L85.4348 102.399L84.9844 100.001L85.4348 96.9193L86.7862 96.2344Z" fill="#00FF00" stroke="black" stroke-width="0.453525"/>
<path d="M98.6477 96.2344L99.6988 96.9193L99.9991 100.001L99.6988 102.399L98.6477 103.084L97.7468 102.399L96.9961 100.001L97.7468 96.9193L98.6477 96.2344Z" fill="#00FF00" stroke="black" stroke-width="0.453525"/>
<path d="M111.412 96.2344L112.313 96.9193L112.613 100.001L112.313 102.399L111.412 103.084L110.361 102.399L110.061 100.001L110.361 96.9193L111.412 96.2344Z" fill="#00FF00" stroke="black" stroke-width="0.453525"/>
<path d="M111.412 59.5859L112.313 60.6133L112.613 62.6681L112.313 65.7503L111.412 66.7777L110.361 65.7503L110.061 62.6681L110.361 60.6133L111.412 59.5859Z" fill="#00FF00" stroke="black" stroke-width="0.453525"/>
<path d="M98.6477 59.5859L99.6988 60.6133L99.9991 62.6681L99.6988 65.7503L98.6477 66.7777L97.7468 65.7503L96.9961 62.6681L97.7468 60.6133L98.6477 59.5859Z" fill="#00FF00" stroke="black" stroke-width="0.453525"/>
<path d="M86.7862 59.5859L87.6871 60.6133L87.9874 62.6681L87.6871 65.7503L86.7862 66.7777L85.4348 65.7503L84.9844 62.6681L85.4348 60.6133L86.7862 59.5859Z" fill="#00FF00" stroke="black" stroke-width="0.453525"/>
<path d="M86.7862 107.531L87.6871 108.216L87.9874 111.298L87.6871 113.696L86.7862 114.381L85.4348 113.696L84.9844 111.298L85.4348 108.216L86.7862 107.531Z" fill="#FF0000" stroke="black" stroke-width="0.453525"/>
<path d="M98.6477 107.531L99.6988 108.216L99.9991 111.298L99.6988 113.696L98.6477 114.381L97.7468 113.696L96.9961 111.298L97.7468 108.216L98.6477 107.531Z" fill="#FF0000" stroke="black" stroke-width="0.453525"/>
<path d="M111.412 107.531L112.313 108.216L112.613 111.298L112.313 113.696L111.412 114.381L110.361 113.696L110.061 111.298L110.361 108.216L111.412 107.531Z" fill="#FF0000" stroke="black" stroke-width="0.453525"/>
<path d="M86.7862 71.2344L87.6871 71.9193L87.9874 75.0015L87.6871 77.0563L86.7862 78.0837L85.4348 77.0563L84.9844 75.0015L85.4348 71.9193L86.7862 71.2344Z" fill="#FF0000" stroke="black" stroke-width="0.453525"/>
<path d="M98.6477 71.2344L99.6988 71.9193L99.9991 75.0015L99.6988 77.0563L98.6477 78.0837L97.7468 77.0563L96.9961 75.0015L97.7468 71.9193L98.6477 71.2344Z" fill="#FF0000" stroke="black" stroke-width="0.453525"/>
<path d="M111.412 71.2344L112.313 71.9193L112.613 75.0015L112.313 77.0563L111.412 78.0837L110.361 77.0563L110.061 75.0015L110.361 71.9193L111.412 71.2344Z" fill="#FF0000" stroke="black" stroke-width="0.453525"/>
<path fill-rule="evenodd" clip-rule="evenodd" d="M64.415 93.1484L70.1207 98.2854L72.3729 111.299L70.1207 124.313L64.415 129.45L58.8594 124.313L56.457 111.299L58.8594 98.2854L64.415 93.1484ZM58.8594 117.464L63.8144 110.614V96.9156L59.7603 100.683L57.8084 111.299L58.8594 117.464ZM64.8654 96.9156V109.929L70.1207 116.779L71.1717 111.299L69.0696 100.683L64.8654 96.9156ZM69.8204 118.833L64.415 111.984L59.1597 118.833L59.7603 121.916L64.415 126.368L69.0696 121.916L69.8204 118.833Z" fill="black"/>
<path d="M64.415 93.1484L70.1207 98.2854L72.3729 111.299L70.1207 124.313L64.415 129.45L58.8594 124.313L56.457 111.299L58.8594 98.2854L64.415 93.1484Z" stroke="black" stroke-width="0.453525"/>
<path d="M58.8596 117.462L63.8146 110.613V96.9141L59.7605 100.681L57.8086 111.298L58.8596 117.462Z" stroke="black" stroke-width="0.453525"/>
<path d="M64.8652 96.9141V109.928L70.1205 116.777L71.1715 111.298L69.0694 100.681L64.8652 96.9141Z" stroke="black" stroke-width="0.453525"/>
<path d="M69.8189 118.834L64.4135 111.984L59.1582 118.834L59.7588 121.916L64.4135 126.368L69.0681 121.916L69.8189 118.834Z" stroke="black" stroke-width="0.453525"/>
<path d="M27.7773 51.3672H47.7473V78.0795H27.7773V51.3672Z" fill="#F0F0F0" stroke="black" stroke-width="0.453525"/>
<path d="M29.8789 54.4531H45.7948V62.6723H29.8789V54.4531Z" fill="#FF0000"/>
<path d="M30.7812 56.8516H41.1416V61.3036H30.7812V56.8516Z" fill="black"/>
<path d="M29.8789 65.0703H45.7948V74.3169H29.8789V65.0703Z" fill="white"/>
</g>
<defs>
<clipPath id="clip0_2122_166655">
<rect width="150" height="150" fill="white"/>
</clipPath>
</defs>
</svg>
