<svg width="150" height="150" viewBox="0 0 150 150" fill="none" xmlns="http://www.w3.org/2000/svg">
<g clip-path="url(#clip0_2122_165313)">
<path d="M48.9492 44.0805L51.8021 37.0397L55.2555 31.2234L59.1594 27.2438L63.3636 24.4887L67.8681 23.5703L72.2225 24.4887L76.5768 27.2438L80.4808 31.2234L83.9342 37.0397L86.6369 44.0805L88.739 52.0397L89.9402 60.6111L90.3907 69.7948L90.0904 78.6724L88.739 87.5499L86.6369 95.203L83.9342 102.55L80.4808 108.06L76.5768 112.346L48.9492 44.0805Z" fill="#666666"/>
<path d="M5.70508 117.242H38.1375V128.875H5.70508V117.242Z" fill="#666666"/>
<path d="M38.1387 104.078H144.745V128.874H38.1387V104.078Z" fill="#4C4C4C"/>
<path d="M67.1172 0H118.919V29.0816H67.1172V0Z" fill="#7F7F7F" stroke="black" stroke-width="0.428786"/>
<path d="M0 37.9609H43.8438V117.247H0V37.9609Z" fill="#7F7F7F" stroke="black" stroke-width="0.428786"/>
<path d="M129.58 128.874V65.8125H138.589V128.874H129.58Z" fill="#7F7F7F" stroke="black" stroke-width="0.428786"/>
<path d="M67.1172 2.75781H118.919V26.0231H67.1172V2.75781Z" fill="#999999"/>
<path d="M0 46.2266H43.8438V109.594H0V46.2266Z" fill="#999999"/>
<path d="M130.631 128.874V65.8125H137.688V128.874H130.631Z" fill="#999999"/>
<path d="M67.1172 5.8125H118.919V23.2615H67.1172V5.8125Z" fill="#B2B2B2"/>
<path d="M0 54.1875H43.8438V101.636H0V54.1875Z" fill="#B2B2B2"/>
<path d="M131.531 128.874V65.8125H136.787V128.874H131.531Z" fill="#B2B2B2"/>
<path d="M67.1172 8.57031H118.919V20.203H67.1172V8.57031Z" fill="#CCCCCC"/>
<path d="M0 62.1406H43.8438V93.3651H0V62.1406Z" fill="#CCCCCC"/>
<path d="M132.432 128.874V65.8125H135.885V128.874H132.432Z" fill="#CCCCCC"/>
<path d="M67.1172 11.6328H118.919V17.4491H67.1172V11.6328Z" fill="#E5E5E5"/>
<path d="M0 69.7969H43.8438V85.4091H0V69.7969Z" fill="#E5E5E5"/>
<path d="M133.184 128.874V65.8125H134.985V128.874H133.184Z" fill="#E5E5E5"/>
<path d="M45.1953 38.2656H79.4295V108.062H45.1953V38.2656Z" fill="#E5E5E5"/>
<path d="M45.3455 107.451H79.1292L79.4295 61.2266L45.1953 75.9204L45.3455 107.451Z" fill="#DEDEDE"/>
<path d="M45.3455 107.446H79.1292L79.4295 67.3438L45.1953 81.7315L45.3455 107.446Z" fill="#D4D4D4"/>
<path d="M45.1953 108.06H79.4295V78.6719L45.1953 93.3658V108.06Z" fill="#CCCCCC"/>
<path d="M45.1953 38.2656H79.4295V108.062H45.1953V38.2656Z" stroke="black" stroke-width="0.428786"/>
<path d="M43.8438 84.1867V71.0234H69.6696V84.1867H43.8438Z" fill="#CCCCCC" stroke="black" stroke-width="0.428786"/>
<path d="M61.5625 82.9565V72.2422H65.016" stroke="white" stroke-width="0.428786"/>
<path d="M65.016 72.2422V82.9565H61.5625" stroke="black" stroke-width="0.428786"/>
<path d="M47.748 108.065V84.1875H49.0994V108.065H47.748Z" fill="#7F7F7F"/>
<path d="M65.916 108.065V84.1875H67.1172V108.065H65.916Z" fill="#7F7F7F" stroke="black" stroke-width="0.428786"/>
<path d="M47.748 108.065V84.1875H49.0994V108.065H47.748Z" stroke="black" stroke-width="0.428786"/>
<path d="M80.7812 68.5703H135.736V86.9377H80.7812V68.5703Z" fill="#7F7F7F" stroke="black" stroke-width="0.428786"/>
<path d="M69.8203 71.0234H80.7813V84.1867H69.8203V71.0234Z" fill="#7F7F7F" stroke="black" stroke-width="0.428786"/>
<path d="M80.7812 70.4062H135.736V85.1001H80.7812V70.4062Z" fill="#999999"/>
<path d="M69.8203 72.5547H80.7813V82.9629H69.8203V72.5547Z" fill="#999999"/>
<path d="M80.7812 72.2422H135.736V83.2626H80.7812V72.2422Z" fill="#B2B2B2"/>
<path d="M69.8203 73.7734H80.7813V81.7326H69.8203V73.7734Z" fill="#B2B2B2"/>
<path d="M80.7812 74.0781H135.736V81.4251H80.7812V74.0781Z" fill="#CCCCCC"/>
<path d="M69.8203 75H80.7813V80.2041H69.8203V75Z" fill="#CCCCCC"/>
<path d="M80.7812 75.9219H135.736V79.2892H80.7812V75.9219Z" fill="#E5E5E5"/>
<path d="M69.8203 76.2266H80.7813V78.9817H69.8203V76.2266Z" fill="#E5E5E5"/>
<path d="M93.0938 94.8965V60.3047H124.025V94.8965H93.0938Z" fill="#CCCCCC" stroke="black" stroke-width="0.428786"/>
<path d="M0 149.997V128.875H150V149.997H0Z" fill="#CCCCCC" stroke="black" stroke-width="0.428786"/>
<path d="M80.1801 128.879V108.062H43.8438V128.879H46.5465V118.471H56.7567V128.879H69.8197V123.675H77.4774V128.879H80.1801Z" fill="#C0C0C0" stroke="black" stroke-width="0.428786"/>
<path d="M137.088 131.633L137.538 130.409L137.989 129.184L138.439 127.654L138.89 126.123L139.34 124.286L139.791 122.449L140.091 120.307L140.391 118.47L140.692 116.633L140.842 114.49L141.142 112.654V110.817L141.292 109.286L141.142 107.756V106.531L140.842 105.307L140.692 104.388L140.391 103.47L140.091 102.245L139.641 101.327L139.34 100.409L138.89 99.7964L138.289 98.878L137.839 97.9597L137.238 97.3474L136.638 96.7352L136.037 96.1229L135.286 95.8168L134.535 95.2046L133.635 94.8984H132.734H131.833H130.932H130.031L129.13 95.2046L128.379 95.8168L127.779 96.1229L127.028 96.7352L126.427 97.3474L125.827 97.9597L125.376 98.878L124.926 99.7964L124.475 100.409L124.025 101.327L123.725 102.245L123.424 103.47L123.124 104.388L122.824 105.307L122.674 106.531L122.523 107.756V109.286V110.817L122.674 112.654L122.824 114.49L122.974 116.633L123.274 118.47L123.574 120.307L124.025 122.449L124.325 124.286L124.776 126.123L125.226 127.654L125.677 129.184L126.127 130.409L126.728 131.633L127.178 131.939L127.779 132.551L128.379 132.858L128.98 133.164H129.731L130.331 133.47H131.082H131.833H132.583H133.334L133.935 133.164H134.686L135.286 132.858L135.887 132.551L136.487 131.939L137.088 131.633Z" fill="#CCCCCC" stroke="black" stroke-width="0.428786"/>
<path d="M102.102 131.633L102.552 130.409L103.003 129.184L103.603 127.654L104.054 126.123L104.354 124.286L104.804 122.449L105.105 120.307L105.555 118.47L105.705 116.633L106.006 114.49L106.156 112.654L106.306 110.817V109.286V107.756L106.156 106.531L106.006 105.307L105.705 104.388L105.405 103.47L105.105 102.245L104.804 101.327L104.354 100.409L103.903 99.7964L103.453 98.878L102.852 97.9597L102.402 97.3474L101.651 96.7352L101.051 96.1229L100.3 95.8168L99.5491 95.2046L98.7984 94.8984H97.8975H96.8464H95.9455H95.0446L94.2939 95.2046L93.5431 95.8168L92.7924 96.1229L92.1918 96.7352L91.441 97.3474L90.9906 97.9597L90.39 98.878L89.9395 99.7964L89.4891 100.409L89.1888 101.327L88.7383 102.245L88.438 103.47L88.1377 104.388L87.8374 105.307L87.6873 106.531L87.5371 107.756V109.286V110.817L87.6873 112.654L87.8374 114.49L88.1377 116.633L88.2879 118.47L88.7383 120.307L89.0386 122.449L89.4891 124.286L89.9395 126.123L90.39 127.654L90.8404 129.184L91.2909 130.409L91.7413 131.633L92.3419 131.939L92.7924 132.551L93.393 132.858L94.1437 133.164H94.7443L95.4951 133.47H96.2458H96.8464H97.5972H98.3479L99.0987 133.164H99.6993L100.45 132.858L101.051 132.551L101.651 131.939L102.102 131.633Z" fill="#CCCCCC" stroke="black" stroke-width="0.428786"/>
<path d="M108.559 128.88V57.8594H121.472V128.88H108.559Z" fill="#7F7F7F"/>
<path d="M109.91 128.88V57.8594H120.271V128.88H109.91Z" fill="#999999"/>
<path d="M111.262 128.88V57.8594H118.919V128.88H111.262Z" fill="#B2B2B2"/>
<path d="M112.463 128.88V57.8594H117.718V128.88H112.463Z" fill="#CCCCCC"/>
<path d="M113.814 128.88V57.8594H116.367V128.88H113.814Z" fill="#E5E5E5"/>
<path d="M108.559 128.88V57.8594H121.472V128.88H108.559Z" stroke="black" stroke-width="0.428786"/>
<path d="M25.8262 142.039H149.85V147.549H25.8262V142.039Z" fill="#7F7F7F"/>
<path d="M25.9766 143.266H150.001V146.327H25.9766V143.266Z" fill="#B2B2B2"/>
<path d="M25.8262 144.188H149.85V145.412H25.8262V144.188Z" fill="#E5E5E5"/>
<path d="M25.8262 142.039H149.85V147.549H25.8262V142.039Z" stroke="black" stroke-width="0.428786"/>
<path d="M135.736 63.0625H141.592V86.9401H135.736V63.0625Z" fill="#B2B2B2" stroke="black" stroke-width="0.428786"/>
<path d="M136.337 129.487L136.788 128.262L137.088 127.344L137.538 126.119L137.989 124.589L138.289 123.058L138.74 121.221L139.04 119.691L139.34 117.854L139.49 116.323L139.641 114.487L139.941 112.956V111.425V109.895V108.67V107.446L139.641 106.527L139.49 105.609L139.19 104.691L138.89 104.078L138.589 103.16L138.289 102.242L137.839 101.629L137.538 101.017L137.088 100.099L136.487 99.4866L136.037 99.1805L135.436 98.5682L134.836 98.2621L134.085 97.6499H133.484L132.734 97.3438H131.833H131.082L130.331 97.6499H129.58L128.98 98.2621L128.229 98.5682L127.779 99.1805L127.178 99.4866L126.728 100.099L126.277 101.017L125.827 101.629L125.376 102.242L125.076 103.16L124.776 104.078L124.475 104.691L124.175 105.609L124.025 106.527L123.875 107.446L123.725 108.67V109.895V111.425L123.875 112.956L124.025 114.487L124.175 116.323L124.325 117.854L124.626 119.691L125.076 121.221L125.376 123.058L125.677 124.589L126.127 126.119L126.577 127.344L127.028 128.262L127.328 129.487L127.779 129.793L128.379 130.099L128.83 130.405L129.43 130.711H130.031L130.632 131.017H131.232H131.833H132.433H133.034L133.635 130.711H134.235L134.836 130.405L135.286 130.099L135.887 129.793L136.337 129.487Z" fill="#E5E5E5"/>
<path d="M101.351 129.487L101.801 128.262L102.252 127.344L102.702 126.119L103.003 124.589L103.453 123.058L103.753 121.221L104.054 119.691L104.354 117.854L104.654 116.323L104.804 114.487L104.954 112.956V111.425L105.105 109.895L104.954 108.67V107.446L104.804 106.527L104.504 105.609L104.354 104.691L104.054 104.078L103.753 103.16L103.303 102.242L103.003 101.629L102.552 101.017L102.102 100.099L101.651 99.4866L101.051 99.1805L100.45 98.5682L99.8494 98.2621L99.2488 97.6499H98.498L97.7473 97.3438H96.8464H96.0956L95.3449 97.6499H94.5941L93.9935 98.2621L93.3929 98.5682L92.7923 99.1805L92.1917 99.4866L91.7413 100.099L91.2908 101.017L90.8404 101.629L90.3899 102.242L90.0896 103.16L89.7893 104.078L89.489 104.691L89.1887 105.609L89.0386 106.527L88.8884 107.446L88.7383 108.67V109.895V111.425L88.8884 112.956L89.0386 114.487L89.1887 116.323L89.489 117.854L89.7893 119.691L90.0896 121.221L90.3899 123.058L90.8404 124.589L91.1407 126.119L91.5911 127.344L92.0416 128.262L92.492 129.487L92.9425 129.793L93.3929 130.099L93.8434 130.405L94.444 130.711H95.0446L95.6452 131.017H96.2458H96.8464H97.5971H98.1977L98.7983 130.711H99.3989L99.9995 130.405L100.45 130.099L100.9 129.793L101.351 129.487Z" fill="#E5E5E5"/>
<path d="M127.328 129.49L127.779 129.797L128.379 130.103L128.83 130.409L129.43 130.715H130.031L130.631 131.021H131.232H131.833H132.433H133.034L133.634 130.715H134.235L134.836 130.409L135.286 130.103L135.887 129.797L136.337 129.49L136.788 128.266L137.088 127.348L137.538 126.123L137.989 124.592L138.289 123.062L138.74 121.225L139.04 119.695L139.34 117.858L139.49 116.327L139.64 114.49L139.941 112.96V111.429V109.899V108.674V107.45L139.64 106.531" stroke="black" stroke-width="0.428786"/>
<path d="M92.4922 129.49L92.9426 129.797L93.3931 130.103L93.8435 130.409L94.4441 130.715H95.0447L95.6453 131.021H96.2459H96.8465H97.5973H98.1979L98.7985 130.715H99.3991L99.9997 130.409L100.45 130.103L100.901 129.797L101.351 129.49L101.801 128.266L102.252 127.348L102.702 126.123L103.003 124.592L103.453 123.062L103.753 121.225L104.054 119.695L104.354 117.858L104.654 116.327L104.804 114.49L104.955 112.96V111.429L105.105 109.899L104.955 108.674V107.45L104.804 106.531" stroke="black" stroke-width="0.428786"/>
<path d="M139.641 106.527L139.49 105.609L139.19 104.691L138.89 104.078L138.589 103.16L138.289 102.242L137.839 101.629L137.538 101.017L137.088 100.099L136.487 99.4866L136.037 99.1805L135.436 98.5682L134.836 98.2621L134.085 97.6499H133.484L132.734 97.3438H131.833H131.082L130.331 97.6499H129.58L128.98 98.2621L128.229 98.5682L127.779 99.1805L127.178 99.4866L126.728 100.099L126.277 101.017L125.827 101.629L125.376 102.242L125.076 103.16L124.776 104.078L124.475 104.691L124.175 105.609L124.025 106.527L123.875 107.446L123.725 108.67V109.895V111.425L123.875 112.956L124.025 114.487L124.175 116.323L124.325 117.854L124.626 119.691L125.076 121.221L125.376 123.058L125.677 124.589L126.127 126.119L126.577 127.344L127.028 128.262L127.328 129.487" stroke="white" stroke-width="0.428786"/>
<path d="M104.804 106.527L104.504 105.609L104.354 104.691L104.054 104.078L103.753 103.16L103.303 102.242L103.003 101.629L102.552 101.017L102.102 100.099L101.651 99.4866L101.051 99.1805L100.45 98.5682L99.8494 98.2621L99.2488 97.6499H98.498L97.7473 97.3438H96.8464H96.0956L95.3449 97.6499H94.5941L93.9935 98.2621L93.3929 98.5682L92.7923 99.1805L92.1917 99.4866L91.7413 100.099L91.2908 101.017L90.8404 101.629L90.3899 102.242L90.0896 103.16L89.7893 104.078L89.489 104.691L89.1887 105.609L89.0386 106.527L88.8884 107.446L88.7383 108.67V109.895V111.425L88.8884 112.956L89.0386 114.487L89.1887 116.323L89.489 117.854L89.7893 119.691L90.0896 121.221L90.3899 123.058L90.8404 124.589L91.1407 126.119L91.5911 127.344L92.0416 128.262L92.492 129.487" stroke="white" stroke-width="0.428786"/>
<path d="M66.3672 108.065V84.1875H66.6675V108.065H66.3672Z" fill="#E5E5E5"/>
<path d="M48.3477 108.065V84.1875H48.4978V108.065H48.3477Z" fill="#E5E5E5"/>
<path d="M116.217 142.656V52.6562H118.919V142.656H116.217Z" fill="#7F7F7F" stroke="black" stroke-width="0.428786"/>
<path d="M113.664 57.8551V28.7734H116.367V57.8551H113.664Z" fill="#7F7F7F" stroke="black" stroke-width="0.428786"/>
<path d="M85.2852 142.043V98.5737L79.4293 88.1655V32.7573H64.5645V12.8594H67.117V27.5533H81.9819V85.4104L87.8377 97.3492V142.043H85.2852Z" fill="#7F7F7F" stroke="black" stroke-width="0.428786"/>
<path d="M116.816 143.881V52.6562H118.468V143.881H116.816Z" fill="#B2B2B2"/>
<path d="M114.264 57.8551V28.7734H115.765V57.8551H114.264Z" fill="#B2B2B2"/>
<path d="M85.7363 143.568V98.5682L87.388 97.3438V143.568H85.7363Z" fill="#B2B2B2"/>
<path d="M86.3358 100.102L80.1797 88.1628L81.2307 85.1016L87.537 97.6526L86.3358 100.102Z" fill="#B2B2B2"/>
<path d="M80.0293 88.1612V31.5285L81.5308 28.7734V85.4061L80.0293 88.1612Z" fill="#B2B2B2"/>
<path d="M66.5174 28.4688H81.3822L80.181 31.8361H65.166L66.5174 28.4688Z" fill="#B2B2B2"/>
<path d="M65.166 31.5328V12.8594H66.6675V27.5533L65.166 31.5328Z" fill="#B2B2B2"/>
<path d="M114.715 57.8551V28.7734H115.315V57.8551H114.715Z" fill="#E5E5E5"/>
<path d="M117.268 144.799V52.6562H117.868V144.799H117.268Z" fill="#E5E5E5"/>
<path d="M65.6152 30.0022V12.8594H66.2158V28.7777L65.6152 30.0022Z" fill="#E5E5E5"/>
<path d="M66.5166 29.6953H80.7809L80.1803 30.6137H65.916L66.5166 29.6953Z" fill="#E5E5E5"/>
<path d="M80.4805 86.9388V30H81.0811V86.9388H80.4805Z" fill="#E5E5E5"/>
<path d="M86.7868 99.1803L80.4805 86.3232L80.7808 85.7109L87.0871 98.5681L86.7868 99.1803Z" fill="#E5E5E5"/>
<path d="M86.3359 144.793V97.3438H86.7864V144.793H86.3359Z" fill="#E5E5E5"/>
</g>
<defs>
<clipPath id="clip0_2122_165313">
<rect width="150" height="150" fill="white"/>
</clipPath>
</defs>
</svg>
