<svg width="150" height="150" viewBox="0 0 150 150" fill="none" xmlns="http://www.w3.org/2000/svg">
<g clip-path="url(#clip0_2122_164917)">
<path d="M9.00977 4.0625H146.998L134.986 117.527L122.974 125.646H116.968V150.003H95.9467V125.646L83.9347 117.527H59.9107L47.8987 109.408V68.8122H9.00977V4.0625Z" fill="#B2B2B2" stroke="black" stroke-width="0.349153"/>
<path d="M5.85547 0H150V4.05954H5.85547V0Z" fill="#E5E5E5" stroke="black" stroke-width="0.349153"/>
<path d="M12.0117 68.8125L15.0147 105.348H47.8976V68.8125H12.0117Z" fill="#738C8C" stroke="black" stroke-width="0.349153"/>
<path d="M20.8702 150.003L17.8672 68.8125H32.8822L29.8792 150.003H20.8702Z" fill="#B2B2B2" stroke="black" stroke-width="0.349153"/>
<path d="M50.9004 105.343L51.0505 7.91406H59.9094V109.403L50.9004 105.343Z" fill="#8C8C8C"/>
<path d="M51.0508 105.343V7.91406H59.9096" stroke="black" stroke-width="0.349153"/>
<path d="M51.0508 105.343L59.9096 109.403V7.91406" stroke="white" stroke-width="0.349153"/>
<path d="M86.9375 113.462V7.91406H95.9465V117.522L86.9375 113.462Z" fill="#8C8C8C"/>
<path d="M86.9375 113.462V7.91406H95.9465" stroke="black" stroke-width="0.349153"/>
<path d="M86.9375 113.462L95.9465 117.522V7.91406" stroke="white" stroke-width="0.349153"/>
<path d="M40.3912 97.2225C42.879 97.2225 44.8957 93.5875 44.8957 89.1035C44.8957 84.6194 42.879 80.9844 40.3912 80.9844C37.9035 80.9844 35.8867 84.6194 35.8867 89.1035C35.8867 93.5875 37.9035 97.2225 40.3912 97.2225Z" fill="#4C7F7F"/>
<path d="M40.3912 93.163C42.879 93.163 44.8957 90.4367 44.8957 87.0737C44.8957 83.7107 42.879 80.9844 40.3912 80.9844C37.9035 80.9844 35.8867 83.7107 35.8867 87.0737C35.8867 90.4367 37.9035 93.163 40.3912 93.163Z" fill="#A6A6A6" stroke="black" stroke-width="0.349153"/>
<path d="M40.3909 90.1206C41.6348 90.1206 42.6432 88.7574 42.6432 87.0759C42.6432 85.3944 41.6348 84.0312 40.3909 84.0312C39.147 84.0312 38.1387 85.3944 38.1387 87.0759C38.1387 88.7574 39.147 90.1206 40.3909 90.1206Z" fill="#4C4C4C" stroke="black" stroke-width="0.349153"/>
<path d="M17.8672 64.7476L18.0173 7.91406H26.8762V64.7476H17.8672Z" fill="#8C8C8C"/>
<path d="M18.0176 64.7476V7.91406H26.8764" stroke="black" stroke-width="0.349153"/>
<path d="M18.0176 64.7476H26.8764V7.91406" stroke="white" stroke-width="0.349153"/>
<path d="M0 20.2969H9.00901V36.3321H0V20.2969Z" fill="#7F7F7F"/>
<path d="M0 23.3438H9.00901V33.2896H0V23.3438Z" fill="#B2B2B2"/>
<path d="M0 26.3906H9.00901V30.2472H0V26.3906Z" fill="#E5E5E5"/>
<path d="M0 20.2969H9.00901V36.3321H0V20.2969Z" stroke="black" stroke-width="0.349153"/>
<path d="M17.8672 145.938H32.8822V149.997H17.8672V145.938Z" fill="#999999" stroke="black" stroke-width="0.349153"/>
<path d="M92.9434 145.938H119.97V149.997H92.9434V145.938Z" fill="#999999" stroke="black" stroke-width="0.349153"/>
<path d="M17.8672 97.2266H32.8822" stroke="black" stroke-width="0.349153"/>
<path d="M116.967 117.522V7.91406H143.994L131.982 113.462L122.973 117.522H116.967Z" fill="#A6A6A6"/>
<path d="M106.456 145.941C108.943 145.941 110.96 142.306 110.96 137.822C110.96 133.338 108.943 129.703 106.456 129.703C103.968 129.703 101.951 133.338 101.951 137.822C101.951 142.306 103.968 145.941 106.456 145.941Z" fill="#737373"/>
<path d="M106.456 141.882C108.943 141.882 110.96 139.155 110.96 135.792C110.96 132.429 108.943 129.703 106.456 129.703C103.968 129.703 101.951 132.429 101.951 135.792C101.951 139.155 103.968 141.882 106.456 141.882Z" fill="#A6A6A6" stroke="black" stroke-width="0.349153"/>
<path d="M106.457 138.839C107.701 138.839 108.71 137.476 108.71 135.795C108.71 134.113 107.701 132.75 106.457 132.75C105.213 132.75 104.205 134.113 104.205 135.795C104.205 137.476 105.213 138.839 106.457 138.839Z" fill="#4C4C4C" stroke="black" stroke-width="0.349153"/>
<path d="M116.967 117.522V7.91406H143.994" stroke="black" stroke-width="0.349153"/>
<path d="M116.967 117.522H122.973L131.982 113.462L143.994 7.91406" stroke="white" stroke-width="0.349153"/>
</g>
<defs>
<clipPath id="clip0_2122_164917">
<rect width="150" height="150" fill="white"/>
</clipPath>
</defs>
</svg>
