<svg width="150" height="150" viewBox="0 0 150 150" fill="none" xmlns="http://www.w3.org/2000/svg">
<path d="M145.627 142.039V71.9188L139.709 29.7266H7.20478L1.28711 71.9188V142.039L6.43291 144.742L21.8703 146.994L46.5701 148.645L73.5856 149.096L100.601 148.645L125.044 146.994L140.481 144.742L145.627 142.039Z" fill="#999991"/>
<path d="M138.422 144.742V71.7686L133.019 29.7266H14.1511L8.74805 71.7686V144.742L27.2729 146.994L49.3998 148.495L73.5851 149.096L97.7703 148.495L119.897 146.994L138.422 144.742Z" fill="#A3A39B"/>
<path d="M130.96 145.492V71.7686L126.329 29.7266H20.8402L16.209 71.7686V145.492L23.9277 146.393L32.4182 146.994L51.9723 148.495L73.5846 149.096L95.197 148.495L114.751 146.994L124.528 146.393L130.96 145.492Z" fill="#ADADA5"/>
<path d="M123.757 146.393V71.7686L119.64 29.7266H27.5307L23.4141 71.7686L23.6714 146.393L37.8223 147.294L54.8034 148.495L73.5856 149.096L92.3678 148.495L109.349 147.294L123.757 146.393Z" fill="#B8B8B0"/>
<path d="M116.295 147.294V71.7686L112.95 29.7266H34.2198L30.875 71.7686V147.294L42.9676 148.195L57.6331 148.495L73.5851 149.096L89.5371 148.495L104.203 148.195L116.295 147.294Z" fill="#C2C2BA"/>
<path d="M109.09 147.294V71.7686L106.003 29.7266H41.1656L38.0781 71.7686L38.3354 147.294L48.3697 148.195L60.2051 148.495L73.5841 149.096L86.9632 148.495L98.7985 148.195L109.09 147.294Z" fill="#CFCFC7"/>
<path d="M101.63 148.195V71.7686L99.3146 29.7266H47.8566L45.541 71.7686V148.195H53.517L73.5856 149.096L93.6542 148.195H101.63Z" fill="#D9D9D1"/>
<path d="M94.1683 148.195V71.7686L92.6246 29.7266H54.5457L53.002 71.7686V148.195H58.9196L73.5851 149.096L88.2507 148.195H94.1683Z" fill="#E3E3DB"/>
<path d="M86.9632 148.195V71.7686L85.6768 29.7266H61.2342L60.2051 71.7686V148.195L73.5842 149.096L86.9632 148.195Z" fill="#EDEDE5"/>
<path d="M79.5028 149.096V71.9188L78.9882 29.7266H67.9247L67.4102 71.9188V149.096H73.5851H79.5028Z" fill="#F7F7EF"/>
<path d="M145.627 142.039V71.9188L139.709 29.7266H7.20478L1.28711 71.9188V142.039L6.43291 144.742L21.8703 146.994L46.5701 148.645L73.5856 149.096L100.601 148.645L125.044 146.994L140.481 144.742L145.627 142.039Z" stroke="black" stroke-width="0.393101"/>
<path d="M4.37305 30.9337V28.5312H142.538L142.795 30.9337L137.649 33.4862L122.726 35.7385L99.5703 37.0898L73.584 37.6904L47.5977 37.0898L24.1844 35.7385L9.26155 33.4862L4.37305 30.9337Z" fill="#CCCCC4" stroke="black" stroke-width="0.393101"/>
<path d="M73.584 35.5838C111.808 35.5838 142.795 32.5587 142.795 28.8271C142.795 25.0954 111.808 22.0703 73.584 22.0703C35.3599 22.0703 4.37305 25.0954 4.37305 28.8271C4.37305 32.5587 35.3599 35.5838 73.584 35.5838Z" fill="#E5E5DD" stroke="black" stroke-width="0.393101"/>
<path d="M112.693 22.8224V19.2188H141.253V22.8224H112.693Z" fill="#E5E5E5" stroke="black" stroke-width="0.393101"/>
<path d="M8.74805 30.6331V27.1797H117.067V30.6331H8.74805Z" fill="#E5E5E5" stroke="black" stroke-width="0.393101"/>
<path d="M8.74805 27.1746L40.3947 16.6641H148.714L141.252 19.2166H112.436L97.5131 23.571H127.616L117.067 27.1746H8.74805Z" fill="white" stroke="black" stroke-width="0.393101"/>
<path d="M112.436 22.9725V19.2188L97.5137 23.5731H109.606L112.436 22.9725Z" fill="#B2B2B2" stroke="black" stroke-width="0.393101"/>
<path d="M148.713 20.1175V16.6641L141.252 19.2166V22.8202L148.713 20.1175Z" fill="#B2B2B2" stroke="black" stroke-width="0.393101"/>
<path d="M127.615 27.3241V23.5703L117.066 27.1739V30.6274L127.615 27.3241Z" fill="#B2B2B2" stroke="black" stroke-width="0.393101"/>
<path d="M76.416 20.1175L90.0524 16.6641V20.1175L76.416 23.571V20.1175Z" fill="#98987F" stroke="black" stroke-width="0.393101"/>
<path d="M82.5898 4.3536L95.9689 0.75L96.2262 16.5158L82.5898 20.1194V4.3536Z" fill="#CBCBB2" stroke="black" stroke-width="0.393101"/>
<path d="M37.3066 20.1173V4.35156H82.5897V20.1173H37.3066Z" fill="#E5E5CC" stroke="black" stroke-width="0.393101"/>
<path d="M43.4824 23.5706V20.1172H76.4155V23.5706H43.4824Z" fill="#CBCBB2" stroke="black" stroke-width="0.393101"/>
<path d="M82.5897 4.3536L95.9687 0.75H50.943L37.3066 4.3536H82.5897Z" fill="#F2F2E5" stroke="black" stroke-width="0.393101"/>
<path d="M45.0254 20.1173V4.35156H63.0357V20.1173H45.0254Z" fill="#4C4C4C"/>
<path d="M63.0357 4.3536L76.4148 0.75H58.4045L45.0254 4.3536H63.0357Z" fill="#666666"/>
<path d="M82.5898 4.35114L92.8814 1.64844L93.1387 15.7626L82.5898 18.3151V4.35114Z" fill="#7F7F7F" stroke="black" stroke-width="0.393101"/>
<path d="M85.4199 6.45366L85.9345 4.95216L86.9637 4.35156L87.9928 4.95216L88.5074 6.45366L87.9928 8.10532L86.9637 8.70592L85.9345 8.10532L85.4199 6.45366Z" fill="#FFCC00"/>
<path d="M85.4199 12.6099L85.9345 11.1084L86.9637 10.5078L87.9928 11.1084L88.5074 12.6099L87.9928 14.2616L86.9637 14.8622L85.9345 14.2616L85.4199 12.6099Z" fill="#FFCC00"/>
</svg>
