<svg width="150" height="150" viewBox="0 0 150 150" fill="none" xmlns="http://www.w3.org/2000/svg">
<g clip-path="url(#clip0_2122_162482)">
<path d="M75 69.0031C116.421 69.0031 150 53.8256 150 35.1031C150 16.3807 116.421 1.20312 75 1.20312C33.5786 1.20312 0 16.3807 0 35.1031C0 53.8256 33.5786 69.0031 75 69.0031Z" fill="#4C4C4C"/>
<path d="M74.1284 67.7969C114.346 67.7969 146.948 53.0223 146.948 34.7969C146.948 16.5715 114.346 1.79688 74.1284 1.79688C33.9111 1.79688 1.30859 16.5715 1.30859 34.7969C1.30859 53.0223 33.9111 67.7969 74.1284 67.7969Z" fill="#666666"/>
<path d="M72.8202 66.5969C112.315 66.5969 144.332 52.0909 144.332 34.1969C144.332 16.3028 112.315 1.79688 72.8202 1.79688C33.3254 1.79688 1.30859 16.3028 1.30859 34.1969C1.30859 52.0909 33.3254 66.5969 72.8202 66.5969Z" fill="#7F7F7F"/>
<path d="M71.5125 64.7984C109.562 64.7984 140.408 50.8297 140.408 33.5984C140.408 16.3672 109.562 2.39844 71.5125 2.39844C33.4627 2.39844 2.61719 16.3672 2.61719 33.5984C2.61719 50.8297 33.4627 64.7984 71.5125 64.7984Z" fill="#999999"/>
<path d="M69.3313 61.8016C104.732 61.8016 133.43 48.7731 133.43 32.7016C133.43 16.6301 104.732 3.60156 69.3313 3.60156C33.9304 3.60156 5.23242 16.6301 5.23242 32.7016C5.23242 48.7731 33.9304 61.8016 69.3313 61.8016Z" fill="#B2B2B2"/>
<path d="M67.1519 58.7969C99.9037 58.7969 126.454 46.7086 126.454 31.7969C126.454 16.8852 99.9037 4.79688 67.1519 4.79688C34.4002 4.79688 7.84961 16.8852 7.84961 31.7969C7.84961 46.7086 34.4002 58.7969 67.1519 58.7969Z" fill="#CCCCCC"/>
<path d="M64.9706 54.6016C94.1101 54.6016 117.732 43.8564 117.732 30.6016C117.732 17.3467 94.1101 6.60156 64.9706 6.60156C35.8312 6.60156 12.209 17.3467 12.209 30.6016C12.209 43.8564 35.8312 54.6016 64.9706 54.6016Z" fill="#E5E5E5"/>
<path d="M75 69.0031C116.421 69.0031 150 53.8256 150 35.1031C150 16.3807 116.421 1.20312 75 1.20312C33.5786 1.20312 0 16.3807 0 35.1031C0 53.8256 33.5786 69.0031 75 69.0031Z" stroke="black" stroke-width="0.723364"/>
<path d="M77.1797 1.8V0" stroke="black" stroke-width="0.723364"/>
<path d="M72.8203 1.8V0" stroke="black" stroke-width="0.723364"/>
<path d="M81.541 1.8V0" stroke="black" stroke-width="0.723364"/>
<path d="M68.0234 1.8V0" stroke="black" stroke-width="0.723364"/>
<path d="M66.2793 0H83.2851" stroke="black" stroke-width="0.723364"/>
<path d="M66.2793 0.898438H83.2851" stroke="black" stroke-width="0.723364"/>
<path d="M63.2266 71.3984V149.998" stroke="#CCCCCC" stroke-width="0.723364"/>
<path d="M59.7379 143.1V69H69.7669V150H56.6855L59.7379 143.1Z" fill="white"/>
<path d="M54.5057 140.7V69H56.2499V141.9L49.2732 150H40.9883L54.5057 140.7Z" fill="#B2B2B2"/>
<path d="M56.2502 141.9V69L59.7386 69.3V143.1L60.1746 150H49.2734L56.2502 141.9Z" fill="#CCCCCC"/>
<path d="M69.7676 149.997V67.7969H76.7443V149.997H69.7676Z" fill="#E5E5E5"/>
<path d="M76.7441 149.997V67.7969H83.2848V149.997H76.7441Z" fill="#CCCCCC"/>
<path d="M83.2852 150V69H88.5177V142.8L92.0061 150H83.2852Z" fill="#999999"/>
<path d="M92.0059 150L88.5176 142.8V69H93.7501V141.9L100.291 150H92.0059Z" fill="#666666"/>
<path d="M100.291 150L93.75 141.6V69H95.4942V140.7L109.012 150H100.291Z" fill="#4C4C4C"/>
<path d="M54.5057 70.2031V140.703L40.9883 150.003H109.012L95.4941 140.703V70.2031" stroke="black" stroke-width="0.723364"/>
<path d="M86.7733 112.5H75" stroke="#666666" stroke-width="0.723364"/>
<path d="M79.7971 114.898H69.332" stroke="#666666" stroke-width="0.723364"/>
<path d="M92.0062 120.602H78.0527" stroke="#666666" stroke-width="0.723364"/>
<path d="M69.7676 141.898H83.285" stroke="#666666" stroke-width="0.723364"/>
<path d="M76.7441 135.898H93.75" stroke="#666666" stroke-width="0.723364"/>
<path d="M51.0176 138.297H98.5466V140.697H51.0176V138.297Z" fill="#333333"/>
<path d="M51.0176 138.297H98.5466V139.497H51.0176V138.297Z" fill="#7F7F7F"/>
<path d="M57.9941 84.2969H79.7965" stroke="#CCCCCC" stroke-width="0.723364"/>
<path d="M64.5352 92.7031H85.0293" stroke="#CCCCCC" stroke-width="0.723364"/>
<path d="M74.5634 69.0031C103.221 69.0031 126.453 53.8256 126.453 35.1031C126.453 16.3807 103.221 1.20312 74.5634 1.20312C45.9056 1.20312 22.6738 16.3807 22.6738 35.1031C22.6738 53.8256 45.9056 69.0031 74.5634 69.0031Z" stroke="#CCCCCC" stroke-width="0.723364"/>
<path d="M74.9991 69.0031C86.7994 69.0031 96.3654 53.8256 96.3654 35.1031C96.3654 16.3807 86.7994 1.20312 74.9991 1.20312C63.1988 1.20312 53.6328 16.3807 53.6328 35.1031C53.6328 53.8256 63.1988 69.0031 74.9991 69.0031Z" stroke="#CCCCCC" stroke-width="0.723364"/>
<path d="M11.7734 35.7031H82.849" stroke="#CCCCCC" stroke-width="0.723364"/>
<path d="M26.5996 29.7031H97.6752" stroke="#CCCCCC" stroke-width="0.723364"/>
<path d="M20.0586 18.6016H50.5818" stroke="#CCCCCC" stroke-width="0.723364"/>
<path d="M44.041 13.7969H115.117" stroke="#CCCCCC" stroke-width="0.723364"/>
<path d="M62.791 41.7031H133.867" stroke="#CCCCCC" stroke-width="0.723364"/>
<path d="M26.5996 54H84.1577" stroke="#CCCCCC" stroke-width="0.723364"/>
<path d="M51.0176 68.1016H98.5466V70.5016H51.0176V68.1016Z" fill="#333333"/>
<path d="M51.0176 68.1016H98.5466V69.3016H51.0176V68.1016Z" fill="#7F7F7F"/>
</g>
<defs>
<clipPath id="clip0_2122_162482">
<rect width="150" height="150" fill="white"/>
</clipPath>
</defs>
</svg>
