<svg width="150" height="150" viewBox="0 0 150 150" fill="none" xmlns="http://www.w3.org/2000/svg">
<g clip-path="url(#clip0_2122_166205)">
<path d="M0.601562 149.4H137.088V12.2266H0.601562V149.4Z" fill="#7F7FFF" stroke="black" stroke-width="0.301055"/>
<path d="M1.95117 149.393H137.086V146.375H1.95117V149.393Z" fill="#A1A1FF" stroke="black" stroke-width="0.301055"/>
<path d="M149.25 139.437L137.088 149.396V12.2233L149.25 0V139.437Z" fill="#6060E0" stroke="black" stroke-width="0.301055"/>
<path d="M149.549 140.038L137.387 149.998V12.8249L149.549 0.601562V140.038Z" fill="#6060E0" stroke="black" stroke-width="0.301055"/>
<path d="M22.6736 0H149.25L137.088 12.2233H0.601562L22.6736 0Z" fill="#7F7FFF" stroke="black" stroke-width="0.301055"/>
<path d="M149.25 139.44L137.088 149.4V146.382L149.25 136.422V139.44Z" fill="#A1A1FF" stroke="black" stroke-width="0.301055"/>
<path d="M150 140.042L137.688 150.001V146.983L150 137.023V140.042Z" fill="#A1A1FF" stroke="black" stroke-width="0.301055"/>
<path d="M0 15.5415H137.087V12.5234H0V15.5415Z" fill="#A1A1FF" stroke="black" stroke-width="0.301055"/>
<path d="M149.25 2.8672L137.088 15.5433V12.5252L149.25 0V2.8672Z" fill="#A1A1FF" stroke="black" stroke-width="0.301055"/>
<path d="M150 3.61967L137.688 16.1448V13.1267L150 0.601562V3.61967Z" fill="#A1A1FF" stroke="black" stroke-width="0.301055"/>
<path d="M0 57.6431H137.087V54.625H0V57.6431Z" fill="#A1A1FF" stroke="black" stroke-width="0.301055"/>
<path d="M149.55 45.2735L137.088 57.6477V54.6296L149.55 42.4062V45.2735Z" fill="#A1A1FF" stroke="black" stroke-width="0.301055"/>
<path d="M150 46.0259L137.688 58.2493V55.2312L150 43.0078V46.0259Z" fill="#A1A1FF" stroke="black" stroke-width="0.301055"/>
<path d="M0 102.917H137.087V99.8984H0V102.917Z" fill="#A1A1FF" stroke="black" stroke-width="0.301055"/>
<path d="M149.55 91.7525L137.088 102.919V99.9014L149.55 88.7344V91.7525Z" fill="#A1A1FF" stroke="black" stroke-width="0.301055"/>
<path d="M150 92.354L137.688 103.672V100.654L150 89.3359V92.354Z" fill="#A1A1FF" stroke="black" stroke-width="0.301055"/>
<path d="M0.150391 16.1431H137.688V13.125H0.150391V16.1431Z" fill="#A1A1FF" stroke="black" stroke-width="0.301055"/>
<path d="M0.150391 58.2525H137.688V55.2344H0.150391V58.2525Z" fill="#A1A1FF" stroke="black" stroke-width="0.301055"/>
<path d="M0.150391 103.674H137.688V100.656H0.150391V103.674Z" fill="#A1A1FF" stroke="black" stroke-width="0.301055"/>
<path d="M2.25195 150.002H137.387V146.984H2.25195V150.002Z" fill="#A1A1FF" stroke="black" stroke-width="0.301055"/>
<path d="M3.15234 70.7732H40.84V33.0469H3.15234V70.7732Z" fill="#A1A1FF" stroke="black" stroke-width="0.301055"/>
<path d="M44.4454 68.2124L40.8418 70.7778V33.0514L44.4454 29.4297V68.2124Z" fill="#6060E0" stroke="black" stroke-width="0.301055"/>
<path d="M9.15835 29.4297H44.1433L40.84 33.0514H3.15234L9.15835 29.4297Z" fill="#7F7FFF" stroke="black" stroke-width="0.301055"/>
<path d="M86.0364 93.4075L80.631 96.7274L73.7241 97.9346L67.2676 96.7274L61.5619 92.9548L57.658 87.3713L56.3066 80.4296L57.658 73.488L61.5619 68.2063L128.529 20.822L129.88 20.0674L131.081 19.7656L132.883 20.0674L134.084 20.822L135.135 22.0292L135.436 23.8401L135.135 25.5L86.0364 93.4075Z" fill="#0000AD" stroke="black" stroke-width="0.301055"/>
<path d="M84.6848 93.4075L79.4296 96.7274L72.5226 97.9346L65.4656 96.7274L59.91 92.9548L56.3064 87.3713L54.9551 80.4296L56.3064 73.488L59.91 68.2063L126.877 20.822L128.078 20.0674L129.88 19.7656L131.382 20.0674L132.883 20.822L133.784 22.0292L134.084 23.8401L133.484 25.5L84.6848 93.4075Z" fill="#7F7FFF" stroke="black" stroke-width="0.301055"/>
<path d="M129.88 25.8064C130.958 25.8064 131.832 24.928 131.832 23.8446C131.832 22.7611 130.958 21.8828 129.88 21.8828C128.802 21.8828 127.928 22.7611 127.928 23.8446C127.928 24.928 128.802 25.8064 129.88 25.8064Z" stroke="black" stroke-width="0.301055"/>
<path d="M72.2219 98.0853C81.9242 98.0853 89.7894 90.1805 89.7894 80.4294C89.7894 70.6783 81.9242 62.7734 72.2219 62.7734C62.5196 62.7734 54.6543 70.6783 54.6543 80.4294C54.6543 90.1805 62.5196 98.0853 72.2219 98.0853Z" fill="#7F7FFF" stroke="black" stroke-width="0.301055"/>
<path d="M7.20682 45.7266L8.10772 46.0284L8.85847 46.9338L8.10772 47.9901L7.20682 48.292L6.15577 47.9901L5.85547 46.9338L6.15577 46.0284L7.20682 45.7266Z" fill="black"/>
<path d="M7.20682 49.9531L8.10772 50.2549L8.85847 51.3113L8.10772 52.2167L7.20682 52.6694L6.15577 52.2167L5.85547 51.3113L6.15577 50.2549L7.20682 49.9531Z" fill="black"/>
<path d="M7.2073 45.7266L8.1082 46.3302L8.55865 46.9338L8.1082 47.9901L7.2073 48.292L6.45655 47.9901L6.15625 46.9338L6.45655 46.3302L7.2073 45.7266Z" fill="#FF0000"/>
<path d="M7.2073 49.9531L8.1082 50.2549L8.55865 51.3113L8.1082 51.9149L7.2073 52.2167L6.45655 51.9149L6.15625 51.3113L6.45655 50.2549L7.2073 49.9531Z" fill="#00FF00"/>
<path d="M38.5886 46.0234L39.1892 46.3252V46.6271V46.9289L38.5886 47.2307L38.1382 46.9289L37.8379 46.6271L38.1382 46.3252L38.5886 46.0234Z" fill="#7F7F7F"/>
<path d="M31.832 56.2891H33.784V58.5526H31.832V56.2891Z" fill="white" stroke="black" stroke-width="0.301055"/>
<path d="M31.832 47.2344H33.784V49.3471H31.832V47.2344Z" fill="white" stroke="black" stroke-width="0.301055"/>
<path d="M31.832 38.0312H33.784V39.993H31.832V38.0312Z" fill="white" stroke="black" stroke-width="0.301055"/>
<path d="M21.9219 56.2891H24.024V58.5526H21.9219V56.2891Z" fill="white" stroke="black" stroke-width="0.301055"/>
<path d="M21.9219 47.2344H24.024V49.3471H21.9219V47.2344Z" fill="white" stroke="black" stroke-width="0.301055"/>
<path d="M21.9219 38.0312H24.024V39.993H21.9219V38.0312Z" fill="white" stroke="black" stroke-width="0.301055"/>
<path d="M11.8613 56.2891H13.8133V58.5526H11.8613V56.2891Z" fill="white" stroke="black" stroke-width="0.301055"/>
<path d="M11.8613 47.2344H13.8133V49.3471H11.8613V47.2344Z" fill="white" stroke="black" stroke-width="0.301055"/>
<path d="M11.8613 38.0312H13.8133V39.993H11.8613V38.0312Z" fill="white" stroke="black" stroke-width="0.301055"/>
<path d="M15.4659 62.9297L17.7181 63.8351L18.3187 65.7969L17.7181 68.2114L15.4659 68.815L13.5139 68.2114L12.4629 65.7969L13.5139 63.8351L15.4659 62.9297Z" fill="white" stroke="black" stroke-width="0.301055"/>
<path d="M15.4648 66.2455L16.3657 64.1328" stroke="black" stroke-width="0.301055"/>
<path d="M13.5137 65.4922H13.814" stroke="black" stroke-width="0.301055"/>
<path d="M14.4141 64.1328V64.5855" stroke="black" stroke-width="0.301055"/>
<path d="M17.4172 64.1328L16.9668 64.5855" stroke="black" stroke-width="0.301055"/>
<path d="M17.7183 66.25H17.418" stroke="black" stroke-width="0.301055"/>
<path d="M27.3272 62.9297L24.9248 63.8351L24.3242 65.7969L24.9248 68.2114L27.3272 68.815L29.2792 68.2114L30.1801 65.7969L29.2792 63.8351L27.3272 62.9297Z" fill="white" stroke="black" stroke-width="0.301055"/>
<path d="M27.3264 66.2455L26.2754 64.1328" stroke="black" stroke-width="0.301055"/>
<path d="M29.2788 65.4922H28.9785" stroke="black" stroke-width="0.301055"/>
<path d="M28.228 64.1328L27.9277 64.5855" stroke="black" stroke-width="0.301055"/>
<path d="M25.375 64.1328L25.6753 64.5855" stroke="black" stroke-width="0.301055"/>
<path d="M24.625 66.25H25.3758" stroke="black" stroke-width="0.301055"/>
<path d="M28.6777 70.1719V105.936L29.8789 112.274L33.6327 117.858L38.1372 121.782L43.5426 123.592H85.2843" stroke="black" stroke-width="0.301055"/>
<path d="M31.832 70.1719V104.578L33.1834 110.313L36.4867 115.293L40.841 118.914L45.796 120.574H85.2855" stroke="black" stroke-width="0.301055"/>
<path d="M79.4297 131.438L96.2465 134.154V136.116H102.102L101.802 134.456H121.171L121.622 136.418L126.577 136.116V133.702L121.922 127.514L81.3816 126.156L79.4297 131.438Z" fill="#7F7F7F"/>
<path d="M114.715 119.219H118.919L121.922 119.521L124.925 120.275H125.526H114.715V119.219Z" fill="#7F7F7F"/>
<path d="M126.877 129.781L124.925 130.838L121.922 131.441H118.919H114.715L115.015 129.781H126.877Z" fill="#7F7F7F"/>
<path d="M125.526 120.273L126.877 121.179L127.177 121.481H115.015L114.715 120.273H125.526Z" fill="#B2B2B2"/>
<path d="M127.929 127.82V128.726L126.877 129.782H115.016L115.316 127.82H127.929Z" fill="#B2B2B2"/>
<path d="M127.178 121.477L127.929 122.231V122.533H115.316L115.016 121.477H127.178Z" fill="#E5E5E5"/>
<path d="M127.927 125.553V124.195H115.314L115.615 125.553H127.927Z" fill="#E5E5E5"/>
<path d="M127.927 124.199V122.539H115.314V124.199H127.927Z" fill="#F0F0F0"/>
<path d="M127.927 125.555V126.762H115.314L115.615 125.555H127.927Z" fill="#E0E0E0"/>
<path d="M127.927 127.814V126.758H115.314V127.814H127.927Z" fill="#CCCCCC"/>
<path d="M114.715 119.219H118.919L121.922 119.521L124.925 120.275L126.877 121.181L127.928 122.237V125.557L127.478 128.726L126.877 129.782L124.925 130.838L121.922 131.442H118.919H114.715L115.616 125.557L114.715 119.219Z" stroke="black" stroke-width="0.301055"/>
<path d="M92.4932 118.609H89.4902V132.794H92.4932V118.609Z" fill="#0000FF" stroke="black" stroke-width="0.301055"/>
<path d="M92.4922 119.82H114.714V131.44H92.4922V119.82Z" fill="#0000FF" stroke="black" stroke-width="0.301055"/>
<path d="M116.967 117.555H114.715V133.702H116.967V117.555Z" fill="#0000FF" stroke="black" stroke-width="0.301055"/>
<path d="M77.627 118.609H80.63V132.794H77.627V118.609Z" fill="#7F7F7F" stroke="black" stroke-width="0.301055"/>
<path d="M86.6369 119.82H80.6309V131.44H86.6369V119.82Z" fill="#7F7F7F" stroke="black" stroke-width="0.301055"/>
<path d="M86.6367 118.609H89.4896V132.794H86.6367V118.609Z" fill="#7F7F7F" stroke="black" stroke-width="0.301055"/>
<path d="M86.6369 131.742H80.6309V132.195H86.6369V131.742Z" fill="#7F7F7F" stroke="black" stroke-width="0.301055"/>
<path d="M86.6369 119.219H80.6309V119.521H86.6369V119.219Z" fill="#7F7F7F" stroke="black" stroke-width="0.301055"/>
<path d="M77.627 119.219H80.63V119.822H77.627V119.219Z" fill="#F0F0F0"/>
<path d="M86.6369 120.57H80.6309V121.174H86.6369V120.57Z" fill="#F0F0F0"/>
<path d="M86.6367 120.57H89.4896V121.476H86.6367V120.57Z" fill="#F0F0F0"/>
<path d="M92.4932 120.57H89.4902V121.174H92.4932V120.57Z" fill="#F0F0F0"/>
<path d="M92.4922 121.781H114.714V122.536H92.4922V121.781Z" fill="#F0F0F0"/>
<path d="M116.967 119.82H114.715V121.782H116.967V119.82Z" fill="#F0F0F0"/>
<path d="M107.658 74.5469H130.781L134.385 78.1686V90.6938L130.781 94.0137H107.658L104.055 90.6938V78.1686L107.658 74.5469Z" fill="#00FFFF"/>
<path d="M128.079 74.5469H124.925L121.622 78.1686L121.922 80.4322L119.22 84.5066V87.072L116.067 90.6938L112.313 93.4101L111.262 94.0137H117.568L120.571 92.3537L122.973 87.9775V84.8084L125.526 81.0358L124.925 78.1686L128.079 74.5469Z" fill="white"/>
<path fill-rule="evenodd" clip-rule="evenodd" d="M107.358 74.0938H131.081L134.835 77.7155V90.6933L131.081 94.3151H107.358L103.754 90.6933V77.7155L107.358 74.0938ZM108.409 75.1501H130.18L133.484 78.47V90.0897L130.18 93.4096H108.409L105.105 90.0897V78.47L108.409 75.1501Z" fill="black"/>
</g>
<defs>
<clipPath id="clip0_2122_166205">
<rect width="150" height="150" fill="white"/>
</clipPath>
</defs>
</svg>
