<svg width="150" height="150" viewBox="0 0 150 150" fill="none" xmlns="http://www.w3.org/2000/svg">
<g clip-path="url(#clip0_2122_164624)">
<path d="M138.588 3.02344H147.297L149.999 11.669H142.792L138.588 13.3981V3.02344Z" fill="#194C32"/>
<path d="M11.2613 3.02344H2.55255L0 11.669H7.05706L11.2613 13.3981V3.02344Z" fill="#194C32"/>
<path d="M9.1582 5.6196L9.7588 142.219H140.089L140.69 5.6196L138.137 4.32277L135.735 3.02594L133.483 2.59366L131.23 1.72911H129.128H127.026H125.074L123.122 2.16138L121.17 2.59366L119.368 3.02594L117.567 3.89049L115.765 4.75504L114.113 5.6196L112.311 6.48415L110.51 7.3487L108.858 8.21326L107.056 9.07781L105.254 9.94236L103.452 10.8069L101.651 11.6715L99.8489 12.1037L97.8969 12.536L95.945 12.9683H93.8429H91.8909H89.7888L87.5366 12.536L85.1342 11.6715L82.7318 10.8069L80.3294 9.07781L77.6267 7.78098L74.924 5.6196L72.972 4.32277L71.0201 3.02594L69.2183 2.16138L67.2663 1.29683L65.3144 0.432277L63.3624 0H61.4104H59.4585H57.5065H55.5546H53.4525L51.5005 0.432277L49.5486 0.864553L47.4465 1.29683L45.4945 1.72911L43.3924 2.16138L41.4405 3.02594L39.3384 3.45821L37.2363 4.32277L35.1342 4.75504L33.0321 5.18732L30.93 5.6196L28.8279 6.05187L26.7258 6.48415L24.6237 6.91643H22.5216L20.2693 7.3487H18.1672L15.915 6.91643H13.6627L11.4105 6.05187L9.1582 5.6196Z" fill="#7F330D"/>
<path d="M140.69 5.6196L138.137 4.32277L135.735 3.02594L133.483 2.59366L131.23 1.72911H129.128H127.026H125.074L123.122 2.16138L121.17 2.59366L119.368 3.02594L117.567 3.89049L115.765 4.75504L113.963 5.6196L112.161 6.48415L110.51 7.3487L108.708 8.21326L106.906 9.07781L105.104 9.94236L103.302 10.8069L101.501 11.6715L99.6987 12.1037L97.7468 12.536L95.7948 12.9683H93.8429H91.7408H89.6387L87.3864 12.536L85.1342 11.6715L82.7318 10.8069L80.1792 9.07781L77.6267 7.78098L74.924 5.6196L72.972 4.32277L71.1702 3.02594L69.2183 2.16138L67.2663 1.29683L65.3144 0.864553L63.5126 0.432277H61.5606L59.6086 0H57.6567L55.7047 0.432277H53.6026L51.6507 0.864553L49.6987 1.29683L47.5966 1.72911L45.6447 2.16138L43.5426 2.59366L41.4405 3.45821L39.3384 3.89049L37.3864 4.32277L35.2843 4.75504L33.1822 5.6196L31.0801 6.05187L28.978 6.48415L26.7258 6.91643H24.6237L22.5216 7.3487H20.2693H18.1672L15.915 6.91643H13.6627L11.4105 6.05187L9.1582 5.6196" stroke="black" stroke-width="0.509535"/>
<path d="M9.1582 11.6691L9.7588 35.8766H140.089L140.69 11.6691L138.137 10.3722L135.735 9.0754L133.483 8.64312L131.23 7.77857H129.128H127.026H125.074L123.122 8.21085L121.17 8.64312L119.368 9.0754L117.567 9.93995L115.765 10.8045L114.113 11.6691L112.311 12.5336L110.51 13.3982L108.858 14.2627L107.056 15.1273L105.254 15.9918L103.452 16.8564L101.651 17.7209L99.8489 18.1532L97.8969 18.5855L95.945 19.0178H93.8429H91.8909H89.7888L87.5366 18.5855L85.1342 17.7209L82.7318 16.8564L80.3294 15.1273L77.6267 13.8304L74.924 11.6691L72.972 10.3722L71.0201 9.0754L69.2183 8.21085L67.2663 7.34629L65.3144 6.48174L63.3624 6.04946H61.4104L59.4585 5.61719L57.5065 6.04946H55.5546H53.4525L51.5005 6.48174L49.5486 6.91402L47.4465 7.34629L45.4945 7.77857L43.3924 8.21085L41.4405 9.0754L39.3384 9.50768L37.2363 10.3722L35.1342 10.8045L33.0321 11.2368L30.93 11.6691L28.8279 12.1013L26.7258 12.5336L24.6237 12.9659H22.5216L20.2693 13.3982H18.1672L15.915 12.9659H13.6627L11.4105 12.1013L9.1582 11.6691Z" fill="#B27F65"/>
<path d="M7.05664 29.8281H143.093V109.367H7.05664V29.8281Z" fill="#AD785C"/>
<path d="M7.05664 41.0625H143.093V109.362H7.05664V41.0625Z" fill="#A87051"/>
<path d="M7.05664 52.3047H143.093V109.365H7.05664V52.3047Z" fill="#A3664A"/>
<path d="M7.05664 62.6797H143.093V109.366H7.05664V62.6797Z" fill="#9E5E3F"/>
<path d="M7.05664 73.9219H143.093V109.369H7.05664V73.9219Z" fill="#945433"/>
<path d="M7.05664 84.2969H143.093V109.369H7.05664V84.2969Z" fill="#8F4D29"/>
<path d="M7.05664 95.5312H143.093V109.364H7.05664V95.5312Z" fill="#8A4221"/>
<path d="M7.05664 106.773H143.093V117.148H7.05664V106.773Z" fill="#853B17"/>
<path d="M6.75586 149.998H142.792V10.8047H140.389L109.158 133.571H40.9901L9.75886 10.8047H7.05616L6.75586 149.998Z" fill="#A6BABA"/>
<path d="M138.889 4.75254V3.02344H147.297L150 10.8044H142.793V149.997H6.75676L7.05706 10.8044H0L2.55255 3.02344H11.2613V7.3462" stroke="black" stroke-width="0.509535"/>
</g>
<defs>
<clipPath id="clip0_2122_164624">
<rect width="150" height="150" fill="white"/>
</clipPath>
</defs>
</svg>
