<svg width="150" height="150" viewBox="0 0 150 150" fill="none" xmlns="http://www.w3.org/2000/svg">
<path d="M13.0625 116.919H65.6151V45.9844H13.0625V116.919Z" fill="#7F7F7F" stroke="black" stroke-width="0.410357"/>
<path d="M27.0273 111.031H32.4327V45.9844H27.0273V111.031Z" fill="#4C4C4C"/>
<path d="M50.1504 37.2891H106.607V61.962H50.1504V37.2891Z" fill="#333333"/>
<path d="M43.2441 79.3438H107.358V138.503H43.2441V79.3438Z" fill="#666666"/>
<path d="M140.69 80.7485H146.846L149.248 73.4587L146.846 64.7672L142.942 61.9634L133.633 57.7578L146.095 66.4494L148.348 73.4587L146.095 79.3466H134.534L140.69 80.7485Z" fill="#0000FF"/>
<path d="M99.6992 129.81H55.5551L43.9935 93.6422L19.2188 59.1562V60.5581L43.2428 95.0441L54.8043 132.614H99.6992V129.81Z" fill="#0000FF"/>
<path d="M56.3061 136.825C60.5353 136.825 63.9638 130.423 63.9638 122.526C63.9638 114.628 60.5353 108.227 56.3061 108.227C52.0769 108.227 48.6484 114.628 48.6484 122.526C48.6484 130.423 52.0769 136.825 56.3061 136.825Z" fill="black"/>
<path d="M109.76 132.613L111.111 126.445L114.414 123.922L117.718 126.445L119.069 132.613L117.718 138.782L114.414 141.305L111.111 138.782L109.76 132.613Z" fill="#4C4C4C"/>
<path d="M112.012 79.3445H146.096L149.249 73.4566L146.096 67.8492L112.012 44.5781V79.3445Z" fill="black"/>
<path d="M82.5834 96.4497C86.8126 96.4497 90.2411 90.0478 90.2411 82.1506C90.2411 74.2535 86.8126 67.8516 82.5834 67.8516C78.3542 67.8516 74.9258 74.2535 74.9258 82.1506C74.9258 90.0478 78.3542 96.4497 82.5834 96.4497Z" fill="black"/>
<path d="M81.0806 90.8394V137.101H68.7683V125.606L40.8404 113.83V102.335L19.2188 67.8488V61.9609L43.9935 96.4469L81.0806 90.8394Z" fill="#B2B2B2" stroke="black" stroke-width="0.410357"/>
<path d="M60.9603 102.058C68.5895 102.058 74.7741 90.509 74.7741 76.2631C74.7741 62.0173 68.5895 50.4688 60.9603 50.4688C53.3311 50.4688 47.1465 62.0173 47.1465 76.2631C47.1465 90.509 53.3311 102.058 60.9603 102.058Z" fill="#CCCCCC"/>
<path d="M112.013 148.6V102.338H130.632V90.8429H112.013V56.0766H124.475V79.3476H130.632L139.941 56.0766V38.6934H109.01V33.0859H93.5445V40.3757H99.7007V50.4691H60.9619V90.8429H68.7697V61.9644L99.7007 70.656V67.8523L68.7697 59.1607V56.0766H99.7007V90.8429H19.2202V56.0766L81.082 44.5813V33.0859H0.601562V56.0766H6.90787V148.6H19.2202V102.338H99.7007V148.6H112.013Z" fill="#E5E5E5" stroke="black" stroke-width="0.410357"/>
<path d="M70.2695 148.597V137.102H79.5788V148.597H70.2695Z" fill="#E5E5E5" stroke="black" stroke-width="0.410357"/>
<path d="M3.75391 33.0863H107.358V15.7031H3.75391V33.0863Z" fill="#CCCCCC" stroke="black" stroke-width="0.410357"/>
<path d="M13.0625 9.8125H107.357V15.7003H13.0625V9.8125Z" fill="#B2B2B2" stroke="black" stroke-width="0.410357"/>
<path d="M107.357 33.0876V1.125H110.511V33.0876H107.357Z" fill="#E5E5E5" stroke="black" stroke-width="0.410357"/>
<path d="M14.5645 15.7044V1.125H17.7176V15.7044H14.5645Z" fill="#E5E5E5" stroke="black" stroke-width="0.410357"/>
<path d="M23.873 15.7044V1.125H27.0262V15.7044H23.873Z" fill="#E5E5E5" stroke="black" stroke-width="0.410357"/>
<path d="M33.0332 15.7044V1.125H36.1864V15.7044H33.0332Z" fill="#E5E5E5" stroke="black" stroke-width="0.410357"/>
<path d="M42.3418 15.7044V1.125H45.495V15.7044H42.3418Z" fill="#E5E5E5" stroke="black" stroke-width="0.410357"/>
<path d="M51.6523 15.7044V1.125H54.8055V15.7044H51.6523Z" fill="#E5E5E5" stroke="black" stroke-width="0.410357"/>
<path d="M60.9609 15.7044V1.125H64.1141V15.7044H60.9609Z" fill="#E5E5E5" stroke="black" stroke-width="0.410357"/>
<path d="M70.2695 15.7044V1.125H73.2725V15.7044H70.2695Z" fill="#E5E5E5" stroke="black" stroke-width="0.410357"/>
<path d="M79.5801 15.7044V1.125H82.5831V15.7044H79.5801Z" fill="#E5E5E5" stroke="black" stroke-width="0.410357"/>
<path d="M88.7383 15.7044V1.125H91.8914V15.7044H88.7383Z" fill="#E5E5E5" stroke="black" stroke-width="0.410357"/>
<path d="M98.0488 15.7044V1.125H101.202V15.7044H98.0488Z" fill="#E5E5E5" stroke="black" stroke-width="0.410357"/>
<path d="M110.51 79.3492L112.011 56.0781H118.167L119.819 79.3492V93.6482H110.51V79.3492Z" fill="#4C4C4C"/>
<path d="M6.90625 59.1562H19.2186V60.5581H6.90625V59.1562Z" fill="#4C4C4C"/>
<path d="M6.90625 61.9609H19.2186V66.4469H6.90625V61.9609Z" fill="#4C4C4C"/>
<path d="M6.90625 67.8516H19.2186V69.2534H6.90625V67.8516Z" fill="#4C4C4C"/>
<path d="M135.285 34.486L136.036 31.4019L137.537 30L139.189 31.4019L139.94 34.486L139.189 37.5701L137.537 38.6916L136.036 37.5701L135.285 34.486Z" stroke="black" stroke-width="0.410357"/>
<path d="M56.3066 74.8635L57.658 68.6952L60.9613 66.1719L64.2646 68.6952L65.6159 74.8635L64.2646 81.0317L60.9613 83.5551L57.658 81.0317L56.3066 74.8635Z" fill="#4C4C4C"/>
<path d="M96.5469 24.3947L97.8982 18.2265L101.202 15.7031L104.505 18.2265L105.856 24.3947L104.505 30.5629L101.202 33.0863L97.8982 30.5629L96.5469 24.3947Z" fill="#4C4C4C"/>
<path d="M72.6719 131.213L73.2725 128.129L74.9241 127.008L76.5758 128.129L77.1764 131.213L76.5758 134.578L74.9241 135.699L73.2725 134.578L72.6719 131.213Z" fill="#4C4C4C"/>
<path d="M71.9219 141.311L72.6726 137.105L74.9249 135.703L77.1771 137.105L77.9279 141.311L77.1771 145.516L74.9249 147.198L72.6726 145.516L71.9219 141.311Z" stroke="black" stroke-width="0.410357"/>
<path d="M72.6719 145.232L77.1764 137.102" stroke="black" stroke-width="0.410357"/>
<path d="M77.1764 145.513L72.6719 137.102" stroke="black" stroke-width="0.410357"/>
<path d="M74.9258 147.198V135.703" stroke="black" stroke-width="0.410357"/>
<path d="M71.9219 141.305H78.078" stroke="black" stroke-width="0.410357"/>
<path d="M91.8926 64.7656H99.7004V76.261H91.8926V64.7656Z" fill="#CCCCCC" stroke="black" stroke-width="0.410357"/>
<path d="M93.543 76.2578H98.1976V139.903H93.543V76.2578Z" fill="#CCCCCC"/>
<path d="M94.2949 76.2578H97.2979V139.903H94.2949V76.2578Z" fill="#E5E5E5"/>
<path d="M95.0449 76.2578H96.5464V139.903H95.0449V76.2578Z" fill="white"/>
<path d="M93.543 148.595H98.1976V144.109H93.543V148.595Z" fill="#999999"/>
<path d="M94.2949 148.595H97.2979V144.109H94.2949V148.595Z" fill="#B2B2B2"/>
<path d="M95.0449 148.595H96.5464V144.109H95.0449V148.595Z" fill="#CCCCCC"/>
<path d="M93.543 144.111H98.1976V137.102H93.543V144.111Z" fill="#B2B2B2"/>
<path d="M94.2949 144.111H97.2979V137.102H94.2949V144.111Z" fill="#CCCCCC"/>
<path d="M95.0449 144.111H96.5464V137.102H95.0449V144.111Z" fill="#E5E5E5"/>
<path d="M93.543 76.2578H98.1976V148.594H93.543V76.2578Z" stroke="black" stroke-width="0.410357"/>
<path d="M61.712 76.2631H60.2105L56.3066 50.4688H58.709L61.712 76.2631Z" fill="#CC4C4C"/>
<path d="M116.666 61.9654L113.513 47.386L105.104 35.8906H95.7949V38.6944H104.353L112.011 49.0682L115.164 61.9654H116.666Z" fill="black"/>
<path d="M119.07 79.3438H111.262" stroke="white" stroke-width="0.410357"/>
<path d="M13.0625 5.60938H107.357" stroke="black" stroke-width="0.410357"/>
</svg>
