<svg width="150" height="150" viewBox="0 0 150 150" fill="none" xmlns="http://www.w3.org/2000/svg">
<g clip-path="url(#clip0_2122_164889)">
<path d="M147.598 4.50781L91.2918 17.1331H66.3669L10.0605 4.50781V121.742H147.598V4.50781Z" fill="#D9D9D9" stroke="black" stroke-width="0.424901"/>
<path d="M81.2305 131.065L137.387 150.003V24.9531H81.2305V131.065Z" fill="#F2F2F2" stroke="black" stroke-width="0.424901"/>
<path d="M137.387 24.9499L139.789 20.1403V137.375L147.597 121.743V4.50902L149.999 0V125.05L137.387 150V24.9499Z" fill="#B2B2B2" stroke="black" stroke-width="0.424901"/>
<path d="M10.0605 4.50902L12.4629 0L68.6191 12.3246H93.6942L150 0L147.598 4.50902L91.2918 17.1343H65.6161L10.0605 4.50902Z" fill="white" stroke="black" stroke-width="0.424901"/>
<path d="M137.387 24.9502L139.79 20.1406H2.25225L0 24.9502H137.387Z" fill="white" stroke="black" stroke-width="0.424901"/>
<path d="M56.1562 131.065H81.2313V24.9531H56.1562V131.065Z" fill="#D9D9D9" stroke="black" stroke-width="0.424901"/>
<path d="M0 150.003L56.1562 131.065V24.9531H0V150.003Z" fill="#BFBFBF" stroke="black" stroke-width="0.424901"/>
<path d="M56.1562 24.9502L58.5587 20.1406" stroke="black" stroke-width="0.424901"/>
<path d="M81.2305 24.9502L83.4827 20.1406" stroke="black" stroke-width="0.424901"/>
<path d="M68.6182 12.3281L65.6152 17.1377V20.1438" stroke="black" stroke-width="0.424901"/>
<path d="M90.541 20.1438V17.1377L93.6942 12.3281" stroke="black" stroke-width="0.424901"/>
<path d="M6.15625 35.7734H13.9641V137.377H6.15625V35.7734Z" fill="#A6A6A6"/>
<path d="M23.4238 35.7734H31.2316V131.064H23.4238V35.7734Z" fill="#A6A6A6"/>
<path d="M41.291 35.7734H49.0988V125.052H41.291V35.7734Z" fill="#A6A6A6"/>
<path d="M6.15625 137.377V35.7734H13.9641" stroke="black" stroke-width="0.424901"/>
<path d="M23.4238 131.064V35.7734H31.2316" stroke="black" stroke-width="0.424901"/>
<path d="M41.291 125.052V35.7734H49.0988" stroke="black" stroke-width="0.424901"/>
<path d="M123.424 35.7734H131.232V137.377H123.424V35.7734Z" fill="#D9D9D9"/>
<path d="M105.406 35.7734H113.214V131.064H105.406V35.7734Z" fill="#D9D9D9"/>
<path d="M88.2891 35.7734H96.0969V125.052H88.2891V35.7734Z" fill="#D9D9D9"/>
<path d="M62.4629 125.049H74.9254V30.9609H62.4629V125.049Z" fill="#F2F2F2"/>
<path d="M74.9254 30.9609V125.049H62.4629" stroke="black" stroke-width="0.424901"/>
<path d="M88.2891 125.052V35.7734H96.0969" stroke="#7F7F7F" stroke-width="0.424901"/>
<path d="M105.406 131.064V35.7734H113.214" stroke="#7F7F7F" stroke-width="0.424901"/>
<path d="M123.424 137.377V35.7734H131.232" stroke="#7F7F7F" stroke-width="0.424901"/>
</g>
<defs>
<clipPath id="clip0_2122_164889">
<rect width="150" height="150" fill="white"/>
</clipPath>
</defs>
</svg>
