<svg width="150" height="150" viewBox="0 0 150 150" fill="none" xmlns="http://www.w3.org/2000/svg">
<g clip-path="url(#clip0_2122_167321)">
<path d="M143.994 144.141V145.342H15.916V144.141H143.994Z" fill="#333333"/>
<path d="M15.916 16.2188H143.994V144.147H15.916V16.2188Z" fill="#F2F2F2"/>
<path d="M132.582 144.141H149.999V149.996H132.582V144.141Z" fill="#CCCCCC" stroke="black" stroke-width="0.3003"/>
<path d="M109.158 144.141H120.87V149.996H109.158V144.141Z" fill="#CCCCCC" stroke="black" stroke-width="0.3003"/>
<path d="M85.7363 144.141H97.448V149.996H85.7363V144.141Z" fill="#CCCCCC" stroke="black" stroke-width="0.3003"/>
<path d="M62.6133 144.141H74.325V149.996H62.6133V144.141Z" fill="#CCCCCC" stroke="black" stroke-width="0.3003"/>
<path d="M39.1895 144.141H50.9012V149.996H39.1895V144.141Z" fill="#CCCCCC" stroke="black" stroke-width="0.3003"/>
<path d="M10.0605 144.141H27.478V149.996H10.0605V144.141Z" fill="#CCCCCC" stroke="black" stroke-width="0.3003"/>
<path d="M80.0293 59.6113L143.993 21.7734V80.0317H80.0293V59.6113Z" fill="#EBEBEB"/>
<path d="M15.916 106.158L80.0301 68.3203V144.146H15.916V106.158Z" fill="#EBEBEB"/>
<path d="M80.0293 123.873L143.993 85.7344V144.143H80.0293V123.873Z" fill="#EBEBEB"/>
<path d="M80.0293 68.3222L143.993 30.4844V80.0339H80.0293V68.3222Z" fill="#E5E5E5"/>
<path d="M15.916 115.162L80.0301 77.0234V144.141H15.916V115.162Z" fill="#E5E5E5"/>
<path d="M80.0293 132.58L143.993 94.7422V144.142H80.0293V132.58Z" fill="#E5E5E5"/>
<path d="M80.6309 80.6309V79.4297H144.144V80.6309H80.6309Z" fill="#B2B2B2"/>
<path d="M79.4297 16.2188H80.6309V144.147H79.4297V16.2188Z" fill="#B2B2B2"/>
<path d="M100.451 30.4844H123.875V49.4033H100.451V30.4844Z" fill="#336666"/>
<path d="M107.658 81.5312H116.667V88.7385H107.658V81.5312Z" fill="#4C4C4C"/>
<path d="M110.66 60.5078H113.663V62.9102H110.66V60.5078Z" fill="black"/>
<path d="M72.8223 80.0312H75.525V82.1334H72.8223V80.0312Z" fill="black"/>
<path d="M68.3184 70.4219H74.925V75.8273H68.3184V70.4219Z" fill="#CCCCCC"/>
<path d="M15.916 18.1719H14.7148V141.896H15.916V18.1719Z" fill="#003333"/>
<path d="M0 23.2734H7.05706V136.787H0V23.2734Z" fill="#F2F2F2" stroke="black" stroke-width="0.3003"/>
<path d="M15.916 16.2188H143.994V144.147H15.916V16.2188Z" stroke="black" stroke-width="0.3003"/>
<path d="M7.05664 21.7734H14.7143V138.29H7.05664V21.7734Z" fill="#336666" stroke="black" stroke-width="0.3003"/>
<path d="M7.95703 31.9844H13.6627V47.9003H7.95703V31.9844Z" fill="#999999"/>
<path d="M7.95703 52.4062H13.6627V68.3222H7.95703V52.4062Z" fill="#999999"/>
<path d="M7.95703 71.9219H13.6627V88.1381H7.95703V71.9219Z" fill="#999999"/>
<path d="M7.95703 92.3438H13.6627V108.56H7.95703V92.3438Z" fill="#999999"/>
<path d="M7.95703 112.766H13.6627V128.982H7.95703V112.766Z" fill="#999999"/>
<path d="M8.55859 118.766H13.0631V122.97H8.55859V118.766Z" fill="#4C4C4C"/>
<path d="M8.55859 98.3516H13.0631V102.556H8.55859V98.3516Z" fill="#4C4C4C"/>
<path d="M8.55859 37.6875H13.0631V42.192H8.55859V37.6875Z" fill="#4C4C4C"/>
<path d="M8.55859 58.1094H13.0631V62.6139H8.55859V58.1094Z" fill="#4C4C4C"/>
<path d="M8.55859 77.9297H13.0631V82.1339H8.55859V77.9297Z" fill="#4C4C4C"/>
<path d="M0.900391 80.0318L3.00249 77.9297L5.10459 80.0318L3.00249 82.1339L0.900391 80.0318Z" fill="black"/>
<path d="M3.00345 78.5312H15.9164V81.5343H3.00345L1.50195 80.0328L3.00345 78.5312Z" fill="#7F7F7F"/>
<path d="M3.00394 78.8281H16.2171V80.9302H3.00394L1.80273 80.0293L3.00394 78.8281Z" fill="#ABABAB"/>
<path d="M3.00246 79.1328H16.2157V80.334H3.00246L2.10156 80.0337L3.00246 79.1328Z" fill="#D4D4D4"/>
<path d="M3.00246 79.4297H15.9154V80.0303H3.00246H2.10156L3.00246 79.4297Z" fill="white"/>
<path d="M3.00345 78.5312H15.9164V81.5343H3.00345L1.50195 80.0328L3.00345 78.5312Z" stroke="black" stroke-width="0.3003"/>
<path d="M101.951 45.1953H122.372V47.898H101.951V45.1953Z" fill="#7F7F7F" stroke="#4C4C4C" stroke-width="0.3003"/>
<path d="M100.451 49.4033H123.875V30.4844L122.373 31.9859V47.9018H101.953L100.451 49.4033Z" fill="white"/>
<path d="M123.875 30.4844H100.451V49.4033L101.953 47.9018V31.9859H122.373L123.875 30.4844Z" fill="#999999"/>
<path d="M100.451 49.4033V30.4844H123.875" stroke="#666666" stroke-width="0.3003"/>
<path d="M42.192 16.2162V13.0631H37.6875L38.5884 5.85586H41.2911L43.6935 0H52.4022L54.5043 5.85586H57.5073L58.1079 13.0631H53.9037V16.2162H42.192Z" fill="#666666"/>
<path d="M43.0934 15.9159V13.0631H39.1895L39.7901 5.70571H42.4928L44.2946 0H51.8021L53.6039 5.70571H56.0063L56.9072 13.0631H53.0033V15.9159H43.0934Z" fill="#7A7A7A"/>
<path d="M43.9947 15.9159V13.0631H40.6914L41.292 5.70571H43.3941L44.8956 0H51.2019L52.7034 5.70571H54.8055L55.4061 13.0631H52.1028V15.9159H43.9947Z" fill="#919191"/>
<path d="M44.5938 15.9159V13.0631H42.1914L42.4917 5.70571H44.2935L45.4947 0H50.5998L51.801 5.70571H53.3025L53.9031 13.0631H51.2004V15.9159H44.5938Z" fill="#A6A6A6"/>
<path d="M45.4952 15.9159V13.0631H43.6934L43.9937 5.70571H45.1949L46.0958 0H49.9997L50.9006 5.70571H52.1018L52.4021 13.0631H50.6003V15.9159H45.4952Z" fill="#BABABA"/>
<path d="M46.3965 15.9159V13.0631H45.1953V5.70571H46.0962L46.6968 0H49.0992L50.0001 5.70571H50.6007L50.901 13.0631H49.6998V15.9159H46.3965Z" fill="#D1D1D1"/>
<path d="M47.898 16.2162C48.7272 16.2162 49.3995 12.5861 49.3995 8.10811C49.3995 3.63012 48.7272 0 47.898 0C47.0687 0 46.3965 3.63012 46.3965 8.10811C46.3965 12.5861 47.0687 16.2162 47.898 16.2162Z" fill="#E5E5E5"/>
<path d="M42.192 16.2162V13.0631H37.6875L38.5884 5.85586H41.2911L43.6935 0H52.4022L54.5043 5.85586H57.5073L58.1079 13.0631H53.9037V16.2162H42.192Z" stroke="black" stroke-width="0.3003"/>
<path d="M41.291 5.85938H54.5042" stroke="black" stroke-width="0.3003"/>
<path d="M42.1914 13.0625H53.9031" stroke="black" stroke-width="0.3003"/>
</g>
<defs>
<clipPath id="clip0_2122_167321">
<rect width="150" height="150" fill="white"/>
</clipPath>
</defs>
</svg>
