<svg width="150" height="150" viewBox="0 0 150 150" fill="none" xmlns="http://www.w3.org/2000/svg">
<path d="M42.9194 144.592L18.1406 110.508" stroke="#7F7F7F" stroke-width="0.515512"/>
<path d="M11.0625 145.342L45.1333 111.258" stroke="#7F7F7F" stroke-width="0.515512"/>
<path d="M107.08 144.592L131.859 110.508" stroke="#7F7F7F" stroke-width="0.515512"/>
<path d="M138.495 145.342L104.424 111.258" stroke="#7F7F7F" stroke-width="0.515512"/>
<path d="M45.1328 109.76L22.5664 60.9609" stroke="#7F7F7F" stroke-width="0.515512"/>
<path d="M17.6992 109.01L50.0001 60.2109" stroke="#7F7F7F" stroke-width="0.515512"/>
<path d="M104.424 109.76L127.433 60.9609" stroke="#7F7F7F" stroke-width="0.515512"/>
<path d="M131.858 109.01L100 60.2109" stroke="#7F7F7F" stroke-width="0.515512"/>
<path d="M100 58.7051L123.009 27.0234" stroke="#7F7F7F" stroke-width="0.515512"/>
<path d="M127.433 59.4559L97.7871 27.0234" stroke="#7F7F7F" stroke-width="0.515512"/>
<path d="M49.9991 58.7051L26.9902 27.0234" stroke="#7F7F7F" stroke-width="0.515512"/>
<path d="M22.5664 59.4559L52.2124 27.0234" stroke="#7F7F7F" stroke-width="0.515512"/>
<path d="M52.2129 142.94L95.5757 110.508" stroke="#7F7F7F" stroke-width="0.515512"/>
<path d="M97.7867 142.94L54.4238 110.508" stroke="#7F7F7F" stroke-width="0.515512"/>
<path d="M56.6367 106.607L90.7075 60.9609" stroke="#7F7F7F" stroke-width="0.515512"/>
<path d="M93.3629 106.607L58.8496 60.9609" stroke="#7F7F7F" stroke-width="0.515512"/>
<path d="M61.0625 58.7051L88.4961 27.0234" stroke="#7F7F7F" stroke-width="0.515512"/>
<path d="M88.4961 58.7051L61.0625 27.0234" stroke="#7F7F7F" stroke-width="0.515512"/>
<path d="M95.1324 27.0234L104.424 146.093H97.3448L88.0527 27.0234H95.1324Z" fill="#4C4C16" stroke="black" stroke-width="0.515512"/>
<path d="M54.4248 27.0234L45.1328 146.093H52.6549L61.947 27.0234H54.4248Z" fill="#4C4C16" stroke="black" stroke-width="0.515512"/>
<path d="M20.3535 59.4617L54.4243 58.7109H97.7871L129.646 59.4617V60.9632H97.7871H54.4243H20.3535V59.4617Z" fill="#4C4C16" stroke="black" stroke-width="0.515512"/>
<path d="M20.3535 109.009L52.2119 108.258H99.9995L129.646 109.009V110.51H99.9995H52.2119H20.3535V109.009Z" fill="#4C4C16" stroke="black" stroke-width="0.515512"/>
<path d="M129.646 26.2734L147.787 147.595H138.938L120.354 26.2734H129.646Z" fill="#99997A" stroke="black" stroke-width="0.515512"/>
<path d="M20.3536 26.2734L1.76953 147.595H11.0616L29.2032 26.2734H20.3536Z" fill="#99997A" stroke="black" stroke-width="0.515512"/>
<path d="M68.1406 32.4297V50.1474L81.8574 54.8021V32.4297H68.1406Z" fill="#333300" stroke="black" stroke-width="0.515512"/>
<path d="M68.1406 50.1484V148.347H81.8574V54.8031L68.1406 50.1484Z" fill="#7F7F59" stroke="black" stroke-width="0.515512"/>
<path d="M13.2734 109.008L47.7867 109.759H104.424L136.282 109.008V110.509L104.424 112.011H47.7867L13.2734 110.509V109.008Z" fill="#7F7F59" stroke="black" stroke-width="0.515512"/>
<path d="M20.3535 59.4609L52.2119 60.2117H99.9995L129.646 59.4609V60.9624L99.9995 62.6141H52.2119L20.3535 60.9624V59.4609Z" fill="#7F7F59" stroke="black" stroke-width="0.515512"/>
<path d="M73.0098 51.6484V148.345H77.4345V53.3001L73.0098 51.6484Z" fill="#B2B29B"/>
<path d="M47.7871 109.758H104.424V112.01H47.7871V109.758Z" fill="#99997A" stroke="black" stroke-width="0.515512"/>
<path d="M52.2129 60.2109H100V62.6133H52.2129V60.2109Z" fill="#99997A" stroke="black" stroke-width="0.515512"/>
<path d="M73.0098 32.4297V51.6489L77.4345 53.3006V32.4297H73.0098Z" fill="#666638"/>
<path d="M74.7796 26.5781H27.877L28.3194 27.1787L28.7619 27.7793L30.0893 28.3799L31.4168 28.8304L33.6292 29.431L35.8416 29.8814L38.9389 30.3319L41.5938 30.7823L45.1336 31.2328L48.6734 31.5331L52.6557 31.8334L56.638 32.1337L61.0628 32.2838L65.4876 32.434H69.9124L74.7796 32.5841L79.6469 32.434H84.5141L88.9389 32.2838L93.3637 32.1337L97.346 31.8334L101.328 31.5331L104.868 31.2328L107.965 30.7823L111.063 30.3319L113.718 29.8814L116.373 29.431L118.142 28.8304L119.912 28.3799L120.797 27.7793L121.682 27.1787V26.5781H74.7796Z" fill="#333300" stroke="black" stroke-width="0.515512"/>
<path d="M34.5137 26.5781H115.045L112.39 28.8304L103.983 30.7823L90.2659 32.1337L74.7792 32.5841L59.7349 32.1337L46.0181 30.7823L37.611 28.8304L34.5137 26.5781Z" fill="#47470F"/>
<path d="M41.1504 26.5781H108.407L106.195 28.8304L99.115 30.7823L87.6106 32.1337L74.7787 32.5841L62.3893 32.1337L50.8849 30.7823L43.8053 28.8304L41.1504 26.5781Z" fill="#595929"/>
<path d="M47.7871 26.5781H102.212L99.9995 28.8304L94.2473 30.7823L84.9552 32.1337L74.7783 32.5841L65.0437 32.1337L55.3092 30.7823L49.9995 28.8304L47.7871 26.5781Z" fill="#6E6E43"/>
<path d="M54.4238 26.5781H95.1318L93.8044 28.8304L89.3796 30.7823L82.7424 32.1337L74.7778 32.5841L67.2557 32.1337L60.176 30.7823L55.7513 28.8304L54.4238 26.5781Z" fill="#82825C"/>
<path d="M61.0625 26.5781H88.9386L87.6112 28.8304L84.9563 30.7823L80.089 32.1337L74.7793 32.5841L69.9121 32.1337L65.0448 30.7823L61.9475 28.8304L61.0625 26.5781Z" fill="#949475"/>
<path d="M70.3535 26.5781H79.6456L79.2031 28.8304L78.3181 30.7823L76.5482 32.1337L74.7783 32.5841L73.0084 32.1337L71.6809 30.7823L70.796 28.8304L70.3535 26.5781Z" fill="#A8A88E"/>
<path d="M38.4952 147.595L15.4863 110.508" stroke="black" stroke-width="0.515512"/>
<path d="M8.84961 145.349L42.9204 112.016" stroke="black" stroke-width="0.515512"/>
<path d="M111.504 147.595L134.07 110.508" stroke="black" stroke-width="0.515512"/>
<path d="M141.151 145.349L107.08 112.016" stroke="black" stroke-width="0.515512"/>
<path d="M42.9199 109.76L20.3535 60.9609" stroke="black" stroke-width="0.515512"/>
<path d="M15.4863 109.006L49.9996 62.6094" stroke="black" stroke-width="0.515512"/>
<path d="M107.08 109.76L129.646 60.9609" stroke="black" stroke-width="0.515512"/>
<path d="M134.071 109.006L100 62.6094" stroke="black" stroke-width="0.515512"/>
<path d="M102.213 60.2066L125.222 27.0234" stroke="black" stroke-width="0.515512"/>
<path d="M129.646 59.4559L100 27.0234" stroke="black" stroke-width="0.515512"/>
<path d="M47.7881 60.2066L24.7793 27.0234" stroke="black" stroke-width="0.515512"/>
<path d="M20.3535 59.4559L49.9995 27.0234" stroke="black" stroke-width="0.515512"/>
<path d="M47.7871 147.601L97.7871 112.016" stroke="black" stroke-width="0.515512"/>
<path d="M102.213 147.601L52.2129 112.016" stroke="black" stroke-width="0.515512"/>
<path d="M52.2129 109.757L93.3633 62.6094" stroke="black" stroke-width="0.515512"/>
<path d="M97.7872 109.757L56.6367 62.6094" stroke="black" stroke-width="0.515512"/>
<path d="M56.6367 60.2066L90.7075 27.0234" stroke="black" stroke-width="0.515512"/>
<path d="M93.3629 60.2066L58.8496 27.0234" stroke="black" stroke-width="0.515512"/>
<path d="M99.9991 26.2734L111.503 149.246H102.211L90.707 26.2734H99.9991Z" fill="#B2B29B" stroke="black" stroke-width="0.515512"/>
<path d="M50.0005 26.2734L38.4961 149.246H47.3457L58.8501 26.2734H50.0005Z" fill="#B2B29B" stroke="black" stroke-width="0.515512"/>
<path d="M125.221 27.7812L143.362 146.85" stroke="white" stroke-width="0.515512"/>
<path d="M95.5762 27.7812L107.081 148.352" stroke="white" stroke-width="0.515512"/>
<path d="M54.4243 27.7812L42.9199 148.352" stroke="white" stroke-width="0.515512"/>
<path d="M24.7783 27.7812L6.63672 146.85" stroke="white" stroke-width="0.515512"/>
<path d="M121.681 4.6539V4.3536L120.796 3.90315L119.911 3.4527L118.141 3.1524L116.371 2.8521L113.716 2.40165L111.061 2.10135L107.964 1.80105L104.867 1.6509L101.327 1.3506L97.3447 1.20045L93.3624 1.0503L88.9376 0.90015L84.5128 0.75H79.6456H74.7783H69.911H65.4863L61.0615 0.90015L56.6367 1.0503L52.6544 1.20045L48.6721 1.3506L45.1323 1.6509L41.5925 1.80105L38.9376 2.10135L35.8402 2.40165L33.6279 2.8521L31.4155 3.1524L30.088 3.4527L28.7606 3.90315L28.3181 4.3536L27.8756 4.6539V24.6239H20.3535V26.5758H129.646V24.6239H121.681V4.6539Z" fill="#666638" stroke="black" stroke-width="0.515512"/>
<path d="M34.5141 4.65562L37.169 3.15411L46.0185 1.80276L59.7354 0.901863L75.2221 0.601562L90.2663 0.901863L103.983 1.80276L112.39 3.15411L115.488 4.65562V24.6256H122.125V26.5775H27.877V24.6256H34.5141V4.65562Z" fill="#7A7A51"/>
<path d="M40.7082 4.65562L43.363 3.15411L50.8852 1.80276L62.3896 0.901863L75.2214 0.601562L87.6108 0.901863L99.1152 1.80276L106.637 3.15411L108.85 4.65562V24.6256H114.602V26.5775H35.3984V24.6256H40.7082V4.65562Z" fill="#8C8C6B"/>
<path d="M47.3458 4.65562L49.5582 3.15411L55.3104 1.80276L64.6024 0.901863L75.2219 0.601562L85.3989 0.901863L94.6909 1.80276L100.443 3.15411L102.656 4.65562V24.6256H107.08V26.5775H42.4785V24.6256H47.3458V4.65562Z" fill="#A1A185"/>
<path d="M53.5407 4.65562L55.3106 3.15411L59.7354 1.80276L66.815 0.901863L74.7796 0.601562L82.7442 0.901863L90.2664 1.80276L94.6911 3.15411L96.0186 4.65562V24.6256H99.5584V26.5775H50.4434V24.6256H53.5407V4.65562Z" fill="#B5B59E"/>
<path d="M60.1772 4.65562L61.5047 3.15411L64.602 1.80276L69.4693 0.901863L74.779 0.601562L80.5312 0.901863L85.3985 1.80276L88.4958 3.15411L89.8233 4.65562V24.6256H92.0356V26.5775H57.9648V24.6256H60.1772V4.65562Z" fill="#C7C7B8"/>
<path d="M69.0256 4.65562L69.4681 3.15411L70.7955 1.80276L72.5654 0.901863L74.7778 0.601562L76.9902 0.901863L79.2026 1.80276L80.53 3.15411V4.65562L80.9725 24.6256H81.8574V26.5775H68.1406V24.6256H69.0256V4.65562Z" fill="#DBDBD1"/>
<path d="M125.663 26.5781H24.3359" stroke="black" stroke-width="0.515512"/>
<path d="M24.3359 24.625H125.663" stroke="black" stroke-width="0.515512"/>
<path d="M20.3535 24.6244V20.5703H129.646V24.6244" stroke="#99997A" stroke-width="0.515512"/>
<path d="M129.646 22.6719H20.3535" stroke="#99997A" stroke-width="0.515512"/>
<path d="M38.0527 20.5703V24.6244" stroke="#99997A" stroke-width="0.515512"/>
<path d="M62.3887 20.5703V24.6244" stroke="#99997A" stroke-width="0.515512"/>
<path d="M87.168 20.5703V24.6244" stroke="#99997A" stroke-width="0.515512"/>
<path d="M111.947 20.5703V24.6244" stroke="#99997A" stroke-width="0.515512"/>
</svg>
