<svg width="150" height="150" viewBox="0 0 150 150" fill="none" xmlns="http://www.w3.org/2000/svg">
<g clip-path="url(#clip0_2122_165669)">
<path d="M0 33.5697L24.9249 15.4922H150L124.925 33.5697H0Z" fill="#B2E5E5" stroke="black" stroke-width="0.359519"/>
<path d="M131.23 17.859H140.54V8.82031H131.23V17.859Z" fill="#B2B2B2" stroke="black" stroke-width="0.359519"/>
<path d="M131.23 8.82396L134.384 6.67188H143.693L140.54 8.82396H131.23Z" fill="#F2F2F2" stroke="black" stroke-width="0.359519"/>
<path d="M140.541 8.82396V17.8627L143.694 15.4954V6.67188L140.541 8.82396Z" fill="#999999" stroke="black" stroke-width="0.359519"/>
<path d="M112.463 150.002L137.388 132.14V42.3984L112.463 60.4759V150.002Z" fill="#669999"/>
<path d="M112.463 87.1617L137.388 69.2994V42.3984L112.463 60.4759V87.1617Z" fill="#4C7F7F"/>
<path d="M112.463 150.002L137.388 132.14V42.3984L112.463 60.4759V150.002Z" stroke="black" stroke-width="0.359519"/>
<path d="M12.4629 60.4766H112.463V150.003H12.4629V60.4766Z" fill="#99CCCC"/>
<path d="M0 46.9141H124.925V60.4722H0V46.9141Z" fill="#669999" stroke="black" stroke-width="0.359519"/>
<path d="M0 33.5703H124.925V46.9132H0V33.5703Z" fill="#99CCCC" stroke="black" stroke-width="0.359519"/>
<path d="M18.6191 29.054H118.619V10.9766H18.6191V29.054Z" fill="#99CCCC" stroke="black" stroke-width="0.359519"/>
<path d="M18.6191 10.9756L34.3849 0H134.385L118.619 10.9756H18.6191Z" fill="#B2E5E5" stroke="black" stroke-width="0.359519"/>
<path d="M124.926 46.9126L150.001 29.0503V15.4922L124.926 33.5697V46.9126Z" fill="#7FB2B2" stroke="black" stroke-width="0.359519"/>
<path d="M124.926 60.4751L150.001 42.3976V29.0547L124.926 46.917V60.4751Z" fill="#4C7F7F" stroke="black" stroke-width="0.359519"/>
<path d="M118.619 29.0531L134.385 17.8623V0L118.619 10.9756V29.0531Z" fill="#7FB2B2" stroke="black" stroke-width="0.359519"/>
<path d="M12.4629 60.4766H112.463V87.1624H12.4629V60.4766Z" fill="#7FB2B2"/>
<path d="M12.4629 60.4766H112.463V150.003H12.4629V60.4766Z" stroke="black" stroke-width="0.359519"/>
<path d="M7.6582 31.2063H17.1177V22.3828H7.6582V31.2063Z" fill="#B2B2B2" stroke="black" stroke-width="0.359519"/>
<path d="M7.6582 22.3829L10.8114 20.0156H20.2708L17.1177 22.3829H7.6582Z" fill="#F2F2F2" stroke="black" stroke-width="0.359519"/>
<path d="M17.1172 22.3829V31.2064L20.2703 29.0544V20.0156L17.1172 22.3829Z" fill="#999999" stroke="black" stroke-width="0.359519"/>
<path d="M59.3086 31.2063H68.7681V22.3828H59.3086V31.2063Z" fill="#B2B2B2" stroke="black" stroke-width="0.359519"/>
<path d="M59.3086 22.3829L62.4617 20.0156H71.7711L68.7681 22.3829H59.3086Z" fill="#F2F2F2" stroke="black" stroke-width="0.359519"/>
<path d="M68.7695 22.3829V31.2064L71.7725 29.0544V20.0156L68.7695 22.3829Z" fill="#999999" stroke="black" stroke-width="0.359519"/>
<path d="M34.3848 31.2063H43.6941V22.3828H34.3848V31.2063Z" fill="#B2B2B2" stroke="black" stroke-width="0.359519"/>
<path d="M34.3848 22.3829L37.5379 20.0156H46.8472L43.6941 22.3829H34.3848Z" fill="#F2F2F2" stroke="black" stroke-width="0.359519"/>
<path d="M43.6934 22.3829V31.2064L46.8465 29.0544V20.0156L43.6934 22.3829Z" fill="#999999" stroke="black" stroke-width="0.359519"/>
<path d="M87.3867 31.2063H96.8462V22.3828H87.3867V31.2063Z" fill="#B2B2B2" stroke="black" stroke-width="0.359519"/>
<path d="M87.3867 22.3829L90.5399 20.0156H99.9993L96.8462 22.3829H87.3867Z" fill="#F2F2F2" stroke="black" stroke-width="0.359519"/>
<path d="M96.8477 22.3829V31.2064L100.001 29.0544V20.0156L96.8477 22.3829Z" fill="#999999" stroke="black" stroke-width="0.359519"/>
<path d="M123.424 24.5345H132.733V15.7109H123.424V24.5345Z" fill="#B2B2B2" stroke="black" stroke-width="0.359519"/>
<path d="M123.424 15.711L126.577 13.3438H135.886L132.733 15.711H123.424Z" fill="#F2F2F2" stroke="black" stroke-width="0.359519"/>
<path d="M132.732 15.711V24.5346L135.886 22.3825V13.3438L132.732 15.711Z" fill="#999999" stroke="black" stroke-width="0.359519"/>
<path d="M112.463 31.2063H121.772V22.3828H112.463V31.2063Z" fill="#B2B2B2" stroke="black" stroke-width="0.359519"/>
<path d="M112.463 22.3829L115.616 20.0156H124.925L121.772 22.3829H112.463Z" fill="#F2F2F2" stroke="black" stroke-width="0.359519"/>
<path d="M121.771 22.3829V31.2064L124.925 29.0544V20.0156L121.771 22.3829Z" fill="#999999" stroke="black" stroke-width="0.359519"/>
</g>
<defs>
<clipPath id="clip0_2122_165669">
<rect width="150" height="150" fill="white"/>
</clipPath>
</defs>
</svg>
