<svg width="150" height="150" viewBox="0 0 150 150" fill="none" xmlns="http://www.w3.org/2000/svg">
<g clip-path="url(#clip0_2122_166919)">
<path d="M19.2201 39.5938H131.082V145.542H19.2201L19.5204 80.0213L7.35823 73.3298L4.20508 50.1885L19.2201 39.5938Z" fill="#7F7F7F" stroke="black" stroke-width="0.409211"/>
<path d="M0 83.3619H144.895L150 74.7188H4.95496L0 83.3619Z" fill="#0000E0" stroke="black" stroke-width="0.409211"/>
<path d="M67.5666 136.339L9.60865 126.859L9.1582 133.551L66.966 142.752L67.5666 136.339Z" fill="black"/>
<path d="M144.295 126.859L144.896 133.551L68.3191 142.752L67.5684 136.339L144.295 126.859Z" fill="black"/>
<path d="M8.85938 75.8385H17.7182V62.7344H8.85938V75.8385Z" fill="#00007F" stroke="black" stroke-width="0.409211"/>
<path d="M6.00586 40.1519H9.15901V38.7578H6.00586V40.1519Z" fill="#B2B2B2" stroke="black" stroke-width="0.409211"/>
<path d="M9.60865 32.3438L9.1582 32.9014V33.7378V45.4478V46.2843L9.60865 46.8419H17.7168V39.5928V32.3438H9.60865Z" fill="#005E00" stroke="black" stroke-width="0.409211"/>
<path d="M17.7168 46.8394H18.1672H18.4675L18.7678 46.2817V45.4453H17.7168V46.8394Z" fill="#7F7F7F"/>
<path d="M19.2183 34.2954L18.7678 33.7378L18.4675 32.9014L18.1672 32.3438H17.7168V34.2954H19.2183Z" fill="#7F7F7F"/>
<path d="M18.7678 45.4434L19.2183 44.8857V44.3281H17.7168V45.4434H18.7678Z" fill="#B2B2B2"/>
<path d="M19.2183 36.8062V35.6909V34.2969H17.7168V36.8062H19.2183Z" fill="#B2B2B2"/>
<path d="M19.2183 44.3316V43.4951V42.9375H17.7168V44.3316H19.2183Z" fill="#E5E5E5"/>
<path d="M19.2183 39.5938V41.5454H17.7168V39.5938H19.2183Z" fill="#E5E5E5"/>
<path d="M19.2183 41.5391V42.9331H17.7168V41.5391H19.2183Z" fill="#F0F0F0"/>
<path d="M19.2183 39.5894V38.1953H17.7168V39.5894H19.2183Z" fill="#E0E0E0"/>
<path d="M19.2183 36.8047V38.1987H17.7168V36.8047H19.2183Z" fill="#CCCCCC"/>
<path d="M18.4675 46.8419C18.8822 46.8419 19.2183 43.5964 19.2183 39.5928C19.2183 35.5893 18.8822 32.3438 18.4675 32.3438C18.0529 32.3438 17.7168 35.5893 17.7168 39.5928C17.7168 43.5964 18.0529 46.8419 18.4675 46.8419Z" stroke="black" stroke-width="0.409211"/>
<path d="M9.1582 34.292L9.90895 33.7344H17.4165" stroke="white" stroke-width="0.409211"/>
<path d="M9.60938 45.4453L10.21 46.2817H17.4172" stroke="white" stroke-width="0.409211"/>
<path d="M9.1582 42.9375L9.90895 43.4951H17.4165" stroke="white" stroke-width="0.409211"/>
<path d="M9.1582 40.9844H9.90895H17.4165" stroke="white" stroke-width="0.409211"/>
<path d="M9.1582 38.7529L9.90895 38.1953H17.4165" stroke="white" stroke-width="0.409211"/>
<path d="M9.1582 36.2422H9.90895H17.4165" stroke="white" stroke-width="0.409211"/>
<path d="M0.601082 63.2891H0.300781V64.6831H0.601082V63.2891Z" fill="#7F7F7F"/>
<path d="M0.601082 71.375H0.300781V72.7691H0.601082V71.375Z" fill="#7F7F7F"/>
<path d="M0.601082 74.7188H0.300781V75.2764H0.601082V74.7188Z" fill="#7F7F7F"/>
<path d="M0.601082 67.1953H0.300781V68.5894H0.601082V67.1953Z" fill="#7F7F7F"/>
<path d="M0.601082 60.7812H0.300781V61.3389H0.601082V60.7812Z" fill="#7F7F7F"/>
<path d="M9.15847 34.8516H8.10742V77.7884H9.15847V34.8516Z" fill="#0000E0" stroke="black" stroke-width="0.409211"/>
<path d="M8.10877 36.2422H2.85352V75.8333H8.10877V36.2422Z" fill="#0000E0" stroke="black" stroke-width="0.409211"/>
<path d="M8.85817 37.6406H8.10742V38.7559H8.85817V37.6406Z" fill="#7F7FFF"/>
<path d="M2.85354 34.8516H1.65234V77.7884H2.85354V34.8516Z" fill="#0000E0" stroke="black" stroke-width="0.409211"/>
<path d="M0.900391 59.9453H1.65114V75.8375H0.900391V59.9453Z" fill="#0000E0" stroke="black" stroke-width="0.409211"/>
<path d="M0.901863 59.9453H0.601562V75.8375H0.901863V59.9453Z" fill="#0000E0" stroke="black" stroke-width="0.409211"/>
<path d="M8.10877 38.1953H2.85352V38.7529H8.10877V38.1953Z" fill="#7F7FFF"/>
<path d="M8.10877 50.7456H2.85352V49.3516H8.10877V50.7456Z" fill="#7F7FFF"/>
<path d="M2.85354 34.8516H1.65234V36.8032H2.85354V34.8516Z" fill="#7F7FFF"/>
<path d="M16.666 125.461H128.528" stroke="black" stroke-width="0.409211"/>
<path d="M19.8203 39.5938V87.828" stroke="black" stroke-width="0.409211"/>
<path d="M21.6211 39.5938V87.828" stroke="black" stroke-width="0.409211"/>
<path d="M23.4238 39.5938V87.828" stroke="black" stroke-width="0.409211"/>
<path d="M25.2246 39.5938V87.828" stroke="black" stroke-width="0.409211"/>
<path d="M27.0273 39.5938V87.828" stroke="black" stroke-width="0.409211"/>
<path d="M28.8281 39.5938V87.828" stroke="black" stroke-width="0.409211"/>
<path d="M30.9316 39.5938V87.828" stroke="black" stroke-width="0.409211"/>
<path d="M32.7324 39.5938V87.828" stroke="black" stroke-width="0.409211"/>
<path d="M34.5352 39.5938V87.828" stroke="black" stroke-width="0.409211"/>
<path d="M36.1855 39.5938V87.828" stroke="black" stroke-width="0.409211"/>
<path d="M38.1387 39.5938V87.828" stroke="black" stroke-width="0.409211"/>
<path d="M39.7891 39.5938V87.828" stroke="black" stroke-width="0.409211"/>
<path d="M41.8926 39.5938V87.828" stroke="black" stroke-width="0.409211"/>
<path d="M43.8438 39.5938V87.828" stroke="black" stroke-width="0.409211"/>
<path d="M45.4961 39.5938V87.828" stroke="black" stroke-width="0.409211"/>
<path d="M47.2969 39.5938V87.828" stroke="black" stroke-width="0.409211"/>
<path d="M49.0996 39.5938V87.828" stroke="black" stroke-width="0.409211"/>
<path d="M50.9004 39.5938V87.828" stroke="black" stroke-width="0.409211"/>
<path d="M53.0039 39.5938V87.828" stroke="black" stroke-width="0.409211"/>
<path d="M54.8047 39.5938V87.828" stroke="black" stroke-width="0.409211"/>
<path d="M56.6074 39.5938V87.828" stroke="black" stroke-width="0.409211"/>
<path d="M58.4082 39.5938V87.828" stroke="black" stroke-width="0.409211"/>
<path d="M60.0605 39.5938V87.828" stroke="black" stroke-width="0.409211"/>
<path d="M61.8613 39.5938V87.828" stroke="black" stroke-width="0.409211"/>
<path d="M64.1133 39.5938V87.828" stroke="black" stroke-width="0.409211"/>
<path d="M65.7656 39.5938V87.828" stroke="black" stroke-width="0.409211"/>
<path d="M67.5684 39.5938V87.828" stroke="black" stroke-width="0.409211"/>
<path d="M69.3691 39.5938V87.828" stroke="black" stroke-width="0.409211"/>
<path d="M71.1719 39.5938V87.828" stroke="black" stroke-width="0.409211"/>
<path d="M72.9727 39.5938V87.828" stroke="black" stroke-width="0.409211"/>
<path d="M75.0742 39.5938V87.828" stroke="black" stroke-width="0.409211"/>
<path d="M76.877 39.5938V87.828" stroke="black" stroke-width="0.409211"/>
<path d="M78.6777 39.5938V87.828" stroke="black" stroke-width="0.409211"/>
<path d="M80.4805 39.5938V87.828" stroke="black" stroke-width="0.409211"/>
<path d="M82.2832 39.5938V87.828" stroke="black" stroke-width="0.409211"/>
<path d="M84.084 39.5938V87.828" stroke="black" stroke-width="0.409211"/>
<path d="M86.1855 39.5938V87.828" stroke="black" stroke-width="0.409211"/>
<path d="M87.9883 39.5938V87.828" stroke="black" stroke-width="0.409211"/>
<path d="M89.7891 39.5938V87.828" stroke="black" stroke-width="0.409211"/>
<path d="M91.4414 39.5938V87.828" stroke="black" stroke-width="0.409211"/>
<path d="M93.2441 39.5938V87.828" stroke="black" stroke-width="0.409211"/>
<path d="M95.0449 39.5938V87.828" stroke="black" stroke-width="0.409211"/>
<path d="M97.1465 39.5938V87.828" stroke="black" stroke-width="0.409211"/>
<path d="M98.9492 39.5938V87.828" stroke="black" stroke-width="0.409211"/>
<path d="M100.75 39.5938V87.828" stroke="black" stroke-width="0.409211"/>
<path d="M102.553 39.5938V87.828" stroke="black" stroke-width="0.409211"/>
<path d="M104.354 39.5938V87.828" stroke="black" stroke-width="0.409211"/>
<path d="M106.006 39.5938V87.828" stroke="black" stroke-width="0.409211"/>
<path d="M108.258 39.5938V87.828" stroke="black" stroke-width="0.409211"/>
<path d="M110.061 39.5938V87.828" stroke="black" stroke-width="0.409211"/>
<path d="M111.711 39.5938V87.828" stroke="black" stroke-width="0.409211"/>
<path d="M113.664 39.5938V87.828" stroke="black" stroke-width="0.409211"/>
<path d="M115.314 39.5938V87.828" stroke="black" stroke-width="0.409211"/>
<path d="M117.117 39.5938V87.828" stroke="black" stroke-width="0.409211"/>
<path d="M118.918 39.5938V87.828" stroke="black" stroke-width="0.409211"/>
<path d="M121.021 39.5938V87.828" stroke="black" stroke-width="0.409211"/>
<path d="M122.822 39.5938V87.828" stroke="black" stroke-width="0.409211"/>
<path d="M124.625 39.5938V87.828" stroke="black" stroke-width="0.409211"/>
<path d="M126.426 39.5938V87.828" stroke="black" stroke-width="0.409211"/>
<path d="M128.229 39.5938V87.828" stroke="black" stroke-width="0.409211"/>
<path d="M130.029 39.5938V87.828" stroke="black" stroke-width="0.409211"/>
<path d="M132.133 39.5938V87.828" stroke="black" stroke-width="0.409211"/>
<path fill-rule="evenodd" clip-rule="evenodd" d="M0 83.3672H144.895V150.003H0V83.3672ZM69.3694 140.802V92.5679H122.823V140.802H69.3694ZM63.0631 92.5679V140.802H22.0721V92.5679H63.0631Z" fill="#7F7FFF"/>
<path d="M0 83.3672H144.895V150.003H0V83.3672Z" stroke="black" stroke-width="0.409211"/>
<path d="M69.3691 140.797V92.5625H122.823V140.797H69.3691Z" stroke="black" stroke-width="0.409211"/>
<path d="M63.0633 92.5625V140.797H22.0723V92.5625H63.0633Z" stroke="black" stroke-width="0.409211"/>
<path fill-rule="evenodd" clip-rule="evenodd" d="M17.418 83.366H132.133V36.8047H17.418V83.366ZM74.0246 78.6262V41.5445H129.28V78.6262H74.0246ZM70.8714 41.5445V78.6262H20.2708V41.5445H70.8714Z" fill="#7F7FFF"/>
<path d="M17.418 83.366H132.133V36.8047H17.418V83.366Z" stroke="black" stroke-width="0.409211"/>
<path d="M74.0234 78.6208V41.5391H129.279V78.6208H74.0234Z" stroke="black" stroke-width="0.409211"/>
<path d="M70.8701 41.5391V78.6208H20.2695V41.5391H70.8701Z" stroke="black" stroke-width="0.409211"/>
<path d="M139.941 73.8818L132.133 83.3614V36.8L135.586 7.24614L138.589 0.554688L139.941 6.40971V73.8818Z" fill="#0000E0" stroke="black" stroke-width="0.409211"/>
<path d="M150 74.7188L144.895 83.3619V149.998L150 140.797V74.7188Z" fill="#0000E0" stroke="black" stroke-width="0.409211"/>
<path d="M17.418 36.8039H132.133L135.586 7.25H20.8714L17.418 36.8039Z" fill="#7F7FFF" stroke="black" stroke-width="0.409211"/>
<path d="M24.1744 0H138.889L135.586 7.24907H20.8711L24.1744 0Z" fill="#7F7FFF" stroke="black" stroke-width="0.409211"/>
<path d="M135.585 62.1709L135.285 68.0259L135.585 73.881L136.036 76.6691H139.94V59.3828H136.036L135.585 62.1709Z" fill="#CCCCCC" stroke="black" stroke-width="0.409211"/>
<path d="M139.94 73.8828H135.586L136.036 76.6709H139.94V73.8828Z" fill="#7F7F7F" stroke="black" stroke-width="0.409211"/>
<path d="M139.639 79.1847H146.395V57.4375H139.639V79.1847Z" fill="#0000E0" stroke="black" stroke-width="0.409211"/>
<path d="M140.99 54.9219H147.446L146.395 57.4312H139.639L140.99 54.9219Z" fill="#0000E0" stroke="black" stroke-width="0.409211"/>
<path d="M147.448 76.6691L146.396 79.1784V57.4312L147.448 54.9219V76.6691Z" fill="#0000AD" stroke="black" stroke-width="0.409211"/>
<path d="M126.727 90.6172H141.742V105.673H126.727V90.6172Z" fill="white" stroke="black" stroke-width="0.409211"/>
<path d="M2.85352 91.1719H17.7184V106.506H2.85352V91.1719Z" fill="white" stroke="black" stroke-width="0.409211"/>
<path d="M127.178 92.5625H141.292V102.321H127.178V92.5625Z" fill="#FF0000"/>
<path d="M3.45312 93.125H17.4171V103.162H3.45312V93.125Z" fill="#FF0000"/>
<path d="M4.95508 94.5156H16.6668V97.8614H4.95508V94.5156Z" fill="#7F7F7F"/>
<path d="M128.529 93.6797H140.241V97.0254H128.529V93.6797Z" fill="#7F7F7F"/>
<path d="M28.0789 9.75781H40.5413L37.6885 33.7355L36.9377 34.2931L27.3281 11.1519L28.0789 9.75781Z" fill="#0000E0" stroke="black" stroke-width="0.409211"/>
<path d="M115.316 9.75781H127.778L125.376 33.7355L124.625 34.2931L115.016 11.1519L115.316 9.75781Z" fill="#0000E0" stroke="black" stroke-width="0.409211"/>
<path d="M69.0691 9.75781H81.5316L78.6787 33.7355L77.928 34.2931L68.3184 11.1519L69.0691 9.75781Z" fill="#0000E0" stroke="black" stroke-width="0.409211"/>
<path d="M115.015 11.1562H127.177L124.625 34.2975H112.162L115.015 11.1562Z" fill="#7F7FFF" stroke="black" stroke-width="0.409211"/>
<path d="M68.3182 11.1562H80.7806L78.3782 34.2975H65.7656L68.3182 11.1562Z" fill="#7F7FFF" stroke="black" stroke-width="0.409211"/>
<path d="M27.3282 11.1562H39.7906L36.9378 34.2975H24.9258L27.3282 11.1562Z" fill="#7F7FFF" stroke="black" stroke-width="0.409211"/>
<path fill-rule="evenodd" clip-rule="evenodd" d="M28.8289 11.7109L29.1292 12.2686L28.5286 17.0083H28.0781L28.5286 12.2686L28.8289 11.7109ZM38.1382 11.7109V12.2686L37.6877 17.0083H37.3874H36.937L37.6877 12.2686L38.1382 11.7109ZM28.5286 14.499H28.8289L28.5286 15.0567V14.499ZM37.6877 14.499V15.0567H37.3874V14.499H37.6877ZM116.066 11.7109H116.366V12.2686L116.066 17.0083H115.766H115.315L116.066 12.2686V11.7109ZM125.375 11.7109V12.2686L124.925 17.0083H124.625L124.925 12.2686L125.375 11.7109ZM116.066 14.499V15.0567H115.766V14.499H116.066ZM124.925 14.499H125.375V15.0567H124.925V14.499ZM69.8199 11.7109L70.1202 12.2686L69.3694 17.0083H69.0691L69.3694 12.2686L69.8199 11.7109ZM78.979 11.7109V12.2686L78.6787 17.0083H78.3784L78.6787 12.2686L78.979 11.7109ZM69.3694 14.499H69.8199V15.0567H69.3694V14.499ZM78.6787 14.499V15.0567H78.3784V14.499H78.6787Z" fill="#F0F0F0"/>
<path d="M28.8289 11.7109L29.1292 12.2686L28.5286 17.0083H28.0781L28.5286 12.2686L28.8289 11.7109Z" stroke="black" stroke-width="0.409211"/>
<path d="M38.1387 11.7109V12.2686L37.6883 17.0083H37.388H36.9375L37.6883 12.2686L38.1387 11.7109Z" stroke="black" stroke-width="0.409211"/>
<path d="M28.5293 14.5H28.8296L28.5293 15.0576V14.5Z" stroke="black" stroke-width="0.409211"/>
<path d="M37.687 14.5V15.0576H37.3867V14.5H37.687Z" stroke="black" stroke-width="0.409211"/>
<path d="M116.065 11.7109H116.366V12.2686L116.065 17.0083H115.765H115.314L116.065 12.2686V11.7109Z" stroke="black" stroke-width="0.409211"/>
<path d="M125.376 11.7109V12.2686L124.925 17.0083H124.625L124.925 12.2686L125.376 11.7109Z" stroke="black" stroke-width="0.409211"/>
<path d="M116.066 14.5V15.0576H115.766V14.5H116.066Z" stroke="black" stroke-width="0.409211"/>
<path d="M124.926 14.5H125.376V15.0576H124.926V14.5Z" stroke="black" stroke-width="0.409211"/>
<path d="M69.8191 11.7109L70.1194 12.2686L69.3687 17.0083H69.0684L69.3687 12.2686L69.8191 11.7109Z" stroke="black" stroke-width="0.409211"/>
<path d="M78.9795 11.7109V12.2686L78.6792 17.0083H78.3789L78.6792 12.2686L78.9795 11.7109Z" stroke="black" stroke-width="0.409211"/>
<path d="M69.3691 14.5H69.8196V15.0576H69.3691V14.5Z" stroke="black" stroke-width="0.409211"/>
<path d="M78.6792 14.5V15.0576H78.3789V14.5H78.6792Z" stroke="black" stroke-width="0.409211"/>
<path d="M0.901863 59.9453H0.601562V60.7817H0.901863V59.9453Z" fill="#000066"/>
<path d="M0.900391 60.7812H1.65114V61.3389H0.900391V60.7812Z" fill="#000066"/>
<path d="M2.85354 75.2812H1.65234V77.7905H2.85354V75.2812Z" fill="#000066"/>
<path d="M0.900391 74.7188H1.65114V75.834H0.900391V74.7188Z" fill="#000066"/>
<path d="M0.601562 74.7188V75.834H0.901863V74.7188H0.601562Z" fill="#000066"/>
</g>
<defs>
<clipPath id="clip0_2122_166919">
<rect width="150" height="150" fill="white"/>
</clipPath>
</defs>
</svg>
