<svg width="150" height="150" viewBox="0 0 150 150" fill="none" xmlns="http://www.w3.org/2000/svg">
<g clip-path="url(#clip0_2122_166467)">
<path d="M134.685 110.07L133.334 112.374V150.002L134.685 147.698V110.07Z" fill="#339966" stroke="black" stroke-width="0.392094"/>
<path d="M136.187 61.1797L141.592 62.9715L145.947 68.091L148.95 75.5142L150.001 84.4732L148.95 94.2002L145.947 101.623L137.538 111.35L133.334 66.2991L136.187 61.1797Z" fill="#000066" stroke="black" stroke-width="0.392094"/>
<path d="M2.55273 28.9219L105.856 29.9458L112.312 59.6386L130.931 66.2939V140.782L109.309 145.901H26.5768L5.25544 149.997L2.55273 28.9219Z" fill="#7F7F7F" stroke="black" stroke-width="0.392094"/>
<path d="M24.9258 29.4375H104.956V91.3829H24.9258V29.4375Z" fill="#003399" stroke="black" stroke-width="0.392094"/>
<path d="M2.55273 92.4076H133.634L137.838 84.9844H7.20739L2.55273 92.4076Z" fill="#7F7F7F" stroke="black" stroke-width="0.392094"/>
<path d="M30.331 34.5547L77.6283 82.6776L57.9586 136.688L12.6133 69.111L30.331 34.5547Z" fill="#7F7F7F" stroke="black" stroke-width="0.392094"/>
<path d="M140.841 107.251L136.937 68.0871L83.1834 34.5547L70.8711 61.1758L84.2345 92.4045L88.2885 111.858L102.252 122.609L114.264 102.643L140.841 107.251Z" fill="#7F7F7F" stroke="black" stroke-width="0.392094"/>
<path d="M23.1224 77.0443C30.7516 77.0443 36.9362 66.5008 36.9362 53.4948C36.9362 40.4888 30.7516 29.9453 23.1224 29.9453C15.4932 29.9453 9.30859 40.4888 9.30859 53.4948C9.30859 66.5008 15.4932 77.0443 23.1224 77.0443Z" fill="#003399" stroke="black" stroke-width="0.392094"/>
<path d="M23.1238 71.4143C28.9286 71.4143 33.6343 63.3921 33.6343 53.4962C33.6343 43.6003 28.9286 35.5781 23.1238 35.5781C17.319 35.5781 12.6133 43.6003 12.6133 53.4962C12.6133 63.3921 17.319 71.4143 23.1238 71.4143Z" fill="black"/>
<path d="M23.2723 46.5859L26.2753 48.6337L27.3264 53.7532L26.2753 58.8726L23.2723 61.1764L20.2693 58.8726L18.918 53.7532L20.2693 48.6337L23.2723 46.5859Z" fill="#003399" stroke="#999999" stroke-width="0.392094"/>
<path d="M132.132 113.396C139.761 113.396 145.946 102.852 145.946 89.8464C145.946 76.8403 139.761 66.2969 132.132 66.2969C124.503 66.2969 118.318 76.8403 118.318 89.8464C118.318 102.852 124.503 113.396 132.132 113.396Z" fill="#003399" stroke="black" stroke-width="0.392094"/>
<path d="M132.132 107.766C137.936 107.766 142.642 99.7437 142.642 89.8478C142.642 79.9519 137.936 71.9297 132.132 71.9297C126.327 71.9297 121.621 79.9519 121.621 89.8478C121.621 99.7437 126.327 107.766 132.132 107.766Z" fill="black"/>
<path d="M132.282 82.6797L134.835 84.4715L136.186 89.591L134.835 94.7104L132.282 97.0142L129.279 94.7104L127.928 89.591L129.279 84.4715L132.282 82.6797Z" fill="#0000E0" stroke="#7F7F7F" stroke-width="0.392094"/>
<path d="M79.2783 68.8555C85.0002 68.8555 89.6387 60.9479 89.6387 51.1934C89.6387 41.4388 85.0002 33.5312 79.2783 33.5312C73.5565 33.5312 68.918 41.4388 68.918 51.1934C68.918 60.9479 73.5565 68.8555 79.2783 68.8555Z" fill="#003399" stroke="black" stroke-width="0.392094"/>
<path d="M79.2802 64.7581C83.6753 64.7581 87.2382 58.6842 87.2382 51.1916C87.2382 43.699 83.6753 37.625 79.2802 37.625C74.8852 37.625 71.3223 43.699 71.3223 51.1916C71.3223 58.6842 74.8852 64.7581 79.2802 64.7581Z" fill="black"/>
<path d="M79.2784 45.8203L81.5306 47.6121L82.5817 50.9398L81.5306 55.0353L79.2784 56.8271L76.876 55.0353L76.2754 50.9398L76.876 47.6121L79.2784 45.8203Z" fill="#003399" stroke="#999999" stroke-width="0.392094"/>
<path d="M69.6696 142.836C79.8695 142.836 88.1381 128.74 88.1381 111.352C88.1381 93.9633 79.8695 79.8672 69.6696 79.8672C59.4698 79.8672 51.2012 93.9633 51.2012 111.352C51.2012 128.74 59.4698 142.836 69.6696 142.836Z" fill="#E5E5E5" stroke="black" stroke-width="0.392094"/>
<path d="M69.8194 135.15C77.5315 135.15 83.7834 124.492 83.7834 111.345C83.7834 98.1971 77.5315 87.5391 69.8194 87.5391C62.1073 87.5391 55.8555 98.1971 55.8555 111.345C55.8555 124.492 62.1073 135.15 69.8194 135.15Z" fill="#CCCCCC" stroke="black" stroke-width="0.392094"/>
<path d="M2.55273 92.4062H133.634V104.949H2.55273V92.4062Z" fill="#E5E5E5" stroke="black" stroke-width="0.392094"/>
<path d="M25.2254 146.413H108.559L131.982 104.945H2.55273L25.2254 146.413Z" fill="#999999" stroke="black" stroke-width="0.392094"/>
<path d="M50.6013 33.2762L3.9046 82.1669L1.65234 76.5355L48.1989 27.1328L50.6013 33.2762Z" fill="#006633" stroke="black" stroke-width="0.392094"/>
<path d="M99.5502 64.7608L92.9436 66.2966L62.6133 33.2762L64.5652 27.1328L99.5502 64.7608Z" fill="#006633" stroke="black" stroke-width="0.392094"/>
<path d="M112.914 37.8828H101.652V60.1524H112.914V37.8828Z" fill="#8ABD8A" stroke="black" stroke-width="0.392094"/>
<path d="M116.215 53.7578H136.636L132.882 60.1571H112.912L116.215 53.7578Z" fill="#339966" stroke="black" stroke-width="0.392094"/>
<path d="M112.912 37.8855L116.516 31.7422V53.7558L112.912 60.1552V37.8855Z" fill="#006633" stroke="black" stroke-width="0.392094"/>
<path d="M112.914 37.8855H101.652L105.256 31.7422H116.517L112.914 37.8855Z" fill="#006633" stroke="black" stroke-width="0.392094"/>
<path d="M132.883 67.0675L92.9434 66.2996L95.1956 60.1562H132.883V67.0675Z" fill="#8ABD8A" stroke="black" stroke-width="0.392094"/>
<path d="M0 34.5547H6.60661V149.998H0V34.5547Z" fill="#8ABD8A" stroke="black" stroke-width="0.392094"/>
<path d="M0 37.8873H107.207V23.2969H0V37.8873Z" fill="#8ABD8A" stroke="black" stroke-width="0.392094"/>
<path d="M110.51 31.7407L107.207 37.8841V23.2936L110.51 17.4062V31.7407Z" fill="#006633" stroke="black" stroke-width="0.392094"/>
<path d="M0 11.2656H107.207V23.2963H0V11.2656Z" fill="#8ABD8A" stroke="black" stroke-width="0.392094"/>
<path d="M110.51 5.11719L107.207 11.2605V23.2912L110.51 17.4039V5.11719Z" fill="#006633" stroke="black" stroke-width="0.392094"/>
<path d="M0 11.2642H107.207L110.21 5.63281H3.003L0 11.2642Z" fill="#006633" stroke="black" stroke-width="0.392094"/>
<path d="M7.65784 0L7.95814 0.511945H8.25844V1.02389L8.55874 1.53584L3.90409 8.95905L3.60379 9.47099V20.9898H3.30349H3.00318H2.55273V9.47099V8.95905L3.00318 7.93515L7.65784 0Z" fill="white" stroke="black" stroke-width="0.392094"/>
<path d="M16.9667 0V0.511945H17.267L17.5673 1.02389V1.53584L12.9126 8.95905V9.47099V20.9898H12.6123H12.312H12.0117V9.47099V8.95905L12.312 7.93515L16.9667 0Z" fill="white" stroke="black" stroke-width="0.392094"/>
<path d="M25.9762 0L26.2765 0.511945H26.5768V1.02389V1.53584L22.2224 8.95905L21.9221 9.47099V20.9898H21.6218H21.1714H20.8711V9.47099V8.95905L21.1714 7.93515L25.9762 0Z" fill="white" stroke="black" stroke-width="0.392094"/>
<path d="M35.2843 0V0.511945H35.5846L35.8849 1.02389V1.53584L31.2303 8.95905V9.47099V20.9898H30.93H30.6297H30.3294H29.8789V9.47099L30.3294 8.95905L30.6297 7.93515L35.2843 0Z" fill="white" stroke="black" stroke-width="0.392094"/>
<path d="M44.2948 0L44.5951 0.511945H44.8954V1.02389V1.53584L40.541 8.95905L40.2407 9.47099V20.9898H39.9404H39.6401H39.3398V9.47099V8.95905L39.6401 7.93515L44.2948 0Z" fill="white" stroke="black" stroke-width="0.392094"/>
<path d="M53.6027 0V0.511945H53.903L54.2033 1.02389V1.53584L49.5486 8.95905V9.47099V20.9898H49.2483H48.948H48.4976H48.1973V9.47099L48.4976 8.95905L48.948 7.93515L53.6027 0Z" fill="white" stroke="black" stroke-width="0.392094"/>
<path d="M62.6132 0L62.9135 0.511945L63.2138 1.02389V1.53584L58.8594 8.95905L58.5591 9.47099V20.9898H58.2588H57.9585H57.6582V9.47099V8.95905L57.9585 7.93515L62.6132 0Z" fill="white" stroke="black" stroke-width="0.392094"/>
<path d="M71.9213 0V0.511945H72.2216V1.02389L72.672 1.53584L67.8672 8.95905V9.47099V20.9898H67.5669H67.2666H66.9663H66.666V9.47099L66.9663 8.95905L67.2666 7.93515L71.9213 0Z" fill="white" stroke="black" stroke-width="0.392094"/>
<path d="M80.9313 0L81.2316 0.511945L81.5319 1.02389V1.53584L76.8772 8.95905V9.47099V20.9898H76.5769H76.2766H75.8262V9.47099V8.95905L76.2766 7.93515L80.9313 0Z" fill="white" stroke="black" stroke-width="0.392094"/>
<path d="M90.2396 0V0.511945H90.5399V1.02389L90.9904 1.53584L86.1856 8.95905V9.47099V20.9898H85.8853H85.585H85.2847H84.9844V9.47099L85.2847 8.95905V7.93515L90.2396 0Z" fill="white" stroke="black" stroke-width="0.392094"/>
<path d="M99.2499 0L99.5502 0.511945L100.001 1.02389V1.53584L95.1958 8.95905V9.47099V20.9898H94.8955H94.5952H94.2949V9.47099V8.95905L94.5952 7.93515L99.2499 0Z" fill="white" stroke="black" stroke-width="0.392094"/>
<path d="M108.258 0L108.558 0.511945H108.858V1.02389L109.309 1.53584L104.654 8.95905V9.47099V20.9898H104.354H103.903H103.603H103.303V9.47099L103.603 8.95905V7.93515L108.258 0Z" fill="white" stroke="black" stroke-width="0.392094"/>
<path d="M133.334 59.6452L136.637 53.7578V60.6691L133.334 66.3005V59.6452Z" fill="#339966" stroke="black" stroke-width="0.392094"/>
<path d="M129.58 60.1562H133.334V150.003H129.58V60.1562Z" fill="#8ABD8A" stroke="black" stroke-width="0.392094"/>
<path fill-rule="evenodd" clip-rule="evenodd" d="M30.6297 134.641L33.933 136.688L35.2844 142.576L33.933 147.695L30.6297 149.999L27.6267 147.695L26.2754 142.576L27.6267 136.688L30.6297 134.641ZM30.6297 137.968L32.2814 138.992L32.882 142.576L32.2814 145.391L30.6297 146.415L28.9781 145.391L28.2273 142.576L28.9781 138.992L30.6297 137.968Z" fill="black"/>
</g>
<defs>
<clipPath id="clip0_2122_166467">
<rect width="150" height="150" fill="white"/>
</clipPath>
</defs>
</svg>
