<svg width="150" height="150" viewBox="0 0 150 150" fill="none" xmlns="http://www.w3.org/2000/svg">
<path d="M75.2247 66.907H74.9244L63.0625 66.5958V25.8281L74.9244 26.1393L75.2247 25.8281V66.907Z" fill="#E5E5E5" stroke="black" stroke-width="0.43233"/>
<path d="M75.2247 107.985L74.9244 108.296L63.0625 107.985V66.9062L74.9244 67.2175H75.2247V107.985Z" fill="#E5E5E5" stroke="black" stroke-width="0.43233"/>
<path d="M75.2247 148.757H74.9244L63.0625 148.446V107.367L74.9244 107.678H75.2247V148.757Z" fill="#E5E5E5" stroke="black" stroke-width="0.43233"/>
<path d="M75.5249 66.907L87.3868 66.5958V25.8281L75.5249 26.1393L75.2246 25.8281V66.907H75.5249Z" fill="#E5E5E5"/>
<path d="M75.5249 108.296L87.3868 107.985V66.9062L75.5249 67.2175H75.2246V107.985L75.5249 108.296Z" fill="#E5E5E5"/>
<path d="M75.5249 148.757L87.3868 148.446V107.367L75.5249 107.678H75.2246V148.757H75.5249Z" fill="#E5E5E5"/>
<path d="M63.0625 66.601H59.9094L52.1016 66.2898V25.2109L59.9094 25.8333H63.0625V66.601Z" fill="#E5E5E5"/>
<path d="M63.0625 107.99H59.9094L52.1016 107.368V66.2891L59.9094 66.9115H63.0625V107.99Z" fill="#E5E5E5"/>
<path d="M63.0625 148.445H59.9094L52.1016 148.134V107.055L59.9094 107.366H63.0625V148.445Z" fill="#E5E5E5"/>
<path d="M87.3867 66.601H90.5399L98.3477 66.2898V25.2109L90.5399 25.8333H87.3867V66.601Z" fill="#E5E5E5"/>
<path d="M87.3867 107.99H90.5399L98.3477 107.368V66.2891L90.5399 66.9115H87.3867V107.99Z" fill="#E5E5E5"/>
<path d="M87.3867 148.445H90.5399L98.3477 148.134V107.055L90.5399 107.366H87.3867V148.445Z" fill="#E5E5E5"/>
<path d="M51.9526 66.2872L45.9466 65.976L41.8926 65.3536V24.5859L45.9466 24.8971L51.9526 25.2083V66.2872Z" fill="#E5E5E5"/>
<path d="M51.9526 107.365L45.9466 107.054L41.8926 106.743V65.6641L45.9466 66.2865H51.9526V107.365Z" fill="#E5E5E5"/>
<path d="M51.9526 148.131L45.9466 147.509L41.8926 147.197V106.43L45.9466 106.741L51.9526 107.052V148.131Z" fill="#E5E5E5"/>
<path d="M98.498 66.2872L104.504 65.976L108.558 65.3536V24.5859L104.504 24.8971L98.498 25.2083V66.2872Z" fill="#E5E5E5"/>
<path d="M98.498 107.365L104.504 107.054L108.558 106.743V65.6641L104.504 66.2865H98.498V107.365Z" fill="#E5E5E5"/>
<path d="M98.498 148.131L104.504 147.509L108.558 147.197V106.43L104.504 106.741L98.498 107.052V148.131Z" fill="#E5E5E5"/>
<path d="M42.0422 65.351L33.3335 64.7286H33.0332V23.9609H33.3335L42.0422 24.5833V65.351Z" fill="#E5E5E5"/>
<path d="M42.0422 106.74L33.3335 105.807H33.0332V65.0391H33.3335L42.0422 65.6615V106.74Z" fill="#E5E5E5"/>
<path d="M42.0422 147.201L33.3335 146.579H33.0332V105.5L33.3335 105.811L42.0422 106.434V147.201Z" fill="#E5E5E5"/>
<path d="M108.408 65.351L117.117 64.7286H117.417V23.9609H117.117L108.408 24.5833V65.351Z" fill="#E5E5E5"/>
<path d="M108.408 106.74L117.117 105.807H117.417V65.0391H117.117L108.408 65.6615V106.74Z" fill="#E5E5E5"/>
<path d="M108.408 147.201L117.117 146.579H117.417V105.5L117.117 105.811L108.408 106.434V147.201Z" fill="#E5E5E5"/>
<path d="M25.0742 63.4864L33.0322 64.7312V23.9636L25.0742 22.7188V63.4864Z" fill="#E5E5E5"/>
<path d="M25.0742 104.876L33.0322 105.809V65.0417L25.0742 63.7969V104.876Z" fill="#E5E5E5"/>
<path d="M25.0742 145.33L33.0322 146.575V105.496L25.0742 104.562V145.33Z" fill="#E5E5E5"/>
<path d="M125.376 63.4864L117.418 64.7312V23.9636L125.376 22.7188V63.4864Z" fill="#E5E5E5"/>
<path d="M125.376 104.876L117.418 105.809V65.0417L125.376 63.7969V104.876Z" fill="#E5E5E5"/>
<path d="M125.376 145.33L117.418 146.575V105.496L125.376 104.562V145.33Z" fill="#E5E5E5"/>
<path d="M75.2246 66.907H75.5249L87.3868 66.5958V25.8281L75.5249 26.1393L75.2246 25.8281V66.907Z" stroke="black" stroke-width="0.43233"/>
<path d="M75.2246 107.985L75.5249 108.296L87.3868 107.985V66.9062L75.5249 67.2175H75.2246V107.985Z" stroke="black" stroke-width="0.43233"/>
<path d="M75.2246 148.757H75.5249L87.3868 148.446V107.367L75.5249 107.678H75.2246V148.757Z" stroke="black" stroke-width="0.43233"/>
<path d="M63.0625 66.601H59.9094L52.1016 66.2898V25.2109L59.9094 25.8333H63.0625V66.601Z" stroke="black" stroke-width="0.43233"/>
<path d="M63.0625 107.99H59.9094L52.1016 107.368V66.2891L59.9094 66.9115H63.0625V107.99Z" stroke="black" stroke-width="0.43233"/>
<path d="M63.0625 148.445H59.9094L52.1016 148.134V107.055L59.9094 107.366H63.0625V148.445Z" stroke="black" stroke-width="0.43233"/>
<path d="M87.3867 66.601H90.5399L98.3477 66.2898V25.2109L90.5399 25.8333H87.3867V66.601Z" stroke="black" stroke-width="0.43233"/>
<path d="M87.3867 107.99H90.5399L98.3477 107.368V66.2891L90.5399 66.9115H87.3867V107.99Z" stroke="black" stroke-width="0.43233"/>
<path d="M87.3867 148.445H90.5399L98.3477 148.134V107.055L90.5399 107.366H87.3867V148.445Z" stroke="black" stroke-width="0.43233"/>
<path d="M51.9526 66.2872L45.9466 65.976L41.8926 65.3536V24.5859L45.9466 24.8971L51.9526 25.2083V66.2872Z" stroke="black" stroke-width="0.43233"/>
<path d="M51.9526 107.365L45.9466 107.054L41.8926 106.743V65.6641L45.9466 66.2865H51.9526V107.365Z" stroke="black" stroke-width="0.43233"/>
<path d="M51.9526 148.131L45.9466 147.509L41.8926 147.197V106.43L45.9466 106.741L51.9526 107.052V148.131Z" stroke="black" stroke-width="0.43233"/>
<path d="M98.498 66.2872L104.504 65.976L108.558 65.3536V24.5859L104.504 24.8971L98.498 25.2083V66.2872Z" stroke="black" stroke-width="0.43233"/>
<path d="M98.498 107.365L104.504 107.054L108.558 106.743V65.6641L104.504 66.2865H98.498V107.365Z" stroke="black" stroke-width="0.43233"/>
<path d="M98.498 148.131L104.504 147.509L108.558 147.197V106.43L104.504 106.741L98.498 107.052V148.131Z" stroke="black" stroke-width="0.43233"/>
<path d="M42.0422 65.351L33.3335 64.7286H33.0332V23.9609H33.3335L42.0422 24.5833V65.351Z" stroke="black" stroke-width="0.43233"/>
<path d="M42.0422 106.74L33.3335 105.807H33.0332V65.0391H33.3335L42.0422 65.6615V106.74Z" stroke="black" stroke-width="0.43233"/>
<path d="M42.0422 147.201L33.3335 146.579H33.0332V105.5L33.3335 105.811L42.0422 106.434V147.201Z" stroke="black" stroke-width="0.43233"/>
<path d="M108.408 65.351L117.117 64.7286H117.417V23.9609H117.117L108.408 24.5833V65.351Z" stroke="black" stroke-width="0.43233"/>
<path d="M108.408 106.74L117.117 105.807H117.417V65.0391H117.117L108.408 65.6615V106.74Z" stroke="black" stroke-width="0.43233"/>
<path d="M108.408 147.201L117.117 146.579H117.417V105.5L117.117 105.811L108.408 106.434V147.201Z" stroke="black" stroke-width="0.43233"/>
<path d="M25.0742 63.4864L33.0322 64.7312V23.9636L25.0742 22.7188V63.4864Z" stroke="black" stroke-width="0.43233"/>
<path d="M25.0742 104.876L33.0322 105.809V65.0417L25.0742 63.7969V104.876Z" stroke="black" stroke-width="0.43233"/>
<path d="M25.0742 145.33L33.0322 146.575V105.496L25.0742 104.562V145.33Z" stroke="black" stroke-width="0.43233"/>
<path d="M125.376 63.4864L117.418 64.7312V23.9636L125.376 22.7188V63.4864Z" stroke="black" stroke-width="0.43233"/>
<path d="M125.376 104.876L117.418 105.809V65.0417L125.376 63.7969V104.876Z" stroke="black" stroke-width="0.43233"/>
<path d="M125.376 145.33L117.418 146.575V105.496L125.376 104.562V145.33Z" stroke="black" stroke-width="0.43233"/>
<path d="M25.0749 63.8002V22.7214L22.3722 22.4102L18.168 21.4766V62.5554L22.3722 63.1778L25.0749 63.8002Z" fill="#F0F0F0" stroke="black" stroke-width="0.43233"/>
<path d="M25.0749 104.872V63.793L22.3722 63.4818L18.168 62.8594V103.627L22.3722 104.561L25.0749 104.872Z" fill="#F0F0F0" stroke="black" stroke-width="0.43233"/>
<path d="M25.0749 145.333V104.565L22.3722 104.254L18.168 103.32V144.399L22.3722 145.022L25.0749 145.333Z" fill="#F0F0F0" stroke="black" stroke-width="0.43233"/>
<path d="M18.1684 62.5502V21.4714L13.2134 20.5378L12.3125 20.2266V61.3054L13.2134 61.6166L18.1684 62.5502Z" fill="#F0F0F0" stroke="black" stroke-width="0.43233"/>
<path d="M18.1684 103.63V62.862L13.2134 61.6172H12.3125V102.385L13.2134 102.696L18.1684 103.63Z" fill="#F0F0F0" stroke="black" stroke-width="0.43233"/>
<path d="M18.1684 144.402V103.323L13.2134 102.389L12.3125 102.078V142.846L13.2134 143.157L18.1684 144.402Z" fill="#F0F0F0" stroke="black" stroke-width="0.43233"/>
<path d="M125.375 63.8002V22.7214L128.078 22.4102L132.282 21.4766V62.5554L128.078 63.1778L125.375 63.8002Z" fill="#E0E0E0" stroke="black" stroke-width="0.43233"/>
<path d="M125.375 104.872V63.793L128.078 63.4818L132.282 62.8594V103.627L128.078 104.561L125.375 104.872Z" fill="#E0E0E0" stroke="black" stroke-width="0.43233"/>
<path d="M125.375 145.333V104.565L128.078 104.254L132.282 103.32V144.399L128.078 145.022L125.375 145.333Z" fill="#E0E0E0" stroke="black" stroke-width="0.43233"/>
<path d="M132.283 62.5502V21.4714L137.238 20.5378L137.989 20.2266V61.3054L137.238 61.6166L132.283 62.5502Z" fill="#E0E0E0" stroke="black" stroke-width="0.43233"/>
<path d="M132.283 103.63V62.862L137.238 61.6172H137.989V102.385L137.238 102.696L132.283 103.63Z" fill="#E0E0E0" stroke="black" stroke-width="0.43233"/>
<path d="M132.283 144.402V103.323L137.238 102.389L137.989 102.078V142.846L137.238 143.157L132.283 144.402Z" fill="#E0E0E0" stroke="black" stroke-width="0.43233"/>
<path d="M142.943 59.7507L138.139 60.9955V20.2279L142.943 18.6719V59.7507Z" fill="#CCCCCC" stroke="black" stroke-width="0.43233"/>
<path d="M142.943 100.83L138.139 102.386V61.3073L142.943 60.0625V100.83Z" fill="#CCCCCC" stroke="black" stroke-width="0.43233"/>
<path d="M142.943 141.283L138.139 142.839V102.072L142.943 100.516V141.283Z" fill="#CCCCCC" stroke="black" stroke-width="0.43233"/>
<path d="M7.50766 59.752V18.6732L6.45661 18.362L3.75391 17.1172V57.8848L6.45661 59.4408L7.50766 59.752Z" fill="#E5E5E5" stroke="black" stroke-width="0.43233"/>
<path d="M7.50766 100.83V60.0625L6.45661 59.7513L3.75391 58.1953V99.2741L6.45661 100.519L7.50766 100.83Z" fill="#E5E5E5" stroke="black" stroke-width="0.43233"/>
<path d="M7.50766 141.596V100.517L6.45661 100.206L3.75391 98.9609V139.729L6.45661 140.973L7.50766 141.596Z" fill="#E5E5E5" stroke="black" stroke-width="0.43233"/>
<path d="M142.943 59.752V18.6732L143.994 18.362L146.697 17.1172V57.8848L143.994 59.4408L142.943 59.752Z" fill="#B2B2B2" stroke="black" stroke-width="0.43233"/>
<path d="M142.943 100.83V60.0625L143.994 59.7513L146.697 58.1953V99.2741L143.994 100.519L142.943 100.83Z" fill="#B2B2B2" stroke="black" stroke-width="0.43233"/>
<path d="M142.943 141.596V100.517L143.994 100.206L146.697 98.9609V139.729L143.994 140.973L142.943 141.596Z" fill="#B2B2B2" stroke="black" stroke-width="0.43233"/>
<path d="M74.9256 25.8338C116.057 25.8338 149.4 20.2605 149.4 13.3856C149.4 6.51072 116.057 0.9375 74.9256 0.9375C33.7945 0.9375 0.451172 6.51072 0.451172 13.3856C0.451172 20.2605 33.7945 25.8338 74.9256 25.8338Z" fill="#B2B2B2" stroke="black" stroke-width="0.43233"/>
<path d="M1.20117 56.0163V14.9375L2.10207 16.1823L3.75372 17.1159V57.8836L2.10207 56.9499L1.20117 56.0163Z" fill="#7F7F7F" stroke="black" stroke-width="0.43233"/>
<path d="M1.20117 97.0945V56.0156L2.10207 57.2604L3.75372 58.194V99.2729L2.10207 98.3393L1.20117 97.0945Z" fill="#7F7F7F" stroke="black" stroke-width="0.43233"/>
<path d="M1.20117 137.549V96.7812L2.10207 98.0261L3.75372 98.9597V139.727L2.10207 138.794L1.20117 137.549Z" fill="#7F7F7F" stroke="black" stroke-width="0.43233"/>
<path d="M149.1 56.0163V14.9375L148.349 16.1823L146.697 17.1159V57.8836L148.349 56.9499L149.1 56.0163Z" fill="#7F7F7F" stroke="black" stroke-width="0.43233"/>
<path d="M149.1 97.0945V56.0156L148.349 57.2604L146.697 58.194V99.2729L148.349 98.3393L149.1 97.0945Z" fill="#7F7F7F" stroke="black" stroke-width="0.43233"/>
<path d="M149.1 137.549V96.7812L148.349 98.0261L146.697 98.9597V139.727L148.349 138.794L149.1 137.549Z" fill="#7F7F7F" stroke="black" stroke-width="0.43233"/>
<path d="M74.1746 13.0703L81.5319 13.3815L84.6851 14.6263L81.5319 15.8711L74.1746 16.1823L66.8172 15.8711L63.6641 14.6263L66.8172 13.3815L74.1746 13.0703Z" fill="#F0F0F0" stroke="black" stroke-width="0.43233"/>
<path d="M98.6479 13.0703L103.152 13.3815L104.954 14.0039L103.152 14.6263L98.6479 14.9375L94.1434 14.6263L92.1914 14.0039L94.1434 13.3815L98.6479 13.0703Z" fill="#F0F0F0" stroke="black" stroke-width="0.43233"/>
<path d="M39.4899 13.0703L43.9944 13.3815L45.7962 14.0039L43.9944 14.6263L39.4899 14.9375L34.9854 14.6263L33.1836 14.0039L34.9854 13.3815L39.4899 13.0703Z" fill="#F0F0F0" stroke="black" stroke-width="0.43233"/>
<path d="M7.50781 59.7507L12.3126 60.9955V20.2279L7.50781 18.6719V59.7507Z" fill="#F0F0F0" stroke="black" stroke-width="0.43233"/>
<path d="M7.50781 100.83L12.3126 102.386V61.3073L7.50781 60.0625V100.83Z" fill="#F0F0F0" stroke="black" stroke-width="0.43233"/>
<path d="M7.50781 141.283L12.3126 142.839V102.072L7.50781 100.516V141.283Z" fill="#F0F0F0" stroke="black" stroke-width="0.43233"/>
</svg>
