<svg width="150" height="150" viewBox="0 0 150 150" fill="none" xmlns="http://www.w3.org/2000/svg">
<g clip-path="url(#clip0_2122_168126)">
<path fill-rule="evenodd" clip-rule="evenodd" d="M93.9935 64.263H102.402V47.9478H93.9935V64.263ZM81.2307 134.518L77.0265 122.865L51.6511 94.7292L47.4469 76.0832V38.4584H93.9935V76.0832H89.7893L93.9935 94.7292L98.1977 99.3907L110.96 127.526L81.2307 134.518ZM47.4469 29.1354V85.4062L43.2427 94.7292V113.542H34.6842V94.7292L30.6301 85.4062V29.1354L34.6842 19.8124V1H43.2427V19.8124L47.4469 29.1354ZM0.900391 76.0832H30.6301V38.4584H0.900391V76.0832Z" fill="#B2B2B2"/>
<path d="M70.7207 52.6119H93.994V38.4609H70.7207V52.6119Z" fill="#CCCCCC"/>
<path d="M0.900391 52.6119H30.6301V38.4609H0.900391V52.6119Z" fill="#CCCCCC"/>
<path d="M93.9941 76.0858H102.403V64.2656H93.9941V76.0858Z" fill="#7F7F7F"/>
<path d="M93.994 94.7292L70.7207 76.0832V66.5938H93.994V76.0832H89.7898L93.994 94.7292Z" fill="#7F7F7F"/>
<path d="M0.900391 76.0858H30.6301V64.2656H0.900391V76.0858Z" fill="#7F7F7F"/>
<path d="M131.982 47.9479H144.595V19.8125H131.982V47.9479Z" fill="#CCCCCC" stroke="black" stroke-width="0.31621"/>
<path d="M131.982 66.5913H148.949V47.9453H131.982V66.5913Z" fill="#E5E5E5" stroke="black" stroke-width="0.31621"/>
<path d="M131.982 94.7292H144.595V66.5938H131.982V94.7292Z" fill="#B2B2B2" stroke="black" stroke-width="0.31621"/>
<path d="M81.231 134.521L77.0268 122.867L51.6515 94.7317L47.4473 76.0858V38.4609H93.9938V76.0858H89.7896L93.9938 94.7317L98.198 99.3932L110.961 127.529L81.231 134.521Z" stroke="black" stroke-width="0.31621"/>
<path d="M82.4322 148.833L79.1289 135.015L111.711 125.359L115.015 139.177L82.4322 148.833Z" fill="#7F7F7F"/>
<path d="M93.9941 47.9504H102.403V38.4609H93.9941V47.9504Z" fill="#CCCCCC"/>
<path d="M93.9941 76.0858H102.403V38.4609H93.9941V76.0858Z" stroke="black" stroke-width="0.31621"/>
<path d="M88.5885 147.001L85.2852 133.183L105.555 127.023L109.009 141.008L88.5885 147.001Z" fill="#B2B2B2"/>
<path d="M96.6959 144.507L93.3926 130.689L97.5968 129.523L100.9 143.341L96.6959 144.507Z" fill="#E5E5E5"/>
<path d="M80.3301 139.515L112.763 129.859" stroke="black" stroke-width="0.31621"/>
<path d="M113.963 134.516L81.3809 144.172" stroke="black" stroke-width="0.31621"/>
<path d="M131.982 54.1094H148.949" stroke="black" stroke-width="0.31621"/>
<path d="M131.982 60.4297H148.949" stroke="black" stroke-width="0.31621"/>
<path d="M127.777 66.5913V47.9453" stroke="black" stroke-width="0.31621"/>
<path d="M82.5824 148.833L79.1289 135.015L111.711 125.359L115.165 139.177L82.5824 148.833Z" stroke="black" stroke-width="0.31621"/>
<path d="M91.8915 125.198L85.435 108.716L64.414 90.0704L55.8555 76.0859H62.1618L68.6182 87.7397L89.7894 106.552L98.1978 122.867L91.8915 125.198Z" fill="#E5E5E5"/>
<path d="M70.7207 45.617H93.994V40.7891H70.7207V45.617Z" fill="#E5E5E5"/>
<path d="M0.900391 45.617H30.6301V40.7891H0.900391V45.617Z" fill="#E5E5E5"/>
<path d="M0.900391 76.0858H30.6301V38.4609H0.900391V76.0858Z" stroke="black" stroke-width="0.31621"/>
<path d="M43.2441 19.8125V33.797L47.4483 43.1199V29.1355L43.2441 19.8125Z" fill="#999999"/>
<path d="M34.6849 19.8125V33.797L30.6309 43.1199V29.1355L34.6849 19.8125Z" fill="#999999"/>
<path d="M34.6849 94.7317V80.7473L30.6309 71.2578V85.4088L34.6849 94.7317Z" fill="#999999"/>
<path d="M43.2441 94.7317V80.7473L47.4483 71.2578V85.4088L43.2441 94.7317Z" fill="#999999"/>
<path d="M47.4477 29.1354V85.4062L43.2435 94.7292V113.542H34.6849V94.7292L30.6309 85.4062V29.1354L34.6849 19.8124V1H43.2435V19.8124L47.4477 29.1354Z" stroke="black" stroke-width="0.31621"/>
<path d="M102.402 47.9477H127.778V14.9844H131.982V99.3906H127.778V66.5937H102.402V47.9477Z" fill="#7F7F7F"/>
<path d="M102.402 50.4451H127.778V26.8047H131.982V87.737H127.778V64.0966H102.402V50.4451Z" fill="#B2B2B2"/>
<path d="M102.402 54.105H127.778V43.1172H131.982V71.2526H127.778V60.4313H102.402V54.105Z" fill="white"/>
<path d="M102.402 47.9477H127.778V14.9844H131.982V99.3906H127.778V66.5937H102.402V47.9477Z" stroke="black" stroke-width="0.31621"/>
</g>
<defs>
<clipPath id="clip0_2122_168126">
<rect width="150" height="150" fill="white"/>
</clipPath>
</defs>
</svg>
