<svg width="150" height="150" viewBox="0 0 150 150" fill="none" xmlns="http://www.w3.org/2000/svg">
<g clip-path="url(#clip0_2122_167923)">
<path d="M0 0H150V149.85H0V0Z" fill="#B2B2B2" stroke="black" stroke-width="0.320143"/>
<path d="M29.3515 117.718C30.1055 117.718 30.7167 100.105 30.7167 78.3784C30.7167 56.6519 30.1055 39.0391 29.3515 39.0391C28.5975 39.0391 27.9863 56.6519 27.9863 78.3784C27.9863 100.105 28.5975 117.718 29.3515 117.718Z" fill="black"/>
<path d="M90.273 128.828V130.33H42.6621V128.828H90.273Z" fill="black"/>
<path d="M92.3203 104.203H96.2452V106.606H92.3203V104.203Z" fill="#F0F0F0" stroke="black" stroke-width="0.320143"/>
<path d="M45.9043 14.5625H52.3889V138.436H45.9043V14.5625Z" fill="#F0F0F0" stroke="black" stroke-width="0.320143"/>
<path d="M71.502 14.5625H78.4985V76.8748H71.502V14.5625Z" fill="#F0F0F0" stroke="black" stroke-width="0.320143"/>
<path d="M95.9043 14.5625H102.389V76.8748H95.9043V14.5625Z" fill="#F0F0F0" stroke="black" stroke-width="0.320143"/>
<path d="M122.355 14.5625H128.84V144.593H122.355V14.5625Z" fill="#F0F0F0" stroke="black" stroke-width="0.320143"/>
<path d="M106.826 4.65625V10.6623H117.918V4.65625H106.826Z" fill="#F0F0F0" stroke="black" stroke-width="0.320143"/>
<path d="M67.4059 4.65625V10.6623H56.4844V4.65625H67.4059Z" fill="#F0F0F0" stroke="black" stroke-width="0.320143"/>
<path d="M101.195 137.836V143.542H42.1504V137.836H101.195Z" fill="#F0F0F0" stroke="black" stroke-width="0.320143"/>
<path d="M101.195 138.891V139.191H42.1504V138.891H101.195Z" fill="white"/>
<path d="M83.7888 148.496L83.4475 146.394L82.9355 140.237L83.7888 132.43H145.564V148.496H83.7888Z" fill="#B2B2B2" stroke="black" stroke-width="0.320143"/>
<path d="M95.5637 77.9297H102.39V99.8516H103.755V111.713H102.39V133.786H95.5637V111.713H94.3691V99.8516H95.5637V77.9297Z" fill="black"/>
<path d="M83.4473 146.694L83.7886 132.43H145.563V146.694H83.4473Z" fill="#D4D4D4"/>
<path d="M82.9355 140.987L83.4475 133.18H145.564V140.987H82.9355Z" fill="#E8E8E8"/>
<path d="M83.4473 135.283V133.781H145.563V135.283H83.4473Z" fill="white"/>
<path d="M84.1303 148.496L83.789 147.445L82.9358 145.643V143.09L82.4238 140.237L82.9358 137.385V134.832L83.4477 133.18L84.1303 132.43H145.564V148.496H84.1303Z" stroke="black" stroke-width="0.320143"/>
<path d="M146.928 140.237L146.416 145.943L145.563 148.496L144.369 145.943L144.027 140.237L144.369 134.532L145.563 132.43L146.416 134.532L146.928 140.237Z" fill="#E5E5E5" stroke="black" stroke-width="0.320143"/>
<path d="M117.064 4.65625V9.91151L119.624 10.6623L121.16 11.7133L122.355 13.2148L123.208 15.0166H129.351L128.839 12.7644L128.498 10.9626L127.303 9.3109L126.109 7.35895L124.061 6.3079L122.013 5.25685L119.624 4.65625H117.064Z" fill="black" stroke="black" stroke-width="0.320143"/>
<path d="M107.849 4.65625V9.91151L105.631 10.6623L103.754 11.7133L102.388 13.2148L102.047 15.0166H95.5625L95.9038 12.7644L96.757 10.9626L97.9516 9.3109L99.1461 7.35895L101.194 6.3079L103.242 5.25685L105.289 4.65625H107.849Z" fill="black" stroke="black" stroke-width="0.320143"/>
<path d="M66.5527 4.65625V9.91151L68.7712 10.6623L70.6483 11.7133L71.8428 13.2148L72.3548 15.0166H78.8394L78.4981 12.7644L77.6449 10.9626L76.4503 9.3109L75.2558 7.35895L73.208 6.3079L71.1602 5.25685L69.1125 4.65625H66.5527Z" fill="black" stroke="black" stroke-width="0.320143"/>
<path d="M57.6785 4.65625V9.91151L55.6308 10.6623L53.583 11.7133L52.3884 13.2148L52.0471 15.0166H45.5625L45.9038 12.7644L46.757 10.9626L47.4396 9.3109L49.1461 7.35895L50.8526 6.3079L53.2417 5.25685L55.2895 4.65625H57.6785Z" fill="black" stroke="black" stroke-width="0.320143"/>
<path d="M90.6152 87.6858V81.9801L92.663 81.5297L94.7108 80.4786L95.9053 78.6768L96.2466 76.875H102.902L102.39 79.1273L101.537 80.7789L100.854 82.5807L99.1477 84.3825L97.6118 85.4336L95.564 86.6348L93.175 87.2354L90.6152 87.6858Z" fill="black" stroke="black" stroke-width="0.320143"/>
<path d="M82.9355 81.5312H91.468V87.237H82.9355V81.5312Z" fill="black" stroke="black" stroke-width="0.320143"/>
<path d="M83.4468 87.6858V81.9801L81.2284 81.5297L79.3513 80.4786L77.9861 78.6768L77.6448 76.875H71.1602L71.5015 79.1273L72.3547 80.7789L73.2079 82.5807L74.7438 84.3825L76.4503 85.4336L78.8393 86.6348L80.8871 87.2354L83.4468 87.6858Z" fill="black" stroke="black" stroke-width="0.320143"/>
<path d="M103.242 76.5781V79.1307H95.0508V76.5781H103.242Z" fill="#7F7F7F" stroke="black" stroke-width="0.320143"/>
<path d="M93.1745 87.9885H90.2734V80.7812H93.1745V87.9885Z" fill="#7F7F7F" stroke="black" stroke-width="0.320143"/>
<path d="M80.8867 87.9885H83.7877V80.7812H80.8867V87.9885Z" fill="#7F7F7F" stroke="black" stroke-width="0.320143"/>
<path d="M70.6484 76.5781V79.1307H78.8396V76.5781H70.6484Z" fill="#7F7F7F" stroke="black" stroke-width="0.320143"/>
<path d="M129.693 15.6185V12.7656H121.502V15.6185H129.693Z" fill="#7F7F7F" stroke="black" stroke-width="0.320143"/>
<path d="M119.624 3.90625H116.723V11.4138H119.624V3.90625Z" fill="#7F7F7F" stroke="black" stroke-width="0.320143"/>
<path d="M105.291 3.90625H108.192V11.4138H105.291V3.90625Z" fill="#7F7F7F" stroke="black" stroke-width="0.320143"/>
<path d="M95.0508 15.6185V12.7656H103.754V15.6185H95.0508Z" fill="#7F7F7F" stroke="black" stroke-width="0.320143"/>
<path d="M79.3515 15.6185V12.7656H70.6484V15.6185H79.3515Z" fill="#7F7F7F" stroke="black" stroke-width="0.320143"/>
<path d="M69.1134 3.90625H65.8711V11.4138H69.1134V3.90625Z" fill="#7F7F7F" stroke="black" stroke-width="0.320143"/>
<path d="M55.291 3.90625H58.0214V11.4138H55.291V3.90625Z" fill="#7F7F7F" stroke="black" stroke-width="0.320143"/>
<path d="M45.0508 15.6185V12.7656H53.2419V15.6185H45.0508Z" fill="#7F7F7F" stroke="black" stroke-width="0.320143"/>
<path d="M49.6577 83.0312L53.5827 84.3826L55.6304 88.2865L53.5827 92.3406L49.6577 93.6919L45.0502 92.3406L43.3438 88.2865L45.0502 84.3826L49.6577 83.0312Z" fill="white" stroke="black" stroke-width="0.320143"/>
<path d="M49.1465 88.7408V88.2904L53.242 85.4375L49.1465 88.7408Z" fill="black"/>
<path d="M91.127 103H93.1747V119.517H91.127V103Z" fill="#FF0000" stroke="black" stroke-width="0.320143"/>
<path d="M5.97334 51.0547H34.9836V77.6313L32.9358 79.1328L4.4375 52.5562L5.97334 51.0547Z" fill="#7F7F7F" stroke="black" stroke-width="0.320143"/>
<path d="M5.97334 12.0156H34.9836V39.0427L32.9358 40.0937L4.4375 13.9676L5.97334 12.0156Z" fill="#7F7F7F" stroke="black" stroke-width="0.320143"/>
<path d="M3.92578 13.5156H32.936V40.0922H3.92578V13.5156Z" fill="#F0F0F0" stroke="black" stroke-width="0.320143"/>
<path d="M3.92578 52.5547H32.936V79.1313H3.92578V52.5547Z" fill="#F0F0F0" stroke="black" stroke-width="0.320143"/>
<path d="M10.5809 17.5703L12.97 18.6214L13.6526 20.273L12.97 22.5253L10.5809 23.276L8.36251 22.5253L7.16797 20.273L8.36251 18.6214L10.5809 17.5703Z" fill="#FF0000" stroke="black" stroke-width="0.320143"/>
<path d="M24.7443 56.4531L26.7921 57.2039L27.6453 59.306L26.7921 61.1078L24.7443 62.1588L22.3552 61.1078L21.502 59.306L22.3552 57.2039L24.7443 56.4531Z" fill="black"/>
<path d="M10.5809 56.4531L12.97 57.2039L13.6526 59.306L12.97 61.1078L10.5809 62.1588L8.36251 61.1078L7.16797 59.306L8.36251 57.2039L10.5809 56.4531Z" fill="black"/>
<path d="M24.7443 17.8672L26.7921 18.6179L27.6453 20.2696L26.7921 22.5218L24.7443 23.2726L22.3552 22.5218L21.502 20.2696L22.3552 18.6179L24.7443 17.8672Z" fill="black"/>
<path d="M10.9219 66.8203H25.9389V74.0275H10.9219V66.8203Z" fill="white" stroke="black" stroke-width="0.320143"/>
<path d="M42.6626 128.83L40.2735 128.379L38.0551 127.779L35.666 127.028L34.1302 125.677L32.4237 123.725L31.2291 122.073L30.8879 120.271L30.3759 117.719H28.3281L28.8401 120.572L29.6933 122.674L30.8879 124.926L32.9356 126.728L34.9834 128.079L37.3725 129.581L39.7616 130.331H42.6626V128.83Z" fill="black"/>
<path d="M87.3711 126.273H96.2448V132.43H87.3711V126.273Z" fill="#F0F0F0" stroke="black" stroke-width="0.320143"/>
<path d="M44.709 136.039H53.5827V145.198H44.709V136.039Z" fill="#00007F" stroke="black" stroke-width="0.320143"/>
</g>
<defs>
<clipPath id="clip0_2122_167923">
<rect width="150" height="150" fill="white"/>
</clipPath>
</defs>
</svg>
