<svg width="150" height="150" viewBox="0 0 150 150" fill="none" xmlns="http://www.w3.org/2000/svg">
<g clip-path="url(#clip0_2122_164151)">
<path d="M12.312 50.4609L13.2129 51.4907L22.3721 55.9529L33.333 59.0422L46.0958 61.7882L59.9096 63.5044L74.9246 64.1909L89.6393 63.5044L103.753 61.7882L116.216 59.0422L127.477 55.9529L136.636 51.4907L137.537 50.4609L137.838 51.4907V111.903L136.636 116.708L132.883 121.17L127.027 125.633L119.519 129.408L110.06 132.154L99.249 134.557L87.3871 135.93H74.9246H62.1619L50.3 134.557L39.7895 132.154L30.33 129.408L22.8225 125.633L16.9667 121.17L13.2129 116.708L12.0117 111.903V51.4907L12.312 50.4609Z" fill="#E0E0E0" stroke="black" stroke-width="0.454044"/>
<path d="M137.838 111.211V111.897L136.636 116.703L132.883 121.165L127.027 125.627L119.519 129.403L110.06 132.149L99.5494 134.552L87.6875 135.925H74.9248H62.162L50.3002 134.552L39.7896 132.149L30.3302 129.403L22.8227 125.627L16.9668 121.165L13.2131 116.703L12.0119 111.897V111.211H11.7116L7.65751 116.703L6.00586 121.852L7.65751 127L11.7116 132.149L17.8677 136.955L26.4263 140.73L36.4863 144.163L48.3482 146.566L61.111 147.939L74.9248 148.968L88.7386 147.939L101.501 146.566L113.363 144.163L123.423 140.73L131.682 136.955L138.138 132.149L142.192 127L143.393 121.852L142.192 116.703L138.138 111.211H137.838Z" fill="#E0E0E0" stroke="black" stroke-width="0.454044"/>
<path d="M148.349 32.6094L147.748 35.6986L143.394 41.5339L136.637 45.9961L127.478 50.4583L116.217 54.2341L103.754 56.6368L89.6404 58.0098L74.9256 59.0396L59.9106 58.0098L46.0968 56.6368L33.3341 54.2341L22.3731 50.4583L13.2139 45.9961L6.45718 41.5339L2.10282 35.6986L1.20192 32.6094L0.451172 35.6986L2.10282 40.8474L6.45718 47.0259L13.2139 51.4881L22.3731 55.9503L33.3341 59.7261L46.0968 61.7856L59.9106 63.5018L74.9256 64.1883L89.6404 63.5018L103.754 61.7856L116.217 59.7261L127.478 55.9503L136.637 51.4881L143.394 47.0259L147.748 40.8474L149.4 35.6986L148.349 32.6094Z" fill="#7F7F7F" stroke="black" stroke-width="0.454044"/>
<path d="M74.7755 58.6972C115.824 58.6972 149.1 45.7882 149.1 29.8642C149.1 13.9402 115.824 1.03125 74.7755 1.03125C33.7273 1.03125 0.451172 13.9402 0.451172 29.8642C0.451172 45.7882 33.7273 58.6972 74.7755 58.6972Z" fill="white" stroke="black" stroke-width="0.454044"/>
<path d="M128.679 12.3594L133.333 14.7621L139.49 19.2244L143.393 24.3731L144.745 29.5218H92.6427L92.3424 28.1488L91.5916 27.4624L89.94 25.7461H89.0391L128.679 12.3594Z" fill="#43A143"/>
<path d="M87.988 3.42969H89.94L102.853 4.80269L114.264 7.20543L124.174 10.9812L128.078 12.3542L88.2883 25.0544H87.3874L85.1352 24.3679L82.4325 23.6814L79.4294 22.9949H79.2793L87.988 3.42969Z" fill="#43A143"/>
<path d="M86.0365 3.42869L74.3248 2.74219L60.8113 3.42869L48.0485 4.80168L40.541 6.51793L66.3668 23.6804H68.3188L71.0215 22.9939H74.3248H76.8774L86.0365 3.42869Z" fill="#43A143"/>
<path d="M9.60938 20.5967L10.6604 19.2237L16.9667 14.7614L25.0748 10.9857L35.2851 7.89644L39.189 6.52344L65.1649 24.3724H64.1139L61.8616 25.0589L60.21 25.7454L58.5583 27.4617H58.258L9.60938 20.5967Z" fill="#43A143"/>
<path d="M9.30919 39.4735L6.45634 35.6977L4.80469 30.2057L6.45634 24.3705L9.30919 21.2812L57.8077 28.1462L57.2071 28.8327L56.9068 30.2057L57.2071 31.2355L57.8077 31.922L9.30919 39.4735Z" fill="#43A143"/>
<path d="M39.189 53.5476L35.2851 52.8611L25.0748 49.0853L16.9667 45.3096L10.6604 40.8474L9.60938 40.1609L58.258 32.6094L58.5583 33.2959L60.21 33.9824L61.8616 35.0121L64.1139 35.6986H65.1649L39.189 53.5476Z" fill="#43A143"/>
<path d="M66.3668 36.3828L40.541 53.5453L48.0485 55.2615L60.8113 56.6345L74.3248 57.321L86.0365 56.6345L76.8774 37.0693H74.3248H71.0215L68.3188 36.3828H66.3668Z" fill="#43A143"/>
<path d="M79.2793 37.0673L87.988 56.6325H89.94L102.853 55.2595L114.264 52.8568L124.174 49.7675L128.078 47.708L88.2883 35.0078H87.3874L85.1352 35.6943L82.4325 36.3808L79.4294 37.0673H79.2793Z" fill="#43A143"/>
<path d="M89.0391 33.9789L128.679 47.7088L133.333 45.3061L139.49 40.8439L143.393 35.6951L144.745 30.2031H92.6427L92.3424 31.9194L91.2913 32.6059L89.94 33.9789H89.0391Z" fill="#43A143"/>
<path d="M107.056 133.184V88.9049L82.4316 64.1909L89.6388 63.5044L103.753 61.7882L116.215 59.0422L127.477 55.9529L136.636 51.4907L137.537 50.4609L137.837 51.4907V111.903L136.636 116.708L132.882 121.17L127.026 125.633L119.519 129.408L110.059 132.154L107.056 133.184Z" fill="#B2B2B2"/>
<path d="M106.006 133.179L109.309 145.193L113.363 144.163L123.423 140.73L131.682 136.955L138.138 132.149L142.192 127L143.393 121.852L142.192 116.703L138.138 111.211H137.838V111.897L136.636 116.703L132.883 121.165L127.027 125.627L119.519 129.403L110.06 132.149L106.006 133.179Z" fill="#B2B2B2"/>
<path d="M137.838 111.211V111.897L136.636 116.703L132.883 121.165L127.027 125.627L119.519 129.403L110.06 132.149L99.5494 134.552L87.6875 135.925H74.9248H62.162L50.3002 134.552L39.7896 132.149L30.3302 129.403L22.8227 125.627L16.9668 121.165L13.2131 116.703L12.0119 111.897V111.211H11.7116L7.65751 116.703L6.00586 121.852L7.65751 127L11.7116 132.149L17.8677 136.955L26.4263 140.73L36.4863 144.163L48.3482 146.566L61.111 147.939L74.9248 148.968L88.7386 147.939L101.501 146.566L113.363 144.163L123.423 140.73L131.682 136.955L138.138 132.149L142.192 127L143.393 121.852L142.192 116.703L138.138 111.211H137.838Z" stroke="black" stroke-width="0.454044"/>
<path d="M12.0126 102.289V111.214L7.6582 116.706L12.0126 102.289Z" fill="#B2B2B2" stroke="black" stroke-width="0.454044"/>
<path d="M29.2791 116.703L26.7266 135.925L29.2791 129.403V116.703Z" fill="#B2B2B2" stroke="black" stroke-width="0.454044"/>
<path d="M49.3985 121.852L46.9961 142.103L48.6477 134.552L49.3985 121.852Z" fill="#B2B2B2" stroke="black" stroke-width="0.454044"/>
<path d="M71.3223 123.227H71.9229V144.165H71.3223V123.227Z" fill="#B2B2B2" stroke="black" stroke-width="0.454044"/>
<path d="M92.9434 121.852L95.1956 142.103L93.544 134.552L92.9434 121.852Z" fill="#B2B2B2" stroke="black" stroke-width="0.454044"/>
<path d="M137.838 102.289V111.214L142.192 116.706L137.838 102.289Z" fill="#B2B2B2" stroke="black" stroke-width="0.454044"/>
<path d="M118.918 116.703L121.471 135.925L118.918 129.403V116.703Z" fill="#B2B2B2" stroke="black" stroke-width="0.454044"/>
</g>
<defs>
<clipPath id="clip0_2122_164151">
<rect width="150" height="150" fill="white"/>
</clipPath>
</defs>
</svg>
