<svg width="150" height="150" viewBox="0 0 150 150" fill="none" xmlns="http://www.w3.org/2000/svg">
<g clip-path="url(#clip0_2122_166539)">
<path d="M3.45312 146.177L135.435 130.891L126.576 12.738L108.708 2.54688H16.0657L3.45312 146.177Z" fill="#CCCCCC" stroke="black" stroke-width="0.437349"/>
<path d="M134.686 36.6227H140.091L142.644 32.1641H137.238L134.686 36.6227Z" fill="#7F7FFF" stroke="black" stroke-width="0.437349"/>
<path d="M134.686 36.625H140.091V138.854H134.686V36.625Z" fill="#7F7FFF" stroke="black" stroke-width="0.437349"/>
<path d="M142.642 32.1641L140.09 36.6227V138.852L142.642 133.438V32.1641Z" fill="#0000E0" stroke="black" stroke-width="0.437349"/>
<path d="M5.25586 36.6227H10.6613L13.2138 32.1641H7.80841L5.25586 36.6227Z" fill="#7F7FFF" stroke="black" stroke-width="0.437349"/>
<path d="M5.25586 36.625H10.6613V138.854H5.25586V36.625Z" fill="#7F7FFF" stroke="black" stroke-width="0.437349"/>
<path d="M13.2127 32.1641L10.6602 36.6227V138.852L13.2127 133.438V32.1641Z" fill="#0000E0" stroke="black" stroke-width="0.437349"/>
<path d="M120.57 55.4141H142.642V95.223H120.57V55.4141Z" fill="#0000E0" stroke="black" stroke-width="0.437349"/>
<path d="M120.57 55.4153H142.642L150 40.7656H127.778L120.57 55.4153Z" fill="#0000E0" stroke="black" stroke-width="0.437349"/>
<path d="M149.549 40.7656L142.643 55.4153V95.2242L149.549 80.2561V40.7656Z" fill="#00007F" stroke="black" stroke-width="0.437349"/>
<path d="M143.844 61.7807L148.649 52.2266V73.5641L143.844 83.1183V61.7807Z" fill="#FFFF00" stroke="black" stroke-width="0.437349"/>
<path d="M0 48.0914H5.25526L7.80781 43.6328H2.4024L0 48.0914Z" fill="#7F7FFF" stroke="black" stroke-width="0.437349"/>
<path d="M0 48.0859H5.25526V149.997H0V48.0859Z" fill="#7F7FFF" stroke="black" stroke-width="0.437349"/>
<path d="M7.80841 43.6328L5.25586 48.0914V150.002L7.80841 144.907V43.6328Z" fill="#0000E0" stroke="black" stroke-width="0.437349"/>
<path d="M6.90625 14.0156H12.3117V115.926H6.90625V14.0156Z" fill="#7F7FFF" stroke="black" stroke-width="0.437349"/>
<path d="M6.90625 14.0114H12.3117L14.8642 9.23438H9.4588L6.90625 14.0114Z" fill="#7F7FFF" stroke="black" stroke-width="0.437349"/>
<path d="M111.262 14.0114H116.667L119.22 9.23438H113.814L111.262 14.0114Z" fill="#7F7FFF" stroke="black" stroke-width="0.437349"/>
<path d="M14.8651 9.23438L12.3125 14.0114V115.922L14.8651 110.508V9.23438Z" fill="#0000E0" stroke="black" stroke-width="0.437349"/>
<path d="M111.261 39.4917H12.3125L14.1143 35.3516H113.213L111.261 39.4917Z" fill="#7F7FFF" stroke="black" stroke-width="0.437349"/>
<path d="M111.262 14.0156H116.667V115.926H111.262V14.0156Z" fill="#7F7FFF" stroke="black" stroke-width="0.437349"/>
<path d="M119.219 9.23438L116.666 14.0114V115.922L119.219 110.508V9.23438Z" fill="#0000E0" stroke="black" stroke-width="0.437349"/>
<path d="M111.261 39.4922H12.3125V57.6451H111.261V39.4922Z" fill="#7F7FFF" stroke="black" stroke-width="0.437349"/>
<path d="M118.918 19.4297H127.777V111.149H118.918V19.4297Z" fill="#F0F0F0" stroke="black" stroke-width="0.437349"/>
<path d="M118.918 19.4255H127.777L132.582 9.23438H124.023L118.918 19.4255Z" fill="#F0F0F0" stroke="black" stroke-width="0.437349"/>
<path d="M132.282 9.875L127.777 19.4291V111.149L132.282 101.276V9.875Z" fill="#B2B2B2" stroke="black" stroke-width="0.437349"/>
<path d="M130.029 48.0914H135.435L137.537 43.6328H132.282L130.029 48.0914Z" fill="#7F7FFF" stroke="black" stroke-width="0.437349"/>
<path d="M130.029 48.0859H135.435V149.997H130.029V48.0859Z" fill="#7F7FFF" stroke="black" stroke-width="0.437349"/>
<path d="M137.538 43.6328L135.436 48.0914V150.002L137.538 144.907V43.6328Z" fill="#0000E0" stroke="black" stroke-width="0.437349"/>
<path d="M12.9121 15.9219H14.4136V32.1639H12.9121V15.9219Z" fill="#BFBFFF" stroke="black" stroke-width="0.437349"/>
<path d="M17.5684 15.9219H19.22V32.1639H17.5684V15.9219Z" fill="#BFBFFF" stroke="black" stroke-width="0.437349"/>
<path d="M22.0723 15.9219H23.7239V32.1639H22.0723V15.9219Z" fill="#BFBFFF" stroke="black" stroke-width="0.437349"/>
<path d="M26.877 15.9219H28.3785V32.1639H26.877V15.9219Z" fill="#BFBFFF" stroke="black" stroke-width="0.437349"/>
<path d="M31.5312 15.9219H33.1829V32.1639H31.5312V15.9219Z" fill="#BFBFFF" stroke="black" stroke-width="0.437349"/>
<path d="M36.0352 15.9219H37.5367V32.1639H36.0352V15.9219Z" fill="#BFBFFF" stroke="black" stroke-width="0.437349"/>
<path d="M40.6914 15.9219H42.3431V32.1639H40.6914V15.9219Z" fill="#BFBFFF" stroke="black" stroke-width="0.437349"/>
<path d="M45.1953 15.9219H46.6968V32.1639H45.1953V15.9219Z" fill="#BFBFFF" stroke="black" stroke-width="0.437349"/>
<path d="M50 15.9219H51.5015V32.1639H50V15.9219Z" fill="#BFBFFF" stroke="black" stroke-width="0.437349"/>
<path d="M54.3535 15.9219H56.3055V32.1639H54.3535V15.9219Z" fill="#BFBFFF" stroke="black" stroke-width="0.437349"/>
<path d="M59.1582 15.9219H60.6597V32.1639H59.1582V15.9219Z" fill="#BFBFFF" stroke="black" stroke-width="0.437349"/>
<path d="M63.8145 15.9219H65.4661V32.1639H63.8145V15.9219Z" fill="#BFBFFF" stroke="black" stroke-width="0.437349"/>
<path d="M68.3184 15.9219H69.8199V32.1639H68.3184V15.9219Z" fill="#BFBFFF" stroke="black" stroke-width="0.437349"/>
<path d="M72.9727 15.9219H74.6243V32.1639H72.9727V15.9219Z" fill="#BFBFFF" stroke="black" stroke-width="0.437349"/>
<path d="M77.7773 15.9219H79.2788V32.1639H77.7773V15.9219Z" fill="#BFBFFF" stroke="black" stroke-width="0.437349"/>
<path d="M82.2832 15.9219H83.7847V32.1639H82.2832V15.9219Z" fill="#BFBFFF" stroke="black" stroke-width="0.437349"/>
<path d="M86.9375 15.9219H88.5892V32.1639H86.9375V15.9219Z" fill="#BFBFFF" stroke="black" stroke-width="0.437349"/>
<path d="M91.291 15.9219H92.9427V32.1639H91.291V15.9219Z" fill="#BFBFFF" stroke="black" stroke-width="0.437349"/>
<path d="M96.0957 15.9219H97.7474V32.1639H96.0957V15.9219Z" fill="#BFBFFF" stroke="black" stroke-width="0.437349"/>
<path d="M100.602 15.9219H102.403V32.1639H100.602V15.9219Z" fill="#BFBFFF" stroke="black" stroke-width="0.437349"/>
<path d="M105.256 15.9219H106.908V32.1639H105.256V15.9219Z" fill="#BFBFFF" stroke="black" stroke-width="0.437349"/>
<path d="M110.061 15.9219H111.712V32.1639H110.061V15.9219Z" fill="#BFBFFF" stroke="black" stroke-width="0.437349"/>
<path d="M15.4648 0H16.9663V15.9236H15.4648V0Z" fill="#F0F0F0" stroke="black" stroke-width="0.437349"/>
<path d="M19.8203 0H21.472V15.9236H19.8203V0Z" fill="#F0F0F0" stroke="black" stroke-width="0.437349"/>
<path d="M24.625 0H26.1265V15.9236H24.625V0Z" fill="#F0F0F0" stroke="black" stroke-width="0.437349"/>
<path d="M29.1289 0H30.9307V15.9236H29.1289V0Z" fill="#F0F0F0" stroke="black" stroke-width="0.437349"/>
<path d="M33.7832 0H35.4349V15.9236H33.7832V0Z" fill="#F0F0F0" stroke="black" stroke-width="0.437349"/>
<path d="M38.5879 0H40.0894V15.9236H38.5879V0Z" fill="#F0F0F0" stroke="black" stroke-width="0.437349"/>
<path d="M42.9434 0H44.595V15.9236H42.9434V0Z" fill="#F0F0F0" stroke="black" stroke-width="0.437349"/>
<path d="M47.748 0H49.2495V15.9236H47.748V0Z" fill="#F0F0F0" stroke="black" stroke-width="0.437349"/>
<path d="M52.1016 0H54.0535V15.9236H52.1016V0Z" fill="#F0F0F0" stroke="black" stroke-width="0.437349"/>
<path d="M56.9062 0H58.5579V15.9236H56.9062V0Z" fill="#F0F0F0" stroke="black" stroke-width="0.437349"/>
<path d="M61.7109 0H63.2124V15.9236H61.7109V0Z" fill="#F0F0F0" stroke="black" stroke-width="0.437349"/>
<path d="M66.0664 0H67.5679V15.9236H66.0664V0Z" fill="#F0F0F0" stroke="black" stroke-width="0.437349"/>
<path d="M70.7207 0H72.3724V15.9236H70.7207V0Z" fill="#F0F0F0" stroke="black" stroke-width="0.437349"/>
<path d="M75.2246 0H77.1766V15.9236H75.2246V0Z" fill="#F0F0F0" stroke="black" stroke-width="0.437349"/>
<path d="M80.0293 0H81.5308V15.9236H80.0293V0Z" fill="#F0F0F0" stroke="black" stroke-width="0.437349"/>
<path d="M84.6855 0H86.3372V15.9236H84.6855V0Z" fill="#F0F0F0" stroke="black" stroke-width="0.437349"/>
<path d="M89.1895 0H90.691V15.9236H89.1895V0Z" fill="#F0F0F0" stroke="black" stroke-width="0.437349"/>
<path d="M93.8438 0H95.4954V15.9236H93.8438V0Z" fill="#F0F0F0" stroke="black" stroke-width="0.437349"/>
<path d="M98.3477 0H100.3V15.9236H98.3477V0Z" fill="#F0F0F0" stroke="black" stroke-width="0.437349"/>
<path d="M103.152 0H104.654V15.9236H103.152V0Z" fill="#F0F0F0" stroke="black" stroke-width="0.437349"/>
<path d="M107.809 0H109.46V15.9236H107.809V0Z" fill="#F0F0F0" stroke="black" stroke-width="0.437349"/>
<path d="M15.4648 60.8281H16.9663V101.911H15.4648V60.8281Z" fill="#F0F0F0" stroke="black" stroke-width="0.437349"/>
<path d="M19.8203 60.8281H21.472V101.911H19.8203V60.8281Z" fill="#F0F0F0" stroke="black" stroke-width="0.437349"/>
<path d="M24.625 60.8281H26.1265V101.911H24.625V60.8281Z" fill="#F0F0F0" stroke="black" stroke-width="0.437349"/>
<path d="M29.1289 60.8281H30.9307V101.911H29.1289V60.8281Z" fill="#F0F0F0" stroke="black" stroke-width="0.437349"/>
<path d="M33.7832 60.8281H35.4349V101.911H33.7832V60.8281Z" fill="#F0F0F0" stroke="black" stroke-width="0.437349"/>
<path d="M38.5879 60.8281H40.0894V101.911H38.5879V60.8281Z" fill="#F0F0F0" stroke="black" stroke-width="0.437349"/>
<path d="M42.9434 60.8281H44.595V101.911H42.9434V60.8281Z" fill="#F0F0F0" stroke="black" stroke-width="0.437349"/>
<path d="M47.748 60.8281H49.2495V101.911H47.748V60.8281Z" fill="#F0F0F0" stroke="black" stroke-width="0.437349"/>
<path d="M52.1016 60.8281H54.0535V101.911H52.1016V60.8281Z" fill="#F0F0F0" stroke="black" stroke-width="0.437349"/>
<path d="M56.9062 60.8281H58.5579V101.911H56.9062V60.8281Z" fill="#F0F0F0" stroke="black" stroke-width="0.437349"/>
<path d="M61.7109 60.8281H63.2124V101.911H61.7109V60.8281Z" fill="#F0F0F0" stroke="black" stroke-width="0.437349"/>
<path d="M66.0664 60.8281H67.5679V101.911H66.0664V60.8281Z" fill="#F0F0F0" stroke="black" stroke-width="0.437349"/>
<path d="M70.7207 60.8281H72.3724V101.911H70.7207V60.8281Z" fill="#F0F0F0" stroke="black" stroke-width="0.437349"/>
<path d="M75.2246 60.8281H77.1766V101.911H75.2246V60.8281Z" fill="#F0F0F0" stroke="black" stroke-width="0.437349"/>
<path d="M80.0293 60.8281H81.5308V101.911H80.0293V60.8281Z" fill="#F0F0F0" stroke="black" stroke-width="0.437349"/>
<path d="M84.6855 60.8281H86.3372V101.911H84.6855V60.8281Z" fill="#F0F0F0" stroke="black" stroke-width="0.437349"/>
<path d="M89.1895 60.8281H90.691V101.911H89.1895V60.8281Z" fill="#F0F0F0" stroke="black" stroke-width="0.437349"/>
<path d="M93.8438 60.8281H95.4954V101.911H93.8438V60.8281Z" fill="#F0F0F0" stroke="black" stroke-width="0.437349"/>
<path d="M98.3477 60.8281H100.3V101.911H98.3477V60.8281Z" fill="#F0F0F0" stroke="black" stroke-width="0.437349"/>
<path d="M103.152 60.8281H104.654V101.911H103.152V60.8281Z" fill="#F0F0F0" stroke="black" stroke-width="0.437349"/>
<path d="M107.809 60.8281H109.46V101.911H107.809V60.8281Z" fill="#F0F0F0" stroke="black" stroke-width="0.437349"/>
<path d="M15.4648 147.456V112.742L18.0174 106.055V95.2266" stroke="black" stroke-width="0.437349"/>
<path d="M20.1211 147.456V112.742L22.3733 106.055V95.2266" stroke="black" stroke-width="0.437349"/>
<path d="M24.625 147.456V112.742L27.1776 106.055V95.2266" stroke="black" stroke-width="0.437349"/>
<path d="M29.2793 147.456V112.742L31.8318 106.055V95.2266" stroke="black" stroke-width="0.437349"/>
<path d="M34.084 147.456V112.742L36.3362 106.055V95.2266" stroke="black" stroke-width="0.437349"/>
<path d="M38.5879 147.456V112.742L41.1404 106.055V95.2266" stroke="black" stroke-width="0.437349"/>
<path d="M43.2441 147.456V112.742L45.7967 106.055V95.2266" stroke="black" stroke-width="0.437349"/>
<path d="M48.0488 147.456V112.742L50.6014 106.055V95.2266" stroke="black" stroke-width="0.437349"/>
<path d="M52.4023 147.456V112.742L54.9549 106.055V95.2266" stroke="black" stroke-width="0.437349"/>
<path d="M57.207 147.456V112.742L59.7596 106.055V95.2266" stroke="black" stroke-width="0.437349"/>
<path d="M62.0117 147.456V112.742L64.4141 106.055V95.2266" stroke="black" stroke-width="0.437349"/>
<path d="M66.3672 147.456V112.742L68.9197 106.055V95.2266" stroke="black" stroke-width="0.437349"/>
<path d="M71.1719 147.456V112.742L73.7244 106.055V95.2266" stroke="black" stroke-width="0.437349"/>
<path d="M75.8262 147.456V112.742L78.3787 106.055V95.2266" stroke="black" stroke-width="0.437349"/>
<path d="M80.6309 147.456V112.742L83.1834 106.055V95.2266" stroke="black" stroke-width="0.437349"/>
<path d="M84.9844 147.456V112.742L87.5369 106.055V95.2266" stroke="black" stroke-width="0.437349"/>
<path d="M89.7891 147.456V112.742L92.3416 106.055V95.2266" stroke="black" stroke-width="0.437349"/>
<path d="M94.5938 147.456V112.742L96.9962 106.055V95.2266" stroke="black" stroke-width="0.437349"/>
<path d="M98.9492 147.456V112.742L101.502 106.055V95.2266" stroke="black" stroke-width="0.437349"/>
<path d="M103.754 147.456V112.742L106.306 106.055V95.2266" stroke="black" stroke-width="0.437349"/>
<path d="M6.30664 144.266H130.03V147.45H6.30664V144.266Z" fill="#7F7F7F" stroke="black" stroke-width="0.437349"/>
</g>
<defs>
<clipPath id="clip0_2122_166539">
<rect width="150" height="150" fill="white"/>
</clipPath>
</defs>
</svg>
