<svg width="150" height="150" viewBox="0 0 150 150" fill="none" xmlns="http://www.w3.org/2000/svg">
<g clip-path="url(#clip0_2122_163899)">
<path d="M74.9249 150.003L60.3604 149.812L46.2462 148.857L33.3333 147.328L21.7718 145.417L12.4625 142.933L5.55556 140.258L1.35135 137.201L0 134.143V22.7422H150V134.143L148.649 137.201L144.294 140.258L137.387 142.933L128.078 145.417L116.667 147.328L103.604 148.857L89.6396 149.621L74.9249 150.003Z" fill="#596D8C"/>
<path d="M74.9255 150.003L10.5111 141.787L5.25586 139.112L5.40601 22.7422H144.745V139.112L139.49 141.787L74.9255 150.003Z" fill="#617594"/>
<path d="M74.9242 150.003L21.3206 144.844L10.5098 141.787L10.6599 22.7422H139.339V141.787L128.678 144.844L74.9242 150.003Z" fill="#697D9C"/>
<path d="M74.9248 150.003L25.6755 145.226L15.7656 143.315L15.9158 22.7422H134.084V143.315L124.324 145.226L74.9248 150.003Z" fill="#7084A3"/>
<path d="M74.9256 150.003L30.1809 146.182L21.1719 145.035V22.7422H128.83V145.035L119.821 146.182L74.9256 150.003Z" fill="#788CAB"/>
<path d="M74.9243 150.003L34.5339 146.755L26.4258 145.608V22.7422H123.573V145.608L115.465 146.755L74.9243 150.003Z" fill="#7F93B2"/>
<path d="M74.9249 150.003L38.8888 147.137L31.6816 146.564L31.8318 22.7422H118.168V146.564L110.961 147.137L74.9249 150.003Z" fill="#879BBA"/>
<path d="M74.9255 150.003L53.9045 149.239L36.9375 147.71L37.0877 22.7422H112.913V147.71L96.2468 149.239L74.9255 150.003Z" fill="#91A5C4"/>
<path d="M74.9244 150.003L56.7562 149.239L42.3418 148.284V22.7422H107.657V148.284L93.2427 149.239L74.9244 150.003Z" fill="#99ADCC"/>
<path d="M74.925 150.003L59.7598 149.43L47.5977 148.666V22.7422H102.402V148.666L90.2403 149.43L74.925 150.003Z" fill="#A1B5D4"/>
<path d="M74.9256 150.003L62.7634 149.621L52.8535 148.857V22.7422H97.1478V148.857L87.3881 149.621L74.9256 150.003Z" fill="#A8BCDB"/>
<path d="M74.9242 150.003L58.1074 149.43V22.7422H91.8912V149.43L74.9242 150.003Z" fill="#B0C4E3"/>
<path d="M74.9248 150.003L63.3633 149.621V22.7422H86.4864V149.621L74.9248 150.003Z" fill="#B8CCEB"/>
<path d="M74.9254 150.003L68.6191 149.43V22.7422H81.2318V149.43L74.9254 150.003Z" fill="#BFD3F2"/>
<path d="M74.9249 150.003L60.3604 149.812L46.2462 148.856L33.3333 147.328L21.7718 145.417L12.4625 142.933L5.55556 140.257L1.35135 137.2L0 134.143V22.3594H150V134.143L148.649 137.2L144.294 140.257L137.387 142.933L128.078 145.417L116.667 147.328L103.604 148.856L89.6396 149.621L74.9249 150.003Z" stroke="black" stroke-width="0.338769"/>
<path d="M74.9249 38.6026C116.305 38.6026 149.85 31.5019 149.85 22.7427C149.85 13.9835 116.305 6.88281 74.9249 6.88281C33.545 6.88281 0 13.9835 0 22.7427C0 31.5019 33.545 38.6026 74.9249 38.6026Z" fill="#8CA0BF" stroke="black" stroke-width="0.338769"/>
<path d="M113.363 34.7746L101.351 35.9211L88.438 36.8765L74.9245 37.0676L61.5612 36.8765L48.4981 35.9211L36.6362 34.7746L26.1257 32.8638L17.417 30.7619L11.1107 28.2778L7.20682 25.6027L5.85547 22.7364L7.05667 19.8702L11.1107 17.195L17.417 14.7109L113.363 34.7746Z" fill="#405473" stroke="black" stroke-width="0.338769"/>
<path d="M142.792 25.6037L48.498 9.55275L61.411 8.59733L74.9245 8.40625L88.2878 8.59733L101.351 9.55275L113.213 10.8903L123.723 12.6101L132.432 14.712L138.738 17.1961L142.642 19.8712L143.994 22.7375L142.792 25.6037Z" fill="#405473" stroke="black" stroke-width="0.338769"/>
<path d="M113.364 34.7746L101.352 35.9211L91.5921 36.6855L17.418 19.8702V14.7109L113.364 34.7746Z" fill="#596D8C" stroke="black" stroke-width="0.338769"/>
<path d="M42.9434 1.91083V0L138.289 14.7134V16.8153L42.9434 1.91083Z" fill="#CCB24C"/>
<path d="M42.9434 6.87535V4.77344L138.289 19.6779V21.7798L42.9434 6.87535Z" fill="#CCB24C"/>
<path d="M18.6191 10.8881V8.78618L42.9435 4.77344V6.87535L18.6191 10.8881Z" fill="#CCB24C"/>
<path d="M18.6191 5.92357V3.82166L42.9435 0V1.91083L18.6191 5.92357Z" fill="#CCB24C"/>
<path d="M138.289 25.6027H136.787V14.7109H138.289V25.6027Z" fill="#CCB24C"/>
<path d="M114.715 21.7801H113.363V11.8438H114.715V21.7801Z" fill="#CCB24C"/>
<path d="M91.2906 17.7722H89.7891V7.83594H91.2906V17.7722Z" fill="#CCB24C"/>
<path d="M67.8687 13.7543H66.3672V4.77344H67.8687V13.7543Z" fill="#CCB24C"/>
<path d="M44.4449 9.74652H42.9434V0.765625H44.4449V9.74652Z" fill="#CCB24C"/>
<path d="M31.8316 11.8481H30.3301V2.86719H31.8316V11.8481Z" fill="#CCB24C"/>
<path d="M113.964 34.5893H112.463V22.7422H113.964V34.5893Z" fill="#E5CB65"/>
<path d="M90.5406 29.6183H89.0391V18.7266H90.5406V29.6183Z" fill="#E5CB65"/>
<path d="M67.1167 24.6495H65.6152V13.7578H67.1167V24.6495Z" fill="#E5CB65"/>
<path d="M20.1206 14.7097H18.6191V4.77344H20.1206V14.7097Z" fill="#E5CB65"/>
<path d="M43.5428 19.6785H42.1914V9.74219H43.5428V19.6785Z" fill="#E5CB65"/>
<path d="M18.6191 5.92222V3.82031L113.964 21.7821V23.6929L18.6191 5.92222Z" fill="#E5CB65"/>
<path d="M18.6191 10.891V8.78906L113.964 26.7508V28.6617L18.6191 10.891Z" fill="#E5CB65"/>
<path d="M128.829 26.7513V150H127.327V27.7068L126.126 25.6048L124.624 25.0316L123.423 25.987V32.6749H121.771V24.6494L124.174 22.9297L126.877 23.5029L128.829 26.7513Z" fill="#E5CB65"/>
<path d="M137.387 24.8409V148.089H135.886V26.7517L134.835 24.8409L133.183 22.739L131.982 24.8409V30.7644H130.48V22.739L132.883 20.8281H135.435L137.387 24.8409Z" fill="#E5CB65"/>
<path d="M136.636 139.11L128.828 141.021V139.11L136.636 137.008V139.11Z" fill="#CCB24C"/>
<path d="M136.636 131.083L128.828 132.994V131.083L136.636 129.172V131.083Z" fill="#CCB24C"/>
<path d="M136.636 123.25L128.828 125.161V123.25L136.636 121.148V123.25Z" fill="#CCB24C"/>
<path d="M136.636 115.223L128.828 117.134V115.223L136.636 113.312V115.223Z" fill="#CCB24C"/>
<path d="M136.636 107.2L128.828 109.302V107.2L136.636 105.289V107.2Z" fill="#CCB24C"/>
<path d="M136.636 99.3597L128.828 101.271V99.3597L136.636 97.2578V99.3597Z" fill="#CCB24C"/>
<path d="M136.636 91.3405L128.828 93.2513V91.3405L136.636 89.4297V91.3405Z" fill="#CCB24C"/>
<path d="M136.636 83.3093L128.828 85.4112V83.3093L136.636 81.3984V83.3093Z" fill="#CCB24C"/>
<path d="M136.636 75.4769L128.828 77.3877V75.4769L136.636 73.375V75.4769Z" fill="#CCB24C"/>
<path d="M136.636 67.4499L128.828 69.3607V67.4499L136.636 65.5391V67.4499Z" fill="#CCB24C"/>
<path d="M136.636 59.6175L128.828 61.5284V59.6175L136.636 57.5156V59.6175Z" fill="#CCB24C"/>
<path d="M136.636 51.5905L128.828 53.5013V51.5905L136.636 49.6797V51.5905Z" fill="#CCB24C"/>
<path d="M136.636 43.5671L128.828 45.669V43.5671L136.636 41.6562V43.5671Z" fill="#CCB24C"/>
<path d="M136.636 35.7347L128.828 37.6456V35.7347L136.636 33.6328V35.7347Z" fill="#CCB24C"/>
</g>
<defs>
<clipPath id="clip0_2122_163899">
<rect width="150" height="150" fill="white"/>
</clipPath>
</defs>
</svg>
