<svg width="150" height="150" viewBox="0 0 150 150" fill="none" xmlns="http://www.w3.org/2000/svg">
<g clip-path="url(#clip0_2122_164736)">
<path d="M111.655 55.1067V138.14L6.76758 145.347H38.3465L126.316 138.74V54.6562L111.655 55.1067Z" fill="#BFBFBF" stroke="black" stroke-width="0.823024"/>
<path d="M19.1738 56.1529V149.997L126.317 141.739V138.736L38.3468 145.342V58.7055L126.317 54.6514V141.739L142.106 140.237V51.6484L19.1738 56.1529Z" fill="#E5E5E5"/>
<path d="M19.1738 149.997V56.1529L142.106 51.6484V140.237L19.1738 149.997Z" stroke="black" stroke-width="0.823024"/>
<path d="M38.3457 145.347V58.7103L126.316 54.6562V138.74L38.3457 145.347Z" stroke="black" stroke-width="0.823024"/>
<path d="M19.1729 149.997V56.1529L142.105 51.6484H111.654L0 55.1019V149.997H19.1729Z" fill="#BFBFBF" stroke="black" stroke-width="0.823024"/>
<path d="M111.654 138.141L126.316 138.741" stroke="black" stroke-width="0.823024"/>
<path d="M38.3457 58.7103L126.316 54.6562V97.7493L38.3457 102.854V58.7103Z" fill="#D9D9D9" stroke="black" stroke-width="0.823024"/>
<path d="M49.625 66.5156V76.1252L115.039 72.5216L126.317 68.0171L60.9032 71.6207L49.625 66.5156Z" fill="#B2B2B2"/>
<path d="M49.625 83.4844V93.094L115.039 89.4904L126.317 84.8357L60.9032 88.4393L49.625 83.4844Z" fill="#B2B2B2"/>
<path d="M60.9023 0H76.6918V38.2883H60.9023V0Z" fill="#666666" stroke="black" stroke-width="0.823024"/>
<path d="M66.541 0H71.0523V38.2883H66.541V0Z" fill="#CCCCCC"/>
<path d="M0 55.1016L19.1729 56.1526" stroke="black" stroke-width="0.823024"/>
<path d="M0 55.1016L19.1729 56.1526" stroke="black" stroke-width="0.823024"/>
<path d="M71.0526 43.3966C110.294 43.3966 142.105 42.0521 142.105 40.3936C142.105 38.7351 110.294 37.3906 71.0526 37.3906C31.8114 37.3906 0 38.7351 0 40.3936C0 42.0521 31.8114 43.3966 71.0526 43.3966Z" fill="#666666" stroke="black" stroke-width="0.823024"/>
<path d="M134.211 40.0901L87.9707 43.0931L115.038 39.0391L134.211 40.0901Z" fill="#333333" stroke="black" stroke-width="0.823024"/>
<path d="M103.759 38.4375L76.6914 43.0922L80.0749 38.4375H103.759Z" fill="#333333" stroke="black" stroke-width="0.823024"/>
<path d="M41.7285 38.4375L68.7962 43.0922L65.4127 38.4375H41.7285Z" fill="#333333" stroke="black" stroke-width="0.823024"/>
<path d="M6.76758 40.0901L53.0082 43.0931L25.9405 39.0391L6.76758 40.0901Z" fill="#333333" stroke="black" stroke-width="0.823024"/>
<path d="M60.9023 42.9453H76.6918V53.9063H60.9023V42.9453Z" fill="#666666" stroke="black" stroke-width="0.823024"/>
<path d="M66.541 42.9453H71.0523V53.9063H66.541V42.9453Z" fill="#CCCCCC"/>
<path d="M58.6462 56.157L57.5184 44.4453L5.63867 46.097V53.0039L58.6462 56.157Z" fill="#B2B2B2" stroke="black" stroke-width="0.823024"/>
<path d="M57.5195 44.4453H122.933V53.7546L58.6474 56.157L57.5195 44.4453Z" fill="#8C8C8C" stroke="black" stroke-width="0.823024"/>
<path d="M69.9258 54.6523V46.0938H117.294" stroke="black" stroke-width="0.823024"/>
<path d="M11.2773 46.8445L51.8788 46.0938" stroke="white" stroke-width="0.823024"/>
<path d="M51.8789 53.7514V46.0938" stroke="black" stroke-width="0.823024"/>
<path d="M94.737 53.7507C102.211 53.7507 108.271 52.2045 108.271 50.2972C108.271 48.3899 102.211 46.8438 94.737 46.8438C87.2624 46.8438 81.2031 48.3899 81.2031 50.2972C81.2031 52.2045 87.2624 53.7507 94.737 53.7507Z" fill="#666666" stroke="black" stroke-width="0.823024"/>
<path d="M118.421 52.3995C135.861 52.3995 150 51.4584 150 50.2974C150 49.1365 135.861 48.1953 118.421 48.1953C100.98 48.1953 86.8418 49.1365 86.8418 50.2974C86.8418 51.4584 100.98 52.3995 118.421 52.3995Z" fill="#999999"/>
<path d="M118.421 50.9043C135.861 50.9043 150 50.6354 150 50.3037C150 49.972 135.861 49.7031 118.421 49.7031C100.98 49.7031 86.8418 49.972 86.8418 50.3037C86.8418 50.6354 100.98 50.9043 118.421 50.9043Z" fill="#E5E5E5"/>
<path d="M118.421 52.3995C135.861 52.3995 150 51.4584 150 50.2974C150 49.1365 135.861 48.1953 118.421 48.1953C100.98 48.1953 86.8418 49.1365 86.8418 50.2974C86.8418 51.4584 100.98 52.3995 118.421 52.3995Z" stroke="black" stroke-width="0.823024"/>
<path d="M138.723 52.3995C144.329 52.3995 148.873 51.4584 148.873 50.2974C148.873 49.1365 144.329 48.1953 138.723 48.1953C133.117 48.1953 128.572 49.1365 128.572 50.2974C128.572 51.4584 133.117 52.3995 138.723 52.3995Z" fill="#666666" stroke="black" stroke-width="0.823024"/>
</g>
<defs>
<clipPath id="clip0_2122_164736">
<rect width="150" height="150" fill="white"/>
</clipPath>
</defs>
</svg>
