<svg width="150" height="150" viewBox="0 0 150 150" fill="none" xmlns="http://www.w3.org/2000/svg">
<g clip-path="url(#clip0_2122_162528)">
<path d="M138.207 25.9737V149.998H132.414V25.9737V25.5232L132.621 25.0728L133.035 24.7725L133.449 24.6223L133.862 24.322L134.483 24.1719H135.104H135.724H136.138H136.552L136.966 24.322L137.38 24.6223L137.586 24.7725L138 25.0728L138.207 25.5232V25.9737Z" fill="#99CCCC" stroke="black" stroke-width="0.352508"/>
<path d="M17.379 25.9737V149.998H11.5859V25.9737V25.5232L11.7928 25.0728L12.2066 24.7725L12.6204 24.6223L13.0342 24.322L13.6549 24.1719H14.2756H14.8963H15.517H15.9308L16.3446 24.322L16.7584 24.6223L16.9652 24.7725L17.1721 25.0728L17.379 25.5232V25.9737Z" fill="#99CCCC" stroke="black" stroke-width="0.352508"/>
<path d="M57.5176 25.9737V149.998H51.5176V25.9737V25.5232L51.7245 25.0728L51.9314 24.7725L52.1383 24.6223L52.5521 24.322L52.9659 24.1719H53.5865H54.0003H54.621H55.2417L55.8624 24.322L56.2762 24.6223L56.8969 24.7725L57.1038 25.0728L57.3107 25.5232L57.5176 25.9737Z" fill="#99CCCC" stroke="black" stroke-width="0.352508"/>
<path d="M98.2755 25.9737V149.998H92.4824V25.9737V25.5232L92.6893 25.0728L93.1031 24.7725L93.5169 24.6223L93.9307 24.322L94.5514 24.1719H95.1721H95.7928H96.4135H96.8272L97.241 24.322L97.6548 24.6223L97.8617 24.7725L98.0686 25.0728L98.2755 25.5232V25.9737Z" fill="#99CCCC" stroke="black" stroke-width="0.352508"/>
<path d="M94.1379 47.1471H93.5172H93.1035H92.4828H92.069H91.4483L90.8276 47.2973H90.4138L89.7931 47.4474H88.9655L88.3448 47.7477L87.7241 47.8979L87.1035 48.048L86.2759 48.3483L85.6552 48.6486L84.8276 49.0991L84 49.5495V150H65.7931V149.399V148.498V146.997V145.045V142.643V139.94V136.937V133.634V129.88V126.126V121.922V117.718V113.363V108.859V104.354V99.6997V95.1952V90.5405V86.036V81.6817V77.4775V73.4234V69.5195V65.9159V62.4625V59.4595V56.7568V54.5045V52.5526V51.0511V50V49.5495L65.1724 49.0991L64.5517 48.6486L63.7241 48.3483L63.1035 48.048L62.4828 47.8979L61.8621 47.7477L61.0345 47.4474H60.4138L59.7931 47.2973H59.1724L58.5517 47.1471H57.931H57.3103H56.6897H56.2759H55.6552L52.7586 46.8468L49.8621 46.3964L46.7586 46.0961L44.069 45.6456L41.1724 45.1952L38.4828 44.7447L35.7931 44.2943L33.3103 43.6937L30.8276 43.0931L28.3448 42.4925L26.069 41.8919L23.7931 41.1411L21.5172 40.5405L19.4483 39.7898L17.5862 39.039L15.7241 38.2883L13.8621 37.5375L12.2069 36.7868L10.5517 35.8859L8.89655 35.1351L7.65517 34.2342L6.2069 33.3333L5.17241 32.5826L4.13793 31.6817L3.10345 30.7808L2.27586 29.7297L1.44828 28.8288L1.03448 27.9279L0.413793 27.027L0.206897 25.976L0 25.0751V24.1742V22.8228L0.206897 21.6216L0.827586 20.4204L1.44828 19.2192L2.27586 18.018L3.31034 16.967L4.34483 15.7658L5.7931 14.7147L7.24138 13.6637L8.89655 12.6126L10.7586 11.5616L12.6207 10.6607L14.6897 9.60961L16.9655 8.70871L19.2414 7.80781L21.7241 7.05706L24.4138 6.30631L27.1034 5.40541L30 4.8048L32.8966 4.05405L35.7931 3.45345L39.1034 2.85285L42.2069 2.25225L45.5172 1.8018L49.0345 1.35135L52.5517 1.05105L56.069 0.750751L59.7931 0.45045L63.5172 0.15015L67.2414 0H70.9655H74.8966H78.8276H82.5517L86.4828 0.15015L90 0.45045L93.7241 0.750751L97.2414 1.05105L100.759 1.35135L104.276 1.8018L107.586 2.25225L110.69 2.85285L114 3.45345L116.897 4.05405L120 4.8048L122.69 5.40541L125.379 6.30631L128.069 7.05706L130.552 7.80781L132.828 8.70871L135.103 9.60961L137.172 10.6607L139.034 11.5616L140.897 12.6126L142.552 13.6637L144 14.7147L145.448 15.7658L146.483 16.967L147.517 18.018L148.345 19.2192L148.966 20.4204L149.586 21.6216L149.793 22.8228L150 24.1742L149.793 25.0751L149.586 25.976L149.379 27.027L148.759 27.9279L148.345 28.8288L147.517 29.7297L146.69 30.7808L145.655 31.6817L144.621 32.5826L143.586 33.3333L142.138 34.2342L140.897 35.1351L139.241 35.8859L137.793 36.7868L135.931 37.5375L134.276 38.2883L132.207 39.039L130.345 39.7898L128.276 40.5405L126 41.1411L123.724 41.8919L121.448 42.4925L118.966 43.0931L116.483 43.6937L114 44.2943L111.31 44.7447L108.621 45.1952L105.724 45.6456L103.034 46.0961L100.138 46.3964L97.0345 46.8468L94.1379 47.1471Z" stroke="black" stroke-width="0.352508"/>
<path d="M146.483 150.002L134.896 119.071L146.483 88.8906" stroke="#7F7F7F" stroke-width="0.352508"/>
<path d="M134.896 150.002L146.483 119.071L134.896 88.8906" stroke="#7F7F7F" stroke-width="0.352508"/>
<path d="M134.896 150.002L94.9648 119.071L134.896 88.8906" stroke="#7F7F7F" stroke-width="0.352508"/>
<path d="M94.9648 150.002L134.896 119.071L94.9648 88.8906" stroke="#7F7F7F" stroke-width="0.352508"/>
<path d="M94.9661 150.002L54.8281 119.071L94.9661 88.8906" stroke="#7F7F7F" stroke-width="0.352508"/>
<path d="M54.8281 150.002L94.9661 119.071L54.8281 88.8906" stroke="#7F7F7F" stroke-width="0.352508"/>
<path d="M54.8275 150.002L14.8965 119.071L54.8275 88.8906" stroke="#7F7F7F" stroke-width="0.352508"/>
<path d="M14.8965 150.002L54.8275 119.071L14.8965 88.8906" stroke="#7F7F7F" stroke-width="0.352508"/>
<path d="M14.8968 150.002L3.31055 119.071L14.8968 88.8906" stroke="#7F7F7F" stroke-width="0.352508"/>
<path d="M3.31055 150.002L14.8968 119.071L3.31055 88.8906" stroke="#7F7F7F" stroke-width="0.352508"/>
<path d="M146.483 90.0877L134.896 59.7573L146.483 28.9766" stroke="#7F7F7F" stroke-width="0.352508"/>
<path d="M134.896 90.0877L146.483 59.7573L134.896 28.9766" stroke="#7F7F7F" stroke-width="0.352508"/>
<path d="M134.896 90.0877L94.9648 59.7573L134.896 28.9766" stroke="#7F7F7F" stroke-width="0.352508"/>
<path d="M94.9648 90.0877L134.896 59.7573L94.9648 28.9766" stroke="#7F7F7F" stroke-width="0.352508"/>
<path d="M94.9661 90.0877L54.8281 59.7573L94.9661 28.9766" stroke="#7F7F7F" stroke-width="0.352508"/>
<path d="M54.8281 90.0877L94.9661 59.7573L54.8281 28.9766" stroke="#7F7F7F" stroke-width="0.352508"/>
<path d="M54.8275 90.0877L14.8965 59.7573L54.8275 28.9766" stroke="#7F7F7F" stroke-width="0.352508"/>
<path d="M14.8965 90.0877L54.8275 59.7573L14.8965 28.9766" stroke="#7F7F7F" stroke-width="0.352508"/>
<path d="M14.8968 90.0877L3.31055 59.7573L14.8968 28.9766" stroke="#7F7F7F" stroke-width="0.352508"/>
<path d="M3.31055 90.0877L14.8968 59.7573L3.31055 28.9766" stroke="#7F7F7F" stroke-width="0.352508"/>
<path d="M94.1379 47.1471H93.5172H93.1035H92.4828H92.069H91.4483L90.8276 47.2973H90.4138L89.7931 47.4474H88.9655L88.3448 47.7477L87.7241 47.8979L87.1035 48.048L86.2759 48.3483L85.6552 48.6486L84.8276 49.0991L84 49.5495V150H65.7931V149.399V148.499V146.997V145.045V142.643V139.94V136.937V133.634V129.88V126.126V121.922V117.718V113.363V108.859V104.354V99.6997V95.1952V90.5405V86.036V81.6817V77.4775V73.4234V69.5195V65.9159V62.4625V59.4595V56.7568V54.5045V52.5526V51.0511V50V49.5495L65.1724 49.0991L64.5517 48.6486L63.7241 48.3483L63.1035 48.048L62.4828 47.8979L61.8621 47.7477L61.0345 47.4474H60.4138L59.7931 47.2973H59.1724L58.5517 47.1471H57.931H57.3103H56.6897H56.2759H55.6552L52.7586 46.8468L49.8621 46.3964L46.7586 46.0961L44.069 45.6456L41.1724 45.1952L38.4828 44.7447L35.7931 44.2943L33.3103 43.6937L30.8276 43.0931L28.3448 42.4925L26.069 41.8919L23.7931 41.1411L21.5172 40.5405L19.4483 39.7898L17.5862 39.039L15.7241 38.2883L13.8621 37.5375L12.2069 36.7868L10.5517 35.8859L8.89655 35.1351L7.65517 34.2342L6.2069 33.3333L5.17241 32.5826L4.13793 31.6817L3.10345 30.7808L2.27586 29.7297L1.44828 28.8288L1.03448 27.9279L0.413793 27.027L0.206897 25.976L0 25.0751V24.1742V22.8228L0.206897 21.6216L0.827586 20.4204L1.44828 19.2192L2.27586 18.018L3.31034 16.967L4.34483 15.7658L5.7931 14.7147L7.24138 13.6637L8.89655 12.6126L10.7586 11.5616L12.6207 10.6607L14.6897 9.60961L16.9655 8.70871L19.2414 7.80781L21.7241 7.05706L24.4138 6.30631L27.1034 5.40541L30 4.8048L32.8966 4.05405L35.7931 3.45345L39.1035 2.85285L42.2069 2.25225L45.5172 1.8018L49.0345 1.35135L52.5517 1.05105L56.069 0.750751L59.7931 0.45045L63.5172 0.15015L67.2414 0H70.9655H74.8966H78.8276H82.5517L86.4828 0.15015L90 0.45045L93.7241 0.750751L97.2414 1.05105L100.759 1.35135L104.276 1.8018L107.586 2.25225L110.69 2.85285L114 3.45345L116.897 4.05405L120 4.8048L122.69 5.40541L125.379 6.30631L128.069 7.05706L130.552 7.80781L132.828 8.70871L135.103 9.60961L137.172 10.6607L139.034 11.5616L140.897 12.6126L142.552 13.6637L144 14.7147L145.448 15.7658L146.483 16.967L147.517 18.018L148.345 19.2192L148.966 20.4204L149.586 21.6216L149.793 22.8228L150 24.1742L149.793 25.0751L149.586 25.976L149.379 27.027L148.759 27.9279L148.345 28.8288L147.517 29.7297L146.69 30.7808L145.655 31.6817L144.621 32.5826L143.586 33.3333L142.138 34.2342L140.897 35.1351L139.241 35.8859L137.793 36.7868L135.931 37.5375L134.276 38.2883L132.207 39.039L130.345 39.7898L128.276 40.5405L126 41.1411L123.724 41.8919L121.448 42.4925L118.966 43.0931L116.483 43.6937L114 44.2943L111.31 44.7447L108.621 45.1952L105.724 45.6456L103.034 46.0961L100.138 46.3964L97.0345 46.8468L94.1379 47.1471Z" fill="#00FFFF" stroke="black" stroke-width="0.352508"/>
<path d="M63.3105 54.3516H86.483V57.9552H63.3105V54.3516Z" fill="#99CCCC" stroke="black" stroke-width="0.352508"/>
<path d="M69.9314 41.5952C104.897 41.5952 133.242 32.5199 133.242 21.325C133.242 10.13 104.897 1.05469 69.9314 1.05469C34.9661 1.05469 6.62109 10.13 6.62109 21.325C6.62109 32.5199 34.9661 41.5952 69.9314 41.5952Z" fill="#99FFFF"/>
<path d="M144.001 150.002L103.242 119.071L144.001 88.8906" stroke="black" stroke-width="0.352508"/>
<path d="M103.242 150.002L144.001 119.071L103.242 88.8906" stroke="black" stroke-width="0.352508"/>
<path d="M97.4491 150.002L52.3457 119.071L97.4491 88.8906" stroke="black" stroke-width="0.352508"/>
<path d="M52.3457 150.002L97.4491 119.071L52.3457 88.8906" stroke="black" stroke-width="0.352508"/>
<path d="M46.5516 150.002L5.79297 119.071L46.5516 88.8906" stroke="black" stroke-width="0.352508"/>
<path d="M5.79297 150.002L46.5516 119.071L5.79297 88.8906" stroke="black" stroke-width="0.352508"/>
<path d="M144.001 90.0877L103.242 59.7573L144.001 28.9766" stroke="black" stroke-width="0.352508"/>
<path d="M103.242 90.0877L144.001 59.7573L103.242 28.9766" stroke="black" stroke-width="0.352508"/>
<path d="M97.4491 90.0877L52.3457 59.7573L97.4491 28.9766" stroke="black" stroke-width="0.352508"/>
<path d="M52.3457 90.0877L97.4491 59.7573L52.3457 28.9766" stroke="black" stroke-width="0.352508"/>
<path d="M46.5516 90.0877L5.79297 59.7573L46.5516 28.9766" stroke="black" stroke-width="0.352508"/>
<path d="M5.79297 90.0877L46.5516 59.7573L5.79297 28.9766" stroke="black" stroke-width="0.352508"/>
<path d="M0 88.8906H150V90.0918H0V88.8906Z" fill="#669999" stroke="black" stroke-width="0.352508"/>
<path d="M5.7931 25.9737V149.998H0V25.9737V25.5232L0.206897 25.0728L0.413793 24.7725L1.03448 24.6223L1.44828 24.322L2.06897 24.1719H2.68966H3.31034H3.51724H3.93103L4.34483 24.322L4.75862 24.6223L5.17241 24.7725L5.37931 25.0728L5.58621 25.5232L5.7931 25.9737Z" fill="#99FFFF" stroke="black" stroke-width="0.352508"/>
<path d="M52.3439 25.9737V149.998H46.5508V25.9737V25.5232L46.7577 25.0728L47.1715 24.7725L47.5853 24.6223L48.206 24.322L48.6197 24.1719H49.2404H49.8611H50.4818H50.8956L51.5163 24.322L51.7232 24.6223L52.137 24.7725L52.3439 25.0728V25.5232V25.9737Z" fill="#99FFFF" stroke="black" stroke-width="0.352508"/>
<path d="M103.242 25.9737V149.998H97.4492V25.9737V25.5232L97.6561 25.0728L97.863 24.7725L98.0699 24.6223L98.4837 24.322L98.8975 24.1719H99.3113H99.932H100.553H101.173L101.794 24.322L102.208 24.6223L102.622 24.7725L103.035 25.0728L103.242 25.5232V25.9737Z" fill="#99FFFF" stroke="black" stroke-width="0.352508"/>
<path d="M150 25.9737V149.998H144V25.9737L144.207 25.5232L144.414 25.0728L144.621 24.7725L145.241 24.6223L145.655 24.322L146.276 24.1719H146.897H147.31H147.931H148.552L148.966 24.322L149.379 24.6223L149.586 24.7725L149.793 25.0728V25.5232L150 25.9737Z" fill="#99FFFF" stroke="black" stroke-width="0.352508"/>
</g>
<defs>
<clipPath id="clip0_2122_162528">
<rect width="150" height="150" fill="white"/>
</clipPath>
</defs>
</svg>
