<svg width="150" height="150" viewBox="0 0 150 150" fill="none" xmlns="http://www.w3.org/2000/svg">
<path d="M128.679 148.6L130.781 146.737L132.883 144.64L134.985 142.311L136.937 139.749L138.739 136.954L140.391 133.693L141.892 130.432L143.394 126.938L144.595 123.212L145.646 119.485L146.697 115.525L147.448 111.333L148.048 107.14L148.499 102.948L148.799 98.5223L148.949 94.0969L148.799 89.6714L148.499 85.4788L148.199 81.2863L147.448 77.0938L146.697 73.1341L145.796 69.1745L144.595 65.2149L143.544 61.7211L142.042 58.2273L140.541 54.9664L138.889 51.9385L137.087 48.9105L135.286 46.1155L133.334 43.7863L131.232 41.69L128.979 39.8267L103.154 39.5938L101.051 41.4571L98.9494 43.5534L96.8473 46.1155L95.0455 48.6776L93.2437 51.4726L91.592 54.5006L90.0905 57.7615L88.7391 61.2552L87.3878 64.9819L86.3367 68.7087L85.4358 72.6683L84.5349 76.8608L83.9343 81.0534L83.4839 85.2459L83.1836 89.6714V94.0969V98.5223L83.4839 102.948L83.9343 107.14L84.5349 111.333L85.4358 115.293L86.3367 119.485L87.3878 123.212L88.7391 126.938L90.0905 130.199L91.592 133.46L93.2437 136.721L95.0455 139.516L96.9974 142.078L98.9494 144.407L101.051 146.737L103.304 148.367L128.679 148.6Z" fill="#994C19"/>
<path d="M46.3959 148.6L48.6481 146.737L50.7502 144.64L52.7022 142.311L54.6541 139.749L56.4559 136.954L58.1076 133.693L59.6091 130.432L61.1106 126.938L62.3118 123.212L63.513 119.485L64.4139 115.525L65.3148 111.333L65.9154 107.14L66.3659 102.948L66.6662 98.5223V94.0969V89.6714L66.3659 85.4788L65.9154 81.2863L65.3148 77.0938L64.4139 73.1341L63.513 69.1745L62.4619 65.2149L61.2607 61.7211L59.9094 58.2273L58.4079 54.9664L56.7562 51.9385L54.9544 48.9105L53.0025 46.1155L51.0505 43.7863L48.9484 41.69L46.6962 39.8267L21.0205 39.5938L18.7683 41.4571L16.6662 43.5534L14.7142 46.1155L12.7623 48.6776L11.1106 51.4726L9.45895 54.5006L7.8073 57.7615L6.45595 61.2552L5.25474 64.9819L4.20369 68.7087L3.15264 72.6683L2.40189 76.8608L1.80129 81.0534L1.35084 85.2459L1.05054 89.6714L0.900391 94.0969L1.05054 98.5223L1.35084 102.948L1.80129 107.14L2.40189 111.333L3.15264 115.293L4.20369 119.485L5.25474 123.212L6.45595 126.938L7.95745 130.199L9.45895 133.46L11.1106 136.721L12.7623 139.516L14.7142 142.078L16.8163 144.407L18.9184 146.737L21.1707 148.367L46.3959 148.6Z" fill="#994C19"/>
<path d="M89.1895 93.8639L90.9913 72.2024L96.8471 52.1714L106.006 39.5938H126.126L135.286 52.1714L141.141 72.2024L142.943 93.8639L141.141 115.991L135.286 135.789L126.126 148.367H106.006L96.8471 135.789L90.9913 115.991L89.1895 93.8639Z" fill="#AB5E2B"/>
<path d="M6.90625 93.8639L8.8582 72.2024L14.5639 52.1714L23.7231 39.5938H43.9933L53.1525 52.1714L58.8582 72.2024L60.8102 93.8639L58.8582 115.991L53.1525 135.789L43.9933 148.367H23.7231L14.5639 135.789L8.8582 115.991L6.90625 93.8639Z" fill="#AB5E2B"/>
<path d="M96.5469 94.0969L97.8982 72.2024L102.102 52.1714L108.709 39.5938H123.274L130.03 52.1714L134.235 72.2024L135.586 94.0969L134.235 115.991L130.03 135.789L123.274 148.367H108.709L102.102 135.789L97.8982 115.991L96.5469 94.0969Z" fill="#BF723F"/>
<path d="M14.2637 94.0969L15.7652 72.2024L19.8192 52.1714L26.576 39.5938H41.1405L47.7472 52.1714L51.9514 72.2024L53.3027 94.0969L51.9514 115.991L47.7472 135.789L41.1405 148.367H26.576L19.8192 135.789L15.7652 115.991L14.2637 94.0969Z" fill="#BF723F"/>
<path d="M104.055 94.0969L104.805 72.2024L107.358 52.1714L111.562 39.5938H120.571L124.775 52.1714L127.328 72.2024L128.079 94.0969L127.328 115.991L124.775 135.789L120.571 148.367H111.562L107.358 135.789L104.805 115.991L104.055 94.0969Z" fill="#D18451"/>
<path d="M21.7715 94.0969L22.5222 72.2024L25.2249 52.1714L29.279 39.5938H38.288L42.4922 52.1714L45.0448 72.2024L45.9457 94.0969L45.0448 115.991L42.4922 135.789L38.288 148.367H29.279L25.2249 135.789L22.5222 115.991L21.7715 94.0969Z" fill="#D18451"/>
<path d="M111.562 94.0969L111.863 72.2024L112.764 52.1714L114.415 39.5938H117.719L119.22 52.1714L120.121 72.2024L120.572 94.0969L120.121 115.991L119.22 136.022L117.719 148.367H114.415L112.764 136.022L111.863 115.991L111.562 94.0969Z" fill="#E59865"/>
<path d="M29.2793 94.0969L29.7297 72.2024L30.6306 52.1714L32.1321 39.5938H35.4355L37.0871 52.1714L37.988 72.2024L38.2883 94.0969L37.988 115.991L37.0871 135.789L35.4355 148.367H32.1321L30.6306 135.789L29.7297 115.991L29.2793 94.0969Z" fill="#E59865"/>
<path d="M55.4062 20.4947L55.8567 19.563L56.6075 18.8643L57.3582 18.3984L58.2591 18.8643L59.0099 19.563L59.4603 20.4947H55.4062Z" fill="#7F7F7F" stroke="black" stroke-width="0.374021"/>
<path d="M49.25 20.4947L49.7005 19.563L50.4512 18.8643L51.202 18.3984L52.1029 18.8643L52.8536 19.563L53.3041 20.4947H49.25Z" fill="#7F7F7F" stroke="black" stroke-width="0.374021"/>
<path d="M96.5469 20.4947L96.9973 19.563L97.7481 18.8643L98.649 18.3984L99.3997 18.8643L100.15 19.563L100.601 20.4947H96.5469Z" fill="#7F7F7F" stroke="black" stroke-width="0.374021"/>
<path d="M90.3906 20.4947L90.8411 19.563L91.5918 18.8643L92.4927 18.3984L93.2435 18.8643L93.9942 19.563L94.4447 20.4947H90.3906Z" fill="#7F7F7F" stroke="black" stroke-width="0.374021"/>
<path d="M56.9062 20.4947L57.3567 18.3984L57.9573 20.4947H56.9062Z" fill="white"/>
<path d="M50.6016 20.4947L51.2022 18.3984L51.8028 20.4947H50.6016Z" fill="white"/>
<path d="M98.0488 20.4947L98.6494 18.3984L99.25 20.4947H98.0488Z" fill="white"/>
<path d="M91.8926 20.4947L92.4932 18.3984L92.9436 20.4947H91.8926Z" fill="white"/>
<path d="M128.679 148.6L130.781 146.737L132.883 144.64L134.985 142.311L136.937 139.749L138.739 136.954L140.391 133.693L141.892 130.432L143.394 126.938L144.595 123.212L145.646 119.485L146.697 115.525L147.448 111.333L148.048 107.14L148.499 102.948L148.799 98.5223L148.949 94.0969L148.799 89.6714L148.499 85.4788L148.199 81.2863L147.448 77.0937L146.697 73.1341L145.796 69.1745L144.595 65.2149L143.544 61.7211L142.042 58.2273L140.541 54.9664L138.889 51.9385L137.087 48.9105L135.286 46.1155L133.334 43.7863L131.232 41.69L128.979 39.8267L103.154 39.5938L101.051 41.4571L98.9494 43.5534L96.8473 46.1155L95.0455 48.6776L93.2437 51.4726L91.592 54.5006L90.0905 57.7615L88.7391 61.2552L87.3878 64.9819L86.3367 68.7087L85.4358 72.6683L84.5349 76.8608L83.9343 81.0534L83.4839 85.2459L83.1836 89.6714V94.0969V98.5223L83.4839 102.948L83.9343 107.14L84.5349 111.333L85.4358 115.293L86.3367 119.485L87.3878 123.212L88.7391 126.938L90.0905 130.199L91.592 133.46L93.2437 136.721L95.0455 139.516L96.9974 142.078L98.9494 144.407L101.051 146.737L103.304 148.367L128.679 148.6Z" stroke="black" stroke-width="0.374021"/>
<path d="M46.3959 148.6L48.6481 146.737L50.7502 144.64L52.7022 142.311L54.6541 139.749L56.4559 136.954L58.1076 133.693L59.6091 130.432L61.1106 126.938L62.3118 123.212L63.513 119.485L64.4139 115.525L65.3148 111.333L65.9154 107.14L66.3658 102.948L66.6661 98.5223V94.0969V89.6714L66.3658 85.4788L65.9154 81.2863L65.3148 77.0937L64.4139 73.1341L63.513 69.1745L62.4619 65.2149L61.2607 61.7211L59.9094 58.2273L58.4079 54.9664L56.7562 51.9385L54.9544 48.9105L53.0025 46.1155L51.0505 43.7863L48.9484 41.69L46.6962 39.8267L21.0205 39.5938L18.7683 41.4571L16.6662 43.5534L14.7142 46.1155L12.7623 48.6776L11.1106 51.4726L9.45895 54.5006L7.8073 57.7615L6.45595 61.2552L5.25474 64.9819L4.20369 68.7087L3.15264 72.6683L2.40189 76.8608L1.80129 81.0534L1.35084 85.2459L1.05054 89.6714L0.900391 94.0969L1.05054 98.5223L1.35084 102.948L1.80129 107.14L2.40189 111.333L3.15264 115.293L4.20369 119.485L5.25474 123.212L6.45595 126.938L7.95745 130.199L9.45895 133.46L11.1106 136.721L12.7623 139.516L14.7142 142.078L16.8163 144.407L18.9184 146.737L21.1707 148.367L46.3959 148.6Z" stroke="black" stroke-width="0.374021"/>
<path d="M65.6154 148.138V52.4078H50.3001L42.0418 39.5972H21.4712V27.0196H19.3691V14.209H42.0418V17.4699H46.246V20.4978H62.6124V1.39844H74.9247L80.0298 7.92018H87.237V20.4978H103.754V17.4699H107.808V14.209H130.48V27.0196H128.378V39.5972H107.808L99.5493 52.4078H84.234V148.138H65.6154Z" fill="#661900" stroke="black" stroke-width="0.374021"/>
<path d="M88.2891 22.125H91.4422V34.9356H88.2891V22.125Z" fill="#B2B2B2"/>
<path d="M100.75 22.125H103.753V34.9356H100.75V22.125Z" fill="#B2B2B2"/>
<path d="M120.12 23.7585V18.8672H112.012V23.7585H120.12Z" fill="#B2B2B2"/>
<path d="M54.3535 22.125H57.3565V34.9356H54.3535V22.125Z" fill="#B2B2B2"/>
<path d="M74.9258 38.1953H78.0789V51.0059H74.9258V38.1953Z" fill="#B2B2B2"/>
<path d="M74.9258 54.0391H78.0789V66.8496H74.9258V54.0391Z" fill="#B2B2B2"/>
<path d="M74.9258 101.789H78.0789V114.6H74.9258V101.789Z" fill="#B2B2B2"/>
<path d="M50.3008 22.125H53.3038V34.9356H50.3008V22.125Z" fill="#CCCCCC"/>
<path d="M20.4199 23.7585V18.8672H28.6782V23.7585H20.4199Z" fill="#CCCCCC"/>
<path d="M129.43 23.7585V18.8672H121.172V23.7585H129.43Z" fill="#999999"/>
<path d="M96.6973 22.125H99.7003V34.9356H96.6973V22.125Z" fill="#999999"/>
<path d="M92.4922 22.125H95.4952V34.9356H92.4922V22.125Z" fill="#999999"/>
<path d="M84.2344 22.125H87.2374V34.9356H84.2344V22.125Z" fill="#999999"/>
<path d="M74.9258 117.859H78.0789V130.437H74.9258V117.859Z" fill="#999999"/>
<path d="M74.9258 85.9453H78.0789V98.7559H74.9258V85.9453Z" fill="#999999"/>
<path d="M74.9258 70.1094H78.0789V82.687H74.9258V70.1094Z" fill="#999999"/>
<path d="M74.9258 22.125H78.0789V34.9356H74.9258V22.125Z" fill="#999999"/>
<path d="M62.6133 22.125H65.6163V34.9356H62.6133V22.125Z" fill="#999999"/>
<path d="M58.5586 22.125H61.5616V34.9356H58.5586V22.125Z" fill="#999999"/>
<path d="M46.2461 22.125H49.2491V34.9356H46.2461V22.125Z" fill="#999999"/>
<path d="M29.7305 23.7585V18.8672H37.9887V23.7585H29.7305Z" fill="#999999"/>
<path d="M79.1289 7.92188V148.139" stroke="#999999" stroke-width="0.374021"/>
<path d="M107.957 31.674V27.0156H128.377V31.674H107.957Z" fill="#4C0000"/>
<path d="M21.4707 31.674V27.0156H42.0413V31.674H21.4707Z" fill="#4C0000"/>
<path d="M84.0834 148.136H80.0293V52.4062H84.0834V148.136Z" fill="#4C0000"/>
<path d="M128.379 27.0156H107.809" stroke="black" stroke-width="0.374021"/>
<path d="M126.275 14.2109V27.0215" stroke="black" stroke-width="0.374021"/>
<path d="M122.223 14.2109V27.0215" stroke="black" stroke-width="0.374021"/>
<path d="M118.018 14.2109V27.0215" stroke="black" stroke-width="0.374021"/>
<path d="M113.965 14.2109V27.0215" stroke="black" stroke-width="0.374021"/>
<path d="M35.8867 14.2109V27.0215" stroke="black" stroke-width="0.374021"/>
<path d="M31.832 14.2109V27.0215" stroke="black" stroke-width="0.374021"/>
<path d="M27.627 14.2109V27.0215" stroke="black" stroke-width="0.374021"/>
<path d="M23.5742 14.2109V27.0215" stroke="black" stroke-width="0.374021"/>
<path d="M21.4707 27.0156H42.0413" stroke="black" stroke-width="0.374021"/>
</svg>
