<svg width="150" height="150" viewBox="0 0 150 150" fill="none" xmlns="http://www.w3.org/2000/svg">
<path d="M113.727 146.098H122.181V124.477H113.727V146.098Z" fill="#333333"/>
<path d="M37.9082 146.098H46.3627V124.477H37.9082V146.098Z" fill="#333333"/>
<path d="M18 37.8359H141.818V124.473H18V37.8359Z" fill="#666666"/>
<path d="M27.5449 37.6875H132.545V124.324H27.5449V37.6875Z" fill="#7F7F7F"/>
<path d="M37.0918 37.6875H123.274V124.324H37.0918V37.6875Z" fill="#999999"/>
<path d="M46.3633 37.6875H113.727V124.324H46.3633V37.6875Z" fill="#B2B2B2"/>
<path d="M55.6367 37.6875H104.455V124.324H55.6367V37.6875Z" fill="#CCCCCC"/>
<path d="M65.1816 37.6875H94.9089V124.324H65.1816V37.6875Z" fill="#E5E5E5"/>
<path d="M74.4551 37.8359H85.6369V124.473H74.4551V37.8359Z" fill="white"/>
<path d="M18 37.8359H141.818V124.473H18V37.8359Z" stroke="black" stroke-width="0.404722"/>
<path d="M18 31.6797H141.818V37.8358H18V31.6797Z" fill="#8CA0BF" stroke="black" stroke-width="0.404722"/>
<path d="M40.6367 0.601562V13.064L51.8185 22.3733V31.6826H108V22.3733L119.182 13.064V0.601562H40.6367Z" fill="#405473"/>
<path d="M40.6367 13.0625L51.8185 22.3718H108L119.182 13.0625H40.6367Z" fill="#263A59"/>
<path d="M47.4551 0.601562V13.064L56.7278 22.2232V31.5325H103.364V22.2232L112.637 13.064V0.601562H47.4551Z" fill="#546887"/>
<path d="M54.2734 0.601562V13.064L61.6371 22.2232V31.6826H98.4553V22.2232L105.819 13.064V0.601562H54.2734Z" fill="#697D9C"/>
<path d="M61.0918 0.601562V13.064L66.2736 22.2232V31.6826H93.5463V22.2232L99.0009 13.064V0.601562H61.0918Z" fill="#7D91B0"/>
<path d="M67.6367 0.601562V13.064L71.1822 22.2232V31.6826H88.9094V22.2232L92.4549 13.064V0.601562H67.6367Z" fill="#91A5C4"/>
<path d="M74.4551 0.601562V13.064L76.0914 22.3733V31.6826H84.0005V22.3733L85.6369 13.064V0.601562H74.4551Z" fill="#BFD3F2"/>
<path d="M47.4551 13.0625L56.7278 22.2217H103.364L112.637 13.0625H47.4551Z" fill="#3B4F6E"/>
<path d="M54.2734 13.0625L61.6371 22.2217H98.4553L105.819 13.0625H54.2734Z" fill="#4F6382"/>
<path d="M61.0918 13.0625L66.2736 22.2217H93.5463L99.0009 13.0625H61.0918Z" fill="#637796"/>
<path d="M67.6367 13.0625L71.1822 22.2217H88.9094L92.4549 13.0625H67.6367Z" fill="#788CAB"/>
<path d="M74.4551 13.0625L76.0914 22.3718H84.0005L85.6369 13.0625H74.4551Z" fill="#8CA0BF"/>
<path d="M40.6367 0.601562V13.064L51.8185 22.3733V31.6826H108V22.3733L119.182 13.064V0.601562H40.6367Z" stroke="black" stroke-width="0.404722"/>
<path d="M29.4551 22.375H46.3642V31.6843H29.4551V22.375Z" fill="#405473"/>
<path d="M32.1816 22.375H43.3635V31.6843H32.1816V22.375Z" fill="#7387A6"/>
<path d="M36.5449 22.375H39.2722V31.6843H36.5449V22.375Z" fill="#A6BAD9"/>
<path d="M29.4551 22.375H46.3642V31.6843H29.4551V22.375Z" stroke="black" stroke-width="0.404722"/>
<path d="M126.273 149.246L136.092 148.345V117.414H126.273V149.246Z" fill="#999999" stroke="black" stroke-width="0.404722"/>
<path d="M23.7266 148.345L33.5447 149.246V117.414H23.7266V148.345Z" fill="#999999" stroke="black" stroke-width="0.404722"/>
<path d="M29.4554 27.7812H1.0918V28.532H29.4554V27.7812Z" fill="#596D8C" stroke="black" stroke-width="0.404722"/>
<path d="M6.00089 27.7758H9.27361V20.7188H6.00089L4.90998 20.8689L4.0918 21.0191L3.27362 21.3194L2.45543 21.7698L1.90998 22.3704L1.63725 22.8209L1.36452 23.5716L1.0918 24.3224L1.36452 24.923L1.63725 25.6737L1.90998 26.2743L2.45543 26.7248L3.27362 27.1752L4.0918 27.4755L4.90998 27.6257L6.00089 27.7758Z" fill="#596D8C" stroke="black" stroke-width="0.404722"/>
<path d="M6.00089 26.2789H9.27361V22.375H6.00089H4.90998L4.0918 22.5252L3.27362 22.6753L2.45543 22.8255L1.90998 23.1258L1.63725 23.4261L1.36452 23.8765L1.0918 24.327L1.36452 24.6273L1.63725 25.0777L1.90998 25.378L2.45543 25.6783L3.27362 25.8285L4.0918 26.1288H4.90998L6.00089 26.2789Z" fill="#8CA0BF"/>
<path d="M9.27344 20.7188H24.5462V27.7758H9.27344V20.7188Z" fill="#596D8C"/>
<path d="M24.5449 27.7758L29.454 26.2743V22.3704L24.5449 20.7188V27.7758Z" fill="#596D8C" stroke="black" stroke-width="0.404722"/>
<path d="M24.5449 26.2789L29.454 25.378V23.1258L24.5449 22.375V26.2789Z" fill="#7387A6"/>
<path d="M9.27344 22.375H24.5462V26.2789H9.27344V22.375Z" fill="#7387A6"/>
<path d="M9.27344 20.7188H24.5462V27.7758H9.27344V20.7188Z" stroke="black" stroke-width="0.404722"/>
<path d="M9.27344 23.875H24.5462V24.6258H9.27344V23.875Z" fill="#A6BAD9"/>
<path d="M24.5449 24.6258L29.454 24.4756V24.0252L24.5449 23.875V24.6258Z" fill="#A6BAD9"/>
<path d="M25.0918 54.0547H58.91V77.9286L25.0918 77.1778V54.0547Z" stroke="#4C4C4C" stroke-width="0.404722"/>
<path d="M47.7282 74.9233L25.0918 74.1726V56.3047H47.7282V74.9233Z" fill="#999999" stroke="black" stroke-width="0.404722"/>
<path d="M47.7266 56.3047H53.1811V74.9233H47.7266V56.3047Z" fill="#CCCCCC" stroke="black" stroke-width="0.404722"/>
<path d="M141.818 50.1484H148.637V54.0523H141.818V50.1484Z" fill="#4C4C4C" stroke="black" stroke-width="0.404722"/>
</svg>
