<svg width="150" height="150" viewBox="0 0 150 150" fill="none" xmlns="http://www.w3.org/2000/svg">
<path d="M149.25 110.337L149.1 112.161L148.8 113.985L148.349 115.808L147.599 117.632L146.848 119.456L145.797 121.28L144.746 123.103L143.394 124.471L141.893 126.295L140.241 128.118L138.439 129.486L136.487 130.854L134.385 132.678L132.133 134.046L129.881 135.413L127.328 136.781L124.776 137.693L122.073 139.061L119.22 139.973L116.367 141.34L113.364 142.252L110.211 143.164L107.058 144.076L103.755 144.532L100.451 145.444L96.998 145.9L93.3944 146.356L89.9409 146.812L86.1871 147.267L82.4334 147.723H78.6796H74.9259H71.1721H67.4184L63.6646 147.267L59.9109 146.812L56.4574 146.356L52.8538 145.9L49.4004 145.444L46.0971 144.532L42.7938 144.076L39.6406 143.164L36.4874 142.252L33.4844 141.34L30.6316 139.973L27.7787 139.061L25.076 137.693L22.5235 136.781L19.9709 135.413L17.7187 134.046L15.4664 132.678L13.3643 130.854L11.4124 129.486L9.61057 128.118L7.95892 126.295L6.45742 124.471L5.10607 123.103L4.05502 121.28L3.00396 119.456L2.25321 117.632L1.50246 115.808L1.05201 113.985L0.751713 112.161L0.601562 110.337V35.1094H149.25V110.337Z" fill="#7F7F7F" stroke="black" stroke-width="0.523288"/>
<path d="M4.50391 119.451V34.6484L145.495 35.1044L145.345 119.451L140.39 126.29L125.225 136.776L101.351 144.983L74.9243 147.718L48.6481 144.983L24.7742 136.776L9.60901 126.29L4.50391 119.451Z" fill="#878787"/>
<path d="M8.4082 124.01V34.6484L141.591 35.1044L141.441 124.01L122.522 136.776L99.9998 144.983L74.9247 147.718L49.9998 144.983L27.4773 136.776L8.4082 124.01Z" fill="#919191"/>
<path d="M12.3125 129.025V34.6484L137.688 35.1044V129.025L133.183 131.305L119.67 136.776L98.4987 144.983L74.9251 147.718L51.5017 144.983L30.1804 136.776L16.817 131.305L12.3125 129.025Z" fill="#999999"/>
<path d="M16.2168 131.305V34.6484L133.935 35.1044L133.784 131.305L127.478 135.864L96.9976 144.983L75.0757 147.718L53.0036 144.983L21.6222 135.864L16.2168 131.305Z" fill="#A1A1A1"/>
<path d="M20.1211 133.585V34.6484L130.031 35.1044L129.881 133.585L114.265 140.424L95.6466 144.983L75.076 147.718L54.3553 144.983L35.7367 140.424L20.1211 133.585Z" fill="#ABABAB"/>
<path d="M23.873 135.869V35.1094H126.125L125.975 135.869L94.1433 144.988L74.9241 147.723L55.855 144.988L23.873 135.869Z" fill="#B2B2B2"/>
<path d="M29.4297 138.144V34.6484L120.721 35.1044L120.571 138.144L107.508 143.159L75.0753 147.718L42.4928 143.159L29.4297 138.144Z" fill="#BABABA"/>
<path d="M36.4863 140.424V34.6484L113.664 35.1044L113.513 140.424L102.552 143.159L89.4893 144.983L75.0749 147.718L60.5104 144.983L47.4473 143.159L36.4863 140.424Z" fill="#C2C2C2"/>
<path d="M43.543 143.159V34.6484L106.606 35.1044L106.456 143.159L97.597 145.439L75.0745 147.718L52.552 145.439L43.543 143.159Z" fill="#C9C9C9"/>
<path d="M50.6016 145.439V34.6484L99.5505 35.1044V145.439H92.4935L75.076 147.718L57.5085 145.439H50.6016Z" fill="#CFCFCF"/>
<path d="M57.6582 145.439V34.6484L92.493 35.1044V145.439L75.0756 147.718L57.6582 145.439Z" fill="#D6D6D6"/>
<path d="M64.7148 145.439V34.6484L85.4356 35.1044V145.439L75.0752 147.718L64.7148 145.439Z" fill="#DEDEDE"/>
<path d="M71.6211 147.723V35.1094H78.3779V147.723H75.0745H71.6211Z" fill="#E5E5E5"/>
<path d="M74.9259 35.103L3.30427 43.3097L2.70366 42.3978L2.25321 41.486L1.80276 40.5741L1.35231 39.2063L1.05201 38.2945L0.901863 36.9267L0.751713 36.0148L0.601562 35.103L0.751713 33.2793L1.05201 31.4556L1.50246 30.0878L2.25321 28.2641L3.00396 26.8963L4.05502 25.0726L5.10607 23.7048L6.45742 22.337L7.95892 20.5133L9.61057 19.1455L11.4124 17.7778L13.3643 16.41L15.4664 15.0422L17.7187 14.1303L19.9709 12.7626L22.5235 11.8507L25.076 10.4829L27.7787 9.57107L30.6316 8.65922L33.4844 7.74736L36.4874 6.83551L39.6406 5.92366L42.7938 5.46773L46.0971 4.55587L49.4004 4.09995L52.8538 3.64402L56.4574 3.18809L59.9109 2.73217L63.6646 2.27624H67.4184L71.1721 1.82031H74.9259H78.6796L82.4334 2.27624H86.1871L89.9409 2.73217L93.3944 3.18809L96.998 3.64402L100.451 4.09995L103.755 4.55587L107.058 5.46773L110.211 5.92366L113.364 6.83551L116.367 7.74736L119.22 8.65922L122.073 9.57107L124.776 10.4829L127.328 11.8507L129.881 12.7626L132.133 14.1303L134.385 15.0422L136.487 16.41L138.439 17.7778L140.241 19.1455L141.893 20.5133L143.394 22.337L144.746 23.7048L145.797 25.0726L146.848 26.8963L147.599 28.2641L148.349 30.0878L148.8 31.4556L149.1 33.2793L149.25 35.103L149.1 36.0148L148.95 36.9267L148.8 38.2945L148.499 39.2063L148.049 40.5741L147.599 41.486L147.148 42.3978L146.548 43.3097L74.9259 35.103Z" fill="#F7F7EF"/>
<path d="M74.9246 67.9366C114.397 67.9366 146.396 56.3015 146.396 41.9488C146.396 27.5961 114.397 15.9609 74.9246 15.9609C35.452 15.9609 3.45312 27.5961 3.45312 41.9488C3.45312 56.3015 35.452 67.9366 74.9246 67.9366Z" fill="#A6BAD9"/>
<path d="M74.9259 67.4738C115.974 67.4738 149.25 52.7768 149.25 34.6471C149.25 16.5173 115.974 1.82031 74.9259 1.82031C33.8777 1.82031 0.601562 16.5173 0.601562 34.6471C0.601562 52.7768 33.8777 67.4738 74.9259 67.4738Z" stroke="black" stroke-width="0.523288"/>
<path d="M68.7695 47.875H81.0818V67.9358H68.7695V47.875Z" fill="#7387A6"/>
<path d="M3.75391 44.2249H62.6128V41.9453H3.75391V44.2249Z" fill="#7387A6"/>
<path d="M3.75391 35.1094H62.6128V41.9483H3.75391V35.1094Z" fill="#F7F7EF"/>
<path d="M62.6133 44.6828V31.4609H87.2379V44.6828L86.337 46.9625L83.7845 48.7862L79.5802 50.1539L74.9256 50.6099L70.2709 50.1539L66.0667 48.7862L63.5142 46.9625L62.6133 44.6828Z" fill="#7F7F7F"/>
<path d="M63.8145 46.5065V31.4609H86.0367V46.5065L82.8835 48.7862L79.1298 50.1539L74.9256 50.6099L70.7214 50.1539L67.1178 48.7862L63.8145 46.5065Z" fill="#919191"/>
<path d="M65.166 47.8743V31.4609H84.6855V47.8743L83.6345 48.3302L78.6795 50.1539L74.9258 50.6099L71.3222 50.1539L66.0669 48.3302L65.166 47.8743Z" fill="#A1A1A1"/>
<path d="M66.3672 48.3302V31.4609H83.4843V48.3302L78.0789 50.1539L74.9257 50.6099L71.7726 50.1539L66.3672 48.3302Z" fill="#B2B2B2"/>
<path d="M68.4688 49.2421V31.4609H81.3817V49.2421L79.5799 49.698L77.3276 50.1539L74.9252 50.6099L72.5228 50.1539L70.2706 49.698L68.4688 49.2421Z" fill="#C2C2C2"/>
<path d="M70.8711 50.1539V31.4609H78.9792V50.1539H77.9282L74.9251 50.6099L72.0723 50.1539H70.8711Z" fill="#CFCFCF"/>
<path d="M73.123 50.1539V31.4609H76.7267V50.1539L74.9248 50.6099L73.123 50.1539Z" fill="#DEDEDE"/>
<path d="M74.3242 50.6099V31.4609H75.5254V50.6099H74.9248H74.3242Z" fill="#E5E5E5"/>
<path d="M74.9256 37.3854C81.7255 37.3854 87.2379 34.7317 87.2379 31.4583C87.2379 28.1849 81.7255 25.5312 74.9256 25.5312C68.1257 25.5312 62.6133 28.1849 62.6133 31.4583C62.6133 34.7317 68.1257 37.3854 74.9256 37.3854Z" fill="#E5E5E5"/>
<path d="M81.8314 31.4609L81.3809 32.8287L79.8794 33.7406L77.477 34.6524H74.9245H72.3719L69.9695 33.7406L68.468 32.8287L68.0176 31.4609" stroke="#7F7F7F" stroke-width="0.523288"/>
</svg>
