<svg width="150" height="150" viewBox="0 0 150 150" fill="none" xmlns="http://www.w3.org/2000/svg">
<g clip-path="url(#clip0_2122_164539)">
<path d="M7.9668 0V93.5435L21.8651 112.462H28.9837V150H50.3397V112.462H57.1193L75.0854 99.8499L92.7126 112.462H99.4922V150H120.848V112.462H127.967L141.865 93.5435V0H7.9668Z" fill="#B2E5E5" stroke="black" stroke-width="0.319056"/>
<path d="M11.3555 0V93.5435L23.5589 109.159H32.7114V150H46.6097V109.159H55.4233L75.0843 95.3453L94.4063 109.159H103.22V150H117.457V109.159H126.271L138.474 93.5435V0H11.3555Z" fill="#999999" stroke="black" stroke-width="0.319056"/>
<path d="M119.152 57.8047H125.254L127.966 59.3062V62.3092L125.254 63.8107H119.152V57.8047Z" fill="#E5E5E5" stroke="black" stroke-width="0.319056"/>
<path d="M119.153 57.8111H114.746L103.899 54.5078H97.1191V67.1204H103.899L114.746 63.8171H119.153V57.8111Z" fill="#B2B2B2" stroke="black" stroke-width="0.319056"/>
<path d="M114.746 57.8047V63.8107" stroke="black" stroke-width="0.319056"/>
<path d="M103.898 54.5078V67.1204" stroke="black" stroke-width="0.319056"/>
<path d="M31.6944 64.111H25.5927L22.8809 62.3092V59.3062L25.5927 57.8047H31.6944V64.111Z" fill="#E5E5E5" stroke="black" stroke-width="0.319056"/>
<path d="M31.6953 64.1174H36.1021L46.6106 67.1204H53.7292V54.5078H46.6106L36.1021 57.8111H31.6953V64.1174Z" fill="#B2B2B2" stroke="black" stroke-width="0.319056"/>
<path d="M36.1016 64.111V57.8047" stroke="black" stroke-width="0.319056"/>
<path d="M46.6094 67.1204V54.5078" stroke="black" stroke-width="0.319056"/>
<path d="M5.9322 115.466L0 107.658L18.4746 95.3456V18.4688H28.9831V99.8501L5.9322 115.466Z" fill="white" stroke="black" stroke-width="0.319056"/>
<path d="M143.899 115.466L150 107.658L131.356 95.3456V18.4688H120.848V99.8501L143.899 115.466Z" fill="white" stroke="black" stroke-width="0.319056"/>
<path d="M32.7114 34.0841L26.9487 35.5856L23.8978 34.6847L22.8809 31.6817L24.9148 29.5796L31.0165 28.0781L32.7114 34.0841Z" fill="#F2F2F2" stroke="black" stroke-width="0.319056"/>
<path d="M31.0165 93.5466L24.9148 92.3454L22.8809 90.2433L23.8978 86.94L26.9487 86.0391L32.7114 87.5406L31.0165 93.5466Z" fill="#F2F2F2" stroke="black" stroke-width="0.319056"/>
<path d="M32.7125 34.0829L37.1193 33.182L48.3057 33.7826L55.0854 31.9808L51.3566 19.9688L44.5769 21.4703L35.0854 27.176L31.0176 28.0769L32.7125 34.0829Z" fill="#CCCCCC" stroke="black" stroke-width="0.319056"/>
<path d="M31.0176 93.5451L35.0854 94.7463L44.5769 100.152L51.3566 101.653L55.0854 89.6412L48.3057 88.1397L37.1193 88.7403L32.7125 87.5391L31.0176 93.5451Z" fill="#CCCCCC" stroke="black" stroke-width="0.319056"/>
<path d="M37.1179 33.1857L35.084 27.1797" stroke="black" stroke-width="0.319056"/>
<path d="M35.084 94.7482L37.1179 88.7422" stroke="black" stroke-width="0.319056"/>
<path d="M48.305 33.7811L44.5762 21.4688" stroke="black" stroke-width="0.319056"/>
<path d="M44.5762 100.153L48.305 88.1406" stroke="black" stroke-width="0.319056"/>
<path d="M117.797 87.5406L123.899 86.0391L126.949 86.94L127.966 89.943L125.593 92.0451L119.831 93.5466L117.797 87.5406Z" fill="#F2F2F2" stroke="black" stroke-width="0.319056"/>
<path d="M119.831 28.0781L125.593 29.5796L127.966 31.6817L126.949 34.6847L123.899 35.5856L117.797 34.0841L119.831 28.0781Z" fill="#F2F2F2" stroke="black" stroke-width="0.319056"/>
<path d="M117.798 87.5391L113.73 88.44L102.543 88.1397L95.7637 89.6412L99.4925 101.653L106.272 100.152L115.425 94.7463L119.831 93.5451L117.798 87.5391Z" fill="#CCCCCC" stroke="black" stroke-width="0.319056"/>
<path d="M119.83 28.0769L115.423 26.8757L106.27 21.4703L99.4905 19.9688L95.7617 31.9808L102.541 33.7826L113.728 33.182L117.796 34.0829L119.83 28.0769Z" fill="#CCCCCC" stroke="black" stroke-width="0.319056"/>
<path d="M113.729 88.4375L115.423 94.7438" stroke="black" stroke-width="0.319056"/>
<path d="M115.423 26.875L113.729 33.1813" stroke="black" stroke-width="0.319056"/>
<path d="M102.543 88.1406L106.272 100.153" stroke="black" stroke-width="0.319056"/>
<path d="M106.272 21.4688L102.543 33.7811" stroke="black" stroke-width="0.319056"/>
</g>
<defs>
<clipPath id="clip0_2122_164539">
<rect width="150" height="150" fill="white"/>
</clipPath>
</defs>
</svg>
