<svg width="150" height="150" viewBox="0 0 150 150" fill="none" xmlns="http://www.w3.org/2000/svg">
<g clip-path="url(#clip0_2122_165786)">
<path d="M10.9756 23.875H139.306V147.298L150 146.848V150.001H0V147.298L10.9756 146.848V23.875Z" fill="#CCCCCC"/>
<path d="M10.9766 98.3514L139.307 47V134.087H10.9766V98.3514Z" fill="#C7C7C7"/>
<path d="M10.9766 103.453L139.307 52.1016V134.084H10.9766V103.453Z" fill="#C2C2C2"/>
<path d="M10.9766 111.261L139.307 59.6094V146.847H10.9766V111.261Z" fill="#BDBDBD"/>
<path d="M16.041 127.18H134.24V146.849H16.041V127.18Z" fill="#999999"/>
<path d="M16.041 146.849V127.18H134.24" stroke="#666666" stroke-width="0.411126"/>
<path d="M10.9766 58.4062H139.307" stroke="#7F7F7F" stroke-width="0.411126"/>
<path d="M10.9756 23.875H139.306V146.848L150 147.298V150.001H0V147.298L10.9756 146.848V23.875Z" stroke="black" stroke-width="0.411126"/>
<path d="M84.1458 75.8281V81.2335H86.9601V89.6419H63.3203V81.2335H65.5717V75.8281H84.1458Z" fill="#CCCCCC"/>
<path d="M81.895 75.8281V81.2335H84.1464V89.6419H65.5723V81.2335H67.8237V75.8281H81.895Z" fill="#D6D6D6"/>
<path d="M80.2066 75.8281V81.2335H81.3323V89.6419H68.3867V81.2335H70.0753V75.8281H80.2066Z" fill="#DEDEDE"/>
<path d="M77.9554 75.8281V81.2335H79.0811V89.6419H71.2012V81.2335H71.764V75.8281H77.9554Z" fill="#E8E8E8"/>
<path d="M75.7045 75.8281V81.2335H76.2674V89.6419H73.4531V81.2335H74.016V75.8281H75.7045Z" fill="#F2F2F2"/>
<path d="M84.1458 75.8281V81.2335H86.9601V89.6419H63.3203V81.2335H65.5717V75.8281H84.1458Z" stroke="black" stroke-width="0.411126"/>
<path d="M65.5723 81.2344H84.1464" stroke="black" stroke-width="0.411126"/>
<path d="M22.7945 75.5242L17.166 72.5212V16.9657L22.7945 13.8125H127.485L133.113 16.9657V72.5212L127.485 75.5242H22.7945Z" fill="white" stroke="black" stroke-width="0.411126"/>
<path d="M28.4234 72.5243L22.7949 69.8216V19.6715L27.8606 16.9688H121.857L127.485 19.6715V69.8216L121.857 72.5243H28.4234Z" fill="#CCCCCC"/>
<path d="M70.0745 50.8982L63.3203 47.2946V42.1895L70.0745 38.5859H79.643L86.9601 42.1895V47.2946L79.643 50.8982H70.0745Z" fill="white"/>
<path d="M72.3262 16.9688H77.9547V72.5243H72.3262V16.9688Z" fill="white"/>
<path d="M126.36 16.0625L130.3 18.4649L25.8913 74.3208L21.6699 71.9184L126.36 16.0625Z" fill="white"/>
<path d="M130.3 71.9184L126.36 74.0205L21.6699 18.4649L25.8913 16.0625L130.3 71.9184Z" fill="white"/>
<path d="M130.862 33.4844L131.988 36.4874L21.1062 56.9078L19.9805 53.9048L130.862 33.4844Z" fill="white"/>
<path d="M131.988 53.9048L130.862 56.9078L19.9805 36.4874L21.1062 33.4844L131.988 53.9048Z" fill="white"/>
<path d="M40.8068 64.7169L37.4297 62.9151V60.5127L40.8068 58.7109H45.3096L49.2496 60.5127V62.9151L45.3096 64.7169H40.8068Z" fill="#7F7F7F"/>
<path d="M104.408 64.7169L101.031 62.9151V60.5127L104.408 58.7109H109.474L112.851 60.5127V62.9151L109.474 64.7169H104.408Z" fill="#7F7F7F"/>
<path d="M40.8068 30.7829L37.4297 28.9811V26.5787L40.8068 24.4766H45.3096L49.2496 26.5787V28.9811L45.3096 30.7829H40.8068Z" fill="#7F7F7F"/>
<path d="M104.408 30.7829L101.031 28.9811V26.5787L104.408 24.4766H109.474L112.851 26.5787V28.9811L109.474 30.7829H104.408Z" fill="#7F7F7F"/>
<path d="M65.5717 13.964V8.40841H63.3203V0H86.9601V8.40841H84.1458V13.964H65.5717Z" fill="#CCCCCC"/>
<path d="M67.8237 13.964V8.40841H65.5723V0H84.1464V8.40841H81.895V13.964H67.8237Z" fill="#D6D6D6"/>
<path d="M70.0753 13.964V8.40841H68.3867V0H81.3323V8.40841H80.2066V13.964H70.0753Z" fill="#DEDEDE"/>
<path d="M71.764 13.964V8.40841H71.2012V0H79.0811V8.40841H77.9554V13.964H71.764Z" fill="#E8E8E8"/>
<path d="M74.016 13.964V8.40841H73.4531V0H76.2674V8.40841V13.964H74.016Z" fill="#F2F2F2"/>
<path d="M65.5717 13.964V8.40841H63.3203V0H86.9601V8.40841H84.1458V13.964H65.5717Z" stroke="black" stroke-width="0.411126"/>
<path d="M84.1464 8.40625H65.5723" stroke="black" stroke-width="0.411126"/>
</g>
<defs>
<clipPath id="clip0_2122_165786">
<rect width="150" height="150" fill="white"/>
</clipPath>
</defs>
</svg>
