<svg width="150" height="150" viewBox="0 0 150 150" fill="none" xmlns="http://www.w3.org/2000/svg">
<g clip-path="url(#clip0_2122_167070)">
<path d="M18.4688 149.998H19.67V145.094H18.4688V149.998Z" fill="#F0F0F0" stroke="black" stroke-width="0.495456"/>
<path d="M53.3027 149.998H54.5039V145.094H53.3027V149.998Z" fill="#F0F0F0" stroke="black" stroke-width="0.495456"/>
<path d="M88.1387 149.998H89.7903V145.094H88.1387V149.998Z" fill="#F0F0F0" stroke="black" stroke-width="0.495456"/>
<path d="M123.123 149.998H124.625V145.094H123.123V149.998Z" fill="#F0F0F0" stroke="black" stroke-width="0.495456"/>
<path d="M20.2705 149.186L19.6699 150.003V145.099L20.2705 144.281V149.186Z" fill="black"/>
<path d="M55.1045 149.186L54.5039 150.003V145.099L55.1045 144.281V149.186Z" fill="black"/>
<path d="M90.0894 149.186L89.7891 150.003V145.099L90.0894 144.281V149.186Z" fill="black"/>
<path d="M124.925 149.186L124.625 150.003V145.099L124.925 144.281V149.186Z" fill="black"/>
<path d="M1.20117 107.495L20.8708 106.678L18.7687 100.547H4.20417L1.20117 107.495Z" fill="#7F7F7F"/>
<path d="M20.8713 106.672H2.70312V119.751H20.8713V106.672Z" fill="#4C4C4C"/>
<path d="M2.4024 119.751C3.72921 119.751 4.8048 116.823 4.8048 113.211C4.8048 109.6 3.72921 106.672 2.4024 106.672C1.07559 106.672 0 109.6 0 113.211C0 116.823 1.07559 119.751 2.4024 119.751Z" fill="black" stroke="black" stroke-width="0.495456"/>
<path d="M2.55303 118.933C3.79692 118.933 4.80529 116.189 4.80529 112.803C4.80529 109.417 3.79692 106.672 2.55303 106.672C1.30915 106.672 0.300781 109.417 0.300781 112.803C0.300781 116.189 1.30915 118.933 2.55303 118.933Z" fill="#7F7F7F" stroke="black" stroke-width="0.495456"/>
<path d="M2.40333 114.848C2.73504 114.848 3.00394 114.116 3.00394 113.213C3.00394 112.31 2.73504 111.578 2.40333 111.578C2.07163 111.578 1.80273 112.31 1.80273 113.213C1.80273 114.116 2.07163 114.848 2.40333 114.848Z" fill="#F0F0F0" stroke="black" stroke-width="0.495456"/>
<path d="M20.8717 135.288L5.70655 114.852H5.40625V115.669V116.486L20.2711 137.74L20.8717 136.922V136.105V135.288Z" fill="#F0F0F0" stroke="black" stroke-width="0.495456"/>
<path d="M130.48 111.578L126.426 121.387V145.093L130.48 135.284V111.578Z" fill="#666666"/>
<path d="M126.426 121.39L130.48 110.763V40.0547L126.426 51.0901V121.39Z" fill="#009933" stroke="black" stroke-width="0.495456"/>
<path d="M127.027 119.757L130.18 111.582V69.4844L127.027 78.8849V119.757Z" fill="#191919" stroke="black" stroke-width="0.495456"/>
<path d="M21.1715 40.0547H48.3487L44.2946 51.0901H17.2676L21.1715 40.0547Z" fill="#009933" stroke="black" stroke-width="0.495456"/>
<path d="M130.481 40.0547H103.304L99.25 51.0901H126.427L130.481 40.0547Z" fill="#009933" stroke="black" stroke-width="0.495456"/>
<path d="M147.749 100.547L148.649 101.364L149.55 102.999L150.001 105.452V109.13L149.55 111.582L148.649 113.217L146.848 118.939L147.448 100.547H147.749Z" fill="black" stroke="black" stroke-width="0.495456"/>
<path d="M147.447 100.547H147.747L148.648 102.182L149.249 103.817L149.549 105.452V109.13L149.249 110.765L148.648 112.4L146.546 118.939L144.744 107.495L147.447 100.547Z" fill="#666666" stroke="black" stroke-width="0.495456"/>
<path d="M127.027 106.672H145.346V119.751H127.027V106.672Z" fill="#4C4C4C"/>
<path d="M142.042 109.538C142.291 109.538 142.493 108.989 142.493 108.312C142.493 107.635 142.291 107.086 142.042 107.086C141.793 107.086 141.592 107.635 141.592 108.312C141.592 108.989 141.793 109.538 142.042 109.538Z" fill="#F0F0F0" stroke="black" stroke-width="0.495456"/>
<path d="M137.237 106.672L137.538 107.489L137.988 108.307L137.538 109.124L137.237 109.942H136.937V109.124L136.637 108.307L136.937 107.489L137.237 106.672Z" fill="#F0F0F0" stroke="black" stroke-width="0.495456"/>
<path d="M132.433 109.538C132.682 109.538 132.883 108.989 132.883 108.312C132.883 107.635 132.682 107.086 132.433 107.086C132.184 107.086 131.982 107.635 131.982 108.312C131.982 108.989 132.184 109.538 132.433 109.538Z" fill="#F0F0F0" stroke="black" stroke-width="0.495456"/>
<path d="M16.3665 109.538C16.6152 109.538 16.8169 108.989 16.8169 108.312C16.8169 107.635 16.6152 107.086 16.3665 107.086C16.1177 107.086 15.916 107.635 15.916 108.312C15.916 108.989 16.1177 109.538 16.3665 109.538Z" fill="#F0F0F0" stroke="black" stroke-width="0.495456"/>
<path d="M11.7119 106.672L11.8621 107.489H12.3125V108.307V109.124H11.8621L11.7119 109.942H11.4116V109.124L11.1113 108.307L11.4116 107.489L11.7119 106.672Z" fill="#F0F0F0" stroke="black" stroke-width="0.495456"/>
<path d="M6.90748 109.538C7.15626 109.538 7.35793 108.989 7.35793 108.312C7.35793 107.635 7.15626 107.086 6.90748 107.086C6.6587 107.086 6.45703 107.635 6.45703 108.312C6.45703 108.989 6.6587 109.538 6.90748 109.538Z" fill="#F0F0F0" stroke="black" stroke-width="0.495456"/>
<path d="M145.195 119.751C146.522 119.751 147.598 116.823 147.598 113.211C147.598 109.6 146.522 106.672 145.195 106.672C143.869 106.672 142.793 109.6 142.793 113.211C142.793 116.823 143.869 119.751 145.195 119.751Z" fill="black" stroke="black" stroke-width="0.495456"/>
<path d="M145.346 118.933C146.59 118.933 147.598 116.189 147.598 112.803C147.598 109.417 146.59 106.672 145.346 106.672C144.102 106.672 143.094 109.417 143.094 112.803C143.094 116.189 144.102 118.933 145.346 118.933Z" fill="#7F7F7F" stroke="black" stroke-width="0.495456"/>
<path d="M145.345 114.848C145.676 114.848 145.945 114.116 145.945 113.213C145.945 112.31 145.676 111.578 145.345 111.578C145.013 111.578 144.744 112.31 144.744 113.213C144.744 114.116 145.013 114.848 145.345 114.848Z" fill="#F0F0F0" stroke="black" stroke-width="0.495456"/>
<path d="M145.346 106.678H127.027L129.28 100.547H147.448L145.346 106.678Z" fill="#7F7F7F"/>
<path d="M127.027 135.288L141.892 114.852H142.193V115.669V116.486L127.478 137.74L127.027 136.922V136.105V135.288Z" fill="#F0F0F0" stroke="black" stroke-width="0.495456"/>
<path d="M17.2676 121.391H126.427V145.096H17.2676V121.391Z" fill="#F0F0F0"/>
<path d="M124.023 121.391H126.426V145.096H124.023V121.391Z" fill="#CCCCCC"/>
<path d="M95.9453 9.8125H113.213V51.0932H95.9453V9.8125Z" fill="#F0F0F0" stroke="black" stroke-width="0.495456"/>
<path d="M116.816 0L113.213 9.80927V51.0899L116.816 40.8719V0Z" fill="#E0E0E0" stroke="black" stroke-width="0.495456"/>
<path d="M95.9453 9.80926H113.213L116.816 0H99.5489L95.9453 9.80926Z" fill="#F0F0F0" stroke="black" stroke-width="0.495456"/>
<path d="M95.9465 9.8125H78.3789V51.0932H95.9465V9.8125Z" fill="#F0F0F0" stroke="black" stroke-width="0.495456"/>
<path d="M95.9465 9.80926H78.3789L81.9825 0H99.5501L95.9465 9.80926Z" fill="#F0F0F0" stroke="black" stroke-width="0.495456"/>
<path d="M60.9609 9.8125H78.3784V51.0932H60.9609V9.8125Z" fill="#F0F0F0" stroke="black" stroke-width="0.495456"/>
<path d="M60.9609 9.80926H78.3784L81.982 0H64.7147L60.9609 9.80926Z" fill="#F0F0F0" stroke="black" stroke-width="0.495456"/>
<path d="M60.9601 9.8125H43.3926V51.0932H60.9601V9.8125Z" fill="#F0F0F0" stroke="black" stroke-width="0.495456"/>
<path d="M60.9601 9.80926H43.3926L47.1463 0H64.7139L60.9601 9.80926Z" fill="#F0F0F0" stroke="black" stroke-width="0.495456"/>
<path d="M26.127 9.8125H43.3942V51.0932H26.127V9.8125Z" fill="#F0F0F0" stroke="black" stroke-width="0.495456"/>
<path d="M26.127 9.80926H43.3942L47.148 0H29.8807L26.127 9.80926Z" fill="#F0F0F0" stroke="black" stroke-width="0.495456"/>
<path d="M41.5918 30.2422H42.4927L42.793 31.0596V34.3294L42.4927 35.1468H41.5918V34.3294V31.0596V30.2422Z" fill="#E0E0E0" stroke="black" stroke-width="0.495456"/>
<path d="M28.6785 26.5703L28.9788 27.3878L29.2791 28.6139L28.9788 30.2488H28.6785H28.228L27.9277 28.6139L28.228 27.3878L28.6785 26.5703Z" fill="#00FF00" stroke="black" stroke-width="0.495456"/>
<path d="M28.6785 32.2891L28.9788 33.5152L29.2791 34.3327L28.9788 35.9675H28.6785H28.228L27.9277 34.3327L28.228 33.5152L28.6785 32.2891Z" fill="#FF0000" stroke="black" stroke-width="0.495456"/>
<path d="M32.582 13.8984H37.2367" stroke="black" stroke-width="0.495456"/>
<path d="M32.582 16.7578H37.2367" stroke="black" stroke-width="0.495456"/>
<path d="M32.582 18.3906H37.2367" stroke="black" stroke-width="0.495456"/>
<path d="M32.582 20.0234H37.2367" stroke="black" stroke-width="0.495456"/>
<path d="M32.582 24.1172H37.2367" stroke="black" stroke-width="0.495456"/>
<path d="M32.582 25.75H37.2367" stroke="black" stroke-width="0.495456"/>
<path d="M32.582 28.6094H37.2367" stroke="black" stroke-width="0.495456"/>
<path d="M50.3008 13.8984H54.8053" stroke="black" stroke-width="0.495456"/>
<path d="M50.3008 16.7578H54.8053" stroke="black" stroke-width="0.495456"/>
<path d="M50.3008 18.3906H54.8053" stroke="black" stroke-width="0.495456"/>
<path d="M50.3008 20.0234H54.8053" stroke="black" stroke-width="0.495456"/>
<path d="M50.3008 24.1172H54.8053" stroke="black" stroke-width="0.495456"/>
<path d="M50.3008 25.75H54.8053" stroke="black" stroke-width="0.495456"/>
<path d="M50.3008 28.6094H54.8053" stroke="black" stroke-width="0.495456"/>
<path d="M67.418 13.8984H72.5231" stroke="black" stroke-width="0.495456"/>
<path d="M67.418 16.7578H72.5231" stroke="black" stroke-width="0.495456"/>
<path d="M67.418 18.3906H72.5231" stroke="black" stroke-width="0.495456"/>
<path d="M67.418 20.0234H72.5231" stroke="black" stroke-width="0.495456"/>
<path d="M67.418 24.1172H72.5231" stroke="black" stroke-width="0.495456"/>
<path d="M67.418 25.75H72.5231" stroke="black" stroke-width="0.495456"/>
<path d="M67.418 28.6094H72.5231" stroke="black" stroke-width="0.495456"/>
<path d="M85.1348 13.8984H89.7894" stroke="black" stroke-width="0.495456"/>
<path d="M85.1348 16.7578H89.7894" stroke="black" stroke-width="0.495456"/>
<path d="M85.1348 18.3906H89.7894" stroke="black" stroke-width="0.495456"/>
<path d="M85.1348 20.0234H89.7894" stroke="black" stroke-width="0.495456"/>
<path d="M85.1348 24.1172H89.7894" stroke="black" stroke-width="0.495456"/>
<path d="M85.1348 25.75H89.7894" stroke="black" stroke-width="0.495456"/>
<path d="M85.1348 28.6094H89.7894" stroke="black" stroke-width="0.495456"/>
<path d="M102.402 13.8984H107.057" stroke="black" stroke-width="0.495456"/>
<path d="M102.402 16.7578H107.057" stroke="black" stroke-width="0.495456"/>
<path d="M102.402 18.3906H107.057" stroke="black" stroke-width="0.495456"/>
<path d="M102.402 20.0234H107.057" stroke="black" stroke-width="0.495456"/>
<path d="M102.402 24.1172H107.057" stroke="black" stroke-width="0.495456"/>
<path d="M102.402 25.75H107.057" stroke="black" stroke-width="0.495456"/>
<path d="M102.402 28.6094H107.057" stroke="black" stroke-width="0.495456"/>
<path d="M59.4585 30.2422H60.0591L60.3594 31.0596V34.3294L60.0591 35.1468H59.4585L59.1582 34.3294V31.0596L59.4585 30.2422Z" fill="#E0E0E0" stroke="black" stroke-width="0.495456"/>
<path d="M46.2471 26.5703L46.5474 27.3878L46.8477 28.6139L46.5474 30.2488H46.2471H45.9468L45.6465 28.6139L45.9468 27.3878L46.2471 26.5703Z" fill="#00FF00" stroke="black" stroke-width="0.495456"/>
<path d="M46.2471 32.2891L46.5474 33.5152L46.8477 34.3327L46.5474 35.9675H46.2471H45.9468L45.6465 34.3327L45.9468 33.5152L46.2471 32.2891Z" fill="#FF0000" stroke="black" stroke-width="0.495456"/>
<path d="M76.7261 30.2422H77.627L78.0774 31.0596V34.3294L77.627 35.1468H76.7261L76.4258 34.3294V31.0596L76.7261 30.2422Z" fill="#E0E0E0" stroke="black" stroke-width="0.495456"/>
<path d="M63.8135 26.5703L64.1138 27.3878L64.4141 28.6139L64.1138 30.2488H63.8135H63.2129V28.6139V27.3878L63.8135 26.5703Z" fill="#00FF00" stroke="black" stroke-width="0.495456"/>
<path d="M63.8135 32.2891L64.1138 33.5152L64.4141 34.3327L64.1138 35.9675H63.8135H63.2129V34.3327V33.5152L63.8135 32.2891Z" fill="#FF0000" stroke="black" stroke-width="0.495456"/>
<path d="M94.2944 30.2422H95.0452L95.3455 31.0596V34.3294L95.0452 35.1468H94.2944L93.9941 34.3294V31.0596L94.2944 30.2422Z" fill="#E0E0E0" stroke="black" stroke-width="0.495456"/>
<path d="M81.0811 26.5703L81.3814 27.3878L81.6817 28.6139L81.3814 30.2488H81.0811H80.7808L80.4805 28.6139L80.7808 27.3878L81.0811 26.5703Z" fill="#00FF00" stroke="black" stroke-width="0.495456"/>
<path d="M81.0811 32.2891L81.3814 33.5152L81.6817 34.3327L81.3814 35.9675H81.0811H80.7808L80.4805 34.3327L80.7808 33.5152L81.0811 32.2891Z" fill="#FF0000" stroke="black" stroke-width="0.495456"/>
<path d="M111.712 30.2422H112.313L112.613 31.0596V34.3294L112.313 35.1468H111.712L111.412 34.3294V31.0596L111.712 30.2422Z" fill="#E0E0E0" stroke="black" stroke-width="0.495456"/>
<path d="M98.3486 26.5703L98.6489 27.3878L98.9492 28.6139L98.6489 30.2488H98.3486H98.0483L97.748 28.6139L98.0483 27.3878L98.3486 26.5703Z" fill="#00FF00" stroke="black" stroke-width="0.495456"/>
<path d="M98.3486 32.2891L98.6489 33.5152L98.9492 34.3327L98.6489 35.9675H98.3486H98.0483L97.748 34.3327L98.0483 33.5152L98.3486 32.2891Z" fill="#FF0000" stroke="black" stroke-width="0.495456"/>
<path d="M17.2676 121.391H126.427V145.096H17.2676V121.391Z" stroke="black" stroke-width="0.495456"/>
<path d="M17.2676 51.0938H44.2946V121.393H17.2676V51.0938Z" fill="#99CC99"/>
<path d="M17.2676 100.951L44.2946 71.5234V121.387H17.2676V100.951Z" fill="#94C794"/>
<path d="M17.2676 104.225L44.2946 74.7969V121.391H17.2676V104.225Z" fill="#8FC28F"/>
<path d="M17.2676 108.719L44.2946 78.8828V121.39H17.2676V108.719Z" fill="#8ABD8A"/>
<path d="M17.2676 51.0938H44.2946V121.393H17.2676V51.0938Z" stroke="black" stroke-width="0.495456"/>
<path d="M44.5938 51.0938H71.7709V121.393H44.5938V51.0938Z" fill="#99CC99"/>
<path d="M44.5938 100.951L71.7709 71.5234V121.387H44.5938V100.951Z" fill="#94C794"/>
<path d="M44.5938 104.225L71.7709 74.7969V121.391H44.5938V104.225Z" fill="#8FC28F"/>
<path d="M44.5938 108.719L71.7709 78.8828V121.39H44.5938V108.719Z" fill="#8ABD8A"/>
<path d="M44.5938 51.0938H71.7709V121.393H44.5938V51.0938Z" stroke="black" stroke-width="0.495456"/>
<path d="M71.9219 51.0938H99.0991V121.393H71.9219V51.0938Z" fill="#99CC99"/>
<path d="M71.9219 100.951L99.0991 71.5234V121.387H71.9219V100.951Z" fill="#94C794"/>
<path d="M71.9219 104.225L99.0991 74.7969V121.391H71.9219V104.225Z" fill="#8FC28F"/>
<path d="M71.9219 108.719L99.0991 78.8828V121.39H71.9219V108.719Z" fill="#8ABD8A"/>
<path d="M71.9219 51.0938H99.0991V121.393H71.9219V51.0938Z" stroke="black" stroke-width="0.495456"/>
<path d="M99.25 51.0938H126.427V121.393H99.25V51.0938Z" fill="#99CC99"/>
<path d="M99.25 100.951L126.427 71.5234V121.387H99.25V100.951Z" fill="#94C794"/>
<path d="M99.25 104.225L126.427 74.7969V121.391H99.25V104.225Z" fill="#8FC28F"/>
<path d="M99.25 108.719L126.427 78.8828V121.39H99.25V108.719Z" fill="#8ABD8A"/>
<path d="M99.25 51.0938H126.427V121.393H99.25V51.0938Z" stroke="black" stroke-width="0.495456"/>
<path d="M41.2905 80.5156H42.792L43.0923 81.3331V87.0551L42.792 88.69H41.2905L40.9902 87.0551V81.3331L41.2905 80.5156Z" fill="#E0E0E0" stroke="black" stroke-width="0.495456"/>
<path d="M68.1675 80.5156H69.669L69.9693 81.3331V87.0551L69.669 88.69H68.1675L67.8672 87.0551V81.3331L68.1675 80.5156Z" fill="#E0E0E0" stroke="black" stroke-width="0.495456"/>
<path d="M96.2456 80.5156H97.4468L98.0474 81.3331V87.0551L97.4468 88.69H96.2456L95.9453 87.0551V81.3331L96.2456 80.5156Z" fill="#E0E0E0" stroke="black" stroke-width="0.495456"/>
<path d="M123.724 80.5156H125.226L125.526 81.3331V87.0551L125.226 88.69H123.724L123.424 87.0551V81.3331L123.724 80.5156Z" fill="#E0E0E0" stroke="black" stroke-width="0.495456"/>
<path d="M41.2905 82.9688H42.792L43.0923 83.7862V85.4211H42.792H41.2905H40.9902V83.7862L41.2905 82.9688Z" fill="white" stroke="black" stroke-width="0.495456"/>
<path d="M68.1675 82.9688H69.669L69.9693 83.7862V85.4211H69.669H68.1675H67.8672V83.7862L68.1675 82.9688Z" fill="white" stroke="black" stroke-width="0.495456"/>
<path d="M96.2456 82.9688H97.4468L98.0474 83.7862V85.4211H97.4468H96.2456H95.9453V83.7862L96.2456 82.9688Z" fill="white" stroke="black" stroke-width="0.495456"/>
<path d="M123.724 82.9688H125.226L125.526 83.7862V85.4211H125.226H123.724H123.424V83.7862L123.724 82.9688Z" fill="white" stroke="black" stroke-width="0.495456"/>
</g>
<defs>
<clipPath id="clip0_2122_167070">
<rect width="150" height="150" fill="white"/>
</clipPath>
</defs>
</svg>
