<svg width="150" height="150" viewBox="0 0 150 150" fill="none" xmlns="http://www.w3.org/2000/svg">
<path d="M38.0957 37.8359H111.608V50.1482H38.0957V37.8359Z" fill="#CCCCCC"/>
<path d="M38.0957 149.248V50.1484H111.608V149.248H38.0957Z" fill="#E5E5E5"/>
<path d="M42.8574 37.8359H44.0479V149.247H42.8574V37.8359Z" fill="#999999"/>
<path d="M50.2969 37.8359H51.785V149.247H50.2969V37.8359Z" fill="#999999"/>
<path d="M58.0352 37.8359H59.5233V149.247H58.0352V37.8359Z" fill="#999999"/>
<path d="M65.7734 37.8359H67.2615V149.247H65.7734V37.8359Z" fill="#999999"/>
<path d="M73.5117 37.8359H74.9998V149.247H73.5117V37.8359Z" fill="#999999"/>
<path d="M80.9531 37.8359H82.4412V149.247H80.9531V37.8359Z" fill="#999999"/>
<path d="M88.6914 37.8359H90.1795V149.247H88.6914V37.8359Z" fill="#999999"/>
<path d="M96.4277 37.8359H97.9158V149.247H96.4277V37.8359Z" fill="#999999"/>
<path d="M104.166 37.8359H105.356V149.247H104.166V37.8359Z" fill="#999999"/>
<path d="M107.143 37.8359H110.119V149.247H107.143V37.8359Z" fill="#F2F2F2"/>
<path d="M99.4043 37.8359H102.38V149.247H99.4043V37.8359Z" fill="#F2F2F2"/>
<path d="M91.666 37.8359H94.9398V149.247H91.666V37.8359Z" fill="#F2F2F2"/>
<path d="M84.2266 37.8359H87.2028V149.247H84.2266V37.8359Z" fill="#F2F2F2"/>
<path d="M76.4883 37.8359H79.4645V149.247H76.4883V37.8359Z" fill="#F2F2F2"/>
<path d="M68.75 37.8359H71.7262V149.247H68.75V37.8359Z" fill="#F2F2F2"/>
<path d="M61.0117 37.8359H64.2855V149.247H61.0117V37.8359Z" fill="#F2F2F2"/>
<path d="M53.2734 37.8359H56.5472V149.247H53.2734V37.8359Z" fill="#F2F2F2"/>
<path d="M45.834 37.8359H48.8102V149.247H45.834V37.8359Z" fill="#F2F2F2"/>
<path d="M38.0957 37.8359H41.0719V149.247H38.0957V37.8359Z" fill="#F2F2F2"/>
<path d="M110.416 37.8359H111.904V149.247H110.416V37.8359Z" fill="#CCCCCC"/>
<path d="M102.678 37.8359H104.166V149.247H102.678V37.8359Z" fill="#CCCCCC"/>
<path d="M94.9414 37.8359H96.4295V149.247H94.9414V37.8359Z" fill="#CCCCCC"/>
<path d="M87.2031 37.8359H88.6912V149.247H87.2031V37.8359Z" fill="#CCCCCC"/>
<path d="M79.4648 37.8359H80.9529V149.247H79.4648V37.8359Z" fill="#CCCCCC"/>
<path d="M72.0234 37.8359H73.5115V149.247H72.0234V37.8359Z" fill="#CCCCCC"/>
<path d="M64.2852 37.8359H65.7733V149.247H64.2852V37.8359Z" fill="#CCCCCC"/>
<path d="M56.5469 37.8359H58.035V149.247H56.5469V37.8359Z" fill="#CCCCCC"/>
<path d="M48.8086 37.8359H50.2967V149.247H48.8086V37.8359Z" fill="#CCCCCC"/>
<path d="M41.3691 37.8359H42.8572V149.247H41.3691V37.8359Z" fill="#CCCCCC"/>
<path d="M1.19141 31.6809V6.90616L38.0962 0.75H113.394L148.513 6.90616V31.6809H1.19141Z" fill="#B2B2B2"/>
<path d="M8.92773 31.5325V6.90787L41.9634 0.601562H109.523L141.071 6.90787V31.5325H8.92773Z" fill="#C2C2C2"/>
<path d="M13.6914 31.5325V6.90787L44.3462 0.601562H107.144L136.31 6.90787V31.5325H13.6914Z" fill="#D1D1D1"/>
<path d="M25.8926 31.5325V6.90787L50.2973 0.601562H100.595L124.107 6.90787V31.5325H25.8926Z" fill="#E0E0E0"/>
<path d="M41.0723 31.5325V6.90787L58.0366 0.601562H92.5604L108.929 6.90787V31.5325H41.0723Z" fill="#F0F0F0"/>
<path d="M61.0117 31.6809V6.90616L68.1546 0.75H82.1427L88.6903 6.90616V31.6809H61.0117Z" fill="white"/>
<path d="M38.0962 37.8358L1.19141 31.6797H148.513L111.608 37.8358H38.0962Z" fill="#999999"/>
<path d="M41.9634 37.8376L8.92773 31.5312H141.071L108.035 37.8376H41.9634Z" fill="#A8A8A8"/>
<path d="M44.3462 37.8376L13.6914 31.5312H136.31L105.656 37.8376H44.3462Z" fill="#B8B8B8"/>
<path d="M50.2973 37.8376L25.8926 31.5312H124.107L99.7021 37.8376H50.2973Z" fill="#C7C7C7"/>
<path d="M58.0366 37.8376L41.0723 31.5312H108.929L91.9651 37.8376H58.0366Z" fill="#D6D6D6"/>
<path d="M68.1546 37.8358L61.0117 31.6797H88.6903L81.8451 37.8358H68.1546Z" fill="#E5E5E5"/>
<path d="M42.8574 37.8359H44.0479V50.1482H42.8574V37.8359Z" fill="#7F7F7F"/>
<path d="M50.2969 37.8359H51.785V50.1482H50.2969V37.8359Z" fill="#7F7F7F"/>
<path d="M58.0352 37.8359H59.5233V50.1482H58.0352V37.8359Z" fill="#7F7F7F"/>
<path d="M65.7734 37.8359H67.2615V50.1482H65.7734V37.8359Z" fill="#7F7F7F"/>
<path d="M73.5117 37.8359H74.9998V50.1482H73.5117V37.8359Z" fill="#7F7F7F"/>
<path d="M80.9531 37.8359H82.4412V50.1482H80.9531V37.8359Z" fill="#7F7F7F"/>
<path d="M88.6914 37.8359H90.1795V50.1482H88.6914V37.8359Z" fill="#7F7F7F"/>
<path d="M96.4277 37.8359H97.9158V50.1482H96.4277V37.8359Z" fill="#7F7F7F"/>
<path d="M104.166 37.8359H105.356V50.1482H104.166V37.8359Z" fill="#7F7F7F"/>
<path d="M107.143 37.8359H110.119V50.1482H107.143V37.8359Z" fill="#E5E5E5"/>
<path d="M99.4043 37.8359H102.38V50.1482H99.4043V37.8359Z" fill="#E5E5E5"/>
<path d="M91.666 37.8359H94.9398V50.1482H91.666V37.8359Z" fill="#E5E5E5"/>
<path d="M84.2266 37.8359H87.2028V50.1482H84.2266V37.8359Z" fill="#E5E5E5"/>
<path d="M76.4883 37.8359H79.4645V50.1482H76.4883V37.8359Z" fill="#E5E5E5"/>
<path d="M68.75 37.8359H71.7262V50.1482H68.75V37.8359Z" fill="#E5E5E5"/>
<path d="M61.0117 37.8359H64.2855V50.1482H61.0117V37.8359Z" fill="#E5E5E5"/>
<path d="M53.2734 37.8359H56.5472V50.1482H53.2734V37.8359Z" fill="#E5E5E5"/>
<path d="M45.834 37.8359H48.8102V50.1482H45.834V37.8359Z" fill="#E5E5E5"/>
<path d="M38.0957 37.8359H41.0719V50.1482H38.0957V37.8359Z" fill="#E5E5E5"/>
<path d="M110.416 37.8359H111.904V50.1482H110.416V37.8359Z" fill="#B2B2B2"/>
<path d="M102.678 37.8359H104.166V50.1482H102.678V37.8359Z" fill="#B2B2B2"/>
<path d="M94.9414 37.8359H96.4295V50.1482H94.9414V37.8359Z" fill="#B2B2B2"/>
<path d="M87.2031 37.8359H88.6912V50.1482H87.2031V37.8359Z" fill="#B2B2B2"/>
<path d="M79.4648 37.8359H80.9529V50.1482H79.4648V37.8359Z" fill="#B2B2B2"/>
<path d="M72.0234 37.8359H73.5115V50.1482H72.0234V37.8359Z" fill="#B2B2B2"/>
<path d="M64.2852 37.8359H65.7733V50.1482H64.2852V37.8359Z" fill="#B2B2B2"/>
<path d="M56.5469 37.8359H58.035V50.1482H56.5469V37.8359Z" fill="#B2B2B2"/>
<path d="M48.8086 37.8359H50.2967V50.1482H48.8086V37.8359Z" fill="#B2B2B2"/>
<path d="M41.3691 37.8359H42.8572V50.1482H41.3691V37.8359Z" fill="#B2B2B2"/>
<path d="M38.0962 149.248V37.8371L1.19141 31.6809V6.90616L38.0962 0.75H111.608L148.513 6.90616V31.6809L111.608 37.8371V149.248H38.0962Z" stroke="black" stroke-width="0.422789"/>
<path d="M7.44141 6.90625H142.263" stroke="#B2B2B2" stroke-width="0.422789"/>
<path d="M7.44141 31.6797H142.263" stroke="#B2B2B2" stroke-width="0.422789"/>
</svg>
