<svg width="150" height="150" viewBox="0 0 150 150" fill="none" xmlns="http://www.w3.org/2000/svg">
<g clip-path="url(#clip0_2122_162963)">
<path d="M150 10.6641L144.931 11.7151L134.793 12.616L120.968 13.0665L103.917 13.6671L85.0231 13.9674H65.2074L45.8526 13.6671L28.8019 13.0665L14.977 12.616L5.29959 11.7151L0.230469 10.6641" stroke="#CC9900" stroke-width="0.372004"/>
<path d="M150 7.35938L144.931 8.26028L134.793 8.86088L120.968 9.46148L103.917 10.2122L85.0231 10.3624H65.2074L46.3134 10.2122L28.8019 9.46148L14.977 8.86088L5.29959 8.26028L0.230469 7.35938" stroke="#CC9900" stroke-width="0.372004"/>
<path d="M150 3.90625L144.931 4.657L134.793 5.5579L120.968 6.30865L103.917 6.90925H85.0231H65.2074H46.3134L28.8019 6.30865L14.977 5.5579L5.29959 4.657L0.230469 3.90625" stroke="#CC9900" stroke-width="0.372004"/>
<path d="M112.672 6.45312V13.5102" stroke="#CC9900" stroke-width="0.372004"/>
<path d="M37.5566 6.45312V13.5102" stroke="#CC9900" stroke-width="0.372004"/>
<path d="M0 13.964L0.230415 3.003L5.29954 2.1021L14.977 1.05105L28.8018 0.600601L45.8525 0.15015L65.2074 0H85.023L103.917 0.15015L120.968 0.600601L134.793 1.05105L144.931 2.1021L150 3.003V13.964" stroke="#FFCC00" stroke-width="0.372004"/>
<path d="M0 6.45613L4.83871 5.55523L14.977 4.65433L28.8018 4.05373L45.8525 3.45312H65.2074H84.5622H103.917L120.968 4.05373L134.793 4.65433L144.931 5.55523L150 6.45613" stroke="#FFCC00" stroke-width="0.372004"/>
<path d="M0 9.7591L4.83871 8.8582L14.977 8.2576L28.8018 7.80715L45.8525 7.0564L65.2074 6.90625H84.5622L103.917 7.0564L120.968 7.80715L134.793 8.2576L144.931 8.8582L150 9.7591" stroke="#FFCC00" stroke-width="0.372004"/>
<path d="M117.742 0.601562V11.1121" stroke="#FFCC00" stroke-width="0.372004"/>
<path d="M32.0273 0.601562V11.1121" stroke="#FFCC00" stroke-width="0.372004"/>
<path d="M74.8848 0V10.3604" stroke="#FFCC00" stroke-width="0.372004"/>
<path d="M117.742 66.2152V146.846L114.977 147.747L108.986 148.798L101.152 149.248L91.4747 149.699L80.4147 149.999H69.3548L58.2949 149.699L48.6175 149.248L40.7834 148.798L34.7926 147.747L32.0276 146.846V66.2152L14.977 65.014L4.83871 64.1131L0 63.2122V13.5125L4.83871 12.6116L14.977 11.7107L28.8018 11.1101L45.8525 10.6597L65.2074 10.3594H84.5622L103.917 10.6597L120.968 11.1101L134.793 11.7107L144.47 12.6116L150 13.5125V63.2122L144.931 64.1131L134.793 65.014L117.742 66.2152Z" fill="#E5CB98"/>
<path d="M115.899 66.2152V146.846L113.134 147.747L107.604 148.347L99.7704 149.098L90.5538 149.699L80.4156 149.999H69.8165L59.2174 149.699L50.0008 149.098L42.1667 148.347L37.0976 147.747L34.3326 146.846V66.2152L17.7427 64.7137L8.52616 64.1131L3.45703 63.2122L3.91786 13.5125L8.52616 12.6116L18.2036 11.7107L31.1068 11.1101L47.2358 10.6597L65.669 10.3594H84.563L102.535 10.6597L118.664 11.1101L132.028 11.7107L141.245 12.6116L146.314 13.5125V63.2122L141.245 64.1131L132.028 64.7137L115.899 66.2152Z" fill="#E8CE9E"/>
<path d="M113.594 66.2152V146.846L110.829 147.747L105.76 148.347L98.8476 149.098L90.0919 149.699L79.9536 149.999H69.8154L60.138 149.699L51.3822 149.098L44.0089 148.347L38.9398 147.747L36.1748 146.846V66.2152L20.9675 64.7137L12.2117 64.1131L7.14258 63.2122V13.5125L12.2117 12.6116L20.9675 11.7107L33.4099 11.1101L49.0781 10.6597L66.1288 10.3594H84.1011L101.152 10.6597L116.359 11.1101L129.262 11.7107L138.018 12.6116L142.626 13.5125V63.2122L138.018 64.1131L129.262 64.7137L113.594 66.2152Z" fill="#E8D1A1"/>
<path d="M111.752 66.2152V146.846L108.987 147.747L104.378 148.347L97.466 149.098L89.1711 149.699L79.9545 149.999H70.2771L61.0605 149.699L52.7656 149.098L45.8531 148.347L40.784 147.747L38.4798 146.846V66.2152L23.7333 64.7137L15.4384 64.1131L10.8301 63.2122V13.5125L15.4384 12.6116L23.7333 11.7107L35.7149 11.1101L50.4614 10.6597L66.5904 10.3594H83.1803L99.7702 10.6597L114.056 11.1101L126.037 11.7107L134.793 12.6116L138.941 13.5125V63.2122L134.793 64.1131L126.037 64.7137L111.752 66.2152Z" fill="#EBD4A6"/>
<path d="M109.447 66.2152V146.846L107.142 147.747L102.534 148.347L96.0824 149.098L88.2483 149.699L79.4926 149.999H70.276L61.5202 149.699L53.6861 149.098L47.2345 148.347L42.6262 147.747L40.3221 146.846V66.2152L26.958 64.7137L18.6631 64.1131L14.5156 63.2122V13.5125L18.6631 12.6116L26.958 11.7107L38.0179 11.1101L51.8428 10.6597L67.0502 10.3594H82.7184L98.3866 10.6597L112.211 11.1101L123.271 11.7107L131.105 12.6116L135.253 13.5125V63.2122L131.105 64.1131L123.271 64.7137L109.447 66.2152Z" fill="#EBD4A9"/>
<path d="M107.604 66.2152V146.846L105.3 147.747L100.692 148.347L94.7008 149.098L87.3275 149.699L79.4934 149.999H70.7377L62.4428 149.699L55.0695 149.098L49.0787 148.347L44.9312 147.747L42.6271 146.846V66.2152L29.7239 64.7137L22.3506 64.1131L18.2031 63.2122V13.5125L22.3506 12.6116L29.7239 11.7107L40.3229 11.1101L53.2262 10.6597L67.5119 10.3594H82.2584L97.005 10.6597L109.908 11.1101L120.046 11.7107L127.881 12.6116L131.567 13.5125V63.2122L127.881 64.1131L120.507 64.7137L107.604 66.2152Z" fill="#EDD9AD"/>
<path d="M105.299 66.2152V146.846L103.455 147.747L99.308 148.347L93.3172 149.098L86.8656 149.699L79.0315 149.999H70.7366L63.3633 149.699L56.4509 149.098L50.9209 148.347L46.7735 147.747L44.4693 146.846V66.2152L32.4878 64.7137L25.5753 64.1131L21.8887 63.2122V13.5125L25.5753 12.6116L32.4878 11.7107L42.626 11.1101L54.6076 10.6597L67.9716 10.3594H81.7965L95.6214 10.6597L107.603 11.1101L117.28 11.7107L124.193 12.6116L127.879 13.5125V63.2122L124.193 64.1131L117.28 64.7137L105.299 66.2152Z" fill="#EDD9B0"/>
<path d="M102.996 66.2152V146.846L101.152 147.747L97.4656 148.347L92.3964 149.098L85.9448 149.699L78.5716 149.999H71.1983L64.2858 149.699L57.8342 149.098L52.3043 148.347L48.6176 147.747L46.7743 146.846V66.2152L35.2536 64.7137L28.802 64.1131L25.5762 63.2122V11.7107L28.802 11.2603L35.7144 11.1101H44.4702L55.9909 10.6597L68.4333 10.3594H81.3365L94.2398 10.6597L105.3 11.1101H114.516L120.968 11.2603L124.194 11.7107V63.2122L120.968 64.1131L114.516 64.7137L102.996 66.2152Z" fill="#F0DCB5"/>
<path d="M101.151 66.2152V146.846L99.3078 147.747L96.082 148.347L91.0129 149.098L85.0221 149.699L78.5705 149.999H71.658L64.7456 149.699L59.2156 149.098L54.1465 148.347L50.4599 147.747L49.0774 146.846V66.2152L38.4783 64.7137L32.4875 64.1131L29.2617 63.2122V11.2603L38.4783 11.1101L46.7732 10.6597H57.3723L68.8931 10.3594H80.8746L92.3954 10.6597H102.994L111.289 11.1101L120.506 11.2603V63.2122L117.741 64.1131L111.289 64.7137L101.151 66.2152Z" fill="#F0DEB8"/>
<path d="M98.8478 66.2152V146.846L97.4653 147.747L94.2395 148.347L89.6312 149.098L84.1013 149.699L78.1105 149.999H71.6589L65.6681 149.699L60.1382 149.098L55.9907 148.347L52.7649 147.747L50.9216 146.846V66.2152L41.2441 64.7137L35.7142 64.1131L32.9492 63.2122V11.2603L41.2441 11.1101H49.0783L58.7557 10.6597L69.3547 10.3594H80.4147L91.0137 10.6597L100.691 11.1101H108.525L116.82 11.2603V63.2122L114.055 64.1131L108.525 64.7137L98.8478 66.2152Z" fill="#F2E0BC"/>
<path d="M97.0054 66.2152V146.846L95.6229 147.747L92.3971 148.347L88.2496 149.098L83.6413 149.699L78.1114 149.999H72.1206L66.5906 149.699L61.5215 149.098L57.374 148.347L54.6091 147.747L53.2266 146.846V66.2152L44.4708 64.7137L39.4017 64.1131L36.6367 63.2122V11.1101H44.4708L51.3833 10.6597H60.139L69.8164 10.3594H79.9547L89.6321 10.6597H98.3879L105.761 11.1101H113.134V63.2122L110.83 64.1131L105.761 64.7137L97.0054 66.2152Z" fill="#F2E0BC"/>
<path d="M94.7001 66.2152V146.846L93.3177 147.747L91.0135 148.347L87.3269 149.098L82.7186 149.699L77.6495 149.999H72.1195L67.5112 149.699L62.9029 149.098L59.2163 148.347L56.4513 147.747L55.0688 146.846V66.2152L47.2347 64.7137L42.6264 64.1131L40.3223 63.2122V11.1101L47.2347 10.6597H53.6863H61.5204L70.2762 10.3594H79.4928L88.2485 10.6597H96.5435H102.534L109.447 11.1101V63.2122L107.143 64.1131L102.995 64.7137L94.7001 66.2152Z" fill="#F5E3C2"/>
<path d="M92.8577 66.2152V146.846L91.4752 147.747L89.1711 148.347L85.9453 149.098L81.7978 149.699L77.1895 149.999H72.5812L67.9729 149.699L64.2863 149.098L60.5996 148.347L58.2955 147.747L57.3738 146.846V66.2152L50.0005 64.7137L45.8531 64.1131L44.0098 63.2122V10.6597H55.9913H62.9038L70.7379 10.3594H79.0328L86.8669 10.6597H94.2402H106.222V63.2122L103.918 64.1131L99.7701 64.7137L92.8577 66.2152Z" fill="#F5E6C5"/>
<path d="M90.5525 66.2152V146.846L89.6308 147.747L87.3266 148.347L84.5617 149.098L80.875 149.699L77.1884 149.999H73.0409L68.8935 149.699L65.2068 149.098L62.4419 148.347L60.5985 147.747L59.2161 146.846V66.2152L53.2253 64.7137L49.5386 64.1131L47.6953 63.2122V10.6597H58.2944L71.1976 10.3594H78.5709L91.9349 10.6597H102.534V63.2122L100.691 64.1131L97.0041 64.7137L90.5525 66.2152Z" fill="#F7E8C9"/>
<path d="M88.71 66.2152V146.846L87.7883 147.747L85.945 148.347L83.18 149.098L80.4151 149.699L76.7284 149.999H73.0418L69.816 149.699L66.5902 149.098L64.286 148.347L62.4427 147.747L61.5211 146.846V66.2152L55.9911 64.7137L52.7653 64.1131L51.3828 63.2122V10.6597L60.5994 10.3594H72.1201H78.1109H89.6317L98.8483 10.6597V63.2122L97.0049 64.1131L93.7791 64.7137L88.71 66.2152Z" fill="#F7E8CC"/>
<path d="M86.4048 66.2152V146.846L85.4831 147.747L84.1006 148.347L81.7965 149.098L79.4923 149.699L76.7273 149.999H73.5015L70.7366 149.699L67.9716 149.098L65.6674 148.347L64.2849 147.747L63.3633 146.846V66.2152L58.755 64.7137L56.4508 64.1131L55.0684 63.2122V10.6597H62.4416L72.1191 10.3594H77.649L87.3264 10.6597H95.1605V63.2122L93.778 64.1131L91.0131 64.7137L86.4048 66.2152Z" fill="#FAEDD1"/>
<path d="M84.5623 66.2152V146.846L83.6407 147.747L82.719 148.347L80.8757 149.098L78.5715 149.699L76.2674 149.999H73.5024L71.1983 149.699L69.3549 149.098L67.5116 148.347L66.1291 147.747L65.6683 146.846V66.2152L61.9817 64.7137L59.6775 64.1131L58.7559 63.2122V10.3594H73.0416H77.189H91.4748V63.2122L90.0923 64.1131L88.2489 64.7137L84.5623 66.2152Z" fill="#FAEDD4"/>
<path d="M82.259 66.2152V146.846L81.7982 147.747L80.8765 148.347L79.4941 149.098L77.6507 149.699L75.8074 149.999H73.9641L72.1208 149.699L70.7383 149.098L69.3558 148.347L67.9733 147.747L67.5125 146.846V66.2152L64.7475 64.7137L62.9042 64.1131L62.4434 63.2122V10.3594H73.5033H76.7291H87.789V63.2122L86.8673 64.1131L85.024 64.7137L82.259 66.2152Z" fill="#FCEFD8"/>
<path d="M79.9538 66.2152V146.846V147.747L79.0321 148.347L78.1105 149.098L77.1888 149.699L75.8063 149.999H74.4238L73.0413 149.699L71.6589 149.098L70.7372 148.347L70.2764 147.747L69.8155 146.846V66.2152L67.9722 64.7137L66.5897 64.1131L66.1289 63.2122V10.3594H73.963H76.2672H84.1013V63.2122L83.6404 64.1131L82.2579 64.7137L79.9538 66.2152Z" fill="#FCF2DB"/>
<path d="M78.1112 66.2152V146.846L77.6504 147.747L77.1896 148.798L76.7287 149.248L76.2679 149.699L75.3463 149.999H74.4246L73.5029 149.699L73.0421 149.248L72.5813 148.798L72.1204 147.747L71.6596 146.846V66.2152L70.738 65.014L69.8163 64.1131L69.3555 63.2122V10.6597L74.4246 10.3594H75.8071L80.4154 10.6597V63.2122L79.9545 64.1131L79.0329 65.014L78.1112 66.2152Z" fill="#FFF5E0"/>
<path d="M117.742 66.2139V83.6314L32.0276 69.8175V66.2139L14.977 65.0127L4.83871 64.1118L0 63.2109H150L144.931 64.1118L134.793 65.0127L117.742 66.2139Z" fill="#CC9933"/>
<path d="M115.899 66.2139V83.3311L34.3326 69.8175V66.2139L17.7427 64.7124L8.52616 64.1118L3.45703 63.2109H146.314L141.245 64.1118L132.028 64.7124L115.899 66.2139Z" fill="#CF9F3B"/>
<path d="M113.594 66.2139V83.0308L36.1748 70.4181V66.2139L20.9675 64.7124L12.2117 64.1118L7.14258 63.2109H142.626L138.018 64.1118L129.262 64.7124L113.594 66.2139Z" fill="#CF9F3E"/>
<path d="M111.752 66.2139V82.4302L38.4798 70.7184V66.2139L23.7333 64.7124L15.4384 64.1118L10.8301 63.2109H138.941L134.793 64.1118L126.037 64.7124L111.752 66.2139Z" fill="#D1A345"/>
<path d="M109.447 66.2139V82.1299L40.3221 71.0187V66.2139L26.958 64.7124L18.6631 64.1118L14.5156 63.2109H135.253L131.105 64.1118L123.271 64.7124L109.447 66.2139Z" fill="#D1A347"/>
<path d="M107.604 66.2139V81.8296L42.6271 71.319V66.2139L29.7239 64.7124L22.3506 64.1118L18.2031 63.2109H131.567L127.881 64.1118L120.507 64.7124L107.604 66.2139Z" fill="#D4A94F"/>
<path d="M105.299 66.2139V81.5293L44.4693 71.6193V66.2139L32.4878 64.7124L25.5753 64.1118L21.8887 63.2109H127.879L124.193 64.1118L117.28 64.7124L105.299 66.2139Z" fill="#D4A952"/>
<path d="M102.996 66.2139V81.229L46.7743 71.9196V66.2139L35.2536 64.7124L28.802 64.1118L25.5762 63.2109H124.194L120.968 64.1118L114.516 64.7124L102.996 66.2139Z" fill="#D6AD59"/>
<path d="M101.151 66.2139V80.9287L49.0774 72.2199V66.2139L38.4783 64.7124L32.4875 64.1118L29.2617 63.2109H120.506L117.741 64.1118L111.289 64.7124L101.151 66.2139Z" fill="#D6AD5E"/>
<path d="M98.8478 66.2139V80.6284L50.9216 72.8205V66.2139L41.2441 64.7124L35.7142 64.1118L32.9492 63.2109H116.82L114.055 64.1118L108.525 64.7124L98.8478 66.2139Z" fill="#D9B364"/>
<path d="M97.0054 66.2139V80.0278L53.2266 73.1208V66.2139L44.4708 64.7124L39.4017 64.1118L36.6367 63.2109H113.134L110.83 64.1118L105.761 64.7124L97.0054 66.2139Z" fill="#D9B369"/>
<path d="M94.7001 66.2139V79.7275L55.0688 73.4211V66.2139L47.2347 64.7124L42.6264 64.1118L40.3223 63.2109H109.447L107.143 64.1118L102.995 64.7124L94.7001 66.2139Z" fill="#DBB76D"/>
<path d="M92.8577 66.2139V79.4272L57.3738 73.7214V66.2139L50.0005 64.7124L45.8531 64.1118L44.0098 63.2109H106.222L103.918 64.1118L99.7701 64.7124L92.8577 66.2139Z" fill="#DBB772"/>
<path d="M90.5525 66.2139V79.1269L59.2161 74.0217V66.2139L53.2253 64.7124L49.5386 64.1118L47.6953 63.2109H102.534L100.691 64.1118L97.0041 64.7124L90.5525 66.2139Z" fill="#DEBD7B"/>
<path d="M88.71 66.2139V78.8266L61.5211 74.322V66.2139L55.9911 64.7124L52.7653 64.1118L51.3828 63.2109H98.8483L97.0049 64.1118L93.7791 64.7124L88.71 66.2139Z" fill="#DEBD7D"/>
<path d="M86.4048 66.2139V78.5263L63.3633 74.6223V66.2139L58.755 64.7124L56.4508 64.1118L55.0684 63.2109H95.1605L93.778 64.1118L91.0131 64.7124L86.4048 66.2139Z" fill="#E0C184"/>
<path d="M84.5623 66.2139V78.226L65.6683 75.2229V66.2139L61.9817 64.7124L59.6775 64.1118L58.7559 63.2109H91.4748L90.0923 64.1118L88.2489 64.7124L84.5623 66.2139Z" fill="#E0C187"/>
<path d="M82.259 66.2139V77.6254L67.5125 75.5232V66.2139L64.7475 64.7124L62.9042 64.1118L62.4434 63.2109H87.789L86.8673 64.1118L85.024 64.7124L82.259 66.2139Z" fill="#E3C78F"/>
<path d="M79.9538 66.2139V77.3251L69.8155 75.8236V66.2139L67.9722 64.7124L66.5897 64.1118L66.1289 63.2109H84.1013L83.6404 64.1118L82.2579 64.7124L79.9538 66.2139Z" fill="#E3C791"/>
<path d="M78.1112 66.2139V77.0248L71.6596 76.1239V66.2139L70.738 65.0127L69.8163 64.1118L69.3555 63.2109H80.4154L79.9545 64.1118L79.0329 65.0127L78.1112 66.2139Z" fill="#E5CB98"/>
<path d="M117.742 66.2152V146.846L114.977 147.747L108.986 148.798L101.152 149.248L91.4747 149.699L80.4147 149.999H69.3548L58.2949 149.699L48.6175 149.248L40.7834 148.798L34.7926 147.747L32.0276 146.846V66.2152L14.977 65.014L4.83871 64.1131L0 63.2122V13.5125L4.83871 12.6116L14.977 11.7107L28.8018 11.1101L45.8525 10.6597L65.2074 10.3594H84.5622L103.917 10.6597L120.968 11.1101L134.793 11.7107L144.47 12.6116L150 13.5125V63.2122L144.931 64.1131L134.793 65.014L117.742 66.2152Z" stroke="#996600" stroke-width="0.372004"/>
<path d="M32.0273 66.2188H117.742" stroke="#996600" stroke-width="0.372004"/>
</g>
<defs>
<clipPath id="clip0_2122_162963">
<rect width="150" height="150" fill="white"/>
</clipPath>
</defs>
</svg>
