<svg width="150" height="150" viewBox="0 0 150 150" fill="none" xmlns="http://www.w3.org/2000/svg">
<g clip-path="url(#clip0_2122_163309)">
<path d="M150 119.715V29.5703H0V119.715V121.157L0.3003 122.599L0.750751 124.041L1.5015 125.484L2.25225 126.926L3.3033 128.368L4.5045 129.811L5.85586 131.253L7.35736 132.695L9.00901 134.138L10.8108 135.58L12.7628 136.301L14.8649 137.743L17.1171 138.465L19.5195 139.907L21.9219 140.628L24.4745 142.07L27.3273 142.791L30.1802 143.513L33.033 144.955L36.036 145.676L39.1892 146.397L42.4925 147.118H45.7958L49.2492 147.84L52.7027 148.561H56.1562L59.7598 149.282H63.5135H67.2673L71.021 150.003H74.9249H78.8288L82.5826 149.282H86.3363H90.0901L93.6937 148.561H97.1471L100.601 147.84L104.054 147.118H107.357L110.661 146.397L113.814 145.676L116.817 144.955L119.67 143.513L122.523 142.791L125.375 142.07L127.928 140.628L130.33 139.907L132.733 138.465L134.985 137.743L137.087 136.301L139.039 135.58L140.841 134.138L142.492 132.695L143.994 131.253L145.345 129.811L146.547 128.368L147.598 126.926L148.348 125.484L149.099 124.041L149.55 122.599L149.85 121.157L150 119.715Z" fill="#8C8C8C" stroke="black" stroke-width="0.658123"/>
<path d="M74.9249 59.1346C116.305 59.1346 149.85 45.8969 149.85 29.5673C149.85 13.2377 116.305 0 74.9249 0C33.545 0 0 13.2377 0 29.5673C0 45.8969 33.545 59.1346 74.9249 59.1346Z" fill="#CCCCCC" stroke="black" stroke-width="0.658123"/>
<path d="M74.925 51.2055C111.578 51.2055 141.291 40.5508 141.291 27.4075C141.291 14.2641 111.578 3.60938 74.925 3.60938C38.2718 3.60938 8.55859 14.2641 8.55859 27.4075C8.55859 40.5508 38.2718 51.2055 74.925 51.2055Z" fill="#999999" stroke="black" stroke-width="0.658123"/>
<path d="M59.3086 29.5703V50.4838H90.5398V29.5703H59.3086Z" fill="#7F7F7F"/>
<path d="M74.9242 36.0589C83.5485 36.0589 90.5398 33.1531 90.5398 29.5685C90.5398 25.984 83.5485 23.0781 74.9242 23.0781C66.2999 23.0781 59.3086 25.984 59.3086 29.5685C59.3086 33.1531 66.2999 36.0589 74.9242 36.0589Z" fill="#CCCCCC" stroke="black" stroke-width="0.658123"/>
<path d="M65.3144 51.9237L87.9871 30.2891H62.4616L36.0352 47.5968H37.6868L39.3385 48.3179H40.9901L42.7919 49.0391H44.5937L46.3955 49.7602H48.1973L49.9991 50.4814H51.8009H53.7529L55.7048 51.2025H57.5066H59.4586H61.4105L63.3625 51.9237H65.3144Z" fill="#ADB2B2" stroke="black" stroke-width="0.658123"/>
<path d="M121.922 10.8203L124.174 11.5415L126.276 12.2626L128.228 12.9838L130.03 14.4261L131.832 15.1472L133.333 16.5895L134.835 17.3107L136.186 18.753L137.387 19.4742L138.438 20.9165L139.339 21.6376L140.09 23.0799L140.54 23.8011L140.991 25.2434L141.291 26.6857V27.4069V28.8492L140.991 30.2915L140.54 31.0126L139.94 32.4549L139.189 33.8972L138.288 34.6184L137.237 36.0607L136.036 37.503L134.835 38.2242L133.333 38.9453L131.681 40.3876L130.03 41.1088L128.078 42.5511L126.126 43.2722L124.024 43.9934L121.772 44.7145L119.519 45.4357L117.117 46.878L114.564 47.5992H112.012L109.309 48.3203L106.456 49.0415L103.603 49.7626L100.751 50.4838H97.7476L94.5944 51.2049H91.4412L88.2881 51.9261H84.9848H81.6815H78.3782H74.9247H73.2731H71.6214H69.9698H68.4683H66.8166H65.165H63.5133H62.0118L60.3602 51.2049H58.7085H57.207H55.5554L54.0539 50.4838H52.5524H51.0509H49.5494L48.0479 49.7626H46.5464H45.0449L43.6935 49.0415H42.192L40.8406 48.3203H39.3391L37.9878 47.5992H36.6364L35.2851 46.878H34.0839L32.7325 46.1569H31.5313L30.3301 45.4357H29.1289L27.9277 44.7145" stroke="white" stroke-width="0.658123"/>
</g>
<defs>
<clipPath id="clip0_2122_163309">
<rect width="150" height="150" fill="white"/>
</clipPath>
</defs>
</svg>
