<svg width="150" height="150" viewBox="0 0 150 150" fill="none" xmlns="http://www.w3.org/2000/svg">
<g clip-path="url(#clip0_2122_166518)">
<path d="M126.726 33.2422H115.615L111.711 62.1611H123.122L126.726 33.2422Z" fill="#7F7F7F" stroke="black" stroke-width="0.402895"/>
<path d="M119.219 5.6742L122.222 0.539062L127.027 32.1607L123.723 38.1066L119.219 5.6742Z" fill="#0000E0" stroke="black" stroke-width="0.402895"/>
<path d="M56.7559 6.48649H119.218L122.522 0H60.0592L56.7559 6.48649Z" fill="#0000E0" stroke="black" stroke-width="0.402895"/>
<path d="M145.645 50L148.648 52.1622L149.999 58.1081L148.648 63.2432L145.645 65.6757L142.492 63.2432L141.141 58.1081L142.492 52.1622L145.645 50Z" fill="#7F7F7F" stroke="black" stroke-width="0.402895"/>
<path d="M1.50195 56.4865H143.094L146.697 50H5.85631L1.50195 56.4865Z" fill="#7F7F7F" stroke="black" stroke-width="0.402895"/>
<path d="M6.45703 71.625H16.9675V150.003H6.45703V71.625Z" fill="#F0F0F0" stroke="black" stroke-width="0.402895"/>
<path d="M19.5193 67.0234L16.9668 71.618V149.996L19.5193 145.132V67.0234Z" fill="#B2B2B2" stroke="black" stroke-width="0.402895"/>
<path d="M130.33 71.625H140.69V150.003H130.33V71.625Z" fill="#F0F0F0" stroke="black" stroke-width="0.402895"/>
<path d="M143.094 67.5703L140.691 71.6244V150.003L143.094 145.678V67.5703Z" fill="#B2B2B2" stroke="black" stroke-width="0.402895"/>
<path d="M3.90487 54.5938H143.995L146.247 56.4856L147.298 61.0802V65.1343L146.247 69.9992L143.995 71.6208H3.90487L1.50246 69.9992L0.601562 65.1343V61.0802L1.50246 56.4856L3.90487 54.5938Z" fill="#F0F0F0" stroke="black" stroke-width="0.402895"/>
<path d="M56.7572 5.13281H119.22L123.724 38.1058L119.22 71.0788H56.7572L51.502 38.1058L56.7572 5.13281Z" fill="#7F7FFF" stroke="black" stroke-width="0.402895"/>
<path d="M68.4681 18.1094H107.057L109.759 28.1094L107.057 38.1094H68.4681L65.6152 28.1094L68.4681 18.1094Z" fill="#F0F0F0" stroke="black" stroke-width="0.402895"/>
<path d="M4.2042 55.1328L7.35736 57.5652L8.70871 62.7004L7.35736 68.6463L4.2042 71.0788L1.2012 68.6463L0 62.7004L1.2012 57.5652L4.2042 55.1328Z" fill="#7F7F7F" stroke="black" stroke-width="0.402895"/>
<path d="M143.093 54.5938L146.246 57.0262L147.597 62.1613L146.246 68.1073L143.093 70.5397L140.09 68.1073L138.889 62.1613L140.09 57.0262L143.093 54.5938Z" fill="#7F7F7F" stroke="black" stroke-width="0.402895"/>
<path d="M4.20439 60L5.55574 60.5405L6.15634 62.7027L5.55574 65.1351L4.20439 66.4865L2.85303 65.1351L2.55273 62.7027L2.85303 60.5405L4.20439 60Z" fill="#F0F0F0" stroke="black" stroke-width="0.402895"/>
<path d="M143.093 59.1875L144.444 59.9983L145.045 62.1605L144.444 64.5929L143.093 65.674L141.741 64.5929L141.141 62.1605L141.741 59.9983L143.093 59.1875Z" fill="#F0F0F0" stroke="black" stroke-width="0.402895"/>
<path d="M71.7715 25.1328H97.297" stroke="black" stroke-width="0.402895"/>
<path d="M75.375 30.5391H104.204" stroke="black" stroke-width="0.402895"/>
</g>
<defs>
<clipPath id="clip0_2122_166518">
<rect width="150" height="150" fill="white"/>
</clipPath>
</defs>
</svg>
