<svg width="150" height="150" viewBox="0 0 150 150" fill="none" xmlns="http://www.w3.org/2000/svg">
<g clip-path="url(#clip0_2122_167540)">
<path d="M149.85 89.3672H126.877V93.9233H149.85V89.3672Z" fill="#BFBF00"/>
<path d="M149.85 89.3672H126.877V90.0681H149.85V89.3672Z" fill="#7F7F00"/>
<path d="M149.85 93.2266H126.877V93.9275H149.85V93.2266Z" fill="#7F7F00"/>
<path d="M149.85 55.7266H126.877V60.9836H149.85V55.7266Z" fill="#BFBF00"/>
<path d="M149.85 55.7266H126.877V56.4275H149.85V55.7266Z" fill="#7F7F00"/>
<path d="M149.85 59.5781H126.877V60.98H149.85V59.5781Z" fill="#7F7F00"/>
<path d="M149.85 55.7266H126.877V60.9836H149.85V55.7266Z" stroke="black" stroke-width="0.458793"/>
<path d="M149.85 89.3672H126.877V94.6242H149.85V89.3672Z" stroke="black" stroke-width="0.458793"/>
<path d="M0 55.7266H23.2733V60.9836H0V55.7266Z" stroke="black" stroke-width="0.458793"/>
<path d="M0 89.3672H23.2733V94.6242H0V89.3672Z" stroke="black" stroke-width="0.458793"/>
<path d="M126.277 62.7344H122.373V66.94H126.277V62.7344Z" fill="white"/>
<path d="M142.643 52.9219H145.796V64.1368H142.643V52.9219Z" fill="#F0F0F0"/>
<path d="M142.643 86.5625H145.796V96.7261H142.643V86.5625Z" fill="#F0F0F0"/>
<path d="M142.643 86.5627H145.796V64.1328H142.643V86.5627Z" fill="white"/>
<path d="M142.643 60.2812H145.796V64.1364H142.643V60.2812Z" fill="#B2B2B2"/>
<path d="M142.643 93.9219H145.796V96.7256H142.643V93.9219Z" fill="#B2B2B2"/>
<path d="M142.643 70.0908H145.796V64.1328H142.643V70.0908Z" fill="#BFBF00"/>
<path d="M142.643 52.9219H145.796V56.4265H142.643V52.9219Z" fill="#E0E0E0"/>
<path d="M142.643 86.5625H145.796V90.0672H142.643V86.5625Z" fill="#E0E0E0"/>
<path d="M142.643 86.5618H145.796V78.8516H142.643V86.5618Z" fill="#7F7F00"/>
<path d="M142.643 52.9219H145.796V64.1368H142.643V52.9219Z" stroke="black" stroke-width="0.458793"/>
<path d="M142.643 86.5625H145.796V96.7261H142.643V86.5625Z" stroke="black" stroke-width="0.458793"/>
<path d="M142.643 86.5627H145.796V64.1328H142.643V86.5627Z" fill="#999999" stroke="black" stroke-width="0.458793"/>
<path d="M57.658 147.899C75.2382 147.899 89.4898 114.948 89.4898 74.3013C89.4898 33.6541 75.2382 0.703125 57.658 0.703125C40.0778 0.703125 25.8262 33.6541 25.8262 74.3013C25.8262 114.948 40.0778 147.899 57.658 147.899Z" fill="#333333" stroke="black" stroke-width="0.458793"/>
<path d="M109.459 120.565C120.322 120.565 129.128 100.009 129.128 74.6534C129.128 49.2973 120.322 28.7422 109.459 28.7422C98.5955 28.7422 89.7891 49.2973 89.7891 74.6534C89.7891 100.009 98.5955 120.565 109.459 120.565Z" fill="#333333" stroke="black" stroke-width="0.458793"/>
<path d="M11.4121 105.844H34.6854V111.101H11.4121V105.844Z" fill="#BFBF00"/>
<path d="M11.4121 105.844H34.6854V106.545H11.4121V105.844Z" fill="#7F7F00"/>
<path d="M11.4121 109.695H34.6854V111.097H11.4121V109.695Z" fill="#7F7F00"/>
<path d="M11.4121 105.844H34.6854V111.101H11.4121V105.844Z" stroke="black" stroke-width="0.458793"/>
<path d="M18.7684 102.688H15.6152V113.902H18.7684V102.688Z" fill="#F0F0F0"/>
<path d="M18.7684 110.398H15.6152V113.903H18.7684V110.398Z" fill="#B2B2B2"/>
<path d="M18.7684 102.688H15.6152V106.543H18.7684V102.688Z" fill="#E0E0E0"/>
<path d="M18.7684 102.688H15.6152V113.902H18.7684V102.688Z" stroke="black" stroke-width="0.458793"/>
<path d="M8.55937 64.1328H8.85967L9.46027 65.5347L7.95877 85.5113L7.20802 87.2637L6.90772 86.5627L6.60742 85.5113L7.95877 64.8337L8.55937 64.1328Z" fill="#E0E0E0" stroke="black" stroke-width="0.458793"/>
<path d="M11.4109 64.1328H11.7112L12.462 65.5347L10.8103 85.5113L10.2097 87.2637L9.90943 86.5627L9.45898 85.5113L10.8103 64.8337L11.4109 64.1328Z" fill="#E0E0E0" stroke="black" stroke-width="0.458793"/>
<path d="M14.2647 64.1328H14.565L15.3157 65.5347L13.6641 85.5113L13.0635 87.2637L12.7632 86.5627L12.4629 85.5113L13.6641 64.8337L14.2647 64.1328Z" fill="#E0E0E0" stroke="black" stroke-width="0.458793"/>
<path d="M17.2664 64.1328H17.5667L18.1673 65.5347L16.5157 85.5113L15.9151 87.2637L15.6148 86.5627L15.3145 85.5113L16.5157 64.8337L17.2664 64.1328Z" fill="#E0E0E0" stroke="black" stroke-width="0.458793"/>
<path d="M20.1199 64.1328H20.4202L21.0208 65.5347L19.5193 85.5113L18.7686 87.2637L18.4683 86.5627L18.168 85.5113L19.5193 64.8337L20.1199 64.1328Z" fill="#E0E0E0" stroke="black" stroke-width="0.458793"/>
<path d="M22.9734 64.1328H23.2737L23.8743 65.5347L22.2227 85.5113L21.6221 87.2637L21.3218 86.5627L21.0215 85.5113L22.2227 64.8337L22.9734 64.1328Z" fill="#E0E0E0" stroke="black" stroke-width="0.458793"/>
<path d="M28.678 64.1328H28.9783L29.7291 65.5347L28.0774 85.5113L27.4768 87.2637L27.1765 86.5627L26.4258 85.5113L28.0774 64.8337L28.678 64.1328Z" fill="#E0E0E0" stroke="black" stroke-width="0.458793"/>
<path fill-rule="evenodd" clip-rule="evenodd" d="M26.1258 36.4486H22.9727V112.5H26.1258V118.458H34.0838V131.075H70.8706L79.5793 116.355L85.285 103.738L86.6363 96.729V65.5374L84.6844 58.8785L80.1799 49.7664L75.9757 12.6168L75.0748 0H68.0177L65.7654 11.215L30.6303 32.5935H26.1258V36.4486ZM27.1769 104.439V41.0047H28.9787V104.439H27.1769ZM79.279 108.294H69.6694V57.4766H78.9787L83.333 72.1963V92.5234L79.279 108.294Z" fill="#E5E5E5"/>
<path d="M26.1258 36.4486H22.9727V112.5H26.1258V118.458H34.0838V131.075H70.8706L79.5793 116.355L85.285 103.738L86.6363 96.729V65.5374L84.6844 58.8785L80.1799 49.7664L75.9757 12.6168L75.0748 0H68.0177L65.7654 11.215L30.6303 32.5935H26.1258V36.4486Z" stroke="black" stroke-width="0.458793"/>
<path d="M27.1777 104.442V41.0078H28.9795V104.442H27.1777Z" stroke="black" stroke-width="0.458793"/>
<path d="M79.2795 108.294H69.6699V57.4766H78.9792L83.3336 72.1962V92.5233L79.2795 108.294Z" stroke="black" stroke-width="0.458793"/>
<path d="M95.7949 23.1308L103.453 37.1495V60.2804L102.251 76.0514L103.152 85.514L107.356 91.8224V126.168L102.552 137.033H123.723L131.381 112.5L136.786 92.5234V37.8505L114.714 7.35981L112.161 0H95.7949V23.1308Z" fill="#E5E5E5" stroke="black" stroke-width="0.458793"/>
<path d="M26.127 111.797H79.8807L77.3282 117.755H26.127V111.797Z" fill="#7F7F7F"/>
<path d="M26.127 111.796H79.8807V108.992H26.127V111.796Z" fill="white" stroke="black" stroke-width="0.458793"/>
<path d="M57.5082 90.772C61.4057 90.772 64.5653 83.3973 64.5653 74.3001C64.5653 65.2029 61.4057 57.8281 57.5082 57.8281C53.6107 57.8281 50.4512 65.2029 50.4512 74.3001C50.4512 83.3973 53.6107 90.772 57.5082 90.772Z" fill="#CCCCCC" stroke="black" stroke-width="0.458793"/>
<path d="M22.9727 56.4219H27.1769V60.9779H22.9727V56.4219Z" fill="white"/>
<path d="M22.9727 98.4844H27.1769V112.503H22.9727V98.4844Z" fill="#7F7F7F"/>
<path d="M22.9727 36.4453H27.1769V49.7631H22.9727V36.4453Z" fill="#7F7F7F"/>
<path d="M22.9727 36.4453H27.1769V112.497H22.9727V36.4453Z" stroke="black" stroke-width="0.458793"/>
<path d="M0 55.7266H22.973V60.9836H0V55.7266Z" fill="#BFBF00"/>
<path d="M0 89.3672H22.973V93.9233H0V89.3672Z" fill="#BFBF00"/>
<path d="M0 55.7266H22.973V56.4275H0V55.7266Z" fill="#999999"/>
<path d="M0 89.3672H22.973V90.0681H0V89.3672Z" fill="#7F7F00"/>
<path d="M0 59.5781H22.973V60.98H0V59.5781Z" fill="#7F7F00"/>
<path d="M0 93.2266H22.973V93.9275H0V93.2266Z" fill="#7F7F00"/>
<path fill-rule="evenodd" clip-rule="evenodd" d="M77.0267 50.467L32.282 51.1679V40.3034L68.9186 16.8221L70.5703 7.35952H72.5222L77.0267 50.467ZM77.9276 52.9203H31.5312V37.8502L68.6183 14.7193L70.27 4.90625H72.8225L77.9276 52.9203Z" fill="#7F7F7F"/>
<path d="M77.9276 52.9203H31.5312V37.8502L68.6183 14.7193L70.27 4.90625H72.8225L77.9276 52.9203Z" stroke="black" stroke-width="0.458793"/>
<path d="M7.20784 52.9219H4.05469V64.1368H7.20784V52.9219Z" fill="#F0F0F0"/>
<path d="M7.20784 86.5625H4.05469V96.7261H7.20784V86.5625Z" fill="#F0F0F0"/>
<path d="M7.20784 86.5627H4.05469V64.1328H7.20784V86.5627Z" fill="white"/>
<path d="M7.20784 60.2812H4.05469V64.1364H7.20784V60.2812Z" fill="#B2B2B2"/>
<path d="M7.20784 93.9219H4.05469V96.7256H7.20784V93.9219Z" fill="#B2B2B2"/>
<path d="M7.20784 70.0908H4.05469V64.1328H7.20784V70.0908Z" fill="#BFBF00"/>
<path d="M7.20784 52.9219H4.05469V56.4265H7.20784V52.9219Z" fill="#E0E0E0"/>
<path d="M7.20784 86.5625H4.05469V90.0672H7.20784V86.5625Z" fill="#E0E0E0"/>
<path d="M7.20784 86.5618H4.05469V78.8516H7.20784V86.5618Z" fill="#7F7F00"/>
<path d="M7.20784 52.9219H4.05469V64.1368H7.20784V52.9219Z" stroke="black" stroke-width="0.458793"/>
<path d="M7.20784 86.5625H4.05469V96.7261H7.20784V86.5625Z" stroke="black" stroke-width="0.458793"/>
<path d="M7.20784 86.5627H4.05469V64.1328H7.20784V86.5627Z" fill="#999999" stroke="black" stroke-width="0.458793"/>
<path d="M103.454 134.932L107.358 126.171V91.825L103.154 85.5166L102.253 76.054L103.454 60.2829V37.1521L95.4961 22.082L99.0997 17.5259L104.205 14.0212L109.61 13.3203L114.715 14.0212L119.82 17.5259L124.325 23.8343L128.229 31.1941L131.382 40.3063L133.935 50.4698L135.586 61.6848L135.886 74.6521L135.586 87.2689L133.935 98.4839L131.382 109.699L128.229 117.76L124.325 126.171L119.82 131.077L114.715 134.932L109.61 136.334L104.205 134.932H103.454Z" stroke="black" stroke-width="0.458793"/>
<path d="M109.61 38.1996C111.517 38.1996 113.063 34.5907 113.063 30.1389C113.063 25.687 111.517 22.0781 109.61 22.0781C107.702 22.0781 106.156 25.687 106.156 30.1389C106.156 34.5907 107.702 38.1996 109.61 38.1996Z" fill="#999999" stroke="black" stroke-width="0.458793"/>
<path d="M107.357 111.8L107.658 111.099L109.61 110.398L111.562 111.8L112.463 114.604L113.213 118.459L112.463 123.015L110.961 126.169L109.009 126.87L107.357 125.469V111.8Z" fill="#999999"/>
<path d="M125.676 104.791C127.666 104.791 129.279 101.025 129.279 96.38C129.279 91.7346 127.666 87.9688 125.676 87.9688C123.686 87.9688 122.072 91.7346 122.072 96.38C122.072 101.025 123.686 104.791 125.676 104.791Z" fill="#999999"/>
<path d="M125.676 60.6271C127.666 60.6271 129.279 56.8613 129.279 52.2159C129.279 47.5705 127.666 43.8047 125.676 43.8047C123.686 43.8047 122.072 47.5705 122.072 52.2159C122.072 56.8613 123.686 60.6271 125.676 60.6271Z" fill="#999999"/>
<path d="M107.357 111.8L107.658 111.099L109.61 110.398L111.562 111.8L112.463 114.604L113.213 118.459L112.463 123.015L110.961 126.169L109.009 126.87L107.357 125.469V111.8Z" stroke="black" stroke-width="0.458793"/>
<path d="M125.676 104.791C127.666 104.791 129.279 101.025 129.279 96.38C129.279 91.7346 127.666 87.9688 125.676 87.9688C123.686 87.9688 122.072 91.7346 122.072 96.38C122.072 101.025 123.686 104.791 125.676 104.791Z" stroke="black" stroke-width="0.458793"/>
<path d="M125.676 60.6271C127.666 60.6271 129.279 56.8613 129.279 52.2159C129.279 47.5705 127.666 43.8047 125.676 43.8047C123.686 43.8047 122.072 47.5705 122.072 52.2159C122.072 56.8613 123.686 60.6271 125.676 60.6271Z" stroke="black" stroke-width="0.458793"/>
<path d="M109.61 72.8984L109.91 73.5994L110.21 74.6508L109.91 75.3517L109.61 76.7536L109.009 75.3517L108.709 74.6508L109.009 73.5994L109.61 72.8984Z" fill="#BFBF00" stroke="black" stroke-width="0.458793"/>
<path d="M109.61 62.7344L109.911 63.4353L109.61 64.1362V64.8372L109.31 64.1362L109.01 63.4353L109.31 62.7344H109.61Z" fill="#BFBF00" stroke="black" stroke-width="0.458793"/>
<path d="M113.214 66.24L113.514 66.9409L113.214 67.6419H112.763H112.463V66.9409V66.24L112.763 65.5391L113.214 66.24Z" fill="#BFBF00" stroke="black" stroke-width="0.458793"/>
<path d="M114.715 74.653V75.3539L114.415 76.0548L114.115 75.3539L113.814 74.653L114.115 73.6016H114.415H114.715V74.653Z" fill="#BFBF00" stroke="black" stroke-width="0.458793"/>
<path d="M113.214 83.4097H112.763H112.463V82.7087V82.0078H112.763H113.214L113.514 82.7087L113.214 83.4097Z" fill="#BFBF00" stroke="black" stroke-width="0.458793"/>
<path d="M109.61 84.8125L109.911 85.5134L109.61 86.5648V87.2658L109.31 86.5648L109.01 85.5134L109.31 84.8125H109.61Z" fill="#BFBF00" stroke="black" stroke-width="0.458793"/>
<path d="M106.456 82.0078V82.7087V83.4097H106.156H105.855V82.7087V82.0078H106.156H106.456Z" fill="#BFBF00" stroke="black" stroke-width="0.458793"/>
<path d="M105.106 74.653V75.3539L104.806 76.0548L104.505 75.3539L104.205 74.653L104.505 73.6016H104.806H105.106V74.653Z" fill="#BFBF00" stroke="black" stroke-width="0.458793"/>
<path d="M106.456 67.6419H106.156H105.855V66.9409V66.24L106.156 65.5391L106.456 66.24V66.9409V67.6419Z" fill="#BFBF00" stroke="black" stroke-width="0.458793"/>
<path d="M1.20117 128.273L2.40237 131.778H147.748L148.949 128.273H1.20117Z" fill="#999999" stroke="black" stroke-width="0.458793"/>
<path d="M2.40234 131.773L8.8588 146.844H140.991L147.748 131.773H2.40234Z" fill="#E5E5E5"/>
<path d="M2.40234 131.773L4.054 135.629H145.796L147.748 131.773H2.40234Z" fill="#B2B2B2"/>
<path d="M9.1582 146.844L10.5096 149.998H139.639L140.99 146.844H9.1582Z" fill="#B2B2B2" stroke="black" stroke-width="0.458793"/>
<path d="M2.40234 131.773L8.8588 146.844H140.991L147.748 131.773H2.40234Z" stroke="black" stroke-width="0.458793"/>
<path d="M109.459 88.6702C112.776 88.6702 115.465 82.3938 115.465 74.6515C115.465 66.9092 112.776 60.6328 109.459 60.6328C106.142 60.6328 103.453 66.9092 103.453 74.6515C103.453 82.3938 106.142 88.6702 109.459 88.6702Z" stroke="black" stroke-width="0.458793"/>
</g>
<defs>
<clipPath id="clip0_2122_167540">
<rect width="150" height="150" fill="white"/>
</clipPath>
</defs>
</svg>
