<svg width="150" height="150" viewBox="0 0 150 150" fill="none" xmlns="http://www.w3.org/2000/svg">
<path d="M133.033 144.578C137.262 144.578 140.69 136.325 140.69 126.145C140.69 115.964 137.262 107.711 133.033 107.711C128.803 107.711 125.375 115.964 125.375 126.145C125.375 136.325 128.803 144.578 133.033 144.578Z" fill="#7F7F59" stroke="black" stroke-width="0.465923"/>
<path d="M132.433 140.963C136.082 140.963 139.039 133.843 139.039 125.06C139.039 116.277 136.082 109.156 132.433 109.156C128.784 109.156 125.826 116.277 125.826 125.06C125.826 133.843 128.784 140.963 132.433 140.963Z" fill="#99997A"/>
<path d="M131.681 136.266C134.666 136.266 137.086 130.441 137.086 123.254C137.086 116.068 134.666 110.242 131.681 110.242C128.695 110.242 126.275 116.068 126.275 123.254C126.275 130.441 128.695 136.266 131.681 136.266Z" fill="#B2B29B"/>
<path d="M118.77 148.552V27.4676H120.872V24.9375H123.124V148.552H118.77Z" fill="#597F7F" stroke="black" stroke-width="0.465923"/>
<path d="M85.2852 148.556V96.1461H106.606V43.375H111.111V58.9172H114.414V148.556H85.2852Z" fill="#596D8C" stroke="black" stroke-width="0.465923"/>
<path d="M72.8223 148.558V96.1481L74.3238 90.7264V85.3047H78.2277V88.1963H75.525V90.7264L77.1766 96.1481V117.112H81.531V148.558H72.8223Z" fill="#7F7F59" stroke="black" stroke-width="0.465923"/>
<path d="M63.9632 119.639V37.9518H65.6148V32.8916H62.9121V148.554H61.7109V30H66.6659V37.9518H68.3175V119.639H63.9632Z" fill="#B27F00" stroke="black" stroke-width="0.465923"/>
<path d="M50.9004 125.056V85.2973L53.0025 69.7552V53.8516H57.3568V69.7552L59.6091 85.2973V125.056H50.9004Z" fill="#4C4C16" stroke="black" stroke-width="0.465923"/>
<path d="M78.2285 117.105H80.4808V11.5625H78.2285V117.105Z" fill="#4C4C16" stroke="black" stroke-width="0.465923"/>
<path d="M83.6328 148.556V11.5679H85.8851V14.098H86.9361V1.08594H88.1373V16.9896H85.8851V148.556H83.6328Z" fill="#4C4C16" stroke="black" stroke-width="0.465923"/>
<path d="M20.1211 148.558V96.1484H22.3733V148.558H20.1211Z" fill="#7A9999" stroke="black" stroke-width="0.465923"/>
<path d="M31.6816 148.558V85.3047H34.3843V148.558H31.6816Z" fill="#7F7F59" stroke="black" stroke-width="0.465923"/>
<path d="M22.373 148.556V85.3031L23.4241 84.2188H25.6764L26.7274 85.3031V148.556H22.373Z" fill="#BDCCCC" stroke="black" stroke-width="0.465923"/>
<path d="M33.334 148.553V69.7583L34.385 68.3125H36.6373L37.6883 69.7583V148.553H33.334Z" fill="#B2B29B" stroke="black" stroke-width="0.465923"/>
<path d="M39.9395 148.553H42.0416V22.0469H39.9395V148.553Z" fill="#263A59" stroke="black" stroke-width="0.465923"/>
<path d="M68.3184 53.8516H70.5706V119.635H68.3184V53.8516Z" fill="#996600" stroke="black" stroke-width="0.465923"/>
<path d="M81.5312 133.016H85.285V143.498H81.5312V133.016Z" fill="#333333" stroke="black" stroke-width="0.465923"/>
<path d="M95.7949 1.08594H97.897V96.1462H95.7949V1.08594Z" fill="#263A59"/>
<path d="M0.451172 148.558V133.015L11.4121 131.57V129.04L18.0187 127.594H24.6253L31.0818 129.04V131.57L39.9407 133.015V148.558H0.451172Z" fill="#386666" stroke="black" stroke-width="0.465923"/>
<path d="M11.4121 131.562V148.55" stroke="black" stroke-width="0.465923"/>
<path d="M31.082 131.562V148.55" stroke="black" stroke-width="0.465923"/>
<path d="M42.043 148.556V127.592L46.3973 125.062H59.6105L63.9649 127.592V119.641H72.8237V148.556H42.043Z" fill="#405473" stroke="black" stroke-width="0.465923"/>
<path d="M106.607 96.1484L114.415 101.209" stroke="black" stroke-width="0.465923"/>
<path d="M112.162 58.9159V37.952H109.459V43.3737H108.258V35.4219H113.213V58.9159H112.162Z" fill="#263A59" stroke="black" stroke-width="0.465923"/>
<path d="M136.186 138.07H137.387V148.552H136.186V138.07Z" fill="#4C4C16" stroke="black" stroke-width="0.465923"/>
<path d="M128.078 138.07H129.129V148.552H128.078V138.07Z" fill="#4C4C16" stroke="black" stroke-width="0.465923"/>
<path d="M142.792 144.94C146.441 144.94 149.399 137.82 149.399 129.036C149.399 120.253 146.441 113.133 142.792 113.133C139.143 113.133 136.186 120.253 136.186 129.036C136.186 137.82 139.143 144.94 142.792 144.94Z" fill="#B2B29B" stroke="black" stroke-width="0.465923"/>
<path d="M120.871 144.576C125.681 144.576 129.58 135.19 129.58 123.612C129.58 112.034 125.681 102.648 120.871 102.648C116.061 102.648 112.162 112.034 112.162 123.612C112.162 135.19 116.061 144.576 120.871 144.576Z" fill="#B2B29B" stroke="black" stroke-width="0.465923"/>
<path d="M142.342 141.689C145.494 141.689 148.048 135.539 148.048 127.954C148.048 120.368 145.494 114.219 142.342 114.219C139.191 114.219 136.637 120.368 136.637 127.954C136.637 135.539 139.191 141.689 142.342 141.689Z" fill="#CCCCBD"/>
<path d="M120.421 140.961C124.651 140.961 128.079 132.708 128.079 122.527C128.079 112.347 124.651 104.094 120.421 104.094C116.192 104.094 112.764 112.347 112.764 122.527C112.764 132.708 116.192 140.961 120.421 140.961Z" fill="#CCCCBD"/>
<path d="M141.743 137.714C144.313 137.714 146.397 132.698 146.397 126.51C146.397 120.321 144.313 115.305 141.743 115.305C139.172 115.305 137.088 120.321 137.088 126.51C137.088 132.698 139.172 137.714 141.743 137.714Z" fill="#E5E5DD"/>
<path d="M119.519 135.541C123.002 135.541 125.826 128.744 125.826 120.36C125.826 111.976 123.002 105.18 119.519 105.18C116.036 105.18 113.213 111.976 113.213 120.36C113.213 128.744 116.036 135.541 119.519 135.541Z" fill="#E5E5DD"/>
<path d="M146.096 138.07H147.147V148.552H146.096V138.07Z" fill="#7F7F59" stroke="black" stroke-width="0.465923"/>
<path d="M138.438 138.07H139.489V148.552H138.438V138.07Z" fill="#7F7F59" stroke="black" stroke-width="0.465923"/>
<path d="M125.375 136.984H126.426V148.551H125.375V136.984Z" fill="#7F7F59" stroke="black" stroke-width="0.465923"/>
<path d="M115.465 136.984H116.516V148.551H115.465V136.984Z" fill="#7F7F59" stroke="black" stroke-width="0.465923"/>
<path d="M101.201 53.8516H103.453V96.1407H101.201V53.8516Z" fill="#263A59"/>
<path d="M86.9375 102.648H106.157V104.094H86.9375V102.648Z" fill="#D9A600"/>
<path d="M86.9375 109.156H94.5952V110.602H86.9375V109.156Z" fill="#D9A600"/>
<path d="M91.8926 123.617H106.157V125.063H91.8926V123.617Z" fill="#D9A600"/>
<path d="M65.0156 122.172H71.6222" stroke="white" stroke-width="0.465923"/>
<path d="M71.6222 125.062H65.0156" stroke="white" stroke-width="0.465923"/>
<path d="M44.7441 144.938H69.5189" stroke="white" stroke-width="0.465923"/>
<path d="M44.7441 142.047H69.5189" stroke="white" stroke-width="0.465923"/>
<path d="M28.98 144.938H20.1211" stroke="#FFCC00" stroke-width="0.465923"/>
<path d="M102.252 53.8516H102.402V96.1407H102.252V53.8516Z" fill="white" stroke="white" stroke-width="0.465923"/>
<path d="M96.6973 1.08594H96.9976V96.1462H96.6973V1.08594Z" fill="white" stroke="white" stroke-width="0.465923"/>
<path d="M40.9902 23.4922V147.468" stroke="white" stroke-width="0.465923"/>
</svg>
