<svg width="150" height="150" viewBox="0 0 150 150" fill="none" xmlns="http://www.w3.org/2000/svg">
<g clip-path="url(#clip0_2122_168011)">
<path d="M29.2793 23.2949V14.4806L28.979 11.8048L28.2282 8.97167L27.027 6.6107L25.3754 4.24974L23.1231 2.67576L20.8709 1.25918L18.3183 0.314795L15.3153 0H13.8138L10.8108 0.314795L8.25826 0.944386L6.00601 2.36097L4.05405 4.24974L2.25225 6.29591L0.900901 8.81427L0.3003 11.3326L0 14.4806V23.2949H9.30931V12.7492L9.60961 10.703L10.8108 8.97167L12.4625 8.02728L14.4144 7.71249H15.1652L16.967 8.02728L18.6186 9.44386L19.6697 11.1752L19.97 12.7492V23.2949H29.2793Z" fill="#E5E5E5"/>
<path d="M69.5195 23.2949V14.4806L69.2192 11.8048L68.3183 8.97167L66.967 6.6107L65.4655 4.24974L63.5135 2.67576L61.2613 1.25918L58.2583 0.314795L55.7057 0H54.054L51.2012 0.314795L48.6486 0.944386L46.3964 2.36097L44.1441 4.24974L42.4925 6.29591L41.2913 8.81427L40.2402 11.3326V14.4806V23.2949H49.5495V12.7492L49.8498 10.703L50.9009 8.97167L52.5525 8.02728L54.3543 7.71249H55.1051L57.0571 8.02728L58.7087 9.44386L59.9099 11.1752L60.2102 12.7492V23.2949H69.5195Z" fill="#E5E5E5"/>
<path d="M109.609 23.2949V14.4806V11.8048L108.558 8.97167L107.357 6.6107L105.705 4.24974L103.453 2.67576L101.201 1.25918L98.6484 0.314795L95.6454 0H94.1439L91.5913 0.314795L88.5883 0.944386L86.3361 2.36097L84.3841 4.24974L82.8826 6.29591L81.5313 8.81427L80.6304 11.3326L80.3301 14.4806V23.2949H89.6394V12.7492L89.9397 10.703L91.1409 8.97167L92.7925 8.02728L94.7445 7.71249H95.3451L97.297 8.02728L98.9487 9.44386L99.9997 11.1752L100.15 12.7492V23.2949H109.609Z" fill="#E5E5E5"/>
<path d="M150 23.2949V14.4806L149.549 11.8048L148.648 8.97167L147.297 6.6107L145.796 4.24974L143.844 2.67576L141.441 1.25918L138.588 0.314795L136.036 0H134.384L131.531 0.314795L128.979 0.944386L126.726 2.36097L124.474 4.24974L122.823 6.29591L121.621 8.81427L120.57 11.3326V14.4806V23.2949H129.88V12.7492L130.18 10.703L131.231 8.97167L132.883 8.02728L134.684 7.71249H135.435L137.387 8.02728L139.039 9.44386L140.24 11.1752L140.54 12.7492V23.2949H150Z" fill="#E5E5E5"/>
<path d="M49.5503 119.305V128.119L49.25 130.795L48.3491 133.47L46.9977 136.146L45.3461 138.192L43.5443 140.239L40.8416 141.655L38.289 142.285L35.7365 142.6H33.7845L31.232 142.285L28.6794 141.655L25.9767 140.239L24.1749 138.665L22.5233 136.146L21.1719 133.785L20.271 131.11L19.9707 128.119V119.305H29.28V129.85L29.8806 131.739L30.9317 133.47L32.4332 134.572L34.3851 135.202H34.9857L37.0878 134.572L38.5893 133.156L39.4902 131.424L40.241 129.85V119.305H49.5503Z" fill="#E5E5E5"/>
<path d="M89.6404 119.305V128.119L89.3401 130.795L88.5893 133.47L87.3881 136.146L85.4362 138.192L83.4842 140.239L81.232 141.655L78.6794 142.285L75.8266 142.6H74.0248L71.1719 142.285L68.6193 141.655L66.3671 140.239L64.1148 138.665L62.4632 136.146L61.262 133.785L60.5112 131.11L60.2109 128.119V119.305H69.5202V129.85L69.9707 131.739L70.8716 133.47L72.5232 134.572L74.7755 135.202H75.0758L77.3281 134.572L78.9797 133.156L79.8806 131.424L80.3311 129.85V119.305H89.6404Z" fill="#E5E5E5"/>
<path d="M129.88 119.305V128.119L129.58 130.795L128.679 133.47L127.328 136.146L125.676 138.192L123.874 140.239L121.171 141.655L118.619 142.285L116.066 142.6H114.114L111.562 142.285L109.009 141.655L106.307 140.239L104.505 138.665L102.853 136.146L101.502 133.785L100.601 131.11L100.15 128.119V119.305H109.91L109.61 129.85L110.21 131.739L111.262 133.47L112.763 134.572L114.715 135.202H115.466L117.268 134.572L118.919 133.156L119.97 131.424L120.571 129.85V119.305H129.88Z" fill="#E5E5E5"/>
<path d="M29.2793 23.2949V14.4806L28.979 11.8048L28.2282 8.97167L27.027 6.6107L25.3754 4.24974L23.1231 2.67576L20.8709 1.25918L18.3183 0.314795L15.3153 0H13.8138L10.8108 0.314795L8.25826 0.944386L6.00601 2.36097L4.05405 4.24974L2.25225 6.29591L0.900901 8.81427L0.3003 11.3326L0 14.4806V23.2949H9.30931V12.7492L9.60961 10.703L10.8108 8.97167L12.4625 8.02728L14.4144 7.71249H15.1652L16.967 8.02728L18.6186 9.44386L19.6697 11.1752L19.97 12.7492V23.2949H29.2793Z" stroke="black" stroke-width="0.307462"/>
<path d="M69.5195 23.2949V14.4806L69.2192 11.8048L68.3183 8.97167L66.967 6.6107L65.4655 4.24974L63.5135 2.67576L61.2613 1.25918L58.2583 0.314795L55.7057 0H54.054L51.2012 0.314795L48.6486 0.944386L46.3964 2.36097L44.1441 4.24974L42.4925 6.29591L41.2913 8.81427L40.2402 11.3326V14.4806V23.2949H49.5495V12.7492L49.8498 10.703L50.9009 8.97167L52.5525 8.02728L54.3543 7.71249H55.1051L57.0571 8.02728L58.7087 9.44386L59.9099 11.1752L60.2102 12.7492V23.2949H69.5195Z" stroke="black" stroke-width="0.307462"/>
<path d="M109.609 23.2949V14.4806V11.8048L108.558 8.97167L107.357 6.6107L105.705 4.24974L103.453 2.67576L101.201 1.25918L98.6484 0.314795L95.6454 0H94.1439L91.5913 0.314795L88.5883 0.944386L86.3361 2.36097L84.3841 4.24974L82.8826 6.29591L81.5313 8.81427L80.6304 11.3326L80.3301 14.4806V23.2949H89.6394V12.7492L89.9397 10.703L91.1409 8.97167L92.7925 8.02728L94.7445 7.71249H95.3451L97.297 8.02728L98.9487 9.44386L99.9997 11.1752L100.15 12.7492V23.2949H109.609Z" stroke="black" stroke-width="0.307462"/>
<path d="M150 23.2949V14.4806L149.549 11.8048L148.648 8.97167L147.297 6.6107L145.796 4.24974L143.844 2.67576L141.441 1.25918L138.588 0.314795L136.036 0H134.384L131.531 0.314795L128.979 0.944386L126.726 2.36097L124.474 4.24974L122.823 6.29591L121.621 8.81427L120.57 11.3326V14.4806V23.2949H129.88V12.7492L130.18 10.703L131.231 8.97167L132.883 8.02728L134.684 7.71249H135.435L137.387 8.02728L139.039 9.44386L140.24 11.1752L140.54 12.7492V23.2949H150Z" stroke="black" stroke-width="0.307462"/>
<path d="M49.5503 119.305V128.119L49.25 130.795L48.3491 133.47L46.9977 136.146L45.3461 138.192L43.5443 140.239L40.8416 141.655L38.289 142.285L35.7365 142.6H33.7845L31.232 142.285L28.6794 141.655L25.9767 140.239L24.1749 138.665L22.5233 136.146L21.1719 133.785L20.271 131.11L19.9707 128.119V119.305H29.28V129.85L29.8806 131.739L30.9317 133.47L32.4332 134.572L34.3851 135.202H34.9857L37.0878 134.572L38.5893 133.156L39.4902 131.424L40.241 129.85V119.305H49.5503Z" stroke="black" stroke-width="0.307462"/>
<path d="M89.6404 119.305V128.119L89.3401 130.795L88.5893 133.47L87.3881 136.146L85.4362 138.192L83.4842 140.239L81.232 141.655L78.6794 142.285L75.8266 142.6H74.0248L71.1719 142.285L68.6193 141.655L66.3671 140.239L64.1148 138.665L62.4632 136.146L61.262 133.785L60.5112 131.11L60.2109 128.119V119.305H69.5202V129.85L69.9707 131.739L70.8716 133.47L72.5232 134.572L74.7755 135.202H75.0758L77.3281 134.572L78.9797 133.156L79.8806 131.424L80.3311 129.85V119.305H89.6404Z" stroke="black" stroke-width="0.307462"/>
<path d="M129.88 119.305V128.119L129.58 130.795L128.679 133.47L127.328 136.146L125.676 138.192L123.874 140.239L121.171 141.655L118.619 142.285L116.066 142.6H114.114L111.562 142.285L109.009 141.655L106.307 140.239L104.505 138.665L102.853 136.146L101.502 133.785L100.601 131.11L100.15 128.119V119.305H109.91L109.61 129.85L110.21 131.739L111.262 133.47L112.763 134.572L114.715 135.202H115.466L117.268 134.572L118.919 133.156L119.97 131.424L120.571 129.85V119.305H129.88Z" stroke="black" stroke-width="0.307462"/>
<path d="M0 23.6094H9.30931V150H0V23.6094Z" fill="#E5E5E5"/>
<path d="M40.2402 23.6094H49.5495V119.622H40.2402V23.6094Z" fill="#E5E5E5"/>
<path d="M80.3301 23.6094H89.6394V119.622H80.3301V23.6094Z" fill="#E5E5E5"/>
<path d="M120.57 23.6094H129.88V119.622H120.57V23.6094Z" fill="#E5E5E5"/>
<path d="M19.9707 119.304H29.28V22.9766H19.9707V119.304Z" fill="#E5E5E5"/>
<path d="M60.2109 119.304H69.5202V22.9766H60.2109V119.304Z" fill="#E5E5E5"/>
<path d="M100.15 119.304H109.91V22.9766H100.15V119.304Z" fill="#E5E5E5"/>
<path d="M140.541 149.682H150V22.9766H140.541V149.682Z" fill="#E5E5E5"/>
<path d="M148.049 149.687H150.001V23.2969H148.049V149.687Z" fill="#B2B2B2"/>
<path d="M140.541 149.687H141.292V23.2969H140.541V149.687Z" fill="#B2B2B2"/>
<path d="M127.928 23.2969H129.88V119.624H127.928V23.2969Z" fill="#B2B2B2"/>
<path d="M120.57 23.2969H121.171V119.624H120.57V23.2969Z" fill="#B2B2B2"/>
<path d="M107.658 119.309H109.91V23.2969H107.658V119.309Z" fill="#B2B2B2"/>
<path d="M100.15 119.309H101.201V23.2969H100.15V119.309Z" fill="#B2B2B2"/>
<path d="M87.6875 23.2969H89.6395V119.624H87.6875V23.2969Z" fill="#B2B2B2"/>
<path d="M80.3301 23.2969H81.231V119.624H80.3301V23.2969Z" fill="#B2B2B2"/>
<path d="M67.7168 119.309H69.5186V23.2969H67.7168V119.309Z" fill="#B2B2B2"/>
<path d="M60.2109 119.309H60.9617V23.2969H60.2109V119.309Z" fill="#B2B2B2"/>
<path d="M47.5977 23.2969H49.5496V119.624H47.5977V23.2969Z" fill="#B2B2B2"/>
<path d="M40.2402 23.2969H40.8408V119.624H40.2402V23.2969Z" fill="#B2B2B2"/>
<path d="M27.3281 119.309H29.2801V23.2969H27.3281V119.309Z" fill="#B2B2B2"/>
<path d="M19.9707 119.309H20.8716V23.2969H19.9707V119.309Z" fill="#B2B2B2"/>
<path d="M7.35742 23.2969H9.30937V150.002H7.35742V23.2969Z" fill="#B2B2B2"/>
<path d="M0 23.2969H0.900901V150.002H0V23.2969Z" fill="#B2B2B2"/>
<path d="M148.049 23.2949V12.7492L146.998 9.75866L145.046 5.66632L141.442 2.36097L139.04 1.25918L136.337 0.314795L133.484 0H134.385H136.037L138.589 0.314795L141.442 1.25918L143.845 2.67576L145.797 4.24974L147.298 6.6107L148.95 8.97167L149.55 11.8048L150.001 14.4806V23.2949H148.049Z" fill="#B2B2B2"/>
<path d="M121.922 8.34375L121.621 8.81594L120.871 11.3343L120.57 14.4823V23.2965H121.171V12.7509L121.922 8.34375Z" fill="#B2B2B2"/>
<path d="M129.88 23.2926V12.747L130.18 10.7008L131.231 8.96941L132.883 8.02503L134.684 7.71023H135.435L137.387 8.02503L139.039 9.44161L140.24 11.173L140.54 12.747V23.2926H141.291V11.3304L140.24 9.44161L138.588 7.71023L136.937 6.60845L133.784 5.66406L130.931 6.60845L128.678 9.44161L127.928 12.1174V23.2926H129.88Z" fill="#B2B2B2"/>
<path d="M107.959 23.2949V12.7492L107.058 9.75866L105.106 5.66632L101.502 2.36097L98.6493 1.25918L96.0968 0.314795L93.0938 0H94.1448H95.6463L98.6493 0.314795L101.202 1.25918L103.454 2.67576L105.706 4.24974L107.358 6.6107L108.559 8.97167L109.61 11.8048V14.4806V23.2949H107.959Z" fill="#B2B2B2"/>
<path d="M81.5313 8.34375L81.231 8.81594L80.6304 11.3343L80.3301 14.4823V23.2965H81.231V12.7509L81.5313 8.34375Z" fill="#B2B2B2"/>
<path d="M89.6395 23.2926V12.747L89.9398 10.7008L91.141 8.96941L92.7926 8.02503L94.7446 7.71023H95.3452L97.2971 8.02503L98.9488 9.44161L99.9998 11.173L100.15 12.747V23.2926H101.201V11.3304L100.15 9.44161L98.6485 7.71023L96.9968 6.60845L93.3932 5.66406L90.5404 6.60845L88.5884 9.44161L87.6875 12.1174V23.2926H89.6395Z" fill="#B2B2B2"/>
<path d="M67.7169 23.2949V12.7492L66.6659 9.75866L64.7139 5.66632L61.2605 2.36097L58.7079 1.25918L56.0052 0.314795L53.1523 0H54.0532H55.7049L58.2574 0.314795L61.2605 1.25918L63.5127 2.67576L65.4647 4.24974L66.9662 6.6107L68.3175 8.97167L69.2184 11.8048L69.5187 14.4806V23.2949H67.7169Z" fill="#B2B2B2"/>
<path d="M41.5916 8.34375L41.2913 8.81594L40.2402 11.3343V14.4823V23.2965H40.8408V12.7509L41.5916 8.34375Z" fill="#B2B2B2"/>
<path d="M49.5496 23.2926V12.747L49.8499 10.7008L50.901 8.96941L52.5526 8.02503L54.3544 7.71023H55.1052L57.0571 8.02503L58.7088 9.44161L59.91 11.173L60.2103 12.747V23.2926H60.961V11.3304L59.91 9.44161L58.2583 7.71023L56.6067 6.60845L53.4535 5.66406L50.6007 6.60845L48.3484 9.44161L47.5977 12.1174V23.2926H49.5496Z" fill="#B2B2B2"/>
<path d="M27.6285 23.2949V12.7492L26.7276 9.75866L24.7757 5.66632L21.1721 2.36097L18.3192 1.25918L15.7667 0.314795L12.7637 0H13.8147H15.3162L18.3192 0.314795L20.8718 1.25918L23.124 2.67576L25.3763 4.24974L27.0279 6.6107L28.2291 8.97167L28.9799 11.8048L29.2802 14.4806V23.2949H27.6285Z" fill="#B2B2B2"/>
<path d="M1.2012 8.34375L0.900901 8.81594L0.3003 11.3343L0 14.4823V23.2965H0.600601V12.7509L1.2012 8.34375Z" fill="#B2B2B2"/>
<path d="M9.30937 23.2926V12.747L9.60967 10.7008L10.8109 8.96941L12.4625 8.02503L14.4145 7.71023H15.1652L16.967 8.02503L18.6187 9.44161L19.6697 11.173L19.97 12.747V23.2926H20.8709V11.3304L19.97 9.44161L18.3184 7.71023L16.6667 6.60845L13.0631 5.66406L10.2103 6.60845L8.25832 9.44161L7.35742 12.1174V23.2926H9.30937Z" fill="#B2B2B2"/>
<path d="M127.928 119.305V130.165L127.027 133.156L125.075 136.933L121.622 140.239L118.619 141.655L116.367 142.285L113.514 142.6H114.114H116.066L118.619 142.285L121.171 141.655L123.874 140.239L125.676 138.192L127.327 136.146L128.679 133.47L129.58 131.11L129.88 128.119V119.305H127.928Z" fill="#B2B2B2"/>
<path d="M101.502 134.1V133.785L100.601 131.11L100.15 128.119V119.305H101.201V130.165L101.502 134.1Z" fill="#B2B2B2"/>
<path d="M109.91 119.305L109.61 129.85L110.211 131.739L111.262 133.47L112.763 134.572L114.715 135.202H115.466L117.268 134.572L118.919 133.156L119.971 131.424L120.571 129.85V119.305H121.172V131.11L120.271 133.47L118.619 135.202L117.118 136.146L113.814 136.933L110.511 135.831L108.559 133.47L107.658 130.48V119.305H109.91Z" fill="#B2B2B2"/>
<path d="M87.9879 119.305V130.165L87.087 133.156L85.1351 136.933L81.2312 140.239L78.6786 141.655L75.9759 142.285L73.123 142.6H74.0239H75.8257L78.6786 142.285L81.2312 141.655L83.4834 140.239L85.7357 138.192L87.3873 136.146L88.5885 133.47L89.3393 131.11L89.6396 128.119V119.305H87.9879Z" fill="#B2B2B2"/>
<path d="M61.5623 134.1L61.262 133.785L60.5112 131.11L60.2109 128.119V119.305H60.9617V130.165L61.5623 134.1Z" fill="#B2B2B2"/>
<path d="M69.5186 119.305V129.85L69.969 131.739L70.87 133.47L72.5216 134.572L74.7739 135.202H75.0742L77.3264 134.572L78.9781 133.156L79.879 131.424L80.3294 129.85V119.305H80.93V131.11L80.3294 133.47L78.6778 135.202L76.7258 136.146L73.4225 136.933L70.5696 135.831L68.3174 133.47L67.7168 130.48V119.305H69.5186Z" fill="#B2B2B2"/>
<path d="M47.598 119.305V130.165L46.6971 133.156L44.7452 136.933L41.2917 140.239L38.2887 141.655L36.0364 142.285L33.1836 142.6H33.7842H35.7361L38.2887 142.285L40.8413 141.655L43.544 140.239L45.3458 138.192L46.9974 136.146L48.3488 133.47L49.2497 131.11L49.55 128.119V119.305H47.598Z" fill="#B2B2B2"/>
<path d="M21.1719 134.1V133.785L20.271 131.11L19.9707 128.119V119.305H20.8716V130.165L21.1719 134.1Z" fill="#B2B2B2"/>
<path d="M29.2801 119.305V129.85L29.8807 131.739L30.9317 133.47L32.4332 134.572L34.3852 135.202H34.9858L37.0879 134.572L38.5894 133.156L39.4903 131.424L40.241 129.85V119.305H40.8416V131.11L39.9407 133.47L38.2891 135.202L36.7876 136.146L33.184 136.933L30.181 135.831L28.229 133.47L27.3281 130.48V119.305H29.2801Z" fill="#B2B2B2"/>
<path d="M0 23.6094H9.30931V150H0V23.6094Z" stroke="black" stroke-width="0.307462"/>
<path d="M40.2402 23.6094H49.5495V119.622H40.2402V23.6094Z" stroke="black" stroke-width="0.307462"/>
<path d="M80.3301 23.6094H89.6394V119.622H80.3301V23.6094Z" stroke="black" stroke-width="0.307462"/>
<path d="M120.57 23.6094H129.88V119.622H120.57V23.6094Z" stroke="black" stroke-width="0.307462"/>
<path d="M19.9707 119.304H29.28V22.9766H19.9707V119.304Z" stroke="black" stroke-width="0.307462"/>
<path d="M60.2109 119.304H69.5202V22.9766H60.2109V119.304Z" stroke="black" stroke-width="0.307462"/>
<path d="M100.15 119.304H109.91V22.9766H100.15V119.304Z" stroke="black" stroke-width="0.307462"/>
<path d="M140.541 149.682H150V22.9766H140.541V149.682Z" stroke="black" stroke-width="0.307462"/>
</g>
<defs>
<clipPath id="clip0_2122_168011">
<rect width="150" height="150" fill="white"/>
</clipPath>
</defs>
</svg>
