<svg width="150" height="150" viewBox="0 0 150 150" fill="none" xmlns="http://www.w3.org/2000/svg">
<g clip-path="url(#clip0_2122_163640)">
<path d="M0.601562 8.38675L5.85682 5.59048L21.9229 2.99395L47.1481 1.39608L74.9259 0.796875L102.704 1.39608L127.929 2.99395L143.845 5.59048L149.25 8.38675V10.1844L143.845 7.38809L127.929 4.99128L102.704 3.19368L74.9259 2.79421L47.1481 3.19368L21.9229 4.99128L5.85682 7.38809L0.601562 10.1844V8.38675Z" fill="#CC9900"/>
<path d="M149.25 134.218V22.3667L149.1 21.9672L148.8 21.5678L148.349 21.1683L147.599 20.7688L146.848 20.5691L145.797 20.1696L144.746 19.7702L143.394 19.3707L141.893 19.171L140.241 18.7715L138.439 18.372L136.487 18.1723L134.385 17.9726L132.133 17.5731L129.881 17.3734L127.328 17.1736L124.776 16.7742L122.073 16.5744L119.22 16.3747L116.367 16.175L113.364 15.9752L110.211 15.7755L107.058 15.5758H103.755L100.451 15.376L96.998 15.1763H93.3944L89.9409 14.9766H86.1871H82.4334H78.6796H74.9259H71.1721H67.4184H63.6646H59.9109L56.4574 15.1763H52.8538L49.4004 15.376L46.0971 15.5758H42.7938L39.6406 15.7755L36.4874 15.9752L33.4844 16.175L30.6316 16.3747L27.7787 16.5744L25.076 16.7742L22.5235 17.1736L19.9709 17.3734L17.7187 17.5731L15.4664 17.9726L13.3643 18.1723L11.4124 18.372L9.61057 18.7715L7.95892 19.171L6.45742 19.3707L5.10607 19.7702L4.05502 20.1696L3.00396 20.5691L2.25321 20.7688L1.50246 21.1683L1.05201 21.5678L0.751713 21.9672L0.601562 22.3667V134.218L0.751713 135.017L1.05201 135.616L1.50246 136.415L2.25321 137.214L3.00396 138.013L4.05502 138.612L5.10607 139.211L6.45742 140.01L7.95892 140.609L9.61057 141.208L11.4124 141.807L13.3643 142.407L15.4664 143.006L17.7187 143.605L19.9709 144.204L22.5235 144.803L25.076 145.203L27.7787 145.602L30.6316 146.002L33.4844 146.401L36.4874 146.801L39.6406 147.2L42.7938 147.6L46.0971 147.799L49.4004 148.199L52.8538 148.399L56.4574 148.598L59.9109 148.798H63.6646L67.4184 148.998H71.1721H74.9259H78.6796H82.4334L86.1871 148.798H89.9409L93.3944 148.598L96.998 148.399L100.451 148.199L103.755 147.799L107.058 147.6L110.211 147.2L113.364 146.801L116.367 146.401L119.22 146.002L122.073 145.602L124.776 145.203L127.328 144.803L129.881 144.204L132.133 143.605L134.385 143.006L136.487 142.407L138.439 141.807L140.241 141.208L141.893 140.609L143.394 140.01L144.746 139.211L145.797 138.612L146.848 138.013L147.599 137.214L148.349 136.415L148.8 135.616L149.1 135.017L149.25 134.218Z" fill="#7F7F7F" stroke="black" stroke-width="0.346353"/>
<path d="M6.15625 138.816V22.1719L143.844 22.3716L143.694 138.816L124.024 144.808L100.751 148.004L74.925 149.003L49.2493 148.004L25.8259 144.808L6.15625 138.816Z" fill="#878787"/>
<path d="M11.7109 141.613V22.1719L138.438 22.3716L138.288 141.613L120.119 145.208L98.6479 148.004L74.9242 149.003L51.2004 148.004L29.729 145.208L11.7109 141.613Z" fill="#8F8F8F"/>
<path d="M17.1172 143.41V22.1719L132.883 22.3716L132.733 143.41L116.216 146.206L96.6968 148.004L74.925 149.003L53.3034 148.004L33.6337 146.206L17.1172 143.41Z" fill="#969696"/>
<path d="M22.6719 144.409V22.1719L127.477 22.3716L127.327 144.409L112.312 146.206L94.5938 148.004L75.0743 149.003L55.4046 148.004L37.6869 146.206L22.6719 144.409Z" fill="#9E9E9E"/>
<path d="M28.0781 145.208V22.1719L121.922 22.3716V145.208L108.408 147.205L75.0751 149.003L41.5916 147.205L28.0781 145.208Z" fill="#A6A6A6"/>
<path d="M33.6328 145.208V22.1719L116.516 22.3716L116.366 145.208L104.504 147.205L75.0743 149.003L45.4947 147.205L33.6328 145.208Z" fill="#ADADAD"/>
<path d="M39.1895 146.206V22.1719L110.961 22.3716V146.206L100.601 147.205L75.0753 149.003L49.3997 147.205L39.1895 146.206Z" fill="#B8B8B8"/>
<path d="M44.5938 147.205V22.1719L105.555 22.3716L105.405 147.205L96.6959 148.204L75.0742 149.003L53.3025 148.204L44.5938 147.205Z" fill="#BFBFBF"/>
<path d="M50.1504 147.205V22.1719L100 22.3716V147.205L75.0753 149.003L50.1504 147.205Z" fill="#C7C7C7"/>
<path d="M55.5547 148.204V22.1719L94.5937 22.3716V148.204L75.0742 149.003L55.5547 148.204Z" fill="#CFCFCF"/>
<path d="M61.1113 148.204V22.1719L89.0393 22.3716V148.204L75.0753 149.003L61.1113 148.204Z" fill="#D6D6D6"/>
<path d="M66.5156 148.204V22.1719L83.6327 22.3716V148.204L75.0742 149.003L66.5156 148.204Z" fill="#DEDEDE"/>
<path d="M72.0723 148.799V22.3672H78.0783V148.799L75.0753 148.998L72.0723 148.799Z" fill="#E5E5E5"/>
<path d="M74.9259 29.7569C115.974 29.7569 149.25 26.4482 149.25 22.3667C149.25 18.2852 115.974 14.9766 74.9259 14.9766C33.8777 14.9766 0.601562 18.2852 0.601562 22.3667C0.601562 26.4482 33.8777 29.7569 74.9259 29.7569Z" fill="#CCCCCC" stroke="black" stroke-width="0.346353"/>
<path d="M5.55469 19.573H7.05619V6.39062H5.55469V19.573Z" fill="#CC9900"/>
<path d="M15.3145 17.5764H16.9661V4.59375H15.3145V17.5764Z" fill="#CC9900"/>
<path d="M25.2246 16.7796H26.7261V3.79688H25.2246V16.7796Z" fill="#CC9900"/>
<path d="M37.3867 16.7796H38.8882V3.79688H37.3867V16.7796Z" fill="#CC9900"/>
<path d="M49.6992 15.7796H51.2007V2.79688H49.6992V15.7796Z" fill="#CC9900"/>
<path d="M62.0117 14.9793H63.5132V1.79688H62.0117V14.9793Z" fill="#CC9900"/>
<path d="M74.3242 14.9793H75.8257V1.79688H74.3242V14.9793Z" fill="#CC9900"/>
<path d="M86.4863 14.9793H88.138V1.79688H86.4863V14.9793Z" fill="#CC9900"/>
<path d="M98.6484 15.7796H100.15V2.79688H98.6484V15.7796Z" fill="#CC9900"/>
<path d="M110.961 16.7796H112.462V3.79688H110.961V16.7796Z" fill="#CC9900"/>
<path d="M123.123 16.7796H124.625V3.79688H123.123V16.7796Z" fill="#CC9900"/>
<path d="M132.883 17.5764H134.534V4.59375H132.883V17.5764Z" fill="#CC9900"/>
<path d="M142.793 19.573H144.294V6.39062H142.793V19.573Z" fill="#CC9900"/>
<path d="M74.9253 28.359C107.432 28.359 133.784 25.6763 133.784 22.367C133.784 19.0577 107.432 16.375 74.9253 16.375C42.4184 16.375 16.0664 19.0577 16.0664 22.367C16.0664 25.6763 42.4184 28.359 74.9253 28.359Z" fill="#263A59"/>
<path d="M16.0664 22.367L16.2166 21.9675L16.3667 21.7678L16.8172 21.3683L17.2676 21.1686L18.0184 20.7691L18.7691 20.5694L19.67 20.3697L20.7211 19.9702L21.9223 19.7705L23.2736 19.5707L24.625 19.1713L26.1265 18.9715L27.7781 18.7718L29.5799 18.5721L31.3817 18.3723L33.3337 18.1726L35.4358 17.9729L37.5379 17.7731L39.7901 17.5734L42.0424 17.3737H44.4448L46.9973 17.1739L49.5499 16.9742H52.1024L54.655 16.7745H57.5078L60.2106 16.5747H63.0634H66.0664L68.9193 16.375H71.9223H74.9253H77.9283H80.9313L83.7841 16.5747H86.7871H89.64L92.3427 16.7745H95.1955L97.7481 16.9742H100.301L102.853 17.1739L105.406 17.3737H107.808L110.06 17.5734L112.313 17.7731L114.415 17.9729L116.517 18.1726L118.469 18.3723L120.271 18.5721L122.072 18.7718L123.724 18.9715L125.226 19.1713L126.577 19.5707L127.928 19.7705L129.129 19.9702L130.181 20.3697L131.081 20.5694L131.832 20.7691L132.583 21.1686L133.033 21.3683L133.484 21.7678L133.634 21.9675L133.784 22.367" stroke="black" stroke-width="0.346353"/>
<path d="M147.598 22.3733H149.249V9.39062H147.598V22.3733Z" fill="#FFCC00"/>
<path d="M142.793 24.1702H144.294V11.1875H142.793V24.1702Z" fill="#FFCC00"/>
<path d="M132.883 25.9671H134.534V12.9844H132.883V25.9671Z" fill="#FFCC00"/>
<path d="M123.123 26.9671H124.625V13.9844H123.123V26.9671Z" fill="#FFCC00"/>
<path d="M110.961 27.9593H112.462V14.9766H110.961V27.9593Z" fill="#FFCC00"/>
<path d="M98.6484 28.9637H100.15V15.7812H98.6484V28.9637Z" fill="#FFCC00"/>
<path d="M86.3359 28.9637H87.9876V15.7812H86.3359V28.9637Z" fill="#FFCC00"/>
<path d="M74.1738 28.9637H75.6753V15.7812H74.1738V28.9637Z" fill="#FFCC00"/>
<path d="M61.8613 28.9637H63.513V15.7812H61.8613V28.9637Z" fill="#FFCC00"/>
<path d="M49.6992 28.9637H51.2007V15.7812H49.6992V28.9637Z" fill="#FFCC00"/>
<path d="M37.3867 27.9593H38.8882V14.9766H37.3867V27.9593Z" fill="#FFCC00"/>
<path d="M25.2246 26.9671H26.7261V13.9844H25.2246V26.9671Z" fill="#FFCC00"/>
<path d="M15.3145 25.9671H16.9661V12.9844H15.3145V25.9671Z" fill="#FFCC00"/>
<path d="M5.55469 24.1702H7.05619V11.1875H5.55469V24.1702Z" fill="#FFCC00"/>
<path d="M0.601562 22.3733H2.25321V9.39062H0.601562V22.3733Z" fill="#FFCC00"/>
<path d="M149.25 9.38796L143.995 11.9845L127.929 14.581L102.704 16.1789L74.9259 16.7781L47.1481 16.1789L21.9229 14.581L6.00697 11.9845L0.601562 9.38796V7.39062L6.00697 10.1869L21.9229 12.7834L47.1481 14.3813L74.9259 14.9805L102.704 14.3813L127.929 12.7834L143.995 10.1869L149.25 7.39062V9.38796Z" fill="#FFCC00"/>
</g>
<defs>
<clipPath id="clip0_2122_163640">
<rect width="150" height="150" fill="white"/>
</clipPath>
</defs>
</svg>
