<svg width="150" height="150" viewBox="0 0 150 150" fill="none" xmlns="http://www.w3.org/2000/svg">
<g clip-path="url(#clip0_2122_162624)">
<path d="M90.6592 150.002L86.7031 24.4766H93.2965L97.2526 150.002H90.6592Z" fill="#336666" stroke="black" stroke-width="0.444972"/>
<path d="M132.857 66.5196L93.2969 25.0781" stroke="#336666" stroke-width="0.444972"/>
<path d="M95.9336 66.5186L127.582 24.4766" stroke="#336666" stroke-width="0.444972"/>
<path d="M18.1328 66.5186L86.7042 24.4766" stroke="#336666" stroke-width="0.444972"/>
<path d="M86.7033 65.919L22.0879 25.0781" stroke="#336666" stroke-width="0.444972"/>
<path d="M136.813 107.956L95.9336 70.7188" stroke="#336666" stroke-width="0.444972"/>
<path d="M97.252 107.353L132.856 69.5156" stroke="#336666" stroke-width="0.444972"/>
<path d="M12.8574 107.956L86.7036 70.7188" stroke="#336666" stroke-width="0.444972"/>
<path d="M88.0229 106.753L18.1328 69.5156" stroke="#336666" stroke-width="0.444972"/>
<path d="M142.087 150.002L97.252 112.164" stroke="#336666" stroke-width="0.444972"/>
<path d="M97.252 150L136.812 110.961" stroke="#336666" stroke-width="0.444972"/>
<path d="M8.90039 150.002L88.0213 112.164" stroke="#336666" stroke-width="0.444972"/>
<path d="M90.6596 150L12.8574 110.961" stroke="#336666" stroke-width="0.444972"/>
<path d="M15.4941 67.1172L56.3733 68.3184L135.494 67.1172V69.5196L56.3733 71.3214L15.4941 69.5196V67.1172Z" fill="#99CCCC" stroke="black" stroke-width="0.444972"/>
<path d="M10.2207 107.961L56.3745 109.162L140.77 107.961V110.964L56.3745 112.165L10.2207 110.964V107.961Z" fill="#99CCCC" stroke="black" stroke-width="0.444972"/>
<path d="M0 150.002L15.4945 24.4766H22.0879L7.58242 150.002H0Z" fill="#99CCCC" stroke="black" stroke-width="0.444972"/>
<path d="M18.1328 24.4745V4.65465L18.4625 4.5045V4.2042L19.1218 3.9039L19.4515 3.6036L20.1108 3.45345L20.7702 3.15315L21.7592 2.85285L22.7482 2.7027L24.0669 2.55255L25.3856 2.25225L26.7042 2.1021L28.3526 1.95195L30.0009 1.65165L31.6493 1.5015L33.2976 1.35135L35.2757 1.2012L37.2537 1.05105L39.2317 0.900901L41.5394 0.750751L43.8471 0.600601H46.1548L48.4625 0.45045L50.7702 0.3003H53.4075L55.7152 0.15015H58.3526L60.99 0H63.957H66.5944H69.2317H72.1987H74.8361H77.8031H80.7702H83.7372H86.3746H89.0119L91.979 0.15015H94.6163L97.2537 0.3003H99.5614L102.199 0.45045L104.506 0.600601H106.814L109.122 0.750751L111.1 0.900901L113.078 1.05105L115.056 1.2012L117.034 1.35135L118.682 1.5015L120.331 1.65165L121.979 1.95195L123.298 2.1021L124.946 2.25225L125.935 2.55255L127.254 2.7027L128.243 2.85285L128.902 3.15315L129.891 3.45345L130.55 3.6036L130.88 3.9039L131.21 4.2042L131.539 4.5045V4.65465V24.4745V25.0751L131.21 25.5255L130.88 25.976L130.55 26.4264L129.891 26.8769L128.902 27.4775L128.243 27.9279L127.254 28.2282L125.935 28.6787L124.946 29.1291L123.298 29.5796L121.979 29.8799L120.331 30.3303L118.682 30.6306L117.034 31.0811L115.056 31.3814L113.078 31.6817L111.1 31.982L109.122 32.2823L106.814 32.4324L104.506 32.7327L102.199 33.033L99.5614 33.1832L97.2537 33.3333L94.6163 33.4835L91.979 33.6336L89.0119 33.7838L86.3746 33.9339L83.7372 34.0841H80.7702H77.8031H74.8361H72.1987H69.2317H66.5944L63.957 33.9339L60.99 33.7838L58.3526 33.6336L55.7152 33.4835L53.4075 33.3333L50.7702 33.1832L48.4625 33.033L46.1548 32.7327L43.8471 32.4324L41.5394 32.2823L39.2317 31.982L37.2537 31.6817L35.2757 31.3814L33.2976 31.0811L31.6493 30.6306L30.0009 30.3303L28.3526 29.8799L26.7042 29.5796L25.3856 29.1291L24.0669 28.6787L22.7482 28.2282L21.7592 27.9279L20.7702 27.4775L20.1108 26.8769L19.4515 26.4264L19.1218 25.976L18.4625 25.5255V25.0751L18.1328 24.4745Z" fill="#99FFFF" stroke="black" stroke-width="0.444972"/>
<path d="M118.352 4.65465V24.4745H99.8909V4.65465V4.2042L99.2315 3.6036L98.5722 3.15315L97.5832 2.7027L96.2645 2.25225L94.9458 1.95195L93.2975 1.5015L91.3195 1.2012L89.3414 0.900901L87.3634 0.600601L85.3854 0.45045L83.4074 0.3003L81.0997 0.15015L79.1217 0H76.814H78.4623H80.1107H82.0887H84.0667L85.7151 0.15015H87.6931L89.6711 0.3003H91.3195L93.2975 0.45045L94.9458 0.600601H96.9239L98.5722 0.750751L100.221 0.900901L101.869 1.05105L103.517 1.2012L105.166 1.35135L106.814 1.5015L108.133 1.65165L109.451 1.95195L110.77 2.1021L112.089 2.25225L113.078 2.55255L114.067 2.7027L115.056 2.85285L116.045 3.15315L116.704 3.45345L117.363 3.6036L117.693 3.9039L118.023 4.2042L118.352 4.5045V4.65465Z" fill="#00FFFF"/>
<path d="M18.1328 4.65465L18.4625 4.5045V4.2042L19.1218 3.9039L19.4515 3.6036L20.1108 3.45345L20.7702 3.15315L21.7592 2.85285L22.7482 2.7027L24.0669 2.55255L25.3856 2.25225L26.7042 2.1021L28.3526 1.95195L30.0009 1.65165L31.6493 1.5015L33.2976 1.35135L35.2757 1.2012L37.2537 1.05105L39.2317 0.900901L41.5394 0.750751L43.8471 0.600601H46.1548L48.4625 0.45045L50.7702 0.3003H53.4075L55.7152 0.15015H58.3526L60.99 0H63.957H66.5944H69.2317H72.1987H74.8361H73.1878H71.5394H69.8911H68.2427H66.2647L64.6163 0.15015H62.6383L60.99 0.3003H59.0119L57.3636 0.45045L55.3856 0.600601H53.7372L51.7592 0.750751L50.1108 0.900901L48.4625 1.05105L46.8141 1.2012L45.1658 1.35135L43.5174 1.5015L42.1987 1.65165L40.5504 1.95195L39.2317 2.1021L38.2427 2.25225L36.924 2.55255L35.935 2.7027L34.946 2.85285L33.957 3.15315L33.2976 3.45345L32.6383 3.6036L31.979 3.9039L31.6493 4.2042V4.5045L31.3196 4.65465V24.4745V24.6246L30.99 24.7748H30.3306L29.3416 24.9249H28.3526H27.3636H26.0449H24.7262H23.7372H22.4185H21.4295H20.4405L19.4515 24.7748H18.7922L18.4625 24.6246L18.1328 24.4745V4.65465Z" fill="#00FFFF"/>
<path d="M131.539 4.65465V4.5045L131.21 4.2042L130.88 3.9039L130.55 3.6036L129.561 3.45345L128.902 3.15315L127.913 2.85285L126.924 2.7027L125.935 2.55255L124.616 2.25225L122.968 2.1021L121.649 1.95195L120.001 1.65165L118.352 1.5015L116.374 1.35135L114.726 1.2012L112.748 1.05105L110.44 0.900901L108.462 0.750751L106.155 0.600601H103.847L101.539 0.45045L99.2315 0.3003H96.5942L93.9568 0.15015H91.3195L88.6821 0H86.0447H83.4074H80.4403H77.803H74.8359H76.4843H78.1326H80.1107H81.759H83.4074L85.3854 0.15015H87.0337L89.0118 0.3003H90.6601L92.6381 0.45045L94.2865 0.600601H96.2645L97.9129 0.750751L99.5612 0.900901L101.539 1.05105L103.188 1.2012L104.836 1.35135L106.155 1.5015L107.803 1.65165L109.122 1.95195L110.44 2.1021L111.759 2.25225L113.078 2.55255L114.067 2.7027L115.056 2.85285L115.715 3.15315L116.704 3.45345L117.363 3.6036L117.693 3.9039L118.023 4.2042L118.352 4.5045V4.65465V24.4745L118.682 24.6246L119.012 24.7748H119.671L120.33 24.9249H121.319H122.638H123.627H124.946H126.265H127.583H128.572H129.561L130.221 24.7748H130.88L131.539 24.6246V24.4745V4.65465Z" fill="#99CCCC"/>
<path d="M18.1328 24.4745V4.65465L18.4625 4.5045V4.2042L19.1218 3.9039L19.4515 3.6036L20.1108 3.45345L20.7702 3.15315L21.7592 2.85285L22.7482 2.7027L24.0669 2.55255L25.3856 2.25225L26.7042 2.1021L28.3526 1.95195L30.0009 1.65165L31.6493 1.5015L33.2976 1.35135L35.2757 1.2012L37.2537 1.05105L39.2317 0.900901L41.5394 0.750751L43.8471 0.600601H46.1548L48.4625 0.45045L50.7702 0.3003H53.4075L55.7152 0.15015H58.3526L60.99 0H63.957H66.5944H69.2317H72.1987H74.8361H77.8031H80.7702H83.7372H86.3746H89.0119L91.979 0.15015H94.6163L97.2537 0.3003H99.5614L102.199 0.45045L104.506 0.600601H106.814L109.122 0.750751L111.1 0.900901L113.078 1.05105L115.056 1.2012L117.034 1.35135L118.682 1.5015L120.331 1.65165L121.979 1.95195L123.298 2.1021L124.946 2.25225L125.935 2.55255L127.254 2.7027L128.243 2.85285L128.902 3.15315L129.891 3.45345L130.55 3.6036L130.88 3.9039L131.21 4.2042L131.539 4.5045V4.65465V24.4745V25.0751L131.21 25.5255L130.88 25.976L130.55 26.4264L129.891 26.8769L128.902 27.4775L128.243 27.9279L127.254 28.2282L125.935 28.6787L124.946 29.1291L123.298 29.5796L121.979 29.8799L120.331 30.3303L118.682 30.6306L117.034 31.0811L115.056 31.3814L113.078 31.6817L111.1 31.982L109.122 32.2823L106.814 32.4324L104.506 32.7327L102.199 33.033L99.5614 33.1832L97.2537 33.3333L94.6163 33.4835L91.979 33.6336L89.0119 33.7838L86.3746 33.9339L83.7372 34.0841H80.7702H77.8031H74.8361H72.1987H69.2317H66.5944L63.957 33.9339L60.99 33.7838L58.3526 33.6336L55.7152 33.4835L53.4075 33.3333L50.7702 33.1832L48.4625 33.033L46.1548 32.7327L43.8471 32.4324L41.5394 32.2823L39.2317 31.982L37.2537 31.6817L35.2757 31.3814L33.2976 31.0811L31.6493 30.6306L30.0009 30.3303L28.3526 29.8799L26.7042 29.5796L25.3856 29.1291L24.0669 28.6787L22.7482 28.2282L21.7592 27.9279L20.7702 27.4775L20.1108 26.8769L19.4515 26.4264L19.1218 25.976L18.4625 25.5255V25.0751L18.1328 24.4745Z" stroke="black" stroke-width="0.444972"/>
<path d="M73.5156 16.6641H120.988" stroke="#7F7F7F" stroke-width="0.444972"/>
<path d="M26.0449 4.65625H124.946" stroke="#7F7F7F" stroke-width="0.444972"/>
<path d="M97.2531 13.6637V4.65465V4.2042L96.9235 3.6036L96.2641 3.15315L95.6048 2.7027L94.6158 2.25225L93.2971 1.95195L91.9784 1.5015L90.6597 1.2012L89.0114 0.900901L87.363 0.600601L85.385 0.45045L83.407 0.3003L81.429 0.15015L79.1213 0H77.1432H74.8355H72.8575H70.5498L68.5718 0.15015L66.5938 0.3003L64.6158 0.45045L62.6377 0.600601L60.9894 0.900901L59.341 1.2012L57.6927 1.5015L56.374 1.95195L55.385 2.25225L54.396 2.7027L53.7366 3.15315L53.0773 3.6036L52.7476 4.2042L52.418 4.65465V23.2733" stroke="#7F7F7F" stroke-width="0.444972"/>
<path d="M132.856 24.4766V24.927V25.3775L132.527 25.6778L132.197 26.1282L131.538 26.4285L131.208 26.879L130.549 27.3294L129.889 27.6297L128.9 27.93L128.241 28.3805L127.252 28.6808L126.263 29.1312L124.944 29.4315L123.955 29.7318L122.637 30.1823L121.318 30.4826L119.67 30.7829L118.351 31.0832L116.703 31.3835L115.054 31.6838L113.406 31.9841L111.758 32.2844L109.78 32.4345L107.802 32.7348L105.823 32.885L103.845 33.1853L101.867 33.3354L99.5597 33.4856L97.5817 33.6357L95.274 33.7859L92.9663 34.0862H90.6586L82.7466 35.2874V150.002H68.2411V35.2874L60.329 34.0862H58.0213L55.7136 33.7859L53.4059 33.6357L51.4279 33.4856L49.1202 33.3354L47.1422 33.1853L45.1641 32.885L43.1861 32.7348L41.2081 32.4345L39.2301 32.2844L37.5817 31.9841L35.6037 31.6838L33.9554 31.3835L32.307 31.0832L30.6587 30.7829L29.34 30.4826L28.0213 30.1823L26.7026 29.7318L25.3839 29.4315L24.0652 29.1312L23.0762 28.6808L22.0872 28.3805L21.0982 27.93L20.1092 27.6297L19.4499 27.3294L18.7905 26.879L18.1312 26.4285L17.8015 26.1282L17.4718 25.6778L17.1422 25.3775V24.927L16.8125 24.4766H132.856Z" fill="#669999" stroke="black" stroke-width="0.444972"/>
<path d="M15.4941 23.875H134.175V24.4756H15.4941V23.875Z" fill="#CCCCCC" stroke="black" stroke-width="0.444972"/>
<path d="M35.2754 23.8712V21.4688H45.8248H36.5941V22.67V23.8712H35.2754Z" fill="black"/>
<path d="M76.1543 23.8712V21.4688H86.7037H77.473V22.67V23.8712H76.1543Z" fill="black"/>
<path d="M117.033 23.8712V21.4688H127.583H118.352V22.67V23.8712H117.033Z" fill="black"/>
<path d="M134.176 23.8712V21.4688H135.494V23.8712H134.176Z" fill="black"/>
<path d="M15.4941 24.4766H134.175" stroke="black" stroke-width="0.444972"/>
<path d="M61.6484 65.3174L127.583 24.4766" stroke="#00FFFF" stroke-width="0.444972"/>
<path d="M132.857 67.1192L64.2852 24.4766" stroke="#00FFFF" stroke-width="0.444972"/>
<path d="M52.4182 24.4766L19.4512 67.1192" stroke="#00FFFF" stroke-width="0.444972"/>
<path d="M19.4512 25.6719L51.0995 65.3115" stroke="#00FFFF" stroke-width="0.444972"/>
<path d="M61.6484 106.152L132.857 69.5156" stroke="#00FFFF" stroke-width="0.444972"/>
<path d="M136.813 107.954L62.9668 69.5156" stroke="#00FFFF" stroke-width="0.444972"/>
<path d="M51.0992 69.5156L12.8574 107.954" stroke="#00FFFF" stroke-width="0.444972"/>
<path d="M18.1328 69.5156L49.7812 106.753" stroke="#00FFFF" stroke-width="0.444972"/>
<path d="M61.6484 150L136.813 110.961" stroke="#00FFFF" stroke-width="0.444972"/>
<path d="M142.088 149.398L61.6484 110.359" stroke="#00FFFF" stroke-width="0.444972"/>
<path d="M49.7795 110.359L8.90039 149.999" stroke="#00FFFF" stroke-width="0.444972"/>
<path d="M12.8574 110.961L48.4618 149.399" stroke="#00FFFF" stroke-width="0.444972"/>
<path d="M142.088 150.002L127.582 24.4766H135.494L150 150.002H142.088Z" fill="#99CCCC" stroke="black" stroke-width="0.444972"/>
<path d="M15.4941 69.5167L56.3733 68.9161L135.494 69.5167V67.1143L56.3733 65.3125L15.4941 67.1143V69.5167Z" fill="#00FFFF" stroke="black" stroke-width="0.444972"/>
<path d="M10.2207 110.961L56.3745 109.76L140.77 110.961V107.958L56.3745 106.156L10.2207 107.958V110.961Z" fill="#00FFFF" stroke="black" stroke-width="0.444972"/>
<path d="M48.4609 150.002L52.417 24.4766H64.2851L60.3291 150.002H48.4609Z" fill="#99FFFF" stroke="black" stroke-width="0.444972"/>
</g>
<defs>
<clipPath id="clip0_2122_162624">
<rect width="150" height="150" fill="white"/>
</clipPath>
</defs>
</svg>
