<svg width="150" height="150" viewBox="0 0 150 150" fill="none" xmlns="http://www.w3.org/2000/svg">
<g clip-path="url(#clip0_2122_162437)">
<path d="M54.6641 38.7031H95.7719V150.003H54.6641V38.7031Z" fill="#4C4C4C"/>
<path d="M54.6641 38.7031H93.148V150.003H54.6641V38.7031Z" fill="#666666"/>
<path d="M54.6641 38.7031H87.9002V150.003H54.6641V38.7031Z" fill="#999999"/>
<path d="M54.6641 38.7031H82.6524V150.003H54.6641V38.7031Z" fill="#B2B2B2"/>
<path d="M54.6641 38.7031H77.8419V150.003H54.6641V38.7031Z" fill="#CCCCCC"/>
<path d="M54.6641 38.7031H57.288V150.003H54.6641V38.7031Z" fill="#B2B2B2"/>
<path d="M59.9121 38.7031H69.9704V150.003H59.9121V38.7031Z" fill="white"/>
<path d="M54.6641 38.7031H95.7719V150.003H54.6641V38.7031Z" stroke="black" stroke-width="0.724418"/>
<path d="M87.0263 112.5H75.2188" stroke="#666666" stroke-width="0.724418"/>
<path d="M80.0288 114.898H69.5332" stroke="#666666" stroke-width="0.724418"/>
<path d="M92.2735 120.602H78.2793" stroke="#666666" stroke-width="0.724418"/>
<path d="M69.9707 141.898H83.5276" stroke="#666666" stroke-width="0.724418"/>
<path d="M76.9688 135.898H94.0241" stroke="#666666" stroke-width="0.724418"/>
<path d="M62.9746 71.3984V149.998" stroke="#CCCCCC" stroke-width="0.724418"/>
<path d="M74.7813 69.0031C116.082 69.0031 149.563 53.8256 149.563 35.1031C149.563 16.3807 116.082 1.20312 74.7813 1.20312C33.4807 1.20312 0 16.3807 0 35.1031C0 53.8256 33.4807 69.0031 74.7813 69.0031Z" fill="#4C4C4C"/>
<path d="M74.3446 67.7969C114.679 67.7969 147.377 53.0223 147.377 34.7969C147.377 16.5715 114.679 1.79688 74.3446 1.79688C34.0101 1.79688 1.3125 16.5715 1.3125 34.7969C1.3125 53.0223 34.0101 67.7969 74.3446 67.7969Z" fill="#666666"/>
<path d="M73.0326 66.5969C112.643 66.5969 144.753 52.0909 144.753 34.1969C144.753 16.3028 112.643 1.79688 73.0326 1.79688C33.4227 1.79688 1.3125 16.3028 1.3125 34.1969C1.3125 52.0909 33.4227 66.5969 73.0326 66.5969Z" fill="#7F7F7F"/>
<path d="M71.7193 64.7984C109.88 64.7984 140.815 50.8297 140.815 33.5984C140.815 16.3672 109.88 2.39844 71.7193 2.39844C33.5585 2.39844 2.62305 16.3672 2.62305 33.5984C2.62305 50.8297 33.5585 64.7984 71.7193 64.7984Z" fill="#999999"/>
<path d="M69.5338 61.8016C105.038 61.8016 133.819 48.7731 133.819 32.7016C133.819 16.6301 105.038 3.60156 69.5338 3.60156C34.0297 3.60156 5.24805 16.6301 5.24805 32.7016C5.24805 48.7731 34.0297 61.8016 69.5338 61.8016Z" fill="#B2B2B2"/>
<path d="M67.3463 58.7969C100.194 58.7969 126.822 46.7086 126.822 31.7969C126.822 16.8852 100.194 4.79688 67.3463 4.79688C34.4991 4.79688 7.87109 16.8852 7.87109 31.7969C7.87109 46.7086 34.4991 58.7969 67.3463 58.7969Z" fill="#CCCCCC"/>
<path d="M65.1596 54.6016C94.384 54.6016 118.075 43.8564 118.075 30.6016C118.075 17.3467 94.384 6.60156 65.1596 6.60156C35.9352 6.60156 12.2441 17.3467 12.2441 30.6016C12.2441 43.8564 35.9352 54.6016 65.1596 54.6016Z" fill="#E5E5E5"/>
<path d="M74.7813 69.0031C116.082 69.0031 149.563 53.8256 149.563 35.1031C149.563 16.3807 116.082 1.20312 74.7813 1.20312C33.4807 1.20312 0 16.3807 0 35.1031C0 53.8256 33.4807 69.0031 74.7813 69.0031Z" stroke="black" stroke-width="0.724418"/>
<path d="M51.166 146.398H98.8337V148.798H51.166V146.398Z" fill="#333333"/>
<path d="M51.166 146.398H98.8337V147.598H51.166V146.398Z" fill="#7F7F7F"/>
<path d="M58.1641 84.2969H80.03" stroke="#CCCCCC" stroke-width="0.724418"/>
<path d="M64.7227 92.7031H85.2766" stroke="#CCCCCC" stroke-width="0.724418"/>
<path d="M74.7811 69.0031C103.522 69.0031 126.822 53.8256 126.822 35.1031C126.822 16.3807 103.522 1.20312 74.7811 1.20312C46.0397 1.20312 22.7402 16.3807 22.7402 35.1031C22.7402 53.8256 46.0397 69.0031 74.7811 69.0031Z" stroke="#CCCCCC" stroke-width="0.724418"/>
<path d="M75.2196 69.0031C87.0543 69.0031 96.6482 53.8256 96.6482 35.1031C96.6482 16.3807 87.0543 1.20312 75.2196 1.20312C63.3849 1.20312 53.791 16.3807 53.791 35.1031C53.791 53.8256 63.3849 69.0031 75.2196 69.0031Z" stroke="#CCCCCC" stroke-width="0.724418"/>
<path d="M11.8066 35.7031H83.0894" stroke="#CCCCCC" stroke-width="0.724418"/>
<path d="M26.6758 29.7031H97.9586" stroke="#CCCCCC" stroke-width="0.724418"/>
<path d="M20.1172 18.6016H50.7294" stroke="#CCCCCC" stroke-width="0.724418"/>
<path d="M44.1699 13.7969H115.453" stroke="#CCCCCC" stroke-width="0.724418"/>
<path d="M62.9746 41.7031H134.257" stroke="#CCCCCC" stroke-width="0.724418"/>
<path d="M26.6758 54H84.4017" stroke="#CCCCCC" stroke-width="0.724418"/>
<path d="M51.166 68.1016H98.8337V70.5016H51.166V68.1016Z" fill="#333333"/>
<path d="M51.166 68.1016H98.8337V69.3016H51.166V68.1016Z" fill="#7F7F7F"/>
<path d="M77.4043 1.8V0" stroke="black" stroke-width="0.724418"/>
<path d="M72.5957 1.8V0" stroke="black" stroke-width="0.724418"/>
<path d="M81.7793 1.8V0" stroke="black" stroke-width="0.724418"/>
<path d="M68.2207 1.8V0" stroke="black" stroke-width="0.724418"/>
<path d="M66.4727 0.296875H83.5281" stroke="black" stroke-width="0.724418"/>
<path d="M66.4727 0.898438H83.5281" stroke="black" stroke-width="0.724418"/>
</g>
<defs>
<clipPath id="clip0_2122_162437">
<rect width="150" height="150" fill="white"/>
</clipPath>
</defs>
</svg>
