<svg width="150" height="150" viewBox="0 0 150 150" fill="none" xmlns="http://www.w3.org/2000/svg">
<g clip-path="url(#clip0_2122_163185)">
<path d="M150 148.65L143.59 149.251L127.564 149.551L103.846 150.002H74.359H45.5128L21.1538 149.551L5.12821 149.251L0 148.65V6.00781H150V148.65Z" fill="#7F7F7F"/>
<path d="M131.41 149.551H127.564L103.846 150.002H74.3585H45.5124L21.1534 149.551L5.12775 149.251L3.8457 148.951V6.00781H131.41V149.551Z" fill="#949494"/>
<path d="M113.462 149.551L103.846 150.002H74.3592H45.5131L21.1541 149.551L8.97461 149.251V6.00781H113.462V149.551Z" fill="#ABABAB"/>
<path d="M96.1544 150.002H74.3595H45.5134L21.1544 149.551L14.7441 149.251V6.00781H96.1544V150.002Z" fill="#BFBFBF"/>
<path d="M78.2044 150.002H74.3583H45.5121L21.1531 149.551H19.8711V6.00781H78.2044V150.002Z" fill="#D4D4D4"/>
<path d="M58.9752 150.002H45.5136L23.7188 149.551V6.00781H58.9752V150.002Z" fill="#EBEBEB"/>
<path d="M29.4863 149.551L41.6658 150.002V6.00781H29.4863V149.551Z" fill="white"/>
<path d="M150 12.0156L143.59 12.6162L127.564 12.9165L103.846 13.2168L74.359 13.6673L45.5128 13.2168L21.1538 12.9165L5.12821 12.6162L0 12.0156" stroke="black" stroke-width="0.620484"/>
<path d="M150 19.9688L143.59 20.5694L127.564 21.17L103.846 21.6204H74.359H45.5128L21.1538 21.17L5.12821 20.5694L0 19.9688" stroke="black" stroke-width="0.620484"/>
<path d="M150 28.2266L143.59 28.8272L127.564 29.1275L103.846 29.4278H74.359H45.5128L21.1538 29.1275L5.12821 28.8272L0 28.2266" stroke="black" stroke-width="0.620484"/>
<path d="M150 36.1875L143.59 36.7881L127.564 37.0884L103.846 37.3887L74.359 37.689L45.5128 37.3887L21.1538 37.0884L5.12821 36.7881L0 36.1875" stroke="black" stroke-width="0.620484"/>
<path d="M150 44.1406L143.59 44.7412L127.564 45.3418L103.846 45.6421H74.359H45.5128L21.1538 45.3418L5.12821 44.7412L0 44.1406" stroke="black" stroke-width="0.620484"/>
<path d="M150 52.4062L143.59 52.7066L127.564 53.3072L103.846 53.6075H74.359H45.5128L21.1538 53.3072L5.12821 52.7066L0 52.4062" stroke="black" stroke-width="0.620484"/>
<path d="M150 60.3594L143.59 60.96L127.564 61.2603L103.846 61.5606H74.359H45.5128L21.1538 61.2603L5.12821 60.96L0 60.3594" stroke="black" stroke-width="0.620484"/>
<path d="M150 68.3203L143.59 68.9209L127.564 69.2212L103.846 69.5215L74.359 69.8218L45.5128 69.5215L21.1538 69.2212L5.12821 68.9209L0 68.3203" stroke="black" stroke-width="0.620484"/>
<path d="M150 76.125L143.59 76.8758L127.564 77.4764L103.846 77.7767H74.359H45.5128L21.1538 77.4764L5.12821 76.8758L0 76.125" stroke="black" stroke-width="0.620484"/>
<path d="M150 84.3828L143.59 84.8333L127.564 85.4339L103.846 85.7342H74.359H45.5128L21.1538 85.4339L5.12821 84.8333L0 84.3828" stroke="black" stroke-width="0.620484"/>
<path d="M150 92.3438L143.59 93.0945L127.564 93.3948L103.846 93.6951L74.359 93.9954L45.5128 93.6951L21.1538 93.3948L5.12821 93.0945L0 92.3438" stroke="black" stroke-width="0.620484"/>
<path d="M150 100.453L143.59 101.054L127.564 101.354L103.846 101.654L74.359 101.955L45.5128 101.654L21.1538 101.354L5.12821 101.054L0 100.453" stroke="black" stroke-width="0.620484"/>
<path d="M150 108.258L143.59 108.858L127.564 109.609L103.846 109.909H74.359H45.5128L21.1538 109.609L5.12821 108.858L0 108.258" stroke="black" stroke-width="0.620484"/>
<path d="M150 116.516L143.59 116.816L127.564 117.567L103.846 117.867H74.359H45.5128L21.1538 117.567L5.12821 116.816L0 116.516" stroke="black" stroke-width="0.620484"/>
<path d="M150 124.477L143.59 125.077L127.564 125.528L103.846 125.828L74.359 126.128L45.5128 125.828L21.1538 125.528L5.12821 125.077L0 124.477" stroke="black" stroke-width="0.620484"/>
<path d="M150 132.43L143.59 133.18L127.564 133.331L103.846 133.781L74.359 134.081L45.5128 133.781L21.1538 133.331L5.12821 133.18L0 132.43" stroke="black" stroke-width="0.620484"/>
<path d="M150 140.391L143.59 140.991L127.564 141.592L103.846 142.042H74.359H45.5128L21.1538 141.592L5.12821 140.991L0 140.391" stroke="black" stroke-width="0.620484"/>
<path d="M150 6.00793L143.59 6.60853L127.564 6.90883L103.846 7.20913L74.359 7.65958L45.5128 7.20913L21.1538 6.90883L5.12821 6.60853L0 6.00793L1.28205 4.95688L5.12821 4.05598L11.5385 3.45538L21.1538 2.70463L32.6923 2.10403L45.5128 1.80373L58.9744 1.50343L74.359 1.20312L89.1026 1.50343L103.846 1.80373L116.026 2.10403L127.564 2.70463L136.538 3.45538L143.59 4.05598L148.718 4.95688L150 6.00793Z" fill="#F0F0F0" stroke="black" stroke-width="0.620484"/>
<path d="M44.2312 7.21009C56.9763 7.21009 67.3081 6.00005 67.3081 4.50739C67.3081 3.01473 56.9763 1.80469 44.2312 1.80469C31.4862 1.80469 21.1543 3.01473 21.1543 4.50739C21.1543 6.00005 31.4862 7.21009 44.2312 7.21009Z" fill="white"/>
<path d="M70.5137 1.5L108.334 2.1006L132.693 3.75225L142.309 5.4039L141.026 6.0045L123.078 6.90541H127.565L143.591 6.6051L148.719 6.0045L147.437 4.95345L143.591 4.05255L136.539 3.45195L127.565 2.7012L116.026 2.1006L102.565 1.8003L89.1034 1.5H74.3598H70.5137Z" fill="#B2B2B2"/>
<path d="M148.718 6.00781L143.59 6.60841L127.564 6.90871L103.846 7.20901L74.359 7.65946L45.5128 7.20901L21.1538 6.90871L5.12821 6.60841L0 6.00781V148.65L5.12821 149.251L21.1538 149.551L45.5128 150.002H74.359H103.846L127.564 149.551L143.59 149.251L150 148.65V6.00781H148.718Z" stroke="black" stroke-width="0.620484"/>
<path d="M107.052 7.65625L80.1289 149.999" stroke="black" stroke-width="0.620484"/>
<path d="M48.7172 7.65625L19.8711 149.999" stroke="black" stroke-width="0.620484"/>
<path d="M148.718 76.125L133.975 149.999" stroke="black" stroke-width="0.620484"/>
<path d="M33.9753 144.896C43.18 144.896 50.6419 142.947 50.6419 140.542C50.6419 138.137 43.18 136.188 33.9753 136.188C24.7705 136.188 17.3086 138.137 17.3086 140.542C17.3086 142.947 24.7705 144.896 33.9753 144.896Z" fill="#7F7F7F" stroke="black" stroke-width="0.620484"/>
<path d="M32.6921 144.896C41.8968 144.896 49.3587 142.947 49.3587 140.542C49.3587 138.137 41.8968 136.188 32.6921 136.188C23.4873 136.188 16.0254 138.137 16.0254 140.542C16.0254 142.947 23.4873 144.896 32.6921 144.896Z" fill="#7F7FFF" stroke="black" stroke-width="0.620484"/>
<path d="M32.6916 143.841C39.7722 143.841 45.5121 142.362 45.5121 140.538C45.5121 138.713 39.7722 137.234 32.6916 137.234C25.611 137.234 19.8711 138.713 19.8711 140.538C19.8711 142.362 25.611 143.841 32.6916 143.841Z" fill="#7F7FFF" stroke="black" stroke-width="0.620484"/>
<path d="M73.0766 0.3003H47.4355V0H73.0766H98.7176V0.3003H73.0766Z" fill="#E5E5E5"/>
<path d="M73.0766 0.3003V2.1021M73.0766 0.3003H47.4355M73.0766 0.3003H98.7176M47.4355 0.3003V2.1021M47.4355 0.3003V0H73.0766H98.7176V0.3003M98.7176 0.3003V2.1021" stroke="black" stroke-width="0.620484"/>
</g>
<defs>
<clipPath id="clip0_2122_163185">
<rect width="150" height="150" fill="white"/>
</clipPath>
</defs>
</svg>
