<svg width="150" height="150" viewBox="0 0 150 150" fill="none" xmlns="http://www.w3.org/2000/svg">
<path d="M59.459 24.1709L60.3599 20.6825L62.6121 19.1875L64.7142 20.6825L65.6151 24.1709H59.459Z" fill="#BFD3F2"/>
<path d="M142.942 138.541H6.90625V24.1719H142.942V138.541Z" fill="#73878C"/>
<path d="M0.601562 148.756V10.2179L6.90787 9.96875V138.54H43.995L50.1511 128.075H99.7007L105.857 138.54H142.944V9.96875L149.25 10.2179V148.756H0.601562Z" fill="#CCCCCC" stroke="black" stroke-width="0.386848"/>
<path d="M50.1504 117.858L51.0513 114.121L53.3035 112.875L55.4056 114.121L56.4567 117.858L55.4056 121.347L53.3035 123.091L51.0513 121.347L50.1504 117.858Z" fill="#BFD3F2"/>
<path d="M71.9219 115.367L72.3723 113.623L73.4234 112.875L74.4744 113.623L74.9249 115.367L74.4744 117.111L73.4234 117.858L72.3723 117.111L71.9219 115.367Z" fill="#BFD3F2"/>
<path d="M84.2344 117.858L85.1353 114.121L87.3875 112.875L89.4896 114.121L90.3905 117.858L89.4896 121.347L87.3875 123.091L85.1353 121.347L84.2344 117.858Z" fill="#BFD3F2"/>
<path d="M78.0781 74.2495L78.5286 72.5053L79.5796 71.7578L80.7808 72.5053L81.2313 74.2495L80.7808 75.9937L79.5796 76.7412L78.5286 75.9937L78.0781 74.2495Z" fill="#BFD3F2"/>
<path d="M78.0781 102.654L78.979 98.9169L81.2313 97.4219L83.3334 98.9169L84.2343 102.654L83.3334 106.143L81.2313 107.638L78.979 106.143L78.0781 102.654Z" fill="#BFD3F2"/>
<path d="M93.3926 56.3107L94.4436 52.5731L96.5457 51.0781L98.798 52.5731L99.6989 56.3107L98.798 60.0482L96.5457 61.2941L94.4436 60.0482L93.3926 56.3107Z" fill="#BFD3F2"/>
<path d="M53.3027 38.3737L53.7532 36.6295L54.8042 35.6328L55.8553 36.6295L56.4559 38.3737L55.8553 40.1179L54.8042 40.8654L53.7532 40.1179L53.3027 38.3737Z" fill="#BFD3F2"/>
<path d="M62.6133 97.4279L63.5142 93.6903L65.6163 92.1953L67.8685 93.6903L68.7694 97.4279L67.8685 100.916L65.6163 102.411L63.5142 100.916L62.6133 97.4279Z" fill="white"/>
<path d="M90.3906 92.1943L91.2915 88.706L93.5438 87.2109L95.6459 88.706L96.5468 92.1943L95.6459 95.9319L93.5438 97.4269L91.2915 95.9319L90.3906 92.1943Z" fill="white"/>
<path d="M87.2363 40.8662L88.1372 37.3778L90.3895 35.8828L92.6417 37.3778L93.5426 40.8662L92.6417 44.6037L90.3895 46.0988L88.1372 44.6037L87.2363 40.8662Z" fill="white"/>
<path d="M74.9258 53.819L75.3762 51.8256L76.5774 51.0781L77.6285 51.8256L78.0789 53.819L77.6285 55.5632L76.5774 56.3107L75.3762 55.5632L74.9258 53.819Z" fill="white"/>
<path d="M56.3066 74.2495L56.7571 72.5053L57.9583 71.7578L59.0093 72.5053L59.4598 74.2495L59.0093 75.9937L57.9583 76.7412L56.7571 75.9937L56.3066 74.2495Z" fill="white"/>
<path d="M68.7695 35.881L69.6704 32.1435L71.9227 30.6484L74.0248 32.1435L74.9257 35.881L74.0248 39.3694L71.9227 40.8644L69.6704 39.3694L68.7695 35.881Z" fill="white"/>
<path d="M57.207 2.49219L58.7085 4.98388" stroke="#A6BAD9" stroke-width="0.386848"/>
<path d="M60.2109 4.98388L61.8626 2.49219" stroke="#A6BAD9" stroke-width="0.386848"/>
<path d="M59.459 1V3.74086" stroke="#A6BAD9" stroke-width="0.386848"/>
<path d="M56.457 6.22656H57.9585" stroke="#A6BAD9" stroke-width="0.386848"/>
<path d="M61.8626 10.2174L60.2109 7.47656" stroke="#A6BAD9" stroke-width="0.386848"/>
<path d="M58.7085 7.47656L57.207 10.2174" stroke="#A6BAD9" stroke-width="0.386848"/>
<path d="M59.459 11.4596V8.71875" stroke="#A6BAD9" stroke-width="0.386848"/>
<path d="M62.6126 6.22656H60.9609" stroke="#A6BAD9" stroke-width="0.386848"/>
<path d="M80.3301 11.2109L81.8316 13.9518" stroke="black" stroke-width="0.386848"/>
<path d="M83.4844 13.9518L84.9859 11.2109" stroke="black" stroke-width="0.386848"/>
<path d="M82.7324 9.96875V12.7096" stroke="black" stroke-width="0.386848"/>
<path d="M79.5801 15.2031H81.2317" stroke="black" stroke-width="0.386848"/>
<path d="M84.9859 18.937L83.4844 16.4453" stroke="black" stroke-width="0.386848"/>
<path d="M81.8316 16.4453L80.3301 18.937" stroke="black" stroke-width="0.386848"/>
<path d="M82.7324 20.4284V17.6875" stroke="black" stroke-width="0.386848"/>
<path d="M85.7359 15.2031H84.2344" stroke="black" stroke-width="0.386848"/>
</svg>
