<svg width="150" height="150" viewBox="0 0 150 150" fill="none" xmlns="http://www.w3.org/2000/svg">
<g clip-path="url(#clip0_2109_171700)">
<path d="M83.2888 142.944L90.8787 142.644L98.0691 142.043L104.86 141.292L111.052 140.391L116.644 139.19L122.836 137.538L127.829 135.587L132.024 132.283L132.623 130.632V50.1511H149.001V37.8388H132.623V19.2202L129.627 15.1661L124.234 12.6136L118.242 10.6616L112.849 9.46042L106.857 8.55952L100.266 7.65862L93.2755 7.20817L85.6856 6.90787H83.2888V0.601562H66.7109V6.90787L59.1211 7.05802L51.9307 7.50847L45.1397 8.25922L38.948 9.16012L33.3554 10.3613L26.9639 12.1631L22.1703 14.1151L17.9759 17.5685L17.3767 19.2202V99.7007H0.798828V112.013H17.3767V130.632L20.3727 134.535L25.5658 137.088L31.5578 138.89L36.9506 139.941L42.9426 140.992L49.5338 141.893L56.7243 142.493L64.1144 142.944H66.7109V149.25H83.2888V142.944Z" fill="#405473"/>
<path d="M83.2888 142.945L90.8787 142.644L98.0691 142.044L104.86 141.293L111.052 140.392L116.644 139.191L122.836 137.539L127.829 135.587L132.024 132.284L132.623 131.233V130.632V95.0469H17.3767V99.7015H0.798828V112.014H17.3767V130.632L20.3727 134.536L25.5658 137.089L31.5578 138.891L36.9506 139.942L42.9426 140.993L49.5338 141.894L56.7243 142.494L64.1144 142.945H66.7109V149.251H83.2888V142.945Z" fill="#8CA0BF"/>
<path d="M114.048 95.0469V139.191L74.9002 142.945L35.9521 139.191V95.0469H114.048Z" fill="#8599B8"/>
<path d="M99.6672 95.0469V140.693L74.9003 142.945L50.333 140.693V95.0469H99.6672Z" fill="#7A8EAD"/>
<path d="M85.2864 95.0469V141.443L74.9003 142.945L64.7139 141.443V95.0469H85.2864Z" fill="#7387A6"/>
<path d="M35.9521 95.0448V9.9097L74.9002 8.4082L114.048 9.9097V95.0448H35.9521Z" fill="#384C6B"/>
<path d="M50.333 95.0448V9.9097L74.9003 8.4082L99.6672 9.9097V95.0448H50.333Z" fill="#2E4261"/>
<path d="M64.7139 95.0448V9.9097L74.9003 8.4082L85.2864 9.9097V95.0448H64.7139Z" fill="#263A59"/>
<path d="M83.2891 142.942L90.879 142.642L98.0694 142.041L104.86 141.29L111.052 140.389L116.645 139.188L122.836 137.537L127.83 135.585L132.024 132.281L132.623 131.23V130.63L120.24 127.477H103.862L91.4781 130.63L70.9056 127.477H54.3277L42.1439 130.63L29.7604 127.477L17.377 130.63V131.23L21.1719 135.134L26.9642 137.537L33.3556 139.188L38.9482 140.389L45.1399 141.29L51.9309 142.041L59.1213 142.642L66.7112 142.942V149.248H83.2891V142.942Z" fill="#4C3F32"/>
<path d="M120.239 112.012L116.045 109.009L120.239 102.703L124.434 109.009L120.239 112.012Z" fill="#4C3F32"/>
<path d="M95.4732 112.012L91.4785 109.009L95.4732 102.703L99.6676 109.009L95.4732 112.012Z" fill="#4C3F32"/>
<path d="M70.9053 112.012L66.7109 109.009L70.9053 102.703L74.9 109.009L70.9053 112.012Z" fill="#4C3F32"/>
<path d="M46.1382 112.012L42.1436 109.009L46.1382 102.703L50.3326 109.009L46.1382 112.012Z" fill="#4C3F32"/>
<path d="M107.857 121.321L103.662 118.168L107.857 112.012L112.051 118.168L107.857 121.321Z" fill="#4C3F32"/>
<path d="M83.0894 121.321L79.0947 118.168L83.0894 112.012L87.2838 118.168L83.0894 121.321Z" fill="#4C3F32"/>
<path d="M58.5216 121.321L54.3271 118.168L58.5216 112.012L62.5162 118.168L58.5216 121.321Z" fill="#4C3F32"/>
<path d="M33.7554 121.321L29.7607 118.168L33.7554 112.012L37.9498 118.168L33.7554 121.321Z" fill="#4C3F32"/>
<path fill-rule="evenodd" clip-rule="evenodd" d="M87.2835 6.90787H89.2809H91.2782L93.2755 7.05802H95.2729L97.0705 7.20817L99.0678 7.35832L101.065 7.65862L103.062 7.80877L105.06 8.10907L107.057 8.40937L108.855 8.70967L110.652 9.00997L112.45 9.31027L114.248 9.61057L116.045 10.061L117.643 10.5115L119.241 10.9619L120.839 11.4124L122.237 11.8628L123.635 12.3133L125.033 12.7637L126.232 13.3643L127.43 13.8148L128.429 14.4154L129.427 15.016L130.226 15.6166L130.825 16.2172L131.425 16.8178L132.024 17.4184L132.423 18.019L132.623 18.6196V19.2202V37.8388H149.001V40.8418H128.429V19.2202V18.7697L128.229 18.3193L127.829 17.8688L127.43 17.4184L126.831 16.9679L126.232 16.6676L125.433 16.2172L124.634 15.7667L123.635 15.3163L122.437 15.016L121.438 14.5655L120.04 14.2652L118.642 13.8148L117.244 13.5145L115.646 13.2142L114.048 12.9139L112.45 12.6136L110.652 12.3133L108.655 12.013L106.857 11.7127L104.86 11.5625L102.663 11.2622L100.666 11.1121L98.4686 10.8118L96.2715 10.6616L93.8747 10.5115L91.4779 10.3613L89.0811 10.2112H86.6843L84.0878 10.061H81.691L79.0944 9.91087V0.601562H83.2888V4.50547H87.2835V6.90787ZM62.7163 6.90787H60.7189H58.7216L56.7243 7.05802H54.7269L52.7296 7.20817L50.7323 7.35832L48.7349 7.65862L46.9373 7.80877L44.94 8.10907L42.9426 8.40937L41.145 8.70967L39.3474 9.00997L37.3501 9.31027L35.7522 9.61057L33.9546 10.061L32.3568 10.5115L30.5591 10.9619L29.161 11.4124L27.5631 11.8628L26.165 12.3133L24.9666 12.7637L23.7682 13.3643L22.5698 13.8148L21.5711 14.4154L20.5725 15.016L19.7735 15.6166L18.9746 16.2172L18.3754 16.8178L17.9759 17.4184L17.5765 18.019L17.3767 18.6196V19.2202V99.7007H0.798828V102.854H21.5711V19.2202V18.7697L21.7709 18.3193L22.1703 17.8688L22.5698 17.4184L22.9693 16.9679L23.7682 16.6676L24.3674 16.2172L25.3661 15.7667L26.3647 15.3163L27.3634 15.016L28.5618 14.5655L29.9599 14.2652L31.1583 13.8148L32.7562 13.5145L34.1544 13.2142L35.952 12.9139L37.5498 12.6136L39.3474 12.3133L41.145 12.013L43.1424 11.7127L45.1397 11.5625L47.137 11.2622L49.3341 11.1121L51.5312 10.8118L53.7283 10.6616L56.1251 10.5115L58.5219 10.3613L60.7189 10.2112H63.3155L65.912 10.061H68.3088L70.9053 9.91087V0.601562H66.7109V4.50547H62.7163V6.90787ZM66.7109 142.944H64.5139H62.1171L59.92 142.794H57.5232L55.3261 142.644L53.1291 142.493L50.7323 142.193L48.5352 142.043L46.5378 141.743L44.3408 141.442L42.3434 141.142L40.3461 140.842L38.3488 140.542L36.3514 140.241L34.5538 139.791L32.7562 139.34L31.1583 138.89L29.5605 138.439L27.9626 137.989L26.3647 137.538L25.1663 137.088L23.7682 136.487L22.7695 136.037L21.5711 135.436L20.5725 134.836L19.7735 134.235L18.9746 133.635L18.3754 133.034L17.9759 132.433L17.5765 131.833L17.3767 131.232V130.632V112.013H0.798828V109.01H21.5711V130.632V131.082L21.7709 131.532L22.1703 131.983L22.5698 132.433L22.9693 132.884L23.7682 133.184L24.3674 133.635L25.3661 134.085L26.3647 134.535L27.3634 134.836L28.5618 135.286L29.9599 135.587L31.1583 136.037L32.7562 136.337L34.1544 136.638L35.952 136.938L37.5498 137.238L39.3474 137.538L41.145 137.839L43.1424 138.139L45.1397 138.289L47.137 138.59L49.3341 138.74L51.5312 139.04L53.7283 139.19L56.1251 139.34L58.5219 139.49L60.7189 139.641H63.3155L65.912 139.791H68.3088L70.9053 139.941V149.25H66.7109V142.944ZM83.2888 142.944H85.4859H87.8827L90.0798 142.794H92.4766L94.6737 142.644L96.8707 142.493L99.0678 142.193L101.265 142.043L103.462 141.743L105.659 141.442L107.656 141.142L109.654 140.842L111.651 140.542L113.648 140.241L115.446 139.791L117.244 139.34L118.841 138.89L120.439 138.439L122.037 137.989L123.435 137.538L124.833 137.088L126.232 136.487L127.23 136.037L128.429 135.436L129.228 134.836L130.226 134.235L130.825 133.635L131.425 133.034L132.024 132.433L132.423 131.833L132.623 131.232V130.632V50.1511H149.001V46.998H128.429V130.632V131.082L128.229 131.532L127.829 131.983L127.43 132.433L126.831 132.884L126.232 133.184L125.433 133.635L124.634 134.085L123.635 134.535L122.437 134.836L121.438 135.286L120.04 135.587L118.642 136.037L117.244 136.337L115.646 136.638L114.048 136.938L112.45 137.238L110.652 137.538L108.655 137.839L106.857 138.139L104.86 138.289L102.663 138.59L100.666 138.74L98.4686 139.04L96.2715 139.19L93.8747 139.34L91.4779 139.49L89.0811 139.641H86.6843L84.0878 139.791H81.691L79.0944 139.941V149.25H83.2888V142.944ZM21.5711 93.5445V96.5475H29.7602V93.5445H21.5711ZM37.9493 93.5445V96.5475H50.3328V93.5445H37.9493ZM58.5219 93.5445V96.5475H70.9053V93.5445H58.5219ZM79.0944 93.5445V96.5475H91.4779V93.5445H79.0944ZM99.667 93.5445V96.5475H112.05V93.5445H99.667ZM120.24 93.5445V96.5475H128.429V93.5445H120.24Z" fill="#E5E5E5"/>
<path d="M87.2838 6.90787L93.2758 7.05802L99.0681 7.35832L105.06 8.10907L110.653 9.00997L116.045 10.061L122.237 11.8628L127.43 13.8148L131.425 16.8178L132.623 19.2202V37.8388H149.002V40.8418H128.429V19.2202L124.634 15.7667L118.642 13.8148L112.45 12.6136L106.858 11.7127L100.666 11.1121L93.875 10.5115L86.6846 10.2112L81.6913 10.061L79.0947 9.91087V0.601562H83.2891V4.50547H87.2838V6.90787Z" stroke="black" stroke-width="0.346353"/>
<path d="M62.7163 6.90787L56.7243 7.05802L50.7322 7.35832L44.94 8.10907L39.3474 9.00997L33.9546 10.061L27.5631 11.8628L22.5698 13.8148L18.3754 16.8178L17.3767 19.2202V99.7007H0.798828V102.854H21.5711V19.2202L25.3661 15.7667L31.1583 13.8148L37.5498 12.6136L43.1424 11.7127L49.3341 11.1121L56.1251 10.5115L63.3155 10.2112L68.3088 10.061L70.9053 9.91087V0.601562H66.7109V4.50547H62.7163V6.90787Z" stroke="black" stroke-width="0.346353"/>
<path d="M66.7109 142.942L59.92 142.792L53.1291 142.491L46.5378 141.741L40.3461 140.84L34.5538 139.789L29.5605 138.437L23.7682 136.485L18.9746 133.632L17.3767 130.629V112.011H0.798828V109.008H21.5711V130.629L25.3661 134.083L31.1583 136.035L37.5498 137.236L43.1424 138.137L49.3341 138.738L56.1251 139.338L63.3155 139.638L68.3088 139.789L70.9053 139.939V149.248H66.7109V142.942Z" stroke="black" stroke-width="0.346353"/>
<path d="M83.2891 142.942L90.0801 142.792L96.871 142.492L103.462 141.741L109.654 140.84L115.446 139.789L120.44 138.438L126.232 136.486L130.826 133.633L132.623 130.63V50.1492H149.002V46.9961H128.429V130.63L124.634 134.083L118.642 136.035L112.45 137.236L106.858 138.137L100.666 138.738L93.875 139.338L86.6846 139.639L81.6913 139.789L79.0947 139.939V149.248H83.2891V142.942Z" stroke="black" stroke-width="0.346353"/>
<path d="M21.5713 93.543V96.546H29.7604V93.543H21.5713Z" stroke="black" stroke-width="0.346353"/>
<path d="M37.9492 93.543V96.546H50.3327V93.543H37.9492Z" stroke="black" stroke-width="0.346353"/>
<path d="M58.5215 93.543V96.546H70.905V93.543H58.5215Z" stroke="black" stroke-width="0.346353"/>
<path d="M79.0947 93.543V96.546H91.4782V93.543H79.0947Z" stroke="black" stroke-width="0.346353"/>
<path d="M99.667 93.543V96.546H112.05V93.543H99.667Z" stroke="black" stroke-width="0.346353"/>
<path d="M120.239 93.543V96.546H128.428V93.543H120.239Z" stroke="black" stroke-width="0.346353"/>
<path d="M25.5654 87.2374L29.7598 84.2344L33.7545 87.2374L29.7598 90.3905L25.5654 87.2374Z" fill="#CC9900"/>
<path d="M31.7578 77.9288L35.9522 74.9258L39.9469 77.9288L35.9522 81.0819L31.7578 77.9288Z" fill="#CC9900"/>
<path d="M25.5654 68.7684L29.7598 65.6152L33.7545 68.7684L29.7598 71.7714L25.5654 68.7684Z" fill="#CC9900"/>
<path d="M31.7578 59.4598L35.9522 56.3066L39.9469 59.4598L35.9522 62.4628L31.7578 59.4598Z" fill="#CC9900"/>
<path d="M37.9492 87.2374L42.1436 84.2344L46.1383 87.2374L42.1436 90.3905L37.9492 87.2374Z" fill="#CC9900"/>
<path d="M44.1416 77.9288L48.336 74.9258L52.3307 77.9288L48.336 81.0819L44.1416 77.9288Z" fill="#CC9900"/>
<path d="M37.9492 68.7684L42.1436 65.6152L46.1383 68.7684L42.1436 71.7714L37.9492 68.7684Z" fill="#CC9900"/>
<path d="M44.1416 59.4598L48.336 56.3066L52.3307 59.4598L48.336 62.4628L44.1416 59.4598Z" fill="#CC9900"/>
<path d="M50.333 87.2374L54.3277 84.2344L58.5221 87.2374L54.3277 90.3905L50.333 87.2374Z" fill="#CC9900"/>
<path d="M56.5244 77.9288L60.5191 74.9258L64.7135 77.9288L60.5191 81.0819L56.5244 77.9288Z" fill="#CC9900"/>
<path d="M50.333 68.7684L54.3277 65.6152L58.5221 68.7684L54.3277 71.7714L50.333 68.7684Z" fill="#CC9900"/>
<path d="M56.5244 59.4598L60.5191 56.3066L64.7135 59.4598L60.5191 62.4628L56.5244 59.4598Z" fill="#CC9900"/>
<path d="M62.7168 87.2374L66.7115 84.2344L70.9059 87.2374L66.7115 90.3905L62.7168 87.2374Z" fill="#CC9900"/>
<path d="M68.9082 77.9288L72.9029 74.9258L77.0973 77.9288L72.9029 81.0819L68.9082 77.9288Z" fill="#CC9900"/>
<path d="M62.7168 68.7684L66.7115 65.6152L70.9059 68.7684L66.7115 71.7714L62.7168 68.7684Z" fill="#CC9900"/>
<path d="M68.9082 59.4598L72.9029 56.3066L77.0973 59.4598L72.9029 62.4628L68.9082 59.4598Z" fill="#CC9900"/>
<path d="M75.0996 87.2374L79.0943 84.2344L83.2887 87.2374L79.0943 90.3905L75.0996 87.2374Z" fill="#CC9900"/>
<path d="M81.292 77.9288L85.2867 74.9258L89.4811 77.9288L85.2867 81.0819L81.292 77.9288Z" fill="#CC9900"/>
<path d="M75.0996 68.7684L79.0943 65.6152L83.2887 68.7684L79.0943 71.7714L75.0996 68.7684Z" fill="#CC9900"/>
<path d="M81.292 59.4598L85.2867 56.3066L89.4811 59.4598L85.2867 62.4628L81.292 59.4598Z" fill="#CC9900"/>
<path d="M87.4834 87.2374L91.4781 84.2344L95.6725 87.2374L91.4781 90.3905L87.4834 87.2374Z" fill="#CC9900"/>
<path d="M93.6748 77.9288L97.6695 74.9258L101.864 77.9288L97.6695 81.0819L93.6748 77.9288Z" fill="#CC9900"/>
<path d="M87.4834 68.7684L91.4781 65.6152L95.6725 68.7684L91.4781 71.7714L87.4834 68.7684Z" fill="#CC9900"/>
<path d="M93.6748 59.4598L97.6695 56.3066L101.864 59.4598L97.6695 62.4628L93.6748 59.4598Z" fill="#CC9900"/>
<path d="M99.8672 87.2374L103.862 84.2344L108.056 87.2374L103.862 90.3905L99.8672 87.2374Z" fill="#CC9900"/>
<path d="M106.059 77.9288L110.053 74.9258L114.248 77.9288L110.053 81.0819L106.059 77.9288Z" fill="#CC9900"/>
<path d="M99.8672 68.7684L103.862 65.6152L108.056 68.7684L103.862 71.7714L99.8672 68.7684Z" fill="#CC9900"/>
<path d="M106.059 59.4598L110.053 56.3066L114.248 59.4598L110.053 62.4628L106.059 59.4598Z" fill="#CC9900"/>
<path d="M112.25 87.2374L116.245 84.2344L120.439 87.2374L116.245 90.3905L112.25 87.2374Z" fill="#CC9900"/>
<path d="M118.442 77.9288L122.437 74.9258L126.631 77.9288L122.437 81.0819L118.442 77.9288Z" fill="#CC9900"/>
<path d="M112.25 68.7684L116.245 65.6152L120.439 68.7684L116.245 71.7714L112.25 68.7684Z" fill="#CC9900"/>
<path d="M118.442 59.4598L122.437 56.3066L126.631 59.4598L122.437 62.4628L118.442 59.4598Z" fill="#CC9900"/>
</g>
<defs>
<clipPath id="clip0_2109_171700">
<rect width="150" height="150" fill="white"/>
</clipPath>
</defs>
</svg>
