<svg width="150" height="150" viewBox="0 0 150 150" fill="none" xmlns="http://www.w3.org/2000/svg">
<g clip-path="url(#clip0_2109_169942)">
<path d="M150 147.598L140 148.799L117.273 149.399L90 150H59.0909L31.8182 149.7L10.9091 148.799L0 147.598V2.25225L10.9091 1.35135L31.8182 0.45045L59.0909 0H90L117.273 0.45045L140 1.35135L150 2.25225V147.598Z" fill="#CC9933"/>
<path d="M143.636 148.198L131.818 148.799L114.545 149.4H35.4543L18.1816 148.799L7.27246 148.198V1.65189L18.1816 1.05129L35.4543 0.450691L114.545 0.150391L131.818 1.05129L143.636 1.65189V148.198Z" fill="#D1A345"/>
<path d="M133.637 148.799L124.546 149.099L109.091 149.4H41.8186L23.6368 149.099L14.5459 148.799V1.05129L23.6368 0.750991L41.8186 0.450691L109.091 0.150391L124.546 0.750991L133.637 1.05129V148.799Z" fill="#D6AD59"/>
<path d="M126.364 148.799L119.091 149.4H105.455H45.4549H30.0004L23.6367 148.799V0.750991L45.4549 0.150391H105.455L126.364 0.750991V148.799Z" fill="#D9B369"/>
<path d="M119.091 149.4L99.0909 149.7H50.9091L30 149.4V0.450691L50.9091 0.150391H99.0909L119.091 0.450691V149.4Z" fill="#DEBD7B"/>
<path d="M110.909 149.399L95.4544 149.7H54.5453L38.1816 149.399V0.15015H54.5453L95.4544 0L110.909 0.15015V149.399Z" fill="#E3C78F"/>
<path d="M103.636 149.7H89.9997L59.0906 150L47.2725 149.7V0.15015L59.0906 0H89.9997L103.636 0.15015V149.7Z" fill="#E8D1A1"/>
<path d="M95.455 149.7L87.2732 150H62.7277L54.5459 149.7V0.150391H95.455V149.7Z" fill="#EBD7B0"/>
<path d="M87.2728 150H60.9092V0H87.2728V150Z" fill="#F0E1C5"/>
<path d="M80.0001 150H70.9092V0H80.0001V150Z" fill="#F5EBD6"/>
<path d="M150 132.582L140 133.783L117.273 134.684L90 135.285H59.0909L31.8182 134.684L10.9091 133.783L0 132.582" stroke="#CC9933" stroke-width="0.738918"/>
<path d="M150 99.25L140 99.8506L117.273 100.451L90 100.752H59.0909L31.8182 100.451L10.9091 99.8506L0 99.25" stroke="#CC9933" stroke-width="0.738918"/>
<path d="M0 66.5156H150" stroke="#CC9933" stroke-width="0.738918"/>
<path d="M0 50.6006L10.9091 50.3003L31.8182 50H59.0909H90H117.273L140 50.3003L150 50.6006" stroke="#CC9933" stroke-width="0.738918"/>
<path d="M0 19.3687L10.9091 18.9182L31.8182 18.1675L59.0909 17.8672H90L117.273 18.1675L140 18.9182L150 19.3687" stroke="#CC9933" stroke-width="0.738918"/>
<path d="M0 64.1133H150" stroke="#CC9933" stroke-width="0.738918"/>
<path d="M150 96.8477L140 97.4483L117.273 98.0489L90 98.3492H59.0909L31.8182 98.0489L10.9091 97.4483L0 96.8477" stroke="#CC9933" stroke-width="0.738918"/>
<path d="M150 130.18L140 131.381L117.273 132.282L90 132.882H59.0909L31.8182 132.282L10.9091 131.381L0 130.18" stroke="#CC9933" stroke-width="0.738918"/>
<path d="M0 48.4986L10.9091 47.898L31.8182 47.5977H59.0909H90H117.273L140 47.898L150 48.4986" stroke="#CC9933" stroke-width="0.738918"/>
<path d="M0 16.9663L10.9091 16.3657L31.8182 15.7651L59.0909 15.4648H90L117.273 15.7651L140 16.3657L150 16.9663" stroke="#CC9933" stroke-width="0.738918"/>
<path d="M0 32.5835L10.9091 31.9829L31.8182 31.3823L59.0909 31.082H90L117.273 31.3823L140 31.9829L150 32.5835" stroke="#CC9933" stroke-width="0.738918"/>
<path d="M0 34.9859L10.9091 34.3853L31.8182 33.7847L59.0909 33.4844H90L117.273 33.7847L140 34.3853L150 34.9859" stroke="#CC9933" stroke-width="0.738918"/>
<path d="M0 82.7324H150" stroke="#CC9933" stroke-width="0.738918"/>
<path d="M0 80.3301H150" stroke="#CC9933" stroke-width="0.738918"/>
<path d="M150 117.268L140 117.868L117.273 118.469L90 118.769H59.0909L31.8182 118.469L10.9091 117.868L0 117.268" stroke="#CC9933" stroke-width="0.738918"/>
<path d="M150 114.865L140 115.466L117.273 116.066L90 116.367H59.0909L31.8182 116.066L10.9091 115.466L0 114.865" stroke="#CC9933" stroke-width="0.738918"/>
<path d="M0 4.80451L10.9091 3.6033L31.8182 3.0027L59.0909 2.25195H90L117.273 2.7024L140 3.6033L150 4.80451" stroke="#CC9933" stroke-width="0.738918"/>
<path d="M150 147.598L140 148.799L117.273 149.399L90 150H59.0909L31.8182 149.7L10.9091 148.799L0 147.598V2.25225L10.9091 1.35135L31.8182 0.45045L59.0909 0H90L117.273 0.45045L140 1.35135L150 2.25225V147.598Z" stroke="black" stroke-width="0.738918"/>
<path d="M117.273 140.842L90.0002 141.142H59.0911L31.8184 140.842" stroke="#F5EBD6" stroke-width="0.738918"/>
<path d="M117.273 106.756L90.0002 107.056H59.0911L31.8184 106.756" stroke="#F5EBD6" stroke-width="0.738918"/>
<path d="M31.8184 56.3062L59.0911 56.0059H90.0002L117.273 56.3062" stroke="#F5EBD6" stroke-width="0.738918"/>
<path d="M31.8184 24.4741L59.0911 24.1738H90.0002L117.273 24.4741" stroke="#F5EBD6" stroke-width="0.738918"/>
<path d="M31.8184 40.0894L59.0911 39.7891H90.0002L117.273 40.0894" stroke="#F5EBD6" stroke-width="0.738918"/>
<path d="M117.273 124.775L90.0002 125.076H59.0911L31.8184 124.775" stroke="#F5EBD6" stroke-width="0.738918"/>
<path d="M31.8184 9.00928L59.0911 8.70898H90.0002L117.273 9.00928" stroke="#F5EBD6" stroke-width="0.738918"/>
</g>
<defs>
<clipPath id="clip0_2109_169942">
<rect width="150" height="150" fill="white"/>
</clipPath>
</defs>
</svg>
