<svg width="53" height="150" viewBox="0 0 53 150" fill="none" xmlns="http://www.w3.org/2000/svg">
<g clip-path="url(#clip0_2109_170910)">
<path d="M1.77852 128.078L14.1096 140.541V149.85H38.7718V140.541L51.1029 128.078H53V124.925H51.1029V96.8468H53V93.6937H51.1029V63.2132H53V60.0601H51.1029V31.2312H53V28.0781H51.1029L43.7517 18.7688H38.7718V6.15616L31.4206 0H21.5794L14.1096 6.15616V18.7688H9.24832L1.77852 28.0781H0V31.2312H1.77852V60.0601H0V63.2132H1.77852V93.6937H0V96.8468H1.77852V124.925H0V128.078H1.77852Z" fill="#7F7F7F"/>
<path d="M5.2166 127.928L15.8877 140.541V149.85H37.1115V140.541L47.7826 127.928H49.4425V124.925H47.7826V96.6967H49.4425V93.6937H47.7826V63.2132H49.4425V60.0601H47.7826V31.2312H49.4425V28.0781H47.7826L41.3799 18.6186H37.1115V6.15616L30.7088 0H22.2904L15.8877 6.15616V18.6186H11.6193L5.2166 28.0781H3.55664V31.2312H5.2166V60.0601H3.55664V63.2132H5.2166V93.6937H3.55664V96.6967H5.2166V124.925H3.55664V127.928H5.2166Z" fill="#919191"/>
<path d="M8.53667 127.928L17.5479 140.541V149.85H35.4517V140.541L44.4628 127.928H45.7671V124.925H44.4628V96.6967H45.7671V93.6937H44.4628V63.2132H45.7671V60.0601H44.4628V31.2312H45.7671V28.0781H44.4628L39.1273 18.6186H35.4517V6.15616L30.1161 0H22.8834L17.5479 6.15616V18.6186H13.9908L8.53667 28.0781H7.23242V31.2312H8.53667V60.0601H7.23242V63.2132H8.53667V93.6937H7.23242V96.6967H8.53667V124.925H7.23242V127.928H8.53667Z" fill="#A3A3A3"/>
<path d="M11.8572 127.928L19.2084 140.541V149.85H33.7923V140.541L41.1435 127.928H42.2106V124.925H41.1435V96.6967H42.2106V93.6937H41.1435V63.2132H42.2106V60.0601H41.1435V31.2312H42.2106V28.0781H41.1435L36.7565 18.6186H33.7923V6.15616L29.4053 0H23.5954L19.2084 6.15616V18.6186H16.3627L11.8572 28.0781H10.79V31.2312H11.8572V60.0601H10.79V63.2132H11.8572V93.6937H10.79V96.6967H11.8572V124.925H10.79V127.928H11.8572Z" fill="#B5B5B5"/>
<path d="M15.2948 127.928L20.8675 140.541V149.85H32.1315V140.541L37.7042 127.928H38.5342V124.925H37.7042V96.6967H38.5342V93.6937H37.7042V63.2132H38.5342V60.0601H37.7042V31.2312H38.5342V28.0781H37.7042L34.3843 18.6186H32.1315V6.15616L28.8116 0H24.306L20.8675 6.15616V18.6186H18.6147L15.2948 28.0781H14.4648V31.2312H15.2948V60.0601H14.4648V63.2132H15.2948V93.6937H14.4648V96.6967H15.2948V124.925H14.4648V127.928H15.2948Z" fill="#C9C9C9"/>
<path d="M18.6153 127.928L22.6466 140.541V149.85H30.3536V140.541L34.3849 127.928H34.9777V124.925H34.3849V96.6967H34.9777V93.6937H34.3849V63.2132H34.9777V60.0601H34.3849V31.2312H34.9777V28.0781H34.3849L32.0135 18.6186H30.3536V6.15616L28.1008 0H24.8994L22.6466 6.15616V18.6186H20.9867L18.6153 28.0781H18.0225V31.2312H18.6153V60.0601H18.0225V63.2132H18.6153V93.6937H18.0225V96.6967H18.6153V124.925H18.0225V127.928H18.6153Z" fill="#DBDBDB"/>
<path d="M22.0539 127.928L24.3067 140.541V149.85H28.8123V140.541L30.9466 127.928H31.3023V124.925H30.9466V96.6967H31.3023V93.6937H30.9466V63.2132H31.3023V60.0601H30.9466V31.2312H31.3023V28.0781H30.9466L29.6423 18.6186H28.8123V6.15616L27.3895 0H25.611L24.3067 6.15616V18.6186H23.3582L22.0539 28.0781H21.6982V31.2312H22.0539V60.0601H21.6982V63.2132H22.0539V93.6937H21.6982V96.6967H22.0539V124.925H21.6982V127.928H22.0539Z" fill="#EDEDED"/>
<path d="M26.4406 149.85C27.0954 149.85 27.6262 116.305 27.6262 74.9249C27.6262 33.545 27.0954 0 26.4406 0C25.7857 0 25.2549 33.545 25.2549 74.9249C25.2549 116.305 25.7857 149.85 26.4406 149.85Z" fill="white"/>
<path d="M1.77852 128.078L14.1096 140.541V149.85H38.7718V140.541L51.1029 128.078H53V124.925H51.1029V96.8468H53V93.6937H51.1029V63.2132H53V60.0601H51.1029V31.2312H53V28.0781H51.1029L43.7517 18.7688H38.7718V6.15616L31.4206 0H21.5794L14.1096 6.15616V18.7688H9.24832L1.77852 28.0781H0V31.2312H1.77852V60.0601H0V63.2132H1.77852V93.6937H0V96.8468H1.77852V124.925H0V128.078H1.77852Z" stroke="black" stroke-width="0.448936"/>
<path d="M14.1094 6.15625H38.7716" stroke="black" stroke-width="0.448936"/>
<path d="M14.1094 18.7695H38.7716" stroke="black" stroke-width="0.448936"/>
<path d="M14.1094 140.541H38.7716" stroke="black" stroke-width="0.448936"/>
<path d="M1.77832 31.2305H51.1027" stroke="black" stroke-width="0.448936"/>
<path d="M1.77832 63.3633H51.1027" stroke="black" stroke-width="0.448936"/>
<path d="M1.77832 96.8477H51.1027" stroke="black" stroke-width="0.448936"/>
<path d="M1.77832 128.078H51.1027" stroke="black" stroke-width="0.448936"/>
<path d="M1.77832 28.2285H51.1027" stroke="#E5E5E5" stroke-width="0.448936"/>
<path d="M1.77832 60.2109H51.1027" stroke="#E5E5E5" stroke-width="0.448936"/>
<path d="M1.77832 93.6934H51.1027" stroke="#E5E5E5" stroke-width="0.448936"/>
<path d="M1.77832 124.926H51.1027" stroke="#E5E5E5" stroke-width="0.448936"/>
</g>
<defs>
<clipPath id="clip0_2109_170910">
<rect width="53" height="150" fill="white"/>
</clipPath>
</defs>
</svg>
