<svg width="60" height="142" viewBox="0 0 60 142" fill="none" xmlns="http://www.w3.org/2000/svg">
<g clip-path="url(#clip0_2109_169250)">
<path d="M47.8311 28.002L34.4576 50.1761H32.6504L46.0239 28.002H47.8311Z" fill="black" stroke="black" stroke-width="0.425328"/>
<path d="M12.0479 28.002L25.5418 50.1761H27.2286L13.8551 28.002H12.0479Z" fill="black" stroke="black" stroke-width="0.425328"/>
<path d="M21.2051 4.40625H38.7954V142H21.2051V4.40625Z" fill="#7F7F7F"/>
<path d="M23.373 4.40625H36.5056V142H23.373V4.40625Z" fill="#999999"/>
<path d="M24.0967 4.40625H35.7834V142H24.0967V4.40625Z" fill="#B2B2B2"/>
<path d="M25.1807 4.40625H34.6987V142H25.1807V4.40625Z" fill="#CCCCCC"/>
<path d="M27.7109 4.40625H32.1688V142H27.7109V4.40625Z" fill="#E5E5E5"/>
<path d="M21.2051 4.40625H38.7954V142H21.2051V4.40625Z" stroke="black" stroke-width="0.425328"/>
<path d="M38.434 1.2793L22.1689 20.4685" stroke="black" stroke-width="0.425328"/>
<path d="M33.3737 1.2793L17.3496 20.0421" stroke="black" stroke-width="0.425328"/>
<path d="M4.6987 0.994141L2.28906 3.69484" stroke="black" stroke-width="0.425328"/>
<path d="M9.51798 0.994141L2.28906 9.38053" stroke="black" stroke-width="0.425328"/>
<path d="M14.3373 1.2793L2.28906 15.4935" stroke="black" stroke-width="0.425328"/>
<path d="M19.1567 1.2793L2.8916 20.4685" stroke="black" stroke-width="0.425328"/>
<path d="M23.976 1.2793L7.71094 20.4685" stroke="black" stroke-width="0.425328"/>
<path d="M28.7953 1.2793L12.5303 20.4685" stroke="black" stroke-width="0.425328"/>
<path d="M2.28906 18.3359L4.09629 20.4681" stroke="black" stroke-width="0.425328"/>
<path d="M2.28906 12.6504L8.91557 20.4682" stroke="black" stroke-width="0.425328"/>
<path d="M2.28906 6.67969L13.7348 20.041" stroke="black" stroke-width="0.425328"/>
<path d="M16.7471 1.2793L33.0121 20.4685" stroke="black" stroke-width="0.425328"/>
<path d="M11.9277 1.2793L28.0723 20.4685" stroke="black" stroke-width="0.425328"/>
<path d="M7.1084 1.2793L23.253 20.4685" stroke="black" stroke-width="0.425328"/>
<path d="M2.28906 1.2793L18.5541 20.4685" stroke="black" stroke-width="0.425328"/>
<path d="M57.5904 18.3359L55.7832 20.4681" stroke="black" stroke-width="0.425328"/>
<path d="M57.5904 12.6504L50.9639 20.4682" stroke="black" stroke-width="0.425328"/>
<path d="M57.5903 6.67969L46.1445 20.041" stroke="black" stroke-width="0.425328"/>
<path d="M43.0118 1.2793L26.8672 20.4685" stroke="black" stroke-width="0.425328"/>
<path d="M47.9522 1.2793L31.8076 20.4685" stroke="black" stroke-width="0.425328"/>
<path d="M52.7715 1.2793L36.627 20.4685" stroke="black" stroke-width="0.425328"/>
<path d="M57.5903 1.2793L41.3252 20.4685" stroke="black" stroke-width="0.425328"/>
<path d="M21.5664 1.42188L37.711 20.4689" stroke="black" stroke-width="0.425328"/>
<path d="M26.5059 1.2793L42.4095 20.0421" stroke="black" stroke-width="0.425328"/>
<path d="M55.1807 0.994141L57.5903 3.69484" stroke="black" stroke-width="0.425328"/>
<path d="M50.3613 0.994141L57.5902 9.38053" stroke="black" stroke-width="0.425328"/>
<path d="M45.542 1.2793L57.5902 15.4935" stroke="black" stroke-width="0.425328"/>
<path d="M40.7227 1.2793L56.8672 20.4685" stroke="black" stroke-width="0.425328"/>
<path d="M35.9033 1.2793L52.0479 20.4685" stroke="black" stroke-width="0.425328"/>
<path d="M31.084 1.2793L47.2286 20.4685" stroke="black" stroke-width="0.425328"/>
<path d="M1.08398 20.4685V0H58.7948V20.4685H57.59V1.27928H2.2888V9.0971H57.59V10.5185H2.2888V20.4685H1.08398Z" fill="#7F7F7F" stroke="black" stroke-width="0.425328"/>
<path d="M1.44531 20.1851V0.285156H58.4333V20.1851H57.8309V0.995867H2.04772V9.5244H57.9513V10.2351H2.04772V20.1851H1.44531Z" fill="#E5E5E5"/>
<path d="M0 20.4688H60V24.8752H0V20.4688Z" fill="#8C8C8C" stroke="black" stroke-width="0.425328"/>
<path d="M4.93945 24.875H55.0599V27.86H4.93945V24.875Z" fill="black" stroke="black" stroke-width="0.425328"/>
<path d="M21.2051 35.3926H38.7954" stroke="black" stroke-width="0.425328"/>
<path d="M21.2051 88.6973H38.7954" stroke="black" stroke-width="0.425328"/>
<path d="M21.2051 106.465H38.7954" stroke="#7F7F7F" stroke-width="0.425328"/>
<path d="M21.2051 124.232H38.7954" stroke="#7F7F7F" stroke-width="0.425328"/>
<path d="M21.2051 53.1621H38.7954" stroke="#7F7F7F" stroke-width="0.425328"/>
<path d="M21.2051 70.9297H38.7954" stroke="#7F7F7F" stroke-width="0.425328"/>
<path d="M55.0607 28.002L36.2655 59.1311H33.7354L52.5305 28.002H55.0607Z" fill="#4C4C4C" stroke="black" stroke-width="0.425328"/>
<path d="M4.81934 28.002L23.735 59.1311H26.1446L7.34946 28.002H4.81934Z" fill="#4C4C4C" stroke="black" stroke-width="0.425328"/>
</g>
<defs>
<clipPath id="clip0_2109_169250">
<rect width="60" height="142" fill="white"/>
</clipPath>
</defs>
</svg>
