<svg width="150" height="150" viewBox="0 0 150 150" fill="none" xmlns="http://www.w3.org/2000/svg">
<g clip-path="url(#clip0_2109_171117)">
<path d="M97.5409 145.645L82.7868 146.696H67.4862L52.1857 145.645L39.0709 144.294L28.142 141.891L20.4917 138.888L16.1201 135.435V80.3299L20.4917 77.0266L28.142 74.3239L39.0709 71.9215L52.1857 70.1197L67.4862 69.2188H82.7868L97.5409 70.1197L111.202 71.9215L122.131 74.3239L129.781 77.0266L133.606 80.3299V135.435L129.781 138.888L122.131 141.891L111.202 144.294L97.5409 145.645Z" fill="black" stroke="black" stroke-width="0.405091"/>
<path d="M56.0107 37.6875H94.2621V40.0899H56.0107V37.6875Z" fill="#99CCCC" stroke="black" stroke-width="0.405091"/>
<path d="M56.0107 65.3145H94.2621V67.7169H56.0107V65.3145Z" fill="#99CCCC" stroke="black" stroke-width="0.405091"/>
<path d="M94.2621 65.3151L90.9834 63.5133V41.8916L94.2621 40.0898H56.0107L58.743 41.8916V63.5133L56.0107 65.3151H94.2621Z" fill="#99CCCC"/>
<path d="M52.1855 67.7168V70.1192L67.4861 69.2183H82.7866L97.5407 70.1192V67.7168H52.1855Z" fill="#99CCCC"/>
<path d="M56.0107 35.2852H94.2621V37.6876H56.0107V35.2852Z" fill="#99CCCC"/>
<path d="M104.645 26.7267L101.366 27.1772H92.6228L90.9834 28.0781V33.7838L94.2621 35.2853H56.0107L58.743 33.7838V28.0781L60.3823 27.1772L67.4862 27.6276L69.1255 26.7267V19.3694H67.4862V11.2613L69.1255 1.35135H67.4862L73.4971 0.750751L86.6118 0L100.273 0.750751L105.738 1.35135H104.645L105.738 11.2613V19.3694H104.645V26.7267Z" fill="#99CCCC"/>
<path d="M56.0107 65.3151H94.2621L90.9834 63.5133V41.8916L94.2621 40.0898H56.0107L58.743 41.8916V63.5133L56.0107 65.3151Z" stroke="black" stroke-width="0.405091"/>
<path d="M52.1855 67.7168V70.1192L67.4861 69.2183H82.7866L97.5407 70.1192V67.7168H52.1855Z" stroke="black" stroke-width="0.405091"/>
<path d="M56.0107 35.2852H94.2621V37.6876H56.0107V35.2852Z" stroke="black" stroke-width="0.405091"/>
<path d="M104.645 26.7267L101.366 27.1772H92.6228L90.9834 28.0781V33.7838L94.2621 35.2853H56.0107L58.743 33.7838V28.0781L60.3823 27.1772L67.4862 27.6276L69.1255 26.7267V19.3694H67.4862V11.2613L69.1255 1.35135H67.4862L73.4971 0.750751L86.6118 0L100.273 0.750751L105.738 1.35135H104.645L105.738 11.2613V19.3694H104.645V26.7267Z" stroke="black" stroke-width="0.405091"/>
<path d="M69.126 1.35156H104.645L92.6232 1.65186V3.90411H81.1478V1.65186L69.126 1.35156Z" fill="#003333" stroke="black" stroke-width="0.405091"/>
<path d="M96.9947 145.046L82.7871 145.647H67.4865L52.7324 145.046L40.1641 143.394L29.5084 140.992L21.5849 138.139L17.7598 134.986V80.9319L21.5849 77.9289L29.5084 74.9259L39.8909 72.5235L52.7324 71.022L67.4865 70.1211H82.7871L96.9947 71.022L110.109 72.5235L121.038 74.9259L128.689 77.9289L132.514 80.9319V134.986L128.689 138.139L121.038 140.992L110.109 143.394L96.9947 145.046Z" fill="#E5E5E5" stroke="black" stroke-width="0.405091"/>
<path d="M122.131 95.0449H133.606V135.435L129.781 138.889L122.131 141.591V95.0449Z" stroke="black" stroke-width="0.405091"/>
<path d="M121.038 95.0449H132.513V134.985L128.688 138.138L121.038 140.991V95.0449Z" fill="#B2B2B2" stroke="black" stroke-width="0.405091"/>
<path d="M29.5084 140.991L21.5849 138.138L17.7598 134.985V95.0449H29.5084V140.991Z" fill="#B2B2B2" stroke="black" stroke-width="0.405091"/>
<path fill-rule="evenodd" clip-rule="evenodd" d="M20.4918 107.958H0V109.46H20.4918V107.958ZM129.235 107.958H150V109.46H129.235V107.958ZM11.7486 81.8321H16.1202V83.3336H11.7486V81.8321ZM11.7486 80.6309H16.1202V84.5348H11.7486V80.6309ZM133.607 81.8321H137.978V83.3336H133.607V81.8321ZM133.607 80.6309H137.978V84.5348H133.607V80.6309ZM7.65027 84.5348V97.4477H4.64481V84.5348H7.65027ZM16.1202 87.8381V94.4447H7.65027V87.8381H16.1202ZM63.1148 148.499H86.612V150H63.1148V148.499ZM69.1257 143.394H81.1475V148.499H69.1257V143.394Z" fill="white"/>
<path d="M20.4918 107.957H0V109.459H20.4918V107.957Z" stroke="black" stroke-width="0.405091"/>
<path d="M129.235 107.957H150V109.459H129.235V107.957Z" stroke="black" stroke-width="0.405091"/>
<path d="M11.749 81.832H16.1206V83.3335H11.749V81.832Z" stroke="black" stroke-width="0.405091"/>
<path d="M11.749 80.6309H16.1206V84.5348H11.749V80.6309Z" stroke="black" stroke-width="0.405091"/>
<path d="M133.606 81.832H137.978V83.3335H133.606V81.832Z" stroke="black" stroke-width="0.405091"/>
<path d="M133.606 80.6309H137.978V84.5348H133.606V80.6309Z" stroke="black" stroke-width="0.405091"/>
<path d="M7.65 84.5352V97.4481H4.64453V84.5352H7.65Z" stroke="black" stroke-width="0.405091"/>
<path d="M16.1203 87.8379V94.4445H7.65039V87.8379H16.1203Z" stroke="black" stroke-width="0.405091"/>
<path d="M63.1152 148.498H86.6125V150H63.1152V148.498Z" stroke="black" stroke-width="0.405091"/>
<path d="M69.126 143.393H81.1478V148.498H69.126V143.393Z" stroke="black" stroke-width="0.405091"/>
<path d="M72.4044 116.067V114.566H69.1257V111.262H72.4044V74.9259H70.765V73.4244H69.1257L67.4863 70.1211H82.7869L81.1475 73.4244H79.5082V74.9259H77.8688V111.262H81.1475V114.566H77.8688V116.067H72.4044Z" fill="#B2B2B2" stroke="black" stroke-width="0.405091"/>
<path d="M42.8965 112.162H54.3719V116.967H42.8965V112.162Z" fill="#B2B2B2" stroke="black" stroke-width="0.405091"/>
<path d="M95.9014 112.162H107.377V116.967H95.9014V112.162Z" fill="#B2B2B2" stroke="black" stroke-width="0.405091"/>
<path d="M69.126 19.3691H104.645" stroke="black" stroke-width="0.405091"/>
<path d="M105.738 11.2617H67.4863" stroke="black" stroke-width="0.405091"/>
<path d="M92.6229 27.1777H82.2404L81.1475 28.0786" stroke="black" stroke-width="0.405091"/>
<path d="M85.5195 28.9785L86.6124 29.5791H90.984" stroke="black" stroke-width="0.405091"/>
<path d="M150 107.957L129.235 98.3477" stroke="black" stroke-width="0.405091"/>
<path d="M0.546875 107.957L21.3119 98.3477" stroke="black" stroke-width="0.405091"/>
<path d="M51.6396 114.564H98.6342" stroke="black" stroke-width="0.405091"/>
<path d="M75.1367 112.162V116.967" stroke="black" stroke-width="0.405091"/>
<path d="M72.4043 74.9258H77.8688" stroke="black" stroke-width="0.405091"/>
<path d="M79.5078 73.4238H70.7646" stroke="black" stroke-width="0.405091"/>
<path d="M64.7539 44.2949H85.5189V59.6102H64.7539V44.2949Z" fill="#336666"/>
<path d="M72.404 59.6102V49.0997H70.7646V44.2949H79.5078V49.0997H77.8685V59.6102H72.404Z" fill="#7F7F7F" stroke="black" stroke-width="0.405091"/>
<path d="M64.7539 59.6102V44.2949H85.5189" stroke="#003333" stroke-width="0.405091"/>
<path d="M85.5189 44.2949V59.6102H64.7539" stroke="#CCFFFF" stroke-width="0.405091"/>
</g>
<defs>
<clipPath id="clip0_2109_171117">
<rect width="150" height="150" fill="white"/>
</clipPath>
</defs>
</svg>
