<svg width="150" height="150" viewBox="0 0 150 150" fill="none" xmlns="http://www.w3.org/2000/svg">
<path d="M132.743 115.166H140.044V116.668H132.743V115.166Z" fill="#386666" stroke="black" stroke-width="0.63137"/>
<path d="M30.5312 75.6758H37.1684V77.3274H30.5312V75.6758Z" fill="#386666" stroke="black" stroke-width="0.63137"/>
<path d="M51.1064 2.25321H57.7436V0.601562H51.1064V2.25321Z" fill="#386666" stroke="black" stroke-width="0.63137"/>
<path d="M30.5312 16.0664H37.1684V17.7181H30.5312V16.0664Z" fill="#386666" stroke="black" stroke-width="0.63137"/>
<path d="M119.469 27.7773H126.106V29.2788H119.469V27.7773Z" fill="#386666" stroke="black" stroke-width="0.63137"/>
<path d="M119.469 6.90787V74.9259L132.744 87.2382V118.169L146.682 149.25H9.95605L23.2304 118.169V87.2382L37.1684 74.9259V6.90787L46.4605 3.00396L62.3897 1.20216L78.3189 0.601562L98.2304 1.35231L114.16 3.90487L119.469 6.90787Z" fill="#597F7F" stroke="black" stroke-width="0.63137"/>
<path d="M132.743 118.168L130.752 120.12L126.106 121.171L120.132 122.222L112.832 122.973L104.203 123.724L94.9113 124.174L83.6281 124.324L78.3183 124.474L67.6989 124.324L57.0794 123.874L47.7874 123.423L39.8228 122.672L33.1856 121.772L27.8759 120.721L24.5573 119.519L23.8936 118.168" stroke="black" stroke-width="0.63137"/>
<path d="M30.5312 88.1387H126.106V117.418H30.5312V88.1387Z" fill="#BDCCCC" stroke="black" stroke-width="0.63137"/>
<path d="M47.124 43.9941H108.85V73.4236H47.124V43.9941Z" fill="#7F7F7F" stroke="black" stroke-width="0.63137"/>
<path d="M37.168 6.90625H119.469" stroke="black" stroke-width="0.63137"/>
<path d="M37.168 40.8418H119.469" stroke="black" stroke-width="0.63137"/>
<path d="M37.168 40.0898H119.469" stroke="black" stroke-width="0.63137"/>
<path d="M37.168 39.3398H119.469" stroke="black" stroke-width="0.63137"/>
<path d="M105.531 37.8379H37.168" stroke="black" stroke-width="0.63137"/>
<path d="M51.1064 34.6855H119.469" stroke="black" stroke-width="0.63137"/>
<path d="M105.531 31.6816H37.168" stroke="black" stroke-width="0.63137"/>
<path d="M51.1064 28.5293H119.469" stroke="black" stroke-width="0.63137"/>
<path d="M105.531 25.375H37.168" stroke="black" stroke-width="0.63137"/>
<path d="M51.1064 22.373H119.469" stroke="black" stroke-width="0.63137"/>
<path d="M105.531 19.2188H37.168" stroke="black" stroke-width="0.63137"/>
<path d="M51.1064 16.0664H119.469" stroke="black" stroke-width="0.63137"/>
<path d="M47.124 73.4236L108.85 43.9941" stroke="black" stroke-width="0.63137"/>
<path d="M108.85 73.4236L47.124 43.9941" stroke="black" stroke-width="0.63137"/>
<path d="M23.2305 87.2363H132.744" stroke="black" stroke-width="0.63137"/>
<path d="M119.469 74.9258H37.168" stroke="black" stroke-width="0.63137"/>
<path d="M23.2305 118.168H132.744" stroke="black" stroke-width="0.63137"/>
<path d="M78.3186 124.475L75 125.976H81.6372L78.3186 124.475Z" stroke="black" stroke-width="0.63137"/>
<path d="M23.2305 87.2363H2.65527V93.5426H23.2305V87.2363Z" stroke="black" stroke-width="0.63137"/>
<path d="M13.2744 93.5426V87.2363" stroke="black" stroke-width="0.63137"/>
<path d="M2.65527 90.3906H23.2305" stroke="black" stroke-width="0.63137"/>
<path d="M30.5312 57.957H126.106V59.4585H30.5312V57.957Z" fill="#333333" stroke="black" stroke-width="0.63137"/>
</svg>
