<svg width="33" height="164" viewBox="0 0 33 164" fill="none" xmlns="http://www.w3.org/2000/svg">
<g clip-path="url(#clip0_2109_169303)">
<path d="M10.8428 15.9238L12.4142 19.0429H21.2142L22.6285 15.9238H10.8428Z" fill="#333333"/>
<path d="M28.4426 160.88V161.044L24.1997 163.179L19.1712 163.835L18.0712 163.999H16.814L12.2569 163.671L7.69975 162.85L5.02832 161.044V160.88V22.9824L7.69975 19.0424L12.2569 17.2366L15.5569 16.9083L16.814 16.7441L18.0712 16.9083L22.314 17.565L26.5569 19.5349L28.4426 22.3257V22.9824V160.88Z" fill="#B2BFBF"/>
<path d="M25.1424 160.88L21.5281 163.343L18.5424 163.835L17.5996 163.999H16.8138L12.0996 163.343L8.48527 161.044L8.32812 160.88V22.9824L10.371 19.0424L14.2996 17.0725L15.871 16.9083L16.8138 16.7441L17.5996 16.9083L22.1567 18.2216L24.9853 21.6691L25.1424 22.3257V22.9824V160.88Z" fill="#C2CCCC"/>
<path d="M24.043 160.88L23.8859 161.537L19.643 163.671L16.8144 163.999L11.6287 163.014L9.58585 161.537L9.42871 160.88V22.9824L11.6287 18.5499L16.8144 16.7441L22.0001 18.5499L24.043 22.9824V160.88Z" fill="#D1D9D9"/>
<path d="M22.1574 160.88L22.0003 161.537L17.9145 163.835L16.8145 163.999L12.4145 162.522L11.6288 161.537L11.4717 160.88V22.9824L13.0431 18.5499L16.8145 16.7441L21.2145 19.5349L22.1574 22.9824V160.88Z" fill="#E0E5E5"/>
<path d="M19.1713 160.88L16.8142 163.999L14.457 160.88V22.9824L15.3999 17.8933L16.8142 16.7441L19.0142 20.5199L19.1713 22.9824V160.88Z" fill="#EFF2F2"/>
<path d="M5.02832 25.9395H28.4426" stroke="#A3B2B2" stroke-width="0.654981"/>
<path d="M5.02832 50.5625H28.4426" stroke="#A3B2B2" stroke-width="0.654981"/>
<path d="M5.02832 75.0234H28.4426" stroke="#A3B2B2" stroke-width="0.654981"/>
<path d="M5.02832 99.4824H28.4426" stroke="#A3B2B2" stroke-width="0.654981"/>
<path d="M5.02832 124.107H28.4426" stroke="#A3B2B2" stroke-width="0.654981"/>
<path d="M5.02832 148.57H28.4426" stroke="#A3B2B2" stroke-width="0.654981"/>
<path d="M5.02832 32.0117H28.4426" stroke="#A3B2B2" stroke-width="0.654981"/>
<path d="M5.02832 56.6367H28.4426" stroke="#A3B2B2" stroke-width="0.654981"/>
<path d="M5.02832 81.0977H28.4426" stroke="#A3B2B2" stroke-width="0.654981"/>
<path d="M5.02832 105.723H28.4426" stroke="#A3B2B2" stroke-width="0.654981"/>
<path d="M5.02832 130.182H28.4426" stroke="#A3B2B2" stroke-width="0.654981"/>
<path d="M5.02832 154.643H28.4426" stroke="#A3B2B2" stroke-width="0.654981"/>
<path d="M5.02832 38.25H28.4426" stroke="#A3B2B2" stroke-width="0.654981"/>
<path d="M5.02832 62.7109H28.4426" stroke="#A3B2B2" stroke-width="0.654981"/>
<path d="M5.02832 87.334H28.4426" stroke="#A3B2B2" stroke-width="0.654981"/>
<path d="M5.02832 111.795H28.4426" stroke="#A3B2B2" stroke-width="0.654981"/>
<path d="M5.02832 136.256H28.4426" stroke="#A3B2B2" stroke-width="0.654981"/>
<path d="M5.02832 44.3242H28.4426" stroke="#A3B2B2" stroke-width="0.654981"/>
<path d="M5.02832 68.9492H28.4426" stroke="#A3B2B2" stroke-width="0.654981"/>
<path d="M5.02832 93.4102H28.4426" stroke="#A3B2B2" stroke-width="0.654981"/>
<path d="M5.02832 117.871H28.4426" stroke="#A3B2B2" stroke-width="0.654981"/>
<path d="M5.02832 142.494H28.4426" stroke="#A3B2B2" stroke-width="0.654981"/>
<path d="M28.4426 160.88V161.044L24.1997 163.179L19.1712 163.835L18.0712 163.999H16.814L12.2569 163.671L7.69975 162.85L5.02832 161.044V160.88V22.9824L7.69975 19.0424L12.2569 17.2366L15.5569 16.9083L16.814 16.7441L18.0712 16.9083L22.314 17.565L26.5569 19.5349L28.4426 22.3257V22.9824V160.88Z" stroke="black" stroke-width="0.654981"/>
<path d="M19.8003 9.84985V14.4464H13.8289V9.02903L10.2146 6.07407L6.60034 9.19319L6.44319 9.84985V162.358H0.628906V10.014L1.72891 5.08909L4.87176 1.64164L9.27176 0H10.2146H11.1575L15.5575 1.64164L18.5432 5.08909L19.6432 8.86487L19.8003 9.84985Z" fill="#B2BFBF"/>
<path d="M18.2287 9.84893V14.4455H15.243V9.02811L12.5715 5.08817H7.85725L5.02868 9.02811V9.84893V162.357H2.04297V9.84893L3.14297 5.58067L6.60011 2.29738L9.42868 1.47656H10.2144H10.843L14.9287 3.28237L17.7573 7.22231L18.2287 8.86395V9.84893Z" fill="#EFF2F2"/>
<path d="M19.8003 9.84985V14.4464H13.8289V9.02903L10.2146 6.07407L6.60034 9.19319L6.44319 9.84985V162.358H0.628906V10.014L1.72891 5.08909L4.87176 1.64164L9.27176 0H10.2146H11.1575L15.5575 1.64164L18.5432 5.08909L19.6432 8.86487L19.8003 9.84985Z" stroke="black" stroke-width="0.654981"/>
<path d="M8.01465 14.4453H25.6146V15.9228H8.01465V14.4453Z" fill="#666666" stroke="black" stroke-width="0.654981"/>
<path d="M8.01465 14.4467V9.0293H25.6146V14.4467H24.0432V9.68595H9.42893V11.6559H16.0289V9.68595H17.6004V11.6559H24.0432V12.3126H17.6004V14.4467H16.0289V12.3126H9.42893V14.4467H8.01465Z" fill="black"/>
<path d="M22.6289 15.9238H24.0432V20.6846H22.6289V15.9238Z" fill="#E5E5E5" stroke="black" stroke-width="0.654981"/>
<path d="M9.42871 15.9238H10.843V20.6846H9.42871V15.9238Z" fill="#E5E5E5" stroke="black" stroke-width="0.654981"/>
<path d="M0 37.4297H8.01429V39.728H0V37.4297Z" fill="#999999" stroke="black" stroke-width="0.654981"/>
<path d="M0 75.0234H8.01429V77.3217H0V75.0234Z" fill="#999999" stroke="black" stroke-width="0.654981"/>
<path d="M0 131.004H8.01429V133.302H0V131.004Z" fill="#999999" stroke="black" stroke-width="0.654981"/>
<path d="M5.02832 37.4297H8.01403V39.728H5.02832V37.4297Z" fill="#4C4C4C"/>
<path d="M5.02832 75.0234H8.01403V77.3217H5.02832V75.0234Z" fill="#4C4C4C"/>
<path d="M5.02832 131.004H8.01403V133.302H5.02832V131.004Z" fill="#4C4C4C"/>
<path d="M28.4424 83.3945H32.9995" stroke="black" stroke-width="0.654981"/>
<path d="M28.4424 85.8594H32.9995" stroke="black" stroke-width="0.654981"/>
<path d="M28.4424 88.3203H32.9995" stroke="black" stroke-width="0.654981"/>
<path d="M28.4424 90.7832H32.9995" stroke="black" stroke-width="0.654981"/>
<path d="M28.4424 93.2461H32.9995" stroke="black" stroke-width="0.654981"/>
<path d="M28.4424 95.707H32.9995" stroke="black" stroke-width="0.654981"/>
<path d="M28.4424 98.1699H32.9995" stroke="black" stroke-width="0.654981"/>
<path d="M28.4424 100.633H32.9995" stroke="black" stroke-width="0.654981"/>
<path d="M28.4424 103.096H32.9995" stroke="black" stroke-width="0.654981"/>
<path d="M28.4424 105.559H32.9995" stroke="black" stroke-width="0.654981"/>
<path d="M28.4424 108.02H32.9995" stroke="black" stroke-width="0.654981"/>
<path d="M28.4424 110.482H32.9995" stroke="black" stroke-width="0.654981"/>
<path d="M28.4424 112.943H32.9995" stroke="black" stroke-width="0.654981"/>
<path d="M28.4424 115.244H32.9995" stroke="black" stroke-width="0.654981"/>
<path d="M28.4424 117.707H32.9995" stroke="black" stroke-width="0.654981"/>
<path d="M28.4424 120.168H32.9995" stroke="black" stroke-width="0.654981"/>
<path d="M28.4424 122.631H32.9995" stroke="black" stroke-width="0.654981"/>
<path d="M28.4424 125.092H32.9995" stroke="black" stroke-width="0.654981"/>
<path d="M28.4424 127.555H32.9995" stroke="black" stroke-width="0.654981"/>
<path d="M28.4424 130.018H32.9995" stroke="black" stroke-width="0.654981"/>
<path d="M28.4424 132.48H32.9995" stroke="black" stroke-width="0.654981"/>
<path d="M28.4424 134.943H32.9995" stroke="black" stroke-width="0.654981"/>
<path d="M28.4424 137.406H32.9995" stroke="black" stroke-width="0.654981"/>
<path d="M28.4424 139.867H32.9995" stroke="black" stroke-width="0.654981"/>
<path d="M28.4424 142.33H32.9995" stroke="black" stroke-width="0.654981"/>
<path d="M28.4424 144.791H32.9995" stroke="black" stroke-width="0.654981"/>
<path d="M28.4424 147.256H32.9995" stroke="black" stroke-width="0.654981"/>
<path d="M28.4424 149.719H32.9995" stroke="black" stroke-width="0.654981"/>
<path d="M28.4424 152.18H32.9995" stroke="black" stroke-width="0.654981"/>
<path d="M28.4424 154.479H32.9995" stroke="black" stroke-width="0.654981"/>
<path d="M28.4424 156.939H32.9995" stroke="black" stroke-width="0.654981"/>
<path d="M28.4424 159.402H32.9995" stroke="black" stroke-width="0.654981"/>
<path d="M28.4424 80.9316H32.9995" stroke="black" stroke-width="0.654981"/>
<path d="M28.4424 78.4707H32.9995" stroke="black" stroke-width="0.654981"/>
<path d="M28.4424 76.0078H32.9995" stroke="black" stroke-width="0.654981"/>
<path d="M28.4424 73.7109H32.9995" stroke="black" stroke-width="0.654981"/>
<path d="M28.4424 71.248H32.9995" stroke="black" stroke-width="0.654981"/>
<path d="M28.4424 68.7832H32.9995" stroke="black" stroke-width="0.654981"/>
<path d="M28.4424 66.3223H32.9995" stroke="black" stroke-width="0.654981"/>
<path d="M28.4424 63.8594H32.9995" stroke="black" stroke-width="0.654981"/>
<path d="M28.4424 61.3965H32.9995" stroke="black" stroke-width="0.654981"/>
<path d="M28.4424 58.9355H32.9995" stroke="black" stroke-width="0.654981"/>
<path d="M28.4424 56.4727H32.9995" stroke="black" stroke-width="0.654981"/>
<path d="M28.4424 54.0098H32.9995" stroke="black" stroke-width="0.654981"/>
<path d="M28.4424 51.5469H32.9995" stroke="black" stroke-width="0.654981"/>
<path d="M28.4424 49.084H32.9995" stroke="black" stroke-width="0.654981"/>
<path d="M28.4424 46.623H32.9995" stroke="black" stroke-width="0.654981"/>
<path d="M28.4424 44.1602H32.9995" stroke="black" stroke-width="0.654981"/>
<path d="M28.4424 41.6992H32.9995" stroke="black" stroke-width="0.654981"/>
<path d="M28.4424 39.2363H32.9995" stroke="black" stroke-width="0.654981"/>
<path d="M28.4424 36.7715H32.9995" stroke="black" stroke-width="0.654981"/>
<path d="M28.4424 34.4746H32.9995" stroke="black" stroke-width="0.654981"/>
<path d="M28.4424 32.0117H32.9995" stroke="black" stroke-width="0.654981"/>
<path d="M28.4424 29.5508H32.9995" stroke="black" stroke-width="0.654981"/>
<path d="M30.6426 29.0566V161.537" stroke="black" stroke-width="0.654981"/>
<path d="M33 161.537V29.0566" stroke="black" stroke-width="0.654981"/>
<path d="M32.9995 39.0708H28.4424V38.25H32.9995V39.0708Z" fill="black"/>
</g>
<defs>
<clipPath id="clip0_2109_169303">
<rect width="33" height="164" fill="white"/>
</clipPath>
</defs>
</svg>
