<svg width="107" height="150" viewBox="0 0 107 150" fill="none" xmlns="http://www.w3.org/2000/svg">
<g clip-path="url(#clip0_2109_171473)">
<path d="M13.3545 28.2291V3.00391H93.6447V28.2291H13.3545Z" fill="#666666"/>
<path d="M13.3545 24.6254V6.60742H93.6447V24.6254H13.3545Z" fill="#919191"/>
<path d="M13.3545 21.0217V10.2109H93.6447V21.0217H13.3545Z" fill="#BABABA"/>
<path d="M13.3545 17.4181V13.8145H93.6447V17.4181H13.3545Z" fill="#E5E5E5"/>
<path d="M13.3545 28.2291V3.00391H93.6447V28.2291H13.3545Z" stroke="black" stroke-width="0.368068"/>
<path d="M107 31.2312V0H93.6455V31.2312H107Z" fill="#666666"/>
<path d="M107 26.7259V4.35352H93.6455V26.7259H107Z" fill="#919191"/>
<path d="M107 22.2227V8.85938H93.6455V22.2227H107Z" fill="#BABABA"/>
<path d="M107 17.8678V13.3633H93.6455V17.8678H107Z" fill="#E5E5E5"/>
<path d="M107 31.2312V0H93.6455V31.2312H107Z" stroke="black" stroke-width="0.368068"/>
<path d="M13.194 31.2312V0H0V31.2312H13.194Z" fill="#666666"/>
<path d="M13.194 26.7259V4.35352H0V26.7259H13.194Z" fill="#919191"/>
<path d="M13.194 22.2227V8.85938H0V22.2227H13.194Z" fill="#BABABA"/>
<path d="M13.194 17.8678V13.3633H0V17.8678H13.194Z" fill="#E5E5E5"/>
<path d="M13.194 31.2312V0H0V31.2312H13.194Z" stroke="black" stroke-width="0.368068"/>
<path d="M100.403 43.6937L100.081 39.1892L99.4373 34.985L98.311 30.7808L96.7019 26.7267L94.6102 22.8228L92.3576 19.2192L89.6222 15.9159L86.5651 12.7628L83.1861 9.90991L79.6463 7.50751L75.7846 5.25526L71.7621 3.45345L67.4177 1.95195L62.9125 0.900901L58.2463 0.15015L55.8328 0H53.4192H51.0057L46.3395 0.45045L41.8343 1.35135L37.4899 2.55255L33.1455 4.2042L29.2839 6.30631L25.4222 8.70871L22.0433 11.4114L17.3771 15.9159L14.6418 19.2192L12.2283 22.8228L10.2974 26.7267L8.68841 30.7808L7.56209 34.985L6.91848 39.1892L6.59668 41.4414V43.6937V118.619L6.91848 123.123L8.52751 128.529L11.5846 132.733L16.0899 135.586L22.0433 137.087L24.2959 137.387H26.7095H29.123H80.2899L84.9561 137.087L90.9095 135.586L95.2538 132.733L98.311 128.529L100.081 123.123L100.242 120.871L100.403 118.619V116.366V43.6937Z" fill="#666666"/>
<path d="M92.3584 43.6937L92.1975 39.1892L91.5539 34.8348L90.5884 30.6306L89.3012 26.7267L87.6922 22.8228L85.7614 19.2192L82.2215 14.2643L78.199 9.90991L73.6937 6.30631L68.7057 3.3033L63.2351 1.35135L57.4426 0.15015L55.5118 0H53.5809H51.4892L45.6967 0.750751L40.226 2.55255L35.0772 5.25526L30.411 8.55856L26.0666 12.7628L22.3659 17.5676L20.2742 21.021L18.5042 24.7748L17.0561 28.6787L15.9298 32.7327L15.1253 37.0871L14.8035 41.4414L14.6426 43.6937V45.9459V57.6577L14.8035 62.3123V102.252L14.6426 106.907V118.619L14.9644 122.973L16.2516 128.529L18.826 132.733L22.5268 135.586L27.5148 137.087L29.2847 137.387H31.3764H33.4681H75.7854L81.417 136.787L85.7614 134.685L89.1403 131.381L91.393 126.877L92.3584 120.871V118.619V116.216V43.6937Z" fill="#7F7F7F"/>
<path d="M84.3131 43.6937L84.1522 39.1892L83.6695 34.8348L82.8649 30.6306L81.8995 26.7267L80.6123 22.8228L78.1988 17.5676L75.3025 12.7628L71.9236 8.55856L68.2228 5.25526L64.0394 2.55255L59.695 0.750751L55.1898 0H53.5807H51.9717L47.3055 0.750751L42.9612 2.55255L38.9386 5.25526L35.077 8.55856L31.8589 12.7628L28.8018 17.5676L26.5492 22.8228L25.101 26.7267L24.1356 30.6306L23.3311 34.8348L22.8484 39.1892V41.4414L22.6875 43.6937V45.9459V57.6577L22.8484 62.3123V102.252L22.6875 106.907V118.619L23.0093 122.973L23.9747 128.529L26.0664 132.733L30.2499 136.186L34.4334 137.387H36.0424H37.6514H71.1191L75.6243 136.787L80.1296 133.784L82.3822 130.03L83.8304 124.925L84.3131 120.871V118.619V116.216V43.6937Z" fill="#999999"/>
<path d="M76.2678 43.6937V39.1892L75.7851 34.8348L74.9805 28.6787L73.5324 22.8228L71.7625 17.5676L69.6708 12.7628L67.0963 8.55856L64.361 5.25526L60.3384 1.8018L55.8332 0.15015L54.7069 0H53.5805H52.2933L47.7881 1.35135L43.6046 4.2042L40.8693 7.35736L38.2948 11.2613L36.0422 15.9159L34.1114 21.021L32.6632 26.7267L31.5369 32.7327L30.8933 39.1892V41.4414L30.7324 43.6937V45.9459V57.6577L30.8933 62.3123V102.252L30.7324 106.907V118.619L30.8933 122.973L31.6978 128.529L33.3069 132.733L36.364 136.186L39.4211 137.387H40.5475H42.8001H66.6136L70.7971 136.186L73.8542 132.733L75.3023 128.529L76.1069 122.973L76.2678 120.871V118.619V116.216V43.6937Z" fill="#B2B2B2"/>
<path d="M68.2225 43.6937V39.1892L67.9007 34.8348L67.4179 28.6787L66.4525 22.8228L65.3262 17.5676L64.039 12.7628L62.43 8.55856L59.8555 4.2042L56.4766 0.750751L54.224 0H53.5804H52.7758L48.4315 2.55255L45.857 6.30631L43.6044 11.2613L42.1563 15.9159L40.8691 21.021L40.0646 26.7267L39.2601 32.7327L38.9382 39.1892L38.7773 41.4414V43.6937V57.6577L38.9382 62.3123V102.252L38.7773 106.907V120.871L39.2601 126.877L40.0646 131.381L41.8345 135.586L44.4089 137.387H45.0525H46.6616H61.9473L65.8089 134.685L67.4179 130.03L68.0616 124.925L68.2225 122.973V120.871V118.619V43.6937Z" fill="#CCCCCC"/>
<path d="M60.1772 43.6937V39.1892L60.0162 32.8829L59.6944 26.7267L59.2117 21.021L58.5681 15.9159L57.9245 11.4114L56.9591 6.30631L55.511 1.95195L53.7411 0H53.4193H53.0975L50.8448 3.45345L49.7185 7.50751L48.7531 12.7628L48.1095 17.5676L47.6268 22.8228L47.1441 28.6787L46.9832 34.985L46.8223 39.1892V41.4414V43.6937V120.871L46.9832 126.877L47.305 131.532L48.1095 135.586L49.2358 137.387H49.7185H51.0057H57.2809H57.6027L59.5335 132.733L60.0162 126.877L60.1772 123.123V120.871V118.619V43.6937Z" fill="#E5E5E5"/>
<path d="M100.403 43.6937L100.081 39.1892L99.4373 34.985L98.311 30.7808L96.7019 26.7267L94.6102 22.8228L92.3576 19.2192L89.6222 15.9159L86.5651 12.7628L83.1861 9.90991L79.6463 7.50751L75.7846 5.25526L71.7621 3.45345L67.4177 1.95195L62.9125 0.900901L58.2463 0.15015L55.8328 0H53.4192H51.0057L46.3395 0.45045L41.8343 1.35135L37.4899 2.55255L33.1456 4.2042L29.2839 6.30631L25.4222 8.70871L22.0433 11.4114L17.3771 15.9159L14.6418 19.2192L12.2283 22.8228L10.2974 26.7267L8.68841 30.7808L7.56209 34.985L6.91848 39.1892L6.59668 41.4414V43.6937V118.619L6.91848 123.123L8.52751 128.529L11.5846 132.733L16.0899 135.586L22.0433 137.087L24.2959 137.387H26.7095H29.123H80.2899L84.9561 137.087L90.9095 135.586L95.2538 132.733L98.311 128.529L100.081 123.123L100.242 120.871L100.403 118.619V116.366V43.6937Z" stroke="black" stroke-width="0.368068"/>
<path d="M0 65.6152H107V84.384H0V65.6152Z" fill="#666666"/>
<path d="M9.17188 65.6152H97.9899V84.2339H9.17188V65.6152Z" fill="#7F7F7F"/>
<path d="M18.3428 65.6152H88.6571V84.2339H18.3428V65.6152Z" fill="#999999"/>
<path d="M27.5146 65.6152H79.647V84.384H27.5146V65.6152Z" fill="#B2B2B2"/>
<path d="M36.6855 65.6152H70.3141V84.384H36.6855V65.6152Z" fill="#CCCCCC"/>
<path d="M45.8574 65.6152H61.1431V84.5342H45.8574V65.6152Z" fill="#E5E5E5"/>
<path d="M0 65.6152H107V84.384H0V65.6152Z" stroke="black" stroke-width="0.368068"/>
<path d="M0 74.9258H107" stroke="black" stroke-width="0.368068"/>
<path d="M36.6855 137.537H70.1532V149.849H36.6855V137.537Z" fill="#666666"/>
<path d="M41.5127 137.537H65.4871V149.849H41.5127V137.537Z" fill="#919191"/>
<path d="M46.3398 137.537H60.6601V149.849H46.3398V137.537Z" fill="#BABABA"/>
<path d="M51.0059 137.537H55.8329V149.849H51.0059V137.537Z" fill="#E5E5E5"/>
<path d="M36.6855 137.537H70.1532V149.849H36.6855V137.537Z" stroke="black" stroke-width="0.368068"/>
<path d="M53.4193 62.312C58.9289 62.312 63.3952 58.1441 63.3952 53.0027C63.3952 47.8613 58.9289 43.6934 53.4193 43.6934C47.9097 43.6934 43.4434 47.8613 43.4434 53.0027C43.4434 58.1441 47.9097 62.312 53.4193 62.312Z" fill="#CCCCCC" stroke="white" stroke-width="0.368068"/>
<path d="M60.6601 46.3965L61.7865 47.898L62.7519 49.3995L63.3955 51.2013L63.5564 53.0031L63.3955 54.955L62.7519 56.7568L61.7865 58.2583L60.6601 59.6097L59.0511 60.8109L57.4421 61.7118L55.5113 62.1623L53.4195 62.4626L51.4887 62.1623L49.5579 61.7118L47.9489 60.8109L46.3398 59.7598" stroke="#7F7F7F" stroke-width="0.368068"/>
<path d="M39.0996 37.3871H67.9011L65.4876 21.7715H41.5131L39.0996 37.3871Z" fill="#7F4C4C" stroke="black" stroke-width="0.368068"/>
<path d="M41.5127 35.2847H65.4871L63.7172 24.0234H43.2826L41.5127 35.2847Z" fill="#990000" stroke="black" stroke-width="0.368068"/>
<path d="M53.42 59.3102C55.2861 59.3102 56.7989 57.8985 56.7989 56.1571C56.7989 54.4156 55.2861 53.0039 53.42 53.0039C51.5538 53.0039 50.041 54.4156 50.041 56.1571C50.041 57.8985 51.5538 59.3102 53.42 59.3102Z" fill="#A6A6A6" stroke="black" stroke-width="0.368068"/>
<path d="M87.8525 65.6148H98.633V61.7109H87.8525V65.6148Z" fill="#7F7F7F" stroke="black" stroke-width="0.368068"/>
<path d="M8.20605 65.6148H19.1474V61.7109H8.20605V65.6148Z" fill="#7F7F7F" stroke="black" stroke-width="0.368068"/>
<path d="M63.5566 65.6148H74.498V61.7109H63.5566V65.6148Z" fill="#BFBFBF" stroke="black" stroke-width="0.368068"/>
<path d="M32.6631 65.6148H43.4435V61.7109H32.6631V65.6148Z" fill="#BFBFBF" stroke="black" stroke-width="0.368068"/>
</g>
<defs>
<clipPath id="clip0_2109_171473">
<rect width="107" height="150" fill="white"/>
</clipPath>
</defs>
</svg>
