<svg width="150" height="150" viewBox="0 0 150 150" fill="none" xmlns="http://www.w3.org/2000/svg">
<path d="M135.097 142.943V105.855H1.62012V142.943L1.94409 143.693L9.71947 145.946L21.0586 147.297L31.1018 148.198L42.4409 148.648L54.7519 149.099L68.3588 149.249L81.6417 149.099L94.2767 148.648L105.616 148.198L115.335 147.297L126.998 145.946L134.773 143.693L135.097 142.943Z" fill="#7387A6"/>
<path d="M1.62012 53.3027V105.855H135.097V93.543H148.38V84.2337H135.097V62.612H148.38V53.3027H1.62012Z" fill="#B2B2E5"/>
<path d="M135.097 13.0623V53.1524L1.62012 53.3026V13.0623V12.6119L9.71947 10.2095L19.1147 8.85811L31.4257 7.95721L40.821 7.35661L51.5121 7.05631V2.2515H45.0326V0.75H91.6849V2.2515H84.8815L85.2054 7.05631L95.5726 7.35661L105.292 7.95721L117.603 8.85811L126.998 10.2095L134.773 12.6119L135.097 13.0623Z" fill="#FFCC00"/>
<path d="M121.814 13.064V53.1541H14.9023V13.064L21.3818 10.061L32.073 8.55952L42.4401 7.65862L54.7512 6.90787L55.0751 2.25321H49.5676V0.601562H87.1486V2.25321H81.641L81.965 6.90787L94.276 7.65862L104.643 8.55952L113.066 9.61057L121.166 12.013L121.814 13.064Z" fill="#FFC400"/>
<path d="M108.531 13.064V53.1541H28.1855V13.064L34.665 9.61057L43.4123 8.25922L55.0754 7.20817L58.3151 6.90787V2.25321H54.4274V0.601562H82.2892V2.25321H78.4015V6.90787L87.7968 7.65862L97.84 8.85982L106.263 11.1121L108.531 13.064Z" fill="#FFBF00"/>
<path d="M95.2484 13.064V53.1541H41.4688V13.064L47.3003 9.31027L55.3996 7.65862L61.5551 6.90787L61.8791 2.25321H58.9634V0.601562H77.7538V2.25321H75.1621V6.90787L84.8813 8.25922L92.9806 10.5115L95.2484 13.064Z" fill="#FFB800"/>
<path d="M81.6418 13.0623V53.1524L54.752 53.3026V13.0623L58.9636 8.55781L64.7951 7.05631L65.1191 2.2515H63.4993V0.75H72.8945V2.2515H71.5986V7.05631L79.05 9.30856L81.6418 13.0623Z" fill="#FFB200"/>
<path d="M1.62012 53.3027V65.615L55.0758 90.3898V147.597H81.6417V90.3898L135.097 65.615V53.3027H1.62012Z" fill="#7FE57F"/>
<path d="M55.0752 146.097V142.943" stroke="black" stroke-width="0.441111"/>
<path d="M55.0752 139.94V136.787" stroke="black" stroke-width="0.441111"/>
<path d="M55.0752 133.634V130.631" stroke="black" stroke-width="0.441111"/>
<path d="M55.0752 127.478V124.475" stroke="black" stroke-width="0.441111"/>
<path d="M55.0752 121.321V118.318" stroke="black" stroke-width="0.441111"/>
<path d="M55.0752 115.165V112.012" stroke="black" stroke-width="0.441111"/>
<path d="M55.0752 109.009V105.855" stroke="black" stroke-width="0.441111"/>
<path d="M55.0752 102.702V99.6992" stroke="black" stroke-width="0.441111"/>
<path d="M55.0752 96.546V93.543" stroke="black" stroke-width="0.441111"/>
<path d="M54.7512 90.3909L49.8916 88.1387" stroke="black" stroke-width="0.441111"/>
<path d="M45.3567 86.0355L40.4971 83.7832" stroke="black" stroke-width="0.441111"/>
<path d="M35.9612 81.6819L31.1016 79.4297" stroke="black" stroke-width="0.441111"/>
<path d="M26.5657 77.3265L21.7061 75.0742" stroke="black" stroke-width="0.441111"/>
<path d="M17.1702 72.973L12.3105 70.7207" stroke="black" stroke-width="0.441111"/>
<path d="M7.45165 68.4693L2.91602 66.3672" stroke="black" stroke-width="0.441111"/>
<path d="M81.6416 146.097V142.943" stroke="black" stroke-width="0.441111"/>
<path d="M81.6416 139.94V136.787" stroke="black" stroke-width="0.441111"/>
<path d="M81.6416 133.634V130.631" stroke="black" stroke-width="0.441111"/>
<path d="M81.6416 127.478V124.475" stroke="black" stroke-width="0.441111"/>
<path d="M81.6416 121.321V118.318" stroke="black" stroke-width="0.441111"/>
<path d="M81.6416 115.165V112.012" stroke="black" stroke-width="0.441111"/>
<path d="M81.6416 109.009V105.855" stroke="black" stroke-width="0.441111"/>
<path d="M81.6416 102.702V99.6992" stroke="black" stroke-width="0.441111"/>
<path d="M81.6416 96.546V93.543" stroke="black" stroke-width="0.441111"/>
<path d="M81.6416 90.5413L86.1772 88.2891" stroke="black" stroke-width="0.441111"/>
<path d="M91.0371 86.0357L95.8967 83.9336" stroke="black" stroke-width="0.441111"/>
<path d="M100.432 81.6822L105.291 79.5801" stroke="black" stroke-width="0.441111"/>
<path d="M110.151 77.3267L114.687 75.2246" stroke="black" stroke-width="0.441111"/>
<path d="M119.547 72.973L124.083 70.7207" stroke="black" stroke-width="0.441111"/>
<path d="M128.941 68.6194L133.477 66.3672" stroke="black" stroke-width="0.441111"/>
<path d="M14.9023 53.1523V65.6148L57.6669 90.3896V147.597H79.0492V90.3896L121.814 65.6148V53.1523H14.9023Z" fill="#78DE78"/>
<path d="M28.5098 53.1523V65.6148L60.2592 90.3896V147.597H76.4579V90.3896L108.531 65.6148V53.1523H28.5098Z" fill="#73D973"/>
<path d="M41.793 53.1523V65.6148L63.1753 90.3896V147.597H73.8664V90.3896L94.9247 65.6148V53.1523H41.793Z" fill="#6BD16B"/>
<path d="M55.0752 53.3027V65.615L65.7663 90.3898V147.597H70.9499V90.3898L81.6411 65.615V53.3027H55.0752Z" fill="#66CC66"/>
<path d="M135.097 142.942V93.5428H148.38V84.2335H135.097V62.6119H148.38V53.3026H135.097V13.0623L134.773 12.6119L126.998 10.2095L117.603 8.85811L105.292 7.95721L95.5726 7.35661L85.2054 7.05631L84.8815 2.2515H91.6849V0.75H45.0326V2.2515H51.5121V7.05631L40.821 7.35661L31.4257 7.95721L19.1147 8.85811L9.71947 10.2095L1.62012 12.6119V13.0623V142.942L1.94409 143.693L9.71947 145.945L21.0586 147.297L31.1018 148.197L42.4409 148.648L54.7519 149.098H61.5553L68.3588 149.248L75.1622 149.098L88.1212 148.948L100.108 148.498L110.799 147.747L119.871 146.846L129.914 145.495L134.773 143.693L135.097 142.942Z" stroke="black" stroke-width="0.441111"/>
<path d="M108.207 145.045L110.151 146.696L114.687 146.847L115.01 144.895L110.799 143.693L108.207 145.045Z" fill="#990000" stroke="black" stroke-width="0.441111"/>
<path d="M95.5723 145.495V147.296L99.46 148.348L101.728 146.696L99.136 144.594L95.5723 145.495Z" fill="#990000" stroke="black" stroke-width="0.441111"/>
<path d="M98.488 143.995L96.8682 142.343L92.6565 141.893L91.6846 143.845L95.5723 145.346L98.488 143.995Z" fill="#990000" stroke="black" stroke-width="0.441111"/>
<path d="M101.728 145.496L103.023 147.148L107.559 147.598L108.531 145.646L104.643 144.145L101.728 145.496Z" fill="#990000" stroke="black" stroke-width="0.441111"/>
<path d="M85.8535 142.943L81.9658 143.394L80.6699 145.346L84.8816 146.097L88.4453 144.445L85.8535 142.943Z" fill="#990000" stroke="black" stroke-width="0.441111"/>
<path d="M93.9529 147.897L94.6008 146.095L91.3611 144.744L88.4453 146.246L90.0652 148.348L93.9529 147.897Z" fill="#990000" stroke="black" stroke-width="0.441111"/>
<path d="M73.2178 143.543L74.1897 145.345L78.0774 146.096L79.6973 144.144L76.4575 142.492L73.2178 143.543Z" fill="#990000" stroke="black" stroke-width="0.441111"/>
<path d="M73.2185 148.199L72.2466 146.397L68.0349 145.646L66.415 147.448L69.9788 149.25L73.2185 148.199Z" fill="#990000" stroke="black" stroke-width="0.441111"/>
<path d="M80.0212 143.694L83.9089 143.544L86.1767 141.592L82.2891 140.691L78.4014 142.043L80.0212 143.694Z" fill="#990000" stroke="black" stroke-width="0.441111"/>
<path d="M84.8811 146.096L80.9934 146.696L80.0215 148.798L84.2331 149.249L87.4729 147.447L84.8811 146.096Z" fill="#990000" stroke="black" stroke-width="0.441111"/>
<path d="M68.6829 146.096L71.5986 144.895L70.9507 142.793L66.415 143.093L65.1191 145.346L68.6829 146.096Z" fill="#990000" stroke="black" stroke-width="0.441111"/>
<path d="M76.1335 145.945L73.2178 147.147L73.8657 149.249L78.0774 148.948L79.6973 146.696L76.1335 145.945Z" fill="#990000" stroke="black" stroke-width="0.441111"/>
<path d="M66.415 147.597L64.4712 146.096H59.9355V148.048L64.4712 149.099L66.415 147.597Z" fill="#990000" stroke="black" stroke-width="0.441111"/>
<path d="M59.9353 146.547L57.9914 148.198L53.7798 148.348L53.1318 146.397L57.6675 145.195L59.9353 146.547Z" fill="#990000" stroke="black" stroke-width="0.441111"/>
<path d="M24.9455 144.745V146.546L21.0579 147.598L18.79 145.946L21.3818 143.844L24.9455 144.745Z" fill="#990000" stroke="black" stroke-width="0.441111"/>
<path d="M28.1855 143.243L29.4814 141.441L34.0171 141.141L34.989 143.093L30.7773 144.594L28.1855 143.243Z" fill="#990000" stroke="black" stroke-width="0.441111"/>
<path d="M61.5547 141.141L60.2588 142.792L55.7231 143.393L55.0752 141.291L58.6389 139.939L61.5547 141.141Z" fill="#990000" stroke="black" stroke-width="0.441111"/>
<path d="M65.7666 139.939L69.6543 140.39L70.9502 142.192L66.7385 142.942L63.1748 141.291L65.7666 139.939Z" fill="#990000" stroke="black" stroke-width="0.441111"/>
<path d="M32.7212 146.997L32.0732 145.195L35.313 143.844L38.2287 145.345L36.6089 147.447L32.7212 146.997Z" fill="#990000" stroke="black" stroke-width="0.441111"/>
<path d="M49.8916 141.141L48.9197 143.093L45.032 143.844L43.4121 141.892L46.9758 140.24L49.8916 141.141Z" fill="#990000" stroke="black" stroke-width="0.441111"/>
<path d="M38.2285 146.697L39.2004 144.895L43.4121 144.145L45.032 145.946L41.4683 147.598L38.2285 146.697Z" fill="#990000" stroke="black" stroke-width="0.441111"/>
<path d="M41.469 144.595L37.5813 144.445L35.3135 142.493L39.2012 141.592L43.4128 142.943L41.469 144.595Z" fill="#990000" stroke="black" stroke-width="0.441111"/>
<path d="M60.2595 142.943L63.8232 143.694L65.1191 145.646L60.5835 146.097L57.3438 144.295L60.2595 142.943Z" fill="#990000" stroke="black" stroke-width="0.441111"/>
<path d="M52.8074 145.346L49.8916 144.145L50.5395 142.043L55.0752 142.343L56.6951 144.596L52.8074 145.346Z" fill="#990000" stroke="black" stroke-width="0.441111"/>
<path d="M28.51 144.594L31.4258 145.645L31.1018 147.747L26.5662 147.597L24.9463 145.345L28.51 144.594Z" fill="#990000" stroke="black" stroke-width="0.441111"/>
<path d="M45.0322 146.847L47.3 145.346H51.5117V147.298L47.3 148.349L45.0322 146.847Z" fill="#990000" stroke="black" stroke-width="0.441111"/>
<path d="M1.62012 63.3626L3.56396 61.7109H8.0996V63.813L3.56396 64.8641L1.62012 63.3626Z" fill="#990000" stroke="black" stroke-width="0.441111"/>
<path d="M13.9307 57.0566L17.8183 57.6572L18.7903 59.6092L14.2546 60.0596L11.3389 58.2578L13.9307 57.0566Z" fill="#990000" stroke="black" stroke-width="0.441111"/>
<path d="M8.0996 54.3538L7.12768 56.1556L3.23999 56.9063L1.62012 54.9544L4.85986 53.3027L8.0996 54.3538Z" fill="#990000" stroke="black" stroke-width="0.441111"/>
<path d="M17.1709 54.0547L21.0586 54.5051L22.3545 56.4571L18.4668 57.2078L14.5791 55.5562L17.1709 54.0547Z" fill="#990000" stroke="black" stroke-width="0.441111"/>
<path d="M14.9031 55.2559L13.6072 57.0577L9.07153 57.5081L8.09961 55.406L11.9873 54.0547L14.9031 55.2559Z" fill="#990000" stroke="black" stroke-width="0.441111"/>
<path d="M1.2959 59.0081L2.91577 57.2063L7.12743 56.7559L8.09935 58.858L4.21167 60.2093L1.2959 59.0081Z" fill="#990000" stroke="black" stroke-width="0.441111"/>
<path d="M11.9875 59.0086V60.8104L8.42382 62.0116L5.83203 60.2098L8.42382 58.2578L11.9875 59.0086Z" fill="#990000" stroke="black" stroke-width="0.441111"/>
<path d="M134.773 63.3626L132.83 61.7109H128.294V63.813L132.83 64.8641L134.773 63.3626Z" fill="#990000" stroke="black" stroke-width="0.441111"/>
<path d="M122.462 57.0566L118.898 57.6572L117.603 59.6092L122.138 60.0596L125.054 58.2578L122.462 57.0566Z" fill="#990000" stroke="black" stroke-width="0.441111"/>
<path d="M128.294 54.3538L129.266 56.1556L133.154 56.9063L134.773 54.9544L131.534 53.3027L128.294 54.3538Z" fill="#990000" stroke="black" stroke-width="0.441111"/>
<path d="M119.223 54.0547L115.335 54.5051L114.039 56.4571L118.251 57.2078L121.814 55.5562L119.223 54.0547Z" fill="#990000" stroke="black" stroke-width="0.441111"/>
<path d="M121.49 55.2559L123.11 57.0577L127.322 57.5081L128.294 55.406L124.406 54.0547L121.49 55.2559Z" fill="#990000" stroke="black" stroke-width="0.441111"/>
<path d="M135.097 59.0081L133.478 57.2063L129.266 56.7559L128.294 58.858L132.506 60.2093L135.097 59.0081Z" fill="#990000" stroke="black" stroke-width="0.441111"/>
<path d="M124.406 59.0086V60.8104L128.294 62.0116L130.562 60.2098L127.97 58.2578L124.406 59.0086Z" fill="#990000" stroke="black" stroke-width="0.441111"/>
<path d="M11.9875 65.0144V66.8162L8.42382 68.0174L5.83203 66.2156L8.42382 64.2637L11.9875 65.0144Z" fill="#990000" stroke="black" stroke-width="0.441111"/>
<path d="M124.406 65.0144V66.8162L128.294 68.0174L130.562 66.2156L127.97 64.2637L124.406 65.0144Z" fill="#990000" stroke="black" stroke-width="0.441111"/>
<path d="M13.9307 68.0176L17.8183 68.6182L18.7903 70.5701L14.2546 71.0206L11.3389 69.3689L13.9307 68.0176Z" fill="#990000" stroke="black" stroke-width="0.441111"/>
<path d="M122.462 68.0176L118.898 68.6182L117.603 70.5701L122.138 71.0206L125.054 69.3689L122.462 68.0176Z" fill="#990000" stroke="black" stroke-width="0.441111"/>
</svg>
