<svg width="150" height="150" viewBox="0 0 150 150" fill="none" xmlns="http://www.w3.org/2000/svg">
<path d="M148.323 146.095V50.1494L127.853 34.6839V3.90315L127.182 3.1524L117.786 1.6509L106.712 0.90015L100 0.75H96.6448H93.2891L82.8864 0.90015L71.1414 1.3506L61.4099 2.5518L59.0609 3.1524L58.7253 3.90315V34.6839L37.9199 50.1494V146.095L38.9266 146.696L50.336 148.047L62.081 148.648L76.8461 149.098H81.8797L87.5844 149.249H92.9535L104.027 149.098L114.43 148.948L128.188 148.498L138.927 147.747L147.316 146.696L147.987 146.396L148.323 146.095Z" fill="#B2B2B2"/>
<path d="M142.953 145.947V50.1511L124.497 34.6856V2.70366V2.55351L115.437 1.50246L105.37 0.901863L99.6649 0.751713L96.6448 0.601562H93.2891L81.2085 0.901863L71.1414 1.50246L62.081 2.55351V2.70366V34.6856L43.2891 50.1511V53.1541V68.1691V74.1751V125.076V131.082V145.947L43.6246 146.247L51.6783 147.749L61.4099 148.499L73.826 148.95L83.2219 149.1H88.2555H93.2891H103.356L116.779 148.8L128.524 148.199L138.927 147.298L142.953 146.247V145.947Z" fill="#BABABA"/>
<path d="M137.92 145.947V50.1511L121.141 34.6856V2.10306L110.739 1.20216L101.343 0.751713H98.6582L96.3092 0.601562H93.2891L82.5508 0.901863L71.8126 1.50246L65.4367 1.95291V2.10306V34.6856L48.6582 50.1511V53.1541V68.1691V74.1751V125.076V131.082V145.947L48.9938 146.247L58.7253 148.049L68.4569 148.65L79.8663 148.95L84.2287 149.1H88.5911H93.2891L106.376 148.95L118.121 148.65L127.517 148.049L136.913 146.698L137.584 146.247L137.92 145.947Z" fill="#C4C4C4"/>
<path d="M132.215 145.947V50.1511L117.786 34.6856V1.65261L107.047 1.05201L98.3226 0.751713L95.9737 0.601562H93.2891L81.5441 0.901863L71.8126 1.50246L68.7924 1.65261V34.6856L54.0273 50.1511V53.1541V68.1691V74.1751V125.076V131.082V145.947L54.6985 146.698L65.4367 148.199L77.8528 148.95L85.2354 149.1H89.2622H93.2891L104.698 148.95L115.101 148.65L125.504 147.749L131.544 146.698L132.215 146.247V145.947Z" fill="#CCCCCC"/>
<path d="M127.182 145.947V50.1511L114.43 34.6856V1.50246L105.034 0.901863L97.6515 0.751713L95.3025 0.601562H93.2891L83.222 0.901863L73.826 1.35231L72.1482 1.50246V34.6856L59.3965 50.1511V53.1541V68.1691V74.1751V125.076V131.082V145.947L60.0676 146.698L69.128 148.199L79.8663 148.95L86.5777 149.1H89.5978H93.2891L103.356 148.95L114.766 148.499L124.497 147.298L126.511 146.698L126.846 146.247L127.182 145.947Z" fill="#D4D4D4"/>
<path d="M121.476 145.947V50.1511L111.073 34.6856V1.20216L99.9995 0.751713H96.6438L94.966 0.601562H93.2881L83.221 0.751713L75.5029 1.20216V34.6856L64.7646 50.1511V53.1541V68.1691V74.1751V125.076V131.082V145.947V146.247L73.1539 148.199L84.8989 148.95L87.5834 149.1H90.268H93.2881L104.362 148.95L115.1 148.049L121.476 146.247V145.947Z" fill="#DEDEDE"/>
<path d="M116.443 145.947V50.1511L107.718 34.6856V1.05201L98.6573 0.751713L95.9727 0.601562H93.2882L82.8855 0.901863L78.8586 1.05201V34.6856L70.1338 50.1511V53.1541V68.1691V74.1751V125.076V131.082V145.947L78.5231 148.499L88.5902 149.1H90.9392H93.2882L104.026 148.8L113.422 147.448L116.107 146.247L116.443 145.947Z" fill="#E5E5E5"/>
<path d="M110.738 145.947V50.1511L104.362 34.6856V1.05201L97.6506 0.751713L95.3016 0.601562H93.2882L82.8855 0.901863L82.2143 1.05201V34.6856L75.5029 50.1511V53.1541V68.1691V74.1751V125.076V131.082V145.947L83.2211 148.65L89.5969 149.1H91.2747H93.2882L103.02 148.65L110.738 146.247V145.947Z" fill="#EDEDED"/>
<path d="M105.704 145.947V50.1511L100.671 34.6856V0.901863L96.3083 0.751713L94.6305 0.601562H93.2882L85.5701 0.901863V34.6856L80.8721 50.1511V53.1541V68.1691V74.1751V125.076V131.082V145.947V146.698L90.6036 149.1H93.2882H95.6372L104.698 147.298L105.369 146.698L105.704 145.947Z" fill="#F7F7F7"/>
<path d="M99.9996 146.095V50.1494L97.315 34.6839V1.0503L93.9593 0.75L88.9258 0.90015L88.5902 1.0503V34.6839L86.2412 50.1494V146.095L88.2546 148.348L92.9526 149.249L97.9862 148.348L99.9996 146.095Z" fill="white"/>
<path d="M37.9199 51.0508H148.323V52.5523H37.9199V51.0508Z" fill="#999999"/>
<path d="M37.9199 50.1504H148.323V51.0513H37.9199V50.1504Z" fill="#4C4C4C"/>
<path d="M58.7246 34.6855H127.852" stroke="black" stroke-width="0.448936"/>
<path d="M37.9199 112.012H148.323V124.474H37.9199V112.012Z" fill="#A6A6A6"/>
<path d="M43.2891 112.012H142.953V124.474H43.2891V112.012Z" fill="#ADADAD"/>
<path d="M48.6582 112.012H137.92V124.474H48.6582V112.012Z" fill="#B8B8B8"/>
<path d="M54.0273 112.012H132.215V124.474H54.0273V112.012Z" fill="#BFBFBF"/>
<path d="M59.3965 112.012H127.182V124.474H59.3965V112.012Z" fill="#C7C7C7"/>
<path d="M64.7646 112.012H121.476V124.474H64.7646V112.012Z" fill="#D1D1D1"/>
<path d="M70.1338 112.012H116.443V124.474H70.1338V112.012Z" fill="#D9D9D9"/>
<path d="M75.5029 112.012H110.738V124.474H75.5029V112.012Z" fill="#E0E0E0"/>
<path d="M80.8721 112.012H105.704V124.474H80.8721V112.012Z" fill="#EBEBEB"/>
<path d="M86.2412 112.012H99.9996V124.474H86.2412V112.012Z" fill="#F2F2F2"/>
<path d="M60.0674 19.2188H125.839V25.5251H60.0674V19.2188Z" fill="#A6A6A6"/>
<path d="M63.4229 19.2188H122.819V25.5251H63.4229V19.2188Z" fill="#ADADAD"/>
<path d="M66.7783 19.2188H119.463V25.5251H66.7783V19.2188Z" fill="#B8B8B8"/>
<path d="M69.7988 19.2188H116.443V25.5251H69.7988V19.2188Z" fill="#BFBFBF"/>
<path d="M73.1543 19.2188H113.087V25.5251H73.1543V19.2188Z" fill="#C7C7C7"/>
<path d="M76.5098 19.2188H110.067V25.5251H76.5098V19.2188Z" fill="#D1D1D1"/>
<path d="M79.5303 19.2188H107.047V25.5251H79.5303V19.2188Z" fill="#D9D9D9"/>
<path d="M82.5508 19.2188H103.692V25.5251H82.5508V19.2188Z" fill="#E0E0E0"/>
<path d="M85.9062 19.2188H100.336V25.5251H85.9062V19.2188Z" fill="#EBEBEB"/>
<path d="M88.9258 19.2188H97.315V25.5251H88.9258V19.2188Z" fill="#F2F2F2"/>
<path d="M37.9199 99.6992L39.5978 104.954L44.2958 110.21L49.3293 113.813L55.034 117.267L61.7454 120.57L69.4635 123.723L77.5172 126.726L86.2421 129.579L95.3025 132.132L104.363 134.234L113.759 136.186L122.819 137.687L131.544 138.888L144.296 139.789L148.323 139.939V140.24V142.642V142.942H144.296L131.544 142.042L122.819 140.84L113.759 139.339L104.363 137.387L95.3025 135.135L86.2421 132.582L77.5172 129.879L69.4635 126.876L61.7454 123.573L55.034 120.27L49.3293 116.816L44.2958 113.363L39.5978 108.108L37.9199 104.504V102.702V102.402V100.15V99.6992Z" fill="#999999"/>
<path d="M148.323 146.095V50.1494L127.853 34.6839V3.90315L127.182 3.1524L117.786 1.6509L106.712 0.90015L100 0.75H96.6448H93.2891L82.8864 0.90015L71.1414 1.3506L61.4099 2.5518L59.0609 3.1524L58.7253 3.90315V34.6839L37.9199 50.1494V146.095L38.9266 146.696L50.336 148.047L62.081 148.648L76.8461 149.098H81.8797L87.5844 149.248H92.9535L104.027 149.098L114.43 148.948L128.188 148.498L138.927 147.747L147.316 146.696L147.987 146.396L148.323 146.095Z" stroke="black" stroke-width="0.448936"/>
<path d="M30.8722 145.945V53.1523H3.35547V145.945L3.69104 146.696L4.36218 147.296L5.70446 147.747L7.38231 148.197L9.39574 148.648L11.7447 148.948L14.4293 149.098H17.1139H19.7984L22.483 148.948L24.832 148.648L26.8454 148.197L28.5233 147.747L29.8655 147.296L30.5367 146.696L30.8722 145.945Z" fill="#B2B2B2"/>
<path d="M29.1943 147.447V53.1523H5.0332V147.447L5.36877 147.597L6.03991 147.897L7.04663 148.197L8.72448 148.348L10.4023 148.648L12.4158 148.948L14.7647 149.098H17.1137H19.4627L21.8117 148.798L23.8251 148.648L25.503 148.348L27.1809 148.047L28.1876 147.747L28.8587 147.597L29.1943 147.447Z" fill="#BDBDBD"/>
<path d="M27.1811 148.047V53.1523H7.04688V148.047L7.38245 148.197L7.71802 148.348L8.72473 148.498L10.067 148.648L11.4093 148.798L13.0871 148.948L15.1006 149.098H17.114H19.1274L21.1408 148.948L22.8187 148.798L24.161 148.648L25.5033 148.498L26.51 148.348L27.1811 148.047Z" fill="#C9C9C9"/>
<path d="M25.5031 148.498V53.1523H8.72461V148.498H9.06018L9.39575 148.648H10.0669L11.0736 148.798L12.4159 148.948H13.7582L15.436 149.098H17.1139H18.7917L20.134 148.948H21.8119L22.8186 148.798L23.8253 148.648L24.832 148.498H25.1676H25.5031Z" fill="#D4D4D4"/>
<path d="M23.49 148.648V53.1523H10.7383V148.648L11.0739 148.798H11.745L12.4161 148.948H13.4228L14.4296 149.098H15.7718H17.1141H18.4564H19.4631L20.4698 148.948L21.4765 148.798H22.4832L22.8188 148.648H23.49Z" fill="#DEDEDE"/>
<path d="M21.812 148.798V53.1523H12.416V148.798L12.7516 148.948H13.4227H13.7583L14.4294 149.098H15.4362H16.1073H17.114H18.1207H18.7919L19.463 148.948H20.4697H20.8053H21.4764V148.798H21.812Z" fill="#E8E8E8"/>
<path d="M19.7988 148.948V53.1523H14.4297V148.948H14.7653L15.1008 149.098H16.1075H17.1143H18.121L19.1277 148.948H19.4632H19.7988Z" fill="#F5F5F5"/>
<path d="M18.1208 148.948V53.1523H16.1074V148.948H16.443V149.098H16.7786H17.1141H17.4497H17.7853V148.948H18.1208Z" fill="white"/>
<path d="M30.8722 145.945V53.1523H3.35547V145.945L3.69104 146.696L4.36218 147.296L5.70446 147.747L7.38231 148.197L9.39574 148.648L11.7447 148.948L14.4293 149.098H17.1139H19.7984L22.483 148.948L24.832 148.648L26.8454 148.197L28.5233 147.747L29.8655 147.296L30.5367 146.696L30.8722 145.945Z" stroke="black" stroke-width="0.448936"/>
<path d="M32.5498 53.1538H1.3418V51.6523H32.5498V53.1538Z" fill="#7F7F7F" stroke="black" stroke-width="0.448936"/>
<path d="M3.35547 51.6525V49.8507L4.02661 48.1991L5.03332 46.5474L6.3756 45.0459L8.05346 43.5444L9.73131 42.1931L12.0803 40.8417L14.4293 39.6405L17.1139 38.5895L20.134 37.5384L23.4897 36.6375L26.8454 36.0369L30.2011 35.4363L33.8924 34.9858L37.5837 34.8357L41.6105 34.6855H60.738L62.0803 36.9378L60.0669 40.8417L55.0333 44.7456L47.9863 47.2982H41.6105L37.5837 47.5985L34.5635 48.4994L32.2145 50.0009L31.5434 51.6525H3.35547Z" fill="#B26532"/>
<path d="M6.37598 51.5021V49.8504L7.04712 48.1988L7.71826 46.6973L9.06054 45.1958L10.0673 43.8444L12.0807 42.4931L13.7585 41.2919L16.1075 40.0907L18.7921 39.1898L21.1411 38.2889L24.1612 37.5381L27.1813 36.9375L30.537 36.3369L34.2283 36.0366L37.9196 35.8865L41.6109 35.7363H61.074L62.0807 36.9375L60.0672 40.8414L55.0337 44.7453L50.6713 46.0967L41.6109 45.9465L36.5773 46.397L32.5505 47.5982L29.5303 49.2498L28.8592 51.5021H6.37598Z" fill="#BF723F"/>
<path d="M9.73145 51.651L10.067 49.9993L10.4026 48.4978L11.0737 46.9963L12.0804 45.645L13.0872 44.4438L14.765 43.2426L16.4429 42.1915L20.1341 40.3897L22.4831 39.639L25.1677 38.8882L28.1878 38.4378L30.8724 37.9873L34.2281 37.687L37.5838 37.3867H41.2751H61.4093L60.067 40.8402L55.0335 44.4438L41.2751 44.2936L37.2482 44.4438L33.8925 44.8942L31.208 45.4948L27.5167 47.4468L26.1744 48.648L25.5033 49.9993V51.651H9.73145Z" fill="#D48754"/>
<path d="M14.4297 51.6509L15.1008 48.9482L16.1075 46.696L18.4565 44.5939L21.1411 42.9422L25.1679 41.5909L29.5304 40.69L34.8995 39.9392L37.9196 39.7891H41.2753H60.4028L60.0673 40.8401L58.3894 42.1915H41.2753L36.2418 42.3416L31.8794 42.7921L28.5236 43.5428L25.5035 44.4437L23.1545 45.7951L21.8122 47.4467L20.8055 49.3987L20.47 51.6509H14.4297Z" fill="#E59865"/>
<path d="M3.35547 51.6525V49.8507L4.02661 48.1991L5.03332 46.5474L6.3756 45.0459L8.05346 43.5444L9.73131 42.1931L12.0803 40.8417L14.4293 39.6405L17.1139 38.5895L20.134 37.5384L23.4897 36.6375L26.8454 36.0369L30.2011 35.4363L33.8924 34.9858L37.5837 34.8357L41.6105 34.6855H60.738L62.0803 36.9378L60.0669 40.8417L55.0333 44.7456L47.9863 47.2982H41.6105L37.5837 47.5985L34.5635 48.4994L32.2145 50.0009L31.5434 51.6525H3.35547Z" stroke="black" stroke-width="0.448936"/>
</svg>
