<svg width="25" height="150" viewBox="0 0 25 150" fill="none" xmlns="http://www.w3.org/2000/svg">
<g clip-path="url(#clip0_2109_169226)">
<path d="M25 143.694V112.462L22.5904 110.06V81.982L20.3313 79.7297V48.4985L17.9217 46.0961V18.7688L16.4157 17.2673V1.5015L14.759 0H10.0904L8.58434 1.5015V17.2673L6.92771 18.7688V46.0961L4.66867 48.4985V79.7297L2.25904 81.982V110.06L0 112.462V143.694L2.10843 147.147L6.4759 149.249L11.1446 149.85L12.5 150L13.7048 149.85L18.3735 149.249L22.1386 147.598L25 144.294V143.694Z" fill="#7F7F7F"/>
<path d="M23.0423 143.694V137.688V135.736V133.784V120.12V114.414V112.462L21.0845 110.06V104.805V99.5496V89.039V83.7838V81.982L19.1267 79.5796V73.7237V67.8679V56.1562V50.4505V48.4985L17.0182 46.0961V40.8408L17.1689 35.7357V25.5255L17.0182 20.4204V18.7688L15.8134 17.1171V12.3123V5.40541V1.5015L14.458 0H14.0062H13.5544H12.952H10.5423L9.18692 1.5015L9.33753 6.30631V13.2132L9.18692 17.1171L7.9821 18.7688V23.8739V28.979V39.1892V44.2943V46.0961L5.87367 48.4985V54.3544L6.02427 60.0601V71.7718L5.87367 77.6276V79.5796L3.91584 81.982V87.2372L4.06644 92.4925V103.003L3.91584 108.258V110.06L2.25921 112.162L1.95801 112.462V114.414L2.10861 120.12V135.736L1.95801 141.742L2.86162 146.096L6.62668 148.799L11.446 149.85H12.5002H13.5544L18.3737 148.799L22.1387 146.096L23.0423 143.694Z" fill="#949494"/>
<path d="M20.9339 143.694V137.688L21.0845 135.736V133.784V120.12L20.9339 114.414V112.462L19.4279 110.06V104.805V99.5496V89.039V83.7838V81.982L17.7712 79.5796V73.7237V67.8679V56.1562V50.4505V48.4985L16.2652 46.0961V40.8408V35.7357V25.5255V20.4204V18.7688L15.211 17.1171V12.3123V5.40541V1.5015L14.1568 0H13.705H13.4038H12.9519H10.8435L9.7893 1.5015L9.9399 6.30631V13.2132L9.7893 17.1171L8.73508 18.7688V23.8739L8.88568 28.979V39.1892L8.73508 44.2943V46.0961L7.22906 48.4985V54.3544V60.0601V71.7718V77.6276V79.5796L5.57243 81.982V87.2372L5.72303 92.4925V103.003L5.57243 108.258V110.06L4.21701 112.162L4.06641 112.462V114.414V120.12V135.736V141.742L4.66882 146.096L7.83147 148.799L11.5965 149.85H12.5001H13.4038L17.9218 148.499L20.7833 144.895L20.9339 143.694Z" fill="#A8A8A8"/>
<path d="M18.9762 143.694V137.688V135.736V133.784V120.12V114.414V112.462L17.7714 110.06V104.805V99.5496V89.039V83.7838V81.982L16.5666 79.5796V73.7237V67.8679V56.1562V50.4505V48.4985L15.3618 46.0961V40.8408V35.7357V25.5255V20.4204V18.7688L14.4581 17.1171L14.6088 12.3123V5.40541L14.4581 1.5015L13.7051 0H13.4039H13.1027H12.8015H11.2955L10.5425 1.5015V6.30631V13.2132V17.1171L9.63887 18.7688V23.8739L9.78947 28.979V39.1892L9.63887 44.2943V46.0961L8.43405 48.4985V54.3544L8.58466 60.0601V71.7718L8.43405 77.6276V79.5796L7.22923 81.982V87.2372L7.37984 92.4925V103.003L7.22923 108.258V110.06L6.17502 112.162L6.02441 112.462V114.414L6.17502 120.12V135.736L6.02441 141.742L6.62682 146.096L9.94008 149.399L11.1449 149.7L12.5003 149.85L13.8557 149.7L17.7714 147.147L18.9762 143.694Z" fill="#BDBDBD"/>
<path d="M16.8678 143.694V137.688L17.0184 135.736V133.784V120.12L16.8678 114.414L16.1147 110.06V104.805V99.5496V89.039V83.7838L15.2111 79.5796V73.7237V67.8679V56.1562V50.4505L14.4581 46.0961V40.8408V35.7357V25.5255V20.4204L13.8557 16.2162L14.0063 11.2613V5.40541L13.7051 0.900901L13.4039 0H13.1027H12.9521H12.8015H11.5967L11.1449 1.5015V6.30631V13.2132L10.9943 17.7177L10.5425 18.7688V23.8739V28.979V39.1892V44.2943L9.78944 48.4985V54.3544V60.0601V71.7718V77.6276L8.88582 81.982V87.2372L9.03643 92.4925V103.003L8.88582 108.258L8.28341 112.162L8.13281 112.462V114.414V120.12V135.736V141.742L8.43402 146.096L10.8437 149.399L11.5967 149.7L12.5003 149.85L13.4039 149.7L16.5665 146.096L16.8678 143.694Z" fill="#D1D1D1"/>
<path d="M12.3499 149.85C13.5975 149.85 14.6089 116.305 14.6089 74.9249C14.6089 33.545 13.5975 0 12.3499 0C11.1022 0 10.0908 33.545 10.0908 74.9249C10.0908 116.305 11.1022 149.85 12.3499 149.85Z" fill="#E5E5E5"/>
<path d="M25 143.694V112.462L22.5904 110.06V81.982L20.3313 79.7297V48.4985L17.9217 46.0961V18.7688L16.4157 17.2673V1.5015L14.759 0H10.0904L8.58434 1.5015V17.2673L6.92771 18.7688V46.0961L4.66867 48.4985V79.7297L2.25904 81.982V110.06L0 112.462V143.694L2.10843 147.147L6.4759 149.249L11.1446 149.85L12.5 150L13.7048 149.85L18.3735 149.249L22.1386 147.598L25 144.294V143.694Z" stroke="black" stroke-width="0.736689"/>
<path d="M0 143.693H25" stroke="black" stroke-width="0.736689"/>
<path d="M2.25879 110.061H22.5901" stroke="black" stroke-width="0.736689"/>
<path d="M0 112.463H25" stroke="black" stroke-width="0.736689"/>
<path d="M0 123.424H25" stroke="black" stroke-width="0.736689"/>
<path d="M4.66895 79.7305H20.3316" stroke="black" stroke-width="0.736689"/>
<path d="M2.25879 82.1328H22.5901" stroke="black" stroke-width="0.736689"/>
<path d="M2.25879 91.291H22.5901" stroke="black" stroke-width="0.736689"/>
<path d="M6.92773 46.2461H17.9217" stroke="black" stroke-width="0.736689"/>
<path d="M4.66895 48.498H20.3316" stroke="black" stroke-width="0.736689"/>
<path d="M4.66895 56.3066H20.3316" stroke="black" stroke-width="0.736689"/>
<path d="M8.58398 17.2676H16.4153" stroke="black" stroke-width="0.736689"/>
<path d="M6.92773 18.7695H17.9217" stroke="black" stroke-width="0.736689"/>
<path d="M6.92773 25.0742H17.9217" stroke="black" stroke-width="0.736689"/>
<path d="M8.58398 1.50195H16.4153" stroke="black" stroke-width="0.736689"/>
</g>
<defs>
<clipPath id="clip0_2109_169226">
<rect width="25" height="150" fill="white"/>
</clipPath>
</defs>
</svg>
