<svg width="150" height="150" viewBox="0 0 150 150" fill="none" xmlns="http://www.w3.org/2000/svg">
<path d="M134.756 3.753V62.6119L146.951 71.771V146.095V146.396L132.317 148.348L111.585 149.098L102.439 149.249L82.317 149.098L65.2439 148.498L48.7804 146.996L46.9512 146.396V146.095V71.771L59.1463 62.6119V3.753L71.9512 0.75H121.951L134.756 3.753Z" fill="#7F7F7F"/>
<path d="M59.1465 3.753L71.9514 0.75H121.951L134.756 3.753H59.1465Z" fill="#B2B2B2"/>
<path d="M46.9512 71.7724L59.1463 62.6133H134.756L146.951 71.7724H46.9512Z" fill="#B2B2B2"/>
<path d="M65.2441 3.75472L75.61 0.601562H118.903L129.269 3.75472H65.2441Z" fill="#BFBFBF"/>
<path d="M54.2686 71.7722L65.2442 62.4629H129.269L140.244 71.7722H54.2686Z" fill="#BFBFBF"/>
<path d="M70.7314 3.75472L79.268 0.601562H115.244L123.78 3.75472H70.7314Z" fill="#CCCCCC"/>
<path d="M61.585 71.7722L70.7313 62.4629H123.78L132.926 71.7722H61.585Z" fill="#CCCCCC"/>
<path d="M76.2197 3.75472L82.927 0.601562H110.976L118.293 3.75472H76.2197Z" fill="#D9D9D9"/>
<path d="M68.9023 71.7722L76.2194 62.4629H118.293L125 71.7722H68.9023Z" fill="#D9D9D9"/>
<path d="M81.707 3.75472L87.1948 0.601562H107.317L112.805 3.75472H81.707Z" fill="#E5E5E5"/>
<path d="M76.2197 71.7722L81.7075 62.4629H112.805L118.293 71.7722H76.2197Z" fill="#E5E5E5"/>
<path d="M87.1953 3.75472L90.2441 0.601562H104.268L107.317 3.75472H87.1953Z" fill="#F2F2F2"/>
<path d="M83.5361 71.7722L87.1947 62.4629H107.317L110.365 71.7722H83.5361Z" fill="#F2F2F2"/>
<path d="M90.8535 71.7724L92.073 62.6133H101.829L103.049 71.7724H90.8535Z" fill="white"/>
<path d="M92.6826 3.753L93.9021 0.75H99.9997L101.829 3.753H92.6826Z" fill="white"/>
<path d="M54.2686 71.7715H140.244V147.597L118.293 148.799L96.9515 149.249L75.61 148.799L54.2686 147.597V71.7715Z" fill="#919191"/>
<path d="M128.658 62.6128H64.6338V3.75391H128.658V62.6128Z" fill="#919191"/>
<path d="M61.585 71.7715H132.926V148.198L114.634 148.949L96.9508 149.249L79.2679 148.949L61.585 148.198V71.7715Z" fill="#A1A1A1"/>
<path d="M123.781 62.6128H70.1221V3.75391H123.781V62.6128Z" fill="#A1A1A1"/>
<path d="M68.9023 71.7715H125V148.348L110.976 149.099H96.9511H82.9267L68.9023 148.348V71.7715Z" fill="#B2B2B2"/>
<path d="M118.292 62.6128H75.6094V3.75391H118.292V62.6128Z" fill="#B2B2B2"/>
<path d="M76.2197 71.7715H118.293V148.799L96.9514 149.249L76.2197 148.799V71.7715Z" fill="#C4C4C4"/>
<path d="M112.195 62.6128H81.0977V3.75391H112.195V62.6128Z" fill="#C4C4C4"/>
<path d="M107.317 62.6128H86.585V3.75391H107.317V62.6128Z" fill="#D4D4D4"/>
<path d="M83.5361 71.7715H110.365V148.949L96.9508 149.249L83.5361 148.949V71.7715Z" fill="#D4D4D4"/>
<path d="M101.829 62.6128H92.0732V3.75391H101.829V62.6128Z" fill="#E5E5E5"/>
<path d="M90.8535 71.7715H103.049V149.099H90.8535V71.7715Z" fill="#E5E5E5"/>
<path d="M56.0977 13.0625H134.756" stroke="#999999" stroke-width="0.605161"/>
<path d="M56.0977 25.5254H134.756" stroke="#999999" stroke-width="0.605161"/>
<path d="M56.0977 37.8379H134.756" stroke="#999999" stroke-width="0.605161"/>
<path d="M56.0977 50.1504H134.756" stroke="#999999" stroke-width="0.605161"/>
<path d="M56.0977 62.6133H134.756" stroke="#999999" stroke-width="0.605161"/>
<path d="M56.0977 74.9258H134.756" stroke="#999999" stroke-width="0.605161"/>
<path d="M56.0977 87.3867H134.756" stroke="#999999" stroke-width="0.605161"/>
<path d="M56.0977 99.6992H134.756" stroke="#999999" stroke-width="0.605161"/>
<path d="M56.0977 112.012H134.756" stroke="#999999" stroke-width="0.605161"/>
<path d="M56.0977 124.475H134.756" stroke="#999999" stroke-width="0.605161"/>
<path d="M56.0977 136.787H134.756" stroke="#999999" stroke-width="0.605161"/>
<path d="M134.756 3.753V62.6119L146.951 71.771V146.095V146.396L132.317 148.348L111.585 149.098L102.439 149.248L82.317 149.098L65.2439 148.498L48.7804 146.996L46.9512 146.396V146.095V71.771L59.1463 62.6119V3.753L71.9512 0.75H121.951L134.756 3.753Z" stroke="black" stroke-width="0.605161"/>
<path d="M15.2441 61.1114V58.709H59.1466V61.1114H15.2441Z" fill="#7F7F7F" stroke="black" stroke-width="0.605161"/>
<path d="M15.2441 20.8712V18.4688H71.9515V20.8712H15.2441Z" fill="#7F7F7F" stroke="black" stroke-width="0.605161"/>
<path d="M15.2441 60.5108V59.9102H59.1466V60.5108H15.2441Z" fill="#CCCCCC"/>
<path d="M15.2441 20.2705V19.6699H71.9515V20.2705H15.2441Z" fill="#CCCCCC"/>
<path d="M15.2441 19.669V19.0684H71.9515V19.669H15.2441Z" fill="white"/>
<path d="M15.2441 59.9092V59.3086H59.1466V59.9092H15.2441Z" fill="white"/>
<path d="M2.43945 147.598V5.40625H59.1468V8.40925H15.2443V147.598H2.43945Z" fill="#7F7F7F" stroke="black" stroke-width="0.605161"/>
<path d="M40.2441 149.25V81.082H65.8539V84.2352H53.049V149.25H40.2441Z" fill="#7F7F7F" stroke="black" stroke-width="0.605161"/>
<path d="M9.14648 147.597V6.90625H59.1465V7.657H12.1953V147.597H9.14648Z" fill="#CCCCCC"/>
<path d="M46.9512 149.249V82.7324H65.8536V83.4832H50V149.249H46.9512Z" fill="#CCCCCC"/>
<path d="M6.09804 147.598L5.48828 6.15625H59.1468V6.907H9.14682V147.598H6.09804Z" fill="white"/>
<path d="M43.9027 149.249L43.293 81.832L65.8539 81.9822V82.7329H46.9515V149.249H43.9027Z" fill="white"/>
</svg>
