<svg width="150" height="150" viewBox="0 0 150 150" fill="none" xmlns="http://www.w3.org/2000/svg">
<g clip-path="url(#clip0_2109_169500)">
<path d="M67.7119 4.50391H107.681V11.1105H67.7119V4.50391Z" fill="#0A330A" stroke="black" stroke-width="0.531426"/>
<path d="M133.542 6.75586H51.2539V11.1102H58.3072V8.85796H126.489V146.245H133.542V6.75586Z" fill="#476647" stroke="black" stroke-width="0.531426"/>
<path d="M9.4043 35.8867L37.1472 46.3972H112.382L140.596 35.8867H121.787L105.329 41.8927H44.2005L28.2131 35.8867H9.4043Z" fill="black" stroke="black" stroke-width="0.531426"/>
<path d="M9.4043 71.9219L37.1472 82.4324H112.382L140.596 71.9219H121.787L105.329 77.9279H44.2005L28.2131 71.9219H9.4043Z" fill="black" stroke="black" stroke-width="0.531426"/>
<path d="M112.383 146.846V147.146L98.7462 149.248L82.7587 149.849L78.997 149.999L63.95 149.849L48.4327 149.098L37.6177 147.146L37.1475 146.846V14.1133H112.383V146.846Z" fill="#B2BFB2"/>
<path d="M102.038 146.846L89.8124 149.399L77.5867 149.999L62.0695 149.549L50.314 148.047L47.9629 146.846V14.1133H102.038V146.846Z" fill="#C2CCC2"/>
<path d="M98.2763 146.846L97.8061 147.597L96.3955 148.047L94.5146 148.648L91.6933 149.098L87.9315 149.399L84.1698 149.699L79.4676 149.849L74.7654 149.999L70.0632 149.849L65.8312 149.699L62.0694 149.399L58.3077 149.098L55.4864 148.648L53.6055 148.047L52.1948 147.597L51.7246 146.846V14.1133H98.2763V146.846Z" fill="#D1D9D1"/>
<path d="M91.6927 146.846V147.597L90.7523 148.047L88.8714 148.648L86.9905 149.098L84.1692 149.399L81.3479 149.699L78.5266 149.849L74.7648 149.999L71.4733 149.849L68.1817 149.699L65.3604 149.399L63.0093 149.098L60.6582 148.648L59.2476 148.047L58.3071 147.597L57.8369 146.846V14.1133H91.6927V146.846Z" fill="#E0E5E0"/>
<path d="M82.7585 146.846L82.2882 147.597L81.818 148.047L81.3478 148.648L80.4074 149.098L78.9967 149.399L78.0563 149.699L76.6456 149.849L74.7647 149.999L73.3541 149.849L71.9434 149.699L70.5327 149.399L69.5923 149.098L68.6519 148.648L67.7114 148.047L67.2412 147.597V146.846V14.1133H82.7585V146.846Z" fill="#EFF2EF"/>
<path d="M37.1475 14.8652H112.383" stroke="#B2B2A3" stroke-width="0.531426"/>
<path d="M37.1475 38.8887H112.383" stroke="#B2B2A3" stroke-width="0.531426"/>
<path d="M37.1475 62.9121H112.383" stroke="#B2B2A3" stroke-width="0.531426"/>
<path d="M37.1475 86.9375H112.383" stroke="#B2B2A3" stroke-width="0.531426"/>
<path d="M37.1475 110.961H112.383" stroke="#B2B2A3" stroke-width="0.531426"/>
<path d="M37.1475 134.834H112.383" stroke="#B2B2A3" stroke-width="0.531426"/>
<path d="M37.1475 20.8711H112.383" stroke="#B2B2A3" stroke-width="0.531426"/>
<path d="M37.1475 44.8945H112.383" stroke="#B2B2A3" stroke-width="0.531426"/>
<path d="M37.1475 68.918H112.383" stroke="#B2B2A3" stroke-width="0.531426"/>
<path d="M37.1475 92.9434H112.383" stroke="#B2B2A3" stroke-width="0.531426"/>
<path d="M37.1475 116.967H112.383" stroke="#B2B2A3" stroke-width="0.531426"/>
<path d="M37.1475 140.842H112.383" stroke="#B2B2A3" stroke-width="0.531426"/>
<path d="M37.1475 26.877H112.383" stroke="#B2B2A3" stroke-width="0.531426"/>
<path d="M37.1475 50.9004H112.383" stroke="#B2B2A3" stroke-width="0.531426"/>
<path d="M37.1475 74.9258H112.383" stroke="#B2B2A3" stroke-width="0.531426"/>
<path d="M37.1475 98.9492H112.383" stroke="#B2B2A3" stroke-width="0.531426"/>
<path d="M37.1475 122.973H112.383" stroke="#B2B2A3" stroke-width="0.531426"/>
<path d="M37.1475 32.8828H112.383" stroke="#B2B2A3" stroke-width="0.531426"/>
<path d="M37.1475 56.9062H112.383" stroke="#B2B2A3" stroke-width="0.531426"/>
<path d="M37.1475 80.9316H112.383" stroke="#B2B2A3" stroke-width="0.531426"/>
<path d="M37.1475 104.955H112.383" stroke="#B2B2A3" stroke-width="0.531426"/>
<path d="M37.1475 128.828H112.383" stroke="#B2B2A3" stroke-width="0.531426"/>
<path d="M112.383 146.846V147.146L98.7462 149.248L82.7587 149.849L78.997 149.999L63.95 149.849L48.4327 149.098L37.6177 147.146L37.1475 146.846V14.1133H112.383V146.846Z" stroke="black" stroke-width="0.531426"/>
<path d="M70.0625 71.9219H79.9371V83.1831H70.0625V71.9219Z" fill="#284C28" stroke="black" stroke-width="0.531426"/>
<path d="M140.596 69.6695H145.298V58.4082H140.596V69.6695Z" fill="#284C28" stroke="black" stroke-width="0.531426"/>
<path d="M102.979 69.6695H107.681V58.4082H102.979V69.6695Z" fill="#284C28" stroke="black" stroke-width="0.531426"/>
<path d="M41.8496 69.6695H47.022V58.4082H41.8496V69.6695Z" fill="#284C28" stroke="black" stroke-width="0.531426"/>
<path d="M4.23242 69.6695H9.40484V58.4082H4.23242V69.6695Z" fill="#284C28" stroke="black" stroke-width="0.531426"/>
<path d="M70.0625 35.8867H79.9371V47.148H70.0625V35.8867Z" fill="#284C28" stroke="black" stroke-width="0.531426"/>
<path d="M140.596 33.6343H145.298V22.373H140.596V33.6343Z" fill="#284C28" stroke="black" stroke-width="0.531426"/>
<path d="M102.979 33.6343H107.681V22.373H102.979V33.6343Z" fill="#284C28" stroke="black" stroke-width="0.531426"/>
<path d="M41.8496 33.6343H47.022V22.373H41.8496V33.6343Z" fill="#284C28" stroke="black" stroke-width="0.531426"/>
<path d="M4.23242 33.6343H9.40484V22.373H4.23242V33.6343Z" fill="#284C28" stroke="black" stroke-width="0.531426"/>
<path d="M23.041 15.6152H41.8498V147.597H23.041V15.6152Z" stroke="#FFCC00" stroke-width="0.531426"/>
<path d="M23.041 99.6992H41.8498" stroke="#FFCC00" stroke-width="0.531426"/>
<path d="M41.8498 102.703H23.041" stroke="#FFCC00" stroke-width="0.531426"/>
<path d="M23.041 105.705H41.8498" stroke="#FFCC00" stroke-width="0.531426"/>
<path d="M23.041 108.559H41.8498" stroke="#FFCC00" stroke-width="0.531426"/>
<path d="M41.8498 111.562H23.041" stroke="#FFCC00" stroke-width="0.531426"/>
<path d="M23.041 114.564H41.8498" stroke="#FFCC00" stroke-width="0.531426"/>
<path d="M23.041 117.717H41.8498" stroke="#FFCC00" stroke-width="0.531426"/>
<path d="M41.8498 120.57H23.041" stroke="#FFCC00" stroke-width="0.531426"/>
<path d="M23.041 123.725H41.8498" stroke="#FFCC00" stroke-width="0.531426"/>
<path d="M23.041 126.576H41.8498" stroke="#FFCC00" stroke-width="0.531426"/>
<path d="M41.8498 129.58H23.041" stroke="#FFCC00" stroke-width="0.531426"/>
<path d="M23.041 132.582H41.8498" stroke="#FFCC00" stroke-width="0.531426"/>
<path d="M23.041 135.736H41.8498" stroke="#FFCC00" stroke-width="0.531426"/>
<path d="M41.8498 138.588H23.041" stroke="#FFCC00" stroke-width="0.531426"/>
<path d="M23.041 141.742H41.8498" stroke="#FFCC00" stroke-width="0.531426"/>
<path d="M23.041 144.594H41.8498" stroke="#FFCC00" stroke-width="0.531426"/>
<path d="M23.041 51.8027H41.8498" stroke="#FFCC00" stroke-width="0.531426"/>
<path d="M41.8498 54.8047H23.041" stroke="#FFCC00" stroke-width="0.531426"/>
<path d="M23.041 57.8086H41.8498" stroke="#FFCC00" stroke-width="0.531426"/>
<path d="M23.041 60.6602H41.8498" stroke="#FFCC00" stroke-width="0.531426"/>
<path d="M41.8498 63.6641H23.041" stroke="#FFCC00" stroke-width="0.531426"/>
<path d="M23.041 66.666H41.8498" stroke="#FFCC00" stroke-width="0.531426"/>
<path d="M23.041 69.8203H41.8498" stroke="#FFCC00" stroke-width="0.531426"/>
<path d="M41.8498 72.6719H23.041" stroke="#FFCC00" stroke-width="0.531426"/>
<path d="M23.041 75.8262H41.8498" stroke="#FFCC00" stroke-width="0.531426"/>
<path d="M23.041 78.6777H41.8498" stroke="#FFCC00" stroke-width="0.531426"/>
<path d="M41.8498 81.6816H23.041" stroke="#FFCC00" stroke-width="0.531426"/>
<path d="M23.041 84.6855H41.8498" stroke="#FFCC00" stroke-width="0.531426"/>
<path d="M23.041 87.8379H41.8498" stroke="#FFCC00" stroke-width="0.531426"/>
<path d="M41.8498 90.6914H23.041" stroke="#FFCC00" stroke-width="0.531426"/>
<path d="M23.041 93.6934H41.8498" stroke="#FFCC00" stroke-width="0.531426"/>
<path d="M23.041 96.6973H41.8498" stroke="#FFCC00" stroke-width="0.531426"/>
<path d="M23.041 18.6191H41.8498" stroke="#FFCC00" stroke-width="0.531426"/>
<path d="M23.041 21.7715H41.8498" stroke="#FFCC00" stroke-width="0.531426"/>
<path d="M41.8498 24.7754H23.041" stroke="#FFCC00" stroke-width="0.531426"/>
<path d="M23.041 27.7773H41.8498" stroke="#FFCC00" stroke-width="0.531426"/>
<path d="M23.041 30.6309H41.8498" stroke="#FFCC00" stroke-width="0.531426"/>
<path d="M41.8498 33.6328H23.041" stroke="#FFCC00" stroke-width="0.531426"/>
<path d="M23.041 36.6367H41.8498" stroke="#FFCC00" stroke-width="0.531426"/>
<path d="M23.041 39.7891H41.8498" stroke="#FFCC00" stroke-width="0.531426"/>
<path d="M41.8498 42.793H23.041" stroke="#FFCC00" stroke-width="0.531426"/>
<path d="M23.041 45.7949H41.8498" stroke="#FFCC00" stroke-width="0.531426"/>
<path d="M23.041 48.6484H41.8498" stroke="#FFCC00" stroke-width="0.531426"/>
<path d="M0 69.6699H150V71.9222H0V69.6699Z" fill="#476647" stroke="black" stroke-width="0.531426"/>
<path d="M0 33.6328H150V35.8851H0V33.6328Z" fill="#476647" stroke="black" stroke-width="0.531426"/>
<path d="M28.2129 11.1113H121.787V14.8651H28.2129V11.1113Z" fill="#657F65" stroke="black" stroke-width="0.531426"/>
<path d="M74.7648 30.6301C82.5556 30.6301 88.8714 28.6134 88.8714 26.1256C88.8714 23.6378 82.5556 21.6211 74.7648 21.6211C66.9739 21.6211 60.6582 23.6378 60.6582 26.1256C60.6582 28.6134 66.9739 30.6301 74.7648 30.6301Z" fill="#E0E5E0" stroke="black" stroke-width="0.531426"/>
<path d="M74.7648 66.6672C82.5556 66.6672 88.8714 64.6505 88.8714 62.1627C88.8714 59.6749 82.5556 57.6582 74.7648 57.6582C66.9739 57.6582 60.6582 59.6749 60.6582 62.1627C60.6582 64.6505 66.9739 66.6672 74.7648 66.6672Z" fill="#E0E5E0" stroke="black" stroke-width="0.531426"/>
<path d="M74.7652 28.9791C79.6994 28.9791 83.6994 27.7019 83.6994 26.1263C83.6994 24.5507 79.6994 23.2734 74.7652 23.2734C69.831 23.2734 65.8311 24.5507 65.8311 26.1263C65.8311 27.7019 69.831 28.9791 74.7652 28.9791Z" fill="#C2CCC2" stroke="#657F65" stroke-width="0.531426"/>
<path d="M74.7652 65.0143C79.6994 65.0143 83.6994 63.737 83.6994 62.1614C83.6994 60.5859 79.6994 59.3086 74.7652 59.3086C69.831 59.3086 65.8311 60.5859 65.8311 62.1614C65.8311 63.737 69.831 65.0143 74.7652 65.0143Z" fill="#C2CCC2" stroke="#657F65" stroke-width="0.531426"/>
<path d="M4.23242 22.373H145.298V23.8745H4.23242V22.373Z" fill="black" stroke="black" stroke-width="0.531426"/>
<path d="M4.23242 27.627H145.298V29.1285H4.23242V27.627Z" fill="black" stroke="black" stroke-width="0.531426"/>
<path d="M4.23242 58.4082H145.298V59.9097H4.23242V58.4082Z" fill="black" stroke="black" stroke-width="0.531426"/>
<path d="M4.23242 63.6641H145.298V65.1656H4.23242V63.6641Z" fill="black" stroke="black" stroke-width="0.531426"/>
<path d="M14.1064 5.1051H79.4669V0H86.5202V7.35736H21.1597V150H14.1064V5.1051Z" fill="#859985" stroke="black" stroke-width="0.531426"/>
<path d="M74.7646 16.3667C100.474 16.3667 121.316 16.0306 121.316 15.616C121.316 15.2014 100.474 14.8652 74.7646 14.8652C49.0548 14.8652 28.2129 15.2014 28.2129 15.616C28.2129 16.0306 49.0548 16.3667 74.7646 16.3667Z" fill="#1A401A" stroke="black" stroke-width="0.531426"/>
</g>
<defs>
<clipPath id="clip0_2109_169500">
<rect width="150" height="150" fill="white"/>
</clipPath>
</defs>
</svg>
