<svg width="150" height="150" viewBox="0 0 150 150" fill="none" xmlns="http://www.w3.org/2000/svg">
<path d="M8.25781 42.4484V7.1543H141.591V42.4484H8.25781Z" fill="#CCCCCC" stroke="black" stroke-width="0.378454"/>
<path d="M0.750977 148.569H134.234V19.0781H119.37V113.275H22.9732V19.0781H0.750977V148.569Z" fill="#CCCCCC" stroke="black" stroke-width="0.378454"/>
<path d="M134.234 148.568L149.099 136.645V1.19141L141.592 7.15325V13.1151L134.234 19.0769V148.568Z" fill="#999999" stroke="black" stroke-width="0.378454"/>
<path d="M22.9727 48.4094V19.0771L30.4802 13.1152V42.4475L22.9727 48.4094Z" fill="#999999" stroke="black" stroke-width="0.378454"/>
<path d="M22.9727 113.274V54.3711H30.4802V107.312L22.9727 113.274Z" fill="#666666" stroke="black" stroke-width="0.378454"/>
<path d="M22.9727 113.274H119.369V107.312H30.4802L22.9727 113.274Z" fill="#999999" stroke="black" stroke-width="0.378454"/>
<path d="M30.4805 54.3711H119.369V107.312H30.4805V54.3711Z" fill="#4C4C4C"/>
<path d="M47.1475 89.666H119.37V110.175H47.1475V89.666Z" fill="#0000FF"/>
<path d="M22.9727 92.5273H36.0357V113.275H22.9727V92.5273Z" fill="#0000FF"/>
<path d="M47.1475 89.6669H119.37V83.7051H54.5048L47.1475 89.6669Z" fill="#0000CC"/>
<path d="M22.9727 92.5283H36.0357L43.3931 86.5664L30.4802 86.8049L22.9727 92.5283Z" fill="#0000CC"/>
<path d="M36.0361 113.275V92.5283L43.3935 86.5664V107.314L36.0361 113.275Z" fill="#000099"/>
<path d="M130.48 54.3726H123.123V30.7637H130.48V54.3726Z" stroke="black" stroke-width="0.378454"/>
<path d="M130.48 83.7046H123.123V60.0957H130.48V83.7046Z" stroke="black" stroke-width="0.378454"/>
<path d="M130.48 113.275H123.123V89.666H130.48V113.275Z" stroke="black" stroke-width="0.378454"/>
<path d="M22.9727 118.998H37.8375V142.607H22.9727V118.998Z" stroke="black" stroke-width="0.378454"/>
<path d="M4.50488 118.998H19.3697V142.607H4.50488V118.998Z" stroke="black" stroke-width="0.378454"/>
<path d="M130.48 30.7637V54.3726H123.123" stroke="white" stroke-width="0.378454"/>
<path d="M130.48 60.0957V83.7046H123.123" stroke="white" stroke-width="0.378454"/>
<path d="M130.48 89.666V113.275H123.123" stroke="white" stroke-width="0.378454"/>
<path d="M22.9727 142.607V118.998H37.8375" stroke="white" stroke-width="0.378454"/>
<path d="M4.50488 142.607V118.998H19.3697" stroke="white" stroke-width="0.378454"/>
<path d="M119.369 19.078V7.1543" stroke="black" stroke-width="0.378454"/>
<path d="M45.3457 42.4484V7.1543" stroke="black" stroke-width="0.378454"/>
<path d="M60.0605 42.4484V7.1543" stroke="black" stroke-width="0.378454"/>
<path d="M74.9248 42.4484V7.1543" stroke="black" stroke-width="0.378454"/>
<path d="M89.79 42.4484V7.1543" stroke="black" stroke-width="0.378454"/>
<path d="M104.505 42.4484V7.1543" stroke="black" stroke-width="0.378454"/>
<path d="M30.4805 13.1161V7.1543" stroke="black" stroke-width="0.378454"/>
<path d="M30.4805 39.5859H119.369V66.0565H30.4805V39.5859Z" fill="black"/>
<path d="M8.25781 107.313H15.6152V36.4863H8.25781V107.313Z" fill="black"/>
<path d="M8.25781 107.313L12.0116 104.213V36.4863H8.25781V107.313Z" fill="#666666"/>
<path d="M12.0117 104.213H15.6153V60.0957H12.0117V104.213Z" fill="#FF0000"/>
<path d="M123.123 142.607V118.998" stroke="#7F7F7F" stroke-width="0.378454"/>
<path d="M126.877 141.177V120.43" stroke="#7F7F7F" stroke-width="0.378454"/>
<path d="M119.369 141.177V120.43" stroke="#7F7F7F" stroke-width="0.378454"/>
<path d="M117.567 138.315V123.529" stroke="#7F7F7F" stroke-width="0.378454"/>
<path d="M128.679 138.315V123.529" stroke="#7F7F7F" stroke-width="0.378454"/>
<path d="M124.925 142.607V118.998" stroke="#7F7F7F" stroke-width="0.378454"/>
<path d="M121.171 142.607V118.998" stroke="#7F7F7F" stroke-width="0.378454"/>
<path d="M115.766 132.352V129.252" stroke="#7F7F7F" stroke-width="0.378454"/>
<path d="M130.48 132.352V129.252" stroke="#7F7F7F" stroke-width="0.378454"/>
<path d="M22.9727 48.4102H119.369V54.372H22.9727V48.4102Z" fill="#CCCCCC" stroke="black" stroke-width="0.378454"/>
<path d="M22.9727 48.4111L30.4802 42.4492H119.369V48.4111H22.9727Z" fill="#F2F2F2" stroke="black" stroke-width="0.378454"/>
<path d="M119.369 19.0771L126.877 13.1152H141.591L134.234 19.0771H119.369Z" fill="#F2F2F2" stroke="black" stroke-width="0.378454"/>
<path d="M8.25781 7.15325L15.6152 1.19141H149.099L141.591 7.15325H8.25781Z" fill="#F2F2F2" stroke="black" stroke-width="0.378454"/>
<path d="M0.750977 19.0771H22.9732L30.4807 13.1152H8.25848L0.750977 19.0771Z" fill="#F2F2F2" stroke="black" stroke-width="0.378454"/>
</svg>
