<svg width="150" height="150" viewBox="0 0 150 150" fill="none" xmlns="http://www.w3.org/2000/svg">
<g clip-path="url(#clip0_2109_171275)">
<path d="M137.237 25.2793L140.39 34.0537V43.037H26.126V38.4409H51.5014V29.6665H80.18V38.4409H86.4863V34.0537H95.9458V38.4409H99.099V34.0537H115.015V25.2793H137.237Z" fill="black"/>
<path d="M141.291 148.955H20.5703L21.3211 143.523H140.39L141.291 148.955Z" fill="#7F7F7F" stroke="black" stroke-width="0.354223"/>
<path d="M140.691 24.4432V148.956H149.1V24.4432L147.898 15.6689L144.445 7.52124L138.589 2.71623L132.283 1.04492H19.6701L13.3638 2.71623L7.50793 7.52124L4.05448 15.6689L2.70312 24.4432L4.05448 33.2176L12.0124 28.8304L11.2617 24.4432L11.8623 20.0561L13.6641 16.0867L16.3668 13.5797L19.6701 12.7441H132.283L135.436 13.5797L138.289 16.0867L140.091 20.0561L140.691 24.4432Z" fill="#E5E5E5"/>
<path d="M140.841 24.4435V148.956H143.693V24.4435L142.943 18.1761L140.69 12.3265L136.636 8.77497L132.282 7.52148H19.6695L15.0148 8.98388L11.2611 12.9532L8.85865 18.5939L8.4082 24.4435L9.15895 30.2931L12.0118 28.8307L11.2611 24.4435L11.8617 20.0563L13.6635 16.0869L16.3662 13.58L19.6695 12.7443H132.282L135.435 13.58L138.288 16.0869L140.24 20.0563L140.841 24.4435Z" fill="#B2B2B2"/>
<path d="M21.3213 143.525V43.0371H140.39V143.525H21.3213Z" fill="#B2B2B2"/>
<path d="M21.3213 143.524V132.451L140.39 80.6406V143.524H21.3213Z" fill="#ABABAB"/>
<path d="M21.3213 143.524V139.137L140.39 87.1172V143.524H21.3213Z" fill="#A1A1A1"/>
<path d="M44.2939 143.523L140.39 101.531V143.523H44.2939Z" fill="#999999"/>
<path d="M117.417 43.0371L21.3213 84.8198V43.0371H117.417Z" fill="#BABABA"/>
<path d="M21.3213 46.3789H140.39" stroke="black" stroke-width="0.354223"/>
<path d="M21.3213 143.525V43.0371H140.39V143.525H21.3213Z" stroke="black" stroke-width="0.354223"/>
<path d="M21.3215 142.269L13.3636 131.406L0.750977 69.5673L2.25248 34.052L13.3636 31.9629L21.3215 47.4225V142.269Z" fill="#EDEDED"/>
<path d="M21.3211 142.269L13.3631 131.406L10.21 58.495L21.3211 49.5117V142.269Z" fill="#CCCCCC"/>
<path d="M13.3636 131.407L10.2104 58.4961L0.750977 69.5685L13.3636 131.407Z" fill="#E5E5E5"/>
<path d="M21.3215 142.269L13.3636 131.406L0.750977 69.5673L2.25248 34.052L13.3636 31.9629L21.3215 47.4225V142.269Z" stroke="black" stroke-width="0.354223"/>
<path d="M0.750977 69.5674L10.2104 58.495L21.3215 49.5117" stroke="#B2B2B2" stroke-width="0.354223"/>
<path d="M140.841 24.4432V148.956H149.1V24.4432L147.898 15.6689L144.445 7.52124L138.589 2.71623L132.283 1.04492H19.6701L13.3638 2.71623L7.50793 7.52124L4.05448 15.6689L2.70312 24.4432L4.05448 33.2176L12.0124 28.8304L11.2617 24.4432L11.8623 20.0561L13.6641 16.0867L16.3668 13.5797L19.6701 12.7441H132.283L135.436 13.5797L138.289 16.0867L140.241 20.0561L140.841 24.4432Z" stroke="black" stroke-width="0.354223"/>
<path d="M13.3631 31.7548L11.261 24.4429L2.70242 22.9805L1.65137 28.8301L2.70242 34.6796L13.3631 31.7548Z" fill="#E5E5E5" stroke="black" stroke-width="0.354223"/>
<path d="M141.291 17.5481H10.9609L11.8618 15.25H140.39L141.291 17.5481Z" fill="#7F7F7F" stroke="black" stroke-width="0.354223"/>
<path d="M138.889 14.416L143.393 8.56641" stroke="#7F7F7F" stroke-width="0.354223"/>
<path d="M141.141 19.2196L146.996 16.0859" stroke="#7F7F7F" stroke-width="0.354223"/>
<path d="M141.892 29.248H148.198" stroke="#7F7F7F" stroke-width="0.354223"/>
<path d="M141.892 39.2754H148.198" stroke="#7F7F7F" stroke-width="0.354223"/>
<path d="M141.892 49.0938H148.198" stroke="#7F7F7F" stroke-width="0.354223"/>
<path d="M141.892 58.9141H148.198" stroke="#7F7F7F" stroke-width="0.354223"/>
<path d="M141.892 68.9414H148.198" stroke="#7F7F7F" stroke-width="0.354223"/>
<path d="M141.892 78.7598H148.198" stroke="#7F7F7F" stroke-width="0.354223"/>
<path d="M141.892 88.7891H148.198" stroke="#7F7F7F" stroke-width="0.354223"/>
<path d="M141.892 98.6074H148.198" stroke="#7F7F7F" stroke-width="0.354223"/>
<path d="M141.892 108.426H148.198" stroke="#7F7F7F" stroke-width="0.354223"/>
<path d="M141.892 118.453H148.198" stroke="#7F7F7F" stroke-width="0.354223"/>
<path d="M141.892 128.273H148.198" stroke="#7F7F7F" stroke-width="0.354223"/>
<path d="M141.892 138.092H148.198" stroke="#7F7F7F" stroke-width="0.354223"/>
<path d="M134.084 11.4893L135.285 2.92383" stroke="#7F7F7F" stroke-width="0.354223"/>
<path d="M4.95508 16.0859L10.0602 18.384" stroke="#7F7F7F" stroke-width="0.354223"/>
<path d="M8.1084 8.77344L12.4628 14.2052" stroke="#7F7F7F" stroke-width="0.354223"/>
<path d="M13.3633 4.17773L15.7657 11.0719" stroke="#7F7F7F" stroke-width="0.354223"/>
<path d="M19.6699 2.08984V9.81965" stroke="#7F7F7F" stroke-width="0.354223"/>
<path d="M27.3271 10.8642V2.08984" stroke="#7F7F7F" stroke-width="0.354223"/>
<path d="M34.3848 10.8642V2.08984" stroke="#7F7F7F" stroke-width="0.354223"/>
<path d="M41.4414 10.8642V2.08984" stroke="#7F7F7F" stroke-width="0.354223"/>
<path d="M48.6484 10.8642V2.08984" stroke="#7F7F7F" stroke-width="0.354223"/>
<path d="M55.7061 10.8642V2.08984" stroke="#7F7F7F" stroke-width="0.354223"/>
<path d="M62.7627 10.8642V2.08984" stroke="#7F7F7F" stroke-width="0.354223"/>
<path d="M69.9697 10.8642V2.08984" stroke="#7F7F7F" stroke-width="0.354223"/>
<path d="M77.0273 10.8642V2.08984" stroke="#7F7F7F" stroke-width="0.354223"/>
<path d="M84.2344 10.8642V2.08984" stroke="#7F7F7F" stroke-width="0.354223"/>
<path d="M91.291 10.8642V2.08984" stroke="#7F7F7F" stroke-width="0.354223"/>
<path d="M98.3486 10.8642V2.08984" stroke="#7F7F7F" stroke-width="0.354223"/>
<path d="M105.556 10.8642V2.08984" stroke="#7F7F7F" stroke-width="0.354223"/>
<path d="M112.612 10.8642V2.08984" stroke="#7F7F7F" stroke-width="0.354223"/>
<path d="M119.67 10.8642V2.08984" stroke="#7F7F7F" stroke-width="0.354223"/>
<path d="M126.877 10.8642V2.08984" stroke="#7F7F7F" stroke-width="0.354223"/>
<path d="M19.8201 15.2508H16.667V6.05859H19.8201V15.2508Z" fill="#CCCCCC" stroke="black" stroke-width="0.354223"/>
<path d="M29.2791 15.2508H26.126V6.05859H29.2791V15.2508Z" fill="#CCCCCC" stroke="black" stroke-width="0.354223"/>
<path d="M38.8892 15.2508H35.5859V6.05859H38.8892V15.2508Z" fill="#CCCCCC" stroke="black" stroke-width="0.354223"/>
<path d="M48.3485 15.2508H45.1953V6.05859H48.3485V15.2508Z" fill="#CCCCCC" stroke="black" stroke-width="0.354223"/>
<path d="M57.9576 15.2508H54.6543V6.05859H57.9576V15.2508Z" fill="#CCCCCC" stroke="black" stroke-width="0.354223"/>
<path d="M67.4178 15.2508H64.2646V6.05859H67.4178V15.2508Z" fill="#CCCCCC" stroke="black" stroke-width="0.354223"/>
<path d="M77.0269 15.2508H73.7236V6.05859H77.0269V15.2508Z" fill="#CCCCCC" stroke="black" stroke-width="0.354223"/>
<path d="M86.4862 15.2508H83.333V6.05859H86.4862V15.2508Z" fill="#CCCCCC" stroke="black" stroke-width="0.354223"/>
<path d="M95.9461 15.2508H92.793V6.05859H95.9461V15.2508Z" fill="#CCCCCC" stroke="black" stroke-width="0.354223"/>
<path d="M105.555 15.2508H102.252V6.05859H105.555V15.2508Z" fill="#CCCCCC" stroke="black" stroke-width="0.354223"/>
<path d="M115.015 15.2508H111.862V6.05859H115.015V15.2508Z" fill="#CCCCCC" stroke="black" stroke-width="0.354223"/>
<path d="M124.625 15.2508H121.321V6.05859H124.625V15.2508Z" fill="#CCCCCC" stroke="black" stroke-width="0.354223"/>
<path d="M134.084 15.2508H130.931V6.05859H134.084V15.2508Z" fill="#CCCCCC" stroke="black" stroke-width="0.354223"/>
<path d="M17.7175 48.6768L12.312 34.4707L10.8105 35.0974L13.5132 52.2284L17.7175 48.6768Z" fill="white"/>
<path d="M20.7207 4.80469H131.982" stroke="white" stroke-width="0.354223"/>
<path d="M105.556 34.0527H130.931V43.036H105.556V34.0527Z" fill="#666666"/>
<path d="M42.042 34.0527H57.8078V43.036H42.042V34.0527Z" fill="#666666"/>
</g>
<defs>
<clipPath id="clip0_2109_171275">
<rect width="150" height="150" fill="white"/>
</clipPath>
</defs>
</svg>
