<svg width="47" height="150" viewBox="0 0 47 150" fill="none" xmlns="http://www.w3.org/2000/svg">
<g clip-path="url(#clip0_2109_169184)">
<path d="M11.7028 131.231V150H35.2972V131.231L47 112.462V37.5375L35.2972 18.7688V0H11.7028V18.7688L0 37.5375V112.462L11.7028 131.231Z" fill="#7F7F7F"/>
<path d="M13.4015 131.081L13.5902 135.736V145.195L13.4015 148.649V149.85H14.7228H20.9517H28.5019H33.5983V145.195V135.736V131.081L36.0521 126.426L38.5059 121.772L40.9597 117.117L43.6023 112.462V98.3484V95.9459V93.5435V53.9039V49.0991V37.3874L40.9597 32.7327L38.5059 28.0781L36.0521 23.4234L33.5983 18.7688V13.964V4.65465V0H29.8232H28.5019H27.3693H18.4979H13.4015L13.5902 4.65465V13.964L13.4015 18.7688L10.9477 23.4234L8.49385 28.0781L6.04003 32.7327L4.15248 36.1862L3.39746 37.3874V39.7898V51.5015L3.58622 56.1562V95.9459L3.39746 100.601V112.462L6.04003 117.117L8.49385 121.772L10.9477 126.426L13.4015 131.081Z" fill="#949494"/>
<path d="M15.2896 131.081V135.736V145.195V148.649V149.85H16.2334H22.4623H28.6912H31.7113L31.9 145.195V135.736L31.7113 131.081L33.7876 126.426L35.8639 121.772L37.9402 117.117L40.0165 112.462V98.3484V95.9459V93.5435V53.9039V49.0991V37.3874L37.9402 32.7327L35.8639 28.0781L33.7876 23.4234L31.7113 18.7688L31.9 13.964V4.65465L31.7113 0H28.6912H27.7474H26.6149H19.4422H15.2896V4.65465V13.964V18.7688L13.2133 23.4234L11.137 28.0781L9.06068 32.7327L7.55064 36.1862L6.98438 37.3874V39.7898V51.5015L7.17313 56.1562V95.9459L6.98438 100.601V112.462L9.06068 117.117L11.137 121.772L13.2133 126.426L15.2896 131.081Z" fill="#A8A8A8"/>
<path d="M16.988 131.081L17.1767 135.736V145.195L16.988 148.649V149.85H17.9318H23.5944H29.0683H30.0121V145.195V135.736V131.081L31.7109 126.426L33.2209 121.772L34.9197 117.117L36.4298 112.462V98.3484L36.6185 95.9459V93.5435V53.9039L36.4298 49.0991V37.3874L34.9197 32.7327L33.2209 28.0781L31.7109 23.4234L30.0121 18.7688V13.964V4.65465V0H27.5583H26.8032H26.0482H20.3856H16.988L17.1767 4.65465V13.964L16.988 18.7688L15.4779 23.4234L13.7791 28.0781L12.2691 32.7327L10.9478 36.1862L10.5703 37.3874V39.7898V51.5015V56.1562V95.9459V100.601V112.462L12.2691 117.117L13.7791 121.772L15.4779 126.426L16.988 131.081Z" fill="#BDBDBD"/>
<path d="M18.8751 131.081V135.736V145.195V148.649V149.85H20.0077H25.8591H28.1241L28.3129 145.195V135.736L28.1241 131.081L29.4454 126.426L30.5779 121.772L31.7105 117.117L32.843 112.462V98.3484L33.0318 95.9459V93.5435V53.9039L32.843 49.0991V37.3874L31.7105 32.7327L30.5779 28.0781L29.4454 23.4234L28.1241 18.7688L28.3129 13.964V4.65465L28.1241 0H26.9916H25.8591H24.7265H18.8751V4.65465V13.964V18.7688L17.7426 23.4234L16.4213 28.0781L15.2888 32.7327L14.5338 36.1862L14.1562 37.3874V39.7898V51.5015V56.1562V95.9459V100.601V112.462L15.2888 117.117L16.4213 121.772L17.7426 126.426L18.8751 131.081Z" fill="#D1D1D1"/>
<path d="M20.5748 131.231V150H26.4262V131.231L29.2575 112.462V37.5375L26.4262 18.7688V0H20.5748V18.7688L17.5547 37.5375V112.462L20.5748 131.231Z" fill="#E5E5E5"/>
<path d="M11.7028 131.231V150H35.2972V131.231L47 112.462V37.5375L35.2972 18.7688V0H11.7028V18.7688L0 37.5375V112.462L11.7028 131.231Z" stroke="black" stroke-width="0.601504"/>
<path d="M0 37.5371H47" stroke="black" stroke-width="0.601504"/>
<path d="M0 112.463H47" stroke="black" stroke-width="0.601504"/>
<path d="M11.7031 18.7695H35.2975" stroke="black" stroke-width="0.601504"/>
<path d="M11.7031 131.23H35.2975" stroke="black" stroke-width="0.601504"/>
</g>
<defs>
<clipPath id="clip0_2109_169184">
<rect width="47" height="150" fill="white"/>
</clipPath>
</defs>
</svg>
