<svg width="53" height="150" viewBox="0 0 53 150" fill="none" xmlns="http://www.w3.org/2000/svg">
<g clip-path="url(#clip0_2109_170553)">
<path d="M46.9385 137.538L45.388 142.342L42.2869 145.345L37.7763 147.748L32.4199 149.399L28.4731 149.85L26.3588 150L24.2444 149.85L20.2976 149.399L14.9412 147.748L10.5715 145.345L7.47045 142.342L6.06088 138.739L5.91992 137.538V68.7688L8.73907 62.4625V18.6186L9.58482 13.0631L11.8401 8.25826L15.2231 4.2042L19.4518 1.5015L24.5263 0H26.3588H28.1912L33.2657 1.5015L37.6353 4.2042L40.8774 8.25826L43.1327 13.0631L43.8375 18.6186V62.4625L46.9385 68.7688V137.538Z" fill="#B2B2B2" stroke="black" stroke-width="0.489491"/>
<path d="M43.2738 137.538L42.0052 142.342L39.4679 145.345L35.803 147.748L31.2924 149.399L28.0504 149.85L26.3589 150L24.6674 149.85L19.8749 148.949L15.7871 146.997L12.5451 144.444L9.86688 139.94L9.72592 138.739L9.58496 137.538V68.7688L11.8403 62.4625V18.6186L12.5451 13.0631L14.3775 8.25826L17.1967 4.2042L20.7206 1.5015L24.8084 0H26.3589H27.9094L31.9972 1.5015L35.5211 4.2042L38.3403 8.25826L40.1727 13.0631L40.7366 18.6186V62.4625L43.2738 68.7688V137.538Z" fill="#CCCCCC"/>
<path d="M38.1991 137.538L37.2124 142.342L34.6751 146.246L30.8693 148.949L27.4863 149.85L26.3586 150L25.09 149.85L20.7203 148.348L17.3374 145.345L15.223 141.141L14.8001 138.739L14.6592 137.538V68.7688L16.3507 62.4625V18.6186L16.9145 13.0631L18.0422 8.25826L20.0156 4.2042L23.3985 0.750751L25.3719 0H26.3586H27.3453L31.1512 2.25225L33.5475 5.40541L35.239 9.75976L36.3666 14.8649L36.5076 18.6186V62.4625L38.1991 68.7688V137.538Z" fill="#E5E5E5"/>
<path d="M30.8696 137.538L30.4467 142.342L29.601 146.246L27.2047 149.7L26.7818 149.85L26.3589 150L25.9361 149.85L23.3988 146.246L22.4121 142.342L22.1302 139.94L21.9893 138.739V137.538V68.7688L22.5531 62.4625V16.6667L22.835 11.4114L23.5398 6.75676L24.5265 2.25225L25.9361 0H26.3589H26.7818L28.8962 4.2042L29.8829 9.75976L30.1648 14.8649L30.3057 18.6186V62.4625L30.8696 68.7688V137.538Z" fill="white"/>
<path d="M8.73926 18.6191H43.8377V20.1206H8.73926V18.6191Z" fill="#4C4C4C" stroke="black" stroke-width="0.489491"/>
<path d="M53 68.7695H0V69.0698H53V68.7695Z" fill="#7F7F7F" stroke="black" stroke-width="0.489491"/>
<path d="M53 76.2754H0V76.5757H53V76.2754Z" fill="#7F7F7F" stroke="black" stroke-width="0.489491"/>
<path d="M0 76.2756V69.0684" stroke="black" stroke-width="0.489491"/>
<path d="M7.61133 76.2756V69.0684" stroke="black" stroke-width="0.489491"/>
<path d="M14.9414 76.2756V69.0684" stroke="black" stroke-width="0.489491"/>
<path d="M22.5527 76.2756V69.0684" stroke="black" stroke-width="0.489491"/>
<path d="M30.3057 76.2756V69.0684" stroke="black" stroke-width="0.489491"/>
<path d="M37.6357 76.2756V69.0684" stroke="black" stroke-width="0.489491"/>
<path d="M45.2471 76.2756V69.0684" stroke="black" stroke-width="0.489491"/>
<path d="M53 69.0684V76.2756" stroke="black" stroke-width="0.489491"/>
<path d="M0 72.6719H52.7181" stroke="black" stroke-width="0.489491"/>
<path d="M49.0533 46.6973H3.66504V46.9976H49.0533V46.6973Z" fill="#7F7F7F" stroke="black" stroke-width="0.489491"/>
<path d="M49.0533 53.9043H3.66504V54.5049H49.0533V53.9043Z" fill="#7F7F7F" stroke="black" stroke-width="0.489491"/>
<path d="M3.66504 53.903V46.9961" stroke="black" stroke-width="0.489491"/>
<path d="M11.2764 53.903V46.9961" stroke="black" stroke-width="0.489491"/>
<path d="M18.8887 53.903V46.9961" stroke="black" stroke-width="0.489491"/>
<path d="M26.3594 53.903V46.9961" stroke="black" stroke-width="0.489491"/>
<path d="M33.9707 53.903V46.9961" stroke="black" stroke-width="0.489491"/>
<path d="M41.582 53.903V46.9961" stroke="black" stroke-width="0.489491"/>
<path d="M49.0527 46.9961V53.903" stroke="black" stroke-width="0.489491"/>
<path d="M3.66504 50.6016H49.0533" stroke="black" stroke-width="0.489491"/>
<path d="M49.0533 24.9258H3.66504V25.2261H49.0533V24.9258Z" fill="#7F7F7F" stroke="black" stroke-width="0.489491"/>
<path d="M49.0533 32.582H3.66504V32.8823H49.0533V32.582Z" fill="#7F7F7F" stroke="black" stroke-width="0.489491"/>
<path d="M3.66504 32.582V25.2246" stroke="black" stroke-width="0.489491"/>
<path d="M11.2764 32.582V25.2246" stroke="black" stroke-width="0.489491"/>
<path d="M18.8887 32.582V25.2246" stroke="black" stroke-width="0.489491"/>
<path d="M26.3594 32.582V25.2246" stroke="black" stroke-width="0.489491"/>
<path d="M33.9707 32.582V25.2246" stroke="black" stroke-width="0.489491"/>
<path d="M41.3008 32.582V25.2246" stroke="black" stroke-width="0.489491"/>
<path d="M49.0527 25.2246V32.582" stroke="black" stroke-width="0.489491"/>
<path d="M3.66504 28.8281H49.0533" stroke="black" stroke-width="0.489491"/>
<path d="M41.019 0H11.8408V0.600601H41.019V0Z" fill="#7F7F7F" stroke="black" stroke-width="0.489491"/>
<path d="M41.019 7.20703H11.8408V7.80763H41.019V7.20703Z" fill="#7F7F7F" stroke="black" stroke-width="0.489491"/>
<path d="M11.8408 7.20817V0.601562" stroke="black" stroke-width="0.489491"/>
<path d="M19.1699 7.20817V0.601562" stroke="black" stroke-width="0.489491"/>
<path d="M26.3594 7.20817V0.601562" stroke="black" stroke-width="0.489491"/>
<path d="M33.6885 7.20817V0.601562" stroke="black" stroke-width="0.489491"/>
<path d="M41.0186 0.601562V7.20817" stroke="black" stroke-width="0.489491"/>
<path d="M11.8408 3.9043H41.019" stroke="black" stroke-width="0.489491"/>
<path d="M8.73926 37.3867H43.8377" stroke="#7F7F7F" stroke-width="0.489491"/>
<path d="M8.73926 60.9609H43.8377V62.4624H8.73926V60.9609Z" fill="#4C4C4C" stroke="black" stroke-width="0.489491"/>
<path d="M5.91992 135.736H46.9385V137.538H5.91992V135.736Z" fill="#4C4C4C" stroke="black" stroke-width="0.489491"/>
</g>
<defs>
<clipPath id="clip0_2109_170553">
<rect width="53" height="150" fill="white"/>
</clipPath>
</defs>
</svg>
