<svg width="76" height="150" viewBox="0 0 76 150" fill="none" xmlns="http://www.w3.org/2000/svg">
<g clip-path="url(#clip0_2109_169819)">
<path d="M48.3633 1.35156V150" stroke="#FFCC00" stroke-width="0.694093"/>
<path d="M57.3047 3.00391V148.499" stroke="#FFCC00" stroke-width="0.694093"/>
<path d="M67.8721 1.35156V150" stroke="#FFCC00" stroke-width="0.694093"/>
<path d="M48.3633 148.499L57.3045 146.848" stroke="#FFCC00" stroke-width="0.694093"/>
<path d="M48.3633 1.35156L57.3045 3.00321" stroke="#FFCC00" stroke-width="0.694093"/>
<path d="M48.3633 145.345L57.3045 143.994" stroke="#FFCC00" stroke-width="0.694093"/>
<path d="M48.3633 142.793L57.3045 141.291" stroke="#FFCC00" stroke-width="0.694093"/>
<path d="M48.3633 139.64L57.3045 138.289" stroke="#FFCC00" stroke-width="0.694093"/>
<path d="M48.3633 136.787L57.3045 135.586" stroke="#FFCC00" stroke-width="0.694093"/>
<path d="M48.3633 134.084L57.3045 132.582" stroke="#FFCC00" stroke-width="0.694093"/>
<path d="M48.3633 131.08L57.3045 129.879" stroke="#FFCC00" stroke-width="0.694093"/>
<path d="M48.3633 128.379L57.3045 127.178" stroke="#FFCC00" stroke-width="0.694093"/>
<path d="M48.3633 125.375L57.3045 124.174" stroke="#FFCC00" stroke-width="0.694093"/>
<path d="M48.3633 122.372L57.3045 121.471" stroke="#FFCC00" stroke-width="0.694093"/>
<path d="M48.3633 119.67L57.3045 118.469" stroke="#FFCC00" stroke-width="0.694093"/>
<path d="M48.3633 116.667L57.3045 115.766" stroke="#FFCC00" stroke-width="0.694093"/>
<path d="M48.3633 113.963L57.3045 113.062" stroke="#FFCC00" stroke-width="0.694093"/>
<path d="M48.3633 110.961L57.3045 110.061" stroke="#FFCC00" stroke-width="0.694093"/>
<path d="M48.3633 107.958L57.3045 107.357" stroke="#FFCC00" stroke-width="0.694093"/>
<path d="M48.3633 105.254L57.3045 104.354" stroke="#FFCC00" stroke-width="0.694093"/>
<path d="M48.3633 102.253L57.3045 101.652" stroke="#FFCC00" stroke-width="0.694093"/>
<path d="M48.3633 99.5498L57.3045 98.9492" stroke="#FFCC00" stroke-width="0.694093"/>
<path d="M48.3633 96.5459L57.3045 95.9453" stroke="#FFCC00" stroke-width="0.694093"/>
<path d="M48.3633 93.5444L57.3045 93.2441" stroke="#FFCC00" stroke-width="0.694093"/>
<path d="M48.3633 90.8413L57.3045 90.541" stroke="#FFCC00" stroke-width="0.694093"/>
<path d="M48.3633 87.8374L57.3045 87.5371" stroke="#FFCC00" stroke-width="0.694093"/>
<path d="M48.3633 85.1343L57.3045 84.834" stroke="#FFCC00" stroke-width="0.694093"/>
<path d="M48.3633 82.1323L57.3045 81.832" stroke="#FFCC00" stroke-width="0.694093"/>
<path d="M48.3633 79.1289H57.3045" stroke="#FFCC00" stroke-width="0.694093"/>
<path d="M48.3633 76.4258H57.3045" stroke="#FFCC00" stroke-width="0.694093"/>
<path d="M48.3633 73.4238H57.3045" stroke="#FFCC00" stroke-width="0.694093"/>
<path d="M48.3633 70.7207H57.3045" stroke="#FFCC00" stroke-width="0.694093"/>
<path d="M48.3633 67.7168H57.3045" stroke="#FFCC00" stroke-width="0.694093"/>
<path d="M48.3633 64.7148L57.3045 65.0151" stroke="#FFCC00" stroke-width="0.694093"/>
<path d="M48.3633 62.0117L57.3045 62.312" stroke="#FFCC00" stroke-width="0.694093"/>
<path d="M48.3633 59.0098L57.3045 59.3101" stroke="#FFCC00" stroke-width="0.694093"/>
<path d="M48.3633 56.3066L57.3045 56.6069" stroke="#FFCC00" stroke-width="0.694093"/>
<path d="M48.3633 53.3027L57.3045 53.603" stroke="#FFCC00" stroke-width="0.694093"/>
<path d="M48.3633 50.3008L57.3045 50.9014" stroke="#FFCC00" stroke-width="0.694093"/>
<path d="M48.3633 47.5977L57.3045 48.1983" stroke="#FFCC00" stroke-width="0.694093"/>
<path d="M48.3633 44.5938L57.3045 45.1944" stroke="#FFCC00" stroke-width="0.694093"/>
<path d="M48.3633 41.8926L57.3045 42.4932" stroke="#FFCC00" stroke-width="0.694093"/>
<path d="M48.3633 38.8887L57.3045 39.4893" stroke="#FFCC00" stroke-width="0.694093"/>
<path d="M48.3633 35.8867L57.3045 36.7876" stroke="#FFCC00" stroke-width="0.694093"/>
<path d="M48.3633 33.1836L57.3045 34.0845" stroke="#FFCC00" stroke-width="0.694093"/>
<path d="M48.3633 30.1797L57.3045 31.0806" stroke="#FFCC00" stroke-width="0.694093"/>
<path d="M48.3633 27.4766L57.3045 28.3775" stroke="#FFCC00" stroke-width="0.694093"/>
<path d="M48.3633 24.4746L57.3045 25.3755" stroke="#FFCC00" stroke-width="0.694093"/>
<path d="M48.3633 21.4707L57.3045 22.6719" stroke="#FFCC00" stroke-width="0.694093"/>
<path d="M48.3633 18.7695L57.3045 19.9707" stroke="#FFCC00" stroke-width="0.694093"/>
<path d="M48.3633 15.7656L57.3045 16.9668" stroke="#FFCC00" stroke-width="0.694093"/>
<path d="M48.3633 13.0625L57.3045 14.2637" stroke="#FFCC00" stroke-width="0.694093"/>
<path d="M48.3633 10.2109L57.3045 11.4121" stroke="#FFCC00" stroke-width="0.694093"/>
<path d="M48.3633 7.05664L57.3045 8.55814" stroke="#FFCC00" stroke-width="0.694093"/>
<path d="M48.3633 4.50391L57.3045 5.85526" stroke="#FFCC00" stroke-width="0.694093"/>
<path d="M53.2403 3.003L48.3633 1.35135L53.2403 0H62.9943L67.8713 1.35135L62.9943 3.003H53.2403Z" stroke="#FFCC00" stroke-width="0.694093"/>
<path d="M53.2403 24.4751L48.3633 23.2739L53.2403 22.373H62.9943L67.8713 23.2739L62.9943 24.4751H53.2403Z" stroke="#FFCC00" stroke-width="0.694093"/>
<path d="M53.2403 46.0953L48.3633 45.4947L53.2403 44.5938H62.9943L67.8713 45.4947L62.9943 46.0953H53.2403Z" stroke="#FFCC00" stroke-width="0.694093"/>
<path d="M53.2403 67.7178L48.3633 67.4175L53.2403 67.1172H62.9943L67.8713 67.4175L62.9943 67.7178H53.2403Z" stroke="#FFCC00" stroke-width="0.694093"/>
<path d="M53.2403 89.3394L48.3633 88.4385L53.2403 87.8379H62.9943L67.8713 88.4385L62.9943 89.3394H53.2403Z" stroke="#FFCC00" stroke-width="0.694093"/>
<path d="M53.2403 110.661L48.3633 109.76L53.2403 108.859H62.9943L67.8713 109.76L62.9943 110.661H53.2403Z" stroke="#FFCC00" stroke-width="0.694093"/>
<path d="M53.2403 131.981L48.3633 131.08L53.2403 129.879H62.9943L67.8713 131.08L62.9943 131.981H53.2403Z" stroke="#FFCC00" stroke-width="0.694093"/>
<path d="M48.3633 85.7363V86.6372H75.9996V85.7363H48.3633Z" fill="#007FB2"/>
<path d="M73.5615 82.1328V90.5412H76V82.1328H73.5615Z" fill="#0099CC"/>
<path d="M48.3633 82.1328V90.5412H50.8018V82.1328H48.3633Z" fill="#0099CC"/>
<path d="M57.3047 82.1328V90.5412H59.3368V82.1328H57.3047Z" fill="#0099CC"/>
<path d="M65.4336 82.1328V90.5412H67.8721V82.1328H65.4336Z" fill="#0099CC"/>
<path d="M40.2354 90.541V92.9434H73.5616V90.541H40.2354Z" fill="#004C7F"/>
<path d="M50.8018 90.541V92.9434H75.9996V90.541H50.8018Z" fill="#0099CC"/>
<path d="M40.2354 90.541V92.9434H76.0001V90.541H40.2354Z" stroke="black" stroke-width="0.694093"/>
<path d="M48.3633 81.2305V82.1314H75.9996V81.2305H48.3633Z" fill="#0099CC"/>
<path d="M48.3633 90.5398V81.2305H75.9996V90.5398" stroke="black" stroke-width="0.694093"/>
<path d="M15.4434 90.541H40.2348V121.772H15.4434V90.541Z" fill="#00194C"/>
<path d="M46.7382 148.049L41.0484 149.25L32.1072 150.001H22.3532L13.412 149.25L8.94141 148.049V122.974L13.412 121.772L22.3532 121.172H32.1072L41.0484 121.772L46.7382 122.974V148.049Z" fill="#007FB2" stroke="black" stroke-width="0.694093"/>
<path d="M46.7382 119.37L41.0484 120.271L32.1072 120.872H22.3532L13.412 120.271L8.94141 119.37V93.8448L13.412 92.6436L22.3532 92.043H32.1072L41.0484 92.9439L46.7382 93.8448V119.37Z" fill="#007FB2" stroke="black" stroke-width="0.694093"/>
<path d="M46.7382 89.039V56.9069L40.2355 55.4054V50H34.1393V28.0781L40.2355 24.7748V3.003L36.1714 0.900901L37.797 0H16.6633L19.1018 0.900901L15.4441 3.003V24.7748L21.1339 28.0781V50H15.4441V55.4054L8.94141 56.9069V89.039L13.412 90.5405L22.3532 91.4414H32.92L41.0484 90.5405L46.7382 89.039Z" fill="#007FB2" stroke="black" stroke-width="0.694093"/>
<path d="M43.4865 148.049L38.6095 149.25L31.294 150.001H23.1656L15.8501 149.25L12.1924 148.049V122.974L15.8501 121.772L23.1656 121.172H31.294L38.6095 121.772L43.4865 122.974V148.049Z" fill="#008FC2"/>
<path d="M43.4865 119.07L38.6095 120.271L31.294 120.872H23.1656L15.8501 120.271L12.1924 119.07V93.8448L15.8501 92.6436L23.1656 92.043H31.294L38.6095 92.6436L43.4865 93.8448V119.07Z" fill="#008FC2"/>
<path d="M43.4865 88.1381V56.9069L37.7967 55.4054V50H32.9197V28.0781L37.7967 24.7748V3.003L34.5453 0.900901L36.171 0H19.1015L21.1336 0.900901L17.8822 3.003V24.7748L22.3528 28.0781V50H17.8822V55.4054L12.1924 56.9069V88.1381L15.8501 89.6396L23.1656 90.5405H32.1068L39.4223 89.6396L43.4865 88.1381Z" fill="#008FC2"/>
<path d="M39.422 148.049L36.1706 149.25L30.8872 150.001H24.3845L18.6947 149.25L15.4434 148.049V122.974L18.6947 121.772L24.3845 121.172H30.8872L36.1706 121.772L39.422 122.974V148.049Z" fill="#009ED1"/>
<path d="M39.422 119.07L36.1706 120.271L30.8872 120.872H24.3845L18.6947 120.271L15.4434 119.07V93.8448L18.6947 92.6436L24.3845 92.043H30.8872L36.1706 92.6436L39.422 93.8448V119.07Z" fill="#009ED1"/>
<path d="M40.2358 87.2372L39.4229 56.9069L35.3588 55.4054V50H31.2946V28.0781L35.3588 24.7748V3.003L32.9203 0.900901L34.5459 0H21.1342L22.3534 0.900901L19.1021 3.003V24.7748L23.1663 28.0781V50H19.1021V55.4054L15.4443 56.9069V87.2372L18.6957 89.039L24.3855 89.9399H30.8882L36.1716 89.039L40.2358 87.2372Z" fill="#009ED1"/>
<path d="M36.1711 148.049L34.139 149.25L29.6684 150.001H24.7914L21.1336 149.25L19.1016 148.049V122.974L21.1336 121.772L24.7914 121.172H29.6684L34.139 121.772L36.1711 122.974V148.049Z" fill="#00ADE0"/>
<path d="M36.1711 119.07L34.139 120.271L29.6684 120.872H24.7914L21.1336 120.271L19.1016 119.07V93.8448L21.1336 92.6436L24.7914 92.043H29.6684L34.139 92.6436L36.1711 93.8448V119.07Z" fill="#00ADE0"/>
<path d="M36.1711 86.6366V56.9069L34.139 55.4054V50H30.8877V28.0781L34.139 24.7748V3.003L31.2941 0.900901L32.1069 0H22.3529L24.385 0.900901L21.5401 3.003V24.7748L24.7914 28.0781V50H21.5401V55.4054L19.1016 56.9069V86.6366L21.1336 88.1381L24.7914 89.039H29.6684L34.139 88.1381L36.1711 86.6366Z" fill="#00ADE0"/>
<path d="M27.636 150.001C30.5539 150.001 32.9194 143.547 32.9194 135.586C32.9194 127.625 30.5539 121.172 27.636 121.172C24.718 121.172 22.3525 127.625 22.3525 135.586C22.3525 143.547 24.718 150.001 27.636 150.001Z" fill="#00BDF0"/>
<path d="M27.636 120.872C30.5539 120.872 32.9194 114.418 32.9194 106.457C32.9194 98.4965 30.5539 92.043 27.636 92.043C24.718 92.043 22.3525 98.4965 22.3525 106.457C22.3525 114.418 24.718 120.872 27.636 120.872Z" fill="#00BDF0"/>
<path d="M32.9194 85.7357V56.9069L31.2937 55.4054V50H29.668V28.0781L31.2937 24.7748V3.003L29.668 0.900901L30.8873 0H24.791V0.900901L24.3846 3.003V24.7748L25.6039 28.0781V50H24.3846V55.4054L22.3525 56.9069V85.7357L24.3846 87.5375L26.4167 88.1381H28.8552L31.2937 87.5375L32.9194 85.7357Z" fill="#00BDF0"/>
<path d="M27.6366 87.3874C28.7589 87.3874 29.6687 67.8251 29.6687 43.6937C29.6687 19.5623 28.7589 0 27.6366 0C26.5143 0 25.6045 19.5623 25.6045 43.6937C25.6045 67.8251 26.5143 87.3874 27.6366 87.3874Z" fill="#00CCFF"/>
<path d="M27.6366 120.872C28.7589 120.872 29.6687 114.418 29.6687 106.457C29.6687 98.4965 28.7589 92.043 27.6366 92.043C26.5143 92.043 25.6045 98.4965 25.6045 106.457C25.6045 114.418 26.5143 120.872 27.6366 120.872Z" fill="#00CCFF"/>
<path d="M27.6366 150.001C28.7589 150.001 29.6687 143.547 29.6687 135.586C29.6687 127.625 28.7589 121.172 27.6366 121.172C26.5143 121.172 25.6045 127.625 25.6045 135.586C25.6045 143.547 26.5143 150.001 27.6366 150.001Z" fill="#00CCFF"/>
<path d="M21.1332 28.0787L15.4434 24.7754H40.2348L34.1385 28.0787H21.1332Z" fill="#004C7F" stroke="black" stroke-width="0.694093"/>
<path d="M21.1338 50H34.1391" stroke="black" stroke-width="0.694093"/>
<path d="M19.1016 28.0781V28.6787H36.1711V28.0781H19.1016Z" fill="#007FB2" stroke="black" stroke-width="0.694093"/>
<path d="M0 150V7.8079L4.87701 6.15625H19.1016V8.55865H6.09626V150H0Z" fill="#007FB2" stroke="black" stroke-width="0.694093"/>
<path d="M0 150V7.8079L4.87701 6.15625H19.1016V8.55865H6.09626V150H0Z" fill="#006699" stroke="black" stroke-width="0.694093"/>
<path d="M50.802 63.2125V21.9212L46.7378 20.2695H31.2939V22.6719H44.2993V63.2125H36.171V65.6149H46.7378L50.802 63.2125Z" fill="#007FB2" stroke="black" stroke-width="0.694093"/>
<path d="M41.8613 60.8105H59.3373V67.1169H41.8613V60.8105Z" fill="#006699"/>
<path d="M44.2998 60.8105H57.3052V67.1169H44.2998V60.8105Z" fill="#008CBF"/>
<path d="M48.3633 60.8105H52.8339V67.1169H48.3633V60.8105Z" fill="#00A6D9"/>
<path d="M41.8613 60.8105H59.3373V67.1169H41.8613V60.8105Z" stroke="black" stroke-width="0.694093"/>
<path d="M12.5986 138.289H21.1334V150.001H12.5986V138.289Z" fill="#006699"/>
<path d="M13.4121 138.289H19.9148V150.001H13.4121V138.289Z" fill="#008CBF"/>
<path d="M15.8506 138.289H17.8827V150.001H15.8506V138.289Z" fill="#00A6D9"/>
<path d="M12.5986 138.289H21.1334V150.001H12.5986V138.289Z" stroke="black" stroke-width="0.694093"/>
</g>
<defs>
<clipPath id="clip0_2109_169819">
<rect width="76" height="150" fill="white"/>
</clipPath>
</defs>
</svg>
