<svg width="150" height="150" viewBox="0 0 150 150" fill="none" xmlns="http://www.w3.org/2000/svg">
<g clip-path="url(#clip0_2109_170632)">
<path d="M122.85 28.5285V12.6126L93.665 0H50.9048L21.3799 12.6126V149.85H50.9048V15.9159L57.6921 12.6126H86.8776L93.665 15.9159V28.5285H122.85Z" fill="#999999"/>
<path d="M119.797 28.6779V12.762L92.3079 0.75H50.9052L23.7559 12.9122V149.699L47.8509 149.849V16.0653L58.3712 11.4107H86.5387L96.3803 15.765V28.6779H119.797Z" fill="#A6A6A6"/>
<path d="M117.081 28.6796V13.064L90.9499 1.80273H51.5833L26.1309 13.3643V149.851H45.1354V16.2171L58.71 10.2111H86.5381L99.0947 15.7667V28.6796H117.081Z" fill="#B2B2B2"/>
<path d="M114.367 28.6793V13.2139L89.5928 2.85352H51.9231L28.5068 13.8145V149.851H42.4209V16.367L59.0498 9.00967H86.5385L101.81 15.7664V28.6793H114.367Z" fill="#BFBFBF"/>
<path d="M111.991 28.5287V13.5137L88.2353 3.75391H52.2624L30.543 14.4146V149.85H40.0452V16.817L59.7285 7.95811H86.8778L104.525 15.9161V28.5287H111.991Z" fill="#CCCCCC"/>
<path d="M122.85 28.5285V12.6126L93.665 0H50.9048L21.3799 12.6126V149.85H50.9048V15.9159L57.6921 12.6126H86.8776L93.665 15.9159V28.5285H122.85Z" stroke="black" stroke-width="0.451468"/>
<path d="M21.7195 146.696C33.7148 146.696 43.4389 142.393 43.4389 137.086C43.4389 131.779 33.7148 127.477 21.7195 127.477C9.72413 127.477 0 131.779 0 137.086C0 142.393 9.72413 146.696 21.7195 146.696Z" fill="#7F7F7F" stroke="black" stroke-width="0.451468"/>
<path d="M79.4121 35.1359L93.6655 28.5293H122.851L137.104 35.1359V149.851H79.4121V35.1359Z" fill="#B2B2B2"/>
<path d="M84.8418 34.9858L96.3803 28.5293H120.136L131.674 34.9858V149.851H84.8418V34.9858Z" fill="#C4C4C4"/>
<path d="M90.2715 34.9858L99.095 28.5293H117.081L126.244 34.9858V149.851H90.2715V34.9858Z" fill="#D9D9D9"/>
<path d="M95.3623 34.9858L101.81 28.5293H114.706L120.815 34.9858V149.851H95.3623V34.9858Z" fill="#EBEBEB"/>
<path d="M101.131 35.1359L104.525 28.5293H111.991L115.384 35.1359V149.851H101.131V35.1359Z" fill="white"/>
<path d="M79.4121 35.1359L93.6655 28.5293H122.851L137.104 35.1359V149.851H79.4121V35.1359Z" stroke="black" stroke-width="0.451468"/>
<path d="M35.9727 130.631H79.4116V143.544H35.9727V130.631Z" fill="#B2B2B2"/>
<path d="M35.9727 131.982H79.4116V142.343H35.9727V131.982Z" fill="#C4C4C4"/>
<path d="M35.9727 133.184H79.4116V141.142H35.9727V133.184Z" fill="#D9D9D9"/>
<path d="M35.9727 134.385H79.4116V139.94H35.9727V134.385Z" fill="#EBEBEB"/>
<path d="M35.9727 135.436H79.4116V138.739H35.9727V135.436Z" fill="white"/>
<path d="M35.9727 130.631H79.4116V143.544H35.9727V130.631Z" stroke="black" stroke-width="0.451468"/>
<path d="M120.815 51.6514C122.689 51.6514 124.208 50.9792 124.208 50.1499C124.208 49.3207 122.689 48.6484 120.815 48.6484C118.94 48.6484 117.421 49.3207 117.421 50.1499C117.421 50.9792 118.94 51.6514 120.815 51.6514Z" fill="#666666" stroke="black" stroke-width="0.451468"/>
<path d="M119.457 50.1504H122.851V149.85H119.457V50.1504Z" fill="black" stroke="black" stroke-width="0.451468"/>
<path d="M145.928 138.738H150V149.849H145.928V138.738Z" fill="black" stroke="black" stroke-width="0.451468"/>
<path d="M97.7373 143.543H145.927V145.044H97.7373V143.543Z" fill="black" stroke="black" stroke-width="0.451468"/>
<path d="M145.928 74.1738H50.2266V75.6753H145.928V74.1738Z" fill="black" stroke="black" stroke-width="0.451468"/>
<path d="M122.851 57.3574H140.498V58.8589H122.851V57.3574Z" fill="black" stroke="black" stroke-width="0.451468"/>
<path d="M12.5566 138.738H31.2218V149.849H12.5566V138.738Z" fill="#4C4C4C" stroke="black" stroke-width="0.451468"/>
<path d="M12.5566 138.739H31.2218V133.033H12.5566V138.739Z" fill="#999999" stroke="black" stroke-width="0.451468"/>
<path d="M50.9048 15.9166L21.3799 12.6133" stroke="black" stroke-width="0.451468"/>
<path d="M57.6926 12.6126L52.2627 0" stroke="black" stroke-width="0.451468"/>
<path d="M86.8779 12.6126L93.6653 0" stroke="black" stroke-width="0.451468"/>
<path d="M93.665 15.9166L122.851 12.6133" stroke="black" stroke-width="0.451468"/>
<path d="M79.4121 35.1348H137.104" stroke="black" stroke-width="0.451468"/>
<path d="M19.3438 73.2734H52.2623V76.5767H19.3438V73.2734Z" fill="#999999" stroke="black" stroke-width="0.451468"/>
<path d="M19.3438 122.822H52.2623V125.825H19.3438V122.822Z" fill="#999999" stroke="black" stroke-width="0.451468"/>
<path d="M137.104 54.0547H144.571V66.9676H137.104V54.0547Z" fill="#999999" stroke="black" stroke-width="0.451468"/>
<path d="M137.104 118.018H144.571V130.63H137.104V118.018Z" fill="#999999" stroke="black" stroke-width="0.451468"/>
</g>
<defs>
<clipPath id="clip0_2109_170632">
<rect width="150" height="150" fill="white"/>
</clipPath>
</defs>
</svg>
