<svg width="150" height="150" viewBox="0 0 150 150" fill="none" xmlns="http://www.w3.org/2000/svg">
<g clip-path="url(#clip0_2109_170713)">
<path d="M0 124.925H29.0611V26.4264H47.6155V150H103.502V140.541H131.446V134.234H103.502V124.925H131.446L112.668 112.462H103.502V0H47.6155V18.6186H16.0954V117.117H0V124.925Z" fill="#00FFFF"/>
<path d="M131.446 100L135.023 100.15L138.599 100.901L141.729 102.102L144.635 103.604L146.871 105.405L148.435 107.508L149.553 109.91L149.777 111.111L150 112.462L149.777 113.664L149.106 116.066L147.765 118.318L145.753 120.42L143.294 122.072L140.164 123.423L136.811 124.324L133.234 124.925H131.446H129.434L125.857 124.324L122.504 123.423L119.598 122.072L116.915 120.42L114.903 118.318L113.562 116.066L112.892 113.664L112.668 112.462L112.892 111.111L113.562 108.709L115.127 106.456L117.139 104.505L119.598 102.703L122.504 101.351L125.857 100.45L129.434 100H131.446V100.3V107.658L128.763 108.108L126.528 109.159L124.963 110.661L124.292 112.462L124.963 114.114L126.528 115.616L128.763 116.667L131.446 117.117L133.905 116.667L136.14 115.616L137.705 114.114L138.376 112.462L137.705 110.661L136.14 109.159L133.905 108.108L131.446 107.658V100Z" fill="#00FFFF"/>
<path d="M0 124.924H29.0611V26.4258H47.6155V149.999H103.502V140.54H131.446" stroke="black" stroke-width="0.366418"/>
<path d="M131.446 134.234H103.502V124.925H131.446L138.599 123.874L144.635 121.321L148.435 117.267L149.776 113.664L150 112.462L149.776 111.111L147.765 106.456L143.294 102.703L136.811 100.45L129.434 100L122.504 101.351L116.915 104.505L113.562 108.709L112.668 112.462H103.502V0H47.6155V18.6186H16.0954V117.117H0" stroke="black" stroke-width="0.366418"/>
<path d="M131.222 116.968C135.049 116.968 138.152 114.884 138.152 112.313C138.152 109.742 135.049 107.658 131.222 107.658C127.395 107.658 124.292 109.742 124.292 112.313C124.292 114.884 127.395 116.968 131.222 116.968Z" stroke="black" stroke-width="0.366418"/>
<path d="M47.6152 18.6191H103.502" stroke="black" stroke-width="0.366418"/>
<path d="M47.6152 26.4258H68.6286V34.2336H82.4886V26.4258H103.502" stroke="black" stroke-width="0.366418"/>
<path d="M47.6152 14.7148H103.502" stroke="black" stroke-width="0.366418"/>
<path d="M52.3096 0V14.7147" stroke="black" stroke-width="0.366418"/>
<path d="M70.8643 0V14.7147" stroke="black" stroke-width="0.366418"/>
<path d="M89.4189 0V14.7147" stroke="black" stroke-width="0.366418"/>
<path d="M57.0049 0V14.7147" stroke="black" stroke-width="0.366418"/>
<path d="M75.5586 0V14.7147" stroke="black" stroke-width="0.366418"/>
<path d="M93.8896 0V14.7147" stroke="black" stroke-width="0.366418"/>
<path d="M61.6992 0V14.7147" stroke="black" stroke-width="0.366418"/>
<path d="M80.2529 0V14.7147" stroke="black" stroke-width="0.366418"/>
<path d="M98.8076 0V14.7147" stroke="black" stroke-width="0.366418"/>
<path d="M66.1699 0V14.7147" stroke="black" stroke-width="0.366418"/>
<path d="M84.7246 0V14.7147" stroke="black" stroke-width="0.366418"/>
<path d="M47.6152 46.8477H103.502" stroke="black" stroke-width="0.366418"/>
<path d="M47.6152 46.847L68.6286 34.2344" stroke="black" stroke-width="0.366418"/>
<path d="M82.4893 34.2344L103.503 46.847" stroke="black" stroke-width="0.366418"/>
<path d="M75.5586 46.847V34.2344" stroke="black" stroke-width="0.366418"/>
<path d="M71.9824 34.2344L61.6992 46.847" stroke="black" stroke-width="0.366418"/>
<path d="M78.9121 34.2344L89.4188 46.847" stroke="black" stroke-width="0.366418"/>
<path d="M103.502 106.156H47.6152" stroke="black" stroke-width="0.366418"/>
<path d="M52.5332 106.157V46.8477" stroke="black" stroke-width="0.366418"/>
<path d="M61.6992 46.8477V106.157" stroke="black" stroke-width="0.366418"/>
<path d="M71.0879 106.157V46.8477" stroke="black" stroke-width="0.366418"/>
<path d="M80.2529 46.8477V106.157" stroke="black" stroke-width="0.366418"/>
<path d="M89.6426 106.157V46.8477" stroke="black" stroke-width="0.366418"/>
<path d="M98.8076 106.157V46.8477" stroke="black" stroke-width="0.366418"/>
<path d="M49.8506 14.7147V0" stroke="black" stroke-width="0.366418"/>
<path d="M77.5703 14.7147V0" stroke="black" stroke-width="0.366418"/>
<path d="M54.5459 14.7147V0" stroke="black" stroke-width="0.366418"/>
<path d="M82.2656 14.7147V0" stroke="black" stroke-width="0.366418"/>
<path d="M59.2402 14.7147V0" stroke="black" stroke-width="0.366418"/>
<path d="M86.96 14.7147V0" stroke="black" stroke-width="0.366418"/>
<path d="M63.9346 14.7147V0" stroke="black" stroke-width="0.366418"/>
<path d="M91.6543 14.7147V0" stroke="black" stroke-width="0.366418"/>
<path d="M68.6289 14.7147V0" stroke="black" stroke-width="0.366418"/>
<path d="M96.3486 14.7147V0" stroke="black" stroke-width="0.366418"/>
<path d="M73.3232 14.7147V0" stroke="black" stroke-width="0.366418"/>
<path d="M101.043 14.7147V0" stroke="black" stroke-width="0.366418"/>
<path d="M57.0049 46.8477V106.157" stroke="black" stroke-width="0.366418"/>
<path d="M66.1699 106.157V46.8477" stroke="black" stroke-width="0.366418"/>
<path d="M75.5586 46.8477V106.157" stroke="black" stroke-width="0.366418"/>
<path d="M84.7246 106.157V46.8477" stroke="black" stroke-width="0.366418"/>
<path d="M94.1133 46.8477V106.157" stroke="black" stroke-width="0.366418"/>
</g>
<defs>
<clipPath id="clip0_2109_170713">
<rect width="150" height="150" fill="white"/>
</clipPath>
</defs>
</svg>
