<svg width="150" height="150" viewBox="0 0 150 150" fill="none" xmlns="http://www.w3.org/2000/svg">
<g clip-path="url(#clip0_2109_170111)">
<path d="M26.25 5.55469H123.75V149.999H26.25V5.55469Z" fill="#663300"/>
<path d="M39.375 5.55469H110.625V149.999H39.375V5.55469Z" fill="#7F4C19"/>
<path d="M48.125 5.55469H101.875V149.999H48.125V5.55469Z" fill="#996633"/>
<path d="M60.625 5.55469H89.375V149.999H60.625V5.55469Z" fill="#B28C65"/>
<path d="M28.75 59.6094H121.25V105.405H28.75V59.6094Z" fill="#4C4C4C"/>
<path d="M41.25 59.6094H108.75V105.405H41.25V59.6094Z" fill="#666666"/>
<path d="M50 59.6094H100V105.405H50V59.6094Z" fill="#7F7F7F"/>
<path d="M61.25 59.6094H88.75V105.405H61.25V59.6094Z" fill="#999999"/>
<path d="M26.25 16.666H123.75V149.999H26.25V16.666Z" stroke="black" stroke-width="0.612679"/>
<path d="M26.25 5.55469H123.75V149.999H26.25V5.55469Z" stroke="black" stroke-width="0.612679"/>
<path d="M23.125 30.4805H126.875V34.6847H23.125V30.4805Z" fill="#4C1900"/>
<path d="M36.875 30.4805H113.125V34.6847H36.875V30.4805Z" fill="#663333"/>
<path d="M46.875 30.4805H103.125V34.6847H46.875V30.4805Z" fill="#7F4C19"/>
<path d="M60 30.4805H90V34.6847H60V30.4805Z" fill="#996633"/>
<path d="M23.125 30.4805H126.875V34.6847H23.125V30.4805Z" stroke="black" stroke-width="0.612679"/>
<path d="M23.125 130.48H126.875V134.535H23.125V130.48Z" fill="#4C1900"/>
<path d="M36.875 130.48H113.125V134.535H36.875V130.48Z" fill="#663333"/>
<path d="M46.875 130.48H103.125V134.535H46.875V130.48Z" fill="#7F4C19"/>
<path d="M60 130.48H90V134.535H60V130.48Z" fill="#996633"/>
<path d="M23.125 130.48H126.875V134.535H23.125V130.48Z" stroke="black" stroke-width="0.612679"/>
<path d="M23.125 80.4805H126.875V84.5345H23.125V80.4805Z" fill="#4C1900"/>
<path d="M36.875 80.4805H113.125V84.5345H36.875V80.4805Z" fill="#663333"/>
<path d="M46.875 80.4805H103.125V84.5345H46.875V80.4805Z" fill="#7F4C19"/>
<path d="M60 80.4805H90V84.5345H60V80.4805Z" fill="#996633"/>
<path d="M23.125 80.4805H126.875V84.5345H23.125V80.4805Z" stroke="black" stroke-width="0.612679"/>
<path d="M23.125 55.4062H126.875V59.6105H23.125V55.4062Z" fill="#4C1900"/>
<path d="M36.875 55.4062H113.125V59.6105H36.875V55.4062Z" fill="#663333"/>
<path d="M46.875 55.4062H103.125V59.6105H46.875V55.4062Z" fill="#7F4C19"/>
<path d="M60 55.4062H90V59.6105H60V55.4062Z" fill="#996633"/>
<path d="M23.125 55.4062H126.875V59.6105H23.125V55.4062Z" stroke="black" stroke-width="0.612679"/>
<path d="M23.125 105.406H126.875V109.61H23.125V105.406Z" fill="#4C1900"/>
<path d="M36.875 105.406H113.125V109.61H36.875V105.406Z" fill="#663333"/>
<path d="M46.875 105.406H103.125V109.61H46.875V105.406Z" fill="#7F4C19"/>
<path d="M60 105.406H90V109.61H60V105.406Z" fill="#996633"/>
<path d="M23.125 105.406H126.875V109.61H23.125V105.406Z" stroke="black" stroke-width="0.612679"/>
<path d="M88.125 77.7773H103.75V129.129H88.125V77.7773Z" fill="#4C4C4C"/>
<path d="M93.75 77.7773H98.75V129.129H93.75V77.7773Z" fill="#BFBFBF"/>
<path d="M88.125 77.7773H103.75V129.129H88.125V77.7773Z" stroke="black" stroke-width="0.612679"/>
<path d="M11.25 0H23.125V150H11.25V0Z" stroke="black" stroke-width="0.612679"/>
<path d="M11.25 86.0352H23.125" stroke="black" stroke-width="0.612679"/>
<path d="M11.25 88.8887H23.125" stroke="black" stroke-width="0.612679"/>
<path d="M11.25 91.5918H23.125" stroke="black" stroke-width="0.612679"/>
<path d="M11.25 94.4453H23.125" stroke="black" stroke-width="0.612679"/>
<path d="M11.25 97.1465H23.125" stroke="black" stroke-width="0.612679"/>
<path d="M11.25 99.8496H23.125" stroke="black" stroke-width="0.612679"/>
<path d="M11.25 102.703H23.125" stroke="black" stroke-width="0.612679"/>
<path d="M11.25 105.406H23.125" stroke="black" stroke-width="0.612679"/>
<path d="M11.25 108.258H23.125" stroke="black" stroke-width="0.612679"/>
<path d="M11.25 110.961H23.125" stroke="black" stroke-width="0.612679"/>
<path d="M11.25 113.814H23.125" stroke="black" stroke-width="0.612679"/>
<path d="M11.25 116.516H23.125" stroke="black" stroke-width="0.612679"/>
<path d="M11.25 119.369H23.125" stroke="black" stroke-width="0.612679"/>
<path d="M11.25 122.072H23.125" stroke="black" stroke-width="0.612679"/>
<path d="M11.25 124.926H23.125" stroke="black" stroke-width="0.612679"/>
<path d="M11.25 127.627H23.125" stroke="black" stroke-width="0.612679"/>
<path d="M11.25 130.48H23.125" stroke="black" stroke-width="0.612679"/>
<path d="M11.25 133.184H23.125" stroke="black" stroke-width="0.612679"/>
<path d="M11.25 136.035H23.125" stroke="black" stroke-width="0.612679"/>
<path d="M11.25 138.738H23.125" stroke="black" stroke-width="0.612679"/>
<path d="M11.25 141.592H23.125" stroke="black" stroke-width="0.612679"/>
<path d="M11.25 144.295H23.125" stroke="black" stroke-width="0.612679"/>
<path d="M11.25 147.146H23.125" stroke="black" stroke-width="0.612679"/>
<path d="M11.25 22.0723H23.125" stroke="black" stroke-width="0.612679"/>
<path d="M11.25 24.9258H23.125" stroke="black" stroke-width="0.612679"/>
<path d="M11.25 27.627H23.125" stroke="black" stroke-width="0.612679"/>
<path d="M11.25 30.4805H23.125" stroke="black" stroke-width="0.612679"/>
<path d="M11.25 33.1836H23.125" stroke="black" stroke-width="0.612679"/>
<path d="M11.25 35.8867H23.125" stroke="black" stroke-width="0.612679"/>
<path d="M11.25 38.7383H23.125" stroke="black" stroke-width="0.612679"/>
<path d="M11.25 41.4414H23.125" stroke="black" stroke-width="0.612679"/>
<path d="M11.25 44.2949H23.125" stroke="black" stroke-width="0.612679"/>
<path d="M11.25 46.9961H23.125" stroke="black" stroke-width="0.612679"/>
<path d="M11.25 49.8496H23.125" stroke="black" stroke-width="0.612679"/>
<path d="M11.25 52.5527H23.125" stroke="black" stroke-width="0.612679"/>
<path d="M11.25 55.4062H23.125" stroke="black" stroke-width="0.612679"/>
<path d="M11.25 58.1074H23.125" stroke="black" stroke-width="0.612679"/>
<path d="M11.25 60.9609H23.125" stroke="black" stroke-width="0.612679"/>
<path d="M11.25 63.6641H23.125" stroke="black" stroke-width="0.612679"/>
<path d="M11.25 66.5156H23.125" stroke="black" stroke-width="0.612679"/>
<path d="M11.25 69.2188H23.125" stroke="black" stroke-width="0.612679"/>
<path d="M11.25 72.0723H23.125" stroke="black" stroke-width="0.612679"/>
<path d="M11.25 74.7754H23.125" stroke="black" stroke-width="0.612679"/>
<path d="M11.25 77.627H23.125" stroke="black" stroke-width="0.612679"/>
<path d="M11.25 80.3301H23.125" stroke="black" stroke-width="0.612679"/>
<path d="M11.25 83.1836H23.125" stroke="black" stroke-width="0.612679"/>
<path d="M11.25 19.3691H23.125" stroke="black" stroke-width="0.612679"/>
<path d="M23.125 16.666H11.25" stroke="black" stroke-width="0.612679"/>
<path d="M11.25 13.8145H23.125" stroke="black" stroke-width="0.612679"/>
<path d="M23.125 11.1113H11.25" stroke="black" stroke-width="0.612679"/>
<path d="M11.25 8.25781H23.125" stroke="black" stroke-width="0.612679"/>
<path d="M23.125 5.55469H11.25" stroke="black" stroke-width="0.612679"/>
<path d="M11.25 2.70312H23.125" stroke="black" stroke-width="0.612679"/>
<path d="M150 50V55.5556H0V50H150Z" stroke="black" stroke-width="0.612679"/>
<path d="M138.75 50V55.5556" stroke="black" stroke-width="0.612679"/>
<path d="M126.875 50V55.5556" stroke="black" stroke-width="0.612679"/>
<path d="M115.625 50V55.5556" stroke="black" stroke-width="0.612679"/>
<path d="M103.75 50V55.5556" stroke="black" stroke-width="0.612679"/>
<path d="M92.5 50V55.5556" stroke="black" stroke-width="0.612679"/>
<path d="M80.625 50V55.5556" stroke="black" stroke-width="0.612679"/>
<path d="M69.375 50V55.5556" stroke="black" stroke-width="0.612679"/>
<path d="M57.5 50V55.5556" stroke="black" stroke-width="0.612679"/>
<path d="M46.25 50V55.5556" stroke="black" stroke-width="0.612679"/>
<path d="M34.375 50V55.5556" stroke="black" stroke-width="0.612679"/>
<path d="M23.125 50V55.5556" stroke="black" stroke-width="0.612679"/>
<path d="M11.25 50V55.5556" stroke="black" stroke-width="0.612679"/>
<path d="M150 0V5.55556H0V0H150Z" stroke="black" stroke-width="0.612679"/>
<path d="M138.75 0V5.55556" stroke="black" stroke-width="0.612679"/>
<path d="M126.875 0V5.55556" stroke="black" stroke-width="0.612679"/>
<path d="M115.625 0V5.55556" stroke="black" stroke-width="0.612679"/>
<path d="M103.75 0V5.55556" stroke="black" stroke-width="0.612679"/>
<path d="M92.5 0V5.55556" stroke="black" stroke-width="0.612679"/>
<path d="M80.625 0V5.55556" stroke="black" stroke-width="0.612679"/>
<path d="M69.375 0V5.55556" stroke="black" stroke-width="0.612679"/>
<path d="M57.5 0V5.55556" stroke="black" stroke-width="0.612679"/>
<path d="M46.25 0V5.55556" stroke="black" stroke-width="0.612679"/>
<path d="M34.375 0V5.55556" stroke="black" stroke-width="0.612679"/>
<path d="M23.125 0V5.55556" stroke="black" stroke-width="0.612679"/>
<path d="M11.25 0V5.55556" stroke="black" stroke-width="0.612679"/>
<path d="M23.125 5.55469H126.875V9.60874H23.125V5.55469Z" fill="#4C1900"/>
<path d="M36.875 5.55469H113.125V9.60874H36.875V5.55469Z" fill="#663333"/>
<path d="M46.875 5.55469H103.125V9.60874H46.875V5.55469Z" fill="#7F4C19"/>
<path d="M60 5.55469H90V9.60874H60V5.55469Z" fill="#996633"/>
<path d="M23.125 5.55469H126.875V9.60874H23.125V5.55469Z" stroke="black" stroke-width="0.612679"/>
<path d="M23.125 30.4805H126.875V34.6847H23.125V30.4805Z" fill="#4C1900"/>
<path d="M36.875 30.4805H113.125V34.6847H36.875V30.4805Z" fill="#663333"/>
<path d="M46.875 30.4805H103.125V34.6847H46.875V30.4805Z" fill="#7F4C19"/>
<path d="M60 30.4805H90V34.6847H60V30.4805Z" fill="#996633"/>
<path d="M23.125 30.4805H126.875V34.6847H23.125V30.4805Z" stroke="black" stroke-width="0.612679"/>
<path d="M34.375 9.60938H50V145.796H34.375V9.60938Z" fill="#4C4C4C"/>
<path d="M39.375 9.60938H45V145.796H39.375V9.60938Z" fill="#BFBFBF"/>
<path d="M34.375 9.60938H50V145.796H34.375V9.60938Z" stroke="black" stroke-width="0.612679"/>
</g>
<defs>
<clipPath id="clip0_2109_170111">
<rect width="150" height="150" fill="white"/>
</clipPath>
</defs>
</svg>
