<svg width="150" height="150" viewBox="0 0 150 150" fill="none" xmlns="http://www.w3.org/2000/svg">
<g clip-path="url(#clip0_2109_170435)">
<path d="M73.4609 108.258H77.1545V112.612H73.4609V108.258Z" fill="#4C4C4C" stroke="black" stroke-width="0.351059"/>
<path d="M72.2295 104.354H77.5646V108.257H72.2295V104.354Z" fill="#4C4C4C" stroke="black" stroke-width="0.351059"/>
<path d="M71.2041 98.7988H78.7964V104.354H71.2041V98.7988Z" fill="#4C4C4C" stroke="black" stroke-width="0.351059"/>
<path d="M68.5361 98.7991H81.4636V96.5469H68.5361V98.7991Z" fill="#4C4C4C" stroke="black" stroke-width="0.351059"/>
<path d="M0 96.0957H2.05198V98.7984H0V96.0957Z" fill="#999999" stroke="black" stroke-width="0.351059"/>
<path d="M0 86.7871H150V89.64H0V86.7871Z" fill="#999999" stroke="black" stroke-width="0.351059"/>
<path d="M150 98.7991H148.563V96.5469H150V98.7991Z" fill="#999999" stroke="black" stroke-width="0.351059"/>
<path d="M12.7227 87.5366H137.278V77.4766H12.7227V87.5366Z" fill="#4C4C4C" stroke="black" stroke-width="0.351059"/>
<path d="M11.0811 0H54.7883V75.0751H11.0811V0Z" fill="#CCCCCC"/>
<path d="M14.7744 0H51.5049V75.0751H14.7744V0Z" fill="#E0E0E0"/>
<path d="M21.1357 0H45.1439V75.0751H21.1357V0Z" fill="#F2F2F2"/>
<path d="M11.0811 0H54.7883V75.0751H11.0811V0Z" stroke="black" stroke-width="0.351059"/>
<path d="M2.05176 79.7289H64.4321V75.0742H2.05176V79.7289Z" fill="#CCCCCC"/>
<path d="M6.77148 79.7289H59.0971V75.0742H6.77148V79.7289Z" fill="#E0E0E0"/>
<path d="M16.416 79.7289H49.8633V75.0742H16.416V79.7289Z" fill="#F2F2F2"/>
<path d="M2.05176 79.7289H64.4321V75.0742H2.05176V79.7289Z" stroke="black" stroke-width="0.351059"/>
<path d="M2.05176 84.0843H64.4321V79.4297H2.05176V84.0843Z" fill="#CCCCCC"/>
<path d="M6.77148 84.0843H59.0971V79.4297H6.77148V84.0843Z" fill="#E0E0E0"/>
<path d="M16.416 84.0843H49.8633V79.4297H16.416V84.0843Z" fill="#F2F2F2"/>
<path d="M2.05176 84.0843H64.4321V79.4297H2.05176V84.0843Z" stroke="black" stroke-width="0.351059"/>
<path d="M95.2119 0H139.33V75.0751H95.2119V0Z" fill="#CCCCCC"/>
<path d="M98.9053 0H135.636V75.0751H98.9053V0Z" fill="#E0E0E0"/>
<path d="M105.267 0H129.275V75.0751H105.267V0Z" fill="#F2F2F2"/>
<path d="M95.2119 0H139.33V75.0751H95.2119V0Z" stroke="black" stroke-width="0.351059"/>
<path d="M86.1836 79.7289H148.564V75.0742H86.1836V79.7289Z" fill="#CCCCCC"/>
<path d="M90.9023 79.7289H143.228V75.0742H90.9023V79.7289Z" fill="#E0E0E0"/>
<path d="M100.547 79.7289H133.994V75.0742H100.547V79.7289Z" fill="#F2F2F2"/>
<path d="M86.1836 79.7289H148.564V75.0742H86.1836V79.7289Z" stroke="black" stroke-width="0.351059"/>
<path d="M86.1836 84.0843H148.564V79.4297H86.1836V84.0843Z" fill="#CCCCCC"/>
<path d="M90.9023 84.0843H143.228V79.4297H90.9023V84.0843Z" fill="#E0E0E0"/>
<path d="M100.547 84.0843H133.994V79.4297H100.547V84.0843Z" fill="#F2F2F2"/>
<path d="M86.1836 84.0843H148.564V79.4297H86.1836V84.0843Z" stroke="black" stroke-width="0.351059"/>
<path d="M87.6201 75.0745H92.5449V72.8223H87.6201V75.0745Z" fill="#999999" stroke="black" stroke-width="0.351059"/>
<path d="M141.997 75.0745H146.306V72.8223H141.997V75.0745Z" fill="#999999" stroke="black" stroke-width="0.351059"/>
<path d="M3.48828 75.0745H8.41304V72.8223H3.48828V75.0745Z" fill="#999999" stroke="black" stroke-width="0.351059"/>
<path d="M57.8662 75.0745H62.1754V72.8223H57.8662V75.0745Z" fill="#999999" stroke="black" stroke-width="0.351059"/>
<path d="M140.972 84.5352H148.564V101.652H140.972V84.5352Z" fill="#CCCCCC" stroke="black" stroke-width="0.351059"/>
<path d="M2.05176 84.5352H8.8233V101.652H2.05176V84.5352Z" fill="#CCCCCC" stroke="black" stroke-width="0.351059"/>
<path d="M12.7227 87.5371H137.278V96.5461H12.7227V87.5371Z" fill="#999999" stroke="black" stroke-width="0.351059"/>
<path d="M12.7227 89.1895H137.278V94.8952H12.7227V89.1895Z" fill="#B2B2B2"/>
<path d="M12.7227 90.9902H137.278V93.0923H12.7227V90.9902Z" fill="#CCCCCC"/>
<path d="M8.82324 84.5352H12.722V107.058H8.82324V84.5352Z" fill="#B2B2B2" stroke="black" stroke-width="0.351059"/>
<path d="M137.277 84.5352H140.971V107.058H137.277V84.5352Z" fill="#B2B2B2" stroke="black" stroke-width="0.351059"/>
<path d="M65.8691 75.0742H83.9266V94.894H65.8691V75.0742Z" fill="#E5E5E5" stroke="black" stroke-width="0.351059"/>
<path d="M70.793 58.4082H79.8217V75.0749H70.793V58.4082Z" fill="#E5A500" stroke="black" stroke-width="0.351059"/>
<path d="M77.1543 58.8594H78.7959V74.3248H77.1543V58.8594Z" fill="#CC8C00"/>
<path d="M68.5361 68.0176H73.4609V72.8224H68.5361V68.0176Z" fill="#FFBF00" stroke="black" stroke-width="0.351059"/>
<path d="M73.4609 68.0176H81.4637V72.8224H73.4609V68.0176Z" fill="#E5A500" stroke="black" stroke-width="0.351059"/>
<path d="M75.1025 103.153H82.2845V102.402H75.1025V103.153Z" fill="black" stroke="black" stroke-width="0.351059"/>
<path d="M75.3077 103.753C76.3277 103.753 77.1545 103.148 77.1545 102.402C77.1545 101.656 76.3277 101.051 75.3077 101.051C74.2878 101.051 73.4609 101.656 73.4609 102.402C73.4609 103.148 74.2878 103.753 75.3077 103.753Z" fill="#7F7F7F" stroke="black" stroke-width="0.351059"/>
<path d="M8.82353 107.058L5.12996 146.097H144.665L140.971 107.058V101.652H144.665L145.28 107.208L146.101 112.763L146.717 118.319L147.332 123.875L148.153 129.28L148.769 134.986L149.384 140.391L149.795 144.595L150 146.097V146.998L146.101 149.851L144.665 150.001H141.176H5.74555L0.205198 147.899L0 146.998V146.097L5.74555 101.652H8.82353V107.058Z" fill="#4C4C4C" stroke="black" stroke-width="0.351059"/>
</g>
<defs>
<clipPath id="clip0_2109_170435">
<rect width="150" height="150" fill="white"/>
</clipPath>
</defs>
</svg>
