<svg width="150" height="150" viewBox="0 0 150 150" fill="none" xmlns="http://www.w3.org/2000/svg">
<g clip-path="url(#clip0_2109_171680)">
<path d="M46.3965 130.816H150V149.999H46.3965V130.816Z" fill="#7F7F7F" stroke="black" stroke-width="0.400022"/>
<path d="M57.207 130.817H139.039V53.0195H57.207V130.817Z" fill="#B2B2B2" stroke="black" stroke-width="0.400022"/>
<path d="M40.691 72.735H19.0693V43.4277H40.691V72.735Z" fill="#E5E5E5"/>
<path d="M40.691 96.7131H19.0693V72.7344H40.691V96.7131Z" fill="#CCCCCC"/>
<path d="M40.691 115.898H19.0693V96.7148H40.691V115.898Z" fill="#B2B2B2"/>
<path d="M40.691 130.817H19.0693V115.896H40.691V130.817Z" fill="#999999"/>
<path d="M19.0693 43.4277H40.691V130.817H19.0693V43.4277Z" stroke="black" stroke-width="0.400022"/>
<path d="M40.6904 72.7344H57.2069V101.509H40.6904V72.7344Z" fill="#7F7F7F"/>
<path d="M40.6904 76.998H57.2069V96.7139H40.6904V76.998Z" fill="#999999"/>
<path d="M40.6904 82.3262H57.2069V91.9176H40.6904V82.3262Z" fill="#B2B2B2"/>
<path d="M40.6904 72.7344H57.2069V101.509H40.6904V72.7344Z" stroke="black" stroke-width="0.400022"/>
<path d="M19.0691 77.5311H8.10811V14.3872H44.8949V72.7353L47.2973 79.3961L52.1021 78.0639L53.003 74.6004V72.7353V0H0V91.9183H19.0691V77.5311Z" fill="#999999" stroke="black" stroke-width="0.400022"/>
<path d="M19.0693 79.6631H6.75697V11.9899H46.3966V72.7359L49.8501 77.5317L51.802 74.0681V72.7359V2.39844H1.35156V89.2546H19.0693V79.6631Z" fill="#B2B2B2"/>
<path d="M19.0695 82.326H5.40583V9.59066H47.598V72.7345L48.0485 74.3331L50.3007 73.2674V72.7345V4.79492H2.70312V87.1217H19.0695V82.326Z" fill="#CCCCCC"/>
<path d="M138.289 129.218V91.918L77.6279 129.218H138.289Z" fill="#A6A6A6"/>
<path d="M138.288 129.218V107.371L102.553 129.218H138.288Z" fill="#999999"/>
<path d="M46.9971 145.205H149.249V148.935H46.9971V145.205Z" fill="#666666"/>
</g>
<defs>
<clipPath id="clip0_2109_171680">
<rect width="150" height="150" fill="white"/>
</clipPath>
</defs>
</svg>
