<svg width="150" height="150" viewBox="0 0 150 150" fill="none" xmlns="http://www.w3.org/2000/svg">
<g clip-path="url(#clip0_2109_169118)">
<path d="M45.876 43.9941L126.288 68.7689" stroke="#7F7F7F" stroke-width="0.556406"/>
<path d="M45.876 68.7689L126.288 43.9941" stroke="#7F7F7F" stroke-width="0.556406"/>
<path d="M45.876 71.7715L126.288 96.9967" stroke="#7F7F7F" stroke-width="0.556406"/>
<path d="M45.876 96.9967L126.288 71.7715" stroke="#7F7F7F" stroke-width="0.556406"/>
<path d="M45.876 100L126.288 125.075" stroke="#7F7F7F" stroke-width="0.556406"/>
<path d="M45.876 125.075L126.288 100" stroke="#7F7F7F" stroke-width="0.556406"/>
<path d="M45.876 3.15234L126.288 40.6899" stroke="#7F7F7F" stroke-width="0.556406"/>
<path d="M45.876 40.6899L126.288 3.15234" stroke="#7F7F7F" stroke-width="0.556406"/>
<path d="M77.835 2.25195H94.3298V27.4772H77.835V2.25195Z" fill="#CCCCCC"/>
<path d="M78.8662 2.25195H80.4126H92.2683V27.4772H78.8662V25.9757L79.3817 23.7234V21.7715V19.9697V15.0147V13.2129V11.1108V8.55826L78.8662 5.70541V2.25195Z" fill="#D9D9D9"/>
<path d="M80.9277 2.25195H81.9587H91.237V27.4772H80.9277V2.25195Z" fill="#E5E5E5"/>
<path d="M81.959 2.25195H82.9899H89.1755V27.4772H81.959V24.7745V22.6724L82.4744 21.0207V17.8676V16.6664V13.2129V11.1108V8.55826L81.959 5.70541V2.25195Z" fill="#F2F2F2"/>
<path d="M84.0205 2.25195H88.1442V27.4772H84.0205V2.25195Z" fill="white"/>
<path d="M77.835 2.25195H94.3298V27.4772H77.835V2.25195Z" stroke="black" stroke-width="0.556406"/>
<path d="M64.4326 27.4766H107.732V149.999H64.4326V27.4766Z" fill="#CCCCCC"/>
<path d="M68.5566 27.4766H70.6185H72.1649H73.7113H98.969H103.608V31.0802V141.29V149.999H101.546H73.1958H68.5566V146.245V27.4766Z" fill="#D9D9D9"/>
<path d="M72.6807 27.4766H75.7734H77.8353H79.8972H92.7838H99.4848V31.0802V141.29V149.999H96.392H79.3817H72.6807V146.245V27.4766Z" fill="#E5E5E5"/>
<path d="M76.8037 27.4766H78.8656H80.412H81.4429H90.7212H95.3604V31.0802V141.29V149.999H93.2986H81.4429H76.8037V146.245V27.4766Z" fill="#F2F2F2"/>
<path d="M80.9277 27.4766H91.237V149.999H80.9277V27.4766Z" fill="white"/>
<path d="M64.4326 27.4766H107.732V149.999H64.4326V27.4766Z" stroke="black" stroke-width="0.556406"/>
<path d="M54.124 129.879H56.1859V139.188H54.124V129.879Z" fill="#FFFF00" stroke="black" stroke-width="0.556406"/>
<path d="M2.57715 120.27H139.691V121.17H2.57715V120.27Z" fill="#FFFF00" stroke="black" stroke-width="0.556406"/>
<path d="M21.1338 150V0H150V150H139.69V3.15315H32.474V150H21.1338Z" fill="#999999" stroke="black" stroke-width="0.556406"/>
<path d="M86.0825 149.999L0 131.381V125.074H21.134V131.381L107.732 149.999H86.0825Z" fill="#999999" stroke="black" stroke-width="0.556406"/>
<path d="M32.4746 125.074H139.691V128.077H32.4746V125.074Z" fill="#999999" stroke="black" stroke-width="0.556406"/>
<path d="M139.691 115.766V116.366H109.794V125.075H107.732V116.366H64.4334V125.075H61.3406V116.366H32.4746V115.766H139.691Z" fill="#FFFF00" stroke="black" stroke-width="0.556406"/>
<path d="M21.134 115.766H0V128.078H2.57732V116.366H21.134V115.766Z" fill="#FFFF00" stroke="black" stroke-width="0.556406"/>
<path d="M2.57715 117.867L107.732 140.69V142.192L2.57715 119.369V117.867Z" fill="#FFFF00" stroke="black" stroke-width="0.556406"/>
<path d="M2.57715 122.672L107.732 145.495V146.996L2.57715 124.173V122.672Z" fill="#FFFF00" stroke="black" stroke-width="0.556406"/>
<path d="M107.732 140.691H109.794V150.001H107.732V140.691Z" fill="#FFFF00" stroke="black" stroke-width="0.556406"/>
<path d="M0 128.078H21.134V131.381H0V128.078Z" fill="#999999" stroke="black" stroke-width="0.556406"/>
<path d="M32.4746 92.1914H139.691V93.0923H32.4746V92.1914Z" fill="#FFFF00" stroke="black" stroke-width="0.556406"/>
<path d="M32.4746 96.9961H139.691V99.9991H32.4746V96.9961Z" fill="#999999" stroke="black" stroke-width="0.556406"/>
<path d="M139.691 87.6875V88.2881H109.794V96.9968H107.732V88.2881H64.4334V96.9968H61.3406V88.2881H32.4746V87.6875H139.691Z" fill="#FFFF00" stroke="black" stroke-width="0.556406"/>
<path d="M32.4746 63.9648H139.691V64.8657H32.4746V63.9648Z" fill="#FFFF00" stroke="black" stroke-width="0.556406"/>
<path d="M32.4746 68.7695H139.691V71.7725H32.4746V68.7695Z" fill="#999999" stroke="black" stroke-width="0.556406"/>
<path d="M139.691 59.459V60.0596H109.794V68.7683H107.732V60.0596H64.4334V68.7683H61.3406V60.0596H32.4746V59.459H139.691Z" fill="#FFFF00" stroke="black" stroke-width="0.556406"/>
<path d="M32.4746 36.1855H139.691V36.7861H32.4746V36.1855Z" fill="#FFFF00" stroke="black" stroke-width="0.556406"/>
<path d="M32.4746 40.6914H139.691V43.9947H32.4746V40.6914Z" fill="#999999" stroke="black" stroke-width="0.556406"/>
<path d="M139.691 31.3809V32.2818H109.794V40.6902H107.732V32.2818H64.4334V40.6902H61.3406V32.2818H32.4746V31.3809H139.691Z" fill="#FFFF00" stroke="black" stroke-width="0.556406"/>
<path d="M32.4746 100L139.691 125.075" stroke="black" stroke-width="0.556406"/>
<path d="M32.4746 125.075L139.691 100" stroke="black" stroke-width="0.556406"/>
<path d="M32.4746 71.7715L139.691 96.9967" stroke="black" stroke-width="0.556406"/>
<path d="M32.4746 96.9967L139.691 71.7715" stroke="black" stroke-width="0.556406"/>
<path d="M32.4746 43.9941L139.691 68.7689" stroke="black" stroke-width="0.556406"/>
<path d="M32.4746 68.7689L139.691 43.9941" stroke="black" stroke-width="0.556406"/>
<path d="M32.4746 3.15234L139.691 40.6899" stroke="black" stroke-width="0.556406"/>
<path d="M32.4746 40.6899L139.691 3.15234" stroke="black" stroke-width="0.556406"/>
</g>
<defs>
<clipPath id="clip0_2109_169118">
<rect width="150" height="150" fill="white"/>
</clipPath>
</defs>
</svg>
