<svg width="35" height="150" viewBox="0 0 35 150" fill="none" xmlns="http://www.w3.org/2000/svg">
<g clip-path="url(#clip0_2109_169405)">
<path d="M2.10254 106.156L8.72416 117.117H26.1716L32.7932 106.156H28.3788L24.595 112.463H10.3007L6.51695 106.156H2.10254Z" fill="black" stroke="black" stroke-width="0.520135"/>
<path d="M2.10254 68.6191L8.72416 79.5801H26.1716L32.7932 68.6191H28.3788L24.595 74.9254H10.3007L6.51695 68.6191H2.10254Z" fill="black" stroke="black" stroke-width="0.520135"/>
<path d="M2.10254 31.2305L8.72416 42.1914H26.1716L32.7932 31.2305H28.3788L24.595 37.3866H10.3007L6.51695 31.2305H2.10254Z" fill="black" stroke="black" stroke-width="0.520135"/>
<path d="M26.1711 146.847V147.147L23.6486 149.099L20.075 149.85H19.2341L18.3933 150H17.4474L14.084 149.7L10.7206 148.799L8.72363 147.147V146.847V6.15616L10.1951 2.7027L13.2432 0.600601L16.6065 0H17.4474H18.3933L21.6516 0.600601L24.1741 2.25225L26.1711 5.55556V6.15616V146.847Z" fill="#BFBFB2"/>
<path d="M23.7542 146.847L21.4419 149.249L18.7092 149.85L18.0785 150H17.4479L13.9794 149.399L11.3518 147.447L11.2467 147.147L11.1416 146.847V6.15616L12.6131 2.25225L15.556 0.15015L16.8173 0H17.4479H18.0785L20.9164 0.900901L23.2287 3.75375L23.6491 5.55556L23.7542 6.15616V146.847Z" fill="#CCCCC2"/>
<path d="M22.9134 146.847L22.8082 147.447L19.55 149.7L17.4479 150L14.3998 149.399L12.0875 147.447L11.9824 146.847V6.15616L13.559 1.8018L16.3968 0H17.4479L20.4959 0.900901L22.8082 4.95496L22.9134 6.15616V146.847Z" fill="#D9D9D1"/>
<path d="M21.4411 146.847L21.336 147.447L19.0237 149.7L17.4471 150L14.1889 148.499L13.5582 147.447L13.4531 146.847V6.15616L14.6093 1.8018L17.4471 0L20.285 1.8018L21.4411 6.15616V146.847Z" fill="#E5E5E0"/>
<path d="M19.2347 146.847L17.4479 150L15.6611 146.847V6.15616L16.1867 1.8018L17.4479 0L19.1296 3.75375L19.2347 6.15616V146.847Z" fill="#F2F2EF"/>
<path d="M8.72363 9.30859H26.1711" stroke="#B2B2A3" stroke-width="0.520135"/>
<path d="M8.72363 34.2344H26.1711" stroke="#B2B2A3" stroke-width="0.520135"/>
<path d="M8.72363 59.3086H26.1711" stroke="#B2B2A3" stroke-width="0.520135"/>
<path d="M8.72363 84.2344H26.1711" stroke="#B2B2A3" stroke-width="0.520135"/>
<path d="M8.72363 109.309H26.1711" stroke="#B2B2A3" stroke-width="0.520135"/>
<path d="M8.72363 134.234H26.1711" stroke="#B2B2A3" stroke-width="0.520135"/>
<path d="M8.72363 15.4648H26.1711" stroke="#B2B2A3" stroke-width="0.520135"/>
<path d="M8.72363 40.541H26.1711" stroke="#B2B2A3" stroke-width="0.520135"/>
<path d="M8.72363 65.4648H26.1711" stroke="#B2B2A3" stroke-width="0.520135"/>
<path d="M8.72363 90.541H26.1711" stroke="#B2B2A3" stroke-width="0.520135"/>
<path d="M8.72363 115.465H26.1711" stroke="#B2B2A3" stroke-width="0.520135"/>
<path d="M8.72363 140.541H26.1711" stroke="#B2B2A3" stroke-width="0.520135"/>
<path d="M8.72363 21.7715H26.1711" stroke="#B2B2A3" stroke-width="0.520135"/>
<path d="M8.72363 46.8477H26.1711" stroke="#B2B2A3" stroke-width="0.520135"/>
<path d="M8.72363 71.7715H26.1711" stroke="#B2B2A3" stroke-width="0.520135"/>
<path d="M8.72363 96.8477H26.1711" stroke="#B2B2A3" stroke-width="0.520135"/>
<path d="M8.72363 121.771H26.1711" stroke="#B2B2A3" stroke-width="0.520135"/>
<path d="M8.72363 28.0781H26.1711" stroke="#B2B2A3" stroke-width="0.520135"/>
<path d="M8.72363 53.0039H26.1711" stroke="#B2B2A3" stroke-width="0.520135"/>
<path d="M8.72363 78.0781H26.1711" stroke="#B2B2A3" stroke-width="0.520135"/>
<path d="M8.72363 103.004H26.1711" stroke="#B2B2A3" stroke-width="0.520135"/>
<path d="M8.72363 128.078H26.1711" stroke="#B2B2A3" stroke-width="0.520135"/>
<path d="M26.1711 146.847V147.147L23.6486 149.099L20.075 149.85H19.2341L18.3933 150H17.4474L14.084 149.7L10.7206 148.799L8.72363 147.147V146.847V6.15616L10.1951 2.7027L13.2432 0.600601L16.6065 0H17.4474H18.3933L21.6516 0.600601L24.1741 2.25225L26.1711 5.55556V6.15616V146.847Z" stroke="black" stroke-width="0.520135"/>
<path d="M16.3965 31.2305H18.4986V42.9422H16.3965V31.2305Z" fill="#4C4C28" stroke="black" stroke-width="0.520135"/>
<path d="M16.3965 68.6191H18.4986V80.3309H16.3965V68.6191Z" fill="#4C4C28" stroke="black" stroke-width="0.520135"/>
<path d="M16.3965 106.156H18.4986V117.868H16.3965V106.156Z" fill="#4C4C28" stroke="black" stroke-width="0.520135"/>
<path d="M19.6543 13.2129H24.0687V66.366H19.6543V13.2129Z" stroke="black" stroke-width="0.520135"/>
<path d="M19.6543 16.3672H24.0687" stroke="black" stroke-width="0.520135"/>
<path d="M24.0687 19.5195H19.6543" stroke="black" stroke-width="0.520135"/>
<path d="M19.6543 22.6719H24.0687" stroke="black" stroke-width="0.520135"/>
<path d="M19.6543 25.6758H24.0687" stroke="black" stroke-width="0.520135"/>
<path d="M24.0687 28.6777H19.6543" stroke="black" stroke-width="0.520135"/>
<path d="M19.6543 31.832H24.0687" stroke="black" stroke-width="0.520135"/>
<path d="M19.6543 35.1348H24.0687" stroke="black" stroke-width="0.520135"/>
<path d="M24.0687 38.2891H19.6543" stroke="black" stroke-width="0.520135"/>
<path d="M19.6543 41.4414H24.0687" stroke="black" stroke-width="0.520135"/>
<path d="M19.6543 44.4453H24.0687" stroke="black" stroke-width="0.520135"/>
<path d="M24.0687 47.4473H19.6543" stroke="black" stroke-width="0.520135"/>
<path d="M19.6543 50.6016H24.0687" stroke="black" stroke-width="0.520135"/>
<path d="M19.6543 53.9043H24.0687" stroke="black" stroke-width="0.520135"/>
<path d="M24.0687 56.9062H19.6543" stroke="black" stroke-width="0.520135"/>
<path d="M19.6543 60.0605H24.0687" stroke="black" stroke-width="0.520135"/>
<path d="M19.6543 63.0625H24.0687" stroke="black" stroke-width="0.520135"/>
<path d="M19.6543 138.139H24.0687" stroke="black" stroke-width="0.520135"/>
<path d="M19.6543 135.135H24.0687" stroke="black" stroke-width="0.520135"/>
<path d="M24.0687 131.982H19.6543" stroke="black" stroke-width="0.520135"/>
<path d="M19.6543 128.828H24.0687" stroke="black" stroke-width="0.520135"/>
<path d="M19.6543 125.525H24.0687" stroke="black" stroke-width="0.520135"/>
<path d="M24.0687 122.373H19.6543" stroke="black" stroke-width="0.520135"/>
<path d="M19.6543 119.369H24.0687" stroke="black" stroke-width="0.520135"/>
<path d="M19.6543 116.367H24.0687" stroke="black" stroke-width="0.520135"/>
<path d="M24.0687 113.213H19.6543" stroke="black" stroke-width="0.520135"/>
<path d="M19.6543 110.061H24.0687" stroke="black" stroke-width="0.520135"/>
<path d="M19.6543 106.756H24.0687" stroke="black" stroke-width="0.520135"/>
<path d="M24.0687 103.604H19.6543" stroke="black" stroke-width="0.520135"/>
<path d="M19.6543 100.602H24.0687" stroke="black" stroke-width="0.520135"/>
<path d="M19.6543 97.5977H24.0687" stroke="black" stroke-width="0.520135"/>
<path d="M24.0687 94.4453H19.6543" stroke="black" stroke-width="0.520135"/>
<path d="M19.6543 91.291H24.0687" stroke="black" stroke-width="0.520135"/>
<path d="M19.6543 88.1387H24.0687V150.001H19.6543V88.1387Z" stroke="black" stroke-width="0.520135"/>
<path d="M19.6543 147.598H24.0687" stroke="black" stroke-width="0.520135"/>
<path d="M24.0687 144.445H19.6543" stroke="black" stroke-width="0.520135"/>
<path d="M19.6543 141.441H24.0687" stroke="black" stroke-width="0.520135"/>
<path d="M0 103.754H35V106.156H0V103.754Z" fill="#666647" stroke="black" stroke-width="0.520135"/>
<path d="M0 66.3672H35V68.6194H0V66.3672Z" fill="#666647" stroke="black" stroke-width="0.520135"/>
<path d="M0 28.8281H35V31.2305H0V28.8281Z" fill="#666647" stroke="black" stroke-width="0.520135"/>
<path d="M1.05078 92.1914H33.8436V93.6929H1.05078V92.1914Z" fill="black" stroke="black" stroke-width="0.520135"/>
<path d="M1.05078 97.5977H33.8436V99.0992H1.05078V97.5977Z" fill="black" stroke="black" stroke-width="0.520135"/>
<path d="M1.05078 54.6543H33.8436V56.1558H1.05078V54.6543Z" fill="black" stroke="black" stroke-width="0.520135"/>
<path d="M1.05078 60.0605H33.8436V61.562H1.05078V60.0605Z" fill="black" stroke="black" stroke-width="0.520135"/>
<path d="M1.05078 17.1172H33.8436V18.6187H1.05078V17.1172Z" fill="black" stroke="black" stroke-width="0.520135"/>
<path d="M1.05078 22.5234H33.8436V24.1751H1.05078V22.5234Z" fill="black" stroke="black" stroke-width="0.520135"/>
<path d="M32.793 103.753H33.844V92.1914H32.793V103.753Z" fill="#4C4C28" stroke="black" stroke-width="0.520135"/>
<path d="M23.9639 103.753H25.12V92.1914H23.9639V103.753Z" fill="#4C4C28" stroke="black" stroke-width="0.520135"/>
<path d="M9.77441 103.753H10.9306V92.1914H9.77441V103.753Z" fill="#4C4C28" stroke="black" stroke-width="0.520135"/>
<path d="M1.05078 103.753H2.10183V92.1914H1.05078V103.753Z" fill="#4C4C28" stroke="black" stroke-width="0.520135"/>
<path d="M32.793 66.366H33.844V54.6543H32.793V66.366Z" fill="#4C4C28" stroke="black" stroke-width="0.520135"/>
<path d="M23.9639 66.366H25.12V54.6543H23.9639V66.366Z" fill="#4C4C28" stroke="black" stroke-width="0.520135"/>
<path d="M9.77441 66.366H10.9306V54.6543H9.77441V66.366Z" fill="#4C4C28" stroke="black" stroke-width="0.520135"/>
<path d="M1.05078 66.366H2.10183V54.6543H1.05078V66.366Z" fill="#4C4C28" stroke="black" stroke-width="0.520135"/>
<path d="M32.793 28.8289H33.844V17.1172H32.793V28.8289Z" fill="#4C4C28" stroke="black" stroke-width="0.520135"/>
<path d="M23.9639 28.8289H25.12V17.1172H23.9639V28.8289Z" fill="#4C4C28" stroke="black" stroke-width="0.520135"/>
<path d="M9.77441 28.8289H10.9306V17.1172H9.77441V28.8289Z" fill="#4C4C28" stroke="black" stroke-width="0.520135"/>
<path d="M1.05078 28.8289H2.10183V17.1172H1.05078V28.8289Z" fill="#4C4C28" stroke="black" stroke-width="0.520135"/>
</g>
<defs>
<clipPath id="clip0_2109_169405">
<rect width="35" height="150" fill="white"/>
</clipPath>
</defs>
</svg>
