<svg width="150" height="150" viewBox="0 0 150 150" fill="none" xmlns="http://www.w3.org/2000/svg">
<g clip-path="url(#clip0_2109_170061)">
<path d="M139.17 0H144.585V9.15916H139.17V0Z" fill="#CCB299" stroke="black" stroke-width="0.570294"/>
<path d="M21.6611 0H27.6178V9.15916H21.6611V0Z" fill="#CCB299" stroke="black" stroke-width="0.570294"/>
<path d="M16.2451 143.694H38.4473V7.65811H16.2451V1.50195H150V7.65811H127.797V143.694H150V149.85H16.2451V143.694Z" fill="#DBC9B7"/>
<path d="M27.6172 143.694H46.5703V118.168V109.61V37.3876V28.829V7.65787H29.7833H27.6172V6.75697V1.35156H48.7363H55.776H62.8157H111.552H132.13H139.17V2.10231L139.711 3.00321V3.75396L139.17 7.65787H120.758V33.0332V41.5918V113.964V122.373V143.694H139.17L139.711 148.349L139.17 149.099V149.85H132.13H111.552H55.776H34.6569H27.6172V145.195V143.694Z" fill="#E3D4C7"/>
<path d="M38.9893 143.694H53.6102V118.168V109.61V37.3876V28.829V7.65787H40.6138H38.9893V6.75697V1.35156H55.7763H61.1914H66.6066H105.596H122.383H127.798V2.10231L128.339 3.00321V3.75396L127.798 7.65787H113.177V33.0332V41.5918V113.964V122.373V143.694H127.798L128.339 148.349L127.798 149.099V149.85H122.383H105.596H61.1914H44.4044H38.9893V145.195V143.694Z" fill="#EBE1D7"/>
<path d="M49.8193 143.694H61.1912V118.168V109.61V37.3876V28.829V7.65787H51.4439H49.8193V6.75697V1.35156H62.8157H66.6063H70.9385H100.18H116.967V2.10231V3.00321V3.75396V7.65787H105.596V33.0332L106.137 41.5918V113.964L105.596 122.373V143.694H116.967V148.349V149.099V149.85H112.635H95.8482H66.6063H49.8193V145.195V143.694Z" fill="#F0E8E1"/>
<path d="M61.1914 143.694H68.2311V118.168L68.7726 109.61V37.3876L68.2311 28.829V7.65787H62.2744H61.1914V6.75697V1.35156H69.3141H72.5632H75.2708H94.7654H105.596V2.10231L106.137 3.00321V3.75396L105.596 7.65787H98.556V33.0332V41.5918V113.964V122.373V143.694H105.596L106.137 148.349L105.596 149.099V149.85H102.888H86.1012H69.3141H61.1914V145.195V143.694Z" fill="#F7F4EF"/>
<path d="M72.0215 143.694H75.8121V7.65811H72.0215V1.50195H94.7652V7.65811H90.9746V143.694H94.7652V149.85H72.0215V143.694Z" fill="white"/>
<path d="M16.2451 143.694H38.4473V7.65811H16.2451V1.50195H150V7.65811H127.797V143.694H150V149.85H16.2451V143.694Z" stroke="black" stroke-width="0.570294"/>
<path d="M16.2451 4.50391H150" stroke="black" stroke-width="0.570294"/>
<path d="M127.797 7.6582H38.4473" stroke="black" stroke-width="0.570294"/>
<path d="M38.4473 143.693H127.797" stroke="black" stroke-width="0.570294"/>
<path d="M150 146.848H16.2451" stroke="black" stroke-width="0.570294"/>
<path d="M139.17 142.191H144.585V143.693H139.17V142.191Z" fill="#CCB299" stroke="black" stroke-width="0.570294"/>
<path d="M21.6602 142.191H27.6168V143.693H21.6602V142.191Z" fill="#CCB299" stroke="black" stroke-width="0.570294"/>
<path d="M122.383 142.191H127.798V143.693H122.383V142.191Z" fill="#CCB299" stroke="black" stroke-width="0.570294"/>
<path d="M105.596 142.191H111.011V143.693H105.596V142.191Z" fill="#CCB299" stroke="black" stroke-width="0.570294"/>
<path d="M88.8086 142.191H94.2238V143.693H88.8086V142.191Z" fill="#CCB299" stroke="black" stroke-width="0.570294"/>
<path d="M72.0215 142.191H77.9782V143.693H72.0215V142.191Z" fill="#CCB299" stroke="black" stroke-width="0.570294"/>
<path d="M55.2344 142.191H61.1911V143.693H55.2344V142.191Z" fill="#CCB299" stroke="black" stroke-width="0.570294"/>
<path d="M38.4473 142.191H44.4039V143.693H38.4473V142.191Z" fill="#CCB299" stroke="black" stroke-width="0.570294"/>
<path d="M38.4473 0H44.4039V1.5015H38.4473V0Z" fill="#CCB299" stroke="black" stroke-width="0.570294"/>
<path d="M55.2344 0H61.1911V1.5015H55.2344V0Z" fill="#CCB299" stroke="black" stroke-width="0.570294"/>
<path d="M72.0215 0H77.9782V1.5015H72.0215V0Z" fill="#CCB299" stroke="black" stroke-width="0.570294"/>
<path d="M88.8086 0H94.2238V1.5015H88.8086V0Z" fill="#CCB299" stroke="black" stroke-width="0.570294"/>
<path d="M105.596 0H111.011V1.5015H105.596V0Z" fill="#CCB299" stroke="black" stroke-width="0.570294"/>
<path d="M122.383 0H127.798V1.5015H122.383V0Z" fill="#CCB299" stroke="black" stroke-width="0.570294"/>
<path d="M38.4473 7.6582H44.4039V9.1597H38.4473V7.6582Z" fill="#CCB299" stroke="black" stroke-width="0.570294"/>
<path d="M55.2344 7.6582H61.1911V9.1597H55.2344V7.6582Z" fill="#CCB299" stroke="black" stroke-width="0.570294"/>
<path d="M72.0215 7.6582H77.9782V9.1597H72.0215V7.6582Z" fill="#CCB299" stroke="black" stroke-width="0.570294"/>
<path d="M88.8086 7.6582H94.2238V9.1597H88.8086V7.6582Z" fill="#CCB299" stroke="black" stroke-width="0.570294"/>
<path d="M105.596 7.6582H111.011V9.1597H105.596V7.6582Z" fill="#CCB299" stroke="black" stroke-width="0.570294"/>
<path d="M122.383 7.6582H127.798V9.1597H122.383V7.6582Z" fill="#CCB299" stroke="black" stroke-width="0.570294"/>
<path d="M48.1948 98.0482H6.49805V84.2344H48.1948L49.8193 84.3845L51.4439 84.6848L52.5269 85.4356L54.1515 86.1863L55.2345 87.2374L55.776 88.4386L56.3175 89.7899V91.1413V92.6428L55.776 93.844L55.2345 95.0452L54.1515 96.0962L52.5269 96.9971L51.4439 97.5977L49.8193 97.898L48.1948 98.0482Z" fill="#D6C2AD"/>
<path d="M48.1948 96.3972H6.49805V85.8867H48.1948L49.8193 86.0369L51.4439 86.3372L52.5269 86.7876L54.1515 87.5384L55.2345 88.2891L55.776 89.19L56.3175 90.0909V91.142V92.193L55.776 93.2441L55.2345 94.145L54.1515 94.8957L52.5269 95.4963L51.4439 95.9468L49.8193 96.2471L48.1948 96.3972Z" fill="#E0D1C1"/>
<path d="M48.1948 93.3932H6.49805V88.8887H48.1948H49.8193L51.4439 89.0388L52.5269 89.189L54.1515 89.4893L55.2345 89.9397L55.776 90.24L56.3175 90.6905V91.1409V91.5914L55.776 92.0418L55.2345 92.4923L54.1515 92.7926L52.5269 93.0929L51.4439 93.243L49.8193 93.3932H48.1948Z" fill="#EBE1D7"/>
<path d="M31.4078 91.7422C45.1651 91.7422 56.3175 91.4733 56.3175 91.1416C56.3175 90.8099 45.1651 90.541 31.4078 90.541C17.6505 90.541 6.49805 90.8099 6.49805 91.1416C6.49805 91.4733 17.6505 91.7422 31.4078 91.7422Z" fill="white"/>
<path d="M48.1948 98.0482H6.49805V84.2344H48.1948L49.8193 84.3845L51.4439 84.6848L52.5269 85.4356L54.1515 86.1863L55.2345 87.2374L55.776 88.4386L56.3175 89.7899V91.1413V92.6428L55.776 93.844L55.2345 95.0452L54.1515 96.0962L52.5269 96.9971L51.4439 97.5977L49.8193 97.898L48.1948 98.0482Z" stroke="black" stroke-width="0.570294"/>
<path d="M20.5776 100.451H8.12274H7.03971L5.41516 100L3.2491 98.799L1.62455 96.9972L0.541516 95.6458L0 93.9942V93.0933V92.1924V91.1413V89.3395L0.541516 87.5377L1.08303 86.0362L2.16606 84.5347L3.79061 83.0332L5.41516 82.2825L7.03971 81.9822L8.12274 81.832H20.5776L21.6607 81.9822L23.2852 82.2825L25.4513 83.4837L27.0758 85.2855L28.1588 86.787L28.7004 88.4386V89.3395L29.2419 90.2404V91.1413L28.7004 93.0933L28.1588 94.7449L27.6173 96.3966L26.5343 97.7479L24.3682 99.2494L23.2852 100L21.6607 100.451H20.5776Z" fill="#CCB299" stroke="black" stroke-width="0.570294"/>
<path d="M8.12274 100.451C12.6088 100.451 16.2455 96.2827 16.2455 91.1413C16.2455 86 12.6088 81.832 8.12274 81.832C3.63668 81.832 0 86 0 91.1413C0 96.2827 3.63668 100.451 8.12274 100.451Z" fill="#E0D1C1" stroke="black" stroke-width="0.570294"/>
<path d="M14.6211 81.832L15.1626 81.9822L16.7872 82.2825L18.9532 83.4837L20.5778 85.2855L21.6608 86.787L22.2023 88.4386L22.7438 90.2404V92.1924L22.2023 93.9942L21.6608 95.6458L20.5778 96.9972L18.9532 98.799L16.7872 100L15.1626 100.451H14.6211" stroke="black" stroke-width="0.570294"/>
<path d="M55.2346 75.6755L44.4043 74.174V68.0178L49.8195 67.1169V57.8076L55.2346 57.207V75.6755Z" fill="#CCB299" stroke="black" stroke-width="0.570294"/>
<path d="M55.2342 75.6761L33.032 74.9253L21.6602 73.4238L44.4038 74.1746L55.2342 75.6761Z" fill="#B28C65" stroke="black" stroke-width="0.570294"/>
<path d="M21.6611 73.4235V67.1172L44.4048 68.0181V74.1742L21.6611 73.4235Z" fill="#E0D1C1" stroke="black" stroke-width="0.570294"/>
<path d="M27.6172 66.3672V57.8086H49.8194V67.1179L27.6172 66.3672Z" fill="#E0D1C1" stroke="black" stroke-width="0.570294"/>
<path d="M55.2345 57.207L49.8194 57.8076H27.6172L33.0324 57.207H55.2345Z" fill="#EBE1D7" stroke="black" stroke-width="0.570294"/>
<path d="M49.819 67.2681L44.4038 68.0188L21.6602 67.1179L27.6168 66.3672L49.819 67.2681Z" fill="#EBE1D7" stroke="black" stroke-width="0.570294"/>
</g>
<defs>
<clipPath id="clip0_2109_170061">
<rect width="150" height="150" fill="white"/>
</clipPath>
</defs>
</svg>
