<svg width="71" height="150" viewBox="0 0 71 150" fill="none" xmlns="http://www.w3.org/2000/svg">
<g clip-path="url(#clip0_2109_170765)">
<path d="M23.041 4.6543H47.9593V150H23.041V4.6543Z" fill="#7F7F7F"/>
<path d="M26.1133 4.6543H44.8873V150H26.1133V4.6543Z" fill="#999999"/>
<path d="M27.1367 4.6543H43.692V150H27.1367V4.6543Z" fill="#B2B2B2"/>
<path d="M28.6729 4.6543H42.156V150H28.6729V4.6543Z" fill="#CCCCCC"/>
<path d="M32.2568 4.6543H38.5717V150H32.2568V4.6543Z" fill="#E5E5E5"/>
<path d="M23.041 4.6543H47.9593V150H23.041V4.6543Z" stroke="black" stroke-width="0.465363"/>
<path d="M19.7979 1.20117L38.9132 18.018" stroke="black" stroke-width="0.465363"/>
<path d="M25.4307 1.20117L44.546 18.018" stroke="black" stroke-width="0.465363"/>
<path d="M31.2334 1.20117L50.3488 18.018" stroke="black" stroke-width="0.465363"/>
<path d="M36.8652 1.20117L51.0311 13.5135" stroke="black" stroke-width="0.465363"/>
<path d="M42.668 0.900391L51.0309 8.25775" stroke="black" stroke-width="0.465363"/>
<path d="M48.3008 0.900391L51.0316 3.30279" stroke="black" stroke-width="0.465363"/>
<path d="M19.7979 5.85547L33.281 17.7173" stroke="black" stroke-width="0.465363"/>
<path d="M19.7979 11.1113L27.6488 18.0182" stroke="black" stroke-width="0.465363"/>
<path d="M19.7979 16.0664L21.8459 18.0184" stroke="black" stroke-width="0.465363"/>
<path d="M51.0314 1.20117L31.916 18.018" stroke="black" stroke-width="0.465363"/>
<path d="M45.3986 1.20117L26.2832 18.018" stroke="black" stroke-width="0.465363"/>
<path d="M39.7668 1.20117L20.6514 18.018" stroke="black" stroke-width="0.465363"/>
<path d="M33.9637 1.20117L19.7979 13.5135" stroke="black" stroke-width="0.465363"/>
<path d="M28.3315 0.900391L19.7979 8.25775" stroke="black" stroke-width="0.465363"/>
<path d="M22.6993 0.900391L19.7979 3.30279" stroke="black" stroke-width="0.465363"/>
<path d="M51.031 5.85547L37.5479 17.7173" stroke="black" stroke-width="0.465363"/>
<path d="M51.0309 11.1113L43.3506 18.0182" stroke="black" stroke-width="0.465363"/>
<path d="M51.0315 16.0664L48.9834 18.0184" stroke="black" stroke-width="0.465363"/>
<path d="M18.4326 18.018V0H52.5672V18.018H51.0312V1.2012H19.798V7.95796H51.0312V9.30931H19.798V18.018H18.4326Z" fill="#7F7F7F" stroke="black" stroke-width="0.465363"/>
<path d="M18.7744 17.718V0.150391H52.0557V17.718H51.373V0.901141H19.4571V8.40865H51.373V9.00925H19.4571V17.718H18.7744Z" fill="#E5E5E5"/>
<path d="M1.36523 1.65234L10.9229 18.1689" stroke="#7F7F7F" stroke-width="0.465363"/>
<path d="M4.0957 1.65234L13.6534 18.1689" stroke="#7F7F7F" stroke-width="0.465363"/>
<path d="M6.99805 1.50195L16.5557 18.0185" stroke="#7F7F7F" stroke-width="0.465363"/>
<path d="M9.89941 1.35156L16.897 13.6639" stroke="#7F7F7F" stroke-width="0.465363"/>
<path d="M12.6299 1.05078L16.8967 8.40814" stroke="#7F7F7F" stroke-width="0.465363"/>
<path d="M15.5312 0.900391L16.8966 3.30279" stroke="#7F7F7F" stroke-width="0.465363"/>
<path d="M1.36523 6.30664L8.02148 18.0184" stroke="#7F7F7F" stroke-width="0.465363"/>
<path d="M1.36523 11.7109L5.12004 18.3175" stroke="#7F7F7F" stroke-width="0.465363"/>
<path d="M1.36523 16.666L2.38927 18.4678" stroke="#7F7F7F" stroke-width="0.465363"/>
<path d="M16.8966 1.20117L7.33887 18.3183" stroke="#7F7F7F" stroke-width="0.465363"/>
<path d="M14.1661 1.35156L4.6084 18.3185" stroke="#7F7F7F" stroke-width="0.465363"/>
<path d="M11.2647 1.35156L1.70703 18.4687" stroke="#7F7F7F" stroke-width="0.465363"/>
<path d="M8.36283 1.50195L1.36523 14.1146" stroke="#7F7F7F" stroke-width="0.465363"/>
<path d="M5.63206 1.20117L1.36523 8.85883" stroke="#7F7F7F" stroke-width="0.465363"/>
<path d="M2.73062 1.35156L1.36523 3.75396" stroke="#7F7F7F" stroke-width="0.465363"/>
<path d="M16.8965 5.85547L10.2402 17.8675" stroke="#7F7F7F" stroke-width="0.465363"/>
<path d="M16.8962 11.2617L12.9707 18.1686" stroke="#7F7F7F" stroke-width="0.465363"/>
<path d="M16.8971 16.2168L15.873 18.0186" stroke="#7F7F7F" stroke-width="0.465363"/>
<path d="M0 18.6186V0.45045L18.4327 0V18.018H16.8966V1.2012L1.36538 1.65165V8.55856L16.8966 8.10811V9.30931L1.36538 9.75976V18.4685L0 18.6186Z" fill="#7F7F7F" stroke="black" stroke-width="0.465363"/>
<path d="M0.170898 18.1684V0.750991L18.0916 0.150391V17.718H17.2382V0.901141L1.02426 1.35159V8.8591L17.4089 8.40865V9.00925L1.02426 9.4597V18.1684H0.170898Z" fill="#E5E5E5"/>
<path d="M53.9326 1.20117L63.4903 18.3183" stroke="#7F7F7F" stroke-width="0.465363"/>
<path d="M56.834 1.35156L66.221 18.3185" stroke="#7F7F7F" stroke-width="0.465363"/>
<path d="M59.5645 1.35156L69.1221 18.4687" stroke="#7F7F7F" stroke-width="0.465363"/>
<path d="M62.4668 1.50195L69.4644 14.1146" stroke="#7F7F7F" stroke-width="0.465363"/>
<path d="M65.1973 1.20117L69.4641 8.85883" stroke="#7F7F7F" stroke-width="0.465363"/>
<path d="M68.0986 1.35156L69.464 3.75396" stroke="#7F7F7F" stroke-width="0.465363"/>
<path d="M53.9326 5.85547L60.5889 17.8675" stroke="#7F7F7F" stroke-width="0.465363"/>
<path d="M53.9326 11.2617L57.6874 18.1686" stroke="#7F7F7F" stroke-width="0.465363"/>
<path d="M53.9326 16.2168L54.9567 18.0186" stroke="#7F7F7F" stroke-width="0.465363"/>
<path d="M69.4639 1.65234L59.9062 18.1689" stroke="#7F7F7F" stroke-width="0.465363"/>
<path d="M66.7335 1.65234L57.1758 18.1689" stroke="#7F7F7F" stroke-width="0.465363"/>
<path d="M63.8321 1.50195L54.2744 18.0185" stroke="#7F7F7F" stroke-width="0.465363"/>
<path d="M60.9302 1.35156L53.9326 13.6639" stroke="#7F7F7F" stroke-width="0.465363"/>
<path d="M58.1994 1.05078L53.9326 8.40814" stroke="#7F7F7F" stroke-width="0.465363"/>
<path d="M55.298 0.900391L53.9326 3.30279" stroke="#7F7F7F" stroke-width="0.465363"/>
<path d="M69.4639 6.30664L62.8076 18.0184" stroke="#7F7F7F" stroke-width="0.465363"/>
<path d="M69.4636 11.7109L65.5381 18.3175" stroke="#7F7F7F" stroke-width="0.465363"/>
<path d="M69.4635 16.666L68.4395 18.4678" stroke="#7F7F7F" stroke-width="0.465363"/>
<path d="M52.5674 18.018V0L71.0001 0.45045V18.6186L69.464 18.4685V1.65165L53.9328 1.2012V8.10811L69.464 8.55856V9.75976L53.9328 9.30931V18.018H52.5674Z" fill="#7F7F7F" stroke="black" stroke-width="0.465363"/>
<path d="M52.9082 17.718V0.150391L70.6582 0.750991V18.1684H69.8048V1.35159L53.5909 0.901141V8.40865L69.9755 8.8591V9.4597L53.5909 9.00925V17.718H52.9082Z" fill="#E5E5E5"/>
<path d="M0 18.0176H17.75V21.9215H0V18.0176Z" fill="#B2B2B2" stroke="black" stroke-width="0.465363"/>
<path d="M17.75 18.0176H53.25V21.9215H17.75V18.0176Z" fill="#8C8C8C" stroke="black" stroke-width="0.465363"/>
<path d="M53.25 18.0176H71V21.9215H53.25V18.0176Z" fill="#666666" stroke="black" stroke-width="0.465363"/>
<path d="M5.80273 21.9219H65.0263V24.4744H5.80273V21.9219Z" fill="#333333" stroke="black" stroke-width="0.465363"/>
<path d="M23.041 37.3867H47.9593" stroke="black" stroke-width="0.465363"/>
<path d="M23.041 93.6934H47.9593" stroke="black" stroke-width="0.465363"/>
<path d="M23.041 112.463H47.9593" stroke="#7F7F7F" stroke-width="0.465363"/>
<path d="M23.041 131.23H47.9593" stroke="#7F7F7F" stroke-width="0.465363"/>
<path d="M23.041 56.1562H47.9593" stroke="#7F7F7F" stroke-width="0.465363"/>
<path d="M23.041 74.9258H47.9593" stroke="#7F7F7F" stroke-width="0.465363"/>
<path d="M15.873 116.367H54.9572V124.025H15.873V116.367Z" fill="#7F7F7F"/>
<path d="M15.873 118.318H54.9572V122.072H15.873V118.318Z" fill="#B2B2B2"/>
<path d="M15.873 119.219H54.9572V121.171H15.873V119.219Z" fill="#E5E5E5"/>
<path d="M15.873 116.367H54.9572V124.025H15.873V116.367Z" stroke="black" stroke-width="0.465363"/>
</g>
<defs>
<clipPath id="clip0_2109_170765">
<rect width="71" height="150" fill="white"/>
</clipPath>
</defs>
</svg>
