<svg width="150" height="150" viewBox="0 0 150 150" fill="none" xmlns="http://www.w3.org/2000/svg">
<path d="M1.76953 0.601562H147.787V149.25H1.76953V0.601562Z" fill="#8CA0BF"/>
<path d="M1.76953 113.514H120.354V106.607H115.929V112.163H1.76953V113.514Z" fill="white"/>
<path d="M147.787 124.475H29.2031V117.568H33.6279V123.124H147.787V124.475Z" fill="white"/>
<path d="M1.76953 91.5907H120.354V84.834H115.929V90.3895H1.76953V91.5907Z" fill="white"/>
<path d="M147.787 102.552H29.2031V95.7949H33.6279V101.2H147.787V102.552Z" fill="white"/>
<path d="M1.76953 69.819H120.354V62.9121H115.929V68.4677H1.76953V69.819Z" fill="white"/>
<path d="M147.787 80.78H29.2031V73.873H33.6279V79.4286H147.787V80.78Z" fill="white"/>
<path d="M1.76953 47.8974H120.354V41.1406H115.929V46.546H1.76953V47.8974Z" fill="white"/>
<path d="M147.787 58.8581H29.2031V51.9512H33.6279V57.5067H147.787V58.8581Z" fill="white"/>
<path d="M1.76953 26.1257H120.354V19.2188H115.929V24.7743H1.76953V26.1257Z" fill="white"/>
<path d="M147.787 36.9364H29.2031V30.1797H33.6279V35.7352H147.787V36.9364Z" fill="white"/>
<path d="M1.76953 0.601562H147.787V149.25H1.76953V0.601562Z" stroke="black" stroke-width="0.515512"/>
</svg>
