<svg width="150" height="150" viewBox="0 0 150 150" fill="none" xmlns="http://www.w3.org/2000/svg">
<path d="M130.469 100.45H142.188V101.951H146.094V95.7949H142.188V97.4466H130.469V100.45Z" fill="#164C4C" stroke="black" stroke-width="0.684996"/>
<path d="M114.844 74.4752H126.562V76.1269H130.469V69.9707H126.562V71.4722H114.844V74.4752Z" fill="#164C4C" stroke="black" stroke-width="0.684996"/>
<path d="M114.062 44.8949H126.562V46.3964H130.469V40.2402H126.562V41.7417H114.062V44.8949Z" fill="#164C4C" stroke="black" stroke-width="0.684996"/>
<path d="M114.062 13.5143H126.562V15.1659H130.469V9.00977H126.562V10.5113H114.062V13.5143Z" fill="#164C4C" stroke="black" stroke-width="0.684996"/>
<path d="M75 3.75472V1.50246H82.8125V0.601562H50.7812V1.50246H58.5938V3.75472H75Z" fill="#164C4C" stroke="black" stroke-width="0.684996"/>
<path d="M114.844 9.00991L103.906 5.25616L81.25 3.30421L67.1875 3.00391L44.5312 3.60451L25 6.15706L19.5312 9.00991V69.9709L3.125 94.2952V149.25H130.469V94.2952L114.844 69.9709V9.00991Z" fill="#597F7F" stroke="black" stroke-width="0.684996"/>
<path d="M27.3438 40.9902H106.25V69.2185H27.3438V40.9902Z" fill="#BDCCCC" stroke="black" stroke-width="0.684996"/>
<path d="M19.5312 40.241H114.844V39.4902H19.5312V40.241Z" fill="#333333"/>
<path d="M3.90625 124.024H130.469V123.273H3.90625V124.024Z" fill="#333333"/>
<path d="M3.125 94.4453H130.469" stroke="black" stroke-width="0.684996"/>
<path d="M114.844 70.1211H19.5312" stroke="black" stroke-width="0.684996"/>
<path d="M19.5312 66.9668H98.4375" stroke="black" stroke-width="0.684996"/>
<path d="M114.844 63.8145H35.1562" stroke="black" stroke-width="0.684996"/>
<path d="M19.5312 60.8105H98.4375" stroke="black" stroke-width="0.684996"/>
<path d="M114.844 57.8086H35.1562" stroke="black" stroke-width="0.684996"/>
<path d="M19.5312 54.6543H98.4375" stroke="black" stroke-width="0.684996"/>
<path d="M114.844 51.6523H35.1562" stroke="black" stroke-width="0.684996"/>
<path d="M114.844 9.00977H19.5312" stroke="black" stroke-width="0.684996"/>
<path d="M130.469 123.273L127.344 125.075L122.656 126.276L115.625 127.177L107.031 127.928L96.875 128.679L85.9375 129.129L73.4375 129.279L67.1875 129.43L53.9062 129.279L42.1875 128.979L31.25 128.379L21.875 127.628L14.0625 126.727L8.59375 125.676L4.6875 124.475L3.125 123.273" stroke="black" stroke-width="0.684996"/>
<path d="M50.7812 129.43V132.433H35.1562V133.934H98.4375V132.433H82.8125V129.43H50.7812Z" fill="#164C4C" stroke="black" stroke-width="0.684996"/>
</svg>
