<svg width="150" height="150" viewBox="0 0 150 150" fill="none" xmlns="http://www.w3.org/2000/svg">
<g clip-path="url(#clip0_2109_171223)">
<path d="M37.3877 143.734H112.463V150H37.3877V143.734Z" fill="#AB5700" stroke="black" stroke-width="0.337695"/>
<path d="M0 0V37.4051L37.3874 143.734H112.462L150 37.4051V0H0Z" fill="#D9B366"/>
<path d="M12.4629 0L15.0154 37.4051L43.6941 143.734H106.157L134.835 37.4051L137.538 0H12.4629Z" fill="#DBB772"/>
<path d="M24.9248 0L27.0269 37.4051L49.9999 143.734H99.9999L122.973 37.4051L124.925 0H24.9248Z" fill="#E0C182"/>
<path d="M37.5371 0L39.0386 37.4051L56.1557 143.734H93.6933L110.961 37.4051L112.462 0H37.5371Z" fill="#E3C791"/>
<path d="M50 0L51.0511 37.4051L62.4625 143.734H87.5375L98.9489 37.4051L100 0H50Z" fill="#E8D1A1"/>
<path d="M62.4629 0L62.9133 37.4051L68.619 143.734H81.2317L86.9374 37.4051L87.3878 0H62.4629Z" fill="#EBD7AE"/>
<path d="M0 0V37.4051L37.3874 143.734H112.462L150 37.4051V0H0Z" stroke="black" stroke-width="0.337695"/>
<path d="M0 3.03711H150" stroke="black" stroke-width="0.337695"/>
<path d="M0 37.4043H150" stroke="black" stroke-width="0.337695"/>
<path d="M6.15625 49.9375H143.694" stroke="black" stroke-width="0.337695"/>
<path d="M12.4629 62.4688H137.388" stroke="black" stroke-width="0.337695"/>
<path d="M0 18.6074H150" stroke="black" stroke-width="0.337695"/>
<path d="M62.4629 18.6074H63.9644V56.2024H62.4629V18.6074Z" fill="#D1A347"/>
<path d="M131.081 18.6074H128.078V56.2024H131.081V18.6074Z" fill="#CC9933" stroke="black" stroke-width="0.337695"/>
<path d="M18.7686 18.6074H21.7716V56.2024H18.7686V18.6074Z" fill="#CC9933" stroke="black" stroke-width="0.337695"/>
<path d="M87.3872 18.6074H85.8857V56.2024H87.3872V18.6074Z" fill="#D1A347"/>
<path d="M150 43.6699H131.231V56.2016H150V43.6699Z" fill="#D9B366" stroke="black" stroke-width="0.337695"/>
<path d="M112.462 43.6699H87.5371V56.2016H112.462V43.6699Z" fill="#D9B366" stroke="black" stroke-width="0.337695"/>
<path d="M37.3877 43.6699H62.4628V56.2016H37.3877V43.6699Z" fill="#D9B366" stroke="black" stroke-width="0.337695"/>
<path d="M0 43.6699H18.6186V56.2016H0V43.6699Z" fill="#D9B366" stroke="black" stroke-width="0.337695"/>
<path d="M150 31.1387H131.231V43.6703H150V31.1387Z" fill="#E3C78F" stroke="black" stroke-width="0.337695"/>
<path d="M112.462 31.1387H87.5371V43.6703H112.462V31.1387Z" fill="#E3C78F" stroke="black" stroke-width="0.337695"/>
<path d="M37.3877 31.1387H62.4628V43.6703H37.3877V31.1387Z" fill="#E3C78F" stroke="black" stroke-width="0.337695"/>
<path d="M0 31.1387H18.6186V43.6703H0V31.1387Z" fill="#E3C78F" stroke="black" stroke-width="0.337695"/>
<path d="M150 18.6074H131.231V31.1391H150V18.6074Z" fill="#EBD7AE" stroke="black" stroke-width="0.337695"/>
<path d="M112.462 18.6074H87.5371V31.1391H112.462V18.6074Z" fill="#EBD7AE" stroke="black" stroke-width="0.337695"/>
<path d="M37.3877 18.6074H62.4628V31.1391H37.3877V18.6074Z" fill="#EBD7AE" stroke="black" stroke-width="0.337695"/>
<path d="M0 18.6074H18.6186V31.1391H0V18.6074Z" fill="#EBD7AE" stroke="black" stroke-width="0.337695"/>
<path d="M140.541 18.6074V56.2024" stroke="black" stroke-width="0.337695"/>
<path d="M100 18.6074V56.2024" stroke="black" stroke-width="0.337695"/>
<path d="M50 18.6074V56.2024" stroke="black" stroke-width="0.337695"/>
<path d="M9.30957 18.6074V56.2024" stroke="black" stroke-width="0.337695"/>
<path d="M97.2969 56.5815L99.9996 55.0625L143.693 130.822L140.991 132.341L97.2969 56.5815Z" fill="#CC9933"/>
<path d="M51.9521 56.5815L54.6549 55.0625L98.3485 130.822L95.796 132.341L51.9521 56.5815Z" fill="#CC9933"/>
<path d="M6.45605 56.5815L9.00861 55.0625L52.8525 130.822L50.1497 132.341L6.45605 56.5815Z" fill="#CC9933"/>
<path d="M140.991 55.0625L143.693 56.5815L99.9996 132.341L97.2969 130.822L140.991 55.0625Z" fill="#CC9933"/>
<path d="M95.796 55.0625L98.3485 56.5815L54.6549 132.341L51.9521 130.822L95.796 55.0625Z" fill="#CC9933"/>
<path d="M50.1497 55.0625L52.8525 56.5815L9.00861 132.341L6.45605 130.822L50.1497 55.0625Z" fill="#CC9933"/>
<path d="M147.598 56.2031H133.483V150.001H147.598V56.2031Z" fill="#D9B366" stroke="black" stroke-width="0.337695"/>
<path d="M134.234 56.2031H131.231V150.001H134.234V56.2031Z" fill="#CC9933" stroke="black" stroke-width="0.337695"/>
<path d="M2.25195 56.2031H16.3661V150.001H2.25195V56.2031Z" fill="#D9B366" stroke="black" stroke-width="0.337695"/>
<path d="M15.6152 56.2031H18.6182V150.001H15.6152V56.2031Z" fill="#CC9933" stroke="black" stroke-width="0.337695"/>
<path d="M17.1172 131.203H132.733V140.697H17.1172V131.203Z" fill="#D6AD5C" stroke="black" stroke-width="0.337695"/>
<path d="M59.3096 56.2031H60.8111V150.001H59.3096V56.2031Z" fill="#D1A347"/>
<path d="M90.5406 56.2031H89.0391V150.001H90.5406V56.2031Z" fill="#D1A347"/>
<path d="M109.31 56.2031H90.541V150.001H109.31V56.2031Z" fill="#E3C78F" stroke="black" stroke-width="0.337695"/>
<path d="M40.541 56.2031H59.3098V150.001H40.541V56.2031Z" fill="#E3C78F" stroke="black" stroke-width="0.337695"/>
<path d="M59.3096 131.203H90.5408V140.697H59.3096V131.203Z" fill="#E3C78F" stroke="black" stroke-width="0.337695"/>
</g>
<defs>
<clipPath id="clip0_2109_171223">
<rect width="150" height="150" fill="white"/>
</clipPath>
</defs>
</svg>
