<svg width="150" height="150" viewBox="0 0 150 150" fill="none" xmlns="http://www.w3.org/2000/svg">
<g clip-path="url(#clip0_2109_171164)">
<path d="M0.750977 0.958984H124.475H129.28V4.47711L127.778 4.79694V145.522H125.976V4.79694H124.475V129.53H0.750977V0.958984Z" fill="#99CCCC"/>
<path d="M0.750977 4.47852H124.475V9.27596H0.750977V4.47852Z" fill="#174A4A"/>
<path d="M0.750977 0.958984H124.475H129.28V4.47711L127.778 4.79694V145.522H125.976V4.79694H124.475V129.53H0.750977V0.958984Z" stroke="black" stroke-width="0.43828"/>
<path d="M0.750977 34.8613H124.475V129.531H0.750977V34.8613Z" fill="#8FC2C2"/>
<path d="M0.750977 61.7266H124.475V129.53H0.750977V61.7266Z" fill="#82B5B5"/>
<path d="M0.750977 75.7988H124.475V129.53H0.750977V75.7988Z" fill="#78ABAB"/>
<path d="M0.750977 84.1152H124.475V129.531H0.750977V84.1152Z" fill="#6EA1A1"/>
<path d="M0.750977 87.9531H124.475V129.531H0.750977V87.9531Z" fill="#639696"/>
<path d="M0.750977 91.791H124.475V129.531H0.750977V91.791Z" fill="#578A8A"/>
<path d="M0.750977 95.6289H124.475V129.531H0.750977V95.6289Z" fill="#4C7F7F"/>
<path d="M0.750977 99.4668H124.475V129.531H0.750977V99.4668Z" fill="#427575"/>
<path d="M0.750977 103.305H124.475V129.531H0.750977V103.305Z" fill="#366969"/>
<path d="M0.750977 107.143H124.475V129.531H0.750977V107.143Z" fill="#2B5E5E"/>
<path d="M0.750977 110.98H124.475V129.531H0.750977V110.98Z" fill="#215454"/>
<path d="M0.750977 114.818H124.475V129.531H0.750977V114.818Z" fill="#174A4A"/>
<path d="M0.750977 118.656H124.475V129.53H0.750977V118.656Z" fill="#0A3D3D"/>
<path d="M0.750977 123.135H124.475V129.531H0.750977V123.135Z" fill="#003333"/>
<path d="M111.862 28.4648H124.475V150H111.862V28.4648Z" fill="#99CCCC"/>
<path d="M0.750977 28.4648H13.3636V150H0.750977V28.4648Z" fill="#99CCCC"/>
<path d="M115.165 28.4648H121.471V142.964H115.165V28.4648Z" fill="#669999"/>
<path d="M3.9043 28.4648H10.2106V142.964H3.9043V28.4648Z" fill="#669999"/>
<path d="M124.475 27.8242V149.999H111.862V28.4639" stroke="black" stroke-width="0.43828"/>
<path d="M13.3636 28.4648V150H0.750977V28.4648" stroke="black" stroke-width="0.43828"/>
<path d="M0 149.999L2.25225 142.963H11.8619L14.2643 149.999H0Z" fill="#CCFFFF" stroke="black" stroke-width="0.43828"/>
<path d="M110.961 149.999L113.363 142.963H122.973L125.375 149.999H110.961Z" fill="#CCFFFF" stroke="black" stroke-width="0.43828"/>
<path d="M124.475 4.47852H125.976V129.532H124.475V4.47852Z" fill="#003333"/>
<path d="M127.777 13.4336H131.681V129.532H127.777V13.4336Z" fill="#99CCCC" stroke="black" stroke-width="0.43828"/>
<path d="M131.682 123.134L143.544 109.062V104.584H131.682V123.134Z" fill="#7FB2B2" stroke="black" stroke-width="0.43828"/>
<path d="M131.682 104.585H150V102.666H131.682V104.585Z" fill="#CCFFFF" stroke="black" stroke-width="0.43828"/>
<path d="M137.237 102.665H145.946L145.195 95.6289H137.988L137.237 102.665Z" fill="#99CCCC" stroke="black" stroke-width="0.43828"/>
<path d="M137.988 71.9609H145.195V95.6283H137.988V71.9609Z" fill="#669999"/>
<path d="M137.988 71.9609H145.195V84.1145H137.988V71.9609Z" fill="#99CCCC"/>
<path d="M137.988 73.8809H145.195V77.0792H137.988V73.8809Z" fill="#CCFFFF"/>
<path d="M137.988 71.9609H145.195V95.6283H137.988V71.9609Z" stroke="black" stroke-width="0.43828"/>
<path d="M131.682 80.916H137.988V87.3126H131.682V80.916Z" fill="#669999"/>
<path d="M131.682 82.8359H137.988V84.7549H131.682V82.8359Z" fill="#CCFFFF"/>
<path d="M131.682 80.916H137.988V87.3126H131.682V80.916Z" stroke="black" stroke-width="0.43828"/>
<path d="M57.8076 41.8984H67.4172V66.8451H57.8076V41.8984Z" fill="#99CCCC"/>
<path d="M57.8076 66.8451V41.8984H67.4172" stroke="#CCFFFF" stroke-width="0.43828"/>
<path d="M108.559 11.194V0H111.862" stroke="#CCFFFF" stroke-width="0.43828"/>
<path d="M83.333 11.194V0H86.336" stroke="#CCFFFF" stroke-width="0.43828"/>
<path d="M38.5889 11.194V0H41.8922" stroke="#CCFFFF" stroke-width="0.43828"/>
<path d="M13.3633 11.194V0H16.8167" stroke="#CCFFFF" stroke-width="0.43828"/>
<path d="M7.05745 14.3926H118.169L121.472 24.6271H3.9043L7.05745 14.3926Z" fill="#B2E5E5"/>
<path d="M62.6128 23.0274C63.4421 23.0274 64.1143 21.5955 64.1143 19.8292C64.1143 18.0628 63.4421 16.6309 62.6128 16.6309C61.7836 16.6309 61.1113 18.0628 61.1113 19.8292C61.1113 21.5955 61.7836 23.0274 62.6128 23.0274Z" fill="#669999"/>
<path d="M30.7808 48.295C31.6101 48.295 32.2823 46.8631 32.2823 45.0967C32.2823 43.3304 31.6101 41.8984 30.7808 41.8984C29.9515 41.8984 29.2793 43.3304 29.2793 45.0967C29.2793 46.8631 29.9515 48.295 30.7808 48.295Z" fill="#669999"/>
<path d="M94.4449 48.295C95.2741 48.295 95.9464 46.8631 95.9464 45.0967C95.9464 43.3304 95.2741 41.8984 94.4449 41.8984C93.6156 41.8984 92.9434 43.3304 92.9434 45.0967C92.9434 46.8631 93.6156 48.295 94.4449 48.295Z" fill="#669999"/>
<path d="M108.559 0H111.862V11.194H108.559V0Z" fill="#7FB2B2"/>
<path d="M83.333 0H86.336V11.194H83.333V0Z" fill="#7FB2B2"/>
<path d="M38.5889 0H41.8922V11.194H38.5889V0Z" fill="#7FB2B2"/>
<path d="M13.3633 0H16.8167V11.194H13.3633V0Z" fill="#7FB2B2"/>
<path d="M111.862 0V11.194H108.559" stroke="#669999" stroke-width="0.43828"/>
<path d="M86.336 0V11.194H83.333" stroke="#669999" stroke-width="0.43828"/>
<path d="M16.8167 0V11.194H13.3633" stroke="#669999" stroke-width="0.43828"/>
<path d="M41.8922 0V11.194H38.5889" stroke="#669999" stroke-width="0.43828"/>
<path d="M67.4172 41.8984V66.8451H57.8076" stroke="#669999" stroke-width="0.43828"/>
</g>
<defs>
<clipPath id="clip0_2109_171164">
<rect width="150" height="150" fill="white"/>
</clipPath>
</defs>
</svg>
