<svg width="150" height="150" viewBox="0 0 150 150" fill="none" xmlns="http://www.w3.org/2000/svg">
<g clip-path="url(#clip0_2109_169602)">
<path d="M103.718 10.0602V150L150 141.442V3.75391L103.718 10.0602Z" fill="#999999" stroke="black" stroke-width="0.578712"/>
<path d="M103.717 10.0602L150 3.75391H69.1449L11.71 10.0602H103.717Z" fill="#F2F2F2" stroke="black" stroke-width="0.578712"/>
<path d="M11.71 10.0605V150H103.717V10.0605H11.71Z" fill="#D9D9D9" stroke="black" stroke-width="0.578712"/>
<path d="M14.498 63.664V149.099H100.929V55.1055L14.498 63.664Z" fill="#CCCCCC"/>
<path d="M14.498 112.613V149.1H100.929V104.055L14.498 112.613Z" fill="#BFBFBF"/>
<path d="M14.498 135.135V149.099H100.929V126.576L14.498 135.135Z" fill="#B2B2B2"/>
<path d="M43.4942 65.4648H28.9961" stroke="#FFCC00" stroke-width="0.578712"/>
<path d="M43.4942 78.2285H28.9961" stroke="#FFCC00" stroke-width="0.578712"/>
<path d="M43.4942 90.9902H28.9961" stroke="#FFCC00" stroke-width="0.578712"/>
<path d="M43.4942 103.754H28.9961" stroke="#FFCC00" stroke-width="0.578712"/>
<path d="M43.4942 116.516H28.9961" stroke="#FFCC00" stroke-width="0.578712"/>
<path d="M43.4942 129.279H28.9961" stroke="#FFCC00" stroke-width="0.578712"/>
<path d="M43.4942 68.6191H28.9961" stroke="#FFCC00" stroke-width="0.578712"/>
<path d="M43.4942 81.3809H28.9961" stroke="#FFCC00" stroke-width="0.578712"/>
<path d="M43.4942 94.1445H28.9961" stroke="#FFCC00" stroke-width="0.578712"/>
<path d="M43.4942 106.906H28.9961" stroke="#FFCC00" stroke-width="0.578712"/>
<path d="M43.4942 119.67H28.9961" stroke="#FFCC00" stroke-width="0.578712"/>
<path d="M43.4942 132.432H28.9961" stroke="#FFCC00" stroke-width="0.578712"/>
<path d="M43.4942 71.7715H28.9961" stroke="#FFCC00" stroke-width="0.578712"/>
<path d="M43.4942 84.5352H28.9961" stroke="#FFCC00" stroke-width="0.578712"/>
<path d="M43.4942 97.2969H28.9961" stroke="#FFCC00" stroke-width="0.578712"/>
<path d="M43.4942 110.061H28.9961" stroke="#FFCC00" stroke-width="0.578712"/>
<path d="M43.4942 122.822H28.9961" stroke="#FFCC00" stroke-width="0.578712"/>
<path d="M43.4942 135.586H28.9961" stroke="#FFCC00" stroke-width="0.578712"/>
<path d="M43.4942 74.9258H28.9961" stroke="#FFCC00" stroke-width="0.578712"/>
<path d="M43.4942 87.6875H28.9961" stroke="#FFCC00" stroke-width="0.578712"/>
<path d="M43.4942 100.451H28.9961" stroke="#FFCC00" stroke-width="0.578712"/>
<path d="M43.4942 113.213H28.9961" stroke="#FFCC00" stroke-width="0.578712"/>
<path d="M43.4942 125.977H28.9961" stroke="#FFCC00" stroke-width="0.578712"/>
<path d="M43.4942 138.738H28.9961" stroke="#FFCC00" stroke-width="0.578712"/>
<path d="M43.4942 141.893H28.9961" stroke="#FFCC00" stroke-width="0.578712"/>
<path d="M43.4942 148.197H28.9961" stroke="#FFCC00" stroke-width="0.578712"/>
<path d="M43.4942 145.045H28.9961" stroke="#FFCC00" stroke-width="0.578712"/>
<path d="M28.9961 63.6641V150" stroke="#FFCC00" stroke-width="0.578712"/>
<path d="M43.4941 150V63.6641" stroke="#FFCC00" stroke-width="0.578712"/>
<path d="M0 125.826H54.6468L66.3569 124.324H11.71L0 125.826Z" fill="#F2F2F2" stroke="black" stroke-width="0.578712"/>
<path d="M0 98.648H109.851L138.848 94.7441H121.004L103.717 97.1465H11.71L0 98.648Z" fill="#F2F2F2" stroke="black" stroke-width="0.578712"/>
<path d="M0 70.7203H109.851L138.848 66.8164H121.004L103.717 69.0687H11.71L0 70.7203Z" fill="#F2F2F2" stroke="black" stroke-width="0.578712"/>
<path d="M0 43.5443H109.851L138.848 39.4902H121.004L103.717 41.8926H11.71L0 43.5443Z" fill="#F2F2F2" stroke="black" stroke-width="0.578712"/>
<path d="M54.6465 128.078L66.3565 126.576V124.324L54.6465 125.826V128.078Z" fill="#B2B2B2" stroke="black" stroke-width="0.578712"/>
<path d="M109.852 101.05L138.848 96.3958V94.7441L109.852 98.648V101.05Z" fill="#B2B2B2" stroke="black" stroke-width="0.578712"/>
<path d="M109.852 72.9726L138.848 68.3179V66.8164L109.852 70.7203V72.9726Z" fill="#B2B2B2" stroke="black" stroke-width="0.578712"/>
<path d="M109.852 45.7965L138.848 41.1419V39.4902L109.852 43.5443V45.7965Z" fill="#B2B2B2" stroke="black" stroke-width="0.578712"/>
<path d="M107.063 19.8204L121.004 17.418" stroke="#CC9900" stroke-width="0.578712"/>
<path d="M107.063 32.5823L121.004 30.3301" stroke="#CC9900" stroke-width="0.578712"/>
<path d="M107.063 45.3458L121.004 42.9434" stroke="#CC9900" stroke-width="0.578712"/>
<path d="M107.063 58.1075L121.004 55.7051" stroke="#CC9900" stroke-width="0.578712"/>
<path d="M107.063 10.6605L121.004 8.4082" stroke="#CC9900" stroke-width="0.578712"/>
<path d="M107.063 22.9727L121.004 20.5703" stroke="#CC9900" stroke-width="0.578712"/>
<path d="M107.063 35.7364L121.004 33.334" stroke="#CC9900" stroke-width="0.578712"/>
<path d="M107.063 48.4981L121.004 46.0957" stroke="#CC9900" stroke-width="0.578712"/>
<path d="M107.063 61.2618L121.004 58.8594" stroke="#CC9900" stroke-width="0.578712"/>
<path d="M107.063 13.3633L121.004 10.9609" stroke="#CC9900" stroke-width="0.578712"/>
<path d="M107.063 26.127L121.004 23.7246" stroke="#CC9900" stroke-width="0.578712"/>
<path d="M107.063 38.8887L121.004 36.4863" stroke="#CC9900" stroke-width="0.578712"/>
<path d="M107.063 51.6524L121.004 49.25" stroke="#CC9900" stroke-width="0.578712"/>
<path d="M107.063 64.4141L121.004 62.0117" stroke="#CC9900" stroke-width="0.578712"/>
<path d="M107.063 16.5159L121.004 14.2637" stroke="#CC9900" stroke-width="0.578712"/>
<path d="M107.063 29.2796L121.004 27.0273" stroke="#CC9900" stroke-width="0.578712"/>
<path d="M107.063 42.0411L121.004 39.6387" stroke="#CC9900" stroke-width="0.578712"/>
<path d="M107.063 54.8047L121.004 52.4023" stroke="#CC9900" stroke-width="0.578712"/>
<path d="M107.063 67.5684L121.004 65.166" stroke="#CC9900" stroke-width="0.578712"/>
<path d="M121.004 7.80859V67.5684" stroke="#CC9900" stroke-width="0.578712"/>
<path d="M107.063 69.0684V9.30859" stroke="#CC9900" stroke-width="0.578712"/>
<path d="M0 43.543H109.851V45.7952H0V43.543Z" fill="#CCCCCC" stroke="black" stroke-width="0.578712"/>
<path d="M0 70.7207H109.851V72.973H0V70.7207Z" fill="#CCCCCC" stroke="black" stroke-width="0.578712"/>
<path d="M0 98.6484H109.851V101.051H0V98.6484Z" fill="#CCCCCC" stroke="black" stroke-width="0.578712"/>
<path d="M0 125.826H54.6468V128.078H0V125.826Z" fill="#CCCCCC" stroke="black" stroke-width="0.578712"/>
<path d="M138.848 94.7452V89.3398" stroke="#CC9900" stroke-width="0.578712"/>
<path d="M109.852 93.2437L138.848 89.3398H121.004" stroke="#CC9900" stroke-width="0.578712"/>
<path d="M109.852 96.2459L138.848 92.4922H121.004" stroke="#CC9900" stroke-width="0.578712"/>
<path d="M138.848 66.8175V61.4121" stroke="#CC9900" stroke-width="0.578712"/>
<path d="M109.852 65.1659L138.848 61.4121H121.004" stroke="#CC9900" stroke-width="0.578712"/>
<path d="M109.852 68.318L138.848 64.4141H121.004" stroke="#CC9900" stroke-width="0.578712"/>
<path d="M138.848 39.6395V34.084" stroke="#CC9900" stroke-width="0.578712"/>
<path d="M109.852 37.9879L138.848 34.084H121.004" stroke="#CC9900" stroke-width="0.578712"/>
<path d="M109.852 41.1402L138.848 37.2363H121.004" stroke="#CC9900" stroke-width="0.578712"/>
<path d="M54.6465 125.825V120.42" stroke="#FFCC00" stroke-width="0.578712"/>
<path d="M0 125.825V120.42" stroke="#FFCC00" stroke-width="0.578712"/>
<path d="M66.3569 121.922L54.6468 123.574H0L11.71 121.922" stroke="#FFCC00" stroke-width="0.578712"/>
<path d="M11.71 118.77L0 120.421H54.6468L66.3569 118.77" stroke="#FFCC00" stroke-width="0.578712"/>
<path d="M54.6465 98.6495V93.2441" stroke="#FFCC00" stroke-width="0.578712"/>
<path d="M11.71 91.5918L0 93.2434" stroke="#FFCC00" stroke-width="0.578712"/>
<path d="M0 98.6495V93.2441H109.851V98.6495" stroke="#FFCC00" stroke-width="0.578712"/>
<path d="M109.851 96.2456H0L11.71 94.7441" stroke="#FFCC00" stroke-width="0.578712"/>
<path d="M54.6465 70.7216V65.166" stroke="#FFCC00" stroke-width="0.578712"/>
<path d="M11.71 63.6641L0 65.1656" stroke="#FFCC00" stroke-width="0.578712"/>
<path d="M0 70.7216V65.166H109.851V70.7216" stroke="#FFCC00" stroke-width="0.578712"/>
<path d="M109.851 68.3179H0L11.71 66.8164" stroke="#FFCC00" stroke-width="0.578712"/>
<path d="M54.6465 43.5438V37.9883" stroke="#FFCC00" stroke-width="0.578712"/>
<path d="M11.71 36.4863L0 37.9878" stroke="#FFCC00" stroke-width="0.578712"/>
<path d="M0 43.5438V37.9883H109.851V43.5438" stroke="#FFCC00" stroke-width="0.578712"/>
<path d="M109.851 41.1402H0L11.71 39.6387" stroke="#FFCC00" stroke-width="0.578712"/>
<path d="M57.9922 10.0597V4.6543" stroke="#FFCC00" stroke-width="0.578712"/>
<path d="M69.1449 0L11.71 4.65465" stroke="#FFCC00" stroke-width="0.578712"/>
<path d="M11.71 10.0597V4.6543H103.717V10.0597" stroke="#FFCC00" stroke-width="0.578712"/>
<path d="M103.717 7.80751H11.71L69.1449 2.25195" stroke="#FFCC00" stroke-width="0.578712"/>
<path d="M69.1445 3.75375V0H150V3.75375" stroke="#FFCC00" stroke-width="0.578712"/>
<path d="M109.852 0V3.75375" stroke="#FFCC00" stroke-width="0.578712"/>
<path d="M69.1445 2.25195H150" stroke="#FFCC00" stroke-width="0.578712"/>
<path d="M43.4941 6.60583V1.95117" stroke="#FFCC00" stroke-width="0.578712"/>
<path d="M123.792 7.35736V2.7027L150 0" stroke="#FFCC00" stroke-width="0.578712"/>
<path d="M150 2.25195L123.792 5.55526" stroke="#FFCC00" stroke-width="0.578712"/>
</g>
<defs>
<clipPath id="clip0_2109_169602">
<rect width="150" height="150" fill="white"/>
</clipPath>
</defs>
</svg>
