<svg width="29" height="150" viewBox="0 0 29 150" fill="none" xmlns="http://www.w3.org/2000/svg">
<g clip-path="url(#clip0_2109_170603)">
<path d="M0.177734 136.937L0.711477 140.69L1.9124 143.693L3.24675 145.645L4.49215 146.997L5.87099 148.048L7.38326 148.949L9.02896 149.549L10.7636 149.849L11.3418 150H11.9645L13.7437 149.699L15.4339 149.399L17.0351 148.648L18.5029 147.597L19.8372 146.546L20.9492 145.195L22.2391 143.093L23.2621 140.09L23.6179 137.537V136.937V18.1678L23.0842 14.1138L21.9277 11.1108L20.5934 9.1588L19.3925 7.80745L18.0136 6.60625L16.5458 5.70535L14.9001 5.10475L13.1655 4.80445L12.5428 4.6543H11.9645L10.1409 4.9546L8.45074 5.2549L6.84951 6.00565L5.38172 7.0567L4.04737 8.2579L2.89092 9.60925L1.60105 11.7114L0.578041 14.7144L0.222213 17.4171L0.177734 18.1678V136.937Z" fill="#B2B2B2" stroke="black" stroke-width="0.371719"/>
<path d="M2.62402 136.937L3.02433 140.69L4.22525 144.144L5.33721 146.096L6.71605 147.597L8.31727 148.949L10.0519 149.699L10.986 149.849L11.9645 150L12.8986 149.849L14.6777 149.399L16.3679 148.348L17.8357 146.997L19.0811 145.195L20.4599 141.892L21.1271 138.288L21.216 136.937V18.1678L20.7713 14.1138L19.6148 10.6603L18.4584 8.5582L17.124 7.0567L15.5228 5.70535L13.7881 4.9546L12.8986 4.80445L11.9645 4.6543L10.986 4.80445L9.16237 5.2549L7.51666 6.30595L6.00439 7.80745L4.75899 9.60925L3.33568 12.9126L2.6685 16.6663L2.62402 18.1678V136.937Z" fill="#CCCCCC"/>
<path d="M5.82715 136.937L6.27193 141.892L7.20598 145.195L8.54034 147.597L10.1416 149.399L11.3425 149.849L11.9652 150L12.5434 149.849L14.3225 148.949L15.7903 146.997L16.9913 144.144L17.7474 140.69L17.9698 138.288L18.0143 136.937V18.1678L17.7474 14.1138L16.9913 10.6603L15.7903 7.80745L14.3225 5.70535L12.5434 4.80445L11.9652 4.6543L11.3425 4.80445L9.56334 5.70535L8.05107 7.80745L6.85015 10.6603L6.09402 14.1138L5.82715 16.6663V18.1678V136.937Z" fill="#E5E5E5"/>
<path d="M9.51855 136.937L9.74095 141.892L10.2302 146.096L11.2532 149.399L11.698 149.849L11.9649 150L12.1873 149.849L13.2992 147.597L13.9664 144.144L14.3222 139.489L14.3667 138.288L14.4112 136.937V18.1678L14.1888 12.9126L13.6995 8.5582L12.6765 5.2549L12.1873 4.80445L11.9649 4.6543L11.698 4.80445L10.586 7.0567L9.96334 10.6603L9.60751 15.4651L9.56303 16.6663L9.51855 18.1678V136.937Z" fill="white"/>
<path d="M0 72.6719H13.9663V74.9241H0V72.6719Z" fill="#CCCCCC" stroke="#7F7F7F" stroke-width="0.371719"/>
<path d="M19.5259 0H4.49219V0.3003H19.5259V0Z" fill="#7F7F7F" stroke="black" stroke-width="0.371719"/>
<path d="M19.5259 7.6582H4.49219V8.10865H19.5259V7.6582Z" fill="#7F7F7F" stroke="black" stroke-width="0.371719"/>
<path d="M4.49219 7.65814V0.300781" stroke="black" stroke-width="0.371719"/>
<path d="M7.02734 7.65814V0.300781" stroke="black" stroke-width="0.371719"/>
<path d="M9.42969 7.65814V0.300781" stroke="black" stroke-width="0.371719"/>
<path d="M11.9648 7.65814V0.300781" stroke="black" stroke-width="0.371719"/>
<path d="M14.5 7.65814V0.300781" stroke="black" stroke-width="0.371719"/>
<path d="M17.0352 7.65814V0.300781" stroke="black" stroke-width="0.371719"/>
<path d="M19.5264 0.300781V7.65814" stroke="black" stroke-width="0.371719"/>
<path d="M4.49219 4.05469H19.5259" stroke="black" stroke-width="0.371719"/>
<path d="M0 74.9258H13.9663V75.6765H0V74.9258Z" fill="#7F7F7F" stroke="black" stroke-width="0.371719"/>
<path d="M28.9996 67.418H13.9658V67.8684H28.9996V67.418Z" fill="#7F7F7F" stroke="black" stroke-width="0.371719"/>
<path d="M28.9996 75.2246H13.9658V75.6751H28.9996V75.2246Z" fill="#7F7F7F" stroke="black" stroke-width="0.371719"/>
<path d="M13.9658 75.2245V67.8672" stroke="black" stroke-width="0.371719"/>
<path d="M16.457 75.2245V67.8672" stroke="black" stroke-width="0.371719"/>
<path d="M18.9922 75.2245V67.8672" stroke="black" stroke-width="0.371719"/>
<path d="M21.5273 75.2245V67.8672" stroke="black" stroke-width="0.371719"/>
<path d="M24.0625 75.2245V67.8672" stroke="black" stroke-width="0.371719"/>
<path d="M26.4648 75.2245V67.8672" stroke="black" stroke-width="0.371719"/>
<path d="M29 67.8672V75.2245" stroke="black" stroke-width="0.371719"/>
<path d="M13.9658 71.6211H28.9996" stroke="black" stroke-width="0.371719"/>
</g>
<defs>
<clipPath id="clip0_2109_170603">
<rect width="29" height="150" fill="white"/>
</clipPath>
</defs>
</svg>
