<svg width="100" height="150" viewBox="0 0 100 150" fill="none" xmlns="http://www.w3.org/2000/svg">
<g clip-path="url(#clip0_2109_171520)">
<path d="M45.4648 6.15625H54.5359V150H45.4648V6.15625Z" fill="#BFBFBF"/>
<path d="M45.792 6.15625H54.2073V150H45.792V6.15625Z" fill="#CCCCCC"/>
<path d="M46.9941 6.15625H53.0051V150H46.9941V6.15625Z" fill="#E0E0E0"/>
<path d="M48.415 6.15625H51.4751V150H48.415V6.15625Z" fill="#F2F2F2"/>
<path d="M45.4648 6.15625H54.5359V150H45.4648V6.15625Z" stroke="black" stroke-width="0.313782"/>
<path d="M77.2679 124.925V24.9254L76.0658 21.1716L73.3335 18.4689L70.1641 16.5169L67.3226 15.3157L64.1532 14.2647L60.5466 13.3638L56.8308 12.7632L52.7871 12.4629H51.3663H49.9455L45.7925 12.613L41.8581 12.9133L38.1423 13.6641L34.7543 14.565L31.6942 15.616L28.0876 17.4178L25.3554 19.5199L23.0603 22.9734L22.7324 24.3248V24.9254V124.925L23.9346 128.679L26.6668 131.382L29.8362 133.334L32.6778 134.535L35.8472 135.586L39.3444 136.487L43.1696 137.088L47.2133 137.388H48.6341H49.9455L54.0985 137.238L58.1423 136.937L61.8581 136.187L65.2461 135.286L68.3062 134.235L71.9128 132.433L74.5357 130.331L76.9401 126.877L77.2679 125.526V124.925Z" fill="#BFBFBF"/>
<path d="M74.9727 124.925V24.9254L73.8798 21.1716L71.3661 18.4689L68.5246 16.5169L64.9181 14.8653L61.8579 13.9644L58.5793 13.2136L54.9727 12.613L52.5683 12.4629H51.2569H49.9454L46.2295 12.613L42.5137 12.9133L39.1257 13.6641L36.0656 14.565L32.3497 16.0665L29.2896 17.8683L26.5574 20.571L25.0273 24.3248V24.9254V124.925L26.1202 128.679L28.6339 131.382L31.4754 133.334L35.082 134.985L38.0328 135.886L41.4208 136.637L44.9181 137.238L47.4317 137.388H48.7432H49.9454L53.7705 137.238L57.3771 136.937L60.765 136.187L63.9344 135.286L67.6503 133.784L70.7104 131.982L73.4426 129.28L74.9727 125.526V124.925Z" fill="#CCCCCC"/>
<path d="M68.1972 124.925V24.9254L66.7764 20.1205L64.0442 16.9674L60.1097 14.565L57.0496 13.3638L53.6616 12.613L51.8037 12.4629H49.9458H48.0879L44.5906 12.9133L41.3119 13.9644L38.3611 15.3157L34.9731 17.8683L32.678 21.1716L31.913 23.574L31.8037 24.9254V124.925L33.2245 129.73L35.9567 132.883L39.7819 135.286L42.9513 136.487L46.3392 137.238L48.0879 137.388H49.9458H51.8037L55.4103 136.937L58.689 135.886L61.5305 134.535L65.0278 131.982L67.3228 128.679L68.0879 126.277L68.1972 124.925Z" fill="#E0E0E0"/>
<path d="M59.1254 124.925V24.9254L58.3604 20.1205L56.3931 16.0665L53.5516 13.3638L50.9287 12.4629H49.9451H49.0707L45.6828 13.9644L42.9505 16.9674L41.3112 21.1716L40.874 23.574V24.9254V124.925L41.6391 129.73L43.497 133.784L46.4478 136.487L49.0707 137.388H49.9451H50.9287L54.3166 135.886L57.0489 132.883L58.6882 128.679L59.0161 126.277L59.1254 124.925Z" fill="#F2F2F2"/>
<path d="M77.2679 124.925V24.9254L76.0658 21.1716L73.3335 18.4689L70.1641 16.5169L67.3226 15.3157L64.1532 14.2647L60.5466 13.3638L56.8308 12.7632L52.7871 12.4629H51.3663H49.9455L45.7925 12.613L41.8581 12.9133L38.1423 13.6641L34.7543 14.565L31.6942 15.616L28.0876 17.4178L25.3554 19.5199L23.0603 22.9734L22.7324 24.3248V24.9254V124.925L23.9346 128.679L26.6668 131.382L29.8362 133.334L32.6778 134.535L35.8472 135.586L39.3444 136.487L43.1696 137.088L47.2133 137.388H48.6341H49.9455L54.0985 137.238L58.1423 136.937L61.8581 136.187L65.2461 135.286L68.3062 134.235L71.9127 132.433L74.5357 130.331L76.9401 126.877L77.2679 125.526V124.925Z" stroke="black" stroke-width="0.313782"/>
<path d="M95.5195 106.007V68.6191H100V106.007H95.5195Z" fill="#BFBFBF"/>
<path d="M95.5187 74.9258V100.001H77.2673L71.5843 95.7967L68.1963 87.3882L71.5843 79.13L77.2673 74.9258H95.5187Z" fill="#BFBFBF"/>
<path d="M4.48047 100.001V74.9258H22.7318L28.4149 79.13L31.8029 87.3882L28.4149 95.7967L22.7318 100.001H4.48047Z" fill="#BFBFBF"/>
<path d="M0 106.007V68.6191H4.48087V106.007H0Z" fill="#BFBFBF"/>
<path d="M15.8467 115.465H84.1527V124.924H15.8467V115.465Z" fill="#BFBFBF"/>
<path d="M95.5195 104.504V70.2695H100V104.504H95.5195Z" fill="#CCCCCC"/>
<path d="M95.5187 75.9766V98.9495H77.2673L71.5843 95.0456L68.1963 87.388L71.5843 79.7303L77.2673 75.9766H95.5187Z" fill="#CCCCCC"/>
<path d="M4.48047 98.9495V75.9766H22.7318L28.4149 79.7303L31.8029 87.388L28.4149 95.0456L22.7318 98.9495H4.48047Z" fill="#CCCCCC"/>
<path d="M0 104.504V70.2695H4.48087V104.504H0Z" fill="#CCCCCC"/>
<path d="M18.6885 115.465H81.3114V124.924H18.6885V115.465Z" fill="#CCCCCC"/>
<path d="M95.5195 99.8507V74.9258H100V99.8507H95.5195Z" fill="#E0E0E0"/>
<path d="M95.5187 79.1289V95.7956H77.2673L71.5843 92.9427L68.1963 87.3872L71.5843 81.8316L77.2673 79.1289H95.5187Z" fill="#E0E0E0"/>
<path d="M0 99.8507V74.9258H4.48087V99.8507H0Z" fill="#E0E0E0"/>
<path d="M4.48047 95.7956V79.1289H22.7318L28.4149 81.8316L31.8029 87.3872L28.4149 92.9427L22.7318 95.7956H4.48047Z" fill="#E0E0E0"/>
<path d="M27.2129 115.465H72.7867V124.924H27.2129V115.465Z" fill="#E0E0E0"/>
<path d="M95.5195 93.6946V81.082H100V93.6946H95.5195Z" fill="#F2F2F2"/>
<path d="M95.5187 83.334V91.5922H77.2673L71.5843 90.2409L68.1963 87.388L71.5843 84.6853L77.2673 83.334H95.5187Z" fill="#F2F2F2"/>
<path d="M4.48047 91.5922V83.334H22.7318L28.4149 84.6853L31.8029 87.388L28.4149 90.2409L22.7318 91.5922H4.48047Z" fill="#F2F2F2"/>
<path d="M0 93.6946V81.082H4.48087V93.6946H0Z" fill="#F2F2F2"/>
<path d="M38.5791 115.465H61.4206V124.924H38.5791V115.465Z" fill="#F2F2F2"/>
<path d="M45.4648 6.15616L47.7599 0H59.126L58.4703 2.25225H53.9894L54.5359 6.15616H45.4648Z" fill="#D9D9D9" stroke="black" stroke-width="0.313782"/>
<path d="M48.3057 139.039H56.2838V142.943H48.3057V139.039Z" fill="#B2B2B2" stroke="black" stroke-width="0.313782"/>
<path d="M52.2402 145.195H56.284V149.099H52.2402V145.195Z" fill="#B2B2B2" stroke="black" stroke-width="0.313782"/>
<path d="M48.306 139.039H43.7158V142.943H48.306V139.039Z" fill="#D9D9D9" stroke="black" stroke-width="0.313782"/>
<path d="M52.2404 145.195H43.7158V149.099H52.2404V145.195Z" fill="#D9D9D9" stroke="black" stroke-width="0.313782"/>
<path d="M47.9781 142.793L47.4317 140.841L41.4207 141.291L32.8961 139.039L32.459 137.688L41.4207 139.339L47.9781 138.588L49.6175 137.838L51.0382 138.588L51.694 140.841L51.0382 142.793L49.6175 143.694L47.9781 142.793Z" fill="#7F7F7F" stroke="black" stroke-width="0.313782"/>
<path d="M48.6338 139.789H50.3824V142.191H48.6338V139.789Z" fill="black"/>
<path d="M95.5195 106.007V68.6191H100V106.007H95.5195Z" stroke="black" stroke-width="0.313782"/>
<path d="M95.5187 74.9258V100.001H77.2673L71.5843 95.7967L68.1963 87.3882L71.5843 79.13L77.2673 74.9258H95.5187Z" stroke="black" stroke-width="0.313782"/>
<path d="M4.48047 100.001V74.9258H22.7318L28.4149 79.13L31.8029 87.3882L28.4149 95.7967L22.7318 100.001H4.48047Z" stroke="black" stroke-width="0.313782"/>
<path d="M0 106.007V68.6191H4.48087V106.007H0Z" stroke="black" stroke-width="0.313782"/>
<path d="M15.8467 115.465H84.1527V124.924H15.8467V115.465Z" stroke="black" stroke-width="0.313782"/>
<path d="M15.8467 120.121H84.1527" stroke="black" stroke-width="0.313782"/>
<path d="M20.9834 112.463H26.9943V115.466H20.9834V112.463Z" fill="#BFBFBF" stroke="black" stroke-width="0.313782"/>
<path d="M33.9893 112.463H39.8909V115.466H33.9893V112.463Z" fill="#BFBFBF" stroke="black" stroke-width="0.313782"/>
<path d="M46.9941 112.463H53.0051V115.466H46.9941V112.463Z" fill="#BFBFBF" stroke="black" stroke-width="0.313782"/>
<path d="M60 112.463H66.0109V115.466H60V112.463Z" fill="#BFBFBF" stroke="black" stroke-width="0.313782"/>
<path d="M73.0059 112.463H79.0168V115.466H73.0059V112.463Z" fill="#BFBFBF" stroke="black" stroke-width="0.313782"/>
<path d="M20.9834 124.926H26.9943V128.079H20.9834V124.926Z" fill="#BFBFBF" stroke="black" stroke-width="0.313782"/>
<path d="M33.9893 124.926H39.8909V128.079H33.9893V124.926Z" fill="#BFBFBF" stroke="black" stroke-width="0.313782"/>
<path d="M46.9941 124.926H53.0051V128.079H46.9941V124.926Z" fill="#BFBFBF" stroke="black" stroke-width="0.313782"/>
<path d="M60 124.926H66.0109V128.079H60V124.926Z" fill="#BFBFBF" stroke="black" stroke-width="0.313782"/>
<path d="M73.0059 124.926H79.0168V128.079H73.0059V124.926Z" fill="#BFBFBF" stroke="black" stroke-width="0.313782"/>
</g>
<defs>
<clipPath id="clip0_2109_171520">
<rect width="100" height="150" fill="white"/>
</clipPath>
</defs>
</svg>
