<svg width="150" height="150" viewBox="0 0 150 150" fill="none" xmlns="http://www.w3.org/2000/svg">
<g clip-path="url(#clip0_2109_171576)">
<path d="M37.8838 115.615H111.945V122.973H37.8838V115.615Z" fill="#7A9999"/>
<path d="M44.3682 115.615H105.631V122.973H44.3682V115.615Z" fill="#8EA8A8"/>
<path d="M50.8535 115.615H99.147L98.9764 122.973H50.8535V115.615Z" fill="#A4B8B8"/>
<path d="M57.3379 115.615H92.6621L92.4915 122.973H57.3379V115.615Z" fill="#B5C7C7"/>
<path d="M63.9932 115.615H86.1775V122.973H63.9932V115.615Z" fill="#C9D6D6"/>
<path d="M70.3076 115.615H79.5226V122.973H70.3076V115.615Z" fill="#DDE5E5"/>
<path d="M0.853516 149.099V122.973H149.147V149.099H0.853516Z" fill="#99997A" stroke="black" stroke-width="0.320143"/>
<path d="M15.6992 122.973V38.2888L23.0371 34.9855L15.6992 31.6822L23.0371 28.3789L15.6992 25.2257L23.0371 21.9224L15.6992 18.6191H37.8835V142.643H15.6992L23.0371 139.34L15.6992 136.037L23.0371 132.733L15.6992 129.58L23.0371 126.277L15.6992 122.973Z" fill="#CCCCBD" stroke="black" stroke-width="0.320143"/>
<path d="M134.3 122.973V38.2888L126.792 34.9855L134.3 31.6822L126.792 28.3789L134.3 25.2257L126.792 21.9224L134.3 18.6191H111.945V142.643H134.3L126.792 139.34L134.3 136.037L126.792 132.733L134.3 129.58L126.792 126.277L134.3 122.973Z" fill="#CCCCBD" stroke="black" stroke-width="0.320143"/>
<path d="M37.8838 13.8131V23.5728H111.945V13.8131H104.607L82.423 0.75H67.5766L45.2217 13.8131H37.8838Z" fill="#7F7F99" stroke="black" stroke-width="0.320143"/>
<path d="M37.8838 41.4414H111.945V115.616H37.8838V41.4414Z" fill="#7F7F99" stroke="black" stroke-width="0.320143"/>
<path d="M43.8564 13.8131V23.5728H106.143V13.8131H99.9998L81.2285 0.75H68.7711L50.1704 13.8131H43.8564Z" fill="#9191A8"/>
<path d="M43.8564 41.4414H106.143V115.616H43.8564V41.4414Z" fill="#9191A8"/>
<path d="M46.7578 13.8131V23.5728H103.242V13.8131H97.6111L80.7169 0.75H69.2834L52.3892 13.8131H46.7578Z" fill="#A3A3B5"/>
<path d="M46.7578 41.4414H103.242V115.616H46.7578V41.4414Z" fill="#A3A3B5"/>
<path d="M52.3887 13.8131V23.5728H97.6105V13.8131H93.1737L79.5218 0.75H70.4774L56.8255 13.8131H52.3887Z" fill="#B5B5C4"/>
<path d="M52.3887 41.4414H97.6105V115.616H52.3887V41.4414Z" fill="#B5B5C4"/>
<path d="M60.2393 13.8131V23.5728H89.7614V13.8131H86.8604L77.9867 0.75H72.014L63.1403 13.8131H60.2393Z" fill="#C7C7D1"/>
<path d="M60.2393 41.4414H89.7614V115.616H60.2393V41.4414Z" fill="#C7C7D1"/>
<path d="M70.1367 13.8131V23.5728H79.693V13.8131H78.6691L75.9388 0.75H74.0616L71.1606 13.8131H70.1367Z" fill="#D8D8E0"/>
<path d="M70.1367 41.4414H79.693V115.616H70.1367V41.4414Z" fill="#D8D8E0"/>
<path d="M26.792 142.643V143.393H123.208V142.643H26.792Z" fill="#003333" stroke="black" stroke-width="0.320143"/>
<path d="M26.792 122.973V142.642H123.208V122.973H26.792Z" fill="#597F7F" stroke="black" stroke-width="0.320143"/>
<path d="M26.792 132.732H123.208" stroke="black" stroke-width="0.320143"/>
<path d="M37.8841 142.643L26.792 149.099H123.208L111.946 142.643H37.8841Z" fill="#E5E5DD" stroke="black" stroke-width="0.320143"/>
<path d="M97.2695 144.143V131.23H104.607V144.143H97.2695Z" fill="white" stroke="black" stroke-width="0.320143"/>
<path d="M45.2217 144.143V131.23H52.7302V144.143H45.2217Z" fill="white" stroke="black" stroke-width="0.320143"/>
<path d="M37.8835 18.6193V13.8145H15.6992V18.6193H37.8835Z" fill="#B2B29B" stroke="black" stroke-width="0.320143"/>
<path d="M134.3 18.6193V13.8145H111.945V18.6193H134.3Z" fill="#B2B29B" stroke="black" stroke-width="0.320143"/>
<path d="M37.8838 105.855H41.4674V113.213H37.8838V105.855Z" fill="#BDCCCC" stroke="black" stroke-width="0.320143"/>
<path d="M52.0479 105.855H55.6315V113.213H52.0479V105.855Z" fill="#BDCCCC" stroke="black" stroke-width="0.320143"/>
<path d="M66.041 105.855H69.6246V113.213H66.041V105.855Z" fill="#BDCCCC" stroke="black" stroke-width="0.320143"/>
<path d="M80.2051 105.855H83.7887V113.213H80.2051V105.855Z" fill="#BDCCCC" stroke="black" stroke-width="0.320143"/>
<path d="M94.3682 105.855H97.9518V113.213H94.3682V105.855Z" fill="#BDCCCC" stroke="black" stroke-width="0.320143"/>
<path d="M108.532 105.855H111.945V113.213H108.532V105.855Z" fill="#BDCCCC" stroke="black" stroke-width="0.320143"/>
<path d="M25.7676 103.453H124.061V106.756H25.7676V103.453Z" fill="black"/>
<path d="M37.8838 112.463H112.116V115.616H37.8838V112.463Z" fill="black"/>
<path d="M53.2426 56.1564L56.3143 54.6549L55.461 51.3516H51.7068L50.8535 53.1534L52.9013 54.5047L53.2426 56.1564Z" fill="#E5E5DD" stroke="black" stroke-width="0.320143"/>
<path d="M84.8125 57.9585V61.1117L88.3961 62.0126L90.4439 59.1597L89.0787 57.6582L86.6896 58.5591L84.8125 57.9585Z" fill="#E5E5DD" stroke="black" stroke-width="0.320143"/>
<path d="M71.1605 71.1709L70.3073 69.3691L67.7475 69.6694L67.4062 71.7715L68.7714 72.5223L69.966 71.3211L71.1605 71.1709Z" fill="#E5E5DD" stroke="black" stroke-width="0.320143"/>
<path d="M77.9867 50.1497L75.9389 49.6992L74.915 51.501L76.6215 52.8524L77.8161 52.2518L77.4748 50.9004L77.9867 50.1497Z" fill="#E5E5DD" stroke="black" stroke-width="0.320143"/>
<path d="M84.1299 78.3778L91.1265 77.627L91.6384 74.4739L87.5429 74.0234L84.1299 78.3778Z" fill="#E5E5DD" stroke="black" stroke-width="0.320143"/>
<path d="M59.7265 88.7389L54.9484 84.2344L51.7061 85.7359L53.7538 88.889L59.7265 88.7389Z" fill="#E5E5DD" stroke="black" stroke-width="0.320143"/>
<path d="M46.2461 61.1106L48.8058 60.8103L48.9765 59.6091L47.4406 59.459L46.2461 61.1106Z" fill="#E5E5DD" stroke="black" stroke-width="0.320143"/>
<path d="M91.6387 86.6367L92.4919 90.6908L94.881 90.8409L95.0516 88.4385L91.6387 86.6367Z" fill="#E5E5DD" stroke="black" stroke-width="0.320143"/>
<path d="M108.362 50.9007L109.557 47.2971L107.68 46.2461L106.314 48.198L108.362 50.9007Z" fill="#E5E5DD" stroke="black" stroke-width="0.320143"/>
</g>
<defs>
<clipPath id="clip0_2109_171576">
<rect width="150" height="150" fill="white"/>
</clipPath>
</defs>
</svg>
