<svg width="150" height="150" viewBox="0 0 150 150" fill="none" xmlns="http://www.w3.org/2000/svg">
<g clip-path="url(#clip0_2109_169980)">
<path d="M148.859 18.7681L137.452 15.4648H11.9772L0 18.7681V145.645L7.98479 147.297L21.673 148.498L41.0646 149.549L63.308 149.849H86.692L108.935 149.549L128.327 148.498L142.015 147.297L148.859 145.645V18.7681Z" fill="#CC9933"/>
<path d="M0 2.40234L7.98479 3.15309L21.673 4.20415L41.0646 4.3543L63.308 4.6546H87.8327L108.935 4.3543L128.327 4.20415L142.015 3.15309L150 2.40234" stroke="#CC9900" stroke-width="0.585276"/>
<path d="M0 5.40625L7.98479 6.157L21.673 7.20805L41.0646 7.50835L63.308 7.6585H87.8327L108.935 7.50835L128.327 7.20805L142.015 6.157L150 5.40625" stroke="#CC9900" stroke-width="0.585276"/>
<path d="M148.859 9.45946L150 2.4024L142.015 1.05105L130.608 0.600601L108.935 0H86.692H63.308H41.0646L18.8213 0.600601L7.98479 1.05105L0 2.4024V9.45946" stroke="#FFCC00" stroke-width="0.585276"/>
<path d="M150 5.7049L142.015 4.35354L128.327 3.90309L108.935 3.15234H86.692H63.308H41.0646L21.673 3.90309L7.98479 4.35354L0 5.7049" stroke="#FFCC00" stroke-width="0.585276"/>
<path d="M55.8936 0V7.20721" stroke="#FFCC00" stroke-width="0.585276"/>
<path d="M93.5361 0V7.20721" stroke="#FFCC00" stroke-width="0.585276"/>
<path d="M18.8213 0.601562V7.95892" stroke="#FFCC00" stroke-width="0.585276"/>
<path d="M130.608 0.601562V7.95892" stroke="#FFCC00" stroke-width="0.585276"/>
<path d="M148.859 123.424V145.646L142.015 147.298L128.327 148.499L108.935 149.25L86.692 149.85H62.7376L41.0646 149.25L21.673 148.499L7.98479 147.298L0 145.646V123.424H148.859Z" fill="#7F7F7F"/>
<path d="M150 9.45928L142.015 8.55838L128.327 7.95778L108.935 7.50733L86.692 7.20703H63.308L41.0646 7.50733L21.673 7.95778L7.98479 8.55838L0 9.45928L11.9772 15.4653H137.452L150 9.45928Z" fill="#663333"/>
<path d="M143.156 123.424V146.997L123.764 148.799L107.224 149.25L84.9806 149.85H63.3076L43.3456 149.25L25.665 148.799L6.84375 146.997V123.424H143.156Z" fill="#878787"/>
<path d="M137.453 123.424V147.448L119.202 149.1L103.232 149.55L84.9813 149.85H64.449L46.7684 149.55L30.2285 149.1L13.6886 147.448L11.9775 123.424H137.453Z" fill="#8C8C8C"/>
<path d="M130.608 123.424V148.048L101.521 149.55L83.8403 149.85H65.5893L49.0494 149.55L18.8213 148.048V123.424H130.608Z" fill="#949494"/>
<path d="M124.905 123.424V148.799L97.5282 149.55L82.6993 149.85H67.3001L51.9008 149.55L24.5244 148.799V123.424H124.905Z" fill="#9C9C9C"/>
<path d="M118.061 123.424V148.799L95.2475 149.55L82.1296 149.85H68.4414L54.7532 149.55L31.3691 148.799V123.424H118.061Z" fill="#A3A3A3"/>
<path d="M112.357 123.424V149.25L91.8251 149.55L80.9886 149.85H69.0114L57.6046 149.55L37.0723 149.25V123.424H112.357Z" fill="#A8A8A8"/>
<path d="M105.513 123.424V149.25L79.2772 149.85H70.1518L43.916 149.25V123.424H105.513Z" fill="#B0B0B0"/>
<path d="M100.381 123.424V149.55L79.2779 149.85H71.2931L49.6201 149.55V123.424H100.381Z" fill="#B8B8B8"/>
<path d="M93.5361 123.424V149.55L78.1369 149.85H71.2928L56.4639 149.55V123.424H93.5361Z" fill="#BFBFBF"/>
<path d="M87.8324 123.424V149.85H76.9959H72.4331H62.7373V123.424H87.8324Z" fill="#C4C4C4"/>
<path d="M80.9889 123.424V149.85H75.8559H74.1448H68.4414V123.424H80.9889Z" fill="#CCCCCC"/>
<path d="M143.156 18.7681V125.074L123.764 126.576L107.224 127.477L84.9806 128.077H63.3076L43.3456 127.477L25.665 126.576L6.84375 125.074V18.7681L17.6803 15.4648H131.749L143.156 18.7681Z" fill="#CF9F40"/>
<path d="M137.453 18.7681V125.675L119.202 127.026L103.232 127.777L84.9813 128.077H64.449L46.7684 127.777L30.2285 127.026L13.6886 125.675L11.9775 18.7681L23.9547 15.4648H127.757L137.453 18.7681Z" fill="#D4A952"/>
<path d="M130.608 18.7681V126.276L101.521 127.777L83.8403 128.077H65.5893L49.0494 127.777L18.8213 126.276V18.7681L28.5171 15.4648H121.483L130.608 18.7681Z" fill="#D6AD5E"/>
<path d="M124.905 18.7681V126.576L97.5282 127.777L82.6993 128.077H67.3001L51.9008 127.777L24.5244 126.576V18.7681L34.2202 15.4648H116.92L124.905 18.7681Z" fill="#DBB76D"/>
<path d="M118.061 18.7681V126.876L95.2475 127.777L82.1296 128.077H68.4414L54.7532 127.777L31.3691 126.876V18.7681L38.2132 15.4648H111.217L118.061 18.7681Z" fill="#DEBD7D"/>
<path d="M112.357 18.7681V127.477L91.8251 127.777L80.9886 128.077H69.0114L57.6046 127.777L37.0723 127.477V18.7681L43.9164 15.4648H105.513L112.357 18.7681Z" fill="#E3C78C"/>
<path d="M105.513 18.7681V127.477L79.2772 128.077H70.1518L43.916 127.477V18.7681L49.0491 15.4648H101.521L105.513 18.7681Z" fill="#E5CB9B"/>
<path d="M100.381 18.7681V127.777L79.2779 128.077H71.2931L49.6201 127.777V18.7681L54.7532 15.4648H95.2475L100.381 18.7681Z" fill="#EBD7AB"/>
<path d="M93.5361 18.7681V127.777L78.1369 128.077H71.2928L56.4639 127.777V18.7681L58.7452 15.4648H90.6844L93.5361 18.7681Z" fill="#EDDBB7"/>
<path d="M87.8324 18.7681V128.077H76.9959H72.4331H62.7373V18.7681L64.4483 15.4648H84.9806L87.8324 18.7681Z" fill="#F2E5C9"/>
<path d="M148.859 18.7681L137.452 15.4648H11.9772L0 18.7681V145.645L7.98479 147.297L21.673 148.498L41.0646 149.549L63.308 149.849H86.692L108.935 149.549L128.327 148.498L142.015 147.297L148.859 145.645V18.7681Z" stroke="black" stroke-width="0.585276"/>
<path d="M143.156 9.45928L136.311 8.25808L123.764 7.65748L107.224 7.50733L86.6917 7.20703H64.4483L43.916 7.50733L25.665 7.65748L13.6879 8.25808L6.84375 9.45928L17.6803 15.165H131.749L143.156 9.45928Z" fill="#6B3833"/>
<path d="M136.312 9.30913L130.609 8.25808L119.202 7.65748L103.232 7.50733L84.9812 7.20703H65.5896L46.7683 7.50733L30.2284 7.65748L18.8216 8.25808L13.6885 9.30913L23.9546 15.165H126.616L136.312 9.30913Z" fill="#703D33"/>
<path d="M130.608 9.00883L124.905 7.95778L114.639 7.65748L101.521 7.50733L83.8402 7.20703H67.3003L49.6197 7.50733L35.3611 7.65748L24.5246 7.95778L20.5322 9.00883L29.6577 15.165H120.912L130.608 9.00883Z" fill="#734033"/>
<path d="M123.764 8.55838L119.201 7.95778L110.076 7.50733H97.5282L82.6993 7.20703H67.3L51.9008 7.50733H39.3533L31.3685 7.95778L25.665 8.55838L35.3609 15.165H115.779L123.764 8.55838Z" fill="#784533"/>
<path d="M116.92 8.55838L114.069 7.65748L105.514 7.50733L94.6771 7.20703H82.1295H68.4413H55.8938L45.0573 7.50733L37.0725 7.65748L32.5098 8.55838L39.3539 15.165H110.076L116.92 8.55838Z" fill="#7D4A33"/>
<path d="M111.217 8.25808L107.224 7.65748L101.521 7.50733L91.825 7.20703H80.9885H69.0113H58.7452L49.6197 7.50733L43.3459 7.65748L39.3535 8.25808L45.0569 15.165H104.373L111.217 8.25808Z" fill="#824F33"/>
<path d="M104.372 7.95778L101.52 7.65748L96.3873 7.50733L88.9729 7.20703H79.2771H70.1516H61.5965L54.7524 7.50733L49.0489 7.65748L46.7676 7.95778L50.76 15.165H98.6687L104.372 7.95778Z" fill="#875433"/>
<path d="M97.5287 7.65748L95.2474 7.50733H90.6846L84.9812 7.20703H78.1371H71.293H64.4489L58.7455 7.50733H54.7531L51.9014 7.65748L56.4641 15.165H94.677L97.5287 7.65748Z" fill="#8C5933"/>
<path d="M90.6843 7.65748L89.5436 7.50733L86.6919 7.20703H82.6995H76.9961H72.4333H68.4409H63.3079L60.4561 7.50733L58.7451 7.65748L61.5968 15.165H88.9733L90.6843 7.65748Z" fill="#8F5C33"/>
<path d="M84.9815 7.50733L83.8408 7.20703H82.1298H79.2781H75.856H74.145H70.1526H68.4416H67.3009L65.5898 7.50733L67.3009 15.165H82.7001L84.9815 7.50733Z" fill="#946133"/>
<path d="M78.1371 7.20703H76.9964H75.8557H75.2854H74.1447H72.4337H71.293L72.4337 15.4653H76.9964L78.1371 7.20703Z" fill="#996633"/>
<path d="M150 9.45928L142.015 8.55838L128.327 7.95778L108.935 7.50733L86.692 7.20703H63.308L41.0646 7.50733L21.673 7.95778L7.98479 8.55838L0 9.45928L11.9772 15.4653H137.452L150 9.45928Z" stroke="black" stroke-width="0.585276"/>
<path d="M0 81.832L7.98479 83.0332L21.673 83.6338L41.0646 84.2344H63.308H87.8327H108.935L128.327 83.6338L142.015 83.0332L150 81.832" stroke="#996600" stroke-width="0.585276"/>
<path d="M150 32.582H1.14062" stroke="#996600" stroke-width="0.585276"/>
<path d="M0 123.873L7.98479 125.675L21.673 126.576L41.0646 127.477L63.308 127.777H86.692L108.935 127.477L128.327 126.576L142.015 125.675L150 123.873" stroke="#996600" stroke-width="0.585276"/>
</g>
<defs>
<clipPath id="clip0_2109_169980">
<rect width="150" height="150" fill="white"/>
</clipPath>
</defs>
</svg>
