<svg width="33" height="150" viewBox="0 0 33 150" fill="none" xmlns="http://www.w3.org/2000/svg">
<g clip-path="url(#clip0_2109_170671)">
<path d="M29.1452 147.598L28.991 147.748L24.5191 148.799L18.9677 149.1L17.734 149.25L12.6452 149.1L7.55644 148.799L3.85551 147.748V147.598V53.7542H0.617188V50.7512H3.85551V26.1266H10.1779V1.50195H22.8228V26.1266H29.1452V50.7512H32.2293V53.7542H29.1452V147.598Z" fill="#B2B2B2"/>
<path d="M27.2943 148.349L22.5139 148.949L17.5793 149.099H12.3363L7.55595 148.649L5.85969 148.349V53.754H3.08398V50.6008H5.85969V25.9762H11.1027V1.35156H21.8971V25.9762H27.2943V50.6008H29.9158V53.754H27.2943V148.349Z" fill="#BABABA"/>
<path d="M25.2901 148.649L20.8181 149.099H18.3508H13.1078L8.48166 148.799L7.71064 148.649V53.754H5.55176V50.6008H7.71064V25.9762H12.1826V1.35156H20.9723V25.9762H25.4443V50.6008H27.6032V53.754H25.4443L25.2901 148.649Z" fill="#C4C4C4"/>
<path d="M23.439 148.799L17.8876 149.099H12.6446L9.56052 148.799V53.754H7.86426V50.6008H9.56052V25.9762H13.1072V1.35156H20.0465V25.9762H23.439V50.6008H25.1353V53.754H23.439V148.799Z" fill="#CCCCCC"/>
<path d="M21.589 148.949L18.5049 149.099H13.7246L11.5657 148.949V53.754H10.332V50.6008H11.5657V25.9762H14.033V1.35156H18.9675L19.1218 25.9762H21.589V50.6008H22.8227V53.754H21.589V148.949Z" fill="#D4D4D4"/>
<path d="M19.5838 148.949L17.1165 149.099L13.4156 148.949V53.754H12.6445V50.6008H13.4156V25.9762H14.9576V1.35156H18.1959V25.9762H19.738V50.6008H20.509V53.754H19.738L19.5838 148.949Z" fill="#DEDEDE"/>
<path d="M16.5001 149.25C17.3517 149.25 18.0421 116.175 18.0421 75.3758C18.0421 34.5764 17.3517 1.50195 16.5001 1.50195C15.6484 1.50195 14.958 34.5764 14.958 75.3758C14.958 116.175 15.6484 149.25 16.5001 149.25Z" fill="#F2F2F2"/>
<path d="M3.85547 53.7539H29.1452V56.9071H3.85547V53.7539Z" fill="#7F7F7F"/>
<path d="M3.85547 63.8145H29.1452V65.316H3.85547V63.8145Z" fill="#B2B2B2"/>
<path d="M3.85547 87.6875H29.1452V89.189H3.85547V87.6875Z" fill="#B2B2B2"/>
<path d="M3.85547 110.66H29.1452V112.312H3.85547V110.66Z" fill="#B2B2B2"/>
<path d="M3.85547 135.285H29.1452V136.937H3.85547V135.285Z" fill="#B2B2B2"/>
<path d="M29.1452 147.598L28.991 147.748L24.5191 148.799L18.9677 149.1L17.734 149.25L12.6452 149.1L7.55644 148.799L3.85551 147.748V147.598V53.7542H0.617188V50.7512H3.85551V26.1266H10.1779V1.50195H22.8228V26.1266H29.1452V50.7512H32.2293V53.7542H29.1452V147.598Z" stroke="black" stroke-width="0.648831"/>
<path d="M8.63574 19.0684H24.3647V20.72H8.63574V19.0684Z" fill="#B2B2B2" stroke="black" stroke-width="0.648831"/>
<path d="M8.63574 0.601562H24.3647V1.50246H8.63574V0.601562Z" fill="#B2B2B2" stroke="black" stroke-width="0.648831"/>
<path d="M8.63574 19.9707H24.3647" stroke="black" stroke-width="0.648831"/>
<path d="M3.85547 50.75H29.1452" stroke="black" stroke-width="0.648831"/>
<path d="M3.85547 53.7539H29.1452" stroke="black" stroke-width="0.648831"/>
<path d="M10.1777 26.127H22.8226" stroke="black" stroke-width="0.648831"/>
<path d="M13.2617 3.00391H19.5841V11.4123H13.2617V3.00391Z" fill="#4C4C4C"/>
<path d="M13.2617 11.4123H19.5841V3.00391" stroke="white" stroke-width="0.648831"/>
<path d="M16.4997 47.4466C20.4173 47.4466 23.5932 44.3543 23.5932 40.5397C23.5932 36.7251 20.4173 33.6328 16.4997 33.6328C12.5821 33.6328 9.40625 36.7251 9.40625 40.5397C9.40625 44.3543 12.5821 47.4466 16.4997 47.4466Z" fill="#7F7F7F"/>
<path d="M16.4997 45.1947C20.4173 45.1947 23.5932 42.1023 23.5932 38.2878C23.5932 34.4732 20.4173 31.3809 16.4997 31.3809C12.5821 31.3809 9.40625 34.4732 9.40625 38.2878C9.40625 42.1023 12.5821 45.1947 16.4997 45.1947Z" fill="#E5E5E5" stroke="black" stroke-width="0.648831"/>
<path d="M4.62598 122.973H6.16803L7.09327 123.573L7.86429 125.075L8.48112 127.327L8.63532 130.03L8.48112 132.582L7.86429 134.985L7.09327 136.486L6.16803 136.937H4.62598V122.973Z" fill="#B2B2B2" stroke="black" stroke-width="0.648831"/>
<path d="M4.62656 136.786C5.90404 136.786 6.93964 133.694 6.93964 129.88C6.93964 126.065 5.90404 122.973 4.62656 122.973C3.34908 122.973 2.31348 126.065 2.31348 129.88C2.31348 133.694 3.34908 136.786 4.62656 136.786Z" fill="#E5E5E5" stroke="black" stroke-width="0.648831"/>
<path d="M10.7939 41.741L11.8734 40.9902L12.4902 41.8911L11.565 42.6419L10.7939 41.741Z" fill="#666666"/>
<path d="M13.8789 44.295L14.1873 43.0938L15.421 43.5442L14.9583 44.5953L13.8789 44.295Z" fill="#666666"/>
<path d="M17.8875 44.5953L17.5791 43.5442L18.6585 43.0938L18.967 44.295L17.8875 44.5953Z" fill="#666666"/>
<path d="M21.435 42.6419L20.5098 41.8911L21.1266 40.9902L22.0518 41.741L21.435 42.6419Z" fill="#666666"/>
<path d="M22.9769 38.8889L21.8975 39.0391V37.8379H22.9769V38.8889Z" fill="#666666"/>
<path d="M22.0518 35.135L21.1266 35.7356L20.5098 34.8347L21.435 34.084L22.0518 35.135Z" fill="#666666"/>
<path d="M18.967 32.4331L18.6585 33.6343L17.5791 33.334L17.8875 32.1328L18.967 32.4331Z" fill="#666666"/>
<path d="M14.9583 32.1328L15.421 33.334L14.1873 33.6343L13.8789 32.4331L14.9583 32.1328Z" fill="#666666"/>
<path d="M11.565 34.084L12.4902 34.8347L11.8734 35.7356L10.7939 35.135L11.565 34.084Z" fill="#666666"/>
<path d="M9.86914 37.8379H11.1028V38.8889H9.86914V37.8379Z" fill="#666666"/>
<path d="M3.85547 28.3789H29.1452" stroke="black" stroke-width="0.648831"/>
<path d="M16.0371 30.6315H16.9623V26.127H16.0371V30.6315Z" fill="#E5E5E5" stroke="black" stroke-width="0.648831"/>
<path d="M7.71002 59.1586L6.16797 56.9063L7.71002 54.5039V59.1586Z" fill="#E5E5E5" stroke="black" stroke-width="0.648831"/>
<path d="M25.1357 59.1586L26.6778 56.9063L25.1357 54.5039V59.1586Z" fill="#E5E5E5" stroke="black" stroke-width="0.648831"/>
</g>
<defs>
<clipPath id="clip0_2109_170671">
<rect width="33" height="150" fill="white"/>
</clipPath>
</defs>
</svg>
