<svg width="150" height="150" viewBox="0 0 150 150" fill="none" xmlns="http://www.w3.org/2000/svg">
<g clip-path="url(#clip0_2109_170489)">
<path d="M66.6671 37.6882C71.2047 37.6882 74.8831 35.3354 74.8831 32.433C74.8831 29.5306 71.2047 27.1777 66.6671 27.1777C62.1296 27.1777 58.4512 29.5306 58.4512 32.433C58.4512 35.3354 62.1296 37.6882 66.6671 37.6882Z" fill="#666666" stroke="black" stroke-width="0.375481"/>
<path d="M116.666 9.1582H107.746V15.1642H116.666V9.1582Z" fill="#999999"/>
<path d="M115.259 9.1582H109.155V15.1642H115.259V9.1582Z" fill="#B2B2B2"/>
<path d="M113.85 9.1582H110.563V15.1642H113.85V9.1582Z" fill="#CCCCCC"/>
<path d="M117.136 15.1642V9.1582H107.746V15.1642H117.136Z" stroke="black" stroke-width="0.375481"/>
<path d="M42.0186 9.1582H32.6289V15.1642H42.0186V9.1582Z" fill="#999999"/>
<path d="M40.1404 9.1582H34.0371V15.1642H40.1404V9.1582Z" fill="#B2B2B2"/>
<path d="M38.7329 9.1582H35.916V15.1642H38.7329V9.1582Z" fill="#CCCCCC"/>
<path d="M42.0186 15.1642V9.1582H32.6289V15.1642H42.0186Z" stroke="black" stroke-width="0.375481"/>
<path d="M79.5772 9.1582H70.1875V36.1852H79.5772V9.1582Z" fill="#999999" stroke="black" stroke-width="0.375481"/>
<path d="M77.699 9.1582H71.5957V36.1852H77.699V9.1582Z" fill="#B2B2B2"/>
<path d="M76.2915 9.1582H73.4746V36.1852H76.2915V9.1582Z" fill="#CCCCCC"/>
<path d="M23.2393 119.971H126.526V137.989H23.2393V119.971Z" fill="#666666" stroke="black" stroke-width="0.375481"/>
<path d="M131.221 18.1686V125.976H93.6621V18.1686L99.2959 15.0154L106.808 13.9644L110.564 13.6641L118.075 13.9644L124.413 14.8653L130.282 16.9674L131.221 18.1686Z" fill="#B2B2B2"/>
<path d="M126.525 18.1686V125.976H98.3564V18.1686L98.5912 17.2677L99.2954 16.5169L100.704 15.7662L102.347 15.0154L104.46 14.565L106.807 14.1145L109.624 13.8142L112.441 13.6641L115.258 13.8142L117.84 14.1145L120.187 14.565L122.3 15.0154L124.178 15.7662L125.352 16.5169L126.291 17.2677L126.525 18.1686Z" fill="#CCCCCC"/>
<path d="M119.484 18.1686V125.976H105.399V18.1686V17.2677L105.869 16.5169L106.573 15.7662L107.277 15.0154L108.216 14.565L109.625 14.1145L111.033 13.8142L112.442 13.6641L113.85 13.8142L115.259 14.1145L116.198 14.565L117.371 15.0154L118.31 15.7662L119.014 16.5169L119.249 17.2677L119.484 18.1686Z" fill="#E5E5E5"/>
<path d="M131.221 18.1686V125.976H93.6621V18.1686L99.2959 15.0154L106.808 13.9644L110.564 13.6641L118.075 13.9644L124.413 14.8653L130.282 16.9674L131.221 18.1686Z" stroke="black" stroke-width="0.375481"/>
<path d="M56.1036 18.1686V125.976H18.5449V18.1686L24.1787 15.0154L31.9252 13.9644L35.4463 13.6641L42.9581 13.9644L49.2961 14.8653L55.3994 16.9674L56.1036 18.1686Z" fill="#B2B2B2"/>
<path d="M51.4083 18.1686V125.976H23.2393V18.1686L23.7087 17.2677L24.413 16.5169L25.5867 15.7662L27.4646 15.0154L29.3425 14.565L31.9247 14.1145L34.5069 13.8142L37.3238 13.6641L40.3754 13.8142L42.9576 14.1145L45.305 14.565L47.4177 15.0154L49.0609 15.7662L50.4693 16.5169L51.1735 17.2677L51.4083 18.1686Z" fill="#CCCCCC"/>
<path d="M44.3658 18.1686V125.976H30.2812V18.1686L30.516 17.2677L30.9855 16.5169L31.6897 15.7662L32.6287 15.0154L33.5676 14.565L34.7413 14.1145L35.9151 13.8142L37.3235 13.6641L38.732 13.8142L40.1404 14.1145L41.3141 14.565L42.4878 15.0154L43.192 15.7662L43.8963 16.5169L44.3658 17.2677V18.1686Z" fill="#E5E5E5"/>
<path d="M56.1036 18.1686V125.976H18.5449V18.1686L24.1787 15.0154L31.9252 13.9644L35.4463 13.6641L42.9581 13.9644L49.2961 14.8653L55.3994 16.9674L56.1036 18.1686Z" stroke="black" stroke-width="0.375481"/>
<path d="M9.15527 101.951H18.5449V137.987H9.15527V101.951Z" fill="#B2B2B2" stroke="black" stroke-width="0.375481"/>
<path d="M131.221 101.951H140.141V137.987H131.221V101.951Z" fill="#B2B2B2" stroke="black" stroke-width="0.375481"/>
<path d="M9.15527 140.99H140.141V143.993H9.15527V140.99Z" fill="#4C4C4C" stroke="black" stroke-width="0.375481"/>
<path d="M46.7139 36.1855H103.052V81.2306H46.7139V36.1855Z" fill="white" stroke="black" stroke-width="0.375481"/>
<path d="M53.7559 42.1914H96.0094V70.7199H53.7559V42.1914Z" fill="#4C4C4C" stroke="black" stroke-width="0.375481"/>
<path d="M121.831 9.15925V6.15625H27.9346V9.15925H121.831Z" fill="#999999"/>
<path d="M121.831 8.55766V6.75586H27.9346V8.55766H121.831Z" fill="#B2B2B2"/>
<path d="M121.831 8.25832V7.35742H27.9346V8.25832H121.831Z" fill="#CCCCCC"/>
<path d="M27.9346 9.15925H121.831V6.15625H27.9346V9.15925Z" stroke="black" stroke-width="0.375481"/>
<path d="M32.6289 73.7246H39.6712V79.7306H32.6289V73.7246Z" fill="white" stroke="black" stroke-width="0.375481"/>
<path d="M44.3662 127.477H105.399V136.486H44.3662V127.477Z" fill="#999999" stroke="black" stroke-width="0.375481"/>
<path d="M44.3662 128.979H105.399V134.985H44.3662V128.979Z" fill="#B2B2B2"/>
<path d="M44.3662 130.48H105.399V133.483H44.3662V130.48Z" fill="#CCCCCC"/>
<path d="M32.6294 136.486H44.3665V127.477H32.6294H31.9252L30.9862 127.927L30.282 128.377L29.5778 129.128L28.8735 129.879L28.4041 130.63L28.1693 131.38L27.9346 131.981L28.1693 132.582L28.4041 133.332L28.8735 134.083L29.5778 134.834L30.282 135.435L30.9862 135.885L31.9252 136.335L32.6294 136.486Z" fill="white" stroke="black" stroke-width="0.375481"/>
<path d="M117.137 136.486H105.399V127.477H117.137H118.075L118.78 127.927L119.719 128.377L120.423 129.128L120.892 129.879L121.362 130.63L121.831 131.38V131.981V132.582L121.362 133.332L120.892 134.083L120.423 134.834L119.719 135.435L118.78 135.885L118.075 136.335L117.137 136.486Z" fill="white" stroke="black" stroke-width="0.375481"/>
<path d="M81.9253 127.478V104.955H67.8408V127.478L68.0756 128.379L68.545 129.129L69.0145 129.88L69.9535 130.481L71.1272 131.081L72.3009 131.532L73.4746 131.832L74.8831 131.982L76.2915 131.832L77.7 131.532L78.8737 131.081L79.8127 130.481L80.7516 129.88L81.4558 129.129L81.6906 128.379L81.9253 127.478Z" fill="#999999" stroke="black" stroke-width="0.375481"/>
<path d="M79.5772 127.478V104.955H70.1875V127.478L70.4222 128.379L70.657 129.129L70.8917 129.88L71.596 130.481L72.3002 131.081L73.0044 131.532L73.9434 131.832L74.8823 131.982L75.8213 131.832L76.5255 131.532L77.4645 131.081L78.1687 130.481L78.8729 129.88L79.3424 129.129L79.5772 128.379V127.478Z" fill="#B2B2B2"/>
<path d="M77.23 127.478V104.955H72.5352V127.478V128.379L72.7699 129.129L73.0046 129.88L73.2394 130.481L73.4741 131.081L73.9436 131.532L74.4131 131.832L74.8826 131.982L75.3521 131.832L75.8215 131.532L76.291 131.081L76.5258 130.481L76.9953 129.88V129.129L77.23 128.379V127.478Z" fill="#CCCCCC"/>
<path d="M53.7559 76.7266H96.0094V104.955H53.7559V76.7266Z" fill="#4C4C4C" stroke="black" stroke-width="0.375481"/>
<path d="M77.2305 81.2305H91.315V91.4407H77.2305V81.2305Z" fill="#7F7F7F" stroke="black" stroke-width="0.375481"/>
<path d="M56.1035 78.2285H63.1458V84.2345H56.1035V78.2285Z" fill="white" stroke="black" stroke-width="0.375481"/>
<path d="M0 150L2.11268 148.499H4.46009V133.484H2.11268L0 131.982H9.15493V150H0Z" fill="#4C4C4C" stroke="black" stroke-width="0.375481"/>
<path d="M150 131.982L147.653 133.484H145.305V148.499H147.653L150 150H140.61V131.982H150Z" fill="#4C4C4C" stroke="black" stroke-width="0.375481"/>
<path d="M56.1035 78.2285H63.1458V79.73H56.1035V78.2285Z" fill="#7F0000" stroke="black" stroke-width="0.375481"/>
<path d="M32.6289 73.7246H39.6712V75.2261H32.6289V73.7246Z" fill="#7F0000" stroke="black" stroke-width="0.375481"/>
<path d="M56.1035 63.2129H63.1458V69.2189H56.1035V63.2129Z" fill="white" stroke="black" stroke-width="0.375481"/>
<path d="M56.1035 63.2129H63.1458V64.7144H56.1035V63.2129Z" fill="#7F0000" stroke="black" stroke-width="0.375481"/>
<path d="M110.094 73.7246H117.136V79.7306H110.094V73.7246Z" fill="white" stroke="black" stroke-width="0.375481"/>
<path d="M110.094 73.7246H117.136V75.2261H110.094V73.7246Z" fill="#7F0000" stroke="black" stroke-width="0.375481"/>
<path d="M111.033 2.55273H112.442V60.811H111.033V2.55273Z" fill="#666666" stroke="black" stroke-width="0.375481"/>
<path d="M111.033 60.8115H96.0098V60.2109H111.033V60.8115Z" fill="#666666" stroke="black" stroke-width="0.375481"/>
<path d="M111.033 58.7095H96.0098V57.8086H111.033V58.7095Z" fill="#666666" stroke="black" stroke-width="0.375481"/>
<path d="M111.033 55.7056H96.0098V54.8047H111.033V55.7056Z" fill="#666666" stroke="black" stroke-width="0.375481"/>
<path d="M111.033 3.15333H48.1221V2.55273H111.033V3.15333Z" fill="#666666" stroke="black" stroke-width="0.375481"/>
<path d="M48.1221 3.15234H49.061V6.15535H48.1221V3.15234Z" fill="#666666" stroke="black" stroke-width="0.375481"/>
<path d="M117.136 30.1802H32.6289V29.2793H117.136V30.1802Z" fill="#666666" stroke="black" stroke-width="0.375481"/>
<path d="M115.728 30.1797H117.136V39.1887H115.728V30.1797Z" fill="#666666" stroke="black" stroke-width="0.375481"/>
<path d="M32.6289 30.1797H34.0374V39.1887H32.6289V30.1797Z" fill="#666666" stroke="black" stroke-width="0.375481"/>
<path d="M57.0422 0L60.3286 1.95195L55.1643 5.25526L51.8779 3.15315L57.0422 0Z" fill="#B2B2B2" stroke="black" stroke-width="0.375481"/>
<path d="M65.4932 1.95195L68.7795 0L73.4744 3.15315L70.188 5.25526L65.4932 1.95195Z" fill="#B2B2B2" stroke="black" stroke-width="0.375481"/>
</g>
<defs>
<clipPath id="clip0_2109_170489">
<rect width="150" height="150" fill="white"/>
</clipPath>
</defs>
</svg>
