<svg width="61" height="150" viewBox="0 0 61 150" fill="none" xmlns="http://www.w3.org/2000/svg">
<g clip-path="url(#clip0_2109_171625)">
<path d="M60.878 12.4625L59.536 8.70871L56.486 6.00601L52.948 4.05405L49.776 2.85285L46.238 1.8018L42.212 0.900901L38.064 0.3003L33.55 0H31.964H30.378H25.864L21.472 0.45045L17.324 1.2012L13.42 2.1021L10.004 3.15315L6.1 4.95496L2.928 7.05706L0.488 10.0601L0 11.8619V12.4625V125.075L25.498 150H35.502L60.878 125.075V12.4625Z" fill="#669999" stroke="black" stroke-width="0.424476"/>
<path d="M0 21.7715H5.734V34.0838H0V21.7715Z" fill="#E5E5E5"/>
<path d="M9.39355 21.7715H17.2016V34.0838H9.39355V21.7715Z" fill="#E5E5E5"/>
<path d="M20.8623 21.7715H28.6703V34.0838H20.8623V21.7715Z" fill="#E5E5E5"/>
<path d="M32.3301 21.7715H40.1381V34.0838H32.3301V21.7715Z" fill="#E5E5E5"/>
<path d="M43.7979 21.7715H51.3619V34.0838H43.7979V21.7715Z" fill="#E5E5E5"/>
<path d="M55.2656 21.7715H60.8776V34.0838H55.2656V21.7715Z" fill="#E5E5E5"/>
<path d="M0 33.7832H5.734V46.2457H0V33.7832Z" fill="#D6D6D6"/>
<path d="M9.51562 33.7832H17.2016V46.2457H9.51562V33.7832Z" fill="#D6D6D6"/>
<path d="M20.9844 33.7832H28.6704V46.2457H20.9844V33.7832Z" fill="#D6D6D6"/>
<path d="M32.4521 33.7832H40.1381V46.2457H32.4521V33.7832Z" fill="#D6D6D6"/>
<path d="M43.7979 33.7832H51.4839V46.2457H43.7979V33.7832Z" fill="#D6D6D6"/>
<path d="M55.2656 33.7832H60.9996V46.2457H55.2656V33.7832Z" fill="#D6D6D6"/>
<path d="M0 45.7949H5.734V58.2574H0V45.7949Z" fill="#C9C9C9"/>
<path d="M9.51562 45.7949H17.2016V58.2574H9.51562V45.7949Z" fill="#C9C9C9"/>
<path d="M20.9844 45.7949H28.6704V58.2574H20.9844V45.7949Z" fill="#C9C9C9"/>
<path d="M32.4521 45.7949H40.1381V58.2574H32.4521V45.7949Z" fill="#C9C9C9"/>
<path d="M43.7979 45.7949H51.4839V58.2574H43.7979V45.7949Z" fill="#C9C9C9"/>
<path d="M55.2656 45.7949H60.9996V58.2574H55.2656V45.7949Z" fill="#C9C9C9"/>
<path d="M0 57.8086H5.734V70.4212H0V57.8086Z" fill="#BABABA"/>
<path d="M9.51562 57.8086H17.2016V70.4212H9.51562V57.8086Z" fill="#BABABA"/>
<path d="M20.9844 57.8086H28.6704V70.4212H20.9844V57.8086Z" fill="#BABABA"/>
<path d="M32.4521 57.8086H40.1381V70.4212H32.4521V57.8086Z" fill="#BABABA"/>
<path d="M43.7979 57.8086H51.4839V70.4212H43.7979V57.8086Z" fill="#BABABA"/>
<path d="M55.2656 57.8086H60.9996V70.4212H55.2656V57.8086Z" fill="#BABABA"/>
<path d="M0 69.9707H5.734V82.4332H0V69.9707Z" fill="#ABABAB"/>
<path d="M9.51562 69.9707H17.2016V82.4332H9.51562V69.9707Z" fill="#ABABAB"/>
<path d="M20.9844 69.9707H28.6704V82.4332H20.9844V69.9707Z" fill="#ABABAB"/>
<path d="M32.4521 69.9707H40.1381V82.4332H32.4521V69.9707Z" fill="#ABABAB"/>
<path d="M43.7979 69.9707H51.4839V82.4332H43.7979V69.9707Z" fill="#ABABAB"/>
<path d="M55.2656 69.9707H60.9996V82.4332H55.2656V69.9707Z" fill="#ABABAB"/>
<path d="M0 81.9824H5.734V94.595H0V81.9824Z" fill="#9C9C9C"/>
<path d="M9.51562 81.9824H17.2016V94.595H9.51562V81.9824Z" fill="#9C9C9C"/>
<path d="M20.9844 81.9824H28.6704V94.595H20.9844V81.9824Z" fill="#9C9C9C"/>
<path d="M32.4521 81.9824H40.1381V94.595H32.4521V81.9824Z" fill="#9C9C9C"/>
<path d="M43.7979 81.9824H51.4839V94.595H43.7979V81.9824Z" fill="#9C9C9C"/>
<path d="M55.2656 81.9824H60.9996V94.595H55.2656V81.9824Z" fill="#9C9C9C"/>
<path d="M0 94.1445H5.734V106.607H0V94.1445Z" fill="#8F8F8F"/>
<path d="M9.51562 94.1445H17.2016V106.607H9.51562V94.1445Z" fill="#8F8F8F"/>
<path d="M20.9844 94.1445H28.6704V106.607H20.9844V94.1445Z" fill="#8F8F8F"/>
<path d="M32.4521 94.1445H40.1381V106.607H32.4521V94.1445Z" fill="#8F8F8F"/>
<path d="M43.7979 94.1445H51.4839V106.607H43.7979V94.1445Z" fill="#8F8F8F"/>
<path d="M55.2656 94.1445H60.9996V106.607H55.2656V94.1445Z" fill="#8F8F8F"/>
<path d="M0 106.156H5.734V118.769H0V106.156Z" fill="#7F7F7F"/>
<path d="M9.39355 106.156H17.2016V118.769H9.39355V106.156Z" fill="#7F7F7F"/>
<path d="M20.8623 106.156H28.6703V118.769H20.8623V106.156Z" fill="#7F7F7F"/>
<path d="M32.3301 106.156H40.1381V118.769H32.3301V106.156Z" fill="#7F7F7F"/>
<path d="M43.7979 106.156H51.3619V118.769H43.7979V106.156Z" fill="#7F7F7F"/>
<path d="M55.2656 106.156H60.8776V118.769H55.2656V106.156Z" fill="#7F7F7F"/>
<path d="M0 118.77V125.076L25.498 150.001H35.502L60.878 125.076V118.77H0Z" fill="#666666"/>
<path d="M0 118.77V125.076L6.954 131.983H54.046L60.878 125.076V118.77H0Z" fill="#737373"/>
<path d="M60.878 21.4707H55.266V118.768H51.362V21.4707H43.798V118.768H39.894V21.4707H32.33V118.768H28.67V21.4707H21.106V118.768H17.202V21.4707H9.394V118.768H5.734V21.4707H0V125.074L25.498 149.999H35.502L60.878 125.074V21.4707Z" stroke="black" stroke-width="0.424476"/>
</g>
<defs>
<clipPath id="clip0_2109_171625">
<rect width="61" height="150" fill="white"/>
</clipPath>
</defs>
</svg>
