<svg width="150" height="150" viewBox="0 0 150 150" fill="none" xmlns="http://www.w3.org/2000/svg">
<g clip-path="url(#clip0_2109_171398)">
<path d="M81.0811 29.9991V8.94141H93.6937V29.9991H81.0811Z" fill="black"/>
<path d="M84.2344 0V7.5H85.886V8.94231H88.889V7.5H90.5407V0H84.2344Z" fill="black"/>
<path d="M49.8496 102.115H143.693V105H49.8496V102.115Z" fill="black"/>
<path d="M1.95195 77.308L0.45045 76.1541L0 73.2695L0.45045 70.6734L1.95195 69.5195H45.9459V77.308H1.95195Z" fill="#CCCCCC" stroke="black" stroke-width="0.416233"/>
<path d="M39.79 70.3846L46.8471 60H48.3486L41.2915 70.3846H39.79Z" fill="#E5E5E5" stroke="black" stroke-width="0.416233"/>
<path d="M2.25224 76.4425L1.05104 75.5771L0.600586 73.2694L1.05104 71.2502L2.25224 70.3848H45.1952V76.4425H2.25224Z" fill="black"/>
<path d="M49.8495 102.115V77.8846H43.6934L49.8495 30H143.693L150 77.8846H143.693V102.115H49.8495Z" fill="#E5E5E5"/>
<path d="M49.8496 101.539H143.693V77.8855H150L145.195 43.5586L49.8496 81.0586V101.539Z" fill="#DEDEDE"/>
<path d="M49.8496 101.538H143.693V77.8839H150L146.096 49.3262L49.8496 88.2685V101.538Z" fill="#D4D4D4"/>
<path d="M49.8496 102.115H143.693V77.8846H150L147.597 60L49.8496 98.9423V102.115Z" fill="#CCCCCC"/>
<path d="M49.8495 102.115V77.8846H43.6934L49.8495 30H143.693L150 77.8846H143.693V102.115H49.8495Z" stroke="black" stroke-width="0.416233"/>
<path d="M53.0029 71.8262V96.0569H140.54V71.8262" stroke="#999999" stroke-width="0.416233"/>
<path d="M55.4053 91.4414H56.9068" stroke="black" stroke-width="0.416233"/>
<path d="M67.8682 91.4414H69.3697" stroke="black" stroke-width="0.416233"/>
<path d="M80.3301 91.4414H81.8316" stroke="black" stroke-width="0.416233"/>
<path d="M92.793 91.4414H94.4446" stroke="black" stroke-width="0.416233"/>
<path d="M105.405 91.4414H106.907" stroke="black" stroke-width="0.416233"/>
<path d="M117.868 91.4414H119.37" stroke="black" stroke-width="0.416233"/>
<path d="M130.33 91.4414H131.982" stroke="black" stroke-width="0.416233"/>
<path d="M58.5586 91.4414H60.0601" stroke="black" stroke-width="0.416233"/>
<path d="M71.0215 91.4414H72.523" stroke="black" stroke-width="0.416233"/>
<path d="M83.4834 91.4414H84.9849" stroke="black" stroke-width="0.416233"/>
<path d="M95.9463 91.4414H97.5979" stroke="black" stroke-width="0.416233"/>
<path d="M108.559 91.4414H110.06" stroke="black" stroke-width="0.416233"/>
<path d="M121.021 91.4414H122.523" stroke="black" stroke-width="0.416233"/>
<path d="M133.483 91.4414H135.135" stroke="black" stroke-width="0.416233"/>
<path d="M61.5615 91.4414H63.2132" stroke="black" stroke-width="0.416233"/>
<path d="M74.1738 91.4414H75.6753" stroke="black" stroke-width="0.416233"/>
<path d="M86.6367 91.4414H88.1382" stroke="black" stroke-width="0.416233"/>
<path d="M99.0986 91.4414H100.6" stroke="black" stroke-width="0.416233"/>
<path d="M111.562 91.4414H113.213" stroke="black" stroke-width="0.416233"/>
<path d="M124.174 91.4414H125.675" stroke="black" stroke-width="0.416233"/>
<path d="M136.637 91.4414H138.138" stroke="black" stroke-width="0.416233"/>
<path d="M64.7148 91.4414H66.3665" stroke="black" stroke-width="0.416233"/>
<path d="M77.1768 91.4414H78.8284" stroke="black" stroke-width="0.416233"/>
<path d="M89.79 91.4414H91.2915" stroke="black" stroke-width="0.416233"/>
<path d="M102.252 91.4414H103.753" stroke="black" stroke-width="0.416233"/>
<path d="M114.715 91.4414H116.366" stroke="black" stroke-width="0.416233"/>
<path d="M127.327 91.4414H128.829" stroke="black" stroke-width="0.416233"/>
<path d="M51.502 102.115L52.2527 141.058H55.4059L56.1566 102.115H51.502Z" fill="#4C4C4C"/>
<path d="M138.138 102.115L139.039 141.058H142.042L142.943 102.115H138.138Z" fill="#4C4C4C"/>
<path d="M51.502 145.386L52.1026 142.212L53.7542 141.059L55.556 142.212L56.1566 145.386L55.556 148.847L53.7542 150.001L52.1026 148.847L51.502 145.386Z" fill="black"/>
<path d="M138.138 145.386L138.888 142.212L140.54 141.059L142.192 142.212L142.943 145.386L142.192 148.847L140.54 150.001L138.888 148.847L138.138 145.386Z" fill="black"/>
<path d="M96.8467 96.0577V30" stroke="#B2B2B2" stroke-width="0.416233"/>
<path d="M74.9248 71.8262H118.618V81.0569H74.9248V71.8262Z" fill="white" stroke="black" stroke-width="0.416233"/>
<path d="M74.9248 73.2695H112.462V79.6157H74.9248V73.2695Z" fill="black"/>
<path d="M71.7714 73.2695H65.6152V79.6157H71.7714V73.2695Z" fill="black"/>
<path d="M65.6152 76.4414H112.462" stroke="white" stroke-width="0.416233"/>
<path d="M44.4443 71.8262H53.0029" stroke="white" stroke-width="0.416233"/>
<path d="M140.541 71.8262H149.1" stroke="white" stroke-width="0.416233"/>
<path d="M53.0029 96.0586H140.54" stroke="white" stroke-width="0.416233"/>
<path d="M87.3877 30.0001V17.8848H106.156V30.0001H87.3877Z" fill="#4C4C4C" stroke="black" stroke-width="0.416233"/>
<path d="M101.502 19.3262V28.2685" stroke="#CCCCCC" stroke-width="0.416233"/>
<path d="M98.3486 19.3262V28.2685" stroke="#CCCCCC" stroke-width="0.416233"/>
<path d="M88.1377 19.3262H94.444" stroke="#CCCCCC" stroke-width="0.416233"/>
<path d="M88.1377 20.7695H94.444" stroke="#CCCCCC" stroke-width="0.416233"/>
<path d="M88.1377 23.9414H94.444" stroke="#CCCCCC" stroke-width="0.416233"/>
<path d="M88.1377 28.2695H94.444" stroke="#CCCCCC" stroke-width="0.416233"/>
<path d="M95.1953 19.3262H97.5977" stroke="#CCCCCC" stroke-width="0.416233"/>
<path d="M95.1953 20.7695H97.5977" stroke="#CCCCCC" stroke-width="0.416233"/>
<path d="M95.1953 22.5H97.5977" stroke="#CCCCCC" stroke-width="0.416233"/>
<path d="M95.1953 26.8262H97.5977" stroke="#CCCCCC" stroke-width="0.416233"/>
<path d="M103.003 19.3262H105.405" stroke="#CCCCCC" stroke-width="0.416233"/>
<path d="M103.003 20.7695H105.405" stroke="#CCCCCC" stroke-width="0.416233"/>
<path d="M103.003 22.2109H105.405" stroke="#CCCCCC" stroke-width="0.416233"/>
<path d="M103.003 23.6543H105.405" stroke="#CCCCCC" stroke-width="0.416233"/>
<path d="M103.003 26.8262H105.405" stroke="#CCCCCC" stroke-width="0.416233"/>
<path d="M103.003 28.2695H105.405" stroke="#CCCCCC" stroke-width="0.416233"/>
<path d="M78.0781 23.6538V15H81.0811V23.6538H78.0781Z" fill="#7F7F7F"/>
<path d="M78.0781 22.5005V16.1543H81.0811V22.5005H78.0781Z" fill="#B2B2B2"/>
<path d="M78.0781 20.7694V17.8848H81.0811V20.7694H78.0781Z" fill="#E5E5E5"/>
<path d="M78.0781 23.6538V15H81.0811V23.6538H78.0781Z" stroke="black" stroke-width="0.416233"/>
</g>
<defs>
<clipPath id="clip0_2109_171398">
<rect width="150" height="150" fill="white"/>
</clipPath>
</defs>
</svg>
