<svg width="23" height="150" viewBox="0 0 23 150" fill="none" xmlns="http://www.w3.org/2000/svg">
<g clip-path="url(#clip0_2109_169927)">
<path d="M12.7468 7.50751L13.301 9.15916H13.7166L14.4094 7.80781L15.1022 6.15616L15.3793 5.55556L15.6564 7.20721L15.9335 8.70871V10.6607L15.795 12.012V13.0631H15.9335L16.7648 11.2613L17.7347 10.2102L18.8432 9.15916L19.5359 8.25826L20.5058 6.90691L20.3672 7.65766L20.0901 9.00901L19.9516 10.6607L19.6745 12.3123L19.2588 13.8138L18.7046 15.7658L18.566 16.6667H4.43351L3.60219 14.8649L3.32508 13.5135L3.18652 12.9129V12.3123V11.7117L3.46363 10.0601L3.74074 8.55856V6.90691L4.57207 8.40841L5.12628 9.90991L5.6805 11.1111L5.81905 11.4114H6.09616L6.37327 11.2613L6.92749 9.60961L7.2046 8.25826L7.06604 6.75676V5.25526L7.62026 3.45345L8.03592 4.95496L8.72869 6.45646L9.14435 6.75676L9.28291 6.60661L9.56002 4.8048L9.83713 3.45345L10.1142 1.95195L10.5299 0.3003L10.807 0L10.9456 0.900901L11.0841 2.4024L11.6383 4.05405L12.4697 5.40541L12.8853 6.75676L12.7468 7.50751Z" fill="#FF0000"/>
<path d="M12.7466 11.111L12.8852 12.0119L13.1623 12.4623L13.5779 12.3122L14.1322 11.2611L14.6864 9.90979L14.9635 9.30919L15.2406 10.6605L15.3791 13.0629L15.2406 14.4143L15.102 14.8647L15.2406 15.165H15.3791L16.0719 13.6635L17.3189 12.162L18.4273 10.8107L19.1201 9.60949L18.9816 10.8107L18.7044 12.4623L18.1502 14.5644L17.8731 15.4653L17.596 16.6665H5.40324L4.71047 15.165L4.2948 14.114L4.15625 13.3632V12.6125L4.43336 10.6605V9.60949L5.12613 10.6605L5.95745 12.0119L6.37312 12.3122H6.78878L7.62011 10.6605L7.75866 9.30919L7.89721 7.65754L8.31288 6.90679L8.58998 8.25814L9.1442 9.90979L9.28276 10.2101H9.42131V9.90979L9.69842 8.40829L9.97553 6.60649L10.3912 5.10499L10.6683 4.80469L10.8069 6.30619L11.4996 8.25814L12.3309 9.30919L12.6081 9.75964L12.7466 10.2101V11.111Z" fill="#FF7F00"/>
<path d="M12.0539 15.1647L12.331 15.9155L12.6081 16.2158L13.0238 15.9155L13.8551 14.8644L14.4093 13.5131L14.6865 13.0626L14.2708 14.7143L14.1322 15.465V15.6152H14.2708L15.5178 15.0146H15.7949L16.7648 13.9635L17.1804 13.0626L17.0419 13.9635L16.9033 14.7143L16.3491 15.7653L16.072 16.6662H6.3732L5.54187 15.1647L5.40332 14.8644L5.68043 14.7143V13.8134L6.51175 15.3149L7.20453 16.0656L7.62019 16.2158L7.8973 15.7653L8.31296 14.414V13.3629L8.72862 12.0116L9.28284 13.8134L9.55995 14.5641H9.6985L9.83706 13.0626L10.1142 11.5611L10.3913 9.90946L10.6684 8.55811L10.8069 8.25781L10.9455 9.45901L11.3612 11.5611L11.9154 13.2128L12.1925 14.5641L12.0539 15.1647Z" fill="#FFFF00"/>
<path d="M11.5 149.999L9.14458 149.849L7.06627 149.699L5.12651 149.399L3.3253 148.948L1.8012 148.498L0.831325 148.047L0.138554 147.447L0 146.846L3.18675 20.7198H1.24699V16.5156H21.753V20.7198H19.8133L23 146.846L22.8614 147.447L22.1687 148.047L21.0602 148.498L19.6747 149.098L17.8735 149.399L15.9337 149.699L13.7169 149.849L11.5 149.999Z" fill="#999999"/>
<path d="M11.5003 149.849L5.95815 149.549L1.52441 148.347L4.2955 20.7198H2.63285V16.5156H20.3678V20.7198H18.7051L21.4762 148.347L17.0425 149.549L11.5003 149.849Z" fill="#A6A6A6"/>
<path d="M11.4998 149.849L6.92749 149.549L3.18652 148.798L5.40339 20.7198H4.01785V16.5156H18.9817V20.7198H17.5962L19.813 148.798L16.0721 149.549L11.4998 149.849Z" fill="#B2B2B2"/>
<path d="M11.5001 149.849L4.71094 149.248L6.6507 20.7198H5.54226V16.5156H17.4579V20.7198H16.3495L18.2893 149.248L11.5001 149.849Z" fill="#BFBFBF"/>
<path d="M11.4996 149.849L6.37305 149.549L7.75859 20.7198H6.92726V16.5156H16.0718V20.7198H15.2405L16.6261 149.549L11.4996 149.849Z" fill="#CCCCCC"/>
<path d="M11.5 149.849L8.03613 149.699L9.00601 20.7198H8.31324V16.5156H14.6867V20.7198H13.994L15.1024 149.699L11.5 149.849Z" fill="#D9D9D9"/>
<path d="M11.5003 149.999L9.56055 149.699L10.1148 20.7198H9.6991V16.5156H13.163V20.7198H12.8858L13.4401 149.849L11.5003 149.999Z" fill="#E5E5E5"/>
<path d="M11.5 149.999L9.28313 149.849L7.06626 149.699L5.12651 149.399L3.3253 149.098L1.8012 148.498L0.831325 148.047L0.138554 147.447L0 146.846L3.18675 20.7198H1.24699V16.5156H21.753V20.7198H19.8133L23 146.846L22.7229 147.447L22.1687 148.047L21.0602 148.498L19.6747 149.098L17.8735 149.399L15.9337 149.699L13.7169 149.849L11.5 149.999Z" stroke="black" stroke-width="0.736689"/>
<path d="M3.18652 20.7207H19.813" stroke="black" stroke-width="0.736689"/>
</g>
<defs>
<clipPath id="clip0_2109_169927">
<rect width="23" height="150" fill="white"/>
</clipPath>
</defs>
</svg>
