<svg width="150" height="150" viewBox="0 0 150 150" fill="none" xmlns="http://www.w3.org/2000/svg">
<path d="M9.66797 42.3419V12.1617L17.8711 10.0596L31.3477 9.45898L44.8242 10.0596L53.0273 12.1617V42.3419H9.66797Z" fill="#666638"/>
<path d="M12.8906 42.3419V12.1617L19.9219 9.90943L31.3477 9.45898L43.0664 9.90943L50.0977 12.1617V42.3419H12.8906Z" fill="#78784F"/>
<path d="M16.1133 42.3419V12.1617L21.9727 9.90943L31.3477 9.45898L41.0156 9.90943L46.875 12.1617V42.3419H16.1133Z" fill="#878763"/>
<path d="M19.043 42.3419V12.1617L23.7305 9.90943L31.3477 9.45898L38.9648 9.90943L43.6523 12.1617V42.3419H19.043Z" fill="#99997A"/>
<path d="M22.5586 42.3419V12.1617L25.7812 9.90943L31.3477 9.45898L37.207 9.90943L40.4297 12.1617V42.3419H22.5586Z" fill="#ABAB91"/>
<path d="M9.66797 42.3419V12.1617L17.8711 10.0596L31.3477 9.45898L44.8242 10.0596L53.0273 12.1617V42.3419H9.66797Z" stroke="black" stroke-width="0.419473"/>
<path d="M9.66797 12.1621H53.0273" stroke="black" stroke-width="0.419473"/>
<path d="M40.1367 42.3433V31.6826H56.543V39.4904H57.4219V15.0159H59.1797L59.7656 39.4904H60.6445V12.7637H62.9883V33.3342H87.8906V39.4904H89.0625V30.6315H101.074V42.3433H40.1367Z" fill="#333333"/>
<path d="M24.9023 42.3431V3.30402L27.2461 1.05177L31.3477 0.451172L35.4492 1.05177L37.793 3.30402V42.3431H24.9023Z" fill="#666638"/>
<path d="M25.7812 42.3431V3.30402L27.832 1.05177L31.3477 0.451172L34.8633 1.05177L36.9141 3.30402V42.3431H25.7812Z" fill="#78784F"/>
<path d="M26.9531 42.3431V3.30402L28.418 1.05177L31.3477 0.451172L34.2773 1.05177L36.0352 3.30402V42.3431H26.9531Z" fill="#878763"/>
<path d="M27.832 42.3431V3.30402L29.0039 1.05177L31.3477 0.451172L33.6914 1.05177L35.1562 3.30402V42.3431H27.832Z" fill="#99997A"/>
<path d="M28.7109 42.3431V3.30402L29.5898 1.05177L31.3477 0.451172L33.1055 1.05177L33.9844 3.30402V42.3431H28.7109Z" fill="#ABAB91"/>
<path d="M29.5898 42.3431V3.30402L30.1758 1.05177L31.3477 0.451172L32.5195 1.05177L33.1055 3.30402V42.3431H29.5898Z" fill="#BABAA6"/>
<path d="M30.4688 42.3431V3.30402L30.7617 1.05177L31.3477 0.451172L31.9336 1.05177L32.2266 3.30402V42.3431H30.4688Z" fill="#E5E5DD"/>
<path d="M24.9023 42.3431V3.30402L27.2461 1.05177L31.3477 0.451172L35.4492 1.05177L37.793 3.30402V42.3431H24.9023Z" stroke="black" stroke-width="0.419473"/>
<path d="M105.469 76.2757V75.2246H146.777V76.2757H105.469Z" fill="#CC9900"/>
<path d="M105.469 69.0686V68.0176H148.828V69.0686H105.469Z" fill="#CC9900"/>
<path d="M148.828 83.0323H146.777V69.0684H148.828V83.0323Z" fill="#CC9900"/>
<path d="M105.469 113.213V112.012H146.777V113.213H105.469Z" fill="#CC9900"/>
<path d="M105.469 120.42V119.369H146.777V120.42H105.469Z" fill="#CC9900"/>
<path d="M148.828 127.027H146.777V112.012H148.828V127.027Z" fill="#CC9900"/>
<path d="M106.348 50.1504H124.805" stroke="black" stroke-width="0.419473"/>
<path d="M106.348 45.6465H124.805" stroke="black" stroke-width="0.419473"/>
<path d="M106.348 54.5039H124.805" stroke="black" stroke-width="0.419473"/>
<path d="M106.348 59.0098H124.805" stroke="black" stroke-width="0.419473"/>
<path d="M106.348 47.8984H124.805" stroke="black" stroke-width="0.419473"/>
<path d="M106.348 52.4023H124.805" stroke="black" stroke-width="0.419473"/>
<path d="M106.348 56.7559H124.805" stroke="black" stroke-width="0.419473"/>
<path d="M106.348 61.2617H124.805" stroke="black" stroke-width="0.419473"/>
<path d="M129.199 80.7812H147.656" stroke="black" stroke-width="0.419473"/>
<path d="M129.199 76.4258H147.656" stroke="black" stroke-width="0.419473"/>
<path d="M129.199 71.9219H147.656" stroke="black" stroke-width="0.419473"/>
<path d="M129.199 67.418H147.656" stroke="black" stroke-width="0.419473"/>
<path d="M129.199 78.6777H147.656" stroke="black" stroke-width="0.419473"/>
<path d="M129.199 74.1738H147.656" stroke="black" stroke-width="0.419473"/>
<path d="M129.199 69.6699H147.656" stroke="black" stroke-width="0.419473"/>
<path d="M106.348 100.301H124.805" stroke="black" stroke-width="0.419473"/>
<path d="M106.348 95.9453H124.805" stroke="black" stroke-width="0.419473"/>
<path d="M106.348 91.4414H124.805" stroke="black" stroke-width="0.419473"/>
<path d="M106.348 86.9375H124.805" stroke="black" stroke-width="0.419473"/>
<path d="M106.348 98.1973H124.805" stroke="black" stroke-width="0.419473"/>
<path d="M106.348 93.6934H124.805" stroke="black" stroke-width="0.419473"/>
<path d="M106.348 89.1895H124.805" stroke="black" stroke-width="0.419473"/>
<path d="M129.199 124.926H147.656" stroke="black" stroke-width="0.419473"/>
<path d="M129.199 120.42H147.656" stroke="black" stroke-width="0.419473"/>
<path d="M129.199 115.916H147.656" stroke="black" stroke-width="0.419473"/>
<path d="M129.199 111.562H147.656" stroke="black" stroke-width="0.419473"/>
<path d="M129.199 107.057H147.656" stroke="black" stroke-width="0.419473"/>
<path d="M129.199 122.672H147.656" stroke="black" stroke-width="0.419473"/>
<path d="M129.199 118.168H147.656" stroke="black" stroke-width="0.419473"/>
<path d="M129.199 113.814H147.656" stroke="black" stroke-width="0.419473"/>
<path d="M129.199 109.309H147.656" stroke="black" stroke-width="0.419473"/>
<path d="M106.348 147.146H124.805" stroke="black" stroke-width="0.419473"/>
<path d="M106.348 142.643H124.805" stroke="black" stroke-width="0.419473"/>
<path d="M106.348 138.289H124.805" stroke="black" stroke-width="0.419473"/>
<path d="M106.348 133.783H124.805" stroke="black" stroke-width="0.419473"/>
<path d="M106.348 144.895H124.805" stroke="black" stroke-width="0.419473"/>
<path d="M106.348 140.391H124.805" stroke="black" stroke-width="0.419473"/>
<path d="M106.348 136.035H124.805" stroke="black" stroke-width="0.419473"/>
<path d="M106.348 131.531H124.805" stroke="black" stroke-width="0.419473"/>
<path d="M105.469 129.28H148.828V127.027H105.469V129.28Z" fill="#4C4C4C"/>
<path d="M105.469 85.2855H148.828V83.0332H105.469V85.2855Z" fill="#4C4C4C"/>
<path d="M105.469 42.3418H127.148V44.4439H105.469V42.3418Z" fill="#4C4C4C"/>
<path d="M107.52 63.3639H105.469V27.1777H107.52V63.3639Z" fill="#FFCC00"/>
<path d="M125.977 49.5501H123.926V27.1777H125.977V49.5501Z" fill="#FFCC00"/>
<path d="M106.641 63.3639H106.348V27.1777H106.641V63.3639Z" fill="white"/>
<path d="M125.098 49.5501H124.805V27.1777H125.098V49.5501Z" fill="white"/>
<path d="M107.52 135.435H105.469V112.012H107.52V135.435Z" fill="#FFCC00"/>
<path d="M125.977 135.435H123.926V112.012H125.977V135.435Z" fill="#FFCC00"/>
<path d="M105.469 135.436H106.348V149.4H105.469V135.436Z" fill="black"/>
<path d="M124.805 135.436H125.977V149.4H124.805V135.436Z" fill="black"/>
<path d="M128.32 88.5879H129.199V127.176H128.32V88.5879Z" fill="black"/>
<path d="M124.805 49.5488H125.977V63.5128H124.805V49.5488Z" fill="black"/>
<path d="M128.32 49.5488H129.199V83.0323H128.32V49.5488Z" fill="black"/>
<path d="M124.805 88.5879H125.977V102.552H124.805V88.5879Z" fill="black"/>
<path d="M147.656 65.7656H148.828V83.0329H147.656V65.7656Z" fill="black"/>
<path d="M147.656 104.805H148.828V127.177H147.656V104.805Z" fill="black"/>
<path d="M125.977 88.5881H123.926V68.0176H125.977V88.5881Z" fill="#FFCC00"/>
<path d="M107.52 102.552H105.469V68.0176H107.52V102.552Z" fill="#FFCC00"/>
<path d="M125.098 88.5881H124.805V68.0176H125.098V88.5881Z" fill="white"/>
<path d="M106.641 102.552H106.348V68.0176H106.641V102.552Z" fill="white"/>
<path d="M105.469 65.7659H148.828V63.5137H105.469V65.7659Z" fill="#7F7F7F"/>
<path d="M105.469 104.805H148.828V102.553H105.469V104.805Z" fill="#7F7F7F"/>
<path d="M106.641 135.435H106.348V112.012H106.641V135.435Z" fill="white"/>
<path d="M125.098 135.435H124.805V112.012H125.098V135.435Z" fill="white"/>
<path d="M148.828 102.552H146.777V88.5879H148.828V102.552Z" fill="#FFCC00"/>
<path d="M105.469 95.7952V94.7441H146.777V95.7952H105.469Z" fill="#FFCC00"/>
<path d="M105.469 88.5882V87.5371H148.828V88.5882H105.469Z" fill="#FFCC00"/>
<path d="M105.469 88.1384V87.9883H148.828V88.1384H105.469Z" fill="white"/>
<path d="M147.949 102.552H147.656V88.5879H147.949V102.552Z" fill="white"/>
<path d="M105.469 95.3455V95.1953H146.777V95.3455H105.469Z" fill="white"/>
<path d="M148.828 63.5128H146.777V49.5488H148.828V63.5128Z" fill="#FFCC00"/>
<path d="M105.469 56.7561V55.7051H146.777V56.7561H105.469Z" fill="#FFCC00"/>
<path d="M105.469 49.5491V48.498H148.828V49.5491H105.469Z" fill="#FFCC00"/>
<path d="M147.949 63.5128H147.656V49.5488H147.949V63.5128Z" fill="white"/>
<path d="M105.469 49.0991V48.7988H148.828V49.0991H105.469Z" fill="white"/>
<path d="M105.469 56.3064V56.1562H146.777V56.3064H105.469Z" fill="white"/>
<path d="M44.5312 135.435H55.3711V122.672H44.5312V135.435Z" fill="black"/>
<path d="M16.1133 135.436H29.2969V124.775H16.1133V135.436Z" fill="#333333"/>
<path d="M53.0273 129.279H61.8164V144.294H53.0273V129.279Z" fill="#333333"/>
<path d="M66.2109 127.027H82.6172V142.643H66.2109V127.027Z" fill="#333333"/>
<path d="M14.0625 80.1793L9.66797 77.927H14.0625V69.0681H22.5586V77.927H60.6445L57.4219 75.2243H46.582V74.1732H56.543L54.1992 71.3204H46.582V77.927H34.5703V57.957H46.582V69.0681H53.0273V62.3114H96.6797V69.0681L94.6289 77.927H96.6797V80.1793H14.0625Z" fill="black"/>
<path d="M26.9531 80.1802V75.6756L19.3359 70.1201V51.2012H43.3594V70.1201L35.7422 75.6756V80.1802H26.9531Z" fill="#666638"/>
<path d="M27.832 80.1802V75.6756L21.3867 70.1201V51.2012H41.6016V70.1201L35.1562 75.6756V80.1802H27.832Z" fill="#7A7A51"/>
<path d="M28.418 80.1802V75.6756L23.1445 70.1201V51.2012H39.8438V70.1201L34.5703 75.6756V80.1802H28.418Z" fill="#919170"/>
<path d="M29.0039 80.1802V75.6756L24.9023 70.1201V51.2012H38.0859V70.1201L33.6914 75.6756V80.1802H29.0039Z" fill="#A6A68A"/>
<path d="M29.8828 80.1802V75.6756L26.9531 70.1201V51.2012H36.0352V70.1201L33.1055 75.6756V80.1802H29.8828Z" fill="#BABAA6"/>
<path d="M30.4688 80.1802V75.6756L28.7109 70.1201V51.2012H34.2773V70.1201L32.5195 75.6756V80.1802H30.4688Z" fill="#D1D1C2"/>
<path d="M31.0547 80.1802V75.6756L30.4688 70.1201V51.2012H32.5195V70.1201L31.6406 75.6756V80.1802H31.0547Z" fill="#E5E5DD"/>
<path d="M26.9531 80.1802V75.6756L19.3359 70.1201V51.2012H43.3594V70.1201L35.7422 75.6756V80.1802H26.9531Z" stroke="black" stroke-width="0.419473"/>
<path d="M5.27344 149.4V44.4453H101.074V149.4H87.8906V147.148L96.6797 142.644V127.028L87.8906 122.674V120.421L96.6797 115.917V89.1901L87.8906 84.6856H77.0508V82.4333H87.8906L96.6797 77.9288V51.2021L87.8906 46.6976H18.457L9.66797 51.2021V77.9288L18.457 82.4333H63.8672V84.6856H18.457L9.66797 89.1901V115.917L18.457 120.421V122.674L9.66797 127.028V142.644L18.457 147.148V149.4H5.27344Z" fill="#333333"/>
<path d="M14.0625 119.218V100.299L31.3477 93.5427V83.6328H56.543V100.299H65.0391V101.951H56.543V107.507H65.0391V109.158H56.543V114.263H65.0391V93.5427H84.668V113.663H86.7188V106.906H98.7305V119.218H14.0625Z" fill="black"/>
<path d="M61.8164 45.6465H79.3945V120.421H61.8164V45.6465Z" fill="#4C4C4C"/>
<path d="M62.9883 45.6465H77.9297V120.271H62.9883V45.6465Z" fill="#666666"/>
<path d="M64.4531 45.6465H76.7578V120.271H64.4531V45.6465Z" fill="#7F7F7F"/>
<path d="M65.625 45.6465H75.5859V120.271H65.625V45.6465Z" fill="#999999"/>
<path d="M66.7969 45.6465H74.1211V120.271H66.7969V45.6465Z" fill="#B2B2B2"/>
<path d="M67.9688 45.6465H72.9492V120.271H67.9688V45.6465Z" fill="#CCCCCC"/>
<path d="M69.4336 45.6465H71.7773V120.421H69.4336V45.6465Z" fill="#E5E5E5"/>
<path d="M61.8164 45.6465H79.3945V120.421H61.8164V45.6465Z" stroke="black" stroke-width="0.419473"/>
<path d="M5.27344 147.147H101.074V146.096H5.27344V147.147Z" fill="#B2B2B2" stroke="black" stroke-width="0.419473"/>
<path d="M5.27344 81.3809H101.074V80.1797H5.27344V81.3809Z" fill="#B2B2B2" stroke="black" stroke-width="0.419473"/>
<path d="M5.27344 120.42H101.074V119.219H5.27344V120.42Z" fill="#B2B2B2" stroke="black" stroke-width="0.419473"/>
<path d="M29.2969 127.027H48.9258V135.436H29.2969V127.027Z" fill="#666666"/>
<path d="M73.8281 144.294H97.8516V133.783H73.8281V144.294Z" fill="#666666"/>
<path d="M59.7656 144.295H90.2344V146.097H59.7656V144.295Z" fill="#4C4C4C"/>
<path d="M14.0625 146.096H56.543V135.436H14.0625V146.096Z" fill="#4C4C4C"/>
<path d="M40.1367 132.133H68.2617V133.784H40.1367V132.133Z" fill="#7F7F7F"/>
<path d="M35.7422 138.289H68.2617V139.941H35.7422V138.289Z" fill="#7F7F7F"/>
<path d="M38.9648 132.582H69.4336V133.183H38.9648V132.582Z" fill="#E5E5E5"/>
<path d="M34.5703 138.738H69.4336V139.339H34.5703V138.738Z" fill="#E5E5E5"/>
<path d="M53.0273 142.643H73.8281V144.294H53.0273V142.643Z" fill="black"/>
<path d="M18.457 119.219V89.1888L24.9023 86.9365L35.7422 86.3359L46.582 86.9365L53.0273 89.1888V119.219H18.457Z" fill="#666638"/>
<path d="M20.8008 119.219V89.0386L26.6602 86.9365L35.7422 86.3359L45.1172 86.9365L50.6836 89.0386V119.219H20.8008Z" fill="#78784F"/>
<path d="M23.4375 119.219V89.0386L28.125 86.9365L35.7422 86.3359L43.3594 86.9365L48.0469 89.0386V119.219H23.4375Z" fill="#878763"/>
<path d="M26.0742 119.219V89.0386L29.5898 86.9365L35.7422 86.3359L41.8945 86.9365L45.4102 89.0386V119.219H26.0742Z" fill="#99997A"/>
<path d="M28.418 119.219V89.0386L31.3477 86.9365L35.7422 86.3359L40.4297 86.9365L43.0664 89.0386V119.219H28.418Z" fill="#ABAB91"/>
<path d="M31.0547 119.219V89.0386L32.8125 86.9365L35.7422 86.3359L38.6719 86.9365L40.4297 89.0386V119.219H31.0547Z" fill="#BABAA6"/>
<path d="M33.6914 119.219V89.1888L34.2773 86.9365L35.7422 86.3359L36.9141 86.9365L37.793 89.1888V119.219H33.6914Z" fill="#CCCCBD"/>
<path d="M18.457 119.219V89.1888L24.9023 86.9365L35.7422 86.3359L46.582 86.9365L53.0273 89.1888V119.219H18.457Z" stroke="black" stroke-width="0.419473"/>
<path d="M18.457 89.1895H53.0273" stroke="black" stroke-width="0.419473"/>
<path d="M5.27344 66.3672V65.166H101.074V66.3672H5.27344Z" fill="#FFCC00"/>
<path d="M5.27344 73.5742V72.373H101.074V73.5742H5.27344Z" fill="#FFCC00"/>
<path d="M5.27344 105.406V104.205H101.074V105.406H5.27344Z" fill="#FFCC00"/>
<path d="M5.27344 112.613V111.412H101.074V112.613H5.27344Z" fill="#FFCC00"/>
<path d="M5.27344 104.955V104.654H101.074V104.955H5.27344Z" fill="white"/>
<path d="M5.27344 112.162V111.861H101.074V112.162H5.27344Z" fill="white"/>
<path d="M5.27344 65.9155V65.6152H101.074V65.9155H5.27344Z" fill="white"/>
<path d="M5.27344 73.1226V72.8223H101.074V73.1226H5.27344Z" fill="white"/>
<path d="M54.1992 119.22H52.1484V105.406H54.1992V119.22Z" fill="#FFCC00"/>
<path d="M54.1992 80.181H52.1484V66.3672H54.1992V80.181Z" fill="#FFCC00"/>
<path d="M53.3203 119.22H52.7344V105.406H53.3203V119.22Z" fill="white"/>
<path d="M53.3203 80.181H52.7344V66.3672H53.3203V80.181Z" fill="white"/>
<path d="M0.878906 149.399V42.3418H105.469V149.399H92.2852V147.147L101.074 142.642V127.026L92.2852 122.672V120.42L101.074 115.915V87.9874L92.2852 83.6331V81.3808L101.074 76.8763V48.9484L92.2852 44.4439H14.0625L5.27344 48.9484V76.8763L14.0625 81.3808V83.6331L5.27344 87.9874V115.915L14.0625 120.42V122.672L5.27344 127.026V142.642L14.0625 147.147V149.399H0.878906Z" fill="#7F7F7F" stroke="black" stroke-width="0.419473"/>
<path d="M101.074 145.496L99.9023 146.097L53.0273 135.436L6.44531 146.097L5.27344 145.496L50.9766 134.836L5.27344 124.325L6.44531 123.725L53.0273 134.385L99.9023 123.725L101.074 124.325L55.3711 134.836L101.074 145.496Z" fill="#7F7F7F"/>
<path d="M99.9023 79.7296L98.7305 80.1801L53.0273 63.5134L6.44531 80.1801L5.27344 79.7296L52.1484 62.9128L5.27344 45.6455L6.44531 45.0449L53.0273 62.3122L99.9023 45.0449L101.074 45.6455L54.1992 62.9128L99.9023 79.7296Z" fill="#7F7F7F"/>
<path d="M101.074 118.77L99.9023 119.22L53.0273 102.553L6.44531 119.22L5.27344 118.77L52.1484 101.953L5.27344 85.2861L6.44531 84.6855L53.0273 101.352L98.7305 84.6855L99.9023 85.2861L54.1992 101.953L101.074 118.77Z" fill="#7F7F7F"/>
<path d="M5.27344 149.399H101.074V147.146H5.27344V149.399Z" fill="#7F7F7F" stroke="black" stroke-width="0.419473"/>
<path d="M5.27344 122.672H101.074V120.42H5.27344V122.672Z" fill="#7F7F7F" stroke="black" stroke-width="0.419473"/>
<path d="M5.27344 83.6331H101.074V81.3809H5.27344V83.6331Z" fill="#7F7F7F" stroke="black" stroke-width="0.419473"/>
<path d="M23.7305 51.202H38.9648V45.6465H23.7305V51.202Z" fill="#333300"/>
<path d="M24.9023 51.202H37.793V45.6465H24.9023V51.202Z" fill="#47470F"/>
<path d="M26.0742 51.202H36.9141V45.6465H26.0742V51.202Z" fill="#5E5E2E"/>
<path d="M27.2461 51.202H35.4492V45.6465H27.2461V51.202Z" fill="#737348"/>
<path d="M28.418 51.202H34.5703V45.6465H28.418V51.202Z" fill="#878763"/>
<path d="M29.5898 51.202H33.3984V45.6465H29.5898V51.202Z" fill="#9E9E7F"/>
<path d="M30.7617 51.202H32.2266V45.6465H30.7617V51.202Z" fill="#B2B29B"/>
<path d="M23.7305 51.202H38.9648V45.6465H23.7305V51.202Z" stroke="black" stroke-width="0.419473"/>
<path d="M73.8281 63.9635C75.6079 63.9635 77.0508 63.224 77.0508 62.3118C77.0508 61.3996 75.6079 60.6602 73.8281 60.6602C72.0483 60.6602 70.6055 61.3996 70.6055 62.3118C70.6055 63.224 72.0483 63.9635 73.8281 63.9635Z" fill="white"/>
<path d="M84.668 35.5862V34.5352H105.469V35.5862H84.668Z" fill="#FFCC00"/>
<path d="M84.668 28.3792V27.3281H105.469V28.3792H84.668Z" fill="#FFCC00"/>
<path d="M0.878906 28.3792V27.3281H66.2109V28.3792H0.878906Z" fill="#FFCC00"/>
<path d="M0.878906 35.5862V34.5352H66.2109V35.5862H0.878906Z" fill="#FFCC00"/>
<path d="M66.2109 34.5351H63.8672V28.3789H66.2109V34.5351Z" fill="#FFCC00"/>
<path d="M3.22266 42.3429H0.878906V28.3789H3.22266V42.3429Z" fill="#FFCC00"/>
<path d="M44.5312 42.3429H42.1875V28.3789H44.5312V42.3429Z" fill="#FFCC00"/>
<path d="M87.0117 34.5351H84.668V28.3789H87.0117V34.5351Z" fill="#FFCC00"/>
<path d="M105.469 42.3429H103.125V28.3789H105.469V42.3429Z" fill="#FFCC00"/>
<path d="M65.332 34.5351H64.7461V28.3789H65.332V34.5351Z" fill="white"/>
<path d="M43.6523 42.3429H43.0664V28.3789H43.6523V42.3429Z" fill="white"/>
<path d="M2.34375 42.3429H1.75781V28.3789H2.34375V42.3429Z" fill="white"/>
<path d="M104.59 42.3429H104.004V28.3789H104.59V42.3429Z" fill="white"/>
<path d="M86.1328 34.5351H85.5469V28.3789H86.1328V34.5351Z" fill="white"/>
<path d="M0.878906 35.1345V34.9844H66.2109V35.1345H0.878906Z" fill="white"/>
<path d="M0.878906 27.9273V27.627H66.2109V27.9273H0.878906Z" fill="white"/>
<path d="M84.668 27.9273V27.627H105.469V27.9273H84.668Z" fill="white"/>
<path d="M84.668 35.1345V34.9844H105.469V35.1345H84.668Z" fill="white"/>
<path d="M6.44531 42.3429V8.85938H24.9023" stroke="black" stroke-width="0.419473"/>
<path d="M67.3828 38.8888H83.7891V25.5254H67.3828V38.8888Z" fill="#7F7F7F" stroke="black" stroke-width="0.419473"/>
<path d="M69.4336 40.6903V27.7773H81.4453V40.6903H69.4336Z" fill="#B2B2B2" stroke="black" stroke-width="0.419473"/>
<path d="M69.4336 24.4746V27.7779H81.4453V24.4746H69.4336Z" fill="#FFCC00" stroke="black" stroke-width="0.419473"/>
</svg>
