<svg width="43" height="150" viewBox="0 0 43 150" fill="none" xmlns="http://www.w3.org/2000/svg">
<g clip-path="url(#clip0_2109_169198)">
<path d="M37.5602 9.30931L35.747 4.8048L30.5663 1.5015L23.0542 0H21.5L13.7289 1.05105L8.03012 4.05405L5.43976 8.40841L5.18072 9.30931V84.2342L0 87.3874V149.85H43V87.3874L37.5602 84.2342V9.30931Z" fill="#7F7F7F"/>
<path d="M35.2289 9.30931L33.6747 4.8048L29.271 1.5015L22.7951 0H21.5H20.2048L12.6927 2.1021L8.80719 5.70571L7.77105 11.7117V70.1201V74.9249V84.2342L3.88551 86.9369L3.1084 87.3874V89.3393V99.0991L3.36743 104.955V136.186L3.1084 142.042V147.898V149.85H5.43972H14.765H30.8253H39.8915V138.138V136.186V134.234V101.051V95.1952V87.3874L35.2289 84.2342V72.5225V67.8679V9.30931Z" fill="#949494"/>
<path d="M32.8973 9.30931L31.6021 4.8048L26.9394 1.05105L22.7949 0H21.4997H20.2045L14.2467 2.1021L11.1382 5.70571L10.1021 11.7117V70.1201V74.9249V84.2342L6.99366 86.9369L6.47559 87.3874V89.3393V99.0991V104.955V136.186V142.042V147.898V149.85H8.28884H17.8732H29.0117H36.5238V138.138L36.7828 136.186V134.234V101.051L36.5238 95.1952V87.3874L32.8973 84.2342V72.5225V67.8679V9.30931Z" fill="#A8A8A8"/>
<path d="M30.3069 9.30931L29.2707 4.8048L25.6442 1.05105L22.5358 0H21.4996H20.4635L14.7647 3.3033L12.9515 7.35736L12.6924 13.964V70.1201V74.9249V84.2342L10.1021 86.9369L9.58398 87.3874V89.3393V99.0991L9.84302 104.955V136.186L9.58398 142.042V147.898V149.85H11.1382H20.2045H29.0117H33.4153V138.138V136.186V134.234V101.051V95.1952V87.3874L30.3069 84.2342V72.5225V67.8679V9.30931Z" fill="#BDBDBD"/>
<path d="M27.9762 9.30931L27.1991 4.8048L24.6088 1.05105L23.5726 0.3003L22.2774 0H21.5003H20.7232L19.4281 0.3003L16.0606 4.05405L15.0244 8.40841V70.1201V74.9249V84.2342L13.2112 86.9369L12.9521 87.3874V89.3393V99.0991V104.955V136.186V142.042V147.898V149.85H13.9883H22.5365H30.0485V138.138L30.3076 136.186V134.234V101.051L30.0485 95.1952V87.3874L27.9762 84.2342V72.5225V67.8679V9.30931Z" fill="#D1D1D1"/>
<path d="M25.3858 9.30931L24.8678 4.8048L23.0545 0.750751L22.5364 0.3003L21.7593 0H21.5003H20.9822L20.2051 0.3003L17.8738 4.8048L17.3557 9.30931V84.2342L16.0605 87.3874V149.85H26.681V87.3874L25.3858 84.2342V9.30931Z" fill="#E5E5E5"/>
<path d="M37.5602 9.30931L35.747 4.8048L30.5663 1.5015L23.0542 0H21.5L13.7289 1.05105L8.03012 4.05405L5.43976 8.40841L5.18072 9.30931V84.2342L0 87.3874V149.85H43V87.3874L37.5602 84.2342V9.30931Z" stroke="black" stroke-width="0.736689"/>
<path d="M0 87.3867H43" stroke="black" stroke-width="0.736689"/>
<path d="M5.18066 84.2344H37.5602" stroke="black" stroke-width="0.736689"/>
</g>
<defs>
<clipPath id="clip0_2109_169198">
<rect width="43" height="150" fill="white"/>
</clipPath>
</defs>
</svg>
