<svg width="49" height="150" viewBox="0 0 49 150" fill="none" xmlns="http://www.w3.org/2000/svg">
<path d="M46.6666 147.597V0.75H45.7333H41.9999H41.7666V147.597H41.9999V147.747H42.9333H46.6666V147.597Z" fill="#999999" stroke="black" stroke-width="0.654981"/>
<path d="M44.3329 147.597C44.5906 147.597 44.7995 114.724 44.7995 74.1734C44.7995 33.6228 44.5906 0.75 44.3329 0.75C44.0751 0.75 43.8662 33.6228 43.8662 74.1734C43.8662 114.724 44.0751 147.597 44.3329 147.597Z" fill="white"/>
<path d="M39.4336 10.8105H47.8336V12.312H39.4336V10.8105Z" fill="#E5E5E5"/>
<path d="M39.4336 42.4922H47.8336V43.9937H39.4336V42.4922Z" fill="#E5E5E5"/>
<path d="M39.4336 73.4238H47.8336V74.9253H39.4336V73.4238Z" fill="#E5E5E5"/>
<path d="M39.4336 104.354H47.8336V105.855H39.4336V104.354Z" fill="#E5E5E5"/>
<path d="M39.4336 135.285H47.8336V136.787H39.4336V135.285Z" fill="#E5E5E5"/>
<path d="M39.4336 137.538H47.8336V136.787H39.4336V137.538Z" fill="#4C4C4C"/>
<path d="M39.4336 106.606H47.8336V105.855H39.4336V106.606Z" fill="#4C4C4C"/>
<path d="M39.4336 75.6765H47.8336V74.9258H39.4336V75.6765Z" fill="#4C4C4C"/>
<path d="M39.4336 44.7449H47.8336V43.9941H39.4336V44.7449Z" fill="#4C4C4C"/>
<path d="M39.4336 13.0633H47.8336V12.3125H39.4336V13.0633Z" fill="#4C4C4C"/>
<path d="M10.7334 145.946V8.4082H39.4334V145.946L34.3001 148.498L26.6001 149.099L19.3667 148.949L13.0667 147.748L10.7334 145.946Z" fill="#7F7F7F"/>
<path d="M12.3662 146.997V8.4082H37.7995L37.5662 146.997L31.0329 148.648L26.3662 149.249L19.1329 148.648L13.0662 146.997H12.5995H12.3662Z" fill="#919191"/>
<path d="M14.2334 147.447V8.4082H35.9334V147.447L35.7001 147.597L35.0001 147.898L34.0667 148.198L32.6667 148.498L31.0334 148.799L29.1667 148.949L27.3001 149.099L24.9667 149.249L22.8667 149.099L20.7667 148.949L19.1334 148.799L17.5001 148.498L16.1001 148.198L15.1667 147.898L14.4667 147.597L14.2334 147.447Z" fill="#A3A3A3"/>
<path d="M16.0996 148.048V8.4082H34.0663V148.048H33.3663L32.6663 148.348L31.4996 148.498L30.0996 148.799L28.4663 148.949L26.8329 149.099L24.9663 149.249L23.3329 149.099L21.4663 148.949L20.0663 148.799L18.6663 148.498L17.4996 148.348L16.7996 148.048H16.0996Z" fill="#B5B5B5"/>
<path d="M17.9668 148.198V8.4082H32.2001V148.198L31.7335 148.348L31.0335 148.498L30.1001 148.799L29.1668 148.949L27.7668 149.099H26.6001L24.9668 149.249L23.5668 149.099H22.1668L21.0001 148.799L20.0668 148.648L19.1335 148.498L18.4335 148.348L17.9668 148.198Z" fill="#C9C9C9"/>
<path d="M19.5996 148.648V8.4082H30.5663V148.648H30.3329L30.0996 148.799H29.6329L28.9329 148.949L27.9996 149.099H27.2996L26.1329 149.249H24.9663H24.0329L22.8663 149.099H21.9329L21.2329 148.949H20.5329L20.0663 148.799L19.8329 148.648H19.5996Z" fill="#DBDBDB"/>
<path d="M21.4668 148.648V8.4082H28.7001V148.648H28.4668H28.2335H28.0001L27.5335 148.799L27.0668 148.949L26.3668 149.099H25.6668L24.9668 149.249L24.2668 149.099H23.5668L23.1001 148.949L22.4001 148.799L21.9335 148.648H21.7001H21.4668Z" fill="#EDEDED"/>
<path d="M23.333 148.648V8.4082H26.833V148.648L26.3663 148.799L25.6663 149.099H24.9663H24.2663L23.7997 148.949L23.333 148.799V148.648Z" fill="white"/>
<path d="M39.4334 146.097V3.75472L34.3001 1.35231L28.0001 0.751713L26.6001 0.601562H24.9667L18.2001 1.05201L11.9001 2.55351L10.7334 3.45442V3.75472V146.097L15.8667 148.499L22.1667 149.1L23.5667 149.25H24.9667L31.9667 148.8L38.2667 147.298L39.4334 146.397V146.097Z" stroke="black" stroke-width="0.654981"/>
<path d="M10.7334 34.6855V40.8417H39.4334V34.6855H10.7334Z" fill="#7F0000"/>
<path d="M10.7334 23.873V30.1794H39.4334V23.873H10.7334Z" fill="#7F0000"/>
<path d="M10.7334 13.2129V19.2189H39.4334V13.2129H10.7334Z" fill="#7F0000"/>
<path d="M39.4334 3.90315V8.40766H10.7334V3.90315L11.9001 2.5518L14.0001 1.80105L15.8667 1.3506L18.2001 1.0503L20.7667 0.90015L23.5667 0.75H26.6001L29.4001 0.90015L31.9667 1.0503L34.3001 1.3506L36.1667 1.80105L38.2667 2.5518L39.4334 3.90315Z" fill="#7F0000"/>
<path d="M12.3662 34.6855V40.8417H37.7995V34.6855H12.3662Z" fill="#911111"/>
<path d="M12.3662 23.873V30.1794H37.7995V23.873H12.3662Z" fill="#911111"/>
<path d="M12.3662 13.0625V19.2187H37.7995V13.0625H12.3662Z" fill="#911111"/>
<path d="M37.7995 2.85381V8.40937H12.3662V2.85381L14.4662 2.10306L17.0329 1.50246L19.1329 1.20216L21.2329 0.901863L23.7995 0.601562L26.3662 0.751713L28.9329 0.901863L31.0329 1.20216L33.1329 1.65261L35.4662 2.40336L37.5662 2.85381H37.7995Z" fill="#911111"/>
<path d="M35.9334 2.40336V8.40937H14.2334V2.40336L14.4667 2.25321L15.1667 1.95291L16.1001 1.65261L17.5001 1.35231L19.1334 1.05201L20.7667 0.901863L22.8667 0.751713L25.2001 0.601562L27.3001 0.751713L29.1667 0.901863L31.0334 1.05201L32.6667 1.35231L34.0667 1.65261L35.0001 1.95291L35.7001 2.25321L35.9334 2.40336Z" fill="#A32323"/>
<path d="M14.2334 13.0625V19.2187H35.9334V13.0625H14.2334Z" fill="#A32323"/>
<path d="M14.2334 23.873V30.1794H35.9334V23.873H14.2334Z" fill="#A32323"/>
<path d="M14.2334 34.6855V40.8417H35.9334V34.6855H14.2334Z" fill="#A32323"/>
<path d="M34.0663 1.80276V8.40937H16.0996V1.80276H16.7996L17.4996 1.50246L18.6663 1.35231L20.0663 1.05201L21.4663 0.901863L23.3329 0.751713L25.1996 0.601562L26.8329 0.751713L28.4663 0.901863L30.0996 1.05201L31.4996 1.35231L32.6663 1.50246L33.3663 1.80276H34.0663Z" fill="#B53535"/>
<path d="M16.0996 13.0625V19.2187H34.0663V13.0625H16.0996Z" fill="#B53535"/>
<path d="M16.0996 23.873V30.1794H34.0663V23.873H16.0996Z" fill="#B53535"/>
<path d="M16.0996 34.6855V40.8417H34.0663V34.6855H16.0996Z" fill="#B53535"/>
<path d="M17.9668 34.6855V40.8417H32.2001V34.6855H17.9668Z" fill="#C94949"/>
<path d="M17.9668 23.873V30.1794H32.2001V23.873H17.9668Z" fill="#C94949"/>
<path d="M17.9668 13.0625V19.2187H32.2001V13.0625H17.9668Z" fill="#C94949"/>
<path d="M32.2001 1.65261V8.40937H17.9668V1.65261L18.4335 1.50246L19.1335 1.35231L20.0668 1.05201L21.0001 0.901863L22.1668 0.751713H23.5668L25.2001 0.601562L26.6001 0.751713H27.7668L29.1668 1.05201L30.1001 1.20216L31.0335 1.35231L31.7335 1.50246L32.2001 1.65261Z" fill="#C94949"/>
<path d="M19.5996 34.6855V40.8417H30.5663V34.6855H19.5996Z" fill="#DB5B5B"/>
<path d="M19.5996 23.873V30.1794H30.5663V23.873H19.5996Z" fill="#DB5B5B"/>
<path d="M19.5996 13.0625V19.2187H30.5663V13.0625H19.5996Z" fill="#DB5B5B"/>
<path d="M30.5663 1.20216V8.40937H19.5996V1.20216H19.8329L20.0663 1.05201H20.5329L21.2329 0.901863L21.9329 0.751713H22.8663L24.0329 0.601562H25.1996H26.1329L27.2996 0.751713H27.9996L28.9329 0.901863H29.6329L30.0996 1.05201L30.3329 1.20216H30.5663Z" fill="#DB5B5B"/>
<path d="M28.7001 1.20216V8.40937H21.4668V1.20216H21.7001H22.1668L22.6335 1.05201L23.1001 0.901863L23.8001 0.751713H24.5001L25.2001 0.601562L25.9001 0.751713H26.6001L27.0668 0.901863L27.5335 1.05201L28.0001 1.20216H28.2335H28.4668H28.7001Z" fill="#ED6D6D"/>
<path d="M21.4668 13.0625V19.2187H28.7001V13.0625H21.4668Z" fill="#ED6D6D"/>
<path d="M21.4668 23.873V30.1794H28.7001V23.873H21.4668Z" fill="#ED6D6D"/>
<path d="M21.4668 34.6855V40.8417H28.7001V34.6855H21.4668Z" fill="#ED6D6D"/>
<path d="M26.833 1.20045V8.40766H23.333V1.20045L23.7997 1.0503L24.4997 0.75H25.1997H25.8997L26.3663 0.90015L26.833 1.0503V1.20045Z" fill="#FF7F7F"/>
<path d="M23.333 13.2129V19.2189H26.833V13.2129H23.333Z" fill="#FF7F7F"/>
<path d="M23.333 23.873V30.1794H26.833V23.873H23.333Z" fill="#FF7F7F"/>
<path d="M23.333 34.6855V40.8417H26.833V34.6855H23.333Z" fill="#FF7F7F"/>
<path d="M5.83301 53.3034V47.1473L10.733 43.9941" stroke="black" stroke-width="0.654981"/>
<path d="M5.83301 50.1504H10.733" stroke="black" stroke-width="0.654981"/>
<path d="M5.83301 37.8386V31.5323L10.733 28.5293" stroke="black" stroke-width="0.654981"/>
<path d="M5.83301 34.6855H10.733" stroke="black" stroke-width="0.654981"/>
<path d="M8.16699 53.3026V6.90625" stroke="black" stroke-width="0.654981"/>
<path d="M5.83301 22.3718V16.2157L10.733 13.0625" stroke="black" stroke-width="0.654981"/>
<path d="M5.83301 19.2188H10.733" stroke="black" stroke-width="0.654981"/>
<path d="M5.83301 9.90916V3.753L10.733 0.75V6.90616" stroke="black" stroke-width="0.654981"/>
<path d="M5.83301 6.90625H10.733" stroke="black" stroke-width="0.654981"/>
<path d="M5.83301 21.3223H10.733V22.3733H5.83301V21.3223Z" fill="#4C4C4C"/>
<path d="M5.83301 36.7871H10.733V37.8382H5.83301V36.7871Z" fill="#4C4C4C"/>
<path d="M5.83301 52.252H10.733V53.303H5.83301V52.252Z" fill="#4C4C4C"/>
<path d="M0.933594 132.732H25.2003V133.633H0.933594V132.732Z" fill="#4C4C4C"/>
<path d="M0.933594 117.268H25.2003V118.319H0.933594V117.268Z" fill="#4C4C4C"/>
<path d="M0.933594 101.803H25.2003V102.704H0.933594V101.803Z" fill="#4C4C4C"/>
<path d="M0.933594 64.7148H25.2003V65.6157H0.933594V64.7148Z" fill="#4C4C4C"/>
<path d="M5.83301 9.1582H10.733V9.90895H5.83301V9.1582Z" fill="#4C4C4C"/>
<path d="M41.7666 13.0625H46.6666V19.2187H41.7666V13.0625Z" fill="#7F0000"/>
<path d="M41.7666 23.873H46.6666V30.1794H41.7666V23.873Z" fill="#7F0000"/>
<path d="M41.7666 34.6855H46.6666V40.8417H41.7666V34.6855Z" fill="#7F0000"/>
<path d="M43.8662 13.0625H44.7995V19.2187H43.8662V13.0625Z" fill="#FF7F7F"/>
<path d="M43.8662 23.873H44.7995V30.1794H43.8662V23.873Z" fill="#FF7F7F"/>
<path d="M43.8662 34.6855H44.7995V40.8417H43.8662V34.6855Z" fill="#FF7F7F"/>
<path d="M20.2998 49.3984H29.8665" stroke="#CCCCCC" stroke-width="0.654981"/>
<path d="M20.2998 61.7109H29.8665" stroke="#CCCCCC" stroke-width="0.654981"/>
<path d="M20.2998 74.1738H29.8665" stroke="#CCCCCC" stroke-width="0.654981"/>
<path d="M20.2998 86.4863H29.8665" stroke="#CCCCCC" stroke-width="0.654981"/>
<path d="M20.2998 98.9492H29.8665" stroke="#CCCCCC" stroke-width="0.654981"/>
<path d="M20.2998 111.262H29.8665" stroke="#CCCCCC" stroke-width="0.654981"/>
<path d="M20.2998 123.574H29.8665" stroke="#CCCCCC" stroke-width="0.654981"/>
<path d="M20.2998 136.035H29.8665" stroke="#CCCCCC" stroke-width="0.654981"/>
<path d="M0.933594 64.7152H1.86693V61.2617H0.933594V64.7152Z" fill="#FFCC00"/>
<path d="M24.2666 64.7152H25.1999V61.2617H24.2666V64.7152Z" fill="#FFCC00"/>
<path d="M25.2003 61.261V60.8105H0.933594V61.261H25.2003Z" fill="#FFCC00"/>
<path d="M24.2662 63.2141V62.7637H1.86621V63.2141H24.2662Z" fill="#FFCC00"/>
<path d="M0.933594 101.801H1.86693V98.3477H0.933594V101.801Z" fill="#FFCC00"/>
<path d="M24.2666 101.801H25.1999V98.3477H24.2666V101.801Z" fill="#FFCC00"/>
<path d="M25.2003 98.3489V97.8984H0.933594V98.3489H25.2003Z" fill="#FFCC00"/>
<path d="M24.2662 100.3V99.8496H1.86621V100.3H24.2662Z" fill="#FFCC00"/>
<path d="M0.933594 117.268H1.86693V113.965H0.933594V117.268Z" fill="#FFCC00"/>
<path d="M24.2666 117.268H25.1999V113.965H24.2666V117.268Z" fill="#FFCC00"/>
<path d="M25.2003 113.964V113.363H0.933594V113.964H25.2003Z" fill="#FFCC00"/>
<path d="M24.2662 115.765V115.314H1.86621V115.765H24.2662Z" fill="#FFCC00"/>
<path d="M0.933594 132.733H1.86693V129.279H0.933594V132.733Z" fill="#FFCC00"/>
<path d="M24.2666 132.733H25.1999V129.279H24.2666V132.733Z" fill="#FFCC00"/>
<path d="M25.2003 129.279V128.828H0.933594V129.279H25.2003Z" fill="#FFCC00"/>
<path d="M24.2662 131.232V130.781H1.86621V131.232H24.2662Z" fill="#FFCC00"/>
<path d="M13.0664 64.7152H13.7664V61.2617H13.0664V64.7152Z" fill="#FFCC00"/>
<path d="M13.0664 101.801H13.7664V98.3477H13.0664V101.801Z" fill="#FFCC00"/>
<path d="M13.0664 117.268H13.7664V113.965H13.0664V117.268Z" fill="#FFCC00"/>
<path d="M13.0664 132.733H13.7664V129.279H13.0664V132.733Z" fill="#FFCC00"/>
</svg>
