<svg width="100" height="150" viewBox="0 0 100 150" fill="none" xmlns="http://www.w3.org/2000/svg">
<g clip-path="url(#clip0_2109_170848)">
<path d="M36.4932 112.012H39.8107V147.597H36.4932V112.012Z" fill="black"/>
<path d="M85.3076 112.012H88.6252V147.597H85.3076V112.012Z" fill="black"/>
<path d="M26.6982 6.90616L52.7646 0.75H72.3538L98.2622 6.90616V112.011L85.308 115.164H39.8104L26.6982 112.011V6.90616Z" fill="#666666"/>
<path d="M33.333 6.90787L54.66 0.601562H70.6158L91.9428 6.90787V112.013L81.2003 115.016H43.9175L33.333 112.013V6.90787Z" fill="#7F7F7F"/>
<path d="M39.8105 6.90787L56.3982 0.601562H68.8785L85.3082 6.90787V112.013L77.0933 115.016H48.0254L39.8105 112.013V6.90787Z" fill="#999999"/>
<path d="M46.2871 6.90787L58.1355 0.601562H66.9822L78.8306 6.90787V112.013L72.9854 115.016H52.2903L46.2871 112.013V6.90787Z" fill="#B2B2B2"/>
<path d="M52.9229 6.90787L60.0319 0.601562H65.2451L72.3541 6.90787V112.013L68.8786 115.016H56.3984L52.9229 112.013V6.90787Z" fill="#CCCCCC"/>
<path d="M59.3994 6.90616L61.6111 0.75H63.5068L65.7185 6.90616V112.011L64.6127 115.164H60.5053L59.3994 112.011V6.90616Z" fill="#E5E5E5"/>
<path d="M26.6982 6.90616L52.7646 0.75H72.3538L98.2622 6.90616V112.011L85.308 115.164H39.8104L26.6982 112.011V6.90616Z" stroke="black" stroke-width="0.377256"/>
<path d="M0.631836 62.6133H85.308V99.7004H0.631836V62.6133Z" fill="#666666"/>
<path d="M12.4805 62.6133H81.5168V99.7004H12.4805V62.6133Z" fill="#7F7F7F"/>
<path d="M24.1709 62.6133H77.5674V99.7004H24.1709V62.6133Z" fill="#999999"/>
<path d="M35.8613 62.6133H73.618V99.7004H35.8613V62.6133Z" fill="#B2B2B2"/>
<path d="M47.5518 62.6133H69.6687V99.7004H47.5518V62.6133Z" fill="#CCCCCC"/>
<path d="M59.2422 62.6133H65.7193V99.7004H59.2422V62.6133Z" fill="#E5E5E5"/>
<path d="M0.631836 62.6133H85.308V99.7004H0.631836V62.6133Z" stroke="black" stroke-width="0.377256"/>
<path d="M62.5588 45.4954C71.5455 45.4954 78.8306 38.5713 78.8306 30.0299C78.8306 21.4886 71.5455 14.5645 62.5588 14.5645C53.5722 14.5645 46.2871 21.4886 46.2871 30.0299C46.2871 38.5713 53.5722 45.4954 62.5588 45.4954Z" fill="#4C4C4C"/>
<path d="M42.9697 32.4324H82.1482V31.6816H42.9697V32.4324Z" fill="#4C4C4C"/>
<path d="M49.6055 14.564L69.1947 46.6961L69.8266 46.3958L50.3954 14.2637L49.6055 14.564Z" fill="#4C4C4C"/>
<path d="M55.9239 46.6961L75.5132 14.564L74.7233 14.2637L55.292 46.3958L55.9239 46.6961Z" fill="#4C4C4C"/>
<path d="M49.6055 43.2435L69.1947 11.1113L74.724 14.2645L55.2927 46.3966L49.6055 43.2435Z" fill="#CCCCCC" stroke="black" stroke-width="0.377256"/>
<path d="M42.9697 25.5254H82.1482V31.6815H42.9697V25.5254Z" fill="#CCCCCC" stroke="black" stroke-width="0.377256"/>
<path d="M55.9238 11.1113L75.513 43.2435L69.8258 46.3966L50.3945 14.2645L55.9238 11.1113Z" fill="#CCCCCC" stroke="black" stroke-width="0.377256"/>
<path d="M62.5588 43.9934C71.5455 43.9934 78.8306 37.0693 78.8306 28.528C78.8306 19.9866 71.5455 13.0625 62.5588 13.0625C53.5722 13.0625 46.2871 19.9866 46.2871 28.528C46.2871 37.0693 53.5722 43.9934 62.5588 43.9934Z" fill="#999999"/>
<path d="M62.5594 42.1921C70.5862 42.1921 77.0933 36.0074 77.0933 28.3783C77.0933 20.7491 70.5862 14.5645 62.5594 14.5645C54.5325 14.5645 48.0254 20.7491 48.0254 28.3783C48.0254 36.0074 54.5325 42.1921 62.5594 42.1921Z" fill="#ADADAD"/>
<path d="M62.5597 40.8414C69.7141 40.8414 75.5138 35.329 75.5138 28.5291C75.5138 21.7292 69.7141 16.2168 62.5597 16.2168C55.4053 16.2168 49.6055 21.7292 49.6055 28.5291C49.6055 35.329 55.4053 40.8414 62.5597 40.8414Z" fill="#C2C2C2"/>
<path d="M62.5594 38.439C68.3178 38.439 72.9859 34.0021 72.9859 28.5291C72.9859 23.056 68.3178 18.6191 62.5594 18.6191C56.8009 18.6191 52.1328 23.056 52.1328 28.5291C52.1328 34.0021 56.8009 38.439 62.5594 38.439Z" fill="#D6D6D6"/>
<path d="M62.5588 36.1864C67.0085 36.1864 70.6157 32.758 70.6157 28.5288C70.6157 24.2995 67.0085 20.8711 62.5588 20.8711C58.1091 20.8711 54.502 24.2995 54.502 28.5288C54.502 32.758 58.1091 36.1864 62.5588 36.1864Z" fill="#EBEBEB"/>
<path d="M62.5596 32.4328C64.828 32.4328 66.667 30.685 66.667 28.5289C66.667 26.3728 64.828 24.625 62.5596 24.625C60.2911 24.625 58.4521 26.3728 58.4521 28.5289C58.4521 30.685 60.2911 32.4328 62.5596 32.4328Z" fill="white"/>
<path d="M62.5588 43.9934C71.5455 43.9934 78.8306 37.0693 78.8306 28.528C78.8306 19.9866 71.5455 13.0625 62.5588 13.0625C53.5722 13.0625 46.2871 19.9866 46.2871 28.528C46.2871 37.0693 53.5722 43.9934 62.5588 43.9934Z" stroke="black" stroke-width="0.377256"/>
<path d="M16.1133 73.4238H41.3897V82.7331H16.1133V73.4238Z" fill="#E5E5E5"/>
<path d="M56.082 28.5292H69.0362L68.2463 22.373H56.8719L56.082 28.5292Z" fill="white" stroke="#CCCCCC" stroke-width="0.377256"/>
<path d="M26.6982 58.709H99.2101" stroke="#666666" stroke-width="0.377256"/>
<path d="M52.7646 50.1504H56.8721V149.249H52.7646V50.1504Z" fill="#4C4C4C"/>
<path d="M68.2461 50.1504H72.3535V149.249H68.2461V50.1504Z" fill="#4C4C4C"/>
<path d="M68.2465 54.8047V58.7086H56.8721V54.8047H68.2465Z" fill="#4C4C4C"/>
<path d="M68.2465 67.2676V71.0213H56.8721V67.2676H68.2465Z" fill="#4C4C4C"/>
<path d="M68.2465 79.5801V83.484H56.8721V79.5801H68.2465Z" fill="#4C4C4C"/>
<path d="M68.2465 92.043V95.7967H56.8721V92.043H68.2465Z" fill="#4C4C4C"/>
<path d="M68.2465 104.354V108.257H56.8721V104.354H68.2465Z" fill="#4C4C4C"/>
<path d="M68.2465 116.666V120.57H56.8721V116.666H68.2465Z" fill="#4C4C4C"/>
<path d="M68.2465 129.129V132.883H56.8721V129.129H68.2465Z" fill="#4C4C4C"/>
<path d="M68.2465 141.441V145.345H56.8721V141.441H68.2465Z" fill="#4C4C4C"/>
<path d="M53.7129 50.1504H55.7666V149.249H53.7129V50.1504Z" fill="#CCCCCC"/>
<path d="M69.3525 50.1504H71.2483V149.249H69.3525V50.1504Z" fill="#CCCCCC"/>
<path d="M68.2465 55.8555V57.8074H56.8721V55.8555H68.2465Z" fill="#CCCCCC"/>
<path d="M68.2465 68.168V70.1199H56.8721V68.168H68.2465Z" fill="#CCCCCC"/>
<path d="M68.2465 80.6309V82.5828H56.8721V80.6309H68.2465Z" fill="#CCCCCC"/>
<path d="M68.2465 92.9434V94.8953H56.8721V92.9434H68.2465Z" fill="#CCCCCC"/>
<path d="M68.2465 105.406V107.208H56.8721V105.406H68.2465Z" fill="#CCCCCC"/>
<path d="M68.2465 117.717V119.669H56.8721V117.717H68.2465Z" fill="#CCCCCC"/>
<path d="M68.2465 130.029V131.981H56.8721V130.029H68.2465Z" fill="#CCCCCC"/>
<path d="M68.2465 142.492V144.444H56.8721V142.492H68.2465Z" fill="#CCCCCC"/>
<path d="M88.626 112.012H95.1031V149.249H88.626V112.012Z" fill="#4C4C4C"/>
<path d="M30.0156 112.012H36.4927V149.249H30.0156V112.012Z" fill="#4C4C4C"/>
<path d="M90.3633 112.012H93.3649V149.249H90.3633V112.012Z" fill="#CCCCCC"/>
<path d="M31.7539 112.012H34.9135V149.249H31.7539V112.012Z" fill="#CCCCCC"/>
<path d="M42.1797 56.457H45.4972V57.9585H42.1797V56.457Z" fill="black"/>
<path d="M42.1797 54.8047H45.4972V56.4563H42.1797V54.8047Z" fill="#E5E5E5"/>
</g>
<defs>
<clipPath id="clip0_2109_170848">
<rect width="100" height="150" fill="white"/>
</clipPath>
</defs>
</svg>
