<svg width="150" height="150" viewBox="0 0 150 150" fill="none" xmlns="http://www.w3.org/2000/svg">
<g clip-path="url(#clip0_2109_169030)">
<path d="M142.958 7.6582H146.479L131.69 13.2138H128.169L142.958 7.6582Z" fill="#004C00"/>
<path d="M142.958 32.7324H146.479L131.69 38.1378H128.169L142.958 32.7324Z" fill="#004C00"/>
<path d="M142.958 57.6582H146.479L131.69 63.2138H128.169L142.958 57.6582Z" fill="#004C00"/>
<path d="M142.958 82.7324H146.479L131.69 88.1378H128.169L142.958 82.7324Z" fill="#004C00"/>
<path d="M142.958 132.732H146.479L131.69 138.138H128.169L142.958 132.732Z" fill="#004C00"/>
<path d="M142.958 107.658H146.479L131.69 113.214H128.169L142.958 107.658Z" fill="#004C00"/>
<path d="M14.085 0H131.691V150H14.085V0Z" fill="#006600"/>
<path d="M25.3525 0H120.423V150H25.3525V0Z" fill="#007F00"/>
<path d="M28.873 0H116.901V150H28.873V0Z" fill="#009900"/>
<path d="M40.1406 0H106.338V150H40.1406V0Z" fill="#00B200"/>
<path d="M58.4512 0H88.0286V150H58.4512V0Z" fill="#00CC00"/>
<path d="M14.085 0H131.691V150H14.085V0Z" stroke="black" stroke-width="0.650352"/>
<path d="M28.873 149.999V131.23" stroke="black" stroke-width="0.650352"/>
<path d="M50.7041 149.999V131.23" stroke="black" stroke-width="0.650352"/>
<path d="M73.2393 149.999V131.23" stroke="black" stroke-width="0.650352"/>
<path d="M95.0703 149.999V131.23" stroke="black" stroke-width="0.650352"/>
<path d="M116.901 149.999V131.23" stroke="black" stroke-width="0.650352"/>
<path d="M76.7607 33.4844H80.2819V39.0399H76.7607V33.4844Z" fill="#005900"/>
<path d="M76.7607 58.5586H80.2819V63.964H76.7607V58.5586Z" fill="#005900"/>
<path d="M76.7607 83.4844H80.2819V89.0399H76.7607V83.4844Z" fill="#005900"/>
<path d="M76.7607 133.484H80.2819V139.04H76.7607V133.484Z" fill="#005900"/>
<path d="M76.7607 108.559H80.2819V113.964H76.7607V108.559Z" fill="#005900"/>
<path d="M76.7607 8.55859H80.2819V13.964H76.7607V8.55859Z" fill="#005900"/>
<path d="M106.338 0H113.38V150H106.338V0Z" fill="#00FF00" stroke="black" stroke-width="0.650352"/>
<path d="M0 135.887H146.479V137.538H0V135.887Z" fill="#007300" stroke="black" stroke-width="0.650352"/>
<path d="M0 123.424H146.479V124.925H0V123.424Z" fill="#007300" stroke="black" stroke-width="0.650352"/>
<path d="M0 110.811H146.479V112.462H0V110.811Z" fill="#007300" stroke="black" stroke-width="0.650352"/>
<path d="M0 98.3477H146.479V99.9993H0V98.3477Z" fill="#007300" stroke="black" stroke-width="0.650352"/>
<path d="M0 85.8867H146.479V87.5384H0V85.8867Z" fill="#007300" stroke="black" stroke-width="0.650352"/>
<path d="M0 73.4238H146.479V74.9253H0V73.4238Z" fill="#007300" stroke="black" stroke-width="0.650352"/>
<path d="M0 60.8105H146.479V62.4622H0V60.8105Z" fill="#007300" stroke="black" stroke-width="0.650352"/>
<path d="M0 48.3477H146.479V49.9993H0V48.3477Z" fill="#007300" stroke="black" stroke-width="0.650352"/>
<path d="M0 35.8867H146.479V37.5384H0V35.8867Z" fill="#007300" stroke="black" stroke-width="0.650352"/>
<path d="M0 23.4238H146.479V24.9253H0V23.4238Z" fill="#007300" stroke="black" stroke-width="0.650352"/>
<path d="M0 10.8105H146.479V12.4622H0V10.8105Z" fill="#007300" stroke="black" stroke-width="0.650352"/>
<path d="M73.2393 31.2305H150V32.732L73.2393 33.4827V31.2305Z" fill="#009900" stroke="black" stroke-width="0.650352"/>
<path d="M73.2393 56.1562H150V57.6578L73.2393 58.5587V56.1562Z" fill="#009900" stroke="black" stroke-width="0.650352"/>
<path d="M73.2393 81.2305H150V82.732L73.2393 83.4827V81.2305Z" fill="#009900" stroke="black" stroke-width="0.650352"/>
<path d="M73.2393 106.156H150V107.658L73.2393 108.559V106.156Z" fill="#009900" stroke="black" stroke-width="0.650352"/>
<path d="M73.2393 131.23H150V132.732L73.2393 133.483V131.23Z" fill="#009900" stroke="black" stroke-width="0.650352"/>
<path d="M73.2393 6.15625H150V7.65775L73.2393 8.55865V6.15625Z" fill="#009900" stroke="black" stroke-width="0.650352"/>
<path d="M73.2393 131.231V125.676H150V131.231" stroke="black" stroke-width="0.650352"/>
<path d="M83.8027 131.231V125.676" stroke="black" stroke-width="0.650352"/>
<path d="M95.0703 131.231V125.676" stroke="black" stroke-width="0.650352"/>
<path d="M106.338 131.231V125.676" stroke="black" stroke-width="0.650352"/>
<path d="M116.901 131.231V125.676" stroke="black" stroke-width="0.650352"/>
<path d="M128.169 131.231V125.676" stroke="black" stroke-width="0.650352"/>
<path d="M138.732 131.231V125.676" stroke="black" stroke-width="0.650352"/>
<path d="M73.2393 106.155V100.75H150V106.155" stroke="black" stroke-width="0.650352"/>
<path d="M83.8027 106.155V100.75" stroke="black" stroke-width="0.650352"/>
<path d="M95.0703 106.155V100.75" stroke="black" stroke-width="0.650352"/>
<path d="M106.338 106.155V100.75" stroke="black" stroke-width="0.650352"/>
<path d="M116.901 106.155V100.75" stroke="black" stroke-width="0.650352"/>
<path d="M128.169 106.155V100.75" stroke="black" stroke-width="0.650352"/>
<path d="M138.732 106.155V100.75" stroke="black" stroke-width="0.650352"/>
<path d="M73.2393 81.2313V75.6758H150V81.2313" stroke="black" stroke-width="0.650352"/>
<path d="M83.8027 81.2313V75.6758" stroke="black" stroke-width="0.650352"/>
<path d="M95.0703 81.2313V75.6758" stroke="black" stroke-width="0.650352"/>
<path d="M106.338 81.2313V75.6758" stroke="black" stroke-width="0.650352"/>
<path d="M116.901 81.2313V75.6758" stroke="black" stroke-width="0.650352"/>
<path d="M128.169 81.2313V75.6758" stroke="black" stroke-width="0.650352"/>
<path d="M138.732 81.2313V75.6758" stroke="black" stroke-width="0.650352"/>
<path d="M73.2393 56.1554V50.75H150V56.1554" stroke="black" stroke-width="0.650352"/>
<path d="M83.8027 56.1554V50.75" stroke="black" stroke-width="0.650352"/>
<path d="M95.0703 56.1554V50.75" stroke="black" stroke-width="0.650352"/>
<path d="M106.338 56.1554V50.75" stroke="black" stroke-width="0.650352"/>
<path d="M116.901 56.1554V50.75" stroke="black" stroke-width="0.650352"/>
<path d="M128.169 56.1554V50.75" stroke="black" stroke-width="0.650352"/>
<path d="M138.732 56.1554V50.75" stroke="black" stroke-width="0.650352"/>
<path d="M73.2393 31.2313V25.6758H150V31.2313" stroke="black" stroke-width="0.650352"/>
<path d="M83.8027 31.2313V25.6758" stroke="black" stroke-width="0.650352"/>
<path d="M95.0703 31.2313V25.6758" stroke="black" stroke-width="0.650352"/>
<path d="M106.338 31.2313V25.6758" stroke="black" stroke-width="0.650352"/>
<path d="M116.901 31.2313V25.6758" stroke="black" stroke-width="0.650352"/>
<path d="M128.169 31.2313V25.6758" stroke="black" stroke-width="0.650352"/>
<path d="M138.732 31.2313V25.6758" stroke="black" stroke-width="0.650352"/>
<path d="M73.2393 6.15541V0.75H150V6.15541" stroke="black" stroke-width="0.650352"/>
<path d="M83.8027 6.15541V0.75" stroke="black" stroke-width="0.650352"/>
<path d="M95.0703 6.15541V0.75" stroke="black" stroke-width="0.650352"/>
<path d="M106.338 6.15541V0.75" stroke="black" stroke-width="0.650352"/>
<path d="M116.901 6.15541V0.75" stroke="black" stroke-width="0.650352"/>
<path d="M128.169 6.15541V0.75" stroke="black" stroke-width="0.650352"/>
<path d="M138.732 6.15541V0.75" stroke="black" stroke-width="0.650352"/>
<path d="M41.5497 120.872C50.4952 120.872 57.7469 119.326 57.7469 117.418C57.7469 115.511 50.4952 113.965 41.5497 113.965C32.6043 113.965 25.3525 115.511 25.3525 117.418C25.3525 119.326 32.6043 120.872 41.5497 120.872Z" fill="#009900" stroke="black" stroke-width="0.650352"/>
<path d="M38.0282 120.872C46.9737 120.872 54.2254 119.326 54.2254 117.418C54.2254 115.511 46.9737 113.965 38.0282 113.965C29.0828 113.965 21.8311 115.511 21.8311 117.418C21.8311 119.326 29.0828 120.872 38.0282 120.872Z" fill="#00BF00" stroke="black" stroke-width="0.650352"/>
</g>
<defs>
<clipPath id="clip0_2109_169030">
<rect width="150" height="150" fill="white"/>
</clipPath>
</defs>
</svg>
