<svg width="150" height="150" viewBox="0 0 150 150" fill="none" xmlns="http://www.w3.org/2000/svg">
<path d="M131.559 53.3027V68.7682L148.624 84.0835V115.014L114.495 149.249H97.431L86.1466 136.786H63.5778L52.2934 149.249H35.2292L1.37598 115.014V84.0835L18.165 68.7682V53.3027H131.559Z" fill="#8CA0BF"/>
<path d="M120.55 53.1523V68.6178L134.312 84.0833V111.11L108.715 140.69L95.5042 143.242L86.4216 136.786H63.5776L54.7702 143.242L41.284 140.69L15.9629 111.11V84.0833L29.4491 68.768V53.1523H120.55Z" fill="#8599B8"/>
<path d="M109.266 53.1523V68.6178L119.725 84.0833V107.206L102.661 132.131L93.0278 137.537L86.4223 136.786H63.5783L56.9728 137.537L47.3398 132.131L30.5508 107.206V84.0833L40.7343 68.768V53.1523H109.266Z" fill="#7F93B2"/>
<path d="M86.9722 53.3027V68.7682L90.5501 84.0835V115.014L86.1465 136.786H63.5777L59.4492 115.014V84.0835L63.0272 68.7682V53.3027H86.9722Z" fill="#7387A6"/>
<path d="M131.56 68.7695V115.166H148.624V84.235L131.56 68.7695Z" fill="#B2B2E5"/>
<path d="M18.1648 68.7695V115.166H1.10059V84.235L18.1648 68.7695Z" fill="#B2B2E5"/>
<path d="M97.9817 53.1523V68.6178L105.138 84.0833V103.453L96.6056 123.573L90.8258 131.681L86.4221 136.786H63.8533L59.4496 131.681L53.3946 123.573L45.1377 103.453V84.0833L51.7432 68.768V53.1523H97.9817Z" fill="#788CAB"/>
<path d="M57.7979 127.778V124.775" stroke="black" stroke-width="0.406575"/>
<path d="M57.7979 121.622V118.619" stroke="black" stroke-width="0.406575"/>
<path d="M57.7979 115.466V112.312" stroke="black" stroke-width="0.406575"/>
<path d="M57.7979 109.309V106.156" stroke="black" stroke-width="0.406575"/>
<path d="M57.7979 103.003V100" stroke="black" stroke-width="0.406575"/>
<path d="M57.7979 96.8468V93.8438" stroke="black" stroke-width="0.406575"/>
<path d="M57.7979 90.6905V87.6875" stroke="black" stroke-width="0.406575"/>
<path d="M57.7979 84.534V81.3809" stroke="black" stroke-width="0.406575"/>
<path d="M57.7979 78.3778V75.2246" stroke="black" stroke-width="0.406575"/>
<path d="M57.7979 72.0714V69.0684" stroke="black" stroke-width="0.406575"/>
<path d="M57.7979 65.9151V62.9121" stroke="black" stroke-width="0.406575"/>
<path d="M91.9268 127.778V124.775" stroke="black" stroke-width="0.406575"/>
<path d="M91.9268 121.622V118.619" stroke="black" stroke-width="0.406575"/>
<path d="M91.9268 115.466V112.312" stroke="black" stroke-width="0.406575"/>
<path d="M91.9268 109.309V106.156" stroke="black" stroke-width="0.406575"/>
<path d="M91.9268 103.003V100" stroke="black" stroke-width="0.406575"/>
<path d="M91.9268 96.8468V93.8438" stroke="black" stroke-width="0.406575"/>
<path d="M91.9268 90.6905V87.6875" stroke="black" stroke-width="0.406575"/>
<path d="M91.9268 84.534V81.3809" stroke="black" stroke-width="0.406575"/>
<path d="M91.9268 78.3778V75.2246" stroke="black" stroke-width="0.406575"/>
<path d="M91.9268 72.0714V69.0684" stroke="black" stroke-width="0.406575"/>
<path d="M91.9268 65.9151V62.9121" stroke="black" stroke-width="0.406575"/>
<path d="M18.7158 115.466V112.312" stroke="black" stroke-width="0.406575"/>
<path d="M18.7158 109.309V106.156" stroke="black" stroke-width="0.406575"/>
<path d="M18.7158 103.003V100" stroke="black" stroke-width="0.406575"/>
<path d="M18.7158 96.8468V93.8438" stroke="black" stroke-width="0.406575"/>
<path d="M18.7158 90.6905V87.6875" stroke="black" stroke-width="0.406575"/>
<path d="M18.7158 84.534V81.3809" stroke="black" stroke-width="0.406575"/>
<path d="M18.7158 78.3778V75.2246" stroke="black" stroke-width="0.406575"/>
<path d="M18.7158 72.0714V69.0684" stroke="black" stroke-width="0.406575"/>
<path d="M131.009 115.466V112.312" stroke="black" stroke-width="0.406575"/>
<path d="M131.009 109.309V106.156" stroke="black" stroke-width="0.406575"/>
<path d="M131.009 103.003V100" stroke="black" stroke-width="0.406575"/>
<path d="M131.009 96.8468V93.8438" stroke="black" stroke-width="0.406575"/>
<path d="M131.009 90.6905V87.6875" stroke="black" stroke-width="0.406575"/>
<path d="M131.009 84.534V81.3809" stroke="black" stroke-width="0.406575"/>
<path d="M131.009 78.3778V75.2246" stroke="black" stroke-width="0.406575"/>
<path d="M131.009 72.0714V69.0684" stroke="black" stroke-width="0.406575"/>
<path d="M131.56 13.0623V53.1524L18.165 53.3026V13.0623L18.4403 12.6119L25.0458 10.2095L33.0274 8.85811L43.4861 7.95721L51.743 7.35661L60.5504 7.05631L60.8256 2.2515H55.0458V0.75H94.6788V2.2515H88.899L89.1742 7.05631L97.9816 7.35661L106.238 7.95721L116.697 8.85811L124.679 10.2095L131.284 12.6119L131.56 13.0623Z" fill="#FFCC00"/>
<path d="M131.559 13.0623V68.768L148.624 84.0833V115.014L114.495 149.248H97.431L86.1466 136.786H63.5778L52.2934 149.248H35.2292L1.37598 115.014V84.0833L18.165 68.768V13.0623L18.4402 12.6119L25.0457 10.2095L33.0274 8.85811L43.4861 7.95721L51.743 7.35661L60.5503 7.05631L60.8255 2.2515H55.0457V0.75H94.6787V2.2515H88.8989L89.1741 7.05631L97.9815 7.35661L106.238 7.95721L116.697 8.85811L124.679 10.2095L131.284 12.6119L131.559 13.0623Z" stroke="black" stroke-width="0.406575"/>
<path d="M120.275 13.064V53.1541H29.7246V13.064L35.2292 10.061L44.0365 8.55952L53.1191 7.65862L63.5778 6.90787V2.25321H59.1742V0.601562H90.8255V2.25321H86.4219V6.90787L96.8806 7.65862L105.688 8.55952L112.844 9.61057L119.725 12.013L120.275 13.064Z" fill="#FFC400"/>
<path d="M108.991 13.064V53.1541H40.7344V13.064L46.5142 9.61057L53.9454 8.25922L63.5784 7.20817L66.3307 6.90787V2.25321H63.028V0.601562H86.9729V2.25321H83.3949L83.6702 6.90787L91.3766 7.65862L100.184 8.85982L107.065 11.1121L108.991 13.064Z" fill="#FFBF00"/>
<path d="M97.7068 13.064V53.1541H52.2939V13.064L56.9728 9.31027L63.8536 7.65862L69.0829 6.90787L69.3582 2.25321H66.8811V0.601562H82.8444V2.25321H80.6426V6.90787L88.8995 8.25922L95.7802 10.5115L97.7068 13.064Z" fill="#FFB800"/>
<path d="M86.4222 13.0623V53.1524L63.5781 53.3026V13.0623L67.1561 8.55781L72.1102 7.05631V2.2515H71.0093V0.75H78.991V2.2515H77.6148L77.8901 7.05631L83.9451 9.30856L86.4222 13.0623Z" fill="#FFB200"/>
<path d="M44.3115 147.597L45.9629 146.096H49.8161V148.198L45.9629 149.249L44.3115 147.597Z" fill="#990000" stroke="black" stroke-width="0.406575"/>
<path d="M38.257 145.346L40.7341 146.397L40.1836 148.499L36.6056 148.349L35.2295 146.096L38.257 145.346Z" fill="#990000" stroke="black" stroke-width="0.406575"/>
<path d="M53.3941 143.243L50.917 142.042L51.4675 140.09L55.3207 140.24L56.4216 142.492L53.3941 143.243Z" fill="#990000" stroke="black" stroke-width="0.406575"/>
<path d="M40.1833 140.541L43.2108 141.142L44.3117 143.244L40.4585 143.694L37.9814 141.892L40.1833 140.541Z" fill="#990000" stroke="black" stroke-width="0.406575"/>
<path d="M51.743 140.091L48.4403 139.941L46.5137 137.989L49.8164 137.088L53.1192 138.439L51.743 140.091Z" fill="#990000" stroke="black" stroke-width="0.406575"/>
<path d="M47.6143 145.195L48.4399 143.243L51.7427 142.492L53.1188 144.444L50.3666 146.096L47.6143 145.195Z" fill="#990000" stroke="black" stroke-width="0.406575"/>
<path d="M49.8161 141.141L48.9904 142.943L45.6877 143.693L44.3115 141.741L47.0638 140.09L49.8161 141.141Z" fill="#990000" stroke="black" stroke-width="0.406575"/>
<path d="M41.2848 146.847L40.7344 145.045L43.4867 143.693L46.239 145.195L44.5876 147.297L41.2848 146.847Z" fill="#990000" stroke="black" stroke-width="0.406575"/>
<path d="M42.9362 137.537L46.239 137.988L47.3399 139.94L43.7619 140.69L40.7344 139.039L42.9362 137.537Z" fill="#990000" stroke="black" stroke-width="0.406575"/>
<path d="M41.0093 138.738L39.9084 140.54L36.0552 140.991L35.2295 139.039L38.5322 137.537L41.0093 138.738Z" fill="#990000" stroke="black" stroke-width="0.406575"/>
<path d="M29.7246 141.592L30.8255 139.79L34.4035 139.34L35.2292 141.442L31.9264 142.793L29.7246 141.592Z" fill="#990000" stroke="black" stroke-width="0.406575"/>
<path d="M38.5321 142.493V144.445L35.2293 145.496L33.3027 143.844L35.5046 141.742L38.5321 142.493Z" fill="#990000" stroke="black" stroke-width="0.406575"/>
<path d="M59.9995 138.138L58.3482 139.94L54.495 140.09L54.2197 137.988L57.7977 136.787L59.9995 138.138Z" fill="#990000" stroke="black" stroke-width="0.406575"/>
<path d="M104.863 147.597L102.936 146.096H99.083V148.198L102.936 149.249L104.863 147.597Z" fill="#990000" stroke="black" stroke-width="0.406575"/>
<path d="M110.917 145.346L108.165 146.397L108.715 148.499L112.569 148.349L113.67 146.096L110.917 145.346Z" fill="#990000" stroke="black" stroke-width="0.406575"/>
<path d="M95.5041 143.243L97.9811 142.042L97.4307 140.09L93.8527 140.24L92.4766 142.492L95.5041 143.243Z" fill="#990000" stroke="black" stroke-width="0.406575"/>
<path d="M108.991 140.541L105.688 141.142L104.862 143.244L108.44 143.694L111.193 141.892L108.991 140.541Z" fill="#990000" stroke="black" stroke-width="0.406575"/>
<path d="M97.4308 140.091L100.734 139.941L102.66 137.989L99.3574 137.088L96.0547 138.439L97.4308 140.091Z" fill="#990000" stroke="black" stroke-width="0.406575"/>
<path d="M101.56 145.195L100.734 143.243L97.1564 142.492L95.7803 144.444L98.5326 146.096L101.56 145.195Z" fill="#990000" stroke="black" stroke-width="0.406575"/>
<path d="M99.3574 141.141L99.9079 142.943L103.486 143.693L104.862 141.741L101.834 140.09L99.3574 141.141Z" fill="#990000" stroke="black" stroke-width="0.406575"/>
<path d="M107.614 146.847L108.165 145.045L105.413 143.693L102.936 145.195L104.587 147.297L107.614 146.847Z" fill="#990000" stroke="black" stroke-width="0.406575"/>
<path d="M106.238 137.537L102.936 137.988L101.56 139.94L105.138 140.69L108.165 139.039L106.238 137.537Z" fill="#990000" stroke="black" stroke-width="0.406575"/>
<path d="M108.165 138.738L109.266 140.54L113.119 140.991L113.67 139.039L110.642 137.537L108.165 138.738Z" fill="#990000" stroke="black" stroke-width="0.406575"/>
<path d="M119.45 141.592L118.349 139.79L114.496 139.34L113.67 141.442L117.248 142.793L119.45 141.592Z" fill="#990000" stroke="black" stroke-width="0.406575"/>
<path d="M110.367 142.493L110.642 144.445L113.67 145.496L115.597 143.844L113.395 141.742L110.367 142.493Z" fill="#990000" stroke="black" stroke-width="0.406575"/>
<path d="M89.1738 138.138L90.8252 139.94L94.4032 140.09L94.9536 137.988L91.1004 136.787L89.1738 138.138Z" fill="#990000" stroke="black" stroke-width="0.406575"/>
<path d="M122.477 59.0086L122.752 60.8104L125.779 62.0116L127.981 60.2098L125.779 58.2578L122.477 59.0086Z" fill="#990000" stroke="black" stroke-width="0.406575"/>
<path d="M131.559 59.0081L130.458 57.2063L126.88 56.7559L126.055 58.858L129.357 60.2093L131.559 59.0081Z" fill="#990000" stroke="black" stroke-width="0.406575"/>
<path d="M120.275 55.2559L121.376 57.0577L125.23 57.5081L126.055 55.406L122.752 54.0547L120.275 55.2559Z" fill="#990000" stroke="black" stroke-width="0.406575"/>
<path d="M118.349 54.0547L115.046 54.5051L113.67 56.4571L117.248 57.2078L120.551 55.5562L118.349 54.0547Z" fill="#990000" stroke="black" stroke-width="0.406575"/>
<path d="M126.055 54.3538L126.88 56.1556L130.183 56.9063L131.559 54.9544L128.807 53.3027L126.055 54.3538Z" fill="#990000" stroke="black" stroke-width="0.406575"/>
<path d="M121.101 57.0566L117.798 57.6572L116.973 59.6092L120.826 60.0596L123.303 58.2578L121.101 57.0566Z" fill="#990000" stroke="black" stroke-width="0.406575"/>
<path d="M131.559 63.3626L129.633 61.7109H126.055V63.813L129.633 64.8641L131.559 63.3626Z" fill="#990000" stroke="black" stroke-width="0.406575"/>
<path d="M27.2479 59.0086V60.8104L23.9452 62.0116L22.0186 60.2098L24.2204 58.2578L27.2479 59.0086Z" fill="#990000" stroke="black" stroke-width="0.406575"/>
<path d="M18.165 59.0081L19.266 57.2063L23.1192 56.7559L23.9449 58.858L20.3669 60.2093L18.165 59.0081Z" fill="#990000" stroke="black" stroke-width="0.406575"/>
<path d="M29.7251 55.2559L28.349 57.0577L24.4958 57.5081L23.9453 55.406L27.2481 54.0547L29.7251 55.2559Z" fill="#990000" stroke="black" stroke-width="0.406575"/>
<path d="M31.6511 54.0547L34.6786 54.5051L36.0547 56.4571L32.4767 57.2078L29.4492 55.5562L31.6511 54.0547Z" fill="#990000" stroke="black" stroke-width="0.406575"/>
<path d="M23.9449 54.3538L23.1192 56.1556L19.5412 56.9063L18.165 54.9544L21.1926 53.3027L23.9449 54.3538Z" fill="#990000" stroke="black" stroke-width="0.406575"/>
<path d="M28.8989 57.0566L31.9265 57.6572L32.7522 59.6092L29.1742 60.0596L26.4219 58.2578L28.8989 57.0566Z" fill="#990000" stroke="black" stroke-width="0.406575"/>
<path d="M18.165 63.3626L20.0916 61.7109H23.9449V63.813L20.0916 64.8641L18.165 63.3626Z" fill="#990000" stroke="black" stroke-width="0.406575"/>
</svg>
