<svg width="150" height="150" viewBox="0 0 150 150" fill="none" xmlns="http://www.w3.org/2000/svg">
<path d="M1.5752 99.699L42.5201 71.9212V0.75H107.481V71.9212L148.032 99.699H123.622V109.008H139.764V112.011H123.622V149.249H25.9846V112.011H9.84291V109.008H25.9846V99.699H1.5752Z" fill="#4C4C4C"/>
<path d="M14.9609 99.7007L48.0318 71.7727V0.601562H101.575V71.7727L135.04 99.7007H114.961V108.86H128.347V112.013H114.961V149.1H35.0397V112.013H21.6539V108.86H35.0397V99.7007H14.9609Z" fill="#5C5C5C"/>
<path d="M27.9531 99.7007L53.9374 71.7727V0.601562H96.0634V71.7727L122.048 99.7007H106.3V108.86H116.93V112.013H106.3V149.1H43.7012V112.013H33.0712V108.86H43.7012V99.7007H27.9531Z" fill="#6B6B6B"/>
<path d="M40.9453 99.7007L59.8429 71.7727V0.601562H90.1579V71.7727L109.056 99.7007H97.6382V108.86H105.119V112.013H97.6382V149.1H52.3626V112.013H44.4886V108.86H52.3626V99.7007H40.9453Z" fill="#7A7A7A"/>
<path d="M53.9375 99.7007L65.7485 71.7727V0.601562H84.2525V71.7727L96.0635 99.7007H88.9769V108.86H93.7013V112.013H88.9769V149.1H60.6304V112.013H56.2997V108.86H60.6304V99.7007H53.9375Z" fill="#8A8A8A"/>
<path d="M66.5352 99.699L71.2596 71.9212V0.75H78.3462V71.9212L83.0706 99.699H80.3147V109.008H81.8895V112.011H80.3147V149.249H69.2911V112.011H67.7163V109.008H69.2911V99.699H66.5352Z" fill="#999999"/>
<path d="M1.5752 99.6989L42.5201 71.9212V0.75H107.481V71.9212L148.032 99.6989H123.622V109.008H139.764V112.011H123.622V149.248H25.9846V112.011H9.84291V109.008H25.9846V99.6989H1.5752Z" stroke="black" stroke-width="0.486268"/>
<path d="M25.9844 99.6992H123.622V105.855H25.9844V99.6992Z" fill="#333333"/>
<path d="M34.6455 99.6992H114.96V105.855H34.6455V99.6992Z" fill="#424242"/>
<path d="M43.3066 99.6992H106.692V105.855H43.3066V99.6992Z" fill="#525252"/>
<path d="M51.9688 99.6992H98.0317V105.855H51.9688V99.6992Z" fill="#616161"/>
<path d="M60.2363 99.6992H89.7639V105.855H60.2363V99.6992Z" fill="#707070"/>
<path d="M68.8975 99.6992H80.7085V105.855H68.8975V99.6992Z" fill="#7F7F7F"/>
<path d="M42.5195 71.7715H107.086" stroke="black" stroke-width="0.486268"/>
<path d="M25.9844 99.6992H123.622" stroke="black" stroke-width="0.486268"/>
<path d="M25.9844 109.01H123.622" stroke="black" stroke-width="0.486268"/>
<path d="M25.9844 112.012H123.622" stroke="black" stroke-width="0.486268"/>
<path d="M25.9844 105.105H123.622" stroke="#999999" stroke-width="0.486268"/>
<path d="M25.9844 115.916H123.622" stroke="#999999" stroke-width="0.486268"/>
<path d="M13.7793 107.357H18.11V109.009H13.7793V107.357Z" fill="#333333"/>
<path d="M13.7793 112.012H18.11V113.663H13.7793V112.012Z" fill="#333333"/>
<path d="M131.496 107.357H135.827V109.009H131.496V107.357Z" fill="#333333"/>
<path d="M131.496 112.012H135.827V113.663H131.496V112.012Z" fill="#333333"/>
<path d="M54.3311 107.357H58.6618V109.009H54.3311V107.357Z" fill="#333333"/>
<path d="M54.3311 112.012H58.6618V113.663H54.3311V112.012Z" fill="#333333"/>
<path d="M90.9453 107.357H94.8823V109.009H90.9453V107.357Z" fill="#333333"/>
<path d="M90.9453 112.012H94.8823V113.663H90.9453V112.012Z" fill="#333333"/>
</svg>
