<svg width="150" height="150" viewBox="0 0 150 150" fill="none" xmlns="http://www.w3.org/2000/svg">
<g clip-path="url(#clip0_2109_180632)">
<path d="M142.492 141.039L141.441 142.403V150L142.492 148.831V141.039Z" fill="#0000FF" stroke="black" stroke-width="0.342053"/>
<path d="M7.35742 132.664H148.949V140.261H7.35742V132.664Z" fill="#0000FF" stroke="black" stroke-width="0.342053"/>
<path d="M148.949 132.661L150 131.297V138.894L148.949 140.258V132.661Z" fill="#0000FF" stroke="black" stroke-width="0.342053"/>
<path d="M0 142.402H141.441V150H0V142.402Z" fill="#0000FF" stroke="black" stroke-width="0.342053"/>
<path d="M0 142.401H141.441L150 131.297H8.40841L0 142.401Z" fill="#0000AD" stroke="black" stroke-width="0.342053"/>
<path d="M54.2041 22.793H91.7416V136.949H54.2041V22.793Z" fill="#0000BF"/>
<path d="M55.5557 22.793H87.2373V136.949H55.5557V22.793Z" fill="#0000C9"/>
<path d="M57.207 22.793H82.5824V136.949H57.207V22.793Z" fill="#0000D4"/>
<path d="M58.4082 22.793H78.3782V136.949H58.4082V22.793Z" fill="#1F1FDE"/>
<path d="M59.7598 22.793H73.7237V136.949H59.7598V22.793Z" fill="#4040EB"/>
<path d="M60.9609 22.793H69.2192V136.949H60.9609V22.793Z" fill="#6161F5"/>
<path d="M62.3125 22.793H64.5648V136.949H62.3125V22.793Z" fill="#7F7FFF"/>
<path d="M54.2041 22.793H91.7416V136.949H54.2041V22.793Z" stroke="black" stroke-width="0.342053"/>
<path d="M101.502 85.5195H117.268V133.052H101.502V85.5195Z" fill="#0000BF"/>
<path d="M102.252 85.5195H115.315V133.052H102.252V85.5195Z" fill="#0000C9"/>
<path d="M102.853 85.5195H113.663V133.052H102.853V85.5195Z" fill="#0000D4"/>
<path d="M103.453 85.5195H111.711V133.052H103.453V85.5195Z" fill="#1F1FDE"/>
<path d="M103.904 85.5195H109.76V133.052H103.904V85.5195Z" fill="#4040EB"/>
<path d="M104.505 85.5195H108.108V133.052H104.505V85.5195Z" fill="#6161F5"/>
<path d="M105.105 85.5195H106.157V133.052H105.105V85.5195Z" fill="#7F7FFF"/>
<path d="M101.502 85.5195H117.268V133.052H101.502V85.5195Z" stroke="black" stroke-width="0.342053"/>
<path d="M101.502 85.9104L103.904 86.3H115.015L116.667 85.9104H117.268V85.1311L115.916 84.3519L113.964 83.3779H112.613L111.112 82.9883H107.808L106.457 83.3779H105.106L103.904 83.7675L102.253 84.7415L101.502 85.9104Z" fill="#0000AD" stroke="#7F7F7F" stroke-width="0.342053"/>
<path d="M96.9971 1.16797H121.922V74.6095L112.613 84.3498H106.457L96.9971 74.6095V1.16797Z" fill="#8282A1"/>
<path d="M97.2969 1.16797H119.519V74.6095L112.012 84.3498H106.456L97.2969 74.6095V1.16797Z" fill="#8A8CAB"/>
<path d="M97.8975 1.16797H117.267V74.6095L111.711 84.3498H106.756L97.8975 74.6095V1.16797Z" fill="#8F96B5"/>
<path d="M98.3486 1.16797H115.015V74.6095L111.412 84.3498H107.057L98.3486 74.6095V1.16797Z" fill="#96A0BF"/>
<path d="M98.6484 1.16797H113.063V74.6095L111.111 84.3498H107.507L98.6484 74.6095V1.16797Z" fill="#9BAAC9"/>
<path d="M98.9492 1.16797H110.661V74.6095V84.3498H107.808L98.9492 74.6095V1.16797Z" fill="#A6B7D6"/>
<path d="M99.249 1.16797H108.408V74.6095L110.36 84.3498H108.108L99.249 74.6095V1.16797Z" fill="#AAC1E0"/>
<path d="M99.5498 1.16797H106.156V74.6095L110.06 84.3498H108.108L99.5498 74.6095V1.16797Z" fill="#B3CCEB"/>
<path d="M99.8496 1.16797H103.904V74.6095L109.76 84.3498H108.408L99.8496 74.6095V1.16797Z" fill="#B8D6F5"/>
<path d="M100.301 1.16797H101.502V74.6095L109.46 84.3498H108.709L100.301 74.6095V1.16797Z" fill="#BFE0FF"/>
<path d="M96.9971 1.16797H121.922V74.6095L112.613 84.3498H106.457L96.9971 74.6095V1.16797Z" stroke="black" stroke-width="0.342053"/>
<path d="M109.46 75.5838C116.342 75.5838 121.922 75.0605 121.922 74.4149C121.922 73.7694 116.342 73.2461 109.46 73.2461C102.577 73.2461 96.9971 73.7694 96.9971 74.4149C96.9971 75.0605 102.577 75.5838 109.46 75.5838Z" fill="#6666FF" stroke="black" stroke-width="0.342053"/>
<path d="M109.46 1.94805C116.342 1.94805 121.922 1.51197 121.922 0.974026C121.922 0.436086 116.342 0 109.46 0C102.577 0 96.9971 0.436086 96.9971 0.974026C96.9971 1.51197 102.577 1.94805 109.46 1.94805Z" fill="#70707F" stroke="black" stroke-width="0.342053"/>
<path d="M109.309 84.5448C111.051 84.5448 112.463 84.3704 112.463 84.1552C112.463 83.9401 111.051 83.7656 109.309 83.7656C107.568 83.7656 106.156 83.9401 106.156 84.1552C106.156 84.3704 107.568 84.5448 109.309 84.5448Z" fill="black" stroke="black" stroke-width="0.342053"/>
<path d="M93.6934 5.84375H96.6964V138.506H93.6934V5.84375Z" fill="#0000FF" stroke="black" stroke-width="0.342053"/>
<path d="M103.453 115.324L107.057 116.103L110.06 118.636L112.012 122.337L113.063 127.013L112.012 131.688L109.459 136.363L96.2461 119.805L100.3 116.103L103.453 115.324Z" fill="#B2B2B2" stroke="#7F7F7F" stroke-width="0.342053"/>
<path d="M102.853 140.063C107.911 140.063 112.012 134.743 112.012 128.18C112.012 121.617 107.911 116.297 102.853 116.297C97.7941 116.297 93.6934 121.617 93.6934 128.18C93.6934 134.743 97.7941 140.063 102.853 140.063Z" fill="#B2B2B2" stroke="#7F7F7F" stroke-width="0.342053"/>
<path d="M102.853 136.168C106.501 136.168 109.459 132.505 109.459 127.987C109.459 123.468 106.501 119.805 102.853 119.805C99.204 119.805 96.2461 123.468 96.2461 127.987C96.2461 132.505 99.204 136.168 102.853 136.168Z" fill="#B2B2B2" stroke="#7F7F7F" stroke-width="0.342053"/>
<path d="M102.853 133.247C105.009 133.247 106.757 130.979 106.757 128.182C106.757 125.385 105.009 123.117 102.853 123.117C100.697 123.117 98.9492 125.385 98.9492 128.182C98.9492 130.979 100.697 133.247 102.853 133.247Z" fill="#B2B2B2" stroke="#7F7F7F" stroke-width="0.342053"/>
<path d="M102.853 126.625L103.454 127.015L104.205 128.378L103.454 129.157L102.853 129.547L101.952 129.157L101.502 128.378L101.952 127.015L102.853 126.625Z" fill="#B2B2B2" stroke="#7F7F7F" stroke-width="0.342053"/>
<path d="M4.80469 92.3359H45.3452V141.427H4.80469V92.3359Z" fill="#F0F0F0"/>
<path d="M45.3452 96.2344L4.80469 135.975V141.429H45.3452V96.2344Z" fill="#E5E5E5"/>
<path d="M45.3452 114.352L17.5674 141.429H45.3452V114.352Z" fill="#E0E0E0"/>
<path d="M45.3456 127.598L31.2314 141.429H45.3456V127.598Z" fill="#CCCCCC"/>
<path d="M4.80469 92.3359H45.3452V141.427H4.80469V92.3359Z" stroke="black" stroke-width="0.342053"/>
<path d="M52.2526 82.9883L45.3457 92.3389V141.43L52.2526 132.274V82.9883Z" fill="#E0E0E0" stroke="black" stroke-width="0.342053"/>
<path d="M4.80469 92.3389H45.3452L52.2521 82.9883H12.0119L4.80469 92.3389Z" fill="#F0F0F0" stroke="black" stroke-width="0.342053"/>
<path d="M9.75982 97.793L11.4115 98.767L12.0121 100.91L11.4115 102.858L9.75982 103.442L8.10817 102.858L7.35742 100.91L8.10817 98.767L9.75982 97.793Z" fill="black" stroke="black" stroke-width="0.342053"/>
<path d="M19.5198 97.793L21.1715 98.767L21.7721 100.91L21.1715 102.858L19.5198 103.442L17.8682 102.858L17.2676 100.91L17.8682 98.767L19.5198 97.793Z" fill="black" stroke="black" stroke-width="0.342053"/>
<path d="M29.5791 97.793L31.2308 98.767L31.9815 100.91L31.2308 102.858L29.5791 103.442L28.3779 102.858L27.7773 100.91L28.3779 98.767L29.5791 97.793Z" fill="black" stroke="black" stroke-width="0.342053"/>
<path d="M40.0901 97.793L38.4385 98.767L37.8379 100.91L38.4385 102.858L40.0901 103.442L41.4415 102.858L42.0421 100.91L41.4415 98.767L40.0901 97.793Z" fill="black" stroke="black" stroke-width="0.342053"/>
<path d="M21.4715 127.012L20.1201 127.986L19.5195 130.129L20.1201 131.687L21.4715 132.661L23.1231 131.687L23.7237 130.129L23.1231 127.986L21.4715 127.012Z" fill="black" stroke="black" stroke-width="0.342053"/>
<path d="M28.9788 127.012L27.3272 127.986L26.7266 130.129L27.3272 131.687L28.9788 132.661L30.6305 131.687L30.9308 130.129L30.6305 127.986L28.9788 127.012Z" fill="black" stroke="black" stroke-width="0.342053"/>
<path d="M21.472 127.988L20.5711 128.378L19.8203 130.131L20.5711 131.3L21.472 132.274L22.8233 131.3L23.1236 130.131L22.8233 128.378L21.472 127.988Z" fill="#FF0000"/>
<path d="M28.9788 127.988L27.7776 128.378L27.3271 130.131L27.7776 131.3L28.9788 132.274L30.0299 131.3L30.6305 130.131L30.0299 128.378L28.9788 127.988Z" fill="#00FF00"/>
<path d="M10.3606 98.7656L10.9612 99.1552L9.00928 102.857L8.70898 102.467L10.3606 98.7656Z" fill="#E0E0E0"/>
<path d="M20.1197 98.7656L20.8704 99.1552L18.9185 102.857L18.6182 102.467L20.1197 98.7656Z" fill="#E0E0E0"/>
<path d="M30.3304 98.7656L30.931 99.1552L28.979 102.857L28.6787 102.467L30.3304 98.7656Z" fill="#E0E0E0"/>
<path d="M39.1887 98.7656L38.7383 99.1552L40.8404 102.857L41.1407 102.467L39.1887 98.7656Z" fill="#E0E0E0"/>
<path d="M20.1201 110.066H30.03L28.6787 117.469H22.2222L20.1201 110.066Z" fill="black"/>
<path d="M20.8711 110.648H29.4297L28.6789 114.739H22.2224L20.8711 110.648Z" fill="white" stroke="black" stroke-width="0.342053"/>
<path d="M26.1262 111.816L25.0752 114.738" stroke="black" stroke-width="0.342053"/>
<path d="M21.4717 111.039V111.818" stroke="black" stroke-width="0.342053"/>
<path d="M22.5225 111.039V111.818" stroke="black" stroke-width="0.342053"/>
<path d="M23.4238 111.039V111.818" stroke="black" stroke-width="0.342053"/>
<path d="M24.4746 111.039V111.818" stroke="black" stroke-width="0.342053"/>
<path d="M25.0752 111.039V111.818" stroke="black" stroke-width="0.342053"/>
<path d="M26.126 111.039V111.818" stroke="black" stroke-width="0.342053"/>
<path d="M27.0273 111.039V111.818" stroke="black" stroke-width="0.342053"/>
<path d="M27.9277 111.039V111.818" stroke="black" stroke-width="0.342053"/>
<path d="M28.9785 111.039V111.818" stroke="black" stroke-width="0.342053"/>
<path d="M124.774 55.9102H129.279V135.975H124.774V55.9102Z" fill="#0000E0" stroke="black" stroke-width="0.342053"/>
<path d="M140.39 61.3633L140.841 62.7269V74.2204L140.09 75.7789V76.1685L139.189 76.7529H133.183L131.982 75.7789L131.832 75.3893L131.682 74.2204V61.3633H129.279V80.0646H143.093V61.3633H140.39Z" fill="#0000E0" stroke="black" stroke-width="0.342053"/>
</g>
<defs>
<clipPath id="clip0_2109_180632">
<rect width="150" height="150" fill="white"/>
</clipPath>
</defs>
</svg>
