<svg width="150" height="150" viewBox="0 0 150 150" fill="none" xmlns="http://www.w3.org/2000/svg">
<g clip-path="url(#clip0_2109_234973)">
<path d="M20.6475 140.844H129.048V142.345H20.6475V140.844Z" fill="black" stroke="black" stroke-width="0.427046"/>
<path d="M29.4531 44.4453H119.332V46.3973H29.4531V44.4453Z" fill="black" stroke="black" stroke-width="0.427046"/>
<path d="M15.1826 0H134.515V44.4444H15.1826V0Z" fill="#E5E5E5" stroke="black" stroke-width="0.427046"/>
<path d="M29.4531 46.3984H119.332V125.678H29.4531V46.3984Z" fill="#E5E5E5" stroke="black" stroke-width="0.427046"/>
<path d="M0 125.672H150V140.837H0V125.672Z" fill="#E5E5E5" stroke="black" stroke-width="0.427046"/>
<path d="M23.9883 3.45312H125.102V32.4321H23.9883V3.45312Z" fill="#666666" stroke="black" stroke-width="0.427046"/>
<path d="M0 140.844H20.6478V145.198H0V140.844Z" fill="#CCCCCC" stroke="black" stroke-width="0.427046"/>
<path d="M0 145.195H20.6478V150H0V145.195Z" fill="#CCCCCC" stroke="black" stroke-width="0.427046"/>
<path d="M129.049 140.844H150V145.198H129.049V140.844Z" fill="#CCCCCC" stroke="black" stroke-width="0.427046"/>
<path d="M129.049 145.195H150V150H129.049V145.195Z" fill="#CCCCCC" stroke="black" stroke-width="0.427046"/>
<path d="M88.0566 10.9609H96.8623V13.8138H88.0566V10.9609Z" fill="#B2B2B2" stroke="black" stroke-width="0.427046"/>
<path d="M88.0566 15.0156H96.8623V17.8685H88.0566V15.0156Z" fill="#B2B2B2" stroke="black" stroke-width="0.427046"/>
<path d="M88.0566 18.9219H96.8623V21.7747H88.0566V18.9219Z" fill="#B2B2B2" stroke="black" stroke-width="0.427046"/>
<path d="M88.0566 22.9766H96.8623V25.6793H88.0566V22.9766Z" fill="#B2B2B2" stroke="black" stroke-width="0.427046"/>
<path d="M74.3926 10.9609H84.1092V13.8138H74.3926V10.9609Z" fill="#7F7F7F" stroke="black" stroke-width="0.427046"/>
<path d="M84.1092 17.4154H74.3926V14.5625H84.1092V17.4154Z" fill="#7F7F7F" stroke="black" stroke-width="0.427046"/>
<path d="M74.3926 22.9766H84.1092V25.6793H74.3926V22.9766Z" fill="#7F7F7F" stroke="black" stroke-width="0.427046"/>
<path d="M53.7451 22.9766H63.1581V25.6793H53.7451V22.9766Z" fill="#7F7F7F" stroke="black" stroke-width="0.427046"/>
<path d="M100.81 16.6641H116.295V20.1175H100.81V16.6641Z" fill="#7F7F7F" stroke="black" stroke-width="0.427046"/>
<path d="M76.8223 13.366L79.2514 11.4141L81.6806 13.366H76.8223Z" fill="#E5E5E5" stroke="black" stroke-width="0.427046"/>
<path d="M81.6806 15.0156L79.2514 16.9676L76.8223 15.0156H81.6806Z" fill="#E5E5E5" stroke="black" stroke-width="0.427046"/>
<path d="M33.7041 22.9766H43.1171V25.6793H33.7041V22.9766Z" fill="#CCCCCC" stroke="black" stroke-width="0.427046"/>
<path d="M100.81 10.9609H116.295V14.5645H100.81V10.9609Z" fill="#CCCCCC" stroke="black" stroke-width="0.427046"/>
<path d="M100.81 22.0703H116.295V25.6739H100.81V22.0703Z" fill="#CCCCCC" stroke="black" stroke-width="0.427046"/>
<path d="M68.9268 10.9609H33.7041V18.6186H68.9268V10.9609Z" fill="#999999" stroke="black" stroke-width="0.427046"/>
<path d="M31.8828 57.5095H117.814V46.3984H31.8828V57.5095Z" fill="#D9D9D9"/>
</g>
<defs>
<clipPath id="clip0_2109_234973">
<rect width="150" height="150" fill="white"/>
</clipPath>
</defs>
</svg>
