<svg width="150" height="150" viewBox="0 0 150 150" fill="none" xmlns="http://www.w3.org/2000/svg">
<g clip-path="url(#clip0_2109_237980)">
<path d="M0 82.4297H150" stroke="black" stroke-width="1.51987"/>
<path d="M0 89.9375H150" stroke="black" stroke-width="1.51987"/>
<path d="M0 97.4453H150" stroke="black" stroke-width="1.51987"/>
<path d="M0 104.953H150" stroke="black" stroke-width="1.51987"/>
<path d="M0 112.461H150" stroke="black" stroke-width="1.51987"/>
<path d="M0 119.969H150" stroke="black" stroke-width="1.51987"/>
<path d="M0 127.477H150" stroke="black" stroke-width="1.51987"/>
<path d="M0 134.984H150" stroke="black" stroke-width="1.51987"/>
<path d="M0 142.492H150" stroke="black" stroke-width="1.51987"/>
<path d="M34.6152 75.8281H111.538" stroke="black" stroke-width="1.51987"/>
<path d="M34.6152 83.1797H111.538" stroke="black" stroke-width="1.51987"/>
<path d="M34.6152 90.6875H111.538" stroke="black" stroke-width="1.51987"/>
<path d="M34.6152 98.1953H111.538" stroke="black" stroke-width="1.51987"/>
<path d="M34.6152 105.703H111.538" stroke="black" stroke-width="1.51987"/>
<path d="M34.6152 113.211H111.538" stroke="black" stroke-width="1.51987"/>
<path d="M34.6152 120.719H111.538" stroke="black" stroke-width="1.51987"/>
<path d="M34.6152 128.227H111.538" stroke="black" stroke-width="1.51987"/>
<path d="M34.6152 135.734H111.538" stroke="black" stroke-width="1.51987"/>
<path d="M34.6152 143.242H111.538" stroke="black" stroke-width="1.51987"/>
<path d="M34.6152 76.5781H111.538" stroke="black" stroke-width="1.51987"/>
<path d="M34.6152 83.9375H111.538" stroke="black" stroke-width="1.51987"/>
<path d="M34.6152 91.4453H111.538" stroke="black" stroke-width="1.51987"/>
<path d="M34.6152 98.9453H111.538" stroke="black" stroke-width="1.51987"/>
<path d="M34.6152 106.453H111.538" stroke="black" stroke-width="1.51987"/>
<path d="M34.6152 113.961H111.538" stroke="black" stroke-width="1.51987"/>
<path d="M34.6152 121.469H111.538" stroke="black" stroke-width="1.51987"/>
<path d="M34.6152 128.977H111.538" stroke="black" stroke-width="1.51987"/>
<path d="M34.6152 136.484H111.538" stroke="black" stroke-width="1.51987"/>
<path d="M34.6152 143.992H111.538" stroke="black" stroke-width="1.51987"/>
<path d="M34.6152 77.3281H111.538" stroke="black" stroke-width="1.51987"/>
<path d="M34.6152 84.6875H111.538" stroke="black" stroke-width="1.51987"/>
<path d="M34.6152 92.1953H111.538" stroke="black" stroke-width="1.51987"/>
<path d="M34.6152 99.7031H111.538" stroke="black" stroke-width="1.51987"/>
<path d="M34.6152 107.211H111.538" stroke="black" stroke-width="1.51987"/>
<path d="M34.6152 114.711H111.538" stroke="black" stroke-width="1.51987"/>
<path d="M34.6152 122.219H111.538" stroke="black" stroke-width="1.51987"/>
<path d="M34.6152 129.727H111.538" stroke="black" stroke-width="1.51987"/>
<path d="M34.6152 137.234H111.538" stroke="black" stroke-width="1.51987"/>
<path d="M34.6152 144.742H111.538" stroke="black" stroke-width="1.51987"/>
<path d="M34.6152 78.0781H111.538" stroke="black" stroke-width="1.51987"/>
<path d="M34.6152 85.4375H111.538" stroke="black" stroke-width="1.51987"/>
<path d="M34.6152 92.9453H111.538" stroke="black" stroke-width="1.51987"/>
<path d="M34.6152 100.453H111.538" stroke="black" stroke-width="1.51987"/>
<path d="M34.6152 107.961H111.538" stroke="black" stroke-width="1.51987"/>
<path d="M34.6152 115.469H111.538" stroke="black" stroke-width="1.51987"/>
<path d="M34.6152 122.977H111.538" stroke="black" stroke-width="1.51987"/>
<path d="M34.6152 130.484H111.538" stroke="black" stroke-width="1.51987"/>
<path d="M34.6152 137.984H111.538" stroke="black" stroke-width="1.51987"/>
<path d="M34.6152 145.492H111.538" stroke="black" stroke-width="1.51987"/>
<path d="M34.6152 78.8281H111.538" stroke="black" stroke-width="1.51987"/>
<path d="M34.6152 86.1875H111.538" stroke="black" stroke-width="1.51987"/>
<path d="M34.6152 93.6953H111.538" stroke="black" stroke-width="1.51987"/>
<path d="M34.6152 101.203H111.538" stroke="black" stroke-width="1.51987"/>
<path d="M34.6152 108.711H111.538" stroke="black" stroke-width="1.51987"/>
<path d="M34.6152 116.219H111.538" stroke="black" stroke-width="1.51987"/>
<path d="M34.6152 123.727H111.538" stroke="black" stroke-width="1.51987"/>
<path d="M34.6152 131.234H111.538" stroke="black" stroke-width="1.51987"/>
<path d="M34.6152 138.742H111.538" stroke="black" stroke-width="1.51987"/>
<path d="M34.6152 146.25H111.538" stroke="black" stroke-width="1.51987"/>
<path d="M34.6152 79.5781H111.538" stroke="black" stroke-width="1.51987"/>
<path d="M34.6152 86.9375H111.538" stroke="black" stroke-width="1.51987"/>
<path d="M34.6152 94.4453H111.538" stroke="black" stroke-width="1.51987"/>
<path d="M34.6152 101.953H111.538" stroke="black" stroke-width="1.51987"/>
<path d="M34.6152 109.461H111.538" stroke="black" stroke-width="1.51987"/>
<path d="M34.6152 116.969H111.538" stroke="black" stroke-width="1.51987"/>
<path d="M34.6152 124.477H111.538" stroke="black" stroke-width="1.51987"/>
<path d="M34.6152 131.984H111.538" stroke="black" stroke-width="1.51987"/>
<path d="M34.6152 139.492H111.538" stroke="black" stroke-width="1.51987"/>
<path d="M34.6152 147H111.538" stroke="black" stroke-width="1.51987"/>
<path d="M34.6152 80.3281H111.538" stroke="black" stroke-width="1.51987"/>
<path d="M34.6152 87.6875H111.538" stroke="black" stroke-width="1.51987"/>
<path d="M34.6152 95.1953H111.538" stroke="black" stroke-width="1.51987"/>
<path d="M34.6152 102.703H111.538" stroke="black" stroke-width="1.51987"/>
<path d="M34.6152 110.211H111.538" stroke="black" stroke-width="1.51987"/>
<path d="M34.6152 117.719H111.538" stroke="black" stroke-width="1.51987"/>
<path d="M34.6152 125.227H111.538" stroke="black" stroke-width="1.51987"/>
<path d="M34.6152 132.734H111.538" stroke="black" stroke-width="1.51987"/>
<path d="M34.6152 140.242H111.538" stroke="black" stroke-width="1.51987"/>
<path d="M34.6152 147.75H111.538" stroke="black" stroke-width="1.51987"/>
<path d="M34.6152 81.0781H111.538" stroke="black" stroke-width="1.51987"/>
<path d="M34.6152 88.4375H111.538" stroke="black" stroke-width="1.51987"/>
<path d="M34.6152 95.9453H111.538" stroke="black" stroke-width="1.51987"/>
<path d="M34.6152 103.453H111.538" stroke="black" stroke-width="1.51987"/>
<path d="M34.6152 110.961H111.538" stroke="black" stroke-width="1.51987"/>
<path d="M34.6152 118.469H111.538" stroke="black" stroke-width="1.51987"/>
<path d="M34.6152 125.977H111.538" stroke="black" stroke-width="1.51987"/>
<path d="M34.6152 133.484H111.538" stroke="black" stroke-width="1.51987"/>
<path d="M34.6152 140.992H111.538" stroke="black" stroke-width="1.51987"/>
<path d="M34.6152 148.5H111.538" stroke="black" stroke-width="1.51987"/>
<path d="M34.6152 81.8281H111.538" stroke="black" stroke-width="1.51987"/>
<path d="M34.6152 89.1875H111.538" stroke="black" stroke-width="1.51987"/>
<path d="M34.6152 96.6953H111.538" stroke="black" stroke-width="1.51987"/>
<path d="M34.6152 104.203H111.538" stroke="black" stroke-width="1.51987"/>
<path d="M34.6152 111.711H111.538" stroke="black" stroke-width="1.51987"/>
<path d="M34.6152 119.219H111.538" stroke="black" stroke-width="1.51987"/>
<path d="M34.6152 126.727H111.538" stroke="black" stroke-width="1.51987"/>
<path d="M34.6152 134.234H111.538" stroke="black" stroke-width="1.51987"/>
<path d="M34.6152 141.742H111.538" stroke="black" stroke-width="1.51987"/>
<path d="M0 0H150" stroke="black" stroke-width="1.51987"/>
<path d="M0 75.0781H150" stroke="black" stroke-width="1.51987"/>
<path d="M0 7.35938H150" stroke="black" stroke-width="1.51987"/>
<path d="M0 14.8672H150" stroke="black" stroke-width="1.51987"/>
<path d="M0 22.375H150" stroke="black" stroke-width="1.51987"/>
<path d="M0 29.8828H150" stroke="black" stroke-width="1.51987"/>
<path d="M0 37.3906H150" stroke="black" stroke-width="1.51987"/>
<path d="M0 44.8984H150" stroke="black" stroke-width="1.51987"/>
<path d="M0 52.4062H150" stroke="black" stroke-width="1.51987"/>
<path d="M0 59.9062H150" stroke="black" stroke-width="1.51987"/>
<path d="M0 67.4141H150" stroke="black" stroke-width="1.51987"/>
<path d="M34.6152 0.601562H111.538" stroke="black" stroke-width="1.51987"/>
<path d="M34.6152 8.10938H111.538" stroke="black" stroke-width="1.51987"/>
<path d="M34.6152 15.6172H111.538" stroke="black" stroke-width="1.51987"/>
<path d="M34.6152 23.125H111.538" stroke="black" stroke-width="1.51987"/>
<path d="M34.6152 30.6328H111.538" stroke="black" stroke-width="1.51987"/>
<path d="M34.6152 38.1406H111.538" stroke="black" stroke-width="1.51987"/>
<path d="M34.6152 45.6484H111.538" stroke="black" stroke-width="1.51987"/>
<path d="M34.6152 53.1562H111.538" stroke="black" stroke-width="1.51987"/>
<path d="M34.6152 60.6641H111.538" stroke="black" stroke-width="1.51987"/>
<path d="M34.6152 68.1719H111.538" stroke="black" stroke-width="1.51987"/>
<path d="M34.6152 1.35156H111.538" stroke="black" stroke-width="1.51987"/>
<path d="M34.6152 8.85938H111.538" stroke="black" stroke-width="1.51987"/>
<path d="M34.6152 16.3672H111.538" stroke="black" stroke-width="1.51987"/>
<path d="M34.6152 23.875H111.538" stroke="black" stroke-width="1.51987"/>
<path d="M34.6152 31.3828H111.538" stroke="black" stroke-width="1.51987"/>
<path d="M34.6152 38.8906H111.538" stroke="black" stroke-width="1.51987"/>
<path d="M34.6152 46.3984H111.538" stroke="black" stroke-width="1.51987"/>
<path d="M34.6152 53.9062H111.538" stroke="black" stroke-width="1.51987"/>
<path d="M34.6152 61.4141H111.538" stroke="black" stroke-width="1.51987"/>
<path d="M34.6152 68.9219H111.538" stroke="black" stroke-width="1.51987"/>
<path d="M34.6152 2.10156H111.538" stroke="black" stroke-width="1.51987"/>
<path d="M34.6152 9.60938H111.538" stroke="black" stroke-width="1.51987"/>
<path d="M34.6152 17.1172H111.538" stroke="black" stroke-width="1.51987"/>
<path d="M34.6152 24.625H111.538" stroke="black" stroke-width="1.51987"/>
<path d="M34.6152 32.1328H111.538" stroke="black" stroke-width="1.51987"/>
<path d="M34.6152 39.6406H111.538" stroke="black" stroke-width="1.51987"/>
<path d="M34.6152 47.1484H111.538" stroke="black" stroke-width="1.51987"/>
<path d="M34.6152 54.6562H111.538" stroke="black" stroke-width="1.51987"/>
<path d="M34.6152 62.1641H111.538" stroke="black" stroke-width="1.51987"/>
<path d="M34.6152 69.6719H111.538" stroke="black" stroke-width="1.51987"/>
<path d="M34.6152 2.85156H111.538" stroke="black" stroke-width="1.51987"/>
<path d="M34.6152 10.3594H111.538" stroke="black" stroke-width="1.51987"/>
<path d="M34.6152 17.8672H111.538" stroke="black" stroke-width="1.51987"/>
<path d="M34.6152 25.375H111.538" stroke="black" stroke-width="1.51987"/>
<path d="M34.6152 32.8828H111.538" stroke="black" stroke-width="1.51987"/>
<path d="M34.6152 40.3906H111.538" stroke="black" stroke-width="1.51987"/>
<path d="M34.6152 47.8984H111.538" stroke="black" stroke-width="1.51987"/>
<path d="M34.6152 55.4062H111.538" stroke="black" stroke-width="1.51987"/>
<path d="M34.6152 62.9141H111.538" stroke="black" stroke-width="1.51987"/>
<path d="M34.6152 70.4219H111.538" stroke="black" stroke-width="1.51987"/>
<path d="M34.6152 3.60156H111.538" stroke="black" stroke-width="1.51987"/>
<path d="M34.6152 11.1094H111.538" stroke="black" stroke-width="1.51987"/>
<path d="M34.6152 18.6172H111.538" stroke="black" stroke-width="1.51987"/>
<path d="M34.6152 26.125H111.538" stroke="black" stroke-width="1.51987"/>
<path d="M34.6152 33.6328H111.538" stroke="black" stroke-width="1.51987"/>
<path d="M34.6152 41.1406H111.538" stroke="black" stroke-width="1.51987"/>
<path d="M34.6152 48.6484H111.538" stroke="black" stroke-width="1.51987"/>
<path d="M34.6152 56.1562H111.538" stroke="black" stroke-width="1.51987"/>
<path d="M34.6152 63.6641H111.538" stroke="black" stroke-width="1.51987"/>
<path d="M34.6152 71.1719H111.538" stroke="black" stroke-width="1.51987"/>
<path d="M34.6152 4.35156H111.538" stroke="black" stroke-width="1.51987"/>
<path d="M34.6152 11.8594H111.538" stroke="black" stroke-width="1.51987"/>
<path d="M34.6152 19.3672H111.538" stroke="black" stroke-width="1.51987"/>
<path d="M34.6152 26.875H111.538" stroke="black" stroke-width="1.51987"/>
<path d="M34.6152 34.3828H111.538" stroke="black" stroke-width="1.51987"/>
<path d="M34.6152 41.8906H111.538" stroke="black" stroke-width="1.51987"/>
<path d="M34.6152 49.3984H111.538" stroke="black" stroke-width="1.51987"/>
<path d="M34.6152 56.9062H111.538" stroke="black" stroke-width="1.51987"/>
<path d="M34.6152 64.4141H111.538" stroke="black" stroke-width="1.51987"/>
<path d="M34.6152 71.9219H111.538" stroke="black" stroke-width="1.51987"/>
<path d="M34.6152 5.10156H111.538" stroke="black" stroke-width="1.51987"/>
<path d="M34.6152 12.6094H111.538" stroke="black" stroke-width="1.51987"/>
<path d="M34.6152 20.1172H111.538" stroke="black" stroke-width="1.51987"/>
<path d="M34.6152 27.625H111.538" stroke="black" stroke-width="1.51987"/>
<path d="M34.6152 35.1328H111.538" stroke="black" stroke-width="1.51987"/>
<path d="M34.6152 42.6406H111.538" stroke="black" stroke-width="1.51987"/>
<path d="M34.6152 50.1484H111.538" stroke="black" stroke-width="1.51987"/>
<path d="M34.6152 57.6562H111.538" stroke="black" stroke-width="1.51987"/>
<path d="M34.6152 65.1641H111.538" stroke="black" stroke-width="1.51987"/>
<path d="M34.6152 72.6719H111.538" stroke="black" stroke-width="1.51987"/>
<path d="M34.6152 5.85938H111.538" stroke="black" stroke-width="1.51987"/>
<path d="M34.6152 13.3672H111.538" stroke="black" stroke-width="1.51987"/>
<path d="M34.6152 20.8672H111.538" stroke="black" stroke-width="1.51987"/>
<path d="M34.6152 28.375H111.538" stroke="black" stroke-width="1.51987"/>
<path d="M34.6152 35.8828H111.538" stroke="black" stroke-width="1.51987"/>
<path d="M34.6152 43.3906H111.538" stroke="black" stroke-width="1.51987"/>
<path d="M34.6152 50.8984H111.538" stroke="black" stroke-width="1.51987"/>
<path d="M34.6152 58.4062H111.538" stroke="black" stroke-width="1.51987"/>
<path d="M34.6152 65.9141H111.538" stroke="black" stroke-width="1.51987"/>
<path d="M34.6152 73.4219H111.538" stroke="black" stroke-width="1.51987"/>
<path d="M34.6152 6.60938H111.538" stroke="black" stroke-width="1.51987"/>
<path d="M34.6152 14.1172H111.538" stroke="black" stroke-width="1.51987"/>
<path d="M34.6152 21.625H111.538" stroke="black" stroke-width="1.51987"/>
<path d="M34.6152 29.1328H111.538" stroke="black" stroke-width="1.51987"/>
<path d="M34.6152 36.6328H111.538" stroke="black" stroke-width="1.51987"/>
<path d="M34.6152 44.1406H111.538" stroke="black" stroke-width="1.51987"/>
<path d="M34.6152 51.6484H111.538" stroke="black" stroke-width="1.51987"/>
<path d="M34.6152 59.1562H111.538" stroke="black" stroke-width="1.51987"/>
<path d="M34.6152 66.6641H111.538" stroke="black" stroke-width="1.51987"/>
<path d="M34.6152 74.1719H111.538" stroke="black" stroke-width="1.51987"/>
<path d="M34.6152 149.25H111.538" stroke="black" stroke-width="1.51987"/>
<path d="M0 150H150" stroke="black" stroke-width="1.51987"/>
</g>
<defs>
<clipPath id="clip0_2109_237980">
<rect width="150" height="150" fill="white"/>
</clipPath>
</defs>
</svg>
