<svg width="150" height="150" viewBox="0 0 150 150" fill="none" xmlns="http://www.w3.org/2000/svg">
<g clip-path="url(#clip0_2109_234960)">
<path d="M133.5 139.377V149.996L147.6 108.846V98.2266L133.5 139.377Z" fill="#333333" stroke="black" stroke-width="1.26211"/>
<path d="M1.2002 57.0801L15.3002 15.9297H148.8L134.7 57.0801H1.2002Z" fill="#E5E5E5" stroke="black" stroke-width="1.26211"/>
<path d="M2.40039 139.383V150.002H133.5V139.383H2.40039Z" fill="#666666" stroke="black" stroke-width="1.26211"/>
<path d="M19.7998 41.1484V46.4582H116.1V41.1484H19.7998Z" fill="black" stroke="black" stroke-width="1.26211"/>
<path d="M116.1 46.4634L123 26.5519V21.2422L116.1 41.1537V46.4634Z" fill="black" stroke="black" stroke-width="1.26211"/>
<path d="M18.9004 41.1537L19.8004 21.2422H116.1L117.3 41.1537H18.9004Z" fill="#CCCCCC" stroke="black" stroke-width="1.26211"/>
<path d="M0 139.379L1.2 57.0781H134.7L135.9 139.379H136.2H0Z" fill="#CCCCCC" stroke="black" stroke-width="1.26211"/>
<path d="M116.1 21.2389L123 0L124.2 21.2389L117.3 41.1504L116.1 21.2389Z" fill="#B2B2B2" stroke="black" stroke-width="1.26211"/>
<path d="M134.7 57.0801L148.8 15.9297L150 98.2306L135.9 139.381L134.7 57.0801Z" fill="#B2B2B2" stroke="black" stroke-width="1.26211"/>
<path d="M116.1 21.2389L123 0H26.9998L19.7998 21.2389H116.1Z" fill="#E5E5E5" stroke="black" stroke-width="1.26211"/>
</g>
<defs>
<clipPath id="clip0_2109_234960">
<rect width="150" height="150" fill="white"/>
</clipPath>
</defs>
</svg>
