<svg width="150" height="150" viewBox="0 0 150 150" fill="none" xmlns="http://www.w3.org/2000/svg">
<g clip-path="url(#clip0_2109_237106)">
<path d="M0 0H150" stroke="black" stroke-width="1.06789"/>
<path d="M0 150H150" stroke="black" stroke-width="1.06789"/>
<path d="M0 14.8672H150" stroke="black" stroke-width="1.06789"/>
<path d="M0 29.7266H150" stroke="black" stroke-width="1.06789"/>
<path d="M0 44.7422H150" stroke="black" stroke-width="1.06789"/>
<path d="M0 59.7578H150" stroke="black" stroke-width="1.06789"/>
<path d="M0 74.7734H150" stroke="black" stroke-width="1.06789"/>
<path d="M0 89.7891H150" stroke="black" stroke-width="1.06789"/>
<path d="M0 104.656H150" stroke="black" stroke-width="1.06789"/>
<path d="M0 119.672H150" stroke="black" stroke-width="1.06789"/>
<path d="M0 134.688H150" stroke="black" stroke-width="1.06789"/>
<path d="M36.0762 1.35156H112.026" stroke="black" stroke-width="1.06789"/>
<path d="M36.0762 16.3672H112.026" stroke="black" stroke-width="1.06789"/>
<path d="M36.0762 31.2344H112.026" stroke="black" stroke-width="1.06789"/>
<path d="M36.0762 46.25H112.026" stroke="black" stroke-width="1.06789"/>
<path d="M36.0762 61.2578H112.026" stroke="black" stroke-width="1.06789"/>
<path d="M36.0762 76.2734H112.026" stroke="black" stroke-width="1.06789"/>
<path d="M36.0762 91.2891H112.026" stroke="black" stroke-width="1.06789"/>
<path d="M36.0762 106.156H112.026" stroke="black" stroke-width="1.06789"/>
<path d="M36.0762 121.172H112.026" stroke="black" stroke-width="1.06789"/>
<path d="M36.0762 136.188H112.026" stroke="black" stroke-width="1.06789"/>
<path d="M36.0762 2.85156H112.026" stroke="black" stroke-width="1.06789"/>
<path d="M36.0762 17.7188H112.026" stroke="black" stroke-width="1.06789"/>
<path d="M36.0762 32.7344H112.026" stroke="black" stroke-width="1.06789"/>
<path d="M36.0762 47.75H112.026" stroke="black" stroke-width="1.06789"/>
<path d="M36.0762 62.7656H112.026" stroke="black" stroke-width="1.06789"/>
<path d="M36.0762 77.7812H112.026" stroke="black" stroke-width="1.06789"/>
<path d="M36.0762 92.7891H112.026" stroke="black" stroke-width="1.06789"/>
<path d="M36.0762 107.656H112.026" stroke="black" stroke-width="1.06789"/>
<path d="M36.0762 122.672H112.026" stroke="black" stroke-width="1.06789"/>
<path d="M36.0762 137.688H112.026" stroke="black" stroke-width="1.06789"/>
<path d="M36.0762 4.35156H112.026" stroke="black" stroke-width="1.06789"/>
<path d="M36.0762 19.2188H112.026" stroke="black" stroke-width="1.06789"/>
<path d="M36.0762 34.2344H112.026" stroke="black" stroke-width="1.06789"/>
<path d="M36.0762 49.25H112.026" stroke="black" stroke-width="1.06789"/>
<path d="M36.0762 64.2656H112.026" stroke="black" stroke-width="1.06789"/>
<path d="M36.0762 79.2812H112.026" stroke="black" stroke-width="1.06789"/>
<path d="M36.0762 94.2969H112.026" stroke="black" stroke-width="1.06789"/>
<path d="M36.0762 109.156H112.026" stroke="black" stroke-width="1.06789"/>
<path d="M36.0762 124.172H112.026" stroke="black" stroke-width="1.06789"/>
<path d="M36.0762 139.188H112.026" stroke="black" stroke-width="1.06789"/>
<path d="M36.0762 5.85938H112.026" stroke="black" stroke-width="1.06789"/>
<path d="M36.0762 20.7188H112.026" stroke="black" stroke-width="1.06789"/>
<path d="M36.0762 35.7344H112.026" stroke="black" stroke-width="1.06789"/>
<path d="M36.0762 50.75H112.026" stroke="black" stroke-width="1.06789"/>
<path d="M36.0762 65.7656H112.026" stroke="black" stroke-width="1.06789"/>
<path d="M36.0762 80.7812H112.026" stroke="black" stroke-width="1.06789"/>
<path d="M36.0762 95.7969H112.026" stroke="black" stroke-width="1.06789"/>
<path d="M36.0762 110.664H112.026" stroke="black" stroke-width="1.06789"/>
<path d="M36.0762 125.672H112.026" stroke="black" stroke-width="1.06789"/>
<path d="M36.0762 140.688H112.026" stroke="black" stroke-width="1.06789"/>
<path d="M36.0762 7.35938H112.026" stroke="black" stroke-width="1.06789"/>
<path d="M36.0762 22.2188H112.026" stroke="black" stroke-width="1.06789"/>
<path d="M36.0762 37.2344H112.026" stroke="black" stroke-width="1.06789"/>
<path d="M36.0762 52.25H112.026" stroke="black" stroke-width="1.06789"/>
<path d="M36.0762 67.2656H112.026" stroke="black" stroke-width="1.06789"/>
<path d="M36.0762 82.2812H112.026" stroke="black" stroke-width="1.06789"/>
<path d="M36.0762 97.2969H112.026" stroke="black" stroke-width="1.06789"/>
<path d="M36.0762 112.164H112.026" stroke="black" stroke-width="1.06789"/>
<path d="M36.0762 127.18H112.026" stroke="black" stroke-width="1.06789"/>
<path d="M36.0762 142.195H112.026" stroke="black" stroke-width="1.06789"/>
<path d="M36.0762 8.85938H112.026" stroke="black" stroke-width="1.06789"/>
<path d="M36.0762 23.7266H112.026" stroke="black" stroke-width="1.06789"/>
<path d="M36.0762 38.7422H112.026" stroke="black" stroke-width="1.06789"/>
<path d="M36.0762 53.75H112.026" stroke="black" stroke-width="1.06789"/>
<path d="M36.0762 68.7656H112.026" stroke="black" stroke-width="1.06789"/>
<path d="M36.0762 83.7812H112.026" stroke="black" stroke-width="1.06789"/>
<path d="M36.0762 98.7969H112.026" stroke="black" stroke-width="1.06789"/>
<path d="M36.0762 113.664H112.026" stroke="black" stroke-width="1.06789"/>
<path d="M36.0762 128.68H112.026" stroke="black" stroke-width="1.06789"/>
<path d="M36.0762 143.695H112.026" stroke="black" stroke-width="1.06789"/>
<path d="M36.0762 10.3594H112.026" stroke="black" stroke-width="1.06789"/>
<path d="M36.0762 25.2266H112.026" stroke="black" stroke-width="1.06789"/>
<path d="M36.0762 40.2422H112.026" stroke="black" stroke-width="1.06789"/>
<path d="M36.0762 55.2578H112.026" stroke="black" stroke-width="1.06789"/>
<path d="M36.0762 70.2734H112.026" stroke="black" stroke-width="1.06789"/>
<path d="M36.0762 85.2891H112.026" stroke="black" stroke-width="1.06789"/>
<path d="M36.0762 100.148H112.026" stroke="black" stroke-width="1.06789"/>
<path d="M36.0762 115.164H112.026" stroke="black" stroke-width="1.06789"/>
<path d="M36.0762 130.18H112.026" stroke="black" stroke-width="1.06789"/>
<path d="M36.0762 145.195H112.026" stroke="black" stroke-width="1.06789"/>
<path d="M36.0762 11.8594H112.026" stroke="black" stroke-width="1.06789"/>
<path d="M36.0762 26.7266H112.026" stroke="black" stroke-width="1.06789"/>
<path d="M36.0762 41.7422H112.026" stroke="black" stroke-width="1.06789"/>
<path d="M36.0762 56.7578H112.026" stroke="black" stroke-width="1.06789"/>
<path d="M36.0762 71.7734H112.026" stroke="black" stroke-width="1.06789"/>
<path d="M36.0762 86.7891H112.026" stroke="black" stroke-width="1.06789"/>
<path d="M36.0762 101.648H112.026" stroke="black" stroke-width="1.06789"/>
<path d="M36.0762 116.664H112.026" stroke="black" stroke-width="1.06789"/>
<path d="M36.0762 131.68H112.026" stroke="black" stroke-width="1.06789"/>
<path d="M36.0762 146.695H112.026" stroke="black" stroke-width="1.06789"/>
<path d="M36.0762 13.3672H112.026" stroke="black" stroke-width="1.06789"/>
<path d="M36.0762 28.2266H112.026" stroke="black" stroke-width="1.06789"/>
<path d="M36.0762 43.2422H112.026" stroke="black" stroke-width="1.06789"/>
<path d="M36.0762 58.2578H112.026" stroke="black" stroke-width="1.06789"/>
<path d="M36.0762 73.2734H112.026" stroke="black" stroke-width="1.06789"/>
<path d="M36.0762 88.2891H112.026" stroke="black" stroke-width="1.06789"/>
<path d="M36.0762 103.156H112.026" stroke="black" stroke-width="1.06789"/>
<path d="M36.0762 118.172H112.026" stroke="black" stroke-width="1.06789"/>
<path d="M36.0762 133.18H112.026" stroke="black" stroke-width="1.06789"/>
<path d="M36.0762 148.195H112.026" stroke="black" stroke-width="1.06789"/>
</g>
<defs>
<clipPath id="clip0_2109_237106">
<rect width="150" height="150" fill="white"/>
</clipPath>
</defs>
</svg>
