<svg width="150" height="150" viewBox="0 0 150 150" fill="none" xmlns="http://www.w3.org/2000/svg">
<g clip-path="url(#clip0_2109_236416)">
<path d="M0 76.4297H34.6154" stroke="black" stroke-width="1.51987"/>
<path d="M0 83.9375H34.6154" stroke="black" stroke-width="1.51987"/>
<path d="M0 91.4453H34.6154" stroke="black" stroke-width="1.51987"/>
<path d="M0 98.9453H34.6154" stroke="black" stroke-width="1.51987"/>
<path d="M0 106.453H34.6154" stroke="black" stroke-width="1.51987"/>
<path d="M0 113.812H34.6154" stroke="black" stroke-width="1.51987"/>
<path d="M0 121.32H34.6154" stroke="black" stroke-width="1.51987"/>
<path d="M0 128.828H34.6154" stroke="black" stroke-width="1.51987"/>
<path d="M0 136.336H34.6154" stroke="black" stroke-width="1.51987"/>
<path d="M0 143.844H34.6154" stroke="black" stroke-width="1.51987"/>
<path d="M0 77.9297H34.6154" stroke="black" stroke-width="1.51987"/>
<path d="M0 85.4375H34.6154" stroke="black" stroke-width="1.51987"/>
<path d="M0 92.9453H34.6154" stroke="black" stroke-width="1.51987"/>
<path d="M0 100.453H34.6154" stroke="black" stroke-width="1.51987"/>
<path d="M0 107.805H34.6154" stroke="black" stroke-width="1.51987"/>
<path d="M0 115.312H34.6154" stroke="black" stroke-width="1.51987"/>
<path d="M0 122.82H34.6154" stroke="black" stroke-width="1.51987"/>
<path d="M0 130.328H34.6154" stroke="black" stroke-width="1.51987"/>
<path d="M0 137.836H34.6154" stroke="black" stroke-width="1.51987"/>
<path d="M0 145.344H34.6154" stroke="black" stroke-width="1.51987"/>
<path d="M0 79.4297H34.6154" stroke="black" stroke-width="1.51987"/>
<path d="M0 86.9375H34.6154" stroke="black" stroke-width="1.51987"/>
<path d="M0 94.4453H34.6154" stroke="black" stroke-width="1.51987"/>
<path d="M0 101.953H34.6154" stroke="black" stroke-width="1.51987"/>
<path d="M0 109.312H34.6154" stroke="black" stroke-width="1.51987"/>
<path d="M0 116.82H34.6154" stroke="black" stroke-width="1.51987"/>
<path d="M0 124.328H34.6154" stroke="black" stroke-width="1.51987"/>
<path d="M0 131.828H34.6154" stroke="black" stroke-width="1.51987"/>
<path d="M0 139.336H34.6154" stroke="black" stroke-width="1.51987"/>
<path d="M0 146.844H34.6154" stroke="black" stroke-width="1.51987"/>
<path d="M0 80.9297H34.6154" stroke="black" stroke-width="1.51987"/>
<path d="M0 88.4375H34.6154" stroke="black" stroke-width="1.51987"/>
<path d="M0 95.9453H34.6154" stroke="black" stroke-width="1.51987"/>
<path d="M0 103.453H34.6154" stroke="black" stroke-width="1.51987"/>
<path d="M0 110.812H34.6154" stroke="black" stroke-width="1.51987"/>
<path d="M0 118.32H34.6154" stroke="black" stroke-width="1.51987"/>
<path d="M0 125.828H34.6154" stroke="black" stroke-width="1.51987"/>
<path d="M0 133.336H34.6154" stroke="black" stroke-width="1.51987"/>
<path d="M0 140.844H34.6154" stroke="black" stroke-width="1.51987"/>
<path d="M0 148.352H34.6154" stroke="black" stroke-width="1.51987"/>
<path d="M0 82.4297H150" stroke="black" stroke-width="1.51987"/>
<path d="M0 89.9375H150" stroke="black" stroke-width="1.51987"/>
<path d="M0 97.4453H150" stroke="black" stroke-width="1.51987"/>
<path d="M0 104.953H150" stroke="black" stroke-width="1.51987"/>
<path d="M0 112.312H150" stroke="black" stroke-width="1.51987"/>
<path d="M0 119.82H150" stroke="black" stroke-width="1.51987"/>
<path d="M0 127.328H150" stroke="black" stroke-width="1.51987"/>
<path d="M0 134.836H150" stroke="black" stroke-width="1.51987"/>
<path d="M0 142.344H150" stroke="black" stroke-width="1.51987"/>
<path d="M0 150H150" stroke="black" stroke-width="1.51987"/>
<path d="M0 75.6719H34.6154" stroke="black" stroke-width="1.51987"/>
<path d="M0 83.1797H34.6154" stroke="black" stroke-width="1.51987"/>
<path d="M0 90.6875H34.6154" stroke="black" stroke-width="1.51987"/>
<path d="M0 98.1953H34.6154" stroke="black" stroke-width="1.51987"/>
<path d="M0 105.703H34.6154" stroke="black" stroke-width="1.51987"/>
<path d="M0 113.062H34.6154" stroke="black" stroke-width="1.51987"/>
<path d="M0 120.57H34.6154" stroke="black" stroke-width="1.51987"/>
<path d="M0 128.078H34.6154" stroke="black" stroke-width="1.51987"/>
<path d="M0 135.586H34.6154" stroke="black" stroke-width="1.51987"/>
<path d="M0 143.094H34.6154" stroke="black" stroke-width="1.51987"/>
<path d="M0 77.1797H34.6154" stroke="black" stroke-width="1.51987"/>
<path d="M0 84.6875H34.6154" stroke="black" stroke-width="1.51987"/>
<path d="M0 92.1953H34.6154" stroke="black" stroke-width="1.51987"/>
<path d="M0 99.7031H34.6154" stroke="black" stroke-width="1.51987"/>
<path d="M0 107.055H34.6154" stroke="black" stroke-width="1.51987"/>
<path d="M0 114.562H34.6154" stroke="black" stroke-width="1.51987"/>
<path d="M0 122.07H34.6154" stroke="black" stroke-width="1.51987"/>
<path d="M0 129.578H34.6154" stroke="black" stroke-width="1.51987"/>
<path d="M0 137.086H34.6154" stroke="black" stroke-width="1.51987"/>
<path d="M0 144.594H34.6154" stroke="black" stroke-width="1.51987"/>
<path d="M0 78.6797H73.0769" stroke="black" stroke-width="1.51987"/>
<path d="M0 86.1875H73.0769" stroke="black" stroke-width="1.51987"/>
<path d="M0 93.6953H73.0769" stroke="black" stroke-width="1.51987"/>
<path d="M0 101.203H73.0769" stroke="black" stroke-width="1.51987"/>
<path d="M0 108.555H73.0769" stroke="black" stroke-width="1.51987"/>
<path d="M0 116.062H73.0769" stroke="black" stroke-width="1.51987"/>
<path d="M0 123.57H73.0769" stroke="black" stroke-width="1.51987"/>
<path d="M0 131.078H73.0769" stroke="black" stroke-width="1.51987"/>
<path d="M0 138.586H73.0769" stroke="black" stroke-width="1.51987"/>
<path d="M0 146.094H73.0769" stroke="black" stroke-width="1.51987"/>
<path d="M34.6154 80.1797H0" stroke="black" stroke-width="1.51987"/>
<path d="M34.6154 87.6875H0" stroke="black" stroke-width="1.51987"/>
<path d="M34.6154 95.1953H0" stroke="black" stroke-width="1.51987"/>
<path d="M34.6154 102.703H0" stroke="black" stroke-width="1.51987"/>
<path d="M34.6154 110.062H0" stroke="black" stroke-width="1.51987"/>
<path d="M34.6154 117.57H0" stroke="black" stroke-width="1.51987"/>
<path d="M34.6154 125.078H0" stroke="black" stroke-width="1.51987"/>
<path d="M34.6154 132.586H0" stroke="black" stroke-width="1.51987"/>
<path d="M34.6154 140.094H0" stroke="black" stroke-width="1.51987"/>
<path d="M34.6154 147.594H0" stroke="black" stroke-width="1.51987"/>
<path d="M0 81.6797H34.6154" stroke="black" stroke-width="1.51987"/>
<path d="M0 89.1875H34.6154" stroke="black" stroke-width="1.51987"/>
<path d="M0 96.6953H34.6154" stroke="black" stroke-width="1.51987"/>
<path d="M0 104.203H34.6154" stroke="black" stroke-width="1.51987"/>
<path d="M0 111.562H34.6154" stroke="black" stroke-width="1.51987"/>
<path d="M0 119.07H34.6154" stroke="black" stroke-width="1.51987"/>
<path d="M0 126.578H34.6154" stroke="black" stroke-width="1.51987"/>
<path d="M0 134.086H34.6154" stroke="black" stroke-width="1.51987"/>
<path d="M0 141.594H34.6154" stroke="black" stroke-width="1.51987"/>
<path d="M0 0H150" stroke="black" stroke-width="1.51987"/>
<path d="M0 74.9219H150" stroke="black" stroke-width="1.51987"/>
<path d="M0 1.35156H34.6154" stroke="black" stroke-width="1.51987"/>
<path d="M0 8.85938H34.6154" stroke="black" stroke-width="1.51987"/>
<path d="M0 16.3672H34.6154" stroke="black" stroke-width="1.51987"/>
<path d="M0 23.875H34.6154" stroke="black" stroke-width="1.51987"/>
<path d="M0 31.3828H34.6154" stroke="black" stroke-width="1.51987"/>
<path d="M0 38.8906H34.6154" stroke="black" stroke-width="1.51987"/>
<path d="M0 46.3984H34.6154" stroke="black" stroke-width="1.51987"/>
<path d="M0 53.9062H34.6154" stroke="black" stroke-width="1.51987"/>
<path d="M0 61.4141H34.6154" stroke="black" stroke-width="1.51987"/>
<path d="M0 68.7656H34.6154" stroke="black" stroke-width="1.51987"/>
<path d="M0 2.85156H34.6154" stroke="black" stroke-width="1.51987"/>
<path d="M0 10.3594H34.6154" stroke="black" stroke-width="1.51987"/>
<path d="M0 17.8672H34.6154" stroke="black" stroke-width="1.51987"/>
<path d="M0 25.375H34.6154" stroke="black" stroke-width="1.51987"/>
<path d="M0 32.8828H34.6154" stroke="black" stroke-width="1.51987"/>
<path d="M0 40.3906H34.6154" stroke="black" stroke-width="1.51987"/>
<path d="M0 47.8984H34.6154" stroke="black" stroke-width="1.51987"/>
<path d="M0 55.4062H34.6154" stroke="black" stroke-width="1.51987"/>
<path d="M0 62.9141H34.6154" stroke="black" stroke-width="1.51987"/>
<path d="M0 70.2734H34.6154" stroke="black" stroke-width="1.51987"/>
<path d="M0 4.35156H34.6154" stroke="black" stroke-width="1.51987"/>
<path d="M0 11.8594H34.6154" stroke="black" stroke-width="1.51987"/>
<path d="M0 19.3672H34.6154" stroke="black" stroke-width="1.51987"/>
<path d="M0 26.875H34.6154" stroke="black" stroke-width="1.51987"/>
<path d="M0 34.3828H34.6154" stroke="black" stroke-width="1.51987"/>
<path d="M0 41.8906H34.6154" stroke="black" stroke-width="1.51987"/>
<path d="M0 49.3984H34.6154" stroke="black" stroke-width="1.51987"/>
<path d="M0 56.9062H34.6154" stroke="black" stroke-width="1.51987"/>
<path d="M0 64.2656H34.6154" stroke="black" stroke-width="1.51987"/>
<path d="M0 71.7734H34.6154" stroke="black" stroke-width="1.51987"/>
<path d="M0 5.85938H34.6154" stroke="black" stroke-width="1.51987"/>
<path d="M0 13.3672H34.6154" stroke="black" stroke-width="1.51987"/>
<path d="M0 20.8672H34.6154" stroke="black" stroke-width="1.51987"/>
<path d="M0 28.375H34.6154" stroke="black" stroke-width="1.51987"/>
<path d="M0 35.8828H34.6154" stroke="black" stroke-width="1.51987"/>
<path d="M0 43.3906H34.6154" stroke="black" stroke-width="1.51987"/>
<path d="M0 50.8984H34.6154" stroke="black" stroke-width="1.51987"/>
<path d="M0 58.4062H34.6154" stroke="black" stroke-width="1.51987"/>
<path d="M0 65.7656H34.6154" stroke="black" stroke-width="1.51987"/>
<path d="M0 73.2734H34.6154" stroke="black" stroke-width="1.51987"/>
<path d="M0 7.35938H150" stroke="black" stroke-width="1.51987"/>
<path d="M0 14.8672H150" stroke="black" stroke-width="1.51987"/>
<path d="M0 22.375H150" stroke="black" stroke-width="1.51987"/>
<path d="M0 29.8828H150" stroke="black" stroke-width="1.51987"/>
<path d="M0 37.3906H150" stroke="black" stroke-width="1.51987"/>
<path d="M0 44.8984H150" stroke="black" stroke-width="1.51987"/>
<path d="M0 52.4062H150" stroke="black" stroke-width="1.51987"/>
<path d="M0 59.9062H150" stroke="black" stroke-width="1.51987"/>
<path d="M0 67.2656H150" stroke="black" stroke-width="1.51987"/>
<path d="M0 0.601562H34.6154" stroke="black" stroke-width="1.51987"/>
<path d="M0 8.10938H34.6154" stroke="black" stroke-width="1.51987"/>
<path d="M0 15.6172H34.6154" stroke="black" stroke-width="1.51987"/>
<path d="M0 23.125H34.6154" stroke="black" stroke-width="1.51987"/>
<path d="M0 30.6328H34.6154" stroke="black" stroke-width="1.51987"/>
<path d="M0 38.1406H34.6154" stroke="black" stroke-width="1.51987"/>
<path d="M0 45.6484H34.6154" stroke="black" stroke-width="1.51987"/>
<path d="M0 53.1562H34.6154" stroke="black" stroke-width="1.51987"/>
<path d="M0 60.6641H34.6154" stroke="black" stroke-width="1.51987"/>
<path d="M0 68.0156H34.6154" stroke="black" stroke-width="1.51987"/>
<path d="M0 2.10156H34.6154" stroke="black" stroke-width="1.51987"/>
<path d="M0 9.60938H34.6154" stroke="black" stroke-width="1.51987"/>
<path d="M0 17.1172H34.6154" stroke="black" stroke-width="1.51987"/>
<path d="M0 24.625H34.6154" stroke="black" stroke-width="1.51987"/>
<path d="M0 32.1328H34.6154" stroke="black" stroke-width="1.51987"/>
<path d="M0 39.6406H34.6154" stroke="black" stroke-width="1.51987"/>
<path d="M0 47.1484H34.6154" stroke="black" stroke-width="1.51987"/>
<path d="M0 54.6562H34.6154" stroke="black" stroke-width="1.51987"/>
<path d="M0 62.1641H34.6154" stroke="black" stroke-width="1.51987"/>
<path d="M0 69.5156H34.6154" stroke="black" stroke-width="1.51987"/>
<path d="M0 3.60156H73.0769" stroke="black" stroke-width="1.51987"/>
<path d="M0 11.1094H73.0769" stroke="black" stroke-width="1.51987"/>
<path d="M0 18.6172H73.0769" stroke="black" stroke-width="1.51987"/>
<path d="M0 26.125H73.0769" stroke="black" stroke-width="1.51987"/>
<path d="M0 33.6328H73.0769" stroke="black" stroke-width="1.51987"/>
<path d="M0 41.1406H73.0769" stroke="black" stroke-width="1.51987"/>
<path d="M0 48.6484H73.0769" stroke="black" stroke-width="1.51987"/>
<path d="M0 56.1562H73.0769" stroke="black" stroke-width="1.51987"/>
<path d="M0 63.6641H73.0769" stroke="black" stroke-width="1.51987"/>
<path d="M0 71.0234H73.0769" stroke="black" stroke-width="1.51987"/>
<path d="M34.6154 5.10156H0" stroke="black" stroke-width="1.51987"/>
<path d="M34.6154 12.6094H0" stroke="black" stroke-width="1.51987"/>
<path d="M34.6154 20.1172H0" stroke="black" stroke-width="1.51987"/>
<path d="M34.6154 27.625H0" stroke="black" stroke-width="1.51987"/>
<path d="M34.6154 35.1328H0" stroke="black" stroke-width="1.51987"/>
<path d="M34.6154 42.6406H0" stroke="black" stroke-width="1.51987"/>
<path d="M34.6154 50.1484H0" stroke="black" stroke-width="1.51987"/>
<path d="M34.6154 57.6562H0" stroke="black" stroke-width="1.51987"/>
<path d="M34.6154 65.0156H0" stroke="black" stroke-width="1.51987"/>
<path d="M34.6154 72.5234H0" stroke="black" stroke-width="1.51987"/>
<path d="M0 6.60938H34.6154" stroke="black" stroke-width="1.51987"/>
<path d="M0 14.1172H34.6154" stroke="black" stroke-width="1.51987"/>
<path d="M0 21.625H34.6154" stroke="black" stroke-width="1.51987"/>
<path d="M0 29.1328H34.6154" stroke="black" stroke-width="1.51987"/>
<path d="M0 36.6328H34.6154" stroke="black" stroke-width="1.51987"/>
<path d="M0 44.1406H34.6154" stroke="black" stroke-width="1.51987"/>
<path d="M0 51.6484H34.6154" stroke="black" stroke-width="1.51987"/>
<path d="M0 59.1562H34.6154" stroke="black" stroke-width="1.51987"/>
<path d="M0 66.5156H34.6154" stroke="black" stroke-width="1.51987"/>
<path d="M0 74.0234H34.6154" stroke="black" stroke-width="1.51987"/>
<path d="M0 149.102H34.6154" stroke="black" stroke-width="1.51987"/>
</g>
<defs>
<clipPath id="clip0_2109_236416">
<rect width="150" height="150" fill="white"/>
</clipPath>
</defs>
</svg>
