<svg width="150" height="150" viewBox="0 0 150 150" fill="none" xmlns="http://www.w3.org/2000/svg">
<g clip-path="url(#clip0_2109_236692)">
<path d="M0 0H150" stroke="black" stroke-width="0.671492"/>
<path d="M0 37.2734H150" stroke="black" stroke-width="0.671492"/>
<path d="M0 74.8516H150" stroke="black" stroke-width="0.671492"/>
<path d="M0 112.422H150" stroke="black" stroke-width="0.671492"/>
<path d="M0 150H150" stroke="black" stroke-width="0.671492"/>
<path d="M37.5 3.75781H112.5" stroke="black" stroke-width="0.671492"/>
<path d="M37.5 41.0312H112.5" stroke="black" stroke-width="0.671492"/>
<path d="M37.5 78.6094H112.5" stroke="black" stroke-width="0.671492"/>
<path d="M37.5 116.18H112.5" stroke="black" stroke-width="0.671492"/>
<path d="M37.5 7.51562H112.5" stroke="black" stroke-width="0.671492"/>
<path d="M37.5 44.7891H112.5" stroke="black" stroke-width="0.671492"/>
<path d="M37.5 82.3672H112.5" stroke="black" stroke-width="0.671492"/>
<path d="M37.5 119.938H112.5" stroke="black" stroke-width="0.671492"/>
<path d="M37.5 11.2734H112.5" stroke="black" stroke-width="0.671492"/>
<path d="M37.5 48.5469H112.5" stroke="black" stroke-width="0.671492"/>
<path d="M37.5 86.125H112.5" stroke="black" stroke-width="0.671492"/>
<path d="M37.5 123.695H112.5" stroke="black" stroke-width="0.671492"/>
<path d="M37.5 15.0312H112.5" stroke="black" stroke-width="0.671492"/>
<path d="M37.5 52.3047H112.5" stroke="black" stroke-width="0.671492"/>
<path d="M37.5 89.8828H112.5" stroke="black" stroke-width="0.671492"/>
<path d="M37.5 127.453H112.5" stroke="black" stroke-width="0.671492"/>
<path d="M37.5 18.7891H112.5" stroke="black" stroke-width="0.671492"/>
<path d="M37.5 56.0625H112.5" stroke="black" stroke-width="0.671492"/>
<path d="M37.5 93.6406H112.5" stroke="black" stroke-width="0.671492"/>
<path d="M37.5 131.211H112.5" stroke="black" stroke-width="0.671492"/>
<path d="M37.5 22.5469H112.5" stroke="black" stroke-width="0.671492"/>
<path d="M37.5 59.8203H112.5" stroke="black" stroke-width="0.671492"/>
<path d="M37.5 97.3984H112.5" stroke="black" stroke-width="0.671492"/>
<path d="M37.5 134.969H112.5" stroke="black" stroke-width="0.671492"/>
<path d="M37.5 26.3047H112.5" stroke="black" stroke-width="0.671492"/>
<path d="M37.5 63.5781H112.5" stroke="black" stroke-width="0.671492"/>
<path d="M37.5 101.148H112.5" stroke="black" stroke-width="0.671492"/>
<path d="M37.5 138.727H112.5" stroke="black" stroke-width="0.671492"/>
<path d="M37.5 30.0625H112.5" stroke="black" stroke-width="0.671492"/>
<path d="M37.5 67.3359H112.5" stroke="black" stroke-width="0.671492"/>
<path d="M37.5 104.906H112.5" stroke="black" stroke-width="0.671492"/>
<path d="M37.5 142.484H112.5" stroke="black" stroke-width="0.671492"/>
<path d="M37.5 33.8203H112.5" stroke="black" stroke-width="0.671492"/>
<path d="M37.5 71.0938H112.5" stroke="black" stroke-width="0.671492"/>
<path d="M37.5 108.664H112.5" stroke="black" stroke-width="0.671492"/>
<path d="M37.5 146.242H112.5" stroke="black" stroke-width="0.671492"/>
</g>
<defs>
<clipPath id="clip0_2109_236692">
<rect width="150" height="150" fill="white"/>
</clipPath>
</defs>
</svg>
