<svg width="150" height="150" viewBox="0 0 150 150" fill="none" xmlns="http://www.w3.org/2000/svg">
<g clip-path="url(#clip0_2109_236854)">
<path d="M0 0H150" stroke="black" stroke-width="0.888968"/>
<path d="M0 21.1719H150" stroke="black" stroke-width="0.888968"/>
<path d="M0 42.6406H150" stroke="black" stroke-width="0.888968"/>
<path d="M0 64.1172H150" stroke="black" stroke-width="0.888968"/>
<path d="M0 85.5859H150" stroke="black" stroke-width="0.888968"/>
<path d="M0 107.055H150" stroke="black" stroke-width="0.888968"/>
<path d="M0 128.531H150" stroke="black" stroke-width="0.888968"/>
<path d="M0 150H150" stroke="black" stroke-width="0.888968"/>
<path d="M36.8418 2.10156H111.842" stroke="black" stroke-width="0.888968"/>
<path d="M36.8418 23.4219H111.842" stroke="black" stroke-width="0.888968"/>
<path d="M36.8418 44.7422H111.842" stroke="black" stroke-width="0.888968"/>
<path d="M36.8418 66.2188H111.842" stroke="black" stroke-width="0.888968"/>
<path d="M36.8418 87.6875H111.842" stroke="black" stroke-width="0.888968"/>
<path d="M36.8418 109.156H111.842" stroke="black" stroke-width="0.888968"/>
<path d="M36.8418 130.633H111.842" stroke="black" stroke-width="0.888968"/>
<path d="M36.8418 4.20312H111.842" stroke="black" stroke-width="0.888968"/>
<path d="M36.8418 25.5234H111.842" stroke="black" stroke-width="0.888968"/>
<path d="M36.8418 47H111.842" stroke="black" stroke-width="0.888968"/>
<path d="M36.8418 68.4688H111.842" stroke="black" stroke-width="0.888968"/>
<path d="M36.8418 89.7891H111.842" stroke="black" stroke-width="0.888968"/>
<path d="M36.8418 111.258H111.842" stroke="black" stroke-width="0.888968"/>
<path d="M36.8418 132.734H111.842" stroke="black" stroke-width="0.888968"/>
<path d="M36.8418 6.30469H111.842" stroke="black" stroke-width="0.888968"/>
<path d="M36.8418 27.625H111.842" stroke="black" stroke-width="0.888968"/>
<path d="M36.8418 49.1016H111.842" stroke="black" stroke-width="0.888968"/>
<path d="M36.8418 70.5703H111.842" stroke="black" stroke-width="0.888968"/>
<path d="M36.8418 92.0391H111.842" stroke="black" stroke-width="0.888968"/>
<path d="M36.8418 113.516H111.842" stroke="black" stroke-width="0.888968"/>
<path d="M36.8418 134.836H111.842" stroke="black" stroke-width="0.888968"/>
<path d="M36.8418 8.55469H111.842" stroke="black" stroke-width="0.888968"/>
<path d="M36.8418 29.7266H111.842" stroke="black" stroke-width="0.888968"/>
<path d="M36.8418 51.2031H111.842" stroke="black" stroke-width="0.888968"/>
<path d="M36.8418 72.6719H111.842" stroke="black" stroke-width="0.888968"/>
<path d="M36.8418 94.1406H111.842" stroke="black" stroke-width="0.888968"/>
<path d="M36.8418 115.617H111.842" stroke="black" stroke-width="0.888968"/>
<path d="M36.8418 137.086H111.842" stroke="black" stroke-width="0.888968"/>
<path d="M36.8418 10.6641H111.842" stroke="black" stroke-width="0.888968"/>
<path d="M36.8418 31.9844H111.842" stroke="black" stroke-width="0.888968"/>
<path d="M36.8418 53.4531H111.842" stroke="black" stroke-width="0.888968"/>
<path d="M36.8418 74.7734H111.842" stroke="black" stroke-width="0.888968"/>
<path d="M36.8418 96.25H111.842" stroke="black" stroke-width="0.888968"/>
<path d="M36.8418 117.719H111.842" stroke="black" stroke-width="0.888968"/>
<path d="M36.8418 139.188H111.842" stroke="black" stroke-width="0.888968"/>
<path d="M36.8418 12.7656H111.842" stroke="black" stroke-width="0.888968"/>
<path d="M36.8418 34.0859H111.842" stroke="black" stroke-width="0.888968"/>
<path d="M36.8418 55.5547H111.842" stroke="black" stroke-width="0.888968"/>
<path d="M36.8418 77.0234H111.842" stroke="black" stroke-width="0.888968"/>
<path d="M36.8418 98.5H111.842" stroke="black" stroke-width="0.888968"/>
<path d="M36.8418 119.82H111.842" stroke="black" stroke-width="0.888968"/>
<path d="M36.8418 141.289H111.842" stroke="black" stroke-width="0.888968"/>
<path d="M36.8418 15.0156H111.842" stroke="black" stroke-width="0.888968"/>
<path d="M36.8418 36.1875H111.842" stroke="black" stroke-width="0.888968"/>
<path d="M36.8418 57.6562H111.842" stroke="black" stroke-width="0.888968"/>
<path d="M36.8418 79.1328H111.842" stroke="black" stroke-width="0.888968"/>
<path d="M36.8418 100.602H111.842" stroke="black" stroke-width="0.888968"/>
<path d="M36.8418 122.07H111.842" stroke="black" stroke-width="0.888968"/>
<path d="M36.8418 143.547H111.842" stroke="black" stroke-width="0.888968"/>
<path d="M36.8418 17.1172H111.842" stroke="black" stroke-width="0.888968"/>
<path d="M36.8418 38.4375H111.842" stroke="black" stroke-width="0.888968"/>
<path d="M36.8418 59.7578H111.842" stroke="black" stroke-width="0.888968"/>
<path d="M36.8418 81.2344H111.842" stroke="black" stroke-width="0.888968"/>
<path d="M36.8418 102.703H111.842" stroke="black" stroke-width="0.888968"/>
<path d="M36.8418 124.172H111.842" stroke="black" stroke-width="0.888968"/>
<path d="M36.8418 145.648H111.842" stroke="black" stroke-width="0.888968"/>
<path d="M36.8418 19.2188H111.842" stroke="black" stroke-width="0.888968"/>
<path d="M36.8418 40.5391H111.842" stroke="black" stroke-width="0.888968"/>
<path d="M36.8418 62.0156H111.842" stroke="black" stroke-width="0.888968"/>
<path d="M36.8418 83.4844H111.842" stroke="black" stroke-width="0.888968"/>
<path d="M36.8418 104.805H111.842" stroke="black" stroke-width="0.888968"/>
<path d="M36.8418 126.273H111.842" stroke="black" stroke-width="0.888968"/>
<path d="M36.8418 147.75H111.842" stroke="black" stroke-width="0.888968"/>
</g>
<defs>
<clipPath id="clip0_2109_236854">
<rect width="150" height="150" fill="white"/>
</clipPath>
</defs>
</svg>
