<svg width="150" height="150" viewBox="0 0 150 150" fill="none" xmlns="http://www.w3.org/2000/svg">
<g clip-path="url(#clip0_2109_235172)">
<path d="M0 0H150" stroke="black" stroke-width="0.750375"/>
<path d="M0 6.00781H37.5" stroke="black" stroke-width="0.750375"/>
<path d="M0 35.7344H37.5" stroke="black" stroke-width="0.750375"/>
<path d="M0 65.7656H37.5" stroke="black" stroke-width="0.750375"/>
<path d="M0 95.7969H37.5" stroke="black" stroke-width="0.750375"/>
<path d="M0 125.828H37.5" stroke="black" stroke-width="0.750375"/>
<path d="M0 12.0156H37.5" stroke="black" stroke-width="0.750375"/>
<path d="M0 41.7422H37.5" stroke="black" stroke-width="0.750375"/>
<path d="M0 71.7734H37.5" stroke="black" stroke-width="0.750375"/>
<path d="M0 101.805H37.5" stroke="black" stroke-width="0.750375"/>
<path d="M0 131.828H37.5" stroke="black" stroke-width="0.750375"/>
<path d="M0 18.0156H37.5" stroke="black" stroke-width="0.750375"/>
<path d="M0 47.75H37.5" stroke="black" stroke-width="0.750375"/>
<path d="M0 77.7812H37.5" stroke="black" stroke-width="0.750375"/>
<path d="M0 107.805H37.5" stroke="black" stroke-width="0.750375"/>
<path d="M0 137.836H37.5" stroke="black" stroke-width="0.750375"/>
<path d="M0 24.0234H37.5" stroke="black" stroke-width="0.750375"/>
<path d="M0 53.75H37.5" stroke="black" stroke-width="0.750375"/>
<path d="M0 83.7812H37.5" stroke="black" stroke-width="0.750375"/>
<path d="M0 113.812H37.5" stroke="black" stroke-width="0.750375"/>
<path d="M0 143.844H37.5" stroke="black" stroke-width="0.750375"/>
<path d="M0 30.0312H150" stroke="black" stroke-width="0.750375"/>
<path d="M0 59.7578H150" stroke="black" stroke-width="0.750375"/>
<path d="M0 89.7891H150" stroke="black" stroke-width="0.750375"/>
<path d="M0 119.82H150" stroke="black" stroke-width="0.750375"/>
<path d="M0 150H150" stroke="black" stroke-width="0.750375"/>
<path d="M0 3H37.5" stroke="black" stroke-width="0.750375"/>
<path d="M0 32.7344H37.5" stroke="black" stroke-width="0.750375"/>
<path d="M0 62.7656H37.5" stroke="black" stroke-width="0.750375"/>
<path d="M0 92.7891H37.5" stroke="black" stroke-width="0.750375"/>
<path d="M0 122.82H37.5" stroke="black" stroke-width="0.750375"/>
<path d="M0 9.00781H37.5" stroke="black" stroke-width="0.750375"/>
<path d="M0 38.7422H37.5" stroke="black" stroke-width="0.750375"/>
<path d="M0 68.7656H37.5" stroke="black" stroke-width="0.750375"/>
<path d="M0 98.7969H37.5" stroke="black" stroke-width="0.750375"/>
<path d="M0 128.828H37.5" stroke="black" stroke-width="0.750375"/>
<path d="M0 15.0156H75" stroke="black" stroke-width="0.750375"/>
<path d="M0 44.7422H75" stroke="black" stroke-width="0.750375"/>
<path d="M0 74.7734H75" stroke="black" stroke-width="0.750375"/>
<path d="M0 104.805H75" stroke="black" stroke-width="0.750375"/>
<path d="M0 134.836H75" stroke="black" stroke-width="0.750375"/>
<path d="M37.5 21.0234H0" stroke="black" stroke-width="0.750375"/>
<path d="M37.5 50.75H0" stroke="black" stroke-width="0.750375"/>
<path d="M37.5 80.7812H0" stroke="black" stroke-width="0.750375"/>
<path d="M37.5 110.812H0" stroke="black" stroke-width="0.750375"/>
<path d="M37.5 140.844H0" stroke="black" stroke-width="0.750375"/>
<path d="M0 27.0234H37.5" stroke="black" stroke-width="0.750375"/>
<path d="M0 56.7578H37.5" stroke="black" stroke-width="0.750375"/>
<path d="M0 86.7891H37.5" stroke="black" stroke-width="0.750375"/>
<path d="M0 116.82H37.5" stroke="black" stroke-width="0.750375"/>
<path d="M0 146.844H37.5" stroke="black" stroke-width="0.750375"/>
</g>
<defs>
<clipPath id="clip0_2109_235172">
<rect width="150" height="150" fill="white"/>
</clipPath>
</defs>
</svg>
