<svg width="150" height="150" viewBox="0 0 150 150" fill="none" xmlns="http://www.w3.org/2000/svg">
<g clip-path="url(#clip0_2109_236658)">
<path d="M0 0H150" stroke="black" stroke-width="0.775632"/>
<path d="M0 49.7344H150" stroke="black" stroke-width="0.775632"/>
<path d="M0 99.8672H150" stroke="black" stroke-width="0.775632"/>
<path d="M0 150H150" stroke="black" stroke-width="0.775632"/>
<path d="M37.5 5.01562H112.5" stroke="black" stroke-width="0.775632"/>
<path d="M37.5 54.7422H112.5" stroke="black" stroke-width="0.775632"/>
<path d="M37.5 104.883H112.5" stroke="black" stroke-width="0.775632"/>
<path d="M37.5 10.0234H112.5" stroke="black" stroke-width="0.775632"/>
<path d="M37.5 59.7578H112.5" stroke="black" stroke-width="0.775632"/>
<path d="M37.5 109.891H112.5" stroke="black" stroke-width="0.775632"/>
<path d="M37.5 15.0391H112.5" stroke="black" stroke-width="0.775632"/>
<path d="M37.5 64.7734H112.5" stroke="black" stroke-width="0.775632"/>
<path d="M37.5 114.906H112.5" stroke="black" stroke-width="0.775632"/>
<path d="M37.5 20.0547H112.5" stroke="black" stroke-width="0.775632"/>
<path d="M37.5 69.7891H112.5" stroke="black" stroke-width="0.775632"/>
<path d="M37.5 119.922H112.5" stroke="black" stroke-width="0.775632"/>
<path d="M37.5 25.0703H112.5" stroke="black" stroke-width="0.775632"/>
<path d="M37.5 74.7969H112.5" stroke="black" stroke-width="0.775632"/>
<path d="M37.5 124.93H112.5" stroke="black" stroke-width="0.775632"/>
<path d="M37.5 30.0781H112.5" stroke="black" stroke-width="0.775632"/>
<path d="M37.5 79.8125H112.5" stroke="black" stroke-width="0.775632"/>
<path d="M37.5 129.945H112.5" stroke="black" stroke-width="0.775632"/>
<path d="M37.5 35.0938H112.5" stroke="black" stroke-width="0.775632"/>
<path d="M37.5 84.8281H112.5" stroke="black" stroke-width="0.775632"/>
<path d="M37.5 134.961H112.5" stroke="black" stroke-width="0.775632"/>
<path d="M37.5 40.1094H112.5" stroke="black" stroke-width="0.775632"/>
<path d="M37.5 89.8359H112.5" stroke="black" stroke-width="0.775632"/>
<path d="M37.5 139.977H112.5" stroke="black" stroke-width="0.775632"/>
<path d="M37.5 45.1172H112.5" stroke="black" stroke-width="0.775632"/>
<path d="M37.5 94.8516H112.5" stroke="black" stroke-width="0.775632"/>
<path d="M37.5 144.984H112.5" stroke="black" stroke-width="0.775632"/>
</g>
<defs>
<clipPath id="clip0_2109_236658">
<rect width="150" height="150" fill="white"/>
</clipPath>
</defs>
</svg>
