<svg width="150" height="150" viewBox="0 0 150 150" fill="none" xmlns="http://www.w3.org/2000/svg">
<g clip-path="url(#clip0_2109_236068)">
<path d="M0 95.6484H36.7347" stroke="black" stroke-width="1.35594"/>
<path d="M0 104.953H36.7347" stroke="black" stroke-width="1.35594"/>
<path d="M0 114.266H36.7347" stroke="black" stroke-width="1.35594"/>
<path d="M0 123.727H36.7347" stroke="black" stroke-width="1.35594"/>
<path d="M0 133.031H36.7347" stroke="black" stroke-width="1.35594"/>
<path d="M0 142.492H36.7347" stroke="black" stroke-width="1.35594"/>
<path d="M0 97.4453H36.7347" stroke="black" stroke-width="1.35594"/>
<path d="M0 106.758H36.7347" stroke="black" stroke-width="1.35594"/>
<path d="M0 116.219H36.7347" stroke="black" stroke-width="1.35594"/>
<path d="M0 125.523H36.7347" stroke="black" stroke-width="1.35594"/>
<path d="M0 134.984H36.7347" stroke="black" stroke-width="1.35594"/>
<path d="M0 144.297H36.7347" stroke="black" stroke-width="1.35594"/>
<path d="M0 99.3984H36.7347" stroke="black" stroke-width="1.35594"/>
<path d="M0 108.711H36.7347" stroke="black" stroke-width="1.35594"/>
<path d="M0 118.016H36.7347" stroke="black" stroke-width="1.35594"/>
<path d="M0 127.477H36.7347" stroke="black" stroke-width="1.35594"/>
<path d="M0 136.789H36.7347" stroke="black" stroke-width="1.35594"/>
<path d="M0 146.25H36.7347" stroke="black" stroke-width="1.35594"/>
<path d="M0 101.203H36.7347" stroke="black" stroke-width="1.35594"/>
<path d="M0 110.508H36.7347" stroke="black" stroke-width="1.35594"/>
<path d="M0 119.969H36.7347" stroke="black" stroke-width="1.35594"/>
<path d="M0 129.281H36.7347" stroke="black" stroke-width="1.35594"/>
<path d="M0 138.742H36.7347" stroke="black" stroke-width="1.35594"/>
<path d="M0 148.047H36.7347" stroke="black" stroke-width="1.35594"/>
<path d="M0 103.156H150" stroke="black" stroke-width="1.35594"/>
<path d="M0 112.461H150" stroke="black" stroke-width="1.35594"/>
<path d="M0 121.773H150" stroke="black" stroke-width="1.35594"/>
<path d="M0 131.234H150" stroke="black" stroke-width="1.35594"/>
<path d="M0 140.539H150" stroke="black" stroke-width="1.35594"/>
<path d="M0 150H150" stroke="black" stroke-width="1.35594"/>
<path d="M0 94.7422H36.7347" stroke="black" stroke-width="1.35594"/>
<path d="M0 104.055H36.7347" stroke="black" stroke-width="1.35594"/>
<path d="M0 113.367H36.7347" stroke="black" stroke-width="1.35594"/>
<path d="M0 122.672H36.7347" stroke="black" stroke-width="1.35594"/>
<path d="M0 132.133H36.7347" stroke="black" stroke-width="1.35594"/>
<path d="M0 141.445H36.7347" stroke="black" stroke-width="1.35594"/>
<path d="M0 96.5469H36.7347" stroke="black" stroke-width="1.35594"/>
<path d="M0 105.859H36.7347" stroke="black" stroke-width="1.35594"/>
<path d="M0 115.164H36.7347" stroke="black" stroke-width="1.35594"/>
<path d="M0 124.625H36.7347" stroke="black" stroke-width="1.35594"/>
<path d="M0 133.938H36.7347" stroke="black" stroke-width="1.35594"/>
<path d="M0 143.391H36.7347" stroke="black" stroke-width="1.35594"/>
<path d="M0 98.5H73.4694" stroke="black" stroke-width="1.35594"/>
<path d="M0 107.805H73.4694" stroke="black" stroke-width="1.35594"/>
<path d="M0 117.117H73.4694" stroke="black" stroke-width="1.35594"/>
<path d="M0 126.43H73.4694" stroke="black" stroke-width="1.35594"/>
<path d="M0 135.883H73.4694" stroke="black" stroke-width="1.35594"/>
<path d="M0 145.195H73.4694" stroke="black" stroke-width="1.35594"/>
<path d="M36.7347 100.297H0" stroke="black" stroke-width="1.35594"/>
<path d="M36.7347 109.609H0" stroke="black" stroke-width="1.35594"/>
<path d="M36.7347 118.922H0" stroke="black" stroke-width="1.35594"/>
<path d="M36.7347 128.375H0" stroke="black" stroke-width="1.35594"/>
<path d="M36.7347 137.688H0" stroke="black" stroke-width="1.35594"/>
<path d="M36.7347 147.148H0" stroke="black" stroke-width="1.35594"/>
<path d="M0 102.25H36.7347" stroke="black" stroke-width="1.35594"/>
<path d="M0 111.562H36.7347" stroke="black" stroke-width="1.35594"/>
<path d="M0 120.867H36.7347" stroke="black" stroke-width="1.35594"/>
<path d="M0 130.18H36.7347" stroke="black" stroke-width="1.35594"/>
<path d="M0 139.641H36.7347" stroke="black" stroke-width="1.35594"/>
<path d="M0 148.945H36.7347" stroke="black" stroke-width="1.35594"/>
<path d="M0 0H150" stroke="black" stroke-width="1.35594"/>
<path d="M0 93.6953H150" stroke="black" stroke-width="1.35594"/>
<path d="M0 1.80469H36.7347" stroke="black" stroke-width="1.35594"/>
<path d="M0 11.1094H36.7347" stroke="black" stroke-width="1.35594"/>
<path d="M0 20.4219H36.7347" stroke="black" stroke-width="1.35594"/>
<path d="M0 29.8828H36.7347" stroke="black" stroke-width="1.35594"/>
<path d="M0 39.1875H36.7347" stroke="black" stroke-width="1.35594"/>
<path d="M0 48.6484H36.7347" stroke="black" stroke-width="1.35594"/>
<path d="M0 57.9609H36.7347" stroke="black" stroke-width="1.35594"/>
<path d="M0 67.4141H36.7347" stroke="black" stroke-width="1.35594"/>
<path d="M0 76.7266H36.7347" stroke="black" stroke-width="1.35594"/>
<path d="M0 86.0391H36.7347" stroke="black" stroke-width="1.35594"/>
<path d="M0 3.60156H36.7347" stroke="black" stroke-width="1.35594"/>
<path d="M0 12.9141H36.7347" stroke="black" stroke-width="1.35594"/>
<path d="M0 22.375H36.7347" stroke="black" stroke-width="1.35594"/>
<path d="M0 31.6797H36.7347" stroke="black" stroke-width="1.35594"/>
<path d="M0 41.1406H36.7347" stroke="black" stroke-width="1.35594"/>
<path d="M0 50.4531H36.7347" stroke="black" stroke-width="1.35594"/>
<path d="M0 59.9062H36.7347" stroke="black" stroke-width="1.35594"/>
<path d="M0 69.2188H36.7347" stroke="black" stroke-width="1.35594"/>
<path d="M0 78.5312H36.7347" stroke="black" stroke-width="1.35594"/>
<path d="M0 87.9844H36.7347" stroke="black" stroke-width="1.35594"/>
<path d="M0 5.55469H36.7347" stroke="black" stroke-width="1.35594"/>
<path d="M0 14.8672H36.7347" stroke="black" stroke-width="1.35594"/>
<path d="M0 24.1719H36.7347" stroke="black" stroke-width="1.35594"/>
<path d="M0 33.6328H36.7347" stroke="black" stroke-width="1.35594"/>
<path d="M0 42.9453H36.7347" stroke="black" stroke-width="1.35594"/>
<path d="M0 52.4062H36.7347" stroke="black" stroke-width="1.35594"/>
<path d="M0 61.7109H36.7347" stroke="black" stroke-width="1.35594"/>
<path d="M0 71.1719H36.7347" stroke="black" stroke-width="1.35594"/>
<path d="M0 80.4844H36.7347" stroke="black" stroke-width="1.35594"/>
<path d="M0 89.7891H36.7347" stroke="black" stroke-width="1.35594"/>
<path d="M0 7.35938H36.7347" stroke="black" stroke-width="1.35594"/>
<path d="M0 16.6641H36.7347" stroke="black" stroke-width="1.35594"/>
<path d="M0 26.125H36.7347" stroke="black" stroke-width="1.35594"/>
<path d="M0 35.4375H36.7347" stroke="black" stroke-width="1.35594"/>
<path d="M0 44.8984H36.7347" stroke="black" stroke-width="1.35594"/>
<path d="M0 54.2031H36.7347" stroke="black" stroke-width="1.35594"/>
<path d="M0 63.6641H36.7347" stroke="black" stroke-width="1.35594"/>
<path d="M0 72.9766H36.7347" stroke="black" stroke-width="1.35594"/>
<path d="M0 82.2812H36.7347" stroke="black" stroke-width="1.35594"/>
<path d="M0 91.7422H36.7347" stroke="black" stroke-width="1.35594"/>
<path d="M0 9.3125H150" stroke="black" stroke-width="1.35594"/>
<path d="M0 18.6172H150" stroke="black" stroke-width="1.35594"/>
<path d="M0 27.9297H150" stroke="black" stroke-width="1.35594"/>
<path d="M0 37.3906H150" stroke="black" stroke-width="1.35594"/>
<path d="M0 46.6953H150" stroke="black" stroke-width="1.35594"/>
<path d="M0 56.1562H150" stroke="black" stroke-width="1.35594"/>
<path d="M0 65.4688H150" stroke="black" stroke-width="1.35594"/>
<path d="M0 74.9219H150" stroke="black" stroke-width="1.35594"/>
<path d="M0 84.2344H150" stroke="black" stroke-width="1.35594"/>
<path d="M0 0.898438H36.7347" stroke="black" stroke-width="1.35594"/>
<path d="M0 10.2109H36.7347" stroke="black" stroke-width="1.35594"/>
<path d="M0 19.5156H36.7347" stroke="black" stroke-width="1.35594"/>
<path d="M0 28.9766H36.7347" stroke="black" stroke-width="1.35594"/>
<path d="M0 38.2891H36.7347" stroke="black" stroke-width="1.35594"/>
<path d="M0 47.5938H36.7347" stroke="black" stroke-width="1.35594"/>
<path d="M0 57.0547H36.7347" stroke="black" stroke-width="1.35594"/>
<path d="M0 66.3672H36.7347" stroke="black" stroke-width="1.35594"/>
<path d="M0 75.8281H36.7347" stroke="black" stroke-width="1.35594"/>
<path d="M0 85.1328H36.7347" stroke="black" stroke-width="1.35594"/>
<path d="M0 2.70312H36.7347" stroke="black" stroke-width="1.35594"/>
<path d="M0 12.0156H36.7347" stroke="black" stroke-width="1.35594"/>
<path d="M0 21.4688H36.7347" stroke="black" stroke-width="1.35594"/>
<path d="M0 30.7812H36.7347" stroke="black" stroke-width="1.35594"/>
<path d="M0 40.0938H36.7347" stroke="black" stroke-width="1.35594"/>
<path d="M0 49.5469H36.7347" stroke="black" stroke-width="1.35594"/>
<path d="M0 58.8594H36.7347" stroke="black" stroke-width="1.35594"/>
<path d="M0 68.3203H36.7347" stroke="black" stroke-width="1.35594"/>
<path d="M0 77.625H36.7347" stroke="black" stroke-width="1.35594"/>
<path d="M0 87.0859H36.7347" stroke="black" stroke-width="1.35594"/>
<path d="M0 4.65625H73.4694" stroke="black" stroke-width="1.35594"/>
<path d="M0 13.9609H73.4694" stroke="black" stroke-width="1.35594"/>
<path d="M0 23.2734H73.4694" stroke="black" stroke-width="1.35594"/>
<path d="M0 32.7344H73.4694" stroke="black" stroke-width="1.35594"/>
<path d="M0 42.0391H73.4694" stroke="black" stroke-width="1.35594"/>
<path d="M0 51.3516H73.4694" stroke="black" stroke-width="1.35594"/>
<path d="M0 60.8125H73.4694" stroke="black" stroke-width="1.35594"/>
<path d="M0 70.1172H73.4694" stroke="black" stroke-width="1.35594"/>
<path d="M0 79.5781H73.4694" stroke="black" stroke-width="1.35594"/>
<path d="M0 88.8906H73.4694" stroke="black" stroke-width="1.35594"/>
<path d="M36.7347 6.45312H0" stroke="black" stroke-width="1.35594"/>
<path d="M36.7347 15.7656H0" stroke="black" stroke-width="1.35594"/>
<path d="M36.7347 25.2266H0" stroke="black" stroke-width="1.35594"/>
<path d="M36.7347 34.5312H0" stroke="black" stroke-width="1.35594"/>
<path d="M36.7347 43.8438H0" stroke="black" stroke-width="1.35594"/>
<path d="M36.7347 53.3047H0" stroke="black" stroke-width="1.35594"/>
<path d="M36.7347 62.6094H0" stroke="black" stroke-width="1.35594"/>
<path d="M36.7347 72.0703H0" stroke="black" stroke-width="1.35594"/>
<path d="M36.7347 81.3828H0" stroke="black" stroke-width="1.35594"/>
<path d="M36.7347 90.8438H0" stroke="black" stroke-width="1.35594"/>
<path d="M0 8.40625H36.7347" stroke="black" stroke-width="1.35594"/>
<path d="M0 17.7188H36.7347" stroke="black" stroke-width="1.35594"/>
<path d="M0 27.0234H36.7347" stroke="black" stroke-width="1.35594"/>
<path d="M0 36.4844H36.7347" stroke="black" stroke-width="1.35594"/>
<path d="M0 45.7969H36.7347" stroke="black" stroke-width="1.35594"/>
<path d="M0 55.1016H36.7347" stroke="black" stroke-width="1.35594"/>
<path d="M0 64.5625H36.7347" stroke="black" stroke-width="1.35594"/>
<path d="M0 73.875H36.7347" stroke="black" stroke-width="1.35594"/>
<path d="M0 83.3359H36.7347" stroke="black" stroke-width="1.35594"/>
<path d="M0 92.6406H36.7347" stroke="black" stroke-width="1.35594"/>
</g>
<defs>
<clipPath id="clip0_2109_236068">
<rect width="150" height="150" fill="white"/>
</clipPath>
</defs>
</svg>
