<svg width="150" height="150" viewBox="0 0 150 150" fill="none" xmlns="http://www.w3.org/2000/svg">
<g clip-path="url(#clip0_2109_235542)">
<path d="M0 0H150" stroke="black" stroke-width="1.06789"/>
<path d="M0 150H150" stroke="black" stroke-width="1.06789"/>
<path d="M0 2.85156H36.076" stroke="black" stroke-width="1.06789"/>
<path d="M0 17.7188H36.076" stroke="black" stroke-width="1.06789"/>
<path d="M0 32.7344H36.076" stroke="black" stroke-width="1.06789"/>
<path d="M0 47.75H36.076" stroke="black" stroke-width="1.06789"/>
<path d="M0 62.7656H36.076" stroke="black" stroke-width="1.06789"/>
<path d="M0 77.7812H36.076" stroke="black" stroke-width="1.06789"/>
<path d="M0 92.7891H36.076" stroke="black" stroke-width="1.06789"/>
<path d="M0 107.656H36.076" stroke="black" stroke-width="1.06789"/>
<path d="M0 122.672H36.076" stroke="black" stroke-width="1.06789"/>
<path d="M0 137.688H36.076" stroke="black" stroke-width="1.06789"/>
<path d="M0 5.85938H36.076" stroke="black" stroke-width="1.06789"/>
<path d="M0 20.7188H36.076" stroke="black" stroke-width="1.06789"/>
<path d="M0 35.7344H36.076" stroke="black" stroke-width="1.06789"/>
<path d="M0 50.75H36.076" stroke="black" stroke-width="1.06789"/>
<path d="M0 65.7656H36.076" stroke="black" stroke-width="1.06789"/>
<path d="M0 80.7812H36.076" stroke="black" stroke-width="1.06789"/>
<path d="M0 95.7969H36.076" stroke="black" stroke-width="1.06789"/>
<path d="M0 110.664H36.076" stroke="black" stroke-width="1.06789"/>
<path d="M0 125.672H36.076" stroke="black" stroke-width="1.06789"/>
<path d="M0 140.688H36.076" stroke="black" stroke-width="1.06789"/>
<path d="M0 8.85938H36.076" stroke="black" stroke-width="1.06789"/>
<path d="M0 23.7266H36.076" stroke="black" stroke-width="1.06789"/>
<path d="M0 38.7422H36.076" stroke="black" stroke-width="1.06789"/>
<path d="M0 53.75H36.076" stroke="black" stroke-width="1.06789"/>
<path d="M0 68.7656H36.076" stroke="black" stroke-width="1.06789"/>
<path d="M0 83.7812H36.076" stroke="black" stroke-width="1.06789"/>
<path d="M0 98.7969H36.076" stroke="black" stroke-width="1.06789"/>
<path d="M0 113.664H36.076" stroke="black" stroke-width="1.06789"/>
<path d="M0 128.68H36.076" stroke="black" stroke-width="1.06789"/>
<path d="M0 143.695H36.076" stroke="black" stroke-width="1.06789"/>
<path d="M0 11.8594H36.076" stroke="black" stroke-width="1.06789"/>
<path d="M0 26.7266H36.076" stroke="black" stroke-width="1.06789"/>
<path d="M0 41.7422H36.076" stroke="black" stroke-width="1.06789"/>
<path d="M0 56.7578H36.076" stroke="black" stroke-width="1.06789"/>
<path d="M0 71.7734H36.076" stroke="black" stroke-width="1.06789"/>
<path d="M0 86.7891H36.076" stroke="black" stroke-width="1.06789"/>
<path d="M0 101.648H36.076" stroke="black" stroke-width="1.06789"/>
<path d="M0 116.664H36.076" stroke="black" stroke-width="1.06789"/>
<path d="M0 131.68H36.076" stroke="black" stroke-width="1.06789"/>
<path d="M0 146.695H36.076" stroke="black" stroke-width="1.06789"/>
<path d="M0 14.8672H150" stroke="black" stroke-width="1.06789"/>
<path d="M0 29.7266H150" stroke="black" stroke-width="1.06789"/>
<path d="M0 44.7422H150" stroke="black" stroke-width="1.06789"/>
<path d="M0 59.7578H150" stroke="black" stroke-width="1.06789"/>
<path d="M0 74.7734H150" stroke="black" stroke-width="1.06789"/>
<path d="M0 89.7891H150" stroke="black" stroke-width="1.06789"/>
<path d="M0 104.656H150" stroke="black" stroke-width="1.06789"/>
<path d="M0 119.672H150" stroke="black" stroke-width="1.06789"/>
<path d="M0 134.688H150" stroke="black" stroke-width="1.06789"/>
<path d="M0 1.35156H36.076" stroke="black" stroke-width="1.06789"/>
<path d="M0 16.3672H36.076" stroke="black" stroke-width="1.06789"/>
<path d="M0 31.2344H36.076" stroke="black" stroke-width="1.06789"/>
<path d="M0 46.25H36.076" stroke="black" stroke-width="1.06789"/>
<path d="M0 61.2578H36.076" stroke="black" stroke-width="1.06789"/>
<path d="M0 76.2734H36.076" stroke="black" stroke-width="1.06789"/>
<path d="M0 91.2891H36.076" stroke="black" stroke-width="1.06789"/>
<path d="M0 106.156H36.076" stroke="black" stroke-width="1.06789"/>
<path d="M0 121.172H36.076" stroke="black" stroke-width="1.06789"/>
<path d="M0 136.188H36.076" stroke="black" stroke-width="1.06789"/>
<path d="M0 4.35156H36.076" stroke="black" stroke-width="1.06789"/>
<path d="M0 19.2188H36.076" stroke="black" stroke-width="1.06789"/>
<path d="M0 34.2344H36.076" stroke="black" stroke-width="1.06789"/>
<path d="M0 49.25H36.076" stroke="black" stroke-width="1.06789"/>
<path d="M0 64.2656H36.076" stroke="black" stroke-width="1.06789"/>
<path d="M0 79.2812H36.076" stroke="black" stroke-width="1.06789"/>
<path d="M0 94.2969H36.076" stroke="black" stroke-width="1.06789"/>
<path d="M0 109.156H36.076" stroke="black" stroke-width="1.06789"/>
<path d="M0 124.172H36.076" stroke="black" stroke-width="1.06789"/>
<path d="M0 139.188H36.076" stroke="black" stroke-width="1.06789"/>
<path d="M0 7.35938H74.0506" stroke="black" stroke-width="1.06789"/>
<path d="M0 22.2188H74.0506" stroke="black" stroke-width="1.06789"/>
<path d="M0 37.2344H74.0506" stroke="black" stroke-width="1.06789"/>
<path d="M0 52.25H74.0506" stroke="black" stroke-width="1.06789"/>
<path d="M0 67.2656H74.0506" stroke="black" stroke-width="1.06789"/>
<path d="M0 82.2812H74.0506" stroke="black" stroke-width="1.06789"/>
<path d="M0 97.2969H74.0506" stroke="black" stroke-width="1.06789"/>
<path d="M0 112.164H74.0506" stroke="black" stroke-width="1.06789"/>
<path d="M0 127.18H74.0506" stroke="black" stroke-width="1.06789"/>
<path d="M0 142.195H74.0506" stroke="black" stroke-width="1.06789"/>
<path d="M36.076 10.3594H0" stroke="black" stroke-width="1.06789"/>
<path d="M36.076 25.2266H0" stroke="black" stroke-width="1.06789"/>
<path d="M36.076 40.2422H0" stroke="black" stroke-width="1.06789"/>
<path d="M36.076 55.2578H0" stroke="black" stroke-width="1.06789"/>
<path d="M36.076 70.2734H0" stroke="black" stroke-width="1.06789"/>
<path d="M36.076 85.2891H0" stroke="black" stroke-width="1.06789"/>
<path d="M36.076 100.148H0" stroke="black" stroke-width="1.06789"/>
<path d="M36.076 115.164H0" stroke="black" stroke-width="1.06789"/>
<path d="M36.076 130.18H0" stroke="black" stroke-width="1.06789"/>
<path d="M36.076 145.195H0" stroke="black" stroke-width="1.06789"/>
<path d="M0 13.3672H36.076" stroke="black" stroke-width="1.06789"/>
<path d="M0 28.2266H36.076" stroke="black" stroke-width="1.06789"/>
<path d="M0 43.2422H36.076" stroke="black" stroke-width="1.06789"/>
<path d="M0 58.2578H36.076" stroke="black" stroke-width="1.06789"/>
<path d="M0 73.2734H36.076" stroke="black" stroke-width="1.06789"/>
<path d="M0 88.2891H36.076" stroke="black" stroke-width="1.06789"/>
<path d="M0 103.156H36.076" stroke="black" stroke-width="1.06789"/>
<path d="M0 118.172H36.076" stroke="black" stroke-width="1.06789"/>
<path d="M0 133.18H36.076" stroke="black" stroke-width="1.06789"/>
<path d="M0 148.195H36.076" stroke="black" stroke-width="1.06789"/>
</g>
<defs>
<clipPath id="clip0_2109_235542">
<rect width="150" height="150" fill="white"/>
</clipPath>
</defs>
</svg>
