<svg width="150" height="150" viewBox="0 0 150 150" fill="none" xmlns="http://www.w3.org/2000/svg">
<g clip-path="url(#clip0_2109_235094)">
<path d="M0 0H150" stroke="black" stroke-width="0.775632"/>
<path d="M0 10.0234H37.5" stroke="black" stroke-width="0.775632"/>
<path d="M0 59.7578H37.5" stroke="black" stroke-width="0.775632"/>
<path d="M0 109.891H37.5" stroke="black" stroke-width="0.775632"/>
<path d="M0 20.0547H37.5" stroke="black" stroke-width="0.775632"/>
<path d="M0 69.7891H37.5" stroke="black" stroke-width="0.775632"/>
<path d="M0 119.922H37.5" stroke="black" stroke-width="0.775632"/>
<path d="M0 30.0781H37.5" stroke="black" stroke-width="0.775632"/>
<path d="M0 79.8125H37.5" stroke="black" stroke-width="0.775632"/>
<path d="M0 129.945H37.5" stroke="black" stroke-width="0.775632"/>
<path d="M0 40.1094H37.5" stroke="black" stroke-width="0.775632"/>
<path d="M0 89.8359H37.5" stroke="black" stroke-width="0.775632"/>
<path d="M0 139.977H37.5" stroke="black" stroke-width="0.775632"/>
<path d="M0 50.1328H150" stroke="black" stroke-width="0.775632"/>
<path d="M0 99.8672H150" stroke="black" stroke-width="0.775632"/>
<path d="M0 150H150" stroke="black" stroke-width="0.775632"/>
<path d="M0 5.01562H37.5" stroke="black" stroke-width="0.775632"/>
<path d="M0 54.7422H37.5" stroke="black" stroke-width="0.775632"/>
<path d="M0 104.883H37.5" stroke="black" stroke-width="0.775632"/>
<path d="M0 15.0391H37.5" stroke="black" stroke-width="0.775632"/>
<path d="M0 64.7734H37.5" stroke="black" stroke-width="0.775632"/>
<path d="M0 114.906H37.5" stroke="black" stroke-width="0.775632"/>
<path d="M0 25.0703H75" stroke="black" stroke-width="0.775632"/>
<path d="M0 74.7969H75" stroke="black" stroke-width="0.775632"/>
<path d="M0 124.93H75" stroke="black" stroke-width="0.775632"/>
<path d="M37.5 35.0938H0" stroke="black" stroke-width="0.775632"/>
<path d="M37.5 84.8281H0" stroke="black" stroke-width="0.775632"/>
<path d="M37.5 134.961H0" stroke="black" stroke-width="0.775632"/>
<path d="M0 45.1172H37.5" stroke="black" stroke-width="0.775632"/>
<path d="M0 94.8516H37.5" stroke="black" stroke-width="0.775632"/>
<path d="M0 144.984H37.5" stroke="black" stroke-width="0.775632"/>
</g>
<defs>
<clipPath id="clip0_2109_235094">
<rect width="150" height="150" fill="white"/>
</clipPath>
</defs>
</svg>
