<svg width="150" height="150" viewBox="0 0 150 150" fill="none" xmlns="http://www.w3.org/2000/svg">
<g clip-path="url(#clip0_2109_237334)">
<path d="M0 117.719H150" stroke="black" stroke-width="1.25719"/>
<path d="M0 128.531H150" stroke="black" stroke-width="1.25719"/>
<path d="M0 139.188H150" stroke="black" stroke-width="1.25719"/>
<path d="M0 150H150" stroke="black" stroke-width="1.25719"/>
<path d="M36.8418 108.258H110.526" stroke="black" stroke-width="1.25719"/>
<path d="M36.8418 118.922H110.526" stroke="black" stroke-width="1.25719"/>
<path d="M36.8418 129.578H110.526" stroke="black" stroke-width="1.25719"/>
<path d="M36.8418 140.242H110.526" stroke="black" stroke-width="1.25719"/>
<path d="M36.8418 109.312H110.526" stroke="black" stroke-width="1.25719"/>
<path d="M36.8418 119.969H110.526" stroke="black" stroke-width="1.25719"/>
<path d="M36.8418 130.633H110.526" stroke="black" stroke-width="1.25719"/>
<path d="M36.8418 141.289H110.526" stroke="black" stroke-width="1.25719"/>
<path d="M36.8418 110.359H110.526" stroke="black" stroke-width="1.25719"/>
<path d="M36.8418 121.023H110.526" stroke="black" stroke-width="1.25719"/>
<path d="M36.8418 131.68H110.526" stroke="black" stroke-width="1.25719"/>
<path d="M36.8418 142.492H110.526" stroke="black" stroke-width="1.25719"/>
<path d="M36.8418 111.414H110.526" stroke="black" stroke-width="1.25719"/>
<path d="M36.8418 122.07H110.526" stroke="black" stroke-width="1.25719"/>
<path d="M36.8418 132.734H110.526" stroke="black" stroke-width="1.25719"/>
<path d="M36.8418 143.547H110.526" stroke="black" stroke-width="1.25719"/>
<path d="M36.8418 112.461H110.526" stroke="black" stroke-width="1.25719"/>
<path d="M36.8418 123.125H110.526" stroke="black" stroke-width="1.25719"/>
<path d="M36.8418 133.781H110.526" stroke="black" stroke-width="1.25719"/>
<path d="M36.8418 144.594H110.526" stroke="black" stroke-width="1.25719"/>
<path d="M36.8418 113.516H110.526" stroke="black" stroke-width="1.25719"/>
<path d="M36.8418 124.172H110.526" stroke="black" stroke-width="1.25719"/>
<path d="M36.8418 134.984H110.526" stroke="black" stroke-width="1.25719"/>
<path d="M36.8418 145.648H110.526" stroke="black" stroke-width="1.25719"/>
<path d="M36.8418 114.711H110.526" stroke="black" stroke-width="1.25719"/>
<path d="M36.8418 125.227H110.526" stroke="black" stroke-width="1.25719"/>
<path d="M36.8418 136.039H110.526" stroke="black" stroke-width="1.25719"/>
<path d="M36.8418 146.695H110.526" stroke="black" stroke-width="1.25719"/>
<path d="M36.8418 115.766H110.526" stroke="black" stroke-width="1.25719"/>
<path d="M36.8418 126.43H110.526" stroke="black" stroke-width="1.25719"/>
<path d="M36.8418 137.086H110.526" stroke="black" stroke-width="1.25719"/>
<path d="M36.8418 147.75H110.526" stroke="black" stroke-width="1.25719"/>
<path d="M36.8418 116.82H110.526" stroke="black" stroke-width="1.25719"/>
<path d="M36.8418 127.477H110.526" stroke="black" stroke-width="1.25719"/>
<path d="M36.8418 138.141H110.526" stroke="black" stroke-width="1.25719"/>
<path d="M36.8418 148.797H110.526" stroke="black" stroke-width="1.25719"/>
<path d="M0 0H150" stroke="black" stroke-width="1.25719"/>
<path d="M0 107.211H150" stroke="black" stroke-width="1.25719"/>
<path d="M0 10.5078H150" stroke="black" stroke-width="1.25719"/>
<path d="M0 21.3203H150" stroke="black" stroke-width="1.25719"/>
<path d="M0 31.9844H150" stroke="black" stroke-width="1.25719"/>
<path d="M0 42.6406H150" stroke="black" stroke-width="1.25719"/>
<path d="M0 53.4531H150" stroke="black" stroke-width="1.25719"/>
<path d="M0 64.1172H150" stroke="black" stroke-width="1.25719"/>
<path d="M0 74.7734H150" stroke="black" stroke-width="1.25719"/>
<path d="M0 85.5859H150" stroke="black" stroke-width="1.25719"/>
<path d="M0 96.25H150" stroke="black" stroke-width="1.25719"/>
<path d="M36.8418 1.05469H110.526" stroke="black" stroke-width="1.25719"/>
<path d="M36.8418 11.5625H110.526" stroke="black" stroke-width="1.25719"/>
<path d="M36.8418 22.375H110.526" stroke="black" stroke-width="1.25719"/>
<path d="M36.8418 33.0312H110.526" stroke="black" stroke-width="1.25719"/>
<path d="M36.8418 43.6953H110.526" stroke="black" stroke-width="1.25719"/>
<path d="M36.8418 54.5078H110.526" stroke="black" stroke-width="1.25719"/>
<path d="M36.8418 65.1641H110.526" stroke="black" stroke-width="1.25719"/>
<path d="M36.8418 75.9766H110.526" stroke="black" stroke-width="1.25719"/>
<path d="M36.8418 86.6328H110.526" stroke="black" stroke-width="1.25719"/>
<path d="M36.8418 97.2969H110.526" stroke="black" stroke-width="1.25719"/>
<path d="M36.8418 2.10156H110.526" stroke="black" stroke-width="1.25719"/>
<path d="M36.8418 12.7656H110.526" stroke="black" stroke-width="1.25719"/>
<path d="M36.8418 23.4219H110.526" stroke="black" stroke-width="1.25719"/>
<path d="M36.8418 34.0859H110.526" stroke="black" stroke-width="1.25719"/>
<path d="M36.8418 44.8984H110.526" stroke="black" stroke-width="1.25719"/>
<path d="M36.8418 55.5547H110.526" stroke="black" stroke-width="1.25719"/>
<path d="M36.8418 66.2188H110.526" stroke="black" stroke-width="1.25719"/>
<path d="M36.8418 77.0234H110.526" stroke="black" stroke-width="1.25719"/>
<path d="M36.8418 87.6875H110.526" stroke="black" stroke-width="1.25719"/>
<path d="M36.8418 98.3516H110.526" stroke="black" stroke-width="1.25719"/>
<path d="M36.8418 3.15625H110.526" stroke="black" stroke-width="1.25719"/>
<path d="M36.8418 13.8125H110.526" stroke="black" stroke-width="1.25719"/>
<path d="M36.8418 24.4766H110.526" stroke="black" stroke-width="1.25719"/>
<path d="M36.8418 35.1328H110.526" stroke="black" stroke-width="1.25719"/>
<path d="M36.8418 45.9453H110.526" stroke="black" stroke-width="1.25719"/>
<path d="M36.8418 56.6094H110.526" stroke="black" stroke-width="1.25719"/>
<path d="M36.8418 67.2656H110.526" stroke="black" stroke-width="1.25719"/>
<path d="M36.8418 78.0781H110.526" stroke="black" stroke-width="1.25719"/>
<path d="M36.8418 88.7422H110.526" stroke="black" stroke-width="1.25719"/>
<path d="M36.8418 99.5469H110.526" stroke="black" stroke-width="1.25719"/>
<path d="M36.8418 4.20312H110.526" stroke="black" stroke-width="1.25719"/>
<path d="M36.8418 14.8672H110.526" stroke="black" stroke-width="1.25719"/>
<path d="M36.8418 25.5234H110.526" stroke="black" stroke-width="1.25719"/>
<path d="M36.8418 36.3359H110.526" stroke="black" stroke-width="1.25719"/>
<path d="M36.8418 47H110.526" stroke="black" stroke-width="1.25719"/>
<path d="M36.8418 57.6562H110.526" stroke="black" stroke-width="1.25719"/>
<path d="M36.8418 68.4688H110.526" stroke="black" stroke-width="1.25719"/>
<path d="M36.8418 79.1328H110.526" stroke="black" stroke-width="1.25719"/>
<path d="M36.8418 89.7891H110.526" stroke="black" stroke-width="1.25719"/>
<path d="M36.8418 100.602H110.526" stroke="black" stroke-width="1.25719"/>
<path d="M36.8418 5.25781H110.526" stroke="black" stroke-width="1.25719"/>
<path d="M36.8418 15.9141H110.526" stroke="black" stroke-width="1.25719"/>
<path d="M36.8418 26.5781H110.526" stroke="black" stroke-width="1.25719"/>
<path d="M36.8418 37.3906H110.526" stroke="black" stroke-width="1.25719"/>
<path d="M36.8418 48.0469H110.526" stroke="black" stroke-width="1.25719"/>
<path d="M36.8418 58.7109H110.526" stroke="black" stroke-width="1.25719"/>
<path d="M36.8418 69.5156H110.526" stroke="black" stroke-width="1.25719"/>
<path d="M36.8418 80.1797H110.526" stroke="black" stroke-width="1.25719"/>
<path d="M36.8418 90.8438H110.526" stroke="black" stroke-width="1.25719"/>
<path d="M36.8418 101.648H110.526" stroke="black" stroke-width="1.25719"/>
<path d="M36.8418 6.30469H110.526" stroke="black" stroke-width="1.25719"/>
<path d="M36.8418 16.9688H110.526" stroke="black" stroke-width="1.25719"/>
<path d="M36.8418 27.625H110.526" stroke="black" stroke-width="1.25719"/>
<path d="M36.8418 38.4375H110.526" stroke="black" stroke-width="1.25719"/>
<path d="M36.8418 49.1016H110.526" stroke="black" stroke-width="1.25719"/>
<path d="M36.8418 59.9062H110.526" stroke="black" stroke-width="1.25719"/>
<path d="M36.8418 70.5703H110.526" stroke="black" stroke-width="1.25719"/>
<path d="M36.8418 81.2344H110.526" stroke="black" stroke-width="1.25719"/>
<path d="M36.8418 92.0391H110.526" stroke="black" stroke-width="1.25719"/>
<path d="M36.8418 102.703H110.526" stroke="black" stroke-width="1.25719"/>
<path d="M36.8418 7.35938H110.526" stroke="black" stroke-width="1.25719"/>
<path d="M36.8418 18.0156H110.526" stroke="black" stroke-width="1.25719"/>
<path d="M36.8418 28.8281H110.526" stroke="black" stroke-width="1.25719"/>
<path d="M36.8418 39.4922H110.526" stroke="black" stroke-width="1.25719"/>
<path d="M36.8418 50.1484H110.526" stroke="black" stroke-width="1.25719"/>
<path d="M36.8418 60.9609H110.526" stroke="black" stroke-width="1.25719"/>
<path d="M36.8418 71.625H110.526" stroke="black" stroke-width="1.25719"/>
<path d="M36.8418 82.2812H110.526" stroke="black" stroke-width="1.25719"/>
<path d="M36.8418 93.0938H110.526" stroke="black" stroke-width="1.25719"/>
<path d="M36.8418 103.75H110.526" stroke="black" stroke-width="1.25719"/>
<path d="M36.8418 8.55469H110.526" stroke="black" stroke-width="1.25719"/>
<path d="M36.8418 19.0703H110.526" stroke="black" stroke-width="1.25719"/>
<path d="M36.8418 29.8828H110.526" stroke="black" stroke-width="1.25719"/>
<path d="M36.8418 40.5391H110.526" stroke="black" stroke-width="1.25719"/>
<path d="M36.8418 51.2031H110.526" stroke="black" stroke-width="1.25719"/>
<path d="M36.8418 62.0156H110.526" stroke="black" stroke-width="1.25719"/>
<path d="M36.8418 72.6719H110.526" stroke="black" stroke-width="1.25719"/>
<path d="M36.8418 83.4844H110.526" stroke="black" stroke-width="1.25719"/>
<path d="M36.8418 94.1406H110.526" stroke="black" stroke-width="1.25719"/>
<path d="M36.8418 104.805H110.526" stroke="black" stroke-width="1.25719"/>
<path d="M36.8418 9.60938H110.526" stroke="black" stroke-width="1.25719"/>
<path d="M36.8418 20.2734H110.526" stroke="black" stroke-width="1.25719"/>
<path d="M36.8418 30.9297H110.526" stroke="black" stroke-width="1.25719"/>
<path d="M36.8418 41.5938H110.526" stroke="black" stroke-width="1.25719"/>
<path d="M36.8418 52.4062H110.526" stroke="black" stroke-width="1.25719"/>
<path d="M36.8418 63.0625H110.526" stroke="black" stroke-width="1.25719"/>
<path d="M36.8418 73.7266H110.526" stroke="black" stroke-width="1.25719"/>
<path d="M36.8418 84.5312H110.526" stroke="black" stroke-width="1.25719"/>
<path d="M36.8418 95.1953H110.526" stroke="black" stroke-width="1.25719"/>
<path d="M36.8418 105.859H110.526" stroke="black" stroke-width="1.25719"/>
</g>
<defs>
<clipPath id="clip0_2109_237334">
<rect width="150" height="150" fill="white"/>
</clipPath>
</defs>
</svg>
