<svg width="150" height="150" viewBox="0 0 150 150" fill="none" xmlns="http://www.w3.org/2000/svg">
<g clip-path="url(#clip0_2109_193182)">
<path d="M149.237 134.036V15.6627L142.367 12.3494L138.55 10.5422L134.351 9.03615L130.153 7.83133L125.954 6.3253L121.374 5.42169L116.412 4.21687L111.451 3.31325L106.489 2.40964L101.527 1.80723L96.1834 1.20482L90.8399 0.60241L85.4963 0.301205L80.1528 0H74.8093H69.4658L63.7406 0.301205L58.3971 0.60241L53.0536 1.20482L48.0918 1.80723L42.7482 2.40964L37.7864 3.31325L32.8246 4.21687L28.2444 5.42169L23.6643 6.3253L19.0841 7.83133L11.0689 10.5422L3.81695 13.8554L0.381836 15.6627V134.337L7.25206 137.651L14.8857 140.964L19.0841 142.169L23.6643 143.675L28.2444 144.578L32.8246 145.783L37.7864 146.687L42.7482 147.59L48.0918 148.193L53.0536 148.795L58.3971 149.398L63.7406 149.699L69.4658 150H74.8093H80.1528L85.4963 149.699L90.8399 149.398L96.1834 148.795L101.527 148.193L106.489 147.59L111.451 146.687L116.412 145.482L121.374 144.578L125.954 143.374L130.153 141.867L134.351 140.663L138.55 139.157L145.802 135.843L149.237 134.036Z" fill="#00FFFF" stroke="black" stroke-width="0.678126"/>
<path d="M0 134.031H150" stroke="black" stroke-width="0.678126"/>
<path d="M0 15.6641H150" stroke="black" stroke-width="0.678126"/>
</g>
<defs>
<clipPath id="clip0_2109_193182">
<rect width="150" height="150" fill="white"/>
</clipPath>
</defs>
</svg>
