<svg width="150" height="150" viewBox="0 0 150 150" fill="none" xmlns="http://www.w3.org/2000/svg">
<g clip-path="url(#clip0_2109_194053)">
<path d="M0 149.997L150 99.4609V149.997L0 99.4609V149.997Z" fill="#00FFFF" stroke="black" stroke-width="0.559043"/>
<path d="M75.1699 124.498V41.3438" stroke="black" stroke-width="0.559043"/>
<path d="M75.1698 41.3476H13.9453L14.2854 37.2129L15.3059 33.0781L16.6664 29.173L18.7072 25.268L21.4283 21.5926L24.4895 18.3767L27.8909 15.1608L31.9725 12.1746L36.3943 9.41807L41.1562 7.12098L45.9181 5.0536L51.3603 3.21593L57.1426 1.83767L62.9249 0.918836L69.0474 0.229709L75.1698 0L81.2923 0.229709L87.4147 0.918836L93.5371 1.83767L98.9793 3.21593L104.422 5.0536L109.524 7.12098L113.945 9.41807L118.367 12.1746L122.109 15.1608L125.85 18.3767L128.911 21.5926L131.292 25.268L133.333 29.173L134.694 33.0781L135.714 37.2129L136.054 41.3476H75.1698Z" fill="#00FFFF" stroke="black" stroke-width="0.559043"/>
<path d="M25.5098 67.5312H125.17" stroke="black" stroke-width="0.559043"/>
</g>
<defs>
<clipPath id="clip0_2109_194053">
<rect width="150" height="150" fill="white"/>
</clipPath>
</defs>
</svg>
