<svg width="150" height="150" viewBox="0 0 150 150" fill="none" xmlns="http://www.w3.org/2000/svg">
<g clip-path="url(#clip0_2109_193851)">
<path d="M100 150L150 125.644V23.9691L100 0H50L0 23.9691V125.644L50 150H100Z" fill="#00FFFF" stroke="black" stroke-width="0.596918"/>
<path d="M44.7009 125.257C61.3713 125.257 74.8853 102.583 74.8853 74.6131C74.8853 46.643 61.3713 23.9688 44.7009 23.9688C28.0306 23.9688 14.5166 46.643 14.5166 74.6131C14.5166 102.583 28.0306 125.257 44.7009 125.257Z" fill="#00FFFF" stroke="black" stroke-width="0.596918"/>
<path d="M105.3 125.257C121.97 125.257 135.484 102.583 135.484 74.6131C135.484 46.643 121.97 23.9688 105.3 23.9688C88.6292 23.9688 75.1152 46.643 75.1152 74.6131C75.1152 102.583 88.6292 125.257 105.3 125.257Z" fill="#00FFFF" stroke="black" stroke-width="0.596918"/>
</g>
<defs>
<clipPath id="clip0_2109_193851">
<rect width="150" height="150" fill="white"/>
</clipPath>
</defs>
</svg>
