<svg width="150" height="150" viewBox="0 0 150 150" fill="none" xmlns="http://www.w3.org/2000/svg">
<g clip-path="url(#clip0_2109_193733)">
<path d="M7.38806 149.619C11.4684 149.619 14.7761 143.994 14.7761 137.056C14.7761 130.117 11.4684 124.492 7.38806 124.492C3.30775 124.492 0 130.117 0 137.056C0 143.994 3.30775 149.619 7.38806 149.619Z" fill="#00FFFF" stroke="black" stroke-width="0.583896"/>
<path d="M142.388 150.002C146.468 150.002 149.776 144.377 149.776 137.438C149.776 130.5 146.468 124.875 142.388 124.875C138.308 124.875 135 130.5 135 137.438C135 144.377 138.308 150.002 142.388 150.002Z" fill="#00FFFF" stroke="black" stroke-width="0.583896"/>
<path d="M7.6123 124.492H142.612" stroke="black" stroke-width="0.583896"/>
<path d="M37.6123 105.453H112.612" stroke="black" stroke-width="0.583896"/>
<path d="M6.7168 150H143.284" stroke="black" stroke-width="0.583896"/>
<path d="M56.1944 92.1355C66.457 92.1355 74.7765 77.9881 74.7765 60.5365C74.7765 43.0848 66.457 28.9375 56.1944 28.9375C45.9318 28.9375 37.6123 43.0848 37.6123 60.5365C37.6123 77.9881 45.9318 92.1355 56.1944 92.1355Z" fill="#00FFFF" stroke="black" stroke-width="0.583896"/>
<path d="M93.806 92.8969C104.192 92.8969 112.612 78.5791 112.612 60.9172C112.612 43.2553 104.192 28.9375 93.806 28.9375C83.4197 28.9375 75 43.2553 75 60.9172C75 78.5791 83.4197 92.8969 93.806 92.8969Z" fill="#00FFFF" stroke="black" stroke-width="0.583896"/>
<path d="M37.6123 105.46V92.5156" stroke="black" stroke-width="0.583896"/>
<path d="M112.612 105.46V92.5156" stroke="black" stroke-width="0.583896"/>
<path d="M20.5967 28.934L37.6116 0H112.612L129.627 28.934" stroke="black" stroke-width="0.583896"/>
</g>
<defs>
<clipPath id="clip0_2109_193733">
<rect width="150" height="150" fill="white"/>
</clipPath>
</defs>
</svg>
