<svg width="150" height="150" viewBox="0 0 150 150" fill="none" xmlns="http://www.w3.org/2000/svg">
<g clip-path="url(#clip0_2109_193857)">
<path d="M150 9.41807L107.203 0H43.007L0 9.41807L25.8042 150H124.406L150 9.41807Z" fill="#00FFFF" stroke="black" stroke-width="0.439048"/>
<path d="M50.9786 124.735C56.8877 124.735 61.6779 119.49 61.6779 113.02C61.6779 106.55 56.8877 101.305 50.9786 101.305C45.0695 101.305 40.2793 106.55 40.2793 113.02C40.2793 119.49 45.0695 124.735 50.9786 124.735Z" fill="#00FFFF" stroke="black" stroke-width="0.439048"/>
<path d="M99.0206 124.735C104.93 124.735 109.72 119.49 109.72 113.02C109.72 106.55 104.93 101.305 99.0206 101.305C93.1115 101.305 88.3213 106.55 88.3213 113.02C88.3213 119.49 93.1115 124.735 99.0206 124.735Z" fill="#00FFFF" stroke="black" stroke-width="0.439048"/>
<path d="M40.4898 115.313L25.5947 32.6176L46.5737 28.0234L61.6786 110.719" stroke="black" stroke-width="0.439048"/>
<path d="M88.5312 110.948L103.217 28.0234L124.196 32.6176L109.51 115.313" stroke="black" stroke-width="0.439048"/>
</g>
<defs>
<clipPath id="clip0_2109_193857">
<rect width="150" height="150" fill="white"/>
</clipPath>
</defs>
</svg>
