<svg width="150" height="150" viewBox="0 0 150 150" fill="none" xmlns="http://www.w3.org/2000/svg">
<g clip-path="url(#clip0_2109_193890)">
<path d="M0 127.422H50.1656V22.3547L51.1589 17.8838L54.1391 13.6364L58.6093 9.83607L65.0662 6.48286L72.0199 3.8003L80.9603 1.78838L90.3974 0.447094L100.331 0L110.265 0.447094L119.702 1.78838L128.146 3.8003L135.596 6.48286L141.556 9.83607L146.026 13.6364L149.007 17.8838L150 22.3547H100.331V127.422L99.3378 131.893L96.3576 136.14L91.8874 140.164L85.4305 143.294L77.9801 146.2L69.5364 148.212L60.0993 149.553L50.1656 150L40.2318 149.553L30.7947 148.212L21.8543 146.2L14.9007 143.294L8.44371 140.164L3.97351 136.14L0.993378 131.893L0 127.422Z" fill="#00FFFF" stroke="black" stroke-width="0.666433"/>
</g>
<defs>
<clipPath id="clip0_2109_193890">
<rect width="150" height="150" fill="white"/>
</clipPath>
</defs>
</svg>
