<svg width="150" height="150" viewBox="0 0 150 150" fill="none" xmlns="http://www.w3.org/2000/svg">
<g clip-path="url(#clip0_2109_193898)">
<path d="M140.41 119.872V0H9.83594L10.0818 119.872L12.7868 123.291L15.9835 126.496L19.1802 129.487L22.6228 132.479L26.3113 135.043L30.2458 137.607L34.1802 139.744L38.3605 141.88L42.5409 143.803L46.9671 145.299L51.6392 146.795L56.0654 147.863L60.9835 148.718L65.6556 149.573L70.3277 149.786L75.2458 150L80.1638 149.786L84.8359 149.573L89.5081 148.718L94.4261 147.863L98.8523 146.795L103.524 145.299L107.951 143.803L112.131 141.88L116.311 139.744L120.246 137.607L124.18 135.043L127.869 132.479L131.311 129.487L134.508 126.496L137.705 123.291L140.41 119.872Z" fill="#00FFFF" stroke="black" stroke-width="0.458446"/>
<path d="M0 12.3906H9.83607V96.5787H0V12.3906Z" fill="#00FFFF" stroke="black" stroke-width="0.458446"/>
<path d="M140.164 12.3906H150V96.5787H140.164V12.3906Z" fill="#00FFFF" stroke="black" stroke-width="0.458446"/>
</g>
<defs>
<clipPath id="clip0_2109_193898">
<rect width="150" height="150" fill="white"/>
</clipPath>
</defs>
</svg>
