<svg width="150" height="150" viewBox="0 0 150 150" fill="none" xmlns="http://www.w3.org/2000/svg">
<g clip-path="url(#clip0_2109_193336)">
<path d="M37.5 0V150" stroke="black" stroke-width="0.567734"/>
<path d="M56.3623 0V150" stroke="black" stroke-width="0.567734"/>
<path d="M75 0V150" stroke="black" stroke-width="0.567734"/>
<path d="M93.8623 0V150" stroke="black" stroke-width="0.567734"/>
<path d="M112.5 0V150" stroke="black" stroke-width="0.567734"/>
<path d="M18.8623 75H131.362" stroke="black" stroke-width="0.567734"/>
<path d="M0 15.0703H131.138" stroke="black" stroke-width="0.567734"/>
<path d="M18.8623 134.93H150" stroke="black" stroke-width="0.567734"/>
<path d="M18.8627 134.569L16.6172 132.057L14.8207 129.187L13.0243 125.957L11.677 122.01L10.5543 118.062L9.65607 113.756L9.20697 109.45L8.98242 104.785L9.20697 100.12L9.65607 95.8134L10.5543 91.5072L11.677 87.5598L13.2489 83.6124L14.8207 80.3828L16.8417 77.512L18.8627 75" stroke="black" stroke-width="0.567734"/>
<path d="M131.362 74.6402L133.383 72.1283L135.404 69.2574L136.976 66.0278L138.548 62.4393L139.671 58.133L140.569 53.8268L141.018 49.5206L141.242 44.8555L141.018 40.1905L140.569 35.8842L139.671 31.578L138.548 27.6306L136.976 24.0421L135.18 20.4536L133.383 17.5828L131.138 15.4297" stroke="black" stroke-width="0.567734"/>
</g>
<defs>
<clipPath id="clip0_2109_193336">
<rect width="150" height="150" fill="white"/>
</clipPath>
</defs>
</svg>
