<svg width="150" height="150" viewBox="0 0 150 150" fill="none" xmlns="http://www.w3.org/2000/svg">
<g clip-path="url(#clip0_2109_193578)">
<path d="M0 0H150V150H0V0Z" fill="#00FFFF" stroke="black" stroke-width="0.761421"/>
<path d="M91.7514 138.579L57.8682 11.4219" stroke="black" stroke-width="0.761421"/>
<path d="M91.7514 11.4219L57.8682 138.579" stroke="black" stroke-width="0.761421"/>
<path d="M91.7514 138.961L91.3707 141.245L90.6093 143.149L89.0864 145.052L86.8022 146.575L84.5179 148.098L81.4722 149.24L78.4265 149.621L75.0001 150.002L71.5737 149.621L68.1474 149.24L65.4824 148.098L62.8174 146.575L60.9138 145.052L59.391 143.149L58.2489 141.245L57.8682 138.961" stroke="black" stroke-width="0.761421"/>
<path d="M57.8682 11.4213L58.2489 9.13706L59.391 7.2335L60.9138 4.94924L62.8174 3.4264L65.4824 1.90355L68.1474 0.761421L71.5737 0.380711L75.0001 0L78.4265 0.380711L81.4722 0.761421L84.5179 1.90355L86.8022 3.4264L89.0864 4.94924L90.6093 7.2335L91.3707 9.13706L91.7514 11.4213" stroke="black" stroke-width="0.761421"/>
</g>
<defs>
<clipPath id="clip0_2109_193578">
<rect width="150" height="150" fill="white"/>
</clipPath>
</defs>
</svg>
