<svg width="150" height="150" viewBox="0 0 150 150" fill="none" xmlns="http://www.w3.org/2000/svg">
<g clip-path="url(#clip0_2109_193972)">
<path d="M0 149.999L126.535 104.094V149.999L0 104.094V149.999Z" fill="#00FFFF" stroke="black" stroke-width="0.506024"/>
<path d="M63.2676 126.728V51.2969" stroke="black" stroke-width="0.506024"/>
<path d="M63.2672 51.2969H11.584L12.7721 43.7538L15.7424 36.6417L20.4949 30.3917L26.7325 24.7883L34.4553 20.2624L38.9107 18.3227L48.1186 15.521L57.9206 14.0124L63.2672 13.7969L73.6632 14.6589L83.4652 16.8141L87.9206 18.3227L92.3761 20.2624L99.8018 24.7883L106.336 30.3917L110.792 36.6417L112.574 40.09L114.059 43.7538L114.95 51.2969H63.2672Z" fill="#00FFFF" stroke="black" stroke-width="0.506024"/>
<path d="M150 126.724V0H63.2676V13.7931" stroke="black" stroke-width="0.506024"/>
</g>
<defs>
<clipPath id="clip0_2109_193972">
<rect width="150" height="150" fill="white"/>
</clipPath>
</defs>
</svg>
