<svg width="150" height="150" viewBox="0 0 150 150" fill="none" xmlns="http://www.w3.org/2000/svg">
<g clip-path="url(#clip0_2109_193814)">
<path d="M136.977 67.7266L136.495 74.6049L135.531 81.4832L134.084 87.8324L131.913 94.1816L129.26 100.266L126.125 105.822L122.749 111.113L118.65 115.875L114.309 120.108L109.486 124.076L104.421 127.515L99.1158 130.425L93.328 132.541L87.299 134.393L81.2701 135.451L75 135.716L68.7299 135.451L62.4598 134.393L56.672 132.541L50.8842 130.425L45.3376 127.515L40.2733 124.076L35.4502 120.108L31.1093 115.875L27.2508 111.113L23.6334 105.822L20.4984 100.266L17.8457 94.1816L15.9164 87.8324L14.2283 81.4832L13.2637 74.6049L13.0225 67.7266H12.7814H0L0.482315 76.1922L1.44695 84.3932L3.37621 92.3297L5.78778 99.7371L8.92283 106.88L12.7814 113.758L17.1222 120.108L21.9453 125.928L27.2508 131.219L33.0386 135.981L39.3087 140.213L45.8199 143.652L52.5723 146.298L59.8071 148.414L67.283 149.473L75 150.002L82.717 149.473L89.9518 148.414L97.1865 146.298L104.18 143.652L110.691 140.213L116.961 135.981L122.749 131.219L128.055 125.928L132.878 120.108L137.219 113.758L140.836 106.88L143.971 99.7371L146.624 92.3297L148.553 84.3932L149.518 76.1922L150 67.7266H136.977Z" fill="#00FFFF" stroke="black" stroke-width="0.505166"/>
<path d="M74.7588 135.45C108.855 135.45 136.495 105.128 136.495 67.7249C136.495 30.3215 108.855 0 74.7588 0C40.6628 0 13.0225 30.3215 13.0225 67.7249C13.0225 105.128 40.6628 135.45 74.7588 135.45Z" fill="#00FFFF" stroke="black" stroke-width="0.505166"/>
</g>
<defs>
<clipPath id="clip0_2109_193814">
<rect width="150" height="150" fill="white"/>
</clipPath>
</defs>
</svg>
