<svg width="150" height="150" viewBox="0 0 150 150" fill="none" xmlns="http://www.w3.org/2000/svg">
<g clip-path="url(#clip0_2109_193557)">
<path d="M150 150V0L146.314 2.71903L142.344 5.43807L138.374 8.1571L134.121 10.423L129.868 12.6888L125.331 14.5015L120.51 16.3142L115.974 18.1269L111.153 19.9396L106.049 21.2991L100.945 22.2054L95.8412 23.1118L90.7372 24.0181L85.6333 24.4713L80.5293 24.9245H69.7542L64.6503 24.4713L59.2628 24.0181L54.1588 23.1118L49.0548 22.2054L43.9509 21.2991L39.1304 19.9396L34.31 18.1269L29.4896 16.3142L24.9527 14.5015L20.4159 12.6888L15.879 10.423L11.9093 8.1571L7.65595 5.43807L3.96975 2.71903L0.283554 0L0 150L3.6862 147.281L7.3724 144.562L11.6257 141.843L15.5955 139.577L20.1323 137.311L24.6692 135.045L29.206 133.233L34.0265 131.42L38.8469 130.06L43.6673 128.701L48.7713 127.795L53.8752 126.888L59.2628 125.982L64.3667 125.529L69.7542 125.076H80.5293L85.6333 125.529L91.0208 125.982L96.1248 126.888L101.229 127.795L106.333 128.701L111.153 130.06L115.974 131.42L120.794 133.233L125.331 135.045L129.868 137.311L134.405 139.577L138.374 141.843L142.628 144.562L146.314 147.281L150 150Z" fill="#00FFFF" stroke="black" stroke-width="0.716934"/>
</g>
<defs>
<clipPath id="clip0_2109_193557">
<rect width="150" height="150" fill="white"/>
</clipPath>
</defs>
</svg>
