<svg width="150" height="150" viewBox="0 0 150 150" fill="none" xmlns="http://www.w3.org/2000/svg">
<g clip-path="url(#clip0_2109_193517)">
<path d="M0 0H150V150H0V0Z" fill="#00FFFF" stroke="black" stroke-width="0.867908"/>
<path d="M22.1357 76.938L24.7571 71.7656L27.961 67.2398L30.8736 62.7139L34.3688 59.4811L37.8639 56.8949L41.359 54.9553L44.8542 53.6622L48.6406 53.0156L52.427 53.6622L55.9221 54.9553L59.4173 56.8949L62.9124 59.4811L66.4076 62.7139L69.3202 67.2398L72.5241 71.7656L75.1454 76.938" stroke="black" stroke-width="0.867908"/>
<path d="M128.155 76.2969L125.534 82.1158L122.33 86.6417L119.126 91.1676L115.922 94.4003L112.427 96.9865L108.641 98.9262L105.146 100.219L101.359 100.866L97.864 100.219L94.0775 98.9262L90.5824 96.9865L87.0873 94.4003L83.8834 91.1676L80.6795 86.6417L77.7669 82.1158L75.1455 76.2969" stroke="black" stroke-width="0.867908"/>
</g>
<defs>
<clipPath id="clip0_2109_193517">
<rect width="150" height="150" fill="white"/>
</clipPath>
</defs>
</svg>
