<svg width="150" height="150" viewBox="0 0 150 150" fill="none" xmlns="http://www.w3.org/2000/svg">
<g clip-path="url(#clip0_2109_193225)">
<path d="M2.76753 149.606C4.29599 149.606 5.53506 147.838 5.53506 145.658C5.53506 143.478 4.29599 141.711 2.76753 141.711C1.23906 141.711 0 143.478 0 145.658C0 147.838 1.23906 149.606 2.76753 149.606Z" fill="black" stroke="black" stroke-width="0.661043"/>
<path d="M147.232 149.606C148.761 149.606 150 147.838 150 145.658C150 143.478 148.761 141.711 147.232 141.711C145.704 141.711 144.465 143.478 144.465 145.658C144.465 147.838 145.704 149.606 147.232 149.606Z" fill="black" stroke="black" stroke-width="0.661043"/>
<path d="M1.9375 146.842L105.166 0" stroke="black" stroke-width="0.661043"/>
</g>
<defs>
<clipPath id="clip0_2109_193225">
<rect width="150" height="150" fill="white"/>
</clipPath>
</defs>
</svg>
