<svg width="150" height="150" viewBox="0 0 150 150" fill="none" xmlns="http://www.w3.org/2000/svg">
<g clip-path="url(#clip0_2109_193775)">
<path d="M112.388 142.626V91.9065L150 67.6259V14.9281L146.418 10.4317L137.015 6.65468L128.06 4.31655L116.866 2.51799L103.881 1.07914L90 0.359712L82.3881 0H74.7761L59.5522 0.359712L45.6716 1.07914L33.1343 2.51799L21.9403 4.31655L12.9851 6.65468L3.58209 10.4317L0.447761 13.3094L0 14.9281L0.447761 67.6259L37.6119 91.9065V142.626L43.8806 146.763L54.1791 148.741L67.6119 149.82L75.2239 150L82.3881 149.82L95.8209 148.741L106.119 146.763L112.388 142.626Z" fill="#00FFFF" stroke="black" stroke-width="0.567565"/>
</g>
<defs>
<clipPath id="clip0_2109_193775">
<rect width="150" height="150" fill="white"/>
</clipPath>
</defs>
</svg>
