<svg width="150" height="150" viewBox="0 0 150 150" fill="none" xmlns="http://www.w3.org/2000/svg">
<g clip-path="url(#clip0_2109_193270)">
<path d="M9.74609 0.421875H140.729V149.999H9.74609V0.421875Z" fill="#00FFFF" stroke="black" stroke-width="0.448522"/>
<path d="M0 0.421875H150" stroke="black" stroke-width="0.448522"/>
<path d="M29.7148 0V8.46262" stroke="black" stroke-width="0.448522"/>
<path d="M29.7148 16.7188V25.1814" stroke="black" stroke-width="0.448522"/>
<path d="M29.2393 33.2188V41.6814" stroke="black" stroke-width="0.448522"/>
<path d="M29.2393 49.9297V58.3923" stroke="black" stroke-width="0.448522"/>
<path d="M29.2393 66.6406V75.1032" stroke="black" stroke-width="0.448522"/>
<path d="M29.2393 83.3594V91.822" stroke="black" stroke-width="0.448522"/>
<path d="M28.7637 99.8594V108.322" stroke="black" stroke-width="0.448522"/>
<path d="M28.7637 116.578V125.041" stroke="black" stroke-width="0.448522"/>
<path d="M121.474 0V8.46262" stroke="black" stroke-width="0.448522"/>
<path d="M121.474 16.7188V25.1814" stroke="black" stroke-width="0.448522"/>
<path d="M120.998 33.2188V41.6814" stroke="black" stroke-width="0.448522"/>
<path d="M120.998 49.9297V58.3923" stroke="black" stroke-width="0.448522"/>
<path d="M120.998 66.6406V75.1032" stroke="black" stroke-width="0.448522"/>
<path d="M120.998 83.3594V91.822" stroke="black" stroke-width="0.448522"/>
<path d="M120.523 99.8594V108.322" stroke="black" stroke-width="0.448522"/>
<path d="M120.523 116.578V125.041" stroke="black" stroke-width="0.448522"/>
<path d="M32.8047 133.711H42.3134" stroke="black" stroke-width="0.448522"/>
<path d="M51.585 133.711H61.0937" stroke="black" stroke-width="0.448522"/>
<path d="M70.3643 133.711H79.873" stroke="black" stroke-width="0.448522"/>
<path d="M88.9062 134.133H98.415" stroke="black" stroke-width="0.448522"/>
<path d="M107.687 134.133H117.195" stroke="black" stroke-width="0.448522"/>
</g>
<defs>
<clipPath id="clip0_2109_193270">
<rect width="150" height="150" fill="white"/>
</clipPath>
</defs>
</svg>
