<svg width="150" height="150" viewBox="0 0 150 150" fill="none" xmlns="http://www.w3.org/2000/svg">
<g clip-path="url(#clip0_2109_193188)">
<path d="M150 143.043V6.67904L143.023 5.28757L134.738 3.8961L126.017 2.78293L116.86 1.66976L106.831 1.11317L96.3663 0.556586L91.1337 0.278293L85.9012 0H80.6686H64.0988L53.6337 0.556586L43.1686 1.11317L33.5756 1.66976L23.9826 2.78293L15.2616 3.8961L6.97674 5.28757L3.48837 5.84416L0 6.67904V143.043L6.97674 144.434L15.2616 145.826L23.9826 147.217L33.5756 148.052L43.1686 148.887L53.6337 149.443L58.8663 149.722L64.0988 150H69.7674H85.9012L96.3663 149.443L106.831 148.887L116.86 148.052L126.017 147.217L134.738 145.826L143.023 144.434L146.512 143.878L150 143.043Z" fill="#00FFFF" stroke="black" stroke-width="0.696703"/>
</g>
<defs>
<clipPath id="clip0_2109_193188">
<rect width="150" height="150" fill="white"/>
</clipPath>
</defs>
</svg>
