<svg width="150" height="150" viewBox="0 0 150 150" fill="none" xmlns="http://www.w3.org/2000/svg">
<g clip-path="url(#clip0_2109_161441)">
<path d="M65.6156 150L61.2613 149.13L49.2492 139.13L45.3453 140L33.7838 130L32.1321 130.435L29.7297 128.696L27.6276 130.435L15.015 120L16.5165 118.696L13.0631 115.217L14.7147 114.348L12.4625 111.304H9.30931L0 103.913L3.6036 102.174L11.1111 96.0869L64.1141 128.696L65.6156 150Z" fill="black" stroke="#ABABAB" stroke-width="0.511009"/>
<path d="M102.853 0L12.012 78.6956V83.4783L8.10808 87.3913V91.3043L1.20117 97.3913V103.043L12.4624 112.174L17.2672 107.391V118.261L28.8288 127.391L39.3393 116.087V120.435L36.9369 123.478V130L48.6486 139.13L53.9039 132.609V139.565L65.6156 148.696L149.85 40L150 34.7826L147.898 34.3478V28.6957L136.336 25.2174L127.027 22.1739V17.3913L116.817 13.913L114.414 16.087L109.76 14.7826L112.162 12.1739V8.26087L113.363 6.95652V2.6087L102.853 0Z" fill="#FF8500" stroke="black" stroke-width="0.511009"/>
<path d="M65.6158 148.696L53.7539 139.566V133.044L65.6158 141.74V148.696Z" fill="#850202" stroke="black" stroke-width="0.511009"/>
<path d="M67.7176 133.044L56.0059 124.348V117.826L67.7176 125.652V133.044Z" fill="#850202" stroke="black" stroke-width="0.511009"/>
<path d="M48.649 138.696L36.7871 130V123.479L48.649 132.174V138.696Z" fill="#850202" stroke="black" stroke-width="0.511009"/>
<path d="M50.45 130L38.7383 120.869V114.348L50.45 123.043V130Z" fill="#850202" stroke="black" stroke-width="0.511009"/>
<path d="M41.1414 114.783L29.4297 106.522V100L41.1414 107.826V114.783Z" fill="#850202" stroke="black" stroke-width="0.511009"/>
<path d="M28.8291 127.391L17.2676 118.261V112.174L28.8291 120.435V127.391Z" fill="#850202" stroke="black" stroke-width="0.511009"/>
<path d="M26.7266 120.87L15.165 111.74V105.218L26.7266 113.913V120.87Z" fill="#850202" stroke="black" stroke-width="0.511009"/>
<path d="M12.4624 112.174L1.20117 103.044V97.3916L12.4624 105.652V112.174Z" fill="#850202" stroke="black" stroke-width="0.511009"/>
<path d="M19.3697 102.174L8.1084 93.0438V87.3916L19.3697 95.2177V102.174Z" fill="#850202" stroke="black" stroke-width="0.511009"/>
<path d="M23.273 91.7388L12.0117 83.9127V78.6953L23.273 86.0866V91.7388Z" fill="#850202" stroke="black" stroke-width="0.511009"/>
<path d="M12.3125 105.652L17.5678 100.435" stroke="black" stroke-width="0.511009"/>
<path d="M19.3691 95.2175L23.1229 91.7393" stroke="black" stroke-width="0.511009"/>
<path d="M23.2734 86.0867L113.364 2.6084" stroke="black" stroke-width="0.511009"/>
<path d="M23.2734 92.1734L113.364 6.95605" stroke="black" stroke-width="0.511009"/>
<path d="M15.165 105.652L112.162 12.1738" stroke="black" stroke-width="0.511009"/>
<path d="M29.4297 100L115.466 15.2178" stroke="black" stroke-width="0.511009"/>
<path d="M26.7266 113.913L32.2821 108.261" stroke="black" stroke-width="0.511009"/>
<path d="M26.5762 120.87L36.1858 111.305" stroke="black" stroke-width="0.511009"/>
<path d="M41.1406 107.826L126.876 17.3916" stroke="black" stroke-width="0.511009"/>
<path d="M50.4502 123.044L111.711 53.0439" stroke="black" stroke-width="0.511009"/>
<path d="M56.1557 123.913L50.45 130L48.498 132.609" stroke="black" stroke-width="0.511009"/>
<path d="M67.7178 126.087L148.048 28.6953" stroke="black" stroke-width="0.511009"/>
<path d="M53.9043 133.043L59.3097 126.521" stroke="black" stroke-width="0.511009"/>
<path d="M67.8682 133.044L147.898 33.9131" stroke="black" stroke-width="0.511009"/>
<path d="M65.6152 141.739L149.849 34.7822" stroke="black" stroke-width="0.511009"/>
<path d="M56.0059 117.826L136.336 25.2178" stroke="black" stroke-width="0.511009"/>
<path d="M38.7383 114.348L39.3389 113.913" stroke="black" stroke-width="0.511009"/>
<path d="M41.1416 115.217L127.027 22.1738" stroke="black" stroke-width="0.511009"/>
<path d="M63.0635 128.695H63.2136L63.5139 128.26H63.6641L63.8142 127.826L64.1145 127.391H64.2647L64.8653 126.956" stroke="black" stroke-width="0.511009"/>
<path d="M61.2617 127.391L63.8143 124.348" stroke="black" stroke-width="0.511009"/>
<path d="M58.4082 124.783H58.5584L59.0088 123.913H59.159H59.3091L59.4593 123.478L60.0599 123.043L60.6605 122.609H60.8106V122.174H61.4112H61.5614H61.7115" stroke="black" stroke-width="0.511009"/>
<path d="M58.1084 142.174H58.2585L58.4087 141.739H58.709H58.8591H59.0093H59.1594H59.3096L59.6099 142.174L59.7601 142.609V143.044L59.9102 143.478" stroke="black" stroke-width="0.511009"/>
<path d="M56.4561 141.305L56.6062 140.87L56.7564 140H57.0567H57.6573L58.7083 139.565L59.6092 140H59.9095L60.0597 140.435L60.2098 140.87L60.5101 141.305L60.6603 141.739L60.9606 142.174L61.1107 142.609L61.2609 143.044L61.5612 143.913V144.348L61.7113 144.783" stroke="black" stroke-width="0.511009"/>
<path d="M62.6123 141.739L62.7625 142.174L62.9126 143.044L63.0628 143.478L63.3631 143.913L63.5132 144.348L63.6634 145.218V145.652" stroke="black" stroke-width="0.511009"/>
<path d="M43.9934 134.783H43.6931L43.543 133.914H43.3928L43.2427 133.479H43.0925L42.3418 133.044" stroke="black" stroke-width="0.511009"/>
<path d="M45.0448 135.218H44.7445L44.5943 134.783L44.294 134.348L44.1439 133.913L43.9937 133.478L43.8436 132.609L43.5433 132.174L42.9427 131.739H41.5913L41.291 132.174" stroke="black" stroke-width="0.511009"/>
<path d="M38.5889 130H38.739L39.0393 129.131L39.1895 128.696L39.3396 128.261H39.4898H39.6399L39.7901 127.826H39.9402L40.0904 127.392" stroke="black" stroke-width="0.511009"/>
<path d="M40.8408 121.304L40.991 120.869L41.2913 120.434L41.4414 120L41.8919 119.565L42.1922 118.695" stroke="black" stroke-width="0.511009"/>
<path d="M43.0928 123.044H43.2429L43.3931 122.609L43.5432 122.174L43.6934 121.739H43.9937H44.1438L44.294 121.305H44.4441" stroke="black" stroke-width="0.511009"/>
<path d="M32.1318 107.391L32.282 106.956H32.4321L32.5823 106.522H32.7324L32.8826 106.087H33.0327H33.1829" stroke="black" stroke-width="0.511009"/>
<path d="M34.3848 108.261H34.5349V107.826H34.6851H34.8352H34.9854V107.392H35.1355" stroke="black" stroke-width="0.511009"/>
<path d="M10.6602 93.9127L10.8103 93.478L10.9605 93.0432H11.2608H11.8614L12.0115 92.6084H12.1617" stroke="black" stroke-width="0.511009"/>
<path d="M12.0117 95.652L12.1619 95.2172L12.312 94.3477H12.4622H13.2129" stroke="black" stroke-width="0.511009"/>
<path d="M14.2646 97.8264H14.4148H14.5649L14.7151 97.3916H14.8652H15.0154H15.1655H15.3157H15.4658H15.616H15.7661" stroke="black" stroke-width="0.511009"/>
<path d="M18.9189 89.5649L19.0691 89.1301L19.2192 88.6953H19.3694H19.6697H19.8198L20.4204 89.9997" stroke="black" stroke-width="0.511009"/>
<path d="M16.5166 87.391L16.6668 86.9563L16.8169 86.5215H17.1172H20.1202" stroke="black" stroke-width="0.511009"/>
<path d="M13.6641 85.2171L13.8142 84.3475H14.1145L14.4148 83.9127H14.565L14.8653 83.478H15.0154H15.3157L15.616 83.0432L16.2166 82.6084" stroke="black" stroke-width="0.511009"/>
<path d="M20.7207 115.652H20.8709L21.021 115.217H21.1712L21.3213 114.782H21.6216H21.7718L21.9219 115.217L22.0721 115.652L22.2222 116.087L22.3724 116.521" stroke="black" stroke-width="0.511009"/>
<path d="M19.3691 114.782L19.5193 113.913H19.6694L19.8196 113.043V112.608H21.4712L21.6214 113.043H21.7715L22.0718 113.478H22.222H22.3721" stroke="black" stroke-width="0.511009"/>
<path d="M17.1172 113.043H17.2673L17.4175 112.609L17.7178 112.174L18.1682 111.304H18.3184H18.6187L18.7688 110.87H18.919L19.2193 110.435L19.3694 110H20.7208" stroke="black" stroke-width="0.511009"/>
<path d="M17.117 106.956L16.9668 107.391L16.8167 107.826V108.26H16.6665V108.695H16.5164L16.3662 109.13L16.2161 109.565L16.0659 110L15.9158 110.434L15.7656 110.869" stroke="black" stroke-width="0.511009"/>
</g>
<defs>
<clipPath id="clip0_2109_161441">
<rect width="150" height="150" fill="white"/>
</clipPath>
</defs>
</svg>
