<svg width="150" height="150" viewBox="0 0 150 150" fill="none" xmlns="http://www.w3.org/2000/svg">
<g clip-path="url(#clip0_2109_161544)">
<path d="M47.8979 54.5936L44.2943 50.7067L40.3904 46.9965L36.3363 43.8163L31.982 40.9894L27.3273 38.3392L22.6727 36.2191L17.8679 34.2756L13.0631 32.8622L8.10811 31.9788L3.15315 31.4488L1.5015 31.2721H0V30.9187V0.353357V0H2.25225L6.75676 0.176678L11.4114 0.883392L15.9159 1.59011L20.4204 2.65018L24.9249 4.0636L29.4294 5.65371L33.7838 7.4205L38.1381 9.54064L42.3423 11.8375L46.3964 14.4876L50.4505 17.1378L54.3544 20.1413L58.1081 23.4982L61.7117 26.8551L65.1652 30.5654L66.8168 32.3322L47.8979 54.5936Z" fill="#98B2E5" stroke="black" stroke-width="0.32575"/>
<path d="M99.5493 150L45.195 85.6894L39.7896 74.0286L38.2881 60.9544L39.7896 47.5269L45.195 35.8661L53.0028 26.3255L63.213 20.3184L74.3241 18.1982L85.4352 20.3184L95.6454 26.3255L150 90.6364L99.5493 150Z" fill="#98B2E5"/>
<path d="M104.955 143.287L50.6008 79.3291L44.8951 68.0217L42.1924 56.0075L42.4927 44.7001L45.796 34.8061L52.1023 27.3856L60.5107 23.1453L70.4206 22.792L80.6308 25.9722L89.9401 32.686L144.595 96.9969L104.955 143.287Z" fill="#ABC0EB"/>
<path d="M110.36 136.926L56.0056 72.9683L49.6993 62.3676L46.0957 51.4135L44.8945 41.5195L46.6963 33.7457L51.2008 28.4453L58.1077 26.3252L66.5162 27.3853L75.5252 31.9789L84.5342 39.3994L138.738 103.357L110.36 136.926Z" fill="#BAC9ED"/>
<path d="M116.066 130.566L61.4115 66.2548L54.8049 56.3608L50.0001 46.8202L47.5977 38.693V32.6859L50.3004 29.5057L55.7058 29.1523L62.6127 31.9792L70.7208 37.6329L79.1292 45.7601L133.484 109.718L116.066 130.566Z" fill="#CCD8F2"/>
<path d="M121.471 124.205L67.1167 59.8941L59.6092 50.7068L53.9035 42.2262L49.9995 35.8658L48.498 31.6255L49.6992 30.5654L53.0026 32.3322L58.7083 36.9259L65.6152 43.6396L73.7233 52.1202L128.078 116.431L121.471 124.205Z" fill="#DDE5F7"/>
<path d="M99.5493 150L45.195 85.6894L39.7896 74.0286L38.2881 60.9544L39.7896 47.5269L45.195 35.8661L53.0028 26.3255L63.213 20.3184L74.3241 18.1982L85.4352 20.3184L95.6454 26.3255L150 90.6364L99.5493 150Z" stroke="black" stroke-width="0.32575"/>
</g>
<defs>
<clipPath id="clip0_2109_161544">
<rect width="150" height="150" fill="white"/>
</clipPath>
</defs>
</svg>
