<svg width="150" height="150" viewBox="0 0 150 150" fill="none" xmlns="http://www.w3.org/2000/svg">
<g clip-path="url(#clip0_2109_161554)">
<path d="M150 14.1631V42.7039H134.985V25.9657L130.33 23.8197L125.676 22.103L120.871 21.2446L114.865 21.8884L109.91 23.3906L105.105 25.9657L100.45 29.6137L96.0961 33.9056L91.8919 39.0558L88.1381 45.0644L84.5345 51.7167L81.2312 59.2275L78.3784 67.1674L75.8258 75.7511L73.7237 84.7639L72.0721 94.206L70.8709 104.292L70.1201 114.592L69.8198 125.107V128.541H89.9399V107.082H110.06V128.541H119.97V150H0V128.541H9.90991V107.082H29.8799V128.541H50L50.1502 121.888L50.4505 115.451L50.9009 109.013L51.5015 102.575L52.2523 96.3519L53.1532 90.3433L54.2042 84.3348L55.5556 78.5408L56.9069 72.9614L58.4084 67.382L60.0601 62.0172L62.012 56.6524L63.8138 51.7167L65.9159 46.7811L70.4204 37.7682L75.3754 29.3991L80.7808 21.8884L86.6366 15.4506L92.6426 10.0858L99.0991 5.79399L105.856 2.57511L112.763 0.643777L116.366 0H119.97H121.772L127.628 1.07296L133.483 3.21888L137.237 5.36481L140.991 7.51073L144.745 10.0858L148.198 12.6609L150 14.1631Z" fill="#98B2E5" stroke="black" stroke-width="0.359005"/>
<path d="M9.91016 128.541H110.06" stroke="black" stroke-width="0.359005"/>
</g>
<defs>
<clipPath id="clip0_2109_161554">
<rect width="150" height="150" fill="white"/>
</clipPath>
</defs>
</svg>
