<svg width="150" height="150" viewBox="0 0 150 150" fill="none" xmlns="http://www.w3.org/2000/svg">
<g clip-path="url(#clip0_2109_160931)">
<path d="M127.177 127.358L135.585 9.90527H136.786L145.495 127.358H144.294L136.336 21.226L128.378 127.358H127.177Z" fill="#999999" stroke="black" stroke-width="0.921904"/>
<path d="M109.159 127.358L117.568 9.90527H118.769L127.177 127.358H125.976L117.868 21.226L110.36 127.358H109.159Z" fill="#999999" stroke="black" stroke-width="0.921904"/>
<path d="M90.6904 127.358L99.5493 9.90527H100.3L109.159 127.358H107.958L99.9997 21.226L91.8916 127.358H90.6904Z" fill="#999999" stroke="black" stroke-width="0.921904"/>
<path d="M72.6729 127.358L81.0813 9.90527H82.2825L90.6909 127.358H89.4897L81.9822 21.226L73.8741 127.358H72.6729Z" fill="#999999" stroke="black" stroke-width="0.921904"/>
<path d="M54.3545 127.358L63.0632 9.90527H63.9641L72.6728 127.358H71.4716L63.5137 21.226L55.5557 127.358H54.3545Z" fill="#999999" stroke="black" stroke-width="0.921904"/>
<path d="M36.3359 127.358L44.7443 9.90527H45.9455L54.354 127.358H53.4531L45.4951 21.226L37.5371 127.358H36.3359Z" fill="#999999" stroke="black" stroke-width="0.921904"/>
<path d="M17.8682 127.358L26.727 9.90527H27.9282L36.3366 127.358H35.1354L27.1775 21.226L19.0694 127.358H17.8682Z" fill="#999999" stroke="black" stroke-width="0.921904"/>
<path d="M0 127.358L8.25826 9.90527H9.45946L17.8679 127.358H17.1171L9.15916 21.226L1.05105 127.358H0Z" fill="#999999" stroke="black" stroke-width="0.921904"/>
<path d="M0 0H150V9.90566H0V0Z" fill="#B2B2B2" stroke="black" stroke-width="0.921904"/>
<path d="M0 127.358H150V150H0V127.358Z" fill="#B2B2B2" stroke="black" stroke-width="0.921904"/>
<path d="M0 116.038H150V127.359H0V116.038Z" fill="#CCCCCC" stroke="black" stroke-width="0.921904"/>
<path d="M0 48.1133H150V97.6416H0V48.1133Z" fill="#999999" stroke="black" stroke-width="0.921904"/>
<path d="M127.177 9.90527L135.585 127.358H136.786L145.495 9.90527H144.294L136.336 116.037L128.378 9.90527H127.177Z" fill="#E5E5E5" stroke="black" stroke-width="0.921904"/>
<path d="M109.159 9.90527L117.568 127.358H118.769L127.177 9.90527H125.976L117.868 116.037L110.36 9.90527H109.159Z" fill="#E5E5E5" stroke="black" stroke-width="0.921904"/>
<path d="M90.6904 9.90527L99.5493 127.358H100.3L109.159 9.90527H107.958L99.9997 116.037L91.8916 9.90527H90.6904Z" fill="#E5E5E5" stroke="black" stroke-width="0.921904"/>
<path d="M72.6729 9.90527L81.0813 127.358H82.2825L90.6909 9.90527H89.4897L81.9822 116.037L73.8741 9.90527H72.6729Z" fill="#E5E5E5" stroke="black" stroke-width="0.921904"/>
<path d="M54.3545 9.90527L63.0632 127.358H63.9641L72.6728 9.90527H71.4716L63.5137 116.037L55.5557 9.90527H54.3545Z" fill="#E5E5E5" stroke="black" stroke-width="0.921904"/>
<path d="M36.3359 9.90527L44.7443 127.358H45.9455L54.354 9.90527H53.4531L45.4951 116.037L37.5371 9.90527H36.3359Z" fill="#E5E5E5" stroke="black" stroke-width="0.921904"/>
<path d="M17.8682 9.90527L26.727 127.358H27.9282L36.3366 9.90527H35.1354L27.1775 116.037L19.0694 9.90527H17.8682Z" fill="#E5E5E5" stroke="black" stroke-width="0.921904"/>
<path d="M0 9.90527L8.25826 127.358H9.45946L17.8679 9.90527H17.1171L9.15916 116.037L1.05105 9.90527H0Z" fill="#E5E5E5" stroke="black" stroke-width="0.921904"/>
</g>
<defs>
<clipPath id="clip0_2109_160931">
<rect width="150" height="150" fill="white"/>
</clipPath>
</defs>
</svg>
