<svg width="150" height="150" viewBox="0 0 150 150" fill="none" xmlns="http://www.w3.org/2000/svg">
<g clip-path="url(#clip0_2109_161412)">
<path d="M62.7627 97.0938L67.117 100.859L71.6216 104.623L76.1261 107.992L80.9309 111.361L85.4354 114.333L90.09 117.503L94.7447 120.277L99.2492 123.448L103.604 126.222L107.808 128.996L111.712 132.166L115.616 135.337L119.219 138.705L122.522 142.272L126.727 148.018L128.228 150L132.282 146.433L134.835 137.516L136.787 132.365L140.841 125.429L62.7627 97.0938Z" fill="#ABABAB" stroke="black" stroke-width="0.344977"/>
<path d="M138.138 125.628L137.237 127.015L136.036 129.195L135.135 131.374L134.084 133.356L133.333 135.535L132.432 137.319L131.682 139.102L130.781 141.282L129.73 143.263L129.279 143.858" stroke="black" stroke-width="0.344977"/>
<path d="M135.436 124.438L134.685 125.826L133.634 128.005L132.583 129.789L131.682 131.77L130.931 133.553L130.03 135.139L129.279 136.922L128.529 138.507L127.628 140.092L126.877 141.479L126.276 142.47" stroke="black" stroke-width="0.344977"/>
<path d="M132.883 123.844L131.832 125.627L130.931 127.212L130.03 128.798L128.979 130.779L128.078 132.364L127.328 133.751L126.427 135.138L125.676 136.922L124.625 138.705L123.424 141.281" stroke="black" stroke-width="0.344977"/>
<path d="M129.58 122.655L121.021 137.913" stroke="black" stroke-width="0.344977"/>
<path d="M126.126 121.269L118.318 135.535" stroke="black" stroke-width="0.344977"/>
<path d="M123.123 119.683L115.466 133.751" stroke="black" stroke-width="0.344977"/>
<path d="M119.82 118.891L112.463 131.77" stroke="black" stroke-width="0.344977"/>
<path d="M116.666 117.701L109.459 129.788" stroke="black" stroke-width="0.344977"/>
<path d="M112.913 116.909L106.757 126.817" stroke="black" stroke-width="0.344977"/>
<path d="M109.309 114.928L103.153 125.232" stroke="black" stroke-width="0.344977"/>
<path d="M105.856 113.54L100.301 122.655" stroke="black" stroke-width="0.344977"/>
<path d="M102.402 112.55L97.5977 121.07" stroke="black" stroke-width="0.344977"/>
<path d="M98.9491 111.162L94.5947 118.89" stroke="black" stroke-width="0.344977"/>
<path d="M95.496 110.37L91.1416 117.504" stroke="black" stroke-width="0.344977"/>
<path d="M92.192 109.181L88.2881 115.521" stroke="black" stroke-width="0.344977"/>
<path d="M88.889 107.794L85.4355 113.54" stroke="black" stroke-width="0.344977"/>
<path d="M85.4351 106.803L82.1318 111.558" stroke="black" stroke-width="0.344977"/>
<path d="M82.1317 105.812L79.5791 109.776" stroke="black" stroke-width="0.344977"/>
<path d="M78.3782 103.831L76.126 107.2" stroke="black" stroke-width="0.344977"/>
<path d="M74.4744 102.84L73.123 105.218" stroke="black" stroke-width="0.344977"/>
<path d="M140.39 123.448L26.877 70.9379L54.5046 15.852L58.4085 10.502L62.7628 6.73712L67.2673 3.96301L71.922 1.98151L76.5767 0.792602L81.2313 0.198151L86.0361 0L90.6908 0.198151L95.4956 1.1889L100.3 2.37781L104.955 3.96301L109.46 5.74637L113.814 7.92602L118.018 10.3038L122.072 12.6816L125.976 15.0594L131.682 19.4188L136.637 24.1744L140.541 29.5244L143.694 35.0727L146.246 40.819L148.048 47.1598L149.099 53.6988L149.85 60.6341L150 67.9657L149.55 75.2972L148.649 82.827L147.448 90.753L145.946 98.679L144.294 106.803L142.493 115.126L140.39 123.448Z" fill="#FF8500" stroke="black" stroke-width="0.344977"/>
<path d="M31.9824 71.7303L56.9073 21.0038L59.7602 16.8426L65.7662 11.8889L69.2197 9.90735L73.2737 8.12399L78.0785 6.73694L83.4839 5.94434H89.4899L95.9464 6.73694L103.154 8.71844L110.961 12.087L119.22 16.6445L128.229 22.9853L133.334 27.7409L137.238 32.2984L140.541 36.4595L142.943 41.2151L145.496 47.1597L142.643 41.4133L139.039 36.0632L134.685 31.3076L129.43 26.7501L123.424 22.7871L117.118 19.2204L110.511 16.2482L103.754 13.8704L96.8473 12.2852L90.2407 11.2944H83.9344L78.0785 12.087L72.523 13.8704L67.8683 16.2482L63.514 20.013L60.9614 24.1742L36.7872 73.91L31.9824 71.7303Z" fill="black" stroke="black" stroke-width="0.344977"/>
<path d="M121.021 29.1279L125.376 32.6946L128.979 37.4503L131.682 43.1966L133.484 49.9337L134.535 57.6616L134.985 66.1821L134.835 72.3248L134.535 78.2693L134.085 84.8083L133.334 91.3472L132.583 98.0843L131.532 104.623L130.931 108.19L130.331 111.559L130.931 108.983L132.433 103.633L133.784 98.0843L135.286 92.1398L136.637 86.1953L137.688 80.4489L138.589 74.5044L139.19 68.5599L139.49 65.5876V62.8135L139.19 57.0672L138.289 51.7171L137.088 46.5652L134.835 42.0077L131.982 37.8466L128.229 33.8835L123.574 30.515L121.021 29.1279Z" fill="white" stroke="white" stroke-width="0.344977"/>
<path d="M26.8769 71.1357L140.39 123.447L144.444 125.429L143.844 128.401L60.2102 99.4713L20.7207 99.8676L17.4174 99.2731L14.1141 98.0842L10.8108 96.3009L7.65766 94.5175L4.8048 92.1397L2.55255 89.7619L0.900901 87.3841L0 85.0063L26.8769 71.1357Z" fill="#FF8500" stroke="black" stroke-width="0.344977"/>
<path d="M48.3487 83.6191L14.8652 94.1211L16.3667 94.7156L55.1055 86.3932L48.3487 83.6191Z" fill="white" stroke="white" stroke-width="0.344977"/>
</g>
<defs>
<clipPath id="clip0_2109_161412">
<rect width="150" height="150" fill="white"/>
</clipPath>
</defs>
</svg>
