<svg width="150" height="150" viewBox="0 0 150 150" fill="none" xmlns="http://www.w3.org/2000/svg">
<g clip-path="url(#clip0_2109_161497)">
<path d="M1.8018 19.3291L3.15315 17.8914L9.00901 14.8562L15.3153 13.8978L20.1201 12.7796L23.8739 12.1406L28.2282 11.1821L33.3333 6.70927L37.8378 2.71566L40.3904 0.638978L45.1952 0L51.3514 0.638978H52.5526L55.1051 2.71566L59.4595 6.70927L65.015 11.1821L68.6186 12.1406L73.1231 12.7796L77.4775 13.8978L83.7838 14.8562L89.6396 17.8914L91.4414 19.3291L92.4925 21.246V23.4824H0L1.8018 19.3291Z" fill="#854002" stroke="black" stroke-width="0.309746"/>
<path d="M37.0869 17.8916H52.8527V150H37.0869V17.8916Z" fill="#ABABAB" stroke="black" stroke-width="0.309746"/>
<path d="M62.4629 46.9648L150 128.594H62.4629V46.9648Z" stroke="black" stroke-width="0.309746"/>
<path d="M79.2793 83.8662L110.21 111.821H79.2793V83.8662Z" stroke="black" stroke-width="0.309746"/>
</g>
<defs>
<clipPath id="clip0_2109_161497">
<rect width="150" height="150" fill="white"/>
</clipPath>
</defs>
</svg>
