<svg width="150" height="150" viewBox="0 0 150 150" fill="none" xmlns="http://www.w3.org/2000/svg">
<g clip-path="url(#clip0_2109_161529)">
<path d="M35.5185 37.0871L39.4819 33.6336L43.7502 30.4805L48.3234 27.7778L53.2014 25.5255L58.2319 23.7237L63.2624 22.3724L68.5978 21.4715L73.9331 21.1712L79.4209 21.4715L84.9088 22.3724L90.0917 23.7237L94.9697 25.5255L99.8478 27.7778L104.269 30.4805L108.537 33.6336L112.348 37.0871L115.854 40.8408L119.055 45.045L121.799 49.3994L124.086 54.2042L125.915 59.009L127.287 64.1141L128.201 69.3694L128.506 74.9249V150H150V74.9249L149.695 67.2673L148.476 59.7598L146.647 52.5526L144.055 45.6456L140.854 39.1892L137.043 33.033L132.622 27.1772L127.744 21.9219L122.409 16.967L116.464 12.7628L110.214 9.00901L103.659 5.85586L96.4941 3.3033L89.3295 1.5015L81.7075 0.3003L77.8966 0H73.9331H72.1039L66.4636 0.3003L60.9758 1.05105L55.488 2.25225L50.1527 3.75375L44.8173 5.70571L39.6344 7.95796L34.7563 10.6607L30.0307 13.6637L25.61 16.967L21.3417 20.5706L19.9697 21.9219L35.5185 37.0871Z" fill="#98B2E5" stroke="black" stroke-width="0.302581"/>
<path d="M18.4451 45.7962L10.2134 37.9884L3.96341 29.2797L0.152439 21.9223L0 15.7662L2.59146 13.0635L8.38415 13.3638L16.311 16.9674L24.8476 23.2737L33.0793 31.3818L39.4817 39.7902L43.1402 47.598L43.75 53.3037L40.7012 56.3067L34.9085 55.7061L26.9817 52.1025L18.4451 45.7962Z" fill="#4C6699" stroke="black" stroke-width="0.302581"/>
</g>
<defs>
<clipPath id="clip0_2109_161529">
<rect width="150" height="150" fill="white"/>
</clipPath>
</defs>
</svg>
