<svg width="150" height="150" viewBox="0 0 150 150" fill="none" xmlns="http://www.w3.org/2000/svg">
<path d="M10.0307 22.823L17.7815 24.1744L27.8119 24.775L37.8423 24.1744L45.5931 22.823L47.4168 20.8711H8.20703L10.0307 22.823Z" fill="#FFFF7F" stroke="#CCCC00" stroke-width="0.523288"/>
<path d="M13.2221 22.5227L19.6051 23.5738L27.8118 24.0242L36.4744 23.5738L42.8574 22.5227L44.2252 20.8711H11.3984L13.2221 22.5227Z" fill="#FFFFA6"/>
<path d="M15.9576 22.2224L21.4288 22.9732L27.8117 23.4236L34.6506 22.9732L39.6658 22.2224L41.0336 20.8711H14.5898L15.9576 22.2224Z" fill="#FFFFCC"/>
<path d="M19.149 21.9221L22.7964 22.5227L27.8116 22.823L32.8268 22.5227L36.9302 21.9221L37.842 20.8711H17.7812L19.149 21.9221Z" fill="#FFFFF2"/>
<path d="M4.10352 20.1199L8.20686 12.4623L15.9576 8.4082H39.6658L47.4166 12.4623L51.5199 20.1199H4.10352Z" fill="#B2B2B2" stroke="black" stroke-width="0.523288"/>
<path d="M13.6777 20.1199L16.4133 12.4623L20.9726 8.4082H34.6504L39.6656 12.4623L41.4893 20.1199H13.6777Z" fill="#CCCCCC"/>
<path d="M24.1641 20.1199L24.62 12.4623L25.9878 8.4082H29.6352L31.003 12.4623L31.9148 20.1199H24.1641Z" fill="white"/>
<path d="M1.82324 20.1201V21.4715H53.7989V20.1201H1.82324Z" fill="#E5E5E5" stroke="black" stroke-width="0.523288"/>
<path d="M21.8848 8.55859H33.7389" stroke="black" stroke-width="0.523288"/>
<path d="M20.5166 8.40839V0.600586H147.72V149.249H133.587V5.25524H34.6503V8.40839H20.5166Z" fill="#999999" stroke="black" stroke-width="0.523288"/>
<path d="M23.252 8.40886V1.50195H144.984V149.25H135.866V4.50496H32.3705V8.40886H23.252Z" fill="#CCCCCC"/>
<path d="M25.5322 8.40811V2.25195H142.705V149.249H138.146V3.75345H30.0915V8.40811H25.5322Z" fill="white"/>
</svg>
