<svg width="150" height="150" viewBox="0 0 150 150" fill="none" xmlns="http://www.w3.org/2000/svg">
<path d="M104.805 86.709V95.5697H119.219V86.709H104.805Z" fill="#666666" stroke="black" stroke-width="0.616544"/>
<path d="M30.6309 86.709V95.5697H44.8951V86.709H30.6309Z" fill="#666666" stroke="black" stroke-width="0.616544"/>
<path d="M149.249 74.6832L142.643 73.4173L136.186 69.6199L130.18 62.6578L124.925 53.7971L120.721 43.0376L117.568 30.3794L115.616 16.4553L115.015 2.53125H109.159L108.559 16.4553L106.607 30.3794L103.453 43.0376L99.2492 53.7971L93.994 62.6578L87.988 69.6199L81.6817 73.4173L74.9249 74.6832L68.3183 73.4173L61.8618 69.6199L55.8558 62.6578L50.6006 53.7971L46.3964 43.0376L43.2432 30.3794L41.2913 16.4553L40.6907 2.53125H34.8348L34.3844 16.4553L32.2823 30.3794L29.1291 43.0376L24.9249 53.7971L19.6697 62.6578L13.6636 69.6199L7.35734 73.4173L0.600586 74.6832H149.249Z" fill="#CCCCCC" stroke="black" stroke-width="0.616544"/>
<path d="M148.499 77.8482L141.892 76.5824L135.436 72.7849L129.43 65.8229L124.174 56.9621L119.97 46.2026L116.817 33.5444L114.865 19.6203L114.264 5.69629H109.91L109.31 19.6203L107.358 33.5444L104.204 46.2026L100 56.9621L94.745 65.8229L88.739 72.7849L82.2825 76.5824L74.9251 77.8482L67.5678 76.5824L61.1113 72.7849L55.1053 65.8229L49.8501 56.9621L45.6459 46.2026L42.4927 33.5444L40.5408 19.6203L39.9402 5.69629H35.5858L34.9852 19.6203L33.0332 33.5444L29.8801 46.2026L25.6759 56.9621L20.4206 65.8229L14.4146 72.7849L7.95817 76.5824L1.35156 77.8482H148.499Z" fill="#F7F7F7"/>
<path d="M0.600586 86.709V89.8735H149.249V86.709H0.600586Z" fill="black"/>
<path d="M33.4834 38.6074V68.9872" stroke="#7F7F7F" stroke-width="0.616544"/>
<path d="M32.1318 44.9365V71.5188" stroke="#7F7F7F" stroke-width="0.616544"/>
<path d="M30.6309 50.6328V71.5189" stroke="#7F7F7F" stroke-width="0.616544"/>
<path d="M29.1289 53.7979V71.5194" stroke="#7F7F7F" stroke-width="0.616544"/>
<path d="M27.7773 56.9619V71.5189" stroke="#7F7F7F" stroke-width="0.616544"/>
<path d="M26.4268 60.127V71.5194" stroke="#7F7F7F" stroke-width="0.616544"/>
<path d="M24.9248 62.6582V71.519" stroke="#7F7F7F" stroke-width="0.616544"/>
<path d="M23.4238 65.8232V71.5194" stroke="#7F7F7F" stroke-width="0.616544"/>
<path d="M22.0723 68.9873V71.519" stroke="#7F7F7F" stroke-width="0.616544"/>
<path d="M20.5703 68.9873V71.519" stroke="#7F7F7F" stroke-width="0.616544"/>
<path d="M19.2193 71.5186H17.7178" stroke="#7F7F7F" stroke-width="0.616544"/>
<path d="M116.366 38.6074V68.9872" stroke="#7F7F7F" stroke-width="0.616544"/>
<path d="M117.718 44.9365V71.5188" stroke="#7F7F7F" stroke-width="0.616544"/>
<path d="M119.219 50.6328V71.5189" stroke="#7F7F7F" stroke-width="0.616544"/>
<path d="M120.721 53.7979V71.5194" stroke="#7F7F7F" stroke-width="0.616544"/>
<path d="M122.072 56.9619V71.5189" stroke="#7F7F7F" stroke-width="0.616544"/>
<path d="M123.424 60.127V71.5194" stroke="#7F7F7F" stroke-width="0.616544"/>
<path d="M124.925 62.6582V71.519" stroke="#7F7F7F" stroke-width="0.616544"/>
<path d="M126.427 65.8232V71.5194" stroke="#7F7F7F" stroke-width="0.616544"/>
<path d="M127.777 68.9873V71.519" stroke="#7F7F7F" stroke-width="0.616544"/>
<path d="M129.279 68.9873V71.519" stroke="#7F7F7F" stroke-width="0.616544"/>
<path d="M130.631 71.5186H132.132" stroke="#7F7F7F" stroke-width="0.616544"/>
<path d="M107.808 38.6074V68.9872" stroke="#7F7F7F" stroke-width="0.616544"/>
<path d="M106.456 44.9365V71.5188" stroke="#7F7F7F" stroke-width="0.616544"/>
<path d="M104.955 50.6328V71.5189" stroke="#7F7F7F" stroke-width="0.616544"/>
<path d="M103.453 53.7979V71.5194" stroke="#7F7F7F" stroke-width="0.616544"/>
<path d="M102.103 56.9619V71.5189" stroke="#7F7F7F" stroke-width="0.616544"/>
<path d="M100.601 60.127V71.5194" stroke="#7F7F7F" stroke-width="0.616544"/>
<path d="M99.249 62.6582V71.519" stroke="#7F7F7F" stroke-width="0.616544"/>
<path d="M97.748 65.8232V71.5194" stroke="#7F7F7F" stroke-width="0.616544"/>
<path d="M96.3965 68.9873V71.519" stroke="#7F7F7F" stroke-width="0.616544"/>
<path d="M94.8945 68.9873V71.519" stroke="#7F7F7F" stroke-width="0.616544"/>
<path d="M93.5435 71.5186H92.042" stroke="#7F7F7F" stroke-width="0.616544"/>
<path d="M42.042 38.6074V68.9872" stroke="#7F7F7F" stroke-width="0.616544"/>
<path d="M43.3936 44.9365V71.5188" stroke="#7F7F7F" stroke-width="0.616544"/>
<path d="M44.8945 50.6328V71.5189" stroke="#7F7F7F" stroke-width="0.616544"/>
<path d="M46.3965 53.7979V71.5194" stroke="#7F7F7F" stroke-width="0.616544"/>
<path d="M47.748 56.9619V71.5189" stroke="#7F7F7F" stroke-width="0.616544"/>
<path d="M49.249 60.127V71.5194" stroke="#7F7F7F" stroke-width="0.616544"/>
<path d="M50.6006 62.6582V71.519" stroke="#7F7F7F" stroke-width="0.616544"/>
<path d="M52.1025 65.8232V71.5194" stroke="#7F7F7F" stroke-width="0.616544"/>
<path d="M53.4531 68.9873V71.519" stroke="#7F7F7F" stroke-width="0.616544"/>
<path d="M54.9551 68.9873V71.519" stroke="#7F7F7F" stroke-width="0.616544"/>
<path d="M56.3066 71.5186H57.8081" stroke="#7F7F7F" stroke-width="0.616544"/>
<path d="M0.600586 71.5186H149.249" stroke="#FFCC00" stroke-width="0.616544"/>
<path d="M0.600586 74.6832H34.8348V2.53125H40.6907V74.6832H109.159V2.53125H115.015V74.6832H149.249V86.7085H115.616V146.835H108.559V86.7085H41.2913V146.835H34.2342V86.7085H0.600586V74.6832Z" fill="#E5E5E5" stroke="black" stroke-width="0.616544"/>
<path d="M109.91 86.709V146.836H114.265V86.709H109.91Z" fill="#CCCCCC"/>
<path d="M35.5859 86.709V146.836H39.9403V86.709H35.5859Z" fill="#CCCCCC"/>
<path d="M110.66 14.5566V74.6832H113.513V14.5566H110.66Z" fill="#CCCCCC"/>
<path d="M36.3359 14.5566V74.6832H39.1888V14.5566H36.3359Z" fill="#CCCCCC"/>
<path d="M115.015 79.7471H148.498V81.6458H115.015V79.7471Z" fill="#666666"/>
<path d="M40.6904 79.7471H109.159V81.6458H40.6904V79.7471Z" fill="#666666"/>
<path d="M1.35156 79.7471H34.835V81.6458H1.35156V79.7471Z" fill="#666666"/>
<path d="M115.015 81.6455H148.498V84.1772H115.015V81.6455Z" fill="white"/>
<path d="M40.6904 81.6455H109.159V84.1772H40.6904V81.6455Z" fill="white"/>
<path d="M1.35156 81.6455H34.835V84.1772H1.35156V81.6455Z" fill="white"/>
<path d="M110.66 74.6832V14.5566H113.513V17.7212H111.261V74.6832H110.66Z" fill="#999999"/>
<path d="M36.3359 74.6832V14.5566H39.1888V17.7212H37.0867V74.6832H36.3359Z" fill="#999999"/>
<path d="M109.91 146.836V86.709H114.265V89.8735H110.661V146.836H109.91Z" fill="#999999"/>
<path d="M35.5859 146.836V86.709H39.9403V89.8735H36.3367V146.836H35.5859Z" fill="#999999"/>
</svg>
