<svg width="150" height="150" viewBox="0 0 150 150" fill="none" xmlns="http://www.w3.org/2000/svg">
<path d="M80.0752 10.5106L89.0978 6.60673L108.271 4.95508L127.444 6.60673L135.338 10.5106H80.0752Z" fill="#666666"/>
<path d="M13.5342 10.5106L21.4289 6.60673L40.6018 4.95508L60.9026 6.60673L68.7973 10.5106H13.5342Z" fill="#666666"/>
<path d="M85.7139 10.5106L91.353 6.60673L108.27 4.95508L124.06 6.60673L130.827 10.5106H85.7139Z" fill="#999999"/>
<path d="M18.0449 10.5106L24.8118 6.60673L40.6013 4.95508L57.5186 6.60673L64.2855 10.5106H18.0449Z" fill="#999999"/>
<path d="M89.0977 8.55849L96.9924 4.65458L117.293 3.00293L136.466 4.65458L144.361 8.55849H89.0977Z" fill="#666666" stroke="black" stroke-width="0.823024"/>
<path d="M4.51172 8.55849L12.4065 4.65458L32.7072 3.00293L51.8801 4.65458L59.7749 8.55849H4.51172Z" fill="#666666" stroke="black" stroke-width="0.823024"/>
<path d="M101.504 8.55849L104.887 4.65458L117.293 3.00293L128.572 4.65458L133.083 8.55849H101.504Z" fill="#B2B2B2"/>
<path d="M16.917 8.55849L21.4283 4.65458L32.7065 3.00293L43.9847 4.65458L48.4959 8.55849H16.917Z" fill="#B2B2B2"/>
<path d="M29.3232 8.55895L30.4511 3.9043H34.9623L36.0902 8.55895H29.3232Z" fill="white"/>
<path d="M112.782 8.55895L113.91 3.9043H119.549L120.677 8.55895H112.782Z" fill="white"/>
<path d="M106.015 3.90389V0.600586H127.443V3.90389H106.015Z" fill="#666666"/>
<path d="M22.5566 3.90389V0.600586H42.8574V3.90389H22.5566Z" fill="#666666"/>
<path d="M109.398 3.90389V0.600586H124.06V3.90389H109.398Z" fill="#B2B2B2"/>
<path d="M24.8125 3.90389V0.600586H40.602V3.90389H24.8125Z" fill="#B2B2B2"/>
<path d="M113.91 3.90389V0.600586H119.549V3.90389H113.91Z" fill="white"/>
<path d="M29.3232 3.90389V0.600586H34.9623V3.90389H29.3232Z" fill="white"/>
<path d="M89.0977 8.55861L96.9924 8.10816L117.293 7.95801L136.466 8.10816L144.361 8.55861L136.466 9.00906L117.293 9.15921L96.9924 9.00906L89.0977 8.55861Z" fill="#FFFFF7" stroke="#7F7F7F" stroke-width="0.823024"/>
<path d="M80.0752 10.5105L89.0978 10.0601L108.271 9.75977L127.444 10.0601L135.338 10.5105L127.444 10.961L108.271 11.1111L89.0978 10.961L80.0752 10.5105Z" fill="#FFFFF7" stroke="#7F7F7F" stroke-width="0.823024"/>
<path d="M13.5342 10.5105L21.4289 10.0601L40.6018 9.75977L60.9026 10.0601L68.7973 10.5105L60.9026 10.961L40.6018 11.1111L21.4289 10.961L13.5342 10.5105Z" fill="#FFFFF7" stroke="#7F7F7F" stroke-width="0.823024"/>
<path d="M4.51172 8.55861L12.4065 8.10816L32.7072 7.95801L51.8801 8.10816L59.7749 8.55861L51.8801 9.00906L32.7072 9.15921L12.4065 9.00906L4.51172 8.55861Z" fill="#FFFFF7" stroke="#7F7F7F" stroke-width="0.823024"/>
<path d="M63.1582 65.6158V3.75391H86.8424V65.6158H63.1582Z" fill="#B2B2B2" stroke="black" stroke-width="0.823024"/>
<path d="M71.0527 65.6158V3.75391H77.8197V65.6158H71.0527Z" fill="#E5E5E5"/>
<path d="M42.8574 0.600586V3.75374H106.015V0.600586H42.8574Z" fill="#999999" stroke="black" stroke-width="0.823024"/>
<path d="M53.0078 6.90723V7.65798H96.9928V6.90723H53.0078Z" fill="#999999" stroke="black" stroke-width="0.823024"/>
<path d="M59.7744 0.600586V3.75374H89.0977V0.600586H59.7744Z" fill="#B2B2B2"/>
<path d="M63.1577 62.6123L57.5186 149.249H92.481L86.8419 62.6123H63.1577Z" fill="#B2B2B2"/>
<path d="M71.0525 62.6123L68.7969 149.249H80.0751L78.9473 62.6123H71.0525Z" fill="#E5E5E5"/>
<path d="M63.1577 62.6123L57.5186 149.249H92.481L86.8419 62.6123" stroke="black" stroke-width="0.823024"/>
<path d="M72.1807 144.294V148.348H86.8423L82.331 144.294H72.1807Z" stroke="black" stroke-width="0.823024"/>
<path d="M74.4365 145.946V146.697" stroke="black" stroke-width="0.823024"/>
</svg>
