<svg width="150" height="150" viewBox="0 0 150 150" fill="none" xmlns="http://www.w3.org/2000/svg">
<path d="M55.1133 112.913V1.95191L93.1815 1.80176V112.913H55.1133Z" fill="#999999" stroke="black" stroke-width="0.584166"/>
<path d="M61.3633 112.913V1.80176L86.3633 1.95191V112.913H61.3633Z" fill="#CCCCCC"/>
<path d="M67.6133 112.913V1.80176H80.6815V112.913H67.6133Z" fill="white"/>
<path d="M27.2723 144.444L47.1586 146.997L73.295 148.348L99.9996 146.997L122.159 144.444L126.704 139.939H20.4541L27.2723 144.444Z" fill="#FFFF7F" stroke="#CCCC00" stroke-width="0.584166"/>
<path d="M34.6587 143.243L51.7042 145.795L73.2951 146.997L97.7269 145.795L114.772 143.243L119.318 139.939H30.1133L34.6587 143.243Z" fill="#FFFFA6"/>
<path d="M42.0452 142.642L56.8179 144.444L73.2952 145.795L93.1816 144.444L107.386 142.642L109.659 139.939H39.7725L42.0452 142.642Z" fill="#FFFFCC"/>
<path d="M49.4319 141.891L61.3637 143.843L73.2955 144.444L88.0683 143.843L97.7274 141.891L100 139.939H47.1592L49.4319 141.891Z" fill="#FFFFF2"/>
<path d="M10.7959 138.738L20.455 121.471L42.0459 113.213H105.114L126.705 121.471L138.637 138.738H10.7959Z" fill="#B2B2B2" stroke="black" stroke-width="0.584166"/>
<path d="M37.5 138.738L42.0455 121.471L56.8182 113.213H93.1818L105.114 121.471L112.5 138.738H37.5Z" fill="#CCCCCC"/>
<path d="M63.6367 138.738L66.4776 121.471L68.7504 113.213H78.4094L82.9549 121.471L85.7958 138.738H63.6367Z" fill="white"/>
<path d="M5.68164 138.738V141.291H143.75V138.738H5.68164Z" fill="#E5E5E5" stroke="black" stroke-width="0.584166"/>
<path d="M59.0908 113.213H90.3408" stroke="black" stroke-width="0.584166"/>
</svg>
