<svg width="150" height="150" viewBox="0 0 150 150" fill="none" xmlns="http://www.w3.org/2000/svg">
<path d="M0.750977 133.333V1.08203H43.0933V6.27684H82.1324V11.4716H120.871V16.45H149.099V148.701H117.418L120.871 143.723H78.3786L82.1324 138.528H39.6399L43.0933 133.333H0.750977Z" fill="white"/>
<path d="M120.871 16.4502H149.099V26.6234H120.871V16.4502Z" fill="#FF0000"/>
<path d="M120.871 36.5801H149.099V46.7532H120.871V36.5801Z" fill="#FF0000"/>
<path d="M120.871 57.1426H149.099V67.3157H120.871V57.1426Z" fill="#FF0000"/>
<path d="M120.871 77.4893H149.099V87.6624H120.871V77.4893Z" fill="#FF0000"/>
<path d="M120.871 98.0518H149.099V107.792H120.871V98.0518Z" fill="#FF0000"/>
<path d="M120.871 117.966H149.099V128.355H120.871V117.966Z" fill="#FF0000"/>
<path d="M120.87 138.528H149.099V148.701H117.417L120.87 143.723V138.528Z" fill="#FF0000"/>
<path d="M82.1318 11.4717H120.871V21.6448H82.1318V11.4717Z" fill="#FF0000"/>
<path d="M82.1318 31.8184H120.871V41.7751H82.1318V31.8184Z" fill="#FF0000"/>
<path d="M82.1318 51.9482H120.871V62.1214H82.1318V51.9482Z" fill="#FF0000"/>
<path d="M82.1318 72.2939H120.871V82.4671H82.1318V72.2939Z" fill="#FF0000"/>
<path d="M82.1318 92.8574H120.871V103.031H82.1318V92.8574Z" fill="#FF0000"/>
<path d="M82.1318 112.987H120.871V123.16H82.1318V112.987Z" fill="#FF0000"/>
<path d="M82.1317 133.333H120.87V143.723H78.3779L82.1317 138.528V133.333Z" fill="#FF0000"/>
<path d="M67.8682 6.27734H82.1324V16.4505H67.8682V6.27734Z" fill="#FF0000"/>
<path d="M67.8682 26.623H82.1324V36.5798H67.8682V26.623Z" fill="#FF0000"/>
<path d="M67.8682 46.7529H82.1324V57.1425H67.8682V46.7529Z" fill="#FF0000"/>
<path d="M67.8682 67.3164H82.1324V77.4896H67.8682V67.3164Z" fill="#FF0000"/>
<path d="M43.0928 87.6621H82.1318V98.0517H43.0928V87.6621Z" fill="#FF0000"/>
<path d="M43.0928 107.792H82.1318V117.965H43.0928V107.792Z" fill="#FF0000"/>
<path d="M43.0931 128.355H82.1321V138.529H39.6396L43.0931 133.334V128.355Z" fill="#FF0000"/>
<path d="M0.750977 82.4678H43.0933V92.8574H0.750977V82.4678Z" fill="#FF0000"/>
<path d="M0.750977 103.03H43.0933V112.987H0.750977V103.03Z" fill="#FF0000"/>
<path d="M0.750977 123.16H43.0933V133.333H0.750977V123.16Z" fill="#FF0000"/>
<path d="M43.0928 6.27734H67.8675V77.4895H43.0928V6.27734Z" fill="#007FFF"/>
<path d="M0.750977 1.08203H43.0933V72.2942H0.750977V1.08203Z" fill="#007FFF"/>
<path d="M39.6396 138.528L43.0931 133.333H39.6396V138.528Z" fill="#7F0000"/>
<path d="M78.5283 143.723L82.1319 138.528H78.5283V143.723Z" fill="#7F0000"/>
<path d="M117.417 148.701L120.87 143.723H117.417V148.701Z" fill="#7F0000"/>
<path d="M120.871 143.723V16.4502" stroke="#7F7F7F" stroke-width="0.360555"/>
<path d="M82.1318 138.528V11.4717" stroke="#7F7F7F" stroke-width="0.360555"/>
<path d="M43.0928 133.333V72.2939" stroke="#7F7F7F" stroke-width="0.360555"/>
<path d="M62.4627 70.996L59.9102 67.3164L62.4627 63.6367L65.0153 67.3164L62.4627 70.996Z" fill="white"/>
<path d="M62.6131 60.8222L60.0605 57.1425L62.6131 53.4629L65.1657 57.1425L62.6131 60.8222Z" fill="white"/>
<path d="M62.4627 50.6493L59.9102 46.9697L62.4627 43.29L65.0153 46.9697L62.4627 50.6493Z" fill="white"/>
<path d="M62.4627 40.4765L59.9102 36.7968L62.4627 33.1172L65.0153 36.7968L62.4627 40.4765Z" fill="white"/>
<path d="M62.6131 30.0862L60.0605 26.623L62.6131 22.9434L65.1657 26.623L62.6131 30.0862Z" fill="white"/>
<path d="M62.6131 19.9134L60.0605 16.4502L62.6131 12.7705L65.1657 16.4502L62.6131 19.9134Z" fill="white"/>
<path d="M55.4051 65.8011L52.8525 62.3379L55.4051 58.6582L57.9576 62.3379L55.4051 65.8011Z" fill="white"/>
<path d="M55.5555 55.6272L53.0029 52.164L55.5555 48.4844L58.108 52.164L55.5555 55.6272Z" fill="white"/>
<path d="M55.4051 45.4544L52.8525 41.9912L55.4051 38.3115L57.9576 41.9912L55.4051 45.4544Z" fill="white"/>
<path d="M55.4051 35.2815L52.8525 31.8183L55.4051 28.1387L57.9576 31.8183L55.4051 35.2815Z" fill="white"/>
<path d="M55.5555 25.1087L53.0029 21.6455L55.5555 17.9658L58.108 21.6455L55.5555 25.1087Z" fill="white"/>
<path d="M48.4988 70.996L45.9463 67.3164L48.4988 63.6367L51.0514 67.3164L48.4988 70.996Z" fill="white"/>
<path d="M48.4981 60.8222L46.0957 57.1425L48.4981 53.4629L51.0507 57.1425L48.4981 60.8222Z" fill="white"/>
<path d="M48.4988 50.6493L45.9463 46.9697L48.4988 43.29L51.0514 46.9697L48.4988 50.6493Z" fill="white"/>
<path d="M48.4988 40.4765L45.9463 36.7968L48.4988 33.1172L51.0514 36.7968L48.4988 40.4765Z" fill="white"/>
<path d="M48.4981 30.0862L46.0957 26.623L48.4981 22.9434L51.0507 26.623L48.4981 30.0862Z" fill="white"/>
<path d="M48.4981 19.9134L46.0957 16.4502L48.4981 12.7705L51.0507 16.4502L48.4981 19.9134Z" fill="white"/>
<path d="M41.2908 60.8222L38.7383 57.1425L41.2908 53.4629L43.8434 57.1425L41.2908 60.8222Z" fill="white"/>
<path d="M41.4412 50.6493L38.8887 46.9697L41.4412 43.29L43.9938 46.9697L41.4412 50.6493Z" fill="white"/>
<path d="M41.2908 40.4765L38.7383 36.7968L41.2908 33.1172L43.8434 36.7968L41.2908 40.4765Z" fill="white"/>
<path d="M41.2908 30.0862L38.7383 26.623L41.2908 22.9434L43.8434 26.623L41.2908 30.0862Z" fill="white"/>
<path d="M41.4412 19.9134L38.8887 16.4502L41.4412 12.7705L43.9938 16.4502L41.4412 19.9134Z" fill="white"/>
<path d="M34.3846 65.8007L31.832 62.1211L34.3846 58.4414L36.9371 62.1211L34.3846 65.8007Z" fill="white"/>
<path d="M34.3846 55.6279L31.832 51.9482L34.3846 48.2686L36.9371 51.9482L34.3846 55.6279Z" fill="white"/>
<path d="M34.3846 45.455L31.832 41.7754L34.3846 38.0957L36.9371 41.7754L34.3846 45.455Z" fill="white"/>
<path d="M34.3846 35.2815L31.832 31.8183L34.3846 28.1387L36.9371 31.8183L34.3846 35.2815Z" fill="white"/>
<path d="M34.3846 25.1083L31.832 21.4287L34.3846 17.749L36.9371 21.4287L34.3846 25.1083Z" fill="white"/>
<path d="M34.3846 14.9355L31.832 11.2558L34.3846 7.57617L36.9371 11.2558L34.3846 14.9355Z" fill="white"/>
<path d="M27.1776 60.8222L24.625 57.1425L27.1776 53.4629L29.7301 57.1425L27.1776 60.8222Z" fill="white"/>
<path d="M27.327 50.6493L24.7744 46.9697L27.327 43.29L29.8795 46.9697L27.327 50.6493Z" fill="white"/>
<path d="M27.1776 40.4765L24.625 36.7968L27.1776 33.1172L29.7301 36.7968L27.1776 40.4765Z" fill="white"/>
<path d="M27.1776 30.0862L24.625 26.623L27.1776 22.9434L29.7301 26.623L27.1776 30.0862Z" fill="white"/>
<path d="M27.327 19.9134L24.7744 16.4502L27.327 12.7705L29.8795 16.4502L27.327 19.9134Z" fill="white"/>
<path d="M20.2703 65.8007L17.7178 62.1211L20.2703 58.4414L22.8229 62.1211L20.2703 65.8007Z" fill="white"/>
<path d="M20.2703 55.6279L17.7178 51.9482L20.2703 48.2686L22.8229 51.9482L20.2703 55.6279Z" fill="white"/>
<path d="M20.2703 45.455L17.7178 41.7754L20.2703 38.0957L22.8229 41.7754L20.2703 45.455Z" fill="white"/>
<path d="M20.2703 35.2812L17.7178 31.6015L20.2703 27.9219L22.8229 31.6015L20.2703 35.2812Z" fill="white"/>
<path d="M20.2703 25.1083L17.7178 21.4287L20.2703 17.749L22.8229 21.4287L20.2703 25.1083Z" fill="white"/>
<path d="M20.2703 14.9355L17.7178 11.2558L20.2703 7.57617L22.8229 11.2558L20.2703 14.9355Z" fill="white"/>
<path d="M13.0633 60.8222L10.5107 57.1425L13.0633 53.4629L15.6158 57.1425L13.0633 60.8222Z" fill="white"/>
<path d="M13.2137 50.6493L10.6611 46.9697L13.2137 43.29L15.6161 46.9697L13.2137 50.6493Z" fill="white"/>
<path d="M13.0633 40.4765L10.5107 36.7968L13.0633 33.1172L15.6158 36.7968L13.0633 40.4765Z" fill="white"/>
<path d="M13.0633 30.0862L10.5107 26.623L13.0633 22.9434L15.6158 26.623L13.0633 30.0862Z" fill="white"/>
<path d="M13.2137 19.9134L10.6611 16.4502L13.2137 12.7705L15.6161 16.4502L13.2137 19.9134Z" fill="white"/>
<path d="M6.15607 65.8007L3.60352 62.1211L6.15607 58.4414L8.70862 62.1211L6.15607 65.8007Z" fill="white"/>
<path d="M6.15607 55.6279L3.60352 51.9482L6.15607 48.2686L8.70862 51.9482L6.15607 55.6279Z" fill="white"/>
<path d="M6.15607 45.455L3.60352 41.7754L6.15607 38.0957L8.70862 41.7754L6.15607 45.455Z" fill="white"/>
<path d="M6.15607 35.2812L3.60352 31.6015L6.15607 27.9219L8.70862 31.6015L6.15607 35.2812Z" fill="white"/>
<path d="M6.15607 25.1083L3.60352 21.4287L6.15607 17.749L8.70862 21.4287L6.15607 25.1083Z" fill="white"/>
<path d="M6.15607 14.9355L3.60352 11.2558L6.15607 7.57617L8.70862 11.2558L6.15607 14.9355Z" fill="white"/>
<path d="M0.750977 133.55V1.08203H43.0933V6.27684H82.1324V11.4716H120.871V16.45H149.099V148.701H117.267V143.723H78.5288V138.528H39.6399V133.55H0.750977Z" stroke="black" stroke-width="0.360555"/>
<path d="M42.9434 72.2947V6.27734" stroke="#000099" stroke-width="0.360555"/>
</svg>
