<svg width="150" height="150" viewBox="0 0 150 150" fill="none" xmlns="http://www.w3.org/2000/svg">
<g clip-path="url(#clip0_2109_161504)">
<path d="M144.144 149.367L116.216 150L111.261 147.468V129.43L106.907 139.557L89.6396 138.607L73.5736 128.797V115.19L78.2282 99.9999L67.7177 112.658L53.7538 116.139L49.5495 115.19L41.8919 122.468L31.6817 118.038L24.024 121.519L7.65766 115.19L0 107.278L16.967 87.6581L86.1862 69.6201L144.144 149.367Z" fill="black" stroke="#ABABAB" stroke-width="0.435963"/>
<path d="M4.50488 37.0253L50.3007 0L67.7181 5.06329V29.7468L84.6851 11.076L101.652 15.8228V37.3418L107.208 39.2405V49.6835L139.94 35.7595L150 50.6329V90.1899L144.745 148.101L118.619 147.152V121.519L126.277 88.9241L124.775 90.1899L106.757 140.19L82.1325 128.165V103.481L86.9373 91.7722L84.8352 87.9747L67.7181 114.557L46.3968 105.063V82.5949L33.9343 107.278L10.3607 101.899V75.3165L14.4148 69.3038L4.50488 65.5063V37.0253Z" fill="#C24545" stroke="black" stroke-width="0.435963"/>
<path d="M14.4141 70.2528L25.0747 73.4174V45.8857" stroke="black" stroke-width="0.435963"/>
<path d="M4.35449 38.2913L25.2254 46.2027L67.868 5.06348" stroke="black" stroke-width="0.435963"/>
<path d="M9.91016 76.2656L33.4837 81.0125V107.278" stroke="black" stroke-width="0.435963"/>
<path d="M33.6338 81.0122L42.0422 65.5059" stroke="black" stroke-width="0.435963"/>
<path d="M25.0752 73.4181L68.1683 28.7979" stroke="black" stroke-width="0.435963"/>
<path d="M63.3633 88.9241L42.042 81.0127V56.0127L63.3633 63.2912V88.9241Z" stroke="black" stroke-width="0.435963"/>
<path d="M63.3633 63.608L101.652 16.4561" stroke="black" stroke-width="0.435963"/>
<path d="M85.1356 88.6076L82.583 82.595V61.3925L107.508 49.6836" stroke="black" stroke-width="0.435963"/>
<path d="M67.7178 89.5565L82.4325 71.5186" stroke="black" stroke-width="0.435963"/>
<path d="M107.207 39.5566L94.4443 56.0123" stroke="black" stroke-width="0.435963"/>
<path d="M67.7178 89.5566V114.557" stroke="black" stroke-width="0.435963"/>
<path d="M101.802 37.6582L63.3633 88.924" stroke="black" stroke-width="0.435963"/>
<path d="M82.4326 61.3922L94.7449 81.3289L149.55 51.582" stroke="black" stroke-width="0.435963"/>
<path d="M94.2939 80.6963V105.696L86.9365 92.7216" stroke="black" stroke-width="0.435963"/>
<path d="M95.0449 105.696L150 75.6328" stroke="black" stroke-width="0.435963"/>
<path d="M82.1318 104.431L106.456 115.823V140.507" stroke="black" stroke-width="0.435963"/>
<path d="M106.006 115.823L115.766 94.3037" stroke="black" stroke-width="0.435963"/>
<path d="M118.769 122.152L143.994 123.102V148.102" stroke="black" stroke-width="0.435963"/>
<path d="M143.994 122.152L149.55 75.6328" stroke="black" stroke-width="0.435963"/>
<path d="M67.7176 89.8732L63.3633 88.9238" stroke="black" stroke-width="0.435963"/>
</g>
<defs>
<clipPath id="clip0_2109_161504">
<rect width="150" height="150" fill="white"/>
</clipPath>
</defs>
</svg>
