<svg width="150" height="150" viewBox="0 0 150 150" fill="none" xmlns="http://www.w3.org/2000/svg">
<g clip-path="url(#clip0_2109_161404)">
<path d="M135.135 0L10.2102 27.3305L5.70571 30.0847L2.55255 35.5932L0.600601 42.5847L0 50L0.900901 57.4153L3.6036 64.8305L7.05706 70.9746L10.6607 74.7881L17.7177 79.2373L21.6216 81.1441L28.979 85.1695L35.1351 90.8898L37.5375 95.1271L40.0901 102.119L42.4925 109.534L44.5946 117.161L46.8468 125L49.8498 132.415L53.4535 139.195L58.4084 145.127L64.7147 150L150 20.7627L142.042 19.2797L144.294 16.1017L144.745 8.47458L142.643 3.17797L137.838 0H135.135Z" fill="white" stroke="#0000FF" stroke-width="0.356715"/>
<path d="M17.267 41.5251L12.7625 43.22L11.4111 49.1522L12.6123 55.9318L14.7144 58.0505L17.267 55.72L18.1679 49.9996L17.7174 43.0081L16.6664 40.042L15.7655 38.9827L14.7144 38.559L10.6604 41.3132L9.15886 47.2454L9.60931 54.4488L12.0117 59.3217L14.7144 61.2285L18.7685 57.4149L20.27 51.6946L20.1198 44.2793L18.4682 37.9234L17.5673 36.6522L13.0628 35.8047L9.00871 38.9827L6.90661 46.6098L7.20691 53.6013L9.60931 60.5929L13.9637 64.1946L18.4682 62.2878L21.6213 55.9318L22.5222 48.5166L21.9216 42.3725L20.27 36.864L15.7655 32.4149L10.9607 33.2623L7.35706 36.864L5.25496 42.3725L4.50421 48.5166L4.95466 54.4488L6.60631 60.381L9.60931 65.042L13.6634 67.5844L18.1679 66.7369L21.6213 62.9234L23.8736 57.6268L24.9246 51.4827L24.6243 45.1268L23.273 38.1352L20.5703 32.203L16.0658 29.0251L11.261 29.4488L7.35706 32.4149L4.05375 38.3471L2.55225 45.1268L2.4021 46.8217L2.25195 49.9996L2.4021 52.3301L4.20391 59.9573L6.60631 64.8301L9.45916 69.0674L13.0628 72.2454L16.9667 74.1522L19.2189 74.364H21.4712L26.1258 72.4573L142.042 19.2793" stroke="#0000FF" stroke-width="0.356715"/>
<path d="M143.694 17.1607L20.4204 72.4573L19.5195 72.6692H18.4684L17.1171 72.2455L15.7657 71.8217L14.4144 71.1862L13.2132 70.3387L12.012 69.4912L10.9609 68.4319L12.012 69.0675L13.2132 69.4912L14.4144 69.915L15.7657 70.1268L16.9669 70.3387H18.3183H19.3693L20.4204 70.1268L144.444 15.4658" stroke="#0000FF" stroke-width="0.356715"/>
<path d="M38.7383 76.6949L111.711 62.5" stroke="#0000FF" stroke-width="0.356715"/>
<path d="M48.7988 95.1273L49.6997 96.8222L50.4505 98.7289L51.2012 100.848L51.8018 103.178L52.4024 105.72L53.1532 108.263L53.7538 110.805L54.6547 113.559L55.4054 116.102L56.3063 118.644L57.3574 121.187L58.5586 123.517L59.7598 125.636L61.2613 127.543L62.7628 129.237L64.7147 130.72L96.5466 83.8984" stroke="#0000FF" stroke-width="0.356715"/>
</g>
<defs>
<clipPath id="clip0_2109_161404">
<rect width="150" height="150" fill="white"/>
</clipPath>
</defs>
</svg>
