<svg width="150" height="150" viewBox="0 0 150 150" fill="none" xmlns="http://www.w3.org/2000/svg">
<g clip-path="url(#clip0_2109_160815)">
<path d="M69.9521 6.90691V0H80.0483V6.90691H69.9521Z" fill="#990000"/>
<path d="M73.7979 6.90691V0H76.2017V6.90691H73.7979Z" fill="#FF0000"/>
<path d="M114.904 37.3875V31.2313L112.019 21.7719L103.366 13.3635L89.9041 7.95805L75.0002 6.15625L59.856 7.95805L46.3945 13.3635L37.7406 21.7719L34.856 31.2313V37.3875H19.9521V43.6938H34.856V143.694H19.9521V150H130.048V143.694H114.904V43.6938H130.048V37.3875H114.904Z" fill="#7F0000"/>
<path d="M110.337 37.3875V31.0812L107.933 21.7719L100.24 13.2133L88.2212 7.8079L75.0001 6.15625L61.7789 7.8079L49.7597 13.2133L42.0674 21.7719L39.6635 31.0812V37.3875H26.4424V43.6938H39.6635V143.694H26.4424V149.85H123.558V143.694H110.337V43.6938H123.558V37.3875H110.337Z" fill="#8F0000"/>
<path d="M105.529 37.3875V31.0812L103.365 21.7719L96.8749 13.2133L86.5384 7.8079L74.9999 6.15625L63.4615 7.8079L53.1249 13.2133L46.6345 21.7719L44.2307 31.0812V37.3875H32.9326V43.6938H44.2307V143.694H32.9326V149.85H117.067V143.694H105.529V43.6938H117.067V37.3875H105.529Z" fill="#9C0000"/>
<path d="M100.961 37.3875V31.0812L99.0382 21.7719L93.5094 13.2133L84.6152 7.8079L74.9998 6.15625L65.3844 7.8079L56.4902 13.2133L50.9613 21.7719L49.0382 31.0812V37.3875H39.4229V43.6938H49.0382V143.694H39.4229V149.85H110.817V143.694H100.961V43.6938H110.817V37.3875H100.961Z" fill="#AB0000"/>
<path d="M96.1536 37.3875V31.0812L94.7113 21.7719L90.144 13.2133L82.9325 7.8079L74.9998 6.15625L67.0671 7.8079L59.8555 13.2133L55.2882 21.7719L53.8459 31.0812V37.3875H45.6729V43.6938H53.8459V143.694H45.6729V149.85H104.327V143.694H96.1536V43.6938H104.327V37.3875H96.1536Z" fill="#BA0000"/>
<path d="M91.5862 37.3875V31.0812L90.3842 21.7719L86.7785 13.2133L81.2496 7.8079L74.9996 6.15625L68.7496 7.8079L63.2208 13.2133L59.615 21.7719L58.4131 31.0812V37.3875H52.1631V43.6938H58.4131V143.694H52.1631V149.85H97.8362V143.694H91.5862V43.6938H97.8362V37.3875H91.5862Z" fill="#C90000"/>
<path d="M86.7793 37.3875V31.0812L86.0581 21.7719L83.4139 13.2133L79.5678 7.8079L75.0005 6.15625L70.6735 7.8079L66.587 13.2133L63.9428 21.7719L63.2216 31.0812V37.3875H58.6543V43.6938H63.2216V143.694H58.6543V149.85H91.3466V143.694H86.7793V43.6938H91.3466V37.3875H86.7793Z" fill="#D60000"/>
<path d="M82.2118 37.3875V31.2313L81.7311 21.7719L80.0484 13.3635L77.6445 7.95805L75.0003 6.15625L72.3561 7.95805L69.9522 13.3635L68.2695 21.7719L67.7888 31.2313V37.3875H65.1445V43.6938H67.7888V143.694H65.1445V150H84.8561V143.694H82.2118V43.6938H84.8561V37.3875H82.2118Z" fill="#E50000"/>
<path d="M34.8555 37.3877H114.904" stroke="black" stroke-width="0.379967"/>
<path d="M114.904 43.6934H34.8555" stroke="black" stroke-width="0.379967"/>
<path d="M114.904 143.693H34.8555" stroke="black" stroke-width="0.379967"/>
<path d="M80.0483 6.90691L89.9041 7.95796L103.366 13.3634L112.019 21.7718L114.904 31.2312V37.3874H130.048V43.6937H114.904V143.694H130.048V150H19.9521V143.694H34.856V43.6937H19.9521V37.3874H34.856V31.2312L37.7406 21.7718L46.3945 13.3634L59.856 7.95796L69.9521 6.90691V0H80.0483V6.90691Z" stroke="black" stroke-width="0.379967"/>
<path d="M114.904 59.3096H135.097V65.4657H150V84.2345H135.097V90.5408H114.904" stroke="black" stroke-width="0.379967"/>
<path d="M34.8558 59.3096H14.9038V65.4657H0V84.2345H14.9038V90.5408H34.8558" stroke="black" stroke-width="0.379967"/>
<path d="M74.7598 93.5439C91.2222 93.5439 104.568 85.208 104.568 74.9253C104.568 64.6425 91.2222 56.3066 74.7598 56.3066C58.2975 56.3066 44.9521 64.6425 44.9521 74.9253C44.9521 85.208 58.2975 93.5439 74.7598 93.5439Z" fill="#BF0000"/>
<path d="M96.3941 61.5615L102.644 67.8678L104.808 74.9249L102.644 81.9819L96.3941 88.2883L86.0575 92.3423L74.9998 93.6937L63.7018 92.3423L53.3652 88.2883" stroke="#7F0000" stroke-width="0.379967"/>
<path d="M85.5768 68.168L88.7018 71.3211L89.9038 74.9247L88.7018 78.5283L85.5768 81.6815L80.5288 83.6334L74.9999 84.3842L69.2307 83.6334L64.1826 81.6815" stroke="#7F0000" stroke-width="0.379967"/>
<path d="M53.3656 88.2884L47.1156 81.9821L44.9521 74.925L47.1156 67.868L53.3656 61.5617L63.7021 57.5076L75.0002 56.1562L86.0579 57.5076L96.3945 61.5617" stroke="#FF0000" stroke-width="0.379967"/>
<path d="M64.1824 81.682L61.0574 78.5289L59.8555 74.9253L61.0574 71.3217L64.1824 68.1685L69.2305 66.2166L74.9997 65.4658L80.5285 66.2166L85.5766 68.1685" stroke="#FF0000" stroke-width="0.379967"/>
<path d="M114.904 90.5408L111.298 86.1864L109.855 74.9252L111.298 63.6639L114.904 59.3096H135.096V65.4657H150V84.2345H135.096V90.5408H114.904Z" fill="#7F0000" stroke="black" stroke-width="0.379967"/>
<path d="M34.8558 90.5408L38.4615 86.1864L39.9038 74.9252L38.4615 63.6639L34.8558 59.3096H14.9038V65.4657H0V84.2345H14.9038V90.5408H34.8558Z" fill="#7F0000" stroke="black" stroke-width="0.379967"/>
<path d="M114.904 87.3876L106.49 83.9341L105.048 74.9251L106.49 65.9161L114.904 62.3125H134.856V67.2675H150V82.4326H134.856V87.3876H114.904Z" fill="#910000"/>
<path d="M34.8558 87.3876L43.5096 83.9341L44.9519 74.9251L43.5096 65.9161L34.8558 62.3125H14.9038V67.2675H0V82.4326H14.9038V87.3876H34.8558Z" fill="#910000"/>
<path d="M114.904 84.2346V65.4658H134.856V69.2196H150V80.4808H134.856V84.2346H114.904Z" fill="#A60000"/>
<path d="M34.8558 84.2346V65.4658H14.9038V69.2196H0V80.4808H14.9038V84.2346H34.8558Z" fill="#A60000"/>
<path d="M114.904 81.0806V68.6182H134.856V71.0206H150V78.6782H134.856V81.0806H114.904Z" fill="#B80000"/>
<path d="M34.8558 81.0806V68.6182H14.9038V71.0206H0V78.6782H14.9038V81.0806H34.8558Z" fill="#B80000"/>
<path d="M114.904 78.0778V71.7715H135.097V72.9727H150V76.7264H135.097V78.0778H114.904Z" fill="#CC0000"/>
<path d="M34.8558 78.0778V71.7715H14.9038V72.9727H0V76.7264H14.9038V78.0778H34.8558Z" fill="#CC0000"/>
<path d="M134.855 84.2346V65.4658" stroke="black" stroke-width="0.379967"/>
<path d="M14.9043 84.2346V65.4658" stroke="black" stroke-width="0.379967"/>
</g>
<defs>
<clipPath id="clip0_2109_160815">
<rect width="150" height="150" fill="white"/>
</clipPath>
</defs>
</svg>
