<svg width="150" height="150" viewBox="0 0 150 150" fill="none" xmlns="http://www.w3.org/2000/svg">
<path d="M1.76953 149.25V25.2256H8.84918V149.25H1.76953Z" fill="#666666" stroke="black" stroke-width="0.515512"/>
<path d="M2.65527 149.25V25.2256H7.96501V149.25H2.65527Z" fill="#B2B2B2"/>
<path d="M4.4248 149.25V25.2256H6.19472V149.25H4.4248Z" fill="#E5E5E5"/>
<path d="M125.664 5.25539L126.107 5.85599L127.434 6.15629H144.248L146.018 5.85599L146.461 4.35449L125.664 5.25539Z" fill="#FFFFF7" stroke="black" stroke-width="0.515512"/>
<path d="M109.734 4.50421H82.743L54.8669 5.40511L29.6456 7.95766L14.1589 11.8616L8.84918 16.3661V25.0748H1.76953V16.0658L7.96422 10.9607L25.2209 6.15586L52.6545 3.303L82.743 2.25195H109.734V4.50421Z" fill="#B2B2B2"/>
<path d="M109.734 4.80479V1.95194L111.062 1.50149L125.664 0.900886L136.726 0.600586H146.46L147.787 1.05104V4.05404L147.345 4.35434L139.823 4.80479L128.318 5.25524H111.062L109.734 4.80479Z" fill="#7F7F7F" stroke="black" stroke-width="0.515512"/>
<path d="M115.044 4.65488L114.602 1.95218L115.044 1.50173L125.664 1.05128L143.805 0.750977L145.133 1.20143L144.69 4.05428L143.805 4.35458L129.203 4.95518H117.256L115.044 4.65488Z" fill="#B2B2B2"/>
<path d="M122.567 4.50423L121.682 1.95168L122.567 1.50123L126.549 1.05078H136.283L137.168 1.35108V4.35408L136.283 4.50423L129.204 4.95469H123.894L122.567 4.50423Z" fill="#CCCCCC"/>
<path d="M109.734 4.50418H82.7432L54.8671 5.40508L30.0883 7.95763L14.1591 11.8615L8.84939 16.366V25.2249H5.30957V16.0657L11.5043 11.2609L27.8759 6.90658L53.9821 4.35403L82.7432 3.45312H109.734V4.50418Z" fill="#666666"/>
<path d="M109.734 4.50421H82.743L54.8669 5.40511L30.0881 7.95766L14.1589 11.8616L8.84918 16.3661V25.2249H1.76953V16.0658L7.96422 10.8105L25.2209 6.15586L52.6545 3.303L82.743 2.25195H109.734V4.50421Z" stroke="black" stroke-width="0.515512"/>
</svg>
