<svg width="150" height="150" viewBox="0 0 150 150" fill="none" xmlns="http://www.w3.org/2000/svg">
<path d="M63.1582 149.249V20.8711H85.7146V149.249H63.1582Z" fill="#666666" stroke="black" stroke-width="0.823024"/>
<path d="M67.6689 149.249V20.8711H81.2028V149.249H67.6689Z" fill="#B2B2B2"/>
<path d="M71.0527 149.249V20.8711H76.6918V149.249H71.0527Z" fill="white"/>
<path d="M63.1582 18.9189V20.8709H85.7146V18.9189H63.1582Z" fill="#666666" stroke="black" stroke-width="0.823024"/>
<path d="M63.1583 19.2192L121.805 18.9189L138.722 6.15614H144.361L80.0756 1.50149V0.600586H68.7974V1.50149L4.51172 6.15614H57.5192L63.1583 19.2192Z" fill="#999999" stroke="black" stroke-width="0.823024"/>
<path d="M63.158 19.2196L57.5189 5.70605L11.2783 6.15651L28.1956 18.4688L63.158 19.2196Z" fill="#B2B2B2" stroke="black" stroke-width="0.823024"/>
<path d="M57.5186 5.70605L138.722 6.15651" stroke="black" stroke-width="0.823024"/>
<path d="M66.541 9.15924L67.6688 8.25834L74.4358 7.35744L84.5861 6.90699L96.9921 6.75684L108.27 6.90699L118.421 7.35744L125.188 8.25834L127.443 9.15924L115.037 18.1682L68.7967 18.4685L66.541 9.15924Z" fill="#CCCCCC" stroke="black" stroke-width="0.823024"/>
<path d="M19.1729 8.70903L20.3007 7.95828L23.6841 7.35768L29.3232 7.05738L36.0901 6.90723L42.8571 7.05738L48.4962 7.35768L51.8796 7.95828L53.0074 8.70903L57.5187 18.4688L33.8345 18.1685L19.1729 8.70903Z" fill="#CCCCCC" stroke="black" stroke-width="0.823024"/>
<path d="M73.3086 12.6126L77.8199 11.1111L90.2259 10.3604L101.504 11.1111L107.143 12.6126L101.504 14.2643L90.2259 14.8649L77.8199 14.2643L73.3086 12.6126Z" fill="#E5E5E5"/>
<path d="M30.4512 12.6131L33.8346 11.562L40.6015 11.2617L48.4963 11.562L51.8797 12.6131L48.4963 13.6641L40.6015 14.1146L33.8346 13.6641L30.4512 12.6131Z" fill="#E5E5E5"/>
<path d="M77.8193 12.7627L81.2028 11.8618L86.8419 11.5615L93.6088 11.8618L95.8644 12.7627L93.6088 13.5135L86.8419 13.9639L81.2028 13.5135L77.8193 12.7627Z" fill="white"/>
<path d="M37.2178 12.7625L38.3456 12.1619L42.8569 12.0117L46.2403 12.1619L48.496 12.7625L46.2403 13.2129L42.8569 13.5132L38.3456 13.2129L37.2178 12.7625Z" fill="white"/>
<path d="M68.7969 1.50195H80.0751" stroke="black" stroke-width="0.823024"/>
</svg>
