<svg width="150" height="150" viewBox="0 0 150 150" fill="none" xmlns="http://www.w3.org/2000/svg">
<g clip-path="url(#clip0_2109_208495)">
<path d="M150 37.5H0V0H130.931L150 36.6346V37.5Z" fill="white"/>
<path d="M150 37.5V75H139.94V71.8269L138.438 66.6346L135.886 64.9038L132.883 66.6346L131.381 71.8269V75H0V37.5H150Z" fill="white"/>
<path d="M150 75V111.635L149.55 112.212H0V75H131.381V77.8846L132.883 81.9231L135.886 83.9423L138.438 81.9231L139.94 77.8846V75H150Z" fill="white"/>
<path d="M149.55 112.211L130.931 149.999H0V112.211H149.55Z" fill="white"/>
<path d="M135.885 64.9062L132.882 66.637L131.381 71.8293V77.887L132.882 81.9255L135.885 83.9447L138.438 81.9255L139.939 77.887V71.8293L138.438 66.637L135.885 64.9062Z" stroke="black" stroke-width="0.416233"/>
<path d="M0 0H130.931L150 36.6346V111.635L130.931 150H0V0Z" stroke="black" stroke-width="0.416233"/>
<path d="M135.886 55.9609L131.382 57.9802L128.379 62.884L126.427 70.9609V79.0379L128.379 85.6725L131.382 91.7302L135.886 92.884L139.94 91.7302L142.943 85.6725L144.745 79.0379V70.9609L142.943 62.884L139.94 57.9802L135.886 55.9609Z" stroke="black" stroke-width="0.416233"/>
<path d="M150 75H140.391" stroke="black" stroke-width="0.416233"/>
<path d="M144.745 75H144.895" stroke="black" stroke-width="0.416233"/>
</g>
<defs>
<clipPath id="clip0_2109_208495">
<rect width="150" height="150" fill="white"/>
</clipPath>
</defs>
</svg>
