<svg width="150" height="150" viewBox="0 0 150 150" fill="none" xmlns="http://www.w3.org/2000/svg">
<g clip-path="url(#clip0_2109_208765)">
<path d="M61.1111 105.828L56.006 107.669L51.0511 108.819L45.4955 109.279L39.9399 109.049L34.5345 108.129L29.5796 106.058L25.6757 102.607L23.4234 99.3865L23.7237 92.7147L25.5255 89.2638L21.4715 91.3344L16.6667 92.2546L11.8619 91.3344L7.95796 89.2638L4.5045 85.3528L2.1021 80.2914L1.65165 73.3896L4.35435 67.8681L7.80781 64.6472L11.4114 62.8067L6.60661 61.8865L2.7027 59.3558L0 53.1442V51.5337V49.4632L1.65165 42.5614L4.5045 37.2699L8.10811 34.2791L12.3123 33.3589L16.6667 34.5092L19.8198 36.1196L16.5165 31.0583L14.7147 24.8466L15.7658 18.1748L19.5195 12.8834L23.5736 9.43252L28.2282 6.67178L32.8829 4.83129L37.5375 3.68098L42.1922 3.22086L47.2973 3.68098L51.3514 5.06135L55.5556 8.28221L58.7087 13.3436L59.009 14.4939L60.8108 8.28221L64.4144 3.91104L69.3694 1.38037L73.8739 0.230061L78.5285 0H80.03H81.5315L86.1862 0.230061L91.7417 1.15031L96.0961 2.30061L100.601 4.37117L104.805 6.67178L108.559 10.5828L109.459 16.7945L107.207 21.6258L112.012 19.3252L117.117 18.4049H122.222L127.327 19.7853L132.132 22.0859L136.787 25.5368L140.991 29.908L144.595 35.4294L146.396 41.6411L145.195 48.3129L140.841 51.9939L139.64 52.6841L144.144 53.8344L148.048 57.0552L149.85 62.8067V63.9571V65.3374L148.048 72.4693L145.345 77.9908L141.892 82.8221L137.838 86.7331L133.784 89.2638L129.129 90.4141L124.324 89.2638L123.273 95.2454L120.27 100.077L116.066 103.528L110.961 105.828L106.757 107.209L101.351 108.129L96.2462 108.589L91.4414 108.819L86.9369 108.359L82.4324 107.439L78.0781 106.058L73.8739 103.988L71.6216 102.147H71.4715L69.2192 108.129L66.5165 113.65L63.8138 119.172L60.8108 124.233L57.6577 129.064L54.3544 133.666L50.9009 138.267L47.4474 142.638L43.8438 146.779L42.042 148.85L41.1411 150L41.8919 148.85L45.1952 143.328L48.4985 137.577L51.8018 131.825L54.8048 126.074L57.6577 120.092L60.3604 113.65L62.1622 107.669L62.6126 105.138L61.1111 105.828Z" fill="#00FFFF" stroke="black" stroke-width="0.371719"/>
</g>
<defs>
<clipPath id="clip0_2109_208765">
<rect width="150" height="150" fill="white"/>
</clipPath>
</defs>
</svg>
