<svg width="150" height="150" viewBox="0 0 150 150" fill="none" xmlns="http://www.w3.org/2000/svg">
<g clip-path="url(#clip0_2109_208742)">
<path d="M20.3478 22.9565L26.087 17.4783L32.3478 13.0435L35.4783 10.9565L38.8696 9.13043L45.3913 5.73913L52.4348 3.3913L59.2174 1.56522L66.2609 0.521739L73.5652 0L80.6087 0.521739L87.913 1.56522L94.9565 3.3913L101.739 5.73913L108.522 9.13043L111.913 10.9565L115.043 13.0435L121.304 17.4783L127.304 22.9565L132.522 28.6957L137.217 34.9565L139.304 38.087L141.13 41.4783L142.696 44.8696L143.478 46.4348L144.261 48.2609L146.87 55.0435L148.696 62.087L149.739 69.1304L150 76.4348L149.739 83.4783L148.696 90.5217L146.87 97.5652L144.261 104.348L143.478 106.174L142.696 107.739L141.13 111.13L139.304 114.522L137.217 117.652L132.522 123.913L127.304 129.652L124.435 132L121.304 134.348L115.043 138.522L108.522 142.174L101.739 145.043L94.9565 147.13L87.913 148.696L80.6087 149.739L73.5652 150L66.2609 149.739L59.2174 148.696L55.8261 147.913L52.4348 147.13L45.3913 145.043L38.8696 142.174L32.3478 138.522L26.087 134.348L23.2174 132L20.3478 129.652L15.6522 123.913L11.4783 117.652L7.82609 111.13L5.21739 104.348L3.91304 100.957L2.86957 97.5652L1.30435 90.5217L0.26087 83.4783L0 76.4348L0.26087 69.1304L1.30435 62.087L2.86957 55.0435L3.91304 51.6522L5.21739 48.2609L7.82609 41.4783L11.4783 34.9565L15.6522 28.6957L20.3478 22.9565Z" fill="#00FFFF"/>
<path d="M20.3477 22.9565L26.0868 17.4783L32.3477 13.0435L35.4781 10.9565L38.8694 9.13043L45.3911 5.73913L52.4346 3.3913L59.2172 1.56522L66.2607 0.521739L73.565 0L80.6085 0.521739L87.9129 1.56522L94.9564 3.3913L101.739 5.73913L108.522 9.13043L111.913 10.9565L115.043 13.0435L121.304 17.4783L127.304 22.9565" stroke="black" stroke-width="0.521739"/>
<path d="M127.305 22.9531L132.522 28.6923L137.218 34.9531L139.305 38.0836L141.131 41.4749L142.696 44.8662L143.479 46.4314L144.261 48.2575L146.87 55.0401L148.696 62.0836L149.739 69.127L150 76.4314L149.739 83.4749L148.696 90.5183L146.87 97.5618L144.261 104.344L143.479 106.171L142.696 107.736L141.131 111.127L139.305 114.518L137.218 117.649L132.522 123.91L127.305 129.649" stroke="black" stroke-width="0.521739"/>
<path d="M127.304 129.648L124.435 131.996L121.304 134.344L115.043 138.518L108.522 142.17L101.739 145.04L94.9564 147.127L87.9129 148.692L80.6085 149.735L73.565 149.996L66.2607 149.735L59.2172 148.692L55.8259 147.909L52.4346 147.127L45.3911 145.04L38.8694 142.17L32.3477 138.518L26.0868 134.344L23.2172 131.996L20.3477 129.648" stroke="black" stroke-width="0.521739"/>
<path d="M20.3478 129.649L15.6522 123.91L11.4783 117.649L7.82609 111.127L5.21739 104.344L3.91304 100.953L2.86957 97.5618L1.30435 90.5183L0.26087 83.4749L0 76.4314L0.26087 69.127L1.30435 62.0836L2.86957 55.0401L3.91304 51.6488L5.21739 48.2575L7.82609 41.4749L11.4783 34.9531L15.6522 28.6923L20.3478 22.9531" stroke="black" stroke-width="0.521739"/>
<path d="M20.3477 22.9531L127.304 129.649" stroke="black" stroke-width="0.521739"/>
<path d="M23.4785 129.649L127.305 22.9531" stroke="black" stroke-width="0.521739"/>
</g>
<defs>
<clipPath id="clip0_2109_208742">
<rect width="150" height="150" fill="white"/>
</clipPath>
</defs>
</svg>
