<svg width="150" height="150" viewBox="0 0 150 150" fill="none" xmlns="http://www.w3.org/2000/svg">
<g clip-path="url(#clip0_2109_209117)">
<path d="M0 0H5.75726L41.5456 150H35.4772L0 0Z" fill="black" stroke="black" stroke-width="0.305703"/>
<path d="M9.80273 0.148438H128.994L150 93.0914H31.8982L9.80273 0.148438Z" fill="white" stroke="black" stroke-width="0.305703"/>
<path d="M27.2305 0.453125H43.8798L47.4587 15.9186H30.8093L27.2305 0.453125Z" fill="black" stroke="black" stroke-width="0.305703"/>
<path d="M13.8486 16.3672H30.498L34.0768 31.5324H17.4275L13.8486 16.3672Z" fill="black" stroke="black" stroke-width="0.305703"/>
<path d="M47.6143 16.0625H64.4192L67.8425 31.3778H51.1931L47.6143 16.0625Z" fill="black" stroke="black" stroke-width="0.305703"/>
<path d="M61.1514 0.453125H77.6451L81.224 15.9186H64.7302L61.1514 0.453125Z" fill="black" stroke="black" stroke-width="0.305703"/>
<path d="M81.6904 16.0625H98.3398L101.763 31.3778H85.1137L81.6904 16.0625Z" fill="black" stroke="black" stroke-width="0.305703"/>
<path d="M95.0723 0.453125H111.566L115.145 15.9186H98.4955L95.0723 0.453125Z" fill="black" stroke="black" stroke-width="0.305703"/>
<path d="M115.923 15.9141H132.417L135.84 31.3795H119.346L115.923 15.9141Z" fill="black" stroke="black" stroke-width="0.305703"/>
<path d="M102.23 31.2344H118.88L122.459 46.5497H105.654L102.23 31.2344Z" fill="black" stroke="black" stroke-width="0.305703"/>
<path d="M68.3096 31.2344H84.8033L88.3822 46.5497H71.7328L68.3096 31.2344Z" fill="black" stroke="black" stroke-width="0.305703"/>
<path d="M34.0771 31.2344H50.7265L54.3054 46.5497H37.656L34.0771 31.2344Z" fill="black" stroke="black" stroke-width="0.305703"/>
<path d="M20.6953 46.3984H37.8115L41.5459 61.7138H24.4298L20.6953 46.3984Z" fill="black" stroke="black" stroke-width="0.305703"/>
<path d="M54.7715 46.3984H71.4209L74.9997 61.7138H58.3503L54.7715 46.3984Z" fill="black" stroke="black" stroke-width="0.305703"/>
<path d="M89.0039 46.3984H105.498L108.921 61.7138H92.4271L89.0039 46.3984Z" fill="black" stroke="black" stroke-width="0.305703"/>
<path d="M122.614 46.3984H139.264L142.687 61.7138H126.193L122.614 46.3984Z" fill="black" stroke="black" stroke-width="0.305703"/>
<path d="M109.544 61.7109H126.193L129.772 77.3266H113.123L109.544 61.7109Z" fill="black" stroke="black" stroke-width="0.305703"/>
<path d="M75.4668 61.7109H91.9606L95.5394 77.3266H78.89L75.4668 61.7109Z" fill="black" stroke="black" stroke-width="0.305703"/>
<path d="M41.5459 61.7109H58.3509L61.7741 77.3266H45.1247L41.5459 61.7109Z" fill="black" stroke="black" stroke-width="0.305703"/>
<path d="M28.4746 77.3281H45.124L48.5472 92.7936H31.8978L28.4746 77.3281Z" fill="black" stroke="black" stroke-width="0.305703"/>
<path d="M62.2402 77.3281H78.8896L82.3128 92.7936H65.6635L62.2402 77.3281Z" fill="black" stroke="black" stroke-width="0.305703"/>
<path d="M96.1621 77.3281H112.656L116.079 92.7936H99.5853L96.1621 77.3281Z" fill="black" stroke="black" stroke-width="0.305703"/>
<path d="M129.928 77.4766H146.577L149.845 92.7919H133.351L129.928 77.4766Z" fill="black" stroke="black" stroke-width="0.305703"/>
</g>
<defs>
<clipPath id="clip0_2109_209117">
<rect width="150" height="150" fill="white"/>
</clipPath>
</defs>
</svg>
