<svg width="150" height="150" viewBox="0 0 150 150" fill="none" xmlns="http://www.w3.org/2000/svg">
<g clip-path="url(#clip0_2109_208794)">
<path d="M141.742 32.6425H7.95796H7.50751H6.90691L2.85285 30.3109L0.15015 21.3731L0 18.2642V16.3212V14.7668L1.65165 4.27461L5.55556 0.388601L6.90691 0H7.50751H7.95796H142.042L146.396 1.5544L149.399 9.71503L149.85 14.7668L150 16.7098L149.85 18.2642L148.048 28.3679L144.144 32.2539L141.592 32.6425H141.742Z" fill="#00FFFF" stroke="black" stroke-width="0.483109"/>
<path d="M141.742 150H7.95796H7.50751H6.90691L2.85285 147.28L0.15015 138.73L0 135.233V133.29V131.736L1.65165 122.021L5.55556 117.357L6.90691 116.969H7.50751H7.95796H142.042L146.396 118.912L149.399 127.072L149.85 131.736L150 133.29L149.85 135.233L148.048 145.337L144.144 149.611L141.592 150H141.742Z" fill="#00FFFF" stroke="black" stroke-width="0.483109"/>
</g>
<defs>
<clipPath id="clip0_2109_208794">
<rect width="150" height="150" fill="white"/>
</clipPath>
</defs>
</svg>
