<svg width="150" height="150" viewBox="0 0 150 150" fill="none" xmlns="http://www.w3.org/2000/svg">
<g clip-path="url(#clip0_2109_208867)">
<path d="M43.8438 122.537H83.1831L88.1381 121.845L93.093 119.999L97.7477 116.537L101.802 111.691L104.805 105.46L105.556 102.922H107.808V125.537V142.614H105.706L103.604 137.306L99.8498 131.768L95.6456 128.999L90.9909 127.614L86.1861 127.383H43.8438L43.3933 129.691H42.042V120.23H43.2432L43.8438 122.537Z" fill="#FFFF00" stroke="black" stroke-width="0.37229"/>
<path d="M43.8438 123.231V124.385H87.6876L92.6425 124.154L97.7477 123.231L102.102 120.924L104.655 117.924L104.805 131.078V131.77L104.955 132.462L105.405 132.924H105.706L106.156 132.693L106.456 131.539L106.306 107.539H105.255L103.003 113.539L99.8498 118.385L95.9459 121.616L91.141 123.001L43.8438 123.231Z" fill="white" stroke="#FFFF00" stroke-width="0.37229"/>
<path d="M43.8438 125.766H94.7447L43.8438 126.227V125.766Z" fill="white"/>
<path d="M77.7779 145.618L83.0331 145.388L84.6848 145.157L86.0361 143.772L86.7869 141.926L86.937 139.388V135.234L86.6367 132.926L85.886 131.08L84.6848 129.926L82.883 129.465L62.0121 129.234L60.3604 129.926L59.1592 131.08L58.5586 132.926L58.4085 135.234V139.849L58.7088 142.388L59.91 144.465L60.2103 144.926L61.8619 145.388H62.3124L77.7779 145.618V148.618L61.8619 148.388L60.3604 147.926L59.1592 147.003L57.958 145.388L57.2073 143.541L56.7568 141.234V140.311V134.541V134.311L56.907 132.234L57.6577 130.157L58.5586 128.311L59.7598 127.157L60.8109 126.695H61.2613H61.8619H83.6337L85.1352 126.926L86.6367 128.08L87.6878 129.465L88.4385 131.541L88.889 133.849V134.541V140.311V140.772L88.4385 143.541L87.6878 145.388L86.6367 147.003L85.2854 148.157L83.7839 148.388L77.7779 148.618V145.618Z" fill="#FFFF00"/>
<path d="M77.7779 145.618L83.0331 145.388L84.6848 145.157L86.0361 143.772L86.7869 141.926L86.937 139.388V135.234L86.6367 132.926L85.886 131.08L84.6848 129.926L82.883 129.465L62.0121 129.234L60.3604 129.926L59.1592 131.08L58.5586 132.926L58.4085 135.234V139.849L58.7088 142.388L59.91 144.465L60.2103 144.926L61.8619 145.388H62.3124L77.7779 145.618ZM77.7779 145.618V148.618M77.7779 148.618L61.8619 148.388L60.3604 147.926L59.1592 147.003L57.958 145.388L57.2073 143.541L56.7568 141.234V140.311V134.541V134.311L56.907 132.234L57.6577 130.157L58.5586 128.311L59.7598 127.157L60.8109 126.695H61.2613H61.8619H83.6337L85.1352 126.926L86.6367 128.08L87.6878 129.465L88.4385 131.541L88.889 133.849V134.541V140.311V140.772L88.4385 143.541L87.6878 145.388L86.6367 147.003L85.2854 148.157L83.7839 148.388L77.7779 148.618Z" stroke="black" stroke-width="0.37229"/>
<path d="M66.2161 118.617H68.4683L68.9188 118.848L69.0689 119.309V148.848V149.54L68.6185 149.771H66.3662L66.0659 149.54L65.9158 149.079L65.7656 119.54L65.9158 118.848H66.2161V118.617Z" fill="#FFFF00" stroke="black" stroke-width="0.37229"/>
<path d="M71.3215 118.617H73.7239L74.0242 118.848L74.1744 119.309L74.3245 149.079L74.1744 149.54L73.7239 149.771H71.4717L71.1714 149.54L71.0212 149.079L70.8711 119.309L71.0212 118.848H71.3215V118.617Z" fill="#FFFF00" stroke="black" stroke-width="0.37229"/>
<path d="M76.1262 118.844H78.5286L78.8289 119.075L78.9791 119.536V149.075V149.536L78.5286 149.998L76.2764 149.767H75.9761L75.6758 149.305V119.536L75.8259 118.844H76.1262Z" fill="#FFFF00" stroke="black" stroke-width="0.37229"/>
<path d="M66.667 118.615H68.1685V117H66.667V118.615Z" fill="black" stroke="black" stroke-width="0.37229"/>
<path d="M71.6221 118.615H73.2737V117H71.6221V118.615Z" fill="black" stroke="black" stroke-width="0.37229"/>
<path d="M76.2764 118.619L77.928 118.85V117.234H76.2764V118.619Z" fill="black" stroke="black" stroke-width="0.37229"/>
<path d="M65.165 115.383H69.6695L69.8197 116.998L65.165 117.229V115.383Z" fill="#FFFF00" stroke="black" stroke-width="0.37229"/>
<path d="M70.2703 115.156H74.7748V117.002H70.1201L70.2703 115.156Z" fill="#FFFF00" stroke="black" stroke-width="0.37229"/>
<path d="M74.9248 115.383H79.4293V117.229L74.9248 116.998V115.383Z" fill="#FFFF00" stroke="black" stroke-width="0.37229"/>
<path d="M12.7628 52.8462L3.15315 33L16.967 37.1538L14.5646 7.61538L27.9279 28.1538L36.6366 12L44.4444 28.1538L52.7027 16.8462L56.3063 32.3077L66.967 0L70.5706 31.6154L80.6306 10.6154L86.6366 29.5385L93.994 18.9231L98.048 30.2308L107.658 12L110.06 32.3077L130.18 6.92308L125.075 33.6923L139.339 30.9231L137.237 42.2308L150 42.9231L139.339 57.6923L147.447 68.0769L136.787 73.1538L144.595 94.1538L124.474 83.0769L122.673 99.2308L109.309 81.4615L103.754 91.3846L93.0931 83.0769L90.5405 102.692L75.0751 81.6923L66.967 94.3846L60.961 79.3846L50.4505 95.7692L49.6997 85.1538L31.5315 109.154L33.6336 83.0769L24.9249 92.7692L24.024 81.4615L3.45345 106.154L13.6637 73.8462L8.10811 73.1538L13.2132 64.1538L0 61.1538L12.7628 52.8462Z" fill="#FF0000" stroke="black" stroke-width="0.37229"/>
<path d="M124.324 59.5409V43.1562H128.378V59.5409H124.324Z" fill="white"/>
<path d="M126.126 67.845C127.37 67.845 128.379 66.2952 128.379 64.3834C128.379 62.4717 127.37 60.9219 126.126 60.9219C124.882 60.9219 123.874 62.4717 123.874 64.3834C123.874 66.2952 124.882 67.845 126.126 67.845Z" fill="white"/>
<path d="M116.516 67.6118V50.3041H114.414V44.7656H123.123V50.3041H120.72V67.6118H116.516Z" fill="white"/>
<path d="M102.402 67.6118V44.7656H106.156L109.459 59.0733L108.859 51.9195V44.7656H112.763V67.6118H109.009L105.856 54.4579L106.156 60.6887V67.6118H102.402Z" fill="white"/>
<path d="M89.4893 67.6118L93.243 44.7656H98.0478L101.351 67.6118H97.1469L96.6965 64.6118H94.1439L93.8436 67.6118H89.4893Z" fill="white"/>
<path d="M83.7835 67.6118V50.3041H81.5312V44.7656H90.24V50.3041H87.9877V67.6118H83.7835Z" fill="white"/>
<path d="M70.7207 67.6118V44.7656H74.9249L76.2763 44.9964L78.0781 45.6887L79.4294 46.8425L80.1802 48.4579L80.7808 50.5349V53.0733L80.4805 55.1502L79.4294 57.2272L78.3784 58.1502L81.2312 67.6118H76.8769L74.7748 58.381V67.6118H70.7207Z" fill="white"/>
<path d="M63.0634 68.0775C66.1316 68.0775 68.6189 62.8083 68.6189 56.3083C68.6189 49.8083 66.1316 44.5391 63.0634 44.5391C59.9951 44.5391 57.5078 49.8083 57.5078 56.3083C57.5078 62.8083 59.9951 68.0775 63.0634 68.0775Z" fill="white"/>
<path d="M46.6963 67.6118V44.7656H50.7503L52.7023 44.9964L54.2038 45.9195L55.405 47.3041L56.3059 49.381L56.6062 52.6118L56.456 55.1502L56.0056 57.2272L55.1047 58.8425L53.453 59.7656L52.1017 60.2272H50.7503V67.6118H46.6963Z" fill="white"/>
<path d="M29.5791 67.6118L31.2308 44.7656H36.3359L37.3869 56.9964L38.8884 44.7656H43.8434L45.3449 67.6118H40.9905L40.6902 53.5349L39.0386 67.6118H35.7353L34.3839 53.3041L33.7833 67.6118H29.5791Z" fill="white"/>
<path d="M23.874 67.6118V44.7656H27.9281V67.6118H23.874Z" fill="white"/>
<path d="M94.5947 59.7662H96.2464L95.4956 50.3047L94.5947 59.7662Z" fill="#FF0000"/>
<path d="M74.7744 55.3864H74.9246H75.375L75.6753 55.1556L75.9756 54.9249L76.2759 54.4633L76.4261 54.0018L76.5762 53.5403L76.7264 53.0787V52.3864V51.9249L76.5762 51.2326L76.4261 50.771L76.1258 50.3095L75.8255 50.0787L75.5252 49.848L74.7744 49.6172V55.3864Z" fill="#FF0000"/>
<path d="M63.2132 62.3047C64.1254 62.3047 64.8648 59.6184 64.8648 56.3047C64.8648 52.991 64.1254 50.3047 63.2132 50.3047C62.301 50.3047 61.5615 52.991 61.5615 56.3047C61.5615 59.6184 62.301 62.3047 63.2132 62.3047Z" fill="#FF0000"/>
<path d="M51.6519 55.1556C52.1494 55.1556 52.5528 53.9158 52.5528 52.3864C52.5528 50.857 52.1494 49.6172 51.6519 49.6172C51.1543 49.6172 50.751 50.857 50.751 52.3864C50.751 53.9158 51.1543 55.1556 51.6519 55.1556Z" fill="#FF0000"/>
</g>
<defs>
<clipPath id="clip0_2109_208867">
<rect width="150" height="150" fill="white"/>
</clipPath>
</defs>
</svg>
