<svg width="150" height="150" viewBox="0 0 150 150" fill="none" xmlns="http://www.w3.org/2000/svg">
<g clip-path="url(#clip0_2109_209143)">
<path d="M150 88.2847L149.657 82.2787L148.63 76.573L147.089 70.8673L145.034 65.4619L142.294 60.2066L139.041 55.2517L135.274 50.597L131.164 46.3928L126.541 42.4889L121.575 38.8853L116.096 35.7321L110.445 32.8793L104.452 30.7772L98.2875 28.9754L91.7806 27.7742L85.1026 27.0234V27.1736L80.6505 30.1766L75.5135 29.7261L72.0889 27.1736L66.2669 27.9243L60.445 28.9754L54.7943 30.627L49.4861 32.579L44.3491 34.8312L39.3834 37.6841L34.9313 40.6871L30.993 44.1406L31.8491 45.6421V47.1436L29.1094 51.0475L22.6026 52.6991L19.5204 56.4529L16.9519 60.5069L14.7259 64.7111L12.8423 69.0655L11.4724 73.7201L10.445 78.5249L9.7601 83.4799L9.58887 88.2847L9.93133 94.591L11.13 100.747L12.8423 106.603L15.0683 112.309L18.1505 117.714L21.5752 122.819L25.6848 127.474L30.1368 131.828L35.2738 135.882L40.582 139.336L46.4039 142.489L52.5683 145.041L58.9039 147.144L65.582 148.645L72.6026 149.546L79.7943 149.996L86.9861 149.546L94.0067 148.645L100.685 147.144L107.192 145.041L113.356 142.489L119.007 139.336L124.486 135.882L129.452 131.828L133.904 127.474L138.014 122.819L141.609 117.714L144.52 112.309L146.918 106.603L148.63 100.747L149.657 94.591L150 88.2847Z" fill="#F0F0F0" stroke="black" stroke-width="0.320691"/>
<path d="M79.7941 144.893C115.447 144.893 144.349 119.549 144.349 88.2863C144.349 57.0233 115.447 31.6797 79.7941 31.6797C44.1414 31.6797 15.2393 57.0233 15.2393 88.2863C15.2393 119.549 44.1414 144.893 79.7941 144.893Z" fill="white" stroke="black" stroke-width="0.320691"/>
<path d="M79.7946 143.994C114.785 143.994 143.151 119.121 143.151 88.4384C143.151 57.7559 114.785 32.8828 79.7946 32.8828C44.804 32.8828 16.4385 57.7559 16.4385 88.4384C16.4385 119.121 44.804 143.994 79.7946 143.994Z" fill="#F0F0F0" stroke="black" stroke-width="0.320691"/>
<path d="M79.7949 136.938C110.435 136.938 135.274 115.157 135.274 88.2893C135.274 61.4214 110.435 39.6406 79.7949 39.6406C49.1544 39.6406 24.3154 61.4214 24.3154 88.2893C24.3154 115.157 49.1544 136.938 79.7949 136.938Z" fill="white" stroke="black" stroke-width="0.320691"/>
<path d="M85.1031 14.8649V13.6637L84.4181 12.6126L83.0483 11.8619L80.9935 11.4114L78.5962 11.2613L76.199 11.4114L74.1442 11.7117L72.6031 12.4625L72.2606 12.9129L72.0894 14.8649L70.8907 14.5646L69.1784 12.9129L68.8359 12.3123V4.35435L69.6921 2.25225L70.7195 1.65165L71.9181 0.900901L73.8017 0.45045L76.0277 0H79.1099L82.0209 0.15015L84.2469 0.45045L85.9592 1.05105L88.014 2.55255L88.699 3.75375V11.8619L88.1853 13.2132L86.9866 14.1141L85.1031 14.8649Z" fill="#F0F0F0" stroke="black" stroke-width="0.320691"/>
<path d="M72.0889 27.1737V14.8614L72.2601 12.9095L74.1437 11.7083L76.1985 11.408L78.5957 11.2578L80.993 11.408L83.0478 11.8584L84.5889 12.6092L85.1026 13.6602V27.0236V27.3239L83.7327 28.5251L82.1916 29.5761L80.6505 30.1767L78.9382 30.477L77.2259 30.3269L75.5135 29.7263L73.63 28.6752L72.0889 27.1737Z" fill="#F0F0F0" stroke="black" stroke-width="0.320691"/>
<path d="M83.7324 28.2267V12.4609L84.4174 12.9114L84.9311 13.6621V14.1126V27.1757L84.7598 27.3258L84.2461 27.7763L83.9037 28.0766L83.7324 28.2267Z" fill="black" stroke="black" stroke-width="0.320691"/>
<path d="M87.5 10.8103L88.0137 11.2607L88.5274 11.8613V12.1616L88.6986 12.4619V3.75321L88.5274 3.00246L88.1849 2.55201L87.6712 2.10156H87.5V10.8103Z" fill="black" stroke="black" stroke-width="0.320691"/>
<path d="M79.9661 131.079L80.3086 130.178L81.336 128.076L82.7058 125.223L83.9044 121.77L84.7606 118.617L84.9318 116.064L83.9044 114.563H81.5072L81.336 92.6406H79.7949H78.0825L78.2538 114.563H75.8565L74.8291 116.064L75.0003 118.617L75.8565 121.92L77.0551 125.223L78.425 128.076L79.4524 130.178L79.9661 131.079Z" fill="#F0F0F0"/>
<path d="M67.2943 129.583L67.9793 128.982L69.6916 127.03L71.7464 124.478L73.9724 121.625L75.6847 118.772L76.5409 116.219L76.0272 114.568L73.6299 114.117L79.9656 92.9461L78.4245 92.4956L76.8834 92.1953L70.5478 113.366L68.1505 112.766L66.7806 113.967L66.0957 116.52V119.823L66.2669 123.276L66.7806 126.43L67.1231 128.682L67.2943 129.583Z" fill="#F0F0F0"/>
<path d="M55.6504 125.379L57.3627 124.178L58.5613 123.427L59.9312 122.526L61.3011 121.475L62.8422 120.274L64.3833 119.223L65.7531 117.872L66.9518 116.821L67.8079 115.619L68.6641 113.668L68.4929 112.767L67.6367 112.166L66.2668 111.866L78.7668 92.7967L77.2257 92.0459L75.8559 91.4453L63.5271 110.364L61.4723 109.313L59.5887 110.214L58.2189 112.466L57.1915 115.619L56.5066 119.073L55.9929 122.076L55.6504 124.478V125.379Z" fill="#F0F0F0"/>
<path d="M45.5479 118.619L47.6026 117.868L48.9725 117.418L50.5136 116.817L52.2259 116.216L54.1095 115.466L55.8218 114.565L57.5342 113.814L58.904 112.913L60.2739 112.012L61.6437 110.361V109.46L61.13 108.709L59.9314 107.958L77.3972 92.4927L76.3698 91.4417L75.1711 90.3906L57.5342 106.006L55.8218 104.505L53.9383 104.955L51.8835 106.757L49.9999 109.61L48.2876 112.763L46.9177 115.616L45.8903 117.718L45.5479 118.619Z" fill="#E0E0E0"/>
<path d="M37.8428 109.756H38.014L39.8976 109.606L41.4387 109.456L43.151 109.306L45.0346 109.006L46.9181 108.705L48.9729 108.255L50.6852 107.804L52.3976 107.354L53.9387 106.753L55.8222 105.402L55.9935 104.651L55.651 103.75L54.7948 102.849L76.3702 91.7383L75.514 90.5371L74.6578 89.3359L53.0825 100.297L51.8839 98.4951H50.0003L47.4318 99.8464L44.8633 102.099L42.1236 104.801L39.8976 107.204L38.3565 109.156L37.8428 109.756Z" fill="#E0E0E0"/>
<path d="M32.877 99.552L35.103 99.8523L36.4728 100.002L38.1852 100.153L40.0687 100.453H42.1235L44.0071 100.603H46.0619L47.7742 100.453L49.3153 100.303L51.5413 99.4019L52.055 98.6511L51.8838 97.7502L51.3701 96.549L75.5139 90.8433L75.0002 89.492L74.4865 88.1406L50.5139 93.8463L50.3427 92.6451L50.0002 91.8944L49.1441 91.4439L46.7468 91.5941L45.2057 92.1947L43.6646 92.7953L41.9523 93.6962L40.24 94.5971L38.5276 95.6481L37.1578 96.549L35.7879 97.6001L33.7331 98.9514L32.877 99.552Z" fill="#E0E0E0"/>
<path d="M31.1641 88.5904L33.2189 89.3412L34.5887 89.7916L36.1298 90.3922L38.0134 90.9928L39.7257 91.5934L41.7805 92.0439L43.6641 92.4943L45.3764 92.7946L46.9175 92.9448L49.3147 92.4943L49.9997 92.0439L50.1709 91.143L49.9997 89.7916H74.8284V86.9388L49.9997 87.0889L50.1709 85.8877L49.9997 84.9868L49.3147 84.3862L46.9175 84.0859L45.3764 84.2361L43.4928 84.5364L41.6093 84.9868L39.7257 85.4373L38.0134 86.0379L36.1298 86.6385L34.5887 87.2391L32.1915 88.14L31.1641 88.5904Z" fill="#C0C0C0"/>
<path d="M32.877 77.4746L34.418 78.6758L35.6167 79.4266L36.9865 80.3275L38.5276 81.3785L40.24 82.2794L41.9523 83.1803L43.4934 84.0812L45.2057 84.832L46.5756 85.2824L49.1441 85.4326L50.0002 85.1323L50.3427 84.2314L50.5139 83.0302L74.6578 88.5857L75.0002 87.2344L75.3427 85.883L51.1989 80.3275L51.8838 79.1263V78.2254L51.3701 77.4746L49.3153 76.5737L47.7742 76.4236L45.8907 76.2734L44.0071 76.4236H41.9523L40.0687 76.5737L38.1852 76.7239L36.4728 77.0242L33.7331 77.3245L32.877 77.4746Z" fill="#C0C0C0"/>
<path d="M37.6709 67.2656L38.1846 67.8662L39.7257 69.8182L42.123 72.2206L44.6914 74.9233L47.4312 77.0254L49.9997 78.3767H51.8832L53.0819 76.5749L74.6572 87.3857L75.5134 86.1845L76.3695 84.9833L54.623 74.1725L55.6504 73.1215L55.9928 72.2206L55.6504 71.4698L53.7668 70.1185L52.2257 69.5179L50.5134 69.0674L48.801 68.617L46.7462 68.3167L44.8627 68.0164L42.9791 67.7161L41.2668 67.5659L38.6983 67.2656H38.0134H37.6709Z" fill="#C0C0C0"/>
<path d="M45.377 58.4062L45.7194 59.157L46.5756 61.2591L48.1167 64.2621L49.829 67.2651L51.8838 70.118L53.7674 71.9198L55.8222 72.3702L57.3633 70.8687L75.1715 86.3342L76.3701 85.2831L77.3975 84.2321L59.7605 68.9168L60.9591 68.166L61.4728 67.4153V66.5144L59.9317 64.8627L58.7331 63.9618L57.192 63.0609L55.6509 62.3102L53.7674 61.4093L52.055 60.8087L50.3427 60.0579L48.8016 59.4573L46.2331 58.5564L45.377 58.4062Z" fill="#A1A1A1"/>
<path d="M55.3086 51.5L55.4798 52.4009L55.8223 54.8033L56.336 57.8063L57.0209 61.2598L58.2196 64.4129L59.5894 66.6652L61.3017 67.5661L63.3565 66.515L76.0278 85.2838L77.3976 84.6832L78.7675 83.9324L66.0963 65.0135L67.4661 64.5631L68.3223 63.9625L68.4935 63.2117L67.6374 61.1096L66.61 60.0586L65.4113 58.8574L64.0415 57.6562L62.6716 56.455L61.1305 55.4039L59.5894 54.3529L58.2196 53.452L56.1648 52.1006L55.3086 51.5Z" fill="#A1A1A1"/>
<path d="M67.1234 47.2969L66.9522 48.1978L66.6097 50.45L66.096 53.6032L65.9248 57.0566L66.096 60.3599L66.781 62.9125L68.1508 64.1137L70.3769 63.5131L77.0549 84.5341L78.596 84.2338L80.1371 83.7834L73.6303 62.7623L75.8563 62.1617L76.37 60.5101L75.5138 58.1077L73.6303 55.2548L71.5755 52.2518L69.3495 49.6993L67.8084 47.8975L67.1234 47.2969Z" fill="#A1A1A1"/>
<path d="M79.623 45.7969L79.1093 46.5476L78.0819 48.6497L76.8833 51.6527L75.6846 54.956L74.8285 58.1092L74.6572 60.8119L75.6846 62.1632H78.0819L78.2531 84.0852H79.7942H81.5065L81.3353 62.1632H83.7326L84.76 60.6617L84.5887 58.1092L83.7326 54.956L82.3627 51.6527L81.1641 48.6497L79.9654 46.5476L79.623 45.7969Z" fill="black" stroke="black" stroke-width="0.320691"/>
<path d="M85.6168 88.4349L85.1031 86.3328L83.9045 84.6812L82.0209 83.6301L79.7949 83.1797L77.3976 83.6301L75.5141 84.6812L74.3155 86.483L73.8018 88.4349L74.3155 90.537L75.6853 92.1887L77.5689 93.2397L79.7949 93.54L82.0209 93.2397L83.9045 92.1887L85.1031 90.3869L85.7881 88.4349H82.3634L82.1922 89.3358L81.6785 90.0866L79.7949 90.6872L78.7675 90.537L77.9113 90.0866L77.3976 89.3358L77.0552 88.4349L77.3976 87.534L77.9113 86.7833L79.7949 86.0325L81.6785 86.7833L82.1922 87.534L82.3634 88.4349H85.6168Z" fill="black"/>
<path d="M82.3634 88.4349H85.7881L85.1031 90.3869L83.9045 92.1887L82.0209 93.2397L79.7949 93.54L77.5689 93.2397L75.6853 92.1887L74.3155 90.537L73.8018 88.4349L74.3155 86.483L75.5141 84.6812L77.3976 83.6301L79.7949 83.1797L82.0209 83.6301L83.9045 84.6812L85.1031 86.3328L85.6168 88.4349H82.3634ZM82.3634 88.4349L82.1922 89.3358L81.6785 90.0866L79.7949 90.6872L78.7675 90.537L77.9113 90.0866L77.3976 89.3358L77.0552 88.4349L77.3976 87.534L77.9113 86.7833L79.7949 86.0325L81.6785 86.7833L82.1922 87.534L82.3634 88.4349Z" stroke="black" stroke-width="0.320691"/>
<path d="M20.7192 36.1868L19.6918 35.2859L18.3219 35.1357L16.2671 35.7363L14.3836 36.9375L12.5 38.7393L11.3014 40.2408L10.6164 41.5922L10.4452 42.7934L10.7877 43.5441L11.3014 43.8444L9.07534 44.7453L7.70548 45.0456L1.0274 39.6402L0 37.8384L0.171233 35.436L0.856164 33.9345L2.22603 32.2829L4.10959 30.1808L6.16438 28.379L8.04795 27.1778L9.58904 26.427L12.1575 25.9766L13.6986 26.2769L20.7192 31.6823L21.2329 32.8835V34.385L20.7192 36.1868Z" fill="#F0F0F0" stroke="black" stroke-width="0.320691"/>
<path d="M22.6028 52.7004L11.3015 43.8415L10.959 43.5412L10.4453 42.7905L10.6165 41.5893L11.3015 40.2379L12.5001 38.7364L14.3837 36.9346L16.2672 35.7334L18.322 35.1328L19.6919 35.283L20.7193 36.1839L30.9933 44.1418L31.1645 44.292L31.8494 45.6433V46.9947L31.3357 48.6463L30.4796 49.8475L29.1097 51.1989L27.3974 52.0998L25.1713 52.7004H22.6028Z" fill="#F0F0F0" stroke="black" stroke-width="0.320691"/>
<path d="M31.6778 46.2439L17.6367 35.283L18.4929 35.1328L19.1778 35.283L19.6915 35.4331L19.8627 35.5833L31.1641 44.4421L31.5066 45.4932L31.6778 46.2439Z" fill="black" stroke="black" stroke-width="0.320691"/>
<path d="M18.836 31.8324H19.5209L20.3771 31.9826H20.7196L20.8908 32.1327L13.699 26.427L12.8429 25.9766H12.1579H11.6442H11.3018L18.836 31.8324Z" fill="black" stroke="black" stroke-width="0.320691"/>
<path d="M82.7051 28.9809V12.1641" stroke="black" stroke-width="0.320691"/>
<path d="M86.1299 9.91012V1.35156" stroke="black" stroke-width="0.320691"/>
<path d="M77.0547 9.61325V1.05469" stroke="black" stroke-width="0.320691"/>
<path d="M75.1709 9.91183V1.20312" stroke="black" stroke-width="0.320691"/>
<path d="M73.8018 9.91012V1.35156" stroke="black" stroke-width="0.320691"/>
<path d="M72.2598 10.3632V1.80469" stroke="black" stroke-width="0.320691"/>
<path d="M70.8906 10.9648V2.40625" stroke="black" stroke-width="0.320691"/>
<path d="M70.0342 11.7087V3" stroke="black" stroke-width="0.320691"/>
<path d="M69.3496 12.3086V3.75" stroke="black" stroke-width="0.320691"/>
<path d="M134.932 82.4313L136.302 81.8307L137.5 81.08L138.528 80.1791L139.384 79.2782L140.24 78.3773L140.754 77.4764L141.267 76.7256L141.61 76.125" stroke="black" stroke-width="0.320691"/>
<path d="M149.144 78.6751H148.972L148.287 78.5249H147.602L146.575 78.3748L145.548 78.2246L144.52 77.9243L143.835 77.4739L143.15 77.0234" stroke="black" stroke-width="0.320691"/>
<path d="M134.075 78.079L134.931 77.7787L135.959 77.1781L136.986 76.5775L138.014 75.6766L138.87 74.9258L139.555 74.0249L140.24 73.2742L140.411 72.5234" stroke="black" stroke-width="0.320691"/>
<path d="M133.732 76.4254L134.246 76.1251L135.102 75.6747L136.13 75.0741L137.157 74.3233L138.184 73.5726L139.041 72.6717L139.554 71.9209L139.897 71.3203" stroke="black" stroke-width="0.320691"/>
<path d="M141.952 72.8203H142.123L142.466 72.9705L142.808 73.2708L143.493 73.4209L144.349 73.5711L145.206 73.7212L146.404 73.5711L147.774 73.2708" stroke="black" stroke-width="0.320691"/>
<path d="M141.609 71.3203L142.123 71.7708L142.637 71.9209L143.322 72.0711L144.178 72.2212L145.034 72.0711L145.719 71.9209L146.404 71.7708L147.089 71.4705" stroke="black" stroke-width="0.320691"/>
<path d="M111.815 128.232H112.843L113.699 128.082H114.898L115.925 127.932L116.952 127.782L118.151 127.481L119.178 127.331L120.377 127.031L121.404 126.731L122.432 126.43L123.459 126.13L124.487 125.83L125.514 125.379L126.37 125.079L127.226 124.779L128.083 124.328" stroke="black" stroke-width="0.320691"/>
<path d="M129.966 124.327L130.993 124.477L132.021 124.627H132.877H133.904L134.932 124.477L135.617 124.327L136.473 124.027L137.158 123.727" stroke="black" stroke-width="0.320691"/>
<path d="M40.4111 139.193L41.2673 138.142L41.6098 136.64V135.139L41.4385 133.938" stroke="black" stroke-width="0.320691"/>
<path d="M42.9795 133.483H44.1781H45.548H47.2603L48.9726 133.183L50.5137 132.883L52.0548 132.432L53.2535 131.982L53.9384 131.531" stroke="black" stroke-width="0.320691"/>
<path d="M18.4932 118.621L19.6918 117.269L20.3767 115.618L20.8904 113.816L21.0617 112.164" stroke="black" stroke-width="0.320691"/>
<path d="M21.918 110.963L22.7741 111.263L23.9728 111.413L25.1714 111.563L26.37 111.713L27.5687 111.563L28.5961 111.413L29.6234 111.263L30.3084 110.812" stroke="black" stroke-width="0.320691"/>
<path d="M15.9248 113.816L17.4659 112.765L18.4933 111.564L19.1782 110.062L19.5207 108.711" stroke="black" stroke-width="0.320691"/>
<path d="M15.0684 112.011L16.4382 110.81L17.6369 109.459L18.3218 108.107L18.6642 106.906" stroke="black" stroke-width="0.320691"/>
<path d="M20.377 107.507L21.2331 107.657L22.2605 107.957H23.2879H24.4865L25.6852 107.807L26.7126 107.507L27.74 107.357L28.2537 106.906" stroke="black" stroke-width="0.320691"/>
<path d="M19.6914 105.855L20.3763 106.155L21.4037 106.305L22.6024 106.456H23.801L24.9996 106.305L26.1983 106.155L27.0544 105.855L27.5681 105.555" stroke="black" stroke-width="0.320691"/>
<path d="M79.623 39.6406V44.1451" stroke="black" stroke-width="0.320691"/>
<path d="M51.541 46.3984L54.1095 50.1522" stroke="black" stroke-width="0.320691"/>
<path d="M31.5068 64.4141L35.7877 66.6663" stroke="black" stroke-width="0.320691"/>
<path d="M24.3154 88.8906H29.2812" stroke="black" stroke-width="0.320691"/>
<path d="M32.0205 113.063L36.3013 110.961" stroke="black" stroke-width="0.320691"/>
<path d="M52.5684 130.777L54.9656 127.023" stroke="black" stroke-width="0.320691"/>
<path d="M80.3086 137.089V132.734" stroke="black" stroke-width="0.320691"/>
<path d="M107.877 130.332L105.479 126.578" stroke="black" stroke-width="0.320691"/>
<path d="M128.083 112.313L123.802 110.211" stroke="black" stroke-width="0.320691"/>
<path d="M135.274 87.9844H130.309" stroke="black" stroke-width="0.320691"/>
<path d="M127.569 63.6641L123.288 65.9163" stroke="black" stroke-width="0.320691"/>
<path d="M107.02 45.9453L104.623 49.8492" stroke="black" stroke-width="0.320691"/>
<path d="M31.507 47.4461L16.4385 35.7344" stroke="black" stroke-width="0.320691"/>
<path d="M17.1234 32.1354L9.93164 26.4297" stroke="black" stroke-width="0.320691"/>
<path d="M10.9587 37.8385L3.5957 32.1328" stroke="black" stroke-width="0.320691"/>
<path d="M9.76047 39.1901L2.39746 33.4844" stroke="black" stroke-width="0.320691"/>
<path d="M8.90403 40.237L1.54102 34.5312" stroke="black" stroke-width="0.320691"/>
<path d="M8.39069 41.5885L0.856445 35.8828" stroke="black" stroke-width="0.320691"/>
<path d="M7.87669 42.7916L0.513672 37.0859" stroke="black" stroke-width="0.320691"/>
<path d="M8.04758 43.8463L0.68457 38.1406" stroke="black" stroke-width="0.320691"/>
<path d="M8.04758 44.7448L0.68457 39.0391" stroke="black" stroke-width="0.320691"/>
</g>
<defs>
<clipPath id="clip0_2109_209143">
<rect width="150" height="150" fill="white"/>
</clipPath>
</defs>
</svg>
