<svg width="150" height="150" viewBox="0 0 150 150" fill="none" xmlns="http://www.w3.org/2000/svg">
<g clip-path="url(#clip0_2109_209236)">
<path d="M71.3213 0H76.8769L82.5826 0.22831L88.1381 1.14155L94.4444 2.51142L100.601 4.56621L107.808 7.76256L114.715 11.4155L121.321 15.5251L128.228 20.7763L133.033 25.3425L137.538 31.2785L141.291 36.9863L144.745 43.6073L147.147 50.9132L148.949 58.4475L149.55 65.7534L150 72.831L149.85 87.4429L148.949 94.2922L147.147 100.685L144.444 107.534L141.291 114.384L137.538 120.091L132.733 125.799L127.477 130.365L121.922 135.16L114.715 139.726L106.907 144.292L98.4985 146.804L90.5405 148.858L82.7327 149.543L74.7748 150L66.0661 149.315L57.8078 148.174L50.6006 146.119L43.3934 143.379L36.9369 140.868L29.8799 136.53L23.4234 131.963L17.4174 126.256L12.7628 120.548L8.85886 114.84L5.40541 107.991L2.55255 100.228L0.900901 93.379L0 84.9315V64.6119L0.900901 55.7078L2.55255 48.4018L5.40541 41.5525L9.45946 34.2466L13.964 28.0822L19.5195 21.6895L25.6757 15.9817L31.8318 11.6438L38.4384 8.21918L45.3453 5.02283L51.952 2.96804L58.8589 1.36986L65.015 0.22831L71.3213 0Z" fill="#E0E0E0" stroke="black" stroke-width="0.370302"/>
<path d="M137.087 96.3438V103.421L132.583 109.129L127.178 114.152L121.922 118.49L119.069 120.545L114.715 123.284L110.211 125.339L107.658 126.481L103.754 128.307L99.7001 129.677L95.4959 130.819L91.1415 131.504L83.634 132.417L79.4298 132.645H71.3217L63.3638 131.96L59.3097 131.504L55.2557 130.362L51.5019 129.677L47.1475 128.307L42.9433 126.481L40.2406 125.339L35.8863 123.056L31.3818 120.545L28.6791 118.946L23.1235 114.152L18.0184 108.901L15.7662 107.303L13.6641 104.563V97.7136L16.0665 101.138L20.8713 106.389L26.4268 111.641L33.3337 116.435L39.7902 120.088L47.1475 123.056L54.3548 125.111L61.562 126.937L69.2196 127.851H78.8292L88.4388 126.937L97.1475 125.111L105.406 122.599L113.063 118.946L120.271 114.38L126.127 109.586L131.382 104.335L136.487 97.4853L137.087 96.3438Z" fill="#A1A1A1"/>
<path d="M71.3213 0H76.8769L82.5826 0.22831L88.1381 1.14155L94.4444 2.51142L100.601 4.56621L107.808 7.76256L114.715 11.4155L121.321 15.5251L128.228 20.7763L133.033 25.3425L137.538 31.2785L141.291 36.9863L144.745 43.6073L147.147 50.9132L148.949 58.4475L149.55 65.7534L150 72.831L149.85 87.4429L148.949 94.2922L147.147 100.685L144.444 107.534L141.291 114.384L137.538 120.091L132.733 125.799L127.477 130.365L121.922 135.16L114.715 139.726L106.907 144.292L98.4985 146.804L90.5405 148.858L82.7327 149.543L74.7748 150L66.0661 149.315L57.8078 148.174L50.6006 146.119L43.3934 143.379L36.9369 140.868L29.8799 136.53L23.4234 131.963L17.4174 126.256L12.7628 120.548L8.85886 114.84L5.40541 107.991L2.55255 100.228L0.900901 93.379L0 84.9315V64.6119L0.900901 55.7078L2.55255 48.4018L5.40541 41.5525L9.45946 34.2466L13.964 28.0822L19.5195 21.6895L25.6757 15.9817L31.8318 11.6438L38.4384 8.21918L45.3453 5.02283L51.952 2.96804L58.8589 1.36986L65.015 0.22831L71.3213 0V4.56621L63.3634 5.02283L56.7568 5.93607L49.2492 8.21918L42.3423 10.7306L35.1351 15.0685L29.5796 18.7215L23.2733 23.7443L18.1682 29.2237L13.6637 34.9315L10.2102 40.411L7.05706 47.2603L4.95496 55.2511L3.9039 63.0137L4.35435 71.9178L5.70571 79.6804L8.10811 87.4429L12.012 94.9772L13.6637 97.7169V115.297L15.7658 118.265V107.306L18.018 108.904V120.776L20.8709 123.744V112.1L23.1231 114.155V126.256L28.6787 130.822V118.95L31.3814 120.548V132.42L35.4354 134.932L40.2402 137.443V125.342L42.9429 126.484V138.584L46.5465 140.183L50.6006 141.324L54.8048 142.466L58.8589 143.379L63.0631 144.292L71.1712 145.434H79.2793L83.4835 144.749L91.5916 143.607L95.4955 143.151L100 141.324L104.054 140.183L107.658 138.584V126.484L110.21 125.342V137.443L114.715 135.16L119.069 132.42V120.548L121.922 118.493V130.137L127.177 125.799V114.155L129.88 111.872V123.288L132.583 120.548V109.132L134.835 106.393V117.123L137.087 113.927V96.347L140.39 90.8676L143.393 82.4201L145.045 73.0594L145.495 63.0137L144.745 55.2511L142.342 47.2603L138.889 40.1826L135.135 34.2466L130.931 29.2237L126.126 24.4292L119.82 19.1781L113.063 15.0685L106.156 11.4155L99.2493 8.6758L92.3423 6.621L84.6847 5.02283L77.027 4.56621H71.3213V0Z" fill="#A1A1A1"/>
<path d="M54.5047 14.8438H58.859L63.6638 15.5287L69.82 17.1269L75.5257 19.1816L81.2314 21.6931L86.9371 25.346L92.4926 29.9122L96.5467 33.3369L100.3 37.2182L102.553 44.0675L130.631 47.9488L133.784 56.6246L134.835 62.5606L135.135 68.725L134.685 74.6611L133.183 80.5972L131.081 86.0766L126.126 93.6109L120.12 99.0903L116.216 101.373L97.1473 87.4465L73.4236 95.209L57.6578 85.62L51.802 89.0447L45.0452 78.5424L39.1893 77.4008L31.832 64.8437L25.826 65.5287L24.4746 59.8209L23.874 54.1132L24.1743 48.4054L25.5257 42.4693L27.3275 37.2182L29.88 32.1953L35.5857 23.9762L38.7389 20.7798L42.3425 18.2684L46.0962 16.2136L50.0001 15.3004L54.5047 14.8438Z" stroke="black" stroke-width="0.370302"/>
</g>
<defs>
<clipPath id="clip0_2109_209236">
<rect width="150" height="150" fill="white"/>
</clipPath>
</defs>
</svg>
