<svg width="150" height="150" viewBox="0 0 150 150" fill="none" xmlns="http://www.w3.org/2000/svg">
<g clip-path="url(#clip0_2109_209243)">
<path d="M150 0L149.621 9.15916L148.862 18.4685L148.293 27.6276L147.535 36.9369L146.966 46.2462L146.397 55.4054L146.018 64.7147L145.828 73.8739L146.018 83.1832L146.397 92.4925L146.966 101.802L147.535 111.111L148.293 120.42L148.862 129.73L149.431 138.889L150 148.198H147.724L140.708 148.348L133.502 148.649L126.485 148.799L119.279 148.949L112.263 149.249L105.247 149.399L98.2301 149.7L91.2137 149.85H84.0076H81.732L79.2667 150H76.9911H69.9747L62.9583 149.85L55.9418 149.7L48.9254 149.55L41.909 149.399L34.8925 149.099L27.8761 148.949L20.8597 148.799L13.8432 148.499L6.8268 148.348L2.2756 148.198H0L0.189633 138.889L0.5689 129.73L1.1378 120.42L1.51707 111.111L1.89633 101.802L2.2756 92.6426L2.46523 83.3333L2.65487 74.024L2.46523 64.8649L2.2756 55.7057L1.89633 46.3964L1.51707 37.2372L1.1378 27.9279L0.5689 18.6186L0.189633 9.45946L0 0.15015V0H2.2756H9.29204L16.3085 0.15015L23.3249 0.3003L30.3413 0.45045H37.3578L44.3742 0.600601L51.201 0.750751H58.4071L65.4235 0.900901H72.2503H79.2667H86.4728L93.4893 0.750751H100.506L107.522 0.600601L114.728 0.45045L121.745 0.3003L128.761 0.15015H135.967L142.984 0H150Z" fill="black"/>
<path d="M17.446 23.2709H23.3247L29.2033 23.4211L35.0819 23.5712L41.1502 23.7214H47.4081L54.2349 24.0217L61.0617 24.1718L67.5092 24.322L67.3196 24.6223L62.5788 26.5742L61.6306 27.4751L62.5788 28.8265L66.7507 26.1238L71.6812 24.0217L71.8708 24.1718L76.0427 26.8745L81.3525 28.6763H82.4903L77.9391 26.2739L75.8531 24.1718L83.0592 24.0217H90.0756L97.092 23.8715H104.298L111.315 23.7214L118.331 23.5712L125.347 23.2709H132.364L135.588 19.2168L138.622 15.1628L141.846 11.1087L144.121 8.10574L144.88 7.05469L144.311 15.7634L143.742 24.322L143.173 32.8805L142.604 41.2889L142.035 49.9976L141.656 58.406L141.277 66.9646V75.5231V84.2319L141.656 92.7904L142.035 101.349L142.794 110.058L143.363 118.616L143.931 127.175L144.5 135.733L145.069 144.442H142.794L136.346 144.592L129.709 144.893L123.072 145.043L116.435 145.343L109.987 145.643L103.35 145.793L96.7128 145.944L90.0756 146.094H87.9896H85.714H83.6281H76.9909H74.7153L5.11986 144.442L14.7912 140.238L5.49913 135.883L15.1704 131.679L5.8784 127.325L15.5497 123.121L6.25766 118.766L15.929 114.562L6.63693 110.208L16.3082 106.004L7.0162 101.499L16.4979 97.4451L7.39546 93.0907L16.8771 88.8865L7.5851 84.5322L16.8771 80.328L7.5851 75.9736L16.4979 71.4691L6.63693 66.8144L14.7912 62.3099L6.25766 57.6553L14.6015 53.3009L6.06803 48.6463L14.2223 44.2919L5.68876 39.4871L13.843 35.7334L5.30949 31.5292L10.8089 27.6253L4.93023 23.5712L10.4296 19.6673L4.55096 15.4631L8.154 13.361L4.36133 7.50514L17.446 23.2709Z" fill="#C1BF23"/>
<path d="M141.656 3.60156L138.811 7.50547L135.967 11.5595L132.933 15.4634L129.898 19.3673L123.072 19.5175L116.245 19.6676L109.228 19.8178L102.402 19.9679L95.5747 20.1181L88.7479 20.2682H81.9211H78.3181H76.6114H74.9047L76.0425 19.2172V18.6166L75.6632 18.1661L70.3535 17.2652L69.595 17.5655L69.2157 17.8658L69.0261 18.3163L70.7328 20.2682H64.4749L58.217 20.1181H51.9591L45.8908 19.9679L21.0488 19.5175L27.686 17.4154L17.8251 15.1631L24.4622 13.3613L14.4117 10.9589L21.4281 9.30727L11.5672 7.20517L18.5836 5.70366L8.72266 3.60156H10.8086L17.0665 3.75171H23.3244L29.5823 3.90186L35.6506 4.05201L41.9085 4.20216L48.1664 4.35231H54.2347L60.4926 4.50246H66.7505H72.8187H81.1626H87.4205L93.6784 4.35231H99.9363L106.194 4.20216L112.452 4.05201H118.71L124.968 3.90186L131.226 3.75171L137.484 3.60156H139.57H141.656Z" fill="#C1BF23"/>
<path d="M71.4919 141.438C71.9109 141.438 72.2505 115.825 72.2505 84.2306C72.2505 52.636 71.9109 27.0234 71.4919 27.0234C71.073 27.0234 70.7334 52.636 70.7334 84.2306C70.7334 115.825 71.073 141.438 71.4919 141.438Z" fill="#420200"/>
<path d="M39.065 46.0972L125.348 98.3494L125.917 98.7999L126.107 99.4005V99.8509L125.727 100.452L113.781 112.764L113.591 112.914L112.264 113.364L111.126 113.064L24.8425 60.8119L24.2736 60.3614L24.084 59.7608L24.2736 59.1602L24.4633 58.7098L36.4102 46.3975L37.7376 45.7969L39.065 46.0972Z" fill="#FF0000"/>
<path d="M39.4434 49.0972L121.934 99.0972L122.692 99.9981V100.599L122.313 101.049L113.59 110.058L113.211 110.358L112.452 110.509L111.314 110.358L28.6343 60.2083L28.2551 59.7578L28.0654 59.3074V58.8569L28.2551 58.2563L36.9782 49.3975L37.5471 48.947L38.116 48.7969L39.4434 49.0972Z" fill="white"/>
<path fill-rule="evenodd" clip-rule="evenodd" d="M41.9094 55.4087L42.099 55.5589L42.2886 55.709V55.8592L42.4783 56.0093L42.6679 56.1595L42.8575 56.3096V56.4598H43.0472H43.2368L43.4264 56.3096H43.6161V56.4598H43.8057V56.6099V56.7601L42.099 58.5619L41.9094 58.712H41.7197H41.5301V58.5619H41.3405V58.4117V58.2616L41.5301 58.1114L41.7197 57.8111V57.661V57.5108L41.9094 57.2105V57.0604V56.9102V56.6099V56.4598V56.3096L41.7197 56.1595V56.0093L41.5301 55.8592L41.9094 55.4087ZM41.5301 55.1084L41.1508 55.5589L40.9612 55.4087H40.7716H40.5819H40.3923L40.2027 55.5589H40.013L39.8234 55.709V55.8592L36.41 59.3126V59.4628L36.2204 59.6129V59.7631V59.9132V60.0634V60.2135H36.41V60.3637L36.0307 60.664L35.6515 60.5138L35.4618 60.2135L35.2722 60.0634L34.8929 59.7631L34.7033 59.4628V59.1625L34.5137 58.8622V58.5619V58.2616L34.7033 57.9613V57.661L34.8929 57.3607L35.0826 57.0604L35.2722 56.7601L35.4618 56.4598L35.6515 56.1595L36.0307 55.8592L36.2204 55.709L36.5996 55.4087L36.7893 55.2586L36.9789 55.1084H37.1685L37.3582 54.9583H37.5478L37.7374 54.8081H37.9271L38.1167 54.658H38.3063H38.496L38.6856 54.5078H38.8752H39.0649H39.2545H39.6338H39.8234H40.013L40.2027 54.658H40.3923H40.5819L40.7716 54.8081H40.9612L41.1508 54.9583H41.3405L41.5301 55.1084ZM36.7893 60.664H37.1685L37.5478 60.8141H37.7374H38.1167H38.496L38.8752 60.664L39.0649 60.5138L39.4441 60.3637H39.6338H39.8234V60.5138H40.013V60.664V60.8141H39.8234V60.9643H39.6338L39.4441 61.1144L39.2545 61.2646H38.8752L38.6856 61.4147H38.3063H38.1167H37.7374H37.3582L37.1685 61.2646H36.9789L36.7893 61.1144L36.41 60.9643L36.7893 60.664ZM48.3569 59.3126L48.7362 59.6129L49.1154 59.7631L49.3051 60.0634L49.4947 60.3637V60.664L49.6843 60.9643V61.2646V61.5649V61.8652V62.1655L49.4947 62.4658L49.3051 62.7661L49.1154 63.0664L48.9258 63.3667L48.7362 63.667L48.5465 63.8171L48.3569 64.1174L47.9776 64.4177L47.788 64.5679L47.4087 64.718L47.2191 64.8682L47.0295 65.0183H46.8398V65.1685H46.6502H46.4606L46.2709 65.3186H46.0813H45.8917L45.702 65.4688H45.5124H45.3228H45.1331H44.9435H44.7539H44.5642H44.3746H44.185L43.9953 65.3186H43.8057L43.6161 65.1685H43.4264L43.2368 65.0183H43.0472L43.4264 64.5679L43.6161 64.718H43.8057L43.9953 64.5679H44.185L44.3746 64.4177L48.1673 60.5138V60.3637V60.2135V60.0634V59.9132L47.9776 59.7631L48.3569 59.3126ZM47.9776 59.0123L47.5984 59.4628H47.2191H47.0295L46.8398 59.6129L46.6502 59.7631L43.0472 63.5168L42.8575 63.667V63.8171V63.9673V64.1174V64.2676L42.4783 64.718L42.099 64.4177L41.9094 64.1174L41.5301 63.8171L41.3405 63.3667V62.9162V62.6159V62.1655L41.5301 61.715L41.7197 61.2646L41.9094 60.9643L42.099 60.5138L42.4783 60.2135L42.6679 59.9132L43.0472 59.6129L43.2368 59.4628L43.6161 59.3126L43.8057 59.1625L43.9953 59.0123H44.185L44.3746 58.8622H44.5642H44.7539L44.9435 58.712H45.1331H45.3228L45.5124 58.5619H45.702H45.8917H46.0813H46.4606H46.6502H46.8398L47.0295 58.712H47.2191L47.4087 58.8622H47.5984L47.788 59.0123H47.9776ZM51.7703 63.667L51.5807 64.718L49.4947 66.9703L49.3051 67.1204V67.4207L49.1154 67.5709V67.721V67.8712L49.3051 68.0213V68.1715V68.3216L49.1154 68.4718H48.9258L48.7362 68.3216L47.5984 67.721L47.4087 67.5709V67.4207H47.2191V67.2706L47.4087 67.1204H47.5984H47.788H47.9776H48.1673H48.3569V66.9703H48.5465H48.7362V66.8201L48.9258 66.67L51.7703 63.667ZM54.9941 68.3216L55.1837 67.2706L56.1319 66.2195L56.3215 65.9192L56.5111 65.7691V65.6189V65.4688V65.3186V65.1685V65.0183V64.8682H56.3215V64.718H56.5111V64.5679H56.7008H56.8904L57.08 64.718L58.2178 65.4688L58.4075 65.6189L58.5971 65.7691L58.4075 65.9192H58.2178H58.0282H57.8386H57.6489H57.4593L57.2697 66.0694H57.08V66.2195L56.8904 66.3697L56.7008 66.5198L54.9941 68.3216ZM51.2014 69.8231L52.3392 62.9162V62.7661V62.6159V62.4658L52.1496 62.3156V62.1655H52.3392V62.0153H52.5288L52.7185 62.1655H52.9081L55.1837 63.667L54.2355 68.9222L52.7185 70.724L51.2014 69.8231ZM60.8727 71.0243H61.252H61.4416L61.6312 70.8742H61.8209L62.0105 70.724H62.2001L62.3898 70.5739H62.5794H62.769V70.724V70.8742V71.0243L61.0623 72.676L60.8727 72.8261H60.6831H60.4934V72.676V72.5258V72.3757L60.6831 72.2255V72.0754V71.9252V71.7751V71.6249L60.4934 71.4748L60.8727 71.0243ZM63.3379 68.4718L65.4239 69.8231L63.9068 71.3246H63.7172H63.5276V71.1745H63.3379V71.0243V70.8742L63.5276 70.2736V69.8231L63.3379 69.3727L62.9587 68.9222L63.3379 68.4718ZM62.9587 68.3216L58.2178 72.9763V73.1264V73.2766V73.4267V73.5769H58.4075V73.727H58.2178V73.8772H58.0282H57.8386L57.6489 73.727L55.1837 72.2255L54.9941 72.0754V71.9252V71.7751H55.1837H55.3733H55.563H55.7526H55.9422V71.6249L59.9245 67.5709L60.1142 67.4207V67.2706H59.9245V67.1204V66.9703H59.7349V66.8201H59.9245V66.67H60.1142H60.3038L60.4934 66.8201L62.9587 68.3216ZM62.5794 75.679L66.3721 71.6249L66.5617 71.4748V71.3246V71.1745L66.3721 71.0243V70.8742V70.724L66.5617 70.5739H66.7513V70.724H66.941L69.5958 72.2255L69.7855 72.3757V72.5258V72.676H69.5958V72.8261H69.4062H69.2166V72.676H69.0269V72.8261H68.8373L64.6654 77.0303V77.1805V77.3306H64.855V77.4808V77.6309V77.7811H64.6654H64.4757H64.2861L61.6312 76.1294V75.9793H61.4416V75.8291V75.679H61.6312H61.8209H62.0105H62.2001H62.3898H62.5794ZM74.3367 75.2285L74.716 75.3787L75.0952 75.679L75.2849 75.9793L75.4745 76.1294L75.6641 76.4297V76.73L75.8537 77.0303V77.3306V77.7811L75.6641 78.0814V78.3817L75.4745 78.682V78.9823L75.2849 79.2826L74.9056 79.5829L74.716 79.733L74.5263 79.8832L74.3367 80.1835L74.147 80.3336H73.9574L73.7678 80.4838L73.5781 80.6339L73.3885 80.7841L73.1989 80.9342H72.8196L72.63 81.0844H72.4403L72.0611 81.2345H71.8714H71.6818H71.4922H71.1129H70.9233H70.7336H70.3544L70.1647 81.0844H69.9751L69.5958 80.9342L69.4062 80.7841L69.2166 80.6339L69.5958 80.3336H69.9751H70.1647L70.544 80.1835L70.9233 79.8832L73.9574 76.5799L74.147 76.2796L74.3367 76.1294L74.147 75.8291L73.9574 75.679L74.3367 75.2285ZM73.9574 74.9282L68.8373 80.4838L66.5617 78.9823H66.3721L66.1824 78.8321V78.682V78.5318H66.3721H66.5617H66.7513H66.941H67.1306V78.3817L71.1129 74.3276V74.1775H71.3025L71.1129 74.0273V73.8772H70.9233V73.727V73.5769H71.1129V73.4267H71.3025L71.4922 73.5769H71.6818L73.9574 74.9282ZM79.4568 82.1354L79.6464 82.2856H79.8361H80.0257H80.2153L80.4049 82.1354L80.5946 81.9853H80.7842V81.8351H80.9739H81.1635H81.3531V81.9853V82.1354L81.1635 82.2856L79.6464 84.0874H79.4568H79.2672H79.0775V83.9372V83.7871L79.2672 83.4868V83.3366V83.1865V83.0363V82.8862V82.736L79.0775 82.5859L79.4568 82.1354ZM81.922 79.733L83.8184 80.9342L82.4909 82.4357L82.3013 82.5859H82.1117V82.4357H81.922V82.2856V82.1354L82.1117 81.9853V81.8351V81.685V81.5348V81.3847V81.2345V81.0844V80.9342L81.922 80.7841V80.6339L81.7324 80.4838L81.5428 80.3336V80.1835L81.922 79.733ZM76.9916 84.8381H77.1812L77.5605 84.9883H77.7501H77.9397H78.319H78.5086H78.6982H78.8879L79.0775 84.8381H79.2672L79.4568 84.688H79.6464V84.5378H79.8361H80.0257V84.688H80.2153V84.8381L80.0257 84.9883L78.6982 86.4898L76.6123 85.1384L76.9916 84.8381ZM81.3531 79.4327L76.233 84.9883L73.7678 83.4868L73.5781 83.3366V83.1865V83.0363H73.7678H73.9574H74.147H74.3367H74.5263V82.8862L78.5086 78.8321V78.682H78.6982V78.5318H78.5086V78.3817V78.2315V78.0814V77.9312H78.6982H78.8879L79.0775 78.0814L81.3531 79.4327ZM84.7665 83.7871L84.5769 84.688L82.4909 86.9402L82.3013 87.2405V87.3907L82.1117 87.5408V87.691H82.3013V87.8411V87.9913V88.1414V88.2916V88.4417H82.1117H81.922L81.7324 88.2916L80.5946 87.691V87.5408H80.4049V87.3907H80.2153V87.2405H80.4049V87.0904H80.5946H80.7842H80.9739H81.1635H81.3531L81.5428 86.9402H81.7324L81.922 86.7901V86.6399L84.7665 83.7871ZM87.9903 88.2916L88.1799 87.2405L89.3177 86.1895L89.5074 86.0393V85.739L89.697 85.5889V85.4387V85.2886L89.5074 85.1384V84.9883V84.8381V84.688V84.5378H89.697L89.8866 84.688H90.0763L91.4037 85.4387V85.5889L91.5933 85.739V85.8892H91.4037V86.0393H91.2141V85.8892H91.0244H90.8348H90.6452V86.0393H90.4555H90.2659L90.0763 86.1895L89.8866 86.3396L89.697 86.4898L87.9903 88.2916ZM84.3873 89.7931L85.5251 82.8862L85.3354 82.736V82.5859V82.4357L85.1458 82.2856V82.1354H85.3354V81.9853H85.5251L85.7147 82.1354H85.9043L88.1799 83.6369L87.4214 88.8922L85.7147 90.694L84.3873 89.7931ZM94.6275 87.5408L96.9031 88.8922L92.3519 93.5469L92.1622 93.697V93.8472H92.3519V93.9973V94.1475V94.2976V94.4478H92.1622H91.9726H91.783L89.1281 92.7961V92.646H88.9385V92.4958L89.1281 92.3456H89.3177H89.5074H89.697H89.8866L90.0763 92.1955L94.6275 87.5408ZM94.2482 87.2405L93.8689 87.691H93.6793H93.4897H93.3L92.9208 87.8411L92.7311 87.9913L92.5415 88.1414L92.1622 88.2916L91.9726 88.4417V88.5919H91.783H91.5933H91.4037L91.2141 88.4417V88.2916V88.1414L92.9208 86.4898L94.2482 87.2405ZM97.2823 89.0423L98.6098 89.9432L96.9031 91.5949V91.745H96.7134H96.5238V91.5949H96.3342V91.4447V91.2946V91.1444L96.5238 90.9943L96.7134 90.694L96.9031 90.2435V89.7931V89.4928L97.2823 89.0423ZM95.5756 95.649L99.5579 91.5949V91.4447H99.7476V91.2946H99.5579V91.1444V90.9943V90.8442V90.694H99.7476H99.9372L100.127 90.8442L102.592 92.3456L102.782 92.4958H102.971V92.646L102.782 92.7961V92.9463H102.592V92.7961H102.402H102.213H102.023V92.9463H101.834L97.8512 97.0003V97.1505V97.3006V97.4508H98.0409V97.6009V97.7511H97.8512V97.9012H97.6616H97.472V97.7511L94.8171 96.2496L94.6275 96.0994V95.9493V95.7991H94.8171V95.649H95.0067L95.1964 95.7991H95.386H95.5756V95.649ZM105.247 95.4988L104.678 96.3997L101.265 98.5018H101.075L100.885 98.652V98.8021L100.696 98.9523H100.885V99.1024V99.2526V99.4027H101.075V99.5529L100.885 99.703H100.696H100.506L100.316 99.5529L99.1787 98.8021H98.989V98.652V98.5018V98.3517H99.1787H99.3683H99.5579H99.7476H99.9372H100.127H100.316V98.2015H100.506L100.885 98.0514L105.057 95.4988H105.247ZM106.385 94.5979L108.471 95.9493L105.247 101.505V101.655V101.805L105.437 101.955V102.105V102.256L105.247 102.406H105.057L104.868 102.256H104.678L102.592 100.904L102.402 100.754H102.213V100.604H102.023V100.454V100.304H102.213H102.402H102.592H102.782H102.971V100.153V100.003H103.161L103.54 99.2526L102.023 98.5018L102.592 98.0514L103.73 98.8021L106.005 94.8982L106.385 94.5979ZM107.523 102.856L111.505 98.8021V98.652V98.5018V98.3517V98.2015H111.315V98.0514L111.505 97.9012H111.694H111.884L114.539 99.4027V99.5529H114.729V99.703V99.8532H114.539V100.003H114.349H114.16H113.97H113.78L109.229 104.808L106.764 103.457L106.574 103.307V103.156V103.006V102.856H106.764H106.954V103.006H107.143H107.333L107.523 102.856ZM109.798 104.658L110.177 104.808H110.367H110.746H110.936H111.126H111.505L111.694 104.658L111.884 104.508L112.074 104.358H112.263L112.453 104.208H112.643H112.832H113.022V104.358H113.212V104.508L113.022 104.658L111.505 106.31L109.419 105.108L109.798 104.658Z" fill="#0000FF"/>
</g>
<defs>
<clipPath id="clip0_2109_209243">
<rect width="150" height="150" fill="white"/>
</clipPath>
</defs>
</svg>
