<svg width="150" height="150" viewBox="0 0 150 150" fill="none" xmlns="http://www.w3.org/2000/svg">
<g clip-path="url(#clip0_2109_208663)">
<path d="M97.5976 0H139.79L144.294 1.96078L146.697 6.27451L148.499 12.549L149.55 19.4118L149.85 21.7647L150 24.3137V26.6667L149.55 34.1176L148.499 40.7843L146.697 47.0588L144.294 51.3726L139.79 53.3333H115.465L54.3544 150H12.1622L7.95796 148.627L4.65465 144.314L2.25225 137.255L1.05105 131.961L0.3003 126.471L0 123.529V120.588V117.647V111.765L0.750751 106.078L1.65165 100.588L2.85285 95.4902L5.55556 89.4118L9.30931 86.0784L12.1622 85.2941H43.2432L62.9129 54.5098V46.0784H60.8108V36.2745L62.7628 26.6667H66.3664L68.4685 37.2549L69.3694 44.5098L97.5976 0Z" fill="#00FFFF" stroke="black" stroke-width="0.343169"/>
<path d="M42.943 104.898H27.0271V92.3493L7.95801 120.781L27.0271 148.232V135.879H54.6547L113.514 43.7218H134.535V12.9375H101.652V28.4277H89.94V43.7218H78.2283V59.212H66.5166V74.5061H54.6547V89.4081H42.943V104.898Z" fill="#00FFFF" stroke="black" stroke-width="0.343169"/>
</g>
<defs>
<clipPath id="clip0_2109_208663">
<rect width="150" height="150" fill="white"/>
</clipPath>
</defs>
</svg>
