<svg width="150" height="150" viewBox="0 0 150 150" fill="none" xmlns="http://www.w3.org/2000/svg">
<g clip-path="url(#clip0_2109_208441)">
<path d="M27.3273 147.745L0 29.4262L7.35736 28.3751L6.30631 18.9157L35.8859 12.6094L36.9369 21.0178L77.027 13.6604L74.9249 29.4262L39.039 33.7805L30.6306 45.3421L27.3273 147.745Z" fill="#00FFFF"/>
<path d="M27.3273 147.745L0 29.4262L7.35736 28.3751L6.30631 18.9157L35.8859 12.6094L36.9369 21.0178L77.027 13.6604L74.9249 29.4262L39.039 33.7805L30.6306 45.3421" stroke="black" stroke-width="0.3003"/>
<path d="M30.6305 45.3438L27.3271 147.746" stroke="black" stroke-width="0.3003"/>
<path d="M30.6309 40.0938H32.4327H33.784H34.5348H34.8351" stroke="black" stroke-width="0.3003"/>
<path d="M27.3271 150L146.697 116.066L150 7.35736L142.492 0L78.0779 11.5616L74.9247 26.2763L39.0389 33.7838L29.4293 44.2943L27.3271 150Z" fill="#00FFFF"/>
<path d="M27.3271 150L146.697 116.066L150 7.35736L142.492 0L78.0779 11.5616L74.9247 26.2763L39.0389 33.7838L29.4293 44.2943L27.3271 150Z" stroke="black" stroke-width="0.3003"/>
</g>
<defs>
<clipPath id="clip0_2109_208441">
<rect width="150" height="150" fill="white"/>
</clipPath>
</defs>
</svg>
