<svg width="150" height="150" viewBox="0 0 150 150" fill="none" xmlns="http://www.w3.org/2000/svg">
<path d="M0.600586 1.42188H149.249V148.223H0.600586V1.42188Z" fill="#7F997F" stroke="black" stroke-width="0.462043"/>
<path d="M6.90723 67.5321L19.2195 8.88281H130.631L142.943 67.5321V104.143L136.787 140.755H13.0634L6.90723 104.143V67.5321Z" fill="#D8E5D8"/>
<path d="M25.375 133.297H124.474V140.761H25.375V133.297Z" fill="#666666"/>
<path d="M62.6123 38.0312H87.2369V52.9602H62.6123V38.0312Z" fill="#666666"/>
<path d="M25.375 16.3516H124.474V27.3705H25.375V16.3516Z" fill="#666666"/>
<path d="M25.5254 74.9989L28.2281 59.359L34.8347 52.9609L41.2912 59.359L43.9939 74.9989L41.2912 90.2832L34.8347 96.6813L28.2281 90.2832L25.5254 74.9989Z" fill="#B2B2B2"/>
<path d="M43.9941 126.188H105.856V140.761H43.9941V126.188Z" fill="#B2B2B2"/>
<path d="M136.787 126.187L138.138 115.523L141.442 111.258L144.745 115.523L146.096 126.187L144.745 136.495L141.442 140.76L138.138 136.495L136.787 126.187Z" fill="#F2FFF2"/>
<path d="M133.784 30.9207L135.586 15.2809L139.94 8.88281L144.295 15.2809L146.096 30.9207L144.295 46.5605L139.94 52.9586L135.586 46.5605L133.784 30.9207Z" fill="#F2FFF2"/>
<path d="M3.75391 30.9207L5.55571 14.9255L9.91006 8.88281L14.4146 14.9255L16.2164 30.9207L14.4146 46.5605L9.91006 52.9586L5.55571 46.5605L3.75391 30.9207Z" fill="#F2FFF2"/>
<path d="M3.75391 126.187L5.10526 115.523L8.40856 111.258L11.7119 115.523L13.0632 126.187L11.7119 136.495L8.40856 140.76L5.10526 136.495L3.75391 126.187Z" fill="#F2FFF2"/>
<path d="M74.9244 133.292C83.4658 133.292 90.3899 111.967 90.3899 85.6616C90.3899 59.3561 83.4658 38.0312 74.9244 38.0312C66.3831 38.0312 59.459 59.3561 59.459 85.6616C59.459 111.967 66.3831 133.292 74.9244 133.292Z" fill="#F2FFF2"/>
<path d="M59.459 85.6616L60.51 67.8891L63.8133 51.8938L69.0686 41.5858L74.9244 38.0312L80.7803 41.5858L86.0356 51.8938L89.3389 67.8891L90.3899 85.6616L89.3389 103.79L83.3329 100.235L84.2338 89.5715L87.2368 82.1071L84.2338 60.0692L78.0776 52.9602L68.7683 60.4246L65.6151 89.5715L68.7683 104.145H71.9214V111.254L63.8133 119.785L60.51 103.79L59.459 85.6616Z" fill="#B2B2B2"/>
<path d="M96.6963 45.5H127.477V52.9645H96.6963V45.5Z" fill="#009900"/>
<path d="M102.853 82.1082L105.405 66.4684L112.162 60.0703L118.618 66.4684L121.321 82.1082L118.618 97.748L112.162 104.146L105.405 97.748L102.853 82.1082Z" fill="#009900"/>
<path d="M19.2188 104.148H50.1497V111.257H19.2188V104.148Z" fill="#009900"/>
</svg>
