<svg width="150" height="150" viewBox="0 0 150 150" fill="none" xmlns="http://www.w3.org/2000/svg">
<g clip-path="url(#clip0_2109_208632)">
<path d="M106.756 43.1479L105.555 40.7286L104.204 39.5189L102.852 39.1157H102.252H96.0957H93.0927L90.0897 37.906L87.0867 36.2931L84.2338 34.277L81.2308 31.0512L78.378 27.4221L72.8224 19.3576L69.5191 15.3254L66.0657 11.6963L62.4621 9.27697L58.8585 8.06729L55.2549 7.66406H15.1648L13.363 8.06729L11.5612 9.27697L9.90952 11.6963L8.55817 14.9221L7.35697 18.9544L6.45607 22.9866L5.85547 27.8254V32.6641V108.874V113.712L6.45607 118.551L7.35697 122.987L8.55817 126.616L9.90952 129.841L11.5612 132.261L13.363 133.471L15.1648 134.277H113.063L113.964 133.471L114.864 132.664L115.465 131.051L115.916 128.632L116.066 126.212L116.216 122.583L116.666 118.954L117.417 115.729L118.318 113.309L122.672 104.035L123.273 102.019L123.423 100.003L123.273 98.3899L122.973 97.1802L122.672 96.3737L113.663 79.4383L112.162 76.6157L110.961 72.9866L110.06 68.9544L109.309 64.5189L108.858 60.0834L108.708 55.2447L108.558 51.6157L108.258 48.3899L107.507 45.5673L106.756 43.1479Z" fill="#00FFFF" stroke="black" stroke-width="0.492115"/>
<path d="M135.285 102.416H146.997V39.1094H135.285V102.416Z" fill="#00FFFF" stroke="black" stroke-width="0.492115"/>
<path d="M131.531 96.3737H135.285V45.1641H131.531V96.3737Z" fill="#00FFFF" stroke="black" stroke-width="0.492115"/>
<path d="M146.997 39.1114L150 31.0469V110.079L146.997 102.418V39.1114Z" fill="#00FFFF" stroke="black" stroke-width="0.492115"/>
<path d="M124.925 102.416H131.531V39.1094H124.925V102.416Z" fill="#00FFFF" stroke="black" stroke-width="0.492115"/>
<path d="M114.564 23.3899H129.279V7.66406H114.564V23.3899Z" fill="#00FFFF" stroke="black" stroke-width="0.492115"/>
<path d="M108.709 23.3899H114.565V7.66406H108.709V23.3899Z" fill="#00FFFF" stroke="black" stroke-width="0.492115"/>
<path d="M105.855 19.3566H108.708V11.6953H105.855V19.3566Z" fill="#00FFFF" stroke="black" stroke-width="0.492115"/>
<path d="M114.564 11.6951H117.567V6.45312H114.564V11.6951Z" fill="#00FFFF" stroke="black" stroke-width="0.492115"/>
<path d="M114.564 24.5935H117.567V19.3516H114.564V24.5935Z" fill="#00FFFF" stroke="black" stroke-width="0.492115"/>
<path d="M114.564 17.3369H117.567V13.3047H114.564V17.3369Z" fill="#00FFFF" stroke="black" stroke-width="0.492115"/>
<path d="M2.85285 7.66129L0 0V47.1774L2.85285 39.1129V7.66129Z" fill="#00FFFF" stroke="black" stroke-width="0.492115"/>
<path d="M17.5674 118.148H40.9908V102.422H17.5674V118.148Z" fill="#00FFFF" stroke="black" stroke-width="0.492115"/>
<path fill-rule="evenodd" clip-rule="evenodd" d="M58.7083 118.143H61.5612V110.079H58.7083V118.143ZM63.0627 118.143H66.0657V110.079H63.0627V118.143ZM67.5672 118.143H70.5702V110.079H67.5672V118.143ZM67.5672 106.45H70.5702V98.3851H67.5672V106.45ZM55.8555 114.111V117.337L56.3059 120.159L57.0567 122.579L57.9576 124.595L59.0086 125.804L60.2098 126.208H66.9666L68.7684 125.401L70.5702 124.192L72.2218 121.772L73.5732 118.95L74.7744 114.917L75.6753 110.482L76.2759 106.046V101.208V86.6915V83.0625L75.8254 79.8367L75.0747 77.0141L74.1738 74.1915L72.9726 72.1754L71.7714 71.369L70.5702 70.5625L69.0687 71.369L67.8675 72.1754L66.8164 74.1915L65.9155 77.0141L65.1648 79.8367L64.7143 83.0625L64.5642 86.6915V90.7238L64.414 93.5464L63.9636 96.369L63.363 98.7883L62.4621 100.804L61.2609 102.014L60.2098 102.417L59.0086 102.821L57.9576 104.03L57.0567 106.046L56.3059 108.466L55.8555 111.288V114.111Z" fill="#00FFFF" stroke="black" stroke-width="0.492115"/>
<path d="M52.8528 39.1094V101.206L52.5525 106.045L52.1021 110.48L51.2012 114.916L50.1501 118.948L48.6486 121.771L46.997 124.19L45.3453 125.4L43.3934 126.206H21.021L19.2192 125.4L17.4174 124.19L15.7657 121.771L14.4144 118.948L13.2132 114.916L12.3123 110.48L11.8618 106.045L11.5615 101.206V39.1094" stroke="black" stroke-width="0.492115"/>
<path d="M123.273 98.3904H124.925V43.1484H113.063H106.757L107.508 45.5678L108.258 48.3904L108.559 51.6162L108.709 55.2452L108.859 60.0839L109.309 64.5194L110.06 68.9549L110.961 72.9871L112.162 76.6162L113.664 79.4388L122.673 96.3742L122.973 97.1807L123.273 98.3904Z" fill="#00FFFF" stroke="black" stroke-width="0.492115"/>
<path d="M106.756 43.1419H113.063L116.817 23.3838H108.708V19.3516H107.207L102.252 39.1096H102.853L104.204 39.5129L105.555 40.7225L106.756 43.1419Z" fill="#00FFFF" stroke="black" stroke-width="0.492115"/>
<path d="M2.85254 39.1157H8.7084V7.66406H2.85254V39.1157Z" fill="#00FFFF" stroke="black" stroke-width="0.492115"/>
<path d="M38.1378 7.66406H10.36L8.8585 8.06729L7.357 9.68019L6.1558 12.5028L5.2549 15.7286L4.6543 19.3576V23.3899V27.4221L5.2549 31.0512L6.1558 34.277L7.357 37.0995L8.8585 38.7125L10.36 39.1157H38.1378H58.8585L60.36 38.7125L61.7114 37.0995L62.9126 34.277L63.8135 31.0512L64.4141 27.4221L64.5642 23.3899L64.4141 19.3576L63.8135 15.7286L62.9126 12.5028L61.7114 9.68019L60.36 8.06729L58.8585 7.66406H38.1378Z" fill="#00FFFF" stroke="black" stroke-width="0.492115"/>
<path d="M70.5703 137.5V150H79.279V137.5H70.5703Z" fill="white"/>
</g>
<defs>
<clipPath id="clip0_2109_208632">
<rect width="150" height="150" fill="white"/>
</clipPath>
</defs>
</svg>
