<svg width="150" height="150" viewBox="0 0 150 150" fill="none" xmlns="http://www.w3.org/2000/svg">
<g clip-path="url(#clip0_2109_208732)">
<path d="M75 150C116.421 150 150 116.421 150 75C150 33.5786 116.421 0 75 0C33.5786 0 0 33.5786 0 75C0 116.421 33.5786 150 75 150Z" fill="#00FFFF"/>
<path d="M76.2295 149.997L61.4754 148.768L46.7213 143.85L40.5738 141.39L33.1967 136.472L22.1311 127.866L13.5246 116.8L11.0656 114.341L9.83607 110.653L6.14754 104.505L1.22951 90.9807L0 76.2266" stroke="black" stroke-width="2.45902"/>
<path d="M0 76.2295L1.22951 60.2459L6.14754 46.7213L8.60656 39.3443L13.5246 33.1967L22.1311 22.1311L33.1967 12.2951L45.4918 6.14754L59.0164 1.22951L73.7705 0" stroke="black" stroke-width="2.45902"/>
<path d="M73.7705 0L89.7541 1.22951L103.279 6.14754L116.803 12.2951L127.869 22.1311L137.705 33.1967L143.852 46.7213L148.771 60.2459L150 76.2295" stroke="black" stroke-width="2.45902"/>
<path d="M150 76.2266L148.77 90.9807L143.852 104.505L137.705 116.8L127.869 127.866L122.951 132.784L116.803 136.472L111.885 141.39L104.508 143.85L90.9836 148.768L76.2295 149.997" stroke="black" stroke-width="2.45902"/>
<path d="M75 150V0" stroke="black" stroke-width="2.45902"/>
<path d="M150 73.7734H0" stroke="black" stroke-width="2.45902"/>
</g>
<defs>
<clipPath id="clip0_2109_208732">
<rect width="150" height="150" fill="white"/>
</clipPath>
</defs>
</svg>
