<svg width="150" height="150" viewBox="0 0 150 150" fill="none" xmlns="http://www.w3.org/2000/svg">
<g clip-path="url(#clip0_2109_208565)">
<path d="M3.00293 5.40625H150V150.003H3.00293V5.40625Z" fill="#7F7F7F"/>
<path d="M0 0H146.847V144.34H0V0Z" fill="#FFFFA6"/>
<path d="M0 8.49219H146.847V144.341H0V8.49219Z" fill="#FFFFAB"/>
<path d="M0 17.4922H146.847V144.336H0V17.4922Z" fill="#FFFFAD"/>
<path d="M0 25.9844H146.847V144.338H0V25.9844Z" fill="#FFFFB2"/>
<path d="M0 34.9922H146.847V144.34H0V34.9922Z" fill="#FFFFB5"/>
<path d="M0 43.4844H146.847V144.342H0V43.4844Z" fill="#FFFFBA"/>
<path d="M0 52.2266H146.847V144.336H0V52.2266Z" fill="#FFFFBD"/>
<path d="M0 60.9766H146.847V144.338H0V60.9766Z" fill="#FFFFC2"/>
<path d="M0 69.7266H146.847V144.341H0V69.7266Z" fill="#FFFFC4"/>
<path d="M0 78.4766H146.847V144.343H0V78.4766Z" fill="#FFFFC9"/>
<path d="M0 87.2188H146.847V144.337H0V87.2188Z" fill="#FFFFCF"/>
<path d="M0 95.9688H146.847V144.339H0V95.9688Z" fill="#FFFFD1"/>
<path d="M0 104.203H146.847V144.34H0V104.203Z" fill="#FFFFD6"/>
<path d="M0 112.953H146.847V144.342H0V112.953Z" fill="#FFFFD9"/>
<path d="M0 121.695H146.847V144.337H0V121.695Z" fill="#FFFFDE"/>
<path d="M0 130.445H146.847V144.339H0V130.445Z" fill="#FFFFE0"/>
<path d="M0 139.195H146.847V144.341H0V139.195Z" fill="#FFFFE5"/>
<path d="M0 0H146.847V144.34H0V0Z" stroke="black" stroke-width="0.393101"/>
</g>
<defs>
<clipPath id="clip0_2109_208565">
<rect width="150" height="150" fill="white"/>
</clipPath>
</defs>
</svg>
