<svg width="150" height="150" viewBox="0 0 150 150" fill="none" xmlns="http://www.w3.org/2000/svg">
<g clip-path="url(#clip0_2109_208976)">
<path d="M74.9243 149.85C116.304 149.85 149.849 116.305 149.849 74.9249C149.849 33.545 116.304 0 74.9243 0C33.5448 0 0 33.545 0 74.9249C0 116.305 33.5448 149.85 74.9243 149.85Z" fill="#FFFF14" stroke="black" stroke-width="0.30151"/>
<path d="M96.4179 139.939V139.789L93.3906 140.54L93.6933 141.891L96.5692 140.99H96.7206L96.4179 139.939Z" fill="#FF8500"/>
<path d="M99.1425 139.039H99.2939L96.418 139.94L96.7207 140.991L99.5966 140.09L99.1425 139.039Z" fill="#FF8500"/>
<path d="M102.018 137.984H102.17L99.1426 139.035L99.5967 140.086L102.473 139.035H102.624L102.018 137.984Z" fill="#FF8500"/>
<path d="M104.894 136.789L102.019 137.99L102.624 139.041L105.349 137.84L104.894 136.789Z" fill="#FF8500"/>
<path d="M107.468 135.438L104.895 136.789L105.349 137.84L108.073 136.489L107.468 135.438Z" fill="#FF8500"/>
<path d="M110.04 133.938H110.191L107.467 135.439L108.072 136.49L110.797 134.989L110.04 133.938Z" fill="#FF8500"/>
<path d="M112.765 132.281L110.04 133.933L110.797 134.984L113.37 133.332L112.765 132.281Z" fill="#FF8500"/>
<path d="M115.186 130.635V130.484L112.765 132.286L113.37 133.337L115.943 131.535L115.186 130.635Z" fill="#FF8500"/>
<path d="M117.608 128.68L115.187 130.632L115.943 131.533L118.365 129.731L117.608 128.68Z" fill="#FF8500"/>
<path d="M119.879 126.727L117.608 128.679L118.365 129.73L120.636 127.627L119.879 126.727Z" fill="#FF8500"/>
<path d="M121.998 124.625L119.879 126.727L120.636 127.628L122.906 125.526L121.998 124.625Z" fill="#FF8500"/>
<path d="M124.117 122.375L121.998 124.627L122.906 125.528L125.025 123.126H125.177L124.117 122.375Z" fill="#FF8500"/>
<path d="M126.236 120.117L124.117 122.369L125.177 123.12L127.144 120.868L126.236 120.117Z" fill="#FF8500"/>
<path d="M128.053 117.719L126.236 120.121L127.145 120.872L129.112 118.319L128.053 117.719Z" fill="#FF8500"/>
<path d="M129.869 115.164L128.053 117.717L129.112 118.317L130.929 115.765L129.869 115.164Z" fill="#FF8500"/>
<path d="M131.685 112.461L129.869 115.164L130.929 115.764L132.745 113.212V113.062L131.685 112.461Z" fill="#FF8500"/>
<path d="M133.199 109.906H133.351L131.686 112.459L132.745 113.059L134.259 110.507H134.41L133.199 109.906Z" fill="#FF8500"/>
<path d="M134.713 107.055L133.199 109.908L134.41 110.508L135.772 107.505H135.924L134.713 107.055Z" fill="#FF8500"/>
<path d="M136.075 104.203L134.713 107.056L135.924 107.506L137.286 104.654L136.075 104.203Z" fill="#FF8500"/>
<path d="M137.285 101.205V101.055L136.074 104.208L137.285 104.658L138.496 101.655V101.505L137.285 101.205Z" fill="#FF8500"/>
<path d="M138.345 98.1953L137.285 101.198L138.496 101.499L139.556 98.4956L138.345 98.1953Z" fill="#FF8500"/>
<path d="M139.253 95.0469H139.404L138.345 98.2L139.556 98.5003L140.464 95.4973L140.615 95.3472L139.253 95.0469Z" fill="#FF8500"/>
<path d="M140.161 91.8906L139.253 95.0438L140.615 95.3441L141.372 92.1909L140.161 91.8906Z" fill="#FF8500"/>
<path d="M140.918 88.7361V88.5859L140.161 91.8892L141.372 92.1895L142.129 88.8862L140.918 88.7361Z" fill="#FF8500"/>
<path d="M141.372 85.4375L140.918 88.7408L142.129 88.891L142.583 85.5877L141.372 85.4375Z" fill="#FF8500"/>
<path d="M141.826 81.9844L141.372 85.4378L142.583 85.588L143.037 82.1345L141.826 81.9844Z" fill="#FF8500"/>
<path d="M141.978 78.6797L141.826 81.983L143.037 82.1331L143.34 78.6797H141.978Z" fill="#FF8500"/>
<path d="M142.129 75.2266L141.978 78.68H143.34V75.2266H142.129Z" fill="#FF8500"/>
<path d="M141.978 71.7734L142.129 75.2269H143.34V71.7734H141.978Z" fill="#FF8500"/>
<path d="M141.826 68.4705L141.978 71.7738H143.34L143.037 68.3203L141.826 68.4705Z" fill="#FF8500"/>
<path d="M141.372 65.1675V65.0173L141.826 68.4708L143.037 68.3206L142.583 64.8672L141.372 65.1675Z" fill="#FF8500"/>
<path d="M140.918 61.8628V61.7127L141.372 65.1661L142.583 64.8658L142.129 61.5625L140.918 61.8628Z" fill="#FF8500"/>
<path d="M140.161 58.5564L140.918 61.8597L142.129 61.5594L141.372 58.4062L140.161 58.5564Z" fill="#FF8500"/>
<path d="M139.404 55.4019H139.253L140.161 58.555L141.372 58.4049L140.615 55.1016H140.464L139.404 55.4019Z" fill="#FF8500"/>
<path d="M138.345 52.2551L139.404 55.4083L140.464 55.108L139.556 51.9548V51.8047L138.345 52.2551Z" fill="#FF8500"/>
<path d="M137.285 49.2473L138.345 52.2503L139.556 51.7999L138.496 48.947V48.7969L137.285 49.2473Z" fill="#FF8500"/>
<path d="M136.074 46.3975L137.285 49.2503L138.496 48.7999L137.285 45.7969L136.074 46.3975Z" fill="#FF8500"/>
<path d="M134.713 43.5459V43.3958L136.075 46.3988L137.286 45.7982L135.924 42.9453H135.772L134.713 43.5459Z" fill="#FF8500"/>
<path d="M133.199 40.6944L134.713 43.5472L135.772 42.9466L134.41 40.0938H134.259L133.199 40.6944Z" fill="#FF8500"/>
<path d="M131.686 37.9851V37.835L133.199 40.6878L134.259 40.0872L132.745 37.2344L131.686 37.9851Z" fill="#FF8500"/>
<path d="M129.869 35.2881L131.685 37.9908L132.745 37.2401L130.929 34.6875L129.869 35.2881Z" fill="#FF8500"/>
<path d="M128.053 32.8853V32.7351L129.869 35.2877L130.929 34.6871L129.112 32.1345V31.9844L128.053 32.8853Z" fill="#FF8500"/>
<path d="M126.236 30.479V30.3289L128.053 32.8814L129.112 31.9805L127.145 29.5781L126.236 30.479Z" fill="#FF8500"/>
<path d="M124.117 28.0806L126.236 30.483L127.144 29.5821L125.177 27.1797H125.025L124.117 28.0806Z" fill="#FF8500"/>
<path d="M121.998 25.8228L124.117 28.075L125.025 27.1741L122.906 24.9219L121.998 25.8228Z" fill="#FF8500"/>
<path d="M119.879 23.7212L121.998 25.8233L122.906 24.9224L120.636 22.8203L119.879 23.7212Z" fill="#FF8500"/>
<path d="M117.608 21.7681L119.879 23.72L120.636 22.8191L118.365 20.8672L117.608 21.7681Z" fill="#FF8500"/>
<path d="M115.187 19.8228L117.608 21.7747L118.365 20.8738L115.943 18.9219L115.187 19.8228Z" fill="#FF8500"/>
<path d="M112.765 18.1682H112.613L115.186 19.8199L115.943 18.919L113.37 17.1172L112.765 18.1682Z" fill="#FF8500"/>
<path d="M110.191 16.5198H110.04L112.765 18.1715L113.37 17.1204L110.797 15.4688L110.191 16.5198Z" fill="#FF8500"/>
<path d="M107.467 15.1621L110.191 16.5135L110.797 15.4624L108.072 14.1111V13.9609L107.467 15.1621Z" fill="#FF8500"/>
<path d="M104.895 13.8106L107.468 15.1619L108.073 13.9607L105.5 12.6094H105.349L104.895 13.8106Z" fill="#FF8500"/>
<path d="M102.17 12.6153H102.019L104.894 13.8165L105.349 12.6153L102.624 11.4141H102.473L102.17 12.6153Z" fill="#FF8500"/>
<path d="M99.2939 11.5606L102.17 12.6116L102.473 11.4104L99.748 10.3594H99.5967L99.2939 11.5606Z" fill="#FF8500"/>
<path d="M96.418 10.6621L99.2939 11.563L99.5966 10.3618L96.7207 9.46094H96.5693L96.418 10.6621Z" fill="#FF8500"/>
<path d="M93.542 9.31154L93.3906 9.76199L96.4179 10.6629L96.5692 9.46169L93.6933 8.71094L93.542 9.31154Z" fill="#FF8500"/>
<path d="M35.8731 17.4141L32.5431 20.1168L29.3645 23.1198L23.9155 29.1258L19.0719 35.5822L15.2878 42.339L12.2606 49.2459L9.99017 56.6033L8.62791 63.9606L8.32519 67.5642L8.02246 71.318V75.0717L8.62791 82.5792L9.99017 89.9366L12.1092 97.1438L14.8338 104.201L18.4665 110.958L22.7046 117.414L27.5482 123.42L30.2727 126.273L28.9105 122.669L26.3373 115.612L24.0669 108.856L22.0992 102.249L20.4342 95.6423L19.0719 89.1858L18.1637 82.8795L17.7096 76.4231V70.1168L18.3151 63.6603L19.2233 57.0537L20.8883 50.4471L23.0073 43.5402L25.8832 36.4831L27.5482 32.7294L29.3645 28.9756L31.3323 25.2219L33.4513 21.4681L35.8731 17.4141Z" fill="white" stroke="white" stroke-width="0.30151"/>
<path d="M26.186 60.5078L21.7965 60.9583L16.6501 63.8111L13.3202 66.8141L10.5957 71.1685L9.53612 74.6219L9.2334 76.4237V78.5258L9.53612 80.6279L13.6229 85.2826L14.3797 79.2766L15.5906 76.4237L18.9206 80.6279L23.9155 86.0333L27.0941 89.0363L30.8782 92.3396L34.965 95.7931L39.5058 99.0964L44.5008 102.25L49.6471 105.253L55.2475 107.805L61.1507 109.907L67.3565 111.559L73.8651 112.46L80.525 112.76L83.5523 112.46L89.7581 111.559L96.2667 109.757L102.775 107.054L109.435 103.301L112.765 101.048L115.944 98.4958L119.425 95.7931L122.755 92.7901L126.236 89.3366L129.566 85.5829L133.35 81.3787L134.107 86.0333L133.956 90.5378L133.805 92.1895L139.254 85.2826L139.859 83.4808L140.464 78.2255L140.313 76.4237L139.102 71.9192L136.226 68.0153L132.442 65.3126L129.264 64.2616L124.42 68.4658L127.75 71.3186L129.264 73.1204L129.869 75.0724L126.993 79.1264L122.755 83.3306L116.549 88.2856L110.041 92.0393L103.381 95.1925L96.4181 97.2946L89.1527 98.646L81.8873 99.2466H74.6219L66.5997 98.3456L58.8802 96.5438L54.9448 95.3426L51.1607 93.8411L44.0467 90.5378L40.414 88.5859L37.0841 86.4838L30.7268 81.8291L24.8237 76.2736L19.6774 70.4177L23.1587 67.2646L27.2455 65.0123L29.8187 63.5108L26.186 60.5078Z" fill="black" stroke="black" stroke-width="0.30151"/>
<path d="M30.1211 45.6492L31.1806 43.9976L32.5429 42.3459L34.0565 40.9946L35.7215 39.6432L37.2351 38.442L39.2028 37.391L40.8678 36.6402L42.6842 36.0396L44.6519 35.2889L46.3169 34.8384L48.1332 34.5381L49.6468 34.2378L51.3118 34.0877L53.2795 33.9375H55.2472L59.334 38.442H57.9717L56.3068 38.5922L54.4904 38.8925L52.5227 39.3429L50.555 39.7934L48.5873 40.5441L46.6196 41.1447L44.6519 42.0456L42.6842 42.9465L40.7165 43.9976L39.0515 45.1988L37.2351 46.4L35.8729 47.6012L34.5106 48.9525L33.4511 50.454L32.6943 51.9555L30.1211 45.6492Z" fill="black" stroke="black" stroke-width="0.30151"/>
<path d="M122.604 46.5494L121.393 44.8977L120.03 43.2461L118.668 41.7446L117.003 40.5434L115.338 39.3422L113.522 38.2911L111.857 37.3902L109.889 36.7896L108.073 36.189L106.256 35.7386L104.591 35.2881L102.926 35.138L101.413 34.8377H99.2938L97.326 34.6875L93.3906 39.3422H94.7529L96.4179 39.4923L98.2342 39.7926L100.051 40.0929L102.018 40.6935L103.986 41.2941L106.105 42.0449L108.073 42.7956L110.04 43.8467L111.857 44.8977L113.673 45.9488L115.338 47.15L116.852 48.5013L118.214 49.8527L119.274 51.3542L120.03 52.7055L122.604 46.5494Z" fill="black" stroke="black" stroke-width="0.30151"/>
</g>
<defs>
<clipPath id="clip0_2109_208976">
<rect width="150" height="150" fill="white"/>
</clipPath>
</defs>
</svg>
