<svg width="148" height="148" viewBox="0 0 148 148" fill="none" xmlns="http://www.w3.org/2000/svg">
<rect width="148" height="148" fill="#FF1F15"/>
<rect x="7" y="7" width="133" height="133" fill="#FF3B2D"/>
<rect x="13" y="14" width="122" height="120" fill="#FF5544"/>
<rect x="19" y="21" width="109" height="106" fill="#FF6A59"/>
<rect x="26" y="28" width="96" height="92" fill="#FF7F6D"/>
<rect x="32" y="34" width="83" height="80" fill="#FF9482"/>
<rect x="38" y="40" width="71" height="67" fill="#F8ED7D"/>
<rect x="38" y="40" width="71" height="67" fill="#F8ED7D"/>
<rect x="38" y="40" width="71" height="67" fill="#F8ED7D"/>
<rect x="38" y="40" width="71" height="67" fill="#F8ED7D"/>
<rect x="38" y="40" width="71" height="67" fill="#F8ED7D"/>
<rect x="38" y="40" width="71" height="67" fill="#FFA698"/>
<rect x="45" y="47" width="57" height="54" fill="#F8ED7D"/>
<rect x="45" y="47" width="57" height="54" fill="#F8ED7D"/>
<rect x="45" y="47" width="57" height="54" fill="#F8ED7D"/>
<rect x="45" y="47" width="57" height="54" fill="#F8ED7D"/>
<rect x="45" y="47" width="57" height="54" fill="#F8ED7D"/>
<rect x="45" y="47" width="57" height="54" fill="#FAF2A4"/>
<rect x="45" y="47" width="57" height="54" fill="#FFB5A8"/>
</svg>
