<svg width="150" height="150" viewBox="0 0 150 150" fill="none" xmlns="http://www.w3.org/2000/svg">
<g clip-path="url(#clip0_2109_163089)">
<path d="M24.9248 149.999V49.8984L124.925 149.999V49.8984L24.9248 149.999Z" stroke="black" stroke-width="0.424901"/>
<path d="M24.9249 100.102H0" stroke="black" stroke-width="0.424901"/>
<path d="M124.925 100.102H150" stroke="black" stroke-width="0.424901"/>
<path d="M24.9248 49.8998L25.9759 39.98L28.8287 30.3607L33.4834 21.9439L39.6395 14.4289L43.093 11.1222L46.9969 8.41683L51.0509 5.71142L55.5554 3.90782L60.0599 2.10421L64.8647 0.901804L69.8197 0H74.9248H80.0299L84.9849 0.901804L89.7897 2.10421L94.2942 3.90782L98.7987 5.71142L102.853 8.41683L106.757 11.1222L113.363 18.0361L118.769 26.1523L122.673 35.1703L124.625 44.7896L124.925 49.8998" stroke="black" stroke-width="0.424901"/>
</g>
<defs>
<clipPath id="clip0_2109_163089">
<rect width="150" height="150" fill="white"/>
</clipPath>
</defs>
</svg>
