<svg width="150" height="150" viewBox="0 0 150 150" fill="none" xmlns="http://www.w3.org/2000/svg">
<g clip-path="url(#clip0_2109_163042)">
<path d="M0 74.4746H74.9248" stroke="black" stroke-width="0.300601"/>
<path d="M112.688 74.4746H150" stroke="black" stroke-width="0.300601"/>
<path d="M74.9248 0L82.4474 1.35135L86.2087 3.3033L89.669 5.85586L92.979 9.00901L95.988 12.7628L98.997 17.1171L101.555 22.0721L103.962 27.3273L106.219 33.1832L108.024 39.3393L109.679 45.7958L111.033 52.5526L111.936 59.6096L112.538 66.967L112.688 74.4745L112.538 82.1321L111.936 89.6396L111.033 96.8468L109.679 103.604L108.024 110.21L106.219 116.517L103.962 122.372L101.555 127.628L98.997 132.583L95.988 136.937L92.979 140.841L89.669 143.994L86.2087 146.547L82.4474 148.498L74.9248 150" stroke="black" stroke-width="0.300601"/>
</g>
<defs>
<clipPath id="clip0_2109_163042">
<rect width="150" height="150" fill="white"/>
</clipPath>
</defs>
</svg>
