<svg width="150" height="150" viewBox="0 0 150 150" fill="none" xmlns="http://www.w3.org/2000/svg">
<g clip-path="url(#clip0_2109_224384)">
<path d="M74.9248 40.1406H136.787V79.2251H74.9248V40.1406Z" fill="#333300"/>
<path d="M78.0783 18.3828H50.1504V66.1293H68.769V44.58H78.0783V18.3828Z" fill="#7F7F59" stroke="black" stroke-width="0.356213"/>
<path d="M78.0785 22.6094H53.3037V61.9052H65.616V40.1446H78.0785V22.6094Z" fill="#B2B29B"/>
<path d="M78.0784 27.0391H56.3066V57.4616H62.6129V35.701H78.0784V27.0391Z" fill="#CCCCBD"/>
<path d="M50.1504 18.3828L68.769 44.58" stroke="black" stroke-width="0.356213"/>
<path d="M6.90723 57.4609H90.3907V79.2215H6.90723V57.4609Z" fill="#4C4C16" stroke="black" stroke-width="0.356213"/>
<path d="M6.90723 61.8984H90.3907V79.2224H6.90723V61.8984Z" fill="#666638"/>
<path d="M6.90723 67.3906H90.3907V79.2216H6.90723V67.3906Z" fill="#7F7F59"/>
<path d="M6.90723 72.6797H90.3907V79.229H6.90723V72.6797Z" fill="#99997A"/>
<path d="M3.75391 79.2236H37.838V66.125H81.0812V79.2236H146.096V140.28H3.75391V79.2236Z" fill="#666638" stroke="black" stroke-width="0.356213"/>
<path d="M3.9043 84.5033H40.8412V67.3906H78.0785V84.5033H146.096V134.996H3.9043V84.5033Z" fill="#7A7A51"/>
<path d="M3.9043 89.5781H146.096V129.719H3.9043V89.5781Z" fill="#8F8F6E"/>
<path d="M3.9043 94.8594H146.096V124.437H3.9043V94.8594Z" fill="#A3A387"/>
<path d="M3.9043 100.141H146.096V119.366H3.9043V100.141Z" fill="#B8B8A4"/>
<path d="M3.75391 105.422H146.096V114.084H3.75391V105.422Z" fill="#CCCCBD"/>
<path d="M0.600586 100.984H3.75374V148.942H0.600586V100.984Z" fill="#99997A" stroke="black" stroke-width="0.356213"/>
<path d="M0.600586 75H3.75374V100.986H0.600586V75Z" fill="#CCCCBD" stroke="black" stroke-width="0.356213"/>
<path d="M146.096 100.984H149.249V148.942H146.096V100.984Z" fill="#99997A" stroke="black" stroke-width="0.356213"/>
<path d="M146.096 75H149.249V100.986H146.096V75Z" fill="#CCCCBD" stroke="black" stroke-width="0.356213"/>
<path d="M43.9941 35.7031H74.9251V92.3228H43.9941V35.7031Z" fill="#B2B29B" stroke="black" stroke-width="0.356213"/>
<path d="M50.1504 96.7578H68.769V127.18H50.1504V96.7578Z" fill="#B2B29B" stroke="black" stroke-width="0.356213"/>
<path d="M78.0781 48.8015V13.9423L99.6997 5.28037V0.84375H112.012L118.168 5.28037V57.4635L112.012 61.9001H99.6997V57.4635L78.0781 48.8015Z" fill="#7F7F59"/>
<path d="M121.321 44.5761V0.84375H142.943V44.5761H121.321Z" fill="#B2B29B" stroke="black" stroke-width="0.356213"/>
<path d="M78.0781 46.2672V16.4784L99.6997 9.08407V5.28125H112.012L118.168 9.08407V53.6615L112.012 57.4643H99.6997V53.6615L78.0781 46.2672Z" fill="#99997A"/>
<path d="M78.0781 43.9441V19.0145L99.6997 12.6765V9.71875H112.012L118.168 12.6765V50.0709L112.012 53.2399H99.6997V50.0709L78.0781 43.9441Z" fill="#B2B29B"/>
<path d="M78.0781 38.8758V23.8758L99.6997 20.073V18.3828H112.012L118.168 20.073V42.6786L112.012 44.58H99.6997V42.6786L78.0781 38.8758Z" fill="#CCCCBD"/>
<path d="M78.0781 33.7996V28.9405L99.6997 27.6729V27.0391H112.012L118.168 27.6729V35.0672L112.012 35.701H99.6997V35.0672L78.0781 33.7996Z" fill="#E5E5DD"/>
<path d="M78.0781 48.8015V13.9423L99.6997 5.28037V0.84375H112.012L118.168 5.28037V57.4635L112.012 61.9001H99.6997V57.4635L78.0781 48.8015Z" stroke="black" stroke-width="0.356213"/>
<path d="M99.6992 57.4643V5.28125" stroke="black" stroke-width="0.356213"/>
<path d="M112.012 61.9001V0.84375" stroke="black" stroke-width="0.356213"/>
<path d="M102.853 61.9001V0.84375" stroke="black" stroke-width="0.356213"/>
<path d="M109.009 0.84375V61.9001" stroke="black" stroke-width="0.356213"/>
<path d="M115.165 61.8984H133.784V79.2224H115.165V61.8984Z" fill="#7F7F59"/>
<path d="M115.165 63.1719H133.784V77.9606H115.165V63.1719Z" fill="#99997A"/>
<path d="M115.165 64.4375H133.784V76.691H115.165V64.4375Z" fill="#B2B29B"/>
<path d="M115.165 66.7578H133.784V74.3634H115.165V66.7578Z" fill="#CCCCBD"/>
<path d="M115.165 69.2969H133.784V71.8321H115.165V69.2969Z" fill="#E5E5DD"/>
<path d="M115.165 61.8984H133.784V79.2224H115.165V61.8984Z" stroke="black" stroke-width="0.356213"/>
<path d="M115.165 66.1286H96.5464V48.8047H95.0449V68.4526H115.165V66.1286Z" fill="#666638" stroke="black" stroke-width="0.356213"/>
<path d="M100.45 70.5625H115.165V76.0555H100.45V70.5625Z" fill="#99997A" stroke="black" stroke-width="0.356213"/>
<path d="M99.7 79.2224V61.8984H96.5469V64.0111H98.1985V79.2224H99.7Z" fill="#99997A" stroke="black" stroke-width="0.356213"/>
<path d="M95.0447 61.8984H85.7354V64.0111H95.0447V61.8984Z" fill="#99997A" stroke="black" stroke-width="0.356213"/>
<path d="M54.0537 49.8594H64.8645V70.5636H54.0537V49.8594Z" fill="#4C4C4C"/>
<path d="M54.8047 51.125H64.114V69.5053H54.8047V51.125Z" fill="#E5E5E5"/>
<path d="M48.6484 83.6641H70.2701V90.2134H48.6484V83.6641Z" fill="#4C4C4C"/>
<path d="M50.1504 85.7734H59.4597V87.8861H50.1504V85.7734Z" fill="#990000"/>
<path d="M3.75391 53.2422H6.90706V79.2281H3.75391V53.2422Z" fill="#B2B29B" stroke="black" stroke-width="0.356213"/>
<path d="M73.423 38.0312H45.4951V90.2143" stroke="white" stroke-width="0.356213"/>
<path d="M67.267 98.875H51.6514V125.072" stroke="white" stroke-width="0.356213"/>
<path d="M64.1143 118.523H65.6158V120.636H64.1143V118.523Z" fill="black"/>
<path d="M53.3037 103.312H54.8052V105.425H53.3037V103.312Z" fill="black"/>
<path d="M64.1143 103.312H65.6158V105.425H64.1143V103.312Z" fill="black"/>
<path d="M50.1504 127.18H68.769V128.236H50.1504V127.18Z" fill="#4C4C16"/>
<path d="M43.9941 92.3203H74.9251V94.6443H43.9941V92.3203Z" fill="#4C4C16"/>
<path d="M122.823 42.2564V3.17188H141.442" stroke="white" stroke-width="0.356213"/>
</g>
<defs>
<clipPath id="clip0_2109_224384">
<rect width="150" height="150" fill="white"/>
</clipPath>
</defs>
</svg>
