<svg width="150" height="150" viewBox="0 0 150 150" fill="none" xmlns="http://www.w3.org/2000/svg">
<path d="M141.141 25.1406H149.099V36.7452H141.141V25.1406Z" fill="#B2B299" stroke="black" stroke-width="0.359262"/>
<path d="M141.141 62.1094H149.099V73.714H141.141V62.1094Z" fill="#B2B299" stroke="black" stroke-width="0.359262"/>
<path d="M141.141 99.0703H149.099V110.675H141.141V99.0703Z" fill="#B2B299" stroke="black" stroke-width="0.359262"/>
<path d="M141.141 28.7969H149.099V33.3098H141.141V28.7969Z" fill="#E5E5CC"/>
<path d="M141.141 65.7578H149.099V70.2707H141.141V65.7578Z" fill="#E5E5CC"/>
<path d="M141.141 102.719H149.099V107.232H141.141V102.719Z" fill="#E5E5CC"/>
<path d="M20.1201 111.75H103.904V134.959H20.1201V111.75Z" fill="#323219"/>
<path d="M52.4023 102.719L58.8588 139.467H84.5345L90.9909 102.719H52.4023Z" fill="#65654C" stroke="black" stroke-width="0.359262"/>
<path d="M7.20703 38.0391H123.273V111.75H7.20703V38.0391Z" fill="#65654C"/>
<path d="M7.20703 43.4062H123.423V106.157H7.20703V43.4062Z" fill="#77775E"/>
<path d="M7.20703 49H123.423V100.576H7.20703V49Z" fill="#87876E"/>
<path d="M7.20703 54.5859H123.423V94.9871H7.20703V54.5859Z" fill="#98987F"/>
<path d="M7.20703 59.9531H123.423V89.3944H7.20703V59.9531Z" fill="#AAAA91"/>
<path d="M7.20703 65.7578H123.423V84.0243H7.20703V65.7578Z" fill="#BABAA1"/>
<path d="M7.20703 71.3438H123.273V78.4354H7.20703V71.3438Z" fill="#CBCBB2"/>
<path d="M7.20703 38.0391H123.273V111.75H7.20703V38.0391Z" stroke="black" stroke-width="0.359262"/>
<path d="M129.73 144.195L136.186 120.986V10.3125H7.20703V47.2753H123.273V144.195H129.73Z" fill="#B2B299"/>
<path d="M7.20703 10.3125V24.0661H136.186V10.3125H7.20703Z" fill="#CBCBB2"/>
<path d="M7.20703 10.3125V15.0403H136.186V10.3125H7.20703Z" fill="#E5E5CC"/>
<path d="M129.73 144.195L136.186 120.986V10.3125H7.20703V47.2753H123.273V144.195H129.73Z" stroke="black" stroke-width="0.359262"/>
<path d="M84.5342 33.3125H129.729V102.725H84.5342V33.3125Z" fill="#CBCBB2" stroke="black" stroke-width="0.359262"/>
<path d="M126.576 97.9961V38.0391" stroke="#65654C" stroke-width="0.359262"/>
<path d="M90.9912 56.5156H100.751V74.997H90.9912V56.5156Z" fill="#4C4C4C"/>
<path d="M91.8916 57.5938H99.9997V73.7112H91.8916V57.5938Z" fill="white"/>
<path d="M88.7383 95.6328H103.153V99.0712H88.7383V95.6328Z" fill="#4C4C4C"/>
<path d="M89.4893 96.9219H94.2941V97.9964H89.4893V96.9219Z" fill="#990000"/>
<path d="M87.8379 97.9961V38.0391" stroke="white" stroke-width="0.359262"/>
<path d="M108.859 94.5547H110.361V96.9186H108.859V94.5547Z" fill="black"/>
<path d="M103.904 94.5547H105.556V96.9186H103.904V94.5547Z" fill="black"/>
<path d="M108.859 76.0781H110.361V78.442H108.859V76.0781Z" fill="black"/>
<path d="M103.904 76.0781H105.556V78.442H103.904V76.0781Z" fill="black"/>
<path d="M108.859 57.5938H110.361V59.9576H108.859V57.5938Z" fill="black"/>
<path d="M103.904 57.5938H105.556V59.9576H103.904V57.5938Z" fill="black"/>
<path d="M103.904 39.1094H105.556V41.4733H103.904V39.1094Z" fill="black"/>
<path d="M108.859 39.1094H110.361V41.4733H108.859V39.1094Z" fill="black"/>
<path d="M20.1199 144.201H13.6635L7.20703 120.992V93.4844H20.1199V144.201Z" fill="#B2B299"/>
<path d="M7.20703 93.4844V120.992L13.6635 144.201H20.1199V93.4844" stroke="black" stroke-width="0.359262"/>
<path d="M20.1201 116.477H29.7297V139.471H20.1201V116.477Z" fill="#7F7F66" stroke="black" stroke-width="0.359262"/>
<path d="M52.4022 97.9922V134.955H39.4893V139.468H36.1859V134.955H29.7295V130.227H36.1859V125.714H39.4893V130.227H49.0989V97.9922H52.4022Z" fill="#98987F" stroke="black" stroke-width="0.359262"/>
<path d="M39.4893 51.7891H42.6424V120.987H39.4893V51.7891Z" fill="#98987F" stroke="black" stroke-width="0.359262"/>
<path d="M26.5767 125.713V107.232H33.0332V102.719H23.2734V125.713H26.5767Z" fill="#B2B299" stroke="black" stroke-width="0.359262"/>
<path d="M58.8594 19.5547H78.0786V21.7037H58.8594V19.5547Z" fill="#E5E5CC" stroke="black" stroke-width="0.359262"/>
<path d="M58.8594 19.5595V17.1956H62.0125V12.4678H63.6642V1.07812H68.469V7.95492H71.7723V14.8317H76.5771V17.1956H78.0786V19.5595H58.8594Z" fill="#323219"/>
<path d="M63.6641 12.4609H69.2196" stroke="#98987F" stroke-width="0.359262"/>
<path d="M10.3604 144.195H20.1201V148.708H10.3604V144.195Z" fill="#323219" stroke="black" stroke-width="0.359262"/>
<path d="M123.273 144.195H133.033V148.708H123.273V144.195Z" fill="#323219" stroke="black" stroke-width="0.359262"/>
<path d="M110.361 125.719V137.323H108.859V141.836H115.316V137.323H113.664V125.719H110.361Z" fill="#4C4C33" stroke="black" stroke-width="0.359262"/>
<path d="M0.750977 24.0703H5.55578V120.99H0.750977V24.0703Z" fill="#98987F" stroke="black" stroke-width="0.359262"/>
<path d="M136.187 19.5547H141.141V42.549H136.187V19.5547Z" fill="#98987F" stroke="black" stroke-width="0.359262"/>
<path d="M136.187 56.5156H141.141V79.5099H136.187V56.5156Z" fill="#98987F" stroke="black" stroke-width="0.359262"/>
<path d="M136.187 93.4844H141.141V116.479H136.187V93.4844Z" fill="#98987F" stroke="black" stroke-width="0.359262"/>
<path d="M5.55566 10.3125H7.20732V122.275H5.55566V10.3125Z" fill="#CBCBB2" stroke="black" stroke-width="0.359262"/>
<path d="M45.7959 107.234H123.273V125.716H45.7959V107.234Z" fill="#65654C"/>
<path d="M45.9463 108.523H123.274V124.211H45.9463V108.523Z" fill="#77775E"/>
<path d="M45.9463 110.031H123.274V122.925H45.9463V110.031Z" fill="#87876E"/>
<path d="M45.9463 111.32H123.274V121.421H45.9463V111.32Z" fill="#98987F"/>
<path d="M45.9463 112.82H123.274V120.127H45.9463V112.82Z" fill="#AAAA91"/>
<path d="M45.9463 114.109H123.274V118.622H45.9463V114.109Z" fill="#BABAA1"/>
<path d="M45.7959 115.617H123.273V117.336H45.7959V115.617Z" fill="#CBCBB2"/>
<path d="M45.7959 107.234H123.273V125.716H45.7959V107.234Z" stroke="black" stroke-width="0.359262"/>
<path d="M65.3154 76.0781H78.0782V108.313H65.3154V76.0781Z" fill="#E5E5CC" stroke="black" stroke-width="0.359262"/>
<path d="M107.207 33.3125V102.725" stroke="black" stroke-width="0.359262"/>
<path d="M58.8594 21.7031V30.9438" stroke="black" stroke-width="0.359262"/>
<path d="M78.0781 30.9438V21.7031" stroke="black" stroke-width="0.359262"/>
<path d="M71.7715 79.5156H74.9246" stroke="black" stroke-width="0.359262"/>
<path d="M65.3154 102.719H78.0782" stroke="black" stroke-width="0.359262"/>
</svg>
