<svg width="150" height="150" viewBox="0 0 150 150" fill="none" xmlns="http://www.w3.org/2000/svg">
<g clip-path="url(#clip0_2109_224715)">
<path d="M6.94644 149.099L4.55859 84.2344H117.221V149.099H6.94644Z" fill="#F2F2E5"/>
<path d="M6.94671 149.101L5.86133 123.125L117.222 90.2422V148.05L6.94671 149.101Z" fill="#EAEADD"/>
<path d="M6.94629 149.102V131.234L117.221 98.3516V149.102H6.94629Z" fill="#E0E0D3"/>
<path d="M6.94629 149.102V137.691L117.221 104.508V149.102H6.94629Z" fill="#D8D8CB"/>
<path d="M5.42732 98.7956L4.99316 90.6875H117.222V98.7956H5.42732Z" fill="#990000"/>
<path d="M5.64411 106.905L5.20996 98.7969H117.222V106.905H5.64411Z" fill="#FF0000"/>
<path d="M5.86133 115.014V106.906H117.222V115.014H5.86133Z" fill="#FFCC00"/>
<path d="M4.55859 80.9301L6.94644 22.6719H114.834L117.221 80.9301H4.55859Z" fill="#F7F7F0" stroke="black" stroke-width="0.361077"/>
<path d="M117.222 149.1V79.4306L114.834 22.6738L142.837 12.9141L145.225 71.3225V139.34L117.222 149.1Z" fill="#E5E5CC" stroke="black" stroke-width="0.361077"/>
<path d="M124.168 6.45646V0L105.499 6.45646V12.9129L124.168 6.45646Z" fill="#E5E5CC" stroke="black" stroke-width="0.361077"/>
<path d="M0 80.9297V84.233H121.78V80.9297H0Z" fill="#F7F7F0" stroke="black" stroke-width="0.361077"/>
<path d="M150 71.3203V74.4735L121.78 84.2332V80.9299L150 71.3203Z" fill="#E5E5CC" stroke="black" stroke-width="0.361077"/>
<path d="M0 80.9299L4.77569 79.4284H119.392L145.224 71.3203H150L121.78 80.9299H0Z" fill="#F7F7F0" stroke="black" stroke-width="0.361077"/>
<path d="M18.6689 139.34V119.82H103.112V139.19L18.6689 139.34Z" fill="#3F3F4C"/>
<path d="M28.0029 138.587V120.719" stroke="black" stroke-width="0.361077"/>
<path d="M37.5547 138.587V120.719" stroke="black" stroke-width="0.361077"/>
<path d="M46.8887 138.587V120.719" stroke="black" stroke-width="0.361077"/>
<path d="M56.2227 138.587V120.719" stroke="black" stroke-width="0.361077"/>
<path d="M65.5576 138.587V120.719" stroke="black" stroke-width="0.361077"/>
<path d="M74.8916 138.587V120.719" stroke="black" stroke-width="0.361077"/>
<path d="M84.4424 138.587V120.719" stroke="black" stroke-width="0.361077"/>
<path d="M93.7773 138.587V120.719" stroke="black" stroke-width="0.361077"/>
<path d="M117.222 98.7976V90.6894L145.225 80.9297V89.0378L117.222 98.7976Z" fill="#660000"/>
<path d="M117.222 106.905V98.7971L145.225 89.1875V97.2956L117.222 106.905Z" fill="#CC0000"/>
<path d="M117.222 115.166V106.908L145.225 97.1484V105.407L117.222 115.166Z" fill="#CC9900"/>
<path d="M121.78 139.338V119.968L142.837 112.461V131.68L121.78 139.338Z" fill="#262633"/>
<path d="M6.94644 149.099L4.55859 84.2344H117.004V149.099H6.94644Z" stroke="black" stroke-width="0.361077"/>
<path d="M30.3906 51.8047H86.6135V71.3242H30.3906V51.8047Z" fill="#F2F2E5"/>
<path d="M35.166 54.9531H82.0546V68.0162H35.166V54.9531Z" fill="#F7F7F0"/>
<path d="M30.3906 71.3242H86.6135V51.8047" stroke="#98987F" stroke-width="0.361077"/>
<path d="M82.0546 54.9531H35.166V68.0162" stroke="#98987F" stroke-width="0.361077"/>
<path d="M58.6104 65.3156C67.0026 65.3156 73.8058 63.5678 73.8058 61.4117C73.8058 59.2556 67.0026 57.5078 58.6104 57.5078C50.2182 57.5078 43.415 59.2556 43.415 61.4117C43.415 63.5678 50.2182 65.3156 58.6104 65.3156Z" fill="black"/>
<path d="M89.001 35.5846L90.3034 33.3323L93.5596 32.2812L97.0328 33.3323L98.3353 35.5846L97.0328 37.8368L93.5596 38.8879L90.3034 37.8368L89.001 35.5846Z" fill="#4C4C4C"/>
<path d="M23.4443 35.5846L24.7468 33.3323L28.0029 32.2812L31.4762 33.3323L32.7786 35.5846L31.4762 37.8368L28.0029 38.8879L24.7468 37.8368L23.4443 35.5846Z" fill="#4C4C4C"/>
<path d="M91.3896 35.5892L92.0409 34.388L93.7775 33.9375L95.297 34.388L96.1653 35.5892L95.297 36.7904L93.7775 37.2408L92.0409 36.7904L91.3896 35.5892Z" fill="#CCCCCC"/>
<path d="M25.6152 35.5892L26.2665 34.388L28.0031 33.9375L29.7397 34.388L30.3909 35.5892L29.7397 36.7904L28.0031 37.2408L26.2665 36.7904L25.6152 35.5892Z" fill="#CCCCCC"/>
<path d="M117.221 140.242V150.002H107.67V148.35H110.058V140.242H117.221Z" fill="#CCCCBF" stroke="black" stroke-width="0.361077"/>
<path d="M13.8929 140.242V150.002H4.55859V148.35H6.94644V140.242H13.8929Z" fill="#CCCCBF" stroke="black" stroke-width="0.361077"/>
<path d="M6.94629 148.352H13.8927" stroke="black" stroke-width="0.361077"/>
<path d="M110.058 148.352H117.221" stroke="black" stroke-width="0.361077"/>
<path d="M28.0029 12.9096V6.45312H105.499V12.9096H28.0029Z" fill="#F2F2E5" stroke="black" stroke-width="0.361077"/>
<path d="M142.836 12.9096L124.168 6.45312L105.499 12.9096L114.833 22.6693L142.836 12.9096Z" fill="#F2F2E5" stroke="black" stroke-width="0.361077"/>
<path d="M46.8886 0L28.0029 6.45646H105.499L124.168 0H46.8886Z" fill="#FCFCFA" stroke="black" stroke-width="0.361077"/>
<path d="M6.94629 22.6738L28.0027 12.9141H105.499L114.833 22.6738H6.94629Z" fill="#FCFCFA" stroke="black" stroke-width="0.361077"/>
</g>
<defs>
<clipPath id="clip0_2109_224715">
<rect width="150" height="150" fill="white"/>
</clipPath>
</defs>
</svg>
