<svg width="150" height="150" viewBox="0 0 150 150" fill="none" xmlns="http://www.w3.org/2000/svg">
<g clip-path="url(#clip0_2109_224442)">
<path d="M117.868 78.6972V49.7734H130.931V78.6972H117.868Z" fill="#4C4C4C" stroke="black" stroke-width="0.449439"/>
<path d="M18.9189 78.3609V49.7734H31.8319V78.3609H18.9189Z" fill="#4C4C4C" stroke="black" stroke-width="0.449439"/>
<path d="M11.1111 128.479L6.75676 126.797L3.15315 121.08L0.750751 113.008L0 103.591L0.750751 93.8377L3.15315 85.7659L6.75676 80.3847L11.1111 78.7031H138.739L143.093 80.3847L146.697 85.7659L149.099 93.8377L149.85 103.591L149.099 113.008L146.697 121.08L143.093 126.797L138.739 128.479H11.1111Z" fill="#B8B8B8"/>
<path d="M11.1111 49.7758L6.75676 48.0942L3.15315 42.3767L0.750751 34.3049L0 24.8879L0.750751 15.1345L3.15315 7.06278L6.75676 1.68161L11.1111 0H138.739L143.093 1.68161L146.697 7.06278L149.099 15.1345L149.85 24.8879L149.099 34.3049L146.697 42.3767L143.093 48.0942L138.739 49.7758H11.1111Z" fill="#B8B8B8"/>
<path d="M11.1113 128.479V78.7031H138.739V128.479H11.1113Z" fill="#7F7F7F"/>
<path d="M11.1113 49.7758V0H138.739V49.7758H11.1113Z" fill="#7F7F7F"/>
<path d="M11.1113 123.092V84.0781H138.739V123.092H11.1113Z" fill="#A1A1A1"/>
<path d="M11.1113 44.3963V5.38281H138.739V44.3963H11.1113Z" fill="#A1A1A1"/>
<path d="M11.1113 117.712V89.4609H138.739V117.712H11.1113Z" fill="#B8B8B8"/>
<path d="M11.1113 39.0167V10.7656H138.739V39.0167H11.1113Z" fill="#B8B8B8"/>
<path d="M11.1113 112.333V94.8438H138.739V112.333H11.1113Z" fill="#CFCFCF"/>
<path d="M11.1113 33.6294V16.1406H138.739V33.6294H11.1113Z" fill="#CFCFCF"/>
<path d="M11.1113 106.616V100.562H138.739V106.616H11.1113Z" fill="white"/>
<path d="M11.1113 27.9132V21.8594H138.739V27.9132H11.1113Z" fill="white"/>
<path d="M11.1113 78.7031V128.479" stroke="black" stroke-width="0.449439"/>
<path d="M138.738 78.7031V128.479" stroke="black" stroke-width="0.449439"/>
<path d="M11.1113 0V49.7758" stroke="black" stroke-width="0.449439"/>
<path d="M138.738 0V49.7758" stroke="black" stroke-width="0.449439"/>
<path d="M14.2646 150.001L17.4178 128.812H132.283L135.586 150.001H14.2646Z" fill="#7F7F7F" stroke="black" stroke-width="0.449439"/>
<path d="M11.1111 128.479L6.75676 126.797L3.15315 121.08L0.750751 113.008L0 103.591L0.750751 93.8377L3.15315 85.7659L6.75676 80.3847L11.1111 78.7031H138.739L143.093 80.3847L146.697 85.7659L149.099 93.8377L149.85 103.591L149.099 113.008L146.697 121.08L143.093 126.797L138.739 128.479H11.1111Z" stroke="black" stroke-width="0.449439"/>
<path d="M11.1111 49.7758L6.75676 48.0942L3.15315 42.3767L0.750751 34.3049L0 24.8879L0.750751 15.1345L3.15315 7.06278L6.75676 1.68161L11.1111 0H138.739L143.093 1.68161L146.697 7.06278L149.099 15.1345L149.85 24.8879L149.099 34.3049L146.697 42.3767L143.093 48.0942L138.739 49.7758H11.1111Z" stroke="black" stroke-width="0.449439"/>
<path d="M121.171 85.7603H49.3994V42.7109H121.171V85.7603Z" fill="#7F7F7F"/>
<path d="M117.568 85.4239H53.1533V42.7109H117.568V85.4239Z" fill="#8F8F8F"/>
<path d="M113.814 85.4239H56.9072V42.7109H113.814V85.4239Z" fill="#9C9C9C"/>
<path d="M110.06 85.4239H60.6602V42.7109H110.06V85.4239Z" fill="#ABABAB"/>
<path d="M106.307 85.4239H64.2646V42.7109H106.307V85.4239Z" fill="#B8B8B8"/>
<path d="M102.702 85.4239H68.0176V42.7109H102.702V85.4239Z" fill="#C7C7C7"/>
<path d="M98.9487 85.4239H71.7715V42.7109H98.9487V85.4239Z" fill="#D4D4D4"/>
<path d="M95.1951 85.4239H75.5254V42.7109H95.1951V85.4239Z" fill="#E3E3E3"/>
<path d="M91.4412 85.4239H79.1289V42.7109H91.4412V85.4239Z" fill="#F0F0F0"/>
<path d="M87.6876 85.7603H82.8828V42.7109H87.6876V85.7603Z" fill="white"/>
<path d="M121.171 85.7603H49.249V42.7109H121.171V85.7603Z" stroke="black" stroke-width="0.449439"/>
</g>
<defs>
<clipPath id="clip0_2109_224442">
<rect width="150" height="150" fill="white"/>
</clipPath>
</defs>
</svg>
