<svg width="150" height="150" viewBox="0 0 150 150" fill="none" xmlns="http://www.w3.org/2000/svg">
<g clip-path="url(#clip0_2109_224213)">
<path d="M118.619 126.213H115.466V114.562H118.619V126.213Z" fill="#4C7F7F"/>
<path d="M118.619 129.447H43.5439V126.211H118.619V129.447Z" fill="#4C7F7F"/>
<path d="M43.5438 129.449H40.3906V114.562H43.5438V129.449Z" fill="#4C7F7F"/>
<path d="M42.4925 128.64H41.4414V114.562H42.4925V128.64Z" fill="#B2E5E5"/>
<path d="M117.568 127.022H116.517V114.562H117.568V127.022Z" fill="#B2E5E5"/>
<path d="M117.718 127.344V128.315H42.793V127.344H117.718Z" fill="#B2E5E5"/>
<path d="M66.5166 56.7943V17.3121H83.3334V13.9141H95.6457V17.3121H106.306V56.7943H66.5166Z" fill="#336666" stroke="black" stroke-width="0.311744"/>
<path d="M66.5166 38.6719H101.652V48.5424H66.5166V38.6719Z" fill="#194C4C"/>
<path d="M11.4111 114.564H130.781V89.8066H135.435V63.4312H100.15V56.7969H22.0718V65.0493H58.8586V89.8066H11.4111V114.564Z" fill="#003333" stroke="black" stroke-width="0.311744"/>
<path d="M81.832 56.7969H93.9942V70.0655H81.832V56.7969Z" fill="#669999" stroke="black" stroke-width="0.311744"/>
<path d="M26.7266 70.0645H42.0419V58.4141H26.7266V70.0645Z" fill="#669999" stroke="black" stroke-width="0.311744"/>
<path d="M81.832 109.711H93.9942V145.957H81.832V109.711Z" fill="#669999" stroke="black" stroke-width="0.311744"/>
<path d="M54.2041 119.578H69.5194V136.083H54.2041V119.578Z" fill="#669999" stroke="black" stroke-width="0.311744"/>
<path d="M20.5703 109.711H32.7325V145.957H20.5703V109.711Z" fill="#669999" stroke="black" stroke-width="0.311744"/>
<path d="M35.8857 20.5517H46.5464V4.04688H35.8857V20.5517Z" fill="#7FB2B2"/>
<path d="M14.4141 145.953H32.7324V149.189H14.4141V145.953Z" fill="#99CCCC" stroke="black" stroke-width="0.311744"/>
<path d="M81.832 145.953H100.15V149.189H81.832V145.953Z" fill="#99CCCC" stroke="black" stroke-width="0.311744"/>
<path d="M32.7324 136.086H81.8315V142.72H32.7324V136.086Z" fill="#336666" stroke="black" stroke-width="0.311744"/>
<path d="M78.8291 7.28125H100.15V13.9156H78.8291V7.28125Z" fill="#7F7F7F"/>
<path d="M2.25224 70.0625H130.781V79.9331H136.937L137.688 89.8036L136.937 99.6741H130.781V109.707H2.25224L0.600586 89.8036L2.25224 70.0625Z" fill="#4C7F7F"/>
<path d="M2.25224 74.1094H130.931V81.8764H136.937L137.688 89.8052L136.937 97.5722H130.931V105.501H2.25224L0.600586 89.8052L2.25224 74.1094Z" fill="#5E9191"/>
<path d="M2.25224 78.3203H130.931V83.9837H136.937L137.688 89.809L136.937 95.6342H130.931V101.298H2.25224L0.600586 89.809L2.25224 78.3203Z" fill="#73A6A6"/>
<path d="M2.25224 82.3594H130.931V86.0811H136.937L137.688 89.8027L136.937 93.5244H130.931V97.2461H2.25224L0.600586 89.8027L2.25224 82.3594Z" fill="#85B8B8"/>
<path d="M2.25224 86.5703H130.781V88.1884H136.937L137.688 89.8066L136.937 91.4247H130.781V93.2046H2.25224L0.600586 89.8066L2.25224 86.5703Z" fill="#99CCCC"/>
<path d="M2.25224 70.0625H130.781V79.933H136.937L137.688 89.8036L136.937 99.6741H130.781V109.707H2.25224L0.600586 89.8036L2.25224 70.0625Z" stroke="black" stroke-width="0.311744"/>
<path d="M130.781 99.6786V79.9375" stroke="black" stroke-width="0.311744"/>
<path d="M106.307 73.301H149.25V10.6797H106.307V73.301Z" fill="#669999" stroke="black" stroke-width="0.311744"/>
<path d="M49.6992 20.5469H66.516V60.1909H49.6992V20.5469Z" fill="#4C7F7F"/>
<path d="M32.7324 37.0517L35.8856 20.5469H49.6994V58.411H32.7324V37.0517Z" fill="#4C7F7F"/>
<path d="M15.9156 40.2909V37.0547H32.7324V58.4139H15.9156V55.1777H8.25796V58.4139H2.25195V37.0547H8.25796V40.2909H15.9156Z" fill="#4C7F7F"/>
<path d="M49.6992 24.5938H66.516V55.9853H49.6992V24.5938Z" fill="#5E9191"/>
<path d="M32.8828 37.5387L35.8858 24.5938H49.6996V54.3672H32.8828V37.5387Z" fill="#5E9191"/>
<path d="M16.0658 41.7508V40.1327V39.3236V39H16.5162H32.282H32.8826V39.6472V55.8285V56.3139H32.282H30.7805H18.1679H16.5162H16.0658V54.6958V53.7249H14.1138H9.30901H8.40811V55.343V56.3139H6.90661H3.0027H2.55225H2.25195V55.8285V54.2104V41.2654V39.6472V39H8.40811V40.6181V41.7508H16.0658Z" fill="#5E9191"/>
<path d="M49.6992 28.6406H66.516V51.7798H49.6992V28.6406Z" fill="#73A6A6"/>
<path d="M32.8828 38.0257L35.8858 28.6406H49.6996V50.1617H32.8828V38.0257Z" fill="#73A6A6"/>
<path d="M16.0658 43.0433V41.587V41.4252V41.1016H16.5162H32.282H32.8826V41.9106V53.3993V54.3702H32.282L30.7805 54.2084H18.1679L16.5162 54.3702H16.0658V52.752V52.2666H14.1138H9.30901H8.40811V54.0465V54.3702L6.90661 54.2084H3.0027L2.55225 54.3702H2.25195V53.3993V51.7812V42.7197V41.1016H8.40811V42.8815V43.0433H16.0658Z" fill="#73A6A6"/>
<path d="M49.6992 32.8516H66.516V47.7383H49.6992V32.8516Z" fill="#85B8B8"/>
<path d="M32.8828 38.5127L35.8858 32.6875H49.6996V46.1179H32.8828V38.5127Z" fill="#85B8B8"/>
<path d="M16.0658 44.4976V43.3649V43.2031H16.5162H32.282H32.8826V43.6886V51.6174V52.2646H32.282H30.7805H18.1679H16.5162H16.0658V50.8083H14.1138H9.30901H8.40811V52.2646H6.90661H3.0027H2.55225H2.25195V51.6174V49.9992V44.3358V43.2031H8.40811V44.4976H16.0658Z" fill="#85B8B8"/>
<path d="M49.6992 37.0547H66.516V43.689H49.6992V37.0547Z" fill="#99CCCC"/>
<path d="M32.7324 39.156L35.8856 36.8906H49.6994V42.0686H32.7324V39.156Z" fill="#99CCCC"/>
<path d="M15.9156 45.9519V45.3047H32.7324V50.3209H15.9156V49.5118H8.25796V50.3209H2.25195V45.3047H8.25796V45.9519H15.9156Z" fill="#99CCCC"/>
<path d="M38.1377 20.5517H44.2939V4.04688H38.1377V20.5517Z" fill="#99CCCC"/>
<path d="M40.3906 20.5517H42.0423V4.04688H40.3906V20.5517Z" fill="#B2E5E5"/>
<path d="M35.8857 20.5517H46.5464V4.04688H35.8857V20.5517Z" stroke="black" stroke-width="0.311744"/>
<path d="M81.832 7.28125H97.1473V13.9156H81.832V7.28125Z" fill="#B2B2B2"/>
<path d="M86.4863 7.28125H92.6425V13.9156H86.4863V7.28125Z" fill="#E5E5E5"/>
<path d="M78.8291 7.28125H100.15V13.9156H78.8291V7.28125Z" stroke="black" stroke-width="0.311744"/>
<path d="M86.4863 35.4375H100.15V51.9424H86.4863V35.4375Z" fill="#4C7F7F" stroke="black" stroke-width="0.311744"/>
<path d="M68.0176 35.4375H81.8314V51.9424H68.0176V35.4375Z" fill="#4C7F7F" stroke="black" stroke-width="0.311744"/>
<path d="M107.808 112.945V116.182H11.4111V112.945H107.808Z" fill="#4C7F7F"/>
<path d="M14.4141 63.4297H17.5672V112.944H14.4141V63.4297Z" fill="#4C7F7F"/>
<path d="M77.1768 60.1953V63.4316H14.4141V60.1953H77.1768Z" fill="#4C7F7F"/>
<path d="M77.1771 61.3281V62.299H15.165V61.3281H77.1771Z" fill="#B2E5E5"/>
<path d="M15.4658 62.625H16.5169V113.758H15.4658V62.625Z" fill="#B2E5E5"/>
<path d="M107.808 114.078V115.211H11.4111V114.078H107.808Z" fill="#B2E5E5"/>
<path d="M107.808 12.2969H147.597V25.4037H107.808V12.2969Z" fill="#99CCCC"/>
<path d="M107.808 27.1875H147.597V71.6859H107.808V27.1875Z" fill="#99CCCC"/>
<path d="M121.622 38.6719H144.595V55.1767H121.622V38.6719Z" fill="#7FB2B2" stroke="black" stroke-width="0.311744"/>
<path d="M123.123 40.2891H129.279V53.5577H123.123V40.2891Z" fill="#E5E5E5"/>
<path d="M130.781 48.5469H143.094V53.5631H130.781V48.5469Z" fill="#E5E5CB"/>
<path d="M110.961 37.0547H115.465V40.2909H110.961V37.0547Z" fill="#CC6666"/>
<path d="M42.0423 4.0465V0.648438H31.2314V12.2989H35.8861" stroke="black" stroke-width="0.311744"/>
<path d="M26.7266 37.0536V17.3125H35.8857" stroke="black" stroke-width="0.311744"/>
<path d="M40.3902 4.0465V0.648438H26.7266V17.3151" stroke="black" stroke-width="0.311744"/>
<path d="M49.6992 58.411V20.5469" stroke="black" stroke-width="0.311744"/>
<path d="M32.7324 37.0517L35.8856 20.5469H66.5162V60.1909H49.6994V58.411H32.7324V37.0517Z" stroke="black" stroke-width="0.311744"/>
<path d="M15.9156 40.2909V37.0547H32.7324V58.4139H15.9156V55.1777H8.25796V58.4139H2.25195V37.0547H8.25796V40.2909H15.9156Z" stroke="black" stroke-width="0.311744"/>
<path d="M8.25781 55.1758V40.2891" stroke="black" stroke-width="0.311744"/>
<path d="M15.916 40.2891V55.1758" stroke="black" stroke-width="0.311744"/>
<path d="M104.805 22.1674L106.306 27.1836L101.652 30.4199L97.1471 27.1836L92.4925 30.4199L87.988 27.1836L83.3333 30.4199L78.8288 27.1836L74.1742 30.4199L69.5195 27.1836V20.5493L60.3604 22.1674V12.2969L90.991 17.3131L104.805 22.1674Z" fill="#669999" stroke="black" stroke-width="0.311744"/>
<path d="M69.52 18.9302V15.5322L61.8623 13.9141V20.5484L69.52 18.9302Z" fill="#99CCCC"/>
</g>
<defs>
<clipPath id="clip0_2109_224213">
<rect width="150" height="150" fill="white"/>
</clipPath>
</defs>
</svg>
