<svg width="150" height="150" viewBox="0 0 150 150" fill="none" xmlns="http://www.w3.org/2000/svg">
<path d="M120.12 91.119H136.186V24.0703H123.273V28.7981H133.033V86.6061H120.12V91.119Z" fill="#66380A" stroke="black" stroke-width="0.359262"/>
<path d="M142.643 132.594H149.099V100.359H142.643V104.872H145.946V128.081H142.643V132.594Z" fill="#66380A" stroke="black" stroke-width="0.359262"/>
<path d="M142.643 102.719H147.598V130.226H142.643" stroke="#FFCC00" stroke-width="0.359262"/>
<path d="M123.273 26.4297H134.685V88.7506H123.273" stroke="#FFCC00" stroke-width="0.359262"/>
<path d="M23.2734 88.75H120.12V141.83H23.2734V88.75Z" fill="#4C4C33"/>
<path d="M50.751 114.109H74.9251V134.955H50.751V114.109Z" fill="#323219"/>
<path d="M62.0117 134.953H66.8165V146.558H62.0117V134.953Z" fill="#323219"/>
<path d="M49.0996 88.75H58.8594V118.836H49.0996V88.75Z" fill="#65654C" stroke="black" stroke-width="0.359262"/>
<path d="M68.4688 91.1172H89.4898V116.475H68.4688V91.1172Z" fill="#7F7F66" stroke="black" stroke-width="0.359262"/>
<path d="M26.5762 88.75V148.707H33.0326L45.9455 88.75H97.447L110.36 148.707H116.816V88.75H26.5762Z" fill="#98987F" stroke="black" stroke-width="0.359262"/>
<path d="M20.1201 88.7572V1.07812H123.273V88.7572H20.1201Z" fill="#E5E5CC"/>
<path d="M71.7715 88.7539V47.2783L123.273 28.7969V88.7539H71.7715Z" fill="#DDDDC4"/>
<path d="M20.1201 88.7539V47.2783L71.7718 28.7969V88.7539H20.1201Z" fill="#DDDDC4"/>
<path d="M71.7715 88.7554V56.5204L123.273 38.0391V88.7554H71.7715Z" fill="#D3D3BA"/>
<path d="M20.1201 88.7554V56.5204L71.7718 38.0391V88.7554H20.1201Z" fill="#D3D3BA"/>
<path d="M20.1201 88.7503V61.0282L71.7718 42.5469V88.7503H20.1201Z" fill="#CBCBB2"/>
<path d="M71.7715 88.7503V61.0282L123.273 42.5469V88.7503H71.7715Z" fill="#CBCBB2"/>
<path d="M71.7715 1.07812V88.7572" stroke="#323219" stroke-width="0.359262"/>
<path d="M74.9248 84.2392V5.58594H120.12" stroke="white" stroke-width="0.359262"/>
<path d="M23.2734 84.2392V5.58594H68.4686" stroke="white" stroke-width="0.359262"/>
<path d="M74.9248 84.2392H120.12V5.58594" stroke="#B2B299" stroke-width="0.359262"/>
<path d="M23.2734 84.2392H68.4686V5.58594" stroke="#B2B299" stroke-width="0.359262"/>
<path d="M36.1865 10.3125H55.5559V19.5532H36.1865V10.3125Z" fill="#4C4C4C"/>
<path d="M42.6426 61.0312H49.099V74.9997H42.6426V61.0312Z" fill="#4C4C4C"/>
<path d="M38.4385 13.3203H44.8949V16.3289H38.4385V13.3203Z" fill="#990000"/>
<path d="M20.1201 88.7572V1.07812H123.273V88.7572H20.1201Z" stroke="black" stroke-width="0.359262"/>
<path d="M0.750977 120.989H9.60984V116.477H15.4657V120.989H127.928V116.477H133.934V120.989H142.643V139.471H133.934V144.199H127.928V139.471H15.4657V144.199H9.60984V139.471H0.750977V120.989Z" fill="#65654C" stroke="black" stroke-width="0.359262"/>
<path d="M0.750977 93.2629H9.60984V88.75H15.4657V93.2629H127.928V88.75H133.934V93.2629H142.643V111.744H133.934V116.472H127.928V111.744H15.4657V116.472H9.60984V111.744H0.750977V93.2629Z" fill="#65654C" stroke="black" stroke-width="0.359262"/>
<path d="M0.750977 122.919H9.60984V119.266H15.6158V122.919H127.928V119.266H133.934V122.919H142.793V137.532H133.934V141.185H127.928V137.532H15.6158V141.185H9.60984V137.532H0.750977V122.919Z" fill="#84846B"/>
<path d="M0.750977 95.2002H9.60984V91.5469H15.6158V95.2002H127.928V91.5469H133.934V95.2002H142.793V109.813H133.934V113.467H127.928V109.813H15.6158V113.467H9.60984V109.813H0.750977V95.2002Z" fill="#84846B"/>
<path d="M0.750977 124.86H9.60984V122.281H15.6158V124.86H127.928V122.281H133.934V124.86H142.793V135.605H133.934V138.184H127.928V135.605H15.6158V138.184H9.60984V135.605H0.750977V124.86Z" fill="#A5A58C"/>
<path d="M0.750977 97.1335H9.60984V94.5547H15.6158V97.1335H127.928V94.5547H133.934V97.1335H142.793V107.878H133.934V110.457H127.928V107.878H15.6158V110.457H9.60984V107.878H0.750977V97.1335Z" fill="#A5A58C"/>
<path d="M0.750977 126.79H9.60984V125.07H15.6158V126.79H127.928V125.07H133.934V126.79H142.793V133.666H133.934V135.385H127.928V133.666H15.6158V135.385H9.60984V133.666H0.750977V126.79Z" fill="#C4C4AB"/>
<path d="M0.750977 99.0708H9.60984V97.3516H15.6158V99.0708H127.928V97.3516H133.934V99.0708H142.793V105.948H133.934V107.667H127.928V105.948H15.6158V107.667H9.60984V105.948H0.750977V99.0708Z" fill="#C4C4AB"/>
<path d="M0.750977 128.723H9.60984V128.078H15.4657V128.723H127.928V128.078H133.934V128.723H142.643V131.731H133.934V132.376H127.928V131.731H15.4657V132.376H9.60984V131.731H0.750977V128.723Z" fill="#E5E5CC"/>
<path d="M0.750977 101.004H9.60984V100.359H15.4657V101.004H127.928V100.359H133.934V101.004H142.643V104.013H133.934V104.657H127.928V104.013H15.4657V104.657H9.60984V104.013H0.750977V101.004Z" fill="#E5E5CC"/>
<path d="M127.928 93.2656V111.747" stroke="black" stroke-width="0.359262"/>
<path d="M133.934 111.747V93.2656" stroke="black" stroke-width="0.359262"/>
<path d="M127.928 120.992V139.474" stroke="black" stroke-width="0.359262"/>
<path d="M133.934 139.474V120.992" stroke="black" stroke-width="0.359262"/>
<path d="M9.60938 111.747V93.2656" stroke="black" stroke-width="0.359262"/>
<path d="M15.4658 93.2656V111.747" stroke="black" stroke-width="0.359262"/>
<path d="M9.60938 139.474V120.992" stroke="black" stroke-width="0.359262"/>
<path d="M15.4658 120.992V139.474" stroke="black" stroke-width="0.359262"/>
</svg>
