<svg width="150" height="150" viewBox="0 0 150 150" fill="none" xmlns="http://www.w3.org/2000/svg">
<path d="M1.02344 3.753L11.7743 0.75H148.72L138.225 3.90315L1.02344 3.753Z" fill="#A6CCA6" stroke="black" stroke-width="0.392094"/>
<path d="M135.666 148.351L146.161 145.348V136.789L135.666 139.942V148.351Z" fill="black"/>
<path d="M3.83984 139.938V148.346H135.666V139.938H3.83984Z" fill="black"/>
<path d="M135.666 148.346V139.938" stroke="#7F7F7F" stroke-width="0.392094"/>
<path d="M1.02344 139.939V3.753H38.1395V0.75H48.6344V3.753H138.225V139.939H1.02344Z" fill="#739973" stroke="black" stroke-width="0.392094"/>
<path d="M1.02344 139.937V99.6965L138.225 62.6094V139.937H1.02344Z" fill="#6B916B"/>
<path d="M1.02344 139.937V112.009L138.225 74.9219V139.937H1.02344Z" fill="#618761"/>
<path d="M1.02344 139.937V118.315L138.225 81.0781V139.937H1.02344Z" fill="#597F59"/>
<path d="M38.1396 3.753V0.75H48.6345" stroke="white" stroke-width="0.392094"/>
<path d="M1.02344 139.936V3.75H138.225" stroke="white" stroke-width="0.392094"/>
<path d="M117.235 139.938V142.19H133.106V139.938H117.235Z" fill="#739973" stroke="black" stroke-width="0.392094"/>
<path d="M6.39941 139.938V142.19H22.2697V139.938H6.39941Z" fill="#739973" stroke="black" stroke-width="0.392094"/>
<path d="M121.075 141.445V149.253H129.01V141.445H121.075Z" fill="#7F7F7F" stroke="black" stroke-width="0.392094"/>
<path d="M10.4951 141.445V149.253H18.1743V141.445H10.4951Z" fill="#7F7F7F" stroke="black" stroke-width="0.392094"/>
<path d="M121.075 146.844V149.246H129.01V146.844H121.075Z" fill="#666666"/>
<path d="M10.4951 146.844V149.246H18.1743V146.844H10.4951Z" fill="#666666"/>
<path d="M10.2393 39.3357V37.8342H47.0993V9.90625H49.915V39.3357H10.2393Z" fill="#597F59"/>
<path d="M10.2393 8.40625V37.8357H47.0993V8.40625H10.2393Z" stroke="black" stroke-width="0.392094"/>
<path d="M10.2393 37.8357V8.40625H47.0993" stroke="white" stroke-width="0.392094"/>
<path d="M51.4502 59.4609V64.8663H88.0543V59.4609H51.4502Z" fill="#7387A6"/>
<path d="M51.4502 64.8672V74.9272H88.0543V64.8672H51.4502Z" fill="#E5E5E5"/>
<path d="M101.365 28.5264L102.901 26.4243L106.485 25.5234L110.324 26.4243L111.86 28.5264L110.324 30.7787L106.485 31.6796L102.901 30.7787L101.365 28.5264Z" fill="#E5E5E5" stroke="black" stroke-width="0.392094"/>
<path d="M85.4951 16.2157L87.031 13.9634L90.6146 13.0625L94.4542 13.9634L95.99 16.2157L94.4542 18.3178L90.6146 19.2187L87.031 18.3178L85.4951 16.2157Z" fill="#E5E5E5" stroke="black" stroke-width="0.392094"/>
<path d="M69.625 28.5264L71.1608 26.4243L75.0004 25.5234L78.84 26.4243L80.3759 28.5264L78.84 30.7787L75.0004 31.6796L71.1608 30.7787L69.625 28.5264Z" fill="#E5E5E5" stroke="black" stroke-width="0.392094"/>
<path d="M85.4951 20.8672H95.99V21.6179H85.4951V20.8672Z" fill="#C4CCC4"/>
<path d="M101.365 33.1797H111.86V33.9304H101.365V33.1797Z" fill="#C4CCC4"/>
<path d="M69.625 33.1797H80.3759V33.9304H69.625V33.1797Z" fill="#C4CCC4"/>
<path d="M76.7921 29.7279L72.1846 26.875" stroke="#FF0000" stroke-width="0.392094"/>
<path d="M88.5664 16.9676L94.1978 15.0156" stroke="#FF0000" stroke-width="0.392094"/>
<path d="M107.253 27.0234L105.461 30.7772" stroke="#FF0000" stroke-width="0.392094"/>
<path d="M14.334 13.5145L15.1019 12.1631L17.6616 11.5625L19.9654 12.1631L20.9893 13.5145L19.9654 14.8658L17.6616 15.4664L15.1019 14.8658L14.334 13.5145Z" fill="#263A59"/>
<path d="M14.334 18.9207L15.1019 17.5694L17.6616 16.9688L19.9654 17.5694L20.9893 18.9207L19.9654 20.2721L17.6616 20.8727L15.1019 20.2721L14.334 18.9207Z" fill="#263A59"/>
<path d="M31.4844 11.5625H43.2591V20.8718H31.4844V11.5625Z" fill="#CCCCCC"/>
<path d="M31.4844 14.5625H43.2591V17.7157H31.4844V14.5625Z" fill="#990000"/>
<path d="M138.226 139.941L148.72 136.788V0.601562L138.226 3.75472V139.941Z" fill="#406640" stroke="black" stroke-width="0.392094"/>
<path d="M140.785 137.534L146.161 136.033V51.6484L140.785 53.3001V137.534Z" fill="#1A401A" stroke="black" stroke-width="0.392094"/>
<path d="M18.4304 149.253L19.7102 145.349L18.4304 141.445L16.8945 145.349L18.4304 149.253Z" fill="#999999"/>
<path d="M129.01 149.253L130.29 145.349L129.01 141.445L127.73 145.349L129.01 149.253Z" fill="#999999"/>
</svg>
