<svg width="150" height="150" viewBox="0 0 150 150" fill="none" xmlns="http://www.w3.org/2000/svg">
<g clip-path="url(#clip0_2109_224288)">
<path d="M0.600586 70.9034V42.1417H13.063V33.7529H50.1501V42.1417H62.6126V0.796875H68.7688V42.1417H71.9219V0.796875H78.0781V42.1417L87.2372 25.5639H99.6997V9.18569H130.631V0.796875H142.943V33.7529H139.94V50.3308H149.249V70.9034H0.600586Z" fill="#164C4C"/>
<path d="M3.75391 124.435H146.096V70.9062H3.75391V124.435Z" fill="#597F7F"/>
<path d="M3.9043 120.238H146.096V74.8984H3.9043V120.238Z" fill="#688C8C"/>
<path d="M3.9043 116.049H146.096V78.8984H3.9043V116.049Z" fill="#7A9999"/>
<path d="M3.9043 112.047H146.096V83.0859H3.9043V112.047Z" fill="#8AA6A6"/>
<path d="M3.9043 107.858H146.096V87.0859H3.9043V107.858Z" fill="#9BB2B2"/>
<path d="M3.9043 103.665H146.096V91.2812H3.9043V103.665Z" fill="#ABBFBF"/>
<path d="M3.75391 99.671H146.096V95.4766H3.75391V99.671Z" fill="#BDCCCC"/>
<path d="M3.75391 124.435H146.096V70.9062H3.75391V124.435Z" stroke="black" stroke-width="0.346353"/>
<path d="M16.2158 66.7083H28.5281V13.1797H16.2158V66.7083Z" fill="#386666"/>
<path d="M28.5283 25.5641H105.856V17.375H28.5283V25.5641Z" fill="#597F7F"/>
<path d="M16.2158 58.5255H28.5281V21.375H16.2158V58.5255Z" fill="#597F7F"/>
<path d="M28.5283 70.9076H130.63V46.1406H28.5283V70.9076Z" fill="#003333"/>
<path d="M124.475 66.7125H149.249V58.5234H124.475V66.7125Z" fill="#597F7F"/>
<path d="M109.009 58.5234H84.2344V66.7125H109.009V58.5234Z" fill="#597F7F"/>
<path d="M124.475 54.3281H149.249V58.5225H124.475V54.3281Z" fill="#7A9999"/>
<path d="M124.475 66.7109H149.249V70.9053H124.475V66.7109Z" fill="#7A9999"/>
<path d="M109.009 70.9053H84.2344V66.7109H109.009V70.9053Z" fill="#7A9999"/>
<path d="M109.009 58.5225H84.2344V54.3281H109.009V58.5225Z" fill="#7A9999"/>
<path d="M146.096 66.7109H149.249V149.001H146.096V66.7109Z" fill="#9BB2B2" stroke="black" stroke-width="0.346353"/>
<path d="M0.600586 66.7109H3.75374V149.001H0.600586V66.7109Z" fill="#9BB2B2" stroke="black" stroke-width="0.346353"/>
<path d="M105.855 54.3281V58.5225H109.009V66.7116H105.855V70.906H115.165V66.7116H112.012V58.5225H115.165V54.3281H105.855Z" fill="#9BB2B2"/>
<path d="M127.477 70.906V66.7116H124.474V58.5225H127.477V54.3281H118.168V58.5225H121.321V66.7116H118.168V70.906H127.477Z" fill="#9BB2B2"/>
<path d="M16.2158 50.3304H28.5281V29.7578H16.2158V50.3304Z" fill="#7A9999"/>
<path d="M112.012 54.3248H133.783V13.1797H112.012V54.3248Z" fill="#386666"/>
<path d="M130.631 9.1875H131.532V54.3273H130.631V9.1875Z" fill="#BDCCCC"/>
<path d="M132.433 9.1875H133.334V54.3273H132.433V9.1875Z" fill="#BDCCCC"/>
<path d="M134.084 9.1875H134.985V54.3273H134.084V9.1875Z" fill="#BDCCCC"/>
<path d="M135.886 9.1875H136.787V54.3273H135.886V9.1875Z" fill="#BDCCCC"/>
<path d="M31.6816 66.714V65.5156H84.2342V66.714H31.6816Z" fill="#9BB2B2"/>
<path d="M6.90723 50.3359H31.682V74.9032H6.90723V50.3359Z" fill="#9BB2B2" stroke="black" stroke-width="0.346353"/>
<path d="M37.8379 54.3281H56.3064V74.9007H37.8379V54.3281Z" fill="#7A9999" stroke="black" stroke-width="0.346353"/>
<path d="M28.5283 37.9531H105.856V46.1422H28.5283V37.9531Z" fill="#386666"/>
<path d="M74.9248 13.1797H87.2371V62.5139H74.9248V13.1797Z" fill="#9BB2B2" stroke="black" stroke-width="0.346353"/>
<path d="M65.6152 50.3312V49.1328H115.165V50.3312H65.6152Z" fill="#BDCCCC"/>
<path d="M65.6152 43.1393V42.1406H115.165V43.1393H65.6152Z" fill="#BDCCCC"/>
<path d="M59.459 46.1406H81.0806V79.0967H59.459V46.1406Z" fill="#CCCCCC" stroke="black" stroke-width="0.346353"/>
<path d="M83.333 25.5625H84.2339V82.0871H83.333V25.5625Z" fill="#BDCCCC"/>
<path d="M35.4355 83.2922V82.0938H84.2343V83.2922H35.4355Z" fill="#BDCCCC"/>
<path d="M34.6846 50.3359H35.5855V83.0923H34.6846V50.3359Z" fill="#BDCCCC"/>
<path d="M62.6123 50.3359H78.0778V62.5197H62.6123V50.3359Z" fill="#4C4C4C"/>
<path d="M64.1143 51.3281H69.5197V61.5145H64.1143V51.3281Z" fill="#E5E5E5"/>
<path d="M71.0215 57.5234H73.2737V61.5181H71.0215V57.5234Z" fill="#E5E5E5"/>
<path d="M74.1738 57.5234H76.4261V61.5181H74.1738V57.5234Z" fill="#E5E5E5"/>
<path d="M64.8652 57.5234H68.7691V60.5194H64.8652V57.5234Z" fill="#4C4C4C"/>
<path d="M70.2701 67.9062L72.5223 70.9023L70.2701 73.6985L68.168 70.9023L70.2701 67.9062Z" fill="#003333"/>
<path d="M37.8379 74.9007V54.3281H56.3064" stroke="#DDE5E5" stroke-width="0.346353"/>
<path d="M6.90723 74.9032V50.3359H31.682" stroke="#DDE5E5" stroke-width="0.346353"/>
<path d="M41.5918 61.5156H52.5528V72.9004H41.5918V61.5156Z" fill="#333333" stroke="black" stroke-width="0.346353"/>
<path d="M59.459 79.0967V46.1406H81.0806" stroke="white" stroke-width="0.346353"/>
<path d="M41.5918 72.9004V61.5156H52.5528" stroke="white" stroke-width="0.346353"/>
<path d="M7.6582 54.3281H9.1597V59.5212H7.6582V54.3281Z" fill="#597F7F"/>
</g>
<defs>
<clipPath id="clip0_2109_224288">
<rect width="150" height="150" fill="white"/>
</clipPath>
</defs>
</svg>
