<svg width="150" height="150" viewBox="0 0 150 150" fill="none" xmlns="http://www.w3.org/2000/svg">
<path d="M43.9941 102.012H59.4596V60.5547H43.9941V102.012Z" fill="#7F7F7F" stroke="black" stroke-width="0.388465"/>
<path d="M28.5283 19.0938H68.7686V65.8274H28.5283V19.0938Z" fill="#BFBFBF" stroke="black" stroke-width="0.388465"/>
<path d="M40.8408 45.2266H62.6126" stroke="black" stroke-width="0.388465"/>
<path d="M40.8408 39.9531H62.6126" stroke="black" stroke-width="0.388465"/>
<path d="M31.6816 76.1343H43.994V55.5312H139.94V76.1343H105.856V107.29H139.94V127.893H31.6816V76.1343Z" fill="#003333"/>
<path d="M3.75391 133.164H139.94V143.466H3.75391V133.164Z" fill="#B2B2B2" stroke="black" stroke-width="0.388465"/>
<path d="M105.855 76.1328H139.94V107.289H105.855V76.1328Z" fill="#336666"/>
<path d="M139.939 138.192H149.249V127.891H139.939V138.192Z" fill="#CCCCCC" stroke="black" stroke-width="0.388465"/>
<path d="M118.319 40.7039H90.541V23.3672H118.319V40.7039Z" fill="#B8B8B8"/>
<path d="M107.357 127.887L108.859 70.8516H113.514L115.165 127.887H107.357Z" fill="#B2B2B2" stroke="black" stroke-width="0.388465"/>
<path d="M136.787 16.5859H144.595V63.3196H136.787V16.5859Z" fill="#BFBFBF" stroke="black" stroke-width="0.388465"/>
<path d="M124.474 3.77163H42.4922V1.00781H124.474V3.77163Z" fill="#999999" stroke="black" stroke-width="0.388465"/>
<path d="M124.474 2.76158H42.4922V2.00781H124.474V2.76158Z" fill="#D9D9D9"/>
<path d="M43.9937 3.76562V91.7053H42.4922V3.76562H43.9937Z" fill="#999999" stroke="black" stroke-width="0.388465"/>
<path d="M43.544 3.76562V91.7053H42.9434V3.76562H43.544Z" fill="#D9D9D9"/>
<path d="M96.5464 96.9839H74.9248V65.8281H96.5464V96.9839Z" fill="#7F7F7F" stroke="black" stroke-width="0.388465"/>
<path d="M31.6815 62.309V127.887H6.60645V62.309L13.8137 56.2789V50.5H24.4743V56.2789L31.6815 62.309Z" fill="#A6A6A6"/>
<path d="M28.9792 62.3103V127.888H9.30957V62.3103L15.0153 56.2802V50.25H23.4237V56.2802L28.9792 62.3103Z" fill="#B5B5B5"/>
<path d="M26.276 62.3103V127.888H12.0117V62.3103L16.0658 56.2802V50.25H22.2219V56.2802L26.276 62.3103Z" fill="#C4C4C4"/>
<path d="M23.5737 62.3103V127.888H14.7148V62.3103L17.2674 56.2802V50.25H21.1713V56.2802L23.5737 62.3103Z" fill="#D6D6D6"/>
<path d="M20.8704 62.309V127.887H17.417V62.309L18.3179 56.2789V50.5H19.9695V56.2789L20.8704 62.309Z" fill="#E5E5E5"/>
<path d="M6.60645 68.3438H31.6815" stroke="#999999" stroke-width="0.388465"/>
<path d="M8.4082 62.3125H29.8797" stroke="white" stroke-width="0.388465"/>
<path d="M19.0687 90.2037L13.8135 87.9424V81.4097L19.0687 79.1484L24.4741 81.4097V87.9424L19.0687 90.2037Z" fill="#B23232"/>
<path d="M13.8135 56.2812H24.4741" stroke="#999999" stroke-width="0.388465"/>
<path d="M31.6815 62.309V127.887H6.60645V62.309L13.8137 56.2789V50.5H24.4743V56.2789L31.6815 62.309Z" stroke="black" stroke-width="0.388465"/>
<path d="M56.3066 86.4297H99.7V107.284H56.3066V86.4297Z" fill="#CCCCCC" stroke="black" stroke-width="0.388465"/>
<path d="M87.2373 95.4766V99.4967L91.892 103.266L96.5466 99.4967V95.4766H87.2373Z" fill="#4C7F7F" stroke="black" stroke-width="0.388465"/>
<path d="M78.0781 95.4766V99.4967L82.7328 103.266L87.2373 99.4967V95.4766H78.0781Z" fill="#4C7F7F" stroke="black" stroke-width="0.388465"/>
<path d="M68.7686 95.4766V99.4967L73.4232 103.266L78.0779 99.4967V95.4766H68.7686Z" fill="#4C7F7F" stroke="black" stroke-width="0.388465"/>
<path d="M59.459 95.4766V99.4967L64.1136 103.266L68.7683 99.4967V95.4766H59.459Z" fill="#4C7F7F" stroke="black" stroke-width="0.388465"/>
<path d="M91.892 99.4999L87.2373 95.4798L91.892 91.7109L96.5466 95.4798L91.892 99.4999Z" fill="#B2E5E5" stroke="black" stroke-width="0.388465"/>
<path d="M82.7328 99.4999L78.0781 95.4798L82.7328 91.7109L87.2373 95.4798L82.7328 99.4999Z" fill="#B2E5E5" stroke="black" stroke-width="0.388465"/>
<path d="M73.4232 99.4999L68.7686 95.4798L73.4232 91.7109L78.0779 95.4798L73.4232 99.4999Z" fill="#B2E5E5" stroke="black" stroke-width="0.388465"/>
<path d="M64.1136 99.4999L59.459 95.4798L64.1136 91.7109L68.7683 95.4798L64.1136 99.4999Z" fill="#B2E5E5" stroke="black" stroke-width="0.388465"/>
<path d="M50.15 122.617H34.6846V107.039H50.15V122.617Z" fill="#999999" stroke="black" stroke-width="0.388465"/>
<path d="M56.3065 127.887H50.1504V102.008H56.3065V127.887Z" fill="#999999" stroke="black" stroke-width="0.388465"/>
<path d="M56.3066 107.289H99.7V117.591H56.3066V107.289Z" fill="#999999" stroke="black" stroke-width="0.388465"/>
<path d="M50.15 117.589H34.6846V112.312H50.15V117.589Z" fill="#D9D9D9"/>
<path d="M56.3065 119.096H50.1504V110.805H56.3065V119.096Z" fill="#D9D9D9"/>
<path d="M34.6846 107.285V34.6719H37.8377V107.285H34.6846Z" fill="#999999" stroke="black" stroke-width="0.388465"/>
<path d="M118.168 45.2244H90.3906V19.0938H118.168V45.2244Z" fill="#999999" stroke="black" stroke-width="0.388465"/>
<path d="M90.3904 37.4356H60.9609V26.8828H90.3904V37.4356Z" fill="#999999" stroke="black" stroke-width="0.388465"/>
<path d="M60.9605 42.7136H59.459V21.8594H60.9605V42.7136Z" fill="#999999" stroke="black" stroke-width="0.388465"/>
<path d="M59.4591 34.6736H16.2158V29.6484H59.4591V34.6736Z" fill="#999999" stroke="black" stroke-width="0.388465"/>
<path d="M17.7178 50.2498V34.6719H20.7208V50.2498H17.7178Z" fill="#999999" stroke="black" stroke-width="0.388465"/>
<path d="M35.7354 107.285V34.6719H36.7864V107.285H35.7354Z" fill="#D9D9D9"/>
<path d="M118.168 36.4333H90.3906V27.8906H118.168V36.4333Z" fill="#D9D9D9"/>
<path d="M90.3904 33.916H60.9609V30.3984H90.3904V33.916Z" fill="#D9D9D9"/>
<path d="M60.9605 35.6758H59.459V28.6406H60.9605V35.6758Z" fill="#D9D9D9"/>
<path d="M59.4591 32.915H16.2158V31.1562H59.4591V32.915Z" fill="#D9D9D9"/>
<path d="M18.7686 50.2498V34.6719H19.6695V50.2498H18.7686Z" fill="#D9D9D9"/>
<path d="M87.3877 86.4341V60.5547H90.3907V86.4341H87.3877Z" fill="#999999" stroke="black" stroke-width="0.388465"/>
<path d="M78.0781 86.4341V60.5547H81.0811V86.4341H78.0781Z" fill="#999999" stroke="black" stroke-width="0.388465"/>
<path d="M68.7686 86.4343V76.1328H71.9217V86.4343H68.7686Z" fill="#999999" stroke="black" stroke-width="0.388465"/>
<path d="M59.459 86.4343V76.1328H62.6121V86.4343H59.459Z" fill="#999999" stroke="black" stroke-width="0.388465"/>
<path d="M88.4385 86.4341V60.5547H89.3394V86.4341H88.4385Z" fill="#D9D9D9"/>
<path d="M79.1289 86.4341V60.5547H80.0298V86.4341H79.1289Z" fill="#D9D9D9"/>
<path d="M69.8203 86.4343V76.1328H70.8714V86.4343H69.8203Z" fill="#D9D9D9"/>
<path d="M60.5107 86.4343V76.1328H61.5618V86.4343H60.5107Z" fill="#D9D9D9"/>
<path d="M99.6998 76.1279H37.8379V70.8516H99.6998V76.1279Z" fill="#999999" stroke="black" stroke-width="0.388465"/>
<path d="M99.6998 74.3682H37.8379V72.6094H99.6998V74.3682Z" fill="#D9D9D9"/>
<path d="M99.6997 60.8028H40.8408V50.25H99.6997V60.8028Z" fill="#999999" stroke="black" stroke-width="0.388465"/>
<path d="M99.6997 57.2832H40.8408V53.7656H99.6997V57.2832Z" fill="#D9D9D9"/>
<path d="M73.5735 52.5111L71.9219 45.2246L73.5735 37.687L78.078 34.6719L82.4324 37.687L84.2342 45.2246L82.4324 52.5111L78.078 55.5261L73.5735 52.5111Z" fill="#E5E5E5" stroke="black" stroke-width="0.388465"/>
<path d="M75.8257 48.7471L74.9248 45.2295L75.8257 41.4607L78.078 39.9531L80.1801 41.4607" stroke="#7F7F7F" stroke-width="0.388465"/>
<path d="M0.600586 143.469H142.943V148.745H0.600586V143.469Z" fill="#E5E5E5" stroke="black" stroke-width="0.388465"/>
<path d="M0.600586 127.891H142.943V133.167H0.600586V127.891Z" fill="#E5E5E5" stroke="black" stroke-width="0.388465"/>
<path d="M136.787 63.3203H149.25V70.858H136.787V63.3203Z" fill="#E5E5E5" stroke="black" stroke-width="0.388465"/>
<path d="M146.096 70.8516H149.249V127.887H146.096V70.8516Z" fill="#E5E5E5" stroke="black" stroke-width="0.388465"/>
<path d="M138.288 70.8516H141.441V127.887H138.288V70.8516Z" fill="#E5E5E5" stroke="black" stroke-width="0.388465"/>
<path d="M118.168 8.79688H136.787V96.9878H118.168V8.79688Z" fill="#E5E5E5" stroke="black" stroke-width="0.388465"/>
<path d="M121.321 91.7085V14.0703H133.784" stroke="white" stroke-width="0.388465"/>
<path d="M124.475 3.76562V8.79075H122.823V3.76562H124.475Z" fill="#999999" stroke="black" stroke-width="0.388465"/>
<path d="M123.874 3.76562V8.79075H123.424V3.76562H123.874Z" fill="#D9D9D9"/>
</svg>
