<svg width="150" height="150" viewBox="0 0 150 150" fill="none" xmlns="http://www.w3.org/2000/svg">
<g clip-path="url(#clip0_2109_224687)">
<path d="M0 150.003H116.393L150 132.435V129.883L116.393 147.45H0V150.003Z" fill="black"/>
<path d="M0 147.45V40.8438H116.393V147.45H0Z" fill="#F2F2E5"/>
<path d="M11.8037 9.90991L33.607 0H150L128.197 9.90991H11.8037Z" fill="#FCFCFA" stroke="black" stroke-width="0.313782"/>
<path d="M126.394 11.5616L118.197 39.9399L116.394 40.8408V147.447L150 129.88V0L128.197 9.90991V10.8108L126.394 11.5616Z" fill="#E5E5CC" stroke="black" stroke-width="0.313782"/>
<path d="M0 145.795V105.255L116.393 50.75V145.795H0Z" fill="#EAEADD"/>
<path d="M0 147.451V118.622L116.393 64.1172V147.451H0Z" fill="#E0E0D3"/>
<path d="M0 147.447V128.528L116.393 74.0234V147.447H0Z" fill="#D8D8CB"/>
<path d="M0 94.1446V80.7812H116.393V94.1446H0Z" fill="#990000"/>
<path d="M0 107.354V94.1406H116.393V107.354H0Z" fill="#FF0000"/>
<path d="M0 120.723V107.359H116.393V120.723H0Z" fill="#FFCC00"/>
<path d="M0 147.45V40.8438H116.393V147.45H0Z" stroke="black" stroke-width="0.313782"/>
<path d="M128.197 10.8125V140.692" stroke="#7F7F66" stroke-width="0.313782"/>
<path d="M139.181 4.95312V135.734" stroke="#7F7F66" stroke-width="0.313782"/>
<path d="M119.017 40.8424V47.449L125.41 44.1457V37.5391L119.017 40.8424Z" fill="#FFFFB2"/>
<path d="M1.80328 39.9363L10 11.5579L11.8033 10.8072V9.90625H128.197V10.8072L126.393 11.5579L118.197 39.9363L116.393 40.8372H0L1.80328 39.9363Z" fill="#F7F7F0" stroke="black" stroke-width="0.313782"/>
<path d="M10 11.5625H126.393" stroke="black" stroke-width="0.313782"/>
<path d="M11.8027 10.8125H128.196" stroke="black" stroke-width="0.313782"/>
<path d="M1.80273 39.9375H118.196" stroke="black" stroke-width="0.313782"/>
<path d="M38.0332 127.477H78.1971V130.78H38.0332V127.477Z" fill="black"/>
<path d="M47.2129 134.086H69.0162V135.738H47.2129V134.086Z" fill="black"/>
<path d="M58.033 65.7626C74.0583 65.7626 87.0494 62.603 87.0494 58.7055C87.0494 54.808 74.0583 51.6484 58.033 51.6484C42.0077 51.6484 29.0166 54.808 29.0166 58.7055C29.0166 62.603 42.0077 65.7626 58.033 65.7626Z" fill="black"/>
<path d="M40 36.634L46.3934 16.6641H82.7869L76.3934 36.634H40Z" fill="black"/>
<path d="M44.5898 33.182L48.6882 19.9688H77.8685L73.6062 33.182H44.5898Z" fill="#F2F2F2"/>
<path d="M47.2129 31.8308L50.4916 21.3203H64.7539L61.4752 31.8308H47.2129Z" fill="#4C4C4C"/>
<path d="M64.7539 27.4809L66.5572 21.625H74.426L72.6228 27.4809H64.7539Z" fill="#FF7F7F"/>
</g>
<defs>
<clipPath id="clip0_2109_224687">
<rect width="150" height="150" fill="white"/>
</clipPath>
</defs>
</svg>
