<svg width="150" height="150" viewBox="0 0 150 150" fill="none" xmlns="http://www.w3.org/2000/svg">
<g clip-path="url(#clip0_2122_158940)">
<path d="M49.6993 39.2891V149.999H7.05664V39.2891H49.6993Z" fill="#7F7F7F"/>
<path d="M47.2971 39.2891V149.999H9.60938V39.2891H47.2971Z" fill="#999999"/>
<path d="M42.4934 39.2891V149.999H13.9648V39.2891H42.4934Z" fill="#B2B2B2"/>
<path d="M38.2886 39.2891V149.999H18.4688V39.2891H38.2886Z" fill="#CCCCCC"/>
<path d="M34.6851 39.2891V149.999H22.2227V39.2891H34.6851Z" fill="#E5E5E5"/>
<path d="M31.0812 39.2891V149.999H25.6758V39.2891H31.0812Z" fill="white"/>
<path d="M7.05664 39.2891V149.999" stroke="black" stroke-width="0.340948"/>
<path d="M49.6992 149.999V39.2891" stroke="black" stroke-width="0.340948"/>
<path d="M56.9069 48.5781V67.1588H0V48.5781H56.9069Z" fill="#7F7F7F"/>
<path d="M53.603 48.5781V67.1588H3.30273V48.5781H53.603Z" fill="#999999"/>
<path d="M47.2963 48.5781V67.1588H9.1582V48.5781H47.2963Z" fill="#B2B2B2"/>
<path d="M41.5924 48.5781V67.1588H15.166V48.5781H41.5924Z" fill="#CCCCCC"/>
<path d="M36.7878 48.5781V67.1588H20.1211V48.5781H36.7878Z" fill="#E5E5E5"/>
<path d="M31.9811 48.5781V67.1588H25.0742V48.5781H31.9811Z" fill="white"/>
<path d="M56.9069 48.5781V67.1588H0V48.5781H56.9069Z" stroke="black" stroke-width="0.340948"/>
<path d="M56.9069 122.516V140.709H0V122.516H56.9069Z" fill="#7F7F7F"/>
<path d="M53.603 122.516V140.709H3.30273V122.516H53.603Z" fill="#999999"/>
<path d="M47.2963 122.516V140.709H9.1582V122.516H47.2963Z" fill="#B2B2B2"/>
<path d="M41.5924 122.516V140.709H15.166V122.516H41.5924Z" fill="#CCCCCC"/>
<path d="M36.7878 122.516V140.709H20.1211V122.516H36.7878Z" fill="#E5E5E5"/>
<path d="M31.9811 122.516V140.709H25.0742V122.516H31.9811Z" fill="white"/>
<path d="M56.9069 122.516V140.709H0V122.516H56.9069Z" stroke="black" stroke-width="0.340948"/>
<path d="M50.0002 85.3516H71.3215V103.932H50.0002L47.2975 103.158L44.8951 101.223L43.3936 98.1258L42.793 94.6419L43.3936 91.158L44.8951 88.0612L47.2975 86.1258L50.0002 85.3516Z" fill="#7F7F7F"/>
<path d="M46.3966 86.5156L44.8951 88.064L43.6939 89.9995L43.0933 92.3221L42.793 94.6447L43.0933 97.3543L43.6939 99.2898L44.8951 101.225L46.3966 102.774H71.3215V86.5156H46.3966Z" fill="#999999"/>
<path d="M44.5948 88.4531L43.6939 90.0015L43.3936 91.5499L42.793 93.0983V94.6467V96.1951L43.3936 98.1305L43.6939 99.6789L44.5948 100.84H71.3215V88.4531H44.5948Z" fill="#B2B2B2"/>
<path d="M43.3936 90.3906L43.0933 91.5519V92.7132L42.793 93.8745V94.6487V95.81L43.0933 96.9713V98.1326L43.3936 98.9068H71.3215V90.3906H43.3936Z" fill="#CCCCCC"/>
<path d="M43.0933 91.9375L42.793 92.7117V93.4859V93.873V94.6472V95.4214V96.1956V96.9698L43.0933 97.744H71.3215V91.9375H43.0933Z" fill="#E5E5E5"/>
<path d="M42.793 93.4844V93.8715V94.2586V94.6457V95.0328V95.4199V95.807H71.3215V93.4844H42.793Z" fill="white"/>
<path d="M71.3215 103.932H50.0002L47.2975 103.158L44.8951 101.223L43.3936 98.1258L42.793 94.6419L43.3936 91.158L44.8951 88.0612L47.2975 86.1258L50.0002 85.3516H71.3215" stroke="black" stroke-width="0.340948"/>
<path d="M71.9219 55.1638L77.9279 47.4219H139.189L145.495 55.1638V134.132L139.189 142.261H77.9279L71.9219 134.132V55.1638Z" fill="#999999" stroke="black" stroke-width="0.340948"/>
<path d="M142.342 138.386L139.189 142.257H77.9279L71.9219 134.128V55.16L74.9249 51.2891L80.3303 58.2568L77.9279 61.3536V128.321L82.7327 134.128H134.685L137.087 131.418L142.342 138.386Z" fill="#7F7F7F"/>
<path d="M74.9258 51.2928L77.9288 47.4219H139.19L145.496 55.1638V134.132L142.343 138.39L137.088 131.422L139.19 128.325V61.3574L134.686 55.1638H82.7336L80.3312 58.2606L74.9258 51.2928Z" fill="#CCCCCC"/>
<path d="M71.9219 55.1638L77.9279 47.4219H139.189L145.495 55.1638V134.132L139.189 142.261H77.9279L71.9219 134.132V55.1638Z" stroke="black" stroke-width="0.340948"/>
<path d="M102.553 149.225V40.4504L103.153 39.2891H113.964L114.865 40.4504V149.225L113.964 149.999H103.153L102.553 149.225Z" fill="#999999" stroke="black" stroke-width="0.340948"/>
<path d="M102.553 40.4504L103.153 39.2891H113.964L114.865 40.4504V149.225L113.364 148.063V41.2245H104.054L102.553 40.4504Z" fill="#CCCCCC"/>
<path d="M114.865 149.227L113.964 150.002H103.153L102.553 149.227V40.4531L104.054 41.2273V148.066H113.364L114.865 149.227Z" fill="#7F7F7F"/>
<path d="M102.553 149.225V40.4504L103.153 39.2891H113.964L114.865 40.4504V149.225L113.964 149.999H103.153L102.553 149.225Z" stroke="black" stroke-width="0.340948"/>
<path d="M145.496 74.902L150.001 73.7407V64.4504L145.496 63.2891V74.902Z" fill="#7F7F7F" stroke="black" stroke-width="0.340948"/>
<path d="M145.496 72.9665L150.001 72.1923V64.4504L145.496 63.2891V72.9665Z" fill="#B2B2B2" stroke="black" stroke-width="0.340948"/>
<path d="M150.001 65.9987V64.4504L145.496 63.2891V65.2245L150.001 65.9987Z" fill="#E5E5E5" stroke="black" stroke-width="0.340948"/>
<path d="M79.4297 47.4201V41.2266H98.0483V47.4201H79.4297Z" fill="#7F7F7F" stroke="black" stroke-width="0.340948"/>
<path d="M91.7413 41.2258V7.93548L90.2398 1.74194L85.7353 0H49.6992V7.93548H84.2338L85.7353 9.87097V41.2258H91.7413Z" fill="#999999" stroke="black" stroke-width="0.340948"/>
<path d="M49.6992 4.25806V0H85.7353L90.2398 1.74194L91.7413 7.93548V41.2258H88.7383V7.93548L87.8374 4.83871L85.7353 4.25806H49.6992Z" fill="#CCCCCC"/>
<path d="M91.7413 41.2258V7.93548L90.2398 1.74194L85.7353 0H49.6992V7.93548H84.2338L85.7353 9.87097V41.2258H91.7413Z" stroke="black" stroke-width="0.340948"/>
</g>
<defs>
<clipPath id="clip0_2122_158940">
<rect width="150" height="150" fill="white"/>
</clipPath>
</defs>
</svg>
