<svg width="150" height="150" viewBox="0 0 150 150" fill="none" xmlns="http://www.w3.org/2000/svg">
<g clip-path="url(#clip0_2122_158195)">
<path d="M46.1074 61.7109H103.691V65.3145H46.1074V61.7109Z" fill="#191919" stroke="black" stroke-width="0.347745"/>
<path d="M116.578 13.9609H146.779V37.985H116.578V13.9609Z" fill="#999999" stroke="black" stroke-width="0.347745"/>
<path d="M118.188 30.7812H145.167V36.7873H118.188V30.7812Z" fill="#666666"/>
<path d="M118.188 19.9708H145.167V16.3672H118.188V19.9708Z" fill="#B2B2B2"/>
<path d="M135.504 9.46094H137.115V42.7943H135.504V9.46094Z" fill="#999999" stroke="black" stroke-width="0.347745"/>
<path d="M130.672 0H135.504V52.4024H130.672V0Z" fill="#999999" stroke="black" stroke-width="0.347745"/>
<path d="M126.242 0H130.672V52.4024H126.242V0Z" fill="#999999" stroke="black" stroke-width="0.347745"/>
<path d="M113.355 9.46094H116.577V42.7943H113.355V9.46094Z" fill="#999999" stroke="black" stroke-width="0.347745"/>
<path d="M127.047 34.3828H129.866V51.8002H127.047V34.3828Z" fill="#666666"/>
<path d="M131.477 34.3828H134.698V51.8002H131.477V34.3828Z" fill="#666666"/>
<path d="M114.16 27.1797H115.771V42.1947H114.16V27.1797Z" fill="#666666"/>
<path d="M127.047 17.5682H129.866V4.05469H127.047V17.5682Z" fill="#B2B2B2"/>
<path d="M131.477 17.5682H134.698V4.05469H131.477V17.5682Z" fill="#B2B2B2"/>
<path d="M114.16 23.572H115.771V12.4609H114.16V23.572Z" fill="#B2B2B2"/>
<path d="M135.504 5.8536H137.115V2.25H135.504V5.8536Z" fill="#4C4C4C" stroke="black" stroke-width="0.347745"/>
<path d="M135.504 50.002H137.115V46.3984H135.504V50.002Z" fill="#4C4C4C" stroke="black" stroke-width="0.347745"/>
<path d="M135.504 18.7677H137.115V15.1641H135.504V18.7677Z" fill="#4C4C4C" stroke="black" stroke-width="0.347745"/>
<path d="M135.504 36.7833H137.115V33.1797H135.504V36.7833Z" fill="#4C4C4C" stroke="black" stroke-width="0.347745"/>
<path d="M36.4434 4.65625H113.356V61.7133H36.4434V4.65625Z" fill="#999999" stroke="black" stroke-width="0.347745"/>
<path d="M42.0802 10.5099C43.4145 10.5099 44.4963 9.70316 44.4963 8.70805C44.4963 7.71294 43.4145 6.90625 42.0802 6.90625C40.7458 6.90625 39.6641 7.71294 39.6641 8.70805C39.6641 9.70316 40.7458 10.5099 42.0802 10.5099Z" fill="#191919" stroke="black" stroke-width="0.347745"/>
<path d="M107.719 59.3067C109.053 59.3067 110.135 58.5 110.135 57.5049C110.135 56.5098 109.053 55.7031 107.719 55.7031C106.384 55.7031 105.303 56.5098 105.303 57.5049C105.303 58.5 106.384 59.3067 107.719 59.3067Z" fill="#191919" stroke="black" stroke-width="0.347745"/>
<path d="M146.778 145.198H132.281V88.1406H146.778V145.198Z" fill="#999999" stroke="black" stroke-width="0.347745"/>
<path d="M52.5511 85.7344V86.7854V87.6863V88.4371V89.1878V89.9386V90.8395V91.7404V92.9416V93.6923L52.3498 94.5932L51.9471 95.4941L51.5444 96.2449L50.9404 96.9956L50.135 97.8965L49.531 98.4971L48.5243 99.2479L47.5176 99.8485L46.7122 100.449L45.5042 100.9L44.4974 101.35L43.2894 101.8L42.0813 101.951L40.8733 102.101L39.6652 102.251L17.5176 103.452V129.879H18.927H20.3364L21.7458 130.029H23.1552L24.5646 130.179H25.974H27.182L28.7927 130.329H30.0008L31.4102 130.479H32.8196L34.229 130.629L35.6384 130.779H37.0478L38.4572 130.93L39.6652 131.08H40.8733L42.0813 131.23L43.2894 131.38L44.4974 131.83L45.5042 132.281L46.7122 132.731L47.5176 133.182L48.5243 133.782L49.531 134.533L50.135 135.284L50.9404 136.035L51.5444 136.785L51.9471 137.686L52.3498 138.587L52.5511 139.488V140.389V149.999H97.2491V149.398V148.797V148.197V147.596V146.996V146.395V145.794V145.194V144.593V143.993V143.392V142.791V142.191V141.59V140.99V140.389V139.488L97.6518 138.587L97.8531 137.686L98.4572 136.785L98.8599 136.035L99.6652 135.284L100.471 134.533L101.276 133.782L102.283 133.182L103.289 132.731L104.296 132.281L105.303 131.83L106.511 131.38L107.719 131.23L108.927 131.08H110.135L132.283 129.879V103.452L130.873 103.302H129.464H128.054L126.846 103.152H125.236L124.028 103.002H122.618H121.209L119.799 102.851L118.39 102.701H116.981H115.571L114.162 102.551L112.954 102.401H111.544L110.135 102.251L108.927 102.101L107.719 101.951L106.511 101.8L105.303 101.35L104.296 100.9L103.289 100.449L102.283 99.8485L101.276 99.2479L100.471 98.4971L99.6652 97.8965L98.8599 96.9956L98.4572 96.2449L97.8531 95.4941L97.6518 94.5932L97.2491 93.6923V92.9416V85.7344H52.5511Z" fill="#999999" stroke="black" stroke-width="0.347745"/>
<path d="M17.5162 145.198H3.01953V88.1406H17.5162V145.198Z" fill="#999999" stroke="black" stroke-width="0.347745"/>
<path d="M133.088 92.9453H145.974V102.855H133.088V92.9453Z" fill="#B2B2B2"/>
<path d="M3.82617 92.9453H16.7121V102.855H3.82617V92.9453Z" fill="#B2B2B2"/>
<path d="M74.899 126.274C94.3587 126.274 110.134 119.821 110.134 111.86C110.134 103.899 94.3587 97.4453 74.899 97.4453C55.4393 97.4453 39.6641 103.899 39.6641 111.86C39.6641 119.821 55.4393 126.274 74.899 126.274Z" fill="#B2B2B2"/>
<path d="M38.0527 88.1393H49.3279V62.9141H38.0527V88.1393Z" fill="#4C4C4C" stroke="black" stroke-width="0.347745"/>
<path d="M58.9941 88.1393H70.2693V62.9141H58.9941V88.1393Z" fill="#4C4C4C" stroke="black" stroke-width="0.347745"/>
<path d="M79.5293 88.1393H90.8045V62.9141H79.5293V88.1393Z" fill="#4C4C4C" stroke="black" stroke-width="0.347745"/>
<path d="M100.471 88.1393H111.746V62.9141H100.471V88.1393Z" fill="#4C4C4C" stroke="black" stroke-width="0.347745"/>
<path d="M33.2207 65.3125H116.576V72.5197H33.2207V65.3125Z" fill="#999999"/>
<path d="M33.2207 72.5234H116.576V85.7367H33.2207V72.5234Z" fill="#999999" stroke="black" stroke-width="0.347745"/>
<path d="M42.8867 65.3125H106.914V72.5197H42.8867V65.3125Z" fill="#B2B2B2"/>
<path d="M42.8867 72.5234H106.914V85.7367H42.8867V72.5234Z" fill="#B2B2B2"/>
<path d="M57.3828 65.3125H92.4164V72.5197H57.3828V65.3125Z" fill="#CCCCCC"/>
<path d="M57.3828 72.5234H92.4164V85.7367H57.3828V72.5234Z" fill="#CCCCCC"/>
<path d="M67.0469 65.3125H82.7516V72.5197H67.0469V65.3125Z" fill="#E5E5E5"/>
<path d="M67.0469 72.5234H82.7516V85.7367H67.0469V72.5234Z" fill="#E5E5E5"/>
<path d="M73.4902 65.3125H76.309V72.5197H73.4902V65.3125Z" fill="white"/>
<path d="M73.4902 72.5234H76.309V85.7367H73.4902V72.5234Z" fill="white"/>
<path d="M33.2207 65.3125H116.576V72.5197H33.2207V65.3125Z" stroke="black" stroke-width="0.347745"/>
<path d="M87.584 9.46094H106.913V16.3678H87.584V9.46094Z" fill="#CCCCCC" stroke="#7F7F7F" stroke-width="0.347745"/>
<path d="M65.4355 76.125H84.3617V83.3322H65.4355V76.125Z" fill="#CCCCCC" stroke="#7F7F7F" stroke-width="0.347745"/>
<path d="M146.779 98.6484H150.001V134.384H146.779V98.6484Z" fill="#4C4C4C" stroke="black" stroke-width="0.347745"/>
<path d="M0 98.6484H3.02013V134.384H0V98.6484Z" fill="#4C4C4C" stroke="black" stroke-width="0.347745"/>
<path d="M97.248 134.382L108.523 121.469H130.671V128.676L106.912 129.577L97.248 134.382Z" fill="#666666"/>
<path d="M52.5498 134.382L41.2746 121.469H19.127V128.676L42.8853 129.577L52.5498 134.382Z" fill="#666666"/>
<path d="M3.82617 126.273H16.7121V144.592H3.82617V126.273Z" fill="#666666"/>
<path d="M133.088 126.273H145.974V144.592H133.088V126.273Z" fill="#666666"/>
<path d="M95.6367 137.984V148.795H54.1602V137.984L55.1669 138.285L56.3749 138.435L57.583 138.735L58.791 138.885L59.9991 139.186L61.2071 139.336L62.6165 139.486L64.0259 139.636L65.234 139.786L66.6434 139.936L68.0528 140.086H69.4622L70.8716 140.237H72.281L73.6904 140.387H75.0998H76.5091L77.9185 140.237H79.3279L80.536 140.086H81.9454L83.3548 139.936L84.5628 139.786L85.9722 139.636L87.1803 139.486L88.5897 139.336L89.7977 139.186L91.0058 138.885L92.2138 138.735L93.4219 138.435L94.63 138.285L95.6367 137.984Z" fill="#666666"/>
<path d="M73.4902 116.67H76.309V101.055H73.4902V116.67Z" fill="#333333" stroke="black" stroke-width="0.347745"/>
<path d="M111.744 125.074H38.0529L37.2475 124.924L36.4422 124.774L35.6368 124.324L34.8314 123.873L34.2274 123.273L33.6234 122.672L33.422 122.071L33.2207 121.471L33.422 120.57L33.6234 119.969L34.2274 119.369L34.8314 118.918L35.6368 118.468L36.4422 118.017L37.2475 117.867H38.0529H111.744H112.55L113.556 118.017L114.362 118.468L114.966 118.918L115.771 119.369L116.174 119.969L116.576 120.57V121.471V122.071L116.174 122.672L115.771 123.273L114.966 123.873L114.362 124.324L113.556 124.774L112.55 124.924L111.744 125.074Z" fill="#333333" stroke="black" stroke-width="0.347745"/>
<path d="M70.2676 104.656H79.5293V108.26H70.2676V104.656Z" fill="#999999" stroke="black" stroke-width="0.347745"/>
<path d="M68.6582 114.266H81.1414V116.668H68.6582V114.266Z" fill="#999999" stroke="black" stroke-width="0.347745"/>
<path d="M68.6582 108.258H81.1414V113.063H68.6582V108.258Z" fill="#666666" stroke="black" stroke-width="0.347745"/>
<path d="M65.4355 116.664H84.3617V126.274H65.4355V116.664Z" fill="#666666" stroke="black" stroke-width="0.347745"/>
<path d="M84.3625 97.4453H87.584L76.3088 101.049H73.49L62.2148 97.4453H65.4363L73.49 99.8477V97.4453H76.3088V99.8477L84.3625 97.4453Z" fill="#990000" stroke="black" stroke-width="0.347745"/>
<path d="M57.3828 96.25H92.4164V97.4512H57.3828V96.25Z" fill="#FF0000" stroke="black" stroke-width="0.347745"/>
</g>
<defs>
<clipPath id="clip0_2122_158195">
<rect width="150" height="150" fill="white"/>
</clipPath>
</defs>
</svg>
