<svg width="150" height="150" viewBox="0 0 150 150" fill="none" xmlns="http://www.w3.org/2000/svg">
<g clip-path="url(#clip0_2122_158893)">
<path d="M39.4336 100.203H150.001V142.803H39.4336V100.203Z" fill="#7F7F7F"/>
<path d="M39.4336 102.602H150.001V140.402H39.4336V102.602Z" fill="#999999"/>
<path d="M39.4336 107.398H150.001V135.898H39.4336V107.398Z" fill="#B2B2B2"/>
<path d="M39.4336 111.602H150.001V131.402H39.4336V111.602Z" fill="#CCCCCC"/>
<path d="M39.4336 115.203H150.001V127.803H39.4336V115.203Z" fill="#E5E5E5"/>
<path d="M39.4336 118.797H150.001V124.197H39.4336V118.797Z" fill="white"/>
<path d="M39.4336 142.797H150.001" stroke="black" stroke-width="0.681115"/>
<path d="M150.001 100.203H39.4336" stroke="black" stroke-width="0.681115"/>
<path d="M48.7109 93H67.2676V150H48.7109V93Z" fill="#7F7F7F"/>
<path d="M48.7109 96.2969H67.2676V146.697H48.7109V96.2969Z" fill="#999999"/>
<path d="M48.7109 102.602H67.2676V140.702H48.7109V102.602Z" fill="#B2B2B2"/>
<path d="M48.7109 108.297H67.2676V134.697H48.7109V108.297Z" fill="#CCCCCC"/>
<path d="M48.7109 113.102H67.2676V129.902H48.7109V113.102Z" fill="#E5E5E5"/>
<path d="M48.7109 117.898H67.2676V124.798H48.7109V117.898Z" fill="white"/>
<path d="M48.7109 93H67.2676V150H48.7109V93Z" stroke="black" stroke-width="0.681115"/>
<path d="M122.551 93H140.721V150H122.551V93Z" fill="#7F7F7F"/>
<path d="M122.551 96.2969H140.721V146.697H122.551V96.2969Z" fill="#999999"/>
<path d="M122.551 102.602H140.721V140.702H122.551V102.602Z" fill="#B2B2B2"/>
<path d="M122.551 108.297H140.721V134.697H122.551V108.297Z" fill="#CCCCCC"/>
<path d="M122.551 113.102H140.721V129.902H122.551V113.102Z" fill="#E5E5E5"/>
<path d="M122.551 117.898H140.721V124.798H122.551V117.898Z" fill="white"/>
<path d="M122.551 93H140.721V150H122.551V93Z" stroke="black" stroke-width="0.681115"/>
<path d="M85.4375 99.9016V78.6016H103.994V99.9016L103.221 102.602L101.288 105.002L98.1952 106.502L94.7159 107.102L91.2365 106.502L88.1437 105.002L86.2107 102.602L85.4375 99.9016Z" fill="#7F7F7F"/>
<path d="M86.5977 103.502L88.144 105.002L90.077 106.202L92.3966 106.802L94.7162 107.102L97.4224 106.802L99.3554 106.202L101.288 105.002L102.835 103.502V78.6016H86.5977V103.502Z" fill="#999999"/>
<path d="M88.5312 105.302L90.0776 106.202L91.624 106.502L93.1704 107.102H94.7168H96.2632L98.1962 106.502L99.7426 106.202L100.902 105.302V78.6016H88.5312V105.302Z" fill="#B2B2B2"/>
<path d="M90.4648 106.502L91.6246 106.802H92.7844L93.9442 107.102H94.7174H95.8772L97.037 106.802H98.1968L98.97 106.502V78.6016H90.4648V106.502Z" fill="#CCCCCC"/>
<path d="M92.0098 106.802L92.783 107.102H93.5562H93.9428H94.716H95.4891H96.2623H97.0355L97.8087 106.802V78.6016H92.0098V106.802Z" fill="#E5E5E5"/>
<path d="M93.5566 107.102H93.9432H94.3298H94.7164H95.103H95.4896H95.8762V78.6016H93.5566V107.102Z" fill="white"/>
<path d="M103.994 78.6016V99.9016L103.221 102.602L101.288 105.002L98.1952 106.502L94.7159 107.102L91.2365 106.502L88.1437 105.002L86.2107 102.602L85.4375 99.9016V78.6016" stroke="black" stroke-width="0.681115"/>
<path d="M55.2827 78L47.5508 72V10.8L55.2827 4.5H134.149L142.267 10.8V72L134.149 78H55.2827Z" fill="#999999" stroke="black" stroke-width="0.681115"/>
<path d="M138.403 7.5L142.268 10.8V72L134.15 78H55.2839L51.418 75L58.3767 69.6L61.4695 72H128.351L134.15 67.2V15.3L131.444 12.9L138.403 7.5Z" fill="#7F7F7F"/>
<path d="M51.4168 75L47.5508 72V10.8L55.2827 4.5H134.149L138.401 7.5L131.443 12.9L128.35 10.8H61.4683L55.2827 15.3V67.2L58.3755 69.6L51.4168 75Z" fill="#CCCCCC"/>
<path d="M55.2827 78L47.5508 72V10.8L55.2827 4.5H134.149L142.267 10.8V72L134.149 78H55.2827Z" stroke="black" stroke-width="0.681115"/>
<path d="M149.227 47.4016H40.5934L39.4336 46.8016V36.0016L40.5934 35.1016H149.227L150.001 36.0016V46.8016L149.227 47.4016Z" fill="#999999" stroke="black" stroke-width="0.681115"/>
<path d="M40.5934 47.4016L39.4336 46.8016V36.0016L40.5934 35.1016H149.227L148.068 36.6016H41.3666V45.9016L40.5934 47.4016Z" fill="#CCCCCC"/>
<path d="M149.228 35.1016L150.001 36.0016V46.8016L149.228 47.4016H40.5938L41.3669 45.9016H148.068V36.6016L149.228 35.1016Z" fill="#7F7F7F"/>
<path d="M149.227 47.4016H40.5934L39.4336 46.8016V36.0016L40.5934 35.1016H149.227L150.001 36.0016V46.8016L149.227 47.4016Z" stroke="black" stroke-width="0.681115"/>
<path d="M75.0003 4.5L73.8405 0H64.5621L63.4023 4.5H75.0003Z" fill="#7F7F7F" stroke="black" stroke-width="0.681115"/>
<path d="M73.0673 4.5L72.2941 0H64.5621L63.4023 4.5H73.0673Z" fill="#B2B2B2" stroke="black" stroke-width="0.681115"/>
<path d="M66.1085 0H64.5621L63.4023 4.5H65.3353L66.1085 0Z" fill="#E5E5E5" stroke="black" stroke-width="0.681115"/>
<path d="M47.5508 70.4984H41.3652V51.8984H47.5508V70.4984Z" fill="#7F7F7F" stroke="black" stroke-width="0.681115"/>
<path d="M41.366 58.2031H8.11856L1.93299 59.7031L0 64.2031V100.203H8.11856V65.7031L10.0515 64.2031H41.366V58.2031Z" fill="#999999" stroke="black" stroke-width="0.681115"/>
<path d="M4.25258 100.203H0V64.2031L1.93299 59.7031L8.11856 58.2031H41.366V61.2031H8.11856L5.02577 62.1031L4.25258 64.2031V100.203Z" fill="#CCCCCC"/>
<path d="M41.366 58.2031H8.11856L1.93299 59.7031L0 64.2031V100.203H8.11856V65.7031L10.0515 64.2031H41.366V58.2031Z" stroke="black" stroke-width="0.681115"/>
</g>
<defs>
<clipPath id="clip0_2122_158893">
<rect width="150" height="150" fill="white"/>
</clipPath>
</defs>
</svg>
