<svg width="150" height="150" viewBox="0 0 150 150" fill="none" xmlns="http://www.w3.org/2000/svg">
<g clip-path="url(#clip0_2122_159651)">
<path d="M67.1641 143.697L85.3233 137.391H111.194L129.353 143.697H118.905L111.194 141.295H85.3233L77.6118 143.697H67.1641Z" fill="#7F7F7F" stroke="black" stroke-width="0.386527"/>
<path d="M93.0352 100H103.483V137.387H93.0352V100Z" fill="#CCCCCC" stroke="black" stroke-width="0.386527"/>
<path d="M97.0156 100H99.5032V137.387H97.0156V100Z" fill="white"/>
<path d="M87.5625 106.903L107.712 103.75L108.707 106.002L88.5575 109.306L87.5625 106.903Z" fill="#7F7F7F" stroke="black" stroke-width="0.386527"/>
<path d="M87.5625 113.366L107.712 110.062L108.707 112.315L88.5575 115.618L87.5625 113.366Z" fill="#7F7F7F" stroke="black" stroke-width="0.386527"/>
<path d="M87.5625 119.522L107.712 116.219L108.707 118.471L88.5575 121.774L87.5625 119.522Z" fill="#7F7F7F" stroke="black" stroke-width="0.386527"/>
<path d="M87.5625 125.677L107.712 122.523L108.707 124.776L88.5575 128.079L87.5625 125.677Z" fill="#7F7F7F" stroke="black" stroke-width="0.386527"/>
<path d="M87.5625 131.983L107.712 128.68L108.707 131.082L88.5575 134.235L87.5625 131.983Z" fill="#7F7F7F" stroke="black" stroke-width="0.386527"/>
<path d="M87.5625 138.288L107.712 134.984L108.707 137.237L88.5575 140.54L87.5625 138.288Z" fill="#7F7F7F" stroke="black" stroke-width="0.386527"/>
<path d="M87.5625 100.749L107.712 97.4453L108.707 99.8477L88.5575 103.001L87.5625 100.749Z" fill="#7F7F7F" stroke="black" stroke-width="0.386527"/>
<path d="M82.8359 37.3875V31.9821L37.3135 47.5977L21.8906 31.2313L82.8359 10.0602V6.15625H113.682V37.3875H82.8359Z" fill="#999999"/>
<path d="M85.0751 37.5376V28.8289L36.0701 46.0962L23.1348 32.7328L85.3238 10.9611L85.0751 6.15625H111.194V37.5376H85.0751Z" fill="#B2B2B2"/>
<path d="M90.2977 37.3875V23.4235L33.5813 42.943L25.6211 35.886L90.2977 13.2133V6.15625H105.969V37.3875H90.2977Z" fill="#CCCCCC"/>
<path d="M95.5216 37.3875V17.868L30.845 40.5406L28.3574 38.2884L95.5216 14.7148V6.15625H100.745V37.3875H95.5216Z" fill="#E5E5E5"/>
<path d="M56.7168 0H139.553V6.15616H56.7168V0Z" fill="#999999"/>
<path d="M82.8364 100.003V74.9282L72.3887 68.6219V37.3906H124.13V68.6219L113.682 74.9282V100.003H82.8364Z" fill="#999999" stroke="black" stroke-width="0.386527"/>
<path d="M82.8359 37.3875V31.9821L37.3135 47.5977L21.8906 31.2313L82.8359 10.0602V6.15625H113.682V37.3875H82.8359Z" stroke="black" stroke-width="0.386527"/>
<path d="M63.9297 0H132.586V6.15616H63.9297V0Z" fill="#B2B2B2"/>
<path d="M77.6113 0H118.905V6.15616H77.6113V0Z" fill="#CCCCCC"/>
<path d="M91.293 0H104.975V6.15616H91.293V0Z" fill="#E5E5E5"/>
<path d="M56.7168 0H139.553V6.15616H56.7168V0Z" stroke="black" stroke-width="0.386527"/>
<path d="M8.95522 17.5703L50.2488 60.8136L41.2935 63.9667L0 20.5733L8.95522 17.5703Z" fill="#999999"/>
<path d="M12.4376 21.1719L46.766 57.0578L37.8108 60.2109L3.48242 24.325L12.4376 21.1719Z" fill="#B2B2B2"/>
<path d="M19.1544 28.375L40.05 49.9966L30.846 53.1498L10.1992 31.5282L19.1544 28.375Z" fill="#CCCCCC"/>
<path d="M26.1193 35.5859L33.0845 42.7931L24.1292 45.9463L17.1641 38.7391L26.1193 35.5859Z" fill="#E5E5E5"/>
<path d="M8.95522 17.5703L50.2488 60.8136L41.2935 63.9667L0 20.5733L8.95522 17.5703Z" stroke="black" stroke-width="0.386527"/>
<path d="M90.2988 46.0938H105.97V59.307H90.2988V46.0938Z" fill="#4C4C4C" stroke="black" stroke-width="0.386527"/>
<path d="M94.5273 37.3906H101.99V59.3125H94.5273V37.3906Z" fill="#CCCCCC"/>
<path d="M90.2988 37.3906H105.97V46.0993H90.2988V37.3906Z" stroke="black" stroke-width="0.386527"/>
<path d="M109.95 64.718V37.3906H120.149V67.1204L107.214 74.9282V100.003H89.0545V74.9282L76.1191 67.1204V37.3906H86.5669V64.718L98.2584 71.775L109.95 64.718Z" fill="#CCCCCC"/>
<path d="M90.2988 60.0625V63.9664L98.259 68.6211L105.97 63.9664V60.0625H90.2988Z" fill="#B2B2B2"/>
<path d="M113.682 66.3696V37.3906H116.418V67.1204L101.99 75.6789V100.003H94.2787V75.6789L80.0996 67.1204V37.3906H82.8359V66.3696L98.2588 75.6789L113.682 66.3696Z" fill="#F2F2F2"/>
<path d="M72.3887 37.3906H124.13V46.0993H72.3887V37.3906Z" stroke="black" stroke-width="0.386527"/>
<path d="M113.682 24.1719H121.393V29.5773H113.682V24.1719Z" fill="#666666" stroke="black" stroke-width="0.386527"/>
<path d="M113.682 13.9609H121.393V24.1711H113.682V13.9609Z" fill="#999999" stroke="black" stroke-width="0.386527"/>
<path d="M121.393 20.2734H126.616V26.4296H121.393V20.2734Z" fill="#B2B2B2" stroke="black" stroke-width="0.386527"/>
<path d="M121.393 17.1172H126.616V20.2703H121.393V17.1172Z" fill="#E5E5E5" stroke="black" stroke-width="0.386527"/>
<path d="M144.776 150.002H51.7415L50.4977 149.851L49.5027 149.701L48.7564 149.401L48.0101 149.101L47.2638 148.65L46.7663 148.05L46.5176 147.449V146.848V146.248L46.7663 145.647L47.2638 145.047L48.0101 144.596L48.7564 144.296L49.5027 143.996L50.4977 143.695H51.7415H144.776H145.771L146.766 143.996L147.761 144.296L148.508 144.596L149.005 145.047L149.503 145.647L150 146.248V146.848V147.449L149.503 148.05L149.005 148.65L148.508 149.101L147.761 149.401L146.766 149.701L145.771 149.851L144.776 150.002Z" fill="#999999"/>
<path d="M130.845 150.002H65.6708L64.9245 149.851L64.1783 149.701L63.6807 149.401L62.9345 149.101L62.6857 148.65L62.1882 148.05L61.9395 147.449V146.848V146.248L62.1882 145.647L62.6857 145.047L62.9345 144.596L63.6807 144.296L64.1783 143.996L64.9245 143.695H65.6708H130.845H131.591L132.337 143.996L132.835 144.296L133.332 144.596L133.83 145.047L134.328 145.647V146.248L134.576 146.848L134.328 147.449V148.05L133.83 148.65L133.332 149.101L132.835 149.401L132.337 149.701L131.591 149.851L130.845 150.002Z" fill="#BFBFBF"/>
<path d="M114.428 150.002H81.8409L81.5921 149.851L81.3434 149.701L80.8459 149.401L80.5971 149.101L80.3484 148.65V148.05L80.0996 147.449V146.848V146.248L80.3484 145.647V145.047L80.5971 144.596L80.8459 144.296L81.3434 143.996L81.5921 143.695H81.8409H114.428H114.925L115.174 143.996L115.423 144.296L115.921 144.596V145.047L116.169 145.647L116.418 146.248V146.848V147.449L116.169 148.05L115.921 148.65V149.101L115.423 149.401L115.174 149.701L114.925 149.851L114.428 150.002Z" fill="#E5E5E5"/>
<path d="M144.776 150.002H51.7415L50.4977 149.851L49.5027 149.701L48.7564 149.401L48.0101 149.101L47.2638 148.65L46.7663 148.05L46.5176 147.449V146.848V146.248L46.7663 145.647L47.2638 145.047L48.0101 144.596L48.7564 144.296L49.5027 143.996L50.4977 143.695H51.7415H144.776H145.771L146.766 143.996L147.761 144.296L148.508 144.596L149.005 145.047L149.503 145.647L150 146.248V146.848V147.449L149.503 148.05L149.005 148.65L148.508 149.101L147.761 149.401L146.766 149.701L145.771 149.851L144.776 150.002Z" stroke="black" stroke-width="0.386527"/>
<path d="M85.3242 143.697V137.391H111.195V143.697H85.3242Z" fill="#A6A6A6" stroke="black" stroke-width="0.386527"/>
<path d="M82.8359 95.1953H113.682" stroke="black" stroke-width="0.386527"/>
<path d="M98.259 93.6969C101.144 93.6969 103.483 92.2852 103.483 90.5438C103.483 88.8023 101.144 87.3906 98.259 87.3906C95.374 87.3906 93.0352 88.8023 93.0352 90.5438C93.0352 92.2852 95.374 93.6969 98.259 93.6969Z" fill="#E5E5E5" stroke="black" stroke-width="0.386527"/>
<path d="M98.009 92.0421C99.3829 92.0421 100.497 91.3698 100.497 90.5406C100.497 89.7113 99.3829 89.0391 98.009 89.0391C96.6352 89.0391 95.5215 89.7113 95.5215 90.5406C95.5215 91.3698 96.6352 92.0421 98.009 92.0421Z" fill="black"/>
</g>
<defs>
<clipPath id="clip0_2122_159651">
<rect width="150" height="150" fill="white"/>
</clipPath>
</defs>
</svg>
