<svg width="150" height="150" viewBox="0 0 150 150" fill="none" xmlns="http://www.w3.org/2000/svg">
<g clip-path="url(#clip0_2122_158794)">
<path d="M0 126.094H74.9249V150.001H0V126.094Z" fill="#7F7F7F"/>
<path d="M0 77.5078H74.9249V126.094H0V77.5078Z" fill="#B2B2B2"/>
<path d="M0 53.6016H74.9249V77.509H0V53.6016Z" fill="#CCCCCC"/>
<path d="M0 53.6016H74.9249V150.003H0V53.6016Z" stroke="black" stroke-width="0.481242"/>
<path d="M24.7754 126.094V150.001H26.5772V129.95H60.8114V126.094H24.7754Z" fill="#666666"/>
<path d="M60.8101 77.5078H59.3086V126.094H60.8101V77.5078Z" fill="#999999"/>
<path d="M24.7754 77.5078H59.3099V126.094H24.7754V77.5078Z" fill="#B2B2B2" stroke="black" stroke-width="0.481242"/>
<path d="M26.5772 53.6016H24.7754V77.509H26.5772V53.6016Z" fill="#B2B2B2"/>
<path d="M24.7752 53.6016H12.4629V150.003H24.7752V53.6016Z" fill="#7F7F7F"/>
<path d="M24.7752 59.7656H12.4629V143.827H24.7752V59.7656Z" fill="#999999"/>
<path d="M24.7752 69.7969H12.4629V133.807H24.7752V69.7969Z" fill="#B2B2B2"/>
<path d="M24.7752 81.3594H12.4629V121.462H24.7752V81.3594Z" fill="#CCCCCC"/>
<path d="M24.7752 93.7031H12.4629V109.898H24.7752V93.7031Z" fill="#E5E5E5"/>
<path d="M24.7752 53.6016H12.4629V150.003H24.7752V53.6016Z" stroke="black" stroke-width="0.481242"/>
<path d="M24.7754 55.9114V37.4024H25.376H25.9766H26.5772H27.1778H27.7784H28.379H28.9796H29.5802H30.1808H30.7814H31.382H31.9826H32.5832H33.1838H33.7844H34.385L35.5862 37.0167L36.6373 36.2455L37.6883 35.8599L38.7394 35.4743L39.7904 35.0887L40.6913 34.7031H41.5922H42.6433H43.5442H44.2949L45.346 35.0887L46.2469 35.4743L47.1478 35.8599L48.0487 36.2455L49.0997 37.0167L50.0006 37.4024V38.5592V39.716V40.8728V42.0296V43.1864V44.3432V45.5V46.6569V47.8137V48.9705V50.1273V51.2841V52.4409V53.5977V54.7545V55.9114L49.0997 56.6826L48.0487 57.0682L47.1478 57.8394L46.2469 58.225L45.346 58.6106H44.2949L43.5442 58.9962H42.6433H41.5922L40.6913 58.6106H39.7904L38.7394 58.225L37.6883 57.8394L36.6373 57.0682L35.5862 56.6826L34.385 55.9114H24.7754Z" fill="#B2B2B2" stroke="black" stroke-width="0.481242"/>
<path d="M44.5938 57.4588L49.0983 55.9164V37.4074L44.5938 35.0938V57.4588Z" fill="#999999"/>
<path d="M39.7892 57.4588L34.9844 55.9164V37.4074L39.7892 35.0938V57.4588Z" fill="#CCCCCC"/>
<path d="M35.8867 11.5703H48.4993V23.9096H35.8867V11.5703Z" fill="#B2B2B2" stroke="black" stroke-width="0.481242"/>
<path d="M35.8867 31.2344H48.4993V35.0904H35.8867V31.2344Z" fill="#CCCCCC" stroke="black" stroke-width="0.481242"/>
<path d="M38.8887 11.5703H45.195V23.9096H38.8887V11.5703Z" fill="#E5E5E5" stroke="black" stroke-width="0.481242"/>
<path d="M63.2129 0H150V15.4242H63.2129V0Z" fill="#FF6600"/>
<path d="M63.2129 15.4219H150V19.6635H63.2129V15.4219Z" fill="#D94000"/>
<path d="M63.2129 5.39844H150V9.64008H63.2129V5.39844Z" fill="#FF8C00"/>
<path d="M63.2129 0H150V19.6658H63.2129V0Z" stroke="black" stroke-width="0.481242"/>
<path d="M37.3867 9.64062H46.696V11.5686H37.3867V9.64062Z" fill="#E5E5E5" stroke="black" stroke-width="0.481242"/>
<path d="M31.0811 37.4036V37.018V35.8612L31.2313 34.7043L31.3814 33.9331L31.5316 32.7763L31.8319 32.0051L32.1322 31.6195L32.5826 31.2339H33.0331H33.4835H33.934H34.3844H34.8349H35.4355H35.8859H36.4865H37.2373H37.8379H38.4385H39.0391H39.7898H40.5406H41.1412H41.8919H42.6427H43.3934H44.1442H44.8949H45.6457H46.3964H47.1472H48.0481H48.7988H49.5496H50.3003H51.0511H51.8018H52.5526H53.3034H53.904H54.2043L54.5046 30.4627L54.955 29.6915L55.2553 28.5347L55.7058 27.3779L56.1562 25.8355L56.4565 24.293L56.907 22.365L57.3574 20.8226L57.8079 19.2802L58.2583 17.7378L58.7088 16.581L59.1592 15.4241L59.4595 14.2673L59.91 13.8817H60.2103H60.5106H60.8109H61.2613H61.5616H62.0121H62.4625H62.913H63.2133V12.7249V11.5681V10.4113V9.25448V8.48327V7.32646V6.16965V5.39844H62.7628H62.1622H61.5616H60.961H60.2103H59.6097H59.0091H58.4085H58.1082L57.8079 6.16965L57.3574 6.94085L57.0571 8.09767L56.6067 9.64008L56.3064 11.1825L55.8559 12.7249L55.4055 14.2673L54.955 16.1954L54.5046 17.7378L54.2043 19.2802L53.7538 20.8226L53.4535 21.9794L53.003 22.7506L52.7027 23.5218L52.4024 23.9074H51.6517H50.9009H50.1502H49.2493H48.4985H47.5976H46.8469H45.946H45.1952H44.2943H43.5436H42.6427H41.8919H40.991H40.2403H39.4895H38.7388H37.8379H37.0871H36.4865H35.7358H34.985H34.3844H33.6337H33.0331H32.4325H31.982H31.3814H30.931H30.4805H30.0301H29.5796H29.4295L29.1292 24.293L28.979 24.6786L28.8289 25.0642L28.5286 25.8355V26.9923L28.3784 27.7635V28.9203L28.2283 30.0771V31.2339L28.0781 32.3907V33.5475V34.7043V35.4756V36.6324V37.4036H28.5286H28.8289H29.2793H29.5796H30.0301H30.3304H30.7808H31.0811Z" fill="#E5E5E5"/>
<path d="M31.0816 37.4041V37.0185V35.8617L31.2317 34.7049L31.3819 33.9337L31.532 32.7769L31.8323 32.0057L32.1326 31.6201L32.5831 31.2345H33.0335H33.484H33.9344H34.3849H34.8353H35.4359H35.8864H36.487H37.2377H37.8383H38.4389H39.0395H39.7903H40.541H41.1416H41.8924H42.6431H43.3939H44.1446H44.8954H45.6461H46.3969H47.1476H48.0485H48.7993H49.55H50.3008H51.0515H51.8023H52.5531H53.3038H53.9044H54.2047L54.505 30.4632L54.9555 29.692L55.2558 28.5352L55.7062 27.3784L56.1567 25.836L56.457 24.2936L56.9074 22.3656L57.3579 20.8231L57.8083 19.2807L58.2588 17.7383L58.7092 16.5815L59.1597 15.4247L59.46 14.2679L59.9104 13.8823H60.2107H60.511H60.8113H61.2618H61.5621H62.0125H62.463H62.9134H63.2137V12.7255V11.9542V11.5686V11.183V10.7974V10.4118V9.64062H62.7633H62.3128H61.7122H61.2618H60.8113H60.2107H59.7603H59.3098L59.0095 10.0262L58.7092 10.4118L58.2588 11.5686L57.9585 12.7255L57.508 13.8823L57.0576 15.4247L56.6071 16.9671L56.1567 18.8951L55.7062 20.4375L55.2558 21.98L54.8053 23.5224L54.505 24.6792L54.0546 25.836L53.7543 26.9928L53.3038 27.3784L53.0035 27.764H52.2528H51.502H50.7512H50.0005H49.2497H48.499H47.5981H46.8473H46.0966H45.3458H44.5951H43.8443H43.0936H42.3428H41.5921H40.9915H40.2407H39.6401H38.8894H38.2888H37.6882H36.9374H36.3368H35.7362H35.2858H34.6852H34.2347H33.7843H33.1837H32.8834H32.4329H31.9825H31.532L30.9314 28.5352L30.6311 29.692L30.3308 30.8489L30.0305 32.3913L29.7302 33.9337L29.5801 35.8617V37.4041H30.0305H30.1807H30.3308H30.481H30.6311H30.9314H31.0816Z" fill="#B2B2B2"/>
<path d="M31.0811 37.4036V37.018V35.8612L31.2313 34.7044L31.3814 33.9331L31.5316 32.7763L31.8319 32.0051L32.1322 31.6195L32.5826 31.2339H33.0331H33.4835H33.934H34.3844H34.8349H35.4355H35.8859H36.4865H37.2373H37.8379H38.4385H39.0391H39.7898H40.5406H41.1412H41.8919H42.6427H43.3934H44.1442H44.8949H45.6457H46.3964H47.1472H48.0481H48.7988H49.5496H50.3003H51.0511H51.8018H52.5526H53.3034H53.904H54.2043L54.5046 30.4627L54.955 29.6915L55.2553 28.5347L55.7058 27.3779L56.1562 25.8355L56.4565 24.293L56.907 22.365L57.3574 20.8226L57.8079 19.2802L58.2583 17.7378L58.7088 16.581L59.1592 15.4241L59.4595 14.2673L59.91 13.8817H60.2103H60.5106H60.8109H61.2613H61.5616H62.0121H62.4625H62.913H63.2133V12.7249V11.5681V10.4113V9.25448V8.48327V7.32646V6.16965V5.39844H62.7628H62.1622H61.5616H60.961H60.2103H59.6097H59.0091H58.4085H58.1082L57.8079 6.16965L57.3574 6.94085L57.0571 8.09767L56.6067 9.64008L56.3064 11.1825L55.8559 12.7249L55.4055 14.2673L54.955 16.1954L54.5046 17.7378L54.2043 19.2802L53.7538 20.8226L53.4535 21.9794L53.003 22.7506L52.7027 23.5218L52.4024 23.9074H51.6517H50.9009H50.1502H49.2493H48.4985H47.5976H46.8469H45.946H45.1952H44.2943H43.5436H42.6427H41.8919H40.991H40.2403H39.4895H38.7388H37.8379H37.0871H36.4865H35.7358H34.985H34.3844H33.6337H33.0331H32.4325H31.982H31.3814H30.931H30.4805H30.0301H29.5796H29.4295L29.1292 24.293L28.979 24.6786L28.8289 25.0642L28.5286 25.8355V26.9923L28.3784 27.7635V28.9203L28.2283 30.0771V31.2339L28.0781 32.3907V33.5475V34.7044V35.4756V36.6324V37.4036H28.5286H28.8289H29.2793H29.5796H30.0301H30.3304H30.7808H31.0811Z" stroke="black" stroke-width="0.481242"/>
</g>
<defs>
<clipPath id="clip0_2122_158794">
<rect width="150" height="150" fill="white"/>
</clipPath>
</defs>
</svg>
