<svg width="150" height="150" viewBox="0 0 150 150" fill="none" xmlns="http://www.w3.org/2000/svg">
<path d="M50.2981 62.6136V50.1511H38.0957V43.995H50.2981V31.6826H38.0957V25.3763H50.2981V6.90787L56.5481 3.75472L68.7505 0.601562H80.9528L93.4528 3.75472L99.4052 6.90787V25.3763H111.608V31.6826H99.4052V43.995H111.608V50.1511H99.4052V62.6136H50.2981Z" fill="#7F7F7F"/>
<path d="M54.4648 62.6136V50.1511H44.3457V43.995H54.4648V31.6826H44.3457V25.3763H54.4648V6.90787L59.8219 3.75472L69.9409 0.601562H80.3576L90.4767 3.75472L95.2386 6.90787V25.3763H105.655V31.6826H95.2386V43.995H105.655V50.1511H95.2386V62.6136H54.4648Z" fill="#999999"/>
<path d="M58.6302 62.6136V50.1511H50.2969V43.995H58.6302V31.6826H50.2969V25.3763H58.6302V6.90787L62.7969 3.75472L70.8326 0.601562H79.1659L87.2016 3.75472L91.3683 6.90787V25.3763H99.404V31.6826H91.3683V43.995H99.404V50.1511H91.3683V62.6136H58.6302Z" fill="#B2B2B2"/>
<path d="M62.7969 62.6136V50.1511H56.5469V43.995H62.7969V31.6826H56.5469V25.3763H62.7969V6.90787L65.7731 3.75472L72.0231 0.601562H77.9754L84.2254 3.75472L87.2016 6.90787V25.3763H93.4516V31.6826H87.2016V43.995H93.4516V50.1511H87.2016V62.6136H62.7969Z" fill="#CCCCCC"/>
<path d="M70.8333 62.6136V50.1511H68.75V43.995H70.8333V31.6826H68.75V25.3763H70.8333V6.90787L72.0238 3.75472L73.8095 0.601562H75.8929L77.9762 3.75472L79.1667 6.90787V25.3763H80.9524V31.6826H79.1667V43.995H80.9524V50.1511H79.1667V62.6136H70.8333Z" fill="#E5E5E5"/>
<path d="M50.2981 62.6136V50.1511H38.0957V43.995H50.2981V31.6826H38.0957V25.3763H50.2981V6.90787L56.5481 3.75472L68.7505 0.601562H80.9528L93.4528 3.75472L99.4052 6.90787V25.3763H111.608V31.6826H99.4052V43.995H111.608V50.1511H99.4052V62.6136H50.2981Z" stroke="black" stroke-width="0.422789"/>
<path d="M1.19141 115.164H19.6438V124.473H130.06V115.164H148.513V149.248H130.06V139.939H19.6438V149.248H1.19141V115.164Z" fill="#7F7F7F"/>
<path d="M1.19141 118.172H19.6438V125.83H130.06V118.172H148.513V146.1H130.06V138.592H19.6438V146.1H1.19141V118.172Z" fill="#999999"/>
<path d="M1.19141 121.32H19.6438V127.176H130.06V121.32H148.513V142.942H130.06V137.086H19.6438V142.942H1.19141V121.32Z" fill="#B2B2B2"/>
<path d="M1.19141 124.477H19.6438V128.681H130.06V124.477H148.513V139.942H130.06V135.738H19.6438V139.942H1.19141V124.477Z" fill="#CCCCCC"/>
<path d="M1.19141 130.633H19.6438V131.534H130.06V130.633H148.513V133.636H130.06V132.885H19.6438V133.636H1.19141V130.633Z" fill="#E5E5E5"/>
<path d="M1.19141 115.164H19.6438V124.473H130.06V115.164H148.513V149.248H130.06V139.939H19.6438V149.248H1.19141V115.164Z" stroke="black" stroke-width="0.422789"/>
<path d="M19.6426 139.942V124.477" stroke="black" stroke-width="0.422789"/>
<path d="M130.059 124.477V139.942" stroke="black" stroke-width="0.422789"/>
<path d="M50.2969 25.375H99.404" stroke="black" stroke-width="0.422789"/>
<path d="M99.404 31.6797H50.2969" stroke="black" stroke-width="0.422789"/>
<path d="M50.2969 43.9922H99.404" stroke="black" stroke-width="0.422789"/>
<path d="M99.404 50.1484H50.2969" stroke="black" stroke-width="0.422789"/>
<path d="M50.2969 59.4609H99.404" stroke="black" stroke-width="0.422789"/>
<path d="M50.2981 62.6094L44.3457 65.6124V112.009L47.3219 113.51L50.2981 112.009H99.4052V65.6124L102.381 64.1109L99.4052 62.6094H50.2981Z" fill="#7F7F7F" stroke="black" stroke-width="0.422789"/>
<path d="M62.7969 115.164L56.5469 118.167V136.786L59.5231 138.287L62.7969 136.786H87.2016V118.167L90.1778 116.666L87.2016 115.164H62.7969Z" fill="#7F7F7F" stroke="black" stroke-width="0.422789"/>
<path d="M99.4056 112.015H50.2985L47.3223 113.517L50.2985 115.168H99.4056L105.656 112.015V65.6187L102.382 64.1172L99.4056 65.6187V112.015Z" fill="#4C4C4C" stroke="black" stroke-width="0.422789"/>
<path d="M87.202 136.784H62.7972L59.5234 138.286L62.7972 139.937H87.202L93.452 136.784V118.166L90.1782 116.664L87.202 118.166V136.784Z" fill="#4C4C4C" stroke="black" stroke-width="0.422789"/>
<path d="M50.2969 112.014V65.6172H99.404" stroke="white" stroke-width="0.422789"/>
<path d="M62.7969 136.79V118.172H87.2016" stroke="white" stroke-width="0.422789"/>
</svg>
