<svg width="150" height="150" viewBox="0 0 150 150" fill="none" xmlns="http://www.w3.org/2000/svg">
<g clip-path="url(#clip0_2122_160262)">
<path d="M123.348 4.79688L150 32.622L123.348 60.1274L96.3848 32.622L123.348 4.79688Z" fill="black" stroke="black" stroke-width="0.629669"/>
<path d="M110.64 43.1769L68.1815 87.3133L61.3633 79.9573L103.822 36.1406L110.64 43.1769Z" fill="#7F7F7F"/>
<path d="M110.022 42.5382L67.5629 86.3548L61.9844 80.9177L104.443 36.7812L110.022 42.5382Z" fill="#B2B2B2"/>
<path d="M109.092 41.5801L66.6331 85.7166L62.9141 81.5588L105.373 37.7422L109.092 41.5801Z" fill="#E5E5E5"/>
<path d="M107.851 40.2949L65.392 84.4314L64.1523 82.8323L106.611 39.0156L107.851 40.2949Z" fill="white"/>
<path d="M103.822 36.1406L61.3633 79.9573" stroke="black" stroke-width="0.629669"/>
<path d="M68.1816 87.3161L110.64 43.1797" stroke="black" stroke-width="0.629669"/>
<path d="M119.008 0L145.351 27.8252L119.008 55.3305L92.0449 27.8252L119.008 0Z" fill="#7F7F7F" stroke="black" stroke-width="0.629669"/>
<path d="M105.371 31.3411L115.288 41.5756L123.656 32.6204L114.049 22.7057L122.417 14.0703L132.334 23.985" stroke="black" stroke-width="0.629669"/>
<path d="M0 150.002L34.7107 114.501L0 78.6797V150.002Z" fill="#7F7F7F"/>
<path d="M0 146.801L34.7107 114.498L0 82.1953V146.801Z" fill="#999999"/>
<path d="M0 138.809L34.7107 114.502L0 89.875V138.809Z" fill="#B2B2B2"/>
<path d="M0 132.087L34.7107 114.496L0 96.5859V132.087Z" fill="#CCCCCC"/>
<path d="M0 126.65L34.7107 114.497L0 102.023V126.65Z" fill="#E5E5E5"/>
<path d="M0 118.659L34.7107 114.501L0 110.023V118.659Z" fill="white"/>
<path d="M0 150.002L34.7107 114.501L0 78.6797V150.002Z" stroke="black" stroke-width="0.629669"/>
<path d="M69.1118 150.002L34.7109 114.501L69.1118 78.6797V150.002Z" fill="#7F7F7F"/>
<path d="M69.1118 146.801L34.7109 114.498L69.1118 82.1953V146.801Z" fill="#999999"/>
<path d="M69.1118 138.809L34.7109 114.502L69.1118 89.875V138.809Z" fill="#B2B2B2"/>
<path d="M69.1118 132.087L34.7109 114.496L69.1118 96.5859V132.087Z" fill="#CCCCCC"/>
<path d="M69.1118 126.65L34.7109 114.497L69.1118 102.023V126.65Z" fill="#E5E5E5"/>
<path d="M69.1118 118.659L34.7109 114.501L69.1118 110.023V118.659Z" fill="white"/>
<path d="M69.1118 150.002L34.7109 114.501L69.1118 78.6797V150.002Z" stroke="black" stroke-width="0.629669"/>
<path d="M0 78.6797L34.7107 114.501L69.1116 78.6797H0Z" fill="#7F7F7F"/>
<path d="M3.09961 78.6797L34.7112 114.501L66.0128 78.6797H3.09961Z" fill="#999999"/>
<path d="M10.8477 78.6797L34.7113 114.501L58.265 78.6797H10.8477Z" fill="#B2B2B2"/>
<path d="M17.3555 78.6797L34.7108 114.501L51.7563 78.6797H17.3555Z" fill="#CCCCCC"/>
<path d="M22.623 78.6797L34.7098 114.501L46.4867 78.6797H22.623Z" fill="#E5E5E5"/>
<path d="M30.3711 78.6797L34.7099 114.501L38.7389 78.6797H30.3711Z" fill="white"/>
<path d="M0 78.6797L34.7107 114.501L69.1116 78.6797H0Z" stroke="black" stroke-width="0.629669"/>
<path d="M0 150.001L34.7107 114.5L69.1116 150.001H0Z" fill="#7F7F7F"/>
<path d="M3.09961 150.001L34.7112 114.5L66.0128 150.001H3.09961Z" fill="#999999"/>
<path d="M10.8477 150.001L34.7113 114.5L58.265 150.001H10.8477Z" fill="#B2B2B2"/>
<path d="M17.3555 150.001L34.7108 114.5L51.7563 150.001H17.3555Z" fill="#CCCCCC"/>
<path d="M22.623 150.001L34.7098 114.5L46.4867 150.001H22.623Z" fill="#E5E5E5"/>
<path d="M30.3711 150.001L34.7099 114.5L38.7389 150.001H30.3711Z" fill="white"/>
<path d="M0 150.001L34.7107 114.5L69.1116 150.001H0Z" stroke="black" stroke-width="0.629669"/>
</g>
<defs>
<clipPath id="clip0_2122_160262">
<rect width="150" height="150" fill="white"/>
</clipPath>
</defs>
</svg>
