<svg width="150" height="150" viewBox="0 0 150 150" fill="none" xmlns="http://www.w3.org/2000/svg">
<g clip-path="url(#clip0_2122_158129)">
<path d="M73.3613 46.3984H82.437V74.6267H73.3613V46.3984Z" fill="#CCCCCC" stroke="black" stroke-width="0.389117"/>
<path d="M76.3867 46.3984H79.4119V74.6267H76.3867V46.3984Z" fill="white"/>
<path d="M25.9668 86.6328H31.7651V88.4346H25.9668V86.6328Z" fill="#999999" stroke="black" stroke-width="0.389117"/>
<path d="M40.8406 50.75H16.1348V60.9602H40.8406V50.75Z" fill="#999999" stroke="black" stroke-width="0.389117"/>
<path d="M69.0762 41.1406H86.7232V46.3959H69.0762V41.1406Z" fill="#999999" stroke="black" stroke-width="0.389117"/>
<path d="M53.9492 50.75H58.487V64.1134H53.9492V50.75Z" fill="#999999" stroke="black" stroke-width="0.389117"/>
<path d="M52.6895 60.5121V59.7614H63.0256V43.6953H93.5298V44.5962H64.5382V60.5121H52.6895Z" fill="#4C4C4C" stroke="black" stroke-width="0.389117"/>
<path d="M69.0762 80.4844H86.7232V82.2862H69.0762V80.4844Z" fill="#4C4C4C" stroke="black" stroke-width="0.389117"/>
<path d="M40.8398 52.5547H59.9995V54.3565H40.8398V52.5547Z" fill="#4C4C4C" stroke="black" stroke-width="0.389117"/>
<path d="M96.5547 35.7344H108.403V50.7494H96.5547V35.7344Z" fill="#CCCCCC" stroke="black" stroke-width="0.389117"/>
<path d="M53.9492 142.789H102.353V149.996H53.9492V142.789Z" fill="#666666" stroke="black" stroke-width="0.389117"/>
<path d="M132.101 128.68V141.142H120.252V128.68H132.101Z" fill="#666666" stroke="black" stroke-width="0.389117"/>
<path d="M36.3019 128.68V141.142H24.4531V128.68H36.3019Z" fill="#666666" stroke="black" stroke-width="0.389117"/>
<path d="M53.9492 90.9922H102.353V98.1994H53.9492V90.9922Z" fill="#666666" stroke="black" stroke-width="0.389117"/>
<path d="M63.0254 82.2812H93.5296V87.5365H63.0254V82.2812Z" fill="#666666" stroke="black" stroke-width="0.389117"/>
<path d="M71.8496 82.2812H86.7236V87.5365H71.8496V82.2812Z" fill="#999999" stroke="black" stroke-width="0.389117"/>
<path d="M63.0254 90.9922H86.7229V98.1994H63.0254V90.9922Z" fill="#999999" stroke="black" stroke-width="0.389117"/>
<path d="M132.101 114.562V128.677H120.252V114.562H132.101Z" fill="#999999" stroke="black" stroke-width="0.389117"/>
<path d="M36.3019 114.562V128.677H24.4531V114.562H36.3019Z" fill="#999999" stroke="black" stroke-width="0.389117"/>
<path d="M67.5625 142.789H92.0163V149.996H67.5625V142.789Z" fill="#999999" stroke="black" stroke-width="0.389117"/>
<path d="M42.1016 41.1437L42.6058 39.7924L43.6142 38.5912L45.1268 37.39L47.1436 36.3389L49.4125 35.438L51.6814 34.5371L53.6982 33.9365L55.4629 33.4861L55.9671 33.6362H56.9755L57.9839 33.7864H59.2444H60.757L62.2696 33.9365H64.0343H65.799H67.5637H69.0764H70.589H72.1016H73.3621H74.1184H74.6226H74.8747V34.2368V34.8374V35.7383V36.6392V37.5401V38.441V39.0416V39.3419H74.6226H74.1184H73.3621H72.1016H70.589H69.0764H67.5637H65.799H64.0343H62.2696H60.757H59.2444H57.9839H56.9755H55.9671H55.4629H54.9587L53.9503 39.4921L52.9419 39.6422L51.9335 39.9425L51.1772 40.393L50.4209 40.8434L49.9167 41.2939L49.6646 42.0446V43.8464V45.4981V46.9996V48.5011V50.0026V51.354V52.7053V53.9065V55.2579V56.3089V57.5101V58.5612V59.6122V60.6633V61.7143V62.7654V63.8164V64.8675V65.9185V67.1197V68.1708V69.372V70.5732V71.7744V73.1257V74.3269V75.8284V77.3299V78.8314V80.4831V82.1347V83.9365V84.6873L49.9167 85.1377L50.1688 85.5882L50.673 86.0386L51.4293 86.3389L52.1856 86.4891L52.9419 86.6392H53.9503H56.9755H60.0007H63.0259H65.799H68.8242H71.8495H74.8747H77.8999H80.9251H83.9503H87.2276H90.2528H93.278H96.3032H99.3284H102.354H103.362L104.37 86.4891L105.127 86.3389L105.631 86.0386L106.135 85.5882L106.639 85.1377V84.6873L106.891 83.9365V82.1347V80.4831V78.8314V77.3299V75.9786V74.4771V73.1257V71.9245V70.7233V69.5221V68.3209V67.1197V66.0687V65.0176V63.8164V62.7654V61.7143V60.6633V59.6122V58.5612V57.36V56.3089V55.1077V53.9065V52.5552V51.354V49.8525V48.5011V46.9996V45.3479V43.6963V42.0446L106.639 41.2939L106.135 40.8434L105.379 40.393L104.37 39.9425L103.362 39.6422L102.606 39.4921L101.597 39.3419H100.841H100.337H99.5806H98.5721H97.3116H95.5469H93.7822H92.2696H90.2528H88.4881H86.7234H85.2108H83.6982H82.6898H81.6814H81.1772H80.9251V39.0416V38.441V37.5401V36.6392V35.7383V34.8374V34.2368V33.9365L81.1772 33.7864L81.6814 33.6362L82.6898 33.4861H83.9503L85.4629 33.3359H87.2276H88.9923L91.0091 33.4861H92.7738H94.5385L96.3032 33.6362H97.8158H99.0763H100.085H100.589L100.841 33.4861L102.606 33.9365L104.875 34.5371L107.144 35.438L109.16 36.3389L111.177 37.39L112.69 38.5912L113.95 39.7924L114.202 41.1437V42.9455V44.7473V46.5492V48.0507V49.7023V51.0537V52.5552V53.9065V55.2579V56.4591V57.6603V58.8615V60.0627V61.1137V62.3149V63.366V64.5672V65.6182V66.8194V68.0206V69.2218V70.423V71.6242V72.9756V74.3269V75.6783V77.1798V78.8314V80.3329V82.1347V83.9365V85.7383L113.95 87.0897L113.194 88.1407L112.186 89.0416L110.673 89.7924L108.656 90.393L106.639 90.6933L104.623 90.9936H102.354H99.3284H96.3032H93.278H90.2528H87.2276H83.9503H80.9251H77.8999H74.8747H71.8495H68.8242H65.799H63.0259H60.0007H56.9755H53.9503H51.9335L49.6646 90.6933L47.6478 90.393L45.8831 89.7924L44.3705 89.0416L43.11 88.1407L42.6058 87.0897L42.1016 85.7383V83.9365V82.1347V80.3329V78.8314V77.1798V75.6783V74.3269V72.9756V71.6242V70.423V69.2218V68.0206V66.8194V65.6182V64.5672V63.366V62.3149V61.1137V60.0627V58.8615V57.6603V56.4591V55.2579V53.9065V52.5552V51.0537V49.7023V48.0507V46.5492V44.7473V42.9455V41.1437Z" fill="#0000FF" stroke="black" stroke-width="0.389117"/>
<path d="M71.8496 75.2266H84.7068V80.4818H71.8496V75.2266Z" fill="#B2B2B2" stroke="black" stroke-width="0.389117"/>
<path d="M5.79883 17.5703H150.001V21.1739H5.79883V17.5703Z" fill="#0000E5" stroke="black" stroke-width="0.389117"/>
<path d="M138.152 10.5081V12.6102V13.6613V13.9616V14.1117V14.5622V15.6132V17.5652H137.9H136.892H135.127H132.858H130.337H127.06H123.278H119.245H114.959H110.169H105.379H100.337H94.7909H89.4967H83.9505H78.1522H72.606H67.0598H61.5135H56.2194H51.1774H46.1354H41.5976H37.0598H33.0261H29.4967H26.2194H23.4463H21.4295H19.6648H18.6564H18.4043V15.6132V14.5622V14.1117V13.9616V13.6613V12.6102V10.5081V9.90754L18.9085 9.15679L19.4127 8.55619L20.4211 8.10574L21.1774 7.65529L22.1858 7.35499L23.1942 7.05469H24.4547H27.732H31.0093H34.5388H37.8161H41.0934H44.6228H47.9001H51.1774H54.4547H57.9841H61.2614H64.7909H68.0682H71.5976H74.8749H78.1522H81.6816H84.9589H88.4883H91.7656H95.2951H98.5724H101.85H105.127H108.656H111.934H115.463H118.74H122.018H125.547H128.824H132.102H133.362L134.371 7.35499L135.379 7.65529L136.135 8.10574L136.892 8.55619L137.648 9.15679L137.9 9.90754L138.152 10.5081Z" fill="#0000FF" stroke="black" stroke-width="0.389117"/>
<path d="M18.4043 32.1352V30.1832V29.1322V28.6817V28.2313V27.1802V25.0781H18.6564H19.6648H21.4295H23.4463H26.2194H29.4967H33.0261H37.0598H41.5976H46.1354H51.1774H56.2194H61.5135H67.0598H72.606H78.1522H83.9505H89.4967H94.7909H100.337H105.379H110.169H114.959H119.245H123.278H127.06H130.337H132.858H135.127H136.892H137.9H138.152V27.1802V28.2313V28.6817V29.1322V30.1832V32.1352L137.9 32.8859L137.648 33.4865L136.892 34.0871L136.135 34.6877L135.379 35.1382L134.371 35.4385L133.362 35.7388H132.102H128.824H125.547H122.018H118.74H115.463H111.934H108.656H105.127H101.85H98.5724H95.2951H91.7656H88.4883H84.9589H81.6816H78.1522H74.8749H71.5976H68.0682H64.7909H61.2614H57.9841H54.4547H51.1774H47.9001H44.6228H41.0934H37.8161H34.5388H31.0093H27.732H24.4547H23.1942L22.1858 35.4385L21.1774 35.1382L20.4211 34.6877L19.4127 34.0871L18.9085 33.4865L18.4043 32.8859V32.1352Z" fill="#0000CC" stroke="black" stroke-width="0.389117"/>
<path d="M5.79883 21.1719H150.001V25.0758H5.79883V21.1719Z" fill="#0000CC" stroke="black" stroke-width="0.389117"/>
<path d="M8.82422 17.5674H14.6225V15.7656H8.82422V17.5674Z" fill="#4C4CFF" stroke="black" stroke-width="0.389117"/>
<path d="M140.924 17.5674H146.974V15.7656H140.924V17.5674Z" fill="#4C4CFF" stroke="black" stroke-width="0.389117"/>
<path d="M74.873 17.5674H80.9235V15.7656H74.873V17.5674Z" fill="#4C4CFF" stroke="black" stroke-width="0.389117"/>
<path d="M30.252 17.5674H36.3024V15.7656H30.252V17.5674Z" fill="#4C4CFF" stroke="black" stroke-width="0.389117"/>
<path d="M51.1758 17.5674H56.9741V15.7656H51.1758V17.5674Z" fill="#4C4CFF" stroke="black" stroke-width="0.389117"/>
<path d="M99.3281 17.5674H105.379V15.7656H99.3281V17.5674Z" fill="#4C4CFF" stroke="black" stroke-width="0.389117"/>
<path d="M120.252 17.5674H126.302V15.7656H120.252V17.5674Z" fill="#4C4CFF" stroke="black" stroke-width="0.389117"/>
<path d="M8.82422 26.8799H15.3788V25.0781H8.82422V26.8799Z" fill="#0000CC" stroke="black" stroke-width="0.389117"/>
<path d="M140.924 26.8799H147.731V25.0781H140.924V26.8799Z" fill="#0000CC" stroke="black" stroke-width="0.389117"/>
<path d="M74.873 26.8799H81.6798V25.0781H74.873V26.8799Z" fill="#0000CC" stroke="black" stroke-width="0.389117"/>
<path d="M29.4961 26.8799H36.3028V25.0781H29.4961V26.8799Z" fill="#0000CC" stroke="black" stroke-width="0.389117"/>
<path d="M51.1758 26.8799H57.7304V25.0781H51.1758V26.8799Z" fill="#0000CC" stroke="black" stroke-width="0.389117"/>
<path d="M99.3281 26.8799H105.379V25.0781H99.3281V26.8799Z" fill="#0000CC" stroke="black" stroke-width="0.389117"/>
<path d="M120.252 26.8799H126.302V25.0781H120.252V26.8799Z" fill="#0000CC" stroke="black" stroke-width="0.389117"/>
<path d="M66.0508 35.7344H89.7483V41.1398H66.0508V35.7344Z" fill="#0000CC" stroke="black" stroke-width="0.389117"/>
<path d="M53.9492 98.1953H102.353V103.451H53.9492V98.1953Z" fill="#999999"/>
<path d="M58.4883 98.1953H97.816V103.451H58.4883V98.1953Z" fill="#B2B2B2"/>
<path d="M64.5371 98.1953H92.0161V103.451H64.5371V98.1953Z" fill="#CCCCCC"/>
<path d="M70.5879 98.1953H85.2097V103.451H70.5879V98.1953Z" fill="#E5E5E5"/>
<path d="M76.3867 98.1953H79.4119V103.451H76.3867V98.1953Z" fill="white"/>
<path d="M53.9492 98.1953H102.353V103.451H53.9492V98.1953Z" stroke="black" stroke-width="0.389117"/>
<path d="M16.1348 72.5234V75.2261H19.16V74.3252H37.8154V75.2261H40.8406V72.5234H16.1348Z" fill="#B2B2B2" stroke="black" stroke-width="0.389117"/>
<path d="M19.1602 74.3281H37.8156V86.6404H19.1602V74.3281Z" fill="#B2B2B2" stroke="black" stroke-width="0.389117"/>
<path d="M53.9498 103.453V107.057L51.1767 108.708H39.3279L36.3027 107.057V139.339L39.3279 137.537H51.1767L53.9498 139.339V142.792H102.353V139.339L105.378 137.537H117.227L120.252 139.339V107.057L117.227 108.708H105.378L102.353 107.057V103.453H53.9498Z" fill="#B2B2B2" stroke="black" stroke-width="0.389117"/>
<path d="M132.101 105.258V114.567H120.252V105.258H132.101Z" fill="#CCCCCC" stroke="black" stroke-width="0.389117"/>
<path d="M36.3019 105.258V114.567H24.4531V105.258H36.3019Z" fill="#CCCCCC" stroke="black" stroke-width="0.389117"/>
<path d="M37.8145 128.68H53.9489V136.638H37.8145V128.68Z" fill="#999999"/>
<path d="M55.4629 137.539H100.841V141.893H55.4629V137.539Z" fill="#999999"/>
<path d="M99.3275 135.733L99.0754 135.132L98.8233 134.532L98.5712 133.781L98.3191 133.18V132.43L98.067 131.679L97.8149 130.778V130.027L97.5628 129.277V128.376L97.3107 127.625V126.724V125.973V125.072V124.171V123.421V122.52V121.619V120.718V119.817V118.916L97.5628 118.165V117.265L97.8149 116.514V115.613L98.067 114.862L98.3191 114.111V113.361L98.5712 112.61L98.8233 112.009L99.0754 111.259L99.3275 110.508L98.3191 110.808H97.3107L96.3023 111.108H95.0418L93.7813 111.409H92.5208L91.2603 111.709H89.7477L88.2351 111.859L86.9746 112.009H85.462L83.9494 112.159L82.4368 112.31H80.9242H79.4116H77.899H76.3864H75.1259H73.6133L72.1007 112.159L70.8402 112.009H69.3275L68.067 111.859L66.5544 111.709H65.2939L64.0334 111.409H62.7729L61.5124 111.108H60.2519L59.2435 110.808H57.983L56.9746 110.508L57.4788 111.259V112.009L57.983 112.61V113.361L58.2351 114.111L58.4872 114.862V115.613L58.7393 116.514L58.9914 117.265V118.165V118.916L59.2435 119.817V120.718V121.619V122.52V123.421V124.171V125.072V125.973V126.724L58.9914 127.625V128.376V129.277L58.7393 130.027L58.4872 130.778V131.679L58.2351 132.43L57.983 133.18V133.781L57.4788 134.532V135.132L56.9746 135.733L57.983 135.583L59.2435 135.433L60.2519 135.283L61.5124 135.132L62.7729 134.982H64.0334L65.2939 134.832L66.5544 134.682H68.067H69.3275L70.8402 134.532H72.1007H73.6133L75.1259 134.382H76.3864H77.899H79.4116H80.9242L82.4368 134.532H83.9494H85.462L86.9746 134.682H88.2351H89.7477L91.2603 134.832L92.5208 134.982H93.7813L95.0418 135.132L96.3023 135.283L97.3107 135.433L98.3191 135.583L99.3275 135.733Z" fill="#999999"/>
<path d="M102.354 128.68H118.74V136.638H102.354V128.68Z" fill="#999999"/>
<path d="M102.353 47.2989C104.024 47.2989 105.379 46.4922 105.379 45.4971C105.379 44.502 104.024 43.6953 102.353 43.6953C100.683 43.6953 99.3281 44.502 99.3281 45.4971C99.3281 46.4922 100.683 47.2989 102.353 47.2989Z" fill="#666666" stroke="black" stroke-width="0.389117"/>
<path d="M40.8406 60.9609H16.1348V72.5225H40.8406V60.9609Z" fill="#666666" stroke="black" stroke-width="0.389117"/>
<path d="M30.2521 50.75L28.7395 49.2485L26.9748 47.4467L24.958 45.6449L22.9412 43.8431L20.6723 42.0413L18.6555 40.2395L16.3866 38.2875L14.3697 36.4857L12.3529 34.6839L10.8403 33.0323L9.07563 31.3806L7.81513 29.8791L6.80672 28.3776L6.05042 27.1764L5.79832 25.9752V25.0743V24.1734V23.2725V22.3716V21.4707V20.5698V19.6689V18.768V17.8671V16.9662V16.0653V15.1644V14.2635V13.3626V12.3116V11.4107V10.5098V9.90916V9.30856L6.05042 8.70796L6.30252 8.10736L6.80672 7.50676L7.31093 7.05631L7.81513 6.60586L8.82353 6.15541L9.83193 5.70496L11.0924 5.40465L12.3529 5.10435L14.3697 4.80405L16.3866 4.6539L18.6555 4.50375L21.4286 4.3536H24.4538H26.4706H28.9916H31.0084H33.5294H35.7983H38.0672H40.3361H42.605H45.1261H47.395H49.6639H51.9328H54.4538H56.7227H59.2437H61.5126H71.8487V0.75H70.8403H69.5798H68.3193H67.0588H65.5462H64.2857H63.0252H61.5126H58.9916H56.4706H53.9496H51.6807H49.1597H46.6387H44.3698H42.1008H39.5798H37.0588H34.7899H32.521H30H27.7311H25.2101H22.9412L20.4202 0.90015H17.8992L15.6303 1.0503L13.3613 1.3506L11.3445 1.6509L9.32773 1.9512L7.56303 2.2515L6.05042 2.8521L4.78992 3.30255L3.27731 3.90315L2.26891 4.50375L1.51261 5.2545L0.756303 6.00526L0.252101 6.90616L0 7.80706V8.70796V9.90916V11.1104V12.1614V13.3626V14.5638V15.6149V16.6659V17.8671V19.0683V20.1194V21.1704V22.3716V23.5728V24.6239V25.8251V26.8761L0.756303 28.6779L1.76471 30.3296L2.77311 31.9812L4.28571 33.6329L5.54622 35.1344L6.80672 36.6359L8.31933 38.1374L9.83193 39.4887L11.5966 40.8401L13.1092 42.3416L14.874 43.6929L16.3866 45.0443L18.1513 46.5458L19.6639 47.8971L21.4286 49.2485L22.9412 50.75H23.6975H24.7059H25.4622H26.4706H27.2269H28.2353H29.2437H30.2521Z" fill="#FFEDCC" stroke="black" stroke-width="0.389117"/>
<path d="M83.6983 7.05706V0H71.8496V5.25526H74.8748V7.05706H83.6983Z" fill="#CC9933" stroke="black" stroke-width="0.389117"/>
<path d="M69.0747 0H61.5117V5.25526H69.0747V0Z" fill="#CC9933" stroke="black" stroke-width="0.389117"/>
<path d="M74.873 5.25493L77.8983 3.45312" stroke="black" stroke-width="0.389117"/>
<path d="M102.354 43.6953V47.2989" stroke="black" stroke-width="0.389117"/>
</g>
<defs>
<clipPath id="clip0_2122_158129">
<rect width="150" height="150" fill="white"/>
</clipPath>
</defs>
</svg>
