<svg width="150" height="112" viewBox="0 0 150 112" fill="none" xmlns="http://www.w3.org/2000/svg">
<g clip-path="url(#clip0_2122_159797)">
<path d="M58.709 80.4845L63.3636 75.7414V68.7031L75.676 80.4845H58.709Z" fill="#263A59" stroke="black" stroke-width="0.350819"/>
<path d="M28.3781 20.6531L32.7324 16.2159L17.5672 0.609375L13.2129 5.04653L28.3781 20.6531Z" stroke="black" stroke-width="0.350819"/>
<path d="M25.0742 15.1499L27.3265 13.0078L31.6808 17.445L29.4286 19.587L25.0742 15.1499Z" fill="#666666"/>
<path d="M19.2188 73.4453V111.238H43.9935V104.964H105.855V111.238H130.63V73.4453H105.855V79.7185H43.9935V73.4453H19.2188Z" fill="#405473" stroke="black" stroke-width="0.350819"/>
<path d="M19.2188 76.9609V107.562H43.9935V102.513H105.855V107.562H130.63V76.9609H105.855V82.1631H43.9935V76.9609H19.2188Z" fill="#596D8C"/>
<path d="M19.2188 82.0078V102.664H43.9935V99.1444H105.855V102.664H130.63V82.0078H105.855V85.3739H43.9935V82.0078H19.2188Z" fill="#7387A6"/>
<path d="M19.2188 87.0625V97.4669H43.9935V95.7838H105.855V97.4669H130.63V87.0625H105.855V88.7456H43.9935V87.0625H19.2188Z" fill="#8CA0BF"/>
<path d="M19.2188 90.8828V93.6369H43.9935V93.1779H105.855V93.6369H130.63V90.8828H105.855V91.3418H43.9935V90.8828H19.2188Z" fill="#A6BAD9"/>
<path d="M130.631 79.2578H149.249V105.269H130.631V79.2578Z" fill="#666666" stroke="black" stroke-width="0.350819"/>
<path d="M0.601562 79.2578H19.2202V105.269H0.601562V79.2578Z" fill="#666666" stroke="black" stroke-width="0.350819"/>
<path d="M130.631 81.8594H149.249V102.821H130.631V81.8594Z" fill="#7F7F7F"/>
<path d="M0.601562 81.8594H19.2202V102.821H0.601562V81.8594Z" fill="#7F7F7F"/>
<path d="M130.631 85.0703H149.249V99.4528H130.631V85.0703Z" fill="#999999"/>
<path d="M0.601562 85.0703H19.2202V99.4528H0.601562V85.0703Z" fill="#999999"/>
<path d="M130.631 88.4375H149.249V96.0878H130.631V88.4375Z" fill="#B2B2B2"/>
<path d="M0.601562 88.4375H19.2202V96.0878H0.601562V88.4375Z" fill="#B2B2B2"/>
<path d="M130.631 91.3438H149.249V93.1798H130.631V91.3438Z" fill="#CCCCCC"/>
<path d="M0.601562 91.3438H19.2202V93.1798H0.601562V91.3438Z" fill="#CCCCCC"/>
<path d="M43.9941 104.965V79.7188" stroke="black" stroke-width="0.350819"/>
<path d="M105.855 79.7188V104.965" stroke="black" stroke-width="0.350819"/>
<path d="M47.1465 106.492H53.3026V111.235H47.1465V106.492Z" fill="#263A59" stroke="black" stroke-width="0.350819"/>
<path d="M56.3066 106.492H62.6129V111.235H56.3066V106.492Z" fill="#263A59" stroke="black" stroke-width="0.350819"/>
<path d="M96.5469 106.492H102.853V111.235H96.5469V106.492Z" fill="#263A59" stroke="black" stroke-width="0.350819"/>
<path d="M93.5426 106.492H87.2363V111.235H93.5426V106.492Z" fill="#263A59" stroke="black" stroke-width="0.350819"/>
<path d="M49.3984 98.5391H50.8999V106.495H49.3984V98.5391Z" fill="#8CA0BF" stroke="black" stroke-width="0.350819"/>
<path d="M58.709 98.5391H60.2105V106.495H58.709V98.5391Z" fill="#8CA0BF" stroke="black" stroke-width="0.350819"/>
<path d="M89.6387 98.5391H91.1402V106.495H89.6387V98.5391Z" fill="#8CA0BF" stroke="black" stroke-width="0.350819"/>
<path d="M98.9492 98.5391H100.451V106.495H98.9492V98.5391Z" fill="#8CA0BF" stroke="black" stroke-width="0.350819"/>
<path d="M75.8252 82.1638H105.855V77.4206L67.7171 38.5572L78.6781 27.3878L63.3628 11.7812L52.4018 23.1037L34.9844 14.0763L26.2757 23.1037L34.9844 40.8523L24.0234 52.0217L39.3388 67.6282L50.1496 56.4588L75.8252 82.1638Z" fill="#405473"/>
<path d="M81.3819 83.8446L105.706 83.6916L105.856 81.2435L65.7663 40.5441L74.3249 31.9758L59.0096 16.3692L50.451 24.9375L33.9345 14.9922L27.1777 22.0304L36.9375 38.861L28.3789 47.4293L43.6943 63.0359L52.2528 54.4676L81.3819 83.8446Z" fill="#596D8C"/>
<path d="M86.3366 85.374H105.556L63.8141 42.5324L69.9703 36.4122L54.6549 20.8057L48.4988 26.9259L33.0333 16.0625L28.2285 21.1117L38.8892 36.8712L32.733 42.9915L48.0483 58.598L54.2045 52.4778L86.3366 85.374Z" fill="#7387A6"/>
<path d="M94.1439 88.7439H105.255L61.8616 44.5254L65.4652 40.8532L50.1499 25.2467L46.5463 28.9188L31.9818 16.9844L29.1289 20.0445L40.8406 34.886L37.0869 38.5581L52.4022 54.1647L56.0058 50.4926L94.1439 88.7439Z" fill="#8CA0BF"/>
<path d="M101.051 91.3443L104.354 91.4973L59.9094 46.5137L61.1106 45.2897L45.7953 29.6831L44.7443 30.9071L31.0806 18.0547L30.1797 18.9727L42.7923 32.8962L41.5911 34.1203L56.9064 49.7268L58.1076 48.5028L101.051 91.3443Z" fill="#A6BAD9"/>
<path d="M105.705 77.2676L67.7171 38.5572L78.6781 27.3878L63.3628 11.7812L52.4018 23.1037L34.9844 14.0763L26.2757 23.1037L34.9844 40.8523L24.0234 52.0217L39.3388 67.6282L50.1496 56.4588L73.2727 79.7157" stroke="black" stroke-width="0.350819"/>
<path d="M30.4805 45.2891L45.7958 60.8956" stroke="black" stroke-width="0.350819"/>
<path d="M37.0879 38.5547L52.4032 54.1612" stroke="black" stroke-width="0.350819"/>
<path d="M43.6934 31.9766L59.0087 47.4301" stroke="black" stroke-width="0.350819"/>
<path d="M50.3008 25.2422L65.6161 40.8487" stroke="black" stroke-width="0.350819"/>
<path d="M56.7559 18.5156L72.0712 34.1222" stroke="black" stroke-width="0.350819"/>
<path d="M34.9844 40.8502L52.4018 23.1016" stroke="black" stroke-width="0.350819"/>
<path d="M67.718 38.5547L50.1504 56.4563" stroke="black" stroke-width="0.350819"/>
<path d="M29.58 16.3741L24.625 11.1719" stroke="white" stroke-width="0.350819"/>
<path d="M27.0272 14.9945L22.0723 9.94531" stroke="white" stroke-width="0.350819"/>
<path d="M60.9609 67.7812L78.8288 49.7266" stroke="#263A59" stroke-width="0.350819"/>
</g>
<defs>
<clipPath id="clip0_2122_159797">
<rect width="150" height="112" fill="white"/>
</clipPath>
</defs>
</svg>
