<svg width="150" height="150" viewBox="0 0 150 150" fill="none" xmlns="http://www.w3.org/2000/svg">
<g clip-path="url(#clip0_2122_161192)">
<path d="M7.01953 4.20312H150V86.6356H7.01953V4.20312Z" fill="black" stroke="black" stroke-width="0.39514"/>
<path d="M79.8101 81.8281V129.726H62.6523V81.8281H79.8101Z" fill="#7F7F7F"/>
<path d="M78.2491 81.8281V129.726H64.2109V81.8281H78.2491Z" fill="#B2B2B2"/>
<path d="M76.1697 81.8281V129.726H66.291V81.8281H76.1697Z" fill="#E5E5E5"/>
<path d="M73.0497 81.8281V129.726H69.4102V81.8281H73.0497Z" fill="white"/>
<path d="M62.6523 81.8281V129.726" stroke="black" stroke-width="0.39514"/>
<path d="M79.8086 129.726V81.8281" stroke="black" stroke-width="0.39514"/>
<path d="M0 149.85V108.859L143.761 149.85V108.859L0 149.85Z" fill="#7F7F7F"/>
<path d="M0 147.748V110.961L143.761 147.748V110.961L0 147.748Z" fill="#999999"/>
<path d="M0 143.693V115.164L143.761 143.693V115.164L0 143.693Z" fill="#B2B2B2"/>
<path d="M0 139.337V119.367L143.761 139.337V119.367L0 139.337Z" fill="#CCCCCC"/>
<path d="M0 136.189V122.375L143.761 136.189V122.375L0 136.189Z" fill="#E5E5E5"/>
<path d="M0 131.984V126.578L143.761 131.984V126.578L0 131.984Z" fill="white"/>
<path d="M0 149.85V108.859L143.761 149.85V108.859L0 149.85Z" stroke="black" stroke-width="0.39514"/>
<path d="M0 0H142.721V82.4324H0V0Z" fill="#7F7F7F" stroke="black" stroke-width="0.39514"/>
<path d="M71.4912 40.9922H70.1914V81.833H72.7911V40.9922H71.4912Z" fill="black"/>
<path d="M142.721 40.9929V40.2422H0V41.7437H142.721V40.9929Z" fill="black"/>
</g>
<defs>
<clipPath id="clip0_2122_161192">
<rect width="150" height="150" fill="white"/>
</clipPath>
</defs>
</svg>
