<svg width="150" height="150" viewBox="0 0 150 150" fill="none" xmlns="http://www.w3.org/2000/svg">
<path d="M59.3809 82.8828H90.1038V84.6846H59.3809V82.8828Z" fill="#194C4C" stroke="black" stroke-width="0.393777"/>
<path d="M19.6211 105.859H20.6538H21.9447H22.9774H24.0101H25.301H26.3337H27.6245H28.6572H29.9481H30.9808H32.2717H33.3044H34.5953H35.628H36.9189H37.9516L40.017 105.709H42.3405L44.1478 105.408L45.955 105.108L47.5041 104.808L49.0531 104.357L50.6022 103.757L51.6349 103.156L52.9257 102.405L53.7003 101.654L54.4748 100.754L55.2493 99.8527L55.5075 98.8016L56.0238 97.6004L56.282 96.3992V95.198V84.6875H93.2011V85.4383V86.0389V86.6395V87.3902V87.9908V88.5914V89.3422V89.9428V90.5434V91.144V91.8947V92.4953V93.0959V93.8467V94.4473V95.198V96.3992L93.4593 97.6004L93.7175 98.8016L94.2338 99.8527L95.0084 100.754L95.7829 101.654L96.8156 102.405L97.8483 103.156L99.1392 103.757L100.688 104.357L102.237 104.808L103.786 105.108L105.594 105.408L107.659 105.709H109.724L112.048 105.859H130.378V127.18H129.346H128.055H127.022H125.731H124.699H123.408H122.375H121.084H120.051H118.761H117.728H116.695H115.404H114.372H113.081H112.048H109.724L107.659 127.33L105.594 127.63L103.786 127.781L102.237 128.231L100.688 128.681L99.1392 129.282L97.8483 129.883L96.8156 130.633L95.7829 131.384L95.0084 132.285L94.2338 133.186L93.7175 134.237L93.4593 135.438L93.2011 136.639V137.841V149.252H56.282V148.501V147.751V147.15V146.399V145.648V145.048V144.297V143.546V142.796V142.045V141.294V140.694V139.943V139.342V138.591V137.841V136.639L56.0238 135.438L55.5075 134.237L55.2493 133.186L54.4748 132.285L53.7003 131.384L52.9257 130.633L51.6349 129.883L50.6022 129.282L49.0531 128.681L47.5041 128.231L45.955 127.781L44.1478 127.63L42.3405 127.33L40.017 127.18H37.9516H19.6211V105.859Z" fill="#336666"/>
<path d="M56.2832 0.601562H93.2023V82.8838H56.2832V0.601562Z" fill="#194C4C"/>
<path d="M58.8633 0.601562H91.1352V82.8838H58.8633V0.601562Z" fill="#336666"/>
<path d="M61.9629 0.601562H88.0386V82.8838H61.9629V0.601562Z" fill="#4C7F7F"/>
<path d="M65.5762 0.601562H83.9066V82.8838H65.5762V0.601562Z" fill="#669999"/>
<path d="M70.2246 0.601562H79.2608V82.8838H70.2246V0.601562Z" fill="#7FB2B2"/>
<path d="M56.2832 0.601562H93.2023V82.8838H56.2832V0.601562Z" stroke="black" stroke-width="0.393777"/>
<path d="M11.3594 33.6373V31.5352L11.8757 29.5833L12.3921 27.9316L13.1666 26.4301L14.1993 24.9286L15.4902 23.5773L16.5229 22.5262L18.0719 21.6253L19.621 20.7244L21.4282 19.9737L23.2355 19.3731L24.7845 18.9226L26.8499 18.6223L28.9153 18.322L30.7225 18.1719H32.7879H35.3697H38.2096H40.7914H43.3731H45.9549H48.5367H51.3766H53.9583H56.5401H59.1219H61.7036H64.2854H67.1253H69.7071H72.2888H74.8706H77.7105H80.2922H82.874H85.4558H88.0375H90.8774H93.4592H96.041H98.6227H101.204H103.786H106.626H109.208H111.79H114.371H117.211H119.019L121.084 18.322L122.891 18.6223L124.957 18.9226L126.764 19.3731L128.313 19.9737L130.12 20.7244L131.669 21.6253L132.96 22.5262L134.251 23.5773L135.284 24.9286L136.316 26.4301L137.091 27.9316L137.607 29.5833L137.865 31.5352L138.124 33.6373L137.865 35.7394L137.607 37.6914L137.091 39.343L136.316 40.8445L135.284 42.346L134.251 43.6974L132.96 44.7485L131.669 45.6494L130.12 46.5503L128.313 47.301L126.764 47.9016L124.957 48.3521L122.891 48.6524L121.084 48.9527L119.019 49.1028H117.211H114.371H111.79H109.208H106.626H103.786H101.204H98.6227H96.041H93.4592H90.8774H88.0375H85.4558H82.874H80.2922H77.7105H74.8706H72.2888H69.7071H67.1253H64.2854H61.7036H59.1219H56.5401H53.9583H51.3766H48.5367H45.9549H43.3731H40.7914H38.2096H35.3697H32.7879H30.7225L28.9153 48.9527L26.8499 48.6524L24.7845 48.3521L23.2355 47.9016L21.4282 47.301L19.621 46.5503L18.0719 45.6494L16.5229 44.7485L15.4902 43.6974L14.1993 42.346L13.1666 40.8445L12.3921 39.343L11.8757 37.6914L11.3594 35.7394V33.6373Z" fill="#194C4C"/>
<path d="M19.6211 33.6373V31.5352L19.8793 29.5833L20.3956 27.9316L21.1701 26.4301L21.9447 24.9286L22.9774 23.5773L24.0101 22.5262L25.301 21.6253L26.5918 20.7244L28.1409 19.9737L29.6899 19.3731L31.239 18.9226L32.788 18.6223L34.5953 18.322L36.1443 18.1719H37.9516H40.2751H42.5987H44.9223H46.9877H49.3113H51.6349H53.9584H56.282H58.6056H60.9292H63.2528H65.5763H67.8999H70.2235H72.5471H74.8707H77.1942H79.2596H81.5832H83.9068H86.2304H88.554H90.8775H93.4593H95.5247H97.8483H100.43H102.495H104.819H107.401H109.466H112.048H113.597L115.404 18.322L117.211 18.6223L118.761 18.9226L120.31 19.3731L121.859 19.9737L123.408 20.7244L124.699 21.6253L125.731 22.5262L127.022 23.5773L128.055 24.9286L128.829 26.4301L129.346 27.9316L129.862 29.5833L130.378 31.5352V33.6373V35.7394L129.862 37.6914L129.346 39.343L128.829 40.8445L128.055 42.346L127.022 43.6974L125.731 44.7485L124.699 45.6494L123.408 46.5503L121.859 47.301L120.31 47.9016L118.761 48.3521L117.211 48.6524L115.404 48.9527L113.597 49.1028H112.048H109.466H107.401H104.819H102.495H100.43H97.8483H95.5247H93.4593H90.8775H88.554H86.2304H83.9068H81.5832H79.2596H77.1942H74.8707H72.5471H70.2235H67.8999H65.5763H63.2528H60.9292H58.6056H56.282H53.9584H51.6349H49.3113H46.9877H44.9223H42.5987H40.2751H37.9516H36.1443L34.5953 48.9527L32.788 48.6524L31.239 48.3521L29.6899 47.9016L28.1409 47.301L26.5918 46.5503L25.301 45.6494L24.0101 44.7485L22.9774 43.6974L21.9447 42.346L21.1701 40.8445L20.3956 39.343L19.8793 37.6914L19.6211 35.7394V33.6373Z" fill="#336666"/>
<path d="M29.6895 33.6373L29.9476 31.5352L30.2058 29.5833L30.464 27.9316L30.9803 26.4301L31.7549 24.9286L32.5294 23.5773L33.5621 22.5262L34.5948 21.6253L35.6275 20.7244L36.9184 19.9737L38.2092 19.3731L39.5001 18.9226L40.791 18.6223L42.0819 18.322L43.6309 18.1719H45.18H46.9872H48.7944H50.6017H52.6671H54.4743H56.2815H58.0888H60.1542H61.9614H63.7686H65.5759H67.3831H69.4485H71.2557H73.0629H74.8702H76.9356H78.7428H80.55H82.3573H84.4227H86.2299H88.0371H89.8444H91.6516H93.717H95.5242H97.3315H99.1387H101.204H103.011H104.819H106.368L107.658 18.322L108.949 18.6223L110.24 18.9226L111.531 19.3731L112.822 19.9737L114.113 20.7244L115.146 21.6253L116.178 22.5262L116.953 23.5773L117.727 24.9286L118.244 26.4301L119.018 27.9316L119.276 29.5833L119.535 31.5352V33.6373V35.7394L119.276 37.6914L119.018 39.343L118.244 40.8445L117.727 42.346L116.953 43.6974L116.178 44.7485L115.146 45.6494L114.113 46.5503L112.822 47.301L111.531 47.9016L110.24 48.3521L108.949 48.6524L107.658 48.9527L106.368 49.1028H104.819H103.011H101.204H99.1387H97.3315H95.5242H93.717H91.6516H89.8444H88.0371H86.2299H84.4227H82.3573H80.55H78.7428H76.9356H74.8702H73.0629H71.2557H69.4485H67.3831H65.5759H63.7686H61.9614H60.1542H58.0888H56.2815H54.4743H52.6671H50.6017H48.7944H46.9872H45.18H43.6309L42.0819 48.9527L40.791 48.6524L39.5001 48.3521L38.2092 47.9016L36.9184 47.301L35.6275 46.5503L34.5948 45.6494L33.5621 44.7485L32.5294 43.6974L31.7549 42.346L30.9803 40.8445L30.464 39.343L30.2058 37.6914L29.9476 35.7394L29.6895 33.6373Z" fill="#4C7F7F"/>
<path d="M43.1152 33.6373V31.5352L43.3734 29.5833L43.6316 27.9316L43.8898 26.4301L44.4061 24.9286L45.1806 23.5773L45.697 22.5262L46.4715 21.6253L47.246 20.7244L48.0206 19.9737L49.0533 19.3731L49.8278 18.9226L50.8605 18.6223L51.8932 18.322L52.9259 18.1719H53.7004H56.2822H58.8639H61.7039H64.2856H66.8674H69.4491H72.0309H74.8708H77.4526H80.0343H82.8743H85.456H88.0378H90.8777H93.4595H96.0412H97.0739L98.1066 18.322L98.8812 18.6223L99.9139 18.9226L100.688 19.3731L101.463 19.9737L102.496 20.7244L103.27 21.6253L103.786 22.5262L104.561 23.5773L105.077 24.9286L105.594 26.4301L105.852 27.9316L106.11 29.5833L106.368 31.5352V33.6373V35.7394L106.11 37.6914L105.852 39.343L105.594 40.8445L105.077 42.346L104.561 43.6974L103.786 44.7485L103.27 45.6494L102.496 46.5503L101.463 47.301L100.688 47.9016L99.9139 48.3521L98.8812 48.6524L98.1066 48.9527L97.0739 49.1028H96.0412H93.4595H90.8777H88.0378H85.456H82.8743H80.0343H77.4526H74.8708H72.0309H69.4491H66.8674H64.2856H61.7039H58.8639H56.2822H53.7004H52.9259L51.8932 48.9527L50.8605 48.6524L49.8278 48.3521L49.0533 47.9016L48.0206 47.301L47.246 46.5503L46.4715 45.6494L45.697 44.7485L45.1806 43.6974L44.4061 42.346L43.8898 40.8445L43.6316 39.343L43.3734 37.6914L43.1152 35.7394V33.6373Z" fill="#669999"/>
<path d="M58.8633 33.6373V31.5352V29.5833L59.1215 27.9316L59.3796 26.4301L59.6378 24.9286L59.896 23.5773L60.1542 22.5262L60.6705 21.6253L60.9287 20.7244L61.445 19.9737L61.9614 19.3731L62.4777 18.9226L62.7359 18.6223L63.2523 18.322L63.7686 18.1719H64.5431H65.834H67.1249H68.1576H69.7067H70.7394H72.0302H73.3211H74.8702H76.161H77.4519H78.7428H80.0337H81.3246H82.8736H84.1645H85.4554H85.9717L86.2299 18.322L86.7462 18.6223L87.2626 18.9226L87.7789 19.3731L88.0371 19.9737L88.5535 20.7244L88.8116 21.6253L89.328 22.5262L89.5862 23.5773L89.8443 24.9286L90.1025 26.4301L90.3607 27.9316V29.5833L90.6189 31.5352V33.6373V35.7394L90.3607 37.6914V39.343L90.1025 40.8445L89.8443 42.346L89.5862 43.6974L89.328 44.7485L88.8116 45.6494L88.5535 46.5503L88.0371 47.301L87.7789 47.9016L87.2626 48.3521L86.7462 48.6524L86.2299 48.9527L85.9717 49.1028H85.4554H84.1645H82.8736H81.3246H80.0337H78.7428H77.4519H76.161H74.8702H73.3211H72.0302H70.7394H69.7067H68.1576H67.1249H65.834H64.5431H63.7686L63.2523 48.9527L62.7359 48.6524L62.4777 48.3521L61.9614 47.9016L61.445 47.301L60.9287 46.5503L60.6705 45.6494L60.1542 44.7485L59.896 43.6974L59.6378 42.346L59.3796 40.8445L59.1215 39.343L58.8633 37.6914V35.7394V33.6373Z" fill="#7FB2B2"/>
<path d="M11.3594 33.6373V31.5352L11.8757 29.5833L12.3921 27.9316L13.1666 26.4301L14.1993 24.9286L15.4902 23.5773L16.5229 22.5262L18.0719 21.6253L19.621 20.7244L21.4282 19.9737L23.2355 19.3731L24.7845 18.9226L26.8499 18.6223L28.9153 18.322L30.7225 18.1719H32.7879H35.3697H38.2096H40.7914H43.3731H45.9549H48.5367H51.3766H53.9583H56.5401H59.1219H61.7036H64.2854H67.1253H69.707H72.2888H74.8706H77.7105H80.2922H82.874H85.4558H88.0375H90.8774H93.4592H96.041H98.6227H101.204H103.786H106.626H109.208H111.79H114.371H117.211H119.019L121.084 18.322L122.891 18.6223L124.957 18.9226L126.764 19.3731L128.313 19.9737L130.12 20.7244L131.669 21.6253L132.96 22.5262L134.251 23.5773L135.284 24.9286L136.316 26.4301L137.091 27.9316L137.607 29.5833L137.865 31.5352L138.124 33.6373L137.865 35.7394L137.607 37.6914L137.091 39.343L136.316 40.8445L135.284 42.346L134.251 43.6974L132.96 44.7485L131.669 45.6494L130.12 46.5503L128.313 47.301L126.764 47.9016L124.957 48.3521L122.891 48.6524L121.084 48.9527L119.019 49.1028H117.211H114.371H111.79H109.208H106.626H103.786H101.204H98.6227H96.041H93.4592H90.8774H88.0375H85.4558H82.874H80.2922H77.7105H74.8706H72.2888H69.707H67.1253H64.2854H61.7036H59.1219H56.5401H53.9583H51.3766H48.5367H45.9549H43.3731H40.7914H38.2096H35.3697H32.7879H30.7225L28.9153 48.9527L26.8499 48.6524L24.7845 48.3521L23.2355 47.9016L21.4282 47.301L19.621 46.5503L18.0719 45.6494L16.5229 44.7485L15.4902 43.6974L14.1993 42.346L13.1666 40.8445L12.3921 39.343L11.8757 37.6914L11.3594 35.7394V33.6373Z" stroke="black" stroke-width="0.393777"/>
<path d="M1.0332 30.6328H148.71V36.6388H1.0332V30.6328Z" fill="#4C7F7F" stroke="black" stroke-width="0.393777"/>
<path d="M1.0332 33.6328H148.71" stroke="black" stroke-width="0.393777"/>
<path d="M6.19531 27.3281H17.0387V30.6314H6.19531V27.3281Z" fill="#669999" stroke="black" stroke-width="0.393777"/>
<path d="M37.9512 27.3281H48.5364V30.6314H37.9512V27.3281Z" fill="#669999" stroke="black" stroke-width="0.393777"/>
<path d="M69.707 27.3281H80.2922V30.6314H69.707V27.3281Z" fill="#669999" stroke="black" stroke-width="0.393777"/>
<path d="M101.205 27.3281H112.048V30.6314H101.205V27.3281Z" fill="#669999" stroke="black" stroke-width="0.393777"/>
<path d="M132.961 27.3281H143.546V30.6314H132.961V27.3281Z" fill="#669999" stroke="black" stroke-width="0.393777"/>
<path d="M8.77734 36.6328H14.4572V42.789H8.77734V36.6328Z" fill="#4C7F7F" stroke="black" stroke-width="0.393777"/>
<path d="M40.5332 36.6328H46.2131V42.789H40.5332V36.6328Z" fill="#4C7F7F" stroke="black" stroke-width="0.393777"/>
<path d="M72.0312 36.6328H77.7111V42.789H72.0312V36.6328Z" fill="#4C7F7F" stroke="black" stroke-width="0.393777"/>
<path d="M103.787 36.6328H108.951V42.789H103.787V36.6328Z" fill="#4C7F7F" stroke="black" stroke-width="0.393777"/>
<path d="M135.543 36.6328H140.448V42.789H135.543V36.6328Z" fill="#4C7F7F" stroke="black" stroke-width="0.393777"/>
<path d="M19.6211 107.06H20.6538H21.9447H23.2356H24.5264H26.0755H27.6245H29.1736H30.7226H32.2717H33.8207H35.3698H36.9189H38.4679H39.5006H40.7915H42.0824L43.8896 106.91H45.6968L47.5041 106.609L49.0531 106.459L50.6022 106.009L51.893 105.558L53.1839 105.108L54.2166 104.507L55.2493 103.907L56.0238 103.306L56.7984 102.405L57.3147 101.654L57.8311 100.754L58.0893 99.7025L58.3474 98.6515V97.4503V84.6875H91.1357V85.4383V86.0389V86.7896V87.6905V88.4413V89.3422V90.2431V91.144V92.0449V92.9458V93.6965V94.5974V95.3482V96.0989V96.8497V97.4503V98.6515L91.3939 99.7025L91.6521 100.754L92.1684 101.654L92.6848 102.405L93.4593 103.306L94.2338 103.907L95.2665 104.507L96.2992 105.108L97.5901 105.558L99.1392 106.009L100.43 106.459L102.237 106.609L104.045 106.91H105.852L107.917 107.06H130.378V125.979H129.346H128.055H126.506H125.215H123.666H122.117H120.568H119.019H117.211H115.662H114.372H112.822H111.273H109.983H108.95H107.917L105.852 126.129H104.045L102.237 126.429L100.43 126.579L99.1392 127.03L97.5901 127.33L96.2992 127.781L95.2665 128.381L94.2338 129.132L93.4593 129.733L92.6848 130.633L92.1684 131.384L91.6521 132.285L91.3939 133.336L91.1357 134.387V135.588V149.252H58.3474V148.501V147.751V147V146.099V145.198V144.297V143.396V142.345V141.294V140.393V139.492V138.591V137.691V136.94V136.189V135.588V134.387L58.0893 133.336L57.8311 132.285L57.3147 131.384L56.7984 130.633L56.0238 129.733L55.2493 129.132L54.2166 128.381L53.1839 127.781L51.893 127.33L50.6022 127.03L49.0531 126.579L47.5041 126.429L45.6968 126.129H43.8896L42.0824 125.979H19.6211V107.06Z" fill="#4C7F7F"/>
<path d="M19.6211 108.862H20.6538H21.9447H23.4937H25.301H27.3664H29.4318H31.4972H33.8207H36.1443H38.2097H40.2751H42.3405H44.1478H45.6968H46.9877H48.0204L51.1185 108.712L53.9584 108.261L56.0238 107.66L58.0893 106.76L59.6383 105.709L60.671 104.357L61.1874 102.856L61.4455 101.054V84.6875H88.0376V85.2881V86.0389V86.9398V87.9908V89.192V90.3932V91.5944V92.9458V94.147V95.3482V96.5494V97.7506V98.8016V99.7025V100.453V101.054V101.955L88.2958 102.856L88.554 103.606L88.8121 104.357L89.3285 105.108L89.8448 105.709L90.6194 106.309L91.3939 106.76L92.4266 107.21L93.4593 107.66L94.492 107.961L95.7829 108.261L97.0738 108.561L98.6228 108.712H100.172L101.721 108.862H130.378V124.177H129.346H128.055H126.248H124.44H122.633H120.31H117.986H115.921H113.597H111.273H109.208H107.401H105.594H104.045H102.754H101.721L100.172 124.327H98.6228L97.0738 124.477L95.7829 124.778L94.492 125.078L93.4593 125.378L92.4266 125.829L91.3939 126.279L90.6194 126.73L89.8448 127.33L89.3285 127.931L88.8121 128.681L88.554 129.432L88.2958 130.183L88.0376 131.084V131.985V149.252H61.4455V148.651V147.751V146.85V145.648V144.597V143.246V141.895V140.543V139.192V137.841V136.639V135.438V134.387V133.336V132.585V131.985L61.1874 130.183L60.671 128.681L59.6383 127.33L58.0893 126.279L56.0238 125.378L53.9584 124.778L51.1185 124.327L48.0204 124.177H19.6211V108.862Z" fill="#669999"/>
<path d="M19.6211 111.114H20.3956H21.9447H23.7519H26.0755H28.9154H31.7553H34.8535H37.9516H41.0497H44.1478H46.9877H49.5695H52.1512H53.9584H55.5075H56.282H58.3474L60.4128 110.814L61.9619 110.363L63.2528 109.763L64.2855 109.012L64.8018 108.111L65.3182 107.06L65.5763 105.859V84.6875H83.9068V85.2881V86.0389V87.2401V88.5914V90.0929V91.7446V93.5464V95.3482V96.9998V98.8016V100.453V101.955V103.306V104.507V105.258V105.859L84.165 107.06L84.4232 108.111L85.1977 109.012L86.2304 109.763L87.5213 110.363L89.0703 110.814L90.8775 111.114H93.2011H130.378V121.925H129.604H128.055H125.989H123.666H121.084H118.244H115.146H111.79H108.692H105.594H102.754H99.9137H97.5901H95.5247H93.9757H93.2011H90.8775L89.0703 122.225L87.5213 122.675L86.2304 123.126L85.1977 123.877L84.4232 124.928L84.165 125.979L83.9068 127.18V149.252H65.5763V148.651V147.751V146.7V145.198V143.697V141.895V140.093V138.141V136.339V134.537V132.736V131.084V129.733V128.531V127.781V127.18L65.3182 125.979L64.8018 124.928L64.2855 123.877L63.2528 123.126L61.9619 122.675L60.4128 122.225L58.3474 121.925H56.282H19.6211V111.114Z" fill="#7FB2B2"/>
<path d="M19.6211 105.859H20.6538H21.9447H22.9774H24.0101H25.301H26.3337H27.6245H28.6572H29.9481H30.9808H32.2717H33.3044H34.5953H35.628H36.9189H37.9516L40.017 105.709H42.3405L44.1478 105.408L45.955 105.108L47.5041 104.808L49.0531 104.357L50.6022 103.757L51.6349 103.156L52.9257 102.405L53.7003 101.654L54.4748 100.754L55.2493 99.8527L55.5075 98.8016L56.0238 97.6004L56.282 96.3992V95.198V84.6875H93.2011V85.4383V86.0389V86.6395V87.3902V87.9908V88.5914V89.3422V89.9428V90.5434V91.144V91.8947V92.4953V93.0959V93.8467V94.4473V95.198V96.3992L93.4593 97.6004L93.7175 98.8016L94.2338 99.8527L95.0084 100.754L95.7829 101.654L96.8156 102.405L97.8483 103.156L99.1392 103.757L100.688 104.357L102.237 104.808L103.786 105.108L105.594 105.408L107.659 105.709H109.724L112.048 105.859H130.378V127.18H129.346H128.055H127.022H125.731H124.699H123.408H122.375H121.084H120.051H118.761H117.728H116.695H115.404H114.372H113.081H112.048H109.724L107.659 127.33L105.594 127.63L103.786 127.781L102.237 128.231L100.688 128.681L99.1392 129.282L97.8483 129.883L96.8156 130.633L95.7829 131.384L95.0084 132.285L94.2338 133.186L93.7175 134.237L93.4593 135.438L93.2011 136.639V137.841V149.252H56.282V148.501V147.751V147.15V146.399V145.648V145.048V144.297V143.546V142.796V142.045V141.294V140.694V139.943V139.342V138.591V137.841V136.639L56.0238 135.438L55.5075 134.237L55.2493 133.186L54.4748 132.285L53.7003 131.384L52.9257 130.633L51.6349 129.883L50.6022 129.282L49.0531 128.681L47.5041 128.231L45.955 127.781L44.1478 127.63L42.3405 127.33L40.017 127.18H37.9516H19.6211V105.859Z" stroke="black" stroke-width="0.393777"/>
<path d="M74.8712 128.379C90.2706 128.379 102.754 123.539 102.754 117.569C102.754 111.598 90.2706 106.758 74.8712 106.758C59.4719 106.758 46.9883 111.598 46.9883 117.569C46.9883 123.539 59.4719 128.379 74.8712 128.379Z" fill="#7FB2B2"/>
<path d="M74.8713 125.979C87.9892 125.979 98.6234 121.945 98.6234 116.97C98.6234 111.994 87.9892 107.961 74.8713 107.961C61.7533 107.961 51.1191 111.994 51.1191 116.97C51.1191 121.945 61.7533 125.979 74.8713 125.979Z" fill="#8CBFBF"/>
<path d="M74.8709 121.925C83.9964 121.925 91.3941 119.102 91.3941 115.619C91.3941 112.136 83.9964 109.312 74.8709 109.312C65.7454 109.312 58.3477 112.136 58.3477 115.619C58.3477 119.102 65.7454 121.925 74.8709 121.925Z" fill="#99CCCC"/>
<path d="M56.2832 70.4219H93.2023" stroke="black" stroke-width="0.393777"/>
</svg>
