<svg width="150" height="150" viewBox="0 0 150 150" fill="none" xmlns="http://www.w3.org/2000/svg">
<g clip-path="url(#clip0_2122_158257)">
<path d="M23.545 146.55L53.7037 150.003H78.0423L101.852 146.55L107.672 139.793L119.841 136.49L125.661 129.583V95.3486L119.841 92.0453L107.672 88.742L101.852 85.1384L96.0317 64.718V44.2975L89.6825 40.6939L71.6931 37.3906H53.7037L35.7143 40.6939L29.8942 44.2975V64.718L23.545 85.1384L17.7249 88.742L5.82011 92.0453L0 95.3486V129.583L5.82011 136.49L17.7249 139.793L23.545 146.55Z" fill="#996600"/>
<path d="M28.3066 146.55L54.7616 150.003H75.9257L97.6188 146.55L102.91 139.793L113.492 136.189L118.783 129.583V95.3486L113.492 92.0453L102.91 88.4417L97.6188 85.1384L92.3278 64.718V44.2975L86.5077 40.6939L70.6346 37.3906H54.7616L39.1532 40.6939L33.5976 44.2975V64.718L28.3066 85.1384L23.0156 88.4417L12.6981 92.0453L7.14258 95.3486V129.583L12.6981 136.189L23.0156 139.793L28.3066 146.55Z" fill="#A3700A"/>
<path d="M33.0693 146.55L55.8206 150.003H74.3391L92.8577 146.55L97.6196 139.793L106.614 136.189L111.376 129.583V95.3486L106.614 92.0453L97.6196 88.4417L92.8577 85.1384L88.0958 64.718V44.2975L83.863 40.6939L69.5772 37.3906H55.8206L42.064 40.6939L37.3021 44.2975V64.718L33.0693 85.1384L28.3074 88.4417L18.7836 92.0453L14.5508 95.3486V129.583L18.7836 136.189L28.3074 139.793L33.0693 146.55Z" fill="#AB7812"/>
<path d="M37.302 146.55L56.8787 150.003H72.7518L88.0957 146.55L92.3285 139.793L100.265 136.189L103.969 129.583V95.3486L100.265 92.0453L92.3285 88.4417L88.0957 85.1384L84.392 64.718V44.2975L80.6883 40.6939L68.519 37.3906H56.8787L45.2385 40.6939L41.5348 44.2975V64.718L37.302 85.1384L33.5983 88.4417L25.9264 92.0453L22.2227 95.3486V129.583L25.9264 136.189L33.5983 139.793L37.302 146.55Z" fill="#B5821C"/>
<path d="M42.0635 146.55L57.9365 150.003H70.6349L83.8624 146.55L87.037 139.793L93.3862 136.189L96.5608 129.583V95.3486L93.3862 92.0453L87.037 88.4417L83.8624 85.1384L80.6878 64.718V44.2975L77.5132 40.6939L67.4603 37.3906H57.9365L48.6772 40.6939L45.2381 44.2975V64.718L42.0635 85.1384L39.1534 88.4417L32.0105 92.0453L28.8359 95.3486V129.583L32.0105 136.189L39.1534 139.793L42.0635 146.55Z" fill="#BF8C26"/>
<path d="M46.2971 146.55L58.9955 150.003H69.0484L79.1013 146.55L81.7468 139.793L87.0378 136.189L89.1542 129.583V95.3486L87.0378 92.0453L81.7468 88.4417L79.1013 85.1384L76.9849 64.718V44.2975L74.3394 40.6939L66.4029 37.3906H58.9955L51.5881 40.6939L48.9426 44.2975V64.718L46.2971 85.1384L44.1806 88.4417L39.1542 92.0453L36.2441 95.3486V129.583L39.1542 136.189L44.1806 139.793L46.2971 146.55Z" fill="#C99630"/>
<path d="M51.0589 146.55L60.0536 150.003H67.461L74.8684 146.55L76.4557 139.793L80.1594 136.189L82.2758 129.583V95.3486L80.1594 92.0453L76.4557 88.4417L74.8684 85.1384L72.752 64.718V44.2975L71.1647 40.6939L65.3446 37.3906H60.0536L54.7626 40.6939L52.6462 44.2975V64.718L51.0589 85.1384L48.9425 88.4417L45.2388 92.0453L43.916 95.3486V129.583L45.2388 136.189L48.9425 139.793L51.0589 146.55Z" fill="#D19E38"/>
<path d="M55.8205 146.55L61.1115 150.003H65.8734L70.1062 146.55L71.1644 139.793L73.8099 136.189L74.8681 129.583V95.3486L73.8099 92.0453L71.1644 88.4417L70.1062 85.1384L69.048 64.718V44.2975L67.9898 40.6939L64.2861 37.3906H61.1115L57.9369 40.6939L56.8787 44.2975V64.718L55.8205 85.1384L54.2332 88.4417L52.1168 92.0453L51.0586 95.3486V129.583L52.1168 136.189L54.2332 139.793L55.8205 146.55Z" fill="#DBA842"/>
<path d="M62.9622 150.003C65.446 150.003 67.4596 124.794 67.4596 93.6969C67.4596 62.5998 65.446 37.3906 62.9622 37.3906C60.4784 37.3906 58.4648 62.5998 58.4648 93.6969C58.4648 124.794 60.4784 150.003 62.9622 150.003Z" fill="#E5B24C"/>
<path d="M23.545 146.55L53.7037 150.003H78.0423L101.852 146.55L107.672 139.793L119.841 136.49L125.661 129.583V95.3486L119.841 92.0453L107.672 88.742L101.852 85.1384L96.0317 64.718V44.2975L89.6825 40.6939L71.6931 37.3906H53.7037L35.7143 40.6939L29.8942 44.2975V64.718L23.545 85.1384L17.7249 88.742L5.82011 92.0453L0 95.3486V129.583L5.82011 136.49L17.7249 139.793L23.545 146.55Z" stroke="black" stroke-width="0.398609"/>
<path d="M47.883 0H77.5126L82.2745 2.55255V39.1892H43.1211V2.55255L47.883 0Z" fill="#7F7F7F"/>
<path d="M51.0592 0H74.8687L78.0433 2.55255V39.1892H47.3555V2.55255L51.0592 0Z" fill="#919191"/>
<path d="M54.2334 0H71.6937L74.3392 2.55255V39.1892H51.5879V2.55255L54.2334 0Z" fill="#A6A6A6"/>
<path d="M57.4076 0H68.5187L70.106 2.55255V39.1892H55.8203V2.55255L57.4076 0Z" fill="#B8B8B8"/>
<path d="M60.5818 0H64.8146L65.8728 2.55255V39.1892H60.0527V2.55255L60.5818 0Z" fill="#CCCCCC"/>
<path d="M47.883 0H77.5126L82.2745 2.55255V39.1892H43.1211V2.55255L47.883 0Z" stroke="black" stroke-width="0.398609"/>
<path d="M146.297 134.685H110.847L100.265 129.279L94.4453 119.67V108.558L100.265 99.2492L110.847 93.8438H146.297L148.414 99.2492L150.001 108.558V119.67L148.414 129.279L146.297 134.685Z" fill="#996600"/>
<path d="M146.297 131.378H108.202L99.2072 126.874L94.4453 118.766V109.456L99.2072 101.348L108.202 96.8438H146.297L148.414 101.348L150.001 109.456V118.766L148.414 126.874L146.297 131.378Z" fill="#A16E08"/>
<path d="M146.297 128.38H105.556L98.149 124.476L94.4453 117.87V110.362L98.149 103.755L105.556 99.8516H146.297L148.414 103.755L150.001 110.362V117.87L148.414 124.476L146.297 128.38Z" fill="#AB7812"/>
<path d="M146.297 124.928H102.911L97.6199 122.375L94.4453 116.97V111.264L97.6199 106.159L102.911 103.156H146.297L148.414 106.159L150.001 111.264V116.97L148.414 122.375L146.297 124.928Z" fill="#B27F19"/>
<path d="M146.297 122.072H99.7363L96.5617 119.97L94.4453 116.366V112.162L96.5617 108.258L99.7363 106.156H146.297L148.414 108.258L150.001 112.162V116.366L148.414 119.97L146.297 122.072Z" fill="#BA8721"/>
<path d="M146.297 119.071H97.0908L95.5035 117.569L94.4453 115.467V112.764L95.5035 110.662L97.0908 109.461H146.297L148.414 110.662L150.001 112.764V115.467L148.414 117.569L146.297 119.071Z" fill="#C4912B"/>
<path d="M146.297 115.764H94.4453V115.464V114.563V113.662V113.062V112.461H146.297L148.414 113.062L150.001 113.662V114.563L148.414 115.464L146.297 115.764Z" fill="#CC9933"/>
<path d="M121.428 93.8438H146.295L148.412 99.2492L149.999 108.558V119.67L148.412 129.279L146.295 134.685H121.428" stroke="black" stroke-width="0.398609"/>
<path d="M82.2754 34.9836V7.65625L96.032 18.7674V24.9235L82.2754 34.9836Z" fill="#7F7F7F" stroke="black" stroke-width="0.398609"/>
<path d="M11.9044 68.0145L34.3912 25.3718H85.4494V16.0625H31.4811L16.4017 22.2187L7.14247 31.3778L4.23242 45.1916L5.81972 68.0145H11.9044Z" fill="#B2B2B2" stroke="black" stroke-width="0.398609"/>
<path d="M10.5817 45.1945L12.9627 34.9843L20.3701 25.3747L29.6294 21.1705L43.1214 19.669L80.6876 17.8672H29.8939L17.7246 22.9723L8.99443 32.2816L7.14258 45.1945L7.93623 64.714L10.5817 45.1945Z" fill="#E5E5E5"/>
<path d="M143.915 128.68C146.399 128.68 148.413 122.227 148.413 114.266C148.413 106.305 146.399 99.8516 143.915 99.8516C141.432 99.8516 139.418 106.305 139.418 114.266C139.418 122.227 141.432 128.68 143.915 128.68Z" fill="#663300"/>
<path d="M39.9463 67.1172H85.4489L88.0944 87.8379H37.3008L39.9463 67.1172Z" fill="#CCCCCC"/>
<path d="M86.5071 74.3281L88.0944 87.8416H37.3008L38.359 80.0338L86.5071 74.3281Z" fill="#C2C2C2"/>
<path d="M39.1543 84.2344H85.4506" stroke="#999999" stroke-width="0.398609"/>
<path d="M41.5352 73.125H83.8632" stroke="#999999" stroke-width="0.398609"/>
<path d="M39.9473 78.2266H83.8626" stroke="#999999" stroke-width="0.398609"/>
</g>
<defs>
<clipPath id="clip0_2122_158257">
<rect width="150" height="150" fill="white"/>
</clipPath>
</defs>
</svg>
