<svg width="150" height="150" viewBox="0 0 150 150" fill="none" xmlns="http://www.w3.org/2000/svg">
<g clip-path="url(#clip0_2122_158703)">
<path d="M68.7754 0H81.2235V0.900901H68.7754V0Z" fill="black" stroke="black" stroke-width="0.43233"/>
<path d="M45.7461 7.95549H104.252V0.898438H45.7461V7.95549Z" fill="black" stroke="black" stroke-width="0.43233"/>
<path d="M22.7188 47.1501H127.283V7.96094H22.7188V47.1501Z" fill="black" stroke="black" stroke-width="0.43233"/>
<path d="M18.6719 56.3076H131.327V47.1484H18.6719V56.3076Z" fill="black" stroke="black" stroke-width="0.43233"/>
<path d="M16.4937 82.4362H1.86719V57.2109H16.4937V82.4362Z" fill="black" stroke="black" stroke-width="0.43233"/>
<path d="M125.104 98.4994H135.373V83.4844H125.104V98.4994Z" fill="#B2B2B2" stroke="black" stroke-width="0.43233"/>
<path d="M14.3145 98.4994H24.8954V83.4844H14.3145V98.4994Z" fill="#B2B2B2" stroke="black" stroke-width="0.43233"/>
<path d="M0 133.781H14.3154V142.94H0V133.781Z" fill="#666666" stroke="black" stroke-width="0.43233"/>
<path d="M135.373 133.938H150V142.947H135.373V133.938Z" fill="#666666" stroke="black" stroke-width="0.43233"/>
<path d="M135.373 133.781V118.766H150V133.781H135.373Z" fill="#999999" stroke="black" stroke-width="0.43233"/>
<path d="M129.148 142.939L127.904 143.089L126.659 143.39L125.725 143.99L125.103 144.741L124.169 145.492L123.236 146.393L122.302 147.143L120.746 147.894L118.568 148.194L116.078 148.495L113.277 148.795L110.476 148.945L107.364 149.095L104.563 149.245H101.14L98.0282 149.396H94.9161H91.4929L88.3808 149.546H85.58L82.7792 149.696H79.9784L77.1775 149.846H74.9991H72.8207L70.3311 149.696H67.5302L65.0406 149.546H61.9286L59.1277 149.396H56.3269H53.2149L50.1028 149.245H46.9908L44.19 149.095L41.3891 148.945L38.5883 148.795L35.7875 148.495L33.2979 148.194L31.1194 147.894L29.5634 147.143L28.3186 146.393L27.0738 145.492L25.829 144.741L24.5842 143.99L23.3393 143.39L22.0945 143.089L20.5385 142.939L14.3145 140.837V111.708L24.8954 107.804V97.5938H125.103V107.654L135.684 111.558V140.687L134.128 140.987L133.194 141.287L132.572 141.438V141.738L131.949 142.038L131.638 142.338L130.704 142.639L129.148 142.939Z" fill="#999999" stroke="black" stroke-width="0.43233"/>
<path d="M0 133.781V118.766H14.3154V133.781H0Z" fill="#999999" stroke="black" stroke-width="0.43233"/>
<path d="M135.373 109.609H150V118.769H135.373V109.609Z" fill="#E5E5E5" stroke="black" stroke-width="0.43233"/>
<path d="M0 109.609H14.3154V118.769H0V109.609Z" fill="#E5E5E5" stroke="black" stroke-width="0.43233"/>
<path d="M27.0742 104.656H51.9705V98.5H27.0742V104.656Z" fill="#666666"/>
<path d="M97.7188 104.656H122.926V98.5H97.7188V104.656Z" fill="#B2B2B2"/>
<path d="M16.4941 97.5943H133.507V84.5312H16.4941V97.5943Z" fill="#CCCCCC" stroke="black" stroke-width="0.43233"/>
<path d="M16.8047 83.4819H133.506V56.3047H16.8047V83.4819Z" fill="#333333" stroke="black" stroke-width="0.43233"/>
<path d="M22.7188 59.3125H126.972V80.4837H22.7188V59.3125Z" fill="#E5E5E5" stroke="black" stroke-width="0.43233"/>
<path d="M24.8965 61.4141H125.104V78.5312H24.8965V61.4141Z" fill="black" stroke="black" stroke-width="0.43233"/>
<path d="M76.8672 66.3672H104.253V69.5203H76.8672V66.3672Z" fill="#E5E5E5" stroke="black" stroke-width="0.43233"/>
<path d="M68.4648 70.4219H114.523V73.4249H68.4648V70.4219Z" fill="#E5E5E5" stroke="black" stroke-width="0.43233"/>
<path d="M39.5234 70.4219H60.3741V73.4249H39.5234V70.4219Z" fill="#E5E5E5" stroke="black" stroke-width="0.43233"/>
<path d="M57.8848 66.3672H68.4657V69.5203H57.8848V66.3672Z" fill="#E5E5E5" stroke="black" stroke-width="0.43233"/>
<path d="M31.1211 66.3672H56.0174V69.5203H31.1211V66.3672Z" fill="#E5E5E5" stroke="black" stroke-width="0.43233"/>
<path d="M31.1211 62.3125H68.4655V65.3155H31.1211V62.3125Z" fill="#E5E5E5" stroke="black" stroke-width="0.43233"/>
<path d="M16.4941 83.4844H133.507V84.5354H16.4941V83.4844Z" fill="black" stroke="black" stroke-width="0.43233"/>
<path d="M24.8965 97.5938H125.104V98.4947H24.8965V97.5938Z" fill="#666666"/>
<path d="M54.1484 83.4844L56.3269 84.5354V97.4483L54.1484 98.4994V83.4844Z" fill="#999999" stroke="black" stroke-width="0.43233"/>
<path d="M108.3 98.4994H97.7188V83.4844H108.3V98.4994Z" fill="#B2B2B2" stroke="black" stroke-width="0.43233"/>
<path d="M43.8789 98.4994H54.1486V83.4844H43.8789V98.4994Z" fill="#B2B2B2" stroke="black" stroke-width="0.43233"/>
<path d="M97.7188 83.4844L95.8516 84.5354V97.4483L97.7188 98.4994V83.4844Z" fill="#999999" stroke="black" stroke-width="0.43233"/>
<path d="M45.7461 0.898438H104.252" stroke="#7F7F7F" stroke-width="0.43233"/>
<path d="M126.972 7.96094H22.7188L23.03 47.1501H131.329" stroke="#7F7F7F" stroke-width="0.43233"/>
<path d="M22.7175 47.1484H18.6719" stroke="#7F7F7F" stroke-width="0.43233"/>
<path d="M16.4937 57.2109H1.86719" stroke="#7F7F7F" stroke-width="0.43233"/>
<path d="M16.4941 83.4819V56.3047H133.507" stroke="#7F7F7F" stroke-width="0.43233"/>
<path d="M68.7754 0H72.821V0.900901H68.7754V0Z" fill="#4C4C4C"/>
<path d="M47.9258 1.95312H62.5523V7.95913H47.9258V1.95312Z" fill="#4C4C4C"/>
<path d="M24.8965 9.00781H49.7927V47.146H24.8965V9.00781Z" fill="#4C4C4C"/>
<path d="M31.1211 75.375H118.88V76.4261H31.1211V75.375Z" fill="#4C4C4C"/>
<path d="M20.5391 48.1953H45.7465V55.2524H20.5391V48.1953Z" fill="#4C4C4C"/>
<path d="M4.04492 59.3125H14.3146V63.3666H4.04492V59.3125Z" fill="#B2B2B2"/>
<path d="M28.9414 55.2585H35.4767V48.3516H28.9414V55.2585Z" fill="#B2B2B2"/>
<path d="M33.2988 47.146H39.5229V9.00781H33.2988V47.146Z" fill="#B2B2B2"/>
<path d="M52.5938 7.95913H56.3282V1.95312H52.5938V7.95913Z" fill="#B2B2B2"/>
<path d="M70.0215 0.900901H71.2663V0H70.0215V0.900901Z" fill="#B2B2B2"/>
<path d="M112.656 142.641L108.611 143.542L103.943 144.292L99.5857 145.043L94.9177 145.493L90.2496 145.944L85.5816 146.244L80.6023 146.545H75.6231H70.6438L65.6646 146.244L60.9965 145.944L56.3285 145.493L51.6604 145.043L47.3036 144.292L42.6355 143.542L38.5899 142.641L36.7227 144.142L41.3907 145.193L46.0588 145.944L50.7268 146.695L55.3949 147.295L60.3741 147.746L65.6646 148.046L70.6438 148.346H75.6231H80.9135L85.5816 148.046L90.872 147.746L95.8513 147.295L100.519 146.695L105.499 145.944L109.855 145.193L114.212 144.142L112.656 142.641Z" fill="#666666"/>
<path d="M75.0006 127.627C95.6254 127.627 112.345 123.594 112.345 118.618C112.345 113.643 95.6254 109.609 75.0006 109.609C54.3759 109.609 37.6562 113.643 37.6562 118.618C37.6562 123.594 54.3759 127.627 75.0006 127.627Z" fill="#B2B2B2"/>
<path d="M74.9999 126.124C92.3591 126.124 106.431 122.763 106.431 118.617C106.431 114.471 92.3591 111.109 74.9999 111.109C57.6407 111.109 43.5684 114.471 43.5684 118.617C43.5684 122.763 57.6407 126.124 74.9999 126.124Z" fill="#CCCCCC"/>
<path d="M74.9998 124.621C88.7496 124.621 99.896 121.932 99.896 118.615C99.896 115.298 88.7496 112.609 74.9998 112.609C61.25 112.609 50.1035 115.298 50.1035 118.615C50.1035 121.932 61.25 124.621 74.9998 124.621Z" fill="#E5E5E5"/>
</g>
<defs>
<clipPath id="clip0_2122_158703">
<rect width="150" height="150" fill="white"/>
</clipPath>
</defs>
</svg>
