<svg width="150" height="150" viewBox="0 0 150 150" fill="none" xmlns="http://www.w3.org/2000/svg">
<g clip-path="url(#clip0_2122_160504)">
<path d="M25.2246 70.3047H127.477V80.3047H25.2246V70.3047Z" fill="#7F7F7F"/>
<path d="M25.2246 71.2109H127.477V79.3928H25.2246V71.2109Z" fill="#B2B2B2"/>
<path d="M25.2246 72.4219H127.477V77.8764H25.2246V72.4219Z" fill="#E5E5E5"/>
<path d="M25.2246 74.2422H127.477V76.0604H25.2246V74.2422Z" fill="white"/>
<path d="M25.2246 80.3047H127.477" stroke="black" stroke-width="0.738918"/>
<path d="M127.477 70.3047H25.2246" stroke="black" stroke-width="0.738918"/>
<path d="M83.7828 39.6953V125.453H68.918V39.6953H83.7828Z" fill="#7F7F7F"/>
<path d="M82.4317 39.6953V125.453H70.2695V39.6953H82.4317Z" fill="#B2B2B2"/>
<path d="M80.6308 39.6953V125.453H72.0723V39.6953H80.6308Z" fill="#E5E5E5"/>
<path d="M77.4781 39.6953V125.453H74.7754V39.6953H77.4781Z" fill="white"/>
<path d="M68.918 39.6953V125.453" stroke="black" stroke-width="0.738918"/>
<path d="M83.7832 125.453V39.6953" stroke="black" stroke-width="0.738918"/>
<path d="M84.2335 65.1484V69.9969H91.4407V79.9969H84.2335V85.1484H69.3686V79.9969H61.7109V69.9969H69.3686V65.1484H84.2335Z" fill="#7F7F7F"/>
<path d="M82.4317 65.1484V71.209H91.4407V79.0878H82.4317V85.1484H70.7199V79.0878H61.7109V71.209H70.7199V65.1484H82.4317Z" fill="#B2B2B2"/>
<path d="M80.6299 65.1484V72.4212H91.4407V77.8757H80.6299V85.1484H72.5217V77.8757H61.7109V72.4212H72.5217V65.1484H80.6299Z" fill="#E5E5E5"/>
<path d="M77.9272 65.1484V74.2393H91.4407V76.0575H77.9272V85.1484H75.2245V76.0575H61.7109V74.2393H75.2245V65.1484H77.9272Z" fill="white"/>
<path d="M84.2344 65.1484V70.3H91.4416" stroke="black" stroke-width="0.738918"/>
<path d="M91.4416 80.3047H84.2344V85.1532" stroke="black" stroke-width="0.738918"/>
<path d="M69.3686 85.1532V80.3047H61.7109" stroke="black" stroke-width="0.738918"/>
<path d="M61.7109 70.3H69.3686V65.1484" stroke="black" stroke-width="0.738918"/>
<path d="M25.2246 53.9375H127.477V63.9375H25.2246V53.9375Z" fill="#7F7F7F"/>
<path d="M25.2246 54.8516H127.477V63.0334H25.2246V54.8516Z" fill="#B2B2B2"/>
<path d="M25.2246 56.0625H127.477V61.517H25.2246V56.0625Z" fill="#E5E5E5"/>
<path d="M25.2246 57.875H127.477V59.6932H25.2246V57.875Z" fill="white"/>
<path d="M25.2246 63.9375H127.477" stroke="black" stroke-width="0.738918"/>
<path d="M127.477 53.9375H25.2246" stroke="black" stroke-width="0.738918"/>
<path d="M84.2335 48.7891V53.6375H91.4407V63.6375H84.2335V68.7891H69.3686V63.6375H61.7109V53.6375H69.3686V48.7891H84.2335Z" fill="#7F7F7F"/>
<path d="M82.4317 48.7891V54.8497H91.4407V62.7285H82.4317V68.7891H70.7199V62.7285H61.7109V54.8497H70.7199V48.7891H82.4317Z" fill="#B2B2B2"/>
<path d="M80.6299 48.7891V56.0618H91.4407V61.5163H80.6299V68.7891H72.5217V61.5163H61.7109V56.0618H72.5217V48.7891H80.6299Z" fill="#E5E5E5"/>
<path d="M77.9272 48.7891V57.88H91.4407V59.6982H77.9272V68.7891H75.2245V59.6982H61.7109V57.88H75.2245V48.7891H77.9272Z" fill="white"/>
<path d="M84.2344 48.7891V53.6375H91.4416" stroke="black" stroke-width="0.738918"/>
<path d="M91.4416 63.6328H84.2344V68.7843" stroke="black" stroke-width="0.738918"/>
<path d="M69.3686 68.7843V63.6328H61.7109" stroke="black" stroke-width="0.738918"/>
<path d="M61.7109 53.6375H69.3686V48.7891" stroke="black" stroke-width="0.738918"/>
<path d="M74.7757 40.9091H13.9648L15.3162 32.7273L18.9198 25.1515L24.3252 18.1818L31.9829 12.1212L40.9919 6.9697L51.3522 3.33333L62.6135 0.909091L74.7757 0L86.9378 0.909091L98.6495 3.33333L109.01 6.9697L118.019 12.1212L125.677 18.1818L131.082 25.1515L134.686 32.7273L136.037 40.9091H74.7757Z" fill="#7F7F7F"/>
<path d="M74.7753 40.9091H19.8203L20.7212 32.7273L24.3248 25.1515L29.2798 18.1818L36.0365 12.1212L44.1446 6.9697L53.6041 3.33333L63.9645 0.909091L74.7753 0L86.0365 0.909091L96.3969 3.33333L105.856 6.9697L113.964 12.1212L120.721 18.1818L125.676 25.1515L129.28 32.7273L130.181 40.9091H74.7753Z" fill="#999999"/>
<path d="M74.7757 41.2121H31.082L31.9829 33.0303L34.6856 25.1515L38.7397 18.1818L44.1451 12.1212L50.4514 6.9697L57.6586 3.33333L66.2172 0.909091L74.7757 0L83.7847 0.909091L91.8928 3.33333L99.5505 6.9697L105.857 12.1212L111.262 18.1818L115.316 25.1515L118.019 33.0303L118.92 41.2121H74.7757Z" fill="#B2B2B2"/>
<path d="M74.775 40.9091H42.793L43.2434 32.7273L45.4957 25.1515L48.1984 18.1818L52.2524 12.1212L56.7569 6.9697L62.1623 3.33333L68.4686 0.909091L74.775 0L81.5317 0.909091L87.3876 3.33333L92.793 6.9697L97.7479 12.1212L101.802 18.1818L104.505 25.1515L106.757 32.7273L107.207 40.9091H74.775Z" fill="#CCCCCC"/>
<path d="M75.2259 40.9091H54.0547L54.5051 32.7273L55.8565 25.1515L57.6583 18.1818L60.361 12.1212L63.5141 6.9697L67.1178 3.33333L71.1718 0.909091L75.2259 0L79.2799 0.909091L83.334 3.33333L86.9376 6.9697L89.6403 12.1212L92.343 18.1818L94.1448 25.1515L95.4961 32.7273L95.9466 40.9091H75.2259Z" fill="#E5E5E5"/>
<path d="M74.7757 40.9091H13.9648L15.3162 32.7273L18.9198 25.1515L24.3252 18.1818L31.9829 12.1212L40.9919 6.9697L51.3522 3.33333L62.6135 0.909091L74.7757 0L86.9378 0.909091L98.6495 3.33333L109.01 6.9697L118.019 12.1212L125.677 18.1818L131.082 25.1515L134.686 32.7273L136.037 40.9091H74.7757Z" stroke="black" stroke-width="0.738918"/>
<path d="M74.7745 40.9091H69.3691V32.7273L69.8196 25.1515L70.27 18.1818L70.7205 12.1212L71.6214 6.9697L72.5223 3.33333L73.4232 0.909091L74.7745 0L76.1259 0.909091L77.0268 3.33333L78.3781 6.9697L79.2791 12.1212L79.7295 18.1818L80.18 25.1515L80.6304 32.7273V40.9091H74.7745Z" fill="white"/>
<path d="M0 149.998V99.6953L150 149.998V99.6953L0 149.998Z" fill="#7F7F7F"/>
<path d="M0 147.58V102.125L150 147.58V102.125L0 147.58Z" fill="#999999"/>
<path d="M0 142.425V107.273L150 142.425V107.273L0 142.425Z" fill="#B2B2B2"/>
<path d="M0 137.27V112.422L150 137.27V112.422L0 137.27Z" fill="#CCCCCC"/>
<path d="M0 133.337V116.367L150 133.337V116.367L0 133.337Z" fill="#E5E5E5"/>
<path d="M0 128.182V121.516L150 128.182V121.516L0 128.182Z" fill="white"/>
<path d="M0 149.998V99.6953L150 149.998V99.6953L0 149.998Z" stroke="black" stroke-width="0.738918"/>
</g>
<defs>
<clipPath id="clip0_2122_160504">
<rect width="150" height="150" fill="white"/>
</clipPath>
</defs>
</svg>
