<svg width="150" height="150" viewBox="0 0 150 150" fill="none" xmlns="http://www.w3.org/2000/svg">
<g clip-path="url(#clip0_2122_159055)">
<path d="M0 89.1016H150V135.902H0V89.1016Z" fill="#7F7F7F"/>
<path d="M0 92.1016H150V132.902H0V92.1016Z" fill="#999999"/>
<path d="M0 96.6016H150V128.702H0V96.6016Z" fill="#B2B2B2"/>
<path d="M0 102.297H150V122.697H0V102.297Z" fill="#CCCCCC"/>
<path d="M0 107.398H150V117.598H0V107.398Z" fill="#E5E5E5"/>
<path d="M0 111.898H150V113.098H0V111.898Z" fill="white"/>
<path d="M0 89.1016H150V135.902H0V89.1016Z" stroke="black" stroke-width="0.6"/>
<path d="M37.5 75.2969H112.5V149.997H37.5V75.2969Z" fill="#7F7F7F"/>
<path d="M37.5 79.7969H112.5V145.197H37.5V79.7969Z" fill="#999999"/>
<path d="M37.5 87H112.5V138.3H37.5V87Z" fill="#B2B2B2"/>
<path d="M37.5 96.2969H112.5V128.697H37.5V96.2969Z" fill="#CCCCCC"/>
<path d="M37.5 104.398H112.5V120.598H37.5V104.398Z" fill="#E5E5E5"/>
<path d="M37.5 111.297H112.5V113.697H37.5V111.297Z" fill="white"/>
<path d="M37.5 75H112.5V150H37.5V75Z" stroke="black" stroke-width="0.6"/>
<path d="M0 75.2969H28.2V149.997H0V75.2969Z" fill="#7F7F7F"/>
<path d="M0 79.7969H28.2V145.197H0V79.7969Z" fill="#999999"/>
<path d="M0 86.7031H28.2V138.303H0V86.7031Z" fill="#B2B2B2"/>
<path d="M0 96.2969H28.2V128.697H0V96.2969Z" fill="#CCCCCC"/>
<path d="M0 104.398H28.2V120.598H0V104.398Z" fill="#E5E5E5"/>
<path d="M0 111.297H28.2V113.697H0V111.297Z" fill="white"/>
<path d="M0 75H28.2V150H0V75Z" stroke="black" stroke-width="0.6"/>
<path d="M121.801 75.2969H150.001V149.997H121.801V75.2969Z" fill="#7F7F7F"/>
<path d="M121.801 79.7969H150.001V145.197H121.801V79.7969Z" fill="#999999"/>
<path d="M121.801 86.7031H150.001V138.303H121.801V86.7031Z" fill="#B2B2B2"/>
<path d="M121.801 96.2969H150.001V128.697H121.801V96.2969Z" fill="#CCCCCC"/>
<path d="M121.801 104.398H150.001V120.598H121.801V104.398Z" fill="#E5E5E5"/>
<path d="M121.801 111.297H150.001V113.697H121.801V111.297Z" fill="white"/>
<path d="M121.801 75H150.001V150H121.801V75Z" stroke="black" stroke-width="0.6"/>
<path d="M98.3996 46.7969V74.9969H51.5996V46.7969H98.3996Z" fill="#7F7F7F"/>
<path d="M95.3996 46.7969V74.9969H54.5996V46.7969H95.3996Z" fill="#999999"/>
<path d="M91.1996 46.7969V74.9969H59.0996V46.7969H91.1996Z" fill="#B2B2B2"/>
<path d="M85.2008 46.7969V74.9969H64.8008V46.7969H85.2008Z" fill="#CCCCCC"/>
<path d="M80.1004 46.7969V74.9969H69.9004V46.7969H80.1004Z" fill="#E5E5E5"/>
<path d="M75.9004 46.7969V74.9969H74.4004V46.7969H75.9004Z" fill="white"/>
<path d="M98.3996 46.7969V74.9969H51.5996V46.7969H98.3996Z" stroke="black" stroke-width="0.6"/>
<path d="M84.2992 18.6016V46.8016H65.6992V18.6016H84.2992Z" fill="#7F7F7F"/>
<path d="M83.1004 18.6016V46.8016H66.9004V18.6016H83.1004Z" fill="#999999"/>
<path d="M81.2992 18.6016V46.8016H68.6992V18.6016H81.2992Z" fill="#B2B2B2"/>
<path d="M79.2008 18.6016V46.8016H70.8008V18.6016H79.2008Z" fill="#CCCCCC"/>
<path d="M77.1004 18.6016V46.8016H72.9004V18.6016H77.1004Z" fill="#E5E5E5"/>
<path d="M75.2992 18.6016V46.8016H74.6992V18.6016H75.2992Z" fill="white"/>
<path d="M84.2992 18.6016V46.8016H65.6992V18.6016H84.2992Z" stroke="black" stroke-width="0.6"/>
<path d="M75 18.6L37.5 18.9L38.4 15L40.5 11.4L43.8 8.4L48.6 5.4L54 3.3L60.3 1.5L67.5 0.3L75 0L82.5 0.3L89.7 1.5L96 3.3L101.4 5.4L106.2 8.1L109.5 11.4L111.6 15L112.5 18.6H75Z" fill="#7F7F7F"/>
<path d="M75.0008 18.9H42.3008L42.9008 15L45.0008 11.4L48.0008 8.4L51.9008 5.4L56.7008 3.3L62.4008 1.5L68.4008 0.3L75.0008 0L81.6008 0.3L87.6008 1.5L93.3008 3.3L98.1008 5.4L102.001 8.1L105.001 11.4L107.101 15L107.701 18.6L75.0008 18.9Z" fill="#999999"/>
<path d="M74.9992 18.9H49.1992L49.7992 15L51.2992 11.4L53.6992 8.4L56.6992 5.4L60.5992 3.3L65.0992 1.5L69.8992 0.3L74.9992 0L80.0992 0.3L84.8992 1.5L89.3992 3.3L93.2992 5.4L96.2992 8.1L98.6992 11.4L100.199 15L100.799 18.6L74.9992 18.9Z" fill="#B2B2B2"/>
<path d="M75 18.6L58.5 18.9L58.8 15L59.7 11.4L61.2 8.4L63.3 5.4L65.7 3.3L68.7 1.5L71.7 0.3L75 0L78.3 0.3L81.3 1.5L84.3 3.3L86.7 5.4L88.8 8.1L90.3 11.4L91.2 15L91.5 18.6H75Z" fill="#CCCCCC"/>
<path d="M75.0004 18.6L66.9004 18.9L67.2004 15L67.5004 11.4L68.4004 8.4L69.3004 5.4L70.5004 3.3L71.7004 1.5L73.5004 0.3L75.0004 0L76.5004 0.3L78.3004 1.5L79.5004 3.3L80.7004 5.4L81.6004 8.1L82.5004 11.4L82.8004 15L83.1004 18.6H75.0004Z" fill="#E5E5E5"/>
<path d="M75.0008 18.6C75.6635 18.6 76.2008 14.4362 76.2008 9.3C76.2008 4.16375 75.6635 0 75.0008 0C74.338 0 73.8008 4.16375 73.8008 9.3C73.8008 14.4362 74.338 18.6 75.0008 18.6Z" fill="white"/>
<path d="M75 18.6L37.5 18.9L38.4 15L40.5 11.4L43.8 8.4L48.6 5.4L54 3.3L60.3 1.5L67.5 0.3L75 0L82.5 0.3L89.7 1.5L96 3.3L101.4 5.4L106.2 8.1L109.5 11.4L111.6 15L112.5 18.6H75Z" stroke="black" stroke-width="0.6"/>
</g>
<defs>
<clipPath id="clip0_2122_159055">
<rect width="150" height="150" fill="white"/>
</clipPath>
</defs>
</svg>
