<svg width="150" height="150" viewBox="0 0 150 150" fill="none" xmlns="http://www.w3.org/2000/svg">
<g clip-path="url(#clip0_2122_159606)">
<path d="M17.4174 17.0547L25.6757 25.8072L8.70871 43.3122L0 34.5597L17.4174 17.0547Z" fill="#999999"/>
<path d="M17.418 17.0523L25.6762 25.8048L43.0936 8.60161L34.3849 0L17.418 17.0523Z" fill="#CCCCCC"/>
<path d="M34.3844 0L43.0931 8.60161L8.70871 43.3099L0 34.5573L34.3844 0Z" stroke="black" stroke-width="0.301055"/>
<path d="M3.60352 94.9219H150V150.002H3.60352V94.9219Z" fill="#7F7F7F"/>
<path d="M3.60352 97.3359H150V147.587H3.60352V97.3359Z" fill="#8C8C8C"/>
<path d="M3.60352 99.75H150V145.173H3.60352V99.75Z" fill="#999999"/>
<path d="M3.60352 102.164H150V142.456H3.60352V102.164Z" fill="#A6A6A6"/>
<path d="M3.60352 104.578H150V140.041H3.60352V104.578Z" fill="#B2B2B2"/>
<path d="M3.60352 107.297H150V137.78H3.60352V107.297Z" fill="#BFBFBF"/>
<path d="M3.60352 109.711H150V135.365H3.60352V109.711Z" fill="#CCCCCC"/>
<path d="M3.60352 112.125H150V132.95H3.60352V112.125Z" fill="#D9D9D9"/>
<path d="M3.60352 114.539H150V130.384H3.60352V114.539Z" fill="#E5E5E5"/>
<path d="M3.60352 116.953H150V127.969H3.60352V116.953Z" fill="#F2F2F2"/>
<path d="M3.60352 119.367H150V125.554H3.60352V119.367Z" fill="white"/>
<path d="M29.2793 94.9219H30.7808V150.002H29.2793V94.9219Z" fill="#666666"/>
<path d="M136.186 94.9219H137.687V150.002H136.186V94.9219Z" fill="#666666"/>
<path d="M64.4141 149.997L76.7264 140.641L88.7384 149.997H64.4141Z" fill="#666666"/>
<path d="M69.5195 146.073L76.7267 140.641L83.6336 146.073H69.5195Z" fill="#4C4C4C"/>
<path d="M19.0693 117.25L21.0212 118.91L21.772 121.174V123.588L21.0212 126.003L19.0693 127.813L16.6669 128.719H14.4146L12.3125 127.813" stroke="#B2B2B2" stroke-width="0.301055"/>
<path d="M12.3121 127.82L10.5103 126.01L9.60938 123.897V121.181L10.5103 118.917L12.3121 117.257L14.4142 116.352H16.6664L19.0688 117.257" stroke="#4C4C4C" stroke-width="0.301055"/>
<path d="M147.147 117.25L149.099 118.91L150 121.174V123.588L149.099 126.003L147.147 127.813L144.895 128.719H142.493L140.391 127.813" stroke="#B2B2B2" stroke-width="0.301055"/>
<path d="M140.39 127.82L138.588 126.01L137.688 123.897V121.181L138.588 118.917L140.39 117.257L142.492 116.352H144.895L147.147 117.257" stroke="#4C4C4C" stroke-width="0.301055"/>
<path d="M3.60352 94.9219H150V150.002H3.60352V94.9219Z" stroke="black" stroke-width="0.301055"/>
<path d="M42.1921 3.01562L135.435 97.3315H58.4083L3.60352 42.1001L42.1921 3.01562Z" fill="#7F7F7F"/>
<path d="M40.6915 4.67969L135.286 99.7501H64.4153L5.40625 40.2934L40.6915 4.67969Z" fill="#8C8C8C"/>
<path d="M38.8882 6.64062L134.083 102.164L70.4198 102.466L6.90625 38.4817L38.8882 6.64062Z" fill="#999999"/>
<path d="M37.0874 8.14844L133.183 104.577H76.1264L8.70898 36.6696L37.0874 8.14844Z" fill="#A6A6A6"/>
<path d="M35.4347 9.8125L132.282 107.297H82.1314L10.5098 35.1646L35.4347 9.8125Z" fill="#B2B2B2"/>
<path d="M33.9341 11.6172L131.382 109.706H88.1383L12.3125 33.3476L33.9341 11.6172Z" fill="#BFBFBF"/>
<path d="M31.9829 13.4297L130.181 112.122H93.8447L13.9648 31.5383L31.9829 13.4297Z" fill="#CCCCCC"/>
<path d="M30.3297 14.9375L129.279 114.535H99.8492L15.4648 29.7262L30.3297 14.9375Z" fill="#D9D9D9"/>
<path d="M28.3789 16.75L128.379 116.951L105.856 117.253L17.418 27.917L28.3789 16.75Z" fill="#E5E5E5"/>
<path d="M26.8762 18.5625L127.176 119.367H111.861L19.0684 26.4096L26.8762 18.5625Z" fill="#F2F2F2"/>
<path d="M25.225 20.375L123.874 119.671H115.165L20.5703 24.6004L25.225 20.375Z" fill="white"/>
<path d="M50.3008 11.0156L51.2017 12.2229L12.6131 51.1565L11.2617 49.9492L50.3008 11.0156Z" fill="black"/>
<path d="M68.018 28.5234L69.2192 29.7307L30.3303 68.6643L29.2793 67.7589L68.018 28.5234Z" fill="#666666"/>
<path d="M56.0059 94.917L3.60352 42.1001L42.1921 3.01562L133.183 94.917" stroke="black" stroke-width="0.301055"/>
<path d="M43.3935 34.5547L45.1953 36.3656L46.0962 38.4782V40.8927L45.1953 43.3072L43.3935 44.8163L41.2914 45.7217H38.889L36.6367 44.8163" stroke="#B2B2B2" stroke-width="0.301055"/>
<path d="M36.6363 44.8154L34.9846 43.3064L33.9336 40.8919V38.4774L34.6843 36.3647L36.6363 34.5539L38.8885 33.6484H41.291L43.3931 34.5539" stroke="#4C4C4C" stroke-width="0.301055"/>
<path d="M11.1113 49.6454V34.253H26.8771V18.408H42.1924V3.01562" stroke="black" stroke-width="0.301055"/>
<path d="M50.0009 10.7109H34.6856V26.7069H18.9198V42.0993H4.20508" stroke="black" stroke-width="0.301055"/>
<path d="M38.5884 6.94531V22.1868H23.2731V38.1827H7.20703V45.728H15.0148V30.6375H30.7806V14.4906H46.0959V6.94531H38.5884Z" stroke="black" stroke-width="0.301055"/>
</g>
<defs>
<clipPath id="clip0_2122_159606">
<rect width="150" height="150" fill="white"/>
</clipPath>
</defs>
</svg>
