<svg width="150" height="150" viewBox="0 0 150 150" fill="none" xmlns="http://www.w3.org/2000/svg">
<g clip-path="url(#clip0_2122_158395)">
<path d="M55.5664 62.6094H107.102V84.9817H55.5664V62.6094Z" fill="#7F7F7F" stroke="black" stroke-width="0.415834"/>
<path d="M20.1528 31.3802L50.671 33.4823H111.707L142.226 31.3802L141.362 11.1099L110.844 9.00781H49.8073L19.2891 11.1099L20.1528 31.3802Z" fill="#7F7F7F" stroke="black" stroke-width="0.415834"/>
<path d="M12.668 18.1719H150V22.0758H12.668V18.1719Z" fill="#7F7F7F" stroke="black" stroke-width="0.415834"/>
<path d="M12.668 19.9688H150" stroke="black" stroke-width="0.415834"/>
<path d="M59.8848 33.4844H102.783V35.7366H59.8848V33.4844Z" fill="black" stroke="black" stroke-width="0.415834"/>
<path d="M64.2031 35.7344H98.4642V62.6113H64.2031V35.7344Z" fill="#7F7F7F" stroke="black" stroke-width="0.415834"/>
<path d="M81.1894 69.221C88.1857 69.221 93.8574 66.2631 93.8574 62.6144C93.8574 58.9657 88.1857 56.0078 81.1894 56.0078C74.1931 56.0078 68.5215 58.9657 68.5215 62.6144C68.5215 66.2631 74.1931 69.221 81.1894 69.221Z" fill="black" stroke="black" stroke-width="0.415834"/>
<path d="M81.4771 67.1184C86.2473 67.1184 90.1143 65.1016 90.1143 62.6139C90.1143 60.1261 86.2473 58.1094 81.4771 58.1094C76.7069 58.1094 72.8398 60.1261 72.8398 62.6139C72.8398 65.1016 76.7069 67.1184 81.4771 67.1184Z" fill="#7F7F7F" stroke="#7F7F7F" stroke-width="0.415834"/>
<path d="M68.522 82.7356C73.2922 82.7356 77.1592 80.7188 77.1592 78.2311C77.1592 75.7433 73.2922 73.7266 68.522 73.7266C63.7518 73.7266 59.8848 75.7433 59.8848 78.2311C59.8848 80.7188 63.7518 82.7356 68.522 82.7356Z" fill="white" stroke="black" stroke-width="0.415834"/>
<path d="M94.145 82.7356C98.9153 82.7356 102.782 80.7188 102.782 78.2311C102.782 75.7433 98.9153 73.7266 94.145 73.7266C89.3748 73.7266 85.5078 75.7433 85.5078 78.2311C85.5078 80.7188 89.3748 82.7356 94.145 82.7356Z" fill="white" stroke="black" stroke-width="0.415834"/>
<path d="M68.5215 78.2271L72.8401 76.125" stroke="#FF0000" stroke-width="0.415834"/>
<path d="M59.8848 78.2266H68.522" stroke="black" stroke-width="0.415834"/>
<path d="M94.1465 78.2271V76.125" stroke="#FF0000" stroke-width="0.415834"/>
<path d="M102.784 78.2266H94.1465" stroke="black" stroke-width="0.415834"/>
<path d="M59.8848 84.9844H102.783V89.4889H59.8848V84.9844Z" fill="black" stroke="black" stroke-width="0.415834"/>
<path d="M64.2031 89.4922H72.8404V100.603H64.2031V89.4922Z" fill="#7F7F7F" stroke="black" stroke-width="0.415834"/>
<path d="M89.8281 89.4922H98.4654V100.603H89.8281V89.4922Z" fill="#7F7F7F" stroke="black" stroke-width="0.415834"/>
<path d="M55.5669 64.8672L46.9297 69.3717L47.2176 100.753L55.5669 105.107H107.102L115.74 100.753V69.2215L107.102 64.8672V96.2486L102.784 100.753H59.8855L55.5669 96.2486V64.8672Z" fill="#7F7F7F" stroke="black" stroke-width="0.415834"/>
<path d="M55.5664 118.615L64.2036 105.102H98.4647L107.102 118.615H55.5664Z" fill="#7F7F7F" stroke="black" stroke-width="0.415834"/>
<path d="M46.9297 118.617H115.74V120.869H46.9297V118.617Z" fill="#7F7F7F" stroke="black" stroke-width="0.415834"/>
<path d="M46.9297 120.867V125.222L34.2617 127.474V140.837L46.9297 147.744H115.74L128.696 140.837V127.474L115.74 125.222V120.867H46.9297Z" fill="#7F7F7F" stroke="black" stroke-width="0.415834"/>
<path d="M33.9741 140.99H29.9434V127.477H33.9741V140.99Z" fill="black" stroke="black" stroke-width="0.415834"/>
<path d="M132.726 140.99H128.695V127.477H132.726V140.99Z" fill="black" stroke="black" stroke-width="0.415834"/>
<path d="M21.3047 118.617H29.9419V149.999H21.3047V118.617Z" fill="#7F7F7F" stroke="black" stroke-width="0.415834"/>
<path d="M133.014 118.617H141.363V149.999H133.014V118.617Z" fill="#7F7F7F" stroke="black" stroke-width="0.415834"/>
<path d="M46.9297 116.367H51.2483V118.619H46.9297V116.367Z" fill="black" stroke="black" stroke-width="0.415834"/>
<path d="M111.42 116.367H115.739V118.619H111.42V116.367Z" fill="black" stroke="black" stroke-width="0.415834"/>
<path d="M55.5662 82.7327H0V0H81.19V8.85886H76.8714V2.1021H4.03071V80.4805H55.5662V82.7327Z" fill="white" stroke="black" stroke-width="0.415834"/>
</g>
<defs>
<clipPath id="clip0_2122_158395">
<rect width="150" height="150" fill="white"/>
</clipPath>
</defs>
</svg>
