<svg width="150" height="150" viewBox="0 0 150 150" fill="none" xmlns="http://www.w3.org/2000/svg">
<g clip-path="url(#clip0_2122_160375)">
<path d="M55.7051 83.3047H85.2353V108.352H55.7051V83.3047Z" fill="black" stroke="black" stroke-width="0.614616"/>
<path d="M55.7047 27.0156V130.299H44.6309V27.0156H55.7047Z" fill="#7F7F7F"/>
<path d="M54.6971 27.0156V130.299H45.6367V27.0156H54.6971Z" fill="#B2B2B2"/>
<path d="M53.3563 27.0156V130.299H46.9805V27.0156H53.3563Z" fill="#E5E5E5"/>
<path d="M51.0076 27.0156V130.299H48.9941V27.0156H51.0076Z" fill="white"/>
<path d="M44.6309 27.0156V130.299" stroke="black" stroke-width="0.614616"/>
<path d="M55.7051 130.299V27.0156" stroke="black" stroke-width="0.614616"/>
<path d="M140.269 27.0156V70.9181H129.195V27.0156H140.269Z" fill="#7F7F7F"/>
<path d="M139.262 27.0156V70.9181H130.201V27.0156H139.262Z" fill="#B2B2B2"/>
<path d="M137.919 27.0156V70.9181H131.543V27.0156H137.919Z" fill="#E5E5E5"/>
<path d="M135.57 27.0156V70.9181H133.557V27.0156H135.57Z" fill="white"/>
<path d="M129.195 27.0156V70.9181" stroke="black" stroke-width="0.614616"/>
<path d="M140.268 70.9181V27.0156" stroke="black" stroke-width="0.614616"/>
<path d="M66.7793 79.0781H119.128V88.6466H66.7793V79.0781Z" fill="#7F7F7F"/>
<path d="M66.7793 79.9219H119.128V87.5204H66.7793V79.9219Z" fill="#B2B2B2"/>
<path d="M66.7793 81.3359H119.128V86.4016H66.7793V81.3359Z" fill="#E5E5E5"/>
<path d="M66.7793 83.0234H119.128V84.712H66.7793V83.0234Z" fill="white"/>
<path d="M66.7793 88.6484H119.128" stroke="black" stroke-width="0.614616"/>
<path d="M119.128 79.0781H66.7793" stroke="black" stroke-width="0.614616"/>
<path d="M66.7785 18.8574V9.57031H44.6309L55.7047 18.8574H66.7785Z" fill="#7F7F7F"/>
<path d="M55.7047 28.1446H44.6309V9.28906L55.7047 18.5761V28.1446Z" fill="#7F7F7F"/>
<path d="M45.6367 28.1441H54.6971V18.0127L45.6367 10.1328V28.1441Z" fill="#B2B2B2"/>
<path d="M66.7777 10.4141V18.0126H54.6971L45.6367 10.4141H66.7777Z" fill="#B2B2B2"/>
<path d="M46.9805 28.1432H53.0207V16.6047L46.9805 11.5391V28.1432Z" fill="#E5E5E5"/>
<path d="M66.7791 11.5391V16.6047H53.3563L46.9805 11.5391H66.7791Z" fill="#E5E5E5"/>
<path d="M66.7794 13.2266V14.9151H51.3431L48.9941 13.2266H66.7794Z" fill="white"/>
<path d="M48.9941 28.1421H51.0076V14.9151L48.9941 13.2266V28.1421Z" fill="white"/>
<path d="M44.6309 28.1446V9.28906" stroke="black" stroke-width="0.614616"/>
<path d="M55.7051 18.5703V28.1388" stroke="black" stroke-width="0.614616"/>
<path d="M66.7785 9.28906H44.6309" stroke="black" stroke-width="0.614616"/>
<path d="M55.7051 18.8594H66.7789" stroke="black" stroke-width="0.614616"/>
<path d="M128.859 27.8632H139.933V9.28906L128.859 18.5761V27.8632Z" fill="#7F7F7F"/>
<path d="M117.785 18.5761V9.28906H140.268L129.195 18.5761H117.785Z" fill="#7F7F7F"/>
<path d="M117.785 10.1328V17.7313H129.866L138.926 10.1328H117.785Z" fill="#B2B2B2"/>
<path d="M138.926 27.8626H129.865V17.7313L138.926 10.1328V27.8626Z" fill="#B2B2B2"/>
<path d="M117.785 11.5391V16.6047H131.544L137.584 11.5391H117.785Z" fill="#E5E5E5"/>
<path d="M137.583 27.8618H131.543V16.6047L137.583 11.5391V27.8618Z" fill="#E5E5E5"/>
<path d="M135.57 27.8607H133.557V14.9151L135.57 13.2266V27.8607Z" fill="white"/>
<path d="M117.785 13.2266V14.9151H133.557L135.57 13.2266H117.785Z" fill="white"/>
<path d="M117.785 9.28906H140.268" stroke="black" stroke-width="0.614616"/>
<path d="M129.195 18.5703H117.785" stroke="black" stroke-width="0.614616"/>
<path d="M140.268 27.8632V9.28906" stroke="black" stroke-width="0.614616"/>
<path d="M128.859 18.5703V27.8574" stroke="black" stroke-width="0.614616"/>
<path d="M65.4355 9.28906H119.127V18.8575H65.4355V9.28906Z" fill="#7F7F7F"/>
<path d="M65.4355 10.1328H119.127V17.7313H65.4355V10.1328Z" fill="#B2B2B2"/>
<path d="M65.4355 11.5391H119.127V16.6047H65.4355V11.5391Z" fill="#E5E5E5"/>
<path d="M65.4355 13.2266H119.127V14.9151H65.4355V13.2266Z" fill="white"/>
<path d="M65.4355 18.8594H119.127" stroke="black" stroke-width="0.614616"/>
<path d="M119.127 9.28906H65.4355" stroke="black" stroke-width="0.614616"/>
<path d="M118.121 79.0781V88.3652H140.269L129.195 79.0781H118.121Z" fill="#7F7F7F"/>
<path d="M129.195 69.7969H140.269V88.371L129.195 79.0839V69.7969Z" fill="#7F7F7F"/>
<path d="M139.262 69.7969H130.201V79.9282L139.262 87.5267V69.7969Z" fill="#B2B2B2"/>
<path d="M118.121 87.5204V79.9219H130.202L139.262 87.5204H118.121Z" fill="#B2B2B2"/>
<path d="M137.583 69.7969H131.543V81.0539L137.583 86.401V69.7969Z" fill="#E5E5E5"/>
<path d="M118.121 86.1125V81.0469H131.544L137.584 86.1125H118.121Z" fill="#E5E5E5"/>
<path d="M118.121 84.4307V82.7422H133.557L135.571 84.4307H118.121Z" fill="white"/>
<path d="M135.57 69.7969H133.557V82.7425L135.57 84.7124V69.7969Z" fill="white"/>
<path d="M140.268 69.7969V88.371" stroke="black" stroke-width="0.614616"/>
<path d="M129.195 79.0839V69.7969" stroke="black" stroke-width="0.614616"/>
<path d="M117.785 88.3672H140.268" stroke="black" stroke-width="0.614616"/>
<path d="M129.195 79.0781H117.785" stroke="black" stroke-width="0.614616"/>
<path d="M66.7781 78.7997H55.7043V74.2969H44.2949V92.871H55.7043V88.0867H66.7781V78.7997Z" fill="#7F7F7F"/>
<path d="M66.7777 79.9254H54.3616V74.2969H45.6367V92.871H54.3616V87.2425H66.7777V79.9254Z" fill="#B2B2B2"/>
<path d="M66.7791 81.0511H53.0207V74.2969H46.9805V92.871H53.0207V86.1168H66.7791V81.0511Z" fill="#E5E5E5"/>
<path d="M66.7794 82.4582H51.0076V74.2969H48.9941V92.871H51.0076V84.4282H66.7794V82.4582Z" fill="white"/>
<path d="M66.7789 78.7997H55.7051V74.2969" stroke="black" stroke-width="0.614616"/>
<path d="M66.7789 88.0859H55.7051V92.8702" stroke="black" stroke-width="0.614616"/>
<path d="M44.2949 92.871V74.2969" stroke="black" stroke-width="0.614616"/>
<path d="M0 150.003V108.352L99.6644 150.003V108.352L0 150.003Z" fill="#7F7F7F"/>
<path d="M0 148.031V110.32L99.6644 148.031V110.32L0 148.031Z" fill="#999999"/>
<path d="M0 143.526V114.82L99.6644 143.526V114.82L0 143.526Z" fill="#B2B2B2"/>
<path d="M0 139.31V119.047L99.6644 139.31V119.047L0 139.31Z" fill="#CCCCCC"/>
<path d="M0 136.212V122.141L99.6644 136.212V122.141L0 136.212Z" fill="#E5E5E5"/>
<path d="M0 131.706V126.359L99.6644 131.706V126.359L0 131.706Z" fill="white"/>
<path d="M0 150.003V108.352L99.6644 150.003V108.352L0 150.003Z" stroke="black" stroke-width="0.614616"/>
<path d="M138.926 52.0674L135.57 45.3132L128.188 51.5046L134.899 57.1331L142.281 50.9417L150 44.1875H138.926V52.0674Z" fill="black"/>
<path d="M131.545 52.0674H138.927V44.1875H131.545L134.9 50.9417L128.189 45.3132L120.471 52.0674H131.545Z" fill="black"/>
<path d="M138.926 41.9314L135.57 39.1172L128.188 45.3086L134.899 50.9371L142.281 44.7457L138.926 41.9314Z" fill="black"/>
<path d="M88.9255 6.4728L81.543 12.6642L88.2544 18.2927L95.6369 12.1013L87.5832 9.28705H96.9792V0L88.9255 6.4728Z" fill="black"/>
<path d="M88.9263 12.6662L96.98 15.4804V9.28906H87.584V15.4804V24.7675L95.6377 18.2947L88.9263 12.6662Z" fill="black"/>
<path d="M99.9996 9.29082L96.6439 6.47656L88.9258 12.6679L95.6372 18.2964L103.355 12.1051L99.9996 9.29082Z" fill="black"/>
<path d="M50 79.3594H79.5302V104.125H50V79.3594Z" fill="#7F7F7F" stroke="black" stroke-width="0.614616"/>
<path d="M49.6646 61.0689H9.06055L9.73169 54.0332L12.4163 47.279L16.1075 41.369L21.1411 36.3034L27.1814 31.8006L33.8928 28.7049L41.6109 26.7349L49.6646 25.8906L57.7183 26.7349L65.4364 28.7049L72.4834 31.8006L78.5236 36.3034L83.2216 41.369L87.2485 47.279L89.5975 54.0332L90.2686 61.0689H49.6646Z" fill="#7F7F7F"/>
<path d="M49.6651 61.0689H13.0879L13.759 54.0332L16.108 47.279L19.4637 41.369L23.8261 36.3034L29.1953 31.8006L35.5711 28.7049L42.2825 26.7349L49.6651 25.8906L57.0476 26.7349L64.0946 28.7049L70.4704 31.8006L75.8396 36.3034L80.202 41.369L83.5577 47.279L85.9067 54.0332L86.5778 61.0689H49.6651Z" fill="#999999"/>
<path d="M49.6653 61.0689H20.4707L21.1418 54.0332L22.8197 47.279L25.5043 41.369L29.1955 36.3034L33.2224 31.8006L38.2559 28.7049L43.6251 26.7349L49.6653 25.8906L55.7056 26.7349L61.0747 28.7049L66.1083 31.8006L70.4707 36.3034L73.8264 41.369L76.511 47.279L78.1888 54.0332L78.86 61.0689H49.6653Z" fill="#B2B2B2"/>
<path d="M49.664 61.0689H28.1875L28.5231 54.0332L29.8654 47.279L31.8788 41.369L34.5633 36.3034L37.5835 31.8006L41.2747 28.7049L45.3016 26.7349L49.664 25.8906L54.0264 26.7349L58.0533 28.7049L61.7445 31.8006L65.1003 36.3034L67.7848 41.369L69.7982 47.279L71.1405 54.0332L71.4761 61.0689H49.664Z" fill="#CCCCCC"/>
<path d="M49.6646 61.0689H35.9062L36.2418 54.0332L36.913 47.279L38.2552 41.369L39.9331 36.3034L41.9465 31.8006L44.2955 28.7049L46.9801 26.7349L49.6646 25.8906L52.3492 26.7349L55.0338 28.7049L57.3828 31.8006L59.7318 36.3034L61.4096 41.369L62.7519 47.279L63.423 54.0332L63.7586 61.0689H49.6646Z" fill="#E5E5E5"/>
<path d="M49.6646 61.0689H9.06055L9.73169 54.0332L12.4163 47.279L16.1075 41.369L21.1411 36.3034L27.1814 31.8006L33.8928 28.7049L41.6109 26.7349L49.6646 25.8906L57.7183 26.7349L65.4364 28.7049L72.4834 31.8006L78.5236 36.3034L83.2216 41.369L87.2485 47.279L89.5975 54.0332L90.2686 61.0689H49.6646Z" stroke="black" stroke-width="0.614616"/>
<path d="M49.6639 61.0689H45.9727V54.0332L46.3082 47.279L46.6438 41.369L46.9794 36.3034L47.6505 31.8006L48.3216 28.7049L48.9928 26.7349L49.6639 25.8906L50.6706 26.7349L51.3418 28.7049L52.0129 31.8006L52.6841 36.3034L53.0196 41.369L53.3552 47.279L53.6908 54.0332V61.0689H49.6639Z" fill="white"/>
</g>
<defs>
<clipPath id="clip0_2122_160375">
<rect width="150" height="150" fill="white"/>
</clipPath>
</defs>
</svg>
