<svg width="150" height="150" viewBox="0 0 150 150" fill="none" xmlns="http://www.w3.org/2000/svg">
<g clip-path="url(#clip0_2122_160792)">
<path d="M83.9199 8.20045L88.5455 0L149.999 36.5604L145.374 44.7608L83.9199 8.20045Z" fill="#7F7F7F"/>
<path d="M84.252 7.17171L88.2167 0.679688L149.67 37.2401L145.706 44.0738L84.252 7.17171Z" fill="#B2B2B2"/>
<path d="M84.9121 6.15285L87.5553 1.71094L149.009 38.613L146.366 42.7132L84.9121 6.15285Z" fill="#E5E5E5"/>
<path d="M85.9023 4.78655L86.5631 3.07812L148.017 39.9802L147.356 41.3469L85.9023 4.78655Z" fill="white"/>
<path d="M88.5469 0L150.001 36.5604" stroke="black" stroke-width="0.671987"/>
<path d="M83.9199 8.20312L145.374 44.7635" stroke="black" stroke-width="0.671987"/>
<path d="M9.2511 148.289H0V87.4688H9.2511V148.289Z" fill="#7F7F7F"/>
<path d="M8.25896 148.289H0.990234V87.4688H8.25896V148.289Z" fill="#B2B2B2"/>
<path d="M6.93805 148.289H2.3125V87.4688H6.93805V148.289Z" fill="#E5E5E5"/>
<path d="M5.61714 148.289H3.63477V87.4688H5.61714V148.289Z" fill="white"/>
<path d="M0 148.289V87.4688" stroke="black" stroke-width="0.671987"/>
<path d="M9.25195 148.289V87.4688" stroke="black" stroke-width="0.671987"/>
<path d="M17.8423 77.5637L13.2167 85.7641L9.25195 83.3723L13.8775 75.1719L17.8423 77.5637Z" fill="#7F7F7F"/>
<path d="M17.1811 78.2434L13.5468 84.7354L9.58203 82.6853L13.2164 75.8516L17.1811 78.2434Z" fill="#B2B2B2"/>
<path d="M16.8501 79.2746L14.2069 83.7165L10.2422 81.3247L12.8854 76.8828L16.8501 79.2746Z" fill="#E5E5E5"/>
<path d="M15.8599 80.6361L15.1991 82.3445L11.2344 79.9527L11.8952 78.5859L15.8599 80.6361Z" fill="white"/>
<path d="M13.2167 85.7668L9.25195 83.375" stroke="black" stroke-width="0.671987"/>
<path d="M17.8417 77.5637L13.877 75.1719" stroke="black" stroke-width="0.671987"/>
<path d="M9.2511 83.3719H0V82.0051L0.330396 80.9801L0.660793 79.6133L1.32159 78.5883L2.31278 77.2215L3.63436 75.8548L5.28634 74.8297L6.93833 74.1464L8.59031 73.8047H10.5727L12.2247 74.4881L13.8767 75.1714L9.2511 83.3719Z" fill="#7F7F7F"/>
<path d="M9.25015 83.3703H0.990234V82.0035L1.32063 80.9785L1.65103 79.9534L1.98142 78.9284L2.97261 77.5616L4.2942 76.5366L5.61579 75.5115L6.93737 74.8281H8.58935H10.2413L11.5629 75.1698L13.2149 75.8532L9.25015 83.3703Z" fill="#B2B2B2"/>
<path d="M9.25083 83.3707H2.3125V82.3457L2.6429 81.3206L2.97329 80.2955L3.30369 79.6122L4.95567 77.5621L7.26845 76.1953H10.242L12.8852 76.8787L9.25083 83.3707Z" fill="#E5E5E5"/>
<path d="M9.25151 83.3732H3.63477V82.6898L3.96516 82.0065L4.29556 81.3231L4.62596 80.6397L5.94754 78.9313L7.92992 77.9062H9.9123L11.8947 78.5896L9.25151 83.3732Z" fill="white"/>
<path d="M9.25155 83.3679H5.61719V82.6845V82.3429V81.6595L5.94758 81.3178L6.93877 80.2927L8.26036 79.6094H9.58195L11.2339 79.9511L9.25155 83.3679Z" fill="#E5E5E5"/>
<path d="M9.25028 83.3684H6.9375V83.0267L7.2679 82.685V82.3433L7.92869 81.6599L8.58948 80.9766H9.58067L10.2415 81.3182L9.25028 83.3684Z" fill="#B2B2B2"/>
<path d="M9.25096 83.3688H8.25977V83.0271H8.59016V82.6854L8.92056 82.3438H9.25096L9.58135 82.6854L9.25096 83.3688Z" fill="#7F7F7F"/>
<path d="M0 83.3719V82.0051L0.330396 80.9801L0.660793 79.6133L1.32159 78.5883L2.31278 77.2215L3.63436 75.8548L5.28634 74.8297L6.93833 74.1464L8.59031 73.8047H10.5727L12.2247 74.4881L13.8767 75.1714" stroke="black" stroke-width="0.671987"/>
<path d="M0 83.375H9.2511V88.1586H0V83.375Z" fill="#7F7F7F"/>
<path d="M0.990234 83.375H8.25896V88.1586H0.990234V83.375Z" fill="#B2B2B2"/>
<path d="M2.3125 83.375H6.93805V88.1586H2.3125V83.375Z" fill="#E5E5E5"/>
<path d="M3.63477 83.375H5.61714V88.1586H3.63477V83.375Z" fill="white"/>
<path d="M9.25195 83.375V88.1586" stroke="black" stroke-width="0.671987"/>
<path d="M0 83.375V88.1586" stroke="black" stroke-width="0.671987"/>
<path d="M124.559 73.8047H133.479V136.333H124.559V73.8047Z" fill="#7F7F7F"/>
<path d="M125.221 73.8047H132.82V136.333H125.221V73.8047Z" fill="#B2B2B2"/>
<path d="M126.541 73.8047H131.497V136.333H126.541V73.8047Z" fill="#E5E5E5"/>
<path d="M128.193 73.8047H129.845V136.333H128.193V73.8047Z" fill="white"/>
<path d="M133.48 73.8047V136.333" stroke="black" stroke-width="0.671987"/>
<path d="M124.559 73.8047V136.333" stroke="black" stroke-width="0.671987"/>
<path d="M115.969 146.24L120.594 138.039L124.559 140.431L119.934 148.631L115.969 146.24Z" fill="#7F7F7F"/>
<path d="M116.299 145.555L119.933 139.062L123.898 141.454L120.264 147.946L116.299 145.555Z" fill="#B2B2B2"/>
<path d="M116.961 144.536L119.274 140.094L123.238 142.486L120.926 146.927L116.961 144.536Z" fill="#E5E5E5"/>
<path d="M117.621 143.169L118.612 141.461L122.577 143.853L121.586 145.561L117.621 143.169Z" fill="white"/>
<path d="M120.594 138.039L124.559 140.431" stroke="black" stroke-width="0.671987"/>
<path d="M115.969 146.242L119.934 148.634" stroke="black" stroke-width="0.671987"/>
<path d="M124.559 140.43H133.48V141.796L133.149 142.821L132.819 144.188L132.489 145.213L131.497 146.58L130.176 147.947L128.524 148.972L126.872 149.655L125.22 149.997H123.238L121.586 149.314L119.934 148.63L124.559 140.43Z" fill="#7F7F7F"/>
<path d="M124.559 140.43H132.819V141.796L132.488 142.821L132.158 143.847L131.497 144.872L130.506 146.238L129.515 147.263L128.193 148.288L126.541 148.972H124.889H123.568L121.916 148.63L120.264 147.947L124.559 140.43Z" fill="#B2B2B2"/>
<path d="M124.56 140.43H131.498V141.455L131.168 142.48L130.838 143.505L130.507 144.188L128.525 146.238L126.212 147.605L123.569 147.947L120.926 146.922L124.56 140.43Z" fill="#E5E5E5"/>
<path d="M124.56 140.43H129.846V141.113L129.515 141.796V142.821L129.185 143.505L127.533 144.872L125.881 145.897L123.568 146.238L121.586 145.555L124.56 140.43Z" fill="white"/>
<path d="M124.559 140.43H128.193V140.771L127.863 141.455V141.796L127.532 142.48L126.541 143.505L125.219 144.188H123.898L122.576 143.847L124.559 140.43Z" fill="#E5E5E5"/>
<path d="M124.56 140.43H126.542V140.771V141.113V141.455L126.212 141.796L125.881 142.48L125.221 142.821H124.229L123.238 142.48L124.56 140.43Z" fill="#B2B2B2"/>
<path d="M124.559 140.43H125.22V140.771V141.113L124.89 141.455H124.559H124.229H123.898L124.559 140.43Z" fill="#7F7F7F"/>
<path d="M133.48 140.43V141.796L133.149 142.821L132.819 144.188L132.489 145.213L131.497 146.58L130.176 147.947L128.524 148.972L126.872 149.655L125.22 149.997H123.238L121.586 149.314L119.934 148.63" stroke="black" stroke-width="0.671987"/>
<path d="M133.479 140.434H124.559V135.992H133.479V140.434Z" fill="#7F7F7F"/>
<path d="M132.82 140.434H125.221V135.992H132.82V140.434Z" fill="#B2B2B2"/>
<path d="M131.497 140.434H126.541V135.992H131.497V140.434Z" fill="#E5E5E5"/>
<path d="M129.845 140.434H128.193V135.992H129.845V140.434Z" fill="white"/>
<path d="M124.559 140.434V135.992" stroke="black" stroke-width="0.671987"/>
<path d="M133.48 140.434V135.992" stroke="black" stroke-width="0.671987"/>
<path d="M120.926 138.722L116.3 146.923L13.2168 85.4192L17.512 77.2188L120.926 138.722Z" fill="#7F7F7F"/>
<path d="M120.265 139.41L116.631 146.243L13.5469 84.74L17.1812 77.9062L120.265 139.41Z" fill="#B2B2B2"/>
<path d="M119.604 140.775L117.291 144.875L14.207 83.3716L16.5198 78.9297L119.604 140.775Z" fill="#E5E5E5"/>
<path d="M118.942 142.144L117.951 143.511L14.8672 82.0074L15.8584 80.6406L118.942 142.144Z" fill="white"/>
<path d="M116.3 146.925L13.2168 85.4219" stroke="black" stroke-width="0.671987"/>
<path d="M120.926 138.722L17.5117 77.2188" stroke="black" stroke-width="0.671987"/>
<path d="M76.9826 112.759L72.3571 120.959L56.498 111.392L61.1236 103.191L65.0884 105.583L69.7139 97.3828L77.6434 102.166L73.0179 110.367L76.9826 112.759Z" fill="#7F7F7F"/>
<path d="M76.6516 113.436L73.0172 120.27L61.7838 113.436L57.1582 110.703L60.7926 103.869L65.4181 106.944L70.3741 97.7188L76.982 101.819L72.026 110.703L76.6516 113.436Z" fill="#B2B2B2"/>
<path d="M75.9905 114.807L73.6777 118.907L63.4354 113.099L57.4883 109.682L60.1315 105.24L66.0786 108.657L71.6953 98.4062L75.6601 101.14L70.0433 111.049L75.9905 114.807Z" fill="#E5E5E5"/>
<path d="M75.3307 116.172L74.3395 117.539L65.7492 112.414L58.4805 107.972L59.1413 106.605L66.41 110.705L73.0179 99.4297L74.3395 100.113L68.062 111.73L75.3307 116.172Z" fill="white"/>
<path d="M76.9823 112.756L73.0176 110.365L77.6431 102.164" stroke="black" stroke-width="0.671987"/>
<path d="M69.7134 97.3828L65.0878 105.583L61.123 103.191" stroke="black" stroke-width="0.671987"/>
<path d="M56.498 111.391L60.4628 113.782L72.3571 120.958" stroke="black" stroke-width="0.671987"/>
<path d="M77.3123 102.504L69.3828 98.0625L106.057 32.1172L113.986 36.9008L77.3123 102.504Z" fill="#7F7F7F"/>
<path d="M76.6529 102.167L70.0449 98.4083L106.719 32.8047L113.327 36.5632L76.6529 102.167Z" fill="#B2B2B2"/>
<path d="M75.33 101.48L71.3652 99.088L108.039 33.4844L112.004 35.8762L75.33 101.48Z" fill="#E5E5E5"/>
<path d="M74.0091 100.801L72.6875 99.7755L109.362 34.1719L110.683 35.1969L74.0091 100.801Z" fill="white"/>
<path d="M69.3828 98.0625L106.057 32.1172" stroke="black" stroke-width="0.671987"/>
<path d="M77.3125 102.502L113.987 36.8984" stroke="black" stroke-width="0.671987"/>
<path d="M106.717 21.5286L111.343 13.3281L127.202 22.8953L122.576 31.0958L118.612 28.704L113.986 36.9044L106.057 32.1208L110.682 23.9204L106.717 21.5286Z" fill="#7F7F7F"/>
<path d="M107.049 20.8436L111.014 14.3516L121.917 20.8436L126.873 23.5771L122.908 30.4108L118.283 27.6773L113.327 36.5611L106.719 32.8026L112.005 23.5771L107.049 20.8436Z" fill="#B2B2B2"/>
<path d="M107.709 19.8169L110.352 15.375L120.264 21.5253L126.211 24.9422L123.568 29.3841L117.951 25.6256L112.335 35.8761L108.039 33.4843L113.656 23.2338L107.709 19.8169Z" fill="#E5E5E5"/>
<path d="M108.701 18.4506L109.362 16.7422L118.283 21.8675L125.221 26.3094L124.56 27.6761L117.291 23.5759L110.684 35.1932L109.362 34.1682L115.639 22.5508L108.701 18.4506Z" fill="white"/>
<path d="M106.717 21.5234L110.682 23.9152L106.057 32.1157" stroke="black" stroke-width="0.671987"/>
<path d="M113.986 36.9036L118.612 28.7031L122.577 31.0949" stroke="black" stroke-width="0.671987"/>
<path d="M127.203 22.8953L123.238 20.5035L111.344 13.3281" stroke="black" stroke-width="0.671987"/>
</g>
<defs>
<clipPath id="clip0_2122_160792">
<rect width="150" height="150" fill="white"/>
</clipPath>
</defs>
</svg>
