<svg width="150" height="150" viewBox="0 0 150 150" fill="none" xmlns="http://www.w3.org/2000/svg">
<g clip-path="url(#clip0_2122_159556)">
<path d="M89.0399 0.351562H74.9258V149.648H89.0399V0.351562Z" fill="#E0E0E0" stroke="black" stroke-width="0.324986"/>
<path d="M89.0391 23.0391H117.718L108.408 126.966H89.0391V23.0391Z" fill="#E0E0E0" stroke="black" stroke-width="0.324986"/>
<path d="M108.408 124.152L113.964 63.132L118.919 62.2527L128.228 58.0323L135.435 55.2188V116.063L127.327 119.756L116.066 124.152H108.408Z" fill="#E0E0E0" stroke="black" stroke-width="0.324986"/>
<path d="M149.55 23.5625H135.436V149.647H149.55V23.5625Z" fill="#E0E0E0" stroke="black" stroke-width="0.324986"/>
<path d="M60.8105 0.351562H74.9247V149.648H60.8105V0.351562Z" fill="#E0E0E0" stroke="black" stroke-width="0.324986"/>
<path d="M60.8115 23.0391H32.1328L41.4421 126.966H60.8115V23.0391Z" fill="#E0E0E0" stroke="black" stroke-width="0.324986"/>
<path d="M41.4411 124.152L35.8855 63.132L30.9306 62.2527L21.6213 58.0323L14.4141 55.2188V116.063L22.5222 119.756L33.7834 124.152H41.4411Z" fill="#E0E0E0" stroke="black" stroke-width="0.324986"/>
<path d="M0.300781 23.5625H14.4149V149.647H0.300781V23.5625Z" fill="#E0E0E0" stroke="black" stroke-width="0.324986"/>
<path d="M60.8105 137.867H74.4742V149.122H60.8105V137.867Z" fill="#B2B2B2"/>
<path d="M1.20117 138.742H13.2132V149.645H1.20117V138.742Z" fill="#B2B2B2"/>
<path d="M41.1408 124.151L39.7894 110.787L14.4141 107.094V117.469L22.5222 120.81L33.7834 124.151H41.1408Z" fill="#B2B2B2"/>
<path d="M40.2402 112.719H60.8108V126.435H41.8919L40.2402 112.719Z" fill="#B2B2B2"/>
<path d="M88.5882 137.867H75.375V149.122H88.5882V137.867Z" fill="#B2B2B2"/>
<path d="M148.648 138.742H136.186V149.645H148.648V138.742Z" fill="#B2B2B2"/>
<path d="M108.709 124.151L110.06 110.787L135.436 107.094V117.469L127.328 120.81L116.066 124.151H108.709Z" fill="#B2B2B2"/>
<path d="M109.61 112.719H89.0391V126.435H107.958L109.61 112.719Z" fill="#B2B2B2"/>
<path d="M64.8652 67.528H65.616L67.7181 73.1552H82.583L82.1325 65.9453L86.637 74.562L82.1325 83.0028L82.583 75.9688H67.7181L65.616 81.596H64.8652L66.0664 74.562L64.8652 67.528Z" fill="black" stroke="black" stroke-width="0.324986"/>
<path d="M44.7441 126.961H54.3538V131.709H53.1525V133.116H45.9453V131.709H44.7441V126.961Z" fill="#7F7F7F"/>
<path d="M55.5555 14.5938H53.6035V7.91146H55.5555V4.57031H60.8107V18.2866H55.5555V14.5938Z" fill="#7F7F7F"/>
<path d="M55.5555 53.633H53.6035V46.599H55.5555V43.2578H60.8107V57.5017H55.5555V53.633Z" fill="#7F7F7F"/>
<path d="M55.5555 94.2538H53.6035V87.7474H55.5555V84.4062H60.8107V98.6501H55.5555V94.2538Z" fill="#7F7F7F"/>
<path d="M55.5555 142.441H53.6035V135.935H55.5555V132.594H60.8107V146.31H55.5555V142.441Z" fill="#7F7F7F"/>
<path d="M105.106 126.961H95.4961V131.709H96.6973V133.116H103.905V131.709H105.106V126.961Z" fill="#7F7F7F"/>
<path d="M94.2943 14.5938H96.2463V7.91146H94.2943V4.57031H89.0391V18.2866H94.2943V14.5938Z" fill="#7F7F7F"/>
<path d="M94.2943 53.633H96.2463V46.599H94.2943V43.2578H89.0391V57.5017H94.2943V53.633Z" fill="#7F7F7F"/>
<path d="M94.2943 94.2538H96.2463V87.7474H94.2943V84.4062H89.0391V98.6501H94.2943V94.2538Z" fill="#7F7F7F"/>
<path d="M94.2943 142.441H96.2463V135.935H94.2943V132.594H89.0391V146.31H94.2943V142.441Z" fill="#7F7F7F"/>
<path d="M1.20117 26.375H13.2132V32.8814H1.20117V26.375Z" fill="#F0F0F0"/>
<path d="M61.5625 4.21875H74.4754V13.5388H61.5625V4.21875Z" fill="#F0F0F0"/>
<path d="M56.0059 14.5964H60.0599V7.91406H56.0059V14.5964Z" fill="#F0F0F0"/>
<path d="M56.0059 53.6356H60.0599V46.6016H56.0059V53.6356Z" fill="#F0F0F0"/>
<path d="M56.0059 94.784H60.0599V87.75H56.0059V94.784Z" fill="#F0F0F0"/>
<path d="M56.0059 142.436H60.0599V135.93H56.0059V142.436Z" fill="#F0F0F0"/>
<path d="M47.4473 126.961H51.9518V131.709H47.4473V126.961Z" fill="#F0F0F0"/>
<path d="M46.6967 32.5312L51.5015 34.2897L53.6036 40.0928L51.5015 45.72L46.6967 47.6543L42.1922 45.72L40.2402 40.0928L42.1922 34.2897L46.6967 32.5312Z" fill="#F0F0F0"/>
<path d="M32.582 25.8516H60.3598V32.8856H33.3328L32.582 25.8516Z" fill="#F0F0F0"/>
<path d="M148.648 26.375H136.186V32.8814H148.648V26.375Z" fill="#F0F0F0"/>
<path d="M88.2879 4.21875H75.375V13.5388H88.2879V4.21875Z" fill="#F0F0F0"/>
<path d="M93.8446 14.5964H89.4902V7.91406H93.8446V14.5964Z" fill="#F0F0F0"/>
<path d="M93.8446 53.6356H89.4902V46.6016H93.8446V53.6356Z" fill="#F0F0F0"/>
<path d="M93.8446 94.784H89.4902V87.75H93.8446V94.784Z" fill="#F0F0F0"/>
<path d="M93.8446 142.436H89.4902V135.93H93.8446V142.436Z" fill="#F0F0F0"/>
<path d="M102.403 126.961H97.8984V131.709H102.403V126.961Z" fill="#F0F0F0"/>
<path d="M102.703 32.5312L98.3482 34.2897L96.2461 40.0928L98.3482 45.72L102.703 47.6543L107.658 45.72L109.609 40.0928L107.658 34.2897L102.703 32.5312Z" fill="#F0F0F0"/>
<path d="M116.818 25.8516H89.4902V32.8856H116.517L116.818 25.8516Z" fill="#F0F0F0"/>
<path d="M46.6966 34.8203L49.9999 36.2271L51.2011 40.0958L49.9999 43.7887L46.6966 45.1955L43.8438 43.7887L42.6426 40.0958L43.8438 36.2271L46.6966 34.8203Z" fill="#7F7F7F"/>
<path d="M102.702 34.8203L99.8496 36.2271L98.6484 40.0958L99.8496 43.7887L102.702 45.1955L106.006 43.7887L107.207 40.0958L106.006 36.2271L102.702 34.8203Z" fill="#7F7F7F"/>
</g>
<defs>
<clipPath id="clip0_2122_159556">
<rect width="150" height="150" fill="white"/>
</clipPath>
</defs>
</svg>
