<svg width="150" height="150" viewBox="0 0 150 150" fill="none" xmlns="http://www.w3.org/2000/svg">
<path d="M14.1895 69.3359H22.2976V145.751H14.1895V69.3359Z" fill="#B2B2B2" stroke="black" stroke-width="0.677458"/>
<path d="M127.703 69.3359H135.811V145.751H127.703V69.3359Z" fill="#B2B2B2" stroke="black" stroke-width="0.677458"/>
<path d="M10.1351 75.0021H6.08105V80.6624H10.1351V83.4926H6.08105V89.153H10.1351V91.9832H6.08105V97.6436H10.1351V100.474H6.08105V106.134H10.1351V108.964H6.08105V114.625H10.1351V117.455H6.08105V123.115H10.1351V125.945H6.08105V131.606H10.1351V134.436H6.08105V140.096H10.1351V142.927H139.865V140.096H143.919V134.436H139.865V131.606H143.919V125.945H139.865V123.115H143.919V117.455H139.865V114.625H143.919V108.964H139.865V106.134H143.919V100.474H139.865V97.6436H143.919V91.9832H139.865V89.153H143.919V83.4926H139.865V80.6624H143.919V75.0021H139.865V72.1719H10.1351V75.0021Z" fill="#CCCCCC"/>
<path d="M107.433 38.2109H123.649V72.1732H107.433V38.2109Z" fill="#7F7F7F"/>
<path d="M123.649 38.2045H107.433L106.622 33.6762L105 29.4309L101.757 25.4686L98.1083 22.0724L93.2435 19.5252L87.5678 17.2611L81.4867 16.129L75.0002 15.5629L68.5137 16.129L62.4326 17.2611L56.757 19.5252L52.2975 22.0724L48.2435 25.4686L45.0002 29.4309L43.3786 33.6762L42.5678 38.2045H26.3516L27.1624 31.412L30.0002 24.9026L34.8651 19.2422L40.5408 14.1478L47.838 10.1856L55.9462 6.78936L65.2705 4.80823L75.0002 4.24219L84.7299 4.80823L94.0543 6.78936L102.162 10.1856L109.46 14.1478L115.135 19.2422L120 24.9026L122.838 31.412L123.649 38.2045Z" fill="#7F7F7F"/>
<path d="M26.3516 38.2109H42.5678V72.1732H26.3516V38.2109Z" fill="#7F7F7F"/>
<path d="M109.459 38.2109H121.621V72.1732H109.459V38.2109Z" fill="#B2B2B2"/>
<path d="M121.621 38.2112L120.81 31.7018L117.973 25.4754L113.513 20.098L108.243 15.2867L101.351 11.3244L93.2428 8.21123L84.3239 6.2301L74.9995 5.66406L65.6752 6.2301L56.7563 8.21123L48.6482 11.3244L42.1617 15.2867L36.486 20.098L32.0266 25.4754L29.1887 31.7018L28.3779 38.2112H40.5401L41.3509 33.3999L43.3779 28.8716L46.6212 24.9093L50.6752 21.2301L55.5401 18.3999L61.6212 16.1358L68.1077 14.7207L74.9995 14.1546L81.8914 14.7207L88.3779 16.1358L94.459 18.3999L99.3239 21.2301L103.378 24.9093L106.621 28.8716L108.648 33.3999L109.459 38.2112H121.621Z" fill="#B2B2B2"/>
<path d="M28.3779 38.2109H40.5401V72.1732H28.3779V38.2109Z" fill="#B2B2B2"/>
<path d="M111.486 38.2109H119.594V72.1732H111.486V38.2109Z" fill="#CCCCCC"/>
<path d="M119.594 38.2102L118.784 31.9838L115.946 26.0404L111.892 20.663L106.621 16.1347L99.7296 12.4555L92.4323 9.62529L83.9188 7.64416L74.9999 7.07812L66.0809 7.64416L57.9728 9.62529L50.2701 12.4555L43.7837 16.1347L38.108 20.663L34.0539 26.0404L31.2161 31.9838L30.4053 38.2102H38.5134L39.3242 33.1159L41.3512 28.3045L44.5945 24.0593L49.0539 20.097L54.7296 16.9838L60.8107 14.7196L67.7026 13.3045L74.9999 12.7385L82.2972 13.3045L89.1891 14.7196L95.2701 16.9838L100.54 20.097L105 24.0593L108.649 28.3045L110.676 33.1159L111.486 38.2102H119.594Z" fill="#CCCCCC"/>
<path d="M30.4053 38.2109H38.5134V72.1732H30.4053V38.2109Z" fill="#CCCCCC"/>
<path d="M113.514 38.2109H117.568V72.1732H113.514V38.2109Z" fill="white"/>
<path d="M117.568 38.2092L116.757 32.2658L114.325 26.6054L110.27 21.5111L105 17.2658L98.9191 13.5865L91.6218 10.7563L83.5137 9.05823L75.0002 8.49219L66.4867 9.05823L58.3786 10.7563L51.0813 13.5865L45.0002 17.2658L39.7299 21.5111L35.6759 26.6054L33.2434 32.2658L32.4326 38.2092H36.4867L37.2975 32.8318L39.7299 27.7375L42.9732 23.2092L47.838 19.2469L53.5137 15.8507L60.0002 13.5865L67.2975 11.8884L75.0002 11.3224L82.7029 11.8884L90.0002 13.5865L96.4867 15.8507L102.162 19.2469L107.027 23.2092L110.27 27.7375L112.703 32.8318L113.514 38.2092H117.568Z" fill="white"/>
<path d="M32.4326 38.2109H36.4867V72.1732H32.4326V38.2109Z" fill="white"/>
<path d="M123.649 38.2045V72.1667H107.433V38.2045L106.622 33.6762L105 29.4309L101.757 25.4686L98.1083 22.0724L93.2435 19.5252L87.5678 17.2611L81.4867 16.129L75.0002 15.5629L68.5137 16.129L62.4326 17.2611L56.757 19.5252L52.2975 22.0724L48.2435 25.4686L45.0002 29.4309L43.3786 33.6762L42.5678 38.2045V72.1667H26.3516V38.2045L27.1624 31.412L30.0002 24.9026L34.8651 19.2422L40.5408 14.1478L47.838 10.1856L55.9462 6.78936L65.2705 4.80823L75.0002 4.24219L84.7299 4.80823L94.0543 6.78936L102.162 10.1856L109.46 14.1478L115.135 19.2422L120 24.9026L122.838 31.412L123.649 38.2045Z" stroke="black" stroke-width="0.677458"/>
<path d="M6.08105 134.438H143.919V137.268H6.08105V134.438Z" fill="#E5E5E5"/>
<path d="M6.08105 125.945H143.919V128.776H6.08105V125.945Z" fill="#E5E5E5"/>
<path d="M6.08105 117.453H143.919V120.283H6.08105V117.453Z" fill="#E5E5E5"/>
<path d="M6.08105 108.961H143.919V111.791H6.08105V108.961Z" fill="#E5E5E5"/>
<path d="M6.08105 100.469H143.919V103.299H6.08105V100.469Z" fill="#E5E5E5"/>
<path d="M6.08105 91.9844H143.919V94.8146H6.08105V91.9844Z" fill="#E5E5E5"/>
<path d="M6.08105 83.4922H143.919V86.3224H6.08105V83.4922Z" fill="#E5E5E5"/>
<path d="M6.08105 75H143.919V77.8302H6.08105V75Z" fill="#E5E5E5"/>
<path d="M6.08105 140.096H143.919V137.266H6.08105V140.096Z" fill="#B2B2B2"/>
<path d="M6.08105 80.6583H143.919V77.8281H6.08105V80.6583Z" fill="#B2B2B2"/>
<path d="M6.08105 89.1505H143.919V86.3203H6.08105V89.1505Z" fill="#B2B2B2"/>
<path d="M6.08105 97.6427H143.919V94.8125H6.08105V97.6427Z" fill="#B2B2B2"/>
<path d="M6.08105 106.135H143.919V103.305H6.08105V106.135Z" fill="#B2B2B2"/>
<path d="M6.08105 114.619H143.919V111.789H6.08105V114.619Z" fill="#B2B2B2"/>
<path d="M6.08105 123.111H143.919V120.281H6.08105V123.111Z" fill="#B2B2B2"/>
<path d="M6.08105 131.604H143.919V128.773H6.08105V131.604Z" fill="#B2B2B2"/>
<path d="M10.1351 75.0021H6.08105V80.6624H10.1351V83.4926H6.08105V89.153H10.1351V91.9832H6.08105V97.6436H10.1351V100.474H6.08105V106.134H10.1351V108.964H6.08105V114.625H10.1351V117.455H6.08105V123.115H10.1351V125.945H6.08105V131.606H10.1351V134.436H6.08105V140.096H10.1351V142.927H139.865V140.096H143.919V134.436H139.865V131.606H143.919V125.945H139.865V123.115H143.919V117.455H139.865V114.625H143.919V108.964H139.865V106.134H143.919V100.474H139.865V97.6436H143.919V91.9832H139.865V89.153H143.919V83.4926H139.865V80.6624H143.919V75.0021H139.865V72.1719H10.1351V75.0021Z" stroke="black" stroke-width="0.677458"/>
</svg>
