<svg width="150" height="150" viewBox="0 0 150 150" fill="none" xmlns="http://www.w3.org/2000/svg">
<g clip-path="url(#clip0_2109_210117)">
<path d="M147.273 62.0086V72.3689L104.546 75.2218L74.5456 75.8224L45.4547 75.2218L1.81836 72.3689V62.0086L10.0002 61.2578L20.9093 55.7023V47.8945L10.0002 42.1888L1.81836 41.438V10.6572L12.7274 2.09868L17.2729 1.34793L51.8184 0.447025L74.5456 0.296875L119.091 0.897476L132.727 1.34793L137.273 2.09868L147.273 10.6572V41.438L140 42.1888L128.182 47.8945V55.7023L140 61.2578L147.273 62.0086Z" fill="#333333" stroke="black" stroke-width="0.738918"/>
<path d="M147.272 72.3714L105.454 70.5696V60.3594L147.272 62.011V72.3714Z" fill="#666666"/>
<path d="M147.272 41.442L105.454 39.7903V8.85938L147.272 10.6612V41.442Z" fill="#666666"/>
<path d="M43.6365 39.7903L1.81836 41.442V10.6612L43.6365 8.85938V39.7903Z" fill="#666666"/>
<path d="M43.6365 70.5696L1.81836 72.3714V62.011L43.6365 60.3594V70.5696Z" fill="#666666"/>
<path d="M48.1816 8.2545L49.9998 6.60285L55.4544 4.9512L64.5453 4.0503L74.5453 3.75L84.5453 4.0503L93.6362 4.9512L99.9998 6.60285L101.818 8.2545V40.5368L99.9998 42.1884L94.5453 43.6899L85.4544 44.5908L75.4544 44.8911L65.4544 44.5908L56.3635 43.6899L49.9998 42.1884L48.1816 40.5368V8.2545Z" fill="#E5894C"/>
<path d="M48.1816 60.5123L49.9998 58.8607L55.4544 57.3592L64.5453 56.3081L74.5453 56.0078L84.5453 56.3081L93.6362 57.3592L99.9998 58.8607L101.818 60.5123V70.1219L99.9998 70.5724L85.4544 71.3231H65.4544L49.9998 70.5724L48.1816 70.1219V60.5123Z" fill="#E5894C"/>
<path d="M105.454 70.5696V60.3594" stroke="white" stroke-width="0.738918"/>
<path d="M105.454 39.7903V8.85938" stroke="white" stroke-width="0.738918"/>
<path d="M43.6367 39.7903V8.85938" stroke="white" stroke-width="0.738918"/>
<path d="M43.6367 70.5696V60.3594" stroke="white" stroke-width="0.738918"/>
<path d="M49.0908 134.083L59.0908 74.0234H89.9999L100.909 134.083H49.0908Z" fill="#7F7F7F"/>
<path d="M59.0908 134.083L65.4545 74.0234H83.6363L89.9999 134.083H59.0908Z" fill="#B2B2B2"/>
<path d="M70 134.083L71.8182 74.0234H78.1818L80 134.083H70Z" fill="#E5E5E5"/>
<path d="M69.0908 134.083V74.0234" stroke="white" stroke-width="0.738918"/>
<path d="M49.0908 134.083L59.0908 74.0234H89.9999L100.909 134.083H49.0908Z" stroke="black" stroke-width="0.738918"/>
<path d="M59.0908 149.548L49.0908 134.083L69.0908 118.617H79.9999L100.909 134.083L89.9999 149.548H59.0908Z" fill="#CCCCCC"/>
<path d="M49.0908 134.086H100.909" stroke="black" stroke-width="0.738918"/>
<path d="M50 133.336H100" stroke="black" stroke-width="0.738918"/>
<path d="M50.9092 132.734H99.091" stroke="black" stroke-width="0.738918"/>
<path d="M51.8184 131.984H98.182" stroke="black" stroke-width="0.738918"/>
<path d="M52.7275 131.234H97.273" stroke="black" stroke-width="0.738918"/>
<path d="M53.6367 130.633H95.4549" stroke="black" stroke-width="0.738918"/>
<path d="M54.5459 129.883H94.5459" stroke="black" stroke-width="0.738918"/>
<path d="M55.4541 129.281H93.6359" stroke="black" stroke-width="0.738918"/>
<path d="M57.2725 128.531H92.727" stroke="black" stroke-width="0.738918"/>
<path d="M58.1816 127.781H91.818" stroke="black" stroke-width="0.738918"/>
<path d="M59.0908 127.18H90.909" stroke="black" stroke-width="0.738918"/>
<path d="M60 126.43H90" stroke="black" stroke-width="0.738918"/>
<path d="M60.9092 125.672H89.091" stroke="black" stroke-width="0.738918"/>
<path d="M61.8184 125.078H88.182" stroke="black" stroke-width="0.738918"/>
<path d="M62.7275 124.328H87.273" stroke="black" stroke-width="0.738918"/>
<path d="M63.6367 123.57H86.364" stroke="black" stroke-width="0.738918"/>
<path d="M64.5459 122.977H85.455" stroke="black" stroke-width="0.738918"/>
<path d="M65.4541 122.219H84.545" stroke="black" stroke-width="0.738918"/>
<path d="M67.2725 121.625H82.727" stroke="black" stroke-width="0.738918"/>
<path d="M68.1816 120.867H81.818" stroke="black" stroke-width="0.738918"/>
<path d="M69.0908 120.117H80.909" stroke="black" stroke-width="0.738918"/>
<path d="M70 119.516H80" stroke="black" stroke-width="0.738918"/>
<path d="M53.6367 142.641H95.4549" stroke="black" stroke-width="0.738918"/>
<path d="M54.5459 143.547H94.5459" stroke="black" stroke-width="0.738918"/>
<path d="M55.4541 144.297H94.545" stroke="black" stroke-width="0.738918"/>
<path d="M56.3633 145.195H93.636" stroke="black" stroke-width="0.738918"/>
<path d="M57.2725 146.094H92.727" stroke="black" stroke-width="0.738918"/>
<path d="M58.1816 147H91.818" stroke="black" stroke-width="0.738918"/>
<path d="M59.0908 147.75H90.909" stroke="black" stroke-width="0.738918"/>
<path d="M59.0908 148.648H89.9999" stroke="black" stroke-width="0.738918"/>
<path d="M49.0908 134.086H100.909L95.4545 141.744H53.6363L49.0908 134.086Z" fill="#999999"/>
<path d="M59.0908 149.548L49.0908 134.083L69.0908 118.617H79.9999L100.909 134.083L89.9999 149.548H59.0908Z" stroke="black" stroke-width="0.738918"/>
</g>
<defs>
<clipPath id="clip0_2109_210117">
<rect width="150" height="150" fill="white"/>
</clipPath>
</defs>
</svg>
