<svg width="150" height="150" viewBox="0 0 150 150" fill="none" xmlns="http://www.w3.org/2000/svg">
<g clip-path="url(#clip0_2109_210211)">
<path d="M142.342 140.081L105.856 141.791H144.595V70.8105L142.342 140.081L139.039 138.028V27.5379L136.637 24.1172H145.345L150 33.1822V150.001H7.95788L3.00293 141.791V114.083L4.20413 114.425V122.293L7.95788 123.832V134.607L9.75969 138.028H72.5224V132.384L75.5255 138.028H139.039L142.342 140.081Z" fill="black"/>
<path d="M142.342 140.081L105.856 141.791H144.595V70.8105L142.342 140.081ZM142.342 140.081L139.039 138.028M139.039 138.028V27.5379L136.637 24.1172H145.345L150 33.1822V150.001H7.95788L3.00293 141.791V114.083L4.20413 114.425V122.293L7.95788 123.832V134.607L9.75969 138.028H72.5224V132.384L75.5255 138.028H139.039Z" stroke="black" stroke-width="0.320508"/>
<path d="M142.343 140.083L105.706 141.793H144.595V70.8125L142.343 140.083Z" stroke="black" stroke-width="0.320508"/>
<path d="M48.9489 19.8404L44.1441 18.9852L36.3363 17.1038L28.6787 14.7092L21.1712 11.8016L13.8138 8.38084L6.75676 4.27594L0 0V111.859L4.2042 114.424L10.961 117.503L22.973 121.266L32.4324 124.002L41.7417 126.568L51.3514 128.62L59.009 129.818L66.967 130.331V47.2064L62.9129 46.0091L57.0571 47.2064L55.8559 48.2326L55.5556 49.4299L61.2613 60.5473L60.961 63.2839L60.5105 63.626L58.7087 63.455L57.8078 62.2577L57.958 60.3763L53.7538 52.1665L52.8529 49.4299L55.1051 45.325L61.1111 43.4436L64.2643 43.6146L67.1171 44.4698V20.3535H56.4565L61.1111 29.2474L60.8108 31.984L60.3604 32.3261H58.5586L58.1081 31.813L57.6577 29.9316L57.8078 29.2474L53.3033 20.3535L48.9489 19.8404Z" fill="white" stroke="black" stroke-width="0.320508"/>
<path d="M76.1261 22.2347L76.4264 23.0898L79.4294 29.2472L80.7807 29.4182L81.5315 30.6155L81.6816 32.3259L81.3813 33.1811L79.1291 33.6942L78.5285 33.01L72.6726 36.2597V48.2324L75.2252 51.4821L79.7297 60.376L80.9309 60.7181L81.6816 61.7443L81.9819 63.6258L81.5315 64.4809L79.2792 64.9941L78.6786 64.1389L72.5225 67.7307V132.383H133.934V20.6953H75.2252L76.1261 22.2347Z" fill="white" stroke="black" stroke-width="0.320508"/>
<path d="M77.778 31.4732L72.6729 35.065V21.2109L77.778 31.4732Z" fill="white" stroke="black" stroke-width="0.320508"/>
<path d="M72.5225 51.9922L77.9279 62.7676L72.5225 66.3593V51.9922Z" fill="white" stroke="black" stroke-width="0.320508"/>
<path d="M66.9669 130.327V47.2031L67.7176 47.7162L68.7687 48.2294V48.4004L68.6185 132.893H59.0089L50.4503 132.551L41.8918 132.038L33.3332 130.669L24.6245 128.959L16.2161 126.394L7.95786 123.828L4.2041 122.289V114.421L10.9609 117.5L22.9729 121.262L32.2822 123.999L41.5915 126.565L51.2011 128.617L59.0089 129.814L66.9669 130.327Z" fill="#E0E0E0" stroke="black" stroke-width="0.320508"/>
<path d="M59.1592 132.898L50.4505 132.556L41.8919 132.043L33.3334 130.675L24.6247 128.964L16.2163 126.399L7.95801 123.833V134.608L70.4205 134.95L70.2703 49.4316L69.6697 48.9185L68.7688 48.2344L68.6187 132.898H59.1592Z" fill="#C0C0C0" stroke="black" stroke-width="0.320508"/>
<path d="M70.2703 49.4297L71.6217 50.798L72.5226 51.9953V138.027H9.75981L7.95801 134.606L70.4205 134.949L70.2703 49.4297Z" fill="#C0C0C0" stroke="black" stroke-width="0.320508"/>
<path d="M81.3818 33.1783L80.7812 33.5203L80.1806 33.6914H79.1296L78.529 33.0072L77.7782 31.4679L72.6731 21.2056L71.4719 19.4952L70.2707 18.298L68.4689 16.9297L66.8172 15.9035L64.8653 15.0483L62.7632 14.7062H60.8112L58.7091 15.0483L56.7572 15.9035L55.7061 17.1007L55.2557 18.1269L56.4569 20.3504L61.1115 29.2444L61.2617 30.7837L60.8112 31.981L60.3608 32.3231H59.3097L57.8082 29.2444L53.3037 20.3504L52.8533 19.3242L52.7031 18.1269V17.2718L53.3037 15.7324L53.7542 15.0483H53.9043L54.9554 14.022L56.607 12.9958L58.4088 12.4827L60.9614 12.1406L64.1145 12.3117L66.8172 13.1669L68.0184 13.68L69.5199 14.5352L71.3217 15.7324L72.2226 16.7586L74.0244 18.6401L75.2256 20.6925L76.1265 22.2318L76.4268 23.087L79.4299 29.2444L81.3818 33.1783Z" fill="#FFFF00" stroke="black" stroke-width="0.320508"/>
<path d="M59.3089 32.3287H58.5581L58.1077 31.8156L57.8074 30.9604L57.6572 29.9342L57.8074 29.25L59.3089 32.3287Z" fill="black" stroke="black" stroke-width="0.320508"/>
<path d="M81.3816 33.1839L79.4297 29.25H80.0303L80.781 29.421L81.5318 30.6183L81.6819 31.4735V32.3287L81.3816 33.1839Z" fill="black" stroke="black" stroke-width="0.320508"/>
<path d="M57.9576 60.378L53.7534 52.1682L53.303 50.6289L52.8525 49.4316L53.0027 47.8923L54.0537 46.1819L55.1048 45.3267L56.7564 44.3005L58.5582 43.7874L61.1108 43.4453L64.264 43.6164L67.1168 44.4715L68.6183 45.3267L70.4201 46.353L71.4712 47.2081L72.6724 48.2344L73.8736 49.4316L75.2249 51.4841L79.7294 60.378L81.5312 64.4829L80.33 64.9961H79.279L78.6784 64.1409L77.9276 62.7726L72.5222 51.9972L71.6213 50.7999L70.27 49.4316L68.7685 48.2344L66.9667 47.2081L65.1649 46.353L63.0627 46.0109H60.8105L58.8585 46.353L57.0567 47.2081L55.8555 48.2344L55.5552 49.4316L61.2609 60.5491L61.4111 62.0884L60.9606 63.2857L60.5102 63.6278H59.6093L57.9576 60.378Z" fill="#FFFF00" stroke="black" stroke-width="0.320508"/>
<path d="M78.5287 33.0081L72.6729 36.2578V35.0605L77.778 31.4688L78.5287 33.0081Z" fill="black" stroke="black" stroke-width="0.320508"/>
<path d="M59.6094 63.6247H59.159L58.7085 63.4537L58.2581 62.9406L57.8076 62.2564V61.2302L57.9578 60.375L59.6094 63.6247Z" fill="black" stroke="black" stroke-width="0.320508"/>
<path d="M81.5313 64.4799L79.7295 60.375H80.0298L80.9307 60.7171L81.6814 61.7433L81.9817 62.7695V63.6247L81.5313 64.4799Z" fill="black" stroke="black" stroke-width="0.320508"/>
<path d="M72.5225 67.7335L78.6786 64.1417L77.9279 62.7734L72.5225 66.3652V67.7335Z" fill="black" stroke="black" stroke-width="0.320508"/>
<path d="M67.1172 44.4718L67.5676 44.8139L68.1682 44.9849L68.6187 45.327V22.75H67.1172V44.4718Z" fill="#E0E0E0" stroke="black" stroke-width="0.320508"/>
<path d="M72.6732 29.2483L70.4209 25.4855H68.6191V24.1172H72.6732V29.2483Z" fill="black" stroke="black" stroke-width="0.320508"/>
<path d="M68.6182 45.3247V25.4844H70.42V46.351L69.6692 45.8379L68.6182 45.3247Z" fill="#C0C0C0" stroke="black" stroke-width="0.320508"/>
<path d="M72.6732 48.2324L71.4719 47.2062L70.4209 46.351V25.4844L72.6732 29.2472V48.2324Z" fill="#C0C0C0" stroke="black" stroke-width="0.320508"/>
<path d="M133.934 20.6953V132.383H72.5225L75.5255 138.027H139.039V27.5368L136.637 24.1161L133.934 20.6953Z" fill="#E0E0E0" stroke="black" stroke-width="0.320508"/>
<path d="M80.0303 45.6641H127.928" stroke="black" stroke-width="0.320508"/>
<path d="M4.95508 32.6719L11.4115 36.6057L18.4686 39.5134L25.3755 41.7369L32.883 43.9604L39.9401 45.1576L47.2974 45.6707H51.5016" stroke="black" stroke-width="0.320508"/>
<path d="M6.00586 103.477L13.3632 107.581L21.171 111.515L28.9788 114.423L36.9368 116.989L45.0449 118.87L53.3032 120.409L59.9098 120.922" stroke="black" stroke-width="0.320508"/>
<path d="M80.0303 120.922H127.928" stroke="black" stroke-width="0.320508"/>
<path d="M71.1709 121.781V135.464" stroke="black" stroke-width="0.320508"/>
<path d="M71.7715 136.831V124.688" stroke="black" stroke-width="0.320508"/>
<path d="M135.135 98.5156V133.407" stroke="black" stroke-width="0.320508"/>
<path d="M136.187 134.947V114.594" stroke="black" stroke-width="0.320508"/>
<path d="M137.388 117.5V136.656" stroke="black" stroke-width="0.320508"/>
<path d="M105.706 141.793H144.595L144.445 70.8125L142.343 140.083L105.706 141.793Z" fill="white" stroke="black" stroke-width="0.320508"/>
</g>
<defs>
<clipPath id="clip0_2109_210211">
<rect width="150" height="150" fill="white"/>
</clipPath>
</defs>
</svg>
