<svg width="150" height="150" viewBox="0 0 150 150" fill="none" xmlns="http://www.w3.org/2000/svg">
<g clip-path="url(#clip0_2109_209977)">
<path d="M72.4894 149.847C80.2069 149.847 86.4632 145.555 86.4632 140.26C86.4632 134.964 80.2069 130.672 72.4894 130.672C64.7719 130.672 58.5156 134.964 58.5156 140.26C58.5156 145.555 64.7719 149.847 72.4894 149.847Z" fill="#00FFFF" stroke="black" stroke-width="0.3675"/>
<path d="M85.8079 13.7629L91.7031 14.3814L97.1616 15.4639L106.114 18.866L112.882 23.5052L118.122 29.3814L121.834 36.1856L124.236 43.7629L125.109 47.7835L125.764 52.1134L126.419 56.2887L126.856 60.7732L127.293 65.2577L127.729 69.7423L127.948 74.2268L128.384 78.7113L129.039 83.1959L129.476 87.5258L130.349 91.8557L131.223 96.1856L132.314 100.206L133.843 104.227L137.555 111.495L143.013 117.99L146.288 120.773L150 123.402H0L7.64192 117.526L10.6987 114.278L13.3188 110.722L15.5022 107.165L17.2489 103.299L18.559 99.433L19.6507 95.4124L20.524 91.3917L21.179 87.2165L21.6157 82.8866L21.8341 78.5567L22.0524 70.0515L22.2707 61.5464L22.7074 53.1959L23.5808 45.3093L25.3275 37.8866L28.3843 31.0825L32.7511 25.2062L39.3013 20.2577L47.8166 16.3918L52.8384 14.8454L58.7336 13.7629L59.8253 7.8866L63.1004 3.5567L67.4672 0.927835L72.4891 0L77.5109 0.927835L81.8777 3.40206L84.9345 7.73196L85.8079 13.7629Z" fill="#00FFFF" stroke="black" stroke-width="0.3675"/>
</g>
<defs>
<clipPath id="clip0_2109_209977">
<rect width="150" height="150" fill="white"/>
</clipPath>
</defs>
</svg>
