<svg width="150" height="150" viewBox="0 0 150 150" fill="none" xmlns="http://www.w3.org/2000/svg">
<g clip-path="url(#clip0_2109_209481)">
<path d="M111.262 9.30931H38.5889L39.1895 9.00901L42.3426 7.35736L45.7961 5.85586L49.0994 4.5045L52.5528 3.3033L56.1564 2.25225L59.9102 1.5015L63.5138 0.750751L67.2675 0.3003L71.0213 0H74.9252H78.8291L82.5829 0.3003L86.3366 0.750751L89.9402 1.5015L93.694 2.25225L97.2976 3.3033L100.751 4.5045L104.054 5.85586L107.508 7.35736L110.661 9.00901L111.262 9.30931Z" fill="#FF0000"/>
<path d="M111.261 9.3125L116.816 12.766L122.672 17.1203L124.474 18.6218H102.252L96.396 16.2194L90.5402 14.4176L84.384 13.2164L78.0777 12.4657H73.2729L68.7684 12.766L64.414 13.3666L60.36 14.2675L55.1047 15.6188L50.2999 17.4206L47.7474 18.6218H25.375L30.0297 14.8681L36.0357 10.814L38.5882 9.3125H111.261Z" fill="#FF0000"/>
<path d="M124.474 18.6172L125.375 19.3679L127.928 21.9205L130.48 24.473L132.732 27.1757L133.333 28.0766H116.216L114.714 26.7253L112.312 24.7733L109.91 23.1217L107.357 21.47L104.654 19.9685L102.252 18.6172H124.474Z" fill="#FF0000"/>
<path d="M47.7478 18.6172L46.8469 19.0676L45.7959 19.6682L44.5947 20.2688L43.5436 20.8694L42.4926 21.6202L41.4415 22.2208L40.3905 22.9715L39.3394 23.5721L38.2884 24.3229L37.2373 25.0736L36.1863 25.8244L35.1352 26.7253L36.4866 28.0766H16.5166L17.1172 27.1757L19.3695 24.473L21.922 21.9205L24.4746 19.3679L25.3755 18.6172H47.7478Z" fill="#FF0000"/>
<path d="M133.333 28.0781L134.985 30.0301L137.087 33.0331L139.039 36.0361L139.789 37.3874H124.925L123.123 35.1352L121.171 32.8829L119.069 30.7808L116.967 28.6787L116.216 28.0781H133.333Z" fill="#FF0000"/>
<path d="M36.487 28.0781L45.9464 37.3874H27.9284L26.8774 36.4865L26.1266 37.3874H10.0605L10.8113 36.0361L12.7632 33.0331L14.8654 30.0301L16.517 28.0781H36.487Z" fill="#FF0000"/>
<path d="M139.79 37.3906L140.841 39.1924L142.492 42.3456L143.994 45.799L144.444 46.8501H130.781L129.88 45.1984L128.378 42.4957L126.727 39.9432L125.075 37.5408L124.925 37.3906H139.79Z" fill="#FF0000"/>
<path d="M45.9458 37.3906L55.2551 46.8501H37.3872L27.9277 37.3906H45.9458Z" fill="#FF0000"/>
<path d="M26.126 37.3906L25.8257 37.6909L25.0749 38.8921L24.174 40.0933L23.2731 41.2945L22.5224 42.4957L21.7716 43.6969L21.0209 44.8981L20.2701 46.0993L19.8197 46.8501H5.40527L5.85572 45.799L7.35723 42.3456L9.00888 39.1924L10.0599 37.3906H26.126Z" fill="#FF0000"/>
<path d="M144.445 46.8438L145.346 49.096L146.547 52.5495L147.598 56.1531H134.535L133.634 53.4504L132.433 50.5975L131.232 47.7447L130.781 46.8438H144.445Z" fill="#FF0000"/>
<path d="M55.2556 46.8438L64.715 56.1531H46.9973L37.3877 46.8438H55.2556Z" fill="#FF0000"/>
<path d="M19.8195 46.8438L19.6694 47.2942L19.0688 48.3453L18.4682 49.5465L18.0177 50.7477L17.4171 51.7987L16.9667 52.9999L16.5162 54.2011L16.0658 55.4023L15.7655 56.1531H2.25195L3.303 52.5495L4.50421 49.096L5.40511 46.8438H19.8195Z" fill="#FF0000"/>
<path d="M147.597 56.1562L148.348 59.91L149.099 63.5136L149.249 65.6157H136.636V65.4656L136.186 62.3124L135.435 59.3094L134.534 56.3064V56.1562H147.597Z" fill="#FF0000"/>
<path d="M64.7148 56.1562L74.0241 65.6157H56.4565L46.9971 56.1562H64.7148Z" fill="#FF0000"/>
<path d="M15.7658 56.1562L15.6156 56.4566L15.3153 57.6578L14.8649 58.859L14.5645 59.91L14.2642 61.1112L14.1141 62.3124L13.8138 63.5136L13.5135 64.7148L13.3633 65.6157H0.600586L0.750736 63.5136L1.50149 59.91L2.25224 56.1562H15.7658Z" fill="#FF0000"/>
<path d="M149.249 65.6172L149.55 67.2688L149.85 71.0226V74.9265H137.387V71.7733L137.087 68.47L136.637 65.6172H149.249Z" fill="#FF0000"/>
<path d="M74.0236 65.6172L83.4831 74.9265H66.0657L56.4561 65.6172H74.0236Z" fill="#FF0000"/>
<path d="M13.3634 65.6172V66.0676L13.2132 67.2688L13.0631 68.47L12.9129 69.6712L12.7628 71.0226L12.6126 72.2238L12.4625 73.5751V74.9265H0V71.0226L0.3003 67.2688L0.600601 65.6172H13.3634Z" fill="#FF0000"/>
<path d="M149.85 74.9219V78.8258L149.55 82.5795L149.249 84.2312H136.637L136.787 83.1801L136.937 81.8288L137.087 80.4774L137.237 79.1261L137.387 77.7747V76.2732V74.9219H149.85Z" fill="#FF0000"/>
<path d="M83.4838 74.9219L92.7931 84.2312H75.676L66.0664 74.9219H83.4838Z" fill="#FF0000"/>
<path d="M12.4625 74.9219V78.075L12.7628 81.3783L13.2132 84.2312H0.600601L0.3003 82.5795L0 78.8258V74.9219H12.4625Z" fill="#FF0000"/>
<path d="M149.249 84.2344L149.099 86.3365L148.348 89.9401L147.597 93.6938H134.685L134.835 93.3935L135.135 92.1923L135.435 90.841L135.736 89.6398L136.036 88.2884L136.186 87.0872L136.486 85.7359L136.637 84.3845V84.2344H149.249Z" fill="#FF0000"/>
<path d="M92.7929 84.2344L102.102 93.6938H85.2854L75.6758 84.2344H92.7929Z" fill="#FF0000"/>
<path d="M13.2132 84.2344V84.3845L13.6636 87.5377L14.4144 90.5407L15.3153 93.5437V93.6938H2.25224L1.50149 89.9401L0.750736 86.3365L0.600586 84.2344H13.2132Z" fill="#FF0000"/>
<path d="M147.598 93.6953L146.547 97.2989L145.345 100.752L144.444 103.005H131.081L131.682 101.954L132.132 100.752L132.733 99.5512L133.183 98.35L133.634 97.1488L134.084 95.9476L134.384 94.5962L134.685 93.6953H147.598Z" fill="#FF0000"/>
<path d="M102.102 93.6953L111.561 103.005H94.7446L85.2852 93.6953H102.102Z" fill="#FF0000"/>
<path d="M15.315 93.6953L16.2159 96.398L17.4171 99.2509L18.6183 102.104L19.0688 103.005H5.40511L4.50421 100.752L3.303 97.2989L2.25195 93.6953H15.315Z" fill="#FF0000"/>
<path d="M144.444 103L143.994 104.051L142.492 107.505L140.841 110.658L139.79 112.459H125.525L126.126 111.559L126.877 110.357L127.627 109.156L128.378 107.955L129.129 106.754L129.73 105.553L130.48 104.351L131.081 103.15V103H144.444Z" fill="#FF0000"/>
<path d="M111.562 103L120.871 112.459H104.355L94.7451 103H111.562Z" fill="#FF0000"/>
<path d="M19.0689 103L19.9698 104.652L21.4713 107.354L23.123 109.907L24.7746 112.309L24.9248 112.459H10.0599L9.00888 110.658L7.35723 107.505L5.85572 104.051L5.40527 103H19.0689Z" fill="#FF0000"/>
<path d="M139.79 112.461L139.039 113.812L137.087 116.815L134.985 119.818L133.333 121.77H113.814L104.354 112.461H120.871L123.574 115.013L124.475 113.812L125.376 112.611L125.526 112.461H139.79Z" fill="#FF0000"/>
<path d="M24.9254 112.461L26.7272 114.713L28.6792 116.965L30.7813 119.068L32.8834 121.17L33.6341 121.77H16.517L14.8654 119.818L12.7632 116.815L10.8113 113.812L10.0605 112.461H24.9254Z" fill="#FF0000"/>
<path d="M133.333 121.773L132.732 122.674L130.48 125.377L127.928 127.93L125.375 130.482L124.474 131.233H102.252L103.303 130.632L104.504 130.032L105.555 129.431L106.606 128.83L107.808 128.08L108.859 127.479L109.91 126.728L110.961 125.978L111.862 125.227L112.913 124.476L113.964 123.725L115.015 122.824L113.814 121.773H133.333Z" fill="#FF0000"/>
<path d="M33.6337 121.773L35.1352 123.125L37.5376 125.077L39.94 126.728L42.4926 128.38L45.1953 129.882L47.5977 131.233H25.3755L24.4746 130.482L21.922 127.93L19.3695 125.377L17.1172 122.674L16.5166 121.773H33.6337Z" fill="#FF0000"/>
<path d="M124.474 131.234L119.819 134.988L113.813 139.042L111.261 140.544H38.5882L33.0327 137.09L27.1768 132.736L25.375 131.234H47.5972L53.4531 133.637L59.3089 135.439L65.4651 136.64L71.7714 137.391H76.5762L81.2309 136.94L85.5852 136.339L89.7894 135.439L94.8945 134.087L99.8495 132.285L102.252 131.234H124.474Z" fill="#FF0000"/>
<path d="M111.262 140.539L110.661 140.839L107.508 142.491L104.054 143.993L100.751 145.344L97.2976 146.545L93.694 147.596L89.9402 148.347L86.3366 149.098L82.5829 149.548L78.8291 149.848H74.9252H71.0213L67.2675 149.548L63.5138 149.098L59.9102 148.347L56.1564 147.596L52.5528 146.545L49.0994 145.344L45.7961 143.993L42.3426 142.491L39.1895 140.839L38.5889 140.539H111.262Z" fill="#FF0000"/>
<path d="M74.9249 149.85C116.305 149.85 149.85 116.305 149.85 74.9249C149.85 33.545 116.305 0 74.9249 0C33.545 0 0 33.545 0 74.9249C0 116.305 33.545 149.85 74.9249 149.85Z" stroke="black" stroke-width="0.3003"/>
<path d="M35.1348 26.7252L39.339 23.572L43.5432 20.8693L48.0477 18.4669L52.7023 16.515L57.6573 14.8633L63.0627 13.6621L67.2669 13.0615L71.7714 12.6111L73.2729 12.4609H74.9246H78.0777L84.384 13.2117L90.5402 14.4129L96.396 16.2147L102.102 18.6171L107.357 21.4699L112.312 24.7732L116.967 28.6772L121.171 32.8814L125.075 37.536L128.378 42.491L131.231 47.7462L133.633 53.4519L135.435 59.3078L136.636 65.4639L137.387 71.7702V74.9234V76.2748L136.937 81.8303L136.186 87.0856L135.135 92.1907L133.633 97.1456L131.681 101.95L129.729 105.554L127.627 109.158L125.375 112.611L124.474 113.812L123.573 115.013L35.1348 26.7252Z" stroke="black" stroke-width="0.3003"/>
<path d="M115.015 122.821L110.961 125.974L106.607 128.827L102.103 131.229L97.4479 133.181L92.3428 134.833L86.9374 136.034L82.583 136.785L78.0785 137.235L76.577 137.385H74.9254H71.7722L65.4659 136.635L59.3097 135.433L53.4539 133.632L47.7482 131.229L42.4929 128.376L37.538 125.073L32.8833 121.169L28.6791 116.965L24.7752 112.31L21.4719 107.355L18.619 102.1L16.2166 96.3943L14.4148 90.5384L13.2136 84.3823L12.4629 78.076V74.9228V73.5715L13.0635 68.4664L13.8142 63.5114L14.8653 58.8567L16.5169 54.2021L18.4689 49.5474L21.0214 44.8928L23.2737 41.2892L25.8263 37.6856L26.8773 36.4844L115.015 122.821Z" stroke="black" stroke-width="0.3003"/>
</g>
<defs>
<clipPath id="clip0_2109_209481">
<rect width="150" height="150" fill="white"/>
</clipPath>
</defs>
</svg>
