<svg width="150" height="150" viewBox="0 0 150 150" fill="none" xmlns="http://www.w3.org/2000/svg">
<g clip-path="url(#clip0_2109_209563)">
<path d="M74.625 0L94.7451 53.5941L74.625 82.9281V0Z" fill="#B26600"/>
<path d="M74.625 0.476562L54.5049 54.0706L74.625 83.4047V0.476562Z" fill="#F4C642"/>
<path d="M74.625 0.476562L54.5049 54.0706L74.625 83.4047V0.476562Z" stroke="#B26600" stroke-width="0.308598"/>
<path d="M0 57.0821L54.5045 53.5938L74.6246 82.9278L0 57.0821Z" fill="#F4C642"/>
<path d="M0 57.0821L54.5045 53.5938L74.6246 82.9278L0 57.0821Z" stroke="#B26600" stroke-width="0.308598"/>
<path d="M0 57.0859L42.042 94.1895L74.6246 82.9316L0 57.0859Z" fill="#B26600"/>
<path d="M28.3789 150.002L42.0426 94.1876L74.6252 82.9297L28.3789 150.002Z" fill="#F4C642"/>
<path d="M28.3789 150.002L42.0426 94.1876L74.6252 82.9297L28.3789 150.002Z" stroke="#B26600" stroke-width="0.308598"/>
<path d="M28.3789 150.002L74.6252 119.24V82.9297L28.3789 150.002Z" fill="#B26600"/>
<path d="M120.721 150.002L74.625 119.24V82.9297L120.721 150.002Z" fill="#B26600"/>
<path d="M120.721 150.002L107.208 94.1876L74.625 82.9297L120.721 150.002Z" fill="#F4C642"/>
<path d="M120.721 150.002L107.208 94.1876L74.625 82.9297L120.721 150.002Z" stroke="#B26600" stroke-width="0.308598"/>
<path d="M150 57.0859L107.208 94.1895L74.625 82.9316L150 57.0859Z" fill="#B26600"/>
<path d="M150 57.0821L94.7451 53.5938L74.625 82.9278L150 57.0821Z" fill="#F4C642"/>
<path d="M150 57.0821L94.7451 53.5938L74.625 82.9278L150 57.0821Z" stroke="#B26600" stroke-width="0.308598"/>
</g>
<defs>
<clipPath id="clip0_2109_209563">
<rect width="150" height="150" fill="white"/>
</clipPath>
</defs>
</svg>
