<svg width="150" height="150" viewBox="0 0 150 150" fill="none" xmlns="http://www.w3.org/2000/svg">
<g clip-path="url(#clip0_2109_209391)">
<path d="M150 66.8203V143.697L145.686 150.003H4.31373L0 143.697L0.392157 66.8203H150Z" fill="#CCCCCC"/>
<path d="M112.353 66.8168H133.137V44.5946L129.215 27.7778L116.666 12.9129L96.6662 3.3033L74.7054 0L53.1368 3.3033L33.1368 12.9129L20.5878 27.7778L16.8623 44.5946V66.8168H37.4505V41.2913L40.1956 30.4805L48.0388 20.8709L60.98 14.5646L74.7054 12.9129L88.8231 14.5646L101.764 20.8709L109.607 30.4805L112.353 41.2913V66.8168Z" fill="#B2B2B2" stroke="black" stroke-width="0.343169"/>
<path d="M12.3525 66.8203L41.3721 150.003H91.5682L62.5486 66.8203H12.3525Z" fill="#E5E5E5"/>
<path d="M33.1377 66.8203L62.5495 150.003H70.7848L41.7651 66.8203H33.1377Z" fill="white"/>
<path d="M111.568 117.266H150V130.779H102.549L109.608 122.371L111.568 117.266Z" fill="#4C4C4C"/>
<path d="M109.608 100.749L102.549 92.6406H150V106.154H111.568L109.608 100.749Z" fill="#4C4C4C"/>
<path d="M74.902 130.779C88.6549 130.779 99.8039 122.241 99.8039 111.71C99.8039 101.178 88.6549 92.6406 74.902 92.6406C61.149 92.6406 50 101.178 50 111.71C50 122.241 61.149 130.779 74.902 130.779Z" fill="#4C4C4C"/>
<path d="M38.2353 117.266H0V130.779H46.8627L40.1961 122.371L38.2353 117.266Z" fill="#4C4C4C"/>
<path d="M40.1961 100.749L46.8627 92.6406H0V106.154H38.2353L40.1961 100.749Z" fill="#4C4C4C"/>
<path d="M24.9023 66.8182V41.2927L28.4318 27.1786L39.02 13.9653L56.2749 6.00739L74.7063 3.30469L93.5298 6.00739L110.785 13.9653L121.373 27.1786L124.902 41.2927V66.8182" stroke="white" stroke-width="0.343169"/>
<path d="M150 66.8203V143.697L145.686 150.003H4.31373L0 143.697L0.392157 66.8203H150Z" stroke="black" stroke-width="0.343169"/>
</g>
<defs>
<clipPath id="clip0_2109_209391">
<rect width="150" height="150" fill="white"/>
</clipPath>
</defs>
</svg>
