<svg width="150" height="150" viewBox="0 0 150 150" fill="none" xmlns="http://www.w3.org/2000/svg">
<g clip-path="url(#clip0_2109_209695)">
<path d="M0 84.141L74.9249 0L150 84.141H137.988V150H12.1622V84.141H0Z" fill="#00FFFF" stroke="black" stroke-width="0.363718"/>
<path d="M74.9248 6.60938L15.165 74.2305H135.135L74.9248 6.60938Z" fill="#00FFFF" stroke="black" stroke-width="0.363718"/>
<path d="M135.135 77.3125H15.165V145.154H54.6545V95.8147H95.4954V145.154H135.135V77.3125Z" fill="#00FFFF" stroke="black" stroke-width="0.363718"/>
<path d="M62.0122 113.875H88.1384L89.3396 114.536L89.79 115.857L89.3396 117.399L88.1384 118.06H62.0122L60.9612 117.399L60.5107 115.857L60.9612 114.536L62.0122 113.875Z" fill="#00FFFF" stroke="black" stroke-width="0.363718"/>
<path d="M109.009 106.164H122.522V125.768H109.009V106.164Z" fill="#00FFFF" stroke="black" stroke-width="0.363718"/>
<path d="M107.808 104.406V127.534H123.573V104.406H107.808Z" fill="#00FFFF" stroke="black" stroke-width="0.363718"/>
<path d="M28.0781 106.164V125.768H41.5916V106.164H28.0781Z" fill="#00FFFF" stroke="black" stroke-width="0.363718"/>
<path d="M26.877 104.406H42.6427V127.534H26.877V104.406Z" fill="#00FFFF" stroke="black" stroke-width="0.363718"/>
<path d="M56.7568 145.152V99.1172H93.3935V145.152H56.7568Z" fill="#00FFFF" stroke="black" stroke-width="0.363718"/>
</g>
<defs>
<clipPath id="clip0_2109_209695">
<rect width="150" height="150" fill="white"/>
</clipPath>
</defs>
</svg>
