<svg width="150" height="150" viewBox="0 0 150 150" fill="none" xmlns="http://www.w3.org/2000/svg">
<g clip-path="url(#clip0_2109_209609)">
<path d="M0 74.7541L16.3664 69.6721L4.8048 60.1639L18.4685 63.2787L12.7628 50.4918L23.2733 55.2459L11.5616 34.7541L26.4264 47.7049L24.9249 37.0492L33.3333 42.623L26.8769 28.0328L37.988 38.3607L34.6847 13.9344L46.0961 34.918L48.048 20.8197L56.4565 31.1475L56.6066 20L62.012 30L62.9129 0L67.7177 29.3443L70.7207 19.0164L73.5736 29.0164L77.9279 9.83607L83.4835 30.1639L88.8889 20.4918L90.8408 31.1475L104.955 11.8033L101.201 34.918L109.61 26.0656L108.408 38.6885L115.766 34.918L114.414 43.2787L129.279 31.6393L115.916 49.6721L126.577 44.5902L124.324 53.1148L134.234 50.9836L128.829 63.2787L149.85 59.0164L131.081 72.7869L140.541 79.3443L130.781 81.3115L139.94 88.1967L129.58 89.1803L143.093 97.2131L126.877 96.7213L138.288 107.049L121.471 104.918L134.234 120.984L118.168 108.689L114.414 112.131L120.571 123.279L110.36 115.246L112.913 131.803L105.856 118.033L112.462 150L96.0961 122.623L96.997 135.902L85.8859 125.574L84.6847 147.377L79.4294 126.23L73.5736 126.393L64.8649 146.721L67.7177 126.23L62.012 125.41L54.5045 136.885L53.1532 123.934L43.6937 132.459V120.492L29.5796 139.016L36.7868 115.246L27.3273 120.656L30.3303 110.164L19.8198 119.508L25.6757 104.918L7.65766 110.82L19.3694 94.7541L3.45345 97.0492L16.967 87.541L6.90691 85.7377L15.7658 77.7049L0 74.7541Z" fill="#00FFFF" stroke="black" stroke-width="0.313782"/>
</g>
<defs>
<clipPath id="clip0_2109_209609">
<rect width="150" height="150" fill="white"/>
</clipPath>
</defs>
</svg>
