<svg width="150" height="150" viewBox="0 0 150 150" fill="none" xmlns="http://www.w3.org/2000/svg">
<g clip-path="url(#clip0_2109_209291)">
<path d="M74.8971 150.001C116.262 150.001 149.794 131.582 149.794 108.86C149.794 86.1383 116.262 67.7188 74.8971 67.7188C33.5326 67.7188 0 86.1383 0 108.86C0 131.582 33.5326 150.001 74.8971 150.001Z" fill="#B2B2B2"/>
<path d="M74.8974 141.595C111.603 141.595 141.358 125.326 141.358 105.258C141.358 85.1902 111.603 68.9219 74.8974 68.9219C38.1921 68.9219 8.43652 85.1902 8.43652 105.258C8.43652 125.326 38.1921 141.595 74.8974 141.595Z" fill="#8A8A8A"/>
<path d="M75.1024 132.88C106.921 132.88 132.716 118.83 132.716 101.499C132.716 84.1671 106.921 70.1172 75.1024 70.1172C43.2836 70.1172 17.4893 84.1671 17.4893 101.499C17.4893 118.83 43.2836 132.88 75.1024 132.88Z" fill="#616161"/>
<path d="M74.6909 111.563C104.01 111.563 127.777 98.5214 127.777 82.4338C127.777 66.3462 104.01 53.3047 74.6909 53.3047C45.3721 53.3047 21.6045 66.3462 21.6045 82.4338C21.6045 98.5214 45.3721 111.563 74.6909 111.563Z" fill="#00007F"/>
<path d="M74.8975 109.156C102.512 109.156 124.897 97.0552 124.897 82.1286C124.897 67.202 102.512 55.1016 74.8975 55.1016C47.2832 55.1016 24.8975 67.202 24.8975 82.1286C24.8975 97.0552 47.2832 109.156 74.8975 109.156Z" fill="#0000AD"/>
<path d="M74.8975 104.352C99.1025 104.352 118.725 94.0668 118.725 81.3792C118.725 68.6916 99.1025 58.4062 74.8975 58.4062C50.6924 58.4062 31.0703 68.6916 31.0703 81.3792C31.0703 94.0668 50.6924 104.352 74.8975 104.352Z" fill="#0000C2"/>
<path d="M74.6917 99.5532C95.374 99.5532 112.14 91.1501 112.14 80.7844C112.14 70.4187 95.374 62.0156 74.6917 62.0156C54.0095 62.0156 37.2432 70.4187 37.2432 80.7844C37.2432 91.1501 54.0095 99.5532 74.6917 99.5532Z" fill="#0000F0"/>
<path d="M101.44 75.5287V20.2734H48.3535V75.5287L49.5881 79.883L52.8803 83.7869L58.0243 86.9401L64.6087 89.0422L72.0161 90.0933L74.691 90.2434L82.7157 89.6428L89.7115 87.6909L95.2671 84.838L99.3823 81.2344L101.234 77.0302L101.44 75.5287Z" fill="#00007F"/>
<path d="M97.3247 75.6771V20.4219H52.4688V22.2237V30.7822L52.6745 36.0375V63.515L52.4688 68.7702V75.6771L53.4976 79.8813L56.3782 83.6351L60.6992 86.6381L66.2548 88.8903L72.4276 89.9414H74.691H77.1601L83.5387 88.8903L89.0943 86.6381L93.621 83.6351L96.2959 79.8813L97.3247 77.1786V75.6771Z" fill="#0000AD"/>
<path d="M88.8891 75.6771V20.4219H61.1113V22.2237V30.7822V36.0375V63.515V68.7702V75.6771L62.1401 81.2327L65.0208 85.7372L69.3418 88.8903L73.2512 89.9414H74.6916H76.1319L81.4817 88.2897L85.5969 84.6861L88.2718 79.8813L88.8891 77.1786V75.6771Z" fill="#0000CC"/>
<path d="M80.0414 75.5287V20.2734H69.3418V77.0302L69.9591 82.5858L71.3994 86.9401L74.6916 90.2434L77.9838 86.9401L79.4241 82.5858L80.0414 77.0302V75.5287Z" fill="#0000FF"/>
<path d="M101.44 75.5287V20.2734H48.3535V75.5287L49.5881 79.883L52.8803 83.787L58.0243 86.9401L64.6087 89.0422L72.0161 90.0933L74.691 90.2434L82.7157 89.6428L89.7115 87.6909L95.2671 84.838L99.3823 81.2344L101.234 77.0302L101.44 75.5287Z" stroke="black" stroke-width="0.35154"/>
<path d="M74.8971 40.5405C95.4657 40.5405 112.14 31.4652 112.14 20.2703C112.14 9.07531 95.4657 0 74.8971 0C54.3285 0 37.6543 9.07531 37.6543 20.2703C37.6543 31.4652 54.3285 40.5405 74.8971 40.5405Z" fill="#0000FF" stroke="black" stroke-width="0.35154"/>
<path d="M74.8967 34.9822C90.6925 34.9822 103.498 28.1253 103.498 19.6669C103.498 11.2085 90.6925 4.35156 74.8967 4.35156C59.1009 4.35156 46.2959 11.2085 46.2959 19.6669C46.2959 28.1253 59.1009 34.9822 74.8967 34.9822Z" fill="#0000E5"/>
<path d="M74.691 29.5767C85.8276 29.5767 94.8556 25.0054 94.8556 19.3665C94.8556 13.7275 85.8276 9.15625 74.691 9.15625C63.5544 9.15625 54.5264 13.7275 54.5264 19.3665C54.5264 25.0054 63.5544 29.5767 74.691 29.5767Z" fill="#0000CC"/>
</g>
<defs>
<clipPath id="clip0_2109_209291">
<rect width="150" height="150" fill="white"/>
</clipPath>
</defs>
</svg>
