<svg width="150" height="150" viewBox="0 0 150 150" fill="none" xmlns="http://www.w3.org/2000/svg">
<g clip-path="url(#clip0_2109_209447)">
<path d="M74.8497 0V9.15916L88.0762 11.8619L92.2846 15.1652V22.0721L88.0762 25.3754L82.0641 27.4775H67.6353L61.6232 25.3754L57.4148 22.0721V15.1652L61.6232 11.8619L74.8497 9.15916V0L60.4208 1.35135L47.7956 5.25526L39.98 11.5616L36.9739 18.7688L23.1463 19.97L10.521 23.8739L2.10421 30.4805L0 37.3874L2.10421 44.5946L10.521 50.9009L23.1463 54.8048L36.9739 56.3063V68.6186H49.5992V87.5375L56.2124 93.8438L49.5992 99.8499L56.2124 106.156L49.5992 112.462L56.2124 118.769L49.5992 125.075L56.2124 131.381L49.5992 137.387L62.2245 143.694L68.8377 150H87.475L100.1 143.694V68.6186H112.124V56.3063L126.553 54.8048L139.178 50.9009L146.994 44.5946L150 37.3874L146.994 30.4805L139.178 23.8739L126.553 19.97L112.124 18.7688L109.719 11.5616L101.904 5.25526L88.6774 1.35135L74.8497 0Z" fill="#B2B200"/>
<path d="M74.8502 27.9311C85.1432 27.9311 93.4874 23.7632 93.4874 18.6218C93.4874 13.4804 85.1432 9.3125 74.8502 9.3125C64.5571 9.3125 56.2129 13.4804 56.2129 18.6218C56.2129 23.7632 64.5571 27.9311 74.8502 27.9311Z" stroke="black" stroke-width="0.424901"/>
<path d="M74.8499 68.6172V149.999H68.8378L62.2246 143.692V68.6172H74.8499Z" fill="#7F7F00"/>
<path d="M49.5996 68.6172H74.8501" stroke="black" stroke-width="0.424901"/>
<path d="M74.8497 0L60.4208 1.35135L47.7956 5.25526L39.98 11.5616L36.9739 18.7688L23.1463 19.97L10.521 23.8739L2.10421 30.4805L0 37.3874L2.10421 44.5946L10.521 50.9009L23.1463 54.8048L36.9739 56.3063V68.6186H49.5992V87.5375L56.2124 93.8438L49.5992 99.8498L56.2124 106.156L49.5992 112.462L56.2124 118.769L49.5992 125.075L56.2124 131.381L49.5992 137.387L62.2245 143.694L68.8377 150H87.475L100.1 143.694V68.6186H112.124V56.3063L126.553 54.8048L139.178 50.9009L146.994 44.5946L150 37.3874L146.994 30.4805L139.178 23.8739L126.553 19.97L112.124 18.7688L109.719 11.5616L101.904 5.25526L88.6774 1.35135L74.8497 0Z" stroke="black" stroke-width="0.424901"/>
</g>
<defs>
<clipPath id="clip0_2109_209447">
<rect width="150" height="150" fill="white"/>
</clipPath>
</defs>
</svg>
