<svg width="150" height="150" viewBox="0 0 150 150" fill="none" xmlns="http://www.w3.org/2000/svg">
<g clip-path="url(#clip0_2109_209988)">
<path d="M124.281 27.3245V56.926L129.872 54.0797L135.144 57.4953L136.901 60.9108L138.019 65.7495L136.581 77.4193L119.489 136.053L115.495 145.161L110.543 149.431L107.987 150L105.431 149.431L100.639 146.015L96.9649 139.753L95.0479 131.214L95.3674 120.968L98.5623 110.152L116.294 69.7343V27.3245H83.0671V56.926L88.8179 54.9336L93.77 58.6338L95.3674 62.6186L95.2077 74.0038L93.131 81.6888L72.2045 137.192L67.5719 145.446L62.3003 149.146L57.1885 148.577L52.5559 144.592L49.2013 137.761L47.6038 128.937L48.5623 118.975L52.3962 108.159L74.2812 66.3188V27.3245H42.3323V54.9336L46.3259 53.2258L52.0767 55.7875L53.5144 59.7723V70.8729L51.5974 77.9886L48.5623 85.389L23.3227 139.184L18.2109 146.869L12.9393 149.715L7.98722 148.577L3.83387 143.738L0.958466 136.907L0.319489 132.638L0 128.083L0.319489 123.529L3.03514 113.852L5.43131 109.298L33.2268 63.1879V27.3245H2.07668V0H150V27.3245H124.281Z" fill="#00FFFF" stroke="black" stroke-width="0.426465"/>
<path d="M105.272 111.292L103.355 111.862L101.757 113.285L100.32 114.993L99.2014 117.554L98.4026 120.116L97.9234 123.247L97.7637 126.662L97.9234 130.078L98.5624 133.494L99.5209 136.34L100.639 138.902L102.077 141.179L103.674 142.886L105.431 144.025L107.189 144.594H109.106L111.022 143.74L112.78 142.032L114.217 140.04L115.336 137.763L116.134 134.917L116.614 131.786L116.773 128.37L116.614 124.955L115.975 121.824L115.016 118.977L113.738 116.416L112.46 114.139L110.703 112.431L108.946 111.577L107.189 111.008L105.272 111.292Z" fill="#00FFFF" stroke="black" stroke-width="0.426465"/>
<path d="M12.1407 144.307C17.346 144.307 21.5657 137.044 21.5657 128.083C21.5657 119.123 17.346 111.859 12.1407 111.859C6.9355 111.859 2.71582 119.123 2.71582 128.083C2.71582 137.044 6.9355 144.307 12.1407 144.307Z" fill="#00FFFF" stroke="black" stroke-width="0.426465"/>
<path d="M59.2653 110.719L57.3483 111.003L55.7509 112.142L54.1535 113.565L52.8755 115.842L51.917 118.404L51.2781 121.25L50.7988 124.381V127.512L51.2781 130.927L52.0768 133.774L53.0352 136.62L54.4729 138.897L55.9106 140.605L57.6678 142.028L59.5848 142.882H61.5017L63.4186 142.597L65.0161 141.459L66.6135 140.036L67.8915 137.759L68.8499 135.197L69.4889 132.351L69.8084 129.22V126.089L69.4889 122.673L68.6902 119.827L67.7317 116.981L66.294 114.704L64.8563 112.996L63.0991 111.573L61.1822 110.719H59.2653Z" fill="#00FFFF" stroke="black" stroke-width="0.426465"/>
<path d="M4.15332 23.3369H147.604V4.83594H4.15332V23.3369Z" fill="#00FFFF" stroke="black" stroke-width="0.426465"/>
</g>
<defs>
<clipPath id="clip0_2109_209988">
<rect width="150" height="150" fill="white"/>
</clipPath>
</defs>
</svg>
