<svg width="150" height="150" viewBox="0 0 150 150" fill="none" xmlns="http://www.w3.org/2000/svg">
<g clip-path="url(#clip0_2109_210246)">
<path d="M69.9698 0.344037L71.3211 0H72.8226H73.7235H74.6244H76.7265H78.228L79.5794 0.344037L80.6304 1.72018L81.3812 3.61239L81.8316 6.19266L81.9818 7.74083L81.8316 9.46101L81.5313 11.3532L81.231 13.2454L80.7806 14.9656L80.3301 16.5138L79.5794 18.406L79.2791 19.9541L79.4292 22.0183L79.8797 23.3945L80.6304 24.2546H81.5313V28.383H74.6244H68.0178V24.2546H68.9187L69.8196 22.7064L70.2701 20.9862L69.9698 18.75L69.219 16.5138L68.7686 14.9656L68.3181 13.2454L67.8677 11.3532L67.5674 9.46101V7.74083V5.84862L68.3181 3.09633L69.0689 1.37615L69.9698 0.344037Z" fill="#7F7F02"/>
<path d="M77.1768 1.375L78.378 2.75115L78.9786 4.47133L79.5792 6.87959L79.7294 8.25573L79.5792 9.8039L79.2789 11.5241L78.8285 13.2443L78.378 14.7924L77.6273 17.3727L76.8765 19.4369V21.5011L77.327 23.2213L78.2279 24.7695L78.6783 25.2856H79.7294V27.1778H77.1768V25.4576L75.8255 24.0814L75.0747 22.0172L74.7744 20.9851L75.0747 18.9209L75.375 18.2328L76.2759 16.1686L77.1768 14.1044L77.9276 11.6961L78.5282 9.45986L78.8285 7.22362L78.6783 5.1594L78.2279 3.09518L77.1768 1.375Z" fill="#FFFFBF"/>
<path d="M74.6246 114.219H19.5195L13.5135 127.12L0.750751 141.398L0 149.999H150L148.799 141.398L136.036 127.12L130.03 114.219H74.6246Z" fill="#7F7F02"/>
<path d="M24.1745 121.792L115.015 125.232L21.4718 128.501L116.967 131.941L17.1174 135.381L126.427 138.822L8.1084 142.09L141.592 145.53L141.141 139.166L130.781 128.329L126.427 118.352L24.1745 121.792Z" fill="#FFFFBF"/>
<path d="M20.1201 108.54L20.5706 102.003L22.2222 97.0147L23.4234 95.2945L23.5736 86.8656L24.1742 79.4688L24.7748 72.7601L25.8258 66.9115L27.027 61.5789L28.5285 57.1064L30.9309 51.4298L33.6336 46.7853L36.4865 43.1729L40.5405 39.5606L44.5946 37.1523L48.1982 35.2601L52.8528 33.884L57.2072 33.1959L61.7117 32.8518L67.1171 32.5078H68.9189H69.97H70.7207H75.5255H81.2312L86.4865 32.6798L90.991 33.0239L95.3453 33.7119L100.3 34.9161L104.655 37.1523L108.709 39.5606L112.763 43.1729L115.766 46.7853L118.318 51.4298L120.871 57.1064L122.222 61.5789L123.423 66.9115L124.474 72.7601L125.225 79.4688L125.676 86.8656L125.826 95.2945L128.078 99.2509L128.979 104.584L129.129 106.992V108.54H20.1201Z" fill="#7F7F02"/>
<path d="M98.3483 105.275L31.6816 101.146L105.856 96.8456L34.3843 92.7172L106.456 88.5887L34.084 84.4603L105.556 80.1598L34.3843 76.0314L105.255 71.7309L36.1861 67.6025L104.354 63.4741L37.6876 59.3456L101.952 55.0452L41.7417 50.9167L98.9489 46.7883L49.5495 42.4878L98.048 38.3594L98.9489 38.7034L102.853 40.7676L107.057 43.6919L110.961 47.6484L113.814 51.7768L116.216 56.9374L118.318 63.302L119.519 68.2906L120.27 73.9672L120.871 80.5039L121.171 87.7286L121.021 95.8135L123.423 100.114L124.324 104.07V104.586V105.102L124.174 105.275H111.261H98.3483Z" fill="#FFFFBF"/>
</g>
<defs>
<clipPath id="clip0_2109_210246">
<rect width="150" height="150" fill="white"/>
</clipPath>
</defs>
</svg>
