<svg width="150" height="150" viewBox="0 0 150 150" fill="none" xmlns="http://www.w3.org/2000/svg">
<g clip-path="url(#clip0_2109_209943)">
<path d="M74.9246 145.938C114.065 145.938 145.795 114.177 145.795 74.9966C145.795 35.8165 114.065 4.05469 74.9246 4.05469C35.7837 4.05469 4.05371 35.8165 4.05371 74.9966C4.05371 114.177 35.7837 145.938 74.9246 145.938Z" fill="#00FFFF" stroke="black" stroke-width="0.300451"/>
<path d="M74.9249 150C116.305 150 149.85 116.421 149.85 75C149.85 33.5786 116.305 0 74.9249 0C33.545 0 0 33.5786 0 75C0 116.421 33.545 150 74.9249 150Z" fill="#00FFFF" stroke="black" stroke-width="0.300451"/>
<path d="M46.997 24.502L44.4444 26.1553L40.2402 19.6924L42.9429 18.0391L46.997 24.502Z" fill="#00FFFF" stroke="black" stroke-width="0.300451"/>
<path d="M27.4777 43.8915L25.3756 46.146L19.6699 41.0358L21.772 38.7812L27.4777 43.8915Z" fill="#00FFFF" stroke="black" stroke-width="0.300451"/>
<path d="M18.9192 107.012L17.2676 104.457L23.5739 100.398L25.0754 102.954L18.9192 107.012Z" fill="#00FFFF" stroke="black" stroke-width="0.300451"/>
<path d="M42.1917 131.364L39.9395 129.561L44.444 123.398L46.9965 125.352L42.1917 131.364Z" fill="#00FFFF" stroke="black" stroke-width="0.300451"/>
<path d="M107.207 130.915L104.805 133.019L100 127.007L102.402 125.203L107.207 130.915Z" fill="#00FFFF" stroke="black" stroke-width="0.300451"/>
<path d="M132.582 106.259L130.78 108.514L124.774 104.005L126.576 101.75L132.582 106.259Z" fill="#00FFFF" stroke="black" stroke-width="0.300451"/>
<path d="M125.826 48.3982L123.874 45.8431L130.18 41.4844L131.832 43.8892L125.826 48.3982Z" fill="#00FFFF" stroke="black" stroke-width="0.300451"/>
<path d="M106.907 28.1028L104.805 25.9986L110.06 20.4375L112.162 22.692L106.907 28.1028Z" fill="#00FFFF" stroke="black" stroke-width="0.300451"/>
<path d="M8.25831 76.8045H10.8109V76.9548L11.5616 77.4057L12.913 76.8045L13.3634 75.4517L11.8619 76.0529L10.0601 75.9026L8.55861 74.8505L7.95801 73.0469L8.25831 71.6942L8.85891 70.7924L10.0601 70.0409L11.7118 69.8906L13.6637 70.1912L15.0151 71.2433L15.7658 72.7463L15.916 73.7984V75.0008L15.4655 76.9548L14.7148 78.3075L13.5136 79.059L11.8619 79.3596L10.3604 79.2093L8.55861 77.8566L8.25831 76.8045Z" fill="#00FFFF" stroke="black" stroke-width="0.300451"/>
<path d="M133.484 73.3498L133.784 71.9971L134.535 71.0953L135.736 70.4941L137.388 70.3438L139.49 70.7947L140.541 72.1474L140.691 72.8989L140.241 74.1013L139.79 74.5522L140.541 75.1534L140.991 75.9049L140.691 77.7085L140.241 78.6103L139.49 79.2115L137.238 79.6624L135.586 79.5121L134.235 78.7606L133.484 77.7085L133.184 76.3558H136.036L136.187 77.5582L136.637 78.0091L137.238 77.8588L138.439 76.3558V75.9049L136.637 75.454V74.1013H137.087L137.988 73.3498V72.7486L137.688 72.5983H136.487L136.187 72.8989L136.036 73.3498H133.484Z" fill="#00FFFF" stroke="black" stroke-width="0.300451"/>
<path d="M74.0238 136.771L75.9757 135.869L76.8766 135.719L77.6274 135.869L78.228 136.32L78.9787 137.974L79.1289 139.026L78.9787 140.529L78.228 141.431L77.1769 142.032L75.6754 142.182L73.7235 141.881L72.3721 141.13L71.7715 140.529L71.321 138.875L71.1709 137.823L71.4712 135.719L72.2219 134.366L73.4232 133.465L74.3241 133.164H75.225L76.5763 133.314L77.6274 133.765L78.3781 134.517L78.8286 135.569L76.276 135.719L75.9757 135.118H74.6244L74.3241 135.419L74.0238 136.771Z" fill="#00FFFF" stroke="black" stroke-width="0.300451"/>
<path d="M75.2256 11.7203L75.5259 10.067L76.2766 8.8646L77.4778 8.1131L79.1295 7.8125L80.631 7.9628L81.8322 8.7143L82.4328 9.76641L82.5829 11.4197L81.5319 12.7724L80.1805 13.6742L78.5289 14.7263H82.4328V16.9808H75.2256L75.5259 15.1772L76.1265 14.2754L77.3277 13.3736L78.3787 12.6221L79.2796 12.0209L79.8802 10.6682V10.5179L79.2796 10.2173H78.3787L77.9283 10.5179L77.628 11.7203H75.2256Z" fill="#00FFFF" stroke="black" stroke-width="0.300451"/>
<path d="M68.7686 9.91857L69.8196 9.61797L70.5704 9.16707L71.0208 8.56587L71.3211 7.66406H73.5734V16.9827H70.8707V11.8725H68.7686V9.91857Z" fill="#00FFFF" stroke="black" stroke-width="0.300451"/>
<path d="M72.5225 77.1071L74.024 24.3516H75.8258L76.7267 77.1071H72.5225Z" fill="#00FFFF" stroke="black" stroke-width="0.300451"/>
<path d="M11.8623 74.2486C12.5257 74.2486 13.0635 73.7102 13.0635 73.0462C13.0635 72.3821 12.5257 71.8438 11.8623 71.8438C11.1989 71.8438 10.6611 72.3821 10.6611 73.0462C10.6611 73.7102 11.1989 74.2486 11.8623 74.2486Z" fill="#00FFFF" stroke="black" stroke-width="0.300451"/>
<path d="M75.2256 140.381C75.889 140.381 76.4268 139.843 76.4268 139.179C76.4268 138.515 75.889 137.977 75.2256 137.977C74.5622 137.977 74.0244 138.515 74.0244 139.179C74.0244 139.843 74.5622 140.381 75.2256 140.381Z" fill="#00FFFF" stroke="black" stroke-width="0.300451"/>
</g>
<defs>
<clipPath id="clip0_2109_209943">
<rect width="150" height="150" fill="white"/>
</clipPath>
</defs>
</svg>
