<svg width="150" height="150" viewBox="0 0 150 150" fill="none" xmlns="http://www.w3.org/2000/svg">
<g clip-path="url(#clip0_2109_210188)">
<path d="M58.6762 128.825L57.1717 127.023L35.8076 148.195L37.4626 149.996L58.6762 128.825Z" fill="#00FFFF" stroke="black" stroke-width="0.300601"/>
<path d="M56.5698 126.425L54.7644 124.773L33.7012 146.095L35.2057 147.596L56.5698 126.425Z" fill="#00FFFF" stroke="black" stroke-width="0.300601"/>
<path d="M54.313 124.173L52.5076 122.672L31.2939 143.843L33.0994 145.495L54.313 124.173Z" fill="#00FFFF" stroke="black" stroke-width="0.300601"/>
<path d="M51.9057 122.075L50.4012 120.273L29.0371 141.445L30.6921 143.246L51.9057 122.075Z" fill="#00FFFF" stroke="black" stroke-width="0.300601"/>
<path d="M49.7993 119.817L48.1443 118.016L26.9307 139.337L28.4352 140.838L49.7993 119.817Z" fill="#00FFFF" stroke="black" stroke-width="0.300601"/>
<path d="M47.5425 117.416L45.7371 115.914L24.5234 137.085L26.3289 138.887L47.5425 117.416Z" fill="#00FFFF" stroke="black" stroke-width="0.300601"/>
<path d="M45.1352 115.316L43.6307 113.664L22.2666 134.685L23.9216 136.487L45.1352 115.316Z" fill="#00FFFF" stroke="black" stroke-width="0.300601"/>
<path d="M43.0288 113.064L41.3738 111.562L20.1602 132.734L21.6647 134.085L43.0288 113.064Z" fill="#00FFFF" stroke="black" stroke-width="0.300601"/>
<path d="M40.772 110.958L38.9666 109.156L17.7529 130.327L19.5583 132.129L40.772 110.958Z" fill="#00FFFF" stroke="black" stroke-width="0.300601"/>
<path d="M38.3647 108.558L36.8602 106.906L15.4961 127.927L17.1511 129.729L38.3647 108.558Z" fill="#00FFFF" stroke="black" stroke-width="0.300601"/>
<path d="M36.2592 106.306L34.6043 104.805L13.3906 125.976L15.196 127.628L36.2592 106.306Z" fill="#00FFFF" stroke="black" stroke-width="0.300601"/>
<path d="M34.0025 104.208L32.197 102.406L10.9834 123.577L12.7888 125.379L34.0025 104.208Z" fill="#00FFFF" stroke="black" stroke-width="0.300601"/>
<path d="M31.8961 101.8L30.0907 100.148L8.72656 121.169L10.532 122.971L31.8961 101.8Z" fill="#00FFFF" stroke="black" stroke-width="0.300601"/>
<path d="M29.6392 99.5484L27.8338 98.0469L6.62012 119.218L8.42553 120.87L29.6392 99.5484Z" fill="#00FFFF" stroke="black" stroke-width="0.300601"/>
<path d="M27.2319 97.4502L25.4265 95.6484L4.36328 116.82L6.01825 118.621L27.2319 97.4502Z" fill="#00FFFF" stroke="black" stroke-width="0.300601"/>
<path d="M25.1254 95.1924L23.4705 93.3906L2.25684 114.712L3.76135 116.213L25.1254 95.1924Z" fill="#00FFFF" stroke="black" stroke-width="0.300601"/>
<path d="M22.8686 92.7906L21.0632 91.2891L0 112.46L1.65496 114.112L22.8686 92.7906Z" fill="#00FFFF" stroke="black" stroke-width="0.300601"/>
<path d="M139.468 0L150 10.3604L91.0227 69.3694L100.953 87.8378L78.0839 110.661L39.5684 71.9219L62.1361 49.3994L80.6416 58.4084L139.468 0Z" fill="#00FFFF" stroke="black" stroke-width="0.300601"/>
<path d="M37.7633 73.7266L76.2789 112.465L60.4815 128.231L21.665 89.4923L37.7633 73.7266Z" fill="#00FFFF" stroke="black" stroke-width="0.300601"/>
<path d="M38.0643 78.6797L26.3291 90.3914L59.8798 124.175L71.615 112.463L38.0643 78.6797Z" fill="#00FFFF" stroke="black" stroke-width="0.300601"/>
</g>
<defs>
<clipPath id="clip0_2109_210188">
<rect width="150" height="150" fill="white"/>
</clipPath>
</defs>
</svg>
