<svg width="150" height="150" viewBox="0 0 150 150" fill="none" xmlns="http://www.w3.org/2000/svg">
<g clip-path="url(#clip0_2109_209644)">
<path d="M131.672 19.6735L136.334 13.3672H150V150.004H6.10938V79.4333L12.5402 93.0969V143.848H143.408V19.6735H131.672Z" fill="#FF3F00"/>
<path d="M109.968 19.6735H12.5402V53.7576H6.10938V13.3672H117.363L109.968 19.6735Z" fill="#FF3F00"/>
<path d="M10.6109 56.7568L43.4084 82.8829L137.46 0L140.675 0.750751L140.032 4.35435L38.9068 131.982L34.5659 131.381L0 59.9099L2.09003 56.7568H10.6109Z" fill="#006000"/>
<path d="M9.32464 59.6091L40.5143 90.9904L137.138 2.10156L138.746 2.25171L42.6044 118.918H39.8713L3.8584 59.6091H9.32464Z" fill="#7FFF7F"/>
</g>
<defs>
<clipPath id="clip0_2109_209644">
<rect width="150" height="150" fill="white"/>
</clipPath>
</defs>
</svg>
