<svg width="150" height="150" viewBox="0 0 150 150" fill="none" xmlns="http://www.w3.org/2000/svg">
<g clip-path="url(#clip0_2109_209996)">
<path d="M74.6241 47.0228H72.7444L72.9323 54.1156L71.2406 60.683L39.0977 133.187L35.5263 139.755L31.7669 144.483L27.8195 147.898L23.6842 149.475L19.7368 150L15.7895 149.212L12.0301 147.636L8.64662 144.746L5.6391 141.331L3.19549 137.128L1.31579 132.399L0.18797 127.145L0 121.629L0.56391 116.112L2.44361 110.333L5.26316 104.816L47.3684 37.5657L48.4962 28.3713L50.5639 20.4904L53.1955 13.9229L56.5789 8.669L60.5263 4.72855L64.6617 2.10158L69.1729 0.525394L73.6842 0L78.1955 0.788091L82.5188 2.62697L86.4662 5.77933L90.0376 9.71979L93.2331 14.9737L95.4887 21.0158L96.9925 28.1086L97.5564 36.2522L141.541 95.6217L145.301 101.664L147.932 107.968L149.436 114.011L150 119.79L149.436 125.569L148.12 130.823L146.241 135.289L143.609 139.492L140.414 142.644L136.842 145.009L132.895 146.322H128.759L124.624 145.271L120.301 142.907L115.977 138.704L112.03 133.187L77.8195 60.683L75.5639 55.1664L74.4361 49.9124L74.6241 47.0228Z" fill="#00FFFF" stroke="black" stroke-width="0.444428"/>
<path d="M74.6245 44.3958L77.2561 35.7268L82.3313 30.4728L88.9102 29.9474L92.4816 31.7863L96.0531 34.9387L95.3012 27.3205L93.6095 20.4904L91.3538 14.9737L88.3463 10.2452L84.9628 6.83011L81.0155 4.20314L77.0681 2.62696L72.9328 2.10156L68.7974 2.62696L64.6621 4.20314L60.9027 6.83011L57.3313 10.5079L54.3237 15.2364L51.8801 21.0157L50.1884 27.8459L49.4365 35.7268L52.82 32.5744L56.5794 30.7355L63.9102 31.5236L69.7373 36.5149L72.5568 44.3958H74.6245Z" fill="#00FFFF" stroke="black" stroke-width="0.444428"/>
<path d="M20.3006 143.961C29.7476 143.961 37.4058 134.082 37.4058 121.895C37.4058 109.708 29.7476 99.8281 20.3006 99.8281C10.8536 99.8281 3.19531 109.708 3.19531 121.895C3.19531 134.082 10.8536 143.961 20.3006 143.961Z" fill="#00FFFF" stroke="black" stroke-width="0.444428"/>
<path d="M129.887 140.539C139.438 140.539 147.18 130.66 147.18 118.473C147.18 106.286 139.438 96.4062 129.887 96.4062C120.336 96.4062 112.594 106.286 112.594 118.473C112.594 130.66 120.336 140.539 129.887 140.539Z" fill="#00FFFF" stroke="black" stroke-width="0.444428"/>
</g>
<defs>
<clipPath id="clip0_2109_209996">
<rect width="150" height="150" fill="white"/>
</clipPath>
</defs>
</svg>
