<svg width="150" height="150" viewBox="0 0 150 150" fill="none" xmlns="http://www.w3.org/2000/svg">
<g clip-path="url(#clip0_2109_209859)">
<path d="M64.5349 150H0V74.8908L0.475687 67.2489L1.74419 60.0437L3.96406 53.2751L6.97674 47.1616L10.7822 41.7031L15.0634 37.1179L19.9789 33.4061L25.5285 31.0044L105.603 2.62009L110.835 1.0917L115.275 0.218341L116.385 0L120.666 0.218341L126.85 1.96507L132.558 5.24017L137.949 10.262L142.548 16.8122L146.195 24.0175L148.731 32.0961L149.841 40.6114L150 45.1965V120.087L64.5349 150Z" fill="#7F7F7F" stroke="black" stroke-width="0.372132"/>
<path d="M60.8875 145.2V75.3313L60.4118 67.2527L58.8262 59.8291L56.2892 53.0606L52.6423 46.9471L48.2025 41.9252L43.2871 38.2134L37.896 36.03L32.1877 35.375L26.4795 36.03L21.2469 38.2134L16.49 41.9252L12.0503 47.1654L8.40336 53.2789L5.7078 60.0475L4.12217 67.4711L3.64648 75.3313V145.2H60.8875Z" fill="black" stroke="black" stroke-width="0.372132"/>
<path d="M146.512 116.377V45.1977L146.036 37.3374L144.45 29.9139L141.755 22.927L138.108 16.8134L133.668 11.5732L128.911 7.86146L123.679 5.45971L117.97 4.80469L113.213 5.24137L110.518 6.11473L40.1162 31.6606L45.6659 34.7174L50.5813 38.4291L54.7039 42.796L58.1923 48.0361L60.8879 53.9313L62.9492 60.4815L64.0591 67.6868L64.5348 75.3287V145.198L146.512 116.377Z" fill="black" stroke="black" stroke-width="0.372132"/>
<path d="M109.091 119.215V87.992L70.4014 101.092V85.8086L138.425 62.8828V109.389L109.091 119.215Z" fill="#FF0000" stroke="black" stroke-width="0.372132"/>
<path d="M44.5557 84.5001L36.6276 88.6486H22.357L19.9785 84.5001V72.0547L22.357 75.7665H36.6276L44.5557 72.0547V84.5001Z" fill="white" stroke="black" stroke-width="0.372132"/>
</g>
<defs>
<clipPath id="clip0_2109_209859">
<rect width="150" height="150" fill="white"/>
</clipPath>
</defs>
</svg>
