<svg width="150" height="150" viewBox="0 0 150 150" fill="none" xmlns="http://www.w3.org/2000/svg">
<g clip-path="url(#clip0_2109_210101)">
<path d="M60.7452 50.4639H89.2549V34.6328H105.94V55.0154L126.026 96.5721L127.97 100.926L130.238 106.664L131.857 111.414L132.667 116.361L132.991 122.298L133.153 124.475V150.002H16.8467V126.849L17.3326 119.329L18.6285 111.81L21.0583 104.092L24.2981 96.1763L43.8985 55.0154V34.6328H60.7452V50.4639Z" fill="#00FFFF" stroke="black" stroke-width="0.358081"/>
<path d="M37.419 43.9297V47.6896L37.257 50.6579L37.095 53.4284L36.6091 55.803L36.1231 58.1777L35.3132 60.3545L34.3413 62.3334L33.3693 63.9165L32.0734 65.4996L30.6155 66.6869L28.9957 67.8743L27.0518 68.8637L24.946 69.6553L22.6782 70.249L20.2484 70.6447L17.4946 71.0405H12.635L10.8531 70.8426L9.07127 70.4468L7.4514 70.0511L6.15551 69.6553L4.85961 69.0616L3.07775 67.4785L1.78186 65.3017L1.2959 63.9165L0.809935 62.3334L0.485961 60.5524L0.161987 58.3756L0 56.1988V49.6685L1.94384 50.2621L3.88769 50.6579L5.66955 51.0537L7.4514 51.4495L9.23326 51.6474L11.0151 51.8453L12.635 52.0431H14.2549L17.1706 51.8453L20.2484 51.4495L23.1641 50.8558L26.0799 50.0643L28.8337 48.8769L31.7495 47.4917L34.6652 45.9086L37.419 43.9297Z" fill="#00FFFF" stroke="black" stroke-width="0.358081"/>
<path d="M150 49.0773V53.8266V56.0034L149.838 57.9823L149.514 59.7633L149.19 61.3464L148.704 62.7317L148.218 64.1169L146.76 66.0958L144.978 67.481L143.683 68.0747L142.387 68.6683L140.767 69.0641L138.985 69.262L137.041 69.4599H132.019L129.266 69.0641L126.674 68.6683L124.406 68.0747L122.138 67.2831L120.194 66.4915L118.575 65.3042L116.955 64.1169L115.659 62.7317L114.363 61.1485L113.391 59.3675L112.743 57.3886L112.095 55.2119L111.609 52.8372L111.447 50.2646L111.285 47.6921V43.1406L114.039 44.7237L116.955 46.3069L120.032 47.4942L123.11 48.4836L126.188 49.4731L129.266 50.0667L132.505 50.2646L135.745 50.4625H139.471L141.415 50.2646L143.197 50.0667L144.978 49.8689L146.598 49.671L148.38 49.4731L150 49.0773Z" fill="#00FFFF" stroke="black" stroke-width="0.358081"/>
<path d="M141.091 13.8522L144.168 20.7784L146.598 28.1003L148.542 36.0158L149.352 40.1715L150 44.3272L148.218 44.723L143.035 45.3166L137.689 45.7124L132.991 45.5145L126.998 44.723L120.68 42.7441L114.363 39.9736L111.285 38.3905L110.637 33.0475L107.721 28.8918L104.32 26.5172L99.784 24.7361L94.1145 23.3509L87.149 22.5594L83.4233 22.1636L79.2117 21.9657H70.3024L66.0907 22.1636L58.4773 22.9551L52.1598 24.1425L46.8143 25.7256L42.7646 27.9024L38.7149 32.058L37.419 37.2032V39.1821L31.4255 42.7441L25.594 45.3166L19.6004 46.7018L16.6847 47.0976L13.7689 47.2955H11.987L6.96544 46.7018L1.78186 45.5145L0 44.9208L0.647948 40.9631L2.26782 32.8496L4.53564 25.1319L7.28942 17.81L8.90929 14.0501L12.635 12.2691L16.5227 10.686L20.4104 9.30079L24.2981 7.91557L28.3477 6.53034L32.3974 5.5409L36.4471 4.35356L40.4968 3.56201L44.5464 2.57256L48.7581 1.97889L52.9698 1.38522L57.1814 0.791557L61.5551 0.395778L65.7667 0.197889H68.0346L70.1404 0H72.4082H79.0497L83.5853 0.197889L88.1209 0.395778L92.4946 0.791557L96.8682 1.18734L101.08 1.781L105.292 2.57256L109.503 3.36412L113.553 4.35356L117.765 5.34301L121.652 6.53034L125.702 7.71768L129.59 9.30079L133.477 10.686L137.365 12.2691L141.091 14.0501V13.8522Z" fill="#00FFFF" stroke="black" stroke-width="0.358081"/>
<path d="M86.6631 94.5938V104.29H98.1642V94.5938H86.6631Z" fill="#00FFFF" stroke="black" stroke-width="0.358081"/>
<path d="M71.1123 94.5938V104.29H78.8877V94.5938H71.1123Z" fill="#00FFFF" stroke="black" stroke-width="0.358081"/>
<path d="M51.6738 94.5938V104.29H63.3369V94.5938H51.6738Z" fill="#00FFFF" stroke="black" stroke-width="0.358081"/>
<path d="M86.6631 80.3438V88.4572H98.1642V80.3438H86.6631Z" fill="#00FFFF" stroke="black" stroke-width="0.358081"/>
<path d="M71.1123 80.3438V88.4572H78.8877V80.3438H71.1123Z" fill="#00FFFF" stroke="black" stroke-width="0.358081"/>
<path d="M51.6738 80.3438V88.4572H63.3369V80.3438H51.6738Z" fill="#00FFFF" stroke="black" stroke-width="0.358081"/>
<path d="M86.6631 66.2891V74.2046H98.1642V66.2891H86.6631Z" fill="#00FFFF" stroke="black" stroke-width="0.358081"/>
<path d="M71.1123 66.2891V74.2046H78.8877V66.2891H71.1123Z" fill="#00FFFF" stroke="black" stroke-width="0.358081"/>
<path d="M51.6738 66.2891V74.2046H63.3369V66.2891H51.6738Z" fill="#00FFFF" stroke="black" stroke-width="0.358081"/>
</g>
<defs>
<clipPath id="clip0_2109_210101">
<rect width="150" height="150" fill="white"/>
</clipPath>
</defs>
</svg>
