<svg width="150" height="150" viewBox="0 0 150 150" fill="none" xmlns="http://www.w3.org/2000/svg">
<g clip-path="url(#clip0_2109_209674)">
<path d="M74.9246 3.40625L52.4021 19.0881L57.9576 25.7358H55.2549V45.3381H29.5793V35.1108L3.45312 52.1562H146.546L120.42 34.0881V45.3381H94.294V25.7358H91.7414L97.8976 19.0881L74.9246 3.40625Z" fill="#00FFFF" stroke="black" stroke-width="0.319961"/>
<path d="M50 17.0455L74.9249 0L99.5496 17.0455L107.207 8.86364L122.523 25.3977H120.42V31.3636L150 52.1591V150H0.15015H0V52.1591L29.5796 31.3636V25.3977H27.1772L42.3423 8.86364L50 17.0455Z" fill="#00FFFF" stroke="black" stroke-width="0.319961"/>
<path d="M3.45312 56.7578V146.246H67.1168V115.394H82.8826V146.246H146.546V56.7578H3.45312Z" fill="#00FFFF" stroke="black" stroke-width="0.319961"/>
<path d="M68.4688 116.93V146.248H81.3817V116.93H68.4688Z" fill="#00FFFF" stroke="black" stroke-width="0.319961"/>
<path d="M29.5801 86.4219V115.74H55.5561V86.4219H29.5801Z" fill="#00FFFF" stroke="black" stroke-width="0.319961"/>
<path d="M30.6309 25.3984V44.4893H54.2044V25.3984H30.6309Z" fill="#00FFFF" stroke="black" stroke-width="0.319961"/>
<path d="M30.3301 87.4453V99.718H41.5913V87.4453H30.3301Z" fill="#00FFFF" stroke="black" stroke-width="0.319961"/>
<path d="M30.3301 101.93V114.714H41.5913V101.93H30.3301Z" fill="#00FFFF" stroke="black" stroke-width="0.319961"/>
<path d="M43.5439 87.4453V99.718H54.5049V87.4453H43.5439Z" fill="#00FFFF" stroke="black" stroke-width="0.319961"/>
<path d="M43.5439 101.93V114.714H54.5049V101.93H43.5439Z" fill="#00FFFF" stroke="black" stroke-width="0.319961"/>
<path d="M120.42 86.4219H94.2939V115.74H120.42V86.4219Z" fill="#00FFFF" stroke="black" stroke-width="0.319961"/>
<path d="M118.919 25.3984H95.7959V44.4893H118.919V25.3984Z" fill="#00FFFF" stroke="black" stroke-width="0.319961"/>
<path d="M119.219 87.4453H108.408V99.718H119.219V87.4453Z" fill="#00FFFF" stroke="black" stroke-width="0.319961"/>
<path d="M119.219 101.93H108.408V114.714H119.219V101.93Z" fill="#00FFFF" stroke="black" stroke-width="0.319961"/>
<path d="M106.306 87.4453H95.1953V99.718H106.306V87.4453Z" fill="#00FFFF" stroke="black" stroke-width="0.319961"/>
<path d="M106.306 101.93H95.1953V114.714H106.306V101.93Z" fill="#00FFFF" stroke="black" stroke-width="0.319961"/>
<path d="M29.5801 24.3729H55.5561L42.3428 10.0547L29.5801 24.3729Z" fill="#00FFFF" stroke="black" stroke-width="0.319961"/>
<path d="M94.2939 24.3729H120.42L107.207 10.0547L94.2939 24.3729Z" fill="#00FFFF" stroke="black" stroke-width="0.319961"/>
</g>
<defs>
<clipPath id="clip0_2109_209674">
<rect width="150" height="150" fill="white"/>
</clipPath>
</defs>
</svg>
