<svg width="150" height="150" viewBox="0 0 150 150" fill="none" xmlns="http://www.w3.org/2000/svg">
<g clip-path="url(#clip0_2109_209463)">
<path d="M9.30957 145.692V100.836H65.6159V123.085L37.3876 145.692H9.30957Z" fill="black" stroke="black" stroke-width="0.464248"/>
<path d="M54.5045 109.809L47.4474 110.167L43.5435 110.885L39.3393 111.962L35.2853 113.397L31.0811 114.833L27.027 116.627L19.5195 120.933L13.6637 125.239L9.90991 129.904L9.00901 132.416V134.569L9.90991 136.722L14.2643 137.799L17.8679 137.44L22.0721 136.005L26.7267 134.211L31.8318 132.416L37.0871 130.263L42.4925 127.751L47.5976 125.957L52.5526 124.163L57.0571 122.727L63.964 121.651L66.2162 122.727L67.2673 124.522L67.1171 127.392L62.012 136.364L58.5586 139.593L54.5045 142.464L50 144.976L45.1952 146.77L40.2402 147.847L34.985 148.923L29.7297 149.641L24.6246 150H19.5195H14.7147L10.2102 149.641L2.7027 148.923L0 148.565V33.3732H9.30931V22.2488L14.1141 11.8421L20.1201 4.66507L27.3273 0.717703L31.3814 0H35.5856H39.9399L44.5946 0.358852L49.2492 1.43541L54.2042 2.87081L59.3093 4.66507L64.4144 6.81818L69.5195 8.97129L74.7748 11.1244L80.1802 13.6364L85.4354 16.1483L90.6907 18.3014L95.9459 20.8134L101.201 22.6077L106.456 24.4019L111.562 26.1962L116.517 27.2727L121.321 27.9904L125.976 28.3493H130.631L134.985 27.6316L142.943 24.0431L146.547 21.1722L150 17.5837L110.511 80.3828L150 146.411L141.592 147.847H133.784L126.426 146.77L119.52 144.976L112.913 142.105L106.607 138.876L100.751 135.287L95.045 131.34L89.6396 127.392L84.3844 123.445L79.2793 119.856L74.3243 116.268L69.3694 113.397L64.4144 111.244L59.4595 110.167L54.5045 109.809Z" fill="#00FFFF" stroke="black" stroke-width="0.464248"/>
<path d="M9.30957 33.375V134.571" stroke="black" stroke-width="0.464248"/>
</g>
<defs>
<clipPath id="clip0_2109_209463">
<rect width="150" height="150" fill="white"/>
</clipPath>
</defs>
</svg>
