<svg width="150" height="150" viewBox="0 0 150 150" fill="none" xmlns="http://www.w3.org/2000/svg">
<g clip-path="url(#clip0_2109_209824)">
<path fill-rule="evenodd" clip-rule="evenodd" d="M38.2883 0H39.6396H40.991H42.4925H43.8438L45.1952 0.380711L46.5465 0.761421L47.8979 1.52284L49.2492 1.90355L50.4505 2.66497L51.8018 3.80711L53.1532 4.56853L54.3544 5.32995L55.5556 6.47208L56.9069 7.99492L58.1081 9.13706L59.1592 10.2792L60.3604 11.802L61.5616 13.3249L62.7628 15.2284L63.8138 16.7513L64.8649 18.6548L66.0661 20.5584L67.1171 22.4619L68.018 24.3655L69.0691 26.6497L70.1201 28.934L71.021 31.2183L71.9219 33.5025L72.8228 36.1675L73.7237 38.4518L74.4745 41.1168L75.3754 43.7817L76.1261 41.1168L77.027 38.4518L77.9279 35.7868L78.979 33.1218L79.8799 30.8376L80.9309 28.1726L81.982 26.269L83.1832 23.9848L84.2342 22.0812L85.4354 19.797L86.6366 18.2741L87.8378 16.3706L89.039 14.467L90.2402 12.9442L91.5916 11.802L92.9429 10.2792L94.1441 9.13706L95.4955 7.99492L96.8468 6.85279L98.1982 5.71066L99.6997 4.94924L101.051 4.18782L102.553 3.80711L103.904 3.04569L105.405 2.66497L106.907 2.28426H108.258H109.76H111.261H112.763L114.264 2.66497L115.766 3.04569L116.967 3.4264L118.318 3.80711L119.67 4.56853L121.021 4.94924L122.372 5.71066L123.874 6.85279L125.375 7.99492L126.877 9.13706L128.228 10.2792L129.73 11.4213L131.231 12.9442L132.733 14.467L134.084 16.3706L135.435 18.2741L136.937 20.1777L138.288 22.0812L139.489 24.3655L140.691 27.0305L142.042 29.3147L143.093 31.9797L144.144 35.0254L145.195 38.0711L146.096 41.1168L146.997 44.5431L147.748 47.9695L148.348 51.3959L148.799 55.203L149.249 59.3909L149.7 63.198L149.85 67.7665L150 71.9543L149.85 76.9036L149.7 80.7107L149.55 84.5178L149.249 88.7056L148.799 92.5127L148.348 95.9391L147.748 99.3655L146.997 103.173L146.246 106.218L145.495 109.645L144.595 112.69L143.694 115.736L142.643 118.782L141.592 121.447L140.541 124.112L139.339 126.777L138.138 129.061L136.937 131.345L135.586 133.629L134.234 135.914L132.883 137.817L131.381 139.34L130.03 141.244L128.529 142.766L127.027 144.289L125.526 145.431L123.874 146.574L122.372 147.335L120.871 148.096L119.219 148.858L117.718 149.619L116.066 150H114.565H112.913H111.261H109.61H108.108H106.607L105.105 149.619L103.604 149.239L102.252 148.477L100.901 148.096L99.5496 147.335L98.1982 146.574L96.8468 145.431L95.6456 144.67L94.2943 143.528L93.0931 142.005L91.8919 140.863L90.6907 139.34L89.4895 137.817L88.4384 135.914L87.2372 134.01L86.1862 132.107L85.1351 130.203L83.9339 127.919L83.033 125.254L81.982 122.589L80.9309 120.305L80.03 117.259L78.979 114.213L78.0781 111.168L77.1772 107.741L76.2763 104.315L75.3754 100.888L74.4745 103.934L73.7237 106.98L72.8228 110.025L71.9219 112.69L71.021 115.355L70.1201 118.02L69.2192 120.685L68.3183 122.97L67.2673 125.254L66.3664 127.157L65.3153 129.442L64.2643 131.345L63.2132 132.868L62.012 134.772L60.961 136.294L59.7598 137.817L58.7087 139.34L57.3574 140.863L56.1562 142.005L54.955 143.147L53.6036 143.909L52.2523 145.051L50.9009 145.812L49.5495 146.574L48.048 147.335L46.5465 147.716L45.045 148.096L43.3934 148.477L41.8919 148.858L40.2402 149.239H38.4384H36.7868H34.3844L32.1321 148.858L30.03 148.096L27.9279 146.954L25.8258 145.812L23.8739 144.67L22.0721 142.766L20.2703 141.244L18.4685 139.34L16.8168 137.056L15.3153 134.772L13.8138 132.107L12.4625 129.822L11.1111 126.777L9.75976 124.112L8.55856 121.066L7.50751 118.02L6.45646 114.975L5.55556 111.929L4.65465 108.883L3.75375 105.838L3.15315 102.411L2.4024 99.3655L1.8018 95.9391L1.35135 92.8934L0.900901 89.8477L0.600601 86.802L0.3003 83.7563L0.15015 80.7107L0 77.665V75V72.335V68.9086L0.15015 65.4822L0.45045 62.0558L0.750751 58.6294L1.2012 55.203L1.65165 52.1574L2.25225 48.731L2.85285 45.6853L3.6036 42.6396L4.5045 39.5939L5.40541 36.5482L6.30631 33.5025L7.35736 30.8376L8.40841 28.1726L9.60961 25.5076L10.8108 23.2234L12.1622 20.5584L13.5135 18.2741L14.8649 15.9898L16.3664 14.0863L17.8679 12.1827L19.5195 10.2792L21.1712 8.75634L22.8228 6.85279L24.6246 5.71066L26.4264 4.18782L28.2282 3.04569L30.1802 2.28426L32.1321 1.14213L34.0841 0.761421L36.1862 0H38.2883ZM111.261 26.269H109.76H108.258L106.757 26.6497L105.255 27.0305L103.754 27.7919L102.252 28.1726L100.901 29.3147L99.5496 30.0761L98.1982 31.2183L96.8468 32.3604L95.6456 33.5025L94.2943 34.6447L93.0931 36.1675L92.042 37.3096L90.8408 39.2132L89.7898 40.736L88.7387 42.2589L87.8378 44.1624L86.9369 46.066L86.036 47.9695L85.1351 50.2538L84.3844 52.1574L83.7838 54.4416L83.1832 56.7259L82.5826 59.0102L81.982 61.2944L81.6817 63.5787L81.2312 65.8629L81.0811 68.5279L80.7808 70.8122L80.6306 73.4772V76.1421V78.4264L80.7808 81.0914L81.0811 83.3756L81.2312 86.0406L81.6817 88.3249L81.982 90.6091L82.5826 92.8934L83.1832 95.1777L83.7838 97.4619L84.3844 99.3655L85.1351 101.65L86.036 103.553L86.9369 105.457L87.8378 107.36L88.7387 108.883L89.7898 110.787L90.8408 112.31L92.042 113.832L93.0931 115.355L94.2943 116.878L95.6456 118.02L96.8468 119.543L98.1982 120.305L99.5496 121.447L100.901 122.208L102.252 122.97L103.754 123.731L105.255 124.492L106.757 124.873L108.258 125.254H109.76H111.261H112.913H114.414L115.916 124.873L117.417 124.492L118.919 123.731L120.27 122.97L121.772 122.208L123.123 121.447L124.474 120.305L125.826 119.543L127.027 118.02L128.228 116.878L129.429 115.355L130.631 113.832L131.682 112.31L132.733 110.787L133.784 108.883L134.685 107.36L135.586 105.457L136.486 103.553L137.237 101.65L137.988 99.3655L138.739 97.4619L139.189 95.1777L139.79 92.8934L140.24 90.6091L140.691 88.3249L140.991 86.0406L141.291 83.3756L141.441 81.0914L141.592 78.4264V76.1421V73.4772L141.441 70.8122L141.291 68.5279L140.991 65.8629L140.691 63.5787L140.24 61.2944L139.79 59.0102L139.189 56.7259L138.739 54.4416L137.988 52.1574L137.237 50.2538L136.486 47.9695L135.586 46.066L134.685 44.1624L133.784 42.2589L132.733 40.736L131.682 39.2132L130.631 37.3096L129.429 36.1675L128.228 34.6447L127.027 33.5025L125.826 32.3604L124.474 31.2183L123.123 30.0761L121.772 29.3147L120.27 28.1726L118.919 27.7919L117.417 27.0305L115.916 26.6497L114.414 26.269H112.913H111.261ZM39.3393 26.269H37.8378H36.3363L34.8348 26.6497L33.3333 27.0305L31.8318 27.7919L30.3303 28.1726L28.979 29.3147L27.6276 30.0761L26.2763 31.2183L24.9249 32.3604L23.7237 33.5025L22.3724 34.6447L21.1712 36.1675L20.1201 37.3096L18.9189 39.2132L18.018 40.736L16.967 42.2589L15.9159 44.1624L15.015 46.066L14.2643 47.9695L13.3634 50.2538L12.7628 52.1574L12.012 54.4416L11.4114 56.7259L10.961 59.0102L10.3604 61.2944L10.0601 63.5787L9.60961 65.8629L9.30931 68.5279L9.15916 70.8122V73.4772L9.00901 76.1421L9.15916 78.4264V81.0914L9.30931 83.3756L9.60961 86.0406L10.0601 88.3249L10.3604 90.6091L10.961 92.8934L11.4114 95.1777L12.012 97.4619L12.7628 99.3655L13.3634 101.65L14.2643 103.553L15.015 105.457L15.9159 107.36L16.967 108.883L18.018 110.787L18.9189 112.31L20.1201 113.832L21.1712 115.355L22.3724 116.878L23.7237 118.02L24.9249 119.543L26.2763 120.305L27.6276 121.447L28.979 122.208L30.3303 122.97L31.8318 123.731L33.3333 124.492L34.8348 124.873L36.3363 125.254H37.8378H39.3393H40.991H42.4925L43.994 124.873L45.4955 124.492L46.997 123.731L48.4985 122.97L49.8498 122.208L51.3514 121.447L52.7027 120.305L53.9039 119.543L55.2553 118.02L56.4565 116.878L57.6577 115.355L58.8589 113.832L59.9099 112.31L61.1111 110.787L62.012 108.883L63.0631 107.36L63.964 105.457L64.8649 103.553L65.6156 101.65L66.3664 99.3655L66.967 97.4619L67.7177 95.1777L68.1682 92.8934L68.6186 90.6091L69.0691 88.3249L69.5195 86.0406L69.6697 83.3756L69.97 81.0914L70.1201 78.4264V76.1421V73.4772L69.97 70.8122L69.6697 68.5279L69.5195 65.8629L69.0691 63.5787L68.6186 61.2944L68.1682 59.0102L67.7177 56.7259L66.967 54.4416L66.3664 52.1574L65.6156 50.2538L64.8649 47.9695L63.964 46.066L63.0631 44.1624L62.012 42.2589L61.1111 40.736L59.9099 39.2132L58.8589 37.3096L57.6577 36.1675L56.4565 34.6447L55.2553 33.5025L53.9039 32.3604L52.7027 31.2183L51.3514 30.0761L49.8498 29.3147L48.4985 28.1726L46.997 27.7919L45.4955 27.0305L43.994 26.6497L42.4925 26.269H40.991H39.3393Z" fill="#00FFFF"/>
<path d="M38.2883 0H39.6396H40.991H42.4925L47.8979 1.52284L53.1532 4.56853L58.1081 9.13706L62.7628 15.2284L67.1171 22.4619L71.021 31.2183L74.4745 41.1168L75.3754 43.7817L77.9279 35.7868L81.982 26.269L85.4354 19.797L89.039 14.467L92.9429 10.2792L96.8468 6.85279L101.051 4.18782L105.405 2.66497L109.76 2.28426L114.264 2.66497L119.67 4.56853L123.874 6.85279L128.228 10.2792L132.733 14.467L136.937 20.1777L140.691 27.0305L144.144 35.0254L146.997 44.5431L148.799 55.203L149.85 67.7665L150 71.9543L149.85 76.9036L149.249 88.7056L147.748 99.3655L145.495 109.645L142.643 118.782L139.339 126.777L135.586 133.629L131.381 139.34L127.027 144.289L122.372 147.335L117.718 149.619L114.565 150H112.913H111.261H106.607L102.252 148.477L98.1982 146.574L94.2943 143.528L89.4895 137.817L86.1862 132.107L83.033 125.254L80.03 117.259L77.1772 107.741L75.3754 100.888L72.8228 110.025L70.1201 118.02L66.3664 127.157L62.012 134.772L57.3574 140.863L53.6036 143.909L49.5495 146.574L45.045 148.096L40.2402 149.239H34.3844L30.03 148.096L25.8258 145.812L20.2703 141.244L15.3153 134.772L11.1111 126.777L7.50751 118.02L4.65465 108.883L2.4024 99.3655L0.900901 89.8477L0 77.665V75V72.335L0.750751 58.6294L2.25225 48.731L4.5045 39.5939L7.35736 30.8376L10.8108 23.2234L14.8649 15.9898L19.5195 10.2792L24.6246 5.71066L30.1802 2.28426L36.1862 0H38.2883Z" stroke="black" stroke-width="0.478179"/>
<path d="M111.111 125.25C127.945 125.25 141.592 103.092 141.592 75.758C141.592 48.4241 127.945 26.2656 111.111 26.2656C94.2774 26.2656 80.6309 48.4241 80.6309 75.758C80.6309 103.092 94.2774 125.25 111.111 125.25Z" stroke="black" stroke-width="0.478179"/>
<path d="M39.4893 125.25C56.3232 125.25 69.9697 103.092 69.9697 75.758C69.9697 48.4241 56.3232 26.2656 39.4893 26.2656C22.6554 26.2656 9.00879 48.4241 9.00879 75.758C9.00879 103.092 22.6554 125.25 39.4893 125.25Z" stroke="black" stroke-width="0.478179"/>
</g>
<defs>
<clipPath id="clip0_2109_209824">
<rect width="150" height="150" fill="white"/>
</clipPath>
</defs>
</svg>
