<svg width="150" height="150" viewBox="0 0 150 150" fill="none" xmlns="http://www.w3.org/2000/svg">
<g clip-path="url(#clip0_2109_209845)">
<path d="M4.05405 24.949L30.7808 0L34.6847 3.67347L38.7387 7.19388L42.9429 10.2551L47.4474 12.551L51.952 14.2347L56.6066 14.8469L60.961 14.2347L64.8649 12.551L68.4685 9.94898L71.4715 6.27551L74.024 1.68367L74.7748 0L75.5255 1.68367L78.2282 6.27551L81.2312 9.94898L84.6847 12.551L88.4384 14.2347L92.6426 14.8469L96.997 14.3878L101.351 13.0102L105.706 10.8673L109.159 8.72449L112.462 6.27551L115.616 3.52041L119.219 0L145.796 24.949L142.793 28.9286L140.24 32.9082L138.288 36.5816L136.787 41.3265L136.336 45.9184L137.538 50.3571L139.339 54.7959L141.441 58.9286L143.393 63.0612L145.195 66.8878L146.997 71.0204L148.348 75.1531L149.399 80.051L149.85 84.4898V86.9388L150 88.3163V89.5408L149.7 95.051L149.099 100.408L147.898 105.765L146.396 110.969L144.595 115.867L142.492 120.612L140.09 124.898L137.387 128.878L134.535 132.551L131.532 135.765L128.378 138.52L125.075 140.969L121.021 143.265L117.117 144.643L112.613 145.255L108.258 145.102L103.904 144.337L99.0991 142.806L94.4444 141.276L90.0901 140.357L85.8859 140.969L82.2823 142.959L78.6787 145.867L75.6757 148.929L74.7748 150L73.7237 148.776L70.7207 145.561L66.967 142.5L62.7628 140.357L58.1081 140.204L54.2042 141.429L49.8498 142.959L45.3453 144.337L40.8408 145.102L36.4865 145.255L32.2823 144.49L28.0781 142.959L23.7237 140.357L20.4204 137.755L17.2673 134.694L14.2643 131.327L11.5616 127.5L8.85886 123.367L6.45646 118.929L4.5045 114.031L2.7027 109.133L1.35135 103.929L0.45045 98.7245L0 93.2143V91.3775V89.5408L0.15015 84.6429L0.600601 79.898L1.5015 75.7653L2.7027 71.6327L4.35435 67.3469L6.30631 62.9082L9.00901 57.7041L10.961 53.8776L12.7628 49.7449L13.3634 45.4592L12.9129 40.102L11.1111 35.5102L9.00901 31.6837L6.15616 27.7041L4.05405 24.949Z" fill="#00FFFF" stroke="black" stroke-width="0.303197"/>
</g>
<defs>
<clipPath id="clip0_2109_209845">
<rect width="150" height="150" fill="white"/>
</clipPath>
</defs>
</svg>
