<svg width="150" height="150" viewBox="0 0 150 150" fill="none" xmlns="http://www.w3.org/2000/svg">
<g clip-path="url(#clip0_2109_209964)">
<path d="M150 115.725L107.207 150H0V29.2683L42.3423 0H150V115.725Z" fill="#00FFFF" stroke="black" stroke-width="0.340071"/>
<path d="M136.036 0.960938H44.7451L68.4688 10.011L78.5289 11.1663L136.036 0.960938Z" fill="#00FFFF" stroke="black" stroke-width="0.340071"/>
<path d="M147.748 2.89062L108.108 30.0408L126.277 77.4092L135.135 71.6326L147.748 2.89062Z" fill="#00FFFF" stroke="black" stroke-width="0.340071"/>
<path d="M141.892 2.89062L78.5288 13.4811L68.4688 13.096L41.8922 2.89062L8.1084 27.3451L68.4688 14.6365L78.2285 15.0216L106.607 26.1897L141.892 2.89062Z" fill="#00FFFF" stroke="black" stroke-width="0.340071"/>
<path d="M102.253 28.5013L78.2287 17.5257L68.4689 17.1406L12.4629 28.5013H102.253Z" fill="#00FFFF" stroke="black" stroke-width="0.340071"/>
<path d="M148.348 12.3203L137.387 74.708L125.075 81.0623L106.606 35.6194V140.177L126.276 84.1432L136.787 78.174L148.348 108.212V12.3203Z" fill="#00FFFF" stroke="black" stroke-width="0.340071"/>
<path d="M2.25195 30.8125L2.4021 31.0051L2.55225 31.1976L2.7024 31.5827L2.85255 31.7753L37.0868 87.6161H65.9156L102.552 30.8125H2.25195Z" fill="#00FFFF" stroke="black" stroke-width="0.340071"/>
<path d="M103.153 35.625L66.8165 90.5031H35.4351L2.85254 36.7803V142.493L35.8856 95.5095H65.9156L103.153 143.648V35.625Z" fill="#00FFFF" stroke="black" stroke-width="0.340071"/>
<path d="M135.436 82.2188L127.778 87.8028L108.709 143.836L146.847 112.642L135.436 82.2188Z" fill="#00FFFF" stroke="black" stroke-width="0.340071"/>
<path d="M101.952 146.147L65.6158 99.1641H37.3876L3.15332 145.762L101.952 146.147Z" fill="#00FFFF" stroke="black" stroke-width="0.340071"/>
</g>
<defs>
<clipPath id="clip0_2109_209964">
<rect width="150" height="150" fill="white"/>
</clipPath>
</defs>
</svg>
