<svg width="150" height="150" viewBox="0 0 150 150" fill="none" xmlns="http://www.w3.org/2000/svg">
<g clip-path="url(#clip0_2109_209897)">
<path d="M0.971922 150V109.964L89.0929 66.9929V39.5018L27.8618 52.3132L19.2765 58.7189H9.55723L7.12743 55.2491H0V17.8826L111.285 0L144.006 6.6726L146.598 15.2135L148.38 24.2883L149.514 33.6299L150 43.2384V53.1139L149.514 62.9893L148.704 72.8648L147.732 82.4733L29.9676 150H0.971922Z" fill="#00FFFF" stroke="black" stroke-width="0.41586"/>
<path d="M5.3457 20.0141H24.6222L120.842 4.26676L110.313 2.39844L5.3457 20.0141Z" fill="#00FFFF" stroke="black" stroke-width="0.41586"/>
<path d="M91.0365 67.7969L6.15527 109.968H31.1013L113.391 67.7969H91.0365Z" fill="#00FFFF" stroke="black" stroke-width="0.41586"/>
<path d="M24.298 107.831C28.5027 107.831 31.9114 107.353 31.9114 106.763C31.9114 106.173 28.5027 105.695 24.298 105.695C20.0932 105.695 16.6846 106.173 16.6846 106.763C16.6846 107.353 20.0932 107.831 24.298 107.831Z" fill="#00FFFF" stroke="black" stroke-width="0.41586"/>
<path d="M3.56348 113.438V146H29.1574V113.438H3.56348Z" fill="#00FFFF" stroke="black" stroke-width="0.41586"/>
<path d="M91.3604 38.9709V64.3268H118.736V33.6328L91.3604 38.9709Z" fill="#00FFFF" stroke="black" stroke-width="0.41586"/>
<path d="M2.42969 22.4219V51.7813H22.0301V22.4219H2.42969Z" fill="#00FFFF" stroke="black" stroke-width="0.41586"/>
</g>
<defs>
<clipPath id="clip0_2109_209897">
<rect width="150" height="150" fill="white"/>
</clipPath>
</defs>
</svg>
