<svg width="150" height="150" viewBox="0 0 150 150" fill="none" xmlns="http://www.w3.org/2000/svg">
<g clip-path="url(#clip0_2109_209820)">
<path d="M11.8734 150L16.2269 147.447L22.5594 147.598L28.8918 146.847L33.2454 144.294H33.6412L35.0264 144.595L35.8179 143.844L42.1504 143.694L49.2744 145.045L54.0237 142.492L59.3668 140.991L63.7203 136.787L64.5119 132.583L60.3562 129.279L58.3773 127.477L58.5752 126.426L59.5646 125.375L56.2005 121.922V119.069L54.6174 114.264L57.19 111.411L58.3773 111.261L59.5646 106.607L61.9393 105.706L63.3245 105.856L64.1161 104.655L62.7309 100.751L62.533 99.6997L62.9288 98.949L64.1161 97.8979L63.3245 97.4474L63.5224 92.9429L64.5119 92.1922L63.7203 90.2402L66.2929 87.8378L67.2823 83.1832L67.4802 78.6787L67.6781 73.7237L67.4802 69.2192L66.6887 65.7658L64.7098 70.1201L60.3562 72.6727L56.2005 72.3724L55.409 72.973L51.6491 72.0721L49.0765 72.2222L47.8892 71.4715L42.3483 73.4234L35.2243 73.1231L30.4749 70.7207L30.0792 69.97L23.5488 69.3694L18.4037 66.5165L15.2375 62.012L14.4459 56.7568L10.8839 57.2072L8.11346 55.7057L7.71768 53.9039L2.96834 49.6997L0.593668 44.8949L0.197889 43.2432L0 41.5916V39.7898L1.58311 35.2853L6.13456 32.1321L6.72823 24.4745L10.686 17.8679L17.4142 12.4625L21.7678 10.0601L26.5172 7.95796L31.6623 6.00601L37.4011 4.5045L43.3377 3.003L49.6702 1.95195L56.2005 1.2012L62.7309 0.45045L69.4591 0.15015L76.3852 0L83.3113 0.15015L89.8417 0.45045L96.5699 0.900901L102.902 1.8018L109.235 2.85285L115.172 4.05405L120.515 5.70571L125.66 7.35736L130.409 9.30931L137.929 13.964L142.678 19.3694L144.657 25.8258L144.261 29.2793L148.417 32.2823L149.802 35.4354L150 37.2372V39.1892L148.219 44.7447L144.261 49.3994L138.127 51.6517L139.908 56.6066L139.71 62.012L136.741 66.8168L131.201 70.2703L125.66 71.1712L118.931 70.5706L116.161 74.024L111.214 75.6757L105.277 76.5766L99.3404 76.1261L94.9868 74.3243L92.2164 74.4745L90.8311 73.5736L90.4354 71.4715L85.2902 69.8198L82.3219 66.0661L81.7282 70.4204L81.3325 75.6757L81.5303 81.2312L82.124 85.8859L84.4987 89.4895L85.4881 91.4414L85.2902 92.042L83.7071 93.2432L85.4881 96.5465L85.0923 97.2973L83.3113 98.4985L85.4881 102.402L86.4776 107.357L91.2269 109.159L92.2164 110.661L92.0185 112.462L94.591 115.916L93.4037 118.919L92.4142 119.369L92.81 119.82L91.6227 123.724L90.8311 124.324L89.8417 124.474L90.4354 125.826L90.0396 126.727L85.0923 130.03L84.4987 130.781L84.6966 135.135L87.0712 139.189L92.0185 140.991L96.1741 144.294L97.5594 145.195L99.3404 145.796L105.277 144.595L111.412 145.195L117.942 146.096L119.327 147.447L120.515 146.847L121.306 146.547L124.67 147.598L127.441 146.997L133.971 147.898L137.137 148.198L137.731 148.949V149.399V150H11.8734Z" fill="#00FFFF" stroke="black" stroke-width="0.34475"/>
</g>
<defs>
<clipPath id="clip0_2109_209820">
<rect width="150" height="150" fill="white"/>
</clipPath>
</defs>
</svg>
