<svg width="150" height="150" viewBox="0 0 150 150" fill="none" xmlns="http://www.w3.org/2000/svg">
<g clip-path="url(#clip0_2109_209469)">
<path d="M0 150L3.9039 131.702L8.10811 114.894L12.4625 98.9362L16.6667 84.2553L21.1712 70.8511L25.8258 58.5106L30.4805 47.4468L35.1351 37.4468L40.0901 28.7234L44.8949 21.0638L50 14.4681L54.8048 9.3617L59.9099 5.10638L64.8649 2.34043L69.8198 0.425532L74.9249 0L80.03 0.425532L84.985 2.34043L90.0901 5.10638L95.045 9.3617L100 14.4681L104.955 21.0638L109.91 28.7234L114.715 37.4468L119.369 47.4468L124.024 58.5106L128.679 70.8511L133.033 84.2553L137.387 98.9362L141.742 114.894L145.946 131.702L150 150H131.231L127.778 133.617L124.174 118.085L120.571 103.83L117.117 90.4255L113.664 78.2979L110.21 67.234L106.607 57.0213L103.003 47.8723L99.5496 40L96.0961 33.1915L92.4925 27.234L89.039 22.5532L85.4354 18.7234L81.982 16.1702L74.9249 14.0426L67.8679 16.1702L64.4144 18.7234L60.961 22.5532L57.3574 27.234L53.7538 33.1915L50.3003 40L46.8468 47.8723L43.3934 57.0213L39.7898 67.234L36.1862 78.2979L32.8829 90.4255L29.2793 103.83L25.6757 118.085L22.2222 133.617L18.6186 150H0Z" fill="#00FFFF" stroke="black" stroke-width="0.357474"/>
</g>
<defs>
<clipPath id="clip0_2109_209469">
<rect width="150" height="150" fill="white"/>
</clipPath>
</defs>
</svg>
