<svg width="150" height="150" viewBox="0 0 150 150" fill="none" xmlns="http://www.w3.org/2000/svg">
<g clip-path="url(#clip0_2122_161684)">
<path d="M26.2763 32.8906H28.6787V59.6376H31.2312V131.565H22.5225L22.2222 135.903L21.6216 139.517L20.8709 142.77L19.97 145.3L18.7688 147.469L17.5676 148.915L16.2162 149.638L14.8649 149.999L13.5135 149.638L12.3123 148.553L10.961 147.107L9.90991 145.3L9.00901 142.77L8.25826 139.517L7.80781 135.903L7.65766 131.565H0V104.818V101.927V99.3967L0.15015 96.5051V93.6135L0.3003 90.722L0.45045 87.8304L0.750751 84.9388L0.900901 82.0473L1.2012 79.1557L1.5015 76.2641L1.8018 73.3726L2.1021 70.8424L2.55255 67.9509L2.85285 65.0593L3.3033 62.5292L3.75375 59.6376H26.2763V32.8906Z" fill="#808080" stroke="black" stroke-width="0.465923"/>
<path d="M149.999 0V126.867H147.297L147.447 132.289L146.996 137.349L146.396 141.325L145.345 144.578L144.143 147.108L142.792 148.916L141.291 150H139.639L137.987 149.639L136.636 148.193L135.285 146.386L134.083 143.855L133.183 140.602L132.582 136.627L132.432 131.928L132.732 126.867H129.729L129.879 132.289L129.579 137.349L128.978 141.325L127.927 144.578L126.726 147.108L125.375 148.916L123.873 150H122.222L120.72 149.639L119.219 148.193L117.867 146.386L116.666 143.855L115.765 140.602L115.014 136.627L114.864 131.928L115.014 126.867H70.8702L71.0204 132.289L70.7201 137.349L69.9693 141.325L69.0684 144.578L67.8672 147.108L66.3657 148.916L64.8642 149.639L63.3627 150L61.8612 149.277L60.3597 148.193L59.0083 146.024L57.9573 143.494L57.0564 140.241L56.6059 136.265L56.4558 131.205L56.7561 126.145H54.654L54.9543 131.928L54.8041 136.988L54.0534 140.964L53.1525 144.217L51.9513 146.747L50.4498 148.554L48.9483 149.639L47.2966 150L45.645 149.277L44.1435 148.193L42.7921 146.024L41.5909 143.494L40.69 140.241L40.0894 136.265L39.9393 131.205L40.3897 126.145H37.3867V0H149.999Z" fill="#808080" stroke="black" stroke-width="0.465923"/>
<path d="M139.939 143.496C142.676 143.496 144.894 138.156 144.894 131.568C144.894 124.981 142.676 119.641 139.939 119.641C137.203 119.641 134.984 124.981 134.984 131.568C134.984 138.156 137.203 143.496 139.939 143.496Z" fill="#808080" stroke="black" stroke-width="0.465923"/>
<path d="M122.373 143.496C125.109 143.496 127.328 138.156 127.328 131.568C127.328 124.981 125.109 119.641 122.373 119.641C119.636 119.641 117.418 124.981 117.418 131.568C117.418 138.156 119.636 143.496 122.373 143.496Z" fill="#808080" stroke="black" stroke-width="0.465923"/>
<path d="M63.8143 143.496C66.5509 143.496 68.7693 138.156 68.7693 131.568C68.7693 124.981 66.5509 119.641 63.8143 119.641C61.0778 119.641 58.8594 124.981 58.8594 131.568C58.8594 138.156 61.0778 143.496 63.8143 143.496Z" fill="#808080" stroke="black" stroke-width="0.465923"/>
<path d="M47.2968 143.496C50.0333 143.496 52.2517 138.156 52.2517 131.568C52.2517 124.981 50.0333 119.641 47.2968 119.641C44.5602 119.641 42.3418 124.981 42.3418 131.568C42.3418 138.156 44.5602 143.496 47.2968 143.496Z" fill="#808080" stroke="black" stroke-width="0.465923"/>
<path d="M14.8651 143.496C17.6017 143.496 19.8201 138.156 19.8201 131.568C19.8201 124.981 17.6017 119.641 14.8651 119.641C12.1286 119.641 9.91016 124.981 9.91016 131.568C9.91016 138.156 12.1286 143.496 14.8651 143.496Z" fill="#808080" stroke="black" stroke-width="0.465923"/>
<path d="M8.70889 62.5312V83.8566H2.55273L2.70288 82.4108L2.85303 80.965V79.8806L3.00318 78.4349L3.15333 77.3505L3.30349 75.9047L3.45364 74.459L3.60379 73.0132L3.75394 71.9288L3.90409 70.4831L4.05424 69.3987L4.20439 67.9529L4.35454 66.5072L4.50469 65.4228L4.65484 63.977L4.95514 62.5312H8.70889Z" fill="#808080" stroke="black" stroke-width="0.465923"/>
<path d="M9.91016 62.5312V83.8566H14.8651V62.5312H9.91016Z" fill="#808080" stroke="black" stroke-width="0.465923"/>
</g>
<defs>
<clipPath id="clip0_2122_161684">
<rect width="150" height="150" fill="white"/>
</clipPath>
</defs>
</svg>
