<svg width="150" height="150" viewBox="0 0 150 150" fill="none" xmlns="http://www.w3.org/2000/svg">
<g clip-path="url(#clip0_2122_162349)">
<path fill-rule="evenodd" clip-rule="evenodd" d="M131.744 81.5315L135.091 85.5856L138.134 90.0901L140.72 95.045L142.394 100.45L142.546 106.306L140.872 112.162L136.917 118.919L130.375 126.126L129.158 127.027L127.789 127.928L126.268 128.829L124.594 129.279L122.921 129.73L121.247 130.18L119.422 130.631H117.444H115.619H113.641H111.663H109.686H107.86H105.882L104.209 130.18H102.383L102.688 133.333L103.296 135.135L104.209 136.036L105.274 136.486L106.187 137.387L107.099 138.739L107.708 140.991L108.012 144.595L107.404 149.099L106.187 150L104.817 148.198L104.209 143.694L104.057 140.541L103.144 137.838L102.079 135.135L101.318 131.081H83.0629L25.8621 112.162L25.2535 110.36L24.3408 106.757L23.2759 102.703L22.0588 97.2973L20.6897 91.4414L19.3205 85.1351L17.7992 78.3784L16.2779 71.1712L14.9087 64.4144L13.5396 57.6577L12.1704 51.8018L11.1055 45.9459L10.0406 40.991L9.27992 37.3874L8.82353 34.6847L8.51927 33.3333L1.97769 47.7477L0 40.991L7.30223 25.2252L1.97769 4.5045L4.41176 0L10.3448 18.9189L17.9513 1.8018L19.6247 8.55856L12.6268 24.3243L30.8824 73.8739L67.5456 59.009L67.3935 55.8559L68.002 52.7027L69.0669 49.0991L70.4361 45.9459L72.4138 42.7928L74.6957 39.1892L77.2819 36.036L80.0203 33.3333L82.9108 30.6306L85.9533 27.9279L89.1481 25.6757L92.1907 23.8739L95.2333 22.5225L98.1237 21.6216H100.862H103.296L104.817 22.973L106.491 25.2252L108.012 27.9279L109.533 31.5315L110.903 35.5856L112.12 40.5405L113.185 45.4955L114.097 51.3514L115.619 52.7027L117.14 53.6036L118.509 54.5045L119.878 55.4054L121.095 56.3063L122.465 56.7568L123.682 57.6577L125.051 58.1081L125.811 59.4595L126.876 62.6126L127.941 66.2162L129.006 70.2703L130.071 74.7748L130.984 77.9279L131.592 80.6306L131.744 81.5315ZM49.5943 8.55856V15.7658H150V8.55856H49.5943ZM31.4909 126.126L32.0994 125.676L32.5558 124.775L33.0122 122.973L33.1643 120.721L33.0122 118.919L32.5558 117.117L32.0994 116.216L31.4909 115.766L30.7302 116.216L30.1217 117.117L29.5132 118.919L29.3611 120.721L29.5132 122.973L30.1217 124.775L30.7302 125.676L31.4909 126.126Z" fill="#808080"/>
<path d="M131.744 81.5315L135.091 85.5856L138.134 90.0901L140.72 95.045L142.394 100.45L142.546 106.306L140.872 112.162L136.917 118.919L130.375 126.126L129.158 127.027L127.789 127.928L126.268 128.829L124.594 129.279L122.921 129.73L121.247 130.18L119.422 130.631H117.444H115.619H113.641H111.663H109.686H107.86H105.882L104.209 130.18H102.383L102.688 133.333L103.296 135.135L104.209 136.036L105.274 136.486L106.187 137.387L107.099 138.739L107.708 140.991L108.012 144.595L107.404 149.099L106.187 150L104.817 148.198L104.209 143.694L104.057 140.541L103.144 137.838L102.079 135.135L101.318 131.081H83.0629L25.8621 112.162L25.2535 110.36L24.3408 106.757L23.2759 102.703L22.0588 97.2973L20.6897 91.4414L19.3205 85.1351L17.7992 78.3784L16.2779 71.1712L14.9087 64.4144L13.5396 57.6577L12.1704 51.8018L11.1055 45.9459L10.0406 40.991L9.27992 37.3874L8.82353 34.6847L8.51927 33.3333L1.97769 47.7477L0 40.991L7.30223 25.2252L1.97769 4.5045L4.41176 0L10.3448 18.9189L17.9513 1.8018L19.6247 8.55856L12.6268 24.3243L30.8824 73.8739L67.5456 59.009L67.3935 55.8559L68.002 52.7027L69.0669 49.0991L70.4361 45.9459L72.4138 42.7928L74.6957 39.1892L77.2819 36.036L80.0203 33.3333L82.9107 30.6306L85.9533 27.9279L89.1481 25.6757L92.1907 23.8739L95.2333 22.5225L98.1237 21.6216H100.862H103.296L104.817 22.973L106.491 25.2252L108.012 27.9279L109.533 31.5315L110.903 35.5856L112.12 40.5405L113.185 45.4955L114.097 51.3514L115.619 52.7027L117.14 53.6036L118.509 54.5045L119.878 55.4054L121.095 56.3063L122.465 56.7568L123.682 57.6577L125.051 58.1081L125.811 59.4595L126.876 62.6126L127.941 66.2162L129.006 70.2703L130.071 74.7748L130.984 77.9279L131.592 80.6306L131.744 81.5315Z" stroke="black" stroke-width="0.523553"/>
<path d="M49.5938 8.55469V15.7619H149.999V8.55469H49.5938Z" stroke="black" stroke-width="0.523553"/>
<path d="M31.1869 126.123C32.1951 126.123 33.0124 123.703 33.0124 120.718C33.0124 117.733 32.1951 115.312 31.1869 115.312C30.1787 115.312 29.3613 117.733 29.3613 120.718C29.3613 123.703 30.1787 126.123 31.1869 126.123Z" stroke="black" stroke-width="0.523553"/>
</g>
<defs>
<clipPath id="clip0_2122_162349">
<rect width="150" height="150" fill="white"/>
</clipPath>
</defs>
</svg>
