<svg width="150" height="150" viewBox="0 0 150 150" fill="none" xmlns="http://www.w3.org/2000/svg">
<g clip-path="url(#clip0_2122_161769)">
<path d="M8.1759 32.5859V123.727H5.03125V32.5859H8.1759Z" fill="#666666" stroke="black" stroke-width="0.307301"/>
<path d="M4.71692 1.5L8.17604 32.5811H5.03138L1.57227 1.5H4.71692Z" fill="#666666" stroke="black" stroke-width="0.307301"/>
<path d="M6.60352 125.528H150V123.727H6.60352V125.528Z" fill="#191919"/>
<path d="M6.60352 117.266H150V123.722H6.60352V117.266Z" fill="#CCCCCC" stroke="black" stroke-width="0.307301"/>
<path d="M19.3394 149.848C26.3732 149.848 32.0752 144.403 32.0752 137.686C32.0752 130.969 26.3732 125.523 19.3394 125.523C12.3055 125.523 6.60352 130.969 6.60352 137.686C6.60352 144.403 12.3055 149.848 19.3394 149.848Z" fill="#333333" stroke="black" stroke-width="0.307301"/>
<path d="M19.3392 146.85C24.6363 146.85 28.9304 142.749 28.9304 137.69C28.9304 132.632 24.6363 128.531 19.3392 128.531C14.0422 128.531 9.74805 132.632 9.74805 137.69C9.74805 142.749 14.0422 146.85 19.3392 146.85Z" fill="black"/>
<path d="M21.0695 137.691L19.3399 140.694L17.7676 137.691V123.727H21.0695V137.691Z" fill="#999999" stroke="black" stroke-width="0.307301"/>
<path d="M137.107 149.848C144.141 149.848 149.843 144.403 149.843 137.686C149.843 130.969 144.141 125.523 137.107 125.523C130.073 125.523 124.371 130.969 124.371 137.686C124.371 144.403 130.073 149.848 137.107 149.848Z" fill="#333333" stroke="black" stroke-width="0.307301"/>
<path d="M137.108 146.698C142.318 146.698 146.542 142.664 146.542 137.689C146.542 132.713 142.318 128.68 137.108 128.68C131.898 128.68 127.674 132.713 127.674 137.689C127.674 142.664 131.898 146.698 137.108 146.698Z" fill="black"/>
<path d="M138.837 137.691L137.265 140.694L135.535 137.691V123.727H138.837V137.691Z" fill="#999999" stroke="black" stroke-width="0.307301"/>
<path d="M6.60365 32.5859V125.529H3.14453V32.5859H6.60365Z" fill="#7F7F7F"/>
<path d="M6.28917 32.5859V125.529H3.45898V32.5859H6.28917Z" fill="#999999"/>
<path d="M5.9747 32.5859V125.529H3.77344V32.5859H5.9747Z" fill="#B2B2B2"/>
<path d="M5.66022 32.5859V125.529H4.08789V32.5859H5.66022Z" fill="#CCCCCC"/>
<path d="M5.34574 32.5859V125.529H4.40234V32.5859H5.34574Z" fill="#E5E5E5"/>
<path d="M5.03126 32.5859V125.529H4.7168V32.5859H5.03126Z" fill="white"/>
<path d="M6.60365 32.5859V125.529H3.14453V32.5859H6.60365Z" stroke="black" stroke-width="0.307301"/>
<path d="M3.14465 0L6.60377 32.5826H3.14465L0 0H3.14465Z" fill="#7F7F7F"/>
<path d="M2.83019 0L6.28931 32.5826H3.45912L0 0H2.83019Z" fill="#999999"/>
<path d="M2.51571 0L5.97483 32.5826H3.77357L0.314453 0H2.51571Z" fill="#B2B2B2"/>
<path d="M2.20222 0L5.66134 32.5826H4.08901L0.472656 0H2.20222Z" fill="#CCCCCC"/>
<path d="M1.88676 0L5.34588 32.5826H4.40248L0.943359 0H1.88676Z" fill="#E5E5E5"/>
<path d="M1.88773 0L5.03238 32.5826H4.71791L1.10156 0H1.88773Z" fill="white"/>
<path d="M3.14465 0L6.60377 32.5826H3.14465L0 0H3.14465Z" stroke="black" stroke-width="0.307301"/>
</g>
<defs>
<clipPath id="clip0_2122_161769">
<rect width="150" height="150" fill="white"/>
</clipPath>
</defs>
</svg>
