<svg width="150" height="150" viewBox="0 0 150 150" fill="none" xmlns="http://www.w3.org/2000/svg">
<g clip-path="url(#clip0_2122_161407)">
<path d="M19.0684 27.9453H141.291V86.4036H19.0684V27.9453Z" fill="#666666" stroke="black" stroke-width="0.439218"/>
<path d="M38.8887 90.8984H110.66V104.389H38.8887V90.8984Z" fill="#7F7F7F" stroke="black" stroke-width="0.439218"/>
<path d="M4.95508 79.3359H140.691V128.158H4.95508V79.3359Z" fill="black" stroke="black" stroke-width="0.439218"/>
<path d="M100.3 149.681C105.856 149.681 110.36 140.046 110.36 128.161C110.36 116.276 105.856 106.641 100.3 106.641C94.7443 106.641 90.2402 116.276 90.2402 128.161C90.2402 140.046 94.7443 149.681 100.3 149.681Z" fill="#666666" stroke="black" stroke-width="0.439218"/>
<path d="M122.222 149.681C127.778 149.681 132.282 140.046 132.282 128.161C132.282 116.276 127.778 106.641 122.222 106.641C116.666 106.641 112.162 116.276 112.162 128.161C112.162 140.046 116.666 149.681 122.222 149.681Z" fill="#666666" stroke="black" stroke-width="0.439218"/>
<path d="M10.0593 101.821L7.05631 131.371H0.75L1.9512 99.8939V68.4164L17.8671 63.9196V36.9389H13.6629V32.4421L39.4887 27.9453V120.451H31.9812L28.3776 101.821H10.0593Z" fill="#00FFFF" stroke="black" stroke-width="0.439218"/>
<path d="M0 113.383H6.15616V132.012H0V113.383Z" fill="#E5E5E5" stroke="black" stroke-width="0.439218"/>
<path d="M43.0938 88.9688H143.995V97.9623H43.0938V88.9688Z" fill="#B2B2B2" stroke="black" stroke-width="0.439218"/>
<path d="M19.9707 36.9375V63.9182L28.3791 59.4214V36.9375H19.9707Z" fill="black" stroke="black" stroke-width="0.439218"/>
<path d="M100.301 138.762C103.037 138.762 105.256 134.016 105.256 128.162C105.256 122.308 103.037 117.562 100.301 117.562C97.5641 117.562 95.3457 122.308 95.3457 128.162C95.3457 134.016 97.5641 138.762 100.301 138.762Z" fill="#CCCCCC" stroke="black" stroke-width="0.439218"/>
<path d="M122.373 139.076C125.192 139.076 127.478 134.187 127.478 128.155C127.478 122.124 125.192 117.234 122.373 117.234C119.553 117.234 117.268 122.124 117.268 128.155C117.268 134.187 119.553 139.076 122.373 139.076Z" fill="#CCCCCC" stroke="black" stroke-width="0.439218"/>
<path d="M141.291 85.7602H46.9962H46.6959H46.3956L46.0953 85.439L45.795 85.1178L45.4947 84.4754L45.1944 83.833L45.0443 83.1906L44.744 82.5482L44.4437 81.5846L44.1434 80.621L43.8431 79.6574L43.6929 78.3726L43.3926 77.409L43.2425 76.1242L42.9422 74.8394L42.792 73.2334L42.6419 71.6274L42.3416 70.3426L42.1914 68.4154L42.0413 66.8094L41.8911 65.2034L41.741 63.2762L41.5908 61.349L41.4407 59.4218V57.4946L41.2905 55.5675L41.1404 53.6403V51.3919V49.4647L40.9902 47.2163V44.9679V42.7195V40.4711V38.5439L41.1404 36.2955V34.0471V32.1199L41.2905 30.1927L41.4407 27.9443V26.0171L41.5908 24.0899L41.741 22.4839L41.8911 20.5567L42.0413 18.9508L42.1914 17.0236L42.3416 15.4176L42.6419 13.8116L42.792 12.5268L42.9422 10.9208L43.2425 9.63597L43.3926 8.35118L43.6929 7.06638L43.8431 6.10278L44.1434 5.13919L44.4437 4.17559L44.744 3.21199L45.0443 2.56959L45.1944 1.606L45.4947 1.2848L45.795 0.642398L46.0953 0.321199L46.3956 0H46.6959H46.9962H141.291H141.441H141.741L142.041 0.321199L142.342 0.642398L142.642 1.2848L142.792 1.606L143.092 2.56959L143.393 3.21199L143.693 4.17559L143.843 5.13919L144.143 6.10278L144.294 7.06638L144.594 8.35118L144.744 9.63597L145.044 10.9208L145.194 12.5268L145.345 13.8116L145.645 15.4176L145.795 17.0236L145.945 18.9508L146.095 20.5567L146.245 22.4839L146.396 24.0899V26.0171L146.546 27.9443L146.696 30.1927V32.1199L146.846 34.0471V36.2955V38.5439L146.996 40.4711V42.7195V44.9679L146.846 47.2163V49.4647V51.3919L146.696 53.6403V55.5675L146.546 57.4946L146.396 59.4218V61.349L146.245 63.2762L146.095 65.2034L145.945 66.8094L145.795 68.4154L145.645 70.3426L145.345 71.6274L145.194 73.2334L145.044 74.8394L144.744 76.1242L144.594 77.409L144.294 78.3726L144.143 79.6574L143.843 80.621L143.693 81.5846L143.393 82.5482L143.092 83.1906L142.792 83.833L142.642 84.4754L142.342 85.1178L142.041 85.439L141.741 85.7602H141.441H141.291Z" fill="#7F7F7F"/>
<path d="M141.291 78.0544H46.9962H46.3956L45.795 77.412L45.1944 76.4484L44.744 75.4848L44.1434 73.8788L43.6929 71.9517L43.2425 70.0245L42.792 67.7761L42.3416 65.2065L42.0413 62.3157L41.741 59.4249L41.4407 56.5341L41.2905 53.3221L41.1404 49.7889L40.9902 46.2557V42.7225V39.1893L41.1404 35.6562L41.2905 32.123L41.4407 28.911L41.741 26.0202L42.0413 22.8082L42.3416 20.2386L42.792 17.669L43.2425 15.4206L43.6929 13.4934L44.1434 11.8874L44.744 10.2814L45.1944 8.99662L45.795 8.35422L46.3956 7.71182L46.9962 7.39062H141.291L141.741 7.71182L142.342 8.35422L142.792 8.99662L143.393 10.2814L143.843 11.8874L144.294 13.4934L144.744 15.4206L145.194 17.669L145.645 20.2386L145.945 22.8082L146.245 26.0202L146.396 28.911L146.696 32.123L146.846 35.6562V39.1893L146.996 42.7225L146.846 46.2557V49.7889L146.696 53.3221L146.396 56.5341L146.245 59.4249L145.945 62.3157L145.645 65.2065L145.194 67.7761L144.744 70.0245L144.294 71.9517L143.843 73.8788L143.393 75.4848L142.792 76.4484L142.342 77.412L141.741 78.0544H141.291Z" fill="#999999"/>
<path d="M141.291 70.9842H46.9962H46.3956L45.795 70.3418L45.1944 69.6994L44.744 68.7358L44.1434 67.7722L43.6929 66.1662L43.2425 64.5602L42.792 62.633L42.3416 60.7058L42.0413 58.4574L41.741 56.209L41.4407 53.6394L41.2905 51.0698L41.1404 48.5002L40.9902 45.6094V42.7187V39.8279L41.1404 37.2583L41.2905 34.3675L41.4407 31.7979L41.741 29.5495L42.0413 27.3011L42.3416 25.0527L42.792 22.8043L43.2425 21.1983L43.6929 19.5923L44.1434 17.9863L44.744 16.7015L45.1944 15.7379L45.795 15.0955L46.3956 14.7743L46.9962 14.4531H141.291L141.741 14.7743L142.342 15.0955L142.792 15.7379L143.393 16.7015L143.843 17.9863L144.294 19.5923L144.744 21.1983L145.194 22.8043L145.645 25.0527L145.945 27.3011L146.245 29.5495L146.396 31.7979L146.696 34.3675L146.846 37.2583V39.8279L146.996 42.7187L146.846 45.6094V48.5002L146.696 51.0698L146.396 53.6394L146.245 56.209L145.945 58.4574L145.645 60.7058L145.194 62.633L144.744 64.5602L144.294 66.1662L143.843 67.7722L143.393 68.7358L142.792 69.6994L142.342 70.3418L141.741 70.9842H141.291Z" fill="#B2B2B2"/>
<path d="M141.291 59.4203H46.9962H46.3956L45.795 59.0991L45.1944 58.7779L44.744 58.1355L44.1434 57.4931L43.6929 56.5295L43.2425 55.5659L42.792 54.6023L42.3416 53.3176L42.0413 52.0328L41.741 50.748L41.4407 49.142L41.2905 47.8572L41.1404 46.2512L40.9902 44.6452V42.718V41.112L41.1404 39.1848L41.2905 37.5788L41.4407 36.294L41.741 34.688L42.0413 33.4032L42.3416 32.1184L42.792 30.8336L43.2425 29.87L43.6929 28.9064L44.1434 27.9428L44.744 27.3004L45.1944 26.9792L45.795 26.658L46.3956 26.3368L46.9962 26.0156H141.291L141.741 26.3368L142.342 26.658L142.792 26.9792L143.393 27.3004L143.843 27.9428L144.294 28.9064L144.744 29.87L145.194 30.8336L145.645 32.1184L145.945 33.4032L146.245 34.688L146.396 36.294L146.696 37.5788L146.846 39.1848V41.112L146.996 42.718L146.846 44.6452V46.2512L146.696 47.8572L146.396 49.142L146.245 50.748L145.945 52.0328L145.645 53.3176L145.194 54.6023L144.744 55.5659L144.294 56.5295L143.843 57.4931L143.393 58.1355L142.792 58.7779L142.342 59.0991L141.741 59.4203H141.291Z" fill="#CCCCCC"/>
<path d="M93.9932 48.5007C123.266 48.5007 146.996 45.9122 146.996 42.7191C146.996 39.526 123.266 36.9375 93.9932 36.9375C64.7205 36.9375 40.9902 39.526 40.9902 42.7191C40.9902 45.9122 64.7205 48.5007 93.9932 48.5007Z" fill="#E5E5E5"/>
<path d="M141.291 85.7602H46.9962H46.6959H46.3956L46.0953 85.439L45.795 85.1178L45.4947 84.4754L45.1944 83.833L45.0443 83.1906L44.744 82.5482L44.4437 81.5846L44.1434 80.621L43.8431 79.6574L43.6929 78.3726L43.3926 77.409L43.2425 76.1242L42.9422 74.8394L42.792 73.2334L42.6419 71.6274L42.3416 70.3426L42.1914 68.4154L42.0413 66.8094L41.8911 65.2034L41.741 63.2762L41.5908 61.349L41.4407 59.4218V57.4946L41.2905 55.5675L41.1404 53.6403V51.3919V49.4647L40.9902 47.2163V44.9679V42.7195V40.4711V38.5439L41.1404 36.2955V34.0471V32.1199L41.2905 30.1927L41.4407 27.9443V26.0171L41.5908 24.0899L41.741 22.4839L41.8911 20.5567L42.0413 18.9507L42.1914 17.0236L42.3416 15.4176L42.6419 13.8116L42.792 12.5268L42.9422 10.9208L43.2425 9.63597L43.3926 8.35118L43.6929 7.06638L43.8431 6.10278L44.1434 5.13919L44.4437 4.17559L44.744 3.21199L45.0443 2.56959L45.1944 1.606L45.4947 1.2848L45.795 0.642398L46.0953 0.321199L46.3956 0H46.6959H46.9962H141.291H141.441H141.741L142.041 0.321199L142.342 0.642398L142.642 1.2848L142.792 1.606L143.092 2.56959L143.393 3.21199L143.693 4.17559L143.843 5.13919L144.143 6.10278L144.294 7.06638L144.594 8.35118L144.744 9.63597L145.044 10.9208L145.194 12.5268L145.345 13.8116L145.645 15.4176L145.795 17.0236L145.945 18.9507L146.095 20.5567L146.245 22.4839L146.396 24.0899V26.0171L146.546 27.9443L146.696 30.1927V32.1199L146.846 34.0471V36.2955V38.5439L146.996 40.4711V42.7195V44.9679L146.846 47.2163V49.4647V51.3919L146.696 53.6403V55.5675L146.546 57.4946L146.396 59.4218V61.349L146.245 63.2762L146.095 65.2034L145.945 66.8094L145.795 68.4154L145.645 70.3426L145.345 71.6274L145.194 73.2334L145.044 74.8394L144.744 76.1242L144.594 77.409L144.294 78.3726L144.143 79.6574L143.843 80.621L143.693 81.5846L143.393 82.5482L143.092 83.1906L142.792 83.833L142.642 84.4754L142.342 85.1178L142.041 85.439L141.741 85.7602H141.441H141.291Z" stroke="black" stroke-width="0.439218"/>
<path d="M91.1406 0H91.2908H91.5911L91.7412 0.321199L92.0415 0.642398L92.1917 1.2848L92.3418 1.606L92.6421 2.56959L92.7923 3.21199L92.9424 4.17559L93.2427 5.13919L93.3929 6.10278L93.543 7.06638L93.6932 8.35118L93.8433 9.63597L93.9935 10.9208L94.1436 12.5268L94.2938 13.8116L94.4439 15.4176V17.0236L94.5941 18.9507L94.7442 20.5567L94.8944 22.4839V24.0899L95.0445 26.0171V27.9443L95.1947 30.1927V32.1199V34.0471L95.3448 36.2955V38.5439V40.4711V42.7195V44.9679V47.2163V49.4647L95.1947 51.3919V53.6403V55.5675L95.0445 57.4946V59.4218L94.8944 61.349V63.2762L94.7442 65.2034L94.5941 66.8094L94.4439 68.4154V70.3426L94.2938 71.6274L94.1436 73.2334L93.9935 74.8394L93.8433 76.1242L93.6932 77.409L93.543 78.3726L93.3929 79.6574L93.2427 80.621L92.9424 81.5846L92.7923 82.5482L92.6421 83.1906L92.3418 83.833L92.1917 84.4754L92.0415 85.1178L91.7412 85.439L91.5911 85.7602H91.2908H91.1406" stroke="#7F7F7F" stroke-width="0.439218"/>
<path d="M44.8945 0H45.1948H45.345L45.6453 0.321199L45.7954 0.642398L45.9456 1.2848L46.2459 1.606L46.396 2.56959L46.5462 3.21199L46.8465 4.17559L46.9966 5.13919L47.1468 6.10278L47.2969 7.06638L47.4471 8.35118L47.5972 9.63597L47.7474 10.9208L47.8975 12.5268L48.0477 13.8116L48.1978 15.4176L48.348 17.0236V18.9507L48.4981 20.5567L48.6483 22.4839V24.0899L48.7984 26.0171L48.9486 27.9443V30.1927V32.1199L49.0987 34.0471V36.2955V38.5439V40.4711V42.7195V44.9679V47.2163V49.4647V51.3919L48.9486 53.6403V55.5675V57.4946L48.7984 59.4218L48.6483 61.349V63.2762L48.4981 65.2034L48.348 66.8094V68.4154L48.1978 70.3426L48.0477 71.6274L47.8975 73.2334L47.7474 74.8394L47.5972 76.1242L47.4471 77.409L47.2969 78.3726L47.1468 79.6574L46.9966 80.621L46.8465 81.5846L46.5462 82.5482L46.396 83.1906L46.2459 83.833L45.9456 84.4754L45.7954 85.1178L45.6453 85.439L45.345 85.7602H45.1948H44.8945" stroke="black" stroke-width="0.439218"/>
<path d="M43.9941 105.672H64.1143V132.653H43.9941V105.672Z" fill="#999999" stroke="black" stroke-width="0.439218"/>
<path d="M133.783 98.6094H135.885L141.291 143.577H139.189L133.783 98.6094Z" fill="#7F7F7F" stroke="black" stroke-width="0.439218"/>
<path d="M53.3027 65.2031H149.849V79.3359H53.3027V65.2031Z" fill="#4C4C4C" stroke="black" stroke-width="0.439218"/>
<path d="M137.387 62.6328H139.789V88.9711H137.387V62.6328Z" fill="#999999" stroke="black" stroke-width="0.439218"/>
<path d="M111.562 62.6328H113.965V88.9711H111.562V62.6328Z" fill="#999999" stroke="black" stroke-width="0.439218"/>
<path d="M85.7363 62.6328H88.1387V88.9711H85.7363V62.6328Z" fill="#999999" stroke="black" stroke-width="0.439218"/>
<path d="M59.9102 62.6328H62.3126V88.9711H59.9102V62.6328Z" fill="#999999" stroke="black" stroke-width="0.439218"/>
<path d="M19.6692 150.003C25.3081 150.003 29.8794 140.225 29.8794 128.162C29.8794 116.099 25.3081 106.32 19.6692 106.32C14.0303 106.32 9.45898 116.099 9.45898 128.162C9.45898 140.225 14.0303 150.003 19.6692 150.003Z" fill="#666666" stroke="black" stroke-width="0.439218"/>
<path d="M19.6696 139.076C22.489 139.076 24.7747 134.187 24.7747 128.155C24.7747 122.124 22.489 117.234 19.6696 117.234C16.8501 117.234 14.5645 122.124 14.5645 128.155C14.5645 134.187 16.8501 139.076 19.6696 139.076Z" fill="#CCCCCC" stroke="black" stroke-width="0.439218"/>
<path d="M30.4805 123.663V118.523H43.0931V123.663H30.4805Z" fill="#999999" stroke="black" stroke-width="0.439218"/>
<path d="M23.873 106.319V101.18H36.4857V106.319H23.873Z" fill="#999999" stroke="black" stroke-width="0.439218"/>
</g>
<defs>
<clipPath id="clip0_2122_161407">
<rect width="150" height="150" fill="white"/>
</clipPath>
</defs>
</svg>
