<svg width="150" height="150" viewBox="0 0 150 150" fill="none" xmlns="http://www.w3.org/2000/svg">
<g clip-path="url(#clip0_2122_162279)">
<path d="M99.2493 0L126.276 32.4658L128.078 31.6438L130.03 30.8219L131.832 30L133.483 29.589L135.135 28.7671L136.787 28.3562L138.288 27.9452L139.79 27.5342L141.141 27.1233H142.342L143.544 26.7123H144.595H145.495H146.396H147.147H147.598L145.796 47.6712L150 54.2466V100.685L128.529 125.753L128.228 129.863L127.628 133.562L126.877 137.26L125.676 140.548L124.324 143.836L122.823 146.301L121.171 148.356L119.369 149.589L117.417 150H115.616L113.664 148.767L111.712 146.712L109.91 143.425L108.108 138.904L106.607 133.562L105.105 126.575H40.3904L39.4895 131.507L38.5886 136.027L37.2372 140.137L35.8859 143.425L34.3844 145.89L32.7327 147.945L30.9309 149.589L29.1291 150H27.3273L25.5255 149.589L23.8739 147.945L22.2222 145.89L20.5706 142.603L19.2192 138.904L18.018 134.384L16.967 128.63H6.30631L5.85586 128.219L5.55556 127.397L5.1051 126.575L4.95496 125.753L4.65465 124.932L4.5045 123.699L4.35435 122.877V121.644L3.9039 119.589L3.6036 117.945L3.003 116.301L2.55255 114.658L1.95195 113.014L1.5015 111.781L0.750751 110.548L0.15015 109.726L0 96.5753V94.9315H0.45045L1.05105 95.3425L1.65165 94.5206L4.35435 73.5616L19.8198 62.0548L21.6216 50.137L24.024 48.9041L26.2763 48.0822L28.3784 46.8493L30.4805 46.0274L32.2823 45.6164L34.0841 44.7945L35.7357 44.3836H37.2372L38.5886 43.9726H39.7898L40.8408 43.5616H41.7417H42.3423H42.9429H43.2432L44.1441 42.7397L45.3453 41.0959L46.8468 38.6301L48.6486 36.1644L50.6006 32.8767L52.8529 29.589L55.1051 25.8904L57.5075 21.7808L59.9099 18.0822L62.3123 14.3836L64.4144 11.0959L66.5165 7.80822L68.3183 4.93151L69.97 2.46575L71.1712 0.821918L72.0721 0H99.2493Z" fill="#FF0000" stroke="black" stroke-width="0.496812"/>
<path d="M117.268 133.15C120.585 133.15 123.274 125.79 123.274 116.712C123.274 107.633 120.585 100.273 117.268 100.273C113.951 100.273 111.262 107.633 111.262 116.712C111.262 125.79 113.951 133.15 117.268 133.15Z" fill="#FF0000" stroke="black" stroke-width="0.496812"/>
<path d="M28.6786 133.559C31.7469 133.559 34.2342 126.752 34.2342 118.354C34.2342 109.956 31.7469 103.148 28.6786 103.148C25.6104 103.148 23.123 109.956 23.123 118.354C23.123 126.752 25.6104 133.559 28.6786 133.559Z" fill="#FF0000" stroke="black" stroke-width="0.496812"/>
<path d="M74.3235 5.34375L65.3145 43.5629H83.3325L85.4346 18.0835L86.0352 17.2616L86.7859 16.4396L87.3865 16.0287H88.1373H88.888L89.6388 16.4396L90.2394 16.8506L90.6898 18.0835L91.2904 25.0698L91.7409 30.4122L92.0412 34.9328L92.3415 38.2205L92.4916 40.6862L92.7919 41.9191V41.0972V39.4533V36.5766L92.6418 33.289L92.3415 29.1794L92.0412 24.2479L91.7409 18.4944L91.4406 12.3301L90.9901 5.34375H74.3235Z" fill="#FF0000" stroke="black" stroke-width="0.496812"/>
<path d="M72.0716 5.34375L48.498 43.5629H62.3119L72.0716 5.34375Z" fill="#FF0000" stroke="black" stroke-width="0.496812"/>
<path d="M99.2501 5.34375H99.0999H98.6495H98.0489H97.4483H96.8477H96.2471H95.7966H95.6465L97.7486 43.5629H116.217H117.719L118.92 43.152L119.821 42.741L120.421 41.9191L120.722 40.6862V39.0424L120.421 37.3985L119.671 35.3437L118.619 32.878L117.268 30.0013L115.316 27.1246L113.064 23.4259L110.361 19.7273L107.058 15.2068L103.454 10.2753L99.2501 5.34375Z" fill="#FF0000" stroke="black" stroke-width="0.496812"/>
</g>
<defs>
<clipPath id="clip0_2122_162279">
<rect width="150" height="150" fill="white"/>
</clipPath>
</defs>
</svg>
