<svg width="150" height="150" viewBox="0 0 150 150" fill="none" xmlns="http://www.w3.org/2000/svg">
<g clip-path="url(#clip0_2122_161831)">
<path fill-rule="evenodd" clip-rule="evenodd" d="M68.018 0H81.8318V150H68.018V0ZM48.7988 4.2042L62.012 0.750751L101.051 145.646L87.8378 149.099L48.7988 4.2042ZM31.3814 13.3634L43.3934 6.60661L118.468 136.486L106.456 143.243L31.3814 13.3634ZM16.967 26.5766L26.5766 16.967L132.883 123.273L123.273 132.883L16.967 26.5766ZM6.60661 43.3934L13.3634 31.3814L143.243 106.456L136.486 118.468L6.60661 43.3934ZM0.750751 62.012L4.2042 48.7988L149.099 87.8378L145.646 101.051L0.750751 62.012ZM0 81.8318V68.018H150V81.8318H0ZM4.2042 101.051L0.750751 87.8378L145.646 48.7988L149.099 62.012L4.2042 101.051ZM13.3634 118.468L6.60661 106.456L136.486 31.3814L143.243 43.3934L13.3634 118.468ZM26.5766 132.883L16.967 123.273L123.273 16.967L132.883 26.5766L26.5766 132.883ZM43.3934 143.243L31.3814 136.486L106.456 6.60661L118.468 13.3634L43.3934 143.243ZM62.012 149.099L48.7988 145.646L87.8378 0.750751L101.051 4.2042L62.012 149.099Z" fill="black"/>
<path d="M102.552 141.591L84.2339 146.396H65.6153L47.297 141.591L31.0808 132.282L17.5672 118.768L8.25793 102.552L3.45312 84.2339V65.6153L8.25793 47.297L17.5672 31.0808L31.0808 17.5672L47.297 8.25793L65.6153 3.45312H84.2339L102.552 8.25793L119.069 17.5672L132.282 31.0808L141.591 47.297L146.396 65.6153V84.2339L141.591 102.552L132.282 118.768L118.768 132.282L102.552 141.591Z" fill="#333333" stroke="black" stroke-width="0.3003"/>
<path d="M74.9256 105.558C91.8424 105.558 105.556 91.8443 105.556 74.9275C105.556 58.0107 91.8424 44.2969 74.9256 44.2969C58.0087 44.2969 44.2949 58.0107 44.2949 74.9275C44.2949 91.8443 58.0087 105.558 74.9256 105.558Z" fill="#4C4C4C"/>
<path d="M84.2342 97.1491L77.9279 98.6506H71.9219L65.6156 97.1491L60.2102 94.1461L55.7057 89.6416L52.7027 84.2362L51.2012 77.9299V71.9238L52.7027 65.6175L56.006 60.2121L60.2102 55.7076L65.6156 52.7046L71.9219 51.2031H77.9279L84.2342 52.7046L89.6396 55.7076L93.8438 60.2121L97.1471 65.6175L98.6486 71.9238V77.9299L97.1471 84.2362L94.1441 89.6416L89.6396 94.1461L84.2342 97.1491Z" fill="#CC9900" stroke="black" stroke-width="0.3003"/>
<path d="M78.2285 78.2266L90.8411 81.5299L88.4387 85.4338L85.4357 88.4368L81.5318 90.8392L78.2285 78.2266Z" fill="black"/>
<path d="M71.6224 78.2266L68.3191 90.8392L64.4152 88.4368L61.4122 85.4338L59.0098 81.5299L71.6224 78.2266Z" fill="black"/>
<path d="M71.6224 71.6204L59.0098 68.3171L61.4122 64.4132L64.4152 61.4102L68.3191 59.0078L71.6224 71.6204Z" fill="black"/>
<path d="M78.2285 71.6204L81.5318 59.0078L85.4357 61.4102L88.4387 64.4132L90.8411 68.3171L78.2285 71.6204Z" fill="black"/>
</g>
<defs>
<clipPath id="clip0_2122_161831">
<rect width="150" height="150" fill="white"/>
</clipPath>
</defs>
</svg>
