<svg width="150" height="150" viewBox="0 0 150 150" fill="none" xmlns="http://www.w3.org/2000/svg">
<g clip-path="url(#clip0_2122_161714)">
<path d="M42 16.0156V120.506H44.1V16.0156H42Z" fill="#7F7F7F" stroke="black" stroke-width="0.660979"/>
<path d="M39.6 141.99V0H33V136.529H0V141.99H39.6Z" fill="black" stroke="black" stroke-width="0.660979"/>
<path d="M52.8008 99.0287V64.4413H61.8008L63.9008 66.9898L66.3008 64.4413L59.7008 56.4316L61.8008 53.519L75.0008 69.5384L72.9008 72.451L68.4008 66.9898L66.3008 69.5384L72.9008 77.5481V96.4801H92.7008V93.9316H91.5008H90.6008H89.4008H88.2008L87.6008 93.2034L87.3008 91.019L87.6008 89.1986L88.2008 88.4704H102.601L103.801 77.5481H101.701H99.6008H97.5008H95.4008H93.3008H91.2008H89.1008H87.0008L86.4008 76.8199L85.8008 74.9995L85.5008 73.1792L86.1008 72.451H103.801L105.901 48.4219H110.401V99.0287H52.8008Z" fill="black" stroke="black" stroke-width="0.660979"/>
<path d="M48.5996 136.533V96.4844H145.5V136.533H48.5996Z" fill="#CC3300" stroke="black" stroke-width="0.660979"/>
<path d="M130.2 150C137.49 150 143.4 142.828 143.4 133.98C143.4 125.133 137.49 117.961 130.2 117.961C122.91 117.961 117 125.133 117 133.98C117 142.828 122.91 150 130.2 150Z" fill="#4C4C4C" stroke="black" stroke-width="0.660979"/>
<path d="M52.8004 149.639C62.4101 149.639 70.2004 140.185 70.2004 128.523C70.2004 116.86 62.4101 107.406 52.8004 107.406C43.1906 107.406 35.4004 116.86 35.4004 128.523C35.4004 140.185 43.1906 149.639 52.8004 149.639Z" fill="#4C4C4C" stroke="black" stroke-width="0.660979"/>
<path d="M130.2 141.988C133.845 141.988 136.8 138.402 136.8 133.978C136.8 129.555 133.845 125.969 130.2 125.969C126.555 125.969 123.6 129.555 123.6 133.978C123.6 138.402 126.555 141.988 130.2 141.988Z" fill="#191919" stroke="black" stroke-width="0.660979"/>
<path d="M52.7996 139.077C57.6045 139.077 61.4996 134.35 61.4996 128.519C61.4996 122.688 57.6045 117.961 52.7996 117.961C47.9947 117.961 44.0996 122.688 44.0996 128.519C44.0996 134.35 47.9947 139.077 52.7996 139.077Z" fill="#191919" stroke="black" stroke-width="0.660979"/>
<path d="M72.9004 125.969H88.2004V128.517H72.9004V125.969Z" fill="#E5E5E5" stroke="black" stroke-width="0.660979"/>
<path d="M72.9004 112.5H88.2004V115.049H72.9004V112.5Z" fill="#E5E5E5" stroke="black" stroke-width="0.660979"/>
<path d="M68.4008 99.7578L77.4008 141.263L75.3008 141.991L66.3008 100.486L68.4008 99.7578Z" fill="#CC3300" stroke="black" stroke-width="0.660979"/>
<path d="M35.4004 99.0312H69.6004V104.492H35.4004V99.0312Z" fill="#FF6600" stroke="black" stroke-width="0.660979"/>
<path d="M150 139.442L147.9 85.9221H114.6L105.9 5.46094H57.2996L48.5996 85.9221V96.4804H52.7996V85.9221L61.7996 16.0192H101.4L110.4 85.9221V96.4804H119.1V101.942H88.1996V139.442H114.6L119.1 112.5H141.3L145.5 139.442H150Z" fill="#FF6600" stroke="black" stroke-width="0.660979"/>
</g>
<defs>
<clipPath id="clip0_2122_161714">
<rect width="150" height="150" fill="white"/>
</clipPath>
</defs>
</svg>
