<svg width="150" height="150" viewBox="0 0 150 150" fill="none" xmlns="http://www.w3.org/2000/svg">
<g clip-path="url(#clip0_2122_161513)">
<path d="M12.6122 149.998C15.6804 149.998 18.1678 140.761 18.1678 129.366C18.1678 117.972 15.6804 108.734 12.6122 108.734C9.54395 108.734 7.05664 117.972 7.05664 129.366C7.05664 140.761 9.54395 149.998 12.6122 149.998Z" fill="black" stroke="black" stroke-width="0.578712"/>
<path d="M12.4625 139.402C13.9551 139.402 15.1652 134.909 15.1652 129.365C15.1652 123.822 13.9551 119.328 12.4625 119.328C10.9698 119.328 9.75977 123.822 9.75977 129.365C9.75977 134.909 10.9698 139.402 12.4625 139.402Z" fill="white" stroke="black" stroke-width="0.578712"/>
<path d="M12.6136 133.268C13.194 133.268 13.6646 131.52 13.6646 129.364C13.6646 127.209 13.194 125.461 12.6136 125.461C12.0331 125.461 11.5625 127.209 11.5625 129.364C11.5625 131.52 12.0331 133.268 12.6136 133.268Z" fill="black" stroke="black" stroke-width="0.578712"/>
<path d="M22.0723 49.6283H23.5738H24.6248H25.5257H26.1263H26.5768H26.8771H27.0272H27.3275H27.6278H27.9281H28.3786H28.9792H29.8801H30.9311H32.4326H34.0843V0L32.5828 1.67286L22.0723 49.6283Z" fill="#FF0000" stroke="black" stroke-width="0.578712"/>
<path d="M20.8704 51.8555L20.2698 49.625H19.0686V51.8555L16.6662 55.2012H17.5671H18.7683L17.5671 74.1603H18.7683L19.6692 58.5469H24.474V74.1603H17.5671L12.462 76.3908L11.8614 76.9484L11.1106 78.0637L10.3598 78.6213L9.6091 79.1789L8.85835 79.7365L8.1076 80.2941L7.35685 80.8518L6.75625 81.967L6.0055 82.5246L5.25475 83.0822L4.50399 83.6399L3.75324 84.7551L3.00249 85.3127L2.25174 85.8704L1.50099 86.9856L0.900391 87.5432V118.77L6.15565 121L6.6061 117.097L7.2067 114.309L7.95745 111.521L8.7082 109.29L9.6091 107.06L10.6602 105.945L11.5611 105.387L12.6121 104.829H13.6632L14.5641 105.945L15.465 107.06L16.3659 108.733L17.1166 110.963L17.7172 113.751L18.1677 117.097L18.468 121H19.3689V134.383H19.6692L19.8193 133.826V133.268L20.1196 132.711L20.2698 132.153L20.5701 131.595H21.0205L21.3208 131.038H21.9214L22.3719 130.48H22.9725H23.4229H24.0235H24.7743H25.3749H25.9755H26.7262H27.3268H28.0776L28.6782 131.038H29.2788H30.0295H30.6301L31.2307 131.595H31.6812H32.2818H32.7322L33.1827 132.153H33.6331H33.9334H34.2337H34.534H34.6842V129.922V127.692V125.461V123.231V121V118.212V115.982V113.751V111.521V108.733V106.502V104.272V102.041L34.534 99.2533V97.0228V94.7923V92.0042V89.7737V87.5432V84.7551V82.5246V80.2941V77.506V75.2756V73.0451L34.3839 70.257V68.0265V65.2384V63.0079V60.2198V57.9893V55.2012L34.0836 54.086V52.9707H33.483H32.2818H31.0806H30.0295H29.2788H28.528H27.9274H27.3268H27.0265H26.7262H26.4259H26.2758H26.1256V52.4131H25.9755H25.8253H25.525H25.2247H24.7743H24.1737L23.5731 51.8555H22.8223H21.9214H20.8704Z" fill="#FF0000"/>
<path d="M17.5671 74.1603L18.7683 55.2012H17.5671H16.6662L19.0686 51.8555V49.625H20.2698L20.8704 51.8555H21.9214H22.8223H23.5731L24.1737 52.4131H24.7743H25.2247H25.525H25.8253H25.9755H26.1256V52.9707H26.2758H26.4259H26.7262H27.0265H27.3268H27.9274H28.528H29.2788H30.0295H31.0806H32.2818H33.483H34.0836V54.086L34.3839 55.2012V57.9893V60.2198V63.0079V65.2384V68.0265V70.257L34.534 73.0451V75.2756V77.506V80.2941V82.5246V84.7551V87.5432V89.7737V92.0042V94.7923V97.0228V99.2533L34.6842 102.041V104.272V106.502V108.733V111.521V113.751V115.982V118.212V121V123.231V125.461V127.692V129.922V132.153H34.534H34.2337H33.9334H33.6331H33.1827L32.7322 131.595H32.2818H31.6812H31.2307L30.6301 131.038H30.0295H29.2788H28.6782L28.0776 130.48H27.3268H26.7262H25.9755H25.3749H24.7743H24.0235H23.4229H22.9725H22.3719L21.9214 131.038H21.3208L21.0205 131.595H20.5701L20.2698 132.153L20.1196 132.711L19.8193 133.268V133.826L19.6692 134.383H19.3689V121H18.468L18.1677 117.097L17.7172 113.751L17.1166 110.963L16.3659 108.733L15.465 107.06L14.5641 105.945L13.6632 104.829H12.6121L11.5611 105.387L10.6602 105.945L9.6091 107.06L8.7082 109.29L7.95745 111.521L7.2067 114.309L6.6061 117.097L6.15565 121L0.900391 118.77V87.5432L1.50099 86.9856L2.25174 85.8704L3.00249 85.3127L3.75324 84.7551L4.50399 83.6399L5.25474 83.0822L6.0055 82.5246L6.75625 81.967L7.35685 80.8518L8.1076 80.2941L8.85835 79.7365L9.6091 79.1789L10.3599 78.6213L11.1106 78.0637L11.8614 76.9484L12.462 76.3908L17.5671 74.1603ZM17.5671 74.1603H18.7683L19.6692 58.5469H24.474V74.1603H17.5671Z" stroke="black" stroke-width="0.578712"/>
<path d="M19.6699 114.309V112.078H25.9762V114.309H19.6699Z" fill="#E5E5E5" stroke="black" stroke-width="0.578712"/>
<path d="M19.6699 131.039V117.656H25.9762V131.039H19.6699Z" fill="#E5E5E5" stroke="black" stroke-width="0.578712"/>
<path d="M29.2793 131.043V110.969H33.4835V131.043H29.2793Z" fill="#E5E5E5" stroke="black" stroke-width="0.578712"/>
<path d="M26.877 131.043V110.969H28.9791V131.043H26.877Z" fill="#E5E5E5" stroke="black" stroke-width="0.578712"/>
<path d="M33.7832 131.043V110.969H35.8853V131.043H33.7832Z" fill="#E5E5E5" stroke="black" stroke-width="0.578712"/>
<path d="M27.7784 52.9728V63.01H28.0787V100.928H27.4781V108.735H26.5772V100.928H25.9766V63.01H26.2769V38.4747L26.427 36.8018L26.5772 35.129L26.8775 33.4561L27.0276 32.3408L27.3279 31.2256L27.6282 30.1104L28.0787 29.5527L28.379 28.4375V35.129V35.6866L28.2288 36.2442L28.0787 36.8018L27.9285 37.3594V37.9171L27.7784 38.4747V52.9728Z" fill="#E5E5E5" stroke="black" stroke-width="0.578712"/>
<path d="M3.45345 119.887L0 117.656V132.154L3.45345 133.27V119.887Z" fill="#E5E5E5" stroke="black" stroke-width="0.578712"/>
<path d="M38.2891 99.8146V83.0859H149.851V99.8146H38.2891Z" fill="#4C4C4C" stroke="black" stroke-width="0.578712"/>
<path d="M53.3034 105.387V108.732L53.1533 109.29L52.853 110.405L52.7028 110.963L52.4025 111.521L52.2524 112.636L51.9521 113.193L51.8019 113.751L51.6518 114.866L51.3515 115.424L51.2013 116.539L51.0512 117.097L50.901 118.212L50.7509 119.327L50.6007 120.442L50.4506 121L50.3004 122.115L50.1503 120.442L50.0001 118.77L49.6998 117.097L49.3995 115.424L49.0992 114.309L48.7989 112.636L48.3485 111.521L47.898 110.963L47.4476 109.848L46.9971 108.732L46.5467 108.175L46.0962 107.617L45.4956 107.06H45.0452L44.5947 106.502H43.9941V103.156L53.3034 105.387Z" fill="black" stroke="black" stroke-width="0.578712"/>
<path d="M51.8009 105.389V99.8125H45.7949V103.158L51.8009 105.389Z" fill="white" stroke="black" stroke-width="0.578712"/>
<path d="M40.691 106.508L40.3907 107.065L39.9403 108.181L39.64 108.738L39.3397 109.854L38.8892 110.969L38.5889 112.642L38.2886 113.757L38.1385 115.43L37.8382 117.103L37.688 118.775L37.3877 120.448L37.2376 122.679L37.0874 124.352L36.9373 126.025V128.255L36.7871 129.928H37.688V128.813L37.8382 127.14V125.467L37.9883 124.352L38.1385 122.679L38.2886 121.564V119.891L38.5889 118.775L38.7391 117.66L39.0394 116.545L39.1895 114.872L39.4898 113.757L39.7901 112.642L40.0904 112.084L40.3907 110.969L40.691 109.854V106.508Z" fill="black" stroke="black" stroke-width="0.578712"/>
<path d="M35.8867 127.693V113.195H38.2891V114.311L38.139 114.868L37.9888 115.983L37.8387 117.099V117.656L37.6885 118.772L37.5384 119.887L37.3882 120.444V121.56L37.2381 122.675V123.232L37.0879 124.348V125.463L36.9378 126.021V127.136L36.7876 127.693H35.8867Z" fill="black" stroke="black" stroke-width="0.578712"/>
<path d="M62.6128 144.426H63.5137V110.969H61.1113L61.4116 112.642L61.5618 113.757L61.8621 115.43L62.1624 117.103L62.3125 118.775L62.4627 120.448L62.6128 122.121V123.236V144.426Z" fill="black" stroke="black" stroke-width="0.578712"/>
<path d="M95.9453 113.195H112.762L113.513 110.965L114.264 109.292L115.014 107.619L115.765 106.504L116.516 105.946H117.267H118.017L118.768 106.504L119.519 107.062L120.27 108.177L120.87 109.292L121.471 110.965L122.071 112.638L122.672 114.868L123.122 117.656L123.573 119.887H123.873L124.023 117.656L124.324 114.868L124.924 112.638L125.375 110.965L125.975 109.292L126.726 108.177L127.327 107.062L128.228 106.504L128.978 105.946H129.729L130.63 106.504L131.381 107.062L132.132 108.177L133.032 109.85L133.633 112.08L134.384 114.311H135.885V144.422H136.786V114.311H144.444V128.809H145.345V99.8125H95.9453V113.195Z" fill="black" stroke="black" stroke-width="0.578712"/>
<path d="M44.1434 149.998C47.2117 149.998 49.699 140.761 49.699 129.366C49.699 117.972 47.2117 108.734 44.1434 108.734C41.0752 108.734 38.5879 117.972 38.5879 129.366C38.5879 140.761 41.0752 149.998 44.1434 149.998Z" fill="black" stroke="black" stroke-width="0.578712"/>
<path d="M44.1439 139.963C45.7195 139.963 46.9967 135.22 46.9967 129.368C46.9967 123.517 45.7195 118.773 44.1439 118.773C42.5683 118.773 41.291 123.517 41.291 129.368C41.291 135.22 42.5683 139.963 44.1439 139.963Z" fill="white" stroke="black" stroke-width="0.578712"/>
<path d="M44.1448 133.268C44.7253 133.268 45.1959 131.52 45.1959 129.364C45.1959 127.209 44.7253 125.461 44.1448 125.461C43.5643 125.461 43.0938 127.209 43.0938 129.364C43.0938 131.52 43.5643 133.268 44.1448 133.268Z" fill="black" stroke="black" stroke-width="0.578712"/>
<path d="M56.4559 149.998C59.5242 149.998 62.0115 140.761 62.0115 129.366C62.0115 117.972 59.5242 108.734 56.4559 108.734C53.3877 108.734 50.9004 117.972 50.9004 129.366C50.9004 140.761 53.3877 149.998 56.4559 149.998Z" fill="black" stroke="black" stroke-width="0.578712"/>
<path d="M56.607 139.402C58.0997 139.402 59.3097 134.909 59.3097 129.365C59.3097 123.822 58.0997 119.328 56.607 119.328C55.1143 119.328 53.9043 123.822 53.9043 129.365C53.9043 134.909 55.1143 139.402 56.607 139.402Z" fill="white" stroke="black" stroke-width="0.578712"/>
<path d="M56.4573 133.268C57.0378 133.268 57.5084 131.52 57.5084 129.364C57.5084 127.209 57.0378 125.461 56.4573 125.461C55.8768 125.461 55.4062 127.209 55.4062 129.364C55.4062 131.52 55.8768 133.268 56.4573 133.268Z" fill="black" stroke="black" stroke-width="0.578712"/>
<path d="M117.718 149.998C120.786 149.998 123.273 140.761 123.273 129.366C123.273 117.972 120.786 108.734 117.718 108.734C114.649 108.734 112.162 117.972 112.162 129.366C112.162 140.761 114.649 149.998 117.718 149.998Z" fill="black" stroke="black" stroke-width="0.578712"/>
<path d="M117.718 139.963C119.294 139.963 120.571 135.22 120.571 129.368C120.571 123.517 119.294 118.773 117.718 118.773C116.143 118.773 114.865 123.517 114.865 129.368C114.865 135.22 116.143 139.963 117.718 139.963Z" fill="white" stroke="black" stroke-width="0.578712"/>
<path d="M117.717 133.268C118.298 133.268 118.768 131.52 118.768 129.364C118.768 127.209 118.298 125.461 117.717 125.461C117.137 125.461 116.666 127.209 116.666 129.364C116.666 131.52 117.137 133.268 117.717 133.268Z" fill="black" stroke="black" stroke-width="0.578712"/>
<path d="M129.729 149.998C132.798 149.998 135.285 140.761 135.285 129.366C135.285 117.972 132.798 108.734 129.729 108.734C126.661 108.734 124.174 117.972 124.174 129.366C124.174 140.761 126.661 149.998 129.729 149.998Z" fill="black" stroke="black" stroke-width="0.578712"/>
<path d="M129.58 139.402C131.072 139.402 132.282 134.909 132.282 129.365C132.282 123.822 131.072 119.328 129.58 119.328C128.087 119.328 126.877 123.822 126.877 129.365C126.877 134.909 128.087 139.402 129.58 139.402Z" fill="white" stroke="black" stroke-width="0.578712"/>
<path d="M129.729 133.268C130.309 133.268 130.78 131.52 130.78 129.364C130.78 127.209 130.309 125.461 129.729 125.461C129.148 125.461 128.678 127.209 128.678 129.364C128.678 131.52 129.148 133.268 129.729 133.268Z" fill="black" stroke="black" stroke-width="0.578712"/>
</g>
<defs>
<clipPath id="clip0_2122_161513">
<rect width="150" height="150" fill="white"/>
</clipPath>
</defs>
</svg>
