<svg width="150" height="150" viewBox="0 0 150 150" fill="none" xmlns="http://www.w3.org/2000/svg">
<g clip-path="url(#clip0_2122_162341)">
<path fill-rule="evenodd" clip-rule="evenodd" d="M7.35736 150L0 100H19.2192L29.7297 0H52.1021L54.2042 16.3158H80.1802L83.033 50H106.907L110.961 100H149.85L144.294 150H7.35736ZM53.003 50H72.6727L73.5736 66.3158H54.2042L53.003 50ZM24.3243 100H106.156L103.303 66.3158H80.4805L77.4775 33.1579H50.9009L48.9489 16.3158H33.3333L24.3243 100ZM36.3363 35.2632L36.4865 32.1053L36.6366 30L36.7868 27.8947L37.2372 26.3158L37.5375 24.7368L38.1381 23.6842L38.7387 23.1579H39.4895H39.9399H40.2402L40.6907 23.6842H40.991L41.2913 24.2105L41.5916 24.7368L41.8919 25.2632L42.042 26.3158L42.4925 27.8947L42.7928 29.4737L42.9429 31.5789L43.0931 33.6842V35.2632L42.9429 36.8421V37.8947L42.7928 38.9474L42.6426 40L42.4925 41.0526L42.3423 42.1053L42.042 43.1579L41.5916 44.2105L40.991 45.2632L40.3904 46.3158H39.7898H39.039L38.2883 45.7895L37.6877 44.7368L37.2372 43.6842L36.9369 42.1053L36.6366 40L36.4865 37.8947L36.3363 35.2632Z" fill="#808080"/>
<path d="M7.35736 150L0 100H19.2192L29.7297 0H52.1021L54.2042 16.3158H80.1802L83.033 50H106.907L110.961 100H149.85L144.294 150H7.35736Z" stroke="black" stroke-width="0.562233"/>
<path d="M53.0039 50H72.6736L73.5745 66.3158H54.2051L53.0039 50Z" stroke="black" stroke-width="0.562233"/>
<path d="M24.3242 99.9967H106.156L103.303 66.3125H80.4804L77.4774 33.1546H50.9008L48.9488 16.3125H33.3332L24.3242 99.9967Z" stroke="black" stroke-width="0.562233"/>
<path d="M39.6392 46.3141C41.4636 46.3141 42.9425 41.1301 42.9425 34.7352C42.9425 28.3403 41.4636 23.1562 39.6392 23.1562C37.8149 23.1562 36.3359 28.3403 36.3359 34.7352C36.3359 41.1301 37.8149 46.3141 39.6392 46.3141Z" stroke="black" stroke-width="0.562233"/>
</g>
<defs>
<clipPath id="clip0_2122_162341">
<rect width="150" height="150" fill="white"/>
</clipPath>
</defs>
</svg>
