<svg width="150" height="150" viewBox="0 0 150 150" fill="none" xmlns="http://www.w3.org/2000/svg">
<path d="M32.7324 104.315H149.249V1.4375H32.7324V104.315Z" fill="#F2F2F2" stroke="black" stroke-width="0.464805"/>
<path d="M26.7277 133.815V30.9375H5.25622L2.25321 74.8224V111.513H0.601562V122.664H3.75472L14.4154 133.815H26.7277Z" fill="#FFCC00" stroke="black" stroke-width="0.464805"/>
<path d="M6.00616 111.508H16.6668L26.7269 119.062V133.81H14.4146L3.75391 122.659L6.00616 111.508Z" fill="#CC9900" stroke="black" stroke-width="0.464805"/>
<path d="M14.4141 111.513V30.9375" stroke="black" stroke-width="0.464805"/>
<path d="M4.50391 111.511V74.8203H14.4138" stroke="black" stroke-width="0.464805"/>
<path d="M2.25195 111.508H6.00571" stroke="black" stroke-width="0.464805"/>
<path d="M5.25616 36.3281H12.9138V69.4216H3.00391L5.25616 36.3281Z" fill="#A6BAD9"/>
<path d="M12.9138 36.3281H5.25616L3.00391 69.4216" stroke="black" stroke-width="0.464805"/>
<path d="M3.00391 69.4216H12.9138V36.3281" stroke="white" stroke-width="0.464805"/>
<path d="M26.7266 126.26H62.6124V115.469H26.7266V126.26Z" fill="#CCCCCC" stroke="black" stroke-width="0.464805"/>
<path d="M22.8223 139.213H35.1346V120.867H22.8223V139.213Z" fill="#E5E5CC" stroke="black" stroke-width="0.464805"/>
<path d="M36.6367 115.108H52.7028V107.914H36.6367V115.108Z" fill="#999999" stroke="black" stroke-width="0.464805"/>
<path d="M72.6719 107.914L120.87 126.259H144.594V107.914H72.6719Z" fill="#999999" stroke="black" stroke-width="0.464805"/>
<path d="M32.7324 107.917H149.249V104.32H32.7324V107.917Z" fill="#4C4C4C"/>
<path d="M141.441 148.198C145.67 148.198 149.099 139.985 149.099 129.853C149.099 119.721 145.67 111.508 141.441 111.508C137.212 111.508 133.783 119.721 133.783 129.853C133.783 139.985 137.212 148.198 141.441 148.198Z" fill="#4C4C4C" stroke="black" stroke-width="0.464805"/>
<path d="M123.123 148.198C127.352 148.198 130.78 139.985 130.78 129.853C130.78 119.721 127.352 111.508 123.123 111.508C118.893 111.508 115.465 119.721 115.465 129.853C115.465 139.985 118.893 148.198 123.123 148.198Z" fill="#4C4C4C" stroke="black" stroke-width="0.464805"/>
<path d="M61.8627 148.198C66.0919 148.198 69.5204 139.985 69.5204 129.853C69.5204 119.721 66.0919 111.508 61.8627 111.508C57.6335 111.508 54.2051 119.721 54.2051 129.853C54.2051 139.985 57.6335 148.198 61.8627 148.198Z" fill="#4C4C4C" stroke="black" stroke-width="0.464805"/>
<path d="M43.5444 148.198C47.7736 148.198 51.202 139.985 51.202 129.853C51.202 119.721 47.7736 111.508 43.5444 111.508C39.3152 111.508 35.8867 119.721 35.8867 129.853C35.8867 139.985 39.3152 148.198 43.5444 148.198Z" fill="#4C4C4C" stroke="black" stroke-width="0.464805"/>
<path d="M11.4116 148.198C15.6408 148.198 19.0692 139.985 19.0692 129.853C19.0692 119.721 15.6408 111.508 11.4116 111.508C7.18236 111.508 3.75391 119.721 3.75391 129.853C3.75391 139.985 7.18236 148.198 11.4116 148.198Z" fill="#4C4C4C" stroke="black" stroke-width="0.464805"/>
<path d="M141.441 138.853C143.514 138.853 145.195 134.827 145.195 129.86C145.195 124.893 143.514 120.867 141.441 120.867C139.368 120.867 137.688 124.893 137.688 129.86C137.688 134.827 139.368 138.853 141.441 138.853Z" fill="#E5E5E5"/>
<path d="M123.123 138.853C125.196 138.853 126.877 134.827 126.877 129.86C126.877 124.893 125.196 120.867 123.123 120.867C121.05 120.867 119.369 124.893 119.369 129.86C119.369 134.827 121.05 138.853 123.123 138.853Z" fill="#E5E5E5"/>
<path d="M61.8612 138.853C63.9343 138.853 65.6149 134.827 65.6149 129.86C65.6149 124.893 63.9343 120.867 61.8612 120.867C59.788 120.867 58.1074 124.893 58.1074 129.86C58.1074 134.827 59.788 138.853 61.8612 138.853Z" fill="#E5E5E5"/>
<path d="M43.3924 138.853C45.4656 138.853 47.1462 134.827 47.1462 129.86C47.1462 124.893 45.4656 120.867 43.3924 120.867C41.3193 120.867 39.6387 124.893 39.6387 129.86C39.6387 134.827 41.3193 138.853 43.3924 138.853Z" fill="#E5E5E5"/>
<path d="M11.2616 138.853C13.3347 138.853 15.0153 134.827 15.0153 129.86C15.0153 124.893 13.3347 120.867 11.2616 120.867C9.18843 120.867 7.50781 124.893 7.50781 129.86C7.50781 134.827 9.18843 138.853 11.2616 138.853Z" fill="#E5E5E5"/>
</svg>
