<svg width="150" height="150" viewBox="0 0 150 150" fill="none" xmlns="http://www.w3.org/2000/svg">
<g clip-path="url(#clip0_2122_161641)">
<path d="M9.23311 132.883H23.1866L21.1346 149.85H4.71875L9.23311 132.883Z" fill="black"/>
<path d="M126.607 132.883H140.561L145.486 149.85H129.07L126.607 132.883Z" fill="black"/>
<path d="M0 119.069H150V91.7417L145.486 84.8348V2.4024L140.561 0H9.23393L4.71956 2.4024V84.8348L0 91.7417V119.069Z" fill="#4C4C4C" stroke="black" stroke-width="0.351059"/>
<path d="M9.23438 81.2341V60.8137L12.9279 57.2101V36.7896H16.6215V12.7656H20.7255V36.7896H24.6243V57.2101L28.1126 60.8137V81.2341H9.23438Z" fill="#CCCCCC"/>
<path d="M121.684 81.2341V60.8137L125.788 57.2101V36.7896H129.481V12.7656H133.175V36.7896H136.868V57.2101L140.562 60.8137V81.2341H121.684Z" fill="#CCCCCC"/>
<path d="M131.121 132.883H145.485V149.85H131.121V132.883Z" fill="#7F7F7F" stroke="black" stroke-width="0.351059"/>
<path d="M4.71875 132.883H18.6722V149.85H4.71875V132.883Z" fill="#7F7F7F" stroke="black" stroke-width="0.351059"/>
<path d="M140.151 95.0461H127.019L123.736 93.8449L121.684 91.1422V88.4395L123.736 86.0371L127.019 84.8359H140.151L143.435 86.0371L145.487 88.4395V91.1422L143.435 93.8449L140.151 95.0461Z" fill="#E5E5E5" stroke="black" stroke-width="0.351059"/>
<path d="M22.7762 95.0461H9.64351L6.36034 93.8449L4.71875 91.1422V88.4395L6.36034 86.0371L9.64351 84.8359H22.7762L26.0594 86.0371L28.1114 88.4395V91.1422L26.0594 93.8449L22.7762 95.0461Z" fill="#E5E5E5" stroke="black" stroke-width="0.351059"/>
<path d="M4.71875 4.0579L9.23311 2.40625H140.56L145.485 4.0579H4.71875Z" fill="#E5E5E5"/>
<path d="M0 132.884L23.1874 136.187H126.607L150 132.884V119.07H0V132.884Z" fill="#E5E5E5" stroke="black" stroke-width="0.351059"/>
<path d="M125.787 77.9296V60.8125" stroke="black" stroke-width="0.351059"/>
<path d="M129.48 60.8125V77.9296" stroke="black" stroke-width="0.351059"/>
<path d="M136.867 77.9296V60.8125" stroke="black" stroke-width="0.351059"/>
<path d="M121.684 60.8125H140.562" stroke="black" stroke-width="0.351059"/>
<path d="M129.48 36.7891H133.174" stroke="black" stroke-width="0.351059"/>
<path d="M125.787 57.2109H136.868" stroke="black" stroke-width="0.351059"/>
<path d="M12.9277 77.9296V60.8125" stroke="black" stroke-width="0.351059"/>
<path d="M16.6211 60.8125V77.9296" stroke="black" stroke-width="0.351059"/>
<path d="M24.623 77.9296V60.8125" stroke="black" stroke-width="0.351059"/>
<path d="M9.23438 60.8125H28.1126" stroke="black" stroke-width="0.351059"/>
<path d="M16.6211 36.7891H20.7251" stroke="black" stroke-width="0.351059"/>
<path d="M12.9277 57.2109H24.624" stroke="black" stroke-width="0.351059"/>
<path d="M46.9902 28.0743V26.5728L48.2214 25.6719H50.2734L51.5046 26.5728V28.0743H46.9902Z" fill="#E5E5E5"/>
<path d="M72.4355 28.0743V26.5728L73.6667 25.6719H75.7187L77.3603 26.5728V28.0743H72.4355Z" fill="#E5E5E5"/>
<path d="M98.2891 28.0743V26.5728L99.5203 25.6719H101.572L103.214 26.5728V28.0743H98.2891Z" fill="#E5E5E5"/>
<path d="M59.7129 28.0743V26.5728L60.9441 25.6719H62.9961L64.6377 26.5728V28.0743H59.7129Z" fill="#E5E5E5"/>
<path d="M85.1582 28.0743V26.5728L86.7998 25.6719H88.8518L90.083 26.5728V28.0743H85.1582Z" fill="#E5E5E5"/>
<path d="M11.6961 93.3913C14.3027 93.3913 16.4157 91.8451 16.4157 89.9378C16.4157 88.0305 14.3027 86.4844 11.6961 86.4844C9.08958 86.4844 6.97656 88.0305 6.97656 89.9378C6.97656 91.8451 9.08958 93.3913 11.6961 93.3913Z" fill="#4C4C4C"/>
<path d="M20.9304 93.2394C23.4236 93.2394 25.4447 91.7605 25.4447 89.9361C25.4447 88.1118 23.4236 86.6328 20.9304 86.6328C18.4372 86.6328 16.416 88.1118 16.416 89.9361C16.416 91.7605 18.4372 93.2394 20.9304 93.2394Z" fill="#4C4C4C"/>
<path d="M128.864 93.3913C131.471 93.3913 133.584 91.8451 133.584 89.9378C133.584 88.0305 131.471 86.4844 128.864 86.4844C126.258 86.4844 124.145 88.0305 124.145 89.9378C124.145 91.8451 126.258 93.3913 128.864 93.3913Z" fill="#4C4C4C"/>
<path d="M138.304 93.3913C140.91 93.3913 143.023 91.8451 143.023 89.9378C143.023 88.0305 140.91 86.4844 138.304 86.4844C135.697 86.4844 133.584 88.0305 133.584 89.9378C133.584 91.8451 135.697 93.3913 138.304 93.3913Z" fill="#4C4C4C"/>
<path d="M37.5517 71.024L32.627 69.2222V33.1861L56.0196 29.8828H93.7761L117.169 33.1861V69.2222L112.654 71.024V35.8888L92.5449 33.1861H77.3602V67.7206H72.4354V33.1861H57.2508L37.5517 35.8888V71.024Z" fill="#E5E5E5" stroke="black" stroke-width="0.351059"/>
<path d="M37.5508 118.167V71.0196L56.0186 68.6172H93.7751L112.653 71.0196V118.167H37.5508Z" fill="#E5E5E5" stroke="black" stroke-width="0.351059"/>
<path d="M42.0664 115.766H55.1991V114.865H42.0664V113.964H55.1991V113.063H42.0664V112.163H55.1991V111.262H42.0664V110.661H55.1991V109.76H42.0664V108.859H55.1991V107.958H42.0664V107.057H55.1991V106.157H42.0664V105.256H55.1991V104.655H42.0664V103.754H55.1991V102.853H42.0664V101.952H55.1991V101.051H42.0664V100.151H55.1991V99.2496H42.0664V98.649H55.1991V97.7481H42.0664V96.8472H55.1991V95.9463H42.0664V95.0454H55.1991V94.1445H42.0664V93.2436H55.1991V92.643H42.0664V91.7421H55.1991V90.8412H42.0664V89.9403H55.1991V89.0394H42.0664V88.1385H55.1991V87.5379H42.0664V86.637H55.1991V85.7361H42.0664V84.8352H55.1991V83.9343H42.0664V83.0334H55.1991V82.1325H42.0664V81.2316H55.1991V80.631H42.0664V79.7301H55.1991V78.8292H42.0664V77.9283H55.1991V77.0274H42.0664V76.1265H55.1991V75.2256H42.0664V74.625H55.1991" stroke="black" stroke-width="0.351059"/>
<path d="M58.4824 115.766H71.6151V114.865H58.4824V113.964H71.6151V113.063H58.4824V112.163H71.6151V111.262H58.4824V110.661H71.6151V109.76H58.4824V108.859H71.6151V107.958H58.4824V107.057H71.6151V106.157H58.4824V105.256H71.6151V104.655H58.4824V103.754H71.6151V102.853H58.4824V101.952H71.6151V101.051H58.4824V100.151H71.6151V99.2496H58.4824V98.649H71.6151V97.7481H58.4824V96.8472H71.6151V95.9463H58.4824V95.0454H71.6151V94.1445H58.4824V93.2436H71.6151V92.643H58.4824V91.7421H71.6151V90.8412H58.4824V89.9403H71.6151V89.0394H58.4824V88.1385H71.6151V87.5379H58.4824V86.637H71.6151V85.7361H58.4824V84.8352H71.6151V83.9343H58.4824V83.0334H71.6151V82.1325H58.4824V81.2316H71.6151V80.631H58.4824V79.7301H71.6151V78.8292H58.4824V77.9283H71.6151V77.0274H58.4824V76.1265H71.6151V75.2256H58.4824V74.625H71.6151" stroke="black" stroke-width="0.351059"/>
<path d="M78.1797 115.766H91.3124V114.865H78.1797V113.964H91.3124V113.063H78.1797V112.163H91.3124V111.262H78.1797V110.661H91.3124V109.76H78.1797V108.859H91.3124V107.958H78.1797V107.057H91.3124V106.157H78.1797V105.256H91.3124V104.655H78.1797V103.754H91.3124V102.853H78.1797V101.952H91.3124V101.051H78.1797V100.151H91.3124V99.2496H78.1797V98.649H91.3124V97.7481H78.1797V96.8472H91.3124V95.9463H78.1797V95.0454H91.3124V94.1445H78.1797V93.2436H91.3124V92.643H78.1797V91.7421H91.3124V90.8412H78.1797V89.9403H91.3124V89.0394H78.1797V88.1385H91.3124V87.5379H78.1797V86.637H91.3124V85.7361H78.1797V84.8352H91.3124V83.9343H78.1797V83.0334H91.3124V82.1325H78.1797V81.2316H91.3124V80.631H78.1797V79.7301H91.3124V78.8292H78.1797V77.9283H91.3124V77.0274H78.1797V76.1265H91.3124V75.2256H78.1797V74.625H91.3124" stroke="black" stroke-width="0.351059"/>
<path d="M94.5957 115.766H107.728V114.865H94.5957V113.964H107.728V113.063H94.5957V112.163H107.728V111.262H94.5957V110.661H107.728V109.76H94.5957V108.859H107.728V107.958H94.5957V107.057H107.728V106.157H94.5957V105.256H107.728V104.655H94.5957V103.754H107.728V102.853H94.5957V101.952H107.728V101.051H94.5957V100.151H107.728V99.2496H94.5957V98.649H107.728V97.7481H94.5957V96.8472H107.728V95.9463H94.5957V95.0454H107.728V94.1445H94.5957V93.2436H107.728V92.643H94.5957V91.7421H107.728V90.8412H94.5957V89.9403H107.728V89.0394H94.5957V88.1385H107.728V87.5379H94.5957V86.637H107.728V85.7361H94.5957V84.8352H107.728V83.9343H94.5957V83.0334H107.728V82.1325H94.5957V81.2316H107.728V80.631H94.5957V79.7301H107.728V78.8292H94.5957V77.9283H107.728V77.0274H94.5957V76.1265H107.728V75.2256H94.5957V74.625H107.728" stroke="black" stroke-width="0.351059"/>
<path d="M1.02539 40.0938H31.3947V40.9947H9.23332V59.0127H31.3947V59.9136H1.02539V40.0938Z" fill="#CCCCCC" stroke="black" stroke-width="0.351059"/>
<path d="M148.77 59.9136H118.4V59.0127H140.562V40.9947H118.4V40.0938H148.77V59.9136Z" fill="#CCCCCC" stroke="black" stroke-width="0.351059"/>
</g>
<defs>
<clipPath id="clip0_2122_161641">
<rect width="150" height="150" fill="white"/>
</clipPath>
</defs>
</svg>
