<svg width="150" height="150" viewBox="0 0 150 150" fill="none" xmlns="http://www.w3.org/2000/svg">
<g clip-path="url(#clip0_2122_161850)">
<path d="M1.50195 101.391H148.349V116.547H1.50195V101.391Z" fill="#999999" stroke="black" stroke-width="0.56027"/>
<path d="M0 2.60938V23.5153L12.7628 67.9404V101.39H137.087V67.9404L150 23.5153V2.60938H0Z" fill="white" stroke="black" stroke-width="0.56027"/>
<path d="M6.30664 118.117H143.544L144.295 124.912H143.994H142.793H140.991H138.439H135.286H131.682H127.478H122.823H117.868H112.463H106.757H100.901H94.7451H88.4388H82.1325H75.676H69.2196H62.7631H56.4568H50.3006H44.4448H38.7391H33.3337H28.2286H23.5739H19.3697H15.6159H12.4628H9.91024H7.95829H6.75709H6.30664V118.117Z" fill="black" stroke="black" stroke-width="0.56027"/>
<path d="M13.9648 6.79688H15.166V94.6018H13.9648V6.79688Z" fill="#CCCCCC"/>
<path d="M23.5742 6.79688H24.325V94.6018H23.5742V6.79688Z" fill="#CCCCCC"/>
<path d="M33.1836 6.79688H33.9343V94.6018H33.1836V6.79688Z" fill="#CCCCCC"/>
<path d="M42.3418 6.79688H43.0925V94.6018H42.3418V6.79688Z" fill="#CCCCCC"/>
<path d="M51.9512 6.79688H52.7019V94.6018H51.9512V6.79688Z" fill="#CCCCCC"/>
<path d="M61.5625 6.79688H62.3133V94.6018H61.5625V6.79688Z" fill="#CCCCCC"/>
<path d="M118.318 6.79688H119.069V94.6018H118.318V6.79688Z" fill="#CCCCCC"/>
<path d="M108.709 6.79688H109.46V94.6018H108.709V6.79688Z" fill="#CCCCCC"/>
<path d="M99.5488 6.79688H100.3V94.6018H99.5488V6.79688Z" fill="#CCCCCC"/>
<path d="M89.9395 6.79688H90.6902V94.6018H89.9395V6.79688Z" fill="#CCCCCC"/>
<path d="M80.3301 6.79688H81.0808V94.6018H80.3301V6.79688Z" fill="#CCCCCC"/>
<path d="M71.1719 6.79688H71.9226V94.6018H71.1719V6.79688Z" fill="#CCCCCC"/>
<path d="M127.928 6.79688H128.678V94.6018H127.928V6.79688Z" fill="#CCCCCC"/>
<path d="M137.088 65.3335V6.79688H137.989V62.1976L137.088 65.3335Z" fill="#CCCCCC"/>
<path d="M12.7625 59.5805L2.25195 23.5177V9.40625H12.7625V59.5805Z" fill="#CCCCCC"/>
<path d="M137.537 59.5805L147.597 23.5177V9.40625H137.537V59.5805Z" fill="#CCCCCC"/>
<path d="M4.6543 107.141H145.195V115.503H4.6543V107.141Z" fill="#4C4C4C"/>
<path d="M119.97 128.051L127.928 99.8281H107.057L115.165 128.051H119.97Z" fill="#B2B2B2" stroke="black" stroke-width="0.56027"/>
<path d="M77.1773 128.051L85.1353 99.8281H64.7148L72.6728 128.051H77.1773Z" fill="#B2B2B2" stroke="black" stroke-width="0.56027"/>
<path d="M34.6846 128.051L42.7927 99.8281H21.9219L29.8798 128.051H34.6846Z" fill="#B2B2B2" stroke="black" stroke-width="0.56027"/>
<path d="M74.9256 121.773C75.6719 121.773 76.2769 120.603 76.2769 119.16C76.2769 117.717 75.6719 116.547 74.9256 116.547C74.1792 116.547 73.5742 117.717 73.5742 119.16C73.5742 120.603 74.1792 121.773 74.9256 121.773Z" fill="black" stroke="black" stroke-width="0.56027"/>
<path d="M32.2828 121.773C33.112 121.773 33.7843 120.603 33.7843 119.16C33.7843 117.717 33.112 116.547 32.2828 116.547C31.4535 116.547 30.7812 117.717 30.7812 119.16C30.7812 120.603 31.4535 121.773 32.2828 121.773Z" fill="black" stroke="black" stroke-width="0.56027"/>
<path d="M117.418 121.773C118.247 121.773 118.919 120.603 118.919 119.16C118.919 117.717 118.247 116.547 117.418 116.547C116.588 116.547 115.916 117.717 115.916 119.16C115.916 120.603 116.588 121.773 117.418 121.773Z" fill="black" stroke="black" stroke-width="0.56027"/>
<path d="M12.7637 95.6471V6.79688" stroke="black" stroke-width="0.56027"/>
<path d="M13.9648 6.79688V95.6471" stroke="black" stroke-width="0.56027"/>
<path d="M135.887 95.6471V6.79688" stroke="black" stroke-width="0.56027"/>
<path d="M137.088 6.79688V95.6471" stroke="black" stroke-width="0.56027"/>
<path d="M31.5312 95.6471V6.79688" stroke="black" stroke-width="0.56027"/>
<path d="M33.1836 6.79688V95.6471" stroke="black" stroke-width="0.56027"/>
<path d="M21.9219 95.6471V6.79688" stroke="black" stroke-width="0.56027"/>
<path d="M23.5742 6.79688V95.6471" stroke="black" stroke-width="0.56027"/>
<path d="M41.1406 95.6471V6.79688" stroke="black" stroke-width="0.56027"/>
<path d="M42.793 6.79688V95.6471" stroke="black" stroke-width="0.56027"/>
<path d="M78.6777 95.6471V6.79688" stroke="black" stroke-width="0.56027"/>
<path d="M80.3301 6.79688V95.6471" stroke="black" stroke-width="0.56027"/>
<path d="M50.3008 95.6471V6.79688" stroke="black" stroke-width="0.56027"/>
<path d="M51.9512 6.79688V95.6471" stroke="black" stroke-width="0.56027"/>
<path d="M116.666 95.6471V6.79688" stroke="black" stroke-width="0.56027"/>
<path d="M118.318 6.79688V95.6471" stroke="black" stroke-width="0.56027"/>
<path d="M69.5195 95.6471V6.79688" stroke="black" stroke-width="0.56027"/>
<path d="M71.1719 6.79688V95.6471" stroke="black" stroke-width="0.56027"/>
<path d="M59.9102 95.6471V6.79688" stroke="black" stroke-width="0.56027"/>
<path d="M61.5625 6.79688V95.6471" stroke="black" stroke-width="0.56027"/>
<path d="M126.275 95.6471V6.79688" stroke="black" stroke-width="0.56027"/>
<path d="M127.928 6.79688V95.6471" stroke="black" stroke-width="0.56027"/>
<path d="M97.8984 95.6471V6.79688" stroke="black" stroke-width="0.56027"/>
<path d="M99.5488 6.79688V95.6471" stroke="black" stroke-width="0.56027"/>
<path d="M88.2891 95.6471V6.79688" stroke="black" stroke-width="0.56027"/>
<path d="M89.9395 6.79688V95.6471" stroke="black" stroke-width="0.56027"/>
<path d="M107.508 95.6471V6.79688" stroke="black" stroke-width="0.56027"/>
<path d="M108.709 6.79688V95.6471" stroke="black" stroke-width="0.56027"/>
<path d="M7.95703 0V108.188" stroke="black" stroke-width="0.56027"/>
<path d="M3.15234 108.188V0" stroke="black" stroke-width="0.56027"/>
<path d="M3.15234 5.22656H7.95715" stroke="black" stroke-width="0.56027"/>
<path d="M7.95715 16.2031H3.15234" stroke="black" stroke-width="0.56027"/>
<path d="M3.15234 26.1328H7.95715" stroke="black" stroke-width="0.56027"/>
<path d="M7.95715 37.1094H3.15234" stroke="black" stroke-width="0.56027"/>
<path d="M3.15234 48.6094H7.95715" stroke="black" stroke-width="0.56027"/>
<path d="M7.95715 59.5781H3.15234" stroke="black" stroke-width="0.56027"/>
<path d="M3.15234 70.5547H7.95715" stroke="black" stroke-width="0.56027"/>
<path d="M7.95715 82.0547H3.15234" stroke="black" stroke-width="0.56027"/>
<path d="M3.15234 93.0312H7.95715" stroke="black" stroke-width="0.56027"/>
<path d="M7.95715 104.008H3.15234" stroke="black" stroke-width="0.56027"/>
<path d="M146.697 0V108.188" stroke="black" stroke-width="0.56027"/>
<path d="M141.893 108.188V0" stroke="black" stroke-width="0.56027"/>
<path d="M141.893 5.22656H146.697" stroke="black" stroke-width="0.56027"/>
<path d="M146.697 16.2031H141.893" stroke="black" stroke-width="0.56027"/>
<path d="M141.893 26.1328H146.697" stroke="black" stroke-width="0.56027"/>
<path d="M146.697 37.1094H141.893" stroke="black" stroke-width="0.56027"/>
<path d="M141.893 48.6094H146.697" stroke="black" stroke-width="0.56027"/>
<path d="M146.697 59.5781H141.893" stroke="black" stroke-width="0.56027"/>
<path d="M141.893 70.5547H146.697" stroke="black" stroke-width="0.56027"/>
<path d="M146.697 82.0547H141.893" stroke="black" stroke-width="0.56027"/>
<path d="M141.893 93.0312H146.697" stroke="black" stroke-width="0.56027"/>
<path d="M146.697 104.008H141.893" stroke="black" stroke-width="0.56027"/>
<path d="M125.074 119.688H142.792V139.025H125.074V119.688Z" fill="#4C4C4C" stroke="black" stroke-width="0.56027"/>
<path d="M7.05664 119.688H24.7744V139.025H7.05664V119.688Z" fill="#4C4C4C" stroke="black" stroke-width="0.56027"/>
<path d="M142.493 150.003C144.815 150.003 146.697 143.451 146.697 135.369C146.697 127.286 144.815 120.734 142.493 120.734C140.171 120.734 138.289 127.286 138.289 135.369C138.289 143.451 140.171 150.003 142.493 150.003Z" fill="#333333" stroke="black" stroke-width="0.56027"/>
<path d="M125.376 150.003C127.698 150.003 129.58 143.451 129.58 135.369C129.58 127.286 127.698 120.734 125.376 120.734C123.054 120.734 121.172 127.286 121.172 135.369C121.172 143.451 123.054 150.003 125.376 150.003Z" fill="#333333" stroke="black" stroke-width="0.56027"/>
<path d="M24.4737 150.003C26.7957 150.003 28.6779 143.451 28.6779 135.369C28.6779 127.286 26.7957 120.734 24.4737 120.734C22.1518 120.734 20.2695 127.286 20.2695 135.369C20.2695 143.451 22.1518 150.003 24.4737 150.003Z" fill="#333333" stroke="black" stroke-width="0.56027"/>
<path d="M7.35655 150.003C9.67847 150.003 11.5608 143.451 11.5608 135.369C11.5608 127.286 9.67847 120.734 7.35655 120.734C5.03463 120.734 3.15234 127.286 3.15234 135.369C3.15234 143.451 5.03463 150.003 7.35655 150.003Z" fill="#333333" stroke="black" stroke-width="0.56027"/>
</g>
<defs>
<clipPath id="clip0_2122_161850">
<rect width="150" height="150" fill="white"/>
</clipPath>
</defs>
</svg>
