<svg width="150" height="150" viewBox="0 0 150 150" fill="none" xmlns="http://www.w3.org/2000/svg">
<g clip-path="url(#clip0_2122_162039)">
<path d="M45.7957 7.40625H49.8498L53.7537 7.6708L57.8077 8.729L66.9669 19.311V40.7396L64.5645 40.2105V29.3639L64.2642 28.0412L63.6636 27.2475L63.2131 26.983H60.6606L60.06 27.2475L59.6095 28.0412L59.4594 29.3639V40.2105L56.7567 49.2052V40.475L54.8047 39.9459V27.2475L54.5044 25.9248L54.054 25.1311L53.3032 24.602H52.8528L35.2852 26.983L34.5345 27.2475L33.9339 27.7766L33.4834 28.5703L33.3333 29.893V36.7713L29.7297 37.3004V33.3322L29.4294 32.5385L28.8288 32.0094H25.075L24.4744 32.5385L24.1741 33.5967L24.0239 34.9195V41.2687L23.123 41.7978V25.9248L29.8798 15.0782L32.2822 13.4909L34.6846 12.1682L35.8858 11.3745L37.2372 10.5809L39.6396 9.52265L39.4894 10.0518L39.3393 10.5809L39.039 11.11V12.6973L39.1891 13.2264L39.3393 14.02L39.4894 14.2846V17.4592L39.3393 17.9883L39.039 18.7819V20.1047L39.1891 20.6338L39.3393 21.4274L39.4894 21.692L39.6396 22.4856L39.7897 23.2793L40.09 24.0729L40.3903 24.3375L40.6906 24.602H42.3423L42.7927 24.0729L43.093 23.2793L43.2432 22.7502L43.3933 21.9565V10.5809L43.2432 9.52265L43.093 8.99355L42.7927 8.1999V7.93535L45.7957 7.40625Z" fill="#00FF00" stroke="black" stroke-width="0.398609"/>
<path d="M38.2878 21.4311L30.1797 24.0766V16.1401L38.2878 12.1719V21.4311Z" stroke="black" stroke-width="0.398609"/>
<path d="M37.8381 20.635L30.6309 22.7514V16.9313L37.8381 13.4922V20.635Z" fill="black" stroke="black" stroke-width="0.398609"/>
<path d="M56.9075 10.5781V19.8374H44.2949V10.5781H56.9075Z" stroke="black" stroke-width="0.398609"/>
<path d="M41.4422 24.6009C42.5202 24.6009 43.3941 20.6923 43.3941 15.8708C43.3941 11.0493 42.5202 7.14062 41.4422 7.14062C40.3642 7.14062 39.4902 11.0493 39.4902 15.8708C39.4902 20.6923 40.3642 24.6009 41.4422 24.6009Z" stroke="black" stroke-width="0.398609"/>
<path d="M40.5406 14.5488C41.3698 14.5488 42.0421 13.3644 42.0421 11.9033C42.0421 10.4422 41.3698 9.25781 40.5406 9.25781C39.7113 9.25781 39.0391 10.4422 39.0391 11.9033C39.0391 13.3644 39.7113 14.5488 40.5406 14.5488Z" fill="#FFFF00" stroke="black" stroke-width="0.398609"/>
<path d="M40.5406 22.2207C41.3698 22.2207 42.0421 21.0363 42.0421 19.5752C42.0421 18.1141 41.3698 16.9297 40.5406 16.9297C39.7113 16.9297 39.0391 18.1141 39.0391 19.5752C39.0391 21.0363 39.7113 22.2207 40.5406 22.2207Z" fill="#FFFF00" stroke="black" stroke-width="0.398609"/>
<path d="M42.7937 13.4922V18.5186L42.043 15.8731L42.7937 13.4922Z" stroke="black" stroke-width="0.398609"/>
<path d="M33.334 36.7709L40.0907 38.0936L54.8055 39.9455V27.2471L54.5052 25.9243L54.0547 25.1307L53.304 24.6016H52.8535L35.2859 26.9825L34.5352 27.2471L33.9346 27.7762L33.4841 28.5698L33.334 29.8926V36.7709Z" fill="#00FFFF" stroke="black" stroke-width="0.398609"/>
<path d="M29.7291 37.2988L27.627 37.8279V39.9443L24.0234 41.2671V34.6533L24.1736 33.5951L24.4739 32.5369L25.0745 32.0078H28.8282L29.4288 32.5369L29.7291 33.3306V37.2988Z" fill="#00FFFF" stroke="black" stroke-width="0.398609"/>
<path d="M61.1106 39.1537H60.51L60.0596 39.4182L59.7593 39.6828L59.459 40.2119V29.3653L59.6091 28.0426L60.0596 27.2489L60.6602 26.9844H63.2127L63.6632 27.2489L64.2638 28.0426L64.5641 29.3653V40.2119L61.1106 39.1537Z" fill="#00FFFF" stroke="black" stroke-width="0.398609"/>
<path d="M27.6286 42.3263L21.022 44.4427L20.7217 44.7072L20.4214 44.9718L20.1211 45.5009V42.5908L23.1241 41.7972L24.025 41.2681L27.6286 39.9453V42.3263Z" fill="#0080FF" stroke="black" stroke-width="0.398609"/>
<path d="M47.4468 60.8451V45.2366L47.2966 44.1784L47.1465 43.6493L46.696 43.1202L44.8942 42.8557L37.3867 42.5911L37.687 41.0038L37.9873 39.6811L38.4378 38.8874L39.1885 38.3583L40.0894 38.0938L54.8041 39.9456L56.7561 40.4747V42.5911H49.3987V69.5752L47.4468 60.8451Z" fill="#0080FF" stroke="black" stroke-width="0.398609"/>
<path d="M47.4473 65.875V86.7745H49.3992V74.6052L47.4473 65.875Z" fill="#0080FF" stroke="black" stroke-width="0.398609"/>
<path d="M20.4214 44.9736L20.7217 44.7091L21.022 44.4445L27.6286 42.3281V49.471L36.6376 48.6773H37.0881L37.3884 42.5927L44.8959 42.8572L37.8388 53.1747H29.2803V57.672L20.1211 45.5027L20.4214 44.9736Z" fill="#00FF00" stroke="black" stroke-width="0.398609"/>
<path d="M30.7805 59.5219L30.3301 58.9928V55.2891H36.6364L32.282 61.3737V57.9346L30.7805 59.5219Z" fill="#00FF00" stroke="black" stroke-width="0.398609"/>
<path d="M32.2818 59.5234L31.3809 60.5816L32.2818 61.6398V59.5234Z" fill="#00FF00" stroke="black" stroke-width="0.398609"/>
<path d="M29.2803 61.373L28.3794 62.6958L26.4274 64.0185L25.2262 65.0767L23.7247 65.3413H22.073L21.6226 65.0767L21.1721 64.5476L20.8718 64.2831L20.4214 63.754V54.4947L20.1211 54.7593V45.5L29.2803 57.6693V61.373Z" fill="white" stroke="black" stroke-width="0.398609"/>
<path d="M30.3301 60.3149L30.7805 59.5213L30.3301 58.9922V60.3149Z" fill="white" stroke="black" stroke-width="0.398609"/>
<path d="M20.4199 70.8974L29.2788 82.5377V62.9609L28.2277 64.0191L25.9755 65.6064L24.7743 66.4001L23.5731 66.6646H22.2217L21.6211 66.4001L21.0205 65.871L20.4199 65.3419V70.8974Z" fill="white" stroke="black" stroke-width="0.398609"/>
<path d="M30.3301 83.8585V61.9009L30.9307 60.8427L31.3811 60.5781L32.282 61.6363V86.2395L30.3301 83.8585Z" fill="white" stroke="black" stroke-width="0.398609"/>
<path d="M20.4199 86.7715H29.2788V82.5386L20.4199 70.8984V86.7715Z" fill="#00FF00" stroke="black" stroke-width="0.398609"/>
<path d="M30.3301 86.7694H32.282V86.2403L30.3301 83.8594V86.7694Z" fill="#00FF00" stroke="black" stroke-width="0.398609"/>
<path d="M44.8949 53.1768L45.3454 53.4414L45.6457 53.9705L45.946 54.235L46.0961 54.7641L46.2463 55.2932L47.4475 60.8488V45.2403L47.2973 44.1821L47.1472 43.653L46.6967 43.1239L44.8949 42.8594L37.8379 53.1768H44.8949Z" fill="white" stroke="black" stroke-width="0.398609"/>
<path d="M42.4922 74.6002V55.0234H45.0447L47.4471 65.87V69.3092L42.4922 74.6002Z" fill="white" stroke="black" stroke-width="0.398609"/>
<path d="M32.2832 61.6383V86.7705L41.2922 76.1885V55.2891H36.6376L32.2832 61.3737V61.6383Z" fill="white" stroke="black" stroke-width="0.398609"/>
<path d="M42.4922 86.7728H47.4471V69.3125L42.4922 74.6035V86.7728Z" fill="#00FF00" stroke="black" stroke-width="0.398609"/>
<path d="M41.2922 86.7695H32.2832L41.2922 76.1875V86.7695Z" fill="#00FF00" stroke="black" stroke-width="0.398609"/>
<path d="M49.3984 74.6016V86.7709H49.8489V76.9825L49.3984 74.6016Z" fill="#008000" stroke="black" stroke-width="0.398609"/>
<path d="M57.3564 82.2763V86.7736H50.8999V77.2498L49.3984 69.5779V42.5938H56.7558V49.2075L54.6537 56.0858V71.9588L54.8038 72.4879H54.0531V74.0752H55.2543L56.6056 79.6308H52.2513V81.2181H57.0561L57.3564 82.2763Z" fill="#00FF00" stroke="black" stroke-width="0.398609"/>
<path d="M56.7561 52.9062V72.483H55.8552L55.7051 71.9539V56.61L56.7561 52.9062Z" fill="#00FF00" stroke="black" stroke-width="0.398609"/>
<path d="M56.7559 72.4893H59.7589V71.9602H61.861V41.2724L60.5096 41.0078L60.3595 41.2724L60.0592 41.5369L59.909 42.066L56.7559 52.9126V72.4893Z" fill="#00FF00" stroke="black" stroke-width="0.398609"/>
<path d="M66.9662 72.7493V42.5905L62.9121 41.7969V72.2202L66.9662 72.7493Z" fill="#00FF00" stroke="black" stroke-width="0.398609"/>
<path d="M57.658 79.6259H59.7601V74.0703H56.3066L57.658 79.6259Z" fill="#00FF00" stroke="black" stroke-width="0.398609"/>
<path d="M59.7591 81.2188V87.0389H58.1074V81.2188H59.7591Z" fill="#00FF00" stroke="black" stroke-width="0.398609"/>
<path d="M59.7598 71.9609H61.8619V87.0403H59.7598V71.9609Z" fill="#0080FF" stroke="#0000FF" stroke-width="0.398609"/>
<path d="M54.8054 72.4844H54.0547V74.0717H55.2559L54.8054 72.4844Z" fill="#FFFF00" stroke="black" stroke-width="0.398609"/>
<path d="M55.8555 72.4844H59.7594V74.0717H56.3059L55.8555 72.4844Z" fill="#FFFF00" stroke="black" stroke-width="0.398609"/>
<path d="M56.6063 79.6328H52.252V81.2201H57.0568L56.6063 79.6328Z" fill="#FFFF00" stroke="black" stroke-width="0.398609"/>
<path d="M57.6582 79.6328H59.7603V81.2201H58.1087L57.6582 79.6328Z" fill="#FFFF00" stroke="black" stroke-width="0.398609"/>
<path d="M16.666 55.0273V44.4453L20.1195 45.239V46.5617L17.4168 45.7681V55.0273H16.666Z" fill="#FFFF00" stroke="black" stroke-width="0.398609"/>
<path d="M16.666 56.8817V86.7759H19.2186V72.7548H17.4168V56.6172L16.666 56.8817Z" fill="#FFFF00" stroke="black" stroke-width="0.398609"/>
<path d="M20.4209 63.7593V54.5L20.1206 54.7646L17.4179 55.0291H16.6672L10.511 56.0873L10.2107 56.3519L10.0605 56.6164V57.4101L10.2107 57.9392H10.511V96.828H11.4119V57.6746L16.6672 56.881L17.4179 56.6164L19.6702 56.3519V62.172L19.9705 62.9656L20.4209 63.7593Z" fill="#FFFF00" stroke="black" stroke-width="0.398609"/>
<path d="M20.1204 65.0827L19.6699 64.2891V86.7758H20.4207V65.3473L20.1204 65.0827Z" fill="#FFFF00" stroke="black" stroke-width="0.398609"/>
<path d="M32.2818 57.9375V59.5248L31.3809 60.583L30.9305 60.8476L30.3299 61.9058L29.2788 62.964L28.2278 64.0222L25.9755 65.6095L24.7743 66.4031L23.5731 66.6677H22.2218L21.6212 66.4031L21.0206 65.874L20.42 65.3449L20.1197 65.0804L19.6692 64.2867V86.7735H19.2188V60.8476L19.6692 62.1703L19.9695 62.964L20.42 63.7576L20.8704 64.2867L21.1707 64.5513L21.6212 65.0804L22.0716 65.3449H23.7233L25.2248 65.0804L26.426 64.0222L28.3779 62.6994L29.2788 61.3767L30.3299 60.3185L30.7803 59.5248L32.2818 57.9375Z" fill="#FFFF00" stroke="black" stroke-width="0.398609"/>
<path d="M29.2793 62.9645V96.8269H30.3303V61.9062L29.2793 62.9645Z" fill="#FFFF00" stroke="black" stroke-width="0.398609"/>
<path d="M30.3303 60.3147V55.2883H41.2913V96.029H42.4925V55.0237H45.0451L47.4475 65.8703L49.3994 74.6004L49.8499 76.9814V102.907H48.6487V105.288H49.8499V111.373L50.3003 114.283L50.9009 119.045V105.288H52.8529V102.907H50.9009V77.2459L49.3994 69.574L47.4475 60.8438L46.2463 55.2883L46.0961 54.7592L45.946 54.2301L45.6457 53.9655L45.3454 53.4364L44.8949 53.1719H29.2793V61.3729L30.3303 60.3147Z" fill="#FFFF00" stroke="black" stroke-width="0.398609"/>
<path d="M56.0056 112.966H57.357V82.2779L57.0567 81.2197L56.6062 79.6324L55.2549 74.0769L54.8044 72.4896L54.6543 71.9605V56.0875L56.7564 49.2092L59.4591 40.2145L59.7594 39.6854L60.0597 39.4208L60.5102 39.1562H61.1108L64.5642 40.2145L66.9666 40.7436L68.0177 41.0081L68.318 41.2727L68.4681 41.5372V42.0663L68.318 42.5954L68.1678 42.86L66.9666 42.5954L62.9126 41.8018V80.6906H61.8615V41.2727L60.5102 41.0081L60.36 41.2727L60.0597 41.5372L59.9096 42.0663L56.7564 52.9129L55.7053 56.6166V71.9605L55.8555 72.4896L56.3059 74.0769L57.6573 79.6324L58.1078 81.2197V114.289L57.9576 114.818L57.6573 115.082H57.357L56.6062 115.347H56.0056V112.966Z" fill="#FFFF00" stroke="black" stroke-width="0.398609"/>
<path d="M15.4648 88.3607V86.7734H29.2787V93.3872L25.8252 88.3607H15.4648Z" fill="#FFFF00" stroke="black" stroke-width="0.398609"/>
<path d="M30.3301 88.3607V86.7734H41.291V88.3607H30.3301Z" fill="#FFFF00" stroke="black" stroke-width="0.398609"/>
<path d="M42.4922 88.3607V86.7734H49.8495V88.3607H42.4922Z" fill="#FFFF00" stroke="black" stroke-width="0.398609"/>
<path d="M20.8707 88.3594H16.9668L20.8707 94.444V88.3594Z" fill="#FFFF00" stroke="black" stroke-width="0.398609"/>
<path d="M11.4123 87.3047H15.4663V88.3629H16.9678L20.8717 94.4475V88.3629H25.8267L29.2801 93.3893V96.8285H30.3312V88.3629H41.2921V96.0348H42.4933V88.3629H44.8957V98.9449H48.6495V106.617L48.4993 106.352L38.2891 110.585V109.791L7.0579 107.94L5.40625 107.146V98.4158H8.5594V87.3047H10.5114V96.8285H11.4123V87.3047Z" fill="#00FF00" stroke="black" stroke-width="0.398609"/>
<path d="M44.8945 88.3594V98.9414H48.6483V102.91H49.8495V88.3594H44.8945Z" fill="#80C2FF" stroke="black" stroke-width="0.398609"/>
<path d="M48.6484 106.612V105.289H49.8496V111.374L48.6484 106.612Z" fill="#0080FF" stroke="black" stroke-width="0.398609"/>
<path d="M15.7653 114.022L16.2158 113.493L16.9666 113.229L17.7173 112.964H22.372V115.345L22.9726 115.874L23.423 116.139L23.8735 116.668L24.1738 117.197L24.3239 117.726L24.6242 118.52V119.313L24.7744 119.842L24.6242 120.636V121.43L24.4741 121.959L24.1738 122.752L23.8735 123.281L23.423 123.811L23.1227 124.34L22.6723 124.604H22.2218L21.4711 124.869V115.345L21.1708 114.551L20.8705 114.022L20.42 113.758L19.9696 113.229L19.2188 112.964H17.7173L16.9666 113.229L16.2158 113.493L15.7653 114.022L16.2158 114.551L16.8164 115.08L17.417 115.345L18.0176 115.609H19.6693V125.398H18.3179L17.417 125.133V128.308H26.8765V113.758L38.2879 110.583V109.789L7.05664 107.938L15.7653 114.022Z" fill="black"/>
<path d="M15.7653 114.022L16.2158 113.493L16.9666 113.229L17.7173 112.964M15.7653 114.022L16.2158 114.551L16.8164 115.08L17.417 115.345L18.0176 115.609H19.6693V125.398H18.3179L17.417 125.133V128.308H26.8765V113.758L38.2879 110.583V109.789L7.05664 107.938L15.7653 114.022ZM17.7173 112.964H22.372V115.345L22.9726 115.874L23.423 116.139L23.8735 116.668L24.1738 117.197L24.3239 117.726L24.6242 118.52V119.313L24.7744 119.842L24.6242 120.636V121.43L24.4741 121.959L24.1738 122.752L23.8735 123.281L23.423 123.811L23.1227 124.34L22.6723 124.604H22.2218L21.4711 124.869V115.345L21.1708 114.551L20.8705 114.022L20.42 113.758L19.9696 113.229L19.2188 112.964H17.7173Z" stroke="black" stroke-width="0.398609"/>
<path d="M19.2195 112.961L19.9703 113.225L20.4207 113.755L20.8712 114.019L21.1715 114.548L21.4718 115.342V124.866L22.2225 124.601H22.673L23.1234 124.337L23.4237 123.807L23.8742 123.278L24.1745 122.749L24.4748 121.956L24.6249 121.427V120.633L24.7751 119.839L24.6249 119.31V118.516L24.3246 117.723L24.1745 117.194L23.8742 116.665L23.4237 116.136L22.9733 115.871L22.3727 115.342V112.961H18.4688H19.2195Z" fill="white" stroke="black" stroke-width="0.398609"/>
<path d="M5.40541 107.14L7.05706 107.934L15.7658 114.018L16.2162 114.548L16.8168 115.077L17.4174 115.341L18.018 115.606H19.6697V125.394H18.3183L17.4174 125.13V128.304H26.8769V113.754L38.2883 110.579L48.4985 106.346L48.6486 106.611L49.8498 111.373L50.3003 114.283L50.9009 119.045V123.013L50.6006 127.246L50.3003 129.098L50.1502 131.479L49.0991 135.712L48.048 139.415L40.0901 143.119L39.7898 144.971L39.4895 146.558L16.6667 144.971L7.20721 142.59L7.65766 140.473L4.2042 134.918L4.5045 129.098V120.897L4.05405 116.928L3.45345 113.225L2.4024 109.521L1.2012 106.346L0.45045 104.495L0 103.172L5.40541 107.14Z" fill="black" stroke="black" stroke-width="0.398609"/>
<path d="M50.6014 127.248L50.3011 129.099L50.1509 131.48L49.0999 135.713L48.0488 139.417L51.202 138.359V135.449L51.0518 123.015L50.9017 120.898V123.015L50.6014 127.248Z" fill="#00FF00" stroke="black" stroke-width="0.398609"/>
<path d="M50.9004 88.3607V86.7734H57.3568V88.3607H50.9004Z" fill="#FFFF00" stroke="black" stroke-width="0.398609"/>
<path d="M56.0055 88.3594H50.9004V102.91H52.8523V105.291H50.9004V119.047H54.504V120.899H50.9004L51.0505 123.015L51.2007 135.449L52.4019 135.185L57.3568 134.92V134.391L56.0055 128.306V88.3594Z" fill="#80C2FF" stroke="black" stroke-width="0.398609"/>
<path d="M54.504 119.047V120.899H50.9004V119.047H54.504Z" fill="#FFFF00" stroke="black" stroke-width="0.398609"/>
<path d="M57.3573 136.774L53.6036 137.832L52.1021 138.361H51.2012V135.451L52.4024 135.186L57.3573 134.922V136.774Z" fill="black" stroke="black" stroke-width="0.398609"/>
<path d="M56.0059 88.3594V112.963H57.3572V88.3594H56.0059Z" fill="#0080FF" stroke="black" stroke-width="0.398609"/>
<path d="M58.108 87.0391V114.288L57.9578 114.817L57.6575 115.081H57.3572L56.6065 115.346H56.0059V128.309L57.3572 127.78L58.7086 134.394V87.0391H58.108Z" fill="#0080FF" stroke="black" stroke-width="0.398609"/>
<path d="M57.3572 127.781L56.0059 128.31L57.3572 134.395H58.7086L57.3572 127.781Z" fill="#0080FF" stroke="black" stroke-width="0.398609"/>
<path d="M40.24 6.08466L40.0898 5.29101V3.7037L40.24 2.91005L40.3901 2.1164L40.8406 1.5873L41.1409 1.0582L41.7415 0.529101L42.3421 0.26455L43.0928 0H43.6934H44.294H45.4952L46.5463 0.26455L47.8977 0.793651L70.8706 15.0794V17.1958L76.8766 19.8413L81.231 25.9259L83.1829 28.5714H81.5313L79.7295 33.3333L70.7205 29.1005V48.9418L73.5733 49.7355L68.7685 61.9048L82.282 95.2381L62.9127 94.4444V72.2222L66.9667 72.7513V42.5926L68.1679 42.8571L68.3181 42.5926L68.4682 42.0635V41.5344L68.3181 41.2698L68.0178 41.0053L66.9667 40.7407V19.3122L57.8076 8.73016L53.7535 7.67196L49.8496 7.40741H45.7955L42.7925 7.93651H42.6424L42.1919 7.40741L41.8916 7.14286H40.9907L40.5403 7.40741L40.24 6.08466Z" fill="#80C2FF" stroke="black" stroke-width="0.398609"/>
<path d="M79.7297 33.3344L70.7207 29.1016V48.9428L73.5736 49.7365L79.7297 51.8529V33.3344Z" fill="black" stroke="black" stroke-width="0.398609"/>
<path d="M72.0723 47.3563V31.2188L74.3245 32.5415V48.15L72.0723 47.3563Z" fill="white" stroke="white" stroke-width="0.398609"/>
<path d="M75.2246 47.3571V33.3359L78.5279 34.6587V48.6799L75.2246 47.3571Z" fill="white" stroke="white" stroke-width="0.398609"/>
<path d="M73.5743 49.7343L79.7305 51.8507V33.3322L81.5323 28.5703H83.1839V47.3534L82.283 46.8243V47.8825L83.1839 48.4116V75.9248L88.7395 76.7185H89.7906L82.283 95.237L68.7695 61.9036L73.5743 49.7343Z" fill="#80C2FF" stroke="black" stroke-width="0.398609"/>
<path d="M98.049 54.7616V85.4494H97.7487V95.7669L82.2832 95.2378L89.7907 76.7193L90.9919 76.9838H91.1421V51.8516L91.7427 52.1161V77.2484L97.4484 77.7775V54.4971L98.049 54.7616Z" fill="black" stroke="black" stroke-width="0.398609"/>
<path d="M62.9132 94.4441V80.6875H61.8621V87.0367H58.709V134.391L59.6099 133.862L60.8111 118.783L61.2615 111.375L61.5618 105.026L97.748 103.174V95.7669L82.2826 95.2378L62.9132 94.4441Z" fill="#80C2FF" stroke="black" stroke-width="0.398609"/>
<path d="M84.6851 125.66H88.4389V123.279L89.1896 122.486L89.9404 120.898L90.3908 119.047L90.541 116.93V115.078L90.2407 112.962L89.7902 111.375L89.0395 109.787L87.9884 109.258L86.9374 108.994V105.025H85.7362V108.465L82.2827 108.994L80.9314 109.258L80.0305 109.787L79.4299 111.11L77.1776 120.369L75.526 120.634V112.697H71.7722V121.163H70.7212L67.7182 113.491L67.2677 112.697L66.6671 111.904L65.7662 111.375H61.2617L61.562 105.025L97.7482 103.174V99.9989L133.634 99.7344L134.085 114.549L133.334 117.195L132.733 119.311L126.577 118.782L127.328 118.517L127.928 109.787H130.03L130.181 103.967H128.529L127.778 104.232L127.178 105.025L126.877 106.348L126.127 110.845L125.826 106.348L125.526 105.025L124.775 104.232L122.223 104.496H121.472L120.871 105.025L120.421 105.819V120.634L120.871 120.369L120.721 121.957L120.421 123.279L119.82 124.338L119.07 124.867L118.469 124.602L117.868 124.073L117.268 123.015L116.967 121.692V119.84L119.37 113.756L119.07 104.232L97.1476 105.819L97.8984 106.348L98.1987 107.142V116.93L93.3939 130.422L86.9374 130.951V129.629L82.8833 129.893V127.777L83.1836 125.66L83.7842 123.808L84.6851 122.486V125.66Z" fill="black" stroke="black" stroke-width="0.398609"/>
<path d="M57.3574 136.771V134.39H58.7088L59.6097 133.861L60.8109 118.781H65.4655L67.4175 124.601L66.8169 125.13L66.3664 125.395L65.916 125.924L65.4655 126.982L65.3154 127.776L65.0151 128.57L64.7148 129.628L64.5646 130.421V137.3L60.2103 138.358L57.3574 138.623V136.771Z" fill="black" stroke="black" stroke-width="0.398609"/>
<path d="M76.2762 131.744L70.2702 132.803L67.4173 124.602L66.8167 125.131L66.3663 125.395L65.9158 125.924L65.4654 126.983L65.3152 127.776L65.0149 128.57L64.7146 129.628L64.5645 130.422V135.977L76.2762 132.803V131.744Z" fill="#80C2FF" stroke="black" stroke-width="0.398609"/>
<path d="M85.7348 120.37H84.6837V122.487L83.7828 123.809L83.1822 125.661L82.8819 127.778V129.894L86.936 129.629V131.217L83.3324 131.746H81.6807L81.5306 129.629L80.93 126.984L80.3294 125.397L79.8789 124.074L81.981 115.873L85.7348 115.344V120.37Z" fill="#80C2FF" stroke="black" stroke-width="0.398609"/>
<path d="M61.261 111.379H65.7655L66.6664 111.908L67.267 112.702L67.7175 113.495L70.7205 121.167H71.7715V112.702H75.5253V120.638L77.1769 120.374L79.4292 111.114L80.0298 109.792L80.9307 109.262L82.282 108.998L85.7355 108.469V115.347L81.9817 115.876L79.8796 124.077L77.9277 131.22L77.6274 131.485L76.276 131.749L70.27 132.807L67.4172 124.606L65.4652 118.786H60.8105L61.261 111.379Z" fill="black" stroke="black" stroke-width="0.398609"/>
<path d="M86.9375 120.368V108.992L87.9886 109.257L89.0396 109.786L89.7904 111.373L90.2408 112.96L90.5411 115.077V116.929L90.391 119.045L89.9405 120.897L89.1898 122.484L88.439 123.278V120.368H86.9375Z" fill="black" stroke="black" stroke-width="0.398609"/>
<path d="M73.5742 120.636H74.1748V115.609H73.5742V120.636Z" fill="black" stroke="black" stroke-width="0.398609"/>
<path d="M86.9375 120.367H85.7363V105.023H86.9375V120.367Z" fill="black" stroke="black" stroke-width="0.398609"/>
<path d="M87.3882 125.658H84.6855V120.367H87.3882V125.658Z" fill="black" stroke="black" stroke-width="0.398609"/>
<path d="M87.3867 120.367V125.658H88.4378V120.367H87.3867Z" fill="white" stroke="black" stroke-width="0.398609"/>
<path d="M62.762 133.594C63.3425 133.594 63.813 131.462 63.813 128.832C63.813 126.202 63.3425 124.07 62.762 124.07C62.1815 124.07 61.7109 126.202 61.7109 128.832C61.7109 131.462 62.1815 133.594 62.762 133.594Z" fill="black" stroke="black" stroke-width="0.398609"/>
<path d="M62.0122 132.536C62.5098 132.536 62.9131 130.641 62.9131 128.303C62.9131 125.965 62.5098 124.07 62.0122 124.07C61.5147 124.07 61.1113 125.965 61.1113 128.303C61.1113 130.641 61.5147 132.536 62.0122 132.536Z" fill="white" stroke="black" stroke-width="0.398609"/>
<path d="M97.1465 105.822L97.8972 106.351L98.1975 107.144V116.933L119.369 113.758L119.068 104.234L97.1465 105.822Z" fill="#00FF00" stroke="black" stroke-width="0.398609"/>
<path d="M119.369 113.758L98.1974 116.932L93.3926 130.424L115.465 123.811L116.215 121.694L116.966 119.842L119.369 113.758Z" fill="#80C2FF" stroke="black" stroke-width="0.398609"/>
<path d="M120.42 110.32H122.222V104.5H121.471L120.87 105.029L120.42 105.823V110.32Z" fill="black" stroke="black" stroke-width="0.398609"/>
<path d="M122.223 110.318H122.973L124.475 119.313L126.577 118.784L127.328 118.519L127.928 109.789H130.03L130.181 103.969H128.529L127.778 104.233L127.178 105.027L126.877 106.35L126.127 110.847L125.826 106.35L125.526 105.027L124.775 104.233L122.223 104.498V110.318Z" fill="black" stroke="black" stroke-width="0.398609"/>
<path d="M126.576 118.786L124.474 119.315L122.972 110.32H120.42V120.638L120.87 120.373L122.372 120.109L123.123 119.844L123.423 121.167L123.873 122.225L124.624 122.754L125.375 122.49L125.825 121.961L126.426 120.638L126.576 119.315V118.786Z" fill="black" stroke="black" stroke-width="0.398609"/>
<path d="M116.968 119.844V121.696L117.268 123.018L117.868 124.077L118.469 124.606H117.568L116.817 124.077L116.367 123.283L116.217 121.696L116.968 119.844Z" fill="white" stroke="black" stroke-width="0.398609"/>
<path d="M123.124 119.844L123.424 121.167L123.875 122.225L124.625 122.754H123.875L123.274 122.489L122.673 121.696L122.373 120.108L123.124 119.844Z" fill="white" stroke="black" stroke-width="0.398609"/>
<path d="M57.3573 138.625V136.773L53.6035 137.832V138.625L53.7537 139.683L53.9038 140.742L54.054 141.8L54.3543 142.594L54.6546 143.387L55.105 143.916L55.4053 144.445L55.8558 144.974L56.3062 145.239H57.2071L57.6576 144.974L58.108 144.71L58.5585 144.181L59.3092 142.858L59.6095 142.064L59.7597 141.006L60.06 139.948V139.154L60.2101 138.361L57.3573 138.625Z" fill="black" stroke="black" stroke-width="0.398609"/>
<path d="M52.1016 138.357V139.68L52.2517 140.738L52.552 141.796L52.8523 142.59L53.0025 143.384L53.4529 143.913L53.9034 144.442L54.3538 144.971L54.8043 145.236H56.7562H56.3058L55.8553 144.971L55.4049 144.442L55.1046 143.913L54.6541 143.384L54.3538 142.59L54.0535 141.796L53.9034 140.738L53.7532 139.68L53.6031 138.622V137.828L52.1016 138.357Z" fill="white" stroke="black" stroke-width="0.398609"/>
<path d="M76.2754 131.749V132.807L76.5757 133.865L76.7258 134.924L77.0261 135.982L77.3264 136.511L77.6267 137.304L78.0772 137.834L78.5276 138.098L78.9781 138.363H80.3294L79.879 138.098L79.4285 137.834L78.3775 135.982L78.2273 134.924L77.927 133.865L77.7769 132.807L77.6267 131.484L76.2754 131.749Z" fill="white" stroke="black" stroke-width="0.398609"/>
<path d="M81.681 131.742L81.5309 129.626L80.9303 126.98L80.3297 125.393L79.8792 124.07L77.9273 131.213L77.627 131.478L77.7771 132.8L77.9273 133.859L78.2276 134.917L78.3777 135.975L79.4288 137.827L79.8792 138.091L80.3297 138.356H80.7801L81.2306 138.091L81.5309 137.827L81.9813 137.298L82.2816 136.504L82.7321 135.711L82.8822 134.917L83.1825 133.859V132.536L83.3327 131.742H81.681Z" fill="black" stroke="black" stroke-width="0.398609"/>
<path d="M83.1824 28.5752V43.39L129.879 66.4059V59.5276L118.318 52.6493L121.321 51.3265V45.5064L120.87 44.4482L119.819 43.39L118.618 42.8609H118.167L111.861 42.3318L81.2305 25.9297L83.1824 28.5752Z" fill="#80C2FF" stroke="black" stroke-width="0.398609"/>
<path d="M129.88 59.5247L118.318 52.6464L121.321 51.3236V45.5035L120.871 44.4453L132.583 51.3236V58.2019L129.88 59.5247Z" fill="#00FF00" stroke="black" stroke-width="0.398609"/>
<path d="M129.88 75.1288L101.652 67.1923L99.7001 54.4939L83.1836 47.3511V43.3828L129.88 66.3987V75.1288Z" fill="#80C2FF" stroke="black" stroke-width="0.398609"/>
<path d="M133.334 77.2514V97.0927L133.935 97.3572V76.4578L129.881 75.135L101.653 67.1985L99.7006 54.5001L83.1841 47.3572L82.2832 46.8281V47.8863L83.1841 48.4154L91.1421 51.8546L91.7427 52.1191L97.4484 54.5001L98.049 54.7646L99.2502 55.2937L101.202 67.9921L103.454 68.5212L109.611 70.3731L115.166 71.9604L119.671 73.2832L124.325 74.6059L129.28 75.9287L129.881 76.1932L133.334 77.2514Z" fill="#FFFF00" stroke="black" stroke-width="0.398609"/>
<path d="M91.1416 51.8532V76.9855H90.9914L89.7902 76.7209H88.7391V59.2606L83.1836 57.4088V48.4141L91.1416 51.8532Z" fill="#80C2FF" stroke="black" stroke-width="0.398609"/>
<path d="M88.7391 76.7184V59.2581L83.1836 57.4062V75.9248L88.7391 76.7184Z" fill="black" stroke="black" stroke-width="0.398609"/>
<path d="M91.7422 77.2495V52.1172L97.4479 54.4981V77.7786L91.7422 77.2495Z" fill="#80C2FF" stroke="black" stroke-width="0.398609"/>
<path d="M98.0483 54.7656V85.4535H97.748V90.4799L102.703 90.7445H103.454L109.009 91.009H109.61L114.565 91.2736H115.165L119.069 91.5381H119.67L123.874 91.8027H124.325L128.829 92.0672H129.88V76.1942L129.28 75.9296L124.325 74.6069L119.67 73.2841L115.165 71.9614L109.61 70.3741L103.454 68.5222L101.202 67.9931L99.2495 55.2947L98.0483 54.7656Z" fill="#80C2FF" stroke="black" stroke-width="0.398609"/>
<path d="M133.634 99.7358L134.084 114.551L134.535 115.08L135.135 114.551L134.835 106.35V97.3549H133.934L133.334 97.0903V92.0639H128.829L124.325 91.7993H123.874L119.67 91.5348H119.069L115.165 91.2702H114.565L109.61 91.0057H109.009L103.454 90.7411H102.703L97.748 90.4766V100L133.634 99.7358Z" fill="#00FF00" stroke="black" stroke-width="0.398609"/>
<path d="M133.934 81.4844L136.186 88.6272L136.036 105.823L134.834 106.352V97.3574L134.985 89.1563L133.934 85.9817V81.4844Z" fill="#FFFF00" stroke="black" stroke-width="0.398609"/>
<path d="M76.2768 132.804L76.5771 133.862L76.7272 134.92L77.0275 135.978L77.3278 136.507L77.6281 137.301L78.0786 137.83L78.529 138.095L78.9795 138.359H80.7813L81.2318 138.095L81.5321 137.83L81.9825 137.301L82.2828 136.507L82.7332 135.714L82.8834 134.92L83.1837 133.862V132.539L83.3338 131.746L86.9375 131.216V130.952L93.3939 130.423L115.466 123.809L116.217 121.693L116.367 123.28L116.817 124.074L117.568 124.603H118.469L119.07 124.867L119.82 124.338L120.421 123.28L120.721 121.957L120.871 120.37L122.373 120.105L122.673 121.693L123.274 122.486L123.874 122.751H124.625L125.376 122.486L125.826 121.957L126.427 120.634L126.577 119.312V118.783L132.733 119.312L133.334 117.195H150.001L72.0726 150H9.91043L8.85938 147.619L16.6672 144.973L39.49 146.56L39.7903 144.973L40.0906 143.121L48.0486 139.418L51.2017 138.359H52.1026V139.682L52.2528 140.74L52.5531 141.798L52.8534 142.592L53.0035 143.386L53.454 143.915L53.9044 144.444L54.3549 144.973L54.8053 145.238H57.2077L57.6582 144.973L58.1086 144.709L58.5591 144.179L59.3098 142.857L59.6101 142.063L59.7603 141.005L60.0606 139.947V139.153L60.2107 138.359L64.5651 137.301V135.978L76.2768 132.804Z" fill="black" stroke="black" stroke-width="0.398609"/>
<path d="M33.334 36.7724L36.1868 36.5078L40.0907 38.0951" stroke="black" stroke-width="0.398609"/>
<path d="M36.6367 36.7734V48.4136" stroke="black" stroke-width="0.398609"/>
<path d="M49.8496 105.287V102.906" stroke="black" stroke-width="0.398609"/>
<path d="M50.9004 102.906V105.287" stroke="black" stroke-width="0.398609"/>
<path d="M15.7651 114.023H15.4648V123.283L16.2156 124.341L16.666 124.605L16.9663 124.87L17.4168 125.135" stroke="black" stroke-width="0.398609"/>
<path d="M4.50391 125.133L22.0715 132.54L50.2997 129.101" stroke="black" stroke-width="0.398609"/>
<path d="M61.8613 41.2734L62.9124 41.8025" stroke="black" stroke-width="0.398609"/>
<path d="M83.1841 43.3896L82.2832 43.125" stroke="black" stroke-width="0.398609"/>
<path d="M90.9902 76.9844V85.1854H91.741V77.2489" stroke="black" stroke-width="0.398609"/>
<path d="M97.4473 77.7812V85.4532H97.7476" stroke="black" stroke-width="0.398609"/>
<path d="M102.703 90.7422V96.5623" stroke="black" stroke-width="0.398609"/>
<path d="M103.453 68.5156V96.558" stroke="black" stroke-width="0.398609"/>
<path d="M109.01 96.5634V91.0078" stroke="black" stroke-width="0.398609"/>
<path d="M109.609 96.5577V70.3672" stroke="black" stroke-width="0.398609"/>
<path d="M114.564 91.2734V96.829" stroke="black" stroke-width="0.398609"/>
<path d="M115.166 71.9609V96.8287" stroke="black" stroke-width="0.398609"/>
<path d="M119.068 96.8223V91.5312" stroke="black" stroke-width="0.398609"/>
<path d="M119.67 96.8262V73.2812" stroke="black" stroke-width="0.398609"/>
<path d="M123.873 91.7969V97.0879" stroke="black" stroke-width="0.398609"/>
<path d="M124.324 74.6016V97.0883" stroke="black" stroke-width="0.398609"/>
<path d="M128.828 97.089V92.0625" stroke="black" stroke-width="0.398609"/>
<path d="M129.279 97.0937V75.9297" stroke="black" stroke-width="0.398609"/>
<path d="M132.883 92.0625V97.089" stroke="black" stroke-width="0.398609"/>
<path d="M98.0488 83.6016L103.454 84.3952L109.61 84.9243L115.166 85.718L119.67 86.2471L124.325 86.7762L129.28 87.3053L129.881 87.5698" stroke="black" stroke-width="0.398609"/>
<path d="M134.835 106.346L134.535 99.2031" stroke="black" stroke-width="0.398609"/>
<path d="M36.1855 36.5078L36.636 36.7724V48.6771H37.0864L37.3867 42.5925L37.687 41.0052L37.9873 39.6824L38.4378 38.8888L39.1885 38.3597L40.0895 38.0951L36.1855 36.5078Z" fill="#0000FF" stroke="black" stroke-width="0.398609"/>
<path d="M33.3327 36.7724L29.7291 37.3015L27.627 37.8306V49.4708L36.636 48.6771V36.7724L36.1855 36.5078L33.3327 36.7724Z" fill="#0080FF" stroke="black" stroke-width="0.398609"/>
<path d="M31.3816 46.0346C32.4597 46.0346 33.3336 44.4948 33.3336 42.5954C33.3336 40.696 32.4597 39.1562 31.3816 39.1562C30.3036 39.1562 29.4297 40.696 29.4297 42.5954C29.4297 44.4948 30.3036 46.0346 31.3816 46.0346Z" fill="white" stroke="black" stroke-width="0.398609"/>
<path d="M30.1807 39.9478V39.6832L30.3308 39.4187L30.6311 39.1541L30.9314 38.8896L31.2317 38.625H32.4329L32.5831 38.8896L32.8834 39.1541H33.1837L33.6341 39.9478L33.7843 40.4769L33.9344 40.7414V41.2705L34.0846 41.7996V43.916L33.9344 44.4451V44.9742L33.7843 45.5033L33.6341 45.7679L33.3338 46.0324L33.1837 46.5615L32.8834 46.8261H32.5831L32.4329 47.0906L32.1326 47.3552H31.6822L31.532 47.0906H31.2317L30.9314 46.8261L30.6311 46.5615L30.3308 46.297L30.1807 46.0324L30.0305 45.5033L29.8804 45.2388L29.7302 44.7097L29.5801 44.1806V43.3869V44.4451L29.8804 44.7097L30.0305 45.2388L30.3308 45.7679L30.6311 46.0324H30.9314L31.0816 46.297H31.8323L32.1326 46.0324L32.4329 45.7679L32.5831 45.5033L32.8834 45.2388L33.0335 44.9742L33.1837 44.4451L33.3338 44.1806V43.1224L33.484 42.5933L33.3338 42.0642V41.2705L33.1837 40.7414L33.0335 40.4769L32.8834 39.9478L32.5831 39.6832L32.4329 39.4187L32.1326 39.1541H30.9314L30.6311 39.4187H30.3308L30.1807 39.9478Z" fill="#0000FF"/>
<path d="M30.3308 39.4187L30.1807 39.6832V39.9478L30.3308 39.4187ZM30.3308 39.4187L30.6311 39.1541L30.9314 38.8896L31.2317 38.625H32.4329L32.5831 38.8896L32.8834 39.1541H33.1837L33.6341 39.9478L33.7843 40.4769L33.9344 40.7414V41.2705L34.0846 41.7996V43.916L33.9344 44.4451V44.9742L33.7843 45.5033L33.6341 45.7679L33.3338 46.0324L33.1837 46.5615L32.8834 46.8261H32.5831L32.4329 47.0906L32.1326 47.3552H31.6822L31.532 47.0906H31.2317L30.9314 46.8261L30.6311 46.5615L30.3308 46.297L30.1807 46.0324L30.0305 45.5033L29.8804 45.2388L29.7302 44.7097L29.5801 44.1806V43.3869V44.4451L29.8804 44.7097L30.0305 45.2388L30.3308 45.7679L30.6311 46.0324H30.9314L31.0816 46.297H31.8323L32.1326 46.0324L32.4329 45.7679L32.5831 45.5033L32.8834 45.2388L33.0335 44.9742L33.1837 44.4451L33.3338 44.1806V43.1224L33.484 42.5933L33.3338 42.0642V41.2705L33.1837 40.7414L33.0335 40.4769L32.8834 39.9478L32.5831 39.6832L32.4329 39.4187L32.1326 39.1541H30.9314L30.6311 39.4187H30.3308Z" stroke="black" stroke-width="0.398609"/>
<path d="M31.8313 42.5927L30.1797 42.3281" stroke="black" stroke-width="0.398609"/>
<path d="M31.8328 42.5938L31.082 44.9747" stroke="black" stroke-width="0.398609"/>
<path d="M56.3059 11.9062V18.7846H44.8945V11.9062H56.3059Z" fill="black" stroke="black" stroke-width="0.398609"/>
</g>
<defs>
<clipPath id="clip0_2122_162039">
<rect width="150" height="150" fill="white"/>
</clipPath>
</defs>
</svg>
