<svg width="150" height="150" viewBox="0 0 150 150" fill="none" xmlns="http://www.w3.org/2000/svg">
<g clip-path="url(#clip0_2122_161706)">
<path d="M146.396 0V99.1166L148.799 103.092L149.399 104.682L149.7 106.537L150 108.922V111.307L149.85 113.958L149.55 116.078L149.249 117.668L148.799 118.728L148.499 119.788L148.198 120.318L147.748 121.113L147.297 121.643L146.697 122.173L146.096 122.438L145.495 122.968L145.045 123.498L139.64 134.894H133.333L132.583 138.074L131.682 140.989L130.48 143.375L129.279 145.23L127.628 147.085L126.126 148.145L124.474 148.94L122.823 149.205H121.021L119.369 148.94L117.718 147.88L116.216 146.555L114.715 144.965L113.514 142.579L112.312 139.929L111.411 137.014H33.7838L33.033 139.929L31.982 142.579L30.7808 144.7L29.4294 146.555L27.9279 148.145L26.2763 149.205L24.6246 149.735L22.973 150L21.1712 149.735L19.3694 149.205L17.7177 148.145L16.2162 146.82L14.8649 144.965L13.6637 142.579L12.7628 139.929L12.012 137.014H0V127.739L0.15015 126.678L0.45045 126.148L0.750751 125.618L1.2012 125.353L1.5015 125.088L1.95195 124.823L2.25225 124.293L2.55255 123.498L5.25526 100.707L22.6727 90.9011L31.982 61.7491L49.3994 58.0389V47.1731H9.90991V0H146.396Z" fill="#808080" stroke="black" stroke-width="0.398961"/>
<path d="M122.221 141.522C126.036 141.522 129.128 136.064 129.128 129.331C129.128 122.599 126.036 117.141 122.221 117.141C118.407 117.141 115.314 122.599 115.314 129.331C115.314 136.064 118.407 141.522 122.221 141.522Z" stroke="black" stroke-width="0.398961"/>
<path d="M22.8232 141.781C26.5548 141.781 29.5799 136.442 29.5799 129.855C29.5799 123.269 26.5548 117.93 22.8232 117.93C19.0915 117.93 16.0664 123.269 16.0664 129.855C16.0664 136.442 19.0915 141.781 22.8232 141.781Z" stroke="black" stroke-width="0.398961"/>
<path d="M32.8823 62.8125L24.0234 89.8443H32.8823V62.8125Z" stroke="black" stroke-width="0.398961"/>
<path d="M34.084 62.8076V89.8394H49.3993V60.6875L34.084 62.8076Z" stroke="black" stroke-width="0.398961"/>
</g>
<defs>
<clipPath id="clip0_2122_161706">
<rect width="150" height="150" fill="white"/>
</clipPath>
</defs>
</svg>
