<svg width="150" height="150" viewBox="0 0 150 150" fill="none" xmlns="http://www.w3.org/2000/svg">
<g clip-path="url(#clip0_2109_175807)">
<path d="M0 147.473L1.5015 150.002H4.65465L6.15616 147.473H143.694L145.495 150.002H148.348L150 147.473V144.438H0V147.473Z" fill="#333333"/>
<path d="M0 0H150V144.941H0V0Z" fill="#E5E5E5" stroke="black" stroke-width="0.389772"/>
<path d="M3.00293 5.05859H146.847V20.9945L3.00293 73.6083V5.05859Z" fill="#D9D9D9"/>
<path d="M6.15625 5.05859H143.694V23.524H6.15625V5.05859Z" fill="#191919"/>
<path d="M6.15625 34.1474H143.694V23.5234H6.15625V34.1474Z" fill="#3366CC"/>
<path d="M68.3184 46.797H75.5256L76.4265 44.7734L82.7328 46.797V52.8679L76.4265 54.8915L75.5256 52.8679H68.3184V46.797Z" fill="black"/>
<path d="M68.3184 49.3281H75.5256H76.4265H82.7328V50.3399L76.4265 50.8458L75.5256 50.3399H68.3184V49.3281Z" fill="#CCCCCC"/>
<path d="M3.00293 123.695L146.847 63.4922V144.437H3.00293V123.695Z" fill="#DEDEDE"/>
<path d="M3.00293 144.941V5.05859H146.847V144.941" stroke="#7F7F7F" stroke-width="0.389772"/>
<path d="M9.30957 113.07H74.9252V144.436H9.30957V113.07Z" fill="#CCCCCC"/>
<path d="M23.2735 139.379L9.30957 113.072V57.9284L28.3786 15.1797H55.706L74.9252 57.9284V113.072L59.3096 139.379H23.2735Z" fill="#F2F2F2"/>
<path d="M16.9668 57.923L29.5794 20.9922H54.5043L67.1169 57.923H16.9668Z" fill="#191919"/>
<path d="M16.9668 57.9254L23.2731 39.207H60.8106L67.1169 57.9254H16.9668Z" fill="#3366CC"/>
<path d="M16.9668 57.9246L20.2701 48.3125H63.8136L67.1169 57.9246H16.9668Z" fill="#B2B2B2"/>
<path d="M16.9668 57.923L29.5794 20.9922H54.5043" stroke="black" stroke-width="0.389772"/>
<path d="M16.9668 57.923H67.1169L54.5043 20.9922" stroke="white" stroke-width="0.389772"/>
<path d="M74.9249 99.9159L53.0029 78.668V84.2329L74.9249 104.975V99.9159Z" fill="#E5E5E5"/>
<path d="M9.30957 99.9159L31.0813 78.668V84.2329L9.30957 104.975V99.9159Z" fill="#E5E5E5"/>
<path d="M23.2735 139.379L9.30957 113.072V57.9284L28.3786 15.1797H55.706L74.9252 57.9284V113.072L59.3096 139.379H23.2735Z" stroke="black" stroke-width="0.389772"/>
<path d="M53.003 78.668H31.0811V84.2329H53.003V78.668Z" fill="white"/>
<path d="M42.0418 102.444C43.7833 102.444 45.195 100.066 45.195 97.1323C45.195 94.1986 43.7833 91.8203 42.0418 91.8203C40.3004 91.8203 38.8887 94.1986 38.8887 97.1323C38.8887 100.066 40.3004 102.444 42.0418 102.444Z" fill="#4C4C4C" stroke="black" stroke-width="0.389772"/>
<path d="M24.0237 120.909C25.2676 120.909 26.276 119.21 26.276 117.115C26.276 115.019 25.2676 113.32 24.0237 113.32C22.7799 113.32 21.7715 115.019 21.7715 117.115C21.7715 119.21 22.7799 120.909 24.0237 120.909Z" fill="#B2B2B2"/>
<path d="M60.0599 120.909C61.3038 120.909 62.3121 119.21 62.3121 117.115C62.3121 115.019 61.3038 113.32 60.0599 113.32C58.816 113.32 57.8076 115.019 57.8076 117.115C57.8076 119.21 58.816 120.909 60.0599 120.909Z" fill="#B2B2B2"/>
<path d="M65.6152 136.844H145.195V139.373H65.6152V136.844Z" fill="#999999"/>
</g>
<defs>
<clipPath id="clip0_2109_175807">
<rect width="150" height="150" fill="white"/>
</clipPath>
</defs>
</svg>
