<svg width="150" height="150" viewBox="0 0 150 150" fill="none" xmlns="http://www.w3.org/2000/svg">
<g clip-path="url(#clip0_2109_177300)">
<path d="M19.9701 0H133.784L139.79 1.2012L145.045 4.8048L148.649 10.0601L150 16.0661V129.88L148.649 136.036L145.045 141.141L139.79 144.745L133.784 146.096H19.9701L13.814 144.745L8.70886 141.141L5.10526 136.036L3.75391 129.88V16.0661L5.10526 10.0601L8.70886 4.8048L13.814 1.2012L19.9701 0Z" fill="#0000BF" stroke="black" stroke-width="0.3003"/>
<path d="M16.0661 3.75391H129.88L136.036 5.10526L141.141 8.70886L144.745 13.814L146.096 19.9701V133.784L144.745 139.79L141.141 145.045L136.036 148.649L129.88 150H16.0661L10.0601 148.649L4.8048 145.045L1.2012 139.79L0 133.784V19.9701L1.2012 13.814L4.8048 8.70886L10.0601 5.10526L16.0661 3.75391Z" fill="#7F7FFF" stroke="black" stroke-width="0.3003"/>
<path d="M22.372 18.3164H123.723L129.129 20.7188L131.531 26.1242V84.0822L129.129 89.3374L123.723 91.5897H22.372L16.8165 89.3374L14.4141 84.0822V26.1242L16.8165 20.7188L22.372 18.3164Z" fill="#0000BF" stroke="black" stroke-width="0.3003"/>
<path d="M24.6247 21.0195H121.472L126.577 22.9715L128.529 28.0766V82.2808L126.577 87.3859L121.472 89.3379H24.6247L19.3694 87.3859L17.1172 82.2808V28.0766L19.3694 22.9715L24.6247 21.0195Z" fill="#E8FF69" stroke="black" stroke-width="0.3003"/>
<path d="M14.4141 95.4961H131.531V140.841H14.4141V95.4961Z" fill="#0000BF" stroke="black" stroke-width="0.3003"/>
<path d="M16.8164 98.0469H51.8014V138.287H16.8164V98.0469Z" fill="#E5E5E5" stroke="black" stroke-width="0.3003"/>
<path d="M89.6393 98.0469H54.6543V138.287H89.6393V98.0469Z" fill="#E5E5E5" stroke="black" stroke-width="0.3003"/>
<path d="M93.2432 98.0469H128.228V138.287H93.2432V98.0469Z" fill="#E5E5E5" stroke="black" stroke-width="0.3003"/>
<path fill-rule="evenodd" clip-rule="evenodd" d="M34.6851 102.852L47.8983 115.915H21.6221L34.6851 102.852ZM34.6851 104.503L44.595 114.563H24.9254L34.6851 104.503Z" fill="#7F7F7F"/>
<path d="M34.6851 102.852L47.8983 115.915H21.6221L34.6851 102.852Z" stroke="black" stroke-width="0.3003"/>
<path d="M34.6846 104.504L44.5945 114.564H24.9248L34.6846 104.504Z" stroke="black" stroke-width="0.3003"/>
<path fill-rule="evenodd" clip-rule="evenodd" d="M72.8231 134.383L86.1864 121.02L59.9102 121.47L72.8231 134.383ZM72.8231 132.731L82.8831 122.371H62.763L72.8231 132.731Z" fill="#7F7F7F"/>
<path d="M72.8231 134.383L86.1864 121.02L59.9102 121.47L72.8231 134.383Z" stroke="black" stroke-width="0.3003"/>
<path d="M72.8228 132.731L82.8828 122.371H62.7627L72.8228 132.731Z" stroke="black" stroke-width="0.3003"/>
<path d="M122.673 104.203L124.024 105.254L97.4475 131.831L96.3965 130.78L122.673 104.203Z" fill="#7F7F7F" stroke="black" stroke-width="0.3003"/>
<path d="M23.2734 125.227H45.9461V127.479H23.2734V125.227Z" fill="#7F7F7F" stroke="black" stroke-width="0.3003"/>
<path d="M59.9102 106.457H82.5828V108.709H59.9102V106.457Z" fill="#7F7F7F" stroke="black" stroke-width="0.3003"/>
</g>
<defs>
<clipPath id="clip0_2109_177300">
<rect width="150" height="150" fill="white"/>
</clipPath>
</defs>
</svg>
