<svg width="150" height="150" viewBox="0 0 150 150" fill="none" xmlns="http://www.w3.org/2000/svg">
<g clip-path="url(#clip0_2109_177147)">
<path d="M0 0H149.85V123.085H0V0Z" fill="#4C4C4C" stroke="black" stroke-width="0.313954"/>
<path d="M149.85 26.9141H125.226V123.085H149.85V26.9141Z" fill="#4C4C4C" stroke="black" stroke-width="0.313954"/>
<path d="M0 150.001H149.85V123.086H0V150.001Z" fill="#4C4C4C" stroke="black" stroke-width="0.313954"/>
<path d="M25.2252 26.9141H0V123.085H25.2252V26.9141Z" fill="#4C4C4C" stroke="black" stroke-width="0.313954"/>
<path d="M1.50195 126.859H148.349V135.722H1.50195V126.859Z" fill="#191919" stroke="black" stroke-width="0.313954"/>
<path d="M34.2345 112.581L30.0303 110.448L28.3787 107.166L28.2285 105.853V104.048V58.9163L30.0303 53.8287L33.1835 51.8594H34.2345H36.7871H115.616L119.82 53.8287L121.472 57.6034L121.622 58.9163V60.7215V105.853L119.82 110.448L116.667 112.417L115.616 112.581H113.063H34.2345Z" fill="#CCCCCC" stroke="black" stroke-width="0.313954"/>
<path d="M37.2374 79.9239H71.6218L73.1233 79.7598L74.6248 78.611L75.2254 76.6417L74.6248 74.8364L73.1233 73.6876L71.6218 73.3594H37.2374L35.7359 73.8517L34.5347 75.3287L34.2344 76.6417L34.5347 78.1187L35.7359 79.4316L37.2374 79.9239Z" fill="#333333" stroke="black" stroke-width="0.313954"/>
<path d="M37.2374 70.5685H81.6818L85.2854 67.9426V67.2862L81.6818 64.0039H37.2374L34.2344 67.2862L37.2374 70.5685Z" fill="#333333" stroke="black" stroke-width="0.313954"/>
<path d="M110.06 70.5685C113.129 70.5685 115.616 69.0989 115.616 67.2862C115.616 65.4734 113.129 64.0039 110.06 64.0039C106.992 64.0039 104.505 65.4734 104.505 67.2862C104.505 69.0989 106.992 70.5685 110.06 70.5685Z" fill="#333333" stroke="black" stroke-width="0.313954"/>
<path d="M110.06 62.6896C113.129 62.6896 115.616 61.22 115.616 59.4073C115.616 57.5945 113.129 56.125 110.06 56.125C106.992 56.125 104.505 57.5945 104.505 59.4073C104.505 61.22 106.992 62.6896 110.06 62.6896Z" fill="#333333" stroke="black" stroke-width="0.313954"/>
<path d="M110.06 84.3536C113.129 84.3536 115.616 82.8841 115.616 81.0713C115.616 79.2586 113.129 77.7891 110.06 77.7891C106.992 77.7891 104.505 79.2586 104.505 81.0713C104.505 82.8841 106.992 84.3536 110.06 84.3536Z" fill="#333333" stroke="black" stroke-width="0.313954"/>
<path d="M44.5945 70.0747C45.0091 70.0747 45.3453 69.7074 45.3453 69.2542C45.3453 68.801 45.0091 68.4336 44.5945 68.4336C44.1799 68.4336 43.8438 68.801 43.8438 69.2542C43.8438 69.7074 44.1799 70.0747 44.5945 70.0747Z" fill="#CCCCCC"/>
<path d="M50.7508 70.0747C51.1654 70.0747 51.5015 69.7074 51.5015 69.2542C51.5015 68.801 51.1654 68.4336 50.7508 68.4336C50.3361 68.4336 50 68.801 50 69.2542C50 69.7074 50.3361 70.0747 50.7508 70.0747Z" fill="#CCCCCC"/>
<path d="M56.7566 70.0747C57.1712 70.0747 57.5074 69.7074 57.5074 69.2542C57.5074 68.801 57.1712 68.4336 56.7566 68.4336C56.342 68.4336 56.0059 68.801 56.0059 69.2542C56.0059 69.7074 56.342 70.0747 56.7566 70.0747Z" fill="#CCCCCC"/>
<path d="M63.3631 70.0747C63.7777 70.0747 64.1138 69.7074 64.1138 69.2542C64.1138 68.801 63.7777 68.4336 63.3631 68.4336C62.9484 68.4336 62.6123 68.801 62.6123 69.2542C62.6123 69.7074 62.9484 70.0747 63.3631 70.0747Z" fill="#CCCCCC"/>
<path d="M69.3699 70.0747C69.7845 70.0747 70.1206 69.7074 70.1206 69.2542C70.1206 68.801 69.7845 68.4336 69.3699 68.4336C68.9553 68.4336 68.6191 68.801 68.6191 69.2542C68.6191 69.7074 68.9553 70.0747 69.3699 70.0747Z" fill="#CCCCCC"/>
<path d="M75.9763 70.0747C76.391 70.0747 76.7271 69.7074 76.7271 69.2542C76.7271 68.801 76.391 68.4336 75.9763 68.4336C75.5617 68.4336 75.2256 68.801 75.2256 69.2542C75.2256 69.7074 75.5617 70.0747 75.9763 70.0747Z" fill="#CCCCCC"/>
<path d="M81.9822 70.0747C82.3968 70.0747 82.7329 69.7074 82.7329 69.2542C82.7329 68.801 82.3968 68.4336 81.9822 68.4336C81.5676 68.4336 81.2314 68.801 81.2314 69.2542C81.2314 69.7074 81.5676 70.0747 81.9822 70.0747Z" fill="#CCCCCC"/>
<path d="M44.5945 79.4302C45.0091 79.4302 45.3453 79.0628 45.3453 78.6096C45.3453 78.1564 45.0091 77.7891 44.5945 77.7891C44.1799 77.7891 43.8438 78.1564 43.8438 78.6096C43.8438 79.0628 44.1799 79.4302 44.5945 79.4302Z" fill="#CCCCCC"/>
<path d="M50.7508 79.4302C51.1654 79.4302 51.5015 79.0628 51.5015 78.6096C51.5015 78.1564 51.1654 77.7891 50.7508 77.7891C50.3361 77.7891 50 78.1564 50 78.6096C50 79.0628 50.3361 79.4302 50.7508 79.4302Z" fill="#CCCCCC"/>
<path d="M56.7566 79.4302C57.1712 79.4302 57.5074 79.0628 57.5074 78.6096C57.5074 78.1564 57.1712 77.7891 56.7566 77.7891C56.342 77.7891 56.0059 78.1564 56.0059 78.6096C56.0059 79.0628 56.342 79.4302 56.7566 79.4302Z" fill="#CCCCCC"/>
<path d="M63.3631 79.4302C63.7777 79.4302 64.1138 79.0628 64.1138 78.6096C64.1138 78.1564 63.7777 77.7891 63.3631 77.7891C62.9484 77.7891 62.6123 78.1564 62.6123 78.6096C62.6123 79.0628 62.9484 79.4302 63.3631 79.4302Z" fill="#CCCCCC"/>
<path d="M69.3699 79.4302C69.7845 79.4302 70.1206 79.0628 70.1206 78.6096C70.1206 78.1564 69.7845 77.7891 69.3699 77.7891C68.9553 77.7891 68.6191 78.1564 68.6191 78.6096C68.6191 79.0628 68.9553 79.4302 69.3699 79.4302Z" fill="#CCCCCC"/>
<path d="M107.808 82.712C108.803 82.712 109.609 81.9772 109.609 81.0708C109.609 80.1644 108.803 79.4297 107.808 79.4297C106.813 79.4297 106.006 80.1644 106.006 81.0708C106.006 81.9772 106.813 82.712 107.808 82.712Z" fill="#CCCCCC"/>
<path d="M107.507 61.2159C108.337 61.2159 109.009 60.4811 109.009 59.5747C109.009 58.6684 108.337 57.9336 107.507 57.9336C106.678 57.9336 106.006 58.6684 106.006 59.5747C106.006 60.4811 106.678 61.2159 107.507 61.2159Z" fill="#CCCCCC"/>
<path d="M107.808 68.9268C108.803 68.9268 109.609 68.192 109.609 67.2857C109.609 66.3793 108.803 65.6445 107.808 65.6445C106.813 65.6445 106.006 66.3793 106.006 67.2857C106.006 68.192 106.813 68.9268 107.808 68.9268Z" fill="#CCCCCC"/>
<path d="M0.900391 17.0664H148.948V26.9132H0.900391V17.0664Z" fill="#0000BF" stroke="black" stroke-width="0.313954"/>
<path d="M0 50.0547H20.1201V114.223H0V50.0547Z" fill="#BF0000" stroke="black" stroke-width="0.313954"/>
<path d="M20.1206 51.8594H1.50195V112.581H20.1206V51.8594Z" fill="#CCCCCC" stroke="black" stroke-width="0.313954"/>
<path d="M18.1682 110.777H8.55859V100.93H18.1682V110.777Z" fill="#7F7F7F" stroke="black" stroke-width="0.313954"/>
<path d="M18.1682 99.2883H8.55859V89.2773H18.1682V99.2883Z" fill="#7F7F7F" stroke="black" stroke-width="0.313954"/>
<path d="M18.1682 87.6359H8.55859V77.7891H18.1682V87.6359Z" fill="#7F7F7F" stroke="black" stroke-width="0.313954"/>
<path d="M18.1682 76.1477H8.55859V66.1367H18.1682V76.1477Z" fill="#7F7F7F" stroke="black" stroke-width="0.313954"/>
<path d="M18.1682 64.4953H8.55859V54.6484H18.1682V64.4953Z" fill="#7F7F7F" stroke="black" stroke-width="0.313954"/>
<path d="M5.40533 103.719L6.90683 104.375L7.50743 105.852L6.90683 107.493L5.40533 108.15L4.05398 107.657L3.00293 106.345V105.852L3.60353 104.375L4.95488 103.719H5.40533Z" fill="#333333" stroke="black" stroke-width="0.313954"/>
<path d="M5.40533 91.5742L6.90683 92.2307L7.50743 93.7077V94.3642L6.90683 95.8412L5.40533 96.4976L4.05398 96.0053L3.00293 94.6924V94.3642L3.30323 92.723L4.50443 91.7383L5.40533 91.5742Z" fill="#333333" stroke="black" stroke-width="0.313954"/>
<path d="M5.40533 79.9219L6.90683 80.7424L7.50743 82.0554V82.7118L6.90683 84.1888L5.40533 84.8453L4.05398 84.5171L3.00293 83.2042V82.7118L3.30323 81.0707L4.50443 80.086L5.40533 79.9219Z" fill="#333333" stroke="black" stroke-width="0.313954"/>
<path d="M5.40533 68.4336L6.90683 69.09L7.50743 70.5671V71.0594L6.90683 72.7006L5.40533 73.357L4.05398 72.8647L3.00293 71.5518V71.0594L3.30323 69.5824L4.50443 68.5977L5.40533 68.4336Z" fill="#333333" stroke="black" stroke-width="0.313954"/>
<path d="M5.40533 56.7852L6.90683 57.4416L7.50743 58.9186V59.5751L6.90683 61.0521L5.40533 61.7086L4.05398 61.2162L3.00293 59.9033V59.5751L3.30323 57.934L4.50443 56.9493L5.40533 56.7852Z" fill="#333333" stroke="black" stroke-width="0.313954"/>
<path d="M10.9609 0H20.1201V13.7856H10.9609V0Z" fill="#333333" stroke="black" stroke-width="0.313954"/>
<path d="M21.6221 0H31.2317V13.7856H21.6221V0Z" fill="#333333" stroke="black" stroke-width="0.313954"/>
<path d="M32.7324 0H42.342V13.7856H32.7324V0Z" fill="#333333" stroke="black" stroke-width="0.313954"/>
<path d="M43.8438 0H53.0029V13.7856H43.8438V0Z" fill="#333333" stroke="black" stroke-width="0.313954"/>
<path d="M54.5049 0H64.1145V13.7856H54.5049V0Z" fill="#333333" stroke="black" stroke-width="0.313954"/>
<path d="M65.6152 0H75.2248V13.7856H65.6152V0Z" fill="#333333" stroke="black" stroke-width="0.313954"/>
<path d="M76.7266 0H85.7356V13.7856H76.7266V0Z" fill="#333333" stroke="black" stroke-width="0.313954"/>
<path d="M87.2373 0H96.8469V13.7856H87.2373V0Z" fill="#333333" stroke="black" stroke-width="0.313954"/>
<path d="M98.498 0H107.958V13.7856H98.498V0Z" fill="#333333" stroke="black" stroke-width="0.313954"/>
<path d="M109.609 0H118.618V13.7856H109.609V0Z" fill="#333333" stroke="black" stroke-width="0.313954"/>
<path d="M120.12 0H129.73V13.7856H120.12V0Z" fill="#333333" stroke="black" stroke-width="0.313954"/>
<path d="M131.231 0H140.24V13.7856H131.231V0Z" fill="#333333" stroke="black" stroke-width="0.313954"/>
<path d="M15.6156 12.6354C17.8546 12.6354 19.6696 10.7985 19.6696 8.53253C19.6696 6.26659 17.8546 4.42969 15.6156 4.42969C13.3766 4.42969 11.5615 6.26659 11.5615 8.53253C11.5615 10.7985 13.3766 12.6354 15.6156 12.6354Z" fill="#191919"/>
<path d="M26.4266 12.6354C28.4997 12.6354 30.1804 10.7985 30.1804 8.53253C30.1804 6.26659 28.4997 4.42969 26.4266 4.42969C24.3535 4.42969 22.6729 6.26659 22.6729 8.53253C22.6729 10.7985 24.3535 12.6354 26.4266 12.6354Z" fill="#191919"/>
<path d="M37.2369 12.7995C39.393 12.7995 41.1408 10.8892 41.1408 8.53258C41.1408 6.17601 39.393 4.26562 37.2369 4.26562C35.0808 4.26562 33.333 6.17601 33.333 8.53258C33.333 10.8892 35.0808 12.7995 37.2369 12.7995Z" fill="#191919"/>
<path d="M48.3482 12.7995C50.5043 12.7995 52.2521 10.8892 52.2521 8.53258C52.2521 6.17601 50.5043 4.26562 48.3482 4.26562C46.1922 4.26562 44.4443 6.17601 44.4443 8.53258C44.4443 10.8892 46.1922 12.7995 48.3482 12.7995Z" fill="#191919"/>
<path d="M59.159 12.6354C61.2322 12.6354 62.9128 10.7985 62.9128 8.53253C62.9128 6.26659 61.2322 4.42969 59.159 4.42969C57.0859 4.42969 55.4053 6.26659 55.4053 8.53253C55.4053 10.7985 57.0859 12.6354 59.159 12.6354Z" fill="#191919"/>
<path d="M70.1205 12.6354C72.3595 12.6354 74.1745 10.7985 74.1745 8.53253C74.1745 6.26659 72.3595 4.42969 70.1205 4.42969C67.8815 4.42969 66.0664 6.26659 66.0664 8.53253C66.0664 10.7985 67.8815 12.6354 70.1205 12.6354Z" fill="#191919"/>
<path d="M81.2308 12.6354C83.4698 12.6354 85.2849 10.7985 85.2849 8.53253C85.2849 6.26659 83.4698 4.42969 81.2308 4.42969C78.9918 4.42969 77.1768 6.26659 77.1768 8.53253C77.1768 10.7985 78.9918 12.6354 81.2308 12.6354Z" fill="#191919"/>
<path d="M92.0418 12.6354C94.115 12.6354 95.7956 10.7985 95.7956 8.53253C95.7956 6.26659 94.115 4.42969 92.0418 4.42969C89.9687 4.42969 88.2881 6.26659 88.2881 8.53253C88.2881 10.7985 89.9687 12.6354 92.0418 12.6354Z" fill="#191919"/>
<path d="M103.003 12.6354C105.242 12.6354 107.057 10.7985 107.057 8.53253C107.057 6.26659 105.242 4.42969 103.003 4.42969C100.764 4.42969 98.9492 6.26659 98.9492 8.53253C98.9492 10.7985 100.764 12.6354 103.003 12.6354Z" fill="#191919"/>
<path d="M114.115 12.6354C116.354 12.6354 118.169 10.7985 118.169 8.53253C118.169 6.26659 116.354 4.42969 114.115 4.42969C111.876 4.42969 110.061 6.26659 110.061 8.53253C110.061 10.7985 111.876 12.6354 114.115 12.6354Z" fill="#191919"/>
<path d="M124.925 12.6354C126.998 12.6354 128.678 10.7985 128.678 8.53253C128.678 6.26659 126.998 4.42969 124.925 4.42969C122.852 4.42969 121.171 6.26659 121.171 8.53253C121.171 10.7985 122.852 12.6354 124.925 12.6354Z" fill="#191919"/>
<path d="M135.736 12.6354C137.975 12.6354 139.79 10.7985 139.79 8.53253C139.79 6.26659 137.975 4.42969 135.736 4.42969C133.497 4.42969 131.682 6.26659 131.682 8.53253C131.682 10.7985 133.497 12.6354 135.736 12.6354Z" fill="#191919"/>
<path d="M145.346 125.219H149.85V126.86H145.346V125.219Z" fill="#BF0000" stroke="black" stroke-width="0.313954"/>
</g>
<defs>
<clipPath id="clip0_2109_177147">
<rect width="150" height="150" fill="white"/>
</clipPath>
</defs>
</svg>
