<svg width="150" height="150" viewBox="0 0 150 150" fill="none" xmlns="http://www.w3.org/2000/svg">
<g clip-path="url(#clip0_2109_177320)">
<path d="M134.385 15.0655H143.844V0H134.385V15.0655Z" fill="#7F7F7F" stroke="black" stroke-width="0.362126"/>
<path d="M9.30957 15.0655H18.769V0H9.30957V15.0655Z" fill="#7F7F7F" stroke="black" stroke-width="0.362126"/>
<path d="M0 20.3047H143.844V149.999H0V20.3047Z" fill="#E0E0E0" stroke="black" stroke-width="0.362126"/>
<path d="M150 11.7891L143.844 20.3043V149.999L150 140.828V11.7891Z" fill="#B2B2B2" stroke="black" stroke-width="0.362126"/>
<path d="M0 20.3043H143.844L150 11.7891H6.15616L0 20.3043Z" fill="#B2B2B2" stroke="black" stroke-width="0.362126"/>
<path d="M13.9644 2.18359L15.6161 3.2753L16.517 5.4587L15.6161 8.29713L13.9644 9.38883L12.3128 8.29713L11.2617 5.4587L12.3128 3.2753L13.9644 2.18359Z" fill="white" stroke="black" stroke-width="0.362126"/>
<path d="M138.888 2.18359L140.54 3.2753L141.441 5.4587L140.54 8.29713L138.888 9.38883L136.937 8.29713L136.336 5.4587L136.937 3.2753L138.888 2.18359Z" fill="white" stroke="black" stroke-width="0.362126"/>
<path d="M8.10779 135.59L10.36 139.083L10.6603 143.232L8.40809 146.725L5.40509 147.162L3.15284 143.668L2.85254 139.52L5.10479 136.245L8.10779 135.59Z" fill="#F0F0F0" stroke="black" stroke-width="0.362126"/>
<path d="M24.3246 135.59L26.5768 139.083V143.232L24.6249 146.725L21.4717 147.162L19.0693 143.668V139.52L21.0213 136.245L24.3246 135.59Z" fill="#F0F0F0" stroke="black" stroke-width="0.362126"/>
<path d="M40.2399 135.59L42.9426 139.083V143.232L40.9906 146.725L37.6873 147.162L35.4351 143.668L35.1348 139.52L37.387 136.245L40.2399 135.59Z" fill="#F0F0F0" stroke="black" stroke-width="0.362126"/>
<path d="M56.6068 135.59L58.8591 139.083L59.1594 143.232L56.9071 146.725L53.9041 147.162L51.6519 143.668L51.3516 139.52L53.3035 136.245L56.6068 135.59Z" fill="#F0F0F0" stroke="black" stroke-width="0.362126"/>
<path d="M72.8226 135.59L75.0749 139.083V143.232L73.1229 146.725L69.8196 147.162L67.5674 143.668V139.52L69.5193 136.245L72.8226 135.59Z" fill="#F0F0F0" stroke="black" stroke-width="0.362126"/>
<path d="M88.7389 135.59L91.2914 139.083V143.232L89.3395 146.725L86.1863 147.162L83.9341 143.668L83.6338 139.52L85.886 136.245L88.7389 135.59Z" fill="#F0F0F0" stroke="black" stroke-width="0.362126"/>
<path d="M105.105 135.59L107.357 139.083L107.657 143.232L105.405 146.725L102.402 147.162L99.8496 143.668V139.52L101.802 136.245L105.105 135.59Z" fill="#F0F0F0" stroke="black" stroke-width="0.362126"/>
<path d="M121.322 135.59L123.574 139.083V143.232L121.622 146.725L118.319 147.162L116.066 143.668V139.52L118.018 136.245L121.322 135.59Z" fill="#F0F0F0" stroke="black" stroke-width="0.362126"/>
<path d="M137.238 135.59L139.94 139.083V143.232L137.538 146.725L134.685 147.162L132.433 143.668L131.982 139.52L134.385 136.245L137.238 135.59Z" fill="#F0F0F0" stroke="black" stroke-width="0.362126"/>
<path d="M136.637 136.246L137.838 137.119L135.286 146.726L134.385 145.635L136.637 136.246Z" fill="#CCCCCC" stroke="black" stroke-width="0.362126"/>
<path d="M120.42 136.246L121.621 137.119L119.369 146.726L118.018 145.635L120.42 136.246Z" fill="#CCCCCC" stroke="black" stroke-width="0.362126"/>
<path d="M104.354 136.246L105.405 137.119L103.153 146.726L101.802 145.635L104.354 136.246Z" fill="#CCCCCC" stroke="black" stroke-width="0.362126"/>
<path d="M88.138 136.246L89.3392 137.119L86.7866 146.726L85.8857 145.635L88.138 136.246Z" fill="#CCCCCC" stroke="black" stroke-width="0.362126"/>
<path d="M71.7718 136.246L73.1231 137.119L70.8709 146.726L69.5195 145.635L71.7718 136.246Z" fill="#CCCCCC" stroke="black" stroke-width="0.362126"/>
<path d="M55.8563 136.246L56.9073 137.119L54.6551 146.726L53.3037 145.635L55.8563 136.246Z" fill="#CCCCCC" stroke="black" stroke-width="0.362126"/>
<path d="M39.6399 136.246L40.9913 137.119L38.739 146.726L37.3877 145.635L39.6399 136.246Z" fill="#CCCCCC" stroke="black" stroke-width="0.362126"/>
<path d="M23.2737 136.246L24.6251 137.119L22.3728 146.726L21.0215 145.635L23.2737 136.246Z" fill="#CCCCCC" stroke="black" stroke-width="0.362126"/>
<path d="M7.35772 136.246L8.40877 137.119L6.15652 146.726L5.10547 145.635L7.35772 136.246Z" fill="#CCCCCC" stroke="black" stroke-width="0.362126"/>
<path d="M70.2699 52.4023L77.7774 54.8041L83.6333 60.4809L87.8375 69.4329L89.339 80.3499L87.8375 91.267L82.2819 102.184L55.2549 62.8827L62.7624 54.8041L70.2699 52.4023Z" fill="black" stroke="black" stroke-width="0.362126"/>
<path d="M68.6186 110.7C79.2331 110.7 87.8379 98.1873 87.8379 82.7523C87.8379 67.3173 79.2331 54.8047 68.6186 54.8047C58.0042 54.8047 49.3994 67.3173 49.3994 82.7523C49.3994 98.1873 58.0042 110.7 68.6186 110.7Z" fill="#7F7F7F" stroke="black" stroke-width="0.362126"/>
<path d="M68.3179 58.9531L70.2699 60.4815L70.8705 62.8833L70.2699 65.7217L68.3179 66.595L66.6663 65.7217L65.6152 62.8833L66.6663 60.4815L68.3179 58.9531Z" fill="white" stroke="black" stroke-width="0.362126"/>
<path d="M69.2188 35.8086V49.1274" stroke="black" stroke-width="0.362126"/>
<path d="M59.7598 37.7734L62.1622 51.0922" stroke="black" stroke-width="0.362126"/>
<path d="M51.0508 43.8867L56.306 55.2404" stroke="black" stroke-width="0.362126"/>
<path d="M43.8438 53.4922L51.051 62.4442" stroke="black" stroke-width="0.362126"/>
<path d="M39.0391 65.7188L47.7478 70.9589" stroke="black" stroke-width="0.362126"/>
<path d="M36.7871 79.9141L46.0964 80.7874" stroke="black" stroke-width="0.362126"/>
<path d="M37.3877 93.6666L46.697 90.8281" stroke="black" stroke-width="0.362126"/>
<path d="M40.9912 106.769L49.0993 100.219" stroke="black" stroke-width="0.362126"/>
<path d="M97.5981 107.206L89.3398 100.219" stroke="black" stroke-width="0.362126"/>
<path d="M101.502 94.1041L92.3428 91.2656" stroke="black" stroke-width="0.362126"/>
<path d="M102.102 79.9141L92.6426 80.7874" stroke="black" stroke-width="0.362126"/>
<path d="M99.8501 66.1562L90.9912 70.9597" stroke="black" stroke-width="0.362126"/>
<path d="M94.8949 53.9297L87.8379 62.445" stroke="black" stroke-width="0.362126"/>
<path d="M88.1386 43.8867L82.583 55.2404" stroke="black" stroke-width="0.362126"/>
<path d="M79.2796 37.7734L76.4268 50.4372" stroke="black" stroke-width="0.362126"/>
</g>
<defs>
<clipPath id="clip0_2109_177320">
<rect width="150" height="150" fill="white"/>
</clipPath>
</defs>
</svg>
