<svg width="150" height="150" viewBox="0 0 150 150" fill="none" xmlns="http://www.w3.org/2000/svg">
<path d="M3.45312 144.349V148.823H134.985L146.396 139.875V136.578L134.985 144.349H3.45312Z" fill="black"/>
<path d="M0.600586 144.349V9.89062H137.838V144.349H0.600586Z" fill="#7387A6" stroke="black" stroke-width="0.37607"/>
<path d="M114.865 135.398V18.8359H126.427V135.398H114.865Z" fill="#A6BAD9" stroke="black" stroke-width="0.37607"/>
<path d="M97.748 135.398V18.8359H109.159V135.398H97.748Z" fill="#A6BAD9" stroke="black" stroke-width="0.37607"/>
<path d="M80.6309 135.398V18.8359H92.0423V135.398H80.6309Z" fill="#A6BAD9" stroke="black" stroke-width="0.37607"/>
<path d="M63.5137 135.398V18.8359H74.9251V135.398H63.5137Z" fill="#A6BAD9" stroke="black" stroke-width="0.37607"/>
<path d="M46.3965 135.398V18.8359H57.8079V135.398H46.3965Z" fill="#A6BAD9" stroke="black" stroke-width="0.37607"/>
<path d="M29.1289 135.398V18.8359H40.6905V135.398H29.1289Z" fill="#A6BAD9" stroke="black" stroke-width="0.37607"/>
<path d="M12.0117 135.398V18.8359H23.4231V135.398H12.0117Z" fill="#A6BAD9" stroke="black" stroke-width="0.37607"/>
<path d="M14.8652 77.2348V63.8125H20.5709V77.2348H14.8652Z" fill="black"/>
<path d="M14.7148 108.555V95.1328H20.5707V108.555H14.7148Z" fill="black"/>
<path d="M14.8652 90.6591V81.7109H20.7211V90.6591H14.8652Z" fill="black"/>
<path d="M14.8652 121.979V113.031H20.5709V121.979H14.8652Z" fill="black"/>
<path d="M31.9824 77.2348V63.8125H37.6881V77.2348H31.9824Z" fill="black"/>
<path d="M31.9824 108.555V95.1328H37.6881V108.555H31.9824Z" fill="black"/>
<path d="M31.9824 90.6591V81.7109H37.8383V90.6591H31.9824Z" fill="black"/>
<path d="M31.9824 121.979V113.031H37.6881V121.979H31.9824Z" fill="black"/>
<path d="M49.0996 77.2348V63.8125H54.9555V77.2348H49.0996Z" fill="black"/>
<path d="M49.0996 108.555V95.1328H54.8053V108.555H49.0996Z" fill="black"/>
<path d="M49.249 90.6591V81.7109H54.9547V90.6591H49.249Z" fill="black"/>
<path d="M49.0996 121.979V113.031H54.9555V121.979H49.0996Z" fill="black"/>
<path d="M33.4834 135.401V126.453H36.3363V135.401H33.4834Z" fill="black"/>
<path d="M16.3662 135.401V126.453H19.2191V135.401H16.3662Z" fill="black"/>
<path d="M16.3662 27.7841V18.8359H19.2191V27.7841H16.3662Z" fill="black"/>
<path d="M33.4834 27.7841V18.8359H36.3363V27.7841H33.4834Z" fill="black"/>
<path d="M50.6006 27.7841V18.8359H53.4534V27.7841H50.6006Z" fill="black"/>
<path d="M50.6006 135.401V126.453H53.4534V135.401H50.6006Z" fill="black"/>
<path d="M119.219 74.8828H122.072V79.3569H119.219V74.8828Z" fill="black"/>
<path d="M119.219 65.9336H122.072V70.6432H119.219V65.9336Z" fill="black"/>
<path d="M119.219 83.8281H122.072V88.3022H119.219V83.8281Z" fill="black"/>
<path d="M119.219 56.9844H122.072V61.4585H119.219V56.9844Z" fill="black"/>
<path d="M119.219 92.7812H122.072V97.2553H119.219V92.7812Z" fill="black"/>
<path d="M119.219 48.0391H122.072V52.5132H119.219V48.0391Z" fill="black"/>
<path d="M119.219 101.727H122.072V106.201H119.219V101.727Z" fill="black"/>
<path d="M102.102 74.8828H104.954V79.3569H102.102V74.8828Z" fill="black"/>
<path d="M102.102 65.9336H104.954V70.6432H102.102V65.9336Z" fill="black"/>
<path d="M102.102 83.8281H104.954V88.3022H102.102V83.8281Z" fill="black"/>
<path d="M102.102 56.9844H104.954V61.4585H102.102V56.9844Z" fill="black"/>
<path d="M102.102 92.7812H104.954V97.2553H102.102V92.7812Z" fill="black"/>
<path d="M102.102 48.0391H104.954V52.5132H102.102V48.0391Z" fill="black"/>
<path d="M102.102 101.727H104.954V106.201H102.102V101.727Z" fill="black"/>
<path d="M137.838 9.8896L149.249 0.941406V135.4L137.838 144.348V9.8896Z" fill="#596D8C" stroke="black" stroke-width="0.37607"/>
<path d="M137.838 9.8896L149.249 0.941406H12.012L0.600586 9.8896H137.838Z" fill="#BFD3F2" stroke="black" stroke-width="0.37607"/>
</svg>
