<svg width="150" height="150" viewBox="0 0 150 150" fill="none" xmlns="http://www.w3.org/2000/svg">
<g clip-path="url(#clip0_2109_177111)">
<path d="M0 27.2422H150V136.542H0V27.2422Z" fill="#00FFFF" stroke="black" stroke-width="0.443997"/>
<path d="M0 136.543L3.003 150H146.847L150 136.543H0Z" fill="#00FFFF" stroke="black" stroke-width="0.443997"/>
<path d="M0 27.2426L3.003 13.457H146.847L150 27.2426H0Z" fill="#00FFFF" stroke="black" stroke-width="0.443997"/>
<path d="M3.00293 13.4592L6.15608 6.56641H143.694L146.847 13.4592H3.00293Z" fill="#00FFFF" stroke="black" stroke-width="0.443997"/>
<path d="M12.4629 6.56455L15.616 0H134.385L137.538 6.56455H12.4629Z" fill="#00FFFF" stroke="black" stroke-width="0.443997"/>
<path d="M15.0146 27.2422V136.542" stroke="black" stroke-width="0.443997"/>
<path d="M29.8799 136.542V27.2422" stroke="black" stroke-width="0.443997"/>
<path d="M44.8945 136.542V27.2422" stroke="black" stroke-width="0.443997"/>
<path d="M59.9102 27.2422V136.542" stroke="black" stroke-width="0.443997"/>
<path d="M74.9248 136.542V27.2422" stroke="black" stroke-width="0.443997"/>
<path d="M89.9395 27.2422V136.542" stroke="black" stroke-width="0.443997"/>
<path d="M104.805 136.542V27.2422" stroke="black" stroke-width="0.443997"/>
<path d="M119.82 27.2422V136.542" stroke="black" stroke-width="0.443997"/>
<path d="M134.835 136.542V27.2422" stroke="black" stroke-width="0.443997"/>
</g>
<defs>
<clipPath id="clip0_2109_177111">
<rect width="150" height="150" fill="white"/>
</clipPath>
</defs>
</svg>
