<svg width="150" height="150" viewBox="0 0 150 150" fill="none" xmlns="http://www.w3.org/2000/svg">
<g clip-path="url(#clip0_2109_177214)">
<path d="M124.41 149.249L140.846 143.243V137.387L124.41 143.243V149.249Z" fill="#666638" stroke="black" stroke-width="0.353485"/>
<path d="M0.832031 6.60547H132.732V143.242H0.832031V6.60547Z" fill="#CCCCBD" stroke="black" stroke-width="0.353485"/>
<path d="M1.66406 142.643H131.9V66.0664L1.66406 85.7361V142.643Z" fill="#C4C4B2"/>
<path d="M1.66406 142.643H131.9V80.7812L1.66406 100.601V142.643Z" fill="#BABAA6"/>
<path d="M1.66406 142.643H131.9V92.793L1.66406 112.463V142.643Z" fill="#B2B29B"/>
<path d="M9.1543 143.242H124.411V149.248H9.1543V143.242Z" fill="#7F7F59" stroke="black" stroke-width="0.353485"/>
<path d="M74.8955 36.3359H124.41V51.2008H74.8955V36.3359Z" fill="#D4D4C7" stroke="black" stroke-width="0.353485"/>
<path d="M74.8955 54.0547H124.41V77.9286H74.8955V54.0547Z" fill="#D4D4C7" stroke="black" stroke-width="0.353485"/>
<path d="M4.99316 48.1992H33.9113V92.7938H4.99316V48.1992Z" fill="#D4D4C7" stroke="black" stroke-width="0.353485"/>
<path d="M0.832031 6.60757L17.2675 0.601562H149.168L132.732 6.60757H0.832031Z" fill="#E5E5DD" stroke="black" stroke-width="0.353485"/>
<path d="M132.732 143.244L149.168 137.388V0.601562L132.732 6.60757V143.244Z" fill="#B2B29B" stroke="black" stroke-width="0.353485"/>
<path d="M21.4287 72.9727H28.2942V77.9276H21.4287V72.9727Z" stroke="black" stroke-width="0.353485"/>
<path d="M21.4287 65.7656H28.2942V70.5704H21.4287V65.7656Z" stroke="black" stroke-width="0.353485"/>
<path d="M21.4287 58.4102H28.2942V63.3651H21.4287V58.4102Z" stroke="black" stroke-width="0.353485"/>
<path d="M21.4287 51.2031H28.2942V56.0079H21.4287V51.2031Z" stroke="black" stroke-width="0.353485"/>
<path d="M9.1543 51.2031H17.268V89.7917H9.1543V51.2031Z" stroke="black" stroke-width="0.353485"/>
<path d="M74.8955 107.656H124.41" stroke="black" stroke-width="0.353485"/>
<path d="M124.41 111.711H74.8955" stroke="black" stroke-width="0.353485"/>
<path d="M74.8955 115.617H124.41" stroke="black" stroke-width="0.353485"/>
<path d="M124.41 119.52H74.8955" stroke="black" stroke-width="0.353485"/>
<path d="M74.8955 123.422H124.41" stroke="black" stroke-width="0.353485"/>
<path d="M124.41 127.328H74.8955" stroke="black" stroke-width="0.353485"/>
<path d="M74.8955 131.23H124.41" stroke="black" stroke-width="0.353485"/>
<path d="M66.7822 143.245V30.332" stroke="black" stroke-width="0.353485"/>
<path d="M0.832031 15.6172H132.732" stroke="black" stroke-width="0.353485"/>
<path d="M0.832031 20.5703H132.732" stroke="black" stroke-width="0.353485"/>
<path d="M0.832031 25.375H132.732" stroke="black" stroke-width="0.353485"/>
<path d="M0.832031 30.332H132.732" stroke="black" stroke-width="0.353485"/>
<path d="M79.0566 48.1992H120.249" stroke="black" stroke-width="0.353485"/>
<path d="M120.249 46.3945H79.0566" stroke="black" stroke-width="0.353485"/>
<path d="M79.0566 44.5938H120.249" stroke="black" stroke-width="0.353485"/>
<path d="M120.249 42.793H79.0566" stroke="black" stroke-width="0.353485"/>
<path d="M79.0566 41.1406H120.249" stroke="black" stroke-width="0.353485"/>
<path d="M120.249 39.3398H79.0566" stroke="black" stroke-width="0.353485"/>
</g>
<defs>
<clipPath id="clip0_2109_177214">
<rect width="150" height="150" fill="white"/>
</clipPath>
</defs>
</svg>
