<svg width="150" height="150" viewBox="0 0 150 150" fill="none" xmlns="http://www.w3.org/2000/svg">
<g clip-path="url(#clip0_2109_176133)">
<path d="M1.68262 50.3008H148.077V53.9044H1.68262V50.3008Z" fill="#7F7F7F" stroke="black" stroke-width="0.379967"/>
<path d="M1.68262 105.406H148.077V108.86H1.68262V105.406Z" fill="#7F7F7F" stroke="black" stroke-width="0.379967"/>
<path d="M0 9.30859H150V149.999H0V9.30859Z" fill="white" stroke="black" stroke-width="0.379967"/>
<path d="M0 56.1562H150V103.003H0V56.1562Z" fill="white" stroke="black" stroke-width="0.379967"/>
<path d="M3.60547 39.7891H146.154V119.519H3.60547V39.7891Z" fill="white" stroke="black" stroke-width="0.379967"/>
<path d="M3.60547 100.751H41.1055V58.5586H3.60547" stroke="black" stroke-width="0.379967"/>
<path d="M9.375 46.8477H26.2019V50.3011H9.375V46.8477Z" fill="#B2B2B2" stroke="black" stroke-width="0.379967"/>
<path d="M30.0479 46.8477H46.8748V50.3011H30.0479V46.8477Z" fill="#B2B2B2" stroke="black" stroke-width="0.379967"/>
<path d="M50.7207 46.8477H67.5476V50.3011H50.7207V46.8477Z" fill="#B2B2B2" stroke="black" stroke-width="0.379967"/>
<path d="M71.3945 46.8477H88.2215V50.3011H71.3945V46.8477Z" fill="#B2B2B2" stroke="black" stroke-width="0.379967"/>
<path d="M92.0674 46.8477H108.894V50.3011H92.0674V46.8477Z" fill="#B2B2B2" stroke="black" stroke-width="0.379967"/>
<path d="M112.74 46.8477H129.327V50.3011H112.74V46.8477Z" fill="#B2B2B2" stroke="black" stroke-width="0.379967"/>
<path d="M20.4326 42.043H37.2595V45.6466H20.4326V42.043Z" fill="#B2B2B2" stroke="black" stroke-width="0.379967"/>
<path d="M41.1055 42.043H57.9324V45.6466H41.1055V42.043Z" fill="#B2B2B2" stroke="black" stroke-width="0.379967"/>
<path d="M61.7793 42.043H78.6062V45.6466H61.7793V42.043Z" fill="#B2B2B2" stroke="black" stroke-width="0.379967"/>
<path d="M82.4521 42.043H99.2791V45.6466H82.4521V42.043Z" fill="#B2B2B2" stroke="black" stroke-width="0.379967"/>
<path d="M103.125 42.043H119.952V45.6466H103.125V42.043Z" fill="#B2B2B2" stroke="black" stroke-width="0.379967"/>
<path d="M123.798 42.043H140.625V45.6466H123.798V42.043Z" fill="#B2B2B2" stroke="black" stroke-width="0.379967"/>
<path d="M9.375 113.664H26.2019V117.118H9.375V113.664Z" fill="#B2B2B2" stroke="black" stroke-width="0.379967"/>
<path d="M30.0479 113.664H46.8748V117.118H30.0479V113.664Z" fill="#B2B2B2" stroke="black" stroke-width="0.379967"/>
<path d="M50.7207 113.664H67.5476V117.118H50.7207V113.664Z" fill="#B2B2B2" stroke="black" stroke-width="0.379967"/>
<path d="M71.3945 113.664H88.2215V117.118H71.3945V113.664Z" fill="#B2B2B2" stroke="black" stroke-width="0.379967"/>
<path d="M92.0674 113.664H108.894V117.118H92.0674V113.664Z" fill="#B2B2B2" stroke="black" stroke-width="0.379967"/>
<path d="M112.74 113.664H129.327V117.118H112.74V113.664Z" fill="#B2B2B2" stroke="black" stroke-width="0.379967"/>
<path d="M20.4326 108.859H37.2595V112.463H20.4326V108.859Z" fill="#B2B2B2" stroke="black" stroke-width="0.379967"/>
<path d="M41.1055 108.859H57.9324V112.463H41.1055V108.859Z" fill="#B2B2B2" stroke="black" stroke-width="0.379967"/>
<path d="M61.7793 108.859H78.6062V112.463H61.7793V108.859Z" fill="#B2B2B2" stroke="black" stroke-width="0.379967"/>
<path d="M82.4521 108.859H99.2791V112.463H82.4521V108.859Z" fill="#B2B2B2" stroke="black" stroke-width="0.379967"/>
<path d="M103.125 108.859H119.952V112.463H103.125V108.859Z" fill="#B2B2B2" stroke="black" stroke-width="0.379967"/>
<path d="M123.798 108.859H140.625V112.463H123.798V108.859Z" fill="#B2B2B2" stroke="black" stroke-width="0.379967"/>
<path d="M137.74 56.0064C139.2 56.0064 140.384 55.267 140.384 54.3548C140.384 53.4426 139.2 52.7031 137.74 52.7031C136.28 52.7031 135.096 53.4426 135.096 54.3548C135.096 55.267 136.28 56.0064 137.74 56.0064Z" fill="#B2B2B2" stroke="black" stroke-width="0.379967"/>
<path d="M130.289 56.1544C131.882 56.1544 133.174 55.3477 133.174 54.3526C133.174 53.3575 131.882 52.5508 130.289 52.5508C128.696 52.5508 127.404 53.3575 127.404 54.3526C127.404 55.3477 128.696 56.1544 130.289 56.1544Z" fill="#B2B2B2" stroke="black" stroke-width="0.379967"/>
<path d="M122.596 56.0064C124.057 56.0064 125.241 55.267 125.241 54.3548C125.241 53.4426 124.057 52.7031 122.596 52.7031C121.136 52.7031 119.952 53.4426 119.952 54.3548C119.952 55.267 121.136 56.0064 122.596 56.0064Z" fill="#B2B2B2" stroke="black" stroke-width="0.379967"/>
<path d="M115.385 56.1544C116.978 56.1544 118.269 55.3477 118.269 54.3526C118.269 53.3575 116.978 52.5508 115.385 52.5508C113.791 52.5508 112.5 53.3575 112.5 54.3526C112.5 55.3477 113.791 56.1544 115.385 56.1544Z" fill="#B2B2B2" stroke="black" stroke-width="0.379967"/>
<path d="M107.932 56.1544C109.526 56.1544 110.817 55.3477 110.817 54.3526C110.817 53.3575 109.526 52.5508 107.932 52.5508C106.339 52.5508 105.048 53.3575 105.048 54.3526C105.048 55.3477 106.339 56.1544 107.932 56.1544Z" fill="#B2B2B2" stroke="black" stroke-width="0.379967"/>
<path d="M100.24 56.0064C101.7 56.0064 102.884 55.267 102.884 54.3548C102.884 53.4426 101.7 52.7031 100.24 52.7031C98.7796 52.7031 97.5957 53.4426 97.5957 54.3548C97.5957 55.267 98.7796 56.0064 100.24 56.0064Z" fill="#B2B2B2" stroke="black" stroke-width="0.379967"/>
<path d="M92.7889 56.1544C94.382 56.1544 95.6735 55.3477 95.6735 54.3526C95.6735 53.3575 94.382 52.5508 92.7889 52.5508C91.1958 52.5508 89.9043 53.3575 89.9043 54.3526C89.9043 55.3477 91.1958 56.1544 92.7889 56.1544Z" fill="#B2B2B2" stroke="black" stroke-width="0.379967"/>
<path d="M85.3368 56.1544C86.9299 56.1544 88.2214 55.3477 88.2214 54.3526C88.2214 53.3575 86.9299 52.5508 85.3368 52.5508C83.7436 52.5508 82.4521 53.3575 82.4521 54.3526C82.4521 55.3477 83.7436 56.1544 85.3368 56.1544Z" fill="#B2B2B2" stroke="black" stroke-width="0.379967"/>
<path d="M56.0095 81.6842C60.1251 81.6842 63.4615 80.6758 63.4615 79.4319C63.4615 78.1881 60.1251 77.1797 56.0095 77.1797C51.894 77.1797 48.5576 78.1881 48.5576 79.4319C48.5576 80.6758 51.894 81.6842 56.0095 81.6842Z" fill="#B2B2B2" stroke="black" stroke-width="0.379967"/>
<path d="M56.0095 73.8751C60.1251 73.8751 63.4615 72.7995 63.4615 71.4727C63.4615 70.1459 60.1251 69.0703 56.0095 69.0703C51.894 69.0703 48.5576 70.1459 48.5576 71.4727C48.5576 72.7995 51.894 73.8751 56.0095 73.8751Z" fill="#B2B2B2" stroke="black" stroke-width="0.379967"/>
<path d="M56.0095 89.9381C60.1251 89.9381 63.4615 88.9297 63.4615 87.6858C63.4615 86.442 60.1251 85.4336 56.0095 85.4336C51.894 85.4336 48.5576 86.442 48.5576 87.6858C48.5576 88.9297 51.894 89.9381 56.0095 89.9381Z" fill="#B2B2B2" stroke="black" stroke-width="0.379967"/>
<path d="M122.596 106.456C124.057 106.456 125.241 105.716 125.241 104.804C125.241 103.892 124.057 103.152 122.596 103.152C121.136 103.152 119.952 103.892 119.952 104.804C119.952 105.716 121.136 106.456 122.596 106.456Z" fill="#B2B2B2" stroke="black" stroke-width="0.379967"/>
<path d="M115.385 106.608C116.978 106.608 118.269 105.801 118.269 104.806C118.269 103.811 116.978 103.004 115.385 103.004C113.791 103.004 112.5 103.811 112.5 104.806C112.5 105.801 113.791 106.608 115.385 106.608Z" fill="#B2B2B2" stroke="black" stroke-width="0.379967"/>
<path d="M107.932 106.608C109.526 106.608 110.817 105.801 110.817 104.806C110.817 103.811 109.526 103.004 107.932 103.004C106.339 103.004 105.048 103.811 105.048 104.806C105.048 105.801 106.339 106.608 107.932 106.608Z" fill="#B2B2B2" stroke="black" stroke-width="0.379967"/>
<path d="M100.24 106.456C101.7 106.456 102.884 105.716 102.884 104.804C102.884 103.892 101.7 103.152 100.24 103.152C98.7796 103.152 97.5957 103.892 97.5957 104.804C97.5957 105.716 98.7796 106.456 100.24 106.456Z" fill="#B2B2B2" stroke="black" stroke-width="0.379967"/>
<path d="M92.7889 106.608C94.382 106.608 95.6735 105.801 95.6735 104.806C95.6735 103.811 94.382 103.004 92.7889 103.004C91.1958 103.004 89.9043 103.811 89.9043 104.806C89.9043 105.801 91.1958 106.608 92.7889 106.608Z" fill="#B2B2B2" stroke="black" stroke-width="0.379967"/>
<path d="M85.3368 106.608C86.9299 106.608 88.2214 105.801 88.2214 104.806C88.2214 103.811 86.9299 103.004 85.3368 103.004C83.7436 103.004 82.4521 103.811 82.4521 104.806C82.4521 105.801 83.7436 106.608 85.3368 106.608Z" fill="#B2B2B2" stroke="black" stroke-width="0.379967"/>
<path d="M9.13477 25.6758H129.327V37.3875H9.13477V25.6758Z" fill="#B2B2B2" stroke="black" stroke-width="0.379967"/>
<path d="M20.4326 11.5625H140.625V23.2742H20.4326V11.5625Z" fill="#B2B2B2" stroke="black" stroke-width="0.379967"/>
<path d="M16.8271 25.673H20.4329V10.5078H16.8271V25.673Z" fill="white" stroke="black" stroke-width="0.379967"/>
<path d="M37.5 25.673H41.1058V10.5078H37.5V25.673Z" fill="white" stroke="black" stroke-width="0.379967"/>
<path d="M58.1729 25.673H61.7786V10.5078H58.1729V25.673Z" fill="white" stroke="black" stroke-width="0.379967"/>
<path d="M78.8457 25.673H82.4515V10.5078H78.8457V25.673Z" fill="white" stroke="black" stroke-width="0.379967"/>
<path d="M99.5195 25.673H103.125V10.5078H99.5195V25.673Z" fill="white" stroke="black" stroke-width="0.379967"/>
<path d="M119.952 25.673H123.798V10.5078H119.952V25.673Z" fill="white" stroke="black" stroke-width="0.379967"/>
<path d="M140.625 25.673H144.231V10.5078H140.625V25.673Z" fill="white" stroke="black" stroke-width="0.379967"/>
<path d="M129.327 39.788H132.933V24.4727H129.327V39.788Z" fill="white" stroke="black" stroke-width="0.379967"/>
<path d="M108.895 39.788H112.5V24.4727H108.895V39.788Z" fill="white" stroke="black" stroke-width="0.379967"/>
<path d="M88.2207 39.788H91.8265V24.4727H88.2207V39.788Z" fill="white" stroke="black" stroke-width="0.379967"/>
<path d="M67.5479 39.788H71.1536V24.4727H67.5479V39.788Z" fill="white" stroke="black" stroke-width="0.379967"/>
<path d="M46.875 39.788H50.4808V24.4727H46.875V39.788Z" fill="white" stroke="black" stroke-width="0.379967"/>
<path d="M5.5293 39.788H9.13507V24.4727H5.5293V39.788Z" fill="white" stroke="black" stroke-width="0.379967"/>
<path d="M26.2021 39.788H29.8079V24.4727H26.2021V39.788Z" fill="white" stroke="black" stroke-width="0.379967"/>
<path d="M9.13477 134.688H129.087V146.399H9.13477V134.688Z" fill="#B2B2B2" stroke="black" stroke-width="0.379967"/>
<path d="M20.4326 120.57H140.625V132.282H20.4326V120.57Z" fill="#B2B2B2" stroke="black" stroke-width="0.379967"/>
<path d="M16.8271 134.685H20.4329V119.52H16.8271V134.685Z" fill="white" stroke="black" stroke-width="0.379967"/>
<path d="M37.5 134.685H41.1058V119.52H37.5V134.685Z" fill="white" stroke="black" stroke-width="0.379967"/>
<path d="M58.1729 134.685H61.7786V119.52H58.1729V134.685Z" fill="white" stroke="black" stroke-width="0.379967"/>
<path d="M78.8457 134.685H82.4515V119.52H78.8457V134.685Z" fill="white" stroke="black" stroke-width="0.379967"/>
<path d="M99.5195 134.685H103.125V119.52H99.5195V134.685Z" fill="white" stroke="black" stroke-width="0.379967"/>
<path d="M119.952 134.685H123.798V119.52H119.952V134.685Z" fill="white" stroke="black" stroke-width="0.379967"/>
<path d="M140.625 134.685H144.231V119.52H140.625V134.685Z" fill="white" stroke="black" stroke-width="0.379967"/>
<path d="M129.327 148.8H132.933V133.484H129.327V148.8Z" fill="white" stroke="black" stroke-width="0.379967"/>
<path d="M26.2021 148.8H29.8079V133.484H26.2021V148.8Z" fill="white" stroke="black" stroke-width="0.379967"/>
<path d="M46.875 148.8H50.4808V133.484H46.875V148.8Z" fill="white" stroke="black" stroke-width="0.379967"/>
<path d="M67.5479 148.8H71.1536V133.484H67.5479V148.8Z" fill="white" stroke="black" stroke-width="0.379967"/>
<path d="M88.2207 148.8H91.8265V133.484H88.2207V148.8Z" fill="white" stroke="black" stroke-width="0.379967"/>
<path d="M108.895 148.8H112.5V133.484H108.895V148.8Z" fill="white" stroke="black" stroke-width="0.379967"/>
<path d="M5.5293 148.8H9.13507V133.484H5.5293V148.8Z" fill="white" stroke="black" stroke-width="0.379967"/>
<path d="M146.154 119.52V118.469H3.60547V120.571H146.154V119.52Z" fill="black"/>
<path d="M7.45192 6.90691V9.15916H0V0H7.45192V2.25225H6.73077L6.00962 2.4024L5.28846 2.7027L4.80769 3.003L4.32692 3.3033L3.84615 3.75375V4.2042L3.60577 4.65465L3.84615 5.1051V5.55556L4.32692 5.85586L4.80769 6.30631L5.28846 6.60661L6.00962 6.75676L6.73077 6.90691H7.45192Z" fill="#7F7F7F"/>
<path d="M7.45215 2.25225V0H14.9041V9.30931H7.45215V6.90691H8.1733L8.89446 6.75676L9.37523 6.45646L10.0964 6.15616L10.5771 5.85586L10.8175 5.40541L11.0579 4.95496V4.5045V4.05405L10.8175 3.6036L10.5771 3.3033L10.0964 2.85285L9.37523 2.55255L8.89446 2.4024L8.1733 2.25225H7.45215Z" fill="#7F7F7F"/>
</g>
<defs>
<clipPath id="clip0_2109_176133">
<rect width="150" height="150" fill="white"/>
</clipPath>
</defs>
</svg>
