<svg width="150" height="150" viewBox="0 0 150 150" fill="none" xmlns="http://www.w3.org/2000/svg">
<g clip-path="url(#clip0_2109_176321)">
<path d="M0.600586 19.3398H128.078V148.957H0.600586V19.3398Z" fill="#DBB770"/>
<path d="M96.2461 19.3398H112.162V148.957H96.2461V19.3398Z" fill="#EBD7AE"/>
<path d="M82.8828 19.3398H90.8408V148.957H82.8828V19.3398Z" fill="#EBD7AE"/>
<path d="M69.6699 19.3398H77.6279V148.957H69.6699V19.3398Z" fill="#EBD7AE"/>
<path d="M56.3066 19.3398H64.2646V148.957H56.3066V19.3398Z" fill="#EBD7AE"/>
<path d="M43.0928 19.3398H51.0507V148.957H43.0928V19.3398Z" fill="#EBD7AE"/>
<path d="M29.7295 19.3398H37.8376V148.957H29.7295V19.3398Z" fill="#EBD7AE"/>
<path d="M16.5166 19.3398H24.4746V148.957H16.5166V19.3398Z" fill="#EBD7AE"/>
<path d="M0.600586 19.3398H16.5165V51.744H0.600586V19.3398Z" fill="#F5EBD6"/>
<path d="M3.30371 116.551H7.20761V139.547H3.30371V116.551Z" fill="#007F00"/>
<path d="M9.91016 116.551H13.8141V139.547H9.91016V116.551Z" fill="#007F00"/>
<path d="M3.30371 89.8945H7.20761V113.152H3.30371V89.8945Z" fill="#007F00"/>
<path d="M9.91016 89.8945H13.8141V113.152H9.91016V89.8945Z" fill="#007F00"/>
<path d="M4.05446 38.9374L3.30371 35.5402L4.05446 32.4043L5.85626 31.0977L7.80822 32.4043L8.55897 35.5402L7.80822 38.9374L5.85626 40.244L4.05446 38.9374Z" fill="#990000"/>
<path d="M9.91016 41.5508H12.4627V45.9933H9.91016V41.5508Z" fill="#990000"/>
<path d="M9.91016 33.1875H12.4627V37.8913H9.91016V33.1875Z" fill="#990000"/>
<path d="M9.91016 25.3477H12.4627V29.7902H9.91016V25.3477Z" fill="#990000"/>
<path d="M19.8193 139.809H21.1707V141.899H19.8193V139.809Z" fill="#990000"/>
<path d="M26.5762 139.809H27.7774V141.899H26.5762V139.809Z" fill="#990000"/>
<path d="M33.1836 139.809H34.3848V141.899H33.1836V139.809Z" fill="#990000"/>
<path d="M39.79 139.809H40.9912V141.899H39.79V139.809Z" fill="#990000"/>
<path d="M46.3965 139.809H47.7478V141.899H46.3965V139.809Z" fill="#990000"/>
<path d="M53.1533 139.809H54.3545V141.899H53.1533V139.809Z" fill="#990000"/>
<path d="M59.6094 139.809H60.9607V141.899H59.6094V139.809Z" fill="#990000"/>
<path d="M66.3662 139.809H67.5674V141.899H66.3662V139.809Z" fill="#990000"/>
<path d="M72.9727 139.809H74.1739V141.899H72.9727V139.809Z" fill="#990000"/>
<path d="M79.5791 139.809H80.9305V141.899H79.5791V139.809Z" fill="#990000"/>
<path d="M86.1865 139.809H87.5379V141.899H86.1865V139.809Z" fill="#990000"/>
<path d="M92.9434 139.809H94.1446V141.899H92.9434V139.809Z" fill="#990000"/>
<path d="M19.8203 130.398H21.1717V132.75H19.8203V130.398Z" fill="#990000"/>
<path d="M26.5762 130.398H27.7774V132.75H26.5762V130.398Z" fill="#990000"/>
<path d="M33.1836 130.398H34.3848V132.75H33.1836V130.398Z" fill="#990000"/>
<path d="M39.79 130.398H40.9912V132.75H39.79V130.398Z" fill="#990000"/>
<path d="M46.3965 130.398H47.7478V132.75H46.3965V130.398Z" fill="#990000"/>
<path d="M53.1533 130.398H54.3545V132.75H53.1533V130.398Z" fill="#990000"/>
<path d="M59.6094 130.398H60.9607V132.75H59.6094V130.398Z" fill="#990000"/>
<path d="M66.3662 130.398H67.5674V132.75H66.3662V130.398Z" fill="#990000"/>
<path d="M72.9727 130.398H74.1739V132.75H72.9727V130.398Z" fill="#990000"/>
<path d="M79.5801 130.398H80.9314V132.75H79.5801V130.398Z" fill="#990000"/>
<path d="M86.1865 130.398H87.5379V132.75H86.1865V130.398Z" fill="#990000"/>
<path d="M92.9434 130.398H94.1446V132.75H92.9434V130.398Z" fill="#990000"/>
<path d="M19.8203 121.254H21.1717V123.344H19.8203V121.254Z" fill="#990000"/>
<path d="M26.5762 121.254H27.7774V123.344H26.5762V121.254Z" fill="#990000"/>
<path d="M33.1836 121.254H34.3848V123.344H33.1836V121.254Z" fill="#990000"/>
<path d="M39.79 121.254H40.9912V123.344H39.79V121.254Z" fill="#990000"/>
<path d="M46.3965 121.254H47.7478V123.344H46.3965V121.254Z" fill="#990000"/>
<path d="M53.1533 121.254H54.3545V123.344H53.1533V121.254Z" fill="#990000"/>
<path d="M59.6094 121.254H60.9607V123.344H59.6094V121.254Z" fill="#990000"/>
<path d="M66.3662 121.254H67.5674V123.344H66.3662V121.254Z" fill="#990000"/>
<path d="M72.9727 121.254H74.1739V123.344H72.9727V121.254Z" fill="#990000"/>
<path d="M79.5801 121.254H80.9314V123.344H79.5801V121.254Z" fill="#990000"/>
<path d="M86.1865 121.254H87.5379V123.344H86.1865V121.254Z" fill="#990000"/>
<path d="M92.9434 121.254H94.1446V123.344H92.9434V121.254Z" fill="#990000"/>
<path d="M19.8203 112.109H21.1717V114.2H19.8203V112.109Z" fill="#990000"/>
<path d="M26.5762 112.109H27.7774V114.2H26.5762V112.109Z" fill="#990000"/>
<path d="M33.1836 112.109H34.3848V114.2H33.1836V112.109Z" fill="#990000"/>
<path d="M39.79 112.109H40.9912V114.2H39.79V112.109Z" fill="#990000"/>
<path d="M46.3965 112.109H47.7478V114.2H46.3965V112.109Z" fill="#990000"/>
<path d="M53.1533 112.109H54.3545V114.2H53.1533V112.109Z" fill="#990000"/>
<path d="M59.6094 112.109H60.9607V114.2H59.6094V112.109Z" fill="#990000"/>
<path d="M66.3662 112.109H67.5674V114.2H66.3662V112.109Z" fill="#990000"/>
<path d="M72.9727 112.109H74.1739V114.2H72.9727V112.109Z" fill="#990000"/>
<path d="M79.5801 112.109H80.9314V114.2H79.5801V112.109Z" fill="#990000"/>
<path d="M86.1865 112.109H87.5379V114.2H86.1865V112.109Z" fill="#990000"/>
<path d="M92.9434 112.109H94.1446V114.2H92.9434V112.109Z" fill="#990000"/>
<path d="M19.8203 102.703H21.1717V105.055H19.8203V102.703Z" fill="#990000"/>
<path d="M26.5762 102.703H27.7774V105.055H26.5762V102.703Z" fill="#990000"/>
<path d="M33.1836 102.703H34.3848V105.055H33.1836V102.703Z" fill="#990000"/>
<path d="M39.79 102.703H40.9912V105.055H39.79V102.703Z" fill="#990000"/>
<path d="M46.3965 102.703H47.7478V105.055H46.3965V102.703Z" fill="#990000"/>
<path d="M53.1533 102.703H54.3545V105.055H53.1533V102.703Z" fill="#990000"/>
<path d="M59.6094 102.703H60.9607V105.055H59.6094V102.703Z" fill="#990000"/>
<path d="M66.3662 102.703H67.5674V105.055H66.3662V102.703Z" fill="#990000"/>
<path d="M72.9727 102.703H74.1739V105.055H72.9727V102.703Z" fill="#990000"/>
<path d="M79.5801 102.703H80.9314V105.055H79.5801V102.703Z" fill="#990000"/>
<path d="M86.1865 102.703H87.5379V105.055H86.1865V102.703Z" fill="#990000"/>
<path d="M92.9434 102.703H94.1446V105.055H92.9434V102.703Z" fill="#990000"/>
<path d="M19.8203 93.5547H21.1717V95.6453H19.8203V93.5547Z" fill="#990000"/>
<path d="M26.5762 93.5547H27.7774V95.6453H26.5762V93.5547Z" fill="#990000"/>
<path d="M33.1836 93.5547H34.3848V95.6453H33.1836V93.5547Z" fill="#990000"/>
<path d="M39.79 93.5547H40.9912V95.6453H39.79V93.5547Z" fill="#990000"/>
<path d="M46.3965 93.5547H47.7478V95.6453H46.3965V93.5547Z" fill="#990000"/>
<path d="M53.1533 93.5547H54.3545V95.6453H53.1533V93.5547Z" fill="#990000"/>
<path d="M59.6094 93.5547H60.9607V95.6453H59.6094V93.5547Z" fill="#990000"/>
<path d="M66.3662 93.5547H67.5674V95.6453H66.3662V93.5547Z" fill="#990000"/>
<path d="M72.9727 93.5547H74.1739V95.6453H72.9727V93.5547Z" fill="#990000"/>
<path d="M79.5801 93.5547H80.9314V95.6453H79.5801V93.5547Z" fill="#990000"/>
<path d="M86.1865 93.5547H87.5379V95.6453H86.1865V93.5547Z" fill="#990000"/>
<path d="M92.9434 93.5547H94.1446V95.6453H92.9434V93.5547Z" fill="#990000"/>
<path d="M19.8193 84.1445H21.1707V86.4964H19.8193V84.1445Z" fill="#990000"/>
<path d="M26.5762 84.1445H27.7774V86.4964H26.5762V84.1445Z" fill="#990000"/>
<path d="M33.1836 84.1445H34.3848V86.4964H33.1836V84.1445Z" fill="#990000"/>
<path d="M39.79 84.1445H40.9912V86.4964H39.79V84.1445Z" fill="#990000"/>
<path d="M46.3965 84.1445H47.7478V86.4964H46.3965V84.1445Z" fill="#990000"/>
<path d="M53.1533 84.1445H54.3545V86.4964H53.1533V84.1445Z" fill="#990000"/>
<path d="M59.6094 84.1445H60.9607V86.4964H59.6094V84.1445Z" fill="#990000"/>
<path d="M66.3662 84.1445H67.5674V86.4964H66.3662V84.1445Z" fill="#990000"/>
<path d="M72.9727 84.1445H74.1739V86.4964H72.9727V84.1445Z" fill="#990000"/>
<path d="M79.5791 84.1445H80.9305V86.4964H79.5791V84.1445Z" fill="#990000"/>
<path d="M86.1865 84.1445H87.5379V86.4964H86.1865V84.1445Z" fill="#990000"/>
<path d="M92.9434 84.1445H94.1446V86.4964H92.9434V84.1445Z" fill="#990000"/>
<path d="M19.8193 75H21.1707V77.3519H19.8193V75Z" fill="#990000"/>
<path d="M26.5762 75H27.7774V77.3519H26.5762V75Z" fill="#990000"/>
<path d="M33.1836 75H34.3848V77.3519H33.1836V75Z" fill="#990000"/>
<path d="M39.79 75H40.9912V77.3519H39.79V75Z" fill="#990000"/>
<path d="M46.3965 75H47.7478V77.3519H46.3965V75Z" fill="#990000"/>
<path d="M53.1533 75H54.3545V77.3519H53.1533V75Z" fill="#990000"/>
<path d="M59.6094 75H60.9607V77.3519H59.6094V75Z" fill="#990000"/>
<path d="M66.3662 75H67.5674V77.3519H66.3662V75Z" fill="#990000"/>
<path d="M72.9727 75H74.1739V77.3519H72.9727V75Z" fill="#990000"/>
<path d="M79.5791 75H80.9305V77.3519H79.5791V75Z" fill="#990000"/>
<path d="M86.1865 75H87.5379V77.3519H86.1865V75Z" fill="#990000"/>
<path d="M92.9434 75H94.1446V77.3519H92.9434V75Z" fill="#990000"/>
<path d="M19.8193 65.8555H21.1707V67.9461H19.8193V65.8555Z" fill="#990000"/>
<path d="M26.5762 65.8555H27.7774V67.9461H26.5762V65.8555Z" fill="#990000"/>
<path d="M33.1836 65.8555H34.3848V67.9461H33.1836V65.8555Z" fill="#990000"/>
<path d="M39.79 65.8555H40.9912V67.9461H39.79V65.8555Z" fill="#990000"/>
<path d="M46.3965 65.8555H47.7478V67.9461H46.3965V65.8555Z" fill="#990000"/>
<path d="M53.1533 65.8555H54.3545V67.9461H53.1533V65.8555Z" fill="#990000"/>
<path d="M59.6094 65.8555H60.9607V67.9461H59.6094V65.8555Z" fill="#990000"/>
<path d="M66.3662 65.8555H67.5674V67.9461H66.3662V65.8555Z" fill="#990000"/>
<path d="M72.9727 65.8555H74.1739V67.9461H72.9727V65.8555Z" fill="#990000"/>
<path d="M79.5791 65.8555H80.9305V67.9461H79.5791V65.8555Z" fill="#990000"/>
<path d="M86.1865 65.8555H87.5379V67.9461H86.1865V65.8555Z" fill="#990000"/>
<path d="M92.9434 65.8555H94.1446V67.9461H92.9434V65.8555Z" fill="#990000"/>
<path d="M19.8203 56.4453H21.1717V58.7972H19.8203V56.4453Z" fill="#990000"/>
<path d="M26.5762 56.4453H27.7774V58.7972H26.5762V56.4453Z" fill="#990000"/>
<path d="M33.1836 56.4453H34.3848V58.7972H33.1836V56.4453Z" fill="#990000"/>
<path d="M39.79 56.4453H40.9912V58.7972H39.79V56.4453Z" fill="#990000"/>
<path d="M46.3965 56.4453H47.7478V58.7972H46.3965V56.4453Z" fill="#990000"/>
<path d="M53.1533 56.4453H54.3545V58.7972H53.1533V56.4453Z" fill="#990000"/>
<path d="M59.6094 56.4453H60.9607V58.7972H59.6094V56.4453Z" fill="#990000"/>
<path d="M66.3662 56.4453H67.5674V58.7972H66.3662V56.4453Z" fill="#990000"/>
<path d="M72.9727 56.4453H74.1739V58.7972H72.9727V56.4453Z" fill="#990000"/>
<path d="M79.5801 56.4453H80.9314V58.7972H79.5801V56.4453Z" fill="#990000"/>
<path d="M86.1865 56.4453H87.5379V58.7972H86.1865V56.4453Z" fill="#990000"/>
<path d="M92.9434 56.4453H94.1446V58.7972H92.9434V56.4453Z" fill="#990000"/>
<path d="M0.600586 19.3396L21.7718 1.04688H149.249L128.078 19.3396H0.600586Z" fill="#F2E5CC" stroke="black" stroke-width="0.396171"/>
<path d="M128.078 148.956L149.249 130.402V1.04688L128.078 19.3396V148.956Z" fill="#D1A347" stroke="black" stroke-width="0.396171"/>
<path d="M0.600586 19.3398H128.078V148.957H0.600586V19.3398Z" stroke="black" stroke-width="0.396171"/>
</g>
<defs>
<clipPath id="clip0_2109_176321">
<rect width="150" height="150" fill="white"/>
</clipPath>
</defs>
</svg>
