<svg width="150" height="150" viewBox="0 0 150 150" fill="none" xmlns="http://www.w3.org/2000/svg">
<g clip-path="url(#clip0_2109_213074)">
<path d="M1.00098 146.095H77.5861L96.2735 137.086V140.99L77.5861 149.999H1.00098V146.095Z" fill="#33260D" stroke="black" stroke-width="0.316562"/>
<path d="M96.2734 6.15616L93.6037 4.35435L88.5982 2.85285L81.2567 1.5015L72.2467 0.45045L62.2355 0H51.557L41.5459 0.45045L32.5359 1.5015L25.1944 2.85285L3.16992 11.8619L78.9208 13.8138L96.2734 6.15616Z" fill="#FFF2D9"/>
<path d="M96.2735 6.15625L78.9209 13.8139V146.096L96.2735 137.838V6.15625Z" fill="#E0D3BA"/>
<path d="M96.2734 6.15616L93.6037 4.35435L88.5982 2.85285L81.2567 1.5015L72.2467 0.45045L62.2356 0H51.557L41.5459 0.45045L32.5359 1.5015L25.1944 2.85285L3.16992 11.8619L78.9208 146.096L96.2734 137.838V6.15616Z" stroke="#7F7259" stroke-width="0.316562"/>
<path d="M78.921 13.9669L75.9177 12.1651L70.9121 10.6636L63.5706 9.31229L54.5606 8.26124L44.5495 7.96094H34.2047L24.1935 8.26124L15.3504 9.31229L8.0089 10.6636L2.50278 12.1651L0 13.9669V146.099H78.921V13.9669Z" fill="#E5D8BF"/>
<path d="M72.9145 13.9626L69.0769 11.5602L64.7388 10.359L59.9001 9.3079L55.2282 8.7073L50.2226 8.1067L45.0502 7.8064L43.8823 7.65625H42.8811H34.8722L29.8667 8.1067L24.6943 8.55715L19.8556 9.15775L15.0168 10.0587L10.5118 11.41L8.17591 12.1608L6.34054 13.8124L6.00684 13.9626V18.1668V26.2749L6.17369 34.5331V51.0496V59.3079V104.653V112.912V125.374L6.00684 133.632V141.891V146.095H8.00906L14.3494 145.945L20.523 145.794H28.8656H35.2059H47.7198H54.0602L60.4006 145.945H66.5741L70.9123 146.095H72.9145V141.891V13.9626Z" fill="#EBDEC5"/>
<path d="M66.9079 13.9626L63.2371 11.41L58.7321 9.9085L54.0602 8.85745L49.0547 8.25685L43.8823 7.8064L42.8812 7.65625H42.0469H35.8734L30.701 8.1067L25.8623 8.85745L21.3572 9.6082L16.5185 10.9596L13.8489 12.1608L12.5141 13.5121L11.8467 13.9626V18.1668L12.0135 26.2749V34.5331L12.1804 42.7914V59.3079V67.5662V96.395V104.653V117.116L12.0135 125.374V133.632L11.8467 141.891V146.095H13.6821L18.8545 145.945L24.0269 145.794H30.8678H36.0402H46.3851H51.5575L56.7299 145.945H61.7354L65.2393 146.095H66.9079V141.891V13.9626Z" fill="#EDE0C7"/>
<path d="M60.9013 13.9626L57.3975 10.9596L53.0593 9.45805L48.2206 8.407L43.0482 7.8064L42.2139 7.65625H41.5465H36.5409L31.2017 8.25685L26.1961 9.3079L22.0248 10.8094L19.6889 12.1608L18.5209 13.5121L17.8535 13.9626V18.1668L18.0204 26.2749V34.5331V51.0496L18.1872 59.3079V104.653L18.0204 112.912V125.374V133.632L17.8535 141.891V146.095L20.69 145.945H26.0293L31.3685 145.794H36.7078H44.8835H50.2228L55.5621 145.945H58.2317L60.9013 146.095V141.891V13.9626Z" fill="#F2E5CC"/>
<path d="M54.8941 13.9626L52.2245 10.9596L48.0532 9.0076L43.5482 7.95655L42.0465 7.8064L41.546 7.65625H41.0454L36.0399 7.95655L31.368 8.85745L29.8663 9.3079L25.8619 11.7103L24.5271 13.5121L24.1934 13.9626V18.1668V141.891V146.095L26.1956 145.945L32.0354 145.794H37.7084H43.3813L49.2212 145.945H53.0588L54.8941 146.095V141.891V13.9626Z" fill="#F7EAD1"/>
<path d="M48.5539 13.9626L48.2202 12.1608L45.05 9.15775L40.8787 7.8064L40.545 7.65625H40.3782L35.3726 8.55715L31.7019 10.9596L30.367 13.5121L30.2002 13.9626V18.1668V141.891V146.095L31.3682 145.945L37.208 145.794H43.0478L48.5539 146.095L48.7208 137.686V129.428V121.17V112.912V100.449L48.8876 96.395V92.1908V63.362L48.7208 55.1037V42.7914V34.5331V26.2749L48.5539 18.1668V13.9626Z" fill="#FAEDD4"/>
<path d="M74.249 13.9626L71.9131 12.1608L67.2413 10.6593L60.9009 9.3079L52.892 8.25685L43.882 7.65625H34.872L25.8619 8.25685L17.853 9.3079L11.6795 10.6593L6.84081 12.1608L4.50488 13.9626V146.095H74.249V13.9626Z" fill="#E8DBC2"/>
<path d="M69.9106 13.9626L67.5747 12.1608L63.5702 10.6593L58.231 9.3079L51.2232 8.25685L43.548 7.65625H35.2054L27.5302 8.25685L20.5224 9.3079L14.8494 10.6593L11.0119 12.1608L8.84277 13.9626V146.095H69.9106V13.9626Z" fill="#EBDEC5"/>
<path d="M65.2388 13.9626L63.5703 12.1608L60.2332 10.6593L55.2277 9.3079L49.5547 8.25685L42.8806 7.65625H35.8728L29.5324 8.25685L23.5258 9.3079L18.5202 10.6593L15.35 12.1608L13.5146 13.9626V146.095H65.2388V13.9626Z" fill="#F0E3CA"/>
<path d="M60.9013 13.9626L59.2328 12.1608L56.5632 10.6593L52.5587 9.3079L47.5532 8.25685L42.2139 7.65625H36.5409L31.2017 8.25685L26.1961 9.3079L22.1917 10.6593L19.6889 12.1608L17.8535 13.9626V146.095H60.9013V13.9626Z" fill="#F2E5CC"/>
<path d="M56.2295 13.9626L55.2284 12.1608L52.8925 10.6593L49.8891 9.3079L45.8847 8.25685L41.5465 7.65625H37.2084L32.8702 8.25685L29.1995 9.3079L25.8624 10.6593L24.0271 12.1608L22.5254 13.9626V146.095H56.2295V13.9626Z" fill="#F5E8CF"/>
<path d="M51.5577 13.9626L50.8903 12.1608L49.2217 10.6593L46.8858 9.3079L44.2162 8.25685L41.2128 7.65625H37.8758L34.5388 8.25685L31.8691 9.3079L29.5332 10.6593L27.8647 12.1608L27.1973 13.9626V146.095H51.5577V13.9626Z" fill="#F7EAD1"/>
<path d="M47.2192 13.9626L46.5518 12.1608L45.5507 10.6593L44.2159 9.3079L42.5474 8.25685L40.5452 7.65625H38.5429L36.5407 8.25685L34.5385 9.3079L33.2037 10.6593L32.2026 12.1608L31.5352 13.9626V146.095H47.2192V13.9626Z" fill="#FCEFD6"/>
<path d="M42.5474 13.9669L42.2137 12.1651L41.88 10.6636L41.2126 9.31229L40.5452 8.26124L39.8778 7.96094H38.8767L38.2093 8.26124L37.2081 9.31229L36.8744 10.6636L36.207 12.1651V13.9669V146.099H42.5474V13.9669Z" fill="#FFF2D9"/>
<path d="M2.50278 12.1641L0 13.9659V146.098H78.921" stroke="#7F7259" stroke-width="0.316562"/>
<path d="M8.50977 39.4922H69.9113V47.3H8.50977V39.4922Z" fill="#D9CCB3"/>
<path d="M69.9113 47.2969H8.50977" stroke="#FFF2D9" stroke-width="0.316562"/>
<path d="M69.9113 39.4922H8.50977" stroke="#7F7259" stroke-width="0.316562"/>
<path d="M26.1953 42.4922H52.5579V44.294H26.1953V42.4922Z" fill="#665940"/>
<path d="M11.8467 23.5703H66.9079V26.5733H11.8467V23.5703Z" fill="#665940"/>
<path d="M11.8467 133.938H66.9079V137.841H11.8467V133.938Z" fill="#665940"/>
<path d="M11.8467 126.125H66.9079V130.029H11.8467V126.125Z" fill="#665940"/>
<path d="M11.8467 118.469H66.9079V122.373H11.8467V118.469Z" fill="#665940"/>
<path d="M39.3773 80.782C42.9712 80.782 45.8846 78.1603 45.8846 74.9262C45.8846 71.6921 42.9712 69.0703 39.3773 69.0703C35.7835 69.0703 32.8701 71.6921 32.8701 74.9262C32.8701 78.1603 35.7835 80.782 39.3773 80.782Z" fill="#998C73" stroke="#998C73" stroke-width="0.316562"/>
<path d="M39.2102 78.8312C41.6061 78.8312 43.5484 77.0834 43.5484 74.9273C43.5484 72.7713 41.6061 71.0234 39.2102 71.0234C36.8143 71.0234 34.8721 72.7713 34.8721 74.9273C34.8721 77.0834 36.8143 78.8312 39.2102 78.8312Z" fill="#9999FF" stroke="black" stroke-width="0.316562"/>
<path d="M38.3761 75.9742C39.5741 75.9742 40.5452 75.1003 40.5452 74.0223C40.5452 72.9442 39.5741 72.0703 38.3761 72.0703C37.1782 72.0703 36.207 72.9442 36.207 74.0223C36.207 75.1003 37.1782 75.9742 38.3761 75.9742Z" fill="#CCCCFF"/>
<path d="M34.8721 25.6719H43.8821V26.8731H34.8721V25.6719Z" fill="#F2E5CC"/>
<path d="M78.9209 146.095V13.8125" stroke="#CCBFA6" stroke-width="0.316562"/>
<path d="M88.5986 109.312H150V137.09H88.5986V109.312Z" fill="#B2B2B2"/>
<path d="M87.5977 110.664H148.832V137.841H87.5977V110.664Z" fill="#F2F2F2"/>
<path d="M87.5977 137.84L118.298 122.375L148.832 137.84H87.5977Z" fill="#EBEBEB" stroke="#B2B2B2" stroke-width="0.316562"/>
<path d="M87.5977 112.466L118.298 130.033L148.832 112.466V110.664H87.5977V112.466Z" fill="#D9D9D9"/>
<path d="M87.5977 110.664H148.832V137.841H87.5977V110.664Z" stroke="black" stroke-width="0.316562"/>
<path d="M87.5977 110.664L118.298 128.232L148.832 110.664H87.5977Z" fill="#FAFAFA" stroke="#7F7F7F" stroke-width="0.316562"/>
</g>
<defs>
<clipPath id="clip0_2109_213074">
<rect width="150" height="150" fill="white"/>
</clipPath>
</defs>
</svg>
