<svg width="150" height="150" viewBox="0 0 150 150" fill="none" xmlns="http://www.w3.org/2000/svg">
<g clip-path="url(#clip0_2109_212815)">
<path d="M0 6.76562H136.186V149.998H0V6.76562Z" fill="#9999FF"/>
<path d="M0 80.9049L136.186 21.0938V150.002H0V80.9049Z" fill="#9494FA"/>
<path d="M0 88.7686L136.186 29.4297V149.996H0V88.7686Z" fill="#8F8FF5"/>
<path d="M0 104.194L136.186 44.3828V149.997H0V104.194Z" fill="#8A8AF0"/>
<path d="M0 110.335L136.186 50.5234V149.999H0V110.335Z" fill="#8585EB"/>
<path d="M0 124.819L136.186 65.0078V150.003H0V124.819Z" fill="#7F7FE5"/>
<path d="M0 141.499L136.186 81.6875V149.998H0V141.499Z" fill="#7A7AE0"/>
<path d="M150 0L136.187 6.7681V150L150 142.76V0Z" fill="#6666CC"/>
<path d="M150 0L136.186 6.7681H0L13.6637 0H150Z" fill="#CCCCFF"/>
<path d="M0 150V6.7681L13.6637 0H150V142.76L136.186 150H0Z" stroke="#333399" stroke-width="0.307462"/>
<path d="M98.7992 78.3828V124.815H105.706L95.3457 135.676L84.9854 124.815H91.8923V78.3828H98.7992Z" fill="white"/>
<path d="M68.168 46.4356H112.462V39.1953L122.522 49.8984L112.462 60.444V53.2037H68.168V46.4356Z" fill="white"/>
<path d="M37.3874 78.3865V31.9542H30.4805L40.8408 21.0938L51.051 31.9542H44.2943V78.3865H37.3874Z" fill="white"/>
<path d="M68.1686 110.337H23.8743V117.577L13.6641 106.874L23.8743 96.3281V103.254H68.1686V110.337Z" fill="white"/>
<path d="M80.0299 108.45L72.222 110.811H64.2641L56.156 108.45L49.2491 104.2L43.2431 98.0619L39.189 90.8216L37.0869 82.3221V73.8226L39.189 65.6379L43.2431 58.0829L49.2491 52.2591L56.156 48.0094L64.2641 45.6484H72.222L80.0299 48.0094L87.2371 52.2591L92.9428 58.0829L96.8467 65.6379L99.0989 73.8226V82.3221L96.8467 90.8216L92.9428 98.0619L87.2371 104.2L80.0299 108.45Z" fill="#4C4CB2"/>
<path d="M78.8286 105.615L71.3211 107.818H63.8136L56.3061 105.615L49.5493 101.522L43.8436 95.6986L40.0899 88.7731L38.2881 80.9032V72.8759L40.0899 65.0061L43.8436 57.7658L49.5493 52.2568L56.3061 48.0071L63.8136 45.9609H71.3211L78.8286 48.0071L85.7355 52.2568L91.2911 57.7658L95.0448 65.0061L96.8466 72.8759V80.9032L95.0448 88.7731L91.2911 95.6986L85.7355 101.522L78.8286 105.615Z" fill="#5757B8"/>
<path d="M77.6279 102.935L70.721 104.824H63.2135L56.3066 102.935L49.8501 99.0005L44.5949 93.4916L41.1414 86.8809L39.1895 79.3258V71.7707L41.1414 64.373L44.5949 57.7623L49.8501 52.2534L56.3066 48.3185L63.2135 46.4297H70.721L77.6279 48.3185L84.2345 52.2534L89.4898 57.7623L92.9432 64.373L94.745 71.7707V79.3258L92.9432 86.8809L89.4898 93.4916L84.2345 99.0005L77.6279 102.935Z" fill="#6161BF"/>
<path d="M76.5763 99.9481L69.8196 101.837H62.9127L56.1559 99.9481L50.1499 96.328L45.1949 91.4486L41.7415 84.9953L40.0898 78.0698V70.8296L41.7415 63.7467L45.1949 57.4507L50.1499 52.2566L56.1559 48.6365L62.9127 47.0625H69.8196L76.5763 48.6365L82.5823 52.2566L87.5373 57.4507L90.6904 63.7467L92.6424 70.8296V78.0698L90.9907 84.9953L87.5373 91.4486L82.5823 96.328L76.5763 99.9481Z" fill="#6B6BC4"/>
<path d="M75.3749 97.4275L68.7683 99.3162H62.6121L56.1556 97.4275L50.7502 94.1221L45.7953 89.0854L42.6421 83.2617L41.1406 76.8084V69.8829L42.6421 63.2722L45.7953 57.1337L50.4499 52.5691L56.1556 48.949L62.6121 47.375H68.7683L75.3749 48.949L81.0806 52.5691L85.7352 57.1337L88.7382 63.2722L90.3899 69.8829V76.8084L88.7382 83.2617L85.7352 89.0854L81.0806 94.1221L75.3749 97.4275Z" fill="#7272C9"/>
<path d="M74.1741 94.7572L68.1681 96.3312H62.012L56.1561 94.7572L51.051 91.4519L46.6966 86.8873L43.5435 81.3784L42.042 75.0825V68.944L43.5435 62.6481L46.6966 57.1392L50.7507 52.5746L56.1561 49.2693L62.012 47.6953H68.1681L74.1741 49.2693L79.4294 52.5746L83.7837 57.1392L86.6366 62.6481L88.1381 68.944V75.0825L86.6366 81.3784L83.7837 86.8873L79.4294 91.4519L74.1741 94.7572Z" fill="#7F7FD1"/>
<path d="M72.9734 91.7644L67.2677 93.4957H61.7121L56.1566 91.7644L51.3518 88.7738L47.2977 84.6815L44.595 79.6448L42.9434 73.821V67.9973L44.595 62.0162L47.2977 56.8221L51.3518 52.5723L56.1566 49.5818L61.7121 48.0078H67.2677L72.9734 49.5818L77.9283 52.5723L81.9824 56.8221L84.6851 62.0162L86.0365 67.9973V73.821L84.6851 79.6448L81.9824 84.6815L77.628 88.7738L72.9734 91.7644Z" fill="#8787D6"/>
<path d="M63.8137 90.5006C74.8428 90.5006 83.7837 81.1282 83.7837 69.5667C83.7837 58.0052 74.8428 48.6328 63.8137 48.6328C52.7846 48.6328 43.8438 58.0052 43.8438 69.5667C43.8438 81.1282 52.7846 90.5006 63.8137 90.5006Z" fill="#9191DB"/>
<path d="M70.4201 86.2564L65.7654 87.5156H60.8104L56.1558 86.2564L51.9516 83.8954L48.4981 80.2753L46.0957 75.7107L44.8945 70.8314V65.9521L46.0957 60.758L48.4981 56.5082L51.9516 52.8881L56.1558 50.2123L60.8104 48.9531H65.7654L70.4201 50.2123L74.7744 52.8881L78.2279 56.5082L80.33 60.758L81.6813 65.9521V70.8314L80.33 75.7107L78.2279 80.2753L74.4741 83.8954L70.4201 86.2564Z" fill="#9999E0"/>
<path d="M62.6127 84.679C71.9004 84.679 79.4295 76.7864 79.4295 67.0504C79.4295 57.3144 71.9004 49.4219 62.6127 49.4219C53.325 49.4219 45.7959 57.3144 45.7959 67.0504C45.7959 76.7864 53.325 84.679 62.6127 84.679Z" fill="#A6A6E8"/>
<path d="M67.8675 80.9058L64.2639 82.0076H60.0597L56.1557 80.9058L52.7023 78.7022L49.8494 75.7117L47.5972 72.0915L46.6963 67.9992V63.7494L47.5972 59.6571L49.8494 56.1943L52.7023 53.2038L56.1557 50.8428L60.0597 49.8984H64.2639L67.8675 50.8428L71.3209 53.2038L74.4741 56.1943L76.2759 59.6571L77.1768 63.7494V67.9992L76.2759 72.0915L74.4741 75.7117L71.3209 78.7022L67.8675 80.9058Z" fill="#ADADED"/>
<path d="M66.6667 78.0703L63.2133 79.0147H59.4595L56.1562 78.0703L53.0031 76.1816L50.4505 73.5058L48.4986 70.2004L47.5977 66.5803V62.6454L48.4986 59.0252L50.4505 55.8773L53.0031 53.2015L56.1562 51.1553L59.4595 50.2109H63.2133L66.6667 51.1553L69.8199 53.2015L72.6727 55.8773L74.1742 59.0252L75.0751 62.6454V66.5803L74.1742 70.2004L72.6727 73.5058L69.8199 76.1816L66.6667 78.0703Z" fill="#B7B7F2"/>
<path d="M60.6602 76.1781C67.3772 76.1781 72.8224 70.4701 72.8224 63.4289C72.8224 56.3877 67.3772 50.6797 60.6602 50.6797C53.9432 50.6797 48.498 56.3877 48.498 63.4289C48.498 70.4701 53.9432 76.1781 60.6602 76.1781Z" fill="#C2C2FA"/>
<path d="M60.0603 73.3482C65.8651 73.3482 70.5708 68.4153 70.5708 62.3303C70.5708 56.2454 65.8651 51.3125 60.0603 51.3125C54.2555 51.3125 49.5498 56.2454 49.5498 62.3303C49.5498 68.4153 54.2555 73.3482 60.0603 73.3482Z" fill="#CCCCFF"/>
<path d="M80.0299 108.45L72.222 110.811H64.2641L56.156 108.45L49.2491 104.2L43.2431 98.0619L39.189 90.8216L37.0869 82.3221V73.8226L39.189 65.6379L43.2431 58.0829L49.2491 52.2591L56.156 48.0094L64.2641 45.6484H72.222L80.0299 48.0094L87.2371 52.2591L92.9428 58.0829L96.8467 65.6379L99.0989 73.8226V82.3221L96.8467 90.8216L92.9428 98.0619L87.2371 104.2L80.0299 108.45Z" stroke="#333399" stroke-width="0.307462"/>
</g>
<defs>
<clipPath id="clip0_2109_212815">
<rect width="150" height="150" fill="white"/>
</clipPath>
</defs>
</svg>
