<svg width="150" height="150" viewBox="0 0 150 150" fill="none" xmlns="http://www.w3.org/2000/svg">
<g clip-path="url(#clip0_2109_212859)">
<path d="M150 136.186L144.745 140.541L134.835 143.844L120.721 146.847L103.754 148.949L84.6847 150H64.8649L46.0961 148.949L28.8288 146.847L14.7147 143.844L4.8048 140.541L0 136.186V13.6637L5.1051 9.60961L14.7147 6.00601L28.8288 3.003L45.7958 1.2012L64.8649 0H84.6847L103.754 1.2012L121.021 3.003L134.835 6.00601L144.745 9.60961L150 13.6637V136.186Z" fill="#669999"/>
<path d="M145.646 139.339L140.841 141.441L131.381 144.144L118.018 146.847L102.252 148.949L84.084 150H65.6155L47.5975 148.949L31.5314 146.847L18.4684 144.144L9.00891 141.441L4.2041 139.339V12.6126L9.00891 9.00901L18.4684 5.70571L31.5314 3.003L47.5975 0.900901L65.6155 0H84.084L102.252 0.900901L118.318 3.003L131.381 5.70571L140.841 9.00901L145.646 12.6126V139.339Z" fill="#6B9E9E"/>
<path d="M141.141 141.141L136.937 142.943L128.078 144.745L115.615 147.147L100.45 148.949L83.7836 150H66.0659L49.3992 148.949L34.234 147.147L21.7716 144.745L12.9127 142.943L8.4082 141.141V11.8619L12.9127 8.40841L21.7716 5.1051L33.9337 2.7027L49.0989 0.900901L66.0659 0H83.7836L100.45 0.900901L115.615 2.7027L128.078 5.1051L136.636 8.40841L141.141 11.8619V141.141Z" fill="#70A3A3"/>
<path d="M136.937 142.643L132.582 144.144L124.774 145.646L112.913 147.447L98.9486 148.949L83.1829 150H66.6664L50.9006 148.949L36.9366 147.447L25.2249 145.646L16.9667 144.144L12.6123 142.643V10.8108L16.9667 7.80781L25.2249 4.8048L36.6363 2.4024L50.9006 0.900901L66.6664 0H83.1829L98.9486 0.900901L113.213 2.4024L124.474 4.8048L132.582 7.80781L136.937 10.8108V142.643Z" fill="#75A8A8"/>
<path d="M132.582 144.144L128.679 144.745L121.021 146.246L110.21 147.447L97.147 148.949L82.4323 150H67.4172L52.4022 148.949L39.3392 147.447L28.8287 146.246L20.8707 144.745L16.9668 144.144V10.2102L20.8707 7.20721L28.8287 4.5045L39.3392 2.4024L52.4022 0.900901L67.4172 0H82.4323L97.147 0.900901L110.51 2.4024L121.021 4.5045L128.679 7.20721L132.582 10.2102V144.144Z" fill="#78ABAB"/>
<path d="M128.379 145.045L124.775 145.646L117.718 146.547L107.808 147.748L95.4957 149.249L81.832 150H68.0182L54.3546 149.249L42.0422 147.748L32.1323 146.547L25.2254 145.646L21.4717 145.045V9.30931L25.2254 6.60661L32.1323 4.2042L42.0422 2.1021L54.3546 0.900901L68.0182 0H81.832L95.4957 0.600601L107.808 2.1021L117.718 4.2042L124.775 6.60661L128.379 9.30931V145.045Z" fill="#7DB0B0"/>
<path d="M124.174 145.946L120.721 146.547L114.114 147.147L104.955 148.048L93.6938 149.249L81.3815 150H68.4686L55.856 149.249L44.895 148.048L35.4355 147.147L29.1292 146.547L25.6758 145.946V8.40841L29.1292 6.00601L35.4355 3.6036L44.5947 2.1021L55.856 0.600601L68.3184 0H81.3815L93.6938 0.600601L104.955 2.1021L114.114 3.6036L120.721 6.00601L124.174 8.40841V145.946Z" fill="#82B5B5"/>
<path d="M119.82 146.246L116.817 146.847L110.811 147.447L102.553 148.048L92.1924 149.249L80.6309 150H68.769L57.6579 149.249L47.2975 148.048L39.0393 147.447L33.0333 146.847L30.0303 146.246V7.50751L33.0333 5.40541L39.0393 3.3033L47.2975 1.8018L57.6579 0.600601L68.769 0H80.6309L92.1924 0.600601L102.553 1.8018L110.811 3.3033L116.817 5.40541L119.82 7.50751V146.246Z" fill="#87BABA"/>
<path d="M115.616 147.147L112.613 147.447L107.357 147.748L99.85 148.499L90.3905 149.249L80.0302 150H69.5197L59.1593 149.249L50.0001 148.499L42.4926 147.748L36.9371 147.447L34.2344 147.147V6.60661L36.9371 4.8048L42.4926 3.003L50.0001 1.35135L59.1593 0.600601L69.5197 0H80.0302L90.3905 0.600601L99.85 1.35135L107.357 3.003L112.613 4.8048L115.616 6.60661V147.147Z" fill="#8CBFBF"/>
<path d="M111.111 147.447L108.709 147.748L104.054 148.499L97.1472 148.799L88.8889 149.249L79.7298 150H70.1202L60.961 149.249L52.7027 148.799L45.7958 148.499L40.991 147.748L38.4385 147.447V6.00601L41.2913 4.2042L45.7958 2.7027L52.4024 1.35135L60.961 0.600601L70.1202 0H79.7298L88.8889 0.600601L97.1472 1.35135L104.054 2.7027L108.709 4.2042L111.111 6.00601V147.447Z" fill="#91C4C4"/>
<path d="M106.757 147.748L104.655 148.048L100.451 148.799H94.7449L87.3876 149.55L79.1293 150H70.7209L62.4626 149.55L55.1053 148.799H49.3996L45.1954 148.048L42.793 147.748V5.1051L45.1954 3.6036L49.3996 2.1021L55.1053 1.2012L62.4626 0.600601L70.7209 0H79.1293L87.3876 0.3003L94.7449 1.2012L100.451 2.1021L104.655 3.6036L106.757 5.1051V147.748Z" fill="#96C9C9"/>
<path d="M102.552 148.799L100.75 148.949H97.1467H91.8915L85.5852 149.55L78.5281 150H71.3209L64.2638 149.55L57.9575 148.949H52.7023H49.0987L47.2969 148.799V4.2042L49.0987 3.003L52.7023 1.8018L57.9575 0.900901L64.2638 0.3003L71.3209 0H78.5281L85.5852 0.3003L91.8915 0.900901L97.1467 1.8018L100.75 3.003L102.552 4.2042V148.799Z" fill="#9CCFCF"/>
<path d="M98.3488 148.949H96.8473L93.6941 149.249L89.1896 148.949L84.0845 149.55L77.9284 150H71.9224L65.7662 149.55L60.3608 148.949L56.1566 149.249L53.0035 148.949H51.502V3.3033L53.0035 2.4024L56.1566 1.35135L60.3608 0.900901L65.7662 0.3003L71.9224 0H77.9284L84.0845 0.3003L89.1896 0.900901L93.6941 1.35135L96.8473 2.4024L98.3488 3.3033V148.949Z" fill="#9ED1D1"/>
<path d="M93.9936 148.949L92.6423 149.249L90.0897 148.799L86.7864 149.249L82.1317 149.55L77.3269 150H72.5221L67.7173 149.55L63.0627 149.249L59.4591 148.799L57.0567 149.249L55.8555 148.949V2.4024L57.0567 1.8018L59.4591 1.2012L63.0627 0.600601L67.417 0.3003L72.2218 0H77.3269L82.1317 0.3003L86.7864 0.600601L90.0897 1.2012L92.6423 1.8018L93.9936 2.4024V148.949Z" fill="#A3D6D6"/>
<path d="M89.7903 149.249L88.5891 148.799L86.7873 149.249L84.0846 149.55H80.6311L76.7272 150H72.8233L69.2197 149.55H65.7663L63.0635 149.249L60.9614 148.799L60.0605 149.249V1.8018L60.9614 1.2012L63.0635 0.900901L65.7663 0.3003H69.2197L72.8233 0H76.7272L80.6311 0.3003H84.0846L86.7873 0.900901L88.5891 1.2012L89.7903 1.8018V149.249Z" fill="#A8DBDB"/>
<path d="M85.586 148.949L84.6851 149.249L83.4839 149.55H81.3818L78.8292 150H76.1265H73.4238H71.0214L68.3187 149.55H66.3668L64.8652 149.249L64.2646 148.949V0.900901L65.1655 0.600601L66.3668 0.3003H68.3187L71.0214 0H73.4238H76.1265H78.8292L81.3818 0.3003H83.4839L84.6851 0.600601L85.586 0.900901V148.949Z" fill="#ADE0E0"/>
<path d="M81.0814 150H80.6309H79.73H78.5288H77.3276H75.5258H74.0243H72.5228H71.0213H69.8201H68.7691H68.4688V0H69.2195H69.8201H71.0213H72.5228H74.0243H75.5258H77.3276H78.5288H79.73H80.6309H81.0814V150Z" fill="#B2E5E5"/>
<path d="M150 136.186L144.745 140.541L134.835 143.844L120.721 146.847L103.754 148.949L84.6847 150H64.8649L46.0961 148.949L28.8288 146.847L14.7147 143.844L4.8048 140.541L0 136.186V13.6637L5.10511 9.60961L14.7147 6.00601L28.8288 3.003L45.7958 1.2012L64.8649 0H84.6847L103.754 1.2012L121.021 3.003L134.835 6.00601L144.745 9.60961L150 13.6637V136.186Z" stroke="#336666" stroke-width="0.3003"/>
<path d="M134.835 25.2252L120.721 28.0781L103.754 30.3303L84.6847 31.2312H64.8649L45.7958 30.3303L28.8288 28.0781L14.7147 25.2252L5.1051 21.7718L0 17.5676V13.6637L5.1051 9.60961L14.7147 6.00601L28.8288 3.3033L45.7958 1.2012L64.8649 0H84.6847L103.754 1.2012L120.721 3.3033L134.835 6.00601L144.745 9.60961L150 13.6637V17.5676L144.745 21.7718L134.835 25.2252Z" fill="#99CCCC" stroke="#336666" stroke-width="0.3003"/>
<path d="M84.6846 22.0714L103.153 28.8281L115.315 27.3266L96.5465 20.5699L108.709 19.0684L81.3813 17.8672L72.5225 23.2726L84.6846 22.0714Z" fill="white" stroke="#669999" stroke-width="0.3003"/>
<path d="M65.1648 9.31316L46.396 2.40625L34.5342 3.90775L53.3029 10.5144L41.2909 12.0159L68.4681 13.2171L77.327 7.81166L65.1648 9.31316Z" fill="white" stroke="#669999" stroke-width="0.3003"/>
<path d="M121.771 11.8646L89.1889 15.7685L82.1318 12.9157L114.714 9.01178L107.808 6.60938L134.384 8.41118L128.678 14.267L121.771 11.8646Z" fill="white" stroke="#669999" stroke-width="0.3003"/>
<path d="M28.0784 19.6695L60.661 15.7656L67.4178 18.168L35.1355 22.0719L41.7421 24.4743L15.4658 22.6725L21.1715 16.9668L28.0784 19.6695Z" fill="white" stroke="#669999" stroke-width="0.3003"/>
<path d="M72.8231 65.6119V48.7951H68.4688L74.9252 42.7891L81.0814 48.7951H77.0273V65.6119H72.8231Z" fill="white" stroke="#669999" stroke-width="0.3003"/>
<path d="M77.0273 115.617V131.984H81.0814L74.9252 138.44L68.4688 131.984H72.8231V115.617H77.0273Z" fill="white" stroke="#669999" stroke-width="0.3003"/>
<path d="M49.7 92.6411H33.3337V96.8453L27.0273 90.3888L33.3337 84.3828V88.2867H49.7V92.6411Z" fill="white" stroke="#669999" stroke-width="0.3003"/>
<path d="M99.8496 88.2867H116.516V84.3828L122.522 90.3888L116.516 96.8453V92.6411H99.8496V88.2867Z" fill="white" stroke="#669999" stroke-width="0.3003"/>
<path d="M90.9912 71.3224L102.853 59.7608L99.8501 56.7578H108.709V65.6167L105.556 62.4635L93.9942 74.3254L90.9912 71.3224Z" fill="white" stroke="#669999" stroke-width="0.3003"/>
<path d="M58.8586 109.611L46.9967 121.473L49.9997 124.476H41.291V115.617L43.9937 118.319L55.8556 106.758L58.8586 109.611Z" fill="white" stroke="#669999" stroke-width="0.3003"/>
<path d="M55.8561 74.3254L43.9942 62.4635L40.9912 65.6167V56.7578H49.6999L46.9972 59.7608L58.5588 71.3224L55.8561 74.3254Z" fill="white" stroke="#669999" stroke-width="0.3003"/>
<path d="M93.9942 106.758L105.556 118.319L108.709 115.617V124.476L99.8501 124.175L102.853 121.473L90.9912 109.611L93.9942 106.758Z" fill="white" stroke="#669999" stroke-width="0.3003"/>
<path d="M84.6847 113.815L78.2282 115.317H71.6216L65.1652 113.815L59.7598 110.512L54.955 106.008L51.5015 100.152L50 93.6953V87.0887L51.5015 81.0827L54.955 75.2268L59.4595 70.7223L65.1652 67.419L71.6216 65.6172H78.2282L84.6847 67.419L90.0901 70.7223L95.045 75.2268L98.048 81.0827L99.8498 87.0887V93.6953L98.048 100.152L95.045 106.008L90.0901 110.512L84.6847 113.815Z" fill="white" stroke="#669999" stroke-width="0.3003"/>
</g>
<defs>
<clipPath id="clip0_2109_212859">
<rect width="150" height="150" fill="white"/>
</clipPath>
</defs>
</svg>
