<svg width="150" height="150" viewBox="0 0 150 150" fill="none" xmlns="http://www.w3.org/2000/svg">
<g clip-path="url(#clip0_2109_213206)">
<path d="M135.736 143.988H122.523L54.5049 28.7439L59.7601 11.7578L60.3607 33.1864L142.493 16.9843L143.093 28.7439H149.099L150 102.176L135.736 143.988Z" fill="#4C4CB2"/>
<path d="M135.736 143.988L119.52 145.033L107.057 148.43L91.4414 149.998H74.1742L58.4084 148.43L46.0961 145.033L29.7297 143.988H0V115.242L33.1832 11.7578H59.7598L56.3063 28.7439H63.6637L66.2162 16.9843H142.492L140.691 28.7439H149.099L135.736 115.242V143.988Z" fill="#9999FF"/>
<path d="M58.7088 66.375H81.8319L72.973 112.368H46.9971L58.7088 66.375Z" fill="#E5E5FF"/>
<path d="M74.4742 67.4219H75.2249H80.9306L80.4802 69.7738L80.0297 72.1257L79.4291 74.4776L78.8285 77.0909L77.1769 76.8295H75.5252H73.8736L72.3721 77.0909L72.8225 74.2163L73.273 71.8644L73.8736 69.5125L74.4742 67.4219Z" fill="#6666CC"/>
<path d="M66.5169 67.4219H67.4178H73.2737L72.8232 69.5125L72.2226 71.8644L71.7722 74.2163L71.0214 76.5682H69.3698L67.7181 76.8295H65.9163L65.1655 77.0909H64.2646L65.0154 74.4776L65.4658 72.1257L66.0665 69.7738L66.5169 67.4219Z" fill="#6666CC"/>
<path d="M59.3091 67.4219H60.21H66.216L65.6154 69.7738L65.0148 71.8644L64.4142 74.2163L63.6635 76.5682H57.207L57.8076 74.2163L58.2581 71.8644L58.8587 69.5125L59.3091 67.4219Z" fill="#6666CC"/>
<path d="M56.6065 77.6094H57.5074H63.3633L62.9128 79.9613L62.4624 82.5745L61.8618 85.1878L61.2612 87.801H54.2041L54.8047 85.1878L55.5555 82.5745L56.1561 80.2226L56.6065 77.6094Z" fill="#6666CC"/>
<path d="M63.9644 77.6094H64.8653H70.7212L70.2707 80.2226L69.8203 82.5745L69.2197 85.1878L68.6191 87.801H61.8623L62.3128 85.1878L62.9134 82.5745L63.514 79.9613L63.9644 77.6094Z" fill="#6666CC"/>
<path d="M71.9224 77.6094H72.8233H78.8293L78.0786 79.9613L77.6281 82.5745L77.0275 85.1878L76.5771 87.801H69.8203L70.2708 85.1878L70.8714 82.5745L71.3218 79.9613L71.9224 77.6094Z" fill="#6666CC"/>
<path d="M69.5196 88.8516H70.4205H76.2763L75.8259 91.4648L75.2253 93.8167L74.6247 96.1686L74.1742 99.0432H67.1172L67.7178 96.1686L68.3184 93.8167L68.919 91.4648L69.5196 88.8516Z" fill="#6666CC"/>
<path d="M61.5613 88.8516H62.3121H68.3181L67.8676 91.4648L67.267 94.078L66.6664 96.43L66.216 99.0432H59.0088L59.6094 96.1686L60.21 93.8167L60.8106 91.4648L61.5613 88.8516Z" fill="#6666CC"/>
<path d="M53.754 88.8516H54.6549H60.9612L60.2104 91.4648L59.76 93.8167L59.0092 96.1686L58.4086 99.0432H51.3516L52.1023 96.1686L52.7029 93.8167L53.3035 91.4648L53.754 88.8516Z" fill="#6666CC"/>
<path d="M51.0513 100.086H51.9522H58.1084L57.5078 102.699L56.757 105.312L56.1564 108.187L55.706 110.8H52.8531L51.0513 111.062H49.2495L48.3486 111.323L48.9492 108.448L49.7 105.574L50.3006 102.699L51.0513 100.086Z" fill="#6666CC"/>
<path d="M58.7086 100.086H59.6095H65.7656L65.165 102.699L64.5644 105.312L64.114 108.187L63.3632 110.8H56.0059L56.6065 108.187L57.3572 105.312L58.108 102.699L58.7086 100.086Z" fill="#6666CC"/>
<path d="M66.8172 100.086H67.7181H73.8743L73.2737 102.699L72.8232 105.312L72.2226 108.187L71.7722 110.8H64.2646L65.0154 108.187L65.616 105.312L66.2166 102.699L66.8172 100.086Z" fill="#6666CC"/>
<path d="M70.1201 21.1641H134.835L126.577 63.2372H59.7598L70.1201 21.1641Z" fill="#CCCCFF"/>
<path d="M72.9728 27.1797H120.42L114.264 57.7546H65.165L72.9728 27.1797Z" fill="#6666CC"/>
<path d="M72.9728 27.1797H120.42L119.519 31.0995H74.7746L67.7176 57.7546H65.165L72.9728 27.1797Z" fill="#333399"/>
<path d="M59.7598 63.2372L70.1201 21.1641H134.835" stroke="white" stroke-width="0.396171"/>
<path d="M134.835 21.1641L126.577 63.2372H59.7598" stroke="black" stroke-width="0.396171"/>
<path d="M119.069 115.242L107.057 119.423L91.4414 120.991H74.1742L58.4084 119.423L46.0961 116.287L29.7297 115.242H0V143.988H29.7297L46.0961 145.033L58.4084 148.43L74.1742 149.998H91.4414L107.057 148.43L119.52 145.033L135.736 143.988V115.242H119.069Z" fill="#7F7FE5"/>
<path d="M103.754 68.9922H111.712L114.264 70.0375L116.367 71.6054L118.168 74.48L119.52 77.0932L120.12 80.2291V84.149L119.52 87.2849L118.168 89.8981L116.367 92.5114L114.264 94.3406L111.712 95.3859H106.156V91.4661H111.412L113.364 90.9434L114.865 89.8981L116.367 87.8075L117.267 85.7169L117.568 83.6263V80.7518L117.267 78.1385L116.367 76.0479L114.865 74.48L113.364 73.4347L111.412 72.3894H106.156V115.247H103.754V68.9922Z" fill="white"/>
<path d="M94.1445 68.9922H96.6971V115.247H94.1445V68.9922Z" fill="white"/>
<path d="M119.069 115.242L107.057 119.423L74.1738 149.998H91.4411L107.057 148.43L119.519 145.033L135.735 143.988V115.242H119.069Z" fill="#7878DE"/>
<path d="M119.069 115.242L91.4414 149.998L107.057 148.43L119.519 145.033L135.736 143.988V115.242H119.069Z" fill="#7070D6"/>
<path d="M121.621 115.242L107.057 148.43L119.519 145.033L124.925 115.242H121.621Z" fill="#6969CF"/>
<path d="M44.5947 38.9408L46.3965 34.7596L53.7539 23L48.9491 38.9408H44.5947Z" fill="#333399"/>
<path d="M31.3813 106.62H4.80469V85.1916L12.162 56.1847L22.3723 24.5645L33.7837 0H53.7536V22.9965L48.0479 38.9373L46.3963 34.7561L37.2371 67.4216L38.138 77.6132L31.3813 106.62Z" fill="#6666CC"/>
<path d="M28.8287 85.1916H4.80469L12.162 56.1847L22.3723 24.5645L33.7837 0H53.7536L43.093 24.5645L33.1831 56.1847L28.8287 85.1916Z" fill="#9999FF"/>
<path d="M31.3813 106.624H4.80469V85.1953H28.8287L31.3813 106.624Z" fill="#7F7FE5"/>
<path d="M28.8287 85.1945H4.80469L12.162 56.1875H33.1831L28.8287 85.1945Z" fill="#9191F7"/>
<path d="M12.1621 56.1827L22.3723 24.5625H43.093L33.1831 56.1827H12.1621Z" fill="#9494FA"/>
<path d="M4.80469 106.616H31.3813L38.138 77.6094" stroke="#333399" stroke-width="0.396171"/>
<path d="M135.736 143.99L119.52 145.035L107.057 148.432L91.4414 150H74.1742L58.4084 148.432L46.0961 145.035L29.7297 143.99H0V115.244L4.8048 99.5645V85.1916L12.1622 56.1847L22.3724 24.5645L33.7838 0H53.7538V11.7596H59.7598L60.3604 28.7456H63.6637L66.2162 16.9861H142.492L143.093 28.7456H149.099L150 102.178L135.736 143.99Z" stroke="black" stroke-width="0.396171"/>
</g>
<defs>
<clipPath id="clip0_2109_213206">
<rect width="150" height="150" fill="white"/>
</clipPath>
</defs>
</svg>
