<svg width="150" height="150" viewBox="0 0 150 150" fill="none" xmlns="http://www.w3.org/2000/svg">
<g clip-path="url(#clip0_2109_213329)">
<path d="M0 0H150V150H0V0Z" fill="#19197F"/>
<path d="M2.25195 2.72656H148.949V144.545H2.25195V2.72656Z" fill="#9999FF"/>
<path d="M2.25195 106.367L148.949 46.3672V144.549H2.25195V106.367Z" fill="#9494FA"/>
<path d="M2.25195 111.818L148.949 50V144.545H2.25195V111.818Z" fill="#8F8FF5"/>
<path d="M2.25195 122.73L148.949 59.0938V144.548H2.25195V122.73Z" fill="#8A8AF0"/>
<path d="M1.35156 2.72656H14.5648V41.8175H1.35156V2.72656Z" fill="#9999FF"/>
<path d="M1.35156 41.8175V2.72656H148.949" stroke="#CCCCFF" stroke-width="0.738918"/>
<path d="M0 0H150V150H0V0Z" stroke="black" stroke-width="0.738918"/>
<path d="M9.30957 41.8203H10.0603V56.3658H9.30957V41.8203Z" fill="#00FF00"/>
<path d="M7.65723 41.8203H8.55813V56.3658H7.65723V41.8203Z" fill="#00FF00"/>
<path d="M6.15625 8.17969H13.9641V35.4524H6.15625V8.17969Z" fill="#9999FF"/>
<path d="M1.35156 59.0938H15.4657V70.0028H1.35156V59.0938Z" fill="#9999FF"/>
<path d="M1.35156 79.0938H15.4657V88.1847H1.35156V79.0938Z" fill="#9999FF"/>
<path d="M1.35156 97.2734H15.4657V106.364H1.35156V97.2734Z" fill="#9999FF"/>
<path d="M1.35156 117.273H15.4657V126.364H1.35156V117.273Z" fill="#9999FF"/>
<path d="M1.35156 135.453H15.4657V144.544H1.35156V135.453Z" fill="#9999FF"/>
<path d="M10.0605 31.8175L11.562 22.7266L13.0635 31.8175H10.0605Z" fill="#CCCCFF"/>
<path d="M6.90723 31.8175L8.55888 22.7266L10.0604 31.8175H6.90723Z" fill="#CCCCFF"/>
<path d="M6.15625 35.4524H13.9641V8.17969" stroke="#4C4CB2" stroke-width="0.738918"/>
<path d="M8.55824 41.8203H2.85254V56.3658" stroke="#4C4CB2" stroke-width="0.738918"/>
<path d="M14.5648 41.8203H9.30957V56.3658" stroke="#4C4CB2" stroke-width="0.738918"/>
<path d="M1.35156 70.0028H15.4657V59.0938" stroke="#4C4CB2" stroke-width="0.738918"/>
<path d="M1.35156 88.1847H15.4657V79.0938" stroke="#4C4CB2" stroke-width="0.738918"/>
<path d="M1.35156 106.364H15.4657V97.2734" stroke="#4C4CB2" stroke-width="0.738918"/>
<path d="M1.35156 126.364H15.4657V117.273" stroke="#4C4CB2" stroke-width="0.738918"/>
<path d="M1.35156 144.544H15.4657V135.453" stroke="#4C4CB2" stroke-width="0.738918"/>
<path d="M6.15625 35.4524V8.17969H13.9641" stroke="white" stroke-width="0.738918"/>
<path d="M14.5648 41.8203V56.3658H9.30957" stroke="white" stroke-width="0.738918"/>
<path d="M8.55824 41.8203V56.3658H2.85254" stroke="white" stroke-width="0.738918"/>
<path d="M1.35156 70.0028V59.0938H15.4657" stroke="white" stroke-width="0.738918"/>
<path d="M1.35156 88.1847V79.0938H15.4657" stroke="white" stroke-width="0.738918"/>
<path d="M1.35156 106.364V97.2734H15.4657" stroke="white" stroke-width="0.738918"/>
<path d="M1.35156 126.364V117.273H15.4657" stroke="white" stroke-width="0.738918"/>
<path d="M1.35156 144.544V135.453H15.4657" stroke="white" stroke-width="0.738918"/>
<path d="M6.90723 64.5469H13.0634V82.7287H6.90723V64.5469Z" fill="#9999FF"/>
<path d="M6.90723 84.5469V64.5469H13.0634" stroke="white" stroke-width="0.738918"/>
<path d="M6.90723 84.5469H13.0634V64.5469" stroke="#4C4CB2" stroke-width="0.738918"/>
<path d="M15.4658 35.4531H16.3667V144.544H15.4658V35.4531Z" fill="#333399"/>
<path d="M15.4658 22.7266H146.096V35.4538H15.4658V22.7266Z" fill="#333399"/>
<path d="M146.096 73.6357V22.7266" stroke="white" stroke-width="0.738918"/>
<path d="M17.8682 56.3672H59.0093V82.7308H17.8682V56.3672Z" fill="black"/>
<path d="M17.8682 99.0938H59.0093V126.366H17.8682V99.0938Z" fill="black"/>
<path d="M60.5107 99.0938H101.952V126.366H60.5107V99.0938Z" fill="black"/>
<path d="M60.5107 56.3672H101.952V82.7308H60.5107V56.3672Z" fill="black"/>
<path d="M103.153 56.3672H144.595V82.7308H103.153V56.3672Z" fill="black"/>
<path d="M103.153 99.0938H144.595V126.366H103.153V99.0938Z" fill="black"/>
<path d="M103.153 57.2734H144.144V80.9098H103.153V57.2734Z" fill="#CCCCCC"/>
<path d="M103.153 100.906H144.144V124.543H103.153V100.906Z" fill="#CCCCCC"/>
<path d="M60.8105 100.906H101.651V124.543H60.8105V100.906Z" fill="#CCCCCC"/>
<path d="M60.5107 57.2734H101.652V80.9098H60.5107V57.2734Z" fill="#CCCCCC"/>
<path d="M17.8682 57.2734H59.0093V80.9098H17.8682V57.2734Z" fill="#CCCCCC"/>
<path d="M17.8682 100.906H59.0093V124.543H17.8682V100.906Z" fill="#CCCCCC"/>
<path d="M140.09 102.727H143.693V113.636H143.393V117.272H142.793V120.908H142.492V122.727H141.291V120.908H140.991V117.272H140.39V113.636H140.09V102.727Z" fill="#333333"/>
<path d="M134.985 102.727H138.589V113.636H137.988V117.272H137.688V120.908H137.388V122.727H136.187V120.908H135.586V117.272H135.286V113.636H134.985V102.727Z" fill="#333333"/>
<path d="M129.88 102.727H133.183V113.636H132.883V117.272H132.583V120.908H132.282V122.727H130.781V120.908H130.48V117.272H130.18V113.636H129.88V102.727Z" fill="#333333"/>
<path d="M124.475 102.727H128.078V113.636H127.778V117.272H127.478V120.908H127.177V122.727H125.676V120.908H125.376V117.272H125.075V113.636H124.475V102.727Z" fill="#333333"/>
<path d="M119.369 102.727H122.973V113.636H122.672V117.272H122.372V120.908H121.772V122.727H120.57V120.908H120.27V117.272H119.669V113.636H119.369V102.727Z" fill="#333333"/>
<path d="M109.159 102.727H112.763V113.636H112.162V117.272H111.862V120.908H111.562V122.727H110.36V120.908H109.76V117.272H109.459V113.636H109.159V102.727Z" fill="#333333"/>
<path d="M114.265 102.727H117.868V113.636H117.568V117.272H116.967V120.908H116.667V122.727H115.466V120.908H115.166V117.272H114.565V113.636H114.265V102.727Z" fill="#333333"/>
<path d="M104.054 102.727H107.357V113.636H107.057V117.272H106.756V120.908H106.456V122.727H104.955V120.908H104.654V117.272H104.354V113.636H104.054V102.727Z" fill="#333333"/>
<path d="M140.09 59.0938H143.693V70.0028H143.393V71.821H142.793V75.4574H142.492V79.0938H141.291V75.4574H140.991V71.821H140.39V70.0028H140.09V59.0938Z" fill="#333333"/>
<path d="M134.985 59.0938H138.589V70.0028H138.289V71.821H137.688V75.4574H137.388V79.0938H136.187V75.4574H135.586V71.821H135.286V70.0028H134.985V59.0938Z" fill="#333333"/>
<path d="M129.88 59.0938H133.183V70.0028H132.883V71.821H132.583V75.4574H132.282V79.0938H130.781V75.4574H130.48V71.821H130.18V70.0028H129.88V59.0938Z" fill="#333333"/>
<path d="M124.475 59.0938H128.078V70.0028H127.778V71.821H127.478V75.4574H127.177V79.0938H125.676V75.4574H125.376V71.821H125.075V70.0028H124.475V59.0938Z" fill="#333333"/>
<path d="M119.369 59.0938H122.973V70.0028H122.672V71.821H122.372V75.4574H121.772V79.0938H120.57V75.4574H120.27V71.821H119.669V70.0028H119.369V59.0938Z" fill="#333333"/>
<path d="M109.159 59.0938H112.763V70.0028H112.162V71.821H111.862V75.4574H111.562V79.0938H110.36V75.4574H109.76V71.821H109.459V70.0028H109.159V59.0938Z" fill="#333333"/>
<path d="M114.265 59.0938H117.868V70.0028H117.568V71.821H116.967V75.4574H116.667V79.0938H115.466V75.4574H114.865V71.821H114.565V70.0028H114.265V59.0938Z" fill="#333333"/>
<path d="M104.054 59.0938H107.357V70.0028H107.057V71.821H106.756V75.4574H106.456V79.0938H104.955V75.4574H104.654V71.821H104.354V70.0028H104.054V59.0938Z" fill="#333333"/>
<path d="M97.4473 59.0938H101.051V70.0028H100.751V71.821H100.15V75.4574H99.8497V79.0938H98.6485V75.4574H98.3482V71.821H97.7476V70.0028H97.4473V59.0938Z" fill="#333333"/>
<path d="M92.3428 59.0938H95.9464V70.0028H95.3458V71.821H95.0455V75.4574H94.7452V79.0938H93.544V75.4574H92.9434V71.821H92.6431V70.0028H92.3428V59.0938Z" fill="#333333"/>
<path d="M87.2373 59.0938H90.8409V70.0028H90.2403V71.821H89.94V75.4574H89.6397V79.0938H88.1382V75.4574H87.8379V71.821H87.5376V70.0028H87.2373V59.0938Z" fill="#333333"/>
<path d="M82.1318 59.0938H85.4351V70.0028H85.1348V71.821H84.8345V75.4574H84.5342V79.0938H83.0327V75.4574H82.7324V71.821H82.4321V70.0028H82.1318V59.0938Z" fill="#333333"/>
<path d="M76.7266 59.0938H80.3302V70.0028H80.0299V71.821H79.7296V75.4574H79.129V79.0938H77.9278V75.4574H77.6275V71.821H77.3272V70.0028H76.7266V59.0938Z" fill="#333333"/>
<path d="M66.5166 59.0938H70.1202V70.0028H69.5196V71.821H69.2193V75.4574H68.919V79.0938H67.7178V75.4574H67.4175V71.821H66.8169V70.0028H66.5166V59.0938Z" fill="#333333"/>
<path d="M71.6221 59.0938H75.2257V70.0028H74.9254V71.821H74.3248V75.4574H74.0245V79.0938H72.8233V75.4574H72.2227V71.821H71.9224V70.0028H71.6221V59.0938Z" fill="#333333"/>
<path d="M61.4111 59.0938H65.0147V70.0028H64.4141V71.821H64.1138V75.4574H63.8135V79.0938H62.312V75.4574H62.0117V71.821H61.7114V70.0028H61.4111V59.0938Z" fill="#333333"/>
<path d="M97.4473 102.727H101.051V113.636H100.751V117.272H100.15V120.908H99.8497V122.727H98.6485V120.908H98.3482V117.272H97.7476V113.636H97.4473V102.727Z" fill="#333333"/>
<path d="M92.3428 102.727H95.9464V113.636H95.3458V117.272H95.0455V120.908H94.7452V122.727H93.544V120.908H92.9434V117.272H92.6431V113.636H92.3428V102.727Z" fill="#333333"/>
<path d="M87.2373 102.727H90.8409V113.636H90.2403V117.272H89.94V120.908H89.6397V122.727H88.1382V120.908H87.8379V117.272H87.5376V113.636H87.2373V102.727Z" fill="#333333"/>
<path d="M81.832 102.727H85.4356V113.636H85.1353V117.272H84.835V120.908H84.5347V122.727H83.0332V120.908H82.7329V117.272H82.4326V113.636H81.832V102.727Z" fill="#333333"/>
<path d="M76.7266 102.727H80.3302V113.636H80.0299V117.272H79.7296V120.908H79.129V122.727H77.9278V120.908H77.6275V117.272H77.3272V113.636H76.7266V102.727Z" fill="#333333"/>
<path d="M66.5166 102.727H70.1202V113.636H69.5196V117.272H69.2193V120.908H68.919V122.727H67.7178V120.908H67.1172V117.272H66.8169V113.636H66.5166V102.727Z" fill="#333333"/>
<path d="M71.6221 102.727H75.2257V113.636H74.9254V117.272H74.3248V120.908H74.0245V122.727H72.8233V120.908H72.523V117.272H71.9224V113.636H71.6221V102.727Z" fill="#333333"/>
<path d="M61.4111 102.727H64.7144V113.636H64.4141V117.272H64.1138V120.908H63.8135V122.727H62.312V120.908H62.0117V117.272H61.7114V113.636H61.4111V102.727Z" fill="#333333"/>
<path d="M54.8047 102.727H58.4083V113.636H57.8077V117.272H57.5074V120.908H57.2071V122.727H56.0059V120.908H55.4053V117.272H55.105V113.636H54.8047V102.727Z" fill="#333333"/>
<path d="M49.6992 102.727H53.3028V113.636H52.7022V117.272H52.4019V120.908H52.1016V122.727H50.6001V120.908H50.2998V117.272H49.9995V113.636H49.6992V102.727Z" fill="#333333"/>
<path d="M44.2939 102.727H47.8975V113.636H47.5972V117.272H47.2969V120.908H46.9966V122.727H45.4951V120.908H45.1948V117.272H44.8945V113.636H44.2939V102.727Z" fill="#333333"/>
<path d="M39.1895 102.727H42.7931V113.636H42.4928V117.272H42.1925V120.908H41.5919V122.727H40.3907V120.908H40.0904V117.272H39.7901V113.636H39.1895V102.727Z" fill="#333333"/>
<path d="M34.084 102.727H37.6876V113.636H37.3873V117.272H36.7867V120.908H36.4864V122.727H35.2852V120.908H34.9849V117.272H34.3843V113.636H34.084V102.727Z" fill="#333333"/>
<path d="M23.874 102.727H27.1773V113.636H26.877V117.272H26.5767V120.908H26.2764V122.727H24.7749V120.908H24.4746V117.272H24.1743V113.636H23.874V102.727Z" fill="#333333"/>
<path d="M28.9785 102.727H32.5821V113.636H31.9815V117.272H31.6812V120.908H31.3809V122.727H30.1797V120.908H29.5791V117.272H29.2788V113.636H28.9785V102.727Z" fill="#333333"/>
<path d="M18.4688 102.727H22.0724V113.636H21.7721V117.272H21.4718V120.908H21.1715V122.727H19.67V120.908H19.3697V117.272H19.0694V113.636H18.4688V102.727Z" fill="#333333"/>
<path d="M54.8047 59.0938H58.4083V70.0028H57.8077V71.821H57.5074V75.4574H57.2071V79.0938H56.0059V75.4574H55.4053V71.821H55.105V70.0028H54.8047V59.0938Z" fill="#333333"/>
<path d="M49.6992 59.0938H53.3028V70.0028H52.7022V71.821H52.4019V75.4574H52.1016V79.0938H50.9004V75.4574H50.2998V71.821H49.9995V70.0028H49.6992V59.0938Z" fill="#333333"/>
<path d="M44.2939 59.0938H47.8975V70.0028H47.5972V71.821H47.2969V75.4574H46.9966V79.0938H45.4951V75.4574H45.1948V71.821H44.8945V70.0028H44.2939V59.0938Z" fill="#333333"/>
<path d="M39.1895 59.0938H42.7931V70.0028H42.4928V71.821H42.1925V75.4574H41.5919V79.0938H40.3907V75.4574H40.0904V71.821H39.7901V70.0028H39.1895V59.0938Z" fill="#333333"/>
<path d="M34.084 59.0938H37.6876V70.0028H37.3873V71.821H36.7867V75.4574H36.4864V79.0938H35.2852V75.4574H34.9849V71.821H34.3843V70.0028H34.084V59.0938Z" fill="#333333"/>
<path d="M23.874 59.0938H27.1773V70.0028H26.877V71.821H26.5767V75.4574H26.2764V79.0938H24.7749V75.4574H24.4746V71.821H24.1743V70.0028H23.874V59.0938Z" fill="#333333"/>
<path d="M28.9785 59.0938H32.5821V70.0028H32.2818V71.821H31.6812V75.4574H31.3809V79.0938H30.1797V75.4574H29.5791V71.821H29.2788V70.0028H28.9785V59.0938Z" fill="#333333"/>
<path d="M18.4688 59.0938H22.0724V70.0028H21.7721V71.821H21.4718V75.4574H21.1715V79.0938H19.67V75.4574H19.3697V71.821H19.0694V70.0028H18.4688V59.0938Z" fill="#333333"/>
</g>
<defs>
<clipPath id="clip0_2109_213329">
<rect width="150" height="150" fill="white"/>
</clipPath>
</defs>
</svg>
