<svg width="150" height="150" viewBox="0 0 150 150" fill="none" xmlns="http://www.w3.org/2000/svg">
<g clip-path="url(#clip0_2109_213027)">
<path d="M1.10449 145.945H85.7671L106.381 137.086V140.99L85.7671 149.999H1.10449V145.945Z" fill="#33260D" stroke="black" stroke-width="0.332476"/>
<path d="M106.381 6.15616L103.252 4.35435L97.5462 2.7027L89.632 1.35135L79.6934 0.45045L68.6504 0H57.0554L46.0124 0.45045L36.0738 1.35135L27.9756 2.7027L3.49707 11.7117L87.0554 13.8138L106.381 6.15616Z" fill="#FFF2D9"/>
<path d="M106.381 6.15625L87.0557 13.8139V145.946L106.381 138.138V6.15625Z" fill="#E0D3BA"/>
<path d="M106.381 6.15616L103.252 4.35435L97.5462 2.7027L89.632 1.35135L79.6934 0.45045L68.6504 0H57.0554L46.0124 0.45045L36.0738 1.35135L27.9756 2.7027L3.49707 11.7117L87.0554 145.946L106.381 138.138V6.15616Z" stroke="#7F7259" stroke-width="0.332476"/>
<path d="M87.0552 13.9608L83.9264 12.159L78.2209 10.6575L70.1227 9.30619L60.3681 8.25514L49.1411 7.80469H37.7301L26.5031 8.25514L16.7485 9.30619L8.65031 10.6575L2.94479 12.159L0 13.9608V145.943H87.0552V13.9608Z" fill="#E5D8BF"/>
<path d="M150 140.24L147.976 142.041L144.111 143.543L138.773 144.744L132.148 145.645L124.786 146.095H117.056L109.694 145.645L103.068 144.744L97.7304 143.543L93.8654 142.041L91.8408 140.24V95.6449L93.8654 93.8431L97.7304 92.3416L103.068 91.1404L109.694 90.2395L117.056 89.7891H124.786L132.148 90.2395L138.773 91.1404L143.927 92.3416L147.976 93.8431L150 95.6449V140.24Z" fill="#333399"/>
<path d="M80.4297 13.9626L76.0125 11.5602L71.4113 10.2088L66.2579 9.15775L60.9205 8.55715L55.399 8.1067L49.6935 7.8064H47.3008L46.0125 7.65625H44.7241L38.6505 7.8064L32.945 8.1067L27.2395 8.407L22.0861 9.0076L16.5646 9.9085L11.5953 11.2599L7.36217 13.5121L6.62598 13.9626V18.0166V38.7373V46.8454V116.966V125.224V141.74V145.945H8.83457H20.4297L27.4235 145.794H64.2333L71.2272 145.945H78.2211H80.4297V141.74V13.9626Z" fill="#EBDEC5"/>
<path d="M73.8041 13.9626L69.755 11.2599L64.9697 9.9085L59.6323 8.85745L54.2949 8.1067L48.5894 7.8064H46.5648L45.4605 7.65625H44.5403L38.6507 7.8064L32.9452 8.1067L27.6078 8.85745L22.0863 9.9085L17.4851 11.2599L15.4605 12.1608L13.9881 13.5121L13.252 13.9626V18.0166V38.7373L13.436 46.8454V116.966L13.252 125.224V141.74V145.945H15.2765H24.663L30.3685 145.794H60.5526L66.2581 145.945H73.8041V121.17V116.966V112.912V42.7914V34.5331V13.9626Z" fill="#EDE0C7"/>
<path d="M67.1776 13.9626L63.1285 10.8094L58.5273 9.3079L53.1898 8.407L48.2205 7.95655L45.8279 7.8064L45.0917 7.65625H44.3555L38.834 7.95655L33.6806 8.407L28.5273 9.3079L23.926 10.8094L21.5334 12.1608L20.4291 13.5121L19.877 13.9626V18.0166V38.7373L20.061 46.8454V116.966L19.877 125.224V141.74V145.945H23.0058H28.8954L34.7849 145.794H55.3984L61.288 145.945H67.1776V121.17V116.966V112.912V42.7914V34.5331V13.9626Z" fill="#F2E5CC"/>
<path d="M60.3685 13.9626L57.0556 10.5091L52.4544 8.85745L47.485 7.95655L45.2765 7.8064L44.7243 7.65625H44.1722L38.6507 8.1067L33.6814 9.0076L28.8961 11.2599L27.7918 12.1608L27.0556 13.5121L26.6875 13.9626V18.0166V38.7373V46.8454V116.966V125.224V141.74V145.945H28.712L35.1538 145.794H51.9022L58.3439 145.945H60.3685V121.17L60.5525 116.966V112.912V42.7914L60.3685 34.5331V13.9626Z" fill="#F7EAD1"/>
<path d="M53.7419 13.9626L51.3493 10.2088L46.9321 8.1067L44.5395 7.8064L44.1714 7.65625H43.9873L38.4659 8.7073L34.4168 11.7103L33.4965 13.5121L33.3125 13.9626V18.0166V141.74V145.945H34.6008L41.0426 145.794H48.7726L53.7419 145.945V121.17L53.926 116.966V112.912V42.7914L53.7419 34.5331V13.9626Z" fill="#FAEDD4"/>
<path d="M82.0863 13.9608L79.5096 12.159L74.3562 10.5074L67.1783 9.15604L58.528 8.25514L48.5894 7.80469H38.4667L28.7121 8.25514L19.8777 9.15604L12.6998 10.5074L7.54641 12.159L4.96973 13.9608V145.943H82.0863V13.9608Z" fill="#E8DBC2"/>
<path d="M77.1164 13.9608L74.7238 12.159L70.3066 10.5074L64.233 9.15604L56.5029 8.25514L48.0366 7.80469H39.0182L30.552 8.25514L23.006 9.15604L16.5642 10.5074L12.1471 12.159L9.93848 13.9608V145.943H77.1164V13.9608Z" fill="#EBDEC5"/>
<path d="M71.963 13.9608L70.1225 12.159L66.4415 10.5074L61.1041 9.15604L54.4783 8.25514L47.3004 7.80469H39.7544L32.5765 8.25514L25.9507 9.15604L20.6133 10.5074L16.9323 12.159L15.0918 13.9608V145.943H71.963V13.9608Z" fill="#F0E3CA"/>
<path d="M67.1776 13.9608L65.5211 12.159L62.3923 10.5074L57.9751 9.15604L52.6377 8.25514L46.5641 7.80469H40.3064L34.4168 8.25514L29.0794 9.15604L24.6622 10.5074L21.5334 12.159L19.877 13.9608V145.943H67.1776V13.9608Z" fill="#F2E5CC"/>
<path d="M62.0241 13.9608L60.7358 12.159L58.3432 10.5074L55.0303 9.15604L50.7971 8.25514L46.0119 7.80469H41.0425L36.4413 8.25514L32.2082 9.15604L28.7113 10.5074L26.3186 12.159L25.0303 13.9608V145.943H62.0241V13.9608Z" fill="#F5E8CF"/>
<path d="M57.0552 13.9608L56.135 12.159L54.2945 10.5074L51.9018 9.15604L48.773 8.25514L45.2761 7.80469H41.7791L38.2822 8.25514L35.1534 9.15604L32.5767 10.5074L30.9202 12.159L30 13.9608V145.943H57.0552V13.9608Z" fill="#F7EAD1"/>
<path d="M52.0863 13.9608L51.5341 12.159L50.4298 10.5074L48.7734 9.15604L46.9329 8.25514L44.7243 7.80469H42.3317L40.3071 8.25514L38.2826 9.15604L36.6262 10.5074L35.5219 12.159L34.9697 13.9608V145.943H52.0863V13.9608Z" fill="#FCEFD6"/>
<path d="M47.1164 13.9608L46.7483 12.159L46.3802 10.6575L45.644 9.30619L44.9078 8.25514L43.9876 7.80469H43.0673L42.1471 8.25514L41.2268 9.30619L40.6747 10.6575L40.1225 12.159L39.9385 13.9608V145.943H47.1164V13.9608Z" fill="#FFF2D9"/>
<path d="M2.94479 12.1641L0 13.9659V145.948H87.0552" stroke="#7F7259" stroke-width="0.332476"/>
<path d="M9.57031 39.4922H77.3004V47.3H9.57031V39.4922Z" fill="#D9CCB3"/>
<path d="M77.3004 47.2969H9.57031" stroke="#FFF2D9" stroke-width="0.332476"/>
<path d="M77.3004 39.4922H9.57031" stroke="#7F7259" stroke-width="0.332476"/>
<path d="M28.8955 42.3438H57.9753V44.2957H28.8955V42.3438Z" fill="#665940"/>
<path d="M13.252 23.5703H73.6201V26.5733H13.252V23.5703Z" fill="#665940"/>
<path d="M13.252 134.086H73.6201V138.14H13.252V134.086Z" fill="#665940"/>
<path d="M13.252 126.273H73.6201V130.177H13.252V126.273Z" fill="#665940"/>
<path d="M13.252 118.32H73.6201V122.374H13.252V118.32Z" fill="#665940"/>
<path d="M43.4357 80.6336C47.4 80.6336 50.6136 78.0118 50.6136 74.7777C50.6136 71.5436 47.4 68.9219 43.4357 68.9219C39.4715 68.9219 36.2578 71.5436 36.2578 74.7777C36.2578 78.0118 39.4715 80.6336 43.4357 80.6336Z" fill="#998C73" stroke="#998C73" stroke-width="0.332476"/>
<path d="M43.4357 78.8312C46.0785 78.8312 48.2209 77.0834 48.2209 74.9273C48.2209 72.7713 46.0785 71.0234 43.4357 71.0234C40.7928 71.0234 38.6504 72.7713 38.6504 74.9273C38.6504 77.0834 40.7928 78.8312 43.4357 78.8312Z" fill="#9999FF" stroke="black" stroke-width="0.332476"/>
<path d="M42.1475 75.9742C43.4689 75.9742 44.5402 75.1003 44.5402 74.0223C44.5402 72.9442 43.4689 72.0703 42.1475 72.0703C40.8261 72.0703 39.7549 72.9442 39.7549 74.0223C39.7549 75.1003 40.8261 75.9742 42.1475 75.9742Z" fill="#CCCCFF"/>
<path d="M38.6504 25.5234H48.405V26.8748H38.6504V25.5234Z" fill="#F2E5CC"/>
<path d="M147.056 139.789L145.215 141.591L141.718 142.942L137.117 144.294L131.043 145.194L124.418 145.645H117.608L110.798 145.194L104.908 144.294L100.123 142.942L96.8102 141.591L94.9697 139.789V95.6449L96.6262 93.8431L100.307 92.3416L104.908 91.1404L110.798 90.2395L117.424 89.7891H124.418L131.043 90.2395L137.117 91.1404L141.718 92.3416L145.215 93.8431L147.056 95.6449V139.789Z" fill="#3D3DA3"/>
<path d="M144.11 139.337L142.454 140.989L139.509 142.64L135.092 143.841L129.939 144.592L124.049 145.193H117.975L112.086 144.592L106.748 143.841L102.515 142.64L99.5705 140.989L97.9141 139.337V95.6432L99.3865 93.9916L102.515 92.4901L106.748 91.2889L112.086 90.388L117.791 89.9375H124.049L129.939 90.388L135.092 91.2889L139.509 92.4901L142.454 93.9916L144.11 95.6432V139.337Z" fill="#4A4AB0"/>
<path d="M141.166 139.037L139.694 140.688L137.117 142.19L133.436 143.391L128.835 144.292L123.681 144.592H118.344L113.191 144.292L108.589 143.391L104.908 142.19L102.148 140.688L100.859 139.037V95.6432L102.148 93.9916L104.908 92.6402L108.589 91.2889L113.191 90.388L118.344 89.9375H123.681L128.835 90.388L133.436 91.2889L137.117 92.6402L139.694 93.9916L141.166 95.6432V139.037Z" fill="#5454BA"/>
<path d="M138.221 138.592L137.117 140.244L134.724 141.745L131.595 142.947L127.546 143.848L123.129 144.298H118.712L114.295 143.848L110.429 142.947L107.301 141.745L104.908 140.244L103.804 138.592V95.6493L104.908 94.1478L107.301 92.6463L110.429 91.295L114.295 90.5442L118.712 90.0938H123.313L127.546 90.5442L131.595 91.295L134.724 92.6463L137.117 94.1478L138.221 95.6493V138.592Z" fill="#6161C7"/>
<path d="M135.276 138.14L134.171 139.942L132.331 141.293L129.754 142.494L126.441 143.395L122.944 143.846H119.079L115.398 143.395L112.27 142.494L109.509 141.293L107.668 139.942L106.748 138.14V95.7977L107.668 94.1461L109.693 92.7947L112.27 91.4434L115.398 90.6926L119.079 90.2422H122.944L126.441 90.6926L129.754 91.4434L132.331 92.7947L134.171 94.1461L135.276 95.7977V138.14Z" fill="#6B6BD1"/>
<path d="M132.331 137.84L131.595 139.491L130.123 140.843L127.914 142.044L125.338 142.945L122.393 143.395H119.448L116.687 142.945L114.111 142.044L111.902 140.843L110.43 139.491L109.693 137.84V95.7977L110.43 94.1461L111.902 92.7947L114.111 91.5935L116.687 90.6926L119.448 90.2422H122.393L125.338 90.6926L127.914 91.5935L129.939 92.7947L131.595 94.1461L132.331 95.7977V137.84Z" fill="#7878DE"/>
<path d="M129.202 137.388L128.65 139.039L127.546 140.391L126.073 141.742L124.233 142.493L122.024 142.943H119.816L117.791 142.493L115.951 141.742L114.294 140.391L113.19 139.039L112.638 137.388V95.9462L113.19 94.1444L114.294 92.9432L115.951 91.5918L117.791 90.8411L119.816 90.3906H122.024L124.233 90.8411L126.073 91.5918L127.546 92.9432L128.65 94.1444L129.202 95.9462V137.388Z" fill="#8282E8"/>
<path d="M126.258 136.935L126.074 138.737L125.338 139.938L124.233 141.14L123.129 142.041L121.657 142.491H120.368L118.896 142.041L117.792 141.14L116.687 139.938L115.951 138.737L115.583 136.935V95.9445L115.951 94.2928L116.687 92.9415L117.792 91.7403L118.896 90.9895L120.368 90.5391H121.657L123.129 90.9895L124.233 91.7403L125.154 92.9415L126.074 94.2928L126.258 95.9445V136.935Z" fill="#8F8FF5"/>
<path d="M120.92 142.039C122.241 142.039 123.313 130.543 123.313 116.363C123.313 102.183 122.241 90.6875 120.92 90.6875C119.599 90.6875 118.527 102.183 118.527 116.363C118.527 130.543 119.599 142.039 120.92 142.039Z" fill="#9999FF"/>
<path d="M150 140.24L147.976 142.041L144.111 143.543L138.773 144.744L132.148 145.645L124.786 146.095H117.056L109.694 145.645L103.068 144.744L97.7304 143.543L93.8654 142.041L91.8408 140.24V95.6449L93.8654 93.8431L97.7304 92.3416L103.068 91.1404L109.694 90.2395L117.056 89.7891H124.786L132.148 90.2395L138.773 91.1404L143.927 92.3416L147.976 93.8431L150 95.6449V140.24Z" stroke="black" stroke-width="0.332476"/>
<path d="M87.0557 145.945V13.8125" stroke="#CCBFA6" stroke-width="0.332476"/>
<path d="M120.92 142.039V90.6875" stroke="#CCCCFF" stroke-width="0.332476"/>
</g>
<defs>
<clipPath id="clip0_2109_213027">
<rect width="150" height="150" fill="white"/>
</clipPath>
</defs>
</svg>
