<svg width="150" height="150" viewBox="0 0 150 150" fill="none" xmlns="http://www.w3.org/2000/svg">
<g clip-path="url(#clip0_2109_212797)">
<path d="M0 7.08594H136.186V150.003H0V7.08594Z" fill="#9999FF"/>
<path d="M0 81.3736L136.186 21.5625V149.999H0V81.3736Z" fill="#9494FA"/>
<path d="M0 89.242L136.186 29.2734V149.997H0V89.242Z" fill="#8F8FF5"/>
<path d="M0 104.514L136.186 44.7031V150.002H0V104.514Z" fill="#8A8AF0"/>
<path d="M0 110.654L136.186 51V150.003H0V110.654Z" fill="#8585EB"/>
<path d="M0 125.131L136.186 65.3203V150H0V125.131Z" fill="#7F7FE5"/>
<path d="M0 141.819L136.186 82.0078V150.004H0V141.819Z" fill="#7A7AE0"/>
<path d="M150 0L136.187 7.0829V150L150 143.074V0Z" fill="#6666CC"/>
<path d="M150 0L136.186 7.0829H0L13.6637 0H150Z" fill="#CCCCFF"/>
<path d="M0 150V7.0829L13.6637 0H150V143.074L136.186 150H0Z" stroke="#333399" stroke-width="0.307462"/>
<path d="M98.7984 78.6953V125.128H105.555L95.345 135.988L85.1348 125.128H91.8915V78.6953H98.7984Z" fill="white"/>
<path d="M68.168 46.4333H112.462V39.5078L122.522 49.8961L112.462 60.7565V53.5162H68.168V46.4333Z" fill="white"/>
<path d="M37.3874 78.6979V32.2655H30.4805L40.8408 21.5625L51.051 32.2655H44.2943V78.6979H37.3874Z" fill="white"/>
<path d="M68.1686 110.651H24.0244V117.892L13.6641 107.189L24.0244 96.3281V103.568H68.1686V110.651Z" fill="white"/>
<path d="M68.1685 53.5126H64.715L58.8592 55.5588L53.6039 58.7067L49.2496 63.2712L45.7961 68.9376L44.2946 75.3909V82.0016L45.7961 88.1401L49.2496 94.1212L53.6039 98.6857L58.8592 101.991L65.1655 103.565H71.3216L77.3276 101.991L82.5829 98.6857L87.2375 94.1212L90.3907 88.1401L91.8922 82.0016V75.3909L90.3907 68.9376L87.2375 63.2712L82.5829 58.7067L77.3276 55.5588L71.3216 53.5126H68.1685V46.4297H72.2225L80.0303 48.6333L86.9372 52.883L92.4928 59.1789L96.5469 66.2618L98.7991 74.4465V82.946L96.5469 91.1306L92.4928 98.3709L86.9372 104.509L80.0303 108.759L72.2225 110.648H64.2646L56.4568 108.759L49.2496 104.509L43.5439 98.3709L39.4898 91.1306L37.3877 82.946V74.4465L39.4898 66.2618L43.5439 58.7067L49.2496 52.883L56.4568 48.6333L64.2646 46.4297H68.1685V53.5126Z" fill="white"/>
</g>
<defs>
<clipPath id="clip0_2109_212797">
<rect width="150" height="150" fill="white"/>
</clipPath>
</defs>
</svg>
