<svg width="150" height="150" viewBox="0 0 150 150" fill="none" xmlns="http://www.w3.org/2000/svg">
<g clip-path="url(#clip0_2109_212986)">
<path d="M0 51.8047H124.053V149.853H0V51.8047Z" fill="#9999FF"/>
<path d="M0 102.704L124.053 61.5625V149.851H0V102.704Z" fill="#9494FA"/>
<path d="M0 108.258L124.053 67.1172V149.85H0V108.258Z" fill="#8F8FF5"/>
<path d="M0 118.766L124.053 77.625V149.847H0V118.766Z" fill="#8A8AF0"/>
<path d="M0 122.969L124.053 81.8281V149.846H0V122.969Z" fill="#8585EB"/>
<path d="M0 132.735L124.053 91.5938V149.852H0V132.735Z" fill="#7F7FE5"/>
<path d="M0 144.446L124.053 103.305V149.851H0V144.446Z" fill="#7A7AE0"/>
<path d="M150 41.4453L124.053 51.8057V149.854L150 139.493V41.4453Z" fill="#6666CC"/>
<path d="M39.0151 80.3308H21.9696V84.6852L12.3105 77.1777L21.9696 69.8203V75.0756H42.4242L84.659 122.073H102.462V117.118L111.742 124.475L102.462 131.832V126.877H81.6287L39.0151 80.3308Z" fill="white"/>
<path d="M39.0151 121.472H21.9696V117.118L12.3105 124.475L21.9696 131.832V126.577H42.4242L84.659 79.7302H102.462V84.6852L111.742 77.1777L102.462 69.8203V74.7753H81.6287L39.0151 121.472Z" fill="white"/>
<path d="M0 149.85V51.8022L25.7576 41.7422H150V139.79L124.053 149.85H0Z" stroke="#333399" stroke-width="0.337269"/>
<path d="M0 51.8018V10.3604L25.7576 0H150V41.4414L124.053 51.8018H0Z" fill="#CC4C4C" stroke="#991919" stroke-width="0.337269"/>
<path d="M0 10.3604H123.674L150 0H26.1364L0 10.3604Z" fill="#FF7F7F"/>
<path d="M0 42.0411L94.697 10.3594H123.674L124.053 51.8008H0V42.0411Z" fill="#C74747"/>
<path d="M12.6895 51.798L124.053 14.7109V51.798H12.6895Z" fill="#C24242"/>
<path d="M31.6289 51.8042L124.053 21.0234V51.8042H31.6289Z" fill="#BD3D3D"/>
<path d="M150 41.4414L124.053 51.8018V10.3604L150 0V41.4414Z" fill="#B23232"/>
<path d="M0 51.8045H124.053V50.4531H0V51.8045Z" fill="#7F0000"/>
<path d="M150 41.4451L124.053 51.8055V50.1538L150 40.0938V41.4451Z" fill="#660000"/>
<path d="M0 51.8018V10.3604L25.7576 0H150V41.4414L124.053 51.8018H0Z" stroke="#991919" stroke-width="0.337269"/>
<path d="M88.0684 42.4923V45.3452H110.985V37.6875H88.0684V40.0899H35.7956V37.6875H13.0684V45.3452H35.7956V42.4923H88.0684Z" fill="white"/>
<path d="M88.0684 20.7223V23.2748H110.985V15.6172H88.0684V18.0196H35.7956V15.6172H13.0684V23.2748H35.7956V20.7223H88.0684Z" fill="white"/>
<path d="M28.5986 38.8909L99.0532 18.3203L100.19 20.4224L29.735 41.1431L28.5986 38.8909Z" fill="white"/>
<path d="M100.189 38.8909L29.3561 18.3203L28.2197 20.4224L99.0531 41.1431L100.189 38.8909Z" fill="white"/>
</g>
<defs>
<clipPath id="clip0_2109_212986">
<rect width="150" height="150" fill="white"/>
</clipPath>
</defs>
</svg>
