<svg width="150" height="150" viewBox="0 0 150 150" fill="none" xmlns="http://www.w3.org/2000/svg">
<g clip-path="url(#clip0_2109_212847)">
<path d="M0 12.9141H74.7839V150.001H0V12.9141Z" fill="#9191F7"/>
<path d="M0 81.079L74.7839 64.5625V149.998H0V81.079Z" fill="#8C8CF2"/>
<path d="M0 82.579L74.7839 66.0625V149.996H0V82.579Z" fill="#8787ED"/>
<path d="M0 84.9836L74.7839 68.6172V149.999H0V84.9836Z" fill="#8282E8"/>
<path d="M150 0L74.7842 12.9129V150L150 134.384V0Z" fill="#7373D9"/>
<path d="M94.2366 146.247V123.274L74.7842 127.178V123.875L124.928 113.815V94.4456L74.7842 104.356V101.052L94.2366 97.4486V77.6288L74.7842 81.6829V78.2294L124.928 68.3195V48.8L74.7842 58.86V55.5567L94.2366 51.5027V32.1333L74.7842 35.7369V32.7339L124.928 22.6738V3.00418L129.251 1.95312V21.7729L150 17.5687V20.872L97.6948 31.2324V50.9021L150 40.3916V43.6949L129.251 47.8991V67.4186L150 63.0642V66.5177L97.6948 76.7279V96.5477L150 85.8871V89.1904L129.251 93.5447V112.914L150 109.01V112.013L97.6948 122.674V145.347L94.2366 146.247Z" fill="#D9D9D9"/>
<path d="M0 12.9129H74.7839L150 0H84.7262L0 12.9129Z" fill="#9999FF"/>
<path d="M74.7839 127.174H0V123.871H74.7839V104.352H0V101.048H74.7839V81.6789L0 81.2285V78.2255H74.7839V58.8561L0 58.5558V55.1024L74.7839 55.5528V35.733H0V32.4297L74.7839 32.73V127.174Z" fill="#F2F2F2"/>
<path d="M0 150H74.7839L150 134.384V0H84.7262L0 12.9129V150Z" stroke="#333399" stroke-width="0.509535"/>
</g>
<defs>
<clipPath id="clip0_2109_212847">
<rect width="150" height="150" fill="white"/>
</clipPath>
</defs>
</svg>
