<svg width="150" height="150" viewBox="0 0 150 150" fill="none" xmlns="http://www.w3.org/2000/svg">
<g clip-path="url(#clip0_2109_162633)">
<path d="M129.88 139.939L123.724 139.789L117.718 139.338L111.712 138.587L105.706 137.386L100 136.185L94.2945 134.533L88.739 132.581L83.3336 130.479L78.0783 128.077L72.8231 125.374L67.718 122.521L62.9132 119.368L58.2585 116.065L53.754 112.461L49.2495 108.707L45.1954 104.653L41.1414 100.599L37.3876 96.0949L33.784 91.5904L30.4807 86.9357L27.3276 82.1309L24.4747 77.0258L21.772 71.7706L19.3696 66.5153L17.2675 61.1099L15.3156 55.5543L13.6639 49.8486L12.4627 44.1429L11.2615 38.1369L10.5108 32.1309L10.0603 26.1249L9.91016 19.9688" stroke="black" stroke-width="0.3003"/>
<path d="M129.88 139.939H150" stroke="black" stroke-width="0.3003"/>
<path d="M9.91016 19.97V0" stroke="black" stroke-width="0.3003"/>
<path d="M129.88 149.999V129.879" stroke="black" stroke-width="0.3003"/>
<path d="M19.97 19.9688H0" stroke="black" stroke-width="0.3003"/>
</g>
<defs>
<clipPath id="clip0_2109_162633">
<rect width="150" height="150" fill="white"/>
</clipPath>
</defs>
</svg>
