<svg width="150" height="150" viewBox="0 0 150 150" fill="none" xmlns="http://www.w3.org/2000/svg">
<g clip-path="url(#clip0_2109_162613)">
<path d="M150 0L149.7 7.65766L149.099 15.1652L148.198 22.6727L146.847 30.03L145.195 37.3874L143.243 44.4444L140.841 51.3514L138.138 58.2583L135.135 64.8649L131.832 71.3213L128.228 77.6276L124.174 83.6336L120.12 89.6396L115.616 95.1952L110.811 100.601L105.856 105.856L100.601 110.811L95.1952 115.616L89.6396 120.12L83.6336 124.174L77.6276 128.228L71.3213 131.832L64.8649 135.135L58.2583 138.138L51.3514 140.841L44.4444 143.243L37.3874 145.195L30.03 146.847L22.6727 148.198L15.1652 149.099L7.65766 149.7L0 150V87.3874H4.35435L8.85886 86.9369L13.2132 86.4865L17.5676 85.5856L21.7718 84.6847L25.8258 83.4835L30.03 82.1321L33.9339 80.4805L37.8378 78.8288L41.5916 76.8769L45.1952 74.7748L48.7988 72.3724L52.2523 69.97L55.5556 67.4174L58.7087 64.7147L61.7117 61.7117L64.7147 58.7087L67.4174 55.5556L69.97 52.2523L72.3724 48.7988L74.7748 45.1952L76.8769 41.5916L78.8288 37.8378L80.4805 33.9339L82.1321 30.03L83.4835 25.8258L84.6847 21.7718L85.5856 17.5676L86.4865 13.2132L86.9369 8.85886L87.3874 4.35435V0H150Z" fill="#00FFFF" stroke="black" stroke-width="0.3003"/>
</g>
<defs>
<clipPath id="clip0_2109_162613">
<rect width="150" height="150" fill="white"/>
</clipPath>
</defs>
</svg>
