<svg width="150" height="150" viewBox="0 0 150 150" fill="none" xmlns="http://www.w3.org/2000/svg">
<g clip-path="url(#clip0_2109_162617)">
<path d="M9.91016 129.88L10.0603 123.724L10.5108 117.718L11.2615 111.712L12.4627 105.706L13.6639 100L15.3156 94.2945L17.2675 88.739L19.3696 83.3336L21.772 78.0783L24.4747 72.8231L27.3276 67.718L30.4807 62.9132L33.784 58.2585L37.3876 53.754L41.1414 49.2495L45.1954 45.1954L49.2495 41.1414L53.754 37.3876L58.2585 33.784L62.9132 30.4807L67.718 27.3276L72.8231 24.4747L78.0783 21.772L83.3336 19.3696L88.739 17.2675L94.2945 15.3156L100 13.6639L105.706 12.4627L111.712 11.2615L117.718 10.5108L123.724 10.0603L129.88 9.91016" stroke="black" stroke-width="0.3003"/>
<path d="M9.91016 129.879V149.999" stroke="black" stroke-width="0.3003"/>
<path d="M129.88 9.91016H150" stroke="black" stroke-width="0.3003"/>
<path d="M0 129.879H19.97" stroke="black" stroke-width="0.3003"/>
<path d="M129.88 19.97V0" stroke="black" stroke-width="0.3003"/>
</g>
<defs>
<clipPath id="clip0_2109_162617">
<rect width="150" height="150" fill="white"/>
</clipPath>
</defs>
</svg>
