<svg width="150" height="150" viewBox="0 0 150 150" fill="none" xmlns="http://www.w3.org/2000/svg">
<g clip-path="url(#clip0_2109_162625)">
<path d="M19.9697 9.91016L26.1259 10.0603L32.1319 10.5108L38.1379 11.2615L44.1439 12.4627L49.8496 13.6639L55.5553 15.3156L61.1109 17.2675L66.5163 19.3696L71.7715 21.772L77.0268 24.4747L82.1319 27.3276L86.9367 30.4807L91.5913 33.784L96.0959 37.3876L100.6 41.1414L104.654 45.1954L108.708 49.2495L112.462 53.754L116.066 58.2585L119.369 62.9132L122.522 67.718L125.375 72.8231L128.078 78.0783L130.48 83.3336L132.582 88.739L134.534 94.2945L136.186 100L137.387 105.706L138.588 111.712L139.339 117.718L139.79 123.724L139.94 129.88" stroke="black" stroke-width="0.3003"/>
<path d="M19.97 9.91016H0" stroke="black" stroke-width="0.3003"/>
<path d="M139.939 129.879V149.999" stroke="black" stroke-width="0.3003"/>
<path d="M19.9697 0V19.97" stroke="black" stroke-width="0.3003"/>
<path d="M129.88 129.879H150" stroke="black" stroke-width="0.3003"/>
</g>
<defs>
<clipPath id="clip0_2109_162625">
<rect width="150" height="150" fill="white"/>
</clipPath>
</defs>
</svg>
