<svg width="150" height="150" viewBox="0 0 150 150" fill="none" xmlns="http://www.w3.org/2000/svg">
<g clip-path="url(#clip0_2109_162605)">
<path d="M0 0L7.65766 0.15015L15.1652 0.750751L22.6727 1.65165L30.03 3.003L37.3874 4.65465L44.4444 6.60661L51.3514 9.00901L58.2583 11.7117L64.8649 14.7147L71.3213 18.018L77.6276 21.6216L83.6336 25.6757L89.6396 29.7297L95.1952 34.2342L100.601 39.039L105.856 43.994L110.811 49.2492L115.616 54.6547L120.12 60.2102L124.174 66.2162L128.228 72.2222L131.832 78.5285L135.135 84.985L138.138 91.5916L140.841 98.4985L143.243 105.405L145.195 112.462L146.847 119.82L148.198 127.177L149.099 134.685L149.7 142.192L150 150H87.3874V145.495L86.9369 140.991L86.4865 136.637L85.5856 132.282L84.6847 128.078L83.4835 124.024L82.1321 119.82L80.4805 115.916L78.8288 112.012L76.8769 108.258L74.7748 104.655L72.3724 101.051L69.97 97.5976L67.4174 94.2943L64.7147 91.1411L61.7117 88.1381L58.7087 85.1351L55.5556 82.4324L52.2523 79.8799L48.7988 77.4775L45.1952 75.0751L41.5916 72.973L37.8378 71.021L33.9339 69.3694L30.03 67.7177L25.8258 66.3664L21.7718 65.1652L17.5676 64.2643L13.2132 63.3634L8.85886 62.9129L4.35435 62.4625H0V0Z" fill="#00FFFF" stroke="black" stroke-width="0.3003"/>
</g>
<defs>
<clipPath id="clip0_2109_162605">
<rect width="150" height="150" fill="white"/>
</clipPath>
</defs>
</svg>
