<svg width="150" height="150" viewBox="0 0 150 150" fill="none" xmlns="http://www.w3.org/2000/svg">
<g clip-path="url(#clip0_2109_162673)">
<path d="M106.727 150L106.909 143.844L107.455 137.838L108.545 131.832L109.636 125.826L111.455 119.82L113.455 114.114L115.636 108.258L118.364 102.553L121.273 96.997L124.545 91.4414L128.182 86.1862L132 80.9309L136 76.1261L140.545 71.1712L145.091 66.5165L150 62.012L74.9091 0L70.5455 3.6036L66.1818 7.35736L62.1818 11.4114L58.1818 15.3153L54.3636 19.3694L50.5455 23.5736L46.9091 27.7778L43.2727 32.1321L40 36.3363L36.7273 40.8408L33.6364 45.3453L30.5455 50L27.6364 54.6547L24.9091 59.3093L22.3636 64.1141L19.8182 68.7688L17.4545 73.7237L15.2727 78.5285L13.2727 83.3333L11.2727 88.2883L9.45455 93.3934L7.81818 98.3484L6.36364 103.453L5.09091 108.559L3.81818 113.664L2.72727 118.919L2 123.874L1.27273 129.129L0.545455 134.384L0.181818 139.489L0 144.745V150H106.727Z" fill="#00FFFF" stroke="black" stroke-width="0.330454"/>
</g>
<defs>
<clipPath id="clip0_2109_162673">
<rect width="150" height="150" fill="white"/>
</clipPath>
</defs>
</svg>
