<svg width="150" height="150" viewBox="0 0 150 150" fill="none" xmlns="http://www.w3.org/2000/svg">
<g clip-path="url(#clip0_2109_162641)">
<path d="M139.94 19.9688L139.79 26.1249L139.339 32.1309L138.588 38.1369L137.387 44.1429L136.186 49.8486L134.534 55.5543L132.582 61.1099L130.48 66.5153L128.078 71.7706L125.375 77.0258L122.522 82.1309L119.369 86.9357L116.066 91.5904L112.462 96.0949L108.708 100.599L104.654 104.653L100.6 108.707L96.0959 112.461L91.5913 116.065L86.9367 119.368L82.1319 122.521L77.0268 125.374L71.7715 128.077L66.5163 130.479L61.1109 132.581L55.5553 134.533L49.8496 136.185L44.1439 137.386L38.1379 138.587L32.1319 139.338L26.1259 139.789L19.9697 139.939" stroke="black" stroke-width="0.3003"/>
<path d="M139.939 19.97V0" stroke="black" stroke-width="0.3003"/>
<path d="M19.97 139.939H0" stroke="black" stroke-width="0.3003"/>
<path d="M150 19.9688H129.88" stroke="black" stroke-width="0.3003"/>
<path d="M19.9697 129.879V149.999" stroke="black" stroke-width="0.3003"/>
</g>
<defs>
<clipPath id="clip0_2109_162641">
<rect width="150" height="150" fill="white"/>
</clipPath>
</defs>
</svg>
