<svg width="150" height="150" viewBox="0 0 150 150" fill="none" xmlns="http://www.w3.org/2000/svg">
<g clip-path="url(#clip0_2109_162536)">
<path d="M25.3754 150H124.174L138.589 132.565L146.997 104.91L150 74.8497L146.997 44.7896L138.589 17.7355L124.174 0H25.3754L11.2613 17.7355L2.85285 44.7896L0 74.8497L2.85285 104.91L11.2613 132.565L25.3754 150Z" fill="#00FFFF" stroke="black" stroke-width="0.424901"/>
<path d="M12.4629 131.062L31.2317 114.229" stroke="black" stroke-width="0.424901"/>
<path d="M12.4629 18.3359L31.2317 35.1696" stroke="black" stroke-width="0.424901"/>
<path d="M118.618 35.7708L138.138 18.3359" stroke="black" stroke-width="0.424901"/>
<path d="M118.619 113.627L138.139 131.062" stroke="black" stroke-width="0.424901"/>
<path d="M43.6934 103.105L65.6153 83.5664" stroke="black" stroke-width="0.424901"/>
<path d="M43.6934 46.293L65.6153 65.832" stroke="black" stroke-width="0.424901"/>
<path d="M84.3848 66.7344L106.157 47.1953" stroke="black" stroke-width="0.424901"/>
<path d="M84.3848 82.6641L106.157 102.203" stroke="black" stroke-width="0.424901"/>
</g>
<defs>
<clipPath id="clip0_2109_162536">
<rect width="150" height="150" fill="white"/>
</clipPath>
</defs>
</svg>
