<svg width="150" height="150" viewBox="0 0 150 150" fill="none" xmlns="http://www.w3.org/2000/svg">
<g clip-path="url(#clip0_2109_221698)">
<path d="M0 146.706H150V143.414H0V146.706Z" fill="#003300"/>
<path d="M134.234 143.414H146.847V149.997H134.234V143.414Z" fill="#669966" stroke="black" stroke-width="0.306819"/>
<path d="M93.8438 143.414H106.156V149.997H93.8438V143.414Z" fill="#669966" stroke="black" stroke-width="0.306819"/>
<path d="M43.6934 143.414H56.306V149.997H43.6934V143.414Z" fill="#669966" stroke="black" stroke-width="0.306819"/>
<path d="M3.15332 143.414H15.6158V149.997H3.15332V143.414Z" fill="#669966" stroke="black" stroke-width="0.306819"/>
<path d="M3.00293 6.42969H146.847V136.837H3.00293V6.42969Z" fill="#7FB27F"/>
<path d="M0 136.836H150V143.419H0V136.836Z" fill="#99CC99" stroke="black" stroke-width="0.306819"/>
<path d="M6.15625 120.533H50.0001V117.398H6.15625V120.533Z" fill="#4C7F4C"/>
<path d="M6.15625 91.0645H50.0001V87.9297H6.15625V91.0645Z" fill="#4C7F4C"/>
<path d="M6.15625 61.9092H50.0001V58.4609H6.15625V61.9092Z" fill="#4C7F4C"/>
<path d="M50 127.114H109.459V120.531H50V127.114Z" fill="#4C7F4C"/>
<path d="M6.15625 45.6094H50.0001V58.462H6.15625V45.6094Z" fill="#99CC99"/>
<path d="M6.15625 74.7656H50.0001V87.9318H6.15625V74.7656Z" fill="#99CC99"/>
<path d="M6.15625 104.234H50.0001V117.401H6.15625V104.234Z" fill="#99CC99" stroke="black" stroke-width="0.306819"/>
<path d="M43.6941 104.234H50.0004V117.401H12.4629L43.6941 104.234Z" fill="#91C491"/>
<path d="M43.6941 74.7656H50.0004V87.9318H12.4629L43.6941 74.7656Z" fill="#91C491"/>
<path d="M43.6941 45.6094H50.0004V58.462H12.4629L43.6941 45.6094Z" fill="#91C491"/>
<path d="M6.15625 74.7656H50.0001V87.9318H6.15625V74.7656Z" stroke="black" stroke-width="0.306819"/>
<path d="M6.15625 45.6094H50.0001V58.462H6.15625V45.6094Z" stroke="black" stroke-width="0.306819"/>
<path d="M50 51.8828H109.459V120.535H50V51.8828Z" fill="#99CC99"/>
<path d="M50 87.3011L109.459 58.4609V107.05H50V87.3011Z" fill="#94C794"/>
<path d="M50 97.0188L109.459 68.4922V113.947H50V97.0188Z" fill="#8FC28F"/>
<path d="M50 107.683L109.459 79.1562V120.536H50V107.683Z" fill="#8ABD8A"/>
<path d="M50 51.8828H109.459V120.535H50V51.8828Z" stroke="black" stroke-width="0.306819"/>
<path d="M78.2285 81.3516H81.2315V91.0694H78.2285V81.3516Z" stroke="#336633" stroke-width="0.306819"/>
<path d="M68.6182 52.1977H74.9245V6.42969H68.6182V52.1977Z" fill="#8CBF8C"/>
<path d="M74.9248 52.1977H103.153V6.42969H74.9248V52.1977Z" fill="#99CC99"/>
<path d="M109.46 52.1977H103.153V6.42969H109.46V52.1977Z" fill="#669966"/>
<path d="M74.9248 51.8842V6.42969" stroke="#CCFFCC" stroke-width="0.306819"/>
<path d="M43.6934 45.6146H46.6964V6.42969H43.6934V45.6146Z" fill="#336633"/>
<path d="M3.00293 6.42969H146.847V136.837H3.00293V6.42969Z" stroke="black" stroke-width="0.306819"/>
<path d="M50 61.9122H43.6937V0H31.0811V6.42633H34.3844V3.1348H40.6907V65.047H50V61.9122Z" fill="#669966" stroke="black" stroke-width="0.306819"/>
<path d="M109.459 19.4375H143.693V146.71H109.459V19.4375Z" fill="#8ABD8A" stroke="black" stroke-width="0.306819"/>
<path d="M9.30957 79.7812H21.772V84.4834H9.30957V79.7812Z" fill="#E5E5E5"/>
<path d="M9.30957 78.2109H21.772V79.7783H9.30957V78.2109Z" fill="#FFB27F"/>
</g>
<defs>
<clipPath id="clip0_2109_221698">
<rect width="150" height="150" fill="white"/>
</clipPath>
</defs>
</svg>
