<svg width="150" height="150" viewBox="0 0 150 150" fill="none" xmlns="http://www.w3.org/2000/svg">
<g clip-path="url(#clip0_2109_221913)">
<path d="M37.719 83.3308L33.333 82.4299V72.8203H116.666V82.4299L113.158 83.3308V149.847H37.719V83.3308Z" fill="#999999"/>
<path d="M42.9824 24.7724L28.9473 16.8144V15.1628H60.5262V14.2619L52.6315 12.7604V7.05469H99.1227V12.7604L88.5964 14.2619V15.1628H121.93V16.8144L107.895 24.7724H42.9824Z" fill="#999999"/>
<path d="M46.4909 24.7724L36.8418 16.8144V15.1628H64.912V14.2619L55.2628 12.7604V7.05469H96.4909V12.7604L86.8418 14.2619V15.1628H114.912V16.8144L102.631 24.7724H46.4909Z" fill="#A6A6A6"/>
<path d="M42.9824 83.3308L39.4736 82.4299V72.8203H111.403V82.4299L107.895 83.3308V149.847H42.9824V83.3308Z" fill="#A6A6A6"/>
<path d="M49.1223 83.3308L44.7363 82.4299V72.8203H104.385V82.4299L100.877 83.3308V149.847H49.1223V83.3308Z" fill="#B2B2B2"/>
<path d="M52.6315 24.7724L42.9824 16.8144V15.1628H66.6666V14.2619L58.7719 12.7604V7.05469H92.1052V12.7604L85.0877 14.2619V15.1628H107.895V16.8144L99.1228 24.7724H52.6315Z" fill="#B2B2B2"/>
<path d="M57.0173 24.7724L50.877 16.8144V15.1628H67.5436V14.2619L62.2805 12.7604V7.05469H88.5963V12.7604L83.3331 14.2619V15.1628H100.877V16.8144L93.8594 24.7724H57.0173Z" fill="#BFBFBF"/>
<path d="M53.509 83.3308L52.6318 82.4299V72.8203H99.1231V82.4299L96.4915 83.3308V149.847H53.509V83.3308Z" fill="#BFBFBF"/>
<path d="M62.2807 24.7724L57.0176 16.8144V15.1628H69.2983V14.2619L66.6667 12.7604V7.05469H85.0878V12.7604L82.4562 14.2619V15.1628H93.8597V16.8144L88.5965 24.7724H62.2807Z" fill="#CCCCCC"/>
<path d="M60.5264 83.3308L57.0176 82.4299V72.8203H92.1053V82.4299L90.3509 83.3308V149.847H60.5264V83.3308Z" fill="#CCCCCC"/>
<path d="M67.5437 24.7724L64.9121 16.8144V15.1628H71.0525V14.2619L69.2981 12.7604V7.05469H82.456V12.7604L78.07 14.2619V15.1628H86.8419V16.8144L83.3332 24.7724H67.5437Z" fill="#D9D9D9"/>
<path d="M66.6665 83.3308L64.9121 82.4299V72.8203H86.8419V82.4299L85.0875 83.3308V149.847H66.6665V83.3308Z" fill="#D9D9D9"/>
<path d="M71.0522 83.3308L69.2979 82.4299V72.8203H80.7014V82.4299V83.3308V149.847H71.0522V83.3308Z" fill="#E5E5E5"/>
<path d="M74.561 24.7724C77.4678 24.7724 79.8242 20.8062 79.8242 15.9135C79.8242 11.0209 77.4678 7.05469 74.561 7.05469C71.6542 7.05469 69.2979 11.0209 69.2979 15.9135C69.2979 20.8062 71.6542 24.7724 74.561 24.7724Z" fill="#E5E5E5"/>
<path d="M121.93 72.8215V68.9176H144.737V68.0167L121.93 66.5152L120.176 64.7134H142.983V64.1128L120.176 62.311V60.8095H142.983V59.9086L118.422 58.4071V56.9056H141.229V56.0047L118.422 54.5032L116.667 52.7014H139.474V52.1008L116.667 50.299L114.913 48.7975H139.474L137.72 47.8966L114.913 46.3951V44.8936H137.72V43.9927L113.158 42.4912V40.6894H135.965V39.7885L113.158 38.287L111.404 36.7854H135.965V35.8845L111.404 34.383V32.8815H134.211V31.9806L109.65 30.1788V28.6773H132.457V27.7764L109.65 26.2749L107.895 24.7734H41.2286V26.2749L17.5444 27.7764V28.6773H39.4742V30.1788L14.9128 31.9806V32.8815H39.4742L37.7198 34.383L13.1584 35.8845V36.7854H37.7198L36.8426 38.287L13.1584 39.7885V40.6894H36.8426V42.4912L11.404 43.9927V44.8936H35.0882V46.3951L11.404 47.8966L9.64964 48.7975H35.0882L33.3338 50.299L9.64964 52.1008V52.7014H33.3338V54.5032L7.89525 56.0047V56.9056H30.7023V58.4071L7.89525 59.9086L7.01806 60.8095H30.7023L28.9479 62.311L7.01806 64.1128V64.7134H28.9479V66.5152L5.26367 68.0167V68.9176H27.1935V72.8215H121.93Z" fill="#B2B2B2"/>
<path d="M113.158 72.8215V68.9176H130.701V68.0167L111.403 66.5152V64.7134H130.701V64.1128L111.403 62.311V60.8095H128.947V59.9086L109.649 58.4071V56.9056H128.947V56.0047L109.649 54.5032V52.7014H127.193V52.1008L107.894 50.299V48.7975H127.193L125.438 47.8966L107.894 46.3951L106.14 44.8936H125.438V43.9927L106.14 42.4912V40.6894H125.438L123.684 39.7885L106.14 38.287L104.386 36.7854H123.684V35.8845L104.386 34.383V32.8815H121.929V31.9806L102.631 30.1788V28.6773H121.929V27.7764L102.631 26.2749V24.7734H49.1224L46.4908 26.2749L27.1926 27.7764V28.6773H46.4908V30.1788L27.1926 31.9806V32.8815H44.7364V34.383L25.4382 35.8845V36.7854H44.7364V38.287L25.4382 39.7885V40.6894H42.9821V42.4912L23.6838 43.9927V44.8936H42.9821V46.3951L23.6838 47.8966L21.9294 48.7975H41.2277V50.299L21.9294 52.1008V52.7014H41.2277L39.4733 54.5032L21.9294 56.0047L21.0522 56.9056H39.4733V58.4071L21.0522 59.9086V60.8095H39.4733L37.7189 62.311L19.2979 64.1128V64.7134H37.7189V66.5152L19.2979 68.0167V68.9176H36.8417V72.8215H113.158Z" fill="#CCCCCC"/>
<path d="M93.8596 72.8215V68.9176H102.632V68.0167L93.8596 66.5152V64.7134H102.632V64.1128L93.8596 62.311L92.1052 60.8095H102.632V59.9086L92.1052 58.4071V56.9056H100.877V56.0047L92.1052 54.5032V52.7014H100.877V52.1008L92.1052 50.299V48.7975H100.877V47.8966L90.3509 46.3951V44.8936H100.877V43.9927L90.3509 42.4912V40.6894H99.1228V39.7885L90.3509 38.287V36.7854H99.1228V35.8845L90.3509 34.383L88.5965 32.8815H99.1228V31.9806L88.5965 30.1788V28.6773H99.1228V27.7764L88.5965 26.2749V24.7734H60.5263V26.2749L52.6316 27.7764V28.6773H60.5263V30.1788L50.8772 31.9806V32.8815H60.5263V34.383L50.8772 35.8845V36.7854H58.7719V38.287L50.8772 39.7885V40.6894H58.7719V42.4912L50.8772 43.9927L49.1228 44.8936H58.7719V46.3951L49.1228 47.8966V48.7975H58.7719L57.0175 50.299L49.1228 52.1008V52.7014H57.0175V54.5032L49.1228 56.0047V56.9056H57.0175V58.4071L46.4912 59.9086V60.8095H57.0175V62.311L46.4912 64.1128V64.7134H55.2631V66.5152L46.4912 68.0167V68.9176H55.2631V72.8215H93.8596Z" fill="#E5E5E5"/>
<path d="M27.1934 121.172H121.93L113.158 147.598H37.7197L27.1934 121.172Z" fill="#333333"/>
<path d="M37.7188 121.172H113.157L104.385 147.598H44.7363L37.7188 121.172Z" fill="#4C4C4C"/>
<path d="M55.2637 121.172H93.8602L90.3514 147.598H60.5268L55.2637 121.172Z" fill="#666666"/>
<path d="M27.1934 121.172H121.93L113.158 147.598H37.7197L27.1934 121.172Z" stroke="black" stroke-width="0.725839"/>
<path d="M0 80.0312H150V81.8331H0V80.0312Z" fill="#B2B2B2" stroke="black" stroke-width="0.725839"/>
<path d="M5.26367 80.0289V77.0259L9.64964 76.125H19.2988L33.3338 77.0259V78.5274L19.2988 77.6265H13.1584V80.0289H5.26367Z" fill="#333333" stroke="black" stroke-width="0.725839"/>
<path d="M144.737 80.0289V77.0259L141.228 76.125H130.702L116.667 77.0259V78.5274L130.702 77.6265H135.965V80.0289H144.737Z" fill="#333333" stroke="black" stroke-width="0.725839"/>
<path d="M69.2983 79.4298L60.5264 77.9283V75.8262L69.2983 74.625H82.4562L88.5965 75.8262V77.9283L82.4562 79.4298H69.2983Z" stroke="black" stroke-width="0.725839"/>
<path d="M57.0176 7.0533V5.70195L66.6667 3.75H83.3334L93.8597 5.70195V7.0533H57.0176Z" fill="#B2B2B2" stroke="black" stroke-width="0.725839"/>
<path d="M66.667 3.75375V1.2012L71.053 0H80.7021L85.088 1.2012V3.75375H66.667Z" fill="#CCCCCC" stroke="black" stroke-width="0.725839"/>
<path d="M37.719 83.3308L33.333 82.4299V72.8203H116.666V82.4299L113.158 83.3308V149.847H37.719V83.3308Z" stroke="black" stroke-width="0.725839"/>
<path d="M121.93 72.8215V68.9176H144.737V68.0167L121.93 66.5152L120.176 64.7134H142.983V64.1128L120.176 62.311V60.8095H142.983V59.9086L118.422 58.4071V56.9056H141.229V56.0047L118.422 54.5032L116.667 52.7014H139.474V52.1008L116.667 50.299L114.913 48.7975H139.474L137.72 47.8966L114.913 46.3951V44.8936H137.72V43.9927L113.158 42.4912V40.6894H135.965V39.7885L113.158 38.287L111.404 36.7854H135.965V35.8845L111.404 34.383V32.8815H134.211V31.9806L109.65 30.1788V28.6773H132.457V27.7764L109.65 26.2749L107.895 24.7734H41.2286V26.2749L17.5444 27.7764V28.6773H39.4742V30.1788L14.9128 31.9806V32.8815H39.4742L37.7198 34.383L13.1584 35.8845V36.7854H37.7198L36.8426 38.287L13.1584 39.7885V40.6894H36.8426V42.4912L11.404 43.9927V44.8936H35.0882V46.3951L11.404 47.8966L9.64964 48.7975H35.0882L33.3338 50.299L9.64964 52.1008V52.7014H33.3338V54.5032L7.89525 56.0047V56.9056H30.7023V58.4071L7.89525 59.9086L7.01806 60.8095H30.7023L28.9479 62.311L7.01806 64.1128V64.7134H28.9479V66.5152L5.26367 68.0167V68.9176H27.1935V72.8215H121.93Z" stroke="black" stroke-width="0.725839"/>
<path d="M37.7188 118.766H113.157" stroke="black" stroke-width="0.725839"/>
<path d="M37.7188 83.3359H113.157" stroke="black" stroke-width="0.725839"/>
<path d="M28.9473 68.9219H120.175" stroke="black" stroke-width="0.725839"/>
<path d="M30.7021 65.0156H120.176" stroke="black" stroke-width="0.725839"/>
<path d="M33.333 60.8125H118.421" stroke="black" stroke-width="0.725839"/>
<path d="M33.333 56.9062H116.666" stroke="black" stroke-width="0.725839"/>
<path d="M35.0879 52.7031H114.912" stroke="black" stroke-width="0.725839"/>
<path d="M36.8418 48.7969H114.912" stroke="black" stroke-width="0.725839"/>
<path d="M36.8418 44.8984H113.158" stroke="black" stroke-width="0.725839"/>
<path d="M37.7188 40.6875H111.403" stroke="black" stroke-width="0.725839"/>
<path d="M39.4736 36.7891H111.403" stroke="black" stroke-width="0.725839"/>
<path d="M41.2285 32.8828H109.65" stroke="black" stroke-width="0.725839"/>
<path d="M41.2285 28.6797H109.65" stroke="black" stroke-width="0.725839"/>
<path d="M60.5264 14.2656H88.5965" stroke="black" stroke-width="0.725839"/>
<path d="M52.6318 11.1094H99.1231" stroke="black" stroke-width="0.725839"/>
<path d="M28.9473 16.8203H121.93" stroke="black" stroke-width="0.725839"/>
<path d="M42.9824 24.7724L28.9473 16.8144V15.1628H60.5262V14.2619L52.6315 12.7604V7.05469H99.1227V12.7604L88.5964 14.2619V15.1628H121.93V16.8144L107.895 24.7724H42.9824Z" stroke="black" stroke-width="0.725839"/>
</g>
<defs>
<clipPath id="clip0_2109_221913">
<rect width="150" height="150" fill="white"/>
</clipPath>
</defs>
</svg>
