<svg width="150" height="150" viewBox="0 0 150 150" fill="none" xmlns="http://www.w3.org/2000/svg">
<g clip-path="url(#clip0_2109_221684)">
<path d="M105.181 6.15616V62.3123H44.458V6.15616V5.25526L46.6267 3.75375L50.964 2.25225L56.7472 1.05105L63.2532 0.15015L71.205 0H79.1568L86.3857 0.15015L93.6146 1.05105L99.3978 2.25225L103.012 3.75375L105.181 5.25526V6.15616Z" fill="#194C19"/>
<path d="M105.18 38.5859V62.3097H108.795L112.409 146.694H37.2285L40.843 62.3097H44.4574V48.7961L105.18 38.5859Z" fill="#144714"/>
<path d="M108.795 68.9219L112.409 146.7H37.2285L40.1201 80.3333L108.795 68.9219Z" fill="#0F420F"/>
<path d="M110.241 95.6484L112.409 146.699H37.2285L39.3972 107.961L110.241 95.6484Z" fill="#0A3D0A"/>
<path d="M111.687 122.977L112.41 146.7H150V150.004H0V146.7H37.2289L37.9518 132.586L111.687 122.977Z" fill="#053805"/>
<path d="M73.3738 78.8311L71.2051 77.9302V76.729L73.3738 75.8281H76.2653L78.434 76.729V77.9302L76.2653 78.8311H73.3738Z" stroke="#669966" stroke-width="0.465923"/>
<path d="M50.9639 32.5812V7.65625" stroke="#669966" stroke-width="0.465923"/>
<path d="M44.458 62.3125H105.181" stroke="#669966" stroke-width="0.465923"/>
<path d="M45.1807 61.7109H105.181" stroke="#003300" stroke-width="0.465923"/>
<path d="M48.7949 32.5812V7.65625" stroke="#003300" stroke-width="0.465923"/>
<path d="M105.181 6.15616V62.3123H108.795L112.41 146.697H150V150H0V146.697H37.2289L40.8434 62.3123H45.1807V6.15616V5.25526L46.6265 3.75375L50.9639 2.25225L56.747 1.05105L63.253 0.15015L71.2048 0H79.1566L86.3855 0.15015L93.6145 1.05105L99.3976 2.25225L103.012 3.75375L105.181 5.25526V6.15616Z" stroke="black" stroke-width="0.465923"/>
</g>
<defs>
<clipPath id="clip0_2109_221684">
<rect width="150" height="150" fill="white"/>
</clipPath>
</defs>
</svg>
