<svg width="150" height="150" viewBox="0 0 150 150" fill="none" xmlns="http://www.w3.org/2000/svg">
<g clip-path="url(#clip0_2109_223217)">
<path d="M23.7236 113.592V57.4609H53.9038V113.592H23.7236Z" fill="#999999"/>
<path d="M23.4238 57.4617V113.593H24.0244V57.4617L23.7241 58.2202V56.7031H23.4238V57.4617Z" fill="black"/>
<path d="M53.9038 56.7031H23.7236V58.2202H53.9038L53.6035 57.4617H54.2041V56.7031H53.9038Z" fill="black"/>
<path d="M54.2041 113.592V57.4609H53.6035V113.592L53.9038 112.834V114.351H54.2041V113.592Z" fill="black"/>
<path d="M23.7241 114.345H53.9043V112.828H23.7241L24.0244 113.587H23.4238V114.345H23.7241Z" fill="black"/>
<path d="M46.0962 113.777H23.874V103.727H42.0422L43.844 104.295L45.3455 105.623L45.9461 106.571L46.0962 108.088V113.777Z" fill="#666666" stroke="black" stroke-width="0.337482"/>
<path d="M1.50195 113.777H23.7242V103.727H5.55601L3.75421 104.295L2.2527 105.623L1.6521 106.571L1.50195 108.088V113.777Z" fill="#666666" stroke="black" stroke-width="0.337482"/>
<path d="M31.6817 150.003L28.5286 27.5H22.0721L18.9189 150.003H31.6817Z" fill="#B2B2B2" stroke="black" stroke-width="0.337482"/>
<path d="M27.3275 150.001L26.2764 29.7734H24.3245L23.2734 150.001H27.3275Z" fill="#E5E5E5"/>
<path d="M136.487 126.296H71.0215L73.4239 118.521L75.3758 109.987L77.1776 101.075L78.529 91.7826L79.4299 82.3009L80.1806 72.0607L80.3308 61.8205L80.1806 51.3906L79.4299 41.3401L78.529 31.4791L77.1776 21.8078L75.526 12.8951L73.7242 4.36157L79.2797 1.89633L86.9374 0.758534L92.1927 0.379267L97.7482 0.189633L103.754 0L109.76 0.189633L115.466 0.379267L120.421 0.5689L128.079 1.7067L133.634 4.36157L131.832 12.8951L130.181 21.8078L128.829 31.4791L127.928 41.3401L127.328 51.3906L127.178 61.8205L127.328 72.0607L127.928 82.3009L128.979 91.7826L130.481 101.075L131.982 109.987L134.085 118.521L135.286 122.503L136.487 126.296Z" fill="#E5E5E5" stroke="black" stroke-width="0.337482"/>
<path d="M128.829 124.971H78.6787L80.4805 117.386L81.982 109.042L83.3334 100.319L84.3844 91.2165L85.1352 81.9244L85.7358 71.8739V61.8233V51.5831L85.1352 41.7222L84.3844 32.0509L83.3334 22.7588L82.1322 14.0357L80.6307 5.50219L84.985 3.22659L90.991 2.08879L99.0991 1.51989L103.754 1.14062L108.408 1.51989L116.667 1.89916L122.372 3.03696L126.727 5.50219L125.225 14.0357L124.024 22.7588L122.973 32.0509L122.372 41.7222L121.922 51.5831L121.772 61.8233L121.922 71.8739L122.372 81.9244L123.123 91.2165L124.174 100.319L125.375 109.042L127.027 117.386L127.928 121.179L128.829 124.971Z" fill="white"/>
<path d="M50.751 145.83V98.2319L51.3516 91.974L52.7029 86.8539L54.9552 82.3027L58.7089 77.5619L63.2134 74.1485L68.3185 72.2521L72.6729 72.0625L77.4777 73.0107L81.2315 75.0966L84.8351 78.3204L87.6879 82.3027L89.9402 86.6643L91.4417 91.4051L92.1924 95.7667V145.83H50.751Z" fill="#CCCCCC" stroke="black" stroke-width="0.337482"/>
<path d="M92.1917 97.6641H50.9004" stroke="black" stroke-width="0.337482"/>
<path d="M69.9697 147.912H73.1229V69.5938H69.9697V147.912Z" fill="#B2B2B2" stroke="black" stroke-width="0.337482"/>
<path d="M63.5137 125.539H112.913V107.523H63.5137V125.539Z" fill="#999999" stroke="black" stroke-width="0.337482"/>
<path d="M150 125.537H132.432V119.469H70.27L69.9697 147.914H149.549L150 125.537Z" fill="#CCCCCC" stroke="black" stroke-width="0.337482"/>
<path d="M109.759 111.508H66.8164V115.68H109.759V111.508Z" fill="#666666" stroke="black" stroke-width="0.337482"/>
<path d="M0 113.594H71.4715V150.003H0V113.594Z" fill="#E5E5E5" stroke="black" stroke-width="0.337482"/>
<path d="M7.95801 135.781H12.6127V143.935H7.95801V135.781Z" fill="#333333" stroke="black" stroke-width="0.337482"/>
<path d="M20.7207 135.781H25.3754V143.935H20.7207V135.781Z" fill="#333333" stroke="black" stroke-width="0.337482"/>
<path d="M33.4834 135.781H38.1381V143.935H33.4834V135.781Z" fill="#333333" stroke="black" stroke-width="0.337482"/>
<path d="M46.0957 135.781H50.7504V143.935H46.0957V135.781Z" fill="#333333" stroke="black" stroke-width="0.337482"/>
<path d="M58.8594 135.781H63.514V143.935H58.8594V135.781Z" fill="#333333" stroke="black" stroke-width="0.337482"/>
<path d="M7.95801 127.812H12.6127V135.777H7.95801V127.812Z" fill="#999999" stroke="black" stroke-width="0.337482"/>
<path d="M20.7207 127.812H25.3754V135.777H20.7207V127.812Z" fill="#999999" stroke="black" stroke-width="0.337482"/>
<path d="M33.4834 127.812H38.1381V135.777H33.4834V127.812Z" fill="#999999" stroke="black" stroke-width="0.337482"/>
<path d="M46.0957 127.812H50.7504V135.777H46.0957V127.812Z" fill="#999999" stroke="black" stroke-width="0.337482"/>
<path d="M58.8594 127.812H63.514V135.777H58.8594V127.812Z" fill="#999999" stroke="black" stroke-width="0.337482"/>
<path d="M20.8711 35.6484H30.1804V38.1137H20.8711V35.6484Z" fill="#4C4C4C" stroke="black" stroke-width="0.337482"/>
<path d="M18.9189 93.1094H31.2313V95.5746H18.9189V93.1094Z" fill="#4C4C4C" stroke="black" stroke-width="0.337482"/>
</g>
<defs>
<clipPath id="clip0_2109_223217">
<rect width="150" height="150" fill="white"/>
</clipPath>
</defs>
</svg>
