<svg width="150" height="150" viewBox="0 0 150 150" fill="none" xmlns="http://www.w3.org/2000/svg">
<g clip-path="url(#clip0_2109_223315)">
<path d="M0 150V142.986L4.2042 141.637L7.95796 137.86L11.5616 131.385L13.8138 124.64L15.9159 116.547L17.7177 106.835L18.9189 99.8201L19.8198 91.9964L20.8709 83.3633L21.6216 74.1907L22.3724 64.4784L22.6727 56.6547L22.8228 47.2122V37.7698L22.3724 28.0576L21.6216 18.3453L20.7207 11.0612L20.1201 6.20504L23.8739 3.50719L28.3784 1.34892L33.7838 0.269784L36.7868 0H38.4384H40.0901H44.8949L49.3994 0.809353L54.6547 2.42806L59.3093 4.85612L61.2613 6.20504L60.0601 14.2986L59.3093 21.5827L58.8589 29.946L58.5586 39.6583L58.4084 50.7194L58.5586 60.1619L58.8589 67.9856L59.3093 75.8094L60.0601 83.9029L60.8108 91.7266L61.8619 99.5504L63.0631 106.565L64.4144 113.849L66.3664 121.942L68.4685 128.687L70.8709 134.622L74.1742 140.018L78.979 143.255L80.3303 143.525L81.2312 142.986H81.3814V150H0Z" fill="#E1E1E1" stroke="black" stroke-width="0.402533"/>
<path d="M85.2852 149.998V144.603L90.2401 142.444L94.144 135.7L96.2461 129.495L98.0479 122.21L99.5494 114.117L100.45 106.833L101.351 99.2788L101.952 91.1853L102.552 82.822L103.003 73.6493L103.153 65.5558L103.003 56.3832L102.703 48.2896L101.802 39.9263L101.051 35.6098L105.405 32.6421L110.21 31.2932L113.513 31.0234H114.715H115.916L121.021 31.2932L125.525 32.1026L130.33 33.9911L132.883 35.6098L131.832 42.8939L131.081 50.7177L130.631 59.081L130.33 68.2537L130.781 77.1565L131.381 87.1385L132.132 96.581L133.333 105.214L134.534 113.577L136.186 121.131L137.988 128.146L140.54 135.969L143.694 141.095L148.048 144.333L148.949 144.603H149.85V149.998H85.2852Z" fill="#E1E1E1" stroke="black" stroke-width="0.402533"/>
</g>
<defs>
<clipPath id="clip0_2109_223315">
<rect width="150" height="150" fill="white"/>
</clipPath>
</defs>
</svg>
