<svg width="150" height="150" viewBox="0 0 150 150" fill="none" xmlns="http://www.w3.org/2000/svg">
<g clip-path="url(#clip0_2109_223505)">
<path d="M59.8555 149.85H89.7834V9.30931L82.5718 0H67.4276L59.8555 9.30931V149.85Z" fill="#996633"/>
<path d="M63.8223 149.85H86.178V9.30931L80.7694 0H69.5915L63.8223 9.30931V149.85Z" fill="#B27F4C"/>
<path d="M67.4277 149.85H82.572V9.30931L78.9662 0H71.3941L67.4277 9.30931V149.85Z" fill="#CC9966"/>
<path d="M71.0332 149.85H78.6053V9.30931L76.8024 0H73.1967L71.0332 9.30931V149.85Z" fill="#E5B27F"/>
<path d="M59.8555 149.85H89.7834V9.30931L82.5718 0H67.4276L59.8555 9.30931V149.85Z" stroke="black" stroke-width="0.465363"/>
<path d="M7.21191 18.7672V15.6141L12.26 12.4609H17.3081L22.3561 15.6141V18.7672H7.21191Z" fill="#663300"/>
<path d="M127.283 18.7672V15.6141L132.331 12.4609H137.379L142.427 15.6141V18.7672H127.283Z" fill="#663300"/>
<path d="M0 18.7656H150V24.9218H0V18.7656Z" fill="#996633"/>
<path d="M0 26.5735H150V24.9219H0V26.5735Z" fill="#663300"/>
<path d="M0 18.7656H150V26.5734H0V18.7656Z" stroke="black" stroke-width="0.465363"/>
</g>
<defs>
<clipPath id="clip0_2109_223505">
<rect width="150" height="150" fill="white"/>
</clipPath>
</defs>
</svg>
