<svg width="150" height="150" viewBox="0 0 150 150" fill="none" xmlns="http://www.w3.org/2000/svg">
<g clip-path="url(#clip0_2109_223595)">
<path d="M0 26.5781H150V28.0796H0V26.5781Z" fill="#999999" stroke="black" stroke-width="0.583063"/>
<path d="M0 10.0625H150V11.564H0V10.0625Z" fill="#999999" stroke="black" stroke-width="0.583063"/>
<path d="M0 26.5781H148.868V27.7793H0V26.5781Z" fill="#B0B0B0"/>
<path d="M0 10.3594H148.868V11.5606H0V10.3594Z" fill="#B0B0B0"/>
<path d="M0 26.875H148.868V27.7759H0V26.875Z" fill="#C4C4C4"/>
<path d="M0 10.3594H148.868V11.2603H0V10.3594Z" fill="#C4C4C4"/>
<path d="M0 26.875H147.736V27.4756H0V26.875Z" fill="#DBDBDB"/>
<path d="M0 10.6641H147.736V11.2647H0V10.6641Z" fill="#DBDBDB"/>
<path d="M0 27.1797H146.604V27.48H0V27.1797Z" fill="#F2F2F2"/>
<path d="M0 10.6641H146.604V10.9644H0V10.6641Z" fill="#F2F2F2"/>
<path d="M69.6225 0H76.415L78.6792 149.85H67.3584L69.6225 0Z" fill="#999999"/>
<path d="M70.7544 0H75.2827L77.5468 149.85H68.4902L70.7544 0Z" fill="#B0B0B0"/>
<path d="M70.7551 0H75.2834L76.4155 149.85H69.623L70.7551 0Z" fill="#C4C4C4"/>
<path d="M71.887 0H74.1511L75.2832 149.85H70.7549L71.887 0Z" fill="#DBDBDB"/>
<path d="M71.8867 0H74.1509V149.85H71.8867V0Z" fill="#F2F2F2"/>
<path d="M69.6225 0H76.415L78.6792 149.85H67.3584L69.6225 0Z" stroke="black" stroke-width="0.583063"/>
<path d="M5.66038 10.0577L0 9.15679H5.66038L0 8.55619H5.66038L0 7.65529H5.66038L0 7.05469H5.66038" stroke="black" stroke-width="0.583063"/>
<path d="M150 10.0577L144.34 9.15679H150L144.34 8.55619H150L144.34 7.65529H150L144.34 7.05469H150" stroke="black" stroke-width="0.583063"/>
<path d="M5.66038 26.5767L0 25.6758H5.66038L0 25.0752H5.66038L0 24.1743H5.66038L0 23.2734H5.66038" stroke="black" stroke-width="0.583063"/>
<path d="M150 26.5767L144.34 25.6758H150L144.34 25.0752H150L144.34 24.1743H150L144.34 23.2734H150" stroke="black" stroke-width="0.583063"/>
<path d="M52.6418 26.5767L46.9814 25.6758H52.6418L46.9814 25.0752H52.6418L46.9814 24.1743H52.6418L46.9814 23.2734H52.6418" stroke="black" stroke-width="0.583063"/>
<path d="M99.0569 26.5767L93.3965 25.6758H99.0569L93.3965 25.0752H99.0569L93.3965 24.1743H99.0569L93.3965 23.2734H99.0569" stroke="black" stroke-width="0.583063"/>
</g>
<defs>
<clipPath id="clip0_2109_223595">
<rect width="150" height="150" fill="white"/>
</clipPath>
</defs>
</svg>
