<svg width="150" height="150" viewBox="0 0 150 150" fill="none" xmlns="http://www.w3.org/2000/svg">
<g clip-path="url(#clip0_2109_221776)">
<path d="M93.3643 41.2913L97.2895 0H105.42L109.346 41.2913H93.3643Z" fill="#B2B2B2" stroke="black" stroke-width="0.410357"/>
<path d="M71.2148 41.2907L74.0186 13.0625H79.3457L82.1494 41.2907H71.2148Z" fill="#B2B2B2" stroke="black" stroke-width="0.410357"/>
<path d="M33.9248 41.293L36.1678 21.7734H40.093L41.7753 41.293H33.9248Z" fill="#B2B2B2" stroke="black" stroke-width="0.410357"/>
<path d="M36.1678 25.6773L33.9248 23.5752L36.1678 21.7734H40.093L41.7753 23.5752L40.093 25.6773H36.1678Z" fill="#7F7F7F" stroke="black" stroke-width="0.410357"/>
<path d="M74.0186 18.7682L71.2148 16.0655L74.0186 13.0625H79.3457L82.1494 16.0655L79.3457 18.7682H74.0186Z" fill="#7F7F7F" stroke="black" stroke-width="0.410357"/>
<path d="M97.2895 8.40841L93.3643 4.2042L97.2895 0H105.42L109.346 4.2042L105.42 8.40841H97.2895Z" fill="#7F7F7F" stroke="black" stroke-width="0.410357"/>
<path d="M89.4395 34.8359H113.832" stroke="black" stroke-width="0.410357"/>
<path d="M90 32.4297H113.832" stroke="black" stroke-width="0.410357"/>
<path d="M90.5605 30.3281H113.271" stroke="black" stroke-width="0.410357"/>
<path d="M90.5605 28.2266H112.71" stroke="black" stroke-width="0.410357"/>
<path d="M90.5605 26.125H112.149" stroke="black" stroke-width="0.410357"/>
<path d="M91.1211 23.5703H112.149" stroke="black" stroke-width="0.410357"/>
<path d="M91.6826 21.4688H112.15" stroke="black" stroke-width="0.410357"/>
<path d="M91.6826 19.3672H111.589" stroke="black" stroke-width="0.410357"/>
<path d="M92.2432 17.2656H111.028" stroke="black" stroke-width="0.410357"/>
<path d="M92.8037 15.1641H111.028" stroke="black" stroke-width="0.410357"/>
<path d="M93.3643 13.0625H110.467" stroke="black" stroke-width="0.410357"/>
<path d="M93.3643 10.8125H109.906" stroke="black" stroke-width="0.410357"/>
<path d="M68.4111 36.9375H84.9532" stroke="black" stroke-width="0.410357"/>
<path d="M68.4111 35.1328H84.9532" stroke="black" stroke-width="0.410357"/>
<path d="M68.9717 33.6328H84.953" stroke="black" stroke-width="0.410357"/>
<path d="M68.9717 32.1328H84.3922" stroke="black" stroke-width="0.410357"/>
<path d="M69.5332 30.9297H84.393" stroke="black" stroke-width="0.410357"/>
<path d="M69.5332 29.4297H84.393" stroke="black" stroke-width="0.410357"/>
<path d="M70.0938 27.7812H83.8321" stroke="black" stroke-width="0.410357"/>
<path d="M70.0938 26.2734H83.8321" stroke="black" stroke-width="0.410357"/>
<path d="M70.6543 24.7734H83.2711" stroke="black" stroke-width="0.410357"/>
<path d="M70.6543 23.2734H83.2711" stroke="black" stroke-width="0.410357"/>
<path d="M71.2148 21.7734H82.7102" stroke="black" stroke-width="0.410357"/>
<path d="M71.2148 20.2734H82.7102" stroke="black" stroke-width="0.410357"/>
<path d="M32.2432 38.1406H43.4581" stroke="black" stroke-width="0.410357"/>
<path d="M32.8037 36.9375H43.4579" stroke="black" stroke-width="0.410357"/>
<path d="M32.8037 36.0391H43.4579" stroke="black" stroke-width="0.410357"/>
<path d="M32.8037 35.1328H43.4579" stroke="black" stroke-width="0.410357"/>
<path d="M33.3643 33.9375H43.4577" stroke="black" stroke-width="0.410357"/>
<path d="M33.3643 33.0312H43.4577" stroke="black" stroke-width="0.410357"/>
<path d="M33.3643 31.8281H42.897" stroke="black" stroke-width="0.410357"/>
<path d="M33.9248 30.9297H42.8968" stroke="black" stroke-width="0.410357"/>
<path d="M33.9248 30.0312H42.8968" stroke="black" stroke-width="0.410357"/>
<path d="M33.9248 28.6797H42.8968" stroke="black" stroke-width="0.410357"/>
<path d="M33.9248 27.7812H42.336" stroke="black" stroke-width="0.410357"/>
<path d="M33.9248 27.0234H42.336" stroke="black" stroke-width="0.410357"/>
<path d="M0 56.4559L7.85047 52.1016H24.3925V137.237H0V56.4559Z" fill="#666666" stroke="black" stroke-width="0.410357"/>
<path d="M65.0469 39.0391L86.0749 39.6397L107.664 40.2403L150 41.2913V148.048L107.664 149.099L86.0749 149.55L65.0469 150V39.0391Z" fill="#7F7F7F"/>
<path d="M56.6357 39.0391H65.047V150H56.6357V39.0391Z" fill="#999999"/>
<path d="M56.6356 39.0391L48.7851 39.6397L40.6543 40.2403L24.3926 41.2913V148.048L40.6543 149.099L48.7851 149.55L56.6356 150V39.0391Z" fill="#737373"/>
<path d="M56.6356 39.0391L40.6543 40.2403V149.099L56.6356 150V39.0391Z" fill="#7F7F7F"/>
<path d="M56.6356 39.0391L48.7852 39.6397V149.55L56.6356 150V39.0391Z" fill="#8C8C8C"/>
<path d="M65.0469 39.0391L107.664 40.2403V149.099L65.0469 150V39.0391Z" fill="#878787"/>
<path d="M65.0469 39.0391L86.0749 39.6397V149.55L65.0469 150V39.0391Z" fill="#919191"/>
<path d="M65.0468 39.0391L150 41.2913V148.048L65.0468 150H56.6356L24.3926 148.048V41.2913L56.6356 39.0391H65.0468Z" stroke="black" stroke-width="0.410357"/>
<path d="M28.3174 111.109H36.7286V130.479H28.3174V111.109Z" fill="#B2B2B2" stroke="black" stroke-width="0.410357"/>
<path d="M7.85059 54.3516H11.7758V65.1624H7.85059V54.3516Z" fill="#999999"/>
<path d="M18.5049 104.352H22.7105V108.556H18.5049V104.352Z" fill="#CCCCCC"/>
</g>
<defs>
<clipPath id="clip0_2109_221776">
<rect width="150" height="150" fill="white"/>
</clipPath>
</defs>
</svg>
