<svg width="150" height="150" viewBox="0 0 150 150" fill="none" xmlns="http://www.w3.org/2000/svg">
<g clip-path="url(#clip0_2109_223188)">
<path d="M10.0635 6.30469H139.696V143.992H10.0635V6.30469Z" fill="#CCCCCC"/>
<path d="M0 150L10.0639 143.994H139.696V6.30631L150 0V150H0Z" fill="#999999"/>
<path d="M150 0L139.696 6.30631H10.0639V143.994L0 150V0H150Z" fill="#E5E5E5"/>
<path d="M0 0H150V150H0V0Z" stroke="black" stroke-width="0.37936"/>
<path d="M74.9997 78.2282C77.7788 78.2282 80.0317 76.8165 80.0317 75.075C80.0317 73.3336 77.7788 71.9219 74.9997 71.9219C72.2207 71.9219 69.9678 73.3336 69.9678 75.075C69.9678 76.8165 72.2207 78.2282 74.9997 78.2282Z" fill="#CCCCCC" stroke="black" stroke-width="0.37936"/>
<path d="M69.9678 74.3281H80.2713V75.5293H69.9678V74.3281Z" fill="#666666" stroke="black" stroke-width="0.37936"/>
<path d="M106.39 18.7656H43.371L39.7767 23.5704L37.8598 27.6245L36.1825 31.8287L35.224 36.183V37.6845L34.9844 39.186V40.6875L35.7032 46.3933L36.6617 50.5975L38.339 54.6515L40.4956 58.5554L42.4125 61.108L43.371 62.3092H106.39L110.224 57.5044L112.141 53.4503L113.579 49.2461L114.537 45.0419L114.777 43.5404V42.189V40.6875L114.537 36.3332L113.579 31.9788L112.141 27.7746L110.224 23.7206L107.588 19.9668L106.39 18.7656Z" fill="#E5E5E5" stroke="#7F7F7F" stroke-width="0.37936"/>
<path d="M52.7158 25.9766H63.0193V45.4961H52.7158V25.9766Z" fill="black" stroke="black" stroke-width="0.37936"/>
<path d="M50.7988 46.6954L52.7158 45.4942V25.9746H63.0193L64.9362 24.7734H50.7988V46.6954Z" fill="#999999" stroke="black" stroke-width="0.37936"/>
<path d="M50.7988 24.7734H64.9362V46.6954H50.7988V24.7734Z" stroke="black" stroke-width="0.37936"/>
<path d="M79.5532 53.9032L78.3551 54.6539L71.4062 58.2575L69.4893 59.1584V53.9032V53.1524L69.9685 52.5518L70.4477 52.1014L70.927 51.6509L71.8854 51.2005L72.6043 51.0503L73.5627 50.75H74.5212H75.7193L76.6778 51.0503L77.6362 51.2005L78.3551 51.6509L78.8343 52.1014L79.3135 52.5518L79.5532 53.1524V53.9032Z" fill="#999999"/>
<path d="M78.3551 53.9024V58.2568H71.4062V53.9024V53.452L71.6459 53.0015L72.1251 52.7012L72.6043 52.2508L73.0836 51.9505L73.5628 51.6502H74.042L74.5213 51.5L75.2401 51.6502H75.959L76.6778 51.9505L77.157 52.2508L77.6363 52.7012L78.1155 53.0015L78.3551 53.452V53.9024Z" fill="black" stroke="black" stroke-width="0.37936"/>
<path d="M79.5532 53.9032V59.1584H69.4893V53.9032V53.1524L69.9685 52.5518L70.4477 52.1014L70.927 51.6509L71.8854 51.2005L72.6043 51.0503L73.5627 50.75H74.5212H75.7193L76.6778 51.0503L77.6362 51.2005L78.3551 51.6509L78.8343 52.1014L79.3135 52.5518L79.5532 53.1524V53.9032Z" stroke="black" stroke-width="0.37936"/>
<path d="M86.7412 25.9766H96.8051V45.4961H86.7412V25.9766Z" fill="black" stroke="black" stroke-width="0.37936"/>
<path d="M84.8242 46.6954L86.7412 45.4942V25.9746H96.805L98.722 24.7734H84.8242V46.6954Z" fill="#999999" stroke="black" stroke-width="0.37936"/>
<path d="M84.8242 24.7734H98.722V46.6954H84.8242V24.7734Z" stroke="black" stroke-width="0.37936"/>
<path d="M106.39 87.5391H43.371L39.7767 92.3439L37.8598 96.3979L36.1825 100.602L35.224 105.107V106.608L34.9844 108.11V109.611L35.7032 115.317L36.6617 119.521L38.339 123.575L40.4956 127.479L43.371 131.083L106.39 131.533L107.588 130.332L110.224 126.578L112.141 122.524L113.579 118.32L114.537 113.815L114.777 112.464V110.962V109.611L114.537 105.107L113.579 100.752L112.141 96.5481L110.224 92.494L107.588 88.7403L106.39 87.5391Z" fill="#E5E5E5" stroke="#7F7F7F" stroke-width="0.37936"/>
<path d="M52.7158 94.7422H63.0193V114.712H52.7158V94.7422Z" fill="black" stroke="black" stroke-width="0.37936"/>
<path d="M50.7988 115.614L52.7158 114.713V94.7429H63.0193L64.9362 93.9922H50.7988V115.614Z" fill="#999999" stroke="black" stroke-width="0.37936"/>
<path d="M50.7988 93.9922H64.9362V115.614H50.7988V93.9922Z" stroke="black" stroke-width="0.37936"/>
<path d="M79.5532 122.669L78.3551 123.87L71.4062 127.173L69.4893 128.374V122.669V122.068L69.9685 121.317L70.4477 120.867L70.927 120.266L71.8854 119.966L72.6043 119.816L73.5627 119.516H74.5212H75.7193L76.6778 119.816L77.6362 119.966L78.3551 120.266L78.8343 120.867L79.3135 121.317L79.5532 122.068V122.669Z" fill="#999999"/>
<path d="M78.3551 122.676V127.18H71.4062V122.676V122.376L71.6459 121.775L72.1251 121.475L72.6043 121.024L73.0836 120.724L73.5628 120.574L74.042 120.424L74.5213 120.273L75.2401 120.424L75.959 120.574L76.6778 120.724L77.157 121.024L77.6363 121.475L78.1155 121.775L78.3551 122.376V122.676Z" fill="black" stroke="black" stroke-width="0.37936"/>
<path d="M79.5532 122.669V128.374H69.4893V122.669V122.068L69.9685 121.317L70.4477 120.867L70.927 120.266L71.8854 119.966L72.6043 119.816L73.5627 119.516H74.5212H75.7193L76.6778 119.816L77.6362 119.966L78.3551 120.266L78.8343 120.867L79.3135 121.317L79.5532 122.068V122.669Z" stroke="black" stroke-width="0.37936"/>
<path d="M86.7412 94.7422H96.8051V114.712H86.7412V94.7422Z" fill="black" stroke="black" stroke-width="0.37936"/>
<path d="M84.8242 115.614L86.7412 114.713V94.7429H96.805L98.722 93.9922H84.8242V115.614Z" fill="#999999" stroke="black" stroke-width="0.37936"/>
<path d="M84.8242 93.9922H98.722V115.614H84.8242V93.9922Z" stroke="black" stroke-width="0.37936"/>
</g>
<defs>
<clipPath id="clip0_2109_223188">
<rect width="150" height="150" fill="white"/>
</clipPath>
</defs>
</svg>
