<svg width="150" height="150" viewBox="0 0 150 150" fill="none" xmlns="http://www.w3.org/2000/svg">
<g clip-path="url(#clip0_2109_223320)">
<path d="M93.2719 82.5826H126.841L127.054 69.5195L128.541 61.2613L131.091 55.1051L134.49 50.6006L138.102 46.6967L141.714 42.9429L145.326 38.5886L148.513 32.7327L150 27.027V25.3754V23.8739L148.938 19.0691L145.963 13.8138L141.926 9.60961L137.465 6.75676L132.365 4.2042L127.054 2.55255L120.467 1.05105L112.606 0.15015L109.207 0H106.657H103.895L97.3088 0.750751L90.2974 2.1021L82.6487 4.95496L77.5496 7.95796L73.0878 11.8619L70.1133 15.7658L67.7762 21.4715L67.1388 24.3243L66.7139 27.1772V28.8288L68.4136 34.0841L71.1756 38.2883L74.7875 42.7928L79.4617 46.8468L83.711 51.0511L87.5354 56.1562L90.7224 62.3123L92.847 70.2703L93.2719 82.5826Z" fill="#FFFF14" stroke="black" stroke-width="0.35722"/>
<path d="M116.218 3.75L127.478 6.60285L130.028 7.3536L133.215 8.40465L135.127 9.15541L136.614 10.2065L138.102 11.1074L139.801 12.4587L141.076 13.6599L142.563 15.4617L143.626 17.2635L144.476 19.2155L145.113 21.4677L145.325 23.5698V25.2215L145.113 27.3236L144.688 28.9752L143.838 30.777L142.351 33.1794L140.864 35.2815L137.039 41.8881L141.289 30.4767L141.714 28.0743V25.3716L140.651 21.4677L139.589 19.2155L138.314 17.2635L136.827 15.762L133.215 13.0593L128.116 9.75601L120.042 5.10135L116.218 3.75Z" fill="white" stroke="white" stroke-width="0.35722"/>
<path d="M92.6348 82.5859H127.691V96.2496V97.0004L127.266 97.9013L126.842 98.8022L126.417 99.5529L125.354 100.304L124.292 100.754L123.017 101.205L121.317 101.355H99.8586L97.9464 101.205L96.6716 100.904L95.3968 100.454L94.3345 100.003L93.4846 99.2526L93.0597 98.3517L92.6348 97.3007V96.2496V82.5859Z" fill="#ABABAB" stroke="black" stroke-width="0.35722"/>
<path d="M92.8472 83.7812H94.9719H103.895L106.02 83.9314H121.105L123.017 84.0816H125.354L127.266 83.7812L127.691 84.0816L124.717 84.532L122.167 84.9825L118.768 85.4329L115.793 85.5831H113.669L110.694 85.8834L107.082 86.1837H104.32L101.558 86.3338L98.3713 86.6341L96.4591 86.9344H93.9096H92.6348L96.0342 87.2347H102.621L103.895 87.3849H125.142L127.479 87.2347L124.929 87.8353L122.592 88.2858L120.68 88.4359L117.706 89.0365L115.581 89.3368L113.456 89.487L110.907 90.0876L108.145 90.3879L105.595 90.6882L102.621 90.9885L99.4336 91.1386L96.8841 91.4389L94.3345 91.5891H92.6348H116.006L118.98 91.7392L121.53 91.8894H126.842L127.904 91.7392L126.204 92.0395L122.805 92.3398L120.255 92.7903L117.068 93.0906H115.793L113.881 93.541L110.694 93.8413H109.207L106.87 94.1416L104.745 94.2918L102.833 94.5921L100.708 94.8924H98.1588L94.5469 95.3428H92.8472H95.3968H127.691L125.567 95.6431H123.017L119.193 96.0936H117.068L114.306 96.2437L112.182 96.3939L110.269 96.544H107.932L106.02 96.6942H104.32L102.196 96.8443H99.8586L97.9464 96.9945H95.6093L93.6971 97.1446H92.6348L97.5215 97.2948H107.295L109.207 97.4449L111.969 97.2948H127.479" stroke="black" stroke-width="0.35722"/>
<path d="M106.444 102.402V100.75H113.456V102.402H106.444Z" fill="black" stroke="black" stroke-width="0.35722"/>
<path d="M87.1104 145.648H117.493V150.003H87.1104V145.648Z" fill="#ABABAB" stroke="black" stroke-width="0.35722"/>
<path d="M96.6719 145.496V138.289H108.782V145.496H96.6719Z" fill="#ABABAB" stroke="black" stroke-width="0.35722"/>
<path d="M97.9463 136.788H108.145L111.969 130.031L114.519 122.824L115.368 116.067L114.306 110.362L111.119 102.854L109.207 99.1003L107.082 95.3466L105.17 91.4427L102.408 83.785L101.983 80.0312L100.496 83.9352L98.5837 87.6889L96.6715 91.4427L94.5469 95.1964L92.2098 99.1003L90.0851 103.004L88.1729 107.058L86.4732 111.262L86.2607 115.016L87.5355 121.473L90.7225 127.329L95.1843 133.485L97.9463 136.788Z" fill="#00FFFF" stroke="#00FFFF" stroke-width="0.35722"/>
<path d="M98.7962 135.439H106.445L108.57 129.733L110.057 123.877L110.694 118.172L110.482 112.316L108.57 106.009L105.808 99.8533L103.045 94.1476L101.558 88.7422L99.646 94.7482L96.4591 100.604L93.4846 106.61L91.3599 112.916L91.1475 115.769L91.7849 121.475L93.9095 127.181L96.884 132.736L98.7962 135.439Z" fill="white" stroke="white" stroke-width="0.35722"/>
<path d="M101.346 132.433H104.108V130.031V127.478L104.321 124.926L104.533 122.373V119.971V117.418L104.321 115.166L104.108 112.614L102.621 106.608L101.346 100.602L100.496 103.004L100.071 105.106L99.4338 107.058L99.2214 109.16L98.7964 110.962L98.584 112.764V114.566V116.367V118.169L98.7964 119.971L99.0089 121.773L99.2214 123.725L99.6463 125.827L100.284 127.929L100.709 130.031L101.346 132.433Z" fill="#0000FF" stroke="#00FFFF" stroke-width="0.35722"/>
<path d="M77.5491 97.1463C79.0746 97.1463 80.3112 94.1212 80.3112 90.3896C80.3112 86.6579 79.0746 83.6328 77.5491 83.6328C76.0237 83.6328 74.7871 86.6579 74.7871 90.3896C74.7871 94.1212 76.0237 97.1463 77.5491 97.1463Z" fill="#0000FF" stroke="#00FFFF" stroke-width="0.35722"/>
<path d="M79.2491 96.5504C79.4838 96.5504 79.6741 95.4076 79.6741 93.9979C79.6741 92.5881 79.4838 91.4453 79.2491 91.4453C79.0145 91.4453 78.8242 92.5881 78.8242 93.9979C78.8242 95.4076 79.0145 96.5504 79.2491 96.5504Z" fill="#00FFFF" stroke="#00FFFF" stroke-width="0.35722"/>
<path d="M10.8357 39.3359H21.034L28.4703 45.3419V66.9636L21.034 71.7684H9.56091L0 63.6603V45.7924L10.8357 39.3359Z" fill="#ABABAB" stroke="black" stroke-width="0.35722"/>
<path d="M21.0336 39.3359L11.4727 45.7924V63.6603L21.0336 71.7684L28.4698 66.9636V45.3419L21.0336 39.3359Z" fill="#ABABAB" stroke="black" stroke-width="0.35722"/>
<path d="M15.7228 56.1576L15.5103 55.2567L15.2979 54.8062V54.6561L17.4225 50.1516L23.3715 46.6981L29.3205 45.4969L35.9069 45.7972H36.3318L40.5811 42.3438L41.2185 44.4459L53.329 51.8032H63.7398L61.8276 56.3077L62.6775 60.8122L63.7398 63.5149L82.0117 71.7732L83.2865 73.2747L83.499 74.1756V75.2266L80.9494 79.581L76.2752 82.8843L75.0004 83.3347L73.7256 83.4849L72.2384 83.3347L70.9636 82.8843L53.9664 74.3257L47.1675 74.626L40.3687 74.0254L34.2072 72.6741L28.4707 70.572L23.584 67.8693L19.5471 64.4158L16.7851 60.5119L15.7228 56.1576Z" fill="#ABABAB" stroke="black" stroke-width="0.35722"/>
<path d="M80.3118 78.8271L78.8245 80.1784L77.3373 81.3796L75.6375 82.1304L74.1503 82.4307H73.7254H73.3004L71.6007 81.6799L71.1758 80.9292V80.6289V80.1784L71.6007 78.3766L72.4506 76.8751L73.3004 75.5238L74.5752 74.3226L76.0625 73.2715L77.7622 72.5208L78.8245 72.0703H79.2494H79.6744L81.5865 72.6709L82.2239 73.5718V74.0223V74.3226V74.773L81.799 76.2745L80.9492 77.776L80.3118 78.8271Z" fill="black" stroke="black" stroke-width="0.35722"/>
<path d="M0 63.6641H11.4731" stroke="black" stroke-width="0.35722"/>
<path d="M69.4757 81.8352L69.0508 79.4328L69.4757 77.7812L70.7505 75.6791L72.6627 73.4268L73.9375 72.3758L75.6372 71.625" stroke="black" stroke-width="0.35722"/>
<path d="M0.212891 45.7969H11.4735" stroke="black" stroke-width="0.35722"/>
<path d="M53.7536 73.7219L51.4165 74.0222H50.3541H48.6544H46.5298L43.1303 73.5717L40.1558 73.1213L36.5439 72.5207L34.6318 72.0702L32.0822 71.1693L29.7451 70.4186L27.8329 69.5177L25.7082 68.3165L24.0085 67.2654L22.3088 65.7639L20.1842 63.6618L19.3343 62.6108L17.6346 59.7579L16.9972 58.5567L16.5723 56.9051V54.9531L17.6346 56.6048L18.9094 57.9561L19.9717 59.1573L21.034 60.3585L22.3088 61.5597L24.4335 63.2114L25.0708 63.9621L26.7706 65.0132L28.8952 66.0642L30.8074 67.1153L33.1445 67.866L35.0567 68.4666L35.6941 68.7669L37.6063 69.2174L39.5184 69.5177L42.7054 70.1183L44.1927 70.4186L47.5921 70.5687H52.4788H53.5411L53.7536 73.7219Z" fill="black" stroke="black" stroke-width="0.35722"/>
<path d="M5.94922 68.6172H17.4223L21.2467 71.7703H9.77358L5.94922 68.6172Z" fill="black" stroke="black" stroke-width="0.35722"/>
<path d="M55.2412 70.7188L69.0514 77.1752L68.414 78.977L68.6265 80.1782L68.8389 81.5296L55.8786 74.4725L55.2412 73.1212V71.4695V70.7188Z" fill="black" stroke="black" stroke-width="0.35722"/>
<path d="M63.7397 51.6531L63.3148 52.2537H63.1023H53.5414L41.006 44.7462L40.5811 42.3438V42.7942L63.7397 51.6531Z" fill="black" stroke="black" stroke-width="0.35722"/>
<path d="M40.5811 42.3449V37.6903L45.4677 33.3359H57.1533L69.9012 39.7924L70.9635 44.8975L63.7397 51.8044H53.3289L41.2184 44.447L40.5811 42.3449Z" fill="#ABABAB" stroke="black" stroke-width="0.35722"/>
<path d="M45.4678 33.3359V40.6933L57.1533 47.6002H68.6264L70.9635 44.8975L69.9012 39.7924L57.1533 33.3359H45.4678Z" fill="black" stroke="black" stroke-width="0.35722"/>
<path d="M41.2178 44.4413L45.4671 40.6875" stroke="black" stroke-width="0.35722"/>
<path d="M53.3281 51.798L57.1525 47.5938" stroke="black" stroke-width="0.35722"/>
<path d="M50.9915 34.9875L58.8526 27.1797L72.8753 35.4379L65.4391 42.7953L64.3767 43.5461L62.8895 43.9965L61.4022 44.1467H60.1274L58.6402 43.9965L57.1529 43.5461L55.6657 42.9455L54.3909 42.3449L53.1161 41.444L52.0538 40.5431L51.2039 39.6421L50.5665 38.7412L50.1416 37.6902V36.7893L50.3541 35.8884L50.9915 34.9875Z" fill="#ABABAB" stroke="black" stroke-width="0.35722"/>
<path d="M75.8502 24.7768L77.5499 25.8278L79.4621 27.029L80.9493 28.2302L82.4366 29.4314L83.7114 30.6326L84.7737 31.8338L85.836 33.035L86.6859 34.0861L87.7482 36.3383L88.1731 38.4404V39.3413L90.0853 38.7407L87.5357 40.993L86.0485 42.3443L83.9238 43.0951L82.6491 43.3954H81.3743H79.6746L76.4876 43.0951L74.5754 42.7948L72.8757 42.3443L70.9635 41.7437L69.0513 41.1431L67.1391 40.3924L65.227 39.4915L63.3148 38.5906L61.4026 37.5395L59.4904 36.3383L57.7907 35.2873L56.3034 34.0861L54.8162 32.8849L53.5414 31.6837L52.2666 30.4825L51.4168 29.2813L50.5669 28.2302L49.2921 25.978L49.0797 24.9269L48.8672 23.8759V22.975L49.5046 21.3233L50.5669 20.2723L52.6916 18.3203L52.0542 19.5215L54.6037 18.9209H57.3658L60.7652 19.2212L62.4649 19.5215L64.3771 19.972L66.2893 20.5726L68.2015 21.1732L70.1136 21.9239L72.0258 22.8248L73.938 23.7257L75.8502 24.7768Z" fill="#FF0016" stroke="black" stroke-width="0.35722"/>
<path d="M78.8243 21.7716L80.7364 22.8227L82.4361 24.0239L83.9234 25.2251L85.4107 26.4263L86.6854 27.6275L87.7478 28.6785L88.8101 29.8797L89.6599 31.0809L90.9347 33.3332L91.1472 34.3842L91.3597 35.4353V36.3362L90.5098 37.9878L89.0226 39.3392L86.8979 40.0899L85.8356 40.2401L84.3483 40.3902H82.8611L79.4616 40.0899L77.7619 39.7896L75.8497 39.3392L73.9376 38.7386L72.0254 37.9878L70.1132 37.2371L68.201 36.4863L66.2888 35.5854L64.3767 34.3842L62.4645 33.3332L60.7648 32.132L59.2775 31.0809L57.7903 29.8797L56.5155 28.6785L55.4531 27.4773L54.3908 26.2761L52.9036 24.0239L52.0537 21.9218V20.8707V19.8197L52.6911 18.3182L54.1784 16.9668L56.303 16.2161L57.5778 15.9158L59.065 15.7656H60.5523L63.7393 16.2161L65.439 16.5164L67.3512 16.9668L69.2633 17.4173L71.1755 18.168L73.0877 18.9188L74.9999 19.8197L76.9121 20.7206L78.8243 21.7716Z" fill="#FF0016" stroke="black" stroke-width="0.35722"/>
<path d="M55.0284 18.6172L54.6035 20.419L54.816 22.3709L55.2409 22.9715L56.0908 24.473L57.7905 25.9745L59.9151 27.9265L61.8273 29.2778L64.1644 30.9295L66.714 32.431L69.2636 33.7824L72.0256 35.1337L75.0001 36.3349L77.7622 37.2358L82.2239 37.9866L86.0483 38.1367L88.1729 37.8364L89.4477 37.0857L89.8726 36.3349" stroke="white" stroke-width="0.35722"/>
<path d="M61.827 52.8516L61.402 53.6023L60.9771 54.6534L60.7646 55.4041V56.305V57.8065L60.9771 59.0077L61.1896 60.0588L61.827 61.5603L62.0394 62.4612L62.4644 63.3621L63.3142 64.7134V64.8636" stroke="white" stroke-width="0.35722"/>
<path d="M54.6036 74.0202L54.1787 72.819V71.6178L54.3912 69.9662L55.241 68.4647L56.3034 67.2635L58.0031 66.0623L59.7028 65.0112L60.5526 64.7109" stroke="black" stroke-width="0.35722"/>
<path d="M52.4791 18.4688L52.0542 19.67V20.5709V21.6219V22.2225L52.2666 22.5228L49.2921 25.8261L49.0797 25.2255L48.8672 23.4237L49.0797 22.0724L49.717 21.1715L52.4791 18.4688Z" fill="black" stroke="black" stroke-width="0.35722"/>
<path d="M63.3145 64.7109L77.1247 70.8671" stroke="white" stroke-width="0.35722"/>
</g>
<defs>
<clipPath id="clip0_2109_223320">
<rect width="150" height="150" fill="white"/>
</clipPath>
</defs>
</svg>
