<svg width="150" height="150" viewBox="0 0 150 150" fill="none" xmlns="http://www.w3.org/2000/svg">
<g clip-path="url(#clip0_2109_222266)">
<path d="M97.4542 67.4151L150 65.0127L110.896 63.2109L83.0957 64.1118V114.863L97.4542 116.364V67.4151Z" fill="#666666"/>
<path d="M64.4599 149.853H49.185L34.8265 149.402L23.8286 148.201L17.4131 146.399V64.1172L95.3153 64.5676L96.5373 146.399L90.1218 148.201L79.1239 149.402L64.4599 149.853Z" fill="#5C7099" stroke="black" stroke-width="0.428349"/>
<path d="M63.8498 149.853H50.4078L37.5769 149.402L27.8009 148.201L22.6074 147V64.1172H91.3447V146.7L86.4567 148.201L76.6807 149.402L63.8498 149.853Z" fill="#667AA3"/>
<path d="M62.627 149.853H51.018L40.0201 149.402L31.7716 148.502L26.5781 147.3V64.1172H87.0669V147.3L82.4844 148.502L74.236 149.402L62.627 149.853Z" fill="#6E82AB"/>
<path d="M62.0159 149.853H51.6289L42.4639 149.402L35.132 148.802L31.7715 147.601V64.1172H82.4843V147.601L78.5128 148.802L71.4864 149.402L62.0159 149.853Z" fill="#788CB5"/>
<path d="M61.4052 149.853H52.8513L45.2138 149.703L38.7983 149.102L36.0488 148.201V64.1172H77.9022V148.201L74.8472 149.102L69.0427 149.703L61.4052 149.853Z" fill="#8296BF"/>
<path d="M60.1828 149.853H53.4618L47.6573 149.703L43.0749 149.102L40.6309 148.502V64.1172H73.6247V148.502L71.4863 149.102L66.2928 149.703L60.1828 149.853Z" fill="#8CA0C9"/>
<path d="M59.2668 149.853H54.6843L50.4074 149.703L46.7414 149.402L45.2139 149.102V64.1172H69.0428V149.102L66.9043 149.402L63.8493 149.703L59.2668 149.853Z" fill="#94A8D1"/>
<path d="M58.6554 149.853H55.2949L52.8509 149.703H50.4069L49.7959 149.402V64.1172H64.4599V149.402L63.2379 149.703H61.4049L58.6554 149.853Z" fill="#9EB2DB"/>
<path d="M64.4599 149.853H49.185L34.8265 149.402L23.8286 148.201L17.4131 146.399V64.1172L95.3153 64.5676L96.5373 146.399L90.1218 148.201L79.1239 149.402L64.4599 149.853Z" stroke="black" stroke-width="0.428349"/>
<path d="M56.8225 66.5157C78.5877 66.5157 96.2318 65.4402 96.2318 64.1133C96.2318 62.7865 78.5877 61.7109 56.8225 61.7109C35.0573 61.7109 17.4131 62.7865 17.4131 64.1133C17.4131 65.4402 35.0573 66.5157 56.8225 66.5157Z" fill="#7589B2" stroke="black" stroke-width="0.428349"/>
<path d="M97.4541 67.418L150 65.0156V113.965L97.4541 116.367V67.418Z" fill="#CCCCCC"/>
<path d="M97.4541 101.952L150 79.4297V113.964L97.4541 116.367V101.952Z" fill="#C7C7C7"/>
<path d="M97.4541 104.054L150 81.5312V113.964L97.4541 116.366V104.054Z" fill="#C2C2C2"/>
<path d="M97.4541 107.054L150 84.5312V113.961L97.4541 116.363V107.054Z" fill="#BDBDBD"/>
<path d="M124.644 86.3357C131.561 86.3357 137.169 83.5795 137.169 80.1796C137.169 76.7796 131.561 74.0234 124.644 74.0234C117.726 74.0234 112.118 76.7796 112.118 80.1796C112.118 83.5795 117.726 86.3357 124.644 86.3357Z" fill="#333333"/>
<path d="M102.342 96.8487L145.112 95.0469V111.864L102.342 113.665V96.8487Z" fill="#999999"/>
<path d="M17.4134 100.147L0 97.7442V77.624L17.4134 77.0234V100.147Z" fill="#7F7F7F" stroke="black" stroke-width="0.428349"/>
<path d="M17.4134 79.4258L0 77.624L17.4134 77.0234V79.4258Z" fill="#666666" stroke="black" stroke-width="0.428349"/>
<path d="M7.94336 77.6291H12.5258V74.6261L14.3588 72.8243H17.4138V70.4219H12.5258L9.77635 71.3228L7.94336 73.7252V77.6291Z" fill="#CCCCCC" stroke="black" stroke-width="0.428349"/>
<path d="M97.4541 67.418L150 65.0156V113.965L97.4541 116.367V67.418Z" stroke="black" stroke-width="0.428349"/>
<path d="M145.112 113.361L148.167 111.859" stroke="black" stroke-width="0.428349"/>
<path d="M102.953 115.162L99.8984 113.961" stroke="black" stroke-width="0.428349"/>
<path d="M99.2871 91.4415V89.0391" stroke="black" stroke-width="0.428349"/>
<path d="M99.2871 69.8174L102.342 68.0156" stroke="black" stroke-width="0.428349"/>
<path d="M148.167 67.7203L145.112 66.2188" stroke="black" stroke-width="0.428349"/>
<path d="M148.167 89.3399V86.9375" stroke="black" stroke-width="0.428349"/>
<path d="M66.2933 49.3984L85.8452 49.6987L84.6232 63.5126L65.0713 63.2123L66.2933 49.3984Z" fill="#26324C"/>
<path d="M29.6338 49.6987L49.1857 49.3984L50.4077 63.2123L30.8558 63.5126L29.6338 49.6987Z" fill="#26324C"/>
<path d="M68.1263 49.3984L84.0122 49.6987L83.0957 63.5126L66.9043 63.2123L68.1263 49.3984Z" fill="#333F59"/>
<path d="M31.7715 49.6987L47.6574 49.3984L48.5739 63.2123L32.9935 63.5126L31.7715 49.6987Z" fill="#333F59"/>
<path d="M70.5698 49.3984L82.4843 49.6987L80.9568 63.2123H69.6533L70.5698 49.3984Z" fill="#404C66"/>
<path d="M34.2158 49.6987L45.2138 49.3984L46.4358 63.2123H35.1323L34.2158 49.6987Z" fill="#404C66"/>
<path d="M72.4028 49.3984L79.7348 49.6987L78.5128 63.2123H71.4863L72.4028 49.3984Z" fill="#4D5973"/>
<path d="M36.0488 49.6987L43.0753 49.3984L44.6028 63.2123H36.9653L36.0488 49.6987Z" fill="#4D5973"/>
<path d="M74.2366 49.7031H77.9026L76.6806 63.2166H73.0146L74.2366 49.7031Z" fill="#59657F"/>
<path d="M37.5762 49.7031H41.2422L42.4642 63.2166H38.7982L37.5762 49.7031Z" fill="#59657F"/>
<path d="M59.8779 49.3977V47.5959L66.9044 45.4938V43.0914L60.1834 42.7911V41.2896L66.9044 38.8872L67.5154 36.4848H61.0999V35.1334L68.1264 32.5808V30.1784H61.4054V28.5268L68.1264 26.2745L69.0429 23.8721L62.0164 23.5718V22.2205L69.0429 19.6679L69.6539 17.2655H62.6274V15.9142L69.6539 13.3616L70.2649 11.1094L89.5113 11.2595L88.9003 13.6619L95.6213 16.5148L95.3158 17.8661H88.9003V20.2685L95.3158 22.8211L94.7048 24.1724H88.2893V26.5748L94.7048 29.4277L94.0938 30.779L87.6783 30.4787V33.1814L94.0938 35.5838L93.1773 37.0854H87.0673V39.4878L93.1773 41.8902V43.692L86.4563 43.3917V45.7941L92.5663 48.4968V49.9983L59.8779 49.3977Z" fill="#9BA3B2"/>
<path d="M22.9126 49.9983V48.4968L29.0226 45.7941V43.3917L22.6071 43.692V41.8902L29.0226 39.4878L28.4116 37.0854H21.9961V35.5838L27.8006 32.8811V30.4787L21.3851 30.779V29.4277L27.8006 26.5748L27.1896 24.1724H21.3851L20.7741 22.8211L27.1896 20.2685L26.5786 17.8661H20.1631V16.5148L26.5786 13.6619L25.9676 11.2595L46.436 11.1094V13.3616L52.8515 15.9142V17.2655H46.436L46.7415 19.6679L53.4625 22.2205V23.5718L46.7415 23.8721L47.658 26.2745L54.0735 28.5268V30.1784H47.658L47.9635 32.5808L54.0735 35.1334L54.6845 36.4848H47.9635L48.5745 38.8872L54.6845 41.2896L55.2955 42.7911L48.5745 43.0914L49.1855 45.4938L55.2955 47.5959V49.3977L22.9126 49.9983Z" fill="#9BA3B2"/>
<path d="M63.2383 49.3977L63.8493 47.5959L69.0428 45.4938L69.6538 43.0914L63.8493 42.7911L64.4603 41.2896L69.6538 38.8872L70.2648 36.4848H64.4603L65.0713 35.1334L70.2648 32.5808L70.5703 30.1784H65.0713V28.5268L70.5703 26.2745V23.8721L65.6823 23.5718V22.2205L71.4868 19.6679V17.2655H66.2933V15.9142L71.7923 13.3616V11.1094L87.0672 11.2595V13.6619L91.9552 16.2145V17.8661L86.4562 17.716V19.9682L91.3442 22.8211L90.7332 24.1724H85.8452V26.5748L90.7332 29.1274V30.4787H85.8452L85.2342 32.8811L90.1222 35.5838V37.0854H85.2342L84.6232 39.4878L89.5112 41.8902V43.3917H84.6232L84.0122 45.7941L88.9002 48.1965V49.698L63.2383 49.3977Z" fill="#A8B0BF"/>
<path d="M26.5786 49.698V48.1965L31.7721 45.7941V43.3917H25.9676V41.8902L30.8556 39.1875V36.7851L25.9676 37.0854L25.3566 35.5838L30.2446 32.8811V30.4787H25.3566L24.7456 29.1274L29.6336 26.5748V24.1724H24.7456L24.1346 22.8211L29.0226 19.9682V17.716L24.1346 17.8661L23.8291 16.2145L29.0226 13.6619L28.4116 11.2595L43.992 11.1094V13.3616L49.1855 15.9142V17.2655H44.603V19.6679L49.7965 22.2205V23.5718L45.214 23.8721V26.2745L50.4075 28.5268V30.1784H45.825V32.5808L51.0185 35.1334V36.4848H46.436V38.8872L51.6295 41.2896V42.7911L46.7415 43.0914V45.4938L51.6295 47.5959L52.2405 49.3977L26.5786 49.698Z" fill="#A8B0BF"/>
<path d="M66.9043 49.3977L67.5153 47.8962L71.4868 45.4938V43.0914H67.5153L68.1263 41.2896L71.7923 39.1875V36.7851L68.1263 36.4848L69.0428 35.1334L72.4033 32.5808V30.1784H69.0428V28.8271L73.0143 26.2745V23.8721H69.6538V22.2205L73.6253 19.6679V17.2655H70.2648V15.9142L73.6253 13.3616L74.2363 11.1094L85.2342 11.2595L84.6232 13.6619L88.2892 16.2145V17.8661L84.6232 17.716L84.0122 19.9682L87.6782 22.5208V24.1724H84.0122L83.7067 26.5748L87.0672 29.1274V30.4787H83.7067L83.0957 32.8811L86.4562 35.2835V37.0854L83.0957 36.7851L82.4847 39.1875L85.8452 41.8902V43.3917H82.4847V45.7941L85.2342 48.1965V49.698L66.9043 49.3977Z" fill="#B5BDCC"/>
<path d="M30.2444 49.698V48.1965L34.2159 45.7941L33.6049 43.3917H29.6334V41.8902L33.6049 39.1875L32.9939 36.7851L29.6334 37.0854L29.0224 35.2835L32.9939 32.8811L32.3829 30.4787H29.0224L28.4114 29.1274L32.3829 26.5748L31.7719 24.1724H28.4114L27.8005 22.5208L31.7719 19.9682L30.8554 17.716H27.8005L27.1895 16.2145L30.8554 13.6619V11.2595L41.2424 11.1094L41.8534 13.3616L45.8249 15.9142V17.2655H41.8534L42.4644 19.6679L46.4359 22.2205V23.8721H42.4644L43.0754 26.2745L46.7414 28.8271V30.1784H43.0754V32.5808L47.6579 35.1334V36.4848L43.9919 36.7851V39.1875L47.9634 41.2896V43.0914H44.6029V45.4938L48.5744 47.8962V49.3977L30.2444 49.698Z" fill="#B5BDCC"/>
<path d="M70.5703 49.3977L71.4868 47.8962L73.0143 45.4938L73.6253 43.0914H71.4868V41.5899L73.6253 39.1875L74.2363 36.7851H71.7923L72.4033 35.1334L74.2363 32.5808L74.8473 30.1784H72.4033V28.8271L74.8473 26.2745V23.8721H73.0143V22.2205L75.4583 19.9682L76.0693 17.716H73.6253V15.9142L76.0693 13.3616V11.1094L83.0958 11.2595V13.6619L84.6233 16.2145V17.716H82.4848V19.9682L84.0123 22.5208V24.1724L81.8738 23.8721V26.2745L83.7068 29.1274V30.4787H80.9573V32.8811L83.0958 35.2835V36.7851H80.3463V39.1875L82.4848 41.5899V43.3917H79.7353V45.7941L81.8738 48.1965V49.698L70.5703 49.3977Z" fill="#C2CAD9"/>
<path d="M34.216 49.698V48.1965L36.049 45.7941V43.3917H33.605V41.5899L35.1325 39.1875V36.7851H33.605L32.994 35.2835L34.827 32.8811V30.4787H32.383V29.1274L34.216 26.2745V23.8721L32.383 24.1724L31.772 22.5208L33.605 19.9682V17.716H31.772L30.8555 16.2145L33.605 13.6619L32.994 11.2595L39.4094 11.1094V13.3616L41.8534 15.9142V17.2655L40.0204 17.716V19.9682L42.4644 22.2205V23.8721H40.6314V26.2745L43.0754 28.8271V30.1784H41.2424V32.5808L43.9919 35.1334V36.7851H41.8534V39.1875L44.6029 41.5899V43.0914H41.8534L42.4644 45.4938L45.2139 47.8962V49.3977L34.216 49.698Z" fill="#C2CAD9"/>
<path d="M74.2363 49.698V47.8962L75.4583 45.4938V43.0914H74.8473V41.5899L76.0693 39.1875V36.7851H75.4583V35.2835L76.6803 32.8811V30.4787H76.0693V28.8271L77.2913 26.2745V23.8721H76.6803V22.5208L77.9023 19.9682V17.716H77.2913V16.2145L77.9023 13.6619L78.5133 11.1094L80.3463 11.2595V13.6619L80.9573 16.2145L80.3463 17.716H79.7353V19.9682L80.3463 22.5208L79.7353 23.8721H79.1243V26.2745L79.7353 29.1274L79.1243 30.4787H78.5133V32.8811L79.1243 35.2835L78.5133 36.7851H77.9023V39.1875L78.5133 41.5899V43.3917H77.9023L77.2913 45.7941L77.9023 48.1965V49.698H74.2363Z" fill="#CED6E5"/>
<path d="M37.5766 49.698V48.1965L38.1876 45.7941L37.5766 43.3917H36.9656V41.5899L37.5766 39.1875L36.9656 36.7851H36.3546V35.2835L36.9656 32.8811L36.3546 30.4787H36.0491V29.1274L36.3546 26.2745L36.0491 23.8721H35.1326V22.5208L36.0491 19.9682L35.1326 17.716H34.8271V16.2145L35.1326 13.6619V11.2595L36.9656 11.1094V13.6619L38.1876 16.2145V17.716H37.5766V19.9682L38.7986 22.5208V23.8721H38.1876V26.2745L39.4096 28.8271V30.4787H38.7986V32.8811L39.4096 35.2835L40.0206 36.7851H39.4096V39.1875L40.0206 41.5899L40.6316 43.0914H40.0206V45.4938L40.6316 47.8962L41.2426 49.698H37.5766Z" fill="#CED6E5"/>
<path d="M69.654 17.2656L88.9004 17.8662L88.2894 19.3677L69.043 19.0674L69.654 17.2656Z" fill="#59657F"/>
<path d="M69.0425 23.875L88.2889 24.1753V25.6768L68.126 25.3765L69.0425 23.875Z" fill="#59657F"/>
<path d="M68.126 30.1797L87.6779 30.48V32.2818L68.126 31.6812V30.1797Z" fill="#59657F"/>
<path d="M67.5153 36.4844L87.0672 37.085V38.5865L66.9043 38.2862L67.5153 36.4844Z" fill="#59657F"/>
<path d="M66.9043 43.0938L86.4562 43.3941V44.8956L66.9043 44.5953V43.0938Z" fill="#59657F"/>
<path d="M26.5781 17.8662L46.4356 17.2656V19.0674L26.5781 19.3677V17.8662Z" fill="#59657F"/>
<path d="M27.1895 24.1753L46.7414 23.875V25.3765L27.1895 25.6768V24.1753Z" fill="#59657F"/>
<path d="M27.8008 30.48L47.6582 30.1797V31.6812L27.8008 32.2818V30.48Z" fill="#59657F"/>
<path d="M28.4111 37.085L47.9631 36.4844V38.2862L28.4111 38.5865V37.085Z" fill="#59657F"/>
<path d="M29.0225 43.3941L48.5744 43.0938V44.5953L29.0225 44.8956V43.3941Z" fill="#59657F"/>
<path d="M73.0146 11.1111V9.60961H76.6806V5.55556L73.6256 4.8048V0.45045L77.2916 0H84.0126L87.0676 0.750751L86.4566 5.1051L83.7071 5.55556L83.0961 9.90991H86.4566L85.8456 11.2613L73.0146 11.1111Z" fill="#B2B2B2" stroke="black" stroke-width="0.428349"/>
<path d="M29.6331 11.2613L29.0221 9.90991H32.9936L32.3826 5.55556L29.0221 5.1051L28.4111 0.750751L31.7716 0H38.1871L41.8531 0.45045V4.8048L38.7981 5.55556V9.60961H42.4641V11.1111L29.6331 11.2613Z" fill="#B2B2B2" stroke="black" stroke-width="0.428349"/>
<path d="M80.9577 9.90991L81.8742 5.55556L78.5137 4.8048V0.750751L82.4852 0H84.0127L87.0676 0.750751L86.4566 5.1051L83.7072 5.55556L83.0962 9.90991H80.9577Z" fill="#7F7F7F"/>
<path d="M37.576 9.60961L36.965 5.55556L34.2155 4.8048L33.6045 0.750751L36.354 0H38.187L41.853 0.45045V4.8048L38.798 5.55556V9.60961H37.576Z" fill="#7F7F7F"/>
<path d="M59.8779 49.3977V47.5959L66.9044 45.4938V43.0914L60.1834 42.7911V41.2896L66.9044 38.8872L67.5154 36.4848H61.0999V35.1334L68.1264 32.5808V30.1784H61.4054V28.5268L68.1264 26.2745L69.0429 23.8721L62.0164 23.5718V22.2205L69.0429 19.6679L69.6539 17.2655H62.6274V15.9142L69.6539 13.3616L70.2649 11.1094L89.5113 11.2595L88.9003 13.6619L95.6213 16.5148L95.3158 17.8661H88.9003V20.2685L95.3158 22.8211L94.7048 24.1724H88.2893V26.5748L94.7048 29.4277L94.0938 30.779L87.6783 30.4787V33.1814L94.0938 35.5838L93.1773 37.0854H87.0673V39.4878L93.1773 41.8902V43.692L86.4563 43.3917V45.7941L92.5663 48.4968V49.9983L59.8779 49.3977Z" stroke="black" stroke-width="0.428349"/>
<path d="M22.9126 49.9983V48.4968L29.0226 45.7941V43.3917L22.6071 43.692V41.8902L29.0226 39.4878L28.4116 37.0854H21.9961V35.5838L27.8006 32.8811V30.4787L21.3851 30.779V29.4277L27.8006 26.5748L27.1896 24.1724H21.3851L20.7741 22.8211L27.1896 20.2685L26.5786 17.8661H20.1631V16.5148L26.5786 13.6619L25.9676 11.2595L46.436 11.1094V13.3616L52.8515 15.9142V17.2655H46.436L46.7415 19.6679L53.4625 22.2205V23.5718L46.7415 23.8721L47.658 26.2745L54.0735 28.5268V30.1784H47.658L47.9635 32.5808L54.0735 35.1334L54.6845 36.4848H47.9635L48.5745 38.8872L54.6845 41.2896L55.2955 42.7911L48.5745 43.0914L49.1855 45.4938L55.2955 47.5959V49.3977L22.9126 49.9983Z" stroke="black" stroke-width="0.428349"/>
<path d="M66.2933 49.3984L85.8452 49.6987L84.6232 63.5126L65.0713 63.2123L66.2933 49.3984Z" stroke="black" stroke-width="0.428349"/>
<path d="M29.6338 49.6987L49.1857 49.3984L50.4077 63.2123L30.8558 63.5126L29.6338 49.6987Z" stroke="black" stroke-width="0.428349"/>
</g>
<defs>
<clipPath id="clip0_2109_222266">
<rect width="150" height="150" fill="white"/>
</clipPath>
</defs>
</svg>
