<svg width="150" height="150" viewBox="0 0 150 150" fill="none" xmlns="http://www.w3.org/2000/svg">
<g clip-path="url(#clip0_2109_221648)">
<path d="M3.9043 111.767H24.1746V100.453H3.9043V111.767Z" fill="#003300" stroke="black" stroke-width="0.342275"/>
<path d="M24.1738 0H150V150H24.1738V0Z" fill="#336633"/>
<path d="M1.95215 10.3359H24.1744V100.453H1.95215V10.3359Z" fill="#336633"/>
<path d="M24.1738 76.27L150 13.6562V150.002H24.1738V76.27Z" fill="#306330"/>
<path d="M1.95215 52.8625L24.1744 37.2578V100.457H1.95215V52.8625Z" fill="#306330"/>
<path d="M24.1738 113.723L150 50.9141V150.004H24.1738V113.723Z" fill="#2E612E"/>
<path d="M1.95215 62.2224L24.1744 47.0078V100.454H1.95215V62.2224Z" fill="#2E612E"/>
<path d="M24.1738 147.661L150 85.2422V150.002H24.1738V147.661Z" fill="#2B5E2B"/>
<path d="M1.95215 75.0969L24.1744 59.4922V100.454H1.95215V75.0969Z" fill="#2B5E2B"/>
<path d="M92.3418 30.625H100.15V50.1309H92.3418V30.625Z" fill="#CCCCCC"/>
<path d="M73.4238 30.625H81.2316V50.1309H73.4238V30.625Z" fill="#CCCCCC"/>
<path d="M103.453 12.875H113.363V24.9686H103.453V12.875Z" fill="#333333"/>
<path d="M103.453 12.875H107.357V21.4576H103.453V12.875Z" fill="#E54C00"/>
<path d="M73.4238 27.1094H81.2316V30.6204H73.4238V27.1094Z" fill="#E54C00"/>
<path d="M92.3418 27.1094H100.15V30.6204H92.3418V27.1094Z" fill="#E54C00"/>
<path d="M12.4629 149.998H24.1746V100.453H12.4629V149.998Z" fill="#194C19" stroke="black" stroke-width="0.342275"/>
<path d="M148.648 6.04688H25.375" stroke="#669966" stroke-width="0.342275"/>
<path d="M87.2373 6.04688V129.324" stroke="#669966" stroke-width="0.342275"/>
<path d="M150 130.492H24.1738" stroke="#669966" stroke-width="0.342275"/>
<path d="M150 137.125H24.1738" stroke="#669966" stroke-width="0.342275"/>
<path d="M1.95215 86.0234H24.1744" stroke="#669966" stroke-width="0.342275"/>
<path d="M0 88.7495H1.65165V10.3359H0V88.7495Z" fill="#2B5E2B" stroke="black" stroke-width="0.342275"/>
<path d="M148.648 129.323V5.46094" stroke="#003300" stroke-width="0.342275"/>
<path d="M150 136.344H24.1738" stroke="#003300" stroke-width="0.342275"/>
<path d="M150 5.46094H24.1738" stroke="#003300" stroke-width="0.342275"/>
<path d="M86.6367 6.04688V129.324" stroke="#003300" stroke-width="0.342275"/>
<path d="M150 129.711H24.1738" stroke="#003300" stroke-width="0.342275"/>
<path d="M25.375 129.323V5.46094" stroke="#003300" stroke-width="0.342275"/>
<path d="M98.949 17.1672H88.4385V7.60938H98.949" stroke="#003300" stroke-width="0.342275"/>
<path d="M1.95215 85.2422H24.1744" stroke="#003300" stroke-width="0.342275"/>
<path d="M89.0391 7.60938V17.1672" stroke="#003300" stroke-width="0.342275"/>
<path d="M24.1738 0H150V150H24.1738V0Z" stroke="black" stroke-width="0.342275"/>
<path d="M1.95215 10.3359H24.1744V100.453H1.95215V10.3359Z" stroke="black" stroke-width="0.342275"/>
</g>
<defs>
<clipPath id="clip0_2109_221648">
<rect width="150" height="150" fill="white"/>
</clipPath>
</defs>
</svg>
