<svg width="150" height="150" viewBox="0 0 150 150" fill="none" xmlns="http://www.w3.org/2000/svg">
<g clip-path="url(#clip0_2109_223250)">
<path d="M49.5498 126.074L92.9432 150.002L149.85 124.667L103.754 118.031L49.5498 126.074Z" fill="#CCCCCC" stroke="black" stroke-width="0.347511"/>
<path d="M17.8682 41.2188L20.8712 45.8434L24.0243 50.6692L27.6279 55.0927L31.3817 59.7174L35.2856 63.9399L39.3396 68.1624L43.5438 72.1839L47.8982 76.0043L52.1024 79.6236L56.4568 83.0418L60.8111 86.46L65.0153 89.4761L69.0694 92.2911L72.9733 94.704L76.727 96.9158L80.1805 98.9265" stroke="black" stroke-width="0.347511"/>
<path d="M82.1323 98.1222L78.5287 95.1061L74.3245 91.4868L69.6698 87.2643L66.3665 84.2482L62.913 81.0311L59.4596 77.6129L56.0061 73.9935L52.5527 70.1732L49.2494 66.3528L46.0962 62.1303L43.0932 57.7067L40.3905 53.2831L37.9881 48.4574L35.7359 43.6316L34.835 41.2188" stroke="black" stroke-width="0.347511"/>
<path d="M51.6514 41.2188L52.5523 44.0338L53.6033 46.6477L54.3541 49.2616L55.4051 51.6745L56.306 54.2885L57.2069 56.5003L58.258 58.9131L59.1589 61.1249L60.0598 63.3367L61.1108 65.5485L62.1619 67.5592L63.0628 69.57L64.1138 71.5807L65.1649 73.3903L66.2159 75.2L67.267 76.8086L68.318 78.6182L69.3691 80.2268L70.4201 81.8354L71.4712 83.4439L72.5222 84.8515L73.5733 86.259L74.6243 87.6665L75.6754 88.8729L76.8766 90.0793L77.9276 91.4868L78.9787 92.4922L80.0297 93.6986L81.0808 94.704L82.282 95.9104L83.333 96.7147L84.3841 97.7201" stroke="black" stroke-width="0.347511"/>
<path d="M84.3848 97.9219H85.4358V102.144H84.3848V97.9219Z" fill="#333333" stroke="black" stroke-width="0.347511"/>
<path d="M82.2822 98.3281H83.4834V102.752H82.2822V98.3281Z" fill="#333333" stroke="black" stroke-width="0.347511"/>
<path d="M80.1807 98.7266H81.2317V103.15H80.1807V98.7266Z" fill="#333333" stroke="black" stroke-width="0.347511"/>
<path d="M25.2256 119.031L34.8352 137.329L44.2947 119.031" stroke="black" stroke-width="0.347511"/>
<path d="M27.3271 99.125L34.8347 117.624L42.192 99.125" stroke="black" stroke-width="0.347511"/>
<path d="M29.4297 82.2422L34.8351 97.7248L40.0903 82.2422" stroke="black" stroke-width="0.347511"/>
<path d="M30.4805 70.9766L34.8348 80.628L39.039 70.9766" stroke="black" stroke-width="0.347511"/>
<path d="M31.6816 60.9219L34.8348 69.3669L37.9879 60.9219" stroke="black" stroke-width="0.347511"/>
<path d="M32.7324 62.5312H36.9366" stroke="black" stroke-width="0.347511"/>
<path d="M31.6816 72.1875H37.9879" stroke="black" stroke-width="0.347511"/>
<path d="M30.4805 83.6484H39.039" stroke="black" stroke-width="0.347511"/>
<path d="M28.3779 100.539H41.1407" stroke="black" stroke-width="0.347511"/>
<path d="M26.4268 120.445H43.2436" stroke="black" stroke-width="0.347511"/>
<path d="M22.0723 27.1484L26.4266 29.7624L30.4807 27.1484L34.835 29.7624L39.0392 27.1484L43.2434 29.7624L47.4476 27.1484" stroke="black" stroke-width="0.347511"/>
<path d="M29.4297 31.3672L34.8351 39.8122L40.0903 31.3672" stroke="black" stroke-width="0.347511"/>
<path d="M29.4297 52.4766H31.6819" stroke="black" stroke-width="0.347511"/>
<path d="M30.4805 55.4922H32.7327" stroke="black" stroke-width="0.347511"/>
<path d="M37.9883 52.4766H40.0904" stroke="black" stroke-width="0.347511"/>
<path d="M36.7871 55.4922H39.0394" stroke="black" stroke-width="0.347511"/>
<path d="M26.4268 32.7734H28.5289" stroke="black" stroke-width="0.347511"/>
<path d="M26.4268 35.5859H28.5289" stroke="black" stroke-width="0.347511"/>
<path d="M41.1406 32.7734H43.2427" stroke="black" stroke-width="0.347511"/>
<path d="M41.1406 35.5859H43.2427" stroke="black" stroke-width="0.347511"/>
<path d="M40.09 44.0312L34.6846 58.1063H35.8858L41.141 44.0312H40.09Z" fill="#666666" stroke="black" stroke-width="0.347511"/>
<path d="M29.429 44.0312L34.8344 58.1063H33.7833L28.3779 44.0312H29.429Z" fill="#666666" stroke="black" stroke-width="0.347511"/>
<path d="M30.4805 69.5703H39.039V70.9778H30.4805V69.5703Z" fill="#B2B2B2" stroke="black" stroke-width="0.347511"/>
<path d="M29.4297 80.8281H40.0903V82.2356H29.4297V80.8281Z" fill="#B2B2B2" stroke="black" stroke-width="0.347511"/>
<path d="M27.3271 97.7188H42.192V99.1263H27.3271V97.7188Z" fill="#B2B2B2" stroke="black" stroke-width="0.347511"/>
<path d="M25.2256 117.625H44.2947V119.033H25.2256V117.625Z" fill="#B2B2B2" stroke="black" stroke-width="0.347511"/>
<path d="M70.7207 128.89V104.963L87.5375 100.539V134.52L70.7207 128.89Z" fill="#B2B2B2" stroke="black" stroke-width="0.347511"/>
<path d="M87.5371 100.539L130.931 109.185V128.89L87.5371 134.52V100.539Z" fill="#7F7F7F" stroke="black" stroke-width="0.347511"/>
<path d="M96.9971 134.515L93.9941 133.107V101.941L96.9971 97.7188V134.515Z" fill="black" stroke="black" stroke-width="0.347511"/>
<path d="M110.811 131.705L107.958 130.298V104.561L110.811 100.539V131.705Z" fill="black" stroke="black" stroke-width="0.347511"/>
<path d="M123.423 130.297L120.721 129.091V107.174L123.423 103.555V130.297Z" fill="black" stroke="black" stroke-width="0.347511"/>
<path d="M129.88 129.492L128.979 48.6612V48.2591L126.276 46.8516L123.723 48.2591V48.6612L122.973 129.492V129.894L126.276 131.704L129.729 129.894L129.88 129.492Z" fill="#B2B2B2" stroke="black" stroke-width="0.347511"/>
<path d="M117.417 132.103L116.517 43.0284L116.366 42.6263L113.514 41.2188L110.961 42.2241L110.811 43.0284L109.76 132.103L113.514 134.516L117.417 132.506V132.103Z" fill="#B2B2B2" stroke="black" stroke-width="0.347511"/>
<path d="M104.955 134.515L103.904 36.9951V36.593L100.751 34.9844L97.5979 36.593V36.9951L96.5469 134.515L100.751 137.33L104.655 135.722L104.955 134.515Z" fill="#B2B2B2" stroke="black" stroke-width="0.347511"/>
<path d="M128.078 129.492L127.627 48.6612L127.327 47.2537L126.877 47.0526L126.426 46.8516L125.976 47.0526L125.525 47.2537L125.225 48.6612L124.774 129.492L126.426 131.704L128.078 129.492Z" fill="#E5E5E5"/>
<path d="M115.165 132.103L114.715 43.0284L114.565 42.2241L113.964 41.2188H113.513H113.213L112.613 42.2241L112.462 43.0284L112.162 132.103L113.513 134.516L114.114 134.315L115.165 132.103Z" fill="#E5E5E5"/>
<path d="M102.403 134.515L102.103 36.9951L101.952 36.1908L101.352 34.9844H100.751L99.5501 36.9951L99.0996 134.515L100.151 137.129L100.751 137.33L101.502 137.129L102.403 134.515Z" fill="#E5E5E5"/>
<path d="M103.904 40.8155V36.9951V36.593L102.402 35.1854L100.751 34.9844L98.949 35.1854L97.7478 36.1908L97.5977 36.593V36.9951V40.8155V41.4187L97.7478 41.6198L99.2493 41.0165L100.751 40.8155L102.102 41.0165L103.604 41.6198H103.754L103.904 41.4187V40.8155Z" fill="#4C4C4C" stroke="black" stroke-width="0.347511"/>
<path d="M116.516 46.0445V43.0284L116.366 42.6263L115.165 41.4198L113.513 41.2188L111.861 41.4198L110.66 42.6263V43.0284L110.81 46.0445V46.4466L110.96 46.6477H111.111L112.762 46.0445H114.264L115.915 46.6477H116.216H116.366L116.516 46.4466V46.0445Z" fill="#4C4C4C" stroke="black" stroke-width="0.347511"/>
<path d="M128.979 51.2752V48.6612V48.2591L127.777 47.0526L126.276 46.8516L124.774 47.0526L123.723 48.2591L123.573 48.6612V51.2752L123.723 51.6773V51.8784L125.075 51.4762L127.027 51.2752L128.528 51.6773L128.979 51.8784V51.6773V51.2752Z" fill="#4C4C4C" stroke="black" stroke-width="0.347511"/>
<path d="M17.8682 29.7578H51.6519L34.8351 31.3664L17.8682 29.7578Z" fill="#B2B2B2" stroke="black" stroke-width="0.347511"/>
<path d="M40.0898 46.849V29.7578H41.1409V46.849H40.0898Z" fill="#999999" stroke="black" stroke-width="0.347511"/>
<path d="M29.429 46.849V29.7578H28.3779V46.849H29.429Z" fill="#999999" stroke="black" stroke-width="0.347511"/>
<path d="M17.8682 29.755L22.0724 24.125H47.4477L51.6519 29.755L46.3967 27.1411H23.1234L17.8682 29.755Z" fill="#B2B2B2" stroke="black" stroke-width="0.347511"/>
<path d="M47.4476 137.332L39.0392 58.1094H30.4807L22.0723 137.332H24.1744L32.7329 61.1255H36.9371L45.3455 137.332H47.4476Z" fill="#B2B2B2" stroke="black" stroke-width="0.347511"/>
<path d="M39.0393 58.109L44.2946 29.7578H43.2435L37.9883 58.109H39.0393Z" fill="#B2B2B2" stroke="black" stroke-width="0.347511"/>
<path d="M30.4808 58.109L25.2256 29.7578H26.4268L31.682 58.109H30.4808Z" fill="#B2B2B2" stroke="black" stroke-width="0.347511"/>
<path d="M17.8682 29.7578H18.9192V41.2189H17.8682V29.7578Z" fill="#333333" stroke="black" stroke-width="0.347511"/>
<path d="M50.751 29.7578H51.6519V41.2189H50.751V29.7578Z" fill="#333333" stroke="black" stroke-width="0.347511"/>
<path d="M32.7327 35.5859L34.8348 38.401L36.9369 35.5859L37.9879 36.9934L34.8348 41.216L31.6816 36.9934L32.7327 35.5859Z" fill="#333333" stroke="black" stroke-width="0.347511"/>
<path d="M51.6513 41.2234L49.3991 39.8159L47.1468 38.4084L45.0447 36.7998L42.9426 35.3923L40.9906 33.5827L39.0387 31.773L37.2369 29.9634L35.5852 27.9526L33.9336 25.7408L32.4321 23.5291L30.7804 21.1162L29.4291 18.7033L27.9276 16.0894L26.7264 13.2744L25.375 10.2583L24.1738 7.24219" stroke="black" stroke-width="0.347511"/>
<path d="M34.8344 41.2171L32.8824 40.0107L30.9305 39.0053L29.1287 37.5978L27.3269 36.3914L25.6752 34.9839L24.0235 33.5764L22.522 31.9678L20.8704 30.3592L19.3689 28.7506L17.8674 26.941L16.516 25.1313L15.0145 23.1206L13.6632 21.1099L12.1617 18.8981L10.8103 16.6863L9.45898 14.2734" stroke="black" stroke-width="0.347511"/>
<path d="M17.8679 41.2222L16.5165 40.8201L15.1652 40.619L13.964 40.2169L12.6126 40.0158L11.5616 39.6137L10.3604 39.2115L9.15916 38.6083L8.10811 38.0051L7.05706 37.2008L6.00601 36.3965L4.95495 35.5922L3.9039 34.3858L2.85285 33.1794L1.95195 31.7718L0.900901 30.1633L0 28.5547" stroke="black" stroke-width="0.347511"/>
<path d="M98.3486 32.5737L95.0453 28.3512L93.0934 26.7426L90.8411 25.3351L89.9402 22.5201L85.4357 22.7212L80.1805 22.9223L76.1264 20.3083L72.0724 18.6997L68.6189 15.8847L67.5679 12.2654L63.0634 12.0643L59.3096 9.85255L58.709 9.65147L58.2585 8.84719L58.1084 8.0429L58.2585 7.64075L62.3126 6.03217L66.8171 5.63003H72.0724L75.2255 3.82038L75.5258 0.402145L75.8261 0.201072L76.5769 0.402145L78.3787 0H79.2796H80.1805L84.8351 1.00536L89.1895 2.01072L93.694 1.20643L97.8982 3.21716L102.102 4.42359L106.156 3.21716L110.961 2.61394L115.165 4.22252L118.469 7.84182L120.871 12.8686L122.973 15.6836H124.625L125.226 16.0858L127.628 20.7105V26.9437L128.078 32.7748L128.229 33.378V34.1823V35.1877L127.328 40.8177L126.727 43.4316L126.577 43.8338L126.277 44.0349H125.976H125.676L124.174 43.8338L122.973 38.2038L121.171 33.378L121.472 31.7694L119.37 25.9383L118.168 24.933H117.718L117.268 25.9383L116.967 26.1394L115.466 26.5416L115.165 27.1448L114.715 30.1609L115.165 35.992L115.316 37.8016L111.111 37.6005L110.811 37.1984L109.61 30.9651L106.907 26.1394L105.856 22.5201L105.256 22.118L104.655 21.9169L101.352 25.134L102.703 31.1662L102.553 31.9705L102.253 32.5737H98.3486Z" fill="#E5E5E5" stroke="#7F7F7F" stroke-width="0.347511"/>
<path d="M98.3483 31.5699L95.045 27.5484L93.0931 25.9399L90.3904 22.3206L86.036 21.5163L80.3303 21.3152L76.5766 19.3045L72.6726 17.4948L69.5195 13.6745L68.9189 12.0659L64.2642 11.6637L61.4114 10.0551L61.1111 9.25086L60.9609 8.64764L61.1111 8.04442L63.063 7.24013L64.5645 7.03906H66.066L70.5705 7.64228L74.6246 9.04979L78.6787 10.6584L80.03 10.8594L80.4805 10.6584L80.6306 10.2562L80.9309 7.44121L81.0811 7.24013H81.2312L81.6817 7.44121L86.036 7.24013L90.3904 8.64764L95.045 7.84335L99.5495 9.85408L103.754 10.6584L107.958 9.653L112.613 9.85408L116.667 12.6691L120.571 15.4841L123.123 17.2938L124.324 17.0927L127.027 22.5216L126.577 28.5538L127.177 31.972V32.5753V33.3795L125.976 40.0149V40.4171L125.826 40.6181L125.676 40.8192H125.375L123.874 40.6181L122.522 34.586L121.922 32.7763L122.222 30.5645L119.67 25.3366L117.718 23.9291L117.267 24.7334L114.264 25.9399L113.964 26.9452L113.814 28.5538L114.264 34.9881L111.411 35.7924L110.961 35.5913L110.06 28.7549L109.91 27.5484L106.607 24.1302L105.255 21.3152L104.805 20.9131L104.054 21.1141L100.45 24.1302L100 24.5324L101.051 30.1624L100.751 30.7656L98.3483 31.5699Z" fill="#B2B2B2"/>
</g>
<defs>
<clipPath id="clip0_2109_223250">
<rect width="150" height="150" fill="white"/>
</clipPath>
</defs>
</svg>
