<svg width="150" height="150" viewBox="0 0 150 150" fill="none" xmlns="http://www.w3.org/2000/svg">
<g clip-path="url(#clip0_2109_222357)">
<path d="M0 0H150V150H0V0Z" fill="#4C4C4C"/>
<path d="M0 59.9099L142.331 0H0V59.9099Z" fill="#545454"/>
<path d="M0 53.6036L127.444 0H0V53.6036Z" fill="#666666"/>
<path d="M0 47.2973L112.556 0H0V47.2973Z" fill="#787878"/>
<path d="M0 40.991L97.218 0H0V40.991Z" fill="#878787"/>
<path d="M0 34.6847L82.3308 0H0V34.6847Z" fill="#999999"/>
<path d="M0 28.0781L66.9925 0H0V28.0781Z" fill="#ABABAB"/>
<path d="M0 21.7718L52.1053 0H0V21.7718Z" fill="#BABABA"/>
<path d="M0 15.4655L36.7669 0H0V15.4655Z" fill="#CCCCCC"/>
<path d="M4.28613 2.85156H145.489V146.846H4.28613V2.85156Z" fill="#F2F2F2"/>
<path d="M4.28613 87.8345L145.489 28.375V146.843H4.28613V87.8345Z" fill="#EDEDED"/>
<path d="M4.28613 101.053L145.489 41.5938V146.849H4.28613V101.053Z" fill="#E8E8E8"/>
<path d="M4.28613 114.264L145.489 54.8047V146.847H4.28613V114.264Z" fill="#E3E3E3"/>
<path d="M4.28613 127.475L145.489 68.0156V146.844H4.28613V127.475Z" fill="#DEDEDE"/>
<path d="M4.28613 140.694L145.489 81.2344V146.85H4.28613V140.694Z" fill="#D9D9D9"/>
<path d="M4.28613 2.85156H145.489V146.846H4.28613V2.85156Z" stroke="#999999" stroke-width="0.368068"/>
<path d="M4.28613 146.846H145.489V2.85156" stroke="black" stroke-width="0.368068"/>
<path d="M0 0H150V150H0V0Z" stroke="black" stroke-width="0.368068"/>
<path d="M125.639 139.637L121.579 140.688H28.1959L24.3613 139.637L20.0756 138.285L16.9177 136.484L15.3387 133.631L13.7598 131.078V18.7659L15.3387 16.2133L16.9177 13.3605L20.0756 11.5587L24.3613 10.2073L28.1959 9.15625H121.579L125.639 10.2073L129.7 11.5587L132.858 13.3605L134.662 16.2133L136.015 18.7659V131.078L134.662 133.631L132.858 136.484L129.7 138.285L125.639 139.637Z" stroke="#CCCCCC" stroke-width="0.368068"/>
<path d="M109.85 118.167L107.143 118.767H42.6318L39.9251 118.167L37.2183 117.266L34.9627 115.764L33.6093 113.963L32.707 111.86V75.5241L33.6093 73.422L34.9627 71.6202L37.2183 70.1187L39.9251 69.2178L42.6318 68.6172H107.143L109.85 69.2178L112.557 70.1187L114.812 71.6202L116.166 73.422L117.068 75.5241V111.86L116.166 113.963L114.812 115.764L112.557 117.266L109.85 118.167Z" stroke="#7F7F7F" stroke-width="0.368068"/>
<path d="M51.2031 107.656H65.6392V117.266H51.2031V107.656Z" fill="white"/>
<path d="M70.1504 107.656H84.1354V117.266H70.1504V107.656Z" fill="white"/>
<path d="M89.0977 107.656H103.083V117.266H89.0977V107.656Z" fill="white"/>
<path d="M89.0977 95.3438H103.083V104.653H89.0977V95.3438Z" fill="white"/>
<path d="M70.1504 95.3438H84.1354V104.653H70.1504V95.3438Z" fill="white"/>
<path d="M51.2031 95.3438H65.6392V104.653H51.2031V95.3438Z" fill="white"/>
<path d="M51.2031 82.7344H65.6392V92.0437H51.2031V82.7344Z" fill="white"/>
<path d="M70.1504 82.7344H84.1354V92.0437H70.1504V82.7344Z" fill="white"/>
<path d="M89.0977 82.7344H103.083V92.0437H89.0977V82.7344Z" fill="white"/>
<path d="M89.0977 70.1172H103.083V79.7268H89.0977V70.1172Z" fill="white"/>
<path d="M70.1504 70.1172H84.1354V79.7268H70.1504V70.1172Z" fill="white"/>
<path d="M51.2031 70.1172H65.6392V79.7268H51.2031V70.1172Z" fill="white"/>
<path d="M109.85 65.0183L107.143 65.6189H42.6318L39.9251 65.0183L37.2183 64.1174L34.9627 62.6159L33.6093 60.8141L32.707 58.712V22.3757L33.6093 20.2736L34.9627 18.4718L37.2183 16.9703L39.9251 16.2195L42.6318 15.4688H107.143L109.85 16.2195L112.557 16.9703L114.812 18.4718L116.166 20.2736L117.068 22.3757V58.712L116.166 60.8141L114.812 62.6159L112.557 64.1174L109.85 65.0183Z" fill="#CCCCCC" stroke="#B2B2B2" stroke-width="0.368068"/>
<path d="M132.857 13.3672L134.662 16.22L136.015 18.7726V131.085L134.662 133.637L132.857 136.49L129.699 138.292L125.639 139.643L121.579 140.695H28.1955L24.3609 139.643L20.0752 138.292" stroke="#7F7F7F" stroke-width="0.368068"/>
<path d="M53.9102 71.9219H62.9327V77.9279H53.9102V71.9219Z" fill="#999999"/>
<path d="M72.4062 71.9219H81.8799V77.9279H72.4062V71.9219Z" fill="#999999"/>
<path d="M91.3535 71.9219H100.827V77.9279H91.3535V71.9219Z" fill="#999999"/>
<path d="M53.9102 84.2344H62.9327V90.5407H53.9102V84.2344Z" fill="#999999"/>
<path d="M72.4062 84.2344H81.8799V90.5407H72.4062V84.2344Z" fill="#999999"/>
<path d="M91.3535 84.2344H100.827V90.5407H91.3535V84.2344Z" fill="#999999"/>
<path d="M53.9102 96.8438H62.9327V103.15H53.9102V96.8438Z" fill="#999999"/>
<path d="M72.4062 96.8438H81.8799V103.15H72.4062V96.8438Z" fill="#999999"/>
<path d="M91.3535 96.8438H100.827V103.15H91.3535V96.8438Z" fill="#999999"/>
<path d="M53.9102 109.461H62.9327V115.467H53.9102V109.461Z" fill="#999999"/>
<path d="M72.4062 109.461H81.8799V115.467H72.4062V109.461Z" fill="#999999"/>
<path d="M91.3535 109.461H100.827V115.467H91.3535V109.461Z" fill="#999999"/>
<path d="M37.2178 32.5859H112.556V37.3907H37.2178V32.5859Z" fill="#B2B2B2"/>
<path d="M37.2178 38.8906H112.556V43.6954H37.2178V38.8906Z" fill="#B2B2B2"/>
<path d="M37.2178 45.1953H112.556V50.0001H37.2178V45.1953Z" fill="#B2B2B2"/>
<path d="M37.2178 51.5H112.556V56.3048H37.2178V51.5Z" fill="#B2B2B2"/>
<path d="M37.2178 57.8047H112.556V62.3092H37.2178V57.8047Z" fill="#B2B2B2" stroke="black" stroke-width="0.368068"/>
<path d="M37.2178 57.8047H45.3381V62.3092H37.2178V57.8047Z" fill="#7F7F7F"/>
<path d="M37.2178 51.5H45.3381V56.3048H37.2178V51.5Z" fill="#7F7F7F"/>
<path d="M37.2178 45.1953H45.3381V50.0001H37.2178V45.1953Z" fill="#7F7F7F"/>
<path d="M37.2178 38.8906H45.3381V43.6954H37.2178V38.8906Z" fill="#7F7F7F"/>
<path d="M37.2178 32.5859H45.3381V37.3907H37.2178V32.5859Z" fill="#7F7F7F"/>
<path d="M37.2178 51.5H112.556V56.3048H37.2178V51.5Z" stroke="black" stroke-width="0.368068"/>
<path d="M37.2178 45.1953H112.556V50.0001H37.2178V45.1953Z" stroke="black" stroke-width="0.368068"/>
<path d="M37.2178 38.8906H112.556V43.6954H37.2178V38.8906Z" stroke="black" stroke-width="0.368068"/>
<path d="M37.2178 32.5859H112.556V37.3907H37.2178V32.5859Z" stroke="black" stroke-width="0.368068"/>
<path d="M37.6689 18.7656H112.556V30.4773H37.6689V18.7656Z" fill="#339966"/>
<path d="M37.6689 30.4787L112.556 22.0703V30.4787H37.6689Z" fill="#3DA370"/>
<path d="M47.1426 30.4806L112.556 23.2734V30.4806H47.1426Z" fill="#47AD7A"/>
<path d="M56.6162 30.4782L112.556 24.1719V30.4782H56.6162Z" fill="#52B885"/>
<path d="M66.0898 30.4801L112.556 25.375V30.4801H66.0898Z" fill="#5EC491"/>
<path d="M75.5645 30.4776L112.557 26.2734V30.4776H75.5645Z" fill="#69CF9C"/>
<path d="M85.0371 30.4796L112.556 27.4766V30.4796H85.0371Z" fill="#73D9A6"/>
<path d="M37.6689 30.4773V18.7656H112.556" stroke="black" stroke-width="0.368068"/>
<path d="M112.556 18.7656V30.4773H37.6689" stroke="white" stroke-width="0.368068"/>
</g>
<defs>
<clipPath id="clip0_2109_222357">
<rect width="150" height="150" fill="white"/>
</clipPath>
</defs>
</svg>
