<svg width="150" height="150" viewBox="0 0 150 150" fill="none" xmlns="http://www.w3.org/2000/svg">
<path d="M124.925 8.66406L123.424 15.5925H125.676L127.178 8.66406H124.925Z" fill="black" stroke="black" stroke-width="0.456136"/>
<path d="M48.3486 60.9688H97.748V92.493H48.3486V60.9688Z" fill="#E5E5DD"/>
<path d="M48.3486 71.3594H97.748V92.491H48.3486V71.3594Z" fill="#CCCCBD"/>
<path d="M48.3486 83.8359H97.748V92.4964H48.3486V83.8359Z" fill="#B2B29B"/>
<path d="M48.3486 60.9688H97.748" stroke="#999999" stroke-width="0.456136"/>
<path d="M146.247 92.4912V36.3712H137.087V15.5859H106.757V36.3712H97.748V92.4912H146.247Z" fill="#4C4C3A" stroke="black" stroke-width="0.456136"/>
<path d="M67.417 85.5625H81.6813V92.4909H67.417V85.5625Z" fill="black"/>
<path d="M45.3453 43.3034L48.3483 36.375V113.28L45.3453 106.352H3.75374V71.3635H0.600586V43.3034H45.3453Z" fill="#CCCCBD"/>
<path d="M45.3453 50.5791L48.3483 45.3828V104.621L45.3453 99.4244H3.75374V71.3643H0.600586V50.5791H45.3453Z" fill="#E5E5DD"/>
<path d="M45.3453 53.6936L48.3483 48.8438V101.153L45.3453 96.3033H3.75374V71.3611H0.600586V53.6936H45.3453Z" fill="#CCCCBD"/>
<path d="M45.3453 60.6256L48.3483 57.5078V92.4963L45.3453 89.3785H3.75374V71.3646H0.600586V60.6256H45.3453Z" fill="#B2B29B"/>
<path d="M45.3453 67.8962L48.3483 66.1641V83.4851L45.3453 82.0994H3.75374V71.3604H0.600586V67.8962H45.3453Z" fill="#99997A"/>
<path d="M48.3485 82.1016V92.4942L45.3455 89.3764H3.75391V82.1016H48.3485Z" fill="#7F7F59"/>
<path d="M45.3457 106.353V43.3047" stroke="black" stroke-width="0.456136"/>
<path d="M45.3453 43.3034L48.3483 36.375V113.28L45.3453 106.352H3.75374V71.3635H0.600586V43.3034H45.3453Z" stroke="black" stroke-width="0.456136"/>
<path d="M3.75391 71.3647V43.3047" stroke="black" stroke-width="0.456136"/>
<path d="M3.75391 89.0312H58.2584V92.4955H3.75391V89.0312Z" fill="#333333"/>
<path d="M5.25488 144.806V95.9609H147.747V144.806H5.25488Z" fill="#99998F" stroke="black" stroke-width="0.456136"/>
<path d="M3.75391 92.4922V106.349H9.75991V95.9564H143.093V106.349H149.249V92.4922H3.75391Z" fill="#E5E5E5" stroke="black" stroke-width="0.456136"/>
<path d="M3.75391 144.805H149.249V148.269H3.75391V144.805Z" fill="#E5E5E5" stroke="black" stroke-width="0.456136"/>
<path d="M9.75977 113.282V95.9609H143.093V113.282H138.589V99.4251H103.754V113.282H100.751V99.4251H55.2553V106.354H46.0961V99.4251H14.2643V113.282H9.75977Z" fill="#191900"/>
<path d="M131.081 102.891V120.558L126.426 113.283H118.919V109.819H126.426L131.081 102.891Z" fill="#999999" stroke="black" stroke-width="0.456136"/>
<path d="M131.081 108.086V115.361L126.426 112.243H118.919V111.204H126.426L131.081 108.086Z" fill="#E5E5E5"/>
<path d="M146.246 141.343V90.7656H131.081V141.343H146.246Z" fill="#666657" stroke="black" stroke-width="0.456136"/>
<path d="M104.505 122.289H107.508V129.217H104.505V122.289Z" fill="#BFBFBF" stroke="black" stroke-width="0.456136"/>
<path d="M112.763 120.555V106.352H118.919V120.555H112.763Z" fill="#7F7F7F" stroke="black" stroke-width="0.456136"/>
<path d="M112.763 120.555V106.352H118.919" stroke="white" stroke-width="0.456136"/>
<path d="M61.2615 117.091V108.084H76.4267V106.352H60.5107V117.091H61.2615Z" fill="black"/>
<path d="M74.9252 117.087V129.212H70.4207V132.676L69.67 136.14H67.4177L66.667 132.676V130.944H60.5108V125.748H57.5078V117.087H62.7631V109.812H70.4207V117.087H74.9252Z" fill="#4C4C3A"/>
<path d="M57.5078 125.748V117.087H62.7631V109.812H70.4207" stroke="white" stroke-width="0.456136"/>
<path d="M70.4199 117.094H74.9244" stroke="white" stroke-width="0.456136"/>
<path d="M63.5137 122.289H76.4266V124.021H63.5137V122.289Z" fill="black"/>
<path d="M63.5137 127.484H76.4266V129.216H63.5137V127.484Z" fill="black"/>
<path d="M100.751 102.891V141.343H76.4268V102.891H100.751Z" fill="#7F7F72" stroke="black" stroke-width="0.456136"/>
<path d="M76.4268 106.352H100.751" stroke="black" stroke-width="0.456136"/>
<path d="M76.4268 137.875H100.751" stroke="black" stroke-width="0.456136"/>
<path d="M76.4268 141.343V102.891H100.751" stroke="white" stroke-width="0.456136"/>
<path d="M24.9248 92.4909V85.5625H15.7656V92.4909H24.9248Z" fill="#E5E5DD" stroke="black" stroke-width="0.456136"/>
<path d="M46.0959 92.4909V85.5625H37.0869V92.4909H46.0959Z" fill="#E5E5DD" stroke="black" stroke-width="0.456136"/>
<path d="M67.417 92.4909V85.5625H58.2578V92.4909H67.417Z" fill="#E5E5DD" stroke="black" stroke-width="0.456136"/>
<path d="M90.8408 92.4909V85.5625H81.6816V92.4909H90.8408Z" fill="#E5E5DD" stroke="black" stroke-width="0.456136"/>
<path d="M18.9189 24.25H43.0931V47.1137H18.9189V24.25Z" fill="#B2B29B" stroke="black" stroke-width="0.456136"/>
<path d="M8.25834 25.9844L6.75684 27.7165H8.25834V25.9844Z" fill="#666666"/>
<path d="M8.25834 29.4453L6.75684 31.1774H8.25834V29.4453Z" fill="#666666"/>
<path d="M8.25834 32.9062L6.75684 34.6384H8.25834V32.9062Z" fill="#666666"/>
<path d="M8.25834 36.375L6.75684 38.4535H8.25834V36.375Z" fill="#666666"/>
<path d="M8.25834 39.8359L6.75684 41.9145H8.25834V39.8359Z" fill="#666666"/>
<path d="M8.25781 62.7031V71.3636H19.6692V62.7031H8.25781Z" stroke="black" stroke-width="0.456136"/>
<path d="M8.25856 62.7041L7.50781 57.5078H20.4207L19.67 62.7041H8.25856Z" fill="#4C4C16" stroke="black" stroke-width="0.456136"/>
<path d="M7.50781 57.5041L8.25856 22.5156H19.67L20.4207 57.5041H7.50781Z" fill="#E5E5DD" stroke="black" stroke-width="0.456136"/>
<path d="M9.30957 54.0444H18.4687L18.1684 25.9844" stroke="black" stroke-width="0.456136"/>
<path d="M9.30957 54.0444L9.76002 25.9844H18.1684" stroke="white" stroke-width="0.456136"/>
<path d="M20.4199 43.2999H26.4259V27.7109" stroke="black" stroke-width="0.456136"/>
<path d="M27.9277 43.2999H34.0839V27.7109" stroke="black" stroke-width="0.456136"/>
<path d="M35.5859 43.2999H41.5919V27.7109" stroke="black" stroke-width="0.456136"/>
<path d="M41.5919 27.7109H35.5859V43.2999" stroke="white" stroke-width="0.456136"/>
<path d="M34.0841 27.7109H28.0781V43.2999" stroke="white" stroke-width="0.456136"/>
<path d="M26.4259 27.7109H20.4199V43.2999" stroke="white" stroke-width="0.456136"/>
<path d="M37.8379 29.4453H40.8409V32.9095H37.8379V29.4453Z" fill="#E5E5DD"/>
<path d="M27.9277 57.5078H34.8346V64.4362H27.9277V57.5078Z" fill="#E5E5DD"/>
<path d="M17.2676 85.5645H44.5949V83.8324H40.0904V75.1719H39.3397V83.8324H22.673V75.1719H21.9222V83.8324H17.2676V85.5645Z" fill="#99997A" stroke="black" stroke-width="0.456136"/>
<path d="M58.2578 50.5795V43.3047H59.0086V50.5795H58.2578Z" fill="#E5E5DD"/>
<path d="M90.0898 50.5795V43.3047H90.8406V50.5795H90.0898Z" fill="#E5E5DD"/>
<path d="M90.0898 66.167V50.5781H90.8406V66.167H90.0898Z" fill="#B2B29B"/>
<path d="M58.2578 66.167V50.5781H59.0086V66.167H58.2578Z" fill="#B2B29B"/>
<path d="M58.2578 85.5636V66.1641H59.0086V85.5636H58.2578Z" fill="#7F7F59"/>
<path d="M90.0898 85.5636V66.1641H90.8406V85.5636H90.0898Z" fill="#7F7F59"/>
<path d="M58.2578 85.568V43.3047H59.0086V85.568H58.2578Z" stroke="black" stroke-width="0.456136"/>
<path d="M90.0898 85.568V43.3047H90.8406V85.568H90.0898Z" stroke="black" stroke-width="0.456136"/>
<path d="M59.0088 47.1094H90.0899V85.562H59.0088V47.1094Z" fill="#E5E5DD"/>
<path d="M59.0088 53.6953H90.0899V85.566H59.0088V53.6953Z" fill="#CCCCBD"/>
<path d="M59.0088 63.0469H90.0899V85.5642H59.0088V63.0469Z" fill="#B2B29B"/>
<path d="M59.0088 47.1094H90.0899V85.562H59.0088V47.1094Z" stroke="black" stroke-width="0.456136"/>
<path d="M59.0088 75.1719H90.0899" stroke="#7F7F7F" stroke-width="0.456136"/>
<path d="M59.7598 73.0938H61.2613V85.5649H59.7598V73.0938Z" fill="#CCCCCC" stroke="black" stroke-width="0.456136"/>
<path d="M63.6641 73.0938H65.1656V85.5649H63.6641V73.0938Z" fill="#CCCCCC" stroke="black" stroke-width="0.456136"/>
<path d="M84.084 73.0938H85.5855V85.5649H84.084V73.0938Z" fill="#CCCCCC" stroke="black" stroke-width="0.456136"/>
<path d="M87.8379 73.0938H89.3394V85.5649H87.8379V73.0938Z" fill="#CCCCCC" stroke="black" stroke-width="0.456136"/>
<path d="M105.255 127.484L108.258 129.909L110.81 131.988L113.213 133.72L115.165 134.412L116.967 135.105L119.369 134.759L120.87 132.68L121.321 130.948L121.471 128.87L121.021 124.02L120.42 121.249L119.819 118.477L118.919 115.359V120.556L119.669 125.059L119.819 128.523L119.519 129.909L118.018 131.988H116.066L114.864 131.295L113.513 130.602L112.162 129.563L110.51 127.831L108.708 126.098L106.756 124.02L105.855 126.098L105.255 127.484Z" fill="#4C4C4C" stroke="black" stroke-width="0.456136"/>
<path d="M134.835 115.359H132.583V130.948H133.334V120.556H134.835V115.359Z" fill="#CCCCCC"/>
<path d="M97.748 25.9844H118.919V29.4486H97.748V25.9844Z" fill="#B2B2AA" stroke="black" stroke-width="0.456136"/>
<path d="M99.2495 25.9787L97.748 22.5145V4.84702L99.2495 1.38281H115.916V25.9787H99.2495Z" fill="#7F7F7F"/>
<path d="M99.2495 22.519L97.748 20.0941V7.2765L99.2495 4.85156H115.916V22.519H99.2495Z" fill="#B2B2B2"/>
<path d="M99.2495 17.3217L97.748 16.2824V11.0861L99.2495 10.0469H115.916V17.3217H99.2495Z" fill="#E5E5E5"/>
<path d="M99.2495 25.9787L97.748 22.5145V4.84702L99.2495 1.38281H115.916V25.9787H99.2495Z" stroke="black" stroke-width="0.456136"/>
<path d="M102.252 25.9787V1.38281" stroke="black" stroke-width="0.456136"/>
<path d="M112.763 25.9787V1.38281" stroke="black" stroke-width="0.456136"/>
<path d="M103.754 1.38281H111.261V15.586H103.754V1.38281Z" fill="#4C4C4C" stroke="black" stroke-width="0.456136"/>
<path d="M104.505 57.5078H119.67V83.8358H104.505V57.5078Z" fill="black"/>
<path d="M129.58 78.6406H143.094V85.569H129.58V78.6406Z" fill="black"/>
<path d="M129.579 67.8984H143.093V74.8268H129.579V67.8984Z" fill="black"/>
<path d="M121.171 71.3594H129.579V89.0268H121.171V71.3594Z" fill="#BFBFBF" stroke="black" stroke-width="0.456136"/>
<path d="M121.171 89.0312H129.579V94.2276H121.171V89.0312Z" fill="#999999" stroke="black" stroke-width="0.456136"/>
<path d="M99.249 60.9688H144.594V67.8972H99.249V60.9688Z" fill="#99998F" stroke="black" stroke-width="0.456136"/>
<path d="M124.925 8.66406L131.081 50.5809H134.084L127.177 8.66406H124.925Z" fill="#7F7F7F" stroke="black" stroke-width="0.456136"/>
<path d="M99.249 55.7733H144.594V52.3091L124.925 43.3021L123.423 29.4453H120.42L118.919 43.3021L99.249 52.3091V55.7733Z" fill="#99998F" stroke="black" stroke-width="0.456136"/>
<path d="M119.67 43.3047H124.174V52.3116H119.67V43.3047Z" fill="#CCCCCC" stroke="black" stroke-width="0.456136"/>
<path d="M120.42 19.0547H123.423V39.8399H120.42V19.0547Z" fill="#B2B2B2" stroke="black" stroke-width="0.456136"/>
<path d="M120.42 31.1797H123.423" stroke="black" stroke-width="0.456136"/>
<path d="M120.42 24.25H123.423" stroke="black" stroke-width="0.456136"/>
</svg>
