<svg width="150" height="150" viewBox="0 0 150 150" fill="none" xmlns="http://www.w3.org/2000/svg">
<g clip-path="url(#clip0_2109_222763)">
<path d="M0 0H150V148.799H0V0Z" fill="#7F7F7F" stroke="black" stroke-width="0.492778"/>
<path d="M37.6016 53.4531H62.6689V60.36H37.6016V53.4531Z" stroke="black" stroke-width="0.492778"/>
<path d="M37.6016 61.5625H62.6689V72.073H37.6016V61.5625Z" stroke="black" stroke-width="0.492778"/>
<path d="M12.5332 69.6719H24.6626V81.3836H12.5332V69.6719Z" fill="#333333" stroke="black" stroke-width="0.492778"/>
<path d="M31.1318 4.50781H137.466V10.3637H31.1318V4.50781Z" fill="black" stroke="black" stroke-width="0.492778"/>
<path d="M31.1318 11.4141H137.466V17.2699H31.1318V11.4141Z" fill="black" stroke="black" stroke-width="0.492778"/>
<path d="M31.1318 131.234H137.466V137.09H31.1318V131.234Z" fill="black" stroke="black" stroke-width="0.492778"/>
<path d="M31.1318 138.141H137.466V143.996H31.1318V138.141Z" fill="black" stroke="black" stroke-width="0.492778"/>
<path d="M31.1318 117.266H137.466V123.272H31.1318V117.266Z" fill="black" stroke="black" stroke-width="0.492778"/>
<path d="M31.1318 124.328H137.466V130.184H31.1318V124.328Z" fill="black" stroke="black" stroke-width="0.492778"/>
<path d="M40.4316 54.5078H59.4343V59.1625H40.4316V54.5078Z" fill="black"/>
<path d="M43.666 55.7031H56.1997" stroke="white" stroke-width="0.492778"/>
<path d="M43.666 56.9062H49.7307" stroke="white" stroke-width="0.492778"/>
<path d="M18.5979 80.1824C21.9473 80.1824 24.6626 77.8295 24.6626 74.9271C24.6626 72.0247 21.9473 69.6719 18.5979 69.6719C15.2485 69.6719 12.5332 72.0247 12.5332 74.9271C12.5332 77.8295 15.2485 80.1824 18.5979 80.1824Z" fill="#CCCCCC" stroke="black" stroke-width="0.492778"/>
<path d="M0 148.797H150V149.998H0V148.797Z" fill="black" stroke="black" stroke-width="0.492778"/>
<path d="M34.3662 131.234V137.09" stroke="#7F7F7F" stroke-width="0.492778"/>
<path d="M37.6016 131.234V137.09" stroke="#7F7F7F" stroke-width="0.492778"/>
<path d="M40.4316 131.234V137.09" stroke="#7F7F7F" stroke-width="0.492778"/>
<path d="M43.666 131.234V137.09" stroke="#7F7F7F" stroke-width="0.492778"/>
<path d="M46.4961 131.234V137.09" stroke="#7F7F7F" stroke-width="0.492778"/>
<path d="M49.7305 131.234V137.09" stroke="#7F7F7F" stroke-width="0.492778"/>
<path d="M52.9648 131.234V137.09" stroke="#7F7F7F" stroke-width="0.492778"/>
<path d="M56.1992 131.234V137.09" stroke="#7F7F7F" stroke-width="0.492778"/>
<path d="M59.0293 131.234V137.09" stroke="#7F7F7F" stroke-width="0.492778"/>
<path d="M62.2637 131.234V137.09" stroke="#7F7F7F" stroke-width="0.492778"/>
<path d="M65.0947 131.234V137.09" stroke="#7F7F7F" stroke-width="0.492778"/>
<path d="M68.3291 131.234V137.09" stroke="#7F7F7F" stroke-width="0.492778"/>
<path d="M71.1592 131.234V137.09" stroke="#7F7F7F" stroke-width="0.492778"/>
<path d="M74.3936 131.234V137.09" stroke="#7F7F7F" stroke-width="0.492778"/>
<path d="M77.6279 131.234V137.09" stroke="#7F7F7F" stroke-width="0.492778"/>
<path d="M80.8623 131.234V137.09" stroke="#7F7F7F" stroke-width="0.492778"/>
<path d="M84.0967 131.234V137.09" stroke="#7F7F7F" stroke-width="0.492778"/>
<path d="M87.332 131.234V137.09" stroke="#7F7F7F" stroke-width="0.492778"/>
<path d="M90.1621 131.234V137.09" stroke="#7F7F7F" stroke-width="0.492778"/>
<path d="M93.3965 131.234V137.09" stroke="#7F7F7F" stroke-width="0.492778"/>
<path d="M96.2266 131.234V137.09" stroke="#7F7F7F" stroke-width="0.492778"/>
<path d="M99.4609 131.234V137.09" stroke="#7F7F7F" stroke-width="0.492778"/>
<path d="M102.695 131.234V137.09" stroke="#7F7F7F" stroke-width="0.492778"/>
<path d="M105.93 131.234V137.09" stroke="#7F7F7F" stroke-width="0.492778"/>
<path d="M109.164 131.234V137.09" stroke="#7F7F7F" stroke-width="0.492778"/>
<path d="M111.994 131.234V137.09" stroke="#7F7F7F" stroke-width="0.492778"/>
<path d="M115.229 131.234V137.09" stroke="#7F7F7F" stroke-width="0.492778"/>
<path d="M118.464 131.234V137.09" stroke="#7F7F7F" stroke-width="0.492778"/>
<path d="M121.294 131.234V137.09" stroke="#7F7F7F" stroke-width="0.492778"/>
<path d="M124.528 131.234V137.09" stroke="#7F7F7F" stroke-width="0.492778"/>
<path d="M127.763 131.234V137.09" stroke="#7F7F7F" stroke-width="0.492778"/>
<path d="M130.997 131.234V137.09" stroke="#7F7F7F" stroke-width="0.492778"/>
<path d="M134.636 131.234V137.09" stroke="#7F7F7F" stroke-width="0.492778"/>
<path d="M34.3662 138.141V143.996" stroke="#7F7F7F" stroke-width="0.492778"/>
<path d="M37.6016 138.141V143.996" stroke="#7F7F7F" stroke-width="0.492778"/>
<path d="M40.4316 138.141V143.996" stroke="#7F7F7F" stroke-width="0.492778"/>
<path d="M43.666 138.141V143.996" stroke="#7F7F7F" stroke-width="0.492778"/>
<path d="M46.4961 138.141V143.996" stroke="#7F7F7F" stroke-width="0.492778"/>
<path d="M49.7305 138.141V143.996" stroke="#7F7F7F" stroke-width="0.492778"/>
<path d="M52.9648 138.141V143.996" stroke="#7F7F7F" stroke-width="0.492778"/>
<path d="M56.1992 138.141V143.996" stroke="#7F7F7F" stroke-width="0.492778"/>
<path d="M59.0293 138.141V143.996" stroke="#7F7F7F" stroke-width="0.492778"/>
<path d="M62.2637 138.141V143.996" stroke="#7F7F7F" stroke-width="0.492778"/>
<path d="M65.0947 138.141V143.996" stroke="#7F7F7F" stroke-width="0.492778"/>
<path d="M68.3291 138.141V143.996" stroke="#7F7F7F" stroke-width="0.492778"/>
<path d="M71.1592 138.141V143.996" stroke="#7F7F7F" stroke-width="0.492778"/>
<path d="M74.3936 138.141V143.996" stroke="#7F7F7F" stroke-width="0.492778"/>
<path d="M77.6279 138.141V143.996" stroke="#7F7F7F" stroke-width="0.492778"/>
<path d="M80.8623 138.141V143.996" stroke="#7F7F7F" stroke-width="0.492778"/>
<path d="M84.0967 138.141V143.996" stroke="#7F7F7F" stroke-width="0.492778"/>
<path d="M87.332 138.141V143.996" stroke="#7F7F7F" stroke-width="0.492778"/>
<path d="M90.1621 138.141V143.996" stroke="#7F7F7F" stroke-width="0.492778"/>
<path d="M93.3965 138.141V143.996" stroke="#7F7F7F" stroke-width="0.492778"/>
<path d="M96.2266 138.141V143.996" stroke="#7F7F7F" stroke-width="0.492778"/>
<path d="M99.4609 138.141V143.996" stroke="#7F7F7F" stroke-width="0.492778"/>
<path d="M102.695 138.141V143.996" stroke="#7F7F7F" stroke-width="0.492778"/>
<path d="M105.93 138.141V143.996" stroke="#7F7F7F" stroke-width="0.492778"/>
<path d="M109.164 138.141V143.996" stroke="#7F7F7F" stroke-width="0.492778"/>
<path d="M111.994 138.141V143.996" stroke="#7F7F7F" stroke-width="0.492778"/>
<path d="M115.229 138.141V143.996" stroke="#7F7F7F" stroke-width="0.492778"/>
<path d="M118.464 138.141V143.996" stroke="#7F7F7F" stroke-width="0.492778"/>
<path d="M121.294 138.141V143.996" stroke="#7F7F7F" stroke-width="0.492778"/>
<path d="M124.528 138.141V143.996" stroke="#7F7F7F" stroke-width="0.492778"/>
<path d="M127.763 138.141V143.996" stroke="#7F7F7F" stroke-width="0.492778"/>
<path d="M130.997 138.141V143.996" stroke="#7F7F7F" stroke-width="0.492778"/>
<path d="M134.636 138.141V143.996" stroke="#7F7F7F" stroke-width="0.492778"/>
<path d="M34.3662 117.266V123.272" stroke="#7F7F7F" stroke-width="0.492778"/>
<path d="M37.6016 117.266V123.272" stroke="#7F7F7F" stroke-width="0.492778"/>
<path d="M40.4316 117.266V123.272" stroke="#7F7F7F" stroke-width="0.492778"/>
<path d="M43.666 117.266V123.272" stroke="#7F7F7F" stroke-width="0.492778"/>
<path d="M46.4961 117.266V123.272" stroke="#7F7F7F" stroke-width="0.492778"/>
<path d="M49.7305 117.266V123.272" stroke="#7F7F7F" stroke-width="0.492778"/>
<path d="M52.9648 117.266V123.272" stroke="#7F7F7F" stroke-width="0.492778"/>
<path d="M56.1992 117.266V123.272" stroke="#7F7F7F" stroke-width="0.492778"/>
<path d="M59.0293 117.266V123.272" stroke="#7F7F7F" stroke-width="0.492778"/>
<path d="M62.2637 117.266V123.272" stroke="#7F7F7F" stroke-width="0.492778"/>
<path d="M65.0947 117.266V123.272" stroke="#7F7F7F" stroke-width="0.492778"/>
<path d="M68.3291 117.266V123.272" stroke="#7F7F7F" stroke-width="0.492778"/>
<path d="M71.1592 117.266V123.272" stroke="#7F7F7F" stroke-width="0.492778"/>
<path d="M74.3936 117.266V123.272" stroke="#7F7F7F" stroke-width="0.492778"/>
<path d="M77.6279 117.266V123.272" stroke="#7F7F7F" stroke-width="0.492778"/>
<path d="M80.8623 117.266V123.272" stroke="#7F7F7F" stroke-width="0.492778"/>
<path d="M84.0967 117.266V123.272" stroke="#7F7F7F" stroke-width="0.492778"/>
<path d="M87.332 117.266V123.272" stroke="#7F7F7F" stroke-width="0.492778"/>
<path d="M90.1621 117.266V123.272" stroke="#7F7F7F" stroke-width="0.492778"/>
<path d="M93.3965 117.266V123.272" stroke="#7F7F7F" stroke-width="0.492778"/>
<path d="M96.2266 117.266V123.272" stroke="#7F7F7F" stroke-width="0.492778"/>
<path d="M99.4609 117.266V123.272" stroke="#7F7F7F" stroke-width="0.492778"/>
<path d="M102.695 117.266V123.272" stroke="#7F7F7F" stroke-width="0.492778"/>
<path d="M105.93 117.266V123.272" stroke="#7F7F7F" stroke-width="0.492778"/>
<path d="M109.164 117.266V123.272" stroke="#7F7F7F" stroke-width="0.492778"/>
<path d="M111.994 117.266V123.272" stroke="#7F7F7F" stroke-width="0.492778"/>
<path d="M115.229 117.266V123.272" stroke="#7F7F7F" stroke-width="0.492778"/>
<path d="M118.464 117.266V123.272" stroke="#7F7F7F" stroke-width="0.492778"/>
<path d="M121.294 117.266V123.272" stroke="#7F7F7F" stroke-width="0.492778"/>
<path d="M124.528 117.266V123.272" stroke="#7F7F7F" stroke-width="0.492778"/>
<path d="M127.763 117.266V123.272" stroke="#7F7F7F" stroke-width="0.492778"/>
<path d="M130.997 117.266V123.272" stroke="#7F7F7F" stroke-width="0.492778"/>
<path d="M134.636 117.266V123.272" stroke="#7F7F7F" stroke-width="0.492778"/>
<path d="M34.3662 124.328V130.184" stroke="#7F7F7F" stroke-width="0.492778"/>
<path d="M37.6016 124.328V130.184" stroke="#7F7F7F" stroke-width="0.492778"/>
<path d="M40.4316 124.328V130.184" stroke="#7F7F7F" stroke-width="0.492778"/>
<path d="M43.666 124.328V130.184" stroke="#7F7F7F" stroke-width="0.492778"/>
<path d="M46.4961 124.328V130.184" stroke="#7F7F7F" stroke-width="0.492778"/>
<path d="M49.7305 124.328V130.184" stroke="#7F7F7F" stroke-width="0.492778"/>
<path d="M52.9648 124.328V130.184" stroke="#7F7F7F" stroke-width="0.492778"/>
<path d="M56.1992 124.328V130.184" stroke="#7F7F7F" stroke-width="0.492778"/>
<path d="M59.0293 124.328V130.184" stroke="#7F7F7F" stroke-width="0.492778"/>
<path d="M62.2637 124.328V130.184" stroke="#7F7F7F" stroke-width="0.492778"/>
<path d="M65.0947 124.328V130.184" stroke="#7F7F7F" stroke-width="0.492778"/>
<path d="M68.3291 124.328V130.184" stroke="#7F7F7F" stroke-width="0.492778"/>
<path d="M71.1592 124.328V130.184" stroke="#7F7F7F" stroke-width="0.492778"/>
<path d="M74.3936 124.328V130.184" stroke="#7F7F7F" stroke-width="0.492778"/>
<path d="M77.6279 124.328V130.184" stroke="#7F7F7F" stroke-width="0.492778"/>
<path d="M80.8623 124.328V130.184" stroke="#7F7F7F" stroke-width="0.492778"/>
<path d="M84.0967 124.328V130.184" stroke="#7F7F7F" stroke-width="0.492778"/>
<path d="M87.332 124.328V130.184" stroke="#7F7F7F" stroke-width="0.492778"/>
<path d="M90.1621 124.328V130.184" stroke="#7F7F7F" stroke-width="0.492778"/>
<path d="M93.3965 124.328V130.184" stroke="#7F7F7F" stroke-width="0.492778"/>
<path d="M96.2266 124.328V130.184" stroke="#7F7F7F" stroke-width="0.492778"/>
<path d="M99.4609 124.328V130.184" stroke="#7F7F7F" stroke-width="0.492778"/>
<path d="M102.695 124.328V130.184" stroke="#7F7F7F" stroke-width="0.492778"/>
<path d="M105.93 124.328V130.184" stroke="#7F7F7F" stroke-width="0.492778"/>
<path d="M109.164 124.328V130.184" stroke="#7F7F7F" stroke-width="0.492778"/>
<path d="M111.994 124.328V130.184" stroke="#7F7F7F" stroke-width="0.492778"/>
<path d="M115.229 124.328V130.184" stroke="#7F7F7F" stroke-width="0.492778"/>
<path d="M118.464 124.328V130.184" stroke="#7F7F7F" stroke-width="0.492778"/>
<path d="M121.294 124.328V130.184" stroke="#7F7F7F" stroke-width="0.492778"/>
<path d="M124.528 124.328V130.184" stroke="#7F7F7F" stroke-width="0.492778"/>
<path d="M127.763 124.328V130.184" stroke="#7F7F7F" stroke-width="0.492778"/>
<path d="M130.997 124.328V130.184" stroke="#7F7F7F" stroke-width="0.492778"/>
<path d="M134.636 124.328V130.184" stroke="#7F7F7F" stroke-width="0.492778"/>
<path d="M34.3662 4.50781V10.3637" stroke="#7F7F7F" stroke-width="0.492778"/>
<path d="M37.6016 4.50781V10.3637" stroke="#7F7F7F" stroke-width="0.492778"/>
<path d="M40.4316 4.50781V10.3637" stroke="#7F7F7F" stroke-width="0.492778"/>
<path d="M43.666 4.50781V10.3637" stroke="#7F7F7F" stroke-width="0.492778"/>
<path d="M46.4961 4.50781V10.3637" stroke="#7F7F7F" stroke-width="0.492778"/>
<path d="M49.7305 4.50781V10.3637" stroke="#7F7F7F" stroke-width="0.492778"/>
<path d="M52.9648 4.50781V10.3637" stroke="#7F7F7F" stroke-width="0.492778"/>
<path d="M56.1992 4.50781V10.3637" stroke="#7F7F7F" stroke-width="0.492778"/>
<path d="M59.0293 4.50781V10.3637" stroke="#7F7F7F" stroke-width="0.492778"/>
<path d="M62.2637 4.50781V10.3637" stroke="#7F7F7F" stroke-width="0.492778"/>
<path d="M65.0947 4.50781V10.3637" stroke="#7F7F7F" stroke-width="0.492778"/>
<path d="M68.3291 4.50781V10.3637" stroke="#7F7F7F" stroke-width="0.492778"/>
<path d="M71.1592 4.50781V10.3637" stroke="#7F7F7F" stroke-width="0.492778"/>
<path d="M74.3936 4.50781V10.3637" stroke="#7F7F7F" stroke-width="0.492778"/>
<path d="M77.6279 4.50781V10.3637" stroke="#7F7F7F" stroke-width="0.492778"/>
<path d="M80.8623 4.50781V10.3637" stroke="#7F7F7F" stroke-width="0.492778"/>
<path d="M84.0967 4.50781V10.3637" stroke="#7F7F7F" stroke-width="0.492778"/>
<path d="M87.332 4.50781V10.3637" stroke="#7F7F7F" stroke-width="0.492778"/>
<path d="M90.1621 4.50781V10.3637" stroke="#7F7F7F" stroke-width="0.492778"/>
<path d="M93.3965 4.50781V10.3637" stroke="#7F7F7F" stroke-width="0.492778"/>
<path d="M96.2266 4.50781V10.3637" stroke="#7F7F7F" stroke-width="0.492778"/>
<path d="M99.4609 4.50781V10.3637" stroke="#7F7F7F" stroke-width="0.492778"/>
<path d="M102.695 4.50781V10.3637" stroke="#7F7F7F" stroke-width="0.492778"/>
<path d="M105.93 4.50781V10.3637" stroke="#7F7F7F" stroke-width="0.492778"/>
<path d="M109.164 4.50781V10.3637" stroke="#7F7F7F" stroke-width="0.492778"/>
<path d="M111.994 4.50781V10.3637" stroke="#7F7F7F" stroke-width="0.492778"/>
<path d="M115.229 4.50781V10.3637" stroke="#7F7F7F" stroke-width="0.492778"/>
<path d="M118.464 4.50781V10.3637" stroke="#7F7F7F" stroke-width="0.492778"/>
<path d="M121.294 4.50781V10.3637" stroke="#7F7F7F" stroke-width="0.492778"/>
<path d="M124.528 4.50781V10.3637" stroke="#7F7F7F" stroke-width="0.492778"/>
<path d="M127.763 4.50781V10.3637" stroke="#7F7F7F" stroke-width="0.492778"/>
<path d="M130.997 4.50781V10.3637" stroke="#7F7F7F" stroke-width="0.492778"/>
<path d="M134.636 4.50781V10.3637" stroke="#7F7F7F" stroke-width="0.492778"/>
<path d="M34.3662 11.4141V17.2699" stroke="#7F7F7F" stroke-width="0.492778"/>
<path d="M37.6016 11.4141V17.2699" stroke="#7F7F7F" stroke-width="0.492778"/>
<path d="M40.4316 11.4141V17.2699" stroke="#7F7F7F" stroke-width="0.492778"/>
<path d="M43.666 11.4141V17.2699" stroke="#7F7F7F" stroke-width="0.492778"/>
<path d="M46.4961 11.4141V17.2699" stroke="#7F7F7F" stroke-width="0.492778"/>
<path d="M49.7305 11.4141V17.2699" stroke="#7F7F7F" stroke-width="0.492778"/>
<path d="M52.9648 11.4141V17.2699" stroke="#7F7F7F" stroke-width="0.492778"/>
<path d="M56.1992 11.4141V17.2699" stroke="#7F7F7F" stroke-width="0.492778"/>
<path d="M59.0293 11.4141V17.2699" stroke="#7F7F7F" stroke-width="0.492778"/>
<path d="M62.2637 11.4141V17.2699" stroke="#7F7F7F" stroke-width="0.492778"/>
<path d="M65.0947 11.4141V17.2699" stroke="#7F7F7F" stroke-width="0.492778"/>
<path d="M68.3291 11.4141V17.2699" stroke="#7F7F7F" stroke-width="0.492778"/>
<path d="M71.1592 11.4141V17.2699" stroke="#7F7F7F" stroke-width="0.492778"/>
<path d="M74.3936 11.4141V17.2699" stroke="#7F7F7F" stroke-width="0.492778"/>
<path d="M77.6279 11.4141V17.2699" stroke="#7F7F7F" stroke-width="0.492778"/>
<path d="M80.8623 11.4141V17.2699" stroke="#7F7F7F" stroke-width="0.492778"/>
<path d="M84.0967 11.4141V17.2699" stroke="#7F7F7F" stroke-width="0.492778"/>
<path d="M87.332 11.4141V17.2699" stroke="#7F7F7F" stroke-width="0.492778"/>
<path d="M90.1621 11.4141V17.2699" stroke="#7F7F7F" stroke-width="0.492778"/>
<path d="M93.3965 11.4141V17.2699" stroke="#7F7F7F" stroke-width="0.492778"/>
<path d="M96.2266 11.4141V17.2699" stroke="#7F7F7F" stroke-width="0.492778"/>
<path d="M99.4609 11.4141V17.2699" stroke="#7F7F7F" stroke-width="0.492778"/>
<path d="M102.695 11.4141V17.2699" stroke="#7F7F7F" stroke-width="0.492778"/>
<path d="M105.93 11.4141V17.2699" stroke="#7F7F7F" stroke-width="0.492778"/>
<path d="M109.164 11.4141V17.2699" stroke="#7F7F7F" stroke-width="0.492778"/>
<path d="M111.994 11.4141V17.2699" stroke="#7F7F7F" stroke-width="0.492778"/>
<path d="M115.229 11.4141V17.2699" stroke="#7F7F7F" stroke-width="0.492778"/>
<path d="M118.464 11.4141V17.2699" stroke="#7F7F7F" stroke-width="0.492778"/>
<path d="M121.294 11.4141V17.2699" stroke="#7F7F7F" stroke-width="0.492778"/>
<path d="M124.528 11.4141V17.2699" stroke="#7F7F7F" stroke-width="0.492778"/>
<path d="M127.763 11.4141V17.2699" stroke="#7F7F7F" stroke-width="0.492778"/>
<path d="M130.997 11.4141V17.2699" stroke="#7F7F7F" stroke-width="0.492778"/>
<path d="M134.636 11.4141V17.2699" stroke="#7F7F7F" stroke-width="0.492778"/>
</g>
<defs>
<clipPath id="clip0_2109_222763">
<rect width="150" height="150" fill="white"/>
</clipPath>
</defs>
</svg>
