<svg width="150" height="150" viewBox="0 0 150 150" fill="none" xmlns="http://www.w3.org/2000/svg">
<g clip-path="url(#clip0_2109_221859)">
<path d="M103.846 149.402L84.4913 149.852H64.3921L45.7816 149.402L28.66 148.2L14.5161 146.399L4.09429 144.297L0 141.894V19.6719H150V141.894L144.789 144.297L135.112 146.399L120.968 148.2L103.846 149.402Z" fill="#657FB2"/>
<path d="M101.613 149.402L83.7465 149.852H65.8805L48.0145 149.402L33.1262 148.2L19.7267 146.699L10.7936 144.897L6.32715 142.795V19.6719H143.3V142.795L138.833 144.897L129.9 146.699L116.501 148.2L101.613 149.402Z" fill="#6B85B8"/>
<path d="M98.6353 149.402L83.0025 149.852H66.6254L50.9926 149.402L36.8487 148.501L24.938 146.999L16.7494 145.197L13.0273 143.396V19.6719H136.601V143.396L132.134 145.197L123.945 146.999L112.779 148.501L98.6353 149.402Z" fill="#708ABD"/>
<path d="M96.4015 149.402L82.2576 149.852H67.3692L53.2253 149.402L40.5702 148.501L30.8928 147.299L23.4486 145.798L19.7266 144.297V19.6719H129.9V144.297L126.178 145.798L118.734 147.299L108.312 148.801L96.4015 149.402Z" fill="#758FC2"/>
<path d="M93.4243 149.402L81.5136 149.852H68.1141L56.2034 149.402L45.0372 148.801L36.1042 147.6L29.4044 146.399L26.4268 144.897V19.6719H123.201V144.897L120.223 146.399L113.524 147.6L104.591 148.801L93.4243 149.402Z" fill="#7A94C7"/>
<path d="M91.1915 149.702L80.0252 149.852H69.6034L58.4371 149.702L48.7597 148.801L41.3155 148.2L35.3602 146.999L33.127 145.798V19.6719H116.502V145.798L113.524 146.999L108.313 148.2L100.124 149.101L91.1915 149.702Z" fill="#7F99CC"/>
<path d="M88.2133 149.702L79.2803 149.852H70.3473L61.4143 149.702L53.2257 149.101L46.5259 148.501L42.0594 147.6L39.8262 146.699V19.6719H109.801V146.699L107.568 147.6L103.102 148.501L96.4019 149.101L88.2133 149.702Z" fill="#849ED1"/>
<path d="M85.9805 149.702L78.5363 149.852H71.0921L63.648 149.702L57.6926 149.101L51.7373 148.801L48.0152 148.2L46.5264 147.299V19.6719H103.102V147.299L101.613 148.2L97.8911 148.801L91.9358 149.402L85.9805 149.702Z" fill="#89A3D6"/>
<path d="M83.0023 149.702L77.7913 149.852H71.836L66.6251 149.702L61.4142 149.402L57.6921 149.101L54.7144 148.801L53.2256 148.2V19.6719H96.4018V148.2L94.9129 148.801L91.9353 149.101L88.2132 149.402L83.0023 149.702Z" fill="#8EA8DB"/>
<path d="M80.7695 149.702L77.0474 149.852H72.5809L68.8588 149.702H65.8811L62.9034 149.402L60.6702 149.101H59.9258V19.6719H89.7025V149.101H88.958L86.7248 149.402L83.7471 149.702H80.7695Z" fill="#93ADE0"/>
<path d="M77.7913 149.702L75.558 149.852H73.3248L71.0915 149.702L69.6027 149.852L68.1138 149.702H66.625V19.6719H83.0022V149.702H82.2578H81.5133L80.0245 149.852L77.7913 149.702Z" fill="#98B2E5"/>
<path d="M103.846 149.402L84.4913 149.852H64.3921L45.7816 149.402L28.6601 148.2L14.5161 146.399L4.09429 144.296L0 141.894V19.6719H150V141.894L144.789 144.296L135.112 146.399L120.968 148.2L103.846 149.402Z" stroke="black" stroke-width="0.472809"/>
<path d="M74.8139 30.1811C116.132 30.1811 149.628 26.0132 149.628 20.8718C149.628 15.7304 116.132 11.5625 74.8139 11.5625C33.4953 11.5625 0 15.7304 0 20.8718C0 26.0132 33.4953 30.1811 74.8139 30.1811Z" fill="#98B2E5" stroke="black" stroke-width="0.472809"/>
<path d="M150 54.2056L144.789 56.608L135.112 58.7101L120.968 60.5119L103.846 61.7131L84.4913 62.3137H64.3921L45.7816 61.7131L28.66 60.5119L14.5161 58.7101L4.09429 56.608L0 54.2056L4.09429 53.3047L14.5161 55.4068L28.66 56.9083L45.7816 58.4098L64.3921 59.0104H84.4913L103.846 58.4098L120.968 57.2086L135.112 55.4068L144.789 53.3047L150 54.2056Z" fill="#324C7F"/>
<path d="M150 119.971L144.789 122.374L135.112 124.476L120.968 126.278L103.846 127.479L84.4913 128.079H64.3921L45.7816 127.479L28.66 126.278L14.5161 124.476L4.09429 122.374L0 119.971L4.09429 119.07L14.5161 121.172L28.66 122.974L45.7816 124.175L64.3921 124.776H84.4913L103.846 124.175L120.968 122.974L135.112 121.172L144.789 119.07L150 119.971Z" fill="#324C7F"/>
<path d="M150 61.4087L144.789 63.8111L135.112 65.9132L120.968 67.715L103.846 68.9162L84.4913 69.5168H65.1365L45.7816 68.9162L28.66 67.715L14.5161 65.9132L4.83871 63.8111L0 61.4087L4.83871 60.5078L14.5161 62.6099L28.66 64.1114L45.7816 65.6129L65.1365 66.2135H84.4913L103.846 65.6129L120.968 64.4117L135.112 62.6099L144.789 60.5078L150 61.4087Z" fill="#324C7F"/>
<path d="M150 68.92L144.789 71.0221L135.112 73.4245L120.968 74.926L103.846 76.1272L84.4913 76.7278H65.1365L45.7816 76.1272L28.66 74.926L14.5161 73.4245L4.83871 71.0221L0 68.92L4.83871 67.7188L14.5161 69.8209L28.66 71.6227L45.7816 72.8239L65.1365 73.4245H84.4913L103.846 72.8239L120.968 71.6227L135.112 69.8209L144.789 67.7188L150 68.92Z" fill="#324C7F"/>
<path d="M150 76.1231L144.789 78.5255L135.112 80.6276L120.968 82.4294L103.846 83.3303L84.4913 84.2312H65.1365L45.7816 83.3303L28.66 82.1291L14.5161 80.6276L4.83871 78.5255L0 76.1231L4.83871 74.9219L14.5161 77.3243L28.66 78.8258L45.7816 80.027L65.1365 80.9279H84.4913L103.846 80.027L120.968 78.8258L135.112 77.3243L144.789 74.9219L150 76.1231Z" fill="#324C7F"/>
<path d="M150 83.3306L144.789 85.733L135.112 87.8351L120.968 89.6369L103.846 90.8381L84.4913 91.4387H65.1365L45.7816 90.8381L28.66 89.6369L14.5161 87.8351L4.83871 85.733L0 83.3306L4.83871 82.4297L14.5161 84.5318L28.66 86.3336L45.7816 87.5348L65.1365 88.1354H84.4913L103.846 87.5348L120.968 86.3336L135.112 84.5318L144.789 82.4297L150 83.3306Z" fill="#324C7F"/>
<path d="M150 90.8418L144.789 92.9439L135.112 95.3463L120.968 96.8478L103.846 98.049L84.4913 98.6496H65.1365L45.7816 98.049L28.66 96.8478L14.5161 95.3463L4.83871 92.9439L0 90.8418L4.83871 89.6406L14.5161 91.7427L28.66 93.5445L45.7816 94.7457L65.1365 95.3463H84.4913L103.846 94.7457L120.968 93.5445L135.112 91.7427L144.789 89.6406L150 90.8418Z" fill="#324C7F"/>
<path d="M150 98.0493L144.789 100.452L135.112 102.554L120.968 104.356L103.846 105.557L84.4913 106.157H65.1365L45.7816 105.557L28.66 104.356L14.5161 102.554L4.83871 100.452L0 98.0493L4.83871 97.1484L14.5161 99.2505L28.66 100.752L45.7816 102.254L65.1365 102.854H84.4913L103.846 102.254L120.968 101.052L135.112 99.2505L144.789 97.1484L150 98.0493Z" fill="#324C7F"/>
<path d="M150 105.252L144.789 107.655L135.112 109.757L120.968 111.559L103.846 112.76L84.4913 113.361H65.1365L45.7816 112.76L28.66 111.559L14.5161 109.757L4.83871 107.655L0 105.252L4.83871 104.352L14.5161 106.454L28.66 108.255L45.7816 109.457L65.1365 110.057H84.4913L103.846 109.457L120.968 108.255L135.112 106.454L144.789 104.352L150 105.252Z" fill="#324C7F"/>
<path d="M150 112.764L144.789 114.866L135.112 117.268L120.968 118.77L103.846 119.971L84.4913 120.872H65.1365L45.7816 119.971L28.66 118.77L14.5161 117.268L4.83871 114.866L0 112.764L4.83871 111.562L14.5161 113.965L28.66 115.466L45.7816 116.668L65.1365 117.268H84.4913L103.846 116.668L120.968 115.466L135.112 113.965L144.789 111.562L150 112.764Z" fill="#324C7F"/>
<path d="M4.09473 119.07L14.5166 121.172L28.6605 122.974L45.7821 124.175L64.3925 124.776H84.4918L103.847 124.175L120.968 122.974L135.112 121.172L144.79 119.07" stroke="black" stroke-width="0.472809"/>
<path d="M4.09473 53.3047L14.5166 55.4068L28.6605 56.9083L45.7821 58.4098L64.3925 59.0104H84.4918L103.847 58.4098L120.968 57.2086L135.112 55.4068L144.79 53.3047" stroke="black" stroke-width="0.472809"/>
<path d="M4.83887 60.5078L14.5163 62.6099L28.6602 64.1114L45.7818 65.6129L65.1366 66.2135H84.4915L103.846 65.6129L120.968 64.4117L135.112 62.6099L144.789 60.5078" stroke="black" stroke-width="0.472809"/>
<path d="M4.83887 67.7188L14.5163 69.8209L28.6602 71.6227L45.7818 72.8239L65.1366 73.4245H84.4915L103.846 72.8239L120.968 71.6227L135.112 69.8209L144.789 67.7188" stroke="black" stroke-width="0.472809"/>
<path d="M4.83887 74.9219L14.5163 77.3243L28.6602 78.8258L45.7818 80.027L65.1366 80.9279H84.4915L103.846 80.027L120.968 78.8258L135.112 77.3243L144.789 74.9219" stroke="black" stroke-width="0.472809"/>
<path d="M4.83887 82.4297L14.5163 84.5318L28.6602 86.3336L45.7818 87.5348L65.1366 88.1354H84.4915L103.846 87.5348L120.968 86.3336L135.112 84.5318L144.789 82.4297" stroke="black" stroke-width="0.472809"/>
<path d="M4.83887 89.6406L14.5163 91.7427L28.6602 93.5445L45.7818 94.7457L65.1366 95.3463H84.4915L103.846 94.7457L120.968 93.5445L135.112 91.7427L144.789 89.6406" stroke="black" stroke-width="0.472809"/>
<path d="M4.83887 97.1484L14.5163 99.2505L28.6602 100.752L45.7818 102.254L65.1366 102.854H84.4915L103.846 102.254L120.968 101.052L135.112 99.2505L144.789 97.1484" stroke="black" stroke-width="0.472809"/>
<path d="M4.83887 104.352L14.5163 106.454L28.6602 108.255L45.7818 109.457L65.1366 110.057H84.4915L103.846 109.457L120.968 108.255L135.112 106.454L144.789 104.352" stroke="black" stroke-width="0.472809"/>
<path d="M4.83887 111.562L14.5163 113.965L28.6602 115.466L45.7818 116.668L65.1366 117.268H84.4915L103.846 116.668L120.968 115.466L135.112 113.965L144.789 111.562" stroke="black" stroke-width="0.472809"/>
<path d="M150 119.969L144.789 122.371L135.112 124.473L120.968 126.275L103.846 127.476L84.4913 128.077H64.3921L45.7816 127.476L28.6601 126.275L14.5161 124.473L4.09429 122.371L0 119.969" stroke="#98B2E5" stroke-width="0.472809"/>
<path d="M150 54.2031L144.789 56.6055L135.112 58.7076L120.968 60.5094L103.846 61.7106L84.4913 62.3112H64.3921L45.7816 61.7106L28.6601 60.5094L14.5161 58.7076L4.09429 56.6055L0 54.2031" stroke="#98B2E5" stroke-width="0.472809"/>
<path d="M150 61.4141L144.789 63.8165L135.112 65.9186L120.968 67.7204L103.846 68.9216L84.4913 69.5222H65.1365L45.7816 68.9216L28.6601 67.7204L14.5161 65.9186L4.83871 63.8165L0 61.4141" stroke="#98B2E5" stroke-width="0.472809"/>
<path d="M150 68.9219L144.789 71.024L135.112 73.4264L120.968 74.9279L103.846 76.1291L84.4913 76.7297H65.1365L45.7816 76.1291L28.6601 74.9279L14.5161 73.4264L4.83871 71.024L0 68.9219" stroke="#98B2E5" stroke-width="0.472809"/>
<path d="M150 76.125L144.789 78.5274L135.112 80.6295L120.968 82.4313L103.846 83.3322L84.4913 84.2331H65.1365L45.7816 83.3322L28.6601 82.131L14.5161 80.6295L4.83871 78.5274L0 76.125" stroke="#98B2E5" stroke-width="0.472809"/>
<path d="M150 83.3359L144.789 85.7383L135.112 87.8404L120.968 89.6422L103.846 90.8434L84.4913 91.444H65.1365L45.7816 90.8434L28.6601 89.6422L14.5161 87.8404L4.83871 85.7383L0 83.3359" stroke="#98B2E5" stroke-width="0.472809"/>
<path d="M150 90.8438L144.789 92.9459L135.112 95.3483L120.968 96.8498L103.846 98.051L84.4913 98.6516H65.1365L45.7816 98.051L28.6601 96.8498L14.5161 95.3483L4.83871 92.9459L0 90.8438" stroke="#98B2E5" stroke-width="0.472809"/>
<path d="M150 98.0469L144.789 100.449L135.112 102.551L120.968 104.353L103.846 105.554L84.4913 106.155H65.1365L45.7816 105.554L28.6601 104.353L14.5161 102.551L4.83871 100.449L0 98.0469" stroke="#98B2E5" stroke-width="0.472809"/>
<path d="M150 105.258L144.789 107.66L135.112 109.762L120.968 111.564L103.846 112.765L84.4913 113.366H65.1365L45.7816 112.765L28.6601 111.564L14.5161 109.762L4.83871 107.66L0 105.258" stroke="#98B2E5" stroke-width="0.472809"/>
<path d="M150 112.766L144.789 114.868L135.112 117.27L120.968 118.772L103.846 119.973L84.4913 120.874H65.1365L45.7816 119.973L28.6601 118.772L14.5161 117.27L4.83871 114.868L0 112.766" stroke="#98B2E5" stroke-width="0.472809"/>
<path d="M45.0371 21.7686V4.95174L78.5359 1.64844V15.162L45.0371 21.7686Z" fill="#657FB2"/>
<path d="M116.501 28.3779V11.5611L150 8.25781V21.7713L116.501 28.3779Z" fill="#657FB2"/>
<path d="M45.0373 21.7749V4.95805L7.81641 3.15625V18.4716L45.0373 21.7749Z" fill="#7F99CC"/>
<path d="M116.501 28.3808V11.564L78.5361 10.0625V25.0775L116.501 28.3808Z" fill="#7F99CC"/>
<path d="M78.536 1.65165L45.0373 4.95496L7.81641 3.15315L36.8487 0L78.536 1.65165Z" fill="#98B2E5"/>
<path d="M150 8.25493L116.501 11.5582L78.5361 10.0567L108.313 6.45312L150 8.25493Z" fill="#98B2E5"/>
<path d="M7.81641 16.6667V3.15315L36.8487 0L78.536 1.65165V10.0601" stroke="black" stroke-width="0.472809"/>
<path d="M78.5361 10.0567L108.313 6.45312L150 8.25493V21.7684" stroke="black" stroke-width="0.472809"/>
</g>
<defs>
<clipPath id="clip0_2109_221859">
<rect width="150" height="150" fill="white"/>
</clipPath>
</defs>
</svg>
