<svg width="150" height="150" viewBox="0 0 150 150" fill="none" xmlns="http://www.w3.org/2000/svg">
<g clip-path="url(#clip0_2109_223822)">
<path d="M74.8902 23.5736H45.9004L0 0L25.6955 23.5736L0 33.4835V39.4895H28.9898L57.3206 94.7447L51.6105 150H57.3206L74.8902 135.135L92.4597 150H98.1698L92.4597 94.7447L121.01 39.4895H150V33.4835L124.085 23.5736L150 0L103.88 23.5736H74.8902Z" fill="#99CCCC" stroke="black" stroke-width="0.363185"/>
<path fill-rule="evenodd" clip-rule="evenodd" d="M64.7874 123.269H84.9924L74.4507 130.026L64.7874 123.269ZM57.3204 143.99L59.0773 123.269L71.8153 132.279L57.3204 143.99ZM92.0202 143.99L90.7025 123.269L77.9646 132.279L92.0202 143.99ZM65.6659 97.4437H84.114L74.4507 104.651L65.6659 97.4437ZM59.0773 116.363L60.3951 97.4437L71.8153 106.453L59.0773 116.363ZM90.7025 116.363L89.3848 97.4437L77.9646 106.453L90.7025 116.363ZM90.7025 120.266H59.0773L74.8899 108.555L90.7025 120.266ZM45.9002 39.1854H103.88V62.0082L74.8899 83.9302L45.9002 62.0082V39.1854ZM84.9924 93.5398H64.7874L74.8899 86.6329L84.9924 93.5398ZM60.3951 91.738L57.3204 86.6329H69.1798L60.3951 91.738ZM56.0027 83.9302L45.9002 65.9121L69.1798 83.9302H56.0027ZM89.3848 91.738L92.4595 86.6329H80.6L89.3848 91.738ZM93.7772 83.9302L103.88 65.9121L80.6 83.9302H93.7772ZM41.5078 55.1013V39.4857H32.723L41.5078 55.1013ZM108.272 55.1013V39.4857H116.618L108.272 55.1013ZM45.9002 27.4737H103.88V35.2815H45.9002V27.4737ZM25.6952 35.2815L23.0598 29.5758L5.49023 35.2815H25.6952ZM124.085 35.2815L127.159 29.5758L144.29 35.2815H124.085ZM38.8724 23.5698L21.5224 14.7109L31.4053 23.5698H38.8724ZM110.908 23.5698L128.477 14.7109L118.375 23.5698H110.908Z" fill="#BFBFBF"/>
<path d="M64.7881 123.273H84.9931L74.4513 130.03L64.7881 123.273Z" stroke="black" stroke-width="0.363185"/>
<path d="M57.3203 143.994L59.0773 123.273L71.8152 132.282L57.3203 143.994Z" stroke="black" stroke-width="0.363185"/>
<path d="M92.0205 143.994L90.7028 123.273L77.9648 132.282L92.0205 143.994Z" stroke="black" stroke-width="0.363185"/>
<path d="M65.666 97.4453H84.114L74.4508 104.653L65.666 97.4453Z" stroke="black" stroke-width="0.363185"/>
<path d="M59.0771 116.364L60.3949 97.4453L71.8151 106.454L59.0771 116.364Z" stroke="black" stroke-width="0.363185"/>
<path d="M90.7028 116.364L89.385 97.4453L77.9648 106.454L90.7028 116.364Z" stroke="black" stroke-width="0.363185"/>
<path d="M90.7023 120.266H59.0771L74.8897 108.555L90.7023 120.266Z" stroke="black" stroke-width="0.363185"/>
<path d="M45.9004 39.1875H103.88V62.0103L74.8901 83.9322L45.9004 62.0103V39.1875Z" stroke="black" stroke-width="0.363185"/>
<path d="M84.9931 93.5397H64.7881L74.8906 86.6328L84.9931 93.5397Z" stroke="black" stroke-width="0.363185"/>
<path d="M60.395 91.7379L57.3203 86.6328H69.1798L60.395 91.7379Z" stroke="black" stroke-width="0.363185"/>
<path d="M56.0029 83.9321L45.9004 65.9141L69.18 83.9321H56.0029Z" stroke="black" stroke-width="0.363185"/>
<path d="M89.3854 91.7379L92.46 86.6328H80.6006L89.3854 91.7379Z" stroke="black" stroke-width="0.363185"/>
<path d="M93.7777 83.9321L103.88 65.9141L80.6006 83.9321H93.7777Z" stroke="black" stroke-width="0.363185"/>
<path d="M41.5084 55.1078V39.4922H32.7236L41.5084 55.1078Z" stroke="black" stroke-width="0.363185"/>
<path d="M108.272 55.1078V39.4922H116.618L108.272 55.1078Z" stroke="black" stroke-width="0.363185"/>
<path d="M45.9004 27.4766H103.88V35.2844H45.9004V27.4766Z" stroke="black" stroke-width="0.363185"/>
<path d="M25.6952 35.2838L23.0598 29.5781L5.49023 35.2838H25.6952Z" stroke="black" stroke-width="0.363185"/>
<path d="M124.085 35.2838L127.16 29.5781L144.29 35.2838H124.085Z" stroke="black" stroke-width="0.363185"/>
<path d="M38.8724 23.5698L21.5225 14.7109L31.4053 23.5698H38.8724Z" stroke="black" stroke-width="0.363185"/>
<path d="M110.908 23.5698L128.478 14.7109L118.375 23.5698H110.908Z" stroke="black" stroke-width="0.363185"/>
</g>
<defs>
<clipPath id="clip0_2109_223822">
<rect width="150" height="150" fill="white"/>
</clipPath>
</defs>
</svg>
