<svg width="150" height="150" viewBox="0 0 150 150" fill="none" xmlns="http://www.w3.org/2000/svg">
<g clip-path="url(#clip0_2109_223656)">
<path d="M13.8135 26.731L1.65137 15.9062H3.90362L13.8135 24.9637H16.0658L25.6754 15.9062H27.7775L16.0658 26.731H13.8135Z" fill="#663333" stroke="black" stroke-width="0.364253"/>
<path d="M13.8135 46.6125L1.65137 35.125H3.90362L13.8135 44.1824H16.0658L25.6754 35.125H27.7775L16.0658 46.6125H13.8135Z" fill="#663333" stroke="black" stroke-width="0.364253"/>
<path d="M13.0635 4.42188H16.9674V150.004H13.0635V4.42188Z" fill="#663333" stroke="black" stroke-width="0.364253"/>
<path d="M0 32.0312H29.1291V35.124H0V32.0312Z" fill="#996633" stroke="black" stroke-width="0.364253"/>
<path d="M0 12.1484H29.1291V15.904H0V12.1484Z" fill="#996633" stroke="black" stroke-width="0.364253"/>
<path d="M1.65137 32.0363V26.7344" stroke="black" stroke-width="0.364253"/>
<path d="M0.750977 30.7031H2.10233" stroke="black" stroke-width="0.364253"/>
<path d="M2.10233 29.3828H0.750977" stroke="black" stroke-width="0.364253"/>
<path d="M0.750977 28.0547H2.10233" stroke="black" stroke-width="0.364253"/>
<path d="M3.9043 32.0363V26.7344" stroke="black" stroke-width="0.364253"/>
<path d="M3.00293 30.7031H4.65458" stroke="black" stroke-width="0.364253"/>
<path d="M4.65458 29.3828H3.00293" stroke="black" stroke-width="0.364253"/>
<path d="M3.00293 28.0547H4.65458" stroke="black" stroke-width="0.364253"/>
<path d="M26.126 32.0363V26.7344" stroke="black" stroke-width="0.364253"/>
<path d="M25.6758 30.7031H27.0271" stroke="black" stroke-width="0.364253"/>
<path d="M27.0271 29.3828H25.6758" stroke="black" stroke-width="0.364253"/>
<path d="M25.6758 28.0547H27.0271" stroke="black" stroke-width="0.364253"/>
<path d="M28.6787 32.0363V26.7344" stroke="black" stroke-width="0.364253"/>
<path d="M27.7773 30.7031H29.1287" stroke="black" stroke-width="0.364253"/>
<path d="M29.1287 29.3828H27.7773" stroke="black" stroke-width="0.364253"/>
<path d="M27.7773 28.0547H29.1287" stroke="black" stroke-width="0.364253"/>
<path d="M5.10547 33.7969H23.8742" stroke="black" stroke-width="0.364253"/>
<path d="M27.7773 12.1484L35.435 15.4621L43.0927 18.5549L50.6002 21.2059L58.2578 23.1941L65.7653 24.9614L73.423 26.066L80.9305 26.7287L88.5882 26.9496L96.0957 26.7287L103.753 26.066L111.411 24.9614L119.069 23.1941L126.726 21.2059L134.384 18.5549L142.192 15.4621L146.096 13.9157L149.849 12.1484" stroke="black" stroke-width="0.364253"/>
<path d="M25.6758 12.1484L33.1833 15.4621L40.8409 18.5549L48.4986 21.2059L56.0061 23.1941L63.6638 24.9614L71.1713 26.066L78.8289 26.7287L86.3364 26.9496L93.9941 26.7287L101.652 26.066L109.309 24.9614L116.967 23.1941L124.625 21.2059L132.282 18.5549L139.94 15.4621L143.844 13.9157L147.748 12.1484" stroke="black" stroke-width="0.364253"/>
<path d="M3.9043 12.1484L11.4118 15.4621L19.0695 18.5549L26.577 21.2059L34.2346 23.1941L41.7421 24.9614L49.3998 26.066L56.9073 26.7287L64.565 26.9496L72.2226 26.7287L79.8803 26.066L87.3878 24.9614L95.0454 23.1941L102.703 21.2059L110.511 18.5549L118.169 15.4621L122.072 13.9157L125.976 12.1484" stroke="black" stroke-width="0.364253"/>
<path d="M1.65137 12.1484L9.30902 15.4621L16.8165 18.5549L24.4742 21.2059L31.9817 23.1941L39.6394 24.9614L47.1469 26.066L54.8045 26.7287L62.312 26.9496L69.9697 26.7287L77.6273 26.066L85.285 24.9614L92.9427 23.1941L100.6 21.2059L108.258 18.5549L116.066 15.4621L119.82 13.9157L123.723 12.1484" stroke="black" stroke-width="0.364253"/>
<path d="M1.65137 12.8097V7.50781" stroke="black" stroke-width="0.364253"/>
<path d="M2.55278 11.4844H0.750977" stroke="black" stroke-width="0.364253"/>
<path d="M0.750977 10.1641H2.55278" stroke="black" stroke-width="0.364253"/>
<path d="M2.55278 8.83594H0.750977" stroke="black" stroke-width="0.364253"/>
<path d="M3.9043 12.8097V7.50781" stroke="black" stroke-width="0.364253"/>
<path d="M4.20388 11.4844H3.45312" stroke="black" stroke-width="0.364253"/>
<path d="M3.45312 10.1641H4.20388" stroke="black" stroke-width="0.364253"/>
<path d="M4.20388 8.83594H3.45312" stroke="black" stroke-width="0.364253"/>
<path d="M25.2256 12.8097V7.50781" stroke="black" stroke-width="0.364253"/>
<path d="M26.1258 11.4844H24.7744" stroke="black" stroke-width="0.364253"/>
<path d="M24.7744 10.1641H26.1258" stroke="black" stroke-width="0.364253"/>
<path d="M26.1258 8.83594H24.7744" stroke="black" stroke-width="0.364253"/>
<path d="M27.7773 12.8097V7.50781" stroke="black" stroke-width="0.364253"/>
<path d="M28.679 11.4844H27.0273" stroke="black" stroke-width="0.364253"/>
<path d="M27.0273 10.1641H28.679" stroke="black" stroke-width="0.364253"/>
<path d="M28.679 8.83594H27.0273" stroke="black" stroke-width="0.364253"/>
<path d="M13.8135 4.41826V0" stroke="black" stroke-width="0.364253"/>
<path d="M14.7151 3.09375H13.0635" stroke="black" stroke-width="0.364253"/>
<path d="M13.0635 2.42969H14.7151" stroke="black" stroke-width="0.364253"/>
<path d="M14.7151 1.10156H13.0635" stroke="black" stroke-width="0.364253"/>
<path d="M16.5166 4.41826V0" stroke="black" stroke-width="0.364253"/>
<path d="M16.9666 3.09375H15.6152" stroke="black" stroke-width="0.364253"/>
<path d="M15.6152 2.42969H16.9666" stroke="black" stroke-width="0.364253"/>
<path d="M16.9666 1.10156H15.6152" stroke="black" stroke-width="0.364253"/>
<path d="M15.6152 140.94V44.1797" stroke="black" stroke-width="0.364253"/>
<path d="M5.10547 14.5781H23.8742" stroke="black" stroke-width="0.364253"/>
<path d="M27.7773 32.0312L35.435 35.3449L43.0927 38.2168L50.6002 40.8678L58.2578 42.856L65.7653 44.4024L73.423 45.5069L80.9305 46.1697L88.5882 46.3906L96.0957 46.1697L103.753 45.5069L111.411 44.4024L119.069 42.856L126.726 40.8678L134.384 38.2168L142.192 35.3449L149.849 32.0312" stroke="black" stroke-width="0.364253"/>
<path d="M25.6758 32.0312L33.1833 35.3449L40.8409 38.2168L48.4986 40.8678L56.0061 42.856L63.6638 44.4024L71.1713 45.5069L78.8289 46.1697L86.3364 46.3906L93.9941 46.1697L101.652 45.5069L109.309 44.4024L116.967 42.856L124.625 40.8678L132.282 38.2168L139.94 35.3449L147.748 32.0312" stroke="black" stroke-width="0.364253"/>
<path d="M3.9043 32.0312L11.4118 35.3449L19.0695 38.2168L26.577 40.8678L34.2346 42.856L41.7421 44.4024L49.3998 45.5069L56.9073 46.1697L64.565 46.3906L72.2226 46.1697L79.8803 45.5069L87.3878 44.4024L95.0454 42.856L102.703 40.8678L110.511 38.2168L118.169 35.3449L125.976 32.0312" stroke="black" stroke-width="0.364253"/>
<path d="M1.65137 32.0312L9.30902 35.3449L16.8165 38.2168L24.4742 40.8678L31.9817 42.856L39.6394 44.4024L47.1469 45.5069L54.8045 46.1697L62.312 46.3906L69.9697 46.1697L77.6273 45.5069L85.285 44.4024L92.9427 42.856L100.6 40.8678L108.258 38.2168L116.066 35.3449L123.723 32.0312" stroke="black" stroke-width="0.364253"/>
</g>
<defs>
<clipPath id="clip0_2109_223656">
<rect width="150" height="150" fill="white"/>
</clipPath>
</defs>
</svg>
