<svg width="150" height="150" viewBox="0 0 150 150" fill="none" xmlns="http://www.w3.org/2000/svg">
<g clip-path="url(#clip0_2109_222438)">
<path d="M79.7969 68.1719H95.4945V150.004H79.7969V68.1719Z" fill="#ABABAB" stroke="black" stroke-width="0.511752"/>
<path d="M102.471 65.012V67.2642L98.9826 69.066L89.3896 69.8168L76.3082 69.066L73.2559 67.4144V65.012L78.9245 64.2612L85.9012 63.9609H94.6221L102.471 65.012Z" fill="#ABABAB" stroke="black" stroke-width="0.511752"/>
<path d="M96.8027 62.4609V65.3138L94.1864 65.9144L91.1341 66.0645L87.6457 66.2147L83.7213 66.0645L80.669 65.9144L78.9248 65.6141V62.4609H96.8027Z" fill="#ABABAB" stroke="black" stroke-width="0.511752"/>
<path d="M128.633 0H150V57.3574L128.633 62.7628L127.325 0H128.633Z" fill="#ABABAB" stroke="black" stroke-width="0.511752"/>
<path d="M16.1338 0H129.506V62.7628H16.1338V0Z" fill="#ABABAB" stroke="black" stroke-width="0.511752"/>
<path d="M89.8252 73.5755L93.3136 73.125V150.002H89.8252V73.5755Z" fill="white" stroke="black" stroke-width="0.511752"/>
<path d="M89.39 67.1197L76.3086 66.2188V69.0716" stroke="black" stroke-width="0.511752"/>
<path d="M76.3082 66.2185L73.2559 64.8672V67.4197" stroke="black" stroke-width="0.511752"/>
<path d="M102.471 65.0156L98.9824 66.367" stroke="black" stroke-width="0.511752"/>
<path d="M98.9827 66.3672L89.3896 67.1179" stroke="black" stroke-width="0.511752"/>
<path d="M98.9827 68.7696V66.3672L89.3896 67.1179V69.8206" stroke="black" stroke-width="0.511752"/>
<path d="M90.2617 37.2344H113.808V51.3485H90.2617V37.2344Z" fill="black" stroke="black" stroke-width="0.511752"/>
<path d="M70.6399 2.85156L84.5933 3.45216L96.8026 5.25396L107.268 8.25697L115.553 12.0107L121.657 16.5152L124.71 21.6203V22.6714L125.146 23.7224L124.71 24.7735L122.529 29.8786L117.297 34.5332L115.553 35.284V50.8996L109.884 52.7014V38.1368L98.1108 42.1909L86.3375 44.4432H73.6922L62.791 3.15186L64.9712 3.00171L70.6399 2.85156Z" fill="#ABABAB" stroke="black" stroke-width="0.511752"/>
<path d="M67.5868 45.042C96.7263 45.042 120.348 35.6306 120.348 24.021C120.348 12.4114 96.7263 3 67.5868 3C38.4474 3 14.8252 12.4114 14.8252 24.021C14.8252 35.6306 38.4474 45.042 67.5868 45.042Z" fill="black" stroke="black" stroke-width="0.511752"/>
<path d="M31.3952 42.7891H101.599L104.651 43.0894L107.703 43.69L109.011 44.741L109.884 45.9422V52.699L107.703 52.9993L25.7266 43.69L28.3428 43.0894L31.3952 42.7891Z" fill="#ABABAB" stroke="black" stroke-width="0.511752"/>
<path d="M29.6511 43.0938H99.8546L102.907 43.3941L105.523 43.9947L107.267 45.0457L107.703 46.2469L108.139 53.0037H21.3662V46.2469L22.2383 45.0457L23.9825 43.9947L26.1627 43.3941L29.6511 43.0938Z" fill="#ABABAB" stroke="black" stroke-width="0.511752"/>
<path d="M66.7151 3.15625L71.9477 3.3064L77.1802 3.6067L81.9767 4.05715L86.7733 4.8079L91.5698 5.7088L95.9302 6.6097L99.8547 7.96105L103.343 9.31241L106.831 10.6638L109.884 12.3154L112.5 13.9671L114.68 15.919L116.424 17.7208L117.733 19.8229L118.605 21.7749L119.041 24.0271L118.605 25.9791L117.733 28.0812L116.424 30.0331L114.68 31.9851L112.5 33.7869L109.884 35.4385L106.831 37.0902L103.343 38.5917L99.8547 39.943L95.9302 41.1442L91.5698 42.1953L86.7733 43.0962L81.9767 43.6968L77.1802 44.5977L70.2035 45.1983L61.4826 45.7989H56.686H51.8895L47.5291 45.6487H43.6047L39.6802 45.3484L32.7035 44.4475L29.2151 43.9971L25.7267 43.2463L22.6744 42.4956L20.0581 41.5947L17.0058 40.5436L14.3895 39.3424L11.7733 38.1412L8.72093 36.6397L6.10465 35.1382L4.79651 33.7869L3.05233 32.4355L2.18023 31.0842L0.872093 29.5827L0.436047 27.931L0 26.1292V24.3274V22.3755L0.436047 20.874L0.872093 19.5226L2.18023 18.0211L3.48837 16.6698L5.23256 15.4686L8.28488 13.0662L11.3372 11.1142L14.8256 9.46256L18.75 7.96105L23.1105 6.75985L27.907 5.7088L30.0872 5.25835L34.8837 4.5076L40.1163 4.05715L45.3488 3.6067L50.5814 3.3064L56.25 3.15625H61.4826H66.7151Z" fill="#D9D9D9" stroke="black" stroke-width="0.511752"/>
<path d="M16.5693 30.7769V11.858L21.8019 9.45559L27.9065 8.55469L28.3426 37.9841L16.5693 30.7769Z" fill="#ABABAB" stroke="black" stroke-width="0.511752"/>
<path d="M3.05273 24.9219V26.7237L3.92483 28.6756L5.23297 30.6276L6.54111 32.5795L8.72134 34.3813L11.3376 36.1831L14.3899 37.8348L17.8783 39.4864L21.8027 40.8378L26.5992 42.1891L31.3958 43.09L36.6283 43.9909L42.2969 44.5915L48.8376 44.8918H55.3783L62.7911 44.5915L69.7679 43.6906L74.5644 42.7897L76.7446 41.8888L17.8783 28.6756L14.826 27.3243L11.7737 26.2732L7.84925 25.5225L3.05273 24.9219Z" fill="white" stroke="black" stroke-width="0.511752"/>
<path d="M68.4592 43.0947C94.468 43.0947 115.552 34.49 115.552 23.8755C115.552 13.261 94.468 4.65625 68.4592 4.65625C42.4505 4.65625 21.3662 13.261 21.3662 23.8755C21.3662 34.49 42.4505 43.0947 68.4592 43.0947Z" fill="black" stroke="black" stroke-width="0.511752"/>
<path d="M58.4303 5.70312H62.7908L67.1513 5.85328L71.0757 6.15358L75.0001 6.60403L78.4885 7.20463L82.4129 7.95538L85.9013 8.70613L89.8257 10.0575L92.4419 11.1085L95.0582 12.3097L96.8024 13.5109L98.5466 14.7121L100.291 16.3638L101.163 17.8653V18.1656V18.616L98.9827 20.1175L95.9303 21.0184L91.1338 21.4689L86.7733 21.9193L81.9768 22.0695L77.1803 22.2196H72.8199L68.0233 22.3698H63.6629H48.4013H47.5292H46.221H37.064L31.8315 22.2196L27.471 22.0695L23.5466 21.7692L19.1861 21.1686L16.1338 19.6671L15.2617 18.616V18.1656V17.7151L16.1338 16.2136L17.0059 15.0124L18.7501 13.6611L21.3664 12.1596L23.9826 10.9584L26.5989 10.0575L30.5233 8.70613L34.0117 7.95538L37.9361 7.20463L41.8606 6.60403L46.221 6.15358L51.4536 5.85328L55.814 5.70312H57.9943H58.4303Z" fill="#ABABAB" stroke="black" stroke-width="0.511752"/>
<path d="M46.2214 15.0182C50.3154 15.0182 53.6342 13.7409 53.6342 12.1654C53.6342 10.5898 50.3154 9.3125 46.2214 9.3125C42.1274 9.3125 38.8086 10.5898 38.8086 12.1654C38.8086 13.7409 42.1274 15.0182 46.2214 15.0182Z" fill="#ABABAB" stroke="black" stroke-width="0.511752"/>
<path d="M33.5754 17.7179C37.9102 17.7179 41.4242 16.5079 41.4242 15.0152C41.4242 13.5225 37.9102 12.3125 33.5754 12.3125C29.2406 12.3125 25.7266 13.5225 25.7266 15.0152C25.7266 16.5079 29.2406 17.7179 33.5754 17.7179Z" fill="#ABABAB" stroke="black" stroke-width="0.511752"/>
<path d="M75.4362 17.8698C79.5302 17.8698 82.849 16.5925 82.849 15.0169C82.849 13.4413 79.5302 12.1641 75.4362 12.1641C71.3423 12.1641 68.0234 13.4413 68.0234 15.0169C68.0234 16.5925 71.3423 17.8698 75.4362 17.8698Z" fill="#ABABAB" stroke="black" stroke-width="0.511752"/>
<path d="M61.9187 14.566C66.0126 14.566 69.3314 13.4232 69.3314 12.0135C69.3314 10.6038 66.0126 9.46094 61.9187 9.46094C57.8247 9.46094 54.5059 10.6038 54.5059 12.0135C54.5059 13.4232 57.8247 14.566 61.9187 14.566Z" fill="#ABABAB" stroke="black" stroke-width="0.511752"/>
<path d="M27.9072 13.9609L33.1398 15.1621" stroke="black" stroke-width="0.511752"/>
<path d="M46.2207 12.1641H52.7614" stroke="black" stroke-width="0.511752"/>
<path d="M61.9189 11.8594L68.0236 12.7603" stroke="black" stroke-width="0.511752"/>
<path d="M69.7676 16.367L75.8722 15.0156" stroke="black" stroke-width="0.511752"/>
<path d="M19.1861 19.0703L20.4942 19.2205L20.9303 19.6709L20.4942 20.2715L19.1861 20.4217L17.878 20.2715L17.0059 19.6709L17.878 19.2205L19.1861 19.0703Z" fill="#ABABAB" stroke="black" stroke-width="0.511752"/>
<path d="M54.5054 20.5703L55.8136 20.8706L56.2496 21.3211L55.8136 21.9217L54.5054 22.0718L52.7612 21.9217L52.3252 21.3211L52.7612 20.8706L54.5054 20.5703Z" fill="#ABABAB" stroke="black" stroke-width="0.511752"/>
<path d="M95.9302 18.4688L97.2384 18.6189L97.6744 19.0694L97.2384 19.67L95.9302 19.8201L94.6221 19.67L93.75 19.0694L94.6221 18.6189L95.9302 18.4688Z" fill="#ABABAB" stroke="black" stroke-width="0.511752"/>
<path d="M50.5811 30.0292L48.4009 28.5277L45.3485 26.5758L44.0404 25.825L41.4241 24.4737L37.4997 23.5728L33.1392 22.9722L28.3427 22.6719H23.5462L18.7497 23.1223L15.2613 24.0232L12.6451 25.2244L11.3369 27.3265V28.5277L12.6451 30.0292L13.9532 31.5307L16.1334 33.1824L18.7497 34.6839L21.802 36.1854L25.7264 37.3866L30.0869 38.2875L34.4474 38.8881H37.4997V37.2364L33.1392 36.6358L29.6509 35.7349L26.5985 34.6839L23.9823 33.6328L22.2381 32.4316L20.4939 31.0803L19.1858 29.7289L17.8776 28.2274V27.1764L19.1858 25.825L20.9299 25.2244L23.5462 24.9241H28.7788L34.0113 25.5247L37.9358 26.7259L40.552 27.4767L43.1683 28.5277L45.7846 30.0292H50.5811Z" fill="#ABABAB" stroke="black" stroke-width="0.511752"/>
<path d="M69.767 22.9766L64.0984 23.5772L58.8659 24.9285L55.3775 26.8805L54.5054 28.0817L53.1973 30.1838L57.5577 30.3339L59.738 27.7814L61.4821 26.7303L63.6624 25.5291L65.8426 24.9285L71.9473 24.7784L77.1798 25.2288L80.6682 26.1297L82.8484 27.3309L83.7205 28.9826V30.6342L82.8484 32.2859L81.1042 33.9375L79.7961 35.1387L77.1798 36.3399L71.9473 36.7904L65.8426 37.0907L64.9705 39.0426L72.3833 38.7423L76.3077 38.5922L80.2321 37.5411L82.8484 36.3399L85.0287 35.2889L86.7728 33.9375L88.081 32.5862L89.3891 31.0847L89.8252 29.5832L89.3891 27.9315L88.081 26.5802L86.3368 25.379L83.7205 24.4781L80.2321 23.5772L76.3077 23.1267H74.1275L69.767 22.9766Z" fill="#ABABAB" stroke="black" stroke-width="0.511752"/>
<path d="M34.8835 29.4297H65.4068L68.8952 29.73L71.9475 30.4807L74.1277 31.5318L74.9998 32.8831V33.3336L74.1277 34.5348L71.9475 35.736L68.8952 36.3366L65.4068 36.6369L34.8835 36.787L31.3952 36.4867L28.3428 35.736L26.1626 34.6849L25.7266 33.3336V32.8831L26.1626 31.5318L28.3428 30.4807L31.3952 29.73L34.8835 29.4297Z" fill="#FFFF14" stroke="black" stroke-width="0.511752"/>
<path d="M30.0869 35.2891H68.8951" stroke="black" stroke-width="0.511752"/>
<path d="M49.7096 32.7344L51.4537 33.0347L52.3258 33.6353L51.4537 34.2359L49.7096 34.386L47.5293 34.2359L46.6572 33.6353L47.5293 33.0347L49.7096 32.7344Z" fill="black" stroke="black" stroke-width="0.511752"/>
<path d="M32.2676 36.6328H67.5873V40.5367H32.2676V36.6328Z" fill="white" stroke="black" stroke-width="0.511752"/>
<path d="M3.92487 17.5694L2.61673 19.6715L1.74464 21.7736L1.30859 23.7255V25.6775L1.74464 27.6294L2.61673 29.4312L3.92487 31.233L5.23301 32.7345L6.9772 34.3862L9.15743 35.7375L11.3377 37.0889L13.9539 38.2901L16.1342 39.4913L21.3667 41.2931L23.983 42.0438L20.9307 40.8426L17.8784 39.6414L15.2621 38.2901L12.6458 36.9387L10.4656 35.5874L8.28534 34.0859L6.54115 32.5844L5.23301 31.0829L3.92487 29.4312L3.05278 27.6294L2.61673 25.9778L2.18069 24.176L2.61673 22.3742L3.05278 20.5724L3.92487 18.7706L5.23301 16.9688L3.92487 17.5694Z" fill="black" stroke="black" stroke-width="0.511752"/>
<path d="M81.9766 6.15625L85.901 6.75685L88.9533 7.5076L92.0056 8.25835L95.058 9.15925L98.1103 10.2103L101.163 11.5617L103.779 12.6127L105.959 13.9641L107.703 15.1653L109.011 16.5166L110.756 18.0181L111.628 19.5196L112.5 21.1713V22.8229L112.936 23.2734L112.5 23.7238V25.3755L112.064 26.5767L111.192 28.9791L110.756 28.6788V26.2764V24.6247L110.32 23.1232L109.447 21.4716L108.575 19.8199L107.703 18.3184L105.959 16.9671L104.651 15.6157L102.471 14.4145L100.727 13.2133L98.1103 11.862L95.494 10.8109L92.8777 9.75985L89.8254 8.7088L86.7731 7.8079L83.7207 6.75685L82.8487 6.45655L81.9766 6.15625Z" fill="#ABABAB" stroke="black" stroke-width="0.511752"/>
<path d="M67.1516 44.4468L62.3551 44.8972L57.5586 45.3477L52.326 45.4978L46.6574 45.3477L41.8609 44.8972L37.0644 44.4468L32.2679 43.696L27.4714 42.7951L23.547 41.8942L19.6225 40.5429L16.1342 39.3417L12.6458 37.69L10.0295 36.1885L7.41324 34.5369L5.23301 32.7351L3.48883 30.7831L2.18069 28.8312L1.30859 26.7291V24.627V22.5249L2.18069 20.4228L3.48883 18.4708L5.23301 16.5189L7.41324 14.7171L10.0295 13.0654L12.6458 11.4138L16.1342 10.0624L19.6225 8.5609L23.547 7.3597L27.4714 6.30865L32.2679 5.5579L37.0644 4.657L41.8609 4.20655L46.6574 3.90625H52.326" stroke="black" stroke-width="0.511752"/>
<path d="M17.8778 9.90625L14.3894 11.1075L11.3371 12.3087L9.15689 13.8102L7.4127 15.1615L6.10456 16.663L5.66851 17.1135L3.48828 20.1165L5.23247 18.7651L6.97665 17.5639L8.28479 16.2126L10.029 15.0114L11.7732 13.66L13.5174 12.4588L15.2615 11.2576L17.8778 9.90625Z" fill="white" stroke="black" stroke-width="0.511752"/>
<path d="M58.8667 3.30469L50.5818 3.45484L41.4248 4.05544L47.0934 3.90529L51.8899 4.05544H57.1225L61.0469 4.35574L65.4074 4.65604L69.3318 4.95634L72.8202 5.55694L76.3085 6.15754L73.2562 5.10649L68.8957 4.20559L64.0992 3.60499L58.8667 3.30469Z" fill="white" stroke="black" stroke-width="0.511752"/>
<path d="M87.6456 10.0625L92.8781 13.2157L96.3665 16.3688L98.9828 19.3718L100.291 22.2247L100.727 25.0775L100.291 27.6301L98.9828 30.1826L96.8025 32.4349L94.1863 34.6871L91.1339 36.6391L87.6456 38.4409L83.7211 40.0925L79.7967 41.594L75.4363 42.7952L71.5118 43.6961L67.1514 44.4469L73.256 43.8463L79.3607 42.7952L84.5932 41.2937L89.3897 39.6421L93.7502 37.6901L97.6746 35.588L100.727 33.1856L103.343 30.6331L104.651 28.0805L105.087 25.3778V22.6751L103.779 19.9724L101.599 17.4199L98.1107 14.7172L93.7502 12.3148L87.6456 10.0625Z" fill="white" stroke="black" stroke-width="0.511752"/>
<path d="M112.5 29.4325L113.372 27.931L114.244 26.4295V24.7778V24.3274V24.0271V23.5766V21.7748L113.808 20.1232L112.936 18.4715L111.192 16.8199L108.14 14.8679L106.396 14.1172L106.832 14.5676L108.14 15.7688L109.884 17.4205L110.756 19.0721L111.628 20.5736L112.064 22.2253V23.8769V25.3784L111.628 27.0301L111.192 28.5316L110.32 30.0331L109.012 31.6848L108.576 31.9851L110.32 30.934L112.5 29.4325Z" fill="white" stroke="black" stroke-width="0.511752"/>
</g>
<defs>
<clipPath id="clip0_2109_222438">
<rect width="150" height="150" fill="white"/>
</clipPath>
</defs>
</svg>
