<svg width="150" height="150" viewBox="0 0 150 150" fill="none" xmlns="http://www.w3.org/2000/svg">
<g clip-path="url(#clip0_2109_222979)">
<path d="M56.2266 131.078H145.561V145.192H56.2266V131.078Z" fill="#FF6600" stroke="black" stroke-width="0.333294"/>
<path fill-rule="evenodd" clip-rule="evenodd" d="M2.77441 0V150L49.0136 149.85V131.231H147.041V0H2.77441ZM139.827 135.886H140.382L140.937 136.036L141.492 136.186L141.862 136.486L142.232 136.937L142.417 137.237L142.602 137.688L142.787 138.138L142.602 138.589L142.417 139.039L142.232 139.489L141.862 139.79L141.492 140.09L140.937 140.39H140.382L139.827 140.541L139.273 140.39H138.718L138.163 140.09L137.793 139.79L137.423 139.489L137.053 139.039V138.589L136.868 138.138L137.053 137.688V137.237L137.423 136.937L137.793 136.486L138.163 136.186L138.718 136.036L139.273 135.886H139.827ZM131.134 135.886H131.689L132.244 136.036L132.799 136.186L133.169 136.486L133.539 136.937L133.909 137.237L134.094 137.688V138.138V138.589L133.909 139.039L133.539 139.489L133.169 139.79L132.799 140.09L132.244 140.39H131.689L131.134 140.541L130.58 140.39H130.025L129.655 140.09L129.1 139.79L128.73 139.489L128.545 139.039L128.36 138.589V138.138V137.688L128.545 137.237L128.73 136.937L129.1 136.486L129.655 136.186L130.025 136.036L130.58 135.886H131.134ZM122.441 135.886H122.996L123.551 136.036L124.106 136.186L124.476 136.486L124.846 136.937L125.031 137.237L125.216 137.688L125.401 138.138L125.216 138.589L125.031 139.039L124.846 139.489L124.476 139.79L124.106 140.09L123.551 140.39H122.996L122.441 140.541L121.887 140.39H121.332L120.962 140.09L120.407 139.79L120.037 139.489L119.852 139.039L119.667 138.589V138.138V137.688L119.852 137.237L120.037 136.937L120.407 136.486L120.962 136.186L121.332 136.036L121.887 135.886H122.441ZM113.933 135.886H114.488L115.043 136.036L115.598 136.186L115.968 136.486L116.338 136.937L116.523 137.237L116.708 137.688L116.893 138.138L116.708 138.589L116.523 139.039L116.338 139.489L115.968 139.79L115.598 140.09L115.043 140.39H114.488L113.933 140.541L113.379 140.39H112.824L112.269 140.09L111.899 139.79L111.529 139.489L111.159 139.039V138.589L110.974 138.138L111.159 137.688V137.237L111.529 136.937L111.899 136.486L112.269 136.186L112.824 136.036L113.379 135.886H113.933ZM105.241 135.886H105.795L106.35 136.036L106.905 136.186L107.275 136.486L107.645 136.937L107.83 137.237L108.015 137.688L108.2 138.138L108.015 138.589L107.83 139.039L107.645 139.489L107.275 139.79L106.905 140.09L106.35 140.39H105.795L105.241 140.541L104.686 140.39H104.131L103.576 140.09L103.206 139.79L102.836 139.489L102.466 139.039V138.589L102.281 138.138L102.466 137.688V137.237L102.836 136.937L103.206 136.486L103.576 136.186L104.131 136.036L104.686 135.886H105.241ZM96.5475 135.886H97.1024L97.6573 136.036L98.2122 136.186L98.5821 136.486L98.952 136.937L99.3219 137.237L99.5068 137.688V138.138V138.589L99.3219 139.039L98.952 139.489L98.5821 139.79L98.2122 140.09L97.6573 140.39H97.1024L96.5475 140.541L95.9927 140.39H95.4378L95.0679 140.09L94.513 139.79L94.1431 139.489L93.9581 139.039L93.7732 138.589V138.138V137.688L93.9581 137.237L94.1431 136.937L94.513 136.486L95.0679 136.186L95.4378 136.036L95.9927 135.886H96.5475ZM87.8546 135.886H88.4094L88.9643 136.036L89.5192 136.186L89.8891 136.486L90.259 136.937L90.444 137.237L90.6289 137.688L90.8139 138.138L90.6289 138.589L90.444 139.039L90.259 139.489L89.8891 139.79L89.5192 140.09L88.9643 140.39H88.4094L87.8546 140.541L87.2997 140.39H86.7448L86.1899 140.09L85.82 139.79L85.4501 139.489L85.0802 139.039V138.589L84.8953 138.138L85.0802 137.688V137.237L85.4501 136.937L85.82 136.486L86.1899 136.186L86.7448 136.036L87.2997 135.886H87.8546ZM79.1616 135.886H79.7165L80.2713 136.036L80.8262 136.186L81.1961 136.486L81.566 136.937L81.9359 137.237L82.1209 137.688V138.138V138.589L81.9359 139.039L81.566 139.489L81.1961 139.79L80.8262 140.09L80.2713 140.39H79.7165L79.1616 140.541L78.6067 140.39H78.0518L77.6819 140.09L77.1271 139.79L76.7572 139.489L76.5722 139.039L76.3872 138.589V138.138V137.688L76.5722 137.237L76.7572 136.937L77.1271 136.486L77.6819 136.186L78.0518 136.036L78.6067 135.886H79.1616ZM70.4686 135.886H71.0235L71.5784 136.036L72.1332 136.186L72.5031 136.486L72.8731 136.937L73.243 137.237L73.4279 137.688V138.138V138.589L73.243 139.039L72.8731 139.489L72.5031 139.79L72.1332 140.09L71.5784 140.39H71.0235L70.4686 140.541L69.9137 140.39H69.3589L68.989 140.09L68.4341 139.79L68.0642 139.489L67.8792 139.039L67.6943 138.589V138.138V137.688L67.8792 137.237L68.0642 136.937L68.4341 136.486L68.989 136.186L69.3589 136.036L69.9137 135.886H70.4686ZM61.9606 135.886H62.5155L63.0703 136.036L63.6252 136.186L63.9951 136.486L64.365 136.937L64.55 137.237L64.735 137.688L64.9199 138.138L64.735 138.589L64.55 139.039L64.365 139.489L63.9951 139.79L63.6252 140.09L63.0703 140.39H62.5155L61.9606 140.541L61.4057 140.39H60.8509L60.4809 140.09L59.9261 139.79L59.5562 139.489L59.3712 139.039L59.1863 138.589V138.138V137.688L59.3712 137.237L59.5562 136.937L59.9261 136.486L60.4809 136.186L60.8509 136.036L61.4057 135.886H61.9606Z" fill="black"/>
<path d="M2.77441 0V150L49.0136 149.85V131.231H147.041V0H2.77441Z" stroke="black" stroke-width="0.333294"/>
<path d="M139.827 140.539C141.462 140.539 142.787 139.464 142.787 138.137C142.787 136.81 141.462 135.734 139.827 135.734C138.193 135.734 136.868 136.81 136.868 138.137C136.868 139.464 138.193 140.539 139.827 140.539Z" stroke="black" stroke-width="0.333294"/>
<path d="M131.135 140.387C132.667 140.387 133.909 139.379 133.909 138.135C133.909 136.891 132.667 135.883 131.135 135.883C129.602 135.883 128.36 136.891 128.36 138.135C128.36 139.379 129.602 140.387 131.135 140.387Z" stroke="black" stroke-width="0.333294"/>
<path d="M122.441 140.387C123.974 140.387 125.216 139.379 125.216 138.135C125.216 136.891 123.974 135.883 122.441 135.883C120.909 135.883 119.667 136.891 119.667 138.135C119.667 139.379 120.909 140.387 122.441 140.387Z" stroke="black" stroke-width="0.333294"/>
<path d="M113.934 140.539C115.568 140.539 116.893 139.464 116.893 138.137C116.893 136.81 115.568 135.734 113.934 135.734C112.3 135.734 110.975 136.81 110.975 138.137C110.975 139.464 112.3 140.539 113.934 140.539Z" stroke="black" stroke-width="0.333294"/>
<path d="M105.241 140.539C106.875 140.539 108.2 139.464 108.2 138.137C108.2 136.81 106.875 135.734 105.241 135.734C103.606 135.734 102.281 136.81 102.281 138.137C102.281 139.464 103.606 140.539 105.241 140.539Z" stroke="black" stroke-width="0.333294"/>
<path d="M96.5478 140.387C98.08 140.387 99.3221 139.379 99.3221 138.135C99.3221 136.891 98.08 135.883 96.5478 135.883C95.0156 135.883 93.7734 136.891 93.7734 138.135C93.7734 139.379 95.0156 140.387 96.5478 140.387Z" stroke="black" stroke-width="0.333294"/>
<path d="M87.8548 140.539C89.4892 140.539 90.8141 139.464 90.8141 138.137C90.8141 136.81 89.4892 135.734 87.8548 135.734C86.2204 135.734 84.8955 136.81 84.8955 138.137C84.8955 139.464 86.2204 140.539 87.8548 140.539Z" stroke="black" stroke-width="0.333294"/>
<path d="M79.1611 140.387C80.6933 140.387 81.9354 139.379 81.9354 138.135C81.9354 136.891 80.6933 135.883 79.1611 135.883C77.6288 135.883 76.3867 136.891 76.3867 138.135C76.3867 139.379 77.6288 140.387 79.1611 140.387Z" stroke="black" stroke-width="0.333294"/>
<path d="M70.4687 140.387C72.0009 140.387 73.243 139.379 73.243 138.135C73.243 136.891 72.0009 135.883 70.4687 135.883C68.9365 135.883 67.6943 136.891 67.6943 138.135C67.6943 139.379 68.9365 140.387 70.4687 140.387Z" stroke="black" stroke-width="0.333294"/>
<path d="M61.9609 140.387C63.4931 140.387 64.7352 139.379 64.7352 138.135C64.7352 136.891 63.4931 135.883 61.9609 135.883C60.4286 135.883 59.1865 136.891 59.1865 138.135C59.1865 139.379 60.4286 140.387 61.9609 140.387Z" stroke="black" stroke-width="0.333294"/>
<path d="M49.0136 150H2.77441V0H49.0136V150Z" fill="#191919" stroke="black" stroke-width="0.333294"/>
<path d="M0 37.3906H150V112.316H0V37.3906Z" fill="#CCCC33" stroke="black" stroke-width="0.333294"/>
<path d="M138.348 114.712H150V35.1328H138.348V114.712Z" fill="#FFFF00" stroke="black" stroke-width="0.333294"/>
<path d="M0 114.712H11.4673V35.1328H0V114.712Z" fill="#FFFF00" stroke="black" stroke-width="0.333294"/>
<path d="M21.4551 35.1328H24.4144V114.712H21.4551V35.1328Z" fill="#FFFF00" stroke="black" stroke-width="0.333294"/>
<path d="M33.1074 35.1328H36.0667V114.712H33.1074V35.1328Z" fill="#FFFF00" stroke="black" stroke-width="0.333294"/>
<path d="M44.5742 35.1328H47.5335V114.712H44.5742V35.1328Z" fill="#FFFF00" stroke="black" stroke-width="0.333294"/>
<path d="M56.2266 35.1328H59.1859V114.712H56.2266V35.1328Z" fill="#FFFF00" stroke="black" stroke-width="0.333294"/>
<path d="M67.6943 35.1328H70.6536V114.712H67.6943V35.1328Z" fill="#FFFF00" stroke="black" stroke-width="0.333294"/>
<path d="M79.1611 35.1328H82.1204V114.712H79.1611V35.1328Z" fill="#FFFF00" stroke="black" stroke-width="0.333294"/>
<path d="M90.8135 35.1328H93.7728V114.712H90.8135V35.1328Z" fill="#FFFF00" stroke="black" stroke-width="0.333294"/>
<path d="M102.281 35.1328H105.241V114.712H102.281V35.1328Z" fill="#FFFF00" stroke="black" stroke-width="0.333294"/>
<path d="M113.934 35.1328H116.893V114.712H113.934V35.1328Z" fill="#FFFF00" stroke="black" stroke-width="0.333294"/>
<path d="M125.4 35.1328H128.36V114.712H125.4V35.1328Z" fill="#FFFF00" stroke="black" stroke-width="0.333294"/>
<path d="M147.041 32.7344H2.77441" stroke="#7F7F7F" stroke-width="0.333294"/>
<path d="M49.0136 131.234H2.77441" stroke="#7F7F7F" stroke-width="0.333294"/>
<path d="M132.615 18.6218C135.781 18.6218 138.348 16.5378 138.348 13.9672C138.348 11.3965 135.781 9.3125 132.615 9.3125C129.448 9.3125 126.881 11.3965 126.881 13.9672C126.881 16.5378 129.448 18.6218 132.615 18.6218Z" fill="#333333" stroke="#CCCCCC" stroke-width="0.333294"/>
<path d="M109.494 18.6218C112.661 18.6218 115.228 16.5378 115.228 13.9672C115.228 11.3965 112.661 9.3125 109.494 9.3125C106.328 9.3125 103.761 11.3965 103.761 13.9672C103.761 16.5378 106.328 18.6218 109.494 18.6218Z" fill="#333333" stroke="#CCCCCC" stroke-width="0.333294"/>
<path d="M86.3753 18.6218C89.5419 18.6218 92.1089 16.5378 92.1089 13.9672C92.1089 11.3965 89.5419 9.3125 86.3753 9.3125C83.2086 9.3125 80.6416 11.3965 80.6416 13.9672C80.6416 16.5378 83.2086 18.6218 86.3753 18.6218Z" fill="#333333" stroke="#CCCCCC" stroke-width="0.333294"/>
<path d="M25.8938 28.0749C29.0604 28.0749 31.6275 25.991 31.6275 23.4203C31.6275 20.8496 29.0604 18.7656 25.8938 18.7656C22.7272 18.7656 20.1602 20.8496 20.1602 23.4203C20.1602 25.991 22.7272 28.0749 25.8938 28.0749Z" fill="#333333" stroke="black" stroke-width="0.333294"/>
<path d="M25.8939 25.8282C27.5283 25.8282 28.8532 24.7527 28.8532 23.4258C28.8532 22.099 27.5283 21.0234 25.8939 21.0234C24.2595 21.0234 22.9346 22.099 22.9346 23.4258C22.9346 24.7527 24.2595 25.8282 25.8939 25.8282Z" fill="black" stroke="black" stroke-width="0.333294"/>
</g>
<defs>
<clipPath id="clip0_2109_222979">
<rect width="150" height="150" fill="white"/>
</clipPath>
</defs>
</svg>
