<svg width="150" height="150" viewBox="0 0 150 150" fill="none" xmlns="http://www.w3.org/2000/svg">
<g clip-path="url(#clip0_2109_222617)">
<path d="M0 0H150V150H0V0Z" fill="#CCCCCC" stroke="black" stroke-width="0.368068"/>
<path d="M4.51172 3H145.489V146.844H4.51172V3Z" fill="#F2F2F2"/>
<path d="M4.51172 80.6279L145.489 21.4688V146.844H4.51172V80.6279Z" fill="#F0F0F0"/>
<path d="M4.51172 87.8345L145.489 28.375V146.543H4.51172V87.8345Z" fill="#EDEDED"/>
<path d="M4.51172 94.4438L145.489 34.9844V146.546H4.51172V94.4438Z" fill="#EBEBEB"/>
<path d="M4.51172 101.053L145.489 41.5938V146.549H4.51172V101.053Z" fill="#E8E8E8"/>
<path d="M4.51172 107.655L145.489 48.1953V146.544H4.51172V107.655Z" fill="#E5E5E5"/>
<path d="M4.51172 114.264L145.489 54.8047V146.546H4.51172V114.264Z" fill="#E3E3E3"/>
<path d="M4.51172 120.573L145.489 61.4141V146.549H4.51172V120.573Z" fill="#E0E0E0"/>
<path d="M4.51172 127.175L145.489 68.0156V146.544H4.51172V127.175Z" fill="#DEDEDE"/>
<path d="M4.51172 133.784L145.489 74.625V146.547H4.51172V133.784Z" fill="#DBDBDB"/>
<path d="M4.51172 140.694L145.489 81.2344V146.85H4.51172V140.694Z" fill="#D9D9D9"/>
<path d="M4.51172 3H145.489V146.844H4.51172V3Z" stroke="#999999" stroke-width="0.368068"/>
<path d="M23.0073 18.3151C25.6234 18.3151 27.7442 17.0378 27.7442 15.4622C27.7442 13.8866 25.6234 12.6094 23.0073 12.6094C20.3913 12.6094 18.2705 13.8866 18.2705 15.4622C18.2705 17.0378 20.3913 18.3151 23.0073 18.3151Z" fill="white" stroke="#CCCCCC" stroke-width="0.368068"/>
<path d="M6.7666 93.5469H142.782V118.772H6.7666V93.5469Z" fill="#CCCCCC"/>
<path d="M56.165 93.5469H93.6086V118.772H56.165V93.5469Z" fill="#D9D9D9"/>
<path d="M6.7666 93.5469H142.782" stroke="#666666" stroke-width="0.368068"/>
<path d="M98.1201 95.3438H138.27V106.155H98.1201V95.3438Z" fill="#339966"/>
<path d="M98.1201 106.159L138.27 98.3516V106.159H98.1201Z" fill="#3DA370"/>
<path d="M103.534 106.157L138.271 99.25V106.157H103.534Z" fill="#47AD7A"/>
<path d="M108.496 106.154L138.271 100.148V106.154H108.496Z" fill="#52B885"/>
<path d="M113.459 106.156L138.271 101.352V106.156H113.459Z" fill="#5EC491"/>
<path d="M118.421 106.154L138.271 102.25V106.154H118.421Z" fill="#69CF9C"/>
<path d="M123.835 106.156L138.271 103.453V106.156H123.835Z" fill="#73D9A6"/>
<path d="M98.1201 106.155V95.3438H138.27" stroke="black" stroke-width="0.368068"/>
<path d="M138.271 95.0469V106.158H98.5713" stroke="white" stroke-width="0.368068"/>
<path d="M131.053 110.961H138.271V115.465H131.053V110.961Z" fill="white"/>
<path d="M120.226 110.961H127.444V115.465H120.226V110.961Z" fill="white"/>
<path d="M108.947 110.961H116.616V115.465H108.947V110.961Z" fill="white"/>
<path d="M98.1201 110.961H105.789V115.465H98.1201V110.961Z" fill="white"/>
<path d="M82.7822 113.367H90.0003V115.469H82.7822V113.367Z" fill="white"/>
<path d="M73.7598 113.367H80.5267V115.469H73.7598V113.367Z" fill="white"/>
<path d="M60.6768 97.4453H65.188V102.25H60.6768V97.4453Z" fill="white"/>
<path d="M64.2861 110.961H71.0531V115.465H64.2861V110.961Z" fill="white"/>
<path d="M80.7515 103.15C83.3676 103.15 85.4883 101.738 85.4883 99.9969C85.4883 98.2555 83.3676 96.8438 80.7515 96.8438C78.1354 96.8438 76.0146 98.2555 76.0146 99.9969C76.0146 101.738 78.1354 103.15 80.7515 103.15Z" fill="white"/>
<path d="M132.406 111.562H136.918V114.866H132.406V111.562Z" fill="#4C4C4C"/>
<path d="M121.128 111.562H126.09V114.866H121.128V111.562Z" fill="#4C4C4C"/>
<path d="M110.301 111.562H115.263V114.866H110.301V111.562Z" fill="#4C4C4C"/>
<path d="M99.4736 111.562H104.436V114.866H99.4736V111.562Z" fill="#4C4C4C"/>
<path d="M20.5264 13.9609H21.8798V16.9639H20.5264V13.9609Z" fill="#666666"/>
<path d="M24.1357 13.9609H25.4891V16.9639H24.1357V13.9609Z" fill="#666666"/>
<path d="M6.7666 118.766H142.782" stroke="white" stroke-width="0.368068"/>
<path d="M56.165 93.5469H93.6086" stroke="#B2B2B2" stroke-width="0.368068"/>
<path d="M56.165 118.766H93.6086" stroke="#B2B2B2" stroke-width="0.368068"/>
<path d="M84.1357 113.961H89.0981V114.862H84.1357V113.961Z" fill="#B2B2B2"/>
<path d="M74.6621 113.961H79.6245V114.862H74.6621V113.961Z" fill="#B2B2B2"/>
<path d="M65.1875 111.562H70.1499V114.866H65.1875V111.562Z" fill="#B2B2B2"/>
<path d="M62.0303 98.3516H64.2859V101.655H62.0303V98.3516Z" fill="#B2B2B2"/>
<path d="M80.7516 102.098C82.6203 102.098 84.1351 101.09 84.1351 99.846C84.1351 98.6021 82.6203 97.5938 80.7516 97.5938C78.883 97.5938 77.3682 98.6021 77.3682 99.846C77.3682 101.09 78.883 102.098 80.7516 102.098Z" fill="#B2B2B2"/>
<path d="M4.51172 146.544H145.489V3" stroke="black" stroke-width="0.368068"/>
</g>
<defs>
<clipPath id="clip0_2109_222617">
<rect width="150" height="150" fill="white"/>
</clipPath>
</defs>
</svg>
