<svg width="150" height="150" viewBox="0 0 150 150" fill="none" xmlns="http://www.w3.org/2000/svg">
<g clip-path="url(#clip0_2109_222729)">
<path d="M0 6.60938H150V150.003H0V6.60938Z" fill="#FFFFCC" stroke="black" stroke-width="0.38879"/>
<path d="M20.6377 18.9219H75.0001V106.309H20.6377V18.9219Z" fill="#FFFFCC" stroke="black" stroke-width="0.38879"/>
<path d="M44.7988 51.5H48.574V53.6021H44.7988V51.5Z" fill="black" stroke="black" stroke-width="0.38879"/>
<path d="M31.7109 51.5H35.4861V53.6021H31.7109V51.5Z" fill="black" stroke="black" stroke-width="0.38879"/>
<path d="M58.1377 51.5H61.9129V53.6021H58.1377V51.5Z" fill="black" stroke="black" stroke-width="0.38879"/>
<path d="M27.9365 62.6094H67.4499V68.1649H27.9365V62.6094Z" fill="#00FF00" stroke="black" stroke-width="0.38879"/>
<path d="M27.9365 62.6094H67.4499V63.8106H27.9365V62.6094Z" fill="#009933"/>
<path d="M11.0742 9.90625H138.675V146.693H11.0742V9.90625Z" stroke="#7F7F7F" stroke-width="0.38879"/>
<path d="M20.6377 18.9219H75.0001V48.051H20.6377V18.9219Z" fill="#FFFF99" stroke="black" stroke-width="0.38879"/>
<path d="M24.1611 21.1719H71.2249V45.7965H24.1611V21.1719Z" fill="#E5E5E5" stroke="black" stroke-width="0.38879"/>
<path d="M26.1748 36.9375H35.4869V40.2408H26.1748V36.9375Z" fill="#000066" stroke="black" stroke-width="0.38879"/>
<path d="M37.5 36.9375H46.8121V40.2408H37.5V36.9375Z" fill="#000066" stroke="black" stroke-width="0.38879"/>
<path d="M48.5742 36.9375H57.8863V40.2408H48.5742V36.9375Z" fill="#000066" stroke="black" stroke-width="0.38879"/>
<path d="M59.8994 36.9375H69.2115V40.2408H59.8994V36.9375Z" fill="#000066" stroke="black" stroke-width="0.38879"/>
<path d="M26.1748 41.4453H35.4869V44.7486H26.1748V41.4453Z" fill="#000066" stroke="black" stroke-width="0.38879"/>
<path d="M37.5 41.4453H46.8121V44.7486H37.5V41.4453Z" fill="#000066" stroke="black" stroke-width="0.38879"/>
<path d="M48.5742 41.4453H57.8863V44.7486H48.5742V41.4453Z" fill="#000066" stroke="black" stroke-width="0.38879"/>
<path d="M27.9365 24.625H67.4499V30.1806H27.9365V24.625Z" fill="#99CCCC" stroke="black" stroke-width="0.38879"/>
<path d="M27.9365 24.625H67.4499V25.6761H27.9365V24.625Z" fill="#669999"/>
<path d="M140.688 8.85574L147.986 7.80469V148.796L140.688 147.594V8.85574Z" fill="#FFFF99"/>
<path d="M1.76172 148.801L9.31205 147.75H140.688L147.987 148.801H1.76172Z" fill="#FFFF99"/>
<path d="M3.52344 6.60661H146.225V0H3.52344V6.60661Z" fill="black" stroke="black" stroke-width="0.38879"/>
<path d="M7.29883 1.05469H142.45V2.10574H7.29883V1.05469Z" fill="#CC3300"/>
<path d="M144.211 10.9615C145.184 10.9615 145.973 10.4909 145.973 9.91043C145.973 9.32995 145.184 8.85938 144.211 8.85938C143.238 8.85938 142.449 9.32995 142.449 9.91043C142.449 10.4909 143.238 10.9615 144.211 10.9615Z" fill="black" stroke="black" stroke-width="0.38879"/>
<path d="M144.211 11.1116V8.85938" stroke="#7F7F7F" stroke-width="0.38879"/>
<path d="M5.53686 11.1133C6.64884 11.1133 7.55028 10.5755 7.55028 9.91214C7.55028 9.24873 6.64884 8.71094 5.53686 8.71094C4.42488 8.71094 3.52344 9.24873 3.52344 9.91214C3.52344 10.5755 4.42488 11.1133 5.53686 11.1133Z" fill="black" stroke="black" stroke-width="0.38879"/>
<path d="M5.53711 11.1116V8.85938" stroke="#7F7F7F" stroke-width="0.38879"/>
<path d="M144.211 147.446C145.184 147.446 145.973 146.975 145.973 146.395C145.973 145.814 145.184 145.344 144.211 145.344C143.238 145.344 142.449 145.814 142.449 146.395C142.449 146.975 143.238 147.446 144.211 147.446Z" fill="black" stroke="black" stroke-width="0.38879"/>
<path d="M144.211 147.596V145.344" stroke="#7F7F7F" stroke-width="0.38879"/>
<path d="M5.53686 147.598C6.64884 147.598 7.55028 147.06 7.55028 146.397C7.55028 145.733 6.64884 145.195 5.53686 145.195C4.42488 145.195 3.52344 145.733 3.52344 146.397C3.52344 147.06 4.42488 147.598 5.53686 147.598Z" fill="black" stroke="black" stroke-width="0.38879"/>
<path d="M5.53711 147.596V145.344" stroke="#7F7F7F" stroke-width="0.38879"/>
</g>
<defs>
<clipPath id="clip0_2109_222729">
<rect width="150" height="150" fill="white"/>
</clipPath>
</defs>
</svg>
