<svg width="150" height="150" viewBox="0 0 150 150" fill="none" xmlns="http://www.w3.org/2000/svg">
<g clip-path="url(#clip0_2109_221563)">
<path d="M0 136.836H150V140.284H0V136.836Z" fill="black"/>
<path d="M0 0H150V136.834H0V0Z" fill="#F2E5CC"/>
<path d="M0 97.1788L150 39.9688V136.834H0V97.1788Z" fill="#EDE0C7"/>
<path d="M0 102.976L150 45.6094V136.832H0V102.976Z" fill="#E8DBC2"/>
<path d="M0 111.444L150 54.2344V136.836H0V111.444Z" fill="#E3D6BD"/>
<path d="M126.576 9.5625H142.192V132.133H126.576V9.5625Z" fill="#666666"/>
<path d="M0 0H150V6.42633H0V0Z" fill="#666666"/>
<path d="M0 0H150V136.834H0V0Z" stroke="black" stroke-width="0.306819"/>
<path d="M74.7744 133.7V9.5625" stroke="#BFB299" stroke-width="0.306819"/>
<path d="M78.0781 78.0558V65.2031H79.5796V78.0558H78.0781Z" fill="black"/>
<path d="M70.2705 78.0558V65.2031H71.772V78.0558H70.2705Z" fill="black"/>
<path d="M118.469 136.836H124.775V150.002H118.469V136.836Z" fill="#333333" stroke="black" stroke-width="0.306819"/>
<path d="M70.2705 136.836H79.5798V150.002H70.2705V136.836Z" fill="#333333" stroke="black" stroke-width="0.306819"/>
<path d="M3.30371 136.836H12.4629V150.002H3.30371V136.836Z" fill="#333333" stroke="black" stroke-width="0.306819"/>
<path d="M146.547 21.1612V14.5781H148.499V21.1612H146.547Z" fill="#4C0000"/>
<path d="M146.547 74.919V68.3359H148.499V74.919H146.547Z" fill="#4C0000"/>
<path d="M146.547 127.114V120.531H148.499V127.114H146.547Z" fill="#4C0000"/>
<path d="M1.50195 74.919V68.3359H2.8533V74.919H1.50195Z" fill="#4C0000"/>
<path d="M1.50195 127.114V120.531H2.8533V127.114H1.50195Z" fill="#4C0000"/>
<path d="M1.50195 21.1612V14.5781H2.8533V21.1612H1.50195Z" fill="#4C0000"/>
<path d="M0 6.42969H150" stroke="black" stroke-width="0.306819"/>
<path d="M142.192 9.5625H143.694V132.133H142.192V9.5625Z" fill="#333333"/>
<path d="M124.774 9.5625H126.576V132.133H124.774V9.5625Z" fill="#999999"/>
<path d="M3.30371 133.7V9.5625H146.547" stroke="white" stroke-width="0.306819"/>
<path d="M3.30371 133.7H146.547V9.5625" stroke="#BFB299" stroke-width="0.306819"/>
<path d="M129.58 19.5938H138.889V32.7599H129.58V19.5938Z" fill="#CCCCCC"/>
<path d="M129.58 32.4464V19.5938H138.889" stroke="white" stroke-width="0.306819"/>
<path d="M138.889 19.5938V32.4464H129.58" stroke="black" stroke-width="0.306819"/>
<path d="M131.081 22.7266H137.387V24.294H131.081V22.7266Z" fill="#669966"/>
<path d="M142.192 1.41406H148.499V3.45168H142.192V1.41406Z" fill="#B23200"/>
<path d="M134.385 128.68H140.691V130.561H134.385V128.68Z" fill="#B2B2B2"/>
</g>
<defs>
<clipPath id="clip0_2109_221563">
<rect width="150" height="150" fill="white"/>
</clipPath>
</defs>
</svg>
