<svg width="150" height="150" viewBox="0 0 150 150" fill="none" xmlns="http://www.w3.org/2000/svg">
<g clip-path="url(#clip0_2109_221597)">
<path d="M8.70898 146.346L17.5678 52.5703H132.283L141.141 146.346H8.70898Z" fill="#194C19" stroke="black" stroke-width="0.349153"/>
<path d="M11.2617 146.346L19.9704 52.5703H129.88L138.589 146.346H11.2617Z" fill="#336633"/>
<path d="M11.2617 146.348L14.8653 108.188L131.982 77.3359L138.589 146.348H11.2617Z" fill="#2E612E"/>
<path d="M11.2617 146.348L14.1146 118.337L132.883 87.8906L138.589 146.348H11.2617Z" fill="#295C29"/>
<path d="M11.2617 146.343L12.7632 131.323L134.385 102.906L138.589 146.343H11.2617Z" fill="#245724"/>
<path d="M11.2617 146.346L19.9704 52.5703H129.88L138.589 146.346H11.2617Z" stroke="black" stroke-width="0.349153"/>
<path d="M107.357 52.5703H110.36L111.861 146.346H105.855L107.357 52.5703Z" fill="#669966"/>
<path d="M73.4234 52.5703H76.4264L77.9279 146.346H71.9219L73.4234 52.5703Z" fill="#669966"/>
<path d="M39.4898 52.5703H42.4928L43.9943 146.346H37.9883L39.4898 52.5703Z" fill="#669966"/>
<path d="M38.2881 146.346L39.4893 52.5703" stroke="#CCFFCC" stroke-width="0.349153"/>
<path d="M71.9219 146.346L73.4234 52.5703" stroke="#CCFFCC" stroke-width="0.349153"/>
<path d="M105.855 146.346L107.357 52.5703" stroke="#CCFFCC" stroke-width="0.349153"/>
<path d="M110.36 52.5703L111.862 146.346" stroke="#003300" stroke-width="0.349153"/>
<path d="M76.4268 52.5703L77.9283 146.346" stroke="#003300" stroke-width="0.349153"/>
<path d="M42.4922 52.5703L43.9937 146.346" stroke="#003300" stroke-width="0.349153"/>
<path d="M17.2676 44.8594H132.583V52.5725H17.2676V44.8594Z" fill="#336633" stroke="black" stroke-width="0.349153"/>
<path d="M0 146.344H150V149.997H0V146.344Z" fill="#336633" stroke="black" stroke-width="0.349153"/>
<path d="M22.9727 44.8579V5.88633L25.9757 1.82679H51.8015L54.8045 0H95.0447L98.0477 1.82679H124.174L126.877 5.88633V44.8579H22.9727Z" fill="#336633" stroke="black" stroke-width="0.349153"/>
<path d="M51.8013 1.82812L49.0986 44.8592" stroke="#003300" stroke-width="0.349153"/>
<path d="M98.0479 1.82812L101.051 44.8592" stroke="#003300" stroke-width="0.349153"/>
<path d="M99.5498 9.74219H126.877" stroke="#99CC99" stroke-width="0.349153"/>
<path d="M51.8018 7.71094H98.048" stroke="#99CC99" stroke-width="0.349153"/>
<path d="M22.9727 9.74219H50.3" stroke="#99CC99" stroke-width="0.349153"/>
</g>
<defs>
<clipPath id="clip0_2109_221597">
<rect width="150" height="150" fill="white"/>
</clipPath>
</defs>
</svg>
