<svg width="150" height="150" viewBox="0 0 150 150" fill="none" xmlns="http://www.w3.org/2000/svg">
<g clip-path="url(#clip0_2109_223620)">
<path d="M13.8143 26.9888L1.50195 15.4844H3.60406L13.8143 24.5552H16.2167L25.6761 15.4844H27.6281L16.2167 26.9888H13.8143Z" fill="#663333" stroke="black" stroke-width="0.364522"/>
<path d="M12.9131 4.20312H17.1173V150H12.9131V4.20312Z" fill="#663333" stroke="black" stroke-width="0.364522"/>
<path d="M0 12.6094H29.2793V15.4855H0V12.6094Z" fill="#996633" stroke="black" stroke-width="0.364522"/>
<path d="M27.6279 12.6094L35.2856 15.928L42.9432 18.8041L50.4508 21.2377L58.1084 23.2288L65.7661 24.7775L73.2736 26.105L80.9312 26.7687L88.4387 26.9899L96.0964 26.7687L103.754 26.105L111.412 24.7775L119.069 23.2288L126.727 21.2377L134.385 18.8041L142.192 15.928L146.096 14.158L150 12.6094" stroke="black" stroke-width="0.364522"/>
<path d="M25.6758 12.6094L33.1833 15.928L40.6908 18.8041L48.3485 21.2377L55.856 23.2288L63.5136 24.7775L71.0211 26.105L78.6788 26.7687L86.1863 26.9899L93.8439 26.7687L101.502 26.105L109.159 24.7775L116.817 23.2288L124.475 21.2377L132.132 18.8041L139.79 15.928L147.448 12.6094" stroke="black" stroke-width="0.364522"/>
<path d="M3.60352 12.6094L11.2612 15.928L18.9188 18.8041L26.4263 21.2377L34.084 23.2288L41.7417 24.7775L49.3993 26.105L56.9068 26.7687L64.5645 26.9899L72.2221 26.7687L79.8798 26.105L87.5374 24.7775L95.1951 23.2288L102.853 21.2377L110.51 18.8041L118.168 15.928L125.826 12.6094" stroke="black" stroke-width="0.364522"/>
<path d="M1.50195 12.6094L9.15961 15.928L16.8173 18.8041L24.4749 21.2377L31.9824 23.2288L39.6401 24.7775L47.1476 26.105L54.8053 26.7687L62.3128 26.9899L69.9704 26.7687L77.4779 26.105L85.1356 24.7775L92.7932 23.2288L100.451 21.2377L108.109 18.8041L115.766 15.928L123.424 12.6094" stroke="black" stroke-width="0.364522"/>
<path d="M1.50195 12.6094V7.74219" stroke="black" stroke-width="0.364522"/>
<path d="M2.40263 11.2812H0.750977" stroke="black" stroke-width="0.364522"/>
<path d="M0.750977 10.1797H2.40263" stroke="black" stroke-width="0.364522"/>
<path d="M2.40263 8.85156H0.750977" stroke="black" stroke-width="0.364522"/>
<path d="M3.60352 12.6094V7.74219" stroke="black" stroke-width="0.364522"/>
<path d="M4.35452 11.2812H3.15332" stroke="black" stroke-width="0.364522"/>
<path d="M3.15332 10.1797H4.35452" stroke="black" stroke-width="0.364522"/>
<path d="M4.35452 8.85156H3.15332" stroke="black" stroke-width="0.364522"/>
<path d="M25.2256 12.6094V7.74219" stroke="black" stroke-width="0.364522"/>
<path d="M25.9756 11.2812H24.7744" stroke="black" stroke-width="0.364522"/>
<path d="M24.7744 10.1797H25.9756" stroke="black" stroke-width="0.364522"/>
<path d="M25.9756 8.85156H24.7744" stroke="black" stroke-width="0.364522"/>
<path d="M27.6279 12.6094V7.74219" stroke="black" stroke-width="0.364522"/>
<path d="M28.5286 11.2812H26.877" stroke="black" stroke-width="0.364522"/>
<path d="M26.877 10.1797H28.5286" stroke="black" stroke-width="0.364522"/>
<path d="M28.5286 8.85156H26.877" stroke="black" stroke-width="0.364522"/>
<path d="M13.8135 4.64602V0" stroke="black" stroke-width="0.364522"/>
<path d="M14.5647 3.53906H12.9131" stroke="black" stroke-width="0.364522"/>
<path d="M12.9131 2.21094H14.5647" stroke="black" stroke-width="0.364522"/>
<path d="M14.5647 1.10938H12.9131" stroke="black" stroke-width="0.364522"/>
<path d="M16.2158 4.64602V0" stroke="black" stroke-width="0.364522"/>
<path d="M17.1175 3.53906H15.4658" stroke="black" stroke-width="0.364522"/>
<path d="M15.4658 2.21094H17.1175" stroke="black" stroke-width="0.364522"/>
<path d="M17.1175 1.10938H15.4658" stroke="black" stroke-width="0.364522"/>
<path d="M15.4658 141.153V44.25" stroke="black" stroke-width="0.364522"/>
<path d="M5.25488 14.8203H24.0237" stroke="black" stroke-width="0.364522"/>
</g>
<defs>
<clipPath id="clip0_2109_223620">
<rect width="150" height="150" fill="white"/>
</clipPath>
</defs>
</svg>
