<svg width="150" height="150" viewBox="0 0 150 150" fill="none" xmlns="http://www.w3.org/2000/svg">
<g clip-path="url(#clip0_2109_234782)">
<path d="M150 137.387V12.4625L148.949 7.65766L146.246 3.6036L142.192 0.900901L138.589 0H137.387H12.4625L7.65766 0.900901L3.6036 3.6036L0.900901 7.65766L0 11.2613V12.4625V137.387L0.900901 142.192L3.6036 146.246L7.65766 148.949L11.2613 149.85L12.4625 150H137.387L142.192 148.949L146.246 146.246L148.949 142.192L149.85 138.589L150 137.387Z" fill="white" stroke="black" stroke-width="0.3003"/>
<path d="M74.925 143.694C112.905 143.694 143.694 112.905 143.694 74.925C143.694 36.9451 112.905 6.15625 74.925 6.15625C36.9451 6.15625 6.15625 36.9451 6.15625 74.925C6.15625 112.905 36.9451 143.694 74.925 143.694Z" fill="#FF0000"/>
<path d="M15.4658 62.3125H134.385V87.5377H15.4658V62.3125Z" fill="white"/>
</g>
<defs>
<clipPath id="clip0_2109_234782">
<rect width="150" height="150" fill="white"/>
</clipPath>
</defs>
</svg>
