<svg width="150" height="150" viewBox="0 0 150 150" fill="none" xmlns="http://www.w3.org/2000/svg">
<g clip-path="url(#clip0_2109_234870)">
<path d="M0 0H150V150H0V0Z" fill="black" stroke="black" stroke-width="0.531426"/>
<path d="M74.9254 3.76562H71.0215H67.1176H63.3638H56.0065L49.0996 4.23584L42.4929 5.17628L36.1866 6.11672L30.3308 7.9976L24.9254 10.3487L19.9704 13.17L15.6161 16.9318L11.7122 21.634L7.05751 30.5681L3.60406 41.8534L1.80225 55.96L1.50195 61.6026V67.2452V74.7688L2.2527 87.4647L4.65511 103.922L8.40886 117.089L13.6641 126.963L17.7182 132.136L22.3728 136.368L27.6281 139.659L33.1836 142.01L39.3398 143.891L45.6461 145.302L52.553 145.772L59.7602 146.242H63.3638H67.1176H71.0215H82.7332H90.0905L97.2978 145.772L104.205 145.302L110.511 143.891L116.667 142.01L122.223 139.659L127.478 136.368L132.133 132.136L136.187 126.963L139.79 120.85L144.145 108.625L146.997 93.5775L148.349 74.7688V67.2452V61.6026L146.997 46.5556L144.145 33.8597L139.79 24.4553L134.235 16.9318L129.88 13.17L124.925 10.3487L119.52 7.9976L113.664 6.11672L107.358 5.17628L100.751 4.23584L93.8443 3.76562H86.4869H78.8293H74.9254Z" fill="white"/>
<path d="M74.9251 8.46094H71.0212H67.2674H63.5137H56.3065L49.3996 8.93116L42.9431 9.40138L36.787 10.812L31.0813 12.2227L25.6759 14.1036L20.8711 16.9249L16.5167 20.6866L12.7629 24.9186L8.10829 33.3826L4.80499 43.7274L3.00318 56.8935L2.70288 62.066L2.55273 67.2384L2.70288 74.2917L4.05424 91.6898L6.90709 106.267L11.1113 117.552L14.5647 123.665L18.6188 128.367L23.2735 132.129L28.3786 135.42L33.9341 137.771L39.79 139.182L46.0963 140.593L52.853 141.063L59.9101 141.533H63.5137H67.2674H71.0212H82.5828H89.9401L96.9972 141.063L103.754 140.593L110.06 139.182L115.916 137.771L121.472 135.42L126.577 132.129L131.231 128.367L135.285 123.665L138.739 117.552L142.943 106.267L145.796 91.6898L147.147 74.2917L147.297 67.2384L147.147 62.066L145.796 47.9594L142.943 36.6741L138.739 27.2697L133.334 20.6866L128.979 16.9249L124.174 14.1036L118.769 12.2227L113.063 10.812L106.907 9.40138L100.451 8.93116L93.5437 8.46094H86.3365H78.829H74.9251Z" fill="#FF0000"/>
<path d="M116.967 119.439V26.3359H125.375H125.676L127.177 26.8062L128.679 27.2764L130.03 28.687L131.381 32.4488L132.132 36.6808L132.582 40.4425L133.033 44.6745L133.183 49.8469V55.4895L133.033 60.1917L132.733 64.4237L132.132 69.1259L131.231 72.8877L130.18 76.1792L128.679 78.5303L128.078 79.0005L129.279 82.292L130.18 86.0538L130.781 90.756L131.381 94.5178L132.132 99.2199L132.432 101.571L134.985 119.439H130.18L127.327 99.2199L126.576 94.5178L125.976 90.756L125.225 86.9942L124.324 83.2325L123.874 82.292L122.372 80.8814H121.021V119.439H116.967Z" fill="white"/>
<path d="M98.6484 119.439V26.3359H113.363V41.8532H102.552V63.0131H112.612V78.5303H102.552V103.922H113.663V119.439H98.6484Z" fill="white"/>
<path d="M86.186 85.5802V70.0629H94.7446V107.21L93.6935 110.972L92.192 114.264L90.8407 117.085L89.4893 118.966L87.9878 120.376L86.7866 120.847L86.4863 121.317H86.186L84.6845 120.847L83.183 119.436L81.9818 118.025L80.4803 114.734L79.4293 111.442L78.5284 107.21L77.9278 103.449L77.4773 99.2165L77.0269 94.9846L76.7266 90.2824L76.5764 85.5802L76.2761 80.878L76.126 76.1758V74.7651V72.8843L76.2761 67.7118L76.4263 62.5394L76.5764 57.8372L76.8767 53.135L77.177 48.9031L77.6275 44.6711L78.2281 40.4391L78.9788 37.1476L80.0299 32.9156L81.2311 29.6241L82.4323 27.273L83.9338 25.3921L85.2851 24.9219H85.5854H85.8857L87.6875 25.3921L89.3392 26.8028L90.6905 29.6241L91.7416 32.4454L92.7926 36.6774L93.3932 40.4391L93.8437 44.2009L94.2941 48.9031L94.5944 53.6053L90.5404 56.8968L90.0899 51.7244L89.4893 47.9626L88.2881 43.7307L86.7866 41.3796H85.2851L83.9338 42.7902L82.5824 45.6115L81.6815 49.8435L80.9308 54.5457L80.6305 58.7777L80.3302 63.4799L80.18 68.6523V74.2949V79.9375L80.4803 85.11L80.7806 89.3419L81.2311 94.5144L81.9818 98.2761L83.0329 101.568L84.3842 103.919L85.8857 104.859L87.5374 103.919L88.7386 102.508L89.9398 99.6868L90.8407 96.8654V85.5802H86.186Z" fill="white"/>
<path d="M56.9072 119.439V26.3359H60.9613L69.0694 88.4049V26.3359H72.8231V119.439H68.6189L60.661 58.7811V119.439H56.9072Z" fill="white"/>
<path d="M54.8049 119.439H50.4506L48.6488 98.7497H40.6908L39.0392 119.439H34.835L42.4926 26.3359H46.847L54.8049 119.439Z" fill="white"/>
<path d="M16.667 26.3359H24.0243H24.3246H24.6249L26.1265 26.8062L27.4778 27.7466L28.8292 30.0977L30.0304 33.3892L30.9313 37.151L31.8322 41.383L32.4328 46.0852L32.8832 49.8469L33.1835 54.5491L33.3337 59.7215L33.4838 65.3642L33.634 69.5961V71.477V72.8877V74.7685V79.941L33.4838 84.6431L33.1835 89.8156L33.0334 94.0475L32.5829 98.7497L31.9823 102.982L31.3817 106.743L30.631 111.446L29.5799 114.737L28.2286 117.559L26.7271 118.969L25.3757 119.439H24.9253H24.3246H16.667V26.3359Z" fill="white"/>
<path d="M121.021 65.3625H124.024L125.976 64.8923L127.478 64.4221H127.778L128.679 61.1306L129.28 56.4284V54.5475L129.13 49.3751L128.529 45.1431L127.328 42.792L125.676 42.3218L124.775 41.8516H121.021V65.3625Z" fill="#FF0000"/>
<path d="M47.4472 83.2323L44.5943 48.9062L41.8916 83.2323H47.4472Z" fill="#FF0000"/>
<path d="M20.7207 41.8516V103.921H23.8739H24.1742L25.976 103.45L27.3273 102.04L28.3784 98.7481L28.8288 93.5757L29.2793 89.3437L29.5796 84.6415V79.9393L29.7297 77.5882V76.1776V75.2371V70.0647L29.5796 65.3625L29.4294 60.1901L28.979 55.9581L28.6787 51.7262L28.0781 47.9644L27.027 45.1431L25.8258 43.2622L24.1742 42.3218L23.7237 41.8516H23.1231H22.5225H20.7207Z" fill="#FF0000"/>
</g>
<defs>
<clipPath id="clip0_2109_234870">
<rect width="150" height="150" fill="white"/>
</clipPath>
</defs>
</svg>
