<svg width="150" height="150" viewBox="0 0 150 150" fill="none" xmlns="http://www.w3.org/2000/svg">
<g clip-path="url(#clip0_2109_234657)">
<path d="M0 0H150V150H0V0Z" fill="black" stroke="black" stroke-width="0.601504"/>
<path d="M37.3877 0H56.3066V75.9036H37.3877V0Z" fill="#FFFF00" stroke="black" stroke-width="0.601504"/>
<path d="M18.9189 75.9062H37.3874V150.003H18.9189V75.9062Z" fill="#FFFF00" stroke="black" stroke-width="0.601504"/>
<path d="M37.3877 0H56.3066V75.9036H37.3877V0Z" fill="#FFFF00" stroke="black" stroke-width="0.601504"/>
<path d="M0 0H18.9189V75.9036H0V0Z" fill="#FFFF00" stroke="black" stroke-width="0.601504"/>
<path d="M93.8438 75.9062H112.462V150.003H93.8438V75.9062Z" fill="#FFFF00" stroke="black" stroke-width="0.601504"/>
<path d="M74.9248 0H93.8437V75.9036H74.9248V0Z" fill="#FFFF00" stroke="black" stroke-width="0.601504"/>
<path d="M93.8438 75.9062H112.462V150.003H93.8438V75.9062Z" fill="#FFFF00" stroke="black" stroke-width="0.601504"/>
<path d="M56.3066 75.9062H74.9253V150.003H56.3066V75.9062Z" fill="#FFFF00" stroke="black" stroke-width="0.601504"/>
<path d="M131.381 75.9062H149.999V150.003H131.381V75.9062Z" fill="#FFFF00" stroke="black" stroke-width="0.601504"/>
<path d="M112.463 0H131.382V75.9036H112.463V0Z" fill="#FFFF00" stroke="black" stroke-width="0.601504"/>
</g>
<defs>
<clipPath id="clip0_2109_234657">
<rect width="150" height="150" fill="white"/>
</clipPath>
</defs>
</svg>
