<svg width="150" height="150" viewBox="0 0 150 150" fill="none" xmlns="http://www.w3.org/2000/svg">
<g clip-path="url(#clip0_2109_234885)">
<path d="M0 0H150V150H0V0Z" fill="#FF6600" stroke="black" stroke-width="0.348212"/>
<path d="M3.75391 5.04688H146.096V61.5745H3.75391V5.04688Z" fill="black"/>
<path d="M74.925 7.875L6.15625 16.3541V49.8669L74.925 58.3461L143.694 49.8669V16.3541L74.925 7.875Z" fill="#FF6600"/>
<path d="M126.576 37.3484V32.3013H134.384V44.4143L132.883 46.0294L131.531 47.2407L129.88 48.2501L128.228 48.8558L127.177 49.0577H126.576H126.276L124.624 48.8558L122.973 48.2501L121.772 47.2407L120.27 45.6257L119.519 44.0106L118.919 42.3955L118.468 40.5785L118.018 38.5597L117.718 36.5409L117.567 34.522V33.9164V33.3107L117.718 31.09L117.868 28.8693L118.168 26.8504L118.618 25.0335L119.219 23.2165L119.97 21.6014L121.021 20.1882L122.072 19.1788L123.573 18.1694L125.225 17.7656H125.826H126.426H126.877L128.378 17.9675L129.73 18.5732L131.081 19.5826L132.282 21.1977L133.033 22.8127L133.633 24.6297L134.084 26.4466L134.234 27.0523L130.63 28.0617L129.88 26.0429L129.129 24.4278L127.928 23.4184L126.426 23.0146L124.775 23.4184L123.423 24.4278L122.372 26.2448L121.621 28.2636L121.321 30.2824L121.171 32.5032V35.1277L121.471 37.3484L121.772 39.1654L122.522 40.9823L123.724 42.5974L125.225 43.6068L126.877 43.8087L128.378 43.4049L129.73 42.3955L130.781 41.1842V37.3484H126.576Z" fill="black"/>
<path d="M100.15 48.6564V18.1719H103.754L111.111 38.5622V18.1719H114.565V48.6564H110.811L103.604 28.8717V48.6564H100.15Z" fill="black"/>
<path d="M93.0928 48.6564V18.1719H96.6964V48.6564H93.0928Z" fill="black"/>
<path d="M75.2256 48.6564V18.1719H78.8292L86.1865 38.5622V18.1719H89.64V48.6564H85.8862L78.679 28.8717V48.6564H75.2256Z" fill="black"/>
<path d="M57.0566 48.6564V18.1719H64.5641H65.3149L67.1167 18.3738L68.7684 18.9794L69.9696 20.1907L70.8705 22.0077L71.6212 24.2284L71.7714 26.2472L71.6212 28.468L71.3209 30.6887L70.5702 32.3038L69.5191 33.9188L68.1678 34.9283L67.1167 35.332L68.4681 36.7452L69.369 38.5622L70.1197 40.3791L71.0206 42.8018L73.2729 48.6564H68.9185L66.366 41.9942L65.7654 40.3791L65.0146 38.7641L63.9635 37.149L62.7623 36.1396L60.6602 35.9377V48.6564H57.0566Z" fill="black"/>
<path d="M55.2553 48.6564H51.3514L49.6998 41.7923H42.4926L40.9911 48.6564H37.2373L44.1442 18.1719H48.0481L55.2553 48.6564Z" fill="black"/>
<path d="M19.0694 48.6564L14.8652 18.1719H18.4688L21.1715 39.1678L24.4748 18.1719H28.9793L31.9824 39.5716L34.6851 18.1719H38.4388L34.2346 48.6564H30.0304L26.5769 26.0454L22.9733 48.6564H19.0694Z" fill="black"/>
<path d="M60.6602 30.8904H63.3629L65.1647 30.6885H66.6662L67.7172 29.2753L68.1677 27.2564L68.0175 25.4395L67.1166 24.0263L65.6151 23.4206L64.1136 23.2188H60.6602V30.8904Z" fill="#FF6600"/>
<path d="M48.6483 36.743L46.0958 25.4375L43.6934 36.743H48.6483Z" fill="#FF6600"/>
</g>
<defs>
<clipPath id="clip0_2109_234885">
<rect width="150" height="150" fill="white"/>
</clipPath>
</defs>
</svg>
