<svg width="150" height="150" viewBox="0 0 150 150" fill="none" xmlns="http://www.w3.org/2000/svg">
<g clip-path="url(#clip0_2109_234600)">
<path d="M150 145.448L129.879 0H128.378V11.6085L146.997 145.448H150Z" fill="#999999" stroke="black" stroke-width="0.369739"/>
<path d="M50.9009 145.448L30.7808 0H29.2793V11.6085L47.8979 145.448H50.9009Z" fill="#999999" stroke="black" stroke-width="0.369739"/>
<path d="M137.688 145.448L117.567 0H126.877L146.997 145.448H137.688Z" fill="#B2B2B2" stroke="black" stroke-width="0.369739"/>
<path d="M38.5889 145.448L18.4688 0H27.7781L47.8982 145.448H38.5889Z" fill="#B2B2B2" stroke="black" stroke-width="0.369739"/>
<path d="M145.495 11.6094H0V46.6625H145.495V11.6094Z" fill="white" stroke="black" stroke-width="0.369739"/>
<path d="M0 46.6625L8.85886 11.6094H18.1682L8.85886 46.6625H0Z" fill="#FF6600" stroke="black" stroke-width="0.369739"/>
<path d="M18.168 46.6625L27.177 11.6094H36.186L27.177 46.6625H18.168Z" fill="#FF6600" stroke="black" stroke-width="0.369739"/>
<path d="M36.1865 46.6625L45.4958 11.6094H54.5048L45.4958 46.6625H36.1865Z" fill="#FF6600" stroke="black" stroke-width="0.369739"/>
<path d="M54.5049 46.6625L63.5139 11.6094H72.5229L63.5139 46.6625H54.5049Z" fill="#FF6600" stroke="black" stroke-width="0.369739"/>
<path d="M72.5225 46.6625L81.8318 11.6094H90.8408L81.8318 46.6625H72.5225Z" fill="#FF6600" stroke="black" stroke-width="0.369739"/>
<path d="M90.8408 46.6625L99.8498 11.6094H108.859L99.8498 46.6625H90.8408Z" fill="#FF6600" stroke="black" stroke-width="0.369739"/>
<path d="M108.859 46.6625L118.169 11.6094H127.178L118.169 46.6625H108.859Z" fill="#FF6600" stroke="black" stroke-width="0.369739"/>
<path d="M127.177 46.6625L136.036 11.6094H145.495L136.036 46.6625H127.177Z" fill="#FF6600" stroke="black" stroke-width="0.369739"/>
<path d="M145.495 9.33594H148.498V48.9414H145.495V9.33594Z" fill="#B2B2B2" stroke="black" stroke-width="0.369739"/>
<path d="M0 9.33594H145.495V11.6121H0V9.33594Z" fill="white" stroke="black" stroke-width="0.369739"/>
<path d="M0 46.6641H145.495V48.9402H0V46.6641Z" fill="white" stroke="black" stroke-width="0.369739"/>
<path d="M0 150L18.4685 0H27.7778L9.15916 150H0Z" fill="#E5E5E5" stroke="black" stroke-width="0.369739"/>
<path d="M9.15918 150L27.7778 0H29.2793V11.6085L12.1622 150H9.15918Z" fill="#B2B2B2" stroke="black" stroke-width="0.369739"/>
<path d="M98.9492 150L117.568 0H126.877L108.259 150H98.9492Z" fill="#E5E5E5" stroke="black" stroke-width="0.369739"/>
<path d="M108.258 150L126.876 0H128.378V11.6085L111.261 150H108.258Z" fill="#B2B2B2" stroke="black" stroke-width="0.369739"/>
</g>
<defs>
<clipPath id="clip0_2109_234600">
<rect width="150" height="150" fill="white"/>
</clipPath>
</defs>
</svg>
