<svg width="150" height="150" viewBox="0 0 150 150" fill="none" xmlns="http://www.w3.org/2000/svg">
<g clip-path="url(#clip0_2109_234586)">
<path d="M0.327148 143.696L18.8113 134.086H131.352L150 143.696H0.327148Z" fill="#FF6600" stroke="black" stroke-width="0.31344"/>
<path d="M117.612 137.387L87.1864 1.35135V1.2012L82.7699 0.3003L77.5354 0H76.3904H75.0817L69.193 0.15015L64.4492 0.750751L62.9771 1.2012V1.35135L32.5518 137.387L32.7153 137.538L37.7862 138.889L43.675 139.339L49.5638 139.79L54.7982 139.94L60.5234 140.24H66.5757H68.5387L70.6652 140.39H72.9552H79.3347L85.5507 140.24L91.4394 140.09L97.001 139.94L102.072 139.64L107.797 139.339L112.377 138.889L117.121 137.838L117.612 137.538V137.387Z" fill="#FF6600" stroke="black" stroke-width="0.31344"/>
<path d="M0 143.695H149.673V150.002H0V143.695Z" fill="#CC3300" stroke="black" stroke-width="0.31344"/>
<path d="M67.884 6.15625L54.4707 137.387H67.884L74.7542 6.15625H67.884Z" fill="#FFCCAB"/>
</g>
<defs>
<clipPath id="clip0_2109_234586">
<rect width="150" height="150" fill="white"/>
</clipPath>
</defs>
</svg>
