<svg width="150" height="150" viewBox="0 0 150 150" fill="none" xmlns="http://www.w3.org/2000/svg">
<g clip-path="url(#clip0_2109_234701)">
<path d="M0 0H150V150H0V0Z" fill="black" stroke="black" stroke-width="0.601504"/>
<path d="M37.3877 0H56.3066V75.3012H37.3877V0Z" fill="white" stroke="black" stroke-width="0.601504"/>
<path d="M18.7686 75.3047H37.3872V150.003H18.7686V75.3047Z" fill="white" stroke="black" stroke-width="0.601504"/>
<path d="M37.3877 0H56.3066V75.3012H37.3877V0Z" fill="white" stroke="black" stroke-width="0.601504"/>
<path d="M0 0H18.7688V75.3012H0V0Z" fill="white" stroke="black" stroke-width="0.601504"/>
<path d="M93.8438 75.3047H112.462V150.003H93.8438V75.3047Z" fill="white" stroke="black" stroke-width="0.601504"/>
<path d="M74.9248 0H93.8437V75.3012H74.9248V0Z" fill="white" stroke="black" stroke-width="0.601504"/>
<path d="M93.8438 75.3047H112.462V150.003H93.8438V75.3047Z" fill="white" stroke="black" stroke-width="0.601504"/>
<path d="M56.3066 75.3047H74.9253V150.003H56.3066V75.3047Z" fill="white" stroke="black" stroke-width="0.601504"/>
<path d="M131.231 75.3047H150V150.003H131.231V75.3047Z" fill="white" stroke="black" stroke-width="0.601504"/>
<path d="M112.463 0H131.232V75.3012H112.463V0Z" fill="white" stroke="black" stroke-width="0.601504"/>
</g>
<defs>
<clipPath id="clip0_2109_234701">
<rect width="150" height="150" fill="white"/>
</clipPath>
</defs>
</svg>
