<svg width="150" height="150" viewBox="0 0 150 150" fill="none" xmlns="http://www.w3.org/2000/svg">
<g clip-path="url(#clip0_2109_234842)">
<path d="M70.1201 2.1021L73.5736 0H74.3243H74.9249H75.5255L79.7297 2.1021L147.748 70.1201L149.85 73.5736V74.3243L150 74.9249L149.85 75.5255L147.748 79.7297L79.7297 147.748L76.2763 149.85H75.5255L74.9249 150L74.3243 149.85L70.1201 147.748L2.1021 79.7297L0 76.2763V75.5255V74.9249V74.3243L2.1021 70.1201L70.1201 2.1021Z" fill="#FF6600" stroke="black" stroke-width="0.3003"/>
<path d="M70.42 8.25493L74.3239 6.60328L74.9245 6.45312L75.5251 6.60328L79.1287 8.25493L141.591 70.7174L143.243 74.321L143.393 74.9216L143.243 75.5222L141.591 79.1258L79.1287 141.588L75.5251 143.24L74.9245 143.39L74.3239 143.24L70.42 141.588L8.25786 79.1258L6.6062 75.5222L6.45605 74.9216L6.6062 74.321L8.25786 70.7174L70.42 8.25493Z" fill="black" stroke="black" stroke-width="0.3003"/>
<path d="M70.7207 11.5596L74.3243 9.90796L74.9249 9.75781L75.5255 9.90796L79.1291 11.5596L138.288 70.7188L139.94 74.3224L140.09 74.923L139.94 75.5236L138.288 79.1272L79.1291 138.286L75.5255 139.938L74.9249 140.088L74.3243 139.938L70.7207 138.286L11.5616 79.1272L9.90992 75.5236L9.75977 74.923L9.90992 74.3224L11.5616 70.7188L70.7207 11.5596Z" fill="#FF6600" stroke="black" stroke-width="0.3003"/>
</g>
<defs>
<clipPath id="clip0_2109_234842">
<rect width="150" height="150" fill="white"/>
</clipPath>
</defs>
</svg>
