<svg width="150" height="150" viewBox="0 0 150 150" fill="none" xmlns="http://www.w3.org/2000/svg">
<g clip-path="url(#clip0_2109_234776)">
<path d="M81.8318 145.573L78.3784 148.978L75.976 149.83L75.3754 150H74.9249L70.5706 148.468L68.018 145.573L0.750751 13.4506L0 10.0454V9.36436V8.68331L1.2012 3.916L4.65465 0.681044L6.90691 0H7.65766H142.192L146.396 1.36209L149.249 5.27809L149.85 7.83201L150 8.68331V9.36436L148.949 13.4506L81.8318 145.573Z" fill="white" stroke="black" stroke-width="0.319779"/>
<path d="M81.2311 137.063L78.0779 140.298L75.8257 140.979L75.3752 141.149H74.9248L70.8707 139.617L68.6185 137.063L6.45632 16.5182L5.40527 12.9427V12.432V11.7509L7.05693 7.32413L10.6605 4.77021L12.0119 4.42969H12.7626H137.087L140.991 5.79178L143.694 9.36726L144.144 11.7509V12.432V12.9427L143.393 16.5182L81.2311 137.063Z" fill="#FF0000"/>
<path d="M77.9281 93.134L74.9251 95.1771L71.9221 93.134L42.793 35.5858L42.1924 34.2237L44.4446 30.1374L45.796 29.7969H104.054L107.508 33.0318L107.658 33.8831L107.057 35.5858L77.9281 93.134Z" fill="white"/>
</g>
<defs>
<clipPath id="clip0_2109_234776">
<rect width="150" height="150" fill="white"/>
</clipPath>
</defs>
</svg>
