<svg width="150" height="150" viewBox="0 0 150 150" fill="none" xmlns="http://www.w3.org/2000/svg">
<g clip-path="url(#clip0_2109_234848)">
<path d="M70.1201 1.95195L73.5736 0H74.1742H74.9249H75.6757L79.7297 1.95195L147.898 70.1201L149.85 73.5736V74.1742V74.9249V75.6757L147.898 79.7297L79.7297 147.898L76.2763 149.85H75.6757H74.9249H74.1742L70.1201 147.898L1.95195 79.7297L0 76.2763V75.6757V74.9249V74.1742L1.95195 70.1201L70.1201 1.95195Z" fill="#FFFF00" stroke="black" stroke-width="0.3003"/>
<path d="M70.4203 8.26103L74.3242 6.60938H74.9248H75.5254L79.129 8.26103L141.591 70.4232L143.243 74.3271V74.9277V75.5283L141.591 79.1319L79.129 141.594L75.5254 143.246H74.9248H74.3242L70.4203 141.594L8.2581 79.1319L6.60645 75.5283V74.9277V74.3271L8.2581 70.4232L70.4203 8.26103Z" fill="black" stroke="black" stroke-width="0.3003"/>
<path d="M70.7207 11.5596L74.3243 9.90796L74.9249 9.75781L75.5255 9.90796L79.1291 11.5596L138.288 70.7188L139.94 74.3224L140.09 74.923L139.94 75.5236L138.288 79.1272L79.1291 138.286L75.5255 139.938L74.9249 140.088L74.3243 139.938L70.7207 138.286L11.5616 79.1272L9.90992 75.5236L9.75977 74.923L9.90992 74.3224L11.5616 70.7188L70.7207 11.5596Z" fill="#FFFF00" stroke="black" stroke-width="0.3003"/>
</g>
<defs>
<clipPath id="clip0_2109_234848">
<rect width="150" height="150" fill="white"/>
</clipPath>
</defs>
</svg>
