<svg width="150" height="150" viewBox="0 0 150 150" fill="none" xmlns="http://www.w3.org/2000/svg">
<g clip-path="url(#clip0_2109_234765)">
<path d="M150 43.3934V106.456L106.476 150H43.5241L0 106.456V43.3934L43.5241 0H106.476L150 43.3934Z" fill="white" stroke="black" stroke-width="0.300752"/>
<path d="M146.385 44.8929V104.953L104.97 146.244H45.0299L3.61426 104.953V44.8929L45.0299 3.60156H104.97L146.385 44.8929Z" fill="#FF0000"/>
<path d="M110.241 102.404V48.5H120.633H122.139L126.657 49.1006L130.422 51.0526L133.434 55.1066L134.789 59.1607L135.392 63.8153L135.542 64.5661V65.3168L135.241 70.1216L133.886 74.7763L131.627 78.53L128.163 81.3829L123.645 81.9835L116.416 82.1336V102.404H110.241Z" fill="white"/>
<path d="M73.4941 75.3776V74.4767V73.5758V72.6749L73.7953 67.5698L74.5484 63.2155L76.205 58.5608L78.1628 54.5068L80.8737 51.2035L84.3375 48.9512L87.8014 47.9002L88.705 47.75L89.7592 47.9002L93.9761 48.9512L97.5905 51.3536L100.301 55.1074L102.259 59.1614L103.765 64.1164L104.368 68.3206L104.819 72.8251L104.97 74.4767V75.9782L104.669 80.4827L104.066 86.0383L102.862 90.8431L101.205 94.747L98.3435 98.8011L94.8797 101.504L90.964 102.855L90.0604 103.005H89.1568H88.2532L84.0363 101.954L80.4219 99.702L77.5604 96.2485L75.9038 92.1944L74.699 87.3896L73.7953 81.9842L73.4941 77.6299V75.3776Z" fill="white"/>
<path d="M55.7233 102.404V57.2087H46.2354V48.5H71.386V57.2087H61.898V102.404H55.7233Z" fill="white"/>
<path d="M15.5117 84.8371L21.837 83.4857L22.4394 87.9902L24.8491 91.8941L29.2165 93.5458L33.2828 92.4947L35.6924 89.1914L35.9936 84.8371L33.2828 81.5338L29.3671 79.732L24.9997 77.6299L20.9334 74.9272L18.5238 71.1734L17.1683 66.8191L16.8671 62.3146L17.4695 57.5098L19.1262 53.1554L21.837 49.8521L25.6021 48.0503L27.4093 47.9002L28.4635 47.75L29.9695 47.9002L33.8852 49.1014L37.4997 52.5548L39.6081 56.1584L40.9635 60.8131L41.2647 63.9662L34.9394 64.5668L33.584 60.3626L30.2708 57.5098L25.7527 57.6599L23.1924 61.1134L23.6442 65.6179L27.7105 68.0203L32.3792 69.6719L35.843 71.6239L39.3069 75.0773L41.1141 79.1314L42.1683 83.6359L42.3189 85.8881L42.4695 86.9392L42.3189 87.8401L41.7165 92.3446L40.3611 96.5488L37.4997 100.303L33.8852 102.255L29.9695 103.005H28.7647H27.2587L23.1924 101.954L19.2768 98.9512L17.1683 94.8971L15.9635 90.2425L15.5117 87.0893V86.0383V84.8371Z" fill="white"/>
<path d="M116.416 57.2109V73.4272H121.235L123.043 73.277L124.549 72.9767L126.055 72.6764L127.41 71.9257L128.314 70.4242L128.765 68.9227L129.067 67.5713L129.368 65.7695L129.217 64.1178L128.765 62.316L128.314 61.1148L127.41 59.6133L126.205 58.4121L124.85 57.9617L123.193 57.5112L121.536 57.3611L120.633 57.2109H116.416Z" fill="#FF0000"/>
<path d="M89.1569 93.5473C94.3969 93.5473 98.6448 85.4131 98.6448 75.3791C98.6448 65.3451 94.3969 57.2109 89.1569 57.2109C83.9168 57.2109 79.6689 65.3451 79.6689 75.3791C79.6689 85.4131 83.9168 93.5473 89.1569 93.5473Z" fill="#FF0000"/>
</g>
<defs>
<clipPath id="clip0_2109_234765">
<rect width="150" height="150" fill="white"/>
</clipPath>
</defs>
</svg>
