<svg width="150" height="150" viewBox="0 0 150 150" fill="none" xmlns="http://www.w3.org/2000/svg">
<g clip-path="url(#clip0_1_6816)">
<mask id="mask0_1_6816" style="mask-type:luminance" maskUnits="userSpaceOnUse" x="0" y="0" width="150" height="150">
<path d="M150 0H0V150H150V0Z" fill="white"/>
</mask>
<g mask="url(#mask0_1_6816)">
<path d="M150 10.5744L149.658 9.39948L144.178 6.26632L137.329 4.69974L132.877 3.91645L128.082 3.13316L122.603 2.34987L116.781 1.95822L110.616 1.17493L104.11 0.78329L97.2603 0.391645H90.0685L82.5342 0H75H67.4658L59.9315 0.391645H52.7397L45.8904 0.78329L39.3836 1.17493L33.2192 1.95822L27.3973 2.34987L21.9178 3.13316L17.1233 3.91645L12.6712 4.69974L5.82192 6.26632L1.36986 8.61619L0.342466 9.39948L0 10.5744L18.8356 142.167L23.2877 145.3L28.4247 146.475L35.274 147.65L39.3836 148.042L43.8356 148.825L48.2877 149.217H53.0822L58.2192 149.608L63.6986 150H69.1781H86.3014L91.7808 149.608L96.9178 149.217H101.712L106.507 148.825L110.616 148.042L114.726 147.65L121.575 146.475L126.712 145.3L130.822 142.95L131.164 142.167L150 10.5744Z" fill="#F0643E"/>
<path d="M131.164 142.171L150 10.5781L149.658 11.7531L148.63 12.928L144.178 14.8862L137.329 16.4528L132.877 17.6277L128.082 18.411L122.603 18.8027L116.781 19.586L110.616 20.3692L104.11 20.7609L97.2603 21.1525H90.0685L82.5342 21.5442H67.4658L59.9315 21.1525H52.7397L45.8904 20.7609L39.3836 20.3692L33.2192 19.586L27.3973 18.8027L21.9178 18.411L17.1233 17.6277L12.6712 16.4528L5.82192 14.8862L1.36986 12.928L0.342466 11.7531L0 10.5781L18.8356 142.171L23.2877 145.304L28.4247 146.479L35.274 147.654L39.3836 148.045L43.4932 148.829L48.2877 149.22H53.0822L58.2192 149.612L63.6986 150.004H69.1781H86.3014L91.7808 149.612L96.9178 149.22H101.712L106.507 148.829L110.616 148.045L114.726 147.654L121.575 146.479L126.712 145.304L130.822 142.954L131.164 142.171Z" fill="#F0643E"/>
<path d="M123.63 146.081L140.069 16.0547L134.589 17.2296L128.082 18.4046L120.891 19.1878L116.781 19.5795L112.671 19.9711L108.219 20.3628L103.767 20.7544H99.3152L94.5207 21.1461H89.7262L84.9316 21.5377H65.0686L60.2741 21.1461H55.4796L50.6851 20.7544H46.233L41.781 20.3628L37.3289 19.9711L33.2193 19.5795L25.6851 18.7962L18.4933 17.6213L12.6714 16.4463L9.93164 16.0547L26.37 146.081L30.4796 146.864L35.2741 147.647L40.7536 148.431L46.9179 148.822L53.4248 149.214L60.2741 149.606L67.4659 149.997H82.5344L89.7262 149.606L96.5755 149.214L103.082 148.822L109.247 148.431L114.726 147.647L119.521 146.864L123.63 146.081Z" fill="#F37755"/>
<path d="M114.384 147.649L127.74 18.4062L122.26 19.1896L116.096 19.5812L109.932 20.3645L103.082 20.7561L96.233 21.1479H89.0413L81.8495 21.5394H67.1234L59.9317 21.1479H52.7399L45.8906 20.7561L39.3837 20.3645L32.8769 19.5812L27.055 19.1896L21.918 18.4062L34.2467 147.649L38.3563 148.041L42.8084 148.824L47.6029 149.216H52.7399L57.8769 149.607L63.3563 149.999H85.6166L90.7536 149.607L96.233 149.216H101.028L105.822 148.824L110.274 148.041L114.384 147.649Z" fill="#F79174"/>
<path d="M103.082 148.828L111.986 19.9766L107.534 20.3682H103.082L98.6302 20.7599L93.8356 21.1515H89.0411L84.2466 21.5431H64.7261L59.9315 21.1515H55.137L50.3425 20.7599L45.548 20.3682H41.0959L36.9863 19.9766L45.8904 148.828L52.7398 149.219L59.5891 149.611L63.3562 150.003H85.6165L92.8082 149.611L99.6576 149.219L103.082 148.828Z" fill="#FBB29B"/>
<path d="M89.0408 149.608L93.8354 21.1484H84.2463L79.1093 21.5401H67.123L62.3285 21.1484H55.1367L59.9312 149.608L63.3559 150H85.6162L89.0408 149.608Z" fill="#FEE0D6"/>
<path d="M79.1093 149.999H78.0819H77.0545H75.6846H74.3148H73.2874H71.9175H70.5477H69.5203L68.1504 21.5391H69.5203H71.2326H72.6024H74.3148H76.0271H77.7394H79.4518H80.8216L79.1093 149.999Z" fill="white"/>
<path d="M75 21.1488C116.421 21.1488 150 16.4145 150 10.5744C150 4.73433 116.421 0 75 0C33.5786 0 0 4.73433 0 10.5744C0 16.4145 33.5786 21.1488 75 21.1488Z" stroke="#F0643E" stroke-width="0.732462"/>
<path d="M150 10.5744L149.658 9.39948L144.178 6.26632L137.329 4.69974L132.877 3.91645L128.082 3.13316L122.603 2.34987L116.781 1.95822L110.616 1.17493L104.11 0.78329L97.2603 0.391645H90.0685L82.5342 0H75H67.4658L59.9315 0.391645H52.7397L45.8904 0.78329L39.3836 1.17493L33.2192 1.95822L27.3973 2.34987L21.9178 3.13316L17.1233 3.91645L12.6712 4.69974L5.82192 6.26632L1.36986 8.61619L0.342466 9.39948L0 10.5744L18.8356 142.167L23.2877 145.3L28.4247 146.475L35.274 147.65L39.3836 148.042L43.8356 148.825L48.2877 149.217H53.0822L58.2192 149.608L63.6986 150H69.1781H86.3014L91.7808 149.608L96.9178 149.217H101.712L106.507 148.825L110.616 148.042L114.726 147.65L121.575 146.475L126.712 145.3L130.822 142.95L131.164 142.167L150 10.5744Z" stroke="#F0643E" stroke-width="0.732462"/>
</g>
</g>
<defs>
<clipPath id="clip0_1_6816">
<rect width="150" height="150" fill="white"/>
</clipPath>
</defs>
</svg>
