<svg width="33" height="150" viewBox="0 0 33 150" fill="none" xmlns="http://www.w3.org/2000/svg">
  <g clip-path="url(#clip0_12_407)">
    <mask id="mask0_12_407" style="mask-type:luminance" maskUnits="userSpaceOnUse" x="0" y="0" width="33" height="150">
      <path d="M33 0H0V150H33V0Z" fill="white"/>
    </mask>
    <g mask="url(#mask0_12_407)">
      <path d="M29.0277 146.095V146.396L25.361 148.348L20.1666 149.098H18.9443L17.7221 149.248H16.4999L11.611 148.948L6.72211 148.047L3.97211 146.396L3.81934 146.095V6.90616L5.95822 3.4527L10.3888 1.50075L15.1249 0.75H16.4999H17.7221L22.4582 1.50075L26.1249 3.00225L29.0277 6.30556V6.90616V146.095Z" fill="#D25E3F" stroke="#D15C3C" stroke-width="0.64582"/>
      <path d="M28.2636 146.998L16.4997 149.1L4.58301 146.998V6.90787L6.7219 3.45442L10.8469 1.35231L15.2775 0.751713L16.4997 0.601562L21.083 1.20216L25.5136 3.00396L28.2636 6.15712V6.90787V146.998Z" fill="#EE7756"/>
      <path d="M27.6532 147.298L16.5004 149.1L5.34766 147.298V6.90787L7.7921 3.00396L12.0699 1.20216L16.5004 0.601562L20.7782 1.20216L25.056 3.00396L27.5004 6.15712L27.6532 6.90787V147.298Z" fill="#F38567"/>
      <path d="M27.0418 147.599L16.5001 149.1L5.80566 147.599V6.90787L8.25011 3.00396L12.3751 1.20216L16.5001 0.601562L21.5418 1.35231L25.2084 3.45442L27.0418 6.90787V147.599Z" fill="#F49278"/>
      <path d="M25.6663 148.049L16.4997 149.1L7.33301 148.049V6.90787L9.31912 3.00396L13.7497 0.901863L16.4997 0.601562L20.7775 1.35231L24.5969 3.90487L25.6663 6.90787V148.049Z" fill="#F69E86"/>
      <path d="M23.3754 148.65L16.5004 149.1L9.47266 148.65V6.90787L9.62543 5.55652L10.0838 4.35532L10.6949 3.45442L11.6115 2.55351L12.5282 1.65261L13.7504 1.20216L14.9727 0.751713L16.5004 0.601562L17.8754 0.751713L19.0977 1.20216L20.3199 1.65261L21.3893 2.55351L22.1532 3.45442L22.7643 4.35532L23.2227 5.55652L23.3754 6.90787V148.65Z" fill="#F7AB96"/>
      <path d="M20.6254 148.65L16.5004 149.1L12.2227 148.65V6.90787L12.3754 5.55652L12.681 4.35532L12.9865 3.45442L13.4449 2.55351L14.056 1.65261L14.8199 1.20216L15.5838 0.751713L16.5004 0.601562L17.2643 0.751713L18.0282 1.20216L18.7921 1.65261L19.4032 2.55351L20.0143 3.45442L20.3199 4.35532L20.6254 5.55652V6.90787V148.65Z" fill="#F9C4B5"/>
      <path d="M17.5696 148.348H15.4307V6.90616V5.70495V4.50375L15.5834 3.4527L15.7362 2.5518L15.889 1.80105L16.0418 1.20045L16.1946 0.90015L16.5001 0.75L16.6529 0.90015L16.8057 1.20045L17.1112 1.80105L17.264 2.5518L17.4168 3.4527V4.50375L17.5696 5.70495V6.90616V148.348Z" fill="#FDEBE6"/>
      <path d="M1.11133 18.7183V18.2168H8.05577V18.7183H1.11133Z" fill="#D25F3F" stroke="#EE7959"/>
      <path d="M1.11133 37.3374V36.8359H8.05577V37.3374H1.11133Z" fill="#D25F3F" stroke="#EE7959"/>
      <path d="M1.11133 55.9563V55.3047H8.05577V55.9563H1.11133Z" fill="#D25F3F" stroke="#EE7959"/>
      <path d="M1.11133 74.4253V73.9238H8.05577V74.4253H1.11133Z" fill="#D25F3F" stroke="#EE7959"/>
      <path d="M1.11133 93.0445V92.543H8.05577V93.0445H1.11133Z" fill="#D25F3F" stroke="#EE7959"/>
      <path d="M1.11133 111.511V111.01H8.05577V111.511H1.11133Z" fill="#D25F3F" stroke="#EE7959"/>
      <path d="M1.11133 130.13V129.629H8.05577V130.13H1.11133Z" fill="#D25F3F" stroke="#EE7959"/>
      <path d="M24.792 18.7183V18.2168H31.7364V18.7183H24.792Z" fill="#D25F3F" stroke="#EE7959"/>
      <path d="M24.792 37.3374V36.8359H31.7364V37.3374H24.792Z" fill="#D25F3F" stroke="#EE7959"/>
      <path d="M24.792 55.9563V55.3047H31.7364V55.9563H24.792Z" fill="#D25F3F" stroke="#EE7959"/>
      <path d="M24.792 74.4253V73.9238H31.7364V74.4253H24.792Z" fill="#D25F3F" stroke="#EE7959"/>
      <path d="M24.792 93.0445V92.543H31.7364V93.0445H24.792Z" fill="#D25F3F" stroke="#EE7959"/>
      <path d="M24.792 111.511V111.01H31.7364V111.511H24.792Z" fill="#D25F3F" stroke="#EE7959"/>
      <path d="M24.792 130.13V129.629H31.7364V130.13H24.792Z" fill="#D25F3F" stroke="#EE7959"/>
      <path d="M13.5977 11.5625V36.3373Z" fill="#D25F3F"/>
      <path d="M13.5977 11.5625V36.3373" stroke="#EE7959" stroke-width="0.64582"/>
      <path d="M15.583 11.5625V36.3373Z" fill="#D25F3F"/>
      <path d="M15.583 11.5625V36.3373" stroke="#EE7959" stroke-width="0.64582"/>
      <path d="M13.5977 13.5137H15.5838Z" fill="#D25F3F"/>
      <path d="M13.5977 13.5137H15.5838" stroke="#EE7959" stroke-width="0.64582"/>
      <path d="M13.5977 15.6152H15.5838Z" fill="#D25F3F"/>
      <path d="M13.5977 15.6152H15.5838" stroke="#EE7959" stroke-width="0.64582"/>
      <path d="M13.5977 17.7168H15.5838Z" fill="#D25F3F"/>
      <path d="M13.5977 17.7168H15.5838" stroke="#EE7959" stroke-width="0.64582"/>
      <path d="M13.5977 19.8203H15.5838Z" fill="#D25F3F"/>
      <path d="M13.5977 19.8203H15.5838" stroke="#EE7959" stroke-width="0.64582"/>
      <path d="M13.5977 21.9219H15.5838Z" fill="#D25F3F"/>
      <path d="M13.5977 21.9219H15.5838" stroke="#EE7959" stroke-width="0.64582"/>
      <path d="M13.5977 23.873H15.5838Z" fill="#D25F3F"/>
      <path d="M13.5977 23.873H15.5838" stroke="#EE7959" stroke-width="0.64582"/>
      <path d="M13.5977 25.9766H15.5838Z" fill="#D25F3F"/>
      <path d="M13.5977 25.9766H15.5838" stroke="#EE7959" stroke-width="0.64582"/>
      <path d="M13.5977 28.0781H15.5838Z" fill="#D25F3F"/>
      <path d="M13.5977 28.0781H15.5838" stroke="#EE7959" stroke-width="0.64582"/>
      <path d="M13.5977 30.0293H15.5838Z" fill="#D25F3F"/>
      <path d="M13.5977 30.0293H15.5838" stroke="#EE7959" stroke-width="0.64582"/>
      <path d="M13.5977 32.1328H15.5838Z" fill="#D25F3F"/>
      <path d="M13.5977 32.1328H15.5838" stroke="#EE7959" stroke-width="0.64582"/>
      <path d="M13.5977 34.2344H15.5838Z" fill="#D25F3F"/>
      <path d="M13.5977 34.2344H15.5838" stroke="#EE7959" stroke-width="0.64582"/>
      <path d="M9.31934 30.1797V54.8043Z" fill="#D25F3F"/>
      <path d="M9.31934 30.1797V54.8043" stroke="#EE7959" stroke-width="0.64582"/>
      <path d="M11.458 30.1797V54.8043Z" fill="#D25F3F"/>
      <path d="M11.458 30.1797V54.8043" stroke="#EE7959" stroke-width="0.64582"/>
      <path d="M9.31934 32.1328H11.4582Z" fill="#D25F3F"/>
      <path d="M9.31934 32.1328H11.4582" stroke="#EE7959" stroke-width="0.64582"/>
      <path d="M9.31934 34.2344H11.4582Z" fill="#D25F3F"/>
      <path d="M9.31934 34.2344H11.4582" stroke="#EE7959" stroke-width="0.64582"/>
      <path d="M9.31934 36.1855H11.4582Z" fill="#D25F3F"/>
      <path d="M9.31934 36.1855H11.4582" stroke="#EE7959" stroke-width="0.64582"/>
      <path d="M9.31934 38.4375H11.4582Z" fill="#D25F3F"/>
      <path d="M9.31934 38.4375H11.4582" stroke="#EE7959" stroke-width="0.64582"/>
      <path d="M9.31934 40.3906H11.4582Z" fill="#D25F3F"/>
      <path d="M9.31934 40.3906H11.4582" stroke="#EE7959" stroke-width="0.64582"/>
      <path d="M9.31934 42.4922H11.4582Z" fill="#D25F3F"/>
      <path d="M9.31934 42.4922H11.4582" stroke="#EE7959" stroke-width="0.64582"/>
      <path d="M9.31934 44.4453H11.4582Z" fill="#D25F3F"/>
      <path d="M9.31934 44.4453H11.4582" stroke="#EE7959" stroke-width="0.64582"/>
      <path d="M9.31934 46.5469H11.4582Z" fill="#D25F3F"/>
      <path d="M9.31934 46.5469H11.4582" stroke="#EE7959" stroke-width="0.64582"/>
      <path d="M9.31934 48.6484H11.4582Z" fill="#D25F3F"/>
      <path d="M9.31934 48.6484H11.4582" stroke="#EE7959" stroke-width="0.64582"/>
      <path d="M9.31934 50.75H11.4582Z" fill="#D25F3F"/>
      <path d="M9.31934 50.75H11.4582" stroke="#EE7959" stroke-width="0.64582"/>
      <path d="M9.31934 52.8535H11.4582Z" fill="#D25F3F"/>
      <path d="M9.31934 52.8535H11.4582" stroke="#EE7959" stroke-width="0.64582"/>
      <path d="M13.5977 48.6484V73.4232Z" fill="#D25F3F"/>
      <path d="M13.5977 48.6484V73.4232" stroke="#EE7959" stroke-width="0.64582"/>
      <path d="M15.583 48.6484V73.4232Z" fill="#D25F3F"/>
      <path d="M15.583 48.6484V73.4232" stroke="#EE7959" stroke-width="0.64582"/>
      <path d="M13.5977 50.75H15.5838Z" fill="#D25F3F"/>
      <path d="M13.5977 50.75H15.5838" stroke="#EE7959" stroke-width="0.64582"/>
      <path d="M13.5977 52.8535H15.5838Z" fill="#D25F3F"/>
      <path d="M13.5977 52.8535H15.5838" stroke="#EE7959" stroke-width="0.64582"/>
      <path d="M13.5977 54.8047H15.5838Z" fill="#D25F3F"/>
      <path d="M13.5977 54.8047H15.5838" stroke="#EE7959" stroke-width="0.64582"/>
      <path d="M13.5977 56.9062H15.5838Z" fill="#D25F3F"/>
      <path d="M13.5977 56.9062H15.5838" stroke="#EE7959" stroke-width="0.64582"/>
      <path d="M13.5977 59.0098H15.5838Z" fill="#D25F3F"/>
      <path d="M13.5977 59.0098H15.5838" stroke="#EE7959" stroke-width="0.64582"/>
      <path d="M13.5977 61.1113H15.5838Z" fill="#D25F3F"/>
      <path d="M13.5977 61.1113H15.5838" stroke="#EE7959" stroke-width="0.64582"/>
      <path d="M13.5977 63.0625H15.5838Z" fill="#D25F3F"/>
      <path d="M13.5977 63.0625H15.5838" stroke="#EE7959" stroke-width="0.64582"/>
      <path d="M13.5977 65.166H15.5838Z" fill="#D25F3F"/>
      <path d="M13.5977 65.166H15.5838" stroke="#EE7959" stroke-width="0.64582"/>
      <path d="M13.5977 67.1172H15.5838Z" fill="#D25F3F"/>
      <path d="M13.5977 67.1172H15.5838" stroke="#EE7959" stroke-width="0.64582"/>
      <path d="M13.5977 69.3691H15.5838Z" fill="#D25F3F"/>
      <path d="M13.5977 69.3691H15.5838" stroke="#EE7959" stroke-width="0.64582"/>
      <path d="M13.5977 71.3223H15.5838Z" fill="#D25F3F"/>
      <path d="M13.5977 71.3223H15.5838" stroke="#EE7959" stroke-width="0.64582"/>
      <path d="M9.31934 67.2676V92.0424Z" fill="#D25F3F"/>
      <path d="M9.31934 67.2676V92.0424" stroke="#EE7959" stroke-width="0.64582"/>
      <path d="M11.458 67.2676V92.0424Z" fill="#D25F3F"/>
      <path d="M11.458 67.2676V92.0424" stroke="#EE7959" stroke-width="0.64582"/>
      <path d="M9.31934 69.2188H11.4582Z" fill="#D25F3F"/>
      <path d="M9.31934 69.2188H11.4582" stroke="#EE7959" stroke-width="0.64582"/>
      <path d="M9.31934 71.3223H11.4582Z" fill="#D25F3F"/>
      <path d="M9.31934 71.3223H11.4582" stroke="#EE7959" stroke-width="0.64582"/>
      <path d="M9.31934 73.4238H11.4582Z" fill="#D25F3F"/>
      <path d="M9.31934 73.4238H11.4582" stroke="#EE7959" stroke-width="0.64582"/>
      <path d="M9.31934 75.5254H11.4582Z" fill="#D25F3F"/>
      <path d="M9.31934 75.5254H11.4582" stroke="#EE7959" stroke-width="0.64582"/>
      <path d="M9.31934 77.627H11.4582Z" fill="#D25F3F"/>
      <path d="M9.31934 77.627H11.4582" stroke="#EE7959" stroke-width="0.64582"/>
      <path d="M9.31934 79.5801H11.4582Z" fill="#D25F3F"/>
      <path d="M9.31934 79.5801H11.4582" stroke="#EE7959" stroke-width="0.64582"/>
      <path d="M9.31934 81.6816H11.4582Z" fill="#D25F3F"/>
      <path d="M9.31934 81.6816H11.4582" stroke="#EE7959" stroke-width="0.64582"/>
      <path d="M9.31934 83.7832H11.4582Z" fill="#D25F3F"/>
      <path d="M9.31934 83.7832H11.4582" stroke="#EE7959" stroke-width="0.64582"/>
      <path d="M9.31934 85.7363H11.4582Z" fill="#D25F3F"/>
      <path d="M9.31934 85.7363H11.4582" stroke="#EE7959" stroke-width="0.64582"/>
      <path d="M9.31934 87.8379H11.4582Z" fill="#D25F3F"/>
      <path d="M9.31934 87.8379H11.4582" stroke="#EE7959" stroke-width="0.64582"/>
      <path d="M9.31934 89.9395H11.4582Z" fill="#D25F3F"/>
      <path d="M9.31934 89.9395H11.4582" stroke="#EE7959" stroke-width="0.64582"/>
      <path d="M13.5977 85.7363V110.511Z" fill="#D25F3F"/>
      <path d="M13.5977 85.7363V110.511" stroke="#EE7959" stroke-width="0.64582"/>
      <path d="M15.583 85.7363V110.511Z" fill="#D25F3F"/>
      <path d="M15.583 85.7363V110.511" stroke="#EE7959" stroke-width="0.64582"/>
      <path d="M13.5977 87.8379H15.5838Z" fill="#D25F3F"/>
      <path d="M13.5977 87.8379H15.5838" stroke="#EE7959" stroke-width="0.64582"/>
      <path d="M13.5977 89.9395H15.5838Z" fill="#D25F3F"/>
      <path d="M13.5977 89.9395H15.5838" stroke="#EE7959" stroke-width="0.64582"/>
      <path d="M13.5977 91.8926H15.5838Z" fill="#D25F3F"/>
      <path d="M13.5977 91.8926H15.5838" stroke="#EE7959" stroke-width="0.64582"/>
      <path d="M13.5977 93.9941H15.5838Z" fill="#D25F3F"/>
      <path d="M13.5977 93.9941H15.5838" stroke="#EE7959" stroke-width="0.64582"/>
      <path d="M13.5977 96.0957H15.5838Z" fill="#D25F3F"/>
      <path d="M13.5977 96.0957H15.5838" stroke="#EE7959" stroke-width="0.64582"/>
      <path d="M13.5977 98.1973H15.5838Z" fill="#D25F3F"/>
      <path d="M13.5977 98.1973H15.5838" stroke="#EE7959" stroke-width="0.64582"/>
      <path d="M13.5977 100.15H15.5838Z" fill="#D25F3F"/>
      <path d="M13.5977 100.15H15.5838" stroke="#EE7959" stroke-width="0.64582"/>
      <path d="M13.5977 102.252H15.5838Z" fill="#D25F3F"/>
      <path d="M13.5977 102.252H15.5838" stroke="#EE7959" stroke-width="0.64582"/>
      <path d="M13.5977 104.354H15.5838Z" fill="#D25F3F"/>
      <path d="M13.5977 104.354H15.5838" stroke="#EE7959" stroke-width="0.64582"/>
      <path d="M13.5977 106.457H15.5838Z" fill="#D25F3F"/>
      <path d="M13.5977 106.457H15.5838" stroke="#EE7959" stroke-width="0.64582"/>
      <path d="M13.5977 108.559H15.5838Z" fill="#D25F3F"/>
      <path d="M13.5977 108.559H15.5838" stroke="#EE7959" stroke-width="0.64582"/>
      <path d="M13.5977 122.973V147.597Z" fill="#D25F3F"/>
      <path d="M13.5977 122.973V147.597" stroke="#EE7959" stroke-width="0.64582"/>
      <path d="M15.583 122.973V147.597Z" fill="#D25F3F"/>
      <path d="M15.583 122.973V147.597" stroke="#EE7959" stroke-width="0.64582"/>
      <path d="M13.5977 124.926H15.5838Z" fill="#D25F3F"/>
      <path d="M13.5977 124.926H15.5838" stroke="#EE7959" stroke-width="0.64582"/>
      <path d="M13.5977 127.027H15.5838Z" fill="#D25F3F"/>
      <path d="M13.5977 127.027H15.5838" stroke="#EE7959" stroke-width="0.64582"/>
      <path d="M13.5977 128.979H15.5838Z" fill="#D25F3F"/>
      <path d="M13.5977 128.979H15.5838" stroke="#EE7959" stroke-width="0.64582"/>
      <path d="M13.5977 131.23H15.5838Z" fill="#D25F3F"/>
      <path d="M13.5977 131.23H15.5838" stroke="#EE7959" stroke-width="0.64582"/>
      <path d="M13.5977 133.184H15.5838Z" fill="#D25F3F"/>
      <path d="M13.5977 133.184H15.5838" stroke="#EE7959" stroke-width="0.64582"/>
      <path d="M13.5977 135.285H15.5838Z" fill="#D25F3F"/>
      <path d="M13.5977 135.285H15.5838" stroke="#EE7959" stroke-width="0.64582"/>
      <path d="M13.5977 137.236H15.5838Z" fill="#D25F3F"/>
      <path d="M13.5977 137.236H15.5838" stroke="#EE7959" stroke-width="0.64582"/>
      <path d="M13.5977 139.34H15.5838Z" fill="#D25F3F"/>
      <path d="M13.5977 139.34H15.5838" stroke="#EE7959" stroke-width="0.64582"/>
      <path d="M13.5977 141.441H15.5838Z" fill="#D25F3F"/>
      <path d="M13.5977 141.441H15.5838" stroke="#EE7959" stroke-width="0.64582"/>
      <path d="M13.5977 143.543H15.5838Z" fill="#D25F3F"/>
      <path d="M13.5977 143.543H15.5838" stroke="#EE7959" stroke-width="0.64582"/>
      <path d="M13.5977 145.646H15.5838Z" fill="#D25F3F"/>
      <path d="M13.5977 145.646H15.5838" stroke="#EE7959" stroke-width="0.64582"/>
      <path d="M9.625 104.354V129.128Z" fill="#D25F3F"/>
      <path d="M9.625 104.354V129.128" stroke="#EE7959" stroke-width="0.64582"/>
      <path d="M11.7637 104.354V129.128Z" fill="#D25F3F"/>
      <path d="M11.7637 104.354V129.128" stroke="#EE7959" stroke-width="0.64582"/>
      <path d="M9.625 106.307H11.7639Z" fill="#D25F3F"/>
      <path d="M9.625 106.307H11.7639" stroke="#EE7959" stroke-width="0.64582"/>
      <path d="M9.625 108.408H11.7639Z" fill="#D25F3F"/>
      <path d="M9.625 108.408H11.7639" stroke="#EE7959" stroke-width="0.64582"/>
      <path d="M9.625 110.51H11.7639Z" fill="#D25F3F"/>
      <path d="M9.625 110.51H11.7639" stroke="#EE7959" stroke-width="0.64582"/>
      <path d="M9.625 112.613H11.7639Z" fill="#D25F3F"/>
      <path d="M9.625 112.613H11.7639" stroke="#EE7959" stroke-width="0.64582"/>
      <path d="M9.625 114.715H11.7639Z" fill="#D25F3F"/>
      <path d="M9.625 114.715H11.7639" stroke="#EE7959" stroke-width="0.64582"/>
      <path d="M9.625 116.666H11.7639Z" fill="#D25F3F"/>
      <path d="M9.625 116.666H11.7639" stroke="#EE7959" stroke-width="0.64582"/>
      <path d="M9.625 118.77H11.7639Z" fill="#D25F3F"/>
      <path d="M9.625 118.77H11.7639" stroke="#EE7959" stroke-width="0.64582"/>
      <path d="M9.625 120.871H11.7639Z" fill="#D25F3F"/>
      <path d="M9.625 120.871H11.7639" stroke="#EE7959" stroke-width="0.64582"/>
      <path d="M9.625 122.822H11.7639Z" fill="#D25F3F"/>
      <path d="M9.625 122.822H11.7639" stroke="#EE7959" stroke-width="0.64582"/>
      <path d="M9.625 124.926H11.7639Z" fill="#D25F3F"/>
      <path d="M9.625 124.926H11.7639" stroke="#EE7959" stroke-width="0.64582"/>
      <path d="M9.625 127.027H11.7639Z" fill="#D25F3F"/>
      <path d="M9.625 127.027H11.7639" stroke="#EE7959" stroke-width="0.64582"/>
      <path d="M9.05566 18.7183V18.2168H16.0001V18.7183H9.05566Z" fill="#D25F3F" stroke="#EE7959"/>
      <path d="M9.05566 37.3374V36.8359H16.0001V37.3374H9.05566Z" fill="#D25F3F" stroke="#EE7959"/>
      <path d="M9.05566 55.9563V55.3047H16.0001V55.9563H9.05566Z" fill="#D25F3F" stroke="#EE7959"/>
      <path d="M9.05566 74.4253V73.9238H16.0001V74.4253H9.05566Z" fill="#D25F3F" stroke="#EE7959"/>
      <path d="M9.05566 93.0445V92.543H16.0001V93.0445H9.05566Z" fill="#D25F3F" stroke="#EE7959"/>
      <path d="M9.05566 111.511V111.01H16.0001V111.511H9.05566Z" fill="#D25F3F" stroke="#EE7959"/>
      <path d="M9.05566 130.13V129.629H16.0001V130.13H9.05566Z" fill="#D25F3F" stroke="#EE7959"/>
      <path d="M0.611328 19.2188H16.5002Z" fill="#D25F3F"/>
      <path d="M0.611328 19.2188H16.5002" stroke="#EE7959" stroke-width="0.64582"/>
      <path d="M24.292 19.2188H32.2364Z" fill="#D25F3F"/>
      <path d="M24.292 19.2188H32.2364" stroke="#EE7959" stroke-width="0.64582"/>
      <path d="M0.611328 37.8379H16.5002Z" fill="#D25F3F"/>
      <path d="M0.611328 37.8379H16.5002" stroke="#EE7959" stroke-width="0.64582"/>
      <path d="M24.292 37.8379H32.2364Z" fill="#D25F3F"/>
      <path d="M24.292 37.8379H32.2364" stroke="#EE7959" stroke-width="0.64582"/>
      <path d="M0.611328 56.457H16.5002Z" fill="#D25F3F"/>
      <path d="M0.611328 56.457H16.5002" stroke="#EE7959" stroke-width="0.64582"/>
      <path d="M24.292 56.457H32.2364Z" fill="#D25F3F"/>
      <path d="M24.292 56.457H32.2364" stroke="#EE7959" stroke-width="0.64582"/>
      <path d="M0.611328 74.9258H16.5002Z" fill="#D25F3F"/>
      <path d="M0.611328 74.9258H16.5002" stroke="#EE7959" stroke-width="0.64582"/>
      <path d="M24.292 74.9258H32.2364Z" fill="#D25F3F"/>
      <path d="M24.292 74.9258H32.2364" stroke="#EE7959" stroke-width="0.64582"/>
      <path d="M0.611328 93.543H16.5002Z" fill="#D25F3F"/>
      <path d="M0.611328 93.543H16.5002" stroke="#EE7959" stroke-width="0.64582"/>
      <path d="M24.292 93.543H32.2364Z" fill="#D25F3F"/>
      <path d="M24.292 93.543H32.2364" stroke="#EE7959" stroke-width="0.64582"/>
      <path d="M0.611328 112.012H16.5002Z" fill="#D25F3F"/>
      <path d="M0.611328 112.012H16.5002" stroke="#EE7959" stroke-width="0.64582"/>
      <path d="M24.292 112.012H32.2364Z" fill="#D25F3F"/>
      <path d="M24.292 112.012H32.2364" stroke="#EE7959" stroke-width="0.64582"/>
      <path d="M0.611328 130.631H16.5002Z" fill="#D25F3F"/>
      <path d="M0.611328 130.631H16.5002" stroke="#EE7959" stroke-width="0.64582"/>
      <path d="M24.292 130.631H32.2364Z" fill="#D25F3F"/>
      <path d="M24.292 130.631H32.2364" stroke="#EE7959" stroke-width="0.64582"/>
    </g>
  </g>
  <defs>
    <clipPath id="clip0_12_407">
      <rect width="33" height="150" fill="white"/>
    </clipPath>
  </defs>
</svg>
