<svg width="150" height="150" viewBox="0 0 150 150" fill="none" xmlns="http://www.w3.org/2000/svg">
<g clip-path="url(#clip0_2109_191724)">
<path d="M74.9249 149.85C116.305 149.85 149.85 116.305 149.85 74.9249C149.85 33.545 116.305 0 74.9249 0C33.545 0 0 33.545 0 74.9249C0 116.305 33.545 149.85 74.9249 149.85Z" fill="white" stroke="black" stroke-width="0.3003"/>
<path d="M74.9253 144.593C113.486 144.593 144.745 113.333 144.745 74.7729C144.745 36.2125 113.486 4.95312 74.9253 4.95312C36.3649 4.95312 5.10547 36.2125 5.10547 74.7729C5.10547 113.333 36.3649 144.593 74.9253 144.593Z" fill="#0000FF" stroke="black" stroke-width="0.3003"/>
<path d="M75.375 71.3231C81.0969 71.3231 85.7354 63.5251 85.7354 53.9057C85.7354 44.2863 81.0969 36.4883 75.375 36.4883C69.6531 36.4883 65.0146 44.2863 65.0146 53.9057C65.0146 63.5251 69.6531 71.3231 75.375 71.3231Z" fill="white" stroke="black" stroke-width="0.3003"/>
<path d="M107.508 30.6289V117.115L107.357 118.617L104.354 120.569L99.6998 119.818L98.4986 117.115V75.3736L96.3965 71.9202L95.3455 67.2655L94.7449 62.6109L94.5947 59.0073L94.7449 53.0013L95.6458 47.2956L97.2974 42.1905L99.85 37.686L103.303 33.7821L107.508 30.6289Z" fill="white" stroke="black" stroke-width="0.3003"/>
<path d="M80.1804 72.3711V116.665L79.8801 118.317L76.4266 120.569H75.2254L71.9221 119.668L71.0212 118.317L70.8711 116.665V72.3711L75.2254 73.8726L80.1804 72.3711Z" fill="white" stroke="black" stroke-width="0.3003"/>
<path d="M55.2553 70.8705L52.7028 74.6242L51.5016 75.2248V116.967L48.6487 120.42L47.5977 120.57L42.7929 119.669L41.5917 116.967V75.2248L38.2884 72.8224L37.2373 70.8705V40.5401L39.1893 36.4861L40.8409 40.39V58.7083L44.7448 59.1588V40.5401L46.5466 36.3359L48.0481 40.5401V59.1588H52.2523V40.5401L53.7538 36.3359L55.2553 40.5401V70.8705Z" fill="white" stroke="black" stroke-width="0.3003"/>
</g>
<defs>
<clipPath id="clip0_2109_191724">
<rect width="150" height="150" fill="white"/>
</clipPath>
</defs>
</svg>
