<svg width="150" height="150" viewBox="0 0 150 150" fill="none" xmlns="http://www.w3.org/2000/svg">
<g clip-path="url(#clip0_2109_191802)">
<path d="M74.9249 149.85C116.305 149.85 149.85 116.305 149.85 74.9249C149.85 33.545 116.305 0 74.9249 0C33.545 0 0 33.545 0 74.9249C0 116.305 33.545 149.85 74.9249 149.85Z" fill="black" stroke="black" stroke-width="0.3003"/>
<path d="M74.9246 147.599C115.061 147.599 147.597 115.063 147.597 74.9266C147.597 34.7906 115.061 2.25391 74.9246 2.25391C34.7886 2.25391 2.25195 34.7906 2.25195 74.9266C2.25195 115.063 34.7886 147.599 74.9246 147.599Z" fill="white" stroke="black" stroke-width="0.3003"/>
<path d="M121.621 18.7695L127.327 24.3251L132.432 30.3311L134.835 33.6344L136.937 36.9377L138.889 40.3912L140.69 43.9948L142.192 47.7485L143.543 51.5023L144.744 55.256L145.796 59.1599L147.147 66.9677L147.447 70.8716L147.597 74.9257L147.147 82.283L146.096 89.4902L144.294 96.5473L141.892 103.154L138.889 109.61L135.135 115.466L130.931 121.172L126.276 126.277L121.171 130.932L115.465 135.136L109.609 138.89L103.153 141.893L96.5462 144.295L89.4892 146.097L82.282 147.148L74.9246 147.598L67.5673 147.148L60.3601 146.097L53.303 144.295L46.6964 141.893L40.2399 138.89L34.3841 135.136L28.6784 130.932L23.5733 126.277L18.9186 121.172L14.7144 115.466L10.9607 109.61L7.95766 103.154L5.55526 96.5473L3.75345 89.4902L2.7024 82.283L2.25195 74.9257L2.4021 70.8716L3.303 62.9137L4.05375 59.0098L5.10481 55.1059L6.30601 51.3521L7.65736 47.5984L9.30901 43.8446L10.9607 40.3912L12.9126 36.9377L15.1649 33.6344L17.4171 30.3311L19.9697 27.1779L25.3751 21.4722L28.3781 18.7695H121.621Z" fill="black" stroke="black" stroke-width="0.3003"/>
</g>
<defs>
<clipPath id="clip0_2109_191802">
<rect width="150" height="150" fill="white"/>
</clipPath>
</defs>
</svg>
