<svg width="150" height="150" viewBox="0 0 150 150" fill="none" xmlns="http://www.w3.org/2000/svg">
<g clip-path="url(#clip0_2109_191751)">
<path d="M10.521 0H139.329L143.988 0.600601L148.497 4.2042L149.85 8.10811L150 10.6607V139.339L149.399 143.994L145.792 148.499L141.884 149.85L139.329 150H10.521L5.86172 149.399L1.35271 145.796L0 141.892V139.339V10.6607L0.450902 6.00601L2.55511 2.55255L7.96593 0H10.521Z" fill="white" stroke="black" stroke-width="0.300451"/>
<path d="M10.5211 3.45312L6.16235 4.50418L3.45694 9.00868L3.30664 10.6603V139.339L4.35874 143.693L8.86776 146.396L10.5211 146.546H139.329L143.687 145.495L146.393 140.991L146.543 139.339V10.6603L145.491 6.30598L140.982 3.60328L139.329 3.45312H10.5211Z" fill="#0000FF" stroke="black" stroke-width="0.300451"/>
<path d="M33.3672 35.7344H116.333L114.229 42.7914H35.6217L33.3672 35.7344Z" fill="white" stroke="black" stroke-width="0.300451"/>
<path d="M49.7493 44.5938H58.9176L51.7032 64.2634H98.1461L90.9316 44.5938H100.1L107.014 64.2634H135.571V71.3205H108.817L124.9 112.462H116.332L100.1 71.3205H49.7493L33.3665 112.462H24.9497L41.0318 71.3205H14.2783V64.2634H42.8354L49.7493 44.5938Z" fill="white" stroke="black" stroke-width="0.300451"/>
</g>
<defs>
<clipPath id="clip0_2109_191751">
<rect width="150" height="150" fill="white"/>
</clipPath>
</defs>
</svg>
