<svg width="150" height="150" viewBox="0 0 150 150" fill="none" xmlns="http://www.w3.org/2000/svg">
<g clip-path="url(#clip0_2109_191764)">
<path d="M10.7576 0H139.394L143.939 0.606061L147.273 2.72727L149.394 6.06061L150 10.6061V139.394L149.394 144.091L147.273 147.424L143.939 149.394L139.394 150H10.7576L6.06061 149.394L2.72727 147.424L0.606061 144.091L0 139.394V10.6061L0.606061 6.06061L2.72727 2.72727L6.06061 0.606061L10.7576 0Z" fill="#FF0000" stroke="black" stroke-width="0.30303"/>
<path d="M10.7571 3.48438L6.36316 4.54498L3.63589 8.93892L3.48438 10.6056V139.393L4.54498 143.787L9.09044 146.515L10.7571 146.666H139.393L143.787 145.606L146.363 141.06L146.515 139.393V10.6056L145.606 6.36316L141.06 3.63589L139.393 3.48438H10.7571Z" fill="white" stroke="black" stroke-width="0.30303"/>
<path d="M75.0004 130.456C105.627 130.456 130.455 105.628 130.455 75.0014C130.455 44.3747 105.627 19.5469 75.0004 19.5469C44.3737 19.5469 19.5459 44.3747 19.5459 75.0014C19.5459 105.628 44.3737 130.456 75.0004 130.456Z" fill="#FF0000" stroke="black" stroke-width="0.30303"/>
<path d="M75.0004 119.393C99.5185 119.393 119.394 99.5175 119.394 74.9994C119.394 50.4813 99.5185 30.6055 75.0004 30.6055C50.4823 30.6055 30.6064 50.4813 30.6064 74.9994C30.6064 99.5175 50.4823 119.393 75.0004 119.393Z" fill="white" stroke="black" stroke-width="0.30303"/>
<path d="M57.2725 44.6953H85.9088L91.3634 45.4529L96.0603 48.0286L99.8482 51.968L102.424 56.8165L103.485 62.2711L103.636 64.2408L102.575 71.968L99.2422 77.5741L93.6361 80.9074L85.9088 81.968H64.0906V108.938H57.2725V44.6953Z" fill="#FF0000" stroke="black" stroke-width="0.30303"/>
<path d="M64.0908 51.8164V74.8467H86.5151L87.8787 74.5437L89.5454 74.0891L91.3635 73.4831L92.4242 73.0285L94.0908 71.6649L94.8484 70.7558L95.4545 69.6952L95.909 68.6346L96.212 67.271L96.5151 65.7558V62.7255L96.212 61.3619L95.909 59.9982L95.4545 58.7861L94.9999 57.574L94.2423 56.5134L93.4848 55.6043L92.5757 54.8467L91.5151 54.0891L89.6969 53.0285L88.0302 52.271L86.5151 51.8164H64.0908Z" fill="white" stroke="black" stroke-width="0.30303"/>
</g>
<defs>
<clipPath id="clip0_2109_191764">
<rect width="150" height="150" fill="white"/>
</clipPath>
</defs>
</svg>
