<svg width="150" height="150" viewBox="0 0 150 150" fill="none" xmlns="http://www.w3.org/2000/svg">
<g clip-path="url(#clip0_2109_191715)">
<path fill-rule="evenodd" clip-rule="evenodd" d="M135.16 55.1051L124.933 45.7958L126.738 65.3153L132.553 64.8649L135.16 55.1051ZM56.5508 72.5225L59.7594 67.1171L54.5455 61.2613L52.7406 72.5225H56.5508ZM85.0267 11.7117V10.5105L85.2273 9.30931L85.6283 8.10811L86.0294 7.05706L86.631 6.00601L87.4332 5.1051L88.4358 4.2042L89.4385 3.3033L90.6417 2.55255L91.8449 1.8018L93.0481 1.2012L94.4519 0.750751L95.8556 0.3003L97.4599 0H99.0642H100.668H102.273H103.877L105.281 0.3003L106.885 0.750751L108.088 1.2012L109.492 1.8018L110.695 2.55255L111.898 3.3033L113.102 4.2042L114.104 5.1051L114.906 6.15616L115.508 7.05706L116.11 8.25826L116.511 9.30931L116.711 10.5105V11.7117V12.9129L116.511 14.1141L116.11 15.1652L115.508 16.3664L114.906 17.2673L114.104 18.3183L113.102 19.2192L111.898 20.1201L110.695 20.8709L109.291 21.6216L108.088 22.2222L106.684 22.6727L105.281 23.1231L103.676 23.4234L102.273 23.5736H100.668H99.0642L97.6604 23.4234L96.0562 23.1231L94.6524 22.6727L93.2487 22.2222L92.0455 21.6216L90.8422 20.8709L89.639 20.1201L88.6364 19.2192L87.6337 18.3183L86.8316 17.2673L86.2299 16.3664L85.6283 15.1652L85.2273 14.1141L85.0267 12.9129V11.7117ZM147.794 63.6637L150 80.3303L128.543 81.8318V114.114L149.398 144.745L137.366 150L113.503 114.565L108.489 95.9459L98.262 111.862L94.2513 148.649L80.615 146.547L84.4251 103.003L98.8636 77.9279L93.0481 56.4565L84.4251 64.4144L67.3797 66.5165L61.7647 72.5225L70.9893 72.0721L73.5963 85.2853L56.1497 86.1862L65.7754 103.453L54.9465 106.456L71.5909 140.691L63.9706 142.793L41.3102 106.907L32.8877 106.006L13.6364 143.694L7.21925 141.141L20.254 104.354L15.0401 103.003L32.2861 75.0751L27.8743 66.2162L22.2594 75.0751L3.60963 85.2853L0 80.7808L17.0455 69.0691L26.0695 49.6997L34.2914 45.045L35.0936 44.7447L35.6952 44.2943L36.4973 44.1441L37.5 43.8438L38.3021 43.6937H39.1043L40.107 43.5435H41.1096H42.1123H43.115L44.1176 43.6937L44.9198 43.8438L45.7219 43.994L46.7246 44.1441L47.5267 44.4444L48.3289 44.7447L58.1551 47.1471L66.377 60.8108L82.0187 56.7568L91.2433 31.8318L99.6658 27.027L100.267 26.7267L101.07 26.2763L102.072 25.976L103.275 25.8258L104.679 25.6757L106.283 25.5255L108.088 25.3754H109.893H114.104L125.936 27.9279L143.783 53.9039L142.58 64.1141L147.794 63.6637ZM21.8583 28.5285V27.3273L22.0588 26.1261L22.4599 25.0751L22.861 23.8739L23.4626 22.973L24.2647 21.9219L25.0668 21.021L26.0695 20.1201L27.0722 19.3694L28.2754 18.6186L29.6791 18.018L30.8824 17.5676L32.2861 17.1171L33.8904 16.8168L35.2941 16.6667H36.8984H38.7032L40.3075 16.8168L41.9118 17.1171L43.516 17.5676L44.9198 18.018L46.3235 18.6186L47.5267 19.3694L48.7299 20.1201L49.9332 20.8709L50.7353 21.7718L51.5374 22.8228L52.3396 23.8739L52.7406 24.9249L53.1417 26.1261L53.3422 27.3273V28.5285V29.7297L53.1417 30.9309L52.7406 31.982L52.139 33.033L51.5374 34.0841L50.7353 35.1351L49.7326 36.036L48.7299 36.9369L47.5267 37.6877L46.123 38.4384L44.7193 39.039L43.3155 39.4895L41.9118 39.9399L40.3075 40.2402L38.5027 40.3904H36.8984H35.2941L33.8904 40.2402L32.4866 39.9399L31.0829 39.4895L29.6791 39.039L28.4759 38.4384L27.2727 37.6877L26.0695 36.9369L25.0668 36.036L24.2647 34.985L23.4626 34.0841L22.861 33.033L22.4599 31.982L22.0588 30.7808L21.8583 29.7297V28.5285Z" fill="#5454FF"/>
<path d="M135.161 55.1062L124.934 45.7969L126.738 65.3164L132.554 64.8659L135.161 55.1062Z" stroke="black" stroke-width="0.347047"/>
<path d="M56.5504 72.523L59.759 67.1176L54.545 61.2617L52.7402 72.523H56.5504Z" stroke="black" stroke-width="0.347047"/>
<path d="M100.869 23.5753C109.618 23.5753 116.711 18.2645 116.711 11.7134C116.711 5.1623 109.618 -0.148438 100.869 -0.148438C92.1192 -0.148438 85.0264 5.1623 85.0264 11.7134C85.0264 18.2645 92.1192 23.5753 100.869 23.5753Z" stroke="black" stroke-width="0.347047"/>
<path d="M147.794 63.6633L150 80.33L128.543 81.8315V114.114L149.398 144.744L137.366 150L113.503 114.564L108.489 95.9456L98.262 111.861L94.2513 148.648L80.615 146.546L84.4251 103.003L98.8636 77.9276L93.0481 56.4561L84.4251 64.414L67.3797 66.5161L61.7647 72.5221L70.9893 72.0717L73.5963 85.2849L56.1497 86.1858L65.7754 103.453L54.9465 106.456L71.5909 140.69L63.9706 142.792L41.3102 106.907L32.8877 106.006L13.6364 143.693L7.21925 141.141L20.254 104.354L15.0401 103.003L32.2861 75.0747L27.8743 66.2158L22.2594 75.0747L3.60963 85.2849L0 80.7804L17.0455 69.0687L26.0695 49.6993L34.2914 45.0447L35.6952 44.2939L41.1096 43.5432L46.7246 44.1438L48.3289 44.7444L58.1551 47.1468L66.377 60.8104L82.0187 56.7564L91.2433 31.8315L99.6658 27.0267L104.679 25.6753L106.283 25.5252L108.088 25.375H109.893H114.104L125.936 27.9276L143.783 53.9035L142.58 64.1137L147.794 63.6633Z" stroke="black" stroke-width="0.347047"/>
<path d="M37.5001 40.2398C46.1388 40.2398 53.1418 34.9963 53.1418 28.5281C53.1418 22.0599 46.1388 16.8164 37.5001 16.8164C28.8614 16.8164 21.8584 22.0599 21.8584 28.5281C21.8584 34.9963 28.8614 40.2398 37.5001 40.2398Z" stroke="black" stroke-width="0.347047"/>
</g>
<defs>
<clipPath id="clip0_2109_191715">
<rect width="150" height="150" fill="white"/>
</clipPath>
</defs>
</svg>
