<svg width="150" height="150" viewBox="0 0 150 150" fill="none" xmlns="http://www.w3.org/2000/svg">
<g clip-path="url(#clip0_2109_191608)">
<path d="M134.985 150L142.342 147.896L145.646 145.641L147.898 142.335L150 134.97V15.0301L147.898 7.21443L142.342 1.80361L138.589 0.150301L134.985 0H14.8649L10.8108 0.150301L7.20721 1.80361L1.8018 7.21443L0.15015 10.8216L0 15.0301V134.97L0.15015 138.727L1.8018 142.335L4.2042 145.641L10.8108 149.249L14.8649 150H134.985Z" fill="white" stroke="#0000FF" stroke-width="0.300451"/>
<path d="M12.1621 74.8511L12.7627 65.9834L14.8648 57.266L17.8678 48.8491L22.2222 40.8832L27.4774 33.9694L33.9339 27.6567L40.8408 22.2459L48.7987 17.8872L57.2072 15.0315L65.9159 12.777L74.9249 12.1758L83.6336 12.777L92.6426 15.0315L100.901 17.8872L108.559 22.2459L115.616 27.6567L121.922 33.9694L127.327 40.8832L131.682 48.8491L134.985 57.266L136.637 65.9834L137.237 74.8511L136.637 83.5686L134.985 92.5866L131.682 101.003L127.327 108.669L121.922 115.583L115.616 121.895L108.559 127.306L100.901 131.665L92.6426 134.971L83.6336 136.625L74.9249 137.226L65.9159 136.625L57.2072 134.971L48.7987 131.665L40.8408 127.306L33.9339 121.895L27.4774 115.583L22.2222 108.669L17.8678 101.003L14.8648 92.5866L12.7627 83.5686L12.1621 74.8511Z" fill="#0000FF"/>
<path d="M74.6249 47.7949C82.7516 47.7949 89.3396 41.2003 89.3396 33.0654C89.3396 24.9305 82.7516 18.3359 74.6249 18.3359C66.4982 18.3359 59.9102 24.9305 59.9102 33.0654C59.9102 41.2003 66.4982 47.7949 74.6249 47.7949Z" fill="white"/>
<path d="M92.643 53.8086V119.64H95.646V122.646H53.9043V119.64H59.9103V56.9649H56.9073V53.8086H92.643Z" fill="white"/>
</g>
<defs>
<clipPath id="clip0_2109_191608">
<rect width="150" height="150" fill="white"/>
</clipPath>
</defs>
</svg>
