<svg width="150" height="150" viewBox="0 0 150 150" fill="none" xmlns="http://www.w3.org/2000/svg">
<g clip-path="url(#clip0_2109_191578)">
<path d="M57.7849 81.982H98.4751V67.2673L53.451 66.6667L50.321 57.958L44.7833 49.2492L43.8202 41.2913L44.7833 33.9339L50.321 26.5766L57.7849 21.3213L67.4157 17.2673L78.0096 15.9159L90.0481 16.6667L99.679 19.97L108.106 25.2252L114.607 31.982L116.774 39.1892L142.295 37.3874L140.369 27.3273L133.868 17.8679L123.274 9.90991L111.477 4.5045L96.3082 0.600601L81.3804 0L65.2488 1.2012L50.321 4.5045L36.1156 10.5105L27.4478 17.8679L22.1509 26.5766L19.2616 35.2853L18.0578 45.3453L19.9839 55.2553L24.5586 65.3153L25.2809 67.2673H2.88925V81.982H32.0225L33.9486 90.6907L32.9856 100L30.8186 107.958L26.4848 115.916L19.2616 123.273L10.5939 128.679L0 132.733L8.42697 150L22.1509 145.345L38.2825 143.243L53.451 142.042L69.3419 143.243L84.5104 145.946L100.642 149.249L117.737 150L133.868 147.898L150 143.243L142.295 125.225L133.868 129.279L124.238 131.381L112.44 131.982H99.679L86.6774 129.88L69.3419 127.928L52.488 127.327L35.1525 129.279L43.8202 121.922L51.2841 114.565L55.618 105.856L58.748 97.2973L59.9518 89.1892L57.7849 81.982Z" fill="black" stroke="black" stroke-width="0.380272"/>
</g>
<defs>
<clipPath id="clip0_2109_191578">
<rect width="150" height="150" fill="white"/>
</clipPath>
</defs>
</svg>
