<svg width="150" height="150" viewBox="0 0 150 150" fill="none" xmlns="http://www.w3.org/2000/svg">
<g clip-path="url(#clip0_2109_191835)">
<path d="M149.85 137.237V12.6126L148.949 7.65766L146.246 3.6036L142.192 0.900901L138.589 0H137.237H12.6126L7.65766 0.900901L3.6036 3.6036L0.900901 7.65766L0 11.2613V12.6126V137.237L0.900901 142.192L3.6036 146.246L7.65766 148.949L11.2613 149.85H12.6126H137.237L142.192 148.949L146.246 146.246L148.949 142.192L149.85 138.589V137.237Z" fill="white" stroke="black" stroke-width="0.3003"/>
<path d="M140.691 127.929V21.9229L139.64 16.968L136.937 12.9139L132.883 10.2112L129.279 9.31031L127.928 9.16016H21.9219L16.967 10.2112L12.9129 12.9139L10.2102 16.968L9.30933 20.5716L9.15918 21.9229V127.929L10.2102 132.884L12.9129 136.938L16.967 139.641L20.5706 140.542L21.9219 140.692H127.928L132.883 139.641L136.937 136.938L139.64 132.884L140.541 129.28L140.691 127.929Z" fill="black" stroke="black" stroke-width="0.3003"/>
<path d="M137.237 125.076V24.7754L136.336 19.9706L133.783 16.0667L129.88 13.5142L126.276 12.6133H125.075H24.7745L19.9697 13.5142L16.0658 16.0667L13.5132 19.9706L12.6123 23.5742V24.7754V125.076L13.5132 129.881L16.0658 133.784L19.9697 136.337L23.5733 137.238H24.7745H125.075L129.88 136.337L133.783 133.784L136.336 129.881L137.237 126.277V125.076Z" fill="white" stroke="black" stroke-width="0.3003"/>
<path d="M125.075 62.6142V87.5392H56.3059V106.158L24.7744 74.9265L56.3059 43.6953V62.6142H125.075Z" fill="black" stroke="black" stroke-width="0.3003"/>
</g>
<defs>
<clipPath id="clip0_2109_191835">
<rect width="150" height="150" fill="white"/>
</clipPath>
</defs>
</svg>
