<svg width="150" height="150" viewBox="0 0 150 150" fill="none" xmlns="http://www.w3.org/2000/svg">
<g clip-path="url(#clip0_2109_191869)">
<path d="M9.15916 150H140.691L145.045 149.098L148.348 144.589L149.85 136.172V133.768L150 131.363V18.3367L149.399 9.61924L147.297 3.00601L142.943 0H141.892H140.691H9.15916L4.8048 0.901804L1.5015 5.11022L0 13.8277V15.9319V18.3367V131.363L0.45045 140.08L2.55255 146.994L6.90691 149.699L7.95796 150H9.15916Z" fill="#FFFF00" stroke="black" stroke-width="0.424901"/>
<path d="M99.8496 123.545L97.1469 126.551H96.8466H96.0959L92.9427 120.239L94.1439 112.724L99.8496 103.104H18.7686V46.5914H99.8496L94.1439 36.9722L93.243 27.9542L96.0959 23.4451L96.8466 23.1445L97.1469 23.4451L99.8496 26.1505L131.381 74.8479L99.8496 123.545Z" fill="black" stroke="black" stroke-width="0.424901"/>
</g>
<defs>
<clipPath id="clip0_2109_191869">
<rect width="150" height="150" fill="white"/>
</clipPath>
</defs>
</svg>
