<svg width="150" height="150" viewBox="0 0 150 150" fill="none" xmlns="http://www.w3.org/2000/svg">
<g clip-path="url(#clip0_2109_191692)">
<path d="M30.989 58.5586L31.6484 68.6187L27.6923 70.4205L23.9011 72.8229L20.4396 75.8259L17.1429 79.5796L14.3407 84.0841L12.3626 89.1892L11.044 95.0451L10.7143 101.652L11.044 106.757L12.1978 111.562L14.011 116.216L16.4835 120.721L19.6154 124.925L23.2418 128.529L27.1978 131.832L31.8132 134.685L36.7582 136.937L41.8681 138.589L46.978 139.64L52.4176 139.94L58.5165 139.64L64.2857 138.889L69.8901 137.538L75.3297 135.736L80.2747 133.333L85.0549 130.481L90.8242 126.126L95.9341 121.021L100.385 115.165L102.363 112.012L107.308 125.225L105.165 127.778L100.385 132.432L94.7802 136.787L88.5165 140.841L83.4066 143.544L77.967 145.796L72.033 147.598L65.9341 148.949L59.5055 149.7L57.3626 149.85L55.0549 150H52.7473L47.3077 149.7L42.1978 149.099L37.0879 147.898L32.3077 146.246L27.5275 143.994L23.0769 141.592L17.6374 137.688L12.8571 133.183L8.73626 128.078L6.0989 124.024L3.79121 119.67L1.97802 115.165L0.824176 110.661L0 105.856V104.354V102.703V101.051L0.164835 94.8949L0.989011 89.3394L2.47253 84.0841L4.61538 79.4295L7.08791 75.2253L10.0549 71.4715L13.1868 68.3184L18.2967 64.4144L23.7363 61.4114L29.1758 59.1592L30.989 58.5586Z" fill="#0000FF" stroke="black" stroke-width="0.314643"/>
<path d="M52.0875 56.3063H93.6259L94.2853 66.3664H52.582L53.0765 76.2763H110.604L127.087 121.922L146.208 115.165L150 126.126L118.351 136.637L99.8897 86.3363H38.7358L36.4281 25.0751L35.2743 20.8709L33.7908 17.1171L32.9666 13.8138L32.8018 13.0631V12.4625L33.7908 7.65766L36.7578 3.6036L41.7029 0.750751L44.8347 0.15015L46.4831 0H48.2963L53.7358 0.3003L58.3512 1.8018L62.1424 4.35435L64.7798 7.95796L65.9336 12.7628L65.604 17.2673L63.9556 21.1712L60.9886 24.6246L57.3622 27.3273L52.4171 28.979H51.2633L52.0875 56.3063Z" fill="#0000FF" stroke="black" stroke-width="0.314643"/>
</g>
<defs>
<clipPath id="clip0_2109_191692">
<rect width="150" height="150" fill="white"/>
</clipPath>
</defs>
</svg>
