<svg width="150" height="150" viewBox="0 0 150 150" fill="none" xmlns="http://www.w3.org/2000/svg">
<g clip-path="url(#clip0_2109_191773)">
<path d="M10.8452 0H139.308L143.89 0.611621L147.251 2.59939L149.389 5.9633L150 10.5505V139.297L149.389 143.884L147.251 147.248L143.89 149.388L139.308 150H10.8452L6.10998 149.388L2.74949 147.248L0.610998 143.884L0 139.297V10.5505L0.610998 5.9633L2.74949 2.59939L6.10998 0.611621L10.8452 0Z" fill="#FF0000" stroke="black" stroke-width="0.305655"/>
<path d="M10.8456 3.51562L6.41591 4.43306L3.66642 8.86731L3.51367 10.5493V139.295L4.58292 143.577L9.1654 146.329L10.8456 146.482H139.308L143.738 145.412L146.334 140.977L146.487 139.295V10.5493L145.571 6.26792L140.988 3.66853L139.308 3.51562H10.8456Z" fill="white" stroke="black" stroke-width="0.305655"/>
<path d="M74.9998 130.427C105.623 130.427 130.448 105.577 130.448 74.9226C130.448 44.2682 105.623 19.418 74.9998 19.418C44.3767 19.418 19.5518 44.2682 19.5518 74.9226C19.5518 105.577 44.3767 130.427 74.9998 130.427Z" fill="#FF0000" stroke="black" stroke-width="0.305655"/>
<path d="M67.362 74.7718L64.1543 72.0195V74.7718H67.362Z" fill="white" stroke="black" stroke-width="0.305655"/>
<path d="M74.8472 81.9589H64.1547V108.717H57.281V64.5277L39.8675 47.4023L38.7983 48.9314L35.896 53.6715L33.6048 58.5644L31.9246 63.7632L30.8553 69.1149L30.7026 70.9497L30.5498 72.9375V74.7724L30.7026 79.3595L31.3136 83.6409L32.3828 87.9222L33.9103 91.8978L35.5905 95.7204L37.8818 99.3901L40.4785 102.907L43.5335 106.271L46.894 109.329L50.4072 111.928L54.0732 114.222L58.0447 116.057L62.0162 117.586L66.2932 118.656L70.5702 119.268L72.8614 119.421H75.1527L80.9571 119.115L86.4561 118.197L91.6496 116.515L96.5376 114.222L101.12 111.317L102.648 110.246L74.8472 81.9589Z" fill="white" stroke="black" stroke-width="0.305655"/>
<path d="M89.511 81.9587L110.132 102.601L113.187 98.0138L115.784 93.2737L117.617 88.075L118.839 82.5704L119.297 78.7477L119.45 76.76V74.7722L119.297 70.3379L118.686 65.9037L117.617 61.7753L116.242 57.6468L114.409 53.8242L112.118 50.1545L109.521 46.7905L106.466 43.4266L103.106 40.3685L99.5925 37.7691L95.9265 35.4756L92.1077 33.6407L88.1362 32.2645L84.012 31.1942L79.5823 30.5826L77.4438 30.4297H75.1525L69.3481 30.7355L63.6963 31.8058L58.5028 33.4878L53.6149 35.7814L49.0324 38.6866L47.5049 39.7569L57.2808 49.3899V44.6499H85.845L90.733 45.4144L95.1627 47.5551L99.287 51.2248L102.342 56.1178L103.411 60.0933L103.717 64.5275L102.8 71.1025L100.203 76.1483L95.7737 79.8181L89.511 81.9587Z" fill="white" stroke="black" stroke-width="0.305655"/>
<path d="M82.637 74.7717H85.8447L87.525 74.6188L89.358 74.1601L91.191 73.5485L92.8712 72.7839L94.3987 71.4078L95.4679 69.5729L95.9262 68.3497L96.2317 67.2794L96.3844 65.9032V64.5271L96.2317 61.6219L95.7734 59.0225L94.8569 56.8818L93.7877 55.0469L92.2602 53.6708L90.4272 52.6005L88.2887 51.9888L85.8447 51.8359H64.1543V56.576L82.637 74.7717Z" fill="white" stroke="black" stroke-width="0.305655"/>
</g>
<defs>
<clipPath id="clip0_2109_191773">
<rect width="150" height="150" fill="white"/>
</clipPath>
</defs>
</svg>
