<svg width="148" height="148" viewBox="0 0 148 148" fill="none" xmlns="http://www.w3.org/2000/svg">
<rect width="148" height="148" fill="#00DE00"/>
<rect x="7" y="7" width="133" height="133" fill="#00E122"/>
<rect x="13" y="14" width="122" height="120" fill="#00E43E"/>
<rect x="19" y="21" width="109" height="106" fill="#00E758"/>
<rect x="26" y="28" width="96" height="92" fill="#49EA6F"/>
<rect x="26" y="28" width="96" height="92" fill="#49EA6F"/>
<rect x="26" y="28" width="96" height="92" fill="#49EA6F"/>
<rect x="26" y="28" width="96" height="92" fill="#49EA6F"/>
<rect x="26" y="28" width="96" height="92" fill="#49EA6F"/>
<rect x="32" y="34" width="83" height="80" fill="#49EA6F"/>
<rect x="32" y="34" width="83" height="80" fill="#49EA6F"/>
<rect x="32" y="34" width="83" height="80" fill="#49EA6F"/>
<rect x="32" y="34" width="83" height="80" fill="#49EA6F"/>
<rect x="32" y="34" width="83" height="80" fill="#49EA6F"/>
<rect x="32" y="34" width="83" height="80" fill="#73EF88"/>
<rect x="38" y="40" width="71" height="67" fill="#49EA6F"/>
<rect x="38" y="40" width="71" height="67" fill="#49EA6F"/>
<rect x="38" y="40" width="71" height="67" fill="#49EA6F"/>
<rect x="38" y="40" width="71" height="67" fill="#49EA6F"/>
<rect x="38" y="40" width="71" height="67" fill="#49EA6F"/>
<rect x="38" y="40" width="71" height="67" fill="#8FF29C"/>
<rect x="45" y="47" width="57" height="54" fill="#49EA6F"/>
<rect x="45" y="47" width="57" height="54" fill="#49EA6F"/>
<rect x="45" y="47" width="57" height="54" fill="#49EA6F"/>
<rect x="45" y="47" width="57" height="54" fill="#49EA6F"/>
<rect x="45" y="47" width="57" height="54" fill="#49EA6F"/>
<rect x="45" y="47" width="57" height="54" fill="#8FF29C"/>
<rect x="45" y="47" width="57" height="54" fill="#AEF6B6"/>
</svg>
