<svg width="150" height="150" viewBox="0 0 150 150" fill="none" xmlns="http://www.w3.org/2000/svg">
<g clip-path="url(#clip0_2109_227013)">
<path d="M0 143.694L10.6407 9.60961L20.2517 5.40541L38.1007 1.8018L62.1281 0H87.5286L111.556 1.8018L129.405 4.95496L139.016 9.60961L150 143.694H0Z" fill="#7F7F7F"/>
<path d="M28.4902 143.695H121.168V150.002H28.4902V143.695Z" fill="#333333" stroke="black" stroke-width="0.454044"/>
<path d="M9.26758 143.694L18.1921 9.60961L27.1165 4.95496L42.906 1.8018L63.501 0H86.1555L106.75 1.8018L123.226 4.95496L131.464 9.60961L141.075 143.694H9.26758Z" fill="#8C8C8C"/>
<path d="M18.1924 143.694L25.7439 9.60961L33.2954 4.95496L47.0253 1.8018L65.5608 0H84.7828L102.632 1.8018L116.362 4.95496L123.913 9.60961L132.151 143.694H18.1924Z" fill="#999999"/>
<path d="M27.1172 143.694L33.9822 9.60961L40.1607 4.95496L51.8311 1.8018L66.9341 0H83.4101L98.5131 1.8018L110.184 4.95496L116.362 9.60961L123.227 143.694H27.1172Z" fill="#A6A6A6"/>
<path d="M36.041 143.694L41.533 9.60961L46.3385 4.95496L55.9495 1.8018L68.3065 0H81.3499L94.3934 1.8018L103.318 4.95496L108.81 9.60961L114.302 143.694H36.041Z" fill="#B2B2B2"/>
<path d="M44.9658 143.694L49.0848 9.60961L53.2038 4.95496L60.0688 1.8018L69.6798 0H79.9773L89.5882 1.8018L97.1397 4.95496L101.259 9.60961L105.378 143.694H44.9658Z" fill="#BFBFBF"/>
<path d="M53.8906 143.694L56.6366 9.60961L59.3826 4.95496L64.8746 1.8018L71.7396 0H78.6046L85.4696 1.8018L90.2751 4.95496L93.7076 9.60961L96.4536 143.694H53.8906Z" fill="#CCCCCC"/>
<path d="M62.8145 143.694L64.1875 9.60961L66.2469 4.95496L68.9929 1.8018L73.1119 0H77.2309L81.3499 1.8018L84.0959 4.95496L86.1554 9.60961L87.5284 143.694H62.8145Z" fill="#D9D9D9"/>
<path d="M71.7393 143.694V9.60961L72.4258 5.40541L73.1123 1.8018L74.4853 0H75.8583L76.5447 1.8018L77.2312 4.95496L77.9177 9.60961L78.6042 143.694H71.7393Z" fill="#E5E5E5"/>
<path d="M0 143.694L10.6407 9.60961L20.2517 5.40541L38.1007 1.8018L62.1281 0H87.5286L111.556 1.8018L129.405 4.95495L139.016 9.60961L150 143.694H0Z" stroke="black" stroke-width="0.454044"/>
<path d="M71.7393 13.9639L85.4692 18.9189H93.0207V15.4654L78.6042 10.9609L71.7393 13.9639Z" fill="#B2B2B2"/>
<path d="M71.7393 131.381L85.4692 135.886H93.0207V132.883L78.6042 128.078L71.7393 131.381Z" fill="#B2B2B2"/>
<path d="M71.7393 10.9609H78.6042V13.9639H71.7393V10.9609Z" fill="black"/>
<path d="M71.7393 128.078H78.6042V131.381H71.7393V128.078Z" fill="black"/>
<path d="M35.3545 24.7734H114.302V112.461H35.3545V24.7734Z" fill="#333333"/>
<path d="M114.302 24.7734V112.461H35.3545" stroke="white" stroke-width="0.454044"/>
<path d="M114.302 24.7734H35.3545V112.461" stroke="black" stroke-width="0.454044"/>
<path d="M99.8857 26.5781H107.437V110.963H99.8857V26.5781Z" fill="#7F7F7F"/>
<path d="M85.4688 26.5781H93.0202V110.963H85.4688V26.5781Z" fill="#7F7F7F"/>
<path d="M71.7393 26.5781H78.6042V110.963H71.7393V26.5781Z" fill="#7F7F7F"/>
<path d="M57.3223 26.5781H64.1873V110.963H57.3223V26.5781Z" fill="#7F7F7F"/>
<path d="M42.9062 26.5781H49.7712V110.963H42.9062V26.5781Z" fill="#7F7F7F"/>
<path d="M110.87 84.2344V87.5377H39.4736V84.2344H110.87Z" fill="#7F7F7F" stroke="black" stroke-width="0.454044"/>
<path d="M110.87 53V56.003H39.4736V53H110.87Z" fill="#7F7F7F" stroke="black" stroke-width="0.454044"/>
</g>
<defs>
<clipPath id="clip0_2109_227013">
<rect width="150" height="150" fill="white"/>
</clipPath>
</defs>
</svg>
