<svg width="150" height="150" viewBox="0 0 150 150" fill="none" xmlns="http://www.w3.org/2000/svg">
<path d="M136.487 1.83594V9.1709L149.099 71.1513L136.487 132.765V140.467H133.334V132.765H38.5888L22.823 94.2565H13.3636L7.05728 78.8531H0.750977V63.4496H7.05728L13.3636 48.0462H22.823L38.5888 9.1709H133.334V1.83594H136.487Z" fill="#666666"/>
<path d="M136.487 7.33594V14.6709L149.099 70.7834L136.487 127.263V134.598H133.334V127.263H38.5888L22.823 92.0548H13.3636L7.05728 78.1183H0.750977V63.8152H7.05728L13.3636 49.8787H22.823L38.5888 14.6709H133.334V7.33594H136.487Z" fill="#737373"/>
<path d="M136.487 13.5703V19.805L149.099 70.783L136.487 122.128V128.729H133.334V122.128H38.5888L22.823 90.2207H13.3636L7.05728 77.3845H0.750977V64.5483H7.05728L13.3636 51.7121H22.823L38.5888 19.805H133.334V13.5703H136.487Z" fill="#7D7D7D"/>
<path d="M136.487 19.4375V25.3055L149.099 70.7822L136.487 116.626V122.494H133.334V116.626H38.5888L22.823 88.0194H13.3636L7.05728 76.6502H0.750977V65.281H7.05728L13.3636 53.9118H22.823L38.5888 25.3055H133.334V19.4375H136.487Z" fill="#8A8A8A"/>
<path d="M136.487 25.3047V30.4392L149.099 70.7815L136.487 111.491V116.625H133.334V111.491H38.5888L22.823 86.1849H13.3636L7.05728 76.2827H0.750977V66.0137H7.05728L13.3636 55.7448H22.823L38.5888 30.4392H133.334V25.3047H136.487Z" fill="#949494"/>
<path d="M136.487 31.1719V35.5729L149.099 70.7807L136.487 106.355V110.756H133.334V106.355H38.5888L22.823 84.3504H13.3636L7.05728 75.1817H0.750977V66.3797H7.05728L13.3636 57.5777H22.823L38.5888 35.5729H133.334V31.1719H136.487Z" fill="#A1A1A1"/>
<path d="M136.487 37.0391V41.0733L149.099 70.7799L136.487 100.853V104.521H133.334V100.853H38.5888L22.823 82.1491H13.3636L7.05728 74.8141H0.750977V67.1124H7.05728L13.3636 59.7774H22.823L38.5888 41.0733H133.334V37.0391H136.487Z" fill="#ABABAB"/>
<path d="M136.487 43.2734V46.2074L149.099 70.7796L136.487 95.7184V98.6524H133.334V95.7184H38.5888L22.823 80.315H13.3636L7.05728 74.0803H0.750977V67.8456H7.05728L13.3636 61.6108H22.823L38.5888 46.2074H133.334V43.2734H136.487Z" fill="#B8B8B8"/>
<path d="M136.487 49.1406V51.7079L149.099 70.7788L136.487 90.2164V92.7837H133.334V90.2164H38.5888L22.823 78.1137H13.3636L7.05728 73.346H0.750977V68.5783H7.05728L13.3636 63.8106H22.823L38.5888 51.7079H133.334V49.1406H136.487Z" fill="#C2C2C2"/>
<path d="M136.487 55.0156V56.8494L149.099 70.7858L136.487 85.089V86.9227H133.334V85.089H38.5888L22.823 76.287H13.3636L7.05728 72.6195H0.750977V69.3188H7.05728L13.3636 65.6513H22.823L38.5888 56.8494H133.334V55.0156H136.487Z" fill="#CFCFCF"/>
<path d="M74.9251 80.6872C115.89 80.6872 149.099 76.2538 149.099 70.785C149.099 65.3162 115.89 60.8828 74.9251 60.8828C33.9599 60.8828 0.750977 65.3162 0.750977 70.785C0.750977 76.2538 33.9599 80.6872 74.9251 80.6872Z" fill="#D9D9D9"/>
<path d="M74.9251 74.4522C115.89 74.4522 149.099 72.8102 149.099 70.7847C149.099 68.7592 115.89 67.1172 74.9251 67.1172C33.9599 67.1172 0.750977 68.7592 0.750977 70.7847C0.750977 72.8102 33.9599 74.4522 74.9251 74.4522Z" fill="#E5E5E5"/>
<path d="M136.487 1.83594V9.1709L149.099 71.1513L136.487 132.765V140.467H133.334V132.765H38.5888L22.823 94.2565H13.3636L7.05728 78.8531H0.750977V63.4496H7.05728L13.3636 48.0462H22.823L38.5888 9.1709H133.334V1.83594H136.487Z" stroke="black" stroke-width="0.469328"/>
<path d="M48.0479 148.167V130.93H60.6605V148.167H48.0479Z" fill="#4C4C4C" stroke="black" stroke-width="0.469328"/>
<path d="M79.5801 148.167V130.93H92.1927V148.167H79.5801Z" fill="#4C4C4C" stroke="black" stroke-width="0.469328"/>
<path d="M111.262 148.167V130.93H123.874V148.167H111.262Z" fill="#4C4C4C" stroke="black" stroke-width="0.469328"/>
<path d="M111.262 130.929L115.916 119.56V65.2812H119.07V119.56L123.874 130.929H111.262Z" fill="#999999" stroke="black" stroke-width="0.469328"/>
<path d="M79.5791 130.929L84.3839 119.56V65.2812H87.5371V119.56L92.1917 130.929H79.5791Z" fill="#999999" stroke="black" stroke-width="0.469328"/>
<path d="M48.0479 130.929L52.8527 119.56V65.2812H55.8557V119.56L60.6605 130.929H48.0479Z" fill="#999999" stroke="black" stroke-width="0.469328"/>
<path d="M7.05664 78.8487V63.4453" stroke="black" stroke-width="0.469328"/>
<path d="M13.3633 94.2571V48.0469" stroke="black" stroke-width="0.469328"/>
<path d="M22.8232 94.2571V48.0469" stroke="black" stroke-width="0.469328"/>
<path d="M38.5889 132.766V9.17188" stroke="black" stroke-width="0.469328"/>
<path d="M133.333 132.766V9.17188" stroke="black" stroke-width="0.469328"/>
<path d="M136.486 132.766V9.17188" stroke="black" stroke-width="0.469328"/>
<path d="M70.1201 132.766V9.17188" stroke="black" stroke-width="0.469328"/>
<path d="M101.802 132.766V9.17188" stroke="black" stroke-width="0.469328"/>
<path d="M52.8525 119.195H55.8555" stroke="black" stroke-width="0.469328"/>
<path d="M84.3848 119.195H87.5379" stroke="black" stroke-width="0.469328"/>
<path d="M115.916 119.195H119.069" stroke="black" stroke-width="0.469328"/>
</svg>
