<svg width="150" height="150" viewBox="0 0 150 150" fill="none" xmlns="http://www.w3.org/2000/svg">
<path d="M149.099 81.7465H136.486V67.9922H149.099V81.7465Z" fill="#7F7F7F"/>
<path d="M0.750977 81.7465H13.3636V67.9922H0.750977V81.7465Z" fill="#7F7F7F"/>
<path d="M149.099 79.6724H136.486V70.0703H149.099V79.6724Z" fill="#999999"/>
<path d="M0.750977 79.6724H13.3636V70.0703H0.750977V79.6724Z" fill="#999999"/>
<path d="M149.099 77.8578H136.486V72.1484H149.099V77.8578Z" fill="#B2B2B2"/>
<path d="M0.750977 77.8578H13.3636V72.1484H0.750977V77.8578Z" fill="#B2B2B2"/>
<path d="M149.099 75.7775H136.637V73.9609H149.099V75.7775Z" fill="#E5E5E5"/>
<path d="M0.750977 75.7775H13.2134V73.9609H0.750977V75.7775Z" fill="#E5E5E5"/>
<path d="M127.027 83.0448L136.487 81.7472V67.9929L127.027 66.6953V83.0448Z" fill="#CCCCCC"/>
<path d="M22.8227 83.0448L13.3633 81.7472V67.9929L22.8227 66.6953V83.0448Z" fill="#CCCCCC"/>
<path d="M127.027 83.045L134.985 78.8927L136.487 75V81.7474L127.027 83.045Z" fill="#999999"/>
<path d="M22.8227 83.045L14.8648 78.8927L13.3633 75V81.7474L22.8227 83.045Z" fill="#999999"/>
<path d="M22.8227 66.6953L14.8648 70.8476L13.3633 74.9998V67.9929L22.8227 66.6953Z" fill="white"/>
<path d="M127.027 66.6953L134.985 70.8476L136.487 74.9998V67.9929L127.027 66.6953Z" fill="white"/>
<path d="M70.2705 6.7467V1.29688H76.5768V6.7467H70.2705Z" fill="#4C4C4C"/>
<path d="M71.0215 6.7467V1.29688H75.8263V6.7467H71.0215Z" fill="#707070"/>
<path d="M71.7715 6.7467V1.29688H74.9246V6.7467H71.7715Z" fill="#969696"/>
<path d="M72.6729 6.7467V1.29688H74.1744V6.7467H72.6729Z" fill="#BABABA"/>
<path d="M26.7266 148.704V83.0469H39.3392L33.0329 148.704H26.7266Z" fill="#405473" stroke="black" stroke-width="0.394798"/>
<path d="M120.721 148.704V83.0469H108.108L114.415 148.704H120.721Z" fill="#405473" stroke="black" stroke-width="0.394798"/>
<path d="M48.0479 17.6497V6.75H98.7986V17.6497H48.0479Z" fill="#4C4C4C"/>
<path d="M51.3516 17.384V6.48438H95.6459V17.384H51.3516Z" fill="#5E5E5E"/>
<path d="M54.5049 17.384V6.48438H92.4929V17.384H54.5049Z" fill="#707070"/>
<path d="M57.6572 17.384V6.48438H89.3389V17.384H57.6572Z" fill="#828282"/>
<path d="M60.8105 17.384V6.48438H86.0358V17.384H60.8105Z" fill="#969696"/>
<path d="M63.9639 17.384V6.48438H82.8828V17.384H63.9639Z" fill="#A8A8A8"/>
<path d="M67.1172 17.384V6.48438H79.7298V17.384H67.1172Z" fill="#BABABA"/>
<path d="M70.2705 17.6497V6.75H76.5768V17.6497H70.2705Z" fill="#CCCCCC"/>
<path d="M22.8232 148.704V83.0469H35.4359L29.1295 148.704H22.8232Z" fill="#8CA0BF" stroke="black" stroke-width="0.394798"/>
<path d="M123.874 148.704V83.0469H111.262L117.568 148.704H123.874Z" fill="#8CA0BF" stroke="black" stroke-width="0.394798"/>
<path d="M22.8232 66.6969V61.2471L44.8953 17.6484H101.802L123.874 61.2471V66.6969H22.8232Z" fill="#A6BAD9"/>
<path d="M149.099 81.7448H136.637V68.25H149.099V81.7448Z" stroke="black" stroke-width="0.394798"/>
<path d="M0.750977 81.7448H13.2134V68.25H0.750977V81.7448Z" stroke="black" stroke-width="0.394798"/>
<path d="M22.8232 66.6957V61.2458L107.358 28.5469L123.874 61.2458V66.6957H22.8232Z" fill="#9EB2D1"/>
<path d="M22.8232 66.6946L109.76 33.4766L123.874 61.2447V66.6946H22.8232Z" fill="#94A8C7"/>
<path d="M42.6426 66.6954L113.363 40.4844L123.874 61.2456V66.6954H42.6426Z" fill="#8CA0BF"/>
<path d="M22.8232 66.6969V61.2471L44.8953 17.6484H101.802L123.874 61.2471V66.6969H22.8232Z" stroke="black" stroke-width="0.394798"/>
<path d="M54.5049 64.0983V58.6484H92.3427V64.0983H54.5049Z" fill="#FF0000"/>
<path d="M54.5049 58.6515V55.7969H92.3427V58.6515H54.5049Z" fill="#E50000"/>
<path d="M54.5049 55.7922V52.9375H92.3427V55.7922H54.5049Z" fill="#CC0000"/>
<path d="M54.5049 52.9396V49.0469H92.3427V52.9396H54.5049Z" fill="#B20000"/>
<path d="M54.5049 49.3102V44.8984H92.3427V49.3102H54.5049Z" fill="#990000"/>
<path d="M54.5049 44.8944V40.7422H92.3427V44.8944H54.5049Z" fill="#7F0000"/>
<path d="M54.5049 40.7439V20.2422H92.3427V40.7439H54.5049Z" fill="#660000"/>
<path d="M54.3545 64.1003L56.0061 61.2457V23.0969H90.6908L92.3425 20.2422H54.3545V64.1003Z" fill="#263A59"/>
<path d="M92.3425 20.2422L90.6908 23.0969V61.2457H56.0061L54.3545 64.1003H92.3425V20.2422Z" fill="#7387A6"/>
<path d="M54.5049 64.1003V20.2422H92.3427V64.1003H54.5049Z" stroke="black" stroke-width="0.394798"/>
<path d="M59.1592 52.9375H62.3123V61.242H59.1592V52.9375Z" fill="#660000"/>
<path d="M65.4658 52.9375H68.619V61.242H65.4658V52.9375Z" fill="#660000"/>
<path d="M71.7715 52.9375H74.9246V61.242H71.7715V52.9375Z" fill="#660000"/>
<path d="M78.0781 52.9375H81.2313V61.242H78.0781V52.9375Z" fill="#660000"/>
<path d="M84.3848 52.9375H87.5379V61.242H84.3848V52.9375Z" fill="#660000"/>
<path d="M63.9639 23.0938V28.5436H70.2702V33.9934H76.5765V28.5436H82.8828V23.0938H63.9639Z" fill="#331919"/>
<path d="M66.2158 23.0938V28.5436H71.0206V33.9934H75.6753V28.5436H80.4801V23.0938H66.2158Z" fill="#4C3232"/>
<path d="M71.0215 23.0938V28.5436H72.6731V33.9934H74.1746V28.5436H75.6761V23.0938H71.0215Z" fill="#664C4C"/>
<path d="M118.018 55.7966L116.816 53.4609" stroke="black" stroke-width="0.394798"/>
<path d="M120.721 64.0969V61.2422" stroke="black" stroke-width="0.394798"/>
<path d="M113.213 46.1933L112.162 44.1172" stroke="black" stroke-width="0.394798"/>
<path d="M107.657 35.2949L106.606 33.2188" stroke="black" stroke-width="0.394798"/>
<path d="M101.502 23.0935L100.301 20.7578" stroke="black" stroke-width="0.394798"/>
<path d="M28.6787 55.7966L29.8799 53.4609" stroke="black" stroke-width="0.394798"/>
<path d="M25.9756 64.0969V61.2422" stroke="black" stroke-width="0.394798"/>
<path d="M33.4834 46.1933L34.6846 44.1172" stroke="black" stroke-width="0.394798"/>
<path d="M39.0391 35.2949L40.2403 33.2188" stroke="black" stroke-width="0.394798"/>
<path d="M45.3457 23.0935L46.5469 20.7578" stroke="black" stroke-width="0.394798"/>
<path d="M127.027 83.0448L136.487 81.7472V67.9929L127.027 66.6953V83.0448Z" stroke="black" stroke-width="0.394798"/>
<path d="M22.8227 83.0448L13.3633 81.7472V67.9929L22.8227 66.6953V83.0448Z" stroke="black" stroke-width="0.394798"/>
<path d="M19.6699 83.0448V66.6953H127.027V83.0448H19.6699Z" fill="#BFD3F2" stroke="black" stroke-width="0.394798"/>
<path d="M70.2705 6.7467V1.29688H76.5768V6.7467H70.2705Z" stroke="black" stroke-width="0.394798"/>
<path d="M48.0479 17.6497V6.75H98.6485V17.6497H48.0479Z" stroke="black" stroke-width="0.394798"/>
</svg>
