<svg width="150" height="150" viewBox="0 0 150 150" fill="none" xmlns="http://www.w3.org/2000/svg">
<g clip-path="url(#clip0_2109_225209)">
<path d="M128.327 6.60661C130.049 6.60661 131.445 5.12767 131.445 3.3033C131.445 1.47894 130.049 0 128.327 0C126.604 0 125.208 1.47894 125.208 3.3033C125.208 5.12767 126.604 6.60661 128.327 6.60661Z" stroke="black" stroke-width="0.306021"/>
<path d="M96.8294 6.60661C98.5517 6.60661 99.9479 5.12767 99.9479 3.3033C99.9479 1.47894 98.5517 0 96.8294 0C95.1071 0 93.7109 1.47894 93.7109 3.3033C93.7109 5.12767 95.1071 6.60661 96.8294 6.60661Z" stroke="black" stroke-width="0.306021"/>
<path d="M84.3555 110.664H90.5925V140.994H84.3555V110.664Z" fill="#333333" stroke="black" stroke-width="0.306021"/>
<path d="M134.407 110.664H140.8V140.994H134.407V110.664Z" fill="#333333" stroke="black" stroke-width="0.306021"/>
<path d="M75 110.664H81.237V140.994H75V110.664Z" fill="#666666" stroke="black" stroke-width="0.306021"/>
<path d="M143.763 110.664H150V140.994H143.763V110.664Z" fill="#666666" stroke="black" stroke-width="0.306021"/>
<path d="M122.713 116.668H102.443L84.9792 115.166L75 112.163V9.4603L84.9792 6.90775L102.443 5.40625H122.713L140.177 6.90775L150 9.4603V112.163L140.177 115.166L122.713 116.668Z" fill="#7F7F7F"/>
<path d="M122.09 116.663H103.379L87.1625 115.162L77.4951 112.759V9.15562L87.1625 6.60306L103.379 5.10156H122.09L138.306 6.60306L147.661 9.15562V112.759L138.306 115.162L122.09 116.663Z" fill="#858585"/>
<path d="M121.465 116.663H104.002L88.7211 115.462L79.9893 112.759V8.85532L88.7211 6.60306L104.002 5.10156H121.465L136.434 6.60306L145.478 8.85532V112.759L136.434 115.462L121.465 116.663Z" fill="#8A8A8A"/>
<path d="M120.842 116.663H104.626L90.5925 115.462L82.4844 113.36V8.55502L90.5925 6.60306L104.626 5.10156H120.842L134.875 6.60306L142.983 8.55502V113.36L134.875 115.462L120.842 116.663Z" fill="#8F8F8F"/>
<path d="M120.219 116.663H105.25L92.4639 115.462L84.9795 113.66V8.25472L92.4639 6.30276L105.25 5.10156H120.219L133.004 6.30276L140.489 8.25472V113.66L133.004 115.462L120.219 116.663Z" fill="#969696"/>
<path d="M119.594 116.663H105.873L94.0225 115.462L87.4736 113.66V7.95442L94.0225 6.30276L105.873 5.10156H119.594L131.133 6.30276L137.993 7.95442V113.66L131.133 115.462L119.594 116.663Z" fill="#9C9C9C"/>
<path d="M118.659 116.663H106.497L95.8942 115.762L89.6572 114.261V7.65411L95.8942 6.00246L106.497 5.10156H118.659L129.106 6.00246L135.499 7.65411V114.261L129.106 115.762L118.659 116.663Z" fill="#A1A1A1"/>
<path d="M118.036 116.663H107.121L97.7653 115.762L92.4639 114.561V7.35381L97.7653 6.00246L107.121 5.10156H118.036L127.391 6.00246L133.004 7.35381V114.561L127.391 115.762L118.036 116.663Z" fill="#A6A6A6"/>
<path d="M117.411 116.663H107.744L99.6358 116.063L94.958 114.861V7.05351L99.6358 6.00246L107.744 5.10156H117.411L125.831 6.00246L130.509 7.05351V114.861L125.831 116.063L117.411 116.663Z" fill="#ABABAB"/>
<path d="M116.788 116.663H108.368L101.196 116.063L97.1416 115.162V6.90336L101.196 6.00246L108.368 5.10156H116.788L123.961 6.00246L128.015 6.90336V115.162L123.961 116.063L116.788 116.663Z" fill="#B0B0B0"/>
<path d="M116.164 116.663H108.991L103.066 116.363L99.6357 115.462V6.60306L103.066 5.70216L108.991 5.10156H116.164L122.089 5.70216L125.519 6.60306V115.462L122.089 116.363L116.164 116.663Z" fill="#B5B5B5"/>
<path d="M115.54 116.663H109.927L104.938 116.363L102.131 115.762V6.30276L104.938 5.70216L109.927 5.10156H115.54L120.218 5.70216L123.025 6.30276V115.762L120.218 116.363L115.54 116.663Z" fill="#BDBDBD"/>
<path d="M114.917 116.663H110.551L106.809 116.363L104.626 116.063V6.00246L106.809 5.40186L110.551 5.10156H114.917L118.659 5.40186L120.842 6.00246V116.063L118.659 116.363L114.917 116.663Z" fill="#C2C2C2"/>
<path d="M114.294 116.663H111.175H108.68L107.121 116.363V5.70216L108.68 5.40186L111.175 5.10156H114.294L116.788 5.40186L118.348 5.70216V116.363L116.788 116.663H114.294Z" fill="#C7C7C7"/>
<path d="M113.357 116.668H111.798H110.239H109.615V5.40625H110.239H111.798H113.357H114.917H115.852V116.668H114.917H113.357Z" fill="#CCCCCC"/>
<path d="M122.713 116.668H102.443L84.9792 115.166L75 112.163V9.4603L84.9792 6.90775L102.443 5.40625H122.713L140.177 6.90775L150 9.4603V112.163L140.177 115.166L122.713 116.668Z" stroke="black" stroke-width="0.306021"/>
<path d="M0 59.6094H69.6985V140.991H0V59.6094Z" fill="#CCCCCC"/>
<path d="M0 112.16L69.6985 78.2266V140.989H0V112.16Z" fill="#C7C7C7"/>
<path d="M0 118.77L69.6985 84.8359V140.992H0V118.77Z" fill="#C2C2C2"/>
<path d="M0 125.676L69.6985 91.7422V140.991H0V125.676Z" fill="#BDBDBD"/>
<path d="M0 59.6094H69.6985V140.991H0V59.6094Z" stroke="black" stroke-width="0.306021"/>
<path d="M0 140.992H150V142.944H0V140.992Z" fill="#B2B2B2" stroke="black" stroke-width="0.306021"/>
<path d="M0 147.594H150V149.846H0V147.594Z" fill="#B2B2B2" stroke="black" stroke-width="0.306021"/>
<path d="M2.96289 142.945H147.038V147.6H2.96289V142.945Z" fill="#7F7F7F" stroke="black" stroke-width="0.306021"/>
<path d="M43.8154 101.648H56.2894V137.985H43.8154V101.648Z" fill="#A6A6A6"/>
<path d="M12.3184 113.664H24.7924V137.988H12.3184V113.664Z" fill="#A6A6A6"/>
<path d="M46.9336 80.6323V60.8125H65.6446" stroke="white" stroke-width="0.306021"/>
<path d="M46.9336 80.6323H65.6446V60.8125" stroke="#4C4C4C" stroke-width="0.306021"/>
<path d="M18.5547 77.625H37.2657V89.637H18.5547V77.625Z" fill="#FF7F7F"/>
<path d="M24.792 62.3125H31.029V74.6248H24.792V62.3125Z" fill="#4C4C4C"/>
<path d="M50.0518 83.6328H59.4073V95.6448H50.0518V83.6328Z" fill="#4C4C4C"/>
<path d="M101.819 83.634C104.403 83.634 106.497 81.6173 106.497 79.1295C106.497 76.6417 104.403 74.625 101.819 74.625C99.2359 74.625 97.1416 76.6417 97.1416 79.1295C97.1416 81.6173 99.2359 83.634 101.819 83.634Z" fill="black"/>
<path d="M101.663 82.5788C103.644 82.5788 105.25 81.0326 105.25 79.1253C105.25 77.218 103.644 75.6719 101.663 75.6719C99.6828 75.6719 98.0771 77.218 98.0771 79.1253C98.0771 81.0326 99.6828 82.5788 101.663 82.5788Z" fill="#E5E5E5"/>
<path d="M18.5547 89.637V77.625H37.2657" stroke="white" stroke-width="0.306021"/>
<path d="M37.5782 77.625V89.637H18.8672" stroke="black" stroke-width="0.306021"/>
<path d="M108.056 36.7891V39.7921H87.4736V36.7891H108.056Z" fill="#CC9933"/>
<path d="M87.4736 62.3125V65.6158H27.9102V62.3125H87.4736Z" fill="#CC9933"/>
<path d="M84.3555 26.2734H87.474V62.3095H84.3555V26.2734Z" fill="#CC9933"/>
<path d="M86.8499 63.2109V64.7124H27.9102V63.2109H86.8499Z" fill="#FFCC00"/>
<path d="M85.291 26.2734H86.5384V63.2104H85.291V26.2734Z" fill="#FFCC00"/>
<path d="M108.056 37.6875V38.8887H86.8506V37.6875H108.056Z" fill="#FFCC00"/>
<path d="M26.5068 58.1094H29.4694V71.6229H26.5068V58.1094Z" fill="#CC9933"/>
<path d="M95.2698 54.8047V58.108H26.5068V54.8047H95.2698Z" fill="#CC9933"/>
<path d="M140.801 136.484V139.337H92.4639V136.484H140.801Z" fill="#CC9933"/>
<path d="M92.1514 58.1094H95.2699V136.488H92.1514V58.1094Z" fill="#CC9933"/>
<path d="M27.5986 57.2109H28.5342V71.6254H27.5986V57.2109Z" fill="#FFCC00"/>
<path d="M94.6468 55.7031V57.2046H27.2871V55.7031H94.6468Z" fill="#FFCC00"/>
<path d="M93.0869 57.2109H94.3343V137.091H93.0869V57.2109Z" fill="#FFCC00"/>
<path d="M140.8 137.391V138.442H93.0869V137.391H140.8Z" fill="#FFCC00"/>
<path d="M0 51.2031H2.18295V59.6115H0V51.2031Z" fill="#999999" stroke="black" stroke-width="0.306021"/>
</g>
<defs>
<clipPath id="clip0_2109_225209">
<rect width="150" height="150" fill="white"/>
</clipPath>
</defs>
</svg>
