<svg width="150" height="150" viewBox="0 0 150 150" fill="none" xmlns="http://www.w3.org/2000/svg">
<g clip-path="url(#clip0_2109_227443)">
<path d="M112.462 150L116.666 144.595L120.87 21.6216L116.666 0H33.1827L28.9785 21.6216L33.1827 144.595L37.3869 150H112.462Z" fill="#7F7F7F"/>
<path d="M111.561 145.749L115.765 140.73L119.969 24.3204L115.765 3.66406H34.3839L30.1797 24.3204L34.0836 140.73L38.2878 145.749H111.561Z" fill="#8C8C8C"/>
<path d="M110.961 141.891L114.865 136.872L118.769 26.833L114.865 7.91406H35.2853L31.0811 26.833L35.2853 136.872L39.1892 141.891H110.961Z" fill="#999999"/>
<path d="M110.06 137.642L113.964 133.395L117.868 29.9202L113.964 11.7734H36.1861L32.2822 29.9202L36.1861 133.395L40.09 137.642H110.06Z" fill="#A6A6A6"/>
<path d="M109.16 133.784L112.763 129.537L116.667 32.6258L113.063 16.0234H37.0875L33.1836 32.6258L37.0875 129.537L40.9914 133.784H109.16Z" fill="#B2B2B2"/>
<path d="M108.259 129.924L111.862 126.063L115.766 35.7152L112.163 20.0781H37.9884L34.3848 35.7152L37.9884 126.063L41.8923 129.924H108.259Z" fill="#BFBFBF"/>
<path d="M107.357 125.675L110.961 122.2L114.564 38.4163L110.961 23.9375H38.8888L35.2852 38.4163L38.8888 122.2L42.4924 125.675H107.357Z" fill="#CCCCCC"/>
<path d="M106.757 121.815L110.06 118.34L113.664 41.5057L110.06 27.9922H40.0899L36.4863 41.5057L39.7896 118.34L43.3932 121.815H106.757Z" fill="#D9D9D9"/>
<path d="M102.252 112.547L105.255 109.458L108.258 43.4346L105.255 31.8516H44.5948L41.5918 43.4346L44.5948 109.458L47.5978 112.547H102.252Z" fill="#E5E5E5"/>
<path d="M112.462 150L116.666 144.595L120.87 21.6216L116.666 0H33.1827L28.9785 21.6216L33.1827 144.595L37.3869 150H112.462Z" stroke="black" stroke-width="0.340509"/>
<path d="M116.667 16.0234H125.075V42.6644H116.667V16.0234Z" fill="#7F7F7F"/>
<path d="M33.1828 16.0234H24.7744V42.6644H33.1828V16.0234Z" fill="#7F7F7F"/>
<path d="M116.667 17.9531H125.075V40.733H116.667V17.9531Z" fill="#878787"/>
<path d="M33.1828 17.9531H24.7744V40.733H33.1828V17.9531Z" fill="#878787"/>
<path d="M116.667 20.0781H125.075V38.804H116.667V20.0781Z" fill="#919191"/>
<path d="M33.1828 20.0781H24.7744V38.804H33.1828V20.0781Z" fill="#919191"/>
<path d="M116.667 22.3906H125.075V36.4833H116.667V22.3906Z" fill="#999999"/>
<path d="M33.1828 22.3906H24.7744V36.4833H33.1828V22.3906Z" fill="#999999"/>
<path d="M116.667 24.3281H125.075V34.5598H116.667V24.3281Z" fill="#A1A1A1"/>
<path d="M33.1828 24.3281H24.7744V34.5598H33.1828V24.3281Z" fill="#A1A1A1"/>
<path d="M116.667 26.0625H125.075V32.6262H116.667V26.0625Z" fill="#ABABAB"/>
<path d="M33.1828 26.0625H24.7744V32.6262H33.1828V26.0625Z" fill="#ABABAB"/>
<path d="M116.667 27.9922H125.075V30.3088H116.667V27.9922Z" fill="#B2B2B2"/>
<path d="M33.1828 28.375H24.7744V30.3055H33.1828V28.375Z" fill="#B2B2B2"/>
<path d="M125.075 14.0938H150V46.1401H125.075V14.0938Z" fill="#999999" stroke="black" stroke-width="0.340509"/>
<path d="M24.7748 14.0938H0V46.5262H24.7748V14.0938Z" fill="#999999" stroke="black" stroke-width="0.340509"/>
<path d="M133.033 50L127.777 46.139L133.033 42.6641H144.594L150 46.139L144.594 50H133.033Z" fill="#666666" stroke="black" stroke-width="0.340509"/>
<path d="M16.8168 50L22.0721 46.5251L16.8168 42.6641H5.25526L0 46.5251L5.25526 50H16.8168Z" fill="#666666" stroke="black" stroke-width="0.340509"/>
<path d="M133.033 42.6668L127.777 30.3116L133.033 17.5703H144.594L150 30.3116L144.594 42.6668H133.033Z" fill="#B2B2B2" stroke="black" stroke-width="0.340509"/>
<path d="M16.8168 42.6668L22.0721 30.3116L16.8168 17.5703H5.25526L0 30.3116L5.25526 42.6668H16.8168Z" fill="#B2B2B2" stroke="black" stroke-width="0.340509"/>
<path d="M133.033 17.567L127.777 14.0921L133.033 10.6172H144.594L150 14.0921L144.594 17.567H133.033Z" fill="#E5E5E5" stroke="black" stroke-width="0.340509"/>
<path d="M16.8168 17.567L22.0721 14.0921L16.8168 10.6172H5.25526L0 14.0921L5.25526 17.567H16.8168Z" fill="#E5E5E5" stroke="black" stroke-width="0.340509"/>
<path d="M116.667 16.0234H125.075V42.6644H116.667V16.0234Z" stroke="black" stroke-width="0.340509"/>
<path d="M33.1828 16.0234H24.7744V42.6644H33.1828V16.0234Z" stroke="black" stroke-width="0.340509"/>
<path d="M79.1289 150V0" stroke="#7F7F7F" stroke-width="0.340509"/>
<path d="M70.7207 150V0" stroke="#7F7F7F" stroke-width="0.340509"/>
<path d="M45.7959 21.6216H62.3124V0" stroke="#7F7F7F" stroke-width="0.340509"/>
</g>
<defs>
<clipPath id="clip0_2109_227443">
<rect width="150" height="150" fill="white"/>
</clipPath>
</defs>
</svg>
