<svg width="150" height="150" viewBox="0 0 150 150" fill="none" xmlns="http://www.w3.org/2000/svg">
<g clip-path="url(#clip0_2109_227158)">
<path d="M150 0L124.925 13.6066H0L28.0781 0H150Z" fill="#E5E5E0" stroke="#40401A" stroke-width="0.313782"/>
<path d="M150 0L124.925 13.6066V150L150 132.951V0Z" fill="#BFBFB2" stroke="#40401A" stroke-width="0.313782"/>
<path d="M0 13.6094H124.925V150.003H0V13.6094Z" fill="#CCCCC2" stroke="#40401A" stroke-width="0.313782"/>
<path d="M9.30957 23.7734H115.616V139.839H9.30957V23.7734Z" fill="#A6A694" stroke="#40401A" stroke-width="0.313782"/>
<path d="M62.4629 23.7734V139.839" stroke="#40401A" stroke-width="0.313782"/>
<path d="M50.7508 84.0971L50 81.802L50.7508 79.343L53.003 78.3594L55.2553 79.343L56.1562 81.802L55.2553 84.0971L53.003 85.0807L50.7508 84.0971Z" fill="#F2F2F2" stroke="black" stroke-width="0.313782"/>
<path d="M69.6695 84.0971L68.7686 81.802L69.6695 79.343L71.9217 78.3594L74.0238 79.343L74.9247 81.802L74.0238 84.0971L71.9217 85.0807L69.6695 84.0971Z" fill="#F2F2F2" stroke="black" stroke-width="0.313782"/>
</g>
<defs>
<clipPath id="clip0_2109_227158">
<rect width="150" height="150" fill="white"/>
</clipPath>
</defs>
</svg>
