<svg width="150" height="150" viewBox="0 0 150 150" fill="none" xmlns="http://www.w3.org/2000/svg">
<g clip-path="url(#clip0_2109_225130)">
<path d="M11.2617 101.432L34.3848 123.475L22.9734 145.519H99.8503L130.781 92.4766H30.7812L11.2617 101.432Z" fill="#665940" stroke="black" stroke-width="0.32161"/>
<path d="M11.2617 13.2578H26.8773V21.8686L65.3158 13.2578H134.685V101.432H65.3158L26.8773 92.4771V101.432H11.2617V13.2578Z" fill="#BFB299"/>
<path d="M11.5615 18.0859H26.8768V26.0079L65.3153 18.0859H134.685V96.2719H65.3153L26.8768 88.6944V96.2719H11.5615V18.0859Z" fill="#C4B79E"/>
<path d="M11.5615 23.0781H26.8768V29.7945L65.3153 23.0781H134.685V91.4478H65.3153L26.8768 84.5592V91.4478H11.5615V23.0781Z" fill="#CCBFA6"/>
<path d="M11.5615 28.0703H26.8768V33.9257L65.3153 28.0703H134.685V86.6237H65.3153L26.8768 80.7684V86.6237H11.5615V28.0703Z" fill="#D1C4AB"/>
<path d="M11.5615 32.8906H26.8768V37.7127L65.3153 32.8906H134.685V81.4555H65.3153L26.8768 76.6334V81.4555H11.5615V32.8906Z" fill="#D9CCB3"/>
<path d="M11.5615 38.0625H26.8768V41.8512L65.3153 38.0625H134.685V76.6388H65.3153L26.8768 72.8501V76.6388H11.5615V38.0625Z" fill="#DED1B8"/>
<path d="M11.5615 42.8828H26.8768V45.6383L65.3153 42.8828H134.685V71.4706H65.3153L26.8768 68.7152V71.4706H11.5615V42.8828Z" fill="#E5D8BF"/>
<path d="M11.5615 48.0469H26.8768V49.769L65.3153 48.0469H134.685V66.6462H65.3153L26.8768 64.5796V66.6462H11.5615V48.0469Z" fill="#EBDEC5"/>
<path d="M11.2617 52.8672H26.8773V53.9005L65.3158 52.8672H134.685V61.8224H65.3158L26.8773 60.7891V61.8224H11.2617V52.8672Z" fill="#F2E5CC"/>
<path d="M11.2617 13.2578H26.8773V21.8686L65.3158 13.2578H134.685V101.432H65.3158L26.8773 92.4771V101.432H11.2617V13.2578Z" stroke="black" stroke-width="0.32161"/>
<path d="M0 13.2578H11.2613V101.432H0V13.2578Z" fill="#B2B2B2"/>
<path d="M0 18.0859H11.5616V96.2719H0V18.0859Z" fill="#B8B8B8"/>
<path d="M0 23.0781H11.5616V91.4478H0V23.0781Z" fill="#BFBFBF"/>
<path d="M0 28.0703H11.5616V86.6237H0V28.0703Z" fill="#C4C4C4"/>
<path d="M0 32.8906H11.5616V81.4555H0V32.8906Z" fill="#CCCCCC"/>
<path d="M0 38.0625H11.5616V76.6388H0V38.0625Z" fill="#D1D1D1"/>
<path d="M0 42.8828H11.5616V71.4706H0V42.8828Z" fill="#D9D9D9"/>
<path d="M0 48.0469H11.5616V66.6462H0V48.0469Z" fill="#DEDEDE"/>
<path d="M0 52.8672H11.2613V61.8224H0V52.8672Z" fill="#E5E5E5"/>
<path d="M0 13.2578H11.2613V101.432H0V13.2578Z" stroke="black" stroke-width="0.32161"/>
<path d="M103.754 101.435L134.685 83.8691V0H142.192L150 8.78301V101.435L142.192 110.39H126.877L103.754 101.435Z" fill="#998C73" stroke="black" stroke-width="0.32161"/>
<path d="M144.295 35.3016L143.694 37.3682L136.187 34.9572L136.787 32.8906L144.295 35.3016Z" fill="#CCCCCC" stroke="#666666" stroke-width="0.32161"/>
<path d="M144.295 46.3251L143.694 48.3917L136.187 45.9807L136.787 43.9141L144.295 46.3251Z" fill="#CCCCCC" stroke="#666666" stroke-width="0.32161"/>
<path d="M144.295 57.3485L143.694 59.4151L136.187 57.0041L136.787 54.9375L144.295 57.3485Z" fill="#CCCCCC" stroke="#666666" stroke-width="0.32161"/>
<path d="M144.295 68.372L143.694 70.4385L136.187 68.0275L136.787 65.9609L144.295 68.372Z" fill="#CCCCCC" stroke="#666666" stroke-width="0.32161"/>
<path d="M82.7332 65.9609V68.372H30.7812V65.9609H82.7332Z" fill="#CCCCCC" stroke="#666666" stroke-width="0.32161"/>
<path d="M84.5342 107.978H82.7324V4.47656H84.5342V107.978Z" fill="#CCCCCC" stroke="#666666" stroke-width="0.32161"/>
<path d="M65.3158 103.5L67.1176 107.978H95.9464V110.044H65.3158L63.2137 105.911H30.7812V103.5H65.3158Z" fill="#CCCCCC" stroke="#666666" stroke-width="0.32161"/>
<path d="M84.5342 130.024H82.7324V110.047H84.5342V130.024Z" fill="#CCCCCC" stroke="#666666" stroke-width="0.32161"/>
<path d="M107.658 130.023V132.434H50V130.023H107.658Z" fill="#CCCCCC" stroke="#666666" stroke-width="0.32161"/>
<path d="M144.294 101.436H142.192V35.3047H144.294V101.436Z" fill="#CCCCCC" stroke="#666666" stroke-width="0.32161"/>
<path d="M142.342 99.0234L143.394 101.09L106.757 125.2L105.556 123.478L142.342 99.0234Z" fill="#CCCCCC" stroke="#666666" stroke-width="0.32161"/>
<path d="M99.8496 119H113.363V127.955H99.8496V119Z" fill="#999999" stroke="black" stroke-width="0.32161"/>
<path d="M73.123 4.47656H94.1441V12.9151H73.123V4.47656Z" fill="#999999" stroke="black" stroke-width="0.32161"/>
<path d="M95.9463 0H99.8502V145.522H95.9463V0Z" fill="#BFB299" stroke="black" stroke-width="0.32161"/>
<path d="M99.8497 145.523V150.001H15.165V145.523H99.8497Z" fill="#BFB299" stroke="black" stroke-width="0.32161"/>
<path d="M34.3847 123.477L19.0693 145.52H22.9732L38.2886 123.477H34.3847Z" fill="#BFB299" stroke="black" stroke-width="0.32161"/>
<path d="M26.877 0H30.7809V119.001H26.877V0Z" fill="#BFB299" stroke="black" stroke-width="0.32161"/>
<path d="M76.7266 0H90.2401V4.47761H76.7266V0Z" fill="#CCCCCC" stroke="black" stroke-width="0.32161"/>
<path d="M35.4355 134.328C40.1623 134.328 43.9941 129.933 43.9941 124.512C43.9941 119.09 40.1623 114.695 35.4355 114.695C30.7088 114.695 26.877 119.09 26.877 124.512C26.877 129.933 30.7088 134.328 35.4355 134.328Z" fill="#99CCCC" stroke="black" stroke-width="0.32161"/>
<path d="M35.4355 132.437C39.1671 132.437 42.1922 128.967 42.1922 124.687C42.1922 120.407 39.1671 116.938 35.4355 116.938C31.7038 116.938 28.6787 120.407 28.6787 124.687C28.6787 128.967 31.7038 132.437 35.4355 132.437Z" fill="#003333"/>
<path d="M87.3877 138.804C92.1144 138.804 95.9462 134.41 95.9462 128.988C95.9462 123.567 92.1144 119.172 87.3877 119.172C82.6609 119.172 78.8291 123.567 78.8291 128.988C78.8291 134.41 82.6609 138.804 87.3877 138.804Z" fill="#D9CCB3" stroke="black" stroke-width="0.32161"/>
<path d="M87.3876 136.913C91.1193 136.913 94.1444 133.444 94.1444 129.164C94.1444 124.884 91.1193 121.414 87.3876 121.414C83.656 121.414 80.6309 124.884 80.6309 129.164C80.6309 133.444 83.656 136.913 87.3876 136.913Z" fill="#33260D"/>
</g>
<defs>
<clipPath id="clip0_2109_225130">
<rect width="150" height="150" fill="white"/>
</clipPath>
</defs>
</svg>
