<svg width="150" height="150" viewBox="0 0 150 150" fill="none" xmlns="http://www.w3.org/2000/svg">
<path d="M62.0117 64.4609H131.381V132.843H110.36V86.7649H62.0117V64.4609Z" fill="#7F7F7F" stroke="black" stroke-width="0.383674"/>
<path d="M62.0117 84.0703H131.381V86.7664H62.0117V84.0703Z" fill="#333333"/>
<path d="M102.402 140.687H139.489V132.844H102.402V140.687Z" fill="#7F7F7F" stroke="black" stroke-width="0.383674"/>
<path d="M121.021 56.375H97.4473V72.3064H103.153L101.201 77.9436L99.8497 84.3162L99.0989 92.1593L99.5494 99.2672L100.751 105.885L102.853 112.012L105.555 117.159L108.709 121.571L112.462 124.757L116.516 126.718L118.769 127.453H121.021H123.123L127.477 125.983L131.231 123.287L134.685 119.365L139.039 112.012L140.991 105.885L142.192 99.2672L142.642 95.8358V92.1593V88.4828L141.742 81.375L140.09 75.2475L137.688 69.3652L133.033 62.5025L129.429 59.3162L125.225 57.1103L123.123 56.6201L121.021 56.375Z" fill="#CCCCCC" stroke="black" stroke-width="0.383674"/>
<path d="M120.871 59.0703L122.973 59.3154L124.925 59.8056L126.877 60.5409L128.829 61.7664L130.48 62.9919L132.132 64.7076L133.784 66.6684L135.135 68.6291L136.486 71.0801L137.688 73.5311L138.739 76.2272L139.489 79.1684L140.24 82.1095L140.691 85.2958L140.991 88.7272L141.141 91.9134L140.991 95.3448L140.691 98.7762L140.24 101.717L139.489 104.904L138.739 107.6L137.688 110.296L136.486 112.992L135.135 115.198L133.784 117.404L132.132 119.364L130.48 121.08L128.829 122.306L126.877 123.531L124.925 124.266L122.973 124.757L120.871 125.002L118.769 124.757L116.817 124.266L114.865 123.531L113.063 122.306L111.261 121.08L109.609 119.364L108.108 117.404L106.606 115.198L105.405 112.992L104.204 110.296L103.153 107.6L102.252 104.904L101.651 101.717L101.201 98.7762L100.751 95.3448V91.9134V88.9723L101.051 85.786L101.501 82.8448L102.252 79.9036L103.003 77.2076L103.904 74.2664L105.105 71.8154L106.306 69.6095H97.4473V59.0703H120.871Z" fill="#E5E5E5"/>
<path d="M29.7295 140.686H33.0328V110.539H50.7505V140.686H52.4022V106.617H29.7295V140.686Z" fill="#333333"/>
<path d="M62.0117 101.228L81.3811 75.0021V53.9237L62.0117 27.4531V101.228Z" fill="#999999"/>
<path d="M62.0117 100.003L81.3811 72.3071V56.3758L62.0117 28.6797V100.003Z" fill="#B2B2B2"/>
<path d="M62.0117 97.3064L81.3811 68.3848V60.2966L62.0117 31.375V97.3064Z" fill="#CCCCCC"/>
<path d="M29.7295 1.22656H55.5553V22.305H29.7295V1.22656Z" fill="#E5E5E5" stroke="black" stroke-width="0.383674"/>
<path d="M62.012 22.3047H20.1201V106.618H62.012V22.3047Z" fill="#E5E5E5" stroke="black" stroke-width="0.383674"/>
<path d="M23.2734 106.617H29.7299V140.686H23.2734V106.617Z" fill="#B2B2B2" stroke="black" stroke-width="0.383674"/>
<path d="M52.4023 106.617H58.8588V140.686H52.4023V106.617Z" fill="#B2B2B2" stroke="black" stroke-width="0.383674"/>
<path d="M20.1203 22.3047L0.750977 32.8439V85.54L20.1203 106.618V22.3047Z" fill="#CCCCCC" stroke="black" stroke-width="0.383674"/>
<path d="M62.0117 101.228L81.3811 75.0021V53.9237L62.0117 27.4531V101.228Z" stroke="black" stroke-width="0.383674"/>
<path d="M81.3809 82.8457V45.8359H84.534V51.2281H94.2938V45.8359H97.4469V82.8457H94.2938V77.4536H84.534V82.8457H81.3809Z" fill="#7F7F7F"/>
<path d="M81.3809 78.9245V49.7578H84.534V53.9245H94.2938V49.7578H97.4469V78.9245H94.2938V74.7578H84.534V78.9245H81.3809Z" fill="#999999"/>
<path d="M81.3809 73.5308V55.1484H84.534V57.8445H94.2938V55.1484H97.4469V73.5308H94.2938V70.8347H84.534V73.5308H81.3809Z" fill="#B2B2B2"/>
<path d="M40.2402 2.45312H45.045V5.1492H40.2402V2.45312Z" fill="#7F7F7F"/>
<path d="M30.4805 20.8353V18.1392L54.8048 12.9922V20.8353H30.4805Z" fill="#D9D9D9"/>
<path d="M20.8711 105.148V91.4222L61.2615 82.8438V105.148H20.8711Z" fill="#D9D9D9"/>
<path d="M81.3809 66.9127V61.7656H84.534V62.5009H94.2938V61.7656H97.4469V66.9127H94.2938V66.1774H84.534V66.9127H81.3809Z" fill="#E5E5E5"/>
<path d="M84.5342 77.4521V51.2266" stroke="black" stroke-width="0.383674"/>
<path d="M94.2939 77.4521V51.2266" stroke="black" stroke-width="0.383674"/>
<path d="M81.3809 82.8457V45.8359H84.534V51.2281H94.2938V45.8359H97.4469V82.8457H94.2938V77.4536H84.534V82.8457H81.3809Z" stroke="black" stroke-width="0.383674"/>
<path d="M120.871 106.375C125.763 106.375 129.729 99.9004 129.729 91.9139C129.729 83.9274 125.763 77.4531 120.871 77.4531C115.978 77.4531 112.012 83.9274 112.012 91.9139C112.012 99.9004 115.978 106.375 120.871 106.375Z" fill="#333333" stroke="black" stroke-width="0.383674"/>
<path d="M120.871 102.453C124.436 102.453 127.327 97.7349 127.327 91.9142C127.327 86.0936 124.436 81.375 120.871 81.375C117.305 81.375 114.414 86.0936 114.414 91.9142C114.414 97.7349 117.305 102.453 120.871 102.453Z" fill="#666666"/>
<path d="M17.568 140.688H145.196V130.148H149.1V148.531H13.6641V130.148H17.568V140.688Z" fill="#CCCCCC" stroke="black" stroke-width="0.383674"/>
<path d="M86.1865 52.4531V76.2276" stroke="white" stroke-width="0.383674"/>
<path d="M87.8379 52.4531V76.2276" stroke="white" stroke-width="0.383674"/>
<path d="M89.4893 52.4531V76.2276" stroke="white" stroke-width="0.383674"/>
<path d="M90.9912 52.4531V76.2276" stroke="white" stroke-width="0.383674"/>
<path d="M92.6426 52.4531V76.2276" stroke="white" stroke-width="0.383674"/>
</svg>
