<svg width="150" height="150" viewBox="0 0 150 150" fill="none" xmlns="http://www.w3.org/2000/svg">
<g clip-path="url(#clip0_2109_226991)">
<path d="M8.25781 130.523H11.7113V142.918H8.25781V130.523Z" fill="#B2B2B2" stroke="black" stroke-width="0.389772"/>
<path d="M95.7959 130.523H99.2494V142.918H95.7959V130.523Z" fill="#B2B2B2" stroke="black" stroke-width="0.389772"/>
<path d="M51.502 130.523H55.1056V142.918H51.502V130.523Z" fill="#B2B2B2" stroke="black" stroke-width="0.389772"/>
<path d="M106.606 78.1641H144.144V99.6649H106.606V78.1641Z" fill="#B2B2B2" stroke="black" stroke-width="0.389772"/>
<path d="M14.7148 30.1016H22.9731V49.0729H14.7148V30.1016Z" fill="#B2B2B2" stroke="black" stroke-width="0.389772"/>
<path d="M53.1533 30.1016H61.7119V49.0729H53.1533V30.1016Z" fill="#B2B2B2" stroke="black" stroke-width="0.389772"/>
<path d="M0 46.7969H110.811V112.817H0V46.7969Z" fill="#B2B2B2" stroke="black" stroke-width="0.389772"/>
<path d="M0 131.531H110.811V112.812H0V131.531Z" fill="#B2B2B2" stroke="black" stroke-width="0.389772"/>
<path d="M5.70605 149.999H105.105V141.398H5.70605V149.999Z" fill="#B2B2B2" stroke="black" stroke-width="0.389772"/>
<path d="M0.600586 9.10938H80.03V31.622H0.600586V9.10938Z" fill="#B2B2B2" stroke="black" stroke-width="0.389772"/>
<path d="M65.6152 0H76.8765V40.4722H65.6152V0Z" fill="#B2B2B2" stroke="black" stroke-width="0.389772"/>
<path d="M65.6152 11.1328H76.8765V29.5982H65.6152V11.1328Z" fill="#B2B2B2" stroke="black" stroke-width="0.389772"/>
<path d="M78.5283 5.82031H106.006V56.6635H78.5283V5.82031Z" fill="#B2B2B2" stroke="black" stroke-width="0.389772"/>
<path d="M131.381 33.8939L136.186 29.5938V78.1604H131.381V33.8939Z" fill="#B2B2B2" stroke="black" stroke-width="0.389772"/>
<path d="M132.282 23.0156L130.03 31.1101H106.006V23.0156H132.282Z" fill="#B2B2B2" stroke="black" stroke-width="0.389772"/>
<path d="M130.03 31.1101L132.283 23.0156L136.186 29.5924L131.382 33.8925L130.03 31.1101Z" fill="#B2B2B2" stroke="black" stroke-width="0.389772"/>
<path d="M144.145 87.2656H150V97.1307H144.145V87.2656Z" fill="#B2B2B2" stroke="black" stroke-width="0.389772"/>
<path d="M13.0627 96.3727V31.6172H4.05371V116.609L5.10476 123.944L7.65731 130.521L11.4111 135.327L16.2159 137.098L21.0207 135.327L24.9246 130.521L27.4771 123.944L28.5282 116.609L27.4771 108.261L24.9246 101.938L21.0207 97.6374L16.2159 95.8668L13.0627 96.3727Z" fill="#B2B2B2" stroke="black" stroke-width="0.389772"/>
<path d="M17.4178 123.695C20.1544 123.695 22.3728 119.958 22.3728 115.347C22.3728 110.737 20.1544 107 17.4178 107C14.6813 107 12.4629 110.737 12.4629 115.347C12.4629 119.958 14.6813 123.695 17.4178 123.695Z" fill="white" stroke="black" stroke-width="0.389772"/>
</g>
<defs>
<clipPath id="clip0_2109_226991">
<rect width="150" height="150" fill="white"/>
</clipPath>
</defs>
</svg>
