<svg width="150" height="150" viewBox="0 0 150 150" fill="none" xmlns="http://www.w3.org/2000/svg">
<path d="M146.096 107.632H3.75374L1.35134 96.4305L0.750736 83.7682L0.600586 80.3591V77.437L1.05104 62.8266L2.55254 49.6773L3.45344 47.2422H3.75374H146.096L148.498 57.9565L149.099 71.1058V74.0279V77.437L148.799 91.5604L147.297 105.197L146.396 107.145L146.096 107.632Z" fill="#7F7F7F"/>
<path d="M146.096 100.813H141.592H137.237H132.733H119.37H114.865H34.3846H30.0303H3.15338L2.70293 100.326L0.901127 86.2028L0.750977 82.3067V77.4366V72.5665L1.80203 57.4691L2.70293 54.06L3.15338 53.573H30.0303L34.3846 53.0859H38.8891H114.865L119.37 53.573H146.096L146.697 54.06L148.949 68.1833L149.099 72.0794L149.249 76.9496L149.099 81.8197L147.898 96.9171L146.697 100.326L146.096 100.813Z" fill="#999999"/>
<path d="M146.096 94.966H141.592H137.087H132.583H119.219L114.715 94.479H33.9342L29.4297 94.966H2.40263L2.10233 94.479L0.750977 80.8426V77.4335V73.5374L2.10233 59.9011L2.40263 59.4141H29.4297H33.9342H38.4387H114.715H119.219H146.096L146.697 59.9011L149.099 73.5374L149.249 76.9465L149.099 80.8426L147.298 93.505L146.697 94.479L146.096 94.966Z" fill="#B2B2B2"/>
<path d="M146.096 88.1526H141.592H137.087H132.583H119.069H114.565H33.3336H28.8291H1.80203H1.50173L1.20143 87.6656L0.750977 81.3344V79.3864V76.9513L1.50173 66.237L1.80203 65.75H28.8291H33.3336H37.8381H114.565H119.069H146.096L149.099 75.0032L149.249 76.9513L149.099 79.3864L146.096 88.1526Z" fill="#CCCCCC"/>
<path d="M146.096 82.3054H1.05104H0.900886L0.750736 81.3314L0.600586 79.8703L0.750736 73.0522L0.900886 72.5651L1.05104 72.0781H146.096L149.099 76.4612V77.4353V78.4093L146.096 82.3054Z" fill="#E5E5E5"/>
<path d="M146.096 107.632H3.75374L1.35134 96.4305L0.750736 83.7682L0.600586 80.3591V77.437L1.05104 62.8266L2.55254 49.6773L3.45344 47.2422H3.75374H146.096L148.498 57.9565L149.099 71.1058V74.0279V77.437L148.799 91.5604L147.297 105.197L146.396 107.145L146.096 107.632Z" stroke="black" stroke-width="0.540833"/>
<path d="M124.324 127.598V27.2734H130.631V42.3708H146.096V112.501H130.631V127.598H124.324Z" fill="#999999"/>
<path d="M124.475 116.883V37.5H130.631V49.1883H146.096V105.195H130.631V116.883H124.475Z" fill="#B2B2B2"/>
<path d="M124.475 106.168V47.7266H130.631V56.9798H146.096V97.8889H130.631V106.168H124.475Z" fill="#CCCCCC"/>
<path d="M124.475 95.9401V57.9531H130.631V63.7973H146.096V90.583H130.631V95.9401H124.475Z" fill="#E5E5E5"/>
<path d="M124.324 85.7173V68.6719H130.631V71.1069H146.096V83.2823H130.631V85.7173H124.324Z" fill="white"/>
<path d="M107.357 147.568H118.168V142.698H115.165V67.2109H110.511V142.698H107.357V147.568Z" fill="#4C4C4C" stroke="black" stroke-width="0.540833"/>
<path d="M20.8711 147.568H31.5318V142.698H28.5288V67.2109H23.8741V142.698H20.8711V147.568Z" fill="#4C4C4C" stroke="black" stroke-width="0.540833"/>
<path d="M110.511 67.2109H115.165V102.276H110.511V67.2109Z" fill="#999999"/>
<path d="M23.874 67.2109H28.5287V102.276H23.874V67.2109Z" fill="#999999"/>
<path d="M116.667 47.2375V7.30246H113.664V1.94531H122.823V7.30246H119.82V47.2375H116.667Z" fill="#7F7F7F" stroke="black" stroke-width="0.540833"/>
<path d="M22.2218 47.2375V7.30246H19.2188V1.94531H28.5281V7.30246H25.3749V22.3999H28.5281V17.0427H30.0296V32.1401H28.5281V27.27H25.3749V47.2375H22.2218Z" fill="#7F7F7F" stroke="black" stroke-width="0.540833"/>
<path d="M130.631 32.1406H133.634V37.0108H130.631V32.1406Z" fill="#4C4C4C"/>
<path d="M130.631 46.2656H133.634V51.1358H130.631V46.2656Z" fill="#4C4C4C"/>
<path d="M130.631 60.875H133.634V65.7451H130.631V60.875Z" fill="#4C4C4C"/>
<path d="M130.631 75H133.634V79.8701H130.631V75Z" fill="#4C4C4C"/>
<path d="M130.631 89.125H133.634V93.9951H130.631V89.125Z" fill="#4C4C4C"/>
<path d="M130.631 103.734H133.634V108.117H130.631V103.734Z" fill="#4C4C4C"/>
<path d="M130.631 117.859H133.634V122.73H130.631V117.859Z" fill="#4C4C4C"/>
<path d="M121.321 32.1406H124.474V37.0108H121.321V32.1406Z" fill="#4C4C4C"/>
<path d="M121.321 46.2656H124.474V51.1358H121.321V46.2656Z" fill="#4C4C4C"/>
<path d="M121.321 60.875H124.474V65.7451H121.321V60.875Z" fill="#4C4C4C"/>
<path d="M121.321 75H124.474V79.8701H121.321V75Z" fill="#4C4C4C"/>
<path d="M121.321 89.125H124.474V93.9951H121.321V89.125Z" fill="#4C4C4C"/>
<path d="M121.321 103.734H124.474V108.117H121.321V103.734Z" fill="#4C4C4C"/>
<path d="M121.321 117.859H124.474V122.73H121.321V117.859Z" fill="#4C4C4C"/>
<path d="M124.324 127.598V27.2734H130.631V42.3708H146.096V112.501H130.631V127.598H124.324Z" stroke="black" stroke-width="0.540833"/>
<path d="M130.631 112.497V42.3672" stroke="black" stroke-width="0.540833"/>
<path d="M127.478 127.598V27.2734" stroke="black" stroke-width="0.540833"/>
<path d="M20.7207 1.94531H26.8769V7.30246H20.7207V1.94531Z" fill="#CCCCCC"/>
<path d="M115.165 1.94531H121.321V7.30246H115.165V1.94531Z" fill="#CCCCCC"/>
<path d="M139.039 96.9151C140.283 96.9151 141.292 93.6444 141.292 89.6099C141.292 85.5753 140.283 82.3047 139.039 82.3047C137.795 82.3047 136.787 85.5753 136.787 89.6099C136.787 93.6444 137.795 96.9151 139.039 96.9151Z" stroke="#7F7F7F" stroke-width="0.540833"/>
<path d="M138.288 37.0156H142.943V42.3728H138.288V37.0156Z" fill="#B2B2B2" stroke="black" stroke-width="0.540833"/>
<path d="M142.943 56.9844H144.445V67.2116H142.943V56.9844Z" fill="#7F7F7F"/>
</svg>
