<svg width="150" height="150" viewBox="0 0 150 150" fill="none" xmlns="http://www.w3.org/2000/svg">
<g clip-path="url(#clip0_2109_225622)">
<path d="M1.50195 50H148.349V129.902H1.50195V50Z" fill="#999999"/>
<path d="M1.50195 63.2344H148.349V116.666H1.50195V63.2344Z" fill="#BFBFBF"/>
<path d="M1.50195 76.4688H148.349V102.939H1.50195V76.4688Z" fill="#E5E5E5"/>
<path d="M1.50195 50H148.349V129.902H1.50195V50Z" stroke="black" stroke-width="0.542597"/>
<path d="M80.9307 50.0005L82.7325 35.2946L87.237 30.8828L91.4412 35.2946L93.243 50.0005H91.4412L90.24 40.1965L87.237 37.2554L84.234 40.1965L82.7325 50.0005H80.9307Z" fill="#999999" stroke="black" stroke-width="0.542597"/>
<path d="M56.6064 50.0005L58.4082 35.2946L62.6125 30.8828L67.117 35.2946L68.9188 50.0005H67.117L65.6155 40.1965L62.6125 37.2554L59.6094 40.1965L58.4082 50.0005H56.6064Z" fill="#999999" stroke="black" stroke-width="0.542597"/>
<path d="M91.1406 90.1953H93.2427V142.156H91.1406V90.1953Z" fill="#B2B2B2" stroke="black" stroke-width="0.542597"/>
<path d="M56.6064 90.1953H58.7085V142.156H56.6064V90.1953Z" fill="#B2B2B2" stroke="black" stroke-width="0.542597"/>
<path d="M51.8018 149.999V142.156H58.7087V149.999H51.8018Z" fill="#7F7F7F" stroke="black" stroke-width="0.542597"/>
<path d="M91.1406 149.999V142.156H98.0475V149.999H91.1406Z" fill="#7F7F7F" stroke="black" stroke-width="0.542597"/>
<path d="M68.9189 39.2188H80.931V54.905H68.9189V39.2188Z" fill="#7F7F7F" stroke="black" stroke-width="0.542597"/>
<path d="M0 39.7031H6.00601V50.9776H0V39.7031Z" fill="#CCCCCC" stroke="black" stroke-width="0.542597"/>
<path d="M0 61.7656H6.00601V73.0401H0V61.7656Z" fill="#CCCCCC" stroke="black" stroke-width="0.542597"/>
<path d="M0 84.3125H6.00601V95.0968H0V84.3125Z" fill="#CCCCCC" stroke="black" stroke-width="0.542597"/>
<path d="M0 106.375H6.00601V117.65H0V106.375Z" fill="#CCCCCC" stroke="black" stroke-width="0.542597"/>
<path d="M0 128.43H6.00601V139.704H0V128.43Z" fill="#CCCCCC" stroke="black" stroke-width="0.542597"/>
<path d="M12.1621 39.7031H24.4744V50.9776H12.1621V39.7031Z" fill="#CCCCCC" stroke="black" stroke-width="0.542597"/>
<path d="M12.1621 61.7656H24.4744V73.0401H12.1621V61.7656Z" fill="#CCCCCC" stroke="black" stroke-width="0.542597"/>
<path d="M12.1621 84.3125H24.4744V95.0968H12.1621V84.3125Z" fill="#CCCCCC" stroke="black" stroke-width="0.542597"/>
<path d="M12.1621 106.375H24.4744V117.65H12.1621V106.375Z" fill="#CCCCCC" stroke="black" stroke-width="0.542597"/>
<path d="M12.1621 128.43H24.4744V139.704H12.1621V128.43Z" fill="#CCCCCC" stroke="black" stroke-width="0.542597"/>
<path d="M13.6641 29.8984H16.8172V149.996H13.6641V29.8984Z" fill="#999999"/>
<path d="M13.6641 50H16.8172V129.902H13.6641V50Z" fill="#BFBFBF"/>
<path d="M13.6641 69.6094H16.8172V109.805H13.6641V69.6094Z" fill="#E5E5E5"/>
<path d="M13.6641 29.8984H16.8172V149.996H13.6641V29.8984Z" stroke="black" stroke-width="0.542597"/>
<path d="M1.50195 29.8984H4.50496V149.996H1.50195V29.8984Z" fill="#999999"/>
<path d="M1.50195 50H4.50496V129.902H1.50195V50Z" fill="#BFBFBF"/>
<path d="M1.50195 69.6094H4.50496V109.805H1.50195V69.6094Z" fill="#E5E5E5"/>
<path d="M1.50195 29.8984H4.50496V149.996H1.50195V29.8984Z" stroke="black" stroke-width="0.542597"/>
<path d="M19.8203 29.8984H22.9735V149.996H19.8203V29.8984Z" fill="#999999"/>
<path d="M19.8193 50H22.9725V129.902H19.8193V50Z" fill="#BFBFBF"/>
<path d="M19.8203 69.6094H22.9735V109.805H19.8203V69.6094Z" fill="#E5E5E5"/>
<path d="M19.8203 29.8984H22.9735V149.996H19.8203V29.8984Z" stroke="black" stroke-width="0.542597"/>
<path d="M150 139.704H143.844V128.43H150V139.704Z" fill="#CCCCCC" stroke="black" stroke-width="0.542597"/>
<path d="M150 117.65H143.844V106.375H150V117.65Z" fill="#CCCCCC" stroke="black" stroke-width="0.542597"/>
<path d="M150 95.587H143.844V84.3125H150V95.587Z" fill="#CCCCCC" stroke="black" stroke-width="0.542597"/>
<path d="M150 73.5323H143.844V62.2578H150V73.5323Z" fill="#CCCCCC" stroke="black" stroke-width="0.542597"/>
<path d="M150 50.9776H143.844V39.7031H150V50.9776Z" fill="#CCCCCC" stroke="black" stroke-width="0.542597"/>
<path d="M137.687 139.704H125.375V128.43H137.687V139.704Z" fill="#CCCCCC" stroke="black" stroke-width="0.542597"/>
<path d="M137.687 117.65H125.375V106.375H137.687V117.65Z" fill="#CCCCCC" stroke="black" stroke-width="0.542597"/>
<path d="M137.687 95.587H125.375V84.3125H137.687V95.587Z" fill="#CCCCCC" stroke="black" stroke-width="0.542597"/>
<path d="M137.687 73.5323H125.375V62.2578H137.687V73.5323Z" fill="#CCCCCC" stroke="black" stroke-width="0.542597"/>
<path d="M137.687 50.9776H125.375V39.7031H137.687V50.9776Z" fill="#CCCCCC" stroke="black" stroke-width="0.542597"/>
<path d="M136.186 149.996H133.033V29.8984H136.186V149.996Z" fill="#999999"/>
<path d="M136.186 129.902H133.033V50H136.186V129.902Z" fill="#BFBFBF"/>
<path d="M136.186 109.805H133.033V69.6094H136.186V109.805Z" fill="#E5E5E5"/>
<path d="M136.186 149.996H133.033V29.8984H136.186V149.996Z" stroke="black" stroke-width="0.542597"/>
<path d="M148.349 149.996H145.346V29.8984H148.349V149.996Z" fill="#999999"/>
<path d="M148.349 129.902H145.346V50H148.349V129.902Z" fill="#BFBFBF"/>
<path d="M148.349 109.805H145.346V69.6094H148.349V109.805Z" fill="#E5E5E5"/>
<path d="M148.349 149.996H145.346V29.8984H148.349V149.996Z" stroke="black" stroke-width="0.542597"/>
<path d="M130.03 149.996H126.877V29.8984H130.03V149.996Z" fill="#999999"/>
<path d="M130.03 129.902H126.877V50H130.03V129.902Z" fill="#BFBFBF"/>
<path d="M130.03 109.805H126.877V69.6094H130.03V109.805Z" fill="#E5E5E5"/>
<path d="M130.03 149.996H126.877V29.8984H130.03V149.996Z" stroke="black" stroke-width="0.542597"/>
<path d="M113.063 54.8992V14.7031H99.3994V54.8992L106.306 67.1541L113.063 54.8992Z" fill="#999999" stroke="black" stroke-width="0.542597"/>
<path d="M110.811 54.8992V14.7031H101.651V54.8992L106.306 67.1541L110.811 54.8992Z" fill="#BFBFBF"/>
<path d="M108.558 54.8992V14.7031H104.054V54.8992L106.306 67.1541L108.558 54.8992Z" fill="#E5E5E5"/>
<path d="M94.7451 14.7059V0H117.718V14.7059H94.7451Z" fill="#999999"/>
<path d="M98.6484 14.7059V0H113.964V14.7059H98.6484Z" fill="#BFBFBF"/>
<path d="M102.402 14.7059V0H110.21V14.7059H102.402Z" fill="#E5E5E5"/>
<path d="M94.7451 14.7059V0H117.718V14.7059H94.7451Z" stroke="black" stroke-width="0.542597"/>
<path d="M48.7984 54.8992V14.7031H35.1348V54.8992L42.0417 67.1541L48.7984 54.8992Z" fill="#999999" stroke="black" stroke-width="0.542597"/>
<path d="M46.5469 54.8992V14.7031H37.3877V54.8992L42.0423 67.1541L46.5469 54.8992Z" fill="#BFBFBF"/>
<path d="M44.2945 54.8992V14.7031H39.79V54.8992L42.0423 67.1541L44.2945 54.8992Z" fill="#E5E5E5"/>
<path d="M30.4805 14.7059V0H53.4534V14.7059H30.4805Z" fill="#999999"/>
<path d="M34.3848 14.7059V0H49.7001V14.7059H34.3848Z" fill="#BFBFBF"/>
<path d="M38.1377 14.7059V0H45.9455V14.7059H38.1377Z" fill="#E5E5E5"/>
<path d="M30.4805 14.7059V0H53.4534V14.7059H30.4805Z" stroke="black" stroke-width="0.542597"/>
<path d="M143.393 50.0008V34.8047H138.288V50.0008L140.841 54.9027L143.393 50.0008Z" fill="#999999" stroke="black" stroke-width="0.542597"/>
<path d="M142.643 50.0008V34.8047H139.039V50.0008L140.841 54.9027L142.643 50.0008Z" fill="#BFBFBF"/>
<path d="M141.741 50.0008V34.8047H139.939V50.0008L140.84 54.9027L141.741 50.0008Z" fill="#E5E5E5"/>
<path d="M136.787 34.8004V29.8984H144.595V34.8004H136.787Z" fill="#999999"/>
<path d="M138.138 34.8004V29.8984H143.243V34.8004H138.138Z" fill="#BFBFBF"/>
<path d="M139.34 34.8004V29.8984H142.043V34.8004H139.34Z" fill="#E5E5E5"/>
<path d="M136.787 34.8004V29.8984H144.595V34.8004H136.787Z" stroke="black" stroke-width="0.542597"/>
<path d="M137.988 129.41V144.606H143.244V129.41L140.691 124.508L137.988 129.41Z" fill="#999999" stroke="black" stroke-width="0.542597"/>
<path d="M138.889 129.41V144.606H142.342V129.41L140.69 124.508L138.889 129.41Z" fill="#BFBFBF"/>
<path d="M139.79 129.41V144.606H141.442V129.41L140.691 124.508L139.79 129.41Z" fill="#E5E5E5"/>
<path d="M144.595 144.609V150.002H136.787V144.609H144.595Z" fill="#999999"/>
<path d="M143.243 144.609V150.002H138.138V144.609H143.243Z" fill="#BFBFBF"/>
<path d="M142.042 144.609V150.002H139.489V144.609H142.042Z" fill="#E5E5E5"/>
<path d="M144.595 144.609V150.002H136.787V144.609H144.595Z" stroke="black" stroke-width="0.542597"/>
</g>
<defs>
<clipPath id="clip0_2109_225622">
<rect width="150" height="150" fill="white"/>
</clipPath>
</defs>
</svg>
