<svg width="150" height="150" viewBox="0 0 150 150" fill="none" xmlns="http://www.w3.org/2000/svg">
<g clip-path="url(#clip0_2109_227059)">
<path d="M0.825195 149.099V7.50781H134.159V149.099H0.825195Z" fill="#CCCCCC" stroke="black" stroke-width="0.314816"/>
<path d="M149.01 142.342V0.75L134.158 7.50676V149.098L149.01 142.342Z" fill="#B2B2B2" stroke="black" stroke-width="0.314816"/>
<path d="M15.6767 0.75H149.01L134.159 7.50676H0.825195L15.6767 0.75Z" fill="#E5E5E5" stroke="black" stroke-width="0.314816"/>
<path d="M4.62012 36.1875H130.528V39.4908H4.62012V36.1875Z" fill="#999999"/>
<path d="M4.62012 88.4375H130.528V91.7408H4.62012V88.4375Z" fill="#999999"/>
<path d="M4.62012 139.789H130.528V143.243H4.62012V139.789Z" fill="#999999"/>
<path d="M11.8809 143.992H123.102V147.446H11.8809V143.992Z" fill="#999999"/>
<path d="M11.8809 143.992V19.3672H123.102V143.992H11.8809Z" fill="#7F8C99"/>
<path d="M11.8809 143.993V96.8463L123.102 63.0625V143.993H11.8809Z" fill="#778491"/>
<path d="M11.8809 143.996V110.362L123.102 76.5781V143.996H11.8809Z" fill="#6B7885"/>
<path d="M11.8809 143.997V117.12L123.102 83.3359V143.997H11.8809Z" fill="#65727F"/>
<path d="M11.8809 143.992V19.3672H123.102V143.992H11.8809Z" stroke="black" stroke-width="0.314816"/>
<path d="M67.4922 19.3672V143.992" stroke="black" stroke-width="0.314816"/>
<path d="M123.102 88.4403L99.0098 87.5394V84.0859L123.102 84.9868V88.4403Z" fill="#596673"/>
<path d="M11.8809 88.4403L36.1383 87.5394V84.0859L11.8809 84.9868V88.4403Z" fill="#65727F"/>
<path d="M123.102 36.1886L99.0098 35.2877V31.9844L123.102 32.7351V36.1886Z" fill="#65727F"/>
<path d="M11.8809 36.1886L36.1383 35.2877V31.9844L11.8809 32.7351V36.1886Z" fill="#65727F"/>
<path d="M123.102 139.79L99.0098 139.039V135.586L123.102 136.487V139.79Z" fill="#4C5966"/>
<path d="M11.8809 139.79L36.1383 139.039V135.586L11.8809 136.487V139.79Z" fill="#4C5966"/>
<path d="M130.528 139.787H123.102V136.484L99.0098 135.583V130.478L123.102 129.727V126.273H130.528V139.787Z" fill="#7F8C99" stroke="black" stroke-width="0.314816"/>
<path d="M130.528 88.2852H123.102V84.9819L99.0098 84.081V79.1261L123.102 78.2252V74.9219H130.528V88.2852Z" fill="#7F8C99" stroke="black" stroke-width="0.314816"/>
<path d="M130.528 36.1854H123.102V32.7319L99.0098 31.9812V26.8761L123.102 25.9752V22.6719H130.528V36.1854Z" fill="#7F8C99" stroke="black" stroke-width="0.314816"/>
<path d="M4.62012 36.1854H11.8808V32.7319L36.1383 31.9812V26.8761L11.8808 25.9752V22.6719H4.62012V36.1854Z" fill="#7F8C99" stroke="black" stroke-width="0.314816"/>
<path d="M4.62012 88.2852H11.8808V84.9819L36.1383 84.081V79.1261L11.8808 78.2252V74.9219H4.62012V88.2852Z" fill="#7F8C99" stroke="black" stroke-width="0.314816"/>
<path d="M4.62012 139.787H11.8808V136.484L36.1383 135.583V130.478L11.8808 129.727V126.273H4.62012V139.787Z" fill="#7F8C99" stroke="black" stroke-width="0.314816"/>
<path d="M102.806 82.434V80.7823L126.898 80.0316V76.5781" stroke="#405473" stroke-width="0.314816"/>
<path d="M102.806 133.934V132.282L126.898 131.381V128.078" stroke="#405473" stroke-width="0.314816"/>
<path d="M32.3434 133.934V132.282L8.25098 131.381V128.078" stroke="#405473" stroke-width="0.314816"/>
<path d="M32.3434 82.434V80.7823L8.25098 80.0316V76.5781" stroke="#405473" stroke-width="0.314816"/>
<path d="M102.806 30.184V28.5323L126.898 27.7816V24.3281" stroke="#405473" stroke-width="0.314816"/>
<path d="M32.3434 30.184V28.5323L8.25098 27.7816V24.3281" stroke="#405473" stroke-width="0.314816"/>
<path d="M70.2969 127.18V39.4922H73.9272V127.18H70.2969Z" fill="#4C5966"/>
<path d="M61.0557 127.18V39.4922H64.686V127.18H61.0557Z" fill="#4C5966"/>
<path d="M70.2969 127.18V39.4922H73.9272" stroke="#BFCCD9" stroke-width="0.314816"/>
<path d="M61.0557 127.18V39.4922H64.686" stroke="#BFCCD9" stroke-width="0.314816"/>
<path d="M67.4922 143.998L69.3074 133.938H74.9179L76.7331 143.998V147.451H67.4922V143.998Z" fill="#65727F" stroke="black" stroke-width="0.314816"/>
<path d="M58.251 143.998L60.0662 133.938H65.6767L67.4919 143.998V147.451H58.251V143.998Z" fill="#65727F" stroke="black" stroke-width="0.314816"/>
<path d="M67.4919 19.3675L65.6767 29.4276H60.0662L58.251 19.3675V15.9141H67.4919V19.3675Z" fill="#65727F" stroke="black" stroke-width="0.314816"/>
<path d="M76.7331 19.3675L74.9179 29.4276H69.3074L67.4922 19.3675V15.9141H76.7331V19.3675Z" fill="#65727F" stroke="black" stroke-width="0.314816"/>
<path d="M61.0557 29.4276V15.9141H64.686V29.4276H61.0557Z" fill="#98A5B2"/>
<path d="M70.2969 29.4276V15.9141H73.9272V29.4276H70.2969Z" fill="#98A5B2"/>
<path d="M73.9272 133.938V147.451H70.2969V133.938H73.9272Z" fill="#98A5B2"/>
<path d="M64.686 133.938V147.451H61.0557V133.938H64.686Z" fill="#98A5B2"/>
<path d="M75.9079 143.992H59.0762" stroke="#405473" stroke-width="0.314816"/>
<path d="M59.0762 19.3672H75.9079" stroke="#405473" stroke-width="0.314816"/>
<path d="M86.1387 44.5938H104.621V61.4106H86.1387V44.5938Z" fill="#CCCCCC"/>
<path d="M90.7588 140.688H99.9997V143.24H90.7588V140.688Z" fill="#B2B2B2"/>
</g>
<defs>
<clipPath id="clip0_2109_227059">
<rect width="150" height="150" fill="white"/>
</clipPath>
</defs>
</svg>
