<svg width="150" height="150" viewBox="0 0 150 150" fill="none" xmlns="http://www.w3.org/2000/svg">
<g clip-path="url(#clip0_2109_226639)">
<path d="M136.637 87.0234H138.439V141.604H136.637V87.0234Z" fill="#666666" stroke="black" stroke-width="0.338553"/>
<path d="M109.91 32.4466L129.129 11.8359H140.24V18.7062H134.685L129.129 32.4466H109.91Z" fill="#333333" stroke="black" stroke-width="0.338553"/>
<path d="M132.883 19.8473L130.33 16.7939V9.92366L132.883 6.29771V0H140.841V3.05344H138.288V6.29771H140.841L143.393 9.92366V16.7939L140.841 19.8473H132.883Z" fill="#666666" stroke="black" stroke-width="0.338553"/>
<path d="M3.60352 135.117H133.634V141.606H3.60352V135.117Z" fill="#333333"/>
<path d="M2.10254 32.4453H133.634V135.117H2.10254V32.4453Z" fill="#4C4C4C"/>
<path d="M2.10254 35.5H133.634V132.065H2.10254V35.5Z" fill="#545454"/>
<path d="M2.10254 38.5469H133.634V129.005H2.10254V38.5469Z" fill="#5C5C5C"/>
<path d="M2.10254 41.6016H133.634V125.953H2.10254V41.6016Z" fill="#636363"/>
<path d="M2.10254 44.6562H133.634V122.901H2.10254V44.6562Z" fill="#6B6B6B"/>
<path d="M2.10254 47.3281H133.634V119.847H2.10254V47.3281Z" fill="#757575"/>
<path d="M2.10254 50.3828H133.634V116.795H2.10254V50.3828Z" fill="#7D7D7D"/>
<path d="M2.10254 53.4375H133.634V114.125H2.10254V53.4375Z" fill="#858585"/>
<path d="M2.10254 56.4922H133.634V111.072H2.10254V56.4922Z" fill="#8C8C8C"/>
<path d="M2.10254 59.5391H133.634V108.012H2.10254V59.5391Z" fill="#949494"/>
<path d="M2.10254 62.5938H133.634V104.96H2.10254V62.5938Z" fill="#9C9C9C"/>
<path d="M2.10254 65.6484H133.634V101.908H2.10254V65.6484Z" fill="#A3A3A3"/>
<path d="M2.10254 68.7031H133.634V98.8558H2.10254V68.7031Z" fill="#ABABAB"/>
<path d="M2.10254 71.375H133.634V95.8025H2.10254V71.375Z" fill="#B5B5B5"/>
<path d="M2.10254 74.4297H133.634V92.7503H2.10254V74.4297Z" fill="#BDBDBD"/>
<path d="M2.10254 77.4844H133.634V90.0798H2.10254V77.4844Z" fill="#C4C4C4"/>
<path d="M2.10254 80.5312H133.634V87.0198H2.10254V80.5312Z" fill="#CCCCCC"/>
<path d="M2.10254 32.4453H133.634V135.117H2.10254V32.4453Z" stroke="black" stroke-width="0.338553"/>
<path d="M0 141.602H150V149.999H0V141.602Z" fill="#B2B2B2"/>
<path d="M0 145.805H150V150.003H0V145.805Z" fill="#999999"/>
<path d="M0 141.602H150V149.999H0V141.602Z" stroke="black" stroke-width="0.338553"/>
<path d="M133.333 87.0236L136.036 91.2221L138.438 87.0236V16.0312H133.333V87.0236Z" fill="#7F7F7F"/>
<path d="M134.835 89.3137L136.036 91.2221L137.237 89.3137V16.0312H134.835V89.3137Z" fill="#CCCCCC"/>
<path d="M133.333 87.0236L136.036 91.2221L138.438 87.0236V16.0312H133.333V87.0236Z" stroke="black" stroke-width="0.338553"/>
<path d="M6.45605 116.413V66.0312H14.7143V116.413H6.45605Z" fill="#7F7F7F"/>
<path d="M7.20703 116.413V66.0312H14.4142V116.413H7.20703Z" fill="#999999"/>
<path d="M7.95801 116.413V66.0312H13.3634V116.413H7.95801Z" fill="#B2B2B2"/>
<path d="M9.00879 116.413V66.0312H12.6124V116.413H9.00879Z" fill="#CCCCCC"/>
<path d="M9.45898 116.413V66.0312H11.8614V116.413H9.45898Z" fill="#E5E5E5"/>
<path d="M10.0605 116.413V66.0312H11.1116V116.413H10.0605Z" fill="white"/>
<path d="M6.45605 116.413V66.0312H14.7143V116.413H6.45605Z" stroke="black" stroke-width="0.338553"/>
<path d="M130.03 53.4375H74.1738V124.812H130.03V53.4375Z" fill="#666666"/>
<path d="M97.2969 49.2344H130.33V112.211H97.2969V49.2344Z" fill="#CCCCCC"/>
<path d="M97.2969 93.8906L130.33 67.5547V112.211H97.2969V93.8906Z" fill="#C7C7C7"/>
<path d="M97.2969 96.5624L130.33 70.2266V112.211H97.2969V96.5624Z" fill="#C2C2C2"/>
<path d="M97.2969 100.383L130.33 74.0469V112.215H97.2969V100.383Z" fill="#BDBDBD"/>
<path d="M97.2969 49.2344H130.33V112.211H97.2969V49.2344Z" stroke="black" stroke-width="0.338553"/>
<path d="M116.216 55.3438H125.525V79.3896H116.216V55.3438Z" fill="#333333"/>
<path d="M113.814 109.162L109.609 103.437L113.814 98.0938L118.318 103.437L113.814 109.162Z" fill="#E5E5E5"/>
<path d="M102.103 91.2188H125.526V94.2722H102.103V91.2188Z" fill="#B2B2B2"/>
<path d="M103.604 62.2152L102.103 60.3068L103.604 58.3984L105.406 60.3068L103.604 62.2152Z" fill="#666666"/>
<path d="M107.507 62.2152L106.006 60.3068L107.507 58.3984L109.009 60.3068L107.507 62.2152Z" fill="#666666"/>
<path d="M103.604 67.175L102.103 65.2666L103.604 62.9766L105.406 65.2666L103.604 67.175Z" fill="#999999"/>
<path d="M107.507 67.175L106.006 65.2666L107.507 62.9766L109.009 65.2666L107.507 67.175Z" fill="#999999"/>
<path d="M103.604 73.2844L102.103 70.9943L103.604 69.0859L105.406 70.9943L103.604 73.2844Z" fill="#999999"/>
<path d="M107.507 73.2844L106.006 70.9943L107.507 69.0859L109.009 70.9943L107.507 73.2844Z" fill="#999999"/>
<path d="M113.813 82.0601H127.928V52.2891" stroke="#999999" stroke-width="0.338553"/>
<path d="M113.813 82.0601V52.2891H127.928" stroke="white" stroke-width="0.338553"/>
<path d="M74.1738 30.5312H93.9936V116.409H74.1738V30.5312Z" fill="#4C4C4C"/>
<path d="M74.1738 36.6406H93.9936V114.885H74.1738V36.6406Z" fill="#5C5C5C"/>
<path d="M74.1738 42.75H93.9936V112.979H74.1738V42.75Z" fill="#6B6B6B"/>
<path d="M74.1738 48.8516H93.9936V111.447H74.1738V48.8516Z" fill="#7D7D7D"/>
<path d="M74.1738 55.3438H93.9936V109.924H74.1738V55.3438Z" fill="#8C8C8C"/>
<path d="M74.1738 61.4531H93.9936V108.4H74.1738V61.4531Z" fill="#9C9C9C"/>
<path d="M74.1738 67.5547H93.9936V106.486H74.1738V67.5547Z" fill="#ABABAB"/>
<path d="M74.1738 73.6641H93.9936V104.962H74.1738V73.6641Z" fill="#BDBDBD"/>
<path d="M74.1738 79.7734H93.9936V103.438H74.1738V79.7734Z" fill="#CCCCCC"/>
<path d="M74.1738 30.5312H93.9936V116.409H74.1738V30.5312Z" stroke="black" stroke-width="0.338553"/>
<path d="M3.15332 47.3281H74.1743V55.7251H3.15332V47.3281Z" fill="#7F7F7F"/>
<path d="M3.15332 47.7109H74.1743V55.3445H3.15332V47.7109Z" fill="#999999"/>
<path d="M3.15332 48.8516H74.1743V54.1951H3.15332V48.8516Z" fill="#B2B2B2"/>
<path d="M3.15332 49.6172H74.1743V53.434H3.15332V49.6172Z" fill="#CCCCCC"/>
<path d="M3.15332 50.3828H74.1743V52.6729H3.15332V50.3828Z" fill="#E5E5E5"/>
<path d="M3.15332 51.1484H74.1743V51.9118H3.15332V51.1484Z" fill="white"/>
<path d="M3.15332 47.3281H74.1743V55.7251H3.15332V47.3281Z" stroke="black" stroke-width="0.338553"/>
<path d="M0 43.1328H3.15315V59.9267H0V43.1328Z" fill="#B2B2B2" stroke="black" stroke-width="0.338553"/>
<path d="M54.3545 36.6406H133.333V37.7857H54.3545V36.6406Z" fill="#CCCCCC"/>
<path d="M27.9277 28.2422H29.7295V47.3262H27.9277V28.2422Z" fill="#B2B2B2" stroke="black" stroke-width="0.338553"/>
<path d="M36.3359 28.2422H37.8374V47.3262H36.3359V28.2422Z" fill="#B2B2B2" stroke="black" stroke-width="0.338553"/>
<path d="M44.4443 28.2422H46.2461V47.3262H44.4443V28.2422Z" fill="#B2B2B2" stroke="black" stroke-width="0.338553"/>
<path d="M52.8525 28.2422H54.354V47.3262H52.8525V28.2422Z" fill="#B2B2B2" stroke="black" stroke-width="0.338553"/>
<path d="M108.709 112.211H118.619L116.817 135.112H110.511L108.709 112.211Z" fill="#4C4C4C" stroke="black" stroke-width="0.338553"/>
<path d="M138.438 38.932L140.09 30.5351V22.1381L138.438 16.0312" stroke="black" stroke-width="0.338553"/>
<path d="M133.333 36.6419L131.832 30.5351L130.33 22.1381L133.333 16.0312" stroke="black" stroke-width="0.338553"/>
</g>
<defs>
<clipPath id="clip0_2109_226639">
<rect width="150" height="150" fill="white"/>
</clipPath>
</defs>
</svg>
