<svg width="150" height="150" viewBox="0 0 150 150" fill="none" xmlns="http://www.w3.org/2000/svg">
<g clip-path="url(#clip0_2109_225999)">
<path d="M41.6553 44.4453H51.0678L66.6887 65.4663H83.3108L98.9316 44.4453H108.344V68.6195H41.6553V44.4453Z" fill="#B2B2B2" stroke="black" stroke-width="0.346815"/>
<path d="M41.6553 67.868H53.0705L46.8622 45.1953H41.6553V67.868Z" fill="#999999"/>
<path d="M108.344 67.868H96.7285L103.137 45.1953H108.344V67.868Z" fill="#999999"/>
<path d="M41.6553 68.6172H108.344V74.9235H41.6553V68.6172Z" fill="#7F7F7F" stroke="black" stroke-width="0.346815"/>
<path d="M100.935 36.6328H108.344V44.4406H100.935V36.6328Z" fill="#7F7F7F" stroke="black" stroke-width="0.346815"/>
<path d="M48.8649 36.6328H41.6553V44.4406H48.8649V36.6328Z" fill="#7F7F7F" stroke="black" stroke-width="0.346815"/>
<path d="M74.8999 149.997L145.794 140.537L150 137.384V74.9219H74.8999H0V137.384L4.00534 140.537L74.8999 149.997Z" fill="#D9D9D9" stroke="black" stroke-width="0.346815"/>
<path d="M49.8662 71.7734V150.002H99.933V71.7734H49.8662Z" fill="#E5E5E5" stroke="black" stroke-width="0.346815"/>
<path d="M4.00488 74.9282V71.775H8.21049V37.3906H41.6551V71.775H45.8607V74.9282H4.00488Z" fill="#B2B2B2"/>
<path d="M104.139 74.9282V71.775H108.344V37.3906H141.589V71.775H145.794V74.9282H104.139Z" fill="#B2B2B2"/>
<path d="M112.55 74.9282V71.775H114.953V37.3906H134.98V71.775H137.383V74.9282H112.55Z" fill="#D9D9D9"/>
<path d="M12.417 74.9282V71.775H15.0205V37.3906H34.8469V71.775H37.4504V74.9282H12.417Z" fill="#D9D9D9"/>
<path d="M120.961 74.9282V71.775H121.762V37.3906H128.371V71.775H129.172V74.9282H120.961Z" fill="#F2F2F2"/>
<path d="M20.8281 74.9282V71.775H21.6292V37.3906H28.238V71.775H29.0391V74.9282H20.8281Z" fill="#F2F2F2"/>
<path d="M108.345 71.7734H141.589" stroke="black" stroke-width="0.346815"/>
<path d="M104.139 74.9282V71.775H108.344V37.3906H141.589V71.775H145.794V74.9282H104.139Z" stroke="black" stroke-width="0.346815"/>
<path d="M8.21094 71.7734H41.6555" stroke="black" stroke-width="0.346815"/>
<path d="M4.00488 74.9282V71.775H8.21049V37.3906H41.6551V71.775H45.8607V74.9282H4.00488Z" stroke="black" stroke-width="0.346815"/>
<path d="M148.799 75.6719V137.384L145.795 139.786L138.385 140.687V75.6719H148.799Z" fill="#CCCCCC"/>
<path d="M1.00098 75.6719V137.384L4.00498 139.786L11.4149 140.687V75.6719H1.00098Z" fill="#CCCCCC"/>
<path d="M148.798 75.6719V137.384L145.794 139.786V75.6719H148.798Z" fill="#B2B2B2"/>
<path d="M1.00098 75.6719V137.384L4.00498 139.786V75.6719H1.00098Z" fill="#B2B2B2"/>
<path d="M58.2773 81.2344H91.5217V93.6968H58.2773V81.2344Z" fill="#4C4C4C"/>
<path d="M60.2803 82.7344H89.5193V92.1938H60.2803V82.7344Z" fill="#F2F2F2" stroke="white" stroke-width="0.346815"/>
<path d="M143.592 37.3874L141.589 0H106.142V37.3874H143.592Z" fill="#CCCCCC" stroke="black" stroke-width="0.346815"/>
<path d="M6.20801 37.3874L8.21068 0H43.6579V37.3874H6.20801Z" fill="#CCCCCC" stroke="black" stroke-width="0.346815"/>
<path d="M141.589 0L142.39 15.4655H106.142V0H141.589Z" fill="#BFBFBF"/>
<path d="M8.21122 0L7.41016 15.4655H43.6585V0H8.21122Z" fill="#BFBFBF"/>
<path d="M141.589 0L141.989 7.65766H106.142V0H141.589Z" fill="#B2B2B2"/>
<path d="M8.21108 0L7.81055 7.65766H43.6583V0H8.21108Z" fill="#B2B2B2"/>
<path d="M141.589 0L141.789 2.55255H106.142V0H141.589Z" fill="#999999"/>
<path d="M8.21101 0L8.01074 2.55255H43.6583V0H8.21101Z" fill="#999999"/>
<path d="M106.142 37.3874H104.139V24.1742L103.138 24.9249L101.936 36.6366H99.9336V4.65465L101.936 0.750751L106.142 0V37.3874Z" fill="#999999" stroke="black" stroke-width="0.346815"/>
<path d="M43.6582 37.3874H45.8611V24.1742L46.8625 24.9249L47.8638 36.6366H49.8665V4.65465L47.8638 0.750751L43.6582 0V37.3874Z" fill="#999999" stroke="black" stroke-width="0.346815"/>
<path d="M47.864 36.6343L46.8627 24.9226L45.8613 24.1719V36.6343H47.864Z" fill="black"/>
<path d="M101.936 36.6343L103.137 24.9226L104.138 24.1719V36.6343H101.936Z" fill="black"/>
<path d="M119.36 140.992L118.759 139.791L119.36 138.74L120.761 138.289L122.364 138.74L122.964 139.791L122.364 140.992L120.761 141.442L119.36 140.992Z" fill="#333333"/>
</g>
<defs>
<clipPath id="clip0_2109_225999">
<rect width="150" height="150" fill="white"/>
</clipPath>
</defs>
</svg>
