<svg width="150" height="150" viewBox="0 0 150 150" fill="none" xmlns="http://www.w3.org/2000/svg">
<path d="M130.63 134.875V119.749H122.072L123.423 101.472L122.072 83.825L120.12 75.6318L122.973 60.5057L123.273 41.5981L121.772 30.8839H131.081V15.7578H1.80155L0.750496 20.1696L0.450195 22.6906L0.750496 27.1023L1.80155 30.8839H114.264L118.468 39.0771L118.919 57.9847L115.315 66.8082H1.80155L0.750496 71.22L0.450195 75.6318L0.750496 79.4133L1.80155 82.5645H114.264L118.468 90.7578L118.919 110.296L115.916 119.749H1.80155L0.450195 124.161V130.464L1.80155 134.875H130.63Z" fill="#7F7F7F"/>
<path d="M140.991 139.286H143.544V115.336H140.991V139.286Z" fill="#7F7F7F"/>
<path d="M140.991 134.871H139.189V118.484H140.991V134.871Z" fill="#7F7F7F"/>
<path d="M140.991 35.2959H143.544V11.9766H140.991V35.2959Z" fill="#7F7F7F"/>
<path d="M140.991 30.8839H139.189V15.7578H140.991V30.8839Z" fill="#7F7F7F"/>
<path d="M130.63 17.0156V28.3602H121.471L121.021 27.0997L120.57 25.2089L120.12 23.9484L119.669 22.0576L119.219 20.7971L118.618 19.5366L118.168 18.2761L117.567 17.0156H130.63Z" fill="#B2B2B2" stroke="black" stroke-width="0.615248"/>
<path d="M131.081 132.352V121.008H2.10207L1.50147 124.159L1.20117 126.68L1.50147 129.201L2.10207 132.352H131.081Z" fill="#B2B2B2" stroke="black" stroke-width="0.615248"/>
<path d="M116.817 68.6963L119.519 73.1081L119.82 73.7383L120.571 71.8476L122.522 56.0913L122.673 52.94L122.823 49.1585L122.673 46.0072L120.871 29.6207L116.817 19.5366L115.165 17.6459L114.264 17.0156H2.10207L1.50147 21.4274L1.20117 22.6879L1.50147 25.8392L2.10207 28.3602H114.264L118.468 34.6627L120.12 52.3097L117.568 67.4358L116.817 68.6963Z" fill="#B2B2B2" stroke="black" stroke-width="0.615248"/>
<path d="M117.117 119.751H121.471L122.823 103.995L121.772 86.9777L118.468 73.7425L114.264 69.9609H2.10207L1.50147 72.4819L1.20117 75.6332L2.10207 79.4147H114.264L118.468 85.7172L120.12 101.474L117.718 117.86L117.117 119.751Z" fill="#B2B2B2" stroke="black" stroke-width="0.615248"/>
<path d="M137.988 132.352H134.685V147.478H137.988V132.352Z" fill="#B2B2B2" stroke="black" stroke-width="0.615248"/>
<path d="M130.631 132.352H134.385V147.478H130.631V132.352Z" fill="#B2B2B2" stroke="black" stroke-width="0.615248"/>
<path d="M130.631 105.883H134.385V117.227H130.631V105.883Z" fill="#B2B2B2" stroke="black" stroke-width="0.615248"/>
<path d="M137.988 105.883H134.685V117.227H137.988V105.883Z" fill="#B2B2B2" stroke="black" stroke-width="0.615248"/>
<path d="M137.988 140.549H139.189V114.078H137.988V140.549Z" fill="#B2B2B2" stroke="black" stroke-width="0.615248"/>
<path d="M147.448 115.336H145.796V121.008H147.448V115.336Z" fill="#B2B2B2" stroke="black" stroke-width="0.615248"/>
<path d="M143.544 115.336H145.496V121.008H143.544V115.336Z" fill="#B2B2B2" stroke="black" stroke-width="0.615248"/>
<path d="M143.544 130.461H145.496V139.284H143.544V130.461Z" fill="#B2B2B2" stroke="black" stroke-width="0.615248"/>
<path d="M147.448 130.461H145.796V139.284H147.448V130.461Z" fill="#B2B2B2" stroke="black" stroke-width="0.615248"/>
<path d="M137.988 28.3594H134.685V43.4854H137.988V28.3594Z" fill="#B2B2B2" stroke="black" stroke-width="0.615248"/>
<path d="M130.631 28.3594H134.385V43.4854H130.631V28.3594Z" fill="#B2B2B2" stroke="black" stroke-width="0.615248"/>
<path d="M130.631 1.89062H134.385V13.2352H130.631V1.89062Z" fill="#B2B2B2" stroke="black" stroke-width="0.615248"/>
<path d="M137.988 1.89062H134.685V13.2352H137.988V1.89062Z" fill="#B2B2B2" stroke="black" stroke-width="0.615248"/>
<path d="M137.988 36.5565H139.189V10.0859H137.988V36.5565Z" fill="#B2B2B2" stroke="black" stroke-width="0.615248"/>
<path d="M147.448 11.9766H145.796V17.0186H147.448V11.9766Z" fill="#B2B2B2" stroke="black" stroke-width="0.615248"/>
<path d="M143.544 11.9766H145.496V17.0186H143.544V11.9766Z" fill="#B2B2B2" stroke="black" stroke-width="0.615248"/>
<path d="M143.544 27.1016H145.496V35.2948H143.544V27.1016Z" fill="#B2B2B2" stroke="black" stroke-width="0.615248"/>
<path d="M147.448 27.1016H145.796V35.2948H147.448V27.1016Z" fill="#B2B2B2" stroke="black" stroke-width="0.615248"/>
<path d="M130.781 22.0625V25.2138H120.721L120.421 24.5835L120.12 23.323L119.82 22.6928L119.67 22.0625H130.781Z" fill="#F0F0F0"/>
<path d="M117.868 69.9617L118.619 71.2222L118.769 71.8524L119.52 69.9617L121.772 52.9449L121.922 49.7936L121.772 46.6423L119.67 30.2558L115.616 22.6928L114.865 22.0625H114.114H2.4026L1.95215 23.9533L2.4026 25.2138H114.114L118.469 30.886L120.721 44.7516L119.67 64.2894L117.868 69.9617Z" fill="#F0F0F0"/>
<path d="M118.769 119.751H119.97L121.772 103.994L121.922 101.473L121.772 98.322L119.67 81.9355L115.616 74.3724L114.865 73.7422H114.114H2.4026L1.95215 75.0027L2.4026 76.8934H114.114L118.469 82.5657L120.721 96.4313L119.97 113.448L119.219 117.86L118.769 119.751Z" fill="#F0F0F0"/>
<path d="M130.781 128.573V125.422H2.4026L1.95215 127.313L2.4026 128.573H130.781Z" fill="#F0F0F0"/>
<path d="M147.598 131.094H149.399V121.641H147.598V131.094Z" fill="#F0F0F0" stroke="black" stroke-width="0.615248"/>
<path d="M147.598 129.834H145.796V121.641H147.598V129.834Z" fill="#F0F0F0" stroke="black" stroke-width="0.615248"/>
<path d="M143.544 129.834H145.646V121.641H143.544V129.834Z" fill="#F0F0F0" stroke="black" stroke-width="0.615248"/>
<path d="M140.991 131.722H143.544V115.336H140.991V131.722Z" fill="#F0F0F0" stroke="black" stroke-width="0.615248"/>
<path d="M137.988 132.355H134.685V117.859H137.988V132.355Z" fill="#F0F0F0" stroke="black" stroke-width="0.615248"/>
<path d="M130.781 132.355H134.385V117.859H130.781V132.355Z" fill="#F0F0F0" stroke="black" stroke-width="0.615248"/>
<path d="M147.598 27.7272H149.399V18.2734H147.598V27.7272Z" fill="#F0F0F0" stroke="black" stroke-width="0.615248"/>
<path d="M147.598 26.4667H145.796V18.2734H147.598V26.4667Z" fill="#F0F0F0" stroke="black" stroke-width="0.615248"/>
<path d="M143.544 26.4667H145.646V18.2734H143.544V26.4667Z" fill="#F0F0F0" stroke="black" stroke-width="0.615248"/>
<path d="M140.991 28.3631H143.544V11.9766H140.991V28.3631Z" fill="#F0F0F0" stroke="black" stroke-width="0.615248"/>
<path d="M137.988 28.9932H134.685V13.8672H137.988V28.9932Z" fill="#F0F0F0" stroke="black" stroke-width="0.615248"/>
<path d="M130.781 28.9932H134.385V13.8672H130.781V28.9932Z" fill="#F0F0F0" stroke="black" stroke-width="0.615248"/>
</svg>
