<svg width="150" height="150" viewBox="0 0 150 150" fill="none" xmlns="http://www.w3.org/2000/svg">
<g clip-path="url(#clip0_2109_225570)">
<path d="M124.925 2.375H131.682V10.4446H124.925V2.375Z" fill="#A6A6A6" stroke="black" stroke-width="0.533943"/>
<path d="M18.3184 2.375H24.925V10.4446H18.3184V2.375Z" fill="#A6A6A6" stroke="black" stroke-width="0.533943"/>
<path d="M20.8711 2.375H22.3726V10.4446H20.8711V2.375Z" fill="#D9D9D9"/>
<path d="M127.478 2.375H129.129V10.4446H127.478V2.375Z" fill="#D9D9D9"/>
<path d="M13.3631 73.5781H10.8105V144.781H13.3631V73.5781Z" fill="#7F7F7F" stroke="black" stroke-width="0.533943"/>
<path d="M139.039 73.5781H136.637V144.781H139.039V73.5781Z" fill="#7F7F7F" stroke="black" stroke-width="0.533943"/>
<path d="M144.895 62.6605V10.4453L146.396 12.8187L147.297 16.6162L148.048 22.3124L148.798 29.4327L149.099 33.7048L149.399 37.5023L149.549 42.2491L149.699 46.9959L149.849 52.2175L150 57.439V68.3567L149.849 73.5782L149.699 78.3251L149.549 83.5466L149.399 87.8187L149.099 92.5656L148.498 100.161L147.747 106.806L146.846 111.553L145.946 114.401L144.895 115.825V62.6605Z" fill="#999999" stroke="black" stroke-width="0.533943"/>
<path d="M4.95496 63.1352V115.825L3.45345 113.452L2.55255 109.179L1.8018 103.958L1.05105 96.363L0.750751 92.5656L0.45045 88.2934L0.3003 83.5466L0.15015 78.7997L0 73.5782V68.3567V57.9137V52.6922L0.15015 47.4706L0.3003 42.7238L0.45045 37.977L0.750751 33.7048L1.35135 26.1099L2.1021 19.4643L3.003 14.7175L3.9039 11.3947L4.95496 10.4453V63.1352Z" fill="#999999" stroke="black" stroke-width="0.533943"/>
<path d="M4.95518 63.1303V97.3076L3.45368 95.8835L2.40263 91.1367L1.80203 87.3392L1.35158 82.1177L1.05128 76.4215L0.750977 69.7759V66.4531V59.3329L0.901127 52.6873L1.20143 46.9911L1.50173 41.2949L2.10233 36.5481L2.70293 32.7506L4.05428 29.4278L4.95518 28.9531V63.1303Z" fill="#BFBFBF"/>
<path d="M144.895 62.6557V28.9531L146.396 30.3772L147.447 34.6493L148.048 38.9215L148.498 44.143L148.798 49.8392L149.099 56.0101V59.3329V66.4531L148.949 73.0987L148.648 79.2696L148.348 84.9658L147.747 89.2379L147.147 93.0354L145.946 96.3582L144.895 96.8329V62.6557Z" fill="#BFBFBF"/>
<path d="M144.895 0H138.288V126.266H144.895V0Z" fill="#7F7F7F" stroke="black" stroke-width="0.533943"/>
<path d="M11.5615 10.4453H138.288V115.825H11.5615V10.4453Z" fill="#7F7F7F"/>
<path d="M11.5617 0H4.95508V126.266H11.5617V0Z" fill="#7F7F7F"/>
<path d="M144.895 12.3438H138.288V113.926H144.895V12.3438Z" fill="#A6A6A6"/>
<path d="M11.5615 20.8828H138.288V105.376H11.5615V20.8828Z" fill="#A6A6A6"/>
<path d="M11.5617 12.3438H4.95508V113.926H11.5617V12.3438Z" fill="#A6A6A6"/>
<path d="M144.895 18.9844H138.288V107.276H144.895V18.9844Z" fill="#BFBFBF"/>
<path d="M11.5615 26.1094H138.288V100.16H11.5615V26.1094Z" fill="#BFBFBF"/>
<path d="M11.5617 18.9844H4.95508V107.276H11.5617V18.9844Z" fill="#BFBFBF"/>
<path d="M144.895 44.1484H138.288V82.1231H144.895V44.1484Z" fill="#E5E5E5"/>
<path d="M11.5615 47.4688H138.288V78.7979H11.5615V47.4688Z" fill="#E5E5E5"/>
<path d="M11.5617 44.1484H4.95508V82.1231H11.5617V44.1484Z" fill="#E5E5E5"/>
<path d="M141.592 0V126.266" stroke="black" stroke-width="0.533943"/>
<path d="M11.5615 10.4453H138.288V115.825H11.5615V10.4453Z" stroke="black" stroke-width="0.533943"/>
<path d="M11.5617 0H4.95508V126.266H11.5617V0Z" stroke="black" stroke-width="0.533943"/>
<path d="M8.25781 0V126.266" stroke="black" stroke-width="0.533943"/>
<path d="M4.95508 144.781H18.3184V150.003H4.95508V144.781Z" fill="#B2B2B2" stroke="black" stroke-width="0.533943"/>
<path d="M131.682 144.781H144.895V150.003H131.682V144.781Z" fill="#B2B2B2" stroke="black" stroke-width="0.533943"/>
<path d="M18.3184 66.9274L17.7178 62.1806L18.3184 57.9084L19.6697 56.4844L21.0211 57.9084L21.6217 62.1806L21.0211 66.9274L19.6697 68.3515L18.3184 66.9274Z" fill="#666666"/>
<path d="M135.735 111.547H138.288V118.667H135.735V111.547Z" fill="#BFBFBF" stroke="black" stroke-width="0.533943"/>
<path d="M135.735 85.9141H138.288V92.5596H135.735V85.9141Z" fill="#BFBFBF" stroke="black" stroke-width="0.533943"/>
<path d="M135.735 59.8125H138.288V66.4581H135.735V59.8125Z" fill="#BFBFBF" stroke="black" stroke-width="0.533943"/>
<path d="M135.735 33.7031H138.288V40.3487H135.735V33.7031Z" fill="#BFBFBF" stroke="black" stroke-width="0.533943"/>
<path d="M135.735 7.59375H138.288V14.2393H135.735V7.59375Z" fill="#BFBFBF" stroke="black" stroke-width="0.533943"/>
<path d="M144.895 111.547H147.447V118.667H144.895V111.547Z" fill="#BFBFBF" stroke="black" stroke-width="0.533943"/>
<path d="M144.895 85.9141H147.447V92.5596H144.895V85.9141Z" fill="#BFBFBF" stroke="black" stroke-width="0.533943"/>
<path d="M144.895 59.8125H147.447V66.4581H144.895V59.8125Z" fill="#BFBFBF" stroke="black" stroke-width="0.533943"/>
<path d="M144.895 33.7031H147.447V40.3487H144.895V33.7031Z" fill="#BFBFBF" stroke="black" stroke-width="0.533943"/>
<path d="M144.895 7.59375H147.447V14.2393H144.895V7.59375Z" fill="#BFBFBF" stroke="black" stroke-width="0.533943"/>
<path d="M2.40234 111.547H4.9549V118.667H2.40234V111.547Z" fill="#BFBFBF" stroke="black" stroke-width="0.533943"/>
<path d="M2.40234 85.9141H4.9549V92.5596H2.40234V85.9141Z" fill="#BFBFBF" stroke="black" stroke-width="0.533943"/>
<path d="M2.40234 59.8125H4.9549V66.4581H2.40234V59.8125Z" fill="#BFBFBF" stroke="black" stroke-width="0.533943"/>
<path d="M2.40234 33.7031H4.9549V40.3487H2.40234V33.7031Z" fill="#BFBFBF" stroke="black" stroke-width="0.533943"/>
<path d="M2.40234 7.59375H4.9549V14.2393H2.40234V7.59375Z" fill="#BFBFBF" stroke="black" stroke-width="0.533943"/>
<path d="M11.5615 111.547H14.1141V118.667H11.5615V111.547Z" fill="#BFBFBF" stroke="black" stroke-width="0.533943"/>
<path d="M11.5615 85.9141H14.1141V92.5596H11.5615V85.9141Z" fill="#BFBFBF" stroke="black" stroke-width="0.533943"/>
<path d="M11.5615 59.8125H14.1141V66.4581H11.5615V59.8125Z" fill="#BFBFBF" stroke="black" stroke-width="0.533943"/>
<path d="M11.5615 33.7031H14.1141V40.3487H11.5615V33.7031Z" fill="#BFBFBF" stroke="black" stroke-width="0.533943"/>
<path d="M11.5615 7.59375H14.1141V14.2393H11.5615V7.59375Z" fill="#BFBFBF" stroke="black" stroke-width="0.533943"/>
</g>
<defs>
<clipPath id="clip0_2109_225570">
<rect width="150" height="150" fill="white"/>
</clipPath>
</defs>
</svg>
