<svg width="150" height="150" viewBox="0 0 150 150" fill="none" xmlns="http://www.w3.org/2000/svg">
<path d="M34.6846 125.094H115.165V131.037H34.6846V125.094Z" fill="#263A59"/>
<path d="M3.75391 20.0938H127.478V125.094H3.75391V20.0938Z" fill="#666666"/>
<path d="M0.600586 131.039H149.249V148.586H0.600586V131.039Z" fill="#7387A6" stroke="black" stroke-width="0.412288"/>
<path d="M0.600586 14.4375H3.75374V131.041H0.600586V14.4375Z" fill="#405473"/>
<path d="M0.600586 133.867H149.249V145.471H0.600586V133.867Z" fill="#596D8C" stroke="black" stroke-width="0.412288"/>
<path d="M0.600586 133.867H149.249V136.98H0.600586V133.867Z" fill="#263A59"/>
<path d="M3.9043 24.3359H127.628V120.845H3.9043V24.3359Z" fill="#737373"/>
<path d="M3.9043 28.5859H127.628V116.605H3.9043V28.5859Z" fill="#7D7D7D"/>
<path d="M3.9043 32.8281H127.628V112.356H3.9043V32.8281Z" fill="#8A8A8A"/>
<path d="M3.9043 37.0781H127.628V108.116H3.9043V37.0781Z" fill="#949494"/>
<path d="M3.9043 41.3203H127.628V103.867H3.9043V41.3203Z" fill="#A1A1A1"/>
<path d="M3.9043 45.5625H127.628V99.6191H3.9043V45.5625Z" fill="#ABABAB"/>
<path d="M3.9043 49.8125H127.628V95.3785H3.9043V49.8125Z" fill="#B8B8B8"/>
<path d="M3.9043 54.0547H127.628V91.1302H3.9043V54.0547Z" fill="#C2C2C2"/>
<path d="M3.9043 58.3047H127.628V86.8896H3.9043V58.3047Z" fill="#CFCFCF"/>
<path d="M3.9043 62.5469H127.628V82.6412H3.9043V62.5469Z" fill="#D9D9D9"/>
<path d="M3.75391 66.7891H127.478V78.3928H3.75391V66.7891Z" fill="#E5E5E5"/>
<path d="M0.750977 18.9609H3.90413V126.225H0.750977V18.9609Z" fill="#4C607F"/>
<path d="M0.750977 23.7734H3.90413V121.415H0.750977V23.7734Z" fill="#576B8A"/>
<path d="M0.750977 28.3047H3.90413V116.607H0.750977V28.3047Z" fill="#637796"/>
<path d="M0.750977 33.1094H3.90413V112.072H0.750977V33.1094Z" fill="#6E82A1"/>
<path d="M0.750977 37.9219H3.90413V107.261H0.750977V37.9219Z" fill="#7A8EAD"/>
<path d="M0.750977 42.4531H3.90413V102.736H0.750977V42.4531Z" fill="#8599B8"/>
<path d="M0.750977 47.2656H3.90413V97.926H0.750977V47.2656Z" fill="#91A5C4"/>
<path d="M0.750977 51.7891H3.90413V93.1098H0.750977V51.7891Z" fill="#9CB0CF"/>
<path d="M0.750977 56.6016H3.90413V88.2997H0.750977V56.6016Z" fill="#A8BCDB"/>
<path d="M0.750977 61.4141H3.90413V83.7726H0.750977V61.4141Z" fill="#B2C6E5"/>
<path d="M0.600586 66.2266H3.75374V78.9624H0.600586V66.2266Z" fill="#BFD3F2"/>
<path d="M0.600586 14.4375H3.75374V131.041H0.600586V14.4375Z" stroke="black" stroke-width="0.412288"/>
<path d="M3.75391 20.0938H127.478V125.094H3.75391V20.0938Z" stroke="black" stroke-width="0.412288"/>
<path d="M85.7354 46.4141H93.5432V49.2443H85.7354V46.4141Z" fill="#990000"/>
<path d="M87.3877 46.4141H91.8922V49.2443H87.3877V46.4141Z" fill="#CC4C4C"/>
<path d="M89.0391 46.4141H90.2403V49.2443H89.0391V46.4141Z" fill="#EBB8B8"/>
<path d="M117.417 95.9453H122.822V131.04H117.417V95.9453Z" fill="#7F7F7F" stroke="black" stroke-width="0.412288"/>
<path d="M119.069 95.9453H121.171V131.04H119.069V95.9453Z" fill="#CCCCCC"/>
<path d="M136.787 95.9453H142.943V131.04H136.787V95.9453Z" fill="#596D8C" stroke="black" stroke-width="0.412288"/>
<path d="M112.012 113.492H136.786V119.436H112.012V113.492Z" fill="#596D8C" stroke="black" stroke-width="0.412288"/>
<path d="M105.855 95.9453H112.012V131.04H105.855V95.9453Z" fill="#596D8C" stroke="black" stroke-width="0.412288"/>
<path d="M47.1475 119.438H102.853V131.041H47.1475V119.438Z" fill="#596D8C" stroke="black" stroke-width="0.412288"/>
<path d="M16.2158 90.2843L17.7173 87.1711V31.9825H60.9606L62.6122 26.0391H16.2158V90.2843Z" fill="#4C4C4C"/>
<path d="M62.6122 26.0391L61.1107 31.9825V87.1711H17.7173L16.2158 90.2843H62.6122V26.0391Z" fill="#B2B2B2"/>
<path d="M16.2158 26.0391H62.6122V90.2843H16.2158V26.0391Z" stroke="black" stroke-width="0.412288"/>
<path d="M17.7178 31.9844H34.6847V87.1731H17.7178V31.9844Z" fill="#661919"/>
<path d="M34.6846 31.6953H39.3392V87.167H34.6846V31.6953Z" fill="#701414"/>
<path d="M39.3398 31.6953H43.2437V87.167H39.3398V31.6953Z" fill="#780A0A"/>
<path d="M43.2432 31.6953H47.5975V87.167H43.2432V31.6953Z" fill="#820505"/>
<path d="M46.0957 31.6953H49.2489V87.167H46.0957V31.6953Z" fill="#8C0000"/>
<path d="M47.8975 31.6953H50.9005V87.167H47.8975V31.6953Z" fill="#940000"/>
<path d="M49.5498 31.6953H52.5528V87.167H49.5498V31.6953Z" fill="#9E0000"/>
<path d="M51.2012 31.6953H54.3543V87.167H51.2012V31.6953Z" fill="#A60000"/>
<path d="M52.8525 31.6953H56.0057V87.167H52.8525V31.6953Z" fill="#B00000"/>
<path d="M54.5049 31.6953H57.658V87.167H54.5049V31.6953Z" fill="#BA0000"/>
<path d="M56.3066 31.6953H59.3096V87.167H56.3066V31.6953Z" fill="#C20000"/>
<path d="M57.958 31.9844H60.961V87.1731H57.958V31.9844Z" fill="#CC0000"/>
<path d="M2.25195 14.4356V8.49219" stroke="black" stroke-width="0.412288"/>
<path d="M25.5252 42.1731H22.3721V31.9844H25.5252V42.1731Z" fill="#7F7F7F"/>
<path d="M29.2794 39.0598H26.2764V31.9844H29.2794V39.0598Z" fill="#7F7F7F"/>
<path d="M33.1827 37.6448H30.1797V31.9844H33.1827V37.6448Z" fill="#7F7F7F"/>
<path d="M37.087 37.6448H34.084V31.9844H37.087V37.6448Z" fill="#7F7F7F"/>
<path d="M40.991 37.6448H37.8379V31.9844H40.991V37.6448Z" fill="#7F7F7F"/>
<path d="M44.8953 37.6448H41.7422V31.9844H44.8953V37.6448Z" fill="#7F7F7F"/>
<path d="M48.6485 37.6448H45.6455V31.9844H48.6485V37.6448Z" fill="#7F7F7F"/>
<path d="M52.5528 39.0598H49.5498V31.9844H52.5528V39.0598Z" fill="#7F7F7F"/>
<path d="M56.4569 42.1731H53.3037V31.9844H56.4569V42.1731Z" fill="#7F7F7F"/>
<path d="M57.207 31.9844H60.21V87.1731H57.207V31.9844Z" fill="#7F7F7F"/>
<path d="M53.3037 76.9844H56.3067V87.1731H53.3037V76.9844Z" fill="#7F7F7F"/>
<path d="M49.3994 80.0938H52.5526V87.1692H49.3994V80.0938Z" fill="#7F7F7F"/>
<path d="M45.4951 81.5078H48.6483V87.1682H45.4951V81.5078Z" fill="#7F7F7F"/>
<path d="M41.5918 81.5078H44.745V87.1682H41.5918V81.5078Z" fill="#7F7F7F"/>
<path d="M37.8379 81.5078H40.8409V87.1682H37.8379V81.5078Z" fill="#7F7F7F"/>
<path d="M33.9336 81.5078H36.9366V87.1682H33.9336V81.5078Z" fill="#7F7F7F"/>
<path d="M30.0303 81.5078H33.1834V87.1682H30.0303V81.5078Z" fill="#7F7F7F"/>
<path d="M26.2764 80.0938H29.2794V87.1692H26.2764V80.0938Z" fill="#7F7F7F"/>
<path d="M22.3721 76.9844H25.3751V87.1731H22.3721V76.9844Z" fill="#7F7F7F"/>
<path d="M18.4688 31.9844H21.4718V87.1731H18.4688V31.9844Z" fill="#7F7F7F"/>
<path d="M58.1084 31.9844H59.3096V87.1731H58.1084V31.9844Z" fill="#CCCCCC"/>
<path d="M19.3691 31.9844H20.5703V87.1731H19.3691V31.9844Z" fill="#CCCCCC"/>
<path d="M23.2734 76.9844H24.4746V87.1731H23.2734V76.9844Z" fill="#CCCCCC"/>
<path d="M27.1768 80.0938H28.378V87.1692H27.1768V80.0938Z" fill="#CCCCCC"/>
<path d="M31.0811 81.5078H32.1321V87.1682H31.0811V81.5078Z" fill="#CCCCCC"/>
<path d="M34.835 81.5078H36.0362V87.1682H34.835V81.5078Z" fill="#CCCCCC"/>
<path d="M38.7383 81.5078H39.9395V87.1682H38.7383V81.5078Z" fill="#CCCCCC"/>
<path d="M42.6426 81.5078H43.8438V87.1682H42.6426V81.5078Z" fill="#CCCCCC"/>
<path d="M46.3965 81.5078H47.5977V87.1682H46.3965V81.5078Z" fill="#CCCCCC"/>
<path d="M50.3008 80.0938H51.502V87.1692H50.3008V80.0938Z" fill="#CCCCCC"/>
<path d="M54.2041 76.9844H55.4053V87.1731H54.2041V76.9844Z" fill="#CCCCCC"/>
<path d="M55.4055 42.1731H54.3545V31.9844H55.4055V42.1731Z" fill="#CCCCCC"/>
<path d="M51.6514 39.0598H50.4502V31.9844H51.6514V39.0598Z" fill="#CCCCCC"/>
<path d="M47.7481 37.6448H46.5469V31.9844H47.7481V37.6448Z" fill="#CCCCCC"/>
<path d="M43.8438 37.6448H42.6426V31.9844H43.8438V37.6448Z" fill="#CCCCCC"/>
<path d="M40.0899 37.6448H38.8887V31.9844H40.0899V37.6448Z" fill="#CCCCCC"/>
<path d="M36.1866 37.6448H34.9854V31.9844H36.1866V37.6448Z" fill="#CCCCCC"/>
<path d="M32.2823 37.6448H31.0811V31.9844H32.2823V37.6448Z" fill="#CCCCCC"/>
<path d="M28.378 39.0598H27.1768V31.9844H28.378V39.0598Z" fill="#CCCCCC"/>
<path d="M24.4746 42.1731H23.2734V31.9844H24.4746V42.1731Z" fill="#CCCCCC"/>
<path d="M53.3037 76.9776L53.7542 76.1285L54.8052 75.5625L55.8563 76.1285L56.3067 76.9776L55.8563 78.1097L54.8052 78.6757L53.7542 78.1097L53.3037 76.9776Z" fill="black"/>
<path d="M49.3994 80.0966L49.8499 78.9645L50.9009 78.3984L52.1021 78.9645L52.5526 80.0966L52.1021 80.9456L50.9009 81.5116L49.8499 80.9456L49.3994 80.0966Z" fill="black"/>
<path d="M45.4951 81.5088L45.9456 80.3768L47.1468 80.0938L48.1978 80.3768L48.6483 81.5088L48.1978 82.6409L47.1468 82.9239L45.9456 82.6409L45.4951 81.5088Z" fill="black"/>
<path d="M41.7422 81.5106L42.1926 80.3785L43.2437 79.8125L44.2947 80.3785L44.7452 81.5106L44.2947 82.3597L43.2437 82.9257L42.1926 82.3597L41.7422 81.5106Z" fill="black"/>
<path d="M37.8379 81.5106L38.2883 80.3785L39.3394 79.8125L40.5406 80.3785L40.8409 81.5106L40.5406 82.3597L39.3394 82.9257L38.2883 82.3597L37.8379 81.5106Z" fill="black"/>
<path d="M33.9336 81.5106L34.384 80.3785L35.4351 79.8125L36.4861 80.3785L36.9366 81.5106L36.4861 82.3597L35.4351 82.9257L34.384 82.3597L33.9336 81.5106Z" fill="black"/>
<path d="M30.0303 81.5106L30.4807 80.3785L31.6819 79.8125L32.733 80.3785L33.1834 81.5106L32.733 82.3597L31.6819 82.9257L30.4807 82.3597L30.0303 81.5106Z" fill="black"/>
<path d="M26.2764 79.8135L26.7268 78.9645L27.7779 78.3984L28.8289 78.9645L29.2794 79.8135L28.8289 80.9456L27.7779 81.5116L26.7268 80.9456L26.2764 79.8135Z" fill="black"/>
<path d="M22.3721 76.9776L22.8225 76.1285L23.8736 75.5625L24.9246 76.1285L25.3751 76.9776L24.9246 78.1097L23.8736 78.3927L22.8225 78.1097L22.3721 76.9776Z" fill="black"/>
<path d="M29.2794 39.0557L28.8289 40.1878L27.7779 40.7538L26.7268 40.1878L26.2764 39.0557L26.7268 38.2067L27.7779 37.6406L28.8289 38.2067L29.2794 39.0557Z" fill="black"/>
<path d="M33.1837 37.6417L32.7332 38.7737L31.6822 39.0568L30.6311 38.7737L30.1807 37.6417L30.6311 36.5096L31.6822 36.2266L32.7332 36.5096L33.1837 37.6417Z" fill="black"/>
<path d="M37.0867 37.6417L36.6363 38.7737L35.5852 39.3398L34.384 38.7737L33.9336 37.6417L34.384 36.7926L35.5852 36.2266L36.6363 36.7926L37.0867 37.6417Z" fill="black"/>
<path d="M40.8409 37.6417L40.5406 38.7737L39.3394 39.3398L38.2883 38.7737L37.8379 37.6417L38.2883 36.7926L39.3394 36.2266L40.5406 36.7926L40.8409 37.6417Z" fill="black"/>
<path d="M44.8953 37.6417L44.4449 38.7737L43.2437 39.3398L42.1926 38.7737L41.7422 37.6417L42.1926 36.7926L43.2437 36.2266L44.4449 36.7926L44.8953 37.6417Z" fill="black"/>
<path d="M48.6485 37.6417L48.1981 38.7737L47.147 39.3398L46.096 38.7737L45.6455 37.6417L46.096 36.7926L47.147 36.2266L48.1981 36.7926L48.6485 37.6417Z" fill="black"/>
<path d="M52.5528 39.3387L52.1024 40.1878L51.0513 40.7538L50.0003 40.1878L49.5498 39.3387L50.0003 38.2067L51.0513 37.6406L52.1024 38.2067L52.5528 39.3387Z" fill="black"/>
<path d="M56.4569 42.1729L56.0064 43.022L54.8052 43.588L53.7542 43.022L53.3037 42.1729L53.7542 41.0408L54.8052 40.7578L56.0064 41.0408L56.4569 42.1729Z" fill="black"/>
<path d="M25.5252 42.1669L25.0748 43.0159L23.8736 43.582L22.8225 43.0159L22.3721 42.1669L22.8225 41.0348L23.8736 40.4688L25.0748 41.0348L25.5252 42.1669Z" fill="black"/>
<path d="M17.7178 31.9844H60.961V87.1731H17.7178V31.9844Z" stroke="black" stroke-width="0.412288"/>
<path d="M98.1982 37.6406H103.604V84.3387H98.1982V37.6406Z" fill="#7F7F7F"/>
<path d="M88.1377 50.9453H91.1407V63.9642H88.1377V50.9453Z" fill="#7F7F7F"/>
<path d="M98.1978 63.9609V69.6213H77.1768V63.9609H98.1978Z" fill="#7F7F7F"/>
<path d="M73.4238 72.7344H78.0785V81.508H73.4238V72.7344Z" fill="#7F7F7F"/>
<path d="M74.1738 55.1875H77.1768V72.7347H74.1738V55.1875Z" fill="#7F7F7F"/>
<path d="M74.9248 37.6406H76.5765V55.1878H74.9248V37.6406Z" fill="#7F7F7F"/>
<path d="M99.8496 37.6406H101.952V84.3387H99.8496V37.6406Z" fill="#CCCCCC"/>
<path d="M89.0391 50.9453H90.2403V63.9642H89.0391V50.9453Z" fill="#CCCCCC"/>
<path d="M98.1978 65.6641V67.9282H77.1768V65.6641H98.1978Z" fill="#CCCCCC"/>
<path d="M75.375 37.6406H75.9756V55.1878H75.375V37.6406Z" fill="#CCCCCC"/>
<path d="M75.0752 55.1875H76.2764V72.7347H75.0752V55.1875Z" fill="#CCCCCC"/>
<path d="M74.7744 72.7344H76.7264V81.508H74.7744V72.7344Z" fill="#CCCCCC"/>
<path d="M105.855 95.945H142.943V8.49219H105.855V95.945Z" fill="#596D8C" stroke="black" stroke-width="0.412288"/>
<path d="M107.357 93.1128H141.442V11.3203H107.357V93.1128Z" fill="#7387A6"/>
<path d="M107.357 93.1128V11.3203H141.442" stroke="#BFD3F2" stroke-width="0.412288"/>
<path d="M141.442 11.3203V93.1128H107.357" stroke="#263A59" stroke-width="0.412288"/>
<path d="M124.475 63.9609H136.787V84.3383H124.475V63.9609Z" fill="#E5E5E5"/>
<path d="M125.976 72.7344H135.285" stroke="black" stroke-width="0.412288"/>
<path d="M125.976 66.7891H135.285" stroke="black" stroke-width="0.412288"/>
<path d="M113.514 31.6953H115.466V35.0915H113.514V31.6953Z" fill="#333333"/>
<path d="M117.417 31.6953H119.219V35.0915H117.417V31.6953Z" fill="#333333"/>
<path d="M121.171 31.6953H122.973V35.0915H121.171V31.6953Z" fill="#333333"/>
<path d="M117.417 38.7734H119.219V42.4527H117.417V38.7734Z" fill="#333333"/>
<path d="M121.171 38.7734H122.973V42.4527H121.171V38.7734Z" fill="#333333"/>
<path d="M124.774 38.7734H126.726V42.4527H124.774V38.7734Z" fill="#333333"/>
<path d="M124.774 31.6953H126.726V35.0915H124.774V31.6953Z" fill="#333333"/>
<path d="M117.417 45.8516H119.219V49.2478H117.417V45.8516Z" fill="#333333"/>
<path d="M122.973 45.8516H124.925V49.2478H122.973V45.8516Z" fill="#333333"/>
<path d="M117.417 21.5109L118.018 18.3977L119.669 17.2656L121.471 18.3977L122.072 21.5109L121.471 24.9071L119.669 26.0392L118.018 24.9071L117.417 21.5109Z" fill="#333333"/>
<path d="M105.855 1.13281H142.943V8.4913H105.855V1.13281Z" fill="#405473" stroke="black" stroke-width="0.412288"/>
<path d="M98.1982 37.6406H103.604V84.3387H98.1982V37.6406Z" stroke="black" stroke-width="0.412288"/>
<path d="M88.1377 50.9453H91.1407V63.9642H88.1377V50.9453Z" stroke="black" stroke-width="0.412288"/>
<path d="M98.1978 63.9609V69.6213H77.1768V63.9609H98.1978Z" stroke="black" stroke-width="0.412288"/>
<path d="M74.9248 37.6406H76.5765V55.1878H74.9248V37.6406Z" stroke="black" stroke-width="0.412288"/>
<path d="M74.1738 55.1875H77.1768V72.7347H74.1738V55.1875Z" stroke="black" stroke-width="0.412288"/>
<path d="M73.4238 72.7344H78.0785V81.508H73.4238V72.7344Z" stroke="black" stroke-width="0.412288"/>
<path d="M50.1504 131.036V107.546L81.0813 72.7344H90.3906L99.6999 84.3381V131.036H50.1504Z" stroke="black" stroke-width="0.412288"/>
<path d="M50.1504 131.036V107.546L81.0813 72.7344H90.3906L99.6999 84.3381V131.036H50.1504Z" fill="#8CA0BF"/>
<path d="M50.1504 122.266L99.6999 95.9453V131.04H50.1504V122.266Z" fill="#8599B8"/>
<path d="M50.1504 128.211L99.6999 101.891V131.042H50.1504V128.211Z" fill="#7A8EAD"/>
<path d="M50.1504 131.04L99.6999 104.719V131.04H50.1504Z" fill="#7387A6"/>
<path d="M51.6514 131.034V109.242L81.0808 75.5625H90.3901L98.1979 85.7512V131.034" stroke="black" stroke-width="0.412288"/>
</svg>
