<svg width="150" height="150" viewBox="0 0 150 150" fill="none" xmlns="http://www.w3.org/2000/svg">
<g clip-path="url(#clip0_2109_225866)">
<path d="M15.4658 50.1016H43.694V100.202H15.4658V50.1016Z" fill="#333333"/>
<path d="M15.4658 90.6016H43.694V96.6016H15.4658V90.6016Z" fill="#CC9933"/>
<path d="M15.4658 81.2969H43.694V87.8969H15.4658V81.2969Z" fill="#CC9933"/>
<path d="M15.4658 72.2969H43.694V78.2969H15.4658V72.2969Z" fill="#CC9933"/>
<path d="M15.4658 62.7031H43.694V68.7031H15.4658V62.7031Z" fill="#CC9933"/>
<path d="M15.4658 53.1016H43.694V59.7016H15.4658V53.1016Z" fill="#CC9933"/>
<path d="M15.4658 54.8984H43.694V57.8984H15.4658V54.8984Z" fill="#FFCC00"/>
<path d="M15.4658 63.8984H43.694V67.4984H15.4658V63.8984Z" fill="#FFCC00"/>
<path d="M15.4658 73.5H43.694V76.5H15.4658V73.5Z" fill="#FFCC00"/>
<path d="M15.4658 83.1016H43.694V86.1016H15.4658V83.1016Z" fill="#FFCC00"/>
<path d="M15.4658 92.7031H43.694V95.4031H15.4658V92.7031Z" fill="#FFCC00"/>
<path d="M28.0781 44.1016H31.0811V106.202H28.0781V44.1016Z" fill="#7F99CC" stroke="black" stroke-width="0.424476"/>
<path d="M49.9997 50.0984H150V100.198H49.9997V124.798H43.6934V24.8984H49.9997V50.0984Z" fill="#7F99CC" stroke="black" stroke-width="0.424476"/>
<path d="M9.15916 50.0984H0V100.198H9.15916V124.798H15.4655V24.8984H9.15916V50.0984Z" fill="#7F99CC" stroke="black" stroke-width="0.424476"/>
<path d="M28.0781 47.1016H31.3814V102.902H28.0781V47.1016Z" fill="#8AA1D1"/>
<path d="M49.9997 52.4969H150V97.4969H49.9997V119.397H43.6934V30.2969H49.9997V52.4969Z" fill="#8AA1D1"/>
<path d="M9.45946 52.4969H0V97.4969H9.45946V119.397H15.4655V30.2969H9.45946V52.4969Z" fill="#8AA1D1"/>
<path d="M28.0781 50.7031H31.3814V99.9031H28.0781V50.7031Z" fill="#97ABD9"/>
<path d="M49.9997 55.5031H150V94.5031H49.9997V114.003H43.6934V35.7031H49.9997V55.5031Z" fill="#97ABD9"/>
<path d="M9.45946 55.5031H0V94.5031H9.45946V114.003H15.4655V35.7031H9.45946V55.5031Z" fill="#97ABD9"/>
<path d="M28.0781 54.2969H31.3814V95.9969H28.0781V54.2969Z" fill="#A1B5DE"/>
<path d="M49.9997 58.5031H150V92.1031H49.9997V108.903H43.6934V41.7031H49.9997V58.5031Z" fill="#A1B5DE"/>
<path d="M9.45946 58.5031H0V92.1031H9.45946V108.903H15.4655V41.7031H9.45946V58.5031Z" fill="#A1B5DE"/>
<path d="M28.0781 57.2969H31.3814V92.6969H28.0781V57.2969Z" fill="#AABFE5"/>
<path d="M49.9997 60.9016H150V89.1016H49.9997V103.502H43.6934V47.1016H49.9997V60.9016Z" fill="#AABFE5"/>
<path d="M9.45946 60.9016H0V89.1016H9.45946V103.502H15.4655V47.1016H9.45946V60.9016Z" fill="#AABFE5"/>
<path d="M28.0781 60.8984H31.3814V89.0984H28.0781V60.8984Z" fill="#B5C7EB"/>
<path d="M49.9997 63.9H150V86.7H49.9997V98.1H43.6934V52.5H49.9997V63.9Z" fill="#B5C7EB"/>
<path d="M9.45946 63.9H0V86.7H9.45946V98.1H15.4655V52.5H9.45946V63.9Z" fill="#B5C7EB"/>
<path d="M28.0781 64.5H31.3814V86.1H28.0781V64.5Z" fill="#C2D1F2"/>
<path d="M49.9997 66.2984H150V83.6984H49.9997V92.0984H43.6934V57.8984H49.9997V66.2984Z" fill="#C2D1F2"/>
<path d="M9.45946 66.2984H0V83.6984H9.45946V92.0984H15.4655V57.8984H9.45946V66.2984Z" fill="#C2D1F2"/>
<path d="M28.0781 67.5H31.3814V82.5H28.0781V67.5Z" fill="#CCDBF7"/>
<path d="M49.9997 69.2969H150V80.6969H49.9997V86.6969H43.6934V63.2969H49.9997V69.2969Z" fill="#CCDBF7"/>
<path d="M9.45946 69.2969H0V80.6969H9.45946V86.6969H15.4655V63.2969H9.45946V69.2969Z" fill="#CCDBF7"/>
<path d="M28.0781 71.1016H31.0811V78.9016H28.0781V71.1016Z" fill="#D9E5FF"/>
<path d="M49.9997 72.3031H150V78.3031H49.9997V81.3031H43.6934V68.7031H49.9997V72.3031Z" fill="#D9E5FF"/>
<path d="M9.15916 72.3031H0V78.3031H9.15916V81.3031H15.4655V68.7031H9.15916V72.3031Z" fill="#D9E5FF"/>
<path d="M9.15918 100.202V50.1016" stroke="black" stroke-width="0.424476"/>
<path d="M50 100.202V50.1016" stroke="black" stroke-width="0.424476"/>
<path d="M131.081 99.9031V143.403H137.388V150.003H115.466V143.403H121.772V99.9031L126.577 98.7031L131.081 99.9031Z" fill="#7F99CC"/>
<path d="M128.078 31.5V50.1H124.774V31.5H128.078Z" fill="#7F99CC"/>
<path d="M62.4626 50.0969V6.29687H56.1562V0.296875H78.0782V6.29687H71.7719V50.0969L66.9671 51.8969L62.4626 50.0969Z" fill="#7F99CC"/>
<path d="M65.4658 118.803V100.203H68.7691V118.803H65.4658Z" fill="#7F99CC" stroke="black" stroke-width="0.424476"/>
<path d="M65.7656 118.803V100.203H68.4683V118.803H65.7656Z" fill="#97ABD9"/>
<path d="M63.3634 50.1V6.3H58.5586V0H75.6757V6.3H70.8709V50.1H63.3634Z" fill="#97ABD9"/>
<path d="M127.778 31.5V50.1H125.075V31.5H127.778Z" fill="#97ABD9"/>
<path d="M130.18 100.203V144.003H134.985V150.003H117.868V144.003H122.673V100.203H130.18Z" fill="#97ABD9"/>
<path d="M128.979 100.203V144.003H132.583V150.003H120.271V144.003H123.874V100.203H128.979Z" fill="#AABFE5"/>
<path d="M127.177 31.5V50.1H125.375V31.5H127.177Z" fill="#AABFE5"/>
<path d="M64.5645 50.1V6.3H60.9609V0H73.2732V6.3H69.6696V50.1H64.5645Z" fill="#AABFE5"/>
<path d="M66.3662 118.803V100.203H68.168V118.803H66.3662Z" fill="#AABFE5"/>
<path d="M66.667 118.803V100.203H67.5679V118.803H66.667Z" fill="#C2D1F2"/>
<path d="M65.4654 50.1V6.3H63.3633V0H71.1711V6.3H68.7687V50.1H65.4654Z" fill="#C2D1F2"/>
<path d="M126.876 31.5V50.1H125.976V31.5H126.876Z" fill="#C2D1F2"/>
<path d="M128.078 100.203V144.003H130.18V150.003H122.372V144.003H124.774V100.203H128.078Z" fill="#C2D1F2"/>
<path d="M127.177 99.8984V143.398H128.078V149.998H124.774V143.398H125.675V99.8984H127.177Z" fill="#D9E5FF"/>
<path d="M126.577 31.5V50.1H126.276V31.5H126.577Z" fill="#D9E5FF"/>
<path d="M66.3667 50.0969V6.29687H65.4658V0.296875H68.7691V6.29687H67.8682V50.0969H66.3667Z" fill="#D9E5FF"/>
<path d="M66.9668 118.803V100.203H67.2671V118.803H66.9668Z" fill="#D9E5FF"/>
<path d="M65.4658 100.203H68.7691" stroke="black" stroke-width="0.424476"/>
<path d="M62.4626 50.0969V6.29687H56.1562V0.296875H78.0782V6.29687H71.7719V50.0969L66.9671 51.8969L62.4626 50.0969Z" stroke="black" stroke-width="0.424476"/>
<path d="M62.4629 6.29688H71.7722" stroke="black" stroke-width="0.424476"/>
<path d="M128.078 31.5V50.1H124.774V31.5H128.078Z" stroke="black" stroke-width="0.424476"/>
<path d="M128.078 50.1016H124.774" stroke="black" stroke-width="0.424476"/>
<path d="M131.081 99.9031V143.403H137.388V150.003H115.466V143.403H121.772V99.9031L126.577 98.7031L131.081 99.9031Z" stroke="black" stroke-width="0.424476"/>
<path d="M131.081 143.398H121.771" stroke="black" stroke-width="0.424476"/>
</g>
<defs>
<clipPath id="clip0_2109_225866">
<rect width="150" height="150" fill="white"/>
</clipPath>
</defs>
</svg>
