<svg width="150" height="150" viewBox="0 0 150 150" fill="none" xmlns="http://www.w3.org/2000/svg">
<g clip-path="url(#clip0_2109_225936)">
<path d="M74.9249 149.85C116.305 149.85 149.85 116.305 149.85 74.9249C149.85 33.545 116.305 0 74.9249 0C33.545 0 0 33.545 0 74.9249C0 116.305 33.545 149.85 74.9249 149.85Z" fill="#00FFFF" stroke="black" stroke-width="0.3003"/>
<path d="M23.7236 112.466L38.7386 104.958L23.7236 97.4507L38.7386 89.9432L23.7236 82.4357L38.7386 74.9282L23.7236 67.4207L38.7386 59.9131L23.7236 52.4056L38.7386 44.8981L23.7236 37.3906" stroke="black" stroke-width="0.3003"/>
<path d="M124.925 112.466L109.91 104.958L124.925 97.4507L109.91 89.9432L124.925 82.4357L109.91 74.9282L124.925 67.4207L109.91 59.9131L124.925 52.4056L109.91 44.8981L124.925 37.3906" stroke="black" stroke-width="0.3003"/>
</g>
<defs>
<clipPath id="clip0_2109_225936">
<rect width="150" height="150" fill="white"/>
</clipPath>
</defs>
</svg>
