<svg width="150" height="150" viewBox="0 0 150 150" fill="none" xmlns="http://www.w3.org/2000/svg">
<g clip-path="url(#clip0_2109_225741)">
<path d="M0.600586 0.898438H149.249V148.88H0.600586V0.898438Z" fill="white"/>
<path fill-rule="evenodd" clip-rule="evenodd" d="M0.600586 0.898438H149.249V19.5083L139.94 0.898438H84.2342L74.9249 19.5083L65.6156 0.898438H9.90989L0.600586 19.5083V0.898438ZM0.600586 37.894L19.2192 0.898438H56.3063L74.9249 37.894L93.5435 0.898438H130.631L149.249 37.894V56.5038L121.321 0.898438H102.853L74.9249 56.5038L47.1471 0.898438H28.5285L0.600586 56.5038V37.894ZM0.600586 74.8895L37.8378 0.898438L74.9249 74.8895L112.012 0.898438L149.249 74.8895V93.4993L112.012 19.5083L74.9249 93.4993L37.8378 19.5083L0.600586 93.4993V74.8895ZM0.600586 111.885L37.8378 37.894L74.9249 111.885L112.012 37.894L149.249 111.885V130.271L112.012 56.5038L74.9249 130.271L37.8378 56.5038L0.600586 130.271V111.885ZM0.600586 148.88L37.8378 74.8895L74.9249 148.88L112.012 74.8895L149.249 148.88H139.94L112.012 93.4993L84.2342 148.88H65.6156L37.8378 93.4993L9.90989 148.88H0.600586ZM19.2192 148.88L37.8378 111.885L56.3063 148.88H93.5435L112.012 111.885L130.631 148.88H121.321L112.012 130.271L102.853 148.88H47.1471L37.8378 130.271L28.5285 148.88H19.2192Z" fill="#CC0000"/>
<path d="M0.600586 0.898438H149.249V148.88H0.600586V0.898438Z" stroke="black" stroke-width="0.366966"/>
</g>
<defs>
<clipPath id="clip0_2109_225741">
<rect width="150" height="150" fill="white"/>
</clipPath>
</defs>
</svg>
