<svg width="150" height="150" viewBox="0 0 150 150" fill="none" xmlns="http://www.w3.org/2000/svg">
<path d="M6.15625 1.60938H26.1262V10.2115H6.15625V1.60938Z" fill="#7F7F7F"/>
<path d="M11.8623 45.7026H20.2707V10.2188H11.8623V45.7026Z" fill="#7F7F7F"/>
<path d="M105.105 1.60938H124.925V10.2115H105.105V1.60938Z" fill="#7F7F7F"/>
<path d="M110.811 45.7026H119.219V10.2188H110.811V45.7026Z" fill="#7F7F7F"/>
<path d="M1.20095 45.6953H130.33V136.018H1.20095L0.450195 88.1684L1.20095 45.6953Z" fill="#7F7F7F"/>
<path d="M134.835 31.7188H130.33V147.848H134.835V31.7188Z" fill="#7F7F7F"/>
<path d="M149.4 49.4609H147.147V131.719H149.4V49.4609Z" fill="#7F7F7F"/>
<path d="M134.835 137.094H136.036V142.47H134.835V137.094Z" fill="#7F7F7F"/>
<path d="M134.835 52.1484H136.036V58.0624H147.147V122.041H134.835V58.0624V52.1484Z" fill="#7F7F7F"/>
<path d="M134.835 34.4062H136.036V41.3955H134.835V34.4062Z" fill="#7F7F7F"/>
<path d="M149.399 53.7656H147.447V113.981H149.399V53.7656Z" fill="#B2B2B2"/>
<path d="M135.285 61.8281H147.147V108.602H135.285V61.8281Z" fill="#B2B2B2"/>
<path d="M134.835 36.0234H130.33V124.733H134.835V36.0234Z" fill="#B2B2B2"/>
<path d="M111.111 45.7026H117.267V10.2188H111.111V45.7026Z" fill="#B2B2B2"/>
<path d="M105.855 3.22656H122.672V10.2158H105.855V3.22656Z" fill="#B2B2B2"/>
<path d="M6.90723 3.22656H24.1745V10.2158H6.90723V3.22656Z" fill="#B2B2B2"/>
<path d="M12.7627 45.7026H18.4684V10.2188H12.7627V45.7026Z" fill="#B2B2B2"/>
<path d="M1.65114 49.4609H129.879V116.665H1.20069L0.900391 89.2459L1.65114 49.4609Z" fill="#B2B2B2"/>
<path d="M142.492 104.84C143.736 104.84 144.745 101.229 144.745 96.7755C144.745 92.3215 143.736 88.7109 142.492 88.7109C141.249 88.7109 140.24 92.3215 140.24 96.7755C140.24 101.229 141.249 104.84 142.492 104.84Z" fill="black" stroke="black" stroke-width="0.568246"/>
<path d="M149.399 63.4375H147.447V69.8891H149.399V63.4375Z" fill="#F0F0F0"/>
<path d="M135.285 69.8906H147.147V74.1917H135.285V69.8906Z" fill="#F0F0F0"/>
<path d="M134.534 52.1484H130.33V61.8259H134.534V52.1484Z" fill="#F0F0F0"/>
<path d="M1.65162 61.8281H129.88V68.8174H1.20117L1.65162 61.8281Z" fill="#F0F0F0"/>
<path d="M112.012 45.7026H113.814V10.2188H112.012V45.7026Z" fill="#F0F0F0"/>
<path d="M106.606 3.22656H109.609V10.2158H106.606V3.22656Z" fill="#F0F0F0"/>
<path d="M8.1084 3.22656H11.1114V10.2158H8.1084V3.22656Z" fill="#F0F0F0"/>
<path d="M13.0635 45.7026H15.0154V10.2188H13.0635V45.7026Z" fill="#F0F0F0"/>
<path d="M135.285 138.711H135.585V141.399H135.285V138.711Z" fill="#F0F0F0"/>
<path d="M135.285 116.664H135.585V120.428H135.285V116.664Z" fill="#F0F0F0"/>
<path d="M135.285 94.625H135.585V98.9261H135.285V94.625Z" fill="#F0F0F0"/>
<path d="M135.285 75.8047H135.585V78.4929H135.285V75.8047Z" fill="#F0F0F0"/>
<path d="M135.285 55.375H135.585V58.0632H135.285V55.375Z" fill="#F0F0F0"/>
<path d="M135.285 37.6328H135.585V39.7834H135.285V37.6328Z" fill="#F0F0F0"/>
</svg>
