<svg width="150" height="150" viewBox="0 0 150 150" fill="none" xmlns="http://www.w3.org/2000/svg">
<path d="M1.34668 32.2812H137.074V145.945H1.34668V32.2812Z" fill="#CC4C00" stroke="black" stroke-width="0.402171"/>
<path d="M9.69531 37.0861H52.2447V32.2812H86.1765V37.0861H128.726V141.29H9.69531V37.0861Z" fill="#E5CBB2" stroke="black" stroke-width="0.402171"/>
<path d="M97.4866 64.7173L99.641 64.417L101.526 63.8164L102.873 62.7653L103.142 61.5641L102.873 60.3629L101.526 59.3119L99.641 58.5611L40.9336 55.2578L38.7792 55.408L36.8941 56.1587L35.5476 57.2098L35.2783 58.411L35.5476 59.6122L36.8941 60.6632L38.7792 61.2638L97.4866 64.7173Z" fill="#CC8C4C" stroke="black" stroke-width="0.402171"/>
<path d="M97.4866 55.258L99.641 54.9577L101.526 54.3571L102.873 53.3061L103.142 52.1049L102.873 50.7535L101.526 49.7025L99.641 49.1019L40.9336 45.6484L38.7792 45.9487L36.8941 46.6995L35.5476 47.7505L35.2783 48.8016L35.5476 50.0028L36.8941 51.0538L38.7792 51.8046L97.4866 55.258Z" fill="#CC8C4C" stroke="black" stroke-width="0.402171"/>
<path d="M97.4866 74.1704L99.641 73.8701L101.526 73.2695L102.873 72.2184L103.142 71.0172L102.873 69.816L101.526 68.765L99.641 68.0142L40.9336 64.7109L38.7792 64.8611L36.8941 65.6118L35.5476 66.6629L35.2783 67.8641L35.5476 69.0653L36.8941 70.1163L38.7792 70.7169L97.4866 74.1704Z" fill="#CC8C4C" stroke="black" stroke-width="0.402171"/>
<path d="M97.4866 83.6313L99.641 83.4812L101.526 82.7304L102.873 81.6794L103.142 80.4782L102.873 79.277L101.526 78.2259L99.641 77.4752L40.9336 74.1719L38.7792 74.322L36.8941 75.0728L35.5476 76.1238L35.2783 77.325L35.5476 78.5262L36.8941 79.5773L38.7792 80.1779L97.4866 83.6313Z" fill="#CC8C4C" stroke="black" stroke-width="0.402171"/>
<path d="M97.4866 93.0923L99.641 92.792L101.526 92.1914L102.873 91.1403L103.142 89.9391L102.873 88.7379L101.526 87.6869L99.641 86.9361L40.9336 83.6328L38.7792 83.9331L36.8941 84.5337L35.5476 85.5848L35.2783 86.786L35.5476 87.9872L36.8941 89.0382L38.7792 89.789L97.4866 93.0923Z" fill="#CC8C4C" stroke="black" stroke-width="0.402171"/>
<path d="M97.4866 102.553L99.641 102.403L101.526 101.652L102.873 100.601L103.142 99.4001L102.873 98.1989L101.526 97.1478L99.641 96.3971L40.9336 93.0938L38.7792 93.3941L36.8941 93.9947L35.5476 95.0457L35.2783 96.2469L35.5476 97.4481L36.8941 98.4992L38.7792 99.2499L97.4866 102.553Z" fill="#CC8C4C" stroke="black" stroke-width="0.402171"/>
<path d="M97.4866 112.014L99.641 111.864L101.526 111.113L102.873 110.062L103.142 108.861L102.873 107.66L101.526 106.609L99.641 106.008L40.9336 102.555L38.7792 102.855L36.8941 103.456L35.5476 104.507L35.2783 105.708L35.5476 106.909L36.8941 107.96L38.7792 108.711L97.4866 112.014Z" fill="#CC8C4C" stroke="black" stroke-width="0.402171"/>
<path d="M97.4866 121.475L99.641 121.325L101.526 120.574L102.873 119.523L103.142 118.322L102.873 117.121L101.526 116.07L99.641 115.469L40.9336 112.016L38.7792 112.316L36.8941 112.917L35.5476 114.118L35.2783 115.169L35.5476 116.37L36.8941 117.421L38.7792 118.172L97.4866 121.475Z" fill="#CC8C4C" stroke="black" stroke-width="0.402171"/>
<path d="M97.4866 131.078L99.641 130.778L101.526 130.177L102.873 128.976L103.142 127.775L102.873 126.574L101.526 125.523L99.641 124.922L40.9336 121.469L38.7792 121.769L36.8941 122.37L35.5476 123.421L35.2783 124.622L35.5476 125.823L36.8941 126.874L38.7792 127.625L97.4866 131.078Z" fill="#CC8C4C" stroke="black" stroke-width="0.402171"/>
<path d="M97.4866 140.538L99.641 140.237L101.526 139.487L102.873 138.435L103.142 137.384L102.873 136.183L101.526 135.132L99.641 134.381L40.9336 131.078L38.7792 131.228L36.8941 131.979L35.5476 133.03L35.2783 134.081L35.5476 135.432L36.8941 136.484L38.7792 137.084L97.4866 140.538Z" fill="#CC8C4C" stroke="black" stroke-width="0.402171"/>
<path d="M40.9336 50.4516L38.7792 50.1513L36.8941 49.5507L35.5476 48.4997L35.2783 47.2985L35.5476 46.0973L36.8941 45.0462L38.7792 44.2955L97.4866 40.9922L99.641 41.1423L101.526 41.8931L102.873 42.9441L103.142 44.1453L102.873 45.3465L101.526 46.3976L99.641 47.1483L40.9336 50.4516Z" fill="#FFBF7F" stroke="black" stroke-width="0.402171"/>
<path d="M40.9336 59.9126L38.7792 59.7624L36.8941 59.0117L35.5476 57.9606L35.2783 56.7594L35.5476 55.5582L36.8941 54.5072L38.7792 53.9066L97.4866 50.4531L99.641 50.6033L101.526 51.354L102.873 52.4051L103.142 53.6063L102.873 54.8075L101.526 55.8585L99.641 56.6093L40.9336 59.9126Z" fill="#FFBF7F" stroke="black" stroke-width="0.402171"/>
<path d="M40.9336 69.3657L38.7792 69.2156L36.8941 68.4648L35.5476 67.4138L35.2783 66.2126L35.5476 65.0114L36.8941 63.9603L38.7792 63.3597L97.4866 59.9062L99.641 60.2066L101.526 60.8072L102.873 61.8582L103.142 63.0594L102.873 64.2606L101.526 65.3117L99.641 66.0624L40.9336 69.3657Z" fill="#FFBF7F" stroke="black" stroke-width="0.402171"/>
<path d="M40.9336 78.8266L38.7792 78.6765L36.8941 77.9257L35.5476 76.8747L35.2783 75.6735L35.5476 74.4723L36.8941 73.4212L38.7792 72.8206L97.4866 69.3672L99.641 69.6675L101.526 70.2681L102.873 71.3191L103.142 72.5203L102.873 73.7215L101.526 74.7726L99.641 75.5233L40.9336 78.8266Z" fill="#FFBF7F" stroke="black" stroke-width="0.402171"/>
<path d="M40.9336 88.4377L38.7792 88.1374L36.8941 87.3867L35.5476 86.3356L35.2783 85.2846L35.5476 84.0834L36.8941 83.0323L38.7792 82.2816L97.4866 78.8281L99.641 79.1284L101.526 79.729L102.873 80.7801L103.142 81.9813L102.873 83.3326L101.526 84.3837L99.641 84.9843L40.9336 88.4377Z" fill="#FFBF7F" stroke="black" stroke-width="0.402171"/>
<path d="M40.9336 97.7468L38.7792 97.5967L36.8941 96.8459L35.5476 95.7949L35.2783 94.7438L35.5476 93.5426L36.8941 92.3414L38.7792 91.7408L97.4866 88.4375L99.641 88.5877L101.526 89.3384L102.873 90.3895L103.142 91.4405L102.873 92.6417L101.526 93.8429L99.641 94.4435L40.9336 97.7468Z" fill="#FFBF7F" stroke="black" stroke-width="0.402171"/>
<path d="M40.9336 107.36L38.7792 107.059L36.8941 106.459L35.5476 105.408L35.2783 104.206L35.5476 103.005L36.8941 101.954L38.7792 101.203L97.4866 97.75L99.641 98.0503L101.526 98.8011L102.873 99.8521L103.142 101.053L102.873 102.255L101.526 103.306L99.641 103.906L40.9336 107.36Z" fill="#FFBF7F" stroke="black" stroke-width="0.402171"/>
<path d="M40.9336 116.819L38.7792 116.519L36.8941 115.918L35.5476 114.867L35.2783 113.666L35.5476 112.464L36.8941 111.413L38.7792 110.663L97.4866 107.359L99.641 107.51L101.526 108.26L102.873 109.311L103.142 110.513L102.873 111.714L101.526 112.765L99.641 113.365L40.9336 116.819Z" fill="#FFBF7F" stroke="black" stroke-width="0.402171"/>
<path d="M40.9336 126.28L38.7792 125.979L36.8941 125.379L35.5476 124.328L35.2783 123.127L35.5476 121.925L36.8941 120.874L38.7792 120.124L97.4866 116.82L99.641 116.97L101.526 117.721L102.873 118.772L103.142 119.973L102.873 121.175L101.526 122.226L99.641 122.826L40.9336 126.28Z" fill="#FFBF7F" stroke="black" stroke-width="0.402171"/>
<path d="M40.9336 135.733L38.7792 135.583L36.8941 134.832L35.5476 133.781L35.2783 132.58L35.5476 131.379L36.8941 130.327L38.7792 129.727L97.4866 126.273L99.641 126.424L101.526 127.174L102.873 128.225L103.142 129.427L102.873 130.628L101.526 131.679L99.641 132.43L40.9336 135.733Z" fill="#FFBF7F" stroke="black" stroke-width="0.402171"/>
<path d="M12.6572 149.098V145.945H125.763V149.098H12.6572Z" fill="#999999" stroke="black" stroke-width="0.402171"/>
<path d="M137.073 142.792V130.18H148.653V142.792H137.073Z" fill="#E5E5E5" stroke="black" stroke-width="0.402171"/>
<path d="M137.073 48.0501V35.4375H148.653V48.0501H137.073Z" fill="#E5E5E5" stroke="black" stroke-width="0.402171"/>
<path d="M46.5889 3.90315H91.8312L106.104 0.75H125.763V10.0593L106.104 10.2095L91.8312 13.3626V32.2815H46.5889V3.90315Z" fill="#CC4C00" stroke="black" stroke-width="0.402171"/>
<path d="M66.5176 29.1299V10.2109H72.1729V29.1299H66.5176Z" fill="white" stroke="black" stroke-width="0.402171"/>
<path d="M9.69531 37.0861H52.2447V32.2812H86.1765V37.0861H128.726V40.2392H9.69531V37.0861Z" fill="#999999" stroke="black" stroke-width="0.402171"/>
<path d="M91.8311 13.3657V3.90625" stroke="black" stroke-width="0.402171"/>
<path d="M106.104 10.2095V0.75" stroke="black" stroke-width="0.402171"/>
<path d="M9.69531 38.5859H128.726" stroke="black" stroke-width="0.402171"/>
<path d="M52.2441 37.0859H86.1759" stroke="black" stroke-width="0.402171"/>
<path d="M148.653 51.2002V32.2812" stroke="black" stroke-width="0.402171"/>
<path d="M148.653 145.942V127.023" stroke="black" stroke-width="0.402171"/>
<path d="M70.5563 136.488L58.9764 116.819L56.822 119.672L54.9369 97.5995L51.9746 99.8518L56.0141 77.4794L51.9746 79.1311L61.6694 57.8098L57.8992 59.3113L66.7861 40.6926L71.6335 40.2422L85.3678 58.2602L80.5204 56.6086L91.2924 83.9359L87.2529 82.2842L91.2924 104.807L88.3301 102.104L84.5599 122.374L82.4055 119.071L70.5563 136.488Z" fill="#FFFF00"/>
<path d="M58.9764 116.819L56.822 119.672L54.9369 97.5995L51.9746 99.8518L56.0141 77.4794L51.9746 79.1311L61.6694 57.8098L57.8992 59.3113L66.7861 40.6926L71.6335 40.2422L85.3678 58.2602L80.5204 56.6086L91.2924 83.9359L87.2529 82.2842L91.2924 104.807L88.3301 102.104L84.5599 122.374L82.4055 119.071L77.8274 122.524L71.3642 125.077L64.3624 122.074L58.9764 116.819Z" fill="#FFCC00"/>
<path d="M54.9369 97.5995L51.9746 99.8518L56.0141 77.4794L51.9746 79.1311L61.6694 57.8098L57.8992 59.3113L66.7861 40.6926L71.6335 40.2422L85.3678 58.2602L80.5204 56.6086L91.2924 83.9359L87.2529 82.2842L91.2924 104.807L88.3301 102.104L85.0985 106.909L81.3283 110.663L75.1344 113.215L72.7107 113.365L65.9782 111.113L61.4001 107.209L57.0913 101.353L54.9369 97.5995Z" fill="#FF9900"/>
<path d="M56.0141 77.4794L51.9746 79.1311L61.6694 57.8098L57.8992 59.3113L66.7861 40.6926L71.6335 40.2422L85.3678 58.2602L80.5204 56.6086L91.2924 83.9359L87.2529 82.2842L85.9064 88.7407L84.0213 93.3953L80.2511 97.7497L74.5958 99.5515L66.7861 96.6986L62.4773 93.2452L58.9764 89.1911L56.5527 84.9869L54.9369 80.032L56.0141 77.4794Z" fill="#FF6600"/>
<path d="M61.6696 57.8098L57.8994 59.3113L66.7863 40.6926L71.6337 40.2422L85.368 58.2602L80.5206 56.6086L81.3285 60.2122L82.1364 63.5155L82.4057 66.3683V68.9209V71.3233L81.8671 73.2752L81.3285 75.077L80.7899 76.4284L79.7127 77.7797L77.5583 79.4314L75.1346 80.1821H73.5188L70.8258 79.7317L67.8635 78.6806L65.1705 76.7287L63.824 75.6776L62.7468 74.4764L61.9389 73.1251L60.8617 71.7737L60.3231 70.1221L59.7845 68.6206L59.5152 66.8188V65.1671V63.3653L60.0538 61.4134L60.8617 59.6116L61.6696 57.8098Z" fill="#FF3300"/>
<path d="M70.5563 136.488L58.9764 116.819L56.822 119.672L54.9369 97.5995L51.9746 99.8518L56.0141 77.4794L51.9746 79.1311L61.6694 57.8098L57.8992 59.3113L66.7861 40.6926L71.6335 40.2422L85.3678 58.2602L80.5204 56.6086L91.2924 83.9359L87.2529 82.2842L91.2924 104.807L88.3301 102.104L84.5599 122.374L82.4055 119.071L70.5563 136.488Z" stroke="white" stroke-width="0.402171"/>
</svg>
