<svg width="150" height="150" viewBox="0 0 150 150" fill="none" xmlns="http://www.w3.org/2000/svg">
<path d="M125.525 11.1682L126.276 8.50864L126.576 6.38098L126.276 2.65758L125.525 1.59375H8.10785H6.4562L2.40215 10.1044L0.750496 18.0831L0.450195 23.9342V28.7214L0.750496 38.8278L2.40215 48.4023L5.10485 54.2533L8.10785 56.9129H107.808L110.811 60.1044L112.012 64.8916L112.763 75.5299H113.063L112.012 84.5725L107.808 93.0831H8.10785L5.10485 95.2108L2.40215 101.062L0.750496 110.636L0.450195 125.53L0.750496 131.381L3.7535 143.083L5.10485 145.743L6.4562 147.87H8.10785H125.525L126.276 146.807L126.576 143.083L125.525 138.296H7.0568L6.1559 137.232L4.80455 134.041L3.4532 128.189L4.0538 110.636L8.10785 102.126H109.459L113.363 94.1469L115.315 79.7852L115.766 74.4661L114.414 60.1044L111.111 49.4661L108.108 47.3384H8.10785L4.50425 41.4874L3.1529 24.998L4.50425 17.0193L6.1559 12.232L8.10785 11.1682H125.525Z" fill="#7F7F7F"/>
<path d="M57.9582 48.4009L8.10833 49.4648L5.10533 46.2733L3.45368 40.4222L2.40263 29.7839L4.05428 14.3584L8.10833 8.50731H123.874L123.574 7.44348V5.31582L123.874 2.65625H8.10833L4.05428 7.44348L2.10233 14.3584L1.20143 23.9328L0.750977 28.7201L1.20143 34.5711L2.10233 43.6137L5.40563 53.1882L8.10833 55.3158H108.709L111.111 57.9754L113.364 70.7414L112.463 86.1669L111.111 92.018L107.808 95.2094L8.10833 94.1456L4.05428 98.9328L2.10233 105.848L0.750977 120.741L2.10233 135.103L4.05428 142.018L6.75698 145.741L8.10833 146.805H124.325L123.874 144.146V142.018L124.325 140.954H8.10833L4.05428 135.103L2.40263 120.741L3.45368 109.571L7.05728 101.061H107.808L110.811 98.9328L113.063 93.0818L114.715 84.5711L115.316 74.4648H115.015L114.715 64.8903L113.063 56.9116L110.811 51.0605L107.808 48.4009H57.9582Z" fill="#B2B2B2"/>
<path d="M57.9584 96.2778H8.10856L3.45391 104.788L2.40285 107.98L2.10255 111.703L1.50195 116.491V120.746V125.533L2.40285 134.044L6.75721 143.086L8.10856 144.15H123.874V143.086V142.022L8.10856 143.086L3.75421 136.171L1.80225 120.746L3.75421 105.852L4.80526 102.129L7.05751 98.9373H108.109L112.763 92.0224L114.715 74.4692H114.415L112.763 59.0437L108.109 51.065H7.05751L3.75421 45.2139L1.80225 29.7884L3.75421 13.299L8.10856 7.44797H123.574V6.38414V5.32031H8.10856L3.45391 13.299L2.40285 15.9586L1.50195 25.0012V33.5118L2.40285 41.4905L6.75721 52.1288L8.10856 53.1927H109.16L111.412 56.9161L113.664 65.9586V83.5118L111.412 93.0863L107.808 96.2778H57.9584Z" fill="#F0F0F0"/>
<path d="M149.4 49.4706V47.3429L142.493 49.4706L137.538 38.8323L132.133 15.9599L124.925 4.25781L124.625 5.32164V6.38547V7.4493L131.532 19.1514L137.087 42.5557L142.493 53.194L149.4 49.4706Z" fill="black"/>
<path d="M149.4 99.9968V102.125L142.493 99.9968L137.538 110.635L132.133 134.039L124.925 145.742H124.625V143.082V142.018L131.532 131.38L137.087 106.912L142.493 96.2734L149.4 99.9968Z" fill="black"/>
</svg>
