<svg width="150" height="150" viewBox="0 0 150 150" fill="none" xmlns="http://www.w3.org/2000/svg">
<g clip-path="url(#clip0_2109_227168)">
<path d="M0 149.85V0H150V149.85H142.035V140.541H7.9646V149.85H0Z" fill="#E5E5E5" stroke="black" stroke-width="0.337482"/>
<path d="M3.60352 2.85156H146.208V134.383H3.60352V2.85156Z" fill="#E5E5E5" stroke="black" stroke-width="0.337482"/>
<path d="M13.4639 1.5H17.6358V137.386H13.4639V1.5Z" fill="#CCCCCC" stroke="black" stroke-width="0.337482"/>
<path d="M18.584 74.9219H33.9443V79.7267H18.584V74.9219Z" fill="#CCCCCC" stroke="black" stroke-width="0.337482"/>
<path d="M9.6709 73.4219H27.8757V76.4249H24.083V74.9234H18.5837V79.7282H27.8757V81.2297H9.6709V73.4219Z" fill="#B2B2B2" stroke="black" stroke-width="0.337482"/>
<path d="M33.9443 74.3281H49.115V80.3341H33.9443V74.3281Z" fill="#333333" stroke="black" stroke-width="0.337482"/>
<path d="M31.2891 140.539V143.542H47.2183V140.539" stroke="black" stroke-width="0.337482"/>
<path d="M102.592 140.539V143.542H118.521V140.539" stroke="black" stroke-width="0.337482"/>
<path d="M150 110.961H142.035V123.273H150V110.961Z" fill="#CCCCCC" stroke="black" stroke-width="0.337482"/>
<path d="M143.932 109.461H148.104V125.077H143.932V109.461Z" fill="#E5E5E5" stroke="black" stroke-width="0.337482"/>
<path d="M150 13.9609H142.035V26.2732H150V13.9609Z" fill="#CCCCCC" stroke="black" stroke-width="0.337482"/>
<path d="M143.932 12.4609H148.104V28.0766H143.932V12.4609Z" fill="#E5E5E5" stroke="black" stroke-width="0.337482"/>
<path d="M150 62.3125H142.035V74.9251H150V62.3125Z" fill="#CCCCCC" stroke="black" stroke-width="0.337482"/>
<path d="M143.932 60.8125H148.104V76.4281H143.932V60.8125Z" fill="#E5E5E5" stroke="black" stroke-width="0.337482"/>
<path d="M63.1475 53.0049L86.662 34.0859H63.1475V53.0049Z" fill="#999999" stroke="black" stroke-width="0.337482"/>
<path d="M63.1475 53.0049H86.662V34.0859L63.1475 53.0049Z" fill="#CCCCCC" stroke="black" stroke-width="0.337482"/>
<path d="M74.9049 51.4984C80.3509 51.4984 84.7658 48.0028 84.7658 43.6906C84.7658 39.3785 80.3509 35.8828 74.9049 35.8828C69.4588 35.8828 65.0439 39.3785 65.0439 43.6906C65.0439 48.0028 69.4588 51.4984 74.9049 51.4984Z" fill="white" stroke="black" stroke-width="0.337482"/>
<path d="M74.9053 43.6969L70.7334 37.3906" stroke="#FF0000" stroke-width="0.337482"/>
<path d="M74.9051 42.1953L76.4222 42.6458L76.8015 43.6968L76.0429 45.0482L74.9051 45.1983L73.3881 44.5977L73.0088 43.6968L73.5777 42.6458L74.9051 42.1953Z" fill="#666666" stroke="black" stroke-width="0.337482"/>
<path d="M67.3197 45.1984L66.9404 44.2975L67.1301 42.4957L68.2679 40.2435L70.3538 38.4417L73.1983 37.5408L74.905 37.3906L78.1288 37.9912L80.594 39.1924L82.3007 41.2945L82.8696 43.6969L82.4904 45.1984" stroke="#7F7F7F" stroke-width="0.337482"/>
</g>
<defs>
<clipPath id="clip0_2109_227168">
<rect width="150" height="150" fill="white"/>
</clipPath>
</defs>
</svg>
