<svg width="150" height="150" viewBox="0 0 150 150" fill="none" xmlns="http://www.w3.org/2000/svg">
<path d="M13.063 133.295L8.70869 130.096L4.35434 120.498L1.50149 104.859L0.600586 87.7971V61.8492L1.50149 44.7876L4.35434 29.1478L8.70869 19.5506L13.5135 16.3516H136.336L141.141 19.5506L145.495 29.1478L148.198 44.7876L149.249 61.8492V87.7971L148.198 104.859L145.495 120.498L141.141 130.096L136.787 133.295H13.063Z" fill="#FFFF00" stroke="black" stroke-width="0.462043"/>
<path d="M25.375 148.223V1.42188H31.6813V148.223H25.375Z" fill="#FFFF00" stroke="black" stroke-width="0.462043"/>
<path d="M13.0635 148.223V1.42188H19.2196V148.223H13.0635Z" fill="#FFFF00" stroke="black" stroke-width="0.462043"/>
<path d="M0.600586 126.186H31.6817L136.787 111.613V96.6837L62.6126 89.5747L136.787 82.1102V67.5368L62.6126 60.0723L136.787 52.9633V38.3898L31.6817 23.4609H0.600586V38.3898H31.6817L112.012 45.4989L37.8378 52.9633V67.5368L112.012 75.0012L37.8378 82.1102V96.6837L112.012 104.148L31.6817 111.613H0.600586V126.186Z" fill="#FF0000"/>
</svg>
