<svg width="150" height="150" viewBox="0 0 150 150" fill="none" xmlns="http://www.w3.org/2000/svg">
<g clip-path="url(#clip0_2109_224796)">
<path d="M73.1514 32.5837V25.9771L97.5887 12.9141H150V19.3705H129.1L122.026 32.5837H73.1514Z" fill="#666666" stroke="black" stroke-width="0.31074"/>
<path d="M129.099 19.3694L125.562 16.0661V9.75976L129.099 6.60661V0H139.389V3.15315H136.173V6.60661H139.389L142.765 9.75976V16.0661L139.389 19.3694H129.099Z" fill="#999999" stroke="black" stroke-width="0.31074"/>
<path d="M108.199 19.3694L104.662 16.0661V9.75976L108.199 6.60661V0H118.488V3.15315H114.951V6.60661H118.488L122.025 9.75976V16.0661L118.488 19.3694H108.199Z" fill="#999999" stroke="black" stroke-width="0.31074"/>
<path d="M69.6143 136.938H142.765V143.244H69.6143V136.938Z" fill="#333333"/>
<path d="M69.6143 32.5859H142.765V136.94H69.6143V32.5859Z" fill="#4C4C4C"/>
<path d="M69.9355 35.5859H142.765V133.784H69.9355V35.5859Z" fill="#545454"/>
<path d="M69.9355 38.5859H142.765V130.778H69.9355V38.5859Z" fill="#5C5C5C"/>
<path d="M69.9355 41.5938H142.765V127.63H69.9355V41.5938Z" fill="#636363"/>
<path d="M69.9355 44.5938H142.765V124.774H69.9355V44.5938Z" fill="#6B6B6B"/>
<path d="M69.9355 47.5938H142.765V121.468H69.9355V47.5938Z" fill="#757575"/>
<path d="M69.9355 50.8984H142.765V118.466H69.9355V50.8984Z" fill="#7D7D7D"/>
<path d="M69.9355 53.9062H142.765V115.468H69.9355V53.9062Z" fill="#858585"/>
<path d="M69.9355 56.9062H142.765V112.462H69.9355V56.9062Z" fill="#8C8C8C"/>
<path d="M69.9355 59.9062H142.765V109.456H69.9355V59.9062Z" fill="#949494"/>
<path d="M69.9355 62.9141H142.765V106.157H69.9355V62.9141Z" fill="#9C9C9C"/>
<path d="M69.9355 66.2188H142.765V103.156H69.9355V66.2188Z" fill="#A3A3A3"/>
<path d="M69.9355 69.2188H142.765V100.15H69.9355V69.2188Z" fill="#ABABAB"/>
<path d="M69.9355 72.2188H142.765V97.1437H69.9355V72.2188Z" fill="#B5B5B5"/>
<path d="M69.9355 75.2266H142.765V94.1455H69.9355V75.2266Z" fill="#BDBDBD"/>
<path d="M69.9355 78.2266H142.765V90.8392H69.9355V78.2266Z" fill="#C4C4C4"/>
<path d="M69.6143 81.5312H142.765V87.8376H69.6143V81.5312Z" fill="#CCCCCC"/>
<path d="M69.6143 32.5859H142.765V136.94H69.6143V32.5859Z" stroke="black" stroke-width="0.31074"/>
<path d="M132.637 16.0625H139.389V143.24H132.637V16.0625Z" fill="#7F7F7F" stroke="black" stroke-width="0.31074"/>
<path d="M134.888 16.0625H137.138V143.24H134.888V16.0625Z" fill="#CCCCCC"/>
<path d="M0 16.0625H73.1511V52.0985H0V16.0625Z" fill="#666666"/>
<path d="M3.21582 52.1016H69.6145V143.243H3.21582V52.1016Z" fill="#CCCCCC"/>
<path d="M3.21582 116.966L69.6145 78.8281V143.243H3.21582V116.966Z" fill="#C7C7C7"/>
<path d="M3.21582 120.873L69.6145 82.7344V143.245H3.21582V120.873Z" fill="#C2C2C2"/>
<path d="M3.21582 126.579L69.6145 88.1406V143.246H3.21582V126.579Z" fill="#BDBDBD"/>
<path d="M3.21582 52.1016H69.6145V143.243H3.21582V52.1016Z" stroke="black" stroke-width="0.31074"/>
<path d="M0 18.1719H73.1511V50.0037H0V18.1719Z" fill="#757575"/>
<path d="M0 20.2734H73.1511V47.9011H0V20.2734Z" fill="#858585"/>
<path d="M0 22.2188H73.1511V45.7923H0V22.2188Z" fill="#969696"/>
<path d="M0 24.1719H73.1511V43.9917H0V24.1719Z" fill="#A6A6A6"/>
<path d="M0 26.2734H73.1511V41.8891H0V26.2734Z" fill="#B5B5B5"/>
<path d="M0 28.375H73.1511V39.7864H0V28.375Z" fill="#C4C4C4"/>
<path d="M0 30.4844H73.1511V37.6916H0V30.4844Z" fill="#D6D6D6"/>
<path d="M0 32.5859H73.1511V35.5889H0V32.5859Z" fill="#E5E5E5"/>
<path d="M86.9775 38.8906H135.852V107.659H86.9775V38.8906Z" fill="#CCCCCC"/>
<path d="M86.9775 87.5363L135.852 59.0078V107.656H86.9775V87.5363Z" fill="#C7C7C7"/>
<path d="M86.9775 90.5442L135.852 62.0156V107.661H86.9775V90.5442Z" fill="#C2C2C2"/>
<path d="M86.9775 94.7473L135.852 66.2188V107.66H86.9775V94.7473Z" fill="#BDBDBD"/>
<path d="M86.9775 38.8906H135.852V107.659H86.9775V38.8906Z" stroke="black" stroke-width="0.31074"/>
<path d="M114.952 45.4922H129.1V71.6183H114.952V45.4922Z" fill="#333333"/>
<path d="M111.737 104.356L105.306 98.3498L111.737 92.3438L118.167 98.3498L111.737 104.356Z" fill="#E5E5E5"/>
<path d="M94.0518 84.8359H129.1V88.1392H94.0518V84.8359Z" fill="#B2B2B2"/>
<path d="M96.6241 53.3014L94.0518 51.1993L96.6241 48.7969L98.8749 51.1993L96.6241 53.3014Z" fill="#666666"/>
<path d="M102.09 53.3014L99.8389 51.1993L102.09 48.7969L104.662 51.1993L102.09 53.3014Z" fill="#666666"/>
<path d="M96.6241 58.7076L94.0518 56.3052L96.6241 54.2031L98.8749 56.3052L96.6241 58.7076Z" fill="#999999"/>
<path d="M102.09 58.7076L99.8389 56.3052L102.09 54.2031L104.662 56.3052L102.09 58.7076Z" fill="#999999"/>
<path d="M96.6241 65.0123L94.0518 62.9102L96.6241 60.5078L98.8749 62.9102L96.6241 65.0123Z" fill="#999999"/>
<path d="M102.09 65.0123L99.8389 62.9102L102.09 60.5078L104.662 62.9102L102.09 65.0123Z" fill="#999999"/>
<path d="M62.54 52.0985V16.0625" stroke="#666666" stroke-width="0.31074"/>
<path d="M50.3216 16.0641V11.2593H48.7139V9.75781H57.3955V11.2593H55.7878V16.0641H50.3216Z" fill="#4C4C4C" stroke="black" stroke-width="0.31074"/>
<path d="M38.1025 101.055H66.0768V140.094H38.1025V101.055Z" fill="#A6A6A6"/>
<path d="M27.8135 61.7109H66.0771V81.5308H27.8135V61.7109Z" fill="#B2B2B2"/>
<path d="M10.1289 71.625H24.2768V140.093H10.1289V71.625Z" fill="#B2B2B2"/>
<path d="M0 143.242H146.463V149.999H0V143.242Z" fill="#B2B2B2"/>
<path d="M0 146.695H146.463V149.999H0V146.695Z" fill="#999999"/>
<path d="M0 143.242H146.463V149.999H0V143.242Z" stroke="black" stroke-width="0.31074"/>
<path d="M38.1033 123.874L31.0293 107.657V81.5312" stroke="#B2B2B2" stroke-width="0.31074"/>
<path d="M111.736 74.928H132.637V42.1953" stroke="#999999" stroke-width="0.31074"/>
<path d="M66.0774 55.4062H7.07422V140.091" stroke="#999999" stroke-width="0.31074"/>
<path d="M111.736 74.928V42.1953H132.637" stroke="white" stroke-width="0.31074"/>
<path d="M20.7393 107.056L52.2505 88.4375" stroke="white" stroke-width="0.31074"/>
<path d="M17.2021 112.463L55.7874 89.6406" stroke="white" stroke-width="0.31074"/>
<path d="M13.8262 120.867L59.003 94.1406" stroke="white" stroke-width="0.31074"/>
<path d="M66.0774 55.4062V140.091H7.07422" stroke="white" stroke-width="0.31074"/>
<path d="M0 16.0625H73.1511V52.0985H0V16.0625Z" stroke="black" stroke-width="0.31074"/>
<path d="M69.6143 61.7109H86.9776V65.0142H69.6143V61.7109Z" fill="#7F7F7F" stroke="black" stroke-width="0.31074"/>
<path d="M69.6143 71.625H86.9776V74.9283H69.6143V71.625Z" fill="#7F7F7F" stroke="black" stroke-width="0.31074"/>
<path d="M73.1514 22.6719H132.637V25.9752H73.1514V22.6719Z" fill="#7F7F7F" stroke="black" stroke-width="0.31074"/>
<path d="M69.6143 81.5312L76.6882 110.961L86.9776 123.874L101.126 130.48L118.489 133.784H132.637" stroke="black" stroke-width="0.31074"/>
<path d="M86.9775 107.656V143.242H94.0515L101.125 107.656H86.9775Z" fill="#999999" stroke="black" stroke-width="0.31074"/>
<path d="M136.173 107.656V143.242H129.099L122.025 107.656H136.173Z" fill="#999999" stroke="black" stroke-width="0.31074"/>
<path d="M12.0582 16.0692L10.1289 12.4656L12.0582 3.15625H16.2382L18.1675 12.4656L16.2382 16.0692H12.0582Z" fill="#B2B2B2" stroke="black" stroke-width="0.31074"/>
<path d="M21.704 16.0692L19.9355 12.4656L21.704 3.15625H25.8841L27.8134 12.4656L25.8841 16.0692H21.704Z" fill="#B2B2B2" stroke="black" stroke-width="0.31074"/>
</g>
<defs>
<clipPath id="clip0_2109_224796">
<rect width="150" height="150" fill="white"/>
</clipPath>
</defs>
</svg>
