<svg width="150" height="150" viewBox="0 0 150 150" fill="none" xmlns="http://www.w3.org/2000/svg">
<path d="M10.8105 15.7891H20.7205V18.1575H10.8105V15.7891Z" fill="#FFCC00"/>
<path d="M10.8105 1.57812H20.7205V3.94655H10.8105V1.57812Z" fill="#FFCC00"/>
<path d="M10.8111 34.3413H9.91016V1.57812H10.8111V34.3413Z" fill="#FFCC00"/>
<path d="M54.8047 15.7891H71.0209V18.1575H54.8047V15.7891Z" fill="#FFCC00"/>
<path d="M54.8047 1.57812H71.0209V3.94655H54.8047V1.57812Z" fill="#FFCC00"/>
<path d="M54.8045 34.3413H54.0537V1.57812H54.8045V34.3413Z" fill="#FFCC00"/>
<path d="M78.0781 15.7891H95.0451V18.1575H78.0781V15.7891Z" fill="#FFCC00"/>
<path d="M78.0781 1.57812H95.0451V3.94655H78.0781V1.57812Z" fill="#FFCC00"/>
<path d="M95.7957 1.57812V34.3413H95.0449V1.57812H95.7957Z" fill="#FFCC00"/>
<path d="M129.129 15.7891H139.189V18.1575H129.129V15.7891Z" fill="#FFCC00"/>
<path d="M129.129 1.57812H139.189V3.94655H129.129V1.57812Z" fill="#FFCC00"/>
<path d="M139.94 1.57812V34.3413H139.189V1.57812H139.94Z" fill="#FFCC00"/>
<path d="M10.6611 30H20.7212V34.3421H10.6611V30Z" fill="#FFCC00"/>
<path d="M54.8047 30H71.0209V34.3421H54.8047V30Z" fill="#FFCC00"/>
<path d="M78.0781 30H95.0451V34.3421H78.0781V30Z" fill="#FFCC00"/>
<path d="M129.129 30.3984H139.189V34.3458H129.129V30.3984Z" fill="#FFCC00"/>
<path d="M121.321 11.8438H123.574V22.1069H121.321V11.8438Z" fill="#CC9900"/>
<path d="M121.321 26.0489H123.574V22.1016H121.321V26.0489Z" fill="#996600"/>
<path d="M13.0635 121.578V146.052H15.9163L18.9193 121.578H13.0635Z" fill="#4C4C33"/>
<path d="M130.931 121.578L133.934 146.052H136.787V121.578H130.931Z" fill="#4C4C33"/>
<path d="M30.7812 121.578V146.052H33.6341V121.578H30.7812Z" fill="#4C4C33"/>
<path d="M116.216 121.578V146.052H119.069L119.219 121.578H116.216Z" fill="#4C4C33"/>
<path d="M51.3516 121.578V146.052H54.3546V121.578H51.3516Z" fill="#4C4C33"/>
<path d="M95.4951 121.578V146.052H98.4981V121.578H95.4951Z" fill="#4C4C33"/>
<path d="M77.7773 121.578V146.052H80.7803V121.578H77.7773Z" fill="#4C4C33"/>
<path d="M69.0693 121.578V146.052H71.9222L72.0723 121.578H69.0693Z" fill="#4C4C33"/>
<path d="M9.91016 131.844V123.555H139.94V131.844H9.91016Z" fill="#4C4C33"/>
<path d="M139.939 103.423V86.8438L146.096 87.2385L147.297 87.6332L148.348 89.6069L148.948 92.3701L149.249 95.1332L148.948 98.2911L148.348 101.054L147.297 103.028L146.096 103.423H139.939Z" fill="black" stroke="#B2B299" stroke-width="0.486908"/>
<path d="M9.90989 86.8438V103.423H3.75374L2.55254 102.633L1.50149 101.054L0.900886 98.2911L0.600586 95.1332L0.900886 91.9753L1.50149 89.2122L2.55254 87.6332L3.75374 86.8438H9.90989Z" fill="black" stroke="#B2B299" stroke-width="0.486908"/>
<path d="M139.94 123.552V34.3413H121.322V1.57812H96.5468V34.3413H53.3036V1.57812H28.5288V34.3413H9.91016V123.552H139.94Z" fill="#E5E5CC"/>
<path d="M9.91016 123.555V148.028H13.0633L16.2165 123.555H9.91016Z" fill="#B2B299" stroke="black" stroke-width="0.486908"/>
<path d="M133.784 123.555L136.787 148.028H139.94V123.555H133.784Z" fill="#B2B299" stroke="black" stroke-width="0.486908"/>
<path d="M28.5283 123.555V148.028H31.6815V123.555H28.5283Z" fill="#B2B299" stroke="black" stroke-width="0.486908"/>
<path d="M118.168 123.555V148.028H121.321V123.555H118.168Z" fill="#B2B299" stroke="black" stroke-width="0.486908"/>
<path d="M50.1504 123.555V148.028H53.3035V123.555H50.1504Z" fill="#B2B299" stroke="black" stroke-width="0.486908"/>
<path d="M96.5469 123.555V148.028H99.7V123.555H96.5469Z" fill="#B2B299" stroke="black" stroke-width="0.486908"/>
<path d="M77.9277 123.555V148.028H81.0809V123.555H77.9277Z" fill="#B2B299" stroke="black" stroke-width="0.486908"/>
<path d="M68.7686 123.555V148.028H71.7716L71.9217 123.555H68.7686Z" fill="#B2B299" stroke="black" stroke-width="0.486908"/>
<path d="M9.91016 50.5234H139.94" stroke="#CBCBB2" stroke-width="0.486908"/>
<path d="M121.322 34.3438H96.5469" stroke="#CBCBB2" stroke-width="0.486908"/>
<path d="M53.3031 34.3438H28.5283" stroke="#CBCBB2" stroke-width="0.486908"/>
<path d="M139.939 91.1875V131.845H146.096V91.1875H139.939Z" fill="#CBCBB2" stroke="black" stroke-width="0.486908"/>
<path d="M3.75391 91.1875V131.845H9.91006V91.1875H3.75391Z" fill="#CBCBB2" stroke="black" stroke-width="0.486908"/>
<path d="M139.79 123.158L139.94 66.7109L50.1504 123.948L139.79 123.158Z" fill="#DDDDC4"/>
<path d="M139.789 123.155L139.94 73.8125L62.6123 123.944L139.789 123.155Z" fill="#D3D3BA"/>
<path d="M139.94 123.55V88.0234L84.2344 123.55H139.94Z" fill="#CBCBB2"/>
<path d="M139.94 123.552V34.3413H121.322V1.57812H96.5468V34.3413H53.3035V1.57812H28.5288V34.3413H9.91016V123.552H139.94Z" stroke="black" stroke-width="0.486908"/>
<path d="M84.3845 115.266H102.703L102.853 77.7656L84.2344 89.6077L84.3845 115.266Z" fill="#DDDDC4"/>
<path d="M62.6123 115.266H80.9306L81.0808 77.7656L62.6123 89.6077V115.266Z" fill="#DDDDC4"/>
<path d="M40.991 115.266H59.3093L59.4594 77.7656L40.8408 89.6077L40.991 115.266Z" fill="#DDDDC4"/>
<path d="M19.3689 115.266H37.6872L37.8374 77.7656L19.2188 89.6077L19.3689 115.266Z" fill="#DDDDC4"/>
<path d="M84.3845 115.263H102.703L102.853 82.5L84.2344 94.3421L84.3845 115.263Z" fill="#D3D3BA"/>
<path d="M62.6123 115.263H80.9306L81.0808 82.5L62.6123 94.3421V115.263Z" fill="#D3D3BA"/>
<path d="M40.991 115.263H59.3093L59.4594 82.5L40.8408 94.3421L40.991 115.263Z" fill="#D3D3BA"/>
<path d="M19.3689 115.263H37.6872L37.8374 82.5L19.2188 94.3421L19.3689 115.263Z" fill="#D3D3BA"/>
<path d="M84.2344 115.661H102.853V91.9766L84.2344 103.819V115.661Z" fill="#CBCBB2"/>
<path d="M62.6123 115.661H81.0808V91.9766L62.6123 103.819V115.661Z" fill="#CBCBB2"/>
<path d="M40.8408 115.661H59.4594V91.9766L40.8408 103.819V115.661Z" fill="#CBCBB2"/>
<path d="M19.2188 115.661H37.8374V91.9766L19.2188 103.819V115.661Z" fill="#CBCBB2"/>
<path d="M102.853 58.8125V115.655H84.2344" stroke="#7F7F66" stroke-width="0.486908"/>
<path d="M81.0808 58.8125V115.655H62.6123" stroke="#7F7F66" stroke-width="0.486908"/>
<path d="M59.4594 58.8125V115.655H40.8408" stroke="#7F7F66" stroke-width="0.486908"/>
<path d="M37.8374 58.8125V115.655H19.2188" stroke="#7F7F66" stroke-width="0.486908"/>
<path d="M84.2344 115.655V58.8125H102.853" stroke="white" stroke-width="0.486908"/>
<path d="M62.6123 115.655V58.8125H81.0808" stroke="white" stroke-width="0.486908"/>
<path d="M40.8408 115.655V58.8125H59.4594" stroke="white" stroke-width="0.486908"/>
<path d="M19.2188 115.655V58.8125H37.8374" stroke="white" stroke-width="0.486908"/>
<path d="M136.787 28.0234V78.9445H136.036V28.0234H136.787Z" fill="#B2B299"/>
<path d="M138.288 78.9453V91.1822H134.534V78.9453H138.288Z" fill="#CBCBB2" stroke="#7F7F66" stroke-width="0.486908"/>
<path d="M135.285 84.0798L135.585 82.1061L136.336 80.9219L137.237 82.1061L137.537 84.0798L137.237 86.0535L136.336 87.2377L135.585 86.0535L135.285 84.0798Z" fill="#7F4C4C"/>
<path d="M122.823 1.57812V148.025H122.072V1.57812H122.823Z" fill="#FFCC00"/>
<path d="M129.129 1.57812V148.025H128.229V1.57812H129.129Z" fill="#FFCC00"/>
<path d="M122.823 38.2891H128.229V40.2627H122.823V38.2891Z" fill="#FFCC00"/>
<path d="M122.823 54.4766H128.229V56.845H122.823V54.4766Z" fill="#FFCC00"/>
<path d="M122.823 71.0547H128.229V73.0284H122.823V71.0547Z" fill="#FFCC00"/>
<path d="M122.823 87.2344H128.229V89.2081H122.823V87.2344Z" fill="#FFCC00"/>
<path d="M122.823 103.422H128.229V105.396H122.823V103.422Z" fill="#FFCC00"/>
<path d="M122.823 119.602H128.229V121.575H122.823V119.602Z" fill="#FFCC00"/>
<path d="M122.823 135.789H128.229V138.157H122.823V135.789Z" fill="#FFCC00"/>
<path d="M71.9224 1.57812V148.025H71.0215V1.57812H71.9224Z" fill="#FFCC00"/>
<path d="M78.0777 1.57812V148.025H77.1768V1.57812H78.0777Z" fill="#FFCC00"/>
<path d="M71.9219 38.2891H77.1771V40.2627H71.9219V38.2891Z" fill="#FFCC00"/>
<path d="M71.9219 54.4766H77.1771V56.845H71.9219V54.4766Z" fill="#FFCC00"/>
<path d="M71.9219 71.0547H77.1771V73.0284H71.9219V71.0547Z" fill="#FFCC00"/>
<path d="M71.9219 87.2344H77.1771V89.2081H71.9219V87.2344Z" fill="#FFCC00"/>
<path d="M71.9219 103.422H77.1771V105.396H71.9219V103.422Z" fill="#FFCC00"/>
<path d="M71.9219 119.602H77.1771V121.575H71.9219V119.602Z" fill="#FFCC00"/>
<path d="M71.9219 135.789H77.1771V138.157H71.9219V135.789Z" fill="#FFCC00"/>
<path d="M21.6216 1.57812V148.025H20.7207V1.57812H21.6216Z" fill="#FFCC00"/>
<path d="M27.7781 1.57812V148.025H27.0273V1.57812H27.7781Z" fill="#FFCC00"/>
<path d="M21.6221 38.2891H27.0275V40.2627H21.6221V38.2891Z" fill="#FFCC00"/>
<path d="M21.6221 54.4766H27.0275V56.845H21.6221V54.4766Z" fill="#FFCC00"/>
<path d="M21.6221 71.0547H27.0275V73.0284H21.6221V71.0547Z" fill="#FFCC00"/>
<path d="M21.6221 87.2344H27.0275V89.2081H21.6221V87.2344Z" fill="#FFCC00"/>
<path d="M21.6221 103.422H27.0275V105.396H21.6221V103.422Z" fill="#FFCC00"/>
<path d="M21.6221 119.602H27.0275V121.575H21.6221V119.602Z" fill="#FFCC00"/>
<path d="M21.6221 135.789H27.0275V138.157H21.6221V135.789Z" fill="#FFCC00"/>
<path d="M99.6992 89.213V85.2656H103.603V89.213H99.6992Z" fill="#B2B299"/>
<path d="M78.0781 89.213V85.2656H81.8319V89.213H78.0781Z" fill="#B2B299"/>
<path d="M56.3066 89.213V85.2656H60.2105V89.213H56.3066Z" fill="#B2B299"/>
<path d="M34.6846 89.213V85.2656H38.5885V89.213H34.6846Z" fill="#B2B299"/>
</svg>
