<svg width="150" height="150" viewBox="0 0 150 150" fill="none" xmlns="http://www.w3.org/2000/svg">
<path d="M110.811 81.1094V103.339H149.099V81.1094H110.811Z" fill="#999999" stroke="black" stroke-width="0.346815"/>
<path d="M104.204 41.0581H124.174L130.781 49.8699V81.1115H144.144V42.0595L130.03 23.2344H124.174H104.204V41.0581Z" fill="#999999" stroke="black" stroke-width="0.346815"/>
<path d="M110.811 83.9141V100.336H149.099V83.9141H110.811Z" fill="#B2B2B2"/>
<path d="M104.204 38.8554H124.925L132.432 48.8687V81.1117H142.492V43.2613L129.129 25.4375H104.204V38.8554Z" fill="#B2B2B2"/>
<path d="M110.811 85.7109V98.528H149.099V85.7109H110.811Z" fill="#CCCCCC"/>
<path d="M104.204 37.0524H125.375L133.784 48.0671V81.1112H141.291V43.6612L128.528 27.0391H104.204V37.0524Z" fill="#CCCCCC"/>
<path d="M110.811 88.3203V96.1307H149.099V88.3203H110.811Z" fill="#E5E5E5"/>
<path d="M104.204 35.0442H125.826L135.285 47.0602V81.1056H139.94V44.657L127.928 28.8359H104.204V35.0442Z" fill="#E5E5E5"/>
<path d="M104.204 33.247H126.576L136.787 46.2643L136.637 81.1108H138.438V45.4632L127.327 30.8438H104.204V33.247Z" fill="white"/>
<path d="M110.811 90.7188V93.5225H149.099V90.7188H110.811Z" fill="white"/>
<path d="M18.168 125.57H84.9848V132.179H18.168V125.57Z" fill="#0D2140" stroke="black" stroke-width="0.346815"/>
<path d="M17.417 9.8125H60.8104V49.8659H17.417V9.8125Z" fill="#B2B2B2" stroke="black" stroke-width="0.346815"/>
<path d="M17.417 12.8203H60.8104V46.6654H17.417V12.8203Z" fill="#C2C2C2"/>
<path d="M17.417 14.2188H60.8104V45.2601H17.417V14.2188Z" fill="#D1D1D1"/>
<path d="M17.417 17.625H60.8104V42.0576H17.417V17.625Z" fill="#E0E0E0"/>
<path d="M17.417 22.2266H60.8104V37.4469H17.417V22.2266Z" fill="#F0F0F0"/>
<path d="M17.417 26.4375H60.8104V33.2466H17.417V26.4375Z" fill="white"/>
<path d="M0.750977 125.566V58.6769H17.4176L20.7209 41.0534H27.4777V58.6769H50.751V41.0534H57.5077L60.811 58.6769H77.4777V1H104.204V58.6769H110.811V125.566H0.750977Z" fill="#405473"/>
<path d="M0.750977 62.0859H110.811V121.966H0.750977V62.0859Z" fill="#4F6382"/>
<path d="M0.750977 65.4844H110.811V118.755H0.750977V65.4844Z" fill="#5E7291"/>
<path d="M0.750977 71.0938H110.811V113.15H0.750977V71.0938Z" fill="#6E82A1"/>
<path d="M0.750977 77.7031H110.811V106.542H0.750977V77.7031Z" fill="#7D91B0"/>
<path d="M0.750977 85.5127V98.7303H110.811V85.5127H104.204V1H77.4777V85.5127H0.750977Z" fill="#8CA0BF"/>
<path d="M60.8105 39.4531H77.4772V56.4758H60.8105V39.4531Z" fill="#999999"/>
<path d="M0.750977 39.4531H17.4176V56.4758H0.750977V39.4531Z" fill="#999999"/>
<path d="M60.8105 20.2266H77.4772V39.4522H60.8105V20.2266Z" fill="#CCCCCC"/>
<path d="M0.750977 20.2266H17.4176V39.4522H0.750977V20.2266Z" fill="#CCCCCC"/>
<path d="M0.750977 3.20312H17.4176V20.2258H0.750977V3.20312Z" fill="#E5E5E5"/>
<path d="M60.8105 3.20312H77.4772V20.2258H60.8105V3.20312Z" fill="#E5E5E5"/>
<path d="M77.4772 3.20312H60.8105V56.4742H77.4772V3.20312Z" stroke="black" stroke-width="0.346815"/>
<path d="M17.4176 3.20312H0.750977V56.4742H17.4176V3.20312Z" stroke="black" stroke-width="0.346815"/>
<path d="M77.4775 1H104.204V27.6355H77.4775V1Z" fill="#A6BAD9"/>
<path d="M0.750977 125.566V58.6769H17.4176L20.7209 41.0534H27.4777V58.6769H50.751V41.0534H57.5077L60.811 58.6769H77.4777V1H104.204V58.6769H110.811V125.566H0.750977Z" stroke="black" stroke-width="0.346815"/>
<path d="M124.174 41.0581L130.03 23.2344" stroke="black" stroke-width="0.346815"/>
<path d="M130.781 49.8651L144.145 42.0547" stroke="black" stroke-width="0.346815"/>
<path d="M110.811 81.1094V103.339H149.099V81.1094H110.811Z" stroke="black" stroke-width="0.346815"/>
<path d="M60.8105 61.0781H61.5613V123.361H60.8105V61.0781Z" fill="#405473"/>
<path d="M27.4775 61.0781H28.2283V123.361H27.4775V61.0781Z" fill="#405473"/>
<path d="M18.168 59.8828V123.367" stroke="#405473" stroke-width="0.346815"/>
<path d="M50.751 59.8828V123.367" stroke="#405473" stroke-width="0.346815"/>
<path d="M4.2041 116.555H14.114V82.1094H4.2041V116.555Z" fill="#596D8C"/>
<path d="M4.2041 82.1104H14.114V52.0703H4.2041V82.1104Z" fill="#263A59"/>
<path d="M5.40527 116.555H12.7626V82.1094H5.40527V116.555Z" fill="#7387A6"/>
<path d="M5.40527 82.1104H12.7626V52.0703H5.40527V82.1104Z" fill="#405473"/>
<path d="M6.30664 116.555H11.8622V82.1094H6.30664V116.555Z" fill="#8CA0BF"/>
<path d="M6.30664 82.1104H11.8622V52.0703H6.30664V82.1104Z" fill="#596D8C"/>
<path d="M7.35742 116.555H10.8109V82.1094H7.35742V116.555Z" fill="#A6BAD9"/>
<path d="M7.35742 82.1104H10.8109V52.0703H7.35742V82.1104Z" fill="#7387A6"/>
<path d="M8.4082 116.555H9.75955V82.1094H8.4082V116.555Z" fill="#BFD3F2"/>
<path d="M8.4082 82.1104H9.75955V52.0703H8.4082V82.1104Z" fill="#8CA0BF"/>
<path d="M4.2041 116.555H14.114V82.1094H4.2041V116.555Z" stroke="black" stroke-width="0.346815"/>
<path d="M4.2041 82.1104H14.114V52.0703H4.2041V82.1104Z" stroke="black" stroke-width="0.346815"/>
<path d="M92.4924 137.781H2.40234V144.39H92.4924V137.781Z" fill="#263A59" stroke="black" stroke-width="0.346815"/>
<path d="M0.750977 135.578H94.1444V137.781H0.750977V135.578Z" fill="#7387A6" stroke="black" stroke-width="0.346815"/>
<path d="M0.750977 144.391H94.1444V146.594H0.750977V144.391Z" fill="#7387A6" stroke="black" stroke-width="0.346815"/>
<path d="M92.4922 102.133H93.2429V114.349H92.4922V102.133Z" fill="#666666"/>
<path d="M84.9854 106.539H89.9403V135.578H84.9854V106.539Z" fill="#405473" stroke="black" stroke-width="0.346815"/>
<path d="M51.6514 106.539H56.6063V135.578H51.6514V106.539Z" fill="#405473" stroke="black" stroke-width="0.346815"/>
<path d="M13.2129 106.539H18.1678V135.578H13.2129V106.539Z" fill="#405473" stroke="black" stroke-width="0.346815"/>
<path d="M35.7354 113.352H59.1588V114.353H35.7354V113.352Z" fill="#333333"/>
<path d="M10.8105 114.352H114.114V117.756H10.8105V114.352Z" fill="#B2B2B2" stroke="black" stroke-width="0.346815"/>
<path d="M35.7354 88.7188H59.1588V113.352H35.7354V88.7188Z" fill="#E5E5E5" stroke="black" stroke-width="0.346815"/>
<path d="M49.0996 91.125H57.508V103.341H49.0996V91.125Z" fill="white"/>
<path d="M37.3877 91.125H43.2436V111.152H37.3877V91.125Z" fill="#CCCCCC"/>
<path d="M53.3037 105.539H54.0545V106.54H53.3037V105.539Z" fill="#FF0000"/>
<path d="M54.9551 105.539H57.5076V106.54H54.9551V105.539Z" fill="#FFCC00"/>
<path d="M89.0391 87.7188H97.4475V102.138H89.0391V87.7188Z" fill="#CCCCCC" stroke="black" stroke-width="0.346815"/>
<path d="M93.2432 88.7188H96.5465V93.3249H93.2432V88.7188Z" fill="#A6BAD9"/>
<path d="M94.8945 94.3281H96.5462V101.137H94.8945V94.3281Z" fill="#B2B2B2"/>
<path d="M0.750977 128.773H19.0693V148.8H0.750977V128.773Z" fill="#7387A6" stroke="black" stroke-width="0.346815"/>
<path d="M18.1681 128.77L20.7207 114.351L19.069 107.742L14.1141 105.539L8.2582 107.742L2.40234 118.757V128.77H18.1681Z" fill="#996600" stroke="black" stroke-width="0.346815"/>
<path d="M13.9635 122.962C17.1147 122.962 19.6692 119.555 19.6692 115.352C19.6692 111.149 17.1147 107.742 13.9635 107.742C10.8123 107.742 8.25781 111.149 8.25781 115.352C8.25781 119.555 10.8123 122.962 13.9635 122.962Z" fill="#333333" stroke="black" stroke-width="0.346815"/>
<path d="M14.1144 120.965C16.4363 120.965 18.3186 118.454 18.3186 115.357C18.3186 112.261 16.4363 109.75 14.1144 109.75C11.7924 109.75 9.91016 112.261 9.91016 115.357C9.91016 118.454 11.7924 120.965 14.1144 120.965Z" fill="#999999"/>
<path d="M14.1138 116.552C14.6113 116.552 15.0147 116.014 15.0147 115.35C15.0147 114.686 14.6113 114.148 14.1138 114.148C13.6162 114.148 13.2129 114.686 13.2129 115.35C13.2129 116.014 13.6162 116.552 14.1138 116.552Z" fill="black"/>
</svg>
