<svg width="150" height="150" viewBox="0 0 150 150" fill="none" xmlns="http://www.w3.org/2000/svg">
<g clip-path="url(#clip0_2109_225177)">
<path d="M112.462 82.6328L120.57 90.703L109.759 102.984L101.651 95.2644L112.462 82.6328Z" fill="#999999" stroke="black" stroke-width="0.324605"/>
<path d="M42.793 49.9988L123.273 37.3672L117.868 81.2268L53.6038 149.999L42.793 49.9988Z" fill="#B2B2B2" stroke="black" stroke-width="0.324605"/>
<path d="M69.5195 99.8279L117.868 55.9682V50.0033L69.5195 93.5121V87.5471L117.868 43.6875" stroke="black" stroke-width="0.324605"/>
<path d="M105.556 95.2656L114.565 98.0726L112.162 108.599L103.153 105.792L105.556 95.2656Z" fill="#CCCCCC" stroke="black" stroke-width="0.324605"/>
<path d="M59.3093 146.842L48.4985 150H37.0871L26.4264 146.842L16.3664 140L8.70871 130.702L3.003 119.474L0 106.491V93.5088L3.003 80.5263L8.70871 69.2982L16.3664 59.8246L26.4264 53.1579L37.0871 50H48.4985L59.3093 53.1579L69.2192 59.8246L77.027 69.2982L82.7327 80.5263L85.7357 93.5088V106.491L82.7327 119.474L77.027 130.702L68.9189 140L59.3093 146.842Z" fill="#003399"/>
<path d="M130.18 72.4561L122.072 74.9123H113.663L105.255 72.4561L98.0477 67.5439L92.0417 60.5263L87.8375 51.7544L85.7354 42.2807V32.4561L87.8375 22.6316L92.0417 14.386L98.0477 7.19298L105.255 2.2807L113.663 0H122.072L130.18 2.2807L137.537 7.19298L143.693 14.386L147.898 22.6316L149.849 32.4561V42.2807L147.898 51.7544L143.693 60.5263L137.387 67.5439L130.18 72.4561Z" fill="#003399" stroke="black" stroke-width="0.324605"/>
<path d="M58.4088 143.682L48.1986 146.84H37.3878L27.1776 143.682L18.1686 137.366L10.6611 128.594L5.25568 118.068L2.70312 106.138V93.5064L5.25568 81.5766L10.6611 71.0503L18.1686 62.2784L27.1776 55.9626L37.3878 52.8047H48.1986L58.4088 55.9626L67.4178 62.2784L74.9253 71.0503L80.3307 81.5766L83.0335 93.5064V106.138L80.3307 118.068L74.9253 128.594L67.4178 137.366L58.4088 143.682Z" fill="#0D40A6"/>
<path d="M129.58 69.9999L121.772 72.456H113.964L106.156 69.9999L99.2493 65.4385L93.8439 58.7718L89.6397 50.7016L87.8379 41.9297V32.456L89.6397 23.6841L93.8439 15.6139L99.2493 8.94723L106.156 4.38583L113.964 1.92969H121.772L129.58 4.38583L136.487 8.94723L141.892 15.6139L146.096 23.6841L147.898 32.456V41.9297L146.096 50.7016L141.892 58.7718L136.487 65.4385L129.58 69.9999Z" fill="#0D40A6"/>
<path d="M117.868 70.3477C133.458 70.3477 146.096 55.581 146.096 37.3653C146.096 19.1496 133.458 4.38281 117.868 4.38281C102.278 4.38281 89.6396 19.1496 89.6396 37.3653C89.6396 55.581 102.278 70.3477 117.868 70.3477Z" fill="#194CB2"/>
<path d="M42.7924 143.688C63.5238 143.688 80.33 124.051 80.33 99.8284C80.33 75.6054 63.5238 55.9688 42.7924 55.9688C22.061 55.9688 5.25488 75.6054 5.25488 99.8284C5.25488 124.051 22.061 143.688 42.7924 143.688Z" fill="#194CB2"/>
<path d="M117.868 67.8964C132.297 67.8964 143.994 54.2293 143.994 37.3701C143.994 20.5108 132.297 6.84375 117.868 6.84375C103.439 6.84375 91.7422 20.5108 91.7422 37.3701C91.7422 54.2293 103.439 67.8964 117.868 67.8964Z" fill="#2659BF"/>
<path d="M56.3066 137.546L47.2976 140.529H38.2886L29.2796 137.546L21.4718 132.458L14.8652 124.739L10.5108 115.616L8.1084 105.441V94.5636L10.5108 84.0373L14.8652 74.9145L21.4718 67.1952L29.2796 61.932L38.2886 59.125H47.2976L56.3066 61.932L64.1144 67.1952L70.721 74.9145L75.2255 84.0373L77.6279 94.5636V105.441L75.2255 115.616L70.721 124.739L64.1144 132.458L56.3066 137.546Z" fill="#2659BF"/>
<path d="M117.868 65.4372C131.136 65.4372 141.892 52.8698 141.892 37.3671C141.892 21.8643 131.136 9.29688 117.868 9.29688C104.6 9.29688 93.8438 21.8643 93.8438 37.3671C93.8438 52.8698 104.6 65.4372 117.868 65.4372Z" fill="#3366CC"/>
<path d="M42.7933 137.369C60.5394 137.369 74.9254 120.56 74.9254 99.8251C74.9254 79.0902 60.5394 62.2812 42.7933 62.2812C25.0472 62.2812 10.6611 79.0902 10.6611 99.8251C10.6611 120.56 25.0472 137.369 42.7933 137.369Z" fill="#3366CC"/>
<path d="M42.7931 131.23C57.5539 131.23 69.5199 117.248 69.5199 100.002C69.5199 82.7547 57.5539 68.7734 42.7931 68.7734C28.0324 68.7734 16.0664 82.7547 16.0664 100.002C16.0664 117.248 28.0324 131.23 42.7931 131.23Z" stroke="black" stroke-width="0.324605"/>
<path d="M59.3093 146.842L48.4985 150H37.0871L26.4264 146.842L16.3664 140L8.70871 130.702L3.003 119.474L0 106.491V93.5088L3.003 80.5263L8.70871 69.2982L16.3664 59.8246L26.4264 53.1579L37.0871 50H48.4985L59.3093 53.1579L69.2192 59.8246L77.027 69.2982L82.7327 80.5263L85.7357 93.5088V106.491L82.7327 119.474L77.027 130.702L68.9189 140L59.3093 146.842Z" stroke="black" stroke-width="0.324605"/>
<path d="M98.3479 79.4766L105.855 88.2485L94.444 101.582L86.9365 92.8099L98.3479 79.4766Z" fill="#CCCCCC"/>
<path d="M74.9248 50H85.7356V68.5965H74.9248V50Z" fill="#191919"/>
<path d="M86.9365 92.8036L94.444 101.576L105.855 88.2422" stroke="black" stroke-width="0.324605"/>
<path d="M74.9248 68.5965H85.7356V50" stroke="#7F7F7F" stroke-width="0.324605"/>
<path d="M86.9365 92.8099L98.3479 79.4766L105.855 88.2485" stroke="white" stroke-width="0.324605"/>
<path d="M74.9248 68.5965V50H85.7356" stroke="white" stroke-width="0.324605"/>
<path d="M117.868 60.8769C128.98 60.8769 137.988 50.3517 137.988 37.3681C137.988 24.3846 128.98 13.8594 117.868 13.8594C106.756 13.8594 97.748 24.3846 97.748 37.3681C97.748 50.3517 106.756 60.8769 117.868 60.8769Z" fill="#CCCCCC" stroke="black" stroke-width="0.324605"/>
<path d="M119.67 26.4881L117.868 24.3828L116.066 26.4881L117.868 28.5933L119.67 26.4881Z" fill="black"/>
<path d="M109.76 35.6172H125.976V38.7751H109.76V35.6172Z" fill="white"/>
<path d="M109.76 31.0547H125.976V34.2126H109.76V31.0547Z" fill="#7F99CC"/>
<path d="M98.9485 101.578L98.6482 104.385L98.1978 107.017L97.5972 109.473L96.9966 111.578L96.2458 113.332L95.3449 114.56L94.444 115.438L93.5431 115.789L92.6422 115.613L91.5912 114.736L90.6903 113.157L89.7894 110.876L88.8885 107.894L88.1377 104.034L87.5371 99.1218L86.9365 93.5078" stroke="black" stroke-width="0.324605"/>
<path d="M95.3454 57.3653L91.7418 49.9968L89.6396 41.5758V33.1547L91.7418 24.7337L95.3454 17.0144L100.45 11.0495L107.057 6.83895L113.964 4.38281H121.471L128.679 6.83895" stroke="#98B2E5" stroke-width="0.324605"/>
<path d="M12.7624 126.839L8.10774 117.014L5.25488 105.786V94.2072L8.10774 82.9792L12.7624 73.1546L19.6693 65.0844L28.5282 59.1195L37.6873 56.3125H47.5972L57.2068 59.1195" stroke="#98B2E5" stroke-width="0.324605"/>
</g>
<defs>
<clipPath id="clip0_2109_225177">
<rect width="150" height="150" fill="white"/>
</clipPath>
</defs>
</svg>
