<svg width="150" height="150" viewBox="0 0 150 150" fill="none" xmlns="http://www.w3.org/2000/svg">
<g clip-path="url(#clip0_2109_226473)">
<path d="M18.6746 140.539H13.2529V148.347H18.6746V140.539Z" fill="#4C4C4C"/>
<path d="M137.952 140.539H131.928V148.347H137.952V140.539Z" fill="#4C4C4C"/>
<path d="M37.3496 18.7688V7.50751L42.7713 4.05405L53.6147 1.5015L66.8677 0H82.5303L95.7833 1.5015L106.627 4.05405L112.651 7.50751V18.7688H37.3496Z" fill="#B2B2B2"/>
<path d="M42.7715 18.4685V7.50751L47.5908 3.9039L57.2293 1.5015L68.0727 0H81.3257L93.3739 1.5015L103.012 3.9039L107.832 7.50751V18.4685H42.7715Z" fill="#BDBDBD"/>
<path d="M47.5908 18.4685V7.50751L52.4101 3.9039L59.639 1.5015L69.2776 0H80.1209L89.7595 1.5015L98.1932 3.9039L101.808 7.50751V18.4685H47.5908Z" fill="#C7C7C7"/>
<path d="M53.6143 18.4685V7.50751L56.0239 3.9039L62.048 1.5015L70.4817 0H78.9155L87.3492 1.5015L93.3733 3.9039L96.9877 7.50751V18.4685H53.6143Z" fill="#D1D1D1"/>
<path d="M58.4336 18.4685V7.50751L60.8432 3.9039L65.6625 1.5015L71.6866 0H77.7107L84.9396 1.5015L88.5541 3.9039L92.1685 7.50751V18.4685H58.4336Z" fill="#DEDEDE"/>
<path d="M63.2529 18.4685V7.50751L65.6626 3.9039L68.0722 1.5015L72.8915 0H77.7108L81.3252 1.5015L84.9397 3.9039L86.1445 7.50751V18.4685H63.2529Z" fill="#E8E8E8"/>
<path d="M68.0723 18.7688V7.50751L69.2771 4.05405L71.6867 1.5015L72.8915 0H76.506L77.7108 1.5015L80.1205 4.05405L81.3253 7.50751V18.7688H68.0723Z" fill="#F2F2F2"/>
<path d="M37.3496 18.7688V7.50751L42.7713 4.05405L53.6147 1.5015L66.8677 0H82.5303L95.7833 1.5015L106.627 4.05405L112.651 7.50751V18.7688H37.3496Z" stroke="black" stroke-width="0.601504"/>
<path d="M37.3496 9.3125H112.651" stroke="black" stroke-width="0.601504"/>
<path d="M99.3976 11.1094H50V18.767H99.3976V11.1094Z" fill="#F2F2F2"/>
<path d="M50 18.767V11.1094H99.3976" stroke="white" stroke-width="0.601504"/>
<path d="M99.3975 11.1094V18.767" stroke="#4C4C4C" stroke-width="0.601504"/>
<path d="M137.952 131.383H13.2529V21.7734H137.952V131.383Z" fill="#CCCCCC"/>
<path d="M0 24.7734H13.253V149.999H0V24.7734Z" fill="#E5E5E5"/>
<path d="M0 143.547H13.253V150.003H0V143.547Z" fill="#F2F2F2"/>
<path d="M0 131.383H13.253V137.389H0V131.383Z" fill="#F2F2F2"/>
<path d="M0 118.766H13.253V125.072H0V118.766Z" fill="#F2F2F2"/>
<path d="M0 106.156H13.253V112.463H0V106.156Z" fill="#F2F2F2"/>
<path d="M0 93.8438H13.253V99.8498H0V93.8438Z" fill="#F2F2F2"/>
<path d="M0 81.2344H13.253V87.5407H0V81.2344Z" fill="#F2F2F2"/>
<path d="M0 68.6172H13.253V74.9235H0V68.6172Z" fill="#F2F2F2"/>
<path d="M0 56.3047H13.253V62.3107H0V56.3047Z" fill="#F2F2F2"/>
<path d="M0 43.6953H13.253V50.0016H0V43.6953Z" fill="#F2F2F2"/>
<path d="M0 31.0781H13.253V37.3844H0V31.0781Z" fill="#F2F2F2"/>
<path d="M137.952 131.383H13.2529V140.542H137.952V131.383Z" fill="#F2F2F2" stroke="#7F7F7F" stroke-width="0.601504"/>
<path d="M0 24.7734H13.253V149.999H0V24.7734Z" stroke="#333333" stroke-width="0.601504"/>
<path d="M137.952 24.7734H150V149.999H137.952V24.7734Z" fill="#E5E5E5"/>
<path d="M137.952 143.547H150V150.003H137.952V143.547Z" fill="#F2F2F2"/>
<path d="M137.952 131.383H150V137.389H137.952V131.383Z" fill="#F2F2F2"/>
<path d="M137.952 118.766H150V125.072H137.952V118.766Z" fill="#F2F2F2"/>
<path d="M137.952 106.156H150V112.463H137.952V106.156Z" fill="#F2F2F2"/>
<path d="M137.952 93.8438H150V99.8498H137.952V93.8438Z" fill="#F2F2F2"/>
<path d="M137.952 81.2344H150V87.5407H137.952V81.2344Z" fill="#F2F2F2"/>
<path d="M137.952 68.6172H150V74.9235H137.952V68.6172Z" fill="#F2F2F2"/>
<path d="M137.952 56.3047H150V62.3107H137.952V56.3047Z" fill="#F2F2F2"/>
<path d="M137.952 43.6953H150V50.0016H137.952V43.6953Z" fill="#F2F2F2"/>
<path d="M137.952 31.0781H150V37.3844H137.952V31.0781Z" fill="#F2F2F2"/>
<path d="M137.952 24.7734H150V149.999H137.952V24.7734Z" stroke="#333333" stroke-width="0.601504"/>
<path d="M50 21.7734H0V24.7764H50V21.7734Z" fill="#F2F2F2" stroke="#333333" stroke-width="0.601504"/>
<path d="M150 21.7734H99.3975V24.7764H150V21.7734Z" fill="#F2F2F2" stroke="#333333" stroke-width="0.601504"/>
<path d="M124.698 18.7656H25.3008V21.7686H124.698V18.7656Z" fill="#F2F2F2" stroke="#333333" stroke-width="0.601504"/>
<path d="M18.6748 126.578H30.723V129.581H18.6748V126.578Z" fill="#666666"/>
<path d="M44.5781 120.273H56.0239V123.577H44.5781V120.273Z" fill="#666666"/>
<path d="M68.0723 126.578H81.3253V129.581H68.0723V126.578Z" fill="#666666"/>
<path d="M93.373 120.273H106.626V123.577H93.373V120.273Z" fill="#666666"/>
<path d="M118.675 126.578H130.723V129.581H118.675V126.578Z" fill="#666666"/>
<path d="M18.6748 113.961H30.723V117.264H18.6748V113.961Z" fill="#666666"/>
<path d="M44.5781 107.961H56.0239V110.964H44.5781V107.961Z" fill="#666666"/>
<path d="M68.0723 113.961H81.3253V117.264H68.0723V113.961Z" fill="#666666"/>
<path d="M93.373 107.961H106.626V110.964H93.373V107.961Z" fill="#666666"/>
<path d="M118.675 113.961H130.723V117.264H118.675V113.961Z" fill="#666666"/>
<path d="M18.6748 101.648H30.723V104.651H18.6748V101.648Z" fill="#666666"/>
<path d="M44.5781 95.3438H56.0239V98.3468H44.5781V95.3438Z" fill="#666666"/>
<path d="M68.0723 101.648H81.3253V104.651H68.0723V101.648Z" fill="#666666"/>
<path d="M93.373 95.3438H106.626V98.3468H93.373V95.3438Z" fill="#666666"/>
<path d="M118.675 101.648H130.723V104.651H118.675V101.648Z" fill="#666666"/>
<path d="M18.6748 89.0391H30.723V92.0421H18.6748V89.0391Z" fill="#666666"/>
<path d="M44.5781 82.7344H56.0239V86.0377H44.5781V82.7344Z" fill="#666666"/>
<path d="M68.0723 89.0391H81.3253V92.0421H68.0723V89.0391Z" fill="#666666"/>
<path d="M93.373 82.7344H106.626V86.0377H93.373V82.7344Z" fill="#666666"/>
<path d="M118.675 89.0391H130.723V92.0421H118.675V89.0391Z" fill="#666666"/>
<path d="M18.6748 76.4297H30.723V79.733H18.6748V76.4297Z" fill="#666666"/>
<path d="M44.5781 70.4219H56.0239V73.4249H44.5781V70.4219Z" fill="#666666"/>
<path d="M68.0723 76.4297H81.3253V79.733H68.0723V76.4297Z" fill="#666666"/>
<path d="M93.373 70.4219H106.626V73.4249H93.373V70.4219Z" fill="#666666"/>
<path d="M118.675 76.4297H130.723V79.733H118.675V76.4297Z" fill="#666666"/>
<path d="M18.6748 64.1172H30.723V67.1202H18.6748V64.1172Z" fill="#666666"/>
<path d="M44.5781 57.8047H56.0239V60.8077H44.5781V57.8047Z" fill="#666666"/>
<path d="M68.0723 64.1172H81.3253V67.1202H68.0723V64.1172Z" fill="#666666"/>
<path d="M93.373 57.8047H106.626V60.8077H93.373V57.8047Z" fill="#666666"/>
<path d="M118.675 64.1172H130.723V67.1202H118.675V64.1172Z" fill="#666666"/>
<path d="M18.6748 51.5H30.723V54.503H18.6748V51.5Z" fill="#666666"/>
<path d="M44.5781 45.1953H56.0239V48.4986H44.5781V45.1953Z" fill="#666666"/>
<path d="M68.0723 51.5H81.3253V54.503H68.0723V51.5Z" fill="#666666"/>
<path d="M93.373 45.1953H106.626V48.4986H93.373V45.1953Z" fill="#666666"/>
<path d="M118.675 51.5H130.723V54.503H118.675V51.5Z" fill="#666666"/>
<path d="M18.6748 38.8906H30.723V42.1939H18.6748V38.8906Z" fill="#666666"/>
<path d="M44.5781 32.8828H56.0239V35.8858H44.5781V32.8828Z" fill="#666666"/>
<path d="M68.0723 38.8906H81.3253V42.1939H68.0723V38.8906Z" fill="#666666"/>
<path d="M93.373 32.8828H106.626V35.8858H93.373V32.8828Z" fill="#666666"/>
<path d="M118.675 38.8906H130.723V42.1939H118.675V38.8906Z" fill="#666666"/>
<path d="M18.6748 26.5781H30.723V29.5811H18.6748V26.5781Z" fill="#666666"/>
<path d="M68.0723 26.5781H81.3253V29.5811H68.0723V26.5781Z" fill="#666666"/>
<path d="M118.675 26.5781H130.723V29.5811H118.675V26.5781Z" fill="#666666"/>
</g>
<defs>
<clipPath id="clip0_2109_226473">
<rect width="150" height="150" fill="white"/>
</clipPath>
</defs>
</svg>
