<svg width="150" height="150" viewBox="0 0 150 150" fill="none" xmlns="http://www.w3.org/2000/svg">
<path d="M113.253 43.9953V36.1875H126.707V43.9953H113.253Z" fill="#7F7F00"/>
<path d="M48.3936 5.85607H101.406V1.35156H48.3936V5.85607Z" fill="#7F7F00"/>
<path d="M31.1244 22.2254H118.273L119.879 20.2734H29.7188L31.1244 22.2254Z" fill="#7F7F00"/>
<path d="M35.1404 5.85938H115.261L121.285 12.9164V20.2738H28.1123V12.9164L35.1404 5.85938Z" fill="#7F7F00"/>
<path d="M3.81543 8.40625H8.4339V24.3222H3.81543V8.40625Z" fill="#7F7F00"/>
<path d="M138.554 0.601562H133.534V16.6676H138.554V0.601562Z" fill="#7F7F00"/>
<path d="M133.534 28.5312H126.707V51.8045H133.534V28.5312Z" fill="#7F7F00"/>
<path d="M20.0801 126.578H129.719V103.305H20.0801V126.578Z" fill="#7F7F00"/>
<path d="M112.249 129.581H112.851V126.578H112.249H37.1484V132.134L42.5701 137.689H106.426L112.249 132.584V129.581Z" fill="#7F7F00"/>
<path d="M37.5504 132.133V138.739H5.42188V143.995H44.3777V137.688H42.5705L37.5504 132.133Z" fill="#7F7F00"/>
<path d="M105.422 137.686H106.426L112.249 132.581V129.578V138.737H143.976V143.993H105.422V137.686Z" fill="#7F7F00"/>
<path d="M12.8516 77.0234H19.6789V100.297H12.8516V77.0234Z" fill="#7F7F00"/>
<path d="M36.5462 84.6875V92.4953H19.6787V84.6875H36.5462Z" fill="#7F7F00"/>
<path d="M28.7147 13.9609V19.2162H8.43359V13.9609H28.7147Z" fill="#7F7F00"/>
<path d="M119.879 11.4098L115.863 6.30469H133.534V11.4098H119.879Z" fill="#7F7F00"/>
<path d="M0.802734 133.336H5.42121V149.252H0.802734V133.336Z" fill="#7F7F00"/>
<path d="M148.996 133.336H143.976V149.252H148.996V133.336Z" fill="#7F7F00"/>
<path d="M113.253 43.6899V36.6328H126.707V43.6899H113.253Z" fill="#BFBF00"/>
<path d="M133.132 29.2812H127.108V47.7497H133.132V29.2812Z" fill="#BFBF00"/>
<path d="M138.153 1.05469H134.137V13.9676H138.153V1.05469Z" fill="#BFBF00"/>
<path d="M119.879 11.1095L116.265 6.30469H133.534V11.1095H119.879Z" fill="#BFBF00"/>
<path d="M50 5.55577H75.1004V1.35156H50V5.55577Z" fill="#BFBF00"/>
<path d="M38.5544 5.85938H93.9761L95.9841 12.9164V19.9735H32.5303V12.9164L38.5544 5.85938Z" fill="#BFBF00"/>
<path d="M28.7147 13.9609V18.7657H8.43359V13.9609H28.7147Z" fill="#BFBF00"/>
<path d="M3.81543 8.85938H8.4339V21.7723H3.81543V8.85938Z" fill="#BFBF00"/>
<path d="M13.2529 77.7812H19.277V96.2497H13.2529V77.7812Z" fill="#BFBF00"/>
<path d="M36.5462 85.4375V92.1943H19.6787V85.4375H36.5462Z" fill="#BFBF00"/>
<path d="M23.0928 125.526H112.249V104.055H23.0928V125.526Z" fill="#BFBF00"/>
<path d="M39.96 126.273H93.976L91.5664 137.385H45.3816L39.96 131.379V126.273Z" fill="#BFBF00"/>
<path d="M50.4014 140.691H99.3974V137.688H50.4014V140.691Z" fill="#BFBF00"/>
<path d="M148.594 133.633H144.578V146.546H148.594V133.633Z" fill="#BFBF00"/>
<path d="M105.823 137.688H106.426L111.847 132.883V138.739H143.976V143.543H105.823V137.688Z" fill="#BFBF00"/>
<path d="M37.5502 132.586L42.5702 137.691H43.9759V143.547H5.82324V138.742H37.5502V132.586Z" fill="#BFBF00"/>
<path d="M1.40527 133.633H5.42134V146.546H1.40527V133.633Z" fill="#BFBF00"/>
<path d="M36.5459 22.2188H113.253V103.3H36.5459V22.2188Z" fill="#7F7F7F"/>
<path d="M39.96 22.2188H98.9961V103.3H39.96V22.2188Z" fill="#B2B2B2"/>
<path d="M70.2812 54.0547H87.5503V63.9646H70.2812V54.0547Z" stroke="black" stroke-width="0.347279"/>
<path d="M43.5742 22.2188H61.2449V103.3H43.5742V22.2188Z" fill="#F0F0F0"/>
<path d="M70.6826 54.3516H88.1525V64.4116H70.6826V54.3516Z" fill="#F0F0F0"/>
<path d="M37.5498 129.581H43.9755V126.578H37.5498V129.581Z" fill="#7F7F00"/>
<path d="M23.6953 129.581H30.121V126.578H23.6953V129.581Z" fill="#7F7F00"/>
<path d="M51.4053 129.581H57.831V126.578H51.4053V129.581Z" fill="#7F7F00"/>
<path d="M64.8594 129.581H71.2851V126.578H64.8594V129.581Z" fill="#7F7F00"/>
<path d="M78.7148 129.581H85.1405V126.578H78.7148V129.581Z" fill="#7F7F00"/>
<path d="M120.281 129.581H126.707V126.578H120.281V129.581Z" fill="#7F7F00"/>
<path d="M120.281 103.3H126.707V100.297H120.281V103.3Z" fill="#7F7F00"/>
<path d="M106.426 103.3H112.851V100.297H106.426V103.3Z" fill="#7F7F00"/>
<path d="M92.5703 103.3H98.996V100.297H92.5703V103.3Z" fill="#7F7F00"/>
<path d="M78.7148 103.3H85.1405V100.297H78.7148V103.3Z" fill="#7F7F00"/>
<path d="M64.8594 103.3H71.2851V100.297H64.8594V103.3Z" fill="#7F7F00"/>
<path d="M51.4053 103.3H57.831V100.297H51.4053V103.3Z" fill="#7F7F00"/>
<path d="M37.5498 103.3H43.9755V100.297H37.5498V103.3Z" fill="#7F7F00"/>
<path d="M23.6953 103.3H30.121V100.297H23.6953V103.3Z" fill="#7F7F00"/>
<path d="M25.1006 129.576H27.711V127.023H25.1006V129.576Z" fill="#BFBF00"/>
<path d="M39.1562 129.576H41.5659V127.023H39.1562V129.576Z" fill="#BFBF00"/>
<path d="M52.8115 129.576H55.422V127.023H52.8115V129.576Z" fill="#BFBF00"/>
<path d="M66.8672 129.576H68.6744V127.023H66.8672V129.576Z" fill="#BFBF00"/>
<path d="M80.5225 129.576H82.5305V127.023H80.5225V129.576Z" fill="#BFBF00"/>
<path d="M93.9756 129.576H96.3852V127.023H93.9756V129.576Z" fill="#BFBF00"/>
<path d="M107.831 129.576H110.241V127.023H107.831V129.576Z" fill="#BFBF00"/>
<path d="M121.687 129.576H124.297V127.023H121.687V129.576Z" fill="#BFBF00"/>
<path d="M121.687 102.849H124.297V100.297H121.687V102.849Z" fill="#BFBF00"/>
<path d="M107.831 102.849H110.241V100.297H107.831V102.849Z" fill="#BFBF00"/>
<path d="M93.9756 102.849H96.3852V100.297H93.9756V102.849Z" fill="#BFBF00"/>
<path d="M80.5225 102.849H82.5305V100.297H80.5225V102.849Z" fill="#BFBF00"/>
<path d="M66.8672 102.849H68.6744V100.297H66.8672V102.849Z" fill="#BFBF00"/>
<path d="M52.8115 102.849H55.422V100.297H52.8115V102.849Z" fill="#BFBF00"/>
<path d="M39.1562 102.849H41.5659V100.297H39.1562V102.849Z" fill="#BFBF00"/>
<path d="M25.1006 102.849H27.711V100.297H25.1006V102.849Z" fill="#BFBF00"/>
<path d="M111.848 132.883L110.844 134.084V139.94H143.976V139.189H111.848V132.883Z" fill="#FFFF7F"/>
<path d="M39.1566 134.084L38.1526 132.883V139.189H5.82324V139.94H39.1566V134.084Z" fill="#FFFF7F"/>
<path d="M148.594 134.086H144.578V135.437H148.594V134.086Z" fill="#FFFF7F"/>
<path d="M1.40527 134.086H5.42134V135.437H1.40527V134.086Z" fill="#FFFF7F"/>
<path d="M29.7188 125.526H42.5702V104.055H29.7188V125.526Z" fill="#FFFF7F"/>
<path d="M13.2529 78.0781H19.277V79.8799H13.2529V78.0781Z" fill="#FFFF7F"/>
<path d="M36.5462 85.8828V86.6336H19.6787V85.8828H36.5462Z" fill="#FFFF7F"/>
<path d="M133.132 29.5781H127.108V31.3799H133.132V29.5781Z" fill="#FFFF7F"/>
<path d="M113.253 38.1387V36.9375H126.707V38.1387H113.253Z" fill="#FFFF7F"/>
<path d="M51.8076 5.55577H56.4261V1.35156H51.8076V5.55577Z" fill="#FFFF7F"/>
<path d="M40.9639 5.85938H58.8354L57.4298 19.9735H35.1406V12.9164L40.9639 5.85938Z" fill="#FFFF7F"/>
<path d="M138.153 1.35156H134.137V2.85306H138.153V1.35156Z" fill="#FFFF7F"/>
<path d="M116.867 7.36013L116.265 6.60938H133.534V7.36013H116.867Z" fill="#FFFF7F"/>
<path d="M3.81543 9.15625H8.4339V10.6578H3.81543V9.15625Z" fill="#FFFF7F"/>
<path d="M28.7147 14.4141V15.1648H8.43359V14.4141H28.7147Z" fill="#FFFF7F"/>
</svg>
