<svg width="150" height="150" viewBox="0 0 150 150" fill="none" xmlns="http://www.w3.org/2000/svg">
<g clip-path="url(#clip0_2109_226100)">
<path d="M121.321 82.7109H125.976V96.7787H121.321V82.7109Z" fill="#7F7F7F"/>
<path d="M121.321 85.4219H125.976V94.2354H121.321V85.4219Z" fill="#B2B2B2"/>
<path d="M121.321 88.8125H125.976V90.6769H121.321V88.8125Z" fill="#E5E5E5"/>
<path d="M136.787 53.0495H139.94V49.6597H146.847V44.4055H139.94V41.0156H136.787V53.0495Z" fill="#596D8C"/>
<path d="M138.438 30.5078V39.1519H141.441V44.4061H146.096V39.1519H149.249V30.5078H138.438Z" fill="#596D8C"/>
<path d="M138.438 0.679688V9.49325H141.441V14.7475H146.096V9.49325H149.249V0.679688H138.438Z" fill="#596D8C"/>
<path d="M136.787 23.3909H139.94V20.0011H146.847V14.7468H139.94V11.1875H136.787V23.3909Z" fill="#596D8C"/>
<path d="M140.69 0.679688V9.49325H142.492V14.7475H145.195V9.49325H146.847V0.679688H140.69Z" fill="#A6BAD9"/>
<path d="M136.787 20.8476H139.94V18.8137H146.847V15.7628H139.94V13.8984H136.787V20.8476Z" fill="#A6BAD9"/>
<path d="M140.69 30.5078V39.1519H142.492V44.4061H145.195V39.1519H146.847V30.5078H140.69Z" fill="#A6BAD9"/>
<path d="M136.787 50.5117H139.94V48.4778H146.847V45.5964H139.94V43.5625H136.787V50.5117Z" fill="#A6BAD9"/>
<path d="M146.096 61.8672V64.5791H74.9248V61.8672H146.096Z" fill="#7F7F7F"/>
<path d="M141.441 64.5781H144.595V140.51H141.441V64.5781Z" fill="#7F7F7F"/>
<path d="M129.88 64.5781H132.883V140.51H129.88V64.5781Z" fill="#7F7F7F"/>
<path d="M106.606 64.5781H109.76V140.51H106.606V64.5781Z" fill="#7F7F7F"/>
<path d="M74.9248 143.048V140.336H146.096V143.048H74.9248Z" fill="#7F7F7F"/>
<path d="M118.168 130V130.847H138.288V130H118.168Z" fill="black"/>
<path d="M116.667 128.133L118.168 129.997H138.288L139.94 128.133V115.929L138.288 114.234H118.168L116.667 115.929V121.184H115.165V123.048H116.667V128.133Z" fill="#4C4C4C"/>
<path d="M116.667 126.098L118.168 127.284H138.288L139.94 126.098V117.962L138.288 116.945H118.168L116.667 117.962V121.522H115.165V122.708H116.667V126.098Z" fill="#7F7F7F"/>
<path d="M116.667 124.068L118.168 124.746H138.288L139.94 124.068V120.001L138.288 119.492H118.168L116.667 120.001V121.865H115.165V122.374H116.667V124.068Z" fill="#B2B2B2"/>
<path d="M121.321 114.234V122.2H132.132V114.234H121.321Z" fill="black"/>
<path d="M116.667 130.844V135.251H139.94V130.844H116.667Z" fill="#7387A6" stroke="black" stroke-width="0.319056"/>
<path d="M99.6992 135.251V114.234H115.165V135.251H99.6992Z" fill="#7387A6" stroke="black" stroke-width="0.319056"/>
<path d="M78.0781 142.207V135.258H139.94V142.207H78.0781Z" fill="#7387A6" stroke="black" stroke-width="0.319056"/>
<path d="M74.9248 100.337V79.3203H121.321V100.337H74.9248Z" fill="#7F7F7F"/>
<path d="M74.9248 99.1495V80.3359H121.321V99.1495H74.9248Z" fill="#8F8F8F"/>
<path d="M74.9248 97.1153V82.5391H121.321V97.1153H74.9248Z" fill="#ABABAB"/>
<path d="M74.9248 94.9117V84.7422H121.321V94.9117H74.9248Z" fill="#C7C7C7"/>
<path d="M74.9248 92.7135V86.7812H121.321V92.7135H74.9248Z" fill="#E3E3E3"/>
<path d="M74.9248 90.6793V88.9844H121.321V90.6793H74.9248Z" fill="white"/>
<path d="M74.9248 100.337V79.3203H121.321V100.337H74.9248Z" stroke="black" stroke-width="0.319056"/>
<path d="M80.3301 102.878V100.336H83.4832V102.878H80.3301Z" fill="black"/>
<path d="M98.9492 102.883V98.4766H101.952V102.883H98.9492Z" fill="black"/>
<path d="M78.0781 106.442V102.883H118.168V106.442H78.0781Z" fill="black"/>
<path d="M88.8887 114.234V106.438H91.8917V114.234H88.8887Z" fill="black"/>
<path d="M74.9248 112.543V107.289H139.189V112.543H74.9248Z" fill="#405473" stroke="black" stroke-width="0.319056"/>
<path d="M13.0635 54.9159V9.49219H136.787V54.9159H13.0635Z" fill="#7F7F7F"/>
<path d="M13.0635 52.3733V11.6953H136.787V52.3733H13.0635Z" fill="#8F8F8F"/>
<path d="M13.0635 50.172V14.0703H136.787V50.172H13.0635Z" fill="#9C9C9C"/>
<path d="M13.0635 47.7934V16.4375H136.787V47.7934H13.0635Z" fill="#ABABAB"/>
<path d="M13.0635 45.4227V18.8125H136.787V45.4227H13.0635Z" fill="#B8B8B8"/>
<path d="M13.0635 43.219V21.0156H136.787V43.219H13.0635Z" fill="#C7C7C7"/>
<path d="M13.0635 40.8483V23.3906H136.787V40.8483H13.0635Z" fill="#D4D4D4"/>
<path d="M13.0635 38.4775V25.7656H136.787V38.4775H13.0635Z" fill="#E3E3E3"/>
<path d="M13.0635 36.1043V27.9688H136.787V36.1043H13.0635Z" fill="#F0F0F0"/>
<path d="M13.0635 33.8976V30.5078H136.787V33.8976H13.0635Z" fill="white"/>
<path d="M13.0635 54.9159V9.49219H136.787V54.9159H13.0635Z" stroke="black" stroke-width="0.319056"/>
<path d="M22.3721 56.6104H28.5282V61.8647H33.1829V56.6104H60.9607V61.8647H65.6153V56.6104H74.9246V53.0511H65.6153V47.7969H60.9607V53.0511H33.1829V47.7969H28.5282V53.0511H22.3721V56.6104Z" fill="#596D8C"/>
<path d="M22.3721 56.2742H28.5282V60.1725H33.1829V56.2742H60.9607V60.1725H65.6153V56.2742H74.9246V53.5624H65.6153V49.6641H60.9607V53.5624H33.1829V49.6641H28.5282V53.5624H22.3721V56.2742Z" fill="#7387A6"/>
<path d="M48.6483 57.2879C63.1603 57.2879 74.9246 56.1496 74.9246 54.7455C74.9246 53.3414 63.1603 52.2031 48.6483 52.2031C34.1364 52.2031 22.3721 53.3414 22.3721 54.7455C22.3721 56.1496 34.1364 57.2879 48.6483 57.2879Z" fill="#A6BAD9"/>
<path d="M22.3721 56.6104H28.5282V61.8647H33.1829V56.6104H60.9607V61.8647H65.6153V56.6104H74.9246V53.0511H65.6153V47.7969H60.9607V53.0511H33.1829V47.7969H28.5282V53.0511H22.3721V56.6104Z" stroke="black" stroke-width="0.319056"/>
<path d="M0.600586 149.155V58.3076L3.75374 54.0703H8.40839L12.3123 58.3076H71.9219V54.9178H149.249V142.206H146.096V61.8669H136.787V142.206H133.784V61.8669H112.012V142.206H109.009V61.8669H74.9249V142.206H149.249V149.155H0.600586Z" fill="#F7F7F7"/>
<path d="M0.600586 58.3076L3.75374 54.0703H8.40839L12.3123 58.3076H71.9219V54.9178H149.249V149.155H0.600586V58.3076Z" stroke="black" stroke-width="0.319056"/>
<path d="M74.9248 142.206V61.8672H109.009V142.206H74.9248Z" stroke="black" stroke-width="0.319056"/>
<path d="M112.012 142.206V61.8672H133.783V142.206H112.012Z" stroke="black" stroke-width="0.319056"/>
<path d="M136.787 142.206V61.8672H146.096V142.206H136.787Z" stroke="black" stroke-width="0.319056"/>
<path d="M71.9219 149.152V58.3047" stroke="black" stroke-width="0.319056"/>
<path d="M5.25488 67.1172H34.6843V140.507H5.25488V67.1172Z" fill="#F2F2F2"/>
<path d="M3.75391 142.202H68.7689V65.4219H3.75391V142.202Z" stroke="black" stroke-width="0.319056"/>
<path d="M37.8379 67.1172H67.2673V140.507H37.8379V67.1172Z" fill="#F2F2F2"/>
<path d="M37.988 140.505H67.1172L67.2673 106.438L37.8379 113.217L37.988 140.505Z" fill="#EBEBEB"/>
<path d="M5.55518 140.506H34.5342L34.8345 114.234L5.25488 121.184L5.55518 140.506Z" fill="#EBEBEB"/>
<path d="M37.988 140.51H67.1172L67.2673 108.984L37.8379 115.934L37.988 140.51Z" fill="#E0E0E0"/>
<path d="M5.55518 140.507H34.5342L34.8345 117.117L5.25488 124.066L5.55518 140.507Z" fill="#E0E0E0"/>
<path d="M37.8379 140.51H67.2673V115.086L37.8379 122.035V140.51Z" fill="#D9D9D9"/>
<path d="M5.25488 140.505H34.8345V122.539L5.25488 129.488V140.505Z" fill="#D9D9D9"/>
<path d="M5.25488 140.507L6.90653 142.202H68.7684V68.8121L67.2669 67.1172V140.507H36.336V68.8121L34.6843 67.1172V140.507H5.25488Z" fill="#D9D9D9"/>
<path d="M37.8379 140.338H67.2673V67.1172H37.8379V140.338Z" stroke="#7F7F7F" stroke-width="0.319056"/>
<path d="M5.25488 140.338H34.6843V67.1172H5.25488V140.338Z" stroke="#7F7F7F" stroke-width="0.319056"/>
<path d="M31.6817 102.032V107.286H30.03V102.032L29.2793 101.185V99.3203H32.4325V101.185L31.6817 102.032Z" fill="#4C4C4C"/>
<path d="M42.3421 102.032V107.286H40.8406V102.032L40.0898 101.185V99.3203H43.243V101.185L42.3421 102.032Z" fill="#4C4C4C"/>
<path d="M51.6514 91.5281V87.9688H54.8045V91.5281H51.6514Z" fill="#4C4C4C"/>
<path d="M48.6484 75.9343V72.375H50.1499V75.9343H48.6484Z" fill="#4C4C4C"/>
<path d="M45.4951 75.9343V72.375H46.9966V75.9343H45.4951Z" fill="#4C4C4C"/>
<path d="M45.4951 81.1843V77.625H46.9966V81.1843H45.4951Z" fill="#4C4C4C"/>
<path d="M48.6484 81.1843V77.625H50.1499V81.1843H48.6484Z" fill="#4C4C4C"/>
<path d="M51.8018 81.1843V77.625H53.3033V81.1843H51.8018Z" fill="#4C4C4C"/>
<path d="M54.8047 81.1843V77.625H56.3062V81.1843H54.8047Z" fill="#4C4C4C"/>
<path d="M57.958 81.1843V77.625H59.4595V81.1843H57.958Z" fill="#4C4C4C"/>
<path d="M60.9609 81.1843V77.625H62.6126V81.1843H60.9609Z" fill="#4C4C4C"/>
<path d="M57.958 86.4421V82.8828H59.4595V86.4421H57.958Z" fill="#4C4C4C"/>
<path d="M60.9609 86.4421V82.8828H62.6126V86.4421H60.9609Z" fill="#4C4C4C"/>
<path d="M57.958 91.5281V87.9688H59.4595V91.5281H57.958Z" fill="#4C4C4C"/>
<path d="M60.9609 91.5281V87.9688H62.6126V91.5281H60.9609Z" fill="#4C4C4C"/>
<path d="M81.832 57.4609H87.2374V59.3253H81.832V57.4609Z" fill="#4C4C4C"/>
<path d="M4.50488 56.609L4.95533 55.4225L6.00638 54.9141L7.20759 55.4225L7.65804 56.609L7.20759 57.7954L6.00638 58.3039L4.95533 57.7954L4.50488 56.609Z" stroke="black" stroke-width="0.319056"/>
<path d="M6.90723 68.8125H16.2165" stroke="#7F7F7F" stroke-width="0.319056"/>
<path d="M6.90723 70.6797H16.2165" stroke="#7F7F7F" stroke-width="0.319056"/>
<path d="M6.90723 72.375H16.2165" stroke="#7F7F7F" stroke-width="0.319056"/>
<path d="M6.90723 74.0703H16.2165" stroke="#7F7F7F" stroke-width="0.319056"/>
<path d="M6.90723 75.7656H16.2165" stroke="#7F7F7F" stroke-width="0.319056"/>
<path d="M6.90723 77.625H16.2165" stroke="#7F7F7F" stroke-width="0.319056"/>
<path d="M6.90723 79.3203H16.2165" stroke="#7F7F7F" stroke-width="0.319056"/>
<path d="M6.90723 69.6641H16.2165" stroke="#7F7F7F" stroke-width="0.319056"/>
<path d="M6.90723 71.3594H16.2165" stroke="#7F7F7F" stroke-width="0.319056"/>
<path d="M6.90723 73.0547H16.2165" stroke="#7F7F7F" stroke-width="0.319056"/>
<path d="M6.90723 74.9141H16.2165" stroke="#7F7F7F" stroke-width="0.319056"/>
<path d="M6.90723 76.6094H16.2165" stroke="#7F7F7F" stroke-width="0.319056"/>
<path d="M6.90723 78.3047H16.2165" stroke="#7F7F7F" stroke-width="0.319056"/>
<path d="M6.90723 80.1719H16.2165" stroke="#7F7F7F" stroke-width="0.319056"/>
<path d="M56.3066 127.461H65.6159" stroke="#7F7F7F" stroke-width="0.319056"/>
<path d="M56.3066 129.156H65.6159" stroke="#7F7F7F" stroke-width="0.319056"/>
<path d="M56.3066 130.844H65.6159" stroke="#7F7F7F" stroke-width="0.319056"/>
<path d="M56.3066 132.711H65.6159" stroke="#7F7F7F" stroke-width="0.319056"/>
<path d="M56.3066 134.406H65.6159" stroke="#7F7F7F" stroke-width="0.319056"/>
<path d="M56.3066 136.102H65.6159" stroke="#7F7F7F" stroke-width="0.319056"/>
<path d="M56.3066 137.969H65.6159" stroke="#7F7F7F" stroke-width="0.319056"/>
<path d="M56.3066 128.133H65.6159" stroke="#7F7F7F" stroke-width="0.319056"/>
<path d="M56.3066 130H65.6159" stroke="#7F7F7F" stroke-width="0.319056"/>
<path d="M56.3066 131.695H65.6159" stroke="#7F7F7F" stroke-width="0.319056"/>
<path d="M56.3066 133.391H65.6159" stroke="#7F7F7F" stroke-width="0.319056"/>
<path d="M56.3066 135.086H65.6159" stroke="#7F7F7F" stroke-width="0.319056"/>
<path d="M56.3066 136.945H65.6159" stroke="#7F7F7F" stroke-width="0.319056"/>
<path d="M56.3066 138.641H65.6159" stroke="#7F7F7F" stroke-width="0.319056"/>
<path d="M95.045 135.256H85.7357V128.137H84.2342V131.697H81.0811V110.68H84.2342V114.239H96.5465V110.68H99.6997V131.697H96.5465V128.137H95.045V135.256Z" fill="#E5A565"/>
<path d="M84.2342 125.929V128.133H81.0811V114.234H84.2342V116.607H96.5465V114.234H99.6997V128.133H96.5465V125.929H84.2342Z" fill="#FFBF7F"/>
<path d="M84.2342 123.56V124.746H81.0811V117.797H84.2342V118.814H96.5465V117.797H99.6997V124.746H96.5465V123.56H84.2342Z" fill="#FFD9B2"/>
<path d="M95.045 135.256H85.7357V128.137H84.2342V131.697H81.0811V110.68H84.2342V114.239H96.5465V110.68H99.6997V131.697H96.5465V128.137H95.045V135.256Z" stroke="black" stroke-width="0.319056"/>
<path d="M96.5469 128.133V114.234" stroke="black" stroke-width="0.319056"/>
<path d="M84.2344 114.234V128.133" stroke="black" stroke-width="0.319056"/>
<path d="M27.0267 93.2234H22.3721V89.6641H27.0267V93.2234Z" fill="black"/>
<path d="M45.4951 81.0152V79.3203H46.9966V81.0152H45.4951Z" fill="#990000"/>
<path d="M45.4951 75.7652V74.0703H46.9966V75.7652H45.4951Z" fill="#009900"/>
<path d="M78.0781 131.697V110.68H81.0811V131.697H78.0781Z" fill="black"/>
<path d="M125.976 100.342V79.3249H130.63V75.7656H132.132V103.732H130.63V100.342H125.976Z" fill="#E5E5E5"/>
<path d="M125.976 96.4394V83.219H130.63V81.0156H132.132V98.4733H130.63V96.4394H125.976Z" fill="#F2F2F2"/>
<path d="M125.976 91.6935V87.7952H130.63V87.1172H132.132V92.3714H130.63V91.6935H125.976Z" fill="white"/>
<path d="M125.976 100.342V79.3249H130.63V75.7656H132.132V103.732H130.63V100.342H125.976Z" stroke="black" stroke-width="0.319056"/>
<path d="M136.787 53.0495H139.94V49.6597H146.847V44.4055H139.94V41.0156H136.787V53.0495Z" stroke="black" stroke-width="0.319056"/>
<path d="M138.438 30.5078V39.1519H141.441V44.4061H146.096V39.1519H149.249V30.5078H138.438Z" stroke="black" stroke-width="0.319056"/>
<path d="M136.787 23.3909H139.94V20.0011H146.847V14.7468H139.94V11.1875H136.787V23.3909Z" stroke="black" stroke-width="0.319056"/>
<path d="M138.438 0.679688V9.49325H141.441V14.7475H146.096V9.49325H149.249V0.679688H138.438Z" stroke="black" stroke-width="0.319056"/>
<path d="M16.2158 58.3022H19.9696V4.23438H16.2158V58.3022Z" fill="#E5E5E5" stroke="black" stroke-width="0.319056"/>
<path d="M16.9668 5.92969H19.219V56.6077H16.9668V5.92969Z" fill="black"/>
<path d="M17.7178 55.7643V6.78125" stroke="#FF0000" stroke-width="0.319056"/>
<path d="M30.0303 32.2042L32.2825 25.933L37.8381 23.3906L43.2435 25.933L45.4957 32.2042L43.2435 38.3059L37.8381 40.8483L32.2825 38.3059L30.0303 32.2042Z" fill="#CCCCCC" stroke="black" stroke-width="0.319056"/>
<path d="M78.8291 10.6755L80.0303 7.28562L83.0333 5.92969L86.0363 7.28562L87.2375 10.6755L86.0363 14.2348L83.0333 15.5907L80.0303 14.2348L78.8291 10.6755Z" fill="#999999" stroke="black" stroke-width="0.319056"/>
<path d="M90.3906 10.6755L91.5918 7.28562L94.5948 5.92969L97.5978 7.28562L98.9492 10.6755L97.5978 14.2348L94.5948 15.5907L91.5918 14.2348L90.3906 10.6755Z" fill="#999999" stroke="black" stroke-width="0.319056"/>
<path d="M101.952 10.6755L103.303 7.28562L106.307 5.92969L109.31 7.28562L110.511 10.6755L109.31 14.2348L106.307 15.5907L103.303 14.2348L101.952 10.6755Z" fill="#999999" stroke="black" stroke-width="0.319056"/>
<path d="M113.514 10.6755L114.865 7.28562L117.868 5.92969L120.871 7.28562L122.072 10.6755L120.871 14.2348L117.868 15.5907L114.865 14.2348L113.514 10.6755Z" fill="#999999" stroke="black" stroke-width="0.319056"/>
</g>
<defs>
<clipPath id="clip0_2109_226100">
<rect width="150" height="150" fill="white"/>
</clipPath>
</defs>
</svg>
