<svg width="150" height="150" viewBox="0 0 150 150" fill="none" xmlns="http://www.w3.org/2000/svg">
<g clip-path="url(#clip0_2109_216466)">
<path d="M137.537 6.58996L150 0V143.41L137.537 150V6.58996Z" fill="#CCCCC2"/>
<path d="M137.538 6.58996L150 0H12.6126L0 6.58996H137.538Z" fill="#F2F2EF" stroke="black" stroke-width="0.30698"/>
<path d="M137.537 81.5879L150 45.5V143.408L137.537 149.998V81.5879Z" fill="#BFBFB2"/>
<path d="M137.537 6.58996L150 0V143.41L137.537 150V6.58996Z" stroke="black" stroke-width="0.30698"/>
<path d="M0 6.59375H137.538V150.004H0V6.59375Z" fill="#A6A694"/>
<path d="M0 6.59375H137.538V117.525L0 130.391V6.59375Z" fill="#B2B2A3"/>
<path d="M0 6.59375H137.538V94.6168L0 107.483V6.59375Z" fill="#BFBFB2"/>
<path d="M0 6.59375H137.538V87.8699L0 100.893V6.59375Z" fill="#CCCCC2"/>
<path d="M0 6.59375H137.538V78.2988L0 91.3218V6.59375Z" fill="#D9D9D1"/>
<path d="M0 6.59375H137.538V55.3908L0 68.2569V6.59375Z" fill="#E5E5E0"/>
<path d="M0 6.59375H137.538V29.1879L0 42.5247V6.59375Z" fill="#F2F2EF"/>
<path d="M0 6.59375H137.538V150.004H0V6.59375Z" stroke="black" stroke-width="0.30698"/>
<path d="M7.05715 18.5157L6.15625 16.1622L7.05715 13.8086L9.3094 12.8672L11.5617 13.8086L12.4626 16.1622L11.5617 18.5157L9.3094 19.4571L7.05715 18.5157Z" fill="#D9D9D1" stroke="#999985" stroke-width="0.30698"/>
<path d="M125.826 18.5157L124.925 16.1622L125.826 13.8086L128.078 12.8672L130.33 13.8086L131.231 16.1622L130.33 18.5157L128.078 19.4571L125.826 18.5157Z" fill="#D9D9D1" stroke="#999985" stroke-width="0.30698"/>
<path d="M7.05715 142.625L6.15625 140.272L7.05715 137.918L9.3094 136.977L11.5617 137.918L12.4626 140.272L11.5617 142.625L9.3094 143.567L7.05715 142.625Z" fill="#D9D9D1" stroke="#999985" stroke-width="0.30698"/>
<path d="M125.826 142.625L124.925 140.272L125.826 137.918L128.078 136.977L130.33 137.918L131.231 140.272L130.33 142.625L128.078 143.567L125.826 142.625Z" fill="#D9D9D1" stroke="#999985" stroke-width="0.30698"/>
<path d="M3.75391 4.71094H141.291V147.65" stroke="#7F7F68" stroke-width="0.30698"/>
</g>
<defs>
<clipPath id="clip0_2109_216466">
<rect width="150" height="150" fill="white"/>
</clipPath>
</defs>
</svg>
