<svg width="150" height="150" viewBox="0 0 150 150" fill="none" xmlns="http://www.w3.org/2000/svg">
<g clip-path="url(#clip0_2109_216315)">
<path d="M0 3.90625H141.424V145.948H0V3.90625Z" fill="#CCCCCC"/>
<path d="M0 90.8428L70.4596 51.2031V145.948H0V90.8428Z" fill="#C7C7C7"/>
<path d="M0 94.7412L70.4596 55.1016V145.942H0V94.7412Z" fill="#C2C2C2"/>
<path d="M0 100.749L70.4596 61.1094V145.944H0V100.749Z" fill="#BDBDBD"/>
<path d="M70.46 90.8428L141.424 51.2031V145.948H70.46V90.8428Z" fill="#C7C7C7"/>
<path d="M70.46 94.7412L141.424 55.1016V145.942H70.46V94.7412Z" fill="#C2C2C2"/>
<path d="M70.46 100.749L141.424 61.1094V145.944H70.46V100.749Z" fill="#BDBDBD"/>
<path d="M70.46 3.90625V145.948" stroke="#7F7F7F" stroke-width="0.317802"/>
<path d="M71.8047 3.90625V145.948" stroke="#E5E5E5" stroke-width="0.317802"/>
<path d="M12.9482 19.6719H57.3429V51.2034H12.9482V19.6719Z" fill="#333333"/>
<path d="M17.3203 23.5703H52.9705V47.294H17.3203V23.5703Z" fill="#99CC99"/>
<path d="M17.3203 23.5703H52.9705L21.6925 27.4742L17.3203 47.294V23.5703Z" fill="#669966"/>
<path d="M52.9705 23.5703V46.9937H17.3203" stroke="white" stroke-width="0.317802"/>
<path d="M52.9705 23.5703H17.3203V46.9937" stroke="#336633" stroke-width="0.317802"/>
<path d="M30.7734 71.0234H39.5178V78.8312H30.7734V71.0234Z" fill="#666666" stroke="black" stroke-width="0.317802"/>
<path d="M114.854 15.4688H137.052V27.4808H114.854V15.4688Z" fill="#E5E5E5"/>
<path d="M0 149.999H141.424V145.945H0V149.999Z" fill="#B2B2B2"/>
<path d="M0 3.90625H141.424V150.002H0V3.90625Z" stroke="black" stroke-width="0.317802"/>
<path d="M85.2578 41.2891H90.3027V45.7936H85.2578V41.2891Z" fill="#003300"/>
<path d="M97.3652 41.2891H102.41V45.7936H97.3652V41.2891Z" fill="#00FF00"/>
<path d="M109.473 41.2891H114.517V45.7936H109.473V41.2891Z" fill="#003300"/>
<path d="M121.581 41.2891H126.626V45.7936H121.581V41.2891Z" fill="#003300"/>
<path d="M85.2578 50.6016H90.3027V55.1061H85.2578V50.6016Z" fill="#FF0000"/>
<path d="M97.3652 50.6016H102.41V55.1061H97.3652V50.6016Z" fill="#7F0000"/>
<path d="M109.473 50.6016H114.517V55.1061H109.473V50.6016Z" fill="#FF0000"/>
<path d="M121.581 50.6016H126.626V55.1061H121.581V50.6016Z" fill="#FF0000"/>
<path d="M126.626 74.922H121.581V70.1172H126.626V74.922Z" fill="#003300"/>
<path d="M114.517 74.922H109.473V70.1172H114.517V74.922Z" fill="#00FF00"/>
<path d="M102.41 74.922H97.3652V70.1172H102.41V74.922Z" fill="#003300"/>
<path d="M90.639 74.922H85.2578V70.1172H90.639V74.922Z" fill="#003300"/>
<path d="M126.626 65.6139H121.581V61.1094H126.626V65.6139Z" fill="#FF0000"/>
<path d="M114.517 65.6139H109.473V61.1094H114.517V65.6139Z" fill="#7F0000"/>
<path d="M102.41 65.6139H97.3652V61.1094H102.41V65.6139Z" fill="#FF0000"/>
<path d="M90.639 65.6139H85.2578V61.1094H90.639V65.6139Z" fill="#FF0000"/>
<path d="M81.5586 78.8321V37.3906H130.325" stroke="white" stroke-width="0.317802"/>
<path d="M81.5586 78.8321H130.325V37.3906" stroke="#999999" stroke-width="0.317802"/>
<path d="M141.424 150L150 145.946V0L141.424 3.9039V150Z" fill="#999999" stroke="black" stroke-width="0.317802"/>
<path d="M0 145.949H141.424L150 142.195" stroke="black" stroke-width="0.317802"/>
<path d="M0 3.9039L8.57623 0H150L141.424 3.9039H0Z" fill="#E5E5E5" stroke="black" stroke-width="0.317802"/>
</g>
<defs>
<clipPath id="clip0_2109_216315">
<rect width="150" height="150" fill="white"/>
</clipPath>
</defs>
</svg>
