<svg width="150" height="150" viewBox="0 0 150 150" fill="none" xmlns="http://www.w3.org/2000/svg">
<g clip-path="url(#clip0_2109_216094)">
<path d="M0 0H150V150H0V0Z" fill="#999999" stroke="black" stroke-width="0.329259"/>
<path d="M3.79102 146.7V3.15625H146.21" stroke="white" stroke-width="0.329259"/>
<path d="M146.21 3.15625V146.7H3.79102" stroke="black" stroke-width="0.329259"/>
<path d="M43.502 28.5272C48.3868 28.5272 52.3468 25.2332 52.3468 21.1699C52.3468 17.1065 48.3868 13.8125 43.502 13.8125C38.6172 13.8125 34.6572 17.1065 34.6572 21.1699C34.6572 25.2332 38.6172 28.5272 43.502 28.5272Z" fill="#4C4C4C" stroke="black" stroke-width="0.329259"/>
<path d="M43.5021 27.6282C47.6891 27.6282 51.0834 24.8048 51.0834 21.3219C51.0834 17.8391 47.6891 15.0156 43.5021 15.0156C39.3151 15.0156 35.9209 17.8391 35.9209 21.3219C35.9209 24.8048 39.3151 27.6282 43.5021 27.6282Z" fill="#191919" stroke="black" stroke-width="0.329259"/>
<path d="M34.6572 9.00781H52.5273V13.8126H34.6572V9.00781Z" fill="#666666"/>
<path d="M43.502 51.3475C48.3868 51.3475 52.3468 48.0535 52.3468 43.9902C52.3468 39.9268 48.3868 36.6328 43.502 36.6328C38.6172 36.6328 34.6572 39.9268 34.6572 43.9902C34.6572 48.0535 38.6172 51.3475 43.502 51.3475Z" fill="#4C4C4C" stroke="black" stroke-width="0.329259"/>
<path d="M43.5021 50.4476C47.6891 50.4476 51.0834 47.4897 51.0834 43.841C51.0834 40.1923 47.6891 37.2344 43.5021 37.2344C39.3151 37.2344 35.9209 40.1923 35.9209 43.841C35.9209 47.4897 39.3151 50.4476 43.5021 50.4476Z" fill="#191919" stroke="black" stroke-width="0.329259"/>
<path d="M34.6572 31.3828H52.5273V36.1876H34.6572V31.3828Z" fill="#666666"/>
<path d="M34.6572 53.3047H53.2493V74.1756H34.6572V53.3047Z" fill="#7F7F7F" stroke="black" stroke-width="0.329259"/>
<path d="M43.502 74.0272C48.3868 74.0272 52.3468 70.7332 52.3468 66.6699C52.3468 62.6065 48.3868 59.3125 43.502 59.3125C38.6172 59.3125 34.6572 62.6065 34.6572 66.6699C34.6572 70.7332 38.6172 74.0272 43.502 74.0272Z" fill="#4C4C4C" stroke="black" stroke-width="0.329259"/>
<path d="M43.5021 72.972C47.6891 72.972 51.0834 70.1486 51.0834 66.6657C51.0834 63.1828 47.6891 60.3594 43.5021 60.3594C39.3151 60.3594 35.9209 63.1828 35.9209 66.6657C35.9209 70.1486 39.3151 72.972 43.5021 72.972Z" fill="#A6A600" stroke="black" stroke-width="0.329259"/>
<path d="M34.6572 74.1756H53.2493V53.3047" stroke="white" stroke-width="0.329259"/>
<path d="M34.6572 53.9062H52.5273V58.7111H34.6572V53.9062Z" fill="#CCCCCC"/>
<path d="M43.5018 70.8684C46.6919 70.8684 49.2779 68.8516 49.2779 66.3639C49.2779 63.8761 46.6919 61.8594 43.5018 61.8594C40.3117 61.8594 37.7256 63.8761 37.7256 66.3639C37.7256 68.8516 40.3117 70.8684 43.5018 70.8684Z" stroke="black" stroke-width="0.329259"/>
<path d="M34.6572 76.2734H53.2493V96.5437H34.6572V76.2734Z" fill="#7F7F7F" stroke="black" stroke-width="0.329259"/>
<path d="M43.502 96.3944C48.3868 96.3944 52.3468 93.1004 52.3468 89.037C52.3468 84.9737 48.3868 81.6797 43.502 81.6797C38.6172 81.6797 34.6572 84.9737 34.6572 89.037C34.6572 93.1004 38.6172 96.3944 43.502 96.3944Z" fill="#4C4C4C" stroke="black" stroke-width="0.329259"/>
<path d="M43.5021 95.347C47.6891 95.347 51.0834 92.5236 51.0834 89.0407C51.0834 85.5578 47.6891 82.7344 43.5021 82.7344C39.3151 82.7344 35.9209 85.5578 35.9209 89.0407C35.9209 92.5236 39.3151 95.347 43.5021 95.347Z" fill="#A6A600" stroke="black" stroke-width="0.329259"/>
<path d="M34.6572 96.5437H53.2493V76.2734" stroke="white" stroke-width="0.329259"/>
<path d="M34.6572 76.2734H52.5273V81.0782H34.6572V76.2734Z" fill="#CCCCCC"/>
<path d="M43.5018 93.844C46.6919 93.844 49.2779 91.6928 49.2779 89.0392C49.2779 86.3856 46.6919 84.2344 43.5018 84.2344C40.3117 84.2344 37.7256 86.3856 37.7256 89.0392C37.7256 91.6928 40.3117 93.844 43.5018 93.844Z" stroke="black" stroke-width="0.329259"/>
<path d="M34.6572 98.6484H53.2493V119.519H34.6572V98.6484Z" fill="#7F7F7F" stroke="black" stroke-width="0.329259"/>
<path d="M43.502 118.769C48.3868 118.769 52.3468 115.475 52.3468 111.412C52.3468 107.349 48.3868 104.055 43.502 104.055C38.6172 104.055 34.6572 107.349 34.6572 111.412C34.6572 115.475 38.6172 118.769 43.502 118.769Z" fill="#4C4C4C" stroke="black" stroke-width="0.329259"/>
<path d="M43.5021 117.714C47.6891 117.714 51.0834 114.891 51.0834 111.408C51.0834 107.925 47.6891 105.102 43.5021 105.102C39.3151 105.102 35.9209 107.925 35.9209 111.408C35.9209 114.891 39.3151 117.714 43.5021 117.714Z" fill="#A6A600" stroke="black" stroke-width="0.329259"/>
<path d="M34.6572 119.519H53.2493V98.6484" stroke="white" stroke-width="0.329259"/>
<path d="M34.6572 98.6484H52.5273V104.054H34.6572V98.6484Z" fill="#CCCCCC"/>
<path d="M43.5018 116.219C46.6919 116.219 49.2779 114.068 49.2779 111.414C49.2779 108.761 46.6919 106.609 43.5018 106.609C40.3117 106.609 37.7256 108.761 37.7256 111.414C37.7256 114.068 40.3117 116.219 43.5018 116.219Z" stroke="black" stroke-width="0.329259"/>
<path d="M34.6572 121.172H53.2493V141.893H34.6572V121.172Z" fill="#7F7F7F" stroke="black" stroke-width="0.329259"/>
<path d="M43.502 141.293C48.3868 141.293 52.3468 137.999 52.3468 133.935C52.3468 129.872 48.3868 126.578 43.502 126.578C38.6172 126.578 34.6572 129.872 34.6572 133.935C34.6572 137.999 38.6172 141.293 43.502 141.293Z" fill="#4C4C4C" stroke="black" stroke-width="0.329259"/>
<path d="M43.5021 140.238C47.6891 140.238 51.0834 137.414 51.0834 133.931C51.0834 130.448 47.6891 127.625 43.5021 127.625C39.3151 127.625 35.9209 130.448 35.9209 133.931C35.9209 137.414 39.3151 140.238 43.5021 140.238Z" fill="#A6A600" stroke="black" stroke-width="0.329259"/>
<path d="M34.6572 141.893H53.2493V121.172" stroke="white" stroke-width="0.329259"/>
<path d="M34.6572 121.625H52.5273V126.43H34.6572V121.625Z" fill="#CCCCCC"/>
<path d="M43.5018 138.742C46.6919 138.742 49.2779 136.591 49.2779 133.938C49.2779 131.284 46.6919 129.133 43.5018 129.133C40.3117 129.133 37.7256 131.284 37.7256 133.938C37.7256 136.591 40.3117 138.742 43.5018 138.742Z" stroke="black" stroke-width="0.329259"/>
<path d="M96.209 8.40625H114.801V29.2771H96.209V8.40625Z" fill="#7F7F7F" stroke="black" stroke-width="0.329259"/>
<path d="M105.054 28.5272C109.939 28.5272 113.899 25.2332 113.899 21.1699C113.899 17.1065 109.939 13.8125 105.054 13.8125C100.169 13.8125 96.209 17.1065 96.209 21.1699C96.209 25.2332 100.169 28.5272 105.054 28.5272Z" fill="#4C4C4C" stroke="black" stroke-width="0.329259"/>
<path d="M105.054 27.6282C109.241 27.6282 112.635 24.8048 112.635 21.3219C112.635 17.8391 109.241 15.0156 105.054 15.0156C100.867 15.0156 97.4727 17.8391 97.4727 21.3219C97.4727 24.8048 100.867 27.6282 105.054 27.6282Z" fill="#A6A600" stroke="black" stroke-width="0.329259"/>
<path d="M96.209 29.2771H114.801V8.40625" stroke="white" stroke-width="0.329259"/>
<path d="M96.209 9.00781H114.079V13.8126H96.209V9.00781Z" fill="#CCCCCC"/>
<path d="M105.415 25.9778C108.406 25.9778 110.83 23.961 110.83 21.4733C110.83 18.9855 108.406 16.9688 105.415 16.9688C102.424 16.9688 100 18.9855 100 21.4733C100 23.961 102.424 25.9778 105.415 25.9778Z" stroke="black" stroke-width="0.329259"/>
<path d="M96.209 30.9297H114.801V51.6504H96.209V30.9297Z" fill="#7F7F7F" stroke="black" stroke-width="0.329259"/>
<path d="M105.054 51.3475C109.939 51.3475 113.899 48.0535 113.899 43.9902C113.899 39.9268 109.939 36.6328 105.054 36.6328C100.169 36.6328 96.209 39.9268 96.209 43.9902C96.209 48.0535 100.169 51.3475 105.054 51.3475Z" fill="#4C4C4C" stroke="black" stroke-width="0.329259"/>
<path d="M105.054 50.4476C109.241 50.4476 112.635 47.4897 112.635 43.841C112.635 40.1923 109.241 37.2344 105.054 37.2344C100.867 37.2344 97.4727 40.1923 97.4727 43.841C97.4727 47.4897 100.867 50.4476 105.054 50.4476Z" fill="#A6A600" stroke="black" stroke-width="0.329259"/>
<path d="M96.209 51.6504H114.801V30.9297" stroke="white" stroke-width="0.329259"/>
<path d="M96.209 31.3828H114.079V36.1876H96.209V31.3828Z" fill="#CCCCCC"/>
<path d="M105.415 48.3449C108.406 48.3449 110.83 46.3282 110.83 43.8404C110.83 41.3527 108.406 39.3359 105.415 39.3359C102.424 39.3359 100 41.3527 100 43.8404C100 46.3282 102.424 48.3449 105.415 48.3449Z" stroke="black" stroke-width="0.329259"/>
<path d="M96.209 53.3047H114.801V74.1756H96.209V53.3047Z" fill="#7F7F7F" stroke="black" stroke-width="0.329259"/>
<path d="M105.054 74.0272C109.939 74.0272 113.899 70.7332 113.899 66.6699C113.899 62.6065 109.939 59.3125 105.054 59.3125C100.169 59.3125 96.209 62.6065 96.209 66.6699C96.209 70.7332 100.169 74.0272 105.054 74.0272Z" fill="#4C4C4C" stroke="black" stroke-width="0.329259"/>
<path d="M105.054 72.972C109.241 72.972 112.635 70.1486 112.635 66.6657C112.635 63.1828 109.241 60.3594 105.054 60.3594C100.867 60.3594 97.4727 63.1828 97.4727 66.6657C97.4727 70.1486 100.867 72.972 105.054 72.972Z" fill="#A6A600" stroke="black" stroke-width="0.329259"/>
<path d="M96.209 74.1756H114.801V53.3047" stroke="white" stroke-width="0.329259"/>
<path d="M96.209 53.9062H114.079V58.7111H96.209V53.9062Z" fill="#CCCCCC"/>
<path d="M105.415 70.8684C108.406 70.8684 110.83 68.8516 110.83 66.3639C110.83 63.8761 108.406 61.8594 105.415 61.8594C102.424 61.8594 100 63.8761 100 66.3639C100 68.8516 102.424 70.8684 105.415 70.8684Z" stroke="black" stroke-width="0.329259"/>
<path d="M96.209 76.2734H114.801V96.5437H96.209V76.2734Z" fill="#7F7F7F" stroke="black" stroke-width="0.329259"/>
<path d="M105.054 96.3944C109.939 96.3944 113.899 93.1004 113.899 89.037C113.899 84.9737 109.939 81.6797 105.054 81.6797C100.169 81.6797 96.209 84.9737 96.209 89.037C96.209 93.1004 100.169 96.3944 105.054 96.3944Z" fill="#4C4C4C" stroke="black" stroke-width="0.329259"/>
<path d="M105.054 95.347C109.241 95.347 112.635 92.5236 112.635 89.0407C112.635 85.5578 109.241 82.7344 105.054 82.7344C100.867 82.7344 97.4727 85.5578 97.4727 89.0407C97.4727 92.5236 100.867 95.347 105.054 95.347Z" fill="#A6A600" stroke="black" stroke-width="0.329259"/>
<path d="M96.209 96.5437H114.801V76.2734" stroke="white" stroke-width="0.329259"/>
<path d="M96.209 76.2734H114.079V81.0782H96.209V76.2734Z" fill="#CCCCCC"/>
<path d="M105.415 93.844C108.406 93.844 110.83 91.6928 110.83 89.0392C110.83 86.3856 108.406 84.2344 105.415 84.2344C102.424 84.2344 100 86.3856 100 89.0392C100 91.6928 102.424 93.844 105.415 93.844Z" stroke="black" stroke-width="0.329259"/>
<path d="M96.209 98.6484H114.801V119.519H96.209V98.6484Z" fill="#7F7F7F" stroke="black" stroke-width="0.329259"/>
<path d="M105.054 118.769C109.939 118.769 113.899 115.475 113.899 111.412C113.899 107.349 109.939 104.055 105.054 104.055C100.169 104.055 96.209 107.349 96.209 111.412C96.209 115.475 100.169 118.769 105.054 118.769Z" fill="#4C4C4C" stroke="black" stroke-width="0.329259"/>
<path d="M105.054 117.714C109.241 117.714 112.635 114.891 112.635 111.408C112.635 107.925 109.241 105.102 105.054 105.102C100.867 105.102 97.4727 107.925 97.4727 111.408C97.4727 114.891 100.867 117.714 105.054 117.714Z" fill="#A6A600" stroke="black" stroke-width="0.329259"/>
<path d="M96.209 119.519H114.801V98.6484" stroke="white" stroke-width="0.329259"/>
<path d="M96.209 98.6484H114.079V104.054H96.209V98.6484Z" fill="#CCCCCC"/>
<path d="M105.415 116.219C108.406 116.219 110.83 114.068 110.83 111.414C110.83 108.761 108.406 106.609 105.415 106.609C102.424 106.609 100 108.761 100 111.414C100 114.068 102.424 116.219 105.415 116.219Z" stroke="black" stroke-width="0.329259"/>
<path d="M105.054 141.293C109.939 141.293 113.899 137.999 113.899 133.935C113.899 129.872 109.939 126.578 105.054 126.578C100.169 126.578 96.209 129.872 96.209 133.935C96.209 137.999 100.169 141.293 105.054 141.293Z" fill="#4C4C4C" stroke="black" stroke-width="0.329259"/>
<path d="M96.209 121.625H114.079V126.43H96.209V121.625Z" fill="#666666"/>
<path d="M22.9239 28.5272C27.8087 28.5272 31.7686 25.2332 31.7686 21.1699C31.7686 17.1065 27.8087 13.8125 22.9239 13.8125C18.039 13.8125 14.0791 17.1065 14.0791 21.1699C14.0791 25.2332 18.039 28.5272 22.9239 28.5272Z" fill="#4C4C4C" stroke="black" stroke-width="0.329259"/>
<path d="M22.924 27.6282C27.111 27.6282 30.5052 24.8048 30.5052 21.3219C30.5052 17.8391 27.111 15.0156 22.924 15.0156C18.737 15.0156 15.3428 17.8391 15.3428 21.3219C15.3428 24.8048 18.737 27.6282 22.924 27.6282Z" fill="#191919" stroke="black" stroke-width="0.329259"/>
<path d="M14.0791 9.00781H31.9491V13.8126H14.0791V9.00781Z" fill="#666666"/>
<path d="M22.9239 51.3475C27.8087 51.3475 31.7686 48.0535 31.7686 43.9902C31.7686 39.9268 27.8087 36.6328 22.9239 36.6328C18.039 36.6328 14.0791 39.9268 14.0791 43.9902C14.0791 48.0535 18.039 51.3475 22.9239 51.3475Z" fill="#4C4C4C" stroke="black" stroke-width="0.329259"/>
<path d="M22.924 50.4476C27.111 50.4476 30.5052 47.4897 30.5052 43.841C30.5052 40.1923 27.111 37.2344 22.924 37.2344C18.737 37.2344 15.3428 40.1923 15.3428 43.841C15.3428 47.4897 18.737 50.4476 22.924 50.4476Z" fill="#191919" stroke="black" stroke-width="0.329259"/>
<path d="M14.0791 31.3828H31.9491V36.1876H14.0791V31.3828Z" fill="#666666"/>
<path d="M14.0791 53.3047H32.6712V74.1756H14.0791V53.3047Z" fill="#7F7F7F" stroke="black" stroke-width="0.329259"/>
<path d="M22.9239 74.0272C27.8087 74.0272 31.7686 70.7332 31.7686 66.6699C31.7686 62.6065 27.8087 59.3125 22.9239 59.3125C18.039 59.3125 14.0791 62.6065 14.0791 66.6699C14.0791 70.7332 18.039 74.0272 22.9239 74.0272Z" fill="#4C4C4C" stroke="black" stroke-width="0.329259"/>
<path d="M22.924 72.972C27.111 72.972 30.5052 70.1486 30.5052 66.6657C30.5052 63.1828 27.111 60.3594 22.924 60.3594C18.737 60.3594 15.3428 63.1828 15.3428 66.6657C15.3428 70.1486 18.737 72.972 22.924 72.972Z" fill="#A60000" stroke="black" stroke-width="0.329259"/>
<path d="M14.0791 74.1756H32.6712V53.3047" stroke="white" stroke-width="0.329259"/>
<path d="M14.0791 53.9062H31.9491V58.7111H14.0791V53.9062Z" fill="#CCCCCC"/>
<path d="M22.9246 70.8684C26.1147 70.8684 28.7008 68.8516 28.7008 66.3639C28.7008 63.8761 26.1147 61.8594 22.9246 61.8594C19.7345 61.8594 17.1484 63.8761 17.1484 66.3639C17.1484 68.8516 19.7345 70.8684 22.9246 70.8684Z" stroke="black" stroke-width="0.329259"/>
<path d="M14.0791 76.2734H32.6712V96.5437H14.0791V76.2734Z" fill="#7F7F7F" stroke="black" stroke-width="0.329259"/>
<path d="M22.9239 96.3944C27.8087 96.3944 31.7686 93.1004 31.7686 89.037C31.7686 84.9737 27.8087 81.6797 22.9239 81.6797C18.039 81.6797 14.0791 84.9737 14.0791 89.037C14.0791 93.1004 18.039 96.3944 22.9239 96.3944Z" fill="#4C4C4C" stroke="black" stroke-width="0.329259"/>
<path d="M22.924 95.347C27.111 95.347 30.5052 92.5236 30.5052 89.0407C30.5052 85.5578 27.111 82.7344 22.924 82.7344C18.737 82.7344 15.3428 85.5578 15.3428 89.0407C15.3428 92.5236 18.737 95.347 22.924 95.347Z" fill="#A60000" stroke="black" stroke-width="0.329259"/>
<path d="M14.0791 96.5437H32.6712V76.2734" stroke="white" stroke-width="0.329259"/>
<path d="M14.0791 76.2734H31.9491V81.0782H14.0791V76.2734Z" fill="#CCCCCC"/>
<path d="M22.9246 93.844C26.1147 93.844 28.7008 91.6928 28.7008 89.0392C28.7008 86.3856 26.1147 84.2344 22.9246 84.2344C19.7345 84.2344 17.1484 86.3856 17.1484 89.0392C17.1484 91.6928 19.7345 93.844 22.9246 93.844Z" stroke="black" stroke-width="0.329259"/>
<path d="M14.0791 98.6484H32.6712V119.519H14.0791V98.6484Z" fill="#7F7F7F" stroke="black" stroke-width="0.329259"/>
<path d="M22.9239 118.769C27.8087 118.769 31.7686 115.475 31.7686 111.412C31.7686 107.349 27.8087 104.055 22.9239 104.055C18.039 104.055 14.0791 107.349 14.0791 111.412C14.0791 115.475 18.039 118.769 22.9239 118.769Z" fill="#4C4C4C" stroke="black" stroke-width="0.329259"/>
<path d="M22.924 117.714C27.111 117.714 30.5052 114.891 30.5052 111.408C30.5052 107.925 27.111 105.102 22.924 105.102C18.737 105.102 15.3428 107.925 15.3428 111.408C15.3428 114.891 18.737 117.714 22.924 117.714Z" fill="#A60000" stroke="black" stroke-width="0.329259"/>
<path d="M14.0791 119.519H32.6712V98.6484" stroke="white" stroke-width="0.329259"/>
<path d="M14.0791 98.6484H31.9491V104.054H14.0791V98.6484Z" fill="#CCCCCC"/>
<path d="M22.9246 116.219C26.1147 116.219 28.7008 114.068 28.7008 111.414C28.7008 108.761 26.1147 106.609 22.9246 106.609C19.7345 106.609 17.1484 108.761 17.1484 111.414C17.1484 114.068 19.7345 116.219 22.9246 116.219Z" stroke="black" stroke-width="0.329259"/>
<path d="M14.0791 121.172H32.6712V141.893H14.0791V121.172Z" fill="#7F7F7F" stroke="black" stroke-width="0.329259"/>
<path d="M22.9239 141.293C27.8087 141.293 31.7686 137.999 31.7686 133.935C31.7686 129.872 27.8087 126.578 22.9239 126.578C18.039 126.578 14.0791 129.872 14.0791 133.935C14.0791 137.999 18.039 141.293 22.9239 141.293Z" fill="#4C4C4C" stroke="black" stroke-width="0.329259"/>
<path d="M22.924 140.238C27.111 140.238 30.5052 137.414 30.5052 133.931C30.5052 130.448 27.111 127.625 22.924 127.625C18.737 127.625 15.3428 130.448 15.3428 133.931C15.3428 137.414 18.737 140.238 22.924 140.238Z" fill="#A60000" stroke="black" stroke-width="0.329259"/>
<path d="M14.0791 141.893H32.6712V121.172" stroke="white" stroke-width="0.329259"/>
<path d="M14.0791 121.625H31.9491V126.43H14.0791V121.625Z" fill="#CCCCCC"/>
<path d="M22.9246 138.742C26.1147 138.742 28.7008 136.591 28.7008 133.938C28.7008 131.284 26.1147 129.133 22.9246 129.133C19.7345 129.133 17.1484 131.284 17.1484 133.938C17.1484 136.591 19.7345 138.742 22.9246 138.742Z" stroke="black" stroke-width="0.329259"/>
<path d="M75.6318 8.40625H94.2239V29.2771H75.6318V8.40625Z" fill="#7F7F7F" stroke="black" stroke-width="0.329259"/>
<path d="M84.6571 28.6791C89.6416 28.6791 93.6824 25.3179 93.6824 21.1716C93.6824 17.0253 89.6416 13.6641 84.6571 13.6641C79.6726 13.6641 75.6318 17.0253 75.6318 21.1716C75.6318 25.3179 79.6726 28.6791 84.6571 28.6791Z" fill="#4C4C4C" stroke="black" stroke-width="0.329259"/>
<path d="M84.4767 27.6282C88.6637 27.6282 92.058 24.8048 92.058 21.3219C92.058 17.8391 88.6637 15.0156 84.4767 15.0156C80.2897 15.0156 76.8955 17.8391 76.8955 21.3219C76.8955 24.8048 80.2897 27.6282 84.4767 27.6282Z" fill="#A60000" stroke="black" stroke-width="0.329259"/>
<path d="M75.6318 29.2771H94.2239V8.40625" stroke="white" stroke-width="0.329259"/>
<path d="M75.6318 9.00781H93.6824V13.8126H75.6318V9.00781Z" fill="#CCCCCC"/>
<path d="M84.657 25.9778C87.8471 25.9778 90.4332 23.961 90.4332 21.4733C90.4332 18.9855 87.8471 16.9688 84.657 16.9688C81.4669 16.9688 78.8809 18.9855 78.8809 21.4733C78.8809 23.961 81.4669 25.9778 84.657 25.9778Z" stroke="black" stroke-width="0.329259"/>
<path d="M75.6318 30.9297H94.2239V51.6504H75.6318V30.9297Z" fill="#7F7F7F" stroke="black" stroke-width="0.329259"/>
<path d="M84.6571 51.2035C89.6416 51.2035 93.6824 47.9767 93.6824 43.9963C93.6824 40.0158 89.6416 36.7891 84.6571 36.7891C79.6726 36.7891 75.6318 40.0158 75.6318 43.9963C75.6318 47.9767 79.6726 51.2035 84.6571 51.2035Z" fill="#4C4C4C" stroke="black" stroke-width="0.329259"/>
<path d="M84.4767 50.4476C88.6637 50.4476 92.058 47.4897 92.058 43.841C92.058 40.1923 88.6637 37.2344 84.4767 37.2344C80.2897 37.2344 76.8955 40.1923 76.8955 43.841C76.8955 47.4897 80.2897 50.4476 84.4767 50.4476Z" fill="#A60000" stroke="black" stroke-width="0.329259"/>
<path d="M75.6318 51.6504H94.2239V30.9297" stroke="white" stroke-width="0.329259"/>
<path d="M75.6318 31.3828H93.6824V36.1876H75.6318V31.3828Z" fill="#CCCCCC"/>
<path d="M84.657 48.3449C87.8471 48.3449 90.4332 46.3282 90.4332 43.8404C90.4332 41.3527 87.8471 39.3359 84.657 39.3359C81.4669 39.3359 78.8809 41.3527 78.8809 43.8404C78.8809 46.3282 81.4669 48.3449 84.657 48.3449Z" stroke="black" stroke-width="0.329259"/>
<path d="M75.6318 53.3047H94.2239V74.1756H75.6318V53.3047Z" fill="#7F7F7F" stroke="black" stroke-width="0.329259"/>
<path d="M84.6571 74.1713C89.6416 74.1713 93.6824 70.81 93.6824 66.6638C93.6824 62.5175 89.6416 59.1562 84.6571 59.1562C79.6726 59.1562 75.6318 62.5175 75.6318 66.6638C75.6318 70.81 79.6726 74.1713 84.6571 74.1713Z" fill="#4C4C4C" stroke="black" stroke-width="0.329259"/>
<path d="M84.4767 72.972C88.6637 72.972 92.058 70.1486 92.058 66.6657C92.058 63.1828 88.6637 60.3594 84.4767 60.3594C80.2897 60.3594 76.8955 63.1828 76.8955 66.6657C76.8955 70.1486 80.2897 72.972 84.4767 72.972Z" fill="#A60000" stroke="black" stroke-width="0.329259"/>
<path d="M75.6318 74.1756H94.2239V53.3047" stroke="white" stroke-width="0.329259"/>
<path d="M75.6318 53.9062H93.6824V58.7111H75.6318V53.9062Z" fill="#CCCCCC"/>
<path d="M84.657 70.8684C87.8471 70.8684 90.4332 68.8516 90.4332 66.3639C90.4332 63.8761 87.8471 61.8594 84.657 61.8594C81.4669 61.8594 78.8809 63.8761 78.8809 66.3639C78.8809 68.8516 81.4669 70.8684 84.657 70.8684Z" stroke="black" stroke-width="0.329259"/>
<path d="M75.6318 76.2734H94.2239V96.5437H75.6318V76.2734Z" fill="#7F7F7F" stroke="black" stroke-width="0.329259"/>
<path d="M84.6571 96.5463C89.6416 96.5463 93.6824 93.185 93.6824 89.0388C93.6824 84.8925 89.6416 81.5312 84.6571 81.5312C79.6726 81.5312 75.6318 84.8925 75.6318 89.0388C75.6318 93.185 79.6726 96.5463 84.6571 96.5463Z" fill="#4C4C4C" stroke="black" stroke-width="0.329259"/>
<path d="M84.4767 95.347C88.6637 95.347 92.058 92.5236 92.058 89.0407C92.058 85.5578 88.6637 82.7344 84.4767 82.7344C80.2897 82.7344 76.8955 85.5578 76.8955 89.0407C76.8955 92.5236 80.2897 95.347 84.4767 95.347Z" fill="#A60000" stroke="black" stroke-width="0.329259"/>
<path d="M75.6318 96.5437H94.2239V76.2734" stroke="white" stroke-width="0.329259"/>
<path d="M75.6318 76.2734H93.6824V81.0782H75.6318V76.2734Z" fill="#CCCCCC"/>
<path d="M84.657 93.844C87.8471 93.844 90.4332 91.6928 90.4332 89.0392C90.4332 86.3856 87.8471 84.2344 84.657 84.2344C81.4669 84.2344 78.8809 86.3856 78.8809 89.0392C78.8809 91.6928 81.4669 93.844 84.657 93.844Z" stroke="black" stroke-width="0.329259"/>
<path d="M75.6318 98.6484H94.2239V119.519H75.6318V98.6484Z" fill="#7F7F7F" stroke="black" stroke-width="0.329259"/>
<path d="M84.6571 118.921C89.6416 118.921 93.6824 115.56 93.6824 111.414C93.6824 107.267 89.6416 103.906 84.6571 103.906C79.6726 103.906 75.6318 107.267 75.6318 111.414C75.6318 115.56 79.6726 118.921 84.6571 118.921Z" fill="#4C4C4C" stroke="black" stroke-width="0.329259"/>
<path d="M84.4767 117.714C88.6637 117.714 92.058 114.891 92.058 111.408C92.058 107.925 88.6637 105.102 84.4767 105.102C80.2897 105.102 76.8955 107.925 76.8955 111.408C76.8955 114.891 80.2897 117.714 84.4767 117.714Z" fill="#A60000" stroke="black" stroke-width="0.329259"/>
<path d="M75.6318 119.519H94.2239V98.6484" stroke="white" stroke-width="0.329259"/>
<path d="M75.6318 98.6484H93.6824V104.054H75.6318V98.6484Z" fill="#CCCCCC"/>
<path d="M84.657 116.219C87.8471 116.219 90.4332 114.068 90.4332 111.414C90.4332 108.761 87.8471 106.609 84.657 106.609C81.4669 106.609 78.8809 108.761 78.8809 111.414C78.8809 114.068 81.4669 116.219 84.657 116.219Z" stroke="black" stroke-width="0.329259"/>
<path d="M84.6571 141.445C89.6416 141.445 93.6824 138.083 93.6824 133.937C93.6824 129.791 89.6416 126.43 84.6571 126.43C79.6726 126.43 75.6318 129.791 75.6318 133.937C75.6318 138.083 79.6726 141.445 84.6571 141.445Z" fill="#4C4C4C" stroke="black" stroke-width="0.329259"/>
<path d="M75.6318 121.625H93.6824V126.43H75.6318V121.625Z" fill="#666666"/>
<path d="M64.079 28.6791C69.0635 28.6791 73.1043 25.3179 73.1043 21.1716C73.1043 17.0253 69.0635 13.6641 64.079 13.6641C59.0945 13.6641 55.0537 17.0253 55.0537 21.1716C55.0537 25.3179 59.0945 28.6791 64.079 28.6791Z" fill="#4C4C4C" stroke="black" stroke-width="0.329259"/>
<path d="M64.0791 27.7801C68.3658 27.7801 71.8408 24.8894 71.8408 21.3236C71.8408 17.7578 68.3658 14.8672 64.0791 14.8672C59.7924 14.8672 56.3174 17.7578 56.3174 21.3236C56.3174 24.8894 59.7924 27.7801 64.0791 27.7801Z" fill="#191919" stroke="black" stroke-width="0.329259"/>
<path d="M55.0537 9.00781H73.1043V13.8126H55.0537V9.00781Z" fill="#666666"/>
<path d="M64.079 51.2035C69.0635 51.2035 73.1043 47.9767 73.1043 43.9963C73.1043 40.0158 69.0635 36.7891 64.079 36.7891C59.0945 36.7891 55.0537 40.0158 55.0537 43.9963C55.0537 47.9767 59.0945 51.2035 64.079 51.2035Z" fill="#4C4C4C" stroke="black" stroke-width="0.329259"/>
<path d="M64.0791 50.3035C68.3658 50.3035 71.8408 47.4129 71.8408 43.8471C71.8408 40.2813 68.3658 37.3906 64.0791 37.3906C59.7924 37.3906 56.3174 40.2813 56.3174 43.8471C56.3174 47.4129 59.7924 50.3035 64.0791 50.3035Z" fill="#191919" stroke="black" stroke-width="0.329259"/>
<path d="M55.0537 31.3828H73.1043V36.1876H55.0537V31.3828Z" fill="#666666"/>
<path d="M55.0537 53.3047H73.6458V74.1756H55.0537V53.3047Z" fill="#7F7F7F" stroke="black" stroke-width="0.329259"/>
<path d="M64.079 74.1713C69.0635 74.1713 73.1043 70.81 73.1043 66.6638C73.1043 62.5175 69.0635 59.1562 64.079 59.1562C59.0945 59.1562 55.0537 62.5175 55.0537 66.6638C55.0537 70.81 59.0945 74.1713 64.079 74.1713Z" fill="#4C4C4C" stroke="black" stroke-width="0.329259"/>
<path d="M64.0791 73.1239C68.3658 73.1239 71.8408 70.2332 71.8408 66.6674C71.8408 63.1016 68.3658 60.2109 64.0791 60.2109C59.7924 60.2109 56.3174 63.1016 56.3174 66.6674C56.3174 70.2332 59.7924 73.1239 64.0791 73.1239Z" fill="#00A600" stroke="black" stroke-width="0.329259"/>
<path d="M55.0537 74.1756H73.6458V53.3047" stroke="white" stroke-width="0.329259"/>
<path d="M55.0537 53.9062H73.1043V58.7111H55.0537V53.9062Z" fill="#CCCCCC"/>
<path d="M64.0789 70.8684C67.269 70.8684 69.8551 68.8516 69.8551 66.3639C69.8551 63.8761 67.269 61.8594 64.0789 61.8594C60.8888 61.8594 58.3027 63.8761 58.3027 66.3639C58.3027 68.8516 60.8888 70.8684 64.0789 70.8684Z" stroke="black" stroke-width="0.329259"/>
<path d="M55.0537 76.2734H73.6458V96.5437H55.0537V76.2734Z" fill="#7F7F7F" stroke="black" stroke-width="0.329259"/>
<path d="M64.079 96.5463C69.0635 96.5463 73.1043 93.185 73.1043 89.0388C73.1043 84.8925 69.0635 81.5312 64.079 81.5312C59.0945 81.5312 55.0537 84.8925 55.0537 89.0388C55.0537 93.185 59.0945 96.5463 64.079 96.5463Z" fill="#4C4C4C" stroke="black" stroke-width="0.329259"/>
<path d="M64.0791 95.4989C68.3658 95.4989 71.8408 92.6082 71.8408 89.0424C71.8408 85.4766 68.3658 82.5859 64.0791 82.5859C59.7924 82.5859 56.3174 85.4766 56.3174 89.0424C56.3174 92.6082 59.7924 95.4989 64.0791 95.4989Z" fill="#00A600" stroke="black" stroke-width="0.329259"/>
<path d="M55.0537 96.5437H73.6458V76.2734" stroke="white" stroke-width="0.329259"/>
<path d="M55.0537 76.2734H73.1043V81.0782H55.0537V76.2734Z" fill="#CCCCCC"/>
<path d="M64.0799 93.844C67.27 93.844 69.8561 91.6928 69.8561 89.0392C69.8561 86.3856 67.27 84.2344 64.0799 84.2344C60.8898 84.2344 58.3037 86.3856 58.3037 89.0392C58.3037 91.6928 60.8898 93.844 64.0799 93.844Z" stroke="black" stroke-width="0.329259"/>
<path d="M55.0537 98.6484H73.6458V119.519H55.0537V98.6484Z" fill="#7F7F7F" stroke="black" stroke-width="0.329259"/>
<path d="M64.079 118.921C69.0635 118.921 73.1043 115.56 73.1043 111.414C73.1043 107.267 69.0635 103.906 64.079 103.906C59.0945 103.906 55.0537 107.267 55.0537 111.414C55.0537 115.56 59.0945 118.921 64.079 118.921Z" fill="#4C4C4C" stroke="black" stroke-width="0.329259"/>
<path d="M64.0791 117.866C68.3658 117.866 71.8408 114.975 71.8408 111.41C71.8408 107.844 68.3658 104.953 64.0791 104.953C59.7924 104.953 56.3174 107.844 56.3174 111.41C56.3174 114.975 59.7924 117.866 64.0791 117.866Z" fill="#00A600" stroke="black" stroke-width="0.329259"/>
<path d="M55.0537 119.519H73.6458V98.6484" stroke="white" stroke-width="0.329259"/>
<path d="M55.0537 98.6484H73.1043V104.054H55.0537V98.6484Z" fill="#CCCCCC"/>
<path d="M64.0789 116.219C67.269 116.219 69.8551 114.068 69.8551 111.414C69.8551 108.761 67.269 106.609 64.0789 106.609C60.8888 106.609 58.3027 108.761 58.3027 111.414C58.3027 114.068 60.8888 116.219 64.0789 116.219Z" stroke="black" stroke-width="0.329259"/>
<path d="M55.0537 121.172H73.6458V141.893H55.0537V121.172Z" fill="#7F7F7F" stroke="black" stroke-width="0.329259"/>
<path d="M64.079 141.445C69.0635 141.445 73.1043 138.083 73.1043 133.937C73.1043 129.791 69.0635 126.43 64.079 126.43C59.0945 126.43 55.0537 129.791 55.0537 133.937C55.0537 138.083 59.0945 141.445 64.079 141.445Z" fill="#4C4C4C" stroke="black" stroke-width="0.329259"/>
<path d="M64.0791 140.389C68.3658 140.389 71.8408 137.499 71.8408 133.933C71.8408 130.367 68.3658 127.477 64.0791 127.477C59.7924 127.477 56.3174 130.367 56.3174 133.933C56.3174 137.499 59.7924 140.389 64.0791 140.389Z" fill="#00A600" stroke="black" stroke-width="0.329259"/>
<path d="M55.0537 141.893H73.6458V121.172" stroke="white" stroke-width="0.329259"/>
<path d="M55.0537 121.625H73.1043V126.43H55.0537V121.625Z" fill="#CCCCCC"/>
<path d="M64.0789 138.742C67.269 138.742 69.8551 136.591 69.8551 133.938C69.8551 131.284 67.269 129.133 64.0789 129.133C60.8888 129.133 58.3027 131.284 58.3027 133.938C58.3027 136.591 60.8888 138.742 64.0789 138.742Z" stroke="black" stroke-width="0.329259"/>
<path d="M116.606 8.40625H135.379V29.2771H116.606V8.40625Z" fill="#7F7F7F" stroke="black" stroke-width="0.329259"/>
<path d="M125.632 28.6791C130.616 28.6791 134.657 25.3179 134.657 21.1716C134.657 17.0253 130.616 13.6641 125.632 13.6641C120.647 13.6641 116.606 17.0253 116.606 21.1716C116.606 25.3179 120.647 28.6791 125.632 28.6791Z" fill="#4C4C4C" stroke="black" stroke-width="0.329259"/>
<path d="M125.632 27.6282C129.819 27.6282 133.213 24.8048 133.213 21.3219C133.213 17.8391 129.819 15.0156 125.632 15.0156C121.445 15.0156 118.051 17.8391 118.051 21.3219C118.051 24.8048 121.445 27.6282 125.632 27.6282Z" fill="#00A600" stroke="black" stroke-width="0.329259"/>
<path d="M116.606 29.2771H135.379V8.40625" stroke="white" stroke-width="0.329259"/>
<path d="M116.606 9.00781H134.657V13.8126H116.606V9.00781Z" fill="#CCCCCC"/>
<path d="M125.993 25.9778C128.984 25.9778 131.408 23.961 131.408 21.4733C131.408 18.9855 128.984 16.9688 125.993 16.9688C123.003 16.9688 120.578 18.9855 120.578 21.4733C120.578 23.961 123.003 25.9778 125.993 25.9778Z" stroke="black" stroke-width="0.329259"/>
<path d="M116.606 30.9297H135.379V51.6504H116.606V30.9297Z" fill="#7F7F7F" stroke="black" stroke-width="0.329259"/>
<path d="M125.632 51.2035C130.616 51.2035 134.657 47.9767 134.657 43.9963C134.657 40.0158 130.616 36.7891 125.632 36.7891C120.647 36.7891 116.606 40.0158 116.606 43.9963C116.606 47.9767 120.647 51.2035 125.632 51.2035Z" fill="#4C4C4C" stroke="black" stroke-width="0.329259"/>
<path d="M125.632 50.4476C129.819 50.4476 133.213 47.4897 133.213 43.841C133.213 40.1923 129.819 37.2344 125.632 37.2344C121.445 37.2344 118.051 40.1923 118.051 43.841C118.051 47.4897 121.445 50.4476 125.632 50.4476Z" fill="#00A600" stroke="black" stroke-width="0.329259"/>
<path d="M116.606 51.6504H135.379V30.9297" stroke="white" stroke-width="0.329259"/>
<path d="M116.606 31.3828H134.657V36.1876H116.606V31.3828Z" fill="#CCCCCC"/>
<path d="M125.993 48.3449C128.984 48.3449 131.408 46.3282 131.408 43.8404C131.408 41.3527 128.984 39.3359 125.993 39.3359C123.003 39.3359 120.578 41.3527 120.578 43.8404C120.578 46.3282 123.003 48.3449 125.993 48.3449Z" stroke="black" stroke-width="0.329259"/>
<path d="M116.606 53.3047H135.379V74.1756H116.606V53.3047Z" fill="#7F7F7F" stroke="black" stroke-width="0.329259"/>
<path d="M125.632 74.1713C130.616 74.1713 134.657 70.81 134.657 66.6638C134.657 62.5175 130.616 59.1562 125.632 59.1562C120.647 59.1562 116.606 62.5175 116.606 66.6638C116.606 70.81 120.647 74.1713 125.632 74.1713Z" fill="#4C4C4C" stroke="black" stroke-width="0.329259"/>
<path d="M125.632 72.972C129.819 72.972 133.213 70.1486 133.213 66.6657C133.213 63.1828 129.819 60.3594 125.632 60.3594C121.445 60.3594 118.051 63.1828 118.051 66.6657C118.051 70.1486 121.445 72.972 125.632 72.972Z" fill="#00A600" stroke="black" stroke-width="0.329259"/>
<path d="M116.606 74.1756H135.379V53.3047" stroke="white" stroke-width="0.329259"/>
<path d="M116.606 53.9062H134.657V58.7111H116.606V53.9062Z" fill="#CCCCCC"/>
<path d="M125.993 70.8684C128.984 70.8684 131.408 68.8516 131.408 66.3639C131.408 63.8761 128.984 61.8594 125.993 61.8594C123.003 61.8594 120.578 63.8761 120.578 66.3639C120.578 68.8516 123.003 70.8684 125.993 70.8684Z" stroke="black" stroke-width="0.329259"/>
<path d="M116.606 76.2734H135.379V96.5437H116.606V76.2734Z" fill="#7F7F7F" stroke="black" stroke-width="0.329259"/>
<path d="M125.632 96.5463C130.616 96.5463 134.657 93.185 134.657 89.0388C134.657 84.8925 130.616 81.5312 125.632 81.5312C120.647 81.5312 116.606 84.8925 116.606 89.0388C116.606 93.185 120.647 96.5463 125.632 96.5463Z" fill="#4C4C4C" stroke="black" stroke-width="0.329259"/>
<path d="M125.632 95.347C129.819 95.347 133.213 92.5236 133.213 89.0407C133.213 85.5578 129.819 82.7344 125.632 82.7344C121.445 82.7344 118.051 85.5578 118.051 89.0407C118.051 92.5236 121.445 95.347 125.632 95.347Z" fill="#00A600" stroke="black" stroke-width="0.329259"/>
<path d="M116.606 96.5437H135.379V76.2734" stroke="white" stroke-width="0.329259"/>
<path d="M116.606 76.2734H134.657V81.0782H116.606V76.2734Z" fill="#CCCCCC"/>
<path d="M125.992 93.844C128.983 93.844 131.407 91.6928 131.407 89.0392C131.407 86.3856 128.983 84.2344 125.992 84.2344C123.002 84.2344 120.577 86.3856 120.577 89.0392C120.577 91.6928 123.002 93.844 125.992 93.844Z" stroke="black" stroke-width="0.329259"/>
<path d="M116.606 98.6484H135.379V119.519H116.606V98.6484Z" fill="#7F7F7F" stroke="black" stroke-width="0.329259"/>
<path d="M125.632 118.921C130.616 118.921 134.657 115.56 134.657 111.414C134.657 107.267 130.616 103.906 125.632 103.906C120.647 103.906 116.606 107.267 116.606 111.414C116.606 115.56 120.647 118.921 125.632 118.921Z" fill="#4C4C4C" stroke="black" stroke-width="0.329259"/>
<path d="M125.632 117.714C129.819 117.714 133.213 114.891 133.213 111.408C133.213 107.925 129.819 105.102 125.632 105.102C121.445 105.102 118.051 107.925 118.051 111.408C118.051 114.891 121.445 117.714 125.632 117.714Z" fill="#00A600" stroke="black" stroke-width="0.329259"/>
<path d="M116.606 119.519H135.379V98.6484" stroke="white" stroke-width="0.329259"/>
<path d="M116.606 98.6484H134.657V104.054H116.606V98.6484Z" fill="#CCCCCC"/>
<path d="M125.993 116.219C128.984 116.219 131.408 114.068 131.408 111.414C131.408 108.761 128.984 106.609 125.993 106.609C123.003 106.609 120.578 108.761 120.578 111.414C120.578 114.068 123.003 116.219 125.993 116.219Z" stroke="black" stroke-width="0.329259"/>
<path d="M125.632 141.293C130.517 141.293 134.477 137.999 134.477 133.935C134.477 129.872 130.517 126.578 125.632 126.578C120.747 126.578 116.787 129.872 116.787 133.935C116.787 137.999 120.747 141.293 125.632 141.293Z" fill="#4C4C4C" stroke="black" stroke-width="0.329259"/>
<path d="M116.606 121.625H134.657V126.43H116.606V121.625Z" fill="#666666"/>
<path d="M84.6569 139.79C88.5448 139.79 91.6966 137.168 91.6966 133.934C91.6966 130.7 88.5448 128.078 84.6569 128.078C80.769 128.078 77.6172 130.7 77.6172 133.934C77.6172 137.168 80.769 139.79 84.6569 139.79Z" fill="#191919" stroke="black" stroke-width="0.329259"/>
<path d="M83.3936 128.078H85.1986V136.036H83.3936V128.078Z" fill="#CCCCCC" stroke="black" stroke-width="0.329259"/>
<path d="M105.054 139.79C108.942 139.79 112.094 137.168 112.094 133.934C112.094 130.7 108.942 128.078 105.054 128.078C101.166 128.078 98.0146 130.7 98.0146 133.934C98.0146 137.168 101.166 139.79 105.054 139.79Z" fill="#191919" stroke="black" stroke-width="0.329259"/>
<path d="M125.632 139.79C129.519 139.79 132.671 137.168 132.671 133.934C132.671 130.7 129.519 128.078 125.632 128.078C121.744 128.078 118.592 130.7 118.592 133.934C118.592 137.168 121.744 139.79 125.632 139.79Z" fill="#191919" stroke="black" stroke-width="0.329259"/>
<path d="M104.513 128.078H105.776V136.036H104.513V128.078Z" fill="#CCCCCC" stroke="black" stroke-width="0.329259"/>
<path d="M125.09 128.078H127.075V136.036H125.09V128.078Z" fill="#CCCCCC" stroke="black" stroke-width="0.329259"/>
<path d="M42.96 14.8672H44.765V22.9753H42.96V14.8672Z" fill="#CCCCCC" stroke="black" stroke-width="0.329259"/>
<path d="M42.96 37.2344H44.765V45.3425H42.96V37.2344Z" fill="#CCCCCC" stroke="black" stroke-width="0.329259"/>
<path d="M22.3828 14.8672H24.3684V22.9753H22.3828V14.8672Z" fill="#CCCCCC" stroke="black" stroke-width="0.329259"/>
<path d="M22.3828 37.2344H24.3684V45.3425H22.3828V37.2344Z" fill="#CCCCCC" stroke="black" stroke-width="0.329259"/>
<path d="M63.5381 14.8672H65.3431V22.9753H63.5381V14.8672Z" fill="#CCCCCC" stroke="black" stroke-width="0.329259"/>
<path d="M63.5381 37.2344H65.3431V45.3425H63.5381V37.2344Z" fill="#CCCCCC" stroke="black" stroke-width="0.329259"/>
</g>
<defs>
<clipPath id="clip0_2109_216094">
<rect width="150" height="150" fill="white"/>
</clipPath>
</defs>
</svg>
