<svg width="150" height="150" viewBox="0 0 150 150" fill="none" xmlns="http://www.w3.org/2000/svg">
<g clip-path="url(#clip0_2109_216515)">
<path d="M0.798828 149.25V0.601562H149.001V149.25H0.798828Z" fill="#8CA0A0"/>
<path d="M0.798828 149.252V84.087L149.001 40.8438V149.252H0.798828Z" fill="#859999"/>
<path d="M0.798828 149.251V96.5479L149.001 53.3047V149.251H0.798828Z" fill="#7A8E8E"/>
<path d="M0.798828 149.251V102.854L149.001 59.4609V149.251H0.798828Z" fill="#738787"/>
<path d="M33.755 136.634L25.7656 130.779H124.634V19.3672L128.429 22.3702V136.634H33.755Z" fill="#596D6D"/>
<path d="M0.798828 149.25V0.601562H149.001V149.25H0.798828Z" stroke="black" stroke-width="0.346353"/>
<path d="M39.9466 77.9265C43.3662 77.9265 46.1384 75.8425 46.1384 73.2718C46.1384 70.7011 43.3662 68.6172 39.9466 68.6172C36.527 68.6172 33.7549 70.7011 33.7549 73.2718C33.7549 75.8425 36.527 77.9265 39.9466 77.9265Z" stroke="black" stroke-width="0.346353"/>
<path d="M33.7549 87.234V62.6094H46.1384V87.234H33.7549Z" stroke="black" stroke-width="0.346353"/>
<path d="M25.5664 130.63V19.2188H124.435V130.63H25.5664Z" stroke="#334747" stroke-width="0.346353"/>
</g>
<defs>
<clipPath id="clip0_2109_216515">
<rect width="150" height="150" fill="white"/>
</clipPath>
</defs>
</svg>
