<svg width="150" height="150" viewBox="0 0 150 150" fill="none" xmlns="http://www.w3.org/2000/svg">
<g clip-path="url(#clip0_2109_216527)">
<path d="M0 0H150V150H0V0Z" fill="#7F7F7F" stroke="black" stroke-width="0.317269"/>
<path d="M2.85254 3.1875H146.847V146.651H2.85254V3.1875Z" fill="#B2B2B2"/>
<path d="M12.4629 17.2656H53.0034V34.6958H12.4629V17.2656Z" fill="#7F7F7F"/>
<path d="M74.9248 45.0859H140.54V125.533H74.9248V45.0859Z" fill="#7F7F7F"/>
<path d="M77.9277 116.477H106.456V121.84H77.9277V116.477Z" fill="#E5E5E5"/>
<path d="M109.159 116.477H137.237V121.84H109.159V116.477Z" fill="#E5E5E5"/>
<path d="M109.159 108.773H137.237V114.472H109.159V108.773Z" fill="#E5E5E5"/>
<path d="M77.9277 108.773H106.456V114.472H77.9277V108.773Z" fill="#E5E5E5"/>
<path d="M77.9277 101.398H106.456V107.097H77.9277V101.398Z" fill="#E5E5E5"/>
<path d="M109.159 101.398H137.237V107.097H109.159V101.398Z" fill="#E5E5E5"/>
<path d="M109.159 93.6875H137.237V99.3858H109.159V93.6875Z" fill="#E5E5E5"/>
<path d="M77.9277 93.6875H106.456V99.3858H77.9277V93.6875Z" fill="#E5E5E5"/>
<path d="M77.9277 86.3125H106.456V92.0108H77.9277V86.3125Z" fill="#E5E5E5"/>
<path d="M109.159 86.3125H137.237V92.0108H109.159V86.3125Z" fill="#E5E5E5"/>
<path d="M109.159 78.6016H137.237V84.2999H109.159V78.6016Z" fill="#E5E5E5"/>
<path d="M77.9277 78.9375H106.456V84.3006H77.9277V78.9375Z" fill="#E5E5E5"/>
<path d="M77.9277 71.2266H106.456V76.9249H77.9277V71.2266Z" fill="#E5E5E5"/>
<path d="M109.159 71.2266H137.237V76.9249H109.159V71.2266Z" fill="#E5E5E5"/>
<path d="M109.159 63.8516H137.237V69.2147H109.159V63.8516Z" fill="#E5E5E5"/>
<path d="M77.9277 63.8516H106.456V69.2147H77.9277V63.8516Z" fill="#E5E5E5"/>
<path d="M77.9277 56.1484H106.456V61.8468H77.9277V56.1484Z" fill="#E5E5E5"/>
<path d="M109.159 56.1484H137.237V61.8468H109.159V56.1484Z" fill="#E5E5E5"/>
<path d="M77.9277 48.7734H106.456V54.4718H77.9277V48.7734Z" fill="#E5E5E5"/>
<path d="M109.159 48.7734H137.237V54.1366H109.159V48.7734Z" fill="#E5E5E5"/>
<path d="M15.4658 20.6172H50.0004V31.3434H15.4658V20.6172Z" fill="#E5E5E5"/>
</g>
<defs>
<clipPath id="clip0_2109_216527">
<rect width="150" height="150" fill="white"/>
</clipPath>
</defs>
</svg>
