<svg width="150" height="150" viewBox="0 0 150 150" fill="none" xmlns="http://www.w3.org/2000/svg">
<path d="M0.868164 10.8125H4.86122V139.041H0.868164V10.8125Z" fill="#B2B29B" stroke="black" stroke-width="0.32291"/>
<path d="M0.868164 17.5703H4.86122" stroke="black" stroke-width="0.32291"/>
<path d="M0.868164 44.5938H4.86122" stroke="black" stroke-width="0.32291"/>
<path d="M0.868164 71.4688H4.86122" stroke="black" stroke-width="0.32291"/>
<path d="M0.868164 98.5H4.86122" stroke="black" stroke-width="0.32291"/>
<path d="M0.868164 125.523H4.86122" stroke="black" stroke-width="0.32291"/>
<path d="M4.86122 24.3281H0.868164" stroke="black" stroke-width="0.32291"/>
<path d="M4.86122 51.3516H0.868164" stroke="black" stroke-width="0.32291"/>
<path d="M4.86122 78.2266H0.868164" stroke="black" stroke-width="0.32291"/>
<path d="M4.86122 105.258H0.868164" stroke="black" stroke-width="0.32291"/>
<path d="M4.86122 132.281H0.868164" stroke="black" stroke-width="0.32291"/>
<path d="M0.868164 31.0781H4.86122" stroke="black" stroke-width="0.32291"/>
<path d="M0.868164 58.1094H4.86122" stroke="black" stroke-width="0.32291"/>
<path d="M0.868164 84.9844H4.86122" stroke="black" stroke-width="0.32291"/>
<path d="M0.868164 112.016H4.86122" stroke="black" stroke-width="0.32291"/>
<path d="M4.86122 37.8359H0.868164" stroke="black" stroke-width="0.32291"/>
<path d="M4.86122 64.7109H0.868164" stroke="black" stroke-width="0.32291"/>
<path d="M4.86122 91.7422H0.868164" stroke="black" stroke-width="0.32291"/>
<path d="M4.86122 118.766H0.868164" stroke="black" stroke-width="0.32291"/>
<path d="M4.86133 0.75H145.139V149.098H4.86133V0.75Z" fill="#E5E5DD" stroke="black" stroke-width="0.32291"/>
<path d="M5.55566 148.35H144.271V54.6562L5.55566 79.8815V148.35Z" fill="#DEDED4"/>
<path d="M5.55566 148.345H144.271V64.7109L5.55566 90.0863V148.345Z" fill="#D4D4C7"/>
<path d="M5.55566 148.347H144.271V88.4375L5.55566 113.663V148.347Z" fill="#CCCCBD"/>
<path d="M16.4932 10.8125H133.507V139.041H16.4932V10.8125Z" stroke="black" stroke-width="0.32291"/>
<path d="M24.3057 17.5703H39.9307V21.0238H24.3057V17.5703Z" fill="#CCCCBD"/>
<path d="M145.139 68.1719H148.958V81.6854H145.139V68.1719Z" fill="#4C4C16"/>
</svg>
