<svg width="150" height="150" viewBox="0 0 150 150" fill="none" xmlns="http://www.w3.org/2000/svg">
<path d="M0.750977 17.8906H141.292V146.19H0.750977V17.8906Z" fill="#65657F"/>
<path fill-rule="evenodd" clip-rule="evenodd" d="M139.789 20.9375H108.558V135.531H139.789V20.9375ZM73.1228 20.9375H107.357V135.531H73.1228V20.9375ZM71.9216 20.9375H37.0868V135.531H71.9216V20.9375ZM2.25195 20.9375H35.8856V135.531H2.25195V20.9375ZM79.7294 33.1202H81.5312L83.0327 34.2624L83.6333 38.0695V101.648L83.0327 105.455L81.5312 106.978H79.7294L78.2279 105.455L77.6273 101.648V38.0695L78.2279 34.2624L79.7294 33.1202ZM63.0628 33.1202H65.1649L66.2159 34.2624L67.1168 38.0695V101.648L66.2159 105.455L65.1649 106.978H63.0628L61.8616 105.455L61.261 101.648V38.0695L61.8616 34.2624L63.0628 33.1202ZM115.165 80.3284L116.066 81.0898L116.366 82.6126L116.066 84.8969H115.165H114.865L114.564 82.6126L114.865 81.0898L115.165 80.3284ZM115.165 86.4197L116.066 87.9426L116.366 89.4654L116.066 90.9883H115.165H114.865L114.564 89.4654L114.865 87.9426L115.165 86.4197ZM117.868 80.3284L118.468 81.0898L118.768 82.6126L118.468 84.8969H117.868H117.267L116.967 82.6126L117.267 81.0898L117.868 80.3284ZM117.868 86.4197L118.468 87.9426L118.768 89.4654L118.468 90.9883H117.868H117.267L116.967 89.4654L117.267 87.9426L117.868 86.4197ZM120.12 80.3284L120.72 81.0898L121.021 82.6126L120.72 84.8969H120.12H119.519L119.219 82.6126L119.519 81.0898L120.12 80.3284ZM120.12 86.4197L120.72 87.9426L121.021 89.4654L120.72 90.9883H120.12H119.519L119.219 89.4654L119.519 87.9426L120.12 86.4197ZM122.823 80.3284L123.423 81.0898L123.723 82.6126L123.423 84.8969H122.823H121.922L121.621 82.6126L121.922 81.0898L122.823 80.3284ZM122.823 86.4197L123.423 87.9426L123.723 89.4654L123.423 90.9883H122.823H121.922L121.621 89.4654L121.922 87.9426L122.823 86.4197ZM125.225 80.3284L125.826 81.0898L126.126 82.6126L125.826 84.8969H125.225H124.624L124.024 82.6126L124.624 81.0898L125.225 80.3284ZM125.225 86.4197L125.826 87.9426L126.126 89.4654L125.826 90.9883H125.225H124.624L124.024 89.4654L124.624 87.9426L125.225 86.4197ZM127.627 80.3284L128.228 81.0898L128.528 82.6126L128.228 84.8969H127.627H127.027L126.726 82.6126L127.027 81.0898L127.627 80.3284ZM127.627 86.4197L128.228 87.9426L128.528 89.4654L128.228 90.9883H127.627H127.027L126.726 89.4654L127.027 87.9426L127.627 86.4197ZM130.03 80.3284L130.63 81.0898L130.931 82.6126L130.63 84.8969H130.03H129.429L129.129 82.6126L129.429 81.0898L130.03 80.3284ZM130.03 86.4197L130.63 87.9426L130.931 89.4654L130.63 90.9883H130.03H129.429L129.129 89.4654L129.429 87.9426L130.03 86.4197ZM132.432 80.3284L133.333 81.0898L133.633 82.6126L133.333 84.8969H132.432H131.832L131.531 82.6126L131.832 81.0898L132.432 80.3284ZM132.432 86.4197L133.333 87.9426L133.633 89.4654L133.333 90.9883H132.432H131.832L131.531 89.4654L131.832 87.9426L132.432 86.4197ZM134.835 80.3284L135.735 81.0898L136.036 82.6126L135.735 84.8969H134.835H134.534L133.934 82.6126L134.534 81.0898L134.835 80.3284ZM134.835 86.4197L135.735 87.9426L136.036 89.4654L135.735 90.9883H134.835H134.534L133.934 89.4654L134.534 87.9426L134.835 86.4197ZM109.759 66.2421H110.66V79.5669H109.759V66.2421ZM74.9246 66.2421H76.1258V79.5669H74.9246V66.2421ZM68.9186 66.2421H69.8195V79.5669H68.9186V66.2421ZM34.0838 66.2421H34.6844V79.5669H34.0838V66.2421ZM2.25195 28.5517H3.15285V32.3588H2.25195V28.5517ZM2.25195 125.633H3.15285V129.44H2.25195V125.633ZM2.25195 76.1405H3.15285V79.5669H2.25195V76.1405ZM37.3871 28.5517H37.9877V32.3588H37.3871V28.5517ZM37.3871 125.633H37.9877V129.44H37.3871V125.633ZM37.3871 76.1405H37.9877V79.5669H37.3871V76.1405ZM106.456 28.5517H107.057V32.3588H106.456V28.5517ZM106.456 125.633H107.057V129.44H106.456V125.633ZM106.456 76.1405H107.057V79.5669H106.456V76.1405ZM138.889 28.5517H139.489V32.3588H138.889V28.5517ZM138.889 125.633H139.489V129.44H138.889V125.633ZM138.889 76.1405H139.489V79.5669H138.889V76.1405Z" fill="#BFBFFF"/>
<path d="M122.223 47.2109H128.229V57.1094H122.223V47.2109Z" fill="white"/>
<path d="M130.931 47.2109H136.787V57.1094H130.931V47.2109Z" fill="white"/>
<path d="M130.931 32.3594H136.787V41.1157H130.931V32.3594Z" fill="white"/>
<path d="M122.223 32.3594H128.229V41.1157H122.223V32.3594Z" fill="white"/>
<path d="M113.363 32.3594H119.519V41.1157H113.363V32.3594Z" fill="white"/>
<path d="M113.363 47.2109H119.519V57.1094H113.363V47.2109Z" fill="white"/>
<path d="M113.363 63.1953H119.519V72.3324H113.363V63.1953Z" fill="white"/>
<path d="M122.223 63.1953H128.229V72.3324H122.223V63.1953Z" fill="white"/>
<path d="M130.931 63.1953H136.787V72.3324H130.931V63.1953Z" fill="white"/>
<path d="M21.9219 32.3594H28.2282V41.1157H21.9219V32.3594Z" fill="white"/>
<path d="M13.0635 32.3594H19.2196V41.1157H13.0635V32.3594Z" fill="white"/>
<path fill-rule="evenodd" clip-rule="evenodd" d="M0.450195 138.578H141.291V148.477H0.450195V138.578ZM131.531 140.862H137.988V146.192H131.531V140.862ZM106.456 140.862H113.063V146.192H106.456V140.862ZM81.231 140.862H87.6874V146.192H81.231V140.862ZM55.8556 140.862H62.4622V146.192H55.8556V140.862ZM30.6304 140.862H37.3871V146.192H30.6304V140.862ZM5.5553 140.862H12.1619V146.192H5.5553V140.862Z" fill="#00007F"/>
<path d="M149.399 1.14062L141.291 17.1305V148.476L149.399 131.724V1.14062Z" fill="#3232B2"/>
<path d="M0.450195 17.8925H141.291L149.099 2.66406H8.258L0.450195 17.8925Z" fill="#7F7FFF"/>
<path fill-rule="evenodd" clip-rule="evenodd" d="M3.45365 5.71094H4.35455L4.65485 7.23378L4.95515 7.9952V10.2795V11.0409L4.65485 13.3252H4.35455H3.75395V16.3708H3.15335V13.3252H2.55275L2.25245 11.0409L1.95215 10.2795L2.25245 7.9952L2.55275 7.23378L3.15335 5.71094H3.45365ZM3.45365 7.23378L4.05425 7.9952H4.35455V8.75662V10.2795V11.0409V11.8023L4.05425 12.5637H3.45365H3.15335V11.8023L2.85305 11.0409V10.2795V8.75662L3.15335 7.9952L3.45365 7.23378ZM39.4897 5.71094H40.0903L40.6909 7.23378L40.9912 7.9952L41.2915 10.2795L40.9912 11.0409L40.6909 13.3252H40.0903V16.3708H39.4897V13.3252H39.1894H38.5888L38.2885 11.0409V10.2795V7.9952L38.5888 7.23378L39.1894 5.71094H39.4897ZM39.4897 7.23378L40.0903 7.9952L40.3906 8.75662L40.6909 10.2795L40.3906 11.0409L40.0903 11.8023V12.5637H39.4897H39.1894V11.8023L38.8891 11.0409V10.2795V8.75662L39.1894 7.9952L39.4897 7.23378ZM74.9251 5.71094H75.2254L75.826 7.23378L76.1263 7.9952V10.2795V11.0409L75.826 13.3252H75.2254H74.9251V16.3708H74.6248V13.3252H74.3245H73.7239L73.4236 11.0409V10.2795V7.9952L73.7239 7.23378L74.3245 5.71094H74.9251ZM74.9251 7.23378V7.9952H75.2254L75.5257 8.75662L75.826 10.2795L75.5257 11.0409L75.2254 11.8023L74.9251 12.5637H74.3245L74.0242 11.8023L73.7239 11.0409V10.2795V8.75662L74.0242 7.9952H74.3245L74.9251 7.23378ZM110.06 5.71094H110.661L110.961 7.23378L111.562 7.9952V10.2795V11.0409L110.961 13.3252H110.661H110.361V16.3708H109.76V13.3252H109.159L108.859 11.0409L108.559 10.2795L108.859 7.9952L109.159 7.23378L109.76 5.71094H110.06ZM110.06 7.23378L110.661 7.9952L110.961 8.75662V10.2795V11.0409L110.661 11.8023V12.5637H110.06H109.76L109.46 11.8023L109.159 11.0409V10.2795V8.75662L109.46 7.9952H109.76L110.06 7.23378ZM140.391 5.71094H140.991L141.291 7.23378L141.592 7.9952L141.892 10.2795L141.592 11.0409L141.291 13.3252H140.991H140.691V16.3708H140.09V13.3252H139.189L138.889 11.0409V10.2795V7.9952L139.189 7.23378L140.09 5.71094H140.391ZM140.391 7.23378L140.691 7.9952H140.991L141.291 8.75662V10.2795V11.0409L140.991 11.8023L140.691 12.5637H140.391H140.09L139.79 11.8023L139.49 11.0409V10.2795V8.75662L139.79 7.9952H140.09L140.391 7.23378Z" fill="black"/>
<path d="M118.168 32.3594H119.519V35.7858L118.168 32.3594Z" fill="#7F7F7F"/>
<path d="M118.168 47.2109H119.519V51.7795L118.168 47.2109Z" fill="#7F7F7F"/>
<path d="M118.168 63.1953H119.519V67.0024L118.168 63.1953Z" fill="#7F7F7F"/>
<path d="M127.027 32.3594H128.229V35.7858L127.027 32.3594Z" fill="#7F7F7F"/>
<path d="M127.027 47.2109H128.229V51.7795L127.027 47.2109Z" fill="#7F7F7F"/>
<path d="M127.027 63.1953H128.229V67.0024L127.027 63.1953Z" fill="#7F7F7F"/>
<path d="M135.735 32.3594H136.786V35.7858L135.735 32.3594Z" fill="#7F7F7F"/>
<path d="M135.735 47.2109H136.786V51.7795L135.735 47.2109Z" fill="#7F7F7F"/>
<path d="M135.735 63.1953H136.786V67.0024L135.735 63.1953Z" fill="#7F7F7F"/>
<path d="M114.564 32.3594H113.363V35.7858L114.564 32.3594Z" fill="#7F7F7F"/>
<path d="M114.564 47.2109H113.363V51.7795L114.564 47.2109Z" fill="#7F7F7F"/>
<path d="M114.564 63.1953H113.363V67.0024L114.564 63.1953Z" fill="#7F7F7F"/>
<path d="M123.424 32.3594H122.223V35.7858L123.424 32.3594Z" fill="#7F7F7F"/>
<path d="M123.424 47.2109H122.223V51.7795L123.424 47.2109Z" fill="#7F7F7F"/>
<path d="M123.424 63.1953H122.223V67.0024L123.424 63.1953Z" fill="#7F7F7F"/>
<path d="M132.132 32.3594H130.931V35.7858L132.132 32.3594Z" fill="#7F7F7F"/>
<path d="M132.132 47.2109H130.931V51.7795L132.132 47.2109Z" fill="#7F7F7F"/>
<path d="M132.132 63.1953H130.931V67.0024L132.132 63.1953Z" fill="#7F7F7F"/>
<path d="M115.465 41.1172H117.267H119.519V43.4015H113.363V41.1172H115.465Z" fill="#7F7F7F"/>
<path d="M115.465 56.3438H117.267V57.1052H119.519V58.628H113.363V57.1052H115.465V56.3438Z" fill="#7F7F7F"/>
<path d="M115.465 71.5703H117.267V72.3317H119.519V74.616H113.363V72.3317H115.465V71.5703Z" fill="#7F7F7F"/>
<path d="M124.325 41.1172H126.127H128.229V43.4015H122.223V41.1172H124.325Z" fill="#7F7F7F"/>
<path d="M124.325 56.3438H126.127V57.1052H128.229V58.628H122.223V57.1052H124.325V56.3438Z" fill="#7F7F7F"/>
<path d="M124.325 71.5703H126.127V72.3317H128.229V74.616H122.223V72.3317H124.325V71.5703Z" fill="#7F7F7F"/>
<path d="M133.333 41.1172H134.835H136.787V43.4015H130.931V41.1172H133.333Z" fill="#7F7F7F"/>
<path d="M133.333 56.3438H134.835V57.1052H136.787V58.628H130.931V57.1052H133.333V56.3438Z" fill="#7F7F7F"/>
<path d="M133.333 71.5703H134.835V72.3317H136.787V74.616H130.931V72.3317H133.333V71.5703Z" fill="#7F7F7F"/>
<path d="M18.0176 32.3594H19.2188V35.7858L18.0176 32.3594Z" fill="#7F7F7F"/>
<path d="M26.7266 32.3594H28.2281V35.7858L26.7266 32.3594Z" fill="#7F7F7F"/>
<path d="M14.1145 32.3594H13.0635V35.7858L14.1145 32.3594Z" fill="#7F7F7F"/>
<path d="M23.1231 32.3594H21.9219V35.7858L23.1231 32.3594Z" fill="#7F7F7F"/>
<path d="M15.3157 41.1172H16.8172H19.2196V43.4015H13.0635V41.1172H15.3157Z" fill="#7F7F7F"/>
<path d="M24.3243 41.1172H25.8258H28.2282V43.4015H21.9219V41.1172H24.3243Z" fill="#7F7F7F"/>
<path d="M127.027 64.7188L127.327 65.4802L125.225 71.5715H124.925L127.027 64.7188Z" fill="black"/>
<path d="M123.123 49.4922L125.225 56.345H124.925L123.123 49.4922Z" fill="black"/>
<path d="M124.625 33.125L125.226 41.1199H124.925L124.625 33.125Z" fill="black"/>
<path d="M116.667 32.3594L116.967 33.1208L116.366 41.1157L116.667 32.3594Z" fill="black"/>
<path d="M113.664 67.0036V66.2422L116.367 71.5721L113.664 67.0036Z" fill="black"/>
<path d="M63.3638 34.2656H64.8653L66.2167 35.7885L66.517 38.8342V100.89L66.2167 104.697L64.8653 105.459H63.3638L62.1626 104.697L61.8623 100.89V38.8342L62.1626 35.7885L63.3638 34.2656Z" fill="white"/>
<path d="M80.0303 34.2656H81.5318L82.733 35.7885L83.3336 38.8342V100.89L82.733 104.697L81.5318 105.459H80.0303L78.8291 104.697L78.2285 100.89V38.8342L78.8291 35.7885L80.0303 34.2656Z" fill="white"/>
<path d="M66.517 75.3828L61.8623 84.1392V100.89L62.1626 104.698L63.3638 105.459H64.8653L66.2167 104.698L66.517 100.89V75.3828Z" fill="#CCCCFF"/>
<path d="M83.3336 73.0938L78.2285 83.3729V100.886L78.8291 104.693L80.0303 105.454H81.5318L82.733 104.693L83.3336 100.886V73.0938Z" fill="#CCCCFF"/>
</svg>
