<svg width="150" height="150" viewBox="0 0 150 150" fill="none" xmlns="http://www.w3.org/2000/svg">
<g clip-path="url(#clip0_2109_158898)">
<path d="M42.334 0.600586H148.983V149.249H42.334V0.600586Z" fill="black" stroke="black" stroke-width="0.349627"/>
<path d="M48.4395 74.9248H143.08V144.745H48.4395V74.9248Z" fill="#B2B2B2" stroke="black" stroke-width="0.349627"/>
<path d="M48.44 74.9253L0.814453 13.6641H95.4549L143.08 74.9253H48.44Z" fill="#7F7F7F" stroke="black" stroke-width="0.349627"/>
<path d="M95.4549 5.10547H85.8891L76.5268 5.25562L67.5716 5.55592L58.8199 5.85622L50.4752 6.15652L42.7412 6.60697L35.4142 7.05742L28.6978 7.65802L22.5919 8.25862L14.6543 9.30967L8.34498 10.3607L2.84973 12.0124L1.01798 13.3637L0.814453 13.664H95.4549L100.543 10.9613L106.649 9.60997L113.162 8.70907L118.861 7.95832L125.17 7.35772L132.497 6.75712L140.231 6.15652L143.08 6.00637V5.10547H95.4549Z" fill="#CCCCCC" stroke="black" stroke-width="0.349627"/>
</g>
<defs>
<clipPath id="clip0_2109_158898">
<rect width="150" height="150" fill="white"/>
</clipPath>
</defs>
</svg>
