<svg width="150" height="150" viewBox="0 0 150 150" fill="none" xmlns="http://www.w3.org/2000/svg">
<g clip-path="url(#clip0_2109_158683)">
<path d="M0.150391 149.7V0.150391H149.55V149.7H0.150391Z" fill="black" stroke="black" stroke-width="0.3003"/>
<path d="M74.9249 149.85C116.305 149.85 149.85 116.305 149.85 74.9249C149.85 33.545 116.305 0 74.9249 0C33.545 0 0 33.545 0 74.9249C0 116.305 33.545 149.85 74.9249 149.85Z" fill="#E5E5E5" stroke="black" stroke-width="0.3003"/>
<path d="M74.9254 139.189C110.418 139.189 139.19 110.417 139.19 74.9249C139.19 39.4327 110.418 10.6606 74.9254 10.6606C39.4332 10.6606 10.6611 39.4327 10.6611 74.9249C10.6611 110.417 39.4332 139.189 74.9254 139.189Z" fill="black" stroke="black" stroke-width="0.3003"/>
<path d="M124.774 0.150391L149.549 24.775" stroke="#999999" stroke-width="0.3003"/>
<path d="M149.549 124.775L124.774 149.7" stroke="#999999" stroke-width="0.3003"/>
<path d="M11.8623 87.5376H12.4629" stroke="black" stroke-width="0.3003"/>
<path d="M12.4629 62.3125H11.8623" stroke="black" stroke-width="0.3003"/>
<path d="M24.775 0.150391L0.150391 24.775" stroke="#999999" stroke-width="0.3003"/>
<path d="M0.150391 124.775L24.775 149.7" stroke="#999999" stroke-width="0.3003"/>
<path d="M89.9403 135.586L92.3427 134.084L92.9433 131.081L89.9403 93.844V56.0062L92.9433 18.4687L92.3427 15.9161L89.64 14.1143L74.9252 12.3125L59.9102 14.1143L57.5078 15.9161L56.9072 18.4687L59.9102 56.0062V93.844L56.9072 131.081L57.5078 134.084L59.9102 135.886L74.9252 137.688L89.9403 135.586Z" fill="#4C4C4C" stroke="#7F7F7F" stroke-width="0.3003"/>
<path d="M81.2308 43.9938V17.2671H68.6182V43.9938L68.9185 45.6455L69.2188 46.3962V46.8467L69.8194 47.5974L71.0206 48.7986L72.2218 49.5494L73.7233 49.9998H73.8734H74.0236H74.1737H75.8254L77.0266 49.5494L78.0776 49.3992L79.1287 48.198L80.1797 47.147L80.7803 45.9458L81.0806 44.8947L81.2308 44.5944V43.9938Z" fill="#E5E5E5" stroke="black" stroke-width="0.3003"/>
</g>
<defs>
<clipPath id="clip0_2109_158683">
<rect width="150" height="150" fill="white"/>
</clipPath>
</defs>
</svg>
