<svg width="150" height="150" viewBox="0 0 150 150" fill="none" xmlns="http://www.w3.org/2000/svg">
<g clip-path="url(#clip0_2109_158362)">
<path d="M74.9249 149.85C116.305 149.85 149.85 116.305 149.85 74.9249C149.85 33.545 116.305 0 74.9249 0C33.545 0 0 33.545 0 74.9249C0 116.305 33.545 149.85 74.9249 149.85Z" fill="#B2B2B2"/>
<path d="M71.7718 142.943C111.41 142.943 143.544 110.944 143.544 71.4715C143.544 31.9989 111.41 0 71.7718 0C32.1333 0 0 31.9989 0 71.4715C0 110.944 32.1333 142.943 71.7718 142.943Z" fill="#919191"/>
<path d="M68.3183 136.637C106.049 136.637 136.637 106.049 136.637 68.3183C136.637 30.5872 106.049 0 68.3183 0C30.5872 0 0 30.5872 0 68.3183C0 106.049 30.5872 136.637 68.3183 136.637Z" fill="#6E6E6E"/>
<path d="M65.015 130.03C100.922 130.03 130.03 100.922 130.03 65.015C130.03 29.1082 100.922 0 65.015 0C29.1082 0 0 29.1082 0 65.015C0 100.922 29.1082 130.03 65.015 130.03Z" fill="#4C4C4C"/>
<path d="M63.0631 126.126C97.8918 126.126 126.126 97.8918 126.126 63.0631C126.126 28.2343 97.8918 0 63.0631 0C28.2343 0 0 28.2343 0 63.0631C0 97.8918 28.2343 126.126 63.0631 126.126Z" fill="#009900" stroke="black" stroke-width="0.3003"/>
<path d="M62.9132 98.3484C82.4007 98.3484 98.1985 82.5506 98.1985 63.0631C98.1985 43.5756 82.4007 27.7778 62.9132 27.7778C43.4257 27.7778 27.6279 43.5756 27.6279 63.0631C27.6279 82.5506 43.4257 98.3484 62.9132 98.3484Z" fill="#00A600"/>
</g>
<defs>
<clipPath id="clip0_2109_158362">
<rect width="150" height="150" fill="white"/>
</clipPath>
</defs>
</svg>
