<svg width="150" height="150" viewBox="0 0 150 150" fill="none" xmlns="http://www.w3.org/2000/svg">
<g clip-path="url(#clip0_2109_158842)">
<path d="M131.893 40.991L127.984 55.8558L115.638 69.5195L96.0908 78.2282L74.6916 81.2312L53.4982 78.2282L33.9508 69.5195L21.1936 55.8558L17.2842 40.991L21.1936 25.976L33.9508 12.3123L53.4982 3.60359L74.6916 0.600586L96.0908 3.60359L115.638 12.3123L127.984 25.976L131.893 40.991Z" fill="#E5E5E5" stroke="black" stroke-width="0.35154"/>
<path d="M123.456 40.9908L119.753 53.9037L109.67 65.4653L93.0037 72.8227L74.6909 75.2251L56.1724 72.8227L39.5057 65.4653L29.4234 53.9037L25.7197 40.9908L29.4234 27.9278L39.5057 16.3662L56.1724 9.00885L74.6909 6.60645L93.0037 9.00885L109.67 16.3662L119.753 27.9278L123.456 40.9908Z" fill="black"/>
<path d="M149.177 149.25H0.823242V135.586H149.177V149.25Z" fill="#7F7F7F" stroke="black" stroke-width="0.35154"/>
<path d="M149.177 135.586L111.934 40.9912H37.8603L0.823242 135.586H149.177Z" fill="#B2B2B2" stroke="black" stroke-width="0.35154"/>
</g>
<defs>
<clipPath id="clip0_2109_158842">
<rect width="150" height="150" fill="white"/>
</clipPath>
</defs>
</svg>
