<svg width="150" height="150" viewBox="0 0 150 150" fill="none" xmlns="http://www.w3.org/2000/svg">
<g clip-path="url(#clip0_2109_158000)">
<path d="M103.453 144.895L84.8348 150H65.015L46.3964 144.895L29.1291 134.985L14.8649 120.721L4.95496 103.453L0 84.8348V65.015L4.95496 46.3964L14.8649 29.1291L29.1291 14.8649L46.3964 4.95496L65.015 0H84.8348L103.453 4.95496L120.721 14.8649L134.985 29.1291L144.895 46.3964L150 65.015V84.8348L144.895 103.453L134.985 120.721L120.721 134.985L103.453 144.895Z" fill="#999999" stroke="black" stroke-width="0.3003"/>
<path d="M52.8527 138.138L34.8346 130.481L21.6214 117.868L12.6124 102.402L7.80762 84.3845V66.0662L12.6124 48.6487L21.6214 33.1833L34.8346 19.9701L50.3001 11.2614L67.7175 6.15625H86.0358L103.754 11.2614L116.967 20.2704L131.681 36.0361L96.3962 20.4205L28.6785 111.111L52.8527 138.138Z" fill="#E5E5E5" stroke="#B2B2B2" stroke-width="0.3003"/>
<path d="M103.754 144.895L84.8351 150H65.1654L20.2705 101.501L94.1444 15.165L144.895 46.096L150 65.0149V84.6846L144.895 103.754L134.985 120.871L120.871 134.985L103.754 144.895Z" fill="#333333" stroke="#333333" stroke-width="0.3003"/>
<path d="M96.9966 129.58L82.7323 133.634H66.9666L52.5522 129.58L39.0386 122.072L27.7774 110.811L20.2699 97.2974L16.2158 82.883V67.1172L20.2699 52.8529L27.7774 39.3394L39.0386 28.0782L52.5522 20.4205L66.9666 16.5166H82.7323L96.9966 20.4205L110.51 28.0782L121.771 39.3394L129.429 52.8529L133.333 67.1172V82.883L129.429 97.2974L121.771 110.811L110.51 122.072L96.9966 129.58Z" fill="#009933" stroke="black" stroke-width="0.3003"/>
<path d="M84.6846 116.967L69.6696 120.871H54.5044L39.6396 116.967L26.4263 109.159L15.4654 98.4984L7.50742 84.8347L3.60352 69.9699V54.8047L7.50742 39.9398L15.4654 26.4263L26.126 15.6155L39.6396 7.80771L54.5044 3.90381H69.6696L84.6846 7.80771L98.1981 15.6155L108.859 26.4263L116.667 39.9398L120.721 54.8047V69.9699L116.667 84.8347L108.859 98.4984L98.1981 109.159L84.6846 116.967Z" fill="#33CC33" stroke="black" stroke-width="0.3003"/>
<path d="M71.1707 107.207H53.453L36.7864 100.451L24.1737 87.6877L17.417 71.4715V53.7538L24.1737 37.0871L36.7864 24.3244L53.1527 17.7178H70.8704L87.387 24.3244L100.15 37.0871L106.906 53.4535V71.4715L100.15 87.6877L87.387 100.451L71.1707 107.207Z" stroke="#31B331" stroke-width="0.3003"/>
<path d="M69.6696 100.15H54.8047L40.6906 94.4443L30.0299 83.7837L24.3242 69.9699V55.105L30.0299 40.9909L40.6906 30.3302L54.5044 24.6245H69.3693L83.4834 30.3302L94.144 40.9909L99.8497 54.8047V69.9699L94.144 83.7837L83.4834 94.4443L69.6696 100.15Z" stroke="#31B331" stroke-width="0.3003"/>
</g>
<defs>
<clipPath id="clip0_2109_158000">
<rect width="150" height="150" fill="white"/>
</clipPath>
</defs>
</svg>
