<svg width="150" height="150" viewBox="0 0 150 150" fill="none" xmlns="http://www.w3.org/2000/svg">
<g clip-path="url(#clip0_2109_158856)">
<path d="M40.8408 18.1074L56.006 22.2226L69.6697 34.3626L78.2282 53.9099L81.2312 75.3091L78.2282 96.7082L69.6697 116.256L56.006 128.601L40.8408 132.511L25.8258 128.601L12.1621 116.256L3.60359 96.7082L0.600586 75.3091L3.60359 53.9099L12.1621 34.3626L25.8258 22.2226L40.8408 18.1074Z" fill="#E5E5E5" stroke="black" stroke-width="0.35154"/>
<path d="M40.8407 26.543L53.7536 30.0409L65.4653 40.5347L72.8227 56.9956L75.2251 75.3084L72.8227 93.6212L65.4653 110.288L53.7536 120.576L40.8407 124.074L28.0779 120.576L16.3662 110.288L9.00885 93.6212L6.60645 75.3084L9.00885 56.9956L16.3662 40.5347L28.0779 30.0409L40.8407 26.543Z" fill="black"/>
<path d="M149.249 0.823242V148.971H135.735V0.823242H149.249Z" fill="#7F7F7F" stroke="black" stroke-width="0.35154"/>
<path d="M135.736 0.823242L41.1416 37.8603V111.934L135.736 148.971V0.823242Z" fill="#B2B2B2" stroke="black" stroke-width="0.35154"/>
</g>
<defs>
<clipPath id="clip0_2109_158856">
<rect width="150" height="150" fill="white"/>
</clipPath>
</defs>
</svg>
