<svg width="150" height="150" viewBox="0 0 150 150" fill="none" xmlns="http://www.w3.org/2000/svg">
<g clip-path="url(#clip0_2109_158724)">
<path d="M85.5858 127.628C120.663 127.628 149.099 99.1916 149.099 64.1141C149.099 29.0366 120.663 0.600586 85.5858 0.600586C50.5082 0.600586 22.0723 29.0366 22.0723 64.1141C22.0723 99.1916 50.5082 127.628 85.5858 127.628Z" fill="#333333"/>
<path d="M27.7773 60.36L31.6812 39.6393L43.393 21.0206L62.0116 9.15879L82.7323 5.25488L103.303 9.15879L121.921 21.0206L133.783 39.6393L137.537 60.36L133.783 80.9306L121.921 99.5492L103.303 111.261L82.7323 115.165L62.0116 111.261L43.393 99.5492L31.6812 80.9306L27.7773 60.36Z" fill="#4C4C4C"/>
<path d="M33.9336 55.5556L37.2369 38.1382L47.1468 22.5225L62.9126 12.4625L80.33 9.15918L97.7474 12.4625L113.513 22.5225L123.423 38.1382L126.726 55.5556L123.423 72.973L113.513 88.7388L97.7474 98.6487L80.33 101.952L62.9126 98.6487L47.1468 88.7388L37.2369 72.973L33.9336 55.5556Z" fill="#666666"/>
<path d="M39.3389 51.8015L42.0416 37.3871L50.1497 24.6243L63.0626 16.5162L77.3269 13.8135L91.5911 16.5162L104.354 24.6243L112.612 37.3871L115.165 51.8015L112.612 66.0657L104.354 78.8285L91.5911 86.9366L77.3269 89.6393L63.0626 86.9366L50.1497 78.8285L42.0416 66.0657L39.3389 51.8015Z" fill="#7F7F7F"/>
<path d="M73.7239 77.1772C90.1431 77.1772 103.454 63.8668 103.454 47.4475C103.454 31.0282 90.1431 17.7178 73.7239 17.7178C57.3046 17.7178 43.9941 31.0282 43.9941 47.4475C43.9941 63.8668 57.3046 77.1772 73.7239 77.1772Z" fill="#999999"/>
<path d="M71.772 64.8653C83.7133 64.8653 93.3936 55.185 93.3936 43.2437C93.3936 31.3024 83.7133 21.6221 71.772 21.6221C59.8307 21.6221 50.1504 31.3024 50.1504 43.2437C50.1504 55.185 59.8307 64.8653 71.772 64.8653Z" fill="#B2B2B2"/>
<path d="M90.5405 39.0391L110.811 59.3093L20.5706 149.249L0.600586 129.279L90.5405 39.0391Z" fill="#999999" stroke="black" stroke-width="0.3003"/>
<path d="M90.5405 39.0391L0.600586 129.279" stroke="white" stroke-width="0.3003"/>
<path d="M75.8262 64.1138L85.7361 74.0237L98.1985 51.6514L75.8262 64.1138Z" fill="black" stroke="black" stroke-width="0.3003"/>
<path d="M98.1978 51.6514L85.7354 74.0237" stroke="white" stroke-width="0.3003"/>
</g>
<defs>
<clipPath id="clip0_2109_158724">
<rect width="150" height="150" fill="white"/>
</clipPath>
</defs>
</svg>
