<svg width="150" height="150" viewBox="0 0 150 150" fill="none" xmlns="http://www.w3.org/2000/svg">
<g clip-path="url(#clip0_2109_158991)">
<path d="M106.559 56.3066H148.978V149.25H106.559V56.3066Z" fill="#7F7F7F" stroke="black" stroke-width="0.391759"/>
<path d="M1.02246 56.3066H43.4415V149.25H1.02246V56.3066Z" fill="#7F7F7F" stroke="black" stroke-width="0.391759"/>
<path d="M112.181 59.459H143.612V145.945H112.181V59.459Z" fill="black"/>
<path d="M6.64355 59.459H38.0746V145.945H6.64355V59.459Z" fill="black"/>
<path d="M85.605 50.1504H138.246V102.703H117.036V62.4627H32.9644V102.703H11.7549V50.1504H64.3954V18.4688H85.605V50.1504Z" fill="#7F7F7F" stroke="black" stroke-width="0.391759"/>
<path d="M78.9606 54.0544H131.601V101.952H123.68V58.7091H26.3201V101.952H18.3984V54.0544H71.039V24.625H78.9606V54.0544Z" fill="#E5E5E5"/>
<path d="M74.8723 22.2222C85.0336 22.2222 93.2709 17.382 93.2709 11.4114C93.2709 5.44075 85.0336 0.600586 74.8723 0.600586C64.711 0.600586 56.4736 5.44075 56.4736 11.4114C56.4736 17.382 64.711 22.2222 74.8723 22.2222Z" fill="#FF0000" stroke="black" stroke-width="0.391759"/>
<path d="M69.2507 11.4113C72.3555 11.4113 74.8725 9.93235 74.8725 8.10799C74.8725 6.28363 72.3555 4.80469 69.2507 4.80469C66.1459 4.80469 63.6289 6.28363 63.6289 8.10799C63.6289 9.93235 66.1459 11.4113 69.2507 11.4113Z" fill="#FFD9D9"/>
</g>
<defs>
<clipPath id="clip0_2109_158991">
<rect width="150" height="150" fill="white"/>
</clipPath>
</defs>
</svg>
