<svg width="150" height="150" viewBox="0 0 150 150" fill="none" xmlns="http://www.w3.org/2000/svg">
<g clip-path="url(#clip0_2109_158711)">
<path d="M64.1141 127.628C99.1916 127.628 127.628 99.1916 127.628 64.1141C127.628 29.0366 99.1916 0.600586 64.1141 0.600586C29.0366 0.600586 0.600586 29.0366 0.600586 64.1141C0.600586 99.1916 29.0366 127.628 64.1141 127.628Z" fill="#333333"/>
<path d="M6.30664 60.2098L10.3607 39.6393L22.0724 21.0206L40.691 9.15879L61.2616 5.25488L81.8322 9.15879L100.451 21.0206L112.313 39.6393L116.217 60.2098L112.313 80.7804L100.451 99.5492L81.8322 111.261L61.2616 115.165L40.691 111.261L22.0724 99.5492L10.3607 80.7804L6.30664 60.2098Z" fill="#4C4C4C"/>
<path d="M12.6123 55.5556L15.9156 38.1382L25.8255 22.5225L41.5913 12.4625L59.0087 9.15918L76.4261 12.4625L92.0417 22.5225L102.102 38.1382L105.405 55.5556L102.102 72.973L92.0417 88.7388L76.4261 98.6487L59.0087 101.952L41.5913 98.6487L25.8255 88.7388L15.9156 72.973L12.6123 55.5556Z" fill="#666666"/>
<path d="M18.0176 51.6513L20.7203 37.5372L28.8284 24.6243L41.7413 16.5162L55.8554 13.8135L70.1197 16.5162L82.8824 24.6243L91.1407 37.5372L93.8434 51.6513L91.1407 65.9156L82.8824 78.8285L70.1197 86.9366L55.8554 89.6393L41.7413 86.9366L28.8284 78.8285L20.7203 65.9156L18.0176 51.6513Z" fill="#7F7F7F"/>
<path d="M52.4026 77.1772C68.8219 77.1772 82.1323 63.8668 82.1323 47.4475C82.1323 31.0282 68.8219 17.7178 52.4026 17.7178C35.9833 17.7178 22.6729 31.0282 22.6729 47.4475C22.6729 63.8668 35.9833 77.1772 52.4026 77.1772Z" fill="#999999"/>
<path d="M50.4507 64.8653C62.392 64.8653 72.0723 55.185 72.0723 43.2437C72.0723 31.3024 62.392 21.6221 50.4507 21.6221C38.5094 21.6221 28.8291 31.3024 28.8291 43.2437C28.8291 55.185 38.5094 64.8653 50.4507 64.8653Z" fill="#B2B2B2"/>
<path d="M39.0391 59.3093L59.3093 39.0391L149.249 129.279L129.279 149.249L39.0391 59.3093Z" fill="#999999" stroke="black" stroke-width="0.3003"/>
<path d="M39.0391 59.3093L59.3093 39.0391" stroke="white" stroke-width="0.3003"/>
<path d="M64.1138 74.0237L74.0237 64.1138L51.6514 51.6514L64.1138 74.0237Z" fill="black" stroke="black" stroke-width="0.3003"/>
<path d="M64.1143 74.0242L74.0242 64.1143" stroke="white" stroke-width="0.3003"/>
</g>
<defs>
<clipPath id="clip0_2109_158711">
<rect width="150" height="150" fill="white"/>
</clipPath>
</defs>
</svg>
