<svg width="150" height="150" viewBox="0 0 150 150" fill="none" xmlns="http://www.w3.org/2000/svg">
<g clip-path="url(#clip0_2109_158768)">
<path d="M74.9249 149.249C115.973 149.249 149.249 115.973 149.249 74.9249C149.249 33.8767 115.973 0.600586 74.9249 0.600586C33.8767 0.600586 0.600586 33.8767 0.600586 74.9249C0.600586 115.973 33.8767 149.249 74.9249 149.249Z" fill="#4C4C4C"/>
<path d="M74.9252 139.94C110.832 139.94 139.94 110.832 139.94 74.9252C139.94 39.0184 110.832 9.91016 74.9252 9.91016C39.0184 9.91016 9.91016 39.0184 9.91016 74.9252C9.91016 110.832 39.0184 139.94 74.9252 139.94Z" fill="black"/>
<path d="M74.9245 133.033C107.017 133.033 133.033 107.017 133.033 74.9245C133.033 42.8323 107.017 16.8164 74.9245 16.8164C42.8323 16.8164 16.8164 42.8323 16.8164 74.9245C16.8164 107.017 42.8323 133.033 74.9245 133.033Z" stroke="white" stroke-width="0.3003"/>
<path d="M70.2705 44.7443L75.0753 16.8164L79.5798 44.7443H70.2705Z" fill="#FF0000"/>
</g>
<defs>
<clipPath id="clip0_2109_158768">
<rect width="150" height="150" fill="white"/>
</clipPath>
</defs>
</svg>
