<svg width="150" height="150" viewBox="0 0 150 150" fill="none" xmlns="http://www.w3.org/2000/svg">
<g clip-path="url(#clip0_2109_158775)">
<path d="M74.9249 0L90.5405 1.8018L105.105 6.75676L117.718 13.5135L129.429 23.2733L137.237 34.985L145.045 47.5976L148.949 61.2613L150 74.9249L148.949 90.5405L145.045 105.105L137.237 117.718L129.429 128.529L117.718 137.237L105.105 145.045L90.5405 148.949L74.9249 150L61.2613 148.949L46.6967 145.045L34.985 137.237L23.2733 128.529L13.5135 117.718L6.75676 105.105L1.8018 90.5405L0 74.9249L1.8018 61.2613L6.75676 47.5976L13.5135 34.985L23.2733 23.2733L34.985 13.5135L46.6967 6.75676L61.2613 1.8018L74.9249 0Z" fill="#7F7F7F" stroke="black" stroke-width="0.3003"/>
<path d="M74.9254 10.6611L88.5891 11.7122L101.202 15.4659L112.012 22.3728L121.622 30.1807L129.43 39.9404L134.235 50.4509L138.139 63.2137L139.19 74.9254L138.139 88.5891L134.235 101.202L129.43 112.012L121.622 121.622L112.012 128.529L101.202 135.286L88.5891 138.139L74.9254 140.241L63.2137 138.139L51.502 135.286L40.8413 128.529L31.0816 121.622L23.2737 112.012L16.517 101.202L11.7122 88.5891L10.6611 74.9254L11.7122 63.2137L16.517 50.4509L23.2737 39.9404L31.0816 30.1807L40.8413 22.3728L51.502 15.4659L63.2137 11.7122L74.9254 10.6611Z" fill="#191919"/>
<path d="M88.7384 10.2102L75.0747 9.15918L74.7744 12.012L88.4381 13.0631H88.1378L89.0387 10.2102H88.8885H88.7384Z" fill="black"/>
<path d="M101.651 14.1139L89.0386 10.21L88.1377 13.0628L100.75 16.8166H100.45L101.952 14.264L101.801 14.1139H101.651Z" fill="black"/>
<path d="M112.913 21.3217L112.763 21.1716L101.952 14.2646L100.45 16.8172L111.111 23.7241V23.574L112.913 21.3217Z" fill="black"/>
<path d="M122.523 29.1291L112.913 21.3213L111.111 23.5735L120.721 31.3813L120.571 31.081L122.823 29.2792L122.673 29.1291H122.523Z" fill="black"/>
<path d="M130.63 39.0391L122.823 29.2793L120.57 31.0811L128.378 40.8409L128.228 40.5406L130.781 39.3394V39.1892L130.63 39.0391Z" fill="black"/>
<path d="M135.586 49.8494L130.781 39.3389L128.229 40.5401L133.033 51.0506L132.883 50.9004L135.736 50.1497V49.9995L135.586 49.8494Z" fill="black"/>
<path d="M139.64 62.763L135.736 50.1504L132.883 50.9011L136.787 63.6639V63.3636L139.64 63.0633V62.9132V62.763Z" fill="black"/>
<path d="M140.691 74.7752L139.64 63.0635L136.787 63.3638L137.838 75.0755V74.7752L140.691 75.0755V74.9253V74.7752Z" fill="black"/>
<path d="M140.691 75.0747L139.189 74.9246L137.838 74.7744L140.691 75.0747V74.9246V74.7744V75.0747Z" fill="black"/>
<path d="M139.64 88.7384L140.691 75.0747L137.838 74.7744L136.787 88.4381V88.1378L139.64 89.0387V88.8885V88.7384Z" fill="black"/>
<path d="M135.736 101.651L139.64 89.0386L136.787 88.1377L132.883 100.75L133.033 100.6L135.586 101.801H135.736V101.651Z" fill="black"/>
<path d="M130.781 112.613L135.586 101.802L133.033 100.601L128.229 111.411L128.379 111.111L130.631 112.913L130.781 112.763V112.613Z" fill="black"/>
<path d="M122.823 122.523L130.63 112.913L128.378 111.111L120.57 120.721L120.871 120.421L122.522 122.823H122.672L122.823 122.523Z" fill="black"/>
<path d="M112.763 129.73L122.523 122.823L120.871 120.421L111.111 127.328V127.178L112.763 129.73Z" fill="black"/>
<path d="M101.952 136.486L112.763 129.729L111.111 127.177L100.45 133.934L100.901 133.783L101.501 136.636H101.802L101.952 136.486Z" fill="black"/>
<path d="M88.8887 139.64L101.501 136.637L100.901 133.784L88.2881 136.787L88.7385 139.64H88.8887Z" fill="black"/>
<path d="M75.0755 141.592L88.8893 139.64L88.2887 136.787L74.625 138.739H75.0755L74.625 141.592L74.9253 141.742L75.0755 141.592Z" fill="black"/>
<path d="M74.625 141.591L74.9253 140.24L75.0755 138.738L74.625 141.591L74.9253 141.741L75.0755 141.591H74.625Z" fill="black"/>
<path d="M62.9131 139.64H63.0632L74.6248 141.592L75.0752 138.739L63.5137 136.787H63.6638L62.9131 139.64Z" fill="black"/>
<path d="M51.2014 136.637L62.9131 139.64L63.6639 136.787L51.9522 133.784L52.2525 133.934L50.751 136.487L50.9011 136.637H51.2014Z" fill="black"/>
<path d="M39.9395 129.729H40.0896L50.7503 136.486L52.2518 133.934L41.5911 127.177L41.7413 127.327L39.9395 129.729Z" fill="black"/>
<path d="M30.3306 122.823L39.9402 129.73L41.742 127.328L31.9822 120.421L32.2825 120.721L30.0303 122.523V122.823H30.3306Z" fill="black"/>
<path d="M22.0723 112.763L22.2224 112.913L30.0302 122.523L32.2825 120.721L24.4747 111.111H24.6248L22.0723 112.763Z" fill="black"/>
<path d="M15.0146 101.802L15.1648 101.952L22.0717 112.763L24.6243 111.111L17.7174 100.45L17.8675 100.6L15.0146 101.802H15.1648L15.3149 101.952L15.0146 101.802Z" fill="black"/>
<path d="M10.21 89.1895L15.0148 101.802L17.8676 100.601L13.0628 87.9883V88.4387L10.21 88.739V88.8892V89.1895Z" fill="black"/>
<path d="M9.15918 75.0747L10.2102 88.7384L13.0631 88.4381L12.012 74.7744V75.0747L9.15918 74.7744V74.9246V75.0747Z" fill="black"/>
<path d="M9.15918 74.7744L10.6607 74.9246L12.012 75.0747L9.15918 74.7744V74.9246V75.0747V74.7744Z" fill="black"/>
<path d="M10.2102 63.063L9.15918 74.7747L12.012 75.075L13.0631 63.3633V63.6636L10.2102 62.7627V62.9128V63.063Z" fill="black"/>
<path d="M15.0148 49.9995L10.21 62.7623L13.0628 63.6632L17.8676 51.0506L17.7175 51.3509L15.3151 49.6992L15.1649 49.8494L15.0148 49.9995Z" fill="black"/>
<path d="M22.0722 39.1892L15.3154 49.6997L17.7178 51.3514L24.4746 40.6907V40.8409L22.2223 39.0391H22.0722V39.1892Z" fill="black"/>
<path d="M30.0305 29.2791L22.2227 39.0388L24.4749 40.8406L32.2827 31.0809L31.9824 31.3812L30.1806 29.1289H30.0305V29.2791Z" fill="black"/>
<path d="M39.9404 21.321L30.1807 29.1289L31.9825 31.3811L41.7422 23.5733L41.5921 23.7235L40.0906 21.1709H39.9404V21.321Z" fill="black"/>
<path d="M50.7505 14.2644L40.0898 21.1713L41.5913 23.7239L52.252 16.817H51.9517L51.0508 14.1143H50.9007L50.7505 14.2644Z" fill="black"/>
<path d="M62.7625 10.21L51.0508 14.1139L51.9517 16.8166L63.6634 13.0628H63.3631L63.0628 10.21H62.9126H62.7625Z" fill="black"/>
<path d="M74.9253 10.6607L74.7752 9.15918L63.0635 10.2102L63.3638 13.0631L75.0755 12.012L74.9253 10.6607Z" fill="black"/>
<path d="M70.1201 10.6611H85.5856V91.5921H70.1201V10.6611Z" fill="#CCCCCC"/>
<path d="M85.5856 9.15918H70.1201V12.012H85.5856L84.0841 10.6607H87.0871V9.15918H85.5856Z" fill="black"/>
<path d="M87.087 91.5921V10.6611H84.084V91.5921L85.5855 90.0906V92.9434H87.087V91.5921Z" fill="black"/>
<path d="M70.1197 92.9427H85.5851V90.0898H70.1197L71.471 91.5913H68.6182V92.9427H70.1197Z" fill="black"/>
<path d="M70.1197 10.6611H68.6182V91.5921H71.471V10.6611H70.1197Z" fill="black"/>
</g>
<defs>
<clipPath id="clip0_2109_158775">
<rect width="150" height="150" fill="white"/>
</clipPath>
</defs>
</svg>
