<svg width="150" height="150" viewBox="0 0 150 150" fill="none" xmlns="http://www.w3.org/2000/svg">
<g clip-path="url(#clip0_2109_158481)">
<path d="M5.17782 8.10811L0 67.2673L0.470711 69.97L2.66736 71.4715L7.21757 74.7748L7.84519 76.5766L7.37448 91.2913L10.5126 105.706L17.1025 119.069L26.5167 130.931L38.4414 140.09L52.249 146.547L67.1548 150H82.6883L97.751 146.547L111.559 140.09L123.483 130.931L132.897 119.069L139.331 105.706L142.469 91.2913L142.312 76.5766L142.626 74.7748L147.49 71.4715L149.529 69.97L150 67.2673L144.979 8.10811L143.567 3.9039L140.115 0.900901L135.722 0H14.1213L9.72803 0.900901L6.58996 3.9039L5.17782 8.10811Z" fill="#4C4C4C" stroke="black" stroke-width="0.30698"/>
<path d="M64.017 27.928H85.9835L100.419 31.5316L113.599 38.5887L124.425 48.4986L132.427 60.6608L136.82 74.7749L139.488 69.3695L143.881 65.3154L139.174 8.55867L138.076 6.30642L135.722 5.25537H14.1216L12.0818 6.30642L10.8266 8.55867L5.80566 64.865L10.5128 68.919L13.337 74.3244L17.7304 60.5106L25.4186 48.3485L36.5588 38.2884L49.4249 31.5316L64.017 27.928Z" fill="black" stroke="black" stroke-width="0.30698"/>
<path d="M66.3706 24.3242V32.132L52.4062 36.1861L39.8539 43.093L29.812 53.3032L22.7514 65.4654L19.1426 79.129L19.2995 93.093L23.0652 106.456L30.5966 118.468L40.9522 128.378L53.6614 135.285L67.6258 138.889H82.2179L96.3392 135.285L109.048 128.378L119.404 118.468L126.779 106.456L130.701 93.093L131.015 79.129L127.249 65.4654L120.032 53.3032L109.99 43.093L97.5945 36.1861L83.4731 32.132V24.3242H66.3706Z" fill="#CCCCCC" stroke="black" stroke-width="0.30698"/>
<path d="M74.8427 132.432C102.139 132.432 124.267 111.257 124.267 85.1352C124.267 59.0136 102.139 37.8379 74.8427 37.8379C47.5462 37.8379 25.418 59.0136 25.418 85.1352C25.418 111.257 47.5462 132.432 74.8427 132.432Z" fill="black"/>
<path d="M27.458 85.1349L30.9099 68.1679L41.1086 52.7025L57.1128 42.9427L75.1567 39.7896L92.8869 42.9427L109.048 52.7025L119.247 68.1679L122.542 85.1349L119.247 102.102L109.048 117.567L92.8869 127.327L75.1567 130.48L57.1128 127.327L41.1086 117.567L30.9099 102.102L27.458 85.1349Z" fill="#FFCC00"/>
<path d="M65.7424 103.754C81.687 103.754 94.6127 91.3845 94.6127 76.1262C94.6127 60.8678 81.687 48.4985 65.7424 48.4985C49.7977 48.4985 36.8721 60.8678 36.8721 76.1262C36.8721 91.3845 49.7977 103.754 65.7424 103.754Z" fill="#FFE06B"/>
<path d="M61.1921 90.3906C72.024 90.3906 80.805 81.9875 80.805 71.6218C80.805 61.2561 72.024 52.853 61.1921 52.853C50.3601 52.853 41.5791 61.2561 41.5791 71.6218C41.5791 81.9875 50.3601 90.3906 61.1921 90.3906Z" fill="#FFEDA3"/>
<path d="M56.4855 77.1772C62.2048 77.1772 66.8412 72.7404 66.8412 67.2673C66.8412 61.7942 62.2048 57.3574 56.4855 57.3574C50.7663 57.3574 46.1299 61.7942 46.1299 67.2673C46.1299 72.7404 50.7663 77.1772 56.4855 77.1772Z" fill="#FFFAD9"/>
</g>
<defs>
<clipPath id="clip0_2109_158481">
<rect width="150" height="150" fill="white"/>
</clipPath>
</defs>
</svg>
