<svg width="150" height="150" viewBox="0 0 150 150" fill="none" xmlns="http://www.w3.org/2000/svg">
<g clip-path="url(#clip0_2109_158647)">
<path d="M0 0H150L141.848 149.55L11.413 150L0 0Z" fill="black" stroke="#7F7F7F" stroke-width="0.571326"/>
<path d="M74.4561 6.60645L99.9996 16.8167H85.8691L86.4126 35.5854H63.0431L62.4996 16.8167H48.3691L74.4561 6.60645Z" fill="#E5E5E5" stroke="#7F7F7F" stroke-width="0.571326"/>
<path d="M147.826 41.2911L111.957 39.0388L75.5439 38.5884L39.1308 39.0388L2.71777 41.2911" stroke="#7F7F7F" stroke-width="0.571326"/>
<path d="M10.3262 135.736L143.478 135.436" stroke="#7F7F7F" stroke-width="0.571326"/>
<path d="M10.3262 134.234L143.478 134.084" stroke="#7F7F7F" stroke-width="0.571326"/>
<path d="M9.23926 119.82L144.022 119.669" stroke="#7F7F7F" stroke-width="0.571326"/>
<path d="M9.23926 118.469L144.022 118.318" stroke="#7F7F7F" stroke-width="0.571326"/>
<path d="M7.6084 104.054L144.565 103.904" stroke="#7F7F7F" stroke-width="0.571326"/>
<path d="M7.6084 102.403L144.565 102.252" stroke="#7F7F7F" stroke-width="0.571326"/>
<path d="M7.06543 88.1382L145.652 87.8379" stroke="#7F7F7F" stroke-width="0.571326"/>
<path d="M7.06543 86.6365L145.652 86.4863" stroke="#7F7F7F" stroke-width="0.571326"/>
<path d="M5.43457 72.3726L146.195 72.0723" stroke="#7F7F7F" stroke-width="0.571326"/>
<path d="M5.43457 70.8709L146.195 70.7207" stroke="#7F7F7F" stroke-width="0.571326"/>
<path d="M4.34766 56.4566L146.739 56.1562" stroke="#7F7F7F" stroke-width="0.571326"/>
<path d="M4.34766 54.8049L147.282 54.6548" stroke="#7F7F7F" stroke-width="0.571326"/>
<path d="M144.565 108.258L141.848 149.55" stroke="#7F7F7F" stroke-width="0.571326"/>
<path d="M11.4131 150L141.848 149.55" stroke="#7F7F7F" stroke-width="0.571326"/>
<path d="M8.15234 108.859L11.4132 150" stroke="#7F7F7F" stroke-width="0.571326"/>
<path d="M11.4131 150L141.848 149.55" stroke="#7F7F7F" stroke-width="0.571326"/>
</g>
<defs>
<clipPath id="clip0_2109_158647">
<rect width="150" height="150" fill="white"/>
</clipPath>
</defs>
</svg>
