<svg width="150" height="150" viewBox="0 0 150 150" fill="none" xmlns="http://www.w3.org/2000/svg">
<g clip-path="url(#clip0_2109_158354)">
<path d="M74.9249 149.249C115.973 149.249 149.249 115.973 149.249 74.9249C149.249 33.8767 115.973 0.600586 74.9249 0.600586C33.8767 0.600586 0.600586 33.8767 0.600586 74.9249C0.600586 115.973 33.8767 149.249 74.9249 149.249Z" fill="#333333"/>
<path d="M74.9245 124.475C102.29 124.475 124.474 102.29 124.474 74.925C124.474 47.5596 102.29 25.3755 74.9245 25.3755C47.5591 25.3755 25.375 47.5596 25.375 74.925C25.375 102.29 47.5591 124.475 74.9245 124.475Z" fill="#666666"/>
<path d="M70.8704 112.012C93.6749 112.012 112.162 93.525 112.162 70.7205C112.162 47.9159 93.6749 29.4292 70.8704 29.4292C48.0658 29.4292 29.5791 47.9159 29.5791 70.7205C29.5791 93.525 48.0658 112.012 70.8704 112.012Z" fill="#7F7F7F"/>
<path d="M66.6668 99.6999C84.9105 99.6999 99.6999 84.9105 99.6999 66.6668C99.6999 48.4232 84.9105 33.6338 66.6668 33.6338C48.4232 33.6338 33.6338 48.4232 33.6338 66.6668C33.6338 84.9105 48.4232 99.6999 66.6668 99.6999Z" fill="#999999"/>
<path d="M62.6127 87.3874C76.2954 87.3874 87.3874 76.2954 87.3874 62.6127C87.3874 48.9299 76.2954 37.8379 62.6127 37.8379C48.9299 37.8379 37.8379 48.9299 37.8379 62.6127C37.8379 76.2954 48.9299 87.3874 62.6127 87.3874Z" fill="#B2B2B2"/>
</g>
<defs>
<clipPath id="clip0_2109_158354">
<rect width="150" height="150" fill="white"/>
</clipPath>
</defs>
</svg>
