<svg width="150" height="150" viewBox="0 0 150 150" fill="none" xmlns="http://www.w3.org/2000/svg">
<path d="M93.5435 106.378V148.725H0.600586V106.378H93.5435Z" fill="#7F7F7F" stroke="black" stroke-width="0.391426"/>
<path d="M93.5435 1.02051V43.3674H0.600586V1.02051H93.5435Z" fill="#7F7F7F" stroke="black" stroke-width="0.391426"/>
<path d="M90.5409 111.99V143.368H3.9043V111.99H90.5409Z" fill="black"/>
<path d="M90.5409 6.63281V38.2655H3.9043V6.63281H90.5409Z" fill="black"/>
<path d="M99.7 85.4589V138.01H47.1475V116.836H87.3877V32.9078H47.1475V11.7344H99.7V64.2854H131.532V85.4589H99.7Z" fill="#7F7F7F" stroke="black" stroke-width="0.391426"/>
<path d="M95.7954 78.8264V131.377H47.8975V123.469H91.1407V26.2754H47.8975V18.3672H95.7954V70.9182H125.225V78.8264H95.7954Z" fill="#E5E5E5"/>
<path d="M138.288 92.8568C144.259 92.8568 149.099 84.6334 149.099 74.4894C149.099 64.3454 144.259 56.1221 138.288 56.1221C132.318 56.1221 127.478 64.3454 127.478 74.4894C127.478 84.6334 132.318 92.8568 138.288 92.8568Z" fill="#FF0000" stroke="black" stroke-width="0.391426"/>
<path d="M134.985 74.745C136.809 74.745 138.288 72.2323 138.288 69.1328C138.288 66.0332 136.809 63.5205 134.985 63.5205C133.161 63.5205 131.682 66.0332 131.682 69.1328C131.682 72.2323 133.161 74.745 134.985 74.745Z" fill="#FFD9D9"/>
</svg>
