<svg width="150" height="150" viewBox="0 0 150 150" fill="none" xmlns="http://www.w3.org/2000/svg">
<g clip-path="url(#clip0_2109_158076)">
<path d="M74.8498 149.55C116.105 149.55 149.549 116.139 149.549 74.9249C149.549 33.7109 116.105 0.300293 74.8498 0.300293C33.5944 0.300293 0.150391 33.7109 0.150391 74.9249C0.150391 116.139 33.5944 149.55 74.8498 149.55Z" fill="black"/>
<path d="M146.994 55.5554L149.549 74.9248H150L147.445 55.4053H147.295L146.994 55.5554Z" fill="black"/>
<path d="M139.329 37.8379L146.994 55.5556L147.295 55.4055L139.78 37.5376H139.63L139.329 37.8379Z" fill="black"/>
<path d="M127.605 22.2222L139.329 37.8378L139.63 37.5375L127.906 22.072V21.9219H127.756L127.605 22.2222Z" fill="black"/>
<path d="M112.124 10.3601L127.605 22.222L127.755 21.9217L112.425 10.0598V9.90967L112.124 10.3601Z" fill="black"/>
<path d="M94.2383 3.00318L112.124 10.3605L112.425 9.91009L94.3886 2.70288V2.55273L94.2383 3.00318Z" fill="black"/>
<path d="M74.8496 0.3003L94.2384 3.003L94.3887 2.55255L74.8496 0V0.3003Z" fill="black"/>
<path d="M55.6112 3.003L74.8497 0.3003V0L55.4609 2.55255V2.7027L55.6112 3.003Z" fill="black"/>
<path d="M37.575 10.3603L55.6111 3.00294L55.4608 2.70264L37.2744 9.90984V10.06L37.575 10.3603Z" fill="black"/>
<path d="M22.2449 22.2222L37.5756 10.3604L37.275 10.0601L22.0946 21.9219H21.9443V22.0721L22.2449 22.2222Z" fill="black"/>
<path d="M10.3708 37.838L22.2446 22.2224L21.944 22.0723L10.0702 37.5377H9.91992L10.3708 37.838Z" fill="black"/>
<path d="M2.85618 55.5556L10.3712 37.8379L9.9203 37.5376L2.55557 55.4055H2.40527L2.85618 55.5556Z" fill="black"/>
<path d="M0.300601 74.9248L2.85571 55.5554L2.40481 55.4053L0 74.9248H0.300601Z" fill="black"/>
<path d="M2.85571 94.2942L0.300601 74.9248H0L2.40481 94.4443H2.55511L2.85571 94.2942Z" fill="black"/>
<path d="M10.3703 112.012L2.85529 94.2944L2.55469 94.4446L9.91942 112.312H10.0697L10.3703 112.012Z" fill="black"/>
<path d="M22.2447 127.778L10.3709 112.012L10.0703 112.313L21.9441 127.928V128.078H22.0944L22.2447 127.778Z" fill="black"/>
<path d="M37.5747 139.49L22.2441 127.778L22.0938 128.078L37.2741 139.79V139.94L37.5747 139.49Z" fill="black"/>
<path d="M55.6111 146.997L37.575 139.489L37.2744 139.94L55.4608 147.297V147.447L55.6111 146.997Z" fill="black"/>
<path d="M74.8497 149.55L55.6112 146.997L55.4609 147.448L74.8497 150V149.55Z" fill="black"/>
<path d="M94.2384 146.997L74.8496 149.55V150L94.3887 147.448V147.297L94.2384 146.997Z" fill="black"/>
<path d="M112.124 139.489L94.2383 146.997L94.3886 147.297L112.425 139.94V139.79L112.124 139.489Z" fill="black"/>
<path d="M127.605 127.778L112.124 139.49L112.425 139.79L127.755 128.078H127.906V127.928L127.605 127.778Z" fill="black"/>
<path d="M139.329 112.012L127.605 127.778L127.906 127.928L139.63 112.313H139.78L139.329 112.012Z" fill="black"/>
<path d="M146.994 94.2944L139.329 112.012L139.78 112.312L147.295 94.4446H147.445L146.994 94.2944Z" fill="black"/>
<path d="M149.549 74.9248L146.994 94.2942L147.445 94.4443L150 74.9248H149.549Z" fill="black"/>
<path d="M45.9921 9.75979L9.6194 46.0961L8.41699 49.6997V100.15L9.6194 103.754L45.9921 140.24L49.5994 141.441H100.1L103.708 140.24L140.231 103.754L141.132 100.15V49.6997L140.231 46.0961L103.708 9.75979L100.1 8.55859H49.5994L45.9921 9.75979Z" fill="#E5E5E5"/>
<path d="M9.61905 46.0959L45.9918 9.75953L45.8415 9.60938L9.46875 45.9457V46.0959H9.61905Z" fill="black"/>
<path d="M8.4169 49.6998L9.61931 46.0962H9.46901L8.2666 49.5496V49.6998H8.4169Z" fill="black"/>
<path d="M8.4169 100.15V49.6997H8.2666V100.15V100.3L8.4169 100.15Z" fill="black"/>
<path d="M9.61931 103.754L8.4169 100.15L8.2666 100.301L9.46901 103.754V103.904L9.61931 103.754Z" fill="black"/>
<path d="M45.9918 140.24L9.61905 103.754L9.46875 103.904L45.8415 140.391H45.9918V140.24Z" fill="black"/>
<path d="M49.5994 141.441L45.9922 140.24V140.39L49.4491 141.592H49.5994V141.441Z" fill="black"/>
<path d="M100.101 141.441H49.5996V141.592H100.101H100.251L100.101 141.441Z" fill="black"/>
<path d="M103.708 140.24L100.101 141.441L100.251 141.592L103.708 140.39H103.858L103.708 140.24Z" fill="black"/>
<path d="M140.23 103.754L103.707 140.24L103.857 140.391L140.38 103.904V103.754H140.23Z" fill="black"/>
<path d="M141.132 100.15L140.23 103.754H140.381L141.283 100.301V100.15H141.132Z" fill="black"/>
<path d="M141.132 49.6995V100.15H141.282V49.6995V49.5493L141.132 49.6995Z" fill="black"/>
<path d="M140.23 46.096L141.132 49.6996L141.283 49.5494L140.381 46.096V45.9458L140.23 46.096Z" fill="black"/>
<path d="M103.707 9.75953L140.23 46.0959L140.38 45.9457L103.857 9.60938H103.707V9.75953Z" fill="black"/>
<path d="M100.101 8.55835L103.708 9.75955V9.6094L100.251 8.4082H100.101V8.55835Z" fill="black"/>
<path d="M49.5995 8.55835H100.101V8.4082H49.5995H49.4492L49.5995 8.55835Z" fill="black"/>
<path d="M45.9921 9.75955L49.5993 8.55835L49.449 8.4082L45.9921 9.6094H45.8418L45.9921 9.75955Z" fill="black"/>
<path d="M74.699 137.237C109.148 137.237 137.074 109.339 137.074 74.9251C137.074 40.511 109.148 12.6128 74.699 12.6128C40.2503 12.6128 12.3242 40.511 12.3242 74.9251C12.3242 109.339 40.2503 137.237 74.699 137.237Z" fill="#7F7F7F"/>
<path d="M135.722 61.1111V60.9609L137.225 74.9249H137.375L135.872 60.9609L135.722 61.1111Z" fill="black"/>
<path d="M131.062 47.7478L135.722 61.1112L135.872 60.961L131.213 47.5977L131.062 47.7478Z" fill="black"/>
<path d="M123.697 36.0361V35.886L131.062 47.7479L131.212 47.5977L123.848 35.886V35.7358L123.697 36.0361Z" fill="black"/>
<path d="M113.928 26.2761H113.777L123.697 36.0359L123.847 35.7356L114.078 26.126H113.928V26.2761Z" fill="black"/>
<path d="M102.054 18.7688L113.927 26.2763V26.1262L102.204 18.6187L102.054 18.7688Z" fill="black"/>
<path d="M88.6776 14.114H88.5273L102.054 18.7687L102.205 18.6185L88.6776 13.9639V14.114Z" fill="black"/>
<path d="M74.8496 12.4627L88.6773 14.1143V13.9642L74.8496 12.3125V12.4627Z" fill="black"/>
<path d="M61.0224 14.1143H60.8721L74.85 12.4627V12.3125L60.8721 13.9642L61.0224 14.1143Z" fill="black"/>
<path d="M47.7958 18.7687L61.0223 14.114L60.872 13.9639L47.6455 18.6185L47.7958 18.7687Z" fill="black"/>
<path d="M35.9217 26.2763H35.7714L47.7954 18.7688L47.6451 18.6187L35.7714 26.1262H35.6211L35.9217 26.2763Z" fill="black"/>
<path d="M26.1523 35.8857V36.0359L35.9218 26.2761L35.6212 26.126L26.002 35.7356V35.8857H26.1523Z" fill="black"/>
<path d="M18.6376 47.7476L26.1526 35.8857H26.0023L18.4873 47.5975L18.6376 47.7476Z" fill="black"/>
<path d="M13.828 60.961V61.1112L18.6377 47.7478L18.4874 47.5977L13.6777 60.961H13.828Z" fill="black"/>
<path d="M12.3251 74.9249L13.8281 60.9609H13.6778L12.1748 74.9249H12.3251Z" fill="black"/>
<path d="M13.8281 88.8888V89.0389L12.3251 74.9248H12.1748L13.6778 89.0389L13.8281 88.8888Z" fill="black"/>
<path d="M18.6377 102.102L13.828 88.8887L13.6777 89.0388L18.4874 102.252L18.6377 102.102Z" fill="black"/>
<path d="M26.1526 113.814V113.964L18.6376 102.102L18.4873 102.252L26.0023 113.964V114.114L26.1526 113.814Z" fill="black"/>
<path d="M35.7715 123.724H35.9218L26.1523 113.814L26.002 114.114L35.6212 123.874H35.7715V123.724Z" fill="black"/>
<path d="M47.7955 131.231L35.7715 123.724V123.874L47.6452 131.381L47.7955 131.231Z" fill="black"/>
<path d="M60.872 136.036H61.0223L47.7958 131.231L47.6455 131.382L60.872 136.186V136.036Z" fill="black"/>
<path d="M74.85 137.538L60.8721 136.036V136.186L74.85 137.688V137.538Z" fill="black"/>
<path d="M88.527 136.036H88.6773L74.8496 137.538V137.688L88.6773 136.186L88.527 136.036Z" fill="black"/>
<path d="M102.054 131.231L88.5273 136.036L88.6776 136.186L102.205 131.382L102.054 131.231Z" fill="black"/>
<path d="M113.777 123.724H113.927L102.054 131.231L102.204 131.381L113.927 123.874H114.078L113.777 123.724Z" fill="black"/>
<path d="M123.697 113.964V113.814L113.777 123.724L114.078 123.874L123.847 114.114V113.964H123.697Z" fill="black"/>
<path d="M131.062 102.102L123.697 113.964H123.848L131.212 102.252L131.062 102.102Z" fill="black"/>
<path d="M135.722 89.0388V88.8887L131.062 102.102L131.213 102.252L135.872 89.0388H135.722Z" fill="black"/>
<path d="M137.225 74.9248L135.722 89.0389H135.872L137.375 74.9248H137.225Z" fill="black"/>
<path d="M84.0184 4.35449V17.4176L96.1927 20.871L107.616 26.877L117.385 35.2854L125.05 45.6458L130.311 57.0572L132.866 69.82L132.565 82.7329L129.409 95.0452L123.698 106.457L115.581 116.517L105.361 124.475L93.7879 130.03L81.3129 132.733H68.3871L55.7618 130.03L44.339 124.475L34.1186 116.517L26.0023 106.457L20.2909 95.0452L17.1346 82.7329L16.834 69.82L19.3891 57.0572L24.6496 45.6458L32.4652 35.2854L42.0845 26.877L53.5073 20.871L65.832 17.4176V4.35449H84.0184Z" fill="#B2B2B2"/>
<path d="M84.0185 17.4176H84.1688V4.35449H83.8682V17.4176V17.5677H84.0185V17.4176Z" fill="black"/>
<path d="M96.3422 20.8709L84.0176 17.4175V17.5676L96.1919 21.0211L96.3422 20.8709Z" fill="black"/>
<path d="M107.766 26.8771V26.7269L96.3427 20.8711L96.1924 21.0212L107.615 27.0272L107.766 26.8771Z" fill="black"/>
<path d="M117.535 35.2854V35.1352L107.766 26.877L107.615 27.0271L117.234 35.4355V35.2854H117.535Z" fill="black"/>
<path d="M125.2 45.4954H125.05L117.535 35.2852H117.234L124.9 45.6455L125.2 45.4954Z" fill="black"/>
<path d="M130.31 57.0572L125.2 45.4956L124.899 45.6458L130.16 57.2073L130.31 57.0572Z" fill="black"/>
<path d="M132.866 69.8199L130.31 57.0571L130.16 57.2073L132.715 69.8199H132.866Z" fill="black"/>
<path d="M132.565 82.7327L132.866 69.8198H132.716L132.415 82.7327H132.565Z" fill="black"/>
<path d="M129.409 95.1954L132.565 82.7329H132.415L129.259 95.0452L129.409 95.1954Z" fill="black"/>
<path d="M123.697 106.606H123.847L129.409 95.1951L129.258 95.0449L123.547 106.456L123.697 106.606Z" fill="black"/>
<path d="M115.581 116.667L115.731 116.517L123.697 106.607L123.547 106.457L115.431 116.517L115.581 116.366V116.667Z" fill="black"/>
<path d="M105.511 124.624V124.474L115.581 116.667V116.366L105.36 124.324L105.511 124.624Z" fill="black"/>
<path d="M93.788 130.03L105.511 124.625L105.361 124.324L93.6377 129.88L93.788 130.03Z" fill="black"/>
<path d="M81.3125 132.733L93.7875 130.03L93.6371 129.88L81.3125 132.583V132.733Z" fill="black"/>
<path d="M68.3867 132.733H81.3126V132.583H68.3867V132.733Z" fill="black"/>
<path d="M55.7617 130.03L68.387 132.733V132.583L55.912 129.88L55.7617 130.03Z" fill="black"/>
<path d="M44.1885 124.474V124.625L55.7616 130.03L55.9119 129.88L44.3388 124.324L44.1885 124.474Z" fill="black"/>
<path d="M34.1181 116.667L44.1882 124.474L44.3385 124.324L34.1181 116.366L34.2684 116.516L33.9678 116.667H34.1181Z" fill="black"/>
<path d="M25.8516 106.607H26.0019L33.9678 116.517H34.2684L26.1522 106.457L25.8516 106.607Z" fill="black"/>
<path d="M20.291 95.1951L25.8521 106.606L26.1527 106.456L20.4413 95.0449L20.291 95.1951Z" fill="black"/>
<path d="M17.1338 82.7329L20.2901 95.1954L20.4404 95.0452L17.2841 82.7329H17.1338Z" fill="black"/>
<path d="M16.834 69.8198L17.1346 82.7327H17.2849L16.9843 69.8198H16.834Z" fill="black"/>
<path d="M19.3891 57.0571L16.834 69.8199H16.9843L19.5394 57.2073L19.3891 57.0571Z" fill="black"/>
<path d="M24.6492 45.4956H24.4989L19.3887 57.0572L19.539 57.2073L24.7995 45.6458L24.6492 45.4956Z" fill="black"/>
<path d="M32.3147 35.1353V35.2854L24.6494 45.4956L24.7997 45.6458L32.6153 35.2854V35.4356L32.3147 35.1353Z" fill="black"/>
<path d="M41.9337 26.7266V26.8767L32.3145 35.135L32.6151 35.4353L42.084 27.0269L41.9337 26.7266Z" fill="black"/>
<path d="M53.3564 20.8711L41.9336 26.7269L42.0839 27.0272L53.5067 21.0212L53.3564 20.8711Z" fill="black"/>
<path d="M65.6811 17.4175H65.8314L53.3564 20.8709L53.5067 21.0211L65.8314 17.5676H65.9817V17.4175H65.6811Z" fill="black"/>
<path d="M65.6816 4.35425V17.4173H65.9822V4.35425L65.8319 4.5044V4.2041H65.6816V4.35425Z" fill="black"/>
<path d="M84.0184 4.2041H65.832V4.5044H84.0184L83.8681 4.35425H84.1687V4.2041H84.0184Z" fill="black"/>
<path d="M74.85 124.775C102.409 124.775 124.75 102.456 124.75 74.925C124.75 47.3937 102.409 25.0752 74.85 25.0752C47.2911 25.0752 24.9502 47.3937 24.9502 74.925C24.9502 102.456 47.2911 124.775 74.85 124.775Z" fill="#7F7F7F"/>
<path d="M74.8495 122.372C101.08 122.372 122.344 101.129 122.344 74.925C122.344 48.7205 101.08 27.4775 74.8495 27.4775C48.6187 27.4775 27.3545 48.7205 27.3545 74.925C27.3545 101.129 48.6187 122.372 74.8495 122.372Z" fill="#B2B2B2"/>
<path d="M74.8501 118.018C98.6736 118.018 117.986 98.7248 117.986 74.9251C117.986 51.1255 98.6736 31.832 74.8501 31.832C51.0266 31.832 31.7139 51.1255 31.7139 74.9251C31.7139 98.7248 51.0266 118.018 74.8501 118.018Z" fill="black"/>
<path d="M116.483 63.9641V63.814L117.986 74.9251H118.287L116.784 63.814L116.483 63.9641Z" fill="black"/>
<path d="M111.974 53.4534L116.483 63.9639L116.783 63.8137L112.274 53.3032L111.974 53.4534Z" fill="black"/>
<path d="M105.36 44.4446L111.974 53.4536L112.274 53.3034L105.511 44.2944L105.36 44.4446Z" fill="black"/>
<path d="M96.3428 37.8379L105.361 44.4445L105.511 44.2944L96.4931 37.5376L96.3428 37.8379Z" fill="black"/>
<path d="M85.9716 33.3335H85.8213L96.3423 37.838L96.4926 37.5377L85.9716 33.0332V33.3335Z" fill="black"/>
<path d="M74.8496 31.832L85.9719 33.3335V33.0332L74.8496 31.5317V31.832Z" fill="black"/>
<path d="M63.7274 33.3335H63.5771L74.8497 31.832V31.5317L63.5771 33.0332L63.7274 33.3335Z" fill="black"/>
<path d="M53.206 37.838L63.727 33.3335L63.5767 33.0332L53.0557 37.5377L53.206 37.838Z" fill="black"/>
<path d="M44.4892 44.4445L53.2066 37.8379L53.0563 37.5376L44.3389 44.2944L44.4892 44.4445Z" fill="black"/>
<path d="M37.575 53.4536L44.4888 44.4446L44.3385 44.2944L37.2744 53.3034L37.575 53.4536Z" fill="black"/>
<path d="M33.2166 63.8137V63.9639L37.5753 53.4534L37.2747 53.3032L32.916 63.8137H33.2166Z" fill="black"/>
<path d="M31.8641 74.9251L33.2168 63.814H32.9162L31.5635 74.9251H31.8641Z" fill="black"/>
<path d="M33.2168 85.8858V86.0359L31.8641 74.9248H31.5635L32.9162 86.0359L33.2168 85.8858Z" fill="black"/>
<path d="M37.5753 96.3963L33.2166 85.8857L32.916 86.0359L37.2747 96.5464L37.5753 96.3963Z" fill="black"/>
<path d="M44.4888 105.405L37.575 96.3965L37.2744 96.5466L44.3385 105.556L44.4888 105.405Z" fill="black"/>
<path d="M53.2066 112.312L44.4892 105.405L44.3389 105.555L53.0563 112.612L53.2066 112.312Z" fill="black"/>
<path d="M63.5767 116.517L53.206 112.312L53.0557 112.613L63.5767 116.817V116.517Z" fill="black"/>
<path d="M74.8497 118.018L63.5771 116.517V116.817L74.8497 118.318V118.018Z" fill="black"/>
<path d="M85.9719 116.517L74.8496 118.018V118.318L85.9719 116.817V116.517Z" fill="black"/>
<path d="M96.3424 112.312L85.9717 116.517V116.817L96.4927 112.613L96.3424 112.312Z" fill="black"/>
<path d="M105.361 105.405L96.3428 112.312L96.4931 112.612L105.511 105.555L105.361 105.405Z" fill="black"/>
<path d="M111.974 96.3965L105.36 105.405L105.511 105.556L112.274 96.5466L111.974 96.3965Z" fill="black"/>
<path d="M116.483 86.0359V85.8857L111.974 96.3963L112.274 96.5464L116.783 86.0359H116.483Z" fill="black"/>
<path d="M117.986 74.9248L116.483 86.0359H116.784L118.287 74.9248H117.986Z" fill="black"/>
<path d="M74.6995 113.664C96.0328 113.664 113.327 96.3868 113.327 75.0749C113.327 53.763 96.0328 36.4863 74.6995 36.4863C53.3663 36.4863 36.0723 53.763 36.0723 75.0749C36.0723 96.3868 53.3663 113.664 74.6995 113.664Z" fill="#FF0000"/>
<path d="M111.974 64.8647L113.326 74.9248H113.627L112.274 64.8647H111.974Z" fill="black"/>
<path d="M108.367 55.7058H108.217L111.974 64.865H112.275L108.517 55.5557L108.367 55.7058Z" fill="black"/>
<path d="M102.204 47.5974L108.366 55.7055L108.517 55.5554L102.354 47.4473L102.204 47.5974Z" fill="black"/>
<path d="M94.0879 41.7417V41.5916L102.204 47.5976L102.354 47.4474L94.2382 41.4414L94.0879 41.7417Z" fill="black"/>
<path d="M84.7694 37.8379H84.6191L94.0881 41.7418L94.2384 41.4415L84.7694 37.5376V37.8379Z" fill="black"/>
<path d="M74.8496 36.4863L84.7694 37.8377V37.5374L74.8496 36.186V36.4863Z" fill="black"/>
<path d="M64.9296 37.8377H64.7793L74.8494 36.4863V36.186L64.7793 37.5374L64.9296 37.8377Z" fill="black"/>
<path d="M55.6112 41.5917V41.7418L64.9299 37.8379L64.7796 37.5376L55.4609 41.4415L55.6112 41.5917Z" fill="black"/>
<path d="M47.495 47.5976L55.6113 41.5916L55.461 41.4414L47.3447 47.4474L47.495 47.5976Z" fill="black"/>
<path d="M41.4832 55.7055H41.3329L47.4952 47.5974L47.3449 47.4473L41.1826 55.5554L41.4832 55.7055Z" fill="black"/>
<path d="M37.575 64.865V65.0151L41.4828 55.7058L41.1822 55.5557L37.2744 64.865H37.575Z" fill="black"/>
<path d="M36.2225 74.9248L37.5752 64.8647H37.2746L35.9219 74.9248H36.2225Z" fill="black"/>
<path d="M37.5752 84.9849V85.135L36.2225 74.9248H35.9219L37.2746 85.135L37.5752 84.9849Z" fill="black"/>
<path d="M41.3325 94.2942H41.4828L37.575 84.9849L37.2744 85.135L41.1822 94.4443L41.3325 94.2942Z" fill="black"/>
<path d="M47.4952 102.252L41.3329 94.2944L41.1826 94.4446L47.3449 102.403L47.4952 102.252Z" fill="black"/>
<path d="M55.6113 108.409V108.559L47.495 102.252L47.3447 102.403L55.461 108.709L55.6113 108.409Z" fill="black"/>
<path d="M64.7796 112.312H64.9299L55.6112 108.408L55.4609 108.709L64.7796 112.612V112.312Z" fill="black"/>
<path d="M74.8494 113.664L64.7793 112.312V112.613L74.8494 113.964V113.664Z" fill="black"/>
<path d="M84.6191 112.312H84.7694L74.8496 113.664V113.964L84.7694 112.613L84.6191 112.312Z" fill="black"/>
<path d="M94.0881 108.558V108.408L84.6191 112.312L84.7694 112.612L94.2384 108.709L94.0881 108.558Z" fill="black"/>
<path d="M102.204 102.252L94.0879 108.559L94.2382 108.709L102.354 102.403L102.204 102.252Z" fill="black"/>
<path d="M108.216 94.2944H108.366L102.204 102.252L102.354 102.403L108.517 94.4446L108.216 94.2944Z" fill="black"/>
<path d="M111.974 85.1353L108.217 94.2944L108.517 94.4446L112.275 85.1353H111.974Z" fill="black"/>
<path d="M113.326 74.9248L111.974 85.135H112.274L113.627 74.9248H113.326Z" fill="black"/>
</g>
<defs>
<clipPath id="clip0_2109_158076">
<rect width="150" height="150" fill="white"/>
</clipPath>
</defs>
</svg>
