<svg width="150" height="150" viewBox="0 0 150 150" fill="none" xmlns="http://www.w3.org/2000/svg">
<g clip-path="url(#clip0_2109_207503)">
<path d="M19.0693 32.5226L21.1714 4.10156H32.5828V32.5226" stroke="black" stroke-width="0.435504"/>
<path d="M55.7057 114.632L54.5045 124.737L51.8018 134.211L48.1982 141.789L43.6937 146.842L38.8889 150H33.7838L28.979 146.842L24.4745 141.789L21.1712 134.211L18.4685 124.737L17.2673 114.632L0 108.947V101.368L1.95195 96.9474V44.5263L19.0691 36.3158V32.5263H43.994V4.10526H21.1712V0H47.8979L51.8018 16.1053H142.192L150 36.3158L122.973 60.3158L117.568 76.7368L121.171 84.3158L123.574 93.7895L125.075 103.895V114.632L123.574 124.737L121.171 134.211L117.568 141.789L113.063 146.842L108.258 150H103.153L98.3484 146.842L93.8438 141.789L90.2402 134.211L87.8378 124.737L86.3363 114.632H55.7057Z" fill="#99CCCC" stroke="black" stroke-width="0.435504"/>
</g>
<defs>
<clipPath id="clip0_2109_207503">
<rect width="150" height="150" fill="white"/>
</clipPath>
</defs>
</svg>
