<svg width="150" height="150" viewBox="0 0 150 150" fill="none" xmlns="http://www.w3.org/2000/svg">
<g clip-path="url(#clip0_2109_207469)">
<path d="M53.9043 27.1494V11.8594" stroke="black" stroke-width="0.397908"/>
<path d="M80.0303 11.8594V48.7662" stroke="black" stroke-width="0.397908"/>
<path d="M53.9043 36.6406H146.397" stroke="black" stroke-width="0.397908"/>
<path d="M80.0303 48.7734H122.072" stroke="black" stroke-width="0.397908"/>
<path d="M92.3418 36.6406V57.7303" stroke="black" stroke-width="0.397908"/>
<path d="M107.958 36.6406V57.7303" stroke="black" stroke-width="0.397908"/>
<path d="M125.676 36.6406V48.7672" stroke="black" stroke-width="0.397908"/>
<path d="M143.093 36.6406V48.7672" stroke="black" stroke-width="0.397908"/>
<path d="M69.8203 36.6406V48.7672" stroke="black" stroke-width="0.397908"/>
<path d="M55.7062 106.769L29.5801 42.4453" stroke="black" stroke-width="0.397908"/>
<path d="M59.3093 73.5538L12.1621 48.7734" stroke="black" stroke-width="0.397908"/>
<path d="M25.9763 109.929L17.2676 24.5156" stroke="black" stroke-width="0.397908"/>
<path fill-rule="evenodd" clip-rule="evenodd" d="M48.7988 6.06327H80.03V11.8629H48.7988V6.06327ZM107.958 116.257L113.363 122.583V143.673L107.958 150H43.3934L38.2883 143.673V122.583L45.1952 116.257L66.2162 113.093L55.7057 109.93V100.967L60.8108 94.6397V79.3497L15.4655 30.3163L13.964 33.7434L22.6727 109.93H25.976L24.1742 141.037L19.2192 146.837L0 150L8.55856 141.037L10.3604 131.547L3.45345 104.13L6.75676 97.8032L0 36.6432L1.65165 11.8629L20.8709 0L53.9039 27.1529V48.7698H80.03V57.7329H122.072V48.7698H146.396L150 97.8032L146.396 109.93L94.1441 113.093L107.958 116.257Z" fill="#99CCCC"/>
<path d="M48.7988 6.0625H80.0301V11.8621H48.7988V6.0625Z" stroke="black" stroke-width="0.397908"/>
<path d="M107.958 116.257L113.363 122.583V143.673L107.958 150H43.3934L38.2883 143.673V122.583L45.1952 116.257L66.2162 113.093L55.7057 109.93V100.967L60.8108 94.6397V79.3497L15.4655 30.3163L13.964 33.7434L22.6727 109.93H25.976L24.1742 141.037L19.2192 146.837L0 150L8.55856 141.037L10.3604 131.547L3.45345 104.13L6.75676 97.8032L0 36.6432L1.65165 11.8629L20.8709 0L53.9039 27.1529V48.7698H80.03V57.7329H122.072V48.7698H146.396L150 97.8032L146.396 109.93L94.1441 113.093L107.958 116.257Z" stroke="black" stroke-width="0.397908"/>
</g>
<defs>
<clipPath id="clip0_2109_207469">
<rect width="150" height="150" fill="white"/>
</clipPath>
</defs>
</svg>
