<svg width="150" height="150" viewBox="0 0 150 150" fill="none" xmlns="http://www.w3.org/2000/svg">
<g clip-path="url(#clip0_2109_206544)">
<path d="M14.7061 12.1641H46.4708V24.1761H14.7061V12.1641Z" fill="#CC3300" stroke="black" stroke-width="0.594386"/>
<path d="M141.765 7.35628V24.7737L110 148.197L94.706 149.849L78.2354 148.197L46.4707 24.7737V7.35628L70.0001 5.55448V4.20312H118.235V5.55448L141.765 7.35628Z" fill="#CC3300" stroke="black" stroke-width="0.594386"/>
<path d="M14.7061 12.7656H46.4708V23.2761H14.7061V12.7656Z" fill="#D43B00"/>
<path d="M135.882 7.3536V24.771L108.823 148.194L94.7058 149.846L80.5881 148.194L53.5293 24.771V7.3536L73.5293 5.5518V3.75H114.706V5.5518L135.882 7.3536Z" fill="#D43B00"/>
<path d="M14.7061 13.6641H46.4708V22.3728H14.7061V13.6641Z" fill="#DE4500"/>
<path d="M128.823 7.3536V24.771L106.47 148.194L94.7055 149.846L82.9408 148.194L60.5879 24.771V7.3536L77.0585 5.5518V3.75H112.353V5.5518L128.823 7.3536Z" fill="#DE4500"/>
<path d="M14.7061 14.5625H46.4708V21.7697H14.7061V14.5625Z" fill="#E54C00"/>
<path d="M121.765 7.3536V24.771L104.118 148.194L94.7063 149.846L85.2945 148.194L67.6475 24.771V7.3536L80.5886 5.5518V3.75H108.824V5.5518L121.765 7.3536Z" fill="#E54C00"/>
<path d="M14.7061 15.4688H46.4708V20.8742H14.7061V15.4688Z" fill="#ED5400"/>
<path d="M115.882 7.3536V24.771L101.765 148.194L94.7058 149.846L87.6469 148.194L73.5293 24.771V7.3536L84.1175 5.5518V3.75H105.294V5.5518L115.882 7.3536Z" fill="#ED5400"/>
<path d="M14.7061 16.3672H46.4708V19.9708H14.7061V16.3672Z" fill="#F75E00"/>
<path d="M108.823 7.3536V24.771L99.4114 148.194L94.7055 149.846L89.9997 148.194L80.5879 24.771V7.3536L87.6467 5.5518V3.75H101.764V5.5518L108.823 7.3536Z" fill="#F75E00"/>
<path d="M101.765 7.35628V24.7737L97.0589 148.197L94.706 149.849L92.3531 148.197L86.4707 24.7737V7.35628L91.1766 5.55448V4.20312H98.2354V5.55448L101.765 7.35628Z" fill="#FF6600"/>
<path d="M14.7061 17.2656H46.4708V19.0674H14.7061V17.2656Z" fill="#FF6600"/>
<path d="M150 14.2656V19.671H38.2354V14.2656H150Z" fill="#CC3300"/>
<path d="M150 29.8828V35.2882H38.2354V29.8828H150Z" fill="#CC3300"/>
<path d="M142.941 29.8828V35.2882H46.4707V29.8828H142.941Z" fill="#D43B00"/>
<path d="M142.941 14.2656V19.3707H46.4707V14.2656H142.941Z" fill="#D43B00"/>
<path d="M134.706 14.2656V19.3707H54.7061V14.2656H134.706Z" fill="#DE4500"/>
<path d="M134.706 29.8828V35.2882H54.7061V29.8828H134.706Z" fill="#DE4500"/>
<path d="M126.471 29.8828V35.2882H61.7646V29.8828H126.471Z" fill="#E54C00"/>
<path d="M126.471 14.2656V19.3707H61.7646V14.2656H126.471Z" fill="#E54C00"/>
<path d="M118.235 14.2656V19.3707H70V14.2656H118.235Z" fill="#ED5400"/>
<path d="M118.235 29.8828V35.2882H70V29.8828H118.235Z" fill="#ED5400"/>
<path d="M110 29.8828V35.2882H78.2354V29.8828H110Z" fill="#F75E00"/>
<path d="M110 14.2656V19.3707H78.2354V14.2656H110Z" fill="#F75E00"/>
<path d="M101.765 14.2656V19.671H86.4707V14.2656H101.765Z" fill="#FF6600"/>
<path d="M101.765 29.8828V35.2882H86.4707V29.8828H101.765Z" fill="#FF6600"/>
<path d="M46.4707 24.7784L141.765 22.9766" stroke="#B21900" stroke-width="0.594386"/>
<path d="M133.53 119.672V125.678H54.7061V119.672H133.53Z" fill="#7F7F7F" stroke="black" stroke-width="0.594386"/>
<path d="M141.765 77.0234V83.0294H46.4707V77.0234H141.765Z" fill="#7F7F7F" stroke="black" stroke-width="0.594386"/>
<path d="M0 10.9609H14.7059V25.3754H0V10.9609Z" fill="#7F7F7F" stroke="black" stroke-width="0.594386"/>
<path d="M118.235 0V4.2042H70V0H118.235Z" fill="#7F7F7F" stroke="black" stroke-width="0.594386"/>
<path d="M128.824 119.672V125.678H59.4121V119.672H128.824Z" fill="#999999"/>
<path d="M135.882 77.0234V83.0294H52.3525V77.0234H135.882Z" fill="#999999"/>
<path d="M0 11.8594H14.7059V24.472H0V11.8594Z" fill="#999999"/>
<path d="M114.706 0V4.2042H73.5293V0H114.706Z" fill="#999999"/>
<path d="M120.589 119.672V125.678H67.6475V119.672H120.589Z" fill="#B2B2B2"/>
<path d="M126.471 77.0234V83.0294H61.7646V77.0234H126.471Z" fill="#B2B2B2"/>
<path d="M0 13.3672H14.7059V22.9768H0V13.3672Z" fill="#B2B2B2"/>
<path d="M110 0V4.2042H78.2354V0H110Z" fill="#B2B2B2"/>
<path d="M115.882 77.0234V83.0294H72.3525V77.0234H115.882Z" fill="#CCCCCC"/>
<path d="M112.353 119.672V125.678H75.8828V119.672H112.353Z" fill="#CCCCCC"/>
<path d="M0 14.8672H14.7059V21.4738H0V14.8672Z" fill="#CCCCCC"/>
<path d="M105.294 0V4.2042H82.9414V0H105.294Z" fill="#CCCCCC"/>
<path d="M106.471 119.672V125.678H82.9414V119.672H106.471Z" fill="#E5E5E5"/>
<path d="M108.823 77.0234V83.0294H80.5879V77.0234H108.823Z" fill="#E5E5E5"/>
<path d="M101.765 0V4.2042H87.6475V0H101.765Z" fill="#E5E5E5"/>
<path d="M0 16.0625H14.7059V20.2667H0V16.0625Z" fill="#E5E5E5"/>
<path d="M97.0591 0V4.2042H91.1768V0H97.0591Z" fill="white"/>
<path d="M0 17.2656H14.7059V19.0674H0V17.2656Z" fill="white"/>
<path d="M99.4115 77.0234V83.0294H88.8232V77.0234H99.4115Z" fill="white"/>
<path d="M99.4118 119.672V125.678H90V119.672H99.4118Z" fill="white"/>
<path d="M150 30.1797V35.2848H38.2354V30.1797H150Z" stroke="black" stroke-width="0.594386"/>
<path d="M150 14.2656V19.671H38.2354V14.2656H150Z" stroke="black" stroke-width="0.594386"/>
</g>
<defs>
<clipPath id="clip0_2109_206544">
<rect width="150" height="150" fill="white"/>
</clipPath>
</defs>
</svg>
