<svg width="150" height="150" viewBox="0 0 150 150" fill="none" xmlns="http://www.w3.org/2000/svg">
<g clip-path="url(#clip0_2109_205112)">
<path d="M116.066 33.7838L140.09 37.3874L128.979 43.6937L131.081 59.9099L150 74.9249H137.387L131.081 89.9399L139.79 112.462L128.979 106.156L116.066 116.066L112.462 140.09L106.156 128.979L89.9399 131.381L74.9249 150V137.387L59.6096 131.081L37.3874 140.09L43.6937 128.979L33.4835 116.066L9.75976 112.462L20.8709 106.156L18.4685 89.9399L0 74.9249H12.4625L18.4685 59.9099L9.75976 37.3874L20.8709 43.6937L33.4835 33.7838L37.3874 9.75976L43.6937 20.8709L59.9099 18.4685L74.9249 0V12.4625L89.9399 18.4685L112.462 10.0601L106.156 20.8709L116.066 33.7838Z" fill="#E5CB98" stroke="black" stroke-width="0.3003"/>
<path d="M89.3391 128.075H60.5102L35.8856 113.661L21.7715 89.0363V60.5078L35.8856 35.8832L60.8105 21.4688H89.0387L113.964 35.8832L128.078 60.5078V89.0363L113.964 113.661L89.3391 128.075Z" fill="#EDDBB7"/>
<path d="M89.3391 128.075H60.5102L35.8856 113.661L21.7715 89.0363L74.9246 74.9222L60.8105 21.4688H89.0387L113.964 35.8832L128.078 60.5078L74.9246 74.9222L89.3391 128.075Z" fill="#F0E1C2"/>
<path d="M60.5104 128.075L35.8857 113.661L74.9248 74.9222L89.0389 21.4688L113.964 35.8832L74.9248 74.9222L60.5104 128.075Z" fill="#F2E5CC"/>
<path d="M74.9249 99.8498C88.6906 99.8498 99.8498 88.6906 99.8498 74.9249C99.8498 61.1593 88.6906 50 74.9249 50C61.1593 50 50 61.1593 50 74.9249C50 88.6906 61.1593 99.8498 74.9249 99.8498Z" stroke="#7F7F7F" stroke-width="0.3003"/>
<path d="M74.9252 90.5437C83.5495 90.5437 90.5408 83.5524 90.5408 74.9281C90.5408 66.3038 83.5495 59.3125 74.9252 59.3125C66.3009 59.3125 59.3096 66.3038 59.3096 74.9281C59.3096 83.5524 66.3009 90.5437 74.9252 90.5437Z" fill="#331900"/>
<path d="M59.3092 54.0579C62.7921 54.0579 65.6155 51.2345 65.6155 47.7516C65.6155 44.2687 62.7921 41.4453 59.3092 41.4453C55.8264 41.4453 53.0029 44.2687 53.0029 47.7516C53.0029 51.2345 55.8264 54.0579 59.3092 54.0579Z" fill="#331900"/>
<path d="M106.156 81.2298C109.639 81.2298 112.462 78.4064 112.462 74.9235C112.462 71.4406 109.639 68.6172 106.156 68.6172C102.673 68.6172 99.8496 71.4406 99.8496 74.9235C99.8496 78.4064 102.673 81.2298 106.156 81.2298Z" fill="#331900"/>
<path d="M59.3092 108.261C62.7921 108.261 65.6155 105.438 65.6155 101.955C65.6155 98.4719 62.7921 95.6484 59.3092 95.6484C55.8264 95.6484 53.0029 98.4719 53.0029 101.955C53.0029 105.438 55.8264 108.261 59.3092 108.261Z" fill="#331900"/>
<path d="M47.5973 131.38V134.833L44.294 136.785L41.291 134.833V131.38L44.294 129.578L47.5973 131.38Z" fill="#F2E5CC" stroke="black" stroke-width="0.3003"/>
<path d="M79.4293 137.391L81.2311 140.694L79.4293 143.547H75.8257L73.7236 140.694L75.8257 137.391H79.4293Z" fill="#F2E5CC" stroke="black" stroke-width="0.3003"/>
<path d="M110.06 126.875L113.063 128.677V132.28L110.06 134.082L106.757 132.28V128.677L110.06 126.875Z" fill="#F2E5CC" stroke="black" stroke-width="0.3003"/>
<path d="M131.382 102.25H134.985L136.787 105.553L134.985 108.556H131.382L129.58 105.553L131.382 102.25Z" fill="#F2E5CC" stroke="black" stroke-width="0.3003"/>
<path d="M137.388 70.419L140.691 68.6172L143.544 70.419V74.0226L140.691 75.8244L137.388 74.0226V70.419Z" fill="#F2E5CC" stroke="black" stroke-width="0.3003"/>
<path d="M126.877 39.7877L128.679 36.4844H132.282L134.084 39.7877L132.282 43.091L128.679 42.7907L126.877 39.7877Z" fill="#F2E5CC" stroke="black" stroke-width="0.3003"/>
<path d="M102.252 18.4679V14.8643L105.555 13.0625L108.558 14.8643V18.4679L105.555 20.2697L102.252 18.4679Z" fill="#F2E5CC" stroke="black" stroke-width="0.3003"/>
<path d="M70.4209 12.4608L68.6191 9.15754L70.4209 6.30469H74.0245L75.8263 9.15754L74.0245 12.4608H70.4209Z" fill="#F2E5CC" stroke="black" stroke-width="0.3003"/>
<path d="M22.9728 110.061L21.171 113.064H17.5674L15.7656 110.061L17.5674 106.758H21.171L22.9728 110.061Z" fill="#F2E5CC" stroke="black" stroke-width="0.3003"/>
<path d="M12.4628 79.4323L9.15949 81.2341L6.30664 79.4323V75.8287L9.15949 73.7266L12.4628 75.8287V79.4323Z" fill="#F2E5CC" stroke="black" stroke-width="0.3003"/>
<path d="M18.4689 47.5954H15.0154L13.0635 44.2921L15.0154 41.2891H18.4689L20.2707 44.2921L18.4689 47.5954Z" fill="#F2E5CC" stroke="black" stroke-width="0.3003"/>
<path d="M39.7896 22.9728L36.4863 21.171V17.5674L39.7896 15.7656L43.0929 17.5674L42.7926 21.171L39.7896 22.9728Z" fill="#F2E5CC" stroke="black" stroke-width="0.3003"/>
</g>
<defs>
<clipPath id="clip0_2109_205112">
<rect width="150" height="150" fill="white"/>
</clipPath>
</defs>
</svg>
