<svg width="150" height="150" viewBox="0 0 150 150" fill="none" xmlns="http://www.w3.org/2000/svg">
<g clip-path="url(#clip0_2109_206602)">
<path d="M94.8071 10.0625H83.2344V29.582H94.8071V10.0625Z" fill="#00197F" stroke="black" stroke-width="0.517039"/>
<path d="M85.9048 59.3106V8.10938H9.79199V59.3106L18.249 71.9232L28.0413 150.001H66.7653L76.1125 71.9232L85.9048 59.3106Z" fill="#00197F"/>
<path d="M81.8995 59.3062V7.80469H13.3535V59.3062L22.2556 71.9188L29.8224 149.997H64.5405L72.5523 71.9188L81.8995 59.3062Z" fill="#00248A"/>
<path d="M77.0033 59.3062V7.80469H17.3594V59.3062L24.9261 71.9188L32.4929 149.997H61.8698L69.8816 71.9188L77.0033 59.3062Z" fill="#002B91"/>
<path d="M72.5522 59.3062V7.80469H21.3652V59.3062L28.0418 71.9188L34.2732 149.997H60.0893L66.7658 71.9188L72.5522 59.3062Z" fill="#03369C"/>
<path d="M69.4366 59.3062V7.80469H25.8164V59.3062L30.7125 71.9188L36.4989 149.997H58.309L63.6502 71.9188L69.4366 59.3062Z" fill="#0D40A6"/>
<path d="M64.5404 59.3062V7.80469H29.8223V59.3062L34.2733 71.9188L39.1694 149.997H55.6383L60.0893 71.9188L64.5404 59.3062Z" fill="#174AB0"/>
<path d="M60.9797 59.3062V7.80469H34.2734V59.3062L37.3892 71.9188L40.95 149.997H54.3031L57.4188 71.9188L60.9797 59.3062Z" fill="#1F52B8"/>
<path d="M56.5286 59.3062V7.80469H38.2793V59.3062L40.9499 71.9188L42.2852 149.997H52.5226L54.303 71.9188L56.5286 59.3062Z" fill="#295CC2"/>
<path d="M52.5225 59.3106V8.10938H42.2852V59.3106L44.0656 71.9232L44.9558 150.001H49.4068L51.6323 71.9232L52.5225 59.3106Z" fill="#3366CC"/>
<path d="M85.9048 59.3106V8.10938H9.79199V59.3106L18.249 71.9232L28.0413 150.001H66.7653L76.1125 71.9232L85.9048 59.3106Z" stroke="black" stroke-width="0.517039"/>
<path d="M73.4424 143.695H21.3652V147.599H73.4424V143.695Z" fill="#00197F"/>
<path d="M76.1125 119.367H18.249V123.571H76.1125V119.367Z" fill="#00197F"/>
<path d="M80.5634 95.9453H13.7979V99.8492H80.5634V95.9453Z" fill="#00197F"/>
<path d="M85.9048 71.625H9.79199V75.8292H85.9048V71.625Z" fill="#00197F"/>
<path d="M94.8071 55.4062H0V59.3102H94.8071V55.4062Z" fill="#00197F"/>
<path d="M94.8071 32.5859H0V36.4898H94.8071V32.5859Z" fill="#00197F"/>
<path d="M94.8071 11.5625H0V15.4664H94.8071V11.5625Z" fill="#00197F"/>
<path d="M56.5286 0H38.2793V7.80781H56.5286V0Z" fill="#00197F" stroke="black" stroke-width="0.517039"/>
<path d="M55.6378 0H39.1689V7.80781H55.6378V0Z" fill="#00248A"/>
<path d="M89.4658 11.5625H4.00586V15.4664H89.4658V11.5625Z" fill="#00248A"/>
<path d="M89.4658 32.5859H4.00586V36.4898H89.4658V32.5859Z" fill="#00248A"/>
<path d="M89.4658 55.4062H4.00586V59.3102H89.4658V55.4062Z" fill="#00248A"/>
<path d="M81.8995 71.625H13.3535V75.5289H81.8995V71.625Z" fill="#00248A"/>
<path d="M77.0033 95.9453H17.3594V99.8492H77.0033V95.9453Z" fill="#00248A"/>
<path d="M72.5516 119.367H22.2549V123.271H72.5516V119.367Z" fill="#00248A"/>
<path d="M70.7711 143.695H24.0352V147.599H70.7711V143.695Z" fill="#00248A"/>
<path d="M67.6556 143.695H26.7061V147.599H67.6556V143.695Z" fill="#002B91"/>
<path d="M69.4362 119.367H24.9258V123.271H69.4362V119.367Z" fill="#002B91"/>
<path d="M73.4424 95.9453H21.3652V99.8492H73.4424V95.9453Z" fill="#002B91"/>
<path d="M77.0033 71.625H17.3594V75.5289H77.0033V71.625Z" fill="#002B91"/>
<path d="M84.1243 55.4062H9.79199V59.3102H84.1243V55.4062Z" fill="#002B91"/>
<path d="M84.1243 32.5859H9.79199V36.4898H84.1243V32.5859Z" fill="#002B91"/>
<path d="M84.1243 11.5625H9.79199V15.4664H84.1243V11.5625Z" fill="#002B91"/>
<path d="M55.1931 0H40.0596V7.80781H55.1931V0Z" fill="#002B91"/>
<path d="M54.3023 0H40.9492V7.80781H54.3023V0Z" fill="#03369C"/>
<path d="M78.7834 11.5625H14.6885V15.4664H78.7834V11.5625Z" fill="#03369C"/>
<path d="M78.7834 32.5859H14.6885V36.4898H78.7834V32.5859Z" fill="#03369C"/>
<path d="M78.7834 55.4062H14.6885V59.3102H78.7834V55.4062Z" fill="#03369C"/>
<path d="M72.5522 71.625H21.3652V75.5289H72.5522V71.625Z" fill="#03369C"/>
<path d="M69.8813 95.9453H24.9258V99.8492H69.8813V95.9453Z" fill="#03369C"/>
<path d="M66.766 119.367H28.042V123.271H66.766V119.367Z" fill="#03369C"/>
<path d="M64.5404 143.695H29.8223V147.599H64.5404V143.695Z" fill="#03369C"/>
<path d="M53.4123 0H41.3945V7.80781H53.4123V0Z" fill="#0D40A6"/>
<path d="M74.3322 11.5625H20.4746V15.4664H74.3322V11.5625Z" fill="#0D40A6"/>
<path d="M74.3322 32.5859H20.4746V36.4898H74.3322V32.5859Z" fill="#0D40A6"/>
<path d="M74.3322 55.4062H20.4746V59.3102H74.3322V55.4062Z" fill="#0D40A6"/>
<path d="M69.4366 71.625H25.8164V75.8292H69.4366V71.625Z" fill="#0D40A6"/>
<path d="M66.766 95.9453H28.042V99.8492H66.766V95.9453Z" fill="#0D40A6"/>
<path d="M63.6496 119.367H30.7119V123.571H63.6496V119.367Z" fill="#0D40A6"/>
<path d="M61.869 143.695H32.4922V147.599H61.869V143.695Z" fill="#0D40A6"/>
<path d="M51.6318 0H43.1748V7.80781H51.6318V0Z" fill="#174AB0"/>
<path d="M69.4366 11.5625H25.8164V15.4664H69.4366V11.5625Z" fill="#174AB0"/>
<path d="M69.4366 32.5859H25.8164V36.4898H69.4366V32.5859Z" fill="#174AB0"/>
<path d="M69.4366 55.4062H25.8164V59.3102H69.4366V55.4062Z" fill="#174AB0"/>
<path d="M64.5404 71.625H29.8223V75.8292H64.5404V71.625Z" fill="#174AB0"/>
<path d="M61.8696 95.9453H31.6025V99.8492H61.8696V95.9453Z" fill="#174AB0"/>
<path d="M60.0895 119.367H34.2734V123.571H60.0895V119.367Z" fill="#174AB0"/>
<path d="M59.1989 143.695H35.6084V147.599H59.1989V143.695Z" fill="#174AB0"/>
<path d="M50.742 0H44.0654V7.80781H50.742V0Z" fill="#1F52B8"/>
<path d="M63.6496 11.5625H30.7119V15.4664H63.6496V11.5625Z" fill="#1F52B8"/>
<path d="M63.6496 32.5859H30.7119V36.4898H63.6496V32.5859Z" fill="#1F52B8"/>
<path d="M63.6496 55.4062H30.7119V59.3102H63.6496V55.4062Z" fill="#1F52B8"/>
<path d="M60.0895 71.625H34.2734V75.8292H60.0895V71.625Z" fill="#1F52B8"/>
<path d="M58.3087 95.9453H35.6084V99.8492H58.3087V95.9453Z" fill="#1F52B8"/>
<path d="M56.5281 119.367H37.3887V123.571H56.5281V119.367Z" fill="#1F52B8"/>
<path d="M56.5286 143.695H38.2793V147.599H56.5286V143.695Z" fill="#1F52B8"/>
<path d="M49.4061 0H44.9551V7.80781H49.4061V0Z" fill="#295CC2"/>
<path d="M58.3081 11.5625H36.498V15.4664H58.3081V11.5625Z" fill="#295CC2"/>
<path d="M58.3081 32.5859H36.498V36.4898H58.3081V32.5859Z" fill="#295CC2"/>
<path d="M58.3081 55.4062H36.498V59.3102H58.3081V55.4062Z" fill="#295CC2"/>
<path d="M55.6383 71.625H38.2793V75.8292H55.6383V71.625Z" fill="#295CC2"/>
<path d="M55.1931 95.9453H40.0596V99.8492H55.1931V95.9453Z" fill="#295CC2"/>
<path d="M54.3023 119.367H40.9492V123.571H54.3023V119.367Z" fill="#295CC2"/>
<path d="M53.4121 143.695H40.9492V147.599H53.4121V143.695Z" fill="#295CC2"/>
<path d="M48.5163 0H45.8457V7.80781H48.5163V0Z" fill="#3366CC"/>
<path d="M53.4123 11.5625H41.3945V15.4664H53.4123V11.5625Z" fill="#3366CC"/>
<path d="M53.4123 32.5859H41.3945V36.4898H53.4123V32.5859Z" fill="#3366CC"/>
<path d="M53.4123 55.4062H41.3945V59.3102H53.4123V55.4062Z" fill="#3366CC"/>
<path d="M52.5225 71.625H42.2852V75.8292H52.5225V71.625Z" fill="#3366CC"/>
<path d="M51.6318 95.9453H43.1748V99.8492H51.6318V95.9453Z" fill="#3366CC"/>
<path d="M50.742 119.367H44.0654V123.571H50.742V119.367Z" fill="#3366CC"/>
<path d="M50.742 143.695H44.0654V147.599H50.742V143.695Z" fill="#3366CC"/>
<path d="M73.4424 143.695H21.3652V147.599H73.4424V143.695Z" stroke="black" stroke-width="0.517039"/>
<path d="M76.1125 119.367H18.249V123.571H76.1125V119.367Z" stroke="black" stroke-width="0.517039"/>
<path d="M80.5634 95.9453H13.7979V99.8492H80.5634V95.9453Z" stroke="black" stroke-width="0.517039"/>
<path d="M85.9048 71.625H9.79199V75.8292H85.9048V71.625Z" stroke="black" stroke-width="0.517039"/>
<path d="M94.8071 55.4062H0V59.3102H94.8071V55.4062Z" stroke="black" stroke-width="0.517039"/>
<path d="M94.8071 32.5859H0V36.4898H94.8071V32.5859Z" stroke="black" stroke-width="0.517039"/>
<path d="M94.8071 11.5625H0V15.4664H94.8071V11.5625Z" stroke="black" stroke-width="0.517039"/>
<path d="M101.928 8.71094L94.8066 10.0623V29.5818L101.928 31.0833V8.71094Z" fill="#194CB2" stroke="black" stroke-width="0.517039"/>
<path d="M101.929 8.71094L150 11.5638V28.6809L101.929 31.0833V8.71094Z" fill="#3366CC" stroke="black" stroke-width="0.517039"/>
<path d="M121.514 24.7727H135.757L139.318 23.5715L140.208 21.1691V18.6166L139.318 16.064L135.757 14.5625H121.514L118.843 16.064L117.062 18.6166V21.1691L118.843 23.5715L121.514 24.7727Z" fill="#003399" stroke="black" stroke-width="0.517039"/>
<path d="M134.421 24.7727C137.617 24.7727 140.207 22.4871 140.207 19.6676C140.207 16.8481 137.617 14.5625 134.421 14.5625C131.225 14.5625 128.635 16.8481 128.635 19.6676C128.635 22.4871 131.225 24.7727 134.421 24.7727Z" fill="#6699FF" stroke="black" stroke-width="0.517039"/>
<path d="M47.1806 25.6775C59.9634 25.6775 70.326 23.7279 70.326 21.3231C70.326 18.9183 59.9634 16.9688 47.1806 16.9688C34.3977 16.9688 24.0352 18.9183 24.0352 21.3231C24.0352 23.7279 34.3977 25.6775 47.1806 25.6775Z" fill="#E5E5E5" stroke="black" stroke-width="0.517039"/>
<path d="M81.0094 7.81112C83.7135 7.81112 85.9056 7.07165 85.9056 6.15946C85.9056 5.24728 83.7135 4.50781 81.0094 4.50781C78.3054 4.50781 76.1133 5.24728 76.1133 6.15946C76.1133 7.07165 78.3054 7.81112 81.0094 7.81112Z" stroke="black" stroke-width="0.517039"/>
</g>
<defs>
<clipPath id="clip0_2109_206602">
<rect width="150" height="150" fill="white"/>
</clipPath>
</defs>
</svg>
