<svg width="150" height="150" viewBox="0 0 150 150" fill="none" xmlns="http://www.w3.org/2000/svg">
<g clip-path="url(#clip0_2109_206988)">
<path d="M14.5645 45.8884V39.0391H18.4684V45.8884H14.5645Z" fill="#BFCCCC" stroke="black" stroke-width="0.641382"/>
<path d="M15.4658 39.0411V28.0822H16.3667V0H16.9673V28.0822H17.8682V39.0411H15.4658Z" fill="#BFCCCC" stroke="black" stroke-width="0.641382"/>
<path d="M5.25494 63.6988V56.8495H6.15584V45.8906H18.4682V99.3153H2.85254V63.6988H5.25494Z" fill="#FAFAFA"/>
<path d="M2.85254 84.2486L18.4682 60.9609V99.3171H2.85254V84.2486Z" fill="#F5F5F5"/>
<path d="M2.85254 85.6131L18.4682 63.6953V99.3118H2.85254V85.6131Z" fill="#F0F0F0"/>
<path d="M2.85254 89.7252L18.4682 66.4375V99.3142H2.85254V89.7252Z" fill="#EBEBEB"/>
<path d="M5.25494 63.6988V56.8495H6.15584V45.8906H18.4682V99.3153H2.85254V63.6988H5.25494Z" stroke="black" stroke-width="0.641382"/>
<path d="M15.4658 63.7009V56.8516H18.4688V63.7009H15.4658Z" fill="#CCCCCC"/>
<path d="M15.4658 56.8495V45.8906H18.4688V56.8495H15.4658Z" fill="white"/>
<path d="M15.4658 45.8908V41.7812H18.4688V45.8908H15.4658Z" fill="#E5E5E5"/>
<path d="M15.4658 63.6991V41.7812H18.4688V63.6991" stroke="black" stroke-width="0.641382"/>
<path d="M6.75684 45.8884V39.0391H10.0601L10.6607 45.8884H6.75684Z" fill="#333333" stroke="black" stroke-width="0.641382"/>
<path d="M15.4658 56.8516H18.4688" stroke="#666666" stroke-width="0.641382"/>
<path d="M0.750751 92.4665L0 121.234H146.997L150 85.6172H131.982L127.477 92.4665H0.750751Z" fill="#333333"/>
<path d="M0 121.234L2.25225 150.001H150L147.598 134.933L146.997 121.234H0Z" fill="#7F0000"/>
<path d="M4.6543 85.6174V81.5078H16.9666V85.6174H16.366V92.4667H5.2549V85.6174H4.6543Z" fill="black"/>
<path d="M12.4629 56.8518V52.7422H14.565V56.8518H12.4629Z" fill="black"/>
<path d="M9.75977 56.8518V52.7422H11.8619V56.8518H9.75977Z" fill="black"/>
<path d="M7.05664 56.8518V52.7422H9.15874V56.8518H7.05664Z" fill="black"/>
<path d="M0 121.234L2.25225 150.001H150L147.598 134.932L146.997 121.234L150 85.6172H131.982L127.477 92.4665H0.750751L0 121.234Z" stroke="black" stroke-width="0.641382"/>
<path d="M135.886 96.5783H146.997V92.4688H135.886V96.5783Z" fill="#666666"/>
<path d="M144.595 110.274H145.496V106.164H144.595V110.274Z" fill="#CCCCCC"/>
<path d="M0.150391 122.602H146.697" stroke="#CC3300" stroke-width="0.641382"/>
</g>
<defs>
<clipPath id="clip0_2109_206988">
<rect width="150" height="150" fill="white"/>
</clipPath>
</defs>
</svg>
