<svg width="150" height="150" viewBox="0 0 150 150" fill="none" xmlns="http://www.w3.org/2000/svg">
<g clip-path="url(#clip0_2109_206226)">
<path d="M146.997 150.004L149.099 85.5087V75.7367L146.997 12.2188V150.004Z" fill="#6699FF" stroke="black" stroke-width="0.541713"/>
<path d="M2.85308 150.004L0.750977 85.5087V75.7367L2.85308 12.2188V150.004Z" fill="#6699FF" stroke="black" stroke-width="0.541713"/>
<path d="M12.4629 0H137.388V150H12.4629V0Z" fill="#003399" stroke="black" stroke-width="0.541713"/>
<path d="M62.3125 83.5469H87.5377V149.996H62.3125V83.5469Z" fill="#000066"/>
<path d="M2.85254 12.2188H68.6183L73.4231 75.7367V85.5087L68.6183 150.004H2.85254V12.2188Z" fill="#3366CC" stroke="black" stroke-width="0.541713"/>
<path d="M146.997 12.2188H81.2316L76.4268 75.7367V85.5087L81.2316 150.004H146.997V12.2188Z" fill="#3366CC" stroke="black" stroke-width="0.541713"/>
<path d="M143.694 85.5078H142.192V150.003H143.694V85.5078Z" fill="#4C7FE5" stroke="black" stroke-width="0.541713"/>
<path d="M125.075 85.5078H123.273V150.003H125.075V85.5078Z" fill="#4C7FE5" stroke="black" stroke-width="0.541713"/>
<path d="M101.651 85.5078H99.8496V150.003H101.651V85.5078Z" fill="#4C7FE5" stroke="black" stroke-width="0.541713"/>
<path d="M82.7329 85.5078H81.2314V150.003H82.7329V85.5078Z" fill="#4C7FE5" stroke="black" stroke-width="0.541713"/>
<path d="M6.15625 85.5078H7.65775V150.003H6.15625V85.5078Z" fill="#4C7FE5" stroke="black" stroke-width="0.541713"/>
<path d="M24.7744 85.5078H26.5762V150.003H24.7744V85.5078Z" fill="#4C7FE5" stroke="black" stroke-width="0.541713"/>
<path d="M48.498 85.5078H49.9995V150.003H48.498V85.5078Z" fill="#4C7FE5" stroke="black" stroke-width="0.541713"/>
<path d="M67.1172 85.5078H68.6187V150.003H67.1172V85.5078Z" fill="#4C7FE5" stroke="black" stroke-width="0.541713"/>
<path d="M82.7329 12.2188H81.2314V75.7367H82.7329V12.2188Z" fill="#6699FF" stroke="black" stroke-width="0.541713"/>
<path d="M101.651 12.2188H99.8496V75.7367H101.651V12.2188Z" fill="#6699FF" stroke="black" stroke-width="0.541713"/>
<path d="M125.075 12.2188H123.273V75.7367H125.075V12.2188Z" fill="#6699FF" stroke="black" stroke-width="0.541713"/>
<path d="M143.694 12.2188H142.192V75.7367H143.694V12.2188Z" fill="#6699FF" stroke="black" stroke-width="0.541713"/>
<path d="M67.1172 12.2188H68.6187V75.7367H67.1172V12.2188Z" fill="#6699FF" stroke="black" stroke-width="0.541713"/>
<path d="M48.498 12.2188H49.9995V75.7367H48.498V12.2188Z" fill="#6699FF" stroke="black" stroke-width="0.541713"/>
<path d="M24.7744 12.2188H26.5762V75.7367H24.7744V12.2188Z" fill="#6699FF" stroke="black" stroke-width="0.541713"/>
<path d="M6.15625 12.2188H7.65775V75.7367H6.15625V12.2188Z" fill="#6699FF" stroke="black" stroke-width="0.541713"/>
<path d="M149.85 75.7344H74.9248V85.5064H149.85V75.7344Z" fill="#6699FF" stroke="black" stroke-width="0.541713"/>
<path d="M0 75.7344H74.9249V85.5064H0V75.7344Z" fill="#6699FF" stroke="black" stroke-width="0.541713"/>
<path d="M149.85 80.6172H0" stroke="black" stroke-width="0.541713"/>
<path d="M125.676 149.999C137.783 149.999 147.598 118.061 147.598 78.6636C147.598 39.2661 137.783 7.32812 125.676 7.32812C113.569 7.32812 103.754 39.2661 103.754 78.6636C103.754 118.061 113.569 149.999 125.676 149.999Z" fill="#6699FF" stroke="black" stroke-width="0.541713"/>
<path d="M24.1739 149.999C36.281 149.999 46.0958 118.061 46.0958 78.6636C46.0958 39.2661 36.281 7.32812 24.1739 7.32812C12.0667 7.32812 2.25195 39.2661 2.25195 78.6636C2.25195 118.061 12.0667 149.999 24.1739 149.999Z" fill="#6699FF" stroke="black" stroke-width="0.541713"/>
<path d="M104.654 74.7578V78.6666H105.855V74.7578H104.654Z" fill="#003399"/>
<path d="M111.562 26.875L110.961 29.8066L111.562 32.7382L112.462 29.8066L111.562 26.875Z" fill="#003399"/>
<path d="M126.877 9.28125H125.676V13.19H126.877V9.28125Z" fill="#003399"/>
<path d="M146.997 81.5963V77.6875H145.796V81.5963H146.997Z" fill="#003399"/>
<path d="M139.79 129.48L140.691 126.549L139.79 123.617L139.189 126.549L139.79 129.48Z" fill="#003399"/>
<path d="M124.774 147.065H125.976V143.156H124.774V147.065Z" fill="#003399"/>
<path d="M110.061 124.596L110.961 126.55L111.862 124.596L110.961 121.664L110.061 124.596Z" fill="#003399"/>
<path d="M141.592 32.7363L140.691 29.8047L139.79 32.7363L140.691 34.6907L141.592 32.7363Z" fill="#003399"/>
<path d="M45.1953 74.7578V78.6666H43.9941V74.7578H45.1953Z" fill="#003399"/>
<path d="M38.2886 26.875L39.1895 29.8066L38.2886 32.7382L37.3877 29.8066L38.2886 26.875Z" fill="#003399"/>
<path d="M22.9727 9.28125H24.1739V13.19H22.9727V9.28125Z" fill="#003399"/>
<path d="M2.85254 81.5963V77.6875H4.05374V81.5963H2.85254Z" fill="#003399"/>
<path d="M10.0601 129.48L9.15918 126.549L10.0601 123.617L10.6607 126.549L10.0601 129.48Z" fill="#003399"/>
<path d="M25.0752 147.065H23.874V143.156H25.0752V147.065Z" fill="#003399"/>
<path d="M39.7901 124.596L38.8892 126.55L37.9883 124.596L38.8892 121.664L39.7901 124.596Z" fill="#003399"/>
<path d="M8.25781 32.7363L9.15871 29.8047L10.0596 32.7363L9.15871 34.6907L8.25781 32.7363Z" fill="#003399"/>
<path d="M118.168 137.294L123.273 142.18H128.378L133.183 137.294L137.688 129.476L141.291 117.75L143.994 103.092L145.045 86.4797V69.8673L143.994 54.2322L141.291 39.5742L137.688 27.8478L133.183 19.053L128.378 15.6328H123.273L118.168 19.053L113.664 27.8478L110.06 39.5742L107.658 54.2322L106.156 69.8673V86.4797L107.658 103.092L110.06 117.75L113.664 129.476L118.168 137.294Z" fill="#3366CC" stroke="#003399" stroke-width="0.541713"/>
<path d="M24.1741 141.691C34.8715 141.691 43.5434 113.472 43.5434 78.6621C43.5434 43.852 34.8715 15.6328 24.1741 15.6328C13.4766 15.6328 4.80469 43.852 4.80469 78.6621C4.80469 113.472 13.4766 141.691 24.1741 141.691Z" fill="#3366CC" stroke="#003399" stroke-width="0.541713"/>
<path d="M24.1747 124.591C31.9697 124.591 38.2888 104.028 38.2888 78.6627C38.2888 53.2972 31.9697 32.7344 24.1747 32.7344C16.3797 32.7344 10.0605 53.2972 10.0605 78.6627C10.0605 104.028 16.3797 124.591 24.1747 124.591Z" fill="#CC9933" stroke="black" stroke-width="0.541713"/>
<path d="M125.676 124.591C133.471 124.591 139.79 104.028 139.79 78.6627C139.79 53.2972 133.471 32.7344 125.676 32.7344C117.881 32.7344 111.562 53.2972 111.562 78.6627C111.562 104.028 117.881 124.591 125.676 124.591Z" fill="#CC9933" stroke="black" stroke-width="0.541713"/>
<path d="M112.463 75.7344V78.666H113.364V75.7344H112.463Z" fill="black"/>
<path d="M116.967 46.4141L116.366 47.3913L116.967 49.8343L117.567 47.3913L116.967 46.4141Z" fill="black"/>
<path d="M126.577 34.6875H125.676V37.6191H126.577V34.6875Z" fill="black"/>
<path d="M139.189 80.6191V77.6875H138.288V80.6191H139.189Z" fill="black"/>
<path d="M134.534 109.932L135.285 108.954L134.534 107L134.084 108.954L134.534 109.932Z" fill="black"/>
<path d="M125.075 121.658H125.976V118.727H125.075V121.658Z" fill="black"/>
<path d="M116.066 107.001L116.367 108.956L116.967 107.001L116.367 105.047L116.066 107.001Z" fill="black"/>
<path d="M135.585 49.8336L135.285 47.3906L134.534 49.8336L135.285 51.2994L135.585 49.8336Z" fill="black"/>
<path d="M37.3872 75.7344V78.666H36.4863V75.7344H37.3872Z" fill="black"/>
<path d="M32.8833 46.4141L33.4839 47.3913L32.8833 49.8343L32.583 47.3913L32.8833 46.4141Z" fill="black"/>
<path d="M23.2734 34.6875H24.1743V37.6191H23.2734V34.6875Z" fill="black"/>
<path d="M10.6611 80.6191V77.6875H11.562V80.6191H10.6611Z" fill="black"/>
<path d="M15.3152 109.932L14.5645 108.954L15.3152 107L15.7657 108.954L15.3152 109.932Z" fill="black"/>
<path d="M24.7749 121.658H23.874V118.727H24.7749V121.658Z" fill="black"/>
<path d="M34.084 107.001L33.4834 108.956L32.8828 107.001L33.4834 105.047L34.084 107.001Z" fill="black"/>
<path d="M14.2646 49.8336L14.5649 47.3906L15.3157 49.8336L14.5649 51.2994L14.2646 49.8336Z" fill="black"/>
<path d="M125.676 113.358C131.647 113.358 136.487 97.6081 136.487 78.1792C136.487 58.7502 131.647 43 125.676 43C119.705 43 114.865 58.7502 114.865 78.1792C114.865 97.6081 119.705 113.358 125.676 113.358Z" fill="#000033" stroke="black" stroke-width="0.541713"/>
<path d="M24.0237 113.358C29.9943 113.358 34.8345 97.6081 34.8345 78.1792C34.8345 58.7502 29.9943 43 24.0237 43C18.0531 43 13.2129 58.7502 13.2129 78.1792C13.2129 97.6081 18.0531 113.358 24.0237 113.358Z" fill="#000033" stroke="black" stroke-width="0.541713"/>
<path d="M56.9072 20.0312H64.715V34.6892H56.9072V20.0312Z" fill="#CC9933"/>
</g>
<defs>
<clipPath id="clip0_2109_206226">
<rect width="150" height="150" fill="white"/>
</clipPath>
</defs>
</svg>
