<svg width="150" height="150" viewBox="0 0 150 150" fill="none" xmlns="http://www.w3.org/2000/svg">
<g clip-path="url(#clip0_2109_205889)">
<path d="M128.979 34.8047L148.348 98.6168V149.998H128.979V34.8047Z" fill="#999999"/>
<path d="M43.6934 0H137.387V34.8066H128.979V115.193H137.387V150H43.6934V0Z" fill="#B2B2B2" stroke="black" stroke-width="0.705504"/>
<path d="M37.3877 12.4297H62.3126V149.999H37.3877V12.4297Z" fill="#999999"/>
<path d="M37.3877 15.7422H62.3126V145.024H37.3877V15.7422Z" fill="#B2B2B2"/>
<path d="M37.3877 21.5469H62.3126V136.74H37.3877V21.5469Z" fill="#CCCCCC"/>
<path d="M37.3877 12.4297H62.3126V149.999H37.3877V12.4297Z" stroke="black" stroke-width="0.705504"/>
<path d="M129.58 110.219H137.388V98.6168H148.349V88.6721L136.787 42.2633V34.8047H129.58V110.219Z" fill="#CCCCCC" stroke="black" stroke-width="0.705504"/>
<path d="M138.288 101.938H150V150.004H138.288V101.938Z" fill="#CCCCCC" stroke="black" stroke-width="0.705504"/>
<path d="M125.075 128.451V24.8594H123.274V38.119H115.466V115.191H123.274V128.451H125.075Z" fill="#999999"/>
<path d="M115.466 38.125H123.274V106.91H115.466V38.125Z" fill="#CCCCCC"/>
<path d="M110.961 8.28906H120.27V11.604H110.961V8.28906Z" fill="#7F7F7F"/>
<path d="M42.1924 24.8594H51.5017V29.003H42.1924V24.8594Z" fill="#7F7F7F"/>
<path d="M64.1143 15.7422H110.961V145.024H64.1143V15.7422Z" fill="#7F7F7F" stroke="black" stroke-width="0.705504"/>
<path d="M105.255 145.028L102.252 150H99.2494L83.3335 145.028L62.6128 136.74L62.3125 34.8065L83.3335 25.6905L99.2494 21.5469H102.252L105.255 24.8618L107.958 34.8065L110.06 45.58L111.562 61.3259L112.463 77.0717V93.6463L111.562 110.221L110.06 125.138L107.958 136.74L105.255 145.028Z" fill="#CCCCCC" stroke="black" stroke-width="0.705504"/>
<path d="M40.3906 131.77V115.195H50.0002" stroke="white" stroke-width="0.705504"/>
<path d="M79.7295 105.245L79.1289 100.272L78.5283 95.3L77.9277 88.6702V82.0404L78.5283 75.4105L79.1289 68.7807L79.7295 65.4658L80.9307 62.1509L82.1319 58.8359H83.3331L84.5343 62.1509L85.4352 65.4658" stroke="white" stroke-width="0.705504"/>
<path d="M95.9463 113.538L95.0454 106.908L94.1445 98.6204L93.5439 90.3331V80.3883L94.1445 72.101L95.0454 63.8138L95.9463 58.0126L97.4478 54.6977L98.9494 51.3828H100.751L102.253 54.6977L103.754 58.0126" stroke="white" stroke-width="0.705504"/>
<path d="M139.79 145.031L144.595 123.484" stroke="white" stroke-width="0.705504"/>
<path d="M125.075 24.8594V128.451H123.273" stroke="white" stroke-width="0.705504"/>
<path d="M123.274 115.195H115.466" stroke="white" stroke-width="0.705504"/>
<path d="M144.595 145.031V123.484" stroke="#7F7F7F" stroke-width="0.705504"/>
<path d="M123.273 128.455V115.195" stroke="#7F7F7F" stroke-width="0.705504"/>
<path d="M123.274 24.8594V106.904H115.466" stroke="#7F7F7F" stroke-width="0.705504"/>
<path d="M115.466 115.197V38.125H123.274" stroke="#7F7F7F" stroke-width="0.705504"/>
<path d="M137.387 131.765H113.964V24.8594" stroke="#7F7F7F" stroke-width="0.705504"/>
<path d="M103.754 58.0078L104.955 63.8089L105.856 72.0962L106.156 80.3835V90.3283L105.856 98.6155L104.955 106.903L103.754 113.533L102.253 116.848L100.751 120.163H98.9493L97.4478 116.848L95.9463 113.533" stroke="#7F7F7F" stroke-width="0.705504"/>
<path d="M85.4352 65.4688L86.3361 68.7837L86.9367 75.4135L87.237 82.0433V88.6732L86.9367 95.303L86.3361 100.275L85.4352 105.248L84.5343 108.563L83.3331 110.22H82.1319L80.9307 108.563L79.7295 105.248" stroke="#7F7F7F" stroke-width="0.705504"/>
<path d="M40.3906 131.77H50.0002V115.195" stroke="#7F7F7F" stroke-width="0.705504"/>
<path d="M10.0605 150V21.5469H34.3849L37.3879 24.8618V145.028L34.3849 150H10.0605Z" fill="#B2B2B2"/>
<path d="M10.0605 145.025V24.8594H34.3849L37.3879 29.003V141.71L34.3849 145.025H10.0605Z" fill="#BFBFBF"/>
<path d="M10.0605 136.738V34.8047H34.3849L37.3879 38.1196V133.423L34.3849 136.738H10.0605Z" fill="#CCCCCC"/>
<path d="M10.0605 123.479V45.5781H34.3849L37.3879 48.893V121.821L34.3849 123.479H10.0605Z" fill="#D9D9D9"/>
<path d="M10.0605 106.906V63.8125H34.3849L37.3879 65.47V105.249L34.3849 106.906H10.0605Z" fill="#E5E5E5"/>
<path d="M10.0605 150V21.5469H34.3849L37.3879 24.8618V145.028L34.3849 150H10.0605Z" stroke="black" stroke-width="0.705504"/>
<path d="M10.0601 21.5469L0 24.8618V145.028L10.0601 150V21.5469Z" fill="#999999"/>
<path d="M10.0601 24.8594L0 29.003V141.71L10.0601 145.025V24.8594Z" fill="#B2B2B2"/>
<path d="M10.0601 34.8047L0 38.1196V133.423L10.0601 136.738V34.8047Z" fill="#CCCCCC"/>
<path d="M10.0605 51.3828H31.0816V141.714H10.0605V51.3828Z" fill="#666666"/>
<path d="M0 98.6172H1.5015V141.711H0V98.6172Z" fill="#666666"/>
<path d="M0 51.3828H1.5015V93.648H0V51.3828Z" fill="#666666"/>
<path d="M10.0605 58.8359H31.9825" stroke="black" stroke-width="0.705504"/>
<path d="M10.0605 67.125H31.9825" stroke="black" stroke-width="0.705504"/>
<path d="M10.0605 77.0703H31.9825" stroke="black" stroke-width="0.705504"/>
<path d="M10.0605 85.3594H31.9825" stroke="black" stroke-width="0.705504"/>
<path d="M10.0605 93.6484H31.9825" stroke="black" stroke-width="0.705504"/>
<path d="M10.0605 101.938H31.9825" stroke="black" stroke-width="0.705504"/>
<path d="M10.0605 110.219H31.9825" stroke="black" stroke-width="0.705504"/>
<path d="M10.0605 118.508H31.9825" stroke="black" stroke-width="0.705504"/>
<path d="M10.0605 126.797H31.9825" stroke="black" stroke-width="0.705504"/>
<path d="M10.0605 136.742H31.9825" stroke="black" stroke-width="0.705504"/>
<path d="M10.0605 55.5234H31.9825" stroke="black" stroke-width="0.705504"/>
<path d="M10.0605 63.8125H31.9825" stroke="black" stroke-width="0.705504"/>
<path d="M10.0605 72.1016H31.9825" stroke="black" stroke-width="0.705504"/>
<path d="M10.0605 80.3906H31.9825" stroke="black" stroke-width="0.705504"/>
<path d="M10.0605 88.6719H31.9825" stroke="black" stroke-width="0.705504"/>
<path d="M10.0605 96.9609H31.9825" stroke="black" stroke-width="0.705504"/>
<path d="M10.0605 105.25H31.9825" stroke="black" stroke-width="0.705504"/>
<path d="M10.0605 115.195H31.9825" stroke="black" stroke-width="0.705504"/>
<path d="M10.0605 123.484H31.9825" stroke="black" stroke-width="0.705504"/>
<path d="M10.0605 131.766H31.9825" stroke="black" stroke-width="0.705504"/>
<path d="M10.0601 21.5469L0 24.8618V145.028L10.0601 150V21.5469Z" stroke="black" stroke-width="0.705504"/>
</g>
<defs>
<clipPath id="clip0_2109_205889">
<rect width="150" height="150" fill="white"/>
</clipPath>
</defs>
</svg>
