<svg width="150" height="150" viewBox="0 0 150 150" fill="none" xmlns="http://www.w3.org/2000/svg">
<g clip-path="url(#clip0_2109_205160)">
<path d="M123.273 108.559L123.724 133.183L115.616 123.273L99.5496 128.078L88.2883 150L85.8859 137.237L69.8198 133.483L48.7988 146.246L53.3033 134.084L41.2913 123.273L16.6667 123.724L26.5766 115.616L21.1712 99.5496L0 88.2883L12.6126 85.8859L16.3664 69.3694L3.6036 49.0991L15.7658 53.3033L26.5766 40.8408L26.1261 16.6667L34.2342 26.5766L50.3003 21.1712L61.5616 0L63.964 12.6126L79.7297 15.9159L100.751 3.6036L96.5465 15.7658L108.559 26.2763L133.183 26.1261L123.273 34.2342L128.679 50.3003L150 61.5616L137.237 63.964L133.934 79.7297L146.246 101.051L134.084 96.5465L123.273 108.559Z" fill="#E5CB98" stroke="black" stroke-width="0.3003"/>
<path d="M24.6244 98.6465L19.3691 69.8176L30.0298 42.7906L51.5013 24.6224L80.0298 19.3672L106.757 29.4272L125.675 51.199L130.781 79.7275L120.42 106.755L98.6484 125.223L70.1199 130.178L43.0929 120.719L24.6244 98.6465Z" fill="#EDDBB7"/>
<path d="M24.6244 98.649L19.3691 69.8202L30.0298 42.7932L51.5013 24.625L74.9247 74.9253L125.675 51.2016L130.781 79.7301L120.42 106.757L98.6484 125.226L74.9247 74.9253L24.6244 98.649Z" fill="#F0E1C2"/>
<path d="M19.3691 69.8161L30.0298 42.7891L74.9247 74.9212L130.781 79.726L120.42 106.753L74.9247 74.9212L19.3691 69.8161Z" fill="#F2E5CC"/>
<path d="M74.9249 100.449C89.0223 100.449 100.45 89.0213 100.45 74.924C100.45 60.8266 89.0223 49.3984 74.9249 49.3984C60.8276 49.3984 49.3994 60.8266 49.3994 74.924C49.3994 89.0213 60.8276 100.449 74.9249 100.449Z" stroke="#7F7F7F" stroke-width="0.3003"/>
<path d="M61.5616 83.4806L59.7598 79.7268L59.1592 75.5226V71.6187L60.6607 67.2644L63.0631 63.6608L66.3664 61.5587L70.1201 59.7569L74.3243 59.1562H78.2282L82.5826 60.6578L86.1862 63.0602L88.2883 66.3635L90.0901 70.1172L90.6907 74.3214V78.2253L89.1892 82.5797L86.7868 86.1833L83.4835 88.2854L79.7297 90.0872L75.5255 90.6878H71.6216L67.2673 89.1863L63.6637 86.7839L61.5616 83.4806Z" fill="#331900"/>
<path d="M95.7955 60.0606L93.3931 57.0576L92.4922 54.0546L93.6934 50.6011L96.5462 48.7993L99.8495 47.8984L103.153 49.3999L104.955 51.8023L105.555 54.9555L104.354 58.2588L102.252 60.9615L98.6483 61.2618L95.7955 60.0606Z" fill="#331900"/>
<path d="M80.4809 112.46C84.0467 112.46 86.9373 109.569 86.9373 106.003C86.9373 102.438 84.0467 99.5469 80.4809 99.5469C76.9151 99.5469 74.0244 102.438 74.0244 106.003C74.0244 109.569 76.9151 112.46 80.4809 112.46Z" fill="#331900"/>
<path d="M45.0451 70.721C48.6938 70.721 51.6517 67.7631 51.6517 64.1144C51.6517 60.4657 48.6938 57.5078 45.0451 57.5078C41.3964 57.5078 38.4385 60.4657 38.4385 64.1144C38.4385 67.7631 41.3964 70.721 45.0451 70.721Z" fill="#331900"/>
<path d="M13.5133 57.6596L10.21 58.5605L7.80762 55.107L9.30912 51.8037L12.6124 51.2031L15.165 54.056L13.5133 57.6596Z" fill="#F2E5CC" stroke="black" stroke-width="0.3003"/>
<path d="M13.5138 90.3942L10.5108 92.4963L7.20753 91.2951L6.90723 87.9918L9.30963 85.2891L12.9132 86.7906L13.5138 90.3942Z" fill="#F2E5CC" stroke="black" stroke-width="0.3003"/>
<path d="M29.1293 118.917L28.5287 122.22L24.6248 123.271L22.0723 120.268L23.2735 116.515L27.0272 115.914L29.1293 118.917Z" fill="#F2E5CC" stroke="black" stroke-width="0.3003"/>
<path d="M57.6576 136.339L58.5585 139.642L55.1051 142.045L51.8018 140.543L51.2012 137.24L54.054 134.688L57.6576 136.339Z" fill="#F2E5CC" stroke="black" stroke-width="0.3003"/>
<path d="M90.3903 136.336L92.4924 139.339L91.2912 142.642L87.9879 142.943L85.2852 140.54L86.7867 136.937L90.3903 136.336Z" fill="#F2E5CC" stroke="black" stroke-width="0.3003"/>
<path d="M118.919 120.719L122.673 121.77L123.273 125.223L120.27 127.776L116.517 126.575V122.821L118.919 120.719Z" fill="#F2E5CC" stroke="black" stroke-width="0.3003"/>
<path d="M136.336 92.19L139.64 91.2891L142.042 94.7425L140.54 98.0458L137.237 98.6464L134.685 95.7936L136.336 92.19Z" fill="#F2E5CC" stroke="black" stroke-width="0.3003"/>
<path d="M136.336 59.4615L139.339 57.3594L142.642 58.5606L142.943 61.8639L140.54 64.5666L136.937 63.0651L136.336 59.4615Z" fill="#F2E5CC" stroke="black" stroke-width="0.3003"/>
<path d="M30.9305 29.1274L27.6272 28.5268L26.5762 24.6229L29.5792 22.0703L33.3329 23.2715L33.9335 27.0253L30.9305 29.1274Z" fill="#F2E5CC" stroke="black" stroke-width="0.3003"/>
<path d="M59.4595 13.5129L57.3574 10.5099L58.5586 7.20655L61.8619 6.90625L64.5646 9.30865L63.0631 12.9123L59.4595 13.5129Z" fill="#F2E5CC" stroke="black" stroke-width="0.3003"/>
<path d="M92.1919 13.5104L91.291 10.2071L94.7445 7.80469L98.0478 9.30619L98.6484 12.6095L95.7955 15.162L92.1919 13.5104Z" fill="#F2E5CC" stroke="black" stroke-width="0.3003"/>
<path d="M120.721 30.9325L121.772 27.1787L125.225 26.5781L127.778 29.5811L126.577 33.3349H122.823L120.721 30.9325Z" fill="#F2E5CC" stroke="black" stroke-width="0.3003"/>
</g>
<defs>
<clipPath id="clip0_2109_205160">
<rect width="150" height="150" fill="white"/>
</clipPath>
</defs>
</svg>
