<svg width="150" height="150" viewBox="0 0 150 150" fill="none" xmlns="http://www.w3.org/2000/svg">
<g clip-path="url(#clip0_2109_207767)">
<path d="M0 140.859L3.6036 133.38L7.20721 125.9L10.961 118.421L15.3153 113.85L19.8198 110.942L23.7237 107.202L27.1772 99.723L30.1802 88.5042L33.1832 77.7008L35.8859 68.5596L39.3393 60.6648L42.7928 54.4321L46.997 46.9529L50.9009 39.0582L54.0541 29.5014L57.2072 19.9446L60.5105 10.8033L64.8649 5.81717L69.2192 1.24654L69.8198 0.415512L70.4204 0H71.021L75.3754 3.73961L79.1291 6.23269L82.4324 14.1274L86.1862 23.2687L90.0901 32.41L94.1441 39.8892L98.6487 46.5374L102.853 51.9391L105.255 53.6011L108.559 62.3269L112.012 71.0526L115.465 79.7784L118.919 88.5042L120.871 93.4903L124.775 98.0609L128.378 103.047L132.132 108.449L136.336 112.604H136.787L140.09 120.914L143.393 128.809L146.547 137.119L149.099 142.936L150 145.014H147.748L141.892 145.845L136.637 146.26L131.682 146.676L127.177 147.091L122.823 147.507L118.318 147.922L113.814 148.338L109.009 148.753L103.604 149.584L97.7477 150H95.6456H93.6937H32.8829L28.2282 148.338L22.6727 147.507L17.7177 147.091L12.7628 146.26L7.95796 145.014L2.85285 142.936L0.600601 141.69L0 140.859Z" fill="#666666" stroke="black" stroke-width="0.499557"/>
<path d="M114.565 95.151L109.91 96.8131L105.255 98.0596L101.201 101.384L98.9492 103.461L96.3966 113.434L93.3936 122.159L89.9402 128.392L86.787 136.287L84.5347 142.519L80.6308 147.09L80.3305 147.506L79.8801 147.09L76.7269 145.013L73.2735 136.702L69.9702 129.639L66.2164 124.652L62.9131 117.589L59.76 109.278L55.4056 105.954L50.9011 104.292L47.5978 95.5665L44.1443 86.8408L42.0422 81.0236L41.5918 80.1926H42.4927L47.2975 82.2701L51.5017 84.3477L56.1564 87.2563L61.1113 89.3339L66.0663 90.5804L71.0212 90.1649L75.826 87.2563L80.1804 81.4391L83.9341 72.2978L86.0362 63.5721L86.9371 58.5859L88.5888 59.0014L92.9432 63.9876L96.3966 71.4668L99.8501 80.1926L101.051 81.4391H101.352L101.652 80.1926L101.952 77.6995L106.457 83.5167L110.21 88.9183L113.964 94.7355L114.565 95.151Z" fill="#404040"/>
<path d="M31.9815 123.406L32.8824 128.392L31.6812 132.548V136.703L29.5791 139.196L28.9785 131.716V124.237L31.9815 123.406Z" fill="#666666" stroke="black" stroke-width="0.499557"/>
<path d="M133.483 123.406L134.384 128.392L133.183 132.548V136.703L130.78 139.196L130.18 131.716L130.48 124.237L133.483 123.406Z" fill="#666666" stroke="black" stroke-width="0.499557"/>
<path d="M91.7417 103.461L90.8408 108.447L92.3423 112.602L92.042 116.757L94.4444 120.081L95.045 111.771V105.123L91.7417 103.461Z" fill="#666666" stroke="black" stroke-width="0.499557"/>
<path d="M63.5133 57.7578L64.4142 62.744L63.213 66.8991V71.0542L60.8106 74.3783L60.21 66.0681L60.5103 59.4199L63.5133 57.7578Z" fill="#666666" stroke="black" stroke-width="0.499557"/>
<path d="M32.8829 116.758L34.985 119.251V124.237L35.8859 127.561L34.985 133.378L32.5826 129.223L31.0811 123.406L32.8829 116.758Z" fill="#666666" stroke="black" stroke-width="0.499557"/>
<path d="M134.384 116.758L136.486 119.251V124.237L137.387 127.561L136.486 133.378L134.084 129.223L132.582 123.406L134.384 116.758Z" fill="#666666" stroke="black" stroke-width="0.499557"/>
<path d="M90.8409 97.6484L89.0391 99.3105V105.128L87.8379 107.621L89.0391 114.269L91.1412 109.283L92.943 103.466L90.8409 97.6484Z" fill="#666666" stroke="black" stroke-width="0.499557"/>
<path d="M84.2339 23.6875L86.0357 25.3495V31.1667L87.2369 33.6598L86.0357 40.308L83.6333 35.3218L82.1318 29.5047L84.2339 23.6875Z" fill="#666666" stroke="black" stroke-width="0.499557"/>
<path d="M27.7774 140.855L25.6753 139.193V133.376L24.7744 130.883L25.6753 124.234L28.0777 129.221L29.5792 134.207L27.7774 140.855Z" fill="#666666" stroke="black" stroke-width="0.499557"/>
<path d="M128.979 140.855L127.177 139.193V133.376L126.276 130.883L127.177 124.234L129.58 129.221L131.081 134.207L128.979 140.855Z" fill="#666666" stroke="black" stroke-width="0.499557"/>
<path d="M96.2466 121.745L98.0484 119.252V114.266L99.2496 110.942L98.0484 105.125L95.9463 109.28L94.1445 115.097L96.2466 121.745Z" fill="#666666" stroke="black" stroke-width="0.499557"/>
<path d="M60.8106 77.6986L58.7085 76.0366V70.2194L57.8076 67.7263L58.7085 61.0781L61.1109 66.0643L62.6124 71.0504L60.8106 77.6986Z" fill="#666666" stroke="black" stroke-width="0.499557"/>
<path d="M34.6846 130.883L32.8828 132.545V138.362L31.6816 140.855L32.8828 147.503L34.9849 142.517L36.7867 137.531L34.6846 130.883Z" fill="#666666" stroke="black" stroke-width="0.499557"/>
<path d="M136.187 130.883L134.385 132.545V138.362L133.184 140.855L134.385 147.503L136.487 142.517L138.289 137.531L136.187 130.883Z" fill="#666666" stroke="black" stroke-width="0.499557"/>
<path d="M89.0391 110.945L91.1412 113.438V118.425L92.0421 121.749L91.1412 127.566L88.7388 123.411L87.2373 117.594L89.0391 110.945Z" fill="#666666" stroke="black" stroke-width="0.499557"/>
<path d="M86.0362 37.8125L83.9341 39.4745V44.4607L83.0332 47.7848L83.9341 53.602L86.3365 49.4468L87.838 43.6297L86.0362 37.8125Z" fill="#666666" stroke="black" stroke-width="0.499557"/>
<path d="M33.483 146.677L31.9815 150.002L30.1797 145.846L28.9785 146.677L27.7773 140.029L30.48 138.367H33.1827L33.483 146.677Z" fill="#666666" stroke="black" stroke-width="0.499557"/>
<path d="M134.985 146.677L133.183 150.002L131.682 145.846L130.48 146.677L129.279 140.029L131.982 138.367H134.685L134.985 146.677Z" fill="#666666" stroke="black" stroke-width="0.499557"/>
<path d="M90.2402 126.732L92.042 130.056L93.5435 126.732H95.045L95.9459 120.084L93.2432 118.422H90.8408L90.2402 126.732Z" fill="#666666" stroke="black" stroke-width="0.499557"/>
<path d="M65.0153 81.8522L63.2135 84.3453L61.712 81.0212H60.5108L59.3096 74.373L62.0123 72.7109H64.715L65.0153 81.8522Z" fill="#666666" stroke="black" stroke-width="0.499557"/>
<path d="M21.7715 144.185L23.5733 147.509L25.0748 144.185L26.5763 145.016L27.7775 139.199L25.0748 136.706L22.6724 135.875L21.7715 144.185Z" fill="#666666" stroke="black" stroke-width="0.499557"/>
<path d="M123.273 144.185L125.075 147.509L126.577 144.185L128.078 145.016L129.279 139.199L126.577 136.706L124.174 135.875L123.273 144.185Z" fill="#666666" stroke="black" stroke-width="0.499557"/>
<path d="M101.952 124.24L100.451 127.564L98.649 125.071H97.4478L95.9463 119.254L98.649 116.761L101.352 115.93L101.952 124.24Z" fill="#666666" stroke="black" stroke-width="0.499557"/>
<path d="M53.3037 78.529L54.8052 81.8531L56.607 79.36H58.1085L59.3097 73.5428L56.607 71.0498L53.9043 70.2188L53.3037 78.529Z" fill="#666666" stroke="black" stroke-width="0.499557"/>
<path d="M42.1925 139.199L40.691 135.875L38.8892 138.368L37.688 137.537L36.1865 142.523L38.5889 145.847L41.2916 147.509L42.1925 139.199Z" fill="#666666" stroke="black" stroke-width="0.499557"/>
<path d="M143.544 139.199L142.193 135.875L140.391 138.368L139.189 137.537L137.388 142.523L140.09 145.847L142.793 147.509L143.544 139.199Z" fill="#666666" stroke="black" stroke-width="0.499557"/>
<path d="M81.5312 120.085L83.0328 115.93L84.8346 118.423L86.3361 117.592L87.8376 123.409L85.1349 126.733L82.7325 127.564L81.5312 120.085Z" fill="#666666" stroke="black" stroke-width="0.499557"/>
<path d="M93.2433 46.1239L91.7418 41.9688L90.2403 44.4618L88.7388 43.6308L87.2373 49.448L89.6397 52.7721L92.3424 53.6031L93.2433 46.1239Z" fill="#666666" stroke="black" stroke-width="0.499557"/>
</g>
<defs>
<clipPath id="clip0_2109_207767">
<rect width="150" height="150" fill="white"/>
</clipPath>
</defs>
</svg>
