<svg width="150" height="150" viewBox="0 0 150 150" fill="none" xmlns="http://www.w3.org/2000/svg">
<g clip-path="url(#clip0_2109_207429)">
<path d="M128.176 14.2643L121.987 11.5616L115.798 0H103.094L90.7166 2.85285L81.2704 0L59.4463 6.00601H46.7427L31.1075 14.2643L28.1759 25.976L15.4723 28.6787L9.44625 40.3904L3.09446 43.0931L0 66.2162L12.3778 69.2192H43.8111L59.4463 71.9219L81.2704 69.2192H96.9055L115.798 71.9219L140.879 69.2192L150 63.5135L147.068 49.0991L137.622 34.6847L131.433 28.6787L128.176 14.2643Z" fill="#996633" stroke="black" stroke-width="0.312758"/>
<path d="M137.622 63.5112L131.433 57.5052L137.622 51.7995L134.365 46.0938L131.433 51.7995L115.798 57.5052L137.622 63.5112Z" fill="#663300"/>
<path d="M96.9053 8.71094L109.283 11.5638H118.729L112.54 17.2695L109.283 25.9782V17.2695L96.9053 8.71094Z" fill="#663300"/>
<path d="M31.1074 25.9778L34.3648 28.6805L46.7426 22.9748L59.4462 28.6805L71.824 19.9718L68.5667 6.00781V17.2691L49.9999 19.9718L46.7426 14.2661L40.5537 22.9748L31.1074 25.9778Z" fill="#663300"/>
<path d="M75.0809 25.9743L84.5272 34.683L81.2699 43.0915L68.5663 46.0945L65.6347 40.3887L52.9311 43.0915L46.7422 37.3857L49.9995 46.0945L62.3774 51.8002H71.8236L81.2699 63.5119H87.4588V51.8002L93.6477 46.0945L112.54 49.0975L124.918 40.3887L112.54 46.0945L103.094 43.0915L100.162 37.3857L106.351 31.68L96.9051 34.683L81.2699 25.9743V17.2656L75.0809 25.9743Z" fill="#663300"/>
<path d="M43.8114 66.2187L40.5541 60.513L31.1078 54.8073L24.9189 60.513L9.44656 63.516L6.02637 57.51L9.44656 49.1016V57.51H21.6615L28.1762 49.1016L40.5541 51.8043L46.743 60.513L43.8114 66.2187Z" fill="#663300"/>
<path d="M112.541 124.172L131.433 112.46L140.879 92.3403L143.811 72.2202L150 63.5115V46.0941L143.811 31.6797L140.879 46.0941L137.622 51.7998L112.541 63.5115L62.3778 69.2172L59.4463 63.5115L56.1889 66.2142L21.6612 57.5055L0 40.3884V66.2142L37.2964 98.0461V124.172L59.4463 126.875L65.6352 132.581L62.3778 138.436L68.5668 149.998L84.5277 146.995L90.7166 141.139L112.541 124.172Z" fill="#CCCCCC" stroke="black" stroke-width="0.312758"/>
<path d="M93.6487 115.465V109.459L100.163 103.753L121.987 98.0476L128.176 89.3389V80.6302L121.987 74.9245L100.163 72.2218L68.5672 77.9275L62.3783 74.9245V69.2188H52.932L43.8115 74.9245" stroke="black" stroke-width="0.312758"/>
<path d="M96.9053 118.172L112.54 124.178" stroke="black" stroke-width="0.312758"/>
<path d="M112.541 124.174L96.9055 118.168L21.6612 57.5078L9.44625 60.5108L0 66.2165" stroke="black" stroke-width="0.312758"/>
<path d="M143.811 72.2251H137.622V51.8047" stroke="black" stroke-width="0.312758"/>
<path d="M140.88 46.0938H150" stroke="black" stroke-width="0.312758"/>
<path d="M52.9316 83.6306L56.189 77.9249L62.3779 74.9219L65.6352 92.3393" stroke="black" stroke-width="0.312758"/>
<path d="M37.2969 98.0469L90.7171 141.14" stroke="black" stroke-width="0.312758"/>
<path d="M42.5081 121.174L40.5537 119.373V116.97L42.5081 115.469H45.114L46.7426 116.97V119.373L45.114 121.174H42.5081Z" fill="white" stroke="black" stroke-width="0.312758"/>
<path d="M70.5208 144.293L68.5664 142.492V140.089L70.5208 138.438H73.1267L75.0811 140.089V142.492L73.1267 144.293H70.5208Z" fill="white" stroke="black" stroke-width="0.312758"/>
</g>
<defs>
<clipPath id="clip0_2109_207429">
<rect width="150" height="150" fill="white"/>
</clipPath>
</defs>
</svg>
