<svg width="150" height="150" viewBox="0 0 150 150" fill="none" xmlns="http://www.w3.org/2000/svg">
<g clip-path="url(#clip0_2109_205953)">
<path d="M134.384 5.67686H18.4682L15.4652 0H6.30601L2.25195 5.67686V146.507H134.384V5.67686Z" fill="#336666" stroke="black" stroke-width="0.362126"/>
<path d="M19.3691 14.625H36.4863V137.332H19.3691V14.625Z" fill="#295C5C"/>
<path d="M16.3662 81.875H37.3872V118.12H16.3662V81.875Z" fill="#194C4C"/>
<path d="M37.3877 7.64062H137.238V148.689H37.3877V7.64062Z" fill="#669999" stroke="black" stroke-width="0.362126"/>
<path d="M21.9219 62.2266H37.3873V67.0301H21.9219V62.2266Z" fill="#669999" stroke="black" stroke-width="0.362126"/>
<path d="M50 9.17188H127.928V40.8313H50V9.17188Z" fill="#7FB2B2"/>
<path d="M50 44.3203H127.928V80.5649H50V44.3203Z" fill="#669999" stroke="black" stroke-width="0.362126"/>
<path d="M51.502 50.875H126.577V73.5824H51.502V50.875Z" fill="#336666"/>
<path d="M102.252 10.2656H127.177V27.2962H102.252V10.2656Z" fill="#003333"/>
<path d="M76.4268 10.2656H101.352V27.2962H76.4268V10.2656Z" fill="#003333"/>
<path d="M50.6006 10.2656H75.8258V27.2962H50.6006V10.2656Z" fill="#003333"/>
<path d="M127.177 39.5233L125.075 27.2962L127.177 10.2656V39.5233Z" fill="#336666"/>
<path d="M102.252 39.5233L104.654 27.2962L102.252 10.2656V39.5233Z" fill="#336666"/>
<path d="M101.351 39.5233L99.249 27.2962L101.351 10.2656V39.5233Z" fill="#336666"/>
<path d="M76.4268 39.5233L78.8292 27.2962L76.4268 10.2656V39.5233Z" fill="#336666"/>
<path d="M75.8262 39.5233L73.4238 27.2962L75.8262 10.2656V39.5233Z" fill="#336666"/>
<path d="M50.9004 39.5233L53.0025 27.2962L50.9004 10.2656V39.5233Z" fill="#336666"/>
<path d="M46.6963 84.9375H131.081V144.326H46.6963V84.9375Z" fill="#619494"/>
<path d="M46.6963 113.754L131.381 91.0469V137.335H46.6963V113.754Z" fill="#5C8F8F"/>
<path d="M46.6963 121.614L131.381 98.9062V137.334H46.6963V121.614Z" fill="#578A8A"/>
<path d="M46.6963 127.293L131.381 104.586V144.324H46.6963V127.293Z" fill="#528585"/>
<path d="M46.6963 144.326V84.9375H131.081" stroke="#003333" stroke-width="0.362126"/>
<path d="M51.502 50.875H126.577V59.1719H51.502V50.875Z" fill="#295C5C"/>
<path d="M51.502 50.875H126.577" stroke="#003333" stroke-width="0.362126"/>
<path d="M126.577 73.5781H51.502" stroke="#99CCCC" stroke-width="0.362126"/>
<path d="M134.385 0H150V150H134.385V0Z" fill="#99CCCC" stroke="black" stroke-width="0.362126"/>
<path d="M0 3.27344H15.4655V148.688H0V3.27344Z" fill="#99CCCC" stroke="black" stroke-width="0.362126"/>
<path d="M134.385 65.2833L150 62.2266V98.4711H134.385V65.2833Z" fill="#94C7C7"/>
<path d="M0 64.4083L15.4655 61.3516V97.5961H0V64.4083Z" fill="#94C7C7"/>
<path d="M134.385 67.9075L150 64.4141V98.4752H134.385V67.9075Z" fill="#8FC2C2"/>
<path d="M0 67.0325L15.4655 63.5391V97.6002H0V67.0325Z" fill="#8FC2C2"/>
<path d="M134.385 70.0872L150 66.5938V149.563H134.385V70.0872Z" fill="#8ABDBD"/>
<path d="M0 69.2122L15.4655 65.7188V148.688H0V69.2122Z" fill="#8ABDBD"/>
<path d="M134.385 5.67931V1.3125H148.949V5.67931H134.385Z" fill="#669999"/>
<path d="M0.900391 9.1715V4.80469H15.465V9.1715H0.900391Z" fill="#669999"/>
<path d="M15.465 4.80469H0.900391V147.818H15.465" stroke="black" stroke-width="0.362126"/>
<path d="M134.385 148.692H148.949V1.3125H134.385" stroke="black" stroke-width="0.362126"/>
<path d="M134.385 65.7188H148.949" stroke="black" stroke-width="0.362126"/>
<path d="M0.900391 64.8438H15.465" stroke="black" stroke-width="0.362126"/>
<path d="M51.5017 50.8771L42.793 47.8203V77.078L51.5017 73.5845V50.8771Z" fill="#4C7F7F" stroke="black" stroke-width="0.362126"/>
<path d="M135.886 47.8203H134.985V77.078H135.886V47.8203Z" fill="#4C7F7F" stroke="black" stroke-width="0.362126"/>
<path d="M126.576 50.8771L134.985 47.8203V77.078L126.576 73.5845V50.8771Z" fill="#7FB2B2" stroke="black" stroke-width="0.362126"/>
<path d="M42.1924 47.8203H42.793V77.078H42.1924V47.8203Z" fill="#7FB2B2" stroke="black" stroke-width="0.362126"/>
<path d="M28.0781 39.5234H37.3874V53.4972H28.0781V39.5234Z" fill="#669999" stroke="black" stroke-width="0.362126"/>
<path d="M21.9219 30.3516H28.078V62.2293H21.9219V30.3516Z" fill="#669999" stroke="black" stroke-width="0.362126"/>
<path d="M28.0781 41.2656H37.3874V51.746H28.0781V41.2656Z" fill="#7FB2B2"/>
<path d="M21.9219 33.8438H28.078V59.1713H21.9219V33.8438Z" fill="#7FB2B2"/>
<path d="M28.0781 43.4531H37.3874V49.5667H28.0781V43.4531Z" fill="#99CCCC"/>
<path d="M21.9219 39.5234H28.078V53.4972H21.9219V39.5234Z" fill="#99CCCC"/>
<path d="M28.0781 46.0703H37.3874V46.9437H28.0781V46.0703Z" fill="#B2E5E5"/>
<path d="M21.9219 45.1953H28.078V47.8154H21.9219V45.1953Z" fill="#B2E5E5"/>
<path d="M132.882 52.1797V71.3937L127.177 70.5203" stroke="#CCFFFF" stroke-width="0.362126"/>
<path d="M50.0001 69.2127L45.1953 70.5228V53.4922" stroke="black" stroke-width="0.362126"/>
</g>
<defs>
<clipPath id="clip0_2109_205953">
<rect width="150" height="150" fill="white"/>
</clipPath>
</defs>
</svg>
