<svg width="150" height="150" viewBox="0 0 150 150" fill="none" xmlns="http://www.w3.org/2000/svg">
<g clip-path="url(#clip0_2109_204971)">
<path d="M16.0661 83.335L15.4655 84.2359L9.75978 82.7344L9.15918 83.6353L12.4625 87.2389L18.4685 93.5452L16.0661 83.335Z" fill="#666600" stroke="black" stroke-width="0.3003"/>
<path d="M20.2707 98.3516L19.9704 99.5528L13.9644 99.2525L13.6641 100.153L17.8683 103.156L25.0755 107.361L20.2707 98.3516Z" fill="#666600" stroke="black" stroke-width="0.3003"/>
<path d="M28.0778 111.859V112.76L22.3721 114.262V115.163L26.8766 116.964L35.285 119.067L28.0778 111.859Z" fill="#666600" stroke="black" stroke-width="0.3003"/>
<path d="M39.1896 122.672L39.4899 123.573L34.3848 126.576V127.477L39.4899 127.777L48.1986 128.077L39.1896 122.672Z" fill="#666600" stroke="black" stroke-width="0.3003"/>
<path d="M52.7022 130.18L53.3028 131.081L49.0986 135.285L49.3989 136.186L54.504 135.285L62.9124 133.183L52.7022 130.18Z" fill="#666600" stroke="black" stroke-width="0.3003"/>
<path d="M67.7173 134.086L68.6182 134.687L65.6152 139.792L66.2158 140.693L70.7203 138.59L78.2278 134.086H67.7173Z" fill="#666600" stroke="black" stroke-width="0.3003"/>
<path d="M83.333 133.785L84.2339 134.386L82.7324 140.092L83.6333 140.692L87.2369 137.389L93.5432 131.383L83.333 133.785Z" fill="#666600" stroke="black" stroke-width="0.3003"/>
<path d="M98.3486 129.578L99.5498 129.879L99.2495 135.885L100.451 136.185L103.153 132.281L107.358 124.773L98.3486 129.578Z" fill="#666600" stroke="black" stroke-width="0.3003"/>
<path d="M111.862 121.77H112.763L114.265 127.475H115.166L116.967 122.971L119.07 114.562L111.862 121.77Z" fill="#666600" stroke="black" stroke-width="0.3003"/>
<path d="M122.673 110.657L123.574 110.357L126.577 115.462H127.478L127.778 110.357L128.078 101.648L122.673 110.657Z" fill="#666600" stroke="black" stroke-width="0.3003"/>
<path d="M130.18 97.1477L131.081 96.5471L135.285 100.751L136.186 100.451L135.285 95.3459L132.882 86.9375L130.18 97.1477Z" fill="#666600" stroke="black" stroke-width="0.3003"/>
<path d="M134.084 82.1355L134.685 81.2346L139.79 84.2376L140.691 83.637L138.588 79.1325L134.384 71.625L134.084 82.1355Z" fill="#666600" stroke="black" stroke-width="0.3003"/>
<path d="M133.784 66.5149L134.385 65.614L140.091 67.1155L140.691 66.2146L137.388 62.611L131.382 56.3047L133.784 66.5149Z" fill="#666600" stroke="black" stroke-width="0.3003"/>
<path d="M129.579 51.5012L129.88 50.3L135.886 50.6003L136.186 49.6994L131.982 46.6964L124.774 42.4922L129.579 51.5012Z" fill="#666600" stroke="black" stroke-width="0.3003"/>
<path d="M121.772 37.9885V37.0876L127.477 35.5861V34.6852L122.973 32.8834L114.564 30.7812L121.772 37.9885Z" fill="#666600" stroke="black" stroke-width="0.3003"/>
<path d="M110.66 27.1788L110.36 26.2779L115.465 23.2749V22.374L110.36 22.0737L101.651 21.7734L110.66 27.1788Z" fill="#666600" stroke="black" stroke-width="0.3003"/>
<path d="M97.1467 19.6701L96.5461 18.7692L100.75 14.565L100.45 13.6641L95.3449 14.565L86.9365 16.6671L97.1467 19.6701Z" fill="#666600" stroke="black" stroke-width="0.3003"/>
<path d="M82.1326 15.7629L81.2317 15.1623L84.2347 10.0572L83.6341 9.15625L79.1296 11.2584L71.6221 15.7629H82.1326Z" fill="#666600" stroke="black" stroke-width="0.3003"/>
<path d="M66.5169 16.0632L65.6159 15.4626L67.1175 9.75685L66.2166 9.15625L62.6129 12.4596L56.3066 18.4656L66.5169 16.0632Z" fill="#666600" stroke="black" stroke-width="0.3003"/>
<path d="M51.5012 20.2707L50.3 19.9704L50.6003 13.9644L49.6994 13.6641L46.6964 17.8683L42.4922 25.0755L51.5012 20.2707Z" fill="#666600" stroke="black" stroke-width="0.3003"/>
<path d="M37.9885 28.0807H37.0876L35.5861 22.375H34.6852L32.8834 26.8795L30.7812 35.2879L37.9885 28.0807Z" fill="#666600" stroke="black" stroke-width="0.3003"/>
<path d="M27.1774 39.1876L26.2765 39.4879L23.2735 34.3828H22.3726L22.0723 39.4879V48.1966L27.1774 39.1876Z" fill="#666600" stroke="black" stroke-width="0.3003"/>
<path d="M19.6701 52.7052L18.7692 53.3058L14.565 49.1016L13.6641 49.4019L14.565 54.507L16.9674 62.9154L19.6701 52.7052Z" fill="#666600" stroke="black" stroke-width="0.3003"/>
<path d="M15.7658 67.7193L15.1652 68.6202L10.0601 65.6172L9.15918 66.2178L11.2613 70.7223L15.4655 78.2298L15.7658 67.7193Z" fill="#666600" stroke="black" stroke-width="0.3003"/>
<path d="M13.6635 84.835L13.0629 86.0362L7.0569 84.2344L6.60645 85.1353L9.7596 89.0392L16.3662 95.3455L13.6635 84.835Z" fill="#999900" stroke="black" stroke-width="0.3003"/>
<path d="M18.1686 100.453L17.8683 101.654H11.7122L11.2617 102.555L15.7662 105.558L23.574 109.762L18.1686 100.453Z" fill="#999900" stroke="black" stroke-width="0.3003"/>
<path d="M26.8771 114.266V115.467L20.8711 116.968V118.17L25.6759 119.671L34.3846 122.073L26.8771 114.266Z" fill="#999900" stroke="black" stroke-width="0.3003"/>
<path d="M38.5885 125.375L38.8888 126.576L33.4834 129.579L33.7837 130.78L38.8888 131.081L47.8978 130.78L38.5885 125.375Z" fill="#999900" stroke="black" stroke-width="0.3003"/>
<path d="M53.0025 133.18L53.6031 134.081L49.0986 138.585L49.6992 139.336L54.8043 138.135L63.513 135.882L53.0025 133.18Z" fill="#999900" stroke="black" stroke-width="0.3003"/>
<path d="M68.6187 136.789L69.5196 137.54L66.5166 143.095L67.1172 143.696L71.922 141.294L79.4295 136.789H68.6187Z" fill="#999900" stroke="black" stroke-width="0.3003"/>
<path d="M84.835 136.187L86.0362 136.788L84.2344 142.794L85.1353 143.244L89.0392 140.091L95.3455 133.484L84.835 136.187Z" fill="#999900" stroke="black" stroke-width="0.3003"/>
<path d="M100.45 131.679L101.651 131.979V137.985L102.853 138.586L105.555 134.081L110.06 126.273L100.45 131.679Z" fill="#999900" stroke="black" stroke-width="0.3003"/>
<path d="M114.265 122.976H115.466L116.967 128.982H118.169L119.67 124.177L122.072 115.469L114.265 122.976Z" fill="#999900" stroke="black" stroke-width="0.3003"/>
<path d="M125.375 111.262L126.576 110.962L129.579 116.368L130.78 116.067L131.081 110.962L130.78 101.953L125.375 111.262Z" fill="#999900" stroke="black" stroke-width="0.3003"/>
<path d="M133.184 96.8464L134.084 96.2458L138.589 100.75L139.34 100.15L138.139 95.0446L135.886 86.3359L133.184 96.8464Z" fill="#999900" stroke="black" stroke-width="0.3003"/>
<path d="M136.787 81.2283L137.538 80.3274L143.093 83.3304L143.844 82.7298L141.592 78.2253L136.787 70.1172V81.2283Z" fill="#999900" stroke="black" stroke-width="0.3003"/>
<path d="M136.186 65.0183L136.787 63.8171L142.793 65.6189L143.243 64.718L140.09 60.8141L133.483 54.5078L136.186 65.0183Z" fill="#999900" stroke="black" stroke-width="0.3003"/>
<path d="M131.682 49.4031L131.982 48.2019H138.138L138.589 47.301L134.084 44.298L126.276 40.0938L131.682 49.4031Z" fill="#999900" stroke="black" stroke-width="0.3003"/>
<path d="M122.973 35.5891V34.3879L128.979 32.8864V31.6852L124.175 30.1837L115.466 27.7812L122.973 35.5891Z" fill="#999900" stroke="black" stroke-width="0.3003"/>
<path d="M111.261 24.4713L110.961 23.2701L116.367 20.2671L116.066 19.0659L110.961 18.7656L101.952 19.0659L111.261 24.4713Z" fill="#999900" stroke="black" stroke-width="0.3003"/>
<path d="M96.8464 16.664L96.2458 15.7631L100.75 11.2586L100.15 10.5078L95.0446 11.709L86.3359 13.9613L96.8464 16.664Z" fill="#999900" stroke="black" stroke-width="0.3003"/>
<path d="M81.2312 13.0632L80.3303 12.3124L83.3333 6.75685L82.7327 6.15625L77.9279 8.25835L70.1201 13.0632H81.2312Z" fill="#999900" stroke="black" stroke-width="0.3003"/>
<path d="M65.0154 13.6664L63.8142 13.0658L65.616 7.05983L64.7151 6.60938L60.8112 9.76253L54.5049 16.3691L65.0154 13.6664Z" fill="#999900" stroke="black" stroke-width="0.3003"/>
<path d="M49.3992 18.1647L48.198 17.8644V11.7083L47.2971 11.2578L44.294 15.7623L40.0898 23.5701L49.3992 18.1647Z" fill="#999900" stroke="black" stroke-width="0.3003"/>
<path d="M35.5852 26.8732H34.384L32.8824 20.8672H31.6812L30.1797 25.672L27.7773 34.3807L35.5852 26.8732Z" fill="#999900" stroke="black" stroke-width="0.3003"/>
<path d="M24.4743 38.5895L23.2731 38.8898L20.2701 33.4844L19.0689 33.7847L18.7686 38.8898L19.0689 47.8988L24.4743 38.5895Z" fill="#999900" stroke="black" stroke-width="0.3003"/>
<path d="M16.6669 53.0055L15.766 53.6061L11.2615 49.1016L10.5107 49.7022L11.7119 54.8073L13.9642 63.516L16.6669 53.0055Z" fill="#999900" stroke="black" stroke-width="0.3003"/>
<path d="M13.0629 68.6177L12.3122 69.5186L6.75661 66.5156L6.00586 67.1162L8.25811 71.6207L13.0629 79.7288V68.6177Z" fill="#999900" stroke="black" stroke-width="0.3003"/>
<path d="M77.3272 99.25L77.9278 100.451L77.3272 101.953H75.5254L74.9248 100.451L75.5254 99.25H77.3272Z" fill="#7F7F7F"/>
<path d="M72.5225 50.6011L71.9219 49.3999L72.5225 47.8984H74.3243L74.9249 49.3999L74.3243 50.6011H72.5225Z" fill="#7F7F7F"/>
<path d="M94.7451 60.814L95.646 59.3125H97.1475L98.0484 60.814L97.1475 62.0152H95.646L94.7451 60.814Z" fill="#7F7F7F"/>
<path d="M55.1051 89.0371L54.2042 90.5386H52.7027L51.8018 89.0371L52.7027 87.8359H54.2042L55.1051 89.0371Z" fill="#7F7F7F"/>
<path d="M52.7032 64.7183H51.2017L50.3008 63.5171L51.2017 62.0156H52.7032L53.3038 63.5171L52.7032 64.7183Z" fill="#7F7F7F"/>
<path d="M97.1475 85.1328H98.649L99.5499 86.334L98.649 87.8355H97.1475L96.5469 86.334L97.1475 85.1328Z" fill="#7F7F7F"/>
<path d="M37.6875 125.373L27.7776 126.274L26.8767 125.373L16.9668 122.97V120.868L26.8767 118.766L27.7776 117.565L37.6875 116.664V125.373Z" fill="#CCCC33" stroke="black" stroke-width="0.3003"/>
<path d="M52.1026 133.182L42.7933 136.785L41.5921 135.885L31.3819 136.335L30.7812 134.383L39.7903 129.578L40.3909 128.377L49.7002 124.773L52.1026 133.182Z" fill="#CCCC33" stroke="black" stroke-width="0.3003"/>
<path d="M67.7178 136.935L59.91 143.092L58.4085 142.491L48.7989 145.494L47.5977 143.692L55.1052 136.785L55.4055 135.284L63.5136 129.578L67.7178 136.935Z" fill="#CCCC33" stroke="black" stroke-width="0.3003"/>
<path d="M84.2343 136.787L77.928 144.445H76.4265L68.0181 150L66.5166 148.499L71.922 140.091V138.139L77.928 130.781L84.2343 136.787Z" fill="#CCCC33" stroke="black" stroke-width="0.3003"/>
<path d="M99.8495 132.282L95.9456 141.291L94.4441 141.892L87.5372 149.249L85.7354 148.048L88.7384 138.589L88.4381 136.937L92.342 128.078L99.8495 132.282Z" fill="#CCCC33" stroke="black" stroke-width="0.3003"/>
<path d="M113.964 123.876L112.462 133.785L110.961 134.386L106.456 143.245L104.354 142.794L104.654 132.885L104.054 131.383L105.555 121.773L113.964 123.876Z" fill="#CCCC33" stroke="black" stroke-width="0.3003"/>
<path d="M125.376 112.164L126.277 122.074L125.376 122.975L122.973 132.885H120.871L118.769 122.975L117.568 122.074L116.667 112.164H125.376Z" fill="#CCCC33" stroke="black" stroke-width="0.3003"/>
<path d="M133.183 97.75L136.786 107.059L135.886 108.261L136.336 118.471L134.384 119.071L129.579 110.062L128.378 109.462L124.774 100.152L133.183 97.75Z" fill="#CCCC33" stroke="black" stroke-width="0.3003"/>
<path d="M136.937 82.1328L143.094 89.9406L142.493 91.4421L145.496 101.052L143.694 102.253L136.787 94.7454L135.286 94.4451L129.58 86.337L136.937 82.1328Z" fill="#CCCC33" stroke="black" stroke-width="0.3003"/>
<path d="M136.787 65.6172L144.445 71.9235V73.425L150 81.8334L148.499 83.3349L140.091 77.9295H138.139L130.781 71.9235L136.787 65.6172Z" fill="#CCCC33" stroke="black" stroke-width="0.3003"/>
<path d="M132.282 50L141.291 53.9039L141.892 55.4054L149.249 62.3123L148.048 64.1141L138.589 61.1111L136.937 61.4114L128.078 57.5075L132.282 50Z" fill="#CCCC33" stroke="black" stroke-width="0.3003"/>
<path d="M123.874 35.8828L133.783 37.3843L134.384 38.8858L143.243 43.3903L142.793 45.4924L132.883 45.1921L131.381 45.7927L121.771 44.2912L123.874 35.8828Z" fill="#CCCC33" stroke="black" stroke-width="0.3003"/>
<path d="M112.162 24.4712L122.072 23.5703L122.973 24.4712L132.883 26.8736V28.9757L122.973 31.0778L122.072 32.279L112.162 33.1799V24.4712Z" fill="#CCCC33" stroke="black" stroke-width="0.3003"/>
<path d="M97.748 16.6661L107.057 13.0625L108.259 13.9634L118.469 13.513L119.069 15.4649L110.06 20.2697L109.46 21.4709L100.15 25.0745L97.748 16.6661Z" fill="#CCCC33" stroke="black" stroke-width="0.3003"/>
<path d="M82.1318 12.9101L89.9396 6.75396L91.4411 7.35457L101.051 4.35156L102.252 6.15336L94.7444 13.0603L94.4441 14.5618L86.336 20.2675L82.1318 12.9101Z" fill="#CCCC33" stroke="black" stroke-width="0.3003"/>
<path d="M65.6152 13.0631L71.9215 5.40541H73.423L81.8315 0L83.333 1.35135L77.9275 9.75976V11.7117L71.9215 19.0691L65.6152 13.0631Z" fill="#CCCC33" stroke="black" stroke-width="0.3003"/>
<path d="M50 17.5685L53.9039 8.55952L55.4054 7.95892L62.3123 0.601562L64.1141 1.80276L61.1111 11.2622L61.4114 12.9139L57.5075 21.7727L50 17.5685Z" fill="#CCCC33" stroke="black" stroke-width="0.3003"/>
<path d="M35.8857 25.9787L37.3872 16.0688L38.8887 15.4682L43.3932 6.60938L45.4954 7.05983L45.1951 16.9697L45.7957 18.4712L44.2942 28.0808L35.8857 25.9787Z" fill="#CCCC33" stroke="black" stroke-width="0.3003"/>
<path d="M24.4741 37.6895L23.5732 27.7796L24.4741 26.8787L26.8765 16.9688H28.9786L31.0807 26.8787L32.282 27.7796L33.4832 37.6895H24.4741Z" fill="#CCCC33" stroke="black" stroke-width="0.3003"/>
<path d="M16.6671 52.1026L13.0635 42.7933L13.9644 41.5921L13.5139 31.3819L15.4659 30.7812L20.2707 39.7903L21.4719 40.3909L25.0755 49.7002L16.6671 52.1026Z" fill="#CCCC33" stroke="black" stroke-width="0.3003"/>
<path d="M12.9131 67.7139L6.75689 59.9061L7.3575 58.4046L4.35449 48.795L6.15629 47.5938L13.0632 55.1013L14.5647 55.4016L20.2704 63.5097L12.9131 67.7139Z" fill="#CCCC33" stroke="black" stroke-width="0.3003"/>
<path d="M13.0631 84.2333L5.40541 77.927V76.4255L0 68.0171L1.35135 66.5156L9.75976 71.921H11.7117L19.0691 77.927L13.0631 84.2333Z" fill="#CCCC33" stroke="black" stroke-width="0.3003"/>
<path d="M17.5676 99.8485L8.55854 95.9446L7.95794 94.4431L0.600586 87.5362L1.80179 85.7344L11.2612 88.7374L12.9129 88.4371L21.7718 92.341L17.5676 99.8485Z" fill="#CCCC33" stroke="black" stroke-width="0.3003"/>
<path d="M25.9758 113.965L16.0659 112.463L15.4653 110.962L6.60645 106.457L7.0569 104.355L16.9668 104.655L18.4683 104.055L28.0779 105.556L25.9758 113.965Z" fill="#CCCC33" stroke="black" stroke-width="0.3003"/>
<path d="M98.6491 132.582L83.0334 136.786H66.8172L51.2016 132.582L37.0875 124.474L25.3758 113.062L17.2677 98.9484L13.0635 83.0325V66.8163L17.2677 50.9003L25.3758 36.7862L36.7872 25.3748L50.9013 17.2667L66.8172 13.0625H83.0334L98.9494 17.2667L113.063 25.3748L124.475 37.0865L132.583 50.9003L136.787 66.8163V83.0325L132.583 98.6481L124.475 113.062L112.763 124.474L98.6491 132.582Z" fill="#CCCC33"/>
<path d="M65.6152 13.0625L68.6182 25.3748H74.9245V13.0625H65.6152Z" fill="#B2B219"/>
<path d="M50 17.5665L56.006 28.6776L62.012 27.1761L59.009 15.1641L50 17.5665Z" fill="#B2B219"/>
<path d="M35.8857 25.9767L44.8948 34.9857L50.3002 31.9827L43.9939 21.1719L35.8857 25.9767Z" fill="#B2B219"/>
<path d="M24.4746 37.6847L35.5857 44.2913L39.7899 39.7868L31.0812 31.0781L24.4746 37.6847Z" fill="#B2B219"/>
<path d="M16.667 52.1003L28.9793 55.4036L31.9823 50.2985L21.1715 43.9922L16.667 52.1003Z" fill="#B2B219"/>
<path d="M12.9131 67.7165L25.3755 68.0168L27.1774 62.0108L15.1653 59.0078L12.9131 67.7165Z" fill="#B2B219"/>
<path d="M13.0635 84.2312L25.3758 81.2282V74.9219H13.0635V84.2312Z" fill="#B2B219"/>
<path d="M17.5674 99.8479L28.6786 93.5416L27.1771 87.8359L15.165 90.8389L17.5674 99.8479Z" fill="#B2B219"/>
<path d="M25.9757 113.961L34.9847 104.952L31.9817 99.5469L21.1709 105.853L25.9757 113.961Z" fill="#B2B219"/>
<path d="M37.6877 125.378L44.2943 114.267L39.7898 110.062L31.0811 118.771L37.6877 125.378Z" fill="#B2B219"/>
<path d="M52.1022 133.183L55.4056 120.87L50.3004 117.867L43.9941 128.678L52.1022 133.183Z" fill="#B2B219"/>
<path d="M67.7175 136.936L68.0178 124.474L62.0118 122.672L59.0088 134.684L67.7175 136.936Z" fill="#B2B219"/>
<path d="M84.2341 136.789L81.2311 124.477H74.9248V136.789H84.2341Z" fill="#B2B219"/>
<path d="M99.8499 132.283L93.5436 121.172L87.8379 122.673L90.8409 134.685L99.8499 132.283Z" fill="#B2B219"/>
<path d="M113.964 123.876L104.955 114.867L99.5498 117.87L105.856 128.681L113.964 123.876Z" fill="#B2B219"/>
<path d="M125.376 112.161L114.265 105.555L110.061 110.059L118.769 118.768L125.376 112.161Z" fill="#B2B219"/>
<path d="M133.183 97.7486L120.871 94.4453L117.868 99.5504L128.679 105.857L133.183 97.7486Z" fill="#B2B219"/>
<path d="M136.937 82.1284L124.475 81.8281L122.673 87.8341L134.685 90.8371L136.937 82.1284Z" fill="#B2B219"/>
<path d="M136.787 65.6172L124.475 68.6202V74.9265H136.787V65.6172Z" fill="#B2B219"/>
<path d="M132.282 50L121.171 56.3063L122.672 62.012L134.684 59.009L132.282 50Z" fill="#B2B219"/>
<path d="M123.874 35.8828L114.865 44.8918L117.868 50.2972L128.679 43.9909L123.874 35.8828Z" fill="#B2B219"/>
<path d="M112.162 24.4766L105.556 35.5877L110.06 39.7919L118.769 31.0832L112.162 24.4766Z" fill="#B2B219"/>
<path d="M97.7476 16.6641L94.4443 28.9764L99.5494 31.9794L105.856 21.1686L97.7476 16.6641Z" fill="#B2B219"/>
<path d="M82.1323 12.9141L81.832 25.3765L87.838 27.1783L90.841 15.1663L82.1323 12.9141Z" fill="#B2B219"/>
<path d="M74.9251 105.854C92.0078 105.854 105.856 92.0058 105.856 74.9231C105.856 57.8404 92.0078 43.9922 74.9251 43.9922C57.8424 43.9922 43.9941 57.8404 43.9941 74.9231C43.9941 92.0058 57.8424 105.854 74.9251 105.854Z" fill="#D9D940"/>
<path d="M74.925 102.856C90.3492 102.856 102.853 90.3521 102.853 74.9279C102.853 59.5038 90.3492 47 74.925 47C59.5008 47 46.9971 59.5038 46.9971 74.9279C46.9971 90.3521 59.5008 102.856 74.925 102.856Z" fill="#CCCC33"/>
<path d="M57.8079 97.1502L52.7028 92.045L49.0992 85.7387L46.9971 78.5315V71.3243L49.0992 64.1171L52.7028 57.8108L57.8079 52.7057L64.1142 49.1021L71.3214 47H78.5286L85.7358 49.1021L92.0421 52.7057" stroke="#999900" stroke-width="0.3003"/>
<path d="M92.0419 52.7031L97.147 57.8082L100.751 64.1145L102.853 71.3217V78.529L100.751 85.7362L97.147 92.0425L92.0419 97.1476L85.7355 100.751L78.5283 102.853H71.3211L64.1139 100.751L57.8076 97.1476" stroke="#FFFF66" stroke-width="0.3003"/>
<path d="M74.9248 43.9904H77.9278V16.0625H74.9248V43.9904Z" fill="#D9D940"/>
<path d="M48.1983 59.3056L49.6999 56.9032L25.6758 42.7891L23.874 45.4918L48.1983 59.3056Z" fill="#D9D940"/>
<path d="M101.652 90.5391L100.15 92.9415L124.174 107.056L125.976 104.353L101.652 90.5391Z" fill="#D9D940"/>
<path d="M74.9249 105.859H71.9219V133.787H74.9249V105.859Z" fill="#D9D940"/>
<path d="M48.1979 90.5386L46.6964 87.8359L22.3721 101.65L23.8736 104.352L48.1979 90.5386Z" fill="#D9D940"/>
<path d="M101.651 59.306L103.153 62.0087L127.477 48.1949L125.976 45.4922L101.651 59.306Z" fill="#D9D940"/>
<path d="M98.6491 132.582L83.0334 136.786H66.8172L51.2016 132.582L37.0875 124.474L25.3758 113.062L17.2677 98.9484L13.0635 83.0325V66.8163L17.2677 50.9003L25.3758 36.7862L36.7872 25.3748L50.9013 17.2667L66.8172 13.0625H83.0334L98.9494 17.2667L113.063 25.3748L124.475 37.0865L132.583 50.9003L136.787 66.8163V83.0325L132.583 98.6481L124.475 113.062L112.763 124.474L98.6491 132.582Z" stroke="black" stroke-width="0.3003"/>
<path d="M42.793 136.783L41.5918 135.883L39.79 129.576L40.3906 128.375L42.793 136.783Z" fill="black"/>
<path d="M27.7779 126.279L26.877 125.378V118.772L27.7779 117.57V126.279Z" fill="black"/>
<path d="M16.0664 112.463L15.4658 110.962L16.9673 104.655L18.4688 104.055L16.0664 112.463Z" fill="black"/>
<path d="M95.946 141.292L94.4445 141.892L88.7388 138.589L88.4385 136.938L95.946 141.292Z" fill="black"/>
<path d="M77.9279 144.447H76.4264L71.9219 140.093V138.141L77.9279 144.447Z" fill="black"/>
<path d="M59.9103 143.097L58.4088 142.496L55.1055 136.791L55.4058 135.289L59.9103 143.097Z" fill="black"/>
<path d="M126.276 122.07L125.375 122.971H118.769L117.567 122.07H126.276Z" fill="black"/>
<path d="M112.462 133.785L110.961 134.386L104.654 132.884L104.054 131.383L112.462 133.785Z" fill="black"/>
<path d="M136.786 107.055L135.885 108.256L129.579 110.058L128.378 109.457L136.786 107.055Z" fill="black"/>
<path d="M144.444 71.9219V73.4234L140.09 77.9279H138.138L144.444 71.9219Z" fill="black"/>
<path d="M143.093 89.9375L142.492 91.439L136.787 94.7423L135.285 94.442L143.093 89.9375Z" fill="black"/>
<path d="M133.784 37.3906L134.385 38.8921L132.883 45.1984L131.382 45.799L133.784 37.3906Z" fill="black"/>
<path d="M141.291 53.9062L141.891 55.4078L138.588 61.1135L136.937 61.4138L141.291 53.9062Z" fill="black"/>
<path d="M122.072 23.5703L122.973 24.4712V31.0778L122.072 32.279V23.5703Z" fill="black"/>
<path d="M107.057 13.0625L108.258 13.9634L110.06 20.2697L109.459 21.4709L107.057 13.0625Z" fill="black"/>
<path d="M71.9219 5.40625H73.4234L77.9279 9.7606V11.7126L71.9219 5.40625Z" fill="black"/>
<path d="M89.9395 6.75781L91.441 7.35841L94.7443 13.0641L94.444 14.5656L89.9395 6.75781Z" fill="black"/>
<path d="M53.9043 8.56154L55.4058 7.96094L61.1115 11.2642L61.4118 12.9159L53.9043 8.56154Z" fill="black"/>
<path d="M37.3877 16.0694L38.8892 15.4688L45.1955 16.9703L45.7961 18.4718L37.3877 16.0694Z" fill="black"/>
<path d="M23.5732 27.7759L24.4741 26.875H31.0807L32.282 27.7759H23.5732Z" fill="black"/>
<path d="M13.0635 42.7921L13.9644 41.5909L20.2707 39.7891L21.4719 40.3897L13.0635 42.7921Z" fill="black"/>
<path d="M6.75684 59.9064L7.35744 58.4049L13.0631 55.1016L14.5646 55.4019L6.75684 59.9064Z" fill="black"/>
<path d="M5.40527 77.9279V76.4264L9.75963 71.9219H11.7116L5.40527 77.9279Z" fill="black"/>
<path d="M8.55861 95.945L7.95801 94.4435L11.2613 88.7378L12.913 88.4375L8.55861 95.945Z" fill="black"/>
</g>
<defs>
<clipPath id="clip0_2109_204971">
<rect width="150" height="150" fill="white"/>
</clipPath>
</defs>
</svg>
