<svg width="150" height="150" viewBox="0 0 150 150" fill="none" xmlns="http://www.w3.org/2000/svg">
<g clip-path="url(#clip0_2109_207800)">
<path d="M128.078 29.7688L121.772 23.4104L115.766 0H103.153L90.5405 5.49133L81.2312 0L59.3093 11.8497H46.6967L31.0811 29.7688L28.0781 53.4682L15.4655 59.8266L9.15916 84.104L2.85285 89.8844L0 137.861L12.4625 144.22H43.6937L59.3093 150L81.2312 144.22H96.8468L115.766 150L140.691 144.22L150 132.081L146.997 102.023L137.387 71.9653L131.381 59.8266L128.078 29.7688Z" fill="#996633" stroke="black" stroke-width="0.416634"/>
<path d="M137.387 132.08L131.381 119.942L137.387 107.803L134.384 96.2422L131.381 107.803L115.766 119.942L137.387 132.08Z" fill="#663300"/>
<path d="M96.8467 17.6328L109.459 23.4132H118.769L112.462 35.5519L109.459 53.471V35.5519L96.8467 17.6328Z" fill="#663300"/>
<path d="M31.0811 53.4701L34.3844 59.8284L46.6967 47.6897L59.3093 59.8284L71.9219 41.9094L68.6186 11.8516V35.551L50 41.9094L46.6967 29.7706L40.3904 47.6897L31.0811 53.4701Z" fill="#663300"/>
<path d="M74.9245 53.466L84.2338 71.9631L81.2308 89.8821L68.6182 96.2405L65.6152 84.1018L53.0026 89.8821L46.6963 77.7434L49.9996 96.2405L62.3119 107.801H71.9215L81.2308 132.079H87.5371V107.801L93.8434 96.2405L112.462 102.021L125.075 84.1018L112.462 96.2405L103.153 89.8821L99.8494 77.7434L106.156 65.6047L96.8464 71.9631L81.2308 53.466V35.5469L74.9245 53.466Z" fill="#663300"/>
<path d="M43.6938 137.862L40.3905 126.301L31.0812 114.162L24.7749 126.301L9.15925 132.081L6.15625 119.943L9.15925 102.023V119.943H21.7719L28.0782 102.023L40.3905 107.804L46.6968 126.301L43.6938 137.862Z" fill="#663300"/>
</g>
<defs>
<clipPath id="clip0_2109_207800">
<rect width="150" height="150" fill="white"/>
</clipPath>
</defs>
</svg>
