<svg width="150" height="150" viewBox="0 0 150 150" fill="none" xmlns="http://www.w3.org/2000/svg">
<g clip-path="url(#clip0_2109_207565)">
<path d="M64.7151 86.7344V88.7113H53.3037V86.7344H64.7151Z" fill="#CCCCCC" stroke="black" stroke-width="0.385251"/>
<path d="M65.9159 116.391V118.368H52.4023V116.391H65.9159Z" fill="#CCCCCC" stroke="black" stroke-width="0.385251"/>
<path d="M66.8168 148.027L52.4024 118.373V116.396L64.7147 88.7186V86.7416L54.5045 58.5703H63.5135L53.3033 86.7416V88.7186L65.9159 116.396V118.373L51.2012 148.027" stroke="black" stroke-width="0.385251"/>
<path d="M53.3033 58.5703H54.5045L51.2012 148.027H50L53.3033 58.5703Z" fill="#CCCCCC" stroke="black" stroke-width="0.385251"/>
<path d="M63.5137 58.5703H64.7149L68.0182 148.027H66.817L63.5137 58.5703Z" fill="#CCCCCC" stroke="black" stroke-width="0.385251"/>
<path d="M62.3128 85.75V87.7269H50.3008V85.75H62.3128Z" fill="#CCCCCC" stroke="black" stroke-width="0.385251"/>
<path d="M63.513 116.883V118.86H49.0986V116.883H63.513Z" fill="#CCCCCC" stroke="black" stroke-width="0.385251"/>
<path d="M64.4145 150.002L49.0991 118.865V116.888L62.3124 87.7284V85.7515L51.5015 57.0859H61.1112L50.3003 85.7515V87.7284L63.5136 116.888V118.865L48.1982 150.002" stroke="black" stroke-width="0.385251"/>
<path d="M3.6036 0L150 138.633L146.246 149.012L0 9.88468L3.6036 0Z" fill="#CCCCCC"/>
<path d="M3.60359 0.25L150 139.624L146.847 148.52L0.600586 9.88756L3.60359 0.25Z" fill="#D1D1D1"/>
<path d="M3.60359 1.23438L149.7 140.114L146.847 148.022L0.600586 8.64788L3.60359 1.23438Z" fill="#D9D9D9"/>
<path d="M3.15338 1.97656L149.7 140.609L147.298 147.528L0.750977 8.15449L3.15338 1.97656Z" fill="#DEDEDE"/>
<path d="M3.00297 2.46875L149.249 141.596L147.598 147.032L1.20117 7.65821L3.00297 2.46875Z" fill="#E5E5E5"/>
<path d="M2.55252 2.71875L149.099 142.093L147.598 146.541L1.20117 7.41397L2.55252 2.71875Z" fill="#EBEBEB"/>
<path d="M2.553 3.46094L149.1 142.588L147.748 145.553L1.50195 6.67346L2.553 3.46094Z" fill="#F2F2F2"/>
<path d="M2.25197 3.70312L148.648 143.077L148.198 145.054L1.65137 6.17429L2.25197 3.70312Z" fill="#F7F7F7"/>
<path d="M1.6521 4.20312L148.199 143.577L147.748 144.071L1.50195 5.19159L1.6521 4.20312Z" fill="white"/>
<path d="M3.6036 0L150 138.633L146.246 149.012L0 9.88468L3.6036 0Z" stroke="black" stroke-width="0.385251"/>
<path d="M15.766 11.3672L12.3125 21.499" stroke="#7F7F7F" stroke-width="0.385251"/>
<path d="M6.45638 2.71875L3.00293 12.6034" stroke="#7F7F7F" stroke-width="0.385251"/>
<path d="M9.45955 5.1875L6.15625 15.5664" stroke="#7F7F7F" stroke-width="0.385251"/>
<path d="M12.7628 8.15625L9.15918 18.5352" stroke="#7F7F7F" stroke-width="0.385251"/>
<path d="M27.7779 22.9844L24.4746 32.8691" stroke="#7F7F7F" stroke-width="0.385251"/>
<path d="M18.7686 14.0859L15.165 24.4649" stroke="#7F7F7F" stroke-width="0.385251"/>
<path d="M21.7716 17.0547L18.168 26.9394" stroke="#7F7F7F" stroke-width="0.385251"/>
<path d="M24.775 20.2656L21.4717 29.9032" stroke="#7F7F7F" stroke-width="0.385251"/>
<path d="M40.0899 34.3516L36.4863 44.7305" stroke="#7F7F7F" stroke-width="0.385251"/>
<path d="M31.0811 25.9453L27.4775 35.83" stroke="#7F7F7F" stroke-width="0.385251"/>
<path d="M34.0841 28.9141L30.4805 38.7987" stroke="#7F7F7F" stroke-width="0.385251"/>
<path d="M37.087 31.3828L33.4834 41.7617" stroke="#7F7F7F" stroke-width="0.385251"/>
<path d="M52.4024 46.2109L48.7988 56.0956" stroke="#7F7F7F" stroke-width="0.385251"/>
<path d="M43.3936 37.3125L39.79 47.6914" stroke="#7F7F7F" stroke-width="0.385251"/>
<path d="M46.3966 40.2812L42.793 50.1659" stroke="#7F7F7F" stroke-width="0.385251"/>
<path d="M49.3995 43.2422L45.7959 53.1269" stroke="#7F7F7F" stroke-width="0.385251"/>
<path d="M64.7149 57.5781L61.1113 67.957" stroke="#7F7F7F" stroke-width="0.385251"/>
<path d="M55.4058 49.1797L52.1025 59.0644" stroke="#7F7F7F" stroke-width="0.385251"/>
<path d="M58.4088 52.1406L55.1055 62.0253" stroke="#7F7F7F" stroke-width="0.385251"/>
<path d="M61.712 55.1094L58.1084 64.9941" stroke="#7F7F7F" stroke-width="0.385251"/>
<path d="M77.0274 69.4375L73.4238 79.3222" stroke="#7F7F7F" stroke-width="0.385251"/>
<path d="M67.7179 60.5469L64.1143 70.9258" stroke="#7F7F7F" stroke-width="0.385251"/>
<path d="M70.7208 63.5078L67.1172 73.8867" stroke="#7F7F7F" stroke-width="0.385251"/>
<path d="M74.0245 66.4766L70.4209 76.3612" stroke="#7F7F7F" stroke-width="0.385251"/>
<path d="M89.0387 80.8047L85.7354 91.1836" stroke="#7F7F7F" stroke-width="0.385251"/>
<path d="M80.0304 72.4062L76.4268 82.2909" stroke="#7F7F7F" stroke-width="0.385251"/>
<path d="M83.0333 75.3672L79.4297 85.2519" stroke="#7F7F7F" stroke-width="0.385251"/>
<path d="M86.0357 78.3359L82.7324 88.2206" stroke="#7F7F7F" stroke-width="0.385251"/>
<path d="M101.352 92.6719L97.748 102.557" stroke="#7F7F7F" stroke-width="0.385251"/>
<path d="M92.3419 83.7734L88.7383 94.1524" stroke="#7F7F7F" stroke-width="0.385251"/>
<path d="M95.3458 86.7344L91.7422 97.1133" stroke="#7F7F7F" stroke-width="0.385251"/>
<path d="M98.3487 89.7031L94.7451 100.082" stroke="#7F7F7F" stroke-width="0.385251"/>
<path d="M113.664 104.531L110.061 114.416" stroke="#7F7F7F" stroke-width="0.385251"/>
<path d="M104.354 95.6328L101.051 105.517" stroke="#7F7F7F" stroke-width="0.385251"/>
<path d="M107.657 98.6016L104.054 108.486" stroke="#7F7F7F" stroke-width="0.385251"/>
<path d="M110.66 101.562L107.057 111.447" stroke="#7F7F7F" stroke-width="0.385251"/>
<path d="M125.976 115.898L122.372 126.277" stroke="#7F7F7F" stroke-width="0.385251"/>
<path d="M116.667 107.492L113.363 117.377" stroke="#7F7F7F" stroke-width="0.385251"/>
<path d="M119.67 109.969L116.366 120.348" stroke="#7F7F7F" stroke-width="0.385251"/>
<path d="M122.973 112.93L119.369 123.309" stroke="#7F7F7F" stroke-width="0.385251"/>
<path d="M138.288 127.758L134.685 137.642" stroke="#7F7F7F" stroke-width="0.385251"/>
<path d="M128.979 118.859L125.375 128.744" stroke="#7F7F7F" stroke-width="0.385251"/>
<path d="M131.982 121.828L128.378 131.713" stroke="#7F7F7F" stroke-width="0.385251"/>
<path d="M134.985 124.797L131.682 134.682" stroke="#7F7F7F" stroke-width="0.385251"/>
<path d="M141.291 130.727L137.537 140.611" stroke="#7F7F7F" stroke-width="0.385251"/>
<path d="M144.294 133.195L140.69 143.574" stroke="#7F7F7F" stroke-width="0.385251"/>
<path d="M147.297 136.164L143.693 146.543" stroke="#7F7F7F" stroke-width="0.385251"/>
<path d="M50.3004 57.0859H51.5016L48.1983 150.002H46.9971L50.3004 57.0859Z" fill="#CCCCCC" stroke="black" stroke-width="0.385251"/>
<path d="M61.1113 57.0859H62.3125L65.6158 150.002H64.4146L61.1113 57.0859Z" fill="#CCCCCC" stroke="black" stroke-width="0.385251"/>
</g>
<defs>
<clipPath id="clip0_2109_207565">
<rect width="150" height="150" fill="white"/>
</clipPath>
</defs>
</svg>
