<svg width="150" height="150" viewBox="0 0 150 150" fill="none" xmlns="http://www.w3.org/2000/svg">
<g clip-path="url(#clip0_2109_207195)">
<path d="M46.3965 62.1809L40.9911 28.6784L18.4685 5.32812H41.2914L144.294 41.3687L103.454 117.003H7.35742V62.1809H46.3965Z" fill="#4C1900"/>
<path fill-rule="evenodd" clip-rule="evenodd" d="M102.253 72.8438H106.457V150.001H102.253V72.8438ZM96.5469 75.3818L100.451 73.3514L112.163 147.971L108.259 150.001L96.5469 75.3818ZM91.1415 79.9503L94.7451 76.397L117.568 143.402L113.964 146.955L91.1415 79.9503ZM86.637 86.5493L89.64 81.9808L122.072 136.296L119.069 141.372L86.637 86.5493ZM83.3337 95.1788L85.7361 89.0874L125.075 127.666L122.973 133.757L83.3337 95.1788ZM81.8322 104.823L82.7331 98.2245L126.877 118.021L125.976 125.128L81.8322 104.823ZM81.5319 114.976V108.377H127.178V114.976H81.5319ZM82.7331 125.128L81.8322 118.021L125.976 98.2245L126.877 104.823L82.7331 125.128ZM85.7361 133.757L83.3337 127.666L122.973 89.0874L125.075 95.1788L85.7361 133.757ZM89.64 141.372L86.637 136.296L119.069 81.9808L122.072 86.5493L89.64 141.372ZM94.7451 146.955L91.1415 143.402L113.964 76.397L117.568 79.9503L94.7451 146.955ZM100.451 150.001L96.5469 147.971L108.259 73.3514L112.163 75.3818L100.451 150.001ZM37.0874 72.8438H40.9913V150.001H37.0874V72.8438ZM31.0814 75.3818L35.2856 73.3514L46.9973 147.971L42.7931 150.001L31.0814 75.3818ZM25.676 79.9503L29.2796 76.397L52.4027 143.402L48.7991 146.955L25.676 79.9503ZM21.4718 86.5493L24.4748 81.9808L56.6069 136.296L53.6039 141.372L21.4718 86.5493ZM18.1685 95.1788L20.2706 89.0874L59.9103 127.666L57.8081 133.757L18.1685 95.1788ZM16.3667 104.823L17.5679 98.2245L61.7121 118.021L60.5108 125.128L16.3667 104.823ZM16.0664 114.976V108.377H62.0124V114.976H16.0664ZM17.5679 125.128L16.3667 118.021L60.5108 98.2245L61.7121 104.823L17.5679 125.128ZM20.2706 133.757L18.1685 127.666L57.8081 89.0874L59.9103 95.1788L20.2706 133.757ZM24.4748 141.372L21.4718 136.296L53.6039 81.9808L56.6069 86.5493L24.4748 141.372ZM29.2796 146.955L25.676 143.402L48.7991 76.397L52.4027 79.9503L29.2796 146.955ZM35.2856 150.001L31.0814 147.971L42.7931 73.3514L46.9973 75.3818L35.2856 150.001Z" fill="black"/>
<path d="M104.355 148.729C116.462 148.729 126.276 132.138 126.276 111.673C126.276 91.2076 116.462 74.6172 104.355 74.6172C92.2474 74.6172 82.4326 91.2076 82.4326 111.673C82.4326 132.138 92.2474 148.729 104.355 148.729Z" fill="#333333" stroke="black" stroke-width="0.390431"/>
<path d="M39.0394 148.479C51.0636 148.479 60.8111 132.002 60.8111 111.677C60.8111 91.3518 51.0636 74.875 39.0394 74.875C27.0151 74.875 17.2676 91.3518 17.2676 111.677C17.2676 132.002 27.0151 148.479 39.0394 148.479Z" fill="#333333" stroke="black" stroke-width="0.390431"/>
<path d="M104.354 127.16C109.496 127.16 113.664 120.114 113.664 111.424C113.664 102.733 109.496 95.6875 104.354 95.6875C99.2128 95.6875 95.0449 102.733 95.0449 111.424C95.0449 120.114 99.2128 127.16 104.354 127.16Z" fill="#4C4C4C"/>
<path d="M39.0395 127.409C44.2639 127.409 48.499 120.25 48.499 111.42C48.499 102.589 44.2639 95.4297 39.0395 95.4297C33.8152 95.4297 29.5801 102.589 29.5801 111.42C29.5801 120.25 33.8152 127.409 39.0395 127.409Z" fill="#4C4C4C"/>
<path d="M104.355 123.858C108.335 123.858 111.562 118.403 111.562 111.675C111.562 104.947 108.335 99.4922 104.355 99.4922C100.374 99.4922 97.1475 104.947 97.1475 111.675C97.1475 118.403 100.374 123.858 104.355 123.858Z" fill="#CC9900" stroke="black" stroke-width="0.390431"/>
<path d="M39.039 124.115C43.1024 124.115 46.3964 118.547 46.3964 111.679C46.3964 104.81 43.1024 99.2422 39.039 99.2422C34.9756 99.2422 31.6816 104.81 31.6816 111.679C31.6816 118.547 34.9756 124.115 39.039 124.115Z" fill="#CC9900" stroke="black" stroke-width="0.390431"/>
<path d="M105.255 113.453L109.159 114.976L108.558 117.006L107.357 118.529L106.456 119.544L105.255 113.453Z" fill="black"/>
<path d="M103.454 113.453L102.253 119.544L101.051 118.529L100.15 117.006L99.5498 114.976L103.454 113.453Z" fill="black"/>
<path d="M103.454 109.896L99.5498 108.373L100.15 106.343L101.051 104.82L102.253 103.297L103.454 109.896Z" fill="black"/>
<path d="M105.255 109.896L106.456 103.297L107.357 104.82L108.558 106.343L109.159 108.373L105.255 109.896Z" fill="black"/>
<path d="M40.0898 113.453L43.9937 114.976L43.0928 117.006L42.1919 118.529L40.9907 119.544L40.0898 113.453Z" fill="black"/>
<path d="M37.9879 113.453L37.087 119.544L35.8858 118.529L34.9849 117.006L34.084 114.976L37.9879 113.453Z" fill="black"/>
<path d="M37.9879 109.896L34.084 108.373L34.9849 106.343L35.8858 104.82L37.087 103.297L37.9879 109.896Z" fill="black"/>
<path d="M40.0898 109.896L40.9907 103.297L42.1919 104.82L43.0928 106.343L43.9937 108.373L40.0898 109.896Z" fill="black"/>
<path d="M71.6212 84.0102L65.0146 45.4315L37.3869 5.32995H18.0176L24.474 0H53.6032L138.588 5.32995L149.849 39.8477L71.6212 84.0102Z" fill="#FFCC00" stroke="black" stroke-width="0.390431"/>
<path d="M74.9248 39.8516H143.243L81.5314 72.8465L74.9248 39.8516Z" fill="#E5B200"/>
<path d="M74.925 34.2649L68.3184 12.4375L137.087 18.0213L140.09 34.2649H74.925Z" fill="#E5B200"/>
<path d="M6.60645 82.4874V70.3047H8.10795V82.4874H6.60645Z" fill="#E5E5E5" stroke="black" stroke-width="0.390431"/>
<path d="M5.55566 117.005V51.0156" stroke="#FFCC00" stroke-width="0.390431"/>
<path d="M2.40234 117.005V51.0156" stroke="#FFCC00" stroke-width="0.390431"/>
<path d="M2.40234 67.2578H5.5555" stroke="#FFCC00" stroke-width="0.390431"/>
<path d="M2.40234 72.8438H5.5555" stroke="#FFCC00" stroke-width="0.390431"/>
<path d="M2.40234 78.4297H5.5555" stroke="#FFCC00" stroke-width="0.390431"/>
<path d="M2.40234 84.0078H5.5555" stroke="#FFCC00" stroke-width="0.390431"/>
<path d="M2.40234 89.5938H5.5555" stroke="#FFCC00" stroke-width="0.390431"/>
<path d="M2.40234 95.1797H5.5555" stroke="#FFCC00" stroke-width="0.390431"/>
<path d="M2.40234 100.758H5.5555" stroke="#FFCC00" stroke-width="0.390431"/>
<path d="M2.40234 106.344H5.5555" stroke="#FFCC00" stroke-width="0.390431"/>
<path d="M2.40234 111.422H5.5555" stroke="#FFCC00" stroke-width="0.390431"/>
<path d="M2.40234 62.1797H5.5555" stroke="#FFCC00" stroke-width="0.390431"/>
<path d="M2.40234 56.6016H5.5555" stroke="#FFCC00" stroke-width="0.390431"/>
<path d="M14.5645 27.6641H46.3963V62.1818H14.5645V27.6641Z" fill="#D9A600" stroke="black" stroke-width="0.390431"/>
<path d="M28.3779 34.2656H32.5821V51.0169H28.3779V34.2656Z" fill="#330000"/>
<path d="M15.4658 34.2656H21.1715L19.3697 51.0169H15.4658V34.2656Z" fill="#330000"/>
<path d="M22.6724 34.2656H26.8766V51.0169H21.1709L22.6724 34.2656Z" fill="#330000"/>
<path fill-rule="evenodd" clip-rule="evenodd" d="M10.3604 27.6623H46.3964V23.0938H10.3604V27.6623ZM6.60661 62.18H62.012V67.2562H22.6727L8.10811 122.586H0V117.002H6.60661L13.6637 88.0684H6.60661V82.4846H15.4655L19.3694 67.2562H6.60661V62.18ZM8.10811 82.4846V70.3019L14.5646 71.8247V81.4694L8.10811 82.4846Z" fill="#F2BF00"/>
<path d="M10.3604 27.6623H46.3964V23.0938H10.3604V27.6623Z" stroke="black" stroke-width="0.390431"/>
<path d="M6.60661 62.1797H62.012V67.2558H22.6727L8.10811 122.586H0V117.002H6.60661L13.6637 88.068H6.60661V82.4843H15.4655L19.3694 67.2558H6.60661V62.1797Z" stroke="black" stroke-width="0.390431"/>
<path d="M8.1084 82.4874V70.3047L14.5649 71.8275V81.4722L8.1084 82.4874Z" stroke="black" stroke-width="0.390431"/>
</g>
<defs>
<clipPath id="clip0_2109_207195">
<rect width="150" height="150" fill="white"/>
</clipPath>
</defs>
</svg>
