<svg width="150" height="150" viewBox="0 0 150 150" fill="none" xmlns="http://www.w3.org/2000/svg">
<g clip-path="url(#clip0_2109_207239)">
<path d="M17.2676 30.8538L40.3907 13.7775L63.5138 2.91074L78.2285 0L98.9493 2.91074L117.868 12.6132L134.385 27.3609L145.196 41.3325L17.2676 30.8538Z" fill="#333333" stroke="black" stroke-width="0.341388"/>
<path d="M43.9937 80.9197L8.10777 44.4384L55.4051 39.7812H91.4411L141.441 63.4552L102.252 123.999H4.05371V80.9197H43.9937Z" fill="#4C1900"/>
<path fill-rule="evenodd" clip-rule="evenodd" d="M101.051 89.4531H105.556V149.996H101.051V89.4531ZM95.3458 91.3936L99.2497 89.8412L111.262 148.056L107.358 149.608L95.3458 91.3936ZM89.6401 94.8865L93.544 92.1698L116.967 144.563L113.063 147.28L89.6401 94.8865ZM85.1356 100.32L88.1385 96.4389L121.472 139.13L118.469 143.011L85.1356 100.32ZM81.8322 106.918L84.2346 102.26L124.475 132.532L122.373 137.189L81.8322 106.918ZM80.0304 114.68L81.2316 109.246L126.577 124.77L125.376 130.203L80.0304 114.68ZM80.0304 122.441V117.008H126.577V122.441H80.0304ZM81.2316 130.203L80.0304 124.77L125.376 109.246L126.577 114.68L81.2316 130.203ZM84.2346 137.189L81.8322 132.532L122.373 102.26L124.475 106.918L84.2346 137.189ZM88.1385 143.011L85.1356 139.13L118.469 96.4389L121.472 100.32L88.1385 143.011ZM93.544 147.28L89.6401 144.563L113.063 92.1698L116.967 94.8865L93.544 147.28ZM99.2497 149.608L95.3458 148.056L107.358 89.8412L111.262 91.3936L99.2497 149.608ZM34.3848 89.4531H38.589V149.996H34.3848V89.4531ZM28.3788 91.3936L32.583 89.8412L44.595 148.056L40.3908 149.608L28.3788 91.3936ZM22.9734 94.8865L26.577 92.1698L50.0004 144.563L46.3968 147.28L22.9734 94.8865ZM18.4689 100.32L21.4719 96.4389L54.5049 139.13L51.5019 143.011L18.4689 100.32ZM15.1656 106.918L17.2677 102.26L57.8082 132.532L55.7061 137.189L15.1656 106.918ZM13.3638 114.68L14.565 109.246L59.61 124.77L58.7091 130.203L13.3638 114.68ZM13.0635 122.441V117.008H59.9103V122.441H13.0635ZM14.565 130.203L13.3638 124.77L58.7091 109.246L59.61 114.68L14.565 130.203ZM17.2677 137.189L15.1656 132.532L55.7061 102.26L57.8082 106.918L17.2677 137.189ZM21.4719 143.011L18.4689 139.13L51.5019 96.4389L54.5049 100.32L21.4719 143.011ZM26.577 147.28L22.9734 144.563L46.3968 92.1698L50.0004 94.8865L26.577 147.28ZM32.583 149.608L28.3788 148.056L40.3908 89.8412L44.595 91.3936L32.583 149.608Z" fill="black"/>
<path d="M103.303 148.639C115.659 148.639 125.675 135.694 125.675 119.726C125.675 103.757 115.659 90.8125 103.303 90.8125C90.9471 90.8125 80.9307 103.757 80.9307 119.726C80.9307 135.694 90.9471 148.639 103.303 148.639Z" fill="#333333" stroke="black" stroke-width="0.341388"/>
<path d="M45.1956 146.506L39.4899 148.446H33.7842L28.0785 146.506L22.9734 142.625L18.7692 137.192L15.7661 130.982L14.2646 123.608V115.846L15.7661 108.472L18.7692 101.875L22.9734 96.8293L28.0785 92.9483L33.4839 91.0078H39.4899L45.1956 92.9483L50.3007 96.8293L54.5049 101.875L57.2076 108.472L58.7091 115.846V123.608L57.2076 130.982L54.5049 137.192L50.3007 142.625L45.1956 146.506Z" fill="#333333" stroke="black" stroke-width="0.341388"/>
<path d="M103.303 131.95C108.528 131.95 112.763 126.477 112.763 119.725C112.763 112.973 108.528 107.5 103.303 107.5C98.0789 107.5 93.8438 112.973 93.8438 119.725C93.8438 126.477 98.0789 131.95 103.303 131.95Z" fill="#4C4C4C"/>
<path d="M36.6362 131.95C41.8605 131.95 46.0957 126.477 46.0957 119.725C46.0957 112.973 41.8605 107.5 36.6362 107.5C31.4119 107.5 27.1768 112.973 27.1768 119.725C27.1768 126.477 31.4119 131.95 36.6362 131.95Z" fill="#4C4C4C"/>
<path d="M103.304 129.236C107.367 129.236 110.661 124.979 110.661 119.727C110.661 114.476 107.367 110.219 103.304 110.219C99.2403 110.219 95.9463 114.476 95.9463 119.727C95.9463 124.979 99.2403 129.236 103.304 129.236Z" fill="#CC9900" stroke="black" stroke-width="0.341388"/>
<path d="M36.486 129.428C40.6323 129.428 43.9935 125.084 43.9935 119.726C43.9935 114.367 40.6323 110.023 36.486 110.023C32.3397 110.023 28.9785 114.367 28.9785 119.726C28.9785 125.084 32.3397 129.428 36.486 129.428Z" fill="#CC9900" stroke="black" stroke-width="0.341388"/>
<path d="M104.354 120.891L108.258 122.443L107.658 123.995L106.457 125.16L105.255 125.936L104.354 120.891Z" fill="black"/>
<path d="M102.253 120.891L101.352 125.936L100.15 125.16L98.9492 123.995L98.3486 122.443L102.253 120.891Z" fill="black"/>
<path d="M102.253 118.178L98.3486 117.014L98.9492 115.461L100.15 114.297L101.352 113.133L102.253 118.178Z" fill="black"/>
<path d="M104.354 118.178L105.255 113.133L106.457 114.297L107.658 115.461L108.258 117.014L104.354 118.178Z" fill="black"/>
<path d="M37.6875 120.891L41.5914 122.443L40.6905 123.995L39.7896 125.16L38.5884 125.936L37.6875 120.891Z" fill="black"/>
<path d="M35.5855 120.891L34.3843 125.936L33.1831 125.16L32.2822 123.995L31.6816 122.443L35.5855 120.891Z" fill="black"/>
<path d="M35.5855 118.178L31.6816 117.014L32.2822 115.461L33.1831 114.297L34.3843 113.133L35.5855 118.178Z" fill="black"/>
<path d="M37.6875 118.178L38.5884 113.133L39.7896 114.297L40.6905 115.461L41.5914 117.014L37.6875 118.178Z" fill="black"/>
<path d="M11.5615 53.75H43.994V80.9169H11.5615V53.75Z" fill="#D9A600" stroke="black" stroke-width="0.341388"/>
<path d="M25.6758 59.1875H29.88V72.3828H25.6758V59.1875Z" fill="#330000"/>
<path d="M12.4629 59.1875H18.1686L16.3668 72.3828H12.4629V59.1875Z" fill="#330000"/>
<path d="M19.9698 59.1875H23.8737V72.3828H18.168L19.9698 59.1875Z" fill="#330000"/>
<path d="M7.35742 53.7532H43.9941V50.6484H7.35742V53.7532Z" fill="#F2BF00" stroke="black" stroke-width="0.341388"/>
<path d="M0 80.9219H43.994V85.191H19.97L5.55556 128.27H0V80.9219Z" fill="#F2BF00" stroke="black" stroke-width="0.341388"/>
<path d="M53.3034 88.2931L44.895 44.0499H7.35742V28.9141H122.372L130.781 37.8403L143.243 64.6191L53.3034 88.2931Z" fill="#FFCC00" stroke="black" stroke-width="0.341388"/>
<path d="M59.9099 85.1881L50 30.0781" stroke="#B27F00" stroke-width="0.341388"/>
<path d="M52.4023 42.1094H131.682" stroke="#B27F00" stroke-width="0.341388"/>
<path d="M55.7061 57.2422H134.985" stroke="#B27F00" stroke-width="0.341388"/>
<path d="M57.5078 70.0547H120.871" stroke="#B27F00" stroke-width="0.341388"/>
<path d="M63.2129 84.0238V30.0781" stroke="#B27F00" stroke-width="0.341388"/>
<path d="M64.1138 26.9766L63.2129 35.5147L90.8405 51.8149L144.144 66.9507L149.85 64.6221L148.198 37.8433H104.054L71.6213 26.9766H64.1138Z" fill="#FFCC00" stroke="black" stroke-width="0.341388"/>
</g>
<defs>
<clipPath id="clip0_2109_207239">
<rect width="150" height="150" fill="white"/>
</clipPath>
</defs>
</svg>
