<svg width="150" height="150" viewBox="0 0 150 150" fill="none" xmlns="http://www.w3.org/2000/svg">
<g clip-path="url(#clip0_2109_207153)">
<path d="M12.1621 52.8928L21.4714 6.64062H41.8918L65.9159 120.354L13.063 121.888L12.1621 52.8928Z" fill="black"/>
<path d="M51.8018 76.4032L124.474 58.5156L116.967 116.267H59.9099L51.8018 76.4032Z" fill="#CC9900" stroke="black" stroke-width="0.391759"/>
<path d="M102.252 79.4688V86.6238H60.21" stroke="#FFCC00" stroke-width="0.391759"/>
<path d="M60.21 111.667V89.1797H81.5313" stroke="#FFCC00" stroke-width="0.391759"/>
<path d="M102.252 79.4688H60.21V86.6238" stroke="#996600" stroke-width="0.391759"/>
<path d="M60.21 111.667H81.5313V89.1797" stroke="#996600" stroke-width="0.391759"/>
<path d="M36.1865 116.266H105.556V121.887H36.1865V116.266Z" fill="#FFCC00" stroke="black" stroke-width="0.391759"/>
<path fill-rule="evenodd" clip-rule="evenodd" d="M105.256 149.49L101.052 147.446L113.664 68.2298L117.868 70.2741L105.256 149.49ZM99.2498 146.424L95.3459 142.335L119.67 71.8073L123.274 75.3848L99.2498 146.424ZM93.8444 140.802L90.8414 135.18L124.775 77.4291L128.079 82.5399L93.8444 140.802ZM89.6402 132.625L87.5381 126.492L129.28 85.0952L131.382 91.7392L89.6402 132.625ZM86.6372 122.915L85.436 115.76L132.283 94.8056L133.184 101.961L86.6372 122.915ZM85.436 112.693V105.027H133.484V112.693H85.436ZM85.436 101.961L86.6372 94.8056L133.184 115.76L132.283 122.915L85.436 101.961ZM87.5381 91.7392L89.6402 85.0952L131.382 126.492L129.28 132.625L87.5381 91.7392ZM90.8414 82.5399L93.8444 77.4291L128.079 135.18L124.775 140.802L90.8414 82.5399ZM95.3459 75.3848L99.2498 71.8073L123.274 142.335L119.67 146.424L95.3459 75.3848ZM101.052 70.2741L105.256 68.2298L117.868 147.446L113.664 149.49L101.052 70.2741ZM107.358 67.7188H111.562V150.002H107.358V67.7188ZM28.9795 149.49L24.475 147.446L37.0876 68.2298L41.2918 70.2741L28.9795 149.49ZM22.6732 146.424L19.0696 142.335L43.0936 71.8073L46.9975 75.3848L22.6732 146.424ZM17.5681 140.802L14.2648 135.18L48.499 77.4291L51.502 82.5399L17.5681 140.802ZM13.0636 132.625L10.9615 126.492L52.7032 85.0952L54.8053 91.7392L13.0636 132.625ZM10.511 122.915L9.15968 115.76L55.7062 94.8056L56.9074 101.961L10.511 122.915ZM8.85938 112.693V105.027H57.2077V112.693H8.85938ZM9.15968 101.961L10.511 94.8056L56.9074 115.76L55.7062 122.915L9.15968 101.961ZM10.9615 91.7392L13.0636 85.0952L54.8053 126.492L52.7032 132.625L10.9615 91.7392ZM14.2648 82.5399L17.5681 77.4291L51.502 135.18L48.499 140.802L14.2648 82.5399ZM19.0696 75.3848L22.6732 71.8073L46.9975 142.335L43.0936 146.424L19.0696 75.3848ZM24.475 70.2741L28.9795 68.2298L41.2918 147.446L37.0876 149.49L24.475 70.2741ZM30.7813 67.7188H34.9855V150.002H30.7813V67.7188Z" fill="black"/>
<path d="M109.309 147.952C121.997 147.952 132.282 130.448 132.282 108.855C132.282 87.2622 121.997 69.7578 109.309 69.7578C96.6213 69.7578 86.3359 87.2622 86.3359 108.855C86.3359 130.448 96.6213 147.952 109.309 147.952Z" fill="#333333" stroke="black" stroke-width="0.391759"/>
<path d="M33.0335 147.952C45.7211 147.952 56.0065 130.448 56.0065 108.855C56.0065 87.2622 45.7211 69.7578 33.0335 69.7578C20.3459 69.7578 10.0605 87.2622 10.0605 108.855C10.0605 130.448 20.3459 147.952 33.0335 147.952Z" fill="#333333" stroke="black" stroke-width="0.391759"/>
<path d="M33.0332 125.728C38.4234 125.728 42.793 118.291 42.793 109.118C42.793 99.9443 38.4234 92.5078 33.0332 92.5078C27.643 92.5078 23.2734 99.9443 23.2734 109.118C23.2734 118.291 27.643 125.728 33.0332 125.728Z" fill="#4C4C4C"/>
<path d="M109.46 125.981C114.933 125.981 119.37 118.43 119.37 109.115C119.37 99.8009 114.933 92.25 109.46 92.25C103.987 92.25 99.5498 99.8009 99.5498 109.115C99.5498 118.43 103.987 125.981 109.46 125.981Z" fill="#4C4C4C"/>
<path d="M33.0327 121.893C37.2619 121.893 40.6903 116.058 40.6903 108.86C40.6903 101.663 37.2619 95.8281 33.0327 95.8281C28.8035 95.8281 25.375 101.663 25.375 108.86C25.375 116.058 28.8035 121.893 33.0327 121.893Z" fill="#CC9900" stroke="black" stroke-width="0.391759"/>
<path d="M109.309 121.893C113.538 121.893 116.967 116.058 116.967 108.86C116.967 101.663 113.538 95.8281 109.309 95.8281C105.08 95.8281 101.651 101.663 101.651 108.86C101.651 116.058 105.08 121.893 109.309 121.893Z" fill="#CC9900" stroke="black" stroke-width="0.391759"/>
<path d="M50.9013 76.9165L37.688 9.45486L15.4658 8.17717V0H17.8682V4.08859H39.4898L144.895 15.0767L150 52.8961L50.9013 76.9165Z" fill="#FFD940" stroke="black" stroke-width="0.391759"/>
<path d="M11.5615 81.005L19.6696 69.7614H46.997L37.087 12.2656H19.6696L13.9639 41.6523L11.5615 44.2077V81.005Z" fill="#FFCC00" stroke="black" stroke-width="0.391759"/>
<path d="M17.8682 36.0337L21.4718 17.8906H35.2856L37.688 36.0337H17.8682Z" fill="#333333"/>
<path d="M47.5973 75.3842L20.5703 69.7624V64.1406H46.6964L47.5973 75.3842Z" fill="#999999" stroke="black" stroke-width="0.391759"/>
<path d="M0 64.1406H20.5706V66.696H0V64.1406Z" fill="#CCCCCC" stroke="black" stroke-width="0.391759"/>
<path d="M30.4805 17.8906V37.5669" stroke="#FFCC00" stroke-width="0.391759"/>
<path d="M42.7928 48.8047H0V64.1369" stroke="black" stroke-width="0.391759"/>
<path d="M0 56.9844H44.2943" stroke="black" stroke-width="0.391759"/>
<path d="M13.0635 48.8047V64.1369" stroke="black" stroke-width="0.391759"/>
<path d="M24.4746 48.8047V64.1369" stroke="black" stroke-width="0.391759"/>
<path d="M35.2852 48.8047V64.1369" stroke="black" stroke-width="0.391759"/>
<path d="M65.9159 19.1641L68.9189 34.4963H50.6006" stroke="#FFF2BF" stroke-width="0.391759"/>
<path d="M88.1386 19.1641L91.1416 34.4963H72.8232" stroke="#FFF2BF" stroke-width="0.391759"/>
<path d="M110.361 19.1641L113.364 34.4963H95.3457" stroke="#FFF2BF" stroke-width="0.391759"/>
<path d="M132.582 19.1641L135.585 34.4963H117.567" stroke="#FFF2BF" stroke-width="0.391759"/>
<path d="M69.2196 40.1172L72.2226 55.4494H53.9043" stroke="#FFF2BF" stroke-width="0.391759"/>
<path d="M91.4413 40.1172L94.4443 55.4494H76.126" stroke="#FFF2BF" stroke-width="0.391759"/>
<path d="M113.663 40.1172L116.666 55.4494H98.6484" stroke="#FFF2BF" stroke-width="0.391759"/>
<path d="M132.582 19.1641H114.564L117.567 34.4963" stroke="#CC9900" stroke-width="0.391759"/>
<path d="M110.361 19.1641H92.3428L95.3458 34.4963" stroke="#CC9900" stroke-width="0.391759"/>
<path d="M113.664 40.1172H95.6455L98.6485 55.4494" stroke="#CC9900" stroke-width="0.391759"/>
<path d="M91.4414 40.1172H73.123L76.126 55.4494" stroke="#CC9900" stroke-width="0.391759"/>
<path d="M88.1386 19.1641H69.8203L72.8233 34.4963" stroke="#CC9900" stroke-width="0.391759"/>
<path d="M65.916 19.1641H47.5977L50.6007 34.4963" stroke="#CC9900" stroke-width="0.391759"/>
<path d="M69.2187 40.1172H50.9004L53.9034 55.4494" stroke="#CC9900" stroke-width="0.391759"/>
</g>
<defs>
<clipPath id="clip0_2109_207153">
<rect width="150" height="150" fill="white"/>
</clipPath>
</defs>
</svg>
