<svg width="150" height="150" viewBox="0 0 150 150" fill="none" xmlns="http://www.w3.org/2000/svg">
<g clip-path="url(#clip0_2109_204946)">
<path d="M46.6967 123.728L11.2613 118.757L8.10811 115.917L5.1051 110.592L2.7027 103.136L0.900901 93.9054L0 83.6095V72.9586L0.900901 62.6628L2.7027 53.787L5.1051 45.9764L8.10811 41.006L11.2613 38.1657L46.6967 33.1953V123.728Z" fill="black" stroke="black" stroke-width="0.32652"/>
<path d="M129.58 118.755L139.79 103.489L112.463 97.4531L129.58 118.755Z" fill="#B2B219" stroke="black" stroke-width="0.32652"/>
<path d="M105.556 134.736L110.661 137.932L131.081 122.665L120.871 101.719H90.2402L105.556 134.736Z" fill="#BFBF26" stroke="black" stroke-width="0.32652"/>
<path d="M100.45 135.798L109.159 126.922L120.871 141.833L114.865 148.934L100.45 135.798Z" fill="#D9D940" stroke="black" stroke-width="0.32652"/>
<path d="M96.2461 55.2109H142.042L150 82.5482L145.646 103.495H103.153L100.45 101.72L79.4293 122.667H55.4053V72.2524L96.2461 55.2109Z" fill="#BFBF26" stroke="black" stroke-width="0.32652"/>
<path d="M74.0236 26.0982L86.9365 18.9976L95.3449 7.81421L103.153 6.03906L109.759 7.81421L113.363 14.7373L112.462 23.9681L100.45 41.0095L68.0176 54.1456L74.0236 26.0982Z" fill="#CCCC33" stroke="black" stroke-width="0.32652"/>
<path d="M92.9434 138.993L74.0244 130.827L44.8953 126.922L41.592 123.372L38.2887 116.981L35.8863 108.106L34.0845 97.0997L33.1836 84.6736V71.8926L34.0845 59.8216L35.8863 48.8156L38.2887 39.5849L41.592 33.1943L44.8953 29.9991L74.0244 26.0938L70.7211 45.9754L76.7271 36.0346H86.0364L95.3458 39.9399L108.259 55.2062L98.6491 84.3186L68.0184 85.3837L68.9193 104.555L72.5229 115.561L92.9434 138.993Z" fill="#CCCC33" stroke="black" stroke-width="0.32652"/>
<path d="M98.0479 49.1716L105.555 44.2012L112.462 48.1066L126.877 33.1953L134.684 44.2012L112.462 66.2131L98.0479 49.1716Z" fill="#D9D940" stroke="black" stroke-width="0.32652"/>
<path d="M110.661 23.9628H103.153L98.0479 20.7675L94.4443 14.022L95.3452 8.87403L107.357 1.77344L113.363 7.09888L110.661 23.9628Z" fill="#D9D940" stroke="black" stroke-width="0.32652"/>
<path d="M75.8262 84.6712L85.1355 49.1683L95.3457 39.9375L108.259 55.2038L98.649 84.3162L75.8262 84.6712Z" fill="#D9D940" stroke="black" stroke-width="0.32652"/>
<path d="M86.9366 75.4467L85.1348 68.3461L87.8375 59.1153L91.1408 51.3046L97.1468 48.1094L100.45 50.2396L119.369 73.3165L115.765 81.4822L86.9366 75.4467Z" fill="#CCCC33" stroke="black" stroke-width="0.32652"/>
<path d="M113.063 7.10059H110.36L108.559 6.0355L107.357 3.5503L107.658 1.42012L113.363 0L113.063 7.10059Z" fill="black" stroke="black" stroke-width="0.32652"/>
<path d="M126.877 33.1953H136.487L134.685 44.2012L126.877 33.1953Z" fill="black" stroke="black" stroke-width="0.32652"/>
<path d="M119.369 73.3125L123.573 80.4131L115.766 81.4782L119.369 73.3125Z" fill="black" stroke="black" stroke-width="0.32652"/>
<path d="M132.883 55.2109H142.042L150 82.5482L145.646 103.495H142.943L147.147 82.5482L131.081 73.3174V57.3411L132.883 55.2109Z" fill="black" stroke="black" stroke-width="0.32652"/>
<path d="M121.772 150.002L120.871 141.836L114.865 148.937L121.772 150.002Z" fill="black" stroke="black" stroke-width="0.32652"/>
<path d="M92.9434 138.996L101.952 137.576L107.358 133.67L110.661 124.795V119.469L89.6401 94.6172L84.2347 99.9426L86.3368 104.913L85.4359 110.238H80.9314L77.6281 107.753L72.2227 115.919L92.9434 138.996Z" fill="#D9D940" stroke="black" stroke-width="0.32652"/>
<path d="M39.7893 122.664L36.486 119.823L33.483 113.788L31.0806 105.622L29.2788 95.6814L28.3779 84.3205V72.6045L29.2788 61.2435L31.0806 51.3027L33.483 42.782L36.486 37.1015L39.7893 33.9062" stroke="#999999" stroke-width="0.32652"/>
<path d="M34.0838 121.951L30.7805 118.756L27.7775 113.075L25.0748 104.91L23.5733 94.9687L22.3721 83.9628V72.6019L23.5733 61.596L25.0748 51.6551L27.4772 43.8445L30.7805 38.164L34.0838 34.9688" stroke="#999999" stroke-width="0.32652"/>
<path d="M28.0779 120.891L24.7746 117.696L21.7716 112.37L19.0689 104.56L17.5674 94.6189L16.3662 83.9681V72.9621L17.5674 61.9562L19.0689 52.3704L21.4713 44.5598L24.7746 38.8793L28.0779 36.0391" stroke="#999999" stroke-width="0.32652"/>
<path d="M22.0725 119.823L18.7692 116.983L15.7662 111.658L13.0635 103.847L11.562 94.2613L10.6611 83.9655V72.9596L11.562 62.3087L13.3638 53.0779L15.7662 45.2672L18.7692 39.9418L22.0725 37.1016" stroke="#999999" stroke-width="0.32652"/>
<path d="M16.0659 118.756L12.7626 115.916L9.75964 110.59L7.50739 103.134L5.70559 93.9037L4.80469 83.6078V72.957L5.70559 63.0161L7.50739 53.7854L9.75964 45.9747L12.7626 41.0043L16.0659 38.1641" stroke="#999999" stroke-width="0.32652"/>
</g>
<defs>
<clipPath id="clip0_2109_204946">
<rect width="150" height="150" fill="white"/>
</clipPath>
</defs>
</svg>
