<svg width="47" height="150" viewBox="0 0 47 150" fill="none" xmlns="http://www.w3.org/2000/svg">
<path d="M17.5771 141.445H41.2682V142.947H17.5771V141.445Z" fill="#999999"/>
<path d="M17.5771 135.289H41.2682V136.791H17.5771V135.289Z" fill="#999999"/>
<path d="M17.5771 129.133H41.2682V130.634H17.5771V129.133Z" fill="#999999"/>
<path d="M17.5771 122.82H41.2682V124.472H17.5771V122.82Z" fill="#999999"/>
<path d="M17.5771 116.664H41.2682V118.166H17.5771V116.664Z" fill="#999999"/>
<path d="M17.5771 110.508H41.2682V112.009H17.5771V110.508Z" fill="#999999"/>
<path d="M17.5771 104.352H41.2682V105.853H17.5771V104.352Z" fill="#999999"/>
<path d="M17.5771 98.1953H41.2682V99.6968H17.5771V98.1953Z" fill="#999999"/>
<path d="M17.5771 91.8906H41.2682V93.5423H17.5771V91.8906Z" fill="#999999"/>
<path d="M17.5771 85.7344H41.2682V87.2359H17.5771V85.7344Z" fill="#999999"/>
<path d="M17.5771 79.5781H41.2682V81.0796H17.5771V79.5781Z" fill="#999999"/>
<path d="M17.5771 73.4219H41.2682V74.9234H17.5771V73.4219Z" fill="#999999"/>
<path d="M17.5771 67.2656H41.2682V68.7671H17.5771V67.2656Z" fill="#999999"/>
<path d="M17.5771 60.9609H41.2682V62.6126H17.5771V60.9609Z" fill="#999999"/>
<path d="M17.5771 54.8047H41.2682V56.3062H17.5771V54.8047Z" fill="#999999"/>
<path d="M17.5771 48.6484H41.2682V50.1499H17.5771V48.6484Z" fill="#999999"/>
<path d="M17.5771 42.4922H41.2682V43.9937H17.5771V42.4922Z" fill="#999999"/>
<path d="M17.5771 36.3359H41.2682V37.8374H17.5771V36.3359Z" fill="#999999"/>
<path d="M17.5771 30.0312H41.2682V31.6829H17.5771V30.0312Z" fill="#999999"/>
<path d="M17.5771 23.875H41.2682V25.3765H17.5771V23.875Z" fill="#999999"/>
<path d="M17.5771 17.7188H41.2682V19.2203H17.5771V17.7188Z" fill="#999999"/>
<path d="M17.5771 11.5625H41.2682V13.064H17.5771V11.5625Z" fill="#999999"/>
<path d="M17.5771 5.25781H41.2682V6.90946H17.5771V5.25781Z" fill="#999999"/>
<path d="M17.5771 5.25781H41.2682" stroke="white" stroke-width="0.855827"/>
<path d="M17.5771 141.445H41.2682" stroke="white" stroke-width="0.855827"/>
<path d="M17.5771 135.289H41.2682" stroke="white" stroke-width="0.855827"/>
<path d="M17.5771 129.133H41.2682" stroke="white" stroke-width="0.855827"/>
<path d="M17.5771 122.82H41.2682" stroke="white" stroke-width="0.855827"/>
<path d="M17.5771 116.664H41.2682" stroke="white" stroke-width="0.855827"/>
<path d="M17.5771 110.508H41.2682" stroke="white" stroke-width="0.855827"/>
<path d="M17.5771 104.352H41.2682" stroke="white" stroke-width="0.855827"/>
<path d="M17.5771 98.1953H41.2682" stroke="white" stroke-width="0.855827"/>
<path d="M17.5771 91.8906H41.2682" stroke="white" stroke-width="0.855827"/>
<path d="M17.5771 85.7344H41.2682" stroke="white" stroke-width="0.855827"/>
<path d="M17.5771 79.5781H41.2682" stroke="white" stroke-width="0.855827"/>
<path d="M17.5771 73.4219H41.2682" stroke="white" stroke-width="0.855827"/>
<path d="M17.5771 67.2656H41.2682" stroke="white" stroke-width="0.855827"/>
<path d="M17.5771 60.9609H41.2682" stroke="white" stroke-width="0.855827"/>
<path d="M17.5771 54.8047H41.2682" stroke="white" stroke-width="0.855827"/>
<path d="M17.5771 48.6484H41.2682" stroke="white" stroke-width="0.855827"/>
<path d="M17.5771 42.4922H41.2682" stroke="white" stroke-width="0.855827"/>
<path d="M17.5771 36.3359H41.2682" stroke="white" stroke-width="0.855827"/>
<path d="M17.5771 30.0312H41.2682" stroke="white" stroke-width="0.855827"/>
<path d="M17.5771 23.875H41.2682" stroke="white" stroke-width="0.855827"/>
<path d="M17.5771 17.7188H41.2682" stroke="white" stroke-width="0.855827"/>
<path d="M17.5771 11.5625H41.2682" stroke="white" stroke-width="0.855827"/>
<path d="M45.0897 149.25V0.601562H41.2686V149.25H45.0897Z" fill="#999999" stroke="#4C4C4C" stroke-width="0.855827"/>
<path d="M13.374 149.25V0.601562H17.5773V149.25H13.374Z" fill="#999999" stroke="#4C4C4C" stroke-width="0.855827"/>
<path d="M1.52832 8.41097L13.3738 5.25781H17.5771L5.73157 8.41097H1.52832Z" fill="#B2B2B2"/>
<path d="M29.4229 8.41097L41.2684 5.25781H45.0895L33.244 8.41097H29.4229Z" fill="#B2B2B2"/>
<path d="M1.52832 20.8719L13.3738 17.7188H17.5771L5.73157 20.8719H1.52832Z" fill="#B2B2B2"/>
<path d="M29.4229 20.8719L41.2684 17.7188H45.0895L33.244 20.8719H29.4229Z" fill="#B2B2B2"/>
<path d="M1.52832 33.1844L13.3738 30.0312H17.5771L5.73157 33.1844H1.52832Z" fill="#B2B2B2"/>
<path d="M29.4229 33.1844L41.2684 30.0312H45.0895L33.244 33.1844H29.4229Z" fill="#B2B2B2"/>
<path d="M1.52832 45.4952L13.3738 42.4922H17.5771L5.73157 45.4952H1.52832Z" fill="#B2B2B2"/>
<path d="M29.4229 45.4952L41.2684 42.4922H45.0895L33.244 45.4952H29.4229Z" fill="#B2B2B2"/>
<path d="M1.52832 57.9578L13.3738 54.8047H17.5771L5.73157 57.9578H1.52832Z" fill="#B2B2B2"/>
<path d="M29.4229 57.9578L41.2684 54.8047H45.0895L33.244 57.9578H29.4229Z" fill="#B2B2B2"/>
<path d="M1.52832 70.2686L13.3738 67.2656H17.5771L5.73157 70.2686H1.52832Z" fill="#B2B2B2"/>
<path d="M29.4229 70.2686L41.2684 67.2656H45.0895L33.244 70.2686H29.4229Z" fill="#B2B2B2"/>
<path d="M1.52832 82.7313L13.3738 79.5781H17.5771L5.73157 82.7313H1.52832Z" fill="#B2B2B2"/>
<path d="M29.4229 82.7313L41.2684 79.5781H45.0895L33.244 82.7313H29.4229Z" fill="#B2B2B2"/>
<path d="M1.52832 95.0438L13.3738 91.8906H17.5771L5.73157 95.0438H1.52832Z" fill="#B2B2B2"/>
<path d="M29.4229 95.0438L41.2684 91.8906H45.0895L33.244 95.0438H29.4229Z" fill="#B2B2B2"/>
<path d="M1.52832 107.505L13.3738 104.352H17.5771L5.73157 107.505H1.52832Z" fill="#B2B2B2"/>
<path d="M29.4229 107.505L41.2684 104.352H45.0895L33.244 107.505H29.4229Z" fill="#B2B2B2"/>
<path d="M5.73145 107.508H29.4225V109.009H5.73145V107.508Z" fill="#CCCCCC"/>
<path d="M5.73145 95.0469H29.4225V96.5484H5.73145V95.0469Z" fill="#CCCCCC"/>
<path d="M5.73145 82.7344H29.4225V84.2359H5.73145V82.7344Z" fill="#CCCCCC"/>
<path d="M5.73145 70.2734H29.4225V71.9251H5.73145V70.2734Z" fill="#CCCCCC"/>
<path d="M5.73145 57.9609H29.4225V59.4624H5.73145V57.9609Z" fill="#CCCCCC"/>
<path d="M5.73145 45.4922H29.4225V47.1438H5.73145V45.4922Z" fill="#CCCCCC"/>
<path d="M5.73145 33.1797H29.4225V34.6812H5.73145V33.1797Z" fill="#CCCCCC"/>
<path d="M5.73145 20.8672H29.4225V22.3687H5.73145V20.8672Z" fill="#CCCCCC"/>
<path d="M5.73145 8.40625H29.4225V9.90775H5.73145V8.40625Z" fill="#CCCCCC"/>
<path d="M5.73145 107.508H29.4225" stroke="white" stroke-width="0.855827"/>
<path d="M5.73145 20.8672H29.4225" stroke="white" stroke-width="0.855827"/>
<path d="M5.73145 33.1797H29.4225" stroke="white" stroke-width="0.855827"/>
<path d="M5.73145 45.4922H29.4225" stroke="white" stroke-width="0.855827"/>
<path d="M5.73145 57.9609H29.4225" stroke="white" stroke-width="0.855827"/>
<path d="M5.73145 70.2734H29.4225" stroke="white" stroke-width="0.855827"/>
<path d="M5.73145 82.7344H29.4225" stroke="white" stroke-width="0.855827"/>
<path d="M5.73145 95.0469H29.4225" stroke="white" stroke-width="0.855827"/>
<path d="M5.73145 8.40625H29.4225" stroke="white" stroke-width="0.855827"/>
<path d="M33.244 8.40625V109.007H29.4229V8.40625H33.244Z" fill="#B2B2B2" stroke="#666666" stroke-width="0.855827"/>
<path d="M1.52832 8.40625V109.007H5.73157V8.40625H1.52832Z" fill="#B2B2B2" stroke="#666666" stroke-width="0.855827"/>
</svg>
