<svg width="150" height="150" viewBox="0 0 150 150" fill="none" xmlns="http://www.w3.org/2000/svg">
<g clip-path="url(#clip0_2109_218588)">
<path d="M130.024 122.977H109.521V142.796L110.222 143.547L112.5 144.298L116.005 144.898H119.86H123.715L127.22 144.298L129.323 143.547L130.024 142.796V122.977Z" fill="black"/>
<path d="M82.7108 122.977H62.0332V142.796L62.9094 143.547L65.0122 144.298L68.5168 144.898H72.372H76.2271L79.7318 144.298L81.8346 143.547L82.7108 142.796V122.977Z" fill="black"/>
<path d="M0.525391 126.878H48.0137V125.227H0.525391V126.878Z" fill="black"/>
<path d="M41.5303 125.229H123.715V122.977H41.5303V125.229Z" fill="black"/>
<path d="M1.75195 118.621V108.711H2.45289V109.762H1.75195V118.621Z" fill="black" stroke="black" stroke-width="0.324416"/>
<path d="M42.9324 114.261V104.352H42.2314V105.403H42.9324V114.261Z" fill="black" stroke="black" stroke-width="0.324416"/>
<path d="M46.7869 98.3491V88.2891L46.0859 88.4392V89.4903H46.7869V98.3491Z" fill="black" stroke="black" stroke-width="0.324416"/>
<path d="M73.598 93.3943V83.4844H73.0723V84.5354H73.598V93.3943Z" fill="black" stroke="black" stroke-width="0.324416"/>
<path d="M122.313 93.3943V83.4844H123.014V84.5354H122.313V93.3943Z" fill="black" stroke="black" stroke-width="0.324416"/>
<path d="M126.869 103.754V93.8438H127.57V95.045H126.869V103.754Z" fill="black" stroke="black" stroke-width="0.324416"/>
<path d="M142.991 114.261V104.352H142.29V105.403H142.991V114.261Z" fill="black" stroke="black" stroke-width="0.324416"/>
<path d="M87.4414 82.8856L95.3269 0.453125H100.409L108.294 82.8856L88.668 71.1738L105.666 60.8135L90.0699 52.7054H105.666L90.0699 60.8135L107.068 71.1738L87.4414 82.8856Z" stroke="#FF0000" stroke-width="0.324416"/>
<path d="M95.3272 0.453125L100.409 3.30598L95.3272 7.05973L100.409 10.8135L93.9253 15.1678L101.811 21.0237L92.5234 26.8796H103.037L93.9253 21.0237L101.811 15.1678L95.3272 10.8135L100.409 7.05973L95.3272 3.30598L100.409 0.453125" stroke="#FF0000" stroke-width="0.324416"/>
<path d="M92.5234 38.7387L103.037 32.8828" stroke="white" stroke-width="0.324416"/>
<path d="M90.0703 52.7062L104.439 44.598L92.5236 38.7422" stroke="white" stroke-width="0.324416"/>
<path d="M103.037 32.881L92.5234 26.875" stroke="white" stroke-width="0.324416"/>
<path d="M103.038 26.875L92.5235 32.881L103.038 38.7369L91.2969 44.5927L105.666 52.7008" stroke="white" stroke-width="0.324416"/>
<path d="M81.3086 82.8828H114.778V93.3933H81.3086V82.8828Z" fill="#CCC9BF" stroke="black" stroke-width="0.324416"/>
<path d="M46.7871 98.3516H72.3712V114.267H46.7871V98.3516Z" fill="#B27F00" stroke="black" stroke-width="0.324416"/>
<path d="M31.3666 125.227H10.8643V144.896L11.5652 145.797L13.668 146.548L17.1727 146.998L21.0278 147.148L24.8829 146.998L28.3876 146.548L30.6657 145.797L31.3666 144.896V125.227Z" fill="#4C4C4C" stroke="black" stroke-width="0.324416"/>
<path d="M72.3711 93.3906H123.715V103.751H72.3711V93.3906Z" fill="#CCC7B2" stroke="black" stroke-width="0.324416"/>
<path d="M67.8154 103.75H128.096V114.261H67.8154V103.75Z" fill="#B2AD98" stroke="black" stroke-width="0.324416"/>
<path d="M62.0332 107.656H75.0005V108.707H62.0332V107.656Z" fill="#4C4C4C"/>
<path d="M41.5303 114.266H144.217V122.974H41.5303V114.266Z" fill="#CCCCCC" stroke="black" stroke-width="0.324416"/>
<path d="M92.8734 120.867H72.3711V147.143L73.072 148.044L75.3501 148.795L78.8547 149.246L82.7099 149.396L86.565 149.246L90.0697 148.795L92.1725 148.044L92.8734 147.143V120.867Z" fill="#333333"/>
<path d="M92.1727 120.867H73.0723V148.044L75.3503 148.795L78.855 149.246L82.7101 149.396L86.5653 149.246L90.0699 148.795L92.1727 148.044V120.867Z" fill="#7F7F7F"/>
<path d="M90.0702 120.867H75.3506V148.795L78.8553 149.246L82.7104 149.396L86.5655 149.246L90.0702 148.795V120.867Z" fill="#B2B2B2"/>
<path d="M86.5657 120.867H78.8555V149.246L82.7106 149.396L86.5657 149.246V120.867Z" fill="#CCCCCC"/>
<path d="M92.8734 120.867H72.3711V147.143L73.072 148.044L75.3501 148.795L78.8547 149.246L82.7099 149.396L86.565 149.246L90.0697 148.795L92.1725 148.044L92.8734 147.143V120.867Z" stroke="black" stroke-width="0.324416"/>
<path d="M144.217 122.977H123.715V147.151L124.416 148.052L126.694 148.802L130.023 149.253L133.878 149.403L137.734 149.253L141.238 148.802L143.516 148.052L144.217 147.151V122.977Z" fill="#4C4C4C"/>
<path d="M141.239 122.977H126.694V148.802L130.024 149.253L133.879 149.403L137.734 149.253L141.239 148.802V122.977Z" fill="#999999"/>
<path d="M144.217 122.977H123.715V147.151L124.416 148.052L126.694 148.802L130.023 149.253L133.878 149.403L137.734 149.253L141.238 148.802L143.516 148.052L144.217 147.151V122.977Z" stroke="black" stroke-width="0.324416"/>
<path d="M72.3711 120.867H92.8734L92.1725 121.618L90.0697 122.369L86.565 122.819L82.7099 122.969L78.8547 122.819L75.3501 122.369L73.072 121.618L72.3711 120.867Z" fill="#E5E5E5" stroke="black" stroke-width="0.324416"/>
<path d="M92.8734 117.57L92.1725 118.021L90.0697 118.321L86.565 118.621H82.7099H78.8547L75.3501 118.321L73.072 118.021L72.3711 117.57" stroke="#FFCC00" stroke-width="0.324416"/>
<path d="M72.3711 117.57V120.874" stroke="#FFCC00" stroke-width="0.324416"/>
<path d="M78.8555 122.972V118.617" stroke="#FFCC00" stroke-width="0.324416"/>
<path d="M86.5654 122.972V118.617" stroke="#FFCC00" stroke-width="0.324416"/>
<path d="M92.874 120.874V117.57" stroke="#FFCC00" stroke-width="0.324416"/>
<path d="M92.8734 119.219L92.1725 120.12L90.0697 120.72L86.565 121.171L82.7099 121.321L78.8547 121.171L75.3501 120.72L73.072 120.12L72.3711 119.219" stroke="#FFCC00" stroke-width="0.324416"/>
<path d="M0.525391 118.617H41.5301V125.224H0.525391V118.617Z" fill="#B2B2B2" stroke="black" stroke-width="0.324416"/>
<path d="M3.1543 112.01H39.0772V109.758H3.1543V112.01Z" fill="#E5E5E5" stroke="black" stroke-width="0.324416"/>
<path d="M3.1543 109.758H39.0772" stroke="#FF0000" stroke-width="0.324416"/>
<path d="M8.23633 118.622H33.8204V112.016H8.23633V118.622Z" fill="#999999" stroke="black" stroke-width="0.324416"/>
<path d="M54.498 110.961H82.7107V114.264H54.498V110.961Z" fill="#7F7F7F" stroke="black" stroke-width="0.324416"/>
<path d="M58.1777 108.711H78.8553V110.963H58.1777V108.711Z" fill="#999999" stroke="black" stroke-width="0.324416"/>
<path d="M41.5303 109.758H144.217" stroke="#FFCC00" stroke-width="0.324416"/>
<path d="M41.5303 112.016H144.217" stroke="#FFCC00" stroke-width="0.324416"/>
<path d="M41.5303 109.758V114.262" stroke="#FFCC00" stroke-width="0.324416"/>
<path d="M82.71 109.758V114.262" stroke="#FFCC00" stroke-width="0.324416"/>
<path d="M123.715 109.758V114.262" stroke="#FFCC00" stroke-width="0.324416"/>
<path d="M51.8691 109.758V114.262" stroke="#FFCC00" stroke-width="0.324416"/>
<path d="M92.874 109.758V114.262" stroke="#FFCC00" stroke-width="0.324416"/>
<path d="M133.879 109.758V114.262" stroke="#FFCC00" stroke-width="0.324416"/>
<path d="M62.0332 109.758V114.262" stroke="#FFCC00" stroke-width="0.324416"/>
<path d="M103.213 109.758V114.262" stroke="#FFCC00" stroke-width="0.324416"/>
<path d="M144.217 109.758V114.262" stroke="#FFCC00" stroke-width="0.324416"/>
<path d="M72.3711 109.758V114.262" stroke="#FFCC00" stroke-width="0.324416"/>
<path d="M113.376 109.758V114.262" stroke="#FFCC00" stroke-width="0.324416"/>
<path d="M0.525391 114.266H41.7053" stroke="#FFCC00" stroke-width="0.324416"/>
<path d="M0.525391 116.367H41.7053" stroke="#FFCC00" stroke-width="0.324416"/>
<path d="M21.2031 114.266V118.62" stroke="#FFCC00" stroke-width="0.324416"/>
<path d="M31.3672 114.266V118.62" stroke="#FFCC00" stroke-width="0.324416"/>
<path d="M0.525391 114.266V118.62" stroke="#FFCC00" stroke-width="0.324416"/>
<path d="M41.7051 114.266V118.62" stroke="#FFCC00" stroke-width="0.324416"/>
<path d="M10.8643 114.266V118.62" stroke="#FFCC00" stroke-width="0.324416"/>
<path d="M76.9277 103.753V99.3984" stroke="#FFCC00" stroke-width="0.324416"/>
<path d="M87.0908 103.753V99.3984" stroke="#FFCC00" stroke-width="0.324416"/>
<path d="M97.4297 103.753V99.3984" stroke="#FFCC00" stroke-width="0.324416"/>
<path d="M107.594 103.753V99.3984" stroke="#FFCC00" stroke-width="0.324416"/>
<path d="M117.933 103.753V99.3984" stroke="#FFCC00" stroke-width="0.324416"/>
<path d="M128.096 103.753V99.3984H76.9277" stroke="#FFCC00" stroke-width="0.324416"/>
<path d="M128.096 101.5H76.9277" stroke="#FFCC00" stroke-width="0.324416"/>
<path d="M54.498 107.659V101.052L62.0331 94.4453H77.4537V107.659H54.498Z" fill="#FF0000" stroke="black" stroke-width="0.324416"/>
<path d="M55.7246 101.048L62.033 95.4922H64.6615L62.033 101.048H55.7246Z" fill="#E5E5E5"/>
<path d="M116.005 98.7969L121.087 103.151" stroke="white" stroke-width="0.324416"/>
<path d="M103.738 97.75L110.923 103.756L116.005 98.8011" stroke="white" stroke-width="0.324416"/>
<path d="M121.086 103.151L126.343 98.7969" stroke="white" stroke-width="0.324416"/>
<path d="M126.343 103.156L121.086 98.802L116.005 103.156L110.923 98.3516L103.738 104.358" stroke="white" stroke-width="0.324416"/>
<path d="M69.7432 98.3516H75.5259V105.409H69.7432V98.3516Z" fill="#CC0000"/>
<path d="M72.3711 93.3951V88.8906" stroke="#FFCC00" stroke-width="0.324416"/>
<path d="M82.71 93.3951V88.8906" stroke="#FFCC00" stroke-width="0.324416"/>
<path d="M92.874 93.3951V88.8906" stroke="#FFCC00" stroke-width="0.324416"/>
<path d="M103.213 93.3951V88.8906" stroke="#FFCC00" stroke-width="0.324416"/>
<path d="M113.376 93.3951V88.8906" stroke="#FFCC00" stroke-width="0.324416"/>
<path d="M123.715 93.3951V88.8906H72.3711" stroke="#FFCC00" stroke-width="0.324416"/>
<path d="M123.715 91.1406H72.3711" stroke="#FFCC00" stroke-width="0.324416"/>
<path d="M82.71 85.5859H113.376V87.8382H82.71V85.5859Z" fill="#4C4C4C"/>
<path d="M108.295 96.0938H121.087V98.346H108.295V96.0938Z" fill="#4C4C4C"/>
<path d="M77.4531 96.6953L149.299 99.9986V102.101L77.4531 105.404L87.7919 97.1458L96.7288 104.353L103.738 97.7464V104.353L96.7288 97.7464L87.7919 104.803L77.4531 96.6953Z" stroke="#FF0000" stroke-width="0.324416"/>
<path d="M149.299 99.9981L146.846 102.1L143.517 99.9981L140.362 102.1L136.507 99.3975L131.426 102.701L126.344 98.7969V103.151L131.426 99.3975L136.507 102.701L140.362 99.9981L143.517 102.1L146.846 99.9981L149.299 102.1" stroke="#FF0000" stroke-width="0.324416"/>
<path d="M82.0098 73.5703H83.2364V82.8796H82.0098V73.5703Z" fill="black"/>
<path d="M82.71 73.574V63.6641" stroke="black" stroke-width="0.324416"/>
</g>
<defs>
<clipPath id="clip0_2109_218588">
<rect width="150" height="150" fill="white"/>
</clipPath>
</defs>
</svg>
