<svg width="150" height="150" viewBox="0 0 150 150" fill="none" xmlns="http://www.w3.org/2000/svg">
<g clip-path="url(#clip0_2109_218316)">
<path d="M3.45312 131.866V102.664L3.90358 101.031L5.10478 99.3989L7.05673 97.9479L8.25793 97.2224L9.60928 96.6782L11.1108 96.1341L12.6123 95.59L14.2639 95.2272L16.0657 94.8644L18.0177 94.6831L19.9696 94.5017L22.0717 94.3203H24.1738H26.2759L28.5282 94.5017L30.4802 94.6831L32.4321 94.8644L34.2339 95.2272L35.8856 95.59L37.5372 96.1341L39.0387 96.6782L40.3901 97.2224L41.5913 97.9479L43.5432 99.3989L44.7444 101.031L45.0447 101.757L45.1949 102.664V131.866L45.0447 132.41L43.5432 133.679L41.5913 134.405L40.3901 134.768L39.0387 135.13L37.5372 135.312L35.8856 135.493L34.2339 135.856L32.4321 136.037H30.4802L28.5282 136.219H26.2759H24.1738H22.0717H19.9696L18.0177 136.037H16.0657L14.2639 135.856L12.6123 135.493L11.1108 135.312L9.60928 135.13L8.25793 134.768L6.00568 134.042L4.50418 133.317L3.60328 132.41L3.45312 131.866Z" fill="#B2B2B2" stroke="black" stroke-width="0.330055"/>
<path d="M6.90723 131.866V102.664L7.20753 101.031L8.10843 99.3989L9.76008 97.9479L11.8622 96.6782L13.2135 96.1341L14.4147 95.59L15.9162 95.2272L17.4177 94.8644L19.0694 94.6831L20.721 94.5017L22.3727 94.3203H24.1745H25.9763L27.6279 94.5017L29.2796 94.6831L30.9313 94.8644L32.4328 95.2272L33.9343 95.59L35.2856 96.1341L36.4868 96.6782L38.5889 97.9479L40.2406 99.3989L41.1415 101.031L41.4418 101.757L41.5919 102.664V131.866L41.4418 132.41L40.2406 133.679L38.5889 134.405L36.4868 135.13L33.9343 135.493L32.4328 135.856L30.9313 136.037H29.2796L27.6279 136.219H25.9763H24.1745H22.3727H20.721L19.0694 136.037H17.4177L15.9162 135.856L14.4147 135.493L11.8622 135.13L9.76008 134.405L8.10843 133.679L6.90723 132.41V131.866Z" fill="#CCCCCC"/>
<path d="M12.1621 131.866V102.664L12.4624 101.031L13.2132 99.3989L14.2642 97.9479L15.7657 96.6782L17.4174 95.59L19.5195 94.8644L21.7717 94.5017L22.9729 94.3203H24.1741H25.5255L27.9279 94.6831L30.03 95.2272L31.9819 96.1341L33.6336 97.2224L34.9849 98.6734L35.8858 100.124L36.3363 101.757L36.4864 102.664V131.866L36.3363 132.41L35.5855 133.679L33.6336 134.768L31.9819 135.312L30.03 135.856L27.9279 136.037L26.7267 136.219H25.5255H24.1741H21.7717L19.5195 136.037L17.4174 135.493L15.7657 135.13L14.2642 134.405L12.7627 133.317L12.3123 132.41L12.1621 131.866Z" fill="#E5E5E5"/>
<path d="M45.1949 102.664L45.0447 102.845L43.5432 103.39L41.5913 103.752L39.0387 104.115L37.5372 104.296H35.8856L34.2339 104.478L32.4321 104.659H30.4802H28.5282L26.2759 104.841H22.0717L19.9696 104.659H18.0177H16.0657L14.2639 104.478L12.6123 104.296H11.1108L9.60928 104.115L7.05673 103.752L5.10478 103.39L3.60328 102.845L3.45312 102.664" stroke="black" stroke-width="0.330055"/>
<path d="M21.7718 94.314L22.6727 95.4023H25.976V93.2258L23.2733 89.9609H2.55255L0 93.2258V131.859H3.45345V95.4023L4.35435 94.314H21.7718Z" fill="#7F7F7F" stroke="black" stroke-width="0.330055"/>
<path d="M3.45345 131.86H0V131.135H2.55255V94.3148L3.45345 93.2266H22.6727L23.2733 94.3148H25.976V95.4031H22.6727L21.7718 94.3148H4.35435L3.45345 95.4031V131.86Z" fill="#4C4C4C" stroke="black" stroke-width="0.330055"/>
<path d="M146.396 131.866V102.664L145.946 101.031L144.744 99.3989L142.792 97.9479L141.591 97.2224L140.24 96.6782L138.738 96.1341L137.087 95.59L135.435 95.2272L133.633 94.8644L131.681 94.6831L129.579 94.5017L127.477 94.3203H125.375H123.273L121.171 94.5017L119.219 94.6831L117.267 94.8644L115.465 95.2272L113.813 95.59L112.312 96.1341L110.81 96.6782L109.459 97.2224L108.258 97.9479L106.306 99.3989L105.105 101.031L104.804 101.757L104.654 102.664V131.866L104.804 132.41L106.306 133.679L108.258 134.405L109.459 134.768L110.81 135.13L112.312 135.312L113.813 135.493L115.465 135.856L117.267 136.037H119.219L121.171 136.219H123.273H125.375H127.477H129.579L131.681 136.037H133.633L135.435 135.856L137.087 135.493L138.738 135.312L140.24 135.13L141.591 134.768L143.843 134.042L145.345 133.317L146.246 132.41L146.396 131.866Z" fill="#B2B2B2" stroke="black" stroke-width="0.330055"/>
<path d="M142.793 131.866V102.664L142.342 101.031L141.441 99.3989L139.79 97.9479L137.688 96.6782L136.336 96.1341L135.135 95.59L133.634 95.2272L132.132 94.8644L130.481 94.6831L128.829 94.5017L127.177 94.3203H125.375H123.574L121.922 94.5017L120.27 94.6831L118.619 94.8644L117.117 95.2272L115.616 95.59L114.264 96.1341L113.063 96.6782L110.961 97.9479L109.309 99.3989L108.408 101.031L108.108 101.757L107.958 102.664V131.866L108.108 132.41L109.309 133.679L110.961 134.405L113.063 135.13L115.616 135.493L117.117 135.856L118.619 136.037H120.27L121.922 136.219H123.574H125.375H127.177H128.829L130.481 136.037H132.132L133.634 135.856L135.135 135.493L137.688 135.13L139.79 134.405L141.441 133.679L142.643 132.41L142.793 131.866Z" fill="#CCCCCC"/>
<path d="M137.688 131.866V102.664L137.387 101.031L136.637 99.3989L135.586 97.9479L134.084 96.6782L132.282 95.59L130.18 94.8644L127.928 94.5017L126.727 94.3203H125.375H124.174L121.772 94.6831L119.67 95.2272L117.718 96.1341L116.066 97.2224L114.865 98.6734L113.964 100.124L113.513 101.757L113.363 102.664V131.866L113.513 132.41L114.264 133.679L116.066 134.768L117.718 135.312L119.67 135.856L121.772 136.037L122.973 136.219H124.174H125.375H127.928L130.18 136.037L132.282 135.493L134.084 135.13L135.586 134.405L137.087 133.317L137.537 132.41L137.688 131.866Z" fill="#E5E5E5"/>
<path d="M104.654 102.664L104.804 102.845L106.306 103.39L108.258 103.752L110.81 104.115L112.312 104.296H113.813L115.465 104.478L117.267 104.659H119.219H121.171L123.273 104.841H127.477L129.579 104.659H131.681H133.633L135.435 104.478L137.087 104.296H138.738L140.24 104.115L142.792 103.752L144.744 103.39L146.246 102.845L146.396 102.664" stroke="black" stroke-width="0.330055"/>
<path d="M128.078 94.314L127.177 95.4023H123.573V93.2258L126.276 89.9609H147.297L150 93.2258V131.859H146.396V95.4023L145.495 94.314H128.078Z" fill="#7F7F7F" stroke="black" stroke-width="0.330055"/>
<path d="M146.396 131.86H150V131.135H147.297V94.3148L146.396 93.2266H127.177L126.276 94.3148H123.573V95.4031H127.177L128.078 94.3148H145.495L146.396 95.4031V131.86Z" fill="#4C4C4C" stroke="black" stroke-width="0.330055"/>
<path d="M29.2793 138.388V53.1403L31.8318 49.15L35.5856 47.1548L40.3904 45.7038L46.2463 44.9783L48.3484 44.7969H50.4505H52.7027L58.8589 45.341L64.2643 46.6107L68.4685 48.4244L71.6216 51.3265L71.9219 52.2334L72.0721 53.1403V138.388L71.9219 138.751L67.1171 141.109L62.6126 142.016L57.0571 142.56L54.955 142.741H52.7027H50.4505L44.1442 142.56L38.5886 142.016L34.0841 141.109L30.1802 139.658L29.2793 138.751V138.388Z" fill="#B2B2B2" stroke="black" stroke-width="0.330055"/>
<path d="M32.8828 138.388V53.1403L35.8858 48.4244L40.6906 46.0665L45.3453 45.1596L48.7987 44.7969H50.4504H52.4023L57.5074 45.341L62.0119 46.6107L66.3663 49.15L68.4684 52.2334V53.1403V138.388V138.751L64.4143 141.109L59.0089 142.197L54.2041 142.741H52.4023H50.4504L45.3453 142.56L40.6906 142.016L35.8858 140.746L33.033 138.751L32.8828 138.388Z" fill="#CCCCCC"/>
<path d="M38.2881 138.388V53.1403L40.3902 48.4244L44.5944 45.7038L49.249 44.7969H50.4502H51.8016L56.4563 45.7038L60.21 47.6989L63.0629 52.2334V53.1403V138.388V138.751L59.4593 141.472L55.4052 142.378L53.0028 142.741H51.8016H50.4502L45.6454 142.378L40.9908 141.109L38.2881 138.751V138.388Z" fill="#E5E5E5"/>
<path d="M72.0721 53.5078L71.9219 53.6892L70.4204 54.4147L68.4685 54.7775L65.7658 55.1402H64.2643L62.6126 55.3216H60.8108L58.8589 55.503H57.0571H54.955L52.7027 55.6844H48.3484L46.2463 55.503H44.1442H42.3424L40.3904 55.3216H38.5886L36.937 55.1402H35.5856L32.8829 54.7775L30.9309 54.4147L29.2793 53.6892V53.5078" stroke="black" stroke-width="0.330055"/>
<path d="M47.898 44.7984L48.7989 45.8867H52.2524V43.7101L49.6998 40.4453H28.3785L25.6758 43.7101V138.39H29.2794V45.8867L30.1803 44.7984H47.898Z" fill="#7F7F7F" stroke="black" stroke-width="0.330055"/>
<path d="M29.2794 139.479H25.6758V138.391H28.3785V44.7992L29.2794 43.7109H48.7989L49.6998 44.7992H52.2524V45.8875H48.7989L47.898 44.7992H30.1803L29.2794 45.8875V139.479Z" fill="#4C4C4C" stroke="black" stroke-width="0.330055"/>
<path d="M120.57 138.395V81.2609L118.018 77.2705L114.264 75.2754L109.159 73.643L103.303 72.7361H101.201L99.0987 72.5547L96.8464 72.7361L90.8404 73.2802L85.5852 74.5499L81.3809 76.545L78.2278 79.4471L77.9275 80.354L77.7773 81.2609V138.395L77.9275 138.758L82.5821 141.116L87.0867 142.023L92.7924 142.567L94.7443 142.748H96.8464H99.0987L105.405 142.567L110.961 142.023L115.615 141.116L119.669 139.665L120.57 138.758V138.395Z" fill="#B2B2B2" stroke="black" stroke-width="0.330055"/>
<path d="M116.967 138.395V81.2609L114.715 77.2705L110.36 74.5499L106.006 73.2802L100.901 72.7361L99.0991 72.5547L97.1471 72.7361L92.042 73.2802L87.6877 74.5499L83.3333 77.2705L81.2312 80.354L81.0811 81.2609V138.395L81.2312 138.758L85.2853 141.116L90.5405 142.204L95.3453 142.748H97.1471H99.0991L104.354 142.567L109.009 142.023L113.964 140.753L116.817 138.758L116.967 138.395Z" fill="#CCCCCC"/>
<path d="M111.561 138.395V81.2609L109.459 76.545L104.955 73.643L100.3 72.7361L99.0989 72.5547L97.7476 72.7361L93.0929 73.643L89.3392 75.8195L86.4863 80.354V81.2609V138.395V138.758L90.0899 141.479L94.144 142.385L96.5464 142.748H97.7476H99.0989L103.904 142.385L107.958 141.479L111.561 138.758V138.395Z" fill="#E5E5E5"/>
<path d="M77.7773 81.2578L77.9275 81.4392L79.429 81.9833L81.3809 82.5275L84.0837 82.7088L85.5852 82.8902L87.0867 83.0716L88.8885 83.253H90.8404L92.7924 83.4344H94.7443H96.8464H101.201H103.303H105.405L107.357 83.253H109.159L110.961 83.0716L112.612 82.8902L114.264 82.7088L116.816 82.5275L118.918 81.9833L120.57 81.4392V81.2578" stroke="black" stroke-width="0.330055"/>
<path d="M101.651 72.5545L100.75 73.6428H97.2969V71.4662L99.9996 68.3828H121.471L123.873 71.4662V138.395H120.57V73.6428L119.669 72.5545H101.651Z" fill="#7F7F7F" stroke="black" stroke-width="0.330055"/>
<path d="M120.57 139.478H123.873V138.39H121.471V72.5492L120.57 71.4609H100.75L99.9996 72.5492H97.2969V73.6375H100.75L101.651 72.5492H119.669L120.57 73.6375V139.478Z" fill="#4C4C4C" stroke="black" stroke-width="0.330055"/>
<path d="M53.7539 145.647V12.878L56.4566 8.88772L60.0602 6.89255L65.0152 5.26015L71.0212 4.35325H73.1233L75.3755 4.17188L77.6278 4.35325L83.6338 4.89739L88.889 6.34842L92.9431 8.1622L96.2464 11.2456L96.5467 12.1525L96.6968 12.878V145.647L96.5467 146.191L91.7419 148.549L87.2374 149.275L81.6818 149.819L79.5797 150H77.6278H75.3755L68.9191 149.819L63.3635 149.275L58.7089 148.549L54.805 146.917L53.9041 146.191L53.7539 145.647Z" fill="#B2B2B2" stroke="black" stroke-width="0.330055"/>
<path d="M57.3574 145.647V12.878L59.6097 8.88772L63.964 6.34842L68.4685 4.89739L73.5736 4.35325L75.3754 4.17188L77.1772 4.35325L82.2823 4.89739L86.6367 6.34842L90.9911 8.88772L92.943 12.1525V12.878V145.647V146.191L89.0391 148.549L83.934 149.456L78.979 150H77.1772H75.3754L70.1202 149.819L65.3154 149.275L60.5106 148.186L57.5076 146.191L57.3574 145.647Z" fill="#CCCCCC"/>
<path d="M62.7627 145.647V12.878L65.0149 8.1622L69.3693 5.26015L74.024 4.35325L75.3753 4.17188L76.7267 4.35325L81.3813 5.26015L85.1351 7.43669L87.8378 12.1525L87.9879 12.878V145.647L87.8378 146.191L84.2342 148.731L79.1291 149.819L77.9279 150H76.7267H75.3753L70.5705 149.637L65.6155 148.549L62.9128 146.191L62.7627 145.647Z" fill="#E5E5E5"/>
<path d="M96.6968 13.2422L96.5467 13.4236L94.895 14.1491L92.9431 14.5118L91.7419 14.6932L90.3905 14.8746H88.889L87.2374 15.056L85.4356 15.2374H83.6338L81.6818 15.4187H79.5797H77.6278H73.1233H71.0212H68.9191L66.9671 15.2374H65.0152L63.3635 15.056L61.5617 14.8746H60.0602L58.7089 14.6932L56.4566 14.3305L54.805 13.9677L53.9041 13.4236L53.7539 13.2422" stroke="black" stroke-width="0.330055"/>
<path d="M72.6729 4.1717L73.5738 5.25998H77.1774V3.08343L74.4747 0H52.8531L50.1504 3.08343V145.647H53.754V5.25998L54.6549 4.1717H72.6729Z" fill="#7F7F7F" stroke="black" stroke-width="0.330055"/>
<path d="M53.754 146.738H50.1504V145.649H52.8531V4.17421L53.754 3.08594H73.5738L74.4747 4.17421H77.1774V5.26248H73.5738L72.6729 4.17421H54.6549L53.754 5.26248V146.738Z" fill="#4C4C4C" stroke="black" stroke-width="0.330055"/>
</g>
<defs>
<clipPath id="clip0_2109_218316">
<rect width="150" height="150" fill="white"/>
</clipPath>
</defs>
</svg>
