<svg width="150" height="150" viewBox="0 0 150 150" fill="none" xmlns="http://www.w3.org/2000/svg">
<g clip-path="url(#clip0_2109_220698)">
<path d="M0 150.004H2.4024V7.89844H0V150.004Z" fill="#009933"/>
<path d="M2.40234 150.004H2.70264V7.89844H2.40234V150.004Z" fill="#006633"/>
<path d="M2.70312 150.004H3.15358V7.89844H2.70312V150.004Z" fill="#003333"/>
<path d="M1.50195 150.004H1.9524V7.89844H1.50195V150.004Z" fill="#669933"/>
<path d="M0.300781 150.004H1.50198V7.89844H0.300781V150.004Z" fill="#99FF99"/>
<path d="M0 7.89844H3.15315V150.004H0V7.89844Z" stroke="black" stroke-width="0.404355"/>
<path d="M0 2.71875V7.89116H149.55V2.71875H0Z" fill="#009933"/>
<path d="M0 7.89844V8.4429H149.55V7.89844H0Z" fill="#003333"/>
<path d="M0 5.71875V6.26321H149.55V5.71875H0Z" fill="#669933"/>
<path d="M0 4.35938V5.72054H149.55V4.35938H0Z" fill="#99FF99"/>
<path d="M149.55 2.71875V8.43563H0V2.71875H149.55Z" stroke="black" stroke-width="0.404355"/>
<path d="M149.55 2.72232V0" stroke="black" stroke-width="0.404355"/>
<path d="M143.544 2.72232V0" stroke="black" stroke-width="0.404355"/>
<path d="M137.087 2.72232V0" stroke="black" stroke-width="0.404355"/>
<path d="M130.781 2.72232V0" stroke="black" stroke-width="0.404355"/>
<path d="M124.774 2.72232V0" stroke="black" stroke-width="0.404355"/>
<path d="M118.318 2.72232V0" stroke="black" stroke-width="0.404355"/>
<path d="M112.312 2.72232V0" stroke="black" stroke-width="0.404355"/>
<path d="M105.855 2.72232V0" stroke="black" stroke-width="0.404355"/>
<path d="M99.5498 2.72232V0" stroke="black" stroke-width="0.404355"/>
<path d="M93.5439 2.72232V0" stroke="black" stroke-width="0.404355"/>
<path d="M87.0869 2.72232V0" stroke="black" stroke-width="0.404355"/>
<path d="M81.0811 2.72232V0" stroke="black" stroke-width="0.404355"/>
<path d="M74.7744 2.72232V0" stroke="black" stroke-width="0.404355"/>
<path d="M68.3184 2.72232V0" stroke="black" stroke-width="0.404355"/>
<path d="M62.3125 2.72232V0" stroke="black" stroke-width="0.404355"/>
<path d="M55.8555 2.72232V0" stroke="black" stroke-width="0.404355"/>
<path d="M50 2.72232V0" stroke="black" stroke-width="0.404355"/>
<path d="M43.5439 2.72232V0" stroke="black" stroke-width="0.404355"/>
<path d="M37.0869 2.72232V0" stroke="black" stroke-width="0.404355"/>
<path d="M31.0811 2.72232V0" stroke="black" stroke-width="0.404355"/>
<path d="M24.7744 2.72232V0" stroke="black" stroke-width="0.404355"/>
<path d="M18.7686 2.72232V0" stroke="black" stroke-width="0.404355"/>
<path d="M12.3125 2.72232V0" stroke="black" stroke-width="0.404355"/>
<path d="M6.30664 2.72232V0" stroke="black" stroke-width="0.404355"/>
<path d="M150 14.4247L143.544 2.71875" stroke="black" stroke-width="0.404355"/>
<path d="M137.087 2.71875L150 25.314" stroke="black" stroke-width="0.404355"/>
<path d="M150 36.7478L131.081 2.71875" stroke="black" stroke-width="0.404355"/>
<path d="M124.774 2.71875L150 48.4538" stroke="black" stroke-width="0.404355"/>
<path d="M150 59.3431L118.769 2.71875" stroke="black" stroke-width="0.404355"/>
<path d="M112.312 2.71875L150 71.0491" stroke="black" stroke-width="0.404355"/>
<path d="M150 81.6661L105.855 2.71875" stroke="black" stroke-width="0.404355"/>
<path d="M100 2.71875L150 93.3721" stroke="black" stroke-width="0.404355"/>
<path d="M150 105.078L93.5439 2.71875" stroke="black" stroke-width="0.404355"/>
<path d="M143.544 150.003L150 138.297" stroke="black" stroke-width="0.404355"/>
<path d="M137.087 150.002L150 127.406" stroke="black" stroke-width="0.404355"/>
<path d="M131.081 149.998L150 115.969" stroke="black" stroke-width="0.404355"/>
<path d="M124.774 149.996L150 105.078" stroke="black" stroke-width="0.404355"/>
<path d="M118.769 149.999L150 93.375" stroke="black" stroke-width="0.404355"/>
<path d="M112.312 150.002L150 81.6719" stroke="black" stroke-width="0.404355"/>
<path d="M105.855 150.002L150 71.0547" stroke="black" stroke-width="0.404355"/>
<path d="M100 149.997L150 59.3438" stroke="black" stroke-width="0.404355"/>
<path d="M93.5439 150.004L150 48.4609" stroke="black" stroke-width="0.404355"/>
<path d="M87.5371 149.999L150 36.75" stroke="black" stroke-width="0.404355"/>
<path d="M81.0811 150.003L150 25.3203" stroke="black" stroke-width="0.404355"/>
<path d="M74.7744 150.001L150 14.4297" stroke="black" stroke-width="0.404355"/>
<path d="M68.7686 149.996L150 2.71875" stroke="black" stroke-width="0.404355"/>
<path d="M62.3125 149.996L143.544 2.71875" stroke="black" stroke-width="0.404355"/>
<path d="M55.8555 149.996L137.087 2.71875" stroke="black" stroke-width="0.404355"/>
<path d="M50 149.996L131.081 2.71875" stroke="black" stroke-width="0.404355"/>
<path d="M43.5439 149.996L124.775 2.71875" stroke="black" stroke-width="0.404355"/>
<path d="M37.5371 149.996L118.768 2.71875" stroke="black" stroke-width="0.404355"/>
<path d="M31.0811 149.996L112.312 2.71875" stroke="black" stroke-width="0.404355"/>
<path d="M24.7744 149.996L105.855 2.71875" stroke="black" stroke-width="0.404355"/>
<path d="M18.7686 149.996L99.9998 2.71875" stroke="black" stroke-width="0.404355"/>
<path d="M12.3125 149.996L93.5437 2.71875" stroke="black" stroke-width="0.404355"/>
<path d="M0 138.297L6.30631 150.003" stroke="black" stroke-width="0.404355"/>
<path d="M0 127.406L12.3123 150.002" stroke="black" stroke-width="0.404355"/>
<path d="M0 115.969L18.7688 149.998" stroke="black" stroke-width="0.404355"/>
<path d="M0 105.078L24.7748 149.996" stroke="black" stroke-width="0.404355"/>
<path d="M0 93.375L31.0811 149.999" stroke="black" stroke-width="0.404355"/>
<path d="M0 81.6719L37.5375 150.002" stroke="black" stroke-width="0.404355"/>
<path d="M0 71.0547L43.5435 150.002" stroke="black" stroke-width="0.404355"/>
<path d="M0 59.3438L50 149.997" stroke="black" stroke-width="0.404355"/>
<path d="M0 48.4609L55.8559 150.004" stroke="black" stroke-width="0.404355"/>
<path d="M0 36.75L62.3123 149.999" stroke="black" stroke-width="0.404355"/>
<path d="M0 25.3203L68.7688 150.003" stroke="black" stroke-width="0.404355"/>
<path d="M0 14.4297L74.7748 150.001" stroke="black" stroke-width="0.404355"/>
<path d="M0 2.71875L81.0811 149.996" stroke="black" stroke-width="0.404355"/>
<path d="M0 14.4247L6.30631 2.71875L87.5375 149.996" stroke="black" stroke-width="0.404355"/>
<path d="M0 25.314L12.3123 2.71875L93.5435 149.996" stroke="black" stroke-width="0.404355"/>
<path d="M0 36.7478L18.7688 2.71875L100 149.996" stroke="black" stroke-width="0.404355"/>
<path d="M0 48.4538L24.7748 2.71875L105.856 149.996" stroke="black" stroke-width="0.404355"/>
<path d="M0 59.3431L31.0811 2.71875L112.312 149.996" stroke="black" stroke-width="0.404355"/>
<path d="M0 71.0491L37.5375 2.71875L118.769 149.996" stroke="black" stroke-width="0.404355"/>
<path d="M0 81.6661L43.5435 2.71875L124.775 149.996" stroke="black" stroke-width="0.404355"/>
<path d="M0 93.3721L50 2.71875L131.081 149.996" stroke="black" stroke-width="0.404355"/>
<path d="M0 105.078L55.8559 2.71875L137.087 149.996" stroke="black" stroke-width="0.404355"/>
<path d="M0 115.967L62.3123 2.71875L143.544 149.996" stroke="black" stroke-width="0.404355"/>
<path d="M0 127.401L68.7688 2.71875L150 149.996" stroke="black" stroke-width="0.404355"/>
<path d="M0 138.29L74.7748 2.71875L150 138.29" stroke="black" stroke-width="0.404355"/>
<path d="M0 149.996L81.0811 2.71875L150 127.401" stroke="black" stroke-width="0.404355"/>
<path d="M6.30664 149.996L87.5379 2.71875L150 115.967" stroke="black" stroke-width="0.404355"/>
</g>
<defs>
<clipPath id="clip0_2109_220698">
<rect width="150" height="150" fill="white"/>
</clipPath>
</defs>
</svg>
