<svg width="150" height="150" viewBox="0 0 150 150" fill="none" xmlns="http://www.w3.org/2000/svg">
<g clip-path="url(#clip0_2109_218866)">
<path d="M0 84.2344H12.4625V150H0V84.2344Z" fill="#E5E5E0" stroke="black" stroke-width="0.3003"/>
<path d="M93.6933 28.0766L93.0927 22.8213L91.2909 18.6171L88.5882 15.4639L83.7834 12.9114L79.5792 12.4609L74.1738 13.3618L70.7203 15.4639L68.0176 18.6171L66.2158 22.8213L65.6152 28.0766V149.998H93.6933V28.0766Z" fill="#E5E5E0" stroke="black" stroke-width="0.3003"/>
<path d="M146.847 93.6953V150.002H140.541L128.078 93.6953H146.847Z" fill="#E5E5E0" stroke="black" stroke-width="0.3003"/>
<path d="M78.0781 12.4625V0H103.003V150H100V45.1952H81.2313V43.6937H100V26.4264H81.2313V24.9249H100V3.003H81.2313V12.4625H78.0781Z" fill="black"/>
<path d="M118.619 124.923C135.867 124.923 149.85 110.941 149.85 93.6922C149.85 76.4436 135.867 62.4609 118.619 62.4609C101.37 62.4609 87.3877 76.4436 87.3877 93.6922C87.3877 110.941 101.37 124.923 118.619 124.923Z" fill="#E5E5E0" stroke="black" stroke-width="0.3003"/>
<path d="M74.9254 50.0031L73.574 44.4476L71.1716 40.9941L67.7181 37.9911L63.5139 35.4386L58.559 33.4866L52.8533 31.9851L46.8473 31.2344H43.6941L37.3878 31.5347L31.532 32.7359L26.2767 34.3875L21.622 36.6398L17.7181 39.4926L14.8653 42.6458L12.613 48.0512L12.4629 50.0031V150.003H74.9254V50.0031Z" fill="#E5E5E0" stroke="black" stroke-width="0.3003"/>
<path d="M145.496 78.0781H91.8922L89.9402 81.6817L88.5889 85.5856L87.688 89.6397L87.5378 91.7418L87.3877 92.6427V93.6937L88.1384 100L89.9402 105.856L92.7931 111.111L96.697 115.766L101.202 119.52L106.457 122.523L112.313 124.324L115.466 124.775L118.619 124.925L121.922 124.775L127.928 123.574L133.484 121.171L138.589 117.718L142.793 113.514L146.096 108.559L148.499 102.853L149.85 96.8469L150 93.6937V92.6427L149.4 87.6877L148.199 83.6337L146.547 79.8799L146.096 78.979L145.496 78.0781Z" fill="#B2B2A3" stroke="black" stroke-width="0.3003"/>
<path d="M18.6182 150.002V118.62H31.2308V93.6953H118.618V118.62H131.231V150.002H18.6182Z" fill="#E5E5E0" stroke="black" stroke-width="0.3003"/>
<path d="M40.541 109.312H43.8443V118.622H40.541V109.312Z" fill="#4C4C4C"/>
<path d="M53.6035 109.312H56.9068V118.622H53.6035V109.312Z" fill="#4C4C4C"/>
<path d="M66.8164 109.312H70.1197V118.622H66.8164V109.312Z" fill="#4C4C4C"/>
<path d="M79.8799 109.312H83.1832V118.622H79.8799V109.312Z" fill="#4C4C4C"/>
<path d="M92.9434 109.312H96.2467V118.622H92.9434V109.312Z" fill="#4C4C4C"/>
<path d="M106.006 109.312H109.309V118.622H106.006V109.312Z" fill="#4C4C4C"/>
<path d="M40.541 124.922H43.8443V134.231H40.541V124.922Z" fill="#4C4C4C"/>
<path d="M53.6035 124.922H56.9068V134.231H53.6035V124.922Z" fill="#4C4C4C"/>
<path d="M66.8164 124.922H70.1197V134.231H66.8164V124.922Z" fill="#4C4C4C"/>
<path d="M79.8799 124.922H83.1832V134.231H79.8799V124.922Z" fill="#4C4C4C"/>
<path d="M92.9434 124.922H96.2467V134.231H92.9434V124.922Z" fill="#4C4C4C"/>
<path d="M106.006 124.922H109.309V134.231H106.006V124.922Z" fill="#4C4C4C"/>
</g>
<defs>
<clipPath id="clip0_2109_218866">
<rect width="150" height="150" fill="white"/>
</clipPath>
</defs>
</svg>
