<svg width="150" height="150" viewBox="0 0 150 150" fill="none" xmlns="http://www.w3.org/2000/svg">
<g clip-path="url(#clip0_2109_220182)">
<path d="M54.7146 148.499L48.3871 144.745L45.0372 140.691L43.5484 136.486L45.0372 132.282L47.2705 131.532L42.4318 127.477L39.4541 123.123L39.8263 118.619L44.665 115.015L47.2705 114.414L41.3151 110.36L37.2208 106.757L33.4988 103.003L32.0099 98.3484L39.8263 95.1952L40.9429 94.8949L37.9653 90.991L32.3821 87.0871L27.1712 82.8829L25.3102 78.2282L27.9156 74.1742L30.5211 72.3724L27.1712 68.3183L23.0769 63.2132L19.727 59.009L16.7494 54.6547L14.8883 50.6006L16.3772 46.2462L16.7494 45.6456L8.933 41.7417L3.72208 37.5375L0.744417 33.1832L0 29.8799V29.1291V28.3784L1.86104 23.8739L3.34988 23.1231L6.69975 18.4685L8.933 13.6637L10.794 9.15916L14.1439 5.1051L24.1935 3.75375L33.4988 3.6036L33.871 2.7027L34.6154 2.1021L35.732 1.8018L48.0149 2.25225L56.5757 1.65165L57.3201 0.900901L57.6923 0H61.0422L70.3474 1.2012L79.2804 3.6036L90.8189 5.40541H93.7965L102.73 2.7027L114.64 1.95195L126.179 2.85285L136.228 4.95496L137.717 5.40541L147.767 7.35736L150 11.1111V11.8619V12.6126L149.256 17.1171L147.395 22.0721L145.906 26.4264L145.534 31.2312L142.928 35.7357L138.089 39.7898L133.623 43.6937L131.762 48.048V52.5526L129.901 57.2072L126.923 61.2613L122.829 65.4655L118.362 69.3694L115.012 72.3724L117.99 76.7267L116.129 81.2312L113.524 85.2853L110.918 89.6396L111.29 94.1441L113.896 98.1982L112.407 103.153L108.313 108.108L104.591 112.012L105.335 116.517L106.452 120.721L105.335 125.225L103.102 129.429L101.613 131.532L103.846 136.036L103.102 140.841L99.7519 144.895L93.7965 148.499L83.3747 149.55L75.1861 149.85L74.0695 150H72.5807L61.7866 149.55L54.7146 148.499Z" fill="#333333" stroke="black" stroke-width="0.472809"/>
<path d="M60.6698 143.696L53.97 140.093L49.1313 135.438L49.5035 130.934L56.2033 129.132L58.8087 130.033V129.883H59.1809L55.4588 125.678L52.4812 121.024L50.6201 116.369L50.2479 113.216L58.4365 115.168L58.8087 115.018L59.1809 114.868L56.5755 110.813L53.5978 106.91L50.9923 102.405L49.5035 97.6003L50.9923 92.9456L49.5035 88.1408L45.4092 84.0867L40.9427 79.8825L37.965 75.378L43.9204 72.375L50.9923 76.1288L54.3422 77.33H54.7144L55.0866 77.0297L52.4812 71.7744L49.1313 67.7204L45.4092 63.2159L41.3149 58.7114L37.965 54.6573L34.9874 50.303V49.8525L28.2876 45.7984L24.1933 41.7444L21.5879 37.6903L19.7268 33.336L21.5879 29.1318L16.377 25.0777V24.1768L16.7492 23.5762L27.5432 21.0237L40.9427 20.5732L44.2926 16.2189L52.109 12.7654L59.5531 11.5642L61.7864 11.4141L63.6474 11.5642L74.0693 12.9156L83.7467 15.318L89.3298 15.7684L99.0072 13.0657L110.173 13.5162L119.479 15.7684L127.667 18.7714L128.039 20.5732V21.1738V21.9246L127.295 26.4291L125.806 30.7834L124.317 35.2879L115.012 37.5402L109.057 40.2429L109.429 40.393L118.734 42.345L123.201 46.399L117.618 50.4531L115.012 51.6543L115.757 56.1588L115.384 60.5132L113.151 65.1678L110.173 69.2219L106.079 74.1768L107.196 78.9816L104.59 82.8855L101.985 86.9396L101.613 88.8915L96.4018 92.6453L102.729 95.9486L106.824 99.7024L105.707 104.958L101.613 109.462L96.774 113.216L99.3794 117.27L100.124 122.225L99.0072 126.729L95.6573 129.282L93.7963 129.132L96.4018 134.237V138.892L93.0519 142.946L82.2578 144.747L76.3025 145.048H74.4415H72.5804L62.1586 143.997L60.6698 143.696Z" fill="#666666"/>
<path d="M65.136 135.733L63.6472 130.928L60.6695 126.874L63.275 122.219L65.5083 117.565L68.1137 113.06L69.6025 108.255L61.414 105.553L58.4363 105.703V99.9971L62.1584 94.892L59.5529 90.3875L56.5752 86.0331V81.3784L62.1584 80.928L72.208 77.4745L78.9078 73.7208L78.5355 69.2163L71.4636 66.2133L61.414 63.2103L53.5976 60.6577L45.7812 56.6037L48.0145 52.0992L51.3643 48.0451L48.7589 44.1412L39.8259 41.7388L34.9872 40.6878L32.7539 39.0361V38.4355V37.9851L41.3147 35.1322L45.7812 30.3274V26.8739L46.1534 26.7238L46.8978 26.5736L56.203 28.976L66.6249 27.6247V26.7238L71.4636 24.1712L81.141 26.7238L86.3519 27.3244L97.5182 23.4205L107.196 20.5676L109.429 20.1172H110.918L112.034 20.2673L115.756 24.0211L117.99 25.5226L119.851 25.6727L121.34 26.7238V27.1742V27.6247L117.245 31.8289L111.29 35.4325L102.357 39.0361L93.7961 41.5887L83.7465 43.8409L77.7911 46.2433L88.213 48.6457L99.3792 49.9971L108.312 51.949L107.94 56.7538L106.079 57.8049L101.985 61.7088L96.4016 65.6127L94.5405 69.967L97.5182 74.6217L99.007 75.6727L95.2849 79.5766L89.7018 83.0301L84.8631 86.934L83.7465 91.4385L91.5628 95.0421L94.5405 95.6427L95.2849 95.7929L94.5405 100.898L91.1906 104.952L86.7241 109.306L81.8854 113.21L77.4189 116.213L88.5852 117.715L94.1683 121.769L93.0517 124.772L91.9351 124.922L90.8184 124.772L87.0963 128.526L87.4685 133.18L86.3519 137.384H85.9797L81.8854 135.733L73.3246 138.436L71.4636 138.886L70.347 139.036L69.6025 138.886L65.136 135.733Z" fill="#999999"/>
</g>
<defs>
<clipPath id="clip0_2109_220182">
<rect width="150" height="150" fill="white"/>
</clipPath>
</defs>
</svg>
