<svg width="150" height="150" viewBox="0 0 150 150" fill="none" xmlns="http://www.w3.org/2000/svg">
<g clip-path="url(#clip0_2109_220188)">
<path d="M0 150H0.3003V32.8828H0V150Z" fill="#999999"/>
<path d="M0.300781 150H1.05153V32.8828H0.300781V150Z" fill="#E5E5E5"/>
<path d="M1.05078 150H1.50123V32.8828H1.05078V150Z" fill="#CCCCCC"/>
<path d="M1.50195 150H1.9524V32.8828H1.50195V150Z" fill="#B2B2B2"/>
<path d="M1.95215 150H2.25245V32.8828H1.95215V150Z" fill="#999999"/>
<path d="M2.25195 150H3.15285V32.8828H2.25195V150Z" fill="#4C4C4C"/>
<path d="M0.300781 150H0.751232V32.8828H0.300781V150Z" fill="white"/>
<path d="M0 32.8828H3.15315V150H0V32.8828Z" stroke="black" stroke-width="0.367791"/>
<path d="M0 28.1562V28.6067H150V28.1562H0Z" fill="#999999"/>
<path d="M0 28.6016V29.9529H150V28.6016H0Z" fill="#E5E5E5"/>
<path d="M0 29.9531V30.4036H150V29.9531H0Z" fill="#CCCCCC"/>
<path d="M0 30.4062V31.0819H150V30.4062H0Z" fill="#B2B2B2"/>
<path d="M0 31.0781V31.7538H150V31.0781H0Z" fill="#999999"/>
<path d="M0 31.7578V32.8839H150V31.7578H0Z" fill="#4C4C4C"/>
<path d="M0 28.6016V29.2772H150V28.6016H0Z" fill="white"/>
<path d="M150 28.1562V32.886H0V28.1562H150Z" stroke="black" stroke-width="0.367791"/>
<path d="M0 28.1532H0.3003V0H0V28.1532Z" fill="#E5E5E5"/>
<path d="M0.300781 28.1532H0.751232V0H0.300781V28.1532Z" fill="#CCCCCC"/>
<path d="M0.750977 28.1532H1.05128V0H0.750977V28.1532Z" fill="#B2B2B2"/>
<path d="M1.05078 28.1532H1.50123V0H1.05078V28.1532Z" fill="#4C4C4C"/>
<path d="M0 0H1.5015V28.1532H0V0Z" stroke="black" stroke-width="0.367791"/>
<path d="M6.30664 150.003L87.5379 28.1562L150 121.625" stroke="black" stroke-width="0.367791"/>
<path d="M0 150.003L81.0811 28.1562L150 131.309" stroke="black" stroke-width="0.367791"/>
<path d="M0 140.318L74.7748 28.1562L150 140.318" stroke="black" stroke-width="0.367791"/>
<path d="M0 131.309L68.7688 28.1562L150 150.003" stroke="black" stroke-width="0.367791"/>
<path d="M0 121.625L62.3123 28.1562L143.544 150.003" stroke="black" stroke-width="0.367791"/>
<path d="M0 112.165L56.3063 28.1562L137.538 150.003" stroke="black" stroke-width="0.367791"/>
<path d="M0 103.156L49.8498 28.1562L131.081 150.003" stroke="black" stroke-width="0.367791"/>
<path d="M0 93.4716L43.5435 28.1562L124.775 150.003" stroke="black" stroke-width="0.367791"/>
<path d="M0 84.4626L37.5375 28.1562L118.769 150.003" stroke="black" stroke-width="0.367791"/>
<path d="M0 74.7779L31.0811 28.1562L112.312 150.003" stroke="black" stroke-width="0.367791"/>
<path d="M0 65.3184L24.7748 28.1562L106.306 150.003" stroke="black" stroke-width="0.367791"/>
<path d="M0 56.3094L18.7688 28.1562L100 150.003" stroke="black" stroke-width="0.367791"/>
<path d="M0 46.6247L12.3123 28.1562L93.5435 150.003" stroke="black" stroke-width="0.367791"/>
<path d="M0 37.1653L6.30631 28.1562L87.5375 150.003" stroke="black" stroke-width="0.367791"/>
<path d="M0 28.1562L81.0811 150.003" stroke="black" stroke-width="0.367791"/>
<path d="M0 37.1641L74.7748 150.002" stroke="black" stroke-width="0.367791"/>
<path d="M0 46.625L68.7688 150.003" stroke="black" stroke-width="0.367791"/>
<path d="M0 56.3047L62.3123 149.998" stroke="black" stroke-width="0.367791"/>
<path d="M0 65.3125L56.3063 149.997" stroke="black" stroke-width="0.367791"/>
<path d="M0 74.7734L49.8498 149.999" stroke="black" stroke-width="0.367791"/>
<path d="M0 84.4609L43.5435 150.001" stroke="black" stroke-width="0.367791"/>
<path d="M0 93.4688L37.5375 150" stroke="black" stroke-width="0.367791"/>
<path d="M0 103.156L31.0811 150.003" stroke="black" stroke-width="0.367791"/>
<path d="M0 112.164L24.7748 150.002" stroke="black" stroke-width="0.367791"/>
<path d="M0 121.625L18.7688 150.003" stroke="black" stroke-width="0.367791"/>
<path d="M0 131.305L12.3123 149.998" stroke="black" stroke-width="0.367791"/>
<path d="M0 140.312L6.30631 149.997" stroke="black" stroke-width="0.367791"/>
<path d="M12.3125 150.003L93.5437 28.1562" stroke="black" stroke-width="0.367791"/>
<path d="M18.7686 150.003L99.9998 28.1562" stroke="black" stroke-width="0.367791"/>
<path d="M24.7744 150.003L106.306 28.1562" stroke="black" stroke-width="0.367791"/>
<path d="M31.0811 150.003L112.312 28.1562" stroke="black" stroke-width="0.367791"/>
<path d="M37.5371 150.003L118.768 28.1562" stroke="black" stroke-width="0.367791"/>
<path d="M43.5439 150.003L124.775 28.1562" stroke="black" stroke-width="0.367791"/>
<path d="M49.8496 150.003L131.081 28.1562" stroke="black" stroke-width="0.367791"/>
<path d="M56.3066 150.003L137.538 28.1562" stroke="black" stroke-width="0.367791"/>
<path d="M62.3125 150.003L143.544 28.1562" stroke="black" stroke-width="0.367791"/>
<path d="M68.7686 150.003L150 28.1562" stroke="black" stroke-width="0.367791"/>
<path d="M74.7744 150.002L150 37.1641" stroke="black" stroke-width="0.367791"/>
<path d="M81.0811 150.003L150 46.625" stroke="black" stroke-width="0.367791"/>
<path d="M87.5371 149.998L150 56.3047" stroke="black" stroke-width="0.367791"/>
<path d="M93.5439 149.997L150 65.3125" stroke="black" stroke-width="0.367791"/>
<path d="M100 149.999L150 74.7734" stroke="black" stroke-width="0.367791"/>
<path d="M106.307 150.001L150 84.4609" stroke="black" stroke-width="0.367791"/>
<path d="M112.312 150L150 93.4688" stroke="black" stroke-width="0.367791"/>
<path d="M118.769 150.003L150 103.156" stroke="black" stroke-width="0.367791"/>
<path d="M124.774 150.002L150 112.164" stroke="black" stroke-width="0.367791"/>
<path d="M131.081 150.003L150 121.625" stroke="black" stroke-width="0.367791"/>
<path d="M137.537 149.998L150 131.305" stroke="black" stroke-width="0.367791"/>
<path d="M143.544 149.997L150 140.312" stroke="black" stroke-width="0.367791"/>
<path d="M150 112.165L93.5439 28.1562" stroke="black" stroke-width="0.367791"/>
<path d="M100 28.1562L150 103.156" stroke="black" stroke-width="0.367791"/>
<path d="M150 93.4716L106.307 28.1562" stroke="black" stroke-width="0.367791"/>
<path d="M112.312 28.1562L150 84.4626" stroke="black" stroke-width="0.367791"/>
<path d="M150 74.7779L118.769 28.1562" stroke="black" stroke-width="0.367791"/>
<path d="M124.774 28.1562L150 65.3184" stroke="black" stroke-width="0.367791"/>
<path d="M150 56.3094L131.081 28.1562" stroke="black" stroke-width="0.367791"/>
<path d="M137.537 28.1562L150 46.6247" stroke="black" stroke-width="0.367791"/>
<path d="M150 37.1653L143.544 28.1562" stroke="black" stroke-width="0.367791"/>
<path d="M6.30664 28.1494V25.6719" stroke="black" stroke-width="0.367791"/>
<path d="M12.3125 28.1494V25.6719" stroke="black" stroke-width="0.367791"/>
<path d="M18.7686 28.1494V25.6719" stroke="black" stroke-width="0.367791"/>
<path d="M24.7744 28.1494V25.6719" stroke="black" stroke-width="0.367791"/>
<path d="M31.0811 28.1494V25.6719" stroke="black" stroke-width="0.367791"/>
<path d="M37.0869 28.1494V25.6719" stroke="black" stroke-width="0.367791"/>
<path d="M43.5439 28.1494V25.6719" stroke="black" stroke-width="0.367791"/>
<path d="M49.8496 28.1494V25.6719" stroke="black" stroke-width="0.367791"/>
<path d="M55.8555 28.1494V25.6719" stroke="black" stroke-width="0.367791"/>
<path d="M62.3125 28.1494V25.6719" stroke="black" stroke-width="0.367791"/>
<path d="M68.7686 28.1494V25.6719" stroke="black" stroke-width="0.367791"/>
<path d="M74.7744 28.1494V25.6719" stroke="black" stroke-width="0.367791"/>
<path d="M81.0811 28.1494V25.6719" stroke="black" stroke-width="0.367791"/>
<path d="M87.0869 28.1494V25.6719" stroke="black" stroke-width="0.367791"/>
<path d="M93.5439 28.1494V25.6719" stroke="black" stroke-width="0.367791"/>
<path d="M100 28.1494V25.6719" stroke="black" stroke-width="0.367791"/>
<path d="M105.855 28.1494V25.6719" stroke="black" stroke-width="0.367791"/>
<path d="M112.312 28.1494V25.6719" stroke="black" stroke-width="0.367791"/>
<path d="M118.769 28.1494V25.6719" stroke="black" stroke-width="0.367791"/>
<path d="M124.774 28.1494V25.6719" stroke="black" stroke-width="0.367791"/>
<path d="M131.081 28.1494V25.6719" stroke="black" stroke-width="0.367791"/>
<path d="M137.087 28.1494V25.6719" stroke="black" stroke-width="0.367791"/>
<path d="M143.544 28.1494V25.6719" stroke="black" stroke-width="0.367791"/>
<path d="M150 28.1494V25.6719" stroke="black" stroke-width="0.367791"/>
<path d="M1.50195 4.05469L6.00646 5.18081L10.9614 5.40604L12.3128 4.73036L17.1176 4.50514H21.6221L26.1266 5.85649L31.3818 6.53216H36.3368L41.1416 6.30694L45.9464 5.85649L51.0515 5.40604L56.4569 5.63126L60.8113 6.30694L62.3128 6.75739L63.9644 7.20784L65.1656 6.98262L69.9704 6.75739L74.7752 6.53216H81.9824H87.0875L92.1926 6.75739H97.598L103.304 6.53216H107.808H123.574L128.379 6.75739L133.334 6.08171L134.685 5.85649L150 4.05469" stroke="black" stroke-width="0.367791"/>
<path d="M1.50195 13.0625L6.00646 14.1886L10.9614 14.4139L12.3128 13.7382L17.1176 13.513H21.6221L26.1266 15.0895L31.3818 15.7652L36.3368 15.9904L41.1416 15.54L45.9464 14.8643L51.0515 14.6391H56.4569L60.8113 15.3148L62.3128 15.7652L63.9644 15.9904H65.1656L70.2707 15.54L75.3758 15.0895H80.0305L85.4359 14.8643H90.9914H95.6461L100.901 15.0895L106.006 15.54L111.562 15.7652L116.817 15.9904L121.772 15.7652L126.277 15.3148L131.232 15.0895L134.685 14.8643L150 13.0625" stroke="black" stroke-width="0.367791"/>
<path d="M150 20.9453L145.346 22.2967L140.691 21.3958L135.886 21.1705L131.382 21.3958L126.877 22.7471L121.622 23.648H116.667L111.862 23.1976L107.058 22.7471L102.103 22.2967L96.6971 22.5219L92.1926 23.1976L90.6911 23.4228L89.1896 23.8732H87.9884L83.1836 23.4228H78.3788H73.4239H68.4689L63.3638 23.648H57.9584L52.4029 23.8732H47.4479L42.6431 23.4228H37.538L32.583 23.648L28.0785 23.8732L22.9734 23.4228L18.3188 23.1976L1.50195 20.9453" stroke="black" stroke-width="0.367791"/>
<path d="M13.5137 5.85248L13.9641 3.375" stroke="black" stroke-width="0.367791"/>
<path d="M13.9641 5.85248L13.5137 3.375" stroke="black" stroke-width="0.367791"/>
<path d="M13.5137 4.05469H13.814L13.9641 4.27991V4.73036H13.814H13.5137V4.27991V4.05469Z" stroke="black" stroke-width="0.367791"/>
<path d="M25.0752 7.20404L25.5256 4.72656" stroke="black" stroke-width="0.367791"/>
<path d="M25.5256 7.20404L25.0752 4.72656" stroke="black" stroke-width="0.367791"/>
<path d="M25.5256 5.17969V5.40491V5.63014V5.85536H25.2253H25.0752V5.63014L25.2253 5.40491V5.17969H25.5256Z" stroke="black" stroke-width="0.367791"/>
<path d="M38.2881 7.65716L39.189 5.17969" stroke="black" stroke-width="0.367791"/>
<path d="M39.189 7.65716L38.2881 5.17969" stroke="black" stroke-width="0.367791"/>
<path d="M38.7385 5.85938V6.0846V6.53505H38.4382H38.2881V6.0846H38.4382V5.85938H38.7385Z" stroke="black" stroke-width="0.367791"/>
<path d="M50.3008 7.20404L50.7512 4.72656" stroke="black" stroke-width="0.367791"/>
<path d="M50.7512 7.20404L50.3008 4.72656" stroke="black" stroke-width="0.367791"/>
<path d="M50.3008 5.17969H50.6011V5.40491L50.7512 5.63014V5.85536H50.6011H50.3008V5.63014V5.40491V5.17969Z" stroke="black" stroke-width="0.367791"/>
<path d="M62.7627 8.33685L63.063 5.85938" stroke="black" stroke-width="0.367791"/>
<path d="M63.063 8.33685L62.7627 5.85938" stroke="black" stroke-width="0.367791"/>
<path d="M62.7627 6.53125H62.9128H63.063V6.75648V7.20693H62.9128H62.7627V6.75648V6.53125Z" stroke="black" stroke-width="0.367791"/>
<path d="M75.0752 7.65716L75.5256 5.17969" stroke="black" stroke-width="0.367791"/>
<path d="M75.5256 7.65716L75.0752 5.17969" stroke="black" stroke-width="0.367791"/>
<path d="M75.2253 7.21073C75.3083 7.21073 75.3755 6.90822 75.3755 6.53505C75.3755 6.16189 75.3083 5.85938 75.2253 5.85938C75.1424 5.85938 75.0752 6.16189 75.0752 6.53505C75.0752 6.90822 75.1424 7.21073 75.2253 7.21073Z" stroke="black" stroke-width="0.367791"/>
<path d="M87.5371 7.65716L88.2879 5.17969" stroke="black" stroke-width="0.367791"/>
<path d="M88.2879 7.65716L87.5371 5.17969" stroke="black" stroke-width="0.367791"/>
<path d="M87.8374 6.53371C88.0033 6.53371 88.1377 6.33204 88.1377 6.08326C88.1377 5.83449 88.0033 5.63281 87.8374 5.63281C87.6716 5.63281 87.5371 5.83449 87.5371 6.08326C87.5371 6.33204 87.6716 6.53371 87.8374 6.53371Z" stroke="black" stroke-width="0.367791"/>
<path d="M100.301 7.65716L100.751 5.17969" stroke="black" stroke-width="0.367791"/>
<path d="M100.751 7.65716L100.301 5.17969" stroke="black" stroke-width="0.367791"/>
<path d="M100.751 5.85938V6.0846V6.53505H100.451H100.301V6.0846L100.451 5.85938H100.751Z" stroke="black" stroke-width="0.367791"/>
<path d="M112.763 7.20671L113.063 5.17969" stroke="black" stroke-width="0.367791"/>
<path d="M113.063 7.20671L112.763 5.17969" stroke="black" stroke-width="0.367791"/>
<path d="M112.763 5.85938H112.913H113.063V6.30983L112.913 6.53505H112.763V6.30983V5.85938Z" stroke="black" stroke-width="0.367791"/>
<path d="M125.075 8.33685L125.526 5.85938" stroke="black" stroke-width="0.367791"/>
<path d="M125.526 8.33685L125.075 5.85938" stroke="black" stroke-width="0.367791"/>
<path d="M125.526 6.53125V6.75648V7.20693H125.225H125.075V6.75648L125.225 6.53125H125.526Z" stroke="black" stroke-width="0.367791"/>
<path d="M138.288 7.20404L139.189 4.72656" stroke="black" stroke-width="0.367791"/>
<path d="M139.189 7.20404L138.288 4.72656" stroke="black" stroke-width="0.367791"/>
<path d="M138.739 5.17969V5.40491V5.63014V5.85536H138.438H138.288V5.63014L138.438 5.40491V5.17969H138.739Z" stroke="black" stroke-width="0.367791"/>
<path d="M138.739 14.1875V14.4127V14.638V14.8632H138.438H138.288V14.638L138.438 14.4127V14.1875H138.739Z" stroke="black" stroke-width="0.367791"/>
<path d="M139.189 15.9944L138.288 13.7422" stroke="black" stroke-width="0.367791"/>
<path d="M138.288 15.9944L139.189 13.7422" stroke="black" stroke-width="0.367791"/>
<path d="M125.526 15.992C125.774 15.992 125.976 15.6895 125.976 15.3163C125.976 14.9431 125.774 14.6406 125.526 14.6406C125.277 14.6406 125.075 14.9431 125.075 15.3163C125.075 15.6895 125.277 15.992 125.526 15.992Z" stroke="black" stroke-width="0.367791"/>
<path d="M125.976 16.665L125.075 14.1875" stroke="black" stroke-width="0.367791"/>
<path d="M125.075 16.665L125.976 14.1875" stroke="black" stroke-width="0.367791"/>
<path d="M112.763 15.5391H112.913H113.063V15.7643V15.9895H112.913H112.763V15.7643V15.5391Z" stroke="black" stroke-width="0.367791"/>
<path d="M113.063 17.3447L112.763 14.8672" stroke="black" stroke-width="0.367791"/>
<path d="M112.763 17.3447L113.063 14.8672" stroke="black" stroke-width="0.367791"/>
<path d="M100.3 15.5415C100.466 15.5415 100.601 15.3399 100.601 15.0911C100.601 14.8423 100.466 14.6406 100.3 14.6406C100.134 14.6406 100 14.8423 100 15.0911C100 15.3399 100.134 15.5415 100.3 15.5415Z" stroke="black" stroke-width="0.367791"/>
<path d="M100.751 15.9944L100 13.7422" stroke="black" stroke-width="0.367791"/>
<path d="M100 15.9944L100.751 13.7422" stroke="black" stroke-width="0.367791"/>
<path d="M87.9883 14.8672H88.1384H88.2886V15.3176L88.1384 15.5429H87.9883V15.3176V14.8672Z" stroke="black" stroke-width="0.367791"/>
<path d="M88.2886 15.9944L87.9883 13.7422" stroke="black" stroke-width="0.367791"/>
<path d="M87.9883 15.9944L88.2886 13.7422" stroke="black" stroke-width="0.367791"/>
<path d="M75.0752 14.8672H75.3755H75.5256V15.3176L75.3755 15.5429H75.0752V15.3176V14.8672Z" stroke="black" stroke-width="0.367791"/>
<path d="M75.5256 15.9944L75.0752 13.7422" stroke="black" stroke-width="0.367791"/>
<path d="M75.0752 15.9944L75.5256 13.7422" stroke="black" stroke-width="0.367791"/>
<path d="M62.7627 15.5391H62.9128H63.063V15.7643V15.9895H62.9128H62.7627V15.7643V15.5391Z" stroke="black" stroke-width="0.367791"/>
<path d="M63.063 17.3447L62.7627 14.8672" stroke="black" stroke-width="0.367791"/>
<path d="M62.7627 17.3447L63.063 14.8672" stroke="black" stroke-width="0.367791"/>
<path d="M50.3008 14.1875H50.6011H50.7512V14.638L50.6011 14.8632H50.3008V14.638V14.1875Z" stroke="black" stroke-width="0.367791"/>
<path d="M50.7512 15.54L50.3008 13.0625" stroke="black" stroke-width="0.367791"/>
<path d="M50.3008 15.54L50.7512 13.0625" stroke="black" stroke-width="0.367791"/>
<path d="M38.7385 14.8672V15.0924V15.5429H38.4382H38.2881V15.0924L38.4382 14.8672H38.7385Z" stroke="black" stroke-width="0.367791"/>
<path d="M39.189 16.665L38.2881 14.1875" stroke="black" stroke-width="0.367791"/>
<path d="M38.2881 16.665L39.189 14.1875" stroke="black" stroke-width="0.367791"/>
<path d="M25.5256 14.1875V14.4127V14.638V14.8632H25.2253H25.0752V14.638L25.2253 14.4127V14.1875H25.5256Z" stroke="black" stroke-width="0.367791"/>
<path d="M25.5256 15.9944L25.0752 13.7422" stroke="black" stroke-width="0.367791"/>
<path d="M25.0752 15.9944L25.5256 13.7422" stroke="black" stroke-width="0.367791"/>
<path d="M13.5137 13.0625H13.814L13.9641 13.2877V13.7382H13.814H13.5137V13.2877V13.0625Z" stroke="black" stroke-width="0.367791"/>
<path d="M13.9641 14.8616L13.5137 12.6094" stroke="black" stroke-width="0.367791"/>
<path d="M13.5137 14.8616L13.9641 12.6094" stroke="black" stroke-width="0.367791"/>
<path d="M139.49 22.7509L139.189 20.2734" stroke="black" stroke-width="0.367791"/>
<path d="M139.189 22.7509L139.49 20.2734" stroke="black" stroke-width="0.367791"/>
<path d="M139.34 21.6223C139.423 21.6223 139.49 21.5215 139.49 21.3971C139.49 21.2727 139.423 21.1719 139.34 21.1719C139.257 21.1719 139.189 21.2727 139.189 21.3971C139.189 21.5215 139.257 21.6223 139.34 21.6223Z" stroke="black" stroke-width="0.367791"/>
<path d="M127.928 23.8759L127.177 21.3984" stroke="black" stroke-width="0.367791"/>
<path d="M127.177 23.8759L127.928 21.3984" stroke="black" stroke-width="0.367791"/>
<path d="M127.628 22.7473C127.711 22.7473 127.778 22.6465 127.778 22.5221C127.778 22.3977 127.711 22.2969 127.628 22.2969C127.545 22.2969 127.478 22.3977 127.478 22.5221C127.478 22.6465 127.545 22.7473 127.628 22.7473Z" stroke="black" stroke-width="0.367791"/>
<path d="M114.715 24.5478L113.964 22.0703" stroke="black" stroke-width="0.367791"/>
<path d="M113.964 24.5478L114.715 22.0703" stroke="black" stroke-width="0.367791"/>
<path d="M114.264 23.6509C114.43 23.6509 114.564 23.4492 114.564 23.2005C114.564 22.9517 114.43 22.75 114.264 22.75C114.098 22.75 113.964 22.9517 113.964 23.2005C113.964 23.4492 114.098 23.6509 114.264 23.6509Z" stroke="black" stroke-width="0.367791"/>
<path d="M102.702 23.8759L102.252 21.3984" stroke="black" stroke-width="0.367791"/>
<path d="M102.252 23.8759L102.702 21.3984" stroke="black" stroke-width="0.367791"/>
<path d="M102.402 22.7473C102.485 22.7473 102.552 22.6465 102.552 22.5221C102.552 22.3977 102.485 22.2969 102.402 22.2969C102.319 22.2969 102.252 22.3977 102.252 22.5221C102.252 22.6465 102.319 22.7473 102.402 22.7473Z" stroke="black" stroke-width="0.367791"/>
<path d="M90.3899 25.0023L89.9395 22.75" stroke="black" stroke-width="0.367791"/>
<path d="M89.9395 25.0023L90.3899 22.75" stroke="black" stroke-width="0.367791"/>
<path d="M90.0896 24.5467C90.1725 24.5467 90.2398 24.2442 90.2398 23.871C90.2398 23.4978 90.1725 23.1953 90.0896 23.1953C90.0067 23.1953 89.9395 23.4978 89.9395 23.871C89.9395 24.2442 90.0067 24.5467 90.0896 24.5467Z" stroke="black" stroke-width="0.367791"/>
<path d="M77.9275 24.5478L77.1768 22.0703" stroke="black" stroke-width="0.367791"/>
<path d="M77.1768 24.5478L77.9275 22.0703" stroke="black" stroke-width="0.367791"/>
<path d="M77.4775 23.1953V23.6458V23.871H77.7778H77.928V23.6458V23.1953H77.7778H77.4775Z" stroke="black" stroke-width="0.367791"/>
<path d="M65.4656 24.5478L64.7148 22.0703" stroke="black" stroke-width="0.367791"/>
<path d="M64.7148 24.5478L65.4656 22.0703" stroke="black" stroke-width="0.367791"/>
<path d="M65.0151 23.6509C65.181 23.6509 65.3154 23.4492 65.3154 23.2005C65.3154 22.9517 65.181 22.75 65.0151 22.75C64.8493 22.75 64.7148 22.9517 64.7148 23.2005C64.7148 23.4492 64.8493 23.6509 65.0151 23.6509Z" stroke="black" stroke-width="0.367791"/>
<path d="M52.7024 24.5478L52.252 22.0703" stroke="black" stroke-width="0.367791"/>
<path d="M52.252 24.5478L52.7024 22.0703" stroke="black" stroke-width="0.367791"/>
<path d="M52.4021 23.427C52.485 23.427 52.5523 23.3262 52.5523 23.2018C52.5523 23.0774 52.485 22.9766 52.4021 22.9766C52.3192 22.9766 52.252 23.0774 52.252 23.2018C52.252 23.3262 52.3192 23.427 52.4021 23.427Z" stroke="black" stroke-width="0.367791"/>
<path d="M40.3899 24.5478L39.9395 22.0703" stroke="black" stroke-width="0.367791"/>
<path d="M39.9395 24.5478L40.3899 22.0703" stroke="black" stroke-width="0.367791"/>
<path d="M40.0896 23.427C40.1725 23.427 40.2398 23.3262 40.2398 23.2018C40.2398 23.0774 40.1725 22.9766 40.0896 22.9766C40.0067 22.9766 39.9395 23.0774 39.9395 23.2018C39.9395 23.3262 40.0067 23.427 40.0896 23.427Z" stroke="black" stroke-width="0.367791"/>
<path d="M27.9275 25.0023L27.1768 22.75" stroke="black" stroke-width="0.367791"/>
<path d="M27.1768 25.0023L27.9275 22.75" stroke="black" stroke-width="0.367791"/>
<path d="M27.6277 24.5467C27.7106 24.5467 27.7778 24.2442 27.7778 23.871C27.7778 23.4978 27.7106 23.1953 27.6277 23.1953C27.5448 23.1953 27.4775 23.4978 27.4775 23.871C27.4775 24.2442 27.5448 24.5467 27.6277 24.5467Z" stroke="black" stroke-width="0.367791"/>
<path d="M14.7146 23.8759L13.9639 21.3984" stroke="black" stroke-width="0.367791"/>
<path d="M13.9639 23.8759L14.7146 21.3984" stroke="black" stroke-width="0.367791"/>
<path d="M14.2642 22.9712C14.43 22.9712 14.5645 22.7695 14.5645 22.5208C14.5645 22.272 14.43 22.0703 14.2642 22.0703C14.0983 22.0703 13.9639 22.272 13.9639 22.5208C13.9639 22.7695 14.0983 22.9712 14.2642 22.9712Z" stroke="black" stroke-width="0.367791"/>
</g>
<defs>
<clipPath id="clip0_2109_220188">
<rect width="150" height="150" fill="white"/>
</clipPath>
</defs>
</svg>
