<svg width="150" height="150" viewBox="0 0 150 150" fill="none" xmlns="http://www.w3.org/2000/svg">
<g clip-path="url(#clip0_2109_218426)">
<path d="M62.0117 18.1406H94.294" stroke="black" stroke-width="0.311913"/>
<path d="M43.5435 49.406L45.7958 46.9762L2.25225 0L0 2.42981L43.5435 49.406Z" stroke="black" stroke-width="0.311913"/>
<path d="M43.5437 49.4033L34.835 35.1484" stroke="black" stroke-width="0.311913"/>
<path d="M45.7962 46.9734L32.583 37.5781" stroke="black" stroke-width="0.311913"/>
<path d="M32.583 37.5772L24.0244 23.4844" stroke="black" stroke-width="0.311913"/>
<path d="M34.8345 35.1473L21.7715 25.9141" stroke="black" stroke-width="0.311913"/>
<path d="M21.7722 25.9189L13.0635 11.6641" stroke="black" stroke-width="0.311913"/>
<path d="M24.0238 23.489L10.8105 14.0938" stroke="black" stroke-width="0.311913"/>
<path d="M10.8105 14.0929L2.25195 0" stroke="black" stroke-width="0.311913"/>
<path d="M13.0631 11.6629L0 2.42969" stroke="black" stroke-width="0.311913"/>
<path d="M10.8105 14.0939L13.0628 11.6641" stroke="black" stroke-width="0.311913"/>
<path d="M24.0237 23.4844L21.7715 25.9142" stroke="black" stroke-width="0.311913"/>
<path d="M32.583 37.5782L34.8353 35.1484" stroke="black" stroke-width="0.311913"/>
<path d="M40.5403 41.3047L38.2881 43.7345" stroke="black" stroke-width="0.311913"/>
<path d="M29.5794 29.4844L27.3271 31.9142" stroke="black" stroke-width="0.311913"/>
<path d="M18.3184 17.8203L16.5166 19.7642" stroke="black" stroke-width="0.311913"/>
<path d="M7.50762 5.99219L5.55566 8.09802" stroke="black" stroke-width="0.311913"/>
<path d="M137.538 93.1396H32.2827V79.8567H29.2797V73.3772H1.50195V63.172H26.2767V59.9323H16.8173V53.4528H29.2797V43.2476L35.586 40.0079V29.9647H51.0515V23.4852H48.0485V16.5198H51.0515V6.47656H57.0575V16.5198L60.0605 19.7595H72.523V16.5198H84.8353V19.7595H94.2947V13.28H146.847V40.0079H150V46.4874H146.847V56.6925H150V63.172H146.847V73.3772H150V79.8567H146.847V89.8999H137.538V93.1396Z" fill="#4C4C4C" stroke="black" stroke-width="0.311913"/>
<path d="M54.0542 10.0432C59.2785 10.0432 63.5136 7.79495 63.5136 5.0216C63.5136 2.24825 59.2785 0 54.0542 0C48.8299 0 44.5947 2.24825 44.5947 5.0216C44.5947 7.79495 48.8299 10.0432 54.0542 10.0432Z" fill="#4C4C4C" stroke="black" stroke-width="0.311913"/>
<path d="M131.531 149.998H137.537V93.1406H131.531V149.998Z" fill="black" stroke="black" stroke-width="0.311913"/>
<path d="M112.763 149.998H119.069V93.1406H112.763V149.998Z" fill="black" stroke="black" stroke-width="0.311913"/>
<path d="M94.2939 149.998H100.3V93.1406H94.2939V149.998Z" fill="black" stroke="black" stroke-width="0.311913"/>
<path d="M75.8262 149.998H81.8322V93.1406H75.8262V149.998Z" fill="black" stroke="black" stroke-width="0.311913"/>
<path d="M57.0566 149.998H63.5131V93.1406H57.0566V149.998Z" fill="black" stroke="black" stroke-width="0.311913"/>
<path d="M38.5889 149.998H44.5949V93.1406H38.5889V149.998Z" fill="black" stroke="black" stroke-width="0.311913"/>
<path d="M134.535 89.9014V83.4219H38.5889V89.9014H134.535Z" fill="black" stroke="black" stroke-width="0.311913"/>
<path d="M60.0605 73.3804V70.1406H1.50195V73.3804H60.0605Z" fill="black" stroke="black" stroke-width="0.311913"/>
<path d="M60.06 70.1402H32.2822V56.6953H60.06V70.1402Z" fill="#666666" stroke="black" stroke-width="0.311913"/>
<path d="M150 63.1748H87.8379V56.6953H150V63.1748Z" fill="#666666" stroke="black" stroke-width="0.311913"/>
<path d="M146.847 70.1373V63.1719H87.8379V70.1373H146.847Z" fill="black" stroke="black" stroke-width="0.311913"/>
<path d="M150 46.4873H87.8379V40.0078H150V46.4873Z" fill="#666666" stroke="black" stroke-width="0.311913"/>
<path d="M146.847 53.4576V46.4922H87.8379V53.4576H146.847Z" fill="black" stroke="black" stroke-width="0.311913"/>
<path d="M134.535 123.271V120.031H41.5918V123.271H134.535Z" fill="black" stroke="black" stroke-width="0.311913"/>
<path d="M44.5947 146.76L57.0572 126.836" stroke="black" stroke-width="0.311913"/>
<path d="M44.5947 126.836L57.0572 146.76" stroke="black" stroke-width="0.311913"/>
<path d="M44.5947 116.792L57.0572 96.8672" stroke="black" stroke-width="0.311913"/>
<path d="M44.5947 96.8672L57.0572 116.792" stroke="black" stroke-width="0.311913"/>
<path d="M63.5137 146.76L75.826 126.836" stroke="black" stroke-width="0.311913"/>
<path d="M63.5137 126.836L75.826 146.76" stroke="black" stroke-width="0.311913"/>
<path d="M63.5137 116.792L75.826 96.8672" stroke="black" stroke-width="0.311913"/>
<path d="M63.5137 96.8672L75.826 116.792" stroke="black" stroke-width="0.311913"/>
<path d="M81.832 146.76L94.2945 126.836" stroke="black" stroke-width="0.311913"/>
<path d="M81.832 126.836L94.2945 146.76" stroke="black" stroke-width="0.311913"/>
<path d="M81.832 116.792L94.2945 96.8672" stroke="black" stroke-width="0.311913"/>
<path d="M81.832 96.8672L94.2945 116.792" stroke="black" stroke-width="0.311913"/>
<path d="M100.301 146.76L112.763 126.836" stroke="black" stroke-width="0.311913"/>
<path d="M100.301 126.836L112.763 146.76" stroke="black" stroke-width="0.311913"/>
<path d="M100.301 116.792L112.763 96.8672" stroke="black" stroke-width="0.311913"/>
<path d="M100.301 96.8672L112.763 116.792" stroke="black" stroke-width="0.311913"/>
<path d="M119.069 146.76L131.532 126.836" stroke="black" stroke-width="0.311913"/>
<path d="M119.069 126.836L131.532 146.76" stroke="black" stroke-width="0.311913"/>
<path d="M119.069 116.792L131.532 96.8672" stroke="black" stroke-width="0.311913"/>
<path d="M119.069 96.8672L131.532 116.792" stroke="black" stroke-width="0.311913"/>
<path d="M65.0152 29.9688L66.2164 30.7787L66.5167 31.5886L65.7659 32.8845L65.0152 33.2085L63.814 32.3986L63.5137 31.5886L64.1143 30.2927L65.0152 29.9688Z" fill="#E5E5E5" stroke="black" stroke-width="0.311913"/>
<path d="M80.3306 29.9688L81.5318 30.7787L81.8321 31.5886L81.2315 32.8845L80.3306 33.2085L79.1294 32.3986L78.8291 31.5886L79.5799 30.2927L80.3306 29.9688Z" fill="#E5E5E5" stroke="black" stroke-width="0.311913"/>
<path d="M65.0152 43.25L66.2164 44.0599L66.5167 44.8699L65.7659 46.3278L65.0152 46.4897L63.814 45.8418L63.5137 44.8699L64.1143 43.574L65.0152 43.25Z" fill="#E5E5E5" stroke="black" stroke-width="0.311913"/>
<path d="M46.0962 43.25L47.4476 44.0599L47.7479 44.8699L47.2974 46.0038L46.0962 46.4897L44.895 45.8418L44.5947 44.8699L45.3455 43.574L46.0962 43.25Z" fill="#E5E5E5" stroke="black" stroke-width="0.311913"/>
<path d="M142.043 33.2109L143.394 33.6969L143.844 34.8308L143.694 35.8027L142.043 36.4507L140.841 35.8027L140.541 34.8308L141.142 33.5349L142.043 33.2109Z" fill="#E5E5E5" stroke="black" stroke-width="0.311913"/>
<path d="M117.568 33.2109L118.769 34.0209L119.069 34.8308L118.319 36.2887L117.568 36.4507L116.217 35.8027L116.066 35.1548L116.367 33.6969L117.568 33.2109Z" fill="#E5E5E5" stroke="black" stroke-width="0.311913"/>
<path d="M46.0962 63.1719L47.2974 63.6578L47.7479 64.7917L47.2974 66.2496L47.1473 66.5736L46.0962 66.8976L44.895 65.9257L44.5947 64.7917L45.3455 63.4958L46.0962 63.1719Z" fill="#E5E5E5" stroke="black" stroke-width="0.311913"/>
<path d="M119.069 6.47656H122.072V13.28H119.069V6.47656Z" fill="black" stroke="black" stroke-width="0.311913"/>
<path d="M35.5859 28.3516H51.0514" stroke="black" stroke-width="0.311913"/>
<path d="M71.0215 14.9062H86.3368" stroke="black" stroke-width="0.311913"/>
<path d="M92.793 11.6641H119.069" stroke="black" stroke-width="0.311913"/>
<path d="M142.042 11.6641H148.348" stroke="black" stroke-width="0.311913"/>
<path d="M150 38.5547H87.8379" stroke="black" stroke-width="0.311913"/>
<path d="M150 55.0781H87.8379" stroke="black" stroke-width="0.311913"/>
<path d="M32.2823 68.5234H0" stroke="black" stroke-width="0.311913"/>
<path d="M15.3154 51.8359H29.2794" stroke="black" stroke-width="0.311913"/>
</g>
<defs>
<clipPath id="clip0_2109_218426">
<rect width="150" height="150" fill="white"/>
</clipPath>
</defs>
</svg>
