<svg width="150" height="150" viewBox="0 0 150 150" fill="none" xmlns="http://www.w3.org/2000/svg">
<path d="M0.600586 148.305L40.5405 90.2734H149.249L116.517 148.305H0.600586Z" fill="#A6B5A6" stroke="black" stroke-width="0.451468"/>
<path d="M34.835 103.168V44.7969H51.9521V103.168H34.835Z" fill="#E5E5E5" stroke="black" stroke-width="0.451468"/>
<path d="M51.9521 45.1374L56.3065 40.0469V98.4179L51.9521 103.169V45.1374Z" fill="#B2B2B2" stroke="black" stroke-width="0.451468"/>
<path d="M51.9521 45.1374L56.3064 40.0469H39.1893L34.835 45.1374H51.9521Z" fill="#F7F7F7" stroke="black" stroke-width="0.451468"/>
<path d="M35.8857 52.2656H37.9878V59.7317H35.8857V52.2656Z" fill="#4C4C4C"/>
<path d="M39.1895 52.2656H41.2916V59.7317H39.1895V52.2656Z" fill="#4C4C4C"/>
<path d="M42.3428 52.2656H44.4449V59.7317H42.3428V52.2656Z" fill="#4C4C4C"/>
<path d="M45.6455 52.2656H47.7476V59.7317H45.6455V52.2656Z" fill="#4C4C4C"/>
<path d="M48.7988 52.2656H50.9009V59.7317H48.7988V52.2656Z" fill="#4C4C4C"/>
<path d="M35.8857 64.4766H37.9878V71.6033H35.8857V64.4766Z" fill="#4C4C4C"/>
<path d="M39.1895 64.4766H41.2916V71.6033H39.1895V64.4766Z" fill="#4C4C4C"/>
<path d="M42.3428 64.4766H44.4449V71.6033H42.3428V64.4766Z" fill="#4C4C4C"/>
<path d="M45.6455 64.4766H47.7476V71.6033H45.6455V64.4766Z" fill="#4C4C4C"/>
<path d="M48.7988 64.4766H50.9009V71.6033H48.7988V64.4766Z" fill="#4C4C4C"/>
<path d="M35.8857 76.3594H37.9878V83.8254H35.8857V76.3594Z" fill="#4C4C4C"/>
<path d="M39.1895 76.3594H41.2916V83.8254H39.1895V76.3594Z" fill="#4C4C4C"/>
<path d="M42.3428 76.3594H44.4449V83.8254H42.3428V76.3594Z" fill="#4C4C4C"/>
<path d="M45.6455 76.3594H47.7476V83.8254H45.6455V76.3594Z" fill="#4C4C4C"/>
<path d="M48.7988 76.3594H50.9009V83.8254H48.7988V76.3594Z" fill="#4C4C4C"/>
<path d="M35.8857 88.5781H37.9878V96.0442H35.8857V88.5781Z" fill="#4C4C4C"/>
<path d="M39.1895 88.5781H41.2916V96.0442H39.1895V88.5781Z" fill="#4C4C4C"/>
<path d="M42.3428 88.5781H44.4449V96.0442H42.3428V88.5781Z" fill="#4C4C4C"/>
<path d="M45.6455 88.5781H47.7476V96.0442H45.6455V88.5781Z" fill="#4C4C4C"/>
<path d="M48.7988 88.5781H50.9009V96.0442H48.7988V88.5781Z" fill="#4C4C4C"/>
<path d="M46.6963 117.763V73.9845H76.5762L76.7263 54.6406H93.8434V117.763H46.6963Z" fill="#E5E5E5" stroke="black" stroke-width="0.451468"/>
<path d="M93.8438 54.6418L97.1471 49.8906V113.013L93.8438 117.764V54.6418Z" fill="#B2B2B2" stroke="black" stroke-width="0.451468"/>
<path d="M76.7263 73.9855V69.2344H50.9005L46.6963 73.9855H76.7263Z" fill="#F7F7F7" stroke="black" stroke-width="0.451468"/>
<path d="M46.6963 86.1976V76.6953H93.8434V86.1976H46.6963Z" fill="#BFD3F2" stroke="black" stroke-width="0.451468"/>
<path d="M97.1471 81.451V71.6094L93.8438 76.6999V86.2021L97.1471 81.451Z" fill="#8CA0BF" stroke="black" stroke-width="0.451468"/>
<path d="M46.6963 86.1953H93.8434" stroke="white" stroke-width="0.451468"/>
<path d="M93.8438 86.1964L96.9969 81.4453" stroke="#E5E5E5" stroke-width="0.451468"/>
<path d="M93.8437 54.6418L97.147 49.8906H80.9308L76.7266 54.6418H93.8437Z" fill="#F7F7F7" stroke="black" stroke-width="0.451468"/>
<path d="M76.7266 73.9855H93.8437L97.147 69.2344" stroke="black" stroke-width="0.451468"/>
<path d="M48.7988 87.5547H51.952V90.9484H48.7988V87.5547Z" fill="black"/>
<path d="M55.2549 70.9297H58.7083V72.2872H55.2549V70.9297Z" fill="black"/>
<path d="M56.7564 71.6042L63.2128 53.6178V51.2422L55.8555 71.6042H56.7564Z" fill="#4C4C4C"/>
<path d="M57.9575 71.6042L64.414 53.6178V51.2422L57.0566 71.6042H57.9575Z" fill="#4C4C4C"/>
<path d="M39.0391 121.497L49.8499 90.9537V88.5781L39.0391 119.121V121.497Z" fill="#4C4C4C"/>
<path d="M40.2402 121.497L50.9009 90.9537V88.5781L40.2402 119.121V121.497Z" fill="#4C4C4C"/>
<path d="M43.3936 127.6V98.4141H64.865V127.6H43.3936Z" fill="#E5E5E5" stroke="black" stroke-width="0.451468"/>
<path d="M64.8652 98.4186L69.2196 93.3281V122.514L64.8652 127.604V98.4186Z" fill="#B2B2B2" stroke="black" stroke-width="0.451468"/>
<path d="M64.865 98.4186L69.2194 93.3281H47.7479L43.3936 98.4186H64.865Z" fill="#F7F7F7" stroke="black" stroke-width="0.451468"/>
<path d="M43.9941 117.758H64.4146V122.509H43.9941V117.758Z" fill="#CCCCCC"/>
<path d="M43.9941 103.164H64.4146V107.915H43.9941V103.164Z" fill="#CCCCCC"/>
<path d="M105.556 106.558V86.875L135.736 87.2144V106.558H105.556Z" fill="#E5E5E5" stroke="black" stroke-width="0.451468"/>
<path d="M135.586 87.2174L137.838 83.4844H109.91L105.556 87.2174H135.586Z" fill="#F7F7F7" stroke="black" stroke-width="0.451468"/>
<path d="M135.586 87.2174L137.838 83.4844V102.828L135.586 106.561V87.2174Z" fill="#B2B2B2" stroke="black" stroke-width="0.451468"/>
<path d="M106.156 99.0938H135.135V102.827H106.156V99.0938Z" fill="#CCCCCC"/>
<path d="M106.156 90.6094H135.135V94.3424H106.156V90.6094Z" fill="#CCCCCC"/>
<path d="M38.5889 123.867V127.6H39.1895V123.867H38.5889Z" fill="#7F7F7F"/>
<path d="M40.2402 123.867V127.6H40.6907V123.867H40.2402Z" fill="#7F7F7F"/>
<path d="M38.5889 123.866H40.691L54.2045 128.956V125.223L40.691 120.133H38.5889V123.866Z" fill="#E5E5CC" stroke="black" stroke-width="0.451468"/>
<path d="M40.6904 120.133V123.866" stroke="black" stroke-width="0.451468"/>
<path d="M38.5889 120.139H40.691L54.2045 125.569L55.2555 124.55L41.742 118.781H39.6399L38.5889 120.139Z" fill="#F2F2E5" stroke="black" stroke-width="0.451468"/>
<path d="M54.0537 125.229V128.962L55.2549 127.605V124.211L54.0537 125.229Z" fill="#7F7F66" stroke="black" stroke-width="0.451468"/>
<path d="M95.6458 116.066L99.85 111.315L107.057 107.921L112.012 104.867L120.571 106.564L128.529 109.618H132.132L134.985 113.012L133.484 117.763L128.529 119.46H121.321L115.616 117.763L109.159 119.46L112.012 125.908L104.955 127.605L96.9972 125.908L92.793 120.817L95.6458 116.066Z" fill="#996633"/>
<path d="M99.8499 113.012L103.454 109.618L107.057 107.921L112.012 104.867L119.219 106.564L130.631 111.315L132.132 109.618L133.484 113.012L134.234 116.066L131.381 113.012L126.427 114.369L115.616 111.315L105.556 114.369L106.306 117.763L101.351 120.817L99.8499 114.369L96.9971 116.066L99.8499 113.012Z" fill="#CCB299"/>
<path d="M121.321 114.367L118.468 116.064L116.366 117.761L122.072 119.458H129.129L121.321 114.367Z" fill="#661900"/>
<path d="M105.556 114.367L106.306 117.761L112.012 125.906L109.159 119.458L109.91 116.064L105.556 114.367Z" fill="#661900"/>
<path d="M96.3966 116.062L92.793 120.814L96.9972 125.904V119.456L99.85 117.759L96.3966 116.062Z" fill="#661900"/>
<path d="M25.5254 143.553L29.8797 132.354L35.5855 127.264L47.7476 125.906L64.114 127.264L79.8797 125.906L91.2912 127.264L95.6455 133.712L97.7476 143.553L81.9818 145.25L73.4233 148.304L44.144 145.25L34.0839 146.947L25.5254 143.553Z" fill="#661900"/>
<path d="M34.8344 138.802H28.3779L30.48 132.354L36.1857 127.603L51.2008 125.906L61.2608 128.961L81.3809 125.906L93.3929 130.657L94.8944 137.105L82.7323 133.712L68.468 135.409L59.9095 141.856L43.3929 137.105L37.6872 143.553L34.8344 138.802Z" fill="#996633"/>
<path d="M39.1887 133.71L28.3779 138.801L30.48 132.353L36.1857 127.602H50.6002L59.1587 128.959L79.1287 127.602L93.3929 130.656L92.0416 132.353L83.483 130.656L69.2188 132.353L57.6572 135.407L45.495 132.353L40.5401 138.801L39.1887 133.71Z" fill="#CCB299"/>
<path d="M26.2763 113.007H24.1742L26.2763 106.559L29.1291 101.469L31.982 103.166L34.8348 101.469H38.2883L41.2913 104.862L42.042 107.917L37.6877 116.062L34.0841 125.903L27.6276 130.654L24.024 137.102L22.6727 141.853L11.2613 145.247L9.75977 140.496L12.012 130.654L26.2763 113.007Z" fill="#996633"/>
<path d="M29.8795 106.562L27.0267 107.92L24.7744 113.01H28.378L34.0837 106.562H29.8795Z" fill="#661900"/>
<path d="M35.5853 107.922L32.7324 113.012L34.0838 124.211L35.5853 116.067L39.1889 111.316L35.5853 107.922Z" fill="#661900"/>
<path d="M22.6729 125.906L24.1744 130.657L22.6729 141.856L24.1744 137.105L27.6278 130.657L22.6729 125.906Z" fill="#661900"/>
<path d="M18.4684 122.509L31.2311 107.917L30.4804 104.862L29.129 103.166H31.9819L34.8348 101.469L38.4384 103.166L40.5405 104.862V106.22H36.3363L33.4834 109.614L29.8798 122.509L27.0269 125.903H20.5705L19.8197 132.351L15.4654 135.405L13.3633 132.351L18.4684 122.509Z" fill="#CCB299"/>
<path d="M93.243 51.2463L92.7925 1.35938H90.6904L90.0898 51.2463H93.243Z" fill="#323219" stroke="black" stroke-width="0.451468"/>
<path d="M70.2701 71.6027V66.8516H66.9668V71.6027H70.2701Z" fill="#323219" stroke="black" stroke-width="0.451468"/>
<path d="M42.1919 42.4226L41.8916 20.7031H40.9907L40.6904 42.4226H42.1919Z" fill="#323219" stroke="black" stroke-width="0.451468"/>
<path d="M92.7925 51.2463L92.3421 1.35938H90.9907L90.6904 51.2463H92.7925Z" fill="#65654C"/>
<path d="M69.6695 71.6027V66.8516H67.5674V71.6027H69.6695Z" fill="#65654C"/>
<path d="M41.8921 42.4226L41.742 20.7031H41.1414L40.9912 42.4226H41.8921Z" fill="#65654C"/>
<path d="M92.1927 51.2463L92.0425 1.35938H91.2918L91.1416 51.2463H92.1927Z" fill="#98987F"/>
<path d="M69.219 71.6027V66.8516H68.168V71.6027H69.219Z" fill="#98987F"/>
<path d="M41.5921 42.4226V20.7031H41.2918L41.1416 42.4226H41.5921Z" fill="#98987F"/>
</svg>
