<svg width="150" height="150" viewBox="0 0 150 150" fill="none" xmlns="http://www.w3.org/2000/svg">
<g clip-path="url(#clip0_2109_220170)">
<path d="M53.598 148.649L48.0149 144.444L45.0372 140.39L43.1762 136.186L45.4094 131.832L47.6427 131.081L42.4318 127.177L39.0819 122.823L39.4541 118.468L44.665 114.865L47.6427 114.264L41.6873 110.21L36.8486 106.757L32.7543 102.853L31.6377 98.3484L39.0819 95.1952L40.1985 95.045L37.2208 91.1411L31.6377 87.2372L26.4268 82.8829L24.5658 78.2282L27.1712 73.8739L29.7767 72.0721L26.4268 68.1682L22.3325 62.9129L18.9826 58.8589L16.3772 54.6547L14.5161 50.6006L15.6328 46.2462L16.3772 45.6456L8.56079 41.5916L3.34988 37.2372L0.744417 32.8829L0 30.3303V29.5796V28.6787L1.48883 24.4745L4.4665 22.8228L7.07196 18.4685L9.67742 13.8138L11.1663 9.45946L14.8883 5.55556L24.938 4.2042L34.2432 4.05405L35.3598 2.4024L36.4764 1.95195L47.6427 2.1021L54.7146 1.95195L55.8313 1.65165L56.2035 0.900901L56.5757 0H58.4367L68.4864 1.05105L77.0471 3.45345L86.7246 5.55556L93.7965 5.85586L101.985 2.85285L113.896 2.1021L125.806 3.003L135.856 5.40541L137.345 5.85586L147.022 7.50751L150 11.5616V12.3123V13.0631L148.883 17.4174L147.022 22.5225L145.161 26.7267V31.3814L142.556 35.8859L137.717 39.9399L133.251 43.8438L131.39 48.048V53.003L128.784 57.8078L125.062 62.012L120.223 66.5165L115.385 70.5706L113.524 72.0721L117.246 75.8258L116.129 80.1802L113.524 84.2342L111.29 88.2883L110.546 92.7928L113.151 97.1471V101.652L110.174 106.156L105.707 111.111L104.591 112.462L105.335 116.817L106.079 121.622L103.846 126.426L100.124 131.081L102.73 135.285L102.357 140.09L99.3797 144.294L94.5409 148.198L93.7965 148.649L83.3747 149.55L75.5583 149.85L74.0695 150H72.5807L61.4144 149.55L53.598 148.649Z" fill="white" stroke="#CCCCCC" stroke-width="0.472809"/>
<path d="M61.0421 143.69L54.3424 139.936L49.1314 135.282L50.9925 130.327L56.5756 129.276L59.1811 130.027V129.876L55.8312 125.973L52.1091 121.618L49.8758 117.114L49.1314 113.06L57.32 115.012L58.0644 114.861L56.2034 110.657L52.8535 105.702L50.6203 101.198L50.2481 96.5431L52.1091 92.0386L49.1314 87.5341L44.6649 83.3299L40.5706 79.1257L37.593 74.7713L44.6649 72.6692L50.9925 76.2728L54.3424 77.3239H54.7146L52.8535 72.8194L49.8758 68.9155L46.1538 64.5611L42.0595 60.0566L38.7096 55.8524L36.1041 51.4981L35.7319 49.8464L29.4044 46.3929L24.9379 42.3389L21.588 38.2848L19.3548 33.7803L20.0992 29.2758L20.8436 28.8254L16.0049 24.7713V24.0206L16.3771 23.42L27.5433 21.3179L41.6873 21.0176L44.6649 16.5131L52.1091 12.9095L59.1811 11.408L61.0421 11.2578L62.5309 11.408L73.325 12.9095L81.5136 15.462L89.3299 16.2128L98.2629 13.0596L109.801 13.6602L119.479 16.2128L127.295 19.2158L127.667 20.8674V21.468V22.2188L126.923 26.7233L125.434 30.9275L123.945 35.432L114.268 37.6842L108.313 39.9365V40.2368L118.362 42.489L122.829 46.3929L117.246 50.447L115.012 51.6482L115.385 56.0026L115.012 61.1077L112.407 65.9125L109.429 70.1167L106.079 73.8704L106.824 78.3749L103.846 82.2788L100.868 86.483L100.124 89.0356L94.9131 92.6392L101.613 96.0926L105.707 99.6963L104.59 104.952L100.124 109.456L95.2853 113.06L98.6352 117.114L99.7518 121.318L99.3796 125.973L93.7964 129.276L96.4019 134.381V139.036L93.052 142.939L90.8188 143.69L79.6525 144.891L75.5582 145.042H73.6972H71.8361L61.0421 143.69Z" fill="#CCCCCC"/>
<path d="M64.0197 135.883L63.2753 130.928L59.9254 126.574L62.5309 121.919L65.5085 117.414L67.7418 112.76L69.6028 108.105L65.1363 104.201L61.042 104.652L57.3199 105.402L56.9477 105.252L57.3199 99.9971L61.042 95.0421L58.4366 90.3875L55.4589 86.0331L55.0867 81.3784L61.042 80.6277L71.4639 77.3244L78.5358 73.5706L77.047 68.6157L68.8584 65.6127L60.6698 63.2103L52.4812 60.5076L44.6649 56.4535L47.2703 51.949L50.6202 48.0451L48.0147 43.9911L38.7095 41.4385L34.243 40.2373L32.0098 38.7358V38.2854V37.8349L40.5706 35.2824L44.6649 30.6277L46.1537 26.7238L55.4589 28.6757L65.1363 29.8769L68.114 25.973L72.2083 24.3214L80.3969 26.4235L84.8634 27.0241L96.4018 23.1202L106.824 20.4175L108.685 20.1172H110.174L111.662 20.2673L115.384 24.3214L117.99 25.8229L119.479 25.973L120.968 27.0241L121.34 27.3244L120.968 27.7748L116.873 31.979L110.546 35.5827L101.613 39.1863L92.6797 41.7388L82.2579 43.8409L77.047 45.943L76.6748 46.3935L77.047 46.6938L87.4688 48.6457L99.0073 49.9971L107.94 51.949V56.7538L106.079 57.6547L101.613 61.5586L96.0296 65.4625L94.1686 69.8169L97.1462 74.3214L99.0073 75.3724L95.2852 79.1262L90.0743 82.7298L85.2356 86.4836L83.7467 90.8379L91.5631 94.5917L94.5408 95.0421L94.913 95.1923L94.5408 99.6968L91.5631 103.751L87.0966 108.105L82.6301 112.309L77.4192 116.063L88.5854 117.565L94.1686 121.619L91.9353 124.472L90.8187 124.622L89.3299 124.472L85.98 128.826L86.7244 133.481L85.6078 137.234H85.2356L80.3969 135.883L71.8361 138.586L70.7194 138.886H69.6028H68.8584L64.0197 135.883Z" fill="#B2B2B2"/>
</g>
<defs>
<clipPath id="clip0_2109_220170">
<rect width="150" height="150" fill="white"/>
</clipPath>
</defs>
</svg>
