<svg width="150" height="150" viewBox="0 0 150 150" fill="none" xmlns="http://www.w3.org/2000/svg">
<path d="M9.91016 38.0469L16.2165 105.438H133.784L140.691 38.0469H9.91016Z" fill="#666666" stroke="black" stroke-width="0.807977"/>
<path d="M9.15918 38.0469V82.6121H74.1742V100.003H75.6757V82.6121H140.691V38.0469H139.189V71.7425H10.6607V38.0469H9.15918Z" fill="black"/>
<path d="M0.600586 16.3081H149.249V4.35156H0.600586V16.3081Z" fill="#E5E5E5" stroke="black" stroke-width="0.807977"/>
<path d="M0.600586 16.3047V38.0438H13.8138L19.2192 89.1308H130.631L136.787 38.0438H149.249V16.3047H0.600586Z" fill="#B2B2B2" stroke="black" stroke-width="0.807977"/>
<path d="M136.036 55.4375H143.844V100.003H136.036V55.4375Z" fill="#E5E5E5" stroke="black" stroke-width="0.807977"/>
<path d="M71.0215 100H78.8293V144.565H71.0215V100Z" fill="#E5E5E5" stroke="black" stroke-width="0.807977"/>
<path d="M6.00586 55.4375H13.8137V100.003H6.00586V55.4375Z" fill="#E5E5E5" stroke="black" stroke-width="0.807977"/>
</svg>
