<svg width="33" height="150" viewBox="0 0 33 150" fill="none" xmlns="http://www.w3.org/2000/svg">
<g clip-path="url(#clip0_2109_219722)">
<path d="M26.3441 38.2901L17.4701 34.0859L4.15918 38.2901" stroke="#990000" stroke-width="0.870092"/>
<path d="M26.3441 33.4844L17.4701 34.085L4.15918 33.4844" stroke="#990000" stroke-width="0.870092"/>
<path d="M26.3441 33.4844L17.4701 38.8898L4.15918 33.4844" stroke="#990000" stroke-width="0.870092"/>
<path d="M26.3441 33.4855L17.4701 29.2812L4.15918 33.4855" stroke="#990000" stroke-width="0.870092"/>
<path d="M26.3441 28.6797L17.4701 29.2803L4.15918 28.6797" stroke="#990000" stroke-width="0.870092"/>
<path d="M26.3441 28.6797L17.4701 34.0851L4.15918 28.6797" stroke="#990000" stroke-width="0.870092"/>
<path d="M26.3441 28.6817L17.4701 25.0781L4.15918 28.6817" stroke="#990000" stroke-width="0.870092"/>
<path d="M26.3441 24.4766L17.4701 25.0772L4.15918 24.4766" stroke="#990000" stroke-width="0.870092"/>
<path d="M26.3441 24.4766L17.4701 29.2814L4.15918 24.4766" stroke="#990000" stroke-width="0.870092"/>
<path d="M26.3441 24.4776L17.4701 20.2734L4.15918 24.4776" stroke="#990000" stroke-width="0.870092"/>
<path d="M26.3441 19.6719L17.4701 20.2725L4.15918 19.6719" stroke="#990000" stroke-width="0.870092"/>
<path d="M26.3441 19.6719L17.4701 25.0773L4.15918 19.6719" stroke="#990000" stroke-width="0.870092"/>
<path d="M26.3441 19.673L17.4701 15.4688L4.15918 19.673" stroke="#990000" stroke-width="0.870092"/>
<path d="M26.3441 14.8672L17.4701 15.4678L4.15918 14.8672" stroke="#990000" stroke-width="0.870092"/>
<path d="M26.3441 14.8672L17.4701 20.2726L4.15918 14.8672" stroke="#990000" stroke-width="0.870092"/>
<path d="M26.3441 14.8683L17.4701 10.6641L4.15918 14.8683" stroke="#990000" stroke-width="0.870092"/>
<path d="M26.3441 10.0625L17.4701 10.6631L4.15918 10.0625" stroke="#990000" stroke-width="0.870092"/>
<path d="M26.3441 10.0625L17.4701 15.4679L4.15918 10.0625" stroke="#990000" stroke-width="0.870092"/>
<path d="M26.3441 10.0567L17.4701 6.45312L4.15918 10.0567" stroke="#990000" stroke-width="0.870092"/>
<path d="M26.3441 5.85938L17.4701 6.45998L4.15918 5.85938" stroke="#990000" stroke-width="0.870092"/>
<path d="M26.3441 5.85938L17.4701 10.6642L4.15918 5.85938" stroke="#990000" stroke-width="0.870092"/>
<path d="M26.3441 5.85264L17.4701 1.64844L4.15918 5.85264" stroke="#990000" stroke-width="0.870092"/>
<path d="M26.3441 1.05469L17.4701 1.65529L4.15918 1.05469" stroke="#990000" stroke-width="0.870092"/>
<path d="M26.3441 1.05469L17.4701 6.46009L4.15918 1.05469" stroke="#990000" stroke-width="0.870092"/>
<path d="M26.3441 112.158L17.4701 108.555L4.15918 112.158" stroke="#990000" stroke-width="0.870092"/>
<path d="M26.3441 107.961L17.4701 108.562L4.15918 107.961" stroke="#990000" stroke-width="0.870092"/>
<path d="M26.3441 107.961L17.4701 112.766L4.15918 107.961" stroke="#990000" stroke-width="0.870092"/>
<path d="M26.3441 107.954L17.4701 103.75L4.15918 107.954" stroke="#990000" stroke-width="0.870092"/>
<path d="M26.3441 103.156L17.4701 103.757L4.15918 103.156" stroke="#990000" stroke-width="0.870092"/>
<path d="M26.3441 103.156L17.4701 108.562L4.15918 103.156" stroke="#990000" stroke-width="0.870092"/>
<path d="M26.3441 103.15L17.4701 98.9453L4.15918 103.15" stroke="#990000" stroke-width="0.870092"/>
<path d="M26.3441 98.3516L17.4701 98.9522L4.15918 98.3516" stroke="#990000" stroke-width="0.870092"/>
<path d="M26.3441 98.3516L17.4701 103.757L4.15918 98.3516" stroke="#990000" stroke-width="0.870092"/>
<path d="M26.3441 98.3448L17.4701 94.1406L4.15918 98.3448" stroke="#990000" stroke-width="0.870092"/>
<path d="M26.3441 93.5469L17.4701 94.1475L4.15918 93.5469" stroke="#990000" stroke-width="0.870092"/>
<path d="M26.3441 93.5469L17.4701 98.9523L4.15918 93.5469" stroke="#990000" stroke-width="0.870092"/>
<path d="M26.3441 93.5411L17.4701 89.9375L4.15918 93.5411" stroke="#990000" stroke-width="0.870092"/>
<path d="M26.3441 89.3359L17.4701 89.9365L4.15918 89.3359" stroke="#990000" stroke-width="0.870092"/>
<path d="M26.3441 89.3359L17.4701 94.1407L4.15918 89.3359" stroke="#990000" stroke-width="0.870092"/>
<path d="M26.3441 89.337L17.4701 85.1328L4.15918 89.337" stroke="#990000" stroke-width="0.870092"/>
<path d="M26.3441 84.5312L17.4701 85.1319L4.15918 84.5312" stroke="#990000" stroke-width="0.870092"/>
<path d="M26.3441 84.5312L17.4701 89.9367L4.15918 84.5312" stroke="#990000" stroke-width="0.870092"/>
<path d="M26.3441 84.5323L17.4701 80.3281L4.15918 84.5323" stroke="#990000" stroke-width="0.870092"/>
<path d="M26.3441 79.7266L17.4701 80.3272L4.15918 79.7266" stroke="#990000" stroke-width="0.870092"/>
<path d="M26.3441 79.7266L17.4701 85.132L4.15918 79.7266" stroke="#990000" stroke-width="0.870092"/>
<path d="M26.3441 79.7276L17.4701 75.5234L4.15918 79.7276" stroke="#990000" stroke-width="0.870092"/>
<path d="M26.3441 75.5234H17.4701H4.15918" stroke="#990000" stroke-width="0.870092"/>
<path d="M26.3441 75.5234L17.4701 80.3282L4.15918 75.5234" stroke="#990000" stroke-width="0.870092"/>
<path d="M26.3441 33.4825L17.4701 32.2812L4.15918 33.4825" stroke="#FF0000" stroke-width="0.870092"/>
<path d="M26.3441 28.6778L17.4701 27.4766L4.15918 28.6778" stroke="#FF0000" stroke-width="0.870092"/>
<path d="M26.3441 24.4746L17.4701 23.2734L4.15918 24.4746" stroke="#FF0000" stroke-width="0.870092"/>
<path d="M26.3441 19.67L17.4701 18.4688L4.15918 19.67" stroke="#FF0000" stroke-width="0.870092"/>
<path d="M26.3441 14.8653L17.4701 13.6641L4.15918 14.8653" stroke="#FF0000" stroke-width="0.870092"/>
<path d="M26.3441 10.0606L17.4701 8.85938L4.15918 10.0606" stroke="#FF0000" stroke-width="0.870092"/>
<path d="M26.3441 5.85745L17.4701 4.65625L4.15918 5.85745" stroke="#FF0000" stroke-width="0.870092"/>
<path d="M26.3441 1.05105L17.4701 0L4.15918 1.05105" stroke="#FF0000" stroke-width="0.870092"/>
<path d="M4.15918 28.6797V33.4845" stroke="#FF0000" stroke-width="0.870092"/>
<path d="M4.15918 24.4766V28.6808" stroke="#FF0000" stroke-width="0.870092"/>
<path d="M4.15918 19.6719V24.4767" stroke="#FF0000" stroke-width="0.870092"/>
<path d="M4.15918 14.8672V19.672" stroke="#FF0000" stroke-width="0.870092"/>
<path d="M4.15918 10.0625V14.8673" stroke="#FF0000" stroke-width="0.870092"/>
<path d="M4.15918 5.85938V10.0636" stroke="#FF0000" stroke-width="0.870092"/>
<path d="M4.15918 1.05469V5.85949" stroke="#FF0000" stroke-width="0.870092"/>
<path d="M17.4707 27.4766V34.0832" stroke="#FF0000" stroke-width="0.870092"/>
<path d="M17.4707 23.2734V29.2794" stroke="#FF0000" stroke-width="0.870092"/>
<path d="M17.4707 18.4688V25.0754" stroke="#FF0000" stroke-width="0.870092"/>
<path d="M17.4707 13.6641V20.2707" stroke="#FF0000" stroke-width="0.870092"/>
<path d="M17.4707 8.85938V15.466" stroke="#FF0000" stroke-width="0.870092"/>
<path d="M17.4707 4.65625V10.6623" stroke="#FF0000" stroke-width="0.870092"/>
<path d="M17.4707 0V6.45646" stroke="#FF0000" stroke-width="0.870092"/>
<path d="M26.3447 33.4844V38.2892" stroke="#FF0000" stroke-width="0.870092"/>
<path d="M26.3447 28.6797V33.4845" stroke="#FF0000" stroke-width="0.870092"/>
<path d="M26.3447 24.4766V28.6808" stroke="#FF0000" stroke-width="0.870092"/>
<path d="M26.3447 19.6719V24.4767" stroke="#FF0000" stroke-width="0.870092"/>
<path d="M26.3447 14.8672V19.672" stroke="#FF0000" stroke-width="0.870092"/>
<path d="M26.3447 10.0625V14.8673" stroke="#FF0000" stroke-width="0.870092"/>
<path d="M26.3447 5.85938V10.0636" stroke="#FF0000" stroke-width="0.870092"/>
<path d="M26.3447 1.05469V5.85949" stroke="#FF0000" stroke-width="0.870092"/>
<path d="M26.3441 5.85586L17.4701 0L4.15918 5.85586" stroke="#FF0000" stroke-width="0.870092"/>
<path d="M4.15918 1.05469L17.4701 4.65829L26.3441 1.05469" stroke="#FF0000" stroke-width="0.870092"/>
<path d="M26.3441 10.0617L17.4701 4.65625L4.15918 10.0617" stroke="#FF0000" stroke-width="0.870092"/>
<path d="M4.15918 5.85938L17.4701 8.86238L26.3441 5.85938" stroke="#FF0000" stroke-width="0.870092"/>
<path d="M26.3441 14.8654L17.4701 8.85938L4.15918 14.8654" stroke="#FF0000" stroke-width="0.870092"/>
<path d="M4.15918 10.0625L17.4701 13.6661L26.3441 10.0625" stroke="#FF0000" stroke-width="0.870092"/>
<path d="M26.3441 19.6701L17.4701 13.6641L4.15918 19.6701" stroke="#FF0000" stroke-width="0.870092"/>
<path d="M4.15918 14.8672L17.4701 18.4708L26.3441 14.8672" stroke="#FF0000" stroke-width="0.870092"/>
<path d="M26.3441 24.4748L17.4701 18.4688L4.15918 24.4748" stroke="#FF0000" stroke-width="0.870092"/>
<path d="M4.15918 19.6719L17.4701 23.2755L26.3441 19.6719" stroke="#FF0000" stroke-width="0.870092"/>
<path d="M26.3441 28.6788L17.4701 23.2734L4.15918 28.6788" stroke="#FF0000" stroke-width="0.870092"/>
<path d="M4.15918 24.4766L17.4701 27.4796L26.3441 24.4766" stroke="#FF0000" stroke-width="0.870092"/>
<path d="M26.3441 33.4826L17.4701 27.4766L4.15918 33.4826" stroke="#FF0000" stroke-width="0.870092"/>
<path d="M4.15918 28.6797L17.4701 32.2833L26.3441 28.6797" stroke="#FF0000" stroke-width="0.870092"/>
<path d="M26.3441 38.2873L17.4701 32.2812L4.15918 38.2873" stroke="#FF0000" stroke-width="0.870092"/>
<path d="M4.15918 33.4844L17.4701 37.088L26.3441 33.4844" stroke="#FF0000" stroke-width="0.870092"/>
<path d="M17.4707 32.2812V38.8879" stroke="#FF0000" stroke-width="0.870092"/>
<path d="M4.15918 33.4844V38.2892" stroke="#FF0000" stroke-width="0.870092"/>
<path d="M26.3447 75.5234V79.7276" stroke="#FF0000" stroke-width="0.870092"/>
<path d="M17.4707 74.3281V80.3341" stroke="#FF0000" stroke-width="0.870092"/>
<path d="M4.15918 75.5234V79.7276" stroke="#FF0000" stroke-width="0.870092"/>
<path d="M26.3441 79.7335L17.4701 74.3281L4.15918 79.7335" stroke="#FF0000" stroke-width="0.870092"/>
<path d="M4.15918 75.5234L17.4701 78.5264L26.3441 75.5234" stroke="#FF0000" stroke-width="0.870092"/>
<path d="M26.3441 75.5293L17.4701 74.3281L4.15918 75.5293" stroke="#FF0000" stroke-width="0.870092"/>
<path d="M26.3447 79.7266V84.5314" stroke="#FF0000" stroke-width="0.870092"/>
<path d="M17.4707 78.5312V85.1379" stroke="#FF0000" stroke-width="0.870092"/>
<path d="M4.15918 79.7266V84.5314" stroke="#FF0000" stroke-width="0.870092"/>
<path d="M26.3441 84.5373L17.4701 78.5312L4.15918 84.5373" stroke="#FF0000" stroke-width="0.870092"/>
<path d="M4.15918 79.7266L17.4701 83.3302L26.3441 79.7266" stroke="#FF0000" stroke-width="0.870092"/>
<path d="M26.3441 79.7325L17.4701 78.5312L4.15918 79.7325" stroke="#FF0000" stroke-width="0.870092"/>
<path d="M26.3447 84.5312V89.3361" stroke="#FF0000" stroke-width="0.870092"/>
<path d="M17.4707 83.3359V89.9425" stroke="#FF0000" stroke-width="0.870092"/>
<path d="M4.15918 84.5312V89.3361" stroke="#FF0000" stroke-width="0.870092"/>
<path d="M26.3441 89.3419L17.4701 83.3359L4.15918 89.3419" stroke="#FF0000" stroke-width="0.870092"/>
<path d="M4.15918 84.5312L17.4701 88.1349L26.3441 84.5312" stroke="#FF0000" stroke-width="0.870092"/>
<path d="M26.3441 84.5371L17.4701 83.3359L4.15918 84.5371" stroke="#FF0000" stroke-width="0.870092"/>
<path d="M26.3447 89.3359V93.5401" stroke="#FF0000" stroke-width="0.870092"/>
<path d="M17.4707 88.1406V94.1466" stroke="#FF0000" stroke-width="0.870092"/>
<path d="M4.15918 89.3359V93.5401" stroke="#FF0000" stroke-width="0.870092"/>
<path d="M26.3441 93.546L17.4701 88.1406L4.15918 93.546" stroke="#FF0000" stroke-width="0.870092"/>
<path d="M4.15918 89.3359L17.4701 92.3389L26.3441 89.3359" stroke="#FF0000" stroke-width="0.870092"/>
<path d="M26.3441 89.3418L17.4701 88.1406L4.15918 89.3418" stroke="#FF0000" stroke-width="0.870092"/>
<path d="M26.3447 93.5469V98.3517" stroke="#FF0000" stroke-width="0.870092"/>
<path d="M17.4707 92.3438V98.9504" stroke="#FF0000" stroke-width="0.870092"/>
<path d="M4.15918 93.5469V98.3517" stroke="#FF0000" stroke-width="0.870092"/>
<path d="M26.3441 98.3498L17.4701 92.3438L4.15918 98.3498" stroke="#FF0000" stroke-width="0.870092"/>
<path d="M4.15918 93.5469L17.4701 97.1505L26.3441 93.5469" stroke="#FF0000" stroke-width="0.870092"/>
<path d="M26.3441 93.545L17.4701 92.3438L4.15918 93.545" stroke="#FF0000" stroke-width="0.870092"/>
<path d="M26.3447 98.3516V103.156" stroke="#FF0000" stroke-width="0.870092"/>
<path d="M17.4707 97.1484V103.755" stroke="#FF0000" stroke-width="0.870092"/>
<path d="M4.15918 98.3516V103.156" stroke="#FF0000" stroke-width="0.870092"/>
<path d="M26.3441 103.154L17.4701 97.1484L4.15918 103.154" stroke="#FF0000" stroke-width="0.870092"/>
<path d="M4.15918 98.3516L17.4701 101.955L26.3441 98.3516" stroke="#FF0000" stroke-width="0.870092"/>
<path d="M26.3441 98.3496L17.4701 97.1484L4.15918 98.3496" stroke="#FF0000" stroke-width="0.870092"/>
<path d="M26.3447 103.156V107.961" stroke="#FF0000" stroke-width="0.870092"/>
<path d="M17.4707 101.953V108.56" stroke="#FF0000" stroke-width="0.870092"/>
<path d="M4.15918 103.156V107.961" stroke="#FF0000" stroke-width="0.870092"/>
<path d="M26.3441 107.959L17.4701 101.953L4.15918 107.959" stroke="#FF0000" stroke-width="0.870092"/>
<path d="M4.15918 103.156L17.4701 106.76L26.3441 103.156" stroke="#FF0000" stroke-width="0.870092"/>
<path d="M26.3441 103.154L17.4701 101.953L4.15918 103.154" stroke="#FF0000" stroke-width="0.870092"/>
<path d="M26.3447 107.961V112.165" stroke="#FF0000" stroke-width="0.870092"/>
<path d="M17.4707 106.758V112.764" stroke="#FF0000" stroke-width="0.870092"/>
<path d="M4.15918 107.961V112.165" stroke="#FF0000" stroke-width="0.870092"/>
<path d="M26.3441 112.163L17.4701 106.758L4.15918 112.163" stroke="#FF0000" stroke-width="0.870092"/>
<path d="M4.15918 107.961L17.4701 110.964L26.3441 107.961" stroke="#FF0000" stroke-width="0.870092"/>
<path d="M26.3441 107.959L17.4701 106.758L4.15918 107.959" stroke="#FF0000" stroke-width="0.870092"/>
<path d="M26.3441 75.5245L17.4701 71.3203L4.15918 75.5245" stroke="#7F7F7F" stroke-width="0.870092"/>
<path d="M26.3441 70.7188L17.4701 71.3194L4.15918 70.7188" stroke="#7F7F7F" stroke-width="0.870092"/>
<path d="M26.3441 70.7188L17.4701 75.5236L4.15918 70.7188" stroke="#7F7F7F" stroke-width="0.870092"/>
<path d="M26.3441 70.7198L17.4701 66.5156L4.15918 70.7198" stroke="#7F7F7F" stroke-width="0.870092"/>
<path d="M26.3441 65.9141L17.4701 66.5147L4.15918 65.9141" stroke="#7F7F7F" stroke-width="0.870092"/>
<path d="M26.3441 65.9141L17.4701 71.3195L4.15918 65.9141" stroke="#7F7F7F" stroke-width="0.870092"/>
<path d="M26.3441 65.9151L17.4701 61.7109L4.15918 65.9151" stroke="#7F7F7F" stroke-width="0.870092"/>
<path d="M26.3441 61.1094L17.4701 61.71L4.15918 61.1094" stroke="#7F7F7F" stroke-width="0.870092"/>
<path d="M26.3441 61.1094L17.4701 66.5148L4.15918 61.1094" stroke="#7F7F7F" stroke-width="0.870092"/>
<path d="M26.3441 61.1114L17.4701 57.5078L4.15918 61.1114" stroke="#7F7F7F" stroke-width="0.870092"/>
<path d="M26.3441 56.9062L17.4701 57.5069L4.15918 56.9062" stroke="#7F7F7F" stroke-width="0.870092"/>
<path d="M26.3441 56.9062L17.4701 61.7111L4.15918 56.9062" stroke="#7F7F7F" stroke-width="0.870092"/>
<path d="M26.3441 56.9073L17.4701 52.7031L4.15918 56.9073" stroke="#7F7F7F" stroke-width="0.870092"/>
<path d="M26.3441 52.1016L17.4701 52.7022L4.15918 52.1016" stroke="#7F7F7F" stroke-width="0.870092"/>
<path d="M26.3441 52.1016L17.4701 57.507L4.15918 52.1016" stroke="#7F7F7F" stroke-width="0.870092"/>
<path d="M26.3441 52.1026L17.4701 47.8984L4.15918 52.1026" stroke="#7F7F7F" stroke-width="0.870092"/>
<path d="M26.3441 47.2969L17.4701 47.8975L4.15918 47.2969" stroke="#7F7F7F" stroke-width="0.870092"/>
<path d="M26.3441 47.2969L17.4701 52.7023L4.15918 47.2969" stroke="#7F7F7F" stroke-width="0.870092"/>
<path d="M26.3441 47.298L17.4701 43.0938L4.15918 47.298" stroke="#7F7F7F" stroke-width="0.870092"/>
<path d="M26.3441 42.4922L17.4701 43.0928L4.15918 42.4922" stroke="#7F7F7F" stroke-width="0.870092"/>
<path d="M26.3441 42.4922L17.4701 47.8976L4.15918 42.4922" stroke="#7F7F7F" stroke-width="0.870092"/>
<path d="M26.3441 42.4942L17.4701 38.8906L4.15918 42.4942" stroke="#7F7F7F" stroke-width="0.870092"/>
<path d="M26.3441 38.2891L17.4701 38.8897L4.15918 38.2891" stroke="#7F7F7F" stroke-width="0.870092"/>
<path d="M26.3441 38.2891L17.4701 43.0939L4.15918 38.2891" stroke="#7F7F7F" stroke-width="0.870092"/>
<path d="M26.3441 149.4L17.4701 145.195L4.15918 149.4" stroke="#7F7F7F" stroke-width="0.870092"/>
<path d="M26.3441 144.594L17.4701 145.194L4.15918 144.594" stroke="#7F7F7F" stroke-width="0.870092"/>
<path d="M26.3441 144.594L17.4701 149.999L4.15918 144.594" stroke="#7F7F7F" stroke-width="0.870092"/>
<path d="M26.3441 144.596L17.4701 140.992L4.15918 144.596" stroke="#7F7F7F" stroke-width="0.870092"/>
<path d="M26.3441 140.391L17.4701 140.991L4.15918 140.391" stroke="#7F7F7F" stroke-width="0.870092"/>
<path d="M26.3441 140.391L17.4701 145.195L4.15918 140.391" stroke="#7F7F7F" stroke-width="0.870092"/>
<path d="M26.3441 140.392L17.4701 136.188L4.15918 140.392" stroke="#7F7F7F" stroke-width="0.870092"/>
<path d="M26.3441 135.586L17.4701 136.187L4.15918 135.586" stroke="#7F7F7F" stroke-width="0.870092"/>
<path d="M26.3441 135.586L17.4701 140.991L4.15918 135.586" stroke="#7F7F7F" stroke-width="0.870092"/>
<path d="M26.3441 135.587L17.4701 131.383L4.15918 135.587" stroke="#7F7F7F" stroke-width="0.870092"/>
<path d="M26.3441 130.781L17.4701 131.382L4.15918 130.781" stroke="#7F7F7F" stroke-width="0.870092"/>
<path d="M26.3441 130.781L17.4701 136.187L4.15918 130.781" stroke="#7F7F7F" stroke-width="0.870092"/>
<path d="M26.3441 130.782L17.4701 126.578L4.15918 130.782" stroke="#7F7F7F" stroke-width="0.870092"/>
<path d="M26.3441 125.977L17.4701 126.577L4.15918 125.977" stroke="#7F7F7F" stroke-width="0.870092"/>
<path d="M26.3441 125.977L17.4701 131.382L4.15918 125.977" stroke="#7F7F7F" stroke-width="0.870092"/>
<path d="M26.3441 125.979L17.4701 122.375L4.15918 125.979" stroke="#7F7F7F" stroke-width="0.870092"/>
<path d="M26.3441 121.773L17.4701 122.374L4.15918 121.773" stroke="#7F7F7F" stroke-width="0.870092"/>
<path d="M26.3441 121.773L17.4701 126.578L4.15918 121.773" stroke="#7F7F7F" stroke-width="0.870092"/>
<path d="M26.3441 121.775L17.4701 117.57L4.15918 121.775" stroke="#7F7F7F" stroke-width="0.870092"/>
<path d="M26.3441 116.969L17.4701 117.569L4.15918 116.969" stroke="#7F7F7F" stroke-width="0.870092"/>
<path d="M26.3441 116.969L17.4701 122.374L4.15918 116.969" stroke="#7F7F7F" stroke-width="0.870092"/>
<path d="M26.3441 116.97L17.4701 112.766L4.15918 116.97" stroke="#7F7F7F" stroke-width="0.870092"/>
<path d="M26.3441 112.164L17.4701 112.765L4.15918 112.164" stroke="#7F7F7F" stroke-width="0.870092"/>
<path d="M26.3441 112.164L17.4701 117.569L4.15918 112.164" stroke="#7F7F7F" stroke-width="0.870092"/>
<path d="M26.3447 38.2891V42.4933" stroke="white" stroke-width="0.870092"/>
<path d="M17.4707 37.0859V43.0919" stroke="white" stroke-width="0.870092"/>
<path d="M4.15918 38.2891V42.4933" stroke="white" stroke-width="0.870092"/>
<path d="M26.3441 42.4913L17.4701 37.0859L4.15918 42.4913" stroke="white" stroke-width="0.870092"/>
<path d="M4.15918 38.2891L17.4701 41.2921L26.3441 38.2891" stroke="white" stroke-width="0.870092"/>
<path d="M26.3441 38.2871L17.4701 37.0859L4.15918 38.2871" stroke="white" stroke-width="0.870092"/>
<path d="M26.3447 42.4922V47.297" stroke="white" stroke-width="0.870092"/>
<path d="M17.4707 41.2891V47.8957" stroke="white" stroke-width="0.870092"/>
<path d="M4.15918 42.4922V47.297" stroke="white" stroke-width="0.870092"/>
<path d="M26.3441 47.2951L17.4701 41.2891L4.15918 47.2951" stroke="white" stroke-width="0.870092"/>
<path d="M4.15918 42.4922L17.4701 46.0958L26.3441 42.4922" stroke="white" stroke-width="0.870092"/>
<path d="M26.3441 42.4903L17.4701 41.2891L4.15918 42.4903" stroke="white" stroke-width="0.870092"/>
<path d="M26.3447 47.2969V52.1017" stroke="white" stroke-width="0.870092"/>
<path d="M17.4707 46.0938V52.7004" stroke="white" stroke-width="0.870092"/>
<path d="M4.15918 47.2969V52.1017" stroke="white" stroke-width="0.870092"/>
<path d="M26.3441 52.0998L17.4701 46.0938L4.15918 52.0998" stroke="white" stroke-width="0.870092"/>
<path d="M4.15918 47.2969L17.4701 50.9005L26.3441 47.2969" stroke="white" stroke-width="0.870092"/>
<path d="M26.3441 47.295L17.4701 46.0938L4.15918 47.295" stroke="white" stroke-width="0.870092"/>
<path d="M26.3447 52.1016V56.9064" stroke="white" stroke-width="0.870092"/>
<path d="M17.4707 50.8984V57.505" stroke="white" stroke-width="0.870092"/>
<path d="M4.15918 52.1016V56.9064" stroke="white" stroke-width="0.870092"/>
<path d="M26.3441 56.9044L17.4701 50.8984L4.15918 56.9044" stroke="white" stroke-width="0.870092"/>
<path d="M4.15918 52.1016L17.4701 55.7052L26.3441 52.1016" stroke="white" stroke-width="0.870092"/>
<path d="M26.3441 52.0996L17.4701 50.8984L4.15918 52.0996" stroke="white" stroke-width="0.870092"/>
<path d="M26.3447 56.9062V61.1105" stroke="white" stroke-width="0.870092"/>
<path d="M17.4707 55.7031V61.7091" stroke="white" stroke-width="0.870092"/>
<path d="M4.15918 56.9062V61.1105" stroke="white" stroke-width="0.870092"/>
<path d="M26.3441 61.1085L17.4701 55.7031L4.15918 61.1085" stroke="white" stroke-width="0.870092"/>
<path d="M4.15918 56.9062L17.4701 59.9093L26.3441 56.9062" stroke="white" stroke-width="0.870092"/>
<path d="M26.3441 56.9043L17.4701 55.7031L4.15918 56.9043" stroke="white" stroke-width="0.870092"/>
<path d="M26.3447 61.1094V65.9142" stroke="white" stroke-width="0.870092"/>
<path d="M17.4707 59.9062V66.5129" stroke="white" stroke-width="0.870092"/>
<path d="M4.15918 61.1094V65.9142" stroke="white" stroke-width="0.870092"/>
<path d="M26.3441 65.9123L17.4701 59.9062L4.15918 65.9123" stroke="white" stroke-width="0.870092"/>
<path d="M4.15918 61.1094L17.4701 64.713L26.3441 61.1094" stroke="white" stroke-width="0.870092"/>
<path d="M26.3441 61.1075L17.4701 59.9062L4.15918 61.1075" stroke="white" stroke-width="0.870092"/>
<path d="M26.3447 65.9141V70.7189" stroke="white" stroke-width="0.870092"/>
<path d="M17.4707 64.7109V71.3175" stroke="white" stroke-width="0.870092"/>
<path d="M4.15918 65.9141V70.7189" stroke="white" stroke-width="0.870092"/>
<path d="M26.3441 70.7169L17.4701 64.7109L4.15918 70.7169" stroke="white" stroke-width="0.870092"/>
<path d="M4.15918 65.9141L17.4701 69.5177L26.3441 65.9141" stroke="white" stroke-width="0.870092"/>
<path d="M26.3441 65.9121L17.4701 64.7109L4.15918 65.9121" stroke="white" stroke-width="0.870092"/>
<path d="M26.3447 70.7188V75.5236" stroke="white" stroke-width="0.870092"/>
<path d="M17.4707 69.5156V75.5216" stroke="white" stroke-width="0.870092"/>
<path d="M4.15918 70.7188V75.5236" stroke="white" stroke-width="0.870092"/>
<path d="M26.3441 75.5216L17.4701 69.5156L4.15918 75.5216" stroke="white" stroke-width="0.870092"/>
<path d="M4.15918 70.7188L17.4701 74.3224L26.3441 70.7188" stroke="white" stroke-width="0.870092"/>
<path d="M26.3441 70.7168L17.4701 69.5156L4.15918 70.7168" stroke="white" stroke-width="0.870092"/>
<path d="M26.3447 112.164V116.969" stroke="white" stroke-width="0.870092"/>
<path d="M17.4707 110.961V117.568" stroke="white" stroke-width="0.870092"/>
<path d="M4.15918 112.164V116.969" stroke="white" stroke-width="0.870092"/>
<path d="M26.3441 116.967L17.4701 110.961L4.15918 116.967" stroke="white" stroke-width="0.870092"/>
<path d="M4.15918 112.164L17.4701 115.768L26.3441 112.164" stroke="white" stroke-width="0.870092"/>
<path d="M26.3441 112.162L17.4701 110.961L4.15918 112.162" stroke="white" stroke-width="0.870092"/>
<path d="M26.3447 116.969V121.774" stroke="white" stroke-width="0.870092"/>
<path d="M17.4707 115.766V122.372" stroke="white" stroke-width="0.870092"/>
<path d="M4.15918 116.969V121.774" stroke="white" stroke-width="0.870092"/>
<path d="M26.3441 121.772L17.4701 115.766L4.15918 121.772" stroke="white" stroke-width="0.870092"/>
<path d="M4.15918 116.969L17.4701 120.572L26.3441 116.969" stroke="white" stroke-width="0.870092"/>
<path d="M26.3441 116.967L17.4701 115.766L4.15918 116.967" stroke="white" stroke-width="0.870092"/>
<path d="M26.3447 121.773V125.978" stroke="white" stroke-width="0.870092"/>
<path d="M17.4707 120.57V126.576" stroke="white" stroke-width="0.870092"/>
<path d="M4.15918 121.773V125.978" stroke="white" stroke-width="0.870092"/>
<path d="M26.3441 125.976L17.4701 120.57L4.15918 125.976" stroke="white" stroke-width="0.870092"/>
<path d="M4.15918 121.773L17.4701 124.776L26.3441 121.773" stroke="white" stroke-width="0.870092"/>
<path d="M26.3441 121.772L17.4701 120.57L4.15918 121.772" stroke="white" stroke-width="0.870092"/>
<path d="M26.3447 125.977V130.781" stroke="white" stroke-width="0.870092"/>
<path d="M17.4707 124.773V131.38" stroke="white" stroke-width="0.870092"/>
<path d="M4.15918 125.977V130.781" stroke="white" stroke-width="0.870092"/>
<path d="M26.3441 130.779L17.4701 124.773L4.15918 130.779" stroke="white" stroke-width="0.870092"/>
<path d="M4.15918 125.977L17.4701 129.58L26.3441 125.977" stroke="white" stroke-width="0.870092"/>
<path d="M26.3441 125.975L17.4701 124.773L4.15918 125.975" stroke="white" stroke-width="0.870092"/>
<path d="M26.3447 130.781V135.586" stroke="white" stroke-width="0.870092"/>
<path d="M17.4707 129.578V136.185" stroke="white" stroke-width="0.870092"/>
<path d="M4.15918 130.781V135.586" stroke="white" stroke-width="0.870092"/>
<path d="M26.3441 135.584L17.4701 129.578L4.15918 135.584" stroke="white" stroke-width="0.870092"/>
<path d="M4.15918 130.781L17.4701 134.385L26.3441 130.781" stroke="white" stroke-width="0.870092"/>
<path d="M26.3441 130.779L17.4701 129.578L4.15918 130.779" stroke="white" stroke-width="0.870092"/>
<path d="M26.3447 135.586V140.391" stroke="white" stroke-width="0.870092"/>
<path d="M17.4707 134.383V140.989" stroke="white" stroke-width="0.870092"/>
<path d="M4.15918 135.586V140.391" stroke="white" stroke-width="0.870092"/>
<path d="M26.3441 140.389L17.4701 134.383L4.15918 140.389" stroke="white" stroke-width="0.870092"/>
<path d="M4.15918 135.586L17.4701 139.19L26.3441 135.586" stroke="white" stroke-width="0.870092"/>
<path d="M26.3441 135.584L17.4701 134.383L4.15918 135.584" stroke="white" stroke-width="0.870092"/>
<path d="M26.3447 140.391V144.595" stroke="white" stroke-width="0.870092"/>
<path d="M17.4707 139.188V145.194" stroke="white" stroke-width="0.870092"/>
<path d="M4.15918 140.391V144.595" stroke="white" stroke-width="0.870092"/>
<path d="M26.3441 144.593L17.4701 139.188L4.15918 144.593" stroke="white" stroke-width="0.870092"/>
<path d="M4.15918 140.391L17.4701 143.394L26.3441 140.391" stroke="white" stroke-width="0.870092"/>
<path d="M26.3441 140.389L17.4701 139.188L4.15918 140.389" stroke="white" stroke-width="0.870092"/>
<path d="M26.3447 144.594V149.399" stroke="white" stroke-width="0.870092"/>
<path d="M17.4707 143.391V149.997" stroke="white" stroke-width="0.870092"/>
<path d="M4.15918 144.594V149.399" stroke="white" stroke-width="0.870092"/>
<path d="M26.3441 149.397L17.4701 143.391L4.15918 149.397" stroke="white" stroke-width="0.870092"/>
<path d="M4.15918 144.594L17.4701 148.197L26.3441 144.594" stroke="white" stroke-width="0.870092"/>
<path d="M26.3441 144.592L17.4701 143.391L4.15918 144.592" stroke="white" stroke-width="0.870092"/>
<path d="M5.26855 50.9036L8.31897 50.7534L10.5375 50.0027L12.4786 48.8015L13.5879 47.4501L14.1425 45.6483V44.8976V44.4471L13.5879 42.7955L12.4786 41.4441L10.5375 40.3931L8.31897 39.7925L6.3778 39.4922H5.26855H6.10049L8.31897 40.2429L10.5375 41.4441L11.3694 42.7955L11.924 44.4471V46.2489L11.0921 47.9006L9.98284 49.2519L7.76435 50.4531L6.10049 50.9036H5.26855Z" fill="#CCCCCC"/>
<path d="M5.82353 50.9036C9.03978 50.9036 11.6471 48.3491 11.6471 45.1979C11.6471 42.0467 9.03978 39.4922 5.82353 39.4922C2.60728 39.4922 0 42.0467 0 45.1979C0 48.3491 2.60728 50.9036 5.82353 50.9036Z" fill="#E5E5E5"/>
<path d="M8.59655 46.6983C9.20917 46.6983 9.70579 46.0261 9.70579 45.1968C9.70579 44.3676 9.20917 43.6953 8.59655 43.6953C7.98393 43.6953 7.4873 44.3676 7.4873 45.1968C7.4873 46.0261 7.98393 46.6983 8.59655 46.6983Z" fill="white"/>
<path d="M27.454 16.6683L24.6809 16.368L22.1851 15.6172L20.5213 14.416L19.412 12.9145L18.8574 11.2629L18.5801 10.6623L18.8574 10.2118L19.412 8.56015L20.5213 7.05865L22.1851 5.85745L24.6809 4.95655L26.6221 4.8064L27.454 4.65625L26.8994 4.8064L24.6809 5.55715L23.0171 6.6082L21.9078 7.95955L21.0759 9.61121V11.2629L21.3532 12.9145L22.4624 14.416L24.1263 15.6172L26.3448 16.6683H26.8994H27.454Z" fill="#990000"/>
<path d="M26.8987 16.6683C30.2681 16.6683 32.9995 13.9793 32.9995 10.6623C32.9995 7.34523 30.2681 4.65625 26.8987 4.65625C23.5293 4.65625 20.7979 7.34523 20.7979 10.6623C20.7979 13.9793 23.5293 16.6683 26.8987 16.6683Z" fill="#CC3300"/>
<path d="M24.1258 12.4639C24.7385 12.4639 25.2351 11.7917 25.2351 10.9624C25.2351 10.1332 24.7385 9.46094 24.1258 9.46094C23.5132 9.46094 23.0166 10.1332 23.0166 10.9624C23.0166 11.7917 23.5132 12.4639 24.1258 12.4639Z" fill="#FF0000"/>
</g>
<defs>
<clipPath id="clip0_2109_219722">
<rect width="33" height="150" fill="white"/>
</clipPath>
</defs>
</svg>
