<svg width="150" height="150" viewBox="0 0 150 150" fill="none" xmlns="http://www.w3.org/2000/svg">
<g clip-path="url(#clip0_2109_220109)">
<path d="M0 149.999L9.71223 107.656H139.209L150 149.999H0Z" fill="#7F7F7F"/>
<path d="M31.2949 149.999L37.7697 107.656H111.151L117.626 149.999H31.2949Z" fill="#B2B2B2"/>
<path d="M57.1943 149.999L59.3526 107.656H87.4102L89.5684 149.999H57.1943Z" fill="#E5E5E5"/>
<path d="M0 149.999L9.71223 107.656H139.209L150 149.999H0Z" stroke="black" stroke-width="0.805065"/>
<path d="M20.5039 71.6224L31.2953 38.2891H117.626L128.418 71.6224H20.5039Z" fill="#7F7F7F"/>
<path d="M44.2441 71.6224L48.5607 38.2891H98.201L104.676 71.6224H44.2441Z" fill="#B2B2B2"/>
<path d="M61.5107 71.6224L65.8273 38.2891H83.0935L85.2518 71.6224H61.5107Z" fill="#E5E5E5"/>
<path d="M20.5039 71.6224L31.2953 38.2891H117.626L128.418 71.6224H20.5039Z" stroke="black" stroke-width="0.805065"/>
<path d="M9.71191 107.661L20.5033 71.625H128.417L139.208 107.661H9.71191Z" fill="#7F0000"/>
<path d="M35.6113 107.661L42.0861 71.625H106.834L111.151 107.661H35.6113Z" fill="#BF0000"/>
<path d="M57.1943 107.661L61.5109 71.625H87.4102L89.5684 107.661H57.1943Z" fill="#FF0000"/>
<path d="M9.71191 107.661L20.5033 71.625H128.417L139.208 107.661H9.71191Z" stroke="black" stroke-width="0.805065"/>
<path d="M31.2949 38.2908L42.0863 5.25781H106.834L117.626 38.2908H31.2949Z" fill="#7F0000"/>
<path d="M48.5615 38.2908L55.0363 5.25781H93.8853L100.36 38.2908H48.5615Z" fill="#BF0000"/>
<path d="M63.6689 38.2908L65.8272 5.25781H83.0934L85.2517 38.2908H63.6689Z" fill="#FF0000"/>
<path d="M31.2949 38.2908L42.0863 5.25781H106.834L117.626 38.2908H31.2949Z" stroke="black" stroke-width="0.805065"/>
<path d="M42.0859 5.25643H106.834V1.95312H42.0859V5.25643Z" fill="#7F7F7F"/>
<path d="M52.8779 5.25643H96.0434V1.95312H52.8779V5.25643Z" fill="#B2B2B2"/>
<path d="M67.9854 5.25643H78.7767V1.95312H67.9854V5.25643Z" fill="#E5E5E5"/>
<path d="M42.0859 5.25643H106.834V1.95312H42.0859V5.25643Z" stroke="black" stroke-width="0.805065"/>
<path d="M52.8779 2.25225H96.0434V0H52.8779V2.25225Z" fill="#7F7F7F"/>
<path d="M59.3525 2.25225H87.4101V0H59.3525V2.25225Z" fill="#B2B2B2"/>
<path d="M70.1436 2.25225H76.6184V0H70.1436V2.25225Z" fill="#E5E5E5"/>
<path d="M52.8779 2.25225H96.0434V0H52.8779V2.25225Z" stroke="black" stroke-width="0.805065"/>
</g>
<defs>
<clipPath id="clip0_2109_220109">
<rect width="150" height="150" fill="white"/>
</clipPath>
</defs>
</svg>
