<svg width="150" height="150" viewBox="0 0 150 150" fill="none" xmlns="http://www.w3.org/2000/svg">
<g clip-path="url(#clip0_2109_219174)">
<path d="M0.600586 148.911V41.3027L25.3754 23.4766V130.868L22.3724 133.042V83.9113L3.75374 97.3896V92.8244L22.3724 79.3461V31.3026L3.75374 44.5635V145.433L0.600586 148.911Z" fill="#999999" stroke="black" stroke-width="0.361338"/>
<path d="M25.375 23.4766H149.249V130.868H146.096V81.7374H28.5282V77.1722H146.096V27.8244H28.5282V130.868H25.375V23.4766Z" fill="#666666" stroke="black" stroke-width="0.361338"/>
<path d="M0.600586 94.998L25.3754 77.1719H149.249L124.474 94.998H0.600586Z" fill="#E5E5E5" stroke="black" stroke-width="0.361338"/>
<path d="M0.600586 41.3026L25.3754 23.4766H149.249L124.474 41.3026H0.600586Z" fill="#E5E5E5" stroke="black" stroke-width="0.361338"/>
<path d="M148.349 65.8672H149.25V77.1715H148.349V65.8672Z" fill="#FFCC00"/>
<path d="M13.0635 75H13.8142V86.087H13.0635V75Z" fill="#FFCC00"/>
<path d="M25.375 65.8672H26.2759V77.1715H25.375V65.8672Z" fill="#FFCC00"/>
<path d="M56.3066 65.8672H57.2075V77.1715H56.3066V65.8672Z" fill="#FFCC00"/>
<path d="M87.2373 65.8672H88.1382V77.1715H87.2373V65.8672Z" fill="#FFCC00"/>
<path d="M118.168 65.8672H119.069V77.1715H118.168V65.8672Z" fill="#FFCC00"/>
<path d="M148.349 12.1719H149.25V23.4762H148.349V12.1719Z" fill="#FFCC00"/>
<path d="M13.0635 21.0859H13.8142V32.3903H13.0635V21.0859Z" fill="#FFCC00"/>
<path d="M25.375 12.1719H26.2759V23.4762H25.375V12.1719Z" fill="#FFCC00"/>
<path d="M56.3066 12.1719H57.2075V23.4762H56.3066V12.1719Z" fill="#FFCC00"/>
<path d="M87.2373 12.1719H88.1382V23.4762H87.2373V12.1719Z" fill="#FFCC00"/>
<path d="M118.168 12.1719H119.069V23.4762H118.168V12.1719Z" fill="#FFCC00"/>
<path d="M149.249 66.9541H25.3754L0.600586 84.9976V83.9107L25.3754 65.8672H149.249V66.9541Z" fill="#FFCC00"/>
<path d="M149.249 72.6104H25.3754L0.600586 90.4365V89.3495L25.3754 71.5234H149.249V72.6104Z" fill="#FFCC00"/>
<path d="M149.249 13.2588H25.3754L0.600586 31.0849V29.998L25.3754 12.1719H149.249V13.2588Z" fill="#FFCC00"/>
<path d="M149.249 18.9151H25.3754L0.600586 36.7412V35.6542L25.3754 17.8281H149.249V18.9151Z" fill="#FFCC00"/>
<path d="M130.631 139.779L136.787 135.431V90.6484L130.631 94.9963V139.779Z" fill="#999999" stroke="black" stroke-width="0.361338"/>
<path d="M130.631 32.3889L136.787 27.8237V0.867188L130.631 5.4324V32.3889Z" fill="#999999" stroke="black" stroke-width="0.361338"/>
<path d="M130.631 86.0904L136.787 81.5251V38.0469L130.631 42.3947V86.0904Z" fill="#999999" stroke="black" stroke-width="0.361338"/>
<path d="M130.631 32.394V5.4375H115.165V32.394H130.631Z" fill="#B2B2B2" stroke="black" stroke-width="0.361338"/>
<path d="M130.631 86.0863V42.3906H115.165V86.0863H130.631Z" fill="#B2B2B2" stroke="black" stroke-width="0.361338"/>
<path d="M130.631 139.783V95H115.165V139.783H130.631Z" fill="#B2B2B2" stroke="black" stroke-width="0.361338"/>
<path d="M118.168 32.3923V18.9141H122.823V32.3923H118.168Z" fill="#7F7F7F" stroke="black" stroke-width="0.361338"/>
<path d="M118.168 86.0876V72.6094H122.823V86.0876H118.168Z" fill="#7F7F7F" stroke="black" stroke-width="0.361338"/>
<path d="M118.168 139.783V126.305H122.823V139.783H118.168Z" fill="#7F7F7F" stroke="black" stroke-width="0.361338"/>
<path d="M122.823 139.783V126.305H127.478V139.783H122.823Z" fill="#999999" stroke="black" stroke-width="0.361338"/>
<path d="M122.823 32.3923V18.9141H127.478V32.3923H122.823Z" fill="#999999" stroke="black" stroke-width="0.361338"/>
<path d="M122.823 86.0876V72.6094H127.478V86.0876H122.823Z" fill="#999999" stroke="black" stroke-width="0.361338"/>
<path d="M115.165 5.4324H130.631L136.787 0.867188H121.321L115.165 5.4324Z" fill="#E5E5E5" stroke="black" stroke-width="0.361338"/>
<path d="M124.475 148.911V41.3027L149.249 23.4766V130.868L146.096 133.042V83.9113L127.478 97.3896V92.8244L146.096 79.3461V31.3026L127.478 44.5635V146.52L124.475 148.911Z" fill="#999999" stroke="black" stroke-width="0.361338"/>
<path d="M136.036 75H136.787V86.087H136.036V75Z" fill="#FFCC00"/>
<path d="M0.600586 83.9141H1.50149V95.001H0.600586V83.9141Z" fill="#FFCC00"/>
<path d="M31.6816 83.9141H32.4324V95.001H31.6816V83.9141Z" fill="#FFCC00"/>
<path d="M62.6123 83.9141H63.3631V95.001H62.6123V83.9141Z" fill="#FFCC00"/>
<path d="M93.5439 83.9141H94.2947V95.001H93.5439V83.9141Z" fill="#FFCC00"/>
<path d="M123.573 83.9141H124.474V95.001H123.573V83.9141Z" fill="#FFCC00"/>
<path d="M136.036 21.0859H136.787V32.3903H136.036V21.0859Z" fill="#FFCC00"/>
<path d="M0.600586 30.2188H1.50149V41.3057H0.600586V30.2188Z" fill="#FFCC00"/>
<path d="M31.6816 30.2188H32.4324V41.3057H31.6816V30.2188Z" fill="#FFCC00"/>
<path d="M62.6123 30.2188H63.3631V41.3057H62.6123V30.2188Z" fill="#FFCC00"/>
<path d="M93.5439 30.2188H94.2947V41.3057H93.5439V30.2188Z" fill="#FFCC00"/>
<path d="M123.573 30.2188H124.474V41.3057H123.573V30.2188Z" fill="#FFCC00"/>
<path d="M0.600586 41.3047H124.474V148.913H121.321V99.5656H3.75374V95.0003H121.321V45.8699H3.75374V148.913H0.600586V41.3047Z" fill="#B2B2B2" stroke="black" stroke-width="0.361338"/>
<path d="M0.600586 30.2154H124.474L149.249 12.1719V13.2588L124.474 31.3023H0.600586V30.2154Z" fill="#FFCC00"/>
<path d="M0.600586 35.6542H124.474L149.249 17.8281V18.9151L124.474 36.7412H0.600586V35.6542Z" fill="#FFCC00"/>
<path d="M0.600586 83.9107H124.474L149.249 65.8672V66.9541L124.474 84.9976H0.600586V83.9107Z" fill="#FFCC00"/>
<path d="M0.600586 89.5669H124.474L149.249 71.5234V72.6104L124.474 90.6539H0.600586V89.5669Z" fill="#FFCC00"/>
<path d="M30.9307 80.4324V45.8672" stroke="black" stroke-width="0.361338"/>
<path d="M33.1836 78.2585V45.8672" stroke="black" stroke-width="0.361338"/>
<path d="M30.9307 78.2599L33.1829 76.0859" stroke="black" stroke-width="0.361338"/>
<path d="M30.9307 48.0411L33.1829 45.8672" stroke="black" stroke-width="0.361338"/>
<path d="M30.9307 51.3067L33.1829 49.1328" stroke="black" stroke-width="0.361338"/>
<path d="M30.9307 54.7833L33.1829 52.6094" stroke="black" stroke-width="0.361338"/>
<path d="M30.9307 58.2585L33.1829 55.8672" stroke="black" stroke-width="0.361338"/>
<path d="M30.9307 61.5241L33.1829 59.1328" stroke="black" stroke-width="0.361338"/>
<path d="M30.9307 64.7833L33.1829 62.6094" stroke="black" stroke-width="0.361338"/>
<path d="M30.9307 68.2585L33.1829 65.8672" stroke="black" stroke-width="0.361338"/>
<path d="M30.9307 71.5255L33.1829 69.3516" stroke="black" stroke-width="0.361338"/>
<path d="M30.9307 74.7833L33.1829 72.6094" stroke="black" stroke-width="0.361338"/>
<path d="M30.9307 134.345V99.5625" stroke="black" stroke-width="0.361338"/>
<path d="M33.1836 131.954V99.5625" stroke="black" stroke-width="0.361338"/>
<path d="M30.9307 131.955L33.1829 129.781" stroke="black" stroke-width="0.361338"/>
<path d="M30.9307 101.736L33.1829 99.5625" stroke="black" stroke-width="0.361338"/>
<path d="M30.9307 105.219L33.1829 102.828" stroke="black" stroke-width="0.361338"/>
<path d="M30.9307 108.479L33.1829 106.305" stroke="black" stroke-width="0.361338"/>
<path d="M30.9307 111.954L33.1829 109.562" stroke="black" stroke-width="0.361338"/>
<path d="M30.9307 115.221L33.1829 113.047" stroke="black" stroke-width="0.361338"/>
<path d="M30.9307 118.479L33.1829 116.305" stroke="black" stroke-width="0.361338"/>
<path d="M30.9307 121.954L33.1829 119.562" stroke="black" stroke-width="0.361338"/>
<path d="M30.9307 125.221L33.1829 123.047" stroke="black" stroke-width="0.361338"/>
<path d="M30.9307 128.696L33.1829 126.305" stroke="black" stroke-width="0.361338"/>
<path d="M33.9334 24.5625H40.8403L37.0866 27.8234H30.1797L33.9334 24.5625Z" fill="#666666" stroke="black" stroke-width="0.361338"/>
<path d="M26.276 78.2578H33.1829L29.279 81.5187H22.3721L26.276 78.2578Z" fill="#666666" stroke="black" stroke-width="0.361338"/>
</g>
<defs>
<clipPath id="clip0_2109_219174">
<rect width="150" height="150" fill="white"/>
</clipPath>
</defs>
</svg>
