<svg width="150" height="150" viewBox="0 0 150 150" fill="none" xmlns="http://www.w3.org/2000/svg">
<g clip-path="url(#clip0_2109_220041)">
<path d="M0 150L19.8895 0H130.11L150 150H0Z" fill="#996633" stroke="black" stroke-width="0.705504"/>
<path d="M9.94434 150L23.204 0H106.077L123.48 150H9.94434Z" fill="#CC6633"/>
<path d="M26.5195 150L33.1494 0H76.2433L82.8731 150H26.5195Z" fill="#FF6633"/>
<path d="M0 150L19.8895 0H130.11L150 150H0Z" stroke="black" stroke-width="0.705504"/>
<path d="M74.5858 1.2012C104.794 1.2012 129.282 0.932303 129.282 0.600601C129.282 0.268898 104.794 0 74.5858 0C44.3779 0 19.8896 0.268898 19.8896 0.600601C19.8896 0.932303 44.3779 1.2012 74.5858 1.2012Z" fill="#CC6633" stroke="black" stroke-width="0.705504"/>
<path d="M74.5859 0.600601C97.4706 0.600601 116.022 0.466152 116.022 0.3003C116.022 0.134449 97.4706 0 74.5859 0C51.7012 0 33.1494 0.134449 33.1494 0.3003C33.1494 0.466152 51.7012 0.600601 74.5859 0.600601Z" fill="black" stroke="black" stroke-width="0.705504"/>
<path d="M19.8896 6.60938H130.111" stroke="#663300" stroke-width="0.705504"/>
<path d="M19.8896 13.2109H130.111" stroke="#663300" stroke-width="0.705504"/>
<path d="M19.8896 20.4219H130.111" stroke="#663300" stroke-width="0.705504"/>
<path d="M19.8896 27.1797H130.111" stroke="#663300" stroke-width="0.705504"/>
<path d="M19.8896 33.7812H130.111" stroke="#663300" stroke-width="0.705504"/>
<path d="M19.8896 40.9922H130.111" stroke="#663300" stroke-width="0.705504"/>
<path d="M19.8896 47.75H130.111" stroke="#663300" stroke-width="0.705504"/>
<path d="M19.8896 54.3516H130.111" stroke="#663300" stroke-width="0.705504"/>
<path d="M19.8896 60.9609H130.111" stroke="#663300" stroke-width="0.705504"/>
<path d="M19.8896 68.3203H130.111" stroke="#663300" stroke-width="0.705504"/>
<path d="M19.8896 74.9219H130.111" stroke="#663300" stroke-width="0.705504"/>
<path d="M19.8896 81.5312H130.111" stroke="#663300" stroke-width="0.705504"/>
<path d="M19.8896 88.2891H130.111" stroke="#663300" stroke-width="0.705504"/>
<path d="M19.8896 95.4922H130.111" stroke="#663300" stroke-width="0.705504"/>
<path d="M19.8896 102.102H130.111" stroke="#663300" stroke-width="0.705504"/>
<path d="M19.8896 108.859H130.111" stroke="#663300" stroke-width="0.705504"/>
<path d="M19.8896 116.062H130.111" stroke="#663300" stroke-width="0.705504"/>
<path d="M19.8896 122.672H130.111" stroke="#663300" stroke-width="0.705504"/>
<path d="M19.8896 129.43H130.111" stroke="#663300" stroke-width="0.705504"/>
<path d="M19.8896 136.039H130.111" stroke="#663300" stroke-width="0.705504"/>
<path d="M19.8896 143.242H130.111" stroke="#663300" stroke-width="0.705504"/>
</g>
<defs>
<clipPath id="clip0_2109_220041">
<rect width="150" height="150" fill="white"/>
</clipPath>
</defs>
</svg>
