<svg width="150" height="150" viewBox="0 0 150 150" fill="none" xmlns="http://www.w3.org/2000/svg">
<g clip-path="url(#clip0_2109_220176)">
<path d="M11.8862 148.499L9.375 144.745L8.03571 140.841L7.36607 136.036L8.70536 131.982L9.04018 131.832L6.86384 127.628L5.52455 123.273L5.69196 118.619L7.8683 115.015L9.04018 114.414L6.52902 110.511L4.01786 106.306L2.34375 102.102L3.01339 97.5976L6.36161 95.7958L5.35714 91.4414L4.01786 87.3874L2.34375 82.8829L1.00446 77.9279L0.334821 72.973V68.3183L1.67411 64.1141L2.84598 62.3123L1.33929 58.2583L0.167411 53.003L0 51.3514V49.8498V48.3483L0.669643 43.3934L2.34375 39.4895L5.18973 35.7357L8.20312 32.5826L9.70982 30.6306L8.03571 26.7267L10.2121 22.5225L13.8951 18.9189L18.4152 15.6156L23.2701 12.7628L27.4554 10.3604L31.1384 8.25826L34.1518 4.2042L38.3371 1.65165L43.6942 0.3003L48.2143 0H49.8884H51.3951L57.7567 0.3003L62.6116 0.600601L68.6384 1.2012L74.1629 1.35135L74.3304 0.900901L74.6652 0.600601L80.5246 0.45045L86.2165 1.2012L92.9129 2.4024L97.6004 3.45345L102.455 4.35435L107.31 5.25526L111.83 6.15616L117.857 7.20721L123.884 7.50751L125.391 7.20721L125.893 6.75676L126.06 6.30631L130.915 6.75676L135.1 8.25826L138.783 11.4114L142.801 14.1141L145.48 14.4144L147.991 18.3183L148.158 23.2733L146.987 27.4775L145.647 31.3814V36.3363L147.489 38.5886L149.498 43.2432L149.833 45.1952L150 46.8468V48.4985L147.489 53.003L142.467 55.5556L137.779 56.6066L133.092 57.3574L127.734 58.5586L124.386 62.012L126.06 65.3153L122.21 68.3183L116.853 68.7688L110.324 68.6186L105.134 68.3183L100.112 68.1682L94.5871 68.3183L90.067 69.8198L86.0491 71.7718L80.3571 71.1712L75 70.7207L69.308 70.8709L63.7835 72.3724L59.096 75.6757L56.0826 79.5796L54.4085 84.0841L50.2232 86.7868L46.5402 89.3393L43.0246 92.4925L42.1875 96.6967L40.5134 100.751L38.0022 104.955L35.9933 108.709L33.9844 112.462L34.654 117.117L35.1562 121.321L34.4866 126.126L32.9799 130.631L32.6451 131.832L33.817 135.736V140.541L32.3103 144.444L30.1339 148.198L29.7991 148.499L25.1116 149.55L21.4286 149.85H20.9263H20.2567L15.2344 149.55L11.8862 148.499Z" fill="#333333" stroke="black" stroke-width="0.317091"/>
<path d="M15.2344 144.144L12.5558 140.841L10.3795 136.786L9.70982 132.132L13.2254 129.279L14.3973 130.18L12.5558 125.976L10.8817 121.471L9.87723 116.816L9.70982 113.813L13.5603 115.765L13.8951 115.615L13.058 111.261L11.5513 106.306L10.3795 101.801L10.0446 97.1468L11.0491 92.6423L9.70982 88.1378L7.8683 84.0838L5.85937 79.8796L4.6875 75.6753L7.70089 73.4231L10.5469 77.1768L12.221 78.5282H12.3884L12.5558 78.2279L11.5513 73.5732L9.70982 68.318L8.03571 64.1138L6.52902 59.9096L5.18973 55.4051L4.85491 52.8525L3.51562 50.1498V49.3991V48.6483L5.18973 44.5943L7.53348 41.1408L10.3795 37.3871L13.5603 33.7835L16.2388 30.0297L18.4152 26.4261L18.75 25.6753L17.9129 21.4711L21.0937 17.8675L25.279 15.0147L29.4643 12.9126L33.817 10.9606L38.1696 9.00868L40.1786 8.25793L40.5134 3.90358L42.1875 3.45312H43.192H44.3638L49.8884 3.90358L54.7433 4.65433L59.7656 5.25493L64.9554 5.85553L71.1496 6.00568L76.1719 5.10478L81.0268 6.00568L85.5469 7.95763L90.904 9.00868L96.4286 9.60928H103.627L109.487 9.45913L114.342 8.70838L118.359 10.8105L122.042 14.4141L125.056 17.7174L128.404 21.4711L129.408 22.5222L133.426 24.4741L134.933 28.378L135.268 32.8826V33.7835V34.5342V38.8886L135.1 41.7414L129.743 43.6934L124.721 44.7444H118.359L112.333 44.1438L106.641 43.3931L101.283 43.2429L96.0937 44.294L91.0714 47.297L88.7277 49.8495L88.5603 50.1498L88.2254 50.4501L83.7054 51.6513L78.5156 51.9516L72.3214 52.2519L67.4665 52.8525L62.6116 53.9036L58.4263 55.5552L53.5714 58.7084L51.2277 62.312L51.3951 62.6123L49.5536 67.1168L46.5402 70.8705L43.0246 75.2249L40.1786 78.5282L36.6629 82.7324L33.9844 86.336L32.6451 89.4892L30.4687 93.3931L33.3147 96.8465L35.1562 101.351L34.4866 105.705L32.6451 110.06L30.4687 113.813L31.9754 117.567L32.4777 122.522L32.1429 126.877L29.7991 129.279L30.8036 133.783L30.971 138.738L29.7991 142.792L25.279 144.744L21.7634 145.045L20.9263 145.195L20.0893 145.045L15.2344 144.144Z" fill="#666666"/>
<path d="M16.5734 136.189L16.2386 131.084L14.7319 127.03L15.9037 122.526L17.0756 118.021L18.2475 113.667L18.9171 109.012L17.7453 105.408L13.8948 106.009V100.754L15.2341 95.7988L14.0622 91.1441L12.7229 86.7898L12.2207 84.5375V83.9369V83.4865L15.2341 81.5345L17.243 77.6306L18.9171 73.5766L20.089 69.3723V64.7177L18.9171 60.5135L17.4104 57.2102L18.4149 52.8558L20.089 48.9519L21.4283 44.7477L18.0801 41.4444L15.2341 39.9429L14.7319 38.1411L19.252 36.3393L23.9395 34.988L27.4551 31.8348L27.6225 27.03L29.7988 23.1261L33.6493 20.7237L36.3278 16.8198L36.6627 14.4174L40.6805 11.1141L45.368 9.46244L50.8926 8.41139L53.7386 8.11109L55.0778 7.96094H56.5845L61.7743 8.71169L65.7921 10.3633L68.4707 14.5675L68.6381 15.6186L67.4662 16.2192L71.8189 14.8678L76.5064 13.5165L82.3658 12.4654L88.8948 11.7147L95.5912 11.5645L102.12 12.4654L107.98 14.8678L112.667 18.7717L115.011 22.5255L120.201 22.3754L124.888 23.2763L128.739 25.5285L129.241 26.4294L129.408 27.03L129.241 27.4805L126.227 30.6336L120.87 32.7357L115.681 34.3874L110.826 35.7387L105.636 36.3393L99.7765 36.6396L93.9171 36.4895L87.7229 36.3393L81.8636 36.1892L76.1716 36.4895L70.9819 37.0901L66.4618 38.4414L62.6113 40.6937L61.6069 41.7447L58.7609 45.1982L54.5756 48.5015L50.5578 51.6546L46.8747 55.1081L44.1961 58.5615L42.8569 62.7657L43.8613 65.6186V65.9189L40.3457 69.2222L35.993 72.3754L32.31 74.9279L27.7899 78.5315L24.4417 81.985L23.772 86.1892L26.618 87.6907L27.7899 92.4955L27.4551 97.9009L26.7854 103.006L25.6136 107.961L24.4417 112.315L22.6002 116.369L22.2653 116.82L27.2877 118.321L29.7988 122.225L28.7944 124.928L28.2921 125.078L27.7899 124.928L26.4506 129.282L26.7854 133.937L26.2832 137.541H26.1158L24.2743 136.189L20.4238 138.592L19.5868 139.042L19.0845 139.192H18.5823L16.5734 136.189Z" fill="#999999"/>
</g>
<defs>
<clipPath id="clip0_2109_220176">
<rect width="150" height="150" fill="white"/>
</clipPath>
</defs>
</svg>
