<svg width="150" height="150" viewBox="0 0 150 150" fill="none" xmlns="http://www.w3.org/2000/svg">
<g clip-path="url(#clip0_2109_219483)">
<path d="M147.598 102.472L144.595 99.1012V13.8203H147.748V99.1012H150V102.472H147.598Z" fill="#4C4C4C"/>
<path d="M127.177 150.004L124.174 146.633V61.689L127.177 56.6328V146.633H129.429V150.004H127.177Z" fill="#4C4C4C"/>
<path d="M88.5889 102.472L85.5859 99.1012V13.8203H88.5889V99.1012H90.8412V102.472H88.5889Z" fill="#4C4C4C"/>
<path d="M65.0147 150.002L62.0117 146.631V61.6875H65.1649V146.631H67.4171V150.002H65.0147Z" fill="#4C4C4C"/>
<path d="M30.1798 102.472L27.1768 99.1012V13.8203H30.3299V99.1012H32.432V102.472H30.1798Z" fill="#4C4C4C"/>
<path d="M7.50789 150.002L4.50488 146.631V61.6875H7.50789V146.631H9.76014V150.002H7.50789Z" fill="#4C4C4C"/>
<path d="M140.09 102.472V99.1012H142.342V13.8203H145.345V99.1012H147.597V102.472H140.09Z" fill="#999999" stroke="black" stroke-width="0.449944"/>
<path d="M119.67 150.002V146.631H121.922V61.6875H124.925V146.631H127.177V150.002H119.67Z" fill="#999999" stroke="black" stroke-width="0.449944"/>
<path d="M80.9307 102.472V99.1012H83.3331V13.8203H86.3361V99.1012H88.5883V102.472H80.9307Z" fill="#999999" stroke="black" stroke-width="0.449944"/>
<path d="M57.5078 150.002V146.631H59.7601V61.6875H62.9132V146.631H65.0153V150.002H57.5078Z" fill="#999999" stroke="black" stroke-width="0.449944"/>
<path d="M22.6729 102.472V99.1012H24.9251V13.8203H27.9281V99.1012H30.1804V102.472H22.6729Z" fill="#999999" stroke="black" stroke-width="0.449944"/>
<path d="M0 150.002V146.631H2.25225V61.6875H5.25526V146.631H7.50751V150.002H0Z" fill="#999999" stroke="black" stroke-width="0.449944"/>
<path d="M3.75391 20.5618L24.9251 0V1.68539L3.75391 22.5843V20.5618Z" fill="#E5B200"/>
<path d="M3.75391 31.0096L24.9251 7.41406V9.09946L3.75391 32.695V31.0096Z" fill="#E5B200"/>
<path d="M9.00879 15.8428L9.75954 13.8203V32.6967L9.00879 34.3821V15.8428Z" fill="#E5B200"/>
<path d="M15.165 10.451L15.9158 8.76562V24.2712L15.165 25.9566V10.451Z" fill="#E5B200"/>
<path d="M20.4199 5.39633L21.1707 3.71094V19.2166L20.4199 20.5649V5.39633Z" fill="#E5B200"/>
<path d="M2.25195 41.1237H124.925L147.597 13.8203H24.9246L2.25195 41.1237Z" fill="#B2B2B2" stroke="black" stroke-width="0.449944"/>
<path d="M2.25195 20.5625H3.75345V41.1243H2.25195V20.5625Z" fill="#FFCC00"/>
<path d="M123.424 20.5625H124.925V41.1243H123.424V20.5625Z" fill="#FFCC00"/>
<path d="M26.4268 20.5625H27.9283V41.1243H26.4268V20.5625Z" fill="#FFCC00"/>
<path d="M50.751 20.5625H52.2525V41.1243H50.751V20.5625Z" fill="#FFCC00"/>
<path d="M74.9248 20.5625H76.4263V41.1243H74.9248V20.5625Z" fill="#FFCC00"/>
<path d="M99.0996 20.5625H100.601V41.1243H99.0996V20.5625Z" fill="#FFCC00"/>
<path d="M146.096 0.335938H147.597V13.8191H146.096V0.335938Z" fill="#BF8C00"/>
<path d="M24.9248 0.335938H26.4263V13.8191H24.9248V0.335938Z" fill="#BF8C00"/>
<path d="M49.249 0.335938H50.7505V13.8191H49.249V0.335938Z" fill="#BF8C00"/>
<path d="M73.4238 0.335938H74.9253V13.8191H73.4238V0.335938Z" fill="#BF8C00"/>
<path d="M97.5977 0.335938H99.0992V13.8191H97.5977V0.335938Z" fill="#BF8C00"/>
<path d="M121.922 0.335938H123.423V13.8191H121.922V0.335938Z" fill="#BF8C00"/>
<path d="M3.75391 20.5625H123.424V22.585H3.75391V20.5625Z" fill="#FFCC00"/>
<path d="M3.75391 31.0078H123.424V32.6932H3.75391V31.0078Z" fill="#FFCC00"/>
<path d="M130.931 15.8428L131.681 13.8203V32.6967L130.931 34.3821V15.8428Z" fill="#E5B200"/>
<path d="M26.4268 0.335938H146.096V1.68425H26.4268V0.335938Z" fill="#BF8C00"/>
<path d="M26.4268 7.07812H146.096V8.42644H26.4268V7.07812Z" fill="#BF8C00"/>
<path d="M124.925 20.5595L146.096 0.671875V2.69435L124.925 22.582V20.5595Z" fill="#E5B200"/>
<path d="M124.925 31.0107L146.096 7.07812V8.76352L124.925 32.6961V31.0107Z" fill="#E5B200"/>
<path d="M2.25195 41.125H124.925V61.6868H2.25195V41.125Z" fill="#7F7F7F" stroke="black" stroke-width="0.449944"/>
<path d="M137.087 10.451L137.838 8.76562V24.2712L137.087 25.9566V10.451Z" fill="#E5B200"/>
<path d="M142.343 5.39633L143.094 3.71094V19.2166L142.343 20.5649V5.39633Z" fill="#E5B200"/>
<path d="M124.925 41.1237V61.6855L147.597 29.3259V13.8203L124.925 41.1237Z" fill="#4C4C4C" stroke="black" stroke-width="0.449944"/>
<path d="M5.25488 46.1797H121.922V56.292H5.25488V46.1797Z" fill="#333333"/>
<path d="M127.177 42.8064V54.9413L146.096 27.6379V19.2109L127.177 42.8064Z" fill="black"/>
</g>
<defs>
<clipPath id="clip0_2109_219483">
<rect width="150" height="150" fill="white"/>
</clipPath>
</defs>
</svg>
