<svg width="150" height="150" viewBox="0 0 150 150" fill="none" xmlns="http://www.w3.org/2000/svg">
<g clip-path="url(#clip0_2109_221117)">
<path d="M0 150V0H150V150H6.15616V143.694H143.694V78.0781H134.384V143.694H128.078V78.0781H115.616V143.694H109.309V78.0781H96.8468V143.694H90.5405V78.0781H78.0781V143.694H71.7718V78.0781H59.3093V143.694H53.003V78.0781H40.5405V143.694H34.3844V78.0781H21.7718V143.694H15.6156V78.0781H6.15616V71.7718H15.6156V6.15616H21.7718V71.7718H34.3844V6.15616H40.5405V71.7718H53.003V6.15616H59.3093V71.7718H71.7718V6.15616H78.0781V71.7718H90.5405V6.15616H96.8468V71.7718H109.309V6.15616H115.616V71.7718H128.078V6.15616H134.384V71.7718H143.694V6.15616H6.15616V150H0Z" fill="#7F7F7F"/>
<path d="M0 0H150V150H0V0Z" stroke="black" stroke-width="0.3003"/>
<path d="M143.694 6.15625V71.7719H134.234" stroke="white" stroke-width="0.3003"/>
<path d="M128.078 6.15625V71.7719H115.466" stroke="white" stroke-width="0.3003"/>
<path d="M109.309 6.15625V71.7719H96.8467" stroke="white" stroke-width="0.3003"/>
<path d="M90.5406 6.15625V71.7719H78.0781" stroke="white" stroke-width="0.3003"/>
<path d="M71.772 6.15625V71.7719H59.3096" stroke="white" stroke-width="0.3003"/>
<path d="M53.0035 6.15625V71.7719H40.541" stroke="white" stroke-width="0.3003"/>
<path d="M34.3841 6.15625V71.7719H21.7715" stroke="white" stroke-width="0.3003"/>
<path d="M15.6157 6.15625V71.7719H6.15625" stroke="white" stroke-width="0.3003"/>
<path d="M143.694 78.0781V143.694H134.234" stroke="white" stroke-width="0.3003"/>
<path d="M128.078 78.0781V143.694H115.466" stroke="white" stroke-width="0.3003"/>
<path d="M109.309 78.0781V143.694H96.8467" stroke="white" stroke-width="0.3003"/>
<path d="M90.5406 78.0781V143.694H78.0781" stroke="white" stroke-width="0.3003"/>
<path d="M71.772 78.0781V143.694H59.3096" stroke="white" stroke-width="0.3003"/>
<path d="M53.0035 78.0781V143.694H40.541" stroke="white" stroke-width="0.3003"/>
<path d="M34.3841 78.0781V143.694H21.7715" stroke="white" stroke-width="0.3003"/>
<path d="M15.6157 78.0781V143.694H6.15625" stroke="white" stroke-width="0.3003"/>
<path d="M6.15625 143.694V78.0781H15.6157" stroke="black" stroke-width="0.3003"/>
<path d="M21.7715 143.694V78.0781H34.3841" stroke="black" stroke-width="0.3003"/>
<path d="M40.541 143.694V78.0781H53.0035" stroke="black" stroke-width="0.3003"/>
<path d="M59.3096 143.694V78.0781H71.772" stroke="black" stroke-width="0.3003"/>
<path d="M78.0781 143.694V78.0781H90.5406" stroke="black" stroke-width="0.3003"/>
<path d="M96.8467 143.694V78.0781H109.309" stroke="black" stroke-width="0.3003"/>
<path d="M115.466 143.694V78.0781H128.078" stroke="black" stroke-width="0.3003"/>
<path d="M134.234 143.694V78.0781H143.694" stroke="black" stroke-width="0.3003"/>
<path d="M6.15625 71.7719V6.15625H15.6157" stroke="black" stroke-width="0.3003"/>
<path d="M21.7715 71.7719V6.15625H34.3841" stroke="black" stroke-width="0.3003"/>
<path d="M40.541 71.7719V6.15625H53.0035" stroke="black" stroke-width="0.3003"/>
<path d="M59.3096 71.7719V6.15625H71.772" stroke="black" stroke-width="0.3003"/>
<path d="M78.0781 71.7719V6.15625H90.5406" stroke="black" stroke-width="0.3003"/>
<path d="M96.8467 71.7719V6.15625H109.309" stroke="black" stroke-width="0.3003"/>
<path d="M115.466 71.7719V6.15625H128.078" stroke="black" stroke-width="0.3003"/>
<path d="M134.234 71.7719V6.15625H143.694" stroke="black" stroke-width="0.3003"/>
</g>
<defs>
<clipPath id="clip0_2109_221117">
<rect width="150" height="150" fill="white"/>
</clipPath>
</defs>
</svg>
