<svg width="150" height="150" viewBox="0 0 150 150" fill="none" xmlns="http://www.w3.org/2000/svg">
<g clip-path="url(#clip0_2109_218349)">
<path d="M118.806 69.3672L132.744 81.9798L146.848 69.3672" stroke="black" stroke-width="0.315685"/>
<path d="M56.084 113.062L74.9999 127.177L93.7499 113.062L112.5 127.177L131.25 113.062" stroke="black" stroke-width="0.315685"/>
<path d="M56.084 127.325L74.9999 113.211L93.7499 127.325L112.5 113.211L131.25 127.325" stroke="black" stroke-width="0.315685"/>
<path d="M59.2367 106.156L46.792 114.565" stroke="black" stroke-width="0.315685"/>
<path d="M46.792 106.156L59.2367 114.565" stroke="black" stroke-width="0.315685"/>
<path d="M118.806 66.5169V63.6641" stroke="black" stroke-width="0.315685"/>
<path d="M146.848 66.5169V63.6641" stroke="black" stroke-width="0.315685"/>
<path d="M128.098 66.5169V63.6641" stroke="black" stroke-width="0.315685"/>
<path d="M137.556 66.5169V63.6641" stroke="black" stroke-width="0.315685"/>
<path d="M77.8203 9.90625V66.3627" stroke="black" stroke-width="0.315685"/>
<path d="M82.4669 25.9795L75.166 16.8203" stroke="black" stroke-width="0.315685"/>
<path d="M73.6729 25.9795L80.9737 16.8203" stroke="black" stroke-width="0.315685"/>
<path d="M84.2921 34.833L73.3408 26.875" stroke="black" stroke-width="0.315685"/>
<path d="M72.0137 34.833L82.965 26.875" stroke="black" stroke-width="0.315685"/>
<path d="M71.6816 34.8359L86.2834 43.3945" stroke="black" stroke-width="0.315685"/>
<path d="M84.6234 34.8359L70.3535 43.3945" stroke="black" stroke-width="0.315685"/>
<path d="M69.8564 45.3438L88.2746 55.554" stroke="black" stroke-width="0.315685"/>
<path d="M86.4493 45.3438L67.8652 55.554" stroke="black" stroke-width="0.315685"/>
<path d="M67.3672 56.6094L90.5973 66.5193" stroke="black" stroke-width="0.315685"/>
<path d="M88.6062 56.6094L65.542 66.5193" stroke="black" stroke-width="0.315685"/>
<path d="M0 74.9219V87.6846" stroke="black" stroke-width="0.315685"/>
<path d="M129.757 66.5151V46.6953H131.416L137.224 53.6022L136.062 54.5031L131.416 48.7974V66.5151H129.757Z" fill="#E5E5E5" stroke="black" stroke-width="0.315685"/>
<path d="M77.6553 20.1172H78.4849V21.0181H77.6553V20.1172Z" fill="black" stroke="black" stroke-width="0.315685"/>
<path d="M77.3232 38.1406H79.1485V39.1917H77.3232V38.1406Z" fill="black" stroke="black" stroke-width="0.315685"/>
<path d="M77.3232 49.3984H79.1485V50.4495H77.3232V49.3984Z" fill="black" stroke="black" stroke-width="0.315685"/>
<path d="M77.3232 60.6641H79.1485V61.8653H77.3232V60.6641Z" fill="black" stroke="black" stroke-width="0.315685"/>
<path d="M77.3232 30.0312H79.1485V30.9322H77.3232V30.0312Z" fill="black" stroke="black" stroke-width="0.315685"/>
<path d="M73.3408 25.375H82.7988V26.8765H73.3408V25.375Z" fill="#999999" stroke="black" stroke-width="0.315685"/>
<path d="M68.6943 55.1016H87.4443V56.4529H68.6943V55.1016Z" fill="#999999" stroke="black" stroke-width="0.315685"/>
<path d="M131.084 113.062H137.555V149.999H131.084V113.062Z" fill="#666666" stroke="black" stroke-width="0.315685"/>
<path d="M49.7783 113.062H56.0836V149.999H49.7783V113.062Z" fill="#666666" stroke="black" stroke-width="0.315685"/>
<path d="M65.542 79.1272V70.7188H90.5973V79.1272H65.542Z" fill="#B2B2B2" stroke="black" stroke-width="0.315685"/>
<path d="M62.3896 113.067V79.1328H100.056V90.5442H118.806V84.8385L146.848 84.9887L137.556 93.3971V113.067H62.3896Z" fill="#B2B2B2" stroke="black" stroke-width="0.315685"/>
<path d="M81.3057 101.804V99.1016H140.708V101.804H81.3057Z" fill="black" stroke="black" stroke-width="0.315685"/>
<path d="M65.542 70.7213V65.0156H90.5973V70.7213H65.542Z" fill="#E5E5E5" stroke="black" stroke-width="0.315685"/>
<path d="M59.4023 113.063V107.508H62.3891V113.063H59.4023Z" fill="#333333" stroke="black" stroke-width="0.315685"/>
<path d="M43.6396 113.063V107.508H46.7923V113.063H43.6396Z" fill="#333333" stroke="black" stroke-width="0.315685"/>
<path d="M68.6943 87.6875H71.6811V107.507H68.6943V87.6875Z" fill="black" stroke="black" stroke-width="0.315685"/>
<path d="M100.056 99.0976V90.5391H118.806V99.0976H100.056Z" fill="black" stroke="black" stroke-width="0.315685"/>
<path d="M81.3057 113.064V108.859H140.708V113.064H81.3057Z" fill="black" stroke="black" stroke-width="0.315685"/>
<path d="M40.6523 115.915V113.062H65.5417V115.915H40.6523Z" fill="#7F7F7F" stroke="black" stroke-width="0.315685"/>
<path d="M40.6523 107.509V104.656H65.5417V107.509H40.6523Z" fill="#7F7F7F" stroke="black" stroke-width="0.315685"/>
<path d="M81.3057 108.862V101.805H140.708V108.862H81.3057Z" fill="#7F7F7F" stroke="black" stroke-width="0.315685"/>
<path d="M96.7363 93.3919V90.5391H121.792V93.3919H96.7363Z" fill="#7F7F7F" stroke="black" stroke-width="0.315685"/>
<path d="M59.2363 81.9857V79.1328H103.042V81.9857H59.2363Z" fill="#7F7F7F" stroke="black" stroke-width="0.315685"/>
<path d="M56.084 127.327H84.292V113.062H87.4446V127.327H93.7499V113.062H96.7366V127.327H109.347V113.062H112.5V127.327H121.792V113.062H124.945V127.327H131.25V131.531H56.084V127.327Z" fill="black" stroke="black" stroke-width="0.315685"/>
<path d="M49.9443 115.914V125.974L56.0837 121.62V115.914H49.9443Z" fill="black" stroke="black" stroke-width="0.315685"/>
<path d="M131.416 113.062V123.123L137.555 118.918V113.062H131.416Z" fill="black" stroke="black" stroke-width="0.315685"/>
<path d="M115.652 84.9874V81.9844H150V84.9874H115.652Z" fill="#7F7F7F" stroke="black" stroke-width="0.315685"/>
<path d="M115.652 69.3702V66.3672H150V69.3702H115.652Z" fill="#7F7F7F" stroke="black" stroke-width="0.315685"/>
<path d="M117.146 81.9798V69.3672H120.299V81.9798H117.146Z" fill="#4C4C4C" stroke="black" stroke-width="0.315685"/>
<path d="M131.416 81.9798V69.3672H134.403V81.9798H131.416Z" fill="#4C4C4C" stroke="black" stroke-width="0.315685"/>
<path d="M145.52 81.9798V69.3672H148.506V81.9798H145.52Z" fill="#4C4C4C" stroke="black" stroke-width="0.315685"/>
<path d="M118.806 84.9844V87.6871H143.695L146.848 84.9844H118.806Z" fill="black" stroke="black" stroke-width="0.315685"/>
<path d="M104.701 90.5435L107.854 57.9609H109.347L112.5 90.5435L106.195 76.4294L110.011 66.5195H107.19L111.006 76.4294L104.701 90.5435Z" stroke="black" stroke-width="0.315685"/>
<path d="M106.194 76.4297H111.006" stroke="black" stroke-width="0.315685"/>
<path d="M110.011 66.5195L107.854 57.9609" stroke="black" stroke-width="0.315685"/>
<path d="M107.024 66.5195L109.347 57.9609" stroke="black" stroke-width="0.315685"/>
<path d="M107.854 57.9544V55.1016H109.347V57.9544H107.854Z" fill="black" stroke="black" stroke-width="0.315685"/>
<path d="M115.652 77.7812H150V79.1326H115.652V77.7812Z" fill="#CCCCCC" stroke="black" stroke-width="0.315685"/>
<path d="M115.652 62.3125H150V63.6639H115.652V62.3125Z" fill="#CCCCCC" stroke="black" stroke-width="0.315685"/>
<path d="M65.542 65.0129L75 8.40625H81.1393L90.5973 65.0129H87.4446L79.646 11.2591H76.4933L68.6946 65.0129H65.542Z" fill="#B2B2B2" stroke="black" stroke-width="0.315685"/>
<path d="M73.3408 8.40625H82.7988V11.2591H73.3408V8.40625Z" fill="#E5E5E5" stroke="black" stroke-width="0.315685"/>
<path d="M77.3232 0H78.8166V8.40841H77.3232V0Z" fill="#E5E5E5" stroke="black" stroke-width="0.315685"/>
<path d="M65.542 43.8438H90.5973V46.6966H65.542V43.8438Z" fill="#E5E5E5" stroke="black" stroke-width="0.315685"/>
<path d="M70.3535 15.4688H85.9509V18.3216H70.3535V15.4688Z" fill="#E5E5E5" stroke="black" stroke-width="0.315685"/>
<path d="M40.6524 100.45H65.5417V90.5399L60.8957 86.1855H45.2984L42.1457 89.1885L17.0904 70.72L51.4378 86.1855H53.0971L13.9378 67.8672L1.32715 73.5729L13.9378 69.3687L40.6524 92.0414V100.45Z" fill="#CCCCCC" stroke="black" stroke-width="0.315685"/>
<path d="M13.9377 69.0699C14.7625 69.0699 15.4311 68.4649 15.4311 67.7185C15.4311 66.9722 14.7625 66.3672 13.9377 66.3672C13.1129 66.3672 12.4443 66.9722 12.4443 67.7185C12.4443 68.4649 13.1129 69.0699 13.9377 69.0699Z" fill="black" stroke="black" stroke-width="0.315685"/>
<path d="M1.49336 76.273C2.31812 76.273 2.98673 75.668 2.98673 74.9217C2.98673 74.1753 2.31812 73.5703 1.49336 73.5703C0.668601 73.5703 0 74.1753 0 74.9217C0 75.668 0.668601 76.273 1.49336 76.273Z" fill="black" stroke="black" stroke-width="0.315685"/>
<path d="M37.3342 79.1324C38.1589 79.1324 38.8275 78.5274 38.8275 77.781C38.8275 77.0347 38.1589 76.4297 37.3342 76.4297C36.5094 76.4297 35.8408 77.0347 35.8408 77.781C35.8408 78.5274 36.5094 79.1324 37.3342 79.1324Z" fill="black" stroke="black" stroke-width="0.315685"/>
<path d="M42.1465 93.3932L46.7925 87.6875H49.9452V93.3932H42.1465Z" fill="black" stroke="black" stroke-width="0.315685"/>
<path d="M51.4385 93.3932V87.6875H54.5911V93.3932H51.4385Z" fill="black" stroke="black" stroke-width="0.315685"/>
<path d="M42.1465 100.453H63.8832V103.306H42.1465V100.453Z" fill="black" stroke="black" stroke-width="0.315685"/>
<path d="M42.1465 103.305H63.8832V104.656H42.1465V103.305Z" fill="#B2B2B2" stroke="black" stroke-width="0.315685"/>
</g>
<defs>
<clipPath id="clip0_2109_218349">
<rect width="150" height="150" fill="white"/>
</clipPath>
</defs>
</svg>
